<?xml version="1.0" encoding="UTF-8" standalone="no"?>
<!DOCTYPE svg PUBLIC "-//W3C//DTD SVG 1.1//EN"
 "http://www.w3.org/Graphics/SVG/1.1/DTD/svg11.dtd">
<!-- Generated by graphviz version 2.50.0 (0)
 -->
<!-- Title: Grafo_Circuito_114_24_ Pages: 1 -->
<svg width="2116pt" height="1372pt"
 viewBox="0.00 0.00 2116.00 1372.00" xmlns="http://www.w3.org/2000/svg" xmlns:xlink="http://www.w3.org/1999/xlink">
<g id="graph0" class="graph" transform="scale(1 1) rotate(0) translate(4 1368)">
<title>Grafo_Circuito_114_24_</title>
<polygon fill="white" stroke="transparent" points="-4,4 -4,-1368 2112,-1368 2112,4 -4,4"/>
<!-- S&#45;1599 -->
<g id="node1" class="node">
<title>S&#45;1599</title>
<polygon fill="mediumseagreen" stroke="black" points="72,-245 0,-223.5 72,-202 144,-223.5 72,-245"/>
<text text-anchor="middle" x="72" y="-221" font-family="Arial" font-size="10.00">S&#45;1599</text>
</g>
<!-- R&#45;112 -->
<g id="node2" class="node">
<title>R&#45;112</title>
<polygon fill="mediumseagreen" stroke="black" points="719,-618.59 719,-636.41 676.82,-649 617.18,-649 575,-636.41 575,-618.59 617.18,-606 676.82,-606 719,-618.59"/>
<text text-anchor="middle" x="647" y="-625" font-family="Arial" font-size="10.00">R&#45;112</text>
</g>
<!-- C&#45;0593 -->
<g id="node26" class="node">
<title>C&#45;0593</title>
<ellipse fill="mediumseagreen" stroke="black" cx="522" cy="-526.5" rx="72" ry="21.5"/>
<text text-anchor="middle" x="522" y="-524" font-family="Arial" font-size="10.00">C&#45;0593</text>
</g>
<!-- R&#45;112&#45;&gt;C&#45;0593 -->
<g id="edge11" class="edge">
<title>R&#45;112&#45;&gt;C&#45;0593</title>
<path fill="none" stroke="#4d4d4d" d="M584.5,-615.52C584.5,-615.52 584.5,-544.24 584.5,-544.24"/>
<polygon fill="#4d4d4d" stroke="#4d4d4d" points="586.95,-544.24 584.5,-537.24 582.05,-544.24 586.95,-544.24"/>
</g>
<!-- S&#45;1616 -->
<g id="node3" class="node">
<title>S&#45;1616</title>
<polygon fill="mediumseagreen" stroke="black" points="771,-851 699,-829.5 771,-808 843,-829.5 771,-851"/>
<text text-anchor="middle" x="771" y="-827" font-family="Arial" font-size="10.00">S&#45;1616</text>
</g>
<!-- 114&#45;24&#45; -->
<g id="node4" class="node">
<title>114&#45;24&#45;</title>
<polygon fill="gold" stroke="black" points="1023,-1329.59 1023,-1347.41 980.82,-1360 921.18,-1360 879,-1347.41 879,-1329.59 921.18,-1317 980.82,-1317 1023,-1329.59"/>
<polygon fill="none" stroke="black" points="1027,-1326.61 1027,-1350.39 981.41,-1364 920.59,-1364 875,-1350.39 875,-1326.61 920.59,-1313 981.41,-1313 1027,-1326.61"/>
<text text-anchor="middle" x="951" y="-1336" font-family="Arial" font-size="10.00">114&#45;24&#45;</text>
</g>
<!-- C&#45;0177 -->
<g id="node35" class="node">
<title>C&#45;0177</title>
<ellipse fill="mediumseagreen" stroke="black" cx="951" cy="-1233.5" rx="72" ry="21.5"/>
<text text-anchor="middle" x="951" y="-1231" font-family="Arial" font-size="10.00">C&#45;0177</text>
</g>
<!-- 114&#45;24&#45;&#45;&gt;C&#45;0177 -->
<g id="edge1" class="edge">
<title>114&#45;24&#45;&#45;&gt;C&#45;0177</title>
<path fill="none" stroke="#4d4d4d" d="M951,-1312.81C951,-1312.81 951,-1262.03 951,-1262.03"/>
<polygon fill="#4d4d4d" stroke="#4d4d4d" points="953.45,-1262.03 951,-1255.03 948.55,-1262.03 953.45,-1262.03"/>
</g>
<!-- S&#45;1084 -->
<g id="node5" class="node">
<title>S&#45;1084</title>
<polygon fill="mediumseagreen" stroke="black" points="252,-346 180,-324.5 252,-303 324,-324.5 252,-346"/>
<text text-anchor="middle" x="252" y="-322" font-family="Arial" font-size="10.00">S&#45;1084</text>
</g>
<!-- C&#45;0955 -->
<g id="node25" class="node">
<title>C&#45;0955</title>
<ellipse fill="mediumseagreen" stroke="black" cx="346" cy="-223.5" rx="72" ry="21.5"/>
<text text-anchor="middle" x="346" y="-221" font-family="Arial" font-size="10.00">C&#45;0955</text>
</g>
<!-- S&#45;1084&#45;&gt;C&#45;0955 -->
<g id="edge16" class="edge">
<title>S&#45;1084&#45;&gt;C&#45;0955</title>
<path fill="none" stroke="#4d4d4d" d="M299,-316.91C299,-316.91 299,-247.06 299,-247.06"/>
<polygon fill="#4d4d4d" stroke="#4d4d4d" points="301.45,-247.06 299,-240.06 296.55,-247.06 301.45,-247.06"/>
</g>
<!-- C&#45;0041 -->
<g id="node39" class="node">
<title>C&#45;0041</title>
<ellipse fill="tomato" stroke="black" cx="186" cy="-122.5" rx="72" ry="21.5"/>
<text text-anchor="middle" x="186" y="-120" font-family="Arial" font-size="10.00">C&#45;0041</text>
</g>
<!-- S&#45;1084&#45;&gt;C&#45;0041 -->
<g id="edge18" class="edge">
<title>S&#45;1084&#45;&gt;C&#45;0041</title>
<path fill="none" stroke="#4d4d4d" d="M219,-312.77C219,-312.77 219,-148.61 219,-148.61"/>
<polygon fill="#4d4d4d" stroke="#4d4d4d" points="221.45,-148.61 219,-141.61 216.55,-148.61 221.45,-148.61"/>
</g>
<!-- S&#45;2425 -->
<g id="node6" class="node">
<title>S&#45;2425</title>
<polygon fill="mediumseagreen" stroke="black" points="1766,-346 1694,-324.5 1766,-303 1838,-324.5 1766,-346"/>
<text text-anchor="middle" x="1766" y="-322" font-family="Arial" font-size="10.00">S&#45;2425</text>
</g>
<!-- S&#45;277 -->
<g id="node7" class="node">
<title>S&#45;277</title>
<polygon fill="mediumseagreen" stroke="black" points="1046,-346 974,-324.5 1046,-303 1118,-324.5 1046,-346"/>
<text text-anchor="middle" x="1046" y="-322" font-family="Arial" font-size="10.00">S&#45;277</text>
</g>
<!-- S&#45;144 -->
<g id="node8" class="node">
<title>S&#45;144</title>
<polygon fill="mediumseagreen" stroke="black" points="591,-750 519,-728.5 591,-707 663,-728.5 591,-750"/>
<text text-anchor="middle" x="591" y="-726" font-family="Arial" font-size="10.00">S&#45;144</text>
</g>
<!-- S&#45;1959 -->
<g id="node9" class="node">
<title>S&#45;1959</title>
<polygon fill="mediumseagreen" stroke="black" points="1676,-447 1604,-425.5 1676,-404 1748,-425.5 1676,-447"/>
<text text-anchor="middle" x="1676" y="-423" font-family="Arial" font-size="10.00">S&#45;1959</text>
</g>
<!-- S&#45;2416 -->
<g id="node42" class="node">
<title>S&#45;2416</title>
<polygon fill="mediumseagreen" stroke="black" points="1946,-346 1874,-324.5 1946,-303 2018,-324.5 1946,-346"/>
<text text-anchor="middle" x="1946" y="-322" font-family="Arial" font-size="10.00">S&#45;2416</text>
</g>
<!-- S&#45;1959&#45;&gt;S&#45;2416 -->
<g id="edge29" class="edge">
<title>S&#45;1959&#45;&gt;S&#45;2416</title>
<path fill="none" stroke="#4d4d4d" d="M1730,-419.97C1730,-410.45 1730,-392 1730,-392 1730,-392 1901,-392 1901,-392 1901,-392 1901,-339.78 1901,-339.78"/>
<polygon fill="#4d4d4d" stroke="#4d4d4d" points="1903.45,-339.78 1901,-332.78 1898.55,-339.78 1903.45,-339.78"/>
</g>
<!-- S&#45;2262 -->
<g id="node10" class="node">
<title>S&#45;2262</title>
<polygon fill="mediumseagreen" stroke="black" points="866,-346 794,-324.5 866,-303 938,-324.5 866,-346"/>
<text text-anchor="middle" x="866" y="-322" font-family="Arial" font-size="10.00">S&#45;2262</text>
</g>
<!-- C&#45;0194 -->
<g id="node11" class="node">
<title>C&#45;0194</title>
<ellipse fill="tomato" stroke="black" cx="612" cy="-425.5" rx="72" ry="21.5"/>
<text text-anchor="middle" x="612" y="-423" font-family="Arial" font-size="10.00">C&#45;0194</text>
</g>
<!-- ext_circ_111_22_ -->
<g id="node45" class="node">
<title>ext_circ_111_22_</title>
<polygon fill="lightpink" stroke="darkorange" stroke-dasharray="5,2" points="605,-245 461,-245 461,-202 605,-202 605,-245"/>
<text text-anchor="middle" x="533" y="-226.5" font-family="Arial" font-size="10.00">Circuito:</text>
<text text-anchor="middle" x="533" y="-215.5" font-family="Arial" font-size="10.00">111&#45;22&#45;</text>
</g>
<!-- C&#45;0194&#45;&gt;ext_circ_111_22_ -->
<g id="edge47" class="edge">
<title>C&#45;0194&#45;&gt;ext_circ_111_22_</title>
<path fill="none" stroke="darkorange" stroke-dasharray="5,2" d="M572.5,-407.22C572.5,-407.22 572.5,-252.21 572.5,-252.21"/>
<polygon fill="darkorange" stroke="darkorange" points="574.95,-252.21 572.5,-245.21 570.05,-252.21 574.95,-252.21"/>
</g>
<!-- S&#45;058 -->
<g id="node12" class="node">
<title>S&#45;058</title>
<polygon fill="mediumseagreen" stroke="black" points="1856,-447 1784,-425.5 1856,-404 1928,-425.5 1856,-447"/>
<text text-anchor="middle" x="1856" y="-423" font-family="Arial" font-size="10.00">S&#45;058</text>
</g>
<!-- C&#45;0594 -->
<g id="node13" class="node">
<title>C&#45;0594</title>
<ellipse fill="mediumseagreen" stroke="black" cx="771" cy="-728.5" rx="72" ry="21.5"/>
<text text-anchor="middle" x="771" y="-726" font-family="Arial" font-size="10.00">C&#45;0594</text>
</g>
<!-- C&#45;0594&#45;&gt;R&#45;112 -->
<g id="edge10" class="edge">
<title>C&#45;0594&#45;&gt;R&#45;112</title>
<path fill="none" stroke="#4d4d4d" d="M709,-717.31C709,-717.31 709,-646.69 709,-646.69"/>
<polygon fill="#4d4d4d" stroke="#4d4d4d" points="711.45,-646.69 709,-639.69 706.55,-646.69 711.45,-646.69"/>
</g>
<!-- S&#45;235 -->
<g id="node14" class="node">
<title>S&#45;235</title>
<polygon fill="mediumseagreen" stroke="black" points="1226,-346 1154,-324.5 1226,-303 1298,-324.5 1226,-346"/>
<text text-anchor="middle" x="1226" y="-322" font-family="Arial" font-size="10.00">S&#45;235</text>
</g>
<!-- R&#45;075 -->
<g id="node15" class="node">
<title>R&#45;075</title>
<polygon fill="tomato" stroke="black" points="1478,-315.59 1478,-333.41 1435.82,-346 1376.18,-346 1334,-333.41 1334,-315.59 1376.18,-303 1435.82,-303 1478,-315.59"/>
<text text-anchor="middle" x="1406" y="-322" font-family="Arial" font-size="10.00">R&#45;075</text>
</g>
<!-- ext_circ_114_25_ -->
<g id="node46" class="node">
<title>ext_circ_114_25_</title>
<polygon fill="lightpink" stroke="darkorange" stroke-dasharray="5,2" points="1478,-245 1334,-245 1334,-202 1478,-202 1478,-245"/>
<text text-anchor="middle" x="1406" y="-226.5" font-family="Arial" font-size="10.00">Circuito:</text>
<text text-anchor="middle" x="1406" y="-215.5" font-family="Arial" font-size="10.00">114&#45;25&#45;</text>
</g>
<!-- R&#45;075&#45;&gt;ext_circ_114_25_ -->
<g id="edge49" class="edge">
<title>R&#45;075&#45;&gt;ext_circ_114_25_</title>
<path fill="none" stroke="darkorange" stroke-dasharray="5,2" d="M1406,-302.58C1406,-302.58 1406,-252.03 1406,-252.03"/>
<polygon fill="darkorange" stroke="darkorange" points="1408.45,-252.03 1406,-245.03 1403.55,-252.03 1408.45,-252.03"/>
</g>
<!-- S&#45;2501 -->
<g id="node16" class="node">
<title>S&#45;2501</title>
<polygon fill="mediumseagreen" stroke="black" points="72,-346 0,-324.5 72,-303 144,-324.5 72,-346"/>
<text text-anchor="middle" x="72" y="-322" font-family="Arial" font-size="10.00">S&#45;2501</text>
</g>
<!-- S&#45;2501&#45;&gt;S&#45;1599 -->
<g id="edge14" class="edge">
<title>S&#45;2501&#45;&gt;S&#45;1599</title>
<path fill="none" stroke="#4d4d4d" d="M72,-302.58C72,-302.58 72,-252.03 72,-252.03"/>
<polygon fill="#4d4d4d" stroke="#4d4d4d" points="74.45,-252.03 72,-245.03 69.55,-252.03 74.45,-252.03"/>
</g>
<!-- S&#45;2483 -->
<g id="node17" class="node">
<title>S&#45;2483</title>
<polygon fill="mediumseagreen" stroke="black" points="2036,-447 1964,-425.5 2036,-404 2108,-425.5 2036,-447"/>
<text text-anchor="middle" x="2036" y="-423" font-family="Arial" font-size="10.00">S&#45;2483</text>
</g>
<!-- S&#45;272 -->
<g id="node18" class="node">
<title>S&#45;272</title>
<polygon fill="mediumseagreen" stroke="black" points="866,-447 794,-425.5 866,-404 938,-425.5 866,-447"/>
<text text-anchor="middle" x="866" y="-423" font-family="Arial" font-size="10.00">S&#45;272</text>
</g>
<!-- S&#45;272&#45;&gt;S&#45;2262 -->
<g id="edge32" class="edge">
<title>S&#45;272&#45;&gt;S&#45;2262</title>
<path fill="none" stroke="#4d4d4d" d="M866,-403.58C866,-403.58 866,-353.03 866,-353.03"/>
<polygon fill="#4d4d4d" stroke="#4d4d4d" points="868.45,-353.03 866,-346.03 863.55,-353.03 868.45,-353.03"/>
</g>
<!-- S&#45;204 -->
<g id="node41" class="node">
<title>S&#45;204</title>
<polygon fill="mediumseagreen" stroke="black" points="686,-346 614,-324.5 686,-303 758,-324.5 686,-346"/>
<text text-anchor="middle" x="686" y="-322" font-family="Arial" font-size="10.00">S&#45;204</text>
</g>
<!-- S&#45;272&#45;&gt;S&#45;204 -->
<g id="edge33" class="edge">
<title>S&#45;272&#45;&gt;S&#45;204</title>
<path fill="none" stroke="#4d4d4d" d="M795.54,-425C766.05,-425 738.5,-425 738.5,-425 738.5,-425 738.5,-337.49 738.5,-337.49"/>
<polygon fill="#4d4d4d" stroke="#4d4d4d" points="740.95,-337.49 738.5,-330.49 736.05,-337.49 740.95,-337.49"/>
</g>
<!-- R&#45;225 -->
<g id="node19" class="node">
<title>R&#45;225</title>
<polygon fill="tomato" stroke="black" points="438,-113.59 438,-131.41 395.82,-144 336.18,-144 294,-131.41 294,-113.59 336.18,-101 395.82,-101 438,-113.59"/>
<text text-anchor="middle" x="366" y="-120" font-family="Arial" font-size="10.00">R&#45;225</text>
</g>
<!-- ext_circ_109_28_ -->
<g id="node44" class="node">
<title>ext_circ_109_28_</title>
<polygon fill="lightpink" stroke="darkorange" stroke-dasharray="5,2" points="348,-43 204,-43 204,0 348,0 348,-43"/>
<text text-anchor="middle" x="276" y="-24.5" font-family="Arial" font-size="10.00">Circuito:</text>
<text text-anchor="middle" x="276" y="-13.5" font-family="Arial" font-size="10.00">109&#45;28&#45;</text>
</g>
<!-- R&#45;225&#45;&gt;ext_circ_109_28_ -->
<g id="edge44" class="edge">
<title>R&#45;225&#45;&gt;ext_circ_109_28_</title>
<path fill="none" stroke="darkorange" stroke-dasharray="5,2" d="M321,-105.37C321,-105.37 321,-50.31 321,-50.31"/>
<polygon fill="darkorange" stroke="darkorange" points="323.45,-50.31 321,-43.31 318.55,-50.31 323.45,-50.31"/>
</g>
<!-- S&#45;1444 -->
<g id="node20" class="node">
<title>S&#45;1444</title>
<polygon fill="mediumseagreen" stroke="black" points="1136,-447 1064,-425.5 1136,-404 1208,-425.5 1136,-447"/>
<text text-anchor="middle" x="1136" y="-423" font-family="Arial" font-size="10.00">S&#45;1444</text>
</g>
<!-- S&#45;275 -->
<g id="node21" class="node">
<title>S&#45;275</title>
<polygon fill="mediumseagreen" stroke="black" points="1586,-346 1514,-324.5 1586,-303 1658,-324.5 1586,-346"/>
<text text-anchor="middle" x="1586" y="-322" font-family="Arial" font-size="10.00">S&#45;275</text>
</g>
<!-- S&#45;273 -->
<g id="node38" class="node">
<title>S&#45;273</title>
<polygon fill="mediumseagreen" stroke="black" points="1586,-245 1514,-223.5 1586,-202 1658,-223.5 1586,-245"/>
<text text-anchor="middle" x="1586" y="-221" font-family="Arial" font-size="10.00">S&#45;273</text>
</g>
<!-- S&#45;275&#45;&gt;S&#45;273 -->
<g id="edge40" class="edge">
<title>S&#45;275&#45;&gt;S&#45;273</title>
<path fill="none" stroke="#4d4d4d" d="M1586,-302.58C1586,-302.58 1586,-252.03 1586,-252.03"/>
<polygon fill="#4d4d4d" stroke="#4d4d4d" points="1588.45,-252.03 1586,-245.03 1583.55,-252.03 1588.45,-252.03"/>
</g>
<!-- C&#45;0647 -->
<g id="node22" class="node">
<title>C&#45;0647</title>
<ellipse fill="mediumseagreen" stroke="black" cx="861" cy="-930.5" rx="72" ry="21.5"/>
<text text-anchor="middle" x="861" y="-928" font-family="Arial" font-size="10.00">C&#45;0647</text>
</g>
<!-- C&#45;0647&#45;&gt;S&#45;1616 -->
<g id="edge6" class="edge">
<title>C&#45;0647&#45;&gt;S&#45;1616</title>
<path fill="none" stroke="#4d4d4d" d="M816,-913.37C816,-913.37 816,-844.78 816,-844.78"/>
<polygon fill="#4d4d4d" stroke="#4d4d4d" points="818.45,-844.78 816,-837.78 813.55,-844.78 818.45,-844.78"/>
</g>
<!-- C&#45;0749 -->
<g id="node23" class="node">
<title>C&#45;0749</title>
<ellipse fill="mediumseagreen" stroke="black" cx="951" cy="-829.5" rx="72" ry="21.5"/>
<text text-anchor="middle" x="951" y="-827" font-family="Arial" font-size="10.00">C&#45;0749</text>
</g>
<!-- C&#45;0647&#45;&gt;C&#45;0749 -->
<g id="edge7" class="edge">
<title>C&#45;0647&#45;&gt;C&#45;0749</title>
<path fill="none" stroke="#4d4d4d" d="M906,-913.37C906,-913.37 906,-853.38 906,-853.38"/>
<polygon fill="#4d4d4d" stroke="#4d4d4d" points="908.45,-853.38 906,-846.38 903.55,-853.38 908.45,-853.38"/>
</g>
<!-- C&#45;0749&#45;&gt;S&#45;144 -->
<g id="edge42" class="edge">
<title>C&#45;0749&#45;&gt;S&#45;144</title>
<path fill="none" stroke="#4d4d4d" d="M927,-808.96C927,-794.98 927,-779 927,-779 927,-779 591,-779 591,-779 591,-779 591,-757.21 591,-757.21"/>
<polygon fill="#4d4d4d" stroke="#4d4d4d" points="593.45,-757.21 591,-750.21 588.55,-757.21 593.45,-757.21"/>
</g>
<!-- C&#45;0749&#45;&gt;C&#45;0594 -->
<g id="edge9" class="edge">
<title>C&#45;0749&#45;&gt;C&#45;0594</title>
<path fill="none" stroke="#4d4d4d" d="M878.78,-829C868.32,-829 861,-829 861,-829 861,-829 861,-728 861,-728 861,-728 850.22,-728 850.22,-728"/>
<polygon fill="#4d4d4d" stroke="#4d4d4d" points="850.22,-725.55 843.22,-728 850.22,-730.45 850.22,-725.55"/>
</g>
<!-- C&#45;0595 -->
<g id="node27" class="node">
<title>C&#45;0595</title>
<ellipse fill="tomato" stroke="black" cx="951" cy="-728.5" rx="72" ry="21.5"/>
<text text-anchor="middle" x="951" y="-726" font-family="Arial" font-size="10.00">C&#45;0595</text>
</g>
<!-- C&#45;0749&#45;&gt;C&#45;0595 -->
<g id="edge23" class="edge">
<title>C&#45;0749&#45;&gt;C&#45;0595</title>
<path fill="none" stroke="#4d4d4d" d="M975,-809.06C975,-809.06 975,-755.91 975,-755.91"/>
<polygon fill="#4d4d4d" stroke="#4d4d4d" points="977.45,-755.91 975,-748.91 972.55,-755.91 977.45,-755.91"/>
</g>
<!-- C&#45;0598 -->
<g id="node32" class="node">
<title>C&#45;0598</title>
<ellipse fill="mediumseagreen" stroke="black" cx="1131" cy="-728.5" rx="72" ry="21.5"/>
<text text-anchor="middle" x="1131" y="-726" font-family="Arial" font-size="10.00">C&#45;0598</text>
</g>
<!-- C&#45;0749&#45;&gt;C&#45;0598 -->
<g id="edge22" class="edge">
<title>C&#45;0749&#45;&gt;C&#45;0598</title>
<path fill="none" stroke="#4d4d4d" d="M1018.5,-822C1052.25,-822 1086,-822 1086,-822 1086,-822 1086,-752.65 1086,-752.65"/>
<polygon fill="#4d4d4d" stroke="#4d4d4d" points="1088.45,-752.65 1086,-745.65 1083.55,-752.65 1088.45,-752.65"/>
</g>
<!-- C&#45;0592 -->
<g id="node36" class="node">
<title>C&#45;0592</title>
<ellipse fill="tomato" stroke="black" cx="1311" cy="-728.5" rx="72" ry="21.5"/>
<text text-anchor="middle" x="1311" y="-726" font-family="Arial" font-size="10.00">C&#45;0592</text>
</g>
<!-- C&#45;0749&#45;&gt;C&#45;0592 -->
<g id="edge8" class="edge">
<title>C&#45;0749&#45;&gt;C&#45;0592</title>
<path fill="none" stroke="#4d4d4d" d="M1019.99,-836C1124.52,-836 1311,-836 1311,-836 1311,-836 1311,-757.25 1311,-757.25"/>
<polygon fill="#4d4d4d" stroke="#4d4d4d" points="1313.45,-757.25 1311,-750.25 1308.55,-757.25 1313.45,-757.25"/>
</g>
<!-- R&#45;113 -->
<g id="node24" class="node">
<title>R&#45;113</title>
<polygon fill="mediumseagreen" stroke="black" points="1229,-618.59 1229,-636.41 1186.82,-649 1127.18,-649 1085,-636.41 1085,-618.59 1127.18,-606 1186.82,-606 1229,-618.59"/>
<text text-anchor="middle" x="1157" y="-625" font-family="Arial" font-size="10.00">R&#45;113</text>
</g>
<!-- C&#45;0599 -->
<g id="node28" class="node">
<title>C&#45;0599</title>
<ellipse fill="mediumseagreen" stroke="black" cx="1406" cy="-526.5" rx="72" ry="21.5"/>
<text text-anchor="middle" x="1406" y="-524" font-family="Arial" font-size="10.00">C&#45;0599</text>
</g>
<!-- R&#45;113&#45;&gt;C&#45;0599 -->
<g id="edge25" class="edge">
<title>R&#45;113&#45;&gt;C&#45;0599</title>
<path fill="none" stroke="#4d4d4d" d="M1218.5,-615.15C1218.5,-589.53 1218.5,-533 1218.5,-533 1218.5,-533 1330.25,-533 1330.25,-533"/>
<polygon fill="#4d4d4d" stroke="#4d4d4d" points="1330.25,-535.45 1337.25,-533 1330.25,-530.55 1330.25,-535.45"/>
</g>
<!-- C&#45;0955&#45;&gt;R&#45;225 -->
<g id="edge17" class="edge">
<title>C&#45;0955&#45;&gt;R&#45;225</title>
<path fill="none" stroke="#4d4d4d" d="M356,-202.08C356,-202.08 356,-151.24 356,-151.24"/>
<polygon fill="#4d4d4d" stroke="#4d4d4d" points="358.45,-151.24 356,-144.24 353.55,-151.24 358.45,-151.24"/>
</g>
<!-- C&#45;0593&#45;&gt;C&#45;0194 -->
<g id="edge21" class="edge">
<title>C&#45;0593&#45;&gt;C&#45;0194</title>
<path fill="none" stroke="#4d4d4d" d="M567,-509.37C567,-509.37 567,-449.38 567,-449.38"/>
<polygon fill="#4d4d4d" stroke="#4d4d4d" points="569.45,-449.38 567,-442.38 564.55,-449.38 569.45,-449.38"/>
</g>
<!-- S&#45;1600 -->
<g id="node31" class="node">
<title>S&#45;1600</title>
<polygon fill="mediumseagreen" stroke="black" points="252,-447 180,-425.5 252,-404 324,-425.5 252,-447"/>
<text text-anchor="middle" x="252" y="-423" font-family="Arial" font-size="10.00">S&#45;1600</text>
</g>
<!-- C&#45;0593&#45;&gt;S&#45;1600 -->
<g id="edge12" class="edge">
<title>C&#45;0593&#45;&gt;S&#45;1600</title>
<path fill="none" stroke="#4d4d4d" d="M450,-526C370.02,-526 252,-526 252,-526 252,-526 252,-454.31 252,-454.31"/>
<polygon fill="#4d4d4d" stroke="#4d4d4d" points="254.45,-454.31 252,-447.31 249.55,-454.31 254.45,-454.31"/>
</g>
<!-- C&#45;1133 -->
<g id="node40" class="node">
<title>C&#45;1133</title>
<ellipse fill="mediumseagreen" stroke="black" cx="432" cy="-425.5" rx="72" ry="21.5"/>
<text text-anchor="middle" x="432" y="-423" font-family="Arial" font-size="10.00">C&#45;1133</text>
</g>
<!-- C&#45;0593&#45;&gt;C&#45;1133 -->
<g id="edge19" class="edge">
<title>C&#45;0593&#45;&gt;C&#45;1133</title>
<path fill="none" stroke="#4d4d4d" d="M477,-509.37C477,-509.37 477,-449.38 477,-449.38"/>
<polygon fill="#4d4d4d" stroke="#4d4d4d" points="479.45,-449.38 477,-442.38 474.55,-449.38 479.45,-449.38"/>
</g>
<!-- C&#45;0595&#45;&gt;C&#45;0599 -->
<g id="edge48" class="edge">
<title>C&#45;0595&#45;&gt;C&#45;0599</title>
<path fill="none" stroke="blue" stroke-dasharray="5,2" d="M998.5,-712.27C998.5,-664.22 998.5,-526 998.5,-526 998.5,-526 1326.62,-526 1326.62,-526"/>
<polygon fill="blue" stroke="blue" points="1326.62,-528.45 1333.62,-526 1326.62,-523.55 1326.62,-528.45"/>
</g>
<!-- C&#45;0599&#45;&gt;S&#45;1959 -->
<g id="edge28" class="edge">
<title>C&#45;0599&#45;&gt;S&#45;1959</title>
<path fill="none" stroke="#4d4d4d" d="M1466.93,-515C1546.56,-515 1676,-515 1676,-515 1676,-515 1676,-454.17 1676,-454.17"/>
<polygon fill="#4d4d4d" stroke="#4d4d4d" points="1678.45,-454.17 1676,-447.17 1673.55,-454.17 1678.45,-454.17"/>
</g>
<!-- C&#45;0599&#45;&gt;S&#45;058 -->
<g id="edge30" class="edge">
<title>C&#45;0599&#45;&gt;S&#45;058</title>
<path fill="none" stroke="#4d4d4d" d="M1478.3,-526C1605.5,-526 1856,-526 1856,-526 1856,-526 1856,-454.31 1856,-454.31"/>
<polygon fill="#4d4d4d" stroke="#4d4d4d" points="1858.45,-454.31 1856,-447.31 1853.55,-454.31 1858.45,-454.31"/>
</g>
<!-- C&#45;0599&#45;&gt;S&#45;2483 -->
<g id="edge41" class="edge">
<title>C&#45;0599&#45;&gt;S&#45;2483</title>
<path fill="none" stroke="#4d4d4d" d="M1469,-537C1628.56,-537 2036,-537 2036,-537 2036,-537 2036,-454.26 2036,-454.26"/>
<polygon fill="#4d4d4d" stroke="#4d4d4d" points="2038.45,-454.26 2036,-447.26 2033.55,-454.26 2038.45,-454.26"/>
</g>
<!-- C&#45;0599&#45;&gt;S&#45;272 -->
<g id="edge31" class="edge">
<title>C&#45;0599&#45;&gt;S&#45;272</title>
<path fill="none" stroke="#4d4d4d" d="M1338.39,-519C1202.36,-519 908.5,-519 908.5,-519 908.5,-519 908.5,-441.47 908.5,-441.47"/>
<polygon fill="#4d4d4d" stroke="#4d4d4d" points="910.95,-441.47 908.5,-434.47 906.05,-441.47 910.95,-441.47"/>
</g>
<!-- C&#45;0599&#45;&gt;S&#45;1444 -->
<g id="edge26" class="edge">
<title>C&#45;0599&#45;&gt;S&#45;1444</title>
<path fill="none" stroke="#4d4d4d" d="M1352.55,-512C1276.58,-512 1146.5,-512 1146.5,-512 1146.5,-512 1146.5,-451.27 1146.5,-451.27"/>
<polygon fill="#4d4d4d" stroke="#4d4d4d" points="1148.95,-451.27 1146.5,-444.27 1144.05,-451.27 1148.95,-451.27"/>
</g>
<!-- S&#45;234 -->
<g id="node29" class="node">
<title>S&#45;234</title>
<polygon fill="mediumseagreen" stroke="black" points="1316,-447 1244,-425.5 1316,-404 1388,-425.5 1316,-447"/>
<text text-anchor="middle" x="1316" y="-423" font-family="Arial" font-size="10.00">S&#45;234</text>
</g>
<!-- C&#45;0599&#45;&gt;S&#45;234 -->
<g id="edge34" class="edge">
<title>C&#45;0599&#45;&gt;S&#45;234</title>
<path fill="none" stroke="#4d4d4d" d="M1361,-509.37C1361,-509.37 1361,-440.78 1361,-440.78"/>
<polygon fill="#4d4d4d" stroke="#4d4d4d" points="1363.45,-440.78 1361,-433.78 1358.55,-440.78 1363.45,-440.78"/>
</g>
<!-- S&#45;2502 -->
<g id="node33" class="node">
<title>S&#45;2502</title>
<polygon fill="mediumseagreen" stroke="black" points="1496,-447 1424,-425.5 1496,-404 1568,-425.5 1496,-447"/>
<text text-anchor="middle" x="1496" y="-423" font-family="Arial" font-size="10.00">S&#45;2502</text>
</g>
<!-- C&#45;0599&#45;&gt;S&#45;2502 -->
<g id="edge27" class="edge">
<title>C&#45;0599&#45;&gt;S&#45;2502</title>
<path fill="none" stroke="#4d4d4d" d="M1451,-509.37C1451,-509.37 1451,-440.78 1451,-440.78"/>
<polygon fill="#4d4d4d" stroke="#4d4d4d" points="1453.45,-440.78 1451,-433.78 1448.55,-440.78 1453.45,-440.78"/>
</g>
<!-- S&#45;234&#45;&gt;S&#45;2425 -->
<g id="edge35" class="edge">
<title>S&#45;234&#45;&gt;S&#45;2425</title>
<path fill="none" stroke="#4d4d4d" d="M1374.5,-421.3C1374.5,-410.04 1374.5,-380 1374.5,-380 1374.5,-380 1712,-380 1712,-380 1712,-380 1712,-337.02 1712,-337.02"/>
<polygon fill="#4d4d4d" stroke="#4d4d4d" points="1714.45,-337.02 1712,-330.02 1709.55,-337.02 1714.45,-337.02"/>
</g>
<!-- S&#45;234&#45;&gt;S&#45;277 -->
<g id="edge37" class="edge">
<title>S&#45;234&#45;&gt;S&#45;277</title>
<path fill="none" stroke="#4d4d4d" d="M1262,-420.12C1262,-403.98 1262,-357 1262,-357 1262,-357 1091,-357 1091,-357 1091,-357 1091,-339.7 1091,-339.7"/>
<polygon fill="#4d4d4d" stroke="#4d4d4d" points="1093.45,-339.7 1091,-332.7 1088.55,-339.7 1093.45,-339.7"/>
</g>
<!-- S&#45;234&#45;&gt;S&#45;235 -->
<g id="edge36" class="edge">
<title>S&#45;234&#45;&gt;S&#45;235</title>
<path fill="none" stroke="#4d4d4d" d="M1280,-414.69C1280,-414.69 1280,-337.12 1280,-337.12"/>
<polygon fill="#4d4d4d" stroke="#4d4d4d" points="1282.45,-337.12 1280,-330.12 1277.55,-337.12 1282.45,-337.12"/>
</g>
<!-- S&#45;234&#45;&gt;R&#45;075 -->
<g id="edge38" class="edge">
<title>S&#45;234&#45;&gt;R&#45;075</title>
<path fill="none" stroke="#4d4d4d" d="M1347.5,-413.12C1347.5,-413.12 1347.5,-344.63 1347.5,-344.63"/>
<polygon fill="#4d4d4d" stroke="#4d4d4d" points="1349.95,-344.63 1347.5,-337.63 1345.05,-344.63 1349.95,-344.63"/>
</g>
<!-- S&#45;234&#45;&gt;S&#45;275 -->
<g id="edge39" class="edge">
<title>S&#45;234&#45;&gt;S&#45;275</title>
<path fill="none" stroke="#4d4d4d" d="M1361,-417.16C1361,-401.45 1361,-369 1361,-369 1361,-369 1541,-369 1541,-369 1541,-369 1541,-339.66 1541,-339.66"/>
<polygon fill="#4d4d4d" stroke="#4d4d4d" points="1543.45,-339.66 1541,-332.66 1538.55,-339.66 1543.45,-339.66"/>
</g>
<!-- C&#45;0451 -->
<g id="node30" class="node">
<title>C&#45;0451</title>
<ellipse fill="mediumseagreen" stroke="black" cx="951" cy="-1031.5" rx="72" ry="21.5"/>
<text text-anchor="middle" x="951" y="-1029" font-family="Arial" font-size="10.00">C&#45;0451</text>
</g>
<!-- C&#45;0451&#45;&gt;C&#45;0647 -->
<g id="edge5" class="edge">
<title>C&#45;0451&#45;&gt;C&#45;0647</title>
<path fill="none" stroke="#4d4d4d" d="M906,-1014.37C906,-1014.37 906,-954.38 906,-954.38"/>
<polygon fill="#4d4d4d" stroke="#4d4d4d" points="908.45,-954.38 906,-947.38 903.55,-954.38 908.45,-954.38"/>
</g>
<!-- S&#45;1709 -->
<g id="node43" class="node">
<title>S&#45;1709</title>
<polygon fill="mediumseagreen" stroke="black" points="1041,-952 969,-930.5 1041,-909 1113,-930.5 1041,-952"/>
<text text-anchor="middle" x="1041" y="-928" font-family="Arial" font-size="10.00">S&#45;1709</text>
</g>
<!-- C&#45;0451&#45;&gt;S&#45;1709 -->
<g id="edge4" class="edge">
<title>C&#45;0451&#45;&gt;S&#45;1709</title>
<path fill="none" stroke="#4d4d4d" d="M996,-1014.37C996,-1014.37 996,-945.78 996,-945.78"/>
<polygon fill="#4d4d4d" stroke="#4d4d4d" points="998.45,-945.78 996,-938.78 993.55,-945.78 998.45,-945.78"/>
</g>
<!-- S&#45;1600&#45;&gt;S&#45;1084 -->
<g id="edge15" class="edge">
<title>S&#45;1600&#45;&gt;S&#45;1084</title>
<path fill="none" stroke="#4d4d4d" d="M252,-403.58C252,-403.58 252,-353.03 252,-353.03"/>
<polygon fill="#4d4d4d" stroke="#4d4d4d" points="254.45,-353.03 252,-346.03 249.55,-353.03 254.45,-353.03"/>
</g>
<!-- S&#45;1600&#45;&gt;S&#45;2501 -->
<g id="edge13" class="edge">
<title>S&#45;1600&#45;&gt;S&#45;2501</title>
<path fill="none" stroke="#4d4d4d" d="M181.63,-425C131.15,-425 72,-425 72,-425 72,-425 72,-353.31 72,-353.31"/>
<polygon fill="#4d4d4d" stroke="#4d4d4d" points="74.45,-353.31 72,-346.31 69.55,-353.31 74.45,-353.31"/>
</g>
<!-- C&#45;0598&#45;&gt;R&#45;113 -->
<g id="edge24" class="edge">
<title>C&#45;0598&#45;&gt;R&#45;113</title>
<path fill="none" stroke="#4d4d4d" d="M1144,-707.08C1144,-707.08 1144,-656.24 1144,-656.24"/>
<polygon fill="#4d4d4d" stroke="#4d4d4d" points="1146.45,-656.24 1144,-649.24 1141.55,-656.24 1146.45,-656.24"/>
</g>
<!-- R&#45;284 -->
<g id="node34" class="node">
<title>R&#45;284</title>
<polygon fill="tomato" stroke="black" points="504,-315.59 504,-333.41 461.82,-346 402.18,-346 360,-333.41 360,-315.59 402.18,-303 461.82,-303 504,-315.59"/>
<text text-anchor="middle" x="432" y="-322" font-family="Arial" font-size="10.00">R&#45;284</text>
</g>
<!-- R&#45;284&#45;&gt;ext_circ_111_22_ -->
<g id="edge46" class="edge">
<title>R&#45;284&#45;&gt;ext_circ_111_22_</title>
<path fill="none" stroke="darkorange" stroke-dasharray="5,2" d="M482.5,-309.16C482.5,-309.16 482.5,-252.36 482.5,-252.36"/>
<polygon fill="darkorange" stroke="darkorange" points="484.95,-252.36 482.5,-245.36 480.05,-252.36 484.95,-252.36"/>
</g>
<!-- S&#45;140 -->
<g id="node37" class="node">
<title>S&#45;140</title>
<polygon fill="mediumseagreen" stroke="black" points="951,-1154 879,-1132.5 951,-1111 1023,-1132.5 951,-1154"/>
<text text-anchor="middle" x="951" y="-1130" font-family="Arial" font-size="10.00">S&#45;140</text>
</g>
<!-- C&#45;0177&#45;&gt;S&#45;140 -->
<g id="edge2" class="edge">
<title>C&#45;0177&#45;&gt;S&#45;140</title>
<path fill="none" stroke="#4d4d4d" d="M951,-1211.58C951,-1211.58 951,-1161.03 951,-1161.03"/>
<polygon fill="#4d4d4d" stroke="#4d4d4d" points="953.45,-1161.03 951,-1154.03 948.55,-1161.03 953.45,-1161.03"/>
</g>
<!-- C&#45;0592&#45;&gt;C&#45;0593 -->
<g id="edge43" class="edge">
<title>C&#45;0592&#45;&gt;C&#45;0593</title>
<path fill="none" stroke="blue" stroke-dasharray="5,2" d="M1289,-707.97C1289,-659.11 1289,-540 1289,-540 1289,-540 585.09,-540 585.09,-540"/>
<polygon fill="blue" stroke="blue" points="585.09,-537.55 578.09,-540 585.09,-542.45 585.09,-537.55"/>
</g>
<!-- S&#45;140&#45;&gt;C&#45;0451 -->
<g id="edge3" class="edge">
<title>S&#45;140&#45;&gt;C&#45;0451</title>
<path fill="none" stroke="#4d4d4d" d="M951,-1110.58C951,-1110.58 951,-1060.03 951,-1060.03"/>
<polygon fill="#4d4d4d" stroke="#4d4d4d" points="953.45,-1060.03 951,-1053.03 948.55,-1060.03 953.45,-1060.03"/>
</g>
<!-- C&#45;0041&#45;&gt;ext_circ_109_28_ -->
<g id="edge45" class="edge">
<title>C&#45;0041&#45;&gt;ext_circ_109_28_</title>
<path fill="none" stroke="darkorange" stroke-dasharray="5,2" d="M231,-105.37C231,-105.37 231,-50.31 231,-50.31"/>
<polygon fill="darkorange" stroke="darkorange" points="233.45,-50.31 231,-43.31 228.55,-50.31 233.45,-50.31"/>
</g>
<!-- C&#45;1133&#45;&gt;R&#45;284 -->
<g id="edge20" class="edge">
<title>C&#45;1133&#45;&gt;R&#45;284</title>
<path fill="none" stroke="#4d4d4d" d="M432,-403.58C432,-403.58 432,-353.03 432,-353.03"/>
<polygon fill="#4d4d4d" stroke="#4d4d4d" points="434.45,-353.03 432,-346.03 429.55,-353.03 434.45,-353.03"/>
</g>
</g>
</svg>
