<?xml version="1.0" encoding="UTF-8" standalone="no"?>
<!DOCTYPE svg PUBLIC "-//W3C//DTD SVG 1.1//EN"
 "http://www.w3.org/Graphics/SVG/1.1/DTD/svg11.dtd">
<!-- Generated by graphviz version 2.50.0 (0)
 -->
<!-- Title: Grafo_Circuito_208_26_ Pages: 1 -->
<svg width="1289pt" height="1368pt"
 viewBox="0.00 0.00 1289.00 1368.00" xmlns="http://www.w3.org/2000/svg" xmlns:xlink="http://www.w3.org/1999/xlink">
<g id="graph0" class="graph" transform="scale(1 1) rotate(0) translate(4 1364)">
<title>Grafo_Circuito_208_26_</title>
<polygon fill="white" stroke="transparent" points="-4,4 -4,-1364 1285,-1364 1285,4 -4,4"/>
<!-- R&#45;281 -->
<g id="node1" class="node">
<title>R&#45;281</title>
<polygon fill="tomato" stroke="black" points="343,-950.54 343,-965.46 302.87,-976 246.13,-976 206,-965.46 206,-950.54 246.13,-940 302.87,-940 343,-950.54"/>
<text text-anchor="middle" x="274.5" y="-956.1" font-family="Helvetica,sans-Serif" font-size="8.00">R&#45;281</text>
</g>
<!-- ext_circ_208_22_ -->
<g id="node39" class="node">
<title>ext_circ_208_22_</title>
<polygon fill="lightpink" stroke="red" stroke-dasharray="5,2" points="137,-1356 0,-1356 0,-1320 137,-1320 137,-1356"/>
<text text-anchor="middle" x="68.5" y="-1340.6" font-family="Helvetica,sans-Serif" font-size="8.00">Circuito:</text>
<text text-anchor="middle" x="68.5" y="-1331.6" font-family="Helvetica,sans-Serif" font-size="8.00">208&#45;22&#45;</text>
</g>
<!-- R&#45;281&#45;&gt;ext_circ_208_22_ -->
<g id="edge40" class="edge">
<title>R&#45;281&#45;&gt;ext_circ_208_22_</title>
<path fill="none" stroke="red" stroke-width="0.8" stroke-dasharray="5,2" d="M205.91,-958C181.53,-958 160,-958 160,-958 160,-958 160,-1338 160,-1338 160,-1338 144.38,-1338 144.38,-1338"/>
<polygon fill="red" stroke="red" stroke-width="0.8" points="144.38,-1335.55 137.38,-1338 144.38,-1340.45 144.38,-1335.55"/>
</g>
<!-- SPR&#45;62 -->
<g id="node2" class="node">
<title>SPR&#45;62</title>
<polygon fill="mediumseagreen" stroke="black" points="1039.5,-882 971,-864 1039.5,-846 1108,-864 1039.5,-882"/>
<text text-anchor="middle" x="1039.5" y="-862.1" font-family="Helvetica,sans-Serif" font-size="8.00">SPR&#45;62</text>
</g>
<!-- C&#45;0501 -->
<g id="node26" class="node">
<title>C&#45;0501</title>
<ellipse fill="mediumseagreen" stroke="black" cx="1039.5" cy="-770" rx="68.5" ry="18"/>
<text text-anchor="middle" x="1039.5" y="-768.1" font-family="Helvetica,sans-Serif" font-size="8.00">C&#45;0501</text>
</g>
<!-- SPR&#45;62&#45;&gt;C&#45;0501 -->
<g id="edge35" class="edge">
<title>SPR&#45;62&#45;&gt;C&#45;0501</title>
<path fill="none" stroke="dimgray" stroke-width="0.8" d="M1039.5,-845.88C1039.5,-845.88 1039.5,-795.07 1039.5,-795.07"/>
<polygon fill="dimgray" stroke="dimgray" stroke-width="0.8" points="1041.95,-795.07 1039.5,-788.07 1037.05,-795.07 1041.95,-795.07"/>
</g>
<!-- S&#45;2596 -->
<g id="node3" class="node">
<title>S&#45;2596</title>
<polygon fill="mediumseagreen" stroke="black" points="205.5,-600 137,-582 205.5,-564 274,-582 205.5,-600"/>
<text text-anchor="middle" x="205.5" y="-580.1" font-family="Helvetica,sans-Serif" font-size="8.00">S&#45;2596</text>
</g>
<!-- S&#45;1652 -->
<g id="node4" class="node">
<title>S&#45;1652</title>
<polygon fill="mediumseagreen" stroke="black" points="378.5,-224 310,-206 378.5,-188 447,-206 378.5,-224"/>
<text text-anchor="middle" x="378.5" y="-204.1" font-family="Helvetica,sans-Serif" font-size="8.00">S&#45;1652</text>
</g>
<!-- SR&#45;0033 -->
<g id="node18" class="node">
<title>SR&#45;0033</title>
<polygon fill="mediumseagreen" stroke="black" points="378.5,-130 310,-112 378.5,-94 447,-112 378.5,-130"/>
<text text-anchor="middle" x="378.5" y="-110.1" font-family="Helvetica,sans-Serif" font-size="8.00">SR&#45;0033</text>
</g>
<!-- S&#45;1652&#45;&gt;SR&#45;0033 -->
<g id="edge22" class="edge">
<title>S&#45;1652&#45;&gt;SR&#45;0033</title>
<path fill="none" stroke="dimgray" stroke-width="0.8" d="M378.5,-187.88C378.5,-187.88 378.5,-137.07 378.5,-137.07"/>
<polygon fill="dimgray" stroke="dimgray" stroke-width="0.8" points="380.95,-137.07 378.5,-130.07 376.05,-137.07 380.95,-137.07"/>
</g>
<!-- S&#45;998 -->
<g id="node5" class="node">
<title>S&#45;998</title>
<polygon fill="mediumseagreen" stroke="black" points="292.5,-694 224,-676 292.5,-658 361,-676 292.5,-694"/>
<text text-anchor="middle" x="292.5" y="-674.1" font-family="Helvetica,sans-Serif" font-size="8.00">S&#45;998</text>
</g>
<!-- C&#45;0558 -->
<g id="node6" class="node">
<title>C&#45;0558</title>
<ellipse fill="mediumseagreen" stroke="black" cx="522.5" cy="-958" rx="68.5" ry="18"/>
<text text-anchor="middle" x="522.5" y="-956.1" font-family="Helvetica,sans-Serif" font-size="8.00">C&#45;0558</text>
</g>
<!-- R&#45;119 -->
<g id="node16" class="node">
<title>R&#45;119</title>
<polygon fill="mediumseagreen" stroke="black" points="591,-856.54 591,-871.46 550.87,-882 494.13,-882 454,-871.46 454,-856.54 494.13,-846 550.87,-846 591,-856.54"/>
<text text-anchor="middle" x="522.5" y="-862.1" font-family="Helvetica,sans-Serif" font-size="8.00">R&#45;119</text>
</g>
<!-- C&#45;0558&#45;&gt;R&#45;119 -->
<g id="edge9" class="edge">
<title>C&#45;0558&#45;&gt;R&#45;119</title>
<path fill="none" stroke="dimgray" stroke-width="0.8" d="M522.5,-939.88C522.5,-939.88 522.5,-889.07 522.5,-889.07"/>
<polygon fill="dimgray" stroke="dimgray" stroke-width="0.8" points="524.95,-889.07 522.5,-882.07 520.05,-889.07 524.95,-889.07"/>
</g>
<!-- C&#45;1312 -->
<g id="node7" class="node">
<title>C&#45;1312</title>
<ellipse fill="mediumseagreen" stroke="black" cx="465.5" cy="-676" rx="68.5" ry="18"/>
<text text-anchor="middle" x="465.5" y="-674.1" font-family="Helvetica,sans-Serif" font-size="8.00">C&#45;1312</text>
</g>
<!-- C&#45;1312&#45;&gt;S&#45;2596 -->
<g id="edge14" class="edge">
<title>C&#45;1312&#45;&gt;S&#45;2596</title>
<path fill="none" stroke="dimgray" stroke-width="0.8" d="M413.67,-663.98C413.67,-652.84 413.67,-638 413.67,-638 413.67,-638 249,-638 249,-638 249,-638 249,-595.87 249,-595.87"/>
<polygon fill="dimgray" stroke="dimgray" stroke-width="0.8" points="251.45,-595.87 249,-588.87 246.55,-595.87 251.45,-595.87"/>
</g>
<!-- S&#45;997 -->
<g id="node20" class="node">
<title>S&#45;997</title>
<polygon fill="mediumseagreen" stroke="black" points="378.5,-600 310,-582 378.5,-564 447,-582 378.5,-600"/>
<text text-anchor="middle" x="378.5" y="-580.1" font-family="Helvetica,sans-Serif" font-size="8.00">S&#45;997</text>
</g>
<!-- C&#45;1312&#45;&gt;S&#45;997 -->
<g id="edge17" class="edge">
<title>C&#45;1312&#45;&gt;S&#45;997</title>
<path fill="none" stroke="dimgray" stroke-width="0.8" d="M430.33,-660.48C430.33,-660.48 430.33,-593.57 430.33,-593.57"/>
<polygon fill="dimgray" stroke="dimgray" stroke-width="0.8" points="432.78,-593.57 430.33,-586.57 427.88,-593.57 432.78,-593.57"/>
</g>
<!-- S&#45;1843 -->
<g id="node29" class="node">
<title>S&#45;1843</title>
<polygon fill="mediumseagreen" stroke="black" points="551.5,-600 483,-582 551.5,-564 620,-582 551.5,-600"/>
<text text-anchor="middle" x="551.5" y="-580.1" font-family="Helvetica,sans-Serif" font-size="8.00">S&#45;1843</text>
</g>
<!-- C&#45;1312&#45;&gt;S&#45;1843 -->
<g id="edge15" class="edge">
<title>C&#45;1312&#45;&gt;S&#45;1843</title>
<path fill="none" stroke="dimgray" stroke-width="0.8" d="M500,-660.05C500,-660.05 500,-593.52 500,-593.52"/>
<polygon fill="dimgray" stroke="dimgray" stroke-width="0.8" points="502.45,-593.52 500,-586.52 497.55,-593.52 502.45,-593.52"/>
</g>
<!-- C&#45;1102 -->
<g id="node37" class="node">
<title>C&#45;1102</title>
<ellipse fill="mediumseagreen" stroke="black" cx="724.5" cy="-582" rx="68.5" ry="18"/>
<text text-anchor="middle" x="724.5" y="-580.1" font-family="Helvetica,sans-Serif" font-size="8.00">C&#45;1102</text>
</g>
<!-- C&#45;1312&#45;&gt;C&#45;1102 -->
<g id="edge16" class="edge">
<title>C&#45;1312&#45;&gt;C&#45;1102</title>
<path fill="none" stroke="dimgray" stroke-width="0.8" d="M517,-663.91C517,-647.18 517,-619 517,-619 517,-619 681.5,-619 681.5,-619 681.5,-619 681.5,-603.2 681.5,-603.2"/>
<polygon fill="dimgray" stroke="dimgray" stroke-width="0.8" points="683.95,-603.2 681.5,-596.2 679.05,-603.2 683.95,-603.2"/>
</g>
<!-- S&#45;1289 -->
<g id="node8" class="node">
<title>S&#45;1289</title>
<polygon fill="mediumseagreen" stroke="black" points="695.5,-976 627,-958 695.5,-940 764,-958 695.5,-976"/>
<text text-anchor="middle" x="695.5" y="-956.1" font-family="Helvetica,sans-Serif" font-size="8.00">S&#45;1289</text>
</g>
<!-- SR&#45;0008 -->
<g id="node9" class="node">
<title>SR&#45;0008</title>
<polygon fill="mediumseagreen" stroke="black" points="378.5,-412 310,-394 378.5,-376 447,-394 378.5,-412"/>
<text text-anchor="middle" x="378.5" y="-392.1" font-family="Helvetica,sans-Serif" font-size="8.00">SR&#45;0008</text>
</g>
<!-- S&#45;1653 -->
<g id="node32" class="node">
<title>S&#45;1653</title>
<polygon fill="mediumseagreen" stroke="black" points="378.5,-318 310,-300 378.5,-282 447,-300 378.5,-318"/>
<text text-anchor="middle" x="378.5" y="-298.1" font-family="Helvetica,sans-Serif" font-size="8.00">S&#45;1653</text>
</g>
<!-- SR&#45;0008&#45;&gt;S&#45;1653 -->
<g id="edge20" class="edge">
<title>SR&#45;0008&#45;&gt;S&#45;1653</title>
<path fill="none" stroke="dimgray" stroke-width="0.8" d="M378.5,-375.88C378.5,-375.88 378.5,-325.07 378.5,-325.07"/>
<polygon fill="dimgray" stroke="dimgray" stroke-width="0.8" points="380.95,-325.07 378.5,-318.07 376.05,-325.07 380.95,-325.07"/>
</g>
<!-- C&#45;0557 -->
<g id="node10" class="node">
<title>C&#45;0557</title>
<ellipse fill="mediumseagreen" stroke="black" cx="522.5" cy="-770" rx="68.5" ry="18"/>
<text text-anchor="middle" x="522.5" y="-768.1" font-family="Helvetica,sans-Serif" font-size="8.00">C&#45;0557</text>
</g>
<!-- C&#45;0557&#45;&gt;S&#45;998 -->
<g id="edge24" class="edge">
<title>C&#45;0557&#45;&gt;S&#45;998</title>
<path fill="none" stroke="dimgray" stroke-width="0.8" d="M453.53,-770C405.68,-770 350.5,-770 350.5,-770 350.5,-770 350.5,-686.13 350.5,-686.13"/>
<polygon fill="dimgray" stroke="dimgray" stroke-width="0.8" points="352.95,-686.13 350.5,-679.13 348.05,-686.13 352.95,-686.13"/>
</g>
<!-- C&#45;0557&#45;&gt;C&#45;1312 -->
<g id="edge13" class="edge">
<title>C&#45;0557&#45;&gt;C&#45;1312</title>
<path fill="none" stroke="dimgray" stroke-width="0.8" d="M494,-753.63C494,-753.63 494,-699.5 494,-699.5"/>
<polygon fill="dimgray" stroke="dimgray" stroke-width="0.8" points="496.45,-699.5 494,-692.5 491.55,-699.5 496.45,-699.5"/>
</g>
<!-- S&#45;1856 -->
<g id="node15" class="node">
<title>S&#45;1856</title>
<polygon fill="mediumseagreen" stroke="black" points="638.5,-694 570,-676 638.5,-658 707,-676 638.5,-694"/>
<text text-anchor="middle" x="638.5" y="-674.1" font-family="Helvetica,sans-Serif" font-size="8.00">S&#45;1856</text>
</g>
<!-- C&#45;0557&#45;&gt;S&#45;1856 -->
<g id="edge12" class="edge">
<title>C&#45;0557&#45;&gt;S&#45;1856</title>
<path fill="none" stroke="dimgray" stroke-width="0.8" d="M580.5,-760.29C580.5,-760.29 580.5,-685.96 580.5,-685.96"/>
<polygon fill="dimgray" stroke="dimgray" stroke-width="0.8" points="582.95,-685.96 580.5,-678.96 578.05,-685.96 582.95,-685.96"/>
</g>
<!-- S&#45;2500 -->
<g id="node31" class="node">
<title>S&#45;2500</title>
<polygon fill="mediumseagreen" stroke="black" points="811.5,-694 743,-676 811.5,-658 880,-676 811.5,-694"/>
<text text-anchor="middle" x="811.5" y="-674.1" font-family="Helvetica,sans-Serif" font-size="8.00">S&#45;2500</text>
</g>
<!-- C&#45;0557&#45;&gt;S&#45;2500 -->
<g id="edge11" class="edge">
<title>C&#45;0557&#45;&gt;S&#45;2500</title>
<path fill="none" stroke="dimgray" stroke-width="0.8" d="M591.18,-770C659.27,-770 753.5,-770 753.5,-770 753.5,-770 753.5,-686.13 753.5,-686.13"/>
<polygon fill="dimgray" stroke="dimgray" stroke-width="0.8" points="755.95,-686.13 753.5,-679.13 751.05,-686.13 755.95,-686.13"/>
</g>
<!-- S&#45;1168 -->
<g id="node11" class="node">
<title>S&#45;1168</title>
<polygon fill="mediumseagreen" stroke="black" points="667.5,-1070 599,-1052 667.5,-1034 736,-1052 667.5,-1070"/>
<text text-anchor="middle" x="667.5" y="-1050.1" font-family="Helvetica,sans-Serif" font-size="8.00">S&#45;1168</text>
</g>
<!-- S&#45;1168&#45;&gt;C&#45;0558 -->
<g id="edge7" class="edge">
<title>S&#45;1168&#45;&gt;C&#45;0558</title>
<path fill="none" stroke="dimgray" stroke-width="0.8" d="M613,-1047.96C613,-1029.97 613,-958 613,-958 613,-958 598.09,-958 598.09,-958"/>
<polygon fill="dimgray" stroke="dimgray" stroke-width="0.8" points="598.09,-955.55 591.09,-958 598.09,-960.45 598.09,-955.55"/>
</g>
<!-- S&#45;1168&#45;&gt;S&#45;1289 -->
<g id="edge25" class="edge">
<title>S&#45;1168&#45;&gt;S&#45;1289</title>
<path fill="none" stroke="dimgray" stroke-width="0.8" d="M681.5,-1037.31C681.5,-1037.31 681.5,-979.58 681.5,-979.58"/>
<polygon fill="dimgray" stroke="dimgray" stroke-width="0.8" points="683.95,-979.58 681.5,-972.58 679.05,-979.58 683.95,-979.58"/>
</g>
<!-- C&#45;0559 -->
<g id="node12" class="node">
<title>C&#45;0559</title>
<ellipse fill="tomato" stroke="black" cx="868.5" cy="-958" rx="68.5" ry="18"/>
<text text-anchor="middle" x="868.5" y="-956.1" font-family="Helvetica,sans-Serif" font-size="8.00">C&#45;0559</text>
</g>
<!-- S&#45;1168&#45;&gt;C&#45;0559 -->
<g id="edge8" class="edge">
<title>S&#45;1168&#45;&gt;C&#45;0559</title>
<path fill="none" stroke="dimgray" stroke-width="0.8" d="M736.2,-1052C753.87,-1052 768,-1052 768,-1052 768,-1052 768,-958 768,-958 768,-958 792.8,-958 792.8,-958"/>
<polygon fill="dimgray" stroke="dimgray" stroke-width="0.8" points="792.8,-960.45 799.8,-958 792.8,-955.55 792.8,-960.45"/>
</g>
<!-- C&#45;0559&#45;&gt;S&#45;2500 -->
<g id="edge39" class="edge">
<title>C&#45;0559&#45;&gt;S&#45;2500</title>
<path fill="none" stroke="blue" stroke-width="0.8" stroke-dasharray="5,2" d="M840,-941.62C840,-941.62 840,-693.62 840,-693.62"/>
<polygon fill="blue" stroke="blue" stroke-width="0.8" points="842.45,-693.62 840,-686.62 837.55,-693.62 842.45,-693.62"/>
</g>
<!-- C&#45;0139 -->
<g id="node13" class="node">
<title>C&#45;0139</title>
<ellipse fill="mediumseagreen" stroke="black" cx="667.5" cy="-1146" rx="68.5" ry="18"/>
<text text-anchor="middle" x="667.5" y="-1144.1" font-family="Helvetica,sans-Serif" font-size="8.00">C&#45;0139</text>
</g>
<!-- C&#45;0139&#45;&gt;S&#45;1168 -->
<g id="edge6" class="edge">
<title>C&#45;0139&#45;&gt;S&#45;1168</title>
<path fill="none" stroke="dimgray" stroke-width="0.8" d="M667.5,-1127.88C667.5,-1127.88 667.5,-1077.07 667.5,-1077.07"/>
<polygon fill="dimgray" stroke="dimgray" stroke-width="0.8" points="669.95,-1077.07 667.5,-1070.07 665.05,-1077.07 669.95,-1077.07"/>
</g>
<!-- C&#45;0641 -->
<g id="node14" class="node">
<title>C&#45;0641</title>
<ellipse fill="tomato" stroke="black" cx="73.5" cy="-1052" rx="68.5" ry="18"/>
<text text-anchor="middle" x="73.5" y="-1050.1" font-family="Helvetica,sans-Serif" font-size="8.00">C&#45;0641</text>
</g>
<!-- C&#45;0139&#45;&gt;C&#45;0641 -->
<g id="edge4" class="edge">
<title>C&#45;0139&#45;&gt;C&#45;0641</title>
<path fill="none" stroke="dimgray" stroke-width="0.8" d="M607.91,-1155C460.95,-1155 93,-1155 93,-1155 93,-1155 93,-1076.47 93,-1076.47"/>
<polygon fill="dimgray" stroke="dimgray" stroke-width="0.8" points="95.45,-1076.47 93,-1069.47 90.55,-1076.47 95.45,-1076.47"/>
</g>
<!-- C&#45;1126 -->
<g id="node17" class="node">
<title>C&#45;1126</title>
<ellipse fill="mediumseagreen" stroke="black" cx="494.5" cy="-1052" rx="68.5" ry="18"/>
<text text-anchor="middle" x="494.5" y="-1050.1" font-family="Helvetica,sans-Serif" font-size="8.00">C&#45;1126</text>
</g>
<!-- C&#45;0139&#45;&gt;C&#45;1126 -->
<g id="edge26" class="edge">
<title>C&#45;0139&#45;&gt;C&#45;1126</title>
<path fill="none" stroke="dimgray" stroke-width="0.8" d="M608.17,-1137C582.84,-1137 559,-1137 559,-1137 559,-1137 559,-1065.11 559,-1065.11"/>
<polygon fill="dimgray" stroke="dimgray" stroke-width="0.8" points="561.45,-1065.11 559,-1058.11 556.55,-1065.11 561.45,-1065.11"/>
</g>
<!-- S&#45;327 -->
<g id="node19" class="node">
<title>S&#45;327</title>
<polygon fill="mediumseagreen" stroke="black" points="840.5,-1070 772,-1052 840.5,-1034 909,-1052 840.5,-1070"/>
<text text-anchor="middle" x="840.5" y="-1050.1" font-family="Helvetica,sans-Serif" font-size="8.00">S&#45;327</text>
</g>
<!-- C&#45;0139&#45;&gt;S&#45;327 -->
<g id="edge28" class="edge">
<title>C&#45;0139&#45;&gt;S&#45;327</title>
<path fill="none" stroke="dimgray" stroke-width="0.8" d="M727.04,-1137C777.08,-1137 840.5,-1137 840.5,-1137 840.5,-1137 840.5,-1077.03 840.5,-1077.03"/>
<polygon fill="dimgray" stroke="dimgray" stroke-width="0.8" points="842.95,-1077.03 840.5,-1070.03 838.05,-1077.03 842.95,-1077.03"/>
</g>
<!-- S&#45;2060 -->
<g id="node24" class="node">
<title>S&#45;2060</title>
<polygon fill="mediumseagreen" stroke="black" points="1013.5,-1070 945,-1052 1013.5,-1034 1082,-1052 1013.5,-1070"/>
<text text-anchor="middle" x="1013.5" y="-1050.1" font-family="Helvetica,sans-Serif" font-size="8.00">S&#45;2060</text>
</g>
<!-- C&#45;0139&#45;&gt;S&#45;2060 -->
<g id="edge5" class="edge">
<title>C&#45;0139&#45;&gt;S&#45;2060</title>
<path fill="none" stroke="dimgray" stroke-width="0.8" d="M727.08,-1155C802.58,-1155 923,-1155 923,-1155 923,-1155 923,-1052 923,-1052 923,-1052 937.91,-1052 937.91,-1052"/>
<polygon fill="dimgray" stroke="dimgray" stroke-width="0.8" points="937.91,-1054.45 944.91,-1052 937.91,-1049.55 937.91,-1054.45"/>
</g>
<!-- S&#45;701 -->
<g id="node36" class="node">
<title>S&#45;701</title>
<polygon fill="tomato" stroke="black" points="246.5,-1070 178,-1052 246.5,-1034 315,-1052 246.5,-1070"/>
<text text-anchor="middle" x="246.5" y="-1050.1" font-family="Helvetica,sans-Serif" font-size="8.00">S&#45;701</text>
</g>
<!-- C&#45;0139&#45;&gt;S&#45;701 -->
<g id="edge3" class="edge">
<title>C&#45;0139&#45;&gt;S&#45;701</title>
<path fill="none" stroke="dimgray" stroke-width="0.8" d="M598.88,-1146C488.47,-1146 283.67,-1146 283.67,-1146 283.67,-1146 283.67,-1067.34 283.67,-1067.34"/>
<polygon fill="dimgray" stroke="dimgray" stroke-width="0.8" points="286.12,-1067.34 283.67,-1060.34 281.22,-1067.34 286.12,-1067.34"/>
</g>
<!-- C&#45;0641&#45;&gt;ext_circ_208_22_ -->
<g id="edge38" class="edge">
<title>C&#45;0641&#45;&gt;ext_circ_208_22_</title>
<path fill="none" stroke="red" stroke-width="0.8" stroke-dasharray="5,2" d="M49,-1069.03C49,-1069.03 49,-1312.96 49,-1312.96"/>
<polygon fill="red" stroke="red" stroke-width="0.8" points="46.55,-1312.96 49,-1319.96 51.45,-1312.96 46.55,-1312.96"/>
</g>
<!-- R&#45;119&#45;&gt;C&#45;0557 -->
<g id="edge10" class="edge">
<title>R&#45;119&#45;&gt;C&#45;0557</title>
<path fill="none" stroke="dimgray" stroke-width="0.8" d="M522.5,-845.88C522.5,-845.88 522.5,-795.07 522.5,-795.07"/>
<polygon fill="dimgray" stroke="dimgray" stroke-width="0.8" points="524.95,-795.07 522.5,-788.07 520.05,-795.07 524.95,-795.07"/>
</g>
<!-- C&#45;1126&#45;&gt;R&#45;281 -->
<g id="edge27" class="edge">
<title>C&#45;1126&#45;&gt;R&#45;281</title>
<path fill="none" stroke="dimgray" stroke-width="0.8" d="M440,-1040.85C440,-1015.95 440,-958 440,-958 440,-958 350.25,-958 350.25,-958"/>
<polygon fill="dimgray" stroke="dimgray" stroke-width="0.8" points="350.25,-955.55 343.25,-958 350.25,-960.45 350.25,-955.55"/>
</g>
<!-- S&#45;2279 -->
<g id="node30" class="node">
<title>S&#45;2279</title>
<polygon fill="mediumseagreen" stroke="black" points="378.5,-36 310,-18 378.5,0 447,-18 378.5,-36"/>
<text text-anchor="middle" x="378.5" y="-16.1" font-family="Helvetica,sans-Serif" font-size="8.00">S&#45;2279</text>
</g>
<!-- SR&#45;0033&#45;&gt;S&#45;2279 -->
<g id="edge23" class="edge">
<title>SR&#45;0033&#45;&gt;S&#45;2279</title>
<path fill="none" stroke="dimgray" stroke-width="0.8" d="M378.5,-93.88C378.5,-93.88 378.5,-43.07 378.5,-43.07"/>
<polygon fill="dimgray" stroke="dimgray" stroke-width="0.8" points="380.95,-43.07 378.5,-36.07 376.05,-43.07 380.95,-43.07"/>
</g>
<!-- R&#45;PRU1 -->
<g id="node22" class="node">
<title>R&#45;PRU1</title>
<polygon fill="mediumseagreen" stroke="black" points="447,-480.54 447,-495.46 406.87,-506 350.13,-506 310,-495.46 310,-480.54 350.13,-470 406.87,-470 447,-480.54"/>
<text text-anchor="middle" x="378.5" y="-486.1" font-family="Helvetica,sans-Serif" font-size="8.00">R&#45;PRU1</text>
</g>
<!-- S&#45;997&#45;&gt;R&#45;PRU1 -->
<g id="edge18" class="edge">
<title>S&#45;997&#45;&gt;R&#45;PRU1</title>
<path fill="none" stroke="dimgray" stroke-width="0.8" d="M378.5,-563.88C378.5,-563.88 378.5,-513.07 378.5,-513.07"/>
<polygon fill="dimgray" stroke="dimgray" stroke-width="0.8" points="380.95,-513.07 378.5,-506.07 376.05,-513.07 380.95,-513.07"/>
</g>
<!-- C&#45;0732 -->
<g id="node21" class="node">
<title>C&#45;0732</title>
<ellipse fill="mediumseagreen" stroke="black" cx="1186.5" cy="-1052" rx="68.5" ry="18"/>
<text text-anchor="middle" x="1186.5" y="-1050.1" font-family="Helvetica,sans-Serif" font-size="8.00">C&#45;0732</text>
</g>
<!-- C&#45;0731 -->
<g id="node28" class="node">
<title>C&#45;0731</title>
<ellipse fill="mediumseagreen" stroke="black" cx="1186.5" cy="-958" rx="68.5" ry="18"/>
<text text-anchor="middle" x="1186.5" y="-956.1" font-family="Helvetica,sans-Serif" font-size="8.00">C&#45;0731</text>
</g>
<!-- C&#45;0732&#45;&gt;C&#45;0731 -->
<g id="edge31" class="edge">
<title>C&#45;0732&#45;&gt;C&#45;0731</title>
<path fill="none" stroke="dimgray" stroke-width="0.8" d="M1186.5,-1033.88C1186.5,-1033.88 1186.5,-983.07 1186.5,-983.07"/>
<polygon fill="dimgray" stroke="dimgray" stroke-width="0.8" points="1188.95,-983.07 1186.5,-976.07 1184.05,-983.07 1188.95,-983.07"/>
</g>
<!-- R&#45;PRU1&#45;&gt;SR&#45;0008 -->
<g id="edge19" class="edge">
<title>R&#45;PRU1&#45;&gt;SR&#45;0008</title>
<path fill="none" stroke="dimgray" stroke-width="0.8" d="M378.5,-469.88C378.5,-469.88 378.5,-419.07 378.5,-419.07"/>
<polygon fill="dimgray" stroke="dimgray" stroke-width="0.8" points="380.95,-419.07 378.5,-412.07 376.05,-419.07 380.95,-419.07"/>
</g>
<!-- S&#45;1278 -->
<g id="node23" class="node">
<title>S&#45;1278</title>
<polygon fill="mediumseagreen" stroke="black" points="1212.5,-788 1144,-770 1212.5,-752 1281,-770 1212.5,-788"/>
<text text-anchor="middle" x="1212.5" y="-768.1" font-family="Helvetica,sans-Serif" font-size="8.00">S&#45;1278</text>
</g>
<!-- C&#45;0901 -->
<g id="node25" class="node">
<title>C&#45;0901</title>
<ellipse fill="mediumseagreen" stroke="black" cx="1013.5" cy="-1146" rx="68.5" ry="18"/>
<text text-anchor="middle" x="1013.5" y="-1144.1" font-family="Helvetica,sans-Serif" font-size="8.00">C&#45;0901</text>
</g>
<!-- C&#45;0901&#45;&gt;C&#45;0732 -->
<g id="edge30" class="edge">
<title>C&#45;0901&#45;&gt;C&#45;0732</title>
<path fill="none" stroke="dimgray" stroke-width="0.8" d="M1082.37,-1146C1130.62,-1146 1186.5,-1146 1186.5,-1146 1186.5,-1146 1186.5,-1077.12 1186.5,-1077.12"/>
<polygon fill="dimgray" stroke="dimgray" stroke-width="0.8" points="1188.95,-1077.12 1186.5,-1070.12 1184.05,-1077.12 1188.95,-1077.12"/>
</g>
<!-- R&#45;005 -->
<g id="node35" class="node">
<title>R&#45;005</title>
<polygon fill="tomato" stroke="black" points="1108,-668.54 1108,-683.46 1067.87,-694 1011.13,-694 971,-683.46 971,-668.54 1011.13,-658 1067.87,-658 1108,-668.54"/>
<text text-anchor="middle" x="1039.5" y="-674.1" font-family="Helvetica,sans-Serif" font-size="8.00">R&#45;005</text>
</g>
<!-- C&#45;0501&#45;&gt;R&#45;005 -->
<g id="edge36" class="edge">
<title>C&#45;0501&#45;&gt;R&#45;005</title>
<path fill="none" stroke="dimgray" stroke-width="0.8" d="M1062.33,-752.76C1062.33,-752.76 1062.33,-701.09 1062.33,-701.09"/>
<polygon fill="dimgray" stroke="dimgray" stroke-width="0.8" points="1064.78,-701.09 1062.33,-694.09 1059.88,-701.09 1064.78,-701.09"/>
</g>
<!-- 208&#45;26&#45; -->
<g id="node27" class="node">
<title>208&#45;26&#45;</title>
<polygon fill="gold" stroke="black" points="744,-1330.54 744,-1345.46 703.87,-1356 647.13,-1356 607,-1345.46 607,-1330.54 647.13,-1320 703.87,-1320 744,-1330.54"/>
<polygon fill="none" stroke="black" points="748,-1327.46 748,-1348.54 704.39,-1360 646.61,-1360 603,-1348.54 603,-1327.46 646.61,-1316 704.39,-1316 748,-1327.46"/>
<text text-anchor="middle" x="675.5" y="-1336.1" font-family="Helvetica,sans-Serif" font-size="8.00">208&#45;26&#45;</text>
</g>
<!-- C&#45;0100 -->
<g id="node34" class="node">
<title>C&#45;0100</title>
<ellipse fill="mediumseagreen" stroke="black" cx="675.5" cy="-1240" rx="68.5" ry="18"/>
<text text-anchor="middle" x="675.5" y="-1238.1" font-family="Helvetica,sans-Serif" font-size="8.00">C&#45;0100</text>
</g>
<!-- 208&#45;26&#45;&#45;&gt;C&#45;0100 -->
<g id="edge1" class="edge">
<title>208&#45;26&#45;&#45;&gt;C&#45;0100</title>
<path fill="none" stroke="dimgray" stroke-width="0.8" d="M675.5,-1315.76C675.5,-1315.76 675.5,-1265.21 675.5,-1265.21"/>
<polygon fill="dimgray" stroke="dimgray" stroke-width="0.8" points="677.95,-1265.21 675.5,-1258.21 673.05,-1265.21 677.95,-1265.21"/>
</g>
<!-- C&#45;0731&#45;&gt;SPR&#45;62 -->
<g id="edge34" class="edge">
<title>C&#45;0731&#45;&gt;SPR&#45;62</title>
<path fill="none" stroke="dimgray" stroke-width="0.8" d="M1131,-947.22C1131,-922.53 1131,-864 1131,-864 1131,-864 1115.38,-864 1115.38,-864"/>
<polygon fill="dimgray" stroke="dimgray" stroke-width="0.8" points="1115.38,-861.55 1108.38,-864 1115.38,-866.45 1115.38,-861.55"/>
</g>
<!-- S&#45;916 -->
<g id="node33" class="node">
<title>S&#45;916</title>
<polygon fill="mediumseagreen" stroke="black" points="1212.5,-882 1144,-864 1212.5,-846 1281,-864 1212.5,-882"/>
<text text-anchor="middle" x="1212.5" y="-862.1" font-family="Helvetica,sans-Serif" font-size="8.00">S&#45;916</text>
</g>
<!-- C&#45;0731&#45;&gt;S&#45;916 -->
<g id="edge32" class="edge">
<title>C&#45;0731&#45;&gt;S&#45;916</title>
<path fill="none" stroke="dimgray" stroke-width="0.8" d="M1199.5,-940.32C1199.5,-940.32 1199.5,-885.82 1199.5,-885.82"/>
<polygon fill="dimgray" stroke="dimgray" stroke-width="0.8" points="1201.95,-885.82 1199.5,-878.82 1197.05,-885.82 1201.95,-885.82"/>
</g>
<!-- S&#45;1653&#45;&gt;S&#45;1652 -->
<g id="edge21" class="edge">
<title>S&#45;1653&#45;&gt;S&#45;1652</title>
<path fill="none" stroke="dimgray" stroke-width="0.8" d="M378.5,-281.88C378.5,-281.88 378.5,-231.07 378.5,-231.07"/>
<polygon fill="dimgray" stroke="dimgray" stroke-width="0.8" points="380.95,-231.07 378.5,-224.07 376.05,-231.07 380.95,-231.07"/>
</g>
<!-- S&#45;916&#45;&gt;S&#45;1278 -->
<g id="edge33" class="edge">
<title>S&#45;916&#45;&gt;S&#45;1278</title>
<path fill="none" stroke="dimgray" stroke-width="0.8" d="M1212.5,-845.88C1212.5,-845.88 1212.5,-795.07 1212.5,-795.07"/>
<polygon fill="dimgray" stroke="dimgray" stroke-width="0.8" points="1214.95,-795.07 1212.5,-788.07 1210.05,-795.07 1214.95,-795.07"/>
</g>
<!-- C&#45;0100&#45;&gt;C&#45;0139 -->
<g id="edge2" class="edge">
<title>C&#45;0100&#45;&gt;C&#45;0139</title>
<path fill="none" stroke="dimgray" stroke-width="0.8" d="M671.5,-1221.88C671.5,-1221.88 671.5,-1171.07 671.5,-1171.07"/>
<polygon fill="dimgray" stroke="dimgray" stroke-width="0.8" points="673.95,-1171.07 671.5,-1164.07 669.05,-1171.07 673.95,-1171.07"/>
</g>
<!-- C&#45;0100&#45;&gt;C&#45;0901 -->
<g id="edge29" class="edge">
<title>C&#45;0100&#45;&gt;C&#45;0901</title>
<path fill="none" stroke="dimgray" stroke-width="0.8" d="M740,-1233.83C740,-1212.92 740,-1146 740,-1146 740,-1146 937.84,-1146 937.84,-1146"/>
<polygon fill="dimgray" stroke="dimgray" stroke-width="0.8" points="937.84,-1148.45 944.84,-1146 937.84,-1143.55 937.84,-1148.45"/>
</g>
<!-- ext_circ_109_29_ -->
<g id="node40" class="node">
<title>ext_circ_109_29_</title>
<polygon fill="lightpink" stroke="red" stroke-dasharray="5,2" points="555,-1356 418,-1356 418,-1320 555,-1320 555,-1356"/>
<text text-anchor="middle" x="486.5" y="-1340.6" font-family="Helvetica,sans-Serif" font-size="8.00">Circuito:</text>
<text text-anchor="middle" x="486.5" y="-1331.6" font-family="Helvetica,sans-Serif" font-size="8.00">109&#45;29&#45;</text>
</g>
<!-- R&#45;005&#45;&gt;ext_circ_109_29_ -->
<g id="edge41" class="edge">
<title>R&#45;005&#45;&gt;ext_circ_109_29_</title>
<path fill="none" stroke="red" stroke-width="0.8" stroke-dasharray="5,2" d="M1016.67,-694.04C1016.67,-707.29 1016.67,-723 1016.67,-723 1016.67,-723 422,-723 422,-723 422,-723 422,-1312.93 422,-1312.93"/>
<polygon fill="red" stroke="red" stroke-width="0.8" points="419.55,-1312.93 422,-1319.93 424.45,-1312.93 419.55,-1312.93"/>
</g>
<!-- ext_circ_208_24_ -->
<g id="node38" class="node">
<title>ext_circ_208_24_</title>
<polygon fill="lightpink" stroke="red" stroke-dasharray="5,2" points="358,-1356 221,-1356 221,-1320 358,-1320 358,-1356"/>
<text text-anchor="middle" x="289.5" y="-1340.6" font-family="Helvetica,sans-Serif" font-size="8.00">Circuito:</text>
<text text-anchor="middle" x="289.5" y="-1331.6" font-family="Helvetica,sans-Serif" font-size="8.00">208&#45;24&#45;</text>
</g>
<!-- S&#45;701&#45;&gt;ext_circ_208_24_ -->
<g id="edge37" class="edge">
<title>S&#45;701&#45;&gt;ext_circ_208_24_</title>
<path fill="none" stroke="red" stroke-width="0.8" stroke-dasharray="5,2" d="M252.33,-1068.61C252.33,-1068.61 252.33,-1312.88 252.33,-1312.88"/>
<polygon fill="red" stroke="red" stroke-width="0.8" points="249.88,-1312.88 252.33,-1319.88 254.78,-1312.88 249.88,-1312.88"/>
</g>
</g>
</svg>
