<?xml version="1.0" encoding="UTF-8" standalone="no"?>
<!DOCTYPE svg PUBLIC "-//W3C//DTD SVG 1.1//EN"
 "http://www.w3.org/Graphics/SVG/1.1/DTD/svg11.dtd">
<!-- Generated by graphviz version 2.50.0 (0)
 -->
<!-- Title: Grafo_Circuito_208_22_ Pages: 1 -->
<svg width="1705pt" height="1170pt"
 viewBox="0.00 0.00 1705.00 1170.00" xmlns="http://www.w3.org/2000/svg" xmlns:xlink="http://www.w3.org/1999/xlink">
<g id="graph0" class="graph" transform="scale(1 1) rotate(0) translate(4 1166)">
<title>Grafo_Circuito_208_22_</title>
<polygon fill="white" stroke="transparent" points="-4,4 -4,-1166 1701,-1166 1701,4 -4,4"/>
<!-- S&#45;1038 -->
<g id="node1" class="node">
<title>S&#45;1038</title>
<polygon fill="mediumseagreen" stroke="black" points="594,-952 522,-930.5 594,-909 666,-930.5 594,-952"/>
<text text-anchor="middle" x="594" y="-928" font-family="Arial" font-size="10.00">S&#45;1038</text>
</g>
<!-- S&#45;1627 -->
<g id="node2" class="node">
<title>S&#45;1627</title>
<polygon fill="mediumseagreen" stroke="black" points="275,-447 203,-425.5 275,-404 347,-425.5 275,-447"/>
<text text-anchor="middle" x="275" y="-423" font-family="Arial" font-size="10.00">S&#45;1627</text>
</g>
<!-- C&#45;0763 -->
<g id="node3" class="node">
<title>C&#45;0763</title>
<ellipse fill="tomato" stroke="black" cx="351" cy="-728.5" rx="72" ry="21.5"/>
<text text-anchor="middle" x="351" y="-726" font-family="Arial" font-size="10.00">C&#45;0763</text>
</g>
<!-- C&#45;0764 -->
<g id="node33" class="node">
<title>C&#45;0764</title>
<ellipse fill="mediumseagreen" stroke="black" cx="455" cy="-526.5" rx="72" ry="21.5"/>
<text text-anchor="middle" x="455" y="-524" font-family="Arial" font-size="10.00">C&#45;0764</text>
</g>
<!-- C&#45;0763&#45;&gt;C&#45;0764 -->
<g id="edge41" class="edge">
<title>C&#45;0763&#45;&gt;C&#45;0764</title>
<path fill="none" stroke="blue" stroke-dasharray="5,2" d="M403,-713.32C403,-713.32 403,-548.58 403,-548.58"/>
<polygon fill="blue" stroke="blue" points="405.45,-548.58 403,-541.58 400.55,-548.58 405.45,-548.58"/>
</g>
<!-- C&#45;1138 -->
<g id="node4" class="node">
<title>C&#45;1138</title>
<ellipse fill="mediumseagreen" stroke="black" cx="98" cy="-223.5" rx="72" ry="21.5"/>
<text text-anchor="middle" x="98" y="-221" font-family="Arial" font-size="10.00">C&#45;1138</text>
</g>
<!-- R&#45;287 -->
<g id="node24" class="node">
<title>R&#45;287</title>
<polygon fill="tomato" stroke="black" points="144,-113.59 144,-131.41 101.82,-144 42.18,-144 0,-131.41 0,-113.59 42.18,-101 101.82,-101 144,-113.59"/>
<text text-anchor="middle" x="72" y="-120" font-family="Arial" font-size="10.00">R&#45;287</text>
</g>
<!-- C&#45;1138&#45;&gt;R&#45;287 -->
<g id="edge36" class="edge">
<title>C&#45;1138&#45;&gt;R&#45;287</title>
<path fill="none" stroke="#4d4d4d" d="M85,-202.08C85,-202.08 85,-151.24 85,-151.24"/>
<polygon fill="#4d4d4d" stroke="#4d4d4d" points="87.45,-151.24 85,-144.24 82.55,-151.24 87.45,-151.24"/>
</g>
<!-- C&#45;0124 -->
<g id="node5" class="node">
<title>C&#45;0124</title>
<ellipse fill="tomato" stroke="black" cx="252" cy="-122.5" rx="72" ry="21.5"/>
<text text-anchor="middle" x="252" y="-120" font-family="Arial" font-size="10.00">C&#45;0124</text>
</g>
<!-- ext_circ_205_23_ -->
<g id="node41" class="node">
<title>ext_circ_205_23_</title>
<polygon fill="lightpink" stroke="darkorange" stroke-dasharray="5,2" points="234,-43 90,-43 90,0 234,0 234,-43"/>
<text text-anchor="middle" x="162" y="-24.5" font-family="Arial" font-size="10.00">Circuito:</text>
<text text-anchor="middle" x="162" y="-13.5" font-family="Arial" font-size="10.00">205&#45;23&#45;</text>
</g>
<!-- C&#45;0124&#45;&gt;ext_circ_205_23_ -->
<g id="edge43" class="edge">
<title>C&#45;0124&#45;&gt;ext_circ_205_23_</title>
<path fill="none" stroke="darkorange" stroke-dasharray="5,2" d="M207,-105.37C207,-105.37 207,-50.31 207,-50.31"/>
<polygon fill="darkorange" stroke="darkorange" points="209.45,-50.31 207,-43.31 204.55,-50.31 209.45,-50.31"/>
</g>
<!-- C&#45;0388 -->
<g id="node6" class="node">
<title>C&#45;0388</title>
<ellipse fill="mediumseagreen" stroke="black" cx="956" cy="-627.5" rx="72" ry="21.5"/>
<text text-anchor="middle" x="956" y="-625" font-family="Arial" font-size="10.00">C&#45;0388</text>
</g>
<!-- C&#45;0457 -->
<g id="node28" class="node">
<title>C&#45;0457</title>
<ellipse fill="mediumseagreen" stroke="black" cx="1019" cy="-526.5" rx="72" ry="21.5"/>
<text text-anchor="middle" x="1019" y="-524" font-family="Arial" font-size="10.00">C&#45;0457</text>
</g>
<!-- C&#45;0388&#45;&gt;C&#45;0457 -->
<g id="edge10" class="edge">
<title>C&#45;0388&#45;&gt;C&#45;0457</title>
<path fill="none" stroke="#4d4d4d" d="M987.5,-608.03C987.5,-608.03 987.5,-552.91 987.5,-552.91"/>
<polygon fill="#4d4d4d" stroke="#4d4d4d" points="989.95,-552.91 987.5,-545.91 985.05,-552.91 989.95,-552.91"/>
</g>
<!-- S&#45;2408 -->
<g id="node7" class="node">
<title>S&#45;2408</title>
<polygon fill="mediumseagreen" stroke="black" points="414,-851 342,-829.5 414,-808 486,-829.5 414,-851"/>
<text text-anchor="middle" x="414" y="-827" font-family="Arial" font-size="10.00">S&#45;2408</text>
</g>
<!-- C&#45;0456 -->
<g id="node8" class="node">
<title>C&#45;0456</title>
<ellipse fill="mediumseagreen" stroke="black" cx="774" cy="-930.5" rx="72" ry="21.5"/>
<text text-anchor="middle" x="774" y="-928" font-family="Arial" font-size="10.00">C&#45;0456</text>
</g>
<!-- C&#45;0456&#45;&gt;S&#45;2408 -->
<g id="edge19" class="edge">
<title>C&#45;0456&#45;&gt;S&#45;2408</title>
<path fill="none" stroke="#4d4d4d" d="M738,-911.69C738,-893.93 738,-870 738,-870 738,-870 414,-870 414,-870 414,-870 414,-858.17 414,-858.17"/>
<polygon fill="#4d4d4d" stroke="#4d4d4d" points="416.45,-858.17 414,-851.17 411.55,-858.17 416.45,-858.17"/>
</g>
<!-- C&#45;0677 -->
<g id="node16" class="node">
<title>C&#45;0677</title>
<ellipse fill="mediumseagreen" stroke="black" cx="594" cy="-829.5" rx="72" ry="21.5"/>
<text text-anchor="middle" x="594" y="-827" font-family="Arial" font-size="10.00">C&#45;0677</text>
</g>
<!-- C&#45;0456&#45;&gt;C&#45;0677 -->
<g id="edge21" class="edge">
<title>C&#45;0456&#45;&gt;C&#45;0677</title>
<path fill="none" stroke="#4d4d4d" d="M701.78,-930C691.32,-930 684,-930 684,-930 684,-930 684,-829 684,-829 684,-829 673.22,-829 673.22,-829"/>
<polygon fill="#4d4d4d" stroke="#4d4d4d" points="673.22,-826.55 666.22,-829 673.22,-831.45 673.22,-826.55"/>
</g>
<!-- C&#45;0387 -->
<g id="node22" class="node">
<title>C&#45;0387</title>
<ellipse fill="mediumseagreen" stroke="black" cx="774" cy="-829.5" rx="72" ry="21.5"/>
<text text-anchor="middle" x="774" y="-827" font-family="Arial" font-size="10.00">C&#45;0387</text>
</g>
<!-- C&#45;0456&#45;&gt;C&#45;0387 -->
<g id="edge6" class="edge">
<title>C&#45;0456&#45;&gt;C&#45;0387</title>
<path fill="none" stroke="#4d4d4d" d="M774,-908.58C774,-908.58 774,-858.03 774,-858.03"/>
<polygon fill="#4d4d4d" stroke="#4d4d4d" points="776.45,-858.03 774,-851.03 771.55,-858.03 776.45,-858.03"/>
</g>
<!-- C&#45;0386 -->
<g id="node25" class="node">
<title>C&#45;0386</title>
<ellipse fill="tomato" stroke="black" cx="954" cy="-829.5" rx="72" ry="21.5"/>
<text text-anchor="middle" x="954" y="-827" font-family="Arial" font-size="10.00">C&#45;0386</text>
</g>
<!-- C&#45;0456&#45;&gt;C&#45;0386 -->
<g id="edge7" class="edge">
<title>C&#45;0456&#45;&gt;C&#45;0386</title>
<path fill="none" stroke="#4d4d4d" d="M846.43,-930C858.13,-930 866.5,-930 866.5,-930 866.5,-930 866.5,-829 866.5,-829 866.5,-829 874.74,-829 874.74,-829"/>
<polygon fill="#4d4d4d" stroke="#4d4d4d" points="874.74,-831.45 881.74,-829 874.74,-826.55 874.74,-831.45"/>
</g>
<!-- S&#45;1621 -->
<g id="node37" class="node">
<title>S&#45;1621</title>
<polygon fill="mediumseagreen" stroke="black" points="1134,-851 1062,-829.5 1134,-808 1206,-829.5 1134,-851"/>
<text text-anchor="middle" x="1134" y="-827" font-family="Arial" font-size="10.00">S&#45;1621</text>
</g>
<!-- C&#45;0456&#45;&gt;S&#45;1621 -->
<g id="edge20" class="edge">
<title>C&#45;0456&#45;&gt;S&#45;1621</title>
<path fill="none" stroke="#4d4d4d" d="M810,-911.69C810,-900.71 810,-889 810,-889 810,-889 1134,-889 1134,-889 1134,-889 1134,-858.32 1134,-858.32"/>
<polygon fill="#4d4d4d" stroke="#4d4d4d" points="1136.45,-858.32 1134,-851.32 1131.55,-858.32 1136.45,-858.32"/>
</g>
<!-- R&#45;072 -->
<g id="node9" class="node">
<title>R&#45;072</title>
<polygon fill="mediumseagreen" stroke="black" points="590,-618.59 590,-636.41 547.82,-649 488.18,-649 446,-636.41 446,-618.59 488.18,-606 547.82,-606 590,-618.59"/>
<text text-anchor="middle" x="518" y="-625" font-family="Arial" font-size="10.00">R&#45;072</text>
</g>
<!-- R&#45;072&#45;&gt;C&#45;0764 -->
<g id="edge27" class="edge">
<title>R&#45;072&#45;&gt;C&#45;0764</title>
<path fill="none" stroke="#4d4d4d" d="M486.5,-606.08C486.5,-606.08 486.5,-552.84 486.5,-552.84"/>
<polygon fill="#4d4d4d" stroke="#4d4d4d" points="488.95,-552.84 486.5,-545.84 484.05,-552.84 488.95,-552.84"/>
</g>
<!-- C&#45;1127 -->
<g id="node10" class="node">
<title>C&#45;1127</title>
<ellipse fill="mediumseagreen" stroke="black" cx="905" cy="-223.5" rx="72" ry="21.5"/>
<text text-anchor="middle" x="905" y="-221" font-family="Arial" font-size="10.00">C&#45;1127</text>
</g>
<!-- R&#45;281 -->
<g id="node38" class="node">
<title>R&#45;281</title>
<polygon fill="tomato" stroke="black" points="977,-113.59 977,-131.41 934.82,-144 875.18,-144 833,-131.41 833,-113.59 875.18,-101 934.82,-101 977,-113.59"/>
<text text-anchor="middle" x="905" y="-120" font-family="Arial" font-size="10.00">R&#45;281</text>
</g>
<!-- C&#45;1127&#45;&gt;R&#45;281 -->
<g id="edge14" class="edge">
<title>C&#45;1127&#45;&gt;R&#45;281</title>
<path fill="none" stroke="#4d4d4d" d="M905,-201.58C905,-201.58 905,-151.03 905,-151.03"/>
<polygon fill="#4d4d4d" stroke="#4d4d4d" points="907.45,-151.03 905,-144.03 902.55,-151.03 907.45,-151.03"/>
</g>
<!-- S&#45;2455 -->
<g id="node11" class="node">
<title>S&#45;2455</title>
<polygon fill="mediumseagreen" stroke="black" points="365,-245 293,-223.5 365,-202 437,-223.5 365,-245"/>
<text text-anchor="middle" x="365" y="-221" font-family="Arial" font-size="10.00">S&#45;2455</text>
</g>
<!-- S&#45;1605 -->
<g id="node12" class="node">
<title>S&#45;1605</title>
<polygon fill="mediumseagreen" stroke="black" points="275,-346 203,-324.5 275,-303 347,-324.5 275,-346"/>
<text text-anchor="middle" x="275" y="-322" font-family="Arial" font-size="10.00">S&#45;1605</text>
</g>
<!-- S&#45;838 -->
<g id="node13" class="node">
<title>S&#45;838</title>
<polygon fill="mediumseagreen" stroke="black" points="455,-447 383,-425.5 455,-404 527,-425.5 455,-447"/>
<text text-anchor="middle" x="455" y="-423" font-family="Arial" font-size="10.00">S&#45;838</text>
</g>
<!-- S&#45;838&#45;&gt;S&#45;1605 -->
<g id="edge30" class="edge">
<title>S&#45;838&#45;&gt;S&#45;1605</title>
<path fill="none" stroke="#4d4d4d" d="M384.53,-425C373.14,-425 365,-425 365,-425 365,-425 365,-324 365,-324 365,-324 352.47,-324 352.47,-324"/>
<polygon fill="#4d4d4d" stroke="#4d4d4d" points="352.47,-321.55 345.47,-324 352.47,-326.45 352.47,-321.55"/>
</g>
<!-- S&#45;1606 -->
<g id="node29" class="node">
<title>S&#45;1606</title>
<polygon fill="mediumseagreen" stroke="black" points="455,-346 383,-324.5 455,-303 527,-324.5 455,-346"/>
<text text-anchor="middle" x="455" y="-322" font-family="Arial" font-size="10.00">S&#45;1606</text>
</g>
<!-- S&#45;838&#45;&gt;S&#45;1606 -->
<g id="edge31" class="edge">
<title>S&#45;838&#45;&gt;S&#45;1606</title>
<path fill="none" stroke="#4d4d4d" d="M455,-403.58C455,-403.58 455,-353.03 455,-353.03"/>
<polygon fill="#4d4d4d" stroke="#4d4d4d" points="457.45,-353.03 455,-346.03 452.55,-353.03 457.45,-353.03"/>
</g>
<!-- C&#45;0762 -->
<g id="node14" class="node">
<title>C&#45;0762</title>
<ellipse fill="mediumseagreen" stroke="black" cx="531" cy="-728.5" rx="72" ry="21.5"/>
<text text-anchor="middle" x="531" y="-726" font-family="Arial" font-size="10.00">C&#45;0762</text>
</g>
<!-- C&#45;0762&#45;&gt;R&#45;072 -->
<g id="edge26" class="edge">
<title>C&#45;0762&#45;&gt;R&#45;072</title>
<path fill="none" stroke="#4d4d4d" d="M524.5,-707.08C524.5,-707.08 524.5,-656.24 524.5,-656.24"/>
<polygon fill="#4d4d4d" stroke="#4d4d4d" points="526.95,-656.24 524.5,-649.24 522.05,-656.24 526.95,-656.24"/>
</g>
<!-- S&#45;1640 -->
<g id="node15" class="node">
<title>S&#45;1640</title>
<polygon fill="mediumseagreen" stroke="black" points="545,-245 473,-223.5 545,-202 617,-223.5 545,-245"/>
<text text-anchor="middle" x="545" y="-221" font-family="Arial" font-size="10.00">S&#45;1640</text>
</g>
<!-- C&#45;0677&#45;&gt;C&#45;0763 -->
<g id="edge24" class="edge">
<title>C&#45;0677&#45;&gt;C&#45;0763</title>
<path fill="none" stroke="#4d4d4d" d="M549,-812.68C549,-797.99 549,-779 549,-779 549,-779 382.5,-779 382.5,-779 382.5,-779 382.5,-754.88 382.5,-754.88"/>
<polygon fill="#4d4d4d" stroke="#4d4d4d" points="384.95,-754.88 382.5,-747.88 380.05,-754.88 384.95,-754.88"/>
</g>
<!-- C&#45;0677&#45;&gt;C&#45;0762 -->
<g id="edge25" class="edge">
<title>C&#45;0677&#45;&gt;C&#45;0762</title>
<path fill="none" stroke="#4d4d4d" d="M576,-808.57C576,-808.57 576,-752.39 576,-752.39"/>
<polygon fill="#4d4d4d" stroke="#4d4d4d" points="578.45,-752.39 576,-745.39 573.55,-752.39 578.45,-752.39"/>
</g>
<!-- S&#45;2314 -->
<g id="node34" class="node">
<title>S&#45;2314</title>
<polygon fill="mediumseagreen" stroke="black" points="711,-750 639,-728.5 711,-707 783,-728.5 711,-750"/>
<text text-anchor="middle" x="711" y="-726" font-family="Arial" font-size="10.00">S&#45;2314</text>
</g>
<!-- C&#45;0677&#45;&gt;S&#45;2314 -->
<g id="edge22" class="edge">
<title>C&#45;0677&#45;&gt;S&#45;2314</title>
<path fill="none" stroke="#4d4d4d" d="M652.5,-816.71C652.5,-816.71 652.5,-739.61 652.5,-739.61"/>
<polygon fill="#4d4d4d" stroke="#4d4d4d" points="654.95,-739.61 652.5,-732.61 650.05,-739.61 654.95,-739.61"/>
</g>
<!-- S&#45;1619 -->
<g id="node17" class="node">
<title>S&#45;1619</title>
<polygon fill="mediumseagreen" stroke="black" points="954,-952 882,-930.5 954,-909 1026,-930.5 954,-952"/>
<text text-anchor="middle" x="954" y="-928" font-family="Arial" font-size="10.00">S&#45;1619</text>
</g>
<!-- C&#45;0458 -->
<g id="node18" class="node">
<title>C&#45;0458</title>
<ellipse fill="mediumseagreen" stroke="black" cx="1072" cy="-425.5" rx="72" ry="21.5"/>
<text text-anchor="middle" x="1072" y="-423" font-family="Arial" font-size="10.00">C&#45;0458</text>
</g>
<!-- S&#45;2101 -->
<g id="node31" class="node">
<title>S&#45;2101</title>
<polygon fill="mediumseagreen" stroke="black" points="1175,-346 1103,-324.5 1175,-303 1247,-324.5 1175,-346"/>
<text text-anchor="middle" x="1175" y="-322" font-family="Arial" font-size="10.00">S&#45;2101</text>
</g>
<!-- C&#45;0458&#45;&gt;S&#45;2101 -->
<g id="edge12" class="edge">
<title>C&#45;0458&#45;&gt;S&#45;2101</title>
<path fill="none" stroke="#4d4d4d" d="M1123.5,-410.16C1123.5,-410.16 1123.5,-337.88 1123.5,-337.88"/>
<polygon fill="#4d4d4d" stroke="#4d4d4d" points="1125.95,-337.88 1123.5,-330.88 1121.05,-337.88 1125.95,-337.88"/>
</g>
<!-- S&#45;2291 -->
<g id="node19" class="node">
<title>S&#45;2291</title>
<polygon fill="mediumseagreen" stroke="black" points="711,-649 639,-627.5 711,-606 783,-627.5 711,-649"/>
<text text-anchor="middle" x="711" y="-625" font-family="Arial" font-size="10.00">S&#45;2291</text>
</g>
<!-- C&#45;0188 -->
<g id="node20" class="node">
<title>C&#45;0188</title>
<ellipse fill="mediumseagreen" stroke="black" cx="864" cy="-1031.5" rx="72" ry="21.5"/>
<text text-anchor="middle" x="864" y="-1029" font-family="Arial" font-size="10.00">C&#45;0188</text>
</g>
<!-- C&#45;0188&#45;&gt;S&#45;1038 -->
<g id="edge3" class="edge">
<title>C&#45;0188&#45;&gt;S&#45;1038</title>
<path fill="none" stroke="#4d4d4d" d="M792,-1031C712.02,-1031 594,-1031 594,-1031 594,-1031 594,-959.31 594,-959.31"/>
<polygon fill="#4d4d4d" stroke="#4d4d4d" points="596.45,-959.31 594,-952.31 591.55,-959.31 596.45,-959.31"/>
</g>
<!-- C&#45;0188&#45;&gt;C&#45;0456 -->
<g id="edge5" class="edge">
<title>C&#45;0188&#45;&gt;C&#45;0456</title>
<path fill="none" stroke="#4d4d4d" d="M819,-1014.37C819,-1014.37 819,-954.38 819,-954.38"/>
<polygon fill="#4d4d4d" stroke="#4d4d4d" points="821.45,-954.38 819,-947.38 816.55,-954.38 821.45,-954.38"/>
</g>
<!-- C&#45;0188&#45;&gt;S&#45;1619 -->
<g id="edge4" class="edge">
<title>C&#45;0188&#45;&gt;S&#45;1619</title>
<path fill="none" stroke="#4d4d4d" d="M909,-1014.37C909,-1014.37 909,-945.78 909,-945.78"/>
<polygon fill="#4d4d4d" stroke="#4d4d4d" points="911.45,-945.78 909,-938.78 906.55,-945.78 911.45,-945.78"/>
</g>
<!-- S&#45;1340 -->
<g id="node23" class="node">
<title>S&#45;1340</title>
<polygon fill="mediumseagreen" stroke="black" points="1134,-952 1062,-930.5 1134,-909 1206,-930.5 1134,-952"/>
<text text-anchor="middle" x="1134" y="-928" font-family="Arial" font-size="10.00">S&#45;1340</text>
</g>
<!-- C&#45;0188&#45;&gt;S&#45;1340 -->
<g id="edge2" class="edge">
<title>C&#45;0188&#45;&gt;S&#45;1340</title>
<path fill="none" stroke="#4d4d4d" d="M936,-1031C1015.98,-1031 1134,-1031 1134,-1031 1134,-1031 1134,-959.31 1134,-959.31"/>
<polygon fill="#4d4d4d" stroke="#4d4d4d" points="1136.45,-959.31 1134,-952.31 1131.55,-959.31 1136.45,-959.31"/>
</g>
<!-- S&#45;992 -->
<g id="node21" class="node">
<title>S&#45;992</title>
<polygon fill="mediumseagreen" stroke="black" points="1085,-245 1013,-223.5 1085,-202 1157,-223.5 1085,-245"/>
<text text-anchor="middle" x="1085" y="-221" font-family="Arial" font-size="10.00">S&#45;992</text>
</g>
<!-- R&#45;130 -->
<g id="node35" class="node">
<title>R&#45;130</title>
<polygon fill="mediumseagreen" stroke="black" points="995,-719.59 995,-737.41 952.82,-750 893.18,-750 851,-737.41 851,-719.59 893.18,-707 952.82,-707 995,-719.59"/>
<text text-anchor="middle" x="923" y="-726" font-family="Arial" font-size="10.00">R&#45;130</text>
</g>
<!-- C&#45;0387&#45;&gt;R&#45;130 -->
<g id="edge8" class="edge">
<title>C&#45;0387&#45;&gt;R&#45;130</title>
<path fill="none" stroke="#4d4d4d" d="M839.5,-820.49C839.5,-795.65 839.5,-728 839.5,-728 839.5,-728 843.76,-728 843.76,-728"/>
<polygon fill="#4d4d4d" stroke="#4d4d4d" points="843.76,-730.45 850.76,-728 843.76,-725.55 843.76,-730.45"/>
</g>
<!-- R&#45;287&#45;&gt;ext_circ_205_23_ -->
<g id="edge42" class="edge">
<title>R&#45;287&#45;&gt;ext_circ_205_23_</title>
<path fill="none" stroke="darkorange" stroke-dasharray="5,2" d="M117,-105.37C117,-105.37 117,-50.31 117,-50.31"/>
<polygon fill="darkorange" stroke="darkorange" points="119.45,-50.31 117,-43.31 114.55,-50.31 119.45,-50.31"/>
</g>
<!-- C&#45;0386&#45;&gt;C&#45;0457 -->
<g id="edge38" class="edge">
<title>C&#45;0386&#45;&gt;C&#45;0457</title>
<path fill="none" stroke="blue" stroke-dasharray="5,2" d="M1026.14,-829C1037.19,-829 1045,-829 1045,-829 1045,-829 1045,-553.82 1045,-553.82"/>
<polygon fill="blue" stroke="blue" points="1047.45,-553.82 1045,-546.82 1042.55,-553.82 1047.45,-553.82"/>
</g>
<!-- S&#45;2498 -->
<g id="node26" class="node">
<title>S&#45;2498</title>
<polygon fill="mediumseagreen" stroke="black" points="1265,-245 1193,-223.5 1265,-202 1337,-223.5 1265,-245"/>
<text text-anchor="middle" x="1265" y="-221" font-family="Arial" font-size="10.00">S&#45;2498</text>
</g>
<!-- C&#45;0641 -->
<g id="node27" class="node">
<title>C&#45;0641</title>
<ellipse fill="tomato" stroke="black" cx="1445" cy="-223.5" rx="72" ry="21.5"/>
<text text-anchor="middle" x="1445" y="-221" font-family="Arial" font-size="10.00">C&#45;0641</text>
</g>
<!-- ext_circ_208_24_ -->
<g id="node40" class="node">
<title>ext_circ_208_24_</title>
<polygon fill="lightpink" stroke="darkorange" stroke-dasharray="5,2" points="1517,-144 1373,-144 1373,-101 1517,-101 1517,-144"/>
<text text-anchor="middle" x="1445" y="-125.5" font-family="Arial" font-size="10.00">Circuito:</text>
<text text-anchor="middle" x="1445" y="-114.5" font-family="Arial" font-size="10.00">208&#45;24&#45;</text>
</g>
<!-- C&#45;0641&#45;&gt;ext_circ_208_24_ -->
<g id="edge40" class="edge">
<title>C&#45;0641&#45;&gt;ext_circ_208_24_</title>
<path fill="none" stroke="darkorange" stroke-dasharray="5,2" d="M1445,-201.58C1445,-201.58 1445,-151.03 1445,-151.03"/>
<polygon fill="darkorange" stroke="darkorange" points="1447.45,-151.03 1445,-144.03 1442.55,-151.03 1447.45,-151.03"/>
</g>
<!-- C&#45;0457&#45;&gt;C&#45;0458 -->
<g id="edge11" class="edge">
<title>C&#45;0457&#45;&gt;C&#45;0458</title>
<path fill="none" stroke="#4d4d4d" d="M1045.5,-506.06C1045.5,-506.06 1045.5,-452.56 1045.5,-452.56"/>
<polygon fill="#4d4d4d" stroke="#4d4d4d" points="1047.95,-452.56 1045.5,-445.56 1043.05,-452.56 1047.95,-452.56"/>
</g>
<!-- S&#45;1606&#45;&gt;C&#45;1138 -->
<g id="edge35" class="edge">
<title>S&#45;1606&#45;&gt;C&#45;1138</title>
<path fill="none" stroke="#4d4d4d" d="M401,-319.1C401,-306.07 401,-274 401,-274 401,-274 98,-274 98,-274 98,-274 98,-252.21 98,-252.21"/>
<polygon fill="#4d4d4d" stroke="#4d4d4d" points="100.45,-252.21 98,-245.21 95.55,-252.21 100.45,-252.21"/>
</g>
<!-- S&#45;1606&#45;&gt;C&#45;0124 -->
<g id="edge37" class="edge">
<title>S&#45;1606&#45;&gt;C&#45;0124</title>
<path fill="none" stroke="#4d4d4d" d="M455,-302.83C455,-250.59 455,-122 455,-122 455,-122 331.14,-122 331.14,-122"/>
<polygon fill="#4d4d4d" stroke="#4d4d4d" points="331.14,-119.55 324.14,-122 331.14,-124.45 331.14,-119.55"/>
</g>
<!-- S&#45;1606&#45;&gt;S&#45;2455 -->
<g id="edge34" class="edge">
<title>S&#45;1606&#45;&gt;S&#45;2455</title>
<path fill="none" stroke="#4d4d4d" d="M419,-313.69C419,-313.69 419,-236.12 419,-236.12"/>
<polygon fill="#4d4d4d" stroke="#4d4d4d" points="421.45,-236.12 419,-229.12 416.55,-236.12 421.45,-236.12"/>
</g>
<!-- S&#45;1606&#45;&gt;S&#45;1640 -->
<g id="edge32" class="edge">
<title>S&#45;1606&#45;&gt;S&#45;1640</title>
<path fill="none" stroke="#4d4d4d" d="M500,-316.23C500,-316.23 500,-238.6 500,-238.6"/>
<polygon fill="#4d4d4d" stroke="#4d4d4d" points="502.45,-238.6 500,-231.6 497.55,-238.6 502.45,-238.6"/>
</g>
<!-- S&#45;2326 -->
<g id="node36" class="node">
<title>S&#45;2326</title>
<polygon fill="mediumseagreen" stroke="black" points="725,-245 653,-223.5 725,-202 797,-223.5 725,-245"/>
<text text-anchor="middle" x="725" y="-221" font-family="Arial" font-size="10.00">S&#45;2326</text>
</g>
<!-- S&#45;1606&#45;&gt;S&#45;2326 -->
<g id="edge33" class="edge">
<title>S&#45;1606&#45;&gt;S&#45;2326</title>
<path fill="none" stroke="#4d4d4d" d="M505.4,-331C581.76,-331 718,-331 718,-331 718,-331 718,-250.22 718,-250.22"/>
<polygon fill="#4d4d4d" stroke="#4d4d4d" points="720.45,-250.22 718,-243.22 715.55,-250.22 720.45,-250.22"/>
</g>
<!-- 208&#45;22&#45; -->
<g id="node30" class="node">
<title>208&#45;22&#45;</title>
<polygon fill="gold" stroke="black" points="936,-1127.59 936,-1145.41 893.82,-1158 834.18,-1158 792,-1145.41 792,-1127.59 834.18,-1115 893.82,-1115 936,-1127.59"/>
<polygon fill="none" stroke="black" points="940,-1124.61 940,-1148.39 894.41,-1162 833.59,-1162 788,-1148.39 788,-1124.61 833.59,-1111 894.41,-1111 940,-1124.61"/>
<text text-anchor="middle" x="864" y="-1134" font-family="Arial" font-size="10.00">208&#45;22&#45;</text>
</g>
<!-- 208&#45;22&#45;&#45;&gt;C&#45;0188 -->
<g id="edge1" class="edge">
<title>208&#45;22&#45;&#45;&gt;C&#45;0188</title>
<path fill="none" stroke="#4d4d4d" d="M864,-1110.81C864,-1110.81 864,-1060.03 864,-1060.03"/>
<polygon fill="#4d4d4d" stroke="#4d4d4d" points="866.45,-1060.03 864,-1053.03 861.55,-1060.03 866.45,-1060.03"/>
</g>
<!-- S&#45;2101&#45;&gt;C&#45;1127 -->
<g id="edge13" class="edge">
<title>S&#45;2101&#45;&gt;C&#45;1127</title>
<path fill="none" stroke="#4d4d4d" d="M1127.99,-317C1065.27,-317 962,-317 962,-317 962,-317 962,-243.9 962,-243.9"/>
<polygon fill="#4d4d4d" stroke="#4d4d4d" points="964.45,-243.9 962,-236.9 959.55,-243.9 964.45,-243.9"/>
</g>
<!-- S&#45;2101&#45;&gt;S&#45;992 -->
<g id="edge16" class="edge">
<title>S&#45;2101&#45;&gt;S&#45;992</title>
<path fill="none" stroke="#4d4d4d" d="M1130,-316.23C1130,-316.23 1130,-238.6 1130,-238.6"/>
<polygon fill="#4d4d4d" stroke="#4d4d4d" points="1132.45,-238.6 1130,-231.6 1127.55,-238.6 1132.45,-238.6"/>
</g>
<!-- S&#45;2101&#45;&gt;S&#45;2498 -->
<g id="edge18" class="edge">
<title>S&#45;2101&#45;&gt;S&#45;2498</title>
<path fill="none" stroke="#4d4d4d" d="M1220,-316.23C1220,-316.23 1220,-238.6 1220,-238.6"/>
<polygon fill="#4d4d4d" stroke="#4d4d4d" points="1222.45,-238.6 1220,-231.6 1217.55,-238.6 1222.45,-238.6"/>
</g>
<!-- S&#45;2101&#45;&gt;C&#45;0641 -->
<g id="edge15" class="edge">
<title>S&#45;2101&#45;&gt;C&#45;0641</title>
<path fill="none" stroke="#4d4d4d" d="M1222.03,-317C1299.39,-317 1445,-317 1445,-317 1445,-317 1445,-252.19 1445,-252.19"/>
<polygon fill="#4d4d4d" stroke="#4d4d4d" points="1447.45,-252.19 1445,-245.19 1442.55,-252.19 1447.45,-252.19"/>
</g>
<!-- S&#45;2499 -->
<g id="node32" class="node">
<title>S&#45;2499</title>
<polygon fill="mediumseagreen" stroke="black" points="1625,-245 1553,-223.5 1625,-202 1697,-223.5 1625,-245"/>
<text text-anchor="middle" x="1625" y="-221" font-family="Arial" font-size="10.00">S&#45;2499</text>
</g>
<!-- S&#45;2101&#45;&gt;S&#45;2499 -->
<g id="edge17" class="edge">
<title>S&#45;2101&#45;&gt;S&#45;2499</title>
<path fill="none" stroke="#4d4d4d" d="M1225.31,-331C1342.74,-331 1625,-331 1625,-331 1625,-331 1625,-252.25 1625,-252.25"/>
<polygon fill="#4d4d4d" stroke="#4d4d4d" points="1627.45,-252.25 1625,-245.25 1622.55,-252.25 1627.45,-252.25"/>
</g>
<!-- C&#45;0764&#45;&gt;S&#45;1627 -->
<g id="edge28" class="edge">
<title>C&#45;0764&#45;&gt;S&#45;1627</title>
<path fill="none" stroke="#4d4d4d" d="M382.75,-526C347.67,-526 313,-526 313,-526 313,-526 313,-442.88 313,-442.88"/>
<polygon fill="#4d4d4d" stroke="#4d4d4d" points="315.45,-442.88 313,-435.88 310.55,-442.88 315.45,-442.88"/>
</g>
<!-- C&#45;0764&#45;&gt;S&#45;838 -->
<g id="edge29" class="edge">
<title>C&#45;0764&#45;&gt;S&#45;838</title>
<path fill="none" stroke="#4d4d4d" d="M455,-504.58C455,-504.58 455,-454.03 455,-454.03"/>
<polygon fill="#4d4d4d" stroke="#4d4d4d" points="457.45,-454.03 455,-447.03 452.55,-454.03 457.45,-454.03"/>
</g>
<!-- S&#45;2314&#45;&gt;S&#45;2291 -->
<g id="edge23" class="edge">
<title>S&#45;2314&#45;&gt;S&#45;2291</title>
<path fill="none" stroke="#4d4d4d" d="M711,-706.58C711,-706.58 711,-656.03 711,-656.03"/>
<polygon fill="#4d4d4d" stroke="#4d4d4d" points="713.45,-656.03 711,-649.03 708.55,-656.03 713.45,-656.03"/>
</g>
<!-- R&#45;130&#45;&gt;C&#45;0388 -->
<g id="edge9" class="edge">
<title>R&#45;130&#45;&gt;C&#45;0388</title>
<path fill="none" stroke="#4d4d4d" d="M939.5,-706.58C939.5,-706.58 939.5,-655.68 939.5,-655.68"/>
<polygon fill="#4d4d4d" stroke="#4d4d4d" points="941.95,-655.68 939.5,-648.68 937.05,-655.68 941.95,-655.68"/>
</g>
<!-- ext_circ_208_26_ -->
<g id="node39" class="node">
<title>ext_circ_208_26_</title>
<polygon fill="lightpink" stroke="darkorange" stroke-dasharray="5,2" points="977,-43 833,-43 833,0 977,0 977,-43"/>
<text text-anchor="middle" x="905" y="-24.5" font-family="Arial" font-size="10.00">Circuito:</text>
<text text-anchor="middle" x="905" y="-13.5" font-family="Arial" font-size="10.00">208&#45;26&#45;</text>
</g>
<!-- R&#45;281&#45;&gt;ext_circ_208_26_ -->
<g id="edge39" class="edge">
<title>R&#45;281&#45;&gt;ext_circ_208_26_</title>
<path fill="none" stroke="darkorange" stroke-dasharray="5,2" d="M905,-100.58C905,-100.58 905,-50.03 905,-50.03"/>
<polygon fill="darkorange" stroke="darkorange" points="907.45,-50.03 905,-43.03 902.55,-50.03 907.45,-50.03"/>
</g>
</g>
</svg>
