<?xml version="1.0" encoding="UTF-8" standalone="no"?>
<!DOCTYPE svg PUBLIC "-//W3C//DTD SVG 1.1//EN"
 "http://www.w3.org/Graphics/SVG/1.1/DTD/svg11.dtd">
<!-- Generated by graphviz version 2.50.0 (0)
 -->
<!-- Title: Grafo_Circuito_316_22 Pages: 1 -->
<svg width="1959pt" height="1271pt"
 viewBox="0.00 0.00 1959.00 1271.00" xmlns="http://www.w3.org/2000/svg" xmlns:xlink="http://www.w3.org/1999/xlink">
<g id="graph0" class="graph" transform="scale(1 1) rotate(0) translate(4 1267)">
<title>Grafo_Circuito_316_22</title>
<polygon fill="white" stroke="transparent" points="-4,4 -4,-1267 1955,-1267 1955,4 -4,4"/>
<!-- R&#45;267 -->
<g id="node1" class="node">
<title>R&#45;267</title>
<polygon fill="tomato" stroke="black" points="1044,-618.59 1044,-636.41 1001.82,-649 942.18,-649 900,-636.41 900,-618.59 942.18,-606 1001.82,-606 1044,-618.59"/>
<text text-anchor="middle" x="972" y="-625" font-family="Arial" font-size="10.00">R&#45;267</text>
</g>
<!-- ext_circ_111_24_ -->
<g id="node52" class="node">
<title>ext_circ_111_24_</title>
<polygon fill="lightpink" stroke="darkorange" stroke-dasharray="5,2" points="1089,-548 945,-548 945,-505 1089,-505 1089,-548"/>
<text text-anchor="middle" x="1017" y="-529.5" font-family="Arial" font-size="10.00">Circuito:</text>
<text text-anchor="middle" x="1017" y="-518.5" font-family="Arial" font-size="10.00">111&#45;24&#45;</text>
</g>
<!-- R&#45;267&#45;&gt;ext_circ_111_24_ -->
<g id="edge54" class="edge">
<title>R&#45;267&#45;&gt;ext_circ_111_24_</title>
<path fill="none" stroke="darkorange" stroke-dasharray="5,2" d="M994.5,-605.58C994.5,-605.58 994.5,-555.03 994.5,-555.03"/>
<polygon fill="darkorange" stroke="darkorange" points="996.95,-555.03 994.5,-548.03 992.05,-555.03 996.95,-555.03"/>
</g>
<!-- C&#45;0262 -->
<g id="node2" class="node">
<title>C&#45;0262</title>
<ellipse fill="mediumseagreen" stroke="black" cx="1289" cy="-324.5" rx="72" ry="21.5"/>
<text text-anchor="middle" x="1289" y="-322" font-family="Arial" font-size="10.00">C&#45;0262</text>
</g>
<!-- C&#45;0233 -->
<g id="node3" class="node">
<title>C&#45;0233</title>
<ellipse fill="tomato" stroke="black" cx="1289" cy="-223.5" rx="72" ry="21.5"/>
<text text-anchor="middle" x="1289" y="-221" font-family="Arial" font-size="10.00">C&#45;0233</text>
</g>
<!-- C&#45;0262&#45;&gt;C&#45;0233 -->
<g id="edge34" class="edge">
<title>C&#45;0262&#45;&gt;C&#45;0233</title>
<path fill="none" stroke="#4d4d4d" d="M1253,-305.5C1253,-305.5 1253,-249.41 1253,-249.41"/>
<polygon fill="#4d4d4d" stroke="#4d4d4d" points="1255.45,-249.41 1253,-242.41 1250.55,-249.41 1255.45,-249.41"/>
</g>
<!-- S&#45;2233 -->
<g id="node10" class="node">
<title>S&#45;2233</title>
<polygon fill="mediumseagreen" stroke="black" points="1469,-245 1397,-223.5 1469,-202 1541,-223.5 1469,-245"/>
<text text-anchor="middle" x="1469" y="-221" font-family="Arial" font-size="10.00">S&#45;2233</text>
</g>
<!-- C&#45;0262&#45;&gt;S&#45;2233 -->
<g id="edge33" class="edge">
<title>C&#45;0262&#45;&gt;S&#45;2233</title>
<path fill="none" stroke="#4d4d4d" d="M1357.75,-331C1373.13,-331 1385,-331 1385,-331 1385,-331 1385,-223 1385,-223 1385,-223 1391.5,-223 1391.5,-223"/>
<polygon fill="#4d4d4d" stroke="#4d4d4d" points="1391.5,-225.45 1398.5,-223 1391.5,-220.55 1391.5,-225.45"/>
</g>
<!-- C&#45;0734 -->
<g id="node44" class="node">
<title>C&#45;0734</title>
<ellipse fill="tomato" stroke="black" cx="1342" cy="-122.5" rx="72" ry="21.5"/>
<text text-anchor="middle" x="1342" y="-120" font-family="Arial" font-size="10.00">C&#45;0734</text>
</g>
<!-- C&#45;0262&#45;&gt;C&#45;0734 -->
<g id="edge37" class="edge">
<title>C&#45;0262&#45;&gt;C&#45;0734</title>
<path fill="none" stroke="#4d4d4d" d="M1356.8,-317C1366.36,-317 1373,-317 1373,-317 1373,-317 1373,-149.22 1373,-149.22"/>
<polygon fill="#4d4d4d" stroke="#4d4d4d" points="1375.45,-149.22 1373,-142.22 1370.55,-149.22 1375.45,-149.22"/>
</g>
<!-- S&#45;2124 -->
<g id="node46" class="node">
<title>S&#45;2124</title>
<polygon fill="mediumseagreen" stroke="black" points="1829,-245 1757,-223.5 1829,-202 1901,-223.5 1829,-245"/>
<text text-anchor="middle" x="1829" y="-221" font-family="Arial" font-size="10.00">S&#45;2124</text>
</g>
<!-- C&#45;0262&#45;&gt;S&#45;2124 -->
<g id="edge32" class="edge">
<title>C&#45;0262&#45;&gt;S&#45;2124</title>
<path fill="none" stroke="#4d4d4d" d="M1325,-305.69C1325,-294.71 1325,-283 1325,-283 1325,-283 1829,-283 1829,-283 1829,-283 1829,-252.32 1829,-252.32"/>
<polygon fill="#4d4d4d" stroke="#4d4d4d" points="1831.45,-252.32 1829,-245.32 1826.55,-252.32 1831.45,-252.32"/>
</g>
<!-- C&#45;0735 -->
<g id="node50" class="node">
<title>C&#45;0735</title>
<ellipse fill="mediumseagreen" stroke="black" cx="1649" cy="-223.5" rx="72" ry="21.5"/>
<text text-anchor="middle" x="1649" y="-221" font-family="Arial" font-size="10.00">C&#45;0735</text>
</g>
<!-- C&#45;0262&#45;&gt;C&#45;0735 -->
<g id="edge35" class="edge">
<title>C&#45;0262&#45;&gt;C&#45;0735</title>
<path fill="none" stroke="#4d4d4d" d="M1289,-303C1289,-285.61 1289,-264 1289,-264 1289,-264 1649,-264 1649,-264 1649,-264 1649,-252.17 1649,-252.17"/>
<polygon fill="#4d4d4d" stroke="#4d4d4d" points="1651.45,-252.17 1649,-245.17 1646.55,-252.17 1651.45,-252.17"/>
</g>
<!-- C&#45;0234 -->
<g id="node4" class="node">
<title>C&#45;0234</title>
<ellipse fill="mediumseagreen" stroke="black" cx="601" cy="-122.5" rx="72" ry="21.5"/>
<text text-anchor="middle" x="601" y="-120" font-family="Arial" font-size="10.00">C&#45;0234</text>
</g>
<!-- C&#45;0233&#45;&gt;C&#45;0234 -->
<g id="edge56" class="edge">
<title>C&#45;0233&#45;&gt;C&#45;0234</title>
<path fill="none" stroke="blue" stroke-dasharray="5,2" d="M1243.5,-206.68C1243.5,-191.99 1243.5,-173 1243.5,-173 1243.5,-173 646.67,-173 646.67,-173 646.67,-173 646.67,-146.32 646.67,-146.32"/>
<polygon fill="blue" stroke="blue" points="649.12,-146.32 646.67,-139.32 644.22,-146.32 649.12,-146.32"/>
</g>
<!-- S&#45;2263 -->
<g id="node14" class="node">
<title>S&#45;2263</title>
<polygon fill="mediumseagreen" stroke="black" points="781,-43 709,-21.5 781,0 853,-21.5 781,-43"/>
<text text-anchor="middle" x="781" y="-19" font-family="Arial" font-size="10.00">S&#45;2263</text>
</g>
<!-- C&#45;0234&#45;&gt;S&#45;2263 -->
<g id="edge47" class="edge">
<title>C&#45;0234&#45;&gt;S&#45;2263</title>
<path fill="none" stroke="#4d4d4d" d="M672.98,-122C694.59,-122 712.67,-122 712.67,-122 712.67,-122 712.67,-29.63 712.67,-29.63"/>
<polygon fill="#4d4d4d" stroke="#4d4d4d" points="715.12,-29.63 712.67,-22.63 710.22,-29.63 715.12,-29.63"/>
</g>
<!-- S&#45;524 -->
<g id="node17" class="node">
<title>S&#45;524</title>
<polygon fill="mediumseagreen" stroke="black" points="421,-43 349,-21.5 421,0 493,-21.5 421,-43"/>
<text text-anchor="middle" x="421" y="-19" font-family="Arial" font-size="10.00">S&#45;524</text>
</g>
<!-- C&#45;0234&#45;&gt;S&#45;524 -->
<g id="edge48" class="edge">
<title>C&#45;0234&#45;&gt;S&#45;524</title>
<path fill="none" stroke="#4d4d4d" d="M528.68,-122C499.01,-122 471.5,-122 471.5,-122 471.5,-122 471.5,-35.09 471.5,-35.09"/>
<polygon fill="#4d4d4d" stroke="#4d4d4d" points="473.95,-35.09 471.5,-28.09 469.05,-35.09 473.95,-35.09"/>
</g>
<!-- S&#45;2396 -->
<g id="node33" class="node">
<title>S&#45;2396</title>
<polygon fill="mediumseagreen" stroke="black" points="601,-43 529,-21.5 601,0 673,-21.5 601,-43"/>
<text text-anchor="middle" x="601" y="-19" font-family="Arial" font-size="10.00">S&#45;2396</text>
</g>
<!-- C&#45;0234&#45;&gt;S&#45;2396 -->
<g id="edge49" class="edge">
<title>C&#45;0234&#45;&gt;S&#45;2396</title>
<path fill="none" stroke="#4d4d4d" d="M601,-100.58C601,-100.58 601,-50.03 601,-50.03"/>
<polygon fill="#4d4d4d" stroke="#4d4d4d" points="603.45,-50.03 601,-43.03 598.55,-50.03 603.45,-50.03"/>
</g>
<!-- C&#45;0567 -->
<g id="node5" class="node">
<title>C&#45;0567</title>
<ellipse fill="mediumseagreen" stroke="black" cx="432" cy="-425.5" rx="72" ry="21.5"/>
<text text-anchor="middle" x="432" y="-423" font-family="Arial" font-size="10.00">C&#45;0567</text>
</g>
<!-- C&#45;0254 -->
<g id="node18" class="node">
<title>C&#45;0254</title>
<ellipse fill="mediumseagreen" stroke="black" cx="432" cy="-324.5" rx="72" ry="21.5"/>
<text text-anchor="middle" x="432" y="-322" font-family="Arial" font-size="10.00">C&#45;0254</text>
</g>
<!-- C&#45;0567&#45;&gt;C&#45;0254 -->
<g id="edge14" class="edge">
<title>C&#45;0567&#45;&gt;C&#45;0254</title>
<path fill="none" stroke="#4d4d4d" d="M432,-403.58C432,-403.58 432,-353.03 432,-353.03"/>
<polygon fill="#4d4d4d" stroke="#4d4d4d" points="434.45,-353.03 432,-346.03 429.55,-353.03 434.45,-353.03"/>
</g>
<!-- S&#45;1866 -->
<g id="node6" class="node">
<title>S&#45;1866</title>
<polygon fill="mediumseagreen" stroke="black" points="1226,-750 1154,-728.5 1226,-707 1298,-728.5 1226,-750"/>
<text text-anchor="middle" x="1226" y="-726" font-family="Arial" font-size="10.00">S&#45;1866</text>
</g>
<!-- S&#45;630 -->
<g id="node7" class="node">
<title>S&#45;630</title>
<polygon fill="mediumseagreen" stroke="black" points="342,-245 270,-223.5 342,-202 414,-223.5 342,-245"/>
<text text-anchor="middle" x="342" y="-221" font-family="Arial" font-size="10.00">S&#45;630</text>
</g>
<!-- C&#45;0256 -->
<g id="node8" class="node">
<title>C&#45;0256</title>
<ellipse fill="mediumseagreen" stroke="black" cx="1099" cy="-425.5" rx="72" ry="21.5"/>
<text text-anchor="middle" x="1099" y="-423" font-family="Arial" font-size="10.00">C&#45;0256</text>
</g>
<!-- C&#45;0257 -->
<g id="node27" class="node">
<title>C&#45;0257</title>
<ellipse fill="mediumseagreen" stroke="black" cx="1035" cy="-324.5" rx="72" ry="21.5"/>
<text text-anchor="middle" x="1035" y="-322" font-family="Arial" font-size="10.00">C&#45;0257</text>
</g>
<!-- C&#45;0256&#45;&gt;C&#45;0257 -->
<g id="edge41" class="edge">
<title>C&#45;0256&#45;&gt;C&#45;0257</title>
<path fill="none" stroke="#4d4d4d" d="M1067,-406.03C1067,-406.03 1067,-350.91 1067,-350.91"/>
<polygon fill="#4d4d4d" stroke="#4d4d4d" points="1069.45,-350.91 1067,-343.91 1064.55,-350.91 1069.45,-350.91"/>
</g>
<!-- C&#45;0323 -->
<g id="node9" class="node">
<title>C&#45;0323</title>
<ellipse fill="mediumseagreen" stroke="black" cx="1496" cy="-1132.5" rx="72" ry="21.5"/>
<text text-anchor="middle" x="1496" y="-1130" font-family="Arial" font-size="10.00">C&#45;0323</text>
</g>
<!-- C&#45;0322 -->
<g id="node38" class="node">
<title>C&#45;0322</title>
<ellipse fill="mediumseagreen" stroke="black" cx="1496" cy="-1031.5" rx="72" ry="21.5"/>
<text text-anchor="middle" x="1496" y="-1029" font-family="Arial" font-size="10.00">C&#45;0322</text>
</g>
<!-- C&#45;0323&#45;&gt;C&#45;0322 -->
<g id="edge2" class="edge">
<title>C&#45;0323&#45;&gt;C&#45;0322</title>
<path fill="none" stroke="#4d4d4d" d="M1496,-1110.58C1496,-1110.58 1496,-1060.03 1496,-1060.03"/>
<polygon fill="#4d4d4d" stroke="#4d4d4d" points="1498.45,-1060.03 1496,-1053.03 1493.55,-1060.03 1498.45,-1060.03"/>
</g>
<!-- S&#45;526 -->
<g id="node11" class="node">
<title>S&#45;526</title>
<polygon fill="mediumseagreen" stroke="black" points="72,-750 0,-728.5 72,-707 144,-728.5 72,-750"/>
<text text-anchor="middle" x="72" y="-726" font-family="Arial" font-size="10.00">S&#45;526</text>
</g>
<!-- S&#45;1712 -->
<g id="node12" class="node">
<title>S&#45;1712</title>
<polygon fill="mediumseagreen" stroke="black" points="1676,-851 1604,-829.5 1676,-808 1748,-829.5 1676,-851"/>
<text text-anchor="middle" x="1676" y="-827" font-family="Arial" font-size="10.00">S&#45;1712</text>
</g>
<!-- C&#45;1029 -->
<g id="node13" class="node">
<title>C&#45;1029</title>
<ellipse fill="mediumseagreen" stroke="black" cx="1406" cy="-526.5" rx="72" ry="21.5"/>
<text text-anchor="middle" x="1406" y="-524" font-family="Arial" font-size="10.00">C&#45;1029</text>
</g>
<!-- C&#45;1029&#45;&gt;C&#45;0256 -->
<g id="edge40" class="edge">
<title>C&#45;1029&#45;&gt;C&#45;0256</title>
<path fill="none" stroke="#4d4d4d" d="M1338.32,-519C1267.14,-519 1165.33,-519 1165.33,-519 1165.33,-519 1165.33,-441.13 1165.33,-441.13"/>
<polygon fill="#4d4d4d" stroke="#4d4d4d" points="1167.78,-441.13 1165.33,-434.13 1162.88,-441.13 1167.78,-441.13"/>
</g>
<!-- C&#45;0259 -->
<g id="node31" class="node">
<title>C&#45;0259</title>
<ellipse fill="mediumseagreen" stroke="black" cx="1586" cy="-425.5" rx="72" ry="21.5"/>
<text text-anchor="middle" x="1586" y="-423" font-family="Arial" font-size="10.00">C&#45;0259</text>
</g>
<!-- C&#45;1029&#45;&gt;C&#45;0259 -->
<g id="edge29" class="edge">
<title>C&#45;1029&#45;&gt;C&#45;0259</title>
<path fill="none" stroke="#4d4d4d" d="M1466.93,-515C1527.04,-515 1610,-515 1610,-515 1610,-515 1610,-452.81 1610,-452.81"/>
<polygon fill="#4d4d4d" stroke="#4d4d4d" points="1612.45,-452.81 1610,-445.81 1607.55,-452.81 1612.45,-452.81"/>
</g>
<!-- S&#45;2054 -->
<g id="node39" class="node">
<title>S&#45;2054</title>
<polygon fill="mediumseagreen" stroke="black" points="1406,-447 1334,-425.5 1406,-404 1478,-425.5 1406,-447"/>
<text text-anchor="middle" x="1406" y="-423" font-family="Arial" font-size="10.00">S&#45;2054</text>
</g>
<!-- C&#45;1029&#45;&gt;S&#45;2054 -->
<g id="edge28" class="edge">
<title>C&#45;1029&#45;&gt;S&#45;2054</title>
<path fill="none" stroke="#4d4d4d" d="M1406,-504.58C1406,-504.58 1406,-454.03 1406,-454.03"/>
<polygon fill="#4d4d4d" stroke="#4d4d4d" points="1408.45,-454.03 1406,-447.03 1403.55,-454.03 1408.45,-454.03"/>
</g>
<!-- S&#45;1343 -->
<g id="node15" class="node">
<title>S&#45;1343</title>
<polygon fill="mediumseagreen" stroke="black" points="1649,-346 1577,-324.5 1649,-303 1721,-324.5 1649,-346"/>
<text text-anchor="middle" x="1649" y="-322" font-family="Arial" font-size="10.00">S&#45;1343</text>
</g>
<!-- C&#45;0255 -->
<g id="node16" class="node">
<title>C&#45;0255</title>
<ellipse fill="tomato" stroke="black" cx="522" cy="-223.5" rx="72" ry="21.5"/>
<text text-anchor="middle" x="522" y="-221" font-family="Arial" font-size="10.00">C&#45;0255</text>
</g>
<!-- C&#45;0255&#45;&gt;S&#45;2263 -->
<g id="edge52" class="edge">
<title>C&#45;0255&#45;&gt;S&#45;2263</title>
<path fill="none" stroke="blue" stroke-dasharray="5,2" d="M589.7,-216C645.78,-216 716.33,-216 716.33,-216 716.33,-216 716.33,-30.96 716.33,-30.96"/>
<polygon fill="blue" stroke="blue" points="718.78,-30.96 716.33,-23.96 713.88,-30.96 718.78,-30.96"/>
</g>
<!-- C&#45;0254&#45;&gt;S&#45;630 -->
<g id="edge15" class="edge">
<title>C&#45;0254&#45;&gt;S&#45;630</title>
<path fill="none" stroke="#4d4d4d" d="M387,-307.37C387,-307.37 387,-238.78 387,-238.78"/>
<polygon fill="#4d4d4d" stroke="#4d4d4d" points="389.45,-238.78 387,-231.78 384.55,-238.78 389.45,-238.78"/>
</g>
<!-- C&#45;0254&#45;&gt;C&#45;0255 -->
<g id="edge16" class="edge">
<title>C&#45;0254&#45;&gt;C&#45;0255</title>
<path fill="none" stroke="#4d4d4d" d="M477,-307.37C477,-307.37 477,-247.38 477,-247.38"/>
<polygon fill="#4d4d4d" stroke="#4d4d4d" points="479.45,-247.38 477,-240.38 474.55,-247.38 479.45,-247.38"/>
</g>
<!-- C&#45;1027 -->
<g id="node19" class="node">
<title>C&#45;1027</title>
<ellipse fill="tomato" stroke="black" cx="1586" cy="-728.5" rx="72" ry="21.5"/>
<text text-anchor="middle" x="1586" y="-726" font-family="Arial" font-size="10.00">C&#45;1027</text>
</g>
<!-- C&#45;1027&#45;&gt;C&#45;1029 -->
<g id="edge55" class="edge">
<title>C&#45;1027&#45;&gt;C&#45;1029</title>
<path fill="none" stroke="blue" stroke-dasharray="5,2" d="M1562,-707.97C1562,-656.49 1562,-526 1562,-526 1562,-526 1485.06,-526 1485.06,-526"/>
<polygon fill="blue" stroke="blue" points="1485.06,-523.55 1478.06,-526 1485.06,-528.45 1485.06,-523.55"/>
</g>
<!-- C&#45;1089 -->
<g id="node20" class="node">
<title>C&#45;1089</title>
<ellipse fill="mediumseagreen" stroke="black" cx="972" cy="-728.5" rx="72" ry="21.5"/>
<text text-anchor="middle" x="972" y="-726" font-family="Arial" font-size="10.00">C&#45;1089</text>
</g>
<!-- C&#45;1089&#45;&gt;R&#45;267 -->
<g id="edge20" class="edge">
<title>C&#45;1089&#45;&gt;R&#45;267</title>
<path fill="none" stroke="#4d4d4d" d="M972,-706.58C972,-706.58 972,-656.03 972,-656.03"/>
<polygon fill="#4d4d4d" stroke="#4d4d4d" points="974.45,-656.03 972,-649.03 969.55,-656.03 974.45,-656.03"/>
</g>
<!-- C&#45;0004 -->
<g id="node21" class="node">
<title>C&#45;0004</title>
<ellipse fill="tomato" stroke="black" cx="1226" cy="-627.5" rx="72" ry="21.5"/>
<text text-anchor="middle" x="1226" y="-625" font-family="Arial" font-size="10.00">C&#45;0004</text>
</g>
<!-- C&#45;0004&#45;&gt;ext_circ_111_24_ -->
<g id="edge53" class="edge">
<title>C&#45;0004&#45;&gt;ext_circ_111_24_</title>
<path fill="none" stroke="darkorange" stroke-dasharray="5,2" d="M1159.67,-619.11C1159.67,-595.99 1159.67,-533 1159.67,-533 1159.67,-533 1096.17,-533 1096.17,-533"/>
<polygon fill="darkorange" stroke="darkorange" points="1096.17,-530.55 1089.17,-533 1096.17,-535.45 1096.17,-530.55"/>
</g>
<!-- C&#45;0308 -->
<g id="node22" class="node">
<title>C&#45;0308</title>
<ellipse fill="tomato" stroke="black" cx="1879" cy="-526.5" rx="72" ry="21.5"/>
<text text-anchor="middle" x="1879" y="-524" font-family="Arial" font-size="10.00">C&#45;0308</text>
</g>
<!-- ext_circ_303_23_ -->
<g id="node53" class="node">
<title>ext_circ_303_23_</title>
<polygon fill="lightpink" stroke="darkorange" stroke-dasharray="5,2" points="1721,-43 1577,-43 1577,0 1721,0 1721,-43"/>
<text text-anchor="middle" x="1649" y="-24.5" font-family="Arial" font-size="10.00">Circuito:</text>
<text text-anchor="middle" x="1649" y="-13.5" font-family="Arial" font-size="10.00">303&#45;23&#45;</text>
</g>
<!-- C&#45;0308&#45;&gt;ext_circ_303_23_ -->
<g id="edge59" class="edge">
<title>C&#45;0308&#45;&gt;ext_circ_303_23_</title>
<path fill="none" stroke="darkorange" stroke-dasharray="5,2" d="M1926,-509.97C1926,-422.85 1926,-21 1926,-21 1926,-21 1728.06,-21 1728.06,-21"/>
<polygon fill="darkorange" stroke="darkorange" points="1728.06,-18.55 1721.06,-21 1728.06,-23.45 1728.06,-18.55"/>
</g>
<!-- C&#45;0566 -->
<g id="node23" class="node">
<title>C&#45;0566</title>
<ellipse fill="mediumseagreen" stroke="black" cx="432" cy="-627.5" rx="72" ry="21.5"/>
<text text-anchor="middle" x="432" y="-625" font-family="Arial" font-size="10.00">C&#45;0566</text>
</g>
<!-- R&#45;122 -->
<g id="node29" class="node">
<title>R&#45;122</title>
<polygon fill="mediumseagreen" stroke="black" points="504,-517.59 504,-535.41 461.82,-548 402.18,-548 360,-535.41 360,-517.59 402.18,-505 461.82,-505 504,-517.59"/>
<text text-anchor="middle" x="432" y="-524" font-family="Arial" font-size="10.00">R&#45;122</text>
</g>
<!-- C&#45;0566&#45;&gt;R&#45;122 -->
<g id="edge12" class="edge">
<title>C&#45;0566&#45;&gt;R&#45;122</title>
<path fill="none" stroke="#4d4d4d" d="M432,-605.58C432,-605.58 432,-555.03 432,-555.03"/>
<polygon fill="#4d4d4d" stroke="#4d4d4d" points="434.45,-555.03 432,-548.03 429.55,-555.03 434.45,-555.03"/>
</g>
<!-- C&#45;0274 -->
<g id="node24" class="node">
<title>C&#45;0274</title>
<ellipse fill="mediumseagreen" stroke="black" cx="855" cy="-223.5" rx="72" ry="21.5"/>
<text text-anchor="middle" x="855" y="-221" font-family="Arial" font-size="10.00">C&#45;0274</text>
</g>
<!-- C&#45;0274&#45;&gt;C&#45;0234 -->
<g id="edge46" class="edge">
<title>C&#45;0274&#45;&gt;C&#45;0234</title>
<path fill="none" stroke="#4d4d4d" d="M786.18,-230C716.93,-230 620.33,-230 620.33,-230 620.33,-230 620.33,-150.23 620.33,-150.23"/>
<polygon fill="#4d4d4d" stroke="#4d4d4d" points="622.78,-150.23 620.33,-143.23 617.88,-150.23 622.78,-150.23"/>
</g>
<!-- S&#45;2015 -->
<g id="node28" class="node">
<title>S&#45;2015</title>
<polygon fill="mediumseagreen" stroke="black" points="855,-144 783,-122.5 855,-101 927,-122.5 855,-144"/>
<text text-anchor="middle" x="855" y="-120" font-family="Arial" font-size="10.00">S&#45;2015</text>
</g>
<!-- C&#45;0274&#45;&gt;S&#45;2015 -->
<g id="edge45" class="edge">
<title>C&#45;0274&#45;&gt;S&#45;2015</title>
<path fill="none" stroke="#4d4d4d" d="M855,-201.58C855,-201.58 855,-151.03 855,-151.03"/>
<polygon fill="#4d4d4d" stroke="#4d4d4d" points="857.45,-151.03 855,-144.03 852.55,-151.03 857.45,-151.03"/>
</g>
<!-- S&#45;1944 -->
<g id="node32" class="node">
<title>S&#45;1944</title>
<polygon fill="mediumseagreen" stroke="black" points="1035,-144 963,-122.5 1035,-101 1107,-122.5 1035,-144"/>
<text text-anchor="middle" x="1035" y="-120" font-family="Arial" font-size="10.00">S&#45;1944</text>
</g>
<!-- C&#45;0274&#45;&gt;S&#45;1944 -->
<g id="edge44" class="edge">
<title>C&#45;0274&#45;&gt;S&#45;1944</title>
<path fill="none" stroke="#4d4d4d" d="M927.02,-223C932.53,-223 936,-223 936,-223 936,-223 936,-122 936,-122 936,-122 957.63,-122 957.63,-122"/>
<polygon fill="#4d4d4d" stroke="#4d4d4d" points="957.63,-124.45 964.63,-122 957.63,-119.55 957.63,-124.45"/>
</g>
<!-- S&#45;647 -->
<g id="node25" class="node">
<title>S&#45;647</title>
<polygon fill="mediumseagreen" stroke="black" points="1829,-346 1757,-324.5 1829,-303 1901,-324.5 1829,-346"/>
<text text-anchor="middle" x="1829" y="-322" font-family="Arial" font-size="10.00">S&#45;647</text>
</g>
<!-- S&#45;2427 -->
<g id="node26" class="node">
<title>S&#45;2427</title>
<polygon fill="mediumseagreen" stroke="black" points="792,-649 720,-627.5 792,-606 864,-627.5 792,-649"/>
<text text-anchor="middle" x="792" y="-625" font-family="Arial" font-size="10.00">S&#45;2427</text>
</g>
<!-- C&#45;0257&#45;&gt;C&#45;0274 -->
<g id="edge43" class="edge">
<title>C&#45;0257&#45;&gt;C&#45;0274</title>
<path fill="none" stroke="#4d4d4d" d="M962.92,-324C936.76,-324 913.5,-324 913.5,-324 913.5,-324 913.5,-243.23 913.5,-243.23"/>
<polygon fill="#4d4d4d" stroke="#4d4d4d" points="915.95,-243.23 913.5,-236.23 911.05,-243.23 915.95,-243.23"/>
</g>
<!-- S&#45;1184 -->
<g id="node41" class="node">
<title>S&#45;1184</title>
<polygon fill="mediumseagreen" stroke="black" points="1035,-245 963,-223.5 1035,-202 1107,-223.5 1035,-245"/>
<text text-anchor="middle" x="1035" y="-221" font-family="Arial" font-size="10.00">S&#45;1184</text>
</g>
<!-- C&#45;0257&#45;&gt;S&#45;1184 -->
<g id="edge42" class="edge">
<title>C&#45;0257&#45;&gt;S&#45;1184</title>
<path fill="none" stroke="#4d4d4d" d="M1035,-302.58C1035,-302.58 1035,-252.03 1035,-252.03"/>
<polygon fill="#4d4d4d" stroke="#4d4d4d" points="1037.45,-252.03 1035,-245.03 1032.55,-252.03 1037.45,-252.03"/>
</g>
<!-- R&#45;122&#45;&gt;C&#45;0567 -->
<g id="edge13" class="edge">
<title>R&#45;122&#45;&gt;C&#45;0567</title>
<path fill="none" stroke="#4d4d4d" d="M432,-504.58C432,-504.58 432,-454.03 432,-454.03"/>
<polygon fill="#4d4d4d" stroke="#4d4d4d" points="434.45,-454.03 432,-447.03 429.55,-454.03 434.45,-454.03"/>
</g>
<!-- S&#45;1166 -->
<g id="node30" class="node">
<title>S&#45;1166</title>
<polygon fill="mediumseagreen" stroke="black" points="1469,-346 1397,-324.5 1469,-303 1541,-324.5 1469,-346"/>
<text text-anchor="middle" x="1469" y="-322" font-family="Arial" font-size="10.00">S&#45;1166</text>
</g>
<!-- C&#45;0259&#45;&gt;C&#45;0262 -->
<g id="edge31" class="edge">
<title>C&#45;0259&#45;&gt;C&#45;0262</title>
<path fill="none" stroke="#4d4d4d" d="M1523,-414.79C1523,-399.97 1523,-375 1523,-375 1523,-375 1347.5,-375 1347.5,-375 1347.5,-375 1347.5,-344.24 1347.5,-344.24"/>
<polygon fill="#4d4d4d" stroke="#4d4d4d" points="1349.95,-344.24 1347.5,-337.24 1345.05,-344.24 1349.95,-344.24"/>
</g>
<!-- C&#45;0259&#45;&gt;S&#45;1343 -->
<g id="edge30" class="edge">
<title>C&#45;0259&#45;&gt;S&#45;1343</title>
<path fill="none" stroke="#4d4d4d" d="M1617.5,-406.03C1617.5,-406.03 1617.5,-343.62 1617.5,-343.62"/>
<polygon fill="#4d4d4d" stroke="#4d4d4d" points="1619.95,-343.62 1617.5,-336.62 1615.05,-343.62 1619.95,-343.62"/>
</g>
<!-- C&#45;0259&#45;&gt;S&#45;647 -->
<g id="edge39" class="edge">
<title>C&#45;0259&#45;&gt;S&#45;647</title>
<path fill="none" stroke="#4d4d4d" d="M1658.15,-425C1714.03,-425 1782,-425 1782,-425 1782,-425 1782,-339.05 1782,-339.05"/>
<polygon fill="#4d4d4d" stroke="#4d4d4d" points="1784.45,-339.05 1782,-332.05 1779.55,-339.05 1784.45,-339.05"/>
</g>
<!-- C&#45;0259&#45;&gt;S&#45;1166 -->
<g id="edge38" class="edge">
<title>C&#45;0259&#45;&gt;S&#45;1166</title>
<path fill="none" stroke="#4d4d4d" d="M1532,-411.03C1532,-411.03 1532,-334.39 1532,-334.39"/>
<polygon fill="#4d4d4d" stroke="#4d4d4d" points="1534.45,-334.39 1532,-327.39 1529.55,-334.39 1534.45,-334.39"/>
</g>
<!-- C&#45;1028 -->
<g id="node34" class="node">
<title>C&#45;1028</title>
<ellipse fill="mediumseagreen" stroke="black" cx="1406" cy="-728.5" rx="72" ry="21.5"/>
<text text-anchor="middle" x="1406" y="-726" font-family="Arial" font-size="10.00">C&#45;1028</text>
</g>
<!-- R&#45;045 -->
<g id="node48" class="node">
<title>R&#45;045</title>
<polygon fill="mediumseagreen" stroke="black" points="1478,-618.59 1478,-636.41 1435.82,-649 1376.18,-649 1334,-636.41 1334,-618.59 1376.18,-606 1435.82,-606 1478,-618.59"/>
<text text-anchor="middle" x="1406" y="-625" font-family="Arial" font-size="10.00">R&#45;045</text>
</g>
<!-- C&#45;1028&#45;&gt;R&#45;045 -->
<g id="edge26" class="edge">
<title>C&#45;1028&#45;&gt;R&#45;045</title>
<path fill="none" stroke="#4d4d4d" d="M1406,-706.58C1406,-706.58 1406,-656.03 1406,-656.03"/>
<polygon fill="#4d4d4d" stroke="#4d4d4d" points="1408.45,-656.03 1406,-649.03 1403.55,-656.03 1408.45,-656.03"/>
</g>
<!-- S&#45;628 -->
<g id="node35" class="node">
<title>S&#45;628</title>
<polygon fill="mediumseagreen" stroke="black" points="252,-750 180,-728.5 252,-707 324,-728.5 252,-750"/>
<text text-anchor="middle" x="252" y="-726" font-family="Arial" font-size="10.00">S&#45;628</text>
</g>
<!-- C&#45;0565 -->
<g id="node36" class="node">
<title>C&#45;0565</title>
<ellipse fill="tomato" stroke="black" cx="612" cy="-627.5" rx="72" ry="21.5"/>
<text text-anchor="middle" x="612" y="-625" font-family="Arial" font-size="10.00">C&#45;0565</text>
</g>
<!-- C&#45;0565&#45;&gt;C&#45;0567 -->
<g id="edge51" class="edge">
<title>C&#45;0565&#45;&gt;C&#45;0567</title>
<path fill="none" stroke="blue" stroke-dasharray="5,2" d="M567,-610.58C567,-561.91 567,-425 567,-425 567,-425 511.24,-425 511.24,-425"/>
<polygon fill="blue" stroke="blue" points="511.24,-422.55 504.24,-425 511.24,-427.45 511.24,-422.55"/>
</g>
<!-- C&#45;0324 -->
<g id="node37" class="node">
<title>C&#45;0324</title>
<ellipse fill="mediumseagreen" stroke="black" cx="1496" cy="-930.5" rx="72" ry="21.5"/>
<text text-anchor="middle" x="1496" y="-928" font-family="Arial" font-size="10.00">C&#45;0324</text>
</g>
<!-- C&#45;0324&#45;&gt;S&#45;1712 -->
<g id="edge22" class="edge">
<title>C&#45;0324&#45;&gt;S&#45;1712</title>
<path fill="none" stroke="#4d4d4d" d="M1568.18,-930C1618.25,-930 1676,-930 1676,-930 1676,-930 1676,-858.31 1676,-858.31"/>
<polygon fill="#4d4d4d" stroke="#4d4d4d" points="1678.45,-858.31 1676,-851.31 1673.55,-858.31 1678.45,-858.31"/>
</g>
<!-- S&#45;691 -->
<g id="node42" class="node">
<title>S&#45;691</title>
<polygon fill="mediumseagreen" stroke="black" points="792,-851 720,-829.5 792,-808 864,-829.5 792,-851"/>
<text text-anchor="middle" x="792" y="-827" font-family="Arial" font-size="10.00">S&#45;691</text>
</g>
<!-- C&#45;0324&#45;&gt;S&#45;691 -->
<g id="edge4" class="edge">
<title>C&#45;0324&#45;&gt;S&#45;691</title>
<path fill="none" stroke="#4d4d4d" d="M1423.97,-930C1244.54,-930 792,-930 792,-930 792,-930 792,-858.31 792,-858.31"/>
<polygon fill="#4d4d4d" stroke="#4d4d4d" points="794.45,-858.31 792,-851.31 789.55,-858.31 794.45,-858.31"/>
</g>
<!-- S&#45;782 -->
<g id="node43" class="node">
<title>S&#45;782</title>
<polygon fill="mediumseagreen" stroke="black" points="1496,-851 1424,-829.5 1496,-808 1568,-829.5 1496,-851"/>
<text text-anchor="middle" x="1496" y="-827" font-family="Arial" font-size="10.00">S&#45;782</text>
</g>
<!-- C&#45;0324&#45;&gt;S&#45;782 -->
<g id="edge23" class="edge">
<title>C&#45;0324&#45;&gt;S&#45;782</title>
<path fill="none" stroke="#4d4d4d" d="M1496,-908.58C1496,-908.58 1496,-858.03 1496,-858.03"/>
<polygon fill="#4d4d4d" stroke="#4d4d4d" points="1498.45,-858.03 1496,-851.03 1493.55,-858.03 1498.45,-858.03"/>
</g>
<!-- C&#45;0322&#45;&gt;C&#45;0324 -->
<g id="edge3" class="edge">
<title>C&#45;0322&#45;&gt;C&#45;0324</title>
<path fill="none" stroke="#4d4d4d" d="M1496,-1009.58C1496,-1009.58 1496,-959.03 1496,-959.03"/>
<polygon fill="#4d4d4d" stroke="#4d4d4d" points="1498.45,-959.03 1496,-952.03 1493.55,-959.03 1498.45,-959.03"/>
</g>
<!-- S&#45;2110 -->
<g id="node40" class="node">
<title>S&#45;2110</title>
<polygon fill="mediumseagreen" stroke="black" points="432,-750 360,-728.5 432,-707 504,-728.5 432,-750"/>
<text text-anchor="middle" x="432" y="-726" font-family="Arial" font-size="10.00">S&#45;2110</text>
</g>
<!-- S&#45;691&#45;&gt;S&#45;1866 -->
<g id="edge5" class="edge">
<title>S&#45;691&#45;&gt;S&#45;1866</title>
<path fill="none" stroke="#4d4d4d" d="M829,-840C933.96,-840 1226,-840 1226,-840 1226,-840 1226,-757.26 1226,-757.26"/>
<polygon fill="#4d4d4d" stroke="#4d4d4d" points="1228.45,-757.26 1226,-750.26 1223.55,-757.26 1228.45,-757.26"/>
</g>
<!-- S&#45;691&#45;&gt;S&#45;526 -->
<g id="edge7" class="edge">
<title>S&#45;691&#45;&gt;S&#45;526</title>
<path fill="none" stroke="#4d4d4d" d="M761.52,-842C624.48,-842 72,-842 72,-842 72,-842 72,-757.12 72,-757.12"/>
<polygon fill="#4d4d4d" stroke="#4d4d4d" points="74.45,-757.12 72,-750.12 69.55,-757.12 74.45,-757.12"/>
</g>
<!-- S&#45;691&#45;&gt;C&#45;1089 -->
<g id="edge19" class="edge">
<title>S&#45;691&#45;&gt;C&#45;1089</title>
<path fill="none" stroke="#4d4d4d" d="M825.86,-818C878,-818 972,-818 972,-818 972,-818 972,-757.17 972,-757.17"/>
<polygon fill="#4d4d4d" stroke="#4d4d4d" points="974.45,-757.17 972,-750.17 969.55,-757.17 974.45,-757.17"/>
</g>
<!-- S&#45;691&#45;&gt;C&#45;0004 -->
<g id="edge18" class="edge">
<title>S&#45;691&#45;&gt;C&#45;0004</title>
<path fill="none" stroke="#4d4d4d" d="M862.33,-829C943.66,-829 1066.5,-829 1066.5,-829 1066.5,-829 1066.5,-627 1066.5,-627 1066.5,-627 1146.72,-627 1146.72,-627"/>
<polygon fill="#4d4d4d" stroke="#4d4d4d" points="1146.72,-629.45 1153.72,-627 1146.72,-624.55 1146.72,-629.45"/>
</g>
<!-- S&#45;691&#45;&gt;S&#45;628 -->
<g id="edge17" class="edge">
<title>S&#45;691&#45;&gt;S&#45;628</title>
<path fill="none" stroke="#4d4d4d" d="M731.63,-833C590.72,-833 252,-833 252,-833 252,-833 252,-757.15 252,-757.15"/>
<polygon fill="#4d4d4d" stroke="#4d4d4d" points="254.45,-757.15 252,-750.15 249.55,-757.15 254.45,-757.15"/>
</g>
<!-- S&#45;691&#45;&gt;S&#45;2110 -->
<g id="edge6" class="edge">
<title>S&#45;691&#45;&gt;S&#45;2110</title>
<path fill="none" stroke="#4d4d4d" d="M734.96,-825C633.45,-825 432,-825 432,-825 432,-825 432,-757.4 432,-757.4"/>
<polygon fill="#4d4d4d" stroke="#4d4d4d" points="434.45,-757.4 432,-750.4 429.55,-757.4 434.45,-757.4"/>
</g>
<!-- S&#45;629 -->
<g id="node47" class="node">
<title>S&#45;629</title>
<polygon fill="mediumseagreen" stroke="black" points="612,-750 540,-728.5 612,-707 684,-728.5 612,-750"/>
<text text-anchor="middle" x="612" y="-726" font-family="Arial" font-size="10.00">S&#45;629</text>
</g>
<!-- S&#45;691&#45;&gt;S&#45;629 -->
<g id="edge8" class="edge">
<title>S&#45;691&#45;&gt;S&#45;629</title>
<path fill="none" stroke="#4d4d4d" d="M765.05,-816C714.84,-816 612,-816 612,-816 612,-816 612,-757.13 612,-757.13"/>
<polygon fill="#4d4d4d" stroke="#4d4d4d" points="614.45,-757.13 612,-750.13 609.55,-757.13 614.45,-757.13"/>
</g>
<!-- S&#45;525 -->
<g id="node49" class="node">
<title>S&#45;525</title>
<polygon fill="mediumseagreen" stroke="black" points="792,-750 720,-728.5 792,-707 864,-728.5 792,-750"/>
<text text-anchor="middle" x="792" y="-726" font-family="Arial" font-size="10.00">S&#45;525</text>
</g>
<!-- S&#45;691&#45;&gt;S&#45;525 -->
<g id="edge21" class="edge">
<title>S&#45;691&#45;&gt;S&#45;525</title>
<path fill="none" stroke="#4d4d4d" d="M792,-807.58C792,-807.58 792,-757.03 792,-757.03"/>
<polygon fill="#4d4d4d" stroke="#4d4d4d" points="794.45,-757.03 792,-750.03 789.55,-757.03 794.45,-757.03"/>
</g>
<!-- S&#45;782&#45;&gt;C&#45;1027 -->
<g id="edge25" class="edge">
<title>S&#45;782&#45;&gt;C&#45;1027</title>
<path fill="none" stroke="#4d4d4d" d="M1541,-821.23C1541,-821.23 1541,-752.52 1541,-752.52"/>
<polygon fill="#4d4d4d" stroke="#4d4d4d" points="1543.45,-752.52 1541,-745.52 1538.55,-752.52 1543.45,-752.52"/>
</g>
<!-- S&#45;782&#45;&gt;C&#45;0308 -->
<g id="edge50" class="edge">
<title>S&#45;782&#45;&gt;C&#45;0308</title>
<path fill="none" stroke="#4d4d4d" d="M1496,-807.99C1496,-740.44 1496,-537 1496,-537 1496,-537 1808.76,-537 1808.76,-537"/>
<polygon fill="#4d4d4d" stroke="#4d4d4d" points="1808.76,-539.45 1815.76,-537 1808.76,-534.55 1808.76,-539.45"/>
</g>
<!-- S&#45;782&#45;&gt;C&#45;1028 -->
<g id="edge24" class="edge">
<title>S&#45;782&#45;&gt;C&#45;1028</title>
<path fill="none" stroke="#4d4d4d" d="M1451,-821.23C1451,-821.23 1451,-752.52 1451,-752.52"/>
<polygon fill="#4d4d4d" stroke="#4d4d4d" points="1453.45,-752.52 1451,-745.52 1448.55,-752.52 1453.45,-752.52"/>
</g>
<!-- C&#45;0734&#45;&gt;ext_circ_303_23_ -->
<g id="edge58" class="edge">
<title>C&#45;0734&#45;&gt;ext_circ_303_23_</title>
<path fill="none" stroke="darkorange" stroke-dasharray="5,2" d="M1414,-122.36C1414,-119.39 1414,-72 1414,-72 1414,-72 1625,-72 1625,-72 1625,-72 1625,-50.21 1625,-50.21"/>
<polygon fill="darkorange" stroke="darkorange" points="1627.45,-50.21 1625,-43.21 1622.55,-50.21 1627.45,-50.21"/>
</g>
<!-- R&#45;143 -->
<g id="node45" class="node">
<title>R&#45;143</title>
<polygon fill="tomato" stroke="black" points="1721,-113.59 1721,-131.41 1678.82,-144 1619.18,-144 1577,-131.41 1577,-113.59 1619.18,-101 1678.82,-101 1721,-113.59"/>
<text text-anchor="middle" x="1649" y="-120" font-family="Arial" font-size="10.00">R&#45;143</text>
</g>
<!-- R&#45;143&#45;&gt;ext_circ_303_23_ -->
<g id="edge57" class="edge">
<title>R&#45;143&#45;&gt;ext_circ_303_23_</title>
<path fill="none" stroke="darkorange" stroke-dasharray="5,2" d="M1673,-100.58C1673,-100.58 1673,-50.03 1673,-50.03"/>
<polygon fill="darkorange" stroke="darkorange" points="1675.45,-50.03 1673,-43.03 1670.55,-50.03 1675.45,-50.03"/>
</g>
<!-- S&#45;629&#45;&gt;C&#45;0566 -->
<g id="edge11" class="edge">
<title>S&#45;629&#45;&gt;C&#45;0566</title>
<path fill="none" stroke="#4d4d4d" d="M541.53,-728C530.14,-728 522,-728 522,-728 522,-728 522,-627 522,-627 522,-627 511.22,-627 511.22,-627"/>
<polygon fill="#4d4d4d" stroke="#4d4d4d" points="511.22,-624.55 504.22,-627 511.22,-629.45 511.22,-624.55"/>
</g>
<!-- S&#45;629&#45;&gt;S&#45;2427 -->
<g id="edge9" class="edge">
<title>S&#45;629&#45;&gt;S&#45;2427</title>
<path fill="none" stroke="#4d4d4d" d="M682.55,-728C690.88,-728 696.5,-728 696.5,-728 696.5,-728 696.5,-627 696.5,-627 696.5,-627 714.59,-627 714.59,-627"/>
<polygon fill="#4d4d4d" stroke="#4d4d4d" points="714.59,-629.45 721.59,-627 714.59,-624.55 714.59,-629.45"/>
</g>
<!-- S&#45;629&#45;&gt;C&#45;0565 -->
<g id="edge10" class="edge">
<title>S&#45;629&#45;&gt;C&#45;0565</title>
<path fill="none" stroke="#4d4d4d" d="M612,-706.58C612,-706.58 612,-656.03 612,-656.03"/>
<polygon fill="#4d4d4d" stroke="#4d4d4d" points="614.45,-656.03 612,-649.03 609.55,-656.03 614.45,-656.03"/>
</g>
<!-- R&#45;045&#45;&gt;C&#45;1029 -->
<g id="edge27" class="edge">
<title>R&#45;045&#45;&gt;C&#45;1029</title>
<path fill="none" stroke="#4d4d4d" d="M1406,-605.58C1406,-605.58 1406,-555.03 1406,-555.03"/>
<polygon fill="#4d4d4d" stroke="#4d4d4d" points="1408.45,-555.03 1406,-548.03 1403.55,-555.03 1408.45,-555.03"/>
</g>
<!-- C&#45;0735&#45;&gt;R&#45;143 -->
<g id="edge36" class="edge">
<title>C&#45;0735&#45;&gt;R&#45;143</title>
<path fill="none" stroke="#4d4d4d" d="M1649,-201.58C1649,-201.58 1649,-151.03 1649,-151.03"/>
<polygon fill="#4d4d4d" stroke="#4d4d4d" points="1651.45,-151.03 1649,-144.03 1646.55,-151.03 1651.45,-151.03"/>
</g>
<!-- 316&#45;22 -->
<g id="node51" class="node">
<title>316&#45;22</title>
<polygon fill="gold" stroke="black" points="1568,-1228.59 1568,-1246.41 1525.82,-1259 1466.18,-1259 1424,-1246.41 1424,-1228.59 1466.18,-1216 1525.82,-1216 1568,-1228.59"/>
<polygon fill="none" stroke="black" points="1572,-1225.61 1572,-1249.39 1526.41,-1263 1465.59,-1263 1420,-1249.39 1420,-1225.61 1465.59,-1212 1526.41,-1212 1572,-1225.61"/>
<text text-anchor="middle" x="1496" y="-1235" font-family="Arial" font-size="10.00">316&#45;22</text>
</g>
<!-- 316&#45;22&#45;&gt;C&#45;0323 -->
<g id="edge1" class="edge">
<title>316&#45;22&#45;&gt;C&#45;0323</title>
<path fill="none" stroke="#4d4d4d" d="M1496,-1211.81C1496,-1211.81 1496,-1161.03 1496,-1161.03"/>
<polygon fill="#4d4d4d" stroke="#4d4d4d" points="1498.45,-1161.03 1496,-1154.03 1493.55,-1161.03 1498.45,-1161.03"/>
</g>
</g>
</svg>
