<?xml version="1.0" encoding="UTF-8" standalone="no"?>
<!DOCTYPE svg PUBLIC "-//W3C//DTD SVG 1.1//EN"
 "http://www.w3.org/Graphics/SVG/1.1/DTD/svg11.dtd">
<!-- Generated by graphviz version 2.50.0 (0)
 -->
<!-- Title: Grafo_Circuito_114_22_ Pages: 1 -->
<svg width="2132pt" height="1170pt"
 viewBox="0.00 0.00 2132.00 1170.00" xmlns="http://www.w3.org/2000/svg" xmlns:xlink="http://www.w3.org/1999/xlink">
<g id="graph0" class="graph" transform="scale(1 1) rotate(0) translate(4 1166)">
<title>Grafo_Circuito_114_22_</title>
<polygon fill="white" stroke="transparent" points="-4,4 -4,-1166 2128,-1166 2128,4 -4,4"/>
<!-- S&#45;126 -->
<g id="node1" class="node">
<title>S&#45;126</title>
<polygon fill="mediumseagreen" stroke="black" points="792,-649 720,-627.5 792,-606 864,-627.5 792,-649"/>
<text text-anchor="middle" x="792" y="-625" font-family="Arial" font-size="10.00">S&#45;126</text>
</g>
<!-- S&#45;1784 -->
<g id="node2" class="node">
<title>S&#45;1784</title>
<polygon fill="mediumseagreen" stroke="black" points="972,-649 900,-627.5 972,-606 1044,-627.5 972,-649"/>
<text text-anchor="middle" x="972" y="-625" font-family="Arial" font-size="10.00">S&#45;1784</text>
</g>
<!-- C&#45;0584 -->
<g id="node3" class="node">
<title>C&#45;0584</title>
<ellipse fill="mediumseagreen" stroke="black" cx="1152" cy="-728.5" rx="72" ry="21.5"/>
<text text-anchor="middle" x="1152" y="-726" font-family="Arial" font-size="10.00">C&#45;0584</text>
</g>
<!-- C&#45;0584&#45;&gt;S&#45;126 -->
<g id="edge8" class="edge">
<title>C&#45;0584&#45;&gt;S&#45;126</title>
<path fill="none" stroke="#4d4d4d" d="M1080.61,-725C985.34,-725 828.5,-725 828.5,-725 828.5,-725 828.5,-645.31 828.5,-645.31"/>
<polygon fill="#4d4d4d" stroke="#4d4d4d" points="830.95,-645.31 828.5,-638.31 826.05,-645.31 830.95,-645.31"/>
</g>
<!-- C&#45;0584&#45;&gt;S&#45;1784 -->
<g id="edge10" class="edge">
<title>C&#45;0584&#45;&gt;S&#45;1784</title>
<path fill="none" stroke="#4d4d4d" d="M1087.2,-719C1044.34,-719 996,-719 996,-719 996,-719 996,-649.2 996,-649.2"/>
<polygon fill="#4d4d4d" stroke="#4d4d4d" points="998.45,-649.2 996,-642.2 993.55,-649.2 998.45,-649.2"/>
</g>
<!-- S&#45;127 -->
<g id="node8" class="node">
<title>S&#45;127</title>
<polygon fill="mediumseagreen" stroke="black" points="1152,-649 1080,-627.5 1152,-606 1224,-627.5 1152,-649"/>
<text text-anchor="middle" x="1152" y="-625" font-family="Arial" font-size="10.00">S&#45;127</text>
</g>
<!-- C&#45;0584&#45;&gt;S&#45;127 -->
<g id="edge9" class="edge">
<title>C&#45;0584&#45;&gt;S&#45;127</title>
<path fill="none" stroke="#4d4d4d" d="M1152,-706.58C1152,-706.58 1152,-656.03 1152,-656.03"/>
<polygon fill="#4d4d4d" stroke="#4d4d4d" points="1154.45,-656.03 1152,-649.03 1149.55,-656.03 1154.45,-656.03"/>
</g>
<!-- C&#45;0821 -->
<g id="node35" class="node">
<title>C&#45;0821</title>
<ellipse fill="mediumseagreen" stroke="black" cx="1332" cy="-627.5" rx="72" ry="21.5"/>
<text text-anchor="middle" x="1332" y="-625" font-family="Arial" font-size="10.00">C&#45;0821</text>
</g>
<!-- C&#45;0584&#45;&gt;C&#45;0821 -->
<g id="edge11" class="edge">
<title>C&#45;0584&#45;&gt;C&#45;0821</title>
<path fill="none" stroke="#4d4d4d" d="M1212.85,-717C1242.99,-717 1273,-717 1273,-717 1273,-717 1273,-646.94 1273,-646.94"/>
<polygon fill="#4d4d4d" stroke="#4d4d4d" points="1275.45,-646.94 1273,-639.94 1270.55,-646.94 1275.45,-646.94"/>
</g>
<!-- S&#45;2156 -->
<g id="node39" class="node">
<title>S&#45;2156</title>
<polygon fill="mediumseagreen" stroke="black" points="1512,-649 1440,-627.5 1512,-606 1584,-627.5 1512,-649"/>
<text text-anchor="middle" x="1512" y="-625" font-family="Arial" font-size="10.00">S&#45;2156</text>
</g>
<!-- C&#45;0584&#45;&gt;S&#45;2156 -->
<g id="edge6" class="edge">
<title>C&#45;0584&#45;&gt;S&#45;2156</title>
<path fill="none" stroke="#4d4d4d" d="M1223.99,-728C1329.04,-728 1512,-728 1512,-728 1512,-728 1512,-656.31 1512,-656.31"/>
<polygon fill="#4d4d4d" stroke="#4d4d4d" points="1514.45,-656.31 1512,-649.31 1509.55,-656.31 1514.45,-656.31"/>
</g>
<!-- R&#45;184 -->
<g id="node4" class="node">
<title>R&#45;184</title>
<polygon fill="mediumseagreen" stroke="black" points="1404,-517.59 1404,-535.41 1361.82,-548 1302.18,-548 1260,-535.41 1260,-517.59 1302.18,-505 1361.82,-505 1404,-517.59"/>
<text text-anchor="middle" x="1332" y="-524" font-family="Arial" font-size="10.00">R&#45;184</text>
</g>
<!-- C&#45;0819 -->
<g id="node23" class="node">
<title>C&#45;0819</title>
<ellipse fill="mediumseagreen" stroke="black" cx="1332" cy="-425.5" rx="72" ry="21.5"/>
<text text-anchor="middle" x="1332" y="-423" font-family="Arial" font-size="10.00">C&#45;0819</text>
</g>
<!-- R&#45;184&#45;&gt;C&#45;0819 -->
<g id="edge13" class="edge">
<title>R&#45;184&#45;&gt;C&#45;0819</title>
<path fill="none" stroke="#4d4d4d" d="M1332,-504.58C1332,-504.58 1332,-454.03 1332,-454.03"/>
<polygon fill="#4d4d4d" stroke="#4d4d4d" points="1334.45,-454.03 1332,-447.03 1329.55,-454.03 1334.45,-454.03"/>
</g>
<!-- S&#45;1983 -->
<g id="node5" class="node">
<title>S&#45;1983</title>
<polygon fill="mediumseagreen" stroke="black" points="72,-649 0,-627.5 72,-606 144,-627.5 72,-649"/>
<text text-anchor="middle" x="72" y="-625" font-family="Arial" font-size="10.00">S&#45;1983</text>
</g>
<!-- C&#45;0309 -->
<g id="node6" class="node">
<title>C&#45;0309</title>
<ellipse fill="mediumseagreen" stroke="black" cx="1449" cy="-324.5" rx="72" ry="21.5"/>
<text text-anchor="middle" x="1449" y="-322" font-family="Arial" font-size="10.00">C&#45;0309</text>
</g>
<!-- S&#45;2157 -->
<g id="node9" class="node">
<title>S&#45;2157</title>
<polygon fill="mediumseagreen" stroke="black" points="999,-245 927,-223.5 999,-202 1071,-223.5 999,-245"/>
<text text-anchor="middle" x="999" y="-221" font-family="Arial" font-size="10.00">S&#45;2157</text>
</g>
<!-- C&#45;0309&#45;&gt;S&#45;2157 -->
<g id="edge17" class="edge">
<title>C&#45;0309&#45;&gt;S&#45;2157</title>
<path fill="none" stroke="#4d4d4d" d="M1390.5,-311.82C1390.5,-299.62 1390.5,-283 1390.5,-283 1390.5,-283 1057.5,-283 1057.5,-283 1057.5,-283 1057.5,-234.78 1057.5,-234.78"/>
<polygon fill="#4d4d4d" stroke="#4d4d4d" points="1059.95,-234.78 1057.5,-227.78 1055.05,-234.78 1059.95,-234.78"/>
</g>
<!-- S&#45;2062 -->
<g id="node11" class="node">
<title>S&#45;2062</title>
<polygon fill="mediumseagreen" stroke="black" points="1179,-245 1107,-223.5 1179,-202 1251,-223.5 1179,-245"/>
<text text-anchor="middle" x="1179" y="-221" font-family="Arial" font-size="10.00">S&#45;2062</text>
</g>
<!-- C&#45;0309&#45;&gt;S&#45;2062 -->
<g id="edge16" class="edge">
<title>C&#45;0309&#45;&gt;S&#45;2062</title>
<path fill="none" stroke="#4d4d4d" d="M1404,-307.65C1404,-289.75 1404,-264 1404,-264 1404,-264 1224,-264 1224,-264 1224,-264 1224,-238.7 1224,-238.7"/>
<polygon fill="#4d4d4d" stroke="#4d4d4d" points="1226.45,-238.7 1224,-231.7 1221.55,-238.7 1226.45,-238.7"/>
</g>
<!-- S&#45;1725 -->
<g id="node19" class="node">
<title>S&#45;1725</title>
<polygon fill="mediumseagreen" stroke="black" points="1359,-245 1287,-223.5 1359,-202 1431,-223.5 1359,-245"/>
<text text-anchor="middle" x="1359" y="-221" font-family="Arial" font-size="10.00">S&#45;1725</text>
</g>
<!-- C&#45;0309&#45;&gt;S&#45;1725 -->
<g id="edge21" class="edge">
<title>C&#45;0309&#45;&gt;S&#45;1725</title>
<path fill="none" stroke="#4d4d4d" d="M1417.5,-305.03C1417.5,-305.03 1417.5,-234.74 1417.5,-234.74"/>
<polygon fill="#4d4d4d" stroke="#4d4d4d" points="1419.95,-234.74 1417.5,-227.74 1415.05,-234.74 1419.95,-234.74"/>
</g>
<!-- C&#45;0790 -->
<g id="node22" class="node">
<title>C&#45;0790</title>
<ellipse fill="mediumseagreen" stroke="black" cx="1539" cy="-223.5" rx="72" ry="21.5"/>
<text text-anchor="middle" x="1539" y="-221" font-family="Arial" font-size="10.00">C&#45;0790</text>
</g>
<!-- C&#45;0309&#45;&gt;C&#45;0790 -->
<g id="edge18" class="edge">
<title>C&#45;0309&#45;&gt;C&#45;0790</title>
<path fill="none" stroke="#4d4d4d" d="M1494,-307.37C1494,-307.37 1494,-247.38 1494,-247.38"/>
<polygon fill="#4d4d4d" stroke="#4d4d4d" points="1496.45,-247.38 1494,-240.38 1491.55,-247.38 1496.45,-247.38"/>
</g>
<!-- S&#45;1116 -->
<g id="node34" class="node">
<title>S&#45;1116</title>
<polygon fill="mediumseagreen" stroke="black" points="1719,-245 1647,-223.5 1719,-202 1791,-223.5 1719,-245"/>
<text text-anchor="middle" x="1719" y="-221" font-family="Arial" font-size="10.00">S&#45;1116</text>
</g>
<!-- C&#45;0309&#45;&gt;S&#45;1116 -->
<g id="edge22" class="edge">
<title>C&#45;0309&#45;&gt;S&#45;1116</title>
<path fill="none" stroke="#4d4d4d" d="M1521.09,-324C1590.49,-324 1685,-324 1685,-324 1685,-324 1685,-242.03 1685,-242.03"/>
<polygon fill="#4d4d4d" stroke="#4d4d4d" points="1687.45,-242.03 1685,-235.03 1682.55,-242.03 1687.45,-242.03"/>
</g>
<!-- C&#45;0789 -->
<g id="node41" class="node">
<title>C&#45;0789</title>
<ellipse fill="tomato" stroke="black" cx="1814" cy="-122.5" rx="72" ry="21.5"/>
<text text-anchor="middle" x="1814" y="-120" font-family="Arial" font-size="10.00">C&#45;0789</text>
</g>
<!-- C&#45;0309&#45;&gt;C&#45;0789 -->
<g id="edge20" class="edge">
<title>C&#45;0309&#45;&gt;C&#45;0789</title>
<path fill="none" stroke="#4d4d4d" d="M1449,-302.79C1449,-260.9 1449,-173 1449,-173 1449,-173 1766.5,-173 1766.5,-173 1766.5,-173 1766.5,-145.76 1766.5,-145.76"/>
<polygon fill="#4d4d4d" stroke="#4d4d4d" points="1768.95,-145.76 1766.5,-138.76 1764.05,-145.76 1768.95,-145.76"/>
</g>
<!-- S&#45;1982 -->
<g id="node7" class="node">
<title>S&#45;1982</title>
<polygon fill="mediumseagreen" stroke="black" points="252,-649 180,-627.5 252,-606 324,-627.5 252,-649"/>
<text text-anchor="middle" x="252" y="-625" font-family="Arial" font-size="10.00">S&#45;1982</text>
</g>
<!-- C&#45;0958 -->
<g id="node10" class="node">
<title>C&#45;0958</title>
<ellipse fill="tomato" stroke="black" cx="612" cy="-930.5" rx="72" ry="21.5"/>
<text text-anchor="middle" x="612" y="-928" font-family="Arial" font-size="10.00">C&#45;0958</text>
</g>
<!-- C&#45;0959 -->
<g id="node16" class="node">
<title>C&#45;0959</title>
<ellipse fill="mediumseagreen" stroke="black" cx="432" cy="-728.5" rx="72" ry="21.5"/>
<text text-anchor="middle" x="432" y="-726" font-family="Arial" font-size="10.00">C&#45;0959</text>
</g>
<!-- C&#45;0958&#45;&gt;C&#45;0959 -->
<g id="edge49" class="edge">
<title>C&#45;0958&#45;&gt;C&#45;0959</title>
<path fill="none" stroke="blue" stroke-dasharray="5,2" d="M576.33,-911.49C576.33,-863.82 576.33,-743 576.33,-743 576.33,-743 492.33,-743 492.33,-743"/>
<polygon fill="blue" stroke="blue" points="492.33,-740.55 485.33,-743 492.33,-745.45 492.33,-740.55"/>
</g>
<!-- S&#45;2467 -->
<g id="node12" class="node">
<title>S&#45;2467</title>
<ellipse fill="mediumseagreen" stroke="black" cx="1692" cy="-627.5" rx="72" ry="21.5"/>
<text text-anchor="middle" x="1692" y="-625" font-family="Arial" font-size="10.00">S&#45;2467</text>
</g>
<!-- S&#45;2196 -->
<g id="node13" class="node">
<title>S&#45;2196</title>
<polygon fill="mediumseagreen" stroke="black" points="2052,-548 1980,-526.5 2052,-505 2124,-526.5 2052,-548"/>
<text text-anchor="middle" x="2052" y="-524" font-family="Arial" font-size="10.00">S&#45;2196</text>
</g>
<!-- R&#45;226 -->
<g id="node14" class="node">
<title>R&#45;226</title>
<polygon fill="mediumseagreen" stroke="black" points="793,-820.59 793,-838.41 750.82,-851 691.18,-851 649,-838.41 649,-820.59 691.18,-808 750.82,-808 793,-820.59"/>
<text text-anchor="middle" x="721" y="-827" font-family="Arial" font-size="10.00">R&#45;226</text>
</g>
<!-- R&#45;226&#45;&gt;C&#45;0959 -->
<g id="edge37" class="edge">
<title>R&#45;226&#45;&gt;C&#45;0959</title>
<path fill="none" stroke="#4d4d4d" d="M666.5,-815.05C666.5,-789.03 666.5,-737 666.5,-737 666.5,-737 505.26,-737 505.26,-737"/>
<polygon fill="#4d4d4d" stroke="#4d4d4d" points="505.26,-734.55 498.26,-737 505.26,-739.45 505.26,-734.55"/>
</g>
<!-- R&#45;077 -->
<g id="node15" class="node">
<title>R&#45;077</title>
<polygon fill="mediumseagreen" stroke="black" points="1430,-820.59 1430,-838.41 1387.82,-851 1328.18,-851 1286,-838.41 1286,-820.59 1328.18,-808 1387.82,-808 1430,-820.59"/>
<text text-anchor="middle" x="1358" y="-827" font-family="Arial" font-size="10.00">R&#45;077</text>
</g>
<!-- C&#45;0534 -->
<g id="node18" class="node">
<title>C&#45;0534</title>
<ellipse fill="mediumseagreen" stroke="black" cx="1782" cy="-728.5" rx="72" ry="21.5"/>
<text text-anchor="middle" x="1782" y="-726" font-family="Arial" font-size="10.00">C&#45;0534</text>
</g>
<!-- R&#45;077&#45;&gt;C&#45;0534 -->
<g id="edge26" class="edge">
<title>R&#45;077&#45;&gt;C&#45;0534</title>
<path fill="none" stroke="#4d4d4d" d="M1417,-816.53C1417,-791.51 1417,-739 1417,-739 1417,-739 1711.84,-739 1711.84,-739"/>
<polygon fill="#4d4d4d" stroke="#4d4d4d" points="1711.84,-741.45 1718.84,-739 1711.84,-736.55 1711.84,-741.45"/>
</g>
<!-- C&#45;0959&#45;&gt;S&#45;1983 -->
<g id="edge40" class="edge">
<title>C&#45;0959&#45;&gt;S&#45;1983</title>
<path fill="none" stroke="#4d4d4d" d="M363.01,-735C258.48,-735 72,-735 72,-735 72,-735 72,-656.25 72,-656.25"/>
<polygon fill="#4d4d4d" stroke="#4d4d4d" points="74.45,-656.25 72,-649.25 69.55,-656.25 74.45,-656.25"/>
</g>
<!-- C&#45;0959&#45;&gt;S&#45;1982 -->
<g id="edge41" class="edge">
<title>C&#45;0959&#45;&gt;S&#45;1982</title>
<path fill="none" stroke="#4d4d4d" d="M364.46,-721C313.39,-721 252,-721 252,-721 252,-721 252,-656.19 252,-656.19"/>
<polygon fill="#4d4d4d" stroke="#4d4d4d" points="254.45,-656.19 252,-649.19 249.55,-656.19 254.45,-656.19"/>
</g>
<!-- S&#45;2485 -->
<g id="node25" class="node">
<title>S&#45;2485</title>
<polygon fill="mediumseagreen" stroke="black" points="432,-649 360,-627.5 432,-606 504,-627.5 432,-649"/>
<text text-anchor="middle" x="432" y="-625" font-family="Arial" font-size="10.00">S&#45;2485</text>
</g>
<!-- C&#45;0959&#45;&gt;S&#45;2485 -->
<g id="edge39" class="edge">
<title>C&#45;0959&#45;&gt;S&#45;2485</title>
<path fill="none" stroke="#4d4d4d" d="M432,-706.58C432,-706.58 432,-656.03 432,-656.03"/>
<polygon fill="#4d4d4d" stroke="#4d4d4d" points="434.45,-656.03 432,-649.03 429.55,-656.03 434.45,-656.03"/>
</g>
<!-- S&#45;1981 -->
<g id="node38" class="node">
<title>S&#45;1981</title>
<polygon fill="mediumseagreen" stroke="black" points="612,-649 540,-627.5 612,-606 684,-627.5 612,-649"/>
<text text-anchor="middle" x="612" y="-625" font-family="Arial" font-size="10.00">S&#45;1981</text>
</g>
<!-- C&#45;0959&#45;&gt;S&#45;1981 -->
<g id="edge38" class="edge">
<title>C&#45;0959&#45;&gt;S&#45;1981</title>
<path fill="none" stroke="#4d4d4d" d="M482.33,-713C535.78,-713 612.67,-713 612.67,-713 612.67,-713 612.67,-656.08 612.67,-656.08"/>
<polygon fill="#4d4d4d" stroke="#4d4d4d" points="615.12,-656.08 612.67,-649.08 610.22,-656.08 615.12,-656.08"/>
</g>
<!-- C&#45;0820 -->
<g id="node17" class="node">
<title>C&#45;0820</title>
<ellipse fill="tomato" stroke="black" cx="1269" cy="-324.5" rx="72" ry="21.5"/>
<text text-anchor="middle" x="1269" y="-322" font-family="Arial" font-size="10.00">C&#45;0820</text>
</g>
<!-- C&#45;0820&#45;&gt;C&#45;0821 -->
<g id="edge43" class="edge">
<title>C&#45;0820&#45;&gt;C&#45;0821</title>
<path fill="none" stroke="blue" stroke-dasharray="5,2" d="M1242,-344.82C1242,-412.64 1242,-627 1242,-627 1242,-627 1252.78,-627 1252.78,-627"/>
<polygon fill="blue" stroke="blue" points="1252.78,-629.45 1259.78,-627 1252.78,-624.55 1252.78,-629.45"/>
</g>
<!-- C&#45;0534&#45;&gt;S&#45;2467 -->
<g id="edge29" class="edge">
<title>C&#45;0534&#45;&gt;S&#45;2467</title>
<path fill="none" stroke="#4d4d4d" d="M1737,-711.37C1737,-711.37 1737,-651.38 1737,-651.38"/>
<polygon fill="#4d4d4d" stroke="#4d4d4d" points="1739.45,-651.38 1737,-644.38 1734.55,-651.38 1739.45,-651.38"/>
</g>
<!-- S&#45;2138 -->
<g id="node20" class="node">
<title>S&#45;2138</title>
<polygon fill="mediumseagreen" stroke="black" points="1872,-649 1800,-627.5 1872,-606 1944,-627.5 1872,-649"/>
<text text-anchor="middle" x="1872" y="-625" font-family="Arial" font-size="10.00">S&#45;2138</text>
</g>
<!-- C&#45;0534&#45;&gt;S&#45;2138 -->
<g id="edge30" class="edge">
<title>C&#45;0534&#45;&gt;S&#45;2138</title>
<path fill="none" stroke="#4d4d4d" d="M1827,-711.37C1827,-711.37 1827,-642.78 1827,-642.78"/>
<polygon fill="#4d4d4d" stroke="#4d4d4d" points="1829.45,-642.78 1827,-635.78 1824.55,-642.78 1829.45,-642.78"/>
</g>
<!-- S&#45;2133 -->
<g id="node27" class="node">
<title>S&#45;2133</title>
<polygon fill="mediumseagreen" stroke="black" points="2052,-649 1980,-627.5 2052,-606 2124,-627.5 2052,-649"/>
<text text-anchor="middle" x="2052" y="-625" font-family="Arial" font-size="10.00">S&#45;2133</text>
</g>
<!-- C&#45;0534&#45;&gt;S&#45;2133 -->
<g id="edge27" class="edge">
<title>C&#45;0534&#45;&gt;S&#45;2133</title>
<path fill="none" stroke="#4d4d4d" d="M1854.15,-728C1926.73,-728 2028,-728 2028,-728 2028,-728 2028,-648.9 2028,-648.9"/>
<polygon fill="#4d4d4d" stroke="#4d4d4d" points="2030.45,-648.9 2028,-641.9 2025.55,-648.9 2030.45,-648.9"/>
</g>
<!-- C&#45;0967 -->
<g id="node37" class="node">
<title>C&#45;0967</title>
<ellipse fill="tomato" stroke="black" cx="1705" cy="-425.5" rx="72" ry="21.5"/>
<text text-anchor="middle" x="1705" y="-423" font-family="Arial" font-size="10.00">C&#45;0967</text>
</g>
<!-- S&#45;2138&#45;&gt;C&#45;0967 -->
<g id="edge31" class="edge">
<title>S&#45;2138&#45;&gt;C&#45;0967</title>
<path fill="none" stroke="#4d4d4d" d="M1801.5,-627C1784.18,-627 1770.5,-627 1770.5,-627 1770.5,-627 1770.5,-441.68 1770.5,-441.68"/>
<polygon fill="#4d4d4d" stroke="#4d4d4d" points="1772.95,-441.68 1770.5,-434.68 1768.05,-441.68 1772.95,-441.68"/>
</g>
<!-- C&#45;0968 -->
<g id="node42" class="node">
<title>C&#45;0968</title>
<ellipse fill="mediumseagreen" stroke="black" cx="1872" cy="-526.5" rx="72" ry="21.5"/>
<text text-anchor="middle" x="1872" y="-524" font-family="Arial" font-size="10.00">C&#45;0968</text>
</g>
<!-- S&#45;2138&#45;&gt;C&#45;0968 -->
<g id="edge32" class="edge">
<title>S&#45;2138&#45;&gt;C&#45;0968</title>
<path fill="none" stroke="#4d4d4d" d="M1872,-605.58C1872,-605.58 1872,-555.03 1872,-555.03"/>
<polygon fill="#4d4d4d" stroke="#4d4d4d" points="1874.45,-555.03 1872,-548.03 1869.55,-555.03 1874.45,-555.03"/>
</g>
<!-- R&#45;109 -->
<g id="node21" class="node">
<title>R&#45;109</title>
<polygon fill="mediumseagreen" stroke="black" points="1224,-820.59 1224,-838.41 1181.82,-851 1122.18,-851 1080,-838.41 1080,-820.59 1122.18,-808 1181.82,-808 1224,-820.59"/>
<text text-anchor="middle" x="1152" y="-827" font-family="Arial" font-size="10.00">R&#45;109</text>
</g>
<!-- R&#45;109&#45;&gt;C&#45;0584 -->
<g id="edge5" class="edge">
<title>R&#45;109&#45;&gt;C&#45;0584</title>
<path fill="none" stroke="#4d4d4d" d="M1152,-807.58C1152,-807.58 1152,-757.03 1152,-757.03"/>
<polygon fill="#4d4d4d" stroke="#4d4d4d" points="1154.45,-757.03 1152,-750.03 1149.55,-757.03 1154.45,-757.03"/>
</g>
<!-- R&#45;175 -->
<g id="node40" class="node">
<title>R&#45;175</title>
<polygon fill="tomato" stroke="black" points="1643,-113.59 1643,-131.41 1600.82,-144 1541.18,-144 1499,-131.41 1499,-113.59 1541.18,-101 1600.82,-101 1643,-113.59"/>
<text text-anchor="middle" x="1571" y="-120" font-family="Arial" font-size="10.00">R&#45;175</text>
</g>
<!-- C&#45;0790&#45;&gt;R&#45;175 -->
<g id="edge19" class="edge">
<title>C&#45;0790&#45;&gt;R&#45;175</title>
<path fill="none" stroke="#4d4d4d" d="M1555,-202.08C1555,-202.08 1555,-151.24 1555,-151.24"/>
<polygon fill="#4d4d4d" stroke="#4d4d4d" points="1557.45,-151.24 1555,-144.24 1552.55,-151.24 1557.45,-151.24"/>
</g>
<!-- C&#45;0819&#45;&gt;C&#45;0309 -->
<g id="edge15" class="edge">
<title>C&#45;0819&#45;&gt;C&#45;0309</title>
<path fill="none" stroke="#4d4d4d" d="M1390.5,-412.71C1390.5,-412.71 1390.5,-344.19 1390.5,-344.19"/>
<polygon fill="#4d4d4d" stroke="#4d4d4d" points="1392.95,-344.19 1390.5,-337.19 1388.05,-344.19 1392.95,-344.19"/>
</g>
<!-- C&#45;0819&#45;&gt;C&#45;0820 -->
<g id="edge14" class="edge">
<title>C&#45;0819&#45;&gt;C&#45;0820</title>
<path fill="none" stroke="#4d4d4d" d="M1300.5,-406.03C1300.5,-406.03 1300.5,-350.91 1300.5,-350.91"/>
<polygon fill="#4d4d4d" stroke="#4d4d4d" points="1302.95,-350.91 1300.5,-343.91 1298.05,-350.91 1302.95,-350.91"/>
</g>
<!-- 114&#45;22&#45; -->
<g id="node24" class="node">
<title>114&#45;22&#45;</title>
<polygon fill="gold" stroke="black" points="1134,-1127.59 1134,-1145.41 1091.82,-1158 1032.18,-1158 990,-1145.41 990,-1127.59 1032.18,-1115 1091.82,-1115 1134,-1127.59"/>
<polygon fill="none" stroke="black" points="1138,-1124.61 1138,-1148.39 1092.41,-1162 1031.59,-1162 986,-1148.39 986,-1124.61 1031.59,-1111 1092.41,-1111 1138,-1124.61"/>
<text text-anchor="middle" x="1062" y="-1134" font-family="Arial" font-size="10.00">114&#45;22&#45;</text>
</g>
<!-- C&#45;0051 -->
<g id="node33" class="node">
<title>C&#45;0051</title>
<ellipse fill="mediumseagreen" stroke="black" cx="1062" cy="-1031.5" rx="72" ry="21.5"/>
<text text-anchor="middle" x="1062" y="-1029" font-family="Arial" font-size="10.00">C&#45;0051</text>
</g>
<!-- 114&#45;22&#45;&#45;&gt;C&#45;0051 -->
<g id="edge1" class="edge">
<title>114&#45;22&#45;&#45;&gt;C&#45;0051</title>
<path fill="none" stroke="#4d4d4d" d="M1062,-1110.81C1062,-1110.81 1062,-1060.03 1062,-1060.03"/>
<polygon fill="#4d4d4d" stroke="#4d4d4d" points="1064.45,-1060.03 1062,-1053.03 1059.55,-1060.03 1064.45,-1060.03"/>
</g>
<!-- C&#45;0957 -->
<g id="node26" class="node">
<title>C&#45;0957</title>
<ellipse fill="mediumseagreen" stroke="black" cx="792" cy="-930.5" rx="72" ry="21.5"/>
<text text-anchor="middle" x="792" y="-928" font-family="Arial" font-size="10.00">C&#45;0957</text>
</g>
<!-- C&#45;0957&#45;&gt;R&#45;226 -->
<g id="edge36" class="edge">
<title>C&#45;0957&#45;&gt;R&#45;226</title>
<path fill="none" stroke="#4d4d4d" d="M756.5,-911.5C756.5,-911.5 756.5,-856.45 756.5,-856.45"/>
<polygon fill="#4d4d4d" stroke="#4d4d4d" points="758.95,-856.45 756.5,-849.45 754.05,-856.45 758.95,-856.45"/>
</g>
<!-- S&#45;2133&#45;&gt;S&#45;2196 -->
<g id="edge28" class="edge">
<title>S&#45;2133&#45;&gt;S&#45;2196</title>
<path fill="none" stroke="#4d4d4d" d="M2052,-605.58C2052,-605.58 2052,-555.03 2052,-555.03"/>
<polygon fill="#4d4d4d" stroke="#4d4d4d" points="2054.45,-555.03 2052,-548.03 2049.55,-555.03 2054.45,-555.03"/>
</g>
<!-- S&#45;2232 -->
<g id="node28" class="node">
<title>S&#45;2232</title>
<polygon fill="mediumseagreen" stroke="black" points="1512,-548 1440,-526.5 1512,-505 1584,-526.5 1512,-548"/>
<text text-anchor="middle" x="1512" y="-524" font-family="Arial" font-size="10.00">S&#45;2232</text>
</g>
<!-- C&#45;0583 -->
<g id="node29" class="node">
<title>C&#45;0583</title>
<ellipse fill="tomato" stroke="black" cx="972" cy="-930.5" rx="72" ry="21.5"/>
<text text-anchor="middle" x="972" y="-928" font-family="Arial" font-size="10.00">C&#45;0583</text>
</g>
<!-- C&#45;0583&#45;&gt;C&#45;0584 -->
<g id="edge42" class="edge">
<title>C&#45;0583&#45;&gt;C&#45;0584</title>
<path fill="none" stroke="blue" stroke-dasharray="5,2" d="M948,-909.9C948,-858.93 948,-731 948,-731 948,-731 1073.36,-731 1073.36,-731"/>
<polygon fill="blue" stroke="blue" points="1073.36,-733.45 1080.36,-731 1073.36,-728.55 1073.36,-733.45"/>
</g>
<!-- C&#45;0585 -->
<g id="node30" class="node">
<title>C&#45;0585</title>
<ellipse fill="mediumseagreen" stroke="black" cx="1152" cy="-930.5" rx="72" ry="21.5"/>
<text text-anchor="middle" x="1152" y="-928" font-family="Arial" font-size="10.00">C&#45;0585</text>
</g>
<!-- C&#45;0585&#45;&gt;R&#45;109 -->
<g id="edge4" class="edge">
<title>C&#45;0585&#45;&gt;R&#45;109</title>
<path fill="none" stroke="#4d4d4d" d="M1152,-908.58C1152,-908.58 1152,-858.03 1152,-858.03"/>
<polygon fill="#4d4d4d" stroke="#4d4d4d" points="1154.45,-858.03 1152,-851.03 1149.55,-858.03 1154.45,-858.03"/>
</g>
<!-- R&#45;229 -->
<g id="node31" class="node">
<title>R&#45;229</title>
<polygon fill="tomato" stroke="black" points="1957,-416.59 1957,-434.41 1914.82,-447 1855.18,-447 1813,-434.41 1813,-416.59 1855.18,-404 1914.82,-404 1957,-416.59"/>
<text text-anchor="middle" x="1885" y="-423" font-family="Arial" font-size="10.00">R&#45;229</text>
</g>
<!-- ext_circ_109_23_ -->
<g id="node44" class="node">
<title>ext_circ_109_23_</title>
<polygon fill="lightpink" stroke="darkorange" stroke-dasharray="5,2" points="1867,-346 1723,-346 1723,-303 1867,-303 1867,-346"/>
<text text-anchor="middle" x="1795" y="-327.5" font-family="Arial" font-size="10.00">Circuito:</text>
<text text-anchor="middle" x="1795" y="-316.5" font-family="Arial" font-size="10.00">109&#45;23&#45;</text>
</g>
<!-- R&#45;229&#45;&gt;ext_circ_109_23_ -->
<g id="edge48" class="edge">
<title>R&#45;229&#45;&gt;ext_circ_109_23_</title>
<path fill="none" stroke="darkorange" stroke-dasharray="5,2" d="M1840,-408.37C1840,-408.37 1840,-353.31 1840,-353.31"/>
<polygon fill="darkorange" stroke="darkorange" points="1842.45,-353.31 1840,-346.31 1837.55,-353.31 1842.45,-353.31"/>
</g>
<!-- C&#45;0532 -->
<g id="node32" class="node">
<title>C&#45;0532</title>
<ellipse fill="mediumseagreen" stroke="black" cx="1332" cy="-930.5" rx="72" ry="21.5"/>
<text text-anchor="middle" x="1332" y="-928" font-family="Arial" font-size="10.00">C&#45;0532</text>
</g>
<!-- C&#45;0532&#45;&gt;R&#45;077 -->
<g id="edge25" class="edge">
<title>C&#45;0532&#45;&gt;R&#45;077</title>
<path fill="none" stroke="#4d4d4d" d="M1345,-909.08C1345,-909.08 1345,-858.24 1345,-858.24"/>
<polygon fill="#4d4d4d" stroke="#4d4d4d" points="1347.45,-858.24 1345,-851.24 1342.55,-858.24 1347.45,-858.24"/>
</g>
<!-- C&#45;0051&#45;&gt;C&#45;0958 -->
<g id="edge35" class="edge">
<title>C&#45;0051&#45;&gt;C&#45;0958</title>
<path fill="none" stroke="#4d4d4d" d="M993.16,-1038C867.11,-1038 612,-1038 612,-1038 612,-1038 612,-959.25 612,-959.25"/>
<polygon fill="#4d4d4d" stroke="#4d4d4d" points="614.45,-959.25 612,-952.25 609.55,-959.25 614.45,-959.25"/>
</g>
<!-- C&#45;0051&#45;&gt;C&#45;0957 -->
<g id="edge34" class="edge">
<title>C&#45;0051&#45;&gt;C&#45;0957</title>
<path fill="none" stroke="#4d4d4d" d="M994.22,-1024C914.24,-1024 792,-1024 792,-1024 792,-1024 792,-959.19 792,-959.19"/>
<polygon fill="#4d4d4d" stroke="#4d4d4d" points="794.45,-959.19 792,-952.19 789.55,-959.19 794.45,-959.19"/>
</g>
<!-- C&#45;0051&#45;&gt;C&#45;0583 -->
<g id="edge2" class="edge">
<title>C&#45;0051&#45;&gt;C&#45;0583</title>
<path fill="none" stroke="#4d4d4d" d="M1017,-1014.37C1017,-1014.37 1017,-954.38 1017,-954.38"/>
<polygon fill="#4d4d4d" stroke="#4d4d4d" points="1019.45,-954.38 1017,-947.38 1014.55,-954.38 1019.45,-954.38"/>
</g>
<!-- C&#45;0051&#45;&gt;C&#45;0585 -->
<g id="edge3" class="edge">
<title>C&#45;0051&#45;&gt;C&#45;0585</title>
<path fill="none" stroke="#4d4d4d" d="M1107,-1014.37C1107,-1014.37 1107,-954.38 1107,-954.38"/>
<polygon fill="#4d4d4d" stroke="#4d4d4d" points="1109.45,-954.38 1107,-947.38 1104.55,-954.38 1109.45,-954.38"/>
</g>
<!-- C&#45;0051&#45;&gt;C&#45;0532 -->
<g id="edge23" class="edge">
<title>C&#45;0051&#45;&gt;C&#45;0532</title>
<path fill="none" stroke="#4d4d4d" d="M1129.78,-1024C1209.76,-1024 1332,-1024 1332,-1024 1332,-1024 1332,-959.19 1332,-959.19"/>
<polygon fill="#4d4d4d" stroke="#4d4d4d" points="1334.45,-959.19 1332,-952.19 1329.55,-959.19 1334.45,-959.19"/>
</g>
<!-- C&#45;0533 -->
<g id="node36" class="node">
<title>C&#45;0533</title>
<ellipse fill="tomato" stroke="black" cx="1512" cy="-930.5" rx="72" ry="21.5"/>
<text text-anchor="middle" x="1512" y="-928" font-family="Arial" font-size="10.00">C&#45;0533</text>
</g>
<!-- C&#45;0051&#45;&gt;C&#45;0533 -->
<g id="edge24" class="edge">
<title>C&#45;0051&#45;&gt;C&#45;0533</title>
<path fill="none" stroke="#4d4d4d" d="M1130.84,-1038C1256.89,-1038 1512,-1038 1512,-1038 1512,-1038 1512,-959.25 1512,-959.25"/>
<polygon fill="#4d4d4d" stroke="#4d4d4d" points="1514.45,-959.25 1512,-952.25 1509.55,-959.25 1514.45,-959.25"/>
</g>
<!-- C&#45;0821&#45;&gt;R&#45;184 -->
<g id="edge12" class="edge">
<title>C&#45;0821&#45;&gt;R&#45;184</title>
<path fill="none" stroke="#4d4d4d" d="M1332,-605.58C1332,-605.58 1332,-555.03 1332,-555.03"/>
<polygon fill="#4d4d4d" stroke="#4d4d4d" points="1334.45,-555.03 1332,-548.03 1329.55,-555.03 1334.45,-555.03"/>
</g>
<!-- C&#45;0533&#45;&gt;S&#45;2133 -->
<g id="edge46" class="edge">
<title>C&#45;0533&#45;&gt;S&#45;2133</title>
<path fill="none" stroke="blue" stroke-dasharray="5,2" d="M1584,-930C1736.05,-930 2076,-930 2076,-930 2076,-930 2076,-649.09 2076,-649.09"/>
<polygon fill="blue" stroke="blue" points="2078.45,-649.09 2076,-642.09 2073.55,-649.09 2078.45,-649.09"/>
</g>
<!-- C&#45;0967&#45;&gt;ext_circ_109_23_ -->
<g id="edge47" class="edge">
<title>C&#45;0967&#45;&gt;ext_circ_109_23_</title>
<path fill="none" stroke="darkorange" stroke-dasharray="5,2" d="M1750,-408.37C1750,-408.37 1750,-353.31 1750,-353.31"/>
<polygon fill="darkorange" stroke="darkorange" points="1752.45,-353.31 1750,-346.31 1747.55,-353.31 1752.45,-353.31"/>
</g>
<!-- S&#45;2156&#45;&gt;S&#45;2232 -->
<g id="edge7" class="edge">
<title>S&#45;2156&#45;&gt;S&#45;2232</title>
<path fill="none" stroke="#4d4d4d" d="M1512,-605.58C1512,-605.58 1512,-555.03 1512,-555.03"/>
<polygon fill="#4d4d4d" stroke="#4d4d4d" points="1514.45,-555.03 1512,-548.03 1509.55,-555.03 1514.45,-555.03"/>
</g>
<!-- ext_circ_109_20_ -->
<g id="node43" class="node">
<title>ext_circ_109_20_</title>
<polygon fill="lightpink" stroke="darkorange" stroke-dasharray="5,2" points="1764,-43 1620,-43 1620,0 1764,0 1764,-43"/>
<text text-anchor="middle" x="1692" y="-24.5" font-family="Arial" font-size="10.00">Circuito:</text>
<text text-anchor="middle" x="1692" y="-13.5" font-family="Arial" font-size="10.00">109&#45;20&#45;</text>
</g>
<!-- R&#45;175&#45;&gt;ext_circ_109_20_ -->
<g id="edge44" class="edge">
<title>R&#45;175&#45;&gt;ext_circ_109_20_</title>
<path fill="none" stroke="darkorange" stroke-dasharray="5,2" d="M1631.5,-110.12C1631.5,-110.12 1631.5,-50.2 1631.5,-50.2"/>
<polygon fill="darkorange" stroke="darkorange" points="1633.95,-50.2 1631.5,-43.2 1629.05,-50.2 1633.95,-50.2"/>
</g>
<!-- C&#45;0789&#45;&gt;ext_circ_109_20_ -->
<g id="edge45" class="edge">
<title>C&#45;0789&#45;&gt;ext_circ_109_20_</title>
<path fill="none" stroke="darkorange" stroke-dasharray="5,2" d="M1753,-110.91C1753,-110.91 1753,-50.19 1753,-50.19"/>
<polygon fill="darkorange" stroke="darkorange" points="1755.45,-50.19 1753,-43.19 1750.55,-50.19 1755.45,-50.19"/>
</g>
<!-- C&#45;0968&#45;&gt;R&#45;229 -->
<g id="edge33" class="edge">
<title>C&#45;0968&#45;&gt;R&#45;229</title>
<path fill="none" stroke="#4d4d4d" d="M1878.5,-505.08C1878.5,-505.08 1878.5,-454.24 1878.5,-454.24"/>
<polygon fill="#4d4d4d" stroke="#4d4d4d" points="1880.95,-454.24 1878.5,-447.24 1876.05,-454.24 1880.95,-454.24"/>
</g>
</g>
</svg>
