<?xml version="1.0" encoding="UTF-8" standalone="no"?>
<!DOCTYPE svg PUBLIC "-//W3C//DTD SVG 1.1//EN"
 "http://www.w3.org/Graphics/SVG/1.1/DTD/svg11.dtd">
<!-- Generated by graphviz version 2.50.0 (0)
 -->
<!-- Title: Grafo_Circuito_206_25_ Pages: 1 -->
<svg width="2754pt" height="1675pt"
 viewBox="0.00 0.00 2754.00 1675.00" xmlns="http://www.w3.org/2000/svg" xmlns:xlink="http://www.w3.org/1999/xlink">
<g id="graph0" class="graph" transform="scale(1 1) rotate(0) translate(4 1671)">
<title>Grafo_Circuito_206_25_</title>
<polygon fill="white" stroke="transparent" points="-4,4 -4,-1671 2750,-1671 2750,4 -4,4"/>
<!-- S&#45;209 -->
<g id="node1" class="node">
<title>S&#45;209</title>
<polygon fill="mediumseagreen" stroke="black" points="72,-952 0,-930.5 72,-909 144,-930.5 72,-952"/>
<text text-anchor="middle" x="72" y="-928" font-family="Arial" font-size="10.00">S&#45;209</text>
</g>
<!-- S&#45;2449 -->
<g id="node2" class="node">
<title>S&#45;2449</title>
<polygon fill="mediumseagreen" stroke="black" points="252,-952 180,-930.5 252,-909 324,-930.5 252,-952"/>
<text text-anchor="middle" x="252" y="-928" font-family="Arial" font-size="10.00">S&#45;2449</text>
</g>
<!-- S&#45;1177 -->
<g id="node3" class="node">
<title>S&#45;1177</title>
<polygon fill="mediumseagreen" stroke="black" points="1575,-1053 1503,-1031.5 1575,-1010 1647,-1031.5 1575,-1053"/>
<text text-anchor="middle" x="1575" y="-1029" font-family="Arial" font-size="10.00">S&#45;1177</text>
</g>
<!-- S&#45;1970 -->
<g id="node4" class="node">
<title>S&#45;1970</title>
<polygon fill="mediumseagreen" stroke="black" points="735,-1255 663,-1233.5 735,-1212 807,-1233.5 735,-1255"/>
<text text-anchor="middle" x="735" y="-1231" font-family="Arial" font-size="10.00">S&#45;1970</text>
</g>
<!-- C&#45;1176 -->
<g id="node5" class="node">
<title>C&#45;1176</title>
<ellipse fill="mediumseagreen" stroke="black" cx="1692" cy="-930.5" rx="72" ry="21.5"/>
<text text-anchor="middle" x="1692" y="-928" font-family="Arial" font-size="10.00">C&#45;1176</text>
</g>
<!-- R&#45;082 -->
<g id="node35" class="node">
<title>R&#45;082</title>
<polygon fill="tomato" stroke="black" points="1711,-820.59 1711,-838.41 1668.82,-851 1609.18,-851 1567,-838.41 1567,-820.59 1609.18,-808 1668.82,-808 1711,-820.59"/>
<text text-anchor="middle" x="1639" y="-827" font-family="Arial" font-size="10.00">R&#45;082</text>
</g>
<!-- C&#45;1176&#45;&gt;R&#45;082 -->
<g id="edge16" class="edge">
<title>C&#45;1176&#45;&gt;R&#45;082</title>
<path fill="none" stroke="#4d4d4d" d="M1665.5,-910.06C1665.5,-910.06 1665.5,-858.31 1665.5,-858.31"/>
<polygon fill="#4d4d4d" stroke="#4d4d4d" points="1667.95,-858.31 1665.5,-851.31 1663.05,-858.31 1667.95,-858.31"/>
</g>
<!-- S&#45;488 -->
<g id="node6" class="node">
<title>S&#45;488</title>
<polygon fill="mediumseagreen" stroke="black" points="1755,-1053 1683,-1031.5 1755,-1010 1827,-1031.5 1755,-1053"/>
<text text-anchor="middle" x="1755" y="-1029" font-family="Arial" font-size="10.00">S&#45;488</text>
</g>
<!-- S&#45;488&#45;&gt;C&#45;1176 -->
<g id="edge14" class="edge">
<title>S&#45;488&#45;&gt;C&#45;1176</title>
<path fill="none" stroke="#4d4d4d" d="M1723.5,-1019.12C1723.5,-1019.12 1723.5,-956.91 1723.5,-956.91"/>
<polygon fill="#4d4d4d" stroke="#4d4d4d" points="1725.95,-956.91 1723.5,-949.91 1721.05,-956.91 1725.95,-956.91"/>
</g>
<!-- C&#45;1175 -->
<g id="node27" class="node">
<title>C&#45;1175</title>
<ellipse fill="tomato" stroke="black" cx="1819" cy="-829.5" rx="72" ry="21.5"/>
<text text-anchor="middle" x="1819" y="-827" font-family="Arial" font-size="10.00">C&#45;1175</text>
</g>
<!-- S&#45;488&#45;&gt;C&#45;1175 -->
<g id="edge15" class="edge">
<title>S&#45;488&#45;&gt;C&#45;1175</title>
<path fill="none" stroke="#4d4d4d" d="M1785,-1018.86C1785,-1018.86 1785,-855.68 1785,-855.68"/>
<polygon fill="#4d4d4d" stroke="#4d4d4d" points="1787.45,-855.68 1785,-848.68 1782.55,-855.68 1787.45,-855.68"/>
</g>
<!-- S&#45;1286 -->
<g id="node57" class="node">
<title>S&#45;1286</title>
<polygon fill="mediumseagreen" stroke="black" points="1999,-952 1927,-930.5 1999,-909 2071,-930.5 1999,-952"/>
<text text-anchor="middle" x="1999" y="-928" font-family="Arial" font-size="10.00">S&#45;1286</text>
</g>
<!-- S&#45;488&#45;&gt;S&#45;1286 -->
<g id="edge17" class="edge">
<title>S&#45;488&#45;&gt;S&#45;1286</title>
<path fill="none" stroke="#4d4d4d" d="M1806,-1025.15C1806,-1002.93 1806,-930 1806,-930 1806,-930 1921.5,-930 1921.5,-930"/>
<polygon fill="#4d4d4d" stroke="#4d4d4d" points="1921.5,-932.45 1928.5,-930 1921.5,-927.55 1921.5,-932.45"/>
</g>
<!-- 206&#45;25&#45; -->
<g id="node7" class="node">
<title>206&#45;25&#45;</title>
<polygon fill="gold" stroke="black" points="1077,-1632.59 1077,-1650.41 1034.82,-1663 975.18,-1663 933,-1650.41 933,-1632.59 975.18,-1620 1034.82,-1620 1077,-1632.59"/>
<polygon fill="none" stroke="black" points="1081,-1629.61 1081,-1653.39 1035.41,-1667 974.59,-1667 929,-1653.39 929,-1629.61 974.59,-1616 1035.41,-1616 1081,-1629.61"/>
<text text-anchor="middle" x="1005" y="-1639" font-family="Arial" font-size="10.00">206&#45;25&#45;</text>
</g>
<!-- C&#45;0014 -->
<g id="node41" class="node">
<title>C&#45;0014</title>
<ellipse fill="mediumseagreen" stroke="black" cx="1005" cy="-1536.5" rx="72" ry="21.5"/>
<text text-anchor="middle" x="1005" y="-1534" font-family="Arial" font-size="10.00">C&#45;0014</text>
</g>
<!-- 206&#45;25&#45;&#45;&gt;C&#45;0014 -->
<g id="edge1" class="edge">
<title>206&#45;25&#45;&#45;&gt;C&#45;0014</title>
<path fill="none" stroke="#4d4d4d" d="M1005,-1615.81C1005,-1615.81 1005,-1565.03 1005,-1565.03"/>
<polygon fill="#4d4d4d" stroke="#4d4d4d" points="1007.45,-1565.03 1005,-1558.03 1002.55,-1565.03 1007.45,-1565.03"/>
</g>
<!-- S&#45;1969 -->
<g id="node8" class="node">
<title>S&#45;1969</title>
<polygon fill="mediumseagreen" stroke="black" points="432,-952 360,-930.5 432,-909 504,-930.5 432,-952"/>
<text text-anchor="middle" x="432" y="-928" font-family="Arial" font-size="10.00">S&#45;1969</text>
</g>
<!-- S&#45;1425 -->
<g id="node9" class="node">
<title>S&#45;1425</title>
<polygon fill="mediumseagreen" stroke="black" points="825,-1356 753,-1334.5 825,-1313 897,-1334.5 825,-1356"/>
<text text-anchor="middle" x="825" y="-1332" font-family="Arial" font-size="10.00">S&#45;1425</text>
</g>
<!-- S&#45;2031 -->
<g id="node10" class="node">
<title>S&#45;2031</title>
<polygon fill="mediumseagreen" stroke="black" points="1095,-1053 1023,-1031.5 1095,-1010 1167,-1031.5 1095,-1053"/>
<text text-anchor="middle" x="1095" y="-1029" font-family="Arial" font-size="10.00">S&#45;2031</text>
</g>
<!-- S&#45;2546 -->
<g id="node11" class="node">
<title>S&#45;2546</title>
<polygon fill="mediumseagreen" stroke="black" points="612,-952 540,-930.5 612,-909 684,-930.5 612,-952"/>
<text text-anchor="middle" x="612" y="-928" font-family="Arial" font-size="10.00">S&#45;2546</text>
</g>
<!-- S&#45;2292 -->
<g id="node12" class="node">
<title>S&#45;2292</title>
<polygon fill="mediumseagreen" stroke="black" points="1095,-1154 1023,-1132.5 1095,-1111 1167,-1132.5 1095,-1154"/>
<text text-anchor="middle" x="1095" y="-1130" font-family="Arial" font-size="10.00">S&#45;2292</text>
</g>
<!-- S&#45;2292&#45;&gt;S&#45;2031 -->
<g id="edge46" class="edge">
<title>S&#45;2292&#45;&gt;S&#45;2031</title>
<path fill="none" stroke="#4d4d4d" d="M1095,-1110.58C1095,-1110.58 1095,-1060.03 1095,-1060.03"/>
<polygon fill="#4d4d4d" stroke="#4d4d4d" points="1097.45,-1060.03 1095,-1053.03 1092.55,-1060.03 1097.45,-1060.03"/>
</g>
<!-- C&#45;0347 -->
<g id="node13" class="node">
<title>C&#45;0347</title>
<ellipse fill="mediumseagreen" stroke="black" cx="1764" cy="-324.5" rx="72" ry="21.5"/>
<text text-anchor="middle" x="1764" y="-322" font-family="Arial" font-size="10.00">C&#45;0347</text>
</g>
<!-- S&#45;1304 -->
<g id="node16" class="node">
<title>S&#45;1304</title>
<polygon fill="mediumseagreen" stroke="black" points="1520,-245 1448,-223.5 1520,-202 1592,-223.5 1520,-245"/>
<text text-anchor="middle" x="1520" y="-221" font-family="Arial" font-size="10.00">S&#45;1304</text>
</g>
<!-- C&#45;0347&#45;&gt;S&#45;1304 -->
<g id="edge29" class="edge">
<title>C&#45;0347&#45;&gt;S&#45;1304</title>
<path fill="none" stroke="#4d4d4d" d="M1691.87,-324C1640.13,-324 1579.5,-324 1579.5,-324 1579.5,-324 1579.5,-234.32 1579.5,-234.32"/>
<polygon fill="#4d4d4d" stroke="#4d4d4d" points="1581.95,-234.32 1579.5,-227.32 1577.05,-234.32 1581.95,-234.32"/>
</g>
<!-- C&#45;1130 -->
<g id="node45" class="node">
<title>C&#45;1130</title>
<ellipse fill="mediumseagreen" stroke="black" cx="1700" cy="-223.5" rx="72" ry="21.5"/>
<text text-anchor="middle" x="1700" y="-221" font-family="Arial" font-size="10.00">C&#45;1130</text>
</g>
<!-- C&#45;0347&#45;&gt;C&#45;1130 -->
<g id="edge32" class="edge">
<title>C&#45;0347&#45;&gt;C&#45;1130</title>
<path fill="none" stroke="#4d4d4d" d="M1732,-305.03C1732,-305.03 1732,-249.91 1732,-249.91"/>
<polygon fill="#4d4d4d" stroke="#4d4d4d" points="1734.45,-249.91 1732,-242.91 1729.55,-249.91 1734.45,-249.91"/>
</g>
<!-- C&#45;0059 -->
<g id="node47" class="node">
<title>C&#45;0059</title>
<ellipse fill="tomato" stroke="black" cx="1880" cy="-122.5" rx="72" ry="21.5"/>
<text text-anchor="middle" x="1880" y="-120" font-family="Arial" font-size="10.00">C&#45;0059</text>
</g>
<!-- C&#45;0347&#45;&gt;C&#45;0059 -->
<g id="edge34" class="edge">
<title>C&#45;0347&#45;&gt;C&#45;0059</title>
<path fill="none" stroke="#4d4d4d" d="M1822,-311.56C1822,-311.56 1822,-142.34 1822,-142.34"/>
<polygon fill="#4d4d4d" stroke="#4d4d4d" points="1824.45,-142.34 1822,-135.34 1819.55,-142.34 1824.45,-142.34"/>
</g>
<!-- S&#45;1620 -->
<g id="node14" class="node">
<title>S&#45;1620</title>
<polygon fill="mediumseagreen" stroke="black" points="2044,-750 1972,-728.5 2044,-707 2116,-728.5 2044,-750"/>
<text text-anchor="middle" x="2044" y="-726" font-family="Arial" font-size="10.00">S&#45;1620</text>
</g>
<!-- S&#45;678 -->
<g id="node15" class="node">
<title>S&#45;678</title>
<polygon fill="mediumseagreen" stroke="black" points="1520,-144 1448,-122.5 1520,-101 1592,-122.5 1520,-144"/>
<text text-anchor="middle" x="1520" y="-120" font-family="Arial" font-size="10.00">S&#45;678</text>
</g>
<!-- S&#45;2034 -->
<g id="node56" class="node">
<title>S&#45;2034</title>
<polygon fill="mediumseagreen" stroke="black" points="1520,-43 1448,-21.5 1520,0 1592,-21.5 1520,-43"/>
<text text-anchor="middle" x="1520" y="-19" font-family="Arial" font-size="10.00">S&#45;2034</text>
</g>
<!-- S&#45;678&#45;&gt;S&#45;2034 -->
<g id="edge31" class="edge">
<title>S&#45;678&#45;&gt;S&#45;2034</title>
<path fill="none" stroke="#4d4d4d" d="M1520,-100.58C1520,-100.58 1520,-50.03 1520,-50.03"/>
<polygon fill="#4d4d4d" stroke="#4d4d4d" points="1522.45,-50.03 1520,-43.03 1517.55,-50.03 1522.45,-50.03"/>
</g>
<!-- S&#45;1304&#45;&gt;S&#45;678 -->
<g id="edge30" class="edge">
<title>S&#45;1304&#45;&gt;S&#45;678</title>
<path fill="none" stroke="#4d4d4d" d="M1520,-201.58C1520,-201.58 1520,-151.03 1520,-151.03"/>
<polygon fill="#4d4d4d" stroke="#4d4d4d" points="1522.45,-151.03 1520,-144.03 1517.55,-151.03 1522.45,-151.03"/>
</g>
<!-- S&#45;2358 -->
<g id="node17" class="node">
<title>S&#45;2358</title>
<polygon fill="mediumseagreen" stroke="black" points="1999,-851 1927,-829.5 1999,-808 2071,-829.5 1999,-851"/>
<text text-anchor="middle" x="1999" y="-827" font-family="Arial" font-size="10.00">S&#45;2358</text>
</g>
<!-- S&#45;2413 -->
<g id="node18" class="node">
<title>S&#45;2413</title>
<polygon fill="mediumseagreen" stroke="black" points="792,-952 720,-930.5 792,-909 864,-930.5 792,-952"/>
<text text-anchor="middle" x="792" y="-928" font-family="Arial" font-size="10.00">S&#45;2413</text>
</g>
<!-- C&#45;0578 -->
<g id="node19" class="node">
<title>C&#45;0578</title>
<ellipse fill="mediumseagreen" stroke="black" cx="2224" cy="-627.5" rx="72" ry="21.5"/>
<text text-anchor="middle" x="2224" y="-625" font-family="Arial" font-size="10.00">C&#45;0578</text>
</g>
<!-- R&#45;107 -->
<g id="node34" class="node">
<title>R&#45;107</title>
<polygon fill="mediumseagreen" stroke="black" points="2296,-517.59 2296,-535.41 2253.82,-548 2194.18,-548 2152,-535.41 2152,-517.59 2194.18,-505 2253.82,-505 2296,-517.59"/>
<text text-anchor="middle" x="2224" y="-524" font-family="Arial" font-size="10.00">R&#45;107</text>
</g>
<!-- C&#45;0578&#45;&gt;R&#45;107 -->
<g id="edge25" class="edge">
<title>C&#45;0578&#45;&gt;R&#45;107</title>
<path fill="none" stroke="#4d4d4d" d="M2224,-605.58C2224,-605.58 2224,-555.03 2224,-555.03"/>
<polygon fill="#4d4d4d" stroke="#4d4d4d" points="2226.45,-555.03 2224,-548.03 2221.55,-555.03 2226.45,-555.03"/>
</g>
<!-- S&#45;509 -->
<g id="node20" class="node">
<title>S&#45;509</title>
<polygon fill="mediumseagreen" stroke="black" points="1005,-1356 933,-1334.5 1005,-1313 1077,-1334.5 1005,-1356"/>
<text text-anchor="middle" x="1005" y="-1332" font-family="Arial" font-size="10.00">S&#45;509</text>
</g>
<!-- S&#45;508 -->
<g id="node21" class="node">
<title>S&#45;508</title>
<polygon fill="mediumseagreen" stroke="black" points="1005,-1457 933,-1435.5 1005,-1414 1077,-1435.5 1005,-1457"/>
<text text-anchor="middle" x="1005" y="-1433" font-family="Arial" font-size="10.00">S&#45;508</text>
</g>
<!-- S&#45;508&#45;&gt;S&#45;1425 -->
<g id="edge3" class="edge">
<title>S&#45;508&#45;&gt;S&#45;1425</title>
<path fill="none" stroke="#4d4d4d" d="M934.63,-1435C884.15,-1435 825,-1435 825,-1435 825,-1435 825,-1363.31 825,-1363.31"/>
<polygon fill="#4d4d4d" stroke="#4d4d4d" points="827.45,-1363.31 825,-1356.31 822.55,-1363.31 827.45,-1363.31"/>
</g>
<!-- S&#45;508&#45;&gt;S&#45;509 -->
<g id="edge4" class="edge">
<title>S&#45;508&#45;&gt;S&#45;509</title>
<path fill="none" stroke="#4d4d4d" d="M1005,-1413.58C1005,-1413.58 1005,-1363.03 1005,-1363.03"/>
<polygon fill="#4d4d4d" stroke="#4d4d4d" points="1007.45,-1363.03 1005,-1356.03 1002.55,-1363.03 1007.45,-1363.03"/>
</g>
<!-- S&#45;516 -->
<g id="node54" class="node">
<title>S&#45;516</title>
<polygon fill="mediumseagreen" stroke="black" points="1185,-1356 1113,-1334.5 1185,-1313 1257,-1334.5 1185,-1356"/>
<text text-anchor="middle" x="1185" y="-1332" font-family="Arial" font-size="10.00">S&#45;516</text>
</g>
<!-- S&#45;508&#45;&gt;S&#45;516 -->
<g id="edge5" class="edge">
<title>S&#45;508&#45;&gt;S&#45;516</title>
<path fill="none" stroke="#4d4d4d" d="M1075.37,-1435C1125.85,-1435 1185,-1435 1185,-1435 1185,-1435 1185,-1363.31 1185,-1363.31"/>
<polygon fill="#4d4d4d" stroke="#4d4d4d" points="1187.45,-1363.31 1185,-1356.31 1182.55,-1363.31 1187.45,-1363.31"/>
</g>
<!-- S&#45;910 -->
<g id="node22" class="node">
<title>S&#45;910</title>
<polygon fill="mediumseagreen" stroke="black" points="2179,-851 2107,-829.5 2179,-808 2251,-829.5 2179,-851"/>
<text text-anchor="middle" x="2179" y="-827" font-family="Arial" font-size="10.00">S&#45;910</text>
</g>
<!-- S&#45;910&#45;&gt;S&#45;1620 -->
<g id="edge20" class="edge">
<title>S&#45;910&#45;&gt;S&#45;1620</title>
<path fill="none" stroke="#4d4d4d" d="M2111.5,-828.07C2111.5,-828.07 2111.5,-737.02 2111.5,-737.02"/>
<polygon fill="#4d4d4d" stroke="#4d4d4d" points="2113.95,-737.02 2111.5,-730.02 2109.05,-737.02 2113.95,-737.02"/>
</g>
<!-- S&#45;513 -->
<g id="node31" class="node">
<title>S&#45;513</title>
<polygon fill="mediumseagreen" stroke="black" points="2224,-750 2152,-728.5 2224,-707 2296,-728.5 2224,-750"/>
<text text-anchor="middle" x="2224" y="-726" font-family="Arial" font-size="10.00">S&#45;513</text>
</g>
<!-- S&#45;910&#45;&gt;S&#45;513 -->
<g id="edge21" class="edge">
<title>S&#45;910&#45;&gt;S&#45;513</title>
<path fill="none" stroke="#4d4d4d" d="M2201.5,-814.6C2201.5,-814.6 2201.5,-750.46 2201.5,-750.46"/>
<polygon fill="#4d4d4d" stroke="#4d4d4d" points="2203.95,-750.46 2201.5,-743.46 2199.05,-750.46 2203.95,-750.46"/>
</g>
<!-- S&#45;2029 -->
<g id="node23" class="node">
<title>S&#45;2029</title>
<polygon fill="mediumseagreen" stroke="black" points="1455,-1154 1383,-1132.5 1455,-1111 1527,-1132.5 1455,-1154"/>
<text text-anchor="middle" x="1455" y="-1130" font-family="Arial" font-size="10.00">S&#45;2029</text>
</g>
<!-- C&#45;0348 -->
<g id="node24" class="node">
<title>C&#45;0348</title>
<ellipse fill="mediumseagreen" stroke="black" cx="2224" cy="-324.5" rx="72" ry="21.5"/>
<text text-anchor="middle" x="2224" y="-322" font-family="Arial" font-size="10.00">C&#45;0348</text>
</g>
<!-- S&#45;1869 -->
<g id="node26" class="node">
<title>S&#45;1869</title>
<polygon fill="mediumseagreen" stroke="black" points="1954,-245 1882,-223.5 1954,-202 2026,-223.5 1954,-245"/>
<text text-anchor="middle" x="1954" y="-221" font-family="Arial" font-size="10.00">S&#45;1869</text>
</g>
<!-- C&#45;0348&#45;&gt;S&#45;1869 -->
<g id="edge40" class="edge">
<title>C&#45;0348&#45;&gt;S&#45;1869</title>
<path fill="none" stroke="#4d4d4d" d="M2151.88,-324C2086.07,-324 1999,-324 1999,-324 1999,-324 1999,-238.72 1999,-238.72"/>
<polygon fill="#4d4d4d" stroke="#4d4d4d" points="2001.45,-238.72 1999,-231.72 1996.55,-238.72 2001.45,-238.72"/>
</g>
<!-- S&#45;1432 -->
<g id="node28" class="node">
<title>S&#45;1432</title>
<polygon fill="mediumseagreen" stroke="black" points="2134,-245 2062,-223.5 2134,-202 2206,-223.5 2134,-245"/>
<text text-anchor="middle" x="2134" y="-221" font-family="Arial" font-size="10.00">S&#45;1432</text>
</g>
<!-- C&#45;0348&#45;&gt;S&#45;1432 -->
<g id="edge37" class="edge">
<title>C&#45;0348&#45;&gt;S&#45;1432</title>
<path fill="none" stroke="#4d4d4d" d="M2179,-307.37C2179,-307.37 2179,-238.78 2179,-238.78"/>
<polygon fill="#4d4d4d" stroke="#4d4d4d" points="2181.45,-238.78 2179,-231.78 2176.55,-238.78 2181.45,-238.78"/>
</g>
<!-- S&#45;1305 -->
<g id="node38" class="node">
<title>S&#45;1305</title>
<polygon fill="mediumseagreen" stroke="black" points="2314,-245 2242,-223.5 2314,-202 2386,-223.5 2314,-245"/>
<text text-anchor="middle" x="2314" y="-221" font-family="Arial" font-size="10.00">S&#45;1305</text>
</g>
<!-- C&#45;0348&#45;&gt;S&#45;1305 -->
<g id="edge36" class="edge">
<title>C&#45;0348&#45;&gt;S&#45;1305</title>
<path fill="none" stroke="#4d4d4d" d="M2255.5,-305.03C2255.5,-305.03 2255.5,-234.74 2255.5,-234.74"/>
<polygon fill="#4d4d4d" stroke="#4d4d4d" points="2257.95,-234.74 2255.5,-227.74 2253.05,-234.74 2257.95,-234.74"/>
</g>
<!-- S&#45;527 -->
<g id="node46" class="node">
<title>S&#45;527</title>
<polygon fill="mediumseagreen" stroke="black" points="2494,-245 2422,-223.5 2494,-202 2566,-223.5 2494,-245"/>
<text text-anchor="middle" x="2494" y="-221" font-family="Arial" font-size="10.00">S&#45;527</text>
</g>
<!-- C&#45;0348&#45;&gt;S&#45;527 -->
<g id="edge38" class="edge">
<title>C&#45;0348&#45;&gt;S&#45;527</title>
<path fill="none" stroke="#4d4d4d" d="M2269,-307.65C2269,-289.75 2269,-264 2269,-264 2269,-264 2449,-264 2449,-264 2449,-264 2449,-238.7 2449,-238.7"/>
<polygon fill="#4d4d4d" stroke="#4d4d4d" points="2451.45,-238.7 2449,-231.7 2446.55,-238.7 2451.45,-238.7"/>
</g>
<!-- C&#45;0067 -->
<g id="node58" class="node">
<title>C&#45;0067</title>
<ellipse fill="tomato" stroke="black" cx="2674" cy="-223.5" rx="72" ry="21.5"/>
<text text-anchor="middle" x="2674" y="-221" font-family="Arial" font-size="10.00">C&#45;0067</text>
</g>
<!-- C&#45;0348&#45;&gt;C&#45;0067 -->
<g id="edge39" class="edge">
<title>C&#45;0348&#45;&gt;C&#45;0067</title>
<path fill="none" stroke="#4d4d4d" d="M2282.5,-311.82C2282.5,-299.62 2282.5,-283 2282.5,-283 2282.5,-283 2674,-283 2674,-283 2674,-283 2674,-252.32 2674,-252.32"/>
<polygon fill="#4d4d4d" stroke="#4d4d4d" points="2676.45,-252.32 2674,-245.32 2671.55,-252.32 2676.45,-252.32"/>
</g>
<!-- R&#45;218 -->
<g id="node25" class="node">
<title>R&#45;218</title>
<polygon fill="mediumseagreen" stroke="black" points="874,-1123.59 874,-1141.41 831.82,-1154 772.18,-1154 730,-1141.41 730,-1123.59 772.18,-1111 831.82,-1111 874,-1123.59"/>
<text text-anchor="middle" x="802" y="-1130" font-family="Arial" font-size="10.00">R&#45;218</text>
</g>
<!-- C&#45;0928 -->
<g id="node48" class="node">
<title>C&#45;0928</title>
<ellipse fill="mediumseagreen" stroke="black" cx="795" cy="-1031.5" rx="72" ry="21.5"/>
<text text-anchor="middle" x="795" y="-1029" font-family="Arial" font-size="10.00">C&#45;0928</text>
</g>
<!-- R&#45;218&#45;&gt;C&#45;0928 -->
<g id="edge49" class="edge">
<title>R&#45;218&#45;&gt;C&#45;0928</title>
<path fill="none" stroke="#4d4d4d" d="M798.5,-1110.58C798.5,-1110.58 798.5,-1060.03 798.5,-1060.03"/>
<polygon fill="#4d4d4d" stroke="#4d4d4d" points="800.95,-1060.03 798.5,-1053.03 796.05,-1060.03 800.95,-1060.03"/>
</g>
<!-- ext_circ_205_23_ -->
<g id="node60" class="node">
<title>ext_circ_205_23_</title>
<polygon fill="lightpink" stroke="darkorange" stroke-dasharray="5,2" points="1846,-750 1702,-750 1702,-707 1846,-707 1846,-750"/>
<text text-anchor="middle" x="1774" y="-731.5" font-family="Arial" font-size="10.00">Circuito:</text>
<text text-anchor="middle" x="1774" y="-720.5" font-family="Arial" font-size="10.00">205&#45;23&#45;</text>
</g>
<!-- C&#45;1175&#45;&gt;ext_circ_205_23_ -->
<g id="edge59" class="edge">
<title>C&#45;1175&#45;&gt;ext_circ_205_23_</title>
<path fill="none" stroke="darkorange" stroke-dasharray="5,2" d="M1796.5,-809.06C1796.5,-809.06 1796.5,-757.31 1796.5,-757.31"/>
<polygon fill="darkorange" stroke="darkorange" points="1798.95,-757.31 1796.5,-750.31 1794.05,-757.31 1798.95,-757.31"/>
</g>
<!-- S&#45;1375 -->
<g id="node29" class="node">
<title>S&#45;1375</title>
<polygon fill="mediumseagreen" stroke="black" points="915,-1255 843,-1233.5 915,-1212 987,-1233.5 915,-1255"/>
<text text-anchor="middle" x="915" y="-1231" font-family="Arial" font-size="10.00">S&#45;1375</text>
</g>
<!-- S&#45;511 -->
<g id="node30" class="node">
<title>S&#45;511</title>
<polygon fill="mediumseagreen" stroke="black" points="1935,-1053 1863,-1031.5 1935,-1010 2007,-1031.5 1935,-1053"/>
<text text-anchor="middle" x="1935" y="-1029" font-family="Arial" font-size="10.00">S&#45;511</text>
</g>
<!-- S&#45;513&#45;&gt;C&#45;0578 -->
<g id="edge23" class="edge">
<title>S&#45;513&#45;&gt;C&#45;0578</title>
<path fill="none" stroke="#4d4d4d" d="M2224,-706.58C2224,-706.58 2224,-656.03 2224,-656.03"/>
<polygon fill="#4d4d4d" stroke="#4d4d4d" points="2226.45,-656.03 2224,-649.03 2221.55,-656.03 2226.45,-656.03"/>
</g>
<!-- C&#45;0577 -->
<g id="node32" class="node">
<title>C&#45;0577</title>
<ellipse fill="tomato" stroke="black" cx="2404" cy="-627.5" rx="72" ry="21.5"/>
<text text-anchor="middle" x="2404" y="-625" font-family="Arial" font-size="10.00">C&#45;0577</text>
</g>
<!-- S&#45;513&#45;&gt;C&#45;0577 -->
<g id="edge24" class="edge">
<title>S&#45;513&#45;&gt;C&#45;0577</title>
<path fill="none" stroke="#4d4d4d" d="M2294.37,-728C2344.85,-728 2404,-728 2404,-728 2404,-728 2404,-656.31 2404,-656.31"/>
<polygon fill="#4d4d4d" stroke="#4d4d4d" points="2406.45,-656.31 2404,-649.31 2401.55,-656.31 2406.45,-656.31"/>
</g>
<!-- C&#45;0352 -->
<g id="node36" class="node">
<title>C&#45;0352</title>
<ellipse fill="tomato" stroke="black" cx="2044" cy="-627.5" rx="72" ry="21.5"/>
<text text-anchor="middle" x="2044" y="-625" font-family="Arial" font-size="10.00">C&#45;0352</text>
</g>
<!-- S&#45;513&#45;&gt;C&#45;0352 -->
<g id="edge22" class="edge">
<title>S&#45;513&#45;&gt;C&#45;0352</title>
<path fill="none" stroke="#4d4d4d" d="M2153.53,-728C2142.14,-728 2134,-728 2134,-728 2134,-728 2134,-627 2134,-627 2134,-627 2123.22,-627 2123.22,-627"/>
<polygon fill="#4d4d4d" stroke="#4d4d4d" points="2123.22,-624.55 2116.22,-627 2123.22,-629.45 2123.22,-624.55"/>
</g>
<!-- C&#45;0579 -->
<g id="node43" class="node">
<title>C&#45;0579</title>
<ellipse fill="mediumseagreen" stroke="black" cx="2224" cy="-425.5" rx="72" ry="21.5"/>
<text text-anchor="middle" x="2224" y="-423" font-family="Arial" font-size="10.00">C&#45;0579</text>
</g>
<!-- C&#45;0577&#45;&gt;C&#45;0579 -->
<g id="edge62" class="edge">
<title>C&#45;0577&#45;&gt;C&#45;0579</title>
<path fill="none" stroke="blue" stroke-dasharray="5,2" d="M2380,-606.95C2380,-556.75 2380,-432 2380,-432 2380,-432 2299.88,-432 2299.88,-432"/>
<polygon fill="blue" stroke="blue" points="2299.88,-429.55 2292.88,-432 2299.88,-434.45 2299.88,-429.55"/>
</g>
<!-- C&#45;0926 -->
<g id="node33" class="node">
<title>C&#45;0926</title>
<ellipse fill="mediumseagreen" stroke="black" cx="1095" cy="-1233.5" rx="72" ry="21.5"/>
<text text-anchor="middle" x="1095" y="-1231" font-family="Arial" font-size="10.00">C&#45;0926</text>
</g>
<!-- C&#45;0926&#45;&gt;R&#45;218 -->
<g id="edge48" class="edge">
<title>C&#45;0926&#45;&gt;R&#45;218</title>
<path fill="none" stroke="#4d4d4d" d="M1027.28,-1226C1011.4,-1226 999,-1226 999,-1226 999,-1226 999,-1132 999,-1132 999,-1132 881.24,-1132 881.24,-1132"/>
<polygon fill="#4d4d4d" stroke="#4d4d4d" points="881.24,-1129.55 874.24,-1132 881.24,-1134.45 881.24,-1129.55"/>
</g>
<!-- R&#45;107&#45;&gt;C&#45;0579 -->
<g id="edge26" class="edge">
<title>R&#45;107&#45;&gt;C&#45;0579</title>
<path fill="none" stroke="#4d4d4d" d="M2224,-504.58C2224,-504.58 2224,-454.03 2224,-454.03"/>
<polygon fill="#4d4d4d" stroke="#4d4d4d" points="2226.45,-454.03 2224,-447.03 2221.55,-454.03 2226.45,-454.03"/>
</g>
<!-- R&#45;082&#45;&gt;ext_circ_205_23_ -->
<g id="edge60" class="edge">
<title>R&#45;082&#45;&gt;ext_circ_205_23_</title>
<path fill="none" stroke="darkorange" stroke-dasharray="5,2" d="M1706.5,-819.07C1706.5,-819.07 1706.5,-757.35 1706.5,-757.35"/>
<polygon fill="darkorange" stroke="darkorange" points="1708.95,-757.35 1706.5,-750.35 1704.05,-757.35 1708.95,-757.35"/>
</g>
<!-- C&#45;0352&#45;&gt;S&#45;2413 -->
<g id="edge61" class="edge">
<title>C&#45;0352&#45;&gt;S&#45;2413</title>
<path fill="none" stroke="blue" stroke-dasharray="5,2" d="M1971.73,-627C1705.11,-627 792,-627 792,-627 792,-627 792,-901.67 792,-901.67"/>
<polygon fill="blue" stroke="blue" points="789.55,-901.67 792,-908.67 794.45,-901.67 789.55,-901.67"/>
</g>
<!-- S&#45;854 -->
<g id="node37" class="node">
<title>S&#45;854</title>
<polygon fill="mediumseagreen" stroke="black" points="2115,-1053 2043,-1031.5 2115,-1010 2187,-1031.5 2115,-1053"/>
<text text-anchor="middle" x="2115" y="-1029" font-family="Arial" font-size="10.00">S&#45;854</text>
</g>
<!-- S&#45;2030 -->
<g id="node39" class="node">
<title>S&#45;2030</title>
<polygon fill="mediumseagreen" stroke="black" points="1275,-1255 1203,-1233.5 1275,-1212 1347,-1233.5 1275,-1255"/>
<text text-anchor="middle" x="1275" y="-1231" font-family="Arial" font-size="10.00">S&#45;2030</text>
</g>
<!-- S&#45;2030&#45;&gt;S&#45;2292 -->
<g id="edge45" class="edge">
<title>S&#45;2030&#45;&gt;S&#45;2292</title>
<path fill="none" stroke="#4d4d4d" d="M1204.53,-1233C1193.14,-1233 1185,-1233 1185,-1233 1185,-1233 1185,-1132 1185,-1132 1185,-1132 1172.47,-1132 1172.47,-1132"/>
<polygon fill="#4d4d4d" stroke="#4d4d4d" points="1172.47,-1129.55 1165.47,-1132 1172.47,-1134.45 1172.47,-1129.55"/>
</g>
<!-- S&#45;587 -->
<g id="node51" class="node">
<title>S&#45;587</title>
<polygon fill="mediumseagreen" stroke="black" points="1275,-1154 1203,-1132.5 1275,-1111 1347,-1132.5 1275,-1154"/>
<text text-anchor="middle" x="1275" y="-1130" font-family="Arial" font-size="10.00">S&#45;587</text>
</g>
<!-- S&#45;2030&#45;&gt;S&#45;587 -->
<g id="edge44" class="edge">
<title>S&#45;2030&#45;&gt;S&#45;587</title>
<path fill="none" stroke="#4d4d4d" d="M1275,-1211.58C1275,-1211.58 1275,-1161.03 1275,-1161.03"/>
<polygon fill="#4d4d4d" stroke="#4d4d4d" points="1277.45,-1161.03 1275,-1154.03 1272.55,-1161.03 1277.45,-1161.03"/>
</g>
<!-- R&#45;283 -->
<g id="node40" class="node">
<title>R&#45;283</title>
<polygon fill="tomato" stroke="black" points="1772,-113.59 1772,-131.41 1729.82,-144 1670.18,-144 1628,-131.41 1628,-113.59 1670.18,-101 1729.82,-101 1772,-113.59"/>
<text text-anchor="middle" x="1700" y="-120" font-family="Arial" font-size="10.00">R&#45;283</text>
</g>
<!-- ext_circ_205_25_ -->
<g id="node61" class="node">
<title>ext_circ_205_25_</title>
<polygon fill="lightpink" stroke="darkorange" stroke-dasharray="5,2" points="1862,-43 1718,-43 1718,0 1862,0 1862,-43"/>
<text text-anchor="middle" x="1790" y="-24.5" font-family="Arial" font-size="10.00">Circuito:</text>
<text text-anchor="middle" x="1790" y="-13.5" font-family="Arial" font-size="10.00">205&#45;25&#45;</text>
</g>
<!-- R&#45;283&#45;&gt;ext_circ_205_25_ -->
<g id="edge63" class="edge">
<title>R&#45;283&#45;&gt;ext_circ_205_25_</title>
<path fill="none" stroke="darkorange" stroke-dasharray="5,2" d="M1745,-105.37C1745,-105.37 1745,-50.31 1745,-50.31"/>
<polygon fill="darkorange" stroke="darkorange" points="1747.45,-50.31 1745,-43.31 1742.55,-50.31 1747.45,-50.31"/>
</g>
<!-- C&#45;0014&#45;&gt;S&#45;508 -->
<g id="edge2" class="edge">
<title>C&#45;0014&#45;&gt;S&#45;508</title>
<path fill="none" stroke="#4d4d4d" d="M1005,-1514.58C1005,-1514.58 1005,-1464.03 1005,-1464.03"/>
<polygon fill="#4d4d4d" stroke="#4d4d4d" points="1007.45,-1464.03 1005,-1457.03 1002.55,-1464.03 1007.45,-1464.03"/>
</g>
<!-- S&#45;596 -->
<g id="node42" class="node">
<title>S&#45;596</title>
<polygon fill="mediumseagreen" stroke="black" points="1455,-1255 1383,-1233.5 1455,-1212 1527,-1233.5 1455,-1255"/>
<text text-anchor="middle" x="1455" y="-1231" font-family="Arial" font-size="10.00">S&#45;596</text>
</g>
<!-- S&#45;596&#45;&gt;S&#45;2029 -->
<g id="edge7" class="edge">
<title>S&#45;596&#45;&gt;S&#45;2029</title>
<path fill="none" stroke="#4d4d4d" d="M1455,-1211.58C1455,-1211.58 1455,-1161.03 1455,-1161.03"/>
<polygon fill="#4d4d4d" stroke="#4d4d4d" points="1457.45,-1161.03 1455,-1154.03 1452.55,-1161.03 1457.45,-1161.03"/>
</g>
<!-- C&#45;0579&#45;&gt;C&#45;0347 -->
<g id="edge28" class="edge">
<title>C&#45;0579&#45;&gt;C&#45;0347</title>
<path fill="none" stroke="#4d4d4d" d="M2151.9,-425C2023.61,-425 1769,-425 1769,-425 1769,-425 1769,-353.31 1769,-353.31"/>
<polygon fill="#4d4d4d" stroke="#4d4d4d" points="1771.45,-353.31 1769,-346.31 1766.55,-353.31 1771.45,-353.31"/>
</g>
<!-- C&#45;0579&#45;&gt;C&#45;0348 -->
<g id="edge35" class="edge">
<title>C&#45;0579&#45;&gt;C&#45;0348</title>
<path fill="none" stroke="#4d4d4d" d="M2224,-403.58C2224,-403.58 2224,-353.03 2224,-353.03"/>
<polygon fill="#4d4d4d" stroke="#4d4d4d" points="2226.45,-353.03 2224,-346.03 2221.55,-353.03 2226.45,-353.03"/>
</g>
<!-- S&#45;368 -->
<g id="node55" class="node">
<title>S&#45;368</title>
<polygon fill="mediumseagreen" stroke="black" points="2404,-346 2332,-324.5 2404,-303 2476,-324.5 2404,-346"/>
<text text-anchor="middle" x="2404" y="-322" font-family="Arial" font-size="10.00">S&#45;368</text>
</g>
<!-- C&#45;0579&#45;&gt;S&#45;368 -->
<g id="edge27" class="edge">
<title>C&#45;0579&#45;&gt;S&#45;368</title>
<path fill="none" stroke="#4d4d4d" d="M2291.65,-418C2351.03,-418 2428,-418 2428,-418 2428,-418 2428,-346.11 2428,-346.11"/>
<polygon fill="#4d4d4d" stroke="#4d4d4d" points="2430.45,-346.11 2428,-339.11 2425.55,-346.11 2430.45,-346.11"/>
</g>
<!-- C&#45;0927 -->
<g id="node44" class="node">
<title>C&#45;0927</title>
<ellipse fill="tomato" stroke="black" cx="972" cy="-930.5" rx="72" ry="21.5"/>
<text text-anchor="middle" x="972" y="-928" font-family="Arial" font-size="10.00">C&#45;0927</text>
</g>
<!-- C&#45;0927&#45;&gt;C&#45;0926 -->
<g id="edge66" class="edge">
<title>C&#45;0927&#45;&gt;C&#45;0926</title>
<path fill="none" stroke="blue" stroke-dasharray="5,2" d="M1011,-948.93C1011,-1015.56 1011,-1240 1011,-1240 1011,-1240 1019.02,-1240 1019.02,-1240"/>
<polygon fill="blue" stroke="blue" points="1019.02,-1242.45 1026.02,-1240 1019.02,-1237.55 1019.02,-1242.45"/>
</g>
<!-- C&#45;1130&#45;&gt;R&#45;283 -->
<g id="edge33" class="edge">
<title>C&#45;1130&#45;&gt;R&#45;283</title>
<path fill="none" stroke="#4d4d4d" d="M1700,-201.58C1700,-201.58 1700,-151.03 1700,-151.03"/>
<polygon fill="#4d4d4d" stroke="#4d4d4d" points="1702.45,-151.03 1700,-144.03 1697.55,-151.03 1702.45,-151.03"/>
</g>
<!-- C&#45;0059&#45;&gt;ext_circ_205_25_ -->
<g id="edge64" class="edge">
<title>C&#45;0059&#45;&gt;ext_circ_205_25_</title>
<path fill="none" stroke="darkorange" stroke-dasharray="5,2" d="M1835,-105.37C1835,-105.37 1835,-50.31 1835,-50.31"/>
<polygon fill="darkorange" stroke="darkorange" points="1837.45,-50.31 1835,-43.31 1832.55,-50.31 1837.45,-50.31"/>
</g>
<!-- C&#45;0928&#45;&gt;S&#45;209 -->
<g id="edge55" class="edge">
<title>C&#45;0928&#45;&gt;S&#45;209</title>
<path fill="none" stroke="#4d4d4d" d="M736.14,-1044C563.74,-1044 72,-1044 72,-1044 72,-1044 72,-959.12 72,-959.12"/>
<polygon fill="#4d4d4d" stroke="#4d4d4d" points="74.45,-959.12 72,-952.12 69.55,-959.12 74.45,-959.12"/>
</g>
<!-- C&#45;0928&#45;&gt;S&#45;2449 -->
<g id="edge57" class="edge">
<title>C&#45;0928&#45;&gt;S&#45;2449</title>
<path fill="none" stroke="#4d4d4d" d="M723.73,-1035C576.42,-1035 252,-1035 252,-1035 252,-1035 252,-959.15 252,-959.15"/>
<polygon fill="#4d4d4d" stroke="#4d4d4d" points="254.45,-959.15 252,-952.15 249.55,-959.15 254.45,-959.15"/>
</g>
<!-- C&#45;0928&#45;&gt;S&#45;1969 -->
<g id="edge53" class="edge">
<title>C&#45;0928&#45;&gt;S&#45;1969</title>
<path fill="none" stroke="#4d4d4d" d="M724.58,-1027C619.02,-1027 432,-1027 432,-1027 432,-1027 432,-959.4 432,-959.4"/>
<polygon fill="#4d4d4d" stroke="#4d4d4d" points="434.45,-959.4 432,-952.4 429.55,-959.4 434.45,-959.4"/>
</g>
<!-- C&#45;0928&#45;&gt;S&#45;2546 -->
<g id="edge52" class="edge">
<title>C&#45;0928&#45;&gt;S&#45;2546</title>
<path fill="none" stroke="#4d4d4d" d="M738.87,-1018C707.04,-1018 673.5,-1018 673.5,-1018 673.5,-1018 673.5,-940.82 673.5,-940.82"/>
<polygon fill="#4d4d4d" stroke="#4d4d4d" points="675.95,-940.82 673.5,-933.82 671.05,-940.82 675.95,-940.82"/>
</g>
<!-- C&#45;0928&#45;&gt;S&#45;2413 -->
<g id="edge54" class="edge">
<title>C&#45;0928&#45;&gt;S&#45;2413</title>
<path fill="none" stroke="#4d4d4d" d="M751.2,-1014.37C751.2,-1014.37 751.2,-947.08 751.2,-947.08"/>
<polygon fill="#4d4d4d" stroke="#4d4d4d" points="753.65,-947.08 751.2,-940.08 748.75,-947.08 753.65,-947.08"/>
</g>
<!-- C&#45;0928&#45;&gt;C&#45;0927 -->
<g id="edge50" class="edge">
<title>C&#45;0928&#45;&gt;C&#45;0927</title>
<path fill="none" stroke="#4d4d4d" d="M867.07,-1031C904.91,-1031 943.5,-1031 943.5,-1031 943.5,-1031 943.5,-957.36 943.5,-957.36"/>
<polygon fill="#4d4d4d" stroke="#4d4d4d" points="945.95,-957.36 943.5,-950.36 941.05,-957.36 945.95,-957.36"/>
</g>
<!-- S&#45;2021 -->
<g id="node49" class="node">
<title>S&#45;2021</title>
<polygon fill="tomato" stroke="black" points="1152,-952 1080,-930.5 1152,-909 1224,-930.5 1152,-952"/>
<text text-anchor="middle" x="1152" y="-928" font-family="Arial" font-size="10.00">S&#45;2021</text>
</g>
<!-- C&#45;0928&#45;&gt;S&#45;2021 -->
<g id="edge58" class="edge">
<title>C&#45;0928&#45;&gt;S&#45;2021</title>
<path fill="none" stroke="#4d4d4d" d="M779.4,-1010.41C779.4,-991.27 779.4,-966 779.4,-966 779.4,-966 1123.5,-966 1123.5,-966 1123.5,-966 1123.5,-950.72 1123.5,-950.72"/>
<polygon fill="#4d4d4d" stroke="#4d4d4d" points="1125.95,-950.72 1123.5,-943.72 1121.05,-950.72 1125.95,-950.72"/>
</g>
<!-- S&#45;2038 -->
<g id="node52" class="node">
<title>S&#45;2038</title>
<polygon fill="mediumseagreen" stroke="black" points="1332,-952 1260,-930.5 1332,-909 1404,-930.5 1332,-952"/>
<text text-anchor="middle" x="1332" y="-928" font-family="Arial" font-size="10.00">S&#45;2038</text>
</g>
<!-- C&#45;0928&#45;&gt;S&#45;2038 -->
<g id="edge56" class="edge">
<title>C&#45;0928&#45;&gt;S&#45;2038</title>
<path fill="none" stroke="#4d4d4d" d="M807.6,-1010.08C807.6,-996.32 807.6,-981 807.6,-981 807.6,-981 1303.5,-981 1303.5,-981 1303.5,-981 1303.5,-950.51 1303.5,-950.51"/>
<polygon fill="#4d4d4d" stroke="#4d4d4d" points="1305.95,-950.5 1303.5,-943.51 1301.05,-950.51 1305.95,-950.5"/>
</g>
<!-- S&#45;510 -->
<g id="node53" class="node">
<title>S&#45;510</title>
<polygon fill="mediumseagreen" stroke="black" points="1512,-952 1440,-930.5 1512,-909 1584,-930.5 1512,-952"/>
<text text-anchor="middle" x="1512" y="-928" font-family="Arial" font-size="10.00">S&#45;510</text>
</g>
<!-- C&#45;0928&#45;&gt;S&#45;510 -->
<g id="edge51" class="edge">
<title>C&#45;0928&#45;&gt;S&#45;510</title>
<path fill="none" stroke="#4d4d4d" d="M835.8,-1013.68C835.8,-1004.41 835.8,-995 835.8,-995 835.8,-995 1471.5,-995 1471.5,-995 1471.5,-995 1471.5,-947.02 1471.5,-947.02"/>
<polygon fill="#4d4d4d" stroke="#4d4d4d" points="1473.95,-947.02 1471.5,-940.02 1469.05,-947.02 1473.95,-947.02"/>
</g>
<!-- ext_circ_206_22_ -->
<g id="node63" class="node">
<title>ext_circ_206_22_</title>
<polygon fill="lightpink" stroke="darkorange" stroke-dasharray="5,2" points="1224,-851 1080,-851 1080,-808 1224,-808 1224,-851"/>
<text text-anchor="middle" x="1152" y="-832.5" font-family="Arial" font-size="10.00">Circuito:</text>
<text text-anchor="middle" x="1152" y="-821.5" font-family="Arial" font-size="10.00">206&#45;22&#45;</text>
</g>
<!-- S&#45;2021&#45;&gt;ext_circ_206_22_ -->
<g id="edge67" class="edge">
<title>S&#45;2021&#45;&gt;ext_circ_206_22_</title>
<path fill="none" stroke="darkorange" stroke-dasharray="5,2" d="M1152,-908.58C1152,-908.58 1152,-858.03 1152,-858.03"/>
<polygon fill="darkorange" stroke="darkorange" points="1154.45,-858.03 1152,-851.03 1149.55,-858.03 1154.45,-858.03"/>
</g>
<!-- R&#45;049 -->
<g id="node50" class="node">
<title>R&#45;049</title>
<polygon fill="mediumseagreen" stroke="black" points="1827,-1123.59 1827,-1141.41 1784.82,-1154 1725.18,-1154 1683,-1141.41 1683,-1123.59 1725.18,-1111 1784.82,-1111 1827,-1123.59"/>
<text text-anchor="middle" x="1755" y="-1130" font-family="Arial" font-size="10.00">R&#45;049</text>
</g>
<!-- R&#45;049&#45;&gt;S&#45;1177 -->
<g id="edge42" class="edge">
<title>R&#45;049&#45;&gt;S&#45;1177</title>
<path fill="none" stroke="#4d4d4d" d="M1682.77,-1132C1657.36,-1132 1635,-1132 1635,-1132 1635,-1132 1635,-1042.32 1635,-1042.32"/>
<polygon fill="#4d4d4d" stroke="#4d4d4d" points="1637.45,-1042.32 1635,-1035.32 1632.55,-1042.32 1637.45,-1042.32"/>
</g>
<!-- R&#45;049&#45;&gt;S&#45;488 -->
<g id="edge13" class="edge">
<title>R&#45;049&#45;&gt;S&#45;488</title>
<path fill="none" stroke="#4d4d4d" d="M1755,-1110.58C1755,-1110.58 1755,-1060.03 1755,-1060.03"/>
<polygon fill="#4d4d4d" stroke="#4d4d4d" points="1757.45,-1060.03 1755,-1053.03 1752.55,-1060.03 1757.45,-1060.03"/>
</g>
<!-- R&#45;049&#45;&gt;S&#45;511 -->
<g id="edge12" class="edge">
<title>R&#45;049&#45;&gt;S&#45;511</title>
<path fill="none" stroke="#4d4d4d" d="M1827.18,-1125C1877.25,-1125 1935,-1125 1935,-1125 1935,-1125 1935,-1060.19 1935,-1060.19"/>
<polygon fill="#4d4d4d" stroke="#4d4d4d" points="1937.45,-1060.19 1935,-1053.19 1932.55,-1060.19 1937.45,-1060.19"/>
</g>
<!-- R&#45;049&#45;&gt;S&#45;854 -->
<g id="edge41" class="edge">
<title>R&#45;049&#45;&gt;S&#45;854</title>
<path fill="none" stroke="#4d4d4d" d="M1827.42,-1139C1932.54,-1139 2115,-1139 2115,-1139 2115,-1139 2115,-1060.25 2115,-1060.25"/>
<polygon fill="#4d4d4d" stroke="#4d4d4d" points="2117.45,-1060.25 2115,-1053.25 2112.55,-1060.25 2117.45,-1060.25"/>
</g>
<!-- S&#45;516&#45;&gt;S&#45;1970 -->
<g id="edge9" class="edge">
<title>S&#45;516&#45;&gt;S&#45;1970</title>
<path fill="none" stroke="#4d4d4d" d="M1126.5,-1330.37C1126.5,-1319.87 1126.5,-1293 1126.5,-1293 1126.5,-1293 780,-1293 780,-1293 780,-1293 780,-1248.77 780,-1248.77"/>
<polygon fill="#4d4d4d" stroke="#4d4d4d" points="782.45,-1248.77 780,-1241.77 777.55,-1248.77 782.45,-1248.77"/>
</g>
<!-- S&#45;516&#45;&gt;S&#45;1375 -->
<g id="edge8" class="edge">
<title>S&#45;516&#45;&gt;S&#45;1375</title>
<path fill="none" stroke="#4d4d4d" d="M1140,-1326.34C1140,-1309.83 1140,-1274 1140,-1274 1140,-1274 960,-1274 960,-1274 960,-1274 960,-1248.7 960,-1248.7"/>
<polygon fill="#4d4d4d" stroke="#4d4d4d" points="962.45,-1248.7 960,-1241.7 957.55,-1248.7 962.45,-1248.7"/>
</g>
<!-- S&#45;516&#45;&gt;C&#45;0926 -->
<g id="edge47" class="edge">
<title>S&#45;516&#45;&gt;C&#45;0926</title>
<path fill="none" stroke="#4d4d4d" d="M1153.5,-1322.12C1153.5,-1322.12 1153.5,-1253.3 1153.5,-1253.3"/>
<polygon fill="#4d4d4d" stroke="#4d4d4d" points="1155.95,-1253.3 1153.5,-1246.3 1151.05,-1253.3 1155.95,-1253.3"/>
</g>
<!-- S&#45;516&#45;&gt;S&#45;2030 -->
<g id="edge43" class="edge">
<title>S&#45;516&#45;&gt;S&#45;2030</title>
<path fill="none" stroke="#4d4d4d" d="M1230,-1326.23C1230,-1326.23 1230,-1248.6 1230,-1248.6"/>
<polygon fill="#4d4d4d" stroke="#4d4d4d" points="1232.45,-1248.6 1230,-1241.6 1227.55,-1248.6 1232.45,-1248.6"/>
</g>
<!-- S&#45;516&#45;&gt;S&#45;596 -->
<g id="edge6" class="edge">
<title>S&#45;516&#45;&gt;S&#45;596</title>
<path fill="none" stroke="#4d4d4d" d="M1232.03,-1327C1309.39,-1327 1455,-1327 1455,-1327 1455,-1327 1455,-1262.19 1455,-1262.19"/>
<polygon fill="#4d4d4d" stroke="#4d4d4d" points="1457.45,-1262.19 1455,-1255.19 1452.55,-1262.19 1457.45,-1262.19"/>
</g>
<!-- S&#45;515 -->
<g id="node59" class="node">
<title>S&#45;515</title>
<polygon fill="mediumseagreen" stroke="black" points="1695,-1255 1623,-1233.5 1695,-1212 1767,-1233.5 1695,-1255"/>
<text text-anchor="middle" x="1695" y="-1231" font-family="Arial" font-size="10.00">S&#45;515</text>
</g>
<!-- S&#45;516&#45;&gt;S&#45;515 -->
<g id="edge10" class="edge">
<title>S&#45;516&#45;&gt;S&#45;515</title>
<path fill="none" stroke="#4d4d4d" d="M1235.3,-1341C1363.96,-1341 1695,-1341 1695,-1341 1695,-1341 1695,-1262.25 1695,-1262.25"/>
<polygon fill="#4d4d4d" stroke="#4d4d4d" points="1697.45,-1262.25 1695,-1255.25 1692.55,-1262.25 1697.45,-1262.25"/>
</g>
<!-- S&#45;1286&#45;&gt;S&#45;2358 -->
<g id="edge18" class="edge">
<title>S&#45;1286&#45;&gt;S&#45;2358</title>
<path fill="none" stroke="#4d4d4d" d="M1999,-908.58C1999,-908.58 1999,-858.03 1999,-858.03"/>
<polygon fill="#4d4d4d" stroke="#4d4d4d" points="2001.45,-858.03 1999,-851.03 1996.55,-858.03 2001.45,-858.03"/>
</g>
<!-- S&#45;1286&#45;&gt;S&#45;910 -->
<g id="edge19" class="edge">
<title>S&#45;1286&#45;&gt;S&#45;910</title>
<path fill="none" stroke="#4d4d4d" d="M2069.53,-930C2107.65,-930 2147,-930 2147,-930 2147,-930 2147,-848.82 2147,-848.82"/>
<polygon fill="#4d4d4d" stroke="#4d4d4d" points="2149.45,-848.82 2147,-841.82 2144.55,-848.82 2149.45,-848.82"/>
</g>
<!-- ext_circ_206_23_ -->
<g id="node62" class="node">
<title>ext_circ_206_23_</title>
<polygon fill="lightpink" stroke="darkorange" stroke-dasharray="5,2" points="2746,-144 2602,-144 2602,-101 2746,-101 2746,-144"/>
<text text-anchor="middle" x="2674" y="-125.5" font-family="Arial" font-size="10.00">Circuito:</text>
<text text-anchor="middle" x="2674" y="-114.5" font-family="Arial" font-size="10.00">206&#45;23&#45;</text>
</g>
<!-- C&#45;0067&#45;&gt;ext_circ_206_23_ -->
<g id="edge65" class="edge">
<title>C&#45;0067&#45;&gt;ext_circ_206_23_</title>
<path fill="none" stroke="darkorange" stroke-dasharray="5,2" d="M2674,-201.58C2674,-201.58 2674,-151.03 2674,-151.03"/>
<polygon fill="darkorange" stroke="darkorange" points="2676.45,-151.03 2674,-144.03 2671.55,-151.03 2676.45,-151.03"/>
</g>
<!-- S&#45;515&#45;&gt;R&#45;049 -->
<g id="edge11" class="edge">
<title>S&#45;515&#45;&gt;R&#45;049</title>
<path fill="none" stroke="#4d4d4d" d="M1725,-1220.71C1725,-1220.71 1725,-1161.01 1725,-1161.01"/>
<polygon fill="#4d4d4d" stroke="#4d4d4d" points="1727.45,-1161.01 1725,-1154.01 1722.55,-1161.01 1727.45,-1161.01"/>
</g>
</g>
</svg>
