<?xml version="1.0" encoding="UTF-8" standalone="no"?>
<!DOCTYPE svg PUBLIC "-//W3C//DTD SVG 1.1//EN"
 "http://www.w3.org/Graphics/SVG/1.1/DTD/svg11.dtd">
<!-- Generated by graphviz version 2.50.0 (0)
 -->
<!-- Title: Grafo_Circuito_111_22_ Pages: 1 -->
<svg width="1069pt" height="1473pt"
 viewBox="0.00 0.00 1069.00 1473.00" xmlns="http://www.w3.org/2000/svg" xmlns:xlink="http://www.w3.org/1999/xlink">
<g id="graph0" class="graph" transform="scale(1 1) rotate(0) translate(4 1469)">
<title>Grafo_Circuito_111_22_</title>
<polygon fill="white" stroke="transparent" points="-4,4 -4,-1469 1065,-1469 1065,4 -4,4"/>
<!-- C&#45;0924 -->
<g id="node1" class="node">
<title>C&#45;0924</title>
<ellipse fill="tomato" stroke="black" cx="72" cy="-1233.5" rx="72" ry="21.5"/>
<text text-anchor="middle" x="72" y="-1231" font-family="Arial" font-size="10.00">C&#45;0924</text>
</g>
<!-- C&#45;0925 -->
<g id="node21" class="node">
<title>C&#45;0925</title>
<ellipse fill="mediumseagreen" stroke="black" cx="763" cy="-1031.5" rx="72" ry="21.5"/>
<text text-anchor="middle" x="763" y="-1029" font-family="Arial" font-size="10.00">C&#45;0925</text>
</g>
<!-- C&#45;0924&#45;&gt;C&#45;0925 -->
<g id="edge37" class="edge">
<title>C&#45;0924&#45;&gt;C&#45;0925</title>
<path fill="none" stroke="blue" stroke-dasharray="5,2" d="M102.5,-1214C102.5,-1173.09 102.5,-1082 102.5,-1082 102.5,-1082 739,-1082 739,-1082 739,-1082 739,-1059.04 739,-1059.04"/>
<polygon fill="blue" stroke="blue" points="741.45,-1059.04 739,-1052.04 736.55,-1059.04 741.45,-1059.04"/>
</g>
<!-- S&#45;2091 -->
<g id="node2" class="node">
<title>S&#45;2091</title>
<polygon fill="mediumseagreen" stroke="black" points="133,-750 61,-728.5 133,-707 205,-728.5 133,-750"/>
<text text-anchor="middle" x="133" y="-726" font-family="Arial" font-size="10.00">S&#45;2091</text>
</g>
<!-- S&#45;1878 -->
<g id="node3" class="node">
<title>S&#45;1878</title>
<polygon fill="mediumseagreen" stroke="black" points="611,-346 539,-324.5 611,-303 683,-324.5 611,-346"/>
<text text-anchor="middle" x="611" y="-322" font-family="Arial" font-size="10.00">S&#45;1878</text>
</g>
<!-- S&#45;1077 -->
<g id="node25" class="node">
<title>S&#45;1077</title>
<polygon fill="mediumseagreen" stroke="black" points="656,-245 584,-223.5 656,-202 728,-223.5 656,-245"/>
<text text-anchor="middle" x="656" y="-221" font-family="Arial" font-size="10.00">S&#45;1077</text>
</g>
<!-- S&#45;1878&#45;&gt;S&#45;1077 -->
<g id="edge29" class="edge">
<title>S&#45;1878&#45;&gt;S&#45;1077</title>
<path fill="none" stroke="#4d4d4d" d="M633.5,-309.6C633.5,-309.6 633.5,-245.46 633.5,-245.46"/>
<polygon fill="#4d4d4d" stroke="#4d4d4d" points="635.95,-245.46 633.5,-238.46 631.05,-245.46 635.95,-245.46"/>
</g>
<!-- C&#45;0490 -->
<g id="node4" class="node">
<title>C&#45;0490</title>
<ellipse fill="mediumseagreen" stroke="black" cx="717" cy="-728.5" rx="72" ry="21.5"/>
<text text-anchor="middle" x="717" y="-726" font-family="Arial" font-size="10.00">C&#45;0490</text>
</g>
<!-- C&#45;0801 -->
<g id="node8" class="node">
<title>C&#45;0801</title>
<ellipse fill="tomato" stroke="black" cx="632" cy="-526.5" rx="72" ry="21.5"/>
<text text-anchor="middle" x="632" y="-524" font-family="Arial" font-size="10.00">C&#45;0801</text>
</g>
<!-- C&#45;0490&#45;&gt;C&#45;0801 -->
<g id="edge31" class="edge">
<title>C&#45;0490&#45;&gt;C&#45;0801</title>
<path fill="none" stroke="#4d4d4d" d="M684.33,-709.13C684.33,-709.13 684.33,-548.32 684.33,-548.32"/>
<polygon fill="#4d4d4d" stroke="#4d4d4d" points="686.78,-548.32 684.33,-541.32 681.88,-548.32 686.78,-548.32"/>
</g>
<!-- C&#45;0121 -->
<g id="node10" class="node">
<title>C&#45;0121</title>
<ellipse fill="mediumseagreen" stroke="black" cx="792" cy="-627.5" rx="72" ry="21.5"/>
<text text-anchor="middle" x="792" y="-625" font-family="Arial" font-size="10.00">C&#45;0121</text>
</g>
<!-- C&#45;0490&#45;&gt;C&#45;0121 -->
<g id="edge22" class="edge">
<title>C&#45;0490&#45;&gt;C&#45;0121</title>
<path fill="none" stroke="#4d4d4d" d="M754.5,-709.98C754.5,-709.98 754.5,-652.91 754.5,-652.91"/>
<polygon fill="#4d4d4d" stroke="#4d4d4d" points="756.95,-652.91 754.5,-645.91 752.05,-652.91 756.95,-652.91"/>
</g>
<!-- C&#45;0800 -->
<g id="node33" class="node">
<title>C&#45;0800</title>
<ellipse fill="mediumseagreen" stroke="black" cx="514" cy="-627.5" rx="72" ry="21.5"/>
<text text-anchor="middle" x="514" y="-625" font-family="Arial" font-size="10.00">C&#45;0800</text>
</g>
<!-- C&#45;0490&#45;&gt;C&#45;0800 -->
<g id="edge32" class="edge">
<title>C&#45;0490&#45;&gt;C&#45;0800</title>
<path fill="none" stroke="#4d4d4d" d="M664.67,-713.52C664.67,-685.29 664.67,-627 664.67,-627 664.67,-627 593.24,-627 593.24,-627"/>
<polygon fill="#4d4d4d" stroke="#4d4d4d" points="593.24,-624.55 586.24,-627 593.24,-629.45 593.24,-624.55"/>
</g>
<!-- S&#45;2183 -->
<g id="node5" class="node">
<title>S&#45;2183</title>
<polygon fill="mediumseagreen" stroke="black" points="313,-750 241,-728.5 313,-707 385,-728.5 313,-750"/>
<text text-anchor="middle" x="313" y="-726" font-family="Arial" font-size="10.00">S&#45;2183</text>
</g>
<!-- S&#45;2430 -->
<g id="node18" class="node">
<title>S&#45;2430</title>
<polygon fill="mediumseagreen" stroke="black" points="313,-649 241,-627.5 313,-606 385,-627.5 313,-649"/>
<text text-anchor="middle" x="313" y="-625" font-family="Arial" font-size="10.00">S&#45;2430</text>
</g>
<!-- S&#45;2183&#45;&gt;S&#45;2430 -->
<g id="edge9" class="edge">
<title>S&#45;2183&#45;&gt;S&#45;2430</title>
<path fill="none" stroke="#4d4d4d" d="M313,-706.58C313,-706.58 313,-656.03 313,-656.03"/>
<polygon fill="#4d4d4d" stroke="#4d4d4d" points="315.45,-656.03 313,-649.03 310.55,-656.03 315.45,-656.03"/>
</g>
<!-- R&#45;178 -->
<g id="node6" class="node">
<title>R&#45;178</title>
<polygon fill="tomato" stroke="black" points="524,-517.59 524,-535.41 481.82,-548 422.18,-548 380,-535.41 380,-517.59 422.18,-505 481.82,-505 524,-517.59"/>
<text text-anchor="middle" x="452" y="-524" font-family="Arial" font-size="10.00">R&#45;178</text>
</g>
<!-- ext_circ_110_26_ -->
<g id="node40" class="node">
<title>ext_circ_110_26_</title>
<polygon fill="lightpink" stroke="darkorange" stroke-dasharray="5,2" points="550,-447 406,-447 406,-404 550,-404 550,-447"/>
<text text-anchor="middle" x="478" y="-428.5" font-family="Arial" font-size="10.00">Circuito:</text>
<text text-anchor="middle" x="478" y="-417.5" font-family="Arial" font-size="10.00">110&#45;26&#45;</text>
</g>
<!-- R&#45;178&#45;&gt;ext_circ_110_26_ -->
<g id="edge43" class="edge">
<title>R&#45;178&#45;&gt;ext_circ_110_26_</title>
<path fill="none" stroke="darkorange" stroke-dasharray="5,2" d="M465,-504.58C465,-504.58 465,-454.03 465,-454.03"/>
<polygon fill="darkorange" stroke="darkorange" points="467.45,-454.03 465,-447.03 462.55,-454.03 467.45,-454.03"/>
</g>
<!-- C&#45;0287 -->
<g id="node7" class="node">
<title>C&#45;0287</title>
<ellipse fill="tomato" stroke="black" cx="931" cy="-122.5" rx="72" ry="21.5"/>
<text text-anchor="middle" x="931" y="-120" font-family="Arial" font-size="10.00">C&#45;0287</text>
</g>
<!-- ext_circ_111_23_ -->
<g id="node39" class="node">
<title>ext_circ_111_23_</title>
<polygon fill="lightpink" stroke="darkorange" stroke-dasharray="5,2" points="881,-43 737,-43 737,0 881,0 881,-43"/>
<text text-anchor="middle" x="809" y="-24.5" font-family="Arial" font-size="10.00">Circuito:</text>
<text text-anchor="middle" x="809" y="-13.5" font-family="Arial" font-size="10.00">111&#45;23&#45;</text>
</g>
<!-- C&#45;0287&#45;&gt;ext_circ_111_23_ -->
<g id="edge44" class="edge">
<title>C&#45;0287&#45;&gt;ext_circ_111_23_</title>
<path fill="none" stroke="darkorange" stroke-dasharray="5,2" d="M870,-110.91C870,-110.91 870,-50.19 870,-50.19"/>
<polygon fill="darkorange" stroke="darkorange" points="872.45,-50.19 870,-43.19 867.55,-50.19 872.45,-50.19"/>
</g>
<!-- C&#45;0801&#45;&gt;ext_circ_110_26_ -->
<g id="edge42" class="edge">
<title>C&#45;0801&#45;&gt;ext_circ_110_26_</title>
<path fill="none" stroke="darkorange" stroke-dasharray="5,2" d="M560,-526C546.75,-526 537,-526 537,-526 537,-526 537,-454.31 537,-454.31"/>
<polygon fill="darkorange" stroke="darkorange" points="539.45,-454.31 537,-447.31 534.55,-454.31 539.45,-454.31"/>
</g>
<!-- S&#45;175 -->
<g id="node9" class="node">
<title>S&#45;175</title>
<polygon fill="mediumseagreen" stroke="black" points="252,-1255 180,-1233.5 252,-1212 324,-1233.5 252,-1255"/>
<text text-anchor="middle" x="252" y="-1231" font-family="Arial" font-size="10.00">S&#45;175</text>
</g>
<!-- S&#45;1768 -->
<g id="node11" class="node">
<title>S&#45;1768</title>
<polygon fill="mediumseagreen" stroke="black" points="812,-548 740,-526.5 812,-505 884,-526.5 812,-548"/>
<text text-anchor="middle" x="812" y="-524" font-family="Arial" font-size="10.00">S&#45;1768</text>
</g>
<!-- C&#45;0121&#45;&gt;S&#45;1768 -->
<g id="edge23" class="edge">
<title>C&#45;0121&#45;&gt;S&#45;1768</title>
<path fill="none" stroke="#4d4d4d" d="M802,-606.08C802,-606.08 802,-552.17 802,-552.17"/>
<polygon fill="#4d4d4d" stroke="#4d4d4d" points="804.45,-552.17 802,-545.17 799.55,-552.17 804.45,-552.17"/>
</g>
<!-- S&#45;1930 -->
<g id="node16" class="node">
<title>S&#45;1930</title>
<polygon fill="mediumseagreen" stroke="black" points="671,-447 599,-425.5 671,-404 743,-425.5 671,-447"/>
<text text-anchor="middle" x="671" y="-423" font-family="Arial" font-size="10.00">S&#45;1930</text>
</g>
<!-- S&#45;1768&#45;&gt;S&#45;1930 -->
<g id="edge27" class="edge">
<title>S&#45;1768&#45;&gt;S&#45;1930</title>
<path fill="none" stroke="#4d4d4d" d="M741.4,-526C734.5,-526 730,-526 730,-526 730,-526 730,-436.82 730,-436.82"/>
<polygon fill="#4d4d4d" stroke="#4d4d4d" points="732.45,-436.82 730,-429.82 727.55,-436.82 732.45,-436.82"/>
</g>
<!-- C&#45;0194 -->
<g id="node29" class="node">
<title>C&#45;0194</title>
<ellipse fill="tomato" stroke="black" cx="791" cy="-324.5" rx="72" ry="21.5"/>
<text text-anchor="middle" x="791" y="-322" font-family="Arial" font-size="10.00">C&#45;0194</text>
</g>
<!-- S&#45;1768&#45;&gt;C&#45;0194 -->
<g id="edge24" class="edge">
<title>S&#45;1768&#45;&gt;C&#45;0194</title>
<path fill="none" stroke="#4d4d4d" d="M803,-507.5C803,-507.5 803,-352.71 803,-352.71"/>
<polygon fill="#4d4d4d" stroke="#4d4d4d" points="805.45,-352.71 803,-345.71 800.55,-352.71 805.45,-352.71"/>
</g>
<!-- C&#45;1132 -->
<g id="node32" class="node">
<title>C&#45;1132</title>
<ellipse fill="mediumseagreen" stroke="black" cx="958" cy="-425.5" rx="72" ry="21.5"/>
<text text-anchor="middle" x="958" y="-423" font-family="Arial" font-size="10.00">C&#45;1132</text>
</g>
<!-- S&#45;1768&#45;&gt;C&#45;1132 -->
<g id="edge25" class="edge">
<title>S&#45;1768&#45;&gt;C&#45;1132</title>
<path fill="none" stroke="#4d4d4d" d="M873.5,-523.12C873.5,-505.51 873.5,-425 873.5,-425 873.5,-425 878.97,-425 878.97,-425"/>
<polygon fill="#4d4d4d" stroke="#4d4d4d" points="878.97,-427.45 885.97,-425 878.97,-422.55 878.97,-427.45"/>
</g>
<!-- S&#45;1150 -->
<g id="node12" class="node">
<title>S&#45;1150</title>
<polygon fill="mediumseagreen" stroke="black" points="223,-1053 151,-1031.5 223,-1010 295,-1031.5 223,-1053"/>
<text text-anchor="middle" x="223" y="-1029" font-family="Arial" font-size="10.00">S&#45;1150</text>
</g>
<!-- S&#45;1749 -->
<g id="node13" class="node">
<title>S&#45;1749</title>
<polygon fill="mediumseagreen" stroke="black" points="223,-952 151,-930.5 223,-909 295,-930.5 223,-952"/>
<text text-anchor="middle" x="223" y="-928" font-family="Arial" font-size="10.00">S&#45;1749</text>
</g>
<!-- S&#45;1150&#45;&gt;S&#45;1749 -->
<g id="edge5" class="edge">
<title>S&#45;1150&#45;&gt;S&#45;1749</title>
<path fill="none" stroke="#4d4d4d" d="M223,-1009.58C223,-1009.58 223,-959.03 223,-959.03"/>
<polygon fill="#4d4d4d" stroke="#4d4d4d" points="225.45,-959.03 223,-952.03 220.55,-959.03 225.45,-959.03"/>
</g>
<!-- S&#45;170 -->
<g id="node14" class="node">
<title>S&#45;170</title>
<polygon fill="mediumseagreen" stroke="black" points="223,-851 151,-829.5 223,-808 295,-829.5 223,-851"/>
<text text-anchor="middle" x="223" y="-827" font-family="Arial" font-size="10.00">S&#45;170</text>
</g>
<!-- S&#45;1749&#45;&gt;S&#45;170 -->
<g id="edge6" class="edge">
<title>S&#45;1749&#45;&gt;S&#45;170</title>
<path fill="none" stroke="#4d4d4d" d="M223,-908.58C223,-908.58 223,-858.03 223,-858.03"/>
<polygon fill="#4d4d4d" stroke="#4d4d4d" points="225.45,-858.03 223,-851.03 220.55,-858.03 225.45,-858.03"/>
</g>
<!-- S&#45;170&#45;&gt;S&#45;2091 -->
<g id="edge7" class="edge">
<title>S&#45;170&#45;&gt;S&#45;2091</title>
<path fill="none" stroke="#4d4d4d" d="M178,-821.23C178,-821.23 178,-743.6 178,-743.6"/>
<polygon fill="#4d4d4d" stroke="#4d4d4d" points="180.45,-743.6 178,-736.6 175.55,-743.6 180.45,-743.6"/>
</g>
<!-- S&#45;170&#45;&gt;S&#45;2183 -->
<g id="edge8" class="edge">
<title>S&#45;170&#45;&gt;S&#45;2183</title>
<path fill="none" stroke="#4d4d4d" d="M268,-821.23C268,-821.23 268,-743.6 268,-743.6"/>
<polygon fill="#4d4d4d" stroke="#4d4d4d" points="270.45,-743.6 268,-736.6 265.55,-743.6 270.45,-743.6"/>
</g>
<!-- S&#45;2137 -->
<g id="node15" class="node">
<title>S&#45;2137</title>
<polygon fill="mediumseagreen" stroke="black" points="403,-1154 331,-1132.5 403,-1111 475,-1132.5 403,-1154"/>
<text text-anchor="middle" x="403" y="-1130" font-family="Arial" font-size="10.00">S&#45;2137</text>
</g>
<!-- S&#45;1930&#45;&gt;S&#45;1878 -->
<g id="edge28" class="edge">
<title>S&#45;1930&#45;&gt;S&#45;1878</title>
<path fill="none" stroke="#4d4d4d" d="M641,-412.71C641,-412.71 641,-344.19 641,-344.19"/>
<polygon fill="#4d4d4d" stroke="#4d4d4d" points="643.45,-344.19 641,-337.19 638.55,-344.19 643.45,-344.19"/>
</g>
<!-- C&#45;0001 -->
<g id="node17" class="node">
<title>C&#45;0001</title>
<ellipse fill="tomato" stroke="black" cx="719" cy="-122.5" rx="72" ry="21.5"/>
<text text-anchor="middle" x="719" y="-120" font-family="Arial" font-size="10.00">C&#45;0001</text>
</g>
<!-- C&#45;0001&#45;&gt;ext_circ_111_23_ -->
<g id="edge41" class="edge">
<title>C&#45;0001&#45;&gt;ext_circ_111_23_</title>
<path fill="none" stroke="darkorange" stroke-dasharray="5,2" d="M764,-105.37C764,-105.37 764,-50.31 764,-50.31"/>
<polygon fill="darkorange" stroke="darkorange" points="766.45,-50.31 764,-43.31 761.55,-50.31 766.45,-50.31"/>
</g>
<!-- R&#45;217 -->
<g id="node19" class="node">
<title>R&#45;217</title>
<polygon fill="mediumseagreen" stroke="black" points="835,-1123.59 835,-1141.41 792.82,-1154 733.18,-1154 691,-1141.41 691,-1123.59 733.18,-1111 792.82,-1111 835,-1123.59"/>
<text text-anchor="middle" x="763" y="-1130" font-family="Arial" font-size="10.00">R&#45;217</text>
</g>
<!-- R&#45;217&#45;&gt;C&#45;0925 -->
<g id="edge16" class="edge">
<title>R&#45;217&#45;&gt;C&#45;0925</title>
<path fill="none" stroke="#4d4d4d" d="M787,-1110.58C787,-1110.58 787,-1059 787,-1059"/>
<polygon fill="#4d4d4d" stroke="#4d4d4d" points="789.45,-1059 787,-1052 784.55,-1059 789.45,-1059"/>
</g>
<!-- S&#45;1829 -->
<g id="node20" class="node">
<title>S&#45;1829</title>
<polygon fill="mediumseagreen" stroke="black" points="403,-952 331,-930.5 403,-909 475,-930.5 403,-952"/>
<text text-anchor="middle" x="403" y="-928" font-family="Arial" font-size="10.00">S&#45;1829</text>
</g>
<!-- C&#45;0925&#45;&gt;C&#45;0287 -->
<g id="edge34" class="edge">
<title>C&#45;0925&#45;&gt;C&#45;0287</title>
<path fill="none" stroke="#4d4d4d" d="M831.74,-1038C919.75,-1038 1061,-1038 1061,-1038 1061,-1038 1061,-122 1061,-122 1061,-122 1010.22,-122 1010.22,-122"/>
<polygon fill="#4d4d4d" stroke="#4d4d4d" points="1010.22,-119.55 1003.22,-122 1010.22,-124.45 1010.22,-119.55"/>
</g>
<!-- C&#45;0925&#45;&gt;S&#45;1829 -->
<g id="edge35" class="edge">
<title>C&#45;0925&#45;&gt;S&#45;1829</title>
<path fill="none" stroke="#4d4d4d" d="M694.01,-1038C589.48,-1038 403,-1038 403,-1038 403,-1038 403,-959.25 403,-959.25"/>
<polygon fill="#4d4d4d" stroke="#4d4d4d" points="405.45,-959.25 403,-952.25 400.55,-959.25 405.45,-959.25"/>
</g>
<!-- S&#45;173 -->
<g id="node22" class="node">
<title>S&#45;173</title>
<polygon fill="mediumseagreen" stroke="black" points="583,-952 511,-930.5 583,-909 655,-930.5 583,-952"/>
<text text-anchor="middle" x="583" y="-928" font-family="Arial" font-size="10.00">S&#45;173</text>
</g>
<!-- C&#45;0925&#45;&gt;S&#45;173 -->
<g id="edge17" class="edge">
<title>C&#45;0925&#45;&gt;S&#45;173</title>
<path fill="none" stroke="#4d4d4d" d="M695.46,-1024C644.39,-1024 583,-1024 583,-1024 583,-1024 583,-959.19 583,-959.19"/>
<polygon fill="#4d4d4d" stroke="#4d4d4d" points="585.45,-959.19 583,-952.19 580.55,-959.19 585.45,-959.19"/>
</g>
<!-- C&#45;0492 -->
<g id="node24" class="node">
<title>C&#45;0492</title>
<ellipse fill="tomato" stroke="black" cx="763" cy="-930.5" rx="72" ry="21.5"/>
<text text-anchor="middle" x="763" y="-928" font-family="Arial" font-size="10.00">C&#45;0492</text>
</g>
<!-- C&#45;0925&#45;&gt;C&#45;0492 -->
<g id="edge18" class="edge">
<title>C&#45;0925&#45;&gt;C&#45;0492</title>
<path fill="none" stroke="#4d4d4d" d="M763,-1009.58C763,-1009.58 763,-959.03 763,-959.03"/>
<polygon fill="#4d4d4d" stroke="#4d4d4d" points="765.45,-959.03 763,-952.03 760.55,-959.03 765.45,-959.03"/>
</g>
<!-- C&#45;0491 -->
<g id="node36" class="node">
<title>C&#45;0491</title>
<ellipse fill="mediumseagreen" stroke="black" cx="943" cy="-930.5" rx="72" ry="21.5"/>
<text text-anchor="middle" x="943" y="-928" font-family="Arial" font-size="10.00">C&#45;0491</text>
</g>
<!-- C&#45;0925&#45;&gt;C&#45;0491 -->
<g id="edge19" class="edge">
<title>C&#45;0925&#45;&gt;C&#45;0491</title>
<path fill="none" stroke="#4d4d4d" d="M830.54,-1024C881.61,-1024 943,-1024 943,-1024 943,-1024 943,-959.19 943,-959.19"/>
<polygon fill="#4d4d4d" stroke="#4d4d4d" points="945.45,-959.19 943,-952.19 940.55,-959.19 945.45,-959.19"/>
</g>
<!-- S&#45;1149 -->
<g id="node23" class="node">
<title>S&#45;1149</title>
<polygon fill="mediumseagreen" stroke="black" points="583,-1154 511,-1132.5 583,-1111 655,-1132.5 583,-1154"/>
<text text-anchor="middle" x="583" y="-1130" font-family="Arial" font-size="10.00">S&#45;1149</text>
</g>
<!-- C&#45;0492&#45;&gt;C&#45;0490 -->
<g id="edge38" class="edge">
<title>C&#45;0492&#45;&gt;C&#45;0490</title>
<path fill="none" stroke="blue" stroke-dasharray="5,2" d="M740,-910.02C740,-910.02 740,-756.03 740,-756.03"/>
<polygon fill="blue" stroke="blue" points="742.45,-756.03 740,-749.03 737.55,-756.03 742.45,-756.03"/>
</g>
<!-- S&#45;1077&#45;&gt;C&#45;0001 -->
<g id="edge30" class="edge">
<title>S&#45;1077&#45;&gt;C&#45;0001</title>
<path fill="none" stroke="#4d4d4d" d="M687.5,-211.12C687.5,-211.12 687.5,-148.91 687.5,-148.91"/>
<polygon fill="#4d4d4d" stroke="#4d4d4d" points="689.95,-148.91 687.5,-141.91 685.05,-148.91 689.95,-148.91"/>
</g>
<!-- S&#45;168 -->
<g id="node26" class="node">
<title>S&#45;168</title>
<polygon fill="mediumseagreen" stroke="black" points="432,-1255 360,-1233.5 432,-1212 504,-1233.5 432,-1255"/>
<text text-anchor="middle" x="432" y="-1231" font-family="Arial" font-size="10.00">S&#45;168</text>
</g>
<!-- S&#45;168&#45;&gt;S&#45;2137 -->
<g id="edge10" class="edge">
<title>S&#45;168&#45;&gt;S&#45;2137</title>
<path fill="none" stroke="#4d4d4d" d="M417.5,-1215.91C417.5,-1215.91 417.5,-1156.89 417.5,-1156.89"/>
<polygon fill="#4d4d4d" stroke="#4d4d4d" points="419.95,-1156.89 417.5,-1149.89 415.05,-1156.89 419.95,-1156.89"/>
</g>
<!-- S&#45;168&#45;&gt;S&#45;1149 -->
<g id="edge11" class="edge">
<title>S&#45;168&#45;&gt;S&#45;1149</title>
<path fill="none" stroke="#4d4d4d" d="M489.5,-1229.14C489.5,-1209.71 489.5,-1132 489.5,-1132 489.5,-1132 505.61,-1132 505.61,-1132"/>
<polygon fill="#4d4d4d" stroke="#4d4d4d" points="505.61,-1134.45 512.61,-1132 505.61,-1129.55 505.61,-1134.45"/>
</g>
<!-- S&#45;169 -->
<g id="node35" class="node">
<title>S&#45;169</title>
<polygon fill="mediumseagreen" stroke="black" points="223,-1154 151,-1132.5 223,-1111 295,-1132.5 223,-1154"/>
<text text-anchor="middle" x="223" y="-1130" font-family="Arial" font-size="10.00">S&#45;169</text>
</g>
<!-- S&#45;168&#45;&gt;S&#45;169 -->
<g id="edge3" class="edge">
<title>S&#45;168&#45;&gt;S&#45;169</title>
<path fill="none" stroke="#4d4d4d" d="M361.43,-1233C342.66,-1233 327.5,-1233 327.5,-1233 327.5,-1233 327.5,-1132 327.5,-1132 327.5,-1132 300.57,-1132 300.57,-1132"/>
<polygon fill="#4d4d4d" stroke="#4d4d4d" points="300.57,-1129.55 293.57,-1132 300.57,-1134.45 300.57,-1129.55"/>
</g>
<!-- R&#45;284 -->
<g id="node27" class="node">
<title>R&#45;284</title>
<polygon fill="tomato" stroke="black" points="1043,-315.59 1043,-333.41 1000.82,-346 941.18,-346 899,-333.41 899,-315.59 941.18,-303 1000.82,-303 1043,-315.59"/>
<text text-anchor="middle" x="971" y="-322" font-family="Arial" font-size="10.00">R&#45;284</text>
</g>
<!-- ext_circ_114_24_ -->
<g id="node38" class="node">
<title>ext_circ_114_24_</title>
<polygon fill="lightpink" stroke="darkorange" stroke-dasharray="5,2" points="998,-245 854,-245 854,-202 998,-202 998,-245"/>
<text text-anchor="middle" x="926" y="-226.5" font-family="Arial" font-size="10.00">Circuito:</text>
<text text-anchor="middle" x="926" y="-215.5" font-family="Arial" font-size="10.00">114&#45;24&#45;</text>
</g>
<!-- R&#45;284&#45;&gt;ext_circ_114_24_ -->
<g id="edge40" class="edge">
<title>R&#45;284&#45;&gt;ext_circ_114_24_</title>
<path fill="none" stroke="darkorange" stroke-dasharray="5,2" d="M948.5,-302.58C948.5,-302.58 948.5,-252.03 948.5,-252.03"/>
<polygon fill="darkorange" stroke="darkorange" points="950.95,-252.03 948.5,-245.03 946.05,-252.03 950.95,-252.03"/>
</g>
<!-- R&#45;029 -->
<g id="node28" class="node">
<title>R&#45;029</title>
<polygon fill="mediumseagreen" stroke="black" points="989,-820.59 989,-838.41 946.82,-851 887.18,-851 845,-838.41 845,-820.59 887.18,-808 946.82,-808 989,-820.59"/>
<text text-anchor="middle" x="917" y="-827" font-family="Arial" font-size="10.00">R&#45;029</text>
</g>
<!-- R&#45;029&#45;&gt;C&#45;0490 -->
<g id="edge21" class="edge">
<title>R&#45;029&#45;&gt;C&#45;0490</title>
<path fill="none" stroke="#4d4d4d" d="M854.5,-817.46C854.5,-790.57 854.5,-728 854.5,-728 854.5,-728 796.37,-728 796.37,-728"/>
<polygon fill="#4d4d4d" stroke="#4d4d4d" points="796.37,-725.55 789.37,-728 796.37,-730.45 796.37,-725.55"/>
</g>
<!-- C&#45;0194&#45;&gt;ext_circ_114_24_ -->
<g id="edge39" class="edge">
<title>C&#45;0194&#45;&gt;ext_circ_114_24_</title>
<path fill="none" stroke="darkorange" stroke-dasharray="5,2" d="M858.5,-316.91C858.5,-316.91 858.5,-252.19 858.5,-252.19"/>
<polygon fill="darkorange" stroke="darkorange" points="860.95,-252.19 858.5,-245.19 856.05,-252.19 860.95,-252.19"/>
</g>
<!-- C&#45;0923 -->
<g id="node30" class="node">
<title>C&#45;0923</title>
<ellipse fill="mediumseagreen" stroke="black" cx="612" cy="-1233.5" rx="72" ry="21.5"/>
<text text-anchor="middle" x="612" y="-1231" font-family="Arial" font-size="10.00">C&#45;0923</text>
</g>
<!-- C&#45;0923&#45;&gt;R&#45;217 -->
<g id="edge15" class="edge">
<title>C&#45;0923&#45;&gt;R&#45;217</title>
<path fill="none" stroke="#4d4d4d" d="M669.5,-1220.23C669.5,-1192.72 669.5,-1132 669.5,-1132 669.5,-1132 683.72,-1132 683.72,-1132"/>
<polygon fill="#4d4d4d" stroke="#4d4d4d" points="683.72,-1134.45 690.72,-1132 683.72,-1129.55 683.72,-1134.45"/>
</g>
<!-- 111&#45;22&#45; -->
<g id="node31" class="node">
<title>111&#45;22&#45;</title>
<polygon fill="gold" stroke="black" points="504,-1430.59 504,-1448.41 461.82,-1461 402.18,-1461 360,-1448.41 360,-1430.59 402.18,-1418 461.82,-1418 504,-1430.59"/>
<polygon fill="none" stroke="black" points="508,-1427.61 508,-1451.39 462.41,-1465 401.59,-1465 356,-1451.39 356,-1427.61 401.59,-1414 462.41,-1414 508,-1427.61"/>
<text text-anchor="middle" x="432" y="-1437" font-family="Arial" font-size="10.00">111&#45;22&#45;</text>
</g>
<!-- C&#45;0076 -->
<g id="node34" class="node">
<title>C&#45;0076</title>
<ellipse fill="mediumseagreen" stroke="black" cx="432" cy="-1334.5" rx="72" ry="21.5"/>
<text text-anchor="middle" x="432" y="-1332" font-family="Arial" font-size="10.00">C&#45;0076</text>
</g>
<!-- 111&#45;22&#45;&#45;&gt;C&#45;0076 -->
<g id="edge1" class="edge">
<title>111&#45;22&#45;&#45;&gt;C&#45;0076</title>
<path fill="none" stroke="#4d4d4d" d="M432,-1413.81C432,-1413.81 432,-1363.03 432,-1363.03"/>
<polygon fill="#4d4d4d" stroke="#4d4d4d" points="434.45,-1363.03 432,-1356.03 429.55,-1363.03 434.45,-1363.03"/>
</g>
<!-- C&#45;1132&#45;&gt;R&#45;284 -->
<g id="edge26" class="edge">
<title>C&#45;1132&#45;&gt;R&#45;284</title>
<path fill="none" stroke="#4d4d4d" d="M964.5,-404.08C964.5,-404.08 964.5,-353.24 964.5,-353.24"/>
<polygon fill="#4d4d4d" stroke="#4d4d4d" points="966.95,-353.24 964.5,-346.24 962.05,-353.24 966.95,-353.24"/>
</g>
<!-- C&#45;0800&#45;&gt;R&#45;178 -->
<g id="edge33" class="edge">
<title>C&#45;0800&#45;&gt;R&#45;178</title>
<path fill="none" stroke="#4d4d4d" d="M483,-608.03C483,-608.03 483,-554.66 483,-554.66"/>
<polygon fill="#4d4d4d" stroke="#4d4d4d" points="485.45,-554.66 483,-547.66 480.55,-554.66 485.45,-554.66"/>
</g>
<!-- C&#45;0076&#45;&gt;C&#45;0924 -->
<g id="edge13" class="edge">
<title>C&#45;0076&#45;&gt;C&#45;0924</title>
<path fill="none" stroke="#4d4d4d" d="M363.01,-1341C258.48,-1341 72,-1341 72,-1341 72,-1341 72,-1262.25 72,-1262.25"/>
<polygon fill="#4d4d4d" stroke="#4d4d4d" points="74.45,-1262.25 72,-1255.25 69.55,-1262.25 74.45,-1262.25"/>
</g>
<!-- C&#45;0076&#45;&gt;S&#45;175 -->
<g id="edge36" class="edge">
<title>C&#45;0076&#45;&gt;S&#45;175</title>
<path fill="none" stroke="#4d4d4d" d="M364.46,-1327C313.39,-1327 252,-1327 252,-1327 252,-1327 252,-1262.19 252,-1262.19"/>
<polygon fill="#4d4d4d" stroke="#4d4d4d" points="254.45,-1262.19 252,-1255.19 249.55,-1262.19 254.45,-1262.19"/>
</g>
<!-- C&#45;0076&#45;&gt;S&#45;168 -->
<g id="edge2" class="edge">
<title>C&#45;0076&#45;&gt;S&#45;168</title>
<path fill="none" stroke="#4d4d4d" d="M432,-1312.58C432,-1312.58 432,-1262.03 432,-1262.03"/>
<polygon fill="#4d4d4d" stroke="#4d4d4d" points="434.45,-1262.03 432,-1255.03 429.55,-1262.03 434.45,-1262.03"/>
</g>
<!-- C&#45;0076&#45;&gt;C&#45;0923 -->
<g id="edge14" class="edge">
<title>C&#45;0076&#45;&gt;C&#45;0923</title>
<path fill="none" stroke="#4d4d4d" d="M499.54,-1327C550.61,-1327 612,-1327 612,-1327 612,-1327 612,-1262.19 612,-1262.19"/>
<polygon fill="#4d4d4d" stroke="#4d4d4d" points="614.45,-1262.19 612,-1255.19 609.55,-1262.19 614.45,-1262.19"/>
</g>
<!-- S&#45;1758 -->
<g id="node37" class="node">
<title>S&#45;1758</title>
<polygon fill="mediumseagreen" stroke="black" points="792,-1255 720,-1233.5 792,-1212 864,-1233.5 792,-1255"/>
<text text-anchor="middle" x="792" y="-1231" font-family="Arial" font-size="10.00">S&#45;1758</text>
</g>
<!-- C&#45;0076&#45;&gt;S&#45;1758 -->
<g id="edge12" class="edge">
<title>C&#45;0076&#45;&gt;S&#45;1758</title>
<path fill="none" stroke="#4d4d4d" d="M500.99,-1341C605.52,-1341 792,-1341 792,-1341 792,-1341 792,-1262.25 792,-1262.25"/>
<polygon fill="#4d4d4d" stroke="#4d4d4d" points="794.45,-1262.25 792,-1255.25 789.55,-1262.25 794.45,-1262.25"/>
</g>
<!-- S&#45;169&#45;&gt;S&#45;1150 -->
<g id="edge4" class="edge">
<title>S&#45;169&#45;&gt;S&#45;1150</title>
<path fill="none" stroke="#4d4d4d" d="M223,-1110.58C223,-1110.58 223,-1060.03 223,-1060.03"/>
<polygon fill="#4d4d4d" stroke="#4d4d4d" points="225.45,-1060.03 223,-1053.03 220.55,-1060.03 225.45,-1060.03"/>
</g>
<!-- C&#45;0491&#45;&gt;R&#45;029 -->
<g id="edge20" class="edge">
<title>C&#45;0491&#45;&gt;R&#45;029</title>
<path fill="none" stroke="#4d4d4d" d="M930,-909.08C930,-909.08 930,-858.24 930,-858.24"/>
<polygon fill="#4d4d4d" stroke="#4d4d4d" points="932.45,-858.24 930,-851.24 927.55,-858.24 932.45,-858.24"/>
</g>
</g>
</svg>
