<?xml version="1.0" encoding="UTF-8" standalone="no"?>
<!DOCTYPE svg PUBLIC "-//W3C//DTD SVG 1.1//EN"
 "http://www.w3.org/Graphics/SVG/1.1/DTD/svg11.dtd">
<!-- Generated by graphviz version 2.50.0 (0)
 -->
<!-- Title: Grafo_Circuito_113_24_ Pages: 1 -->
<svg width="1059pt" height="1574pt"
 viewBox="0.00 0.00 1059.00 1574.00" xmlns="http://www.w3.org/2000/svg" xmlns:xlink="http://www.w3.org/1999/xlink">
<g id="graph0" class="graph" transform="scale(1 1) rotate(0) translate(4 1570)">
<title>Grafo_Circuito_113_24_</title>
<polygon fill="white" stroke="transparent" points="-4,4 -4,-1570 1055,-1570 1055,4 -4,4"/>
<!-- S&#45;2152 -->
<g id="node1" class="node">
<title>S&#45;2152</title>
<polygon fill="mediumseagreen" stroke="black" points="158,-1356 86,-1334.5 158,-1313 230,-1334.5 158,-1356"/>
<text text-anchor="middle" x="158" y="-1332" font-family="Arial" font-size="10.00">S&#45;2152</text>
</g>
<!-- S&#45;1242 -->
<g id="node2" class="node">
<title>S&#45;1242</title>
<polygon fill="mediumseagreen" stroke="black" points="338,-1356 266,-1334.5 338,-1313 410,-1334.5 338,-1356"/>
<text text-anchor="middle" x="338" y="-1332" font-family="Arial" font-size="10.00">S&#45;1242</text>
</g>
<!-- S&#45;1553 -->
<g id="node6" class="node">
<title>S&#45;1553</title>
<polygon fill="mediumseagreen" stroke="black" points="121,-1255 49,-1233.5 121,-1212 193,-1233.5 121,-1255"/>
<text text-anchor="middle" x="121" y="-1231" font-family="Arial" font-size="10.00">S&#45;1553</text>
</g>
<!-- S&#45;1242&#45;&gt;S&#45;1553 -->
<g id="edge31" class="edge">
<title>S&#45;1242&#45;&gt;S&#45;1553</title>
<path fill="none" stroke="#4d4d4d" d="M301.67,-1323.79C301.67,-1308.97 301.67,-1284 301.67,-1284 301.67,-1284 139.5,-1284 139.5,-1284 139.5,-1284 139.5,-1256.48 139.5,-1256.48"/>
<polygon fill="#4d4d4d" stroke="#4d4d4d" points="141.95,-1256.48 139.5,-1249.48 137.05,-1256.48 141.95,-1256.48"/>
</g>
<!-- S&#45;1567 -->
<g id="node13" class="node">
<title>S&#45;1567</title>
<polygon fill="mediumseagreen" stroke="black" points="301,-1255 229,-1233.5 301,-1212 373,-1233.5 301,-1255"/>
<text text-anchor="middle" x="301" y="-1231" font-family="Arial" font-size="10.00">S&#45;1567</text>
</g>
<!-- S&#45;1242&#45;&gt;S&#45;1567 -->
<g id="edge29" class="edge">
<title>S&#45;1242&#45;&gt;S&#45;1567</title>
<path fill="none" stroke="#4d4d4d" d="M337.33,-1313.08C337.33,-1313.08 337.33,-1251.32 337.33,-1251.32"/>
<polygon fill="#4d4d4d" stroke="#4d4d4d" points="339.78,-1251.32 337.33,-1244.32 334.88,-1251.32 339.78,-1251.32"/>
</g>
<!-- S&#45;2008 -->
<g id="node24" class="node">
<title>S&#45;2008</title>
<polygon fill="mediumseagreen" stroke="black" points="481,-1255 409,-1233.5 481,-1212 553,-1233.5 481,-1255"/>
<text text-anchor="middle" x="481" y="-1231" font-family="Arial" font-size="10.00">S&#45;2008</text>
</g>
<!-- S&#45;1242&#45;&gt;S&#45;2008 -->
<g id="edge32" class="edge">
<title>S&#45;1242&#45;&gt;S&#45;2008</title>
<path fill="none" stroke="#4d4d4d" d="M391,-1328.75C391,-1307.28 391,-1233 391,-1233 391,-1233 403.53,-1233 403.53,-1233"/>
<polygon fill="#4d4d4d" stroke="#4d4d4d" points="403.53,-1235.45 410.53,-1233 403.53,-1230.55 403.53,-1235.45"/>
</g>
<!-- C&#45;0025 -->
<g id="node3" class="node">
<title>C&#45;0025</title>
<ellipse fill="tomato" stroke="black" cx="282" cy="-122.5" rx="72" ry="21.5"/>
<text text-anchor="middle" x="282" y="-120" font-family="Arial" font-size="10.00">C&#45;0025</text>
</g>
<!-- ext_circ_303_25_ -->
<g id="node36" class="node">
<title>ext_circ_303_25_</title>
<polygon fill="lightpink" stroke="darkorange" stroke-dasharray="5,2" points="354,-43 210,-43 210,0 354,0 354,-43"/>
<text text-anchor="middle" x="282" y="-24.5" font-family="Arial" font-size="10.00">Circuito:</text>
<text text-anchor="middle" x="282" y="-13.5" font-family="Arial" font-size="10.00">303&#45;25&#45;</text>
</g>
<!-- C&#45;0025&#45;&gt;ext_circ_303_25_ -->
<g id="edge40" class="edge">
<title>C&#45;0025&#45;&gt;ext_circ_303_25_</title>
<path fill="none" stroke="darkorange" stroke-dasharray="5,2" d="M282,-100.58C282,-100.58 282,-50.03 282,-50.03"/>
<polygon fill="darkorange" stroke="darkorange" points="284.45,-50.03 282,-43.03 279.55,-50.03 284.45,-50.03"/>
</g>
<!-- S&#45;1194 -->
<g id="node4" class="node">
<title>S&#45;1194</title>
<polygon fill="mediumseagreen" stroke="black" points="444,-1053 372,-1031.5 444,-1010 516,-1031.5 444,-1053"/>
<text text-anchor="middle" x="444" y="-1029" font-family="Arial" font-size="10.00">S&#45;1194</text>
</g>
<!-- S&#45;2009 -->
<g id="node7" class="node">
<title>S&#45;2009</title>
<polygon fill="mediumseagreen" stroke="black" points="174,-952 102,-930.5 174,-909 246,-930.5 174,-952"/>
<text text-anchor="middle" x="174" y="-928" font-family="Arial" font-size="10.00">S&#45;2009</text>
</g>
<!-- S&#45;1194&#45;&gt;S&#45;2009 -->
<g id="edge26" class="edge">
<title>S&#45;1194&#45;&gt;S&#45;2009</title>
<path fill="none" stroke="#4d4d4d" d="M373.51,-1031C313.69,-1031 237.5,-1031 237.5,-1031 237.5,-1031 237.5,-940.4 237.5,-940.4"/>
<polygon fill="#4d4d4d" stroke="#4d4d4d" points="239.95,-940.4 237.5,-933.4 235.05,-940.4 239.95,-940.4"/>
</g>
<!-- C&#45;0392 -->
<g id="node12" class="node">
<title>C&#45;0392</title>
<ellipse fill="tomato" stroke="black" cx="354" cy="-930.5" rx="72" ry="21.5"/>
<text text-anchor="middle" x="354" y="-928" font-family="Arial" font-size="10.00">C&#45;0392</text>
</g>
<!-- S&#45;1194&#45;&gt;C&#45;0392 -->
<g id="edge11" class="edge">
<title>S&#45;1194&#45;&gt;C&#45;0392</title>
<path fill="none" stroke="#4d4d4d" d="M399,-1023.23C399,-1023.23 399,-954.52 399,-954.52"/>
<polygon fill="#4d4d4d" stroke="#4d4d4d" points="401.45,-954.52 399,-947.52 396.55,-954.52 401.45,-954.52"/>
</g>
<!-- C&#45;0393 -->
<g id="node31" class="node">
<title>C&#45;0393</title>
<ellipse fill="mediumseagreen" stroke="black" cx="534" cy="-930.5" rx="72" ry="21.5"/>
<text text-anchor="middle" x="534" y="-928" font-family="Arial" font-size="10.00">C&#45;0393</text>
</g>
<!-- S&#45;1194&#45;&gt;C&#45;0393 -->
<g id="edge10" class="edge">
<title>S&#45;1194&#45;&gt;C&#45;0393</title>
<path fill="none" stroke="#4d4d4d" d="M489,-1023.23C489,-1023.23 489,-954.52 489,-954.52"/>
<polygon fill="#4d4d4d" stroke="#4d4d4d" points="491.45,-954.52 489,-947.52 486.55,-954.52 491.45,-954.52"/>
</g>
<!-- C&#45;0940 -->
<g id="node5" class="node">
<title>C&#45;0940</title>
<ellipse fill="mediumseagreen" stroke="black" cx="735" cy="-1132.5" rx="72" ry="21.5"/>
<text text-anchor="middle" x="735" y="-1130" font-family="Arial" font-size="10.00">C&#45;0940</text>
</g>
<!-- C&#45;0940&#45;&gt;S&#45;1194 -->
<g id="edge9" class="edge">
<title>C&#45;0940&#45;&gt;S&#45;1194</title>
<path fill="none" stroke="#4d4d4d" d="M684.33,-1117.08C684.33,-1088.69 684.33,-1031 684.33,-1031 684.33,-1031 521.48,-1031 521.48,-1031"/>
<polygon fill="#4d4d4d" stroke="#4d4d4d" points="521.48,-1028.55 514.48,-1031 521.48,-1033.45 521.48,-1028.55"/>
</g>
<!-- S&#45;105 -->
<g id="node15" class="node">
<title>S&#45;105</title>
<polygon fill="mediumseagreen" stroke="black" points="799,-1053 727,-1031.5 799,-1010 871,-1031.5 799,-1053"/>
<text text-anchor="middle" x="799" y="-1029" font-family="Arial" font-size="10.00">S&#45;105</text>
</g>
<!-- C&#45;0940&#45;&gt;S&#45;105 -->
<g id="edge7" class="edge">
<title>C&#45;0940&#45;&gt;S&#45;105</title>
<path fill="none" stroke="#4d4d4d" d="M767,-1113.03C767,-1113.03 767,-1050.62 767,-1050.62"/>
<polygon fill="#4d4d4d" stroke="#4d4d4d" points="769.45,-1050.62 767,-1043.62 764.55,-1050.62 769.45,-1050.62"/>
</g>
<!-- R&#45;079 -->
<g id="node16" class="node">
<title>R&#45;079</title>
<polygon fill="tomato" stroke="black" points="766,-820.59 766,-838.41 723.82,-851 664.18,-851 622,-838.41 622,-820.59 664.18,-808 723.82,-808 766,-820.59"/>
<text text-anchor="middle" x="694" y="-827" font-family="Arial" font-size="10.00">R&#45;079</text>
</g>
<!-- C&#45;0940&#45;&gt;R&#45;079 -->
<g id="edge8" class="edge">
<title>C&#45;0940&#45;&gt;R&#45;079</title>
<path fill="none" stroke="#4d4d4d" d="M705.67,-1112.62C705.67,-1112.62 705.67,-858.06 705.67,-858.06"/>
<polygon fill="#4d4d4d" stroke="#4d4d4d" points="708.12,-858.06 705.67,-851.06 703.22,-858.06 708.12,-858.06"/>
</g>
<!-- S&#45;1483 -->
<g id="node25" class="node">
<title>S&#45;1483</title>
<polygon fill="mediumseagreen" stroke="black" points="979,-1053 907,-1031.5 979,-1010 1051,-1031.5 979,-1053"/>
<text text-anchor="middle" x="979" y="-1029" font-family="Arial" font-size="10.00">S&#45;1483</text>
</g>
<!-- C&#45;0940&#45;&gt;S&#45;1483 -->
<g id="edge27" class="edge">
<title>C&#45;0940&#45;&gt;S&#45;1483</title>
<path fill="none" stroke="#4d4d4d" d="M807.22,-1132C879.17,-1132 979,-1132 979,-1132 979,-1132 979,-1060.31 979,-1060.31"/>
<polygon fill="#4d4d4d" stroke="#4d4d4d" points="981.45,-1060.31 979,-1053.31 976.55,-1060.31 981.45,-1060.31"/>
</g>
<!-- R&#45;180 -->
<g id="node8" class="node">
<title>R&#45;180</title>
<polygon fill="tomato" stroke="black" points="170,-517.59 170,-535.41 127.82,-548 68.18,-548 26,-535.41 26,-517.59 68.18,-505 127.82,-505 170,-517.59"/>
<text text-anchor="middle" x="98" y="-524" font-family="Arial" font-size="10.00">R&#45;180</text>
</g>
<!-- ext_circ_114_23_ -->
<g id="node35" class="node">
<title>ext_circ_114_23_</title>
<polygon fill="lightpink" stroke="darkorange" stroke-dasharray="5,2" points="227,-447 83,-447 83,-404 227,-404 227,-447"/>
<text text-anchor="middle" x="155" y="-428.5" font-family="Arial" font-size="10.00">Circuito:</text>
<text text-anchor="middle" x="155" y="-417.5" font-family="Arial" font-size="10.00">114&#45;23&#45;</text>
</g>
<!-- R&#45;180&#45;&gt;ext_circ_114_23_ -->
<g id="edge37" class="edge">
<title>R&#45;180&#45;&gt;ext_circ_114_23_</title>
<path fill="none" stroke="darkorange" stroke-dasharray="5,2" d="M126.5,-504.58C126.5,-504.58 126.5,-454.03 126.5,-454.03"/>
<polygon fill="darkorange" stroke="darkorange" points="128.95,-454.03 126.5,-447.03 124.05,-454.03 128.95,-454.03"/>
</g>
<!-- C&#45;0806 -->
<g id="node9" class="node">
<title>C&#45;0806</title>
<ellipse fill="mediumseagreen" stroke="black" cx="72" cy="-627.5" rx="72" ry="21.5"/>
<text text-anchor="middle" x="72" y="-625" font-family="Arial" font-size="10.00">C&#45;0806</text>
</g>
<!-- C&#45;0806&#45;&gt;R&#45;180 -->
<g id="edge16" class="edge">
<title>C&#45;0806&#45;&gt;R&#45;180</title>
<path fill="none" stroke="#4d4d4d" d="M85,-606.08C85,-606.08 85,-555.24 85,-555.24"/>
<polygon fill="#4d4d4d" stroke="#4d4d4d" points="87.45,-555.24 85,-548.24 82.55,-555.24 87.45,-555.24"/>
</g>
<!-- S&#45;102 -->
<g id="node10" class="node">
<title>S&#45;102</title>
<polygon fill="mediumseagreen" stroke="black" points="428,-1457 356,-1435.5 428,-1414 500,-1435.5 428,-1457"/>
<text text-anchor="middle" x="428" y="-1433" font-family="Arial" font-size="10.00">S&#45;102</text>
</g>
<!-- S&#45;102&#45;&gt;S&#45;2152 -->
<g id="edge2" class="edge">
<title>S&#45;102&#45;&gt;S&#45;2152</title>
<path fill="none" stroke="#4d4d4d" d="M357.41,-1435C277.41,-1435 158,-1435 158,-1435 158,-1435 158,-1363.31 158,-1363.31"/>
<polygon fill="#4d4d4d" stroke="#4d4d4d" points="160.45,-1363.31 158,-1356.31 155.55,-1363.31 160.45,-1363.31"/>
</g>
<!-- S&#45;102&#45;&gt;S&#45;1242 -->
<g id="edge28" class="edge">
<title>S&#45;102&#45;&gt;S&#45;1242</title>
<path fill="none" stroke="#4d4d4d" d="M383,-1427.23C383,-1427.23 383,-1349.6 383,-1349.6"/>
<polygon fill="#4d4d4d" stroke="#4d4d4d" points="385.45,-1349.6 383,-1342.6 380.55,-1349.6 385.45,-1349.6"/>
</g>
<!-- C&#45;0939 -->
<g id="node20" class="node">
<title>C&#45;0939</title>
<ellipse fill="tomato" stroke="black" cx="518" cy="-1334.5" rx="72" ry="21.5"/>
<text text-anchor="middle" x="518" y="-1332" font-family="Arial" font-size="10.00">C&#45;0939</text>
</g>
<!-- S&#45;102&#45;&gt;C&#45;0939 -->
<g id="edge3" class="edge">
<title>S&#45;102&#45;&gt;C&#45;0939</title>
<path fill="none" stroke="#4d4d4d" d="M473,-1427.23C473,-1427.23 473,-1358.52 473,-1358.52"/>
<polygon fill="#4d4d4d" stroke="#4d4d4d" points="475.45,-1358.52 473,-1351.52 470.55,-1358.52 475.45,-1358.52"/>
</g>
<!-- C&#45;0938 -->
<g id="node29" class="node">
<title>C&#45;0938</title>
<ellipse fill="mediumseagreen" stroke="black" cx="716" cy="-1334.5" rx="72" ry="21.5"/>
<text text-anchor="middle" x="716" y="-1332" font-family="Arial" font-size="10.00">C&#45;0938</text>
</g>
<!-- S&#45;102&#45;&gt;C&#45;0938 -->
<g id="edge4" class="edge">
<title>S&#45;102&#45;&gt;C&#45;0938</title>
<path fill="none" stroke="#4d4d4d" d="M498.45,-1435C583.71,-1435 716,-1435 716,-1435 716,-1435 716,-1363.31 716,-1363.31"/>
<polygon fill="#4d4d4d" stroke="#4d4d4d" points="718.45,-1363.31 716,-1356.31 713.55,-1363.31 718.45,-1363.31"/>
</g>
<!-- C&#45;0508 -->
<g id="node11" class="node">
<title>C&#45;0508</title>
<ellipse fill="mediumseagreen" stroke="black" cx="432" cy="-627.5" rx="72" ry="21.5"/>
<text text-anchor="middle" x="432" y="-625" font-family="Arial" font-size="10.00">C&#45;0508</text>
</g>
<!-- C&#45;0814 -->
<g id="node23" class="node">
<title>C&#45;0814</title>
<ellipse fill="tomato" stroke="black" cx="552" cy="-526.5" rx="72" ry="21.5"/>
<text text-anchor="middle" x="552" y="-524" font-family="Arial" font-size="10.00">C&#45;0814</text>
</g>
<!-- C&#45;0508&#45;&gt;C&#45;0814 -->
<g id="edge20" class="edge">
<title>C&#45;0508&#45;&gt;C&#45;0814</title>
<path fill="none" stroke="#4d4d4d" d="M492,-615.52C492,-615.52 492,-545.47 492,-545.47"/>
<polygon fill="#4d4d4d" stroke="#4d4d4d" points="494.45,-545.47 492,-538.47 489.55,-545.47 494.45,-545.47"/>
</g>
<!-- C&#45;0813 -->
<g id="node27" class="node">
<title>C&#45;0813</title>
<ellipse fill="mediumseagreen" stroke="black" cx="372" cy="-526.5" rx="72" ry="21.5"/>
<text text-anchor="middle" x="372" y="-524" font-family="Arial" font-size="10.00">C&#45;0813</text>
</g>
<!-- C&#45;0508&#45;&gt;C&#45;0813 -->
<g id="edge19" class="edge">
<title>C&#45;0508&#45;&gt;C&#45;0813</title>
<path fill="none" stroke="#4d4d4d" d="M402,-607.55C402,-607.55 402,-553.07 402,-553.07"/>
<polygon fill="#4d4d4d" stroke="#4d4d4d" points="404.45,-553.07 402,-546.07 399.55,-553.07 404.45,-553.07"/>
</g>
<!-- C&#45;0392&#45;&gt;C&#45;0806 -->
<g id="edge35" class="edge">
<title>C&#45;0392&#45;&gt;C&#45;0806</title>
<path fill="none" stroke="blue" stroke-dasharray="5,2" d="M296,-917.64C296,-890.33 296,-829 296,-829 296,-829 116,-829 116,-829 116,-829 116,-651.68 116,-651.68"/>
<polygon fill="blue" stroke="blue" points="118.45,-651.68 116,-644.68 113.55,-651.68 118.45,-651.68"/>
</g>
<!-- S&#45;1569 -->
<g id="node32" class="node">
<title>S&#45;1569</title>
<polygon fill="mediumseagreen" stroke="black" points="301,-1154 229,-1132.5 301,-1111 373,-1132.5 301,-1154"/>
<text text-anchor="middle" x="301" y="-1130" font-family="Arial" font-size="10.00">S&#45;1569</text>
</g>
<!-- S&#45;1567&#45;&gt;S&#45;1569 -->
<g id="edge30" class="edge">
<title>S&#45;1567&#45;&gt;S&#45;1569</title>
<path fill="none" stroke="#4d4d4d" d="M301,-1211.58C301,-1211.58 301,-1161.03 301,-1161.03"/>
<polygon fill="#4d4d4d" stroke="#4d4d4d" points="303.45,-1161.03 301,-1154.03 298.55,-1161.03 303.45,-1161.03"/>
</g>
<!-- C&#45;0815 -->
<g id="node14" class="node">
<title>C&#45;0815</title>
<ellipse fill="mediumseagreen" stroke="black" cx="372" cy="-324.5" rx="72" ry="21.5"/>
<text text-anchor="middle" x="372" y="-322" font-family="Arial" font-size="10.00">C&#45;0815</text>
</g>
<!-- S&#45;765 -->
<g id="node22" class="node">
<title>S&#45;765</title>
<polygon fill="mediumseagreen" stroke="black" points="372,-245 300,-223.5 372,-202 444,-223.5 372,-245"/>
<text text-anchor="middle" x="372" y="-221" font-family="Arial" font-size="10.00">S&#45;765</text>
</g>
<!-- C&#45;0815&#45;&gt;S&#45;765 -->
<g id="edge23" class="edge">
<title>C&#45;0815&#45;&gt;S&#45;765</title>
<path fill="none" stroke="#4d4d4d" d="M372,-302.58C372,-302.58 372,-252.03 372,-252.03"/>
<polygon fill="#4d4d4d" stroke="#4d4d4d" points="374.45,-252.03 372,-245.03 369.55,-252.03 374.45,-252.03"/>
</g>
<!-- ext_circ_109_20_ -->
<g id="node34" class="node">
<title>ext_circ_109_20_</title>
<polygon fill="lightpink" stroke="darkorange" stroke-dasharray="5,2" points="807,-548 663,-548 663,-505 807,-505 807,-548"/>
<text text-anchor="middle" x="735" y="-529.5" font-family="Arial" font-size="10.00">Circuito:</text>
<text text-anchor="middle" x="735" y="-518.5" font-family="Arial" font-size="10.00">109&#45;20&#45;</text>
</g>
<!-- R&#45;079&#45;&gt;ext_circ_109_20_ -->
<g id="edge34" class="edge">
<title>R&#45;079&#45;&gt;ext_circ_109_20_</title>
<path fill="none" stroke="darkorange" stroke-dasharray="5,2" d="M725,-808.19C725,-808.19 725,-555.19 725,-555.19"/>
<polygon fill="darkorange" stroke="darkorange" points="727.45,-555.19 725,-548.19 722.55,-555.19 727.45,-555.19"/>
</g>
<!-- C&#45;0944 -->
<g id="node17" class="node">
<title>C&#45;0944</title>
<ellipse fill="tomato" stroke="black" cx="612" cy="-627.5" rx="72" ry="21.5"/>
<text text-anchor="middle" x="612" y="-625" font-family="Arial" font-size="10.00">C&#45;0944</text>
</g>
<!-- C&#45;0944&#45;&gt;ext_circ_109_20_ -->
<g id="edge38" class="edge">
<title>C&#45;0944&#45;&gt;ext_circ_109_20_</title>
<path fill="none" stroke="darkorange" stroke-dasharray="5,2" d="M673.5,-616.31C673.5,-616.31 673.5,-555.37 673.5,-555.37"/>
<polygon fill="darkorange" stroke="darkorange" points="675.95,-555.37 673.5,-548.37 671.05,-555.37 675.95,-555.37"/>
</g>
<!-- C&#45;0807 -->
<g id="node18" class="node">
<title>C&#45;0807</title>
<ellipse fill="tomato" stroke="black" cx="252" cy="-627.5" rx="72" ry="21.5"/>
<text text-anchor="middle" x="252" y="-625" font-family="Arial" font-size="10.00">C&#45;0807</text>
</g>
<!-- C&#45;0807&#45;&gt;ext_circ_114_23_ -->
<g id="edge36" class="edge">
<title>C&#45;0807&#45;&gt;ext_circ_114_23_</title>
<path fill="none" stroke="darkorange" stroke-dasharray="5,2" d="M203.5,-611.31C203.5,-611.31 203.5,-454.15 203.5,-454.15"/>
<polygon fill="darkorange" stroke="darkorange" points="205.95,-454.15 203.5,-447.15 201.05,-454.16 205.95,-454.15"/>
</g>
<!-- S&#45;1940 -->
<g id="node19" class="node">
<title>S&#45;1940</title>
<polygon fill="mediumseagreen" stroke="black" points="462,-144 390,-122.5 462,-101 534,-122.5 462,-144"/>
<text text-anchor="middle" x="462" y="-120" font-family="Arial" font-size="10.00">S&#45;1940</text>
</g>
<!-- C&#45;0939&#45;&gt;C&#45;0940 -->
<g id="edge33" class="edge">
<title>C&#45;0939&#45;&gt;C&#45;0940</title>
<path fill="none" stroke="blue" stroke-dasharray="5,2" d="M571.5,-1319.94C571.5,-1273.51 571.5,-1132 571.5,-1132 571.5,-1132 655.81,-1132 655.81,-1132"/>
<polygon fill="blue" stroke="blue" points="655.81,-1134.45 662.81,-1132 655.81,-1129.55 655.81,-1134.45"/>
</g>
<!-- R&#45;182 -->
<g id="node21" class="node">
<title>R&#45;182</title>
<polygon fill="mediumseagreen" stroke="black" points="444,-416.59 444,-434.41 401.82,-447 342.18,-447 300,-434.41 300,-416.59 342.18,-404 401.82,-404 444,-416.59"/>
<text text-anchor="middle" x="372" y="-423" font-family="Arial" font-size="10.00">R&#45;182</text>
</g>
<!-- R&#45;182&#45;&gt;C&#45;0815 -->
<g id="edge22" class="edge">
<title>R&#45;182&#45;&gt;C&#45;0815</title>
<path fill="none" stroke="#4d4d4d" d="M372,-403.58C372,-403.58 372,-353.03 372,-353.03"/>
<polygon fill="#4d4d4d" stroke="#4d4d4d" points="374.45,-353.03 372,-346.03 369.55,-353.03 374.45,-353.03"/>
</g>
<!-- S&#45;765&#45;&gt;C&#45;0025 -->
<g id="edge24" class="edge">
<title>S&#45;765&#45;&gt;C&#45;0025</title>
<path fill="none" stroke="#4d4d4d" d="M327,-215.23C327,-215.23 327,-146.52 327,-146.52"/>
<polygon fill="#4d4d4d" stroke="#4d4d4d" points="329.45,-146.52 327,-139.52 324.55,-146.52 329.45,-146.52"/>
</g>
<!-- S&#45;765&#45;&gt;S&#45;1940 -->
<g id="edge25" class="edge">
<title>S&#45;765&#45;&gt;S&#45;1940</title>
<path fill="none" stroke="#4d4d4d" d="M417,-215.23C417,-215.23 417,-137.6 417,-137.6"/>
<polygon fill="#4d4d4d" stroke="#4d4d4d" points="419.45,-137.6 417,-130.6 414.55,-137.6 419.45,-137.6"/>
</g>
<!-- C&#45;0814&#45;&gt;C&#45;0815 -->
<g id="edge39" class="edge">
<title>C&#45;0814&#45;&gt;C&#45;0815</title>
<path fill="none" stroke="blue" stroke-dasharray="5,2" d="M507,-509.58C507,-460.91 507,-324 507,-324 507,-324 451.24,-324 451.24,-324"/>
<polygon fill="blue" stroke="blue" points="451.24,-321.55 444.24,-324 451.24,-326.45 451.24,-321.55"/>
</g>
<!-- R&#45;132 -->
<g id="node26" class="node">
<title>R&#45;132</title>
<polygon fill="mediumseagreen" stroke="black" points="564,-820.59 564,-838.41 521.82,-851 462.18,-851 420,-838.41 420,-820.59 462.18,-808 521.82,-808 564,-820.59"/>
<text text-anchor="middle" x="492" y="-827" font-family="Arial" font-size="10.00">R&#45;132</text>
</g>
<!-- C&#45;0394 -->
<g id="node28" class="node">
<title>C&#45;0394</title>
<ellipse fill="mediumseagreen" stroke="black" cx="432" cy="-728.5" rx="72" ry="21.5"/>
<text text-anchor="middle" x="432" y="-726" font-family="Arial" font-size="10.00">C&#45;0394</text>
</g>
<!-- R&#45;132&#45;&gt;C&#45;0394 -->
<g id="edge13" class="edge">
<title>R&#45;132&#45;&gt;C&#45;0394</title>
<path fill="none" stroke="#4d4d4d" d="M462,-807.58C462,-807.58 462,-755.32 462,-755.32"/>
<polygon fill="#4d4d4d" stroke="#4d4d4d" points="464.45,-755.32 462,-748.32 459.55,-755.32 464.45,-755.32"/>
</g>
<!-- C&#45;0813&#45;&gt;R&#45;182 -->
<g id="edge21" class="edge">
<title>C&#45;0813&#45;&gt;R&#45;182</title>
<path fill="none" stroke="#4d4d4d" d="M372,-504.58C372,-504.58 372,-454.03 372,-454.03"/>
<polygon fill="#4d4d4d" stroke="#4d4d4d" points="374.45,-454.03 372,-447.03 369.55,-454.03 374.45,-454.03"/>
</g>
<!-- C&#45;0394&#45;&gt;C&#45;0806 -->
<g id="edge14" class="edge">
<title>C&#45;0394&#45;&gt;C&#45;0806</title>
<path fill="none" stroke="#4d4d4d" d="M363.09,-735C273.96,-735 130,-735 130,-735 130,-735 130,-647.25 130,-647.25"/>
<polygon fill="#4d4d4d" stroke="#4d4d4d" points="132.45,-647.25 130,-640.25 127.55,-647.25 132.45,-647.25"/>
</g>
<!-- C&#45;0394&#45;&gt;C&#45;0508 -->
<g id="edge18" class="edge">
<title>C&#45;0394&#45;&gt;C&#45;0508</title>
<path fill="none" stroke="#4d4d4d" d="M432,-706.58C432,-706.58 432,-656.03 432,-656.03"/>
<polygon fill="#4d4d4d" stroke="#4d4d4d" points="434.45,-656.03 432,-649.03 429.55,-656.03 434.45,-656.03"/>
</g>
<!-- C&#45;0394&#45;&gt;C&#45;0944 -->
<g id="edge17" class="edge">
<title>C&#45;0394&#45;&gt;C&#45;0944</title>
<path fill="none" stroke="#4d4d4d" d="M504.23,-728C529.64,-728 552,-728 552,-728 552,-728 552,-646.42 552,-646.42"/>
<polygon fill="#4d4d4d" stroke="#4d4d4d" points="554.45,-646.42 552,-639.42 549.55,-646.42 554.45,-646.42"/>
</g>
<!-- C&#45;0394&#45;&gt;C&#45;0807 -->
<g id="edge15" class="edge">
<title>C&#45;0394&#45;&gt;C&#45;0807</title>
<path fill="none" stroke="#4d4d4d" d="M364.22,-721C336.14,-721 310,-721 310,-721 310,-721 310,-647.5 310,-647.5"/>
<polygon fill="#4d4d4d" stroke="#4d4d4d" points="312.45,-647.5 310,-640.5 307.55,-647.5 312.45,-647.5"/>
</g>
<!-- R&#45;221 -->
<g id="node30" class="node">
<title>R&#45;221</title>
<polygon fill="mediumseagreen" stroke="black" points="807,-1224.59 807,-1242.41 764.82,-1255 705.18,-1255 663,-1242.41 663,-1224.59 705.18,-1212 764.82,-1212 807,-1224.59"/>
<text text-anchor="middle" x="735" y="-1231" font-family="Arial" font-size="10.00">R&#45;221</text>
</g>
<!-- C&#45;0938&#45;&gt;R&#45;221 -->
<g id="edge5" class="edge">
<title>C&#45;0938&#45;&gt;R&#45;221</title>
<path fill="none" stroke="#4d4d4d" d="M725.5,-1313.08C725.5,-1313.08 725.5,-1262.24 725.5,-1262.24"/>
<polygon fill="#4d4d4d" stroke="#4d4d4d" points="727.95,-1262.24 725.5,-1255.24 723.05,-1262.24 727.95,-1262.24"/>
</g>
<!-- R&#45;221&#45;&gt;C&#45;0940 -->
<g id="edge6" class="edge">
<title>R&#45;221&#45;&gt;C&#45;0940</title>
<path fill="none" stroke="#4d4d4d" d="M735,-1211.58C735,-1211.58 735,-1161.03 735,-1161.03"/>
<polygon fill="#4d4d4d" stroke="#4d4d4d" points="737.45,-1161.03 735,-1154.03 732.55,-1161.03 737.45,-1161.03"/>
</g>
<!-- C&#45;0393&#45;&gt;R&#45;132 -->
<g id="edge12" class="edge">
<title>C&#45;0393&#45;&gt;R&#45;132</title>
<path fill="none" stroke="#4d4d4d" d="M513,-909.57C513,-909.57 513,-858.1 513,-858.1"/>
<polygon fill="#4d4d4d" stroke="#4d4d4d" points="515.45,-858.1 513,-851.1 510.55,-858.1 515.45,-858.1"/>
</g>
<!-- 113&#45;24&#45; -->
<g id="node33" class="node">
<title>113&#45;24&#45;</title>
<polygon fill="gold" stroke="black" points="500,-1531.59 500,-1549.41 457.82,-1562 398.18,-1562 356,-1549.41 356,-1531.59 398.18,-1519 457.82,-1519 500,-1531.59"/>
<polygon fill="none" stroke="black" points="504,-1528.61 504,-1552.39 458.41,-1566 397.59,-1566 352,-1552.39 352,-1528.61 397.59,-1515 458.41,-1515 504,-1528.61"/>
<text text-anchor="middle" x="428" y="-1538" font-family="Arial" font-size="10.00">113&#45;24&#45;</text>
</g>
<!-- 113&#45;24&#45;&#45;&gt;S&#45;102 -->
<g id="edge1" class="edge">
<title>113&#45;24&#45;&#45;&gt;S&#45;102</title>
<path fill="none" stroke="#4d4d4d" d="M428,-1514.81C428,-1514.81 428,-1464.03 428,-1464.03"/>
<polygon fill="#4d4d4d" stroke="#4d4d4d" points="430.45,-1464.03 428,-1457.03 425.55,-1464.03 430.45,-1464.03"/>
</g>
</g>
</svg>
