<?xml version="1.0" encoding="UTF-8" standalone="no"?>
<!DOCTYPE svg PUBLIC "-//W3C//DTD SVG 1.1//EN"
 "http://www.w3.org/Graphics/SVG/1.1/DTD/svg11.dtd">
<!-- Generated by graphviz version 2.50.0 (0)
 -->
<!-- Title: Grafo_Circuito_110_26_ Pages: 1 -->
<svg width="1576pt" height="1372pt"
 viewBox="0.00 0.00 1576.00 1372.00" xmlns="http://www.w3.org/2000/svg" xmlns:xlink="http://www.w3.org/1999/xlink">
<g id="graph0" class="graph" transform="scale(1 1) rotate(0) translate(4 1368)">
<title>Grafo_Circuito_110_26_</title>
<polygon fill="white" stroke="transparent" points="-4,4 -4,-1368 1572,-1368 1572,4 -4,4"/>
<!-- C&#45;0444 -->
<g id="node1" class="node">
<title>C&#45;0444</title>
<ellipse fill="tomato" stroke="black" cx="522" cy="-1132.5" rx="72" ry="21.5"/>
<text text-anchor="middle" x="522" y="-1130" font-family="Arial" font-size="10.00">C&#45;0444</text>
</g>
<!-- C&#45;0443 -->
<g id="node28" class="node">
<title>C&#45;0443</title>
<ellipse fill="mediumseagreen" stroke="black" cx="522" cy="-930.5" rx="72" ry="21.5"/>
<text text-anchor="middle" x="522" y="-928" font-family="Arial" font-size="10.00">C&#45;0443</text>
</g>
<!-- C&#45;0444&#45;&gt;C&#45;0443 -->
<g id="edge37" class="edge">
<title>C&#45;0444&#45;&gt;C&#45;0443</title>
<path fill="none" stroke="blue" stroke-dasharray="5,2" d="M522,-1110.88C522,-1110.88 522,-959.27 522,-959.27"/>
<polygon fill="blue" stroke="blue" points="524.45,-959.27 522,-952.27 519.55,-959.27 524.45,-959.27"/>
</g>
<!-- R&#45;203 -->
<g id="node2" class="node">
<title>R&#45;203</title>
<polygon fill="mediumseagreen" stroke="black" points="324,-517.59 324,-535.41 281.82,-548 222.18,-548 180,-535.41 180,-517.59 222.18,-505 281.82,-505 324,-517.59"/>
<text text-anchor="middle" x="252" y="-524" font-family="Arial" font-size="10.00">R&#45;203</text>
</g>
<!-- C&#45;0880 -->
<g id="node19" class="node">
<title>C&#45;0880</title>
<ellipse fill="mediumseagreen" stroke="black" cx="252" cy="-425.5" rx="72" ry="21.5"/>
<text text-anchor="middle" x="252" y="-423" font-family="Arial" font-size="10.00">C&#45;0880</text>
</g>
<!-- R&#45;203&#45;&gt;C&#45;0880 -->
<g id="edge15" class="edge">
<title>R&#45;203&#45;&gt;C&#45;0880</title>
<path fill="none" stroke="#4d4d4d" d="M252,-504.58C252,-504.58 252,-454.03 252,-454.03"/>
<polygon fill="#4d4d4d" stroke="#4d4d4d" points="254.45,-454.03 252,-447.03 249.55,-454.03 254.45,-454.03"/>
</g>
<!-- C&#45;0445 -->
<g id="node3" class="node">
<title>C&#45;0445</title>
<ellipse fill="mediumseagreen" stroke="black" cx="702" cy="-1132.5" rx="72" ry="21.5"/>
<text text-anchor="middle" x="702" y="-1130" font-family="Arial" font-size="10.00">C&#45;0445</text>
</g>
<!-- R&#45;063 -->
<g id="node29" class="node">
<title>R&#45;063</title>
<polygon fill="mediumseagreen" stroke="black" points="748,-1022.59 748,-1040.41 705.82,-1053 646.18,-1053 604,-1040.41 604,-1022.59 646.18,-1010 705.82,-1010 748,-1022.59"/>
<text text-anchor="middle" x="676" y="-1029" font-family="Arial" font-size="10.00">R&#45;063</text>
</g>
<!-- C&#45;0445&#45;&gt;R&#45;063 -->
<g id="edge4" class="edge">
<title>C&#45;0445&#45;&gt;R&#45;063</title>
<path fill="none" stroke="#4d4d4d" d="M689,-1111.08C689,-1111.08 689,-1060.24 689,-1060.24"/>
<polygon fill="#4d4d4d" stroke="#4d4d4d" points="691.45,-1060.24 689,-1053.24 686.55,-1060.24 691.45,-1060.24"/>
</g>
<!-- R&#45;178 -->
<g id="node4" class="node">
<title>R&#45;178</title>
<polygon fill="tomato" stroke="black" points="490,-113.59 490,-131.41 447.82,-144 388.18,-144 346,-131.41 346,-113.59 388.18,-101 447.82,-101 490,-113.59"/>
<text text-anchor="middle" x="418" y="-120" font-family="Arial" font-size="10.00">R&#45;178</text>
</g>
<!-- ext_circ_111_22_ -->
<g id="node39" class="node">
<title>ext_circ_111_22_</title>
<polygon fill="lightpink" stroke="darkorange" stroke-dasharray="5,2" points="580,-43 436,-43 436,0 580,0 580,-43"/>
<text text-anchor="middle" x="508" y="-24.5" font-family="Arial" font-size="10.00">Circuito:</text>
<text text-anchor="middle" x="508" y="-13.5" font-family="Arial" font-size="10.00">111&#45;22&#45;</text>
</g>
<!-- R&#45;178&#45;&gt;ext_circ_111_22_ -->
<g id="edge40" class="edge">
<title>R&#45;178&#45;&gt;ext_circ_111_22_</title>
<path fill="none" stroke="darkorange" stroke-dasharray="5,2" d="M463,-105.37C463,-105.37 463,-50.31 463,-50.31"/>
<polygon fill="darkorange" stroke="darkorange" points="465.45,-50.31 463,-43.31 460.55,-50.31 465.45,-50.31"/>
</g>
<!-- C&#45;0907 -->
<g id="node5" class="node">
<title>C&#45;0907</title>
<ellipse fill="mediumseagreen" stroke="black" cx="1316" cy="-930.5" rx="72" ry="21.5"/>
<text text-anchor="middle" x="1316" y="-928" font-family="Arial" font-size="10.00">C&#45;0907</text>
</g>
<!-- C&#45;0339 -->
<g id="node26" class="node">
<title>C&#45;0339</title>
<ellipse fill="mediumseagreen" stroke="black" cx="1316" cy="-829.5" rx="72" ry="21.5"/>
<text text-anchor="middle" x="1316" y="-827" font-family="Arial" font-size="10.00">C&#45;0339</text>
</g>
<!-- C&#45;0907&#45;&gt;C&#45;0339 -->
<g id="edge28" class="edge">
<title>C&#45;0907&#45;&gt;C&#45;0339</title>
<path fill="none" stroke="#4d4d4d" d="M1316,-908.58C1316,-908.58 1316,-858.03 1316,-858.03"/>
<polygon fill="#4d4d4d" stroke="#4d4d4d" points="1318.45,-858.03 1316,-851.03 1313.55,-858.03 1318.45,-858.03"/>
</g>
<!-- C&#45;0152 -->
<g id="node6" class="node">
<title>C&#45;0152</title>
<ellipse fill="mediumseagreen" stroke="black" cx="1284" cy="-627.5" rx="72" ry="21.5"/>
<text text-anchor="middle" x="1284" y="-625" font-family="Arial" font-size="10.00">C&#45;0152</text>
</g>
<!-- C&#45;1219 -->
<g id="node30" class="node">
<title>C&#45;1219</title>
<ellipse fill="mediumseagreen" stroke="black" cx="1214" cy="-526.5" rx="72" ry="21.5"/>
<text text-anchor="middle" x="1214" y="-524" font-family="Arial" font-size="10.00">C&#45;1219</text>
</g>
<!-- C&#45;0152&#45;&gt;C&#45;1219 -->
<g id="edge33" class="edge">
<title>C&#45;0152&#45;&gt;C&#45;1219</title>
<path fill="none" stroke="#4d4d4d" d="M1249,-608.5C1249,-608.5 1249,-552.41 1249,-552.41"/>
<polygon fill="#4d4d4d" stroke="#4d4d4d" points="1251.45,-552.41 1249,-545.41 1246.55,-552.41 1251.45,-552.41"/>
</g>
<!-- C&#45;1220 -->
<g id="node37" class="node">
<title>C&#45;1220</title>
<ellipse fill="tomato" stroke="black" cx="1380" cy="-425.5" rx="72" ry="21.5"/>
<text text-anchor="middle" x="1380" y="-423" font-family="Arial" font-size="10.00">C&#45;1220</text>
</g>
<!-- C&#45;0152&#45;&gt;C&#45;1220 -->
<g id="edge35" class="edge">
<title>C&#45;0152&#45;&gt;C&#45;1220</title>
<path fill="none" stroke="#4d4d4d" d="M1332,-611.31C1332,-611.31 1332,-448.77 1332,-448.77"/>
<polygon fill="#4d4d4d" stroke="#4d4d4d" points="1334.45,-448.77 1332,-441.77 1329.55,-448.77 1334.45,-448.77"/>
</g>
<!-- C&#45;0906 -->
<g id="node7" class="node">
<title>C&#45;0906</title>
<ellipse fill="tomato" stroke="black" cx="882" cy="-1132.5" rx="72" ry="21.5"/>
<text text-anchor="middle" x="882" y="-1130" font-family="Arial" font-size="10.00">C&#45;0906</text>
</g>
<!-- C&#45;0906&#45;&gt;C&#45;0907 -->
<g id="edge43" class="edge">
<title>C&#45;0906&#45;&gt;C&#45;0907</title>
<path fill="none" stroke="blue" stroke-dasharray="5,2" d="M852.33,-1112.68C852.33,-1062.98 852.33,-937 852.33,-937 852.33,-937 1240.33,-937 1240.33,-937"/>
<polygon fill="blue" stroke="blue" points="1240.33,-939.45 1247.33,-937 1240.33,-934.55 1240.33,-939.45"/>
</g>
<!-- C&#45;0430 -->
<g id="node8" class="node">
<title>C&#45;0430</title>
<ellipse fill="mediumseagreen" stroke="black" cx="1316" cy="-728.5" rx="72" ry="21.5"/>
<text text-anchor="middle" x="1316" y="-726" font-family="Arial" font-size="10.00">C&#45;0430</text>
</g>
<!-- C&#45;0430&#45;&gt;C&#45;0152 -->
<g id="edge32" class="edge">
<title>C&#45;0430&#45;&gt;C&#45;0152</title>
<path fill="none" stroke="#4d4d4d" d="M1300,-707.08C1300,-707.08 1300,-655.54 1300,-655.54"/>
<polygon fill="#4d4d4d" stroke="#4d4d4d" points="1302.45,-655.54 1300,-648.54 1297.55,-655.54 1302.45,-655.54"/>
</g>
<!-- S&#45;2320 -->
<g id="node10" class="node">
<title>S&#45;2320</title>
<polygon fill="mediumseagreen" stroke="black" points="1464,-649 1392,-627.5 1464,-606 1536,-627.5 1464,-649"/>
<text text-anchor="middle" x="1464" y="-625" font-family="Arial" font-size="10.00">S&#45;2320</text>
</g>
<!-- C&#45;0430&#45;&gt;S&#45;2320 -->
<g id="edge31" class="edge">
<title>C&#45;0430&#45;&gt;S&#45;2320</title>
<path fill="none" stroke="#4d4d4d" d="M1372,-714.81C1372,-687.11 1372,-627 1372,-627 1372,-627 1386.34,-627 1386.34,-627"/>
<polygon fill="#4d4d4d" stroke="#4d4d4d" points="1386.34,-629.45 1393.34,-627 1386.34,-624.55 1386.34,-629.45"/>
</g>
<!-- C&#45;0801 -->
<g id="node9" class="node">
<title>C&#45;0801</title>
<ellipse fill="tomato" stroke="black" cx="598" cy="-122.5" rx="72" ry="21.5"/>
<text text-anchor="middle" x="598" y="-120" font-family="Arial" font-size="10.00">C&#45;0801</text>
</g>
<!-- C&#45;0801&#45;&gt;ext_circ_111_22_ -->
<g id="edge41" class="edge">
<title>C&#45;0801&#45;&gt;ext_circ_111_22_</title>
<path fill="none" stroke="darkorange" stroke-dasharray="5,2" d="M553,-105.37C553,-105.37 553,-50.31 553,-50.31"/>
<polygon fill="darkorange" stroke="darkorange" points="555.45,-50.31 553,-43.31 550.55,-50.31 555.45,-50.31"/>
</g>
<!-- C&#45;0431 -->
<g id="node11" class="node">
<title>C&#45;0431</title>
<ellipse fill="mediumseagreen" stroke="black" cx="342" cy="-728.5" rx="72" ry="21.5"/>
<text text-anchor="middle" x="342" y="-726" font-family="Arial" font-size="10.00">C&#45;0431</text>
</g>
<!-- C&#45;0879 -->
<g id="node23" class="node">
<title>C&#45;0879</title>
<ellipse fill="tomato" stroke="black" cx="432" cy="-627.5" rx="72" ry="21.5"/>
<text text-anchor="middle" x="432" y="-625" font-family="Arial" font-size="10.00">C&#45;0879</text>
</g>
<!-- C&#45;0431&#45;&gt;C&#45;0879 -->
<g id="edge13" class="edge">
<title>C&#45;0431&#45;&gt;C&#45;0879</title>
<path fill="none" stroke="#4d4d4d" d="M387,-711.37C387,-711.37 387,-651.38 387,-651.38"/>
<polygon fill="#4d4d4d" stroke="#4d4d4d" points="389.45,-651.38 387,-644.38 384.55,-651.38 389.45,-651.38"/>
</g>
<!-- C&#45;0878 -->
<g id="node32" class="node">
<title>C&#45;0878</title>
<ellipse fill="mediumseagreen" stroke="black" cx="252" cy="-627.5" rx="72" ry="21.5"/>
<text text-anchor="middle" x="252" y="-625" font-family="Arial" font-size="10.00">C&#45;0878</text>
</g>
<!-- C&#45;0431&#45;&gt;C&#45;0878 -->
<g id="edge12" class="edge">
<title>C&#45;0431&#45;&gt;C&#45;0878</title>
<path fill="none" stroke="#4d4d4d" d="M297,-711.37C297,-711.37 297,-651.38 297,-651.38"/>
<polygon fill="#4d4d4d" stroke="#4d4d4d" points="299.45,-651.38 297,-644.38 294.55,-651.38 299.45,-651.38"/>
</g>
<!-- R&#45;301 -->
<g id="node12" class="node">
<title>R&#45;301</title>
<polygon fill="tomato" stroke="black" points="1272,-416.59 1272,-434.41 1229.82,-447 1170.18,-447 1128,-434.41 1128,-416.59 1170.18,-404 1229.82,-404 1272,-416.59"/>
<text text-anchor="middle" x="1200" y="-423" font-family="Arial" font-size="10.00">R&#45;301</text>
</g>
<!-- ext_circ_109_28_ -->
<g id="node41" class="node">
<title>ext_circ_109_28_</title>
<polygon fill="lightpink" stroke="darkorange" stroke-dasharray="5,2" points="1362,-346 1218,-346 1218,-303 1362,-303 1362,-346"/>
<text text-anchor="middle" x="1290" y="-327.5" font-family="Arial" font-size="10.00">Circuito:</text>
<text text-anchor="middle" x="1290" y="-316.5" font-family="Arial" font-size="10.00">109&#45;28&#45;</text>
</g>
<!-- R&#45;301&#45;&gt;ext_circ_109_28_ -->
<g id="edge45" class="edge">
<title>R&#45;301&#45;&gt;ext_circ_109_28_</title>
<path fill="none" stroke="darkorange" stroke-dasharray="5,2" d="M1245,-408.37C1245,-408.37 1245,-353.31 1245,-353.31"/>
<polygon fill="darkorange" stroke="darkorange" points="1247.45,-353.31 1245,-346.31 1242.55,-353.31 1247.45,-353.31"/>
</g>
<!-- C&#45;0097 -->
<g id="node13" class="node">
<title>C&#45;0097</title>
<ellipse fill="tomato" stroke="black" cx="1136" cy="-728.5" rx="72" ry="21.5"/>
<text text-anchor="middle" x="1136" y="-726" font-family="Arial" font-size="10.00">C&#45;0097</text>
</g>
<!-- ext_circ_110_23_ -->
<g id="node40" class="node">
<title>ext_circ_110_23_</title>
<polygon fill="lightpink" stroke="darkorange" stroke-dasharray="5,2" points="1144,-649 1000,-649 1000,-606 1144,-606 1144,-649"/>
<text text-anchor="middle" x="1072" y="-630.5" font-family="Arial" font-size="10.00">Circuito:</text>
<text text-anchor="middle" x="1072" y="-619.5" font-family="Arial" font-size="10.00">110&#45;23&#45;</text>
</g>
<!-- C&#45;0097&#45;&gt;ext_circ_110_23_ -->
<g id="edge44" class="edge">
<title>C&#45;0097&#45;&gt;ext_circ_110_23_</title>
<path fill="none" stroke="darkorange" stroke-dasharray="5,2" d="M1104,-709.03C1104,-709.03 1104,-656.01 1104,-656.01"/>
<polygon fill="darkorange" stroke="darkorange" points="1106.45,-656.01 1104,-649.01 1101.55,-656.01 1106.45,-656.01"/>
</g>
<!-- S&#45;152 -->
<g id="node14" class="node">
<title>S&#45;152</title>
<polygon fill="tomato" stroke="black" points="1009,-1053 937,-1031.5 1009,-1010 1081,-1031.5 1009,-1053"/>
<text text-anchor="middle" x="1009" y="-1029" font-family="Arial" font-size="10.00">S&#45;152</text>
</g>
<!-- S&#45;152&#45;&gt;ext_circ_110_23_ -->
<g id="edge42" class="edge">
<title>S&#45;152&#45;&gt;ext_circ_110_23_</title>
<path fill="none" stroke="darkorange" stroke-dasharray="5,2" d="M1032,-1016.64C1032,-1016.64 1032,-656.03 1032,-656.03"/>
<polygon fill="darkorange" stroke="darkorange" points="1034.45,-656.03 1032,-649.03 1029.55,-656.03 1034.45,-656.03"/>
</g>
<!-- S&#45;2429 -->
<g id="node15" class="node">
<title>S&#45;2429</title>
<polygon fill="mediumseagreen" stroke="black" points="522,-750 450,-728.5 522,-707 594,-728.5 522,-750"/>
<text text-anchor="middle" x="522" y="-726" font-family="Arial" font-size="10.00">S&#45;2429</text>
</g>
<!-- C&#45;0090 -->
<g id="node16" class="node">
<title>C&#45;0090</title>
<ellipse fill="mediumseagreen" stroke="black" cx="945" cy="-1233.5" rx="72" ry="21.5"/>
<text text-anchor="middle" x="945" y="-1231" font-family="Arial" font-size="10.00">C&#45;0090</text>
</g>
<!-- C&#45;0090&#45;&gt;C&#45;0444 -->
<g id="edge3" class="edge">
<title>C&#45;0090&#45;&gt;C&#45;0444</title>
<path fill="none" stroke="#4d4d4d" d="M876.1,-1240C756.23,-1240 522,-1240 522,-1240 522,-1240 522,-1161.25 522,-1161.25"/>
<polygon fill="#4d4d4d" stroke="#4d4d4d" points="524.45,-1161.25 522,-1154.25 519.55,-1161.25 524.45,-1161.25"/>
</g>
<!-- C&#45;0090&#45;&gt;C&#45;0445 -->
<g id="edge2" class="edge">
<title>C&#45;0090&#45;&gt;C&#45;0445</title>
<path fill="none" stroke="#4d4d4d" d="M877.31,-1226C805.41,-1226 702,-1226 702,-1226 702,-1226 702,-1161.19 702,-1161.19"/>
<polygon fill="#4d4d4d" stroke="#4d4d4d" points="704.45,-1161.19 702,-1154.19 699.55,-1161.19 704.45,-1161.19"/>
</g>
<!-- C&#45;0090&#45;&gt;C&#45;0906 -->
<g id="edge24" class="edge">
<title>C&#45;0090&#45;&gt;C&#45;0906</title>
<path fill="none" stroke="#4d4d4d" d="M913.5,-1214.03C913.5,-1214.03 913.5,-1158.91 913.5,-1158.91"/>
<polygon fill="#4d4d4d" stroke="#4d4d4d" points="915.95,-1158.91 913.5,-1151.91 911.05,-1158.91 915.95,-1158.91"/>
</g>
<!-- C&#45;0090&#45;&gt;S&#45;152 -->
<g id="edge22" class="edge">
<title>C&#45;0090&#45;&gt;S&#45;152</title>
<path fill="none" stroke="#4d4d4d" d="M975,-1213.76C975,-1213.76 975,-1050 975,-1050"/>
<polygon fill="#4d4d4d" stroke="#4d4d4d" points="977.45,-1050 975,-1043 972.55,-1050 977.45,-1050"/>
</g>
<!-- S&#45;151 -->
<g id="node21" class="node">
<title>S&#45;151</title>
<polygon fill="mediumseagreen" stroke="black" points="1136,-1154 1064,-1132.5 1136,-1111 1208,-1132.5 1136,-1154"/>
<text text-anchor="middle" x="1136" y="-1130" font-family="Arial" font-size="10.00">S&#45;151</text>
</g>
<!-- C&#45;0090&#45;&gt;S&#45;151 -->
<g id="edge23" class="edge">
<title>C&#45;0090&#45;&gt;S&#45;151</title>
<path fill="none" stroke="#4d4d4d" d="M996,-1218.08C996,-1189.69 996,-1132 996,-1132 996,-1132 1058.59,-1132 1058.59,-1132"/>
<polygon fill="#4d4d4d" stroke="#4d4d4d" points="1058.59,-1134.45 1065.59,-1132 1058.59,-1129.55 1058.59,-1134.45"/>
</g>
<!-- C&#45;0905 -->
<g id="node27" class="node">
<title>C&#45;0905</title>
<ellipse fill="mediumseagreen" stroke="black" cx="1316" cy="-1132.5" rx="72" ry="21.5"/>
<text text-anchor="middle" x="1316" y="-1130" font-family="Arial" font-size="10.00">C&#45;0905</text>
</g>
<!-- C&#45;0090&#45;&gt;C&#45;0905 -->
<g id="edge25" class="edge">
<title>C&#45;0090&#45;&gt;C&#45;0905</title>
<path fill="none" stroke="#4d4d4d" d="M1017.41,-1233C1125.38,-1233 1316,-1233 1316,-1233 1316,-1233 1316,-1161.31 1316,-1161.31"/>
<polygon fill="#4d4d4d" stroke="#4d4d4d" points="1318.45,-1161.31 1316,-1154.31 1313.55,-1161.31 1318.45,-1161.31"/>
</g>
<!-- S&#45;167 -->
<g id="node17" class="node">
<title>S&#45;167</title>
<polygon fill="mediumseagreen" stroke="black" points="702,-750 630,-728.5 702,-707 774,-728.5 702,-750"/>
<text text-anchor="middle" x="702" y="-726" font-family="Arial" font-size="10.00">S&#45;167</text>
</g>
<!-- C&#45;0799 -->
<g id="node18" class="node">
<title>C&#45;0799</title>
<ellipse fill="mediumseagreen" stroke="black" cx="432" cy="-223.5" rx="72" ry="21.5"/>
<text text-anchor="middle" x="432" y="-221" font-family="Arial" font-size="10.00">C&#45;0799</text>
</g>
<!-- C&#45;0799&#45;&gt;R&#45;178 -->
<g id="edge20" class="edge">
<title>C&#45;0799&#45;&gt;R&#45;178</title>
<path fill="none" stroke="#4d4d4d" d="M425,-202.08C425,-202.08 425,-151.24 425,-151.24"/>
<polygon fill="#4d4d4d" stroke="#4d4d4d" points="427.45,-151.24 425,-144.24 422.55,-151.24 427.45,-151.24"/>
</g>
<!-- C&#45;0450 -->
<g id="node24" class="node">
<title>C&#45;0450</title>
<ellipse fill="mediumseagreen" stroke="black" cx="432" cy="-324.5" rx="72" ry="21.5"/>
<text text-anchor="middle" x="432" y="-322" font-family="Arial" font-size="10.00">C&#45;0450</text>
</g>
<!-- C&#45;0880&#45;&gt;C&#45;0450 -->
<g id="edge18" class="edge">
<title>C&#45;0880&#45;&gt;C&#45;0450</title>
<path fill="none" stroke="#4d4d4d" d="M319.65,-418C379.03,-418 456,-418 456,-418 456,-418 456,-351.79 456,-351.79"/>
<polygon fill="#4d4d4d" stroke="#4d4d4d" points="458.45,-351.79 456,-344.79 453.55,-351.79 458.45,-351.79"/>
</g>
<!-- S&#45;949 -->
<g id="node25" class="node">
<title>S&#45;949</title>
<polygon fill="mediumseagreen" stroke="black" points="72,-346 0,-324.5 72,-303 144,-324.5 72,-346"/>
<text text-anchor="middle" x="72" y="-322" font-family="Arial" font-size="10.00">S&#45;949</text>
</g>
<!-- C&#45;0880&#45;&gt;S&#45;949 -->
<g id="edge17" class="edge">
<title>C&#45;0880&#45;&gt;S&#45;949</title>
<path fill="none" stroke="#4d4d4d" d="M179.76,-425C147.66,-425 117,-425 117,-425 117,-425 117,-339.72 117,-339.72"/>
<polygon fill="#4d4d4d" stroke="#4d4d4d" points="119.45,-339.72 117,-332.72 114.55,-339.72 119.45,-339.72"/>
</g>
<!-- C&#45;0449 -->
<g id="node35" class="node">
<title>C&#45;0449</title>
<ellipse fill="tomato" stroke="black" cx="252" cy="-324.5" rx="72" ry="21.5"/>
<text text-anchor="middle" x="252" y="-322" font-family="Arial" font-size="10.00">C&#45;0449</text>
</g>
<!-- C&#45;0880&#45;&gt;C&#45;0449 -->
<g id="edge16" class="edge">
<title>C&#45;0880&#45;&gt;C&#45;0449</title>
<path fill="none" stroke="#4d4d4d" d="M252,-403.58C252,-403.58 252,-353.03 252,-353.03"/>
<polygon fill="#4d4d4d" stroke="#4d4d4d" points="254.45,-353.03 252,-346.03 249.55,-353.03 254.45,-353.03"/>
</g>
<!-- S&#45;1631 -->
<g id="node20" class="node">
<title>S&#45;1631</title>
<polygon fill="mediumseagreen" stroke="black" points="882,-750 810,-728.5 882,-707 954,-728.5 882,-750"/>
<text text-anchor="middle" x="882" y="-726" font-family="Arial" font-size="10.00">S&#45;1631</text>
</g>
<!-- S&#45;1064 -->
<g id="node22" class="node">
<title>S&#45;1064</title>
<polygon fill="mediumseagreen" stroke="black" points="162,-750 90,-728.5 162,-707 234,-728.5 162,-750"/>
<text text-anchor="middle" x="162" y="-726" font-family="Arial" font-size="10.00">S&#45;1064</text>
</g>
<!-- C&#45;0879&#45;&gt;C&#45;0880 -->
<g id="edge38" class="edge">
<title>C&#45;0879&#45;&gt;C&#45;0880</title>
<path fill="none" stroke="blue" stroke-dasharray="5,2" d="M408,-606.95C408,-556.75 408,-432 408,-432 408,-432 327.88,-432 327.88,-432"/>
<polygon fill="blue" stroke="blue" points="327.88,-429.55 320.88,-432 327.88,-434.45 327.88,-429.55"/>
</g>
<!-- C&#45;0450&#45;&gt;C&#45;0801 -->
<g id="edge21" class="edge">
<title>C&#45;0450&#45;&gt;C&#45;0801</title>
<path fill="none" stroke="#4d4d4d" d="M504.23,-324C533.26,-324 560,-324 560,-324 560,-324 560,-148.1 560,-148.1"/>
<polygon fill="#4d4d4d" stroke="#4d4d4d" points="562.45,-148.1 560,-141.1 557.55,-148.1 562.45,-148.1"/>
</g>
<!-- C&#45;0450&#45;&gt;C&#45;0799 -->
<g id="edge19" class="edge">
<title>C&#45;0450&#45;&gt;C&#45;0799</title>
<path fill="none" stroke="#4d4d4d" d="M432,-302.58C432,-302.58 432,-252.03 432,-252.03"/>
<polygon fill="#4d4d4d" stroke="#4d4d4d" points="434.45,-252.03 432,-245.03 429.55,-252.03 434.45,-252.03"/>
</g>
<!-- C&#45;0339&#45;&gt;C&#45;0430 -->
<g id="edge30" class="edge">
<title>C&#45;0339&#45;&gt;C&#45;0430</title>
<path fill="none" stroke="#4d4d4d" d="M1316,-807.58C1316,-807.58 1316,-757.03 1316,-757.03"/>
<polygon fill="#4d4d4d" stroke="#4d4d4d" points="1318.45,-757.03 1316,-750.03 1313.55,-757.03 1318.45,-757.03"/>
</g>
<!-- C&#45;0339&#45;&gt;C&#45;0097 -->
<g id="edge29" class="edge">
<title>C&#45;0339&#45;&gt;C&#45;0097</title>
<path fill="none" stroke="#4d4d4d" d="M1243.77,-829C1196.9,-829 1144.5,-829 1144.5,-829 1144.5,-829 1144.5,-757.31 1144.5,-757.31"/>
<polygon fill="#4d4d4d" stroke="#4d4d4d" points="1146.95,-757.31 1144.5,-750.31 1142.05,-757.31 1146.95,-757.31"/>
</g>
<!-- S&#45;2185 -->
<g id="node36" class="node">
<title>S&#45;2185</title>
<polygon fill="mediumseagreen" stroke="black" points="1496,-750 1424,-728.5 1496,-707 1568,-728.5 1496,-750"/>
<text text-anchor="middle" x="1496" y="-726" font-family="Arial" font-size="10.00">S&#45;2185</text>
</g>
<!-- C&#45;0339&#45;&gt;S&#45;2185 -->
<g id="edge36" class="edge">
<title>C&#45;0339&#45;&gt;S&#45;2185</title>
<path fill="none" stroke="#4d4d4d" d="M1388.18,-829C1438.25,-829 1496,-829 1496,-829 1496,-829 1496,-757.31 1496,-757.31"/>
<polygon fill="#4d4d4d" stroke="#4d4d4d" points="1498.45,-757.31 1496,-750.31 1493.55,-757.31 1498.45,-757.31"/>
</g>
<!-- R&#45;211 -->
<g id="node34" class="node">
<title>R&#45;211</title>
<polygon fill="mediumseagreen" stroke="black" points="1388,-1022.59 1388,-1040.41 1345.82,-1053 1286.18,-1053 1244,-1040.41 1244,-1022.59 1286.18,-1010 1345.82,-1010 1388,-1022.59"/>
<text text-anchor="middle" x="1316" y="-1029" font-family="Arial" font-size="10.00">R&#45;211</text>
</g>
<!-- C&#45;0905&#45;&gt;R&#45;211 -->
<g id="edge26" class="edge">
<title>C&#45;0905&#45;&gt;R&#45;211</title>
<path fill="none" stroke="#4d4d4d" d="M1316,-1110.58C1316,-1110.58 1316,-1060.03 1316,-1060.03"/>
<polygon fill="#4d4d4d" stroke="#4d4d4d" points="1318.45,-1060.03 1316,-1053.03 1313.55,-1060.03 1318.45,-1060.03"/>
</g>
<!-- C&#45;0485 -->
<g id="node33" class="node">
<title>C&#45;0485</title>
<ellipse fill="mediumseagreen" stroke="black" cx="522" cy="-829.5" rx="72" ry="21.5"/>
<text text-anchor="middle" x="522" y="-827" font-family="Arial" font-size="10.00">C&#45;0485</text>
</g>
<!-- C&#45;0443&#45;&gt;C&#45;0485 -->
<g id="edge6" class="edge">
<title>C&#45;0443&#45;&gt;C&#45;0485</title>
<path fill="none" stroke="#4d4d4d" d="M522,-908.58C522,-908.58 522,-858.03 522,-858.03"/>
<polygon fill="#4d4d4d" stroke="#4d4d4d" points="524.45,-858.03 522,-851.03 519.55,-858.03 524.45,-858.03"/>
</g>
<!-- R&#45;063&#45;&gt;C&#45;0443 -->
<g id="edge5" class="edge">
<title>R&#45;063&#45;&gt;C&#45;0443</title>
<path fill="none" stroke="#4d4d4d" d="M617,-1018.63C617,-989.89 617,-923 617,-923 617,-923 596.52,-923 596.52,-923"/>
<polygon fill="#4d4d4d" stroke="#4d4d4d" points="596.52,-920.55 589.52,-923 596.52,-925.45 596.52,-920.55"/>
</g>
<!-- C&#45;1219&#45;&gt;R&#45;301 -->
<g id="edge34" class="edge">
<title>C&#45;1219&#45;&gt;R&#45;301</title>
<path fill="none" stroke="#4d4d4d" d="M1207,-505.08C1207,-505.08 1207,-454.24 1207,-454.24"/>
<polygon fill="#4d4d4d" stroke="#4d4d4d" points="1209.45,-454.24 1207,-447.24 1204.55,-454.24 1209.45,-454.24"/>
</g>
<!-- 110&#45;26&#45; -->
<g id="node31" class="node">
<title>110&#45;26&#45;</title>
<polygon fill="gold" stroke="black" points="1017,-1329.59 1017,-1347.41 974.82,-1360 915.18,-1360 873,-1347.41 873,-1329.59 915.18,-1317 974.82,-1317 1017,-1329.59"/>
<polygon fill="none" stroke="black" points="1021,-1326.61 1021,-1350.39 975.41,-1364 914.59,-1364 869,-1350.39 869,-1326.61 914.59,-1313 975.41,-1313 1021,-1326.61"/>
<text text-anchor="middle" x="945" y="-1336" font-family="Arial" font-size="10.00">110&#45;26&#45;</text>
</g>
<!-- 110&#45;26&#45;&#45;&gt;C&#45;0090 -->
<g id="edge1" class="edge">
<title>110&#45;26&#45;&#45;&gt;C&#45;0090</title>
<path fill="none" stroke="#4d4d4d" d="M945,-1312.81C945,-1312.81 945,-1262.03 945,-1262.03"/>
<polygon fill="#4d4d4d" stroke="#4d4d4d" points="947.45,-1262.03 945,-1255.03 942.55,-1262.03 947.45,-1262.03"/>
</g>
<!-- C&#45;0878&#45;&gt;R&#45;203 -->
<g id="edge14" class="edge">
<title>C&#45;0878&#45;&gt;R&#45;203</title>
<path fill="none" stroke="#4d4d4d" d="M252,-605.58C252,-605.58 252,-555.03 252,-555.03"/>
<polygon fill="#4d4d4d" stroke="#4d4d4d" points="254.45,-555.03 252,-548.03 249.55,-555.03 254.45,-555.03"/>
</g>
<!-- C&#45;0485&#45;&gt;C&#45;0431 -->
<g id="edge11" class="edge">
<title>C&#45;0485&#45;&gt;C&#45;0431</title>
<path fill="none" stroke="#4d4d4d" d="M454.46,-822C403.39,-822 342,-822 342,-822 342,-822 342,-757.19 342,-757.19"/>
<polygon fill="#4d4d4d" stroke="#4d4d4d" points="344.45,-757.19 342,-750.19 339.55,-757.19 344.45,-757.19"/>
</g>
<!-- C&#45;0485&#45;&gt;S&#45;2429 -->
<g id="edge9" class="edge">
<title>C&#45;0485&#45;&gt;S&#45;2429</title>
<path fill="none" stroke="#4d4d4d" d="M522,-807.58C522,-807.58 522,-757.03 522,-757.03"/>
<polygon fill="#4d4d4d" stroke="#4d4d4d" points="524.45,-757.03 522,-750.03 519.55,-757.03 524.45,-757.03"/>
</g>
<!-- C&#45;0485&#45;&gt;S&#45;167 -->
<g id="edge10" class="edge">
<title>C&#45;0485&#45;&gt;S&#45;167</title>
<path fill="none" stroke="#4d4d4d" d="M583.24,-818C630.9,-818 689,-818 689,-818 689,-818 689,-753.18 689,-753.18"/>
<polygon fill="#4d4d4d" stroke="#4d4d4d" points="691.45,-753.18 689,-746.18 686.55,-753.18 691.45,-753.18"/>
</g>
<!-- C&#45;0485&#45;&gt;S&#45;1631 -->
<g id="edge8" class="edge">
<title>C&#45;0485&#45;&gt;S&#45;1631</title>
<path fill="none" stroke="#4d4d4d" d="M585.22,-840C691.54,-840 894.67,-840 894.67,-840 894.67,-840 894.67,-753.41 894.67,-753.41"/>
<polygon fill="#4d4d4d" stroke="#4d4d4d" points="897.12,-753.41 894.67,-746.41 892.22,-753.41 897.12,-753.41"/>
</g>
<!-- C&#45;0485&#45;&gt;S&#45;1064 -->
<g id="edge7" class="edge">
<title>C&#45;0485&#45;&gt;S&#45;1064</title>
<path fill="none" stroke="#4d4d4d" d="M453.01,-836C348.48,-836 162,-836 162,-836 162,-836 162,-757.25 162,-757.25"/>
<polygon fill="#4d4d4d" stroke="#4d4d4d" points="164.45,-757.25 162,-750.25 159.55,-757.25 164.45,-757.25"/>
</g>
<!-- R&#45;211&#45;&gt;C&#45;0907 -->
<g id="edge27" class="edge">
<title>R&#45;211&#45;&gt;C&#45;0907</title>
<path fill="none" stroke="#4d4d4d" d="M1316,-1009.58C1316,-1009.58 1316,-959.03 1316,-959.03"/>
<polygon fill="#4d4d4d" stroke="#4d4d4d" points="1318.45,-959.03 1316,-952.03 1313.55,-959.03 1318.45,-959.03"/>
</g>
<!-- ext_circ_111_23_ -->
<g id="node38" class="node">
<title>ext_circ_111_23_</title>
<polygon fill="lightpink" stroke="darkorange" stroke-dasharray="5,2" points="324,-245 180,-245 180,-202 324,-202 324,-245"/>
<text text-anchor="middle" x="252" y="-226.5" font-family="Arial" font-size="10.00">Circuito:</text>
<text text-anchor="middle" x="252" y="-215.5" font-family="Arial" font-size="10.00">111&#45;23&#45;</text>
</g>
<!-- C&#45;0449&#45;&gt;ext_circ_111_23_ -->
<g id="edge39" class="edge">
<title>C&#45;0449&#45;&gt;ext_circ_111_23_</title>
<path fill="none" stroke="darkorange" stroke-dasharray="5,2" d="M252,-302.58C252,-302.58 252,-252.03 252,-252.03"/>
<polygon fill="darkorange" stroke="darkorange" points="254.45,-252.03 252,-245.03 249.55,-252.03 254.45,-252.03"/>
</g>
<!-- C&#45;1220&#45;&gt;ext_circ_109_28_ -->
<g id="edge46" class="edge">
<title>C&#45;1220&#45;&gt;ext_circ_109_28_</title>
<path fill="none" stroke="darkorange" stroke-dasharray="5,2" d="M1335,-408.37C1335,-408.37 1335,-353.31 1335,-353.31"/>
<polygon fill="darkorange" stroke="darkorange" points="1337.45,-353.31 1335,-346.31 1332.55,-353.31 1337.45,-353.31"/>
</g>
</g>
</svg>
