<?xml version="1.0" encoding="UTF-8" standalone="no"?>
<!DOCTYPE svg PUBLIC "-//W3C//DTD SVG 1.1//EN"
 "http://www.w3.org/Graphics/SVG/1.1/DTD/svg11.dtd">
<!-- Generated by graphviz version 2.50.0 (0)
 -->
<!-- Title: Grafo_Circuito_113_26_ Pages: 1 -->
<svg width="1206pt" height="1069pt"
 viewBox="0.00 0.00 1206.00 1069.00" xmlns="http://www.w3.org/2000/svg" xmlns:xlink="http://www.w3.org/1999/xlink">
<g id="graph0" class="graph" transform="scale(1 1) rotate(0) translate(4 1065)">
<title>Grafo_Circuito_113_26_</title>
<polygon fill="white" stroke="transparent" points="-4,4 -4,-1065 1202,-1065 1202,4 -4,4"/>
<!-- C&#45;0403 -->
<g id="node1" class="node">
<title>C&#45;0403</title>
<ellipse fill="mediumseagreen" stroke="black" cx="432" cy="-425.5" rx="72" ry="21.5"/>
<text text-anchor="middle" x="432" y="-423" font-family="Arial" font-size="10.00">C&#45;0403</text>
</g>
<!-- S&#45;1227 -->
<g id="node12" class="node">
<title>S&#45;1227</title>
<polygon fill="mediumseagreen" stroke="black" points="406,-346 334,-324.5 406,-303 478,-324.5 406,-346"/>
<text text-anchor="middle" x="406" y="-322" font-family="Arial" font-size="10.00">S&#45;1227</text>
</g>
<!-- C&#45;0403&#45;&gt;S&#45;1227 -->
<g id="edge19" class="edge">
<title>C&#45;0403&#45;&gt;S&#45;1227</title>
<path fill="none" stroke="#4d4d4d" d="M419,-404.08C419,-404.08 419,-349.19 419,-349.19"/>
<polygon fill="#4d4d4d" stroke="#4d4d4d" points="421.45,-349.19 419,-342.19 416.55,-349.19 421.45,-349.19"/>
</g>
<!-- S&#45;1197 -->
<g id="node13" class="node">
<title>S&#45;1197</title>
<polygon fill="mediumseagreen" stroke="black" points="586,-346 514,-324.5 586,-303 658,-324.5 586,-346"/>
<text text-anchor="middle" x="586" y="-322" font-family="Arial" font-size="10.00">S&#45;1197</text>
</g>
<!-- C&#45;0403&#45;&gt;S&#45;1197 -->
<g id="edge11" class="edge">
<title>C&#45;0403&#45;&gt;S&#45;1197</title>
<path fill="none" stroke="#4d4d4d" d="M491,-413.05C491,-384.55 491,-317 491,-317 491,-317 532.06,-317 532.06,-317"/>
<polygon fill="#4d4d4d" stroke="#4d4d4d" points="532.06,-319.45 539.06,-317 532.06,-314.55 532.06,-319.45"/>
</g>
<!-- C&#45;1210 -->
<g id="node2" class="node">
<title>C&#45;1210</title>
<ellipse fill="mediumseagreen" stroke="black" cx="226" cy="-223.5" rx="72" ry="21.5"/>
<text text-anchor="middle" x="226" y="-221" font-family="Arial" font-size="10.00">C&#45;1210</text>
</g>
<!-- R&#45;148 -->
<g id="node3" class="node">
<title>R&#45;148</title>
<polygon fill="mediumseagreen" stroke="black" points="414,-719.59 414,-737.41 371.82,-750 312.18,-750 270,-737.41 270,-719.59 312.18,-707 371.82,-707 414,-719.59"/>
<text text-anchor="middle" x="342" y="-726" font-family="Arial" font-size="10.00">R&#45;148</text>
</g>
<!-- S&#45;881 -->
<g id="node5" class="node">
<title>S&#45;881</title>
<polygon fill="mediumseagreen" stroke="black" points="72,-649 0,-627.5 72,-606 144,-627.5 72,-649"/>
<text text-anchor="middle" x="72" y="-625" font-family="Arial" font-size="10.00">S&#45;881</text>
</g>
<!-- R&#45;148&#45;&gt;S&#45;881 -->
<g id="edge4" class="edge">
<title>R&#45;148&#45;&gt;S&#45;881</title>
<path fill="none" stroke="#4d4d4d" d="M270,-728C190.02,-728 72,-728 72,-728 72,-728 72,-656.31 72,-656.31"/>
<polygon fill="#4d4d4d" stroke="#4d4d4d" points="74.45,-656.31 72,-649.31 69.55,-656.31 74.45,-656.31"/>
</g>
<!-- S&#45;2176 -->
<g id="node9" class="node">
<title>S&#45;2176</title>
<polygon fill="mediumseagreen" stroke="black" points="252,-649 180,-627.5 252,-606 324,-627.5 252,-649"/>
<text text-anchor="middle" x="252" y="-625" font-family="Arial" font-size="10.00">S&#45;2176</text>
</g>
<!-- R&#45;148&#45;&gt;S&#45;2176 -->
<g id="edge6" class="edge">
<title>R&#45;148&#45;&gt;S&#45;2176</title>
<path fill="none" stroke="#4d4d4d" d="M297,-711.37C297,-711.37 297,-642.78 297,-642.78"/>
<polygon fill="#4d4d4d" stroke="#4d4d4d" points="299.45,-642.78 297,-635.78 294.55,-642.78 299.45,-642.78"/>
</g>
<!-- C&#45;0402 -->
<g id="node17" class="node">
<title>C&#45;0402</title>
<ellipse fill="mediumseagreen" stroke="black" cx="432" cy="-627.5" rx="72" ry="21.5"/>
<text text-anchor="middle" x="432" y="-625" font-family="Arial" font-size="10.00">C&#45;0402</text>
</g>
<!-- R&#45;148&#45;&gt;C&#45;0402 -->
<g id="edge7" class="edge">
<title>R&#45;148&#45;&gt;C&#45;0402</title>
<path fill="none" stroke="#4d4d4d" d="M387,-711.37C387,-711.37 387,-651.38 387,-651.38"/>
<polygon fill="#4d4d4d" stroke="#4d4d4d" points="389.45,-651.38 387,-644.38 384.55,-651.38 389.45,-651.38"/>
</g>
<!-- C&#45;0401 -->
<g id="node18" class="node">
<title>C&#45;0401</title>
<ellipse fill="tomato" stroke="black" cx="612" cy="-627.5" rx="72" ry="21.5"/>
<text text-anchor="middle" x="612" y="-625" font-family="Arial" font-size="10.00">C&#45;0401</text>
</g>
<!-- R&#45;148&#45;&gt;C&#45;0401 -->
<g id="edge8" class="edge">
<title>R&#45;148&#45;&gt;C&#45;0401</title>
<path fill="none" stroke="#4d4d4d" d="M414,-728C493.98,-728 612,-728 612,-728 612,-728 612,-656.31 612,-656.31"/>
<polygon fill="#4d4d4d" stroke="#4d4d4d" points="614.45,-656.31 612,-649.31 609.55,-656.31 614.45,-656.31"/>
</g>
<!-- S&#45;2391 -->
<g id="node4" class="node">
<title>S&#45;2391</title>
<polygon fill="mediumseagreen" stroke="black" points="406,-245 334,-223.5 406,-202 478,-223.5 406,-245"/>
<text text-anchor="middle" x="406" y="-221" font-family="Arial" font-size="10.00">S&#45;2391</text>
</g>
<!-- S&#45;1644 -->
<g id="node20" class="node">
<title>S&#45;1644</title>
<polygon fill="mediumseagreen" stroke="black" points="72,-548 0,-526.5 72,-505 144,-526.5 72,-548"/>
<text text-anchor="middle" x="72" y="-524" font-family="Arial" font-size="10.00">S&#45;1644</text>
</g>
<!-- S&#45;881&#45;&gt;S&#45;1644 -->
<g id="edge5" class="edge">
<title>S&#45;881&#45;&gt;S&#45;1644</title>
<path fill="none" stroke="#4d4d4d" d="M72,-605.58C72,-605.58 72,-555.03 72,-555.03"/>
<polygon fill="#4d4d4d" stroke="#4d4d4d" points="74.45,-555.03 72,-548.03 69.55,-555.03 74.45,-555.03"/>
</g>
<!-- C&#45;1262 -->
<g id="node6" class="node">
<title>C&#45;1262</title>
<ellipse fill="tomato" stroke="black" cx="946" cy="-122.5" rx="72" ry="21.5"/>
<text text-anchor="middle" x="946" y="-120" font-family="Arial" font-size="10.00">C&#45;1262</text>
</g>
<!-- ext_circ_112_22_ -->
<g id="node21" class="node">
<title>ext_circ_112_22_</title>
<polygon fill="lightpink" stroke="darkorange" stroke-dasharray="5,2" points="1108,-43 964,-43 964,0 1108,0 1108,-43"/>
<text text-anchor="middle" x="1036" y="-24.5" font-family="Arial" font-size="10.00">Circuito:</text>
<text text-anchor="middle" x="1036" y="-13.5" font-family="Arial" font-size="10.00">112&#45;22&#45;</text>
</g>
<!-- C&#45;1262&#45;&gt;ext_circ_112_22_ -->
<g id="edge21" class="edge">
<title>C&#45;1262&#45;&gt;ext_circ_112_22_</title>
<path fill="none" stroke="darkorange" stroke-dasharray="5,2" d="M991,-105.37C991,-105.37 991,-50.31 991,-50.31"/>
<polygon fill="darkorange" stroke="darkorange" points="993.45,-50.31 991,-43.31 988.55,-50.31 993.45,-50.31"/>
</g>
<!-- 113&#45;26&#45; -->
<g id="node7" class="node">
<title>113&#45;26&#45;</title>
<polygon fill="gold" stroke="black" points="414,-1026.59 414,-1044.41 371.82,-1057 312.18,-1057 270,-1044.41 270,-1026.59 312.18,-1014 371.82,-1014 414,-1026.59"/>
<polygon fill="none" stroke="black" points="418,-1023.61 418,-1047.39 372.41,-1061 311.59,-1061 266,-1047.39 266,-1023.61 311.59,-1010 372.41,-1010 418,-1023.61"/>
<text text-anchor="middle" x="342" y="-1033" font-family="Arial" font-size="10.00">113&#45;26&#45;</text>
</g>
<!-- C&#45;0172 -->
<g id="node16" class="node">
<title>C&#45;0172</title>
<ellipse fill="mediumseagreen" stroke="black" cx="342" cy="-930.5" rx="72" ry="21.5"/>
<text text-anchor="middle" x="342" y="-928" font-family="Arial" font-size="10.00">C&#45;0172</text>
</g>
<!-- 113&#45;26&#45;&#45;&gt;C&#45;0172 -->
<g id="edge1" class="edge">
<title>113&#45;26&#45;&#45;&gt;C&#45;0172</title>
<path fill="none" stroke="#4d4d4d" d="M342,-1009.81C342,-1009.81 342,-959.03 342,-959.03"/>
<polygon fill="#4d4d4d" stroke="#4d4d4d" points="344.45,-959.03 342,-952.03 339.55,-959.03 344.45,-959.03"/>
</g>
<!-- R&#45;092 -->
<g id="node8" class="node">
<title>R&#45;092</title>
<polygon fill="tomato" stroke="black" points="1198,-113.59 1198,-131.41 1155.82,-144 1096.18,-144 1054,-131.41 1054,-113.59 1096.18,-101 1155.82,-101 1198,-113.59"/>
<text text-anchor="middle" x="1126" y="-120" font-family="Arial" font-size="10.00">R&#45;092</text>
</g>
<!-- R&#45;092&#45;&gt;ext_circ_112_22_ -->
<g id="edge22" class="edge">
<title>R&#45;092&#45;&gt;ext_circ_112_22_</title>
<path fill="none" stroke="darkorange" stroke-dasharray="5,2" d="M1081,-105.37C1081,-105.37 1081,-50.31 1081,-50.31"/>
<polygon fill="darkorange" stroke="darkorange" points="1083.45,-50.31 1081,-43.31 1078.55,-50.31 1083.45,-50.31"/>
</g>
<!-- S&#45;2384 -->
<g id="node10" class="node">
<title>S&#45;2384</title>
<polygon fill="mediumseagreen" stroke="black" points="586,-245 514,-223.5 586,-202 658,-223.5 586,-245"/>
<text text-anchor="middle" x="586" y="-221" font-family="Arial" font-size="10.00">S&#45;2384</text>
</g>
<!-- R&#45;137 -->
<g id="node11" class="node">
<title>R&#45;137</title>
<polygon fill="mediumseagreen" stroke="black" points="504,-517.59 504,-535.41 461.82,-548 402.18,-548 360,-535.41 360,-517.59 402.18,-505 461.82,-505 504,-517.59"/>
<text text-anchor="middle" x="432" y="-524" font-family="Arial" font-size="10.00">R&#45;137</text>
</g>
<!-- R&#45;137&#45;&gt;C&#45;0403 -->
<g id="edge10" class="edge">
<title>R&#45;137&#45;&gt;C&#45;0403</title>
<path fill="none" stroke="#4d4d4d" d="M432,-504.58C432,-504.58 432,-454.03 432,-454.03"/>
<polygon fill="#4d4d4d" stroke="#4d4d4d" points="434.45,-454.03 432,-447.03 429.55,-454.03 434.45,-454.03"/>
</g>
<!-- S&#45;1197&#45;&gt;C&#45;1210 -->
<g id="edge17" class="edge">
<title>S&#45;1197&#45;&gt;C&#45;1210</title>
<path fill="none" stroke="#4d4d4d" d="M562,-310.16C562,-295.23 562,-274 562,-274 562,-274 239,-274 239,-274 239,-274 239,-251.92 239,-251.92"/>
<polygon fill="#4d4d4d" stroke="#4d4d4d" points="241.45,-251.92 239,-244.92 236.55,-251.92 241.45,-251.92"/>
</g>
<!-- S&#45;1197&#45;&gt;S&#45;2391 -->
<g id="edge15" class="edge">
<title>S&#45;1197&#45;&gt;S&#45;2391</title>
<path fill="none" stroke="#4d4d4d" d="M535.5,-331C520.99,-331 509,-331 509,-331 509,-331 509,-223 509,-223 509,-223 483.41,-223 483.41,-223"/>
<polygon fill="#4d4d4d" stroke="#4d4d4d" points="483.41,-220.55 476.41,-223 483.41,-225.45 483.41,-220.55"/>
</g>
<!-- S&#45;1197&#45;&gt;S&#45;2384 -->
<g id="edge18" class="edge">
<title>S&#45;1197&#45;&gt;S&#45;2384</title>
<path fill="none" stroke="#4d4d4d" d="M610,-310.03C610,-310.03 610,-244.94 610,-244.94"/>
<polygon fill="#4d4d4d" stroke="#4d4d4d" points="612.45,-244.94 610,-237.94 607.55,-244.94 612.45,-244.94"/>
</g>
<!-- C&#45;0332 -->
<g id="node15" class="node">
<title>C&#45;0332</title>
<ellipse fill="tomato" stroke="black" cx="766" cy="-223.5" rx="72" ry="21.5"/>
<text text-anchor="middle" x="766" y="-221" font-family="Arial" font-size="10.00">C&#45;0332</text>
</g>
<!-- S&#45;1197&#45;&gt;C&#45;0332 -->
<g id="edge16" class="edge">
<title>S&#45;1197&#45;&gt;C&#45;0332</title>
<path fill="none" stroke="#4d4d4d" d="M633.29,-317C686.62,-317 766,-317 766,-317 766,-317 766,-252.19 766,-252.19"/>
<polygon fill="#4d4d4d" stroke="#4d4d4d" points="768.45,-252.19 766,-245.19 763.55,-252.19 768.45,-252.19"/>
</g>
<!-- S&#45;1093 -->
<g id="node19" class="node">
<title>S&#45;1093</title>
<polygon fill="mediumseagreen" stroke="black" points="946,-245 874,-223.5 946,-202 1018,-223.5 946,-245"/>
<text text-anchor="middle" x="946" y="-221" font-family="Arial" font-size="10.00">S&#45;1093</text>
</g>
<!-- S&#45;1197&#45;&gt;S&#45;1093 -->
<g id="edge12" class="edge">
<title>S&#45;1197&#45;&gt;S&#45;1093</title>
<path fill="none" stroke="#4d4d4d" d="M636.44,-331C735.51,-331 946,-331 946,-331 946,-331 946,-252.25 946,-252.25"/>
<polygon fill="#4d4d4d" stroke="#4d4d4d" points="948.45,-252.25 946,-245.25 943.55,-252.25 948.45,-252.25"/>
</g>
<!-- C&#45;0512 -->
<g id="node14" class="node">
<title>C&#45;0512</title>
<ellipse fill="mediumseagreen" stroke="black" cx="342" cy="-829.5" rx="72" ry="21.5"/>
<text text-anchor="middle" x="342" y="-827" font-family="Arial" font-size="10.00">C&#45;0512</text>
</g>
<!-- C&#45;0512&#45;&gt;R&#45;148 -->
<g id="edge3" class="edge">
<title>C&#45;0512&#45;&gt;R&#45;148</title>
<path fill="none" stroke="#4d4d4d" d="M342,-807.58C342,-807.58 342,-757.03 342,-757.03"/>
<polygon fill="#4d4d4d" stroke="#4d4d4d" points="344.45,-757.03 342,-750.03 339.55,-757.03 344.45,-757.03"/>
</g>
<!-- ext_circ_112_23_ -->
<g id="node22" class="node">
<title>ext_circ_112_23_</title>
<polygon fill="lightpink" stroke="darkorange" stroke-dasharray="5,2" points="838,-144 694,-144 694,-101 838,-101 838,-144"/>
<text text-anchor="middle" x="766" y="-125.5" font-family="Arial" font-size="10.00">Circuito:</text>
<text text-anchor="middle" x="766" y="-114.5" font-family="Arial" font-size="10.00">112&#45;23&#45;</text>
</g>
<!-- C&#45;0332&#45;&gt;ext_circ_112_23_ -->
<g id="edge23" class="edge">
<title>C&#45;0332&#45;&gt;ext_circ_112_23_</title>
<path fill="none" stroke="darkorange" stroke-dasharray="5,2" d="M766,-201.58C766,-201.58 766,-151.03 766,-151.03"/>
<polygon fill="darkorange" stroke="darkorange" points="768.45,-151.03 766,-144.03 763.55,-151.03 768.45,-151.03"/>
</g>
<!-- C&#45;0172&#45;&gt;C&#45;0512 -->
<g id="edge2" class="edge">
<title>C&#45;0172&#45;&gt;C&#45;0512</title>
<path fill="none" stroke="#4d4d4d" d="M342,-908.58C342,-908.58 342,-858.03 342,-858.03"/>
<polygon fill="#4d4d4d" stroke="#4d4d4d" points="344.45,-858.03 342,-851.03 339.55,-858.03 344.45,-858.03"/>
</g>
<!-- C&#45;0402&#45;&gt;R&#45;137 -->
<g id="edge9" class="edge">
<title>C&#45;0402&#45;&gt;R&#45;137</title>
<path fill="none" stroke="#4d4d4d" d="M432,-605.58C432,-605.58 432,-555.03 432,-555.03"/>
<polygon fill="#4d4d4d" stroke="#4d4d4d" points="434.45,-555.03 432,-548.03 429.55,-555.03 434.45,-555.03"/>
</g>
<!-- C&#45;0401&#45;&gt;S&#45;1197 -->
<g id="edge20" class="edge">
<title>C&#45;0401&#45;&gt;S&#45;1197</title>
<path fill="none" stroke="blue" stroke-dasharray="5,2" d="M599,-606.19C599,-606.19 599,-349.28 599,-349.28"/>
<polygon fill="blue" stroke="blue" points="601.45,-349.28 599,-342.28 596.55,-349.28 601.45,-349.28"/>
</g>
<!-- S&#45;1093&#45;&gt;C&#45;1262 -->
<g id="edge13" class="edge">
<title>S&#45;1093&#45;&gt;C&#45;1262</title>
<path fill="none" stroke="#4d4d4d" d="M946,-201.58C946,-201.58 946,-151.03 946,-151.03"/>
<polygon fill="#4d4d4d" stroke="#4d4d4d" points="948.45,-151.03 946,-144.03 943.55,-151.03 948.45,-151.03"/>
</g>
<!-- S&#45;1093&#45;&gt;R&#45;092 -->
<g id="edge14" class="edge">
<title>S&#45;1093&#45;&gt;R&#45;092</title>
<path fill="none" stroke="#4d4d4d" d="M1016.37,-223C1066.85,-223 1126,-223 1126,-223 1126,-223 1126,-151.31 1126,-151.31"/>
<polygon fill="#4d4d4d" stroke="#4d4d4d" points="1128.45,-151.31 1126,-144.31 1123.55,-151.31 1128.45,-151.31"/>
</g>
</g>
</svg>
