<?xml version="1.0" encoding="UTF-8" standalone="no"?>
<!DOCTYPE svg PUBLIC "-//W3C//DTD SVG 1.1//EN"
 "http://www.w3.org/Graphics/SVG/1.1/DTD/svg11.dtd">
<!-- Generated by graphviz version 2.50.0 (0)
 -->
<!-- Title: Grafo_Circuito_111_23_ Pages: 1 -->
<svg width="962pt" height="1574pt"
 viewBox="0.00 0.00 962.00 1574.00" xmlns="http://www.w3.org/2000/svg" xmlns:xlink="http://www.w3.org/1999/xlink">
<g id="graph0" class="graph" transform="scale(1 1) rotate(0) translate(4 1570)">
<title>Grafo_Circuito_111_23_</title>
<polygon fill="white" stroke="transparent" points="-4,4 -4,-1570 958,-1570 958,4 -4,4"/>
<!-- R&#45;073 -->
<g id="node1" class="node">
<title>R&#45;073</title>
<polygon fill="mediumseagreen" stroke="black" points="504,-921.59 504,-939.41 461.82,-952 402.18,-952 360,-939.41 360,-921.59 402.18,-909 461.82,-909 504,-921.59"/>
<text text-anchor="middle" x="432" y="-928" font-family="Arial" font-size="10.00">R&#45;073</text>
</g>
<!-- C&#45;0803 -->
<g id="node6" class="node">
<title>C&#45;0803</title>
<ellipse fill="mediumseagreen" stroke="black" cx="72" cy="-829.5" rx="72" ry="21.5"/>
<text text-anchor="middle" x="72" y="-827" font-family="Arial" font-size="10.00">C&#45;0803</text>
</g>
<!-- R&#45;073&#45;&gt;C&#45;0803 -->
<g id="edge31" class="edge">
<title>R&#45;073&#45;&gt;C&#45;0803</title>
<path fill="none" stroke="#4d4d4d" d="M359.58,-937C254.46,-937 72,-937 72,-937 72,-937 72,-858.25 72,-858.25"/>
<polygon fill="#4d4d4d" stroke="#4d4d4d" points="74.45,-858.25 72,-851.25 69.55,-858.25 74.45,-858.25"/>
</g>
<!-- S&#45;PR37 -->
<g id="node10" class="node">
<title>S&#45;PR37</title>
<polygon fill="mediumseagreen" stroke="black" points="252,-851 180,-829.5 252,-808 324,-829.5 252,-851"/>
<text text-anchor="middle" x="252" y="-827" font-family="Arial" font-size="10.00">S&#45;PR37</text>
</g>
<!-- R&#45;073&#45;&gt;S&#45;PR37 -->
<g id="edge13" class="edge">
<title>R&#45;073&#45;&gt;S&#45;PR37</title>
<path fill="none" stroke="#4d4d4d" d="M359.82,-923C309.75,-923 252,-923 252,-923 252,-923 252,-858.19 252,-858.19"/>
<polygon fill="#4d4d4d" stroke="#4d4d4d" points="254.45,-858.19 252,-851.19 249.55,-858.19 254.45,-858.19"/>
</g>
<!-- S&#45;2132 -->
<g id="node12" class="node">
<title>S&#45;2132</title>
<polygon fill="mediumseagreen" stroke="black" points="432,-851 360,-829.5 432,-808 504,-829.5 432,-851"/>
<text text-anchor="middle" x="432" y="-827" font-family="Arial" font-size="10.00">S&#45;2132</text>
</g>
<!-- R&#45;073&#45;&gt;S&#45;2132 -->
<g id="edge11" class="edge">
<title>R&#45;073&#45;&gt;S&#45;2132</title>
<path fill="none" stroke="#4d4d4d" d="M432,-908.58C432,-908.58 432,-858.03 432,-858.03"/>
<polygon fill="#4d4d4d" stroke="#4d4d4d" points="434.45,-858.03 432,-851.03 429.55,-858.03 434.45,-858.03"/>
</g>
<!-- C&#45;0288 -->
<g id="node32" class="node">
<title>C&#45;0288</title>
<ellipse fill="mediumseagreen" stroke="black" cx="612" cy="-829.5" rx="72" ry="21.5"/>
<text text-anchor="middle" x="612" y="-827" font-family="Arial" font-size="10.00">C&#45;0288</text>
</g>
<!-- R&#45;073&#45;&gt;C&#45;0288 -->
<g id="edge32" class="edge">
<title>R&#45;073&#45;&gt;C&#45;0288</title>
<path fill="none" stroke="#4d4d4d" d="M504.18,-923C554.25,-923 612,-923 612,-923 612,-923 612,-858.19 612,-858.19"/>
<polygon fill="#4d4d4d" stroke="#4d4d4d" points="614.45,-858.19 612,-851.19 609.55,-858.19 614.45,-858.19"/>
</g>
<!-- S&#45;2378 -->
<g id="node33" class="node">
<title>S&#45;2378</title>
<polygon fill="mediumseagreen" stroke="black" points="792,-851 720,-829.5 792,-808 864,-829.5 792,-851"/>
<text text-anchor="middle" x="792" y="-827" font-family="Arial" font-size="10.00">S&#45;2378</text>
</g>
<!-- R&#45;073&#45;&gt;S&#45;2378 -->
<g id="edge12" class="edge">
<title>R&#45;073&#45;&gt;S&#45;2378</title>
<path fill="none" stroke="#4d4d4d" d="M504.42,-937C609.54,-937 792,-937 792,-937 792,-937 792,-858.25 792,-858.25"/>
<polygon fill="#4d4d4d" stroke="#4d4d4d" points="794.45,-858.25 792,-851.25 789.55,-858.25 794.45,-858.25"/>
</g>
<!-- S&#45;052 -->
<g id="node2" class="node">
<title>S&#45;052</title>
<polygon fill="mediumseagreen" stroke="black" points="342,-144 270,-122.5 342,-101 414,-122.5 342,-144"/>
<text text-anchor="middle" x="342" y="-120" font-family="Arial" font-size="10.00">S&#45;052</text>
</g>
<!-- S&#45;2284 -->
<g id="node3" class="node">
<title>S&#45;2284</title>
<polygon fill="mediumseagreen" stroke="black" points="522,-43 450,-21.5 522,0 594,-21.5 522,-43"/>
<text text-anchor="middle" x="522" y="-19" font-family="Arial" font-size="10.00">S&#45;2284</text>
</g>
<!-- S&#45;157 -->
<g id="node4" class="node">
<title>S&#45;157</title>
<polygon fill="mediumseagreen" stroke="black" points="342,-1255 270,-1233.5 342,-1212 414,-1233.5 342,-1255"/>
<text text-anchor="middle" x="342" y="-1231" font-family="Arial" font-size="10.00">S&#45;157</text>
</g>
<!-- 111&#45;23&#45; -->
<g id="node5" class="node">
<title>111&#45;23&#45;</title>
<polygon fill="gold" stroke="black" points="594,-1531.59 594,-1549.41 551.82,-1562 492.18,-1562 450,-1549.41 450,-1531.59 492.18,-1519 551.82,-1519 594,-1531.59"/>
<polygon fill="none" stroke="black" points="598,-1528.61 598,-1552.39 552.41,-1566 491.59,-1566 446,-1552.39 446,-1528.61 491.59,-1515 552.41,-1515 598,-1528.61"/>
<text text-anchor="middle" x="522" y="-1538" font-family="Arial" font-size="10.00">111&#45;23&#45;</text>
</g>
<!-- C&#45;0183 -->
<g id="node18" class="node">
<title>C&#45;0183</title>
<ellipse fill="mediumseagreen" stroke="black" cx="522" cy="-1435.5" rx="72" ry="21.5"/>
<text text-anchor="middle" x="522" y="-1433" font-family="Arial" font-size="10.00">C&#45;0183</text>
</g>
<!-- 111&#45;23&#45;&#45;&gt;C&#45;0183 -->
<g id="edge1" class="edge">
<title>111&#45;23&#45;&#45;&gt;C&#45;0183</title>
<path fill="none" stroke="#4d4d4d" d="M522,-1514.81C522,-1514.81 522,-1464.03 522,-1464.03"/>
<polygon fill="#4d4d4d" stroke="#4d4d4d" points="524.45,-1464.03 522,-1457.03 519.55,-1464.03 524.45,-1464.03"/>
</g>
<!-- S&#45;1614 -->
<g id="node7" class="node">
<title>S&#45;1614</title>
<polygon fill="mediumseagreen" stroke="black" points="342,-245 270,-223.5 342,-202 414,-223.5 342,-245"/>
<text text-anchor="middle" x="342" y="-221" font-family="Arial" font-size="10.00">S&#45;1614</text>
</g>
<!-- S&#45;166 -->
<g id="node8" class="node">
<title>S&#45;166</title>
<polygon fill="mediumseagreen" stroke="black" points="72,-649 0,-627.5 72,-606 144,-627.5 72,-649"/>
<text text-anchor="middle" x="72" y="-625" font-family="Arial" font-size="10.00">S&#45;166</text>
</g>
<!-- S&#45;1508 -->
<g id="node9" class="node">
<title>S&#45;1508</title>
<polygon fill="mediumseagreen" stroke="black" points="72,-750 0,-728.5 72,-707 144,-728.5 72,-750"/>
<text text-anchor="middle" x="72" y="-726" font-family="Arial" font-size="10.00">S&#45;1508</text>
</g>
<!-- S&#45;PR37&#45;&gt;S&#45;1508 -->
<g id="edge14" class="edge">
<title>S&#45;PR37&#45;&gt;S&#45;1508</title>
<path fill="none" stroke="#4d4d4d" d="M181.47,-829C166.96,-829 156,-829 156,-829 156,-829 156,-735 156,-735 156,-735 129.32,-735 129.32,-735"/>
<polygon fill="#4d4d4d" stroke="#4d4d4d" points="129.32,-732.55 122.32,-735 129.32,-737.45 129.32,-732.55"/>
</g>
<!-- S&#45;1062 -->
<g id="node11" class="node">
<title>S&#45;1062</title>
<polygon fill="mediumseagreen" stroke="black" points="252,-750 180,-728.5 252,-707 324,-728.5 252,-750"/>
<text text-anchor="middle" x="252" y="-726" font-family="Arial" font-size="10.00">S&#45;1062</text>
</g>
<!-- S&#45;PR37&#45;&gt;S&#45;1062 -->
<g id="edge15" class="edge">
<title>S&#45;PR37&#45;&gt;S&#45;1062</title>
<path fill="none" stroke="#4d4d4d" d="M252,-807.58C252,-807.58 252,-757.03 252,-757.03"/>
<polygon fill="#4d4d4d" stroke="#4d4d4d" points="254.45,-757.03 252,-750.03 249.55,-757.03 254.45,-757.03"/>
</g>
<!-- S&#45;1062&#45;&gt;S&#45;166 -->
<g id="edge30" class="edge">
<title>S&#45;1062&#45;&gt;S&#45;166</title>
<path fill="none" stroke="#4d4d4d" d="M205.09,-721C185.85,-721 168,-721 168,-721 168,-721 168,-627 168,-627 168,-627 149.53,-627 149.53,-627"/>
<polygon fill="#4d4d4d" stroke="#4d4d4d" points="149.53,-624.55 142.53,-627 149.53,-629.45 149.53,-624.55"/>
</g>
<!-- C&#45;0449 -->
<g id="node17" class="node">
<title>C&#45;0449</title>
<ellipse fill="tomato" stroke="black" cx="252" cy="-627.5" rx="72" ry="21.5"/>
<text text-anchor="middle" x="252" y="-625" font-family="Arial" font-size="10.00">C&#45;0449</text>
</g>
<!-- S&#45;1062&#45;&gt;C&#45;0449 -->
<g id="edge16" class="edge">
<title>S&#45;1062&#45;&gt;C&#45;0449</title>
<path fill="none" stroke="#4d4d4d" d="M252,-706.58C252,-706.58 252,-656.03 252,-656.03"/>
<polygon fill="#4d4d4d" stroke="#4d4d4d" points="254.45,-656.03 252,-649.03 249.55,-656.03 254.45,-656.03"/>
</g>
<!-- C&#45;0877 -->
<g id="node25" class="node">
<title>C&#45;0877</title>
<ellipse fill="mediumseagreen" stroke="black" cx="432" cy="-627.5" rx="72" ry="21.5"/>
<text text-anchor="middle" x="432" y="-625" font-family="Arial" font-size="10.00">C&#45;0877</text>
</g>
<!-- S&#45;1062&#45;&gt;C&#45;0877 -->
<g id="edge17" class="edge">
<title>S&#45;1062&#45;&gt;C&#45;0877</title>
<path fill="none" stroke="#4d4d4d" d="M322.37,-728C372.85,-728 432,-728 432,-728 432,-728 432,-656.31 432,-656.31"/>
<polygon fill="#4d4d4d" stroke="#4d4d4d" points="434.45,-656.31 432,-649.31 429.55,-656.31 434.45,-656.31"/>
</g>
<!-- C&#45;0289 -->
<g id="node13" class="node">
<title>C&#45;0289</title>
<ellipse fill="mediumseagreen" stroke="black" cx="522" cy="-1132.5" rx="72" ry="21.5"/>
<text text-anchor="middle" x="522" y="-1130" font-family="Arial" font-size="10.00">C&#45;0289</text>
</g>
<!-- S&#45;159 -->
<g id="node20" class="node">
<title>S&#45;159</title>
<polygon fill="mediumseagreen" stroke="black" points="252,-1053 180,-1031.5 252,-1010 324,-1031.5 252,-1053"/>
<text text-anchor="middle" x="252" y="-1029" font-family="Arial" font-size="10.00">S&#45;159</text>
</g>
<!-- C&#45;0289&#45;&gt;S&#45;159 -->
<g id="edge6" class="edge">
<title>C&#45;0289&#45;&gt;S&#45;159</title>
<path fill="none" stroke="#4d4d4d" d="M449.88,-1132C384.07,-1132 297,-1132 297,-1132 297,-1132 297,-1046.72 297,-1046.72"/>
<polygon fill="#4d4d4d" stroke="#4d4d4d" points="299.45,-1046.72 297,-1039.72 294.55,-1046.72 299.45,-1046.72"/>
</g>
<!-- C&#45;0145 -->
<g id="node22" class="node">
<title>C&#45;0145</title>
<ellipse fill="mediumseagreen" stroke="black" cx="432" cy="-1031.5" rx="72" ry="21.5"/>
<text text-anchor="middle" x="432" y="-1029" font-family="Arial" font-size="10.00">C&#45;0145</text>
</g>
<!-- C&#45;0289&#45;&gt;C&#45;0145 -->
<g id="edge9" class="edge">
<title>C&#45;0289&#45;&gt;C&#45;0145</title>
<path fill="none" stroke="#4d4d4d" d="M477,-1115.37C477,-1115.37 477,-1055.38 477,-1055.38"/>
<polygon fill="#4d4d4d" stroke="#4d4d4d" points="479.45,-1055.38 477,-1048.38 474.55,-1055.38 479.45,-1055.38"/>
</g>
<!-- S&#45;160 -->
<g id="node30" class="node">
<title>S&#45;160</title>
<polygon fill="mediumseagreen" stroke="black" points="612,-1053 540,-1031.5 612,-1010 684,-1031.5 612,-1053"/>
<text text-anchor="middle" x="612" y="-1029" font-family="Arial" font-size="10.00">S&#45;160</text>
</g>
<!-- C&#45;0289&#45;&gt;S&#45;160 -->
<g id="edge7" class="edge">
<title>C&#45;0289&#45;&gt;S&#45;160</title>
<path fill="none" stroke="#4d4d4d" d="M567,-1115.37C567,-1115.37 567,-1046.78 567,-1046.78"/>
<polygon fill="#4d4d4d" stroke="#4d4d4d" points="569.45,-1046.78 567,-1039.78 564.55,-1046.78 569.45,-1046.78"/>
</g>
<!-- S&#45;2144 -->
<g id="node31" class="node">
<title>S&#45;2144</title>
<polygon fill="mediumseagreen" stroke="black" points="792,-1053 720,-1031.5 792,-1010 864,-1031.5 792,-1053"/>
<text text-anchor="middle" x="792" y="-1029" font-family="Arial" font-size="10.00">S&#45;2144</text>
</g>
<!-- C&#45;0289&#45;&gt;S&#45;2144 -->
<g id="edge8" class="edge">
<title>C&#45;0289&#45;&gt;S&#45;2144</title>
<path fill="none" stroke="#4d4d4d" d="M594,-1132C673.98,-1132 792,-1132 792,-1132 792,-1132 792,-1060.31 792,-1060.31"/>
<polygon fill="#4d4d4d" stroke="#4d4d4d" points="794.45,-1060.31 792,-1053.31 789.55,-1060.31 794.45,-1060.31"/>
</g>
<!-- S&#45;053 -->
<g id="node14" class="node">
<title>S&#45;053</title>
<polygon fill="mediumseagreen" stroke="black" points="522,-245 450,-223.5 522,-202 594,-223.5 522,-245"/>
<text text-anchor="middle" x="522" y="-221" font-family="Arial" font-size="10.00">S&#45;053</text>
</g>
<!-- S&#45;053&#45;&gt;S&#45;052 -->
<g id="edge24" class="edge">
<title>S&#45;053&#45;&gt;S&#45;052</title>
<path fill="none" stroke="#4d4d4d" d="M451.53,-223C440.14,-223 432,-223 432,-223 432,-223 432,-122 432,-122 432,-122 419.47,-122 419.47,-122"/>
<polygon fill="#4d4d4d" stroke="#4d4d4d" points="419.47,-119.55 412.47,-122 419.47,-124.45 419.47,-119.55"/>
</g>
<!-- S&#45;2154 -->
<g id="node23" class="node">
<title>S&#45;2154</title>
<polygon fill="mediumseagreen" stroke="black" points="522,-144 450,-122.5 522,-101 594,-122.5 522,-144"/>
<text text-anchor="middle" x="522" y="-120" font-family="Arial" font-size="10.00">S&#45;2154</text>
</g>
<!-- S&#45;053&#45;&gt;S&#45;2154 -->
<g id="edge25" class="edge">
<title>S&#45;053&#45;&gt;S&#45;2154</title>
<path fill="none" stroke="#4d4d4d" d="M522,-201.58C522,-201.58 522,-151.03 522,-151.03"/>
<polygon fill="#4d4d4d" stroke="#4d4d4d" points="524.45,-151.03 522,-144.03 519.55,-151.03 524.45,-151.03"/>
</g>
<!-- C&#45;0875 -->
<g id="node15" class="node">
<title>C&#45;0875</title>
<ellipse fill="mediumseagreen" stroke="black" cx="432" cy="-425.5" rx="72" ry="21.5"/>
<text text-anchor="middle" x="432" y="-423" font-family="Arial" font-size="10.00">C&#45;0875</text>
</g>
<!-- S&#45;165 -->
<g id="node24" class="node">
<title>S&#45;165</title>
<polygon fill="mediumseagreen" stroke="black" points="252,-346 180,-324.5 252,-303 324,-324.5 252,-346"/>
<text text-anchor="middle" x="252" y="-322" font-family="Arial" font-size="10.00">S&#45;165</text>
</g>
<!-- C&#45;0875&#45;&gt;S&#45;165 -->
<g id="edge21" class="edge">
<title>C&#45;0875&#45;&gt;S&#45;165</title>
<path fill="none" stroke="#4d4d4d" d="M359.82,-425C309.75,-425 252,-425 252,-425 252,-425 252,-353.31 252,-353.31"/>
<polygon fill="#4d4d4d" stroke="#4d4d4d" points="254.45,-353.31 252,-346.31 249.55,-353.31 254.45,-353.31"/>
</g>
<!-- C&#45;0876 -->
<g id="node26" class="node">
<title>C&#45;0876</title>
<ellipse fill="tomato" stroke="black" cx="432" cy="-324.5" rx="72" ry="21.5"/>
<text text-anchor="middle" x="432" y="-322" font-family="Arial" font-size="10.00">C&#45;0876</text>
</g>
<!-- C&#45;0875&#45;&gt;C&#45;0876 -->
<g id="edge19" class="edge">
<title>C&#45;0875&#45;&gt;C&#45;0876</title>
<path fill="none" stroke="#4d4d4d" d="M432,-403.58C432,-403.58 432,-353.03 432,-353.03"/>
<polygon fill="#4d4d4d" stroke="#4d4d4d" points="434.45,-353.03 432,-346.03 429.55,-353.03 434.45,-353.03"/>
</g>
<!-- C&#45;0184 -->
<g id="node34" class="node">
<title>C&#45;0184</title>
<ellipse fill="mediumseagreen" stroke="black" cx="612" cy="-324.5" rx="72" ry="21.5"/>
<text text-anchor="middle" x="612" y="-322" font-family="Arial" font-size="10.00">C&#45;0184</text>
</g>
<!-- C&#45;0875&#45;&gt;C&#45;0184 -->
<g id="edge22" class="edge">
<title>C&#45;0875&#45;&gt;C&#45;0184</title>
<path fill="none" stroke="#4d4d4d" d="M504.18,-425C554.25,-425 612,-425 612,-425 612,-425 612,-353.31 612,-353.31"/>
<polygon fill="#4d4d4d" stroke="#4d4d4d" points="614.45,-353.31 612,-346.31 609.55,-353.31 614.45,-353.31"/>
</g>
<!-- S&#45;1628 -->
<g id="node16" class="node">
<title>S&#45;1628</title>
<polygon fill="mediumseagreen" stroke="black" points="612,-649 540,-627.5 612,-606 684,-627.5 612,-649"/>
<text text-anchor="middle" x="612" y="-625" font-family="Arial" font-size="10.00">S&#45;1628</text>
</g>
<!-- ext_circ_110_26_ -->
<g id="node37" class="node">
<title>ext_circ_110_26_</title>
<polygon fill="lightpink" stroke="darkorange" stroke-dasharray="5,2" points="324,-548 180,-548 180,-505 324,-505 324,-548"/>
<text text-anchor="middle" x="252" y="-529.5" font-family="Arial" font-size="10.00">Circuito:</text>
<text text-anchor="middle" x="252" y="-518.5" font-family="Arial" font-size="10.00">110&#45;26&#45;</text>
</g>
<!-- C&#45;0449&#45;&gt;ext_circ_110_26_ -->
<g id="edge36" class="edge">
<title>C&#45;0449&#45;&gt;ext_circ_110_26_</title>
<path fill="none" stroke="darkorange" stroke-dasharray="5,2" d="M252,-605.58C252,-605.58 252,-555.03 252,-555.03"/>
<polygon fill="darkorange" stroke="darkorange" points="254.45,-555.03 252,-548.03 249.55,-555.03 254.45,-555.03"/>
</g>
<!-- C&#45;0353 -->
<g id="node27" class="node">
<title>C&#45;0353</title>
<ellipse fill="mediumseagreen" stroke="black" cx="432" cy="-1334.5" rx="72" ry="21.5"/>
<text text-anchor="middle" x="432" y="-1332" font-family="Arial" font-size="10.00">C&#45;0353</text>
</g>
<!-- C&#45;0183&#45;&gt;C&#45;0353 -->
<g id="edge2" class="edge">
<title>C&#45;0183&#45;&gt;C&#45;0353</title>
<path fill="none" stroke="#4d4d4d" d="M477,-1418.37C477,-1418.37 477,-1358.38 477,-1358.38"/>
<polygon fill="#4d4d4d" stroke="#4d4d4d" points="479.45,-1358.38 477,-1351.38 474.55,-1358.38 479.45,-1358.38"/>
</g>
<!-- S&#45;155 -->
<g id="node36" class="node">
<title>S&#45;155</title>
<polygon fill="mediumseagreen" stroke="black" points="612,-1356 540,-1334.5 612,-1313 684,-1334.5 612,-1356"/>
<text text-anchor="middle" x="612" y="-1332" font-family="Arial" font-size="10.00">S&#45;155</text>
</g>
<!-- C&#45;0183&#45;&gt;S&#45;155 -->
<g id="edge35" class="edge">
<title>C&#45;0183&#45;&gt;S&#45;155</title>
<path fill="none" stroke="#4d4d4d" d="M567,-1418.37C567,-1418.37 567,-1349.78 567,-1349.78"/>
<polygon fill="#4d4d4d" stroke="#4d4d4d" points="569.45,-1349.78 567,-1342.78 564.55,-1349.78 569.45,-1349.78"/>
</g>
<!-- C&#45;0231 -->
<g id="node19" class="node">
<title>C&#45;0231</title>
<ellipse fill="mediumseagreen" stroke="black" cx="522" cy="-1233.5" rx="72" ry="21.5"/>
<text text-anchor="middle" x="522" y="-1231" font-family="Arial" font-size="10.00">C&#45;0231</text>
</g>
<!-- C&#45;0231&#45;&gt;C&#45;0289 -->
<g id="edge5" class="edge">
<title>C&#45;0231&#45;&gt;C&#45;0289</title>
<path fill="none" stroke="#4d4d4d" d="M522,-1211.58C522,-1211.58 522,-1161.03 522,-1161.03"/>
<polygon fill="#4d4d4d" stroke="#4d4d4d" points="524.45,-1161.03 522,-1154.03 519.55,-1161.03 524.45,-1161.03"/>
</g>
<!-- S&#45;163 -->
<g id="node21" class="node">
<title>S&#45;163</title>
<polygon fill="mediumseagreen" stroke="black" points="612,-750 540,-728.5 612,-707 684,-728.5 612,-750"/>
<text text-anchor="middle" x="612" y="-726" font-family="Arial" font-size="10.00">S&#45;163</text>
</g>
<!-- S&#45;163&#45;&gt;S&#45;1628 -->
<g id="edge34" class="edge">
<title>S&#45;163&#45;&gt;S&#45;1628</title>
<path fill="none" stroke="#4d4d4d" d="M612,-706.58C612,-706.58 612,-656.03 612,-656.03"/>
<polygon fill="#4d4d4d" stroke="#4d4d4d" points="614.45,-656.03 612,-649.03 609.55,-656.03 614.45,-656.03"/>
</g>
<!-- C&#45;0145&#45;&gt;R&#45;073 -->
<g id="edge10" class="edge">
<title>C&#45;0145&#45;&gt;R&#45;073</title>
<path fill="none" stroke="#4d4d4d" d="M432,-1009.58C432,-1009.58 432,-959.03 432,-959.03"/>
<polygon fill="#4d4d4d" stroke="#4d4d4d" points="434.45,-959.03 432,-952.03 429.55,-959.03 434.45,-959.03"/>
</g>
<!-- S&#45;2154&#45;&gt;S&#45;2284 -->
<g id="edge26" class="edge">
<title>S&#45;2154&#45;&gt;S&#45;2284</title>
<path fill="none" stroke="#4d4d4d" d="M522,-100.58C522,-100.58 522,-50.03 522,-50.03"/>
<polygon fill="#4d4d4d" stroke="#4d4d4d" points="524.45,-50.03 522,-43.03 519.55,-50.03 524.45,-50.03"/>
</g>
<!-- R&#45;202 -->
<g id="node28" class="node">
<title>R&#45;202</title>
<polygon fill="mediumseagreen" stroke="black" points="504,-517.59 504,-535.41 461.82,-548 402.18,-548 360,-535.41 360,-517.59 402.18,-505 461.82,-505 504,-517.59"/>
<text text-anchor="middle" x="432" y="-524" font-family="Arial" font-size="10.00">R&#45;202</text>
</g>
<!-- C&#45;0877&#45;&gt;R&#45;202 -->
<g id="edge18" class="edge">
<title>C&#45;0877&#45;&gt;R&#45;202</title>
<path fill="none" stroke="#4d4d4d" d="M432,-605.58C432,-605.58 432,-555.03 432,-555.03"/>
<polygon fill="#4d4d4d" stroke="#4d4d4d" points="434.45,-555.03 432,-548.03 429.55,-555.03 434.45,-555.03"/>
</g>
<!-- C&#45;0876&#45;&gt;C&#45;0877 -->
<g id="edge37" class="edge">
<title>C&#45;0876&#45;&gt;C&#45;0877</title>
<path fill="none" stroke="blue" stroke-dasharray="5,2" d="M359.78,-324C349.32,-324 342,-324 342,-324 342,-324 342,-627 342,-627 342,-627 352.78,-627 352.78,-627"/>
<polygon fill="blue" stroke="blue" points="352.78,-629.45 359.78,-627 352.78,-624.55 352.78,-629.45"/>
</g>
<!-- C&#45;0353&#45;&gt;S&#45;157 -->
<g id="edge3" class="edge">
<title>C&#45;0353&#45;&gt;S&#45;157</title>
<path fill="none" stroke="#4d4d4d" d="M387,-1317.37C387,-1317.37 387,-1248.78 387,-1248.78"/>
<polygon fill="#4d4d4d" stroke="#4d4d4d" points="389.45,-1248.78 387,-1241.78 384.55,-1248.78 389.45,-1248.78"/>
</g>
<!-- C&#45;0353&#45;&gt;C&#45;0231 -->
<g id="edge4" class="edge">
<title>C&#45;0353&#45;&gt;C&#45;0231</title>
<path fill="none" stroke="#4d4d4d" d="M477,-1317.37C477,-1317.37 477,-1257.38 477,-1257.38"/>
<polygon fill="#4d4d4d" stroke="#4d4d4d" points="479.45,-1257.38 477,-1250.38 474.55,-1257.38 479.45,-1257.38"/>
</g>
<!-- R&#45;202&#45;&gt;C&#45;0875 -->
<g id="edge20" class="edge">
<title>R&#45;202&#45;&gt;C&#45;0875</title>
<path fill="none" stroke="#4d4d4d" d="M432,-504.58C432,-504.58 432,-454.03 432,-454.03"/>
<polygon fill="#4d4d4d" stroke="#4d4d4d" points="434.45,-454.03 432,-447.03 429.55,-454.03 434.45,-454.03"/>
</g>
<!-- C&#45;0001 -->
<g id="node29" class="node">
<title>C&#45;0001</title>
<ellipse fill="tomato" stroke="black" cx="702" cy="-223.5" rx="72" ry="21.5"/>
<text text-anchor="middle" x="702" y="-221" font-family="Arial" font-size="10.00">C&#45;0001</text>
</g>
<!-- ext_circ_111_22_ -->
<g id="node38" class="node">
<title>ext_circ_111_22_</title>
<polygon fill="lightpink" stroke="darkorange" stroke-dasharray="5,2" points="774,-144 630,-144 630,-101 774,-101 774,-144"/>
<text text-anchor="middle" x="702" y="-125.5" font-family="Arial" font-size="10.00">Circuito:</text>
<text text-anchor="middle" x="702" y="-114.5" font-family="Arial" font-size="10.00">111&#45;22&#45;</text>
</g>
<!-- C&#45;0001&#45;&gt;ext_circ_111_22_ -->
<g id="edge38" class="edge">
<title>C&#45;0001&#45;&gt;ext_circ_111_22_</title>
<path fill="none" stroke="darkorange" stroke-dasharray="5,2" d="M702,-201.58C702,-201.58 702,-151.03 702,-151.03"/>
<polygon fill="darkorange" stroke="darkorange" points="704.45,-151.03 702,-144.03 699.55,-151.03 704.45,-151.03"/>
</g>
<!-- C&#45;0288&#45;&gt;S&#45;163 -->
<g id="edge33" class="edge">
<title>C&#45;0288&#45;&gt;S&#45;163</title>
<path fill="none" stroke="#4d4d4d" d="M612,-807.58C612,-807.58 612,-757.03 612,-757.03"/>
<polygon fill="#4d4d4d" stroke="#4d4d4d" points="614.45,-757.03 612,-750.03 609.55,-757.03 614.45,-757.03"/>
</g>
<!-- C&#45;0184&#45;&gt;S&#45;1614 -->
<g id="edge29" class="edge">
<title>C&#45;0184&#45;&gt;S&#45;1614</title>
<path fill="none" stroke="#4d4d4d" d="M558,-310.16C558,-295.23 558,-274 558,-274 558,-274 387,-274 387,-274 387,-274 387,-238.84 387,-238.84"/>
<polygon fill="#4d4d4d" stroke="#4d4d4d" points="389.45,-238.84 387,-231.84 384.55,-238.84 389.45,-238.84"/>
</g>
<!-- C&#45;0184&#45;&gt;S&#45;053 -->
<g id="edge23" class="edge">
<title>C&#45;0184&#45;&gt;S&#45;053</title>
<path fill="none" stroke="#4d4d4d" d="M576,-305.5C576,-305.5 576,-235.97 576,-235.97"/>
<polygon fill="#4d4d4d" stroke="#4d4d4d" points="578.45,-235.97 576,-228.97 573.55,-235.97 578.45,-235.97"/>
</g>
<!-- C&#45;0184&#45;&gt;C&#45;0001 -->
<g id="edge27" class="edge">
<title>C&#45;0184&#45;&gt;C&#45;0001</title>
<path fill="none" stroke="#4d4d4d" d="M657,-307.37C657,-307.37 657,-247.38 657,-247.38"/>
<polygon fill="#4d4d4d" stroke="#4d4d4d" points="659.45,-247.38 657,-240.38 654.55,-247.38 659.45,-247.38"/>
</g>
<!-- C&#45;0797 -->
<g id="node35" class="node">
<title>C&#45;0797</title>
<ellipse fill="mediumseagreen" stroke="black" cx="882" cy="-223.5" rx="72" ry="21.5"/>
<text text-anchor="middle" x="882" y="-221" font-family="Arial" font-size="10.00">C&#45;0797</text>
</g>
<!-- C&#45;0184&#45;&gt;C&#45;0797 -->
<g id="edge28" class="edge">
<title>C&#45;0184&#45;&gt;C&#45;0797</title>
<path fill="none" stroke="#4d4d4d" d="M684.12,-324C749.93,-324 837,-324 837,-324 837,-324 837,-247.55 837,-247.55"/>
<polygon fill="#4d4d4d" stroke="#4d4d4d" points="839.45,-247.55 837,-240.55 834.55,-247.55 839.45,-247.55"/>
</g>
</g>
</svg>
