<?xml version="1.0" encoding="UTF-8" standalone="no"?>
<!DOCTYPE svg PUBLIC "-//W3C//DTD SVG 1.1//EN"
 "http://www.w3.org/Graphics/SVG/1.1/DTD/svg11.dtd">
<!-- Generated by graphviz version 2.50.0 (0)
 -->
<!-- Title: Grafo_Circuito_109_23_ Pages: 1 -->
<svg width="1330pt" height="1372pt"
 viewBox="0.00 0.00 1330.00 1372.00" xmlns="http://www.w3.org/2000/svg" xmlns:xlink="http://www.w3.org/1999/xlink">
<g id="graph0" class="graph" transform="scale(1 1) rotate(0) translate(4 1368)">
<title>Grafo_Circuito_109_23_</title>
<polygon fill="white" stroke="transparent" points="-4,4 -4,-1368 1326,-1368 1326,4 -4,4"/>
<!-- C&#45;0351 -->
<g id="node1" class="node">
<title>C&#45;0351</title>
<ellipse fill="mediumseagreen" stroke="black" cx="766" cy="-1132.5" rx="72" ry="21.5"/>
<text text-anchor="middle" x="766" y="-1130" font-family="Arial" font-size="10.00">C&#45;0351</text>
</g>
<!-- C&#45;0882 -->
<g id="node2" class="node">
<title>C&#45;0882</title>
<ellipse fill="mediumseagreen" stroke="black" cx="586" cy="-1031.5" rx="72" ry="21.5"/>
<text text-anchor="middle" x="586" y="-1029" font-family="Arial" font-size="10.00">C&#45;0882</text>
</g>
<!-- C&#45;0351&#45;&gt;C&#45;0882 -->
<g id="edge5" class="edge">
<title>C&#45;0351&#45;&gt;C&#45;0882</title>
<path fill="none" stroke="#4d4d4d" d="M693.82,-1132C643.75,-1132 586,-1132 586,-1132 586,-1132 586,-1060.31 586,-1060.31"/>
<polygon fill="#4d4d4d" stroke="#4d4d4d" points="588.45,-1060.31 586,-1053.31 583.55,-1060.31 588.45,-1060.31"/>
</g>
<!-- C&#45;0247 -->
<g id="node4" class="node">
<title>C&#45;0247</title>
<ellipse fill="tomato" stroke="black" cx="766" cy="-1031.5" rx="72" ry="21.5"/>
<text text-anchor="middle" x="766" y="-1029" font-family="Arial" font-size="10.00">C&#45;0247</text>
</g>
<!-- C&#45;0351&#45;&gt;C&#45;0247 -->
<g id="edge30" class="edge">
<title>C&#45;0351&#45;&gt;C&#45;0247</title>
<path fill="none" stroke="#4d4d4d" d="M766,-1110.58C766,-1110.58 766,-1060.03 766,-1060.03"/>
<polygon fill="#4d4d4d" stroke="#4d4d4d" points="768.45,-1060.03 766,-1053.03 763.55,-1060.03 768.45,-1060.03"/>
</g>
<!-- C&#45;0354 -->
<g id="node23" class="node">
<title>C&#45;0354</title>
<ellipse fill="mediumseagreen" stroke="black" cx="408" cy="-930.5" rx="72" ry="21.5"/>
<text text-anchor="middle" x="408" y="-928" font-family="Arial" font-size="10.00">C&#45;0354</text>
</g>
<!-- C&#45;0882&#45;&gt;C&#45;0354 -->
<g id="edge6" class="edge">
<title>C&#45;0882&#45;&gt;C&#45;0354</title>
<path fill="none" stroke="#4d4d4d" d="M513.86,-1031C464.52,-1031 408,-1031 408,-1031 408,-1031 408,-959.31 408,-959.31"/>
<polygon fill="#4d4d4d" stroke="#4d4d4d" points="410.45,-959.31 408,-952.31 405.55,-959.31 410.45,-959.31"/>
</g>
<!-- S&#45;1589 -->
<g id="node34" class="node">
<title>S&#45;1589</title>
<polygon fill="mediumseagreen" stroke="black" points="588,-952 516,-930.5 588,-909 660,-930.5 588,-952"/>
<text text-anchor="middle" x="588" y="-928" font-family="Arial" font-size="10.00">S&#45;1589</text>
</g>
<!-- C&#45;0882&#45;&gt;S&#45;1589 -->
<g id="edge29" class="edge">
<title>C&#45;0882&#45;&gt;S&#45;1589</title>
<path fill="none" stroke="#4d4d4d" d="M587,-1009.58C587,-1009.58 587,-959.03 587,-959.03"/>
<polygon fill="#4d4d4d" stroke="#4d4d4d" points="589.45,-959.03 587,-952.03 584.55,-959.03 589.45,-959.03"/>
</g>
<!-- C&#45;1244 -->
<g id="node3" class="node">
<title>C&#45;1244</title>
<ellipse fill="mediumseagreen" stroke="black" cx="950" cy="-1132.5" rx="72" ry="21.5"/>
<text text-anchor="middle" x="950" y="-1130" font-family="Arial" font-size="10.00">C&#45;1244</text>
</g>
<!-- SW&#45;002_A -->
<g id="node15" class="node">
<title>SW&#45;002_A</title>
<polygon fill="tomato" stroke="black" points="1023.79,-1053 904.81,-1053 874.21,-1010 993.19,-1010 1023.79,-1053"/>
<text text-anchor="middle" x="949" y="-1029" font-family="Arial" font-size="10.00">SW&#45;002_A</text>
</g>
<!-- C&#45;1244&#45;&gt;SW&#45;002_A -->
<g id="edge33" class="edge">
<title>C&#45;1244&#45;&gt;SW&#45;002_A</title>
<path fill="none" stroke="#4d4d4d" d="M950,-1110.58C950,-1110.58 950,-1060.03 950,-1060.03"/>
<polygon fill="#4d4d4d" stroke="#4d4d4d" points="952.45,-1060.03 950,-1053.03 947.55,-1060.03 952.45,-1060.03"/>
</g>
<!-- ext_circ_109_28_ -->
<g id="node38" class="node">
<title>ext_circ_109_28_</title>
<polygon fill="lightpink" stroke="darkorange" stroke-dasharray="5,2" points="840,-952 696,-952 696,-909 840,-909 840,-952"/>
<text text-anchor="middle" x="768" y="-933.5" font-family="Arial" font-size="10.00">Circuito:</text>
<text text-anchor="middle" x="768" y="-922.5" font-family="Arial" font-size="10.00">109&#45;28&#45;</text>
</g>
<!-- C&#45;0247&#45;&gt;ext_circ_109_28_ -->
<g id="edge40" class="edge">
<title>C&#45;0247&#45;&gt;ext_circ_109_28_</title>
<path fill="none" stroke="darkorange" stroke-dasharray="5,2" d="M767,-1009.58C767,-1009.58 767,-959.03 767,-959.03"/>
<polygon fill="darkorange" stroke="darkorange" points="769.45,-959.03 767,-952.03 764.55,-959.03 769.45,-959.03"/>
</g>
<!-- S&#45;2119 -->
<g id="node5" class="node">
<title>S&#45;2119</title>
<polygon fill="mediumseagreen" stroke="black" points="430,-245 358,-223.5 430,-202 502,-223.5 430,-245"/>
<text text-anchor="middle" x="430" y="-221" font-family="Arial" font-size="10.00">S&#45;2119</text>
</g>
<!-- C&#45;0484 -->
<g id="node6" class="node">
<title>C&#45;0484</title>
<ellipse fill="mediumseagreen" stroke="black" cx="256" cy="-324.5" rx="72" ry="21.5"/>
<text text-anchor="middle" x="256" y="-322" font-family="Arial" font-size="10.00">C&#45;0484</text>
</g>
<!-- R&#45;078 -->
<g id="node9" class="node">
<title>R&#45;078</title>
<polygon fill="tomato" stroke="black" points="322,-214.59 322,-232.41 279.82,-245 220.18,-245 178,-232.41 178,-214.59 220.18,-202 279.82,-202 322,-214.59"/>
<text text-anchor="middle" x="250" y="-221" font-family="Arial" font-size="10.00">R&#45;078</text>
</g>
<!-- C&#45;0484&#45;&gt;R&#45;078 -->
<g id="edge25" class="edge">
<title>C&#45;0484&#45;&gt;R&#45;078</title>
<path fill="none" stroke="#4d4d4d" d="M253,-302.58C253,-302.58 253,-252.03 253,-252.03"/>
<polygon fill="#4d4d4d" stroke="#4d4d4d" points="255.45,-252.03 253,-245.03 250.55,-252.03 255.45,-252.03"/>
</g>
<!-- C&#45;0087 -->
<g id="node7" class="node">
<title>C&#45;0087</title>
<ellipse fill="mediumseagreen" stroke="black" cx="1041" cy="-1233.5" rx="72" ry="21.5"/>
<text text-anchor="middle" x="1041" y="-1231" font-family="Arial" font-size="10.00">C&#45;0087</text>
</g>
<!-- C&#45;0087&#45;&gt;C&#45;0351 -->
<g id="edge4" class="edge">
<title>C&#45;0087&#45;&gt;C&#45;0351</title>
<path fill="none" stroke="#4d4d4d" d="M968.75,-1233C887.27,-1233 766,-1233 766,-1233 766,-1233 766,-1161.31 766,-1161.31"/>
<polygon fill="#4d4d4d" stroke="#4d4d4d" points="768.45,-1161.31 766,-1154.31 763.55,-1161.31 768.45,-1161.31"/>
</g>
<!-- C&#45;0087&#45;&gt;C&#45;1244 -->
<g id="edge32" class="edge">
<title>C&#45;0087&#45;&gt;C&#45;1244</title>
<path fill="none" stroke="#4d4d4d" d="M995.5,-1216.82C995.5,-1216.82 995.5,-1156.2 995.5,-1156.2"/>
<polygon fill="#4d4d4d" stroke="#4d4d4d" points="997.95,-1156.2 995.5,-1149.2 993.05,-1156.2 997.95,-1156.2"/>
</g>
<!-- S&#45;1488 -->
<g id="node14" class="node">
<title>S&#45;1488</title>
<polygon fill="mediumseagreen" stroke="black" points="1131,-1154 1059,-1132.5 1131,-1111 1203,-1132.5 1131,-1154"/>
<text text-anchor="middle" x="1131" y="-1130" font-family="Arial" font-size="10.00">S&#45;1488</text>
</g>
<!-- C&#45;0087&#45;&gt;S&#45;1488 -->
<g id="edge2" class="edge">
<title>C&#45;0087&#45;&gt;S&#45;1488</title>
<path fill="none" stroke="#4d4d4d" d="M1086,-1216.37C1086,-1216.37 1086,-1147.78 1086,-1147.78"/>
<polygon fill="#4d4d4d" stroke="#4d4d4d" points="1088.45,-1147.78 1086,-1140.78 1083.55,-1147.78 1088.45,-1147.78"/>
</g>
<!-- C&#45;0114 -->
<g id="node19" class="node">
<title>C&#45;0114</title>
<ellipse fill="tomato" stroke="black" cx="1250" cy="-829.5" rx="72" ry="21.5"/>
<text text-anchor="middle" x="1250" y="-827" font-family="Arial" font-size="10.00">C&#45;0114</text>
</g>
<!-- C&#45;0087&#45;&gt;C&#45;0114 -->
<g id="edge31" class="edge">
<title>C&#45;0087&#45;&gt;C&#45;0114</title>
<path fill="none" stroke="#4d4d4d" d="M1053,-1212.04C1053,-1128.41 1053,-829 1053,-829 1053,-829 1170.76,-829 1170.76,-829"/>
<polygon fill="#4d4d4d" stroke="#4d4d4d" points="1170.76,-831.45 1177.76,-829 1170.76,-826.55 1170.76,-831.45"/>
</g>
<!-- S&#45;1532 -->
<g id="node8" class="node">
<title>S&#45;1532</title>
<polygon fill="mediumseagreen" stroke="black" points="72,-649 0,-627.5 72,-606 144,-627.5 72,-649"/>
<text text-anchor="middle" x="72" y="-625" font-family="Arial" font-size="10.00">S&#45;1532</text>
</g>
<!-- S&#45;1910 -->
<g id="node24" class="node">
<title>S&#45;1910</title>
<polygon fill="mediumseagreen" stroke="black" points="72,-548 0,-526.5 72,-505 144,-526.5 72,-548"/>
<text text-anchor="middle" x="72" y="-524" font-family="Arial" font-size="10.00">S&#45;1910</text>
</g>
<!-- S&#45;1532&#45;&gt;S&#45;1910 -->
<g id="edge10" class="edge">
<title>S&#45;1532&#45;&gt;S&#45;1910</title>
<path fill="none" stroke="#4d4d4d" d="M72,-605.58C72,-605.58 72,-555.03 72,-555.03"/>
<polygon fill="#4d4d4d" stroke="#4d4d4d" points="74.45,-555.03 72,-548.03 69.55,-555.03 74.45,-555.03"/>
</g>
<!-- ext_circ_110_23_ -->
<g id="node37" class="node">
<title>ext_circ_110_23_</title>
<polygon fill="lightpink" stroke="darkorange" stroke-dasharray="5,2" points="490,-144 346,-144 346,-101 490,-101 490,-144"/>
<text text-anchor="middle" x="418" y="-125.5" font-family="Arial" font-size="10.00">Circuito:</text>
<text text-anchor="middle" x="418" y="-114.5" font-family="Arial" font-size="10.00">110&#45;23&#45;</text>
</g>
<!-- R&#45;078&#45;&gt;ext_circ_110_23_ -->
<g id="edge38" class="edge">
<title>R&#45;078&#45;&gt;ext_circ_110_23_</title>
<path fill="none" stroke="darkorange" stroke-dasharray="5,2" d="M322.22,-223C338.97,-223 352,-223 352,-223 352,-223 352,-151.31 352,-151.31"/>
<polygon fill="darkorange" stroke="darkorange" points="354.45,-151.31 352,-144.31 349.55,-151.31 354.45,-151.31"/>
</g>
<!-- C&#45;0967 -->
<g id="node10" class="node">
<title>C&#45;0967</title>
<ellipse fill="tomato" stroke="black" cx="763" cy="-122.5" rx="72" ry="21.5"/>
<text text-anchor="middle" x="763" y="-120" font-family="Arial" font-size="10.00">C&#45;0967</text>
</g>
<!-- ext_circ_114_22_ -->
<g id="node36" class="node">
<title>ext_circ_114_22_</title>
<polygon fill="lightpink" stroke="darkorange" stroke-dasharray="5,2" points="925,-43 781,-43 781,0 925,0 925,-43"/>
<text text-anchor="middle" x="853" y="-24.5" font-family="Arial" font-size="10.00">Circuito:</text>
<text text-anchor="middle" x="853" y="-13.5" font-family="Arial" font-size="10.00">114&#45;22&#45;</text>
</g>
<!-- C&#45;0967&#45;&gt;ext_circ_114_22_ -->
<g id="edge37" class="edge">
<title>C&#45;0967&#45;&gt;ext_circ_114_22_</title>
<path fill="none" stroke="darkorange" stroke-dasharray="5,2" d="M808,-105.37C808,-105.37 808,-50.31 808,-50.31"/>
<polygon fill="darkorange" stroke="darkorange" points="810.45,-50.31 808,-43.31 805.55,-50.31 810.45,-50.31"/>
</g>
<!-- S&#45;PR45 -->
<g id="node11" class="node">
<title>S&#45;PR45</title>
<polygon fill="mediumseagreen" stroke="black" points="430,-750 358,-728.5 430,-707 502,-728.5 430,-750"/>
<text text-anchor="middle" x="430" y="-726" font-family="Arial" font-size="10.00">S&#45;PR45</text>
</g>
<!-- S&#45;PR45&#45;&gt;S&#45;1532 -->
<g id="edge9" class="edge">
<title>S&#45;PR45&#45;&gt;S&#45;1532</title>
<path fill="none" stroke="#4d4d4d" d="M379.47,-735C280.78,-735 72,-735 72,-735 72,-735 72,-656.25 72,-656.25"/>
<polygon fill="#4d4d4d" stroke="#4d4d4d" points="74.45,-656.25 72,-649.25 69.55,-656.25 74.45,-656.25"/>
</g>
<!-- S&#45;249 -->
<g id="node12" class="node">
<title>S&#45;249</title>
<polygon fill="mediumseagreen" stroke="black" points="252,-649 180,-627.5 252,-606 324,-627.5 252,-649"/>
<text text-anchor="middle" x="252" y="-625" font-family="Arial" font-size="10.00">S&#45;249</text>
</g>
<!-- S&#45;PR45&#45;&gt;S&#45;249 -->
<g id="edge28" class="edge">
<title>S&#45;PR45&#45;&gt;S&#45;249</title>
<path fill="none" stroke="#4d4d4d" d="M382.77,-721C330.03,-721 252,-721 252,-721 252,-721 252,-656.19 252,-656.19"/>
<polygon fill="#4d4d4d" stroke="#4d4d4d" points="254.45,-656.19 252,-649.19 249.55,-656.19 254.45,-656.19"/>
</g>
<!-- C&#45;0963 -->
<g id="node21" class="node">
<title>C&#45;0963</title>
<ellipse fill="mediumseagreen" stroke="black" cx="432" cy="-627.5" rx="72" ry="21.5"/>
<text text-anchor="middle" x="432" y="-625" font-family="Arial" font-size="10.00">C&#45;0963</text>
</g>
<!-- S&#45;PR45&#45;&gt;C&#45;0963 -->
<g id="edge12" class="edge">
<title>S&#45;PR45&#45;&gt;C&#45;0963</title>
<path fill="none" stroke="#4d4d4d" d="M431,-707.08C431,-707.08 431,-656.24 431,-656.24"/>
<polygon fill="#4d4d4d" stroke="#4d4d4d" points="433.45,-656.24 431,-649.24 428.55,-656.24 433.45,-656.24"/>
</g>
<!-- C&#45;0964 -->
<g id="node22" class="node">
<title>C&#45;0964</title>
<ellipse fill="tomato" stroke="black" cx="612" cy="-627.5" rx="72" ry="21.5"/>
<text text-anchor="middle" x="612" y="-625" font-family="Arial" font-size="10.00">C&#45;0964</text>
</g>
<!-- S&#45;PR45&#45;&gt;C&#45;0964 -->
<g id="edge13" class="edge">
<title>S&#45;PR45&#45;&gt;C&#45;0964</title>
<path fill="none" stroke="#4d4d4d" d="M476.9,-721C527.22,-721 600,-721 600,-721 600,-721 600,-655.72 600,-655.72"/>
<polygon fill="#4d4d4d" stroke="#4d4d4d" points="602.45,-655.72 600,-648.72 597.55,-655.72 602.45,-655.72"/>
</g>
<!-- S&#45;1909 -->
<g id="node28" class="node">
<title>S&#45;1909</title>
<polygon fill="mediumseagreen" stroke="black" points="792,-649 720,-627.5 792,-606 864,-627.5 792,-649"/>
<text text-anchor="middle" x="792" y="-625" font-family="Arial" font-size="10.00">S&#45;1909</text>
</g>
<!-- S&#45;PR45&#45;&gt;S&#45;1909 -->
<g id="edge27" class="edge">
<title>S&#45;PR45&#45;&gt;S&#45;1909</title>
<path fill="none" stroke="#4d4d4d" d="M480.52,-735C577.44,-735 780,-735 780,-735 780,-735 780,-652.74 780,-652.74"/>
<polygon fill="#4d4d4d" stroke="#4d4d4d" points="782.45,-652.74 780,-645.74 777.55,-652.74 782.45,-652.74"/>
</g>
<!-- S&#45;250 -->
<g id="node13" class="node">
<title>S&#45;250</title>
<polygon fill="mediumseagreen" stroke="black" points="436,-346 364,-324.5 436,-303 508,-324.5 436,-346"/>
<text text-anchor="middle" x="436" y="-322" font-family="Arial" font-size="10.00">S&#45;250</text>
</g>
<!-- S&#45;250&#45;&gt;S&#45;2119 -->
<g id="edge23" class="edge">
<title>S&#45;250&#45;&gt;S&#45;2119</title>
<path fill="none" stroke="#4d4d4d" d="M433,-303.57C433,-303.57 433,-251.4 433,-251.4"/>
<polygon fill="#4d4d4d" stroke="#4d4d4d" points="435.45,-251.4 433,-244.4 430.55,-251.4 435.45,-251.4"/>
</g>
<!-- S&#45;2454 -->
<g id="node17" class="node">
<title>S&#45;2454</title>
<polygon fill="mediumseagreen" stroke="black" points="610,-245 538,-223.5 610,-202 682,-223.5 610,-245"/>
<text text-anchor="middle" x="610" y="-221" font-family="Arial" font-size="10.00">S&#45;2454</text>
</g>
<!-- S&#45;250&#45;&gt;S&#45;2454 -->
<g id="edge22" class="edge">
<title>S&#45;250&#45;&gt;S&#45;2454</title>
<path fill="none" stroke="#4d4d4d" d="M506.42,-324C544.84,-324 584.67,-324 584.67,-324 584.67,-324 584.67,-244.47 584.67,-244.47"/>
<polygon fill="#4d4d4d" stroke="#4d4d4d" points="587.12,-244.47 584.67,-237.47 582.22,-244.47 587.12,-244.47"/>
</g>
<!-- S&#45;2033 -->
<g id="node32" class="node">
<title>S&#45;2033</title>
<polygon fill="mediumseagreen" stroke="black" points="1132,-1053 1060,-1031.5 1132,-1010 1204,-1031.5 1132,-1053"/>
<text text-anchor="middle" x="1132" y="-1029" font-family="Arial" font-size="10.00">S&#45;2033</text>
</g>
<!-- S&#45;1488&#45;&gt;S&#45;2033 -->
<g id="edge3" class="edge">
<title>S&#45;1488&#45;&gt;S&#45;2033</title>
<path fill="none" stroke="#4d4d4d" d="M1131.5,-1111.08C1131.5,-1111.08 1131.5,-1059.89 1131.5,-1059.89"/>
<polygon fill="#4d4d4d" stroke="#4d4d4d" points="1133.95,-1059.89 1131.5,-1052.89 1129.05,-1059.89 1133.95,-1059.89"/>
</g>
<!-- ext_circ_109_27_ -->
<g id="node39" class="node">
<title>ext_circ_109_27_</title>
<polygon fill="lightpink" stroke="darkorange" stroke-dasharray="5,2" points="1021,-952 877,-952 877,-909 1021,-909 1021,-952"/>
<text text-anchor="middle" x="949" y="-933.5" font-family="Arial" font-size="10.00">Circuito:</text>
<text text-anchor="middle" x="949" y="-922.5" font-family="Arial" font-size="10.00">109&#45;27&#45;</text>
</g>
<!-- SW&#45;002_A&#45;&gt;ext_circ_109_27_ -->
<g id="edge42" class="edge">
<title>SW&#45;002_A&#45;&gt;ext_circ_109_27_</title>
<path fill="none" stroke="darkorange" stroke-dasharray="5,2" d="M949,-1009.58C949,-1009.58 949,-959.03 949,-959.03"/>
<polygon fill="darkorange" stroke="darkorange" points="951.45,-959.03 949,-952.03 946.55,-959.03 951.45,-959.03"/>
</g>
<!-- C&#45;0965 -->
<g id="node16" class="node">
<title>C&#45;0965</title>
<ellipse fill="mediumseagreen" stroke="black" cx="436" cy="-425.5" rx="72" ry="21.5"/>
<text text-anchor="middle" x="436" y="-423" font-family="Arial" font-size="10.00">C&#45;0965</text>
</g>
<!-- C&#45;0965&#45;&gt;C&#45;0484 -->
<g id="edge24" class="edge">
<title>C&#45;0965&#45;&gt;C&#45;0484</title>
<path fill="none" stroke="#4d4d4d" d="M363.81,-425C312.99,-425 254,-425 254,-425 254,-425 254,-353.31 254,-353.31"/>
<polygon fill="#4d4d4d" stroke="#4d4d4d" points="256.45,-353.31 254,-346.31 251.55,-353.31 256.45,-353.31"/>
</g>
<!-- C&#45;0965&#45;&gt;S&#45;250 -->
<g id="edge21" class="edge">
<title>C&#45;0965&#45;&gt;S&#45;250</title>
<path fill="none" stroke="#4d4d4d" d="M436,-403.58C436,-403.58 436,-353.03 436,-353.03"/>
<polygon fill="#4d4d4d" stroke="#4d4d4d" points="438.45,-353.03 436,-346.03 433.55,-353.03 438.45,-353.03"/>
</g>
<!-- C&#45;0482 -->
<g id="node30" class="node">
<title>C&#45;0482</title>
<ellipse fill="tomato" stroke="black" cx="679" cy="-324.5" rx="72" ry="21.5"/>
<text text-anchor="middle" x="679" y="-322" font-family="Arial" font-size="10.00">C&#45;0482</text>
</g>
<!-- C&#45;0965&#45;&gt;C&#45;0482 -->
<g id="edge26" class="edge">
<title>C&#45;0965&#45;&gt;C&#45;0482</title>
<path fill="none" stroke="#4d4d4d" d="M496.88,-414C558.73,-414 645.5,-414 645.5,-414 645.5,-414 645.5,-350.92 645.5,-350.92"/>
<polygon fill="#4d4d4d" stroke="#4d4d4d" points="647.95,-350.92 645.5,-343.92 643.05,-350.92 647.95,-350.92"/>
</g>
<!-- S&#45;246 -->
<g id="node33" class="node">
<title>S&#45;246</title>
<polygon fill="mediumseagreen" stroke="black" points="869,-346 797,-324.5 869,-303 941,-324.5 869,-346"/>
<text text-anchor="middle" x="869" y="-322" font-family="Arial" font-size="10.00">S&#45;246</text>
</g>
<!-- C&#45;0965&#45;&gt;S&#45;246 -->
<g id="edge16" class="edge">
<title>C&#45;0965&#45;&gt;S&#45;246</title>
<path fill="none" stroke="#4d4d4d" d="M508.36,-425C622.25,-425 830.5,-425 830.5,-425 830.5,-425 830.5,-341.5 830.5,-341.5"/>
<polygon fill="#4d4d4d" stroke="#4d4d4d" points="832.95,-341.5 830.5,-334.5 828.05,-341.5 832.95,-341.5"/>
</g>
<!-- R&#45;074 -->
<g id="node18" class="node">
<title>R&#45;074</title>
<polygon fill="mediumseagreen" stroke="black" points="485,-820.59 485,-838.41 442.82,-851 383.18,-851 341,-838.41 341,-820.59 383.18,-808 442.82,-808 485,-820.59"/>
<text text-anchor="middle" x="413" y="-827" font-family="Arial" font-size="10.00">R&#45;074</text>
</g>
<!-- R&#45;074&#45;&gt;S&#45;PR45 -->
<g id="edge8" class="edge">
<title>R&#45;074&#45;&gt;S&#45;PR45</title>
<path fill="none" stroke="#4d4d4d" d="M421.5,-807.58C421.5,-807.58 421.5,-754.65 421.5,-754.65"/>
<polygon fill="#4d4d4d" stroke="#4d4d4d" points="423.95,-754.65 421.5,-747.65 419.05,-754.65 423.95,-754.65"/>
</g>
<!-- ext_circ_109_20_ -->
<g id="node35" class="node">
<title>ext_circ_109_20_</title>
<polygon fill="lightpink" stroke="darkorange" stroke-dasharray="5,2" points="1195,-144 1051,-144 1051,-101 1195,-101 1195,-144"/>
<text text-anchor="middle" x="1123" y="-125.5" font-family="Arial" font-size="10.00">Circuito:</text>
<text text-anchor="middle" x="1123" y="-114.5" font-family="Arial" font-size="10.00">109&#45;20&#45;</text>
</g>
<!-- C&#45;0114&#45;&gt;ext_circ_109_20_ -->
<g id="edge41" class="edge">
<title>C&#45;0114&#45;&gt;ext_circ_109_20_</title>
<path fill="none" stroke="darkorange" stroke-dasharray="5,2" d="M1258.5,-807.94C1258.5,-689.37 1258.5,-122 1258.5,-122 1258.5,-122 1202.11,-122 1202.11,-122"/>
<polygon fill="darkorange" stroke="darkorange" points="1202.11,-119.55 1195.11,-122 1202.11,-124.45 1202.11,-119.55"/>
</g>
<!-- C&#45;0966 -->
<g id="node20" class="node">
<title>C&#45;0966</title>
<ellipse fill="mediumseagreen" stroke="black" cx="940" cy="-223.5" rx="72" ry="21.5"/>
<text text-anchor="middle" x="940" y="-221" font-family="Arial" font-size="10.00">C&#45;0966</text>
</g>
<!-- R&#45;229 -->
<g id="node27" class="node">
<title>R&#45;229</title>
<polygon fill="tomato" stroke="black" points="1015,-113.59 1015,-131.41 972.82,-144 913.18,-144 871,-131.41 871,-113.59 913.18,-101 972.82,-101 1015,-113.59"/>
<text text-anchor="middle" x="943" y="-120" font-family="Arial" font-size="10.00">R&#45;229</text>
</g>
<!-- C&#45;0966&#45;&gt;R&#45;229 -->
<g id="edge19" class="edge">
<title>C&#45;0966&#45;&gt;R&#45;229</title>
<path fill="none" stroke="#4d4d4d" d="M941.5,-201.58C941.5,-201.58 941.5,-151.03 941.5,-151.03"/>
<polygon fill="#4d4d4d" stroke="#4d4d4d" points="943.95,-151.03 941.5,-144.03 939.05,-151.03 943.95,-151.03"/>
</g>
<!-- R&#45;228 -->
<g id="node26" class="node">
<title>R&#45;228</title>
<polygon fill="mediumseagreen" stroke="black" points="504,-517.59 504,-535.41 461.82,-548 402.18,-548 360,-535.41 360,-517.59 402.18,-505 461.82,-505 504,-517.59"/>
<text text-anchor="middle" x="432" y="-524" font-family="Arial" font-size="10.00">R&#45;228</text>
</g>
<!-- C&#45;0963&#45;&gt;R&#45;228 -->
<g id="edge14" class="edge">
<title>C&#45;0963&#45;&gt;R&#45;228</title>
<path fill="none" stroke="#4d4d4d" d="M432,-605.58C432,-605.58 432,-555.03 432,-555.03"/>
<polygon fill="#4d4d4d" stroke="#4d4d4d" points="434.45,-555.03 432,-548.03 429.55,-555.03 434.45,-555.03"/>
</g>
<!-- C&#45;0964&#45;&gt;C&#45;0965 -->
<g id="edge34" class="edge">
<title>C&#45;0964&#45;&gt;C&#45;0965</title>
<path fill="none" stroke="blue" stroke-dasharray="5,2" d="M562.33,-611.83C562.33,-566.09 562.33,-436 562.33,-436 562.33,-436 506.17,-436 506.17,-436"/>
<polygon fill="blue" stroke="blue" points="506.17,-433.55 499.17,-436 506.17,-438.45 506.17,-433.55"/>
</g>
<!-- C&#45;0354&#45;&gt;R&#45;074 -->
<g id="edge7" class="edge">
<title>C&#45;0354&#45;&gt;R&#45;074</title>
<path fill="none" stroke="#4d4d4d" d="M410.5,-908.58C410.5,-908.58 410.5,-858.03 410.5,-858.03"/>
<polygon fill="#4d4d4d" stroke="#4d4d4d" points="412.95,-858.03 410.5,-851.03 408.05,-858.03 412.95,-858.03"/>
</g>
<!-- S&#45;2390 -->
<g id="node31" class="node">
<title>S&#45;2390</title>
<polygon fill="mediumseagreen" stroke="black" points="72,-447 0,-425.5 72,-404 144,-425.5 72,-447"/>
<text text-anchor="middle" x="72" y="-423" font-family="Arial" font-size="10.00">S&#45;2390</text>
</g>
<!-- S&#45;1910&#45;&gt;S&#45;2390 -->
<g id="edge11" class="edge">
<title>S&#45;1910&#45;&gt;S&#45;2390</title>
<path fill="none" stroke="#4d4d4d" d="M72,-504.58C72,-504.58 72,-454.03 72,-454.03"/>
<polygon fill="#4d4d4d" stroke="#4d4d4d" points="74.45,-454.03 72,-447.03 69.55,-454.03 74.45,-454.03"/>
</g>
<!-- C&#45;0946 -->
<g id="node25" class="node">
<title>C&#45;0946</title>
<ellipse fill="tomato" stroke="black" cx="1122" cy="-223.5" rx="72" ry="21.5"/>
<text text-anchor="middle" x="1122" y="-221" font-family="Arial" font-size="10.00">C&#45;0946</text>
</g>
<!-- C&#45;0946&#45;&gt;ext_circ_109_20_ -->
<g id="edge35" class="edge">
<title>C&#45;0946&#45;&gt;ext_circ_109_20_</title>
<path fill="none" stroke="darkorange" stroke-dasharray="5,2" d="M1122.5,-201.58C1122.5,-201.58 1122.5,-151.03 1122.5,-151.03"/>
<polygon fill="darkorange" stroke="darkorange" points="1124.95,-151.03 1122.5,-144.03 1120.05,-151.03 1124.95,-151.03"/>
</g>
<!-- R&#45;228&#45;&gt;C&#45;0965 -->
<g id="edge15" class="edge">
<title>R&#45;228&#45;&gt;C&#45;0965</title>
<path fill="none" stroke="#4d4d4d" d="M434,-504.58C434,-504.58 434,-454.03 434,-454.03"/>
<polygon fill="#4d4d4d" stroke="#4d4d4d" points="436.45,-454.03 434,-447.03 431.55,-454.03 436.45,-454.03"/>
</g>
<!-- R&#45;229&#45;&gt;ext_circ_114_22_ -->
<g id="edge36" class="edge">
<title>R&#45;229&#45;&gt;ext_circ_114_22_</title>
<path fill="none" stroke="darkorange" stroke-dasharray="5,2" d="M898,-105.37C898,-105.37 898,-50.31 898,-50.31"/>
<polygon fill="darkorange" stroke="darkorange" points="900.45,-50.31 898,-43.31 895.55,-50.31 900.45,-50.31"/>
</g>
<!-- 109&#45;23&#45; -->
<g id="node29" class="node">
<title>109&#45;23&#45;</title>
<polygon fill="gold" stroke="black" points="1113,-1329.59 1113,-1347.41 1070.82,-1360 1011.18,-1360 969,-1347.41 969,-1329.59 1011.18,-1317 1070.82,-1317 1113,-1329.59"/>
<polygon fill="none" stroke="black" points="1117,-1326.61 1117,-1350.39 1071.41,-1364 1010.59,-1364 965,-1350.39 965,-1326.61 1010.59,-1313 1071.41,-1313 1117,-1326.61"/>
<text text-anchor="middle" x="1041" y="-1336" font-family="Arial" font-size="10.00">109&#45;23&#45;</text>
</g>
<!-- 109&#45;23&#45;&#45;&gt;C&#45;0087 -->
<g id="edge1" class="edge">
<title>109&#45;23&#45;&#45;&gt;C&#45;0087</title>
<path fill="none" stroke="#4d4d4d" d="M1041,-1312.81C1041,-1312.81 1041,-1262.03 1041,-1262.03"/>
<polygon fill="#4d4d4d" stroke="#4d4d4d" points="1043.45,-1262.03 1041,-1255.03 1038.55,-1262.03 1043.45,-1262.03"/>
</g>
<!-- C&#45;0482&#45;&gt;ext_circ_110_23_ -->
<g id="edge39" class="edge">
<title>C&#45;0482&#45;&gt;ext_circ_110_23_</title>
<path fill="none" stroke="darkorange" stroke-dasharray="5,2" d="M686.5,-302.83C686.5,-250.59 686.5,-122 686.5,-122 686.5,-122 497.31,-122 497.31,-122"/>
<polygon fill="darkorange" stroke="darkorange" points="497.31,-119.55 490.31,-122 497.31,-124.45 497.31,-119.55"/>
</g>
<!-- S&#45;246&#45;&gt;C&#45;0967 -->
<g id="edge20" class="edge">
<title>S&#45;246&#45;&gt;C&#45;0967</title>
<path fill="none" stroke="#4d4d4d" d="M816,-318.67C816,-318.67 816,-144.17 816,-144.17"/>
<polygon fill="#4d4d4d" stroke="#4d4d4d" points="818.45,-144.17 816,-137.17 813.55,-144.17 818.45,-144.17"/>
</g>
<!-- S&#45;246&#45;&gt;C&#45;0966 -->
<g id="edge18" class="edge">
<title>S&#45;246&#45;&gt;C&#45;0966</title>
<path fill="none" stroke="#4d4d4d" d="M904.5,-313.31C904.5,-313.31 904.5,-249.3 904.5,-249.3"/>
<polygon fill="#4d4d4d" stroke="#4d4d4d" points="906.95,-249.3 904.5,-242.3 902.05,-249.3 906.95,-249.3"/>
</g>
<!-- S&#45;246&#45;&gt;C&#45;0946 -->
<g id="edge17" class="edge">
<title>S&#45;246&#45;&gt;C&#45;0946</title>
<path fill="none" stroke="#4d4d4d" d="M939.43,-324C992.44,-324 1056,-324 1056,-324 1056,-324 1056,-239.42 1056,-239.42"/>
<polygon fill="#4d4d4d" stroke="#4d4d4d" points="1058.45,-239.42 1056,-232.42 1053.55,-239.42 1058.45,-239.42"/>
</g>
</g>
</svg>
