<?xml version="1.0" encoding="UTF-8" standalone="no"?>
<!DOCTYPE svg PUBLIC "-//W3C//DTD SVG 1.1//EN"
 "http://www.w3.org/Graphics/SVG/1.1/DTD/svg11.dtd">
<!-- Generated by graphviz version 2.50.0 (0)
 -->
<!-- Title: Grafo_Circuito_208_24_ Pages: 1 -->
<svg width="2402pt" height="1170pt"
 viewBox="0.00 0.00 2402.00 1170.00" xmlns="http://www.w3.org/2000/svg" xmlns:xlink="http://www.w3.org/1999/xlink">
<g id="graph0" class="graph" transform="scale(1 1) rotate(0) translate(4 1166)">
<title>Grafo_Circuito_208_24_</title>
<polygon fill="white" stroke="transparent" points="-4,4 -4,-1166 2398,-1166 2398,4 -4,4"/>
<!-- S&#45;1185 -->
<g id="node1" class="node">
<title>S&#45;1185</title>
<polygon fill="mediumseagreen" stroke="black" points="432,-245 360,-223.5 432,-202 504,-223.5 432,-245"/>
<text text-anchor="middle" x="432" y="-221" font-family="Arial" font-size="10.00">S&#45;1185</text>
</g>
<!-- S&#45;297 -->
<g id="node26" class="node">
<title>S&#45;297</title>
<polygon fill="mediumseagreen" stroke="black" points="432,-144 360,-122.5 432,-101 504,-122.5 432,-144"/>
<text text-anchor="middle" x="432" y="-120" font-family="Arial" font-size="10.00">S&#45;297</text>
</g>
<!-- S&#45;1185&#45;&gt;S&#45;297 -->
<g id="edge31" class="edge">
<title>S&#45;1185&#45;&gt;S&#45;297</title>
<path fill="none" stroke="#4d4d4d" d="M432,-201.58C432,-201.58 432,-151.03 432,-151.03"/>
<polygon fill="#4d4d4d" stroke="#4d4d4d" points="434.45,-151.03 432,-144.03 429.55,-151.03 434.45,-151.03"/>
</g>
<!-- C&#45;1198 -->
<g id="node2" class="node">
<title>C&#45;1198</title>
<ellipse fill="mediumseagreen" stroke="black" cx="72" cy="-526.5" rx="72" ry="21.5"/>
<text text-anchor="middle" x="72" y="-524" font-family="Arial" font-size="10.00">C&#45;1198</text>
</g>
<!-- R&#45;296 -->
<g id="node20" class="node">
<title>R&#45;296</title>
<polygon fill="mediumseagreen" stroke="black" points="144,-416.59 144,-434.41 101.82,-447 42.18,-447 0,-434.41 0,-416.59 42.18,-404 101.82,-404 144,-416.59"/>
<text text-anchor="middle" x="72" y="-423" font-family="Arial" font-size="10.00">R&#45;296</text>
</g>
<!-- C&#45;1198&#45;&gt;R&#45;296 -->
<g id="edge23" class="edge">
<title>C&#45;1198&#45;&gt;R&#45;296</title>
<path fill="none" stroke="#4d4d4d" d="M72,-504.58C72,-504.58 72,-454.03 72,-454.03"/>
<polygon fill="#4d4d4d" stroke="#4d4d4d" points="74.45,-454.03 72,-447.03 69.55,-454.03 74.45,-454.03"/>
</g>
<!-- S&#45;990 -->
<g id="node3" class="node">
<title>S&#45;990</title>
<polygon fill="mediumseagreen" stroke="black" points="2232,-447 2160,-425.5 2232,-404 2304,-425.5 2232,-447"/>
<text text-anchor="middle" x="2232" y="-423" font-family="Arial" font-size="10.00">S&#45;990</text>
</g>
<!-- S&#45;987 -->
<g id="node34" class="node">
<title>S&#45;987</title>
<polygon fill="mediumseagreen" stroke="black" points="2232,-346 2160,-324.5 2232,-303 2304,-324.5 2232,-346"/>
<text text-anchor="middle" x="2232" y="-322" font-family="Arial" font-size="10.00">S&#45;987</text>
</g>
<!-- S&#45;990&#45;&gt;S&#45;987 -->
<g id="edge11" class="edge">
<title>S&#45;990&#45;&gt;S&#45;987</title>
<path fill="none" stroke="#4d4d4d" d="M2232,-403.58C2232,-403.58 2232,-353.03 2232,-353.03"/>
<polygon fill="#4d4d4d" stroke="#4d4d4d" points="2234.45,-353.03 2232,-346.03 2229.55,-353.03 2234.45,-353.03"/>
</g>
<!-- C&#45;1046 -->
<g id="node4" class="node">
<title>C&#45;1046</title>
<ellipse fill="mediumseagreen" stroke="black" cx="1242" cy="-425.5" rx="72" ry="21.5"/>
<text text-anchor="middle" x="1242" y="-423" font-family="Arial" font-size="10.00">C&#45;1046</text>
</g>
<!-- R&#45;255 -->
<g id="node12" class="node">
<title>R&#45;255</title>
<polygon fill="mediumseagreen" stroke="black" points="1314,-315.59 1314,-333.41 1271.82,-346 1212.18,-346 1170,-333.41 1170,-315.59 1212.18,-303 1271.82,-303 1314,-315.59"/>
<text text-anchor="middle" x="1242" y="-322" font-family="Arial" font-size="10.00">R&#45;255</text>
</g>
<!-- C&#45;1046&#45;&gt;R&#45;255 -->
<g id="edge41" class="edge">
<title>C&#45;1046&#45;&gt;R&#45;255</title>
<path fill="none" stroke="#4d4d4d" d="M1242,-403.58C1242,-403.58 1242,-353.03 1242,-353.03"/>
<polygon fill="#4d4d4d" stroke="#4d4d4d" points="1244.45,-353.03 1242,-346.03 1239.55,-353.03 1244.45,-353.03"/>
</g>
<!-- SR&#45;0003 -->
<g id="node5" class="node">
<title>SR&#45;0003</title>
<polygon fill="mediumseagreen" stroke="black" points="1062,-447 990,-425.5 1062,-404 1134,-425.5 1062,-447"/>
<text text-anchor="middle" x="1062" y="-423" font-family="Arial" font-size="10.00">SR&#45;0003</text>
</g>
<!-- C&#45;0639 -->
<g id="node16" class="node">
<title>C&#45;0639</title>
<ellipse fill="tomato" stroke="black" cx="1062" cy="-324.5" rx="72" ry="21.5"/>
<text text-anchor="middle" x="1062" y="-322" font-family="Arial" font-size="10.00">C&#45;0639</text>
</g>
<!-- SR&#45;0003&#45;&gt;C&#45;0639 -->
<g id="edge46" class="edge">
<title>SR&#45;0003&#45;&gt;C&#45;0639</title>
<path fill="none" stroke="#4d4d4d" d="M1062,-403.58C1062,-403.58 1062,-353.03 1062,-353.03"/>
<polygon fill="#4d4d4d" stroke="#4d4d4d" points="1064.45,-353.03 1062,-346.03 1059.55,-353.03 1064.45,-353.03"/>
</g>
<!-- S&#45;290 -->
<g id="node6" class="node">
<title>S&#45;290</title>
<polygon fill="mediumseagreen" stroke="black" points="1692,-548 1620,-526.5 1692,-505 1764,-526.5 1692,-548"/>
<text text-anchor="middle" x="1692" y="-524" font-family="Arial" font-size="10.00">S&#45;290</text>
</g>
<!-- C&#45;1047 -->
<g id="node7" class="node">
<title>C&#45;1047</title>
<ellipse fill="tomato" stroke="black" cx="1422" cy="-425.5" rx="72" ry="21.5"/>
<text text-anchor="middle" x="1422" y="-423" font-family="Arial" font-size="10.00">C&#45;1047</text>
</g>
<!-- C&#45;1048 -->
<g id="node14" class="node">
<title>C&#45;1048</title>
<ellipse fill="mediumseagreen" stroke="black" cx="1242" cy="-223.5" rx="72" ry="21.5"/>
<text text-anchor="middle" x="1242" y="-221" font-family="Arial" font-size="10.00">C&#45;1048</text>
</g>
<!-- C&#45;1047&#45;&gt;C&#45;1048 -->
<g id="edge51" class="edge">
<title>C&#45;1047&#45;&gt;C&#45;1048</title>
<path fill="none" stroke="blue" stroke-dasharray="5,2" d="M1422,-403.83C1422,-351.59 1422,-223 1422,-223 1422,-223 1321.18,-223 1321.18,-223"/>
<polygon fill="blue" stroke="blue" points="1321.18,-220.55 1314.18,-223 1321.18,-225.45 1321.18,-220.55"/>
</g>
<!-- C&#45;0489 -->
<g id="node8" class="node">
<title>C&#45;0489</title>
<ellipse fill="mediumseagreen" stroke="black" cx="1242" cy="-122.5" rx="72" ry="21.5"/>
<text text-anchor="middle" x="1242" y="-120" font-family="Arial" font-size="10.00">C&#45;0489</text>
</g>
<!-- S&#45;2177 -->
<g id="node9" class="node">
<title>S&#45;2177</title>
<polygon fill="mediumseagreen" stroke="black" points="252,-548 180,-526.5 252,-505 324,-526.5 252,-548"/>
<text text-anchor="middle" x="252" y="-524" font-family="Arial" font-size="10.00">S&#45;2177</text>
</g>
<!-- S&#45;2311 -->
<g id="node10" class="node">
<title>S&#45;2311</title>
<polygon fill="mediumseagreen" stroke="black" points="432,-43 360,-21.5 432,0 504,-21.5 432,-43"/>
<text text-anchor="middle" x="432" y="-19" font-family="Arial" font-size="10.00">S&#45;2311</text>
</g>
<!-- S&#45;1817 -->
<g id="node11" class="node">
<title>S&#45;1817</title>
<polygon fill="mediumseagreen" stroke="black" points="1152,-548 1080,-526.5 1152,-505 1224,-526.5 1152,-548"/>
<text text-anchor="middle" x="1152" y="-524" font-family="Arial" font-size="10.00">S&#45;1817</text>
</g>
<!-- R&#45;255&#45;&gt;C&#45;1048 -->
<g id="edge42" class="edge">
<title>R&#45;255&#45;&gt;C&#45;1048</title>
<path fill="none" stroke="#4d4d4d" d="M1242,-302.58C1242,-302.58 1242,-252.03 1242,-252.03"/>
<polygon fill="#4d4d4d" stroke="#4d4d4d" points="1244.45,-252.03 1242,-245.03 1239.55,-252.03 1244.45,-252.03"/>
</g>
<!-- S&#45;292 -->
<g id="node13" class="node">
<title>S&#45;292</title>
<polygon fill="mediumseagreen" stroke="black" points="1002,-750 930,-728.5 1002,-707 1074,-728.5 1002,-750"/>
<text text-anchor="middle" x="1002" y="-726" font-family="Arial" font-size="10.00">S&#45;292</text>
</g>
<!-- S&#45;996 -->
<g id="node21" class="node">
<title>S&#45;996</title>
<polygon fill="mediumseagreen" stroke="black" points="583,-649 511,-627.5 583,-606 655,-627.5 583,-649"/>
<text text-anchor="middle" x="583" y="-625" font-family="Arial" font-size="10.00">S&#45;996</text>
</g>
<!-- S&#45;292&#45;&gt;S&#45;996 -->
<g id="edge47" class="edge">
<title>S&#45;292&#45;&gt;S&#45;996</title>
<path fill="none" stroke="#4d4d4d" d="M931.4,-728C811.98,-728 583,-728 583,-728 583,-728 583,-656.31 583,-656.31"/>
<polygon fill="#4d4d4d" stroke="#4d4d4d" points="585.45,-656.31 583,-649.31 580.55,-656.31 585.45,-656.31"/>
</g>
<!-- C&#45;0703 -->
<g id="node32" class="node">
<title>C&#45;0703</title>
<ellipse fill="mediumseagreen" stroke="black" cx="763" cy="-627.5" rx="72" ry="21.5"/>
<text text-anchor="middle" x="763" y="-625" font-family="Arial" font-size="10.00">C&#45;0703</text>
</g>
<!-- S&#45;292&#45;&gt;C&#45;0703 -->
<g id="edge20" class="edge">
<title>S&#45;292&#45;&gt;C&#45;0703</title>
<path fill="none" stroke="#4d4d4d" d="M987,-711.28C987,-682.32 987,-627 987,-627 987,-627 842.11,-627 842.11,-627"/>
<polygon fill="#4d4d4d" stroke="#4d4d4d" points="842.11,-624.55 835.11,-627 842.11,-629.45 842.11,-624.55"/>
</g>
<!-- R&#45;059 -->
<g id="node43" class="node">
<title>R&#45;059</title>
<polygon fill="mediumseagreen" stroke="black" points="1314,-618.59 1314,-636.41 1271.82,-649 1212.18,-649 1170,-636.41 1170,-618.59 1212.18,-606 1271.82,-606 1314,-618.59"/>
<text text-anchor="middle" x="1242" y="-625" font-family="Arial" font-size="10.00">R&#45;059</text>
</g>
<!-- S&#45;292&#45;&gt;R&#45;059 -->
<g id="edge35" class="edge">
<title>S&#45;292&#45;&gt;R&#45;059</title>
<path fill="none" stroke="#4d4d4d" d="M1059,-723.89C1059,-705.45 1059,-638 1059,-638 1059,-638 1168.16,-638 1168.16,-638"/>
<polygon fill="#4d4d4d" stroke="#4d4d4d" points="1168.16,-640.45 1175.16,-638 1168.16,-635.55 1168.16,-640.45"/>
</g>
<!-- C&#45;1048&#45;&gt;C&#45;0489 -->
<g id="edge43" class="edge">
<title>C&#45;1048&#45;&gt;C&#45;0489</title>
<path fill="none" stroke="#4d4d4d" d="M1242,-201.58C1242,-201.58 1242,-151.03 1242,-151.03"/>
<polygon fill="#4d4d4d" stroke="#4d4d4d" points="1244.45,-151.03 1242,-144.03 1239.55,-151.03 1244.45,-151.03"/>
</g>
<!-- C&#45;1134 -->
<g id="node15" class="node">
<title>C&#45;1134</title>
<ellipse fill="mediumseagreen" stroke="black" cx="1602" cy="-425.5" rx="72" ry="21.5"/>
<text text-anchor="middle" x="1602" y="-423" font-family="Arial" font-size="10.00">C&#45;1134</text>
</g>
<!-- ext_circ_208_27_ -->
<g id="node50" class="node">
<title>ext_circ_208_27_</title>
<polygon fill="lightpink" stroke="darkorange" stroke-dasharray="5,2" points="1303,-1158 1159,-1158 1159,-1115 1303,-1115 1303,-1158"/>
<text text-anchor="middle" x="1231" y="-1139.5" font-family="Arial" font-size="10.00">Circuito:</text>
<text text-anchor="middle" x="1231" y="-1128.5" font-family="Arial" font-size="10.00">208&#45;27&#45;</text>
</g>
<!-- C&#45;0639&#45;&gt;ext_circ_208_27_ -->
<g id="edge52" class="edge">
<title>C&#45;0639&#45;&gt;ext_circ_208_27_</title>
<path fill="none" stroke="darkorange" stroke-dasharray="5,2" d="M993.03,-331C945.18,-331 890,-331 890,-331 890,-331 890,-594 890,-594 890,-594 1164.5,-594 1164.5,-594 1164.5,-594 1164.5,-1107.9 1164.5,-1107.9"/>
<polygon fill="darkorange" stroke="darkorange" points="1162.05,-1107.9 1164.5,-1114.9 1166.95,-1107.9 1162.05,-1107.9"/>
</g>
<!-- S&#45;1157 -->
<g id="node17" class="node">
<title>S&#45;1157</title>
<polygon fill="mediumseagreen" stroke="black" points="1872,-548 1800,-526.5 1872,-505 1944,-526.5 1872,-548"/>
<text text-anchor="middle" x="1872" y="-524" font-family="Arial" font-size="10.00">S&#45;1157</text>
</g>
<!-- S&#45;1146 -->
<g id="node18" class="node">
<title>S&#45;1146</title>
<polygon fill="mediumseagreen" stroke="black" points="1002,-851 930,-829.5 1002,-808 1074,-829.5 1002,-851"/>
<text text-anchor="middle" x="1002" y="-827" font-family="Arial" font-size="10.00">S&#45;1146</text>
</g>
<!-- S&#45;1146&#45;&gt;S&#45;292 -->
<g id="edge19" class="edge">
<title>S&#45;1146&#45;&gt;S&#45;292</title>
<path fill="none" stroke="#4d4d4d" d="M1002,-807.58C1002,-807.58 1002,-757.03 1002,-757.03"/>
<polygon fill="#4d4d4d" stroke="#4d4d4d" points="1004.45,-757.03 1002,-750.03 999.55,-757.03 1004.45,-757.03"/>
</g>
<!-- C&#45;0405 -->
<g id="node19" class="node">
<title>C&#45;0405</title>
<ellipse fill="mediumseagreen" stroke="black" cx="432" cy="-526.5" rx="72" ry="21.5"/>
<text text-anchor="middle" x="432" y="-524" font-family="Arial" font-size="10.00">C&#45;0405</text>
</g>
<!-- R&#45;138 -->
<g id="node22" class="node">
<title>R&#45;138</title>
<polygon fill="mediumseagreen" stroke="black" points="504,-416.59 504,-434.41 461.82,-447 402.18,-447 360,-434.41 360,-416.59 402.18,-404 461.82,-404 504,-416.59"/>
<text text-anchor="middle" x="432" y="-423" font-family="Arial" font-size="10.00">R&#45;138</text>
</g>
<!-- C&#45;0405&#45;&gt;R&#45;138 -->
<g id="edge28" class="edge">
<title>C&#45;0405&#45;&gt;R&#45;138</title>
<path fill="none" stroke="#4d4d4d" d="M432,-504.58C432,-504.58 432,-454.03 432,-454.03"/>
<polygon fill="#4d4d4d" stroke="#4d4d4d" points="434.45,-454.03 432,-447.03 429.55,-454.03 434.45,-454.03"/>
</g>
<!-- C&#45;0406 -->
<g id="node27" class="node">
<title>C&#45;0406</title>
<ellipse fill="mediumseagreen" stroke="black" cx="432" cy="-324.5" rx="72" ry="21.5"/>
<text text-anchor="middle" x="432" y="-322" font-family="Arial" font-size="10.00">C&#45;0406</text>
</g>
<!-- R&#45;138&#45;&gt;C&#45;0406 -->
<g id="edge29" class="edge">
<title>R&#45;138&#45;&gt;C&#45;0406</title>
<path fill="none" stroke="#4d4d4d" d="M432,-403.58C432,-403.58 432,-353.03 432,-353.03"/>
<polygon fill="#4d4d4d" stroke="#4d4d4d" points="434.45,-353.03 432,-346.03 429.55,-353.03 434.45,-353.03"/>
</g>
<!-- C&#45;1302 -->
<g id="node23" class="node">
<title>C&#45;1302</title>
<ellipse fill="mediumseagreen" stroke="black" cx="1285" cy="-829.5" rx="72" ry="21.5"/>
<text text-anchor="middle" x="1285" y="-827" font-family="Arial" font-size="10.00">C&#45;1302</text>
</g>
<!-- R&#45;304 -->
<g id="node48" class="node">
<title>R&#45;304</title>
<polygon fill="mediumseagreen" stroke="black" points="1460,-719.59 1460,-737.41 1417.82,-750 1358.18,-750 1316,-737.41 1316,-719.59 1358.18,-707 1417.82,-707 1460,-719.59"/>
<text text-anchor="middle" x="1388" y="-726" font-family="Arial" font-size="10.00">R&#45;304</text>
</g>
<!-- C&#45;1302&#45;&gt;R&#45;304 -->
<g id="edge5" class="edge">
<title>C&#45;1302&#45;&gt;R&#45;304</title>
<path fill="none" stroke="#4d4d4d" d="M1336.5,-814.16C1336.5,-814.16 1336.5,-750.65 1336.5,-750.65"/>
<polygon fill="#4d4d4d" stroke="#4d4d4d" points="1338.95,-750.65 1336.5,-743.65 1334.05,-750.65 1338.95,-750.65"/>
</g>
<!-- C&#45;1255 -->
<g id="node24" class="node">
<title>C&#45;1255</title>
<ellipse fill="mediumseagreen" stroke="black" cx="1465" cy="-930.5" rx="72" ry="21.5"/>
<text text-anchor="middle" x="1465" y="-928" font-family="Arial" font-size="10.00">C&#45;1255</text>
</g>
<!-- C&#45;1255&#45;&gt;S&#45;1146 -->
<g id="edge18" class="edge">
<title>C&#45;1255&#45;&gt;S&#45;1146</title>
<path fill="none" stroke="#4d4d4d" d="M1396.31,-937C1278.15,-937 1049,-937 1049,-937 1049,-937 1049,-844.23 1049,-844.23"/>
<polygon fill="#4d4d4d" stroke="#4d4d4d" points="1051.45,-844.23 1049,-837.23 1046.55,-844.23 1051.45,-844.23"/>
</g>
<!-- C&#45;1255&#45;&gt;C&#45;1302 -->
<g id="edge4" class="edge">
<title>C&#45;1255&#45;&gt;C&#45;1302</title>
<path fill="none" stroke="#4d4d4d" d="M1397.5,-923C1363.75,-923 1330,-923 1330,-923 1330,-923 1330,-853.65 1330,-853.65"/>
<polygon fill="#4d4d4d" stroke="#4d4d4d" points="1332.45,-853.65 1330,-846.65 1327.55,-853.65 1332.45,-853.65"/>
</g>
<!-- S&#45;792 -->
<g id="node37" class="node">
<title>S&#45;792</title>
<polygon fill="mediumseagreen" stroke="black" points="1465,-851 1393,-829.5 1465,-808 1537,-829.5 1465,-851"/>
<text text-anchor="middle" x="1465" y="-827" font-family="Arial" font-size="10.00">S&#45;792</text>
</g>
<!-- C&#45;1255&#45;&gt;S&#45;792 -->
<g id="edge17" class="edge">
<title>C&#45;1255&#45;&gt;S&#45;792</title>
<path fill="none" stroke="#4d4d4d" d="M1465,-908.58C1465,-908.58 1465,-858.03 1465,-858.03"/>
<polygon fill="#4d4d4d" stroke="#4d4d4d" points="1467.45,-858.03 1465,-851.03 1462.55,-858.03 1467.45,-858.03"/>
</g>
<!-- S&#45;2555 -->
<g id="node40" class="node">
<title>S&#45;2555</title>
<polygon fill="mediumseagreen" stroke="black" points="1645,-851 1573,-829.5 1645,-808 1717,-829.5 1645,-851"/>
<text text-anchor="middle" x="1645" y="-827" font-family="Arial" font-size="10.00">S&#45;2555</text>
</g>
<!-- C&#45;1255&#45;&gt;S&#45;2555 -->
<g id="edge16" class="edge">
<title>C&#45;1255&#45;&gt;S&#45;2555</title>
<path fill="none" stroke="#4d4d4d" d="M1532.54,-923C1583.61,-923 1645,-923 1645,-923 1645,-923 1645,-858.19 1645,-858.19"/>
<polygon fill="#4d4d4d" stroke="#4d4d4d" points="1647.45,-858.19 1645,-851.19 1642.55,-858.19 1647.45,-858.19"/>
</g>
<!-- C&#45;1304 -->
<g id="node44" class="node">
<title>C&#45;1304</title>
<ellipse fill="tomato" stroke="black" cx="1825" cy="-829.5" rx="72" ry="21.5"/>
<text text-anchor="middle" x="1825" y="-827" font-family="Arial" font-size="10.00">C&#45;1304</text>
</g>
<!-- C&#45;1255&#45;&gt;C&#45;1304 -->
<g id="edge3" class="edge">
<title>C&#45;1255&#45;&gt;C&#45;1304</title>
<path fill="none" stroke="#4d4d4d" d="M1533.99,-937C1638.52,-937 1825,-937 1825,-937 1825,-937 1825,-858.25 1825,-858.25"/>
<polygon fill="#4d4d4d" stroke="#4d4d4d" points="1827.45,-858.25 1825,-851.25 1822.55,-858.25 1827.45,-858.25"/>
</g>
<!-- S&#45;989 -->
<g id="node25" class="node">
<title>S&#45;989</title>
<polygon fill="mediumseagreen" stroke="black" points="2142,-245 2070,-223.5 2142,-202 2214,-223.5 2142,-245"/>
<text text-anchor="middle" x="2142" y="-221" font-family="Arial" font-size="10.00">S&#45;989</text>
</g>
<!-- S&#45;297&#45;&gt;S&#45;2311 -->
<g id="edge32" class="edge">
<title>S&#45;297&#45;&gt;S&#45;2311</title>
<path fill="none" stroke="#4d4d4d" d="M432,-100.58C432,-100.58 432,-50.03 432,-50.03"/>
<polygon fill="#4d4d4d" stroke="#4d4d4d" points="434.45,-50.03 432,-43.03 429.55,-50.03 434.45,-50.03"/>
</g>
<!-- S&#45;1045 -->
<g id="node35" class="node">
<title>S&#45;1045</title>
<polygon fill="mediumseagreen" stroke="black" points="612,-43 540,-21.5 612,0 684,-21.5 612,-43"/>
<text text-anchor="middle" x="612" y="-19" font-family="Arial" font-size="10.00">S&#45;1045</text>
</g>
<!-- S&#45;297&#45;&gt;S&#45;1045 -->
<g id="edge34" class="edge">
<title>S&#45;297&#45;&gt;S&#45;1045</title>
<path fill="none" stroke="#4d4d4d" d="M502.49,-122C561.46,-122 636,-122 636,-122 636,-122 636,-42.9 636,-42.9"/>
<polygon fill="#4d4d4d" stroke="#4d4d4d" points="638.45,-42.9 636,-35.9 633.55,-42.9 638.45,-42.9"/>
</g>
<!-- S&#45;1042 -->
<g id="node41" class="node">
<title>S&#45;1042</title>
<polygon fill="tomato" stroke="black" points="252,-43 180,-21.5 252,0 324,-21.5 252,-43"/>
<text text-anchor="middle" x="252" y="-19" font-family="Arial" font-size="10.00">S&#45;1042</text>
</g>
<!-- S&#45;297&#45;&gt;S&#45;1042 -->
<g id="edge33" class="edge">
<title>S&#45;297&#45;&gt;S&#45;1042</title>
<path fill="none" stroke="#4d4d4d" d="M361.63,-122C311.15,-122 252,-122 252,-122 252,-122 252,-50.31 252,-50.31"/>
<polygon fill="#4d4d4d" stroke="#4d4d4d" points="254.45,-50.31 252,-43.31 249.55,-50.31 254.45,-50.31"/>
</g>
<!-- C&#45;0406&#45;&gt;S&#45;1185 -->
<g id="edge30" class="edge">
<title>C&#45;0406&#45;&gt;S&#45;1185</title>
<path fill="none" stroke="#4d4d4d" d="M432,-302.58C432,-302.58 432,-252.03 432,-252.03"/>
<polygon fill="#4d4d4d" stroke="#4d4d4d" points="434.45,-252.03 432,-245.03 429.55,-252.03 434.45,-252.03"/>
</g>
<!-- S&#45;2255 -->
<g id="node28" class="node">
<title>S&#45;2255</title>
<polygon fill="mediumseagreen" stroke="black" points="2052,-548 1980,-526.5 2052,-505 2124,-526.5 2052,-548"/>
<text text-anchor="middle" x="2052" y="-524" font-family="Arial" font-size="10.00">S&#45;2255</text>
</g>
<!-- S&#45;1707 -->
<g id="node39" class="node">
<title>S&#45;1707</title>
<polygon fill="mediumseagreen" stroke="black" points="2052,-447 1980,-425.5 2052,-404 2124,-425.5 2052,-447"/>
<text text-anchor="middle" x="2052" y="-423" font-family="Arial" font-size="10.00">S&#45;1707</text>
</g>
<!-- S&#45;2255&#45;&gt;S&#45;1707 -->
<g id="edge15" class="edge">
<title>S&#45;2255&#45;&gt;S&#45;1707</title>
<path fill="none" stroke="#4d4d4d" d="M2052,-504.58C2052,-504.58 2052,-454.03 2052,-454.03"/>
<polygon fill="#4d4d4d" stroke="#4d4d4d" points="2054.45,-454.03 2052,-447.03 2049.55,-454.03 2054.45,-454.03"/>
</g>
<!-- S&#45;988 -->
<g id="node29" class="node">
<title>S&#45;988</title>
<polygon fill="mediumseagreen" stroke="black" points="2322,-245 2250,-223.5 2322,-202 2394,-223.5 2322,-245"/>
<text text-anchor="middle" x="2322" y="-221" font-family="Arial" font-size="10.00">S&#45;988</text>
</g>
<!-- SR&#45;0009 -->
<g id="node30" class="node">
<title>SR&#45;0009</title>
<polygon fill="mediumseagreen" stroke="black" points="2232,-548 2160,-526.5 2232,-505 2304,-526.5 2232,-548"/>
<text text-anchor="middle" x="2232" y="-524" font-family="Arial" font-size="10.00">SR&#45;0009</text>
</g>
<!-- SR&#45;0009&#45;&gt;S&#45;990 -->
<g id="edge10" class="edge">
<title>SR&#45;0009&#45;&gt;S&#45;990</title>
<path fill="none" stroke="#4d4d4d" d="M2232,-504.58C2232,-504.58 2232,-454.03 2232,-454.03"/>
<polygon fill="#4d4d4d" stroke="#4d4d4d" points="2234.45,-454.03 2232,-447.03 2229.55,-454.03 2234.45,-454.03"/>
</g>
<!-- C&#45;0189 -->
<g id="node31" class="node">
<title>C&#45;0189</title>
<ellipse fill="mediumseagreen" stroke="black" cx="1465" cy="-1031.5" rx="72" ry="21.5"/>
<text text-anchor="middle" x="1465" y="-1029" font-family="Arial" font-size="10.00">C&#45;0189</text>
</g>
<!-- C&#45;0189&#45;&gt;C&#45;1255 -->
<g id="edge2" class="edge">
<title>C&#45;0189&#45;&gt;C&#45;1255</title>
<path fill="none" stroke="#4d4d4d" d="M1465,-1009.58C1465,-1009.58 1465,-959.03 1465,-959.03"/>
<polygon fill="#4d4d4d" stroke="#4d4d4d" points="1467.45,-959.03 1465,-952.03 1462.55,-959.03 1467.45,-959.03"/>
</g>
<!-- C&#45;0703&#45;&gt;C&#45;1198 -->
<g id="edge22" class="edge">
<title>C&#45;0703&#45;&gt;C&#45;1198</title>
<path fill="none" stroke="#4d4d4d" d="M696.8,-618.73C696.8,-605.51 696.8,-582 696.8,-582 696.8,-582 72,-582 72,-582 72,-582 72,-555.12 72,-555.12"/>
<polygon fill="#4d4d4d" stroke="#4d4d4d" points="74.45,-555.12 72,-548.12 69.55,-555.12 74.45,-555.12"/>
</g>
<!-- C&#45;0703&#45;&gt;S&#45;2177 -->
<g id="edge24" class="edge">
<title>C&#45;0703&#45;&gt;S&#45;2177</title>
<path fill="none" stroke="#4d4d4d" d="M702.6,-615.79C702.6,-599.24 702.6,-571 702.6,-571 702.6,-571 252,-571 252,-571 252,-571 252,-555.23 252,-555.23"/>
<polygon fill="#4d4d4d" stroke="#4d4d4d" points="254.45,-555.23 252,-548.23 249.55,-555.23 254.45,-555.23"/>
</g>
<!-- C&#45;0703&#45;&gt;C&#45;0405 -->
<g id="edge26" class="edge">
<title>C&#45;0703&#45;&gt;C&#45;0405</title>
<path fill="none" stroke="#4d4d4d" d="M708.4,-613.31C708.4,-593.24 708.4,-559 708.4,-559 708.4,-559 432,-559 432,-559 432,-559 432,-555.36 432,-555.36"/>
<polygon fill="#4d4d4d" stroke="#4d4d4d" points="434.45,-555.36 432,-548.36 429.55,-555.36 434.45,-555.36"/>
</g>
<!-- C&#45;0404 -->
<g id="node38" class="node">
<title>C&#45;0404</title>
<ellipse fill="tomato" stroke="black" cx="612" cy="-526.5" rx="72" ry="21.5"/>
<text text-anchor="middle" x="612" y="-524" font-family="Arial" font-size="10.00">C&#45;0404</text>
</g>
<!-- C&#45;0703&#45;&gt;C&#45;0404 -->
<g id="edge27" class="edge">
<title>C&#45;0703&#45;&gt;C&#45;0404</title>
<path fill="none" stroke="#4d4d4d" d="M714.2,-611.64C714.2,-583.09 714.2,-526 714.2,-526 714.2,-526 691.09,-526 691.09,-526"/>
<polygon fill="#4d4d4d" stroke="#4d4d4d" points="691.09,-523.55 684.09,-526 691.09,-528.45 691.09,-523.55"/>
</g>
<!-- C&#45;0709 -->
<g id="node46" class="node">
<title>C&#45;0709</title>
<ellipse fill="mediumseagreen" stroke="black" cx="792" cy="-526.5" rx="72" ry="21.5"/>
<text text-anchor="middle" x="792" y="-524" font-family="Arial" font-size="10.00">C&#45;0709</text>
</g>
<!-- C&#45;0703&#45;&gt;C&#45;0709 -->
<g id="edge21" class="edge">
<title>C&#45;0703&#45;&gt;C&#45;0709</title>
<path fill="none" stroke="#4d4d4d" d="M777.5,-606.08C777.5,-606.08 777.5,-554.89 777.5,-554.89"/>
<polygon fill="#4d4d4d" stroke="#4d4d4d" points="779.95,-554.89 777.5,-547.89 775.05,-554.89 779.95,-554.89"/>
</g>
<!-- S&#45;294 -->
<g id="node47" class="node">
<title>S&#45;294</title>
<polygon fill="mediumseagreen" stroke="black" points="972,-548 900,-526.5 972,-505 1044,-526.5 972,-548"/>
<text text-anchor="middle" x="972" y="-524" font-family="Arial" font-size="10.00">S&#45;294</text>
</g>
<!-- C&#45;0703&#45;&gt;S&#45;294 -->
<g id="edge25" class="edge">
<title>C&#45;0703&#45;&gt;S&#45;294</title>
<path fill="none" stroke="#4d4d4d" d="M823.95,-616C866.24,-616 915,-616 915,-616 915,-616 915,-538.31 915,-538.31"/>
<polygon fill="#4d4d4d" stroke="#4d4d4d" points="917.45,-538.31 915,-531.31 912.55,-538.31 917.45,-538.31"/>
</g>
<!-- SR&#45;0010 -->
<g id="node33" class="node">
<title>SR&#45;0010</title>
<polygon fill="mediumseagreen" stroke="black" points="1332,-548 1260,-526.5 1332,-505 1404,-526.5 1332,-548"/>
<text text-anchor="middle" x="1332" y="-524" font-family="Arial" font-size="10.00">SR&#45;0010</text>
</g>
<!-- SR&#45;0010&#45;&gt;C&#45;1046 -->
<g id="edge40" class="edge">
<title>SR&#45;0010&#45;&gt;C&#45;1046</title>
<path fill="none" stroke="#4d4d4d" d="M1296,-515.69C1296,-515.69 1296,-446.78 1296,-446.78"/>
<polygon fill="#4d4d4d" stroke="#4d4d4d" points="1298.45,-446.78 1296,-439.78 1293.55,-446.78 1298.45,-446.78"/>
</g>
<!-- SR&#45;0010&#45;&gt;SR&#45;0003 -->
<g id="edge45" class="edge">
<title>SR&#45;0010&#45;&gt;SR&#45;0003</title>
<path fill="none" stroke="#4d4d4d" d="M1278,-520.92C1278,-505.94 1278,-466 1278,-466 1278,-466 1107,-466 1107,-466 1107,-466 1107,-440.7 1107,-440.7"/>
<polygon fill="#4d4d4d" stroke="#4d4d4d" points="1109.45,-440.7 1107,-433.7 1104.55,-440.7 1109.45,-440.7"/>
</g>
<!-- SR&#45;0010&#45;&gt;C&#45;1047 -->
<g id="edge39" class="edge">
<title>SR&#45;0010&#45;&gt;C&#45;1047</title>
<path fill="none" stroke="#4d4d4d" d="M1368,-515.69C1368,-515.69 1368,-446.78 1368,-446.78"/>
<polygon fill="#4d4d4d" stroke="#4d4d4d" points="1370.45,-446.78 1368,-439.78 1365.55,-446.78 1370.45,-446.78"/>
</g>
<!-- SR&#45;0010&#45;&gt;C&#45;1134 -->
<g id="edge44" class="edge">
<title>SR&#45;0010&#45;&gt;C&#45;1134</title>
<path fill="none" stroke="#4d4d4d" d="M1386,-521.07C1386,-509.83 1386,-485 1386,-485 1386,-485 1557,-485 1557,-485 1557,-485 1557,-449.39 1557,-449.39"/>
<polygon fill="#4d4d4d" stroke="#4d4d4d" points="1559.45,-449.39 1557,-442.39 1554.55,-449.39 1559.45,-449.39"/>
</g>
<!-- S&#45;987&#45;&gt;S&#45;989 -->
<g id="edge13" class="edge">
<title>S&#45;987&#45;&gt;S&#45;989</title>
<path fill="none" stroke="#4d4d4d" d="M2187,-316.23C2187,-316.23 2187,-238.6 2187,-238.6"/>
<polygon fill="#4d4d4d" stroke="#4d4d4d" points="2189.45,-238.6 2187,-231.6 2184.55,-238.6 2189.45,-238.6"/>
</g>
<!-- S&#45;987&#45;&gt;S&#45;988 -->
<g id="edge12" class="edge">
<title>S&#45;987&#45;&gt;S&#45;988</title>
<path fill="none" stroke="#4d4d4d" d="M2277,-316.23C2277,-316.23 2277,-238.6 2277,-238.6"/>
<polygon fill="#4d4d4d" stroke="#4d4d4d" points="2279.45,-238.6 2277,-231.6 2274.55,-238.6 2279.45,-238.6"/>
</g>
<!-- 208&#45;24&#45; -->
<g id="node36" class="node">
<title>208&#45;24&#45;</title>
<polygon fill="gold" stroke="black" points="1537,-1127.59 1537,-1145.41 1494.82,-1158 1435.18,-1158 1393,-1145.41 1393,-1127.59 1435.18,-1115 1494.82,-1115 1537,-1127.59"/>
<polygon fill="none" stroke="black" points="1541,-1124.61 1541,-1148.39 1495.41,-1162 1434.59,-1162 1389,-1148.39 1389,-1124.61 1434.59,-1111 1495.41,-1111 1541,-1124.61"/>
<text text-anchor="middle" x="1465" y="-1134" font-family="Arial" font-size="10.00">208&#45;24&#45;</text>
</g>
<!-- 208&#45;24&#45;&#45;&gt;C&#45;0189 -->
<g id="edge1" class="edge">
<title>208&#45;24&#45;&#45;&gt;C&#45;0189</title>
<path fill="none" stroke="#4d4d4d" d="M1465,-1110.81C1465,-1110.81 1465,-1060.03 1465,-1060.03"/>
<polygon fill="#4d4d4d" stroke="#4d4d4d" points="1467.45,-1060.03 1465,-1053.03 1462.55,-1060.03 1467.45,-1060.03"/>
</g>
<!-- C&#45;0404&#45;&gt;C&#45;0406 -->
<g id="edge49" class="edge">
<title>C&#45;0404&#45;&gt;C&#45;0406</title>
<path fill="none" stroke="blue" stroke-dasharray="5,2" d="M588,-506.03C588,-453.32 588,-317 588,-317 588,-317 506.52,-317 506.52,-317"/>
<polygon fill="blue" stroke="blue" points="506.52,-314.55 499.52,-317 506.52,-319.45 506.52,-314.55"/>
</g>
<!-- ext_circ_205_23_ -->
<g id="node49" class="node">
<title>ext_circ_205_23_</title>
<polygon fill="lightpink" stroke="darkorange" stroke-dasharray="5,2" points="1024,-1158 880,-1158 880,-1115 1024,-1115 1024,-1158"/>
<text text-anchor="middle" x="952" y="-1139.5" font-family="Arial" font-size="10.00">Circuito:</text>
<text text-anchor="middle" x="952" y="-1128.5" font-family="Arial" font-size="10.00">205&#45;23&#45;</text>
</g>
<!-- S&#45;1042&#45;&gt;ext_circ_205_23_ -->
<g id="edge50" class="edge">
<title>S&#45;1042&#45;&gt;ext_circ_205_23_</title>
<path fill="none" stroke="darkorange" stroke-dasharray="5,2" d="M322.47,-21C333.86,-21 342,-21 342,-21 342,-21 342,-1136 342,-1136 342,-1136 872.93,-1136 872.93,-1136"/>
<polygon fill="darkorange" stroke="darkorange" points="872.93,-1138.45 879.93,-1136 872.93,-1133.55 872.93,-1138.45"/>
</g>
<!-- S&#45;1818 -->
<g id="node42" class="node">
<title>S&#45;1818</title>
<polygon fill="mediumseagreen" stroke="black" points="1512,-548 1440,-526.5 1512,-505 1584,-526.5 1512,-548"/>
<text text-anchor="middle" x="1512" y="-524" font-family="Arial" font-size="10.00">S&#45;1818</text>
</g>
<!-- R&#45;059&#45;&gt;S&#45;1817 -->
<g id="edge37" class="edge">
<title>R&#45;059&#45;&gt;S&#45;1817</title>
<path fill="none" stroke="#4d4d4d" d="M1197,-610.37C1197,-610.37 1197,-541.78 1197,-541.78"/>
<polygon fill="#4d4d4d" stroke="#4d4d4d" points="1199.45,-541.78 1197,-534.78 1194.55,-541.78 1199.45,-541.78"/>
</g>
<!-- R&#45;059&#45;&gt;SR&#45;0010 -->
<g id="edge38" class="edge">
<title>R&#45;059&#45;&gt;SR&#45;0010</title>
<path fill="none" stroke="#4d4d4d" d="M1287,-610.37C1287,-610.37 1287,-541.78 1287,-541.78"/>
<polygon fill="#4d4d4d" stroke="#4d4d4d" points="1289.45,-541.78 1287,-534.78 1284.55,-541.78 1289.45,-541.78"/>
</g>
<!-- R&#45;059&#45;&gt;S&#45;1818 -->
<g id="edge36" class="edge">
<title>R&#45;059&#45;&gt;S&#45;1818</title>
<path fill="none" stroke="#4d4d4d" d="M1314.16,-627C1373.08,-627 1446.67,-627 1446.67,-627 1446.67,-627 1446.67,-535.6 1446.67,-535.6"/>
<polygon fill="#4d4d4d" stroke="#4d4d4d" points="1449.12,-535.6 1446.67,-528.6 1444.22,-535.6 1449.12,-535.6"/>
</g>
<!-- C&#45;1303 -->
<g id="node45" class="node">
<title>C&#45;1303</title>
<ellipse fill="mediumseagreen" stroke="black" cx="1872" cy="-627.5" rx="72" ry="21.5"/>
<text text-anchor="middle" x="1872" y="-625" font-family="Arial" font-size="10.00">C&#45;1303</text>
</g>
<!-- C&#45;1304&#45;&gt;C&#45;1303 -->
<g id="edge48" class="edge">
<title>C&#45;1304&#45;&gt;C&#45;1303</title>
<path fill="none" stroke="blue" stroke-dasharray="5,2" d="M1848.5,-809.02C1848.5,-809.02 1848.5,-655.03 1848.5,-655.03"/>
<polygon fill="blue" stroke="blue" points="1850.95,-655.03 1848.5,-648.03 1846.05,-655.03 1850.95,-655.03"/>
</g>
<!-- C&#45;1303&#45;&gt;S&#45;290 -->
<g id="edge7" class="edge">
<title>C&#45;1303&#45;&gt;S&#45;290</title>
<path fill="none" stroke="#4d4d4d" d="M1810.93,-616C1784.07,-616 1758.5,-616 1758.5,-616 1758.5,-616 1758.5,-535.37 1758.5,-535.37"/>
<polygon fill="#4d4d4d" stroke="#4d4d4d" points="1760.95,-535.37 1758.5,-528.37 1756.05,-535.37 1760.95,-535.37"/>
</g>
<!-- C&#45;1303&#45;&gt;S&#45;1157 -->
<g id="edge8" class="edge">
<title>C&#45;1303&#45;&gt;S&#45;1157</title>
<path fill="none" stroke="#4d4d4d" d="M1872,-605.58C1872,-605.58 1872,-555.03 1872,-555.03"/>
<polygon fill="#4d4d4d" stroke="#4d4d4d" points="1874.45,-555.03 1872,-548.03 1869.55,-555.03 1874.45,-555.03"/>
</g>
<!-- C&#45;1303&#45;&gt;S&#45;2255 -->
<g id="edge14" class="edge">
<title>C&#45;1303&#45;&gt;S&#45;2255</title>
<path fill="none" stroke="#4d4d4d" d="M1939.54,-620C1990.61,-620 2052,-620 2052,-620 2052,-620 2052,-555.19 2052,-555.19"/>
<polygon fill="#4d4d4d" stroke="#4d4d4d" points="2054.45,-555.19 2052,-548.19 2049.55,-555.19 2054.45,-555.19"/>
</g>
<!-- C&#45;1303&#45;&gt;SR&#45;0009 -->
<g id="edge9" class="edge">
<title>C&#45;1303&#45;&gt;SR&#45;0009</title>
<path fill="none" stroke="#4d4d4d" d="M1940.99,-634C2045.52,-634 2232,-634 2232,-634 2232,-634 2232,-555.25 2232,-555.25"/>
<polygon fill="#4d4d4d" stroke="#4d4d4d" points="2234.45,-555.25 2232,-548.25 2229.55,-555.25 2234.45,-555.25"/>
</g>
<!-- R&#45;304&#45;&gt;C&#45;1303 -->
<g id="edge6" class="edge">
<title>R&#45;304&#45;&gt;C&#45;1303</title>
<path fill="none" stroke="#4d4d4d" d="M1453.33,-717.4C1453.33,-693.24 1453.33,-638 1453.33,-638 1453.33,-638 1801.87,-638 1801.87,-638"/>
<polygon fill="#4d4d4d" stroke="#4d4d4d" points="1801.87,-640.45 1808.87,-638 1801.87,-635.55 1801.87,-640.45"/>
</g>
</g>
</svg>
