<?xml version="1.0" encoding="UTF-8" standalone="no"?>
<!DOCTYPE svg PUBLIC "-//W3C//DTD SVG 1.1//EN"
 "http://www.w3.org/Graphics/SVG/1.1/DTD/svg11.dtd">
<!-- Generated by graphviz version 2.50.0 (0)
 -->
<!-- Title: Grafo_Circuito_304_23_ Pages: 1 -->
<svg width="2042pt" height="1675pt"
 viewBox="0.00 0.00 2042.00 1675.00" xmlns="http://www.w3.org/2000/svg" xmlns:xlink="http://www.w3.org/1999/xlink">
<g id="graph0" class="graph" transform="scale(1 1) rotate(0) translate(4 1671)">
<title>Grafo_Circuito_304_23_</title>
<polygon fill="white" stroke="transparent" points="-4,4 -4,-1671 2038,-1671 2038,4 -4,4"/>
<!-- S&#45;1554 -->
<g id="node1" class="node">
<title>S&#45;1554</title>
<polygon fill="mediumseagreen" stroke="black" points="792,-952 720,-930.5 792,-909 864,-930.5 792,-952"/>
<text text-anchor="middle" x="792" y="-928" font-family="Arial" font-size="10.00">S&#45;1554</text>
</g>
<!-- S&#45;872 -->
<g id="node2" class="node">
<title>S&#45;872</title>
<polygon fill="mediumseagreen" stroke="black" points="342,-750 270,-728.5 342,-707 414,-728.5 342,-750"/>
<text text-anchor="middle" x="342" y="-726" font-family="Arial" font-size="10.00">S&#45;872</text>
</g>
<!-- C&#45;0597 -->
<g id="node6" class="node">
<title>C&#45;0597</title>
<ellipse fill="mediumseagreen" stroke="black" cx="252" cy="-627.5" rx="72" ry="21.5"/>
<text text-anchor="middle" x="252" y="-625" font-family="Arial" font-size="10.00">C&#45;0597</text>
</g>
<!-- S&#45;872&#45;&gt;C&#45;0597 -->
<g id="edge5" class="edge">
<title>S&#45;872&#45;&gt;C&#45;0597</title>
<path fill="none" stroke="#4d4d4d" d="M297,-720.23C297,-720.23 297,-651.52 297,-651.52"/>
<polygon fill="#4d4d4d" stroke="#4d4d4d" points="299.45,-651.52 297,-644.52 294.55,-651.52 299.45,-651.52"/>
</g>
<!-- C&#45;0563 -->
<g id="node27" class="node">
<title>C&#45;0563</title>
<ellipse fill="tomato" stroke="black" cx="432" cy="-627.5" rx="72" ry="21.5"/>
<text text-anchor="middle" x="432" y="-625" font-family="Arial" font-size="10.00">C&#45;0563</text>
</g>
<!-- S&#45;872&#45;&gt;C&#45;0563 -->
<g id="edge4" class="edge">
<title>S&#45;872&#45;&gt;C&#45;0563</title>
<path fill="none" stroke="#4d4d4d" d="M387,-720.23C387,-720.23 387,-651.52 387,-651.52"/>
<polygon fill="#4d4d4d" stroke="#4d4d4d" points="389.45,-651.52 387,-644.52 384.55,-651.52 389.45,-651.52"/>
</g>
<!-- S&#45;877 -->
<g id="node3" class="node">
<title>S&#45;877</title>
<polygon fill="mediumseagreen" stroke="black" points="522,-750 450,-728.5 522,-707 594,-728.5 522,-750"/>
<text text-anchor="middle" x="522" y="-726" font-family="Arial" font-size="10.00">S&#45;877</text>
</g>
<!-- C&#45;1096 -->
<g id="node4" class="node">
<title>C&#45;1096</title>
<ellipse fill="mediumseagreen" stroke="black" cx="72" cy="-223.5" rx="72" ry="21.5"/>
<text text-anchor="middle" x="72" y="-221" font-family="Arial" font-size="10.00">C&#45;1096</text>
</g>
<!-- R&#45;271 -->
<g id="node21" class="node">
<title>R&#45;271</title>
<polygon fill="tomato" stroke="black" points="144,-113.59 144,-131.41 101.82,-144 42.18,-144 0,-131.41 0,-113.59 42.18,-101 101.82,-101 144,-113.59"/>
<text text-anchor="middle" x="72" y="-120" font-family="Arial" font-size="10.00">R&#45;271</text>
</g>
<!-- C&#45;1096&#45;&gt;R&#45;271 -->
<g id="edge2" class="edge">
<title>C&#45;1096&#45;&gt;R&#45;271</title>
<path fill="none" stroke="#4d4d4d" d="M72,-201.58C72,-201.58 72,-151.03 72,-151.03"/>
<polygon fill="#4d4d4d" stroke="#4d4d4d" points="74.45,-151.03 72,-144.03 69.55,-151.03 74.45,-151.03"/>
</g>
<!-- S&#45;1481 -->
<g id="node5" class="node">
<title>S&#45;1481</title>
<polygon fill="mediumseagreen" stroke="black" points="252,-245 180,-223.5 252,-202 324,-223.5 252,-245"/>
<text text-anchor="middle" x="252" y="-221" font-family="Arial" font-size="10.00">S&#45;1481</text>
</g>
<!-- C&#45;0759 -->
<g id="node14" class="node">
<title>C&#45;0759</title>
<ellipse fill="mediumseagreen" stroke="black" cx="252" cy="-122.5" rx="72" ry="21.5"/>
<text text-anchor="middle" x="252" y="-120" font-family="Arial" font-size="10.00">C&#45;0759</text>
</g>
<!-- S&#45;1481&#45;&gt;C&#45;0759 -->
<g id="edge11" class="edge">
<title>S&#45;1481&#45;&gt;C&#45;0759</title>
<path fill="none" stroke="#4d4d4d" d="M252,-201.58C252,-201.58 252,-151.03 252,-151.03"/>
<polygon fill="#4d4d4d" stroke="#4d4d4d" points="254.45,-151.03 252,-144.03 249.55,-151.03 254.45,-151.03"/>
</g>
<!-- R&#45;100 -->
<g id="node11" class="node">
<title>R&#45;100</title>
<polygon fill="mediumseagreen" stroke="black" points="324,-517.59 324,-535.41 281.82,-548 222.18,-548 180,-535.41 180,-517.59 222.18,-505 281.82,-505 324,-517.59"/>
<text text-anchor="middle" x="252" y="-524" font-family="Arial" font-size="10.00">R&#45;100</text>
</g>
<!-- C&#45;0597&#45;&gt;R&#45;100 -->
<g id="edge6" class="edge">
<title>C&#45;0597&#45;&gt;R&#45;100</title>
<path fill="none" stroke="#4d4d4d" d="M252,-605.58C252,-605.58 252,-555.03 252,-555.03"/>
<polygon fill="#4d4d4d" stroke="#4d4d4d" points="254.45,-555.03 252,-548.03 249.55,-555.03 254.45,-555.03"/>
</g>
<!-- C&#45;0034 -->
<g id="node7" class="node">
<title>C&#45;0034</title>
<ellipse fill="tomato" stroke="black" cx="342" cy="-1435.5" rx="72" ry="21.5"/>
<text text-anchor="middle" x="342" y="-1433" font-family="Arial" font-size="10.00">C&#45;0034</text>
</g>
<!-- ext_circ_304_22_ -->
<g id="node51" class="node">
<title>ext_circ_304_22_</title>
<polygon fill="lightpink" stroke="darkorange" stroke-dasharray="5,2" points="414,-1356 270,-1356 270,-1313 414,-1313 414,-1356"/>
<text text-anchor="middle" x="342" y="-1337.5" font-family="Arial" font-size="10.00">Circuito:</text>
<text text-anchor="middle" x="342" y="-1326.5" font-family="Arial" font-size="10.00">304&#45;22&#45;</text>
</g>
<!-- C&#45;0034&#45;&gt;ext_circ_304_22_ -->
<g id="edge51" class="edge">
<title>C&#45;0034&#45;&gt;ext_circ_304_22_</title>
<path fill="none" stroke="darkorange" stroke-dasharray="5,2" d="M342,-1413.58C342,-1413.58 342,-1363.03 342,-1363.03"/>
<polygon fill="darkorange" stroke="darkorange" points="344.45,-1363.03 342,-1356.03 339.55,-1363.03 344.45,-1363.03"/>
</g>
<!-- S&#45;907 -->
<g id="node8" class="node">
<title>S&#45;907</title>
<polygon fill="mediumseagreen" stroke="black" points="702,-750 630,-728.5 702,-707 774,-728.5 702,-750"/>
<text text-anchor="middle" x="702" y="-726" font-family="Arial" font-size="10.00">S&#45;907</text>
</g>
<!-- C&#45;0037 -->
<g id="node9" class="node">
<title>C&#45;0037</title>
<ellipse fill="mediumseagreen" stroke="black" cx="702" cy="-1536.5" rx="72" ry="21.5"/>
<text text-anchor="middle" x="702" y="-1534" font-family="Arial" font-size="10.00">C&#45;0037</text>
</g>
<!-- C&#45;0037&#45;&gt;C&#45;0034 -->
<g id="edge31" class="edge">
<title>C&#45;0037&#45;&gt;C&#45;0034</title>
<path fill="none" stroke="#4d4d4d" d="M630.01,-1536C524.96,-1536 342,-1536 342,-1536 342,-1536 342,-1464.31 342,-1464.31"/>
<polygon fill="#4d4d4d" stroke="#4d4d4d" points="344.45,-1464.31 342,-1457.31 339.55,-1464.31 344.45,-1464.31"/>
</g>
<!-- C&#45;0358 -->
<g id="node25" class="node">
<title>C&#45;0358</title>
<ellipse fill="mediumseagreen" stroke="black" cx="612" cy="-1435.5" rx="72" ry="21.5"/>
<text text-anchor="middle" x="612" y="-1433" font-family="Arial" font-size="10.00">C&#45;0358</text>
</g>
<!-- C&#45;0037&#45;&gt;C&#45;0358 -->
<g id="edge33" class="edge">
<title>C&#45;0037&#45;&gt;C&#45;0358</title>
<path fill="none" stroke="#4d4d4d" d="M657,-1519.37C657,-1519.37 657,-1459.38 657,-1459.38"/>
<polygon fill="#4d4d4d" stroke="#4d4d4d" points="659.45,-1459.38 657,-1452.38 654.55,-1459.38 659.45,-1459.38"/>
</g>
<!-- S&#45;1279 -->
<g id="node39" class="node">
<title>S&#45;1279</title>
<polygon fill="mediumseagreen" stroke="black" points="792,-1457 720,-1435.5 792,-1414 864,-1435.5 792,-1457"/>
<text text-anchor="middle" x="792" y="-1433" font-family="Arial" font-size="10.00">S&#45;1279</text>
</g>
<!-- C&#45;0037&#45;&gt;S&#45;1279 -->
<g id="edge30" class="edge">
<title>C&#45;0037&#45;&gt;S&#45;1279</title>
<path fill="none" stroke="#4d4d4d" d="M747,-1519.37C747,-1519.37 747,-1450.78 747,-1450.78"/>
<polygon fill="#4d4d4d" stroke="#4d4d4d" points="749.45,-1450.78 747,-1443.78 744.55,-1450.78 749.45,-1450.78"/>
</g>
<!-- S&#45;1849 -->
<g id="node46" class="node">
<title>S&#45;1849</title>
<polygon fill="mediumseagreen" stroke="black" points="972,-1457 900,-1435.5 972,-1414 1044,-1435.5 972,-1457"/>
<text text-anchor="middle" x="972" y="-1433" font-family="Arial" font-size="10.00">S&#45;1849</text>
</g>
<!-- C&#45;0037&#45;&gt;S&#45;1849 -->
<g id="edge32" class="edge">
<title>C&#45;0037&#45;&gt;S&#45;1849</title>
<path fill="none" stroke="#4d4d4d" d="M774,-1536C853.98,-1536 972,-1536 972,-1536 972,-1536 972,-1464.31 972,-1464.31"/>
<polygon fill="#4d4d4d" stroke="#4d4d4d" points="974.45,-1464.31 972,-1457.31 969.55,-1464.31 974.45,-1464.31"/>
</g>
<!-- C&#45;0525 -->
<g id="node10" class="node">
<title>C&#45;0525</title>
<ellipse fill="mediumseagreen" stroke="black" cx="1152" cy="-829.5" rx="72" ry="21.5"/>
<text text-anchor="middle" x="1152" y="-827" font-family="Arial" font-size="10.00">C&#45;0525</text>
</g>
<!-- C&#45;0525&#45;&gt;S&#45;872 -->
<g id="edge3" class="edge">
<title>C&#45;0525&#45;&gt;S&#45;872</title>
<path fill="none" stroke="#4d4d4d" d="M1093.11,-842C908.84,-842 355.5,-842 355.5,-842 355.5,-842 355.5,-753.23 355.5,-753.23"/>
<polygon fill="#4d4d4d" stroke="#4d4d4d" points="357.95,-753.23 355.5,-746.23 353.05,-753.23 357.95,-753.23"/>
</g>
<!-- C&#45;0525&#45;&gt;S&#45;877 -->
<g id="edge19" class="edge">
<title>C&#45;0525&#45;&gt;S&#45;877</title>
<path fill="none" stroke="#4d4d4d" d="M1080.96,-833C916.19,-833 522,-833 522,-833 522,-833 522,-757.15 522,-757.15"/>
<polygon fill="#4d4d4d" stroke="#4d4d4d" points="524.45,-757.15 522,-750.15 519.55,-757.15 524.45,-757.15"/>
</g>
<!-- C&#45;0525&#45;&gt;S&#45;907 -->
<g id="edge22" class="edge">
<title>C&#45;0525&#45;&gt;S&#45;907</title>
<path fill="none" stroke="#4d4d4d" d="M1081.45,-825C965.42,-825 747,-825 747,-825 747,-825 747,-743.73 747,-743.73"/>
<polygon fill="#4d4d4d" stroke="#4d4d4d" points="749.45,-743.73 747,-736.73 744.55,-743.73 749.45,-743.73"/>
</g>
<!-- S&#45;875 -->
<g id="node16" class="node">
<title>S&#45;875</title>
<polygon fill="mediumseagreen" stroke="black" points="882,-750 810,-728.5 882,-707 954,-728.5 882,-750"/>
<text text-anchor="middle" x="882" y="-726" font-family="Arial" font-size="10.00">S&#45;875</text>
</g>
<!-- C&#45;0525&#45;&gt;S&#45;875 -->
<g id="edge21" class="edge">
<title>C&#45;0525&#45;&gt;S&#45;875</title>
<path fill="none" stroke="#4d4d4d" d="M1095.8,-816C1029.16,-816 927,-816 927,-816 927,-816 927,-743.57 927,-743.57"/>
<polygon fill="#4d4d4d" stroke="#4d4d4d" points="929.45,-743.57 927,-736.57 924.55,-743.57 929.45,-743.57"/>
</g>
<!-- SR&#45;0011 -->
<g id="node26" class="node">
<title>SR&#45;0011</title>
<polygon fill="mediumseagreen" stroke="black" points="1062,-750 990,-728.5 1062,-707 1134,-728.5 1062,-750"/>
<text text-anchor="middle" x="1062" y="-726" font-family="Arial" font-size="10.00">SR&#45;0011</text>
</g>
<!-- C&#45;0525&#45;&gt;SR&#45;0011 -->
<g id="edge23" class="edge">
<title>C&#45;0525&#45;&gt;SR&#45;0011</title>
<path fill="none" stroke="#4d4d4d" d="M1107,-812.37C1107,-812.37 1107,-743.78 1107,-743.78"/>
<polygon fill="#4d4d4d" stroke="#4d4d4d" points="1109.45,-743.78 1107,-736.78 1104.55,-743.78 1109.45,-743.78"/>
</g>
<!-- S&#45;1900 -->
<g id="node28" class="node">
<title>S&#45;1900</title>
<polygon fill="mediumseagreen" stroke="black" points="1242,-750 1170,-728.5 1242,-707 1314,-728.5 1242,-750"/>
<text text-anchor="middle" x="1242" y="-726" font-family="Arial" font-size="10.00">S&#45;1900</text>
</g>
<!-- C&#45;0525&#45;&gt;S&#45;1900 -->
<g id="edge15" class="edge">
<title>C&#45;0525&#45;&gt;S&#45;1900</title>
<path fill="none" stroke="#4d4d4d" d="M1197,-812.37C1197,-812.37 1197,-743.78 1197,-743.78"/>
<polygon fill="#4d4d4d" stroke="#4d4d4d" points="1199.45,-743.78 1197,-736.78 1194.55,-743.78 1199.45,-743.78"/>
</g>
<!-- S&#45;871 -->
<g id="node31" class="node">
<title>S&#45;871</title>
<polygon fill="mediumseagreen" stroke="black" points="1422,-750 1350,-728.5 1422,-707 1494,-728.5 1422,-750"/>
<text text-anchor="middle" x="1422" y="-726" font-family="Arial" font-size="10.00">S&#45;871</text>
</g>
<!-- C&#45;0525&#45;&gt;S&#45;871 -->
<g id="edge25" class="edge">
<title>C&#45;0525&#45;&gt;S&#45;871</title>
<path fill="none" stroke="#4d4d4d" d="M1208.2,-816C1274.84,-816 1377,-816 1377,-816 1377,-816 1377,-743.57 1377,-743.57"/>
<polygon fill="#4d4d4d" stroke="#4d4d4d" points="1379.45,-743.57 1377,-736.57 1374.55,-743.57 1379.45,-743.57"/>
</g>
<!-- C&#45;1110 -->
<g id="node37" class="node">
<title>C&#45;1110</title>
<ellipse fill="mediumseagreen" stroke="black" cx="1602" cy="-728.5" rx="72" ry="21.5"/>
<text text-anchor="middle" x="1602" y="-726" font-family="Arial" font-size="10.00">C&#45;1110</text>
</g>
<!-- C&#45;0525&#45;&gt;C&#45;1110 -->
<g id="edge13" class="edge">
<title>C&#45;0525&#45;&gt;C&#45;1110</title>
<path fill="none" stroke="#4d4d4d" d="M1222.55,-825C1338.58,-825 1557,-825 1557,-825 1557,-825 1557,-752.31 1557,-752.31"/>
<polygon fill="#4d4d4d" stroke="#4d4d4d" points="1559.45,-752.31 1557,-745.31 1554.55,-752.31 1559.45,-752.31"/>
</g>
<!-- C&#45;1036 -->
<g id="node41" class="node">
<title>C&#45;1036</title>
<ellipse fill="mediumseagreen" stroke="black" cx="1782" cy="-728.5" rx="72" ry="21.5"/>
<text text-anchor="middle" x="1782" y="-726" font-family="Arial" font-size="10.00">C&#45;1036</text>
</g>
<!-- C&#45;0525&#45;&gt;C&#45;1036 -->
<g id="edge20" class="edge">
<title>C&#45;0525&#45;&gt;C&#45;1036</title>
<path fill="none" stroke="#4d4d4d" d="M1223.15,-833C1379.05,-833 1737,-833 1737,-833 1737,-833 1737,-752.29 1737,-752.29"/>
<polygon fill="#4d4d4d" stroke="#4d4d4d" points="1739.45,-752.29 1737,-745.29 1734.55,-752.29 1739.45,-752.29"/>
</g>
<!-- S&#45;1363 -->
<g id="node45" class="node">
<title>S&#45;1363</title>
<polygon fill="mediumseagreen" stroke="black" points="1962,-750 1890,-728.5 1962,-707 2034,-728.5 1962,-750"/>
<text text-anchor="middle" x="1962" y="-726" font-family="Arial" font-size="10.00">S&#45;1363</text>
</g>
<!-- C&#45;0525&#45;&gt;S&#45;1363 -->
<g id="edge16" class="edge">
<title>C&#45;0525&#45;&gt;S&#45;1363</title>
<path fill="none" stroke="#4d4d4d" d="M1210.91,-842C1397.3,-842 1962,-842 1962,-842 1962,-842 1962,-757.12 1962,-757.12"/>
<polygon fill="#4d4d4d" stroke="#4d4d4d" points="1964.45,-757.12 1962,-750.12 1959.55,-757.12 1964.45,-757.12"/>
</g>
<!-- C&#45;0596 -->
<g id="node12" class="node">
<title>C&#45;0596</title>
<ellipse fill="mediumseagreen" stroke="black" cx="252" cy="-425.5" rx="72" ry="21.5"/>
<text text-anchor="middle" x="252" y="-423" font-family="Arial" font-size="10.00">C&#45;0596</text>
</g>
<!-- R&#45;100&#45;&gt;C&#45;0596 -->
<g id="edge7" class="edge">
<title>R&#45;100&#45;&gt;C&#45;0596</title>
<path fill="none" stroke="#4d4d4d" d="M252,-504.58C252,-504.58 252,-454.03 252,-454.03"/>
<polygon fill="#4d4d4d" stroke="#4d4d4d" points="254.45,-454.03 252,-447.03 249.55,-454.03 254.45,-454.03"/>
</g>
<!-- S&#45;1482 -->
<g id="node44" class="node">
<title>S&#45;1482</title>
<polygon fill="mediumseagreen" stroke="black" points="252,-346 180,-324.5 252,-303 324,-324.5 252,-346"/>
<text text-anchor="middle" x="252" y="-322" font-family="Arial" font-size="10.00">S&#45;1482</text>
</g>
<!-- C&#45;0596&#45;&gt;S&#45;1482 -->
<g id="edge8" class="edge">
<title>C&#45;0596&#45;&gt;S&#45;1482</title>
<path fill="none" stroke="#4d4d4d" d="M252,-403.58C252,-403.58 252,-353.03 252,-353.03"/>
<polygon fill="#4d4d4d" stroke="#4d4d4d" points="254.45,-353.03 252,-346.03 249.55,-353.03 254.45,-353.03"/>
</g>
<!-- S&#45;2231 -->
<g id="node13" class="node">
<title>S&#45;2231</title>
<polygon fill="mediumseagreen" stroke="black" points="1962,-548 1890,-526.5 1962,-505 2034,-526.5 1962,-548"/>
<text text-anchor="middle" x="1962" y="-524" font-family="Arial" font-size="10.00">S&#45;2231</text>
</g>
<!-- S&#45;2175 -->
<g id="node15" class="node">
<title>S&#45;2175</title>
<polygon fill="mediumseagreen" stroke="black" points="1962,-649 1890,-627.5 1962,-606 2034,-627.5 1962,-649"/>
<text text-anchor="middle" x="1962" y="-625" font-family="Arial" font-size="10.00">S&#45;2175</text>
</g>
<!-- S&#45;2175&#45;&gt;S&#45;2231 -->
<g id="edge18" class="edge">
<title>S&#45;2175&#45;&gt;S&#45;2231</title>
<path fill="none" stroke="#4d4d4d" d="M1962,-605.58C1962,-605.58 1962,-555.03 1962,-555.03"/>
<polygon fill="#4d4d4d" stroke="#4d4d4d" points="1964.45,-555.03 1962,-548.03 1959.55,-555.03 1964.45,-555.03"/>
</g>
<!-- S&#45;2607 -->
<g id="node17" class="node">
<title>S&#45;2607</title>
<polygon fill="mediumseagreen" stroke="black" points="1422,-649 1350,-627.5 1422,-606 1494,-627.5 1422,-649"/>
<text text-anchor="middle" x="1422" y="-625" font-family="Arial" font-size="10.00">S&#45;2607</text>
</g>
<!-- S&#45;1505 -->
<g id="node18" class="node">
<title>S&#45;1505</title>
<polygon fill="mediumseagreen" stroke="black" points="369,-1255 297,-1233.5 369,-1212 441,-1233.5 369,-1255"/>
<text text-anchor="middle" x="369" y="-1231" font-family="Arial" font-size="10.00">S&#45;1505</text>
</g>
<!-- S&#45;540 -->
<g id="node19" class="node">
<title>S&#45;540</title>
<polygon fill="mediumseagreen" stroke="black" points="972,-952 900,-930.5 972,-909 1044,-930.5 972,-952"/>
<text text-anchor="middle" x="972" y="-928" font-family="Arial" font-size="10.00">S&#45;540</text>
</g>
<!-- S&#45;544 -->
<g id="node20" class="node">
<title>S&#45;544</title>
<polygon fill="mediumseagreen" stroke="black" points="522,-1356 450,-1334.5 522,-1313 594,-1334.5 522,-1356"/>
<text text-anchor="middle" x="522" y="-1332" font-family="Arial" font-size="10.00">S&#45;544</text>
</g>
<!-- S&#45;544&#45;&gt;S&#45;1505 -->
<g id="edge35" class="edge">
<title>S&#45;544&#45;&gt;S&#45;1505</title>
<path fill="none" stroke="#4d4d4d" d="M459,-1331.57C459,-1314.93 459,-1233 459,-1233 459,-1233 446.47,-1233 446.47,-1233"/>
<polygon fill="#4d4d4d" stroke="#4d4d4d" points="446.47,-1230.55 439.47,-1233 446.47,-1235.45 446.47,-1230.55"/>
</g>
<!-- S&#45;2025 -->
<g id="node30" class="node">
<title>S&#45;2025</title>
<polygon fill="mediumseagreen" stroke="black" points="549,-1255 477,-1233.5 549,-1212 621,-1233.5 549,-1255"/>
<text text-anchor="middle" x="549" y="-1231" font-family="Arial" font-size="10.00">S&#45;2025</text>
</g>
<!-- S&#45;544&#45;&gt;S&#45;2025 -->
<g id="edge36" class="edge">
<title>S&#45;544&#45;&gt;S&#45;2025</title>
<path fill="none" stroke="#4d4d4d" d="M535.5,-1316.91C535.5,-1316.91 535.5,-1258.23 535.5,-1258.23"/>
<polygon fill="#4d4d4d" stroke="#4d4d4d" points="537.95,-1258.23 535.5,-1251.23 533.05,-1258.23 537.95,-1258.23"/>
</g>
<!-- ext_circ_303_26_ -->
<g id="node50" class="node">
<title>ext_circ_303_26_</title>
<polygon fill="lightpink" stroke="darkorange" stroke-dasharray="5,2" points="144,-43 0,-43 0,0 144,0 144,-43"/>
<text text-anchor="middle" x="72" y="-24.5" font-family="Arial" font-size="10.00">Circuito:</text>
<text text-anchor="middle" x="72" y="-13.5" font-family="Arial" font-size="10.00">303&#45;26&#45;</text>
</g>
<!-- R&#45;271&#45;&gt;ext_circ_303_26_ -->
<g id="edge49" class="edge">
<title>R&#45;271&#45;&gt;ext_circ_303_26_</title>
<path fill="none" stroke="darkorange" stroke-dasharray="5,2" d="M72,-100.58C72,-100.58 72,-50.03 72,-50.03"/>
<polygon fill="darkorange" stroke="darkorange" points="74.45,-50.03 72,-43.03 69.55,-50.03 74.45,-50.03"/>
</g>
<!-- C&#45;0842 -->
<g id="node22" class="node">
<title>C&#45;0842</title>
<ellipse fill="mediumseagreen" stroke="black" cx="882" cy="-1132.5" rx="72" ry="21.5"/>
<text text-anchor="middle" x="882" y="-1130" font-family="Arial" font-size="10.00">C&#45;0842</text>
</g>
<!-- S&#45;2017 -->
<g id="node29" class="node">
<title>S&#45;2017</title>
<polygon fill="mediumseagreen" stroke="black" points="702,-1053 630,-1031.5 702,-1010 774,-1031.5 702,-1053"/>
<text text-anchor="middle" x="702" y="-1029" font-family="Arial" font-size="10.00">S&#45;2017</text>
</g>
<!-- C&#45;0842&#45;&gt;S&#45;2017 -->
<g id="edge42" class="edge">
<title>C&#45;0842&#45;&gt;S&#45;2017</title>
<path fill="none" stroke="#4d4d4d" d="M814.46,-1125C763.39,-1125 702,-1125 702,-1125 702,-1125 702,-1060.19 702,-1060.19"/>
<polygon fill="#4d4d4d" stroke="#4d4d4d" points="704.45,-1060.19 702,-1053.19 699.55,-1060.19 704.45,-1060.19"/>
</g>
<!-- C&#45;0843 -->
<g id="node35" class="node">
<title>C&#45;0843</title>
<ellipse fill="tomato" stroke="black" cx="522" cy="-1031.5" rx="72" ry="21.5"/>
<text text-anchor="middle" x="522" y="-1029" font-family="Arial" font-size="10.00">C&#45;0843</text>
</g>
<!-- C&#45;0842&#45;&gt;C&#45;0843 -->
<g id="edge41" class="edge">
<title>C&#45;0842&#45;&gt;C&#45;0843</title>
<path fill="none" stroke="#4d4d4d" d="M813.13,-1139C712.08,-1139 535.5,-1139 535.5,-1139 535.5,-1139 535.5,-1059.74 535.5,-1059.74"/>
<polygon fill="#4d4d4d" stroke="#4d4d4d" points="537.95,-1059.74 535.5,-1052.74 533.05,-1059.74 537.95,-1059.74"/>
</g>
<!-- S&#45;589 -->
<g id="node36" class="node">
<title>S&#45;589</title>
<polygon fill="mediumseagreen" stroke="black" points="882,-1053 810,-1031.5 882,-1010 954,-1031.5 882,-1053"/>
<text text-anchor="middle" x="882" y="-1029" font-family="Arial" font-size="10.00">S&#45;589</text>
</g>
<!-- C&#45;0842&#45;&gt;S&#45;589 -->
<g id="edge43" class="edge">
<title>C&#45;0842&#45;&gt;S&#45;589</title>
<path fill="none" stroke="#4d4d4d" d="M882,-1110.58C882,-1110.58 882,-1060.03 882,-1060.03"/>
<polygon fill="#4d4d4d" stroke="#4d4d4d" points="884.45,-1060.03 882,-1053.03 879.55,-1060.03 884.45,-1060.03"/>
</g>
<!-- S&#45;860 -->
<g id="node42" class="node">
<title>S&#45;860</title>
<polygon fill="mediumseagreen" stroke="black" points="1062,-1053 990,-1031.5 1062,-1010 1134,-1031.5 1062,-1053"/>
<text text-anchor="middle" x="1062" y="-1029" font-family="Arial" font-size="10.00">S&#45;860</text>
</g>
<!-- C&#45;0842&#45;&gt;S&#45;860 -->
<g id="edge1" class="edge">
<title>C&#45;0842&#45;&gt;S&#45;860</title>
<path fill="none" stroke="#4d4d4d" d="M949.5,-1125C983.25,-1125 1017,-1125 1017,-1125 1017,-1125 1017,-1046.8 1017,-1046.8"/>
<polygon fill="#4d4d4d" stroke="#4d4d4d" points="1019.45,-1046.8 1017,-1039.8 1014.55,-1046.8 1019.45,-1046.8"/>
</g>
<!-- S&#45;139 -->
<g id="node47" class="node">
<title>S&#45;139</title>
<polygon fill="mediumseagreen" stroke="black" points="1242,-1053 1170,-1031.5 1242,-1010 1314,-1031.5 1242,-1053"/>
<text text-anchor="middle" x="1242" y="-1029" font-family="Arial" font-size="10.00">S&#45;139</text>
</g>
<!-- C&#45;0842&#45;&gt;S&#45;139 -->
<g id="edge44" class="edge">
<title>C&#45;0842&#45;&gt;S&#45;139</title>
<path fill="none" stroke="#4d4d4d" d="M950.99,-1139C1055.52,-1139 1242,-1139 1242,-1139 1242,-1139 1242,-1060.25 1242,-1060.25"/>
<polygon fill="#4d4d4d" stroke="#4d4d4d" points="1244.45,-1060.25 1242,-1053.25 1239.55,-1060.25 1244.45,-1060.25"/>
</g>
<!-- S&#45;2457 -->
<g id="node23" class="node">
<title>S&#45;2457</title>
<polygon fill="mediumseagreen" stroke="black" points="432,-245 360,-223.5 432,-202 504,-223.5 432,-245"/>
<text text-anchor="middle" x="432" y="-221" font-family="Arial" font-size="10.00">S&#45;2457</text>
</g>
<!-- R&#45;191 -->
<g id="node24" class="node">
<title>R&#45;191</title>
<polygon fill="mediumseagreen" stroke="black" points="954,-1224.59 954,-1242.41 911.82,-1255 852.18,-1255 810,-1242.41 810,-1224.59 852.18,-1212 911.82,-1212 954,-1224.59"/>
<text text-anchor="middle" x="882" y="-1231" font-family="Arial" font-size="10.00">R&#45;191</text>
</g>
<!-- R&#45;191&#45;&gt;C&#45;0842 -->
<g id="edge40" class="edge">
<title>R&#45;191&#45;&gt;C&#45;0842</title>
<path fill="none" stroke="#4d4d4d" d="M882,-1211.58C882,-1211.58 882,-1161.03 882,-1161.03"/>
<polygon fill="#4d4d4d" stroke="#4d4d4d" points="884.45,-1161.03 882,-1154.03 879.55,-1161.03 884.45,-1161.03"/>
</g>
<!-- C&#45;0358&#45;&gt;S&#45;544 -->
<g id="edge34" class="edge">
<title>C&#45;0358&#45;&gt;S&#45;544</title>
<path fill="none" stroke="#4d4d4d" d="M567,-1418.37C567,-1418.37 567,-1349.78 567,-1349.78"/>
<polygon fill="#4d4d4d" stroke="#4d4d4d" points="569.45,-1349.78 567,-1342.78 564.55,-1349.78 569.45,-1349.78"/>
</g>
<!-- S&#45;859 -->
<g id="node38" class="node">
<title>S&#45;859</title>
<polygon fill="mediumseagreen" stroke="black" points="702,-1356 630,-1334.5 702,-1313 774,-1334.5 702,-1356"/>
<text text-anchor="middle" x="702" y="-1332" font-family="Arial" font-size="10.00">S&#45;859</text>
</g>
<!-- C&#45;0358&#45;&gt;S&#45;859 -->
<g id="edge37" class="edge">
<title>C&#45;0358&#45;&gt;S&#45;859</title>
<path fill="none" stroke="#4d4d4d" d="M648,-1416.5C648,-1416.5 648,-1346.97 648,-1346.97"/>
<polygon fill="#4d4d4d" stroke="#4d4d4d" points="650.45,-1346.97 648,-1339.97 645.55,-1346.97 650.45,-1346.97"/>
</g>
<!-- C&#45;0844 -->
<g id="node43" class="node">
<title>C&#45;0844</title>
<ellipse fill="mediumseagreen" stroke="black" cx="882" cy="-1334.5" rx="72" ry="21.5"/>
<text text-anchor="middle" x="882" y="-1332" font-family="Arial" font-size="10.00">C&#45;0844</text>
</g>
<!-- C&#45;0358&#45;&gt;C&#45;0844 -->
<g id="edge38" class="edge">
<title>C&#45;0358&#45;&gt;C&#45;0844</title>
<path fill="none" stroke="#4d4d4d" d="M666,-1421.16C666,-1406.23 666,-1385 666,-1385 666,-1385 837,-1385 837,-1385 837,-1385 837,-1358.32 837,-1358.32"/>
<polygon fill="#4d4d4d" stroke="#4d4d4d" points="839.45,-1358.32 837,-1351.32 834.55,-1358.32 839.45,-1358.32"/>
</g>
<!-- S&#45;2003 -->
<g id="node34" class="node">
<title>S&#45;2003</title>
<polygon fill="mediumseagreen" stroke="black" points="1062,-649 990,-627.5 1062,-606 1134,-627.5 1062,-649"/>
<text text-anchor="middle" x="1062" y="-625" font-family="Arial" font-size="10.00">S&#45;2003</text>
</g>
<!-- SR&#45;0011&#45;&gt;S&#45;2003 -->
<g id="edge24" class="edge">
<title>SR&#45;0011&#45;&gt;S&#45;2003</title>
<path fill="none" stroke="#4d4d4d" d="M1062,-706.58C1062,-706.58 1062,-656.03 1062,-656.03"/>
<polygon fill="#4d4d4d" stroke="#4d4d4d" points="1064.45,-656.03 1062,-649.03 1059.55,-656.03 1064.45,-656.03"/>
</g>
<!-- C&#45;0563&#45;&gt;S&#45;1482 -->
<g id="edge50" class="edge">
<title>C&#45;0563&#45;&gt;S&#45;1482</title>
<path fill="none" stroke="blue" stroke-dasharray="5,2" d="M408,-607.12C408,-540.13 408,-331 408,-331 408,-331 309.65,-331 309.65,-331"/>
<polygon fill="blue" stroke="blue" points="309.65,-328.55 302.65,-331 309.65,-333.45 309.65,-328.55"/>
</g>
<!-- S&#45;871&#45;&gt;S&#45;2607 -->
<g id="edge26" class="edge">
<title>S&#45;871&#45;&gt;S&#45;2607</title>
<path fill="none" stroke="#4d4d4d" d="M1422,-706.58C1422,-706.58 1422,-656.03 1422,-656.03"/>
<polygon fill="#4d4d4d" stroke="#4d4d4d" points="1424.45,-656.03 1422,-649.03 1419.55,-656.03 1424.45,-656.03"/>
</g>
<!-- R&#45;065 -->
<g id="node32" class="node">
<title>R&#45;065</title>
<polygon fill="mediumseagreen" stroke="black" points="1224,-921.59 1224,-939.41 1181.82,-952 1122.18,-952 1080,-939.41 1080,-921.59 1122.18,-909 1181.82,-909 1224,-921.59"/>
<text text-anchor="middle" x="1152" y="-928" font-family="Arial" font-size="10.00">R&#45;065</text>
</g>
<!-- R&#45;065&#45;&gt;C&#45;0525 -->
<g id="edge27" class="edge">
<title>R&#45;065&#45;&gt;C&#45;0525</title>
<path fill="none" stroke="#4d4d4d" d="M1152,-908.58C1152,-908.58 1152,-858.03 1152,-858.03"/>
<polygon fill="#4d4d4d" stroke="#4d4d4d" points="1154.45,-858.03 1152,-851.03 1149.55,-858.03 1154.45,-858.03"/>
</g>
<!-- 304&#45;23&#45; -->
<g id="node33" class="node">
<title>304&#45;23&#45;</title>
<polygon fill="gold" stroke="black" points="774,-1632.59 774,-1650.41 731.82,-1663 672.18,-1663 630,-1650.41 630,-1632.59 672.18,-1620 731.82,-1620 774,-1632.59"/>
<polygon fill="none" stroke="black" points="778,-1629.61 778,-1653.39 732.41,-1667 671.59,-1667 626,-1653.39 626,-1629.61 671.59,-1616 732.41,-1616 778,-1629.61"/>
<text text-anchor="middle" x="702" y="-1639" font-family="Arial" font-size="10.00">304&#45;23&#45;</text>
</g>
<!-- 304&#45;23&#45;&#45;&gt;C&#45;0037 -->
<g id="edge29" class="edge">
<title>304&#45;23&#45;&#45;&gt;C&#45;0037</title>
<path fill="none" stroke="#4d4d4d" d="M702,-1615.81C702,-1615.81 702,-1565.03 702,-1565.03"/>
<polygon fill="#4d4d4d" stroke="#4d4d4d" points="704.45,-1565.03 702,-1558.03 699.55,-1565.03 704.45,-1565.03"/>
</g>
<!-- C&#45;0843&#45;&gt;C&#45;0844 -->
<g id="edge52" class="edge">
<title>C&#45;0843&#45;&gt;C&#45;0844</title>
<path fill="none" stroke="blue" stroke-dasharray="5,2" d="M468,-1045.8C468,-1099.21 468,-1284 468,-1284 468,-1284 858,-1284 858,-1284 858,-1284 858,-1306.96 858,-1306.96"/>
<polygon fill="blue" stroke="blue" points="855.55,-1306.96 858,-1313.96 860.45,-1306.96 855.55,-1306.96"/>
</g>
<!-- S&#45;906 -->
<g id="node40" class="node">
<title>S&#45;906</title>
<polygon fill="mediumseagreen" stroke="black" points="1332,-952 1260,-930.5 1332,-909 1404,-930.5 1332,-952"/>
<text text-anchor="middle" x="1332" y="-928" font-family="Arial" font-size="10.00">S&#45;906</text>
</g>
<!-- C&#45;0844&#45;&gt;R&#45;191 -->
<g id="edge39" class="edge">
<title>C&#45;0844&#45;&gt;R&#45;191</title>
<path fill="none" stroke="#4d4d4d" d="M906,-1314.06C906,-1314.06 906,-1262.31 906,-1262.31"/>
<polygon fill="#4d4d4d" stroke="#4d4d4d" points="908.45,-1262.31 906,-1255.31 903.55,-1262.31 908.45,-1262.31"/>
</g>
<!-- S&#45;1482&#45;&gt;C&#45;1096 -->
<g id="edge12" class="edge">
<title>S&#45;1482&#45;&gt;C&#45;1096</title>
<path fill="none" stroke="#4d4d4d" d="M181.63,-324C131.15,-324 72,-324 72,-324 72,-324 72,-252.31 72,-252.31"/>
<polygon fill="#4d4d4d" stroke="#4d4d4d" points="74.45,-252.31 72,-245.31 69.55,-252.31 74.45,-252.31"/>
</g>
<!-- S&#45;1482&#45;&gt;S&#45;1481 -->
<g id="edge10" class="edge">
<title>S&#45;1482&#45;&gt;S&#45;1481</title>
<path fill="none" stroke="#4d4d4d" d="M252,-302.58C252,-302.58 252,-252.03 252,-252.03"/>
<polygon fill="#4d4d4d" stroke="#4d4d4d" points="254.45,-252.03 252,-245.03 249.55,-252.03 254.45,-252.03"/>
</g>
<!-- S&#45;1482&#45;&gt;S&#45;2457 -->
<g id="edge9" class="edge">
<title>S&#45;1482&#45;&gt;S&#45;2457</title>
<path fill="none" stroke="#4d4d4d" d="M299.06,-317C359.3,-317 456,-317 456,-317 456,-317 456,-245.11 456,-245.11"/>
<polygon fill="#4d4d4d" stroke="#4d4d4d" points="458.45,-245.11 456,-238.11 453.55,-245.11 458.45,-245.11"/>
</g>
<!-- S&#45;1363&#45;&gt;S&#45;2175 -->
<g id="edge17" class="edge">
<title>S&#45;1363&#45;&gt;S&#45;2175</title>
<path fill="none" stroke="#4d4d4d" d="M1962,-706.58C1962,-706.58 1962,-656.03 1962,-656.03"/>
<polygon fill="#4d4d4d" stroke="#4d4d4d" points="1964.45,-656.03 1962,-649.03 1959.55,-656.03 1964.45,-656.03"/>
</g>
<!-- S&#45;139&#45;&gt;S&#45;1554 -->
<g id="edge48" class="edge">
<title>S&#45;139&#45;&gt;S&#45;1554</title>
<path fill="none" stroke="#4d4d4d" d="M1183.5,-1027.37C1183.5,-1016.87 1183.5,-990 1183.5,-990 1183.5,-990 837,-990 837,-990 837,-990 837,-945.77 837,-945.77"/>
<polygon fill="#4d4d4d" stroke="#4d4d4d" points="839.45,-945.77 837,-938.77 834.55,-945.77 839.45,-945.77"/>
</g>
<!-- S&#45;139&#45;&gt;S&#45;540 -->
<g id="edge46" class="edge">
<title>S&#45;139&#45;&gt;S&#45;540</title>
<path fill="none" stroke="#4d4d4d" d="M1197,-1023.34C1197,-1006.83 1197,-971 1197,-971 1197,-971 1017,-971 1017,-971 1017,-971 1017,-945.7 1017,-945.7"/>
<polygon fill="#4d4d4d" stroke="#4d4d4d" points="1019.45,-945.7 1017,-938.7 1014.55,-945.7 1019.45,-945.7"/>
</g>
<!-- S&#45;139&#45;&gt;R&#45;065 -->
<g id="edge28" class="edge">
<title>S&#45;139&#45;&gt;R&#45;065</title>
<path fill="none" stroke="#4d4d4d" d="M1210.5,-1019.12C1210.5,-1019.12 1210.5,-950.63 1210.5,-950.63"/>
<polygon fill="#4d4d4d" stroke="#4d4d4d" points="1212.95,-950.63 1210.5,-943.63 1208.05,-950.63 1212.95,-950.63"/>
</g>
<!-- S&#45;139&#45;&gt;S&#45;906 -->
<g id="edge45" class="edge">
<title>S&#45;139&#45;&gt;S&#45;906</title>
<path fill="none" stroke="#4d4d4d" d="M1287,-1023.23C1287,-1023.23 1287,-945.6 1287,-945.6"/>
<polygon fill="#4d4d4d" stroke="#4d4d4d" points="1289.45,-945.6 1287,-938.6 1284.55,-945.6 1289.45,-945.6"/>
</g>
<!-- S&#45;870 -->
<g id="node48" class="node">
<title>S&#45;870</title>
<polygon fill="mediumseagreen" stroke="black" points="1512,-952 1440,-930.5 1512,-909 1584,-930.5 1512,-952"/>
<text text-anchor="middle" x="1512" y="-928" font-family="Arial" font-size="10.00">S&#45;870</text>
</g>
<!-- S&#45;139&#45;&gt;S&#45;870 -->
<g id="edge14" class="edge">
<title>S&#45;139&#45;&gt;S&#45;870</title>
<path fill="none" stroke="#4d4d4d" d="M1289.03,-1024C1366.39,-1024 1512,-1024 1512,-1024 1512,-1024 1512,-959.19 1512,-959.19"/>
<polygon fill="#4d4d4d" stroke="#4d4d4d" points="1514.45,-959.19 1512,-952.19 1509.55,-959.19 1514.45,-959.19"/>
</g>
<!-- S&#45;879 -->
<g id="node49" class="node">
<title>S&#45;879</title>
<polygon fill="mediumseagreen" stroke="black" points="1692,-952 1620,-930.5 1692,-909 1764,-930.5 1692,-952"/>
<text text-anchor="middle" x="1692" y="-928" font-family="Arial" font-size="10.00">S&#45;879</text>
</g>
<!-- S&#45;139&#45;&gt;S&#45;879 -->
<g id="edge47" class="edge">
<title>S&#45;139&#45;&gt;S&#45;879</title>
<path fill="none" stroke="#4d4d4d" d="M1292.31,-1038C1409.74,-1038 1692,-1038 1692,-1038 1692,-1038 1692,-959.25 1692,-959.25"/>
<polygon fill="#4d4d4d" stroke="#4d4d4d" points="1694.45,-959.25 1692,-952.25 1689.55,-959.25 1694.45,-959.25"/>
</g>
</g>
</svg>
