<?xml version="1.0" encoding="UTF-8" standalone="no"?>
<!DOCTYPE svg PUBLIC "-//W3C//DTD SVG 1.1//EN"
 "http://www.w3.org/Graphics/SVG/1.1/DTD/svg11.dtd">
<!-- Generated by graphviz version 2.50.0 (0)
 -->
<!-- Title: Grafo_Circuito_208_24_ Pages: 1 -->
<svg width="2858pt" height="1271pt"
 viewBox="0.00 0.00 2858.00 1271.00" xmlns="http://www.w3.org/2000/svg" xmlns:xlink="http://www.w3.org/1999/xlink">
<g id="graph0" class="graph" transform="scale(1 1) rotate(0) translate(4 1267)">
<title>Grafo_Circuito_208_24_</title>
<polygon fill="white" stroke="transparent" points="-4,4 -4,-1267 2854,-1267 2854,4 -4,4"/>
<!-- S&#45;989 -->
<g id="node1" class="node">
<title>S&#45;989</title>
<polygon fill="mediumseagreen" stroke="black" points="252,-346 180,-324.5 252,-303 324,-324.5 252,-346"/>
<text text-anchor="middle" x="252" y="-322" font-family="Arial" font-size="10.00">S&#45;989</text>
</g>
<!-- S&#45;2311 -->
<g id="node2" class="node">
<title>S&#45;2311</title>
<polygon fill="mediumseagreen" stroke="black" points="1964,-144 1892,-122.5 1964,-101 2036,-122.5 1964,-144"/>
<text text-anchor="middle" x="1964" y="-120" font-family="Arial" font-size="10.00">S&#45;2311</text>
</g>
<!-- R&#45;296 -->
<g id="node3" class="node">
<title>R&#45;296</title>
<polygon fill="mediumseagreen" stroke="black" points="2259,-517.59 2259,-535.41 2216.82,-548 2157.18,-548 2115,-535.41 2115,-517.59 2157.18,-505 2216.82,-505 2259,-517.59"/>
<text text-anchor="middle" x="2187" y="-524" font-family="Arial" font-size="10.00">R&#45;296</text>
</g>
<!-- C&#45;1199 -->
<g id="node36" class="node">
<title>C&#45;1199</title>
<ellipse fill="tomato" stroke="black" cx="2140" cy="-425.5" rx="72" ry="21.5"/>
<text text-anchor="middle" x="2140" y="-423" font-family="Arial" font-size="10.00">C&#45;1199</text>
</g>
<!-- R&#45;296&#45;&gt;C&#45;1199 -->
<g id="edge26" class="edge">
<title>R&#45;296&#45;&gt;C&#45;1199</title>
<path fill="none" stroke="#4d4d4d" d="M2163.5,-504.58C2163.5,-504.58 2163.5,-453 2163.5,-453"/>
<polygon fill="#4d4d4d" stroke="#4d4d4d" points="2165.95,-453 2163.5,-446 2161.05,-453 2165.95,-453"/>
</g>
<!-- SR&#45;0010 -->
<g id="node4" class="node">
<title>SR&#45;0010</title>
<polygon fill="mediumseagreen" stroke="black" points="1264,-649 1192,-627.5 1264,-606 1336,-627.5 1264,-649"/>
<text text-anchor="middle" x="1264" y="-625" font-family="Arial" font-size="10.00">SR&#45;0010</text>
</g>
<!-- C&#45;0317 -->
<g id="node8" class="node">
<title>C&#45;0317</title>
<ellipse fill="tomato" stroke="black" cx="1804" cy="-223.5" rx="72" ry="21.5"/>
<text text-anchor="middle" x="1804" y="-221" font-family="Arial" font-size="10.00">C&#45;0317</text>
</g>
<!-- SR&#45;0010&#45;&gt;C&#45;0317 -->
<g id="edge52" class="edge">
<title>SR&#45;0010&#45;&gt;C&#45;0317</title>
<path fill="none" stroke="#4d4d4d" d="M1300,-616.6C1300,-604.3 1300,-586 1300,-586 1300,-586 1795.5,-586 1795.5,-586 1795.5,-586 1795.5,-252.09 1795.5,-252.09"/>
<polygon fill="#4d4d4d" stroke="#4d4d4d" points="1797.95,-252.09 1795.5,-245.09 1793.05,-252.09 1797.95,-252.09"/>
</g>
<!-- SR&#45;0003 -->
<g id="node17" class="node">
<title>SR&#45;0003</title>
<polygon fill="mediumseagreen" stroke="black" points="1084,-548 1012,-526.5 1084,-505 1156,-526.5 1084,-548"/>
<text text-anchor="middle" x="1084" y="-524" font-family="Arial" font-size="10.00">SR&#45;0003</text>
</g>
<!-- SR&#45;0010&#45;&gt;SR&#45;0003 -->
<g id="edge53" class="edge">
<title>SR&#45;0010&#45;&gt;SR&#45;0003</title>
<path fill="none" stroke="#4d4d4d" d="M1193.42,-627C1170.1,-627 1150,-627 1150,-627 1150,-627 1150,-535.6 1150,-535.6"/>
<polygon fill="#4d4d4d" stroke="#4d4d4d" points="1152.45,-535.6 1150,-528.6 1147.55,-535.6 1152.45,-535.6"/>
</g>
<!-- C&#45;1047 -->
<g id="node18" class="node">
<title>C&#45;1047</title>
<ellipse fill="tomato" stroke="black" cx="1264" cy="-526.5" rx="72" ry="21.5"/>
<text text-anchor="middle" x="1264" y="-524" font-family="Arial" font-size="10.00">C&#45;1047</text>
</g>
<!-- SR&#45;0010&#45;&gt;C&#45;1047 -->
<g id="edge43" class="edge">
<title>SR&#45;0010&#45;&gt;C&#45;1047</title>
<path fill="none" stroke="#4d4d4d" d="M1228,-616.69C1228,-616.69 1228,-552.46 1228,-552.46"/>
<polygon fill="#4d4d4d" stroke="#4d4d4d" points="1230.45,-552.46 1228,-545.46 1225.55,-552.46 1230.45,-552.46"/>
</g>
<!-- C&#45;1046 -->
<g id="node26" class="node">
<title>C&#45;1046</title>
<ellipse fill="mediumseagreen" stroke="black" cx="1444" cy="-526.5" rx="72" ry="21.5"/>
<text text-anchor="middle" x="1444" y="-524" font-family="Arial" font-size="10.00">C&#45;1046</text>
</g>
<!-- SR&#45;0010&#45;&gt;C&#45;1046 -->
<g id="edge44" class="edge">
<title>SR&#45;0010&#45;&gt;C&#45;1046</title>
<path fill="none" stroke="#4d4d4d" d="M1311.22,-620C1329.45,-620 1346,-620 1346,-620 1346,-620 1346,-526 1346,-526 1346,-526 1365,-526 1365,-526"/>
<polygon fill="#4d4d4d" stroke="#4d4d4d" points="1365,-528.45 1372,-526 1365,-523.55 1365,-528.45"/>
</g>
<!-- C&#45;1134 -->
<g id="node53" class="node">
<title>C&#45;1134</title>
<ellipse fill="mediumseagreen" stroke="black" cx="1624" cy="-526.5" rx="72" ry="21.5"/>
<text text-anchor="middle" x="1624" y="-524" font-family="Arial" font-size="10.00">C&#45;1134</text>
</g>
<!-- SR&#45;0010&#45;&gt;C&#45;1134 -->
<g id="edge50" class="edge">
<title>SR&#45;0010&#45;&gt;C&#45;1134</title>
<path fill="none" stroke="#4d4d4d" d="M1264,-606C1264,-588.61 1264,-567 1264,-567 1264,-567 1624,-567 1624,-567 1624,-567 1624,-555.17 1624,-555.17"/>
<polygon fill="#4d4d4d" stroke="#4d4d4d" points="1626.45,-555.17 1624,-548.17 1621.55,-555.17 1626.45,-555.17"/>
</g>
<!-- S&#45;1045 -->
<g id="node5" class="node">
<title>S&#45;1045</title>
<polygon fill="mediumseagreen" stroke="black" points="2144,-144 2072,-122.5 2144,-101 2216,-122.5 2144,-144"/>
<text text-anchor="middle" x="2144" y="-120" font-family="Arial" font-size="10.00">S&#45;1045</text>
</g>
<!-- 208&#45;24&#45; -->
<g id="node6" class="node">
<title>208&#45;24&#45;</title>
<polygon fill="gold" stroke="black" points="877,-1228.59 877,-1246.41 834.82,-1259 775.18,-1259 733,-1246.41 733,-1228.59 775.18,-1216 834.82,-1216 877,-1228.59"/>
<polygon fill="none" stroke="black" points="881,-1225.61 881,-1249.39 835.41,-1263 774.59,-1263 729,-1249.39 729,-1225.61 774.59,-1212 835.41,-1212 881,-1225.61"/>
<text text-anchor="middle" x="805" y="-1235" font-family="Arial" font-size="10.00">208&#45;24&#45;</text>
</g>
<!-- C&#45;0189 -->
<g id="node41" class="node">
<title>C&#45;0189</title>
<ellipse fill="mediumseagreen" stroke="black" cx="805" cy="-1132.5" rx="72" ry="21.5"/>
<text text-anchor="middle" x="805" y="-1130" font-family="Arial" font-size="10.00">C&#45;0189</text>
</g>
<!-- 208&#45;24&#45;&#45;&gt;C&#45;0189 -->
<g id="edge1" class="edge">
<title>208&#45;24&#45;&#45;&gt;C&#45;0189</title>
<path fill="none" stroke="#4d4d4d" d="M805,-1211.81C805,-1211.81 805,-1161.03 805,-1161.03"/>
<polygon fill="#4d4d4d" stroke="#4d4d4d" points="807.45,-1161.03 805,-1154.03 802.55,-1161.03 807.45,-1161.03"/>
</g>
<!-- S&#45;2177 -->
<g id="node7" class="node">
<title>S&#45;2177</title>
<polygon fill="mediumseagreen" stroke="black" points="2778,-649 2706,-627.5 2778,-606 2850,-627.5 2778,-649"/>
<text text-anchor="middle" x="2778" y="-625" font-family="Arial" font-size="10.00">S&#45;2177</text>
</g>
<!-- ext_circ_205_23_ -->
<g id="node61" class="node">
<title>ext_circ_205_23_</title>
<polygon fill="lightpink" stroke="darkorange" stroke-dasharray="5,2" points="1876,-43 1732,-43 1732,0 1876,0 1876,-43"/>
<text text-anchor="middle" x="1804" y="-24.5" font-family="Arial" font-size="10.00">Circuito:</text>
<text text-anchor="middle" x="1804" y="-13.5" font-family="Arial" font-size="10.00">205&#45;23&#45;</text>
</g>
<!-- C&#45;0317&#45;&gt;ext_circ_205_23_ -->
<g id="edge68" class="edge">
<title>C&#45;0317&#45;&gt;ext_circ_205_23_</title>
<path fill="none" stroke="darkorange" stroke-dasharray="5,2" d="M1804,-201.88C1804,-201.88 1804,-50.27 1804,-50.27"/>
<polygon fill="darkorange" stroke="darkorange" points="1806.45,-50.27 1804,-43.27 1801.55,-50.27 1806.45,-50.27"/>
</g>
<!-- C&#45;0487 -->
<g id="node9" class="node">
<title>C&#45;0487</title>
<ellipse fill="tomato" stroke="black" cx="1211" cy="-223.5" rx="72" ry="21.5"/>
<text text-anchor="middle" x="1211" y="-221" font-family="Arial" font-size="10.00">C&#45;0487</text>
</g>
<!-- ext_circ_208_27_ -->
<g id="node59" class="node">
<title>ext_circ_208_27_</title>
<polygon fill="lightpink" stroke="darkorange" stroke-dasharray="5,2" points="1219,-43 1075,-43 1075,0 1219,0 1219,-43"/>
<text text-anchor="middle" x="1147" y="-24.5" font-family="Arial" font-size="10.00">Circuito:</text>
<text text-anchor="middle" x="1147" y="-13.5" font-family="Arial" font-size="10.00">208&#45;27&#45;</text>
</g>
<!-- C&#45;0487&#45;&gt;ext_circ_208_27_ -->
<g id="edge65" class="edge">
<title>C&#45;0487&#45;&gt;ext_circ_208_27_</title>
<path fill="none" stroke="darkorange" stroke-dasharray="5,2" d="M1177,-204.5C1177,-204.5 1177,-50.02 1177,-50.02"/>
<polygon fill="darkorange" stroke="darkorange" points="1179.45,-50.02 1177,-43.02 1174.55,-50.02 1179.45,-50.02"/>
</g>
<!-- C&#45;0709 -->
<g id="node10" class="node">
<title>C&#45;0709</title>
<ellipse fill="mediumseagreen" stroke="black" cx="1804" cy="-627.5" rx="72" ry="21.5"/>
<text text-anchor="middle" x="1804" y="-625" font-family="Arial" font-size="10.00">C&#45;0709</text>
</g>
<!-- C&#45;0318 -->
<g id="node11" class="node">
<title>C&#45;0318</title>
<ellipse fill="tomato" stroke="black" cx="355" cy="-930.5" rx="72" ry="21.5"/>
<text text-anchor="middle" x="355" y="-928" font-family="Arial" font-size="10.00">C&#45;0318</text>
</g>
<!-- S&#45;2255 -->
<g id="node12" class="node">
<title>S&#45;2255</title>
<polygon fill="mediumseagreen" stroke="black" points="432,-649 360,-627.5 432,-606 504,-627.5 432,-649"/>
<text text-anchor="middle" x="432" y="-625" font-family="Arial" font-size="10.00">S&#45;2255</text>
</g>
<!-- S&#45;1707 -->
<g id="node46" class="node">
<title>S&#45;1707</title>
<polygon fill="mediumseagreen" stroke="black" points="432,-548 360,-526.5 432,-505 504,-526.5 432,-548"/>
<text text-anchor="middle" x="432" y="-524" font-family="Arial" font-size="10.00">S&#45;1707</text>
</g>
<!-- S&#45;2255&#45;&gt;S&#45;1707 -->
<g id="edge15" class="edge">
<title>S&#45;2255&#45;&gt;S&#45;1707</title>
<path fill="none" stroke="#4d4d4d" d="M432,-605.58C432,-605.58 432,-555.03 432,-555.03"/>
<polygon fill="#4d4d4d" stroke="#4d4d4d" points="434.45,-555.03 432,-548.03 429.55,-555.03 434.45,-555.03"/>
</g>
<!-- R&#45;285 -->
<g id="node13" class="node">
<title>R&#45;285</title>
<polygon fill="tomato" stroke="black" points="1696,-214.59 1696,-232.41 1653.82,-245 1594.18,-245 1552,-232.41 1552,-214.59 1594.18,-202 1653.82,-202 1696,-214.59"/>
<text text-anchor="middle" x="1624" y="-221" font-family="Arial" font-size="10.00">R&#45;285</text>
</g>
<!-- R&#45;285&#45;&gt;ext_circ_205_23_ -->
<g id="edge67" class="edge">
<title>R&#45;285&#45;&gt;ext_circ_205_23_</title>
<path fill="none" stroke="darkorange" stroke-dasharray="5,2" d="M1624,-201.83C1624,-149.59 1624,-21 1624,-21 1624,-21 1724.82,-21 1724.82,-21"/>
<polygon fill="darkorange" stroke="darkorange" points="1724.82,-23.45 1731.82,-21 1724.82,-18.55 1724.82,-23.45"/>
</g>
<!-- R&#45;255 -->
<g id="node14" class="node">
<title>R&#45;255</title>
<polygon fill="mediumseagreen" stroke="black" points="1479,-416.59 1479,-434.41 1436.82,-447 1377.18,-447 1335,-434.41 1335,-416.59 1377.18,-404 1436.82,-404 1479,-416.59"/>
<text text-anchor="middle" x="1407" y="-423" font-family="Arial" font-size="10.00">R&#45;255</text>
</g>
<!-- C&#45;1048 -->
<g id="node57" class="node">
<title>C&#45;1048</title>
<ellipse fill="mediumseagreen" stroke="black" cx="1391" cy="-324.5" rx="72" ry="21.5"/>
<text text-anchor="middle" x="1391" y="-322" font-family="Arial" font-size="10.00">C&#45;1048</text>
</g>
<!-- R&#45;255&#45;&gt;C&#45;1048 -->
<g id="edge46" class="edge">
<title>R&#45;255&#45;&gt;C&#45;1048</title>
<path fill="none" stroke="#4d4d4d" d="M1399,-403.58C1399,-403.58 1399,-353.03 1399,-353.03"/>
<polygon fill="#4d4d4d" stroke="#4d4d4d" points="1401.45,-353.03 1399,-346.03 1396.55,-353.03 1401.45,-353.03"/>
</g>
<!-- S&#45;988 -->
<g id="node15" class="node">
<title>S&#45;988</title>
<polygon fill="mediumseagreen" stroke="black" points="72,-346 0,-324.5 72,-303 144,-324.5 72,-346"/>
<text text-anchor="middle" x="72" y="-322" font-family="Arial" font-size="10.00">S&#45;988</text>
</g>
<!-- R&#45;059 -->
<g id="node16" class="node">
<title>R&#45;059</title>
<polygon fill="mediumseagreen" stroke="black" points="1516,-719.59 1516,-737.41 1473.82,-750 1414.18,-750 1372,-737.41 1372,-719.59 1414.18,-707 1473.82,-707 1516,-719.59"/>
<text text-anchor="middle" x="1444" y="-726" font-family="Arial" font-size="10.00">R&#45;059</text>
</g>
<!-- R&#45;059&#45;&gt;SR&#45;0010 -->
<g id="edge42" class="edge">
<title>R&#45;059&#45;&gt;SR&#45;0010</title>
<path fill="none" stroke="#4d4d4d" d="M1371.96,-728C1367.05,-728 1364,-728 1364,-728 1364,-728 1364,-634 1364,-634 1364,-634 1321.29,-634 1321.29,-634"/>
<polygon fill="#4d4d4d" stroke="#4d4d4d" points="1321.29,-631.55 1314.29,-634 1321.29,-636.45 1321.29,-631.55"/>
</g>
<!-- S&#45;1818 -->
<g id="node31" class="node">
<title>S&#45;1818</title>
<polygon fill="mediumseagreen" stroke="black" points="1444,-649 1372,-627.5 1444,-606 1516,-627.5 1444,-649"/>
<text text-anchor="middle" x="1444" y="-625" font-family="Arial" font-size="10.00">S&#45;1818</text>
</g>
<!-- R&#45;059&#45;&gt;S&#45;1818 -->
<g id="edge40" class="edge">
<title>R&#45;059&#45;&gt;S&#45;1818</title>
<path fill="none" stroke="#4d4d4d" d="M1444,-706.58C1444,-706.58 1444,-656.03 1444,-656.03"/>
<polygon fill="#4d4d4d" stroke="#4d4d4d" points="1446.45,-656.03 1444,-649.03 1441.55,-656.03 1446.45,-656.03"/>
</g>
<!-- S&#45;1817 -->
<g id="node44" class="node">
<title>S&#45;1817</title>
<polygon fill="mediumseagreen" stroke="black" points="1624,-649 1552,-627.5 1624,-606 1696,-627.5 1624,-649"/>
<text text-anchor="middle" x="1624" y="-625" font-family="Arial" font-size="10.00">S&#45;1817</text>
</g>
<!-- R&#45;059&#45;&gt;S&#45;1817 -->
<g id="edge41" class="edge">
<title>R&#45;059&#45;&gt;S&#45;1817</title>
<path fill="none" stroke="#4d4d4d" d="M1507.46,-717C1559.28,-717 1624,-717 1624,-717 1624,-717 1624,-656.17 1624,-656.17"/>
<polygon fill="#4d4d4d" stroke="#4d4d4d" points="1626.45,-656.17 1624,-649.17 1621.55,-656.17 1626.45,-656.17"/>
</g>
<!-- C&#45;0639 -->
<g id="node50" class="node">
<title>C&#45;0639</title>
<ellipse fill="tomato" stroke="black" cx="1084" cy="-122.5" rx="72" ry="21.5"/>
<text text-anchor="middle" x="1084" y="-120" font-family="Arial" font-size="10.00">C&#45;0639</text>
</g>
<!-- SR&#45;0003&#45;&gt;C&#45;0639 -->
<g id="edge54" class="edge">
<title>SR&#45;0003&#45;&gt;C&#45;0639</title>
<path fill="none" stroke="#4d4d4d" d="M1075.5,-507.29C1075.5,-507.29 1075.5,-151.25 1075.5,-151.25"/>
<polygon fill="#4d4d4d" stroke="#4d4d4d" points="1077.95,-151.25 1075.5,-144.25 1073.05,-151.25 1077.95,-151.25"/>
</g>
<!-- C&#45;1047&#45;&gt;C&#45;1048 -->
<g id="edge64" class="edge">
<title>C&#45;1047&#45;&gt;C&#45;1048</title>
<path fill="none" stroke="blue" stroke-dasharray="5,2" d="M1327,-515.92C1327,-515.92 1327,-341.49 1327,-341.49"/>
<polygon fill="blue" stroke="blue" points="1329.45,-341.49 1327,-334.49 1324.55,-341.49 1329.45,-341.49"/>
</g>
<!-- C&#45;0406 -->
<g id="node19" class="node">
<title>C&#45;0406</title>
<ellipse fill="mediumseagreen" stroke="black" cx="2335" cy="-425.5" rx="72" ry="21.5"/>
<text text-anchor="middle" x="2335" y="-423" font-family="Arial" font-size="10.00">C&#45;0406</text>
</g>
<!-- S&#45;1185 -->
<g id="node34" class="node">
<title>S&#45;1185</title>
<polygon fill="mediumseagreen" stroke="black" points="2301,-346 2229,-324.5 2301,-303 2373,-324.5 2301,-346"/>
<text text-anchor="middle" x="2301" y="-322" font-family="Arial" font-size="10.00">S&#45;1185</text>
</g>
<!-- C&#45;0406&#45;&gt;S&#45;1185 -->
<g id="edge33" class="edge">
<title>C&#45;0406&#45;&gt;S&#45;1185</title>
<path fill="none" stroke="#4d4d4d" d="M2318,-404.57C2318,-404.57 2318,-348.07 2318,-348.07"/>
<polygon fill="#4d4d4d" stroke="#4d4d4d" points="2320.45,-348.07 2318,-341.07 2315.55,-348.07 2320.45,-348.07"/>
</g>
<!-- C&#45;0644 -->
<g id="node20" class="node">
<title>C&#45;0644</title>
<ellipse fill="tomato" stroke="black" cx="1931" cy="-425.5" rx="72" ry="21.5"/>
<text text-anchor="middle" x="1931" y="-423" font-family="Arial" font-size="10.00">C&#45;0644</text>
</g>
<!-- ext_circ_208_23_ -->
<g id="node60" class="node">
<title>ext_circ_208_23_</title>
<polygon fill="lightpink" stroke="darkorange" stroke-dasharray="5,2" points="2003,-346 1859,-346 1859,-303 2003,-303 2003,-346"/>
<text text-anchor="middle" x="1931" y="-327.5" font-family="Arial" font-size="10.00">Circuito:</text>
<text text-anchor="middle" x="1931" y="-316.5" font-family="Arial" font-size="10.00">208&#45;23&#45;</text>
</g>
<!-- C&#45;0644&#45;&gt;ext_circ_208_23_ -->
<g id="edge63" class="edge">
<title>C&#45;0644&#45;&gt;ext_circ_208_23_</title>
<path fill="none" stroke="darkorange" stroke-dasharray="5,2" d="M1931,-403.58C1931,-403.58 1931,-353.03 1931,-353.03"/>
<polygon fill="darkorange" stroke="darkorange" points="1933.45,-353.03 1931,-346.03 1928.55,-353.03 1933.45,-353.03"/>
</g>
<!-- R&#45;138 -->
<g id="node21" class="node">
<title>R&#45;138</title>
<polygon fill="mediumseagreen" stroke="black" points="2470,-517.59 2470,-535.41 2427.82,-548 2368.18,-548 2326,-535.41 2326,-517.59 2368.18,-505 2427.82,-505 2470,-517.59"/>
<text text-anchor="middle" x="2398" y="-524" font-family="Arial" font-size="10.00">R&#45;138</text>
</g>
<!-- R&#45;138&#45;&gt;C&#45;0406 -->
<g id="edge32" class="edge">
<title>R&#45;138&#45;&gt;C&#45;0406</title>
<path fill="none" stroke="#4d4d4d" d="M2366.5,-505.08C2366.5,-505.08 2366.5,-451.84 2366.5,-451.84"/>
<polygon fill="#4d4d4d" stroke="#4d4d4d" points="2368.95,-451.84 2366.5,-444.84 2364.05,-451.84 2368.95,-451.84"/>
</g>
<!-- S&#45;1042 -->
<g id="node22" class="node">
<title>S&#45;1042</title>
<polygon fill="tomato" stroke="black" points="2324,-144 2252,-122.5 2324,-101 2396,-122.5 2324,-144"/>
<text text-anchor="middle" x="2324" y="-120" font-family="Arial" font-size="10.00">S&#45;1042</text>
</g>
<!-- S&#45;1042&#45;&gt;ext_circ_205_23_ -->
<g id="edge62" class="edge">
<title>S&#45;1042&#45;&gt;ext_circ_205_23_</title>
<path fill="none" stroke="darkorange" stroke-dasharray="5,2" d="M2324,-100.97C2324,-71.18 2324,-21 2324,-21 2324,-21 1883.03,-21 1883.03,-21"/>
<polygon fill="darkorange" stroke="darkorange" points="1883.03,-18.55 1876.03,-21 1883.03,-23.45 1883.03,-18.55"/>
</g>
<!-- S&#45;987 -->
<g id="node23" class="node">
<title>S&#45;987</title>
<polygon fill="mediumseagreen" stroke="black" points="252,-447 180,-425.5 252,-404 324,-425.5 252,-447"/>
<text text-anchor="middle" x="252" y="-423" font-family="Arial" font-size="10.00">S&#45;987</text>
</g>
<!-- S&#45;987&#45;&gt;S&#45;989 -->
<g id="edge13" class="edge">
<title>S&#45;987&#45;&gt;S&#45;989</title>
<path fill="none" stroke="#4d4d4d" d="M252,-403.58C252,-403.58 252,-353.03 252,-353.03"/>
<polygon fill="#4d4d4d" stroke="#4d4d4d" points="254.45,-353.03 252,-346.03 249.55,-353.03 254.45,-353.03"/>
</g>
<!-- S&#45;987&#45;&gt;S&#45;988 -->
<g id="edge12" class="edge">
<title>S&#45;987&#45;&gt;S&#45;988</title>
<path fill="none" stroke="#4d4d4d" d="M181.63,-425C131.15,-425 72,-425 72,-425 72,-425 72,-353.31 72,-353.31"/>
<polygon fill="#4d4d4d" stroke="#4d4d4d" points="74.45,-353.31 72,-346.31 69.55,-353.31 74.45,-353.31"/>
</g>
<!-- S&#45;294 -->
<g id="node24" class="node">
<title>S&#45;294</title>
<polygon fill="mediumseagreen" stroke="black" points="2058,-649 1986,-627.5 2058,-606 2130,-627.5 2058,-649"/>
<text text-anchor="middle" x="2058" y="-625" font-family="Arial" font-size="10.00">S&#45;294</text>
</g>
<!-- S&#45;1157 -->
<g id="node25" class="node">
<title>S&#45;1157</title>
<polygon fill="mediumseagreen" stroke="black" points="612,-649 540,-627.5 612,-606 684,-627.5 612,-649"/>
<text text-anchor="middle" x="612" y="-625" font-family="Arial" font-size="10.00">S&#45;1157</text>
</g>
<!-- C&#45;1046&#45;&gt;R&#45;255 -->
<g id="edge45" class="edge">
<title>C&#45;1046&#45;&gt;R&#45;255</title>
<path fill="none" stroke="#4d4d4d" d="M1425.5,-505.57C1425.5,-505.57 1425.5,-454.1 1425.5,-454.1"/>
<polygon fill="#4d4d4d" stroke="#4d4d4d" points="1427.95,-454.1 1425.5,-447.1 1423.05,-454.1 1427.95,-454.1"/>
</g>
<!-- C&#45;1302 -->
<g id="node27" class="node">
<title>C&#45;1302</title>
<ellipse fill="mediumseagreen" stroke="black" cx="535" cy="-930.5" rx="72" ry="21.5"/>
<text text-anchor="middle" x="535" y="-928" font-family="Arial" font-size="10.00">C&#45;1302</text>
</g>
<!-- R&#45;304 -->
<g id="node45" class="node">
<title>R&#45;304</title>
<polygon fill="mediumseagreen" stroke="black" points="607,-820.59 607,-838.41 564.82,-851 505.18,-851 463,-838.41 463,-820.59 505.18,-808 564.82,-808 607,-820.59"/>
<text text-anchor="middle" x="535" y="-827" font-family="Arial" font-size="10.00">R&#45;304</text>
</g>
<!-- C&#45;1302&#45;&gt;R&#45;304 -->
<g id="edge5" class="edge">
<title>C&#45;1302&#45;&gt;R&#45;304</title>
<path fill="none" stroke="#4d4d4d" d="M535,-908.58C535,-908.58 535,-858.03 535,-858.03"/>
<polygon fill="#4d4d4d" stroke="#4d4d4d" points="537.45,-858.03 535,-851.03 532.55,-858.03 537.45,-858.03"/>
</g>
<!-- C&#45;0068 -->
<g id="node28" class="node">
<title>C&#45;0068</title>
<ellipse fill="tomato" stroke="black" cx="1216" cy="-829.5" rx="72" ry="21.5"/>
<text text-anchor="middle" x="1216" y="-827" font-family="Arial" font-size="10.00">C&#45;0068</text>
</g>
<!-- C&#45;0068&#45;&gt;ext_circ_208_27_ -->
<g id="edge59" class="edge">
<title>C&#45;0068&#45;&gt;ext_circ_208_27_</title>
<path fill="none" stroke="darkorange" stroke-dasharray="5,2" d="M1143.95,-829C1083.69,-829 1007.5,-829 1007.5,-829 1007.5,-829 1007.5,-21 1007.5,-21 1007.5,-21 1067.8,-21 1067.8,-21"/>
<polygon fill="darkorange" stroke="darkorange" points="1067.8,-23.45 1074.8,-21 1067.8,-18.55 1067.8,-23.45"/>
</g>
<!-- R&#45;151 -->
<g id="node29" class="node">
<title>R&#45;151</title>
<polygon fill="tomato" stroke="black" points="1436,-113.59 1436,-131.41 1393.82,-144 1334.18,-144 1292,-131.41 1292,-113.59 1334.18,-101 1393.82,-101 1436,-113.59"/>
<text text-anchor="middle" x="1364" y="-120" font-family="Arial" font-size="10.00">R&#45;151</text>
</g>
<!-- R&#45;151&#45;&gt;ext_circ_208_27_ -->
<g id="edge66" class="edge">
<title>R&#45;151&#45;&gt;ext_circ_208_27_</title>
<path fill="none" stroke="darkorange" stroke-dasharray="5,2" d="M1291.67,-122C1246.94,-122 1198,-122 1198,-122 1198,-122 1198,-50.31 1198,-50.31"/>
<polygon fill="darkorange" stroke="darkorange" points="1200.45,-50.31 1198,-43.31 1195.55,-50.31 1200.45,-50.31"/>
</g>
<!-- S&#45;792 -->
<g id="node30" class="node">
<title>S&#45;792</title>
<polygon fill="mediumseagreen" stroke="black" points="715,-952 643,-930.5 715,-909 787,-930.5 715,-952"/>
<text text-anchor="middle" x="715" y="-928" font-family="Arial" font-size="10.00">S&#45;792</text>
</g>
<!-- S&#45;990 -->
<g id="node32" class="node">
<title>S&#45;990</title>
<polygon fill="mediumseagreen" stroke="black" points="252,-548 180,-526.5 252,-505 324,-526.5 252,-548"/>
<text text-anchor="middle" x="252" y="-524" font-family="Arial" font-size="10.00">S&#45;990</text>
</g>
<!-- S&#45;990&#45;&gt;S&#45;987 -->
<g id="edge11" class="edge">
<title>S&#45;990&#45;&gt;S&#45;987</title>
<path fill="none" stroke="#4d4d4d" d="M252,-504.58C252,-504.58 252,-454.03 252,-454.03"/>
<polygon fill="#4d4d4d" stroke="#4d4d4d" points="254.45,-454.03 252,-447.03 249.55,-454.03 254.45,-454.03"/>
</g>
<!-- C&#45;0405 -->
<g id="node33" class="node">
<title>C&#45;0405</title>
<ellipse fill="mediumseagreen" stroke="black" cx="2418" cy="-627.5" rx="72" ry="21.5"/>
<text text-anchor="middle" x="2418" y="-625" font-family="Arial" font-size="10.00">C&#45;0405</text>
</g>
<!-- C&#45;0405&#45;&gt;R&#45;138 -->
<g id="edge31" class="edge">
<title>C&#45;0405&#45;&gt;R&#45;138</title>
<path fill="none" stroke="#4d4d4d" d="M2408,-606.08C2408,-606.08 2408,-555.24 2408,-555.24"/>
<polygon fill="#4d4d4d" stroke="#4d4d4d" points="2410.45,-555.24 2408,-548.24 2405.55,-555.24 2410.45,-555.24"/>
</g>
<!-- S&#45;297 -->
<g id="node56" class="node">
<title>S&#45;297</title>
<polygon fill="mediumseagreen" stroke="black" points="2234,-245 2162,-223.5 2234,-202 2306,-223.5 2234,-245"/>
<text text-anchor="middle" x="2234" y="-221" font-family="Arial" font-size="10.00">S&#45;297</text>
</g>
<!-- S&#45;1185&#45;&gt;S&#45;297 -->
<g id="edge34" class="edge">
<title>S&#45;1185&#45;&gt;S&#45;297</title>
<path fill="none" stroke="#4d4d4d" d="M2267.5,-312.91C2267.5,-312.91 2267.5,-242.26 2267.5,-242.26"/>
<polygon fill="#4d4d4d" stroke="#4d4d4d" points="2269.95,-242.26 2267.5,-235.26 2265.05,-242.26 2269.95,-242.26"/>
</g>
<!-- C&#45;1255 -->
<g id="node35" class="node">
<title>C&#45;1255</title>
<ellipse fill="mediumseagreen" stroke="black" cx="805" cy="-1031.5" rx="72" ry="21.5"/>
<text text-anchor="middle" x="805" y="-1029" font-family="Arial" font-size="10.00">C&#45;1255</text>
</g>
<!-- C&#45;1255&#45;&gt;C&#45;0318 -->
<g id="edge56" class="edge">
<title>C&#45;1255&#45;&gt;C&#45;0318</title>
<path fill="none" stroke="#4d4d4d" d="M736.16,-1038C610.11,-1038 355,-1038 355,-1038 355,-1038 355,-959.25 355,-959.25"/>
<polygon fill="#4d4d4d" stroke="#4d4d4d" points="357.45,-959.25 355,-952.25 352.55,-959.25 357.45,-959.25"/>
</g>
<!-- C&#45;1255&#45;&gt;C&#45;1302 -->
<g id="edge4" class="edge">
<title>C&#45;1255&#45;&gt;C&#45;1302</title>
<path fill="none" stroke="#4d4d4d" d="M737.22,-1024C657.24,-1024 535,-1024 535,-1024 535,-1024 535,-959.19 535,-959.19"/>
<polygon fill="#4d4d4d" stroke="#4d4d4d" points="537.45,-959.19 535,-952.19 532.55,-959.19 537.45,-959.19"/>
</g>
<!-- C&#45;1255&#45;&gt;S&#45;792 -->
<g id="edge18" class="edge">
<title>C&#45;1255&#45;&gt;S&#45;792</title>
<path fill="none" stroke="#4d4d4d" d="M760,-1014.37C760,-1014.37 760,-945.78 760,-945.78"/>
<polygon fill="#4d4d4d" stroke="#4d4d4d" points="762.45,-945.78 760,-938.78 757.55,-945.78 762.45,-945.78"/>
</g>
<!-- C&#45;1304 -->
<g id="node48" class="node">
<title>C&#45;1304</title>
<ellipse fill="tomato" stroke="black" cx="895" cy="-930.5" rx="72" ry="21.5"/>
<text text-anchor="middle" x="895" y="-928" font-family="Arial" font-size="10.00">C&#45;1304</text>
</g>
<!-- C&#45;1255&#45;&gt;C&#45;1304 -->
<g id="edge3" class="edge">
<title>C&#45;1255&#45;&gt;C&#45;1304</title>
<path fill="none" stroke="#4d4d4d" d="M850,-1014.37C850,-1014.37 850,-954.38 850,-954.38"/>
<polygon fill="#4d4d4d" stroke="#4d4d4d" points="852.45,-954.38 850,-947.38 847.55,-954.38 852.45,-954.38"/>
</g>
<!-- S&#45;2555 -->
<g id="node49" class="node">
<title>S&#45;2555</title>
<polygon fill="mediumseagreen" stroke="black" points="1075,-952 1003,-930.5 1075,-909 1147,-930.5 1075,-952"/>
<text text-anchor="middle" x="1075" y="-928" font-family="Arial" font-size="10.00">S&#45;2555</text>
</g>
<!-- C&#45;1255&#45;&gt;S&#45;2555 -->
<g id="edge17" class="edge">
<title>C&#45;1255&#45;&gt;S&#45;2555</title>
<path fill="none" stroke="#4d4d4d" d="M872.78,-1024C952.76,-1024 1075,-1024 1075,-1024 1075,-1024 1075,-959.19 1075,-959.19"/>
<polygon fill="#4d4d4d" stroke="#4d4d4d" points="1077.45,-959.19 1075,-952.19 1072.55,-959.19 1077.45,-959.19"/>
</g>
<!-- S&#45;1146 -->
<g id="node51" class="node">
<title>S&#45;1146</title>
<polygon fill="mediumseagreen" stroke="black" points="1255,-952 1183,-930.5 1255,-909 1327,-930.5 1255,-952"/>
<text text-anchor="middle" x="1255" y="-928" font-family="Arial" font-size="10.00">S&#45;1146</text>
</g>
<!-- C&#45;1255&#45;&gt;S&#45;1146 -->
<g id="edge19" class="edge">
<title>C&#45;1255&#45;&gt;S&#45;1146</title>
<path fill="none" stroke="#4d4d4d" d="M873.84,-1038C999.89,-1038 1255,-1038 1255,-1038 1255,-1038 1255,-959.25 1255,-959.25"/>
<polygon fill="#4d4d4d" stroke="#4d4d4d" points="1257.45,-959.25 1255,-952.25 1252.55,-959.25 1257.45,-959.25"/>
</g>
<!-- C&#45;1199&#45;&gt;ext_circ_208_23_ -->
<g id="edge60" class="edge">
<title>C&#45;1199&#45;&gt;ext_circ_208_23_</title>
<path fill="none" stroke="darkorange" stroke-dasharray="5,2" d="M2117,-404.96C2117,-375.3 2117,-324 2117,-324 2117,-324 2010.18,-324 2010.18,-324"/>
<polygon fill="darkorange" stroke="darkorange" points="2010.18,-321.55 2003.18,-324 2010.18,-326.45 2010.18,-321.55"/>
</g>
<!-- C&#45;0489 -->
<g id="node37" class="node">
<title>C&#45;0489</title>
<ellipse fill="mediumseagreen" stroke="black" cx="1391" cy="-223.5" rx="72" ry="21.5"/>
<text text-anchor="middle" x="1391" y="-221" font-family="Arial" font-size="10.00">C&#45;0489</text>
</g>
<!-- C&#45;0489&#45;&gt;R&#45;151 -->
<g id="edge49" class="edge">
<title>C&#45;0489&#45;&gt;R&#45;151</title>
<path fill="none" stroke="#4d4d4d" d="M1377.5,-202.08C1377.5,-202.08 1377.5,-151.24 1377.5,-151.24"/>
<polygon fill="#4d4d4d" stroke="#4d4d4d" points="1379.95,-151.24 1377.5,-144.24 1375.05,-151.24 1379.95,-151.24"/>
</g>
<!-- S&#45;290 -->
<g id="node38" class="node">
<title>S&#45;290</title>
<polygon fill="mediumseagreen" stroke="black" points="792,-649 720,-627.5 792,-606 864,-627.5 792,-649"/>
<text text-anchor="middle" x="792" y="-625" font-family="Arial" font-size="10.00">S&#45;290</text>
</g>
<!-- S&#45;701 -->
<g id="node39" class="node">
<title>S&#45;701</title>
<polygon fill="tomato" stroke="black" points="432,-447 360,-425.5 432,-404 504,-425.5 432,-447"/>
<text text-anchor="middle" x="432" y="-423" font-family="Arial" font-size="10.00">S&#45;701</text>
</g>
<!-- ext_circ_208_22_ -->
<g id="node58" class="node">
<title>ext_circ_208_22_</title>
<polygon fill="lightpink" stroke="darkorange" stroke-dasharray="5,2" points="504,-346 360,-346 360,-303 504,-303 504,-346"/>
<text text-anchor="middle" x="432" y="-327.5" font-family="Arial" font-size="10.00">Circuito:</text>
<text text-anchor="middle" x="432" y="-316.5" font-family="Arial" font-size="10.00">208&#45;22&#45;</text>
</g>
<!-- S&#45;701&#45;&gt;ext_circ_208_22_ -->
<g id="edge58" class="edge">
<title>S&#45;701&#45;&gt;ext_circ_208_22_</title>
<path fill="none" stroke="darkorange" stroke-dasharray="5,2" d="M432,-403.58C432,-403.58 432,-353.03 432,-353.03"/>
<polygon fill="darkorange" stroke="darkorange" points="434.45,-353.03 432,-346.03 429.55,-353.03 434.45,-353.03"/>
</g>
<!-- C&#45;1303 -->
<g id="node40" class="node">
<title>C&#45;1303</title>
<ellipse fill="mediumseagreen" stroke="black" cx="535" cy="-728.5" rx="72" ry="21.5"/>
<text text-anchor="middle" x="535" y="-726" font-family="Arial" font-size="10.00">C&#45;1303</text>
</g>
<!-- C&#45;1303&#45;&gt;S&#45;2255 -->
<g id="edge14" class="edge">
<title>C&#45;1303&#45;&gt;S&#45;2255</title>
<path fill="none" stroke="#4d4d4d" d="M483.5,-713.16C483.5,-713.16 483.5,-640.88 483.5,-640.88"/>
<polygon fill="#4d4d4d" stroke="#4d4d4d" points="485.95,-640.88 483.5,-633.88 481.05,-640.88 485.95,-640.88"/>
</g>
<!-- C&#45;1303&#45;&gt;S&#45;1157 -->
<g id="edge8" class="edge">
<title>C&#45;1303&#45;&gt;S&#45;1157</title>
<path fill="none" stroke="#4d4d4d" d="M573.5,-709.98C573.5,-709.98 573.5,-644.6 573.5,-644.6"/>
<polygon fill="#4d4d4d" stroke="#4d4d4d" points="575.95,-644.6 573.5,-637.6 571.05,-644.6 575.95,-644.6"/>
</g>
<!-- C&#45;1303&#45;&gt;S&#45;290 -->
<g id="edge7" class="edge">
<title>C&#45;1303&#45;&gt;S&#45;290</title>
<path fill="none" stroke="#4d4d4d" d="M602.64,-721C666.81,-721 753.5,-721 753.5,-721 753.5,-721 753.5,-644.51 753.5,-644.51"/>
<polygon fill="#4d4d4d" stroke="#4d4d4d" points="755.95,-644.51 753.5,-637.51 751.05,-644.51 755.95,-644.51"/>
</g>
<!-- SR&#45;0009 -->
<g id="node42" class="node">
<title>SR&#45;0009</title>
<polygon fill="mediumseagreen" stroke="black" points="252,-649 180,-627.5 252,-606 324,-627.5 252,-649"/>
<text text-anchor="middle" x="252" y="-625" font-family="Arial" font-size="10.00">SR&#45;0009</text>
</g>
<!-- C&#45;1303&#45;&gt;SR&#45;0009 -->
<g id="edge9" class="edge">
<title>C&#45;1303&#45;&gt;SR&#45;0009</title>
<path fill="none" stroke="#4d4d4d" d="M462.7,-728C394.78,-728 303.5,-728 303.5,-728 303.5,-728 303.5,-640.79 303.5,-640.79"/>
<polygon fill="#4d4d4d" stroke="#4d4d4d" points="305.95,-640.79 303.5,-633.79 301.05,-640.79 305.95,-640.79"/>
</g>
<!-- C&#45;0189&#45;&gt;C&#45;1255 -->
<g id="edge2" class="edge">
<title>C&#45;0189&#45;&gt;C&#45;1255</title>
<path fill="none" stroke="#4d4d4d" d="M805,-1110.58C805,-1110.58 805,-1060.03 805,-1060.03"/>
<polygon fill="#4d4d4d" stroke="#4d4d4d" points="807.45,-1060.03 805,-1053.03 802.55,-1060.03 807.45,-1060.03"/>
</g>
<!-- SR&#45;0009&#45;&gt;S&#45;990 -->
<g id="edge10" class="edge">
<title>SR&#45;0009&#45;&gt;S&#45;990</title>
<path fill="none" stroke="#4d4d4d" d="M252,-605.58C252,-605.58 252,-555.03 252,-555.03"/>
<polygon fill="#4d4d4d" stroke="#4d4d4d" points="254.45,-555.03 252,-548.03 249.55,-555.03 254.45,-555.03"/>
</g>
<!-- S&#45;292 -->
<g id="node43" class="node">
<title>S&#45;292</title>
<polygon fill="mediumseagreen" stroke="black" points="1428,-851 1356,-829.5 1428,-808 1500,-829.5 1428,-851"/>
<text text-anchor="middle" x="1428" y="-827" font-family="Arial" font-size="10.00">S&#45;292</text>
</g>
<!-- S&#45;292&#45;&gt;R&#45;059 -->
<g id="edge39" class="edge">
<title>S&#45;292&#45;&gt;R&#45;059</title>
<path fill="none" stroke="#4d4d4d" d="M1436,-810.03C1436,-810.03 1436,-757.01 1436,-757.01"/>
<polygon fill="#4d4d4d" stroke="#4d4d4d" points="1438.45,-757.01 1436,-750.01 1433.55,-757.01 1438.45,-757.01"/>
</g>
<!-- C&#45;0703 -->
<g id="node47" class="node">
<title>C&#45;0703</title>
<ellipse fill="mediumseagreen" stroke="black" cx="2148" cy="-728.5" rx="72" ry="21.5"/>
<text text-anchor="middle" x="2148" y="-726" font-family="Arial" font-size="10.00">C&#45;0703</text>
</g>
<!-- S&#45;292&#45;&gt;C&#45;0703 -->
<g id="edge22" class="edge">
<title>S&#45;292&#45;&gt;C&#45;0703</title>
<path fill="none" stroke="#4d4d4d" d="M1498.35,-829C1679.52,-829 2148,-829 2148,-829 2148,-829 2148,-757.31 2148,-757.31"/>
<polygon fill="#4d4d4d" stroke="#4d4d4d" points="2150.45,-757.31 2148,-750.31 2145.55,-757.31 2150.45,-757.31"/>
</g>
<!-- S&#45;996 -->
<g id="node55" class="node">
<title>S&#45;996</title>
<polygon fill="mediumseagreen" stroke="black" points="1264,-750 1192,-728.5 1264,-707 1336,-728.5 1264,-750"/>
<text text-anchor="middle" x="1264" y="-726" font-family="Arial" font-size="10.00">S&#45;996</text>
</g>
<!-- S&#45;292&#45;&gt;S&#45;996 -->
<g id="edge55" class="edge">
<title>S&#45;292&#45;&gt;S&#45;996</title>
<path fill="none" stroke="#4d4d4d" d="M1380.88,-822C1356.38,-822 1331.5,-822 1331.5,-822 1331.5,-822 1331.5,-737.12 1331.5,-737.12"/>
<polygon fill="#4d4d4d" stroke="#4d4d4d" points="1333.95,-737.12 1331.5,-730.12 1329.05,-737.12 1333.95,-737.12"/>
</g>
<!-- R&#45;304&#45;&gt;C&#45;1303 -->
<g id="edge6" class="edge">
<title>R&#45;304&#45;&gt;C&#45;1303</title>
<path fill="none" stroke="#4d4d4d" d="M535,-807.58C535,-807.58 535,-757.03 535,-757.03"/>
<polygon fill="#4d4d4d" stroke="#4d4d4d" points="537.45,-757.03 535,-750.03 532.55,-757.03 537.45,-757.03"/>
</g>
<!-- S&#45;1707&#45;&gt;S&#45;701 -->
<g id="edge16" class="edge">
<title>S&#45;1707&#45;&gt;S&#45;701</title>
<path fill="none" stroke="#4d4d4d" d="M432,-504.58C432,-504.58 432,-454.03 432,-454.03"/>
<polygon fill="#4d4d4d" stroke="#4d4d4d" points="434.45,-454.03 432,-447.03 429.55,-454.03 434.45,-454.03"/>
</g>
<!-- C&#45;0703&#45;&gt;S&#45;2177 -->
<g id="edge27" class="edge">
<title>C&#45;0703&#45;&gt;S&#45;2177</title>
<path fill="none" stroke="#4d4d4d" d="M2211,-739C2370.56,-739 2778,-739 2778,-739 2778,-739 2778,-656.26 2778,-656.26"/>
<polygon fill="#4d4d4d" stroke="#4d4d4d" points="2780.45,-656.26 2778,-649.26 2775.55,-656.26 2780.45,-656.26"/>
</g>
<!-- C&#45;0703&#45;&gt;C&#45;0709 -->
<g id="edge23" class="edge">
<title>C&#45;0703&#45;&gt;C&#45;0709</title>
<path fill="none" stroke="#4d4d4d" d="M2084.91,-739C1985.6,-739 1804,-739 1804,-739 1804,-739 1804,-656.26 1804,-656.26"/>
<polygon fill="#4d4d4d" stroke="#4d4d4d" points="1806.45,-656.26 1804,-649.26 1801.55,-656.26 1806.45,-656.26"/>
</g>
<!-- C&#45;0703&#45;&gt;C&#45;0644 -->
<g id="edge38" class="edge">
<title>C&#45;0703&#45;&gt;C&#45;0644</title>
<path fill="none" stroke="#4d4d4d" d="M2075.74,-728C2012.62,-728 1931,-728 1931,-728 1931,-728 1931,-454.26 1931,-454.26"/>
<polygon fill="#4d4d4d" stroke="#4d4d4d" points="1933.45,-454.26 1931,-447.26 1928.55,-454.26 1933.45,-454.26"/>
</g>
<!-- C&#45;0703&#45;&gt;S&#45;294 -->
<g id="edge28" class="edge">
<title>C&#45;0703&#45;&gt;S&#45;294</title>
<path fill="none" stroke="#4d4d4d" d="M2103,-711.37C2103,-711.37 2103,-642.78 2103,-642.78"/>
<polygon fill="#4d4d4d" stroke="#4d4d4d" points="2105.45,-642.78 2103,-635.78 2100.55,-642.78 2105.45,-642.78"/>
</g>
<!-- C&#45;0703&#45;&gt;C&#45;0405 -->
<g id="edge29" class="edge">
<title>C&#45;0703&#45;&gt;C&#45;0405</title>
<path fill="none" stroke="#4d4d4d" d="M2208.93,-717C2288.56,-717 2418,-717 2418,-717 2418,-717 2418,-656.17 2418,-656.17"/>
<polygon fill="#4d4d4d" stroke="#4d4d4d" points="2420.45,-656.17 2418,-649.17 2415.55,-656.17 2420.45,-656.17"/>
</g>
<!-- C&#45;1198 -->
<g id="node52" class="node">
<title>C&#45;1198</title>
<ellipse fill="mediumseagreen" stroke="black" cx="2238" cy="-627.5" rx="72" ry="21.5"/>
<text text-anchor="middle" x="2238" y="-625" font-family="Arial" font-size="10.00">C&#45;1198</text>
</g>
<!-- C&#45;0703&#45;&gt;C&#45;1198 -->
<g id="edge24" class="edge">
<title>C&#45;0703&#45;&gt;C&#45;1198</title>
<path fill="none" stroke="#4d4d4d" d="M2193,-711.37C2193,-711.37 2193,-651.38 2193,-651.38"/>
<polygon fill="#4d4d4d" stroke="#4d4d4d" points="2195.45,-651.38 2193,-644.38 2190.55,-651.38 2195.45,-651.38"/>
</g>
<!-- C&#45;0404 -->
<g id="node54" class="node">
<title>C&#45;0404</title>
<ellipse fill="tomato" stroke="black" cx="2598" cy="-627.5" rx="72" ry="21.5"/>
<text text-anchor="middle" x="2598" y="-625" font-family="Arial" font-size="10.00">C&#45;0404</text>
</g>
<!-- C&#45;0703&#45;&gt;C&#45;0404 -->
<g id="edge30" class="edge">
<title>C&#45;0703&#45;&gt;C&#45;0404</title>
<path fill="none" stroke="#4d4d4d" d="M2220.3,-728C2347.5,-728 2598,-728 2598,-728 2598,-728 2598,-656.31 2598,-656.31"/>
<polygon fill="#4d4d4d" stroke="#4d4d4d" points="2600.45,-656.31 2598,-649.31 2595.55,-656.31 2600.45,-656.31"/>
</g>
<!-- C&#45;1304&#45;&gt;C&#45;1303 -->
<g id="edge57" class="edge">
<title>C&#45;1304&#45;&gt;C&#45;1303</title>
<path fill="none" stroke="blue" stroke-dasharray="5,2" d="M843.5,-915.16C843.5,-869.07 843.5,-735 843.5,-735 843.5,-735 610.85,-735 610.85,-735"/>
<polygon fill="blue" stroke="blue" points="610.85,-732.55 603.85,-735 610.85,-737.45 610.85,-732.55"/>
</g>
<!-- C&#45;0639&#45;&gt;ext_circ_208_27_ -->
<g id="edge69" class="edge">
<title>C&#45;0639&#45;&gt;ext_circ_208_27_</title>
<path fill="none" stroke="darkorange" stroke-dasharray="5,2" d="M1115.5,-103.03C1115.5,-103.03 1115.5,-50.01 1115.5,-50.01"/>
<polygon fill="darkorange" stroke="darkorange" points="1117.95,-50.01 1115.5,-43.01 1113.05,-50.01 1117.95,-50.01"/>
</g>
<!-- S&#45;1146&#45;&gt;C&#45;0068 -->
<g id="edge20" class="edge">
<title>S&#45;1146&#45;&gt;C&#45;0068</title>
<path fill="none" stroke="#4d4d4d" d="M1235.5,-914.72C1235.5,-914.72 1235.5,-857.43 1235.5,-857.43"/>
<polygon fill="#4d4d4d" stroke="#4d4d4d" points="1237.95,-857.43 1235.5,-850.43 1233.05,-857.43 1237.95,-857.43"/>
</g>
<!-- S&#45;1146&#45;&gt;S&#45;292 -->
<g id="edge21" class="edge">
<title>S&#45;1146&#45;&gt;S&#45;292</title>
<path fill="none" stroke="#4d4d4d" d="M1307.5,-924.59C1307.5,-903.9 1307.5,-836 1307.5,-836 1307.5,-836 1370.6,-836 1370.6,-836"/>
<polygon fill="#4d4d4d" stroke="#4d4d4d" points="1370.6,-838.45 1377.6,-836 1370.6,-833.55 1370.6,-838.45"/>
</g>
<!-- C&#45;1198&#45;&gt;R&#45;296 -->
<g id="edge25" class="edge">
<title>C&#45;1198&#45;&gt;R&#45;296</title>
<path fill="none" stroke="#4d4d4d" d="M2212.5,-607.06C2212.5,-607.06 2212.5,-555.31 2212.5,-555.31"/>
<polygon fill="#4d4d4d" stroke="#4d4d4d" points="2214.95,-555.31 2212.5,-548.31 2210.05,-555.31 2214.95,-555.31"/>
</g>
<!-- C&#45;1134&#45;&gt;R&#45;285 -->
<g id="edge51" class="edge">
<title>C&#45;1134&#45;&gt;R&#45;285</title>
<path fill="none" stroke="#4d4d4d" d="M1624,-504.71C1624,-504.71 1624,-252.09 1624,-252.09"/>
<polygon fill="#4d4d4d" stroke="#4d4d4d" points="1626.45,-252.09 1624,-245.09 1621.55,-252.09 1626.45,-252.09"/>
</g>
<!-- C&#45;0404&#45;&gt;C&#45;0406 -->
<g id="edge61" class="edge">
<title>C&#45;0404&#45;&gt;C&#45;0406</title>
<path fill="none" stroke="blue" stroke-dasharray="5,2" d="M2598,-605.83C2598,-553.59 2598,-425 2598,-425 2598,-425 2414.21,-425 2414.21,-425"/>
<polygon fill="blue" stroke="blue" points="2414.21,-422.55 2407.21,-425 2414.21,-427.45 2414.21,-422.55"/>
</g>
<!-- S&#45;297&#45;&gt;S&#45;2311 -->
<g id="edge35" class="edge">
<title>S&#45;297&#45;&gt;S&#45;2311</title>
<path fill="none" stroke="#4d4d4d" d="M2163.47,-223C2100.95,-223 2019.5,-223 2019.5,-223 2019.5,-223 2019.5,-134.62 2019.5,-134.62"/>
<polygon fill="#4d4d4d" stroke="#4d4d4d" points="2021.95,-134.62 2019.5,-127.62 2017.05,-134.62 2021.95,-134.62"/>
</g>
<!-- S&#45;297&#45;&gt;S&#45;1045 -->
<g id="edge37" class="edge">
<title>S&#45;297&#45;&gt;S&#45;1045</title>
<path fill="none" stroke="#4d4d4d" d="M2189,-215.23C2189,-215.23 2189,-137.6 2189,-137.6"/>
<polygon fill="#4d4d4d" stroke="#4d4d4d" points="2191.45,-137.6 2189,-130.6 2186.55,-137.6 2191.45,-137.6"/>
</g>
<!-- S&#45;297&#45;&gt;S&#45;1042 -->
<g id="edge36" class="edge">
<title>S&#45;297&#45;&gt;S&#45;1042</title>
<path fill="none" stroke="#4d4d4d" d="M2279,-215.23C2279,-215.23 2279,-137.6 2279,-137.6"/>
<polygon fill="#4d4d4d" stroke="#4d4d4d" points="2281.45,-137.6 2279,-130.6 2276.55,-137.6 2281.45,-137.6"/>
</g>
<!-- C&#45;1048&#45;&gt;C&#45;0487 -->
<g id="edge47" class="edge">
<title>C&#45;1048&#45;&gt;C&#45;0487</title>
<path fill="none" stroke="#4d4d4d" d="M1318.74,-324C1278.93,-324 1237.5,-324 1237.5,-324 1237.5,-324 1237.5,-250.84 1237.5,-250.84"/>
<polygon fill="#4d4d4d" stroke="#4d4d4d" points="1239.95,-250.84 1237.5,-243.84 1235.05,-250.84 1239.95,-250.84"/>
</g>
<!-- C&#45;1048&#45;&gt;C&#45;0489 -->
<g id="edge48" class="edge">
<title>C&#45;1048&#45;&gt;C&#45;0489</title>
<path fill="none" stroke="#4d4d4d" d="M1391,-302.58C1391,-302.58 1391,-252.03 1391,-252.03"/>
<polygon fill="#4d4d4d" stroke="#4d4d4d" points="1393.45,-252.03 1391,-245.03 1388.55,-252.03 1393.45,-252.03"/>
</g>
</g>
</svg>
