<?xml version="1.0" encoding="UTF-8" standalone="no"?>
<!DOCTYPE svg PUBLIC "-//W3C//DTD SVG 1.1//EN"
 "http://www.w3.org/Graphics/SVG/1.1/DTD/svg11.dtd">
<!-- Generated by graphviz version 2.50.0 (0)
 -->
<!-- Title: Grafo_Circuito_208_25_ Pages: 1 -->
<svg width="2132pt" height="1271pt"
 viewBox="0.00 0.00 2132.00 1271.00" xmlns="http://www.w3.org/2000/svg" xmlns:xlink="http://www.w3.org/1999/xlink">
<g id="graph0" class="graph" transform="scale(1 1) rotate(0) translate(4 1267)">
<title>Grafo_Circuito_208_25_</title>
<polygon fill="white" stroke="transparent" points="-4,4 -4,-1267 2128,-1267 2128,4 -4,4"/>
<!-- S&#45;2534 -->
<g id="node1" class="node">
<title>S&#45;2534</title>
<polygon fill="mediumseagreen" stroke="black" points="162,-144 90,-122.5 162,-101 234,-122.5 162,-144"/>
<text text-anchor="middle" x="162" y="-120" font-family="Arial" font-size="10.00">S&#45;2534</text>
</g>
<!-- S&#45;2387 -->
<g id="node23" class="node">
<title>S&#45;2387</title>
<polygon fill="mediumseagreen" stroke="black" points="72,-43 0,-21.5 72,0 144,-21.5 72,-43"/>
<text text-anchor="middle" x="72" y="-19" font-family="Arial" font-size="10.00">S&#45;2387</text>
</g>
<!-- S&#45;2534&#45;&gt;S&#45;2387 -->
<g id="edge19" class="edge">
<title>S&#45;2534&#45;&gt;S&#45;2387</title>
<path fill="none" stroke="#4d4d4d" d="M117,-114.23C117,-114.23 117,-36.6 117,-36.6"/>
<polygon fill="#4d4d4d" stroke="#4d4d4d" points="119.45,-36.6 117,-29.6 114.55,-36.6 119.45,-36.6"/>
</g>
<!-- C&#45;0768 -->
<g id="node2" class="node">
<title>C&#45;0768</title>
<ellipse fill="mediumseagreen" stroke="black" cx="252" cy="-21.5" rx="72" ry="21.5"/>
<text text-anchor="middle" x="252" y="-19" font-family="Arial" font-size="10.00">C&#45;0768</text>
</g>
<!-- C&#45;0409 -->
<g id="node3" class="node">
<title>C&#45;0409</title>
<ellipse fill="mediumseagreen" stroke="black" cx="522" cy="-324.5" rx="72" ry="21.5"/>
<text text-anchor="middle" x="522" y="-322" font-family="Arial" font-size="10.00">C&#45;0409</text>
</g>
<!-- C&#45;0785 -->
<g id="node8" class="node">
<title>C&#45;0785</title>
<ellipse fill="mediumseagreen" stroke="black" cx="522" cy="-223.5" rx="72" ry="21.5"/>
<text text-anchor="middle" x="522" y="-221" font-family="Arial" font-size="10.00">C&#45;0785</text>
</g>
<!-- C&#45;0409&#45;&gt;C&#45;0785 -->
<g id="edge41" class="edge">
<title>C&#45;0409&#45;&gt;C&#45;0785</title>
<path fill="none" stroke="#4d4d4d" d="M522,-302.58C522,-302.58 522,-252.03 522,-252.03"/>
<polygon fill="#4d4d4d" stroke="#4d4d4d" points="524.45,-252.03 522,-245.03 519.55,-252.03 524.45,-252.03"/>
</g>
<!-- S&#45;286 -->
<g id="node22" class="node">
<title>S&#45;286</title>
<polygon fill="mediumseagreen" stroke="black" points="702,-245 630,-223.5 702,-202 774,-223.5 702,-245"/>
<text text-anchor="middle" x="702" y="-221" font-family="Arial" font-size="10.00">S&#45;286</text>
</g>
<!-- C&#45;0409&#45;&gt;S&#45;286 -->
<g id="edge42" class="edge">
<title>C&#45;0409&#45;&gt;S&#45;286</title>
<path fill="none" stroke="#4d4d4d" d="M594.18,-324C644.25,-324 702,-324 702,-324 702,-324 702,-252.31 702,-252.31"/>
<polygon fill="#4d4d4d" stroke="#4d4d4d" points="704.45,-252.31 702,-245.31 699.55,-252.31 704.45,-252.31"/>
</g>
<!-- C&#45;0786 -->
<g id="node27" class="node">
<title>C&#45;0786</title>
<ellipse fill="tomato" stroke="black" cx="342" cy="-223.5" rx="72" ry="21.5"/>
<text text-anchor="middle" x="342" y="-221" font-family="Arial" font-size="10.00">C&#45;0786</text>
</g>
<!-- C&#45;0409&#45;&gt;C&#45;0786 -->
<g id="edge40" class="edge">
<title>C&#45;0409&#45;&gt;C&#45;0786</title>
<path fill="none" stroke="#4d4d4d" d="M454.29,-317C411.6,-317 364.5,-317 364.5,-317 364.5,-317 364.5,-251.25 364.5,-251.25"/>
<polygon fill="#4d4d4d" stroke="#4d4d4d" points="366.95,-251.25 364.5,-244.25 362.05,-251.25 366.95,-251.25"/>
</g>
<!-- S&#45;288 -->
<g id="node4" class="node">
<title>S&#45;288</title>
<polygon fill="mediumseagreen" stroke="black" points="1512,-144 1440,-122.5 1512,-101 1584,-122.5 1512,-144"/>
<text text-anchor="middle" x="1512" y="-120" font-family="Arial" font-size="10.00">S&#45;288</text>
</g>
<!-- S&#45;269 -->
<g id="node5" class="node">
<title>S&#45;269</title>
<polygon fill="mediumseagreen" stroke="black" points="1692,-144 1620,-122.5 1692,-101 1764,-122.5 1692,-144"/>
<text text-anchor="middle" x="1692" y="-120" font-family="Arial" font-size="10.00">S&#45;269</text>
</g>
<!-- 208&#45;25&#45; -->
<g id="node6" class="node">
<title>208&#45;25&#45;</title>
<polygon fill="gold" stroke="black" points="932,-1228.59 932,-1246.41 889.82,-1259 830.18,-1259 788,-1246.41 788,-1228.59 830.18,-1216 889.82,-1216 932,-1228.59"/>
<polygon fill="none" stroke="black" points="936,-1225.61 936,-1249.39 890.41,-1263 829.59,-1263 784,-1249.39 784,-1225.61 829.59,-1212 890.41,-1212 936,-1225.61"/>
<text text-anchor="middle" x="860" y="-1235" font-family="Arial" font-size="10.00">208&#45;25&#45;</text>
</g>
<!-- C&#45;0099 -->
<g id="node35" class="node">
<title>C&#45;0099</title>
<ellipse fill="mediumseagreen" stroke="black" cx="789" cy="-1132.5" rx="72" ry="21.5"/>
<text text-anchor="middle" x="789" y="-1130" font-family="Arial" font-size="10.00">C&#45;0099</text>
</g>
<!-- 208&#45;25&#45;&#45;&gt;C&#45;0099 -->
<g id="edge1" class="edge">
<title>208&#45;25&#45;&#45;&gt;C&#45;0099</title>
<path fill="none" stroke="#4d4d4d" d="M822.5,-1213.94C822.5,-1213.94 822.5,-1158.77 822.5,-1158.77"/>
<polygon fill="#4d4d4d" stroke="#4d4d4d" points="824.95,-1158.77 822.5,-1151.77 820.05,-1158.77 824.95,-1158.77"/>
</g>
<!-- C&#45;0171 -->
<g id="node41" class="node">
<title>C&#45;0171</title>
<ellipse fill="tomato" stroke="black" cx="969" cy="-1132.5" rx="72" ry="21.5"/>
<text text-anchor="middle" x="969" y="-1130" font-family="Arial" font-size="10.00">C&#45;0171</text>
</g>
<!-- 208&#45;25&#45;&#45;&gt;C&#45;0171 -->
<g id="edge45" class="edge">
<title>208&#45;25&#45;&#45;&gt;C&#45;0171</title>
<path fill="none" stroke="#4d4d4d" d="M916.5,-1219.69C916.5,-1219.69 916.5,-1154.34 916.5,-1154.34"/>
<polygon fill="#4d4d4d" stroke="#4d4d4d" points="918.95,-1154.34 916.5,-1147.34 914.05,-1154.34 918.95,-1154.34"/>
</g>
<!-- C&#45;0654 -->
<g id="node7" class="node">
<title>C&#45;0654</title>
<ellipse fill="tomato" stroke="black" cx="702" cy="-425.5" rx="72" ry="21.5"/>
<text text-anchor="middle" x="702" y="-423" font-family="Arial" font-size="10.00">C&#45;0654</text>
</g>
<!-- C&#45;1005 -->
<g id="node38" class="node">
<title>C&#45;1005</title>
<ellipse fill="mediumseagreen" stroke="black" cx="882" cy="-223.5" rx="72" ry="21.5"/>
<text text-anchor="middle" x="882" y="-221" font-family="Arial" font-size="10.00">C&#45;1005</text>
</g>
<!-- C&#45;0654&#45;&gt;C&#45;1005 -->
<g id="edge47" class="edge">
<title>C&#45;0654&#45;&gt;C&#45;1005</title>
<path fill="none" stroke="blue" stroke-dasharray="5,2" d="M774.22,-425C784.68,-425 792,-425 792,-425 792,-425 792,-223 792,-223 792,-223 802.78,-223 802.78,-223"/>
<polygon fill="blue" stroke="blue" points="802.78,-225.45 809.78,-223 802.78,-220.55 802.78,-225.45"/>
</g>
<!-- S&#45;1356 -->
<g id="node9" class="node">
<title>S&#45;1356</title>
<polygon fill="mediumseagreen" stroke="black" points="1872,-144 1800,-122.5 1872,-101 1944,-122.5 1872,-144"/>
<text text-anchor="middle" x="1872" y="-120" font-family="Arial" font-size="10.00">S&#45;1356</text>
</g>
<!-- C&#45;0230 -->
<g id="node10" class="node">
<title>C&#45;0230</title>
<ellipse fill="mediumseagreen" stroke="black" cx="477" cy="-627.5" rx="72" ry="21.5"/>
<text text-anchor="middle" x="477" y="-625" font-family="Arial" font-size="10.00">C&#45;0230</text>
</g>
<!-- C&#45;0407 -->
<g id="node30" class="node">
<title>C&#45;0407</title>
<ellipse fill="tomato" stroke="black" cx="207" cy="-526.5" rx="72" ry="21.5"/>
<text text-anchor="middle" x="207" y="-524" font-family="Arial" font-size="10.00">C&#45;0407</text>
</g>
<!-- C&#45;0230&#45;&gt;C&#45;0407 -->
<g id="edge36" class="edge">
<title>C&#45;0230&#45;&gt;C&#45;0407</title>
<path fill="none" stroke="#4d4d4d" d="M405,-627C325.02,-627 207,-627 207,-627 207,-627 207,-555.31 207,-555.31"/>
<polygon fill="#4d4d4d" stroke="#4d4d4d" points="209.45,-555.31 207,-548.31 204.55,-555.31 209.45,-555.31"/>
</g>
<!-- S&#45;287 -->
<g id="node37" class="node">
<title>S&#45;287</title>
<polygon fill="mediumseagreen" stroke="black" points="387,-548 315,-526.5 387,-505 459,-526.5 387,-548"/>
<text text-anchor="middle" x="387" y="-524" font-family="Arial" font-size="10.00">S&#45;287</text>
</g>
<!-- C&#45;0230&#45;&gt;S&#45;287 -->
<g id="edge9" class="edge">
<title>C&#45;0230&#45;&gt;S&#45;287</title>
<path fill="none" stroke="#4d4d4d" d="M432,-610.37C432,-610.37 432,-541.78 432,-541.78"/>
<polygon fill="#4d4d4d" stroke="#4d4d4d" points="434.45,-541.78 432,-534.78 429.55,-541.78 434.45,-541.78"/>
</g>
<!-- C&#45;0408 -->
<g id="node42" class="node">
<title>C&#45;0408</title>
<ellipse fill="mediumseagreen" stroke="black" cx="567" cy="-526.5" rx="72" ry="21.5"/>
<text text-anchor="middle" x="567" y="-524" font-family="Arial" font-size="10.00">C&#45;0408</text>
</g>
<!-- C&#45;0230&#45;&gt;C&#45;0408 -->
<g id="edge37" class="edge">
<title>C&#45;0230&#45;&gt;C&#45;0408</title>
<path fill="none" stroke="#4d4d4d" d="M522,-610.37C522,-610.37 522,-550.38 522,-550.38"/>
<polygon fill="#4d4d4d" stroke="#4d4d4d" points="524.45,-550.38 522,-543.38 519.55,-550.38 524.45,-550.38"/>
</g>
<!-- R&#45;053 -->
<g id="node45" class="node">
<title>R&#45;053</title>
<polygon fill="mediumseagreen" stroke="black" points="909,-517.59 909,-535.41 866.82,-548 807.18,-548 765,-535.41 765,-517.59 807.18,-505 866.82,-505 909,-517.59"/>
<text text-anchor="middle" x="837" y="-524" font-family="Arial" font-size="10.00">R&#45;053</text>
</g>
<!-- C&#45;0230&#45;&gt;R&#45;053 -->
<g id="edge10" class="edge">
<title>C&#45;0230&#45;&gt;R&#45;053</title>
<path fill="none" stroke="#4d4d4d" d="M549.36,-627C641.53,-627 789,-627 789,-627 789,-627 789,-549.65 789,-549.65"/>
<polygon fill="#4d4d4d" stroke="#4d4d4d" points="791.45,-549.65 789,-542.65 786.55,-549.65 791.45,-549.65"/>
</g>
<!-- C&#45;0891 -->
<g id="node11" class="node">
<title>C&#45;0891</title>
<ellipse fill="mediumseagreen" stroke="black" cx="519" cy="-1031.5" rx="72" ry="21.5"/>
<text text-anchor="middle" x="519" y="-1029" font-family="Arial" font-size="10.00">C&#45;0891</text>
</g>
<!-- R&#45;207 -->
<g id="node19" class="node">
<title>R&#45;207</title>
<polygon fill="mediumseagreen" stroke="black" points="591,-921.59 591,-939.41 548.82,-952 489.18,-952 447,-939.41 447,-921.59 489.18,-909 548.82,-909 591,-921.59"/>
<text text-anchor="middle" x="519" y="-928" font-family="Arial" font-size="10.00">R&#45;207</text>
</g>
<!-- C&#45;0891&#45;&gt;R&#45;207 -->
<g id="edge4" class="edge">
<title>C&#45;0891&#45;&gt;R&#45;207</title>
<path fill="none" stroke="#4d4d4d" d="M519,-1009.58C519,-1009.58 519,-959.03 519,-959.03"/>
<polygon fill="#4d4d4d" stroke="#4d4d4d" points="521.45,-959.03 519,-952.03 516.55,-959.03 521.45,-959.03"/>
</g>
<!-- C&#45;0893 -->
<g id="node12" class="node">
<title>C&#45;0893</title>
<ellipse fill="mediumseagreen" stroke="black" cx="519" cy="-829.5" rx="72" ry="21.5"/>
<text text-anchor="middle" x="519" y="-827" font-family="Arial" font-size="10.00">C&#45;0893</text>
</g>
<!-- C&#45;0116 -->
<g id="node13" class="node">
<title>C&#45;0116</title>
<ellipse fill="mediumseagreen" stroke="black" cx="477" cy="-728.5" rx="72" ry="21.5"/>
<text text-anchor="middle" x="477" y="-726" font-family="Arial" font-size="10.00">C&#45;0116</text>
</g>
<!-- C&#45;0893&#45;&gt;C&#45;0116 -->
<g id="edge7" class="edge">
<title>C&#45;0893&#45;&gt;C&#45;0116</title>
<path fill="none" stroke="#4d4d4d" d="M498,-808.57C498,-808.57 498,-756.4 498,-756.4"/>
<polygon fill="#4d4d4d" stroke="#4d4d4d" points="500.45,-756.4 498,-749.4 495.55,-756.4 500.45,-756.4"/>
</g>
<!-- S&#45;282 -->
<g id="node32" class="node">
<title>S&#45;282</title>
<polygon fill="mediumseagreen" stroke="black" points="657,-750 585,-728.5 657,-707 729,-728.5 657,-750"/>
<text text-anchor="middle" x="657" y="-726" font-family="Arial" font-size="10.00">S&#45;282</text>
</g>
<!-- C&#45;0893&#45;&gt;S&#45;282 -->
<g id="edge6" class="edge">
<title>C&#45;0893&#45;&gt;S&#45;282</title>
<path fill="none" stroke="#4d4d4d" d="M567,-813.19C567,-784.5 567,-728 567,-728 567,-728 579.53,-728 579.53,-728"/>
<polygon fill="#4d4d4d" stroke="#4d4d4d" points="579.53,-730.45 586.53,-728 579.53,-725.55 579.53,-730.45"/>
</g>
<!-- C&#45;0116&#45;&gt;C&#45;0230 -->
<g id="edge8" class="edge">
<title>C&#45;0116&#45;&gt;C&#45;0230</title>
<path fill="none" stroke="#4d4d4d" d="M477,-706.58C477,-706.58 477,-656.03 477,-656.03"/>
<polygon fill="#4d4d4d" stroke="#4d4d4d" points="479.45,-656.03 477,-649.03 474.55,-656.03 479.45,-656.03"/>
</g>
<!-- R&#45;243 -->
<g id="node14" class="node">
<title>R&#45;243</title>
<polygon fill="mediumseagreen" stroke="black" points="954,-315.59 954,-333.41 911.82,-346 852.18,-346 810,-333.41 810,-315.59 852.18,-303 911.82,-303 954,-315.59"/>
<text text-anchor="middle" x="882" y="-322" font-family="Arial" font-size="10.00">R&#45;243</text>
</g>
<!-- R&#45;243&#45;&gt;C&#45;1005 -->
<g id="edge14" class="edge">
<title>R&#45;243&#45;&gt;C&#45;1005</title>
<path fill="none" stroke="#4d4d4d" d="M882,-302.58C882,-302.58 882,-252.03 882,-252.03"/>
<polygon fill="#4d4d4d" stroke="#4d4d4d" points="884.45,-252.03 882,-245.03 879.55,-252.03 884.45,-252.03"/>
</g>
<!-- C&#45;0205 -->
<g id="node15" class="node">
<title>C&#45;0205</title>
<ellipse fill="tomato" stroke="black" cx="699" cy="-1031.5" rx="72" ry="21.5"/>
<text text-anchor="middle" x="699" y="-1029" font-family="Arial" font-size="10.00">C&#45;0205</text>
</g>
<!-- C&#45;0205&#45;&gt;C&#45;0893 -->
<g id="edge46" class="edge">
<title>C&#45;0205&#45;&gt;C&#45;0893</title>
<path fill="none" stroke="blue" stroke-dasharray="5,2" d="M678,-1010.59C678,-958.85 678,-829 678,-829 678,-829 598.06,-829 598.06,-829"/>
<polygon fill="blue" stroke="blue" points="598.06,-826.55 591.06,-829 598.06,-831.45 598.06,-826.55"/>
</g>
<!-- S&#45;1247 -->
<g id="node16" class="node">
<title>S&#45;1247</title>
<polygon fill="mediumseagreen" stroke="black" points="432,-144 360,-122.5 432,-101 504,-122.5 432,-144"/>
<text text-anchor="middle" x="432" y="-120" font-family="Arial" font-size="10.00">S&#45;1247</text>
</g>
<!-- S&#45;1247&#45;&gt;C&#45;0768 -->
<g id="edge27" class="edge">
<title>S&#45;1247&#45;&gt;C&#45;0768</title>
<path fill="none" stroke="#4d4d4d" d="M361.34,-122C328.67,-122 297,-122 297,-122 297,-122 297,-45.55 297,-45.55"/>
<polygon fill="#4d4d4d" stroke="#4d4d4d" points="299.45,-45.55 297,-38.55 294.55,-45.55 299.45,-45.55"/>
</g>
<!-- S&#45;2503 -->
<g id="node20" class="node">
<title>S&#45;2503</title>
<polygon fill="mediumseagreen" stroke="black" points="432,-43 360,-21.5 432,0 504,-21.5 432,-43"/>
<text text-anchor="middle" x="432" y="-19" font-family="Arial" font-size="10.00">S&#45;2503</text>
</g>
<!-- S&#45;1247&#45;&gt;S&#45;2503 -->
<g id="edge26" class="edge">
<title>S&#45;1247&#45;&gt;S&#45;2503</title>
<path fill="none" stroke="#4d4d4d" d="M408,-108.03C408,-108.03 408,-42.94 408,-42.94"/>
<polygon fill="#4d4d4d" stroke="#4d4d4d" points="410.45,-42.94 408,-35.94 405.55,-42.94 410.45,-42.94"/>
</g>
<!-- S&#45;1681 -->
<g id="node21" class="node">
<title>S&#45;1681</title>
<polygon fill="mediumseagreen" stroke="black" points="612,-43 540,-21.5 612,0 684,-21.5 612,-43"/>
<text text-anchor="middle" x="612" y="-19" font-family="Arial" font-size="10.00">S&#45;1681</text>
</g>
<!-- S&#45;1247&#45;&gt;S&#45;1681 -->
<g id="edge24" class="edge">
<title>S&#45;1247&#45;&gt;S&#45;1681</title>
<path fill="none" stroke="#4d4d4d" d="M502.47,-122C513.86,-122 522,-122 522,-122 522,-122 522,0 522,0 522,0 604.93,0 604.93,0"/>
<polygon fill="#4d4d4d" stroke="#4d4d4d" points="604.93,-2.45 611.93,0 604.93,2.45 604.93,-2.45"/>
</g>
<!-- S&#45;940 -->
<g id="node43" class="node">
<title>S&#45;940</title>
<polygon fill="mediumseagreen" stroke="black" points="792,-43 720,-21.5 792,0 864,-21.5 792,-43"/>
<text text-anchor="middle" x="792" y="-19" font-family="Arial" font-size="10.00">S&#45;940</text>
</g>
<!-- S&#45;1247&#45;&gt;S&#45;940 -->
<g id="edge25" class="edge">
<title>S&#45;1247&#45;&gt;S&#45;940</title>
<path fill="none" stroke="#4d4d4d" d="M456,-108.16C456,-93.23 456,-72 456,-72 456,-72 792,-72 792,-72 792,-72 792,-50.21 792,-50.21"/>
<polygon fill="#4d4d4d" stroke="#4d4d4d" points="794.45,-50.21 792,-43.21 789.55,-50.21 794.45,-50.21"/>
</g>
<!-- C&#45;0695 -->
<g id="node17" class="node">
<title>C&#45;0695</title>
<ellipse fill="mediumseagreen" stroke="black" cx="1332" cy="-324.5" rx="72" ry="21.5"/>
<text text-anchor="middle" x="1332" y="-322" font-family="Arial" font-size="10.00">C&#45;0695</text>
</g>
<!-- C&#45;0696 -->
<g id="node39" class="node">
<title>C&#45;0696</title>
<ellipse fill="mediumseagreen" stroke="black" cx="1692" cy="-223.5" rx="72" ry="21.5"/>
<text text-anchor="middle" x="1692" y="-221" font-family="Arial" font-size="10.00">C&#45;0696</text>
</g>
<!-- C&#45;0695&#45;&gt;C&#45;0696 -->
<g id="edge31" class="edge">
<title>C&#45;0695&#45;&gt;C&#45;0696</title>
<path fill="none" stroke="#4d4d4d" d="M1356,-303.99C1356,-276.2 1356,-230 1356,-230 1356,-230 1616.19,-230 1616.19,-230"/>
<polygon fill="#4d4d4d" stroke="#4d4d4d" points="1616.19,-232.45 1623.19,-230 1616.19,-227.55 1616.19,-232.45"/>
</g>
<!-- S&#45;1237 -->
<g id="node18" class="node">
<title>S&#45;1237</title>
<polygon fill="mediumseagreen" stroke="black" points="879,-1053 807,-1031.5 879,-1010 951,-1031.5 879,-1053"/>
<text text-anchor="middle" x="879" y="-1029" font-family="Arial" font-size="10.00">S&#45;1237</text>
</g>
<!-- R&#45;207&#45;&gt;C&#45;0893 -->
<g id="edge5" class="edge">
<title>R&#45;207&#45;&gt;C&#45;0893</title>
<path fill="none" stroke="#4d4d4d" d="M519,-908.58C519,-908.58 519,-858.03 519,-858.03"/>
<polygon fill="#4d4d4d" stroke="#4d4d4d" points="521.45,-858.03 519,-851.03 516.55,-858.03 521.45,-858.03"/>
</g>
<!-- C&#45;1004 -->
<g id="node24" class="node">
<title>C&#45;1004</title>
<ellipse fill="mediumseagreen" stroke="black" cx="882" cy="-425.5" rx="72" ry="21.5"/>
<text text-anchor="middle" x="882" y="-423" font-family="Arial" font-size="10.00">C&#45;1004</text>
</g>
<!-- C&#45;1004&#45;&gt;R&#45;243 -->
<g id="edge13" class="edge">
<title>C&#45;1004&#45;&gt;R&#45;243</title>
<path fill="none" stroke="#4d4d4d" d="M882,-403.58C882,-403.58 882,-353.03 882,-353.03"/>
<polygon fill="#4d4d4d" stroke="#4d4d4d" points="884.45,-353.03 882,-346.03 879.55,-353.03 884.45,-353.03"/>
</g>
<!-- S&#45;2153 -->
<g id="node25" class="node">
<title>S&#45;2153</title>
<polygon fill="mediumseagreen" stroke="black" points="972,-43 900,-21.5 972,0 1044,-21.5 972,-43"/>
<text text-anchor="middle" x="972" y="-19" font-family="Arial" font-size="10.00">S&#45;2153</text>
</g>
<!-- S&#45;2061 -->
<g id="node26" class="node">
<title>S&#45;2061</title>
<polygon fill="mediumseagreen" stroke="black" points="1059,-1053 987,-1031.5 1059,-1010 1131,-1031.5 1059,-1053"/>
<text text-anchor="middle" x="1059" y="-1029" font-family="Arial" font-size="10.00">S&#45;2061</text>
</g>
<!-- ext_circ_208_23_ -->
<g id="node47" class="node">
<title>ext_circ_208_23_</title>
<polygon fill="lightpink" stroke="darkorange" stroke-dasharray="5,2" points="710,-1259 566,-1259 566,-1216 710,-1216 710,-1259"/>
<text text-anchor="middle" x="638" y="-1240.5" font-family="Arial" font-size="10.00">Circuito:</text>
<text text-anchor="middle" x="638" y="-1229.5" font-family="Arial" font-size="10.00">208&#45;23&#45;</text>
</g>
<!-- C&#45;0786&#45;&gt;ext_circ_208_23_ -->
<g id="edge52" class="edge">
<title>C&#45;0786&#45;&gt;ext_circ_208_23_</title>
<path fill="none" stroke="darkorange" stroke-dasharray="5,2" d="M297,-240.67C297,-373.85 297,-1237 297,-1237 297,-1237 558.68,-1237 558.68,-1237"/>
<polygon fill="darkorange" stroke="darkorange" points="558.68,-1239.45 565.68,-1237 558.68,-1234.55 558.68,-1239.45"/>
</g>
<!-- S&#45;2362 -->
<g id="node28" class="node">
<title>S&#45;2362</title>
<polygon fill="mediumseagreen" stroke="black" points="612,-144 540,-122.5 612,-101 684,-122.5 612,-144"/>
<text text-anchor="middle" x="612" y="-120" font-family="Arial" font-size="10.00">S&#45;2362</text>
</g>
<!-- C&#45;0330 -->
<g id="node29" class="node">
<title>C&#45;0330</title>
<ellipse fill="tomato" stroke="black" cx="792" cy="-122.5" rx="72" ry="21.5"/>
<text text-anchor="middle" x="792" y="-120" font-family="Arial" font-size="10.00">C&#45;0330</text>
</g>
<!-- S&#45;298 -->
<g id="node36" class="node">
<title>S&#45;298</title>
<polygon fill="mediumseagreen" stroke="black" points="2052,-144 1980,-122.5 2052,-101 2124,-122.5 2052,-144"/>
<text text-anchor="middle" x="2052" y="-120" font-family="Arial" font-size="10.00">S&#45;298</text>
</g>
<!-- C&#45;0330&#45;&gt;S&#45;298 -->
<g id="edge48" class="edge">
<title>C&#45;0330&#45;&gt;S&#45;298</title>
<path fill="none" stroke="blue" stroke-dasharray="5,2" d="M855,-133.14C855,-145.14 855,-163 855,-163 855,-163 2028,-163 2028,-163 2028,-163 2028,-144.12 2028,-144.12"/>
<polygon fill="blue" stroke="blue" points="2030.45,-144.12 2028,-137.12 2025.55,-144.12 2030.45,-144.12"/>
</g>
<!-- C&#45;0407&#45;&gt;C&#45;0409 -->
<g id="edge51" class="edge">
<title>C&#45;0407&#45;&gt;C&#45;0409</title>
<path fill="none" stroke="blue" stroke-dasharray="5,2" d="M274.5,-518.59C274.5,-482.02 274.5,-331 274.5,-331 274.5,-331 446.06,-331 446.06,-331"/>
<polygon fill="blue" stroke="blue" points="446.06,-333.45 453.06,-331 446.06,-328.55 446.06,-333.45"/>
</g>
<!-- S&#45;1252 -->
<g id="node31" class="node">
<title>S&#45;1252</title>
<polygon fill="mediumseagreen" stroke="black" points="972,-144 900,-122.5 972,-101 1044,-122.5 972,-144"/>
<text text-anchor="middle" x="972" y="-120" font-family="Arial" font-size="10.00">S&#45;1252</text>
</g>
<!-- S&#45;1252&#45;&gt;S&#45;2153 -->
<g id="edge16" class="edge">
<title>S&#45;1252&#45;&gt;S&#45;2153</title>
<path fill="none" stroke="#4d4d4d" d="M972,-100.58C972,-100.58 972,-50.03 972,-50.03"/>
<polygon fill="#4d4d4d" stroke="#4d4d4d" points="974.45,-50.03 972,-43.03 969.55,-50.03 974.45,-50.03"/>
</g>
<!-- C&#45;0698 -->
<g id="node33" class="node">
<title>C&#45;0698</title>
<ellipse fill="tomato" stroke="black" cx="1512" cy="-324.5" rx="72" ry="21.5"/>
<text text-anchor="middle" x="1512" y="-322" font-family="Arial" font-size="10.00">C&#45;0698</text>
</g>
<!-- C&#45;0698&#45;&gt;C&#45;0696 -->
<g id="edge50" class="edge">
<title>C&#45;0698&#45;&gt;C&#45;0696</title>
<path fill="none" stroke="blue" stroke-dasharray="5,2" d="M1536,-304.21C1536,-278.36 1536,-237 1536,-237 1536,-237 1628.68,-237 1628.68,-237"/>
<polygon fill="blue" stroke="blue" points="1628.68,-239.45 1635.68,-237 1628.68,-234.55 1628.68,-239.45"/>
</g>
<!-- S&#45;939 -->
<g id="node34" class="node">
<title>S&#45;939</title>
<polygon fill="tomato" stroke="black" points="1152,-144 1080,-122.5 1152,-101 1224,-122.5 1152,-144"/>
<text text-anchor="middle" x="1152" y="-120" font-family="Arial" font-size="10.00">S&#45;939</text>
</g>
<!-- S&#45;939&#45;&gt;S&#45;269 -->
<g id="edge49" class="edge">
<title>S&#45;939&#45;&gt;S&#45;269</title>
<path fill="none" stroke="blue" stroke-dasharray="5,2" d="M1177.5,-136.68C1177.5,-144.64 1177.5,-153 1177.5,-153 1177.5,-153 1668,-153 1668,-153 1668,-153 1668,-144.04 1668,-144.04"/>
<polygon fill="blue" stroke="blue" points="1670.45,-144.04 1668,-137.04 1665.55,-144.04 1670.45,-144.04"/>
</g>
<!-- C&#45;0099&#45;&gt;C&#45;0891 -->
<g id="edge3" class="edge">
<title>C&#45;0099&#45;&gt;C&#45;0891</title>
<path fill="none" stroke="#4d4d4d" d="M716.85,-1132C655.92,-1132 578.5,-1132 578.5,-1132 578.5,-1132 578.5,-1050.82 578.5,-1050.82"/>
<polygon fill="#4d4d4d" stroke="#4d4d4d" points="580.95,-1050.82 578.5,-1043.82 576.05,-1050.82 580.95,-1050.82"/>
</g>
<!-- C&#45;0099&#45;&gt;C&#45;0205 -->
<g id="edge2" class="edge">
<title>C&#45;0099&#45;&gt;C&#45;0205</title>
<path fill="none" stroke="#4d4d4d" d="M744,-1115.37C744,-1115.37 744,-1055.38 744,-1055.38"/>
<polygon fill="#4d4d4d" stroke="#4d4d4d" points="746.45,-1055.38 744,-1048.38 741.55,-1055.38 746.45,-1055.38"/>
</g>
<!-- C&#45;0099&#45;&gt;S&#45;1237 -->
<g id="edge43" class="edge">
<title>C&#45;0099&#45;&gt;S&#45;1237</title>
<path fill="none" stroke="#4d4d4d" d="M825,-1113.5C825,-1113.5 825,-1043.97 825,-1043.97"/>
<polygon fill="#4d4d4d" stroke="#4d4d4d" points="827.45,-1043.97 825,-1036.97 822.55,-1043.97 827.45,-1043.97"/>
</g>
<!-- C&#45;0099&#45;&gt;S&#45;2061 -->
<g id="edge44" class="edge">
<title>C&#45;0099&#45;&gt;S&#45;2061</title>
<path fill="none" stroke="#4d4d4d" d="M843,-1118.16C843,-1103.23 843,-1082 843,-1082 843,-1082 1014,-1082 1014,-1082 1014,-1082 1014,-1046.84 1014,-1046.84"/>
<polygon fill="#4d4d4d" stroke="#4d4d4d" points="1016.45,-1046.84 1014,-1039.84 1011.55,-1046.84 1016.45,-1046.84"/>
</g>
<!-- C&#45;1005&#45;&gt;S&#45;2534 -->
<g id="edge18" class="edge">
<title>C&#45;1005&#45;&gt;S&#45;2534</title>
<path fill="none" stroke="#4d4d4d" d="M819,-212.84C819,-203.7 819,-192 819,-192 819,-192 184.5,-192 184.5,-192 184.5,-192 184.5,-144.58 184.5,-144.58"/>
<polygon fill="#4d4d4d" stroke="#4d4d4d" points="186.95,-144.58 184.5,-137.58 182.05,-144.58 186.95,-144.58"/>
</g>
<!-- C&#45;1005&#45;&gt;S&#45;1247 -->
<g id="edge23" class="edge">
<title>C&#45;1005&#45;&gt;S&#45;1247</title>
<path fill="none" stroke="#4d4d4d" d="M828,-208.99C828,-197.02 828,-182 828,-182 828,-182 477,-182 477,-182 477,-182 477,-137.77 477,-137.77"/>
<polygon fill="#4d4d4d" stroke="#4d4d4d" points="479.45,-137.77 477,-130.77 474.55,-137.77 479.45,-137.77"/>
</g>
<!-- C&#45;1005&#45;&gt;S&#45;2362 -->
<g id="edge20" class="edge">
<title>C&#45;1005&#45;&gt;S&#45;2362</title>
<path fill="none" stroke="#4d4d4d" d="M837,-206.68C837,-191.99 837,-173 837,-173 837,-173 657,-173 657,-173 657,-173 657,-137.84 657,-137.84"/>
<polygon fill="#4d4d4d" stroke="#4d4d4d" points="659.45,-137.84 657,-130.84 654.55,-137.84 659.45,-137.84"/>
</g>
<!-- C&#45;1005&#45;&gt;C&#45;0330 -->
<g id="edge17" class="edge">
<title>C&#45;1005&#45;&gt;C&#45;0330</title>
<path fill="none" stroke="#4d4d4d" d="M846,-204.5C846,-204.5 846,-143.84 846,-143.84"/>
<polygon fill="#4d4d4d" stroke="#4d4d4d" points="848.45,-143.84 846,-136.84 843.55,-143.84 848.45,-143.84"/>
</g>
<!-- C&#45;1005&#45;&gt;S&#45;1252 -->
<g id="edge15" class="edge">
<title>C&#45;1005&#45;&gt;S&#45;1252</title>
<path fill="none" stroke="#4d4d4d" d="M927,-206.37C927,-206.37 927,-137.78 927,-137.78"/>
<polygon fill="#4d4d4d" stroke="#4d4d4d" points="929.45,-137.78 927,-130.78 924.55,-137.78 929.45,-137.78"/>
</g>
<!-- C&#45;1005&#45;&gt;S&#45;939 -->
<g id="edge21" class="edge">
<title>C&#45;1005&#45;&gt;S&#45;939</title>
<path fill="none" stroke="#4d4d4d" d="M949.66,-216C1015.45,-216 1105.5,-216 1105.5,-216 1105.5,-216 1105.5,-137.15 1105.5,-137.15"/>
<polygon fill="#4d4d4d" stroke="#4d4d4d" points="1107.95,-137.15 1105.5,-130.15 1103.05,-137.15 1107.95,-137.15"/>
</g>
<!-- S&#45;856 -->
<g id="node40" class="node">
<title>S&#45;856</title>
<polygon fill="mediumseagreen" stroke="black" points="1332,-144 1260,-122.5 1332,-101 1404,-122.5 1332,-144"/>
<text text-anchor="middle" x="1332" y="-120" font-family="Arial" font-size="10.00">S&#45;856</text>
</g>
<!-- C&#45;1005&#45;&gt;S&#45;856 -->
<g id="edge22" class="edge">
<title>C&#45;1005&#45;&gt;S&#45;856</title>
<path fill="none" stroke="#4d4d4d" d="M954.27,-223C1075.8,-223 1308,-223 1308,-223 1308,-223 1308,-143.9 1308,-143.9"/>
<polygon fill="#4d4d4d" stroke="#4d4d4d" points="1310.45,-143.9 1308,-136.9 1305.55,-143.9 1310.45,-143.9"/>
</g>
<!-- C&#45;0696&#45;&gt;S&#45;288 -->
<g id="edge32" class="edge">
<title>C&#45;0696&#45;&gt;S&#45;288</title>
<path fill="none" stroke="#4d4d4d" d="M1638.67,-209C1578.22,-209 1488,-209 1488,-209 1488,-209 1488,-144.17 1488,-144.17"/>
<polygon fill="#4d4d4d" stroke="#4d4d4d" points="1490.45,-144.17 1488,-137.17 1485.55,-144.17 1490.45,-144.17"/>
</g>
<!-- C&#45;0696&#45;&gt;S&#45;269 -->
<g id="edge35" class="edge">
<title>C&#45;0696&#45;&gt;S&#45;269</title>
<path fill="none" stroke="#4d4d4d" d="M1716,-203.06C1716,-203.06 1716,-144.03 1716,-144.03"/>
<polygon fill="#4d4d4d" stroke="#4d4d4d" points="1718.45,-144.03 1716,-137.03 1713.55,-144.03 1718.45,-144.03"/>
</g>
<!-- C&#45;0696&#45;&gt;S&#45;1356 -->
<g id="edge33" class="edge">
<title>C&#45;0696&#45;&gt;S&#45;1356</title>
<path fill="none" stroke="#4d4d4d" d="M1759.54,-216C1810.61,-216 1872,-216 1872,-216 1872,-216 1872,-151.19 1872,-151.19"/>
<polygon fill="#4d4d4d" stroke="#4d4d4d" points="1874.45,-151.19 1872,-144.19 1869.55,-151.19 1874.45,-151.19"/>
</g>
<!-- C&#45;0696&#45;&gt;S&#45;298 -->
<g id="edge34" class="edge">
<title>C&#45;0696&#45;&gt;S&#45;298</title>
<path fill="none" stroke="#4d4d4d" d="M1760.65,-230C1871.1,-230 2076,-230 2076,-230 2076,-230 2076,-144 2076,-144"/>
<polygon fill="#4d4d4d" stroke="#4d4d4d" points="2078.45,-144 2076,-137 2073.55,-144 2078.45,-144"/>
</g>
<!-- ext_circ_208_28_ -->
<g id="node48" class="node">
<title>ext_circ_208_28_</title>
<polygon fill="lightpink" stroke="darkorange" stroke-dasharray="5,2" points="1116,-1259 972,-1259 972,-1216 1116,-1216 1116,-1259"/>
<text text-anchor="middle" x="1044" y="-1240.5" font-family="Arial" font-size="10.00">Circuito:</text>
<text text-anchor="middle" x="1044" y="-1229.5" font-family="Arial" font-size="10.00">208&#45;28&#45;</text>
</g>
<!-- C&#45;0171&#45;&gt;ext_circ_208_28_ -->
<g id="edge53" class="edge">
<title>C&#45;0171&#45;&gt;ext_circ_208_28_</title>
<path fill="none" stroke="darkorange" stroke-dasharray="5,2" d="M1006.5,-1151.27C1006.5,-1151.27 1006.5,-1208.99 1006.5,-1208.99"/>
<polygon fill="darkorange" stroke="darkorange" points="1004.05,-1208.99 1006.5,-1215.99 1008.95,-1208.99 1004.05,-1208.99"/>
</g>
<!-- R&#45;139 -->
<g id="node44" class="node">
<title>R&#45;139</title>
<polygon fill="mediumseagreen" stroke="black" points="594,-416.59 594,-434.41 551.82,-447 492.18,-447 450,-434.41 450,-416.59 492.18,-404 551.82,-404 594,-416.59"/>
<text text-anchor="middle" x="522" y="-423" font-family="Arial" font-size="10.00">R&#45;139</text>
</g>
<!-- C&#45;0408&#45;&gt;R&#45;139 -->
<g id="edge38" class="edge">
<title>C&#45;0408&#45;&gt;R&#45;139</title>
<path fill="none" stroke="#4d4d4d" d="M544.5,-506.06C544.5,-506.06 544.5,-454.31 544.5,-454.31"/>
<polygon fill="#4d4d4d" stroke="#4d4d4d" points="546.95,-454.31 544.5,-447.31 542.05,-454.31 546.95,-454.31"/>
</g>
<!-- R&#45;139&#45;&gt;C&#45;0409 -->
<g id="edge39" class="edge">
<title>R&#45;139&#45;&gt;C&#45;0409</title>
<path fill="none" stroke="#4d4d4d" d="M522,-403.58C522,-403.58 522,-353.03 522,-353.03"/>
<polygon fill="#4d4d4d" stroke="#4d4d4d" points="524.45,-353.03 522,-346.03 519.55,-353.03 524.45,-353.03"/>
</g>
<!-- R&#45;053&#45;&gt;C&#45;0654 -->
<g id="edge11" class="edge">
<title>R&#45;053&#45;&gt;C&#45;0654</title>
<path fill="none" stroke="#4d4d4d" d="M769.5,-516.07C769.5,-516.07 769.5,-440.17 769.5,-440.17"/>
<polygon fill="#4d4d4d" stroke="#4d4d4d" points="771.95,-440.17 769.5,-433.17 767.05,-440.17 771.95,-440.17"/>
</g>
<!-- R&#45;053&#45;&gt;C&#45;1004 -->
<g id="edge12" class="edge">
<title>R&#45;053&#45;&gt;C&#45;1004</title>
<path fill="none" stroke="#4d4d4d" d="M859.5,-504.58C859.5,-504.58 859.5,-453 859.5,-453"/>
<polygon fill="#4d4d4d" stroke="#4d4d4d" points="861.95,-453 859.5,-446 857.05,-453 861.95,-453"/>
</g>
<!-- S&#45;1092 -->
<g id="node46" class="node">
<title>S&#45;1092</title>
<polygon fill="mediumseagreen" stroke="black" points="1332,-447 1260,-425.5 1332,-404 1404,-425.5 1332,-447"/>
<text text-anchor="middle" x="1332" y="-423" font-family="Arial" font-size="10.00">S&#45;1092</text>
</g>
<!-- R&#45;053&#45;&gt;S&#45;1092 -->
<g id="edge28" class="edge">
<title>R&#45;053&#45;&gt;S&#45;1092</title>
<path fill="none" stroke="#4d4d4d" d="M909.24,-526C1046.63,-526 1332,-526 1332,-526 1332,-526 1332,-454.31 1332,-454.31"/>
<polygon fill="#4d4d4d" stroke="#4d4d4d" points="1334.45,-454.31 1332,-447.31 1329.55,-454.31 1334.45,-454.31"/>
</g>
<!-- S&#45;1092&#45;&gt;C&#45;0695 -->
<g id="edge30" class="edge">
<title>S&#45;1092&#45;&gt;C&#45;0695</title>
<path fill="none" stroke="#4d4d4d" d="M1332,-403.58C1332,-403.58 1332,-353.03 1332,-353.03"/>
<polygon fill="#4d4d4d" stroke="#4d4d4d" points="1334.45,-353.03 1332,-346.03 1329.55,-353.03 1334.45,-353.03"/>
</g>
<!-- S&#45;1092&#45;&gt;C&#45;0698 -->
<g id="edge29" class="edge">
<title>S&#45;1092&#45;&gt;C&#45;0698</title>
<path fill="none" stroke="#4d4d4d" d="M1402.37,-425C1452.85,-425 1512,-425 1512,-425 1512,-425 1512,-353.31 1512,-353.31"/>
<polygon fill="#4d4d4d" stroke="#4d4d4d" points="1514.45,-353.31 1512,-346.31 1509.55,-353.31 1514.45,-353.31"/>
</g>
</g>
</svg>
