<?xml version="1.0" encoding="UTF-8" standalone="no"?>
<!DOCTYPE svg PUBLIC "-//W3C//DTD SVG 1.1//EN"
 "http://www.w3.org/Graphics/SVG/1.1/DTD/svg11.dtd">
<!-- Generated by graphviz version 2.50.0 (0)
 -->
<!-- Title: Grafo_Circuito_304_25_ Pages: 1 -->
<svg width="1749pt" height="1372pt"
 viewBox="0.00 0.00 1749.00 1372.00" xmlns="http://www.w3.org/2000/svg" xmlns:xlink="http://www.w3.org/1999/xlink">
<g id="graph0" class="graph" transform="scale(1 1) rotate(0) translate(4 1368)">
<title>Grafo_Circuito_304_25_</title>
<polygon fill="white" stroke="transparent" points="-4,4 -4,-1368 1745,-1368 1745,4 -4,4"/>
<!-- S&#45;541 -->
<g id="node1" class="node">
<title>S&#45;541</title>
<polygon fill="mediumseagreen" stroke="black" points="732,-548 660,-526.5 732,-505 804,-526.5 732,-548"/>
<text text-anchor="middle" x="732" y="-524" font-family="Arial" font-size="10.00">S&#45;541</text>
</g>
<!-- C&#45;0239 -->
<g id="node24" class="node">
<title>C&#45;0239</title>
<ellipse fill="tomato" stroke="black" cx="830" cy="-425.5" rx="72" ry="21.5"/>
<text text-anchor="middle" x="830" y="-423" font-family="Arial" font-size="10.00">C&#45;0239</text>
</g>
<!-- S&#45;541&#45;&gt;C&#45;0239 -->
<g id="edge12" class="edge">
<title>S&#45;541&#45;&gt;C&#45;0239</title>
<path fill="none" stroke="#4d4d4d" d="M781,-519.56C781,-519.56 781,-448.58 781,-448.58"/>
<polygon fill="#4d4d4d" stroke="#4d4d4d" points="783.45,-448.58 781,-441.58 778.55,-448.58 783.45,-448.58"/>
</g>
<!-- S&#45;1254 -->
<g id="node2" class="node">
<title>S&#45;1254</title>
<polygon fill="mediumseagreen" stroke="black" points="1489,-649 1417,-627.5 1489,-606 1561,-627.5 1489,-649"/>
<text text-anchor="middle" x="1489" y="-625" font-family="Arial" font-size="10.00">S&#45;1254</text>
</g>
<!-- SR&#45;0023 -->
<g id="node3" class="node">
<title>SR&#45;0023</title>
<polygon fill="mediumseagreen" stroke="black" points="173,-447 101,-425.5 173,-404 245,-425.5 173,-447"/>
<text text-anchor="middle" x="173" y="-423" font-family="Arial" font-size="10.00">SR&#45;0023</text>
</g>
<!-- S&#45;2551 -->
<g id="node32" class="node">
<title>S&#45;2551</title>
<polygon fill="mediumseagreen" stroke="black" points="83,-346 11,-324.5 83,-303 155,-324.5 83,-346"/>
<text text-anchor="middle" x="83" y="-322" font-family="Arial" font-size="10.00">S&#45;2551</text>
</g>
<!-- SR&#45;0023&#45;&gt;S&#45;2551 -->
<g id="edge27" class="edge">
<title>SR&#45;0023&#45;&gt;S&#45;2551</title>
<path fill="none" stroke="#4d4d4d" d="M128,-417.23C128,-417.23 128,-339.6 128,-339.6"/>
<polygon fill="#4d4d4d" stroke="#4d4d4d" points="130.45,-339.6 128,-332.6 125.55,-339.6 130.45,-339.6"/>
</g>
<!-- S&#45;545 -->
<g id="node4" class="node">
<title>S&#45;545</title>
<polygon fill="mediumseagreen" stroke="black" points="533,-144 461,-122.5 533,-101 605,-122.5 533,-144"/>
<text text-anchor="middle" x="533" y="-120" font-family="Arial" font-size="10.00">S&#45;545</text>
</g>
<!-- S&#45;2106 -->
<g id="node30" class="node">
<title>S&#45;2106</title>
<polygon fill="mediumseagreen" stroke="black" points="533,-43 461,-21.5 533,0 605,-21.5 533,-43"/>
<text text-anchor="middle" x="533" y="-19" font-family="Arial" font-size="10.00">S&#45;2106</text>
</g>
<!-- S&#45;545&#45;&gt;S&#45;2106 -->
<g id="edge6" class="edge">
<title>S&#45;545&#45;&gt;S&#45;2106</title>
<path fill="none" stroke="#4d4d4d" d="M533,-100.58C533,-100.58 533,-50.03 533,-50.03"/>
<polygon fill="#4d4d4d" stroke="#4d4d4d" points="535.45,-50.03 533,-43.03 530.55,-50.03 535.45,-50.03"/>
</g>
<!-- R&#45;173 -->
<g id="node5" class="node">
<title>R&#45;173</title>
<polygon fill="tomato" stroke="black" points="418,-719.59 418,-737.41 375.82,-750 316.18,-750 274,-737.41 274,-719.59 316.18,-707 375.82,-707 418,-719.59"/>
<text text-anchor="middle" x="346" y="-726" font-family="Arial" font-size="10.00">R&#45;173</text>
</g>
<!-- ext_circ_304_24_ -->
<g id="node44" class="node">
<title>ext_circ_304_24_</title>
<polygon fill="lightpink" stroke="darkorange" stroke-dasharray="5,2" points="281,-649 137,-649 137,-606 281,-606 281,-649"/>
<text text-anchor="middle" x="209" y="-630.5" font-family="Arial" font-size="10.00">Circuito:</text>
<text text-anchor="middle" x="209" y="-619.5" font-family="Arial" font-size="10.00">304&#45;24&#45;</text>
</g>
<!-- R&#45;173&#45;&gt;ext_circ_304_24_ -->
<g id="edge48" class="edge">
<title>R&#45;173&#45;&gt;ext_circ_304_24_</title>
<path fill="none" stroke="darkorange" stroke-dasharray="5,2" d="M277.5,-718.45C277.5,-718.45 277.5,-656.14 277.5,-656.14"/>
<polygon fill="darkorange" stroke="darkorange" points="279.95,-656.14 277.5,-649.14 275.05,-656.14 279.95,-656.14"/>
</g>
<!-- 304&#45;25&#45; -->
<g id="node6" class="node">
<title>304&#45;25&#45;</title>
<polygon fill="gold" stroke="black" points="362,-1329.59 362,-1347.41 319.82,-1360 260.18,-1360 218,-1347.41 218,-1329.59 260.18,-1317 319.82,-1317 362,-1329.59"/>
<polygon fill="none" stroke="black" points="366,-1326.61 366,-1350.39 320.41,-1364 259.59,-1364 214,-1350.39 214,-1326.61 259.59,-1313 320.41,-1313 366,-1326.61"/>
<text text-anchor="middle" x="290" y="-1336" font-family="Arial" font-size="10.00">304&#45;25&#45;</text>
</g>
<!-- S&#45;537 -->
<g id="node37" class="node">
<title>S&#45;537</title>
<polygon fill="mediumseagreen" stroke="black" points="290,-1255 218,-1233.5 290,-1212 362,-1233.5 290,-1255"/>
<text text-anchor="middle" x="290" y="-1231" font-family="Arial" font-size="10.00">S&#45;537</text>
</g>
<!-- 304&#45;25&#45;&#45;&gt;S&#45;537 -->
<g id="edge30" class="edge">
<title>304&#45;25&#45;&#45;&gt;S&#45;537</title>
<path fill="none" stroke="#4d4d4d" d="M290,-1312.81C290,-1312.81 290,-1262.03 290,-1262.03"/>
<polygon fill="#4d4d4d" stroke="#4d4d4d" points="292.45,-1262.03 290,-1255.03 287.55,-1262.03 292.45,-1262.03"/>
</g>
<!-- S&#45;1293 -->
<g id="node7" class="node">
<title>S&#45;1293</title>
<polygon fill="mediumseagreen" stroke="black" points="173,-851 101,-829.5 173,-808 245,-829.5 173,-851"/>
<text text-anchor="middle" x="173" y="-827" font-family="Arial" font-size="10.00">S&#45;1293</text>
</g>
<!-- C&#45;0783 -->
<g id="node8" class="node">
<title>C&#45;0783</title>
<ellipse fill="mediumseagreen" stroke="black" cx="353" cy="-829.5" rx="72" ry="21.5"/>
<text text-anchor="middle" x="353" y="-827" font-family="Arial" font-size="10.00">C&#45;0783</text>
</g>
<!-- C&#45;0783&#45;&gt;R&#45;173 -->
<g id="edge38" class="edge">
<title>C&#45;0783&#45;&gt;R&#45;173</title>
<path fill="none" stroke="#4d4d4d" d="M349.5,-807.58C349.5,-807.58 349.5,-757.03 349.5,-757.03"/>
<polygon fill="#4d4d4d" stroke="#4d4d4d" points="351.95,-757.03 349.5,-750.03 347.05,-757.03 351.95,-757.03"/>
</g>
<!-- S&#45;651 -->
<g id="node9" class="node">
<title>S&#45;651</title>
<polygon fill="mediumseagreen" stroke="black" points="1669,-649 1597,-627.5 1669,-606 1741,-627.5 1669,-649"/>
<text text-anchor="middle" x="1669" y="-625" font-family="Arial" font-size="10.00">S&#45;651</text>
</g>
<!-- R&#45;258 -->
<g id="node10" class="node">
<title>R&#45;258</title>
<polygon fill="tomato" stroke="black" points="144,-719.59 144,-737.41 101.82,-750 42.18,-750 0,-737.41 0,-719.59 42.18,-707 101.82,-707 144,-719.59"/>
<text text-anchor="middle" x="72" y="-726" font-family="Arial" font-size="10.00">R&#45;258</text>
</g>
<!-- R&#45;258&#45;&gt;ext_circ_304_24_ -->
<g id="edge43" class="edge">
<title>R&#45;258&#45;&gt;ext_circ_304_24_</title>
<path fill="none" stroke="darkorange" stroke-dasharray="5,2" d="M140.5,-718.45C140.5,-718.45 140.5,-656.14 140.5,-656.14"/>
<polygon fill="darkorange" stroke="darkorange" points="142.95,-656.14 140.5,-649.14 138.05,-656.14 142.95,-656.14"/>
</g>
<!-- S&#45;865 -->
<g id="node11" class="node">
<title>S&#45;865</title>
<polygon fill="mediumseagreen" stroke="black" points="803,-952 731,-930.5 803,-909 875,-930.5 803,-952"/>
<text text-anchor="middle" x="803" y="-928" font-family="Arial" font-size="10.00">S&#45;865</text>
</g>
<!-- S&#45;1374 -->
<g id="node31" class="node">
<title>S&#45;1374</title>
<polygon fill="mediumseagreen" stroke="black" points="893,-851 821,-829.5 893,-808 965,-829.5 893,-851"/>
<text text-anchor="middle" x="893" y="-827" font-family="Arial" font-size="10.00">S&#45;1374</text>
</g>
<!-- S&#45;865&#45;&gt;S&#45;1374 -->
<g id="edge14" class="edge">
<title>S&#45;865&#45;&gt;S&#45;1374</title>
<path fill="none" stroke="#4d4d4d" d="M848,-922.23C848,-922.23 848,-844.6 848,-844.6"/>
<polygon fill="#4d4d4d" stroke="#4d4d4d" points="850.45,-844.6 848,-837.6 845.55,-844.6 850.45,-844.6"/>
</g>
<!-- C&#45;0220 -->
<g id="node12" class="node">
<title>C&#45;0220</title>
<ellipse fill="mediumseagreen" stroke="black" cx="533" cy="-425.5" rx="72" ry="21.5"/>
<text text-anchor="middle" x="533" y="-423" font-family="Arial" font-size="10.00">C&#45;0220</text>
</g>
<!-- C&#45;1143 -->
<g id="node29" class="node">
<title>C&#45;1143</title>
<ellipse fill="mediumseagreen" stroke="black" cx="263" cy="-324.5" rx="72" ry="21.5"/>
<text text-anchor="middle" x="263" y="-322" font-family="Arial" font-size="10.00">C&#45;1143</text>
</g>
<!-- C&#45;0220&#45;&gt;C&#45;1143 -->
<g id="edge9" class="edge">
<title>C&#45;0220&#45;&gt;C&#45;1143</title>
<path fill="none" stroke="#4d4d4d" d="M465.49,-418C399.22,-418 308,-418 308,-418 308,-418 308,-348.65 308,-348.65"/>
<polygon fill="#4d4d4d" stroke="#4d4d4d" points="310.45,-348.65 308,-341.65 305.55,-348.65 310.45,-348.65"/>
</g>
<!-- S&#45;1814 -->
<g id="node35" class="node">
<title>S&#45;1814</title>
<polygon fill="mediumseagreen" stroke="black" points="443,-346 371,-324.5 443,-303 515,-324.5 443,-346"/>
<text text-anchor="middle" x="443" y="-322" font-family="Arial" font-size="10.00">S&#45;1814</text>
</g>
<!-- C&#45;0220&#45;&gt;S&#45;1814 -->
<g id="edge8" class="edge">
<title>C&#45;0220&#45;&gt;S&#45;1814</title>
<path fill="none" stroke="#4d4d4d" d="M488,-408.37C488,-408.37 488,-339.78 488,-339.78"/>
<polygon fill="#4d4d4d" stroke="#4d4d4d" points="490.45,-339.78 488,-332.78 485.55,-339.78 490.45,-339.78"/>
</g>
<!-- S&#45;543 -->
<g id="node38" class="node">
<title>S&#45;543</title>
<polygon fill="mediumseagreen" stroke="black" points="623,-346 551,-324.5 623,-303 695,-324.5 623,-346"/>
<text text-anchor="middle" x="623" y="-322" font-family="Arial" font-size="10.00">S&#45;543</text>
</g>
<!-- C&#45;0220&#45;&gt;S&#45;543 -->
<g id="edge3" class="edge">
<title>C&#45;0220&#45;&gt;S&#45;543</title>
<path fill="none" stroke="#4d4d4d" d="M578,-408.37C578,-408.37 578,-339.78 578,-339.78"/>
<polygon fill="#4d4d4d" stroke="#4d4d4d" points="580.45,-339.78 578,-332.78 575.55,-339.78 580.45,-339.78"/>
</g>
<!-- S&#45;1720 -->
<g id="node39" class="node">
<title>S&#45;1720</title>
<polygon fill="mediumseagreen" stroke="black" points="803,-346 731,-324.5 803,-303 875,-324.5 803,-346"/>
<text text-anchor="middle" x="803" y="-322" font-family="Arial" font-size="10.00">S&#45;1720</text>
</g>
<!-- C&#45;0220&#45;&gt;S&#45;1720 -->
<g id="edge10" class="edge">
<title>C&#45;0220&#45;&gt;S&#45;1720</title>
<path fill="none" stroke="#4d4d4d" d="M605.19,-425C666.46,-425 744.5,-425 744.5,-425 744.5,-425 744.5,-335.82 744.5,-335.82"/>
<polygon fill="#4d4d4d" stroke="#4d4d4d" points="746.95,-335.82 744.5,-328.82 742.05,-335.82 746.95,-335.82"/>
</g>
<!-- S&#45;1809 -->
<g id="node13" class="node">
<title>S&#45;1809</title>
<polygon fill="mediumseagreen" stroke="black" points="949,-548 877,-526.5 949,-505 1021,-526.5 949,-548"/>
<text text-anchor="middle" x="949" y="-524" font-family="Arial" font-size="10.00">S&#45;1809</text>
</g>
<!-- S&#45;1256 -->
<g id="node14" class="node">
<title>S&#45;1256</title>
<polygon fill="mediumseagreen" stroke="black" points="769,-649 697,-627.5 769,-606 841,-627.5 769,-649"/>
<text text-anchor="middle" x="769" y="-625" font-family="Arial" font-size="10.00">S&#45;1256</text>
</g>
<!-- R&#45;064 -->
<g id="node15" class="node">
<title>R&#45;064</title>
<polygon fill="mediumseagreen" stroke="black" points="605,-719.59 605,-737.41 562.82,-750 503.18,-750 461,-737.41 461,-719.59 503.18,-707 562.82,-707 605,-719.59"/>
<text text-anchor="middle" x="533" y="-726" font-family="Arial" font-size="10.00">R&#45;064</text>
</g>
<!-- C&#45;1183 -->
<g id="node22" class="node">
<title>C&#45;1183</title>
<ellipse fill="mediumseagreen" stroke="black" cx="533" cy="-627.5" rx="72" ry="21.5"/>
<text text-anchor="middle" x="533" y="-625" font-family="Arial" font-size="10.00">C&#45;1183</text>
</g>
<!-- R&#45;064&#45;&gt;C&#45;1183 -->
<g id="edge41" class="edge">
<title>R&#45;064&#45;&gt;C&#45;1183</title>
<path fill="none" stroke="#4d4d4d" d="M533,-706.58C533,-706.58 533,-656.03 533,-656.03"/>
<polygon fill="#4d4d4d" stroke="#4d4d4d" points="535.45,-656.03 533,-649.03 530.55,-656.03 535.45,-656.03"/>
</g>
<!-- S&#45;2243 -->
<g id="node16" class="node">
<title>S&#45;2243</title>
<polygon fill="mediumseagreen" stroke="black" points="353,-548 281,-526.5 353,-505 425,-526.5 353,-548"/>
<text text-anchor="middle" x="353" y="-524" font-family="Arial" font-size="10.00">S&#45;2243</text>
</g>
<!-- C&#45;0825 -->
<g id="node17" class="node">
<title>C&#45;0825</title>
<ellipse fill="mediumseagreen" stroke="black" cx="533" cy="-930.5" rx="72" ry="21.5"/>
<text text-anchor="middle" x="533" y="-928" font-family="Arial" font-size="10.00">C&#45;0825</text>
</g>
<!-- C&#45;0825&#45;&gt;S&#45;1293 -->
<g id="edge35" class="edge">
<title>C&#45;0825&#45;&gt;S&#45;1293</title>
<path fill="none" stroke="#4d4d4d" d="M509,-909.96C509,-895.98 509,-880 509,-880 509,-880 173,-880 173,-880 173,-880 173,-858.21 173,-858.21"/>
<polygon fill="#4d4d4d" stroke="#4d4d4d" points="175.45,-858.21 173,-851.21 170.55,-858.21 175.45,-858.21"/>
</g>
<!-- C&#45;0825&#45;&gt;C&#45;0783 -->
<g id="edge37" class="edge">
<title>C&#45;0825&#45;&gt;C&#45;0783</title>
<path fill="none" stroke="#4d4d4d" d="M460.68,-930C453.61,-930 449,-930 449,-930 449,-930 449,-829 449,-829 449,-829 432.27,-829 432.27,-829"/>
<polygon fill="#4d4d4d" stroke="#4d4d4d" points="432.27,-826.55 425.27,-829 432.27,-831.45 432.27,-826.55"/>
</g>
<!-- C&#45;1182 -->
<g id="node23" class="node">
<title>C&#45;1182</title>
<ellipse fill="mediumseagreen" stroke="black" cx="533" cy="-829.5" rx="72" ry="21.5"/>
<text text-anchor="middle" x="533" y="-827" font-family="Arial" font-size="10.00">C&#45;1182</text>
</g>
<!-- C&#45;0825&#45;&gt;C&#45;1182 -->
<g id="edge39" class="edge">
<title>C&#45;0825&#45;&gt;C&#45;1182</title>
<path fill="none" stroke="#4d4d4d" d="M557,-910.06C557,-910.06 557,-856.91 557,-856.91"/>
<polygon fill="#4d4d4d" stroke="#4d4d4d" points="559.45,-856.91 557,-849.91 554.55,-856.91 559.45,-856.91"/>
</g>
<!-- C&#45;1184 -->
<g id="node33" class="node">
<title>C&#45;1184</title>
<ellipse fill="tomato" stroke="black" cx="713" cy="-829.5" rx="72" ry="21.5"/>
<text text-anchor="middle" x="713" y="-827" font-family="Arial" font-size="10.00">C&#45;1184</text>
</g>
<!-- C&#45;0825&#45;&gt;C&#45;1184 -->
<g id="edge36" class="edge">
<title>C&#45;0825&#45;&gt;C&#45;1184</title>
<path fill="none" stroke="#4d4d4d" d="M605.02,-930C644.7,-930 686,-930 686,-930 686,-930 686,-856.84 686,-856.84"/>
<polygon fill="#4d4d4d" stroke="#4d4d4d" points="688.45,-856.84 686,-849.84 683.55,-856.84 688.45,-856.84"/>
</g>
<!-- S&#45;330 -->
<g id="node18" class="node">
<title>S&#45;330</title>
<polygon fill="mediumseagreen" stroke="black" points="443,-1053 371,-1031.5 443,-1010 515,-1031.5 443,-1053"/>
<text text-anchor="middle" x="443" y="-1029" font-family="Arial" font-size="10.00">S&#45;330</text>
</g>
<!-- S&#45;330&#45;&gt;S&#45;865 -->
<g id="edge13" class="edge">
<title>S&#45;330&#45;&gt;S&#45;865</title>
<path fill="none" stroke="#4d4d4d" d="M490.06,-1024C587.65,-1024 803,-1024 803,-1024 803,-1024 803,-959.19 803,-959.19"/>
<polygon fill="#4d4d4d" stroke="#4d4d4d" points="805.45,-959.19 803,-952.19 800.55,-959.19 805.45,-959.19"/>
</g>
<!-- S&#45;330&#45;&gt;C&#45;0825 -->
<g id="edge34" class="edge">
<title>S&#45;330&#45;&gt;C&#45;0825</title>
<path fill="none" stroke="#4d4d4d" d="M488,-1023.23C488,-1023.23 488,-954.52 488,-954.52"/>
<polygon fill="#4d4d4d" stroke="#4d4d4d" points="490.45,-954.52 488,-947.52 485.55,-954.52 490.45,-954.52"/>
</g>
<!-- C&#45;0369 -->
<g id="node27" class="node">
<title>C&#45;0369</title>
<ellipse fill="mediumseagreen" stroke="black" cx="1065" cy="-930.5" rx="72" ry="21.5"/>
<text text-anchor="middle" x="1065" y="-928" font-family="Arial" font-size="10.00">C&#45;0369</text>
</g>
<!-- S&#45;330&#45;&gt;C&#45;0369 -->
<g id="edge16" class="edge">
<title>S&#45;330&#45;&gt;C&#45;0369</title>
<path fill="none" stroke="#4d4d4d" d="M493.37,-1038C641.45,-1038 1065,-1038 1065,-1038 1065,-1038 1065,-959.25 1065,-959.25"/>
<polygon fill="#4d4d4d" stroke="#4d4d4d" points="1067.45,-959.25 1065,-952.25 1062.55,-959.25 1067.45,-959.25"/>
</g>
<!-- S&#45;1345 -->
<g id="node28" class="node">
<title>S&#45;1345</title>
<polygon fill="mediumseagreen" stroke="black" points="353,-952 281,-930.5 353,-909 425,-930.5 353,-952"/>
<text text-anchor="middle" x="353" y="-928" font-family="Arial" font-size="10.00">S&#45;1345</text>
</g>
<!-- S&#45;330&#45;&gt;S&#45;1345 -->
<g id="edge2" class="edge">
<title>S&#45;330&#45;&gt;S&#45;1345</title>
<path fill="none" stroke="#4d4d4d" d="M398,-1023.23C398,-1023.23 398,-945.6 398,-945.6"/>
<polygon fill="#4d4d4d" stroke="#4d4d4d" points="400.45,-945.6 398,-938.6 395.55,-945.6 400.45,-945.6"/>
</g>
<!-- C&#45;0368 -->
<g id="node34" class="node">
<title>C&#45;0368</title>
<ellipse fill="tomato" stroke="black" cx="173" cy="-930.5" rx="72" ry="21.5"/>
<text text-anchor="middle" x="173" y="-928" font-family="Arial" font-size="10.00">C&#45;0368</text>
</g>
<!-- S&#45;330&#45;&gt;C&#45;0368 -->
<g id="edge15" class="edge">
<title>S&#45;330&#45;&gt;C&#45;0368</title>
<path fill="none" stroke="#4d4d4d" d="M396.02,-1024C347.09,-1024 277.5,-1024 277.5,-1024 277.5,-1024 277.5,-923 277.5,-923 277.5,-923 247.66,-923 247.66,-923"/>
<polygon fill="#4d4d4d" stroke="#4d4d4d" points="247.66,-920.55 240.66,-923 247.66,-925.45 247.66,-920.55"/>
</g>
<!-- S&#45;1399 -->
<g id="node19" class="node">
<title>S&#45;1399</title>
<polygon fill="mediumseagreen" stroke="black" points="533,-245 461,-223.5 533,-202 605,-223.5 533,-245"/>
<text text-anchor="middle" x="533" y="-221" font-family="Arial" font-size="10.00">S&#45;1399</text>
</g>
<!-- S&#45;1399&#45;&gt;S&#45;545 -->
<g id="edge5" class="edge">
<title>S&#45;1399&#45;&gt;S&#45;545</title>
<path fill="none" stroke="#4d4d4d" d="M533,-201.58C533,-201.58 533,-151.03 533,-151.03"/>
<polygon fill="#4d4d4d" stroke="#4d4d4d" points="535.45,-151.03 533,-144.03 530.55,-151.03 535.45,-151.03"/>
</g>
<!-- C&#45;0219 -->
<g id="node20" class="node">
<title>C&#45;0219</title>
<ellipse fill="mediumseagreen" stroke="black" cx="533" cy="-526.5" rx="72" ry="21.5"/>
<text text-anchor="middle" x="533" y="-524" font-family="Arial" font-size="10.00">C&#45;0219</text>
</g>
<!-- C&#45;0219&#45;&gt;SR&#45;0023 -->
<g id="edge28" class="edge">
<title>C&#45;0219&#45;&gt;SR&#45;0023</title>
<path fill="none" stroke="#4d4d4d" d="M460.73,-526C447.09,-526 437,-526 437,-526 437,-526 437,-432 437,-432 437,-432 230.28,-432 230.28,-432"/>
<polygon fill="#4d4d4d" stroke="#4d4d4d" points="230.28,-429.55 223.28,-432 230.28,-434.45 230.28,-429.55"/>
</g>
<!-- C&#45;0219&#45;&gt;C&#45;0220 -->
<g id="edge26" class="edge">
<title>C&#45;0219&#45;&gt;C&#45;0220</title>
<path fill="none" stroke="#4d4d4d" d="M533,-504.58C533,-504.58 533,-454.03 533,-454.03"/>
<polygon fill="#4d4d4d" stroke="#4d4d4d" points="535.45,-454.03 533,-447.03 530.55,-454.03 535.45,-454.03"/>
</g>
<!-- C&#45;0370 -->
<g id="node21" class="node">
<title>C&#45;0370</title>
<ellipse fill="mediumseagreen" stroke="black" cx="1147" cy="-728.5" rx="72" ry="21.5"/>
<text text-anchor="middle" x="1147" y="-726" font-family="Arial" font-size="10.00">C&#45;0370</text>
</g>
<!-- C&#45;0370&#45;&gt;S&#45;1254 -->
<g id="edge22" class="edge">
<title>C&#45;0370&#45;&gt;S&#45;1254</title>
<path fill="none" stroke="#4d4d4d" d="M1214.57,-721C1314.24,-721 1489,-721 1489,-721 1489,-721 1489,-656.19 1489,-656.19"/>
<polygon fill="#4d4d4d" stroke="#4d4d4d" points="1491.45,-656.19 1489,-649.19 1486.55,-656.19 1491.45,-656.19"/>
</g>
<!-- C&#45;0370&#45;&gt;S&#45;651 -->
<g id="edge24" class="edge">
<title>C&#45;0370&#45;&gt;S&#45;651</title>
<path fill="none" stroke="#4d4d4d" d="M1215.78,-735C1357.52,-735 1669,-735 1669,-735 1669,-735 1669,-656.25 1669,-656.25"/>
<polygon fill="#4d4d4d" stroke="#4d4d4d" points="1671.45,-656.25 1669,-649.25 1666.55,-656.25 1671.45,-656.25"/>
</g>
<!-- C&#45;0370&#45;&gt;S&#45;1256 -->
<g id="edge19" class="edge">
<title>C&#45;0370&#45;&gt;S&#45;1256</title>
<path fill="none" stroke="#4d4d4d" d="M1078.04,-735C985.06,-735 831,-735 831,-735 831,-735 831,-637.6 831,-637.6"/>
<polygon fill="#4d4d4d" stroke="#4d4d4d" points="833.45,-637.6 831,-630.6 828.55,-637.6 833.45,-637.6"/>
</g>
<!-- S&#45;1255 -->
<g id="node25" class="node">
<title>S&#45;1255</title>
<polygon fill="mediumseagreen" stroke="black" points="949,-649 877,-627.5 949,-606 1021,-627.5 949,-649"/>
<text text-anchor="middle" x="949" y="-625" font-family="Arial" font-size="10.00">S&#45;1255</text>
</g>
<!-- C&#45;0370&#45;&gt;S&#45;1255 -->
<g id="edge20" class="edge">
<title>C&#45;0370&#45;&gt;S&#45;1255</title>
<path fill="none" stroke="#4d4d4d" d="M1079.46,-721C1043.66,-721 1007,-721 1007,-721 1007,-721 1007,-638.76 1007,-638.76"/>
<polygon fill="#4d4d4d" stroke="#4d4d4d" points="1009.45,-638.76 1007,-631.76 1004.55,-638.76 1009.45,-638.76"/>
</g>
<!-- S&#45;653 -->
<g id="node36" class="node">
<title>S&#45;653</title>
<polygon fill="mediumseagreen" stroke="black" points="1129,-649 1057,-627.5 1129,-606 1201,-627.5 1129,-649"/>
<text text-anchor="middle" x="1129" y="-625" font-family="Arial" font-size="10.00">S&#45;653</text>
</g>
<!-- C&#45;0370&#45;&gt;S&#45;653 -->
<g id="edge23" class="edge">
<title>C&#45;0370&#45;&gt;S&#45;653</title>
<path fill="none" stroke="#4d4d4d" d="M1138,-707.08C1138,-707.08 1138,-653.5 1138,-653.5"/>
<polygon fill="#4d4d4d" stroke="#4d4d4d" points="1140.45,-653.5 1138,-646.5 1135.55,-653.5 1140.45,-653.5"/>
</g>
<!-- R&#45;083 -->
<g id="node40" class="node">
<title>R&#45;083</title>
<polygon fill="tomato" stroke="black" points="1381,-618.59 1381,-636.41 1338.82,-649 1279.18,-649 1237,-636.41 1237,-618.59 1279.18,-606 1338.82,-606 1381,-618.59"/>
<text text-anchor="middle" x="1309" y="-625" font-family="Arial" font-size="10.00">R&#45;083</text>
</g>
<!-- C&#45;0370&#45;&gt;R&#45;083 -->
<g id="edge25" class="edge">
<title>C&#45;0370&#45;&gt;R&#45;083</title>
<path fill="none" stroke="#4d4d4d" d="M1210,-718.02C1210,-692.09 1210,-627 1210,-627 1210,-627 1229.79,-627 1229.79,-627"/>
<polygon fill="#4d4d4d" stroke="#4d4d4d" points="1229.79,-629.45 1236.79,-627 1229.79,-624.55 1229.79,-629.45"/>
</g>
<!-- C&#45;1183&#45;&gt;S&#45;541 -->
<g id="edge11" class="edge">
<title>C&#45;1183&#45;&gt;S&#45;541</title>
<path fill="none" stroke="#4d4d4d" d="M600.64,-620C638.63,-620 678.5,-620 678.5,-620 678.5,-620 678.5,-539.07 678.5,-539.07"/>
<polygon fill="#4d4d4d" stroke="#4d4d4d" points="680.95,-539.07 678.5,-532.07 676.05,-539.07 680.95,-539.07"/>
</g>
<!-- C&#45;1183&#45;&gt;S&#45;2243 -->
<g id="edge42" class="edge">
<title>C&#45;1183&#45;&gt;S&#45;2243</title>
<path fill="none" stroke="#4d4d4d" d="M460.81,-627C439.37,-627 421.5,-627 421.5,-627 421.5,-627 421.5,-534.63 421.5,-534.63"/>
<polygon fill="#4d4d4d" stroke="#4d4d4d" points="423.95,-534.63 421.5,-527.63 419.05,-534.63 423.95,-534.63"/>
</g>
<!-- C&#45;1183&#45;&gt;C&#45;0219 -->
<g id="edge32" class="edge">
<title>C&#45;1183&#45;&gt;C&#45;0219</title>
<path fill="none" stroke="#4d4d4d" d="M533,-605.58C533,-605.58 533,-555.03 533,-555.03"/>
<polygon fill="#4d4d4d" stroke="#4d4d4d" points="535.45,-555.03 533,-548.03 530.55,-555.03 535.45,-555.03"/>
</g>
<!-- C&#45;1182&#45;&gt;R&#45;064 -->
<g id="edge40" class="edge">
<title>C&#45;1182&#45;&gt;R&#45;064</title>
<path fill="none" stroke="#4d4d4d" d="M533,-807.58C533,-807.58 533,-757.03 533,-757.03"/>
<polygon fill="#4d4d4d" stroke="#4d4d4d" points="535.45,-757.03 533,-750.03 530.55,-757.03 535.45,-757.03"/>
</g>
<!-- ext_circ_304_27_ -->
<g id="node45" class="node">
<title>ext_circ_304_27_</title>
<polygon fill="lightpink" stroke="darkorange" stroke-dasharray="5,2" points="1055,-346 911,-346 911,-303 1055,-303 1055,-346"/>
<text text-anchor="middle" x="983" y="-327.5" font-family="Arial" font-size="10.00">Circuito:</text>
<text text-anchor="middle" x="983" y="-316.5" font-family="Arial" font-size="10.00">304&#45;27&#45;</text>
</g>
<!-- C&#45;0239&#45;&gt;ext_circ_304_27_ -->
<g id="edge44" class="edge">
<title>C&#45;0239&#45;&gt;ext_circ_304_27_</title>
<path fill="none" stroke="darkorange" stroke-dasharray="5,2" d="M888.5,-412.64C888.5,-385.33 888.5,-324 888.5,-324 888.5,-324 903.9,-324 903.9,-324"/>
<polygon fill="darkorange" stroke="darkorange" points="903.9,-326.45 910.9,-324 903.9,-321.55 903.9,-326.45"/>
</g>
<!-- S&#45;1255&#45;&gt;S&#45;1809 -->
<g id="edge21" class="edge">
<title>S&#45;1255&#45;&gt;S&#45;1809</title>
<path fill="none" stroke="#4d4d4d" d="M949,-605.58C949,-605.58 949,-555.03 949,-555.03"/>
<polygon fill="#4d4d4d" stroke="#4d4d4d" points="951.45,-555.03 949,-548.03 946.55,-555.03 951.45,-555.03"/>
</g>
<!-- S&#45;1400 -->
<g id="node26" class="node">
<title>S&#45;1400</title>
<polygon fill="mediumseagreen" stroke="black" points="713,-245 641,-223.5 713,-202 785,-223.5 713,-245"/>
<text text-anchor="middle" x="713" y="-221" font-family="Arial" font-size="10.00">S&#45;1400</text>
</g>
<!-- R&#45;123 -->
<g id="node41" class="node">
<title>R&#45;123</title>
<polygon fill="mediumseagreen" stroke="black" points="1219,-820.59 1219,-838.41 1176.82,-851 1117.18,-851 1075,-838.41 1075,-820.59 1117.18,-808 1176.82,-808 1219,-820.59"/>
<text text-anchor="middle" x="1147" y="-827" font-family="Arial" font-size="10.00">R&#45;123</text>
</g>
<!-- C&#45;0369&#45;&gt;R&#45;123 -->
<g id="edge17" class="edge">
<title>C&#45;0369&#45;&gt;R&#45;123</title>
<path fill="none" stroke="#4d4d4d" d="M1106,-912.44C1106,-912.44 1106,-854.74 1106,-854.74"/>
<polygon fill="#4d4d4d" stroke="#4d4d4d" points="1108.45,-854.74 1106,-847.74 1103.55,-854.74 1108.45,-854.74"/>
</g>
<!-- C&#45;1184&#45;&gt;C&#45;1183 -->
<g id="edge47" class="edge">
<title>C&#45;1184&#45;&gt;C&#45;1183</title>
<path fill="none" stroke="blue" stroke-dasharray="5,2" d="M650.5,-818.71C650.5,-777.73 650.5,-634 650.5,-634 650.5,-634 608.69,-634 608.69,-634"/>
<polygon fill="blue" stroke="blue" points="608.69,-631.55 601.69,-634 608.69,-636.45 608.69,-631.55"/>
</g>
<!-- C&#45;0368&#45;&gt;C&#45;0370 -->
<g id="edge45" class="edge">
<title>C&#45;0368&#45;&gt;C&#45;0370</title>
<path fill="none" stroke="blue" stroke-dasharray="5,2" d="M242.01,-937C251.74,-937 258.5,-937 258.5,-937 258.5,-937 258.5,-779 258.5,-779 258.5,-779 1123,-779 1123,-779 1123,-779 1123,-756.04 1123,-756.04"/>
<polygon fill="blue" stroke="blue" points="1125.45,-756.04 1123,-749.04 1120.55,-756.04 1125.45,-756.04"/>
</g>
<!-- C&#45;0360 -->
<g id="node43" class="node">
<title>C&#45;0360</title>
<ellipse fill="mediumseagreen" stroke="black" cx="290" cy="-1132.5" rx="72" ry="21.5"/>
<text text-anchor="middle" x="290" y="-1130" font-family="Arial" font-size="10.00">C&#45;0360</text>
</g>
<!-- S&#45;537&#45;&gt;C&#45;0360 -->
<g id="edge29" class="edge">
<title>S&#45;537&#45;&gt;C&#45;0360</title>
<path fill="none" stroke="#4d4d4d" d="M290,-1211.58C290,-1211.58 290,-1161.03 290,-1161.03"/>
<polygon fill="#4d4d4d" stroke="#4d4d4d" points="292.45,-1161.03 290,-1154.03 287.55,-1161.03 292.45,-1161.03"/>
</g>
<!-- S&#45;543&#45;&gt;S&#45;1399 -->
<g id="edge4" class="edge">
<title>S&#45;543&#45;&gt;S&#45;1399</title>
<path fill="none" stroke="#4d4d4d" d="M578,-316.23C578,-316.23 578,-238.6 578,-238.6"/>
<polygon fill="#4d4d4d" stroke="#4d4d4d" points="580.45,-238.6 578,-231.6 575.55,-238.6 580.45,-238.6"/>
</g>
<!-- S&#45;543&#45;&gt;S&#45;1400 -->
<g id="edge7" class="edge">
<title>S&#45;543&#45;&gt;S&#45;1400</title>
<path fill="none" stroke="#4d4d4d" d="M668,-316.23C668,-316.23 668,-238.6 668,-238.6"/>
<polygon fill="#4d4d4d" stroke="#4d4d4d" points="670.45,-238.6 668,-231.6 665.55,-238.6 670.45,-238.6"/>
</g>
<!-- ext_circ_303_26_ -->
<g id="node46" class="node">
<title>ext_circ_303_26_</title>
<polygon fill="lightpink" stroke="darkorange" stroke-dasharray="5,2" points="1381,-548 1237,-548 1237,-505 1381,-505 1381,-548"/>
<text text-anchor="middle" x="1309" y="-529.5" font-family="Arial" font-size="10.00">Circuito:</text>
<text text-anchor="middle" x="1309" y="-518.5" font-family="Arial" font-size="10.00">303&#45;26&#45;</text>
</g>
<!-- R&#45;083&#45;&gt;ext_circ_303_26_ -->
<g id="edge46" class="edge">
<title>R&#45;083&#45;&gt;ext_circ_303_26_</title>
<path fill="none" stroke="darkorange" stroke-dasharray="5,2" d="M1309,-605.58C1309,-605.58 1309,-555.03 1309,-555.03"/>
<polygon fill="darkorange" stroke="darkorange" points="1311.45,-555.03 1309,-548.03 1306.55,-555.03 1311.45,-555.03"/>
</g>
<!-- R&#45;123&#45;&gt;C&#45;0370 -->
<g id="edge18" class="edge">
<title>R&#45;123&#45;&gt;C&#45;0370</title>
<path fill="none" stroke="#4d4d4d" d="M1171,-807.58C1171,-807.58 1171,-756 1171,-756"/>
<polygon fill="#4d4d4d" stroke="#4d4d4d" points="1173.45,-756 1171,-749 1168.55,-756 1173.45,-756"/>
</g>
<!-- C&#45;1055 -->
<g id="node42" class="node">
<title>C&#45;1055</title>
<ellipse fill="mediumseagreen" stroke="black" cx="200" cy="-1031.5" rx="72" ry="21.5"/>
<text text-anchor="middle" x="200" y="-1029" font-family="Arial" font-size="10.00">C&#45;1055</text>
</g>
<!-- C&#45;1055&#45;&gt;R&#45;258 -->
<g id="edge1" class="edge">
<title>C&#45;1055&#45;&gt;R&#45;258</title>
<path fill="none" stroke="#4d4d4d" d="M127.88,-1031C89.65,-1031 50.5,-1031 50.5,-1031 50.5,-1031 50.5,-757.26 50.5,-757.26"/>
<polygon fill="#4d4d4d" stroke="#4d4d4d" points="52.95,-757.26 50.5,-750.26 48.05,-757.26 52.95,-757.26"/>
</g>
<!-- C&#45;0360&#45;&gt;S&#45;330 -->
<g id="edge33" class="edge">
<title>C&#45;0360&#45;&gt;S&#45;330</title>
<path fill="none" stroke="#4d4d4d" d="M321.5,-1112.92C321.5,-1085.24 321.5,-1038 321.5,-1038 321.5,-1038 385.53,-1038 385.53,-1038"/>
<polygon fill="#4d4d4d" stroke="#4d4d4d" points="385.53,-1040.45 392.53,-1038 385.53,-1035.55 385.53,-1040.45"/>
</g>
<!-- C&#45;0360&#45;&gt;C&#45;1055 -->
<g id="edge31" class="edge">
<title>C&#45;0360&#45;&gt;C&#45;1055</title>
<path fill="none" stroke="#4d4d4d" d="M245,-1115.37C245,-1115.37 245,-1055.38 245,-1055.38"/>
<polygon fill="#4d4d4d" stroke="#4d4d4d" points="247.45,-1055.38 245,-1048.38 242.55,-1055.38 247.45,-1055.38"/>
</g>
</g>
</svg>
