<?xml version="1.0" encoding="UTF-8" standalone="no"?>
<!DOCTYPE svg PUBLIC "-//W3C//DTD SVG 1.1//EN"
 "http://www.w3.org/Graphics/SVG/1.1/DTD/svg11.dtd">
<!-- Generated by graphviz version 2.50.0 (0)
 -->
<!-- Title: Grafo_Circuito_109_24_ Pages: 1 -->
<svg width="1151pt" height="710pt"
 viewBox="0.00 0.00 1150.52 710.00" xmlns="http://www.w3.org/2000/svg" xmlns:xlink="http://www.w3.org/1999/xlink">
<g id="graph0" class="graph" transform="scale(1 1) rotate(0) translate(4 706)">
<title>Grafo_Circuito_109_24_</title>
<polygon fill="white" stroke="transparent" points="-4,4 -4,-706 1146.52,-706 1146.52,4 -4,4"/>
<!-- 109&#45;24&#45; -->
<g id="node1" class="node">
<title>109&#45;24&#45;</title>
<polygon fill="gold" stroke="black" points="583.52,-672.54 583.52,-687.46 543.39,-698 486.64,-698 446.52,-687.46 446.52,-672.54 486.64,-662 543.39,-662 583.52,-672.54"/>
<polygon fill="none" stroke="black" points="587.52,-669.46 587.52,-690.54 543.91,-702 486.13,-702 442.52,-690.54 442.52,-669.46 486.13,-658 543.91,-658 587.52,-669.46"/>
<text text-anchor="middle" x="515.02" y="-678.1" font-family="Helvetica,sans-Serif" font-size="8.00">109&#45;24&#45;</text>
</g>
<!-- S&#45;309 -->
<g id="node10" class="node">
<title>S&#45;309</title>
<polygon fill="mediumseagreen" stroke="black" points="515.02,-600 446.52,-582 515.02,-564 583.52,-582 515.02,-600"/>
<text text-anchor="middle" x="515.02" y="-580.1" font-family="Helvetica,sans-Serif" font-size="8.00">S&#45;309</text>
</g>
<!-- 109&#45;24&#45;&#45;&gt;S&#45;309 -->
<g id="edge1" class="edge">
<title>109&#45;24&#45;&#45;&gt;S&#45;309</title>
<path fill="none" stroke="dimgray" stroke-width="0.8" d="M515.02,-657.76C515.02,-657.76 515.02,-607.21 515.02,-607.21"/>
<polygon fill="dimgray" stroke="dimgray" stroke-width="0.8" points="517.47,-607.21 515.02,-600.21 512.57,-607.21 517.47,-607.21"/>
</g>
<!-- SW&#45;004_A -->
<g id="node2" class="node">
<title>SW&#45;004_A</title>
<polygon fill="mediumseagreen" stroke="black" points="498.05,-412 385.05,-412 355.98,-376 468.98,-376 498.05,-412"/>
<text text-anchor="middle" x="427.02" y="-392.1" font-family="Helvetica,sans-Serif" font-size="8.00">SW&#45;004_A</text>
</g>
<!-- SW&#45;004_B -->
<g id="node9" class="node">
<title>SW&#45;004_B</title>
<polygon fill="mediumseagreen" stroke="black" points="231.05,-318 118.05,-318 88.98,-282 201.98,-282 231.05,-318"/>
<text text-anchor="middle" x="160.02" y="-298.1" font-family="Helvetica,sans-Serif" font-size="8.00">SW&#45;004_B</text>
</g>
<!-- SW&#45;004_A&#45;&gt;SW&#45;004_B -->
<g id="edge11" class="edge">
<title>SW&#45;004_A&#45;&gt;SW&#45;004_B</title>
<path fill="none" stroke="dimgray" stroke-width="0.8" d="M370.39,-394C292.02,-394 160.02,-394 160.02,-394 160.02,-394 160.02,-325.12 160.02,-325.12"/>
<polygon fill="dimgray" stroke="dimgray" stroke-width="0.8" points="162.47,-325.12 160.02,-318.12 157.57,-325.12 162.47,-325.12"/>
</g>
<!-- SW&#45;004_C -->
<g id="node11" class="node">
<title>SW&#45;004_C</title>
<polygon fill="tomato" stroke="black" points="409.05,-318 296.05,-318 266.98,-282 379.98,-282 409.05,-318"/>
<text text-anchor="middle" x="338.02" y="-298.1" font-family="Helvetica,sans-Serif" font-size="8.00">SW&#45;004_C</text>
</g>
<!-- SW&#45;004_A&#45;&gt;SW&#45;004_C -->
<g id="edge12" class="edge">
<title>SW&#45;004_A&#45;&gt;SW&#45;004_C</title>
<path fill="none" stroke="dimgray" stroke-width="0.8" d="M373.68,-375.88C373.68,-375.88 373.68,-325.07 373.68,-325.07"/>
<polygon fill="dimgray" stroke="dimgray" stroke-width="0.8" points="376.13,-325.07 373.68,-318.07 371.23,-325.07 376.13,-325.07"/>
</g>
<!-- SW&#45;004_D -->
<g id="node15" class="node">
<title>SW&#45;004_D</title>
<polygon fill="tomato" stroke="black" points="587.05,-318 474.05,-318 444.98,-282 557.98,-282 587.05,-318"/>
<text text-anchor="middle" x="516.02" y="-298.1" font-family="Helvetica,sans-Serif" font-size="8.00">SW&#45;004_D</text>
</g>
<!-- SW&#45;004_A&#45;&gt;SW&#45;004_D -->
<g id="edge13" class="edge">
<title>SW&#45;004_A&#45;&gt;SW&#45;004_D</title>
<path fill="none" stroke="dimgray" stroke-width="0.8" d="M471.52,-378.9C471.52,-378.9 471.52,-322.07 471.52,-322.07"/>
<polygon fill="dimgray" stroke="dimgray" stroke-width="0.8" points="473.97,-322.07 471.52,-315.07 469.07,-322.07 473.97,-322.07"/>
</g>
<!-- SW&#45;003_B -->
<g id="node3" class="node">
<title>SW&#45;003_B</title>
<polygon fill="mediumseagreen" stroke="black" points="231.05,-224 118.05,-224 88.98,-188 201.98,-188 231.05,-224"/>
<text text-anchor="middle" x="160.02" y="-204.1" font-family="Helvetica,sans-Serif" font-size="8.00">SW&#45;003_B</text>
</g>
<!-- SW&#45;003_C -->
<g id="node5" class="node">
<title>SW&#45;003_C</title>
<polygon fill="mediumseagreen" stroke="black" points="142.05,-130 29.05,-130 -0.02,-94 112.98,-94 142.05,-130"/>
<text text-anchor="middle" x="71.02" y="-110.1" font-family="Helvetica,sans-Serif" font-size="8.00">SW&#45;003_C</text>
</g>
<!-- SW&#45;003_B&#45;&gt;SW&#45;003_C -->
<g id="edge16" class="edge">
<title>SW&#45;003_B&#45;&gt;SW&#45;003_C</title>
<path fill="none" stroke="dimgray" stroke-width="0.8" d="M115.52,-187.88C115.52,-187.88 115.52,-137.07 115.52,-137.07"/>
<polygon fill="dimgray" stroke="dimgray" stroke-width="0.8" points="117.97,-137.07 115.52,-130.07 113.07,-137.07 117.97,-137.07"/>
</g>
<!-- SW&#45;003_A -->
<g id="node7" class="node">
<title>SW&#45;003_A</title>
<polygon fill="tomato" stroke="black" points="320.05,-130 207.05,-130 177.98,-94 290.98,-94 320.05,-130"/>
<text text-anchor="middle" x="249.02" y="-110.1" font-family="Helvetica,sans-Serif" font-size="8.00">SW&#45;003_A</text>
</g>
<!-- SW&#45;003_B&#45;&gt;SW&#45;003_A -->
<g id="edge15" class="edge">
<title>SW&#45;003_B&#45;&gt;SW&#45;003_A</title>
<path fill="none" stroke="dimgray" stroke-width="0.8" d="M204.52,-190.9C204.52,-190.9 204.52,-134.07 204.52,-134.07"/>
<polygon fill="dimgray" stroke="dimgray" stroke-width="0.8" points="206.97,-134.07 204.52,-127.07 202.07,-134.07 206.97,-134.07"/>
</g>
<!-- S&#45;2265 -->
<g id="node4" class="node">
<title>S&#45;2265</title>
<polygon fill="tomato" stroke="black" points="727.02,-224 658.52,-206 727.02,-188 795.52,-206 727.02,-224"/>
<text text-anchor="middle" x="727.02" y="-204.1" font-family="Helvetica,sans-Serif" font-size="8.00">S&#45;2265</text>
</g>
<!-- ext_circ_110_23_ -->
<g id="node21" class="node">
<title>ext_circ_110_23_</title>
<polygon fill="lightpink" stroke="red" stroke-dasharray="5,2" points="770.52,-698 633.52,-698 633.52,-662 770.52,-662 770.52,-698"/>
<text text-anchor="middle" x="702.02" y="-682.6" font-family="Helvetica,sans-Serif" font-size="8.00">Circuito:</text>
<text text-anchor="middle" x="702.02" y="-673.6" font-family="Helvetica,sans-Serif" font-size="8.00">110&#45;23&#45;</text>
</g>
<!-- S&#45;2265&#45;&gt;ext_circ_110_23_ -->
<g id="edge20" class="edge">
<title>S&#45;2265&#45;&gt;ext_circ_110_23_</title>
<path fill="none" stroke="red" stroke-width="0.8" stroke-dasharray="5,2" d="M782.53,-209.54C782.53,-252.92 782.53,-680 782.53,-680 782.53,-680 777.65,-680 777.65,-680"/>
<polygon fill="red" stroke="red" stroke-width="0.8" points="777.65,-677.55 770.65,-680 777.65,-682.45 777.65,-677.55"/>
</g>
<!-- SW&#45;006_B -->
<g id="node12" class="node">
<title>SW&#45;006_B</title>
<polygon fill="tomato" stroke="black" points="142.05,-36 29.05,-36 -0.02,0 112.98,0 142.05,-36"/>
<text text-anchor="middle" x="71.02" y="-16.1" font-family="Helvetica,sans-Serif" font-size="8.00">SW&#45;006_B</text>
</g>
<!-- SW&#45;003_C&#45;&gt;SW&#45;006_B -->
<g id="edge17" class="edge">
<title>SW&#45;003_C&#45;&gt;SW&#45;006_B</title>
<path fill="none" stroke="dimgray" stroke-width="0.8" d="M71.02,-93.88C71.02,-93.88 71.02,-43.07 71.02,-43.07"/>
<polygon fill="dimgray" stroke="dimgray" stroke-width="0.8" points="73.47,-43.07 71.02,-36.07 68.57,-43.07 73.47,-43.07"/>
</g>
<!-- SW&#45;007_D -->
<g id="node6" class="node">
<title>SW&#45;007_D</title>
<polygon fill="tomato" stroke="black" points="765.05,-318 652.05,-318 622.98,-282 735.98,-282 765.05,-318"/>
<text text-anchor="middle" x="694.02" y="-298.1" font-family="Helvetica,sans-Serif" font-size="8.00">SW&#45;007_D</text>
</g>
<!-- ext_circ_109_27_ -->
<g id="node19" class="node">
<title>ext_circ_109_27_</title>
<polygon fill="lightpink" stroke="red" stroke-dasharray="5,2" points="1142.52,-698 1005.52,-698 1005.52,-662 1142.52,-662 1142.52,-698"/>
<text text-anchor="middle" x="1074.02" y="-682.6" font-family="Helvetica,sans-Serif" font-size="8.00">Circuito:</text>
<text text-anchor="middle" x="1074.02" y="-673.6" font-family="Helvetica,sans-Serif" font-size="8.00">109&#45;27&#45;</text>
</g>
<!-- SW&#45;007_D&#45;&gt;ext_circ_109_27_ -->
<g id="edge18" class="edge">
<title>SW&#45;007_D&#45;&gt;ext_circ_109_27_</title>
<path fill="none" stroke="red" stroke-width="0.8" stroke-dasharray="5,2" d="M721.36,-318.07C721.36,-327.46 721.36,-337 721.36,-337 721.36,-337 1092.16,-337 1092.16,-337 1092.16,-337 1092.16,-654.56 1092.16,-654.56"/>
<polygon fill="red" stroke="red" stroke-width="0.8" points="1089.71,-654.56 1092.16,-661.56 1094.61,-654.56 1089.71,-654.56"/>
</g>
<!-- ext_circ__NA_ -->
<g id="node20" class="node">
<title>ext_circ__NA_</title>
<polygon fill="lightpink" stroke="red" stroke-dasharray="5,2" points="960.52,-698 823.52,-698 823.52,-662 960.52,-662 960.52,-698"/>
<text text-anchor="middle" x="892.02" y="-682.6" font-family="Helvetica,sans-Serif" font-size="8.00">Circuito:</text>
<text text-anchor="middle" x="892.02" y="-673.6" font-family="Helvetica,sans-Serif" font-size="8.00">&lt;NA&gt;</text>
</g>
<!-- SW&#45;003_A&#45;&gt;ext_circ__NA_ -->
<g id="edge23" class="edge">
<title>SW&#45;003_A&#45;&gt;ext_circ__NA_</title>
<path fill="none" stroke="red" stroke-width="0.8" stroke-dasharray="5,2" d="M249.02,-130.16C249.02,-199.13 249.02,-441 249.02,-441 249.02,-441 883.28,-441 883.28,-441 883.28,-441 883.28,-654.64 883.28,-654.64"/>
<polygon fill="red" stroke="red" stroke-width="0.8" points="880.83,-654.64 883.28,-661.64 885.73,-654.64 880.83,-654.64"/>
</g>
<!-- SW&#45;007_A -->
<g id="node8" class="node">
<title>SW&#45;007_A</title>
<polygon fill="mediumseagreen" stroke="black" points="943.05,-318 830.05,-318 800.98,-282 913.98,-282 943.05,-318"/>
<text text-anchor="middle" x="872.02" y="-298.1" font-family="Helvetica,sans-Serif" font-size="8.00">SW&#45;007_A</text>
</g>
<!-- SW&#45;007_A&#45;&gt;S&#45;2265 -->
<g id="edge9" class="edge">
<title>SW&#45;007_A&#45;&gt;S&#45;2265</title>
<path fill="none" stroke="dimgray" stroke-width="0.8" d="M810.4,-294C798.17,-294 789.02,-294 789.02,-294 789.02,-294 789.02,-214.84 789.02,-214.84"/>
<polygon fill="dimgray" stroke="dimgray" stroke-width="0.8" points="791.47,-214.84 789.02,-207.84 786.57,-214.84 791.47,-214.84"/>
</g>
<!-- SW&#45;012_B -->
<g id="node17" class="node">
<title>SW&#45;012_B</title>
<polygon fill="tomato" stroke="black" points="974.05,-224 861.05,-224 831.98,-188 944.98,-188 974.05,-224"/>
<text text-anchor="middle" x="903.02" y="-204.1" font-family="Helvetica,sans-Serif" font-size="8.00">SW&#45;012_B</text>
</g>
<!-- SW&#45;007_A&#45;&gt;SW&#45;012_B -->
<g id="edge8" class="edge">
<title>SW&#45;007_A&#45;&gt;SW&#45;012_B</title>
<path fill="none" stroke="dimgray" stroke-width="0.8" d="M887.52,-281.88C887.52,-281.88 887.52,-231.07 887.52,-231.07"/>
<polygon fill="dimgray" stroke="dimgray" stroke-width="0.8" points="889.97,-231.07 887.52,-224.07 885.07,-231.07 889.97,-231.07"/>
</g>
<!-- SW&#45;004_B&#45;&gt;SW&#45;003_B -->
<g id="edge14" class="edge">
<title>SW&#45;004_B&#45;&gt;SW&#45;003_B</title>
<path fill="none" stroke="dimgray" stroke-width="0.8" d="M160.02,-281.88C160.02,-281.88 160.02,-231.07 160.02,-231.07"/>
<polygon fill="dimgray" stroke="dimgray" stroke-width="0.8" points="162.47,-231.07 160.02,-224.07 157.57,-231.07 162.47,-231.07"/>
</g>
<!-- S&#45;309A -->
<g id="node13" class="node">
<title>S&#45;309A</title>
<polygon fill="mediumseagreen" stroke="black" points="429.02,-506 360.52,-488 429.02,-470 497.52,-488 429.02,-506"/>
<text text-anchor="middle" x="429.02" y="-486.1" font-family="Helvetica,sans-Serif" font-size="8.00">S&#45;309A</text>
</g>
<!-- S&#45;309&#45;&gt;S&#45;309A -->
<g id="edge2" class="edge">
<title>S&#45;309&#45;&gt;S&#45;309A</title>
<path fill="none" stroke="dimgray" stroke-width="0.8" d="M472.02,-575.24C472.02,-575.24 472.02,-501.95 472.02,-501.95"/>
<polygon fill="dimgray" stroke="dimgray" stroke-width="0.8" points="474.47,-501.95 472.02,-494.95 469.57,-501.95 474.47,-501.95"/>
</g>
<!-- S&#45;309B -->
<g id="node18" class="node">
<title>S&#45;309B</title>
<polygon fill="mediumseagreen" stroke="black" points="603.02,-506 534.52,-488 603.02,-470 671.52,-488 603.02,-506"/>
<text text-anchor="middle" x="603.02" y="-486.1" font-family="Helvetica,sans-Serif" font-size="8.00">S&#45;309B</text>
</g>
<!-- S&#45;309&#45;&gt;S&#45;309B -->
<g id="edge3" class="edge">
<title>S&#45;309&#45;&gt;S&#45;309B</title>
<path fill="none" stroke="dimgray" stroke-width="0.8" d="M559.02,-575.54C559.02,-575.54 559.02,-501.51 559.02,-501.51"/>
<polygon fill="dimgray" stroke="dimgray" stroke-width="0.8" points="561.47,-501.51 559.02,-494.51 556.57,-501.51 561.47,-501.51"/>
</g>
<!-- SW&#45;004_C&#45;&gt;ext_circ_109_27_ -->
<g id="edge21" class="edge">
<title>SW&#45;004_C&#45;&gt;ext_circ_109_27_</title>
<path fill="none" stroke="red" stroke-width="0.8" stroke-dasharray="5,2" d="M391.36,-318.03C391.36,-334.4 391.36,-356 391.36,-356 391.36,-356 1063.28,-356 1063.28,-356 1063.28,-356 1063.28,-654.65 1063.28,-654.65"/>
<polygon fill="red" stroke="red" stroke-width="0.8" points="1060.83,-654.65 1063.28,-661.65 1065.73,-654.65 1060.83,-654.65"/>
</g>
<!-- SW&#45;006_B&#45;&gt;ext_circ_110_23_ -->
<g id="edge24" class="edge">
<title>SW&#45;006_B&#45;&gt;ext_circ_110_23_</title>
<path fill="none" stroke="red" stroke-width="0.8" stroke-dasharray="5,2" d="M127.66,-18C265.09,-18 605.02,-18 605.02,-18 605.02,-18 605.02,-455 605.02,-455 605.02,-455 721.02,-455 721.02,-455 721.02,-455 721.02,-654.97 721.02,-654.97"/>
<polygon fill="red" stroke="red" stroke-width="0.8" points="718.57,-654.97 721.02,-661.97 723.47,-654.97 718.57,-654.97"/>
</g>
<!-- S&#45;309A&#45;&gt;SW&#45;004_A -->
<g id="edge10" class="edge">
<title>S&#45;309A&#45;&gt;SW&#45;004_A</title>
<path fill="none" stroke="dimgray" stroke-width="0.8" d="M429.02,-469.88C429.02,-469.88 429.02,-419.07 429.02,-419.07"/>
<polygon fill="dimgray" stroke="dimgray" stroke-width="0.8" points="431.47,-419.07 429.02,-412.07 426.57,-419.07 431.47,-419.07"/>
</g>
<!-- SW&#45;007_B -->
<g id="node14" class="node">
<title>SW&#45;007_B</title>
<polygon fill="mediumseagreen" stroke="black" points="1121.05,-318 1008.05,-318 978.98,-282 1091.98,-282 1121.05,-318"/>
<text text-anchor="middle" x="1050.02" y="-298.1" font-family="Helvetica,sans-Serif" font-size="8.00">SW&#45;007_B</text>
</g>
<!-- SW&#45;004_D&#45;&gt;ext_circ_109_27_ -->
<g id="edge22" class="edge">
<title>SW&#45;004_D&#45;&gt;ext_circ_109_27_</title>
<path fill="none" stroke="red" stroke-width="0.8" stroke-dasharray="5,2" d="M560.78,-318.05C560.78,-352.89 560.78,-426 560.78,-426 560.78,-426 1034.4,-426 1034.4,-426 1034.4,-426 1034.4,-654.73 1034.4,-654.73"/>
<polygon fill="red" stroke="red" stroke-width="0.8" points="1031.95,-654.73 1034.4,-661.73 1036.85,-654.73 1031.95,-654.73"/>
</g>
<!-- SW&#45;007_C -->
<g id="node16" class="node">
<title>SW&#45;007_C</title>
<polygon fill="mediumseagreen" stroke="black" points="776.05,-412 663.05,-412 633.98,-376 746.98,-376 776.05,-412"/>
<text text-anchor="middle" x="705.02" y="-392.1" font-family="Helvetica,sans-Serif" font-size="8.00">SW&#45;007_C</text>
</g>
<!-- SW&#45;007_C&#45;&gt;SW&#45;007_D -->
<g id="edge7" class="edge">
<title>SW&#45;007_C&#45;&gt;SW&#45;007_D</title>
<path fill="none" stroke="dimgray" stroke-width="0.8" d="M677.68,-375.88C677.68,-375.88 677.68,-325.07 677.68,-325.07"/>
<polygon fill="dimgray" stroke="dimgray" stroke-width="0.8" points="680.13,-325.07 677.68,-318.07 675.23,-325.07 680.13,-325.07"/>
</g>
<!-- SW&#45;007_C&#45;&gt;SW&#45;007_A -->
<g id="edge5" class="edge">
<title>SW&#45;007_C&#45;&gt;SW&#45;007_A</title>
<path fill="none" stroke="dimgray" stroke-width="0.8" d="M770.54,-393.94C770.54,-391.27 770.54,-306 770.54,-306 770.54,-306 813.09,-306 813.09,-306"/>
<polygon fill="dimgray" stroke="dimgray" stroke-width="0.8" points="813.09,-308.45 820.09,-306 813.09,-303.55 813.09,-308.45"/>
</g>
<!-- SW&#45;007_C&#45;&gt;SW&#45;007_B -->
<g id="edge6" class="edge">
<title>SW&#45;007_C&#45;&gt;SW&#45;007_B</title>
<path fill="none" stroke="dimgray" stroke-width="0.8" d="M761.77,-394C845.48,-394 992.26,-394 992.26,-394 992.26,-394 992.26,-307.07 992.26,-307.07"/>
<polygon fill="dimgray" stroke="dimgray" stroke-width="0.8" points="994.71,-307.07 992.26,-300.07 989.81,-307.07 994.71,-307.07"/>
</g>
<!-- SW&#45;012_B&#45;&gt;ext_circ__NA_ -->
<g id="edge19" class="edge">
<title>SW&#45;012_B&#45;&gt;ext_circ__NA_</title>
<path fill="none" stroke="red" stroke-width="0.8" stroke-dasharray="5,2" d="M951.78,-224C951.78,-224 951.78,-654.98 951.78,-654.98"/>
<polygon fill="red" stroke="red" stroke-width="0.8" points="949.33,-654.98 951.78,-661.98 954.23,-654.98 949.33,-654.98"/>
</g>
<!-- S&#45;309B&#45;&gt;SW&#45;007_C -->
<g id="edge4" class="edge">
<title>S&#45;309B&#45;&gt;SW&#45;007_C</title>
<path fill="none" stroke="dimgray" stroke-width="0.8" d="M652.76,-482.95C652.76,-482.95 652.76,-406.55 652.76,-406.55"/>
<polygon fill="dimgray" stroke="dimgray" stroke-width="0.8" points="655.21,-406.55 652.76,-399.55 650.31,-406.55 655.21,-406.55"/>
</g>
</g>
</svg>
