<?xml version="1.0" encoding="UTF-8" standalone="no"?>
<!DOCTYPE svg PUBLIC "-//W3C//DTD SVG 1.1//EN"
 "http://www.w3.org/Graphics/SVG/1.1/DTD/svg11.dtd">
<!-- Generated by graphviz version 2.50.0 (0)
 -->
<!-- Title: Grafo_Circuito_112_24_ Pages: 1 -->
<svg width="3016pt" height="1776pt"
 viewBox="0.00 0.00 3016.00 1776.00" xmlns="http://www.w3.org/2000/svg" xmlns:xlink="http://www.w3.org/1999/xlink">
<g id="graph0" class="graph" transform="scale(1 1) rotate(0) translate(4 1772)">
<title>Grafo_Circuito_112_24_</title>
<polygon fill="white" stroke="transparent" points="-4,4 -4,-1772 3012,-1772 3012,4 -4,4"/>
<!-- S&#45;2524 -->
<g id="node1" class="node">
<title>S&#45;2524</title>
<polygon fill="mediumseagreen" stroke="black" points="1676,-1255 1604,-1233.5 1676,-1212 1748,-1233.5 1676,-1255"/>
<text text-anchor="middle" x="1676" y="-1231" font-family="Arial" font-size="10.00">S&#45;2524</text>
</g>
<!-- C&#45;1071 -->
<g id="node2" class="node">
<title>C&#45;1071</title>
<ellipse fill="mediumseagreen" stroke="black" cx="252" cy="-627.5" rx="72" ry="21.5"/>
<text text-anchor="middle" x="252" y="-625" font-family="Arial" font-size="10.00">C&#45;1071</text>
</g>
<!-- R&#45;260 -->
<g id="node63" class="node">
<title>R&#45;260</title>
<polygon fill="mediumseagreen" stroke="black" points="324,-517.59 324,-535.41 281.82,-548 222.18,-548 180,-535.41 180,-517.59 222.18,-505 281.82,-505 324,-517.59"/>
<text text-anchor="middle" x="252" y="-524" font-family="Arial" font-size="10.00">R&#45;260</text>
</g>
<!-- C&#45;1071&#45;&gt;R&#45;260 -->
<g id="edge27" class="edge">
<title>C&#45;1071&#45;&gt;R&#45;260</title>
<path fill="none" stroke="#4d4d4d" d="M252,-605.58C252,-605.58 252,-555.03 252,-555.03"/>
<polygon fill="#4d4d4d" stroke="#4d4d4d" points="254.45,-555.03 252,-548.03 249.55,-555.03 254.45,-555.03"/>
</g>
<!-- S&#45;1196 -->
<g id="node3" class="node">
<title>S&#45;1196</title>
<polygon fill="mediumseagreen" stroke="black" points="72,-245 0,-223.5 72,-202 144,-223.5 72,-245"/>
<text text-anchor="middle" x="72" y="-221" font-family="Arial" font-size="10.00">S&#45;1196</text>
</g>
<!-- C&#45;1073 -->
<g id="node4" class="node">
<title>C&#45;1073</title>
<ellipse fill="mediumseagreen" stroke="black" cx="252" cy="-425.5" rx="72" ry="21.5"/>
<text text-anchor="middle" x="252" y="-423" font-family="Arial" font-size="10.00">C&#45;1073</text>
</g>
<!-- C&#45;0621 -->
<g id="node43" class="node">
<title>C&#45;0621</title>
<ellipse fill="mediumseagreen" stroke="black" cx="252" cy="-324.5" rx="72" ry="21.5"/>
<text text-anchor="middle" x="252" y="-322" font-family="Arial" font-size="10.00">C&#45;0621</text>
</g>
<!-- C&#45;1073&#45;&gt;C&#45;0621 -->
<g id="edge29" class="edge">
<title>C&#45;1073&#45;&gt;C&#45;0621</title>
<path fill="none" stroke="#4d4d4d" d="M252,-403.58C252,-403.58 252,-353.03 252,-353.03"/>
<polygon fill="#4d4d4d" stroke="#4d4d4d" points="254.45,-353.03 252,-346.03 249.55,-353.03 254.45,-353.03"/>
</g>
<!-- S&#45;2448 -->
<g id="node5" class="node">
<title>S&#45;2448</title>
<polygon fill="mediumseagreen" stroke="black" points="882,-851 810,-829.5 882,-808 954,-829.5 882,-851"/>
<text text-anchor="middle" x="882" y="-827" font-family="Arial" font-size="10.00">S&#45;2448</text>
</g>
<!-- S&#45;2312 -->
<g id="node36" class="node">
<title>S&#45;2312</title>
<polygon fill="mediumseagreen" stroke="black" points="792,-750 720,-728.5 792,-707 864,-728.5 792,-750"/>
<text text-anchor="middle" x="792" y="-726" font-family="Arial" font-size="10.00">S&#45;2312</text>
</g>
<!-- S&#45;2448&#45;&gt;S&#45;2312 -->
<g id="edge40" class="edge">
<title>S&#45;2448&#45;&gt;S&#45;2312</title>
<path fill="none" stroke="#4d4d4d" d="M837,-821.23C837,-821.23 837,-743.6 837,-743.6"/>
<polygon fill="#4d4d4d" stroke="#4d4d4d" points="839.45,-743.6 837,-736.6 834.55,-743.6 839.45,-743.6"/>
</g>
<!-- S&#45;2512 -->
<g id="node6" class="node">
<title>S&#45;2512</title>
<polygon fill="mediumseagreen" stroke="black" points="1242,-851 1170,-829.5 1242,-808 1314,-829.5 1242,-851"/>
<text text-anchor="middle" x="1242" y="-827" font-family="Arial" font-size="10.00">S&#45;2512</text>
</g>
<!-- S&#45;007 -->
<g id="node7" class="node">
<title>S&#45;007</title>
<polygon fill="mediumseagreen" stroke="black" points="1856,-1255 1784,-1233.5 1856,-1212 1928,-1233.5 1856,-1255"/>
<text text-anchor="middle" x="1856" y="-1231" font-family="Arial" font-size="10.00">S&#45;007</text>
</g>
<!-- S&#45;2107 -->
<g id="node61" class="node">
<title>S&#45;2107</title>
<polygon fill="mediumseagreen" stroke="black" points="1766,-1154 1694,-1132.5 1766,-1111 1838,-1132.5 1766,-1154"/>
<text text-anchor="middle" x="1766" y="-1130" font-family="Arial" font-size="10.00">S&#45;2107</text>
</g>
<!-- S&#45;007&#45;&gt;S&#45;2107 -->
<g id="edge57" class="edge">
<title>S&#45;007&#45;&gt;S&#45;2107</title>
<path fill="none" stroke="#4d4d4d" d="M1811,-1225.23C1811,-1225.23 1811,-1147.6 1811,-1147.6"/>
<polygon fill="#4d4d4d" stroke="#4d4d4d" points="1813.45,-1147.6 1811,-1140.6 1808.55,-1147.6 1813.45,-1147.6"/>
</g>
<!-- S&#45;2544 -->
<g id="node62" class="node">
<title>S&#45;2544</title>
<polygon fill="mediumseagreen" stroke="black" points="1946,-1154 1874,-1132.5 1946,-1111 2018,-1132.5 1946,-1154"/>
<text text-anchor="middle" x="1946" y="-1130" font-family="Arial" font-size="10.00">S&#45;2544</text>
</g>
<!-- S&#45;007&#45;&gt;S&#45;2544 -->
<g id="edge58" class="edge">
<title>S&#45;007&#45;&gt;S&#45;2544</title>
<path fill="none" stroke="#4d4d4d" d="M1901,-1225.23C1901,-1225.23 1901,-1147.6 1901,-1147.6"/>
<polygon fill="#4d4d4d" stroke="#4d4d4d" points="1903.45,-1147.6 1901,-1140.6 1898.55,-1147.6 1903.45,-1147.6"/>
</g>
<!-- S&#45;2178 -->
<g id="node8" class="node">
<title>S&#45;2178</title>
<polygon fill="mediumseagreen" stroke="black" points="1240,-1558 1168,-1536.5 1240,-1515 1312,-1536.5 1240,-1558"/>
<text text-anchor="middle" x="1240" y="-1534" font-family="Arial" font-size="10.00">S&#45;2178</text>
</g>
<!-- S&#45;1802 -->
<g id="node9" class="node">
<title>S&#45;1802</title>
<polygon fill="mediumseagreen" stroke="black" points="2036,-1255 1964,-1233.5 2036,-1212 2108,-1233.5 2036,-1255"/>
<text text-anchor="middle" x="2036" y="-1231" font-family="Arial" font-size="10.00">S&#45;1802</text>
</g>
<!-- R&#45;068 -->
<g id="node10" class="node">
<title>R&#45;068</title>
<polygon fill="mediumseagreen" stroke="black" points="1134,-1224.59 1134,-1242.41 1091.82,-1255 1032.18,-1255 990,-1242.41 990,-1224.59 1032.18,-1212 1091.82,-1212 1134,-1224.59"/>
<text text-anchor="middle" x="1062" y="-1231" font-family="Arial" font-size="10.00">R&#45;068</text>
</g>
<!-- C&#45;1270 -->
<g id="node48" class="node">
<title>C&#45;1270</title>
<ellipse fill="mediumseagreen" stroke="black" cx="1062" cy="-1132.5" rx="72" ry="21.5"/>
<text text-anchor="middle" x="1062" y="-1130" font-family="Arial" font-size="10.00">C&#45;1270</text>
</g>
<!-- R&#45;068&#45;&gt;C&#45;1270 -->
<g id="edge8" class="edge">
<title>R&#45;068&#45;&gt;C&#45;1270</title>
<path fill="none" stroke="#4d4d4d" d="M1038,-1211.58C1038,-1211.58 1038,-1160 1038,-1160"/>
<polygon fill="#4d4d4d" stroke="#4d4d4d" points="1040.45,-1160 1038,-1153 1035.55,-1160 1040.45,-1160"/>
</g>
<!-- S&#45;030 -->
<g id="node11" class="node">
<title>S&#45;030</title>
<polygon fill="mediumseagreen" stroke="black" points="1242,-1255 1170,-1233.5 1242,-1212 1314,-1233.5 1242,-1255"/>
<text text-anchor="middle" x="1242" y="-1231" font-family="Arial" font-size="10.00">S&#45;030</text>
</g>
<!-- S&#45;022 -->
<g id="node31" class="node">
<title>S&#45;022</title>
<polygon fill="mediumseagreen" stroke="black" points="1242,-1154 1170,-1132.5 1242,-1111 1314,-1132.5 1242,-1154"/>
<text text-anchor="middle" x="1242" y="-1130" font-family="Arial" font-size="10.00">S&#45;022</text>
</g>
<!-- S&#45;030&#45;&gt;S&#45;022 -->
<g id="edge47" class="edge">
<title>S&#45;030&#45;&gt;S&#45;022</title>
<path fill="none" stroke="#4d4d4d" d="M1242,-1211.58C1242,-1211.58 1242,-1161.03 1242,-1161.03"/>
<polygon fill="#4d4d4d" stroke="#4d4d4d" points="1244.45,-1161.03 1242,-1154.03 1239.55,-1161.03 1244.45,-1161.03"/>
</g>
<!-- C&#45;0019 -->
<g id="node12" class="node">
<title>C&#45;0019</title>
<ellipse fill="mediumseagreen" stroke="black" cx="1420" cy="-1536.5" rx="72" ry="21.5"/>
<text text-anchor="middle" x="1420" y="-1534" font-family="Arial" font-size="10.00">C&#45;0019</text>
</g>
<!-- C&#45;1234 -->
<g id="node19" class="node">
<title>C&#45;1234</title>
<ellipse fill="mediumseagreen" stroke="black" cx="1330" cy="-1435.5" rx="72" ry="21.5"/>
<text text-anchor="middle" x="1330" y="-1433" font-family="Arial" font-size="10.00">C&#45;1234</text>
</g>
<!-- C&#45;0019&#45;&gt;C&#45;1234 -->
<g id="edge4" class="edge">
<title>C&#45;0019&#45;&gt;C&#45;1234</title>
<path fill="none" stroke="#4d4d4d" d="M1375,-1519.37C1375,-1519.37 1375,-1459.38 1375,-1459.38"/>
<polygon fill="#4d4d4d" stroke="#4d4d4d" points="1377.45,-1459.38 1375,-1452.38 1372.55,-1459.38 1377.45,-1459.38"/>
</g>
<!-- R&#45;135 -->
<g id="node13" class="node">
<title>R&#45;135</title>
<polygon fill="mediumseagreen" stroke="black" points="2111,-1426.59 2111,-1444.41 2068.82,-1457 2009.18,-1457 1967,-1444.41 1967,-1426.59 2009.18,-1414 2068.82,-1414 2111,-1426.59"/>
<text text-anchor="middle" x="2039" y="-1433" font-family="Arial" font-size="10.00">R&#45;135</text>
</g>
<!-- C&#45;0397 -->
<g id="node37" class="node">
<title>C&#45;0397</title>
<ellipse fill="mediumseagreen" stroke="black" cx="2126" cy="-1334.5" rx="72" ry="21.5"/>
<text text-anchor="middle" x="2126" y="-1332" font-family="Arial" font-size="10.00">C&#45;0397</text>
</g>
<!-- R&#45;135&#45;&gt;C&#45;0397 -->
<g id="edge51" class="edge">
<title>R&#45;135&#45;&gt;C&#45;0397</title>
<path fill="none" stroke="#4d4d4d" d="M2082.5,-1417.91C2082.5,-1417.91 2082.5,-1358.89 2082.5,-1358.89"/>
<polygon fill="#4d4d4d" stroke="#4d4d4d" points="2084.95,-1358.89 2082.5,-1351.89 2080.05,-1358.89 2084.95,-1358.89"/>
</g>
<!-- S&#45;020 -->
<g id="node14" class="node">
<title>S&#45;020</title>
<polygon fill="mediumseagreen" stroke="black" points="1496,-1255 1424,-1233.5 1496,-1212 1568,-1233.5 1496,-1255"/>
<text text-anchor="middle" x="1496" y="-1231" font-family="Arial" font-size="10.00">S&#45;020</text>
</g>
<!-- C&#45;1269 -->
<g id="node15" class="node">
<title>C&#45;1269</title>
<ellipse fill="mediumseagreen" stroke="black" cx="1062" cy="-1334.5" rx="72" ry="21.5"/>
<text text-anchor="middle" x="1062" y="-1332" font-family="Arial" font-size="10.00">C&#45;1269</text>
</g>
<!-- C&#45;1269&#45;&gt;R&#45;068 -->
<g id="edge7" class="edge">
<title>C&#45;1269&#45;&gt;R&#45;068</title>
<path fill="none" stroke="#4d4d4d" d="M1062,-1312.58C1062,-1312.58 1062,-1262.03 1062,-1262.03"/>
<polygon fill="#4d4d4d" stroke="#4d4d4d" points="1064.45,-1262.03 1062,-1255.03 1059.55,-1262.03 1064.45,-1262.03"/>
</g>
<!-- S&#45;313 -->
<g id="node16" class="node">
<title>S&#45;313</title>
<polygon fill="mediumseagreen" stroke="black" points="432,-649 360,-627.5 432,-606 504,-627.5 432,-649"/>
<text text-anchor="middle" x="432" y="-625" font-family="Arial" font-size="10.00">S&#45;313</text>
</g>
<!-- S&#45;1202 -->
<g id="node17" class="node">
<title>S&#45;1202</title>
<polygon fill="mediumseagreen" stroke="black" points="2216,-1255 2144,-1233.5 2216,-1212 2288,-1233.5 2216,-1255"/>
<text text-anchor="middle" x="2216" y="-1231" font-family="Arial" font-size="10.00">S&#45;1202</text>
</g>
<!-- C&#45;0830 -->
<g id="node27" class="node">
<title>C&#45;0830</title>
<ellipse fill="tomato" stroke="black" cx="2171" cy="-1132.5" rx="72" ry="21.5"/>
<text text-anchor="middle" x="2171" y="-1130" font-family="Arial" font-size="10.00">C&#45;0830</text>
</g>
<!-- S&#45;1202&#45;&gt;C&#45;0830 -->
<g id="edge60" class="edge">
<title>S&#45;1202&#45;&gt;C&#45;0830</title>
<path fill="none" stroke="#4d4d4d" d="M2193.5,-1218.6C2193.5,-1218.6 2193.5,-1160.07 2193.5,-1160.07"/>
<polygon fill="#4d4d4d" stroke="#4d4d4d" points="2195.95,-1160.07 2193.5,-1153.07 2191.05,-1160.07 2195.95,-1160.07"/>
</g>
<!-- C&#45;0829 -->
<g id="node32" class="node">
<title>C&#45;0829</title>
<ellipse fill="mediumseagreen" stroke="black" cx="2351" cy="-1132.5" rx="72" ry="21.5"/>
<text text-anchor="middle" x="2351" y="-1130" font-family="Arial" font-size="10.00">C&#45;0829</text>
</g>
<!-- S&#45;1202&#45;&gt;C&#45;0829 -->
<g id="edge59" class="edge">
<title>S&#45;1202&#45;&gt;C&#45;0829</title>
<path fill="none" stroke="#4d4d4d" d="M2283.5,-1232.07C2283.5,-1232.07 2283.5,-1147.01 2283.5,-1147.01"/>
<polygon fill="#4d4d4d" stroke="#4d4d4d" points="2285.95,-1147.01 2283.5,-1140.01 2281.05,-1147.01 2285.95,-1147.01"/>
</g>
<!-- S&#45;1371 -->
<g id="node18" class="node">
<title>S&#45;1371</title>
<polygon fill="mediumseagreen" stroke="black" points="612,-649 540,-627.5 612,-606 684,-627.5 612,-649"/>
<text text-anchor="middle" x="612" y="-625" font-family="Arial" font-size="10.00">S&#45;1371</text>
</g>
<!-- S&#45;1905 -->
<g id="node21" class="node">
<title>S&#45;1905</title>
<polygon fill="mediumseagreen" stroke="black" points="612,-548 540,-526.5 612,-505 684,-526.5 612,-548"/>
<text text-anchor="middle" x="612" y="-524" font-family="Arial" font-size="10.00">S&#45;1905</text>
</g>
<!-- S&#45;1371&#45;&gt;S&#45;1905 -->
<g id="edge19" class="edge">
<title>S&#45;1371&#45;&gt;S&#45;1905</title>
<path fill="none" stroke="#4d4d4d" d="M612,-605.58C612,-605.58 612,-555.03 612,-555.03"/>
<polygon fill="#4d4d4d" stroke="#4d4d4d" points="614.45,-555.03 612,-548.03 609.55,-555.03 614.45,-555.03"/>
</g>
<!-- C&#45;1234&#45;&gt;C&#45;1269 -->
<g id="edge6" class="edge">
<title>C&#45;1234&#45;&gt;C&#45;1269</title>
<path fill="none" stroke="#4d4d4d" d="M1257.83,-1435C1178.45,-1435 1062,-1435 1062,-1435 1062,-1435 1062,-1363.31 1062,-1363.31"/>
<polygon fill="#4d4d4d" stroke="#4d4d4d" points="1064.45,-1363.31 1062,-1356.31 1059.55,-1363.31 1064.45,-1363.31"/>
</g>
<!-- S&#45;021 -->
<g id="node30" class="node">
<title>S&#45;021</title>
<polygon fill="mediumseagreen" stroke="black" points="1242,-1356 1170,-1334.5 1242,-1313 1314,-1334.5 1242,-1356"/>
<text text-anchor="middle" x="1242" y="-1332" font-family="Arial" font-size="10.00">S&#45;021</text>
</g>
<!-- C&#45;1234&#45;&gt;S&#45;021 -->
<g id="edge45" class="edge">
<title>C&#45;1234&#45;&gt;S&#45;021</title>
<path fill="none" stroke="#4d4d4d" d="M1286,-1418.37C1286,-1418.37 1286,-1350.03 1286,-1350.03"/>
<polygon fill="#4d4d4d" stroke="#4d4d4d" points="1288.45,-1350.03 1286,-1343.03 1283.55,-1350.03 1288.45,-1350.03"/>
</g>
<!-- C&#45;1271 -->
<g id="node42" class="node">
<title>C&#45;1271</title>
<ellipse fill="tomato" stroke="black" cx="1422" cy="-1334.5" rx="72" ry="21.5"/>
<text text-anchor="middle" x="1422" y="-1332" font-family="Arial" font-size="10.00">C&#45;1271</text>
</g>
<!-- C&#45;1234&#45;&gt;C&#45;1271 -->
<g id="edge5" class="edge">
<title>C&#45;1234&#45;&gt;C&#45;1271</title>
<path fill="none" stroke="#4d4d4d" d="M1376,-1418.82C1376,-1418.82 1376,-1358.2 1376,-1358.2"/>
<polygon fill="#4d4d4d" stroke="#4d4d4d" points="1378.45,-1358.2 1376,-1351.2 1373.55,-1358.2 1378.45,-1358.2"/>
</g>
<!-- S&#45;026 -->
<g id="node20" class="node">
<title>S&#45;026</title>
<polygon fill="mediumseagreen" stroke="black" points="972,-750 900,-728.5 972,-707 1044,-728.5 972,-750"/>
<text text-anchor="middle" x="972" y="-726" font-family="Arial" font-size="10.00">S&#45;026</text>
</g>
<!-- S&#45;026&#45;&gt;C&#45;1071 -->
<g id="edge26" class="edge">
<title>S&#45;026&#45;&gt;C&#45;1071</title>
<path fill="none" stroke="#4d4d4d" d="M920.57,-722.33C920.57,-713.42 920.57,-698 920.57,-698 920.57,-698 252,-698 252,-698 252,-698 252,-656.04 252,-656.04"/>
<polygon fill="#4d4d4d" stroke="#4d4d4d" points="254.45,-656.04 252,-649.04 249.55,-656.04 254.45,-656.04"/>
</g>
<!-- S&#45;026&#45;&gt;S&#45;313 -->
<g id="edge38" class="edge">
<title>S&#45;026&#45;&gt;S&#45;313</title>
<path fill="none" stroke="#4d4d4d" d="M941.14,-715.79C941.14,-702.03 941.14,-682 941.14,-682 941.14,-682 432,-682 432,-682 432,-682 432,-656.04 432,-656.04"/>
<polygon fill="#4d4d4d" stroke="#4d4d4d" points="434.45,-656.04 432,-649.04 429.55,-656.04 434.45,-656.04"/>
</g>
<!-- S&#45;026&#45;&gt;S&#45;1371 -->
<g id="edge18" class="edge">
<title>S&#45;026&#45;&gt;S&#45;1371</title>
<path fill="none" stroke="#4d4d4d" d="M961.71,-709.71C961.71,-688.53 961.71,-657 961.71,-657 961.71,-657 657,-657 657,-657 657,-657 657,-642.87 657,-642.87"/>
<polygon fill="#4d4d4d" stroke="#4d4d4d" points="659.45,-642.87 657,-635.87 654.55,-642.87 659.45,-642.87"/>
</g>
<!-- S&#45;029 -->
<g id="node24" class="node">
<title>S&#45;029</title>
<polygon fill="mediumseagreen" stroke="black" points="792,-649 720,-627.5 792,-606 864,-627.5 792,-649"/>
<text text-anchor="middle" x="792" y="-625" font-family="Arial" font-size="10.00">S&#45;029</text>
</g>
<!-- S&#45;026&#45;&gt;S&#45;029 -->
<g id="edge20" class="edge">
<title>S&#45;026&#45;&gt;S&#45;029</title>
<path fill="none" stroke="#4d4d4d" d="M901.47,-728C886.96,-728 876,-728 876,-728 876,-728 876,-634 876,-634 876,-634 849.32,-634 849.32,-634"/>
<polygon fill="#4d4d4d" stroke="#4d4d4d" points="849.32,-631.55 842.32,-634 849.32,-636.45 849.32,-631.55"/>
</g>
<!-- S&#45;2200 -->
<g id="node33" class="node">
<title>S&#45;2200</title>
<polygon fill="mediumseagreen" stroke="black" points="972,-649 900,-627.5 972,-606 1044,-627.5 972,-649"/>
<text text-anchor="middle" x="972" y="-625" font-family="Arial" font-size="10.00">S&#45;2200</text>
</g>
<!-- S&#45;026&#45;&gt;S&#45;2200 -->
<g id="edge17" class="edge">
<title>S&#45;026&#45;&gt;S&#45;2200</title>
<path fill="none" stroke="#4d4d4d" d="M982.29,-709.98C982.29,-709.98 982.29,-653.25 982.29,-653.25"/>
<polygon fill="#4d4d4d" stroke="#4d4d4d" points="984.74,-653.25 982.29,-646.25 979.84,-653.25 984.74,-653.25"/>
</g>
<!-- S&#45;1864 -->
<g id="node38" class="node">
<title>S&#45;1864</title>
<polygon fill="mediumseagreen" stroke="black" points="1152,-649 1080,-627.5 1152,-606 1224,-627.5 1152,-649"/>
<text text-anchor="middle" x="1152" y="-625" font-family="Arial" font-size="10.00">S&#45;1864</text>
</g>
<!-- S&#45;026&#45;&gt;S&#45;1864 -->
<g id="edge23" class="edge">
<title>S&#45;026&#45;&gt;S&#45;1864</title>
<path fill="none" stroke="#4d4d4d" d="M1042.47,-728C1053.86,-728 1062,-728 1062,-728 1062,-728 1062,-627 1062,-627 1062,-627 1074.53,-627 1074.53,-627"/>
<polygon fill="#4d4d4d" stroke="#4d4d4d" points="1074.53,-629.45 1081.53,-627 1074.53,-624.55 1074.53,-629.45"/>
</g>
<!-- S&#45;2338 -->
<g id="node52" class="node">
<title>S&#45;2338</title>
<polygon fill="mediumseagreen" stroke="black" points="1332,-649 1260,-627.5 1332,-606 1404,-627.5 1332,-649"/>
<text text-anchor="middle" x="1332" y="-625" font-family="Arial" font-size="10.00">S&#45;2338</text>
</g>
<!-- S&#45;026&#45;&gt;S&#45;2338 -->
<g id="edge25" class="edge">
<title>S&#45;026&#45;&gt;S&#45;2338</title>
<path fill="none" stroke="#4d4d4d" d="M1002.86,-715.95C1002.86,-697.45 1002.86,-665 1002.86,-665 1002.86,-665 1332,-665 1332,-665 1332,-665 1332,-656.31 1332,-656.31"/>
<polygon fill="#4d4d4d" stroke="#4d4d4d" points="1334.45,-656.31 1332,-649.31 1329.55,-656.31 1334.45,-656.31"/>
</g>
<!-- C&#45;1072 -->
<g id="node60" class="node">
<title>C&#45;1072</title>
<ellipse fill="tomato" stroke="black" cx="1512" cy="-627.5" rx="72" ry="21.5"/>
<text text-anchor="middle" x="1512" y="-625" font-family="Arial" font-size="10.00">C&#45;1072</text>
</g>
<!-- S&#45;026&#45;&gt;C&#45;1072 -->
<g id="edge24" class="edge">
<title>S&#45;026&#45;&gt;C&#45;1072</title>
<path fill="none" stroke="#4d4d4d" d="M1023.43,-722.13C1023.43,-707.56 1023.43,-673 1023.43,-673 1023.43,-673 1467,-673 1467,-673 1467,-673 1467,-651.44 1467,-651.44"/>
<polygon fill="#4d4d4d" stroke="#4d4d4d" points="1469.45,-651.44 1467,-644.44 1464.55,-651.44 1469.45,-651.44"/>
</g>
<!-- S&#45;2517 -->
<g id="node22" class="node">
<title>S&#45;2517</title>
<polygon fill="mediumseagreen" stroke="black" points="342,-43 270,-21.5 342,0 414,-21.5 342,-43"/>
<text text-anchor="middle" x="342" y="-19" font-family="Arial" font-size="10.00">S&#45;2517</text>
</g>
<!-- S&#45;1195 -->
<g id="node23" class="node">
<title>S&#45;1195</title>
<polygon fill="mediumseagreen" stroke="black" points="1510,-1659 1438,-1637.5 1510,-1616 1582,-1637.5 1510,-1659"/>
<text text-anchor="middle" x="1510" y="-1635" font-family="Arial" font-size="10.00">S&#45;1195</text>
</g>
<!-- S&#45;1195&#45;&gt;S&#45;2178 -->
<g id="edge2" class="edge">
<title>S&#45;1195&#45;&gt;S&#45;2178</title>
<path fill="none" stroke="#4d4d4d" d="M1439.51,-1637C1366.81,-1637 1264,-1637 1264,-1637 1264,-1637 1264,-1557.9 1264,-1557.9"/>
<polygon fill="#4d4d4d" stroke="#4d4d4d" points="1266.45,-1557.9 1264,-1550.9 1261.55,-1557.9 1266.45,-1557.9"/>
</g>
<!-- S&#45;1195&#45;&gt;C&#45;0019 -->
<g id="edge3" class="edge">
<title>S&#45;1195&#45;&gt;C&#45;0019</title>
<path fill="none" stroke="#4d4d4d" d="M1465,-1629.23C1465,-1629.23 1465,-1560.52 1465,-1560.52"/>
<polygon fill="#4d4d4d" stroke="#4d4d4d" points="1467.45,-1560.52 1465,-1553.52 1462.55,-1560.52 1467.45,-1560.52"/>
</g>
<!-- C&#45;0395 -->
<g id="node53" class="node">
<title>C&#45;0395</title>
<ellipse fill="tomato" stroke="black" cx="1600" cy="-1536.5" rx="72" ry="21.5"/>
<text text-anchor="middle" x="1600" y="-1534" font-family="Arial" font-size="10.00">C&#45;0395</text>
</g>
<!-- S&#45;1195&#45;&gt;C&#45;0395 -->
<g id="edge49" class="edge">
<title>S&#45;1195&#45;&gt;C&#45;0395</title>
<path fill="none" stroke="#4d4d4d" d="M1555,-1629.23C1555,-1629.23 1555,-1560.52 1555,-1560.52"/>
<polygon fill="#4d4d4d" stroke="#4d4d4d" points="1557.45,-1560.52 1555,-1553.52 1552.55,-1560.52 1557.45,-1560.52"/>
</g>
<!-- C&#45;0396 -->
<g id="node66" class="node">
<title>C&#45;0396</title>
<ellipse fill="mediumseagreen" stroke="black" cx="1952" cy="-1536.5" rx="72" ry="21.5"/>
<text text-anchor="middle" x="1952" y="-1534" font-family="Arial" font-size="10.00">C&#45;0396</text>
</g>
<!-- S&#45;1195&#45;&gt;C&#45;0396 -->
<g id="edge48" class="edge">
<title>S&#45;1195&#45;&gt;C&#45;0396</title>
<path fill="none" stroke="#4d4d4d" d="M1580.52,-1637C1705.31,-1637 1952,-1637 1952,-1637 1952,-1637 1952,-1565.31 1952,-1565.31"/>
<polygon fill="#4d4d4d" stroke="#4d4d4d" points="1954.45,-1565.31 1952,-1558.31 1949.55,-1565.31 1954.45,-1565.31"/>
</g>
<!-- S&#45;1688 -->
<g id="node26" class="node">
<title>S&#45;1688</title>
<polygon fill="mediumseagreen" stroke="black" points="792,-548 720,-526.5 792,-505 864,-526.5 792,-548"/>
<text text-anchor="middle" x="792" y="-524" font-family="Arial" font-size="10.00">S&#45;1688</text>
</g>
<!-- S&#45;029&#45;&gt;S&#45;1688 -->
<g id="edge21" class="edge">
<title>S&#45;029&#45;&gt;S&#45;1688</title>
<path fill="none" stroke="#4d4d4d" d="M792,-605.58C792,-605.58 792,-555.03 792,-555.03"/>
<polygon fill="#4d4d4d" stroke="#4d4d4d" points="794.45,-555.03 792,-548.03 789.55,-555.03 794.45,-555.03"/>
</g>
<!-- S&#45;027 -->
<g id="node40" class="node">
<title>S&#45;027</title>
<polygon fill="mediumseagreen" stroke="black" points="972,-548 900,-526.5 972,-505 1044,-526.5 972,-548"/>
<text text-anchor="middle" x="972" y="-524" font-family="Arial" font-size="10.00">S&#45;027</text>
</g>
<!-- S&#45;029&#45;&gt;S&#45;027 -->
<g id="edge22" class="edge">
<title>S&#45;029&#45;&gt;S&#45;027</title>
<path fill="none" stroke="#4d4d4d" d="M839.16,-620C863.43,-620 888,-620 888,-620 888,-620 888,-526 888,-526 888,-526 894.5,-526 894.5,-526"/>
<polygon fill="#4d4d4d" stroke="#4d4d4d" points="894.5,-528.45 901.5,-526 894.5,-523.55 894.5,-528.45"/>
</g>
<!-- S&#45;023 -->
<g id="node25" class="node">
<title>S&#45;023</title>
<polygon fill="mediumseagreen" stroke="black" points="1062,-1053 990,-1031.5 1062,-1010 1134,-1031.5 1062,-1053"/>
<text text-anchor="middle" x="1062" y="-1029" font-family="Arial" font-size="10.00">S&#45;023</text>
</g>
<!-- S&#45;2513 -->
<g id="node44" class="node">
<title>S&#45;2513</title>
<polygon fill="mediumseagreen" stroke="black" points="702,-952 630,-930.5 702,-909 774,-930.5 702,-952"/>
<text text-anchor="middle" x="702" y="-928" font-family="Arial" font-size="10.00">S&#45;2513</text>
</g>
<!-- S&#45;023&#45;&gt;S&#45;2513 -->
<g id="edge41" class="edge">
<title>S&#45;023&#45;&gt;S&#45;2513</title>
<path fill="none" stroke="#4d4d4d" d="M1011.56,-1038C912.49,-1038 702,-1038 702,-1038 702,-1038 702,-959.25 702,-959.25"/>
<polygon fill="#4d4d4d" stroke="#4d4d4d" points="704.45,-959.25 702,-952.25 699.55,-959.25 704.45,-959.25"/>
</g>
<!-- S&#45;2447 -->
<g id="node46" class="node">
<title>S&#45;2447</title>
<polygon fill="mediumseagreen" stroke="black" points="882,-952 810,-930.5 882,-909 954,-930.5 882,-952"/>
<text text-anchor="middle" x="882" y="-928" font-family="Arial" font-size="10.00">S&#45;2447</text>
</g>
<!-- S&#45;023&#45;&gt;S&#45;2447 -->
<g id="edge10" class="edge">
<title>S&#45;023&#45;&gt;S&#45;2447</title>
<path fill="none" stroke="#4d4d4d" d="M1014.71,-1024C961.38,-1024 882,-1024 882,-1024 882,-1024 882,-959.19 882,-959.19"/>
<polygon fill="#4d4d4d" stroke="#4d4d4d" points="884.45,-959.19 882,-952.19 879.55,-959.19 884.45,-959.19"/>
</g>
<!-- C&#45;0455 -->
<g id="node51" class="node">
<title>C&#45;0455</title>
<ellipse fill="mediumseagreen" stroke="black" cx="1062" cy="-930.5" rx="72" ry="21.5"/>
<text text-anchor="middle" x="1062" y="-928" font-family="Arial" font-size="10.00">C&#45;0455</text>
</g>
<!-- S&#45;023&#45;&gt;C&#45;0455 -->
<g id="edge11" class="edge">
<title>S&#45;023&#45;&gt;C&#45;0455</title>
<path fill="none" stroke="#4d4d4d" d="M1062,-1009.58C1062,-1009.58 1062,-959.03 1062,-959.03"/>
<polygon fill="#4d4d4d" stroke="#4d4d4d" points="1064.45,-959.03 1062,-952.03 1059.55,-959.03 1064.45,-959.03"/>
</g>
<!-- S&#45;2514 -->
<g id="node54" class="node">
<title>S&#45;2514</title>
<polygon fill="mediumseagreen" stroke="black" points="1242,-952 1170,-930.5 1242,-909 1314,-930.5 1242,-952"/>
<text text-anchor="middle" x="1242" y="-928" font-family="Arial" font-size="10.00">S&#45;2514</text>
</g>
<!-- S&#45;023&#45;&gt;S&#45;2514 -->
<g id="edge42" class="edge">
<title>S&#45;023&#45;&gt;S&#45;2514</title>
<path fill="none" stroke="#4d4d4d" d="M1109.29,-1024C1162.62,-1024 1242,-1024 1242,-1024 1242,-1024 1242,-959.19 1242,-959.19"/>
<polygon fill="#4d4d4d" stroke="#4d4d4d" points="1244.45,-959.19 1242,-952.19 1239.55,-959.19 1244.45,-959.19"/>
</g>
<!-- S&#45;2227 -->
<g id="node59" class="node">
<title>S&#45;2227</title>
<polygon fill="mediumseagreen" stroke="black" points="1422,-952 1350,-930.5 1422,-909 1494,-930.5 1422,-952"/>
<text text-anchor="middle" x="1422" y="-928" font-family="Arial" font-size="10.00">S&#45;2227</text>
</g>
<!-- S&#45;023&#45;&gt;S&#45;2227 -->
<g id="edge44" class="edge">
<title>S&#45;023&#45;&gt;S&#45;2227</title>
<path fill="none" stroke="#4d4d4d" d="M1112.5,-1038C1206.61,-1038 1399.33,-1038 1399.33,-1038 1399.33,-1038 1399.33,-952.45 1399.33,-952.45"/>
<polygon fill="#4d4d4d" stroke="#4d4d4d" points="1401.78,-952.45 1399.33,-945.45 1396.88,-952.45 1401.78,-952.45"/>
</g>
<!-- ext_circ_112_22_ -->
<g id="node68" class="node">
<title>ext_circ_112_22_</title>
<polygon fill="lightpink" stroke="darkorange" stroke-dasharray="5,2" points="1774,-1764 1630,-1764 1630,-1721 1774,-1721 1774,-1764"/>
<text text-anchor="middle" x="1702" y="-1745.5" font-family="Arial" font-size="10.00">Circuito:</text>
<text text-anchor="middle" x="1702" y="-1734.5" font-family="Arial" font-size="10.00">112&#45;22&#45;</text>
</g>
<!-- C&#45;0830&#45;&gt;ext_circ_112_22_ -->
<g id="edge70" class="edge">
<title>C&#45;0830&#45;&gt;ext_circ_112_22_</title>
<path fill="none" stroke="darkorange" stroke-dasharray="5,2" d="M2103.5,-1140.28C2103.5,-1156.41 2103.5,-1192 2103.5,-1192 2103.5,-1192 1761,-1192 1761,-1192 1761,-1192 1761,-1713.92 1761,-1713.92"/>
<polygon fill="darkorange" stroke="darkorange" points="1758.55,-1713.92 1761,-1720.92 1763.45,-1713.92 1758.55,-1713.92"/>
</g>
<!-- S&#45;2324 -->
<g id="node28" class="node">
<title>S&#45;2324</title>
<polygon fill="mediumseagreen" stroke="black" points="2396,-1255 2324,-1233.5 2396,-1212 2468,-1233.5 2396,-1255"/>
<text text-anchor="middle" x="2396" y="-1231" font-family="Arial" font-size="10.00">S&#45;2324</text>
</g>
<!-- S&#45;2368 -->
<g id="node29" class="node">
<title>S&#45;2368</title>
<polygon fill="mediumseagreen" stroke="black" points="2576,-1255 2504,-1233.5 2576,-1212 2648,-1233.5 2576,-1255"/>
<text text-anchor="middle" x="2576" y="-1231" font-family="Arial" font-size="10.00">S&#45;2368</text>
</g>
<!-- S&#45;021&#45;&gt;S&#45;030 -->
<g id="edge46" class="edge">
<title>S&#45;021&#45;&gt;S&#45;030</title>
<path fill="none" stroke="#4d4d4d" d="M1242,-1312.58C1242,-1312.58 1242,-1262.03 1242,-1262.03"/>
<polygon fill="#4d4d4d" stroke="#4d4d4d" points="1244.45,-1262.03 1242,-1255.03 1239.55,-1262.03 1244.45,-1262.03"/>
</g>
<!-- R&#45;187 -->
<g id="node45" class="node">
<title>R&#45;187</title>
<polygon fill="tomato" stroke="black" points="2423,-1022.59 2423,-1040.41 2380.82,-1053 2321.18,-1053 2279,-1040.41 2279,-1022.59 2321.18,-1010 2380.82,-1010 2423,-1022.59"/>
<text text-anchor="middle" x="2351" y="-1029" font-family="Arial" font-size="10.00">R&#45;187</text>
</g>
<!-- C&#45;0829&#45;&gt;R&#45;187 -->
<g id="edge61" class="edge">
<title>C&#45;0829&#45;&gt;R&#45;187</title>
<path fill="none" stroke="#4d4d4d" d="M2351,-1110.58C2351,-1110.58 2351,-1060.03 2351,-1060.03"/>
<polygon fill="#4d4d4d" stroke="#4d4d4d" points="2353.45,-1060.03 2351,-1053.03 2348.55,-1060.03 2353.45,-1060.03"/>
</g>
<!-- S&#45;2518 -->
<g id="node34" class="node">
<title>S&#45;2518</title>
<polygon fill="mediumseagreen" stroke="black" points="342,-144 270,-122.5 342,-101 414,-122.5 342,-144"/>
<text text-anchor="middle" x="342" y="-120" font-family="Arial" font-size="10.00">S&#45;2518</text>
</g>
<!-- S&#45;2518&#45;&gt;S&#45;2517 -->
<g id="edge35" class="edge">
<title>S&#45;2518&#45;&gt;S&#45;2517</title>
<path fill="none" stroke="#4d4d4d" d="M342,-100.58C342,-100.58 342,-50.03 342,-50.03"/>
<polygon fill="#4d4d4d" stroke="#4d4d4d" points="344.45,-50.03 342,-43.03 339.55,-50.03 344.45,-50.03"/>
</g>
<!-- S&#45;025 -->
<g id="node35" class="node">
<title>S&#45;025</title>
<polygon fill="mediumseagreen" stroke="black" points="1152,-750 1080,-728.5 1152,-707 1224,-728.5 1152,-750"/>
<text text-anchor="middle" x="1152" y="-726" font-family="Arial" font-size="10.00">S&#45;025</text>
</g>
<!-- S&#45;1783 -->
<g id="node47" class="node">
<title>S&#45;1783</title>
<polygon fill="mediumseagreen" stroke="black" points="1692,-649 1620,-627.5 1692,-606 1764,-627.5 1692,-649"/>
<text text-anchor="middle" x="1692" y="-625" font-family="Arial" font-size="10.00">S&#45;1783</text>
</g>
<!-- S&#45;025&#45;&gt;S&#45;1783 -->
<g id="edge15" class="edge">
<title>S&#45;025&#45;&gt;S&#45;1783</title>
<path fill="none" stroke="#4d4d4d" d="M1152,-707C1152,-698.18 1152,-690 1152,-690 1152,-690 1657,-690 1657,-690 1657,-690 1657,-645.67 1657,-645.67"/>
<polygon fill="#4d4d4d" stroke="#4d4d4d" points="1659.45,-645.67 1657,-638.67 1654.55,-645.67 1659.45,-645.67"/>
</g>
<!-- C&#45;0397&#45;&gt;S&#45;2524 -->
<g id="edge65" class="edge">
<title>C&#45;0397&#45;&gt;S&#45;2524</title>
<path fill="none" stroke="#4d4d4d" d="M2054.01,-1334C1934.95,-1334 1710,-1334 1710,-1334 1710,-1334 1710,-1252.03 1710,-1252.03"/>
<polygon fill="#4d4d4d" stroke="#4d4d4d" points="1712.45,-1252.03 1710,-1245.03 1707.55,-1252.03 1712.45,-1252.03"/>
</g>
<!-- C&#45;0397&#45;&gt;S&#45;007 -->
<g id="edge56" class="edge">
<title>C&#45;0397&#45;&gt;S&#45;007</title>
<path fill="none" stroke="#4d4d4d" d="M2065.04,-1323C1999.32,-1323 1904,-1323 1904,-1323 1904,-1323 1904,-1247.82 1904,-1247.82"/>
<polygon fill="#4d4d4d" stroke="#4d4d4d" points="1906.45,-1247.82 1904,-1240.82 1901.55,-1247.82 1906.45,-1247.82"/>
</g>
<!-- C&#45;0397&#45;&gt;S&#45;1802 -->
<g id="edge64" class="edge">
<title>C&#45;0397&#45;&gt;S&#45;1802</title>
<path fill="none" stroke="#4d4d4d" d="M2081,-1317.37C2081,-1317.37 2081,-1248.78 2081,-1248.78"/>
<polygon fill="#4d4d4d" stroke="#4d4d4d" points="2083.45,-1248.78 2081,-1241.78 2078.55,-1248.78 2083.45,-1248.78"/>
</g>
<!-- C&#45;0397&#45;&gt;S&#45;020 -->
<g id="edge52" class="edge">
<title>C&#45;0397&#45;&gt;S&#45;020</title>
<path fill="none" stroke="#4d4d4d" d="M2062.95,-1345C1914.36,-1345 1554.67,-1345 1554.67,-1345 1554.67,-1345 1554.67,-1244.73 1554.67,-1244.73"/>
<polygon fill="#4d4d4d" stroke="#4d4d4d" points="1557.12,-1244.73 1554.67,-1237.73 1552.22,-1244.73 1557.12,-1244.73"/>
</g>
<!-- C&#45;0397&#45;&gt;S&#45;1202 -->
<g id="edge54" class="edge">
<title>C&#45;0397&#45;&gt;S&#45;1202</title>
<path fill="none" stroke="#4d4d4d" d="M2171,-1317.37C2171,-1317.37 2171,-1248.78 2171,-1248.78"/>
<polygon fill="#4d4d4d" stroke="#4d4d4d" points="2173.45,-1248.78 2171,-1241.78 2168.55,-1248.78 2173.45,-1248.78"/>
</g>
<!-- C&#45;0397&#45;&gt;S&#45;2324 -->
<g id="edge63" class="edge">
<title>C&#45;0397&#45;&gt;S&#45;2324</title>
<path fill="none" stroke="#4d4d4d" d="M2182.27,-1321C2261.4,-1321 2396,-1321 2396,-1321 2396,-1321 2396,-1262.13 2396,-1262.13"/>
<polygon fill="#4d4d4d" stroke="#4d4d4d" points="2398.45,-1262.13 2396,-1255.13 2393.55,-1262.13 2398.45,-1262.13"/>
</g>
<!-- C&#45;0397&#45;&gt;S&#45;2368 -->
<g id="edge62" class="edge">
<title>C&#45;0397&#45;&gt;S&#45;2368</title>
<path fill="none" stroke="#4d4d4d" d="M2196.81,-1330C2323.53,-1330 2576,-1330 2576,-1330 2576,-1330 2576,-1262.4 2576,-1262.4"/>
<polygon fill="#4d4d4d" stroke="#4d4d4d" points="2578.45,-1262.4 2576,-1255.4 2573.55,-1262.4 2578.45,-1262.4"/>
</g>
<!-- S&#45;1703 -->
<g id="node41" class="node">
<title>S&#45;1703</title>
<polygon fill="mediumseagreen" stroke="black" points="2756,-1255 2684,-1233.5 2756,-1212 2828,-1233.5 2756,-1255"/>
<text text-anchor="middle" x="2756" y="-1231" font-family="Arial" font-size="10.00">S&#45;1703</text>
</g>
<!-- C&#45;0397&#45;&gt;S&#45;1703 -->
<g id="edge55" class="edge">
<title>C&#45;0397&#45;&gt;S&#45;1703</title>
<path fill="none" stroke="#4d4d4d" d="M2197.04,-1338C2361.81,-1338 2756,-1338 2756,-1338 2756,-1338 2756,-1262.15 2756,-1262.15"/>
<polygon fill="#4d4d4d" stroke="#4d4d4d" points="2758.45,-1262.15 2756,-1255.15 2753.55,-1262.15 2758.45,-1262.15"/>
</g>
<!-- S&#45;558 -->
<g id="node55" class="node">
<title>S&#45;558</title>
<polygon fill="mediumseagreen" stroke="black" points="2936,-1255 2864,-1233.5 2936,-1212 3008,-1233.5 2936,-1255"/>
<text text-anchor="middle" x="2936" y="-1231" font-family="Arial" font-size="10.00">S&#45;558</text>
</g>
<!-- C&#45;0397&#45;&gt;S&#45;558 -->
<g id="edge53" class="edge">
<title>C&#45;0397&#45;&gt;S&#45;558</title>
<path fill="none" stroke="#4d4d4d" d="M2184.91,-1347C2371.3,-1347 2936,-1347 2936,-1347 2936,-1347 2936,-1262.12 2936,-1262.12"/>
<polygon fill="#4d4d4d" stroke="#4d4d4d" points="2938.45,-1262.12 2936,-1255.12 2933.55,-1262.12 2938.45,-1262.12"/>
</g>
<!-- C&#45;0738 -->
<g id="node39" class="node">
<title>C&#45;0738</title>
<ellipse fill="mediumseagreen" stroke="black" cx="522" cy="-122.5" rx="72" ry="21.5"/>
<text text-anchor="middle" x="522" y="-120" font-family="Arial" font-size="10.00">C&#45;0738</text>
</g>
<!-- C&#45;1271&#45;&gt;C&#45;1270 -->
<g id="edge66" class="edge">
<title>C&#45;1271&#45;&gt;C&#45;1270</title>
<path fill="none" stroke="blue" stroke-dasharray="5,2" d="M1374.67,-1318.13C1374.67,-1277.07 1374.67,-1173 1374.67,-1173 1374.67,-1173 1086,-1173 1086,-1173 1086,-1173 1086,-1160.22 1086,-1160.22"/>
<polygon fill="blue" stroke="blue" points="1088.45,-1160.22 1086,-1153.22 1083.55,-1160.22 1088.45,-1160.22"/>
</g>
<!-- C&#45;0621&#45;&gt;S&#45;1196 -->
<g id="edge36" class="edge">
<title>C&#45;0621&#45;&gt;S&#45;1196</title>
<path fill="none" stroke="#4d4d4d" d="M179.82,-324C129.75,-324 72,-324 72,-324 72,-324 72,-252.31 72,-252.31"/>
<polygon fill="#4d4d4d" stroke="#4d4d4d" points="74.45,-252.31 72,-245.31 69.55,-252.31 74.45,-252.31"/>
</g>
<!-- S&#45;1325 -->
<g id="node57" class="node">
<title>S&#45;1325</title>
<polygon fill="mediumseagreen" stroke="black" points="252,-245 180,-223.5 252,-202 324,-223.5 252,-245"/>
<text text-anchor="middle" x="252" y="-221" font-family="Arial" font-size="10.00">S&#45;1325</text>
</g>
<!-- C&#45;0621&#45;&gt;S&#45;1325 -->
<g id="edge37" class="edge">
<title>C&#45;0621&#45;&gt;S&#45;1325</title>
<path fill="none" stroke="#4d4d4d" d="M252,-302.58C252,-302.58 252,-252.03 252,-252.03"/>
<polygon fill="#4d4d4d" stroke="#4d4d4d" points="254.45,-252.03 252,-245.03 249.55,-252.03 254.45,-252.03"/>
</g>
<!-- S&#45;344 -->
<g id="node58" class="node">
<title>S&#45;344</title>
<polygon fill="mediumseagreen" stroke="black" points="432,-245 360,-223.5 432,-202 504,-223.5 432,-245"/>
<text text-anchor="middle" x="432" y="-221" font-family="Arial" font-size="10.00">S&#45;344</text>
</g>
<!-- C&#45;0621&#45;&gt;S&#45;344 -->
<g id="edge30" class="edge">
<title>C&#45;0621&#45;&gt;S&#45;344</title>
<path fill="none" stroke="#4d4d4d" d="M324.18,-324C374.25,-324 432,-324 432,-324 432,-324 432,-252.31 432,-252.31"/>
<polygon fill="#4d4d4d" stroke="#4d4d4d" points="434.45,-252.31 432,-245.31 429.55,-252.31 434.45,-252.31"/>
</g>
<!-- R&#45;187&#45;&gt;ext_circ_112_22_ -->
<g id="edge71" class="edge">
<title>R&#45;187&#45;&gt;ext_circ_112_22_</title>
<path fill="none" stroke="darkorange" stroke-dasharray="5,2" d="M2423.24,-1031C2455.34,-1031 2486,-1031 2486,-1031 2486,-1031 2486,-1742 2486,-1742 2486,-1742 1781,-1742 1781,-1742"/>
<polygon fill="darkorange" stroke="darkorange" points="1781,-1739.55 1774,-1742 1781,-1744.45 1781,-1739.55"/>
</g>
<!-- S&#45;2447&#45;&gt;S&#45;2448 -->
<g id="edge39" class="edge">
<title>S&#45;2447&#45;&gt;S&#45;2448</title>
<path fill="none" stroke="#4d4d4d" d="M882,-908.58C882,-908.58 882,-858.03 882,-858.03"/>
<polygon fill="#4d4d4d" stroke="#4d4d4d" points="884.45,-858.03 882,-851.03 879.55,-858.03 884.45,-858.03"/>
</g>
<!-- C&#45;1270&#45;&gt;S&#45;023 -->
<g id="edge9" class="edge">
<title>C&#45;1270&#45;&gt;S&#45;023</title>
<path fill="none" stroke="#4d4d4d" d="M1062,-1110.58C1062,-1110.58 1062,-1060.03 1062,-1060.03"/>
<polygon fill="#4d4d4d" stroke="#4d4d4d" points="1064.45,-1060.03 1062,-1053.03 1059.55,-1060.03 1064.45,-1060.03"/>
</g>
<!-- S&#45;028 -->
<g id="node49" class="node">
<title>S&#45;028</title>
<polygon fill="mediumseagreen" stroke="black" points="702,-144 630,-122.5 702,-101 774,-122.5 702,-144"/>
<text text-anchor="middle" x="702" y="-120" font-family="Arial" font-size="10.00">S&#45;028</text>
</g>
<!-- C&#45;0737 -->
<g id="node50" class="node">
<title>C&#45;0737</title>
<ellipse fill="tomato" stroke="black" cx="162" cy="-122.5" rx="72" ry="21.5"/>
<text text-anchor="middle" x="162" y="-120" font-family="Arial" font-size="10.00">C&#45;0737</text>
</g>
<!-- ext_circ_303_25_ -->
<g id="node67" class="node">
<title>ext_circ_303_25_</title>
<polygon fill="lightpink" stroke="darkorange" stroke-dasharray="5,2" points="1360,-1764 1216,-1764 1216,-1721 1360,-1721 1360,-1764"/>
<text text-anchor="middle" x="1288" y="-1745.5" font-family="Arial" font-size="10.00">Circuito:</text>
<text text-anchor="middle" x="1288" y="-1734.5" font-family="Arial" font-size="10.00">303&#45;25&#45;</text>
</g>
<!-- C&#45;0737&#45;&gt;ext_circ_303_25_ -->
<g id="edge68" class="edge">
<title>C&#45;0737&#45;&gt;ext_circ_303_25_</title>
<path fill="none" stroke="darkorange" stroke-dasharray="5,2" d="M162,-144.17C162,-336.35 162,-1742 162,-1742 162,-1742 1208.85,-1742 1208.85,-1742"/>
<polygon fill="darkorange" stroke="darkorange" points="1208.85,-1744.45 1215.85,-1742 1208.85,-1739.55 1208.85,-1744.45"/>
</g>
<!-- C&#45;0454 -->
<g id="node56" class="node">
<title>C&#45;0454</title>
<ellipse fill="mediumseagreen" stroke="black" cx="1062" cy="-829.5" rx="72" ry="21.5"/>
<text text-anchor="middle" x="1062" y="-827" font-family="Arial" font-size="10.00">C&#45;0454</text>
</g>
<!-- C&#45;0455&#45;&gt;C&#45;0454 -->
<g id="edge12" class="edge">
<title>C&#45;0455&#45;&gt;C&#45;0454</title>
<path fill="none" stroke="#4d4d4d" d="M1062,-908.58C1062,-908.58 1062,-858.03 1062,-858.03"/>
<polygon fill="#4d4d4d" stroke="#4d4d4d" points="1064.45,-858.03 1062,-851.03 1059.55,-858.03 1064.45,-858.03"/>
</g>
<!-- C&#45;0395&#45;&gt;S&#45;020 -->
<g id="edge69" class="edge">
<title>C&#45;0395&#45;&gt;S&#45;020</title>
<path fill="none" stroke="blue" stroke-dasharray="5,2" d="M1541.33,-1523.87C1541.33,-1523.87 1541.33,-1248.6 1541.33,-1248.6"/>
<polygon fill="blue" stroke="blue" points="1543.78,-1248.6 1541.33,-1241.6 1538.88,-1248.6 1543.78,-1248.6"/>
</g>
<!-- S&#45;2514&#45;&gt;S&#45;2512 -->
<g id="edge43" class="edge">
<title>S&#45;2514&#45;&gt;S&#45;2512</title>
<path fill="none" stroke="#4d4d4d" d="M1242,-908.58C1242,-908.58 1242,-858.03 1242,-858.03"/>
<polygon fill="#4d4d4d" stroke="#4d4d4d" points="1244.45,-858.03 1242,-851.03 1239.55,-858.03 1244.45,-858.03"/>
</g>
<!-- C&#45;0454&#45;&gt;S&#45;026 -->
<g id="edge16" class="edge">
<title>C&#45;0454&#45;&gt;S&#45;026</title>
<path fill="none" stroke="#4d4d4d" d="M1017,-812.37C1017,-812.37 1017,-743.78 1017,-743.78"/>
<polygon fill="#4d4d4d" stroke="#4d4d4d" points="1019.45,-743.78 1017,-736.78 1014.55,-743.78 1019.45,-743.78"/>
</g>
<!-- C&#45;0454&#45;&gt;S&#45;025 -->
<g id="edge14" class="edge">
<title>C&#45;0454&#45;&gt;S&#45;025</title>
<path fill="none" stroke="#4d4d4d" d="M1098,-810.5C1098,-810.5 1098,-740.97 1098,-740.97"/>
<polygon fill="#4d4d4d" stroke="#4d4d4d" points="1100.45,-740.97 1098,-733.97 1095.55,-740.97 1100.45,-740.97"/>
</g>
<!-- S&#45;024 -->
<g id="node65" class="node">
<title>S&#45;024</title>
<polygon fill="mediumseagreen" stroke="black" points="1332,-750 1260,-728.5 1332,-707 1404,-728.5 1332,-750"/>
<text text-anchor="middle" x="1332" y="-726" font-family="Arial" font-size="10.00">S&#45;024</text>
</g>
<!-- C&#45;0454&#45;&gt;S&#45;024 -->
<g id="edge13" class="edge">
<title>C&#45;0454&#45;&gt;S&#45;024</title>
<path fill="none" stroke="#4d4d4d" d="M1116,-815.16C1116,-800.23 1116,-779 1116,-779 1116,-779 1287,-779 1287,-779 1287,-779 1287,-743.84 1287,-743.84"/>
<polygon fill="#4d4d4d" stroke="#4d4d4d" points="1289.45,-743.84 1287,-736.84 1284.55,-743.84 1289.45,-743.84"/>
</g>
<!-- S&#45;344&#45;&gt;S&#45;2518 -->
<g id="edge34" class="edge">
<title>S&#45;344&#45;&gt;S&#45;2518</title>
<path fill="none" stroke="#4d4d4d" d="M396,-212.69C396,-212.69 396,-135.12 396,-135.12"/>
<polygon fill="#4d4d4d" stroke="#4d4d4d" points="398.45,-135.12 396,-128.12 393.55,-135.12 398.45,-135.12"/>
</g>
<!-- S&#45;344&#45;&gt;C&#45;0738 -->
<g id="edge32" class="edge">
<title>S&#45;344&#45;&gt;C&#45;0738</title>
<path fill="none" stroke="#4d4d4d" d="M477,-215.23C477,-215.23 477,-146.52 477,-146.52"/>
<polygon fill="#4d4d4d" stroke="#4d4d4d" points="479.45,-146.52 477,-139.52 474.55,-146.52 479.45,-146.52"/>
</g>
<!-- S&#45;344&#45;&gt;S&#45;028 -->
<g id="edge31" class="edge">
<title>S&#45;344&#45;&gt;S&#45;028</title>
<path fill="none" stroke="#4d4d4d" d="M502.57,-223C568.56,-223 657,-223 657,-223 657,-223 657,-137.72 657,-137.72"/>
<polygon fill="#4d4d4d" stroke="#4d4d4d" points="659.45,-137.72 657,-130.72 654.55,-137.72 659.45,-137.72"/>
</g>
<!-- S&#45;344&#45;&gt;C&#45;0737 -->
<g id="edge33" class="edge">
<title>S&#45;344&#45;&gt;C&#45;0737</title>
<path fill="none" stroke="#4d4d4d" d="M378,-218.1C378,-205.07 378,-173 378,-173 378,-173 207,-173 207,-173 207,-173 207,-146.32 207,-146.32"/>
<polygon fill="#4d4d4d" stroke="#4d4d4d" points="209.45,-146.32 207,-139.32 204.55,-146.32 209.45,-146.32"/>
</g>
<!-- C&#45;1072&#45;&gt;C&#45;1073 -->
<g id="edge67" class="edge">
<title>C&#45;1072&#45;&gt;C&#45;1073</title>
<path fill="none" stroke="blue" stroke-dasharray="5,2" d="M1512,-605.83C1512,-553.59 1512,-425 1512,-425 1512,-425 331.27,-425 331.27,-425"/>
<polygon fill="blue" stroke="blue" points="331.27,-422.55 324.27,-425 331.27,-427.45 331.27,-422.55"/>
</g>
<!-- R&#45;260&#45;&gt;C&#45;1073 -->
<g id="edge28" class="edge">
<title>R&#45;260&#45;&gt;C&#45;1073</title>
<path fill="none" stroke="#4d4d4d" d="M252,-504.58C252,-504.58 252,-454.03 252,-454.03"/>
<polygon fill="#4d4d4d" stroke="#4d4d4d" points="254.45,-454.03 252,-447.03 249.55,-454.03 254.45,-454.03"/>
</g>
<!-- 112&#45;24&#45; -->
<g id="node64" class="node">
<title>112&#45;24&#45;</title>
<polygon fill="gold" stroke="black" points="1582,-1733.59 1582,-1751.41 1539.82,-1764 1480.18,-1764 1438,-1751.41 1438,-1733.59 1480.18,-1721 1539.82,-1721 1582,-1733.59"/>
<polygon fill="none" stroke="black" points="1586,-1730.61 1586,-1754.39 1540.41,-1768 1479.59,-1768 1434,-1754.39 1434,-1730.61 1479.59,-1717 1540.41,-1717 1586,-1730.61"/>
<text text-anchor="middle" x="1510" y="-1740" font-family="Arial" font-size="10.00">112&#45;24&#45;</text>
</g>
<!-- 112&#45;24&#45;&#45;&gt;S&#45;1195 -->
<g id="edge1" class="edge">
<title>112&#45;24&#45;&#45;&gt;S&#45;1195</title>
<path fill="none" stroke="#4d4d4d" d="M1510,-1716.81C1510,-1716.81 1510,-1666.03 1510,-1666.03"/>
<polygon fill="#4d4d4d" stroke="#4d4d4d" points="1512.45,-1666.03 1510,-1659.03 1507.55,-1666.03 1512.45,-1666.03"/>
</g>
<!-- C&#45;0396&#45;&gt;R&#45;135 -->
<g id="edge50" class="edge">
<title>C&#45;0396&#45;&gt;R&#45;135</title>
<path fill="none" stroke="#4d4d4d" d="M1995.5,-1519.37C1995.5,-1519.37 1995.5,-1460.06 1995.5,-1460.06"/>
<polygon fill="#4d4d4d" stroke="#4d4d4d" points="1997.95,-1460.06 1995.5,-1453.06 1993.05,-1460.06 1997.95,-1460.06"/>
</g>
</g>
</svg>
