<?xml version="1.0" encoding="UTF-8" standalone="no"?>
<!DOCTYPE svg PUBLIC "-//W3C//DTD SVG 1.1//EN"
 "http://www.w3.org/Graphics/SVG/1.1/DTD/svg11.dtd">
<!-- Generated by graphviz version 2.50.0 (0)
 -->
<!-- Title: Grafo_Circuito_112_24_ Pages: 1 -->
<svg width="2831pt" height="1877pt"
 viewBox="0.00 0.00 2831.00 1877.00" xmlns="http://www.w3.org/2000/svg" xmlns:xlink="http://www.w3.org/1999/xlink">
<g id="graph0" class="graph" transform="scale(1 1) rotate(0) translate(4 1873)">
<title>Grafo_Circuito_112_24_</title>
<polygon fill="white" stroke="transparent" points="-4,4 -4,-1873 2827,-1873 2827,4 -4,4"/>
<!-- S&#45;029 -->
<g id="node1" class="node">
<title>S&#45;029</title>
<polygon fill="mediumseagreen" stroke="black" points="1639,-750 1567,-728.5 1639,-707 1711,-728.5 1639,-750"/>
<text text-anchor="middle" x="1639" y="-726" font-family="Arial" font-size="10.00">S&#45;029</text>
</g>
<!-- S&#45;027 -->
<g id="node21" class="node">
<title>S&#45;027</title>
<polygon fill="mediumseagreen" stroke="black" points="1819,-649 1747,-627.5 1819,-606 1891,-627.5 1819,-649"/>
<text text-anchor="middle" x="1819" y="-625" font-family="Arial" font-size="10.00">S&#45;027</text>
</g>
<!-- S&#45;029&#45;&gt;S&#45;027 -->
<g id="edge22" class="edge">
<title>S&#45;029&#45;&gt;S&#45;027</title>
<path fill="none" stroke="#4d4d4d" d="M1709.39,-728C1736.01,-728 1760,-728 1760,-728 1760,-728 1760,-638.82 1760,-638.82"/>
<polygon fill="#4d4d4d" stroke="#4d4d4d" points="1762.45,-638.82 1760,-631.82 1757.55,-638.82 1762.45,-638.82"/>
</g>
<!-- S&#45;1688 -->
<g id="node51" class="node">
<title>S&#45;1688</title>
<polygon fill="mediumseagreen" stroke="black" points="1639,-649 1567,-627.5 1639,-606 1711,-627.5 1639,-649"/>
<text text-anchor="middle" x="1639" y="-625" font-family="Arial" font-size="10.00">S&#45;1688</text>
</g>
<!-- S&#45;029&#45;&gt;S&#45;1688 -->
<g id="edge21" class="edge">
<title>S&#45;029&#45;&gt;S&#45;1688</title>
<path fill="none" stroke="#4d4d4d" d="M1639,-706.58C1639,-706.58 1639,-656.03 1639,-656.03"/>
<polygon fill="#4d4d4d" stroke="#4d4d4d" points="1641.45,-656.03 1639,-649.03 1636.55,-656.03 1641.45,-656.03"/>
</g>
<!-- S&#45;2518 -->
<g id="node2" class="node">
<title>S&#45;2518</title>
<polygon fill="mediumseagreen" stroke="black" points="1459,-245 1387,-223.5 1459,-202 1531,-223.5 1459,-245"/>
<text text-anchor="middle" x="1459" y="-221" font-family="Arial" font-size="10.00">S&#45;2518</text>
</g>
<!-- S&#45;2517 -->
<g id="node58" class="node">
<title>S&#45;2517</title>
<polygon fill="mediumseagreen" stroke="black" points="1459,-144 1387,-122.5 1459,-101 1531,-122.5 1459,-144"/>
<text text-anchor="middle" x="1459" y="-120" font-family="Arial" font-size="10.00">S&#45;2517</text>
</g>
<!-- S&#45;2518&#45;&gt;S&#45;2517 -->
<g id="edge36" class="edge">
<title>S&#45;2518&#45;&gt;S&#45;2517</title>
<path fill="none" stroke="#4d4d4d" d="M1459,-201.58C1459,-201.58 1459,-151.03 1459,-151.03"/>
<polygon fill="#4d4d4d" stroke="#4d4d4d" points="1461.45,-151.03 1459,-144.03 1456.55,-151.03 1461.45,-151.03"/>
</g>
<!-- S&#45;2524 -->
<g id="node3" class="node">
<title>S&#45;2524</title>
<polygon fill="mediumseagreen" stroke="black" points="2475,-1356 2403,-1334.5 2475,-1313 2547,-1334.5 2475,-1356"/>
<text text-anchor="middle" x="2475" y="-1332" font-family="Arial" font-size="10.00">S&#45;2524</text>
</g>
<!-- S&#45;2178 -->
<g id="node4" class="node">
<title>S&#45;2178</title>
<polygon fill="mediumseagreen" stroke="black" points="585,-1659 513,-1637.5 585,-1616 657,-1637.5 585,-1659"/>
<text text-anchor="middle" x="585" y="-1635" font-family="Arial" font-size="10.00">S&#45;2178</text>
</g>
<!-- S&#45;026 -->
<g id="node5" class="node">
<title>S&#45;026</title>
<polygon fill="mediumseagreen" stroke="black" points="882,-851 810,-829.5 882,-808 954,-829.5 882,-851"/>
<text text-anchor="middle" x="882" y="-827" font-family="Arial" font-size="10.00">S&#45;026</text>
</g>
<!-- S&#45;026&#45;&gt;S&#45;029 -->
<g id="edge20" class="edge">
<title>S&#45;026&#45;&gt;S&#45;029</title>
<path fill="none" stroke="#4d4d4d" d="M912.44,-842C1046.79,-842 1580,-842 1580,-842 1580,-842 1580,-739.54 1580,-739.54"/>
<polygon fill="#4d4d4d" stroke="#4d4d4d" points="1582.45,-739.54 1580,-732.54 1577.55,-739.54 1582.45,-739.54"/>
</g>
<!-- S&#45;1864 -->
<g id="node9" class="node">
<title>S&#45;1864</title>
<polygon fill="mediumseagreen" stroke="black" points="342,-750 270,-728.5 342,-707 414,-728.5 342,-750"/>
<text text-anchor="middle" x="342" y="-726" font-family="Arial" font-size="10.00">S&#45;1864</text>
</g>
<!-- S&#45;026&#45;&gt;S&#45;1864 -->
<g id="edge23" class="edge">
<title>S&#45;026&#45;&gt;S&#45;1864</title>
<path fill="none" stroke="#4d4d4d" d="M858,-815.16C858,-797.27 858,-769 858,-769 858,-769 396,-769 396,-769 396,-769 396,-741.13 396,-741.13"/>
<polygon fill="#4d4d4d" stroke="#4d4d4d" points="398.45,-741.13 396,-734.13 393.55,-741.13 398.45,-741.13"/>
</g>
<!-- C&#45;1072 -->
<g id="node13" class="node">
<title>C&#45;1072</title>
<ellipse fill="tomato" stroke="black" cx="522" cy="-728.5" rx="72" ry="21.5"/>
<text text-anchor="middle" x="522" y="-726" font-family="Arial" font-size="10.00">C&#45;1072</text>
</g>
<!-- S&#45;026&#45;&gt;C&#45;1072 -->
<g id="edge24" class="edge">
<title>S&#45;026&#45;&gt;C&#45;1072</title>
<path fill="none" stroke="#4d4d4d" d="M831.42,-836C738.27,-836 549,-836 549,-836 549,-836 549,-755.47 549,-755.47"/>
<polygon fill="#4d4d4d" stroke="#4d4d4d" points="551.45,-755.47 549,-748.47 546.55,-755.47 551.45,-755.47"/>
</g>
<!-- S&#45;2338 -->
<g id="node25" class="node">
<title>S&#45;2338</title>
<polygon fill="mediumseagreen" stroke="black" points="702,-750 630,-728.5 702,-707 774,-728.5 702,-750"/>
<text text-anchor="middle" x="702" y="-726" font-family="Arial" font-size="10.00">S&#45;2338</text>
</g>
<!-- S&#45;026&#45;&gt;S&#45;2338 -->
<g id="edge25" class="edge">
<title>S&#45;026&#45;&gt;S&#45;2338</title>
<path fill="none" stroke="#4d4d4d" d="M834.71,-822C781.38,-822 702,-822 702,-822 702,-822 702,-757.19 702,-757.19"/>
<polygon fill="#4d4d4d" stroke="#4d4d4d" points="704.45,-757.19 702,-750.19 699.55,-757.19 704.45,-757.19"/>
</g>
<!-- S&#45;2200 -->
<g id="node31" class="node">
<title>S&#45;2200</title>
<polygon fill="mediumseagreen" stroke="black" points="882,-750 810,-728.5 882,-707 954,-728.5 882,-750"/>
<text text-anchor="middle" x="882" y="-726" font-family="Arial" font-size="10.00">S&#45;2200</text>
</g>
<!-- S&#45;026&#45;&gt;S&#45;2200 -->
<g id="edge17" class="edge">
<title>S&#45;026&#45;&gt;S&#45;2200</title>
<path fill="none" stroke="#4d4d4d" d="M906,-815.03C906,-815.03 906,-749.94 906,-749.94"/>
<polygon fill="#4d4d4d" stroke="#4d4d4d" points="908.45,-749.94 906,-742.94 903.55,-749.94 908.45,-749.94"/>
</g>
<!-- C&#45;1071 -->
<g id="node35" class="node">
<title>C&#45;1071</title>
<ellipse fill="mediumseagreen" stroke="black" cx="1062" cy="-728.5" rx="72" ry="21.5"/>
<text text-anchor="middle" x="1062" y="-726" font-family="Arial" font-size="10.00">C&#45;1071</text>
</g>
<!-- S&#45;026&#45;&gt;C&#45;1071 -->
<g id="edge26" class="edge">
<title>S&#45;026&#45;&gt;C&#45;1071</title>
<path fill="none" stroke="#4d4d4d" d="M908.95,-816C959.16,-816 1062,-816 1062,-816 1062,-816 1062,-757.13 1062,-757.13"/>
<polygon fill="#4d4d4d" stroke="#4d4d4d" points="1064.45,-757.13 1062,-750.13 1059.55,-757.13 1064.45,-757.13"/>
</g>
<!-- S&#45;313 -->
<g id="node36" class="node">
<title>S&#45;313</title>
<polygon fill="mediumseagreen" stroke="black" points="1242,-750 1170,-728.5 1242,-707 1314,-728.5 1242,-750"/>
<text text-anchor="middle" x="1242" y="-726" font-family="Arial" font-size="10.00">S&#45;313</text>
</g>
<!-- S&#45;026&#45;&gt;S&#45;313 -->
<g id="edge40" class="edge">
<title>S&#45;026&#45;&gt;S&#45;313</title>
<path fill="none" stroke="#4d4d4d" d="M939.22,-825C1037.63,-825 1228.5,-825 1228.5,-825 1228.5,-825 1228.5,-753.2 1228.5,-753.2"/>
<polygon fill="#4d4d4d" stroke="#4d4d4d" points="1230.95,-753.2 1228.5,-746.2 1226.05,-753.2 1230.95,-753.2"/>
</g>
<!-- S&#45;1371 -->
<g id="node67" class="node">
<title>S&#45;1371</title>
<polygon fill="mediumseagreen" stroke="black" points="1422,-750 1350,-728.5 1422,-707 1494,-728.5 1422,-750"/>
<text text-anchor="middle" x="1422" y="-726" font-family="Arial" font-size="10.00">S&#45;1371</text>
</g>
<!-- S&#45;026&#45;&gt;S&#45;1371 -->
<g id="edge18" class="edge">
<title>S&#45;026&#45;&gt;S&#45;1371</title>
<path fill="none" stroke="#4d4d4d" d="M942.4,-833C1080.69,-833 1408.5,-833 1408.5,-833 1408.5,-833 1408.5,-753.23 1408.5,-753.23"/>
<polygon fill="#4d4d4d" stroke="#4d4d4d" points="1410.95,-753.23 1408.5,-746.23 1406.05,-753.23 1410.95,-753.23"/>
</g>
<!-- S&#45;022 -->
<g id="node6" class="node">
<title>S&#45;022</title>
<polygon fill="mediumseagreen" stroke="black" points="1037,-1255 965,-1233.5 1037,-1212 1109,-1233.5 1037,-1255"/>
<text text-anchor="middle" x="1037" y="-1231" font-family="Arial" font-size="10.00">S&#45;022</text>
</g>
<!-- C&#45;0699 -->
<g id="node10" class="node">
<title>C&#45;0699</title>
<ellipse fill="tomato" stroke="black" cx="1040" cy="-1132.5" rx="72" ry="21.5"/>
<text text-anchor="middle" x="1040" y="-1130" font-family="Arial" font-size="10.00">C&#45;0699</text>
</g>
<!-- S&#45;022&#45;&gt;C&#45;0699 -->
<g id="edge50" class="edge">
<title>S&#45;022&#45;&gt;C&#45;0699</title>
<path fill="none" stroke="#4d4d4d" d="M1038.5,-1212.08C1038.5,-1212.08 1038.5,-1161.24 1038.5,-1161.24"/>
<polygon fill="#4d4d4d" stroke="#4d4d4d" points="1040.95,-1161.24 1038.5,-1154.24 1036.05,-1161.24 1040.95,-1161.24"/>
</g>
<!-- S&#45;1202 -->
<g id="node7" class="node">
<title>S&#45;1202</title>
<polygon fill="mediumseagreen" stroke="black" points="2655,-1356 2583,-1334.5 2655,-1313 2727,-1334.5 2655,-1356"/>
<text text-anchor="middle" x="2655" y="-1332" font-family="Arial" font-size="10.00">S&#45;1202</text>
</g>
<!-- C&#45;0830 -->
<g id="node46" class="node">
<title>C&#45;0830</title>
<ellipse fill="tomato" stroke="black" cx="2571" cy="-1132.5" rx="72" ry="21.5"/>
<text text-anchor="middle" x="2571" y="-1130" font-family="Arial" font-size="10.00">C&#45;0830</text>
</g>
<!-- S&#45;1202&#45;&gt;C&#45;0830 -->
<g id="edge63" class="edge">
<title>S&#45;1202&#45;&gt;C&#45;0830</title>
<path fill="none" stroke="#4d4d4d" d="M2613,-1325.3C2613,-1325.3 2613,-1157.15 2613,-1157.15"/>
<polygon fill="#4d4d4d" stroke="#4d4d4d" points="2615.45,-1157.15 2613,-1150.15 2610.55,-1157.15 2615.45,-1157.15"/>
</g>
<!-- C&#45;0829 -->
<g id="node55" class="node">
<title>C&#45;0829</title>
<ellipse fill="mediumseagreen" stroke="black" cx="2725" cy="-1233.5" rx="72" ry="21.5"/>
<text text-anchor="middle" x="2725" y="-1231" font-family="Arial" font-size="10.00">C&#45;0829</text>
</g>
<!-- S&#45;1202&#45;&gt;C&#45;0829 -->
<g id="edge62" class="edge">
<title>S&#45;1202&#45;&gt;C&#45;0829</title>
<path fill="none" stroke="#4d4d4d" d="M2690,-1323.31C2690,-1323.31 2690,-1259.3 2690,-1259.3"/>
<polygon fill="#4d4d4d" stroke="#4d4d4d" points="2692.45,-1259.3 2690,-1252.3 2687.55,-1259.3 2692.45,-1259.3"/>
</g>
<!-- S&#45;2544 -->
<g id="node8" class="node">
<title>S&#45;2544</title>
<polygon fill="mediumseagreen" stroke="black" points="1665,-1255 1593,-1233.5 1665,-1212 1737,-1233.5 1665,-1255"/>
<text text-anchor="middle" x="1665" y="-1231" font-family="Arial" font-size="10.00">S&#45;2544</text>
</g>
<!-- ext_circ_112_23_ -->
<g id="node72" class="node">
<title>ext_circ_112_23_</title>
<polygon fill="lightpink" stroke="darkorange" stroke-dasharray="5,2" points="1134,-1053 990,-1053 990,-1010 1134,-1010 1134,-1053"/>
<text text-anchor="middle" x="1062" y="-1034.5" font-family="Arial" font-size="10.00">Circuito:</text>
<text text-anchor="middle" x="1062" y="-1023.5" font-family="Arial" font-size="10.00">112&#45;23&#45;</text>
</g>
<!-- C&#45;0699&#45;&gt;ext_circ_112_23_ -->
<g id="edge74" class="edge">
<title>C&#45;0699&#45;&gt;ext_circ_112_23_</title>
<path fill="none" stroke="darkorange" stroke-dasharray="5,2" d="M1051,-1111.08C1051,-1111.08 1051,-1060.24 1051,-1060.24"/>
<polygon fill="darkorange" stroke="darkorange" points="1053.45,-1060.24 1051,-1053.24 1048.55,-1060.24 1053.45,-1060.24"/>
</g>
<!-- S&#45;2324 -->
<g id="node11" class="node">
<title>S&#45;2324</title>
<polygon fill="mediumseagreen" stroke="black" points="1215,-1356 1143,-1334.5 1215,-1313 1287,-1334.5 1215,-1356"/>
<text text-anchor="middle" x="1215" y="-1332" font-family="Arial" font-size="10.00">S&#45;2324</text>
</g>
<!-- S&#45;2107 -->
<g id="node12" class="node">
<title>S&#45;2107</title>
<polygon fill="mediumseagreen" stroke="black" points="1845,-1255 1773,-1233.5 1845,-1212 1917,-1233.5 1845,-1255"/>
<text text-anchor="middle" x="1845" y="-1231" font-family="Arial" font-size="10.00">S&#45;2107</text>
</g>
<!-- C&#45;1073 -->
<g id="node42" class="node">
<title>C&#45;1073</title>
<ellipse fill="mediumseagreen" stroke="black" cx="1062" cy="-526.5" rx="72" ry="21.5"/>
<text text-anchor="middle" x="1062" y="-524" font-family="Arial" font-size="10.00">C&#45;1073</text>
</g>
<!-- C&#45;1072&#45;&gt;C&#45;1073 -->
<g id="edge70" class="edge">
<title>C&#45;1072&#45;&gt;C&#45;1073</title>
<path fill="none" stroke="blue" stroke-dasharray="5,2" d="M522,-706.83C522,-654.59 522,-526 522,-526 522,-526 983.01,-526 983.01,-526"/>
<polygon fill="blue" stroke="blue" points="983.01,-528.45 990.01,-526 983.01,-523.55 983.01,-528.45"/>
</g>
<!-- S&#45;024 -->
<g id="node14" class="node">
<title>S&#45;024</title>
<polygon fill="mediumseagreen" stroke="black" points="252,-851 180,-829.5 252,-808 324,-829.5 252,-851"/>
<text text-anchor="middle" x="252" y="-827" font-family="Arial" font-size="10.00">S&#45;024</text>
</g>
<!-- C&#45;1270 -->
<g id="node15" class="node">
<title>C&#45;1270</title>
<ellipse fill="mediumseagreen" stroke="black" cx="539" cy="-1233.5" rx="72" ry="21.5"/>
<text text-anchor="middle" x="539" y="-1231" font-family="Arial" font-size="10.00">C&#45;1270</text>
</g>
<!-- S&#45;023 -->
<g id="node47" class="node">
<title>S&#45;023</title>
<polygon fill="mediumseagreen" stroke="black" points="528,-1154 456,-1132.5 528,-1111 600,-1132.5 528,-1154"/>
<text text-anchor="middle" x="528" y="-1130" font-family="Arial" font-size="10.00">S&#45;023</text>
</g>
<!-- C&#45;1270&#45;&gt;S&#45;023 -->
<g id="edge9" class="edge">
<title>C&#45;1270&#45;&gt;S&#45;023</title>
<path fill="none" stroke="#4d4d4d" d="M533.5,-1211.58C533.5,-1211.58 533.5,-1159.66 533.5,-1159.66"/>
<polygon fill="#4d4d4d" stroke="#4d4d4d" points="535.95,-1159.66 533.5,-1152.66 531.05,-1159.66 535.95,-1159.66"/>
</g>
<!-- S&#45;2227 -->
<g id="node16" class="node">
<title>S&#45;2227</title>
<polygon fill="mediumseagreen" stroke="black" points="702,-1053 630,-1031.5 702,-1010 774,-1031.5 702,-1053"/>
<text text-anchor="middle" x="702" y="-1029" font-family="Arial" font-size="10.00">S&#45;2227</text>
</g>
<!-- R&#45;187 -->
<g id="node17" class="node">
<title>R&#45;187</title>
<polygon fill="tomato" stroke="black" points="2823,-1123.59 2823,-1141.41 2780.82,-1154 2721.18,-1154 2679,-1141.41 2679,-1123.59 2721.18,-1111 2780.82,-1111 2823,-1123.59"/>
<text text-anchor="middle" x="2751" y="-1130" font-family="Arial" font-size="10.00">R&#45;187</text>
</g>
<!-- ext_circ_112_22_ -->
<g id="node73" class="node">
<title>ext_circ_112_22_</title>
<polygon fill="lightpink" stroke="darkorange" stroke-dasharray="5,2" points="2733,-1053 2589,-1053 2589,-1010 2733,-1010 2733,-1053"/>
<text text-anchor="middle" x="2661" y="-1034.5" font-family="Arial" font-size="10.00">Circuito:</text>
<text text-anchor="middle" x="2661" y="-1023.5" font-family="Arial" font-size="10.00">112&#45;22&#45;</text>
</g>
<!-- R&#45;187&#45;&gt;ext_circ_112_22_ -->
<g id="edge77" class="edge">
<title>R&#45;187&#45;&gt;ext_circ_112_22_</title>
<path fill="none" stroke="darkorange" stroke-dasharray="5,2" d="M2706,-1115.37C2706,-1115.37 2706,-1060.31 2706,-1060.31"/>
<polygon fill="darkorange" stroke="darkorange" points="2708.45,-1060.31 2706,-1053.31 2703.55,-1060.31 2708.45,-1060.31"/>
</g>
<!-- S&#45;2513 -->
<g id="node18" class="node">
<title>S&#45;2513</title>
<polygon fill="mediumseagreen" stroke="black" points="882,-1053 810,-1031.5 882,-1010 954,-1031.5 882,-1053"/>
<text text-anchor="middle" x="882" y="-1029" font-family="Arial" font-size="10.00">S&#45;2513</text>
</g>
<!-- S&#45;2448 -->
<g id="node19" class="node">
<title>S&#45;2448</title>
<polygon fill="mediumseagreen" stroke="black" points="72,-952 0,-930.5 72,-909 144,-930.5 72,-952"/>
<text text-anchor="middle" x="72" y="-928" font-family="Arial" font-size="10.00">S&#45;2448</text>
</g>
<!-- S&#45;2312 -->
<g id="node40" class="node">
<title>S&#45;2312</title>
<polygon fill="mediumseagreen" stroke="black" points="72,-851 0,-829.5 72,-808 144,-829.5 72,-851"/>
<text text-anchor="middle" x="72" y="-827" font-family="Arial" font-size="10.00">S&#45;2312</text>
</g>
<!-- S&#45;2448&#45;&gt;S&#45;2312 -->
<g id="edge42" class="edge">
<title>S&#45;2448&#45;&gt;S&#45;2312</title>
<path fill="none" stroke="#4d4d4d" d="M72,-908.58C72,-908.58 72,-858.03 72,-858.03"/>
<polygon fill="#4d4d4d" stroke="#4d4d4d" points="74.45,-858.03 72,-851.03 69.55,-858.03 74.45,-858.03"/>
</g>
<!-- R&#45;088 -->
<g id="node20" class="node">
<title>R&#45;088</title>
<polygon fill="tomato" stroke="black" points="864,-315.59 864,-333.41 821.82,-346 762.18,-346 720,-333.41 720,-315.59 762.18,-303 821.82,-303 864,-315.59"/>
<text text-anchor="middle" x="792" y="-322" font-family="Arial" font-size="10.00">R&#45;088</text>
</g>
<!-- ext_circ_307_23_ -->
<g id="node71" class="node">
<title>ext_circ_307_23_</title>
<polygon fill="lightpink" stroke="darkorange" stroke-dasharray="5,2" points="864,-245 720,-245 720,-202 864,-202 864,-245"/>
<text text-anchor="middle" x="792" y="-226.5" font-family="Arial" font-size="10.00">Circuito:</text>
<text text-anchor="middle" x="792" y="-215.5" font-family="Arial" font-size="10.00">307&#45;23&#45;</text>
</g>
<!-- R&#45;088&#45;&gt;ext_circ_307_23_ -->
<g id="edge73" class="edge">
<title>R&#45;088&#45;&gt;ext_circ_307_23_</title>
<path fill="none" stroke="darkorange" stroke-dasharray="5,2" d="M792,-302.58C792,-302.58 792,-252.03 792,-252.03"/>
<polygon fill="darkorange" stroke="darkorange" points="794.45,-252.03 792,-245.03 789.55,-252.03 794.45,-252.03"/>
</g>
<!-- S&#45;025 -->
<g id="node22" class="node">
<title>S&#45;025</title>
<polygon fill="mediumseagreen" stroke="black" points="432,-851 360,-829.5 432,-808 504,-829.5 432,-851"/>
<text text-anchor="middle" x="432" y="-827" font-family="Arial" font-size="10.00">S&#45;025</text>
</g>
<!-- S&#45;1783 -->
<g id="node28" class="node">
<title>S&#45;1783</title>
<polygon fill="mediumseagreen" stroke="black" points="162,-750 90,-728.5 162,-707 234,-728.5 162,-750"/>
<text text-anchor="middle" x="162" y="-726" font-family="Arial" font-size="10.00">S&#45;1783</text>
</g>
<!-- S&#45;025&#45;&gt;S&#45;1783 -->
<g id="edge15" class="edge">
<title>S&#45;025&#45;&gt;S&#45;1783</title>
<path fill="none" stroke="#4d4d4d" d="M378,-824.07C378,-812.83 378,-788 378,-788 378,-788 207,-788 207,-788 207,-788 207,-743.77 207,-743.77"/>
<polygon fill="#4d4d4d" stroke="#4d4d4d" points="209.45,-743.77 207,-736.77 204.55,-743.77 209.45,-743.77"/>
</g>
<!-- C&#45;0737 -->
<g id="node23" class="node">
<title>C&#45;0737</title>
<ellipse fill="tomato" stroke="black" cx="1035" cy="-122.5" rx="72" ry="21.5"/>
<text text-anchor="middle" x="1035" y="-120" font-family="Arial" font-size="10.00">C&#45;0737</text>
</g>
<!-- ext_circ_303_25_ -->
<g id="node70" class="node">
<title>ext_circ_303_25_</title>
<polygon fill="lightpink" stroke="darkorange" stroke-dasharray="5,2" points="1229,-43 1085,-43 1085,0 1229,0 1229,-43"/>
<text text-anchor="middle" x="1157" y="-24.5" font-family="Arial" font-size="10.00">Circuito:</text>
<text text-anchor="middle" x="1157" y="-13.5" font-family="Arial" font-size="10.00">303&#45;25&#45;</text>
</g>
<!-- C&#45;0737&#45;&gt;ext_circ_303_25_ -->
<g id="edge71" class="edge">
<title>C&#45;0737&#45;&gt;ext_circ_303_25_</title>
<path fill="none" stroke="darkorange" stroke-dasharray="5,2" d="M1096,-110.91C1096,-110.91 1096,-50.19 1096,-50.19"/>
<polygon fill="darkorange" stroke="darkorange" points="1098.45,-50.19 1096,-43.19 1093.55,-50.19 1098.45,-50.19"/>
</g>
<!-- S&#45;2512 -->
<g id="node24" class="node">
<title>S&#45;2512</title>
<polygon fill="mediumseagreen" stroke="black" points="522,-952 450,-930.5 522,-909 594,-930.5 522,-952"/>
<text text-anchor="middle" x="522" y="-928" font-family="Arial" font-size="10.00">S&#45;2512</text>
</g>
<!-- S&#45;1325 -->
<g id="node26" class="node">
<title>S&#45;1325</title>
<polygon fill="mediumseagreen" stroke="black" points="972,-346 900,-324.5 972,-303 1044,-324.5 972,-346"/>
<text text-anchor="middle" x="972" y="-322" font-family="Arial" font-size="10.00">S&#45;1325</text>
</g>
<!-- S&#45;558 -->
<g id="node27" class="node">
<title>S&#45;558</title>
<polygon fill="mediumseagreen" stroke="black" points="1395,-1356 1323,-1334.5 1395,-1313 1467,-1334.5 1395,-1356"/>
<text text-anchor="middle" x="1395" y="-1332" font-family="Arial" font-size="10.00">S&#45;558</text>
</g>
<!-- S&#45;1905 -->
<g id="node29" class="node">
<title>S&#45;1905</title>
<polygon fill="mediumseagreen" stroke="black" points="1385,-649 1313,-627.5 1385,-606 1457,-627.5 1385,-649"/>
<text text-anchor="middle" x="1385" y="-625" font-family="Arial" font-size="10.00">S&#45;1905</text>
</g>
<!-- S&#45;028 -->
<g id="node30" class="node">
<title>S&#45;028</title>
<polygon fill="mediumseagreen" stroke="black" points="1099,-245 1027,-223.5 1099,-202 1171,-223.5 1099,-245"/>
<text text-anchor="middle" x="1099" y="-221" font-family="Arial" font-size="10.00">S&#45;028</text>
</g>
<!-- C&#45;1234 -->
<g id="node32" class="node">
<title>C&#45;1234</title>
<ellipse fill="mediumseagreen" stroke="black" cx="945" cy="-1536.5" rx="72" ry="21.5"/>
<text text-anchor="middle" x="945" y="-1534" font-family="Arial" font-size="10.00">C&#45;1234</text>
</g>
<!-- C&#45;1271 -->
<g id="node44" class="node">
<title>C&#45;1271</title>
<ellipse fill="tomato" stroke="black" cx="855" cy="-1435.5" rx="72" ry="21.5"/>
<text text-anchor="middle" x="855" y="-1433" font-family="Arial" font-size="10.00">C&#45;1271</text>
</g>
<!-- C&#45;1234&#45;&gt;C&#45;1271 -->
<g id="edge5" class="edge">
<title>C&#45;1234&#45;&gt;C&#45;1271</title>
<path fill="none" stroke="#4d4d4d" d="M900,-1519.37C900,-1519.37 900,-1459.38 900,-1459.38"/>
<polygon fill="#4d4d4d" stroke="#4d4d4d" points="902.45,-1459.38 900,-1452.38 897.55,-1459.38 902.45,-1459.38"/>
</g>
<!-- S&#45;021 -->
<g id="node48" class="node">
<title>S&#45;021</title>
<polygon fill="mediumseagreen" stroke="black" points="1035,-1457 963,-1435.5 1035,-1414 1107,-1435.5 1035,-1457"/>
<text text-anchor="middle" x="1035" y="-1433" font-family="Arial" font-size="10.00">S&#45;021</text>
</g>
<!-- C&#45;1234&#45;&gt;S&#45;021 -->
<g id="edge47" class="edge">
<title>C&#45;1234&#45;&gt;S&#45;021</title>
<path fill="none" stroke="#4d4d4d" d="M990,-1519.37C990,-1519.37 990,-1450.78 990,-1450.78"/>
<polygon fill="#4d4d4d" stroke="#4d4d4d" points="992.45,-1450.78 990,-1443.78 987.55,-1450.78 992.45,-1450.78"/>
</g>
<!-- C&#45;1269 -->
<g id="node60" class="node">
<title>C&#45;1269</title>
<ellipse fill="mediumseagreen" stroke="black" cx="585" cy="-1435.5" rx="72" ry="21.5"/>
<text text-anchor="middle" x="585" y="-1433" font-family="Arial" font-size="10.00">C&#45;1269</text>
</g>
<!-- C&#45;1234&#45;&gt;C&#45;1269 -->
<g id="edge6" class="edge">
<title>C&#45;1234&#45;&gt;C&#45;1269</title>
<path fill="none" stroke="#4d4d4d" d="M873.01,-1536C767.96,-1536 585,-1536 585,-1536 585,-1536 585,-1464.31 585,-1464.31"/>
<polygon fill="#4d4d4d" stroke="#4d4d4d" points="587.45,-1464.31 585,-1457.31 582.55,-1464.31 587.45,-1464.31"/>
</g>
<!-- S&#45;2447 -->
<g id="node33" class="node">
<title>S&#45;2447</title>
<polygon fill="mediumseagreen" stroke="black" points="72,-1053 0,-1031.5 72,-1010 144,-1031.5 72,-1053"/>
<text text-anchor="middle" x="72" y="-1029" font-family="Arial" font-size="10.00">S&#45;2447</text>
</g>
<!-- S&#45;2447&#45;&gt;S&#45;2448 -->
<g id="edge41" class="edge">
<title>S&#45;2447&#45;&gt;S&#45;2448</title>
<path fill="none" stroke="#4d4d4d" d="M72,-1009.58C72,-1009.58 72,-959.03 72,-959.03"/>
<polygon fill="#4d4d4d" stroke="#4d4d4d" points="74.45,-959.03 72,-952.03 69.55,-959.03 74.45,-959.03"/>
</g>
<!-- R&#45;068 -->
<g id="node34" class="node">
<title>R&#45;068</title>
<polygon fill="mediumseagreen" stroke="black" points="612,-1325.59 612,-1343.41 569.82,-1356 510.18,-1356 468,-1343.41 468,-1325.59 510.18,-1313 569.82,-1313 612,-1325.59"/>
<text text-anchor="middle" x="540" y="-1332" font-family="Arial" font-size="10.00">R&#45;068</text>
</g>
<!-- R&#45;068&#45;&gt;C&#45;1270 -->
<g id="edge8" class="edge">
<title>R&#45;068&#45;&gt;C&#45;1270</title>
<path fill="none" stroke="#4d4d4d" d="M539.5,-1312.58C539.5,-1312.58 539.5,-1262.03 539.5,-1262.03"/>
<polygon fill="#4d4d4d" stroke="#4d4d4d" points="541.95,-1262.03 539.5,-1255.03 537.05,-1262.03 541.95,-1262.03"/>
</g>
<!-- R&#45;260 -->
<g id="node63" class="node">
<title>R&#45;260</title>
<polygon fill="mediumseagreen" stroke="black" points="1134,-618.59 1134,-636.41 1091.82,-649 1032.18,-649 990,-636.41 990,-618.59 1032.18,-606 1091.82,-606 1134,-618.59"/>
<text text-anchor="middle" x="1062" y="-625" font-family="Arial" font-size="10.00">R&#45;260</text>
</g>
<!-- C&#45;1071&#45;&gt;R&#45;260 -->
<g id="edge27" class="edge">
<title>C&#45;1071&#45;&gt;R&#45;260</title>
<path fill="none" stroke="#4d4d4d" d="M1062,-706.58C1062,-706.58 1062,-656.03 1062,-656.03"/>
<polygon fill="#4d4d4d" stroke="#4d4d4d" points="1064.45,-656.03 1062,-649.03 1059.55,-656.03 1064.45,-656.03"/>
</g>
<!-- C&#45;0621 -->
<g id="node37" class="node">
<title>C&#45;0621</title>
<ellipse fill="mediumseagreen" stroke="black" cx="1062" cy="-425.5" rx="72" ry="21.5"/>
<text text-anchor="middle" x="1062" y="-423" font-family="Arial" font-size="10.00">C&#45;0621</text>
</g>
<!-- C&#45;0621&#45;&gt;R&#45;088 -->
<g id="edge38" class="edge">
<title>C&#45;0621&#45;&gt;R&#45;088</title>
<path fill="none" stroke="#4d4d4d" d="M989.88,-425C924.07,-425 837,-425 837,-425 837,-425 837,-348.55 837,-348.55"/>
<polygon fill="#4d4d4d" stroke="#4d4d4d" points="839.45,-348.55 837,-341.55 834.55,-348.55 839.45,-348.55"/>
</g>
<!-- C&#45;0621&#45;&gt;S&#45;1325 -->
<g id="edge39" class="edge">
<title>C&#45;0621&#45;&gt;S&#45;1325</title>
<path fill="none" stroke="#4d4d4d" d="M1017,-408.37C1017,-408.37 1017,-339.78 1017,-339.78"/>
<polygon fill="#4d4d4d" stroke="#4d4d4d" points="1019.45,-339.78 1017,-332.78 1014.55,-339.78 1019.45,-339.78"/>
</g>
<!-- S&#45;344 -->
<g id="node56" class="node">
<title>S&#45;344</title>
<polygon fill="mediumseagreen" stroke="black" points="1152,-346 1080,-324.5 1152,-303 1224,-324.5 1152,-346"/>
<text text-anchor="middle" x="1152" y="-322" font-family="Arial" font-size="10.00">S&#45;344</text>
</g>
<!-- C&#45;0621&#45;&gt;S&#45;344 -->
<g id="edge30" class="edge">
<title>C&#45;0621&#45;&gt;S&#45;344</title>
<path fill="none" stroke="#4d4d4d" d="M1107,-408.37C1107,-408.37 1107,-339.78 1107,-339.78"/>
<polygon fill="#4d4d4d" stroke="#4d4d4d" points="1109.45,-339.78 1107,-332.78 1104.55,-339.78 1109.45,-339.78"/>
</g>
<!-- S&#45;1196 -->
<g id="node64" class="node">
<title>S&#45;1196</title>
<polygon fill="mediumseagreen" stroke="black" points="1332,-346 1260,-324.5 1332,-303 1404,-324.5 1332,-346"/>
<text text-anchor="middle" x="1332" y="-322" font-family="Arial" font-size="10.00">S&#45;1196</text>
</g>
<!-- C&#45;0621&#45;&gt;S&#45;1196 -->
<g id="edge37" class="edge">
<title>C&#45;0621&#45;&gt;S&#45;1196</title>
<path fill="none" stroke="#4d4d4d" d="M1134.27,-425C1199.9,-425 1286.5,-425 1286.5,-425 1286.5,-425 1286.5,-339.72 1286.5,-339.72"/>
<polygon fill="#4d4d4d" stroke="#4d4d4d" points="1288.95,-339.72 1286.5,-332.72 1284.05,-339.72 1288.95,-339.72"/>
</g>
<!-- C&#45;0454 -->
<g id="node38" class="node">
<title>C&#45;0454</title>
<ellipse fill="mediumseagreen" stroke="black" cx="342" cy="-930.5" rx="72" ry="21.5"/>
<text text-anchor="middle" x="342" y="-928" font-family="Arial" font-size="10.00">C&#45;0454</text>
</g>
<!-- C&#45;0454&#45;&gt;S&#45;026 -->
<g id="edge16" class="edge">
<title>C&#45;0454&#45;&gt;S&#45;026</title>
<path fill="none" stroke="#4d4d4d" d="M396,-916.16C396,-901.23 396,-880 396,-880 396,-880 882,-880 882,-880 882,-880 882,-858.21 882,-858.21"/>
<polygon fill="#4d4d4d" stroke="#4d4d4d" points="884.45,-858.21 882,-851.21 879.55,-858.21 884.45,-858.21"/>
</g>
<!-- C&#45;0454&#45;&gt;S&#45;024 -->
<g id="edge13" class="edge">
<title>C&#45;0454&#45;&gt;S&#45;024</title>
<path fill="none" stroke="#4d4d4d" d="M297,-913.37C297,-913.37 297,-844.78 297,-844.78"/>
<polygon fill="#4d4d4d" stroke="#4d4d4d" points="299.45,-844.78 297,-837.78 294.55,-844.78 299.45,-844.78"/>
</g>
<!-- C&#45;0454&#45;&gt;S&#45;025 -->
<g id="edge14" class="edge">
<title>C&#45;0454&#45;&gt;S&#45;025</title>
<path fill="none" stroke="#4d4d4d" d="M378,-911.5C378,-911.5 378,-841.97 378,-841.97"/>
<polygon fill="#4d4d4d" stroke="#4d4d4d" points="380.45,-841.97 378,-834.97 375.55,-841.97 380.45,-841.97"/>
</g>
<!-- S&#45;2368 -->
<g id="node39" class="node">
<title>S&#45;2368</title>
<polygon fill="mediumseagreen" stroke="black" points="1575,-1356 1503,-1334.5 1575,-1313 1647,-1334.5 1575,-1356"/>
<text text-anchor="middle" x="1575" y="-1332" font-family="Arial" font-size="10.00">S&#45;2368</text>
</g>
<!-- C&#45;0397 -->
<g id="node41" class="node">
<title>C&#45;0397</title>
<ellipse fill="mediumseagreen" stroke="black" cx="1845" cy="-1435.5" rx="72" ry="21.5"/>
<text text-anchor="middle" x="1845" y="-1433" font-family="Arial" font-size="10.00">C&#45;0397</text>
</g>
<!-- C&#45;0397&#45;&gt;S&#45;2524 -->
<g id="edge67" class="edge">
<title>C&#45;0397&#45;&gt;S&#45;2524</title>
<path fill="none" stroke="#4d4d4d" d="M1916.04,-1439C2080.81,-1439 2475,-1439 2475,-1439 2475,-1439 2475,-1363.15 2475,-1363.15"/>
<polygon fill="#4d4d4d" stroke="#4d4d4d" points="2477.45,-1363.15 2475,-1356.15 2472.55,-1363.15 2477.45,-1363.15"/>
</g>
<!-- C&#45;0397&#45;&gt;S&#45;1202 -->
<g id="edge57" class="edge">
<title>C&#45;0397&#45;&gt;S&#45;1202</title>
<path fill="none" stroke="#4d4d4d" d="M1903.91,-1448C2090.3,-1448 2655,-1448 2655,-1448 2655,-1448 2655,-1363.12 2655,-1363.12"/>
<polygon fill="#4d4d4d" stroke="#4d4d4d" points="2657.45,-1363.12 2655,-1356.12 2652.55,-1363.12 2657.45,-1363.12"/>
</g>
<!-- C&#45;0397&#45;&gt;S&#45;2324 -->
<g id="edge66" class="edge">
<title>C&#45;0397&#45;&gt;S&#45;2324</title>
<path fill="none" stroke="#4d4d4d" d="M1773.96,-1439C1609.19,-1439 1215,-1439 1215,-1439 1215,-1439 1215,-1363.15 1215,-1363.15"/>
<polygon fill="#4d4d4d" stroke="#4d4d4d" points="1217.45,-1363.15 1215,-1356.15 1212.55,-1363.15 1217.45,-1363.15"/>
</g>
<!-- C&#45;0397&#45;&gt;S&#45;558 -->
<g id="edge56" class="edge">
<title>C&#45;0397&#45;&gt;S&#45;558</title>
<path fill="none" stroke="#4d4d4d" d="M1774.45,-1431C1658.42,-1431 1440,-1431 1440,-1431 1440,-1431 1440,-1349.73 1440,-1349.73"/>
<polygon fill="#4d4d4d" stroke="#4d4d4d" points="1442.45,-1349.73 1440,-1342.73 1437.55,-1349.73 1442.45,-1349.73"/>
</g>
<!-- C&#45;0397&#45;&gt;S&#45;2368 -->
<g id="edge65" class="edge">
<title>C&#45;0397&#45;&gt;S&#45;2368</title>
<path fill="none" stroke="#4d4d4d" d="M1788.95,-1422C1717.18,-1422 1602,-1422 1602,-1422 1602,-1422 1602,-1355.17 1602,-1355.17"/>
<polygon fill="#4d4d4d" stroke="#4d4d4d" points="1604.45,-1355.17 1602,-1348.17 1599.55,-1355.17 1604.45,-1355.17"/>
</g>
<!-- S&#45;007 -->
<g id="node45" class="node">
<title>S&#45;007</title>
<polygon fill="mediumseagreen" stroke="black" points="1755,-1356 1683,-1334.5 1755,-1313 1827,-1334.5 1755,-1356"/>
<text text-anchor="middle" x="1755" y="-1332" font-family="Arial" font-size="10.00">S&#45;007</text>
</g>
<!-- C&#45;0397&#45;&gt;S&#45;007 -->
<g id="edge59" class="edge">
<title>C&#45;0397&#45;&gt;S&#45;007</title>
<path fill="none" stroke="#4d4d4d" d="M1800,-1418.37C1800,-1418.37 1800,-1349.78 1800,-1349.78"/>
<polygon fill="#4d4d4d" stroke="#4d4d4d" points="1802.45,-1349.78 1800,-1342.78 1797.55,-1349.78 1802.45,-1349.78"/>
</g>
<!-- S&#45;020 -->
<g id="node54" class="node">
<title>S&#45;020</title>
<polygon fill="mediumseagreen" stroke="black" points="2295,-1356 2223,-1334.5 2295,-1313 2367,-1334.5 2295,-1356"/>
<text text-anchor="middle" x="2295" y="-1332" font-family="Arial" font-size="10.00">S&#45;020</text>
</g>
<!-- C&#45;0397&#45;&gt;S&#45;020 -->
<g id="edge55" class="edge">
<title>C&#45;0397&#45;&gt;S&#45;020</title>
<path fill="none" stroke="#4d4d4d" d="M1915.82,-1431C2036.96,-1431 2271,-1431 2271,-1431 2271,-1431 2271,-1356.16 2271,-1356.16"/>
<polygon fill="#4d4d4d" stroke="#4d4d4d" points="2273.45,-1356.16 2271,-1349.16 2268.55,-1356.16 2273.45,-1356.16"/>
</g>
<!-- S&#45;1802 -->
<g id="node59" class="node">
<title>S&#45;1802</title>
<polygon fill="mediumseagreen" stroke="black" points="1935,-1356 1863,-1334.5 1935,-1313 2007,-1334.5 1935,-1356"/>
<text text-anchor="middle" x="1935" y="-1332" font-family="Arial" font-size="10.00">S&#45;1802</text>
</g>
<!-- C&#45;0397&#45;&gt;S&#45;1802 -->
<g id="edge68" class="edge">
<title>C&#45;0397&#45;&gt;S&#45;1802</title>
<path fill="none" stroke="#4d4d4d" d="M1890,-1418.37C1890,-1418.37 1890,-1349.78 1890,-1349.78"/>
<polygon fill="#4d4d4d" stroke="#4d4d4d" points="1892.45,-1349.78 1890,-1342.78 1887.55,-1349.78 1892.45,-1349.78"/>
</g>
<!-- S&#45;1703 -->
<g id="node65" class="node">
<title>S&#45;1703</title>
<polygon fill="mediumseagreen" stroke="black" points="2115,-1356 2043,-1334.5 2115,-1313 2187,-1334.5 2115,-1356"/>
<text text-anchor="middle" x="2115" y="-1332" font-family="Arial" font-size="10.00">S&#45;1703</text>
</g>
<!-- C&#45;0397&#45;&gt;S&#45;1703 -->
<g id="edge58" class="edge">
<title>C&#45;0397&#45;&gt;S&#45;1703</title>
<path fill="none" stroke="#4d4d4d" d="M1901.27,-1422C1980.4,-1422 2115,-1422 2115,-1422 2115,-1422 2115,-1363.13 2115,-1363.13"/>
<polygon fill="#4d4d4d" stroke="#4d4d4d" points="2117.45,-1363.13 2115,-1356.13 2112.55,-1363.13 2117.45,-1363.13"/>
</g>
<!-- C&#45;1073&#45;&gt;C&#45;0621 -->
<g id="edge29" class="edge">
<title>C&#45;1073&#45;&gt;C&#45;0621</title>
<path fill="none" stroke="#4d4d4d" d="M1062,-504.58C1062,-504.58 1062,-454.03 1062,-454.03"/>
<polygon fill="#4d4d4d" stroke="#4d4d4d" points="1064.45,-454.03 1062,-447.03 1059.55,-454.03 1064.45,-454.03"/>
</g>
<!-- C&#45;0395 -->
<g id="node43" class="node">
<title>C&#45;0395</title>
<ellipse fill="tomato" stroke="black" cx="765" cy="-1637.5" rx="72" ry="21.5"/>
<text text-anchor="middle" x="765" y="-1635" font-family="Arial" font-size="10.00">C&#45;0395</text>
</g>
<!-- C&#45;0395&#45;&gt;S&#45;020 -->
<g id="edge75" class="edge">
<title>C&#45;0395&#45;&gt;S&#45;020</title>
<path fill="none" stroke="blue" stroke-dasharray="5,2" d="M810,-1620.68C810,-1605.99 810,-1587 810,-1587 810,-1587 2319,-1587 2319,-1587 2319,-1587 2319,-1356.17 2319,-1356.17"/>
<polygon fill="blue" stroke="blue" points="2321.45,-1356.17 2319,-1349.17 2316.55,-1356.17 2321.45,-1356.17"/>
</g>
<!-- C&#45;1271&#45;&gt;C&#45;1270 -->
<g id="edge69" class="edge">
<title>C&#45;1271&#45;&gt;C&#45;1270</title>
<path fill="none" stroke="blue" stroke-dasharray="5,2" d="M796.5,-1422.83C796.5,-1378.5 796.5,-1233 796.5,-1233 796.5,-1233 618.07,-1233 618.07,-1233"/>
<polygon fill="blue" stroke="blue" points="618.07,-1230.55 611.07,-1233 618.07,-1235.45 618.07,-1230.55"/>
</g>
<!-- S&#45;007&#45;&gt;S&#45;2544 -->
<g id="edge61" class="edge">
<title>S&#45;007&#45;&gt;S&#45;2544</title>
<path fill="none" stroke="#4d4d4d" d="M1710,-1326.23C1710,-1326.23 1710,-1248.6 1710,-1248.6"/>
<polygon fill="#4d4d4d" stroke="#4d4d4d" points="1712.45,-1248.6 1710,-1241.6 1707.55,-1248.6 1712.45,-1248.6"/>
</g>
<!-- S&#45;007&#45;&gt;S&#45;2107 -->
<g id="edge60" class="edge">
<title>S&#45;007&#45;&gt;S&#45;2107</title>
<path fill="none" stroke="#4d4d4d" d="M1800,-1326.23C1800,-1326.23 1800,-1248.6 1800,-1248.6"/>
<polygon fill="#4d4d4d" stroke="#4d4d4d" points="1802.45,-1248.6 1800,-1241.6 1797.55,-1248.6 1802.45,-1248.6"/>
</g>
<!-- C&#45;0830&#45;&gt;ext_circ_112_22_ -->
<g id="edge76" class="edge">
<title>C&#45;0830&#45;&gt;ext_circ_112_22_</title>
<path fill="none" stroke="darkorange" stroke-dasharray="5,2" d="M2616,-1115.37C2616,-1115.37 2616,-1060.31 2616,-1060.31"/>
<polygon fill="darkorange" stroke="darkorange" points="2618.45,-1060.31 2616,-1053.31 2613.55,-1060.31 2618.45,-1060.31"/>
</g>
<!-- S&#45;023&#45;&gt;S&#45;2227 -->
<g id="edge46" class="edge">
<title>S&#45;023&#45;&gt;S&#45;2227</title>
<path fill="none" stroke="#4d4d4d" d="M574.98,-1125C606.96,-1125 643.5,-1125 643.5,-1125 643.5,-1125 643.5,-1042.76 643.5,-1042.76"/>
<polygon fill="#4d4d4d" stroke="#4d4d4d" points="645.95,-1042.76 643.5,-1035.76 641.05,-1042.76 645.95,-1042.76"/>
</g>
<!-- S&#45;023&#45;&gt;S&#45;2513 -->
<g id="edge43" class="edge">
<title>S&#45;023&#45;&gt;S&#45;2513</title>
<path fill="none" stroke="#4d4d4d" d="M578.24,-1139C672.96,-1139 868.5,-1139 868.5,-1139 868.5,-1139 868.5,-1056.25 868.5,-1056.25"/>
<polygon fill="#4d4d4d" stroke="#4d4d4d" points="870.95,-1056.25 868.5,-1049.25 866.05,-1056.25 870.95,-1056.25"/>
</g>
<!-- S&#45;023&#45;&gt;S&#45;2447 -->
<g id="edge10" class="edge">
<title>S&#45;023&#45;&gt;S&#45;2447</title>
<path fill="none" stroke="#4d4d4d" d="M477.46,-1139C358.73,-1139 72,-1139 72,-1139 72,-1139 72,-1060.25 72,-1060.25"/>
<polygon fill="#4d4d4d" stroke="#4d4d4d" points="74.45,-1060.25 72,-1053.25 69.55,-1060.25 74.45,-1060.25"/>
</g>
<!-- C&#45;0455 -->
<g id="node49" class="node">
<title>C&#45;0455</title>
<ellipse fill="mediumseagreen" stroke="black" cx="342" cy="-1031.5" rx="72" ry="21.5"/>
<text text-anchor="middle" x="342" y="-1029" font-family="Arial" font-size="10.00">C&#45;0455</text>
</g>
<!-- S&#45;023&#45;&gt;C&#45;0455 -->
<g id="edge11" class="edge">
<title>S&#45;023&#45;&gt;C&#45;0455</title>
<path fill="none" stroke="#4d4d4d" d="M481.06,-1125C425.96,-1125 342,-1125 342,-1125 342,-1125 342,-1060.19 342,-1060.19"/>
<polygon fill="#4d4d4d" stroke="#4d4d4d" points="344.45,-1060.19 342,-1053.19 339.55,-1060.19 344.45,-1060.19"/>
</g>
<!-- S&#45;2514 -->
<g id="node66" class="node">
<title>S&#45;2514</title>
<polygon fill="mediumseagreen" stroke="black" points="522,-1053 450,-1031.5 522,-1010 594,-1031.5 522,-1053"/>
<text text-anchor="middle" x="522" y="-1029" font-family="Arial" font-size="10.00">S&#45;2514</text>
</g>
<!-- S&#45;023&#45;&gt;S&#45;2514 -->
<g id="edge44" class="edge">
<title>S&#45;023&#45;&gt;S&#45;2514</title>
<path fill="none" stroke="#4d4d4d" d="M525,-1111.57C525,-1111.57 525,-1059.4 525,-1059.4"/>
<polygon fill="#4d4d4d" stroke="#4d4d4d" points="527.45,-1059.4 525,-1052.4 522.55,-1059.4 527.45,-1059.4"/>
</g>
<!-- S&#45;030 -->
<g id="node62" class="node">
<title>S&#45;030</title>
<polygon fill="mediumseagreen" stroke="black" points="1035,-1356 963,-1334.5 1035,-1313 1107,-1334.5 1035,-1356"/>
<text text-anchor="middle" x="1035" y="-1332" font-family="Arial" font-size="10.00">S&#45;030</text>
</g>
<!-- S&#45;021&#45;&gt;S&#45;030 -->
<g id="edge48" class="edge">
<title>S&#45;021&#45;&gt;S&#45;030</title>
<path fill="none" stroke="#4d4d4d" d="M1035,-1413.58C1035,-1413.58 1035,-1363.03 1035,-1363.03"/>
<polygon fill="#4d4d4d" stroke="#4d4d4d" points="1037.45,-1363.03 1035,-1356.03 1032.55,-1363.03 1037.45,-1363.03"/>
</g>
<!-- C&#45;0455&#45;&gt;C&#45;0454 -->
<g id="edge12" class="edge">
<title>C&#45;0455&#45;&gt;C&#45;0454</title>
<path fill="none" stroke="#4d4d4d" d="M342,-1009.58C342,-1009.58 342,-959.03 342,-959.03"/>
<polygon fill="#4d4d4d" stroke="#4d4d4d" points="344.45,-959.03 342,-952.03 339.55,-959.03 344.45,-959.03"/>
</g>
<!-- R&#45;161 -->
<g id="node50" class="node">
<title>R&#45;161</title>
<polygon fill="tomato" stroke="black" points="1319,-113.59 1319,-131.41 1276.82,-144 1217.18,-144 1175,-131.41 1175,-113.59 1217.18,-101 1276.82,-101 1319,-113.59"/>
<text text-anchor="middle" x="1247" y="-120" font-family="Arial" font-size="10.00">R&#45;161</text>
</g>
<!-- R&#45;161&#45;&gt;ext_circ_303_25_ -->
<g id="edge72" class="edge">
<title>R&#45;161&#45;&gt;ext_circ_303_25_</title>
<path fill="none" stroke="darkorange" stroke-dasharray="5,2" d="M1202,-105.37C1202,-105.37 1202,-50.31 1202,-50.31"/>
<polygon fill="darkorange" stroke="darkorange" points="1204.45,-50.31 1202,-43.31 1199.55,-50.31 1204.45,-50.31"/>
</g>
<!-- C&#45;0019 -->
<g id="node52" class="node">
<title>C&#45;0019</title>
<ellipse fill="mediumseagreen" stroke="black" cx="945" cy="-1637.5" rx="72" ry="21.5"/>
<text text-anchor="middle" x="945" y="-1635" font-family="Arial" font-size="10.00">C&#45;0019</text>
</g>
<!-- C&#45;0019&#45;&gt;C&#45;1234 -->
<g id="edge4" class="edge">
<title>C&#45;0019&#45;&gt;C&#45;1234</title>
<path fill="none" stroke="#4d4d4d" d="M945,-1615.58C945,-1615.58 945,-1565.03 945,-1565.03"/>
<polygon fill="#4d4d4d" stroke="#4d4d4d" points="947.45,-1565.03 945,-1558.03 942.55,-1565.03 947.45,-1565.03"/>
</g>
<!-- C&#45;0396 -->
<g id="node53" class="node">
<title>C&#45;0396</title>
<ellipse fill="mediumseagreen" stroke="black" cx="1485" cy="-1637.5" rx="72" ry="21.5"/>
<text text-anchor="middle" x="1485" y="-1635" font-family="Arial" font-size="10.00">C&#45;0396</text>
</g>
<!-- R&#45;135 -->
<g id="node69" class="node">
<title>R&#45;135</title>
<polygon fill="mediumseagreen" stroke="black" points="1557,-1527.59 1557,-1545.41 1514.82,-1558 1455.18,-1558 1413,-1545.41 1413,-1527.59 1455.18,-1515 1514.82,-1515 1557,-1527.59"/>
<text text-anchor="middle" x="1485" y="-1534" font-family="Arial" font-size="10.00">R&#45;135</text>
</g>
<!-- C&#45;0396&#45;&gt;R&#45;135 -->
<g id="edge53" class="edge">
<title>C&#45;0396&#45;&gt;R&#45;135</title>
<path fill="none" stroke="#4d4d4d" d="M1485,-1615.58C1485,-1615.58 1485,-1565.03 1485,-1565.03"/>
<polygon fill="#4d4d4d" stroke="#4d4d4d" points="1487.45,-1565.03 1485,-1558.03 1482.55,-1565.03 1487.45,-1565.03"/>
</g>
<!-- C&#45;0829&#45;&gt;R&#45;187 -->
<g id="edge64" class="edge">
<title>C&#45;0829&#45;&gt;R&#45;187</title>
<path fill="none" stroke="#4d4d4d" d="M2738,-1212.08C2738,-1212.08 2738,-1161.24 2738,-1161.24"/>
<polygon fill="#4d4d4d" stroke="#4d4d4d" points="2740.45,-1161.24 2738,-1154.24 2735.55,-1161.24 2740.45,-1161.24"/>
</g>
<!-- S&#45;344&#45;&gt;S&#45;2518 -->
<g id="edge35" class="edge">
<title>S&#45;344&#45;&gt;S&#45;2518</title>
<path fill="none" stroke="#4d4d4d" d="M1218.33,-322.33C1218.33,-312.66 1218.33,-274 1218.33,-274 1218.33,-274 1395.5,-274 1395.5,-274 1395.5,-274 1395.5,-233.22 1395.5,-233.22"/>
<polygon fill="#4d4d4d" stroke="#4d4d4d" points="1397.95,-233.22 1395.5,-226.22 1393.05,-233.22 1397.95,-233.22"/>
</g>
<!-- S&#45;344&#45;&gt;C&#45;0737 -->
<g id="edge32" class="edge">
<title>S&#45;344&#45;&gt;C&#45;0737</title>
<path fill="none" stroke="#4d4d4d" d="M1191,-314.56C1191,-280.85 1191,-173 1191,-173 1191,-173 1067,-173 1067,-173 1067,-173 1067,-148.88 1067,-148.88"/>
<polygon fill="#4d4d4d" stroke="#4d4d4d" points="1069.45,-148.88 1067,-141.88 1064.55,-148.88 1069.45,-148.88"/>
</g>
<!-- S&#45;344&#45;&gt;S&#45;028 -->
<g id="edge31" class="edge">
<title>S&#45;344&#45;&gt;S&#45;028</title>
<path fill="none" stroke="#4d4d4d" d="M1125.5,-310.88C1125.5,-310.88 1125.5,-244.23 1125.5,-244.23"/>
<polygon fill="#4d4d4d" stroke="#4d4d4d" points="1127.95,-244.23 1125.5,-237.23 1123.05,-244.23 1127.95,-244.23"/>
</g>
<!-- C&#45;0738 -->
<g id="node61" class="node">
<title>C&#45;0738</title>
<ellipse fill="mediumseagreen" stroke="black" cx="1279" cy="-223.5" rx="72" ry="21.5"/>
<text text-anchor="middle" x="1279" y="-221" font-family="Arial" font-size="10.00">C&#45;0738</text>
</g>
<!-- S&#45;344&#45;&gt;C&#45;0738 -->
<g id="edge33" class="edge">
<title>S&#45;344&#45;&gt;C&#45;0738</title>
<path fill="none" stroke="#4d4d4d" d="M1212.67,-320.66C1212.67,-320.66 1212.67,-239.08 1212.67,-239.08"/>
<polygon fill="#4d4d4d" stroke="#4d4d4d" points="1215.12,-239.08 1212.67,-232.08 1210.22,-239.08 1215.12,-239.08"/>
</g>
<!-- 112&#45;24&#45; -->
<g id="node57" class="node">
<title>112&#45;24&#45;</title>
<polygon fill="gold" stroke="black" points="927,-1834.59 927,-1852.41 884.82,-1865 825.18,-1865 783,-1852.41 783,-1834.59 825.18,-1822 884.82,-1822 927,-1834.59"/>
<polygon fill="none" stroke="black" points="931,-1831.61 931,-1855.39 885.41,-1869 824.59,-1869 779,-1855.39 779,-1831.61 824.59,-1818 885.41,-1818 931,-1831.61"/>
<text text-anchor="middle" x="855" y="-1841" font-family="Arial" font-size="10.00">112&#45;24&#45;</text>
</g>
<!-- S&#45;1195 -->
<g id="node68" class="node">
<title>S&#45;1195</title>
<polygon fill="mediumseagreen" stroke="black" points="855,-1760 783,-1738.5 855,-1717 927,-1738.5 855,-1760"/>
<text text-anchor="middle" x="855" y="-1736" font-family="Arial" font-size="10.00">S&#45;1195</text>
</g>
<!-- 112&#45;24&#45;&#45;&gt;S&#45;1195 -->
<g id="edge1" class="edge">
<title>112&#45;24&#45;&#45;&gt;S&#45;1195</title>
<path fill="none" stroke="#4d4d4d" d="M855,-1817.81C855,-1817.81 855,-1767.03 855,-1767.03"/>
<polygon fill="#4d4d4d" stroke="#4d4d4d" points="857.45,-1767.03 855,-1760.03 852.55,-1767.03 857.45,-1767.03"/>
</g>
<!-- C&#45;1269&#45;&gt;R&#45;068 -->
<g id="edge7" class="edge">
<title>C&#45;1269&#45;&gt;R&#45;068</title>
<path fill="none" stroke="#4d4d4d" d="M562.5,-1415.06C562.5,-1415.06 562.5,-1363.31 562.5,-1363.31"/>
<polygon fill="#4d4d4d" stroke="#4d4d4d" points="564.95,-1363.31 562.5,-1356.31 560.05,-1363.31 564.95,-1363.31"/>
</g>
<!-- C&#45;0738&#45;&gt;R&#45;161 -->
<g id="edge34" class="edge">
<title>C&#45;0738&#45;&gt;R&#45;161</title>
<path fill="none" stroke="#4d4d4d" d="M1263,-202.08C1263,-202.08 1263,-151.24 1263,-151.24"/>
<polygon fill="#4d4d4d" stroke="#4d4d4d" points="1265.45,-151.24 1263,-144.24 1260.55,-151.24 1265.45,-151.24"/>
</g>
<!-- S&#45;030&#45;&gt;S&#45;022 -->
<g id="edge49" class="edge">
<title>S&#45;030&#45;&gt;S&#45;022</title>
<path fill="none" stroke="#4d4d4d" d="M1036,-1313.08C1036,-1313.08 1036,-1261.89 1036,-1261.89"/>
<polygon fill="#4d4d4d" stroke="#4d4d4d" points="1038.45,-1261.89 1036,-1254.89 1033.55,-1261.89 1038.45,-1261.89"/>
</g>
<!-- R&#45;260&#45;&gt;C&#45;1073 -->
<g id="edge28" class="edge">
<title>R&#45;260&#45;&gt;C&#45;1073</title>
<path fill="none" stroke="#4d4d4d" d="M1062,-605.58C1062,-605.58 1062,-555.03 1062,-555.03"/>
<polygon fill="#4d4d4d" stroke="#4d4d4d" points="1064.45,-555.03 1062,-548.03 1059.55,-555.03 1064.45,-555.03"/>
</g>
<!-- S&#45;2514&#45;&gt;S&#45;2512 -->
<g id="edge45" class="edge">
<title>S&#45;2514&#45;&gt;S&#45;2512</title>
<path fill="none" stroke="#4d4d4d" d="M522,-1009.58C522,-1009.58 522,-959.03 522,-959.03"/>
<polygon fill="#4d4d4d" stroke="#4d4d4d" points="524.45,-959.03 522,-952.03 519.55,-959.03 524.45,-959.03"/>
</g>
<!-- S&#45;1371&#45;&gt;S&#45;1905 -->
<g id="edge19" class="edge">
<title>S&#45;1371&#45;&gt;S&#45;1905</title>
<path fill="none" stroke="#4d4d4d" d="M1403.5,-712.27C1403.5,-712.27 1403.5,-650.69 1403.5,-650.69"/>
<polygon fill="#4d4d4d" stroke="#4d4d4d" points="1405.95,-650.69 1403.5,-643.69 1401.05,-650.69 1405.95,-650.69"/>
</g>
<!-- S&#45;1195&#45;&gt;S&#45;2178 -->
<g id="edge2" class="edge">
<title>S&#45;1195&#45;&gt;S&#45;2178</title>
<path fill="none" stroke="#4d4d4d" d="M784.41,-1738C704.41,-1738 585,-1738 585,-1738 585,-1738 585,-1666.31 585,-1666.31"/>
<polygon fill="#4d4d4d" stroke="#4d4d4d" points="587.45,-1666.31 585,-1659.31 582.55,-1666.31 587.45,-1666.31"/>
</g>
<!-- S&#45;1195&#45;&gt;C&#45;0395 -->
<g id="edge52" class="edge">
<title>S&#45;1195&#45;&gt;C&#45;0395</title>
<path fill="none" stroke="#4d4d4d" d="M810,-1730.23C810,-1730.23 810,-1661.52 810,-1661.52"/>
<polygon fill="#4d4d4d" stroke="#4d4d4d" points="812.45,-1661.52 810,-1654.52 807.55,-1661.52 812.45,-1661.52"/>
</g>
<!-- S&#45;1195&#45;&gt;C&#45;0019 -->
<g id="edge3" class="edge">
<title>S&#45;1195&#45;&gt;C&#45;0019</title>
<path fill="none" stroke="#4d4d4d" d="M900,-1730.23C900,-1730.23 900,-1661.52 900,-1661.52"/>
<polygon fill="#4d4d4d" stroke="#4d4d4d" points="902.45,-1661.52 900,-1654.52 897.55,-1661.52 902.45,-1661.52"/>
</g>
<!-- S&#45;1195&#45;&gt;C&#45;0396 -->
<g id="edge51" class="edge">
<title>S&#45;1195&#45;&gt;C&#45;0396</title>
<path fill="none" stroke="#4d4d4d" d="M925.44,-1738C1089.83,-1738 1485,-1738 1485,-1738 1485,-1738 1485,-1666.31 1485,-1666.31"/>
<polygon fill="#4d4d4d" stroke="#4d4d4d" points="1487.45,-1666.31 1485,-1659.31 1482.55,-1666.31 1487.45,-1666.31"/>
</g>
<!-- R&#45;135&#45;&gt;C&#45;0397 -->
<g id="edge54" class="edge">
<title>R&#45;135&#45;&gt;C&#45;0397</title>
<path fill="none" stroke="#4d4d4d" d="M1530,-1519.44C1530,-1493.72 1530,-1448 1530,-1448 1530,-1448 1779.12,-1448 1779.12,-1448"/>
<polygon fill="#4d4d4d" stroke="#4d4d4d" points="1779.12,-1450.45 1786.12,-1448 1779.12,-1445.55 1779.12,-1450.45"/>
</g>
</g>
</svg>
