<?xml version="1.0" encoding="UTF-8" standalone="no"?>
<!DOCTYPE svg PUBLIC "-//W3C//DTD SVG 1.1//EN"
 "http://www.w3.org/Graphics/SVG/1.1/DTD/svg11.dtd">
<!-- Generated by graphviz version 2.50.0 (0)
 -->
<!-- Title: Grafo_Circuito_208_28_ Pages: 1 -->
<svg width="2746pt" height="766pt"
 viewBox="0.00 0.00 2746.00 766.00" xmlns="http://www.w3.org/2000/svg" xmlns:xlink="http://www.w3.org/1999/xlink">
<g id="graph0" class="graph" transform="scale(1 1) rotate(0) translate(4 762)">
<title>Grafo_Circuito_208_28_</title>
<polygon fill="white" stroke="transparent" points="-4,4 -4,-762 2742,-762 2742,4 -4,4"/>
<!-- S&#45;1860 -->
<g id="node1" class="node">
<title>S&#45;1860</title>
<polygon fill="mediumseagreen" stroke="black" points="1046,-346 974,-324.5 1046,-303 1118,-324.5 1046,-346"/>
<text text-anchor="middle" x="1046" y="-322" font-family="Arial" font-size="10.00">S&#45;1860</text>
</g>
<!-- 208&#45;28&#45; -->
<g id="node2" class="node">
<title>208&#45;28&#45;</title>
<polygon fill="gold" stroke="black" points="1487,-723.59 1487,-741.41 1444.82,-754 1385.18,-754 1343,-741.41 1343,-723.59 1385.18,-711 1444.82,-711 1487,-723.59"/>
<polygon fill="none" stroke="black" points="1491,-720.61 1491,-744.39 1445.41,-758 1384.59,-758 1339,-744.39 1339,-720.61 1384.59,-707 1445.41,-707 1491,-720.61"/>
<text text-anchor="middle" x="1415" y="-730" font-family="Arial" font-size="10.00">208&#45;28&#45;</text>
</g>
<!-- C&#45;0678 -->
<g id="node25" class="node">
<title>C&#45;0678</title>
<ellipse fill="mediumseagreen" stroke="black" cx="1415" cy="-627.5" rx="72" ry="21.5"/>
<text text-anchor="middle" x="1415" y="-625" font-family="Arial" font-size="10.00">C&#45;0678</text>
</g>
<!-- 208&#45;28&#45;&#45;&gt;C&#45;0678 -->
<g id="edge1" class="edge">
<title>208&#45;28&#45;&#45;&gt;C&#45;0678</title>
<path fill="none" stroke="#4d4d4d" d="M1415,-706.81C1415,-706.81 1415,-656.03 1415,-656.03"/>
<polygon fill="#4d4d4d" stroke="#4d4d4d" points="1417.45,-656.03 1415,-649.03 1412.55,-656.03 1417.45,-656.03"/>
</g>
<!-- C&#45;0652 -->
<g id="node3" class="node">
<title>C&#45;0652</title>
<ellipse fill="mediumseagreen" stroke="black" cx="146" cy="-223.5" rx="72" ry="21.5"/>
<text text-anchor="middle" x="146" y="-221" font-family="Arial" font-size="10.00">C&#45;0652</text>
</g>
<!-- C&#45;0469 -->
<g id="node8" class="node">
<title>C&#45;0469</title>
<ellipse fill="mediumseagreen" stroke="black" cx="326" cy="-122.5" rx="72" ry="21.5"/>
<text text-anchor="middle" x="326" y="-120" font-family="Arial" font-size="10.00">C&#45;0469</text>
</g>
<!-- C&#45;0652&#45;&gt;C&#45;0469 -->
<g id="edge31" class="edge">
<title>C&#45;0652&#45;&gt;C&#45;0469</title>
<path fill="none" stroke="#4d4d4d" d="M181,-204.41C181,-175.01 181,-122 181,-122 181,-122 246.92,-122 246.92,-122"/>
<polygon fill="#4d4d4d" stroke="#4d4d4d" points="246.92,-124.45 253.92,-122 246.92,-119.55 246.92,-124.45"/>
</g>
<!-- C&#45;0467 -->
<g id="node18" class="node">
<title>C&#45;0467</title>
<ellipse fill="tomato" stroke="black" cx="72" cy="-122.5" rx="72" ry="21.5"/>
<text text-anchor="middle" x="72" y="-120" font-family="Arial" font-size="10.00">C&#45;0467</text>
</g>
<!-- C&#45;0652&#45;&gt;C&#45;0467 -->
<g id="edge30" class="edge">
<title>C&#45;0652&#45;&gt;C&#45;0467</title>
<path fill="none" stroke="#4d4d4d" d="M109,-204.98C109,-204.98 109,-148.25 109,-148.25"/>
<polygon fill="#4d4d4d" stroke="#4d4d4d" points="111.45,-148.25 109,-141.25 106.55,-148.25 111.45,-148.25"/>
</g>
<!-- R&#45;154 -->
<g id="node4" class="node">
<title>R&#45;154</title>
<polygon fill="tomato" stroke="black" points="398,-12.59 398,-30.41 355.82,-43 296.18,-43 254,-30.41 254,-12.59 296.18,0 355.82,0 398,-12.59"/>
<text text-anchor="middle" x="326" y="-19" font-family="Arial" font-size="10.00">R&#45;154</text>
</g>
<!-- ext_circ_112_23_ -->
<g id="node39" class="node">
<title>ext_circ_112_23_</title>
<polygon fill="lightpink" stroke="darkorange" stroke-dasharray="5,2" points="570,-754 426,-754 426,-711 570,-711 570,-754"/>
<text text-anchor="middle" x="498" y="-735.5" font-family="Arial" font-size="10.00">Circuito:</text>
<text text-anchor="middle" x="498" y="-724.5" font-family="Arial" font-size="10.00">112&#45;23&#45;</text>
</g>
<!-- R&#45;154&#45;&gt;ext_circ_112_23_ -->
<g id="edge41" class="edge">
<title>R&#45;154&#45;&gt;ext_circ_112_23_</title>
<path fill="none" stroke="darkorange" stroke-dasharray="5,2" d="M398.23,-14C415.98,-14 430,-14 430,-14 430,-14 430,-704 430,-704"/>
<polygon fill="darkorange" stroke="darkorange" points="427.55,-704 430,-711 432.45,-704 427.55,-704"/>
</g>
<!-- C&#45;0683 -->
<g id="node5" class="node">
<title>C&#45;0683</title>
<ellipse fill="mediumseagreen" stroke="black" cx="1415" cy="-526.5" rx="72" ry="21.5"/>
<text text-anchor="middle" x="1415" y="-524" font-family="Arial" font-size="10.00">C&#45;0683</text>
</g>
<!-- S&#45;2342 -->
<g id="node9" class="node">
<title>S&#45;2342</title>
<polygon fill="mediumseagreen" stroke="black" points="1406,-447 1334,-425.5 1406,-404 1478,-425.5 1406,-447"/>
<text text-anchor="middle" x="1406" y="-423" font-family="Arial" font-size="10.00">S&#45;2342</text>
</g>
<!-- C&#45;0683&#45;&gt;S&#45;2342 -->
<g id="edge3" class="edge">
<title>C&#45;0683&#45;&gt;S&#45;2342</title>
<path fill="none" stroke="#4d4d4d" d="M1410.5,-504.58C1410.5,-504.58 1410.5,-452.66 1410.5,-452.66"/>
<polygon fill="#4d4d4d" stroke="#4d4d4d" points="1412.95,-452.66 1410.5,-445.66 1408.05,-452.66 1412.95,-452.66"/>
</g>
<!-- C&#45;0684 -->
<g id="node12" class="node">
<title>C&#45;0684</title>
<ellipse fill="mediumseagreen" stroke="black" cx="1586" cy="-425.5" rx="72" ry="21.5"/>
<text text-anchor="middle" x="1586" y="-423" font-family="Arial" font-size="10.00">C&#45;0684</text>
</g>
<!-- C&#45;0683&#45;&gt;C&#45;0684 -->
<g id="edge4" class="edge">
<title>C&#45;0683&#45;&gt;C&#45;0684</title>
<path fill="none" stroke="#4d4d4d" d="M1482.5,-518.7C1482.5,-493.82 1482.5,-418 1482.5,-418 1482.5,-418 1511.41,-418 1511.41,-418"/>
<polygon fill="#4d4d4d" stroke="#4d4d4d" points="1511.41,-420.45 1518.41,-418 1511.41,-415.55 1511.41,-420.45"/>
</g>
<!-- R&#45;089 -->
<g id="node6" class="node">
<title>R&#45;089</title>
<polygon fill="mediumseagreen" stroke="black" points="1298,-315.59 1298,-333.41 1255.82,-346 1196.18,-346 1154,-333.41 1154,-315.59 1196.18,-303 1255.82,-303 1298,-315.59"/>
<text text-anchor="middle" x="1226" y="-322" font-family="Arial" font-size="10.00">R&#45;089</text>
</g>
<!-- R&#45;089&#45;&gt;C&#45;0652 -->
<g id="edge29" class="edge">
<title>R&#45;089&#45;&gt;C&#45;0652</title>
<path fill="none" stroke="#4d4d4d" d="M1170,-310.75C1170,-303.88 1170,-297 1170,-297 1170,-297 146,-297 146,-297 146,-297 146,-252.15 146,-252.15"/>
<polygon fill="#4d4d4d" stroke="#4d4d4d" points="148.45,-252.15 146,-245.15 143.55,-252.15 148.45,-252.15"/>
</g>
<!-- S&#45;2423 -->
<g id="node10" class="node">
<title>S&#45;2423</title>
<polygon fill="mediumseagreen" stroke="black" points="326,-245 254,-223.5 326,-202 398,-223.5 326,-245"/>
<text text-anchor="middle" x="326" y="-221" font-family="Arial" font-size="10.00">S&#45;2423</text>
</g>
<!-- R&#45;089&#45;&gt;S&#45;2423 -->
<g id="edge25" class="edge">
<title>R&#45;089&#45;&gt;S&#45;2423</title>
<path fill="none" stroke="#4d4d4d" d="M1186,-305.79C1186,-298.12 1186,-291 1186,-291 1186,-291 326,-291 326,-291 326,-291 326,-252.23 326,-252.23"/>
<polygon fill="#4d4d4d" stroke="#4d4d4d" points="328.45,-252.23 326,-245.23 323.55,-252.23 328.45,-252.23"/>
</g>
<!-- S&#45;1891 -->
<g id="node15" class="node">
<title>S&#45;1891</title>
<polygon fill="mediumseagreen" stroke="black" points="506,-245 434,-223.5 506,-202 578,-223.5 506,-245"/>
<text text-anchor="middle" x="506" y="-221" font-family="Arial" font-size="10.00">S&#45;1891</text>
</g>
<!-- R&#45;089&#45;&gt;S&#45;1891 -->
<g id="edge19" class="edge">
<title>R&#45;089&#45;&gt;S&#45;1891</title>
<path fill="none" stroke="#4d4d4d" d="M1202,-302.9C1202,-293.68 1202,-285 1202,-285 1202,-285 574,-285 574,-285 574,-285 574,-232.02 574,-232.02"/>
<polygon fill="#4d4d4d" stroke="#4d4d4d" points="576.45,-232.02 574,-225.02 571.55,-232.02 576.45,-232.02"/>
</g>
<!-- S&#45;1686 -->
<g id="node23" class="node">
<title>S&#45;1686</title>
<polygon fill="mediumseagreen" stroke="black" points="686,-245 614,-223.5 686,-202 758,-223.5 686,-245"/>
<text text-anchor="middle" x="686" y="-221" font-family="Arial" font-size="10.00">S&#45;1686</text>
</g>
<!-- R&#45;089&#45;&gt;S&#45;1686 -->
<g id="edge26" class="edge">
<title>R&#45;089&#45;&gt;S&#45;1686</title>
<path fill="none" stroke="#4d4d4d" d="M1218,-302.82C1218,-291.1 1218,-279 1218,-279 1218,-279 702,-279 702,-279 702,-279 702,-247.45 702,-247.45"/>
<polygon fill="#4d4d4d" stroke="#4d4d4d" points="704.45,-247.45 702,-240.45 699.55,-247.45 704.45,-247.45"/>
</g>
<!-- S&#45;1721 -->
<g id="node24" class="node">
<title>S&#45;1721</title>
<polygon fill="mediumseagreen" stroke="black" points="866,-245 794,-223.5 866,-202 938,-223.5 866,-245"/>
<text text-anchor="middle" x="866" y="-221" font-family="Arial" font-size="10.00">S&#45;1721</text>
</g>
<!-- R&#45;089&#45;&gt;S&#45;1721 -->
<g id="edge28" class="edge">
<title>R&#45;089&#45;&gt;S&#45;1721</title>
<path fill="none" stroke="#4d4d4d" d="M1234,-302.79C1234,-289.1 1234,-274 1234,-274 1234,-274 887.33,-274 887.33,-274 887.33,-274 887.33,-245.65 887.33,-245.65"/>
<polygon fill="#4d4d4d" stroke="#4d4d4d" points="889.78,-245.65 887.33,-238.65 884.88,-245.65 889.78,-245.65"/>
</g>
<!-- S&#45;1968 -->
<g id="node29" class="node">
<title>S&#45;1968</title>
<polygon fill="mediumseagreen" stroke="black" points="1046,-245 974,-223.5 1046,-202 1118,-223.5 1046,-245"/>
<text text-anchor="middle" x="1046" y="-221" font-family="Arial" font-size="10.00">S&#45;1968</text>
</g>
<!-- R&#45;089&#45;&gt;S&#45;1968 -->
<g id="edge23" class="edge">
<title>R&#45;089&#45;&gt;S&#45;1968</title>
<path fill="none" stroke="#4d4d4d" d="M1153.78,-324C1143.32,-324 1136,-324 1136,-324 1136,-324 1136,-223 1136,-223 1136,-223 1123.47,-223 1123.47,-223"/>
<polygon fill="#4d4d4d" stroke="#4d4d4d" points="1123.47,-220.55 1116.47,-223 1123.47,-225.45 1123.47,-220.55"/>
</g>
<!-- S&#45;1805 -->
<g id="node31" class="node">
<title>S&#45;1805</title>
<polygon fill="mediumseagreen" stroke="black" points="1226,-245 1154,-223.5 1226,-202 1298,-223.5 1226,-245"/>
<text text-anchor="middle" x="1226" y="-221" font-family="Arial" font-size="10.00">S&#45;1805</text>
</g>
<!-- R&#45;089&#45;&gt;S&#45;1805 -->
<g id="edge27" class="edge">
<title>R&#45;089&#45;&gt;S&#45;1805</title>
<path fill="none" stroke="#4d4d4d" d="M1250,-302.58C1250,-302.58 1250,-244.9 1250,-244.9"/>
<polygon fill="#4d4d4d" stroke="#4d4d4d" points="1252.45,-244.9 1250,-237.9 1247.55,-244.9 1252.45,-244.9"/>
</g>
<!-- C&#45;0260 -->
<g id="node33" class="node">
<title>C&#45;0260</title>
<ellipse fill="mediumseagreen" stroke="black" cx="1406" cy="-223.5" rx="72" ry="21.5"/>
<text text-anchor="middle" x="1406" y="-221" font-family="Arial" font-size="10.00">C&#45;0260</text>
</g>
<!-- R&#45;089&#45;&gt;C&#45;0260 -->
<g id="edge20" class="edge">
<title>R&#45;089&#45;&gt;C&#45;0260</title>
<path fill="none" stroke="#4d4d4d" d="M1298.22,-324C1308.68,-324 1316,-324 1316,-324 1316,-324 1316,-223 1316,-223 1316,-223 1326.78,-223 1326.78,-223"/>
<polygon fill="#4d4d4d" stroke="#4d4d4d" points="1326.78,-225.45 1333.78,-223 1326.78,-220.55 1326.78,-225.45"/>
</g>
<!-- S&#45;015 -->
<g id="node34" class="node">
<title>S&#45;015</title>
<polygon fill="mediumseagreen" stroke="black" points="1586,-245 1514,-223.5 1586,-202 1658,-223.5 1586,-245"/>
<text text-anchor="middle" x="1586" y="-221" font-family="Arial" font-size="10.00">S&#45;015</text>
</g>
<!-- R&#45;089&#45;&gt;S&#45;015 -->
<g id="edge33" class="edge">
<title>R&#45;089&#45;&gt;S&#45;015</title>
<path fill="none" stroke="#4d4d4d" d="M1266,-305.7C1266,-283.63 1266,-250 1266,-250 1266,-250 1562,-250 1562,-250 1562,-250 1562,-244.99 1562,-244.99"/>
<polygon fill="#4d4d4d" stroke="#4d4d4d" points="1564.45,-244.99 1562,-237.99 1559.55,-244.99 1564.45,-244.99"/>
</g>
<!-- S&#45;2199 -->
<g id="node35" class="node">
<title>S&#45;2199</title>
<polygon fill="mediumseagreen" stroke="black" points="1766,-245 1694,-223.5 1766,-202 1838,-223.5 1766,-245"/>
<text text-anchor="middle" x="1766" y="-221" font-family="Arial" font-size="10.00">S&#45;2199</text>
</g>
<!-- R&#45;089&#45;&gt;S&#45;2199 -->
<g id="edge34" class="edge">
<title>R&#45;089&#45;&gt;S&#45;2199</title>
<path fill="none" stroke="#4d4d4d" d="M1282,-310.64C1282,-290.62 1282,-256 1282,-256 1282,-256 1766,-256 1766,-256 1766,-256 1766,-252.36 1766,-252.36"/>
<polygon fill="#4d4d4d" stroke="#4d4d4d" points="1768.45,-252.36 1766,-245.36 1763.55,-252.36 1768.45,-252.36"/>
</g>
<!-- S&#45;2159 -->
<g id="node7" class="node">
<title>S&#45;2159</title>
<polygon fill="mediumseagreen" stroke="black" points="1406,-346 1334,-324.5 1406,-303 1478,-324.5 1406,-346"/>
<text text-anchor="middle" x="1406" y="-322" font-family="Arial" font-size="10.00">S&#45;2159</text>
</g>
<!-- C&#45;0469&#45;&gt;R&#45;154 -->
<g id="edge32" class="edge">
<title>C&#45;0469&#45;&gt;R&#45;154</title>
<path fill="none" stroke="#4d4d4d" d="M326,-100.58C326,-100.58 326,-50.03 326,-50.03"/>
<polygon fill="#4d4d4d" stroke="#4d4d4d" points="328.45,-50.03 326,-43.03 323.55,-50.03 328.45,-50.03"/>
</g>
<!-- C&#45;0464 -->
<g id="node11" class="node">
<title>C&#45;0464</title>
<ellipse fill="tomato" stroke="black" cx="718" cy="-324.5" rx="72" ry="21.5"/>
<text text-anchor="middle" x="718" y="-322" font-family="Arial" font-size="10.00">C&#45;0464</text>
</g>
<!-- ext_circ_109_29_ -->
<g id="node36" class="node">
<title>ext_circ_109_29_</title>
<polygon fill="lightpink" stroke="darkorange" stroke-dasharray="5,2" points="934,-754 790,-754 790,-711 934,-711 934,-754"/>
<text text-anchor="middle" x="862" y="-735.5" font-family="Arial" font-size="10.00">Circuito:</text>
<text text-anchor="middle" x="862" y="-724.5" font-family="Arial" font-size="10.00">109&#45;29&#45;</text>
</g>
<!-- C&#45;0464&#45;&gt;ext_circ_109_29_ -->
<g id="edge36" class="edge">
<title>C&#45;0464&#45;&gt;ext_circ_109_29_</title>
<path fill="none" stroke="darkorange" stroke-dasharray="5,2" d="M765.33,-340.73C765.33,-416.52 765.33,-732 765.33,-732 765.33,-732 782.98,-732 782.98,-732"/>
<polygon fill="darkorange" stroke="darkorange" points="782.98,-734.45 789.98,-732 782.98,-729.55 782.98,-734.45"/>
</g>
<!-- C&#45;0684&#45;&gt;S&#45;1860 -->
<g id="edge11" class="edge">
<title>C&#45;0684&#45;&gt;S&#45;1860</title>
<path fill="none" stroke="#4d4d4d" d="M1571.6,-404.14C1571.6,-388.14 1571.6,-369 1571.6,-369 1571.6,-369 1084,-369 1084,-369 1084,-369 1084,-341.82 1084,-341.82"/>
<polygon fill="#4d4d4d" stroke="#4d4d4d" points="1086.45,-341.82 1084,-334.82 1081.55,-341.82 1086.45,-341.82"/>
</g>
<!-- C&#45;0684&#45;&gt;R&#45;089 -->
<g id="edge18" class="edge">
<title>C&#45;0684&#45;&gt;R&#45;089</title>
<path fill="none" stroke="#4d4d4d" d="M1600.4,-404.2C1600.4,-384.09 1600.4,-357 1600.4,-357 1600.4,-357 1246,-357 1246,-357 1246,-357 1246,-353.36 1246,-353.36"/>
<polygon fill="#4d4d4d" stroke="#4d4d4d" points="1248.45,-353.36 1246,-346.36 1243.55,-353.36 1248.45,-353.36"/>
</g>
<!-- C&#45;0684&#45;&gt;S&#45;2159 -->
<g id="edge16" class="edge">
<title>C&#45;0684&#45;&gt;S&#45;2159</title>
<path fill="none" stroke="#4d4d4d" d="M1517.04,-432C1508.39,-432 1502.5,-432 1502.5,-432 1502.5,-432 1502.5,-324 1502.5,-324 1502.5,-324 1483.39,-324 1483.39,-324"/>
<polygon fill="#4d4d4d" stroke="#4d4d4d" points="1483.39,-321.55 1476.39,-324 1483.39,-326.45 1483.39,-321.55"/>
</g>
<!-- C&#45;0684&#45;&gt;C&#45;0464 -->
<g id="edge8" class="edge">
<title>C&#45;0684&#45;&gt;C&#45;0464</title>
<path fill="none" stroke="#4d4d4d" d="M1542.8,-408.3C1542.8,-395.41 1542.8,-380 1542.8,-380 1542.8,-380 777.67,-380 777.67,-380 777.67,-380 777.67,-343.54 777.67,-343.54"/>
<polygon fill="#4d4d4d" stroke="#4d4d4d" points="780.12,-343.54 777.67,-336.54 775.22,-343.54 780.12,-343.54"/>
</g>
<!-- C&#45;0465 -->
<g id="node14" class="node">
<title>C&#45;0465</title>
<ellipse fill="mediumseagreen" stroke="black" cx="1586" cy="-324.5" rx="72" ry="21.5"/>
<text text-anchor="middle" x="1586" y="-322" font-family="Arial" font-size="10.00">C&#45;0465</text>
</g>
<!-- C&#45;0684&#45;&gt;C&#45;0465 -->
<g id="edge6" class="edge">
<title>C&#45;0684&#45;&gt;C&#45;0465</title>
<path fill="none" stroke="#4d4d4d" d="M1629.2,-407.91C1629.2,-407.91 1629.2,-348.89 1629.2,-348.89"/>
<polygon fill="#4d4d4d" stroke="#4d4d4d" points="1631.65,-348.89 1629.2,-341.89 1626.75,-348.89 1631.65,-348.89"/>
</g>
<!-- S&#45;2462 -->
<g id="node17" class="node">
<title>S&#45;2462</title>
<polygon fill="mediumseagreen" stroke="black" points="1766,-346 1694,-324.5 1766,-303 1838,-324.5 1766,-346"/>
<text text-anchor="middle" x="1766" y="-322" font-family="Arial" font-size="10.00">S&#45;2462</text>
</g>
<!-- C&#45;0684&#45;&gt;S&#45;2462 -->
<g id="edge17" class="edge">
<title>C&#45;0684&#45;&gt;S&#45;2462</title>
<path fill="none" stroke="#4d4d4d" d="M1642.46,-412C1695.25,-412 1766,-412 1766,-412 1766,-412 1766,-353.13 1766,-353.13"/>
<polygon fill="#4d4d4d" stroke="#4d4d4d" points="1768.45,-353.13 1766,-346.13 1763.55,-353.13 1768.45,-353.13"/>
</g>
<!-- S&#45;2303 -->
<g id="node21" class="node">
<title>S&#45;2303</title>
<polygon fill="mediumseagreen" stroke="black" points="1946,-346 1874,-324.5 1946,-303 2018,-324.5 1946,-346"/>
<text text-anchor="middle" x="1946" y="-322" font-family="Arial" font-size="10.00">S&#45;2303</text>
</g>
<!-- C&#45;0684&#45;&gt;S&#45;2303 -->
<g id="edge5" class="edge">
<title>C&#45;0684&#45;&gt;S&#45;2303</title>
<path fill="none" stroke="#4d4d4d" d="M1656.69,-421C1761.54,-421 1946,-421 1946,-421 1946,-421 1946,-353.4 1946,-353.4"/>
<polygon fill="#4d4d4d" stroke="#4d4d4d" points="1948.45,-353.4 1946,-346.4 1943.55,-353.4 1948.45,-353.4"/>
</g>
<!-- C&#45;0064 -->
<g id="node27" class="node">
<title>C&#45;0064</title>
<ellipse fill="mediumseagreen" stroke="black" cx="2216" cy="-324.5" rx="72" ry="21.5"/>
<text text-anchor="middle" x="2216" y="-322" font-family="Arial" font-size="10.00">C&#45;0064</text>
</g>
<!-- C&#45;0684&#45;&gt;C&#45;0064 -->
<g id="edge12" class="edge">
<title>C&#45;0684&#45;&gt;C&#45;0064</title>
<path fill="none" stroke="#4d4d4d" d="M1657.04,-429C1821.81,-429 2216,-429 2216,-429 2216,-429 2216,-353.15 2216,-353.15"/>
<polygon fill="#4d4d4d" stroke="#4d4d4d" points="2218.45,-353.15 2216,-346.15 2213.55,-353.15 2218.45,-353.15"/>
</g>
<!-- S&#45;2365 -->
<g id="node30" class="node">
<title>S&#45;2365</title>
<polygon fill="mediumseagreen" stroke="black" points="2531,-346 2459,-324.5 2531,-303 2603,-324.5 2531,-346"/>
<text text-anchor="middle" x="2531" y="-322" font-family="Arial" font-size="10.00">S&#45;2365</text>
</g>
<!-- C&#45;0684&#45;&gt;S&#45;2365 -->
<g id="edge9" class="edge">
<title>C&#45;0684&#45;&gt;S&#45;2365</title>
<path fill="none" stroke="#4d4d4d" d="M1644.76,-438C1851.22,-438 2531,-438 2531,-438 2531,-438 2531,-353.12 2531,-353.12"/>
<polygon fill="#4d4d4d" stroke="#4d4d4d" points="2533.45,-353.12 2531,-346.12 2528.55,-353.12 2533.45,-353.12"/>
</g>
<!-- C&#45;1225 -->
<g id="node13" class="node">
<title>C&#45;1225</title>
<ellipse fill="tomato" stroke="black" cx="2306" cy="-223.5" rx="72" ry="21.5"/>
<text text-anchor="middle" x="2306" y="-221" font-family="Arial" font-size="10.00">C&#45;1225</text>
</g>
<!-- R&#45;091 -->
<g id="node20" class="node">
<title>R&#45;091</title>
<polygon fill="tomato" stroke="black" points="2198,-214.59 2198,-232.41 2155.82,-245 2096.18,-245 2054,-232.41 2054,-214.59 2096.18,-202 2155.82,-202 2198,-214.59"/>
<text text-anchor="middle" x="2126" y="-221" font-family="Arial" font-size="10.00">R&#45;091</text>
</g>
<!-- C&#45;1225&#45;&gt;R&#45;091 -->
<g id="edge37" class="edge">
<title>C&#45;1225&#45;&gt;R&#45;091</title>
<path fill="none" stroke="blue" stroke-dasharray="5,2" d="M2233.82,-223C2233.82,-223 2205.19,-223 2205.19,-223"/>
<polygon fill="blue" stroke="blue" points="2205.19,-220.55 2198.19,-223 2205.19,-225.45 2205.19,-220.55"/>
</g>
<!-- R&#45;153 -->
<g id="node22" class="node">
<title>R&#45;153</title>
<polygon fill="tomato" stroke="black" points="2018,-214.59 2018,-232.41 1975.82,-245 1916.18,-245 1874,-232.41 1874,-214.59 1916.18,-202 1975.82,-202 2018,-214.59"/>
<text text-anchor="middle" x="1946" y="-221" font-family="Arial" font-size="10.00">R&#45;153</text>
</g>
<!-- C&#45;0465&#45;&gt;R&#45;153 -->
<g id="edge7" class="edge">
<title>C&#45;0465&#45;&gt;R&#45;153</title>
<path fill="none" stroke="#4d4d4d" d="M1610,-304.1C1610,-287.92 1610,-268 1610,-268 1610,-268 1970,-268 1970,-268 1970,-268 1970,-252.23 1970,-252.23"/>
<polygon fill="#4d4d4d" stroke="#4d4d4d" points="1972.45,-252.23 1970,-245.23 1967.55,-252.23 1972.45,-252.23"/>
</g>
<!-- S&#45;2193 -->
<g id="node16" class="node">
<title>S&#45;2193</title>
<polygon fill="mediumseagreen" stroke="black" points="1046,-144 974,-122.5 1046,-101 1118,-122.5 1046,-144"/>
<text text-anchor="middle" x="1046" y="-120" font-family="Arial" font-size="10.00">S&#45;2193</text>
</g>
<!-- C&#45;0467&#45;&gt;ext_circ_112_23_ -->
<g id="edge40" class="edge">
<title>C&#45;0467&#45;&gt;ext_circ_112_23_</title>
<path fill="none" stroke="darkorange" stroke-dasharray="5,2" d="M37,-141.41C37,-244.29 37,-732 37,-732 37,-732 418.97,-732 418.97,-732"/>
<polygon fill="darkorange" stroke="darkorange" points="418.97,-734.45 425.97,-732 418.97,-729.55 418.97,-734.45"/>
</g>
<!-- S&#45;2479 -->
<g id="node19" class="node">
<title>S&#45;2479</title>
<polygon fill="mediumseagreen" stroke="black" points="2666,-245 2594,-223.5 2666,-202 2738,-223.5 2666,-245"/>
<text text-anchor="middle" x="2666" y="-221" font-family="Arial" font-size="10.00">S&#45;2479</text>
</g>
<!-- ext_circ_109_26_ -->
<g id="node37" class="node">
<title>ext_circ_109_26_</title>
<polygon fill="lightpink" stroke="darkorange" stroke-dasharray="5,2" points="1194,-754 1050,-754 1050,-711 1194,-711 1194,-754"/>
<text text-anchor="middle" x="1122" y="-735.5" font-family="Arial" font-size="10.00">Circuito:</text>
<text text-anchor="middle" x="1122" y="-724.5" font-family="Arial" font-size="10.00">109&#45;26&#45;</text>
</g>
<!-- R&#45;091&#45;&gt;ext_circ_109_26_ -->
<g id="edge38" class="edge">
<title>R&#45;091&#45;&gt;ext_circ_109_26_</title>
<path fill="none" stroke="darkorange" stroke-dasharray="5,2" d="M2099,-245.18C2099,-290.69 2099,-392 2099,-392 2099,-392 1174,-392 1174,-392 1174,-392 1174,-703.94 1174,-703.94"/>
<polygon fill="darkorange" stroke="darkorange" points="1171.55,-703.94 1174,-710.94 1176.45,-703.94 1171.55,-703.94"/>
</g>
<!-- R&#45;153&#45;&gt;ext_circ_109_29_ -->
<g id="edge35" class="edge">
<title>R&#45;153&#45;&gt;ext_circ_109_29_</title>
<path fill="none" stroke="darkorange" stroke-dasharray="5,2" d="M1922,-245C1922,-253.82 1922,-262 1922,-262 1922,-262 840.67,-262 840.67,-262 840.67,-262 840.67,-703.75 840.67,-703.75"/>
<polygon fill="darkorange" stroke="darkorange" points="838.22,-703.75 840.67,-710.75 843.12,-703.75 838.22,-703.75"/>
</g>
<!-- C&#45;0678&#45;&gt;C&#45;0683 -->
<g id="edge2" class="edge">
<title>C&#45;0678&#45;&gt;C&#45;0683</title>
<path fill="none" stroke="#4d4d4d" d="M1415,-605.58C1415,-605.58 1415,-555.03 1415,-555.03"/>
<polygon fill="#4d4d4d" stroke="#4d4d4d" points="1417.45,-555.03 1415,-548.03 1412.55,-555.03 1417.45,-555.03"/>
</g>
<!-- C&#45;0872 -->
<g id="node26" class="node">
<title>C&#45;0872</title>
<ellipse fill="mediumseagreen" stroke="black" cx="1406" cy="-122.5" rx="72" ry="21.5"/>
<text text-anchor="middle" x="1406" y="-120" font-family="Arial" font-size="10.00">C&#45;0872</text>
</g>
<!-- R&#45;201 -->
<g id="node32" class="node">
<title>R&#45;201</title>
<polygon fill="tomato" stroke="black" points="1478,-12.59 1478,-30.41 1435.82,-43 1376.18,-43 1334,-30.41 1334,-12.59 1376.18,0 1435.82,0 1478,-12.59"/>
<text text-anchor="middle" x="1406" y="-19" font-family="Arial" font-size="10.00">R&#45;201</text>
</g>
<!-- C&#45;0872&#45;&gt;R&#45;201 -->
<g id="edge22" class="edge">
<title>C&#45;0872&#45;&gt;R&#45;201</title>
<path fill="none" stroke="#4d4d4d" d="M1406,-100.58C1406,-100.58 1406,-50.03 1406,-50.03"/>
<polygon fill="#4d4d4d" stroke="#4d4d4d" points="1408.45,-50.03 1406,-43.03 1403.55,-50.03 1408.45,-50.03"/>
</g>
<!-- C&#45;0064&#45;&gt;C&#45;1225 -->
<g id="edge14" class="edge">
<title>C&#45;0064&#45;&gt;C&#45;1225</title>
<path fill="none" stroke="#4d4d4d" d="M2261,-307.37C2261,-307.37 2261,-247.38 2261,-247.38"/>
<polygon fill="#4d4d4d" stroke="#4d4d4d" points="2263.45,-247.38 2261,-240.38 2258.55,-247.38 2263.45,-247.38"/>
</g>
<!-- C&#45;0064&#45;&gt;R&#45;091 -->
<g id="edge15" class="edge">
<title>C&#45;0064&#45;&gt;R&#45;091</title>
<path fill="none" stroke="#4d4d4d" d="M2171,-307.37C2171,-307.37 2171,-247.72 2171,-247.72"/>
<polygon fill="#4d4d4d" stroke="#4d4d4d" points="2173.45,-247.72 2171,-240.72 2168.55,-247.72 2173.45,-247.72"/>
</g>
<!-- S&#45;2259 -->
<g id="node28" class="node">
<title>S&#45;2259</title>
<polygon fill="mediumseagreen" stroke="black" points="2486,-245 2414,-223.5 2486,-202 2558,-223.5 2486,-245"/>
<text text-anchor="middle" x="2486" y="-221" font-family="Arial" font-size="10.00">S&#45;2259</text>
</g>
<!-- C&#45;0064&#45;&gt;S&#45;2259 -->
<g id="edge13" class="edge">
<title>C&#45;0064&#45;&gt;S&#45;2259</title>
<path fill="none" stroke="#4d4d4d" d="M2288.2,-324C2352.51,-324 2436.5,-324 2436.5,-324 2436.5,-324 2436.5,-237.41 2436.5,-237.41"/>
<polygon fill="#4d4d4d" stroke="#4d4d4d" points="2438.95,-237.41 2436.5,-230.41 2434.05,-237.41 2438.95,-237.41"/>
</g>
<!-- S&#45;1968&#45;&gt;S&#45;2193 -->
<g id="edge24" class="edge">
<title>S&#45;1968&#45;&gt;S&#45;2193</title>
<path fill="none" stroke="#4d4d4d" d="M1046,-201.58C1046,-201.58 1046,-151.03 1046,-151.03"/>
<polygon fill="#4d4d4d" stroke="#4d4d4d" points="1048.45,-151.03 1046,-144.03 1043.55,-151.03 1048.45,-151.03"/>
</g>
<!-- S&#45;2365&#45;&gt;S&#45;2479 -->
<g id="edge10" class="edge">
<title>S&#45;2365&#45;&gt;S&#45;2479</title>
<path fill="none" stroke="#4d4d4d" d="M2598.5,-323.07C2598.5,-323.07 2598.5,-232.02 2598.5,-232.02"/>
<polygon fill="#4d4d4d" stroke="#4d4d4d" points="2600.95,-232.02 2598.5,-225.02 2596.05,-232.02 2600.95,-232.02"/>
</g>
<!-- ext_circ_112_22_ -->
<g id="node38" class="node">
<title>ext_circ_112_22_</title>
<polygon fill="lightpink" stroke="darkorange" stroke-dasharray="5,2" points="753,-754 609,-754 609,-711 753,-711 753,-754"/>
<text text-anchor="middle" x="681" y="-735.5" font-family="Arial" font-size="10.00">Circuito:</text>
<text text-anchor="middle" x="681" y="-724.5" font-family="Arial" font-size="10.00">112&#45;22&#45;</text>
</g>
<!-- R&#45;201&#45;&gt;ext_circ_112_22_ -->
<g id="edge39" class="edge">
<title>R&#45;201&#45;&gt;ext_circ_112_22_</title>
<path fill="none" stroke="darkorange" stroke-dasharray="5,2" d="M1333.9,-28C1135.05,-28 593.5,-28 593.5,-28 593.5,-28 593.5,-732 593.5,-732 593.5,-732 601.74,-732 601.74,-732"/>
<polygon fill="darkorange" stroke="darkorange" points="601.74,-734.45 608.74,-732 601.74,-729.55 601.74,-734.45"/>
</g>
<!-- C&#45;0260&#45;&gt;C&#45;0872 -->
<g id="edge21" class="edge">
<title>C&#45;0260&#45;&gt;C&#45;0872</title>
<path fill="none" stroke="#4d4d4d" d="M1406,-201.58C1406,-201.58 1406,-151.03 1406,-151.03"/>
<polygon fill="#4d4d4d" stroke="#4d4d4d" points="1408.45,-151.03 1406,-144.03 1403.55,-151.03 1408.45,-151.03"/>
</g>
</g>
</svg>
