<?xml version="1.0" encoding="UTF-8" standalone="no"?>
<!DOCTYPE svg PUBLIC "-//W3C//DTD SVG 1.1//EN"
 "http://www.w3.org/Graphics/SVG/1.1/DTD/svg11.dtd">
<!-- Generated by graphviz version 2.50.0 (0)
 -->
<!-- Title: Grafo_Circuito_307_25_ Pages: 1 -->
<svg width="3330pt" height="867pt"
 viewBox="0.00 0.00 3330.00 867.00" xmlns="http://www.w3.org/2000/svg" xmlns:xlink="http://www.w3.org/1999/xlink">
<g id="graph0" class="graph" transform="scale(1 1) rotate(0) translate(4 863)">
<title>Grafo_Circuito_307_25_</title>
<polygon fill="white" stroke="transparent" points="-4,4 -4,-863 3326,-863 3326,4 -4,4"/>
<!-- S&#45;1288 -->
<g id="node1" class="node">
<title>S&#45;1288</title>
<polygon fill="mediumseagreen" stroke="black" points="1646,-245 1574,-223.5 1646,-202 1718,-223.5 1646,-245"/>
<text text-anchor="middle" x="1646" y="-221" font-family="Arial" font-size="10.00">S&#45;1288</text>
</g>
<!-- S&#45;1543 -->
<g id="node2" class="node">
<title>S&#45;1543</title>
<polygon fill="mediumseagreen" stroke="black" points="1159,-346 1087,-324.5 1159,-303 1231,-324.5 1159,-346"/>
<text text-anchor="middle" x="1159" y="-322" font-family="Arial" font-size="10.00">S&#45;1543</text>
</g>
<!-- C&#45;1092 -->
<g id="node3" class="node">
<title>C&#45;1092</title>
<ellipse fill="mediumseagreen" stroke="black" cx="1339" cy="-324.5" rx="72" ry="21.5"/>
<text text-anchor="middle" x="1339" y="-322" font-family="Arial" font-size="10.00">C&#45;1092</text>
</g>
<!-- R&#45;269 -->
<g id="node29" class="node">
<title>R&#45;269</title>
<polygon fill="tomato" stroke="black" points="1178,-214.59 1178,-232.41 1135.82,-245 1076.18,-245 1034,-232.41 1034,-214.59 1076.18,-202 1135.82,-202 1178,-214.59"/>
<text text-anchor="middle" x="1106" y="-221" font-family="Arial" font-size="10.00">R&#45;269</text>
</g>
<!-- C&#45;1092&#45;&gt;R&#45;269 -->
<g id="edge26" class="edge">
<title>C&#45;1092&#45;&gt;R&#45;269</title>
<path fill="none" stroke="#4d4d4d" d="M1297.33,-306.66C1297.33,-295.41 1297.33,-283 1297.33,-283 1297.33,-283 1132.5,-283 1132.5,-283 1132.5,-283 1132.5,-252.32 1132.5,-252.32"/>
<polygon fill="#4d4d4d" stroke="#4d4d4d" points="1134.95,-252.32 1132.5,-245.32 1130.05,-252.32 1134.95,-252.32"/>
</g>
<!-- R&#45;124 -->
<g id="node4" class="node">
<title>R&#45;124</title>
<polygon fill="mediumseagreen" stroke="black" points="1551,-517.59 1551,-535.41 1508.82,-548 1449.18,-548 1407,-535.41 1407,-517.59 1449.18,-505 1508.82,-505 1551,-517.59"/>
<text text-anchor="middle" x="1479" y="-524" font-family="Arial" font-size="10.00">R&#45;124</text>
</g>
<!-- C&#45;0373 -->
<g id="node19" class="node">
<title>C&#45;0373</title>
<ellipse fill="mediumseagreen" stroke="black" cx="1249" cy="-425.5" rx="72" ry="21.5"/>
<text text-anchor="middle" x="1249" y="-423" font-family="Arial" font-size="10.00">C&#45;0373</text>
</g>
<!-- R&#45;124&#45;&gt;C&#45;0373 -->
<g id="edge6" class="edge">
<title>R&#45;124&#45;&gt;C&#45;0373</title>
<path fill="none" stroke="#4d4d4d" d="M1461,-504.58C1461,-476.67 1461,-432 1461,-432 1461,-432 1324.83,-432 1324.83,-432"/>
<polygon fill="#4d4d4d" stroke="#4d4d4d" points="1324.83,-429.55 1317.83,-432 1324.83,-434.45 1324.83,-429.55"/>
</g>
<!-- S&#45;2261 -->
<g id="node5" class="node">
<title>S&#45;2261</title>
<polygon fill="mediumseagreen" stroke="black" points="2080,-144 2008,-122.5 2080,-101 2152,-122.5 2080,-144"/>
<text text-anchor="middle" x="2080" y="-120" font-family="Arial" font-size="10.00">S&#45;2261</text>
</g>
<!-- R&#45;250 -->
<g id="node6" class="node">
<title>R&#45;250</title>
<polygon fill="tomato" stroke="black" points="324,-113.59 324,-131.41 281.82,-144 222.18,-144 180,-131.41 180,-113.59 222.18,-101 281.82,-101 324,-113.59"/>
<text text-anchor="middle" x="252" y="-120" font-family="Arial" font-size="10.00">R&#45;250</text>
</g>
<!-- ext_circ_112_23_ -->
<g id="node52" class="node">
<title>ext_circ_112_23_</title>
<polygon fill="lightpink" stroke="darkorange" stroke-dasharray="5,2" points="414,-43 270,-43 270,0 414,0 414,-43"/>
<text text-anchor="middle" x="342" y="-24.5" font-family="Arial" font-size="10.00">Circuito:</text>
<text text-anchor="middle" x="342" y="-13.5" font-family="Arial" font-size="10.00">112&#45;23&#45;</text>
</g>
<!-- R&#45;250&#45;&gt;ext_circ_112_23_ -->
<g id="edge56" class="edge">
<title>R&#45;250&#45;&gt;ext_circ_112_23_</title>
<path fill="none" stroke="darkorange" stroke-dasharray="5,2" d="M297,-105.37C297,-105.37 297,-50.31 297,-50.31"/>
<polygon fill="darkorange" stroke="darkorange" points="299.45,-50.31 297,-43.31 294.55,-50.31 299.45,-50.31"/>
</g>
<!-- C&#45;1300 -->
<g id="node7" class="node">
<title>C&#45;1300</title>
<ellipse fill="tomato" stroke="black" cx="72" cy="-122.5" rx="72" ry="21.5"/>
<text text-anchor="middle" x="72" y="-120" font-family="Arial" font-size="10.00">C&#45;1300</text>
</g>
<!-- C&#45;1300&#45;&gt;ext_circ_112_23_ -->
<g id="edge53" class="edge">
<title>C&#45;1300&#45;&gt;ext_circ_112_23_</title>
<path fill="none" stroke="darkorange" stroke-dasharray="5,2" d="M72,-100.97C72,-71.18 72,-21 72,-21 72,-21 263,-21 263,-21"/>
<polygon fill="darkorange" stroke="darkorange" points="263,-23.45 270,-21 263,-18.55 263,-23.45"/>
</g>
<!-- S&#45;2426 -->
<g id="node8" class="node">
<title>S&#45;2426</title>
<polygon fill="mediumseagreen" stroke="black" points="1286,-144 1214,-122.5 1286,-101 1358,-122.5 1286,-144"/>
<text text-anchor="middle" x="1286" y="-120" font-family="Arial" font-size="10.00">S&#45;2426</text>
</g>
<!-- S&#45;2443 -->
<g id="node9" class="node">
<title>S&#45;2443</title>
<polygon fill="mediumseagreen" stroke="black" points="3250,-43 3178,-21.5 3250,0 3322,-21.5 3250,-43"/>
<text text-anchor="middle" x="3250" y="-19" font-family="Arial" font-size="10.00">S&#45;2443</text>
</g>
<!-- C&#45;1023 -->
<g id="node10" class="node">
<title>C&#45;1023</title>
<ellipse fill="mediumseagreen" stroke="black" cx="238" cy="-223.5" rx="72" ry="21.5"/>
<text text-anchor="middle" x="238" y="-221" font-family="Arial" font-size="10.00">C&#45;1023</text>
</g>
<!-- C&#45;1023&#45;&gt;R&#45;250 -->
<g id="edge24" class="edge">
<title>C&#45;1023&#45;&gt;R&#45;250</title>
<path fill="none" stroke="#4d4d4d" d="M245,-202.08C245,-202.08 245,-151.24 245,-151.24"/>
<polygon fill="#4d4d4d" stroke="#4d4d4d" points="247.45,-151.24 245,-144.24 242.55,-151.24 247.45,-151.24"/>
</g>
<!-- C&#45;0372 -->
<g id="node11" class="node">
<title>C&#45;0372</title>
<ellipse fill="mediumseagreen" stroke="black" cx="1939" cy="-627.5" rx="72" ry="21.5"/>
<text text-anchor="middle" x="1939" y="-625" font-family="Arial" font-size="10.00">C&#45;0372</text>
</g>
<!-- C&#45;0372&#45;&gt;R&#45;124 -->
<g id="edge5" class="edge">
<title>C&#45;0372&#45;&gt;R&#45;124</title>
<path fill="none" stroke="#4d4d4d" d="M1919.5,-606.47C1919.5,-576.74 1919.5,-526 1919.5,-526 1919.5,-526 1558.25,-526 1558.25,-526"/>
<polygon fill="#4d4d4d" stroke="#4d4d4d" points="1558.25,-523.55 1551.25,-526 1558.25,-528.45 1558.25,-523.55"/>
</g>
<!-- S&#45;584 -->
<g id="node12" class="node">
<title>S&#45;584</title>
<polygon fill="mediumseagreen" stroke="black" points="2980,-245 2908,-223.5 2980,-202 3052,-223.5 2980,-245"/>
<text text-anchor="middle" x="2980" y="-221" font-family="Arial" font-size="10.00">S&#45;584</text>
</g>
<!-- S&#45;1794 -->
<g id="node44" class="node">
<title>S&#45;1794</title>
<polygon fill="mediumseagreen" stroke="black" points="3160,-144 3088,-122.5 3160,-101 3232,-122.5 3160,-144"/>
<text text-anchor="middle" x="3160" y="-120" font-family="Arial" font-size="10.00">S&#45;1794</text>
</g>
<!-- S&#45;584&#45;&gt;S&#45;1794 -->
<g id="edge34" class="edge">
<title>S&#45;584&#45;&gt;S&#45;1794</title>
<path fill="none" stroke="#4d4d4d" d="M3050.53,-223C3065.04,-223 3076,-223 3076,-223 3076,-223 3076,-122 3076,-122 3076,-122 3082.5,-122 3082.5,-122"/>
<polygon fill="#4d4d4d" stroke="#4d4d4d" points="3082.5,-124.45 3089.5,-122 3082.5,-119.55 3082.5,-124.45"/>
</g>
<!-- S&#45;1773 -->
<g id="node46" class="node">
<title>S&#45;1773</title>
<polygon fill="mediumseagreen" stroke="black" points="2980,-144 2908,-122.5 2980,-101 3052,-122.5 2980,-144"/>
<text text-anchor="middle" x="2980" y="-120" font-family="Arial" font-size="10.00">S&#45;1773</text>
</g>
<!-- S&#45;584&#45;&gt;S&#45;1773 -->
<g id="edge37" class="edge">
<title>S&#45;584&#45;&gt;S&#45;1773</title>
<path fill="none" stroke="#4d4d4d" d="M2980,-201.58C2980,-201.58 2980,-151.03 2980,-151.03"/>
<polygon fill="#4d4d4d" stroke="#4d4d4d" points="2982.45,-151.03 2980,-144.03 2977.55,-151.03 2982.45,-151.03"/>
</g>
<!-- C&#45;1230 -->
<g id="node13" class="node">
<title>C&#45;1230</title>
<ellipse fill="mediumseagreen" stroke="black" cx="2404" cy="-627.5" rx="72" ry="21.5"/>
<text text-anchor="middle" x="2404" y="-625" font-family="Arial" font-size="10.00">C&#45;1230</text>
</g>
<!-- R&#45;057 -->
<g id="node35" class="node">
<title>R&#45;057</title>
<polygon fill="mediumseagreen" stroke="black" points="2502,-517.59 2502,-535.41 2459.82,-548 2400.18,-548 2358,-535.41 2358,-517.59 2400.18,-505 2459.82,-505 2502,-517.59"/>
<text text-anchor="middle" x="2430" y="-524" font-family="Arial" font-size="10.00">R&#45;057</text>
</g>
<!-- C&#45;1230&#45;&gt;R&#45;057 -->
<g id="edge30" class="edge">
<title>C&#45;1230&#45;&gt;R&#45;057</title>
<path fill="none" stroke="#4d4d4d" d="M2417,-606.08C2417,-606.08 2417,-555.24 2417,-555.24"/>
<polygon fill="#4d4d4d" stroke="#4d4d4d" points="2419.45,-555.24 2417,-548.24 2414.55,-555.24 2419.45,-555.24"/>
</g>
<!-- C&#45;0294 -->
<g id="node14" class="node">
<title>C&#45;0294</title>
<ellipse fill="tomato" stroke="black" cx="1720" cy="-122.5" rx="72" ry="21.5"/>
<text text-anchor="middle" x="1720" y="-120" font-family="Arial" font-size="10.00">C&#45;0294</text>
</g>
<!-- ext_circ_208_26_ -->
<g id="node51" class="node">
<title>ext_circ_208_26_</title>
<polygon fill="lightpink" stroke="darkorange" stroke-dasharray="5,2" points="1882,-43 1738,-43 1738,0 1882,0 1882,-43"/>
<text text-anchor="middle" x="1810" y="-24.5" font-family="Arial" font-size="10.00">Circuito:</text>
<text text-anchor="middle" x="1810" y="-13.5" font-family="Arial" font-size="10.00">208&#45;26&#45;</text>
</g>
<!-- C&#45;0294&#45;&gt;ext_circ_208_26_ -->
<g id="edge52" class="edge">
<title>C&#45;0294&#45;&gt;ext_circ_208_26_</title>
<path fill="none" stroke="darkorange" stroke-dasharray="5,2" d="M1765,-105.37C1765,-105.37 1765,-50.31 1765,-50.31"/>
<polygon fill="darkorange" stroke="darkorange" points="1767.45,-50.31 1765,-43.31 1762.55,-50.31 1767.45,-50.31"/>
</g>
<!-- C&#45;0176 -->
<g id="node15" class="node">
<title>C&#45;0176</title>
<ellipse fill="tomato" stroke="black" cx="432" cy="-122.5" rx="72" ry="21.5"/>
<text text-anchor="middle" x="432" y="-120" font-family="Arial" font-size="10.00">C&#45;0176</text>
</g>
<!-- C&#45;0176&#45;&gt;ext_circ_112_23_ -->
<g id="edge55" class="edge">
<title>C&#45;0176&#45;&gt;ext_circ_112_23_</title>
<path fill="none" stroke="darkorange" stroke-dasharray="5,2" d="M387,-105.37C387,-105.37 387,-50.31 387,-50.31"/>
<polygon fill="darkorange" stroke="darkorange" points="389.45,-50.31 387,-43.31 384.55,-50.31 389.45,-50.31"/>
</g>
<!-- S&#45;1586 -->
<g id="node16" class="node">
<title>S&#45;1586</title>
<polygon fill="mediumseagreen" stroke="black" points="492,-245 420,-223.5 492,-202 564,-223.5 492,-245"/>
<text text-anchor="middle" x="492" y="-221" font-family="Arial" font-size="10.00">S&#45;1586</text>
</g>
<!-- 307&#45;25&#45; -->
<g id="node17" class="node">
<title>307&#45;25&#45;</title>
<polygon fill="gold" stroke="black" points="2746,-824.59 2746,-842.41 2703.82,-855 2644.18,-855 2602,-842.41 2602,-824.59 2644.18,-812 2703.82,-812 2746,-824.59"/>
<polygon fill="none" stroke="black" points="2750,-821.61 2750,-845.39 2704.41,-859 2643.59,-859 2598,-845.39 2598,-821.61 2643.59,-808 2704.41,-808 2750,-821.61"/>
<text text-anchor="middle" x="2674" y="-831" font-family="Arial" font-size="10.00">307&#45;25&#45;</text>
</g>
<!-- C&#45;0105 -->
<g id="node31" class="node">
<title>C&#45;0105</title>
<ellipse fill="mediumseagreen" stroke="black" cx="2674" cy="-728.5" rx="72" ry="21.5"/>
<text text-anchor="middle" x="2674" y="-726" font-family="Arial" font-size="10.00">C&#45;0105</text>
</g>
<!-- 307&#45;25&#45;&#45;&gt;C&#45;0105 -->
<g id="edge1" class="edge">
<title>307&#45;25&#45;&#45;&gt;C&#45;0105</title>
<path fill="none" stroke="#4d4d4d" d="M2674,-807.81C2674,-807.81 2674,-757.03 2674,-757.03"/>
<polygon fill="#4d4d4d" stroke="#4d4d4d" points="2676.45,-757.03 2674,-750.03 2671.55,-757.03 2676.45,-757.03"/>
</g>
<!-- R&#45;303 -->
<g id="node18" class="node">
<title>R&#45;303</title>
<polygon fill="tomato" stroke="black" points="721,-113.59 721,-131.41 678.82,-144 619.18,-144 577,-131.41 577,-113.59 619.18,-101 678.82,-101 721,-113.59"/>
<text text-anchor="middle" x="649" y="-120" font-family="Arial" font-size="10.00">R&#45;303</text>
</g>
<!-- R&#45;303&#45;&gt;ext_circ_112_23_ -->
<g id="edge54" class="edge">
<title>R&#45;303&#45;&gt;ext_circ_112_23_</title>
<path fill="none" stroke="darkorange" stroke-dasharray="5,2" d="M649,-100.97C649,-71.18 649,-21 649,-21 649,-21 421.37,-21 421.37,-21"/>
<polygon fill="darkorange" stroke="darkorange" points="421.37,-18.55 414.37,-21 421.37,-23.45 421.37,-18.55"/>
</g>
<!-- C&#45;0373&#45;&gt;S&#45;1543 -->
<g id="edge15" class="edge">
<title>C&#45;0373&#45;&gt;S&#45;1543</title>
<path fill="none" stroke="#4d4d4d" d="M1204,-408.37C1204,-408.37 1204,-339.78 1204,-339.78"/>
<polygon fill="#4d4d4d" stroke="#4d4d4d" points="1206.45,-339.78 1204,-332.78 1201.55,-339.78 1206.45,-339.78"/>
</g>
<!-- C&#45;0373&#45;&gt;C&#45;1092 -->
<g id="edge25" class="edge">
<title>C&#45;0373&#45;&gt;C&#45;1092</title>
<path fill="none" stroke="#4d4d4d" d="M1294,-408.37C1294,-408.37 1294,-348.38 1294,-348.38"/>
<polygon fill="#4d4d4d" stroke="#4d4d4d" points="1296.45,-348.38 1294,-341.38 1291.55,-348.38 1296.45,-348.38"/>
</g>
<!-- S&#45;994 -->
<g id="node24" class="node">
<title>S&#45;994</title>
<polygon fill="mediumseagreen" stroke="black" points="1583,-346 1511,-324.5 1583,-303 1655,-324.5 1583,-346"/>
<text text-anchor="middle" x="1583" y="-322" font-family="Arial" font-size="10.00">S&#45;994</text>
</g>
<!-- C&#45;0373&#45;&gt;S&#45;994 -->
<g id="edge7" class="edge">
<title>C&#45;0373&#45;&gt;S&#45;994</title>
<path fill="none" stroke="#4d4d4d" d="M1316.55,-418C1399.97,-418 1531,-418 1531,-418 1531,-418 1531,-337.63 1531,-337.63"/>
<polygon fill="#4d4d4d" stroke="#4d4d4d" points="1533.45,-337.63 1531,-330.63 1528.55,-337.63 1533.45,-337.63"/>
</g>
<!-- C&#45;1067 -->
<g id="node38" class="node">
<title>C&#45;1067</title>
<ellipse fill="mediumseagreen" stroke="black" cx="492" cy="-324.5" rx="72" ry="21.5"/>
<text text-anchor="middle" x="492" y="-322" font-family="Arial" font-size="10.00">C&#45;1067</text>
</g>
<!-- C&#45;0373&#45;&gt;C&#45;1067 -->
<g id="edge16" class="edge">
<title>C&#45;0373&#45;&gt;C&#45;1067</title>
<path fill="none" stroke="#4d4d4d" d="M1180.15,-432C993.54,-432 492,-432 492,-432 492,-432 492,-353.25 492,-353.25"/>
<polygon fill="#4d4d4d" stroke="#4d4d4d" points="494.45,-353.25 492,-346.25 489.55,-353.25 494.45,-353.25"/>
</g>
<!-- C&#45;0293 -->
<g id="node45" class="node">
<title>C&#45;0293</title>
<ellipse fill="tomato" stroke="black" cx="979" cy="-324.5" rx="72" ry="21.5"/>
<text text-anchor="middle" x="979" y="-322" font-family="Arial" font-size="10.00">C&#45;0293</text>
</g>
<!-- C&#45;0373&#45;&gt;C&#45;0293 -->
<g id="edge27" class="edge">
<title>C&#45;0373&#45;&gt;C&#45;0293</title>
<path fill="none" stroke="#4d4d4d" d="M1181.22,-418C1101.24,-418 979,-418 979,-418 979,-418 979,-353.19 979,-353.19"/>
<polygon fill="#4d4d4d" stroke="#4d4d4d" points="981.45,-353.19 979,-346.19 976.55,-353.19 981.45,-353.19"/>
</g>
<!-- C&#45;1101 -->
<g id="node20" class="node">
<title>C&#45;1101</title>
<ellipse fill="mediumseagreen" stroke="black" cx="1900" cy="-223.5" rx="72" ry="21.5"/>
<text text-anchor="middle" x="1900" y="-221" font-family="Arial" font-size="10.00">C&#45;1101</text>
</g>
<!-- R&#45;273 -->
<g id="node32" class="node">
<title>R&#45;273</title>
<polygon fill="tomato" stroke="black" points="1972,-113.59 1972,-131.41 1929.82,-144 1870.18,-144 1828,-131.41 1828,-113.59 1870.18,-101 1929.82,-101 1972,-113.59"/>
<text text-anchor="middle" x="1900" y="-120" font-family="Arial" font-size="10.00">R&#45;273</text>
</g>
<!-- C&#45;1101&#45;&gt;R&#45;273 -->
<g id="edge12" class="edge">
<title>C&#45;1101&#45;&gt;R&#45;273</title>
<path fill="none" stroke="#4d4d4d" d="M1900,-201.58C1900,-201.58 1900,-151.03 1900,-151.03"/>
<polygon fill="#4d4d4d" stroke="#4d4d4d" points="1902.45,-151.03 1900,-144.03 1897.55,-151.03 1902.45,-151.03"/>
</g>
<!-- S&#45;063 -->
<g id="node21" class="node">
<title>S&#45;063</title>
<polygon fill="mediumseagreen" stroke="black" points="1286,-245 1214,-223.5 1286,-202 1358,-223.5 1286,-245"/>
<text text-anchor="middle" x="1286" y="-221" font-family="Arial" font-size="10.00">S&#45;063</text>
</g>
<!-- S&#45;063&#45;&gt;S&#45;2426 -->
<g id="edge9" class="edge">
<title>S&#45;063&#45;&gt;S&#45;2426</title>
<path fill="none" stroke="#4d4d4d" d="M1286,-201.58C1286,-201.58 1286,-151.03 1286,-151.03"/>
<polygon fill="#4d4d4d" stroke="#4d4d4d" points="1288.45,-151.03 1286,-144.03 1283.55,-151.03 1288.45,-151.03"/>
</g>
<!-- C&#45;1298 -->
<g id="node22" class="node">
<title>C&#45;1298</title>
<ellipse fill="mediumseagreen" stroke="black" cx="672" cy="-223.5" rx="72" ry="21.5"/>
<text text-anchor="middle" x="672" y="-221" font-family="Arial" font-size="10.00">C&#45;1298</text>
</g>
<!-- C&#45;1298&#45;&gt;R&#45;303 -->
<g id="edge21" class="edge">
<title>C&#45;1298&#45;&gt;R&#45;303</title>
<path fill="none" stroke="#4d4d4d" d="M660.5,-202.08C660.5,-202.08 660.5,-151.24 660.5,-151.24"/>
<polygon fill="#4d4d4d" stroke="#4d4d4d" points="662.95,-151.24 660.5,-144.24 658.05,-151.24 662.95,-151.24"/>
</g>
<!-- C&#45;0371 -->
<g id="node23" class="node">
<title>C&#45;0371</title>
<ellipse fill="tomato" stroke="black" cx="2584" cy="-627.5" rx="72" ry="21.5"/>
<text text-anchor="middle" x="2584" y="-625" font-family="Arial" font-size="10.00">C&#45;0371</text>
</g>
<!-- C&#45;0371&#45;&gt;C&#45;0373 -->
<g id="edge50" class="edge">
<title>C&#45;0371&#45;&gt;C&#45;0373</title>
<path fill="none" stroke="blue" stroke-dasharray="5,2" d="M2557,-607.54C2557,-593.43 2557,-577 2557,-577 2557,-577 1249,-577 1249,-577 1249,-577 1249,-454.21 1249,-454.21"/>
<polygon fill="blue" stroke="blue" points="1251.45,-454.21 1249,-447.21 1246.55,-454.21 1251.45,-454.21"/>
</g>
<!-- S&#45;994&#45;&gt;S&#45;1288 -->
<g id="edge14" class="edge">
<title>S&#45;994&#45;&gt;S&#45;1288</title>
<path fill="none" stroke="#4d4d4d" d="M1614.5,-312.12C1614.5,-312.12 1614.5,-242.67 1614.5,-242.67"/>
<polygon fill="#4d4d4d" stroke="#4d4d4d" points="1616.95,-242.67 1614.5,-235.67 1612.05,-242.67 1616.95,-242.67"/>
</g>
<!-- S&#45;994&#45;&gt;C&#45;0294 -->
<g id="edge13" class="edge">
<title>S&#45;994&#45;&gt;C&#45;0294</title>
<path fill="none" stroke="#4d4d4d" d="M1556,-310.9C1556,-265.5 1556,-122 1556,-122 1556,-122 1640.59,-122 1640.59,-122"/>
<polygon fill="#4d4d4d" stroke="#4d4d4d" points="1640.59,-124.45 1647.59,-122 1640.59,-119.55 1640.59,-124.45"/>
</g>
<!-- S&#45;994&#45;&gt;C&#45;1101 -->
<g id="edge11" class="edge">
<title>S&#45;994&#45;&gt;C&#45;1101</title>
<path fill="none" stroke="#4d4d4d" d="M1653.53,-324C1731.89,-324 1847.5,-324 1847.5,-324 1847.5,-324 1847.5,-245.33 1847.5,-245.33"/>
<polygon fill="#4d4d4d" stroke="#4d4d4d" points="1849.95,-245.33 1847.5,-238.33 1845.05,-245.33 1849.95,-245.33"/>
</g>
<!-- S&#45;994&#45;&gt;S&#45;063 -->
<g id="edge8" class="edge">
<title>S&#45;994&#45;&gt;S&#45;063</title>
<path fill="none" stroke="#4d4d4d" d="M1520,-321.58C1520,-309.5 1520,-264 1520,-264 1520,-264 1327.67,-264 1327.67,-264 1327.67,-264 1327.67,-239.89 1327.67,-239.89"/>
<polygon fill="#4d4d4d" stroke="#4d4d4d" points="1330.12,-239.89 1327.67,-232.89 1325.22,-239.89 1330.12,-239.89"/>
</g>
<!-- S&#45;1974 -->
<g id="node43" class="node">
<title>S&#45;1974</title>
<polygon fill="mediumseagreen" stroke="black" points="1466,-245 1394,-223.5 1466,-202 1538,-223.5 1466,-245"/>
<text text-anchor="middle" x="1466" y="-221" font-family="Arial" font-size="10.00">S&#45;1974</text>
</g>
<!-- S&#45;994&#45;&gt;S&#45;1974 -->
<g id="edge10" class="edge">
<title>S&#45;994&#45;&gt;S&#45;1974</title>
<path fill="none" stroke="#4d4d4d" d="M1529,-319.07C1529,-319.07 1529,-233.37 1529,-233.37"/>
<polygon fill="#4d4d4d" stroke="#4d4d4d" points="1531.45,-233.37 1529,-226.37 1526.55,-233.37 1531.45,-233.37"/>
</g>
<!-- C&#45;0448 -->
<g id="node25" class="node">
<title>C&#45;0448</title>
<ellipse fill="mediumseagreen" stroke="black" cx="2440" cy="-223.5" rx="72" ry="21.5"/>
<text text-anchor="middle" x="2440" y="-221" font-family="Arial" font-size="10.00">C&#45;0448</text>
</g>
<!-- C&#45;0448&#45;&gt;S&#45;2261 -->
<g id="edge42" class="edge">
<title>C&#45;0448&#45;&gt;S&#45;2261</title>
<path fill="none" stroke="#4d4d4d" d="M2371.3,-230C2267.21,-230 2081.5,-230 2081.5,-230 2081.5,-230 2081.5,-150.74 2081.5,-150.74"/>
<polygon fill="#4d4d4d" stroke="#4d4d4d" points="2083.95,-150.74 2081.5,-143.74 2079.05,-150.74 2083.95,-150.74"/>
</g>
<!-- S&#45;2558 -->
<g id="node27" class="node">
<title>S&#45;2558</title>
<polygon fill="mediumseagreen" stroke="black" points="2260,-144 2188,-122.5 2260,-101 2332,-122.5 2260,-144"/>
<text text-anchor="middle" x="2260" y="-120" font-family="Arial" font-size="10.00">S&#45;2558</text>
</g>
<!-- C&#45;0448&#45;&gt;S&#45;2558 -->
<g id="edge44" class="edge">
<title>C&#45;0448&#45;&gt;S&#45;2558</title>
<path fill="none" stroke="#4d4d4d" d="M2372.46,-216C2321.39,-216 2260,-216 2260,-216 2260,-216 2260,-151.19 2260,-151.19"/>
<polygon fill="#4d4d4d" stroke="#4d4d4d" points="2262.45,-151.19 2260,-144.19 2257.55,-151.19 2262.45,-151.19"/>
</g>
<!-- R&#45;081 -->
<g id="node37" class="node">
<title>R&#45;081</title>
<polygon fill="tomato" stroke="black" points="2512,-113.59 2512,-131.41 2469.82,-144 2410.18,-144 2368,-131.41 2368,-113.59 2410.18,-101 2469.82,-101 2512,-113.59"/>
<text text-anchor="middle" x="2440" y="-120" font-family="Arial" font-size="10.00">R&#45;081</text>
</g>
<!-- C&#45;0448&#45;&gt;R&#45;081 -->
<g id="edge45" class="edge">
<title>C&#45;0448&#45;&gt;R&#45;081</title>
<path fill="none" stroke="#4d4d4d" d="M2416,-203.06C2416,-203.06 2416,-151.31 2416,-151.31"/>
<polygon fill="#4d4d4d" stroke="#4d4d4d" points="2418.45,-151.31 2416,-144.31 2413.55,-151.31 2418.45,-151.31"/>
</g>
<!-- S&#45;561 -->
<g id="node41" class="node">
<title>S&#45;561</title>
<polygon fill="mediumseagreen" stroke="black" points="2620,-144 2548,-122.5 2620,-101 2692,-122.5 2620,-144"/>
<text text-anchor="middle" x="2620" y="-120" font-family="Arial" font-size="10.00">S&#45;561</text>
</g>
<!-- C&#45;0448&#45;&gt;S&#45;561 -->
<g id="edge46" class="edge">
<title>C&#45;0448&#45;&gt;S&#45;561</title>
<path fill="none" stroke="#4d4d4d" d="M2507.8,-216C2517.36,-216 2524,-216 2524,-216 2524,-216 2524,-122 2524,-122 2524,-122 2542.47,-122 2542.47,-122"/>
<polygon fill="#4d4d4d" stroke="#4d4d4d" points="2542.47,-124.45 2549.47,-122 2542.47,-119.55 2542.47,-124.45"/>
</g>
<!-- S&#45;2237 -->
<g id="node50" class="node">
<title>S&#45;2237</title>
<polygon fill="mediumseagreen" stroke="black" points="2800,-144 2728,-122.5 2800,-101 2872,-122.5 2800,-144"/>
<text text-anchor="middle" x="2800" y="-120" font-family="Arial" font-size="10.00">S&#45;2237</text>
</g>
<!-- C&#45;0448&#45;&gt;S&#45;2237 -->
<g id="edge43" class="edge">
<title>C&#45;0448&#45;&gt;S&#45;2237</title>
<path fill="none" stroke="#4d4d4d" d="M2464,-202.96C2464,-188.98 2464,-173 2464,-173 2464,-173 2800,-173 2800,-173 2800,-173 2800,-151.21 2800,-151.21"/>
<polygon fill="#4d4d4d" stroke="#4d4d4d" points="2802.45,-151.21 2800,-144.21 2797.55,-151.21 2802.45,-151.21"/>
</g>
<!-- S&#45;1152 -->
<g id="node26" class="node">
<title>S&#45;1152</title>
<polygon fill="mediumseagreen" stroke="black" points="3160,-245 3088,-223.5 3160,-202 3232,-223.5 3160,-245"/>
<text text-anchor="middle" x="3160" y="-221" font-family="Arial" font-size="10.00">S&#45;1152</text>
</g>
<!-- S&#45;585 -->
<g id="node28" class="node">
<title>S&#45;585</title>
<polygon fill="mediumseagreen" stroke="black" points="2764,-649 2692,-627.5 2764,-606 2836,-627.5 2764,-649"/>
<text text-anchor="middle" x="2764" y="-625" font-family="Arial" font-size="10.00">S&#45;585</text>
</g>
<!-- ext_circ_307_23_ -->
<g id="node53" class="node">
<title>ext_circ_307_23_</title>
<polygon fill="lightpink" stroke="darkorange" stroke-dasharray="5,2" points="1115,-144 971,-144 971,-101 1115,-101 1115,-144"/>
<text text-anchor="middle" x="1043" y="-125.5" font-family="Arial" font-size="10.00">Circuito:</text>
<text text-anchor="middle" x="1043" y="-114.5" font-family="Arial" font-size="10.00">307&#45;23&#45;</text>
</g>
<!-- R&#45;269&#45;&gt;ext_circ_307_23_ -->
<g id="edge57" class="edge">
<title>R&#45;269&#45;&gt;ext_circ_307_23_</title>
<path fill="none" stroke="darkorange" stroke-dasharray="5,2" d="M1074.5,-202.08C1074.5,-202.08 1074.5,-151.24 1074.5,-151.24"/>
<polygon fill="darkorange" stroke="darkorange" points="1076.95,-151.24 1074.5,-144.24 1072.05,-151.24 1076.95,-151.24"/>
</g>
<!-- S&#45;1290 -->
<g id="node30" class="node">
<title>S&#45;1290</title>
<polygon fill="mediumseagreen" stroke="black" points="852,-245 780,-223.5 852,-202 924,-223.5 852,-245"/>
<text text-anchor="middle" x="852" y="-221" font-family="Arial" font-size="10.00">S&#45;1290</text>
</g>
<!-- C&#45;0105&#45;&gt;C&#45;0372 -->
<g id="edge3" class="edge">
<title>C&#45;0105&#45;&gt;C&#45;0372</title>
<path fill="none" stroke="#4d4d4d" d="M2605.18,-735C2422.47,-735 1939,-735 1939,-735 1939,-735 1939,-656.25 1939,-656.25"/>
<polygon fill="#4d4d4d" stroke="#4d4d4d" points="1941.45,-656.25 1939,-649.25 1936.55,-656.25 1941.45,-656.25"/>
</g>
<!-- C&#45;0105&#45;&gt;C&#45;1230 -->
<g id="edge29" class="edge">
<title>C&#45;0105&#45;&gt;C&#45;1230</title>
<path fill="none" stroke="#4d4d4d" d="M2606.22,-721C2526.24,-721 2404,-721 2404,-721 2404,-721 2404,-656.19 2404,-656.19"/>
<polygon fill="#4d4d4d" stroke="#4d4d4d" points="2406.45,-656.19 2404,-649.19 2401.55,-656.19 2406.45,-656.19"/>
</g>
<!-- C&#45;0105&#45;&gt;C&#45;0371 -->
<g id="edge4" class="edge">
<title>C&#45;0105&#45;&gt;C&#45;0371</title>
<path fill="none" stroke="#4d4d4d" d="M2629,-711.37C2629,-711.37 2629,-651.38 2629,-651.38"/>
<polygon fill="#4d4d4d" stroke="#4d4d4d" points="2631.45,-651.38 2629,-644.38 2626.55,-651.38 2631.45,-651.38"/>
</g>
<!-- C&#45;0105&#45;&gt;S&#45;585 -->
<g id="edge2" class="edge">
<title>C&#45;0105&#45;&gt;S&#45;585</title>
<path fill="none" stroke="#4d4d4d" d="M2719,-711.37C2719,-711.37 2719,-642.78 2719,-642.78"/>
<polygon fill="#4d4d4d" stroke="#4d4d4d" points="2721.45,-642.78 2719,-635.78 2716.55,-642.78 2721.45,-642.78"/>
</g>
<!-- S&#45;679 -->
<g id="node34" class="node">
<title>S&#45;679</title>
<polygon fill="mediumseagreen" stroke="black" points="2944,-649 2872,-627.5 2944,-606 3016,-627.5 2944,-649"/>
<text text-anchor="middle" x="2944" y="-625" font-family="Arial" font-size="10.00">S&#45;679</text>
</g>
<!-- C&#45;0105&#45;&gt;S&#45;679 -->
<g id="edge49" class="edge">
<title>C&#45;0105&#45;&gt;S&#45;679</title>
<path fill="none" stroke="#4d4d4d" d="M2741.78,-721C2821.76,-721 2944,-721 2944,-721 2944,-721 2944,-656.19 2944,-656.19"/>
<polygon fill="#4d4d4d" stroke="#4d4d4d" points="2946.45,-656.19 2944,-649.19 2941.55,-656.19 2946.45,-656.19"/>
</g>
<!-- C&#45;1229 -->
<g id="node42" class="node">
<title>C&#45;1229</title>
<ellipse fill="tomato" stroke="black" cx="3124" cy="-627.5" rx="72" ry="21.5"/>
<text text-anchor="middle" x="3124" y="-625" font-family="Arial" font-size="10.00">C&#45;1229</text>
</g>
<!-- C&#45;0105&#45;&gt;C&#45;1229 -->
<g id="edge28" class="edge">
<title>C&#45;0105&#45;&gt;C&#45;1229</title>
<path fill="none" stroke="#4d4d4d" d="M2742.84,-735C2868.89,-735 3124,-735 3124,-735 3124,-735 3124,-656.25 3124,-656.25"/>
<polygon fill="#4d4d4d" stroke="#4d4d4d" points="3126.45,-656.25 3124,-649.25 3121.55,-656.25 3126.45,-656.25"/>
</g>
<!-- R&#45;273&#45;&gt;ext_circ_208_26_ -->
<g id="edge51" class="edge">
<title>R&#45;273&#45;&gt;ext_circ_208_26_</title>
<path fill="none" stroke="darkorange" stroke-dasharray="5,2" d="M1855,-105.37C1855,-105.37 1855,-50.31 1855,-50.31"/>
<polygon fill="darkorange" stroke="darkorange" points="1857.45,-50.31 1855,-43.31 1852.55,-50.31 1857.45,-50.31"/>
</g>
<!-- S&#45;557 -->
<g id="node33" class="node">
<title>S&#45;557</title>
<polygon fill="mediumseagreen" stroke="black" points="2620,-346 2548,-324.5 2620,-303 2692,-324.5 2620,-346"/>
<text text-anchor="middle" x="2620" y="-322" font-family="Arial" font-size="10.00">S&#45;557</text>
</g>
<!-- S&#45;557&#45;&gt;C&#45;0448 -->
<g id="edge41" class="edge">
<title>S&#45;557&#45;&gt;C&#45;0448</title>
<path fill="none" stroke="#4d4d4d" d="M2549.5,-324C2541.42,-324 2536,-324 2536,-324 2536,-324 2536,-230 2536,-230 2536,-230 2515.75,-230 2515.75,-230"/>
<polygon fill="#4d4d4d" stroke="#4d4d4d" points="2515.75,-227.55 2508.75,-230 2515.75,-232.45 2515.75,-227.55"/>
</g>
<!-- S&#45;1397 -->
<g id="node36" class="node">
<title>S&#45;1397</title>
<polygon fill="mediumseagreen" stroke="black" points="2620,-245 2548,-223.5 2620,-202 2692,-223.5 2620,-245"/>
<text text-anchor="middle" x="2620" y="-221" font-family="Arial" font-size="10.00">S&#45;1397</text>
</g>
<!-- S&#45;557&#45;&gt;S&#45;1397 -->
<g id="edge47" class="edge">
<title>S&#45;557&#45;&gt;S&#45;1397</title>
<path fill="none" stroke="#4d4d4d" d="M2620,-302.58C2620,-302.58 2620,-252.03 2620,-252.03"/>
<polygon fill="#4d4d4d" stroke="#4d4d4d" points="2622.45,-252.03 2620,-245.03 2617.55,-252.03 2622.45,-252.03"/>
</g>
<!-- S&#45;2004 -->
<g id="node49" class="node">
<title>S&#45;2004</title>
<polygon fill="mediumseagreen" stroke="black" points="2800,-245 2728,-223.5 2800,-202 2872,-223.5 2800,-245"/>
<text text-anchor="middle" x="2800" y="-221" font-family="Arial" font-size="10.00">S&#45;2004</text>
</g>
<!-- S&#45;557&#45;&gt;S&#45;2004 -->
<g id="edge48" class="edge">
<title>S&#45;557&#45;&gt;S&#45;2004</title>
<path fill="none" stroke="#4d4d4d" d="M2690.58,-324C2734.24,-324 2782,-324 2782,-324 2782,-324 2782,-246.65 2782,-246.65"/>
<polygon fill="#4d4d4d" stroke="#4d4d4d" points="2784.45,-246.65 2782,-239.65 2779.55,-246.65 2784.45,-246.65"/>
</g>
<!-- C&#45;1231 -->
<g id="node48" class="node">
<title>C&#45;1231</title>
<ellipse fill="mediumseagreen" stroke="black" cx="2530" cy="-425.5" rx="72" ry="21.5"/>
<text text-anchor="middle" x="2530" y="-423" font-family="Arial" font-size="10.00">C&#45;1231</text>
</g>
<!-- R&#45;057&#45;&gt;C&#45;1231 -->
<g id="edge31" class="edge">
<title>R&#45;057&#45;&gt;C&#45;1231</title>
<path fill="none" stroke="#4d4d4d" d="M2480,-510.72C2480,-510.72 2480,-448.17 2480,-448.17"/>
<polygon fill="#4d4d4d" stroke="#4d4d4d" points="2482.45,-448.17 2480,-441.17 2477.55,-448.17 2482.45,-448.17"/>
</g>
<!-- ext_circ_307_22_ -->
<g id="node54" class="node">
<title>ext_circ_307_22_</title>
<polygon fill="lightpink" stroke="darkorange" stroke-dasharray="5,2" points="2512,-43 2368,-43 2368,0 2512,0 2512,-43"/>
<text text-anchor="middle" x="2440" y="-24.5" font-family="Arial" font-size="10.00">Circuito:</text>
<text text-anchor="middle" x="2440" y="-13.5" font-family="Arial" font-size="10.00">307&#45;22&#45;</text>
</g>
<!-- R&#45;081&#45;&gt;ext_circ_307_22_ -->
<g id="edge60" class="edge">
<title>R&#45;081&#45;&gt;ext_circ_307_22_</title>
<path fill="none" stroke="darkorange" stroke-dasharray="5,2" d="M2440,-100.58C2440,-100.58 2440,-50.03 2440,-50.03"/>
<polygon fill="darkorange" stroke="darkorange" points="2442.45,-50.03 2440,-43.03 2437.55,-50.03 2442.45,-50.03"/>
</g>
<!-- C&#45;1067&#45;&gt;C&#45;1300 -->
<g id="edge19" class="edge">
<title>C&#45;1067&#45;&gt;C&#45;1300</title>
<path fill="none" stroke="#4d4d4d" d="M429.12,-335C311.96,-335 72,-335 72,-335 72,-335 72,-151.05 72,-151.05"/>
<polygon fill="#4d4d4d" stroke="#4d4d4d" points="74.45,-151.05 72,-144.05 69.55,-151.05 74.45,-151.05"/>
</g>
<!-- C&#45;1067&#45;&gt;C&#45;1023 -->
<g id="edge23" class="edge">
<title>C&#45;1067&#45;&gt;C&#45;1023</title>
<path fill="none" stroke="#4d4d4d" d="M419.89,-324C344.8,-324 238,-324 238,-324 238,-324 238,-252.31 238,-252.31"/>
<polygon fill="#4d4d4d" stroke="#4d4d4d" points="240.45,-252.31 238,-245.31 235.55,-252.31 240.45,-252.31"/>
</g>
<!-- C&#45;1067&#45;&gt;C&#45;0176 -->
<g id="edge22" class="edge">
<title>C&#45;1067&#45;&gt;C&#45;0176</title>
<path fill="none" stroke="#4d4d4d" d="M430.9,-313C409.18,-313 390,-313 390,-313 390,-313 390,-147.08 390,-147.08"/>
<polygon fill="#4d4d4d" stroke="#4d4d4d" points="392.45,-147.08 390,-140.08 387.55,-147.08 392.45,-147.08"/>
</g>
<!-- C&#45;1067&#45;&gt;S&#45;1586 -->
<g id="edge17" class="edge">
<title>C&#45;1067&#45;&gt;S&#45;1586</title>
<path fill="none" stroke="#4d4d4d" d="M492,-302.58C492,-302.58 492,-252.03 492,-252.03"/>
<polygon fill="#4d4d4d" stroke="#4d4d4d" points="494.45,-252.03 492,-245.03 489.55,-252.03 494.45,-252.03"/>
</g>
<!-- C&#45;1067&#45;&gt;C&#45;1298 -->
<g id="edge20" class="edge">
<title>C&#45;1067&#45;&gt;C&#45;1298</title>
<path fill="none" stroke="#4d4d4d" d="M559.54,-317C610.61,-317 672,-317 672,-317 672,-317 672,-252.19 672,-252.19"/>
<polygon fill="#4d4d4d" stroke="#4d4d4d" points="674.45,-252.19 672,-245.19 669.55,-252.19 674.45,-252.19"/>
</g>
<!-- C&#45;1067&#45;&gt;S&#45;1290 -->
<g id="edge18" class="edge">
<title>C&#45;1067&#45;&gt;S&#45;1290</title>
<path fill="none" stroke="#4d4d4d" d="M561.03,-331C663.39,-331 843.5,-331 843.5,-331 843.5,-331 843.5,-249.72 843.5,-249.72"/>
<polygon fill="#4d4d4d" stroke="#4d4d4d" points="845.95,-249.72 843.5,-242.72 841.05,-249.72 845.95,-249.72"/>
</g>
<!-- SR&#45;0006 -->
<g id="node39" class="node">
<title>SR&#45;0006</title>
<polygon fill="mediumseagreen" stroke="black" points="2980,-346 2908,-324.5 2980,-303 3052,-324.5 2980,-346"/>
<text text-anchor="middle" x="2980" y="-322" font-family="Arial" font-size="10.00">SR&#45;0006</text>
</g>
<!-- SR&#45;0006&#45;&gt;S&#45;584 -->
<g id="edge33" class="edge">
<title>SR&#45;0006&#45;&gt;S&#45;584</title>
<path fill="none" stroke="#4d4d4d" d="M2980,-302.58C2980,-302.58 2980,-252.03 2980,-252.03"/>
<polygon fill="#4d4d4d" stroke="#4d4d4d" points="2982.45,-252.03 2980,-245.03 2977.55,-252.03 2982.45,-252.03"/>
</g>
<!-- SR&#45;0006&#45;&gt;S&#45;1152 -->
<g id="edge38" class="edge">
<title>SR&#45;0006&#45;&gt;S&#45;1152</title>
<path fill="none" stroke="#4d4d4d" d="M3050.58,-324C3094.24,-324 3142,-324 3142,-324 3142,-324 3142,-246.65 3142,-246.65"/>
<polygon fill="#4d4d4d" stroke="#4d4d4d" points="3144.45,-246.65 3142,-239.65 3139.55,-246.65 3144.45,-246.65"/>
</g>
<!-- S&#45;2442 -->
<g id="node40" class="node">
<title>S&#45;2442</title>
<polygon fill="mediumseagreen" stroke="black" points="3070,-43 2998,-21.5 3070,0 3142,-21.5 3070,-43"/>
<text text-anchor="middle" x="3070" y="-19" font-family="Arial" font-size="10.00">S&#45;2442</text>
</g>
<!-- C&#45;1229&#45;&gt;C&#45;1231 -->
<g id="edge59" class="edge">
<title>C&#45;1229&#45;&gt;C&#45;1231</title>
<path fill="none" stroke="blue" stroke-dasharray="5,2" d="M3064,-615.56C3064,-573.12 3064,-432 3064,-432 3064,-432 2605.72,-432 2605.72,-432"/>
<polygon fill="blue" stroke="blue" points="2605.72,-429.55 2598.72,-432 2605.72,-434.45 2605.72,-429.55"/>
</g>
<!-- S&#45;1794&#45;&gt;S&#45;2443 -->
<g id="edge36" class="edge">
<title>S&#45;1794&#45;&gt;S&#45;2443</title>
<path fill="none" stroke="#4d4d4d" d="M3205,-114.23C3205,-114.23 3205,-36.6 3205,-36.6"/>
<polygon fill="#4d4d4d" stroke="#4d4d4d" points="3207.45,-36.6 3205,-29.6 3202.55,-36.6 3207.45,-36.6"/>
</g>
<!-- S&#45;1794&#45;&gt;S&#45;2442 -->
<g id="edge35" class="edge">
<title>S&#45;1794&#45;&gt;S&#45;2442</title>
<path fill="none" stroke="#4d4d4d" d="M3115,-114.23C3115,-114.23 3115,-36.6 3115,-36.6"/>
<polygon fill="#4d4d4d" stroke="#4d4d4d" points="3117.45,-36.6 3115,-29.6 3112.55,-36.6 3117.45,-36.6"/>
</g>
<!-- C&#45;0293&#45;&gt;ext_circ_307_23_ -->
<g id="edge58" class="edge">
<title>C&#45;0293&#45;&gt;ext_circ_307_23_</title>
<path fill="none" stroke="darkorange" stroke-dasharray="5,2" d="M1002.5,-304.02C1002.5,-304.02 1002.5,-151.25 1002.5,-151.25"/>
<polygon fill="darkorange" stroke="darkorange" points="1004.95,-151.25 1002.5,-144.25 1000.05,-151.25 1004.95,-151.25"/>
</g>
<!-- S&#45;1888 -->
<g id="node47" class="node">
<title>S&#45;1888</title>
<polygon fill="mediumseagreen" stroke="black" points="2440,-346 2368,-324.5 2440,-303 2512,-324.5 2440,-346"/>
<text text-anchor="middle" x="2440" y="-322" font-family="Arial" font-size="10.00">S&#45;1888</text>
</g>
<!-- C&#45;1231&#45;&gt;S&#45;557 -->
<g id="edge40" class="edge">
<title>C&#45;1231&#45;&gt;S&#45;557</title>
<path fill="none" stroke="#4d4d4d" d="M2575,-408.37C2575,-408.37 2575,-339.78 2575,-339.78"/>
<polygon fill="#4d4d4d" stroke="#4d4d4d" points="2577.45,-339.78 2575,-332.78 2572.55,-339.78 2577.45,-339.78"/>
</g>
<!-- C&#45;1231&#45;&gt;SR&#45;0006 -->
<g id="edge32" class="edge">
<title>C&#45;1231&#45;&gt;SR&#45;0006</title>
<path fill="none" stroke="#4d4d4d" d="M2597.5,-418C2719,-418 2962,-418 2962,-418 2962,-418 2962,-347.79 2962,-347.79"/>
<polygon fill="#4d4d4d" stroke="#4d4d4d" points="2964.45,-347.79 2962,-340.79 2959.55,-347.79 2964.45,-347.79"/>
</g>
<!-- C&#45;1231&#45;&gt;S&#45;1888 -->
<g id="edge39" class="edge">
<title>C&#45;1231&#45;&gt;S&#45;1888</title>
<path fill="none" stroke="#4d4d4d" d="M2485,-408.37C2485,-408.37 2485,-339.78 2485,-339.78"/>
<polygon fill="#4d4d4d" stroke="#4d4d4d" points="2487.45,-339.78 2485,-332.78 2482.55,-339.78 2487.45,-339.78"/>
</g>
</g>
</svg>
