<?xml version="1.0" encoding="UTF-8" standalone="no"?>
<!DOCTYPE svg PUBLIC "-//W3C//DTD SVG 1.1//EN"
 "http://www.w3.org/Graphics/SVG/1.1/DTD/svg11.dtd">
<!-- Generated by graphviz version 2.50.0 (0)
 -->
<!-- Title: Grafo_Circuito_205_24_ Pages: 1 -->
<svg width="1862pt" height="1473pt"
 viewBox="0.00 0.00 1862.00 1473.00" xmlns="http://www.w3.org/2000/svg" xmlns:xlink="http://www.w3.org/1999/xlink">
<g id="graph0" class="graph" transform="scale(1 1) rotate(0) translate(4 1469)">
<title>Grafo_Circuito_205_24_</title>
<polygon fill="white" stroke="transparent" points="-4,4 -4,-1469 1858,-1469 1858,4 -4,4"/>
<!-- S&#45;1260 -->
<g id="node1" class="node">
<title>S&#45;1260</title>
<polygon fill="mediumseagreen" stroke="black" points="514,-1053 442,-1031.5 514,-1010 586,-1031.5 514,-1053"/>
<text text-anchor="middle" x="514" y="-1029" font-family="Arial" font-size="10.00">S&#45;1260</text>
</g>
<!-- S&#45;1492 -->
<g id="node25" class="node">
<title>S&#45;1492</title>
<polygon fill="mediumseagreen" stroke="black" points="514,-952 442,-930.5 514,-909 586,-930.5 514,-952"/>
<text text-anchor="middle" x="514" y="-928" font-family="Arial" font-size="10.00">S&#45;1492</text>
</g>
<!-- S&#45;1260&#45;&gt;S&#45;1492 -->
<g id="edge12" class="edge">
<title>S&#45;1260&#45;&gt;S&#45;1492</title>
<path fill="none" stroke="#4d4d4d" d="M514,-1009.58C514,-1009.58 514,-959.03 514,-959.03"/>
<polygon fill="#4d4d4d" stroke="#4d4d4d" points="516.45,-959.03 514,-952.03 511.55,-959.03 516.45,-959.03"/>
</g>
<!-- S&#45;2020 -->
<g id="node2" class="node">
<title>S&#45;2020</title>
<polygon fill="mediumseagreen" stroke="black" points="1512,-649 1440,-627.5 1512,-606 1584,-627.5 1512,-649"/>
<text text-anchor="middle" x="1512" y="-625" font-family="Arial" font-size="10.00">S&#45;2020</text>
</g>
<!-- S&#45;1657 -->
<g id="node27" class="node">
<title>S&#45;1657</title>
<polygon fill="mediumseagreen" stroke="black" points="1422,-548 1350,-526.5 1422,-505 1494,-526.5 1422,-548"/>
<text text-anchor="middle" x="1422" y="-524" font-family="Arial" font-size="10.00">S&#45;1657</text>
</g>
<!-- S&#45;2020&#45;&gt;S&#45;1657 -->
<g id="edge40" class="edge">
<title>S&#45;2020&#45;&gt;S&#45;1657</title>
<path fill="none" stroke="#4d4d4d" d="M1467,-619.23C1467,-619.23 1467,-541.6 1467,-541.6"/>
<polygon fill="#4d4d4d" stroke="#4d4d4d" points="1469.45,-541.6 1467,-534.6 1464.55,-541.6 1469.45,-541.6"/>
</g>
<!-- C&#45;0355 -->
<g id="node30" class="node">
<title>C&#45;0355</title>
<ellipse fill="mediumseagreen" stroke="black" cx="1602" cy="-526.5" rx="72" ry="21.5"/>
<text text-anchor="middle" x="1602" y="-524" font-family="Arial" font-size="10.00">C&#45;0355</text>
</g>
<!-- S&#45;2020&#45;&gt;C&#45;0355 -->
<g id="edge41" class="edge">
<title>S&#45;2020&#45;&gt;C&#45;0355</title>
<path fill="none" stroke="#4d4d4d" d="M1557,-619.23C1557,-619.23 1557,-550.52 1557,-550.52"/>
<polygon fill="#4d4d4d" stroke="#4d4d4d" points="1559.45,-550.52 1557,-543.52 1554.55,-550.52 1559.45,-550.52"/>
</g>
<!-- 205&#45;24&#45; -->
<g id="node3" class="node">
<title>205&#45;24&#45;</title>
<polygon fill="gold" stroke="black" points="586,-1430.59 586,-1448.41 543.82,-1461 484.18,-1461 442,-1448.41 442,-1430.59 484.18,-1418 543.82,-1418 586,-1430.59"/>
<polygon fill="none" stroke="black" points="590,-1427.61 590,-1451.39 544.41,-1465 483.59,-1465 438,-1451.39 438,-1427.61 483.59,-1414 544.41,-1414 590,-1427.61"/>
<text text-anchor="middle" x="514" y="-1437" font-family="Arial" font-size="10.00">205&#45;24&#45;</text>
</g>
<!-- C&#45;0248 -->
<g id="node50" class="node">
<title>C&#45;0248</title>
<ellipse fill="mediumseagreen" stroke="black" cx="514" cy="-1334.5" rx="72" ry="21.5"/>
<text text-anchor="middle" x="514" y="-1332" font-family="Arial" font-size="10.00">C&#45;0248</text>
</g>
<!-- 205&#45;24&#45;&#45;&gt;C&#45;0248 -->
<g id="edge2" class="edge">
<title>205&#45;24&#45;&#45;&gt;C&#45;0248</title>
<path fill="none" stroke="#4d4d4d" d="M514,-1413.81C514,-1413.81 514,-1363.03 514,-1363.03"/>
<polygon fill="#4d4d4d" stroke="#4d4d4d" points="516.45,-1363.03 514,-1356.03 511.55,-1363.03 516.45,-1363.03"/>
</g>
<!-- S&#45;934 -->
<g id="node4" class="node">
<title>S&#45;934</title>
<polygon fill="mediumseagreen" stroke="black" points="252,-649 180,-627.5 252,-606 324,-627.5 252,-649"/>
<text text-anchor="middle" x="252" y="-625" font-family="Arial" font-size="10.00">S&#45;934</text>
</g>
<!-- S&#45;1752 -->
<g id="node32" class="node">
<title>S&#45;1752</title>
<polygon fill="mediumseagreen" stroke="black" points="72,-548 0,-526.5 72,-505 144,-526.5 72,-548"/>
<text text-anchor="middle" x="72" y="-524" font-family="Arial" font-size="10.00">S&#45;1752</text>
</g>
<!-- S&#45;934&#45;&gt;S&#45;1752 -->
<g id="edge25" class="edge">
<title>S&#45;934&#45;&gt;S&#45;1752</title>
<path fill="none" stroke="#4d4d4d" d="M181.63,-627C131.15,-627 72,-627 72,-627 72,-627 72,-555.31 72,-555.31"/>
<polygon fill="#4d4d4d" stroke="#4d4d4d" points="74.45,-555.31 72,-548.31 69.55,-555.31 74.45,-555.31"/>
</g>
<!-- S&#45;1189 -->
<g id="node37" class="node">
<title>S&#45;1189</title>
<polygon fill="mediumseagreen" stroke="black" points="252,-548 180,-526.5 252,-505 324,-526.5 252,-548"/>
<text text-anchor="middle" x="252" y="-524" font-family="Arial" font-size="10.00">S&#45;1189</text>
</g>
<!-- S&#45;934&#45;&gt;S&#45;1189 -->
<g id="edge26" class="edge">
<title>S&#45;934&#45;&gt;S&#45;1189</title>
<path fill="none" stroke="#4d4d4d" d="M252,-605.58C252,-605.58 252,-555.03 252,-555.03"/>
<polygon fill="#4d4d4d" stroke="#4d4d4d" points="254.45,-555.03 252,-548.03 249.55,-555.03 254.45,-555.03"/>
</g>
<!-- S&#45;1336 -->
<g id="node55" class="node">
<title>S&#45;1336</title>
<polygon fill="mediumseagreen" stroke="black" points="432,-548 360,-526.5 432,-505 504,-526.5 432,-548"/>
<text text-anchor="middle" x="432" y="-524" font-family="Arial" font-size="10.00">S&#45;1336</text>
</g>
<!-- S&#45;934&#45;&gt;S&#45;1336 -->
<g id="edge27" class="edge">
<title>S&#45;934&#45;&gt;S&#45;1336</title>
<path fill="none" stroke="#4d4d4d" d="M322.47,-627C333.86,-627 342,-627 342,-627 342,-627 342,-526 342,-526 342,-526 354.53,-526 354.53,-526"/>
<polygon fill="#4d4d4d" stroke="#4d4d4d" points="354.53,-528.45 361.53,-526 354.53,-523.55 354.53,-528.45"/>
</g>
<!-- R&#45;096 -->
<g id="node5" class="node">
<title>R&#45;096</title>
<polygon fill="mediumseagreen" stroke="black" points="919,-921.59 919,-939.41 876.82,-952 817.18,-952 775,-939.41 775,-921.59 817.18,-909 876.82,-909 919,-921.59"/>
<text text-anchor="middle" x="847" y="-928" font-family="Arial" font-size="10.00">R&#45;096</text>
</g>
<!-- C&#45;0610 -->
<g id="node48" class="node">
<title>C&#45;0610</title>
<ellipse fill="mediumseagreen" stroke="black" cx="682" cy="-829.5" rx="72" ry="21.5"/>
<text text-anchor="middle" x="682" y="-827" font-family="Arial" font-size="10.00">C&#45;0610</text>
</g>
<!-- R&#45;096&#45;&gt;C&#45;0610 -->
<g id="edge46" class="edge">
<title>R&#45;096&#45;&gt;C&#45;0610</title>
<path fill="none" stroke="#4d4d4d" d="M819.5,-908.62C819.5,-882.42 819.5,-842 819.5,-842 819.5,-842 747.71,-842 747.71,-842"/>
<polygon fill="#4d4d4d" stroke="#4d4d4d" points="747.71,-839.55 740.71,-842 747.71,-844.45 747.71,-839.55"/>
</g>
<!-- S&#45;519 -->
<g id="node6" class="node">
<title>S&#45;519</title>
<polygon fill="mediumseagreen" stroke="black" points="694,-1053 622,-1031.5 694,-1010 766,-1031.5 694,-1053"/>
<text text-anchor="middle" x="694" y="-1029" font-family="Arial" font-size="10.00">S&#45;519</text>
</g>
<!-- S&#45;1823 -->
<g id="node7" class="node">
<title>S&#45;1823</title>
<polygon fill="mediumseagreen" stroke="black" points="1054,-952 982,-930.5 1054,-909 1126,-930.5 1054,-952"/>
<text text-anchor="middle" x="1054" y="-928" font-family="Arial" font-size="10.00">S&#45;1823</text>
</g>
<!-- S&#45;2064 -->
<g id="node8" class="node">
<title>S&#45;2064</title>
<polygon fill="mediumseagreen" stroke="black" points="1422,-245 1350,-223.5 1422,-202 1494,-223.5 1422,-245"/>
<text text-anchor="middle" x="1422" y="-221" font-family="Arial" font-size="10.00">S&#45;2064</text>
</g>
<!-- S&#45;2248 -->
<g id="node20" class="node">
<title>S&#45;2248</title>
<polygon fill="mediumseagreen" stroke="black" points="1242,-144 1170,-122.5 1242,-101 1314,-122.5 1242,-144"/>
<text text-anchor="middle" x="1242" y="-120" font-family="Arial" font-size="10.00">S&#45;2248</text>
</g>
<!-- S&#45;2064&#45;&gt;S&#45;2248 -->
<g id="edge45" class="edge">
<title>S&#45;2064&#45;&gt;S&#45;2248</title>
<path fill="none" stroke="#4d4d4d" d="M1351.34,-223C1318.67,-223 1287,-223 1287,-223 1287,-223 1287,-137.72 1287,-137.72"/>
<polygon fill="#4d4d4d" stroke="#4d4d4d" points="1289.45,-137.72 1287,-130.72 1284.55,-137.72 1289.45,-137.72"/>
</g>
<!-- S&#45;1656 -->
<g id="node36" class="node">
<title>S&#45;1656</title>
<polygon fill="mediumseagreen" stroke="black" points="1422,-144 1350,-122.5 1422,-101 1494,-122.5 1422,-144"/>
<text text-anchor="middle" x="1422" y="-120" font-family="Arial" font-size="10.00">S&#45;1656</text>
</g>
<!-- S&#45;2064&#45;&gt;S&#45;1656 -->
<g id="edge47" class="edge">
<title>S&#45;2064&#45;&gt;S&#45;1656</title>
<path fill="none" stroke="#4d4d4d" d="M1422,-201.58C1422,-201.58 1422,-151.03 1422,-151.03"/>
<polygon fill="#4d4d4d" stroke="#4d4d4d" points="1424.45,-151.03 1422,-144.03 1419.55,-151.03 1424.45,-151.03"/>
</g>
<!-- S&#45;963 -->
<g id="node54" class="node">
<title>S&#45;963</title>
<polygon fill="mediumseagreen" stroke="black" points="1602,-144 1530,-122.5 1602,-101 1674,-122.5 1602,-144"/>
<text text-anchor="middle" x="1602" y="-120" font-family="Arial" font-size="10.00">S&#45;963</text>
</g>
<!-- S&#45;2064&#45;&gt;S&#45;963 -->
<g id="edge48" class="edge">
<title>S&#45;2064&#45;&gt;S&#45;963</title>
<path fill="none" stroke="#4d4d4d" d="M1492.47,-223C1503.86,-223 1512,-223 1512,-223 1512,-223 1512,-129 1512,-129 1512,-129 1544.74,-129 1544.74,-129"/>
<polygon fill="#4d4d4d" stroke="#4d4d4d" points="1544.74,-131.45 1551.74,-129 1544.74,-126.55 1544.74,-131.45"/>
</g>
<!-- S&#45;1385 -->
<g id="node9" class="node">
<title>S&#45;1385</title>
<polygon fill="mediumseagreen" stroke="black" points="72,-750 0,-728.5 72,-707 144,-728.5 72,-750"/>
<text text-anchor="middle" x="72" y="-726" font-family="Arial" font-size="10.00">S&#45;1385</text>
</g>
<!-- S&#45;2165 -->
<g id="node10" class="node">
<title>S&#45;2165</title>
<polygon fill="mediumseagreen" stroke="black" points="252,-750 180,-728.5 252,-707 324,-728.5 252,-750"/>
<text text-anchor="middle" x="252" y="-726" font-family="Arial" font-size="10.00">S&#45;2165</text>
</g>
<!-- S&#45;1638 -->
<g id="node11" class="node">
<title>S&#45;1638</title>
<polygon fill="mediumseagreen" stroke="black" points="432,-649 360,-627.5 432,-606 504,-627.5 432,-649"/>
<text text-anchor="middle" x="432" y="-625" font-family="Arial" font-size="10.00">S&#45;1638</text>
</g>
<!-- S&#45;1338 -->
<g id="node12" class="node">
<title>S&#45;1338</title>
<polygon fill="mediumseagreen" stroke="black" points="432,-750 360,-728.5 432,-707 504,-728.5 432,-750"/>
<text text-anchor="middle" x="432" y="-726" font-family="Arial" font-size="10.00">S&#45;1338</text>
</g>
<!-- S&#45;1421 -->
<g id="node13" class="node">
<title>S&#45;1421</title>
<polygon fill="mediumseagreen" stroke="black" points="244,-1154 172,-1132.5 244,-1111 316,-1132.5 244,-1154"/>
<text text-anchor="middle" x="244" y="-1130" font-family="Arial" font-size="10.00">S&#45;1421</text>
</g>
<!-- S&#45;2186 -->
<g id="node14" class="node">
<title>S&#45;2186</title>
<polygon fill="mediumseagreen" stroke="black" points="1602,-245 1530,-223.5 1602,-202 1674,-223.5 1602,-245"/>
<text text-anchor="middle" x="1602" y="-221" font-family="Arial" font-size="10.00">S&#45;2186</text>
</g>
<!-- C&#45;1173 -->
<g id="node15" class="node">
<title>C&#45;1173</title>
<ellipse fill="tomato" stroke="black" cx="1234" cy="-930.5" rx="72" ry="21.5"/>
<text text-anchor="middle" x="1234" y="-928" font-family="Arial" font-size="10.00">C&#45;1173</text>
</g>
<!-- S&#45;1824 -->
<g id="node42" class="node">
<title>S&#45;1824</title>
<polygon fill="mediumseagreen" stroke="black" points="1332,-649 1260,-627.5 1332,-606 1404,-627.5 1332,-649"/>
<text text-anchor="middle" x="1332" y="-625" font-family="Arial" font-size="10.00">S&#45;1824</text>
</g>
<!-- C&#45;1173&#45;&gt;S&#45;1824 -->
<g id="edge59" class="edge">
<title>C&#45;1173&#45;&gt;S&#45;1824</title>
<path fill="none" stroke="blue" stroke-dasharray="5,2" d="M1283,-914.64C1283,-914.64 1283,-641.55 1283,-641.55"/>
<polygon fill="blue" stroke="blue" points="1285.45,-641.55 1283,-634.55 1280.55,-641.55 1285.45,-641.55"/>
</g>
<!-- C&#45;0609 -->
<g id="node16" class="node">
<title>C&#45;0609</title>
<ellipse fill="tomato" stroke="black" cx="874" cy="-1031.5" rx="72" ry="21.5"/>
<text text-anchor="middle" x="874" y="-1029" font-family="Arial" font-size="10.00">C&#45;0609</text>
</g>
<!-- C&#45;0609&#45;&gt;C&#45;0610 -->
<g id="edge58" class="edge">
<title>C&#45;0609&#45;&gt;C&#45;0610</title>
<path fill="none" stroke="blue" stroke-dasharray="5,2" d="M932.5,-1018.78C932.5,-974.97 932.5,-833 932.5,-833 932.5,-833 760.11,-833 760.11,-833"/>
<polygon fill="blue" stroke="blue" points="760.11,-830.55 753.11,-833 760.11,-835.45 760.11,-830.55"/>
</g>
<!-- S&#45;1771 -->
<g id="node17" class="node">
<title>S&#45;1771</title>
<polygon fill="mediumseagreen" stroke="black" points="1692,-649 1620,-627.5 1692,-606 1764,-627.5 1692,-649"/>
<text text-anchor="middle" x="1692" y="-625" font-family="Arial" font-size="10.00">S&#45;1771</text>
</g>
<!-- C&#45;0611 -->
<g id="node18" class="node">
<title>C&#45;0611</title>
<ellipse fill="mediumseagreen" stroke="black" cx="1054" cy="-1031.5" rx="72" ry="21.5"/>
<text text-anchor="middle" x="1054" y="-1029" font-family="Arial" font-size="10.00">C&#45;0611</text>
</g>
<!-- C&#45;0611&#45;&gt;R&#45;096 -->
<g id="edge56" class="edge">
<title>C&#45;0611&#45;&gt;R&#45;096</title>
<path fill="none" stroke="#4d4d4d" d="M981.78,-1031C971.32,-1031 964,-1031 964,-1031 964,-1031 964,-930 964,-930 964,-930 926.1,-930 926.1,-930"/>
<polygon fill="#4d4d4d" stroke="#4d4d4d" points="926.1,-927.55 919.1,-930 926.1,-932.45 926.1,-927.55"/>
</g>
<!-- S&#45;937 -->
<g id="node19" class="node">
<title>S&#45;937</title>
<polygon fill="mediumseagreen" stroke="black" points="1234,-1053 1162,-1031.5 1234,-1010 1306,-1031.5 1234,-1053"/>
<text text-anchor="middle" x="1234" y="-1029" font-family="Arial" font-size="10.00">S&#45;937</text>
</g>
<!-- S&#45;937&#45;&gt;S&#45;1823 -->
<g id="edge1" class="edge">
<title>S&#45;937&#45;&gt;S&#45;1823</title>
<path fill="none" stroke="#4d4d4d" d="M1163.53,-1031C1152.14,-1031 1144,-1031 1144,-1031 1144,-1031 1144,-930 1144,-930 1144,-930 1131.47,-930 1131.47,-930"/>
<polygon fill="#4d4d4d" stroke="#4d4d4d" points="1131.47,-927.55 1124.47,-930 1131.47,-932.45 1131.47,-927.55"/>
</g>
<!-- S&#45;937&#45;&gt;C&#45;1173 -->
<g id="edge17" class="edge">
<title>S&#45;937&#45;&gt;C&#45;1173</title>
<path fill="none" stroke="#4d4d4d" d="M1210,-1017.03C1210,-1017.03 1210,-957.88 1210,-957.88"/>
<polygon fill="#4d4d4d" stroke="#4d4d4d" points="1212.45,-957.88 1210,-950.88 1207.55,-957.88 1212.45,-957.88"/>
</g>
<!-- C&#45;1171 -->
<g id="node44" class="node">
<title>C&#45;1171</title>
<ellipse fill="mediumseagreen" stroke="black" cx="1414" cy="-930.5" rx="72" ry="21.5"/>
<text text-anchor="middle" x="1414" y="-928" font-family="Arial" font-size="10.00">C&#45;1171</text>
</g>
<!-- S&#45;937&#45;&gt;C&#45;1171 -->
<g id="edge18" class="edge">
<title>S&#45;937&#45;&gt;C&#45;1171</title>
<path fill="none" stroke="#4d4d4d" d="M1304.47,-1031C1315.86,-1031 1324,-1031 1324,-1031 1324,-1031 1324,-930 1324,-930 1324,-930 1334.78,-930 1334.78,-930"/>
<polygon fill="#4d4d4d" stroke="#4d4d4d" points="1334.78,-932.45 1341.78,-930 1334.78,-927.55 1334.78,-932.45"/>
</g>
<!-- S&#45;1822 -->
<g id="node47" class="node">
<title>S&#45;1822</title>
<polygon fill="mediumseagreen" stroke="black" points="1594,-952 1522,-930.5 1594,-909 1666,-930.5 1594,-952"/>
<text text-anchor="middle" x="1594" y="-928" font-family="Arial" font-size="10.00">S&#45;1822</text>
</g>
<!-- S&#45;937&#45;&gt;S&#45;1822 -->
<g id="edge16" class="edge">
<title>S&#45;937&#45;&gt;S&#45;1822</title>
<path fill="none" stroke="#4d4d4d" d="M1258,-1017.16C1258,-1002.23 1258,-981 1258,-981 1258,-981 1594,-981 1594,-981 1594,-981 1594,-959.21 1594,-959.21"/>
<polygon fill="#4d4d4d" stroke="#4d4d4d" points="1596.45,-959.21 1594,-952.21 1591.55,-959.21 1596.45,-959.21"/>
</g>
<!-- S&#45;2089 -->
<g id="node21" class="node">
<title>S&#45;2089</title>
<polygon fill="mediumseagreen" stroke="black" points="424,-1154 352,-1132.5 424,-1111 496,-1132.5 424,-1154"/>
<text text-anchor="middle" x="424" y="-1130" font-family="Arial" font-size="10.00">S&#45;2089</text>
</g>
<!-- S&#45;2504 -->
<g id="node31" class="node">
<title>S&#45;2504</title>
<polygon fill="mediumseagreen" stroke="black" points="334,-1053 262,-1031.5 334,-1010 406,-1031.5 334,-1053"/>
<text text-anchor="middle" x="334" y="-1029" font-family="Arial" font-size="10.00">S&#45;2504</text>
</g>
<!-- S&#45;2089&#45;&gt;S&#45;2504 -->
<g id="edge5" class="edge">
<title>S&#45;2089&#45;&gt;S&#45;2504</title>
<path fill="none" stroke="#4d4d4d" d="M379,-1124.23C379,-1124.23 379,-1046.6 379,-1046.6"/>
<polygon fill="#4d4d4d" stroke="#4d4d4d" points="381.45,-1046.6 379,-1039.6 376.55,-1046.6 381.45,-1046.6"/>
</g>
<!-- S&#45;1812 -->
<g id="node22" class="node">
<title>S&#45;1812</title>
<polygon fill="mediumseagreen" stroke="black" points="1414,-1053 1342,-1031.5 1414,-1010 1486,-1031.5 1414,-1053"/>
<text text-anchor="middle" x="1414" y="-1029" font-family="Arial" font-size="10.00">S&#45;1812</text>
</g>
<!-- S&#45;1641 -->
<g id="node23" class="node">
<title>S&#45;1641</title>
<polygon fill="mediumseagreen" stroke="black" points="612,-750 540,-728.5 612,-707 684,-728.5 612,-750"/>
<text text-anchor="middle" x="612" y="-726" font-family="Arial" font-size="10.00">S&#45;1641</text>
</g>
<!-- S&#45;1643 -->
<g id="node24" class="node">
<title>S&#45;1643</title>
<polygon fill="mediumseagreen" stroke="black" points="612,-649 540,-627.5 612,-606 684,-627.5 612,-649"/>
<text text-anchor="middle" x="612" y="-625" font-family="Arial" font-size="10.00">S&#45;1643</text>
</g>
<!-- S&#45;2189 -->
<g id="node26" class="node">
<title>S&#45;2189</title>
<polygon fill="mediumseagreen" stroke="black" points="1422,-447 1350,-425.5 1422,-404 1494,-425.5 1422,-447"/>
<text text-anchor="middle" x="1422" y="-423" font-family="Arial" font-size="10.00">S&#45;2189</text>
</g>
<!-- S&#45;936 -->
<g id="node28" class="node">
<title>S&#45;936</title>
<polygon fill="mediumseagreen" stroke="black" points="792,-750 720,-728.5 792,-707 864,-728.5 792,-750"/>
<text text-anchor="middle" x="792" y="-726" font-family="Arial" font-size="10.00">S&#45;936</text>
</g>
<!-- S&#45;936&#45;&gt;S&#45;934 -->
<g id="edge24" class="edge">
<title>S&#45;936&#45;&gt;S&#45;934</title>
<path fill="none" stroke="#4d4d4d" d="M748.8,-719.66C748.8,-708.86 748.8,-692 748.8,-692 748.8,-692 252,-692 252,-692 252,-692 252,-656.34 252,-656.34"/>
<polygon fill="#4d4d4d" stroke="#4d4d4d" points="254.45,-656.34 252,-649.34 249.55,-656.34 254.45,-656.34"/>
</g>
<!-- S&#45;936&#45;&gt;S&#45;1638 -->
<g id="edge21" class="edge">
<title>S&#45;936&#45;&gt;S&#45;1638</title>
<path fill="none" stroke="#4d4d4d" d="M777.6,-711.29C777.6,-691.88 777.6,-663 777.6,-663 777.6,-663 432,-663 432,-663 432,-663 432,-656.38 432,-656.38"/>
<polygon fill="#4d4d4d" stroke="#4d4d4d" points="434.45,-656.38 432,-649.38 429.55,-656.38 434.45,-656.38"/>
</g>
<!-- S&#45;936&#45;&gt;S&#45;1643 -->
<g id="edge23" class="edge">
<title>S&#45;936&#45;&gt;S&#45;1643</title>
<path fill="none" stroke="#4d4d4d" d="M721.53,-728C710.14,-728 702,-728 702,-728 702,-728 702,-627 702,-627 702,-627 689.47,-627 689.47,-627"/>
<polygon fill="#4d4d4d" stroke="#4d4d4d" points="689.47,-624.55 682.47,-627 689.47,-629.45 689.47,-624.55"/>
</g>
<!-- S&#45;1637 -->
<g id="node33" class="node">
<title>S&#45;1637</title>
<polygon fill="mediumseagreen" stroke="black" points="792,-649 720,-627.5 792,-606 864,-627.5 792,-649"/>
<text text-anchor="middle" x="792" y="-625" font-family="Arial" font-size="10.00">S&#45;1637</text>
</g>
<!-- S&#45;936&#45;&gt;S&#45;1637 -->
<g id="edge20" class="edge">
<title>S&#45;936&#45;&gt;S&#45;1637</title>
<path fill="none" stroke="#4d4d4d" d="M806.4,-710.91C806.4,-710.91 806.4,-651.89 806.4,-651.89"/>
<polygon fill="#4d4d4d" stroke="#4d4d4d" points="808.85,-651.89 806.4,-644.89 803.95,-651.89 808.85,-651.89"/>
</g>
<!-- S&#45;1337 -->
<g id="node45" class="node">
<title>S&#45;1337</title>
<polygon fill="mediumseagreen" stroke="black" points="972,-649 900,-627.5 972,-606 1044,-627.5 972,-649"/>
<text text-anchor="middle" x="972" y="-625" font-family="Arial" font-size="10.00">S&#45;1337</text>
</g>
<!-- S&#45;936&#45;&gt;S&#45;1337 -->
<g id="edge22" class="edge">
<title>S&#45;936&#45;&gt;S&#45;1337</title>
<path fill="none" stroke="#4d4d4d" d="M862.47,-728C873.86,-728 882,-728 882,-728 882,-728 882,-627 882,-627 882,-627 894.53,-627 894.53,-627"/>
<polygon fill="#4d4d4d" stroke="#4d4d4d" points="894.53,-629.45 901.53,-627 894.53,-624.55 894.53,-629.45"/>
</g>
<!-- S&#45;935 -->
<g id="node52" class="node">
<title>S&#45;935</title>
<polygon fill="mediumseagreen" stroke="black" points="1152,-649 1080,-627.5 1152,-606 1224,-627.5 1152,-649"/>
<text text-anchor="middle" x="1152" y="-625" font-family="Arial" font-size="10.00">S&#45;935</text>
</g>
<!-- S&#45;936&#45;&gt;S&#45;935 -->
<g id="edge28" class="edge">
<title>S&#45;936&#45;&gt;S&#45;935</title>
<path fill="none" stroke="#4d4d4d" d="M835.2,-719.7C835.2,-705.23 835.2,-678 835.2,-678 835.2,-678 1152,-678 1152,-678 1152,-678 1152,-656.21 1152,-656.21"/>
<polygon fill="#4d4d4d" stroke="#4d4d4d" points="1154.45,-656.21 1152,-649.21 1149.55,-656.21 1154.45,-656.21"/>
</g>
<!-- S&#45;2065 -->
<g id="node29" class="node">
<title>S&#45;2065</title>
<polygon fill="mediumseagreen" stroke="black" points="1782,-245 1710,-223.5 1782,-202 1854,-223.5 1782,-245"/>
<text text-anchor="middle" x="1782" y="-221" font-family="Arial" font-size="10.00">S&#45;2065</text>
</g>
<!-- S&#45;2383 -->
<g id="node38" class="node">
<title>S&#45;2383</title>
<polygon fill="mediumseagreen" stroke="black" points="1782,-144 1710,-122.5 1782,-101 1854,-122.5 1782,-144"/>
<text text-anchor="middle" x="1782" y="-120" font-family="Arial" font-size="10.00">S&#45;2383</text>
</g>
<!-- S&#45;2065&#45;&gt;S&#45;2383 -->
<g id="edge53" class="edge">
<title>S&#45;2065&#45;&gt;S&#45;2383</title>
<path fill="none" stroke="#4d4d4d" d="M1782,-201.58C1782,-201.58 1782,-151.03 1782,-151.03"/>
<polygon fill="#4d4d4d" stroke="#4d4d4d" points="1784.45,-151.03 1782,-144.03 1779.55,-151.03 1784.45,-151.03"/>
</g>
<!-- C&#45;0355&#45;&gt;S&#45;2189 -->
<g id="edge55" class="edge">
<title>C&#45;0355&#45;&gt;S&#45;2189</title>
<path fill="none" stroke="#4d4d4d" d="M1529.98,-526C1524.47,-526 1521,-526 1521,-526 1521,-526 1521,-425 1521,-425 1521,-425 1499.37,-425 1499.37,-425"/>
<polygon fill="#4d4d4d" stroke="#4d4d4d" points="1499.37,-422.55 1492.37,-425 1499.37,-427.45 1499.37,-422.55"/>
</g>
<!-- S&#45;1654 -->
<g id="node39" class="node">
<title>S&#45;1654</title>
<polygon fill="mediumseagreen" stroke="black" points="1602,-447 1530,-425.5 1602,-404 1674,-425.5 1602,-447"/>
<text text-anchor="middle" x="1602" y="-423" font-family="Arial" font-size="10.00">S&#45;1654</text>
</g>
<!-- C&#45;0355&#45;&gt;S&#45;1654 -->
<g id="edge42" class="edge">
<title>C&#45;0355&#45;&gt;S&#45;1654</title>
<path fill="none" stroke="#4d4d4d" d="M1602,-504.58C1602,-504.58 1602,-454.03 1602,-454.03"/>
<polygon fill="#4d4d4d" stroke="#4d4d4d" points="1604.45,-454.03 1602,-447.03 1599.55,-454.03 1604.45,-454.03"/>
</g>
<!-- C&#45;0771 -->
<g id="node49" class="node">
<title>C&#45;0771</title>
<ellipse fill="mediumseagreen" stroke="black" cx="1782" cy="-425.5" rx="72" ry="21.5"/>
<text text-anchor="middle" x="1782" y="-423" font-family="Arial" font-size="10.00">C&#45;0771</text>
</g>
<!-- C&#45;0355&#45;&gt;C&#45;0771 -->
<g id="edge54" class="edge">
<title>C&#45;0355&#45;&gt;C&#45;0771</title>
<path fill="none" stroke="#4d4d4d" d="M1674.24,-526C1706.34,-526 1737,-526 1737,-526 1737,-526 1737,-449.55 1737,-449.55"/>
<polygon fill="#4d4d4d" stroke="#4d4d4d" points="1739.45,-449.55 1737,-442.55 1734.55,-449.55 1739.45,-449.55"/>
</g>
<!-- R&#45;051 -->
<g id="node34" class="node">
<title>R&#45;051</title>
<polygon fill="mediumseagreen" stroke="black" points="1496,-820.59 1496,-838.41 1453.82,-851 1394.18,-851 1352,-838.41 1352,-820.59 1394.18,-808 1453.82,-808 1496,-820.59"/>
<text text-anchor="middle" x="1424" y="-827" font-family="Arial" font-size="10.00">R&#45;051</text>
</g>
<!-- C&#45;1172 -->
<g id="node56" class="node">
<title>C&#45;1172</title>
<ellipse fill="mediumseagreen" stroke="black" cx="1472" cy="-728.5" rx="72" ry="21.5"/>
<text text-anchor="middle" x="1472" y="-726" font-family="Arial" font-size="10.00">C&#45;1172</text>
</g>
<!-- R&#45;051&#45;&gt;C&#45;1172 -->
<g id="edge37" class="edge">
<title>R&#45;051&#45;&gt;C&#45;1172</title>
<path fill="none" stroke="#4d4d4d" d="M1448,-807.58C1448,-807.58 1448,-756 1448,-756"/>
<polygon fill="#4d4d4d" stroke="#4d4d4d" points="1450.45,-756 1448,-749 1445.55,-756 1450.45,-756"/>
</g>
<!-- S&#45;898 -->
<g id="node35" class="node">
<title>S&#45;898</title>
<polygon fill="mediumseagreen" stroke="black" points="972,-750 900,-728.5 972,-707 1044,-728.5 972,-750"/>
<text text-anchor="middle" x="972" y="-726" font-family="Arial" font-size="10.00">S&#45;898</text>
</g>
<!-- S&#45;1655 -->
<g id="node40" class="node">
<title>S&#45;1655</title>
<polygon fill="mediumseagreen" stroke="black" points="1602,-346 1530,-324.5 1602,-303 1674,-324.5 1602,-346"/>
<text text-anchor="middle" x="1602" y="-322" font-family="Arial" font-size="10.00">S&#45;1655</text>
</g>
<!-- S&#45;1654&#45;&gt;S&#45;1655 -->
<g id="edge43" class="edge">
<title>S&#45;1654&#45;&gt;S&#45;1655</title>
<path fill="none" stroke="#4d4d4d" d="M1602,-403.58C1602,-403.58 1602,-353.03 1602,-353.03"/>
<polygon fill="#4d4d4d" stroke="#4d4d4d" points="1604.45,-353.03 1602,-346.03 1599.55,-353.03 1604.45,-353.03"/>
</g>
<!-- S&#45;1655&#45;&gt;S&#45;2064 -->
<g id="edge35" class="edge">
<title>S&#45;1655&#45;&gt;S&#45;2064</title>
<path fill="none" stroke="#4d4d4d" d="M1531.63,-324C1481.15,-324 1422,-324 1422,-324 1422,-324 1422,-252.31 1422,-252.31"/>
<polygon fill="#4d4d4d" stroke="#4d4d4d" points="1424.45,-252.31 1422,-245.31 1419.55,-252.31 1424.45,-252.31"/>
</g>
<!-- S&#45;1655&#45;&gt;S&#45;2186 -->
<g id="edge44" class="edge">
<title>S&#45;1655&#45;&gt;S&#45;2186</title>
<path fill="none" stroke="#4d4d4d" d="M1602,-302.58C1602,-302.58 1602,-252.03 1602,-252.03"/>
<polygon fill="#4d4d4d" stroke="#4d4d4d" points="1604.45,-252.03 1602,-245.03 1599.55,-252.03 1604.45,-252.03"/>
</g>
<!-- S&#45;1655&#45;&gt;S&#45;2065 -->
<g id="edge52" class="edge">
<title>S&#45;1655&#45;&gt;S&#45;2065</title>
<path fill="none" stroke="#4d4d4d" d="M1672.37,-324C1722.85,-324 1782,-324 1782,-324 1782,-324 1782,-252.31 1782,-252.31"/>
<polygon fill="#4d4d4d" stroke="#4d4d4d" points="1784.45,-252.31 1782,-245.31 1779.55,-252.31 1784.45,-252.31"/>
</g>
<!-- C&#45;0636 -->
<g id="node41" class="node">
<title>C&#45;0636</title>
<ellipse fill="mediumseagreen" stroke="black" cx="514" cy="-1233.5" rx="72" ry="21.5"/>
<text text-anchor="middle" x="514" y="-1231" font-family="Arial" font-size="10.00">C&#45;0636</text>
</g>
<!-- C&#45;0636&#45;&gt;S&#45;1421 -->
<g id="edge7" class="edge">
<title>C&#45;0636&#45;&gt;S&#45;1421</title>
<path fill="none" stroke="#4d4d4d" d="M442,-1233C362.02,-1233 244,-1233 244,-1233 244,-1233 244,-1161.31 244,-1161.31"/>
<polygon fill="#4d4d4d" stroke="#4d4d4d" points="246.45,-1161.31 244,-1154.31 241.55,-1161.31 246.45,-1161.31"/>
</g>
<!-- C&#45;0636&#45;&gt;S&#45;2089 -->
<g id="edge4" class="edge">
<title>C&#45;0636&#45;&gt;S&#45;2089</title>
<path fill="none" stroke="#4d4d4d" d="M469,-1216.37C469,-1216.37 469,-1147.78 469,-1147.78"/>
<polygon fill="#4d4d4d" stroke="#4d4d4d" points="471.45,-1147.78 469,-1140.78 466.55,-1147.78 471.45,-1147.78"/>
</g>
<!-- S&#45;1811 -->
<g id="node43" class="node">
<title>S&#45;1811</title>
<polygon fill="mediumseagreen" stroke="black" points="604,-1154 532,-1132.5 604,-1111 676,-1132.5 604,-1154"/>
<text text-anchor="middle" x="604" y="-1130" font-family="Arial" font-size="10.00">S&#45;1811</text>
</g>
<!-- C&#45;0636&#45;&gt;S&#45;1811 -->
<g id="edge6" class="edge">
<title>C&#45;0636&#45;&gt;S&#45;1811</title>
<path fill="none" stroke="#4d4d4d" d="M559,-1216.37C559,-1216.37 559,-1147.78 559,-1147.78"/>
<polygon fill="#4d4d4d" stroke="#4d4d4d" points="561.45,-1147.78 559,-1140.78 556.55,-1147.78 561.45,-1147.78"/>
</g>
<!-- C&#45;0273 -->
<g id="node51" class="node">
<title>C&#45;0273</title>
<ellipse fill="mediumseagreen" stroke="black" cx="874" cy="-1132.5" rx="72" ry="21.5"/>
<text text-anchor="middle" x="874" y="-1130" font-family="Arial" font-size="10.00">C&#45;0273</text>
</g>
<!-- C&#45;0636&#45;&gt;C&#45;0273 -->
<g id="edge8" class="edge">
<title>C&#45;0636&#45;&gt;C&#45;0273</title>
<path fill="none" stroke="#4d4d4d" d="M585.99,-1233C691.04,-1233 874,-1233 874,-1233 874,-1233 874,-1161.31 874,-1161.31"/>
<polygon fill="#4d4d4d" stroke="#4d4d4d" points="876.45,-1161.31 874,-1154.31 871.55,-1161.31 876.45,-1161.31"/>
</g>
<!-- C&#45;1171&#45;&gt;R&#45;051 -->
<g id="edge36" class="edge">
<title>C&#45;1171&#45;&gt;R&#45;051</title>
<path fill="none" stroke="#4d4d4d" d="M1419,-908.58C1419,-908.58 1419,-858.03 1419,-858.03"/>
<polygon fill="#4d4d4d" stroke="#4d4d4d" points="1421.45,-858.03 1419,-851.03 1416.55,-858.03 1421.45,-858.03"/>
</g>
<!-- S&#45;1639 -->
<g id="node46" class="node">
<title>S&#45;1639</title>
<polygon fill="mediumseagreen" stroke="black" points="1152,-750 1080,-728.5 1152,-707 1224,-728.5 1152,-750"/>
<text text-anchor="middle" x="1152" y="-726" font-family="Arial" font-size="10.00">S&#45;1639</text>
</g>
<!-- C&#45;0610&#45;&gt;S&#45;1385 -->
<g id="edge31" class="edge">
<title>C&#45;0610&#45;&gt;S&#45;1385</title>
<path fill="none" stroke="#4d4d4d" d="M619.02,-840C463.16,-840 72,-840 72,-840 72,-840 72,-757.26 72,-757.26"/>
<polygon fill="#4d4d4d" stroke="#4d4d4d" points="74.45,-757.26 72,-750.26 69.55,-757.26 74.45,-757.26"/>
</g>
<!-- C&#45;0610&#45;&gt;S&#45;2165 -->
<g id="edge32" class="edge">
<title>C&#45;0610&#45;&gt;S&#45;2165</title>
<path fill="none" stroke="#4d4d4d" d="M609.74,-829C497.25,-829 293,-829 293,-829 293,-829 293,-744.77 293,-744.77"/>
<polygon fill="#4d4d4d" stroke="#4d4d4d" points="295.45,-744.77 293,-737.77 290.55,-744.77 295.45,-744.77"/>
</g>
<!-- C&#45;0610&#45;&gt;S&#45;1338 -->
<g id="edge33" class="edge">
<title>C&#45;0610&#45;&gt;S&#45;1338</title>
<path fill="none" stroke="#4d4d4d" d="M620.99,-818C559.3,-818 473,-818 473,-818 473,-818 473,-745.08 473,-745.08"/>
<polygon fill="#4d4d4d" stroke="#4d4d4d" points="475.45,-745.08 473,-738.08 470.55,-745.08 475.45,-745.08"/>
</g>
<!-- C&#45;0610&#45;&gt;S&#45;1641 -->
<g id="edge30" class="edge">
<title>C&#45;0610&#45;&gt;S&#45;1641</title>
<path fill="none" stroke="#4d4d4d" d="M647,-810.5C647,-810.5 647,-746.6 647,-746.6"/>
<polygon fill="#4d4d4d" stroke="#4d4d4d" points="649.45,-746.6 647,-739.6 644.55,-746.6 649.45,-746.6"/>
</g>
<!-- C&#45;0610&#45;&gt;S&#45;936 -->
<g id="edge19" class="edge">
<title>C&#45;0610&#45;&gt;S&#45;936</title>
<path fill="none" stroke="#4d4d4d" d="M737,-815.46C737,-815.46 737,-740.71 737,-740.71"/>
<polygon fill="#4d4d4d" stroke="#4d4d4d" points="739.45,-740.71 737,-733.71 734.55,-740.71 739.45,-740.71"/>
</g>
<!-- C&#45;0610&#45;&gt;S&#45;898 -->
<g id="edge34" class="edge">
<title>C&#45;0610&#45;&gt;S&#45;898</title>
<path fill="none" stroke="#4d4d4d" d="M738.24,-816C805.61,-816 909.5,-816 909.5,-816 909.5,-816 909.5,-738.41 909.5,-738.41"/>
<polygon fill="#4d4d4d" stroke="#4d4d4d" points="911.95,-738.41 909.5,-731.41 907.05,-738.41 911.95,-738.41"/>
</g>
<!-- C&#45;0610&#45;&gt;S&#45;1639 -->
<g id="edge29" class="edge">
<title>C&#45;0610&#45;&gt;S&#45;1639</title>
<path fill="none" stroke="#4d4d4d" d="M752.47,-825C872.31,-825 1103,-825 1103,-825 1103,-825 1103,-742.44 1103,-742.44"/>
<polygon fill="#4d4d4d" stroke="#4d4d4d" points="1105.45,-742.44 1103,-735.44 1100.55,-742.44 1105.45,-742.44"/>
</g>
<!-- C&#45;0248&#45;&gt;C&#45;0636 -->
<g id="edge3" class="edge">
<title>C&#45;0248&#45;&gt;C&#45;0636</title>
<path fill="none" stroke="#4d4d4d" d="M514,-1312.58C514,-1312.58 514,-1262.03 514,-1262.03"/>
<polygon fill="#4d4d4d" stroke="#4d4d4d" points="516.45,-1262.03 514,-1255.03 511.55,-1262.03 516.45,-1262.03"/>
</g>
<!-- C&#45;0273&#45;&gt;S&#45;1260 -->
<g id="edge11" class="edge">
<title>C&#45;0273&#45;&gt;S&#45;1260</title>
<path fill="none" stroke="#4d4d4d" d="M850,-1111.96C850,-1097.98 850,-1082 850,-1082 850,-1082 559,-1082 559,-1082 559,-1082 559,-1046.84 559,-1046.84"/>
<polygon fill="#4d4d4d" stroke="#4d4d4d" points="561.45,-1046.84 559,-1039.84 556.55,-1046.84 561.45,-1046.84"/>
</g>
<!-- C&#45;0273&#45;&gt;S&#45;519 -->
<g id="edge9" class="edge">
<title>C&#45;0273&#45;&gt;S&#45;519</title>
<path fill="none" stroke="#4d4d4d" d="M801.98,-1132C762.3,-1132 721,-1132 721,-1132 721,-1132 721,-1052.05 721,-1052.05"/>
<polygon fill="#4d4d4d" stroke="#4d4d4d" points="723.45,-1052.05 721,-1045.05 718.55,-1052.05 723.45,-1052.05"/>
</g>
<!-- C&#45;0273&#45;&gt;C&#45;0609 -->
<g id="edge13" class="edge">
<title>C&#45;0273&#45;&gt;C&#45;0609</title>
<path fill="none" stroke="#4d4d4d" d="M898,-1112.06C898,-1112.06 898,-1058.91 898,-1058.91"/>
<polygon fill="#4d4d4d" stroke="#4d4d4d" points="900.45,-1058.91 898,-1051.91 895.55,-1058.91 900.45,-1058.91"/>
</g>
<!-- C&#45;0273&#45;&gt;C&#45;0611 -->
<g id="edge14" class="edge">
<title>C&#45;0273&#45;&gt;C&#45;0611</title>
<path fill="none" stroke="#4d4d4d" d="M934.94,-1121C987.16,-1121 1054,-1121 1054,-1121 1054,-1121 1054,-1060.17 1054,-1060.17"/>
<polygon fill="#4d4d4d" stroke="#4d4d4d" points="1056.45,-1060.17 1054,-1053.17 1051.55,-1060.17 1056.45,-1060.17"/>
</g>
<!-- C&#45;0273&#45;&gt;S&#45;937 -->
<g id="edge15" class="edge">
<title>C&#45;0273&#45;&gt;S&#45;937</title>
<path fill="none" stroke="#4d4d4d" d="M945.99,-1132C1051.04,-1132 1234,-1132 1234,-1132 1234,-1132 1234,-1060.31 1234,-1060.31"/>
<polygon fill="#4d4d4d" stroke="#4d4d4d" points="1236.45,-1060.31 1234,-1053.31 1231.55,-1060.31 1236.45,-1060.31"/>
</g>
<!-- C&#45;0273&#45;&gt;S&#45;1812 -->
<g id="edge10" class="edge">
<title>C&#45;0273&#45;&gt;S&#45;1812</title>
<path fill="none" stroke="#4d4d4d" d="M937,-1143C1079.45,-1143 1414,-1143 1414,-1143 1414,-1143 1414,-1060.26 1414,-1060.26"/>
<polygon fill="#4d4d4d" stroke="#4d4d4d" points="1416.45,-1060.26 1414,-1053.26 1411.55,-1060.26 1416.45,-1060.26"/>
</g>
<!-- S&#45;1912 -->
<g id="node53" class="node">
<title>S&#45;1912</title>
<polygon fill="mediumseagreen" stroke="black" points="1422,-43 1350,-21.5 1422,0 1494,-21.5 1422,-43"/>
<text text-anchor="middle" x="1422" y="-19" font-family="Arial" font-size="10.00">S&#45;1912</text>
</g>
<!-- S&#45;963&#45;&gt;S&#45;1912 -->
<g id="edge50" class="edge">
<title>S&#45;963&#45;&gt;S&#45;1912</title>
<path fill="none" stroke="#4d4d4d" d="M1555.11,-115C1529.52,-115 1503,-115 1503,-115 1503,-115 1503,-21 1503,-21 1503,-21 1499.41,-21 1499.41,-21"/>
<polygon fill="#4d4d4d" stroke="#4d4d4d" points="1499.41,-18.55 1492.41,-21 1499.41,-23.45 1499.41,-18.55"/>
</g>
<!-- S&#45;1804 -->
<g id="node57" class="node">
<title>S&#45;1804</title>
<polygon fill="mediumseagreen" stroke="black" points="1602,-43 1530,-21.5 1602,0 1674,-21.5 1602,-43"/>
<text text-anchor="middle" x="1602" y="-19" font-family="Arial" font-size="10.00">S&#45;1804</text>
</g>
<!-- S&#45;963&#45;&gt;S&#45;1804 -->
<g id="edge49" class="edge">
<title>S&#45;963&#45;&gt;S&#45;1804</title>
<path fill="none" stroke="#4d4d4d" d="M1602,-100.58C1602,-100.58 1602,-50.03 1602,-50.03"/>
<polygon fill="#4d4d4d" stroke="#4d4d4d" points="1604.45,-50.03 1602,-43.03 1599.55,-50.03 1604.45,-50.03"/>
</g>
<!-- S&#45;2129 -->
<g id="node58" class="node">
<title>S&#45;2129</title>
<polygon fill="mediumseagreen" stroke="black" points="1782,-43 1710,-21.5 1782,0 1854,-21.5 1782,-43"/>
<text text-anchor="middle" x="1782" y="-19" font-family="Arial" font-size="10.00">S&#45;2129</text>
</g>
<!-- S&#45;963&#45;&gt;S&#45;2129 -->
<g id="edge51" class="edge">
<title>S&#45;963&#45;&gt;S&#45;2129</title>
<path fill="none" stroke="#4d4d4d" d="M1672.47,-122C1683.86,-122 1692,-122 1692,-122 1692,-122 1692,-21 1692,-21 1692,-21 1704.53,-21 1704.53,-21"/>
<polygon fill="#4d4d4d" stroke="#4d4d4d" points="1704.53,-23.45 1711.53,-21 1704.53,-18.55 1704.53,-23.45"/>
</g>
<!-- C&#45;1172&#45;&gt;S&#45;2020 -->
<g id="edge57" class="edge">
<title>C&#45;1172&#45;&gt;S&#45;2020</title>
<path fill="none" stroke="#4d4d4d" d="M1492,-707.57C1492,-707.57 1492,-650.12 1492,-650.12"/>
<polygon fill="#4d4d4d" stroke="#4d4d4d" points="1494.45,-650.12 1492,-643.12 1489.55,-650.12 1494.45,-650.12"/>
</g>
<!-- C&#45;1172&#45;&gt;S&#45;1771 -->
<g id="edge39" class="edge">
<title>C&#45;1172&#45;&gt;S&#45;1771</title>
<path fill="none" stroke="#4d4d4d" d="M1544.02,-728C1590.76,-728 1643,-728 1643,-728 1643,-728 1643,-641.41 1643,-641.41"/>
<polygon fill="#4d4d4d" stroke="#4d4d4d" points="1645.45,-641.41 1643,-634.41 1640.55,-641.41 1645.45,-641.41"/>
</g>
<!-- C&#45;1172&#45;&gt;S&#45;1824 -->
<g id="edge38" class="edge">
<title>C&#45;1172&#45;&gt;S&#45;1824</title>
<path fill="none" stroke="#4d4d4d" d="M1422,-712.64C1422,-684.09 1422,-627 1422,-627 1422,-627 1409.47,-627 1409.47,-627"/>
<polygon fill="#4d4d4d" stroke="#4d4d4d" points="1409.47,-624.55 1402.47,-627 1409.47,-629.45 1409.47,-624.55"/>
</g>
</g>
</svg>
