<?xml version="1.0" encoding="UTF-8" standalone="no"?>
<!DOCTYPE svg PUBLIC "-//W3C//DTD SVG 1.1//EN"
 "http://www.w3.org/Graphics/SVG/1.1/DTD/svg11.dtd">
<!-- Generated by graphviz version 2.50.0 (0)
 -->
<!-- Title: Grafo_Circuito_112_22_ Pages: 1 -->
<svg width="1930pt" height="1473pt"
 viewBox="0.00 0.00 1930.00 1473.00" xmlns="http://www.w3.org/2000/svg" xmlns:xlink="http://www.w3.org/1999/xlink">
<g id="graph0" class="graph" transform="scale(1 1) rotate(0) translate(4 1469)">
<title>Grafo_Circuito_112_22_</title>
<polygon fill="white" stroke="transparent" points="-4,4 -4,-1469 1926,-1469 1926,4 -4,4"/>
<!-- S&#45;2297 -->
<g id="node1" class="node">
<title>S&#45;2297</title>
<polygon fill="mediumseagreen" stroke="black" points="72,-245 0,-223.5 72,-202 144,-223.5 72,-245"/>
<text text-anchor="middle" x="72" y="-221" font-family="Arial" font-size="10.00">S&#45;2297</text>
</g>
<!-- S&#45;2400 -->
<g id="node2" class="node">
<title>S&#45;2400</title>
<polygon fill="mediumseagreen" stroke="black" points="532,-144 460,-122.5 532,-101 604,-122.5 532,-144"/>
<text text-anchor="middle" x="532" y="-120" font-family="Arial" font-size="10.00">S&#45;2400</text>
</g>
<!-- S&#45;2406 -->
<g id="node3" class="node">
<title>S&#45;2406</title>
<polygon fill="mediumseagreen" stroke="black" points="712,-144 640,-122.5 712,-101 784,-122.5 712,-144"/>
<text text-anchor="middle" x="712" y="-120" font-family="Arial" font-size="10.00">S&#45;2406</text>
</g>
<!-- S&#45;2553 -->
<g id="node4" class="node">
<title>S&#45;2553</title>
<polygon fill="mediumseagreen" stroke="black" points="410,-851 338,-829.5 410,-808 482,-829.5 410,-851"/>
<text text-anchor="middle" x="410" y="-827" font-family="Arial" font-size="10.00">S&#45;2553</text>
</g>
<!-- C&#45;0471 -->
<g id="node11" class="node">
<title>C&#45;0471</title>
<ellipse fill="mediumseagreen" stroke="black" cx="410" cy="-728.5" rx="72" ry="21.5"/>
<text text-anchor="middle" x="410" y="-726" font-family="Arial" font-size="10.00">C&#45;0471</text>
</g>
<!-- S&#45;2553&#45;&gt;C&#45;0471 -->
<g id="edge12" class="edge">
<title>S&#45;2553&#45;&gt;C&#45;0471</title>
<path fill="none" stroke="#4d4d4d" d="M410,-807.58C410,-807.58 410,-757.03 410,-757.03"/>
<polygon fill="#4d4d4d" stroke="#4d4d4d" points="412.45,-757.03 410,-750.03 407.55,-757.03 412.45,-757.03"/>
</g>
<!-- S&#45;2414 -->
<g id="node5" class="node">
<title>S&#45;2414</title>
<polygon fill="mediumseagreen" stroke="black" points="1060,-447 988,-425.5 1060,-404 1132,-425.5 1060,-447"/>
<text text-anchor="middle" x="1060" y="-423" font-family="Arial" font-size="10.00">S&#45;2414</text>
</g>
<!-- C&#45;0831 -->
<g id="node6" class="node">
<title>C&#45;0831</title>
<ellipse fill="mediumseagreen" stroke="black" cx="883" cy="-627.5" rx="72" ry="21.5"/>
<text text-anchor="middle" x="883" y="-625" font-family="Arial" font-size="10.00">C&#45;0831</text>
</g>
<!-- S&#45;2351 -->
<g id="node7" class="node">
<title>S&#45;2351</title>
<polygon fill="mediumseagreen" stroke="black" points="289,-447 217,-425.5 289,-404 361,-425.5 289,-447"/>
<text text-anchor="middle" x="289" y="-423" font-family="Arial" font-size="10.00">S&#45;2351</text>
</g>
<!-- S&#45;887 -->
<g id="node34" class="node">
<title>S&#45;887</title>
<polygon fill="mediumseagreen" stroke="black" points="252,-346 180,-324.5 252,-303 324,-324.5 252,-346"/>
<text text-anchor="middle" x="252" y="-322" font-family="Arial" font-size="10.00">S&#45;887</text>
</g>
<!-- S&#45;2351&#45;&gt;S&#45;887 -->
<g id="edge16" class="edge">
<title>S&#45;2351&#45;&gt;S&#45;887</title>
<path fill="none" stroke="#4d4d4d" d="M270.5,-409.27C270.5,-409.27 270.5,-347.69 270.5,-347.69"/>
<polygon fill="#4d4d4d" stroke="#4d4d4d" points="272.95,-347.69 270.5,-340.69 268.05,-347.69 272.95,-347.69"/>
</g>
<!-- S&#45;2436 -->
<g id="node8" class="node">
<title>S&#45;2436</title>
<polygon fill="mediumseagreen" stroke="black" points="506,-346 434,-324.5 506,-303 578,-324.5 506,-346"/>
<text text-anchor="middle" x="506" y="-322" font-family="Arial" font-size="10.00">S&#45;2436</text>
</g>
<!-- S&#45;2434 -->
<g id="node9" class="node">
<title>S&#45;2434</title>
<polygon fill="mediumseagreen" stroke="black" points="590,-851 518,-829.5 590,-808 662,-829.5 590,-851"/>
<text text-anchor="middle" x="590" y="-827" font-family="Arial" font-size="10.00">S&#45;2434</text>
</g>
<!-- 112&#45;22&#45; -->
<g id="node10" class="node">
<title>112&#45;22&#45;</title>
<polygon fill="gold" stroke="black" points="1271,-1430.59 1271,-1448.41 1228.82,-1461 1169.18,-1461 1127,-1448.41 1127,-1430.59 1169.18,-1418 1228.82,-1418 1271,-1430.59"/>
<polygon fill="none" stroke="black" points="1275,-1427.61 1275,-1451.39 1229.41,-1465 1168.59,-1465 1123,-1451.39 1123,-1427.61 1168.59,-1414 1229.41,-1414 1275,-1427.61"/>
<text text-anchor="middle" x="1199" y="-1437" font-family="Arial" font-size="10.00">112&#45;22&#45;</text>
</g>
<!-- C&#45;0053 -->
<g id="node24" class="node">
<title>C&#45;0053</title>
<ellipse fill="mediumseagreen" stroke="black" cx="1199" cy="-1334.5" rx="72" ry="21.5"/>
<text text-anchor="middle" x="1199" y="-1332" font-family="Arial" font-size="10.00">C&#45;0053</text>
</g>
<!-- 112&#45;22&#45;&#45;&gt;C&#45;0053 -->
<g id="edge1" class="edge">
<title>112&#45;22&#45;&#45;&gt;C&#45;0053</title>
<path fill="none" stroke="#4d4d4d" d="M1199,-1413.81C1199,-1413.81 1199,-1363.03 1199,-1363.03"/>
<polygon fill="#4d4d4d" stroke="#4d4d4d" points="1201.45,-1363.03 1199,-1356.03 1196.55,-1363.03 1201.45,-1363.03"/>
</g>
<!-- C&#45;0472 -->
<g id="node39" class="node">
<title>C&#45;0472</title>
<ellipse fill="mediumseagreen" stroke="black" cx="410" cy="-627.5" rx="72" ry="21.5"/>
<text text-anchor="middle" x="410" y="-625" font-family="Arial" font-size="10.00">C&#45;0472</text>
</g>
<!-- C&#45;0471&#45;&gt;C&#45;0472 -->
<g id="edge13" class="edge">
<title>C&#45;0471&#45;&gt;C&#45;0472</title>
<path fill="none" stroke="#4d4d4d" d="M410,-706.58C410,-706.58 410,-656.03 410,-656.03"/>
<polygon fill="#4d4d4d" stroke="#4d4d4d" points="412.45,-656.03 410,-649.03 407.55,-656.03 412.45,-656.03"/>
</g>
<!-- S&#45;2548 -->
<g id="node12" class="node">
<title>S&#45;2548</title>
<polygon fill="mediumseagreen" stroke="black" points="770,-851 698,-829.5 770,-808 842,-829.5 770,-851"/>
<text text-anchor="middle" x="770" y="-827" font-family="Arial" font-size="10.00">S&#45;2548</text>
</g>
<!-- S&#45;1937 -->
<g id="node13" class="node">
<title>S&#45;1937</title>
<polygon fill="mediumseagreen" stroke="black" points="1420,-447 1348,-425.5 1420,-404 1492,-425.5 1420,-447"/>
<text text-anchor="middle" x="1420" y="-423" font-family="Arial" font-size="10.00">S&#45;1937</text>
</g>
<!-- S&#45;1796 -->
<g id="node14" class="node">
<title>S&#45;1796</title>
<polygon fill="mediumseagreen" stroke="black" points="1060,-548 988,-526.5 1060,-505 1132,-526.5 1060,-548"/>
<text text-anchor="middle" x="1060" y="-524" font-family="Arial" font-size="10.00">S&#45;1796</text>
</g>
<!-- S&#45;1796&#45;&gt;S&#45;2414 -->
<g id="edge54" class="edge">
<title>S&#45;1796&#45;&gt;S&#45;2414</title>
<path fill="none" stroke="#4d4d4d" d="M1060,-504.58C1060,-504.58 1060,-454.03 1060,-454.03"/>
<polygon fill="#4d4d4d" stroke="#4d4d4d" points="1062.45,-454.03 1060,-447.03 1057.55,-454.03 1062.45,-454.03"/>
</g>
<!-- S&#45;2437 -->
<g id="node15" class="node">
<title>S&#45;2437</title>
<polygon fill="mediumseagreen" stroke="black" points="686,-346 614,-324.5 686,-303 758,-324.5 686,-346"/>
<text text-anchor="middle" x="686" y="-322" font-family="Arial" font-size="10.00">S&#45;2437</text>
</g>
<!-- S&#45;2195 -->
<g id="node16" class="node">
<title>S&#45;2195</title>
<polygon fill="mediumseagreen" stroke="black" points="1600,-548 1528,-526.5 1600,-505 1672,-526.5 1600,-548"/>
<text text-anchor="middle" x="1600" y="-524" font-family="Arial" font-size="10.00">S&#45;2195</text>
</g>
<!-- S&#45;2270 -->
<g id="node42" class="node">
<title>S&#45;2270</title>
<polygon fill="mediumseagreen" stroke="black" points="1600,-447 1528,-425.5 1600,-404 1672,-425.5 1600,-447"/>
<text text-anchor="middle" x="1600" y="-423" font-family="Arial" font-size="10.00">S&#45;2270</text>
</g>
<!-- S&#45;2195&#45;&gt;S&#45;2270 -->
<g id="edge47" class="edge">
<title>S&#45;2195&#45;&gt;S&#45;2270</title>
<path fill="none" stroke="#4d4d4d" d="M1600,-504.58C1600,-504.58 1600,-454.03 1600,-454.03"/>
<polygon fill="#4d4d4d" stroke="#4d4d4d" points="1602.45,-454.03 1600,-447.03 1597.55,-454.03 1602.45,-454.03"/>
</g>
<!-- S&#45;2401 -->
<g id="node17" class="node">
<title>S&#45;2401</title>
<polygon fill="tomato" stroke="black" points="230,-548 158,-526.5 230,-505 302,-526.5 230,-548"/>
<text text-anchor="middle" x="230" y="-524" font-family="Arial" font-size="10.00">S&#45;2401</text>
</g>
<!-- ext_circ_112_23_ -->
<g id="node60" class="node">
<title>ext_circ_112_23_</title>
<polygon fill="lightpink" stroke="darkorange" stroke-dasharray="5,2" points="1079,-1461 935,-1461 935,-1418 1079,-1418 1079,-1461"/>
<text text-anchor="middle" x="1007" y="-1442.5" font-family="Arial" font-size="10.00">Circuito:</text>
<text text-anchor="middle" x="1007" y="-1431.5" font-family="Arial" font-size="10.00">112&#45;23&#45;</text>
</g>
<!-- S&#45;2401&#45;&gt;ext_circ_112_23_ -->
<g id="edge61" class="edge">
<title>S&#45;2401&#45;&gt;ext_circ_112_23_</title>
<path fill="none" stroke="darkorange" stroke-dasharray="5,2" d="M206,-541.2C206,-658.57 206,-1439 206,-1439 206,-1439 927.86,-1439 927.86,-1439"/>
<polygon fill="darkorange" stroke="darkorange" points="927.86,-1441.45 934.86,-1439 927.86,-1436.55 927.86,-1441.45"/>
</g>
<!-- S&#45;178 -->
<g id="node18" class="node">
<title>S&#45;178</title>
<polygon fill="mediumseagreen" stroke="black" points="686,-245 614,-223.5 686,-202 758,-223.5 686,-245"/>
<text text-anchor="middle" x="686" y="-221" font-family="Arial" font-size="10.00">S&#45;178</text>
</g>
<!-- S&#45;2547 -->
<g id="node19" class="node">
<title>S&#45;2547</title>
<polygon fill="mediumseagreen" stroke="black" points="950,-851 878,-829.5 950,-808 1022,-829.5 950,-851"/>
<text text-anchor="middle" x="950" y="-827" font-family="Arial" font-size="10.00">S&#45;2547</text>
</g>
<!-- R&#45;028 -->
<g id="node20" class="node">
<title>R&#45;028</title>
<polygon fill="mediumseagreen" stroke="black" points="1202,-820.59 1202,-838.41 1159.82,-851 1100.18,-851 1058,-838.41 1058,-820.59 1100.18,-808 1159.82,-808 1202,-820.59"/>
<text text-anchor="middle" x="1130" y="-827" font-family="Arial" font-size="10.00">R&#45;028</text>
</g>
<!-- S&#45;1689 -->
<g id="node29" class="node">
<title>S&#45;1689</title>
<polygon fill="mediumseagreen" stroke="black" points="1108,-750 1036,-728.5 1108,-707 1180,-728.5 1108,-750"/>
<text text-anchor="middle" x="1108" y="-726" font-family="Arial" font-size="10.00">S&#45;1689</text>
</g>
<!-- R&#45;028&#45;&gt;S&#45;1689 -->
<g id="edge48" class="edge">
<title>R&#45;028&#45;&gt;S&#45;1689</title>
<path fill="none" stroke="#4d4d4d" d="M1119,-807.58C1119,-807.58 1119,-753.99 1119,-753.99"/>
<polygon fill="#4d4d4d" stroke="#4d4d4d" points="1121.45,-753.99 1119,-746.99 1116.55,-753.99 1121.45,-753.99"/>
</g>
<!-- S&#45;1198 -->
<g id="node57" class="node">
<title>S&#45;1198</title>
<polygon fill="mediumseagreen" stroke="black" points="1423,-750 1351,-728.5 1423,-707 1495,-728.5 1423,-750"/>
<text text-anchor="middle" x="1423" y="-726" font-family="Arial" font-size="10.00">S&#45;1198</text>
</g>
<!-- R&#45;028&#45;&gt;S&#45;1198 -->
<g id="edge43" class="edge">
<title>R&#45;028&#45;&gt;S&#45;1198</title>
<path fill="none" stroke="#4d4d4d" d="M1191,-817.05C1191,-789.95 1191,-728 1191,-728 1191,-728 1345.45,-728 1345.45,-728"/>
<polygon fill="#4d4d4d" stroke="#4d4d4d" points="1345.45,-730.45 1352.45,-728 1345.45,-725.55 1345.45,-730.45"/>
</g>
<!-- S&#45;2257 -->
<g id="node21" class="node">
<title>S&#45;2257</title>
<polygon fill="mediumseagreen" stroke="black" points="252,-245 180,-223.5 252,-202 324,-223.5 252,-245"/>
<text text-anchor="middle" x="252" y="-221" font-family="Arial" font-size="10.00">S&#45;2257</text>
</g>
<!-- S&#45;2402 -->
<g id="node22" class="node">
<title>S&#45;2402</title>
<polygon fill="mediumseagreen" stroke="black" points="1240,-548 1168,-526.5 1240,-505 1312,-526.5 1240,-548"/>
<text text-anchor="middle" x="1240" y="-524" font-family="Arial" font-size="10.00">S&#45;2402</text>
</g>
<!-- C&#45;1248 -->
<g id="node23" class="node">
<title>C&#45;1248</title>
<ellipse fill="mediumseagreen" stroke="black" cx="1288" cy="-1233.5" rx="72" ry="21.5"/>
<text text-anchor="middle" x="1288" y="-1231" font-family="Arial" font-size="10.00">C&#45;1248</text>
</g>
<!-- C&#45;0917 -->
<g id="node36" class="node">
<title>C&#45;0917</title>
<ellipse fill="mediumseagreen" stroke="black" cx="1130" cy="-1132.5" rx="72" ry="21.5"/>
<text text-anchor="middle" x="1130" y="-1130" font-family="Arial" font-size="10.00">C&#45;0917</text>
</g>
<!-- C&#45;1248&#45;&gt;C&#45;0917 -->
<g id="edge4" class="edge">
<title>C&#45;1248&#45;&gt;C&#45;0917</title>
<path fill="none" stroke="#4d4d4d" d="M1227,-1221.86C1227,-1195.2 1227,-1132 1227,-1132 1227,-1132 1209.02,-1132 1209.02,-1132"/>
<polygon fill="#4d4d4d" stroke="#4d4d4d" points="1209.02,-1129.55 1202.02,-1132 1209.02,-1134.45 1209.02,-1129.55"/>
</g>
<!-- C&#45;0918 -->
<g id="node54" class="node">
<title>C&#45;0918</title>
<ellipse fill="tomato" stroke="black" cx="1310" cy="-1132.5" rx="72" ry="21.5"/>
<text text-anchor="middle" x="1310" y="-1130" font-family="Arial" font-size="10.00">C&#45;0918</text>
</g>
<!-- C&#45;1248&#45;&gt;C&#45;0918 -->
<g id="edge3" class="edge">
<title>C&#45;1248&#45;&gt;C&#45;0918</title>
<path fill="none" stroke="#4d4d4d" d="M1299,-1212.08C1299,-1212.08 1299,-1160.89 1299,-1160.89"/>
<polygon fill="#4d4d4d" stroke="#4d4d4d" points="1301.45,-1160.89 1299,-1153.89 1296.55,-1160.89 1301.45,-1160.89"/>
</g>
<!-- C&#45;0053&#45;&gt;C&#45;1248 -->
<g id="edge2" class="edge">
<title>C&#45;0053&#45;&gt;C&#45;1248</title>
<path fill="none" stroke="#4d4d4d" d="M1243.5,-1317.37C1243.5,-1317.37 1243.5,-1257.72 1243.5,-1257.72"/>
<polygon fill="#4d4d4d" stroke="#4d4d4d" points="1245.95,-1257.72 1243.5,-1250.72 1241.05,-1257.72 1245.95,-1257.72"/>
</g>
<!-- S&#45;884 -->
<g id="node43" class="node">
<title>S&#45;884</title>
<polygon fill="tomato" stroke="black" points="1108,-1255 1036,-1233.5 1108,-1212 1180,-1233.5 1108,-1255"/>
<text text-anchor="middle" x="1108" y="-1231" font-family="Arial" font-size="10.00">S&#45;884</text>
</g>
<!-- C&#45;0053&#45;&gt;S&#45;884 -->
<g id="edge57" class="edge">
<title>C&#45;0053&#45;&gt;S&#45;884</title>
<path fill="none" stroke="#4d4d4d" d="M1153.5,-1317.82C1153.5,-1317.82 1153.5,-1248.61 1153.5,-1248.61"/>
<polygon fill="#4d4d4d" stroke="#4d4d4d" points="1155.95,-1248.61 1153.5,-1241.61 1151.05,-1248.61 1155.95,-1248.61"/>
</g>
<!-- C&#45;0261 -->
<g id="node25" class="node">
<title>C&#45;0261</title>
<ellipse fill="tomato" stroke="black" cx="506" cy="-425.5" rx="72" ry="21.5"/>
<text text-anchor="middle" x="506" y="-423" font-family="Arial" font-size="10.00">C&#45;0261</text>
</g>
<!-- C&#45;0261&#45;&gt;S&#45;2400 -->
<g id="edge59" class="edge">
<title>C&#45;0261&#45;&gt;S&#45;2400</title>
<path fill="none" stroke="blue" stroke-dasharray="5,2" d="M574.76,-432C581.94,-432 586.67,-432 586.67,-432 586.67,-432 586.67,-134.87 586.67,-134.87"/>
<polygon fill="blue" stroke="blue" points="589.12,-134.87 586.67,-127.87 584.22,-134.87 589.12,-134.87"/>
</g>
<!-- S&#45;1936 -->
<g id="node26" class="node">
<title>S&#45;1936</title>
<polygon fill="mediumseagreen" stroke="black" points="892,-144 820,-122.5 892,-101 964,-122.5 892,-144"/>
<text text-anchor="middle" x="892" y="-120" font-family="Arial" font-size="10.00">S&#45;1936</text>
</g>
<!-- C&#45;0874 -->
<g id="node27" class="node">
<title>C&#45;0874</title>
<ellipse fill="mediumseagreen" stroke="black" cx="1072" cy="-122.5" rx="72" ry="21.5"/>
<text text-anchor="middle" x="1072" y="-120" font-family="Arial" font-size="10.00">C&#45;0874</text>
</g>
<!-- C&#45;0478 -->
<g id="node28" class="node">
<title>C&#45;0478</title>
<ellipse fill="mediumseagreen" stroke="black" cx="686" cy="-425.5" rx="72" ry="21.5"/>
<text text-anchor="middle" x="686" y="-423" font-family="Arial" font-size="10.00">C&#45;0478</text>
</g>
<!-- C&#45;0478&#45;&gt;S&#45;2436 -->
<g id="edge36" class="edge">
<title>C&#45;0478&#45;&gt;S&#45;2436</title>
<path fill="none" stroke="#4d4d4d" d="M618.44,-418C612.68,-418 609,-418 609,-418 609,-418 609,-324 609,-324 609,-324 583.41,-324 583.41,-324"/>
<polygon fill="#4d4d4d" stroke="#4d4d4d" points="583.41,-321.55 576.41,-324 583.41,-326.45 583.41,-321.55"/>
</g>
<!-- C&#45;0478&#45;&gt;S&#45;2437 -->
<g id="edge37" class="edge">
<title>C&#45;0478&#45;&gt;S&#45;2437</title>
<path fill="none" stroke="#4d4d4d" d="M686,-403.58C686,-403.58 686,-353.03 686,-353.03"/>
<polygon fill="#4d4d4d" stroke="#4d4d4d" points="688.45,-353.03 686,-346.03 683.55,-353.03 688.45,-353.03"/>
</g>
<!-- S&#45;1096 -->
<g id="node32" class="node">
<title>S&#45;1096</title>
<polygon fill="mediumseagreen" stroke="black" points="866,-346 794,-324.5 866,-303 938,-324.5 866,-346"/>
<text text-anchor="middle" x="866" y="-322" font-family="Arial" font-size="10.00">S&#45;1096</text>
</g>
<!-- C&#45;0478&#45;&gt;S&#45;1096 -->
<g id="edge33" class="edge">
<title>C&#45;0478&#45;&gt;S&#45;1096</title>
<path fill="none" stroke="#4d4d4d" d="M758.2,-425C780.59,-425 799.5,-425 799.5,-425 799.5,-425 799.5,-333.24 799.5,-333.24"/>
<polygon fill="#4d4d4d" stroke="#4d4d4d" points="801.95,-333.24 799.5,-326.24 797.05,-333.24 801.95,-333.24"/>
</g>
<!-- S&#45;1689&#45;&gt;C&#45;0831 -->
<g id="edge56" class="edge">
<title>S&#45;1689&#45;&gt;C&#45;0831</title>
<path fill="none" stroke="#4d4d4d" d="M1037.51,-728C982.91,-728 916.5,-728 916.5,-728 916.5,-728 916.5,-653.88 916.5,-653.88"/>
<polygon fill="#4d4d4d" stroke="#4d4d4d" points="918.95,-653.88 916.5,-646.88 914.05,-653.88 918.95,-653.88"/>
</g>
<!-- S&#45;2252 -->
<g id="node37" class="node">
<title>S&#45;2252</title>
<polygon fill="mediumseagreen" stroke="black" points="1063,-649 991,-627.5 1063,-606 1135,-627.5 1063,-649"/>
<text text-anchor="middle" x="1063" y="-625" font-family="Arial" font-size="10.00">S&#45;2252</text>
</g>
<!-- S&#45;1689&#45;&gt;S&#45;2252 -->
<g id="edge49" class="edge">
<title>S&#45;1689&#45;&gt;S&#45;2252</title>
<path fill="none" stroke="#4d4d4d" d="M1085.5,-713.6C1085.5,-713.6 1085.5,-649.46 1085.5,-649.46"/>
<polygon fill="#4d4d4d" stroke="#4d4d4d" points="1087.95,-649.46 1085.5,-642.46 1083.05,-649.46 1087.95,-649.46"/>
</g>
<!-- S&#45;1201 -->
<g id="node55" class="node">
<title>S&#45;1201</title>
<polygon fill="mediumseagreen" stroke="black" points="1243,-649 1171,-627.5 1243,-606 1315,-627.5 1243,-649"/>
<text text-anchor="middle" x="1243" y="-625" font-family="Arial" font-size="10.00">S&#45;1201</text>
</g>
<!-- S&#45;1689&#45;&gt;S&#45;1201 -->
<g id="edge50" class="edge">
<title>S&#45;1689&#45;&gt;S&#45;1201</title>
<path fill="none" stroke="#4d4d4d" d="M1175.5,-727.07C1175.5,-727.07 1175.5,-636.02 1175.5,-636.02"/>
<polygon fill="#4d4d4d" stroke="#4d4d4d" points="1177.95,-636.02 1175.5,-629.02 1173.05,-636.02 1177.95,-636.02"/>
</g>
<!-- S&#45;2350 -->
<g id="node30" class="node">
<title>S&#45;2350</title>
<polygon fill="mediumseagreen" stroke="black" points="410,-548 338,-526.5 410,-505 482,-526.5 410,-548"/>
<text text-anchor="middle" x="410" y="-524" font-family="Arial" font-size="10.00">S&#45;2350</text>
</g>
<!-- S&#45;2350&#45;&gt;S&#45;2351 -->
<g id="edge15" class="edge">
<title>S&#45;2350&#45;&gt;S&#45;2351</title>
<path fill="none" stroke="#4d4d4d" d="M349.5,-522.66C349.5,-522.66 349.5,-436.34 349.5,-436.34"/>
<polygon fill="#4d4d4d" stroke="#4d4d4d" points="351.95,-436.34 349.5,-429.34 347.05,-436.34 351.95,-436.34"/>
</g>
<!-- S&#45;2549 -->
<g id="node31" class="node">
<title>S&#45;2549</title>
<polygon fill="mediumseagreen" stroke="black" points="1310,-851 1238,-829.5 1310,-808 1382,-829.5 1310,-851"/>
<text text-anchor="middle" x="1310" y="-827" font-family="Arial" font-size="10.00">S&#45;2549</text>
</g>
<!-- S&#45;1096&#45;&gt;S&#45;178 -->
<g id="edge35" class="edge">
<title>S&#45;1096&#45;&gt;S&#45;178</title>
<path fill="none" stroke="#4d4d4d" d="M795.56,-324C791.49,-324 789,-324 789,-324 789,-324 789,-223 789,-223 789,-223 763.41,-223 763.41,-223"/>
<polygon fill="#4d4d4d" stroke="#4d4d4d" points="763.41,-220.55 756.41,-223 763.41,-225.45 763.41,-220.55"/>
</g>
<!-- S&#45;179 -->
<g id="node45" class="node">
<title>S&#45;179</title>
<polygon fill="mediumseagreen" stroke="black" points="866,-245 794,-223.5 866,-202 938,-223.5 866,-245"/>
<text text-anchor="middle" x="866" y="-221" font-family="Arial" font-size="10.00">S&#45;179</text>
</g>
<!-- S&#45;1096&#45;&gt;S&#45;179 -->
<g id="edge34" class="edge">
<title>S&#45;1096&#45;&gt;S&#45;179</title>
<path fill="none" stroke="#4d4d4d" d="M866,-302.58C866,-302.58 866,-252.03 866,-252.03"/>
<polygon fill="#4d4d4d" stroke="#4d4d4d" points="868.45,-252.03 866,-245.03 863.55,-252.03 868.45,-252.03"/>
</g>
<!-- S&#45;2131 -->
<g id="node33" class="node">
<title>S&#45;2131</title>
<polygon fill="mediumseagreen" stroke="black" points="1490,-851 1418,-829.5 1490,-808 1562,-829.5 1490,-851"/>
<text text-anchor="middle" x="1490" y="-827" font-family="Arial" font-size="10.00">S&#45;2131</text>
</g>
<!-- S&#45;887&#45;&gt;S&#45;2297 -->
<g id="edge17" class="edge">
<title>S&#45;887&#45;&gt;S&#45;2297</title>
<path fill="none" stroke="#4d4d4d" d="M181.63,-324C131.15,-324 72,-324 72,-324 72,-324 72,-252.31 72,-252.31"/>
<polygon fill="#4d4d4d" stroke="#4d4d4d" points="74.45,-252.31 72,-245.31 69.55,-252.31 74.45,-252.31"/>
</g>
<!-- S&#45;887&#45;&gt;S&#45;2257 -->
<g id="edge18" class="edge">
<title>S&#45;887&#45;&gt;S&#45;2257</title>
<path fill="none" stroke="#4d4d4d" d="M252,-302.58C252,-302.58 252,-252.03 252,-252.03"/>
<polygon fill="#4d4d4d" stroke="#4d4d4d" points="254.45,-252.03 252,-245.03 249.55,-252.03 254.45,-252.03"/>
</g>
<!-- S&#45;2364 -->
<g id="node35" class="node">
<title>S&#45;2364</title>
<polygon fill="mediumseagreen" stroke="black" points="432,-245 360,-223.5 432,-202 504,-223.5 432,-245"/>
<text text-anchor="middle" x="432" y="-221" font-family="Arial" font-size="10.00">S&#45;2364</text>
</g>
<!-- S&#45;887&#45;&gt;S&#45;2364 -->
<g id="edge19" class="edge">
<title>S&#45;887&#45;&gt;S&#45;2364</title>
<path fill="none" stroke="#4d4d4d" d="M322.62,-324C359.69,-324 397.5,-324 397.5,-324 397.5,-324 397.5,-242.03 397.5,-242.03"/>
<polygon fill="#4d4d4d" stroke="#4d4d4d" points="399.95,-242.03 397.5,-235.03 395.05,-242.03 399.95,-242.03"/>
</g>
<!-- R&#45;215 -->
<g id="node51" class="node">
<title>R&#45;215</title>
<polygon fill="mediumseagreen" stroke="black" points="1202,-1022.59 1202,-1040.41 1159.82,-1053 1100.18,-1053 1058,-1040.41 1058,-1022.59 1100.18,-1010 1159.82,-1010 1202,-1022.59"/>
<text text-anchor="middle" x="1130" y="-1029" font-family="Arial" font-size="10.00">R&#45;215</text>
</g>
<!-- C&#45;0917&#45;&gt;R&#45;215 -->
<g id="edge5" class="edge">
<title>C&#45;0917&#45;&gt;R&#45;215</title>
<path fill="none" stroke="#4d4d4d" d="M1130,-1110.58C1130,-1110.58 1130,-1060.03 1130,-1060.03"/>
<polygon fill="#4d4d4d" stroke="#4d4d4d" points="1132.45,-1060.03 1130,-1053.03 1127.55,-1060.03 1132.45,-1060.03"/>
</g>
<!-- C&#45;0919 -->
<g id="node38" class="node">
<title>C&#45;0919</title>
<ellipse fill="mediumseagreen" stroke="black" cx="1130" cy="-930.5" rx="72" ry="21.5"/>
<text text-anchor="middle" x="1130" y="-928" font-family="Arial" font-size="10.00">C&#45;0919</text>
</g>
<!-- C&#45;0919&#45;&gt;S&#45;2553 -->
<g id="edge11" class="edge">
<title>C&#45;0919&#45;&gt;S&#45;2553</title>
<path fill="none" stroke="#4d4d4d" d="M1071.38,-943C899.7,-943 410,-943 410,-943 410,-943 410,-858.12 410,-858.12"/>
<polygon fill="#4d4d4d" stroke="#4d4d4d" points="412.45,-858.12 410,-851.12 407.55,-858.12 412.45,-858.12"/>
</g>
<!-- C&#45;0919&#45;&gt;S&#45;2434 -->
<g id="edge9" class="edge">
<title>C&#45;0919&#45;&gt;S&#45;2434</title>
<path fill="none" stroke="#4d4d4d" d="M1058.85,-934C912.22,-934 590,-934 590,-934 590,-934 590,-858.15 590,-858.15"/>
<polygon fill="#4d4d4d" stroke="#4d4d4d" points="592.45,-858.15 590,-851.15 587.55,-858.15 592.45,-858.15"/>
</g>
<!-- C&#45;0919&#45;&gt;S&#45;2548 -->
<g id="edge40" class="edge">
<title>C&#45;0919&#45;&gt;S&#45;2548</title>
<path fill="none" stroke="#4d4d4d" d="M1059.31,-926C954.46,-926 770,-926 770,-926 770,-926 770,-858.4 770,-858.4"/>
<polygon fill="#4d4d4d" stroke="#4d4d4d" points="772.45,-858.4 770,-851.4 767.55,-858.4 772.45,-858.4"/>
</g>
<!-- C&#45;0919&#45;&gt;S&#45;2547 -->
<g id="edge7" class="edge">
<title>C&#45;0919&#45;&gt;S&#45;2547</title>
<path fill="none" stroke="#4d4d4d" d="M1073.59,-917C1030.51,-917 978.5,-917 978.5,-917 978.5,-917 978.5,-849.79 978.5,-849.79"/>
<polygon fill="#4d4d4d" stroke="#4d4d4d" points="980.95,-849.79 978.5,-842.79 976.05,-849.79 980.95,-849.79"/>
</g>
<!-- C&#45;0919&#45;&gt;R&#45;028 -->
<g id="edge42" class="edge">
<title>C&#45;0919&#45;&gt;R&#45;028</title>
<path fill="none" stroke="#4d4d4d" d="M1130,-908.58C1130,-908.58 1130,-858.03 1130,-858.03"/>
<polygon fill="#4d4d4d" stroke="#4d4d4d" points="1132.45,-858.03 1130,-851.03 1127.55,-858.03 1132.45,-858.03"/>
</g>
<!-- C&#45;0919&#45;&gt;S&#45;2549 -->
<g id="edge8" class="edge">
<title>C&#45;0919&#45;&gt;S&#45;2549</title>
<path fill="none" stroke="#4d4d4d" d="M1183.33,-916C1243.78,-916 1334,-916 1334,-916 1334,-916 1334,-851.17 1334,-851.17"/>
<polygon fill="#4d4d4d" stroke="#4d4d4d" points="1336.45,-851.17 1334,-844.17 1331.55,-851.17 1336.45,-851.17"/>
</g>
<!-- C&#45;0919&#45;&gt;S&#45;2131 -->
<g id="edge41" class="edge">
<title>C&#45;0919&#45;&gt;S&#45;2131</title>
<path fill="none" stroke="#4d4d4d" d="M1197.64,-923C1287.9,-923 1436.5,-923 1436.5,-923 1436.5,-923 1436.5,-842.07 1436.5,-842.07"/>
<polygon fill="#4d4d4d" stroke="#4d4d4d" points="1438.95,-842.07 1436.5,-835.07 1434.05,-842.07 1438.95,-842.07"/>
</g>
<!-- S&#45;2435 -->
<g id="node40" class="node">
<title>S&#45;2435</title>
<polygon fill="mediumseagreen" stroke="black" points="1670,-851 1598,-829.5 1670,-808 1742,-829.5 1670,-851"/>
<text text-anchor="middle" x="1670" y="-827" font-family="Arial" font-size="10.00">S&#45;2435</text>
</g>
<!-- C&#45;0919&#45;&gt;S&#45;2435 -->
<g id="edge10" class="edge">
<title>C&#45;0919&#45;&gt;S&#45;2435</title>
<path fill="none" stroke="#4d4d4d" d="M1201.99,-930C1349.01,-930 1670,-930 1670,-930 1670,-930 1670,-858.31 1670,-858.31"/>
<polygon fill="#4d4d4d" stroke="#4d4d4d" points="1672.45,-858.31 1670,-851.31 1667.55,-858.31 1672.45,-858.31"/>
</g>
<!-- S&#45;2552 -->
<g id="node50" class="node">
<title>S&#45;2552</title>
<polygon fill="mediumseagreen" stroke="black" points="1850,-851 1778,-829.5 1850,-808 1922,-829.5 1850,-851"/>
<text text-anchor="middle" x="1850" y="-827" font-family="Arial" font-size="10.00">S&#45;2552</text>
</g>
<!-- C&#45;0919&#45;&gt;S&#45;2552 -->
<g id="edge39" class="edge">
<title>C&#45;0919&#45;&gt;S&#45;2552</title>
<path fill="none" stroke="#4d4d4d" d="M1198.71,-937C1378.68,-937 1850,-937 1850,-937 1850,-937 1850,-858.25 1850,-858.25"/>
<polygon fill="#4d4d4d" stroke="#4d4d4d" points="1852.45,-858.25 1850,-851.25 1847.55,-858.25 1852.45,-858.25"/>
</g>
<!-- C&#45;0472&#45;&gt;S&#45;2401 -->
<g id="edge38" class="edge">
<title>C&#45;0472&#45;&gt;S&#45;2401</title>
<path fill="none" stroke="#4d4d4d" d="M337.94,-627C297.06,-627 254,-627 254,-627 254,-627 254,-547.9 254,-547.9"/>
<polygon fill="#4d4d4d" stroke="#4d4d4d" points="256.45,-547.9 254,-540.9 251.55,-547.9 256.45,-547.9"/>
</g>
<!-- C&#45;0472&#45;&gt;S&#45;2350 -->
<g id="edge14" class="edge">
<title>C&#45;0472&#45;&gt;S&#45;2350</title>
<path fill="none" stroke="#4d4d4d" d="M410,-605.58C410,-605.58 410,-555.03 410,-555.03"/>
<polygon fill="#4d4d4d" stroke="#4d4d4d" points="412.45,-555.03 410,-548.03 407.55,-555.03 412.45,-555.03"/>
</g>
<!-- C&#45;0477 -->
<g id="node58" class="node">
<title>C&#45;0477</title>
<ellipse fill="mediumseagreen" stroke="black" cx="596" cy="-526.5" rx="72" ry="21.5"/>
<text text-anchor="middle" x="596" y="-524" font-family="Arial" font-size="10.00">C&#45;0477</text>
</g>
<!-- C&#45;0472&#45;&gt;C&#45;0477 -->
<g id="edge20" class="edge">
<title>C&#45;0472&#45;&gt;C&#45;0477</title>
<path fill="none" stroke="#4d4d4d" d="M482.06,-627C533.27,-627 593,-627 593,-627 593,-627 593,-555.31 593,-555.31"/>
<polygon fill="#4d4d4d" stroke="#4d4d4d" points="595.45,-555.31 593,-548.31 590.55,-555.31 595.45,-555.31"/>
</g>
<!-- S&#45;1514 -->
<g id="node41" class="node">
<title>S&#45;1514</title>
<polygon fill="mediumseagreen" stroke="black" points="1420,-548 1348,-526.5 1420,-505 1492,-526.5 1420,-548"/>
<text text-anchor="middle" x="1420" y="-524" font-family="Arial" font-size="10.00">S&#45;1514</text>
</g>
<!-- S&#45;1514&#45;&gt;S&#45;1937 -->
<g id="edge52" class="edge">
<title>S&#45;1514&#45;&gt;S&#45;1937</title>
<path fill="none" stroke="#4d4d4d" d="M1420,-504.58C1420,-504.58 1420,-454.03 1420,-454.03"/>
<polygon fill="#4d4d4d" stroke="#4d4d4d" points="1422.45,-454.03 1420,-447.03 1417.55,-454.03 1422.45,-454.03"/>
</g>
<!-- S&#45;884&#45;&gt;ext_circ_112_23_ -->
<g id="edge62" class="edge">
<title>S&#45;884&#45;&gt;ext_circ_112_23_</title>
<path fill="none" stroke="darkorange" stroke-dasharray="5,2" d="M1057.5,-1240.35C1057.5,-1240.35 1057.5,-1410.72 1057.5,-1410.72"/>
<polygon fill="darkorange" stroke="darkorange" points="1055.05,-1410.72 1057.5,-1417.72 1059.95,-1410.72 1055.05,-1410.72"/>
</g>
<!-- S&#45;1645 -->
<g id="node44" class="node">
<title>S&#45;1645</title>
<polygon fill="mediumseagreen" stroke="black" points="1432,-43 1360,-21.5 1432,0 1504,-21.5 1432,-43"/>
<text text-anchor="middle" x="1432" y="-19" font-family="Arial" font-size="10.00">S&#45;1645</text>
</g>
<!-- R&#45;141 -->
<g id="node46" class="node">
<title>R&#45;141</title>
<polygon fill="mediumseagreen" stroke="black" points="1118,-315.59 1118,-333.41 1075.82,-346 1016.18,-346 974,-333.41 974,-315.59 1016.18,-303 1075.82,-303 1118,-315.59"/>
<text text-anchor="middle" x="1046" y="-322" font-family="Arial" font-size="10.00">R&#45;141</text>
</g>
<!-- C&#45;0417 -->
<g id="node49" class="node">
<title>C&#45;0417</title>
<ellipse fill="mediumseagreen" stroke="black" cx="1046" cy="-223.5" rx="72" ry="21.5"/>
<text text-anchor="middle" x="1046" y="-221" font-family="Arial" font-size="10.00">C&#45;0417</text>
</g>
<!-- R&#45;141&#45;&gt;C&#45;0417 -->
<g id="edge24" class="edge">
<title>R&#45;141&#45;&gt;C&#45;0417</title>
<path fill="none" stroke="#4d4d4d" d="M1046,-302.58C1046,-302.58 1046,-252.03 1046,-252.03"/>
<polygon fill="#4d4d4d" stroke="#4d4d4d" points="1048.45,-252.03 1046,-245.03 1043.55,-252.03 1048.45,-252.03"/>
</g>
<!-- C&#45;0873 -->
<g id="node47" class="node">
<title>C&#45;0873</title>
<ellipse fill="tomato" stroke="black" cx="1252" cy="-122.5" rx="72" ry="21.5"/>
<text text-anchor="middle" x="1252" y="-120" font-family="Arial" font-size="10.00">C&#45;0873</text>
</g>
<!-- ext_circ_208_28_ -->
<g id="node59" class="node">
<title>ext_circ_208_28_</title>
<polygon fill="lightpink" stroke="darkorange" stroke-dasharray="5,2" points="1455,-1461 1311,-1461 1311,-1418 1455,-1418 1455,-1461"/>
<text text-anchor="middle" x="1383" y="-1442.5" font-family="Arial" font-size="10.00">Circuito:</text>
<text text-anchor="middle" x="1383" y="-1431.5" font-family="Arial" font-size="10.00">208&#45;28&#45;</text>
</g>
<!-- C&#45;0873&#45;&gt;ext_circ_208_28_ -->
<g id="edge60" class="edge">
<title>C&#45;0873&#45;&gt;ext_circ_208_28_</title>
<path fill="none" stroke="darkorange" stroke-dasharray="5,2" d="M1319.5,-130.33C1319.5,-204.4 1319.5,-779 1319.5,-779 1319.5,-779 1400,-779 1400,-779 1400,-779 1400,-1410.9 1400,-1410.9"/>
<polygon fill="darkorange" stroke="darkorange" points="1397.55,-1410.9 1400,-1417.9 1402.45,-1410.9 1397.55,-1410.9"/>
</g>
<!-- C&#45;0416 -->
<g id="node48" class="node">
<title>C&#45;0416</title>
<ellipse fill="mediumseagreen" stroke="black" cx="877" cy="-425.5" rx="72" ry="21.5"/>
<text text-anchor="middle" x="877" y="-423" font-family="Arial" font-size="10.00">C&#45;0416</text>
</g>
<!-- C&#45;0416&#45;&gt;R&#45;141 -->
<g id="edge23" class="edge">
<title>C&#45;0416&#45;&gt;R&#45;141</title>
<path fill="none" stroke="#4d4d4d" d="M943.5,-417.19C943.5,-392.95 943.5,-324 943.5,-324 943.5,-324 966.98,-324 966.98,-324"/>
<polygon fill="#4d4d4d" stroke="#4d4d4d" points="966.98,-326.45 973.98,-324 966.98,-321.55 966.98,-326.45"/>
</g>
<!-- C&#45;0417&#45;&gt;S&#45;2400 -->
<g id="edge25" class="edge">
<title>C&#45;0417&#45;&gt;S&#45;2400</title>
<path fill="none" stroke="#4d4d4d" d="M982.67,-213.03C982.67,-200.73 982.67,-182 982.67,-182 982.67,-182 595.33,-182 595.33,-182 595.33,-182 595.33,-132.37 595.33,-132.37"/>
<polygon fill="#4d4d4d" stroke="#4d4d4d" points="597.78,-132.37 595.33,-125.37 592.88,-132.37 597.78,-132.37"/>
</g>
<!-- C&#45;0417&#45;&gt;S&#45;2406 -->
<g id="edge28" class="edge">
<title>C&#45;0417&#45;&gt;S&#45;2406</title>
<path fill="none" stroke="#4d4d4d" d="M991.33,-209.47C991.33,-191.6 991.33,-163 991.33,-163 991.33,-163 771,-163 771,-163 771,-163 771,-133.53 771,-133.53"/>
<polygon fill="#4d4d4d" stroke="#4d4d4d" points="773.45,-133.53 771,-126.53 768.55,-133.53 773.45,-133.53"/>
</g>
<!-- C&#45;0417&#45;&gt;S&#45;1936 -->
<g id="edge29" class="edge">
<title>C&#45;0417&#45;&gt;S&#45;1936</title>
<path fill="none" stroke="#4d4d4d" d="M973.78,-223C965.25,-223 959.5,-223 959.5,-223 959.5,-223 959.5,-130.92 959.5,-130.92"/>
<polygon fill="#4d4d4d" stroke="#4d4d4d" points="961.95,-130.92 959.5,-123.92 957.05,-130.92 961.95,-130.92"/>
</g>
<!-- C&#45;0417&#45;&gt;C&#45;0874 -->
<g id="edge31" class="edge">
<title>C&#45;0417&#45;&gt;C&#45;0874</title>
<path fill="none" stroke="#4d4d4d" d="M1059,-202.08C1059,-202.08 1059,-150.89 1059,-150.89"/>
<polygon fill="#4d4d4d" stroke="#4d4d4d" points="1061.45,-150.89 1059,-143.89 1056.55,-150.89 1061.45,-150.89"/>
</g>
<!-- C&#45;0417&#45;&gt;C&#45;0873 -->
<g id="edge30" class="edge">
<title>C&#45;0417&#45;&gt;C&#45;0873</title>
<path fill="none" stroke="#4d4d4d" d="M1113.71,-216C1171.73,-216 1246,-216 1246,-216 1246,-216 1246,-151.19 1246,-151.19"/>
<polygon fill="#4d4d4d" stroke="#4d4d4d" points="1248.45,-151.19 1246,-144.19 1243.55,-151.19 1248.45,-151.19"/>
</g>
<!-- S&#45;224 -->
<g id="node53" class="node">
<title>S&#45;224</title>
<polygon fill="mediumseagreen" stroke="black" points="1432,-144 1360,-122.5 1432,-101 1504,-122.5 1432,-144"/>
<text text-anchor="middle" x="1432" y="-120" font-family="Arial" font-size="10.00">S&#45;224</text>
</g>
<!-- C&#45;0417&#45;&gt;S&#45;224 -->
<g id="edge26" class="edge">
<title>C&#45;0417&#45;&gt;S&#45;224</title>
<path fill="none" stroke="#4d4d4d" d="M1114.82,-230C1224.32,-230 1426,-230 1426,-230 1426,-230 1426,-149.22 1426,-149.22"/>
<polygon fill="#4d4d4d" stroke="#4d4d4d" points="1428.45,-149.22 1426,-142.22 1423.55,-149.22 1428.45,-149.22"/>
</g>
<!-- R&#45;215&#45;&gt;C&#45;0919 -->
<g id="edge6" class="edge">
<title>R&#45;215&#45;&gt;C&#45;0919</title>
<path fill="none" stroke="#4d4d4d" d="M1130,-1009.58C1130,-1009.58 1130,-959.03 1130,-959.03"/>
<polygon fill="#4d4d4d" stroke="#4d4d4d" points="1132.45,-959.03 1130,-952.03 1127.55,-959.03 1132.45,-959.03"/>
</g>
<!-- S&#45;009 -->
<g id="node52" class="node">
<title>S&#45;009</title>
<polygon fill="mediumseagreen" stroke="black" points="1600,-649 1528,-627.5 1600,-606 1672,-627.5 1600,-649"/>
<text text-anchor="middle" x="1600" y="-625" font-family="Arial" font-size="10.00">S&#45;009</text>
</g>
<!-- S&#45;009&#45;&gt;S&#45;2195 -->
<g id="edge46" class="edge">
<title>S&#45;009&#45;&gt;S&#45;2195</title>
<path fill="none" stroke="#4d4d4d" d="M1600,-605.58C1600,-605.58 1600,-555.03 1600,-555.03"/>
<polygon fill="#4d4d4d" stroke="#4d4d4d" points="1602.45,-555.03 1600,-548.03 1597.55,-555.03 1602.45,-555.03"/>
</g>
<!-- S&#45;010 -->
<g id="node56" class="node">
<title>S&#45;010</title>
<polygon fill="mediumseagreen" stroke="black" points="1780,-548 1708,-526.5 1780,-505 1852,-526.5 1780,-548"/>
<text text-anchor="middle" x="1780" y="-524" font-family="Arial" font-size="10.00">S&#45;010</text>
</g>
<!-- S&#45;009&#45;&gt;S&#45;010 -->
<g id="edge45" class="edge">
<title>S&#45;009&#45;&gt;S&#45;010</title>
<path fill="none" stroke="#4d4d4d" d="M1670.54,-627C1698.89,-627 1725,-627 1725,-627 1725,-627 1725,-538.62 1725,-538.62"/>
<polygon fill="#4d4d4d" stroke="#4d4d4d" points="1727.45,-538.62 1725,-531.62 1722.55,-538.62 1727.45,-538.62"/>
</g>
<!-- S&#45;224&#45;&gt;S&#45;1645 -->
<g id="edge27" class="edge">
<title>S&#45;224&#45;&gt;S&#45;1645</title>
<path fill="none" stroke="#4d4d4d" d="M1432,-100.58C1432,-100.58 1432,-50.03 1432,-50.03"/>
<polygon fill="#4d4d4d" stroke="#4d4d4d" points="1434.45,-50.03 1432,-43.03 1429.55,-50.03 1434.45,-50.03"/>
</g>
<!-- C&#45;0918&#45;&gt;C&#45;0919 -->
<g id="edge58" class="edge">
<title>C&#45;0918&#45;&gt;C&#45;0919</title>
<path fill="none" stroke="blue" stroke-dasharray="5,2" d="M1286,-1111.97C1286,-1063.11 1286,-944 1286,-944 1286,-944 1193.32,-944 1193.32,-944"/>
<polygon fill="blue" stroke="blue" points="1193.32,-941.55 1186.32,-944 1193.32,-946.45 1193.32,-941.55"/>
</g>
<!-- S&#45;1201&#45;&gt;S&#45;1796 -->
<g id="edge53" class="edge">
<title>S&#45;1201&#45;&gt;S&#45;1796</title>
<path fill="none" stroke="#4d4d4d" d="M1172.36,-627C1162.69,-627 1156,-627 1156,-627 1156,-627 1156,-526 1156,-526 1156,-526 1137.53,-526 1137.53,-526"/>
<polygon fill="#4d4d4d" stroke="#4d4d4d" points="1137.53,-523.55 1130.53,-526 1137.53,-528.45 1137.53,-523.55"/>
</g>
<!-- S&#45;1201&#45;&gt;S&#45;2402 -->
<g id="edge55" class="edge">
<title>S&#45;1201&#45;&gt;S&#45;2402</title>
<path fill="none" stroke="#4d4d4d" d="M1241.5,-606.08C1241.5,-606.08 1241.5,-554.89 1241.5,-554.89"/>
<polygon fill="#4d4d4d" stroke="#4d4d4d" points="1243.95,-554.89 1241.5,-547.89 1239.05,-554.89 1243.95,-554.89"/>
</g>
<!-- S&#45;1201&#45;&gt;S&#45;1514 -->
<g id="edge51" class="edge">
<title>S&#45;1201&#45;&gt;S&#45;1514</title>
<path fill="none" stroke="#4d4d4d" d="M1313.55,-627C1363.44,-627 1421.5,-627 1421.5,-627 1421.5,-627 1421.5,-554.81 1421.5,-554.81"/>
<polygon fill="#4d4d4d" stroke="#4d4d4d" points="1423.95,-554.81 1421.5,-547.81 1419.05,-554.81 1423.95,-554.81"/>
</g>
<!-- S&#45;1198&#45;&gt;S&#45;009 -->
<g id="edge44" class="edge">
<title>S&#45;1198&#45;&gt;S&#45;009</title>
<path fill="none" stroke="#4d4d4d" d="M1493.61,-728C1520.59,-728 1545,-728 1545,-728 1545,-728 1545,-639.62 1545,-639.62"/>
<polygon fill="#4d4d4d" stroke="#4d4d4d" points="1547.45,-639.62 1545,-632.62 1542.55,-639.62 1547.45,-639.62"/>
</g>
<!-- C&#45;0477&#45;&gt;C&#45;0261 -->
<g id="edge22" class="edge">
<title>C&#45;0477&#45;&gt;C&#45;0261</title>
<path fill="none" stroke="#4d4d4d" d="M551,-509.37C551,-509.37 551,-449.38 551,-449.38"/>
<polygon fill="#4d4d4d" stroke="#4d4d4d" points="553.45,-449.38 551,-442.38 548.55,-449.38 553.45,-449.38"/>
</g>
<!-- C&#45;0477&#45;&gt;C&#45;0478 -->
<g id="edge32" class="edge">
<title>C&#45;0477&#45;&gt;C&#45;0478</title>
<path fill="none" stroke="#4d4d4d" d="M641,-509.37C641,-509.37 641,-449.38 641,-449.38"/>
<polygon fill="#4d4d4d" stroke="#4d4d4d" points="643.45,-449.38 641,-442.38 638.55,-449.38 643.45,-449.38"/>
</g>
<!-- C&#45;0477&#45;&gt;C&#45;0416 -->
<g id="edge21" class="edge">
<title>C&#45;0477&#45;&gt;C&#45;0416</title>
<path fill="none" stroke="#4d4d4d" d="M668.03,-526C752.17,-526 880,-526 880,-526 880,-526 880,-454.31 880,-454.31"/>
<polygon fill="#4d4d4d" stroke="#4d4d4d" points="882.45,-454.31 880,-447.31 877.55,-454.31 882.45,-454.31"/>
</g>
</g>
</svg>
