<?xml version="1.0" encoding="UTF-8" standalone="no"?>
<!DOCTYPE svg PUBLIC "-//W3C//DTD SVG 1.1//EN"
 "http://www.w3.org/Graphics/SVG/1.1/DTD/svg11.dtd">
<!-- Generated by graphviz version 2.50.0 (0)
 -->
<!-- Title: Grafo_Circuito_111_22_ Pages: 1 -->
<svg width="1216pt" height="1473pt"
 viewBox="0.00 0.00 1216.00 1473.00" xmlns="http://www.w3.org/2000/svg" xmlns:xlink="http://www.w3.org/1999/xlink">
<g id="graph0" class="graph" transform="scale(1 1) rotate(0) translate(4 1469)">
<title>Grafo_Circuito_111_22_</title>
<polygon fill="white" stroke="transparent" points="-4,4 -4,-1469 1212,-1469 1212,4 -4,4"/>
<!-- S&#45;1878 -->
<g id="node1" class="node">
<title>S&#45;1878</title>
<polygon fill="mediumseagreen" stroke="black" points="1131,-346 1059,-324.5 1131,-303 1203,-324.5 1131,-346"/>
<text text-anchor="middle" x="1131" y="-322" font-family="Arial" font-size="10.00">S&#45;1878</text>
</g>
<!-- S&#45;1077 -->
<g id="node33" class="node">
<title>S&#45;1077</title>
<polygon fill="mediumseagreen" stroke="black" points="1086,-245 1014,-223.5 1086,-202 1158,-223.5 1086,-245"/>
<text text-anchor="middle" x="1086" y="-221" font-family="Arial" font-size="10.00">S&#45;1077</text>
</g>
<!-- S&#45;1878&#45;&gt;S&#45;1077 -->
<g id="edge29" class="edge">
<title>S&#45;1878&#45;&gt;S&#45;1077</title>
<path fill="none" stroke="#4d4d4d" d="M1108.5,-309.6C1108.5,-309.6 1108.5,-245.46 1108.5,-245.46"/>
<polygon fill="#4d4d4d" stroke="#4d4d4d" points="1110.95,-245.46 1108.5,-238.46 1106.05,-245.46 1110.95,-245.46"/>
</g>
<!-- S&#45;175 -->
<g id="node2" class="node">
<title>S&#45;175</title>
<polygon fill="mediumseagreen" stroke="black" points="109,-1255 37,-1233.5 109,-1212 181,-1233.5 109,-1255"/>
<text text-anchor="middle" x="109" y="-1231" font-family="Arial" font-size="10.00">S&#45;175</text>
</g>
<!-- C&#45;0490 -->
<g id="node3" class="node">
<title>C&#45;0490</title>
<ellipse fill="mediumseagreen" stroke="black" cx="908" cy="-728.5" rx="72" ry="21.5"/>
<text text-anchor="middle" x="908" y="-726" font-family="Arial" font-size="10.00">C&#45;0490</text>
</g>
<!-- C&#45;0800 -->
<g id="node19" class="node">
<title>C&#45;0800</title>
<ellipse fill="mediumseagreen" stroke="black" cx="665" cy="-627.5" rx="72" ry="21.5"/>
<text text-anchor="middle" x="665" y="-625" font-family="Arial" font-size="10.00">C&#45;0800</text>
</g>
<!-- C&#45;0490&#45;&gt;C&#45;0800 -->
<g id="edge32" class="edge">
<title>C&#45;0490&#45;&gt;C&#45;0800</title>
<path fill="none" stroke="#4d4d4d" d="M845.33,-717.64C845.33,-691.45 845.33,-627 845.33,-627 845.33,-627 744.05,-627 744.05,-627"/>
<polygon fill="#4d4d4d" stroke="#4d4d4d" points="744.05,-624.55 737.05,-627 744.05,-629.45 744.05,-624.55"/>
</g>
<!-- C&#45;0121 -->
<g id="node24" class="node">
<title>C&#45;0121</title>
<ellipse fill="mediumseagreen" stroke="black" cx="959" cy="-627.5" rx="72" ry="21.5"/>
<text text-anchor="middle" x="959" y="-625" font-family="Arial" font-size="10.00">C&#45;0121</text>
</g>
<!-- C&#45;0490&#45;&gt;C&#45;0121 -->
<g id="edge22" class="edge">
<title>C&#45;0490&#45;&gt;C&#45;0121</title>
<path fill="none" stroke="#4d4d4d" d="M933.5,-708.06C933.5,-708.06 933.5,-654.91 933.5,-654.91"/>
<polygon fill="#4d4d4d" stroke="#4d4d4d" points="935.95,-654.91 933.5,-647.91 931.05,-654.91 935.95,-654.91"/>
</g>
<!-- C&#45;0801 -->
<g id="node36" class="node">
<title>C&#45;0801</title>
<ellipse fill="tomato" stroke="black" cx="792" cy="-526.5" rx="72" ry="21.5"/>
<text text-anchor="middle" x="792" y="-524" font-family="Arial" font-size="10.00">C&#45;0801</text>
</g>
<!-- C&#45;0490&#45;&gt;C&#45;0801 -->
<g id="edge31" class="edge">
<title>C&#45;0490&#45;&gt;C&#45;0801</title>
<path fill="none" stroke="#4d4d4d" d="M854.67,-713.97C854.67,-713.97 854.67,-544.33 854.67,-544.33"/>
<polygon fill="#4d4d4d" stroke="#4d4d4d" points="857.12,-544.33 854.67,-537.33 852.22,-544.33 857.12,-544.33"/>
</g>
<!-- S&#45;2430 -->
<g id="node4" class="node">
<title>S&#45;2430</title>
<polygon fill="mediumseagreen" stroke="black" points="162,-649 90,-627.5 162,-606 234,-627.5 162,-649"/>
<text text-anchor="middle" x="162" y="-625" font-family="Arial" font-size="10.00">S&#45;2430</text>
</g>
<!-- C&#45;0287 -->
<g id="node5" class="node">
<title>C&#45;0287</title>
<ellipse fill="tomato" stroke="black" cx="582" cy="-122.5" rx="72" ry="21.5"/>
<text text-anchor="middle" x="582" y="-120" font-family="Arial" font-size="10.00">C&#45;0287</text>
</g>
<!-- ext_circ_111_23_ -->
<g id="node39" class="node">
<title>ext_circ_111_23_</title>
<polygon fill="lightpink" stroke="darkorange" stroke-dasharray="5,2" points="744,-43 600,-43 600,0 744,0 744,-43"/>
<text text-anchor="middle" x="672" y="-24.5" font-family="Arial" font-size="10.00">Circuito:</text>
<text text-anchor="middle" x="672" y="-13.5" font-family="Arial" font-size="10.00">111&#45;23&#45;</text>
</g>
<!-- C&#45;0287&#45;&gt;ext_circ_111_23_ -->
<g id="edge44" class="edge">
<title>C&#45;0287&#45;&gt;ext_circ_111_23_</title>
<path fill="none" stroke="darkorange" stroke-dasharray="5,2" d="M627,-105.37C627,-105.37 627,-50.31 627,-50.31"/>
<polygon fill="darkorange" stroke="darkorange" points="629.45,-50.31 627,-43.31 624.55,-50.31 629.45,-50.31"/>
</g>
<!-- S&#45;2137 -->
<g id="node6" class="node">
<title>S&#45;2137</title>
<polygon fill="mediumseagreen" stroke="black" points="72,-1154 0,-1132.5 72,-1111 144,-1132.5 72,-1154"/>
<text text-anchor="middle" x="72" y="-1130" font-family="Arial" font-size="10.00">S&#45;2137</text>
</g>
<!-- R&#45;178 -->
<g id="node7" class="node">
<title>R&#45;178</title>
<polygon fill="tomato" stroke="black" points="684,-517.59 684,-535.41 641.82,-548 582.18,-548 540,-535.41 540,-517.59 582.18,-505 641.82,-505 684,-517.59"/>
<text text-anchor="middle" x="612" y="-524" font-family="Arial" font-size="10.00">R&#45;178</text>
</g>
<!-- ext_circ_110_26_ -->
<g id="node40" class="node">
<title>ext_circ_110_26_</title>
<polygon fill="lightpink" stroke="darkorange" stroke-dasharray="5,2" points="710,-447 566,-447 566,-404 710,-404 710,-447"/>
<text text-anchor="middle" x="638" y="-428.5" font-family="Arial" font-size="10.00">Circuito:</text>
<text text-anchor="middle" x="638" y="-417.5" font-family="Arial" font-size="10.00">110&#45;26&#45;</text>
</g>
<!-- R&#45;178&#45;&gt;ext_circ_110_26_ -->
<g id="edge43" class="edge">
<title>R&#45;178&#45;&gt;ext_circ_110_26_</title>
<path fill="none" stroke="darkorange" stroke-dasharray="5,2" d="M625,-504.58C625,-504.58 625,-454.03 625,-454.03"/>
<polygon fill="darkorange" stroke="darkorange" points="627.45,-454.03 625,-447.03 622.55,-454.03 627.45,-454.03"/>
</g>
<!-- C&#45;1132 -->
<g id="node8" class="node">
<title>C&#45;1132</title>
<ellipse fill="mediumseagreen" stroke="black" cx="831" cy="-425.5" rx="72" ry="21.5"/>
<text text-anchor="middle" x="831" y="-423" font-family="Arial" font-size="10.00">C&#45;1132</text>
</g>
<!-- R&#45;284 -->
<g id="node31" class="node">
<title>R&#45;284</title>
<polygon fill="tomato" stroke="black" points="843,-315.59 843,-333.41 800.82,-346 741.18,-346 699,-333.41 699,-315.59 741.18,-303 800.82,-303 843,-315.59"/>
<text text-anchor="middle" x="771" y="-322" font-family="Arial" font-size="10.00">R&#45;284</text>
</g>
<!-- C&#45;1132&#45;&gt;R&#45;284 -->
<g id="edge26" class="edge">
<title>C&#45;1132&#45;&gt;R&#45;284</title>
<path fill="none" stroke="#4d4d4d" d="M801,-405.55C801,-405.55 801,-353.16 801,-353.16"/>
<polygon fill="#4d4d4d" stroke="#4d4d4d" points="803.45,-353.16 801,-346.16 798.55,-353.16 803.45,-353.16"/>
</g>
<!-- C&#45;0194 -->
<g id="node9" class="node">
<title>C&#45;0194</title>
<ellipse fill="tomato" stroke="black" cx="951" cy="-324.5" rx="72" ry="21.5"/>
<text text-anchor="middle" x="951" y="-322" font-family="Arial" font-size="10.00">C&#45;0194</text>
</g>
<!-- ext_circ_114_24_ -->
<g id="node38" class="node">
<title>ext_circ_114_24_</title>
<polygon fill="lightpink" stroke="darkorange" stroke-dasharray="5,2" points="933,-245 789,-245 789,-202 933,-202 933,-245"/>
<text text-anchor="middle" x="861" y="-226.5" font-family="Arial" font-size="10.00">Circuito:</text>
<text text-anchor="middle" x="861" y="-215.5" font-family="Arial" font-size="10.00">114&#45;24&#45;</text>
</g>
<!-- C&#45;0194&#45;&gt;ext_circ_114_24_ -->
<g id="edge39" class="edge">
<title>C&#45;0194&#45;&gt;ext_circ_114_24_</title>
<path fill="none" stroke="darkorange" stroke-dasharray="5,2" d="M906,-307.37C906,-307.37 906,-252.31 906,-252.31"/>
<polygon fill="darkorange" stroke="darkorange" points="908.45,-252.31 906,-245.31 903.55,-252.31 908.45,-252.31"/>
</g>
<!-- C&#45;0076 -->
<g id="node10" class="node">
<title>C&#45;0076</title>
<ellipse fill="mediumseagreen" stroke="black" cx="469" cy="-1334.5" rx="72" ry="21.5"/>
<text text-anchor="middle" x="469" y="-1332" font-family="Arial" font-size="10.00">C&#45;0076</text>
</g>
<!-- C&#45;0076&#45;&gt;S&#45;175 -->
<g id="edge36" class="edge">
<title>C&#45;0076&#45;&gt;S&#45;175</title>
<path fill="none" stroke="#4d4d4d" d="M400.01,-1341C295.48,-1341 109,-1341 109,-1341 109,-1341 109,-1262.25 109,-1262.25"/>
<polygon fill="#4d4d4d" stroke="#4d4d4d" points="111.45,-1262.25 109,-1255.25 106.55,-1262.25 111.45,-1262.25"/>
</g>
<!-- S&#45;168 -->
<g id="node15" class="node">
<title>S&#45;168</title>
<polygon fill="mediumseagreen" stroke="black" points="289,-1255 217,-1233.5 289,-1212 361,-1233.5 289,-1255"/>
<text text-anchor="middle" x="289" y="-1231" font-family="Arial" font-size="10.00">S&#45;168</text>
</g>
<!-- C&#45;0076&#45;&gt;S&#45;168 -->
<g id="edge2" class="edge">
<title>C&#45;0076&#45;&gt;S&#45;168</title>
<path fill="none" stroke="#4d4d4d" d="M401.46,-1327C350.39,-1327 289,-1327 289,-1327 289,-1327 289,-1262.19 289,-1262.19"/>
<polygon fill="#4d4d4d" stroke="#4d4d4d" points="291.45,-1262.19 289,-1255.19 286.55,-1262.19 291.45,-1262.19"/>
</g>
<!-- C&#45;0924 -->
<g id="node18" class="node">
<title>C&#45;0924</title>
<ellipse fill="tomato" stroke="black" cx="469" cy="-1233.5" rx="72" ry="21.5"/>
<text text-anchor="middle" x="469" y="-1231" font-family="Arial" font-size="10.00">C&#45;0924</text>
</g>
<!-- C&#45;0076&#45;&gt;C&#45;0924 -->
<g id="edge13" class="edge">
<title>C&#45;0076&#45;&gt;C&#45;0924</title>
<path fill="none" stroke="#4d4d4d" d="M469,-1312.58C469,-1312.58 469,-1262.03 469,-1262.03"/>
<polygon fill="#4d4d4d" stroke="#4d4d4d" points="471.45,-1262.03 469,-1255.03 466.55,-1262.03 471.45,-1262.03"/>
</g>
<!-- C&#45;0923 -->
<g id="node20" class="node">
<title>C&#45;0923</title>
<ellipse fill="mediumseagreen" stroke="black" cx="649" cy="-1233.5" rx="72" ry="21.5"/>
<text text-anchor="middle" x="649" y="-1231" font-family="Arial" font-size="10.00">C&#45;0923</text>
</g>
<!-- C&#45;0076&#45;&gt;C&#45;0923 -->
<g id="edge14" class="edge">
<title>C&#45;0076&#45;&gt;C&#45;0923</title>
<path fill="none" stroke="#4d4d4d" d="M536.54,-1327C587.61,-1327 649,-1327 649,-1327 649,-1327 649,-1262.19 649,-1262.19"/>
<polygon fill="#4d4d4d" stroke="#4d4d4d" points="651.45,-1262.19 649,-1255.19 646.55,-1262.19 651.45,-1262.19"/>
</g>
<!-- S&#45;1758 -->
<g id="node35" class="node">
<title>S&#45;1758</title>
<polygon fill="mediumseagreen" stroke="black" points="829,-1255 757,-1233.5 829,-1212 901,-1233.5 829,-1255"/>
<text text-anchor="middle" x="829" y="-1231" font-family="Arial" font-size="10.00">S&#45;1758</text>
</g>
<!-- C&#45;0076&#45;&gt;S&#45;1758 -->
<g id="edge12" class="edge">
<title>C&#45;0076&#45;&gt;S&#45;1758</title>
<path fill="none" stroke="#4d4d4d" d="M537.99,-1341C642.52,-1341 829,-1341 829,-1341 829,-1341 829,-1262.25 829,-1262.25"/>
<polygon fill="#4d4d4d" stroke="#4d4d4d" points="831.45,-1262.25 829,-1255.25 826.55,-1262.25 831.45,-1262.25"/>
</g>
<!-- C&#45;0492 -->
<g id="node11" class="node">
<title>C&#45;0492</title>
<ellipse fill="tomato" stroke="black" cx="596" cy="-930.5" rx="72" ry="21.5"/>
<text text-anchor="middle" x="596" y="-928" font-family="Arial" font-size="10.00">C&#45;0492</text>
</g>
<!-- C&#45;0492&#45;&gt;C&#45;0490 -->
<g id="edge38" class="edge">
<title>C&#45;0492&#45;&gt;C&#45;0490</title>
<path fill="none" stroke="blue" stroke-dasharray="5,2" d="M630.5,-911.45C630.5,-861.04 630.5,-728 630.5,-728 630.5,-728 828.81,-728 828.81,-728"/>
<polygon fill="blue" stroke="blue" points="828.81,-730.45 835.81,-728 828.81,-725.55 828.81,-730.45"/>
</g>
<!-- S&#45;2183 -->
<g id="node12" class="node">
<title>S&#45;2183</title>
<polygon fill="mediumseagreen" stroke="black" points="162,-750 90,-728.5 162,-707 234,-728.5 162,-750"/>
<text text-anchor="middle" x="162" y="-726" font-family="Arial" font-size="10.00">S&#45;2183</text>
</g>
<!-- S&#45;2183&#45;&gt;S&#45;2430 -->
<g id="edge9" class="edge">
<title>S&#45;2183&#45;&gt;S&#45;2430</title>
<path fill="none" stroke="#4d4d4d" d="M162,-706.58C162,-706.58 162,-656.03 162,-656.03"/>
<polygon fill="#4d4d4d" stroke="#4d4d4d" points="164.45,-656.03 162,-649.03 159.55,-656.03 164.45,-656.03"/>
</g>
<!-- S&#45;1149 -->
<g id="node13" class="node">
<title>S&#45;1149</title>
<polygon fill="mediumseagreen" stroke="black" points="252,-1154 180,-1132.5 252,-1111 324,-1132.5 252,-1154"/>
<text text-anchor="middle" x="252" y="-1130" font-family="Arial" font-size="10.00">S&#45;1149</text>
</g>
<!-- S&#45;173 -->
<g id="node14" class="node">
<title>S&#45;173</title>
<polygon fill="mediumseagreen" stroke="black" points="776,-952 704,-930.5 776,-909 848,-930.5 776,-952"/>
<text text-anchor="middle" x="776" y="-928" font-family="Arial" font-size="10.00">S&#45;173</text>
</g>
<!-- S&#45;168&#45;&gt;S&#45;2137 -->
<g id="edge10" class="edge">
<title>S&#45;168&#45;&gt;S&#45;2137</title>
<path fill="none" stroke="#4d4d4d" d="M252.67,-1222.79C252.67,-1207.97 252.67,-1183 252.67,-1183 252.67,-1183 90.5,-1183 90.5,-1183 90.5,-1183 90.5,-1155.48 90.5,-1155.48"/>
<polygon fill="#4d4d4d" stroke="#4d4d4d" points="92.95,-1155.48 90.5,-1148.48 88.05,-1155.48 92.95,-1155.48"/>
</g>
<!-- S&#45;168&#45;&gt;S&#45;1149 -->
<g id="edge11" class="edge">
<title>S&#45;168&#45;&gt;S&#45;1149</title>
<path fill="none" stroke="#4d4d4d" d="M288.33,-1212.08C288.33,-1212.08 288.33,-1150.32 288.33,-1150.32"/>
<polygon fill="#4d4d4d" stroke="#4d4d4d" points="290.78,-1150.32 288.33,-1143.32 285.88,-1150.32 290.78,-1150.32"/>
</g>
<!-- S&#45;169 -->
<g id="node32" class="node">
<title>S&#45;169</title>
<polygon fill="mediumseagreen" stroke="black" points="432,-1154 360,-1132.5 432,-1111 504,-1132.5 432,-1154"/>
<text text-anchor="middle" x="432" y="-1130" font-family="Arial" font-size="10.00">S&#45;169</text>
</g>
<!-- S&#45;168&#45;&gt;S&#45;169 -->
<g id="edge3" class="edge">
<title>S&#45;168&#45;&gt;S&#45;169</title>
<path fill="none" stroke="#4d4d4d" d="M359.61,-1233C369.84,-1233 377,-1233 377,-1233 377,-1233 377,-1144.62 377,-1144.62"/>
<polygon fill="#4d4d4d" stroke="#4d4d4d" points="379.45,-1144.62 377,-1137.62 374.55,-1144.62 379.45,-1144.62"/>
</g>
<!-- S&#45;1150 -->
<g id="node16" class="node">
<title>S&#45;1150</title>
<polygon fill="mediumseagreen" stroke="black" points="342,-1053 270,-1031.5 342,-1010 414,-1031.5 342,-1053"/>
<text text-anchor="middle" x="342" y="-1029" font-family="Arial" font-size="10.00">S&#45;1150</text>
</g>
<!-- S&#45;1749 -->
<g id="node25" class="node">
<title>S&#45;1749</title>
<polygon fill="mediumseagreen" stroke="black" points="342,-952 270,-930.5 342,-909 414,-930.5 342,-952"/>
<text text-anchor="middle" x="342" y="-928" font-family="Arial" font-size="10.00">S&#45;1749</text>
</g>
<!-- S&#45;1150&#45;&gt;S&#45;1749 -->
<g id="edge5" class="edge">
<title>S&#45;1150&#45;&gt;S&#45;1749</title>
<path fill="none" stroke="#4d4d4d" d="M342,-1009.58C342,-1009.58 342,-959.03 342,-959.03"/>
<polygon fill="#4d4d4d" stroke="#4d4d4d" points="344.45,-959.03 342,-952.03 339.55,-959.03 344.45,-959.03"/>
</g>
<!-- R&#45;029 -->
<g id="node17" class="node">
<title>R&#45;029</title>
<polygon fill="mediumseagreen" stroke="black" points="1012,-820.59 1012,-838.41 969.82,-851 910.18,-851 868,-838.41 868,-820.59 910.18,-808 969.82,-808 1012,-820.59"/>
<text text-anchor="middle" x="940" y="-827" font-family="Arial" font-size="10.00">R&#45;029</text>
</g>
<!-- R&#45;029&#45;&gt;C&#45;0490 -->
<g id="edge21" class="edge">
<title>R&#45;029&#45;&gt;C&#45;0490</title>
<path fill="none" stroke="#4d4d4d" d="M924,-807.58C924,-807.58 924,-756.68 924,-756.68"/>
<polygon fill="#4d4d4d" stroke="#4d4d4d" points="926.45,-756.68 924,-749.68 921.55,-756.68 926.45,-756.68"/>
</g>
<!-- C&#45;0925 -->
<g id="node22" class="node">
<title>C&#45;0925</title>
<ellipse fill="mediumseagreen" stroke="black" cx="686" cy="-1031.5" rx="72" ry="21.5"/>
<text text-anchor="middle" x="686" y="-1029" font-family="Arial" font-size="10.00">C&#45;0925</text>
</g>
<!-- C&#45;0924&#45;&gt;C&#45;0925 -->
<g id="edge37" class="edge">
<title>C&#45;0924&#45;&gt;C&#45;0925</title>
<path fill="none" stroke="blue" stroke-dasharray="5,2" d="M532.5,-1223.26C532.5,-1183.04 532.5,-1038 532.5,-1038 532.5,-1038 610.33,-1038 610.33,-1038"/>
<polygon fill="blue" stroke="blue" points="610.33,-1040.45 617.33,-1038 610.33,-1035.55 610.33,-1040.45"/>
</g>
<!-- C&#45;0800&#45;&gt;R&#45;178 -->
<g id="edge33" class="edge">
<title>C&#45;0800&#45;&gt;R&#45;178</title>
<path fill="none" stroke="#4d4d4d" d="M638.5,-607.06C638.5,-607.06 638.5,-555.31 638.5,-555.31"/>
<polygon fill="#4d4d4d" stroke="#4d4d4d" points="640.95,-555.31 638.5,-548.31 636.05,-555.31 640.95,-555.31"/>
</g>
<!-- R&#45;217 -->
<g id="node21" class="node">
<title>R&#45;217</title>
<polygon fill="mediumseagreen" stroke="black" points="758,-1123.59 758,-1141.41 715.82,-1154 656.18,-1154 614,-1141.41 614,-1123.59 656.18,-1111 715.82,-1111 758,-1123.59"/>
<text text-anchor="middle" x="686" y="-1130" font-family="Arial" font-size="10.00">R&#45;217</text>
</g>
<!-- C&#45;0923&#45;&gt;R&#45;217 -->
<g id="edge15" class="edge">
<title>C&#45;0923&#45;&gt;R&#45;217</title>
<path fill="none" stroke="#4d4d4d" d="M667.5,-1212.57C667.5,-1212.57 667.5,-1161.1 667.5,-1161.1"/>
<polygon fill="#4d4d4d" stroke="#4d4d4d" points="669.95,-1161.1 667.5,-1154.1 665.05,-1161.1 669.95,-1161.1"/>
</g>
<!-- R&#45;217&#45;&gt;C&#45;0925 -->
<g id="edge16" class="edge">
<title>R&#45;217&#45;&gt;C&#45;0925</title>
<path fill="none" stroke="#4d4d4d" d="M686,-1110.58C686,-1110.58 686,-1060.03 686,-1060.03"/>
<polygon fill="#4d4d4d" stroke="#4d4d4d" points="688.45,-1060.03 686,-1053.03 683.55,-1060.03 688.45,-1060.03"/>
</g>
<!-- C&#45;0925&#45;&gt;C&#45;0287 -->
<g id="edge34" class="edge">
<title>C&#45;0925&#45;&gt;C&#45;0287</title>
<path fill="none" stroke="#4d4d4d" d="M618.24,-1024C571.22,-1024 517,-1024 517,-1024 517,-1024 517,-139.01 517,-139.01"/>
<polygon fill="#4d4d4d" stroke="#4d4d4d" points="519.45,-139.01 517,-132.01 514.55,-139.01 519.45,-139.01"/>
</g>
<!-- C&#45;0925&#45;&gt;C&#45;0492 -->
<g id="edge18" class="edge">
<title>C&#45;0925&#45;&gt;C&#45;0492</title>
<path fill="none" stroke="#4d4d4d" d="M641,-1014.37C641,-1014.37 641,-954.38 641,-954.38"/>
<polygon fill="#4d4d4d" stroke="#4d4d4d" points="643.45,-954.38 641,-947.38 638.55,-954.38 643.45,-954.38"/>
</g>
<!-- C&#45;0925&#45;&gt;S&#45;173 -->
<g id="edge17" class="edge">
<title>C&#45;0925&#45;&gt;S&#45;173</title>
<path fill="none" stroke="#4d4d4d" d="M731,-1014.37C731,-1014.37 731,-945.78 731,-945.78"/>
<polygon fill="#4d4d4d" stroke="#4d4d4d" points="733.45,-945.78 731,-938.78 728.55,-945.78 733.45,-945.78"/>
</g>
<!-- C&#45;0491 -->
<g id="node26" class="node">
<title>C&#45;0491</title>
<ellipse fill="mediumseagreen" stroke="black" cx="956" cy="-930.5" rx="72" ry="21.5"/>
<text text-anchor="middle" x="956" y="-928" font-family="Arial" font-size="10.00">C&#45;0491</text>
</g>
<!-- C&#45;0925&#45;&gt;C&#45;0491 -->
<g id="edge19" class="edge">
<title>C&#45;0925&#45;&gt;C&#45;0491</title>
<path fill="none" stroke="#4d4d4d" d="M753.62,-1024C813.84,-1024 892.5,-1024 892.5,-1024 892.5,-1024 892.5,-947.86 892.5,-947.86"/>
<polygon fill="#4d4d4d" stroke="#4d4d4d" points="894.95,-947.86 892.5,-940.86 890.05,-947.86 894.95,-947.86"/>
</g>
<!-- S&#45;1829 -->
<g id="node34" class="node">
<title>S&#45;1829</title>
<polygon fill="mediumseagreen" stroke="black" points="1136,-952 1064,-930.5 1136,-909 1208,-930.5 1136,-952"/>
<text text-anchor="middle" x="1136" y="-928" font-family="Arial" font-size="10.00">S&#45;1829</text>
</g>
<!-- C&#45;0925&#45;&gt;S&#45;1829 -->
<g id="edge35" class="edge">
<title>C&#45;0925&#45;&gt;S&#45;1829</title>
<path fill="none" stroke="#4d4d4d" d="M754.84,-1038C880.89,-1038 1136,-1038 1136,-1038 1136,-1038 1136,-959.25 1136,-959.25"/>
<polygon fill="#4d4d4d" stroke="#4d4d4d" points="1138.45,-959.25 1136,-952.25 1133.55,-959.25 1138.45,-959.25"/>
</g>
<!-- 111&#45;22&#45; -->
<g id="node23" class="node">
<title>111&#45;22&#45;</title>
<polygon fill="gold" stroke="black" points="541,-1430.59 541,-1448.41 498.82,-1461 439.18,-1461 397,-1448.41 397,-1430.59 439.18,-1418 498.82,-1418 541,-1430.59"/>
<polygon fill="none" stroke="black" points="545,-1427.61 545,-1451.39 499.41,-1465 438.59,-1465 393,-1451.39 393,-1427.61 438.59,-1414 499.41,-1414 545,-1427.61"/>
<text text-anchor="middle" x="469" y="-1437" font-family="Arial" font-size="10.00">111&#45;22&#45;</text>
</g>
<!-- 111&#45;22&#45;&#45;&gt;C&#45;0076 -->
<g id="edge1" class="edge">
<title>111&#45;22&#45;&#45;&gt;C&#45;0076</title>
<path fill="none" stroke="#4d4d4d" d="M469,-1413.81C469,-1413.81 469,-1363.03 469,-1363.03"/>
<polygon fill="#4d4d4d" stroke="#4d4d4d" points="471.45,-1363.03 469,-1356.03 466.55,-1363.03 471.45,-1363.03"/>
</g>
<!-- S&#45;1768 -->
<g id="node30" class="node">
<title>S&#45;1768</title>
<polygon fill="mediumseagreen" stroke="black" points="972,-548 900,-526.5 972,-505 1044,-526.5 972,-548"/>
<text text-anchor="middle" x="972" y="-524" font-family="Arial" font-size="10.00">S&#45;1768</text>
</g>
<!-- C&#45;0121&#45;&gt;S&#45;1768 -->
<g id="edge23" class="edge">
<title>C&#45;0121&#45;&gt;S&#45;1768</title>
<path fill="none" stroke="#4d4d4d" d="M965.5,-606.08C965.5,-606.08 965.5,-553.18 965.5,-553.18"/>
<polygon fill="#4d4d4d" stroke="#4d4d4d" points="967.95,-553.18 965.5,-546.18 963.05,-553.18 967.95,-553.18"/>
</g>
<!-- S&#45;170 -->
<g id="node27" class="node">
<title>S&#45;170</title>
<polygon fill="mediumseagreen" stroke="black" points="342,-851 270,-829.5 342,-808 414,-829.5 342,-851"/>
<text text-anchor="middle" x="342" y="-827" font-family="Arial" font-size="10.00">S&#45;170</text>
</g>
<!-- S&#45;1749&#45;&gt;S&#45;170 -->
<g id="edge6" class="edge">
<title>S&#45;1749&#45;&gt;S&#45;170</title>
<path fill="none" stroke="#4d4d4d" d="M342,-908.58C342,-908.58 342,-858.03 342,-858.03"/>
<polygon fill="#4d4d4d" stroke="#4d4d4d" points="344.45,-858.03 342,-851.03 339.55,-858.03 344.45,-858.03"/>
</g>
<!-- C&#45;0491&#45;&gt;R&#45;029 -->
<g id="edge20" class="edge">
<title>C&#45;0491&#45;&gt;R&#45;029</title>
<path fill="none" stroke="#4d4d4d" d="M948,-909.08C948,-909.08 948,-858.24 948,-858.24"/>
<polygon fill="#4d4d4d" stroke="#4d4d4d" points="950.45,-858.24 948,-851.24 945.55,-858.24 950.45,-858.24"/>
</g>
<!-- S&#45;170&#45;&gt;S&#45;2183 -->
<g id="edge8" class="edge">
<title>S&#45;170&#45;&gt;S&#45;2183</title>
<path fill="none" stroke="#4d4d4d" d="M271.34,-829C238.67,-829 207,-829 207,-829 207,-829 207,-743.72 207,-743.72"/>
<polygon fill="#4d4d4d" stroke="#4d4d4d" points="209.45,-743.72 207,-736.72 204.55,-743.72 209.45,-743.72"/>
</g>
<!-- S&#45;2091 -->
<g id="node29" class="node">
<title>S&#45;2091</title>
<polygon fill="mediumseagreen" stroke="black" points="342,-750 270,-728.5 342,-707 414,-728.5 342,-750"/>
<text text-anchor="middle" x="342" y="-726" font-family="Arial" font-size="10.00">S&#45;2091</text>
</g>
<!-- S&#45;170&#45;&gt;S&#45;2091 -->
<g id="edge7" class="edge">
<title>S&#45;170&#45;&gt;S&#45;2091</title>
<path fill="none" stroke="#4d4d4d" d="M342,-807.58C342,-807.58 342,-757.03 342,-757.03"/>
<polygon fill="#4d4d4d" stroke="#4d4d4d" points="344.45,-757.03 342,-750.03 339.55,-757.03 344.45,-757.03"/>
</g>
<!-- S&#45;1930 -->
<g id="node28" class="node">
<title>S&#45;1930</title>
<polygon fill="mediumseagreen" stroke="black" points="1105,-447 1033,-425.5 1105,-404 1177,-425.5 1105,-447"/>
<text text-anchor="middle" x="1105" y="-423" font-family="Arial" font-size="10.00">S&#45;1930</text>
</g>
<!-- S&#45;1930&#45;&gt;S&#45;1878 -->
<g id="edge28" class="edge">
<title>S&#45;1930&#45;&gt;S&#45;1878</title>
<path fill="none" stroke="#4d4d4d" d="M1118,-407.44C1118,-407.44 1118,-349.4 1118,-349.4"/>
<polygon fill="#4d4d4d" stroke="#4d4d4d" points="1120.45,-349.4 1118,-342.4 1115.55,-349.4 1120.45,-349.4"/>
</g>
<!-- S&#45;1768&#45;&gt;C&#45;1132 -->
<g id="edge25" class="edge">
<title>S&#45;1768&#45;&gt;C&#45;1132</title>
<path fill="none" stroke="#4d4d4d" d="M901.61,-526C896.62,-526 893.5,-526 893.5,-526 893.5,-526 893.5,-443.26 893.5,-443.26"/>
<polygon fill="#4d4d4d" stroke="#4d4d4d" points="895.95,-443.26 893.5,-436.26 891.05,-443.26 895.95,-443.26"/>
</g>
<!-- S&#45;1768&#45;&gt;C&#45;0194 -->
<g id="edge24" class="edge">
<title>S&#45;1768&#45;&gt;C&#45;0194</title>
<path fill="none" stroke="#4d4d4d" d="M963,-507.5C963,-507.5 963,-352.71 963,-352.71"/>
<polygon fill="#4d4d4d" stroke="#4d4d4d" points="965.45,-352.71 963,-345.71 960.55,-352.71 965.45,-352.71"/>
</g>
<!-- S&#45;1768&#45;&gt;S&#45;1930 -->
<g id="edge27" class="edge">
<title>S&#45;1768&#45;&gt;S&#45;1930</title>
<path fill="none" stroke="#4d4d4d" d="M1038.5,-524.75C1038.5,-524.75 1038.5,-434.3 1038.5,-434.3"/>
<polygon fill="#4d4d4d" stroke="#4d4d4d" points="1040.95,-434.3 1038.5,-427.3 1036.05,-434.3 1040.95,-434.3"/>
</g>
<!-- R&#45;284&#45;&gt;ext_circ_114_24_ -->
<g id="edge40" class="edge">
<title>R&#45;284&#45;&gt;ext_circ_114_24_</title>
<path fill="none" stroke="darkorange" stroke-dasharray="5,2" d="M816,-307.37C816,-307.37 816,-252.31 816,-252.31"/>
<polygon fill="darkorange" stroke="darkorange" points="818.45,-252.31 816,-245.31 813.55,-252.31 818.45,-252.31"/>
</g>
<!-- S&#45;169&#45;&gt;S&#45;1150 -->
<g id="edge4" class="edge">
<title>S&#45;169&#45;&gt;S&#45;1150</title>
<path fill="none" stroke="#4d4d4d" d="M387,-1124.23C387,-1124.23 387,-1046.6 387,-1046.6"/>
<polygon fill="#4d4d4d" stroke="#4d4d4d" points="389.45,-1046.6 387,-1039.6 384.55,-1046.6 389.45,-1046.6"/>
</g>
<!-- C&#45;0001 -->
<g id="node37" class="node">
<title>C&#45;0001</title>
<ellipse fill="tomato" stroke="black" cx="819" cy="-122.5" rx="72" ry="21.5"/>
<text text-anchor="middle" x="819" y="-120" font-family="Arial" font-size="10.00">C&#45;0001</text>
</g>
<!-- S&#45;1077&#45;&gt;C&#45;0001 -->
<g id="edge30" class="edge">
<title>S&#45;1077&#45;&gt;C&#45;0001</title>
<path fill="none" stroke="#4d4d4d" d="M1086,-201.97C1086,-172.18 1086,-122 1086,-122 1086,-122 898.25,-122 898.25,-122"/>
<polygon fill="#4d4d4d" stroke="#4d4d4d" points="898.25,-119.55 891.25,-122 898.25,-124.45 898.25,-119.55"/>
</g>
<!-- C&#45;0801&#45;&gt;ext_circ_110_26_ -->
<g id="edge42" class="edge">
<title>C&#45;0801&#45;&gt;ext_circ_110_26_</title>
<path fill="none" stroke="darkorange" stroke-dasharray="5,2" d="M720,-526C706.75,-526 697,-526 697,-526 697,-526 697,-454.31 697,-454.31"/>
<polygon fill="darkorange" stroke="darkorange" points="699.45,-454.31 697,-447.31 694.55,-454.31 699.45,-454.31"/>
</g>
<!-- C&#45;0001&#45;&gt;ext_circ_111_23_ -->
<g id="edge41" class="edge">
<title>C&#45;0001&#45;&gt;ext_circ_111_23_</title>
<path fill="none" stroke="darkorange" stroke-dasharray="5,2" d="M746.86,-122C732.38,-122 721.5,-122 721.5,-122 721.5,-122 721.5,-50.31 721.5,-50.31"/>
<polygon fill="darkorange" stroke="darkorange" points="723.95,-50.31 721.5,-43.31 719.05,-50.31 723.95,-50.31"/>
</g>
</g>
</svg>
