<?xml version="1.0" encoding="UTF-8" standalone="no"?>
<!DOCTYPE svg PUBLIC "-//W3C//DTD SVG 1.1//EN"
 "http://www.w3.org/Graphics/SVG/1.1/DTD/svg11.dtd">
<!-- Generated by graphviz version 2.50.0 (0)
 -->
<!-- Title: Grafo_Circuito_109_29_ Pages: 1 -->
<svg width="2197pt" height="1368pt"
 viewBox="0.00 0.00 2197.00 1368.00" xmlns="http://www.w3.org/2000/svg" xmlns:xlink="http://www.w3.org/1999/xlink">
<g id="graph0" class="graph" transform="scale(1 1) rotate(0) translate(4 1364)">
<title>Grafo_Circuito_109_29_</title>
<polygon fill="white" stroke="transparent" points="-4,4 -4,-1364 2193,-1364 2193,4 -4,4"/>
<!-- C&#45;0305 -->
<g id="node1" class="node">
<title>C&#45;0305</title>
<ellipse fill="mediumseagreen" stroke="black" cx="1048.5" cy="-582" rx="68.5" ry="18"/>
<text text-anchor="middle" x="1048.5" y="-580.1" font-family="Helvetica,sans-Serif" font-size="8.00">C&#45;0305</text>
</g>
<!-- C&#45;0031 -->
<g id="node15" class="node">
<title>C&#45;0031</title>
<ellipse fill="mediumseagreen" stroke="black" cx="1014.5" cy="-488" rx="68.5" ry="18"/>
<text text-anchor="middle" x="1014.5" y="-486.1" font-family="Helvetica,sans-Serif" font-size="8.00">C&#45;0031</text>
</g>
<!-- C&#45;0305&#45;&gt;C&#45;0031 -->
<g id="edge14" class="edge">
<title>C&#45;0305&#45;&gt;C&#45;0031</title>
<path fill="none" stroke="dimgray" stroke-width="0.8" d="M1048.67,-563.88C1048.67,-563.88 1048.67,-510.88 1048.67,-510.88"/>
<polygon fill="dimgray" stroke="dimgray" stroke-width="0.8" points="1051.12,-510.88 1048.67,-503.88 1046.22,-510.88 1051.12,-510.88"/>
</g>
<!-- S&#45;1273 -->
<g id="node21" class="node">
<title>S&#45;1273</title>
<polygon fill="mediumseagreen" stroke="black" points="1187.5,-506 1119,-488 1187.5,-470 1256,-488 1187.5,-506"/>
<text text-anchor="middle" x="1187.5" y="-486.1" font-family="Helvetica,sans-Serif" font-size="8.00">S&#45;1273</text>
</g>
<!-- C&#45;0305&#45;&gt;S&#45;1273 -->
<g id="edge26" class="edge">
<title>C&#45;0305&#45;&gt;S&#45;1273</title>
<path fill="none" stroke="dimgray" stroke-width="0.8" d="M1117.01,-582C1128.08,-582 1136,-582 1136,-582 1136,-582 1136,-499.53 1136,-499.53"/>
<polygon fill="dimgray" stroke="dimgray" stroke-width="0.8" points="1138.45,-499.53 1136,-492.53 1133.55,-499.53 1138.45,-499.53"/>
</g>
<!-- S&#45;1469 -->
<g id="node25" class="node">
<title>S&#45;1469</title>
<polygon fill="mediumseagreen" stroke="black" points="841.5,-506 773,-488 841.5,-470 910,-488 841.5,-506"/>
<text text-anchor="middle" x="841.5" y="-486.1" font-family="Helvetica,sans-Serif" font-size="8.00">S&#45;1469</text>
</g>
<!-- C&#45;0305&#45;&gt;S&#45;1469 -->
<g id="edge13" class="edge">
<title>C&#45;0305&#45;&gt;S&#45;1469</title>
<path fill="none" stroke="dimgray" stroke-width="0.8" d="M1014.33,-566.35C1014.33,-552.68 1014.33,-535 1014.33,-535 1014.33,-535 858.5,-535 858.5,-535 858.5,-535 858.5,-508.59 858.5,-508.59"/>
<polygon fill="dimgray" stroke="dimgray" stroke-width="0.8" points="860.95,-508.59 858.5,-501.59 856.05,-508.59 860.95,-508.59"/>
</g>
<!-- C&#45;0612 -->
<g id="node2" class="node">
<title>C&#45;0612</title>
<ellipse fill="tomato" stroke="black" cx="1221.5" cy="-582" rx="68.5" ry="18"/>
<text text-anchor="middle" x="1221.5" y="-580.1" font-family="Helvetica,sans-Serif" font-size="8.00">C&#45;0612</text>
</g>
<!-- C&#45;0613 -->
<g id="node23" class="node">
<title>C&#45;0613</title>
<ellipse fill="mediumseagreen" stroke="black" cx="1601.5" cy="-394" rx="68.5" ry="18"/>
<text text-anchor="middle" x="1601.5" y="-392.1" font-family="Helvetica,sans-Serif" font-size="8.00">C&#45;0613</text>
</g>
<!-- C&#45;0612&#45;&gt;C&#45;0613 -->
<g id="edge46" class="edge">
<title>C&#45;0612&#45;&gt;C&#45;0613</title>
<path fill="none" stroke="blue" stroke-width="0.8" stroke-dasharray="5,2" d="M1273,-569.95C1273,-528.46 1273,-394 1273,-394 1273,-394 1525.64,-394 1525.64,-394"/>
<polygon fill="blue" stroke="blue" stroke-width="0.8" points="1525.64,-396.45 1532.64,-394 1525.64,-391.55 1525.64,-396.45"/>
</g>
<!-- C&#45;0061 -->
<g id="node3" class="node">
<title>C&#45;0061</title>
<ellipse fill="mediumseagreen" stroke="black" cx="1947.5" cy="-206" rx="68.5" ry="18"/>
<text text-anchor="middle" x="1947.5" y="-204.1" font-family="Helvetica,sans-Serif" font-size="8.00">C&#45;0061</text>
</g>
<!-- R&#45;003 -->
<g id="node20" class="node">
<title>R&#45;003</title>
<polygon fill="mediumseagreen" stroke="black" points="2016,-104.54 2016,-119.46 1975.87,-130 1919.13,-130 1879,-119.46 1879,-104.54 1919.13,-94 1975.87,-94 2016,-104.54"/>
<text text-anchor="middle" x="1947.5" y="-110.1" font-family="Helvetica,sans-Serif" font-size="8.00">R&#45;003</text>
</g>
<!-- C&#45;0061&#45;&gt;R&#45;003 -->
<g id="edge35" class="edge">
<title>C&#45;0061&#45;&gt;R&#45;003</title>
<path fill="none" stroke="dimgray" stroke-width="0.8" d="M1947.5,-187.88C1947.5,-187.88 1947.5,-137.07 1947.5,-137.07"/>
<polygon fill="dimgray" stroke="dimgray" stroke-width="0.8" points="1949.95,-137.07 1947.5,-130.07 1945.05,-137.07 1949.95,-137.07"/>
</g>
<!-- S&#45;1533 -->
<g id="node4" class="node">
<title>S&#45;1533</title>
<polygon fill="tomato" stroke="black" points="1774.5,-36 1706,-18 1774.5,0 1843,-18 1774.5,-36"/>
<text text-anchor="middle" x="1774.5" y="-16.1" font-family="Helvetica,sans-Serif" font-size="8.00">S&#45;1533</text>
</g>
<!-- ext_circ_109_26_ -->
<g id="node46" class="node">
<title>ext_circ_109_26_</title>
<polygon fill="lightpink" stroke="red" stroke-dasharray="5,2" points="826,-1356 689,-1356 689,-1320 826,-1320 826,-1356"/>
<text text-anchor="middle" x="757.5" y="-1340.6" font-family="Helvetica,sans-Serif" font-size="8.00">Circuito:</text>
<text text-anchor="middle" x="757.5" y="-1331.6" font-family="Helvetica,sans-Serif" font-size="8.00">109&#45;26&#45;</text>
</g>
<!-- S&#45;1533&#45;&gt;ext_circ_109_26_ -->
<g id="edge47" class="edge">
<title>S&#45;1533&#45;&gt;ext_circ_109_26_</title>
<path fill="none" stroke="red" stroke-width="0.8" stroke-dasharray="5,2" d="M1705.66,-18C1462.78,-18 660.5,-18 660.5,-18 660.5,-18 660.5,-1338 660.5,-1338 660.5,-1338 681.82,-1338 681.82,-1338"/>
<polygon fill="red" stroke="red" stroke-width="0.8" points="681.82,-1340.45 688.82,-1338 681.82,-1335.55 681.82,-1340.45"/>
</g>
<!-- S&#45;2244 -->
<g id="node5" class="node">
<title>S&#45;2244</title>
<polygon fill="tomato" stroke="black" points="1947.5,-36 1879,-18 1947.5,0 2016,-18 1947.5,-36"/>
<text text-anchor="middle" x="1947.5" y="-16.1" font-family="Helvetica,sans-Serif" font-size="8.00">S&#45;2244</text>
</g>
<!-- ext_circ_109_25_ -->
<g id="node47" class="node">
<title>ext_circ_109_25_</title>
<polygon fill="lightpink" stroke="red" stroke-dasharray="5,2" points="999,-1356 862,-1356 862,-1320 999,-1320 999,-1356"/>
<text text-anchor="middle" x="930.5" y="-1340.6" font-family="Helvetica,sans-Serif" font-size="8.00">Circuito:</text>
<text text-anchor="middle" x="930.5" y="-1331.6" font-family="Helvetica,sans-Serif" font-size="8.00">109&#45;25&#45;</text>
</g>
<!-- S&#45;2244&#45;&gt;ext_circ_109_25_ -->
<g id="edge48" class="edge">
<title>S&#45;2244&#45;&gt;ext_circ_109_25_</title>
<path fill="none" stroke="red" stroke-width="0.8" stroke-dasharray="5,2" d="M1878.92,-18C1868.42,-18 1861,-18 1861,-18 1861,-18 1861,-629 1861,-629 1861,-629 989.5,-629 989.5,-629 989.5,-629 989.5,-1312.76 989.5,-1312.76"/>
<polygon fill="red" stroke="red" stroke-width="0.8" points="987.05,-1312.76 989.5,-1319.76 991.95,-1312.76 987.05,-1312.76"/>
</g>
<!-- C&#45;0029 -->
<g id="node6" class="node">
<title>C&#45;0029</title>
<ellipse fill="mediumseagreen" stroke="black" cx="1601.5" cy="-300" rx="68.5" ry="18"/>
<text text-anchor="middle" x="1601.5" y="-298.1" font-family="Helvetica,sans-Serif" font-size="8.00">C&#45;0029</text>
</g>
<!-- C&#45;0029&#45;&gt;C&#45;0061 -->
<g id="edge34" class="edge">
<title>C&#45;0029&#45;&gt;C&#45;0061</title>
<path fill="none" stroke="dimgray" stroke-width="0.8" d="M1601.5,-281.96C1601.5,-265.27 1601.5,-243 1601.5,-243 1601.5,-243 1947.5,-243 1947.5,-243 1947.5,-243 1947.5,-231.07 1947.5,-231.07"/>
<polygon fill="dimgray" stroke="dimgray" stroke-width="0.8" points="1949.95,-231.07 1947.5,-224.07 1945.05,-231.07 1949.95,-231.07"/>
</g>
<!-- S&#45;1323 -->
<g id="node11" class="node">
<title>S&#45;1323</title>
<polygon fill="mediumseagreen" stroke="black" points="2120.5,-224 2052,-206 2120.5,-188 2189,-206 2120.5,-224"/>
<text text-anchor="middle" x="2120.5" y="-204.1" font-family="Helvetica,sans-Serif" font-size="8.00">S&#45;1323</text>
</g>
<!-- C&#45;0029&#45;&gt;S&#45;1323 -->
<g id="edge39" class="edge">
<title>C&#45;0029&#45;&gt;S&#45;1323</title>
<path fill="none" stroke="dimgray" stroke-width="0.8" d="M1635.75,-284.1C1635.75,-273.69 1635.75,-262 1635.75,-262 1635.75,-262 2120.5,-262 2120.5,-262 2120.5,-262 2120.5,-231.03 2120.5,-231.03"/>
<polygon fill="dimgray" stroke="dimgray" stroke-width="0.8" points="2122.95,-231.03 2120.5,-224.03 2118.05,-231.03 2122.95,-231.03"/>
</g>
<!-- S&#45;1324 -->
<g id="node22" class="node">
<title>S&#45;1324</title>
<polygon fill="mediumseagreen" stroke="black" points="1255.5,-224 1187,-206 1255.5,-188 1324,-206 1255.5,-224"/>
<text text-anchor="middle" x="1255.5" y="-204.1" font-family="Helvetica,sans-Serif" font-size="8.00">S&#45;1324</text>
</g>
<!-- C&#45;0029&#45;&gt;S&#45;1324 -->
<g id="edge40" class="edge">
<title>C&#45;0029&#45;&gt;S&#45;1324</title>
<path fill="none" stroke="dimgray" stroke-width="0.8" d="M1536.87,-306C1450.18,-306 1307,-306 1307,-306 1307,-306 1307,-217.56 1307,-217.56"/>
<polygon fill="dimgray" stroke="dimgray" stroke-width="0.8" points="1309.45,-217.56 1307,-210.56 1304.55,-217.56 1309.45,-217.56"/>
</g>
<!-- S&#45;982 -->
<g id="node26" class="node">
<title>S&#45;982</title>
<polygon fill="mediumseagreen" stroke="black" points="1428.5,-224 1360,-206 1428.5,-188 1497,-206 1428.5,-224"/>
<text text-anchor="middle" x="1428.5" y="-204.1" font-family="Helvetica,sans-Serif" font-size="8.00">S&#45;982</text>
</g>
<!-- C&#45;0029&#45;&gt;S&#45;982 -->
<g id="edge32" class="edge">
<title>C&#45;0029&#45;&gt;S&#45;982</title>
<path fill="none" stroke="dimgray" stroke-width="0.8" d="M1536.88,-294C1500.58,-294 1462.5,-294 1462.5,-294 1462.5,-294 1462.5,-222.09 1462.5,-222.09"/>
<polygon fill="dimgray" stroke="dimgray" stroke-width="0.8" points="1464.95,-222.09 1462.5,-215.09 1460.05,-222.09 1464.95,-222.09"/>
</g>
<!-- C&#45;0466 -->
<g id="node28" class="node">
<title>C&#45;0466</title>
<ellipse fill="mediumseagreen" stroke="black" cx="1601.5" cy="-206" rx="68.5" ry="18"/>
<text text-anchor="middle" x="1601.5" y="-204.1" font-family="Helvetica,sans-Serif" font-size="8.00">C&#45;0466</text>
</g>
<!-- C&#45;0029&#45;&gt;C&#45;0466 -->
<g id="edge33" class="edge">
<title>C&#45;0029&#45;&gt;C&#45;0466</title>
<path fill="none" stroke="dimgray" stroke-width="0.8" d="M1567.25,-284.05C1567.25,-284.05 1567.25,-228.71 1567.25,-228.71"/>
<polygon fill="dimgray" stroke="dimgray" stroke-width="0.8" points="1569.7,-228.71 1567.25,-221.71 1564.8,-228.71 1569.7,-228.71"/>
</g>
<!-- S&#45;2254 -->
<g id="node42" class="node">
<title>S&#45;2254</title>
<polygon fill="mediumseagreen" stroke="black" points="1774.5,-224 1706,-206 1774.5,-188 1843,-206 1774.5,-224"/>
<text text-anchor="middle" x="1774.5" y="-204.1" font-family="Helvetica,sans-Serif" font-size="8.00">S&#45;2254</text>
</g>
<!-- C&#45;0029&#45;&gt;S&#45;2254 -->
<g id="edge41" class="edge">
<title>C&#45;0029&#45;&gt;S&#45;2254</title>
<path fill="none" stroke="dimgray" stroke-width="0.8" d="M1670.08,-300C1680.58,-300 1688,-300 1688,-300 1688,-300 1688,-206 1688,-206 1688,-206 1698.92,-206 1698.92,-206"/>
<polygon fill="dimgray" stroke="dimgray" stroke-width="0.8" points="1698.92,-208.45 1705.92,-206 1698.92,-203.55 1698.92,-208.45"/>
</g>
<!-- C&#45;0279 -->
<g id="node7" class="node">
<title>C&#45;0279</title>
<ellipse fill="mediumseagreen" stroke="black" cx="1134.5" cy="-676" rx="68.5" ry="18"/>
<text text-anchor="middle" x="1134.5" y="-674.1" font-family="Helvetica,sans-Serif" font-size="8.00">C&#45;0279</text>
</g>
<!-- C&#45;0279&#45;&gt;C&#45;0305 -->
<g id="edge12" class="edge">
<title>C&#45;0279&#45;&gt;C&#45;0305</title>
<path fill="none" stroke="dimgray" stroke-width="0.8" d="M1091.5,-661.72C1091.5,-661.72 1091.5,-603.1 1091.5,-603.1"/>
<polygon fill="dimgray" stroke="dimgray" stroke-width="0.8" points="1093.95,-603.1 1091.5,-596.1 1089.05,-603.1 1093.95,-603.1"/>
</g>
<!-- C&#45;0279&#45;&gt;C&#45;0612 -->
<g id="edge27" class="edge">
<title>C&#45;0279&#45;&gt;C&#45;0612</title>
<path fill="none" stroke="dimgray" stroke-width="0.8" d="M1178,-661.72C1178,-661.72 1178,-603.1 1178,-603.1"/>
<polygon fill="dimgray" stroke="dimgray" stroke-width="0.8" points="1180.45,-603.1 1178,-596.1 1175.55,-603.1 1180.45,-603.1"/>
</g>
<!-- C&#45;0614 -->
<g id="node12" class="node">
<title>C&#45;0614</title>
<ellipse fill="mediumseagreen" stroke="black" cx="1462.5" cy="-582" rx="68.5" ry="18"/>
<text text-anchor="middle" x="1462.5" y="-580.1" font-family="Helvetica,sans-Serif" font-size="8.00">C&#45;0614</text>
</g>
<!-- C&#45;0279&#45;&gt;C&#45;0614 -->
<g id="edge28" class="edge">
<title>C&#45;0279&#45;&gt;C&#45;0614</title>
<path fill="none" stroke="dimgray" stroke-width="0.8" d="M1203.1,-676C1299.07,-676 1461.76,-676 1461.76,-676 1461.76,-676 1461.76,-607.12 1461.76,-607.12"/>
<polygon fill="dimgray" stroke="dimgray" stroke-width="0.8" points="1464.21,-607.12 1461.76,-600.12 1459.31,-607.12 1464.21,-607.12"/>
</g>
<!-- S&#45;922 -->
<g id="node38" class="node">
<title>S&#45;922</title>
<polygon fill="mediumseagreen" stroke="black" points="875.5,-600 807,-582 875.5,-564 944,-582 875.5,-600"/>
<text text-anchor="middle" x="875.5" y="-580.1" font-family="Helvetica,sans-Serif" font-size="8.00">S&#45;922</text>
</g>
<!-- C&#45;0279&#45;&gt;S&#45;922 -->
<g id="edge11" class="edge">
<title>C&#45;0279&#45;&gt;S&#45;922</title>
<path fill="none" stroke="dimgray" stroke-width="0.8" d="M1065.98,-676C997.72,-676 903,-676 903,-676 903,-676 903,-599.78 903,-599.78"/>
<polygon fill="dimgray" stroke="dimgray" stroke-width="0.8" points="905.45,-599.78 903,-592.78 900.55,-599.78 905.45,-599.78"/>
</g>
<!-- S&#45;2280 -->
<g id="node8" class="node">
<title>S&#45;2280</title>
<polygon fill="mediumseagreen" stroke="black" points="909.5,-130 841,-112 909.5,-94 978,-112 909.5,-130"/>
<text text-anchor="middle" x="909.5" y="-110.1" font-family="Helvetica,sans-Serif" font-size="8.00">S&#45;2280</text>
</g>
<!-- SW&#45;008_C -->
<g id="node9" class="node">
<title>SW&#45;008_C</title>
<polygon fill="tomato" stroke="black" points="1383.54,-882 1270.53,-882 1241.46,-846 1354.47,-846 1383.54,-882"/>
<text text-anchor="middle" x="1312.5" y="-862.1" font-family="Helvetica,sans-Serif" font-size="8.00">SW&#45;008_C</text>
</g>
<!-- SW&#45;008_A -->
<g id="node30" class="node">
<title>SW&#45;008_A</title>
<polygon fill="mediumseagreen" stroke="black" points="1205.54,-882 1092.53,-882 1063.46,-846 1176.47,-846 1205.54,-882"/>
<text text-anchor="middle" x="1134.5" y="-862.1" font-family="Helvetica,sans-Serif" font-size="8.00">SW&#45;008_A</text>
</g>
<!-- SW&#45;008_C&#45;&gt;SW&#45;008_A -->
<g id="edge44" class="edge">
<title>SW&#45;008_C&#45;&gt;SW&#45;008_A</title>
<path fill="none" stroke="blue" stroke-width="0.8" stroke-dasharray="5,2" d="M1250.74,-858C1250.74,-858 1193.4,-858 1193.4,-858"/>
<polygon fill="blue" stroke="blue" stroke-width="0.8" points="1193.4,-855.55 1186.4,-858 1193.4,-860.45 1193.4,-855.55"/>
</g>
<!-- SW&#45;010_B -->
<g id="node10" class="node">
<title>SW&#45;010_B</title>
<polygon fill="mediumseagreen" stroke="black" points="1351.54,-1258 1238.53,-1258 1209.46,-1222 1322.47,-1222 1351.54,-1258"/>
<text text-anchor="middle" x="1280.5" y="-1238.1" font-family="Helvetica,sans-Serif" font-size="8.00">SW&#45;010_B</text>
</g>
<!-- SW&#45;010_D -->
<g id="node24" class="node">
<title>SW&#45;010_D</title>
<polygon fill="tomato" stroke="black" points="1173.54,-1164 1060.53,-1164 1031.46,-1128 1144.47,-1128 1173.54,-1164"/>
<text text-anchor="middle" x="1102.5" y="-1144.1" font-family="Helvetica,sans-Serif" font-size="8.00">SW&#45;010_D</text>
</g>
<!-- SW&#45;010_B&#45;&gt;SW&#45;010_D -->
<g id="edge4" class="edge">
<title>SW&#45;010_B&#45;&gt;SW&#45;010_D</title>
<path fill="none" stroke="dimgray" stroke-width="0.8" d="M1223.97,-1240C1179.97,-1240 1126.33,-1240 1126.33,-1240 1126.33,-1240 1126.33,-1171.12 1126.33,-1171.12"/>
<polygon fill="dimgray" stroke="dimgray" stroke-width="0.8" points="1128.78,-1171.12 1126.33,-1164.12 1123.88,-1171.12 1128.78,-1171.12"/>
</g>
<!-- SW&#45;010_C -->
<g id="node31" class="node">
<title>SW&#45;010_C</title>
<polygon fill="mediumseagreen" stroke="black" points="1351.54,-1164 1238.53,-1164 1209.46,-1128 1322.47,-1128 1351.54,-1164"/>
<text text-anchor="middle" x="1280.5" y="-1144.1" font-family="Helvetica,sans-Serif" font-size="8.00">SW&#45;010_C</text>
</g>
<!-- SW&#45;010_B&#45;&gt;SW&#45;010_C -->
<g id="edge3" class="edge">
<title>SW&#45;010_B&#45;&gt;SW&#45;010_C</title>
<path fill="none" stroke="dimgray" stroke-width="0.8" d="M1280.5,-1221.88C1280.5,-1221.88 1280.5,-1171.07 1280.5,-1171.07"/>
<polygon fill="dimgray" stroke="dimgray" stroke-width="0.8" points="1282.95,-1171.07 1280.5,-1164.07 1278.05,-1171.07 1282.95,-1171.07"/>
</g>
<!-- SW&#45;010_A -->
<g id="node33" class="node">
<title>SW&#45;010_A</title>
<polygon fill="mediumseagreen" stroke="black" points="1529.54,-1164 1416.53,-1164 1387.46,-1128 1500.47,-1128 1529.54,-1164"/>
<text text-anchor="middle" x="1458.5" y="-1144.1" font-family="Helvetica,sans-Serif" font-size="8.00">SW&#45;010_A</text>
</g>
<!-- SW&#45;010_B&#45;&gt;SW&#45;010_A -->
<g id="edge2" class="edge">
<title>SW&#45;010_B&#45;&gt;SW&#45;010_A</title>
<path fill="none" stroke="dimgray" stroke-width="0.8" d="M1337.31,-1240C1389.4,-1240 1458.5,-1240 1458.5,-1240 1458.5,-1240 1458.5,-1171.12 1458.5,-1171.12"/>
<polygon fill="dimgray" stroke="dimgray" stroke-width="0.8" points="1460.95,-1171.12 1458.5,-1164.12 1456.05,-1171.12 1460.95,-1171.12"/>
</g>
<!-- R&#45;115 -->
<g id="node43" class="node">
<title>R&#45;115</title>
<polygon fill="mediumseagreen" stroke="black" points="1565,-480.54 1565,-495.46 1524.87,-506 1468.13,-506 1428,-495.46 1428,-480.54 1468.13,-470 1524.87,-470 1565,-480.54"/>
<text text-anchor="middle" x="1496.5" y="-486.1" font-family="Helvetica,sans-Serif" font-size="8.00">R&#45;115</text>
</g>
<!-- C&#45;0614&#45;&gt;R&#45;115 -->
<g id="edge29" class="edge">
<title>C&#45;0614&#45;&gt;R&#45;115</title>
<path fill="none" stroke="dimgray" stroke-width="0.8" d="M1479.5,-564.32C1479.5,-564.32 1479.5,-513.24 1479.5,-513.24"/>
<polygon fill="dimgray" stroke="dimgray" stroke-width="0.8" points="1481.95,-513.24 1479.5,-506.24 1477.05,-513.24 1481.95,-513.24"/>
</g>
<!-- S&#45;1893 -->
<g id="node13" class="node">
<title>S&#45;1893</title>
<polygon fill="mediumseagreen" stroke="black" points="909.5,-224 841,-206 909.5,-188 978,-206 909.5,-224"/>
<text text-anchor="middle" x="909.5" y="-204.1" font-family="Helvetica,sans-Serif" font-size="8.00">S&#45;1893</text>
</g>
<!-- S&#45;1893&#45;&gt;S&#45;2280 -->
<g id="edge24" class="edge">
<title>S&#45;1893&#45;&gt;S&#45;2280</title>
<path fill="none" stroke="dimgray" stroke-width="0.8" d="M909.5,-187.88C909.5,-187.88 909.5,-137.07 909.5,-137.07"/>
<polygon fill="dimgray" stroke="dimgray" stroke-width="0.8" points="911.95,-137.07 909.5,-130.07 907.05,-137.07 911.95,-137.07"/>
</g>
<!-- SW&#45;008_B -->
<g id="node14" class="node">
<title>SW&#45;008_B</title>
<polygon fill="mediumseagreen" stroke="black" points="1351.54,-976 1238.53,-976 1209.46,-940 1322.47,-940 1351.54,-976"/>
<text text-anchor="middle" x="1280.5" y="-956.1" font-family="Helvetica,sans-Serif" font-size="8.00">SW&#45;008_B</text>
</g>
<!-- SW&#45;008_B&#45;&gt;SW&#45;008_C -->
<g id="edge8" class="edge">
<title>SW&#45;008_B&#45;&gt;SW&#45;008_C</title>
<path fill="none" stroke="dimgray" stroke-width="0.8" d="M1296.5,-939.88C1296.5,-939.88 1296.5,-889.07 1296.5,-889.07"/>
<polygon fill="dimgray" stroke="dimgray" stroke-width="0.8" points="1298.95,-889.07 1296.5,-882.07 1294.05,-889.07 1298.95,-889.07"/>
</g>
<!-- SW&#45;008_B&#45;&gt;SW&#45;008_A -->
<g id="edge7" class="edge">
<title>SW&#45;008_B&#45;&gt;SW&#45;008_A</title>
<path fill="none" stroke="dimgray" stroke-width="0.8" d="M1225.48,-939.77C1225.48,-913.99 1225.48,-870 1225.48,-870 1225.48,-870 1202.94,-870 1202.94,-870"/>
<polygon fill="dimgray" stroke="dimgray" stroke-width="0.8" points="1202.94,-867.55 1195.94,-870 1202.94,-872.45 1202.94,-867.55"/>
</g>
<!-- C&#45;0063 -->
<g id="node17" class="node">
<title>C&#45;0063</title>
<ellipse fill="mediumseagreen" stroke="black" cx="919.5" cy="-394" rx="68.5" ry="18"/>
<text text-anchor="middle" x="919.5" y="-392.1" font-family="Helvetica,sans-Serif" font-size="8.00">C&#45;0063</text>
</g>
<!-- C&#45;0031&#45;&gt;C&#45;0063 -->
<g id="edge15" class="edge">
<title>C&#45;0031&#45;&gt;C&#45;0063</title>
<path fill="none" stroke="dimgray" stroke-width="0.8" d="M967,-474.93C967,-474.93 967,-414.26 967,-414.26"/>
<polygon fill="dimgray" stroke="dimgray" stroke-width="0.8" points="969.45,-414.26 967,-407.26 964.55,-414.26 969.45,-414.26"/>
</g>
<!-- S&#45;924 -->
<g id="node16" class="node">
<title>S&#45;924</title>
<polygon fill="mediumseagreen" stroke="black" points="909.5,-318 841,-300 909.5,-282 978,-300 909.5,-318"/>
<text text-anchor="middle" x="909.5" y="-298.1" font-family="Helvetica,sans-Serif" font-size="8.00">S&#45;924</text>
</g>
<!-- S&#45;924&#45;&gt;S&#45;1893 -->
<g id="edge23" class="edge">
<title>S&#45;924&#45;&gt;S&#45;1893</title>
<path fill="none" stroke="dimgray" stroke-width="0.8" d="M909.5,-281.88C909.5,-281.88 909.5,-231.07 909.5,-231.07"/>
<polygon fill="dimgray" stroke="dimgray" stroke-width="0.8" points="911.95,-231.07 909.5,-224.07 907.05,-231.07 911.95,-231.07"/>
</g>
<!-- S&#45;2343 -->
<g id="node34" class="node">
<title>S&#45;2343</title>
<polygon fill="mediumseagreen" stroke="black" points="1082.5,-224 1014,-206 1082.5,-188 1151,-206 1082.5,-224"/>
<text text-anchor="middle" x="1082.5" y="-204.1" font-family="Helvetica,sans-Serif" font-size="8.00">S&#45;2343</text>
</g>
<!-- S&#45;924&#45;&gt;S&#45;2343 -->
<g id="edge22" class="edge">
<title>S&#45;924&#45;&gt;S&#45;2343</title>
<path fill="none" stroke="dimgray" stroke-width="0.8" d="M955.4,-306C969.48,-306 981.33,-306 981.33,-306 981.33,-306 981.33,-206 981.33,-206 981.33,-206 1006.9,-206 1006.9,-206"/>
<polygon fill="dimgray" stroke="dimgray" stroke-width="0.8" points="1006.9,-208.45 1013.9,-206 1006.9,-203.55 1006.9,-208.45"/>
</g>
<!-- S&#45;925 -->
<g id="node35" class="node">
<title>S&#45;925</title>
<polygon fill="mediumseagreen" stroke="black" points="736.5,-224 668,-206 736.5,-188 805,-206 736.5,-224"/>
<text text-anchor="middle" x="736.5" y="-204.1" font-family="Helvetica,sans-Serif" font-size="8.00">S&#45;925</text>
</g>
<!-- S&#45;924&#45;&gt;S&#45;925 -->
<g id="edge25" class="edge">
<title>S&#45;924&#45;&gt;S&#45;925</title>
<path fill="none" stroke="dimgray" stroke-width="0.8" d="M840.8,-300C813.74,-300 789,-300 789,-300 789,-300 789,-217.28 789,-217.28"/>
<polygon fill="dimgray" stroke="dimgray" stroke-width="0.8" points="791.45,-217.28 789,-210.28 786.55,-217.28 791.45,-217.28"/>
</g>
<!-- C&#45;0063&#45;&gt;S&#45;924 -->
<g id="edge21" class="edge">
<title>C&#45;0063&#45;&gt;S&#45;924</title>
<path fill="none" stroke="dimgray" stroke-width="0.8" d="M914.5,-375.88C914.5,-375.88 914.5,-323.81 914.5,-323.81"/>
<polygon fill="dimgray" stroke="dimgray" stroke-width="0.8" points="916.95,-323.81 914.5,-316.81 912.05,-323.81 916.95,-323.81"/>
</g>
<!-- S&#45;1330 -->
<g id="node36" class="node">
<title>S&#45;1330</title>
<polygon fill="mediumseagreen" stroke="black" points="1082.5,-318 1014,-300 1082.5,-282 1151,-300 1082.5,-318"/>
<text text-anchor="middle" x="1082.5" y="-298.1" font-family="Helvetica,sans-Serif" font-size="8.00">S&#45;1330</text>
</g>
<!-- C&#45;0063&#45;&gt;S&#45;1330 -->
<g id="edge20" class="edge">
<title>C&#45;0063&#45;&gt;S&#45;1330</title>
<path fill="none" stroke="dimgray" stroke-width="0.8" d="M984.67,-388.34C984.67,-367.18 984.67,-294 984.67,-294 984.67,-294 1029.73,-294 1029.73,-294"/>
<polygon fill="dimgray" stroke="dimgray" stroke-width="0.8" points="1029.73,-296.45 1036.73,-294 1029.73,-291.55 1029.73,-296.45"/>
</g>
<!-- SPR&#45;61 -->
<g id="node41" class="node">
<title>SPR&#45;61</title>
<polygon fill="mediumseagreen" stroke="black" points="477.5,-318 409,-300 477.5,-282 546,-300 477.5,-318"/>
<text text-anchor="middle" x="477.5" y="-298.1" font-family="Helvetica,sans-Serif" font-size="8.00">SPR&#45;61</text>
</g>
<!-- C&#45;0063&#45;&gt;SPR&#45;61 -->
<g id="edge16" class="edge">
<title>C&#45;0063&#45;&gt;SPR&#45;61</title>
<path fill="none" stroke="dimgray" stroke-width="0.8" d="M850.94,-394C739.41,-394 531,-394 531,-394 531,-394 531,-311.04 531,-311.04"/>
<polygon fill="dimgray" stroke="dimgray" stroke-width="0.8" points="533.45,-311.04 531,-304.04 528.55,-311.04 533.45,-311.04"/>
</g>
<!-- C&#45;0282 -->
<g id="node18" class="node">
<title>C&#45;0282</title>
<ellipse fill="mediumseagreen" stroke="black" cx="1134.5" cy="-770" rx="68.5" ry="18"/>
<text text-anchor="middle" x="1134.5" y="-768.1" font-family="Helvetica,sans-Serif" font-size="8.00">C&#45;0282</text>
</g>
<!-- C&#45;0282&#45;&gt;C&#45;0279 -->
<g id="edge10" class="edge">
<title>C&#45;0282&#45;&gt;C&#45;0279</title>
<path fill="none" stroke="dimgray" stroke-width="0.8" d="M1134.5,-751.88C1134.5,-751.88 1134.5,-701.07 1134.5,-701.07"/>
<polygon fill="dimgray" stroke="dimgray" stroke-width="0.8" points="1136.95,-701.07 1134.5,-694.07 1132.05,-701.07 1136.95,-701.07"/>
</g>
<!-- C&#45;0138 -->
<g id="node19" class="node">
<title>C&#45;0138</title>
<ellipse fill="mediumseagreen" stroke="black" cx="1280.5" cy="-1052" rx="68.5" ry="18"/>
<text text-anchor="middle" x="1280.5" y="-1050.1" font-family="Helvetica,sans-Serif" font-size="8.00">C&#45;0138</text>
</g>
<!-- C&#45;0138&#45;&gt;SW&#45;008_B -->
<g id="edge6" class="edge">
<title>C&#45;0138&#45;&gt;SW&#45;008_B</title>
<path fill="none" stroke="dimgray" stroke-width="0.8" d="M1280.5,-1033.88C1280.5,-1033.88 1280.5,-983.07 1280.5,-983.07"/>
<polygon fill="dimgray" stroke="dimgray" stroke-width="0.8" points="1282.95,-983.07 1280.5,-976.07 1278.05,-983.07 1282.95,-983.07"/>
</g>
<!-- R&#45;003&#45;&gt;S&#45;1533 -->
<g id="edge36" class="edge">
<title>R&#45;003&#45;&gt;S&#45;1533</title>
<path fill="none" stroke="dimgray" stroke-width="0.8" d="M1878.63,-112C1830.38,-112 1774.5,-112 1774.5,-112 1774.5,-112 1774.5,-43.12 1774.5,-43.12"/>
<polygon fill="dimgray" stroke="dimgray" stroke-width="0.8" points="1776.95,-43.12 1774.5,-36.12 1772.05,-43.12 1776.95,-43.12"/>
</g>
<!-- R&#45;003&#45;&gt;S&#45;2244 -->
<g id="edge38" class="edge">
<title>R&#45;003&#45;&gt;S&#45;2244</title>
<path fill="none" stroke="dimgray" stroke-width="0.8" d="M1947.5,-93.88C1947.5,-93.88 1947.5,-43.07 1947.5,-43.07"/>
<polygon fill="dimgray" stroke="dimgray" stroke-width="0.8" points="1949.95,-43.07 1947.5,-36.07 1945.05,-43.07 1949.95,-43.07"/>
</g>
<!-- S&#45;1535 -->
<g id="node37" class="node">
<title>S&#45;1535</title>
<polygon fill="mediumseagreen" stroke="black" points="2120.5,-36 2052,-18 2120.5,0 2189,-18 2120.5,-36"/>
<text text-anchor="middle" x="2120.5" y="-16.1" font-family="Helvetica,sans-Serif" font-size="8.00">S&#45;1535</text>
</g>
<!-- R&#45;003&#45;&gt;S&#45;1535 -->
<g id="edge37" class="edge">
<title>R&#45;003&#45;&gt;S&#45;1535</title>
<path fill="none" stroke="dimgray" stroke-width="0.8" d="M2016.37,-112C2064.62,-112 2120.5,-112 2120.5,-112 2120.5,-112 2120.5,-43.12 2120.5,-43.12"/>
<polygon fill="dimgray" stroke="dimgray" stroke-width="0.8" points="2122.95,-43.12 2120.5,-36.12 2118.05,-43.12 2122.95,-43.12"/>
</g>
<!-- C&#45;0613&#45;&gt;C&#45;0029 -->
<g id="edge31" class="edge">
<title>C&#45;0613&#45;&gt;C&#45;0029</title>
<path fill="none" stroke="dimgray" stroke-width="0.8" d="M1601.5,-375.88C1601.5,-375.88 1601.5,-325.07 1601.5,-325.07"/>
<polygon fill="dimgray" stroke="dimgray" stroke-width="0.8" points="1603.95,-325.07 1601.5,-318.07 1599.05,-325.07 1603.95,-325.07"/>
</g>
<!-- S&#45;1935 -->
<g id="node29" class="node">
<title>S&#45;1935</title>
<polygon fill="mediumseagreen" stroke="black" points="1774.5,-318 1706,-300 1774.5,-282 1843,-300 1774.5,-318"/>
<text text-anchor="middle" x="1774.5" y="-298.1" font-family="Helvetica,sans-Serif" font-size="8.00">S&#45;1935</text>
</g>
<!-- C&#45;0613&#45;&gt;S&#45;1935 -->
<g id="edge42" class="edge">
<title>C&#45;0613&#45;&gt;S&#45;1935</title>
<path fill="none" stroke="dimgray" stroke-width="0.8" d="M1670.37,-394C1718.62,-394 1774.5,-394 1774.5,-394 1774.5,-394 1774.5,-325.12 1774.5,-325.12"/>
<polygon fill="dimgray" stroke="dimgray" stroke-width="0.8" points="1776.95,-325.12 1774.5,-318.12 1772.05,-325.12 1776.95,-325.12"/>
</g>
<!-- ext_circ__NA_ -->
<g id="node44" class="node">
<title>ext_circ__NA_</title>
<polygon fill="lightpink" stroke="red" stroke-dasharray="5,2" points="1172,-1356 1035,-1356 1035,-1320 1172,-1320 1172,-1356"/>
<text text-anchor="middle" x="1103.5" y="-1340.6" font-family="Helvetica,sans-Serif" font-size="8.00">Circuito:</text>
<text text-anchor="middle" x="1103.5" y="-1331.6" font-family="Helvetica,sans-Serif" font-size="8.00">&lt;NA&gt;</text>
</g>
<!-- SW&#45;010_D&#45;&gt;ext_circ__NA_ -->
<g id="edge43" class="edge">
<title>SW&#45;010_D&#45;&gt;ext_circ__NA_</title>
<path fill="none" stroke="red" stroke-width="0.8" stroke-dasharray="5,2" d="M1080.67,-1164.06C1080.67,-1164.06 1080.67,-1312.85 1080.67,-1312.85"/>
<polygon fill="red" stroke="red" stroke-width="0.8" points="1078.22,-1312.85 1080.67,-1319.85 1083.12,-1312.85 1078.22,-1312.85"/>
</g>
<!-- 109&#45;29&#45; -->
<g id="node27" class="node">
<title>109&#45;29&#45;</title>
<polygon fill="gold" stroke="black" points="1349,-1330.54 1349,-1345.46 1308.87,-1356 1252.13,-1356 1212,-1345.46 1212,-1330.54 1252.13,-1320 1308.87,-1320 1349,-1330.54"/>
<polygon fill="none" stroke="black" points="1353,-1327.46 1353,-1348.54 1309.39,-1360 1251.61,-1360 1208,-1348.54 1208,-1327.46 1251.61,-1316 1309.39,-1316 1353,-1327.46"/>
<text text-anchor="middle" x="1280.5" y="-1336.1" font-family="Helvetica,sans-Serif" font-size="8.00">109&#45;29&#45;</text>
</g>
<!-- 109&#45;29&#45;&#45;&gt;SW&#45;010_B -->
<g id="edge1" class="edge">
<title>109&#45;29&#45;&#45;&gt;SW&#45;010_B</title>
<path fill="none" stroke="dimgray" stroke-width="0.8" d="M1280.5,-1315.76C1280.5,-1315.76 1280.5,-1265.21 1280.5,-1265.21"/>
<polygon fill="dimgray" stroke="dimgray" stroke-width="0.8" points="1282.95,-1265.21 1280.5,-1258.21 1278.05,-1265.21 1282.95,-1265.21"/>
</g>
<!-- SW&#45;008_A&#45;&gt;C&#45;0282 -->
<g id="edge9" class="edge">
<title>SW&#45;008_A&#45;&gt;C&#45;0282</title>
<path fill="none" stroke="dimgray" stroke-width="0.8" d="M1134.5,-845.88C1134.5,-845.88 1134.5,-795.07 1134.5,-795.07"/>
<polygon fill="dimgray" stroke="dimgray" stroke-width="0.8" points="1136.95,-795.07 1134.5,-788.07 1132.05,-795.07 1136.95,-795.07"/>
</g>
<!-- SW&#45;010_C&#45;&gt;C&#45;0138 -->
<g id="edge5" class="edge">
<title>SW&#45;010_C&#45;&gt;C&#45;0138</title>
<path fill="none" stroke="dimgray" stroke-width="0.8" d="M1280.5,-1127.88C1280.5,-1127.88 1280.5,-1077.07 1280.5,-1077.07"/>
<polygon fill="dimgray" stroke="dimgray" stroke-width="0.8" points="1282.95,-1077.07 1280.5,-1070.07 1278.05,-1077.07 1282.95,-1077.07"/>
</g>
<!-- S&#45;2415 -->
<g id="node32" class="node">
<title>S&#45;2415</title>
<polygon fill="mediumseagreen" stroke="black" points="563.5,-224 495,-206 563.5,-188 632,-206 563.5,-224"/>
<text text-anchor="middle" x="563.5" y="-204.1" font-family="Helvetica,sans-Serif" font-size="8.00">S&#45;2415</text>
</g>
<!-- C&#45;0502 -->
<g id="node39" class="node">
<title>C&#45;0502</title>
<ellipse fill="mediumseagreen" stroke="black" cx="68.5" cy="-206" rx="68.5" ry="18"/>
<text text-anchor="middle" x="68.5" y="-204.1" font-family="Helvetica,sans-Serif" font-size="8.00">C&#45;0502</text>
</g>
<!-- C&#45;0500 -->
<g id="node40" class="node">
<title>C&#45;0500</title>
<ellipse fill="tomato" stroke="black" cx="390.5" cy="-206" rx="68.5" ry="18"/>
<text text-anchor="middle" x="390.5" y="-204.1" font-family="Helvetica,sans-Serif" font-size="8.00">C&#45;0500</text>
</g>
<!-- ext_circ_208_26_ -->
<g id="node45" class="node">
<title>ext_circ_208_26_</title>
<polygon fill="lightpink" stroke="red" stroke-dasharray="5,2" points="653,-1356 516,-1356 516,-1320 653,-1320 653,-1356"/>
<text text-anchor="middle" x="584.5" y="-1340.6" font-family="Helvetica,sans-Serif" font-size="8.00">Circuito:</text>
<text text-anchor="middle" x="584.5" y="-1331.6" font-family="Helvetica,sans-Serif" font-size="8.00">208&#45;26&#45;</text>
</g>
<!-- C&#45;0500&#45;&gt;ext_circ_208_26_ -->
<g id="edge45" class="edge">
<title>C&#45;0500&#45;&gt;ext_circ_208_26_</title>
<path fill="none" stroke="red" stroke-width="0.8" stroke-dasharray="5,2" d="M365.5,-222.88C365.5,-363.7 365.5,-1338 365.5,-1338 365.5,-1338 508.81,-1338 508.81,-1338"/>
<polygon fill="red" stroke="red" stroke-width="0.8" points="508.81,-1340.45 515.81,-1338 508.81,-1335.55 508.81,-1340.45"/>
</g>
<!-- SPR&#45;61&#45;&gt;S&#45;2415 -->
<g id="edge17" class="edge">
<title>SPR&#45;61&#45;&gt;S&#45;2415</title>
<path fill="none" stroke="dimgray" stroke-width="0.8" d="M520.5,-293.24C520.5,-293.24 520.5,-219.95 520.5,-219.95"/>
<polygon fill="dimgray" stroke="dimgray" stroke-width="0.8" points="522.95,-219.95 520.5,-212.95 518.05,-219.95 522.95,-219.95"/>
</g>
<!-- SPR&#45;61&#45;&gt;C&#45;0502 -->
<g id="edge18" class="edge">
<title>SPR&#45;61&#45;&gt;C&#45;0502</title>
<path fill="none" stroke="dimgray" stroke-width="0.8" d="M408.58,-300C292.02,-300 68.5,-300 68.5,-300 68.5,-300 68.5,-231.12 68.5,-231.12"/>
<polygon fill="dimgray" stroke="dimgray" stroke-width="0.8" points="70.95,-231.12 68.5,-224.12 66.05,-231.12 70.95,-231.12"/>
</g>
<!-- SPR&#45;61&#45;&gt;C&#45;0500 -->
<g id="edge19" class="edge">
<title>SPR&#45;61&#45;&gt;C&#45;0500</title>
<path fill="none" stroke="dimgray" stroke-width="0.8" d="M434,-293.24C434,-293.24 434,-227.15 434,-227.15"/>
<polygon fill="dimgray" stroke="dimgray" stroke-width="0.8" points="436.45,-227.15 434,-220.15 431.55,-227.15 436.45,-227.15"/>
</g>
<!-- R&#45;115&#45;&gt;C&#45;0613 -->
<g id="edge30" class="edge">
<title>R&#45;115&#45;&gt;C&#45;0613</title>
<path fill="none" stroke="dimgray" stroke-width="0.8" d="M1549,-476.09C1549,-476.09 1549,-412.81 1549,-412.81"/>
<polygon fill="dimgray" stroke="dimgray" stroke-width="0.8" points="1551.45,-412.81 1549,-405.81 1546.55,-412.81 1551.45,-412.81"/>
</g>
</g>
</svg>
