<?xml version="1.0" encoding="UTF-8" standalone="no"?>
<!DOCTYPE svg PUBLIC "-//W3C//DTD SVG 1.1//EN"
 "http://www.w3.org/Graphics/SVG/1.1/DTD/svg11.dtd">
<!-- Generated by graphviz version 2.50.0 (0)
 -->
<!-- Title: Grafo_Circuito_208_25_ Pages: 1 -->
<svg width="2312pt" height="1473pt"
 viewBox="0.00 0.00 2312.00 1473.00" xmlns="http://www.w3.org/2000/svg" xmlns:xlink="http://www.w3.org/1999/xlink">
<g id="graph0" class="graph" transform="scale(1 1) rotate(0) translate(4 1469)">
<title>Grafo_Circuito_208_25_</title>
<polygon fill="white" stroke="transparent" points="-4,4 -4,-1469 2308,-1469 2308,4 -4,4"/>
<!-- C&#45;1004 -->
<g id="node1" class="node">
<title>C&#45;1004</title>
<ellipse fill="mediumseagreen" stroke="black" cx="972" cy="-627.5" rx="72" ry="21.5"/>
<text text-anchor="middle" x="972" y="-625" font-family="Arial" font-size="10.00">C&#45;1004</text>
</g>
<!-- R&#45;243 -->
<g id="node42" class="node">
<title>R&#45;243</title>
<polygon fill="mediumseagreen" stroke="black" points="1044,-517.59 1044,-535.41 1001.82,-548 942.18,-548 900,-535.41 900,-517.59 942.18,-505 1001.82,-505 1044,-517.59"/>
<text text-anchor="middle" x="972" y="-524" font-family="Arial" font-size="10.00">R&#45;243</text>
</g>
<!-- C&#45;1004&#45;&gt;R&#45;243 -->
<g id="edge13" class="edge">
<title>C&#45;1004&#45;&gt;R&#45;243</title>
<path fill="none" stroke="#4d4d4d" d="M972,-605.58C972,-605.58 972,-555.03 972,-555.03"/>
<polygon fill="#4d4d4d" stroke="#4d4d4d" points="974.45,-555.03 972,-548.03 969.55,-555.03 974.45,-555.03"/>
</g>
<!-- R&#45;168 -->
<g id="node2" class="node">
<title>R&#45;168</title>
<polygon fill="tomato" stroke="black" points="581,-113.59 581,-131.41 538.82,-144 479.18,-144 437,-131.41 437,-113.59 479.18,-101 538.82,-101 581,-113.59"/>
<text text-anchor="middle" x="509" y="-120" font-family="Arial" font-size="10.00">R&#45;168</text>
</g>
<!-- ext_circ_205_23_ -->
<g id="node50" class="node">
<title>ext_circ_205_23_</title>
<polygon fill="lightpink" stroke="darkorange" stroke-dasharray="5,2" points="747,-43 603,-43 603,0 747,0 747,-43"/>
<text text-anchor="middle" x="675" y="-24.5" font-family="Arial" font-size="10.00">Circuito:</text>
<text text-anchor="middle" x="675" y="-13.5" font-family="Arial" font-size="10.00">205&#45;23&#45;</text>
</g>
<!-- R&#45;168&#45;&gt;ext_circ_205_23_ -->
<g id="edge53" class="edge">
<title>R&#45;168&#45;&gt;ext_circ_205_23_</title>
<path fill="none" stroke="darkorange" stroke-dasharray="5,2" d="M572.71,-111C607.47,-111 643.5,-111 643.5,-111 643.5,-111 643.5,-50.17 643.5,-50.17"/>
<polygon fill="darkorange" stroke="darkorange" points="645.95,-50.17 643.5,-43.17 641.05,-50.17 645.95,-50.17"/>
</g>
<!-- S&#45;1092 -->
<g id="node3" class="node">
<title>S&#45;1092</title>
<polygon fill="mediumseagreen" stroke="black" points="1152,-649 1080,-627.5 1152,-606 1224,-627.5 1152,-649"/>
<text text-anchor="middle" x="1152" y="-625" font-family="Arial" font-size="10.00">S&#45;1092</text>
</g>
<!-- C&#45;0695 -->
<g id="node29" class="node">
<title>C&#45;0695</title>
<ellipse fill="mediumseagreen" stroke="black" cx="1152" cy="-526.5" rx="72" ry="21.5"/>
<text text-anchor="middle" x="1152" y="-524" font-family="Arial" font-size="10.00">C&#45;0695</text>
</g>
<!-- S&#45;1092&#45;&gt;C&#45;0695 -->
<g id="edge32" class="edge">
<title>S&#45;1092&#45;&gt;C&#45;0695</title>
<path fill="none" stroke="#4d4d4d" d="M1152,-605.58C1152,-605.58 1152,-555.03 1152,-555.03"/>
<polygon fill="#4d4d4d" stroke="#4d4d4d" points="1154.45,-555.03 1152,-548.03 1149.55,-555.03 1154.45,-555.03"/>
</g>
<!-- C&#45;0698 -->
<g id="node33" class="node">
<title>C&#45;0698</title>
<ellipse fill="tomato" stroke="black" cx="1332" cy="-526.5" rx="72" ry="21.5"/>
<text text-anchor="middle" x="1332" y="-524" font-family="Arial" font-size="10.00">C&#45;0698</text>
</g>
<!-- S&#45;1092&#45;&gt;C&#45;0698 -->
<g id="edge31" class="edge">
<title>S&#45;1092&#45;&gt;C&#45;0698</title>
<path fill="none" stroke="#4d4d4d" d="M1202.37,-634C1226.83,-634 1251,-634 1251,-634 1251,-634 1251,-526 1251,-526 1251,-526 1252.98,-526 1252.98,-526"/>
<polygon fill="#4d4d4d" stroke="#4d4d4d" points="1252.98,-528.45 1259.98,-526 1252.98,-523.55 1252.98,-528.45"/>
</g>
<!-- S&#45;2387 -->
<g id="node4" class="node">
<title>S&#45;2387</title>
<polygon fill="mediumseagreen" stroke="black" points="1512,-245 1440,-223.5 1512,-202 1584,-223.5 1512,-245"/>
<text text-anchor="middle" x="1512" y="-221" font-family="Arial" font-size="10.00">S&#45;2387</text>
</g>
<!-- C&#45;0205 -->
<g id="node5" class="node">
<title>C&#45;0205</title>
<ellipse fill="tomato" stroke="black" cx="725" cy="-1233.5" rx="72" ry="21.5"/>
<text text-anchor="middle" x="725" y="-1231" font-family="Arial" font-size="10.00">C&#45;0205</text>
</g>
<!-- C&#45;0893 -->
<g id="node46" class="node">
<title>C&#45;0893</title>
<ellipse fill="mediumseagreen" stroke="black" cx="905" cy="-1031.5" rx="72" ry="21.5"/>
<text text-anchor="middle" x="905" y="-1029" font-family="Arial" font-size="10.00">C&#45;0893</text>
</g>
<!-- C&#45;0205&#45;&gt;C&#45;0893 -->
<g id="edge49" class="edge">
<title>C&#45;0205&#45;&gt;C&#45;0893</title>
<path fill="none" stroke="blue" stroke-dasharray="5,2" d="M770,-1216.58C770,-1167.91 770,-1031 770,-1031 770,-1031 825.76,-1031 825.76,-1031"/>
<polygon fill="blue" stroke="blue" points="825.76,-1033.45 832.76,-1031 825.76,-1028.55 825.76,-1033.45"/>
</g>
<!-- C&#45;0408 -->
<g id="node6" class="node">
<title>C&#45;0408</title>
<ellipse fill="mediumseagreen" stroke="black" cx="590" cy="-728.5" rx="72" ry="21.5"/>
<text text-anchor="middle" x="590" y="-726" font-family="Arial" font-size="10.00">C&#45;0408</text>
</g>
<!-- R&#45;139 -->
<g id="node22" class="node">
<title>R&#45;139</title>
<polygon fill="mediumseagreen" stroke="black" points="392,-618.59 392,-636.41 349.82,-649 290.18,-649 248,-636.41 248,-618.59 290.18,-606 349.82,-606 392,-618.59"/>
<text text-anchor="middle" x="320" y="-625" font-family="Arial" font-size="10.00">R&#45;139</text>
</g>
<!-- C&#45;0408&#45;&gt;R&#45;139 -->
<g id="edge40" class="edge">
<title>C&#45;0408&#45;&gt;R&#45;139</title>
<path fill="none" stroke="#4d4d4d" d="M532.67,-715.23C532.67,-687.72 532.67,-627 532.67,-627 532.67,-627 399.3,-627 399.3,-627"/>
<polygon fill="#4d4d4d" stroke="#4d4d4d" points="399.3,-624.55 392.3,-627 399.3,-629.45 399.3,-624.55"/>
</g>
<!-- S&#45;1356 -->
<g id="node7" class="node">
<title>S&#45;1356</title>
<polygon fill="mediumseagreen" stroke="black" points="1692,-346 1620,-324.5 1692,-303 1764,-324.5 1692,-346"/>
<text text-anchor="middle" x="1692" y="-322" font-family="Arial" font-size="10.00">S&#45;1356</text>
</g>
<!-- C&#45;0768 -->
<g id="node8" class="node">
<title>C&#45;0768</title>
<ellipse fill="mediumseagreen" stroke="black" cx="432" cy="-223.5" rx="72" ry="21.5"/>
<text text-anchor="middle" x="432" y="-221" font-family="Arial" font-size="10.00">C&#45;0768</text>
</g>
<!-- C&#45;0768&#45;&gt;R&#45;168 -->
<g id="edge28" class="edge">
<title>C&#45;0768&#45;&gt;R&#45;168</title>
<path fill="none" stroke="#4d4d4d" d="M470.5,-204.98C470.5,-204.98 470.5,-148.59 470.5,-148.59"/>
<polygon fill="#4d4d4d" stroke="#4d4d4d" points="472.95,-148.59 470.5,-141.59 468.05,-148.59 472.95,-148.59"/>
</g>
<!-- S&#45;282 -->
<g id="node9" class="node">
<title>S&#45;282</title>
<polygon fill="mediumseagreen" stroke="black" points="815,-952 743,-930.5 815,-909 887,-930.5 815,-952"/>
<text text-anchor="middle" x="815" y="-928" font-family="Arial" font-size="10.00">S&#45;282</text>
</g>
<!-- S&#45;287 -->
<g id="node10" class="node">
<title>S&#45;287</title>
<polygon fill="mediumseagreen" stroke="black" points="905,-750 833,-728.5 905,-707 977,-728.5 905,-750"/>
<text text-anchor="middle" x="905" y="-726" font-family="Arial" font-size="10.00">S&#45;287</text>
</g>
<!-- S&#45;269 -->
<g id="node11" class="node">
<title>S&#45;269</title>
<polygon fill="mediumseagreen" stroke="black" points="1872,-346 1800,-324.5 1872,-303 1944,-324.5 1872,-346"/>
<text text-anchor="middle" x="1872" y="-322" font-family="Arial" font-size="10.00">S&#45;269</text>
</g>
<!-- C&#45;0409 -->
<g id="node12" class="node">
<title>C&#45;0409</title>
<ellipse fill="mediumseagreen" stroke="black" cx="286" cy="-526.5" rx="72" ry="21.5"/>
<text text-anchor="middle" x="286" y="-524" font-family="Arial" font-size="10.00">C&#45;0409</text>
</g>
<!-- C&#45;0786 -->
<g id="node13" class="node">
<title>C&#45;0786</title>
<ellipse fill="tomato" stroke="black" cx="72" cy="-425.5" rx="72" ry="21.5"/>
<text text-anchor="middle" x="72" y="-423" font-family="Arial" font-size="10.00">C&#45;0786</text>
</g>
<!-- C&#45;0409&#45;&gt;C&#45;0786 -->
<g id="edge42" class="edge">
<title>C&#45;0409&#45;&gt;C&#45;0786</title>
<path fill="none" stroke="#4d4d4d" d="M213.85,-526C151.72,-526 72,-526 72,-526 72,-526 72,-454.31 72,-454.31"/>
<polygon fill="#4d4d4d" stroke="#4d4d4d" points="74.45,-454.31 72,-447.31 69.55,-454.31 74.45,-454.31"/>
</g>
<!-- S&#45;286 -->
<g id="node47" class="node">
<title>S&#45;286</title>
<polygon fill="mediumseagreen" stroke="black" points="252,-447 180,-425.5 252,-404 324,-425.5 252,-447"/>
<text text-anchor="middle" x="252" y="-423" font-family="Arial" font-size="10.00">S&#45;286</text>
</g>
<!-- C&#45;0409&#45;&gt;S&#45;286 -->
<g id="edge45" class="edge">
<title>C&#45;0409&#45;&gt;S&#45;286</title>
<path fill="none" stroke="#4d4d4d" d="M269,-505.57C269,-505.57 269,-449.07 269,-449.07"/>
<polygon fill="#4d4d4d" stroke="#4d4d4d" points="271.45,-449.07 269,-442.07 266.55,-449.07 271.45,-449.07"/>
</g>
<!-- C&#45;0785 -->
<g id="node49" class="node">
<title>C&#45;0785</title>
<ellipse fill="mediumseagreen" stroke="black" cx="432" cy="-425.5" rx="72" ry="21.5"/>
<text text-anchor="middle" x="432" y="-423" font-family="Arial" font-size="10.00">C&#45;0785</text>
</g>
<!-- C&#45;0409&#45;&gt;C&#45;0785 -->
<g id="edge43" class="edge">
<title>C&#45;0409&#45;&gt;C&#45;0785</title>
<path fill="none" stroke="#4d4d4d" d="M352.5,-518.11C352.5,-494.99 352.5,-432 352.5,-432 352.5,-432 356.22,-432 356.22,-432"/>
<polygon fill="#4d4d4d" stroke="#4d4d4d" points="356.22,-434.45 363.22,-432 356.22,-429.55 356.22,-434.45"/>
</g>
<!-- ext_circ_208_23_ -->
<g id="node51" class="node">
<title>ext_circ_208_23_</title>
<polygon fill="lightpink" stroke="darkorange" stroke-dasharray="5,2" points="144,-245 0,-245 0,-202 144,-202 144,-245"/>
<text text-anchor="middle" x="72" y="-226.5" font-family="Arial" font-size="10.00">Circuito:</text>
<text text-anchor="middle" x="72" y="-215.5" font-family="Arial" font-size="10.00">208&#45;23&#45;</text>
</g>
<!-- C&#45;0786&#45;&gt;ext_circ_208_23_ -->
<g id="edge57" class="edge">
<title>C&#45;0786&#45;&gt;ext_circ_208_23_</title>
<path fill="none" stroke="darkorange" stroke-dasharray="5,2" d="M70.5,-403.88C70.5,-403.88 70.5,-252.27 70.5,-252.27"/>
<polygon fill="darkorange" stroke="darkorange" points="72.95,-252.27 70.5,-245.27 68.05,-252.27 72.95,-252.27"/>
</g>
<!-- C&#45;0116 -->
<g id="node14" class="node">
<title>C&#45;0116</title>
<ellipse fill="mediumseagreen" stroke="black" cx="995" cy="-930.5" rx="72" ry="21.5"/>
<text text-anchor="middle" x="995" y="-928" font-family="Arial" font-size="10.00">C&#45;0116</text>
</g>
<!-- C&#45;0230 -->
<g id="node36" class="node">
<title>C&#45;0230</title>
<ellipse fill="mediumseagreen" stroke="black" cx="995" cy="-829.5" rx="72" ry="21.5"/>
<text text-anchor="middle" x="995" y="-827" font-family="Arial" font-size="10.00">C&#45;0230</text>
</g>
<!-- C&#45;0116&#45;&gt;C&#45;0230 -->
<g id="edge8" class="edge">
<title>C&#45;0116&#45;&gt;C&#45;0230</title>
<path fill="none" stroke="#4d4d4d" d="M995,-908.58C995,-908.58 995,-858.03 995,-858.03"/>
<polygon fill="#4d4d4d" stroke="#4d4d4d" points="997.45,-858.03 995,-851.03 992.55,-858.03 997.45,-858.03"/>
</g>
<!-- S&#45;1252 -->
<g id="node15" class="node">
<title>S&#45;1252</title>
<polygon fill="mediumseagreen" stroke="black" points="419,-346 347,-324.5 419,-303 491,-324.5 419,-346"/>
<text text-anchor="middle" x="419" y="-322" font-family="Arial" font-size="10.00">S&#45;1252</text>
</g>
<!-- S&#45;2153 -->
<g id="node30" class="node">
<title>S&#45;2153</title>
<polygon fill="mediumseagreen" stroke="black" points="252,-245 180,-223.5 252,-202 324,-223.5 252,-245"/>
<text text-anchor="middle" x="252" y="-221" font-family="Arial" font-size="10.00">S&#45;2153</text>
</g>
<!-- S&#45;1252&#45;&gt;S&#45;2153 -->
<g id="edge16" class="edge">
<title>S&#45;1252&#45;&gt;S&#45;2153</title>
<path fill="none" stroke="#4d4d4d" d="M353.5,-322.38C353.5,-307.8 353.5,-223 353.5,-223 353.5,-223 329.5,-223 329.5,-223"/>
<polygon fill="#4d4d4d" stroke="#4d4d4d" points="329.5,-220.55 322.5,-223 329.5,-225.45 329.5,-220.55"/>
</g>
<!-- S&#45;2503 -->
<g id="node16" class="node">
<title>S&#45;2503</title>
<polygon fill="mediumseagreen" stroke="black" points="612,-245 540,-223.5 612,-202 684,-223.5 612,-245"/>
<text text-anchor="middle" x="612" y="-221" font-family="Arial" font-size="10.00">S&#45;2503</text>
</g>
<!-- S&#45;298 -->
<g id="node17" class="node">
<title>S&#45;298</title>
<polygon fill="mediumseagreen" stroke="black" points="2052,-346 1980,-324.5 2052,-303 2124,-324.5 2052,-346"/>
<text text-anchor="middle" x="2052" y="-322" font-family="Arial" font-size="10.00">S&#45;298</text>
</g>
<!-- R&#45;053 -->
<g id="node18" class="node">
<title>R&#45;053</title>
<polygon fill="mediumseagreen" stroke="black" points="1157,-719.59 1157,-737.41 1114.82,-750 1055.18,-750 1013,-737.41 1013,-719.59 1055.18,-707 1114.82,-707 1157,-719.59"/>
<text text-anchor="middle" x="1085" y="-726" font-family="Arial" font-size="10.00">R&#45;053</text>
</g>
<!-- R&#45;053&#45;&gt;C&#45;1004 -->
<g id="edge12" class="edge">
<title>R&#45;053&#45;&gt;C&#45;1004</title>
<path fill="none" stroke="#4d4d4d" d="M1028.5,-714.88C1028.5,-714.88 1028.5,-647.91 1028.5,-647.91"/>
<polygon fill="#4d4d4d" stroke="#4d4d4d" points="1030.95,-647.91 1028.5,-640.91 1026.05,-647.91 1030.95,-647.91"/>
</g>
<!-- R&#45;053&#45;&gt;S&#45;1092 -->
<g id="edge30" class="edge">
<title>R&#45;053&#45;&gt;S&#45;1092</title>
<path fill="none" stroke="#4d4d4d" d="M1105.67,-706.58C1105.67,-706.58 1105.67,-642.21 1105.67,-642.21"/>
<polygon fill="#4d4d4d" stroke="#4d4d4d" points="1108.12,-642.21 1105.67,-635.21 1103.22,-642.21 1108.12,-642.21"/>
</g>
<!-- C&#45;0654 -->
<g id="node32" class="node">
<title>C&#45;0654</title>
<ellipse fill="tomato" stroke="black" cx="1332" cy="-627.5" rx="72" ry="21.5"/>
<text text-anchor="middle" x="1332" y="-625" font-family="Arial" font-size="10.00">C&#45;0654</text>
</g>
<!-- R&#45;053&#45;&gt;C&#45;0654 -->
<g id="edge11" class="edge">
<title>R&#45;053&#45;&gt;C&#45;0654</title>
<path fill="none" stroke="#4d4d4d" d="M1131.33,-711.68C1131.33,-696.99 1131.33,-678 1131.33,-678 1131.33,-678 1298.5,-678 1298.5,-678 1298.5,-678 1298.5,-653.59 1298.5,-653.59"/>
<polygon fill="#4d4d4d" stroke="#4d4d4d" points="1300.95,-653.59 1298.5,-646.59 1296.05,-653.59 1300.95,-653.59"/>
</g>
<!-- S&#45;288 -->
<g id="node19" class="node">
<title>S&#45;288</title>
<polygon fill="mediumseagreen" stroke="black" points="2232,-346 2160,-324.5 2232,-303 2304,-324.5 2232,-346"/>
<text text-anchor="middle" x="2232" y="-322" font-family="Arial" font-size="10.00">S&#45;288</text>
</g>
<!-- 208&#45;25&#45; -->
<g id="node20" class="node">
<title>208&#45;25&#45;</title>
<polygon fill="gold" stroke="black" points="1292,-1430.59 1292,-1448.41 1249.82,-1461 1190.18,-1461 1148,-1448.41 1148,-1430.59 1190.18,-1418 1249.82,-1418 1292,-1430.59"/>
<polygon fill="none" stroke="black" points="1296,-1427.61 1296,-1451.39 1250.41,-1465 1189.59,-1465 1144,-1451.39 1144,-1427.61 1189.59,-1414 1250.41,-1414 1296,-1427.61"/>
<text text-anchor="middle" x="1220" y="-1437" font-family="Arial" font-size="10.00">208&#45;25&#45;</text>
</g>
<!-- C&#45;0099 -->
<g id="node40" class="node">
<title>C&#45;0099</title>
<ellipse fill="mediumseagreen" stroke="black" cx="1085" cy="-1334.5" rx="72" ry="21.5"/>
<text text-anchor="middle" x="1085" y="-1332" font-family="Arial" font-size="10.00">C&#45;0099</text>
</g>
<!-- 208&#45;25&#45;&#45;&gt;C&#45;0099 -->
<g id="edge1" class="edge">
<title>208&#45;25&#45;&#45;&gt;C&#45;0099</title>
<path fill="none" stroke="#4d4d4d" d="M1150.5,-1425.34C1150.5,-1425.34 1150.5,-1350.51 1150.5,-1350.51"/>
<polygon fill="#4d4d4d" stroke="#4d4d4d" points="1152.95,-1350.51 1150.5,-1343.51 1148.05,-1350.51 1152.95,-1350.51"/>
</g>
<!-- C&#45;0171 -->
<g id="node45" class="node">
<title>C&#45;0171</title>
<ellipse fill="tomato" stroke="black" cx="1355" cy="-1334.5" rx="72" ry="21.5"/>
<text text-anchor="middle" x="1355" y="-1332" font-family="Arial" font-size="10.00">C&#45;0171</text>
</g>
<!-- 208&#45;25&#45;&#45;&gt;C&#45;0171 -->
<g id="edge48" class="edge">
<title>208&#45;25&#45;&#45;&gt;C&#45;0171</title>
<path fill="none" stroke="#4d4d4d" d="M1289.5,-1425.34C1289.5,-1425.34 1289.5,-1350.51 1289.5,-1350.51"/>
<polygon fill="#4d4d4d" stroke="#4d4d4d" points="1291.95,-1350.51 1289.5,-1343.51 1287.05,-1350.51 1291.95,-1350.51"/>
</g>
<!-- C&#45;1005 -->
<g id="node21" class="node">
<title>C&#45;1005</title>
<ellipse fill="mediumseagreen" stroke="black" cx="972" cy="-425.5" rx="72" ry="21.5"/>
<text text-anchor="middle" x="972" y="-423" font-family="Arial" font-size="10.00">C&#45;1005</text>
</g>
<!-- C&#45;1005&#45;&gt;S&#45;1252 -->
<g id="edge15" class="edge">
<title>C&#45;1005&#45;&gt;S&#45;1252</title>
<path fill="none" stroke="#4d4d4d" d="M908.95,-436C785.83,-436 525.33,-436 525.33,-436 525.33,-436 525.33,-331 525.33,-331 525.33,-331 476.36,-331 476.36,-331"/>
<polygon fill="#4d4d4d" stroke="#4d4d4d" points="476.36,-328.55 469.36,-331 476.36,-333.45 476.36,-328.55"/>
</g>
<!-- S&#45;1247 -->
<g id="node24" class="node">
<title>S&#45;1247</title>
<polygon fill="mediumseagreen" stroke="black" points="612,-346 540,-324.5 612,-303 684,-324.5 612,-346"/>
<text text-anchor="middle" x="612" y="-322" font-family="Arial" font-size="10.00">S&#45;1247</text>
</g>
<!-- C&#45;1005&#45;&gt;S&#45;1247 -->
<g id="edge23" class="edge">
<title>C&#45;1005&#45;&gt;S&#45;1247</title>
<path fill="none" stroke="#4d4d4d" d="M900,-425C811.53,-425 673,-425 673,-425 673,-425 673,-334.84 673,-334.84"/>
<polygon fill="#4d4d4d" stroke="#4d4d4d" points="675.45,-334.84 673,-327.84 670.55,-334.84 675.45,-334.84"/>
</g>
<!-- S&#45;2362 -->
<g id="node27" class="node">
<title>S&#45;2362</title>
<polygon fill="mediumseagreen" stroke="black" points="792,-346 720,-324.5 792,-303 864,-324.5 792,-346"/>
<text text-anchor="middle" x="792" y="-322" font-family="Arial" font-size="10.00">S&#45;2362</text>
</g>
<!-- C&#45;1005&#45;&gt;S&#45;2362 -->
<g id="edge20" class="edge">
<title>C&#45;1005&#45;&gt;S&#45;2362</title>
<path fill="none" stroke="#4d4d4d" d="M910.97,-414C879.86,-414 848.5,-414 848.5,-414 848.5,-414 848.5,-336.31 848.5,-336.31"/>
<polygon fill="#4d4d4d" stroke="#4d4d4d" points="850.95,-336.31 848.5,-329.31 846.05,-336.31 850.95,-336.31"/>
</g>
<!-- C&#45;0330 -->
<g id="node37" class="node">
<title>C&#45;0330</title>
<ellipse fill="tomato" stroke="black" cx="972" cy="-324.5" rx="72" ry="21.5"/>
<text text-anchor="middle" x="972" y="-322" font-family="Arial" font-size="10.00">C&#45;0330</text>
</g>
<!-- C&#45;1005&#45;&gt;C&#45;0330 -->
<g id="edge17" class="edge">
<title>C&#45;1005&#45;&gt;C&#45;0330</title>
<path fill="none" stroke="#4d4d4d" d="M972,-403.58C972,-403.58 972,-353.03 972,-353.03"/>
<polygon fill="#4d4d4d" stroke="#4d4d4d" points="974.45,-353.03 972,-346.03 969.55,-353.03 974.45,-353.03"/>
</g>
<!-- S&#45;939 -->
<g id="node43" class="node">
<title>S&#45;939</title>
<polygon fill="tomato" stroke="black" points="1152,-346 1080,-324.5 1152,-303 1224,-324.5 1152,-346"/>
<text text-anchor="middle" x="1152" y="-322" font-family="Arial" font-size="10.00">S&#45;939</text>
</g>
<!-- C&#45;1005&#45;&gt;S&#45;939 -->
<g id="edge21" class="edge">
<title>C&#45;1005&#45;&gt;S&#45;939</title>
<path fill="none" stroke="#4d4d4d" d="M1018.38,-409C1064.37,-409 1128,-409 1128,-409 1128,-409 1128,-345.83 1128,-345.83"/>
<polygon fill="#4d4d4d" stroke="#4d4d4d" points="1130.45,-345.83 1128,-338.83 1125.55,-345.83 1130.45,-345.83"/>
</g>
<!-- S&#45;856 -->
<g id="node44" class="node">
<title>S&#45;856</title>
<polygon fill="mediumseagreen" stroke="black" points="1332,-346 1260,-324.5 1332,-303 1404,-324.5 1332,-346"/>
<text text-anchor="middle" x="1332" y="-322" font-family="Arial" font-size="10.00">S&#45;856</text>
</g>
<!-- C&#45;1005&#45;&gt;S&#45;856 -->
<g id="edge22" class="edge">
<title>C&#45;1005&#45;&gt;S&#45;856</title>
<path fill="none" stroke="#4d4d4d" d="M1041.62,-420C1140.04,-420 1308,-420 1308,-420 1308,-420 1308,-346 1308,-346"/>
<polygon fill="#4d4d4d" stroke="#4d4d4d" points="1310.45,-346 1308,-339 1305.55,-346 1310.45,-346"/>
</g>
<!-- S&#45;2534 -->
<g id="node48" class="node">
<title>S&#45;2534</title>
<polygon fill="mediumseagreen" stroke="black" points="1512,-346 1440,-324.5 1512,-303 1584,-324.5 1512,-346"/>
<text text-anchor="middle" x="1512" y="-322" font-family="Arial" font-size="10.00">S&#45;2534</text>
</g>
<!-- C&#45;1005&#45;&gt;S&#45;2534 -->
<g id="edge18" class="edge">
<title>C&#45;1005&#45;&gt;S&#45;2534</title>
<path fill="none" stroke="#4d4d4d" d="M1044.03,-425C1183.87,-425 1478.5,-425 1478.5,-425 1478.5,-425 1478.5,-343.03 1478.5,-343.03"/>
<polygon fill="#4d4d4d" stroke="#4d4d4d" points="1480.95,-343.03 1478.5,-336.03 1476.05,-343.03 1480.95,-343.03"/>
</g>
<!-- R&#45;139&#45;&gt;C&#45;0409 -->
<g id="edge41" class="edge">
<title>R&#45;139&#45;&gt;C&#45;0409</title>
<path fill="none" stroke="#4d4d4d" d="M284.67,-607.55C284.67,-607.55 284.67,-555.16 284.67,-555.16"/>
<polygon fill="#4d4d4d" stroke="#4d4d4d" points="287.12,-555.16 284.67,-548.16 282.22,-555.16 287.12,-555.16"/>
</g>
<!-- C&#45;0891 -->
<g id="node23" class="node">
<title>C&#45;0891</title>
<ellipse fill="mediumseagreen" stroke="black" cx="905" cy="-1233.5" rx="72" ry="21.5"/>
<text text-anchor="middle" x="905" y="-1231" font-family="Arial" font-size="10.00">C&#45;0891</text>
</g>
<!-- R&#45;207 -->
<g id="node39" class="node">
<title>R&#45;207</title>
<polygon fill="mediumseagreen" stroke="black" points="977,-1123.59 977,-1141.41 934.82,-1154 875.18,-1154 833,-1141.41 833,-1123.59 875.18,-1111 934.82,-1111 977,-1123.59"/>
<text text-anchor="middle" x="905" y="-1130" font-family="Arial" font-size="10.00">R&#45;207</text>
</g>
<!-- C&#45;0891&#45;&gt;R&#45;207 -->
<g id="edge4" class="edge">
<title>C&#45;0891&#45;&gt;R&#45;207</title>
<path fill="none" stroke="#4d4d4d" d="M905,-1211.58C905,-1211.58 905,-1161.03 905,-1161.03"/>
<polygon fill="#4d4d4d" stroke="#4d4d4d" points="907.45,-1161.03 905,-1154.03 902.55,-1161.03 907.45,-1161.03"/>
</g>
<!-- S&#45;1247&#45;&gt;C&#45;0768 -->
<g id="edge27" class="edge">
<title>S&#45;1247&#45;&gt;C&#45;0768</title>
<path fill="none" stroke="#4d4d4d" d="M565.1,-317C533.48,-317 497.5,-317 497.5,-317 497.5,-317 497.5,-239.47 497.5,-239.47"/>
<polygon fill="#4d4d4d" stroke="#4d4d4d" points="499.95,-239.47 497.5,-232.47 495.05,-239.47 499.95,-239.47"/>
</g>
<!-- S&#45;1247&#45;&gt;S&#45;2503 -->
<g id="edge26" class="edge">
<title>S&#45;1247&#45;&gt;S&#45;2503</title>
<path fill="none" stroke="#4d4d4d" d="M588,-310.03C588,-310.03 588,-244.94 588,-244.94"/>
<polygon fill="#4d4d4d" stroke="#4d4d4d" points="590.45,-244.94 588,-237.94 585.55,-244.94 590.45,-244.94"/>
</g>
<!-- S&#45;1681 -->
<g id="node25" class="node">
<title>S&#45;1681</title>
<polygon fill="mediumseagreen" stroke="black" points="792,-245 720,-223.5 792,-202 864,-223.5 792,-245"/>
<text text-anchor="middle" x="792" y="-221" font-family="Arial" font-size="10.00">S&#45;1681</text>
</g>
<!-- S&#45;1247&#45;&gt;S&#45;1681 -->
<g id="edge24" class="edge">
<title>S&#45;1247&#45;&gt;S&#45;1681</title>
<path fill="none" stroke="#4d4d4d" d="M662.25,-331C685.48,-331 708,-331 708,-331 708,-331 708,-223 708,-223 708,-223 714.5,-223 714.5,-223"/>
<polygon fill="#4d4d4d" stroke="#4d4d4d" points="714.5,-225.45 721.5,-223 714.5,-220.55 714.5,-225.45"/>
</g>
<!-- C&#45;0767 -->
<g id="node28" class="node">
<title>C&#45;0767</title>
<ellipse fill="tomato" stroke="black" cx="842" cy="-122.5" rx="72" ry="21.5"/>
<text text-anchor="middle" x="842" y="-120" font-family="Arial" font-size="10.00">C&#45;0767</text>
</g>
<!-- S&#45;1247&#45;&gt;C&#45;0767 -->
<g id="edge29" class="edge">
<title>S&#45;1247&#45;&gt;C&#45;0767</title>
<path fill="none" stroke="#4d4d4d" d="M658.91,-317C678.15,-317 696,-317 696,-317 696,-317 696,-133 696,-133 696,-133 771.81,-133 771.81,-133"/>
<polygon fill="#4d4d4d" stroke="#4d4d4d" points="771.81,-135.45 778.81,-133 771.81,-130.55 771.81,-135.45"/>
</g>
<!-- S&#45;940 -->
<g id="node41" class="node">
<title>S&#45;940</title>
<polygon fill="mediumseagreen" stroke="black" points="1046,-245 974,-223.5 1046,-202 1118,-223.5 1046,-245"/>
<text text-anchor="middle" x="1046" y="-221" font-family="Arial" font-size="10.00">S&#45;940</text>
</g>
<!-- S&#45;1247&#45;&gt;S&#45;940 -->
<g id="edge25" class="edge">
<title>S&#45;1247&#45;&gt;S&#45;940</title>
<path fill="none" stroke="#4d4d4d" d="M636,-309.96C636,-290.67 636,-259 636,-259 636,-259 997.33,-259 997.33,-259 997.33,-259 997.33,-237.68 997.33,-237.68"/>
<polygon fill="#4d4d4d" stroke="#4d4d4d" points="999.78,-237.68 997.33,-230.68 994.88,-237.68 999.78,-237.68"/>
</g>
<!-- R&#45;174 -->
<g id="node26" class="node">
<title>R&#45;174</title>
<polygon fill="tomato" stroke="black" points="285,-315.59 285,-333.41 242.82,-346 183.18,-346 141,-333.41 141,-315.59 183.18,-303 242.82,-303 285,-315.59"/>
<text text-anchor="middle" x="213" y="-322" font-family="Arial" font-size="10.00">R&#45;174</text>
</g>
<!-- R&#45;174&#45;&gt;ext_circ_208_23_ -->
<g id="edge58" class="edge">
<title>R&#45;174&#45;&gt;ext_circ_208_23_</title>
<path fill="none" stroke="darkorange" stroke-dasharray="5,2" d="M162,-309.08C162,-280.69 162,-223 162,-223 162,-223 151.22,-223 151.22,-223"/>
<polygon fill="darkorange" stroke="darkorange" points="151.22,-220.55 144.22,-223 151.22,-225.45 151.22,-220.55"/>
</g>
<!-- C&#45;0767&#45;&gt;ext_circ_205_23_ -->
<g id="edge54" class="edge">
<title>C&#45;0767&#45;&gt;ext_circ_205_23_</title>
<path fill="none" stroke="darkorange" stroke-dasharray="5,2" d="M769.93,-122C749.89,-122 733.5,-122 733.5,-122 733.5,-122 733.5,-50.31 733.5,-50.31"/>
<polygon fill="darkorange" stroke="darkorange" points="735.95,-50.31 733.5,-43.31 731.05,-50.31 735.95,-50.31"/>
</g>
<!-- C&#45;0696 -->
<g id="node34" class="node">
<title>C&#45;0696</title>
<ellipse fill="mediumseagreen" stroke="black" cx="1872" cy="-425.5" rx="72" ry="21.5"/>
<text text-anchor="middle" x="1872" y="-423" font-family="Arial" font-size="10.00">C&#45;0696</text>
</g>
<!-- C&#45;0695&#45;&gt;C&#45;0696 -->
<g id="edge33" class="edge">
<title>C&#45;0695&#45;&gt;C&#45;0696</title>
<path fill="none" stroke="#4d4d4d" d="M1176,-505.96C1176,-479.26 1176,-436 1176,-436 1176,-436 1802.01,-436 1802.01,-436"/>
<polygon fill="#4d4d4d" stroke="#4d4d4d" points="1802.01,-438.45 1809.01,-436 1802.01,-433.55 1802.01,-438.45"/>
</g>
<!-- S&#45;1237 -->
<g id="node31" class="node">
<title>S&#45;1237</title>
<polygon fill="mediumseagreen" stroke="black" points="1085,-1255 1013,-1233.5 1085,-1212 1157,-1233.5 1085,-1255"/>
<text text-anchor="middle" x="1085" y="-1231" font-family="Arial" font-size="10.00">S&#45;1237</text>
</g>
<!-- C&#45;0654&#45;&gt;C&#45;1005 -->
<g id="edge50" class="edge">
<title>C&#45;0654&#45;&gt;C&#45;1005</title>
<path fill="none" stroke="blue" stroke-dasharray="5,2" d="M1264.25,-620C1251.46,-620 1242,-620 1242,-620 1242,-620 1242,-430 1242,-430 1242,-430 1049.59,-430 1049.59,-430"/>
<polygon fill="blue" stroke="blue" points="1049.59,-427.55 1042.59,-430 1049.59,-432.45 1049.59,-427.55"/>
</g>
<!-- C&#45;0698&#45;&gt;C&#45;0696 -->
<g id="edge55" class="edge">
<title>C&#45;0698&#45;&gt;C&#45;0696</title>
<path fill="none" stroke="blue" stroke-dasharray="5,2" d="M1356,-505.8C1356,-480.5 1356,-441 1356,-441 1356,-441 1815.05,-441 1815.05,-441"/>
<polygon fill="blue" stroke="blue" points="1815.05,-443.45 1822.05,-441 1815.05,-438.55 1815.05,-443.45"/>
</g>
<!-- C&#45;0696&#45;&gt;S&#45;1356 -->
<g id="edge35" class="edge">
<title>C&#45;0696&#45;&gt;S&#45;1356</title>
<path fill="none" stroke="#4d4d4d" d="M1811.06,-414C1758.84,-414 1692,-414 1692,-414 1692,-414 1692,-353.17 1692,-353.17"/>
<polygon fill="#4d4d4d" stroke="#4d4d4d" points="1694.45,-353.17 1692,-346.17 1689.55,-353.17 1694.45,-353.17"/>
</g>
<!-- C&#45;0696&#45;&gt;S&#45;269 -->
<g id="edge37" class="edge">
<title>C&#45;0696&#45;&gt;S&#45;269</title>
<path fill="none" stroke="#4d4d4d" d="M1872,-403.58C1872,-403.58 1872,-353.03 1872,-353.03"/>
<polygon fill="#4d4d4d" stroke="#4d4d4d" points="1874.45,-353.03 1872,-346.03 1869.55,-353.03 1874.45,-353.03"/>
</g>
<!-- C&#45;0696&#45;&gt;S&#45;298 -->
<g id="edge36" class="edge">
<title>C&#45;0696&#45;&gt;S&#45;298</title>
<path fill="none" stroke="#4d4d4d" d="M1939.54,-418C1990.61,-418 2052,-418 2052,-418 2052,-418 2052,-353.19 2052,-353.19"/>
<polygon fill="#4d4d4d" stroke="#4d4d4d" points="2054.45,-353.19 2052,-346.19 2049.55,-353.19 2054.45,-353.19"/>
</g>
<!-- C&#45;0696&#45;&gt;S&#45;288 -->
<g id="edge34" class="edge">
<title>C&#45;0696&#45;&gt;S&#45;288</title>
<path fill="none" stroke="#4d4d4d" d="M1940.99,-432C2045.52,-432 2232,-432 2232,-432 2232,-432 2232,-353.25 2232,-353.25"/>
<polygon fill="#4d4d4d" stroke="#4d4d4d" points="2234.45,-353.25 2232,-346.25 2229.55,-353.25 2234.45,-353.25"/>
</g>
<!-- S&#45;2061 -->
<g id="node35" class="node">
<title>S&#45;2061</title>
<polygon fill="mediumseagreen" stroke="black" points="1265,-1255 1193,-1233.5 1265,-1212 1337,-1233.5 1265,-1255"/>
<text text-anchor="middle" x="1265" y="-1231" font-family="Arial" font-size="10.00">S&#45;2061</text>
</g>
<!-- C&#45;0230&#45;&gt;C&#45;0408 -->
<g id="edge39" class="edge">
<title>C&#45;0230&#45;&gt;C&#45;0408</title>
<path fill="none" stroke="#4d4d4d" d="M923.01,-829C823.89,-829 657.5,-829 657.5,-829 657.5,-829 657.5,-743.05 657.5,-743.05"/>
<polygon fill="#4d4d4d" stroke="#4d4d4d" points="659.95,-743.05 657.5,-736.05 655.05,-743.05 659.95,-743.05"/>
</g>
<!-- C&#45;0230&#45;&gt;S&#45;287 -->
<g id="edge9" class="edge">
<title>C&#45;0230&#45;&gt;S&#45;287</title>
<path fill="none" stroke="#4d4d4d" d="M950,-812.37C950,-812.37 950,-743.78 950,-743.78"/>
<polygon fill="#4d4d4d" stroke="#4d4d4d" points="952.45,-743.78 950,-736.78 947.55,-743.78 952.45,-743.78"/>
</g>
<!-- C&#45;0230&#45;&gt;R&#45;053 -->
<g id="edge10" class="edge">
<title>C&#45;0230&#45;&gt;R&#45;053</title>
<path fill="none" stroke="#4d4d4d" d="M1040,-812.37C1040,-812.37 1040,-752.72 1040,-752.72"/>
<polygon fill="#4d4d4d" stroke="#4d4d4d" points="1042.45,-752.72 1040,-745.72 1037.55,-752.72 1042.45,-752.72"/>
</g>
<!-- C&#45;0407 -->
<g id="node38" class="node">
<title>C&#45;0407</title>
<ellipse fill="tomato" stroke="black" cx="1265" cy="-728.5" rx="72" ry="21.5"/>
<text text-anchor="middle" x="1265" y="-726" font-family="Arial" font-size="10.00">C&#45;0407</text>
</g>
<!-- C&#45;0230&#45;&gt;C&#45;0407 -->
<g id="edge38" class="edge">
<title>C&#45;0230&#45;&gt;C&#45;0407</title>
<path fill="none" stroke="#4d4d4d" d="M1067,-829C1146.98,-829 1265,-829 1265,-829 1265,-829 1265,-757.31 1265,-757.31"/>
<polygon fill="#4d4d4d" stroke="#4d4d4d" points="1267.45,-757.31 1265,-750.31 1262.55,-757.31 1267.45,-757.31"/>
</g>
<!-- C&#45;0330&#45;&gt;S&#45;298 -->
<g id="edge51" class="edge">
<title>C&#45;0330&#45;&gt;S&#45;298</title>
<path fill="none" stroke="blue" stroke-dasharray="5,2" d="M1020.67,-308.52C1020.67,-293.73 1020.67,-274 1020.67,-274 1020.67,-274 2052,-274 2052,-274 2052,-274 2052,-295.79 2052,-295.79"/>
<polygon fill="blue" stroke="blue" points="2049.55,-295.79 2052,-302.79 2054.45,-295.79 2049.55,-295.79"/>
</g>
<!-- C&#45;0407&#45;&gt;C&#45;0409 -->
<g id="edge56" class="edge">
<title>C&#45;0407&#45;&gt;C&#45;0409</title>
<path fill="none" stroke="blue" stroke-dasharray="5,2" d="M1233,-709C1233,-668.09 1233,-577 1233,-577 1233,-577 321.33,-577 321.33,-577 321.33,-577 321.33,-552.3 321.33,-552.3"/>
<polygon fill="blue" stroke="blue" points="323.78,-552.3 321.33,-545.3 318.88,-552.3 323.78,-552.3"/>
</g>
<!-- R&#45;207&#45;&gt;C&#45;0893 -->
<g id="edge5" class="edge">
<title>R&#45;207&#45;&gt;C&#45;0893</title>
<path fill="none" stroke="#4d4d4d" d="M905,-1110.58C905,-1110.58 905,-1060.03 905,-1060.03"/>
<polygon fill="#4d4d4d" stroke="#4d4d4d" points="907.45,-1060.03 905,-1053.03 902.55,-1060.03 907.45,-1060.03"/>
</g>
<!-- C&#45;0099&#45;&gt;C&#45;0205 -->
<g id="edge2" class="edge">
<title>C&#45;0099&#45;&gt;C&#45;0205</title>
<path fill="none" stroke="#4d4d4d" d="M1016.01,-1341C911.48,-1341 725,-1341 725,-1341 725,-1341 725,-1262.25 725,-1262.25"/>
<polygon fill="#4d4d4d" stroke="#4d4d4d" points="727.45,-1262.25 725,-1255.25 722.55,-1262.25 727.45,-1262.25"/>
</g>
<!-- C&#45;0099&#45;&gt;C&#45;0891 -->
<g id="edge3" class="edge">
<title>C&#45;0099&#45;&gt;C&#45;0891</title>
<path fill="none" stroke="#4d4d4d" d="M1017.46,-1327C966.39,-1327 905,-1327 905,-1327 905,-1327 905,-1262.19 905,-1262.19"/>
<polygon fill="#4d4d4d" stroke="#4d4d4d" points="907.45,-1262.19 905,-1255.19 902.55,-1262.19 907.45,-1262.19"/>
</g>
<!-- C&#45;0099&#45;&gt;S&#45;1237 -->
<g id="edge46" class="edge">
<title>C&#45;0099&#45;&gt;S&#45;1237</title>
<path fill="none" stroke="#4d4d4d" d="M1085,-1312.58C1085,-1312.58 1085,-1262.03 1085,-1262.03"/>
<polygon fill="#4d4d4d" stroke="#4d4d4d" points="1087.45,-1262.03 1085,-1255.03 1082.55,-1262.03 1087.45,-1262.03"/>
</g>
<!-- C&#45;0099&#45;&gt;S&#45;2061 -->
<g id="edge47" class="edge">
<title>C&#45;0099&#45;&gt;S&#45;2061</title>
<path fill="none" stroke="#4d4d4d" d="M1157.02,-1334C1196.7,-1334 1238,-1334 1238,-1334 1238,-1334 1238,-1254.05 1238,-1254.05"/>
<polygon fill="#4d4d4d" stroke="#4d4d4d" points="1240.45,-1254.05 1238,-1247.05 1235.55,-1254.05 1240.45,-1254.05"/>
</g>
<!-- R&#45;243&#45;&gt;C&#45;1005 -->
<g id="edge14" class="edge">
<title>R&#45;243&#45;&gt;C&#45;1005</title>
<path fill="none" stroke="#4d4d4d" d="M972,-504.58C972,-504.58 972,-454.03 972,-454.03"/>
<polygon fill="#4d4d4d" stroke="#4d4d4d" points="974.45,-454.03 972,-447.03 969.55,-454.03 974.45,-454.03"/>
</g>
<!-- S&#45;939&#45;&gt;S&#45;269 -->
<g id="edge52" class="edge">
<title>S&#45;939&#45;&gt;S&#45;269</title>
<path fill="none" stroke="blue" stroke-dasharray="5,2" d="M1171,-308.38C1171,-298.61 1171,-288 1171,-288 1171,-288 1872,-288 1872,-288 1872,-288 1872,-295.85 1872,-295.85"/>
<polygon fill="blue" stroke="blue" points="1869.55,-295.85 1872,-302.85 1874.45,-295.85 1869.55,-295.85"/>
</g>
<!-- ext_circ_208_28_ -->
<g id="node52" class="node">
<title>ext_circ_208_28_</title>
<polygon fill="lightpink" stroke="darkorange" stroke-dasharray="5,2" points="1517,-1255 1373,-1255 1373,-1212 1517,-1212 1517,-1255"/>
<text text-anchor="middle" x="1445" y="-1236.5" font-family="Arial" font-size="10.00">Circuito:</text>
<text text-anchor="middle" x="1445" y="-1225.5" font-family="Arial" font-size="10.00">208&#45;28&#45;</text>
</g>
<!-- C&#45;0171&#45;&gt;ext_circ_208_28_ -->
<g id="edge59" class="edge">
<title>C&#45;0171&#45;&gt;ext_circ_208_28_</title>
<path fill="none" stroke="darkorange" stroke-dasharray="5,2" d="M1400,-1317.37C1400,-1317.37 1400,-1262.31 1400,-1262.31"/>
<polygon fill="darkorange" stroke="darkorange" points="1402.45,-1262.31 1400,-1255.31 1397.55,-1262.31 1402.45,-1262.31"/>
</g>
<!-- C&#45;0893&#45;&gt;S&#45;282 -->
<g id="edge6" class="edge">
<title>C&#45;0893&#45;&gt;S&#45;282</title>
<path fill="none" stroke="#4d4d4d" d="M860,-1014.37C860,-1014.37 860,-945.78 860,-945.78"/>
<polygon fill="#4d4d4d" stroke="#4d4d4d" points="862.45,-945.78 860,-938.78 857.55,-945.78 862.45,-945.78"/>
</g>
<!-- C&#45;0893&#45;&gt;C&#45;0116 -->
<g id="edge7" class="edge">
<title>C&#45;0893&#45;&gt;C&#45;0116</title>
<path fill="none" stroke="#4d4d4d" d="M950,-1014.37C950,-1014.37 950,-954.38 950,-954.38"/>
<polygon fill="#4d4d4d" stroke="#4d4d4d" points="952.45,-954.38 950,-947.38 947.55,-954.38 952.45,-954.38"/>
</g>
<!-- S&#45;2534&#45;&gt;S&#45;2387 -->
<g id="edge19" class="edge">
<title>S&#45;2534&#45;&gt;S&#45;2387</title>
<path fill="none" stroke="#4d4d4d" d="M1512,-302.58C1512,-302.58 1512,-252.03 1512,-252.03"/>
<polygon fill="#4d4d4d" stroke="#4d4d4d" points="1514.45,-252.03 1512,-245.03 1509.55,-252.03 1514.45,-252.03"/>
</g>
<!-- C&#45;0785&#45;&gt;R&#45;174 -->
<g id="edge44" class="edge">
<title>C&#45;0785&#45;&gt;R&#45;174</title>
<path fill="none" stroke="#4d4d4d" d="M364.45,-418C348.24,-418 335.5,-418 335.5,-418 335.5,-418 335.5,-324 335.5,-324 335.5,-324 292.32,-324 292.32,-324"/>
<polygon fill="#4d4d4d" stroke="#4d4d4d" points="292.32,-321.55 285.32,-324 292.32,-326.45 292.32,-321.55"/>
</g>
</g>
</svg>
