<?xml version="1.0" encoding="UTF-8" standalone="no"?>
<!DOCTYPE svg PUBLIC "-//W3C//DTD SVG 1.1//EN"
 "http://www.w3.org/Graphics/SVG/1.1/DTD/svg11.dtd">
<!-- Generated by graphviz version 2.50.0 (0)
 -->
<!-- Title: Grafo_Circuito_303_25_ Pages: 1 -->
<svg width="1702pt" height="1556pt"
 viewBox="0.00 0.00 1702.00 1556.00" xmlns="http://www.w3.org/2000/svg" xmlns:xlink="http://www.w3.org/1999/xlink">
<g id="graph0" class="graph" transform="scale(1 1) rotate(0) translate(4 1552)">
<title>Grafo_Circuito_303_25_</title>
<polygon fill="white" stroke="transparent" points="-4,4 -4,-1552 1698,-1552 1698,4 -4,4"/>
<!-- C&#45;1129 -->
<g id="node1" class="node">
<title>C&#45;1129</title>
<ellipse fill="mediumseagreen" stroke="black" cx="587.5" cy="-864" rx="68.5" ry="18"/>
<text text-anchor="middle" x="587.5" y="-862.1" font-family="Helvetica,sans-Serif" font-size="8.00">C&#45;1129</text>
</g>
<!-- C&#45;343 -->
<g id="node2" class="node">
<title>C&#45;343</title>
<ellipse fill="mediumseagreen" stroke="black" cx="68.5" cy="-582" rx="68.5" ry="18"/>
<text text-anchor="middle" x="68.5" y="-580.1" font-family="Helvetica,sans-Serif" font-size="8.00">C&#45;343</text>
</g>
<!-- C&#45;0010 -->
<g id="node3" class="node">
<title>C&#45;0010</title>
<ellipse fill="mediumseagreen" stroke="black" cx="1192.5" cy="-1428" rx="68.5" ry="18"/>
<text text-anchor="middle" x="1192.5" y="-1426.1" font-family="Helvetica,sans-Serif" font-size="8.00">C&#45;0010</text>
</g>
<!-- C&#45;1253 -->
<g id="node33" class="node">
<title>C&#45;1253</title>
<ellipse fill="mediumseagreen" stroke="black" cx="1192.5" cy="-1334" rx="68.5" ry="18"/>
<text text-anchor="middle" x="1192.5" y="-1332.1" font-family="Helvetica,sans-Serif" font-size="8.00">C&#45;1253</text>
</g>
<!-- C&#45;0010&#45;&gt;C&#45;1253 -->
<g id="edge2" class="edge">
<title>C&#45;0010&#45;&gt;C&#45;1253</title>
<path fill="none" stroke="dimgray" stroke-width="0.8" d="M1192.5,-1409.88C1192.5,-1409.88 1192.5,-1359.07 1192.5,-1359.07"/>
<polygon fill="dimgray" stroke="dimgray" stroke-width="0.8" points="1194.95,-1359.07 1192.5,-1352.07 1190.05,-1359.07 1194.95,-1359.07"/>
</g>
<!-- S&#45;703 -->
<g id="node4" class="node">
<title>S&#45;703</title>
<polygon fill="mediumseagreen" stroke="black" points="933.5,-976 865,-958 933.5,-940 1002,-958 933.5,-976"/>
<text text-anchor="middle" x="933.5" y="-956.1" font-family="Helvetica,sans-Serif" font-size="8.00">S&#45;703</text>
</g>
<!-- S&#45;703&#45;&gt;C&#45;1129 -->
<g id="edge42" class="edge">
<title>S&#45;703&#45;&gt;C&#45;1129</title>
<path fill="none" stroke="dimgray" stroke-width="0.8" d="M864.91,-958C778.87,-958 642.5,-958 642.5,-958 642.5,-958 642.5,-881.78 642.5,-881.78"/>
<polygon fill="dimgray" stroke="dimgray" stroke-width="0.8" points="644.95,-881.78 642.5,-874.78 640.05,-881.78 644.95,-881.78"/>
</g>
<!-- C&#45;0193 -->
<g id="node5" class="node">
<title>C&#45;0193</title>
<ellipse fill="tomato" stroke="black" cx="339.5" cy="-864" rx="68.5" ry="18"/>
<text text-anchor="middle" x="339.5" y="-862.1" font-family="Helvetica,sans-Serif" font-size="8.00">C&#45;0193</text>
</g>
<!-- S&#45;703&#45;&gt;C&#45;0193 -->
<g id="edge40" class="edge">
<title>S&#45;703&#45;&gt;C&#45;0193</title>
<path fill="none" stroke="dimgray" stroke-width="0.8" d="M899.06,-967C775.57,-967 362.33,-967 362.33,-967 362.33,-967 362.33,-888.01 362.33,-888.01"/>
<polygon fill="dimgray" stroke="dimgray" stroke-width="0.8" points="364.78,-888.01 362.33,-881.01 359.88,-888.01 364.78,-888.01"/>
</g>
<!-- S&#45;767 -->
<g id="node20" class="node">
<title>S&#45;767</title>
<polygon fill="mediumseagreen" stroke="black" points="760.5,-882 692,-864 760.5,-846 829,-864 760.5,-882"/>
<text text-anchor="middle" x="760.5" y="-862.1" font-family="Helvetica,sans-Serif" font-size="8.00">S&#45;767</text>
</g>
<!-- S&#45;703&#45;&gt;S&#45;767 -->
<g id="edge15" class="edge">
<title>S&#45;703&#45;&gt;S&#45;767</title>
<path fill="none" stroke="dimgray" stroke-width="0.8" d="M899.05,-949C854.71,-949 783.33,-949 783.33,-949 783.33,-949 783.33,-883.18 783.33,-883.18"/>
<polygon fill="dimgray" stroke="dimgray" stroke-width="0.8" points="785.78,-883.18 783.33,-876.18 780.88,-883.18 785.78,-883.18"/>
</g>
<!-- S&#45;1381 -->
<g id="node22" class="node">
<title>S&#45;1381</title>
<polygon fill="mediumseagreen" stroke="black" points="933.5,-882 865,-864 933.5,-846 1002,-864 933.5,-882"/>
<text text-anchor="middle" x="933.5" y="-862.1" font-family="Helvetica,sans-Serif" font-size="8.00">S&#45;1381</text>
</g>
<!-- S&#45;703&#45;&gt;S&#45;1381 -->
<g id="edge13" class="edge">
<title>S&#45;703&#45;&gt;S&#45;1381</title>
<path fill="none" stroke="dimgray" stroke-width="0.8" d="M899.25,-948.99C899.25,-948.99 899.25,-880.12 899.25,-880.12"/>
<polygon fill="dimgray" stroke="dimgray" stroke-width="0.8" points="901.7,-880.12 899.25,-873.12 896.8,-880.12 901.7,-880.12"/>
</g>
<!-- S&#45;836 -->
<g id="node25" class="node">
<title>S&#45;836</title>
<polygon fill="mediumseagreen" stroke="black" points="1106.5,-882 1038,-864 1106.5,-846 1175,-864 1106.5,-882"/>
<text text-anchor="middle" x="1106.5" y="-862.1" font-family="Helvetica,sans-Serif" font-size="8.00">S&#45;836</text>
</g>
<!-- S&#45;703&#45;&gt;S&#45;836 -->
<g id="edge12" class="edge">
<title>S&#45;703&#45;&gt;S&#45;836</title>
<path fill="none" stroke="dimgray" stroke-width="0.8" d="M1002.09,-958C1014.71,-958 1024,-958 1024,-958 1024,-958 1024,-864 1024,-864 1024,-864 1031,-864 1031,-864"/>
<polygon fill="dimgray" stroke="dimgray" stroke-width="0.8" points="1031,-866.45 1038,-864 1030.99,-861.55 1031,-866.45"/>
</g>
<!-- S&#45;1914 -->
<g id="node30" class="node">
<title>S&#45;1914</title>
<polygon fill="mediumseagreen" stroke="black" points="1279.5,-882 1211,-864 1279.5,-846 1348,-864 1279.5,-882"/>
<text text-anchor="middle" x="1279.5" y="-862.1" font-family="Helvetica,sans-Serif" font-size="8.00">S&#45;1914</text>
</g>
<!-- S&#45;703&#45;&gt;S&#45;1914 -->
<g id="edge41" class="edge">
<title>S&#45;703&#45;&gt;S&#45;1914</title>
<path fill="none" stroke="dimgray" stroke-width="0.8" d="M933.5,-939.96C933.5,-923.27 933.5,-901 933.5,-901 933.5,-901 1279.5,-901 1279.5,-901 1279.5,-901 1279.5,-889.07 1279.5,-889.07"/>
<polygon fill="dimgray" stroke="dimgray" stroke-width="0.8" points="1281.95,-889.07 1279.5,-882.07 1277.05,-889.07 1281.95,-889.07"/>
</g>
<!-- S&#45;1382 -->
<g id="node36" class="node">
<title>S&#45;1382</title>
<polygon fill="mediumseagreen" stroke="black" points="1452.5,-882 1384,-864 1452.5,-846 1521,-864 1452.5,-882"/>
<text text-anchor="middle" x="1452.5" y="-862.1" font-family="Helvetica,sans-Serif" font-size="8.00">S&#45;1382</text>
</g>
<!-- S&#45;703&#45;&gt;S&#45;1382 -->
<g id="edge14" class="edge">
<title>S&#45;703&#45;&gt;S&#45;1382</title>
<path fill="none" stroke="dimgray" stroke-width="0.8" d="M967.75,-948.8C967.75,-937.56 967.75,-920 967.75,-920 967.75,-920 1452.5,-920 1452.5,-920 1452.5,-920 1452.5,-889.03 1452.5,-889.03"/>
<polygon fill="dimgray" stroke="dimgray" stroke-width="0.8" points="1454.95,-889.03 1452.5,-882.03 1450.05,-889.03 1454.95,-889.03"/>
</g>
<!-- ext_circ_303_27_ -->
<g id="node49" class="node">
<title>ext_circ_303_27_</title>
<polygon fill="lightpink" stroke="red" stroke-dasharray="5,2" points="766,-1544 629,-1544 629,-1508 766,-1508 766,-1544"/>
<text text-anchor="middle" x="697.5" y="-1528.6" font-family="Helvetica,sans-Serif" font-size="8.00">Circuito:</text>
<text text-anchor="middle" x="697.5" y="-1519.6" font-family="Helvetica,sans-Serif" font-size="8.00">303&#45;27&#45;</text>
</g>
<!-- C&#45;0193&#45;&gt;ext_circ_303_27_ -->
<g id="edge50" class="edge">
<title>C&#45;0193&#45;&gt;ext_circ_303_27_</title>
<path fill="none" stroke="red" stroke-width="0.8" stroke-dasharray="5,2" d="M316.67,-881.03C316.67,-984.65 316.67,-1526 316.67,-1526 316.67,-1526 621.97,-1526 621.97,-1526"/>
<polygon fill="red" stroke="red" stroke-width="0.8" points="621.97,-1528.45 628.97,-1526 621.97,-1523.55 621.97,-1528.45"/>
</g>
<!-- R&#45;232 -->
<g id="node6" class="node">
<title>R&#45;232</title>
<polygon fill="mediumseagreen" stroke="black" points="1348,-1138.54 1348,-1153.46 1307.87,-1164 1251.13,-1164 1211,-1153.46 1211,-1138.54 1251.13,-1128 1307.87,-1128 1348,-1138.54"/>
<text text-anchor="middle" x="1279.5" y="-1144.1" font-family="Helvetica,sans-Serif" font-size="8.00">R&#45;232</text>
</g>
<!-- C&#45;0976 -->
<g id="node14" class="node">
<title>C&#45;0976</title>
<ellipse fill="mediumseagreen" stroke="black" cx="1279.5" cy="-1052" rx="68.5" ry="18"/>
<text text-anchor="middle" x="1279.5" y="-1050.1" font-family="Helvetica,sans-Serif" font-size="8.00">C&#45;0976</text>
</g>
<!-- R&#45;232&#45;&gt;C&#45;0976 -->
<g id="edge9" class="edge">
<title>R&#45;232&#45;&gt;C&#45;0976</title>
<path fill="none" stroke="dimgray" stroke-width="0.8" d="M1279.5,-1127.88C1279.5,-1127.88 1279.5,-1077.07 1279.5,-1077.07"/>
<polygon fill="dimgray" stroke="dimgray" stroke-width="0.8" points="1281.95,-1077.07 1279.5,-1070.07 1277.05,-1077.07 1281.95,-1077.07"/>
</g>
<!-- S&#45;1966 -->
<g id="node7" class="node">
<title>S&#45;1966</title>
<polygon fill="mediumseagreen" stroke="black" points="447.5,-224 379,-206 447.5,-188 516,-206 447.5,-224"/>
<text text-anchor="middle" x="447.5" y="-204.1" font-family="Helvetica,sans-Serif" font-size="8.00">S&#45;1966</text>
</g>
<!-- S&#45;2014 -->
<g id="node8" class="node">
<title>S&#45;2014</title>
<polygon fill="mediumseagreen" stroke="black" points="447.5,-130 379,-112 447.5,-94 516,-112 447.5,-130"/>
<text text-anchor="middle" x="447.5" y="-110.1" font-family="Helvetica,sans-Serif" font-size="8.00">S&#45;2014</text>
</g>
<!-- S&#45;1966&#45;&gt;S&#45;2014 -->
<g id="edge37" class="edge">
<title>S&#45;1966&#45;&gt;S&#45;2014</title>
<path fill="none" stroke="dimgray" stroke-width="0.8" d="M447.5,-187.88C447.5,-187.88 447.5,-137.07 447.5,-137.07"/>
<polygon fill="dimgray" stroke="dimgray" stroke-width="0.8" points="449.95,-137.07 447.5,-130.07 445.05,-137.07 449.95,-137.07"/>
</g>
<!-- C&#45;0986 -->
<g id="node34" class="node">
<title>C&#45;0986</title>
<ellipse fill="mediumseagreen" stroke="black" cx="447.5" cy="-18" rx="68.5" ry="18"/>
<text text-anchor="middle" x="447.5" y="-16.1" font-family="Helvetica,sans-Serif" font-size="8.00">C&#45;0986</text>
</g>
<!-- S&#45;2014&#45;&gt;C&#45;0986 -->
<g id="edge38" class="edge">
<title>S&#45;2014&#45;&gt;C&#45;0986</title>
<path fill="none" stroke="dimgray" stroke-width="0.8" d="M447.5,-93.88C447.5,-93.88 447.5,-43.07 447.5,-43.07"/>
<polygon fill="dimgray" stroke="dimgray" stroke-width="0.8" points="449.95,-43.07 447.5,-36.07 445.05,-43.07 449.95,-43.07"/>
</g>
<!-- R&#45;098 -->
<g id="node9" class="node">
<title>R&#45;098</title>
<polygon fill="mediumseagreen" stroke="black" points="742,-386.54 742,-401.46 701.87,-412 645.13,-412 605,-401.46 605,-386.54 645.13,-376 701.87,-376 742,-386.54"/>
<text text-anchor="middle" x="673.5" y="-392.1" font-family="Helvetica,sans-Serif" font-size="8.00">R&#45;098</text>
</g>
<!-- C&#45;0608 -->
<g id="node41" class="node">
<title>C&#45;0608</title>
<ellipse fill="mediumseagreen" stroke="black" cx="673.5" cy="-300" rx="68.5" ry="18"/>
<text text-anchor="middle" x="673.5" y="-298.1" font-family="Helvetica,sans-Serif" font-size="8.00">C&#45;0608</text>
</g>
<!-- R&#45;098&#45;&gt;C&#45;0608 -->
<g id="edge29" class="edge">
<title>R&#45;098&#45;&gt;C&#45;0608</title>
<path fill="none" stroke="dimgray" stroke-width="0.8" d="M673.5,-375.88C673.5,-375.88 673.5,-325.07 673.5,-325.07"/>
<polygon fill="dimgray" stroke="dimgray" stroke-width="0.8" points="675.95,-325.07 673.5,-318.07 671.05,-325.07 675.95,-325.07"/>
</g>
<!-- S&#45;492 -->
<g id="node10" class="node">
<title>S&#45;492</title>
<polygon fill="mediumseagreen" stroke="black" points="241.5,-600 173,-582 241.5,-564 310,-582 241.5,-600"/>
<text text-anchor="middle" x="241.5" y="-580.1" font-family="Helvetica,sans-Serif" font-size="8.00">S&#45;492</text>
</g>
<!-- C&#45;0576 -->
<g id="node11" class="node">
<title>C&#45;0576</title>
<ellipse fill="tomato" stroke="black" cx="500.5" cy="-488" rx="68.5" ry="18"/>
<text text-anchor="middle" x="500.5" y="-486.1" font-family="Helvetica,sans-Serif" font-size="8.00">C&#45;0576</text>
</g>
<!-- C&#45;0576&#45;&gt;C&#45;0608 -->
<g id="edge48" class="edge">
<title>C&#45;0576&#45;&gt;C&#45;0608</title>
<path fill="none" stroke="blue" stroke-width="0.8" stroke-dasharray="5,2" d="M560.5,-479.22C560.5,-442.87 560.5,-306 560.5,-306 560.5,-306 601.75,-306 601.75,-306"/>
<polygon fill="blue" stroke="blue" stroke-width="0.8" points="601.75,-308.45 608.75,-306 601.75,-303.55 601.75,-308.45"/>
</g>
<!-- 303&#45;25&#45; -->
<g id="node12" class="node">
<title>303&#45;25&#45;</title>
<polygon fill="gold" stroke="black" points="1261,-1518.54 1261,-1533.46 1220.87,-1544 1164.13,-1544 1124,-1533.46 1124,-1518.54 1164.13,-1508 1220.87,-1508 1261,-1518.54"/>
<polygon fill="none" stroke="black" points="1265,-1515.46 1265,-1536.54 1221.39,-1548 1163.61,-1548 1120,-1536.54 1120,-1515.46 1163.61,-1504 1221.39,-1504 1265,-1515.46"/>
<text text-anchor="middle" x="1192.5" y="-1524.1" font-family="Helvetica,sans-Serif" font-size="8.00">303&#45;25&#45;</text>
</g>
<!-- 303&#45;25&#45;&#45;&gt;C&#45;0010 -->
<g id="edge1" class="edge">
<title>303&#45;25&#45;&#45;&gt;C&#45;0010</title>
<path fill="none" stroke="dimgray" stroke-width="0.8" d="M1192.5,-1503.76C1192.5,-1503.76 1192.5,-1453.21 1192.5,-1453.21"/>
<polygon fill="dimgray" stroke="dimgray" stroke-width="0.8" points="1194.95,-1453.21 1192.5,-1446.21 1190.05,-1453.21 1194.95,-1453.21"/>
</g>
<!-- S&#45;1226 -->
<g id="node13" class="node">
<title>S&#45;1226</title>
<polygon fill="mediumseagreen" stroke="black" points="760.5,-600 692,-582 760.5,-564 829,-582 760.5,-600"/>
<text text-anchor="middle" x="760.5" y="-580.1" font-family="Helvetica,sans-Serif" font-size="8.00">S&#45;1226</text>
</g>
<!-- C&#45;0976&#45;&gt;S&#45;703 -->
<g id="edge11" class="edge">
<title>C&#45;0976&#45;&gt;S&#45;703</title>
<path fill="none" stroke="dimgray" stroke-width="0.8" d="M1210.73,-1052C1109.82,-1052 933.5,-1052 933.5,-1052 933.5,-1052 933.5,-983.12 933.5,-983.12"/>
<polygon fill="dimgray" stroke="dimgray" stroke-width="0.8" points="935.95,-983.12 933.5,-976.12 931.05,-983.12 935.95,-983.12"/>
</g>
<!-- S&#45;2380 -->
<g id="node18" class="node">
<title>S&#45;2380</title>
<polygon fill="mediumseagreen" stroke="black" points="1106.5,-976 1038,-958 1106.5,-940 1175,-958 1106.5,-976"/>
<text text-anchor="middle" x="1106.5" y="-956.1" font-family="Helvetica,sans-Serif" font-size="8.00">S&#45;2380</text>
</g>
<!-- C&#45;0976&#45;&gt;S&#45;2380 -->
<g id="edge43" class="edge">
<title>C&#45;0976&#45;&gt;S&#45;2380</title>
<path fill="none" stroke="dimgray" stroke-width="0.8" d="M1219.96,-1043C1169.92,-1043 1106.5,-1043 1106.5,-1043 1106.5,-1043 1106.5,-983.03 1106.5,-983.03"/>
<polygon fill="dimgray" stroke="dimgray" stroke-width="0.8" points="1108.95,-983.03 1106.5,-976.03 1104.05,-983.03 1108.95,-983.03"/>
</g>
<!-- S&#45;1942 -->
<g id="node27" class="node">
<title>S&#45;1942</title>
<polygon fill="mediumseagreen" stroke="black" points="1279.5,-976 1211,-958 1279.5,-940 1348,-958 1279.5,-976"/>
<text text-anchor="middle" x="1279.5" y="-956.1" font-family="Helvetica,sans-Serif" font-size="8.00">S&#45;1942</text>
</g>
<!-- C&#45;0976&#45;&gt;S&#45;1942 -->
<g id="edge10" class="edge">
<title>C&#45;0976&#45;&gt;S&#45;1942</title>
<path fill="none" stroke="dimgray" stroke-width="0.8" d="M1279.5,-1033.88C1279.5,-1033.88 1279.5,-983.07 1279.5,-983.07"/>
<polygon fill="dimgray" stroke="dimgray" stroke-width="0.8" points="1281.95,-983.07 1279.5,-976.07 1277.05,-983.07 1281.95,-983.07"/>
</g>
<!-- S&#45;702 -->
<g id="node43" class="node">
<title>S&#45;702</title>
<polygon fill="mediumseagreen" stroke="black" points="1452.5,-976 1384,-958 1452.5,-940 1521,-958 1452.5,-976"/>
<text text-anchor="middle" x="1452.5" y="-956.1" font-family="Helvetica,sans-Serif" font-size="8.00">S&#45;702</text>
</g>
<!-- C&#45;0976&#45;&gt;S&#45;702 -->
<g id="edge45" class="edge">
<title>C&#45;0976&#45;&gt;S&#45;702</title>
<path fill="none" stroke="dimgray" stroke-width="0.8" d="M1344.41,-1046C1393.5,-1046 1452.5,-1046 1452.5,-1046 1452.5,-1046 1452.5,-983.23 1452.5,-983.23"/>
<polygon fill="dimgray" stroke="dimgray" stroke-width="0.8" points="1454.95,-983.23 1452.5,-976.23 1450.05,-983.23 1454.95,-983.23"/>
</g>
<!-- S&#45;2526 -->
<g id="node47" class="node">
<title>S&#45;2526</title>
<polygon fill="mediumseagreen" stroke="black" points="1625.5,-976 1557,-958 1625.5,-940 1694,-958 1625.5,-976"/>
<text text-anchor="middle" x="1625.5" y="-956.1" font-family="Helvetica,sans-Serif" font-size="8.00">S&#45;2526</text>
</g>
<!-- C&#45;0976&#45;&gt;S&#45;2526 -->
<g id="edge44" class="edge">
<title>C&#45;0976&#45;&gt;S&#45;2526</title>
<path fill="none" stroke="dimgray" stroke-width="0.8" d="M1344.17,-1058C1444.32,-1058 1625.5,-1058 1625.5,-1058 1625.5,-1058 1625.5,-983.34 1625.5,-983.34"/>
<polygon fill="dimgray" stroke="dimgray" stroke-width="0.8" points="1627.95,-983.34 1625.5,-976.34 1623.05,-983.34 1627.95,-983.34"/>
</g>
<!-- C&#45;0413 -->
<g id="node15" class="node">
<title>C&#45;0413</title>
<ellipse fill="mediumseagreen" stroke="black" cx="414.5" cy="-676" rx="68.5" ry="18"/>
<text text-anchor="middle" x="414.5" y="-674.1" font-family="Helvetica,sans-Serif" font-size="8.00">C&#45;0413</text>
</g>
<!-- C&#45;0413&#45;&gt;C&#45;343 -->
<g id="edge24" class="edge">
<title>C&#45;0413&#45;&gt;C&#45;343</title>
<path fill="none" stroke="dimgray" stroke-width="0.8" d="M349.83,-682C249.68,-682 68.5,-682 68.5,-682 68.5,-682 68.5,-607.34 68.5,-607.34"/>
<polygon fill="dimgray" stroke="dimgray" stroke-width="0.8" points="70.95,-607.34 68.5,-600.34 66.05,-607.34 70.95,-607.34"/>
</g>
<!-- C&#45;0413&#45;&gt;S&#45;492 -->
<g id="edge22" class="edge">
<title>C&#45;0413&#45;&gt;S&#45;492</title>
<path fill="none" stroke="dimgray" stroke-width="0.8" d="M349.59,-670C319.59,-670 290.5,-670 290.5,-670 290.5,-670 290.5,-594.24 290.5,-594.24"/>
<polygon fill="dimgray" stroke="dimgray" stroke-width="0.8" points="292.95,-594.24 290.5,-587.24 288.05,-594.24 292.95,-594.24"/>
</g>
<!-- S&#45;1485 -->
<g id="node23" class="node">
<title>S&#45;1485</title>
<polygon fill="mediumseagreen" stroke="black" points="414.5,-600 346,-582 414.5,-564 483,-582 414.5,-600"/>
<text text-anchor="middle" x="414.5" y="-580.1" font-family="Helvetica,sans-Serif" font-size="8.00">S&#45;1485</text>
</g>
<!-- C&#45;0413&#45;&gt;S&#45;1485 -->
<g id="edge23" class="edge">
<title>C&#45;0413&#45;&gt;S&#45;1485</title>
<path fill="none" stroke="dimgray" stroke-width="0.8" d="M414.5,-657.88C414.5,-657.88 414.5,-607.07 414.5,-607.07"/>
<polygon fill="dimgray" stroke="dimgray" stroke-width="0.8" points="416.95,-607.07 414.5,-600.07 412.05,-607.07 416.95,-607.07"/>
</g>
<!-- S&#45;341 -->
<g id="node46" class="node">
<title>S&#45;341</title>
<polygon fill="mediumseagreen" stroke="black" points="587.5,-600 519,-582 587.5,-564 656,-582 587.5,-600"/>
<text text-anchor="middle" x="587.5" y="-580.1" font-family="Helvetica,sans-Serif" font-size="8.00">S&#45;341</text>
</g>
<!-- C&#45;0413&#45;&gt;S&#45;341 -->
<g id="edge25" class="edge">
<title>C&#45;0413&#45;&gt;S&#45;341</title>
<path fill="none" stroke="dimgray" stroke-width="0.8" d="M483.37,-676C531.62,-676 587.5,-676 587.5,-676 587.5,-676 587.5,-607.12 587.5,-607.12"/>
<polygon fill="dimgray" stroke="dimgray" stroke-width="0.8" points="589.95,-607.12 587.5,-600.12 585.05,-607.12 589.95,-607.12"/>
</g>
<!-- S&#45;339 -->
<g id="node16" class="node">
<title>S&#45;339</title>
<polygon fill="mediumseagreen" stroke="black" points="793.5,-130 725,-112 793.5,-94 862,-112 793.5,-130"/>
<text text-anchor="middle" x="793.5" y="-110.1" font-family="Helvetica,sans-Serif" font-size="8.00">S&#45;339</text>
</g>
<!-- S&#45;2168 -->
<g id="node26" class="node">
<title>S&#45;2168</title>
<polygon fill="mediumseagreen" stroke="black" points="793.5,-36 725,-18 793.5,0 862,-18 793.5,-36"/>
<text text-anchor="middle" x="793.5" y="-16.1" font-family="Helvetica,sans-Serif" font-size="8.00">S&#45;2168</text>
</g>
<!-- S&#45;339&#45;&gt;S&#45;2168 -->
<g id="edge35" class="edge">
<title>S&#45;339&#45;&gt;S&#45;2168</title>
<path fill="none" stroke="dimgray" stroke-width="0.8" d="M793.5,-93.88C793.5,-93.88 793.5,-43.07 793.5,-43.07"/>
<polygon fill="dimgray" stroke="dimgray" stroke-width="0.8" points="795.95,-43.07 793.5,-36.07 791.05,-43.07 795.95,-43.07"/>
</g>
<!-- R&#45;062 -->
<g id="node17" class="node">
<title>R&#45;062</title>
<polygon fill="mediumseagreen" stroke="black" points="829,-762.54 829,-777.46 788.87,-788 732.13,-788 692,-777.46 692,-762.54 732.13,-752 788.87,-752 829,-762.54"/>
<text text-anchor="middle" x="760.5" y="-768.1" font-family="Helvetica,sans-Serif" font-size="8.00">R&#45;062</text>
</g>
<!-- R&#45;062&#45;&gt;C&#45;0413 -->
<g id="edge21" class="edge">
<title>R&#45;062&#45;&gt;C&#45;0413</title>
<path fill="none" stroke="dimgray" stroke-width="0.8" d="M691.76,-770C599.08,-770 445.5,-770 445.5,-770 445.5,-770 445.5,-699.37 445.5,-699.37"/>
<polygon fill="dimgray" stroke="dimgray" stroke-width="0.8" points="447.95,-699.37 445.5,-692.37 443.05,-699.37 447.95,-699.37"/>
</g>
<!-- S&#45;769 -->
<g id="node21" class="node">
<title>S&#45;769</title>
<polygon fill="mediumseagreen" stroke="black" points="760.5,-694 692,-676 760.5,-658 829,-676 760.5,-694"/>
<text text-anchor="middle" x="760.5" y="-674.1" font-family="Helvetica,sans-Serif" font-size="8.00">S&#45;769</text>
</g>
<!-- R&#45;062&#45;&gt;S&#45;769 -->
<g id="edge18" class="edge">
<title>R&#45;062&#45;&gt;S&#45;769</title>
<path fill="none" stroke="dimgray" stroke-width="0.8" d="M760.5,-751.88C760.5,-751.88 760.5,-701.07 760.5,-701.07"/>
<polygon fill="dimgray" stroke="dimgray" stroke-width="0.8" points="762.95,-701.07 760.5,-694.07 758.05,-701.07 762.95,-701.07"/>
</g>
<!-- S&#45;774 -->
<g id="node32" class="node">
<title>S&#45;774</title>
<polygon fill="mediumseagreen" stroke="black" points="933.5,-694 865,-676 933.5,-658 1002,-676 933.5,-694"/>
<text text-anchor="middle" x="933.5" y="-674.1" font-family="Helvetica,sans-Serif" font-size="8.00">S&#45;774</text>
</g>
<!-- R&#45;062&#45;&gt;S&#45;774 -->
<g id="edge17" class="edge">
<title>R&#45;062&#45;&gt;S&#45;774</title>
<path fill="none" stroke="dimgray" stroke-width="0.8" d="M829.37,-770C877.62,-770 933.5,-770 933.5,-770 933.5,-770 933.5,-701.12 933.5,-701.12"/>
<polygon fill="dimgray" stroke="dimgray" stroke-width="0.8" points="935.95,-701.12 933.5,-694.12 931.05,-701.12 935.95,-701.12"/>
</g>
<!-- S&#45;340 -->
<g id="node19" class="node">
<title>S&#45;340</title>
<polygon fill="mediumseagreen" stroke="black" points="620.5,-224 552,-206 620.5,-188 689,-206 620.5,-224"/>
<text text-anchor="middle" x="620.5" y="-204.1" font-family="Helvetica,sans-Serif" font-size="8.00">S&#45;340</text>
</g>
<!-- S&#45;340&#45;&gt;S&#45;339 -->
<g id="edge34" class="edge">
<title>S&#45;340&#45;&gt;S&#45;339</title>
<path fill="none" stroke="dimgray" stroke-width="0.8" d="M689.08,-206C699.58,-206 707,-206 707,-206 707,-206 707,-112 707,-112 707,-112 717.92,-112 717.92,-112"/>
<polygon fill="dimgray" stroke="dimgray" stroke-width="0.8" points="717.92,-114.45 724.92,-112 717.92,-109.55 717.92,-114.45"/>
</g>
<!-- C&#45;0736 -->
<g id="node38" class="node">
<title>C&#45;0736</title>
<ellipse fill="mediumseagreen" stroke="black" cx="620.5" cy="-112" rx="68.5" ry="18"/>
<text text-anchor="middle" x="620.5" y="-110.1" font-family="Helvetica,sans-Serif" font-size="8.00">C&#45;0736</text>
</g>
<!-- S&#45;340&#45;&gt;C&#45;0736 -->
<g id="edge32" class="edge">
<title>S&#45;340&#45;&gt;C&#45;0736</title>
<path fill="none" stroke="dimgray" stroke-width="0.8" d="M620.5,-187.88C620.5,-187.88 620.5,-137.07 620.5,-137.07"/>
<polygon fill="dimgray" stroke="dimgray" stroke-width="0.8" points="622.95,-137.07 620.5,-130.07 618.05,-137.07 622.95,-137.07"/>
</g>
<!-- S&#45;767&#45;&gt;R&#45;062 -->
<g id="edge16" class="edge">
<title>S&#45;767&#45;&gt;R&#45;062</title>
<path fill="none" stroke="dimgray" stroke-width="0.8" d="M760.5,-845.88C760.5,-845.88 760.5,-795.07 760.5,-795.07"/>
<polygon fill="dimgray" stroke="dimgray" stroke-width="0.8" points="762.95,-795.07 760.5,-788.07 758.05,-795.07 762.95,-795.07"/>
</g>
<!-- S&#45;769&#45;&gt;S&#45;1226 -->
<g id="edge20" class="edge">
<title>S&#45;769&#45;&gt;S&#45;1226</title>
<path fill="none" stroke="dimgray" stroke-width="0.8" d="M760.5,-657.88C760.5,-657.88 760.5,-607.07 760.5,-607.07"/>
<polygon fill="dimgray" stroke="dimgray" stroke-width="0.8" points="762.95,-607.07 760.5,-600.07 758.05,-607.07 762.95,-607.07"/>
</g>
<!-- S&#45;2453 -->
<g id="node29" class="node">
<title>S&#45;2453</title>
<polygon fill="mediumseagreen" stroke="black" points="933.5,-600 865,-582 933.5,-564 1002,-582 933.5,-600"/>
<text text-anchor="middle" x="933.5" y="-580.1" font-family="Helvetica,sans-Serif" font-size="8.00">S&#45;2453</text>
</g>
<!-- S&#45;769&#45;&gt;S&#45;2453 -->
<g id="edge19" class="edge">
<title>S&#45;769&#45;&gt;S&#45;2453</title>
<path fill="none" stroke="dimgray" stroke-width="0.8" d="M829.11,-676C838.78,-676 845.5,-676 845.5,-676 845.5,-676 845.5,-582 845.5,-582 845.5,-582 857.59,-582 857.59,-582"/>
<polygon fill="dimgray" stroke="dimgray" stroke-width="0.8" points="857.59,-584.45 864.59,-582 857.59,-579.55 857.59,-584.45"/>
</g>
<!-- C&#45;0664 -->
<g id="node24" class="node">
<title>C&#45;0664</title>
<ellipse fill="tomato" stroke="black" cx="760.5" cy="-1240" rx="68.5" ry="18"/>
<text text-anchor="middle" x="760.5" y="-1238.1" font-family="Helvetica,sans-Serif" font-size="8.00">C&#45;0664</text>
</g>
<!-- C&#45;0664&#45;&gt;C&#45;0976 -->
<g id="edge47" class="edge">
<title>C&#45;0664&#45;&gt;C&#45;0976</title>
<path fill="none" stroke="blue" stroke-width="0.8" stroke-dasharray="5,2" d="M737.67,-1222.84C737.67,-1178.03 737.67,-1061 737.67,-1061 737.67,-1061 1212.96,-1061 1212.96,-1061"/>
<polygon fill="blue" stroke="blue" stroke-width="0.8" points="1212.96,-1063.45 1219.96,-1061 1212.96,-1058.55 1212.96,-1063.45"/>
</g>
<!-- S&#45;1735 -->
<g id="node28" class="node">
<title>S&#45;1735</title>
<polygon fill="mediumseagreen" stroke="black" points="933.5,-1258 865,-1240 933.5,-1222 1002,-1240 933.5,-1258"/>
<text text-anchor="middle" x="933.5" y="-1238.1" font-family="Helvetica,sans-Serif" font-size="8.00">S&#45;1735</text>
</g>
<!-- R&#45;161 -->
<g id="node31" class="node">
<title>R&#45;161</title>
<polygon fill="tomato" stroke="black" points="689,-10.54 689,-25.46 648.87,-36 592.13,-36 552,-25.46 552,-10.54 592.13,0 648.87,0 689,-10.54"/>
<text text-anchor="middle" x="620.5" y="-16.1" font-family="Helvetica,sans-Serif" font-size="8.00">R&#45;161</text>
</g>
<!-- ext_circ_112_24_ -->
<g id="node48" class="node">
<title>ext_circ_112_24_</title>
<polygon fill="lightpink" stroke="red" stroke-dasharray="5,2" points="1036,-1544 899,-1544 899,-1508 1036,-1508 1036,-1544"/>
<text text-anchor="middle" x="967.5" y="-1528.6" font-family="Helvetica,sans-Serif" font-size="8.00">Circuito:</text>
<text text-anchor="middle" x="967.5" y="-1519.6" font-family="Helvetica,sans-Serif" font-size="8.00">112&#45;24&#45;</text>
</g>
<!-- R&#45;161&#45;&gt;ext_circ_112_24_ -->
<g id="edge49" class="edge">
<title>R&#45;161&#45;&gt;ext_circ_112_24_</title>
<path fill="none" stroke="red" stroke-width="0.8" stroke-dasharray="5,2" d="M551.92,-18C541.42,-18 534,-18 534,-18 534,-18 534,-253 534,-253 534,-253 1013,-253 1013,-253 1013,-253 1013,-1500.51 1013,-1500.51"/>
<polygon fill="red" stroke="red" stroke-width="0.8" points="1010.55,-1500.51 1013,-1507.51 1015.45,-1500.51 1010.55,-1500.51"/>
</g>
<!-- C&#45;1253&#45;&gt;C&#45;0664 -->
<g id="edge6" class="edge">
<title>C&#45;1253&#45;&gt;C&#45;0664</title>
<path fill="none" stroke="dimgray" stroke-width="0.8" d="M1127.72,-1340C1015.66,-1340 797.5,-1340 797.5,-1340 797.5,-1340 797.5,-1262.19 797.5,-1262.19"/>
<polygon fill="dimgray" stroke="dimgray" stroke-width="0.8" points="799.95,-1262.19 797.5,-1255.19 795.05,-1262.19 799.95,-1262.19"/>
</g>
<!-- C&#45;1253&#45;&gt;S&#45;1735 -->
<g id="edge3" class="edge">
<title>C&#45;1253&#45;&gt;S&#45;1735</title>
<path fill="none" stroke="dimgray" stroke-width="0.8" d="M1127.65,-1328C1055.97,-1328 950.5,-1328 950.5,-1328 950.5,-1328 950.5,-1260.75 950.5,-1260.75"/>
<polygon fill="dimgray" stroke="dimgray" stroke-width="0.8" points="952.95,-1260.75 950.5,-1253.75 948.05,-1260.75 952.95,-1260.75"/>
</g>
<!-- S&#45;2531 -->
<g id="node37" class="node">
<title>S&#45;2531</title>
<polygon fill="mediumseagreen" stroke="black" points="1106.5,-1258 1038,-1240 1106.5,-1222 1175,-1240 1106.5,-1258"/>
<text text-anchor="middle" x="1106.5" y="-1238.1" font-family="Helvetica,sans-Serif" font-size="8.00">S&#45;2531</text>
</g>
<!-- C&#45;1253&#45;&gt;S&#45;2531 -->
<g id="edge5" class="edge">
<title>C&#45;1253&#45;&gt;S&#45;2531</title>
<path fill="none" stroke="dimgray" stroke-width="0.8" d="M1149.5,-1319.72C1149.5,-1319.72 1149.5,-1253.83 1149.5,-1253.83"/>
<polygon fill="dimgray" stroke="dimgray" stroke-width="0.8" points="1151.95,-1253.83 1149.5,-1246.83 1147.05,-1253.83 1151.95,-1253.83"/>
</g>
<!-- C&#45;0975 -->
<g id="node39" class="node">
<title>C&#45;0975</title>
<ellipse fill="mediumseagreen" stroke="black" cx="1279.5" cy="-1240" rx="68.5" ry="18"/>
<text text-anchor="middle" x="1279.5" y="-1238.1" font-family="Helvetica,sans-Serif" font-size="8.00">C&#45;0975</text>
</g>
<!-- C&#45;1253&#45;&gt;C&#45;0975 -->
<g id="edge7" class="edge">
<title>C&#45;1253&#45;&gt;C&#45;0975</title>
<path fill="none" stroke="dimgray" stroke-width="0.8" d="M1236,-1319.72C1236,-1319.72 1236,-1261.1 1236,-1261.1"/>
<polygon fill="dimgray" stroke="dimgray" stroke-width="0.8" points="1238.45,-1261.1 1236,-1254.1 1233.55,-1261.1 1238.45,-1261.1"/>
</g>
<!-- S&#45;2529 -->
<g id="node42" class="node">
<title>S&#45;2529</title>
<polygon fill="mediumseagreen" stroke="black" points="1452.5,-1258 1384,-1240 1452.5,-1222 1521,-1240 1452.5,-1258"/>
<text text-anchor="middle" x="1452.5" y="-1238.1" font-family="Helvetica,sans-Serif" font-size="8.00">S&#45;2529</text>
</g>
<!-- C&#45;1253&#45;&gt;S&#45;2529 -->
<g id="edge46" class="edge">
<title>C&#45;1253&#45;&gt;S&#45;2529</title>
<path fill="none" stroke="dimgray" stroke-width="0.8" d="M1257.1,-1328C1334.11,-1328 1452.5,-1328 1452.5,-1328 1452.5,-1328 1452.5,-1265.23 1452.5,-1265.23"/>
<polygon fill="dimgray" stroke="dimgray" stroke-width="0.8" points="1454.95,-1265.23 1452.5,-1258.23 1450.05,-1265.23 1454.95,-1265.23"/>
</g>
<!-- S&#45;2392 -->
<g id="node45" class="node">
<title>S&#45;2392</title>
<polygon fill="mediumseagreen" stroke="black" points="1625.5,-1258 1557,-1240 1625.5,-1222 1694,-1240 1625.5,-1258"/>
<text text-anchor="middle" x="1625.5" y="-1238.1" font-family="Helvetica,sans-Serif" font-size="8.00">S&#45;2392</text>
</g>
<!-- C&#45;1253&#45;&gt;S&#45;2392 -->
<g id="edge4" class="edge">
<title>C&#45;1253&#45;&gt;S&#45;2392</title>
<path fill="none" stroke="dimgray" stroke-width="0.8" d="M1257.32,-1340C1378.12,-1340 1625.5,-1340 1625.5,-1340 1625.5,-1340 1625.5,-1265.34 1625.5,-1265.34"/>
<polygon fill="dimgray" stroke="dimgray" stroke-width="0.8" points="1627.95,-1265.34 1625.5,-1258.34 1623.05,-1265.34 1627.95,-1265.34"/>
</g>
<!-- S&#45;2278 -->
<g id="node35" class="node">
<title>S&#45;2278</title>
<polygon fill="mediumseagreen" stroke="black" points="793.5,-224 725,-206 793.5,-188 862,-206 793.5,-224"/>
<text text-anchor="middle" x="793.5" y="-204.1" font-family="Helvetica,sans-Serif" font-size="8.00">S&#45;2278</text>
</g>
<!-- C&#45;0736&#45;&gt;R&#45;161 -->
<g id="edge33" class="edge">
<title>C&#45;0736&#45;&gt;R&#45;161</title>
<path fill="none" stroke="dimgray" stroke-width="0.8" d="M620.5,-93.88C620.5,-93.88 620.5,-43.07 620.5,-43.07"/>
<polygon fill="dimgray" stroke="dimgray" stroke-width="0.8" points="622.95,-43.07 620.5,-36.07 618.05,-43.07 622.95,-43.07"/>
</g>
<!-- C&#45;0975&#45;&gt;R&#45;232 -->
<g id="edge8" class="edge">
<title>C&#45;0975&#45;&gt;R&#45;232</title>
<path fill="none" stroke="dimgray" stroke-width="0.8" d="M1279.5,-1221.88C1279.5,-1221.88 1279.5,-1171.07 1279.5,-1171.07"/>
<polygon fill="dimgray" stroke="dimgray" stroke-width="0.8" points="1281.95,-1171.07 1279.5,-1164.07 1277.05,-1171.07 1281.95,-1171.07"/>
</g>
<!-- S&#45;1770 -->
<g id="node40" class="node">
<title>S&#45;1770</title>
<polygon fill="mediumseagreen" stroke="black" points="966.5,-224 898,-206 966.5,-188 1035,-206 966.5,-224"/>
<text text-anchor="middle" x="966.5" y="-204.1" font-family="Helvetica,sans-Serif" font-size="8.00">S&#45;1770</text>
</g>
<!-- C&#45;0608&#45;&gt;S&#45;1966 -->
<g id="edge36" class="edge">
<title>C&#45;0608&#45;&gt;S&#45;1966</title>
<path fill="none" stroke="dimgray" stroke-width="0.8" d="M608.73,-294C550.48,-294 474,-294 474,-294 474,-294 474,-224.15 474,-224.15"/>
<polygon fill="dimgray" stroke="dimgray" stroke-width="0.8" points="476.45,-224.15 474,-217.15 471.55,-224.15 476.45,-224.15"/>
</g>
<!-- C&#45;0608&#45;&gt;S&#45;340 -->
<g id="edge31" class="edge">
<title>C&#45;0608&#45;&gt;S&#45;340</title>
<path fill="none" stroke="dimgray" stroke-width="0.8" d="M647,-283.19C647,-283.19 647,-224.07 647,-224.07"/>
<polygon fill="dimgray" stroke="dimgray" stroke-width="0.8" points="649.45,-224.07 647,-217.07 644.55,-224.07 649.45,-224.07"/>
</g>
<!-- C&#45;0608&#45;&gt;S&#45;2278 -->
<g id="edge39" class="edge">
<title>C&#45;0608&#45;&gt;S&#45;2278</title>
<path fill="none" stroke="dimgray" stroke-width="0.8" d="M733.5,-290.99C733.5,-290.99 733.5,-215.37 733.5,-215.37"/>
<polygon fill="dimgray" stroke="dimgray" stroke-width="0.8" points="735.95,-215.37 733.5,-208.37 731.05,-215.37 735.95,-215.37"/>
</g>
<!-- C&#45;0608&#45;&gt;S&#45;1770 -->
<g id="edge30" class="edge">
<title>C&#45;0608&#45;&gt;S&#45;1770</title>
<path fill="none" stroke="dimgray" stroke-width="0.8" d="M742.2,-300C824.09,-300 950,-300 950,-300 950,-300 950,-226.87 950,-226.87"/>
<polygon fill="dimgray" stroke="dimgray" stroke-width="0.8" points="952.45,-226.87 950,-219.87 947.55,-226.87 952.45,-226.87"/>
</g>
<!-- C&#45;0607 -->
<g id="node44" class="node">
<title>C&#45;0607</title>
<ellipse fill="mediumseagreen" stroke="black" cx="673.5" cy="-488" rx="68.5" ry="18"/>
<text text-anchor="middle" x="673.5" y="-486.1" font-family="Helvetica,sans-Serif" font-size="8.00">C&#45;0607</text>
</g>
<!-- C&#45;0607&#45;&gt;R&#45;098 -->
<g id="edge28" class="edge">
<title>C&#45;0607&#45;&gt;R&#45;098</title>
<path fill="none" stroke="dimgray" stroke-width="0.8" d="M673.5,-469.88C673.5,-469.88 673.5,-419.07 673.5,-419.07"/>
<polygon fill="dimgray" stroke="dimgray" stroke-width="0.8" points="675.95,-419.07 673.5,-412.07 671.05,-419.07 675.95,-419.07"/>
</g>
<!-- S&#45;341&#45;&gt;C&#45;0576 -->
<g id="edge26" class="edge">
<title>S&#45;341&#45;&gt;C&#45;0576</title>
<path fill="none" stroke="dimgray" stroke-width="0.8" d="M544,-575.24C544,-575.24 544,-509.15 544,-509.15"/>
<polygon fill="dimgray" stroke="dimgray" stroke-width="0.8" points="546.45,-509.15 544,-502.15 541.55,-509.15 546.45,-509.15"/>
</g>
<!-- S&#45;341&#45;&gt;C&#45;0607 -->
<g id="edge27" class="edge">
<title>S&#45;341&#45;&gt;C&#45;0607</title>
<path fill="none" stroke="dimgray" stroke-width="0.8" d="M630.5,-575.24C630.5,-575.24 630.5,-509.15 630.5,-509.15"/>
<polygon fill="dimgray" stroke="dimgray" stroke-width="0.8" points="632.95,-509.15 630.5,-502.15 628.05,-509.15 632.95,-509.15"/>
</g>
</g>
</svg>
