<?xml version="1.0" encoding="UTF-8" standalone="no"?>
<!DOCTYPE svg PUBLIC "-//W3C//DTD SVG 1.1//EN"
 "http://www.w3.org/Graphics/SVG/1.1/DTD/svg11.dtd">
<!-- Generated by graphviz version 2.50.0 (0)
 -->
<!-- Title: Grafo_Circuito_303_25_ Pages: 1 -->
<svg width="1412pt" height="1776pt"
 viewBox="0.00 0.00 1412.00 1776.00" xmlns="http://www.w3.org/2000/svg" xmlns:xlink="http://www.w3.org/1999/xlink">
<g id="graph0" class="graph" transform="scale(1 1) rotate(0) translate(4 1772)">
<title>Grafo_Circuito_303_25_</title>
<polygon fill="white" stroke="transparent" points="-4,4 -4,-1772 1408,-1772 1408,4 -4,4"/>
<!-- S&#45;836 -->
<g id="node1" class="node">
<title>S&#45;836</title>
<polygon fill="mediumseagreen" stroke="black" points="252,-1053 180,-1031.5 252,-1010 324,-1031.5 252,-1053"/>
<text text-anchor="middle" x="252" y="-1029" font-family="Arial" font-size="10.00">S&#45;836</text>
</g>
<!-- C&#45;0608 -->
<g id="node2" class="node">
<title>C&#45;0608</title>
<ellipse fill="mediumseagreen" stroke="black" cx="702" cy="-425.5" rx="72" ry="21.5"/>
<text text-anchor="middle" x="702" y="-423" font-family="Arial" font-size="10.00">C&#45;0608</text>
</g>
<!-- S&#45;1966 -->
<g id="node5" class="node">
<title>S&#45;1966</title>
<polygon fill="mediumseagreen" stroke="black" points="342,-346 270,-324.5 342,-303 414,-324.5 342,-346"/>
<text text-anchor="middle" x="342" y="-322" font-family="Arial" font-size="10.00">S&#45;1966</text>
</g>
<!-- C&#45;0608&#45;&gt;S&#45;1966 -->
<g id="edge33" class="edge">
<title>C&#45;0608&#45;&gt;S&#45;1966</title>
<path fill="none" stroke="#4d4d4d" d="M629.73,-425C536.73,-425 387,-425 387,-425 387,-425 387,-339.72 387,-339.72"/>
<polygon fill="#4d4d4d" stroke="#4d4d4d" points="389.45,-339.72 387,-332.72 384.55,-339.72 389.45,-339.72"/>
</g>
<!-- S&#45;340 -->
<g id="node10" class="node">
<title>S&#45;340</title>
<polygon fill="mediumseagreen" stroke="black" points="522,-346 450,-324.5 522,-303 594,-324.5 522,-346"/>
<text text-anchor="middle" x="522" y="-322" font-family="Arial" font-size="10.00">S&#45;340</text>
</g>
<!-- C&#45;0608&#45;&gt;S&#45;340 -->
<g id="edge28" class="edge">
<title>C&#45;0608&#45;&gt;S&#45;340</title>
<path fill="none" stroke="#4d4d4d" d="M640.79,-414C597.09,-414 546,-414 546,-414 546,-414 546,-345.88 546,-345.88"/>
<polygon fill="#4d4d4d" stroke="#4d4d4d" points="548.45,-345.88 546,-338.88 543.55,-345.88 548.45,-345.88"/>
</g>
<!-- S&#45;1770 -->
<g id="node17" class="node">
<title>S&#45;1770</title>
<polygon fill="mediumseagreen" stroke="black" points="702,-346 630,-324.5 702,-303 774,-324.5 702,-346"/>
<text text-anchor="middle" x="702" y="-322" font-family="Arial" font-size="10.00">S&#45;1770</text>
</g>
<!-- C&#45;0608&#45;&gt;S&#45;1770 -->
<g id="edge27" class="edge">
<title>C&#45;0608&#45;&gt;S&#45;1770</title>
<path fill="none" stroke="#4d4d4d" d="M702,-403.58C702,-403.58 702,-353.03 702,-353.03"/>
<polygon fill="#4d4d4d" stroke="#4d4d4d" points="704.45,-353.03 702,-346.03 699.55,-353.03 704.45,-353.03"/>
</g>
<!-- S&#45;2278 -->
<g id="node30" class="node">
<title>S&#45;2278</title>
<polygon fill="mediumseagreen" stroke="black" points="882,-346 810,-324.5 882,-303 954,-324.5 882,-346"/>
<text text-anchor="middle" x="882" y="-322" font-family="Arial" font-size="10.00">S&#45;2278</text>
</g>
<!-- C&#45;0608&#45;&gt;S&#45;2278 -->
<g id="edge7" class="edge">
<title>C&#45;0608&#45;&gt;S&#45;2278</title>
<path fill="none" stroke="#4d4d4d" d="M769.5,-418C803.25,-418 837,-418 837,-418 837,-418 837,-339.8 837,-339.8"/>
<polygon fill="#4d4d4d" stroke="#4d4d4d" points="839.45,-339.8 837,-332.8 834.55,-339.8 839.45,-339.8"/>
</g>
<!-- S&#45;2578 -->
<g id="node45" class="node">
<title>S&#45;2578</title>
<polygon fill="mediumseagreen" stroke="black" points="1062,-346 990,-324.5 1062,-303 1134,-324.5 1062,-346"/>
<text text-anchor="middle" x="1062" y="-322" font-family="Arial" font-size="10.00">S&#45;2578</text>
</g>
<!-- C&#45;0608&#45;&gt;S&#45;2578 -->
<g id="edge26" class="edge">
<title>C&#45;0608&#45;&gt;S&#45;2578</title>
<path fill="none" stroke="#4d4d4d" d="M770.74,-432C863.42,-432 1017,-432 1017,-432 1017,-432 1017,-339.58 1017,-339.58"/>
<polygon fill="#4d4d4d" stroke="#4d4d4d" points="1019.45,-339.58 1017,-332.58 1014.55,-339.58 1019.45,-339.58"/>
</g>
<!-- S&#45;2526 -->
<g id="node3" class="node">
<title>S&#45;2526</title>
<polygon fill="mediumseagreen" stroke="black" points="72,-1154 0,-1132.5 72,-1111 144,-1132.5 72,-1154"/>
<text text-anchor="middle" x="72" y="-1130" font-family="Arial" font-size="10.00">S&#45;2526</text>
</g>
<!-- S&#45;1485 -->
<g id="node4" class="node">
<title>S&#45;1485</title>
<polygon fill="mediumseagreen" stroke="black" points="72,-750 0,-728.5 72,-707 144,-728.5 72,-750"/>
<text text-anchor="middle" x="72" y="-726" font-family="Arial" font-size="10.00">S&#45;1485</text>
</g>
<!-- S&#45;2014 -->
<g id="node7" class="node">
<title>S&#45;2014</title>
<polygon fill="mediumseagreen" stroke="black" points="342,-245 270,-223.5 342,-202 414,-223.5 342,-245"/>
<text text-anchor="middle" x="342" y="-221" font-family="Arial" font-size="10.00">S&#45;2014</text>
</g>
<!-- S&#45;1966&#45;&gt;S&#45;2014 -->
<g id="edge10" class="edge">
<title>S&#45;1966&#45;&gt;S&#45;2014</title>
<path fill="none" stroke="#4d4d4d" d="M342,-302.58C342,-302.58 342,-252.03 342,-252.03"/>
<polygon fill="#4d4d4d" stroke="#4d4d4d" points="344.45,-252.03 342,-245.03 339.55,-252.03 344.45,-252.03"/>
</g>
<!-- C&#45;0010 -->
<g id="node6" class="node">
<title>C&#45;0010</title>
<ellipse fill="mediumseagreen" stroke="black" cx="882" cy="-1637.5" rx="72" ry="21.5"/>
<text text-anchor="middle" x="882" y="-1635" font-family="Arial" font-size="10.00">C&#45;0010</text>
</g>
<!-- C&#45;1252 -->
<g id="node47" class="node">
<title>C&#45;1252</title>
<ellipse fill="mediumseagreen" stroke="black" cx="882" cy="-1536.5" rx="72" ry="21.5"/>
<text text-anchor="middle" x="882" y="-1534" font-family="Arial" font-size="10.00">C&#45;1252</text>
</g>
<!-- C&#45;0010&#45;&gt;C&#45;1252 -->
<g id="edge39" class="edge">
<title>C&#45;0010&#45;&gt;C&#45;1252</title>
<path fill="none" stroke="#4d4d4d" d="M882,-1615.58C882,-1615.58 882,-1565.03 882,-1565.03"/>
<polygon fill="#4d4d4d" stroke="#4d4d4d" points="884.45,-1565.03 882,-1558.03 879.55,-1565.03 884.45,-1565.03"/>
</g>
<!-- C&#45;0986 -->
<g id="node34" class="node">
<title>C&#45;0986</title>
<ellipse fill="mediumseagreen" stroke="black" cx="342" cy="-122.5" rx="72" ry="21.5"/>
<text text-anchor="middle" x="342" y="-120" font-family="Arial" font-size="10.00">C&#45;0986</text>
</g>
<!-- S&#45;2014&#45;&gt;C&#45;0986 -->
<g id="edge9" class="edge">
<title>S&#45;2014&#45;&gt;C&#45;0986</title>
<path fill="none" stroke="#4d4d4d" d="M342,-201.58C342,-201.58 342,-151.03 342,-151.03"/>
<polygon fill="#4d4d4d" stroke="#4d4d4d" points="344.45,-151.03 342,-144.03 339.55,-151.03 344.45,-151.03"/>
</g>
<!-- S&#45;1226 -->
<g id="node8" class="node">
<title>S&#45;1226</title>
<polygon fill="mediumseagreen" stroke="black" points="792,-750 720,-728.5 792,-707 864,-728.5 792,-750"/>
<text text-anchor="middle" x="792" y="-726" font-family="Arial" font-size="10.00">S&#45;1226</text>
</g>
<!-- S&#45;2453 -->
<g id="node9" class="node">
<title>S&#45;2453</title>
<polygon fill="mediumseagreen" stroke="black" points="972,-750 900,-728.5 972,-707 1044,-728.5 972,-750"/>
<text text-anchor="middle" x="972" y="-726" font-family="Arial" font-size="10.00">S&#45;2453</text>
</g>
<!-- S&#45;339 -->
<g id="node27" class="node">
<title>S&#45;339</title>
<polygon fill="mediumseagreen" stroke="black" points="522,-245 450,-223.5 522,-202 594,-223.5 522,-245"/>
<text text-anchor="middle" x="522" y="-221" font-family="Arial" font-size="10.00">S&#45;339</text>
</g>
<!-- S&#45;340&#45;&gt;S&#45;339 -->
<g id="edge31" class="edge">
<title>S&#45;340&#45;&gt;S&#45;339</title>
<path fill="none" stroke="#4d4d4d" d="M522,-302.58C522,-302.58 522,-252.03 522,-252.03"/>
<polygon fill="#4d4d4d" stroke="#4d4d4d" points="524.45,-252.03 522,-245.03 519.55,-252.03 524.45,-252.03"/>
</g>
<!-- C&#45;0736 -->
<g id="node31" class="node">
<title>C&#45;0736</title>
<ellipse fill="mediumseagreen" stroke="black" cx="702" cy="-223.5" rx="72" ry="21.5"/>
<text text-anchor="middle" x="702" y="-221" font-family="Arial" font-size="10.00">C&#45;0736</text>
</g>
<!-- S&#45;340&#45;&gt;C&#45;0736 -->
<g id="edge29" class="edge">
<title>S&#45;340&#45;&gt;C&#45;0736</title>
<path fill="none" stroke="#4d4d4d" d="M592.47,-324C603.86,-324 612,-324 612,-324 612,-324 612,-223 612,-223 612,-223 622.78,-223 622.78,-223"/>
<polygon fill="#4d4d4d" stroke="#4d4d4d" points="622.78,-225.45 629.78,-223 622.78,-220.55 622.78,-225.45"/>
</g>
<!-- S&#45;1942 -->
<g id="node11" class="node">
<title>S&#45;1942</title>
<polygon fill="mediumseagreen" stroke="black" points="252,-1154 180,-1132.5 252,-1111 324,-1132.5 252,-1154"/>
<text text-anchor="middle" x="252" y="-1130" font-family="Arial" font-size="10.00">S&#45;1942</text>
</g>
<!-- S&#45;492 -->
<g id="node12" class="node">
<title>S&#45;492</title>
<polygon fill="mediumseagreen" stroke="black" points="252,-750 180,-728.5 252,-707 324,-728.5 252,-750"/>
<text text-anchor="middle" x="252" y="-726" font-family="Arial" font-size="10.00">S&#45;492</text>
</g>
<!-- S&#45;702 -->
<g id="node13" class="node">
<title>S&#45;702</title>
<polygon fill="mediumseagreen" stroke="black" points="432,-1154 360,-1132.5 432,-1111 504,-1132.5 432,-1154"/>
<text text-anchor="middle" x="432" y="-1130" font-family="Arial" font-size="10.00">S&#45;702</text>
</g>
<!-- S&#45;767 -->
<g id="node14" class="node">
<title>S&#45;767</title>
<polygon fill="mediumseagreen" stroke="black" points="432,-1053 360,-1031.5 432,-1010 504,-1031.5 432,-1053"/>
<text text-anchor="middle" x="432" y="-1029" font-family="Arial" font-size="10.00">S&#45;767</text>
</g>
<!-- R&#45;062 -->
<g id="node33" class="node">
<title>R&#45;062</title>
<polygon fill="mediumseagreen" stroke="black" points="504,-921.59 504,-939.41 461.82,-952 402.18,-952 360,-939.41 360,-921.59 402.18,-909 461.82,-909 504,-921.59"/>
<text text-anchor="middle" x="432" y="-928" font-family="Arial" font-size="10.00">R&#45;062</text>
</g>
<!-- S&#45;767&#45;&gt;R&#45;062 -->
<g id="edge12" class="edge">
<title>S&#45;767&#45;&gt;R&#45;062</title>
<path fill="none" stroke="#4d4d4d" d="M432,-1009.58C432,-1009.58 432,-959.03 432,-959.03"/>
<polygon fill="#4d4d4d" stroke="#4d4d4d" points="434.45,-959.03 432,-952.03 429.55,-959.03 434.45,-959.03"/>
</g>
<!-- C&#45;0193 -->
<g id="node15" class="node">
<title>C&#45;0193</title>
<ellipse fill="tomato" stroke="black" cx="612" cy="-1031.5" rx="72" ry="21.5"/>
<text text-anchor="middle" x="612" y="-1029" font-family="Arial" font-size="10.00">C&#45;0193</text>
</g>
<!-- ext_circ_303_27_ -->
<g id="node49" class="node">
<title>ext_circ_303_27_</title>
<polygon fill="lightpink" stroke="darkorange" stroke-dasharray="5,2" points="684,-952 540,-952 540,-909 684,-909 684,-952"/>
<text text-anchor="middle" x="612" y="-933.5" font-family="Arial" font-size="10.00">Circuito:</text>
<text text-anchor="middle" x="612" y="-922.5" font-family="Arial" font-size="10.00">303&#45;27&#45;</text>
</g>
<!-- C&#45;0193&#45;&gt;ext_circ_303_27_ -->
<g id="edge48" class="edge">
<title>C&#45;0193&#45;&gt;ext_circ_303_27_</title>
<path fill="none" stroke="darkorange" stroke-dasharray="5,2" d="M612,-1009.58C612,-1009.58 612,-959.03 612,-959.03"/>
<polygon fill="darkorange" stroke="darkorange" points="614.45,-959.03 612,-952.03 609.55,-959.03 614.45,-959.03"/>
</g>
<!-- C&#45;0576 -->
<g id="node16" class="node">
<title>C&#45;0576</title>
<ellipse fill="tomato" stroke="black" cx="522" cy="-627.5" rx="72" ry="21.5"/>
<text text-anchor="middle" x="522" y="-625" font-family="Arial" font-size="10.00">C&#45;0576</text>
</g>
<!-- C&#45;0576&#45;&gt;C&#45;0608 -->
<g id="edge49" class="edge">
<title>C&#45;0576&#45;&gt;C&#45;0608</title>
<path fill="none" stroke="blue" stroke-dasharray="5,2" d="M498,-607.01C498,-557.6 498,-436 498,-436 498,-436 632.13,-436 632.13,-436"/>
<polygon fill="blue" stroke="blue" points="632.13,-438.45 639.13,-436 632.13,-433.55 632.13,-438.45"/>
</g>
<!-- S&#45;2380 -->
<g id="node18" class="node">
<title>S&#45;2380</title>
<polygon fill="mediumseagreen" stroke="black" points="612,-1154 540,-1132.5 612,-1111 684,-1132.5 612,-1154"/>
<text text-anchor="middle" x="612" y="-1130" font-family="Arial" font-size="10.00">S&#45;2380</text>
</g>
<!-- C&#45;0975 -->
<g id="node19" class="node">
<title>C&#45;0975</title>
<ellipse fill="mediumseagreen" stroke="black" cx="432" cy="-1435.5" rx="72" ry="21.5"/>
<text text-anchor="middle" x="432" y="-1433" font-family="Arial" font-size="10.00">C&#45;0975</text>
</g>
<!-- R&#45;232 -->
<g id="node39" class="node">
<title>R&#45;232</title>
<polygon fill="mediumseagreen" stroke="black" points="504,-1325.59 504,-1343.41 461.82,-1356 402.18,-1356 360,-1343.41 360,-1325.59 402.18,-1313 461.82,-1313 504,-1325.59"/>
<text text-anchor="middle" x="432" y="-1332" font-family="Arial" font-size="10.00">R&#45;232</text>
</g>
<!-- C&#45;0975&#45;&gt;R&#45;232 -->
<g id="edge45" class="edge">
<title>C&#45;0975&#45;&gt;R&#45;232</title>
<path fill="none" stroke="#4d4d4d" d="M432,-1413.58C432,-1413.58 432,-1363.03 432,-1363.03"/>
<polygon fill="#4d4d4d" stroke="#4d4d4d" points="434.45,-1363.03 432,-1356.03 429.55,-1363.03 434.45,-1363.03"/>
</g>
<!-- S&#45;1914 -->
<g id="node20" class="node">
<title>S&#45;1914</title>
<polygon fill="mediumseagreen" stroke="black" points="792,-1053 720,-1031.5 792,-1010 864,-1031.5 792,-1053"/>
<text text-anchor="middle" x="792" y="-1029" font-family="Arial" font-size="10.00">S&#45;1914</text>
</g>
<!-- R&#45;098 -->
<g id="node21" class="node">
<title>R&#45;098</title>
<polygon fill="mediumseagreen" stroke="black" points="774,-517.59 774,-535.41 731.82,-548 672.18,-548 630,-535.41 630,-517.59 672.18,-505 731.82,-505 774,-517.59"/>
<text text-anchor="middle" x="702" y="-524" font-family="Arial" font-size="10.00">R&#45;098</text>
</g>
<!-- R&#45;098&#45;&gt;C&#45;0608 -->
<g id="edge25" class="edge">
<title>R&#45;098&#45;&gt;C&#45;0608</title>
<path fill="none" stroke="#4d4d4d" d="M702,-504.58C702,-504.58 702,-454.03 702,-454.03"/>
<polygon fill="#4d4d4d" stroke="#4d4d4d" points="704.45,-454.03 702,-447.03 699.55,-454.03 704.45,-454.03"/>
</g>
<!-- S&#45;1381 -->
<g id="node22" class="node">
<title>S&#45;1381</title>
<polygon fill="mediumseagreen" stroke="black" points="972,-1053 900,-1031.5 972,-1010 1044,-1031.5 972,-1053"/>
<text text-anchor="middle" x="972" y="-1029" font-family="Arial" font-size="10.00">S&#45;1381</text>
</g>
<!-- R&#45;161 -->
<g id="node23" class="node">
<title>R&#45;161</title>
<polygon fill="tomato" stroke="black" points="774,-113.59 774,-131.41 731.82,-144 672.18,-144 630,-131.41 630,-113.59 672.18,-101 731.82,-101 774,-113.59"/>
<text text-anchor="middle" x="702" y="-120" font-family="Arial" font-size="10.00">R&#45;161</text>
</g>
<!-- ext_circ_112_24_ -->
<g id="node50" class="node">
<title>ext_circ_112_24_</title>
<polygon fill="lightpink" stroke="darkorange" stroke-dasharray="5,2" points="774,-43 630,-43 630,0 774,0 774,-43"/>
<text text-anchor="middle" x="702" y="-24.5" font-family="Arial" font-size="10.00">Circuito:</text>
<text text-anchor="middle" x="702" y="-13.5" font-family="Arial" font-size="10.00">112&#45;24&#45;</text>
</g>
<!-- R&#45;161&#45;&gt;ext_circ_112_24_ -->
<g id="edge50" class="edge">
<title>R&#45;161&#45;&gt;ext_circ_112_24_</title>
<path fill="none" stroke="darkorange" stroke-dasharray="5,2" d="M702,-100.58C702,-100.58 702,-50.03 702,-50.03"/>
<polygon fill="darkorange" stroke="darkorange" points="704.45,-50.03 702,-43.03 699.55,-50.03 704.45,-50.03"/>
</g>
<!-- S&#45;2392 -->
<g id="node24" class="node">
<title>S&#45;2392</title>
<polygon fill="mediumseagreen" stroke="black" points="612,-1457 540,-1435.5 612,-1414 684,-1435.5 612,-1457"/>
<text text-anchor="middle" x="612" y="-1433" font-family="Arial" font-size="10.00">S&#45;2392</text>
</g>
<!-- S&#45;703 -->
<g id="node25" class="node">
<title>S&#45;703</title>
<polygon fill="mediumseagreen" stroke="black" points="792,-1154 720,-1132.5 792,-1111 864,-1132.5 792,-1154"/>
<text text-anchor="middle" x="792" y="-1130" font-family="Arial" font-size="10.00">S&#45;703</text>
</g>
<!-- S&#45;703&#45;&gt;S&#45;836 -->
<g id="edge36" class="edge">
<title>S&#45;703&#45;&gt;S&#45;836</title>
<path fill="none" stroke="#4d4d4d" d="M756,-1121.6C756,-1109.3 756,-1091 756,-1091 756,-1091 252,-1091 252,-1091 252,-1091 252,-1060.32 252,-1060.32"/>
<polygon fill="#4d4d4d" stroke="#4d4d4d" points="254.45,-1060.32 252,-1053.32 249.55,-1060.32 254.45,-1060.32"/>
</g>
<!-- S&#45;703&#45;&gt;S&#45;767 -->
<g id="edge11" class="edge">
<title>S&#45;703&#45;&gt;S&#45;767</title>
<path fill="none" stroke="#4d4d4d" d="M792,-1111C792,-1093.61 792,-1072 792,-1072 792,-1072 432,-1072 432,-1072 432,-1072 432,-1060.17 432,-1060.17"/>
<polygon fill="#4d4d4d" stroke="#4d4d4d" points="434.45,-1060.17 432,-1053.17 429.55,-1060.17 434.45,-1060.17"/>
</g>
<!-- S&#45;703&#45;&gt;C&#45;0193 -->
<g id="edge8" class="edge">
<title>S&#45;703&#45;&gt;C&#45;0193</title>
<path fill="none" stroke="#4d4d4d" d="M721.53,-1132C710.14,-1132 702,-1132 702,-1132 702,-1132 702,-1031 702,-1031 702,-1031 691.22,-1031 691.22,-1031"/>
<polygon fill="#4d4d4d" stroke="#4d4d4d" points="691.22,-1028.55 684.22,-1031 691.22,-1033.45 691.22,-1028.55"/>
</g>
<!-- S&#45;703&#45;&gt;S&#45;1914 -->
<g id="edge1" class="edge">
<title>S&#45;703&#45;&gt;S&#45;1914</title>
<path fill="none" stroke="#4d4d4d" d="M828,-1121.69C828,-1121.69 828,-1049.54 828,-1049.54"/>
<polygon fill="#4d4d4d" stroke="#4d4d4d" points="830.45,-1049.54 828,-1042.54 825.55,-1049.54 830.45,-1049.54"/>
</g>
<!-- S&#45;703&#45;&gt;S&#45;1381 -->
<g id="edge35" class="edge">
<title>S&#45;703&#45;&gt;S&#45;1381</title>
<path fill="none" stroke="#4d4d4d" d="M825.86,-1121C878,-1121 972,-1121 972,-1121 972,-1121 972,-1060.17 972,-1060.17"/>
<polygon fill="#4d4d4d" stroke="#4d4d4d" points="974.45,-1060.17 972,-1053.17 969.55,-1060.17 974.45,-1060.17"/>
</g>
<!-- C&#45;1129 -->
<g id="node36" class="node">
<title>C&#45;1129</title>
<ellipse fill="mediumseagreen" stroke="black" cx="1152" cy="-1031.5" rx="72" ry="21.5"/>
<text text-anchor="middle" x="1152" y="-1029" font-family="Arial" font-size="10.00">C&#45;1129</text>
</g>
<!-- S&#45;703&#45;&gt;C&#45;1129 -->
<g id="edge2" class="edge">
<title>S&#45;703&#45;&gt;C&#45;1129</title>
<path fill="none" stroke="#4d4d4d" d="M862.69,-1132C967.54,-1132 1152,-1132 1152,-1132 1152,-1132 1152,-1060.31 1152,-1060.31"/>
<polygon fill="#4d4d4d" stroke="#4d4d4d" points="1154.45,-1060.31 1152,-1053.31 1149.55,-1060.31 1154.45,-1060.31"/>
</g>
<!-- S&#45;1382 -->
<g id="node41" class="node">
<title>S&#45;1382</title>
<polygon fill="mediumseagreen" stroke="black" points="1332,-1053 1260,-1031.5 1332,-1010 1404,-1031.5 1332,-1053"/>
<text text-anchor="middle" x="1332" y="-1029" font-family="Arial" font-size="10.00">S&#45;1382</text>
</g>
<!-- S&#45;703&#45;&gt;S&#45;1382 -->
<g id="edge34" class="edge">
<title>S&#45;703&#45;&gt;S&#45;1382</title>
<path fill="none" stroke="#4d4d4d" d="M829.01,-1143C954.48,-1143 1356,-1143 1356,-1143 1356,-1143 1356,-1053.08 1356,-1053.08"/>
<polygon fill="#4d4d4d" stroke="#4d4d4d" points="1358.45,-1053.08 1356,-1046.08 1353.55,-1053.08 1358.45,-1053.08"/>
</g>
<!-- S&#45;2531 -->
<g id="node26" class="node">
<title>S&#45;2531</title>
<polygon fill="mediumseagreen" stroke="black" points="792,-1457 720,-1435.5 792,-1414 864,-1435.5 792,-1457"/>
<text text-anchor="middle" x="792" y="-1433" font-family="Arial" font-size="10.00">S&#45;2531</text>
</g>
<!-- S&#45;2168 -->
<g id="node29" class="node">
<title>S&#45;2168</title>
<polygon fill="mediumseagreen" stroke="black" points="522,-144 450,-122.5 522,-101 594,-122.5 522,-144"/>
<text text-anchor="middle" x="522" y="-120" font-family="Arial" font-size="10.00">S&#45;2168</text>
</g>
<!-- S&#45;339&#45;&gt;S&#45;2168 -->
<g id="edge32" class="edge">
<title>S&#45;339&#45;&gt;S&#45;2168</title>
<path fill="none" stroke="#4d4d4d" d="M522,-201.58C522,-201.58 522,-151.03 522,-151.03"/>
<polygon fill="#4d4d4d" stroke="#4d4d4d" points="524.45,-151.03 522,-144.03 519.55,-151.03 524.45,-151.03"/>
</g>
<!-- C&#45;343 -->
<g id="node28" class="node">
<title>C&#45;343</title>
<ellipse fill="mediumseagreen" stroke="black" cx="432" cy="-728.5" rx="72" ry="21.5"/>
<text text-anchor="middle" x="432" y="-726" font-family="Arial" font-size="10.00">C&#45;343</text>
</g>
<!-- C&#45;0736&#45;&gt;R&#45;161 -->
<g id="edge30" class="edge">
<title>C&#45;0736&#45;&gt;R&#45;161</title>
<path fill="none" stroke="#4d4d4d" d="M702,-201.58C702,-201.58 702,-151.03 702,-151.03"/>
<polygon fill="#4d4d4d" stroke="#4d4d4d" points="704.45,-151.03 702,-144.03 699.55,-151.03 704.45,-151.03"/>
</g>
<!-- C&#45;0607 -->
<g id="node32" class="node">
<title>C&#45;0607</title>
<ellipse fill="mediumseagreen" stroke="black" cx="702" cy="-627.5" rx="72" ry="21.5"/>
<text text-anchor="middle" x="702" y="-625" font-family="Arial" font-size="10.00">C&#45;0607</text>
</g>
<!-- C&#45;0607&#45;&gt;R&#45;098 -->
<g id="edge24" class="edge">
<title>C&#45;0607&#45;&gt;R&#45;098</title>
<path fill="none" stroke="#4d4d4d" d="M702,-605.58C702,-605.58 702,-555.03 702,-555.03"/>
<polygon fill="#4d4d4d" stroke="#4d4d4d" points="704.45,-555.03 702,-548.03 699.55,-555.03 704.45,-555.03"/>
</g>
<!-- S&#45;774 -->
<g id="node37" class="node">
<title>S&#45;774</title>
<polygon fill="mediumseagreen" stroke="black" points="252,-851 180,-829.5 252,-808 324,-829.5 252,-851"/>
<text text-anchor="middle" x="252" y="-827" font-family="Arial" font-size="10.00">S&#45;774</text>
</g>
<!-- R&#45;062&#45;&gt;S&#45;774 -->
<g id="edge13" class="edge">
<title>R&#45;062&#45;&gt;S&#45;774</title>
<path fill="none" stroke="#4d4d4d" d="M359.82,-930C309.75,-930 252,-930 252,-930 252,-930 252,-858.31 252,-858.31"/>
<polygon fill="#4d4d4d" stroke="#4d4d4d" points="254.45,-858.31 252,-851.31 249.55,-858.31 254.45,-858.31"/>
</g>
<!-- C&#45;0413 -->
<g id="node38" class="node">
<title>C&#45;0413</title>
<ellipse fill="mediumseagreen" stroke="black" cx="432" cy="-829.5" rx="72" ry="21.5"/>
<text text-anchor="middle" x="432" y="-827" font-family="Arial" font-size="10.00">C&#45;0413</text>
</g>
<!-- R&#45;062&#45;&gt;C&#45;0413 -->
<g id="edge17" class="edge">
<title>R&#45;062&#45;&gt;C&#45;0413</title>
<path fill="none" stroke="#4d4d4d" d="M432,-908.58C432,-908.58 432,-858.03 432,-858.03"/>
<polygon fill="#4d4d4d" stroke="#4d4d4d" points="434.45,-858.03 432,-851.03 429.55,-858.03 434.45,-858.03"/>
</g>
<!-- S&#45;769 -->
<g id="node43" class="node">
<title>S&#45;769</title>
<polygon fill="mediumseagreen" stroke="black" points="792,-851 720,-829.5 792,-808 864,-829.5 792,-851"/>
<text text-anchor="middle" x="792" y="-827" font-family="Arial" font-size="10.00">S&#45;769</text>
</g>
<!-- R&#45;062&#45;&gt;S&#45;769 -->
<g id="edge14" class="edge">
<title>R&#45;062&#45;&gt;S&#45;769</title>
<path fill="none" stroke="#4d4d4d" d="M504.22,-930C514.68,-930 522,-930 522,-930 522,-930 522,-836 522,-836 522,-836 734.53,-836 734.53,-836"/>
<polygon fill="#4d4d4d" stroke="#4d4d4d" points="734.53,-838.45 741.53,-836 734.53,-833.55 734.53,-838.45"/>
</g>
<!-- S&#45;341 -->
<g id="node35" class="node">
<title>S&#45;341</title>
<polygon fill="mediumseagreen" stroke="black" points="612,-750 540,-728.5 612,-707 684,-728.5 612,-750"/>
<text text-anchor="middle" x="612" y="-726" font-family="Arial" font-size="10.00">S&#45;341</text>
</g>
<!-- S&#45;341&#45;&gt;C&#45;0576 -->
<g id="edge22" class="edge">
<title>S&#45;341&#45;&gt;C&#45;0576</title>
<path fill="none" stroke="#4d4d4d" d="M567,-720.23C567,-720.23 567,-651.52 567,-651.52"/>
<polygon fill="#4d4d4d" stroke="#4d4d4d" points="569.45,-651.52 567,-644.52 564.55,-651.52 569.45,-651.52"/>
</g>
<!-- S&#45;341&#45;&gt;C&#45;0607 -->
<g id="edge23" class="edge">
<title>S&#45;341&#45;&gt;C&#45;0607</title>
<path fill="none" stroke="#4d4d4d" d="M657,-720.23C657,-720.23 657,-651.52 657,-651.52"/>
<polygon fill="#4d4d4d" stroke="#4d4d4d" points="659.45,-651.52 657,-644.52 654.55,-651.52 659.45,-651.52"/>
</g>
<!-- C&#45;0413&#45;&gt;S&#45;1485 -->
<g id="edge19" class="edge">
<title>C&#45;0413&#45;&gt;S&#45;1485</title>
<path fill="none" stroke="#4d4d4d" d="M408,-808.96C408,-794.98 408,-779 408,-779 408,-779 72,-779 72,-779 72,-779 72,-757.21 72,-757.21"/>
<polygon fill="#4d4d4d" stroke="#4d4d4d" points="74.45,-757.21 72,-750.21 69.55,-757.21 74.45,-757.21"/>
</g>
<!-- C&#45;0413&#45;&gt;S&#45;492 -->
<g id="edge18" class="edge">
<title>C&#45;0413&#45;&gt;S&#45;492</title>
<path fill="none" stroke="#4d4d4d" d="M359.78,-829C349.32,-829 342,-829 342,-829 342,-829 342,-728 342,-728 342,-728 329.47,-728 329.47,-728"/>
<polygon fill="#4d4d4d" stroke="#4d4d4d" points="329.47,-725.55 322.47,-728 329.47,-730.45 329.47,-725.55"/>
</g>
<!-- C&#45;0413&#45;&gt;C&#45;343 -->
<g id="edge20" class="edge">
<title>C&#45;0413&#45;&gt;C&#45;343</title>
<path fill="none" stroke="#4d4d4d" d="M456,-809.06C456,-809.06 456,-755.91 456,-755.91"/>
<polygon fill="#4d4d4d" stroke="#4d4d4d" points="458.45,-755.91 456,-748.91 453.55,-755.91 458.45,-755.91"/>
</g>
<!-- C&#45;0413&#45;&gt;S&#45;341 -->
<g id="edge21" class="edge">
<title>C&#45;0413&#45;&gt;S&#45;341</title>
<path fill="none" stroke="#4d4d4d" d="M499.54,-822C550.61,-822 612,-822 612,-822 612,-822 612,-757.19 612,-757.19"/>
<polygon fill="#4d4d4d" stroke="#4d4d4d" points="614.45,-757.19 612,-750.19 609.55,-757.19 614.45,-757.19"/>
</g>
<!-- C&#45;0976 -->
<g id="node42" class="node">
<title>C&#45;0976</title>
<ellipse fill="mediumseagreen" stroke="black" cx="432" cy="-1233.5" rx="72" ry="21.5"/>
<text text-anchor="middle" x="432" y="-1231" font-family="Arial" font-size="10.00">C&#45;0976</text>
</g>
<!-- R&#45;232&#45;&gt;C&#45;0976 -->
<g id="edge46" class="edge">
<title>R&#45;232&#45;&gt;C&#45;0976</title>
<path fill="none" stroke="#4d4d4d" d="M432,-1312.58C432,-1312.58 432,-1262.03 432,-1262.03"/>
<polygon fill="#4d4d4d" stroke="#4d4d4d" points="434.45,-1262.03 432,-1255.03 429.55,-1262.03 434.45,-1262.03"/>
</g>
<!-- S&#45;2529 -->
<g id="node40" class="node">
<title>S&#45;2529</title>
<polygon fill="mediumseagreen" stroke="black" points="972,-1457 900,-1435.5 972,-1414 1044,-1435.5 972,-1457"/>
<text text-anchor="middle" x="972" y="-1433" font-family="Arial" font-size="10.00">S&#45;2529</text>
</g>
<!-- C&#45;0976&#45;&gt;S&#45;2526 -->
<g id="edge4" class="edge">
<title>C&#45;0976&#45;&gt;S&#45;2526</title>
<path fill="none" stroke="#4d4d4d" d="M363.01,-1240C258.48,-1240 72,-1240 72,-1240 72,-1240 72,-1161.25 72,-1161.25"/>
<polygon fill="#4d4d4d" stroke="#4d4d4d" points="74.45,-1161.25 72,-1154.25 69.55,-1161.25 74.45,-1161.25"/>
</g>
<!-- C&#45;0976&#45;&gt;S&#45;1942 -->
<g id="edge47" class="edge">
<title>C&#45;0976&#45;&gt;S&#45;1942</title>
<path fill="none" stroke="#4d4d4d" d="M364.46,-1226C313.39,-1226 252,-1226 252,-1226 252,-1226 252,-1161.19 252,-1161.19"/>
<polygon fill="#4d4d4d" stroke="#4d4d4d" points="254.45,-1161.19 252,-1154.19 249.55,-1161.19 254.45,-1161.19"/>
</g>
<!-- C&#45;0976&#45;&gt;S&#45;702 -->
<g id="edge5" class="edge">
<title>C&#45;0976&#45;&gt;S&#45;702</title>
<path fill="none" stroke="#4d4d4d" d="M432,-1211.58C432,-1211.58 432,-1161.03 432,-1161.03"/>
<polygon fill="#4d4d4d" stroke="#4d4d4d" points="434.45,-1161.03 432,-1154.03 429.55,-1161.03 434.45,-1161.03"/>
</g>
<!-- C&#45;0976&#45;&gt;S&#45;2380 -->
<g id="edge3" class="edge">
<title>C&#45;0976&#45;&gt;S&#45;2380</title>
<path fill="none" stroke="#4d4d4d" d="M492.94,-1222C545.16,-1222 612,-1222 612,-1222 612,-1222 612,-1161.17 612,-1161.17"/>
<polygon fill="#4d4d4d" stroke="#4d4d4d" points="614.45,-1161.17 612,-1154.17 609.55,-1161.17 614.45,-1161.17"/>
</g>
<!-- C&#45;0976&#45;&gt;S&#45;703 -->
<g id="edge37" class="edge">
<title>C&#45;0976&#45;&gt;S&#45;703</title>
<path fill="none" stroke="#4d4d4d" d="M503.99,-1233C609.04,-1233 792,-1233 792,-1233 792,-1233 792,-1161.31 792,-1161.31"/>
<polygon fill="#4d4d4d" stroke="#4d4d4d" points="794.45,-1161.31 792,-1154.31 789.55,-1161.31 794.45,-1161.31"/>
</g>
<!-- S&#45;769&#45;&gt;S&#45;1226 -->
<g id="edge16" class="edge">
<title>S&#45;769&#45;&gt;S&#45;1226</title>
<path fill="none" stroke="#4d4d4d" d="M792,-807.58C792,-807.58 792,-757.03 792,-757.03"/>
<polygon fill="#4d4d4d" stroke="#4d4d4d" points="794.45,-757.03 792,-750.03 789.55,-757.03 794.45,-757.03"/>
</g>
<!-- S&#45;769&#45;&gt;S&#45;2453 -->
<g id="edge15" class="edge">
<title>S&#45;769&#45;&gt;S&#45;2453</title>
<path fill="none" stroke="#4d4d4d" d="M862.37,-829C912.85,-829 972,-829 972,-829 972,-829 972,-757.31 972,-757.31"/>
<polygon fill="#4d4d4d" stroke="#4d4d4d" points="974.45,-757.31 972,-750.31 969.55,-757.31 974.45,-757.31"/>
</g>
<!-- 303&#45;25&#45; -->
<g id="node44" class="node">
<title>303&#45;25&#45;</title>
<polygon fill="gold" stroke="black" points="954,-1733.59 954,-1751.41 911.82,-1764 852.18,-1764 810,-1751.41 810,-1733.59 852.18,-1721 911.82,-1721 954,-1733.59"/>
<polygon fill="none" stroke="black" points="958,-1730.61 958,-1754.39 912.41,-1768 851.59,-1768 806,-1754.39 806,-1730.61 851.59,-1717 912.41,-1717 958,-1730.61"/>
<text text-anchor="middle" x="882" y="-1740" font-family="Arial" font-size="10.00">303&#45;25&#45;</text>
</g>
<!-- 303&#45;25&#45;&#45;&gt;C&#45;0010 -->
<g id="edge38" class="edge">
<title>303&#45;25&#45;&#45;&gt;C&#45;0010</title>
<path fill="none" stroke="#4d4d4d" d="M882,-1716.81C882,-1716.81 882,-1666.03 882,-1666.03"/>
<polygon fill="#4d4d4d" stroke="#4d4d4d" points="884.45,-1666.03 882,-1659.03 879.55,-1666.03 884.45,-1666.03"/>
</g>
<!-- S&#45;1735 -->
<g id="node46" class="node">
<title>S&#45;1735</title>
<polygon fill="mediumseagreen" stroke="black" points="1152,-1457 1080,-1435.5 1152,-1414 1224,-1435.5 1152,-1457"/>
<text text-anchor="middle" x="1152" y="-1433" font-family="Arial" font-size="10.00">S&#45;1735</text>
</g>
<!-- C&#45;1252&#45;&gt;C&#45;0975 -->
<g id="edge43" class="edge">
<title>C&#45;1252&#45;&gt;C&#45;0975</title>
<path fill="none" stroke="#4d4d4d" d="M813.16,-1543C687.11,-1543 432,-1543 432,-1543 432,-1543 432,-1464.25 432,-1464.25"/>
<polygon fill="#4d4d4d" stroke="#4d4d4d" points="434.45,-1464.25 432,-1457.25 429.55,-1464.25 434.45,-1464.25"/>
</g>
<!-- C&#45;1252&#45;&gt;S&#45;2392 -->
<g id="edge41" class="edge">
<title>C&#45;1252&#45;&gt;S&#45;2392</title>
<path fill="none" stroke="#4d4d4d" d="M814.22,-1529C734.24,-1529 612,-1529 612,-1529 612,-1529 612,-1464.19 612,-1464.19"/>
<polygon fill="#4d4d4d" stroke="#4d4d4d" points="614.45,-1464.19 612,-1457.19 609.55,-1464.19 614.45,-1464.19"/>
</g>
<!-- C&#45;1252&#45;&gt;S&#45;2531 -->
<g id="edge42" class="edge">
<title>C&#45;1252&#45;&gt;S&#45;2531</title>
<path fill="none" stroke="#4d4d4d" d="M837,-1519.37C837,-1519.37 837,-1450.78 837,-1450.78"/>
<polygon fill="#4d4d4d" stroke="#4d4d4d" points="839.45,-1450.78 837,-1443.78 834.55,-1450.78 839.45,-1450.78"/>
</g>
<!-- C&#45;1252&#45;&gt;S&#45;2529 -->
<g id="edge6" class="edge">
<title>C&#45;1252&#45;&gt;S&#45;2529</title>
<path fill="none" stroke="#4d4d4d" d="M927,-1519.37C927,-1519.37 927,-1450.78 927,-1450.78"/>
<polygon fill="#4d4d4d" stroke="#4d4d4d" points="929.45,-1450.78 927,-1443.78 924.55,-1450.78 929.45,-1450.78"/>
</g>
<!-- C&#45;1252&#45;&gt;S&#45;1735 -->
<g id="edge40" class="edge">
<title>C&#45;1252&#45;&gt;S&#45;1735</title>
<path fill="none" stroke="#4d4d4d" d="M949.78,-1529C1029.76,-1529 1152,-1529 1152,-1529 1152,-1529 1152,-1464.19 1152,-1464.19"/>
<polygon fill="#4d4d4d" stroke="#4d4d4d" points="1154.45,-1464.19 1152,-1457.19 1149.55,-1464.19 1154.45,-1464.19"/>
</g>
<!-- C&#45;0664 -->
<g id="node48" class="node">
<title>C&#45;0664</title>
<ellipse fill="tomato" stroke="black" cx="1332" cy="-1435.5" rx="72" ry="21.5"/>
<text text-anchor="middle" x="1332" y="-1433" font-family="Arial" font-size="10.00">C&#45;0664</text>
</g>
<!-- C&#45;1252&#45;&gt;C&#45;0664 -->
<g id="edge44" class="edge">
<title>C&#45;1252&#45;&gt;C&#45;0664</title>
<path fill="none" stroke="#4d4d4d" d="M950.84,-1543C1076.89,-1543 1332,-1543 1332,-1543 1332,-1543 1332,-1464.25 1332,-1464.25"/>
<polygon fill="#4d4d4d" stroke="#4d4d4d" points="1334.45,-1464.25 1332,-1457.25 1329.55,-1464.25 1334.45,-1464.25"/>
</g>
<!-- C&#45;0664&#45;&gt;C&#45;0976 -->
<g id="edge51" class="edge">
<title>C&#45;0664&#45;&gt;C&#45;0976</title>
<path fill="none" stroke="blue" stroke-dasharray="5,2" d="M1308,-1415.01C1308,-1365.6 1308,-1244 1308,-1244 1308,-1244 502,-1244 502,-1244"/>
<polygon fill="blue" stroke="blue" points="502,-1241.55 495,-1244 502,-1246.45 502,-1241.55"/>
</g>
</g>
</svg>
