<?xml version="1.0" encoding="UTF-8" standalone="no"?>
<!DOCTYPE svg PUBLIC "-//W3C//DTD SVG 1.1//EN"
 "http://www.w3.org/Graphics/SVG/1.1/DTD/svg11.dtd">
<!-- Generated by graphviz version 2.50.0 (0)
 -->
<!-- Title: Grafo_Circuito_303_25_ Pages: 1 -->
<svg width="2006pt" height="1877pt"
 viewBox="0.00 0.00 2006.00 1877.00" xmlns="http://www.w3.org/2000/svg" xmlns:xlink="http://www.w3.org/1999/xlink">
<g id="graph0" class="graph" transform="scale(1 1) rotate(0) translate(4 1873)">
<title>Grafo_Circuito_303_25_</title>
<polygon fill="white" stroke="transparent" points="-4,4 -4,-1873 2002,-1873 2002,4 -4,4"/>
<!-- C&#45;1253 -->
<g id="node1" class="node">
<title>C&#45;1253</title>
<ellipse fill="mediumseagreen" stroke="black" cx="1476" cy="-1637.5" rx="72" ry="21.5"/>
<text text-anchor="middle" x="1476" y="-1635" font-family="Arial" font-size="10.00">C&#45;1253</text>
</g>
<!-- C&#45;0664 -->
<g id="node10" class="node">
<title>C&#45;0664</title>
<ellipse fill="tomato" stroke="black" cx="1026" cy="-1536.5" rx="72" ry="21.5"/>
<text text-anchor="middle" x="1026" y="-1534" font-family="Arial" font-size="10.00">C&#45;0664</text>
</g>
<!-- C&#45;1253&#45;&gt;C&#45;0664 -->
<g id="edge7" class="edge">
<title>C&#45;1253&#45;&gt;C&#45;0664</title>
<path fill="none" stroke="#4d4d4d" d="M1407.16,-1644C1281.11,-1644 1026,-1644 1026,-1644 1026,-1644 1026,-1565.25 1026,-1565.25"/>
<polygon fill="#4d4d4d" stroke="#4d4d4d" points="1028.45,-1565.25 1026,-1558.25 1023.55,-1565.25 1028.45,-1565.25"/>
</g>
<!-- S&#45;2529 -->
<g id="node24" class="node">
<title>S&#45;2529</title>
<polygon fill="mediumseagreen" stroke="black" points="1206,-1558 1134,-1536.5 1206,-1515 1278,-1536.5 1206,-1558"/>
<text text-anchor="middle" x="1206" y="-1534" font-family="Arial" font-size="10.00">S&#45;2529</text>
</g>
<!-- C&#45;1253&#45;&gt;S&#45;2529 -->
<g id="edge53" class="edge">
<title>C&#45;1253&#45;&gt;S&#45;2529</title>
<path fill="none" stroke="#4d4d4d" d="M1408.22,-1630C1328.24,-1630 1206,-1630 1206,-1630 1206,-1630 1206,-1565.19 1206,-1565.19"/>
<polygon fill="#4d4d4d" stroke="#4d4d4d" points="1208.45,-1565.19 1206,-1558.19 1203.55,-1565.19 1208.45,-1565.19"/>
</g>
<!-- S&#45;2392 -->
<g id="node29" class="node">
<title>S&#45;2392</title>
<polygon fill="mediumseagreen" stroke="black" points="1386,-1558 1314,-1536.5 1386,-1515 1458,-1536.5 1386,-1558"/>
<text text-anchor="middle" x="1386" y="-1534" font-family="Arial" font-size="10.00">S&#45;2392</text>
</g>
<!-- C&#45;1253&#45;&gt;S&#45;2392 -->
<g id="edge4" class="edge">
<title>C&#45;1253&#45;&gt;S&#45;2392</title>
<path fill="none" stroke="#4d4d4d" d="M1431,-1620.37C1431,-1620.37 1431,-1551.78 1431,-1551.78"/>
<polygon fill="#4d4d4d" stroke="#4d4d4d" points="1433.45,-1551.78 1431,-1544.78 1428.55,-1551.78 1433.45,-1551.78"/>
</g>
<!-- C&#45;0975 -->
<g id="node31" class="node">
<title>C&#45;0975</title>
<ellipse fill="mediumseagreen" stroke="black" cx="1566" cy="-1536.5" rx="72" ry="21.5"/>
<text text-anchor="middle" x="1566" y="-1534" font-family="Arial" font-size="10.00">C&#45;0975</text>
</g>
<!-- C&#45;1253&#45;&gt;C&#45;0975 -->
<g id="edge6" class="edge">
<title>C&#45;1253&#45;&gt;C&#45;0975</title>
<path fill="none" stroke="#4d4d4d" d="M1521,-1620.37C1521,-1620.37 1521,-1560.38 1521,-1560.38"/>
<polygon fill="#4d4d4d" stroke="#4d4d4d" points="1523.45,-1560.38 1521,-1553.38 1518.55,-1560.38 1523.45,-1560.38"/>
</g>
<!-- S&#45;2531 -->
<g id="node39" class="node">
<title>S&#45;2531</title>
<polygon fill="mediumseagreen" stroke="black" points="1746,-1558 1674,-1536.5 1746,-1515 1818,-1536.5 1746,-1558"/>
<text text-anchor="middle" x="1746" y="-1534" font-family="Arial" font-size="10.00">S&#45;2531</text>
</g>
<!-- C&#45;1253&#45;&gt;S&#45;2531 -->
<g id="edge5" class="edge">
<title>C&#45;1253&#45;&gt;S&#45;2531</title>
<path fill="none" stroke="#4d4d4d" d="M1543.78,-1630C1623.76,-1630 1746,-1630 1746,-1630 1746,-1630 1746,-1565.19 1746,-1565.19"/>
<polygon fill="#4d4d4d" stroke="#4d4d4d" points="1748.45,-1565.19 1746,-1558.19 1743.55,-1565.19 1748.45,-1565.19"/>
</g>
<!-- S&#45;1735 -->
<g id="node53" class="node">
<title>S&#45;1735</title>
<polygon fill="mediumseagreen" stroke="black" points="1926,-1558 1854,-1536.5 1926,-1515 1998,-1536.5 1926,-1558"/>
<text text-anchor="middle" x="1926" y="-1534" font-family="Arial" font-size="10.00">S&#45;1735</text>
</g>
<!-- C&#45;1253&#45;&gt;S&#45;1735 -->
<g id="edge3" class="edge">
<title>C&#45;1253&#45;&gt;S&#45;1735</title>
<path fill="none" stroke="#4d4d4d" d="M1544.84,-1644C1670.89,-1644 1926,-1644 1926,-1644 1926,-1644 1926,-1565.25 1926,-1565.25"/>
<polygon fill="#4d4d4d" stroke="#4d4d4d" points="1928.45,-1565.25 1926,-1558.25 1923.55,-1565.25 1928.45,-1565.25"/>
</g>
<!-- S&#45;339 -->
<g id="node2" class="node">
<title>S&#45;339</title>
<polygon fill="mediumseagreen" stroke="black" points="1122,-346 1050,-324.5 1122,-303 1194,-324.5 1122,-346"/>
<text text-anchor="middle" x="1122" y="-322" font-family="Arial" font-size="10.00">S&#45;339</text>
</g>
<!-- S&#45;2168 -->
<g id="node51" class="node">
<title>S&#45;2168</title>
<polygon fill="mediumseagreen" stroke="black" points="1129,-245 1057,-223.5 1129,-202 1201,-223.5 1129,-245"/>
<text text-anchor="middle" x="1129" y="-221" font-family="Arial" font-size="10.00">S&#45;2168</text>
</g>
<!-- S&#45;339&#45;&gt;S&#45;2168 -->
<g id="edge38" class="edge">
<title>S&#45;339&#45;&gt;S&#45;2168</title>
<path fill="none" stroke="#4d4d4d" d="M1125.5,-303.57C1125.5,-303.57 1125.5,-251.05 1125.5,-251.05"/>
<polygon fill="#4d4d4d" stroke="#4d4d4d" points="1127.95,-251.05 1125.5,-244.05 1123.05,-251.05 1127.95,-251.05"/>
</g>
<!-- R&#45;232 -->
<g id="node3" class="node">
<title>R&#45;232</title>
<polygon fill="mediumseagreen" stroke="black" points="1638,-1426.59 1638,-1444.41 1595.82,-1457 1536.18,-1457 1494,-1444.41 1494,-1426.59 1536.18,-1414 1595.82,-1414 1638,-1426.59"/>
<text text-anchor="middle" x="1566" y="-1433" font-family="Arial" font-size="10.00">R&#45;232</text>
</g>
<!-- C&#45;0976 -->
<g id="node30" class="node">
<title>C&#45;0976</title>
<ellipse fill="mediumseagreen" stroke="black" cx="1566" cy="-1334.5" rx="72" ry="21.5"/>
<text text-anchor="middle" x="1566" y="-1332" font-family="Arial" font-size="10.00">C&#45;0976</text>
</g>
<!-- R&#45;232&#45;&gt;C&#45;0976 -->
<g id="edge9" class="edge">
<title>R&#45;232&#45;&gt;C&#45;0976</title>
<path fill="none" stroke="#4d4d4d" d="M1566,-1413.58C1566,-1413.58 1566,-1363.03 1566,-1363.03"/>
<polygon fill="#4d4d4d" stroke="#4d4d4d" points="1568.45,-1363.03 1566,-1356.03 1563.55,-1363.03 1568.45,-1363.03"/>
</g>
<!-- C&#45;0608 -->
<g id="node4" class="node">
<title>C&#45;0608</title>
<ellipse fill="mediumseagreen" stroke="black" cx="951" cy="-526.5" rx="72" ry="21.5"/>
<text text-anchor="middle" x="951" y="-524" font-family="Arial" font-size="10.00">C&#45;0608</text>
</g>
<!-- S&#45;2578 -->
<g id="node7" class="node">
<title>S&#45;2578</title>
<polygon fill="mediumseagreen" stroke="black" points="582,-447 510,-425.5 582,-404 654,-425.5 582,-447"/>
<text text-anchor="middle" x="582" y="-423" font-family="Arial" font-size="10.00">S&#45;2578</text>
</g>
<!-- C&#45;0608&#45;&gt;S&#45;2578 -->
<g id="edge31" class="edge">
<title>C&#45;0608&#45;&gt;S&#45;2578</title>
<path fill="none" stroke="#4d4d4d" d="M882.33,-533C779.38,-533 597,-533 597,-533 597,-533 597,-449.77 597,-449.77"/>
<polygon fill="#4d4d4d" stroke="#4d4d4d" points="599.45,-449.77 597,-442.77 594.55,-449.77 599.45,-449.77"/>
</g>
<!-- S&#45;1770 -->
<g id="node16" class="node">
<title>S&#45;1770</title>
<polygon fill="mediumseagreen" stroke="black" points="762,-447 690,-425.5 762,-404 834,-425.5 762,-447"/>
<text text-anchor="middle" x="762" y="-423" font-family="Arial" font-size="10.00">S&#45;1770</text>
</g>
<!-- C&#45;0608&#45;&gt;S&#45;1770 -->
<g id="edge32" class="edge">
<title>C&#45;0608&#45;&gt;S&#45;1770</title>
<path fill="none" stroke="#4d4d4d" d="M883.23,-519C834.37,-519 777,-519 777,-519 777,-519 777,-449.65 777,-449.65"/>
<polygon fill="#4d4d4d" stroke="#4d4d4d" points="779.45,-449.65 777,-442.65 774.55,-449.65 779.45,-449.65"/>
</g>
<!-- S&#45;1966 -->
<g id="node23" class="node">
<title>S&#45;1966</title>
<polygon fill="mediumseagreen" stroke="black" points="942,-447 870,-425.5 942,-404 1014,-425.5 942,-447"/>
<text text-anchor="middle" x="942" y="-423" font-family="Arial" font-size="10.00">S&#45;1966</text>
</g>
<!-- C&#45;0608&#45;&gt;S&#45;1966 -->
<g id="edge39" class="edge">
<title>C&#45;0608&#45;&gt;S&#45;1966</title>
<path fill="none" stroke="#4d4d4d" d="M946.5,-504.58C946.5,-504.58 946.5,-452.66 946.5,-452.66"/>
<polygon fill="#4d4d4d" stroke="#4d4d4d" points="948.95,-452.66 946.5,-445.66 944.05,-452.66 948.95,-452.66"/>
</g>
<!-- S&#45;2278 -->
<g id="node38" class="node">
<title>S&#45;2278</title>
<polygon fill="mediumseagreen" stroke="black" points="1122,-447 1050,-425.5 1122,-404 1194,-425.5 1122,-447"/>
<text text-anchor="middle" x="1122" y="-423" font-family="Arial" font-size="10.00">S&#45;2278</text>
</g>
<!-- C&#45;0608&#45;&gt;S&#45;2278 -->
<g id="edge44" class="edge">
<title>C&#45;0608&#45;&gt;S&#45;2278</title>
<path fill="none" stroke="#4d4d4d" d="M1018.5,-518.87C1018.5,-495.27 1018.5,-425 1018.5,-425 1018.5,-425 1044.53,-425 1044.53,-425"/>
<polygon fill="#4d4d4d" stroke="#4d4d4d" points="1044.53,-427.45 1051.53,-425 1044.53,-422.55 1044.53,-427.45"/>
</g>
<!-- S&#45;340 -->
<g id="node48" class="node">
<title>S&#45;340</title>
<polygon fill="mediumseagreen" stroke="black" points="1302,-447 1230,-425.5 1302,-404 1374,-425.5 1302,-447"/>
<text text-anchor="middle" x="1302" y="-423" font-family="Arial" font-size="10.00">S&#45;340</text>
</g>
<!-- C&#45;0608&#45;&gt;S&#45;340 -->
<g id="edge33" class="edge">
<title>C&#45;0608&#45;&gt;S&#45;340</title>
<path fill="none" stroke="#4d4d4d" d="M1018.69,-519C1108.54,-519 1256,-519 1256,-519 1256,-519 1256,-440.47 1256,-440.47"/>
<polygon fill="#4d4d4d" stroke="#4d4d4d" points="1258.45,-440.47 1256,-433.47 1253.55,-440.47 1258.45,-440.47"/>
</g>
<!-- C&#45;0607 -->
<g id="node5" class="node">
<title>C&#45;0607</title>
<ellipse fill="mediumseagreen" stroke="black" cx="970" cy="-728.5" rx="72" ry="21.5"/>
<text text-anchor="middle" x="970" y="-726" font-family="Arial" font-size="10.00">C&#45;0607</text>
</g>
<!-- R&#45;098 -->
<g id="node20" class="node">
<title>R&#45;098</title>
<polygon fill="mediumseagreen" stroke="black" points="1041,-618.59 1041,-636.41 998.82,-649 939.18,-649 897,-636.41 897,-618.59 939.18,-606 998.82,-606 1041,-618.59"/>
<text text-anchor="middle" x="969" y="-625" font-family="Arial" font-size="10.00">R&#45;098</text>
</g>
<!-- C&#45;0607&#45;&gt;R&#45;098 -->
<g id="edge29" class="edge">
<title>C&#45;0607&#45;&gt;R&#45;098</title>
<path fill="none" stroke="#4d4d4d" d="M969.5,-706.58C969.5,-706.58 969.5,-656.03 969.5,-656.03"/>
<polygon fill="#4d4d4d" stroke="#4d4d4d" points="971.95,-656.03 969.5,-649.03 967.05,-656.03 971.95,-656.03"/>
</g>
<!-- S&#45;703 -->
<g id="node6" class="node">
<title>S&#45;703</title>
<polygon fill="mediumseagreen" stroke="black" points="1206,-1255 1134,-1233.5 1206,-1212 1278,-1233.5 1206,-1255"/>
<text text-anchor="middle" x="1206" y="-1231" font-family="Arial" font-size="10.00">S&#45;703</text>
</g>
<!-- S&#45;767 -->
<g id="node11" class="node">
<title>S&#45;767</title>
<polygon fill="mediumseagreen" stroke="black" points="646,-1154 574,-1132.5 646,-1111 718,-1132.5 646,-1154"/>
<text text-anchor="middle" x="646" y="-1130" font-family="Arial" font-size="10.00">S&#45;767</text>
</g>
<!-- S&#45;703&#45;&gt;S&#45;767 -->
<g id="edge15" class="edge">
<title>S&#45;703&#45;&gt;S&#45;767</title>
<path fill="none" stroke="#4d4d4d" d="M1155.32,-1240C1017.47,-1240 646,-1240 646,-1240 646,-1240 646,-1161.25 646,-1161.25"/>
<polygon fill="#4d4d4d" stroke="#4d4d4d" points="648.45,-1161.25 646,-1154.25 643.55,-1161.25 648.45,-1161.25"/>
</g>
<!-- C&#45;0166 -->
<g id="node19" class="node">
<title>C&#45;0166</title>
<ellipse fill="tomato" stroke="black" cx="931" cy="-1031.5" rx="72" ry="21.5"/>
<text text-anchor="middle" x="931" y="-1029" font-family="Arial" font-size="10.00">C&#45;0166</text>
</g>
<!-- S&#45;703&#45;&gt;C&#45;0166 -->
<g id="edge49" class="edge">
<title>S&#45;703&#45;&gt;C&#45;0166</title>
<path fill="none" stroke="#4d4d4d" d="M1197,-1214.4C1197,-1165.21 1197,-1038 1197,-1038 1197,-1038 1006.85,-1038 1006.85,-1038"/>
<polygon fill="#4d4d4d" stroke="#4d4d4d" points="1006.85,-1035.55 999.85,-1038 1006.85,-1040.45 1006.85,-1035.55"/>
</g>
<!-- S&#45;1914 -->
<g id="node33" class="node">
<title>S&#45;1914</title>
<polygon fill="mediumseagreen" stroke="black" points="936,-1154 864,-1132.5 936,-1111 1008,-1132.5 936,-1154"/>
<text text-anchor="middle" x="936" y="-1130" font-family="Arial" font-size="10.00">S&#45;1914</text>
</g>
<!-- S&#45;703&#45;&gt;S&#45;1914 -->
<g id="edge46" class="edge">
<title>S&#45;703&#45;&gt;S&#45;1914</title>
<path fill="none" stroke="#4d4d4d" d="M1159.11,-1226C1093.17,-1226 981,-1226 981,-1226 981,-1226 981,-1147.8 981,-1147.8"/>
<polygon fill="#4d4d4d" stroke="#4d4d4d" points="983.45,-1147.8 981,-1140.8 978.55,-1147.8 983.45,-1147.8"/>
</g>
<!-- S&#45;1382 -->
<g id="node36" class="node">
<title>S&#45;1382</title>
<polygon fill="mediumseagreen" stroke="black" points="1116,-1154 1044,-1132.5 1116,-1111 1188,-1132.5 1116,-1154"/>
<text text-anchor="middle" x="1116" y="-1130" font-family="Arial" font-size="10.00">S&#45;1382</text>
</g>
<!-- S&#45;703&#45;&gt;S&#45;1382 -->
<g id="edge14" class="edge">
<title>S&#45;703&#45;&gt;S&#45;1382</title>
<path fill="none" stroke="#4d4d4d" d="M1161,-1225.23C1161,-1225.23 1161,-1147.6 1161,-1147.6"/>
<polygon fill="#4d4d4d" stroke="#4d4d4d" points="1163.45,-1147.6 1161,-1140.6 1158.55,-1147.6 1163.45,-1147.6"/>
</g>
<!-- S&#45;836 -->
<g id="node40" class="node">
<title>S&#45;836</title>
<polygon fill="mediumseagreen" stroke="black" points="1296,-1154 1224,-1132.5 1296,-1111 1368,-1132.5 1296,-1154"/>
<text text-anchor="middle" x="1296" y="-1130" font-family="Arial" font-size="10.00">S&#45;836</text>
</g>
<!-- S&#45;703&#45;&gt;S&#45;836 -->
<g id="edge12" class="edge">
<title>S&#45;703&#45;&gt;S&#45;836</title>
<path fill="none" stroke="#4d4d4d" d="M1237.5,-1221.12C1237.5,-1221.12 1237.5,-1143.65 1237.5,-1143.65"/>
<polygon fill="#4d4d4d" stroke="#4d4d4d" points="1239.95,-1143.65 1237.5,-1136.65 1235.05,-1143.65 1239.95,-1143.65"/>
</g>
<!-- C&#45;1129 -->
<g id="node43" class="node">
<title>C&#45;1129</title>
<ellipse fill="mediumseagreen" stroke="black" cx="1476" cy="-1132.5" rx="72" ry="21.5"/>
<text text-anchor="middle" x="1476" y="-1130" font-family="Arial" font-size="10.00">C&#45;1129</text>
</g>
<!-- S&#45;703&#45;&gt;C&#45;1129 -->
<g id="edge47" class="edge">
<title>S&#45;703&#45;&gt;C&#45;1129</title>
<path fill="none" stroke="#4d4d4d" d="M1251,-1225.34C1251,-1208.83 1251,-1173 1251,-1173 1251,-1173 1431,-1173 1431,-1173 1431,-1173 1431,-1156.44 1431,-1156.44"/>
<polygon fill="#4d4d4d" stroke="#4d4d4d" points="1433.45,-1156.44 1431,-1149.44 1428.55,-1156.44 1433.45,-1156.44"/>
</g>
<!-- C&#45;0193 -->
<g id="node50" class="node">
<title>C&#45;0193</title>
<ellipse fill="tomato" stroke="black" cx="1605" cy="-627.5" rx="72" ry="21.5"/>
<text text-anchor="middle" x="1605" y="-625" font-family="Arial" font-size="10.00">C&#45;0193</text>
</g>
<!-- S&#45;703&#45;&gt;C&#45;0193 -->
<g id="edge45" class="edge">
<title>S&#45;703&#45;&gt;C&#45;0193</title>
<path fill="none" stroke="#4d4d4d" d="M1219.5,-1215.82C1219.5,-1175.86 1219.5,-1082 1219.5,-1082 1219.5,-1082 1540.5,-1082 1540.5,-1082 1540.5,-1082 1540.5,-644.42 1540.5,-644.42"/>
<polygon fill="#4d4d4d" stroke="#4d4d4d" points="1542.95,-644.42 1540.5,-637.42 1538.05,-644.42 1542.95,-644.42"/>
</g>
<!-- S&#45;1381 -->
<g id="node54" class="node">
<title>S&#45;1381</title>
<polygon fill="mediumseagreen" stroke="black" points="1730,-1154 1658,-1132.5 1730,-1111 1802,-1132.5 1730,-1154"/>
<text text-anchor="middle" x="1730" y="-1130" font-family="Arial" font-size="10.00">S&#45;1381</text>
</g>
<!-- S&#45;703&#45;&gt;S&#45;1381 -->
<g id="edge13" class="edge">
<title>S&#45;703&#45;&gt;S&#45;1381</title>
<path fill="none" stroke="#4d4d4d" d="M1264.5,-1229.37C1264.5,-1218.87 1264.5,-1192 1264.5,-1192 1264.5,-1192 1666,-1192 1666,-1192 1666,-1192 1666,-1142.06 1666,-1142.06"/>
<polygon fill="#4d4d4d" stroke="#4d4d4d" points="1668.45,-1142.06 1666,-1135.06 1663.55,-1142.06 1668.45,-1142.06"/>
</g>
<!-- C&#45;0025 -->
<g id="node8" class="node">
<title>C&#45;0025</title>
<ellipse fill="tomato" stroke="black" cx="72" cy="-829.5" rx="72" ry="21.5"/>
<text text-anchor="middle" x="72" y="-827" font-family="Arial" font-size="10.00">C&#45;0025</text>
</g>
<!-- ext_circ_113_24_ -->
<g id="node55" class="node">
<title>ext_circ_113_24_</title>
<polygon fill="lightpink" stroke="darkorange" stroke-dasharray="5,2" points="144,-750 0,-750 0,-707 144,-707 144,-750"/>
<text text-anchor="middle" x="72" y="-731.5" font-family="Arial" font-size="10.00">Circuito:</text>
<text text-anchor="middle" x="72" y="-720.5" font-family="Arial" font-size="10.00">113&#45;24&#45;</text>
</g>
<!-- C&#45;0025&#45;&gt;ext_circ_113_24_ -->
<g id="edge55" class="edge">
<title>C&#45;0025&#45;&gt;ext_circ_113_24_</title>
<path fill="none" stroke="darkorange" stroke-dasharray="5,2" d="M72,-807.58C72,-807.58 72,-757.03 72,-757.03"/>
<polygon fill="darkorange" stroke="darkorange" points="74.45,-757.03 72,-750.03 69.55,-757.03 74.45,-757.03"/>
</g>
<!-- S&#45;2380 -->
<g id="node9" class="node">
<title>S&#45;2380</title>
<polygon fill="mediumseagreen" stroke="black" points="1386,-1255 1314,-1233.5 1386,-1212 1458,-1233.5 1386,-1255"/>
<text text-anchor="middle" x="1386" y="-1231" font-family="Arial" font-size="10.00">S&#45;2380</text>
</g>
<!-- C&#45;0664&#45;&gt;C&#45;0976 -->
<g id="edge54" class="edge">
<title>C&#45;0664&#45;&gt;C&#45;0976</title>
<path fill="none" stroke="blue" stroke-dasharray="5,2" d="M1071,-1519.51C1071,-1472.64 1071,-1345 1071,-1345 1071,-1345 1496.06,-1345 1496.06,-1345"/>
<polygon fill="blue" stroke="blue" points="1496.06,-1347.45 1503.06,-1345 1496.06,-1342.55 1496.06,-1347.45"/>
</g>
<!-- R&#45;062 -->
<g id="node28" class="node">
<title>R&#45;062</title>
<polygon fill="mediumseagreen" stroke="black" points="575,-1022.59 575,-1040.41 532.82,-1053 473.18,-1053 431,-1040.41 431,-1022.59 473.18,-1010 532.82,-1010 575,-1022.59"/>
<text text-anchor="middle" x="503" y="-1029" font-family="Arial" font-size="10.00">R&#45;062</text>
</g>
<!-- S&#45;767&#45;&gt;R&#45;062 -->
<g id="edge16" class="edge">
<title>S&#45;767&#45;&gt;R&#45;062</title>
<path fill="none" stroke="#4d4d4d" d="M647.67,-1111.47C647.67,-1081.74 647.67,-1031 647.67,-1031 647.67,-1031 582.33,-1031 582.33,-1031"/>
<polygon fill="#4d4d4d" stroke="#4d4d4d" points="582.33,-1028.55 575.33,-1031 582.33,-1033.45 582.33,-1028.55"/>
</g>
<!-- S&#45;2526 -->
<g id="node12" class="node">
<title>S&#45;2526</title>
<polygon fill="mediumseagreen" stroke="black" points="1566,-1255 1494,-1233.5 1566,-1212 1638,-1233.5 1566,-1255"/>
<text text-anchor="middle" x="1566" y="-1231" font-family="Arial" font-size="10.00">S&#45;2526</text>
</g>
<!-- C&#45;0736 -->
<g id="node13" class="node">
<title>C&#45;0736</title>
<ellipse fill="mediumseagreen" stroke="black" cx="1302" cy="-324.5" rx="72" ry="21.5"/>
<text text-anchor="middle" x="1302" y="-322" font-family="Arial" font-size="10.00">C&#45;0736</text>
</g>
<!-- R&#45;161 -->
<g id="node52" class="node">
<title>R&#45;161</title>
<polygon fill="tomato" stroke="black" points="1394,-214.59 1394,-232.41 1351.82,-245 1292.18,-245 1250,-232.41 1250,-214.59 1292.18,-202 1351.82,-202 1394,-214.59"/>
<text text-anchor="middle" x="1322" y="-221" font-family="Arial" font-size="10.00">R&#45;161</text>
</g>
<!-- C&#45;0736&#45;&gt;R&#45;161 -->
<g id="edge35" class="edge">
<title>C&#45;0736&#45;&gt;R&#45;161</title>
<path fill="none" stroke="#4d4d4d" d="M1312,-303.08C1312,-303.08 1312,-252.24 1312,-252.24"/>
<polygon fill="#4d4d4d" stroke="#4d4d4d" points="1314.45,-252.24 1312,-245.24 1309.55,-252.24 1314.45,-252.24"/>
</g>
<!-- S&#45;492 -->
<g id="node14" class="node">
<title>S&#45;492</title>
<polygon fill="mediumseagreen" stroke="black" points="612,-851 540,-829.5 612,-808 684,-829.5 612,-851"/>
<text text-anchor="middle" x="612" y="-827" font-family="Arial" font-size="10.00">S&#45;492</text>
</g>
<!-- R&#45;282 -->
<g id="node15" class="node">
<title>R&#45;282</title>
<polygon fill="tomato" stroke="black" points="1426,-1022.59 1426,-1040.41 1383.82,-1053 1324.18,-1053 1282,-1040.41 1282,-1022.59 1324.18,-1010 1383.82,-1010 1426,-1022.59"/>
<text text-anchor="middle" x="1354" y="-1029" font-family="Arial" font-size="10.00">R&#45;282</text>
</g>
<!-- ext_circ_114_25_ -->
<g id="node58" class="node">
<title>ext_circ_114_25_</title>
<polygon fill="lightpink" stroke="darkorange" stroke-dasharray="5,2" points="1215,-952 1071,-952 1071,-909 1215,-909 1215,-952"/>
<text text-anchor="middle" x="1143" y="-933.5" font-family="Arial" font-size="10.00">Circuito:</text>
<text text-anchor="middle" x="1143" y="-922.5" font-family="Arial" font-size="10.00">114&#45;25&#45;</text>
</g>
<!-- R&#45;282&#45;&gt;ext_circ_114_25_ -->
<g id="edge62" class="edge">
<title>R&#45;282&#45;&gt;ext_circ_114_25_</title>
<path fill="none" stroke="darkorange" stroke-dasharray="5,2" d="M1281.73,-1024C1244.17,-1024 1206,-1024 1206,-1024 1206,-1024 1206,-959.19 1206,-959.19"/>
<polygon fill="darkorange" stroke="darkorange" points="1208.45,-959.19 1206,-952.19 1203.55,-959.19 1208.45,-959.19"/>
</g>
<!-- S&#45;2453 -->
<g id="node17" class="node">
<title>S&#45;2453</title>
<polygon fill="mediumseagreen" stroke="black" points="252,-851 180,-829.5 252,-808 324,-829.5 252,-851"/>
<text text-anchor="middle" x="252" y="-827" font-family="Arial" font-size="10.00">S&#45;2453</text>
</g>
<!-- C&#45;0986 -->
<g id="node18" class="node">
<title>C&#45;0986</title>
<ellipse fill="mediumseagreen" stroke="black" cx="875" cy="-223.5" rx="72" ry="21.5"/>
<text text-anchor="middle" x="875" y="-221" font-family="Arial" font-size="10.00">C&#45;0986</text>
</g>
<!-- R&#45;236 -->
<g id="node32" class="node">
<title>R&#45;236</title>
<polygon fill="tomato" stroke="black" points="947,-113.59 947,-131.41 904.82,-144 845.18,-144 803,-131.41 803,-113.59 845.18,-101 904.82,-101 947,-113.59"/>
<text text-anchor="middle" x="875" y="-120" font-family="Arial" font-size="10.00">R&#45;236</text>
</g>
<!-- C&#45;0986&#45;&gt;R&#45;236 -->
<g id="edge42" class="edge">
<title>C&#45;0986&#45;&gt;R&#45;236</title>
<path fill="none" stroke="#4d4d4d" d="M875,-201.58C875,-201.58 875,-151.03 875,-151.03"/>
<polygon fill="#4d4d4d" stroke="#4d4d4d" points="877.45,-151.03 875,-144.03 872.55,-151.03 877.45,-151.03"/>
</g>
<!-- C&#45;0166&#45;&gt;ext_circ_114_25_ -->
<g id="edge63" class="edge">
<title>C&#45;0166&#45;&gt;ext_circ_114_25_</title>
<path fill="none" stroke="darkorange" stroke-dasharray="5,2" d="M968.67,-1012.75C968.67,-986.24 968.67,-941 968.67,-941 968.67,-941 1063.83,-941 1063.83,-941"/>
<polygon fill="darkorange" stroke="darkorange" points="1063.83,-943.45 1070.83,-941 1063.83,-938.55 1063.83,-943.45"/>
</g>
<!-- R&#45;098&#45;&gt;C&#45;0608 -->
<g id="edge30" class="edge">
<title>R&#45;098&#45;&gt;C&#45;0608</title>
<path fill="none" stroke="#4d4d4d" d="M960,-605.58C960,-605.58 960,-555.03 960,-555.03"/>
<polygon fill="#4d4d4d" stroke="#4d4d4d" points="962.45,-555.03 960,-548.03 957.55,-555.03 962.45,-555.03"/>
</g>
<!-- S&#45;774 -->
<g id="node21" class="node">
<title>S&#45;774</title>
<polygon fill="mediumseagreen" stroke="black" points="162,-952 90,-930.5 162,-909 234,-930.5 162,-952"/>
<text text-anchor="middle" x="162" y="-928" font-family="Arial" font-size="10.00">S&#45;774</text>
</g>
<!-- S&#45;774&#45;&gt;C&#45;0025 -->
<g id="edge18" class="edge">
<title>S&#45;774&#45;&gt;C&#45;0025</title>
<path fill="none" stroke="#4d4d4d" d="M117,-922.23C117,-922.23 117,-853.52 117,-853.52"/>
<polygon fill="#4d4d4d" stroke="#4d4d4d" points="119.45,-853.52 117,-846.52 114.55,-853.52 119.45,-853.52"/>
</g>
<!-- C&#45;343 -->
<g id="node22" class="node">
<title>C&#45;343</title>
<ellipse fill="mediumseagreen" stroke="black" cx="792" cy="-829.5" rx="72" ry="21.5"/>
<text text-anchor="middle" x="792" y="-827" font-family="Arial" font-size="10.00">C&#45;343</text>
</g>
<!-- S&#45;2014 -->
<g id="node44" class="node">
<title>S&#45;2014</title>
<polygon fill="mediumseagreen" stroke="black" points="942,-346 870,-324.5 942,-303 1014,-324.5 942,-346"/>
<text text-anchor="middle" x="942" y="-322" font-family="Arial" font-size="10.00">S&#45;2014</text>
</g>
<!-- S&#45;1966&#45;&gt;S&#45;2014 -->
<g id="edge40" class="edge">
<title>S&#45;1966&#45;&gt;S&#45;2014</title>
<path fill="none" stroke="#4d4d4d" d="M942,-403.58C942,-403.58 942,-353.03 942,-353.03"/>
<polygon fill="#4d4d4d" stroke="#4d4d4d" points="944.45,-353.03 942,-346.03 939.55,-353.03 944.45,-353.03"/>
</g>
<!-- C&#45;0737 -->
<g id="node25" class="node">
<title>C&#45;0737</title>
<ellipse fill="tomato" stroke="black" cx="1482" cy="-324.5" rx="72" ry="21.5"/>
<text text-anchor="middle" x="1482" y="-322" font-family="Arial" font-size="10.00">C&#45;0737</text>
</g>
<!-- ext_circ_112_24_ -->
<g id="node56" class="node">
<title>ext_circ_112_24_</title>
<polygon fill="lightpink" stroke="darkorange" stroke-dasharray="5,2" points="1465,-144 1321,-144 1321,-101 1465,-101 1465,-144"/>
<text text-anchor="middle" x="1393" y="-125.5" font-family="Arial" font-size="10.00">Circuito:</text>
<text text-anchor="middle" x="1393" y="-114.5" font-family="Arial" font-size="10.00">112&#45;24&#45;</text>
</g>
<!-- C&#45;0737&#45;&gt;ext_circ_112_24_ -->
<g id="edge58" class="edge">
<title>C&#45;0737&#45;&gt;ext_circ_112_24_</title>
<path fill="none" stroke="darkorange" stroke-dasharray="5,2" d="M1437.5,-307.28C1437.5,-307.28 1437.5,-151.19 1437.5,-151.19"/>
<polygon fill="darkorange" stroke="darkorange" points="1439.95,-151.19 1437.5,-144.19 1435.05,-151.19 1439.95,-151.19"/>
</g>
<!-- S&#45;1942 -->
<g id="node26" class="node">
<title>S&#45;1942</title>
<polygon fill="mediumseagreen" stroke="black" points="1746,-1255 1674,-1233.5 1746,-1212 1818,-1233.5 1746,-1255"/>
<text text-anchor="middle" x="1746" y="-1231" font-family="Arial" font-size="10.00">S&#45;1942</text>
</g>
<!-- S&#45;1485 -->
<g id="node27" class="node">
<title>S&#45;1485</title>
<polygon fill="mediumseagreen" stroke="black" points="972,-851 900,-829.5 972,-808 1044,-829.5 972,-851"/>
<text text-anchor="middle" x="972" y="-827" font-family="Arial" font-size="10.00">S&#45;1485</text>
</g>
<!-- R&#45;062&#45;&gt;S&#45;774 -->
<g id="edge17" class="edge">
<title>R&#45;062&#45;&gt;S&#45;774</title>
<path fill="none" stroke="#4d4d4d" d="M430.68,-1031C330.59,-1031 162,-1031 162,-1031 162,-1031 162,-959.31 162,-959.31"/>
<polygon fill="#4d4d4d" stroke="#4d4d4d" points="164.45,-959.31 162,-952.31 159.55,-959.31 164.45,-959.31"/>
</g>
<!-- S&#45;769 -->
<g id="node42" class="node">
<title>S&#45;769</title>
<polygon fill="mediumseagreen" stroke="black" points="432,-952 360,-930.5 432,-909 504,-930.5 432,-952"/>
<text text-anchor="middle" x="432" y="-928" font-family="Arial" font-size="10.00">S&#45;769</text>
</g>
<!-- R&#45;062&#45;&gt;S&#45;769 -->
<g id="edge19" class="edge">
<title>R&#45;062&#45;&gt;S&#45;769</title>
<path fill="none" stroke="#4d4d4d" d="M467.5,-1011.55C467.5,-1011.55 467.5,-948.66 467.5,-948.66"/>
<polygon fill="#4d4d4d" stroke="#4d4d4d" points="469.95,-948.66 467.5,-941.66 465.05,-948.66 469.95,-948.66"/>
</g>
<!-- C&#45;0413 -->
<g id="node49" class="node">
<title>C&#45;0413</title>
<ellipse fill="mediumseagreen" stroke="black" cx="792" cy="-930.5" rx="72" ry="21.5"/>
<text text-anchor="middle" x="792" y="-928" font-family="Arial" font-size="10.00">C&#45;0413</text>
</g>
<!-- R&#45;062&#45;&gt;C&#45;0413 -->
<g id="edge22" class="edge">
<title>R&#45;062&#45;&gt;C&#45;0413</title>
<path fill="none" stroke="#4d4d4d" d="M557.5,-1017.15C557.5,-990.71 557.5,-937 557.5,-937 557.5,-937 716.23,-937 716.23,-937"/>
<polygon fill="#4d4d4d" stroke="#4d4d4d" points="716.23,-939.45 723.23,-937 716.23,-934.55 716.23,-939.45"/>
</g>
<!-- C&#45;0976&#45;&gt;S&#45;703 -->
<g id="edge11" class="edge">
<title>C&#45;0976&#45;&gt;S&#45;703</title>
<path fill="none" stroke="#4d4d4d" d="M1494.01,-1334C1388.96,-1334 1206,-1334 1206,-1334 1206,-1334 1206,-1262.31 1206,-1262.31"/>
<polygon fill="#4d4d4d" stroke="#4d4d4d" points="1208.45,-1262.31 1206,-1255.31 1203.55,-1262.31 1208.45,-1262.31"/>
</g>
<!-- C&#45;0976&#45;&gt;S&#45;2380 -->
<g id="edge50" class="edge">
<title>C&#45;0976&#45;&gt;S&#45;2380</title>
<path fill="none" stroke="#4d4d4d" d="M1505.06,-1323C1452.84,-1323 1386,-1323 1386,-1323 1386,-1323 1386,-1262.17 1386,-1262.17"/>
<polygon fill="#4d4d4d" stroke="#4d4d4d" points="1388.45,-1262.17 1386,-1255.17 1383.55,-1262.17 1388.45,-1262.17"/>
</g>
<!-- C&#45;0976&#45;&gt;S&#45;2526 -->
<g id="edge51" class="edge">
<title>C&#45;0976&#45;&gt;S&#45;2526</title>
<path fill="none" stroke="#4d4d4d" d="M1566,-1312.58C1566,-1312.58 1566,-1262.03 1566,-1262.03"/>
<polygon fill="#4d4d4d" stroke="#4d4d4d" points="1568.45,-1262.03 1566,-1255.03 1563.55,-1262.03 1568.45,-1262.03"/>
</g>
<!-- C&#45;0976&#45;&gt;S&#45;1942 -->
<g id="edge10" class="edge">
<title>C&#45;0976&#45;&gt;S&#45;1942</title>
<path fill="none" stroke="#4d4d4d" d="M1633.54,-1327C1684.61,-1327 1746,-1327 1746,-1327 1746,-1327 1746,-1262.19 1746,-1262.19"/>
<polygon fill="#4d4d4d" stroke="#4d4d4d" points="1748.45,-1262.19 1746,-1255.19 1743.55,-1262.19 1748.45,-1262.19"/>
</g>
<!-- S&#45;702 -->
<g id="node46" class="node">
<title>S&#45;702</title>
<polygon fill="mediumseagreen" stroke="black" points="1926,-1255 1854,-1233.5 1926,-1212 1998,-1233.5 1926,-1255"/>
<text text-anchor="middle" x="1926" y="-1231" font-family="Arial" font-size="10.00">S&#45;702</text>
</g>
<!-- C&#45;0976&#45;&gt;S&#45;702 -->
<g id="edge52" class="edge">
<title>C&#45;0976&#45;&gt;S&#45;702</title>
<path fill="none" stroke="#4d4d4d" d="M1634.99,-1341C1739.52,-1341 1926,-1341 1926,-1341 1926,-1341 1926,-1262.25 1926,-1262.25"/>
<polygon fill="#4d4d4d" stroke="#4d4d4d" points="1928.45,-1262.25 1926,-1255.25 1923.55,-1262.25 1928.45,-1262.25"/>
</g>
<!-- C&#45;0975&#45;&gt;R&#45;232 -->
<g id="edge8" class="edge">
<title>C&#45;0975&#45;&gt;R&#45;232</title>
<path fill="none" stroke="#4d4d4d" d="M1566,-1514.58C1566,-1514.58 1566,-1464.03 1566,-1464.03"/>
<polygon fill="#4d4d4d" stroke="#4d4d4d" points="1568.45,-1464.03 1566,-1457.03 1563.55,-1464.03 1568.45,-1464.03"/>
</g>
<!-- ext_circ_303_27_ -->
<g id="node57" class="node">
<title>ext_circ_303_27_</title>
<polygon fill="lightpink" stroke="darkorange" stroke-dasharray="5,2" points="1127,-43 983,-43 983,0 1127,0 1127,-43"/>
<text text-anchor="middle" x="1055" y="-24.5" font-family="Arial" font-size="10.00">Circuito:</text>
<text text-anchor="middle" x="1055" y="-13.5" font-family="Arial" font-size="10.00">303&#45;27&#45;</text>
</g>
<!-- R&#45;236&#45;&gt;ext_circ_303_27_ -->
<g id="edge59" class="edge">
<title>R&#45;236&#45;&gt;ext_circ_303_27_</title>
<path fill="none" stroke="darkorange" stroke-dasharray="5,2" d="M875,-100.97C875,-71.18 875,-21 875,-21 875,-21 975.82,-21 975.82,-21"/>
<polygon fill="darkorange" stroke="darkorange" points="975.82,-23.45 982.82,-21 975.82,-18.55 975.82,-23.45"/>
</g>
<!-- S&#45;341 -->
<g id="node34" class="node">
<title>S&#45;341</title>
<polygon fill="mediumseagreen" stroke="black" points="1152,-851 1080,-829.5 1152,-808 1224,-829.5 1152,-851"/>
<text text-anchor="middle" x="1152" y="-827" font-family="Arial" font-size="10.00">S&#45;341</text>
</g>
<!-- S&#45;341&#45;&gt;C&#45;0607 -->
<g id="edge28" class="edge">
<title>S&#45;341&#45;&gt;C&#45;0607</title>
<path fill="none" stroke="#4d4d4d" d="M1104.86,-822C1089.12,-822 1075.5,-822 1075.5,-822 1075.5,-822 1075.5,-728 1075.5,-728 1075.5,-728 1049.12,-728 1049.12,-728"/>
<polygon fill="#4d4d4d" stroke="#4d4d4d" points="1049.12,-725.55 1042.12,-728 1049.12,-730.45 1049.12,-725.55"/>
</g>
<!-- C&#45;0576 -->
<g id="node35" class="node">
<title>C&#45;0576</title>
<ellipse fill="tomato" stroke="black" cx="1152" cy="-728.5" rx="72" ry="21.5"/>
<text text-anchor="middle" x="1152" y="-726" font-family="Arial" font-size="10.00">C&#45;0576</text>
</g>
<!-- S&#45;341&#45;&gt;C&#45;0576 -->
<g id="edge27" class="edge">
<title>S&#45;341&#45;&gt;C&#45;0576</title>
<path fill="none" stroke="#4d4d4d" d="M1152,-807.58C1152,-807.58 1152,-757.03 1152,-757.03"/>
<polygon fill="#4d4d4d" stroke="#4d4d4d" points="1154.45,-757.03 1152,-750.03 1149.55,-757.03 1154.45,-757.03"/>
</g>
<!-- C&#45;0576&#45;&gt;C&#45;0608 -->
<g id="edge56" class="edge">
<title>C&#45;0576&#45;&gt;C&#45;0608</title>
<path fill="none" stroke="blue" stroke-dasharray="5,2" d="M1137,-707.21C1137,-656.54 1137,-533 1137,-533 1137,-533 1026.73,-533 1026.73,-533"/>
<polygon fill="blue" stroke="blue" points="1026.73,-530.55 1019.73,-533 1026.73,-535.45 1026.73,-530.55"/>
</g>
<!-- C&#45;0242 -->
<g id="node37" class="node">
<title>C&#45;0242</title>
<ellipse fill="tomato" stroke="black" cx="1055" cy="-122.5" rx="72" ry="21.5"/>
<text text-anchor="middle" x="1055" y="-120" font-family="Arial" font-size="10.00">C&#45;0242</text>
</g>
<!-- C&#45;0242&#45;&gt;ext_circ_303_27_ -->
<g id="edge60" class="edge">
<title>C&#45;0242&#45;&gt;ext_circ_303_27_</title>
<path fill="none" stroke="darkorange" stroke-dasharray="5,2" d="M1055,-100.58C1055,-100.58 1055,-50.03 1055,-50.03"/>
<polygon fill="darkorange" stroke="darkorange" points="1057.45,-50.03 1055,-43.03 1052.55,-50.03 1057.45,-50.03"/>
</g>
<!-- 303&#45;25&#45; -->
<g id="node41" class="node">
<title>303&#45;25&#45;</title>
<polygon fill="gold" stroke="black" points="1548,-1834.59 1548,-1852.41 1505.82,-1865 1446.18,-1865 1404,-1852.41 1404,-1834.59 1446.18,-1822 1505.82,-1822 1548,-1834.59"/>
<polygon fill="none" stroke="black" points="1552,-1831.61 1552,-1855.39 1506.41,-1869 1445.59,-1869 1400,-1855.39 1400,-1831.61 1445.59,-1818 1506.41,-1818 1552,-1831.61"/>
<text text-anchor="middle" x="1476" y="-1841" font-family="Arial" font-size="10.00">303&#45;25&#45;</text>
</g>
<!-- C&#45;0010 -->
<g id="node45" class="node">
<title>C&#45;0010</title>
<ellipse fill="mediumseagreen" stroke="black" cx="1476" cy="-1738.5" rx="72" ry="21.5"/>
<text text-anchor="middle" x="1476" y="-1736" font-family="Arial" font-size="10.00">C&#45;0010</text>
</g>
<!-- 303&#45;25&#45;&#45;&gt;C&#45;0010 -->
<g id="edge1" class="edge">
<title>303&#45;25&#45;&#45;&gt;C&#45;0010</title>
<path fill="none" stroke="#4d4d4d" d="M1476,-1817.81C1476,-1817.81 1476,-1767.03 1476,-1767.03"/>
<polygon fill="#4d4d4d" stroke="#4d4d4d" points="1478.45,-1767.03 1476,-1760.03 1473.55,-1767.03 1478.45,-1767.03"/>
</g>
<!-- S&#45;769&#45;&gt;S&#45;2453 -->
<g id="edge20" class="edge">
<title>S&#45;769&#45;&gt;S&#45;2453</title>
<path fill="none" stroke="#4d4d4d" d="M361.32,-930C321.23,-930 279,-930 279,-930 279,-930 279,-850.05 279,-850.05"/>
<polygon fill="#4d4d4d" stroke="#4d4d4d" points="281.45,-850.05 279,-843.05 276.55,-850.05 281.45,-850.05"/>
</g>
<!-- S&#45;1226 -->
<g id="node47" class="node">
<title>S&#45;1226</title>
<polygon fill="mediumseagreen" stroke="black" points="432,-851 360,-829.5 432,-808 504,-829.5 432,-851"/>
<text text-anchor="middle" x="432" y="-827" font-family="Arial" font-size="10.00">S&#45;1226</text>
</g>
<!-- S&#45;769&#45;&gt;S&#45;1226 -->
<g id="edge21" class="edge">
<title>S&#45;769&#45;&gt;S&#45;1226</title>
<path fill="none" stroke="#4d4d4d" d="M432,-908.58C432,-908.58 432,-858.03 432,-858.03"/>
<polygon fill="#4d4d4d" stroke="#4d4d4d" points="434.45,-858.03 432,-851.03 429.55,-858.03 434.45,-858.03"/>
</g>
<!-- C&#45;1129&#45;&gt;R&#45;282 -->
<g id="edge48" class="edge">
<title>C&#45;1129&#45;&gt;R&#45;282</title>
<path fill="none" stroke="#4d4d4d" d="M1415,-1120.91C1415,-1120.91 1415,-1050.89 1415,-1050.89"/>
<polygon fill="#4d4d4d" stroke="#4d4d4d" points="1417.45,-1050.89 1415,-1043.89 1412.55,-1050.89 1417.45,-1050.89"/>
</g>
<!-- S&#45;2014&#45;&gt;C&#45;0986 -->
<g id="edge41" class="edge">
<title>S&#45;2014&#45;&gt;C&#45;0986</title>
<path fill="none" stroke="#4d4d4d" d="M908.5,-312.91C908.5,-312.91 908.5,-249.88 908.5,-249.88"/>
<polygon fill="#4d4d4d" stroke="#4d4d4d" points="910.95,-249.88 908.5,-242.88 906.05,-249.88 910.95,-249.88"/>
</g>
<!-- S&#45;2014&#45;&gt;C&#45;0242 -->
<g id="edge43" class="edge">
<title>S&#45;2014&#45;&gt;C&#45;0242</title>
<path fill="none" stroke="#4d4d4d" d="M998.5,-319.51C998.5,-319.51 998.5,-142.96 998.5,-142.96"/>
<polygon fill="#4d4d4d" stroke="#4d4d4d" points="1000.95,-142.96 998.5,-135.96 996.05,-142.96 1000.95,-142.96"/>
</g>
<!-- C&#45;0010&#45;&gt;C&#45;1253 -->
<g id="edge2" class="edge">
<title>C&#45;0010&#45;&gt;C&#45;1253</title>
<path fill="none" stroke="#4d4d4d" d="M1476,-1716.58C1476,-1716.58 1476,-1666.03 1476,-1666.03"/>
<polygon fill="#4d4d4d" stroke="#4d4d4d" points="1478.45,-1666.03 1476,-1659.03 1473.55,-1666.03 1478.45,-1666.03"/>
</g>
<!-- S&#45;340&#45;&gt;S&#45;339 -->
<g id="edge37" class="edge">
<title>S&#45;340&#45;&gt;S&#45;339</title>
<path fill="none" stroke="#4d4d4d" d="M1231.48,-425C1220.39,-425 1212.5,-425 1212.5,-425 1212.5,-425 1212.5,-324 1212.5,-324 1212.5,-324 1199.42,-324 1199.42,-324"/>
<polygon fill="#4d4d4d" stroke="#4d4d4d" points="1199.42,-321.55 1192.42,-324 1199.42,-326.45 1199.42,-321.55"/>
</g>
<!-- S&#45;340&#45;&gt;C&#45;0736 -->
<g id="edge34" class="edge">
<title>S&#45;340&#45;&gt;C&#45;0736</title>
<path fill="none" stroke="#4d4d4d" d="M1302,-403.58C1302,-403.58 1302,-353.03 1302,-353.03"/>
<polygon fill="#4d4d4d" stroke="#4d4d4d" points="1304.45,-353.03 1302,-346.03 1299.55,-353.03 1304.45,-353.03"/>
</g>
<!-- S&#45;340&#45;&gt;C&#45;0737 -->
<g id="edge36" class="edge">
<title>S&#45;340&#45;&gt;C&#45;0737</title>
<path fill="none" stroke="#4d4d4d" d="M1372.49,-425C1396.78,-425 1418,-425 1418,-425 1418,-425 1418,-341.5 1418,-341.5"/>
<polygon fill="#4d4d4d" stroke="#4d4d4d" points="1420.45,-341.5 1418,-334.5 1415.55,-341.5 1420.45,-341.5"/>
</g>
<!-- C&#45;0413&#45;&gt;S&#45;492 -->
<g id="edge23" class="edge">
<title>C&#45;0413&#45;&gt;S&#45;492</title>
<path fill="none" stroke="#4d4d4d" d="M724.47,-923C673.15,-923 611.33,-923 611.33,-923 611.33,-923 611.33,-858.19 611.33,-858.19"/>
<polygon fill="#4d4d4d" stroke="#4d4d4d" points="613.78,-858.19 611.33,-851.19 608.88,-858.19 613.78,-858.19"/>
</g>
<!-- C&#45;0413&#45;&gt;C&#45;343 -->
<g id="edge25" class="edge">
<title>C&#45;0413&#45;&gt;C&#45;343</title>
<path fill="none" stroke="#4d4d4d" d="M792,-908.58C792,-908.58 792,-858.03 792,-858.03"/>
<polygon fill="#4d4d4d" stroke="#4d4d4d" points="794.45,-858.03 792,-851.03 789.55,-858.03 794.45,-858.03"/>
</g>
<!-- C&#45;0413&#45;&gt;S&#45;1485 -->
<g id="edge24" class="edge">
<title>C&#45;0413&#45;&gt;S&#45;1485</title>
<path fill="none" stroke="#4d4d4d" d="M853.19,-919C891.77,-919 934.33,-919 934.33,-919 934.33,-919 934.33,-846.77 934.33,-846.77"/>
<polygon fill="#4d4d4d" stroke="#4d4d4d" points="936.78,-846.77 934.33,-839.77 931.88,-846.77 936.78,-846.77"/>
</g>
<!-- C&#45;0413&#45;&gt;S&#45;341 -->
<g id="edge26" class="edge">
<title>C&#45;0413&#45;&gt;S&#45;341</title>
<path fill="none" stroke="#4d4d4d" d="M864.31,-930C943.83,-930 1060.5,-930 1060.5,-930 1060.5,-930 1060.5,-836 1060.5,-836 1060.5,-836 1094.7,-836 1094.7,-836"/>
<polygon fill="#4d4d4d" stroke="#4d4d4d" points="1094.7,-838.45 1101.7,-836 1094.7,-833.55 1094.7,-838.45"/>
</g>
<!-- C&#45;0193&#45;&gt;ext_circ_303_27_ -->
<g id="edge61" class="edge">
<title>C&#45;0193&#45;&gt;ext_circ_303_27_</title>
<path fill="none" stroke="darkorange" stroke-dasharray="5,2" d="M1615.5,-605.91C1615.5,-497.87 1615.5,-21 1615.5,-21 1615.5,-21 1134.13,-21 1134.13,-21"/>
<polygon fill="darkorange" stroke="darkorange" points="1134.13,-18.55 1127.13,-21 1134.13,-23.45 1134.13,-18.55"/>
</g>
<!-- R&#45;161&#45;&gt;ext_circ_112_24_ -->
<g id="edge57" class="edge">
<title>R&#45;161&#45;&gt;ext_circ_112_24_</title>
<path fill="none" stroke="darkorange" stroke-dasharray="5,2" d="M1357.5,-203.55C1357.5,-203.55 1357.5,-151.16 1357.5,-151.16"/>
<polygon fill="darkorange" stroke="darkorange" points="1359.95,-151.16 1357.5,-144.16 1355.05,-151.16 1359.95,-151.16"/>
</g>
</g>
</svg>
