<?xml version="1.0" encoding="UTF-8" standalone="no"?>
<!DOCTYPE svg PUBLIC "-//W3C//DTD SVG 1.1//EN"
 "http://www.w3.org/Graphics/SVG/1.1/DTD/svg11.dtd">
<!-- Generated by graphviz version 2.50.0 (0)
 -->
<!-- Title: Grafo_Circuito_109_20_ Pages: 1 -->
<svg width="1565pt" height="2079pt"
 viewBox="0.00 0.00 1565.00 2079.00" xmlns="http://www.w3.org/2000/svg" xmlns:xlink="http://www.w3.org/1999/xlink">
<g id="graph0" class="graph" transform="scale(1 1) rotate(0) translate(4 2075)">
<title>Grafo_Circuito_109_20_</title>
<polygon fill="white" stroke="transparent" points="-4,4 -4,-2075 1561,-2075 1561,4 -4,4"/>
<!-- S&#45;760 -->
<g id="node1" class="node">
<title>S&#45;760</title>
<polygon fill="mediumseagreen" stroke="black" points="667,-1255 595,-1233.5 667,-1212 739,-1233.5 667,-1255"/>
<text text-anchor="middle" x="667" y="-1231" font-family="Arial" font-size="10.00">S&#45;760</text>
</g>
<!-- C&#45;0946 -->
<g id="node2" class="node">
<title>C&#45;0946</title>
<ellipse fill="tomato" stroke="black" cx="1039" cy="-122.5" rx="72" ry="21.5"/>
<text text-anchor="middle" x="1039" y="-120" font-family="Arial" font-size="10.00">C&#45;0946</text>
</g>
<!-- ext_circ_109_23_ -->
<g id="node49" class="node">
<title>ext_circ_109_23_</title>
<polygon fill="lightpink" stroke="darkorange" stroke-dasharray="5,2" points="1156,-43 1012,-43 1012,0 1156,0 1156,-43"/>
<text text-anchor="middle" x="1084" y="-24.5" font-family="Arial" font-size="10.00">Circuito:</text>
<text text-anchor="middle" x="1084" y="-13.5" font-family="Arial" font-size="10.00">109&#45;23&#45;</text>
</g>
<!-- C&#45;0946&#45;&gt;ext_circ_109_23_ -->
<g id="edge59" class="edge">
<title>C&#45;0946&#45;&gt;ext_circ_109_23_</title>
<path fill="none" stroke="darkorange" stroke-dasharray="5,2" d="M1061.5,-102.06C1061.5,-102.06 1061.5,-50.31 1061.5,-50.31"/>
<polygon fill="darkorange" stroke="darkorange" points="1063.95,-50.31 1061.5,-43.31 1059.05,-50.31 1063.95,-50.31"/>
</g>
<!-- R&#45;066 -->
<g id="node3" class="node">
<title>R&#45;066</title>
<polygon fill="mediumseagreen" stroke="black" points="1070,-517.59 1070,-535.41 1027.82,-548 968.18,-548 926,-535.41 926,-517.59 968.18,-505 1027.82,-505 1070,-517.59"/>
<text text-anchor="middle" x="998" y="-524" font-family="Arial" font-size="10.00">R&#45;066</text>
</g>
<!-- C&#45;1265 -->
<g id="node45" class="node">
<title>C&#45;1265</title>
<ellipse fill="mediumseagreen" stroke="black" cx="998" cy="-425.5" rx="72" ry="21.5"/>
<text text-anchor="middle" x="998" y="-423" font-family="Arial" font-size="10.00">C&#45;1265</text>
</g>
<!-- R&#45;066&#45;&gt;C&#45;1265 -->
<g id="edge32" class="edge">
<title>R&#45;066&#45;&gt;C&#45;1265</title>
<path fill="none" stroke="#4d4d4d" d="M998,-504.58C998,-504.58 998,-454.03 998,-454.03"/>
<polygon fill="#4d4d4d" stroke="#4d4d4d" points="1000.45,-454.03 998,-447.03 995.55,-454.03 1000.45,-454.03"/>
</g>
<!-- C&#45;0792 -->
<g id="node4" class="node">
<title>C&#45;0792</title>
<ellipse fill="tomato" stroke="black" cx="72" cy="-1536.5" rx="72" ry="21.5"/>
<text text-anchor="middle" x="72" y="-1534" font-family="Arial" font-size="10.00">C&#45;0792</text>
</g>
<!-- ext_circ_109_25_ -->
<g id="node47" class="node">
<title>ext_circ_109_25_</title>
<polygon fill="lightpink" stroke="darkorange" stroke-dasharray="5,2" points="234,-1457 90,-1457 90,-1414 234,-1414 234,-1457"/>
<text text-anchor="middle" x="162" y="-1438.5" font-family="Arial" font-size="10.00">Circuito:</text>
<text text-anchor="middle" x="162" y="-1427.5" font-family="Arial" font-size="10.00">109&#45;25&#45;</text>
</g>
<!-- C&#45;0792&#45;&gt;ext_circ_109_25_ -->
<g id="edge47" class="edge">
<title>C&#45;0792&#45;&gt;ext_circ_109_25_</title>
<path fill="none" stroke="darkorange" stroke-dasharray="5,2" d="M117,-1519.37C117,-1519.37 117,-1464.31 117,-1464.31"/>
<polygon fill="darkorange" stroke="darkorange" points="119.45,-1464.31 117,-1457.31 114.55,-1464.31 119.45,-1464.31"/>
</g>
<!-- C&#45;0114 -->
<g id="node5" class="node">
<title>C&#45;0114</title>
<ellipse fill="tomato" stroke="black" cx="1485" cy="-1031.5" rx="72" ry="21.5"/>
<text text-anchor="middle" x="1485" y="-1029" font-family="Arial" font-size="10.00">C&#45;0114</text>
</g>
<!-- C&#45;0114&#45;&gt;ext_circ_109_23_ -->
<g id="edge51" class="edge">
<title>C&#45;0114&#45;&gt;ext_circ_109_23_</title>
<path fill="none" stroke="darkorange" stroke-dasharray="5,2" d="M1493.5,-1009.93C1493.5,-863.48 1493.5,-21 1493.5,-21 1493.5,-21 1163.27,-21 1163.27,-21"/>
<polygon fill="darkorange" stroke="darkorange" points="1163.27,-18.55 1156.27,-21 1163.27,-23.45 1163.27,-18.55"/>
</g>
<!-- S&#45;1454 -->
<g id="node6" class="node">
<title>S&#45;1454</title>
<polygon fill="mediumseagreen" stroke="black" points="638,-649 566,-627.5 638,-606 710,-627.5 638,-649"/>
<text text-anchor="middle" x="638" y="-625" font-family="Arial" font-size="10.00">S&#45;1454</text>
</g>
<!-- S&#45;2246 -->
<g id="node28" class="node">
<title>S&#45;2246</title>
<polygon fill="mediumseagreen" stroke="black" points="638,-548 566,-526.5 638,-505 710,-526.5 638,-548"/>
<text text-anchor="middle" x="638" y="-524" font-family="Arial" font-size="10.00">S&#45;2246</text>
</g>
<!-- S&#45;1454&#45;&gt;S&#45;2246 -->
<g id="edge27" class="edge">
<title>S&#45;1454&#45;&gt;S&#45;2246</title>
<path fill="none" stroke="#4d4d4d" d="M638,-605.58C638,-605.58 638,-555.03 638,-555.03"/>
<polygon fill="#4d4d4d" stroke="#4d4d4d" points="640.45,-555.03 638,-548.03 635.55,-555.03 640.45,-555.03"/>
</g>
<!-- 109&#45;20&#45; -->
<g id="node7" class="node">
<title>109&#45;20&#45;</title>
<polygon fill="gold" stroke="black" points="490,-2036.59 490,-2054.41 447.82,-2067 388.18,-2067 346,-2054.41 346,-2036.59 388.18,-2024 447.82,-2024 490,-2036.59"/>
<polygon fill="none" stroke="black" points="494,-2033.61 494,-2057.39 448.41,-2071 387.59,-2071 342,-2057.39 342,-2033.61 387.59,-2020 448.41,-2020 494,-2033.61"/>
<text text-anchor="middle" x="418" y="-2043" font-family="Arial" font-size="10.00">109&#45;20&#45;</text>
</g>
<!-- C&#45;0055 -->
<g id="node13" class="node">
<title>C&#45;0055</title>
<ellipse fill="mediumseagreen" stroke="black" cx="418" cy="-1940.5" rx="72" ry="21.5"/>
<text text-anchor="middle" x="418" y="-1938" font-family="Arial" font-size="10.00">C&#45;0055</text>
</g>
<!-- 109&#45;20&#45;&#45;&gt;C&#45;0055 -->
<g id="edge1" class="edge">
<title>109&#45;20&#45;&#45;&gt;C&#45;0055</title>
<path fill="none" stroke="#4d4d4d" d="M418,-2019.81C418,-2019.81 418,-1969.03 418,-1969.03"/>
<polygon fill="#4d4d4d" stroke="#4d4d4d" points="420.45,-1969.03 418,-1962.03 415.55,-1969.03 420.45,-1969.03"/>
</g>
<!-- S&#45;1618 -->
<g id="node8" class="node">
<title>S&#45;1618</title>
<polygon fill="mediumseagreen" stroke="black" points="818,-649 746,-627.5 818,-606 890,-627.5 818,-649"/>
<text text-anchor="middle" x="818" y="-625" font-family="Arial" font-size="10.00">S&#45;1618</text>
</g>
<!-- C&#45;1264 -->
<g id="node9" class="node">
<title>C&#45;1264</title>
<ellipse fill="mediumseagreen" stroke="black" cx="998" cy="-627.5" rx="72" ry="21.5"/>
<text text-anchor="middle" x="998" y="-625" font-family="Arial" font-size="10.00">C&#45;1264</text>
</g>
<!-- C&#45;1264&#45;&gt;R&#45;066 -->
<g id="edge31" class="edge">
<title>C&#45;1264&#45;&gt;R&#45;066</title>
<path fill="none" stroke="#4d4d4d" d="M998,-605.58C998,-605.58 998,-555.03 998,-555.03"/>
<polygon fill="#4d4d4d" stroke="#4d4d4d" points="1000.45,-555.03 998,-548.03 995.55,-555.03 1000.45,-555.03"/>
</g>
<!-- C&#45;0823 -->
<g id="node10" class="node">
<title>C&#45;0823</title>
<ellipse fill="tomato" stroke="black" cx="818" cy="-930.5" rx="72" ry="21.5"/>
<text text-anchor="middle" x="818" y="-928" font-family="Arial" font-size="10.00">C&#45;0823</text>
</g>
<!-- C&#45;0824 -->
<g id="node14" class="node">
<title>C&#45;0824</title>
<ellipse fill="mediumseagreen" stroke="black" cx="998" cy="-728.5" rx="72" ry="21.5"/>
<text text-anchor="middle" x="998" y="-726" font-family="Arial" font-size="10.00">C&#45;0824</text>
</g>
<!-- C&#45;0823&#45;&gt;C&#45;0824 -->
<g id="edge53" class="edge">
<title>C&#45;0823&#45;&gt;C&#45;0824</title>
<path fill="none" stroke="blue" stroke-dasharray="5,2" d="M794,-910.01C794,-860.6 794,-739 794,-739 794,-739 928.13,-739 928.13,-739"/>
<polygon fill="blue" stroke="blue" points="928.13,-741.45 935.13,-739 928.13,-736.55 928.13,-741.45"/>
</g>
<!-- S&#45;1468 -->
<g id="node11" class="node">
<title>S&#45;1468</title>
<polygon fill="mediumseagreen" stroke="black" points="1485,-1356 1413,-1334.5 1485,-1313 1557,-1334.5 1485,-1356"/>
<text text-anchor="middle" x="1485" y="-1332" font-family="Arial" font-size="10.00">S&#45;1468</text>
</g>
<!-- S&#45;1468&#45;&gt;C&#45;0114 -->
<g id="edge16" class="edge">
<title>S&#45;1468&#45;&gt;C&#45;0114</title>
<path fill="none" stroke="#4d4d4d" d="M1485,-1312.71C1485,-1312.71 1485,-1060.09 1485,-1060.09"/>
<polygon fill="#4d4d4d" stroke="#4d4d4d" points="1487.45,-1060.09 1485,-1053.09 1482.55,-1060.09 1487.45,-1060.09"/>
</g>
<!-- C&#45;0793 -->
<g id="node12" class="node">
<title>C&#45;0793</title>
<ellipse fill="mediumseagreen" stroke="black" cx="278" cy="-1637.5" rx="72" ry="21.5"/>
<text text-anchor="middle" x="278" y="-1635" font-family="Arial" font-size="10.00">C&#45;0793</text>
</g>
<!-- R&#45;176 -->
<g id="node23" class="node">
<title>R&#45;176</title>
<polygon fill="tomato" stroke="black" points="324,-1527.59 324,-1545.41 281.82,-1558 222.18,-1558 180,-1545.41 180,-1527.59 222.18,-1515 281.82,-1515 324,-1527.59"/>
<text text-anchor="middle" x="252" y="-1534" font-family="Arial" font-size="10.00">R&#45;176</text>
</g>
<!-- C&#45;0793&#45;&gt;R&#45;176 -->
<g id="edge5" class="edge">
<title>C&#45;0793&#45;&gt;R&#45;176</title>
<path fill="none" stroke="#4d4d4d" d="M265,-1616.08C265,-1616.08 265,-1565.24 265,-1565.24"/>
<polygon fill="#4d4d4d" stroke="#4d4d4d" points="267.45,-1565.24 265,-1558.24 262.55,-1565.24 267.45,-1565.24"/>
</g>
<!-- S&#45;1487 -->
<g id="node24" class="node">
<title>S&#45;1487</title>
<polygon fill="mediumseagreen" stroke="black" points="418,-1861 346,-1839.5 418,-1818 490,-1839.5 418,-1861"/>
<text text-anchor="middle" x="418" y="-1837" font-family="Arial" font-size="10.00">S&#45;1487</text>
</g>
<!-- C&#45;0055&#45;&gt;S&#45;1487 -->
<g id="edge2" class="edge">
<title>C&#45;0055&#45;&gt;S&#45;1487</title>
<path fill="none" stroke="#4d4d4d" d="M418,-1918.58C418,-1918.58 418,-1868.03 418,-1868.03"/>
<polygon fill="#4d4d4d" stroke="#4d4d4d" points="420.45,-1868.03 418,-1861.03 415.55,-1868.03 420.45,-1868.03"/>
</g>
<!-- C&#45;0824&#45;&gt;S&#45;1454 -->
<g id="edge26" class="edge">
<title>C&#45;0824&#45;&gt;S&#45;1454</title>
<path fill="none" stroke="#4d4d4d" d="M925.99,-728C824.74,-728 652.5,-728 652.5,-728 652.5,-728 652.5,-652.01 652.5,-652.01"/>
<polygon fill="#4d4d4d" stroke="#4d4d4d" points="654.95,-652.01 652.5,-645.01 650.05,-652.01 654.95,-652.01"/>
</g>
<!-- C&#45;0824&#45;&gt;S&#45;1618 -->
<g id="edge43" class="edge">
<title>C&#45;0824&#45;&gt;S&#45;1618</title>
<path fill="none" stroke="#4d4d4d" d="M936.79,-717C893.09,-717 842,-717 842,-717 842,-717 842,-648.88 842,-648.88"/>
<polygon fill="#4d4d4d" stroke="#4d4d4d" points="844.45,-648.88 842,-641.88 839.55,-648.88 844.45,-648.88"/>
</g>
<!-- C&#45;0824&#45;&gt;C&#45;1264 -->
<g id="edge30" class="edge">
<title>C&#45;0824&#45;&gt;C&#45;1264</title>
<path fill="none" stroke="#4d4d4d" d="M998,-706.58C998,-706.58 998,-656.03 998,-656.03"/>
<polygon fill="#4d4d4d" stroke="#4d4d4d" points="1000.45,-656.03 998,-649.03 995.55,-656.03 1000.45,-656.03"/>
</g>
<!-- S&#45;1453 -->
<g id="node15" class="node">
<title>S&#45;1453</title>
<polygon fill="mediumseagreen" stroke="black" points="1178,-649 1106,-627.5 1178,-606 1250,-627.5 1178,-649"/>
<text text-anchor="middle" x="1178" y="-625" font-family="Arial" font-size="10.00">S&#45;1453</text>
</g>
<!-- C&#45;0824&#45;&gt;S&#45;1453 -->
<g id="edge28" class="edge">
<title>C&#45;0824&#45;&gt;S&#45;1453</title>
<path fill="none" stroke="#4d4d4d" d="M1065.77,-721C1106.89,-721 1151.5,-721 1151.5,-721 1151.5,-721 1151.5,-648.3 1151.5,-648.3"/>
<polygon fill="#4d4d4d" stroke="#4d4d4d" points="1153.95,-648.3 1151.5,-641.3 1149.05,-648.3 1153.95,-648.3"/>
</g>
<!-- C&#45;1263 -->
<g id="node32" class="node">
<title>C&#45;1263</title>
<ellipse fill="tomato" stroke="black" cx="1358" cy="-627.5" rx="72" ry="21.5"/>
<text text-anchor="middle" x="1358" y="-625" font-family="Arial" font-size="10.00">C&#45;1263</text>
</g>
<!-- C&#45;0824&#45;&gt;C&#45;1263 -->
<g id="edge29" class="edge">
<title>C&#45;0824&#45;&gt;C&#45;1263</title>
<path fill="none" stroke="#4d4d4d" d="M1066.7,-735C1164.32,-735 1331.5,-735 1331.5,-735 1331.5,-735 1331.5,-654.72 1331.5,-654.72"/>
<polygon fill="#4d4d4d" stroke="#4d4d4d" points="1333.95,-654.72 1331.5,-647.72 1329.05,-654.72 1333.95,-654.72"/>
</g>
<!-- C&#45;0036 -->
<g id="node16" class="node">
<title>C&#45;0036</title>
<ellipse fill="mediumseagreen" stroke="black" cx="818" cy="-324.5" rx="72" ry="21.5"/>
<text text-anchor="middle" x="818" y="-322" font-family="Arial" font-size="10.00">C&#45;0036</text>
</g>
<!-- C&#45;0818 -->
<g id="node33" class="node">
<title>C&#45;0818</title>
<ellipse fill="mediumseagreen" stroke="black" cx="823" cy="-223.5" rx="72" ry="21.5"/>
<text text-anchor="middle" x="823" y="-221" font-family="Arial" font-size="10.00">C&#45;0818</text>
</g>
<!-- C&#45;0036&#45;&gt;C&#45;0818 -->
<g id="edge35" class="edge">
<title>C&#45;0036&#45;&gt;C&#45;0818</title>
<path fill="none" stroke="#4d4d4d" d="M820.5,-302.58C820.5,-302.58 820.5,-252.03 820.5,-252.03"/>
<polygon fill="#4d4d4d" stroke="#4d4d4d" points="822.95,-252.03 820.5,-245.03 818.05,-252.03 822.95,-252.03"/>
</g>
<!-- C&#45;0817 -->
<g id="node37" class="node">
<title>C&#45;0817</title>
<ellipse fill="tomato" stroke="black" cx="657" cy="-122.5" rx="72" ry="21.5"/>
<text text-anchor="middle" x="657" y="-120" font-family="Arial" font-size="10.00">C&#45;0817</text>
</g>
<!-- C&#45;0036&#45;&gt;C&#45;0817 -->
<g id="edge34" class="edge">
<title>C&#45;0036&#45;&gt;C&#45;0817</title>
<path fill="none" stroke="#4d4d4d" d="M745.9,-324C730.88,-324 719.5,-324 719.5,-324 719.5,-324 719.5,-140.33 719.5,-140.33"/>
<polygon fill="#4d4d4d" stroke="#4d4d4d" points="721.95,-140.33 719.5,-133.33 717.05,-140.33 721.95,-140.33"/>
</g>
<!-- C&#45;0546 -->
<g id="node17" class="node">
<title>C&#45;0546</title>
<ellipse fill="mediumseagreen" stroke="black" cx="847" cy="-1132.5" rx="72" ry="21.5"/>
<text text-anchor="middle" x="847" y="-1130" font-family="Arial" font-size="10.00">C&#45;0546</text>
</g>
<!-- S&#45;902 -->
<g id="node41" class="node">
<title>S&#45;902</title>
<polygon fill="mediumseagreen" stroke="black" points="847,-1053 775,-1031.5 847,-1010 919,-1031.5 847,-1053"/>
<text text-anchor="middle" x="847" y="-1029" font-family="Arial" font-size="10.00">S&#45;902</text>
</g>
<!-- C&#45;0546&#45;&gt;S&#45;902 -->
<g id="edge21" class="edge">
<title>C&#45;0546&#45;&gt;S&#45;902</title>
<path fill="none" stroke="#4d4d4d" d="M847,-1110.58C847,-1110.58 847,-1060.03 847,-1060.03"/>
<polygon fill="#4d4d4d" stroke="#4d4d4d" points="849.45,-1060.03 847,-1053.03 844.55,-1060.03 849.45,-1060.03"/>
</g>
<!-- R&#45;079 -->
<g id="node18" class="node">
<title>R&#45;079</title>
<polygon fill="tomato" stroke="black" points="504,-1527.59 504,-1545.41 461.82,-1558 402.18,-1558 360,-1545.41 360,-1527.59 402.18,-1515 461.82,-1515 504,-1527.59"/>
<text text-anchor="middle" x="432" y="-1534" font-family="Arial" font-size="10.00">R&#45;079</text>
</g>
<!-- ext_circ_113_24_ -->
<g id="node48" class="node">
<title>ext_circ_113_24_</title>
<polygon fill="lightpink" stroke="darkorange" stroke-dasharray="5,2" points="496,-1154 352,-1154 352,-1111 496,-1111 496,-1154"/>
<text text-anchor="middle" x="424" y="-1135.5" font-family="Arial" font-size="10.00">Circuito:</text>
<text text-anchor="middle" x="424" y="-1124.5" font-family="Arial" font-size="10.00">113&#45;24&#45;</text>
</g>
<!-- R&#45;079&#45;&gt;ext_circ_113_24_ -->
<g id="edge48" class="edge">
<title>R&#45;079&#45;&gt;ext_circ_113_24_</title>
<path fill="none" stroke="darkorange" stroke-dasharray="5,2" d="M387.5,-1519.14C387.5,-1519.14 387.5,-1161.08 387.5,-1161.08"/>
<polygon fill="darkorange" stroke="darkorange" points="389.95,-1161.08 387.5,-1154.08 385.05,-1161.08 389.95,-1161.08"/>
</g>
<!-- C&#45;0899 -->
<g id="node19" class="node">
<title>C&#45;0899</title>
<ellipse fill="mediumseagreen" stroke="black" cx="545" cy="-1637.5" rx="72" ry="21.5"/>
<text text-anchor="middle" x="545" y="-1635" font-family="Arial" font-size="10.00">C&#45;0899</text>
</g>
<!-- R&#45;209 -->
<g id="node46" class="node">
<title>R&#45;209</title>
<polygon fill="mediumseagreen" stroke="black" points="801,-1527.59 801,-1545.41 758.82,-1558 699.18,-1558 657,-1545.41 657,-1527.59 699.18,-1515 758.82,-1515 801,-1527.59"/>
<text text-anchor="middle" x="729" y="-1534" font-family="Arial" font-size="10.00">R&#45;209</text>
</g>
<!-- C&#45;0899&#45;&gt;R&#45;209 -->
<g id="edge10" class="edge">
<title>C&#45;0899&#45;&gt;R&#45;209</title>
<path fill="none" stroke="#4d4d4d" d="M565,-1616.47C565,-1586.74 565,-1536 565,-1536 565,-1536 649.59,-1536 649.59,-1536"/>
<polygon fill="#4d4d4d" stroke="#4d4d4d" points="649.59,-1538.45 656.59,-1536 649.59,-1533.55 649.59,-1538.45"/>
</g>
<!-- S&#45;1163 -->
<g id="node20" class="node">
<title>S&#45;1163</title>
<polygon fill="mediumseagreen" stroke="black" points="585,-1356 513,-1334.5 585,-1313 657,-1334.5 585,-1356"/>
<text text-anchor="middle" x="585" y="-1332" font-family="Arial" font-size="10.00">S&#45;1163</text>
</g>
<!-- S&#45;1163&#45;&gt;S&#45;760 -->
<g id="edge13" class="edge">
<title>S&#45;1163&#45;&gt;S&#45;760</title>
<path fill="none" stroke="#4d4d4d" d="M626,-1325.18C626,-1325.18 626,-1249.8 626,-1249.8"/>
<polygon fill="#4d4d4d" stroke="#4d4d4d" points="628.45,-1249.8 626,-1242.8 623.55,-1249.8 628.45,-1249.8"/>
</g>
<!-- C&#45;0944 -->
<g id="node26" class="node">
<title>C&#45;0944</title>
<ellipse fill="tomato" stroke="black" cx="487" cy="-1233.5" rx="72" ry="21.5"/>
<text text-anchor="middle" x="487" y="-1231" font-family="Arial" font-size="10.00">C&#45;0944</text>
</g>
<!-- S&#45;1163&#45;&gt;C&#45;0944 -->
<g id="edge14" class="edge">
<title>S&#45;1163&#45;&gt;C&#45;0944</title>
<path fill="none" stroke="#4d4d4d" d="M536,-1327.56C536,-1327.56 536,-1256.58 536,-1256.58"/>
<polygon fill="#4d4d4d" stroke="#4d4d4d" points="538.45,-1256.58 536,-1249.58 533.55,-1256.58 538.45,-1256.58"/>
</g>
<!-- S&#45;042 -->
<g id="node21" class="node">
<title>S&#45;042</title>
<polygon fill="mediumseagreen" stroke="black" points="998,-346 926,-324.5 998,-303 1070,-324.5 998,-346"/>
<text text-anchor="middle" x="998" y="-322" font-family="Arial" font-size="10.00">S&#45;042</text>
</g>
<!-- S&#45;1373 -->
<g id="node27" class="node">
<title>S&#45;1373</title>
<polygon fill="mediumseagreen" stroke="black" points="1021,-245 949,-223.5 1021,-202 1093,-223.5 1021,-245"/>
<text text-anchor="middle" x="1021" y="-221" font-family="Arial" font-size="10.00">S&#45;1373</text>
</g>
<!-- S&#45;042&#45;&gt;S&#45;1373 -->
<g id="edge41" class="edge">
<title>S&#45;042&#45;&gt;S&#45;1373</title>
<path fill="none" stroke="#4d4d4d" d="M1009.5,-305.98C1009.5,-305.98 1009.5,-248.57 1009.5,-248.57"/>
<polygon fill="#4d4d4d" stroke="#4d4d4d" points="1011.95,-248.57 1009.5,-241.57 1007.05,-248.57 1011.95,-248.57"/>
</g>
<!-- R&#45;183 -->
<g id="node22" class="node">
<title>R&#45;183</title>
<polygon fill="tomato" stroke="black" points="909,-113.59 909,-131.41 866.82,-144 807.18,-144 765,-131.41 765,-113.59 807.18,-101 866.82,-101 909,-113.59"/>
<text text-anchor="middle" x="837" y="-120" font-family="Arial" font-size="10.00">R&#45;183</text>
</g>
<!-- ext_circ_114_23_ -->
<g id="node50" class="node">
<title>ext_circ_114_23_</title>
<polygon fill="lightpink" stroke="darkorange" stroke-dasharray="5,2" points="886,-43 742,-43 742,0 886,0 886,-43"/>
<text text-anchor="middle" x="814" y="-24.5" font-family="Arial" font-size="10.00">Circuito:</text>
<text text-anchor="middle" x="814" y="-13.5" font-family="Arial" font-size="10.00">114&#45;23&#45;</text>
</g>
<!-- R&#45;183&#45;&gt;ext_circ_114_23_ -->
<g id="edge56" class="edge">
<title>R&#45;183&#45;&gt;ext_circ_114_23_</title>
<path fill="none" stroke="darkorange" stroke-dasharray="5,2" d="M825.5,-100.58C825.5,-100.58 825.5,-50.03 825.5,-50.03"/>
<polygon fill="darkorange" stroke="darkorange" points="827.95,-50.03 825.5,-43.03 823.05,-50.03 827.95,-50.03"/>
</g>
<!-- R&#45;176&#45;&gt;ext_circ_109_25_ -->
<g id="edge46" class="edge">
<title>R&#45;176&#45;&gt;ext_circ_109_25_</title>
<path fill="none" stroke="darkorange" stroke-dasharray="5,2" d="M207,-1519.37C207,-1519.37 207,-1464.31 207,-1464.31"/>
<polygon fill="darkorange" stroke="darkorange" points="209.45,-1464.31 207,-1457.31 204.55,-1464.31 209.45,-1464.31"/>
</g>
<!-- C&#45;0163 -->
<g id="node25" class="node">
<title>C&#45;0163</title>
<ellipse fill="mediumseagreen" stroke="black" cx="418" cy="-1738.5" rx="72" ry="21.5"/>
<text text-anchor="middle" x="418" y="-1736" font-family="Arial" font-size="10.00">C&#45;0163</text>
</g>
<!-- S&#45;1487&#45;&gt;C&#45;0163 -->
<g id="edge3" class="edge">
<title>S&#45;1487&#45;&gt;C&#45;0163</title>
<path fill="none" stroke="#4d4d4d" d="M418,-1817.58C418,-1817.58 418,-1767.03 418,-1767.03"/>
<polygon fill="#4d4d4d" stroke="#4d4d4d" points="420.45,-1767.03 418,-1760.03 415.55,-1767.03 420.45,-1767.03"/>
</g>
<!-- C&#45;0163&#45;&gt;C&#45;0792 -->
<g id="edge6" class="edge">
<title>C&#45;0163&#45;&gt;C&#45;0792</title>
<path fill="none" stroke="#4d4d4d" d="M345.89,-1738C244.49,-1738 72,-1738 72,-1738 72,-1738 72,-1565.06 72,-1565.06"/>
<polygon fill="#4d4d4d" stroke="#4d4d4d" points="74.45,-1565.06 72,-1558.06 69.55,-1565.06 74.45,-1565.06"/>
</g>
<!-- C&#45;0163&#45;&gt;C&#45;0793 -->
<g id="edge4" class="edge">
<title>C&#45;0163&#45;&gt;C&#45;0793</title>
<path fill="none" stroke="#4d4d4d" d="M356,-1727.25C356,-1700.82 356,-1637 356,-1637 356,-1637 355.41,-1637 355.41,-1637"/>
<polygon fill="#4d4d4d" stroke="#4d4d4d" points="357.14,-1634.55 350.14,-1637 357.14,-1639.45 357.14,-1634.55"/>
</g>
<!-- C&#45;0163&#45;&gt;R&#45;079 -->
<g id="edge7" class="edge">
<title>C&#45;0163&#45;&gt;R&#45;079</title>
<path fill="none" stroke="#4d4d4d" d="M416.5,-1716.88C416.5,-1716.88 416.5,-1565.27 416.5,-1565.27"/>
<polygon fill="#4d4d4d" stroke="#4d4d4d" points="418.95,-1565.27 416.5,-1558.27 414.05,-1565.27 418.95,-1565.27"/>
</g>
<!-- C&#45;0163&#45;&gt;C&#45;0899 -->
<g id="edge9" class="edge">
<title>C&#45;0163&#45;&gt;C&#45;0899</title>
<path fill="none" stroke="#4d4d4d" d="M481.5,-1728.07C481.5,-1728.07 481.5,-1654.72 481.5,-1654.72"/>
<polygon fill="#4d4d4d" stroke="#4d4d4d" points="483.95,-1654.72 481.5,-1647.72 479.05,-1654.72 483.95,-1654.72"/>
</g>
<!-- C&#45;0012 -->
<g id="node36" class="node">
<title>C&#45;0012</title>
<ellipse fill="tomato" stroke="black" cx="725" cy="-1637.5" rx="72" ry="21.5"/>
<text text-anchor="middle" x="725" y="-1635" font-family="Arial" font-size="10.00">C&#45;0012</text>
</g>
<!-- C&#45;0163&#45;&gt;C&#45;0012 -->
<g id="edge8" class="edge">
<title>C&#45;0163&#45;&gt;C&#45;0012</title>
<path fill="none" stroke="#4d4d4d" d="M490.37,-1738C581.13,-1738 725,-1738 725,-1738 725,-1738 725,-1666.31 725,-1666.31"/>
<polygon fill="#4d4d4d" stroke="#4d4d4d" points="727.45,-1666.31 725,-1659.31 722.55,-1666.31 727.45,-1666.31"/>
</g>
<!-- C&#45;0944&#45;&gt;ext_circ_113_24_ -->
<g id="edge50" class="edge">
<title>C&#45;0944&#45;&gt;ext_circ_113_24_</title>
<path fill="none" stroke="darkorange" stroke-dasharray="5,2" d="M455.5,-1214.03C455.5,-1214.03 455.5,-1161.01 455.5,-1161.01"/>
<polygon fill="darkorange" stroke="darkorange" points="457.95,-1161.01 455.5,-1154.01 453.05,-1161.01 457.95,-1161.01"/>
</g>
<!-- S&#45;1373&#45;&gt;C&#45;0946 -->
<g id="edge42" class="edge">
<title>S&#45;1373&#45;&gt;C&#45;0946</title>
<path fill="none" stroke="#4d4d4d" d="M1030,-204.5C1030,-204.5 1030,-150.86 1030,-150.86"/>
<polygon fill="#4d4d4d" stroke="#4d4d4d" points="1032.45,-150.86 1030,-143.86 1027.55,-150.86 1032.45,-150.86"/>
</g>
<!-- R&#45;117 -->
<g id="node29" class="node">
<title>R&#45;117</title>
<polygon fill="mediumseagreen" stroke="black" points="919,-1224.59 919,-1242.41 876.82,-1255 817.18,-1255 775,-1242.41 775,-1224.59 817.18,-1212 876.82,-1212 919,-1224.59"/>
<text text-anchor="middle" x="847" y="-1231" font-family="Arial" font-size="10.00">R&#45;117</text>
</g>
<!-- R&#45;117&#45;&gt;C&#45;0546 -->
<g id="edge20" class="edge">
<title>R&#45;117&#45;&gt;C&#45;0546</title>
<path fill="none" stroke="#4d4d4d" d="M847,-1211.58C847,-1211.58 847,-1161.03 847,-1161.03"/>
<polygon fill="#4d4d4d" stroke="#4d4d4d" points="849.45,-1161.03 847,-1154.03 844.55,-1161.03 849.45,-1161.03"/>
</g>
<!-- C&#45;0367 -->
<g id="node30" class="node">
<title>C&#45;0367</title>
<ellipse fill="mediumseagreen" stroke="black" cx="765" cy="-1334.5" rx="72" ry="21.5"/>
<text text-anchor="middle" x="765" y="-1332" font-family="Arial" font-size="10.00">C&#45;0367</text>
</g>
<!-- C&#45;0367&#45;&gt;R&#45;117 -->
<g id="edge19" class="edge">
<title>C&#45;0367&#45;&gt;R&#45;117</title>
<path fill="none" stroke="#4d4d4d" d="M806,-1316.44C806,-1316.44 806,-1258.74 806,-1258.74"/>
<polygon fill="#4d4d4d" stroke="#4d4d4d" points="808.45,-1258.74 806,-1251.74 803.55,-1258.74 808.45,-1258.74"/>
</g>
<!-- C&#45;0822 -->
<g id="node31" class="node">
<title>C&#45;0822</title>
<ellipse fill="mediumseagreen" stroke="black" cx="998" cy="-930.5" rx="72" ry="21.5"/>
<text text-anchor="middle" x="998" y="-928" font-family="Arial" font-size="10.00">C&#45;0822</text>
</g>
<!-- R&#45;185 -->
<g id="node39" class="node">
<title>R&#45;185</title>
<polygon fill="mediumseagreen" stroke="black" points="1070,-820.59 1070,-838.41 1027.82,-851 968.18,-851 926,-838.41 926,-820.59 968.18,-808 1027.82,-808 1070,-820.59"/>
<text text-anchor="middle" x="998" y="-827" font-family="Arial" font-size="10.00">R&#45;185</text>
</g>
<!-- C&#45;0822&#45;&gt;R&#45;185 -->
<g id="edge24" class="edge">
<title>C&#45;0822&#45;&gt;R&#45;185</title>
<path fill="none" stroke="#4d4d4d" d="M998,-908.58C998,-908.58 998,-858.03 998,-858.03"/>
<polygon fill="#4d4d4d" stroke="#4d4d4d" points="1000.45,-858.03 998,-851.03 995.55,-858.03 1000.45,-858.03"/>
</g>
<!-- C&#45;1263&#45;&gt;C&#45;1265 -->
<g id="edge54" class="edge">
<title>C&#45;1263&#45;&gt;C&#45;1265</title>
<path fill="none" stroke="blue" stroke-dasharray="5,2" d="M1334,-607.01C1334,-557.6 1334,-436 1334,-436 1334,-436 1068.2,-436 1068.2,-436"/>
<polygon fill="blue" stroke="blue" points="1068.2,-433.55 1061.2,-436 1068.2,-438.45 1068.2,-433.55"/>
</g>
<!-- C&#45;0818&#45;&gt;R&#45;183 -->
<g id="edge36" class="edge">
<title>C&#45;0818&#45;&gt;R&#45;183</title>
<path fill="none" stroke="#4d4d4d" d="M830,-202.08C830,-202.08 830,-151.24 830,-151.24"/>
<polygon fill="#4d4d4d" stroke="#4d4d4d" points="832.45,-151.24 830,-144.24 827.55,-151.24 832.45,-151.24"/>
</g>
<!-- C&#45;0788 -->
<g id="node34" class="node">
<title>C&#45;0788</title>
<ellipse fill="mediumseagreen" stroke="black" cx="1178" cy="-324.5" rx="72" ry="21.5"/>
<text text-anchor="middle" x="1178" y="-322" font-family="Arial" font-size="10.00">C&#45;0788</text>
</g>
<!-- R&#45;175 -->
<g id="node43" class="node">
<title>R&#45;175</title>
<polygon fill="tomato" stroke="black" points="1290,-214.59 1290,-232.41 1247.82,-245 1188.18,-245 1146,-232.41 1146,-214.59 1188.18,-202 1247.82,-202 1290,-214.59"/>
<text text-anchor="middle" x="1218" y="-221" font-family="Arial" font-size="10.00">R&#45;175</text>
</g>
<!-- C&#45;0788&#45;&gt;R&#45;175 -->
<g id="edge39" class="edge">
<title>C&#45;0788&#45;&gt;R&#45;175</title>
<path fill="none" stroke="#4d4d4d" d="M1198,-303.57C1198,-303.57 1198,-252.1 1198,-252.1"/>
<polygon fill="#4d4d4d" stroke="#4d4d4d" points="1200.45,-252.1 1198,-245.1 1195.55,-252.1 1200.45,-252.1"/>
</g>
<!-- C&#45;0897 -->
<g id="node35" class="node">
<title>C&#45;0897</title>
<ellipse fill="mediumseagreen" stroke="black" cx="945" cy="-1435.5" rx="72" ry="21.5"/>
<text text-anchor="middle" x="945" y="-1433" font-family="Arial" font-size="10.00">C&#45;0897</text>
</g>
<!-- C&#45;0897&#45;&gt;S&#45;1468 -->
<g id="edge15" class="edge">
<title>C&#45;0897&#45;&gt;S&#45;1468</title>
<path fill="none" stroke="#4d4d4d" d="M1008,-1446C1150.45,-1446 1485,-1446 1485,-1446 1485,-1446 1485,-1363.26 1485,-1363.26"/>
<polygon fill="#4d4d4d" stroke="#4d4d4d" points="1487.45,-1363.26 1485,-1356.26 1482.55,-1363.26 1487.45,-1363.26"/>
</g>
<!-- C&#45;0897&#45;&gt;S&#45;1163 -->
<g id="edge12" class="edge">
<title>C&#45;0897&#45;&gt;S&#45;1163</title>
<path fill="none" stroke="#4d4d4d" d="M872.71,-1435C781.11,-1435 635,-1435 635,-1435 635,-1435 635,-1348.09 635,-1348.09"/>
<polygon fill="#4d4d4d" stroke="#4d4d4d" points="637.45,-1348.09 635,-1341.09 632.55,-1348.09 637.45,-1348.09"/>
</g>
<!-- C&#45;0897&#45;&gt;C&#45;0367 -->
<g id="edge17" class="edge">
<title>C&#45;0897&#45;&gt;C&#45;0367</title>
<path fill="none" stroke="#4d4d4d" d="M883.85,-1424C851.74,-1424 819,-1424 819,-1424 819,-1424 819,-1355.88 819,-1355.88"/>
<polygon fill="#4d4d4d" stroke="#4d4d4d" points="821.45,-1355.88 819,-1348.88 816.55,-1355.88 821.45,-1355.88"/>
</g>
<!-- S&#45;047 -->
<g id="node38" class="node">
<title>S&#45;047</title>
<polygon fill="mediumseagreen" stroke="black" points="945,-1356 873,-1334.5 945,-1313 1017,-1334.5 945,-1356"/>
<text text-anchor="middle" x="945" y="-1332" font-family="Arial" font-size="10.00">S&#45;047</text>
</g>
<!-- C&#45;0897&#45;&gt;S&#45;047 -->
<g id="edge44" class="edge">
<title>C&#45;0897&#45;&gt;S&#45;047</title>
<path fill="none" stroke="#4d4d4d" d="M945,-1413.58C945,-1413.58 945,-1363.03 945,-1363.03"/>
<polygon fill="#4d4d4d" stroke="#4d4d4d" points="947.45,-1363.03 945,-1356.03 942.55,-1363.03 947.45,-1363.03"/>
</g>
<!-- C&#45;0545 -->
<g id="node40" class="node">
<title>C&#45;0545</title>
<ellipse fill="tomato" stroke="black" cx="1125" cy="-1334.5" rx="72" ry="21.5"/>
<text text-anchor="middle" x="1125" y="-1332" font-family="Arial" font-size="10.00">C&#45;0545</text>
</g>
<!-- C&#45;0897&#45;&gt;C&#45;0545 -->
<g id="edge18" class="edge">
<title>C&#45;0897&#45;&gt;C&#45;0545</title>
<path fill="none" stroke="#4d4d4d" d="M1005.94,-1424C1058.16,-1424 1125,-1424 1125,-1424 1125,-1424 1125,-1363.17 1125,-1363.17"/>
<polygon fill="#4d4d4d" stroke="#4d4d4d" points="1127.45,-1363.17 1125,-1356.17 1122.55,-1363.17 1127.45,-1363.17"/>
</g>
<!-- S&#45;037 -->
<g id="node42" class="node">
<title>S&#45;037</title>
<polygon fill="mediumseagreen" stroke="black" points="1305,-1356 1233,-1334.5 1305,-1313 1377,-1334.5 1305,-1356"/>
<text text-anchor="middle" x="1305" y="-1332" font-family="Arial" font-size="10.00">S&#45;037</text>
</g>
<!-- C&#45;0897&#45;&gt;S&#45;037 -->
<g id="edge45" class="edge">
<title>C&#45;0897&#45;&gt;S&#45;037</title>
<path fill="none" stroke="#4d4d4d" d="M1016.99,-1435C1122.04,-1435 1305,-1435 1305,-1435 1305,-1435 1305,-1363.31 1305,-1363.31"/>
<polygon fill="#4d4d4d" stroke="#4d4d4d" points="1307.45,-1363.31 1305,-1356.31 1302.55,-1363.31 1307.45,-1363.31"/>
</g>
<!-- C&#45;0012&#45;&gt;C&#45;0897 -->
<g id="edge49" class="edge">
<title>C&#45;0012&#45;&gt;C&#45;0897</title>
<path fill="none" stroke="blue" stroke-dasharray="5,2" d="M797.04,-1637C861.2,-1637 945,-1637 945,-1637 945,-1637 945,-1464.06 945,-1464.06"/>
<polygon fill="blue" stroke="blue" points="947.45,-1464.06 945,-1457.06 942.55,-1464.06 947.45,-1464.06"/>
</g>
<!-- C&#45;0817&#45;&gt;ext_circ_114_23_ -->
<g id="edge55" class="edge">
<title>C&#45;0817&#45;&gt;ext_circ_114_23_</title>
<path fill="none" stroke="darkorange" stroke-dasharray="5,2" d="M729.06,-122C745.38,-122 758,-122 758,-122 758,-122 758,-50.31 758,-50.31"/>
<polygon fill="darkorange" stroke="darkorange" points="760.45,-50.31 758,-43.31 755.55,-50.31 760.45,-50.31"/>
</g>
<!-- R&#45;185&#45;&gt;C&#45;0824 -->
<g id="edge25" class="edge">
<title>R&#45;185&#45;&gt;C&#45;0824</title>
<path fill="none" stroke="#4d4d4d" d="M998,-807.58C998,-807.58 998,-757.03 998,-757.03"/>
<polygon fill="#4d4d4d" stroke="#4d4d4d" points="1000.45,-757.03 998,-750.03 995.55,-757.03 1000.45,-757.03"/>
</g>
<!-- C&#45;0545&#45;&gt;C&#45;0546 -->
<g id="edge52" class="edge">
<title>C&#45;0545&#45;&gt;C&#45;0546</title>
<path fill="none" stroke="blue" stroke-dasharray="5,2" d="M1061.5,-1324.18C1061.5,-1282.91 1061.5,-1132 1061.5,-1132 1061.5,-1132 926.02,-1132 926.02,-1132"/>
<polygon fill="blue" stroke="blue" points="926.02,-1129.55 919.02,-1132 926.02,-1134.45 926.02,-1129.55"/>
</g>
<!-- S&#45;902&#45;&gt;C&#45;0823 -->
<g id="edge23" class="edge">
<title>S&#45;902&#45;&gt;C&#45;0823</title>
<path fill="none" stroke="#4d4d4d" d="M832.5,-1013.91C832.5,-1013.91 832.5,-958.74 832.5,-958.74"/>
<polygon fill="#4d4d4d" stroke="#4d4d4d" points="834.95,-958.74 832.5,-951.74 830.05,-958.74 834.95,-958.74"/>
</g>
<!-- S&#45;902&#45;&gt;C&#45;0822 -->
<g id="edge22" class="edge">
<title>S&#45;902&#45;&gt;C&#45;0822</title>
<path fill="none" stroke="#4d4d4d" d="M914,-1029.74C914,-1016.26 914,-930 914,-930 914,-930 918.68,-930 918.68,-930"/>
<polygon fill="#4d4d4d" stroke="#4d4d4d" points="918.68,-932.45 925.68,-930 918.68,-927.55 918.68,-932.45"/>
</g>
<!-- ext_circ_114_22_ -->
<g id="node51" class="node">
<title>ext_circ_114_22_</title>
<polygon fill="lightpink" stroke="darkorange" stroke-dasharray="5,2" points="1359,-144 1215,-144 1215,-101 1359,-101 1359,-144"/>
<text text-anchor="middle" x="1287" y="-125.5" font-family="Arial" font-size="10.00">Circuito:</text>
<text text-anchor="middle" x="1287" y="-114.5" font-family="Arial" font-size="10.00">114&#45;22&#45;</text>
</g>
<!-- R&#45;175&#45;&gt;ext_circ_114_22_ -->
<g id="edge58" class="edge">
<title>R&#45;175&#45;&gt;ext_circ_114_22_</title>
<path fill="none" stroke="darkorange" stroke-dasharray="5,2" d="M1252.5,-203.06C1252.5,-203.06 1252.5,-151.31 1252.5,-151.31"/>
<polygon fill="darkorange" stroke="darkorange" points="1254.95,-151.31 1252.5,-144.31 1250.05,-151.31 1254.95,-151.31"/>
</g>
<!-- C&#45;0789 -->
<g id="node44" class="node">
<title>C&#45;0789</title>
<ellipse fill="tomato" stroke="black" cx="1358" cy="-324.5" rx="72" ry="21.5"/>
<text text-anchor="middle" x="1358" y="-322" font-family="Arial" font-size="10.00">C&#45;0789</text>
</g>
<!-- C&#45;0789&#45;&gt;ext_circ_114_22_ -->
<g id="edge57" class="edge">
<title>C&#45;0789&#45;&gt;ext_circ_114_22_</title>
<path fill="none" stroke="darkorange" stroke-dasharray="5,2" d="M1324.5,-305.13C1324.5,-305.13 1324.5,-151.24 1324.5,-151.24"/>
<polygon fill="darkorange" stroke="darkorange" points="1326.95,-151.24 1324.5,-144.24 1322.05,-151.24 1326.95,-151.24"/>
</g>
<!-- C&#45;1265&#45;&gt;C&#45;0036 -->
<g id="edge33" class="edge">
<title>C&#45;1265&#45;&gt;C&#45;0036</title>
<path fill="none" stroke="#4d4d4d" d="M925.82,-425C875.75,-425 818,-425 818,-425 818,-425 818,-353.31 818,-353.31"/>
<polygon fill="#4d4d4d" stroke="#4d4d4d" points="820.45,-353.31 818,-346.31 815.55,-353.31 820.45,-353.31"/>
</g>
<!-- C&#45;1265&#45;&gt;S&#45;042 -->
<g id="edge40" class="edge">
<title>C&#45;1265&#45;&gt;S&#45;042</title>
<path fill="none" stroke="#4d4d4d" d="M998,-403.58C998,-403.58 998,-353.03 998,-353.03"/>
<polygon fill="#4d4d4d" stroke="#4d4d4d" points="1000.45,-353.03 998,-346.03 995.55,-353.03 1000.45,-353.03"/>
</g>
<!-- C&#45;1265&#45;&gt;C&#45;0788 -->
<g id="edge37" class="edge">
<title>C&#45;1265&#45;&gt;C&#45;0788</title>
<path fill="none" stroke="#4d4d4d" d="M1058.94,-414C1111.16,-414 1178,-414 1178,-414 1178,-414 1178,-353.17 1178,-353.17"/>
<polygon fill="#4d4d4d" stroke="#4d4d4d" points="1180.45,-353.17 1178,-346.17 1175.55,-353.17 1180.45,-353.17"/>
</g>
<!-- C&#45;1265&#45;&gt;C&#45;0789 -->
<g id="edge38" class="edge">
<title>C&#45;1265&#45;&gt;C&#45;0789</title>
<path fill="none" stroke="#4d4d4d" d="M1070.23,-425C1181.46,-425 1382,-425 1382,-425 1382,-425 1382,-351.84 1382,-351.84"/>
<polygon fill="#4d4d4d" stroke="#4d4d4d" points="1384.45,-351.84 1382,-344.84 1379.55,-351.84 1384.45,-351.84"/>
</g>
<!-- R&#45;209&#45;&gt;C&#45;0897 -->
<g id="edge11" class="edge">
<title>R&#45;209&#45;&gt;C&#45;0897</title>
<path fill="none" stroke="#4d4d4d" d="M747,-1514.59C747,-1487.81 747,-1446 747,-1446 747,-1446 875.08,-1446 875.08,-1446"/>
<polygon fill="#4d4d4d" stroke="#4d4d4d" points="875.08,-1448.45 882.08,-1446 875.08,-1443.55 875.08,-1448.45"/>
</g>
</g>
</svg>
