<?xml version="1.0" encoding="UTF-8" standalone="no"?>
<!DOCTYPE svg PUBLIC "-//W3C//DTD SVG 1.1//EN"
 "http://www.w3.org/Graphics/SVG/1.1/DTD/svg11.dtd">
<!-- Generated by graphviz version 2.50.0 (0)
 -->
<!-- Title: Grafo_Circuito_112_22_ Pages: 1 -->
<svg width="2987pt" height="1473pt"
 viewBox="0.00 0.00 2987.00 1473.00" xmlns="http://www.w3.org/2000/svg" xmlns:xlink="http://www.w3.org/1999/xlink">
<g id="graph0" class="graph" transform="scale(1 1) rotate(0) translate(4 1469)">
<title>Grafo_Circuito_112_22_</title>
<polygon fill="white" stroke="transparent" points="-4,4 -4,-1469 2983,-1469 2983,4 -4,4"/>
<!-- R&#45;215 -->
<g id="node1" class="node">
<title>R&#45;215</title>
<polygon fill="mediumseagreen" stroke="black" points="1463,-1022.59 1463,-1040.41 1420.82,-1053 1361.18,-1053 1319,-1040.41 1319,-1022.59 1361.18,-1010 1420.82,-1010 1463,-1022.59"/>
<text text-anchor="middle" x="1391" y="-1029" font-family="Arial" font-size="10.00">R&#45;215</text>
</g>
<!-- C&#45;0919 -->
<g id="node50" class="node">
<title>C&#45;0919</title>
<ellipse fill="mediumseagreen" stroke="black" cx="1332" cy="-930.5" rx="72" ry="21.5"/>
<text text-anchor="middle" x="1332" y="-928" font-family="Arial" font-size="10.00">C&#45;0919</text>
</g>
<!-- R&#45;215&#45;&gt;C&#45;0919 -->
<g id="edge31" class="edge">
<title>R&#45;215&#45;&gt;C&#45;0919</title>
<path fill="none" stroke="#4d4d4d" d="M1361.5,-1009.58C1361.5,-1009.58 1361.5,-957.32 1361.5,-957.32"/>
<polygon fill="#4d4d4d" stroke="#4d4d4d" points="1363.95,-957.32 1361.5,-950.32 1359.05,-957.32 1363.95,-957.32"/>
</g>
<!-- C&#45;0471 -->
<g id="node2" class="node">
<title>C&#45;0471</title>
<ellipse fill="mediumseagreen" stroke="black" cx="1962" cy="-728.5" rx="72" ry="21.5"/>
<text text-anchor="middle" x="1962" y="-726" font-family="Arial" font-size="10.00">C&#45;0471</text>
</g>
<!-- C&#45;0472 -->
<g id="node56" class="node">
<title>C&#45;0472</title>
<ellipse fill="mediumseagreen" stroke="black" cx="1962" cy="-627.5" rx="72" ry="21.5"/>
<text text-anchor="middle" x="1962" y="-625" font-family="Arial" font-size="10.00">C&#45;0472</text>
</g>
<!-- C&#45;0471&#45;&gt;C&#45;0472 -->
<g id="edge38" class="edge">
<title>C&#45;0471&#45;&gt;C&#45;0472</title>
<path fill="none" stroke="#4d4d4d" d="M1962,-706.58C1962,-706.58 1962,-656.03 1962,-656.03"/>
<polygon fill="#4d4d4d" stroke="#4d4d4d" points="1964.45,-656.03 1962,-649.03 1959.55,-656.03 1964.45,-656.03"/>
</g>
<!-- S&#45;2435 -->
<g id="node3" class="node">
<title>S&#45;2435</title>
<polygon fill="mediumseagreen" stroke="black" points="1062,-851 990,-829.5 1062,-808 1134,-829.5 1062,-851"/>
<text text-anchor="middle" x="1062" y="-827" font-family="Arial" font-size="10.00">S&#45;2435</text>
</g>
<!-- R&#45;028 -->
<g id="node4" class="node">
<title>R&#45;028</title>
<polygon fill="mediumseagreen" stroke="black" points="594,-820.59 594,-838.41 551.82,-851 492.18,-851 450,-838.41 450,-820.59 492.18,-808 551.82,-808 594,-820.59"/>
<text text-anchor="middle" x="522" y="-827" font-family="Arial" font-size="10.00">R&#45;028</text>
</g>
<!-- S&#45;1689 -->
<g id="node25" class="node">
<title>S&#45;1689</title>
<polygon fill="mediumseagreen" stroke="black" points="342,-750 270,-728.5 342,-707 414,-728.5 342,-750"/>
<text text-anchor="middle" x="342" y="-726" font-family="Arial" font-size="10.00">S&#45;1689</text>
</g>
<!-- R&#45;028&#45;&gt;S&#45;1689 -->
<g id="edge52" class="edge">
<title>R&#45;028&#45;&gt;S&#45;1689</title>
<path fill="none" stroke="#4d4d4d" d="M472.5,-813.64C472.5,-785.09 472.5,-728 472.5,-728 472.5,-728 419.6,-728 419.6,-728"/>
<polygon fill="#4d4d4d" stroke="#4d4d4d" points="419.6,-725.55 412.6,-728 419.6,-730.45 419.6,-725.55"/>
</g>
<!-- S&#45;1198 -->
<g id="node36" class="node">
<title>S&#45;1198</title>
<polygon fill="mediumseagreen" stroke="black" points="567,-750 495,-728.5 567,-707 639,-728.5 567,-750"/>
<text text-anchor="middle" x="567" y="-726" font-family="Arial" font-size="10.00">S&#45;1198</text>
</g>
<!-- R&#45;028&#45;&gt;S&#45;1198 -->
<g id="edge44" class="edge">
<title>R&#45;028&#45;&gt;S&#45;1198</title>
<path fill="none" stroke="#4d4d4d" d="M544.5,-807.58C544.5,-807.58 544.5,-750.5 544.5,-750.5"/>
<polygon fill="#4d4d4d" stroke="#4d4d4d" points="546.95,-750.5 544.5,-743.5 542.05,-750.5 546.95,-750.5"/>
</g>
<!-- S&#45;2252 -->
<g id="node5" class="node">
<title>S&#45;2252</title>
<polygon fill="mediumseagreen" stroke="black" points="72,-649 0,-627.5 72,-606 144,-627.5 72,-649"/>
<text text-anchor="middle" x="72" y="-625" font-family="Arial" font-size="10.00">S&#45;2252</text>
</g>
<!-- 112&#45;22&#45; -->
<g id="node6" class="node">
<title>112&#45;22&#45;</title>
<polygon fill="gold" stroke="black" points="1655,-1430.59 1655,-1448.41 1612.82,-1461 1553.18,-1461 1511,-1448.41 1511,-1430.59 1553.18,-1418 1612.82,-1418 1655,-1430.59"/>
<polygon fill="none" stroke="black" points="1659,-1427.61 1659,-1451.39 1613.41,-1465 1552.59,-1465 1507,-1451.39 1507,-1427.61 1552.59,-1414 1613.41,-1414 1659,-1427.61"/>
<text text-anchor="middle" x="1583" y="-1437" font-family="Arial" font-size="10.00">112&#45;22&#45;</text>
</g>
<!-- C&#45;0053 -->
<g id="node17" class="node">
<title>C&#45;0053</title>
<ellipse fill="mediumseagreen" stroke="black" cx="1583" cy="-1334.5" rx="72" ry="21.5"/>
<text text-anchor="middle" x="1583" y="-1332" font-family="Arial" font-size="10.00">C&#45;0053</text>
</g>
<!-- 112&#45;22&#45;&#45;&gt;C&#45;0053 -->
<g id="edge26" class="edge">
<title>112&#45;22&#45;&#45;&gt;C&#45;0053</title>
<path fill="none" stroke="#4d4d4d" d="M1583,-1413.81C1583,-1413.81 1583,-1363.03 1583,-1363.03"/>
<polygon fill="#4d4d4d" stroke="#4d4d4d" points="1585.45,-1363.03 1583,-1356.03 1580.55,-1363.03 1585.45,-1363.03"/>
</g>
<!-- S&#45;1514 -->
<g id="node7" class="node">
<title>S&#45;1514</title>
<polygon fill="mediumseagreen" stroke="black" points="72,-548 0,-526.5 72,-505 144,-526.5 72,-548"/>
<text text-anchor="middle" x="72" y="-524" font-family="Arial" font-size="10.00">S&#45;1514</text>
</g>
<!-- S&#45;1937 -->
<g id="node12" class="node">
<title>S&#45;1937</title>
<polygon fill="mediumseagreen" stroke="black" points="72,-447 0,-425.5 72,-404 144,-425.5 72,-447"/>
<text text-anchor="middle" x="72" y="-423" font-family="Arial" font-size="10.00">S&#45;1937</text>
</g>
<!-- S&#45;1514&#45;&gt;S&#45;1937 -->
<g id="edge48" class="edge">
<title>S&#45;1514&#45;&gt;S&#45;1937</title>
<path fill="none" stroke="#4d4d4d" d="M72,-504.58C72,-504.58 72,-454.03 72,-454.03"/>
<polygon fill="#4d4d4d" stroke="#4d4d4d" points="74.45,-454.03 72,-447.03 69.55,-454.03 74.45,-454.03"/>
</g>
<!-- S&#45;1796 -->
<g id="node8" class="node">
<title>S&#45;1796</title>
<polygon fill="mediumseagreen" stroke="black" points="252,-548 180,-526.5 252,-505 324,-526.5 252,-548"/>
<text text-anchor="middle" x="252" y="-524" font-family="Arial" font-size="10.00">S&#45;1796</text>
</g>
<!-- S&#45;2414 -->
<g id="node39" class="node">
<title>S&#45;2414</title>
<polygon fill="mediumseagreen" stroke="black" points="252,-447 180,-425.5 252,-404 324,-425.5 252,-447"/>
<text text-anchor="middle" x="252" y="-423" font-family="Arial" font-size="10.00">S&#45;2414</text>
</g>
<!-- S&#45;1796&#45;&gt;S&#45;2414 -->
<g id="edge50" class="edge">
<title>S&#45;1796&#45;&gt;S&#45;2414</title>
<path fill="none" stroke="#4d4d4d" d="M252,-504.58C252,-504.58 252,-454.03 252,-454.03"/>
<polygon fill="#4d4d4d" stroke="#4d4d4d" points="254.45,-454.03 252,-447.03 249.55,-454.03 254.45,-454.03"/>
</g>
<!-- S&#45;2131 -->
<g id="node9" class="node">
<title>S&#45;2131</title>
<polygon fill="mediumseagreen" stroke="black" points="702,-851 630,-829.5 702,-808 774,-829.5 702,-851"/>
<text text-anchor="middle" x="702" y="-827" font-family="Arial" font-size="10.00">S&#45;2131</text>
</g>
<!-- S&#45;2195 -->
<g id="node10" class="node">
<title>S&#45;2195</title>
<polygon fill="mediumseagreen" stroke="black" points="792,-548 720,-526.5 792,-505 864,-526.5 792,-548"/>
<text text-anchor="middle" x="792" y="-524" font-family="Arial" font-size="10.00">S&#45;2195</text>
</g>
<!-- S&#45;2270 -->
<g id="node26" class="node">
<title>S&#45;2270</title>
<polygon fill="mediumseagreen" stroke="black" points="792,-447 720,-425.5 792,-404 864,-425.5 792,-447"/>
<text text-anchor="middle" x="792" y="-423" font-family="Arial" font-size="10.00">S&#45;2270</text>
</g>
<!-- S&#45;2195&#45;&gt;S&#45;2270 -->
<g id="edge54" class="edge">
<title>S&#45;2195&#45;&gt;S&#45;2270</title>
<path fill="none" stroke="#4d4d4d" d="M792,-504.58C792,-504.58 792,-454.03 792,-454.03"/>
<polygon fill="#4d4d4d" stroke="#4d4d4d" points="794.45,-454.03 792,-447.03 789.55,-454.03 794.45,-454.03"/>
</g>
<!-- S&#45;2351 -->
<g id="node11" class="node">
<title>S&#45;2351</title>
<polygon fill="mediumseagreen" stroke="black" points="1782,-447 1710,-425.5 1782,-404 1854,-425.5 1782,-447"/>
<text text-anchor="middle" x="1782" y="-423" font-family="Arial" font-size="10.00">S&#45;2351</text>
</g>
<!-- S&#45;887 -->
<g id="node24" class="node">
<title>S&#45;887</title>
<polygon fill="mediumseagreen" stroke="black" points="1782,-346 1710,-324.5 1782,-303 1854,-324.5 1782,-346"/>
<text text-anchor="middle" x="1782" y="-322" font-family="Arial" font-size="10.00">S&#45;887</text>
</g>
<!-- S&#45;2351&#45;&gt;S&#45;887 -->
<g id="edge41" class="edge">
<title>S&#45;2351&#45;&gt;S&#45;887</title>
<path fill="none" stroke="#4d4d4d" d="M1782,-403.58C1782,-403.58 1782,-353.03 1782,-353.03"/>
<polygon fill="#4d4d4d" stroke="#4d4d4d" points="1784.45,-353.03 1782,-346.03 1779.55,-353.03 1784.45,-353.03"/>
</g>
<!-- S&#45;884 -->
<g id="node13" class="node">
<title>S&#45;884</title>
<polygon fill="tomato" stroke="black" points="2031,-1053 1959,-1031.5 2031,-1010 2103,-1031.5 2031,-1053"/>
<text text-anchor="middle" x="2031" y="-1029" font-family="Arial" font-size="10.00">S&#45;884</text>
</g>
<!-- ext_circ_112_23_ -->
<g id="node60" class="node">
<title>ext_circ_112_23_</title>
<polygon fill="lightpink" stroke="darkorange" stroke-dasharray="5,2" points="2034,-447 1890,-447 1890,-404 2034,-404 2034,-447"/>
<text text-anchor="middle" x="1962" y="-428.5" font-family="Arial" font-size="10.00">Circuito:</text>
<text text-anchor="middle" x="1962" y="-417.5" font-family="Arial" font-size="10.00">112&#45;23&#45;</text>
</g>
<!-- S&#45;884&#45;&gt;ext_circ_112_23_ -->
<g id="edge62" class="edge">
<title>S&#45;884&#45;&gt;ext_circ_112_23_</title>
<path fill="none" stroke="darkorange" stroke-dasharray="5,2" d="M2052,-1016.2C2052,-922.04 2052,-425 2052,-425 2052,-425 2041.22,-425 2041.22,-425"/>
<polygon fill="darkorange" stroke="darkorange" points="2041.22,-422.55 2034.22,-425 2041.22,-427.45 2041.22,-422.55"/>
</g>
<!-- S&#45;178 -->
<g id="node14" class="node">
<title>S&#45;178</title>
<polygon fill="mediumseagreen" stroke="black" points="2727,-245 2655,-223.5 2727,-202 2799,-223.5 2727,-245"/>
<text text-anchor="middle" x="2727" y="-221" font-family="Arial" font-size="10.00">S&#45;178</text>
</g>
<!-- S&#45;2437 -->
<g id="node15" class="node">
<title>S&#45;2437</title>
<polygon fill="mediumseagreen" stroke="black" points="2457,-346 2385,-324.5 2457,-303 2529,-324.5 2457,-346"/>
<text text-anchor="middle" x="2457" y="-322" font-family="Arial" font-size="10.00">S&#45;2437</text>
</g>
<!-- S&#45;179 -->
<g id="node16" class="node">
<title>S&#45;179</title>
<polygon fill="mediumseagreen" stroke="black" points="2907,-245 2835,-223.5 2907,-202 2979,-223.5 2907,-245"/>
<text text-anchor="middle" x="2907" y="-221" font-family="Arial" font-size="10.00">S&#45;179</text>
</g>
<!-- C&#45;0053&#45;&gt;S&#45;884 -->
<g id="edge47" class="edge">
<title>C&#45;0053&#45;&gt;S&#45;884</title>
<path fill="none" stroke="#4d4d4d" d="M1623.5,-1316.42C1623.5,-1251.09 1623.5,-1031 1623.5,-1031 1623.5,-1031 1953.48,-1031 1953.48,-1031"/>
<polygon fill="#4d4d4d" stroke="#4d4d4d" points="1953.48,-1033.45 1960.48,-1031 1953.48,-1028.55 1953.48,-1033.45"/>
</g>
<!-- C&#45;1248 -->
<g id="node27" class="node">
<title>C&#45;1248</title>
<ellipse fill="mediumseagreen" stroke="black" cx="1520" cy="-1233.5" rx="72" ry="21.5"/>
<text text-anchor="middle" x="1520" y="-1231" font-family="Arial" font-size="10.00">C&#45;1248</text>
</g>
<!-- C&#45;0053&#45;&gt;C&#45;1248 -->
<g id="edge27" class="edge">
<title>C&#45;0053&#45;&gt;C&#45;1248</title>
<path fill="none" stroke="#4d4d4d" d="M1551.5,-1315.03C1551.5,-1315.03 1551.5,-1259.91 1551.5,-1259.91"/>
<polygon fill="#4d4d4d" stroke="#4d4d4d" points="1553.95,-1259.91 1551.5,-1252.91 1549.05,-1259.91 1553.95,-1259.91"/>
</g>
<!-- S&#45;1645 -->
<g id="node18" class="node">
<title>S&#45;1645</title>
<polygon fill="mediumseagreen" stroke="black" points="2187,-43 2115,-21.5 2187,0 2259,-21.5 2187,-43"/>
<text text-anchor="middle" x="2187" y="-19" font-family="Arial" font-size="10.00">S&#45;1645</text>
</g>
<!-- C&#45;0874 -->
<g id="node19" class="node">
<title>C&#45;0874</title>
<ellipse fill="mediumseagreen" stroke="black" cx="1827" cy="-122.5" rx="72" ry="21.5"/>
<text text-anchor="middle" x="1827" y="-120" font-family="Arial" font-size="10.00">C&#45;0874</text>
</g>
<!-- C&#45;0416 -->
<g id="node20" class="node">
<title>C&#45;0416</title>
<ellipse fill="mediumseagreen" stroke="black" cx="2322" cy="-425.5" rx="72" ry="21.5"/>
<text text-anchor="middle" x="2322" y="-423" font-family="Arial" font-size="10.00">C&#45;0416</text>
</g>
<!-- R&#45;141 -->
<g id="node58" class="node">
<title>R&#45;141</title>
<polygon fill="mediumseagreen" stroke="black" points="2349,-315.59 2349,-333.41 2306.82,-346 2247.18,-346 2205,-333.41 2205,-315.59 2247.18,-303 2306.82,-303 2349,-315.59"/>
<text text-anchor="middle" x="2277" y="-322" font-family="Arial" font-size="10.00">R&#45;141</text>
</g>
<!-- C&#45;0416&#45;&gt;R&#45;141 -->
<g id="edge3" class="edge">
<title>C&#45;0416&#45;&gt;R&#45;141</title>
<path fill="none" stroke="#4d4d4d" d="M2299.5,-405.06C2299.5,-405.06 2299.5,-353.31 2299.5,-353.31"/>
<polygon fill="#4d4d4d" stroke="#4d4d4d" points="2301.95,-353.31 2299.5,-346.31 2297.05,-353.31 2301.95,-353.31"/>
</g>
<!-- S&#45;2552 -->
<g id="node21" class="node">
<title>S&#45;2552</title>
<polygon fill="mediumseagreen" stroke="black" points="882,-851 810,-829.5 882,-808 954,-829.5 882,-851"/>
<text text-anchor="middle" x="882" y="-827" font-family="Arial" font-size="10.00">S&#45;2552</text>
</g>
<!-- S&#45;2257 -->
<g id="node22" class="node">
<title>S&#45;2257</title>
<polygon fill="mediumseagreen" stroke="black" points="1602,-245 1530,-223.5 1602,-202 1674,-223.5 1602,-245"/>
<text text-anchor="middle" x="1602" y="-221" font-family="Arial" font-size="10.00">S&#45;2257</text>
</g>
<!-- S&#45;2553 -->
<g id="node23" class="node">
<title>S&#45;2553</title>
<polygon fill="mediumseagreen" stroke="black" points="1962,-851 1890,-829.5 1962,-808 2034,-829.5 1962,-851"/>
<text text-anchor="middle" x="1962" y="-827" font-family="Arial" font-size="10.00">S&#45;2553</text>
</g>
<!-- S&#45;2553&#45;&gt;C&#45;0471 -->
<g id="edge37" class="edge">
<title>S&#45;2553&#45;&gt;C&#45;0471</title>
<path fill="none" stroke="#4d4d4d" d="M1962,-807.58C1962,-807.58 1962,-757.03 1962,-757.03"/>
<polygon fill="#4d4d4d" stroke="#4d4d4d" points="1964.45,-757.03 1962,-750.03 1959.55,-757.03 1964.45,-757.03"/>
</g>
<!-- S&#45;887&#45;&gt;S&#45;2257 -->
<g id="edge25" class="edge">
<title>S&#45;887&#45;&gt;S&#45;2257</title>
<path fill="none" stroke="#4d4d4d" d="M1711.63,-324C1661.15,-324 1602,-324 1602,-324 1602,-324 1602,-252.31 1602,-252.31"/>
<polygon fill="#4d4d4d" stroke="#4d4d4d" points="1604.45,-252.31 1602,-245.31 1599.55,-252.31 1604.45,-252.31"/>
</g>
<!-- S&#45;2364 -->
<g id="node42" class="node">
<title>S&#45;2364</title>
<polygon fill="mediumseagreen" stroke="black" points="1782,-245 1710,-223.5 1782,-202 1854,-223.5 1782,-245"/>
<text text-anchor="middle" x="1782" y="-221" font-family="Arial" font-size="10.00">S&#45;2364</text>
</g>
<!-- S&#45;887&#45;&gt;S&#45;2364 -->
<g id="edge24" class="edge">
<title>S&#45;887&#45;&gt;S&#45;2364</title>
<path fill="none" stroke="#4d4d4d" d="M1782,-302.58C1782,-302.58 1782,-252.03 1782,-252.03"/>
<polygon fill="#4d4d4d" stroke="#4d4d4d" points="1784.45,-252.03 1782,-245.03 1779.55,-252.03 1784.45,-252.03"/>
</g>
<!-- S&#45;2297 -->
<g id="node53" class="node">
<title>S&#45;2297</title>
<polygon fill="mediumseagreen" stroke="black" points="1962,-245 1890,-223.5 1962,-202 2034,-223.5 1962,-245"/>
<text text-anchor="middle" x="1962" y="-221" font-family="Arial" font-size="10.00">S&#45;2297</text>
</g>
<!-- S&#45;887&#45;&gt;S&#45;2297 -->
<g id="edge42" class="edge">
<title>S&#45;887&#45;&gt;S&#45;2297</title>
<path fill="none" stroke="#4d4d4d" d="M1852.37,-324C1902.85,-324 1962,-324 1962,-324 1962,-324 1962,-252.31 1962,-252.31"/>
<polygon fill="#4d4d4d" stroke="#4d4d4d" points="1964.45,-252.31 1962,-245.31 1959.55,-252.31 1964.45,-252.31"/>
</g>
<!-- S&#45;1689&#45;&gt;S&#45;2252 -->
<g id="edge51" class="edge">
<title>S&#45;1689&#45;&gt;S&#45;2252</title>
<path fill="none" stroke="#4d4d4d" d="M271.41,-728C191.41,-728 72,-728 72,-728 72,-728 72,-656.31 72,-656.31"/>
<polygon fill="#4d4d4d" stroke="#4d4d4d" points="74.45,-656.31 72,-649.31 69.55,-656.31 74.45,-656.31"/>
</g>
<!-- S&#45;1201 -->
<g id="node31" class="node">
<title>S&#45;1201</title>
<polygon fill="mediumseagreen" stroke="black" points="252,-649 180,-627.5 252,-606 324,-627.5 252,-649"/>
<text text-anchor="middle" x="252" y="-625" font-family="Arial" font-size="10.00">S&#45;1201</text>
</g>
<!-- S&#45;1689&#45;&gt;S&#45;1201 -->
<g id="edge45" class="edge">
<title>S&#45;1689&#45;&gt;S&#45;1201</title>
<path fill="none" stroke="#4d4d4d" d="M297,-720.23C297,-720.23 297,-642.6 297,-642.6"/>
<polygon fill="#4d4d4d" stroke="#4d4d4d" points="299.45,-642.6 297,-635.6 294.55,-642.6 299.45,-642.6"/>
</g>
<!-- C&#45;0831 -->
<g id="node32" class="node">
<title>C&#45;0831</title>
<ellipse fill="mediumseagreen" stroke="black" cx="432" cy="-627.5" rx="72" ry="21.5"/>
<text text-anchor="middle" x="432" y="-625" font-family="Arial" font-size="10.00">C&#45;0831</text>
</g>
<!-- S&#45;1689&#45;&gt;C&#45;0831 -->
<g id="edge53" class="edge">
<title>S&#45;1689&#45;&gt;C&#45;0831</title>
<path fill="none" stroke="#4d4d4d" d="M387,-720.23C387,-720.23 387,-651.52 387,-651.52"/>
<polygon fill="#4d4d4d" stroke="#4d4d4d" points="389.45,-651.52 387,-644.52 384.55,-651.52 389.45,-651.52"/>
</g>
<!-- C&#45;0918 -->
<g id="node40" class="node">
<title>C&#45;0918</title>
<ellipse fill="tomato" stroke="black" cx="1340" cy="-1132.5" rx="72" ry="21.5"/>
<text text-anchor="middle" x="1340" y="-1130" font-family="Arial" font-size="10.00">C&#45;0918</text>
</g>
<!-- C&#45;1248&#45;&gt;C&#45;0918 -->
<g id="edge28" class="edge">
<title>C&#45;1248&#45;&gt;C&#45;0918</title>
<path fill="none" stroke="#4d4d4d" d="M1447.82,-1233C1397.75,-1233 1340,-1233 1340,-1233 1340,-1233 1340,-1161.31 1340,-1161.31"/>
<polygon fill="#4d4d4d" stroke="#4d4d4d" points="1342.45,-1161.31 1340,-1154.31 1337.55,-1161.31 1342.45,-1161.31"/>
</g>
<!-- C&#45;0917 -->
<g id="node47" class="node">
<title>C&#45;0917</title>
<ellipse fill="mediumseagreen" stroke="black" cx="1520" cy="-1132.5" rx="72" ry="21.5"/>
<text text-anchor="middle" x="1520" y="-1130" font-family="Arial" font-size="10.00">C&#45;0917</text>
</g>
<!-- C&#45;1248&#45;&gt;C&#45;0917 -->
<g id="edge29" class="edge">
<title>C&#45;1248&#45;&gt;C&#45;0917</title>
<path fill="none" stroke="#4d4d4d" d="M1520,-1211.58C1520,-1211.58 1520,-1161.03 1520,-1161.03"/>
<polygon fill="#4d4d4d" stroke="#4d4d4d" points="1522.45,-1161.03 1520,-1154.03 1517.55,-1161.03 1522.45,-1161.03"/>
</g>
<!-- S&#45;2400 -->
<g id="node28" class="node">
<title>S&#45;2400</title>
<polygon fill="mediumseagreen" stroke="black" points="2007,-144 1935,-122.5 2007,-101 2079,-122.5 2007,-144"/>
<text text-anchor="middle" x="2007" y="-120" font-family="Arial" font-size="10.00">S&#45;2400</text>
</g>
<!-- S&#45;010 -->
<g id="node29" class="node">
<title>S&#45;010</title>
<polygon fill="mediumseagreen" stroke="black" points="612,-548 540,-526.5 612,-505 684,-526.5 612,-548"/>
<text text-anchor="middle" x="612" y="-524" font-family="Arial" font-size="10.00">S&#45;010</text>
</g>
<!-- S&#45;2401 -->
<g id="node30" class="node">
<title>S&#45;2401</title>
<polygon fill="tomato" stroke="black" points="1962,-548 1890,-526.5 1962,-505 2034,-526.5 1962,-548"/>
<text text-anchor="middle" x="1962" y="-524" font-family="Arial" font-size="10.00">S&#45;2401</text>
</g>
<!-- S&#45;2401&#45;&gt;ext_circ_112_23_ -->
<g id="edge60" class="edge">
<title>S&#45;2401&#45;&gt;ext_circ_112_23_</title>
<path fill="none" stroke="darkorange" stroke-dasharray="5,2" d="M1962,-504.58C1962,-504.58 1962,-454.03 1962,-454.03"/>
<polygon fill="darkorange" stroke="darkorange" points="1964.45,-454.03 1962,-447.03 1959.55,-454.03 1964.45,-454.03"/>
</g>
<!-- S&#45;1201&#45;&gt;S&#45;1514 -->
<g id="edge46" class="edge">
<title>S&#45;1201&#45;&gt;S&#45;1514</title>
<path fill="none" stroke="#4d4d4d" d="M181.53,-627C170.14,-627 162,-627 162,-627 162,-627 162,-526 162,-526 162,-526 149.47,-526 149.47,-526"/>
<polygon fill="#4d4d4d" stroke="#4d4d4d" points="149.47,-523.55 142.47,-526 149.47,-528.45 149.47,-523.55"/>
</g>
<!-- S&#45;1201&#45;&gt;S&#45;1796 -->
<g id="edge49" class="edge">
<title>S&#45;1201&#45;&gt;S&#45;1796</title>
<path fill="none" stroke="#4d4d4d" d="M252,-605.58C252,-605.58 252,-555.03 252,-555.03"/>
<polygon fill="#4d4d4d" stroke="#4d4d4d" points="254.45,-555.03 252,-548.03 249.55,-555.03 254.45,-555.03"/>
</g>
<!-- S&#45;2402 -->
<g id="node55" class="node">
<title>S&#45;2402</title>
<polygon fill="mediumseagreen" stroke="black" points="432,-548 360,-526.5 432,-505 504,-526.5 432,-548"/>
<text text-anchor="middle" x="432" y="-524" font-family="Arial" font-size="10.00">S&#45;2402</text>
</g>
<!-- S&#45;1201&#45;&gt;S&#45;2402 -->
<g id="edge56" class="edge">
<title>S&#45;1201&#45;&gt;S&#45;2402</title>
<path fill="none" stroke="#4d4d4d" d="M322.47,-627C333.86,-627 342,-627 342,-627 342,-627 342,-526 342,-526 342,-526 354.53,-526 354.53,-526"/>
<polygon fill="#4d4d4d" stroke="#4d4d4d" points="354.53,-528.45 361.53,-526 354.53,-523.55 354.53,-528.45"/>
</g>
<!-- S&#45;224 -->
<g id="node33" class="node">
<title>S&#45;224</title>
<polygon fill="mediumseagreen" stroke="black" points="2187,-144 2115,-122.5 2187,-101 2259,-122.5 2187,-144"/>
<text text-anchor="middle" x="2187" y="-120" font-family="Arial" font-size="10.00">S&#45;224</text>
</g>
<!-- S&#45;224&#45;&gt;S&#45;1645 -->
<g id="edge7" class="edge">
<title>S&#45;224&#45;&gt;S&#45;1645</title>
<path fill="none" stroke="#4d4d4d" d="M2187,-100.58C2187,-100.58 2187,-50.03 2187,-50.03"/>
<polygon fill="#4d4d4d" stroke="#4d4d4d" points="2189.45,-50.03 2187,-43.03 2184.55,-50.03 2189.45,-50.03"/>
</g>
<!-- C&#45;0873 -->
<g id="node34" class="node">
<title>C&#45;0873</title>
<ellipse fill="tomato" stroke="black" cx="2367" cy="-122.5" rx="72" ry="21.5"/>
<text text-anchor="middle" x="2367" y="-120" font-family="Arial" font-size="10.00">C&#45;0873</text>
</g>
<!-- ext_circ_208_28_ -->
<g id="node59" class="node">
<title>ext_circ_208_28_</title>
<polygon fill="lightpink" stroke="darkorange" stroke-dasharray="5,2" points="2439,-43 2295,-43 2295,0 2439,0 2439,-43"/>
<text text-anchor="middle" x="2367" y="-24.5" font-family="Arial" font-size="10.00">Circuito:</text>
<text text-anchor="middle" x="2367" y="-13.5" font-family="Arial" font-size="10.00">208&#45;28&#45;</text>
</g>
<!-- C&#45;0873&#45;&gt;ext_circ_208_28_ -->
<g id="edge59" class="edge">
<title>C&#45;0873&#45;&gt;ext_circ_208_28_</title>
<path fill="none" stroke="darkorange" stroke-dasharray="5,2" d="M2367,-100.58C2367,-100.58 2367,-50.03 2367,-50.03"/>
<polygon fill="darkorange" stroke="darkorange" points="2369.45,-50.03 2367,-43.03 2364.55,-50.03 2369.45,-50.03"/>
</g>
<!-- C&#45;0261 -->
<g id="node35" class="node">
<title>C&#45;0261</title>
<ellipse fill="tomato" stroke="black" cx="2142" cy="-425.5" rx="72" ry="21.5"/>
<text text-anchor="middle" x="2142" y="-423" font-family="Arial" font-size="10.00">C&#45;0261</text>
</g>
<!-- C&#45;0417 -->
<g id="node46" class="node">
<title>C&#45;0417</title>
<ellipse fill="mediumseagreen" stroke="black" cx="2277" cy="-223.5" rx="72" ry="21.5"/>
<text text-anchor="middle" x="2277" y="-221" font-family="Arial" font-size="10.00">C&#45;0417</text>
</g>
<!-- C&#45;0261&#45;&gt;C&#45;0417 -->
<g id="edge58" class="edge">
<title>C&#45;0261&#45;&gt;C&#45;0417</title>
<path fill="none" stroke="blue" stroke-dasharray="5,2" d="M2160,-404.65C2160,-351.66 2160,-216 2160,-216 2160,-216 2202.28,-216 2202.28,-216"/>
<polygon fill="blue" stroke="blue" points="2202.28,-218.45 2209.28,-216 2202.28,-213.55 2202.28,-218.45"/>
</g>
<!-- S&#45;009 -->
<g id="node57" class="node">
<title>S&#45;009</title>
<polygon fill="mediumseagreen" stroke="black" points="612,-649 540,-627.5 612,-606 684,-627.5 612,-649"/>
<text text-anchor="middle" x="612" y="-625" font-family="Arial" font-size="10.00">S&#45;009</text>
</g>
<!-- S&#45;1198&#45;&gt;S&#45;009 -->
<g id="edge43" class="edge">
<title>S&#45;1198&#45;&gt;S&#45;009</title>
<path fill="none" stroke="#4d4d4d" d="M589.5,-713.6C589.5,-713.6 589.5,-649.46 589.5,-649.46"/>
<polygon fill="#4d4d4d" stroke="#4d4d4d" points="591.95,-649.46 589.5,-642.46 587.05,-649.46 591.95,-649.46"/>
</g>
<!-- C&#45;0477 -->
<g id="node37" class="node">
<title>C&#45;0477</title>
<ellipse fill="mediumseagreen" stroke="black" cx="2269" cy="-526.5" rx="72" ry="21.5"/>
<text text-anchor="middle" x="2269" y="-524" font-family="Arial" font-size="10.00">C&#45;0477</text>
</g>
<!-- C&#45;0477&#45;&gt;C&#45;0416 -->
<g id="edge23" class="edge">
<title>C&#45;0477&#45;&gt;C&#45;0416</title>
<path fill="none" stroke="#4d4d4d" d="M2295.5,-506.06C2295.5,-506.06 2295.5,-452.56 2295.5,-452.56"/>
<polygon fill="#4d4d4d" stroke="#4d4d4d" points="2297.95,-452.56 2295.5,-445.56 2293.05,-452.56 2297.95,-452.56"/>
</g>
<!-- C&#45;0477&#45;&gt;C&#45;0261 -->
<g id="edge2" class="edge">
<title>C&#45;0477&#45;&gt;C&#45;0261</title>
<path fill="none" stroke="#4d4d4d" d="M2205.5,-516.07C2205.5,-516.07 2205.5,-442.72 2205.5,-442.72"/>
<polygon fill="#4d4d4d" stroke="#4d4d4d" points="2207.95,-442.72 2205.5,-435.72 2203.05,-442.72 2207.95,-442.72"/>
</g>
<!-- C&#45;0478 -->
<g id="node45" class="node">
<title>C&#45;0478</title>
<ellipse fill="mediumseagreen" stroke="black" cx="2547" cy="-425.5" rx="72" ry="21.5"/>
<text text-anchor="middle" x="2547" y="-423" font-family="Arial" font-size="10.00">C&#45;0478</text>
</g>
<!-- C&#45;0477&#45;&gt;C&#45;0478 -->
<g id="edge12" class="edge">
<title>C&#45;0477&#45;&gt;C&#45;0478</title>
<path fill="none" stroke="#4d4d4d" d="M2341.32,-526C2423.69,-526 2547,-526 2547,-526 2547,-526 2547,-454.31 2547,-454.31"/>
<polygon fill="#4d4d4d" stroke="#4d4d4d" points="2549.45,-454.31 2547,-447.31 2544.55,-454.31 2549.45,-454.31"/>
</g>
<!-- S&#45;2547 -->
<g id="node38" class="node">
<title>S&#45;2547</title>
<polygon fill="mediumseagreen" stroke="black" points="1242,-851 1170,-829.5 1242,-808 1314,-829.5 1242,-851"/>
<text text-anchor="middle" x="1242" y="-827" font-family="Arial" font-size="10.00">S&#45;2547</text>
</g>
<!-- C&#45;0918&#45;&gt;C&#45;0919 -->
<g id="edge61" class="edge">
<title>C&#45;0918&#45;&gt;C&#45;0919</title>
<path fill="none" stroke="blue" stroke-dasharray="5,2" d="M1293.5,-1115.97C1293.5,-1115.97 1293.5,-955.71 1293.5,-955.71"/>
<polygon fill="blue" stroke="blue" points="1295.95,-955.71 1293.5,-948.71 1291.05,-955.71 1295.95,-955.71"/>
</g>
<!-- S&#45;2549 -->
<g id="node41" class="node">
<title>S&#45;2549</title>
<polygon fill="mediumseagreen" stroke="black" points="1422,-851 1350,-829.5 1422,-808 1494,-829.5 1422,-851"/>
<text text-anchor="middle" x="1422" y="-827" font-family="Arial" font-size="10.00">S&#45;2549</text>
</g>
<!-- S&#45;1936 -->
<g id="node43" class="node">
<title>S&#45;1936</title>
<polygon fill="mediumseagreen" stroke="black" points="2547,-144 2475,-122.5 2547,-101 2619,-122.5 2547,-144"/>
<text text-anchor="middle" x="2547" y="-120" font-family="Arial" font-size="10.00">S&#45;1936</text>
</g>
<!-- S&#45;2434 -->
<g id="node44" class="node">
<title>S&#45;2434</title>
<polygon fill="mediumseagreen" stroke="black" points="1602,-851 1530,-829.5 1602,-808 1674,-829.5 1602,-851"/>
<text text-anchor="middle" x="1602" y="-827" font-family="Arial" font-size="10.00">S&#45;2434</text>
</g>
<!-- C&#45;0478&#45;&gt;S&#45;2437 -->
<g id="edge17" class="edge">
<title>C&#45;0478&#45;&gt;S&#45;2437</title>
<path fill="none" stroke="#4d4d4d" d="M2502,-408.37C2502,-408.37 2502,-339.78 2502,-339.78"/>
<polygon fill="#4d4d4d" stroke="#4d4d4d" points="2504.45,-339.78 2502,-332.78 2499.55,-339.78 2504.45,-339.78"/>
</g>
<!-- S&#45;2436 -->
<g id="node48" class="node">
<title>S&#45;2436</title>
<polygon fill="mediumseagreen" stroke="black" points="2637,-346 2565,-324.5 2637,-303 2709,-324.5 2637,-346"/>
<text text-anchor="middle" x="2637" y="-322" font-family="Arial" font-size="10.00">S&#45;2436</text>
</g>
<!-- C&#45;0478&#45;&gt;S&#45;2436 -->
<g id="edge16" class="edge">
<title>C&#45;0478&#45;&gt;S&#45;2436</title>
<path fill="none" stroke="#4d4d4d" d="M2592,-408.37C2592,-408.37 2592,-339.78 2592,-339.78"/>
<polygon fill="#4d4d4d" stroke="#4d4d4d" points="2594.45,-339.78 2592,-332.78 2589.55,-339.78 2594.45,-339.78"/>
</g>
<!-- S&#45;1096 -->
<g id="node52" class="node">
<title>S&#45;1096</title>
<polygon fill="mediumseagreen" stroke="black" points="2817,-346 2745,-324.5 2817,-303 2889,-324.5 2817,-346"/>
<text text-anchor="middle" x="2817" y="-322" font-family="Arial" font-size="10.00">S&#45;1096</text>
</g>
<!-- C&#45;0478&#45;&gt;S&#45;1096 -->
<g id="edge13" class="edge">
<title>C&#45;0478&#45;&gt;S&#45;1096</title>
<path fill="none" stroke="#4d4d4d" d="M2619,-425C2698.98,-425 2817,-425 2817,-425 2817,-425 2817,-353.31 2817,-353.31"/>
<polygon fill="#4d4d4d" stroke="#4d4d4d" points="2819.45,-353.31 2817,-346.31 2814.55,-353.31 2819.45,-353.31"/>
</g>
<!-- C&#45;0417&#45;&gt;C&#45;0874 -->
<g id="edge11" class="edge">
<title>C&#45;0417&#45;&gt;C&#45;0874</title>
<path fill="none" stroke="#4d4d4d" d="M2223,-209.16C2223,-194.23 2223,-173 2223,-173 2223,-173 1894.5,-173 1894.5,-173 1894.5,-173 1894.5,-137.39 1894.5,-137.39"/>
<polygon fill="#4d4d4d" stroke="#4d4d4d" points="1896.95,-137.39 1894.5,-130.39 1892.05,-137.39 1896.95,-137.39"/>
</g>
<!-- C&#45;0417&#45;&gt;S&#45;2400 -->
<g id="edge5" class="edge">
<title>C&#45;0417&#45;&gt;S&#45;2400</title>
<path fill="none" stroke="#4d4d4d" d="M2208.16,-230C2149.46,-230 2074.5,-230 2074.5,-230 2074.5,-230 2074.5,-131.02 2074.5,-131.02"/>
<polygon fill="#4d4d4d" stroke="#4d4d4d" points="2076.95,-131.02 2074.5,-124.02 2072.05,-131.02 2076.95,-131.02"/>
</g>
<!-- C&#45;0417&#45;&gt;S&#45;224 -->
<g id="edge6" class="edge">
<title>C&#45;0417&#45;&gt;S&#45;224</title>
<path fill="none" stroke="#4d4d4d" d="M2241,-204.5C2241,-204.5 2241,-134.97 2241,-134.97"/>
<polygon fill="#4d4d4d" stroke="#4d4d4d" points="2243.45,-134.97 2241,-127.97 2238.55,-134.97 2243.45,-134.97"/>
</g>
<!-- C&#45;0417&#45;&gt;C&#45;0873 -->
<g id="edge10" class="edge">
<title>C&#45;0417&#45;&gt;C&#45;0873</title>
<path fill="none" stroke="#4d4d4d" d="M2322,-206.37C2322,-206.37 2322,-146.38 2322,-146.38"/>
<polygon fill="#4d4d4d" stroke="#4d4d4d" points="2324.45,-146.38 2322,-139.38 2319.55,-146.38 2324.45,-146.38"/>
</g>
<!-- C&#45;0417&#45;&gt;S&#45;1936 -->
<g id="edge9" class="edge">
<title>C&#45;0417&#45;&gt;S&#45;1936</title>
<path fill="none" stroke="#4d4d4d" d="M2344.51,-216C2410.78,-216 2502,-216 2502,-216 2502,-216 2502,-137.8 2502,-137.8"/>
<polygon fill="#4d4d4d" stroke="#4d4d4d" points="2504.45,-137.8 2502,-130.8 2499.55,-137.8 2504.45,-137.8"/>
</g>
<!-- S&#45;2406 -->
<g id="node49" class="node">
<title>S&#45;2406</title>
<polygon fill="mediumseagreen" stroke="black" points="2727,-144 2655,-122.5 2727,-101 2799,-122.5 2727,-144"/>
<text text-anchor="middle" x="2727" y="-120" font-family="Arial" font-size="10.00">S&#45;2406</text>
</g>
<!-- C&#45;0417&#45;&gt;S&#45;2406 -->
<g id="edge8" class="edge">
<title>C&#45;0417&#45;&gt;S&#45;2406</title>
<path fill="none" stroke="#4d4d4d" d="M2345.99,-230C2450.52,-230 2637,-230 2637,-230 2637,-230 2637,-122 2637,-122 2637,-122 2649.53,-122 2649.53,-122"/>
<polygon fill="#4d4d4d" stroke="#4d4d4d" points="2649.53,-124.45 2656.53,-122 2649.53,-119.55 2649.53,-124.45"/>
</g>
<!-- C&#45;0917&#45;&gt;R&#45;215 -->
<g id="edge30" class="edge">
<title>C&#45;0917&#45;&gt;R&#45;215</title>
<path fill="none" stroke="#4d4d4d" d="M1455.5,-1122.82C1455.5,-1122.82 1455.5,-1049.84 1455.5,-1049.84"/>
<polygon fill="#4d4d4d" stroke="#4d4d4d" points="1457.95,-1049.84 1455.5,-1042.84 1453.05,-1049.84 1457.95,-1049.84"/>
</g>
<!-- C&#45;0919&#45;&gt;S&#45;2435 -->
<g id="edge35" class="edge">
<title>C&#45;0919&#45;&gt;S&#45;2435</title>
<path fill="none" stroke="#4d4d4d" d="M1275.73,-917C1196.6,-917 1062,-917 1062,-917 1062,-917 1062,-858.13 1062,-858.13"/>
<polygon fill="#4d4d4d" stroke="#4d4d4d" points="1064.45,-858.13 1062,-851.13 1059.55,-858.13 1064.45,-858.13"/>
</g>
<!-- C&#45;0919&#45;&gt;R&#45;028 -->
<g id="edge22" class="edge">
<title>C&#45;0919&#45;&gt;R&#45;028</title>
<path fill="none" stroke="#4d4d4d" d="M1273.09,-943C1086.7,-943 522,-943 522,-943 522,-943 522,-858.12 522,-858.12"/>
<polygon fill="#4d4d4d" stroke="#4d4d4d" points="524.45,-858.12 522,-851.12 519.55,-858.12 524.45,-858.12"/>
</g>
<!-- C&#45;0919&#45;&gt;S&#45;2131 -->
<g id="edge21" class="edge">
<title>C&#45;0919&#45;&gt;S&#45;2131</title>
<path fill="none" stroke="#4d4d4d" d="M1260.96,-934C1096.19,-934 702,-934 702,-934 702,-934 702,-858.15 702,-858.15"/>
<polygon fill="#4d4d4d" stroke="#4d4d4d" points="704.45,-858.15 702,-851.15 699.55,-858.15 704.45,-858.15"/>
</g>
<!-- C&#45;0919&#45;&gt;S&#45;2552 -->
<g id="edge19" class="edge">
<title>C&#45;0919&#45;&gt;S&#45;2552</title>
<path fill="none" stroke="#4d4d4d" d="M1261.19,-926C1134.47,-926 882,-926 882,-926 882,-926 882,-858.4 882,-858.4"/>
<polygon fill="#4d4d4d" stroke="#4d4d4d" points="884.45,-858.4 882,-851.4 879.55,-858.4 884.45,-858.4"/>
</g>
<!-- C&#45;0919&#45;&gt;S&#45;2553 -->
<g id="edge36" class="edge">
<title>C&#45;0919&#45;&gt;S&#45;2553</title>
<path fill="none" stroke="#4d4d4d" d="M1394.85,-941C1547.33,-941 1924.5,-941 1924.5,-941 1924.5,-941 1924.5,-847.19 1924.5,-847.19"/>
<polygon fill="#4d4d4d" stroke="#4d4d4d" points="1926.95,-847.19 1924.5,-840.19 1922.05,-847.19 1926.95,-847.19"/>
</g>
<!-- C&#45;0919&#45;&gt;S&#45;2547 -->
<g id="edge32" class="edge">
<title>C&#45;0919&#45;&gt;S&#45;2547</title>
<path fill="none" stroke="#4d4d4d" d="M1287,-913.37C1287,-913.37 1287,-844.78 1287,-844.78"/>
<polygon fill="#4d4d4d" stroke="#4d4d4d" points="1289.45,-844.78 1287,-837.78 1284.55,-844.78 1289.45,-844.78"/>
</g>
<!-- C&#45;0919&#45;&gt;S&#45;2549 -->
<g id="edge33" class="edge">
<title>C&#45;0919&#45;&gt;S&#45;2549</title>
<path fill="none" stroke="#4d4d4d" d="M1377,-913.37C1377,-913.37 1377,-844.78 1377,-844.78"/>
<polygon fill="#4d4d4d" stroke="#4d4d4d" points="1379.45,-844.78 1377,-837.78 1374.55,-844.78 1379.45,-844.78"/>
</g>
<!-- C&#45;0919&#45;&gt;S&#45;2434 -->
<g id="edge34" class="edge">
<title>C&#45;0919&#45;&gt;S&#45;2434</title>
<path fill="none" stroke="#4d4d4d" d="M1393.07,-919C1460.9,-919 1561,-919 1561,-919 1561,-919 1561,-846.08 1561,-846.08"/>
<polygon fill="#4d4d4d" stroke="#4d4d4d" points="1563.45,-846.08 1561,-839.08 1558.55,-846.08 1563.45,-846.08"/>
</g>
<!-- S&#45;2548 -->
<g id="node54" class="node">
<title>S&#45;2548</title>
<polygon fill="mediumseagreen" stroke="black" points="1782,-851 1710,-829.5 1782,-808 1854,-829.5 1782,-851"/>
<text text-anchor="middle" x="1782" y="-827" font-family="Arial" font-size="10.00">S&#45;2548</text>
</g>
<!-- C&#45;0919&#45;&gt;S&#45;2548 -->
<g id="edge20" class="edge">
<title>C&#45;0919&#45;&gt;S&#45;2548</title>
<path fill="none" stroke="#4d4d4d" d="M1404.3,-930C1531.5,-930 1782,-930 1782,-930 1782,-930 1782,-858.31 1782,-858.31"/>
<polygon fill="#4d4d4d" stroke="#4d4d4d" points="1784.45,-858.31 1782,-851.31 1779.55,-858.31 1784.45,-858.31"/>
</g>
<!-- S&#45;2350 -->
<g id="node51" class="node">
<title>S&#45;2350</title>
<polygon fill="mediumseagreen" stroke="black" points="1782,-548 1710,-526.5 1782,-505 1854,-526.5 1782,-548"/>
<text text-anchor="middle" x="1782" y="-524" font-family="Arial" font-size="10.00">S&#45;2350</text>
</g>
<!-- S&#45;2350&#45;&gt;S&#45;2351 -->
<g id="edge40" class="edge">
<title>S&#45;2350&#45;&gt;S&#45;2351</title>
<path fill="none" stroke="#4d4d4d" d="M1782,-504.58C1782,-504.58 1782,-454.03 1782,-454.03"/>
<polygon fill="#4d4d4d" stroke="#4d4d4d" points="1784.45,-454.03 1782,-447.03 1779.55,-454.03 1784.45,-454.03"/>
</g>
<!-- S&#45;1096&#45;&gt;S&#45;178 -->
<g id="edge15" class="edge">
<title>S&#45;1096&#45;&gt;S&#45;178</title>
<path fill="none" stroke="#4d4d4d" d="M2772,-316.23C2772,-316.23 2772,-238.6 2772,-238.6"/>
<polygon fill="#4d4d4d" stroke="#4d4d4d" points="2774.45,-238.6 2772,-231.6 2769.55,-238.6 2774.45,-238.6"/>
</g>
<!-- S&#45;1096&#45;&gt;S&#45;179 -->
<g id="edge14" class="edge">
<title>S&#45;1096&#45;&gt;S&#45;179</title>
<path fill="none" stroke="#4d4d4d" d="M2862,-316.23C2862,-316.23 2862,-238.6 2862,-238.6"/>
<polygon fill="#4d4d4d" stroke="#4d4d4d" points="2864.45,-238.6 2862,-231.6 2859.55,-238.6 2864.45,-238.6"/>
</g>
<!-- C&#45;0472&#45;&gt;S&#45;2401 -->
<g id="edge18" class="edge">
<title>C&#45;0472&#45;&gt;S&#45;2401</title>
<path fill="none" stroke="#4d4d4d" d="M1962,-605.58C1962,-605.58 1962,-555.03 1962,-555.03"/>
<polygon fill="#4d4d4d" stroke="#4d4d4d" points="1964.45,-555.03 1962,-548.03 1959.55,-555.03 1964.45,-555.03"/>
</g>
<!-- C&#45;0472&#45;&gt;C&#45;0477 -->
<g id="edge1" class="edge">
<title>C&#45;0472&#45;&gt;C&#45;0477</title>
<path fill="none" stroke="#4d4d4d" d="M2034.37,-627C2125.13,-627 2269,-627 2269,-627 2269,-627 2269,-555.31 2269,-555.31"/>
<polygon fill="#4d4d4d" stroke="#4d4d4d" points="2271.45,-555.31 2269,-548.31 2266.55,-555.31 2271.45,-555.31"/>
</g>
<!-- C&#45;0472&#45;&gt;S&#45;2350 -->
<g id="edge39" class="edge">
<title>C&#45;0472&#45;&gt;S&#45;2350</title>
<path fill="none" stroke="#4d4d4d" d="M1893.18,-634C1842.36,-634 1782,-634 1782,-634 1782,-634 1782,-555.25 1782,-555.25"/>
<polygon fill="#4d4d4d" stroke="#4d4d4d" points="1784.45,-555.25 1782,-548.25 1779.55,-555.25 1784.45,-555.25"/>
</g>
<!-- S&#45;009&#45;&gt;S&#45;2195 -->
<g id="edge57" class="edge">
<title>S&#45;009&#45;&gt;S&#45;2195</title>
<path fill="none" stroke="#4d4d4d" d="M659.22,-620C698.15,-620 747,-620 747,-620 747,-620 747,-541.8 747,-541.8"/>
<polygon fill="#4d4d4d" stroke="#4d4d4d" points="749.45,-541.8 747,-534.8 744.55,-541.8 749.45,-541.8"/>
</g>
<!-- S&#45;009&#45;&gt;S&#45;010 -->
<g id="edge55" class="edge">
<title>S&#45;009&#45;&gt;S&#45;010</title>
<path fill="none" stroke="#4d4d4d" d="M612,-605.58C612,-605.58 612,-555.03 612,-555.03"/>
<polygon fill="#4d4d4d" stroke="#4d4d4d" points="614.45,-555.03 612,-548.03 609.55,-555.03 614.45,-555.03"/>
</g>
<!-- R&#45;141&#45;&gt;C&#45;0417 -->
<g id="edge4" class="edge">
<title>R&#45;141&#45;&gt;C&#45;0417</title>
<path fill="none" stroke="#4d4d4d" d="M2277,-302.58C2277,-302.58 2277,-252.03 2277,-252.03"/>
<polygon fill="#4d4d4d" stroke="#4d4d4d" points="2279.45,-252.03 2277,-245.03 2274.55,-252.03 2279.45,-252.03"/>
</g>
</g>
</svg>
