<?xml version="1.0" encoding="UTF-8" standalone="no"?>
<!DOCTYPE svg PUBLIC "-//W3C//DTD SVG 1.1//EN"
 "http://www.w3.org/Graphics/SVG/1.1/DTD/svg11.dtd">
<!-- Generated by graphviz version 2.50.0 (0)
 -->
<!-- Title: Grafo_Circuito_303_27_ Pages: 1 -->
<svg width="1936pt" height="1776pt"
 viewBox="0.00 0.00 1936.00 1776.00" xmlns="http://www.w3.org/2000/svg" xmlns:xlink="http://www.w3.org/1999/xlink">
<g id="graph0" class="graph" transform="scale(1 1) rotate(0) translate(4 1772)">
<title>Grafo_Circuito_303_27_</title>
<polygon fill="white" stroke="transparent" points="-4,4 -4,-1772 1932,-1772 1932,4 -4,4"/>
<!-- 303&#45;27&#45; -->
<g id="node1" class="node">
<title>303&#45;27&#45;</title>
<polygon fill="gold" stroke="black" points="414,-1733.59 414,-1751.41 371.82,-1764 312.18,-1764 270,-1751.41 270,-1733.59 312.18,-1721 371.82,-1721 414,-1733.59"/>
<polygon fill="none" stroke="black" points="418,-1730.61 418,-1754.39 372.41,-1768 311.59,-1768 266,-1754.39 266,-1730.61 311.59,-1717 372.41,-1717 418,-1730.61"/>
<text text-anchor="middle" x="342" y="-1740" font-family="Arial" font-size="10.00">303&#45;27&#45;</text>
</g>
<!-- C&#45;0074 -->
<g id="node18" class="node">
<title>C&#45;0074</title>
<ellipse fill="mediumseagreen" stroke="black" cx="342" cy="-1637.5" rx="72" ry="21.5"/>
<text text-anchor="middle" x="342" y="-1635" font-family="Arial" font-size="10.00">C&#45;0074</text>
</g>
<!-- 303&#45;27&#45;&#45;&gt;C&#45;0074 -->
<g id="edge1" class="edge">
<title>303&#45;27&#45;&#45;&gt;C&#45;0074</title>
<path fill="none" stroke="#4d4d4d" d="M342,-1716.81C342,-1716.81 342,-1666.03 342,-1666.03"/>
<polygon fill="#4d4d4d" stroke="#4d4d4d" points="344.45,-1666.03 342,-1659.03 339.55,-1666.03 344.45,-1666.03"/>
</g>
<!-- R&#45;127 -->
<g id="node2" class="node">
<title>R&#45;127</title>
<polygon fill="mediumseagreen" stroke="black" points="1748,-315.59 1748,-333.41 1705.82,-346 1646.18,-346 1604,-333.41 1604,-315.59 1646.18,-303 1705.82,-303 1748,-315.59"/>
<text text-anchor="middle" x="1676" y="-322" font-family="Arial" font-size="10.00">R&#45;127</text>
</g>
<!-- C&#45;0379 -->
<g id="node43" class="node">
<title>C&#45;0379</title>
<ellipse fill="mediumseagreen" stroke="black" cx="1676" cy="-223.5" rx="72" ry="21.5"/>
<text text-anchor="middle" x="1676" y="-221" font-family="Arial" font-size="10.00">C&#45;0379</text>
</g>
<!-- R&#45;127&#45;&gt;C&#45;0379 -->
<g id="edge36" class="edge">
<title>R&#45;127&#45;&gt;C&#45;0379</title>
<path fill="none" stroke="#4d4d4d" d="M1676,-302.58C1676,-302.58 1676,-252.03 1676,-252.03"/>
<polygon fill="#4d4d4d" stroke="#4d4d4d" points="1678.45,-252.03 1676,-245.03 1673.55,-252.03 1678.45,-252.03"/>
</g>
<!-- C&#45;0541 -->
<g id="node3" class="node">
<title>C&#45;0541</title>
<ellipse fill="mediumseagreen" stroke="black" cx="792" cy="-425.5" rx="72" ry="21.5"/>
<text text-anchor="middle" x="792" y="-423" font-family="Arial" font-size="10.00">C&#45;0541</text>
</g>
<!-- C&#45;0242 -->
<g id="node5" class="node">
<title>C&#45;0242</title>
<ellipse fill="tomato" stroke="black" cx="432" cy="-324.5" rx="72" ry="21.5"/>
<text text-anchor="middle" x="432" y="-322" font-family="Arial" font-size="10.00">C&#45;0242</text>
</g>
<!-- C&#45;0541&#45;&gt;C&#45;0242 -->
<g id="edge29" class="edge">
<title>C&#45;0541&#45;&gt;C&#45;0242</title>
<path fill="none" stroke="#4d4d4d" d="M723.26,-432C630.58,-432 477,-432 477,-432 477,-432 477,-348.3 477,-348.3"/>
<polygon fill="#4d4d4d" stroke="#4d4d4d" points="479.45,-348.3 477,-341.3 474.55,-348.3 479.45,-348.3"/>
</g>
<!-- R&#45;084 -->
<g id="node9" class="node">
<title>R&#45;084</title>
<polygon fill="tomato" stroke="black" points="684,-315.59 684,-333.41 641.82,-346 582.18,-346 540,-333.41 540,-315.59 582.18,-303 641.82,-303 684,-315.59"/>
<text text-anchor="middle" x="612" y="-322" font-family="Arial" font-size="10.00">R&#45;084</text>
</g>
<!-- C&#45;0541&#45;&gt;R&#45;084 -->
<g id="edge32" class="edge">
<title>C&#45;0541&#45;&gt;R&#45;084</title>
<path fill="none" stroke="#4d4d4d" d="M724.46,-418C673.39,-418 612,-418 612,-418 612,-418 612,-353.19 612,-353.19"/>
<polygon fill="#4d4d4d" stroke="#4d4d4d" points="614.45,-353.19 612,-346.19 609.55,-353.19 614.45,-353.19"/>
</g>
<!-- S&#45;1224 -->
<g id="node25" class="node">
<title>S&#45;1224</title>
<polygon fill="mediumseagreen" stroke="black" points="792,-346 720,-324.5 792,-303 864,-324.5 792,-346"/>
<text text-anchor="middle" x="792" y="-322" font-family="Arial" font-size="10.00">S&#45;1224</text>
</g>
<!-- C&#45;0541&#45;&gt;S&#45;1224 -->
<g id="edge28" class="edge">
<title>C&#45;0541&#45;&gt;S&#45;1224</title>
<path fill="none" stroke="#4d4d4d" d="M792,-403.58C792,-403.58 792,-353.03 792,-353.03"/>
<polygon fill="#4d4d4d" stroke="#4d4d4d" points="794.45,-353.03 792,-346.03 789.55,-353.03 794.45,-353.03"/>
</g>
<!-- C&#45;0985 -->
<g id="node31" class="node">
<title>C&#45;0985</title>
<ellipse fill="mediumseagreen" stroke="black" cx="972" cy="-324.5" rx="72" ry="21.5"/>
<text text-anchor="middle" x="972" y="-322" font-family="Arial" font-size="10.00">C&#45;0985</text>
</g>
<!-- C&#45;0541&#45;&gt;C&#45;0985 -->
<g id="edge30" class="edge">
<title>C&#45;0541&#45;&gt;C&#45;0985</title>
<path fill="none" stroke="#4d4d4d" d="M864.18,-425C914.25,-425 972,-425 972,-425 972,-425 972,-353.31 972,-353.31"/>
<polygon fill="#4d4d4d" stroke="#4d4d4d" points="974.45,-353.31 972,-346.31 969.55,-353.31 974.45,-353.31"/>
</g>
<!-- S&#45;2559 -->
<g id="node4" class="node">
<title>S&#45;2559</title>
<polygon fill="mediumseagreen" stroke="black" points="1062,-245 990,-223.5 1062,-202 1134,-223.5 1062,-245"/>
<text text-anchor="middle" x="1062" y="-221" font-family="Arial" font-size="10.00">S&#45;2559</text>
</g>
<!-- ext_circ_303_25_ -->
<g id="node46" class="node">
<title>ext_circ_303_25_</title>
<polygon fill="lightpink" stroke="darkorange" stroke-dasharray="5,2" points="623,-1764 479,-1764 479,-1721 623,-1721 623,-1764"/>
<text text-anchor="middle" x="551" y="-1745.5" font-family="Arial" font-size="10.00">Circuito:</text>
<text text-anchor="middle" x="551" y="-1734.5" font-family="Arial" font-size="10.00">303&#45;25&#45;</text>
</g>
<!-- C&#45;0242&#45;&gt;ext_circ_303_25_ -->
<g id="edge47" class="edge">
<title>C&#45;0242&#45;&gt;ext_circ_303_25_</title>
<path fill="none" stroke="darkorange" stroke-dasharray="5,2" d="M432,-346.35C432,-498.51 432,-1394 432,-1394 432,-1394 522,-1394 522,-1394 522,-1394 522,-1713.96 522,-1713.96"/>
<polygon fill="darkorange" stroke="darkorange" points="519.55,-1713.96 522,-1720.96 524.45,-1713.96 519.55,-1713.96"/>
</g>
<!-- S&#45;2446 -->
<g id="node6" class="node">
<title>S&#45;2446</title>
<polygon fill="mediumseagreen" stroke="black" points="792,-851 720,-829.5 792,-808 864,-829.5 792,-851"/>
<text text-anchor="middle" x="792" y="-827" font-family="Arial" font-size="10.00">S&#45;2446</text>
</g>
<!-- R&#45;055 -->
<g id="node7" class="node">
<title>R&#45;055</title>
<polygon fill="mediumseagreen" stroke="black" points="1404,-719.59 1404,-737.41 1361.82,-750 1302.18,-750 1260,-737.41 1260,-719.59 1302.18,-707 1361.82,-707 1404,-719.59"/>
<text text-anchor="middle" x="1332" y="-726" font-family="Arial" font-size="10.00">R&#45;055</text>
</g>
<!-- C&#45;1204 -->
<g id="node12" class="node">
<title>C&#45;1204</title>
<ellipse fill="mediumseagreen" stroke="black" cx="1332" cy="-627.5" rx="72" ry="21.5"/>
<text text-anchor="middle" x="1332" y="-625" font-family="Arial" font-size="10.00">C&#45;1204</text>
</g>
<!-- R&#45;055&#45;&gt;C&#45;1204 -->
<g id="edge20" class="edge">
<title>R&#45;055&#45;&gt;C&#45;1204</title>
<path fill="none" stroke="#4d4d4d" d="M1332,-706.58C1332,-706.58 1332,-656.03 1332,-656.03"/>
<polygon fill="#4d4d4d" stroke="#4d4d4d" points="1334.45,-656.03 1332,-649.03 1329.55,-656.03 1334.45,-656.03"/>
</g>
<!-- S&#45;2560 -->
<g id="node8" class="node">
<title>S&#45;2560</title>
<polygon fill="mediumseagreen" stroke="black" points="1242,-245 1170,-223.5 1242,-202 1314,-223.5 1242,-245"/>
<text text-anchor="middle" x="1242" y="-221" font-family="Arial" font-size="10.00">S&#45;2560</text>
</g>
<!-- ext_circ_307_23_ -->
<g id="node47" class="node">
<title>ext_circ_307_23_</title>
<polygon fill="lightpink" stroke="darkorange" stroke-dasharray="5,2" points="803,-1764 659,-1764 659,-1721 803,-1721 803,-1764"/>
<text text-anchor="middle" x="731" y="-1745.5" font-family="Arial" font-size="10.00">Circuito:</text>
<text text-anchor="middle" x="731" y="-1734.5" font-family="Arial" font-size="10.00">307&#45;23&#45;</text>
</g>
<!-- R&#45;084&#45;&gt;ext_circ_307_23_ -->
<g id="edge49" class="edge">
<title>R&#45;084&#45;&gt;ext_circ_307_23_</title>
<path fill="none" stroke="darkorange" stroke-dasharray="5,2" d="M684.22,-324C694.68,-324 702,-324 702,-324 702,-324 702,-971 702,-971 702,-971 788.5,-971 788.5,-971 788.5,-971 788.5,-1713.65 788.5,-1713.65"/>
<polygon fill="darkorange" stroke="darkorange" points="786.05,-1713.65 788.5,-1720.65 790.95,-1713.65 786.05,-1713.65"/>
</g>
<!-- R&#45;212 -->
<g id="node10" class="node">
<title>R&#45;212</title>
<polygon fill="mediumseagreen" stroke="black" points="954,-1224.59 954,-1242.41 911.82,-1255 852.18,-1255 810,-1242.41 810,-1224.59 852.18,-1212 911.82,-1212 954,-1224.59"/>
<text text-anchor="middle" x="882" y="-1231" font-family="Arial" font-size="10.00">R&#45;212</text>
</g>
<!-- C&#45;0908 -->
<g id="node37" class="node">
<title>C&#45;0908</title>
<ellipse fill="mediumseagreen" stroke="black" cx="882" cy="-1132.5" rx="72" ry="21.5"/>
<text text-anchor="middle" x="882" y="-1130" font-family="Arial" font-size="10.00">C&#45;0908</text>
</g>
<!-- R&#45;212&#45;&gt;C&#45;0908 -->
<g id="edge11" class="edge">
<title>R&#45;212&#45;&gt;C&#45;0908</title>
<path fill="none" stroke="#4d4d4d" d="M882,-1211.58C882,-1211.58 882,-1161.03 882,-1161.03"/>
<polygon fill="#4d4d4d" stroke="#4d4d4d" points="884.45,-1161.03 882,-1154.03 879.55,-1161.03 884.45,-1161.03"/>
</g>
<!-- S&#45;900 -->
<g id="node11" class="node">
<title>S&#45;900</title>
<polygon fill="mediumseagreen" stroke="black" points="612,-952 540,-930.5 612,-909 684,-930.5 612,-952"/>
<text text-anchor="middle" x="612" y="-928" font-family="Arial" font-size="10.00">S&#45;900</text>
</g>
<!-- S&#45;735 -->
<g id="node19" class="node">
<title>S&#45;735</title>
<polygon fill="mediumseagreen" stroke="black" points="1332,-548 1260,-526.5 1332,-505 1404,-526.5 1332,-548"/>
<text text-anchor="middle" x="1332" y="-524" font-family="Arial" font-size="10.00">S&#45;735</text>
</g>
<!-- C&#45;1204&#45;&gt;S&#45;735 -->
<g id="edge21" class="edge">
<title>C&#45;1204&#45;&gt;S&#45;735</title>
<path fill="none" stroke="#4d4d4d" d="M1332,-605.58C1332,-605.58 1332,-555.03 1332,-555.03"/>
<polygon fill="#4d4d4d" stroke="#4d4d4d" points="1334.45,-555.03 1332,-548.03 1329.55,-555.03 1334.45,-555.03"/>
</g>
<!-- S&#45;2412 -->
<g id="node13" class="node">
<title>S&#45;2412</title>
<polygon fill="mediumseagreen" stroke="black" points="1242,-346 1170,-324.5 1242,-303 1314,-324.5 1242,-346"/>
<text text-anchor="middle" x="1242" y="-322" font-family="Arial" font-size="10.00">S&#45;2412</text>
</g>
<!-- S&#45;2412&#45;&gt;S&#45;2559 -->
<g id="edge24" class="edge">
<title>S&#45;2412&#45;&gt;S&#45;2559</title>
<path fill="none" stroke="#4d4d4d" d="M1171.34,-324C1138.67,-324 1107,-324 1107,-324 1107,-324 1107,-238.72 1107,-238.72"/>
<polygon fill="#4d4d4d" stroke="#4d4d4d" points="1109.45,-238.72 1107,-231.72 1104.55,-238.72 1109.45,-238.72"/>
</g>
<!-- S&#45;2412&#45;&gt;S&#45;2560 -->
<g id="edge25" class="edge">
<title>S&#45;2412&#45;&gt;S&#45;2560</title>
<path fill="none" stroke="#4d4d4d" d="M1242,-302.58C1242,-302.58 1242,-252.03 1242,-252.03"/>
<polygon fill="#4d4d4d" stroke="#4d4d4d" points="1244.45,-252.03 1242,-245.03 1239.55,-252.03 1244.45,-252.03"/>
</g>
<!-- S&#45;2561 -->
<g id="node20" class="node">
<title>S&#45;2561</title>
<polygon fill="mediumseagreen" stroke="black" points="1422,-245 1350,-223.5 1422,-202 1494,-223.5 1422,-245"/>
<text text-anchor="middle" x="1422" y="-221" font-family="Arial" font-size="10.00">S&#45;2561</text>
</g>
<!-- S&#45;2412&#45;&gt;S&#45;2561 -->
<g id="edge26" class="edge">
<title>S&#45;2412&#45;&gt;S&#45;2561</title>
<path fill="none" stroke="#4d4d4d" d="M1312.37,-324C1362.85,-324 1422,-324 1422,-324 1422,-324 1422,-252.31 1422,-252.31"/>
<polygon fill="#4d4d4d" stroke="#4d4d4d" points="1424.45,-252.31 1422,-245.31 1419.55,-252.31 1424.45,-252.31"/>
</g>
<!-- SR&#45;0014 -->
<g id="node14" class="node">
<title>SR&#45;0014</title>
<polygon fill="mediumseagreen" stroke="black" points="1242,-447 1170,-425.5 1242,-404 1314,-425.5 1242,-447"/>
<text text-anchor="middle" x="1242" y="-423" font-family="Arial" font-size="10.00">SR&#45;0014</text>
</g>
<!-- SR&#45;0014&#45;&gt;S&#45;2412 -->
<g id="edge23" class="edge">
<title>SR&#45;0014&#45;&gt;S&#45;2412</title>
<path fill="none" stroke="#4d4d4d" d="M1242,-403.58C1242,-403.58 1242,-353.03 1242,-353.03"/>
<polygon fill="#4d4d4d" stroke="#4d4d4d" points="1244.45,-353.03 1242,-346.03 1239.55,-353.03 1244.45,-353.03"/>
</g>
<!-- S&#45;2302 -->
<g id="node15" class="node">
<title>S&#45;2302</title>
<polygon fill="mediumseagreen" stroke="black" points="972,-851 900,-829.5 972,-808 1044,-829.5 972,-851"/>
<text text-anchor="middle" x="972" y="-827" font-family="Arial" font-size="10.00">S&#45;2302</text>
</g>
<!-- S&#45;478 -->
<g id="node16" class="node">
<title>S&#45;478</title>
<polygon fill="mediumseagreen" stroke="black" points="792,-952 720,-930.5 792,-909 864,-930.5 792,-952"/>
<text text-anchor="middle" x="792" y="-928" font-family="Arial" font-size="10.00">S&#45;478</text>
</g>
<!-- S&#45;478&#45;&gt;S&#45;2446 -->
<g id="edge14" class="edge">
<title>S&#45;478&#45;&gt;S&#45;2446</title>
<path fill="none" stroke="#4d4d4d" d="M792,-908.58C792,-908.58 792,-858.03 792,-858.03"/>
<polygon fill="#4d4d4d" stroke="#4d4d4d" points="794.45,-858.03 792,-851.03 789.55,-858.03 794.45,-858.03"/>
</g>
<!-- C&#45;0377 -->
<g id="node17" class="node">
<title>C&#45;0377</title>
<ellipse fill="tomato" stroke="black" cx="1422" cy="-425.5" rx="72" ry="21.5"/>
<text text-anchor="middle" x="1422" y="-423" font-family="Arial" font-size="10.00">C&#45;0377</text>
</g>
<!-- S&#45;2346 -->
<g id="node39" class="node">
<title>S&#45;2346</title>
<polygon fill="mediumseagreen" stroke="black" points="1496,-144 1424,-122.5 1496,-101 1568,-122.5 1496,-144"/>
<text text-anchor="middle" x="1496" y="-120" font-family="Arial" font-size="10.00">S&#45;2346</text>
</g>
<!-- C&#45;0377&#45;&gt;S&#45;2346 -->
<g id="edge50" class="edge">
<title>C&#45;0377&#45;&gt;S&#45;2346</title>
<path fill="none" stroke="blue" stroke-dasharray="5,2" d="M1494.22,-425C1504.68,-425 1512,-425 1512,-425 1512,-425 1512,-146.63 1512,-146.63"/>
<polygon fill="blue" stroke="blue" points="1514.45,-146.63 1512,-139.63 1509.55,-146.63 1514.45,-146.63"/>
</g>
<!-- C&#45;1252 -->
<g id="node36" class="node">
<title>C&#45;1252</title>
<ellipse fill="mediumseagreen" stroke="black" cx="342" cy="-1536.5" rx="72" ry="21.5"/>
<text text-anchor="middle" x="342" y="-1534" font-family="Arial" font-size="10.00">C&#45;1252</text>
</g>
<!-- C&#45;0074&#45;&gt;C&#45;1252 -->
<g id="edge2" class="edge">
<title>C&#45;0074&#45;&gt;C&#45;1252</title>
<path fill="none" stroke="#4d4d4d" d="M342,-1615.58C342,-1615.58 342,-1565.03 342,-1565.03"/>
<polygon fill="#4d4d4d" stroke="#4d4d4d" points="344.45,-1565.03 342,-1558.03 339.55,-1565.03 344.45,-1565.03"/>
</g>
<!-- S&#45;735&#45;&gt;C&#45;0541 -->
<g id="edge27" class="edge">
<title>S&#45;735&#45;&gt;C&#45;0541</title>
<path fill="none" stroke="#4d4d4d" d="M1285.02,-519C1153.64,-519 792,-519 792,-519 792,-519 792,-454.19 792,-454.19"/>
<polygon fill="#4d4d4d" stroke="#4d4d4d" points="794.45,-454.19 792,-447.19 789.55,-454.19 794.45,-454.19"/>
</g>
<!-- S&#45;735&#45;&gt;SR&#45;0014 -->
<g id="edge22" class="edge">
<title>S&#45;735&#45;&gt;SR&#45;0014</title>
<path fill="none" stroke="#4d4d4d" d="M1287,-518.23C1287,-518.23 1287,-440.6 1287,-440.6"/>
<polygon fill="#4d4d4d" stroke="#4d4d4d" points="1289.45,-440.6 1287,-433.6 1284.55,-440.6 1289.45,-440.6"/>
</g>
<!-- S&#45;735&#45;&gt;C&#45;0377 -->
<g id="edge33" class="edge">
<title>S&#45;735&#45;&gt;C&#45;0377</title>
<path fill="none" stroke="#4d4d4d" d="M1377,-518.23C1377,-518.23 1377,-449.52 1377,-449.52"/>
<polygon fill="#4d4d4d" stroke="#4d4d4d" points="1379.45,-449.52 1377,-442.52 1374.55,-449.52 1379.45,-449.52"/>
</g>
<!-- C&#45;0378 -->
<g id="node24" class="node">
<title>C&#45;0378</title>
<ellipse fill="mediumseagreen" stroke="black" cx="1602" cy="-425.5" rx="72" ry="21.5"/>
<text text-anchor="middle" x="1602" y="-423" font-family="Arial" font-size="10.00">C&#45;0378</text>
</g>
<!-- S&#45;735&#45;&gt;C&#45;0378 -->
<g id="edge34" class="edge">
<title>S&#45;735&#45;&gt;C&#45;0378</title>
<path fill="none" stroke="#4d4d4d" d="M1402.59,-526C1482.59,-526 1602,-526 1602,-526 1602,-526 1602,-454.31 1602,-454.31"/>
<polygon fill="#4d4d4d" stroke="#4d4d4d" points="1604.45,-454.31 1602,-447.31 1599.55,-454.31 1604.45,-454.31"/>
</g>
<!-- S&#45;771 -->
<g id="node21" class="node">
<title>S&#45;771</title>
<polygon fill="mediumseagreen" stroke="black" points="1676,-144 1604,-122.5 1676,-101 1748,-122.5 1676,-144"/>
<text text-anchor="middle" x="1676" y="-120" font-family="Arial" font-size="10.00">S&#45;771</text>
</g>
<!-- S&#45;1717 -->
<g id="node33" class="node">
<title>S&#45;1717</title>
<polygon fill="mediumseagreen" stroke="black" points="1676,-43 1604,-21.5 1676,0 1748,-21.5 1676,-43"/>
<text text-anchor="middle" x="1676" y="-19" font-family="Arial" font-size="10.00">S&#45;1717</text>
</g>
<!-- S&#45;771&#45;&gt;S&#45;1717 -->
<g id="edge41" class="edge">
<title>S&#45;771&#45;&gt;S&#45;1717</title>
<path fill="none" stroke="#4d4d4d" d="M1676,-100.58C1676,-100.58 1676,-50.03 1676,-50.03"/>
<polygon fill="#4d4d4d" stroke="#4d4d4d" points="1678.45,-50.03 1676,-43.03 1673.55,-50.03 1678.45,-50.03"/>
</g>
<!-- S&#45;2024 -->
<g id="node22" class="node">
<title>S&#45;2024</title>
<polygon fill="mediumseagreen" stroke="black" points="342,-1356 270,-1334.5 342,-1313 414,-1334.5 342,-1356"/>
<text text-anchor="middle" x="342" y="-1332" font-family="Arial" font-size="10.00">S&#45;2024</text>
</g>
<!-- C&#45;0361 -->
<g id="node23" class="node">
<title>C&#45;0361</title>
<ellipse fill="mediumseagreen" stroke="black" cx="882" cy="-1031.5" rx="72" ry="21.5"/>
<text text-anchor="middle" x="882" y="-1029" font-family="Arial" font-size="10.00">C&#45;0361</text>
</g>
<!-- C&#45;0361&#45;&gt;S&#45;900 -->
<g id="edge43" class="edge">
<title>C&#45;0361&#45;&gt;S&#45;900</title>
<path fill="none" stroke="#4d4d4d" d="M809.88,-1031C744.07,-1031 657,-1031 657,-1031 657,-1031 657,-945.72 657,-945.72"/>
<polygon fill="#4d4d4d" stroke="#4d4d4d" points="659.45,-945.72 657,-938.72 654.55,-945.72 659.45,-945.72"/>
</g>
<!-- C&#45;0361&#45;&gt;S&#45;478 -->
<g id="edge13" class="edge">
<title>C&#45;0361&#45;&gt;S&#45;478</title>
<path fill="none" stroke="#4d4d4d" d="M837,-1014.37C837,-1014.37 837,-945.78 837,-945.78"/>
<polygon fill="#4d4d4d" stroke="#4d4d4d" points="839.45,-945.78 837,-938.78 834.55,-945.78 839.45,-945.78"/>
</g>
<!-- S&#45;736 -->
<g id="node34" class="node">
<title>S&#45;736</title>
<polygon fill="mediumseagreen" stroke="black" points="972,-952 900,-930.5 972,-909 1044,-930.5 972,-952"/>
<text text-anchor="middle" x="972" y="-928" font-family="Arial" font-size="10.00">S&#45;736</text>
</g>
<!-- C&#45;0361&#45;&gt;S&#45;736 -->
<g id="edge15" class="edge">
<title>C&#45;0361&#45;&gt;S&#45;736</title>
<path fill="none" stroke="#4d4d4d" d="M927,-1014.37C927,-1014.37 927,-945.78 927,-945.78"/>
<polygon fill="#4d4d4d" stroke="#4d4d4d" points="929.45,-945.78 927,-938.78 924.55,-945.78 929.45,-945.78"/>
</g>
<!-- C&#45;0252 -->
<g id="node38" class="node">
<title>C&#45;0252</title>
<ellipse fill="mediumseagreen" stroke="black" cx="1152" cy="-930.5" rx="72" ry="21.5"/>
<text text-anchor="middle" x="1152" y="-928" font-family="Arial" font-size="10.00">C&#45;0252</text>
</g>
<!-- C&#45;0361&#45;&gt;C&#45;0252 -->
<g id="edge16" class="edge">
<title>C&#45;0361&#45;&gt;C&#45;0252</title>
<path fill="none" stroke="#4d4d4d" d="M954,-1031C1033.98,-1031 1152,-1031 1152,-1031 1152,-1031 1152,-959.31 1152,-959.31"/>
<polygon fill="#4d4d4d" stroke="#4d4d4d" points="1154.45,-959.31 1152,-952.31 1149.55,-959.31 1154.45,-959.31"/>
</g>
<!-- C&#45;0378&#45;&gt;R&#45;127 -->
<g id="edge35" class="edge">
<title>C&#45;0378&#45;&gt;R&#45;127</title>
<path fill="none" stroke="#4d4d4d" d="M1639,-406.98C1639,-406.98 1639,-350.94 1639,-350.94"/>
<polygon fill="#4d4d4d" stroke="#4d4d4d" points="1641.45,-350.94 1639,-343.94 1636.55,-350.94 1641.45,-350.94"/>
</g>
<!-- C&#45;0909 -->
<g id="node26" class="node">
<title>C&#45;0909</title>
<ellipse fill="tomato" stroke="black" cx="522" cy="-1334.5" rx="72" ry="21.5"/>
<text text-anchor="middle" x="522" y="-1332" font-family="Arial" font-size="10.00">C&#45;0909</text>
</g>
<!-- C&#45;0909&#45;&gt;C&#45;0908 -->
<g id="edge45" class="edge">
<title>C&#45;0909&#45;&gt;C&#45;0908</title>
<path fill="none" stroke="blue" stroke-dasharray="5,2" d="M567,-1317.58C567,-1268.91 567,-1132 567,-1132 567,-1132 802.73,-1132 802.73,-1132"/>
<polygon fill="blue" stroke="blue" points="802.73,-1134.45 809.73,-1132 802.73,-1129.55 802.73,-1134.45"/>
</g>
<!-- S&#45;1718 -->
<g id="node27" class="node">
<title>S&#45;1718</title>
<polygon fill="mediumseagreen" stroke="black" points="72,-1457 0,-1435.5 72,-1414 144,-1435.5 72,-1457"/>
<text text-anchor="middle" x="72" y="-1433" font-family="Arial" font-size="10.00">S&#45;1718</text>
</g>
<!-- C&#45;1203 -->
<g id="node28" class="node">
<title>C&#45;1203</title>
<ellipse fill="tomato" stroke="black" cx="1152" cy="-829.5" rx="72" ry="21.5"/>
<text text-anchor="middle" x="1152" y="-827" font-family="Arial" font-size="10.00">C&#45;1203</text>
</g>
<!-- C&#45;1203&#45;&gt;S&#45;735 -->
<g id="edge46" class="edge">
<title>C&#45;1203&#45;&gt;S&#45;735</title>
<path fill="none" stroke="blue" stroke-dasharray="5,2" d="M1197,-812.71C1197,-749.99 1197,-533 1197,-533 1197,-533 1274.73,-533 1274.73,-533"/>
<polygon fill="blue" stroke="blue" points="1274.73,-535.45 1281.73,-533 1274.73,-530.55 1274.73,-535.45"/>
</g>
<!-- S&#45;986 -->
<g id="node29" class="node">
<title>S&#45;986</title>
<polygon fill="mediumseagreen" stroke="black" points="252,-1457 180,-1435.5 252,-1414 324,-1435.5 252,-1457"/>
<text text-anchor="middle" x="252" y="-1433" font-family="Arial" font-size="10.00">S&#45;986</text>
</g>
<!-- S&#45;1851 -->
<g id="node30" class="node">
<title>S&#45;1851</title>
<polygon fill="mediumseagreen" stroke="black" points="1856,-144 1784,-122.5 1856,-101 1928,-122.5 1856,-144"/>
<text text-anchor="middle" x="1856" y="-120" font-family="Arial" font-size="10.00">S&#45;1851</text>
</g>
<!-- R&#45;236 -->
<g id="node41" class="node">
<title>R&#45;236</title>
<polygon fill="tomato" stroke="black" points="954,-214.59 954,-232.41 911.82,-245 852.18,-245 810,-232.41 810,-214.59 852.18,-202 911.82,-202 954,-214.59"/>
<text text-anchor="middle" x="882" y="-221" font-family="Arial" font-size="10.00">R&#45;236</text>
</g>
<!-- C&#45;0985&#45;&gt;R&#45;236 -->
<g id="edge31" class="edge">
<title>C&#45;0985&#45;&gt;R&#45;236</title>
<path fill="none" stroke="#4d4d4d" d="M927,-307.37C927,-307.37 927,-247.72 927,-247.72"/>
<polygon fill="#4d4d4d" stroke="#4d4d4d" points="929.45,-247.72 927,-240.72 924.55,-247.72 929.45,-247.72"/>
</g>
<!-- C&#45;1137 -->
<g id="node32" class="node">
<title>C&#45;1137</title>
<ellipse fill="mediumseagreen" stroke="black" cx="432" cy="-1435.5" rx="72" ry="21.5"/>
<text text-anchor="middle" x="432" y="-1433" font-family="Arial" font-size="10.00">C&#45;1137</text>
</g>
<!-- S&#45;736&#45;&gt;S&#45;2302 -->
<g id="edge42" class="edge">
<title>S&#45;736&#45;&gt;S&#45;2302</title>
<path fill="none" stroke="#4d4d4d" d="M972,-908.58C972,-908.58 972,-858.03 972,-858.03"/>
<polygon fill="#4d4d4d" stroke="#4d4d4d" points="974.45,-858.03 972,-851.03 969.55,-858.03 974.45,-858.03"/>
</g>
<!-- S&#45;2424 -->
<g id="node35" class="node">
<title>S&#45;2424</title>
<polygon fill="mediumseagreen" stroke="black" points="702,-1356 630,-1334.5 702,-1313 774,-1334.5 702,-1356"/>
<text text-anchor="middle" x="702" y="-1332" font-family="Arial" font-size="10.00">S&#45;2424</text>
</g>
<!-- C&#45;1252&#45;&gt;S&#45;1718 -->
<g id="edge4" class="edge">
<title>C&#45;1252&#45;&gt;S&#45;1718</title>
<path fill="none" stroke="#4d4d4d" d="M270,-1536C190.02,-1536 72,-1536 72,-1536 72,-1536 72,-1464.31 72,-1464.31"/>
<polygon fill="#4d4d4d" stroke="#4d4d4d" points="74.45,-1464.31 72,-1457.31 69.55,-1464.31 74.45,-1464.31"/>
</g>
<!-- C&#45;1252&#45;&gt;S&#45;986 -->
<g id="edge5" class="edge">
<title>C&#45;1252&#45;&gt;S&#45;986</title>
<path fill="none" stroke="#4d4d4d" d="M297,-1519.37C297,-1519.37 297,-1450.78 297,-1450.78"/>
<polygon fill="#4d4d4d" stroke="#4d4d4d" points="299.45,-1450.78 297,-1443.78 294.55,-1450.78 299.45,-1450.78"/>
</g>
<!-- C&#45;1252&#45;&gt;C&#45;1137 -->
<g id="edge3" class="edge">
<title>C&#45;1252&#45;&gt;C&#45;1137</title>
<path fill="none" stroke="#4d4d4d" d="M387,-1519.37C387,-1519.37 387,-1459.38 387,-1459.38"/>
<polygon fill="#4d4d4d" stroke="#4d4d4d" points="389.45,-1459.38 387,-1452.38 384.55,-1459.38 389.45,-1459.38"/>
</g>
<!-- S&#45;1327 -->
<g id="node40" class="node">
<title>S&#45;1327</title>
<polygon fill="mediumseagreen" stroke="black" points="612,-1457 540,-1435.5 612,-1414 684,-1435.5 612,-1457"/>
<text text-anchor="middle" x="612" y="-1433" font-family="Arial" font-size="10.00">S&#45;1327</text>
</g>
<!-- C&#45;1252&#45;&gt;S&#45;1327 -->
<g id="edge6" class="edge">
<title>C&#45;1252&#45;&gt;S&#45;1327</title>
<path fill="none" stroke="#4d4d4d" d="M414.02,-1536C480.07,-1536 567.67,-1536 567.67,-1536 567.67,-1536 567.67,-1451.07 567.67,-1451.07"/>
<polygon fill="#4d4d4d" stroke="#4d4d4d" points="570.12,-1451.07 567.67,-1444.07 565.22,-1451.07 570.12,-1451.07"/>
</g>
<!-- C&#45;0908&#45;&gt;C&#45;0361 -->
<g id="edge12" class="edge">
<title>C&#45;0908&#45;&gt;C&#45;0361</title>
<path fill="none" stroke="#4d4d4d" d="M882,-1110.58C882,-1110.58 882,-1060.03 882,-1060.03"/>
<polygon fill="#4d4d4d" stroke="#4d4d4d" points="884.45,-1060.03 882,-1053.03 879.55,-1060.03 884.45,-1060.03"/>
</g>
<!-- C&#45;0252&#45;&gt;C&#45;1203 -->
<g id="edge17" class="edge">
<title>C&#45;0252&#45;&gt;C&#45;1203</title>
<path fill="none" stroke="#4d4d4d" d="M1152,-908.58C1152,-908.58 1152,-858.03 1152,-858.03"/>
<polygon fill="#4d4d4d" stroke="#4d4d4d" points="1154.45,-858.03 1152,-851.03 1149.55,-858.03 1154.45,-858.03"/>
</g>
<!-- C&#45;1202 -->
<g id="node42" class="node">
<title>C&#45;1202</title>
<ellipse fill="mediumseagreen" stroke="black" cx="1332" cy="-829.5" rx="72" ry="21.5"/>
<text text-anchor="middle" x="1332" y="-827" font-family="Arial" font-size="10.00">C&#45;1202</text>
</g>
<!-- C&#45;0252&#45;&gt;C&#45;1202 -->
<g id="edge18" class="edge">
<title>C&#45;0252&#45;&gt;C&#45;1202</title>
<path fill="none" stroke="#4d4d4d" d="M1224.18,-930C1274.25,-930 1332,-930 1332,-930 1332,-930 1332,-858.31 1332,-858.31"/>
<polygon fill="#4d4d4d" stroke="#4d4d4d" points="1334.45,-858.31 1332,-851.31 1329.55,-858.31 1334.45,-858.31"/>
</g>
<!-- S&#45;2493 -->
<g id="node45" class="node">
<title>S&#45;2493</title>
<polygon fill="mediumseagreen" stroke="black" points="1496,-43 1424,-21.5 1496,0 1568,-21.5 1496,-43"/>
<text text-anchor="middle" x="1496" y="-19" font-family="Arial" font-size="10.00">S&#45;2493</text>
</g>
<!-- S&#45;2346&#45;&gt;S&#45;2493 -->
<g id="edge38" class="edge">
<title>S&#45;2346&#45;&gt;S&#45;2493</title>
<path fill="none" stroke="#4d4d4d" d="M1496,-100.58C1496,-100.58 1496,-50.03 1496,-50.03"/>
<polygon fill="#4d4d4d" stroke="#4d4d4d" points="1498.45,-50.03 1496,-43.03 1493.55,-50.03 1498.45,-50.03"/>
</g>
<!-- S&#45;1327&#45;&gt;S&#45;2024 -->
<g id="edge44" class="edge">
<title>S&#45;1327&#45;&gt;S&#45;2024</title>
<path fill="none" stroke="#4d4d4d" d="M558,-1429.92C558,-1414.94 558,-1375 558,-1375 558,-1375 387,-1375 387,-1375 387,-1375 387,-1349.7 387,-1349.7"/>
<polygon fill="#4d4d4d" stroke="#4d4d4d" points="389.45,-1349.7 387,-1342.7 384.55,-1349.7 389.45,-1349.7"/>
</g>
<!-- S&#45;1327&#45;&gt;C&#45;0909 -->
<g id="edge8" class="edge">
<title>S&#45;1327&#45;&gt;C&#45;0909</title>
<path fill="none" stroke="#4d4d4d" d="M576,-1424.69C576,-1424.69 576,-1355.78 576,-1355.78"/>
<polygon fill="#4d4d4d" stroke="#4d4d4d" points="578.45,-1355.78 576,-1348.78 573.55,-1355.78 578.45,-1355.78"/>
</g>
<!-- S&#45;1327&#45;&gt;S&#45;2424 -->
<g id="edge7" class="edge">
<title>S&#45;1327&#45;&gt;S&#45;2424</title>
<path fill="none" stroke="#4d4d4d" d="M657,-1427.23C657,-1427.23 657,-1349.6 657,-1349.6"/>
<polygon fill="#4d4d4d" stroke="#4d4d4d" points="659.45,-1349.6 657,-1342.6 654.55,-1349.6 659.45,-1349.6"/>
</g>
<!-- C&#45;0910 -->
<g id="node44" class="node">
<title>C&#45;0910</title>
<ellipse fill="mediumseagreen" stroke="black" cx="882" cy="-1334.5" rx="72" ry="21.5"/>
<text text-anchor="middle" x="882" y="-1332" font-family="Arial" font-size="10.00">C&#45;0910</text>
</g>
<!-- S&#45;1327&#45;&gt;C&#45;0910 -->
<g id="edge9" class="edge">
<title>S&#45;1327&#45;&gt;C&#45;0910</title>
<path fill="none" stroke="#4d4d4d" d="M682.59,-1435C762.59,-1435 882,-1435 882,-1435 882,-1435 882,-1363.31 882,-1363.31"/>
<polygon fill="#4d4d4d" stroke="#4d4d4d" points="884.45,-1363.31 882,-1356.31 879.55,-1363.31 884.45,-1363.31"/>
</g>
<!-- R&#45;236&#45;&gt;ext_circ_303_25_ -->
<g id="edge48" class="edge">
<title>R&#45;236&#45;&gt;ext_circ_303_25_</title>
<path fill="none" stroke="darkorange" stroke-dasharray="5,2" d="M882,-245.21C882,-369.94 882,-990 882,-990 882,-990 806.5,-990 806.5,-990 806.5,-990 806.5,-1486 806.5,-1486 806.5,-1486 595.33,-1486 595.33,-1486 595.33,-1486 595.33,-1713.63 595.33,-1713.63"/>
<polygon fill="darkorange" stroke="darkorange" points="592.88,-1713.63 595.33,-1720.63 597.78,-1713.63 592.88,-1713.63"/>
</g>
<!-- C&#45;1202&#45;&gt;R&#45;055 -->
<g id="edge19" class="edge">
<title>C&#45;1202&#45;&gt;R&#45;055</title>
<path fill="none" stroke="#4d4d4d" d="M1332,-807.58C1332,-807.58 1332,-757.03 1332,-757.03"/>
<polygon fill="#4d4d4d" stroke="#4d4d4d" points="1334.45,-757.03 1332,-750.03 1329.55,-757.03 1334.45,-757.03"/>
</g>
<!-- C&#45;0379&#45;&gt;S&#45;771 -->
<g id="edge40" class="edge">
<title>C&#45;0379&#45;&gt;S&#45;771</title>
<path fill="none" stroke="#4d4d4d" d="M1676,-201.58C1676,-201.58 1676,-151.03 1676,-151.03"/>
<polygon fill="#4d4d4d" stroke="#4d4d4d" points="1678.45,-151.03 1676,-144.03 1673.55,-151.03 1678.45,-151.03"/>
</g>
<!-- C&#45;0379&#45;&gt;S&#45;1851 -->
<g id="edge39" class="edge">
<title>C&#45;0379&#45;&gt;S&#45;1851</title>
<path fill="none" stroke="#4d4d4d" d="M1748.18,-223C1798.25,-223 1856,-223 1856,-223 1856,-223 1856,-151.31 1856,-151.31"/>
<polygon fill="#4d4d4d" stroke="#4d4d4d" points="1858.45,-151.31 1856,-144.31 1853.55,-151.31 1858.45,-151.31"/>
</g>
<!-- C&#45;0379&#45;&gt;S&#45;2346 -->
<g id="edge37" class="edge">
<title>C&#45;0379&#45;&gt;S&#45;2346</title>
<path fill="none" stroke="#4d4d4d" d="M1603.97,-223C1575.3,-223 1549,-223 1549,-223 1549,-223 1549,-135.19 1549,-135.19"/>
<polygon fill="#4d4d4d" stroke="#4d4d4d" points="1551.45,-135.19 1549,-128.19 1546.55,-135.19 1551.45,-135.19"/>
</g>
<!-- C&#45;0910&#45;&gt;R&#45;212 -->
<g id="edge10" class="edge">
<title>C&#45;0910&#45;&gt;R&#45;212</title>
<path fill="none" stroke="#4d4d4d" d="M882,-1312.58C882,-1312.58 882,-1262.03 882,-1262.03"/>
<polygon fill="#4d4d4d" stroke="#4d4d4d" points="884.45,-1262.03 882,-1255.03 879.55,-1262.03 884.45,-1262.03"/>
</g>
</g>
</svg>
