<?xml version="1.0" encoding="UTF-8" standalone="no"?>
<!DOCTYPE svg PUBLIC "-//W3C//DTD SVG 1.1//EN"
 "http://www.w3.org/Graphics/SVG/1.1/DTD/svg11.dtd">
<!-- Generated by graphviz version 2.50.0 (0)
 -->
<!-- Title: Grafo_Circuito_113_26_ Pages: 1 -->
<svg width="886pt" height="898pt"
 viewBox="0.00 0.00 886.00 898.00" xmlns="http://www.w3.org/2000/svg" xmlns:xlink="http://www.w3.org/1999/xlink">
<g id="graph0" class="graph" transform="scale(1 1) rotate(0) translate(4 894)">
<title>Grafo_Circuito_113_26_</title>
<polygon fill="white" stroke="transparent" points="-4,4 -4,-894 882,-894 882,4 -4,4"/>
<!-- R&#45;092 -->
<g id="node1" class="node">
<title>R&#45;092</title>
<polygon fill="tomato" stroke="black" points="705,-10.54 705,-25.46 664.87,-36 608.13,-36 568,-25.46 568,-10.54 608.13,0 664.87,0 705,-10.54"/>
<text text-anchor="middle" x="636.5" y="-16.1" font-family="Helvetica,sans-Serif" font-size="8.00">R&#45;092</text>
</g>
<!-- C&#45;1262 -->
<g id="node5" class="node">
<title>C&#45;1262</title>
<ellipse fill="tomato" stroke="black" cx="809.5" cy="-18" rx="68.5" ry="18"/>
<text text-anchor="middle" x="809.5" y="-16.1" font-family="Helvetica,sans-Serif" font-size="8.00">C&#45;1262</text>
</g>
<!-- R&#45;092&#45;&gt;C&#45;1262 -->
<g id="edge21" class="edge">
<title>R&#45;092&#45;&gt;C&#45;1262</title>
<path fill="none" stroke="blue" stroke-width="0.8" stroke-dasharray="5,2" d="M705.37,-24C705.37,-24 737.8,-24 737.8,-24"/>
<polygon fill="blue" stroke="blue" stroke-width="0.8" points="737.8,-26.45 744.8,-24 737.8,-21.55 737.8,-26.45"/>
</g>
<!-- 113&#45;26&#45; -->
<g id="node2" class="node">
<title>113&#45;26&#45;</title>
<polygon fill="gold" stroke="black" points="396,-860.54 396,-875.46 355.87,-886 299.13,-886 259,-875.46 259,-860.54 299.13,-850 355.87,-850 396,-860.54"/>
<polygon fill="none" stroke="black" points="400,-857.46 400,-878.54 356.39,-890 298.61,-890 255,-878.54 255,-857.46 298.61,-846 356.39,-846 400,-857.46"/>
<text text-anchor="middle" x="327.5" y="-866.1" font-family="Helvetica,sans-Serif" font-size="8.00">113&#45;26&#45;</text>
</g>
<!-- C&#45;0172 -->
<g id="node8" class="node">
<title>C&#45;0172</title>
<ellipse fill="mediumseagreen" stroke="black" cx="327.5" cy="-770" rx="68.5" ry="18"/>
<text text-anchor="middle" x="327.5" y="-768.1" font-family="Helvetica,sans-Serif" font-size="8.00">C&#45;0172</text>
</g>
<!-- 113&#45;26&#45;&#45;&gt;C&#45;0172 -->
<g id="edge1" class="edge">
<title>113&#45;26&#45;&#45;&gt;C&#45;0172</title>
<path fill="none" stroke="dimgray" stroke-width="0.8" d="M327.5,-845.76C327.5,-845.76 327.5,-795.21 327.5,-795.21"/>
<polygon fill="dimgray" stroke="dimgray" stroke-width="0.8" points="329.95,-795.21 327.5,-788.21 325.05,-795.21 329.95,-795.21"/>
</g>
<!-- S&#45;1644 -->
<g id="node3" class="node">
<title>S&#45;1644</title>
<polygon fill="mediumseagreen" stroke="black" points="414.5,-412 346,-394 414.5,-376 483,-394 414.5,-412"/>
<text text-anchor="middle" x="414.5" y="-392.1" font-family="Helvetica,sans-Serif" font-size="8.00">S&#45;1644</text>
</g>
<!-- S&#45;1197 -->
<g id="node4" class="node">
<title>S&#45;1197</title>
<polygon fill="mediumseagreen" stroke="black" points="463.5,-224 395,-206 463.5,-188 532,-206 463.5,-224"/>
<text text-anchor="middle" x="463.5" y="-204.1" font-family="Helvetica,sans-Serif" font-size="8.00">S&#45;1197</text>
</g>
<!-- S&#45;2384 -->
<g id="node9" class="node">
<title>S&#45;2384</title>
<polygon fill="mediumseagreen" stroke="black" points="377.5,-130 309,-112 377.5,-94 446,-112 377.5,-130"/>
<text text-anchor="middle" x="377.5" y="-110.1" font-family="Helvetica,sans-Serif" font-size="8.00">S&#45;2384</text>
</g>
<!-- S&#45;1197&#45;&gt;S&#45;2384 -->
<g id="edge17" class="edge">
<title>S&#45;1197&#45;&gt;S&#45;2384</title>
<path fill="none" stroke="dimgray" stroke-width="0.8" d="M420.5,-199.24C420.5,-199.24 420.5,-125.95 420.5,-125.95"/>
<polygon fill="dimgray" stroke="dimgray" stroke-width="0.8" points="422.95,-125.95 420.5,-118.95 418.05,-125.95 422.95,-125.95"/>
</g>
<!-- C&#45;1210 -->
<g id="node14" class="node">
<title>C&#45;1210</title>
<ellipse fill="mediumseagreen" stroke="black" cx="550.5" cy="-112" rx="68.5" ry="18"/>
<text text-anchor="middle" x="550.5" y="-110.1" font-family="Helvetica,sans-Serif" font-size="8.00">C&#45;1210</text>
</g>
<!-- S&#45;1197&#45;&gt;C&#45;1210 -->
<g id="edge16" class="edge">
<title>S&#45;1197&#45;&gt;C&#45;1210</title>
<path fill="none" stroke="dimgray" stroke-width="0.8" d="M498.67,-196.99C498.67,-196.99 498.67,-131.06 498.67,-131.06"/>
<polygon fill="dimgray" stroke="dimgray" stroke-width="0.8" points="501.12,-131.06 498.67,-124.06 496.22,-131.06 501.12,-131.06"/>
</g>
<!-- C&#45;0332 -->
<g id="node17" class="node">
<title>C&#45;0332</title>
<ellipse fill="tomato" stroke="black" cx="204.5" cy="-112" rx="68.5" ry="18"/>
<text text-anchor="middle" x="204.5" y="-110.1" font-family="Helvetica,sans-Serif" font-size="8.00">C&#45;0332</text>
</g>
<!-- S&#45;1197&#45;&gt;C&#45;0332 -->
<g id="edge15" class="edge">
<title>S&#45;1197&#45;&gt;C&#45;0332</title>
<path fill="none" stroke="dimgray" stroke-width="0.8" d="M417.7,-200C347.92,-200 223,-200 223,-200 223,-200 223,-136.39 223,-136.39"/>
<polygon fill="dimgray" stroke="dimgray" stroke-width="0.8" points="225.45,-136.39 223,-129.39 220.55,-136.39 225.45,-136.39"/>
</g>
<!-- S&#45;1093 -->
<g id="node18" class="node">
<title>S&#45;1093</title>
<polygon fill="mediumseagreen" stroke="black" points="723.5,-130 655,-112 723.5,-94 792,-112 723.5,-130"/>
<text text-anchor="middle" x="723.5" y="-110.1" font-family="Helvetica,sans-Serif" font-size="8.00">S&#45;1093</text>
</g>
<!-- S&#45;1197&#45;&gt;S&#45;1093 -->
<g id="edge12" class="edge">
<title>S&#45;1197&#45;&gt;S&#45;1093</title>
<path fill="none" stroke="dimgray" stroke-width="0.8" d="M515.33,-201.32C515.33,-189.43 515.33,-159 515.33,-159 515.33,-159 680,-159 680,-159 680,-159 680,-125.94 680,-125.94"/>
<polygon fill="dimgray" stroke="dimgray" stroke-width="0.8" points="682.45,-125.93 680,-118.94 677.55,-125.94 682.45,-125.93"/>
</g>
<!-- C&#45;1262&#45;&gt;R&#45;092 -->
<g id="edge20" class="edge">
<title>C&#45;1262&#45;&gt;R&#45;092</title>
<path fill="none" stroke="blue" stroke-width="0.8" stroke-dasharray="5,2" d="M744.59,-12C744.59,-12 712.25,-12 712.25,-12"/>
<polygon fill="blue" stroke="blue" stroke-width="0.8" points="712.25,-9.55 705.25,-12 712.24,-14.45 712.25,-9.55"/>
</g>
<!-- S&#45;2176 -->
<g id="node6" class="node">
<title>S&#45;2176</title>
<polygon fill="mediumseagreen" stroke="black" points="68.5,-506 0,-488 68.5,-470 137,-488 68.5,-506"/>
<text text-anchor="middle" x="68.5" y="-486.1" font-family="Helvetica,sans-Serif" font-size="8.00">S&#45;2176</text>
</g>
<!-- C&#45;0401 -->
<g id="node7" class="node">
<title>C&#45;0401</title>
<ellipse fill="tomato" stroke="black" cx="241.5" cy="-488" rx="68.5" ry="18"/>
<text text-anchor="middle" x="241.5" y="-486.1" font-family="Helvetica,sans-Serif" font-size="8.00">C&#45;0401</text>
</g>
<!-- C&#45;0401&#45;&gt;S&#45;1197 -->
<g id="edge19" class="edge">
<title>C&#45;0401&#45;&gt;S&#45;1197</title>
<path fill="none" stroke="blue" stroke-width="0.8" stroke-dasharray="5,2" d="M291,-475.42C291,-421.43 291,-212 291,-212 291,-212 410.73,-212 410.73,-212"/>
<polygon fill="blue" stroke="blue" stroke-width="0.8" points="410.73,-214.45 417.73,-212 410.73,-209.55 410.73,-214.45"/>
</g>
<!-- C&#45;0512 -->
<g id="node11" class="node">
<title>C&#45;0512</title>
<ellipse fill="mediumseagreen" stroke="black" cx="327.5" cy="-676" rx="68.5" ry="18"/>
<text text-anchor="middle" x="327.5" y="-674.1" font-family="Helvetica,sans-Serif" font-size="8.00">C&#45;0512</text>
</g>
<!-- C&#45;0172&#45;&gt;C&#45;0512 -->
<g id="edge2" class="edge">
<title>C&#45;0172&#45;&gt;C&#45;0512</title>
<path fill="none" stroke="dimgray" stroke-width="0.8" d="M327.5,-751.88C327.5,-751.88 327.5,-701.07 327.5,-701.07"/>
<polygon fill="dimgray" stroke="dimgray" stroke-width="0.8" points="329.95,-701.07 327.5,-694.07 325.05,-701.07 329.95,-701.07"/>
</g>
<!-- S&#45;881 -->
<g id="node10" class="node">
<title>S&#45;881</title>
<polygon fill="mediumseagreen" stroke="black" points="414.5,-506 346,-488 414.5,-470 483,-488 414.5,-506"/>
<text text-anchor="middle" x="414.5" y="-486.1" font-family="Helvetica,sans-Serif" font-size="8.00">S&#45;881</text>
</g>
<!-- S&#45;881&#45;&gt;S&#45;1644 -->
<g id="edge5" class="edge">
<title>S&#45;881&#45;&gt;S&#45;1644</title>
<path fill="none" stroke="dimgray" stroke-width="0.8" d="M414.5,-469.88C414.5,-469.88 414.5,-419.07 414.5,-419.07"/>
<polygon fill="dimgray" stroke="dimgray" stroke-width="0.8" points="416.95,-419.07 414.5,-412.07 412.05,-419.07 416.95,-419.07"/>
</g>
<!-- R&#45;148 -->
<g id="node16" class="node">
<title>R&#45;148</title>
<polygon fill="mediumseagreen" stroke="black" points="396,-574.54 396,-589.46 355.87,-600 299.13,-600 259,-589.46 259,-574.54 299.13,-564 355.87,-564 396,-574.54"/>
<text text-anchor="middle" x="327.5" y="-580.1" font-family="Helvetica,sans-Serif" font-size="8.00">R&#45;148</text>
</g>
<!-- C&#45;0512&#45;&gt;R&#45;148 -->
<g id="edge3" class="edge">
<title>C&#45;0512&#45;&gt;R&#45;148</title>
<path fill="none" stroke="dimgray" stroke-width="0.8" d="M327.5,-657.88C327.5,-657.88 327.5,-607.07 327.5,-607.07"/>
<polygon fill="dimgray" stroke="dimgray" stroke-width="0.8" points="329.95,-607.07 327.5,-600.07 325.05,-607.07 329.95,-607.07"/>
</g>
<!-- C&#45;0402 -->
<g id="node12" class="node">
<title>C&#45;0402</title>
<ellipse fill="mediumseagreen" stroke="black" cx="587.5" cy="-488" rx="68.5" ry="18"/>
<text text-anchor="middle" x="587.5" y="-486.1" font-family="Helvetica,sans-Serif" font-size="8.00">C&#45;0402</text>
</g>
<!-- R&#45;137 -->
<g id="node13" class="node">
<title>R&#45;137</title>
<polygon fill="mediumseagreen" stroke="black" points="656,-386.54 656,-401.46 615.87,-412 559.13,-412 519,-401.46 519,-386.54 559.13,-376 615.87,-376 656,-386.54"/>
<text text-anchor="middle" x="587.5" y="-392.1" font-family="Helvetica,sans-Serif" font-size="8.00">R&#45;137</text>
</g>
<!-- C&#45;0402&#45;&gt;R&#45;137 -->
<g id="edge9" class="edge">
<title>C&#45;0402&#45;&gt;R&#45;137</title>
<path fill="none" stroke="dimgray" stroke-width="0.8" d="M587.5,-469.88C587.5,-469.88 587.5,-419.07 587.5,-419.07"/>
<polygon fill="dimgray" stroke="dimgray" stroke-width="0.8" points="589.95,-419.07 587.5,-412.07 585.05,-419.07 589.95,-419.07"/>
</g>
<!-- C&#45;0403 -->
<g id="node19" class="node">
<title>C&#45;0403</title>
<ellipse fill="mediumseagreen" stroke="black" cx="587.5" cy="-300" rx="68.5" ry="18"/>
<text text-anchor="middle" x="587.5" y="-298.1" font-family="Helvetica,sans-Serif" font-size="8.00">C&#45;0403</text>
</g>
<!-- R&#45;137&#45;&gt;C&#45;0403 -->
<g id="edge10" class="edge">
<title>R&#45;137&#45;&gt;C&#45;0403</title>
<path fill="none" stroke="dimgray" stroke-width="0.8" d="M587.5,-375.88C587.5,-375.88 587.5,-325.07 587.5,-325.07"/>
<polygon fill="dimgray" stroke="dimgray" stroke-width="0.8" points="589.95,-325.07 587.5,-318.07 585.05,-325.07 589.95,-325.07"/>
</g>
<!-- S&#45;1227 -->
<g id="node15" class="node">
<title>S&#45;1227</title>
<polygon fill="mediumseagreen" stroke="black" points="636.5,-224 568,-206 636.5,-188 705,-206 636.5,-224"/>
<text text-anchor="middle" x="636.5" y="-204.1" font-family="Helvetica,sans-Serif" font-size="8.00">S&#45;1227</text>
</g>
<!-- R&#45;148&#45;&gt;S&#45;2176 -->
<g id="edge6" class="edge">
<title>R&#45;148&#45;&gt;S&#45;2176</title>
<path fill="none" stroke="dimgray" stroke-width="0.8" d="M258.75,-582C185.35,-582 79.5,-582 79.5,-582 79.5,-582 79.5,-510.52 79.5,-510.52"/>
<polygon fill="dimgray" stroke="dimgray" stroke-width="0.8" points="81.95,-510.52 79.5,-503.52 77.05,-510.52 81.95,-510.52"/>
</g>
<!-- R&#45;148&#45;&gt;C&#45;0401 -->
<g id="edge7" class="edge">
<title>R&#45;148&#45;&gt;C&#45;0401</title>
<path fill="none" stroke="dimgray" stroke-width="0.8" d="M284.5,-567.72C284.5,-567.72 284.5,-509.1 284.5,-509.1"/>
<polygon fill="dimgray" stroke="dimgray" stroke-width="0.8" points="286.95,-509.1 284.5,-502.1 282.05,-509.1 286.95,-509.1"/>
</g>
<!-- R&#45;148&#45;&gt;S&#45;881 -->
<g id="edge4" class="edge">
<title>R&#45;148&#45;&gt;S&#45;881</title>
<path fill="none" stroke="dimgray" stroke-width="0.8" d="M371,-567.72C371,-567.72 371,-501.83 371,-501.83"/>
<polygon fill="dimgray" stroke="dimgray" stroke-width="0.8" points="373.45,-501.83 371,-494.83 368.55,-501.83 373.45,-501.83"/>
</g>
<!-- R&#45;148&#45;&gt;C&#45;0402 -->
<g id="edge8" class="edge">
<title>R&#45;148&#45;&gt;C&#45;0402</title>
<path fill="none" stroke="dimgray" stroke-width="0.8" d="M396.15,-582C473.18,-582 587.5,-582 587.5,-582 587.5,-582 587.5,-513.12 587.5,-513.12"/>
<polygon fill="dimgray" stroke="dimgray" stroke-width="0.8" points="589.95,-513.12 587.5,-506.12 585.05,-513.12 589.95,-513.12"/>
</g>
<!-- ext_circ_112_23_ -->
<g id="node20" class="node">
<title>ext_circ_112_23_</title>
<polygon fill="lightpink" stroke="red" stroke-dasharray="5,2" points="159,-886 22,-886 22,-850 159,-850 159,-886"/>
<text text-anchor="middle" x="90.5" y="-870.6" font-family="Helvetica,sans-Serif" font-size="8.00">Circuito:</text>
<text text-anchor="middle" x="90.5" y="-861.6" font-family="Helvetica,sans-Serif" font-size="8.00">112&#45;23&#45;</text>
</g>
<!-- C&#45;0332&#45;&gt;ext_circ_112_23_ -->
<g id="edge22" class="edge">
<title>C&#45;0332&#45;&gt;ext_circ_112_23_</title>
<path fill="none" stroke="red" stroke-width="0.8" stroke-dasharray="5,2" d="M148,-122.4C148,-122.4 148,-842.71 148,-842.71"/>
<polygon fill="red" stroke="red" stroke-width="0.8" points="145.55,-842.71 148,-849.71 150.45,-842.71 145.55,-842.71"/>
</g>
<!-- S&#45;1093&#45;&gt;R&#45;092 -->
<g id="edge14" class="edge">
<title>S&#45;1093&#45;&gt;R&#45;092</title>
<path fill="none" stroke="dimgray" stroke-width="0.8" d="M680,-105.24C680,-105.24 680,-39.15 680,-39.15"/>
<polygon fill="dimgray" stroke="dimgray" stroke-width="0.8" points="682.45,-39.15 680,-32.15 677.55,-39.15 682.45,-39.15"/>
</g>
<!-- S&#45;1093&#45;&gt;C&#45;1262 -->
<g id="edge13" class="edge">
<title>S&#45;1093&#45;&gt;C&#45;1262</title>
<path fill="none" stroke="dimgray" stroke-width="0.8" d="M766.5,-105.24C766.5,-105.24 766.5,-39.15 766.5,-39.15"/>
<polygon fill="dimgray" stroke="dimgray" stroke-width="0.8" points="768.95,-39.15 766.5,-32.15 764.05,-39.15 768.95,-39.15"/>
</g>
<!-- C&#45;0403&#45;&gt;S&#45;1197 -->
<g id="edge11" class="edge">
<title>C&#45;0403&#45;&gt;S&#45;1197</title>
<path fill="none" stroke="dimgray" stroke-width="0.8" d="M525.5,-292.31C525.5,-292.31 525.5,-214.87 525.5,-214.87"/>
<polygon fill="dimgray" stroke="dimgray" stroke-width="0.8" points="527.95,-214.87 525.5,-207.87 523.05,-214.87 527.95,-214.87"/>
</g>
<!-- C&#45;0403&#45;&gt;S&#45;1227 -->
<g id="edge18" class="edge">
<title>C&#45;0403&#45;&gt;S&#45;1227</title>
<path fill="none" stroke="dimgray" stroke-width="0.8" d="M612,-282.76C612,-282.76 612,-224.78 612,-224.78"/>
<polygon fill="dimgray" stroke="dimgray" stroke-width="0.8" points="614.45,-224.78 612,-217.78 609.55,-224.78 614.45,-224.78"/>
</g>
</g>
</svg>
