<?xml version="1.0" encoding="UTF-8" standalone="no"?>
<!DOCTYPE svg PUBLIC "-//W3C//DTD SVG 1.1//EN"
 "http://www.w3.org/Graphics/SVG/1.1/DTD/svg11.dtd">
<!-- Generated by graphviz version 2.50.0 (0)
 -->
<!-- Title: Grafo_Circuito_205_22_ Pages: 1 -->
<svg width="2378pt" height="1574pt"
 viewBox="0.00 0.00 2378.00 1574.00" xmlns="http://www.w3.org/2000/svg" xmlns:xlink="http://www.w3.org/1999/xlink">
<g id="graph0" class="graph" transform="scale(1 1) rotate(0) translate(4 1570)">
<title>Grafo_Circuito_205_22_</title>
<polygon fill="white" stroke="transparent" points="-4,4 -4,-1570 2374,-1570 2374,4 -4,4"/>
<!-- C&#45;0845 -->
<g id="node1" class="node">
<title>C&#45;0845</title>
<ellipse fill="mediumseagreen" stroke="black" cx="1155" cy="-930.5" rx="72" ry="21.5"/>
<text text-anchor="middle" x="1155" y="-928" font-family="Arial" font-size="10.00">C&#45;0845</text>
</g>
<!-- R&#45;192 -->
<g id="node39" class="node">
<title>R&#45;192</title>
<polygon fill="mediumseagreen" stroke="black" points="1783,-820.59 1783,-838.41 1740.82,-851 1681.18,-851 1639,-838.41 1639,-820.59 1681.18,-808 1740.82,-808 1783,-820.59"/>
<text text-anchor="middle" x="1711" y="-827" font-family="Arial" font-size="10.00">R&#45;192</text>
</g>
<!-- C&#45;0845&#45;&gt;R&#45;192 -->
<g id="edge17" class="edge">
<title>C&#45;0845&#45;&gt;R&#45;192</title>
<path fill="none" stroke="#4d4d4d" d="M1227.01,-930C1231.54,-930 1234.33,-930 1234.33,-930 1234.33,-930 1234.33,-829 1234.33,-829 1234.33,-829 1631.86,-829 1631.86,-829"/>
<polygon fill="#4d4d4d" stroke="#4d4d4d" points="1631.86,-831.45 1638.86,-829 1631.86,-826.55 1631.86,-831.45"/>
</g>
<!-- S&#45;1545 -->
<g id="node2" class="node">
<title>S&#45;1545</title>
<polygon fill="mediumseagreen" stroke="black" points="425,-346 353,-324.5 425,-303 497,-324.5 425,-346"/>
<text text-anchor="middle" x="425" y="-322" font-family="Arial" font-size="10.00">S&#45;1545</text>
</g>
<!-- S&#45;1546 -->
<g id="node20" class="node">
<title>S&#45;1546</title>
<polygon fill="mediumseagreen" stroke="black" points="245,-245 173,-223.5 245,-202 317,-223.5 245,-245"/>
<text text-anchor="middle" x="245" y="-221" font-family="Arial" font-size="10.00">S&#45;1546</text>
</g>
<!-- S&#45;1545&#45;&gt;S&#45;1546 -->
<g id="edge56" class="edge">
<title>S&#45;1545&#45;&gt;S&#45;1546</title>
<path fill="none" stroke="#4d4d4d" d="M354.58,-324C305.95,-324 250,-324 250,-324 250,-324 250,-250.84 250,-250.84"/>
<polygon fill="#4d4d4d" stroke="#4d4d4d" points="252.45,-250.84 250,-243.84 247.55,-250.84 252.45,-250.84"/>
</g>
<!-- C&#45;1082 -->
<g id="node51" class="node">
<title>C&#45;1082</title>
<ellipse fill="mediumseagreen" stroke="black" cx="425" cy="-223.5" rx="72" ry="21.5"/>
<text text-anchor="middle" x="425" y="-221" font-family="Arial" font-size="10.00">C&#45;1082</text>
</g>
<!-- S&#45;1545&#45;&gt;C&#45;1082 -->
<g id="edge54" class="edge">
<title>S&#45;1545&#45;&gt;C&#45;1082</title>
<path fill="none" stroke="#4d4d4d" d="M425,-302.58C425,-302.58 425,-252.03 425,-252.03"/>
<polygon fill="#4d4d4d" stroke="#4d4d4d" points="427.45,-252.03 425,-245.03 422.55,-252.03 427.45,-252.03"/>
</g>
<!-- C&#45;0007 -->
<g id="node53" class="node">
<title>C&#45;0007</title>
<ellipse fill="tomato" stroke="black" cx="605" cy="-223.5" rx="72" ry="21.5"/>
<text text-anchor="middle" x="605" y="-221" font-family="Arial" font-size="10.00">C&#45;0007</text>
</g>
<!-- S&#45;1545&#45;&gt;C&#45;0007 -->
<g id="edge53" class="edge">
<title>S&#45;1545&#45;&gt;C&#45;0007</title>
<path fill="none" stroke="#4d4d4d" d="M495.37,-324C545.85,-324 605,-324 605,-324 605,-324 605,-252.31 605,-252.31"/>
<polygon fill="#4d4d4d" stroke="#4d4d4d" points="607.45,-252.31 605,-245.31 602.55,-252.31 607.45,-252.31"/>
</g>
<!-- S&#45;1284 -->
<g id="node3" class="node">
<title>S&#45;1284</title>
<polygon fill="mediumseagreen" stroke="black" points="1110,-1255 1038,-1233.5 1110,-1212 1182,-1233.5 1110,-1255"/>
<text text-anchor="middle" x="1110" y="-1231" font-family="Arial" font-size="10.00">S&#45;1284</text>
</g>
<!-- S&#45;2510 -->
<g id="node4" class="node">
<title>S&#45;2510</title>
<polygon fill="mediumseagreen" stroke="black" points="660,-1154 588,-1132.5 660,-1111 732,-1132.5 660,-1154"/>
<text text-anchor="middle" x="660" y="-1130" font-family="Arial" font-size="10.00">S&#45;2510</text>
</g>
<!-- S&#45;1284&#45;&gt;S&#45;2510 -->
<g id="edge30" class="edge">
<title>S&#45;1284&#45;&gt;S&#45;2510</title>
<path fill="none" stroke="#4d4d4d" d="M1059.69,-1240C942.26,-1240 660,-1240 660,-1240 660,-1240 660,-1161.25 660,-1161.25"/>
<polygon fill="#4d4d4d" stroke="#4d4d4d" points="662.45,-1161.25 660,-1154.25 657.55,-1161.25 662.45,-1161.25"/>
</g>
<!-- S&#45;2452 -->
<g id="node7" class="node">
<title>S&#45;2452</title>
<polygon fill="mediumseagreen" stroke="black" points="840,-1154 768,-1132.5 840,-1111 912,-1132.5 840,-1154"/>
<text text-anchor="middle" x="840" y="-1130" font-family="Arial" font-size="10.00">S&#45;2452</text>
</g>
<!-- S&#45;1284&#45;&gt;S&#45;2452 -->
<g id="edge33" class="edge">
<title>S&#45;1284&#45;&gt;S&#45;2452</title>
<path fill="none" stroke="#4d4d4d" d="M1062.97,-1226C985.61,-1226 840,-1226 840,-1226 840,-1226 840,-1161.19 840,-1161.19"/>
<polygon fill="#4d4d4d" stroke="#4d4d4d" points="842.45,-1161.19 840,-1154.19 837.55,-1161.19 842.45,-1161.19"/>
</g>
<!-- S&#45;1285 -->
<g id="node12" class="node">
<title>S&#45;1285</title>
<polygon fill="mediumseagreen" stroke="black" points="1020,-1154 948,-1132.5 1020,-1111 1092,-1132.5 1020,-1154"/>
<text text-anchor="middle" x="1020" y="-1130" font-family="Arial" font-size="10.00">S&#45;1285</text>
</g>
<!-- S&#45;1284&#45;&gt;S&#45;1285 -->
<g id="edge7" class="edge">
<title>S&#45;1284&#45;&gt;S&#45;1285</title>
<path fill="none" stroke="#4d4d4d" d="M1065,-1225.23C1065,-1225.23 1065,-1147.6 1065,-1147.6"/>
<polygon fill="#4d4d4d" stroke="#4d4d4d" points="1067.45,-1147.6 1065,-1140.6 1062.55,-1147.6 1067.45,-1147.6"/>
</g>
<!-- S&#45;353 -->
<g id="node14" class="node">
<title>S&#45;353</title>
<polygon fill="mediumseagreen" stroke="black" points="1200,-1154 1128,-1132.5 1200,-1111 1272,-1132.5 1200,-1154"/>
<text text-anchor="middle" x="1200" y="-1130" font-family="Arial" font-size="10.00">S&#45;353</text>
</g>
<!-- S&#45;1284&#45;&gt;S&#45;353 -->
<g id="edge32" class="edge">
<title>S&#45;1284&#45;&gt;S&#45;353</title>
<path fill="none" stroke="#4d4d4d" d="M1141.5,-1221.12C1141.5,-1221.12 1141.5,-1143.65 1141.5,-1143.65"/>
<polygon fill="#4d4d4d" stroke="#4d4d4d" points="1143.95,-1143.65 1141.5,-1136.65 1139.05,-1143.65 1143.95,-1143.65"/>
</g>
<!-- R&#45;048 -->
<g id="node15" class="node">
<title>R&#45;048</title>
<polygon fill="mediumseagreen" stroke="black" points="1542,-1123.59 1542,-1141.41 1499.82,-1154 1440.18,-1154 1398,-1141.41 1398,-1123.59 1440.18,-1111 1499.82,-1111 1542,-1123.59"/>
<text text-anchor="middle" x="1470" y="-1130" font-family="Arial" font-size="10.00">R&#45;048</text>
</g>
<!-- S&#45;1284&#45;&gt;R&#45;048 -->
<g id="edge8" class="edge">
<title>S&#45;1284&#45;&gt;R&#45;048</title>
<path fill="none" stroke="#4d4d4d" d="M1155,-1225.34C1155,-1208.83 1155,-1173 1155,-1173 1155,-1173 1470,-1173 1470,-1173 1470,-1173 1470,-1161.17 1470,-1161.17"/>
<polygon fill="#4d4d4d" stroke="#4d4d4d" points="1472.45,-1161.17 1470,-1154.17 1467.55,-1161.17 1472.45,-1161.17"/>
</g>
<!-- S&#45;1203 -->
<g id="node29" class="node">
<title>S&#45;1203</title>
<polygon fill="mediumseagreen" stroke="black" points="1650,-1154 1578,-1132.5 1650,-1111 1722,-1132.5 1650,-1154"/>
<text text-anchor="middle" x="1650" y="-1130" font-family="Arial" font-size="10.00">S&#45;1203</text>
</g>
<!-- S&#45;1284&#45;&gt;S&#45;1203 -->
<g id="edge31" class="edge">
<title>S&#45;1284&#45;&gt;S&#45;1203</title>
<path fill="none" stroke="#4d4d4d" d="M1168.5,-1229.37C1168.5,-1218.87 1168.5,-1192 1168.5,-1192 1168.5,-1192 1650,-1192 1650,-1192 1650,-1192 1650,-1161.32 1650,-1161.32"/>
<polygon fill="#4d4d4d" stroke="#4d4d4d" points="1652.45,-1161.32 1650,-1154.32 1647.55,-1161.32 1652.45,-1161.32"/>
</g>
<!-- S&#45;2359 -->
<g id="node5" class="node">
<title>S&#45;2359</title>
<polygon fill="mediumseagreen" stroke="black" points="255,-851 183,-829.5 255,-808 327,-829.5 255,-851"/>
<text text-anchor="middle" x="255" y="-827" font-family="Arial" font-size="10.00">S&#45;2359</text>
</g>
<!-- C&#45;0568 -->
<g id="node6" class="node">
<title>C&#45;0568</title>
<ellipse fill="tomato" stroke="black" cx="615" cy="-829.5" rx="72" ry="21.5"/>
<text text-anchor="middle" x="615" y="-827" font-family="Arial" font-size="10.00">C&#45;0568</text>
</g>
<!-- C&#45;0570 -->
<g id="node33" class="node">
<title>C&#45;0570</title>
<ellipse fill="mediumseagreen" stroke="black" cx="788" cy="-627.5" rx="72" ry="21.5"/>
<text text-anchor="middle" x="788" y="-625" font-family="Arial" font-size="10.00">C&#45;0570</text>
</g>
<!-- C&#45;0568&#45;&gt;C&#45;0570 -->
<g id="edge67" class="edge">
<title>C&#45;0568&#45;&gt;C&#45;0570</title>
<path fill="none" stroke="blue" stroke-dasharray="5,2" d="M682,-821.27C682,-784.62 682,-638 682,-638 682,-638 718.11,-638 718.11,-638"/>
<polygon fill="blue" stroke="blue" points="718.11,-640.45 725.11,-638 718.11,-635.55 718.11,-640.45"/>
</g>
<!-- S&#45;2525 -->
<g id="node8" class="node">
<title>S&#45;2525</title>
<polygon fill="mediumseagreen" stroke="black" points="1325,-548 1253,-526.5 1325,-505 1397,-526.5 1325,-548"/>
<text text-anchor="middle" x="1325" y="-524" font-family="Arial" font-size="10.00">S&#45;2525</text>
</g>
<!-- C&#45;0847 -->
<g id="node9" class="node">
<title>C&#45;0847</title>
<ellipse fill="mediumseagreen" stroke="black" cx="1774" cy="-728.5" rx="72" ry="21.5"/>
<text text-anchor="middle" x="1774" y="-726" font-family="Arial" font-size="10.00">C&#45;0847</text>
</g>
<!-- S&#45;2139 -->
<g id="node13" class="node">
<title>S&#45;2139</title>
<polygon fill="mediumseagreen" stroke="black" points="1324,-649 1252,-627.5 1324,-606 1396,-627.5 1324,-649"/>
<text text-anchor="middle" x="1324" y="-625" font-family="Arial" font-size="10.00">S&#45;2139</text>
</g>
<!-- C&#45;0847&#45;&gt;S&#45;2139 -->
<g id="edge27" class="edge">
<title>C&#45;0847&#45;&gt;S&#45;2139</title>
<path fill="none" stroke="#4d4d4d" d="M1701.72,-728C1593.94,-728 1403.67,-728 1403.67,-728 1403.67,-728 1403.67,-627 1403.67,-627 1403.67,-627 1401.53,-627 1401.53,-627"/>
<polygon fill="#4d4d4d" stroke="#4d4d4d" points="1401.53,-624.55 1394.53,-627 1401.53,-629.45 1401.53,-624.55"/>
</g>
<!-- S&#45;2141 -->
<g id="node18" class="node">
<title>S&#45;2141</title>
<polygon fill="mediumseagreen" stroke="black" points="1504,-649 1432,-627.5 1504,-606 1576,-627.5 1504,-649"/>
<text text-anchor="middle" x="1504" y="-625" font-family="Arial" font-size="10.00">S&#45;2141</text>
</g>
<!-- C&#45;0847&#45;&gt;S&#45;2141 -->
<g id="edge23" class="edge">
<title>C&#45;0847&#45;&gt;S&#45;2141</title>
<path fill="none" stroke="#4d4d4d" d="M1712.99,-717C1634.87,-717 1509.5,-717 1509.5,-717 1509.5,-717 1509.5,-654.36 1509.5,-654.36"/>
<polygon fill="#4d4d4d" stroke="#4d4d4d" points="1511.95,-654.36 1509.5,-647.36 1507.05,-654.36 1511.95,-654.36"/>
</g>
<!-- S&#45;1118 -->
<g id="node19" class="node">
<title>S&#45;1118</title>
<polygon fill="mediumseagreen" stroke="black" points="1684,-649 1612,-627.5 1684,-606 1756,-627.5 1684,-649"/>
<text text-anchor="middle" x="1684" y="-625" font-family="Arial" font-size="10.00">S&#45;1118</text>
</g>
<!-- C&#45;0847&#45;&gt;S&#45;1118 -->
<g id="edge20" class="edge">
<title>C&#45;0847&#45;&gt;S&#45;1118</title>
<path fill="none" stroke="#4d4d4d" d="M1729,-711.37C1729,-711.37 1729,-642.78 1729,-642.78"/>
<polygon fill="#4d4d4d" stroke="#4d4d4d" points="1731.45,-642.78 1729,-635.78 1726.55,-642.78 1731.45,-642.78"/>
</g>
<!-- S&#45;2339 -->
<g id="node23" class="node">
<title>S&#45;2339</title>
<polygon fill="mediumseagreen" stroke="black" points="1864,-649 1792,-627.5 1864,-606 1936,-627.5 1864,-649"/>
<text text-anchor="middle" x="1864" y="-625" font-family="Arial" font-size="10.00">S&#45;2339</text>
</g>
<!-- C&#45;0847&#45;&gt;S&#45;2339 -->
<g id="edge19" class="edge">
<title>C&#45;0847&#45;&gt;S&#45;2339</title>
<path fill="none" stroke="#4d4d4d" d="M1819,-711.37C1819,-711.37 1819,-642.78 1819,-642.78"/>
<polygon fill="#4d4d4d" stroke="#4d4d4d" points="1821.45,-642.78 1819,-635.78 1816.55,-642.78 1821.45,-642.78"/>
</g>
<!-- C&#45;0739 -->
<g id="node37" class="node">
<title>C&#45;0739</title>
<ellipse fill="mediumseagreen" stroke="black" cx="2044" cy="-627.5" rx="72" ry="21.5"/>
<text text-anchor="middle" x="2044" y="-625" font-family="Arial" font-size="10.00">C&#45;0739</text>
</g>
<!-- C&#45;0847&#45;&gt;C&#45;0739 -->
<g id="edge24" class="edge">
<title>C&#45;0847&#45;&gt;C&#45;0739</title>
<path fill="none" stroke="#4d4d4d" d="M1834.92,-717C1909.78,-717 2027,-717 2027,-717 2027,-717 2027,-655.71 2027,-655.71"/>
<polygon fill="#4d4d4d" stroke="#4d4d4d" points="2029.45,-655.71 2027,-648.71 2024.55,-655.71 2029.45,-655.71"/>
</g>
<!-- C&#45;0295 -->
<g id="node50" class="node">
<title>C&#45;0295</title>
<ellipse fill="tomato" stroke="black" cx="2197" cy="-526.5" rx="72" ry="21.5"/>
<text text-anchor="middle" x="2197" y="-524" font-family="Arial" font-size="10.00">C&#45;0295</text>
</g>
<!-- C&#45;0847&#45;&gt;C&#45;0295 -->
<g id="edge26" class="edge">
<title>C&#45;0847&#45;&gt;C&#45;0295</title>
<path fill="none" stroke="#4d4d4d" d="M1846.24,-728C1961.84,-728 2175.5,-728 2175.5,-728 2175.5,-728 2175.5,-554.31 2175.5,-554.31"/>
<polygon fill="#4d4d4d" stroke="#4d4d4d" points="2177.95,-554.31 2175.5,-547.31 2173.05,-554.31 2177.95,-554.31"/>
</g>
<!-- S&#45;2140 -->
<g id="node58" class="node">
<title>S&#45;2140</title>
<polygon fill="mediumseagreen" stroke="black" points="2298,-649 2226,-627.5 2298,-606 2370,-627.5 2298,-649"/>
<text text-anchor="middle" x="2298" y="-625" font-family="Arial" font-size="10.00">S&#45;2140</text>
</g>
<!-- C&#45;0847&#45;&gt;S&#45;2140 -->
<g id="edge22" class="edge">
<title>C&#45;0847&#45;&gt;S&#45;2140</title>
<path fill="none" stroke="#4d4d4d" d="M1836.95,-739C1976.17,-739 2298,-739 2298,-739 2298,-739 2298,-656.26 2298,-656.26"/>
<polygon fill="#4d4d4d" stroke="#4d4d4d" points="2300.45,-656.26 2298,-649.26 2295.55,-656.26 2300.45,-656.26"/>
</g>
<!-- S&#45;1544 -->
<g id="node10" class="node">
<title>S&#45;1544</title>
<polygon fill="mediumseagreen" stroke="black" points="425,-447 353,-425.5 425,-404 497,-425.5 425,-447"/>
<text text-anchor="middle" x="425" y="-423" font-family="Arial" font-size="10.00">S&#45;1544</text>
</g>
<!-- S&#45;1544&#45;&gt;S&#45;1545 -->
<g id="edge52" class="edge">
<title>S&#45;1544&#45;&gt;S&#45;1545</title>
<path fill="none" stroke="#4d4d4d" d="M425,-403.58C425,-403.58 425,-353.03 425,-353.03"/>
<polygon fill="#4d4d4d" stroke="#4d4d4d" points="427.45,-353.03 425,-346.03 422.55,-353.03 427.45,-353.03"/>
</g>
<!-- C&#45;0569 -->
<g id="node11" class="node">
<title>C&#45;0569</title>
<ellipse fill="mediumseagreen" stroke="black" cx="795" cy="-829.5" rx="72" ry="21.5"/>
<text text-anchor="middle" x="795" y="-827" font-family="Arial" font-size="10.00">C&#45;0569</text>
</g>
<!-- R&#45;104 -->
<g id="node35" class="node">
<title>R&#45;104</title>
<polygon fill="mediumseagreen" stroke="black" points="860,-719.59 860,-737.41 817.82,-750 758.18,-750 716,-737.41 716,-719.59 758.18,-707 817.82,-707 860,-719.59"/>
<text text-anchor="middle" x="788" y="-726" font-family="Arial" font-size="10.00">R&#45;104</text>
</g>
<!-- C&#45;0569&#45;&gt;R&#45;104 -->
<g id="edge46" class="edge">
<title>C&#45;0569&#45;&gt;R&#45;104</title>
<path fill="none" stroke="#4d4d4d" d="M791.5,-807.58C791.5,-807.58 791.5,-757.03 791.5,-757.03"/>
<polygon fill="#4d4d4d" stroke="#4d4d4d" points="793.95,-757.03 791.5,-750.03 789.05,-757.03 793.95,-757.03"/>
</g>
<!-- S&#45;2139&#45;&gt;S&#45;2525 -->
<g id="edge28" class="edge">
<title>S&#45;2139&#45;&gt;S&#45;2525</title>
<path fill="none" stroke="#4d4d4d" d="M1324.5,-606.08C1324.5,-606.08 1324.5,-554.89 1324.5,-554.89"/>
<polygon fill="#4d4d4d" stroke="#4d4d4d" points="1326.95,-554.89 1324.5,-547.89 1322.05,-554.89 1326.95,-554.89"/>
</g>
<!-- S&#45;2250 -->
<g id="node24" class="node">
<title>S&#45;2250</title>
<polygon fill="mediumseagreen" stroke="black" points="840,-1053 768,-1031.5 840,-1010 912,-1031.5 840,-1053"/>
<text text-anchor="middle" x="840" y="-1029" font-family="Arial" font-size="10.00">S&#45;2250</text>
</g>
<!-- S&#45;353&#45;&gt;S&#45;2250 -->
<g id="edge34" class="edge">
<title>S&#45;353&#45;&gt;S&#45;2250</title>
<path fill="none" stroke="#4d4d4d" d="M1158,-1123.24C1158,-1108.66 1158,-1082 1158,-1082 1158,-1082 840,-1082 840,-1082 840,-1082 840,-1060.21 840,-1060.21"/>
<polygon fill="#4d4d4d" stroke="#4d4d4d" points="842.45,-1060.21 840,-1053.21 837.55,-1060.21 842.45,-1060.21"/>
</g>
<!-- C&#45;0418 -->
<g id="node62" class="node">
<title>C&#45;0418</title>
<ellipse fill="mediumseagreen" stroke="black" cx="1020" cy="-1031.5" rx="72" ry="21.5"/>
<text text-anchor="middle" x="1020" y="-1029" font-family="Arial" font-size="10.00">C&#45;0418</text>
</g>
<!-- S&#45;353&#45;&gt;C&#45;0418 -->
<g id="edge35" class="edge">
<title>S&#45;353&#45;&gt;C&#45;0418</title>
<path fill="none" stroke="#4d4d4d" d="M1188,-1114.35C1188,-1085.16 1188,-1031 1188,-1031 1188,-1031 1099.22,-1031 1099.22,-1031"/>
<polygon fill="#4d4d4d" stroke="#4d4d4d" points="1099.22,-1028.55 1092.22,-1031 1099.22,-1033.45 1099.22,-1028.55"/>
</g>
<!-- C&#45;0298 -->
<g id="node16" class="node">
<title>C&#45;0298</title>
<ellipse fill="mediumseagreen" stroke="black" cx="1290" cy="-1031.5" rx="72" ry="21.5"/>
<text text-anchor="middle" x="1290" y="-1029" font-family="Arial" font-size="10.00">C&#45;0298</text>
</g>
<!-- R&#45;048&#45;&gt;C&#45;0298 -->
<g id="edge13" class="edge">
<title>R&#45;048&#45;&gt;C&#45;0298</title>
<path fill="none" stroke="#4d4d4d" d="M1397.98,-1132C1358.3,-1132 1317,-1132 1317,-1132 1317,-1132 1317,-1058.84 1317,-1058.84"/>
<polygon fill="#4d4d4d" stroke="#4d4d4d" points="1319.45,-1058.84 1317,-1051.84 1314.55,-1058.84 1319.45,-1058.84"/>
</g>
<!-- S&#45;2130 -->
<g id="node17" class="node">
<title>S&#45;2130</title>
<polygon fill="mediumseagreen" stroke="black" points="1470,-1053 1398,-1031.5 1470,-1010 1542,-1031.5 1470,-1053"/>
<text text-anchor="middle" x="1470" y="-1029" font-family="Arial" font-size="10.00">S&#45;2130</text>
</g>
<!-- R&#45;048&#45;&gt;S&#45;2130 -->
<g id="edge9" class="edge">
<title>R&#45;048&#45;&gt;S&#45;2130</title>
<path fill="none" stroke="#4d4d4d" d="M1434,-1112.55C1434,-1112.55 1434,-1049.38 1434,-1049.38"/>
<polygon fill="#4d4d4d" stroke="#4d4d4d" points="1436.45,-1049.38 1434,-1042.38 1431.55,-1049.38 1436.45,-1049.38"/>
</g>
<!-- S&#45;1847 -->
<g id="node30" class="node">
<title>S&#45;1847</title>
<polygon fill="mediumseagreen" stroke="black" points="1650,-1053 1578,-1031.5 1650,-1010 1722,-1031.5 1650,-1053"/>
<text text-anchor="middle" x="1650" y="-1029" font-family="Arial" font-size="10.00">S&#45;1847</text>
</g>
<!-- R&#45;048&#45;&gt;S&#45;1847 -->
<g id="edge12" class="edge">
<title>R&#45;048&#45;&gt;S&#45;1847</title>
<path fill="none" stroke="#4d4d4d" d="M1542.22,-1132C1552.68,-1132 1560,-1132 1560,-1132 1560,-1132 1560,-1031 1560,-1031 1560,-1031 1572.53,-1031 1572.53,-1031"/>
<polygon fill="#4d4d4d" stroke="#4d4d4d" points="1572.53,-1033.45 1579.53,-1031 1572.53,-1028.55 1572.53,-1033.45"/>
</g>
<!-- S&#45;1769 -->
<g id="node45" class="node">
<title>S&#45;1769</title>
<polygon fill="mediumseagreen" stroke="black" points="1830,-1053 1758,-1031.5 1830,-1010 1902,-1031.5 1830,-1053"/>
<text text-anchor="middle" x="1830" y="-1029" font-family="Arial" font-size="10.00">S&#45;1769</text>
</g>
<!-- R&#45;048&#45;&gt;S&#45;1769 -->
<g id="edge29" class="edge">
<title>R&#45;048&#45;&gt;S&#45;1769</title>
<path fill="none" stroke="#4d4d4d" d="M1470,-1110.69C1470,-1091.64 1470,-1067 1470,-1067 1470,-1067 1830,-1067 1830,-1067 1830,-1067 1830,-1060.38 1830,-1060.38"/>
<polygon fill="#4d4d4d" stroke="#4d4d4d" points="1832.45,-1060.38 1830,-1053.38 1827.55,-1060.38 1832.45,-1060.38"/>
</g>
<!-- S&#45;352 -->
<g id="node55" class="node">
<title>S&#45;352</title>
<polygon fill="mediumseagreen" stroke="black" points="2010,-1053 1938,-1031.5 2010,-1010 2082,-1031.5 2010,-1053"/>
<text text-anchor="middle" x="2010" y="-1029" font-family="Arial" font-size="10.00">S&#45;352</text>
</g>
<!-- R&#45;048&#45;&gt;S&#45;352 -->
<g id="edge11" class="edge">
<title>R&#45;048&#45;&gt;S&#45;352</title>
<path fill="none" stroke="#4d4d4d" d="M1506,-1112.54C1506,-1104.02 1506,-1096 1506,-1096 1506,-1096 2010,-1096 2010,-1096 2010,-1096 2010,-1060.34 2010,-1060.34"/>
<polygon fill="#4d4d4d" stroke="#4d4d4d" points="2012.45,-1060.34 2010,-1053.34 2007.55,-1060.34 2012.45,-1060.34"/>
</g>
<!-- C&#45;0298&#45;&gt;C&#45;0845 -->
<g id="edge15" class="edge">
<title>C&#45;0298&#45;&gt;C&#45;0845</title>
<path fill="none" stroke="#4d4d4d" d="M1222.5,-1023.91C1222.5,-1023.91 1222.5,-945.18 1222.5,-945.18"/>
<polygon fill="#4d4d4d" stroke="#4d4d4d" points="1224.95,-945.18 1222.5,-938.18 1220.05,-945.18 1224.95,-945.18"/>
</g>
<!-- C&#45;0846 -->
<g id="node41" class="node">
<title>C&#45;0846</title>
<ellipse fill="tomato" stroke="black" cx="1335" cy="-930.5" rx="72" ry="21.5"/>
<text text-anchor="middle" x="1335" y="-928" font-family="Arial" font-size="10.00">C&#45;0846</text>
</g>
<!-- C&#45;0298&#45;&gt;C&#45;0846 -->
<g id="edge16" class="edge">
<title>C&#45;0298&#45;&gt;C&#45;0846</title>
<path fill="none" stroke="#4d4d4d" d="M1296,-1009.58C1296,-1009.58 1296,-955.66 1296,-955.66"/>
<polygon fill="#4d4d4d" stroke="#4d4d4d" points="1298.45,-955.66 1296,-948.66 1293.55,-955.66 1298.45,-955.66"/>
</g>
<!-- S&#45;2198 -->
<g id="node44" class="node">
<title>S&#45;2198</title>
<polygon fill="mediumseagreen" stroke="black" points="1515,-952 1443,-930.5 1515,-909 1587,-930.5 1515,-952"/>
<text text-anchor="middle" x="1515" y="-928" font-family="Arial" font-size="10.00">S&#45;2198</text>
</g>
<!-- C&#45;0298&#45;&gt;S&#45;2198 -->
<g id="edge14" class="edge">
<title>C&#45;0298&#45;&gt;S&#45;2198</title>
<path fill="none" stroke="#4d4d4d" d="M1329,-1013.25C1329,-993.87 1329,-966 1329,-966 1329,-966 1476,-966 1476,-966 1476,-966 1476,-947.58 1476,-947.58"/>
<polygon fill="#4d4d4d" stroke="#4d4d4d" points="1478.45,-947.58 1476,-940.58 1473.55,-947.58 1478.45,-947.58"/>
</g>
<!-- S&#45;2341 -->
<g id="node57" class="node">
<title>S&#45;2341</title>
<polygon fill="mediumseagreen" stroke="black" points="1695,-952 1623,-930.5 1695,-909 1767,-930.5 1695,-952"/>
<text text-anchor="middle" x="1695" y="-928" font-family="Arial" font-size="10.00">S&#45;2341</text>
</g>
<!-- S&#45;2130&#45;&gt;S&#45;2341 -->
<g id="edge10" class="edge">
<title>S&#45;2130&#45;&gt;S&#45;2341</title>
<path fill="none" stroke="#4d4d4d" d="M1509,-1021.28C1509,-1006.52 1509,-981 1509,-981 1509,-981 1672.5,-981 1672.5,-981 1672.5,-981 1672.5,-952.38 1672.5,-952.38"/>
<polygon fill="#4d4d4d" stroke="#4d4d4d" points="1674.95,-952.38 1672.5,-945.38 1670.05,-952.38 1674.95,-952.38"/>
</g>
<!-- S&#45;2451 -->
<g id="node56" class="node">
<title>S&#45;2451</title>
<polygon fill="mediumseagreen" stroke="black" points="1684,-548 1612,-526.5 1684,-505 1756,-526.5 1684,-548"/>
<text text-anchor="middle" x="1684" y="-524" font-family="Arial" font-size="10.00">S&#45;2451</text>
</g>
<!-- S&#45;1118&#45;&gt;S&#45;2451 -->
<g id="edge21" class="edge">
<title>S&#45;1118&#45;&gt;S&#45;2451</title>
<path fill="none" stroke="#4d4d4d" d="M1684,-605.58C1684,-605.58 1684,-555.03 1684,-555.03"/>
<polygon fill="#4d4d4d" stroke="#4d4d4d" points="1686.45,-555.03 1684,-548.03 1681.55,-555.03 1686.45,-555.03"/>
</g>
<!-- S&#45;1593 -->
<g id="node32" class="node">
<title>S&#45;1593</title>
<polygon fill="mediumseagreen" stroke="black" points="72,-144 0,-122.5 72,-101 144,-122.5 72,-144"/>
<text text-anchor="middle" x="72" y="-120" font-family="Arial" font-size="10.00">S&#45;1593</text>
</g>
<!-- S&#45;1546&#45;&gt;S&#45;1593 -->
<g id="edge57" class="edge">
<title>S&#45;1546&#45;&gt;S&#45;1593</title>
<path fill="none" stroke="#4d4d4d" d="M176.5,-222.36C176.5,-211.21 176.5,-122 176.5,-122 176.5,-122 149.57,-122 149.57,-122"/>
<polygon fill="#4d4d4d" stroke="#4d4d4d" points="149.57,-119.55 142.57,-122 149.57,-124.45 149.57,-119.55"/>
</g>
<!-- S&#45;1594 -->
<g id="node48" class="node">
<title>S&#45;1594</title>
<polygon fill="mediumseagreen" stroke="black" points="252,-144 180,-122.5 252,-101 324,-122.5 252,-144"/>
<text text-anchor="middle" x="252" y="-120" font-family="Arial" font-size="10.00">S&#45;1594</text>
</g>
<!-- S&#45;1546&#45;&gt;S&#45;1594 -->
<g id="edge58" class="edge">
<title>S&#45;1546&#45;&gt;S&#45;1594</title>
<path fill="none" stroke="#4d4d4d" d="M248.5,-202.57C248.5,-202.57 248.5,-150.05 248.5,-150.05"/>
<polygon fill="#4d4d4d" stroke="#4d4d4d" points="250.95,-150.05 248.5,-143.05 246.05,-150.05 250.95,-150.05"/>
</g>
<!-- S&#45;1235 -->
<g id="node21" class="node">
<title>S&#45;1235</title>
<polygon fill="mediumseagreen" stroke="black" points="605,-447 533,-425.5 605,-404 677,-425.5 605,-447"/>
<text text-anchor="middle" x="605" y="-423" font-family="Arial" font-size="10.00">S&#45;1235</text>
</g>
<!-- S&#45;739 -->
<g id="node22" class="node">
<title>S&#45;739</title>
<polygon fill="mediumseagreen" stroke="black" points="1110,-1356 1038,-1334.5 1110,-1313 1182,-1334.5 1110,-1356"/>
<text text-anchor="middle" x="1110" y="-1332" font-family="Arial" font-size="10.00">S&#45;739</text>
</g>
<!-- S&#45;431 -->
<g id="node25" class="node">
<title>S&#45;431</title>
<polygon fill="mediumseagreen" stroke="black" points="425,-548 353,-526.5 425,-505 497,-526.5 425,-548"/>
<text text-anchor="middle" x="425" y="-524" font-family="Arial" font-size="10.00">S&#45;431</text>
</g>
<!-- S&#45;431&#45;&gt;S&#45;1544 -->
<g id="edge51" class="edge">
<title>S&#45;431&#45;&gt;S&#45;1544</title>
<path fill="none" stroke="#4d4d4d" d="M425,-504.58C425,-504.58 425,-454.03 425,-454.03"/>
<polygon fill="#4d4d4d" stroke="#4d4d4d" points="427.45,-454.03 425,-447.03 422.55,-454.03 427.45,-454.03"/>
</g>
<!-- S&#45;2242 -->
<g id="node26" class="node">
<title>S&#45;2242</title>
<polygon fill="mediumseagreen" stroke="black" points="435,-952 363,-930.5 435,-909 507,-930.5 435,-952"/>
<text text-anchor="middle" x="435" y="-928" font-family="Arial" font-size="10.00">S&#45;2242</text>
</g>
<!-- S&#45;2242&#45;&gt;S&#45;2359 -->
<g id="edge37" class="edge">
<title>S&#45;2242&#45;&gt;S&#45;2359</title>
<path fill="none" stroke="#4d4d4d" d="M364.63,-930C314.15,-930 255,-930 255,-930 255,-930 255,-858.31 255,-858.31"/>
<polygon fill="#4d4d4d" stroke="#4d4d4d" points="257.45,-858.31 255,-851.31 252.55,-858.31 257.45,-858.31"/>
</g>
<!-- S&#45;2360 -->
<g id="node46" class="node">
<title>S&#45;2360</title>
<polygon fill="mediumseagreen" stroke="black" points="435,-851 363,-829.5 435,-808 507,-829.5 435,-851"/>
<text text-anchor="middle" x="435" y="-827" font-family="Arial" font-size="10.00">S&#45;2360</text>
</g>
<!-- S&#45;2242&#45;&gt;S&#45;2360 -->
<g id="edge38" class="edge">
<title>S&#45;2242&#45;&gt;S&#45;2360</title>
<path fill="none" stroke="#4d4d4d" d="M435,-908.58C435,-908.58 435,-858.03 435,-858.03"/>
<polygon fill="#4d4d4d" stroke="#4d4d4d" points="437.45,-858.03 435,-851.03 432.55,-858.03 437.45,-858.03"/>
</g>
<!-- 205&#45;22&#45; -->
<g id="node27" class="node">
<title>205&#45;22&#45;</title>
<polygon fill="gold" stroke="black" points="1272,-1531.59 1272,-1549.41 1229.82,-1562 1170.18,-1562 1128,-1549.41 1128,-1531.59 1170.18,-1519 1229.82,-1519 1272,-1531.59"/>
<polygon fill="none" stroke="black" points="1276,-1528.61 1276,-1552.39 1230.41,-1566 1169.59,-1566 1124,-1552.39 1124,-1528.61 1169.59,-1515 1230.41,-1515 1276,-1528.61"/>
<text text-anchor="middle" x="1200" y="-1538" font-family="Arial" font-size="10.00">205&#45;22&#45;</text>
</g>
<!-- C&#45;0071 -->
<g id="node36" class="node">
<title>C&#45;0071</title>
<ellipse fill="mediumseagreen" stroke="black" cx="1200" cy="-1435.5" rx="72" ry="21.5"/>
<text text-anchor="middle" x="1200" y="-1433" font-family="Arial" font-size="10.00">C&#45;0071</text>
</g>
<!-- 205&#45;22&#45;&#45;&gt;C&#45;0071 -->
<g id="edge1" class="edge">
<title>205&#45;22&#45;&#45;&gt;C&#45;0071</title>
<path fill="none" stroke="#4d4d4d" d="M1200,-1514.81C1200,-1514.81 1200,-1464.03 1200,-1464.03"/>
<polygon fill="#4d4d4d" stroke="#4d4d4d" points="1202.45,-1464.03 1200,-1457.03 1197.55,-1464.03 1202.45,-1464.03"/>
</g>
<!-- S&#45;2568 -->
<g id="node28" class="node">
<title>S&#45;2568</title>
<polygon fill="mediumseagreen" stroke="black" points="1290,-1255 1218,-1233.5 1290,-1212 1362,-1233.5 1290,-1255"/>
<text text-anchor="middle" x="1290" y="-1231" font-family="Arial" font-size="10.00">S&#45;2568</text>
</g>
<!-- S&#45;2122 -->
<g id="node31" class="node">
<title>S&#45;2122</title>
<polygon fill="mediumseagreen" stroke="black" points="975,-851 903,-829.5 975,-808 1047,-829.5 975,-851"/>
<text text-anchor="middle" x="975" y="-827" font-family="Arial" font-size="10.00">S&#45;2122</text>
</g>
<!-- C&#45;0570&#45;&gt;S&#45;431 -->
<g id="edge50" class="edge">
<title>C&#45;0570&#45;&gt;S&#45;431</title>
<path fill="none" stroke="#4d4d4d" d="M715.98,-627C611.44,-627 430,-627 430,-627 430,-627 430,-553.84 430,-553.84"/>
<polygon fill="#4d4d4d" stroke="#4d4d4d" points="432.45,-553.84 430,-546.84 427.55,-553.84 432.45,-553.84"/>
</g>
<!-- S&#45;1527 -->
<g id="node34" class="node">
<title>S&#45;1527</title>
<polygon fill="mediumseagreen" stroke="black" points="605,-548 533,-526.5 605,-505 677,-526.5 605,-548"/>
<text text-anchor="middle" x="605" y="-524" font-family="Arial" font-size="10.00">S&#45;1527</text>
</g>
<!-- C&#45;0570&#45;&gt;S&#45;1527 -->
<g id="edge60" class="edge">
<title>C&#45;0570&#45;&gt;S&#45;1527</title>
<path fill="none" stroke="#4d4d4d" d="M726.74,-616C675.25,-616 610,-616 610,-616 610,-616 610,-553.81 610,-553.81"/>
<polygon fill="#4d4d4d" stroke="#4d4d4d" points="612.45,-553.81 610,-546.81 607.55,-553.81 612.45,-553.81"/>
</g>
<!-- S&#45;1537 -->
<g id="node42" class="node">
<title>S&#45;1537</title>
<polygon fill="mediumseagreen" stroke="black" points="785,-548 713,-526.5 785,-505 857,-526.5 785,-548"/>
<text text-anchor="middle" x="785" y="-524" font-family="Arial" font-size="10.00">S&#45;1537</text>
</g>
<!-- C&#45;0570&#45;&gt;S&#45;1537 -->
<g id="edge59" class="edge">
<title>C&#45;0570&#45;&gt;S&#45;1537</title>
<path fill="none" stroke="#4d4d4d" d="M786.5,-605.58C786.5,-605.58 786.5,-554.68 786.5,-554.68"/>
<polygon fill="#4d4d4d" stroke="#4d4d4d" points="788.95,-554.68 786.5,-547.68 784.05,-554.68 788.95,-554.68"/>
</g>
<!-- S&#45;2048 -->
<g id="node47" class="node">
<title>S&#45;2048</title>
<polygon fill="mediumseagreen" stroke="black" points="965,-548 893,-526.5 965,-505 1037,-526.5 965,-548"/>
<text text-anchor="middle" x="965" y="-524" font-family="Arial" font-size="10.00">S&#45;2048</text>
</g>
<!-- C&#45;0570&#45;&gt;S&#45;2048 -->
<g id="edge49" class="edge">
<title>C&#45;0570&#45;&gt;S&#45;2048</title>
<path fill="none" stroke="#4d4d4d" d="M855.79,-620C878.42,-620 898,-620 898,-620 898,-620 898,-535.12 898,-535.12"/>
<polygon fill="#4d4d4d" stroke="#4d4d4d" points="900.45,-535.12 898,-528.12 895.55,-535.12 900.45,-535.12"/>
</g>
<!-- S&#45;430 -->
<g id="node59" class="node">
<title>S&#45;430</title>
<polygon fill="mediumseagreen" stroke="black" points="1145,-548 1073,-526.5 1145,-505 1217,-526.5 1145,-548"/>
<text text-anchor="middle" x="1145" y="-524" font-family="Arial" font-size="10.00">S&#45;430</text>
</g>
<!-- C&#45;0570&#45;&gt;S&#45;430 -->
<g id="edge48" class="edge">
<title>C&#45;0570&#45;&gt;S&#45;430</title>
<path fill="none" stroke="#4d4d4d" d="M856.74,-634C931.96,-634 1042,-634 1042,-634 1042,-634 1042,-526 1042,-526 1042,-526 1067.59,-526 1067.59,-526"/>
<polygon fill="#4d4d4d" stroke="#4d4d4d" points="1067.59,-528.45 1074.59,-526 1067.59,-523.55 1067.59,-528.45"/>
</g>
<!-- S&#45;1527&#45;&gt;S&#45;1235 -->
<g id="edge61" class="edge">
<title>S&#45;1527&#45;&gt;S&#45;1235</title>
<path fill="none" stroke="#4d4d4d" d="M605,-504.58C605,-504.58 605,-454.03 605,-454.03"/>
<polygon fill="#4d4d4d" stroke="#4d4d4d" points="607.45,-454.03 605,-447.03 602.55,-454.03 607.45,-454.03"/>
</g>
<!-- R&#45;104&#45;&gt;C&#45;0570 -->
<g id="edge47" class="edge">
<title>R&#45;104&#45;&gt;C&#45;0570</title>
<path fill="none" stroke="#4d4d4d" d="M788,-706.58C788,-706.58 788,-656.03 788,-656.03"/>
<polygon fill="#4d4d4d" stroke="#4d4d4d" points="790.45,-656.03 788,-649.03 785.55,-656.03 790.45,-656.03"/>
</g>
<!-- C&#45;0071&#45;&gt;S&#45;739 -->
<g id="edge2" class="edge">
<title>C&#45;0071&#45;&gt;S&#45;739</title>
<path fill="none" stroke="#4d4d4d" d="M1155,-1418.37C1155,-1418.37 1155,-1349.78 1155,-1349.78"/>
<polygon fill="#4d4d4d" stroke="#4d4d4d" points="1157.45,-1349.78 1155,-1342.78 1152.55,-1349.78 1157.45,-1349.78"/>
</g>
<!-- S&#45;346 -->
<g id="node52" class="node">
<title>S&#45;346</title>
<polygon fill="mediumseagreen" stroke="black" points="1290,-1356 1218,-1334.5 1290,-1313 1362,-1334.5 1290,-1356"/>
<text text-anchor="middle" x="1290" y="-1332" font-family="Arial" font-size="10.00">S&#45;346</text>
</g>
<!-- C&#45;0071&#45;&gt;S&#45;346 -->
<g id="edge3" class="edge">
<title>C&#45;0071&#45;&gt;S&#45;346</title>
<path fill="none" stroke="#4d4d4d" d="M1245,-1418.37C1245,-1418.37 1245,-1349.78 1245,-1349.78"/>
<polygon fill="#4d4d4d" stroke="#4d4d4d" points="1247.45,-1349.78 1245,-1342.78 1242.55,-1349.78 1247.45,-1349.78"/>
</g>
<!-- R&#45;144 -->
<g id="node61" class="node">
<title>R&#45;144</title>
<polygon fill="tomato" stroke="black" points="2089,-517.59 2089,-535.41 2046.82,-548 1987.18,-548 1945,-535.41 1945,-517.59 1987.18,-505 2046.82,-505 2089,-517.59"/>
<text text-anchor="middle" x="2017" y="-524" font-family="Arial" font-size="10.00">R&#45;144</text>
</g>
<!-- C&#45;0739&#45;&gt;R&#45;144 -->
<g id="edge25" class="edge">
<title>C&#45;0739&#45;&gt;R&#45;144</title>
<path fill="none" stroke="#4d4d4d" d="M2030.5,-606.08C2030.5,-606.08 2030.5,-555.24 2030.5,-555.24"/>
<polygon fill="#4d4d4d" stroke="#4d4d4d" points="2032.95,-555.24 2030.5,-548.24 2028.05,-555.24 2032.95,-555.24"/>
</g>
<!-- S&#45;356 -->
<g id="node38" class="node">
<title>S&#45;356</title>
<polygon fill="mediumseagreen" stroke="black" points="975,-952 903,-930.5 975,-909 1047,-930.5 975,-952"/>
<text text-anchor="middle" x="975" y="-928" font-family="Arial" font-size="10.00">S&#45;356</text>
</g>
<!-- S&#45;356&#45;&gt;C&#45;0568 -->
<g id="edge44" class="edge">
<title>S&#45;356&#45;&gt;C&#45;0568</title>
<path fill="none" stroke="#4d4d4d" d="M924.47,-937C830.32,-937 637.5,-937 637.5,-937 637.5,-937 637.5,-856.97 637.5,-856.97"/>
<polygon fill="#4d4d4d" stroke="#4d4d4d" points="639.95,-856.97 637.5,-849.97 635.05,-856.97 639.95,-856.97"/>
</g>
<!-- S&#45;356&#45;&gt;C&#45;0569 -->
<g id="edge45" class="edge">
<title>S&#45;356&#45;&gt;C&#45;0569</title>
<path fill="none" stroke="#4d4d4d" d="M927.74,-923C881.35,-923 817.5,-923 817.5,-923 817.5,-923 817.5,-857.25 817.5,-857.25"/>
<polygon fill="#4d4d4d" stroke="#4d4d4d" points="819.95,-857.25 817.5,-850.25 815.05,-857.25 819.95,-857.25"/>
</g>
<!-- S&#45;356&#45;&gt;S&#45;2122 -->
<g id="edge40" class="edge">
<title>S&#45;356&#45;&gt;S&#45;2122</title>
<path fill="none" stroke="#4d4d4d" d="M951,-916.03C951,-916.03 951,-850.94 951,-850.94"/>
<polygon fill="#4d4d4d" stroke="#4d4d4d" points="953.45,-850.94 951,-843.94 948.55,-850.94 953.45,-850.94"/>
</g>
<!-- C&#45;0436 -->
<g id="node40" class="node">
<title>C&#45;0436</title>
<ellipse fill="mediumseagreen" stroke="black" cx="1155" cy="-829.5" rx="72" ry="21.5"/>
<text text-anchor="middle" x="1155" y="-827" font-family="Arial" font-size="10.00">C&#45;0436</text>
</g>
<!-- S&#45;356&#45;&gt;C&#45;0436 -->
<g id="edge41" class="edge">
<title>S&#45;356&#45;&gt;C&#45;0436</title>
<path fill="none" stroke="#4d4d4d" d="M1045.39,-930C1052.97,-930 1058,-930 1058,-930 1058,-930 1058,-829 1058,-829 1058,-829 1075.98,-829 1075.98,-829"/>
<polygon fill="#4d4d4d" stroke="#4d4d4d" points="1075.98,-831.45 1082.98,-829 1075.98,-826.55 1075.98,-831.45"/>
</g>
<!-- C&#45;0693 -->
<g id="node43" class="node">
<title>C&#45;0693</title>
<ellipse fill="tomato" stroke="black" cx="1321" cy="-728.5" rx="72" ry="21.5"/>
<text text-anchor="middle" x="1321" y="-726" font-family="Arial" font-size="10.00">C&#45;0693</text>
</g>
<!-- S&#45;356&#45;&gt;C&#45;0693 -->
<g id="edge42" class="edge">
<title>S&#45;356&#45;&gt;C&#45;0693</title>
<path fill="none" stroke="#4d4d4d" d="M999,-916.16C999,-901.23 999,-880 999,-880 999,-880 1256,-880 1256,-880 1256,-880 1256,-744.98 1256,-744.98"/>
<polygon fill="#4d4d4d" stroke="#4d4d4d" points="1258.45,-744.98 1256,-737.98 1253.55,-744.98 1258.45,-744.98"/>
</g>
<!-- R&#45;192&#45;&gt;C&#45;0847 -->
<g id="edge18" class="edge">
<title>R&#45;192&#45;&gt;C&#45;0847</title>
<path fill="none" stroke="#4d4d4d" d="M1742.5,-808.08C1742.5,-808.08 1742.5,-754.84 1742.5,-754.84"/>
<polygon fill="#4d4d4d" stroke="#4d4d4d" points="1744.95,-754.84 1742.5,-747.84 1740.05,-754.84 1744.95,-754.84"/>
</g>
<!-- R&#45;080 -->
<g id="node54" class="node">
<title>R&#45;080</title>
<polygon fill="tomato" stroke="black" points="1213,-719.59 1213,-737.41 1170.82,-750 1111.18,-750 1069,-737.41 1069,-719.59 1111.18,-707 1170.82,-707 1213,-719.59"/>
<text text-anchor="middle" x="1141" y="-726" font-family="Arial" font-size="10.00">R&#45;080</text>
</g>
<!-- C&#45;0436&#45;&gt;R&#45;080 -->
<g id="edge43" class="edge">
<title>C&#45;0436&#45;&gt;R&#45;080</title>
<path fill="none" stroke="#4d4d4d" d="M1148,-808.08C1148,-808.08 1148,-757.24 1148,-757.24"/>
<polygon fill="#4d4d4d" stroke="#4d4d4d" points="1150.45,-757.24 1148,-750.24 1145.55,-757.24 1150.45,-757.24"/>
</g>
<!-- C&#45;0846&#45;&gt;C&#45;0847 -->
<g id="edge62" class="edge">
<title>C&#45;0846&#45;&gt;C&#45;0847</title>
<path fill="none" stroke="blue" stroke-dasharray="5,2" d="M1400.33,-921.26C1400.33,-883.01 1400.33,-739 1400.33,-739 1400.33,-739 1704.04,-739 1704.04,-739"/>
<polygon fill="blue" stroke="blue" points="1704.04,-741.45 1711.04,-739 1704.04,-736.55 1704.04,-741.45"/>
</g>
<!-- ext_circ_110_24_ -->
<g id="node64" class="node">
<title>ext_circ_110_24_</title>
<polygon fill="lightpink" stroke="darkorange" stroke-dasharray="5,2" points="1215,-649 1071,-649 1071,-606 1215,-606 1215,-649"/>
<text text-anchor="middle" x="1143" y="-630.5" font-family="Arial" font-size="10.00">Circuito:</text>
<text text-anchor="middle" x="1143" y="-619.5" font-family="Arial" font-size="10.00">110&#45;24&#45;</text>
</g>
<!-- C&#45;0693&#45;&gt;ext_circ_110_24_ -->
<g id="edge65" class="edge">
<title>C&#45;0693&#45;&gt;ext_circ_110_24_</title>
<path fill="none" stroke="darkorange" stroke-dasharray="5,2" d="M1248.99,-728C1244.46,-728 1241.67,-728 1241.67,-728 1241.67,-728 1241.67,-627 1241.67,-627 1241.67,-627 1222.23,-627 1222.23,-627"/>
<polygon fill="darkorange" stroke="darkorange" points="1222.23,-624.55 1215.23,-627 1222.23,-629.45 1222.23,-624.55"/>
</g>
<!-- R&#45;264 -->
<g id="node49" class="node">
<title>R&#45;264</title>
<polygon fill="tomato" stroke="black" points="530,-113.59 530,-131.41 487.82,-144 428.18,-144 386,-131.41 386,-113.59 428.18,-101 487.82,-101 530,-113.59"/>
<text text-anchor="middle" x="458" y="-120" font-family="Arial" font-size="10.00">R&#45;264</text>
</g>
<!-- ext_circ_101_23_ -->
<g id="node65" class="node">
<title>ext_circ_101_23_</title>
<polygon fill="lightpink" stroke="darkorange" stroke-dasharray="5,2" points="600,-43 456,-43 456,0 600,0 600,-43"/>
<text text-anchor="middle" x="528" y="-24.5" font-family="Arial" font-size="10.00">Circuito:</text>
<text text-anchor="middle" x="528" y="-13.5" font-family="Arial" font-size="10.00">101&#45;23&#45;</text>
</g>
<!-- R&#45;264&#45;&gt;ext_circ_101_23_ -->
<g id="edge69" class="edge">
<title>R&#45;264&#45;&gt;ext_circ_101_23_</title>
<path fill="none" stroke="darkorange" stroke-dasharray="5,2" d="M493,-102.55C493,-102.55 493,-50.16 493,-50.16"/>
<polygon fill="darkorange" stroke="darkorange" points="495.45,-50.16 493,-43.16 490.55,-50.16 495.45,-50.16"/>
</g>
<!-- ext_circ_205_25_ -->
<g id="node63" class="node">
<title>ext_circ_205_25_</title>
<polygon fill="lightpink" stroke="darkorange" stroke-dasharray="5,2" points="2179,-447 2035,-447 2035,-404 2179,-404 2179,-447"/>
<text text-anchor="middle" x="2107" y="-428.5" font-family="Arial" font-size="10.00">Circuito:</text>
<text text-anchor="middle" x="2107" y="-417.5" font-family="Arial" font-size="10.00">205&#45;25&#45;</text>
</g>
<!-- C&#45;0295&#45;&gt;ext_circ_205_25_ -->
<g id="edge64" class="edge">
<title>C&#45;0295&#45;&gt;ext_circ_205_25_</title>
<path fill="none" stroke="darkorange" stroke-dasharray="5,2" d="M2152,-509.37C2152,-509.37 2152,-454.31 2152,-454.31"/>
<polygon fill="darkorange" stroke="darkorange" points="2154.45,-454.31 2152,-447.31 2149.55,-454.31 2154.45,-454.31"/>
</g>
<!-- C&#45;1082&#45;&gt;R&#45;264 -->
<g id="edge55" class="edge">
<title>C&#45;1082&#45;&gt;R&#45;264</title>
<path fill="none" stroke="#4d4d4d" d="M441.5,-202.08C441.5,-202.08 441.5,-151.24 441.5,-151.24"/>
<polygon fill="#4d4d4d" stroke="#4d4d4d" points="443.95,-151.24 441.5,-144.24 439.05,-151.24 443.95,-151.24"/>
</g>
<!-- S&#45;346&#45;&gt;S&#45;1284 -->
<g id="edge6" class="edge">
<title>S&#45;346&#45;&gt;S&#45;1284</title>
<path fill="none" stroke="#4d4d4d" d="M1219.53,-1334C1208.14,-1334 1200,-1334 1200,-1334 1200,-1334 1200,-1233 1200,-1233 1200,-1233 1187.47,-1233 1187.47,-1233"/>
<polygon fill="#4d4d4d" stroke="#4d4d4d" points="1187.47,-1230.55 1180.47,-1233 1187.47,-1235.45 1187.47,-1230.55"/>
</g>
<!-- S&#45;346&#45;&gt;S&#45;2568 -->
<g id="edge4" class="edge">
<title>S&#45;346&#45;&gt;S&#45;2568</title>
<path fill="none" stroke="#4d4d4d" d="M1290,-1312.58C1290,-1312.58 1290,-1262.03 1290,-1262.03"/>
<polygon fill="#4d4d4d" stroke="#4d4d4d" points="1292.45,-1262.03 1290,-1255.03 1287.55,-1262.03 1292.45,-1262.03"/>
</g>
<!-- S&#45;347 -->
<g id="node60" class="node">
<title>S&#45;347</title>
<polygon fill="mediumseagreen" stroke="black" points="1470,-1255 1398,-1233.5 1470,-1212 1542,-1233.5 1470,-1255"/>
<text text-anchor="middle" x="1470" y="-1231" font-family="Arial" font-size="10.00">S&#45;347</text>
</g>
<!-- S&#45;346&#45;&gt;S&#45;347 -->
<g id="edge5" class="edge">
<title>S&#45;346&#45;&gt;S&#45;347</title>
<path fill="none" stroke="#4d4d4d" d="M1360.37,-1334C1410.85,-1334 1470,-1334 1470,-1334 1470,-1334 1470,-1262.31 1470,-1262.31"/>
<polygon fill="#4d4d4d" stroke="#4d4d4d" points="1472.45,-1262.31 1470,-1255.31 1467.55,-1262.31 1472.45,-1262.31"/>
</g>
<!-- C&#45;0007&#45;&gt;ext_circ_101_23_ -->
<g id="edge68" class="edge">
<title>C&#45;0007&#45;&gt;ext_circ_101_23_</title>
<path fill="none" stroke="darkorange" stroke-dasharray="5,2" d="M566.5,-205.22C566.5,-205.22 566.5,-50.21 566.5,-50.21"/>
<polygon fill="darkorange" stroke="darkorange" points="568.95,-50.21 566.5,-43.21 564.05,-50.21 568.95,-50.21"/>
</g>
<!-- R&#45;080&#45;&gt;ext_circ_110_24_ -->
<g id="edge66" class="edge">
<title>R&#45;080&#45;&gt;ext_circ_110_24_</title>
<path fill="none" stroke="darkorange" stroke-dasharray="5,2" d="M1142,-706.58C1142,-706.58 1142,-656.03 1142,-656.03"/>
<polygon fill="darkorange" stroke="darkorange" points="1144.45,-656.03 1142,-649.03 1139.55,-656.03 1144.45,-656.03"/>
</g>
<!-- R&#45;144&#45;&gt;ext_circ_205_25_ -->
<g id="edge63" class="edge">
<title>R&#45;144&#45;&gt;ext_circ_205_25_</title>
<path fill="none" stroke="darkorange" stroke-dasharray="5,2" d="M2062,-509.37C2062,-509.37 2062,-454.31 2062,-454.31"/>
<polygon fill="darkorange" stroke="darkorange" points="2064.45,-454.31 2062,-447.31 2059.55,-454.31 2064.45,-454.31"/>
</g>
<!-- C&#45;0418&#45;&gt;S&#45;2242 -->
<g id="edge36" class="edge">
<title>C&#45;0418&#45;&gt;S&#45;2242</title>
<path fill="none" stroke="#4d4d4d" d="M981,-1013.25C981,-1004.13 981,-995 981,-995 981,-995 435,-995 435,-995 435,-995 435,-959.34 435,-959.34"/>
<polygon fill="#4d4d4d" stroke="#4d4d4d" points="437.45,-959.34 435,-952.34 432.55,-959.34 437.45,-959.34"/>
</g>
<!-- C&#45;0418&#45;&gt;S&#45;356 -->
<g id="edge39" class="edge">
<title>C&#45;0418&#45;&gt;S&#45;356</title>
<path fill="none" stroke="#4d4d4d" d="M1014,-1009.58C1014,-1009.58 1014,-947.42 1014,-947.42"/>
<polygon fill="#4d4d4d" stroke="#4d4d4d" points="1016.45,-947.42 1014,-940.42 1011.55,-947.42 1016.45,-947.42"/>
</g>
</g>
</svg>
