<?xml version="1.0" encoding="UTF-8" standalone="no"?>
<!DOCTYPE svg PUBLIC "-//W3C//DTD SVG 1.1//EN"
 "http://www.w3.org/Graphics/SVG/1.1/DTD/svg11.dtd">
<!-- Generated by graphviz version 2.50.0 (0)
 -->
<!-- Title: Grafo_Circuito_304_25_ Pages: 1 -->
<svg width="2062pt" height="1372pt"
 viewBox="0.00 0.00 2062.00 1372.00" xmlns="http://www.w3.org/2000/svg" xmlns:xlink="http://www.w3.org/1999/xlink">
<g id="graph0" class="graph" transform="scale(1 1) rotate(0) translate(4 1368)">
<title>Grafo_Circuito_304_25_</title>
<polygon fill="white" stroke="transparent" points="-4,4 -4,-1368 2058,-1368 2058,4 -4,4"/>
<!-- R&#45;083 -->
<g id="node1" class="node">
<title>R&#45;083</title>
<polygon fill="tomato" stroke="black" points="599,-416.59 599,-434.41 556.82,-447 497.18,-447 455,-434.41 455,-416.59 497.18,-404 556.82,-404 599,-416.59"/>
<text text-anchor="middle" x="527" y="-423" font-family="Arial" font-size="10.00">R&#45;083</text>
</g>
<!-- ext_circ_303_26_ -->
<g id="node49" class="node">
<title>ext_circ_303_26_</title>
<polygon fill="lightpink" stroke="darkorange" stroke-dasharray="5,2" points="649,-144 505,-144 505,-101 649,-101 649,-144"/>
<text text-anchor="middle" x="577" y="-125.5" font-family="Arial" font-size="10.00">Circuito:</text>
<text text-anchor="middle" x="577" y="-114.5" font-family="Arial" font-size="10.00">303&#45;26&#45;</text>
</g>
<!-- R&#45;083&#45;&gt;ext_circ_303_26_ -->
<g id="edge55" class="edge">
<title>R&#45;083&#45;&gt;ext_circ_303_26_</title>
<path fill="none" stroke="darkorange" stroke-dasharray="5,2" d="M480,-408.75C480,-345.12 480,-122 480,-122 480,-122 497.98,-122 497.98,-122"/>
<polygon fill="darkorange" stroke="darkorange" points="497.98,-124.45 504.98,-122 497.98,-119.55 497.98,-124.45"/>
</g>
<!-- R&#45;064 -->
<g id="node2" class="node">
<title>R&#45;064</title>
<polygon fill="mediumseagreen" stroke="black" points="1210,-719.59 1210,-737.41 1167.82,-750 1108.18,-750 1066,-737.41 1066,-719.59 1108.18,-707 1167.82,-707 1210,-719.59"/>
<text text-anchor="middle" x="1138" y="-726" font-family="Arial" font-size="10.00">R&#45;064</text>
</g>
<!-- C&#45;1183 -->
<g id="node14" class="node">
<title>C&#45;1183</title>
<ellipse fill="mediumseagreen" stroke="black" cx="1162" cy="-627.5" rx="72" ry="21.5"/>
<text text-anchor="middle" x="1162" y="-625" font-family="Arial" font-size="10.00">C&#45;1183</text>
</g>
<!-- R&#45;064&#45;&gt;C&#45;1183 -->
<g id="edge14" class="edge">
<title>R&#45;064&#45;&gt;C&#45;1183</title>
<path fill="none" stroke="#4d4d4d" d="M1150,-706.58C1150,-706.58 1150,-656.03 1150,-656.03"/>
<polygon fill="#4d4d4d" stroke="#4d4d4d" points="1152.45,-656.03 1150,-649.03 1147.55,-656.03 1152.45,-656.03"/>
</g>
<!-- S&#45;2106 -->
<g id="node3" class="node">
<title>S&#45;2106</title>
<polygon fill="mediumseagreen" stroke="black" points="1281,-43 1209,-21.5 1281,0 1353,-21.5 1281,-43"/>
<text text-anchor="middle" x="1281" y="-19" font-family="Arial" font-size="10.00">S&#45;2106</text>
</g>
<!-- C&#45;0825 -->
<g id="node4" class="node">
<title>C&#45;0825</title>
<ellipse fill="mediumseagreen" stroke="black" cx="1474" cy="-930.5" rx="72" ry="21.5"/>
<text text-anchor="middle" x="1474" y="-928" font-family="Arial" font-size="10.00">C&#45;0825</text>
</g>
<!-- C&#45;0783 -->
<g id="node5" class="node">
<title>C&#45;0783</title>
<ellipse fill="mediumseagreen" stroke="black" cx="1728" cy="-829.5" rx="72" ry="21.5"/>
<text text-anchor="middle" x="1728" y="-827" font-family="Arial" font-size="10.00">C&#45;0783</text>
</g>
<!-- C&#45;0825&#45;&gt;C&#45;0783 -->
<g id="edge9" class="edge">
<title>C&#45;0825&#45;&gt;C&#45;0783</title>
<path fill="none" stroke="#4d4d4d" d="M1542.66,-937C1606.23,-937 1691,-937 1691,-937 1691,-937 1691,-855.23 1691,-855.23"/>
<polygon fill="#4d4d4d" stroke="#4d4d4d" points="1693.45,-855.23 1691,-848.23 1688.55,-855.23 1693.45,-855.23"/>
</g>
<!-- S&#45;1293 -->
<g id="node16" class="node">
<title>S&#45;1293</title>
<polygon fill="mediumseagreen" stroke="black" points="1294,-851 1222,-829.5 1294,-808 1366,-829.5 1294,-851"/>
<text text-anchor="middle" x="1294" y="-827" font-family="Arial" font-size="10.00">S&#45;1293</text>
</g>
<!-- C&#45;0825&#45;&gt;S&#45;1293 -->
<g id="edge7" class="edge">
<title>C&#45;0825&#45;&gt;S&#45;1293</title>
<path fill="none" stroke="#4d4d4d" d="M1401.68,-930C1394.61,-930 1390,-930 1390,-930 1390,-930 1390,-829 1390,-829 1390,-829 1371.53,-829 1371.53,-829"/>
<polygon fill="#4d4d4d" stroke="#4d4d4d" points="1371.53,-826.55 1364.53,-829 1371.53,-831.45 1371.53,-826.55"/>
</g>
<!-- C&#45;1182 -->
<g id="node29" class="node">
<title>C&#45;1182</title>
<ellipse fill="mediumseagreen" stroke="black" cx="1114" cy="-829.5" rx="72" ry="21.5"/>
<text text-anchor="middle" x="1114" y="-827" font-family="Arial" font-size="10.00">C&#45;1182</text>
</g>
<!-- C&#45;0825&#45;&gt;C&#45;1182 -->
<g id="edge12" class="edge">
<title>C&#45;0825&#45;&gt;C&#45;1182</title>
<path fill="none" stroke="#4d4d4d" d="M1450,-910.02C1450,-892.47 1450,-870 1450,-870 1450,-870 1114,-870 1114,-870 1114,-870 1114,-858.17 1114,-858.17"/>
<polygon fill="#4d4d4d" stroke="#4d4d4d" points="1116.45,-858.17 1114,-851.17 1111.55,-858.17 1116.45,-858.17"/>
</g>
<!-- C&#45;0782 -->
<g id="node33" class="node">
<title>C&#45;0782</title>
<ellipse fill="tomato" stroke="black" cx="1548" cy="-728.5" rx="72" ry="21.5"/>
<text text-anchor="middle" x="1548" y="-726" font-family="Arial" font-size="10.00">C&#45;0782</text>
</g>
<!-- C&#45;0825&#45;&gt;C&#45;0782 -->
<g id="edge11" class="edge">
<title>C&#45;0825&#45;&gt;C&#45;0782</title>
<path fill="none" stroke="#4d4d4d" d="M1541.48,-923C1563.78,-923 1583,-923 1583,-923 1583,-923 1583,-754.5 1583,-754.5"/>
<polygon fill="#4d4d4d" stroke="#4d4d4d" points="1585.45,-754.5 1583,-747.5 1580.55,-754.5 1585.45,-754.5"/>
</g>
<!-- C&#45;1184 -->
<g id="node46" class="node">
<title>C&#45;1184</title>
<ellipse fill="tomato" stroke="black" cx="1474" cy="-829.5" rx="72" ry="21.5"/>
<text text-anchor="middle" x="1474" y="-827" font-family="Arial" font-size="10.00">C&#45;1184</text>
</g>
<!-- C&#45;0825&#45;&gt;C&#45;1184 -->
<g id="edge8" class="edge">
<title>C&#45;0825&#45;&gt;C&#45;1184</title>
<path fill="none" stroke="#4d4d4d" d="M1498,-910.06C1498,-910.06 1498,-856.91 1498,-856.91"/>
<polygon fill="#4d4d4d" stroke="#4d4d4d" points="1500.45,-856.91 1498,-849.91 1495.55,-856.91 1500.45,-856.91"/>
</g>
<!-- R&#45;173 -->
<g id="node45" class="node">
<title>R&#45;173</title>
<polygon fill="tomato" stroke="black" points="1800,-719.59 1800,-737.41 1757.82,-750 1698.18,-750 1656,-737.41 1656,-719.59 1698.18,-707 1757.82,-707 1800,-719.59"/>
<text text-anchor="middle" x="1728" y="-726" font-family="Arial" font-size="10.00">R&#45;173</text>
</g>
<!-- C&#45;0783&#45;&gt;R&#45;173 -->
<g id="edge10" class="edge">
<title>C&#45;0783&#45;&gt;R&#45;173</title>
<path fill="none" stroke="#4d4d4d" d="M1728,-807.58C1728,-807.58 1728,-757.03 1728,-757.03"/>
<polygon fill="#4d4d4d" stroke="#4d4d4d" points="1730.45,-757.03 1728,-750.03 1725.55,-757.03 1730.45,-757.03"/>
</g>
<!-- C&#45;0239 -->
<g id="node6" class="node">
<title>C&#45;0239</title>
<ellipse fill="tomato" stroke="black" cx="1503" cy="-425.5" rx="72" ry="21.5"/>
<text text-anchor="middle" x="1503" y="-423" font-family="Arial" font-size="10.00">C&#45;0239</text>
</g>
<!-- ext_circ_304_27_ -->
<g id="node50" class="node">
<title>ext_circ_304_27_</title>
<polygon fill="lightpink" stroke="darkorange" stroke-dasharray="5,2" points="1623,-346 1479,-346 1479,-303 1623,-303 1623,-346"/>
<text text-anchor="middle" x="1551" y="-327.5" font-family="Arial" font-size="10.00">Circuito:</text>
<text text-anchor="middle" x="1551" y="-316.5" font-family="Arial" font-size="10.00">304&#45;27&#45;</text>
</g>
<!-- C&#45;0239&#45;&gt;ext_circ_304_27_ -->
<g id="edge53" class="edge">
<title>C&#45;0239&#45;&gt;ext_circ_304_27_</title>
<path fill="none" stroke="darkorange" stroke-dasharray="5,2" d="M1527,-405.06C1527,-405.06 1527,-353.31 1527,-353.31"/>
<polygon fill="darkorange" stroke="darkorange" points="1529.45,-353.31 1527,-346.31 1524.55,-353.31 1529.45,-353.31"/>
</g>
<!-- S&#45;543 -->
<g id="node7" class="node">
<title>S&#45;543</title>
<polygon fill="mediumseagreen" stroke="black" points="1191,-346 1119,-324.5 1191,-303 1263,-324.5 1191,-346"/>
<text text-anchor="middle" x="1191" y="-322" font-family="Arial" font-size="10.00">S&#45;543</text>
</g>
<!-- S&#45;1399 -->
<g id="node30" class="node">
<title>S&#45;1399</title>
<polygon fill="mediumseagreen" stroke="black" points="1281,-245 1209,-223.5 1281,-202 1353,-223.5 1281,-245"/>
<text text-anchor="middle" x="1281" y="-221" font-family="Arial" font-size="10.00">S&#45;1399</text>
</g>
<!-- S&#45;543&#45;&gt;S&#45;1399 -->
<g id="edge21" class="edge">
<title>S&#45;543&#45;&gt;S&#45;1399</title>
<path fill="none" stroke="#4d4d4d" d="M1236,-316.23C1236,-316.23 1236,-238.6 1236,-238.6"/>
<polygon fill="#4d4d4d" stroke="#4d4d4d" points="1238.45,-238.6 1236,-231.6 1233.55,-238.6 1238.45,-238.6"/>
</g>
<!-- S&#45;1400 -->
<g id="node44" class="node">
<title>S&#45;1400</title>
<polygon fill="mediumseagreen" stroke="black" points="1101,-245 1029,-223.5 1101,-202 1173,-223.5 1101,-245"/>
<text text-anchor="middle" x="1101" y="-221" font-family="Arial" font-size="10.00">S&#45;1400</text>
</g>
<!-- S&#45;543&#45;&gt;S&#45;1400 -->
<g id="edge24" class="edge">
<title>S&#45;543&#45;&gt;S&#45;1400</title>
<path fill="none" stroke="#4d4d4d" d="M1146,-316.23C1146,-316.23 1146,-238.6 1146,-238.6"/>
<polygon fill="#4d4d4d" stroke="#4d4d4d" points="1148.45,-238.6 1146,-231.6 1143.55,-238.6 1148.45,-238.6"/>
</g>
<!-- C&#45;1143 -->
<g id="node8" class="node">
<title>C&#45;1143</title>
<ellipse fill="mediumseagreen" stroke="black" cx="577" cy="-324.5" rx="72" ry="21.5"/>
<text text-anchor="middle" x="577" y="-322" font-family="Arial" font-size="10.00">C&#45;1143</text>
</g>
<!-- R&#45;289 -->
<g id="node42" class="node">
<title>R&#45;289</title>
<polygon fill="tomato" stroke="black" points="649,-214.59 649,-232.41 606.82,-245 547.18,-245 505,-232.41 505,-214.59 547.18,-202 606.82,-202 649,-214.59"/>
<text text-anchor="middle" x="577" y="-221" font-family="Arial" font-size="10.00">R&#45;289</text>
</g>
<!-- C&#45;1143&#45;&gt;R&#45;289 -->
<g id="edge27" class="edge">
<title>C&#45;1143&#45;&gt;R&#45;289</title>
<path fill="none" stroke="#4d4d4d" d="M577,-302.58C577,-302.58 577,-252.03 577,-252.03"/>
<polygon fill="#4d4d4d" stroke="#4d4d4d" points="579.45,-252.03 577,-245.03 574.55,-252.03 579.45,-252.03"/>
</g>
<!-- S&#45;2551 -->
<g id="node9" class="node">
<title>S&#45;2551</title>
<polygon fill="mediumseagreen" stroke="black" points="1371,-346 1299,-324.5 1371,-303 1443,-324.5 1371,-346"/>
<text text-anchor="middle" x="1371" y="-322" font-family="Arial" font-size="10.00">S&#45;2551</text>
</g>
<!-- S&#45;1256 -->
<g id="node10" class="node">
<title>S&#45;1256</title>
<polygon fill="mediumseagreen" stroke="black" points="866,-649 794,-627.5 866,-606 938,-627.5 866,-649"/>
<text text-anchor="middle" x="866" y="-625" font-family="Arial" font-size="10.00">S&#45;1256</text>
</g>
<!-- C&#45;0316 -->
<g id="node11" class="node">
<title>C&#45;0316</title>
<ellipse fill="tomato" stroke="black" cx="1802" cy="-1031.5" rx="72" ry="21.5"/>
<text text-anchor="middle" x="1802" y="-1029" font-family="Arial" font-size="10.00">C&#45;0316</text>
</g>
<!-- ext_circ_304_24_ -->
<g id="node48" class="node">
<title>ext_circ_304_24_</title>
<polygon fill="lightpink" stroke="darkorange" stroke-dasharray="5,2" points="1864,-649 1720,-649 1720,-606 1864,-606 1864,-649"/>
<text text-anchor="middle" x="1792" y="-630.5" font-family="Arial" font-size="10.00">Circuito:</text>
<text text-anchor="middle" x="1792" y="-619.5" font-family="Arial" font-size="10.00">304&#45;24&#45;</text>
</g>
<!-- C&#45;0316&#45;&gt;ext_circ_304_24_ -->
<g id="edge56" class="edge">
<title>C&#45;0316&#45;&gt;ext_circ_304_24_</title>
<path fill="none" stroke="darkorange" stroke-dasharray="5,2" d="M1821.33,-1010.63C1821.33,-1010.63 1821.33,-656.47 1821.33,-656.47"/>
<polygon fill="darkorange" stroke="darkorange" points="1823.78,-656.47 1821.33,-649.47 1818.88,-656.47 1823.78,-656.47"/>
</g>
<!-- SR&#45;0023 -->
<g id="node12" class="node">
<title>SR&#45;0023</title>
<polygon fill="mediumseagreen" stroke="black" points="1275,-447 1203,-425.5 1275,-404 1347,-425.5 1275,-447"/>
<text text-anchor="middle" x="1275" y="-423" font-family="Arial" font-size="10.00">SR&#45;0023</text>
</g>
<!-- SR&#45;0023&#45;&gt;S&#45;2551 -->
<g id="edge18" class="edge">
<title>SR&#45;0023&#45;&gt;S&#45;2551</title>
<path fill="none" stroke="#4d4d4d" d="M1323,-418.24C1323,-418.24 1323,-338.7 1323,-338.7"/>
<polygon fill="#4d4d4d" stroke="#4d4d4d" points="1325.45,-338.7 1323,-331.7 1320.55,-338.7 1325.45,-338.7"/>
</g>
<!-- C&#45;0360 -->
<g id="node13" class="node">
<title>C&#45;0360</title>
<ellipse fill="mediumseagreen" stroke="black" cx="1802" cy="-1132.5" rx="72" ry="21.5"/>
<text text-anchor="middle" x="1802" y="-1130" font-family="Arial" font-size="10.00">C&#45;0360</text>
</g>
<!-- C&#45;0360&#45;&gt;C&#45;0316 -->
<g id="edge46" class="edge">
<title>C&#45;0360&#45;&gt;C&#45;0316</title>
<path fill="none" stroke="#4d4d4d" d="M1802,-1110.58C1802,-1110.58 1802,-1060.03 1802,-1060.03"/>
<polygon fill="#4d4d4d" stroke="#4d4d4d" points="1804.45,-1060.03 1802,-1053.03 1799.55,-1060.03 1804.45,-1060.03"/>
</g>
<!-- S&#45;330 -->
<g id="node17" class="node">
<title>S&#45;330</title>
<polygon fill="mediumseagreen" stroke="black" points="1204,-1053 1132,-1031.5 1204,-1010 1276,-1031.5 1204,-1053"/>
<text text-anchor="middle" x="1204" y="-1029" font-family="Arial" font-size="10.00">S&#45;330</text>
</g>
<!-- C&#45;0360&#45;&gt;S&#45;330 -->
<g id="edge3" class="edge">
<title>C&#45;0360&#45;&gt;S&#45;330</title>
<path fill="none" stroke="#4d4d4d" d="M1729.87,-1132C1570.82,-1132 1204,-1132 1204,-1132 1204,-1132 1204,-1060.31 1204,-1060.31"/>
<polygon fill="#4d4d4d" stroke="#4d4d4d" points="1206.45,-1060.31 1204,-1053.31 1201.55,-1060.31 1206.45,-1060.31"/>
</g>
<!-- C&#45;1055 -->
<g id="node34" class="node">
<title>C&#45;1055</title>
<ellipse fill="mediumseagreen" stroke="black" cx="1982" cy="-1031.5" rx="72" ry="21.5"/>
<text text-anchor="middle" x="1982" y="-1029" font-family="Arial" font-size="10.00">C&#45;1055</text>
</g>
<!-- C&#45;0360&#45;&gt;C&#45;1055 -->
<g id="edge4" class="edge">
<title>C&#45;0360&#45;&gt;C&#45;1055</title>
<path fill="none" stroke="#4d4d4d" d="M1874.18,-1132C1924.25,-1132 1982,-1132 1982,-1132 1982,-1132 1982,-1060.31 1982,-1060.31"/>
<polygon fill="#4d4d4d" stroke="#4d4d4d" points="1984.45,-1060.31 1982,-1053.31 1979.55,-1060.31 1984.45,-1060.31"/>
</g>
<!-- S&#45;2243 -->
<g id="node15" class="node">
<title>S&#45;2243</title>
<polygon fill="mediumseagreen" stroke="black" points="1252,-548 1180,-526.5 1252,-505 1324,-526.5 1252,-548"/>
<text text-anchor="middle" x="1252" y="-524" font-family="Arial" font-size="10.00">S&#45;2243</text>
</g>
<!-- C&#45;1183&#45;&gt;S&#45;2243 -->
<g id="edge15" class="edge">
<title>C&#45;1183&#45;&gt;S&#45;2243</title>
<path fill="none" stroke="#4d4d4d" d="M1207,-610.37C1207,-610.37 1207,-541.78 1207,-541.78"/>
<polygon fill="#4d4d4d" stroke="#4d4d4d" points="1209.45,-541.78 1207,-534.78 1204.55,-541.78 1209.45,-541.78"/>
</g>
<!-- C&#45;0219 -->
<g id="node24" class="node">
<title>C&#45;0219</title>
<ellipse fill="mediumseagreen" stroke="black" cx="1072" cy="-526.5" rx="72" ry="21.5"/>
<text text-anchor="middle" x="1072" y="-524" font-family="Arial" font-size="10.00">C&#45;0219</text>
</g>
<!-- C&#45;1183&#45;&gt;C&#45;0219 -->
<g id="edge16" class="edge">
<title>C&#45;1183&#45;&gt;C&#45;0219</title>
<path fill="none" stroke="#4d4d4d" d="M1117,-610.37C1117,-610.37 1117,-550.38 1117,-550.38"/>
<polygon fill="#4d4d4d" stroke="#4d4d4d" points="1119.45,-550.38 1117,-543.38 1114.55,-550.38 1119.45,-550.38"/>
</g>
<!-- S&#45;541 -->
<g id="node31" class="node">
<title>S&#45;541</title>
<polygon fill="mediumseagreen" stroke="black" points="1432,-548 1360,-526.5 1432,-505 1504,-526.5 1432,-548"/>
<text text-anchor="middle" x="1432" y="-524" font-family="Arial" font-size="10.00">S&#45;541</text>
</g>
<!-- C&#45;1183&#45;&gt;S&#45;541 -->
<g id="edge30" class="edge">
<title>C&#45;1183&#45;&gt;S&#45;541</title>
<path fill="none" stroke="#4d4d4d" d="M1234.23,-627C1297.02,-627 1378,-627 1378,-627 1378,-627 1378,-538.9 1378,-538.9"/>
<polygon fill="#4d4d4d" stroke="#4d4d4d" points="1380.45,-538.9 1378,-531.9 1375.55,-538.9 1380.45,-538.9"/>
</g>
<!-- S&#45;330&#45;&gt;C&#45;0825 -->
<g id="edge6" class="edge">
<title>S&#45;330&#45;&gt;C&#45;0825</title>
<path fill="none" stroke="#4d4d4d" d="M1274.59,-1031C1354.59,-1031 1474,-1031 1474,-1031 1474,-1031 1474,-959.31 1474,-959.31"/>
<polygon fill="#4d4d4d" stroke="#4d4d4d" points="1476.45,-959.31 1474,-952.31 1471.55,-959.31 1476.45,-959.31"/>
</g>
<!-- C&#45;0368 -->
<g id="node26" class="node">
<title>C&#45;0368</title>
<ellipse fill="tomato" stroke="black" cx="1294" cy="-930.5" rx="72" ry="21.5"/>
<text text-anchor="middle" x="1294" y="-928" font-family="Arial" font-size="10.00">C&#45;0368</text>
</g>
<!-- S&#45;330&#45;&gt;C&#45;0368 -->
<g id="edge34" class="edge">
<title>S&#45;330&#45;&gt;C&#45;0368</title>
<path fill="none" stroke="#4d4d4d" d="M1249,-1023.23C1249,-1023.23 1249,-954.52 1249,-954.52"/>
<polygon fill="#4d4d4d" stroke="#4d4d4d" points="1251.45,-954.52 1249,-947.52 1246.55,-954.52 1251.45,-954.52"/>
</g>
<!-- C&#45;0369 -->
<g id="node27" class="node">
<title>C&#45;0369</title>
<ellipse fill="mediumseagreen" stroke="black" cx="707" cy="-930.5" rx="72" ry="21.5"/>
<text text-anchor="middle" x="707" y="-928" font-family="Arial" font-size="10.00">C&#45;0369</text>
</g>
<!-- S&#45;330&#45;&gt;C&#45;0369 -->
<g id="edge35" class="edge">
<title>S&#45;330&#45;&gt;C&#45;0369</title>
<path fill="none" stroke="#4d4d4d" d="M1153.61,-1038C1027.26,-1038 707,-1038 707,-1038 707,-1038 707,-959.25 707,-959.25"/>
<polygon fill="#4d4d4d" stroke="#4d4d4d" points="709.45,-959.25 707,-952.25 704.55,-959.25 709.45,-959.25"/>
</g>
<!-- S&#45;865 -->
<g id="node40" class="node">
<title>S&#45;865</title>
<polygon fill="mediumseagreen" stroke="black" points="934,-952 862,-930.5 934,-909 1006,-930.5 934,-952"/>
<text text-anchor="middle" x="934" y="-928" font-family="Arial" font-size="10.00">S&#45;865</text>
</g>
<!-- S&#45;330&#45;&gt;S&#45;865 -->
<g id="edge32" class="edge">
<title>S&#45;330&#45;&gt;S&#45;865</title>
<path fill="none" stroke="#4d4d4d" d="M1156.97,-1024C1079.61,-1024 934,-1024 934,-1024 934,-1024 934,-959.19 934,-959.19"/>
<polygon fill="#4d4d4d" stroke="#4d4d4d" points="936.45,-959.19 934,-952.19 931.55,-959.19 936.45,-959.19"/>
</g>
<!-- S&#45;1345 -->
<g id="node43" class="node">
<title>S&#45;1345</title>
<polygon fill="mediumseagreen" stroke="black" points="1114,-952 1042,-930.5 1114,-909 1186,-930.5 1114,-952"/>
<text text-anchor="middle" x="1114" y="-928" font-family="Arial" font-size="10.00">S&#45;1345</text>
</g>
<!-- S&#45;330&#45;&gt;S&#45;1345 -->
<g id="edge45" class="edge">
<title>S&#45;330&#45;&gt;S&#45;1345</title>
<path fill="none" stroke="#4d4d4d" d="M1159,-1023.23C1159,-1023.23 1159,-945.6 1159,-945.6"/>
<polygon fill="#4d4d4d" stroke="#4d4d4d" points="1161.45,-945.6 1159,-938.6 1156.55,-945.6 1161.45,-945.6"/>
</g>
<!-- R&#45;258 -->
<g id="node18" class="node">
<title>R&#45;258</title>
<polygon fill="tomato" stroke="black" points="2054,-719.59 2054,-737.41 2011.82,-750 1952.18,-750 1910,-737.41 1910,-719.59 1952.18,-707 2011.82,-707 2054,-719.59"/>
<text text-anchor="middle" x="1982" y="-726" font-family="Arial" font-size="10.00">R&#45;258</text>
</g>
<!-- R&#45;258&#45;&gt;ext_circ_304_24_ -->
<g id="edge47" class="edge">
<title>R&#45;258&#45;&gt;ext_circ_304_24_</title>
<path fill="none" stroke="darkorange" stroke-dasharray="5,2" d="M1909.88,-728C1875.89,-728 1842.67,-728 1842.67,-728 1842.67,-728 1842.67,-656.31 1842.67,-656.31"/>
<polygon fill="darkorange" stroke="darkorange" points="1845.12,-656.31 1842.67,-649.31 1840.22,-656.31 1845.12,-656.31"/>
</g>
<!-- C&#45;0220 -->
<g id="node19" class="node">
<title>C&#45;0220</title>
<ellipse fill="mediumseagreen" stroke="black" cx="1000" cy="-425.5" rx="72" ry="21.5"/>
<text text-anchor="middle" x="1000" y="-423" font-family="Arial" font-size="10.00">C&#45;0220</text>
</g>
<!-- C&#45;0220&#45;&gt;S&#45;543 -->
<g id="edge20" class="edge">
<title>C&#45;0220&#45;&gt;S&#45;543</title>
<path fill="none" stroke="#4d4d4d" d="M1067.77,-418C1098.18,-418 1127.33,-418 1127.33,-418 1127.33,-418 1127.33,-334.2 1127.33,-334.2"/>
<polygon fill="#4d4d4d" stroke="#4d4d4d" points="1129.78,-334.2 1127.33,-327.2 1124.88,-334.2 1129.78,-334.2"/>
</g>
<!-- C&#45;0220&#45;&gt;C&#45;1143 -->
<g id="edge26" class="edge">
<title>C&#45;0220&#45;&gt;C&#45;1143</title>
<path fill="none" stroke="#4d4d4d" d="M931.04,-432C822.49,-432 624,-432 624,-432 624,-432 624,-347.83 624,-347.83"/>
<polygon fill="#4d4d4d" stroke="#4d4d4d" points="626.45,-347.83 624,-340.83 621.55,-347.83 626.45,-347.83"/>
</g>
<!-- S&#45;1720 -->
<g id="node20" class="node">
<title>S&#45;1720</title>
<polygon fill="mediumseagreen" stroke="black" points="757,-346 685,-324.5 757,-303 829,-324.5 757,-346"/>
<text text-anchor="middle" x="757" y="-322" font-family="Arial" font-size="10.00">S&#45;1720</text>
</g>
<!-- C&#45;0220&#45;&gt;S&#45;1720 -->
<g id="edge29" class="edge">
<title>C&#45;0220&#45;&gt;S&#45;1720</title>
<path fill="none" stroke="#4d4d4d" d="M932.48,-418C878.39,-418 811.5,-418 811.5,-418 811.5,-418 811.5,-336.79 811.5,-336.79"/>
<polygon fill="#4d4d4d" stroke="#4d4d4d" points="813.95,-336.79 811.5,-329.79 809.05,-336.79 813.95,-336.79"/>
</g>
<!-- S&#45;1814 -->
<g id="node25" class="node">
<title>S&#45;1814</title>
<polygon fill="mediumseagreen" stroke="black" points="937,-346 865,-324.5 937,-303 1009,-324.5 937,-346"/>
<text text-anchor="middle" x="937" y="-322" font-family="Arial" font-size="10.00">S&#45;1814</text>
</g>
<!-- C&#45;0220&#45;&gt;S&#45;1814 -->
<g id="edge25" class="edge">
<title>C&#45;0220&#45;&gt;S&#45;1814</title>
<path fill="none" stroke="#4d4d4d" d="M968.5,-406.03C968.5,-406.03 968.5,-343.62 968.5,-343.62"/>
<polygon fill="#4d4d4d" stroke="#4d4d4d" points="970.95,-343.62 968.5,-336.62 966.05,-343.62 970.95,-343.62"/>
</g>
<!-- C&#45;1144 -->
<g id="node37" class="node">
<title>C&#45;1144</title>
<ellipse fill="tomato" stroke="black" cx="884" cy="-223.5" rx="72" ry="21.5"/>
<text text-anchor="middle" x="884" y="-221" font-family="Arial" font-size="10.00">C&#45;1144</text>
</g>
<!-- C&#45;0220&#45;&gt;C&#45;1144 -->
<g id="edge28" class="edge">
<title>C&#45;0220&#45;&gt;C&#45;1144</title>
<path fill="none" stroke="#4d4d4d" d="M1019,-404.59C1019,-352.85 1019,-223 1019,-223 1019,-223 963.24,-223 963.24,-223"/>
<polygon fill="#4d4d4d" stroke="#4d4d4d" points="963.24,-220.55 956.24,-223 963.24,-225.45 963.24,-220.55"/>
</g>
<!-- S&#45;1254 -->
<g id="node21" class="node">
<title>S&#45;1254</title>
<polygon fill="mediumseagreen" stroke="black" points="72,-649 0,-627.5 72,-606 144,-627.5 72,-649"/>
<text text-anchor="middle" x="72" y="-625" font-family="Arial" font-size="10.00">S&#45;1254</text>
</g>
<!-- S&#45;537 -->
<g id="node22" class="node">
<title>S&#45;537</title>
<polygon fill="mediumseagreen" stroke="black" points="1802,-1255 1730,-1233.5 1802,-1212 1874,-1233.5 1802,-1255"/>
<text text-anchor="middle" x="1802" y="-1231" font-family="Arial" font-size="10.00">S&#45;537</text>
</g>
<!-- S&#45;537&#45;&gt;C&#45;0360 -->
<g id="edge2" class="edge">
<title>S&#45;537&#45;&gt;C&#45;0360</title>
<path fill="none" stroke="#4d4d4d" d="M1802,-1211.58C1802,-1211.58 1802,-1161.03 1802,-1161.03"/>
<polygon fill="#4d4d4d" stroke="#4d4d4d" points="1804.45,-1161.03 1802,-1154.03 1799.55,-1161.03 1804.45,-1161.03"/>
</g>
<!-- S&#45;1255 -->
<g id="node23" class="node">
<title>S&#45;1255</title>
<polygon fill="mediumseagreen" stroke="black" points="252,-649 180,-627.5 252,-606 324,-627.5 252,-649"/>
<text text-anchor="middle" x="252" y="-625" font-family="Arial" font-size="10.00">S&#45;1255</text>
</g>
<!-- S&#45;1809 -->
<g id="node38" class="node">
<title>S&#45;1809</title>
<polygon fill="mediumseagreen" stroke="black" points="252,-548 180,-526.5 252,-505 324,-526.5 252,-548"/>
<text text-anchor="middle" x="252" y="-524" font-family="Arial" font-size="10.00">S&#45;1809</text>
</g>
<!-- S&#45;1255&#45;&gt;S&#45;1809 -->
<g id="edge40" class="edge">
<title>S&#45;1255&#45;&gt;S&#45;1809</title>
<path fill="none" stroke="#4d4d4d" d="M252,-605.58C252,-605.58 252,-555.03 252,-555.03"/>
<polygon fill="#4d4d4d" stroke="#4d4d4d" points="254.45,-555.03 252,-548.03 249.55,-555.03 254.45,-555.03"/>
</g>
<!-- C&#45;0219&#45;&gt;SR&#45;0023 -->
<g id="edge17" class="edge">
<title>C&#45;0219&#45;&gt;SR&#45;0023</title>
<path fill="none" stroke="#4d4d4d" d="M1135.67,-516.39C1135.67,-492.01 1135.67,-432 1135.67,-432 1135.67,-432 1217.7,-432 1217.7,-432"/>
<polygon fill="#4d4d4d" stroke="#4d4d4d" points="1217.7,-434.45 1224.7,-432 1217.7,-429.55 1217.7,-434.45"/>
</g>
<!-- C&#45;0219&#45;&gt;C&#45;0220 -->
<g id="edge19" class="edge">
<title>C&#45;0219&#45;&gt;C&#45;0220</title>
<path fill="none" stroke="#4d4d4d" d="M1036,-507.5C1036,-507.5 1036,-451.41 1036,-451.41"/>
<polygon fill="#4d4d4d" stroke="#4d4d4d" points="1038.45,-451.41 1036,-444.41 1033.55,-451.41 1038.45,-451.41"/>
</g>
<!-- C&#45;0370 -->
<g id="node35" class="node">
<title>C&#45;0370</title>
<ellipse fill="mediumseagreen" stroke="black" cx="612" cy="-728.5" rx="72" ry="21.5"/>
<text text-anchor="middle" x="612" y="-726" font-family="Arial" font-size="10.00">C&#45;0370</text>
</g>
<!-- C&#45;0368&#45;&gt;C&#45;0370 -->
<g id="edge54" class="edge">
<title>C&#45;0368&#45;&gt;C&#45;0370</title>
<path fill="none" stroke="blue" stroke-dasharray="5,2" d="M1294,-908.78C1294,-898.74 1294,-889 1294,-889 1294,-889 563.5,-889 563.5,-889 563.5,-889 563.5,-751.48 563.5,-751.48"/>
<polygon fill="blue" stroke="blue" points="565.95,-751.48 563.5,-744.48 561.05,-751.48 565.95,-751.48"/>
</g>
<!-- R&#45;123 -->
<g id="node28" class="node">
<title>R&#45;123</title>
<polygon fill="mediumseagreen" stroke="black" points="731,-820.59 731,-838.41 688.82,-851 629.18,-851 587,-838.41 587,-820.59 629.18,-808 688.82,-808 731,-820.59"/>
<text text-anchor="middle" x="659" y="-827" font-family="Arial" font-size="10.00">R&#45;123</text>
</g>
<!-- C&#45;0369&#45;&gt;R&#45;123 -->
<g id="edge36" class="edge">
<title>C&#45;0369&#45;&gt;R&#45;123</title>
<path fill="none" stroke="#4d4d4d" d="M683,-910.06C683,-910.06 683,-858.31 683,-858.31"/>
<polygon fill="#4d4d4d" stroke="#4d4d4d" points="685.45,-858.31 683,-851.31 680.55,-858.31 685.45,-858.31"/>
</g>
<!-- R&#45;123&#45;&gt;C&#45;0370 -->
<g id="edge37" class="edge">
<title>R&#45;123&#45;&gt;C&#45;0370</title>
<path fill="none" stroke="#4d4d4d" d="M635.5,-807.58C635.5,-807.58 635.5,-756 635.5,-756"/>
<polygon fill="#4d4d4d" stroke="#4d4d4d" points="637.95,-756 635.5,-749 633.05,-756 637.95,-756"/>
</g>
<!-- C&#45;1182&#45;&gt;R&#45;064 -->
<g id="edge13" class="edge">
<title>C&#45;1182&#45;&gt;R&#45;064</title>
<path fill="none" stroke="#4d4d4d" d="M1126,-808.08C1126,-808.08 1126,-757.24 1126,-757.24"/>
<polygon fill="#4d4d4d" stroke="#4d4d4d" points="1128.45,-757.24 1126,-750.24 1123.55,-757.24 1128.45,-757.24"/>
</g>
<!-- S&#45;545 -->
<g id="node41" class="node">
<title>S&#45;545</title>
<polygon fill="mediumseagreen" stroke="black" points="1281,-144 1209,-122.5 1281,-101 1353,-122.5 1281,-144"/>
<text text-anchor="middle" x="1281" y="-120" font-family="Arial" font-size="10.00">S&#45;545</text>
</g>
<!-- S&#45;1399&#45;&gt;S&#45;545 -->
<g id="edge22" class="edge">
<title>S&#45;1399&#45;&gt;S&#45;545</title>
<path fill="none" stroke="#4d4d4d" d="M1281,-201.58C1281,-201.58 1281,-151.03 1281,-151.03"/>
<polygon fill="#4d4d4d" stroke="#4d4d4d" points="1283.45,-151.03 1281,-144.03 1278.55,-151.03 1283.45,-151.03"/>
</g>
<!-- S&#45;541&#45;&gt;C&#45;0239 -->
<g id="edge31" class="edge">
<title>S&#45;541&#45;&gt;C&#45;0239</title>
<path fill="none" stroke="#4d4d4d" d="M1467.5,-515.31C1467.5,-515.31 1467.5,-451.3 1467.5,-451.3"/>
<polygon fill="#4d4d4d" stroke="#4d4d4d" points="1469.95,-451.3 1467.5,-444.3 1465.05,-451.3 1469.95,-451.3"/>
</g>
<!-- S&#45;653 -->
<g id="node32" class="node">
<title>S&#45;653</title>
<polygon fill="mediumseagreen" stroke="black" points="432,-649 360,-627.5 432,-606 504,-627.5 432,-649"/>
<text text-anchor="middle" x="432" y="-625" font-family="Arial" font-size="10.00">S&#45;653</text>
</g>
<!-- C&#45;0782&#45;&gt;ext_circ_304_24_ -->
<g id="edge50" class="edge">
<title>C&#45;0782&#45;&gt;ext_circ_304_24_</title>
<path fill="none" stroke="darkorange" stroke-dasharray="5,2" d="M1597.5,-712.86C1597.5,-681.95 1597.5,-616 1597.5,-616 1597.5,-616 1712.85,-616 1712.85,-616"/>
<polygon fill="darkorange" stroke="darkorange" points="1712.85,-618.45 1719.85,-616 1712.85,-613.55 1712.85,-618.45"/>
</g>
<!-- C&#45;1055&#45;&gt;R&#45;258 -->
<g id="edge5" class="edge">
<title>C&#45;1055&#45;&gt;R&#45;258</title>
<path fill="none" stroke="#4d4d4d" d="M1982,-1009.71C1982,-1009.71 1982,-757.09 1982,-757.09"/>
<polygon fill="#4d4d4d" stroke="#4d4d4d" points="1984.45,-757.09 1982,-750.09 1979.55,-757.09 1984.45,-757.09"/>
</g>
<!-- C&#45;0370&#45;&gt;R&#45;083 -->
<g id="edge44" class="edge">
<title>C&#45;0370&#45;&gt;R&#45;083</title>
<path fill="none" stroke="#4d4d4d" d="M541.53,-724C530.14,-724 522,-724 522,-724 522,-724 522,-454.45 522,-454.45"/>
<polygon fill="#4d4d4d" stroke="#4d4d4d" points="524.45,-454.45 522,-447.45 519.55,-454.45 524.45,-454.45"/>
</g>
<!-- C&#45;0370&#45;&gt;S&#45;1256 -->
<g id="edge38" class="edge">
<title>C&#45;0370&#45;&gt;S&#45;1256</title>
<path fill="none" stroke="#4d4d4d" d="M684.23,-728C747.02,-728 828,-728 828,-728 828,-728 828,-644.88 828,-644.88"/>
<polygon fill="#4d4d4d" stroke="#4d4d4d" points="830.45,-644.88 828,-637.88 825.55,-644.88 830.45,-644.88"/>
</g>
<!-- C&#45;0370&#45;&gt;S&#45;1254 -->
<g id="edge41" class="edge">
<title>C&#45;0370&#45;&gt;S&#45;1254</title>
<path fill="none" stroke="#4d4d4d" d="M553.18,-741C413.23,-741 72,-741 72,-741 72,-741 72,-656.12 72,-656.12"/>
<polygon fill="#4d4d4d" stroke="#4d4d4d" points="74.45,-656.12 72,-649.12 69.55,-656.12 74.45,-656.12"/>
</g>
<!-- C&#45;0370&#45;&gt;S&#45;1255 -->
<g id="edge39" class="edge">
<title>C&#45;0370&#45;&gt;S&#45;1255</title>
<path fill="none" stroke="#4d4d4d" d="M540.88,-732C435.96,-732 252,-732 252,-732 252,-732 252,-656.15 252,-656.15"/>
<polygon fill="#4d4d4d" stroke="#4d4d4d" points="254.45,-656.15 252,-649.15 249.55,-656.15 254.45,-656.15"/>
</g>
<!-- C&#45;0370&#45;&gt;S&#45;653 -->
<g id="edge42" class="edge">
<title>C&#45;0370&#45;&gt;S&#45;653</title>
<path fill="none" stroke="#4d4d4d" d="M555.54,-715C502.75,-715 432,-715 432,-715 432,-715 432,-656.13 432,-656.13"/>
<polygon fill="#4d4d4d" stroke="#4d4d4d" points="434.45,-656.13 432,-649.13 429.55,-656.13 434.45,-656.13"/>
</g>
<!-- S&#45;651 -->
<g id="node36" class="node">
<title>S&#45;651</title>
<polygon fill="mediumseagreen" stroke="black" points="612,-649 540,-627.5 612,-606 684,-627.5 612,-649"/>
<text text-anchor="middle" x="612" y="-625" font-family="Arial" font-size="10.00">S&#45;651</text>
</g>
<!-- C&#45;0370&#45;&gt;S&#45;651 -->
<g id="edge43" class="edge">
<title>C&#45;0370&#45;&gt;S&#45;651</title>
<path fill="none" stroke="#4d4d4d" d="M612,-706.58C612,-706.58 612,-656.03 612,-656.03"/>
<polygon fill="#4d4d4d" stroke="#4d4d4d" points="614.45,-656.03 612,-649.03 609.55,-656.03 614.45,-656.03"/>
</g>
<!-- C&#45;1144&#45;&gt;ext_circ_303_26_ -->
<g id="edge52" class="edge">
<title>C&#45;1144&#45;&gt;ext_circ_303_26_</title>
<path fill="none" stroke="darkorange" stroke-dasharray="5,2" d="M884,-201.97C884,-172.18 884,-122 884,-122 884,-122 656.37,-122 656.37,-122"/>
<polygon fill="darkorange" stroke="darkorange" points="656.37,-119.55 649.37,-122 656.37,-124.45 656.37,-119.55"/>
</g>
<!-- S&#45;1374 -->
<g id="node39" class="node">
<title>S&#45;1374</title>
<polygon fill="mediumseagreen" stroke="black" points="934,-851 862,-829.5 934,-808 1006,-829.5 934,-851"/>
<text text-anchor="middle" x="934" y="-827" font-family="Arial" font-size="10.00">S&#45;1374</text>
</g>
<!-- S&#45;865&#45;&gt;S&#45;1374 -->
<g id="edge33" class="edge">
<title>S&#45;865&#45;&gt;S&#45;1374</title>
<path fill="none" stroke="#4d4d4d" d="M934,-908.58C934,-908.58 934,-858.03 934,-858.03"/>
<polygon fill="#4d4d4d" stroke="#4d4d4d" points="936.45,-858.03 934,-851.03 931.55,-858.03 936.45,-858.03"/>
</g>
<!-- S&#45;545&#45;&gt;S&#45;2106 -->
<g id="edge23" class="edge">
<title>S&#45;545&#45;&gt;S&#45;2106</title>
<path fill="none" stroke="#4d4d4d" d="M1281,-100.58C1281,-100.58 1281,-50.03 1281,-50.03"/>
<polygon fill="#4d4d4d" stroke="#4d4d4d" points="1283.45,-50.03 1281,-43.03 1278.55,-50.03 1283.45,-50.03"/>
</g>
<!-- R&#45;289&#45;&gt;ext_circ_303_26_ -->
<g id="edge51" class="edge">
<title>R&#45;289&#45;&gt;ext_circ_303_26_</title>
<path fill="none" stroke="darkorange" stroke-dasharray="5,2" d="M577,-201.58C577,-201.58 577,-151.03 577,-151.03"/>
<polygon fill="darkorange" stroke="darkorange" points="579.45,-151.03 577,-144.03 574.55,-151.03 579.45,-151.03"/>
</g>
<!-- R&#45;173&#45;&gt;ext_circ_304_24_ -->
<g id="edge49" class="edge">
<title>R&#45;173&#45;&gt;ext_circ_304_24_</title>
<path fill="none" stroke="darkorange" stroke-dasharray="5,2" d="M1760,-707.57C1760,-707.57 1760,-656.1 1760,-656.1"/>
<polygon fill="darkorange" stroke="darkorange" points="1762.45,-656.1 1760,-649.1 1757.55,-656.1 1762.45,-656.1"/>
</g>
<!-- C&#45;1184&#45;&gt;C&#45;1183 -->
<g id="edge48" class="edge">
<title>C&#45;1184&#45;&gt;C&#45;1183</title>
<path fill="none" stroke="blue" stroke-dasharray="5,2" d="M1439,-810.44C1439,-762 1439,-638 1439,-638 1439,-638 1231.86,-638 1231.86,-638"/>
<polygon fill="blue" stroke="blue" points="1231.86,-635.55 1224.86,-638 1231.86,-640.45 1231.86,-635.55"/>
</g>
<!-- 304&#45;25&#45; -->
<g id="node47" class="node">
<title>304&#45;25&#45;</title>
<polygon fill="gold" stroke="black" points="1874,-1329.59 1874,-1347.41 1831.82,-1360 1772.18,-1360 1730,-1347.41 1730,-1329.59 1772.18,-1317 1831.82,-1317 1874,-1329.59"/>
<polygon fill="none" stroke="black" points="1878,-1326.61 1878,-1350.39 1832.41,-1364 1771.59,-1364 1726,-1350.39 1726,-1326.61 1771.59,-1313 1832.41,-1313 1878,-1326.61"/>
<text text-anchor="middle" x="1802" y="-1336" font-family="Arial" font-size="10.00">304&#45;25&#45;</text>
</g>
<!-- 304&#45;25&#45;&#45;&gt;S&#45;537 -->
<g id="edge1" class="edge">
<title>304&#45;25&#45;&#45;&gt;S&#45;537</title>
<path fill="none" stroke="#4d4d4d" d="M1802,-1312.81C1802,-1312.81 1802,-1262.03 1802,-1262.03"/>
<polygon fill="#4d4d4d" stroke="#4d4d4d" points="1804.45,-1262.03 1802,-1255.03 1799.55,-1262.03 1804.45,-1262.03"/>
</g>
</g>
</svg>
