<?xml version="1.0" encoding="UTF-8" standalone="no"?>
<!DOCTYPE svg PUBLIC "-//W3C//DTD SVG 1.1//EN"
 "http://www.w3.org/Graphics/SVG/1.1/DTD/svg11.dtd">
<!-- Generated by graphviz version 2.50.0 (0)
 -->
<!-- Title: Grafo_Circuito_114_22_ Pages: 1 -->
<svg width="2229pt" height="968pt"
 viewBox="0.00 0.00 2229.00 968.00" xmlns="http://www.w3.org/2000/svg" xmlns:xlink="http://www.w3.org/1999/xlink">
<g id="graph0" class="graph" transform="scale(1 1) rotate(0) translate(4 964)">
<title>Grafo_Circuito_114_22_</title>
<polygon fill="white" stroke="transparent" points="-4,4 -4,-964 2225,-964 2225,4 -4,4"/>
<!-- S&#45;1725 -->
<g id="node1" class="node">
<title>S&#45;1725</title>
<polygon fill="mediumseagreen" stroke="black" points="1429,-43 1357,-21.5 1429,0 1501,-21.5 1429,-43"/>
<text text-anchor="middle" x="1429" y="-19" font-family="Arial" font-size="10.00">S&#45;1725</text>
</g>
<!-- S&#45;2485 -->
<g id="node2" class="node">
<title>S&#45;2485</title>
<polygon fill="mediumseagreen" stroke="black" points="72,-447 0,-425.5 72,-404 144,-425.5 72,-447"/>
<text text-anchor="middle" x="72" y="-423" font-family="Arial" font-size="10.00">S&#45;2485</text>
</g>
<!-- S&#45;2133 -->
<g id="node3" class="node">
<title>S&#45;2133</title>
<polygon fill="mediumseagreen" stroke="black" points="792,-447 720,-425.5 792,-404 864,-425.5 792,-447"/>
<text text-anchor="middle" x="792" y="-423" font-family="Arial" font-size="10.00">S&#45;2133</text>
</g>
<!-- S&#45;2196 -->
<g id="node34" class="node">
<title>S&#45;2196</title>
<polygon fill="mediumseagreen" stroke="black" points="792,-346 720,-324.5 792,-303 864,-324.5 792,-346"/>
<text text-anchor="middle" x="792" y="-322" font-family="Arial" font-size="10.00">S&#45;2196</text>
</g>
<!-- S&#45;2133&#45;&gt;S&#45;2196 -->
<g id="edge26" class="edge">
<title>S&#45;2133&#45;&gt;S&#45;2196</title>
<path fill="none" stroke="#4d4d4d" d="M792,-403.58C792,-403.58 792,-353.03 792,-353.03"/>
<polygon fill="#4d4d4d" stroke="#4d4d4d" points="794.45,-353.03 792,-346.03 789.55,-353.03 794.45,-353.03"/>
</g>
<!-- C&#45;0957 -->
<g id="node4" class="node">
<title>C&#45;0957</title>
<ellipse fill="mediumseagreen" stroke="black" cx="792" cy="-728.5" rx="72" ry="21.5"/>
<text text-anchor="middle" x="792" y="-726" font-family="Arial" font-size="10.00">C&#45;0957</text>
</g>
<!-- R&#45;226 -->
<g id="node26" class="node">
<title>R&#45;226</title>
<polygon fill="mediumseagreen" stroke="black" points="684,-618.59 684,-636.41 641.82,-649 582.18,-649 540,-636.41 540,-618.59 582.18,-606 641.82,-606 684,-618.59"/>
<text text-anchor="middle" x="612" y="-625" font-family="Arial" font-size="10.00">R&#45;226</text>
</g>
<!-- C&#45;0957&#45;&gt;R&#45;226 -->
<g id="edge33" class="edge">
<title>C&#45;0957&#45;&gt;R&#45;226</title>
<path fill="none" stroke="#4d4d4d" d="M719.82,-728C669.75,-728 612,-728 612,-728 612,-728 612,-656.31 612,-656.31"/>
<polygon fill="#4d4d4d" stroke="#4d4d4d" points="614.45,-656.31 612,-649.31 609.55,-656.31 614.45,-656.31"/>
</g>
<!-- S&#45;1983 -->
<g id="node5" class="node">
<title>S&#45;1983</title>
<polygon fill="mediumseagreen" stroke="black" points="252,-447 180,-425.5 252,-404 324,-425.5 252,-447"/>
<text text-anchor="middle" x="252" y="-423" font-family="Arial" font-size="10.00">S&#45;1983</text>
</g>
<!-- S&#45;2157 -->
<g id="node6" class="node">
<title>S&#45;2157</title>
<polygon fill="mediumseagreen" stroke="black" points="1609,-43 1537,-21.5 1609,0 1681,-21.5 1609,-43"/>
<text text-anchor="middle" x="1609" y="-19" font-family="Arial" font-size="10.00">S&#45;2157</text>
</g>
<!-- C&#45;0532 -->
<g id="node7" class="node">
<title>C&#45;0532</title>
<ellipse fill="mediumseagreen" stroke="black" cx="972" cy="-728.5" rx="72" ry="21.5"/>
<text text-anchor="middle" x="972" y="-726" font-family="Arial" font-size="10.00">C&#45;0532</text>
</g>
<!-- R&#45;077 -->
<g id="node23" class="node">
<title>R&#45;077</title>
<polygon fill="mediumseagreen" stroke="black" points="1044,-618.59 1044,-636.41 1001.82,-649 942.18,-649 900,-636.41 900,-618.59 942.18,-606 1001.82,-606 1044,-618.59"/>
<text text-anchor="middle" x="972" y="-625" font-family="Arial" font-size="10.00">R&#45;077</text>
</g>
<!-- C&#45;0532&#45;&gt;R&#45;077 -->
<g id="edge23" class="edge">
<title>C&#45;0532&#45;&gt;R&#45;077</title>
<path fill="none" stroke="#4d4d4d" d="M972,-706.58C972,-706.58 972,-656.03 972,-656.03"/>
<polygon fill="#4d4d4d" stroke="#4d4d4d" points="974.45,-656.03 972,-649.03 969.55,-656.03 974.45,-656.03"/>
</g>
<!-- S&#45;126 -->
<g id="node8" class="node">
<title>S&#45;126</title>
<polygon fill="mediumseagreen" stroke="black" points="1332,-447 1260,-425.5 1332,-404 1404,-425.5 1332,-447"/>
<text text-anchor="middle" x="1332" y="-423" font-family="Arial" font-size="10.00">S&#45;126</text>
</g>
<!-- C&#45;0959 -->
<g id="node9" class="node">
<title>C&#45;0959</title>
<ellipse fill="mediumseagreen" stroke="black" cx="432" cy="-526.5" rx="72" ry="21.5"/>
<text text-anchor="middle" x="432" y="-524" font-family="Arial" font-size="10.00">C&#45;0959</text>
</g>
<!-- C&#45;0959&#45;&gt;S&#45;2485 -->
<g id="edge36" class="edge">
<title>C&#45;0959&#45;&gt;S&#45;2485</title>
<path fill="none" stroke="#4d4d4d" d="M363.01,-533C258.48,-533 72,-533 72,-533 72,-533 72,-454.25 72,-454.25"/>
<polygon fill="#4d4d4d" stroke="#4d4d4d" points="74.45,-454.25 72,-447.25 69.55,-454.25 74.45,-454.25"/>
</g>
<!-- C&#45;0959&#45;&gt;S&#45;1983 -->
<g id="edge37" class="edge">
<title>C&#45;0959&#45;&gt;S&#45;1983</title>
<path fill="none" stroke="#4d4d4d" d="M364.46,-519C313.39,-519 252,-519 252,-519 252,-519 252,-454.19 252,-454.19"/>
<polygon fill="#4d4d4d" stroke="#4d4d4d" points="254.45,-454.19 252,-447.19 249.55,-454.19 254.45,-454.19"/>
</g>
<!-- S&#45;1981 -->
<g id="node13" class="node">
<title>S&#45;1981</title>
<polygon fill="mediumseagreen" stroke="black" points="432,-447 360,-425.5 432,-404 504,-425.5 432,-447"/>
<text text-anchor="middle" x="432" y="-423" font-family="Arial" font-size="10.00">S&#45;1981</text>
</g>
<!-- C&#45;0959&#45;&gt;S&#45;1981 -->
<g id="edge35" class="edge">
<title>C&#45;0959&#45;&gt;S&#45;1981</title>
<path fill="none" stroke="#4d4d4d" d="M432,-504.58C432,-504.58 432,-454.03 432,-454.03"/>
<polygon fill="#4d4d4d" stroke="#4d4d4d" points="434.45,-454.03 432,-447.03 429.55,-454.03 434.45,-454.03"/>
</g>
<!-- S&#45;1982 -->
<g id="node36" class="node">
<title>S&#45;1982</title>
<polygon fill="mediumseagreen" stroke="black" points="612,-447 540,-425.5 612,-404 684,-425.5 612,-447"/>
<text text-anchor="middle" x="612" y="-423" font-family="Arial" font-size="10.00">S&#45;1982</text>
</g>
<!-- C&#45;0959&#45;&gt;S&#45;1982 -->
<g id="edge38" class="edge">
<title>C&#45;0959&#45;&gt;S&#45;1982</title>
<path fill="none" stroke="#4d4d4d" d="M499.54,-519C550.61,-519 612,-519 612,-519 612,-519 612,-454.19 612,-454.19"/>
<polygon fill="#4d4d4d" stroke="#4d4d4d" points="614.45,-454.19 612,-447.19 609.55,-454.19 614.45,-454.19"/>
</g>
<!-- R&#45;184 -->
<g id="node10" class="node">
<title>R&#45;184</title>
<polygon fill="mediumseagreen" stroke="black" points="1764,-315.59 1764,-333.41 1721.82,-346 1662.18,-346 1620,-333.41 1620,-315.59 1662.18,-303 1721.82,-303 1764,-315.59"/>
<text text-anchor="middle" x="1692" y="-322" font-family="Arial" font-size="10.00">R&#45;184</text>
</g>
<!-- C&#45;0819 -->
<g id="node21" class="node">
<title>C&#45;0819</title>
<ellipse fill="mediumseagreen" stroke="black" cx="1692" cy="-223.5" rx="72" ry="21.5"/>
<text text-anchor="middle" x="1692" y="-221" font-family="Arial" font-size="10.00">C&#45;0819</text>
</g>
<!-- R&#45;184&#45;&gt;C&#45;0819 -->
<g id="edge13" class="edge">
<title>R&#45;184&#45;&gt;C&#45;0819</title>
<path fill="none" stroke="#4d4d4d" d="M1692,-302.58C1692,-302.58 1692,-252.03 1692,-252.03"/>
<polygon fill="#4d4d4d" stroke="#4d4d4d" points="1694.45,-252.03 1692,-245.03 1689.55,-252.03 1694.45,-252.03"/>
</g>
<!-- S&#45;2138 -->
<g id="node11" class="node">
<title>S&#45;2138</title>
<polygon fill="mediumseagreen" stroke="black" points="972,-447 900,-425.5 972,-404 1044,-425.5 972,-447"/>
<text text-anchor="middle" x="972" y="-423" font-family="Arial" font-size="10.00">S&#45;2138</text>
</g>
<!-- C&#45;0968 -->
<g id="node22" class="node">
<title>C&#45;0968</title>
<ellipse fill="mediumseagreen" stroke="black" cx="1152" cy="-324.5" rx="72" ry="21.5"/>
<text text-anchor="middle" x="1152" y="-322" font-family="Arial" font-size="10.00">C&#45;0968</text>
</g>
<!-- S&#45;2138&#45;&gt;C&#45;0968 -->
<g id="edge30" class="edge">
<title>S&#45;2138&#45;&gt;C&#45;0968</title>
<path fill="none" stroke="#4d4d4d" d="M1042.47,-425C1053.86,-425 1062,-425 1062,-425 1062,-425 1062,-324 1062,-324 1062,-324 1072.78,-324 1072.78,-324"/>
<polygon fill="#4d4d4d" stroke="#4d4d4d" points="1072.78,-326.45 1079.78,-324 1072.78,-321.55 1072.78,-326.45"/>
</g>
<!-- C&#45;0967 -->
<g id="node30" class="node">
<title>C&#45;0967</title>
<ellipse fill="tomato" stroke="black" cx="972" cy="-324.5" rx="72" ry="21.5"/>
<text text-anchor="middle" x="972" y="-322" font-family="Arial" font-size="10.00">C&#45;0967</text>
</g>
<!-- S&#45;2138&#45;&gt;C&#45;0967 -->
<g id="edge29" class="edge">
<title>S&#45;2138&#45;&gt;C&#45;0967</title>
<path fill="none" stroke="#4d4d4d" d="M972,-403.58C972,-403.58 972,-353.03 972,-353.03"/>
<polygon fill="#4d4d4d" stroke="#4d4d4d" points="974.45,-353.03 972,-346.03 969.55,-353.03 974.45,-353.03"/>
</g>
<!-- S&#45;127 -->
<g id="node12" class="node">
<title>S&#45;127</title>
<polygon fill="mediumseagreen" stroke="black" points="1512,-447 1440,-425.5 1512,-404 1584,-425.5 1512,-447"/>
<text text-anchor="middle" x="1512" y="-423" font-family="Arial" font-size="10.00">S&#45;127</text>
</g>
<!-- C&#45;0533 -->
<g id="node14" class="node">
<title>C&#45;0533</title>
<ellipse fill="tomato" stroke="black" cx="1152" cy="-728.5" rx="72" ry="21.5"/>
<text text-anchor="middle" x="1152" y="-726" font-family="Arial" font-size="10.00">C&#45;0533</text>
</g>
<!-- C&#45;0533&#45;&gt;S&#45;2133 -->
<g id="edge41" class="edge">
<title>C&#45;0533&#45;&gt;S&#45;2133</title>
<path fill="none" stroke="blue" stroke-dasharray="5,2" d="M1128,-708.02C1128,-690.47 1128,-668 1128,-668 1128,-668 768,-668 768,-668 768,-668 768,-446.94 768,-446.94"/>
<polygon fill="blue" stroke="blue" points="770.45,-446.94 768,-439.94 765.55,-446.94 770.45,-446.94"/>
</g>
<!-- S&#45;1116 -->
<g id="node15" class="node">
<title>S&#45;1116</title>
<polygon fill="mediumseagreen" stroke="black" points="1789,-43 1717,-21.5 1789,0 1861,-21.5 1789,-43"/>
<text text-anchor="middle" x="1789" y="-19" font-family="Arial" font-size="10.00">S&#45;1116</text>
</g>
<!-- R&#45;109 -->
<g id="node16" class="node">
<title>R&#45;109</title>
<polygon fill="mediumseagreen" stroke="black" points="1764,-618.59 1764,-636.41 1721.82,-649 1662.18,-649 1620,-636.41 1620,-618.59 1662.18,-606 1721.82,-606 1764,-618.59"/>
<text text-anchor="middle" x="1692" y="-625" font-family="Arial" font-size="10.00">R&#45;109</text>
</g>
<!-- C&#45;0584 -->
<g id="node31" class="node">
<title>C&#45;0584</title>
<ellipse fill="mediumseagreen" stroke="black" cx="1692" cy="-526.5" rx="72" ry="21.5"/>
<text text-anchor="middle" x="1692" y="-524" font-family="Arial" font-size="10.00">C&#45;0584</text>
</g>
<!-- R&#45;109&#45;&gt;C&#45;0584 -->
<g id="edge5" class="edge">
<title>R&#45;109&#45;&gt;C&#45;0584</title>
<path fill="none" stroke="#4d4d4d" d="M1692,-605.58C1692,-605.58 1692,-555.03 1692,-555.03"/>
<polygon fill="#4d4d4d" stroke="#4d4d4d" points="1694.45,-555.03 1692,-548.03 1689.55,-555.03 1694.45,-555.03"/>
</g>
<!-- C&#45;0583 -->
<g id="node17" class="node">
<title>C&#45;0583</title>
<ellipse fill="tomato" stroke="black" cx="1332" cy="-728.5" rx="72" ry="21.5"/>
<text text-anchor="middle" x="1332" y="-726" font-family="Arial" font-size="10.00">C&#45;0583</text>
</g>
<!-- C&#45;0583&#45;&gt;C&#45;0584 -->
<g id="edge39" class="edge">
<title>C&#45;0583&#45;&gt;C&#45;0584</title>
<path fill="none" stroke="blue" stroke-dasharray="5,2" d="M1308,-708.22C1308,-659.33 1308,-539 1308,-539 1308,-539 1626.26,-539 1626.26,-539"/>
<polygon fill="blue" stroke="blue" points="1626.26,-541.45 1633.26,-539 1626.26,-536.55 1626.26,-541.45"/>
</g>
<!-- C&#45;0820 -->
<g id="node18" class="node">
<title>C&#45;0820</title>
<ellipse fill="tomato" stroke="black" cx="1609" cy="-122.5" rx="72" ry="21.5"/>
<text text-anchor="middle" x="1609" y="-120" font-family="Arial" font-size="10.00">C&#45;0820</text>
</g>
<!-- C&#45;0821 -->
<g id="node20" class="node">
<title>C&#45;0821</title>
<ellipse fill="mediumseagreen" stroke="black" cx="1692" cy="-425.5" rx="72" ry="21.5"/>
<text text-anchor="middle" x="1692" y="-423" font-family="Arial" font-size="10.00">C&#45;0821</text>
</g>
<!-- C&#45;0820&#45;&gt;C&#45;0821 -->
<g id="edge40" class="edge">
<title>C&#45;0820&#45;&gt;C&#45;0821</title>
<path fill="none" stroke="blue" stroke-dasharray="5,2" d="M1602,-144.26C1602,-213.62 1602,-425 1602,-425 1602,-425 1612.78,-425 1612.78,-425"/>
<polygon fill="blue" stroke="blue" points="1612.78,-427.45 1619.78,-425 1612.78,-422.55 1612.78,-427.45"/>
</g>
<!-- S&#45;2467 -->
<g id="node19" class="node">
<title>S&#45;2467</title>
<ellipse fill="mediumseagreen" stroke="black" cx="1152" cy="-425.5" rx="72" ry="21.5"/>
<text text-anchor="middle" x="1152" y="-423" font-family="Arial" font-size="10.00">S&#45;2467</text>
</g>
<!-- C&#45;0821&#45;&gt;R&#45;184 -->
<g id="edge12" class="edge">
<title>C&#45;0821&#45;&gt;R&#45;184</title>
<path fill="none" stroke="#4d4d4d" d="M1692,-403.58C1692,-403.58 1692,-353.03 1692,-353.03"/>
<polygon fill="#4d4d4d" stroke="#4d4d4d" points="1694.45,-353.03 1692,-346.03 1689.55,-353.03 1694.45,-353.03"/>
</g>
<!-- C&#45;0819&#45;&gt;C&#45;0820 -->
<g id="edge14" class="edge">
<title>C&#45;0819&#45;&gt;C&#45;0820</title>
<path fill="none" stroke="#4d4d4d" d="M1650.5,-205.91C1650.5,-205.91 1650.5,-147.23 1650.5,-147.23"/>
<polygon fill="#4d4d4d" stroke="#4d4d4d" points="1652.95,-147.23 1650.5,-140.23 1648.05,-147.23 1652.95,-147.23"/>
</g>
<!-- C&#45;0309 -->
<g id="node33" class="node">
<title>C&#45;0309</title>
<ellipse fill="mediumseagreen" stroke="black" cx="1789" cy="-122.5" rx="72" ry="21.5"/>
<text text-anchor="middle" x="1789" y="-120" font-family="Arial" font-size="10.00">C&#45;0309</text>
</g>
<!-- C&#45;0819&#45;&gt;C&#45;0309 -->
<g id="edge15" class="edge">
<title>C&#45;0819&#45;&gt;C&#45;0309</title>
<path fill="none" stroke="#4d4d4d" d="M1740.5,-207.27C1740.5,-207.27 1740.5,-145.69 1740.5,-145.69"/>
<polygon fill="#4d4d4d" stroke="#4d4d4d" points="1742.95,-145.69 1740.5,-138.69 1738.05,-145.69 1742.95,-145.69"/>
</g>
<!-- C&#45;0534 -->
<g id="node35" class="node">
<title>C&#45;0534</title>
<ellipse fill="mediumseagreen" stroke="black" cx="972" cy="-526.5" rx="72" ry="21.5"/>
<text text-anchor="middle" x="972" y="-524" font-family="Arial" font-size="10.00">C&#45;0534</text>
</g>
<!-- R&#45;077&#45;&gt;C&#45;0534 -->
<g id="edge24" class="edge">
<title>R&#45;077&#45;&gt;C&#45;0534</title>
<path fill="none" stroke="#4d4d4d" d="M972,-605.58C972,-605.58 972,-555.03 972,-555.03"/>
<polygon fill="#4d4d4d" stroke="#4d4d4d" points="974.45,-555.03 972,-548.03 969.55,-555.03 974.45,-555.03"/>
</g>
<!-- S&#45;2232 -->
<g id="node24" class="node">
<title>S&#45;2232</title>
<polygon fill="mediumseagreen" stroke="black" points="1872,-346 1800,-324.5 1872,-303 1944,-324.5 1872,-346"/>
<text text-anchor="middle" x="1872" y="-322" font-family="Arial" font-size="10.00">S&#45;2232</text>
</g>
<!-- S&#45;2156 -->
<g id="node25" class="node">
<title>S&#45;2156</title>
<polygon fill="mediumseagreen" stroke="black" points="1872,-447 1800,-425.5 1872,-404 1944,-425.5 1872,-447"/>
<text text-anchor="middle" x="1872" y="-423" font-family="Arial" font-size="10.00">S&#45;2156</text>
</g>
<!-- S&#45;2156&#45;&gt;S&#45;2232 -->
<g id="edge7" class="edge">
<title>S&#45;2156&#45;&gt;S&#45;2232</title>
<path fill="none" stroke="#4d4d4d" d="M1872,-403.58C1872,-403.58 1872,-353.03 1872,-353.03"/>
<polygon fill="#4d4d4d" stroke="#4d4d4d" points="1874.45,-353.03 1872,-346.03 1869.55,-353.03 1874.45,-353.03"/>
</g>
<!-- R&#45;226&#45;&gt;C&#45;0959 -->
<g id="edge34" class="edge">
<title>R&#45;226&#45;&gt;C&#45;0959</title>
<path fill="none" stroke="#4d4d4d" d="M539.94,-627C499.06,-627 456,-627 456,-627 456,-627 456,-553.84 456,-553.84"/>
<polygon fill="#4d4d4d" stroke="#4d4d4d" points="458.45,-553.84 456,-546.84 453.55,-553.84 458.45,-553.84"/>
</g>
<!-- C&#45;0051 -->
<g id="node27" class="node">
<title>C&#45;0051</title>
<ellipse fill="mediumseagreen" stroke="black" cx="1242" cy="-829.5" rx="72" ry="21.5"/>
<text text-anchor="middle" x="1242" y="-827" font-family="Arial" font-size="10.00">C&#45;0051</text>
</g>
<!-- C&#45;0051&#45;&gt;C&#45;0957 -->
<g id="edge31" class="edge">
<title>C&#45;0051&#45;&gt;C&#45;0957</title>
<path fill="none" stroke="#4d4d4d" d="M1173.16,-836C1047.11,-836 792,-836 792,-836 792,-836 792,-757.25 792,-757.25"/>
<polygon fill="#4d4d4d" stroke="#4d4d4d" points="794.45,-757.25 792,-750.25 789.55,-757.25 794.45,-757.25"/>
</g>
<!-- C&#45;0051&#45;&gt;C&#45;0532 -->
<g id="edge21" class="edge">
<title>C&#45;0051&#45;&gt;C&#45;0532</title>
<path fill="none" stroke="#4d4d4d" d="M1174.34,-822C1113.79,-822 1034.5,-822 1034.5,-822 1034.5,-822 1034.5,-746.23 1034.5,-746.23"/>
<polygon fill="#4d4d4d" stroke="#4d4d4d" points="1036.95,-746.23 1034.5,-739.23 1032.05,-746.23 1036.95,-746.23"/>
</g>
<!-- C&#45;0051&#45;&gt;C&#45;0533 -->
<g id="edge22" class="edge">
<title>C&#45;0051&#45;&gt;C&#45;0533</title>
<path fill="none" stroke="#4d4d4d" d="M1197,-812.37C1197,-812.37 1197,-752.38 1197,-752.38"/>
<polygon fill="#4d4d4d" stroke="#4d4d4d" points="1199.45,-752.38 1197,-745.38 1194.55,-752.38 1199.45,-752.38"/>
</g>
<!-- C&#45;0051&#45;&gt;C&#45;0583 -->
<g id="edge2" class="edge">
<title>C&#45;0051&#45;&gt;C&#45;0583</title>
<path fill="none" stroke="#4d4d4d" d="M1287,-812.37C1287,-812.37 1287,-752.38 1287,-752.38"/>
<polygon fill="#4d4d4d" stroke="#4d4d4d" points="1289.45,-752.38 1287,-745.38 1284.55,-752.38 1289.45,-752.38"/>
</g>
<!-- C&#45;0958 -->
<g id="node32" class="node">
<title>C&#45;0958</title>
<ellipse fill="tomato" stroke="black" cx="1512" cy="-728.5" rx="72" ry="21.5"/>
<text text-anchor="middle" x="1512" y="-726" font-family="Arial" font-size="10.00">C&#45;0958</text>
</g>
<!-- C&#45;0051&#45;&gt;C&#45;0958 -->
<g id="edge32" class="edge">
<title>C&#45;0051&#45;&gt;C&#45;0958</title>
<path fill="none" stroke="#4d4d4d" d="M1309.78,-822C1389.76,-822 1512,-822 1512,-822 1512,-822 1512,-757.19 1512,-757.19"/>
<polygon fill="#4d4d4d" stroke="#4d4d4d" points="1514.45,-757.19 1512,-750.19 1509.55,-757.19 1514.45,-757.19"/>
</g>
<!-- C&#45;0585 -->
<g id="node38" class="node">
<title>C&#45;0585</title>
<ellipse fill="mediumseagreen" stroke="black" cx="1692" cy="-728.5" rx="72" ry="21.5"/>
<text text-anchor="middle" x="1692" y="-726" font-family="Arial" font-size="10.00">C&#45;0585</text>
</g>
<!-- C&#45;0051&#45;&gt;C&#45;0585 -->
<g id="edge3" class="edge">
<title>C&#45;0051&#45;&gt;C&#45;0585</title>
<path fill="none" stroke="#4d4d4d" d="M1310.84,-836C1436.89,-836 1692,-836 1692,-836 1692,-836 1692,-757.25 1692,-757.25"/>
<polygon fill="#4d4d4d" stroke="#4d4d4d" points="1694.45,-757.25 1692,-750.25 1689.55,-757.25 1694.45,-757.25"/>
</g>
<!-- C&#45;0790 -->
<g id="node28" class="node">
<title>C&#45;0790</title>
<ellipse fill="mediumseagreen" stroke="black" cx="1969" cy="-21.5" rx="72" ry="21.5"/>
<text text-anchor="middle" x="1969" y="-19" font-family="Arial" font-size="10.00">C&#45;0790</text>
</g>
<!-- S&#45;2062 -->
<g id="node29" class="node">
<title>S&#45;2062</title>
<polygon fill="mediumseagreen" stroke="black" points="2149,-43 2077,-21.5 2149,0 2221,-21.5 2149,-43"/>
<text text-anchor="middle" x="2149" y="-19" font-family="Arial" font-size="10.00">S&#45;2062</text>
</g>
<!-- ext_circ_109_23_ -->
<g id="node40" class="node">
<title>ext_circ_109_23_</title>
<polygon fill="lightpink" stroke="darkorange" stroke-dasharray="5,2" points="1025,-956 881,-956 881,-913 1025,-913 1025,-956"/>
<text text-anchor="middle" x="953" y="-937.5" font-family="Arial" font-size="10.00">Circuito:</text>
<text text-anchor="middle" x="953" y="-926.5" font-family="Arial" font-size="10.00">109&#45;23&#45;</text>
</g>
<!-- C&#45;0967&#45;&gt;ext_circ_109_23_ -->
<g id="edge42" class="edge">
<title>C&#45;0967&#45;&gt;ext_circ_109_23_</title>
<path fill="none" stroke="darkorange" stroke-dasharray="5,2" d="M899.85,-324C894.13,-324 890.5,-324 890.5,-324 890.5,-324 890.5,-905.77 890.5,-905.77"/>
<polygon fill="darkorange" stroke="darkorange" points="888.05,-905.77 890.5,-912.77 892.95,-905.77 888.05,-905.77"/>
</g>
<!-- C&#45;0584&#45;&gt;S&#45;126 -->
<g id="edge8" class="edge">
<title>C&#45;0584&#45;&gt;S&#45;126</title>
<path fill="none" stroke="#4d4d4d" d="M1620.74,-530C1522.11,-530 1356,-530 1356,-530 1356,-530 1356,-447.03 1356,-447.03"/>
<polygon fill="#4d4d4d" stroke="#4d4d4d" points="1358.45,-447.03 1356,-440.03 1353.55,-447.03 1358.45,-447.03"/>
</g>
<!-- C&#45;0584&#45;&gt;S&#45;127 -->
<g id="edge9" class="edge">
<title>C&#45;0584&#45;&gt;S&#45;127</title>
<path fill="none" stroke="#4d4d4d" d="M1635.68,-513C1591,-513 1536,-513 1536,-513 1536,-513 1536,-446.95 1536,-446.95"/>
<polygon fill="#4d4d4d" stroke="#4d4d4d" points="1538.45,-446.95 1536,-439.95 1533.55,-446.95 1538.45,-446.95"/>
</g>
<!-- C&#45;0584&#45;&gt;C&#45;0821 -->
<g id="edge11" class="edge">
<title>C&#45;0584&#45;&gt;C&#45;0821</title>
<path fill="none" stroke="#4d4d4d" d="M1692,-504.58C1692,-504.58 1692,-454.03 1692,-454.03"/>
<polygon fill="#4d4d4d" stroke="#4d4d4d" points="1694.45,-454.03 1692,-447.03 1689.55,-454.03 1694.45,-454.03"/>
</g>
<!-- C&#45;0584&#45;&gt;S&#45;2156 -->
<g id="edge6" class="edge">
<title>C&#45;0584&#45;&gt;S&#45;2156</title>
<path fill="none" stroke="#4d4d4d" d="M1759.54,-519C1810.61,-519 1872,-519 1872,-519 1872,-519 1872,-454.19 1872,-454.19"/>
<polygon fill="#4d4d4d" stroke="#4d4d4d" points="1874.45,-454.19 1872,-447.19 1869.55,-454.19 1874.45,-454.19"/>
</g>
<!-- S&#45;1784 -->
<g id="node39" class="node">
<title>S&#45;1784</title>
<polygon fill="mediumseagreen" stroke="black" points="2052,-447 1980,-425.5 2052,-404 2124,-425.5 2052,-447"/>
<text text-anchor="middle" x="2052" y="-423" font-family="Arial" font-size="10.00">S&#45;1784</text>
</g>
<!-- C&#45;0584&#45;&gt;S&#45;1784 -->
<g id="edge10" class="edge">
<title>C&#45;0584&#45;&gt;S&#45;1784</title>
<path fill="none" stroke="#4d4d4d" d="M1760.99,-533C1865.52,-533 2052,-533 2052,-533 2052,-533 2052,-454.25 2052,-454.25"/>
<polygon fill="#4d4d4d" stroke="#4d4d4d" points="2054.45,-454.25 2052,-447.25 2049.55,-454.25 2054.45,-454.25"/>
</g>
<!-- C&#45;0958&#45;&gt;C&#45;0959 -->
<g id="edge43" class="edge">
<title>C&#45;0958&#45;&gt;C&#45;0959</title>
<path fill="none" stroke="blue" stroke-dasharray="5,2" d="M1488,-707.75C1488,-697.38 1488,-687 1488,-687 1488,-687 408,-687 408,-687 408,-687 408,-553.83 408,-553.83"/>
<polygon fill="blue" stroke="blue" points="410.45,-553.83 408,-546.83 405.55,-553.83 410.45,-553.83"/>
</g>
<!-- C&#45;0309&#45;&gt;S&#45;1725 -->
<g id="edge19" class="edge">
<title>C&#45;0309&#45;&gt;S&#45;1725</title>
<path fill="none" stroke="#4d4d4d" d="M1765,-101.96C1765,-87.98 1765,-72 1765,-72 1765,-72 1470.5,-72 1470.5,-72 1470.5,-72 1470.5,-37.76 1470.5,-37.76"/>
<polygon fill="#4d4d4d" stroke="#4d4d4d" points="1472.95,-37.76 1470.5,-30.76 1468.05,-37.76 1472.95,-37.76"/>
</g>
<!-- C&#45;0309&#45;&gt;S&#45;2157 -->
<g id="edge17" class="edge">
<title>C&#45;0309&#45;&gt;S&#45;2157</title>
<path fill="none" stroke="#4d4d4d" d="M1716.78,-122C1706.32,-122 1699,-122 1699,-122 1699,-122 1699,-21 1699,-21 1699,-21 1686.47,-21 1686.47,-21"/>
<polygon fill="#4d4d4d" stroke="#4d4d4d" points="1686.47,-18.55 1679.47,-21 1686.47,-23.45 1686.47,-18.55"/>
</g>
<!-- C&#45;0309&#45;&gt;S&#45;1116 -->
<g id="edge20" class="edge">
<title>C&#45;0309&#45;&gt;S&#45;1116</title>
<path fill="none" stroke="#4d4d4d" d="M1813,-102.06C1813,-102.06 1813,-43.03 1813,-43.03"/>
<polygon fill="#4d4d4d" stroke="#4d4d4d" points="1815.45,-43.03 1813,-36.03 1810.55,-43.03 1815.45,-43.03"/>
</g>
<!-- C&#45;0309&#45;&gt;C&#45;0790 -->
<g id="edge18" class="edge">
<title>C&#45;0309&#45;&gt;C&#45;0790</title>
<path fill="none" stroke="#4d4d4d" d="M1856.68,-115C1888.9,-115 1920.5,-115 1920.5,-115 1920.5,-115 1920.5,-44.79 1920.5,-44.79"/>
<polygon fill="#4d4d4d" stroke="#4d4d4d" points="1922.95,-44.79 1920.5,-37.79 1918.05,-44.79 1922.95,-44.79"/>
</g>
<!-- C&#45;0309&#45;&gt;S&#45;2062 -->
<g id="edge16" class="edge">
<title>C&#45;0309&#45;&gt;S&#45;2062</title>
<path fill="none" stroke="#4d4d4d" d="M1857.75,-129C1949.48,-129 2100.5,-129 2100.5,-129 2100.5,-129 2100.5,-35.55 2100.5,-35.55"/>
<polygon fill="#4d4d4d" stroke="#4d4d4d" points="2102.95,-35.55 2100.5,-28.55 2098.05,-35.55 2102.95,-35.55"/>
</g>
<!-- C&#45;0534&#45;&gt;S&#45;2133 -->
<g id="edge25" class="edge">
<title>C&#45;0534&#45;&gt;S&#45;2133</title>
<path fill="none" stroke="#4d4d4d" d="M903.12,-533C861.33,-533 816,-533 816,-533 816,-533 816,-447 816,-447"/>
<polygon fill="#4d4d4d" stroke="#4d4d4d" points="818.45,-447 816,-440 813.55,-447 818.45,-447"/>
</g>
<!-- C&#45;0534&#45;&gt;S&#45;2138 -->
<g id="edge28" class="edge">
<title>C&#45;0534&#45;&gt;S&#45;2138</title>
<path fill="none" stroke="#4d4d4d" d="M972,-504.58C972,-504.58 972,-454.03 972,-454.03"/>
<polygon fill="#4d4d4d" stroke="#4d4d4d" points="974.45,-454.03 972,-447.03 969.55,-454.03 974.45,-454.03"/>
</g>
<!-- C&#45;0534&#45;&gt;S&#45;2467 -->
<g id="edge27" class="edge">
<title>C&#45;0534&#45;&gt;S&#45;2467</title>
<path fill="none" stroke="#4d4d4d" d="M1042.49,-522C1101.46,-522 1176,-522 1176,-522 1176,-522 1176,-452.97 1176,-452.97"/>
<polygon fill="#4d4d4d" stroke="#4d4d4d" points="1178.45,-452.97 1176,-445.97 1173.55,-452.97 1178.45,-452.97"/>
</g>
<!-- 114&#45;22&#45; -->
<g id="node37" class="node">
<title>114&#45;22&#45;</title>
<polygon fill="gold" stroke="black" points="1314,-925.59 1314,-943.41 1271.82,-956 1212.18,-956 1170,-943.41 1170,-925.59 1212.18,-913 1271.82,-913 1314,-925.59"/>
<polygon fill="none" stroke="black" points="1318,-922.61 1318,-946.39 1272.41,-960 1211.59,-960 1166,-946.39 1166,-922.61 1211.59,-909 1272.41,-909 1318,-922.61"/>
<text text-anchor="middle" x="1242" y="-932" font-family="Arial" font-size="10.00">114&#45;22&#45;</text>
</g>
<!-- 114&#45;22&#45;&#45;&gt;C&#45;0051 -->
<g id="edge1" class="edge">
<title>114&#45;22&#45;&#45;&gt;C&#45;0051</title>
<path fill="none" stroke="#4d4d4d" d="M1242,-908.81C1242,-908.81 1242,-858.03 1242,-858.03"/>
<polygon fill="#4d4d4d" stroke="#4d4d4d" points="1244.45,-858.03 1242,-851.03 1239.55,-858.03 1244.45,-858.03"/>
</g>
<!-- C&#45;0585&#45;&gt;R&#45;109 -->
<g id="edge4" class="edge">
<title>C&#45;0585&#45;&gt;R&#45;109</title>
<path fill="none" stroke="#4d4d4d" d="M1692,-706.58C1692,-706.58 1692,-656.03 1692,-656.03"/>
<polygon fill="#4d4d4d" stroke="#4d4d4d" points="1694.45,-656.03 1692,-649.03 1689.55,-656.03 1694.45,-656.03"/>
</g>
</g>
</svg>
