<?xml version="1.0" encoding="UTF-8" standalone="no"?>
<!DOCTYPE svg PUBLIC "-//W3C//DTD SVG 1.1//EN"
 "http://www.w3.org/Graphics/SVG/1.1/DTD/svg11.dtd">
<!-- Generated by graphviz version 2.50.0 (0)
 -->
<!-- Title: Grafo_Circuito_111_25_ Pages: 1 -->
<svg width="1962pt" height="1462pt"
 viewBox="0.00 0.00 1962.00 1462.00" xmlns="http://www.w3.org/2000/svg" xmlns:xlink="http://www.w3.org/1999/xlink">
<g id="graph0" class="graph" transform="scale(1 1) rotate(0) translate(4 1458)">
<title>Grafo_Circuito_111_25_</title>
<polygon fill="white" stroke="transparent" points="-4,4 -4,-1458 1958,-1458 1958,4 -4,4"/>
<!-- S&#45;1764 -->
<g id="node1" class="node">
<title>S&#45;1764</title>
<polygon fill="mediumseagreen" stroke="black" points="1366.5,-600 1298,-582 1366.5,-564 1435,-582 1366.5,-600"/>
<text text-anchor="middle" x="1366.5" y="-580.1" font-family="Helvetica,sans-Serif" font-size="8.00">S&#45;1764</text>
</g>
<!-- C&#45;0912 -->
<g id="node2" class="node">
<title>C&#45;0912</title>
<ellipse fill="tomato" stroke="black" cx="1193.5" cy="-582" rx="68.5" ry="18"/>
<text text-anchor="middle" x="1193.5" y="-580.1" font-family="Helvetica,sans-Serif" font-size="8.00">C&#45;0912</text>
</g>
<!-- C&#45;0913 -->
<g id="node43" class="node">
<title>C&#45;0913</title>
<ellipse fill="mediumseagreen" stroke="black" cx="1539.5" cy="-864" rx="68.5" ry="18"/>
<text text-anchor="middle" x="1539.5" y="-862.1" font-family="Helvetica,sans-Serif" font-size="8.00">C&#45;0913</text>
</g>
<!-- C&#45;0912&#45;&gt;C&#45;0913 -->
<g id="edge43" class="edge">
<title>C&#45;0912&#45;&gt;C&#45;0913</title>
<path fill="none" stroke="blue" stroke-width="0.8" stroke-dasharray="5,2" d="M1170.67,-599.28C1170.67,-653.55 1170.67,-817 1170.67,-817 1170.67,-817 1516.67,-817 1516.67,-817 1516.67,-817 1516.67,-839.77 1516.67,-839.77"/>
<polygon fill="blue" stroke="blue" stroke-width="0.8" points="1514.22,-839.77 1516.67,-846.77 1519.12,-839.77 1514.22,-839.77"/>
</g>
<!-- C&#45;0635 -->
<g id="node3" class="node">
<title>C&#45;0635</title>
<ellipse fill="mediumseagreen" stroke="black" cx="1366.5" cy="-488" rx="68.5" ry="18"/>
<text text-anchor="middle" x="1366.5" y="-486.1" font-family="Helvetica,sans-Serif" font-size="8.00">C&#45;0635</text>
</g>
<!-- C&#45;0691 -->
<g id="node18" class="node">
<title>C&#45;0691</title>
<ellipse fill="tomato" stroke="black" cx="1193.5" cy="-394" rx="68.5" ry="18"/>
<text text-anchor="middle" x="1193.5" y="-392.1" font-family="Helvetica,sans-Serif" font-size="8.00">C&#45;0691</text>
</g>
<!-- C&#45;0635&#45;&gt;C&#45;0691 -->
<g id="edge18" class="edge">
<title>C&#45;0635&#45;&gt;C&#45;0691</title>
<path fill="none" stroke="dimgray" stroke-width="0.8" d="M1297.63,-488C1249.38,-488 1193.5,-488 1193.5,-488 1193.5,-488 1193.5,-419.12 1193.5,-419.12"/>
<polygon fill="dimgray" stroke="dimgray" stroke-width="0.8" points="1195.95,-419.12 1193.5,-412.12 1191.05,-419.12 1195.95,-419.12"/>
</g>
<!-- C&#45;0690 -->
<g id="node22" class="node">
<title>C&#45;0690</title>
<ellipse fill="mediumseagreen" stroke="black" cx="1366.5" cy="-394" rx="68.5" ry="18"/>
<text text-anchor="middle" x="1366.5" y="-392.1" font-family="Helvetica,sans-Serif" font-size="8.00">C&#45;0690</text>
</g>
<!-- C&#45;0635&#45;&gt;C&#45;0690 -->
<g id="edge17" class="edge">
<title>C&#45;0635&#45;&gt;C&#45;0690</title>
<path fill="none" stroke="dimgray" stroke-width="0.8" d="M1366.5,-469.88C1366.5,-469.88 1366.5,-419.07 1366.5,-419.07"/>
<polygon fill="dimgray" stroke="dimgray" stroke-width="0.8" points="1368.95,-419.07 1366.5,-412.07 1364.05,-419.07 1368.95,-419.07"/>
</g>
<!-- S&#45;1728 -->
<g id="node4" class="node">
<title>S&#45;1728</title>
<polygon fill="mediumseagreen" stroke="black" points="1107.5,-36 1039,-18 1107.5,0 1176,-18 1107.5,-36"/>
<text text-anchor="middle" x="1107.5" y="-16.1" font-family="Helvetica,sans-Serif" font-size="8.00">S&#45;1728</text>
</g>
<!-- S&#45;074 -->
<g id="node5" class="node">
<title>S&#45;074</title>
<polygon fill="mediumseagreen" stroke="black" points="847.5,-882 779,-864 847.5,-846 916,-864 847.5,-882"/>
<text text-anchor="middle" x="847.5" y="-862.1" font-family="Helvetica,sans-Serif" font-size="8.00">S&#45;074</text>
</g>
<!-- S&#45;2053 -->
<g id="node6" class="node">
<title>S&#45;2053</title>
<polygon fill="mediumseagreen" stroke="black" points="241.5,-1258 173,-1240 241.5,-1222 310,-1240 241.5,-1258"/>
<text text-anchor="middle" x="241.5" y="-1238.1" font-family="Helvetica,sans-Serif" font-size="8.00">S&#45;2053</text>
</g>
<!-- S&#45;2201 -->
<g id="node9" class="node">
<title>S&#45;2201</title>
<polygon fill="mediumseagreen" stroke="black" points="68.5,-1164 0,-1146 68.5,-1128 137,-1146 68.5,-1164"/>
<text text-anchor="middle" x="68.5" y="-1144.1" font-family="Helvetica,sans-Serif" font-size="8.00">S&#45;2201</text>
</g>
<!-- S&#45;2053&#45;&gt;S&#45;2201 -->
<g id="edge41" class="edge">
<title>S&#45;2053&#45;&gt;S&#45;2201</title>
<path fill="none" stroke="dimgray" stroke-width="0.8" d="M172.63,-1240C124.38,-1240 68.5,-1240 68.5,-1240 68.5,-1240 68.5,-1171.12 68.5,-1171.12"/>
<polygon fill="dimgray" stroke="dimgray" stroke-width="0.8" points="70.95,-1171.12 68.5,-1164.12 66.05,-1171.12 70.95,-1171.12"/>
</g>
<!-- S&#45;2289 -->
<g id="node29" class="node">
<title>S&#45;2289</title>
<polygon fill="mediumseagreen" stroke="black" points="241.5,-1164 173,-1146 241.5,-1128 310,-1146 241.5,-1164"/>
<text text-anchor="middle" x="241.5" y="-1144.1" font-family="Helvetica,sans-Serif" font-size="8.00">S&#45;2289</text>
</g>
<!-- S&#45;2053&#45;&gt;S&#45;2289 -->
<g id="edge40" class="edge">
<title>S&#45;2053&#45;&gt;S&#45;2289</title>
<path fill="none" stroke="dimgray" stroke-width="0.8" d="M241.5,-1221.88C241.5,-1221.88 241.5,-1171.07 241.5,-1171.07"/>
<polygon fill="dimgray" stroke="dimgray" stroke-width="0.8" points="243.95,-1171.07 241.5,-1164.07 239.05,-1171.07 243.95,-1171.07"/>
</g>
<!-- S&#45;2419 -->
<g id="node33" class="node">
<title>S&#45;2419</title>
<polygon fill="mediumseagreen" stroke="black" points="414.5,-1164 346,-1146 414.5,-1128 483,-1146 414.5,-1164"/>
<text text-anchor="middle" x="414.5" y="-1144.1" font-family="Helvetica,sans-Serif" font-size="8.00">S&#45;2419</text>
</g>
<!-- S&#45;2053&#45;&gt;S&#45;2419 -->
<g id="edge42" class="edge">
<title>S&#45;2053&#45;&gt;S&#45;2419</title>
<path fill="none" stroke="dimgray" stroke-width="0.8" d="M310.14,-1240C325.33,-1240 337,-1240 337,-1240 337,-1240 337,-1146 337,-1146 337,-1146 338.89,-1146 338.89,-1146"/>
<polygon fill="dimgray" stroke="dimgray" stroke-width="0.8" points="338.89,-1148.45 345.89,-1146 338.89,-1143.55 338.89,-1148.45"/>
</g>
<!-- C&#45;0181 -->
<g id="node7" class="node">
<title>C&#45;0181</title>
<ellipse fill="mediumseagreen" stroke="black" cx="500.5" cy="-1334" rx="68.5" ry="18"/>
<text text-anchor="middle" x="500.5" y="-1332.1" font-family="Helvetica,sans-Serif" font-size="8.00">C&#45;0181</text>
</g>
<!-- C&#45;0181&#45;&gt;S&#45;2053 -->
<g id="edge39" class="edge">
<title>C&#45;0181&#45;&gt;S&#45;2053</title>
<path fill="none" stroke="dimgray" stroke-width="0.8" d="M431.77,-1334C366.25,-1334 277.5,-1334 277.5,-1334 277.5,-1334 277.5,-1255.67 277.5,-1255.67"/>
<polygon fill="dimgray" stroke="dimgray" stroke-width="0.8" points="279.95,-1255.67 277.5,-1248.67 275.05,-1255.67 279.95,-1255.67"/>
</g>
<!-- S&#45;060 -->
<g id="node24" class="node">
<title>S&#45;060</title>
<polygon fill="mediumseagreen" stroke="black" points="414.5,-1258 346,-1240 414.5,-1222 483,-1240 414.5,-1258"/>
<text text-anchor="middle" x="414.5" y="-1238.1" font-family="Helvetica,sans-Serif" font-size="8.00">S&#45;060</text>
</g>
<!-- C&#45;0181&#45;&gt;S&#45;060 -->
<g id="edge2" class="edge">
<title>C&#45;0181&#45;&gt;S&#45;060</title>
<path fill="none" stroke="dimgray" stroke-width="0.8" d="M457.5,-1319.72C457.5,-1319.72 457.5,-1253.83 457.5,-1253.83"/>
<polygon fill="dimgray" stroke="dimgray" stroke-width="0.8" points="459.95,-1253.83 457.5,-1246.83 455.05,-1253.83 459.95,-1253.83"/>
</g>
<!-- S&#45;2169 -->
<g id="node31" class="node">
<title>S&#45;2169</title>
<polygon fill="mediumseagreen" stroke="black" points="587.5,-1258 519,-1240 587.5,-1222 656,-1240 587.5,-1258"/>
<text text-anchor="middle" x="587.5" y="-1238.1" font-family="Helvetica,sans-Serif" font-size="8.00">S&#45;2169</text>
</g>
<!-- C&#45;0181&#45;&gt;S&#45;2169 -->
<g id="edge38" class="edge">
<title>C&#45;0181&#45;&gt;S&#45;2169</title>
<path fill="none" stroke="dimgray" stroke-width="0.8" d="M544,-1319.72C544,-1319.72 544,-1253.83 544,-1253.83"/>
<polygon fill="dimgray" stroke="dimgray" stroke-width="0.8" points="546.45,-1253.83 544,-1246.83 541.55,-1253.83 546.45,-1253.83"/>
</g>
<!-- C&#45;0275 -->
<g id="node42" class="node">
<title>C&#45;0275</title>
<ellipse fill="mediumseagreen" stroke="black" cx="760.5" cy="-1240" rx="68.5" ry="18"/>
<text text-anchor="middle" x="760.5" y="-1238.1" font-family="Helvetica,sans-Serif" font-size="8.00">C&#45;0275</text>
</g>
<!-- C&#45;0181&#45;&gt;C&#45;0275 -->
<g id="edge3" class="edge">
<title>C&#45;0181&#45;&gt;C&#45;0275</title>
<path fill="none" stroke="dimgray" stroke-width="0.8" d="M569.15,-1334C646.18,-1334 760.5,-1334 760.5,-1334 760.5,-1334 760.5,-1265.12 760.5,-1265.12"/>
<polygon fill="dimgray" stroke="dimgray" stroke-width="0.8" points="762.95,-1265.12 760.5,-1258.12 758.05,-1265.12 762.95,-1265.12"/>
</g>
<!-- S&#45;1587 -->
<g id="node8" class="node">
<title>S&#45;1587</title>
<polygon fill="mediumseagreen" stroke="black" points="1280.5,-36 1212,-18 1280.5,0 1349,-18 1280.5,-36"/>
<text text-anchor="middle" x="1280.5" y="-16.1" font-family="Helvetica,sans-Serif" font-size="8.00">S&#45;1587</text>
</g>
<!-- C&#45;1279 -->
<g id="node10" class="node">
<title>C&#45;1279</title>
<ellipse fill="mediumseagreen" stroke="black" cx="1539.5" cy="-394" rx="68.5" ry="18"/>
<text text-anchor="middle" x="1539.5" y="-392.1" font-family="Helvetica,sans-Serif" font-size="8.00">C&#45;1279</text>
</g>
<!-- S&#45;762 -->
<g id="node11" class="node">
<title>S&#45;762</title>
<polygon fill="mediumseagreen" stroke="black" points="1539.5,-506 1471,-488 1539.5,-470 1608,-488 1539.5,-506"/>
<text text-anchor="middle" x="1539.5" y="-486.1" font-family="Helvetica,sans-Serif" font-size="8.00">S&#45;762</text>
</g>
<!-- S&#45;762&#45;&gt;C&#45;1279 -->
<g id="edge27" class="edge">
<title>S&#45;762&#45;&gt;C&#45;1279</title>
<path fill="none" stroke="dimgray" stroke-width="0.8" d="M1539.5,-469.88C1539.5,-469.88 1539.5,-419.07 1539.5,-419.07"/>
<polygon fill="dimgray" stroke="dimgray" stroke-width="0.8" points="1541.95,-419.07 1539.5,-412.07 1537.05,-419.07 1541.95,-419.07"/>
</g>
<!-- S&#45;660 -->
<g id="node12" class="node">
<title>S&#45;660</title>
<polygon fill="mediumseagreen" stroke="black" points="847.5,-976 779,-958 847.5,-940 916,-958 847.5,-976"/>
<text text-anchor="middle" x="847.5" y="-956.1" font-family="Helvetica,sans-Serif" font-size="8.00">S&#45;660</text>
</g>
<!-- S&#45;660&#45;&gt;S&#45;074 -->
<g id="edge36" class="edge">
<title>S&#45;660&#45;&gt;S&#45;074</title>
<path fill="none" stroke="dimgray" stroke-width="0.8" d="M847.5,-939.88C847.5,-939.88 847.5,-889.07 847.5,-889.07"/>
<polygon fill="dimgray" stroke="dimgray" stroke-width="0.8" points="849.95,-889.07 847.5,-882.07 845.05,-889.07 849.95,-889.07"/>
</g>
<!-- S&#45;114 -->
<g id="node13" class="node">
<title>S&#45;114</title>
<polygon fill="mediumseagreen" stroke="black" points="674.5,-1164 606,-1146 674.5,-1128 743,-1146 674.5,-1164"/>
<text text-anchor="middle" x="674.5" y="-1144.1" font-family="Helvetica,sans-Serif" font-size="8.00">S&#45;114</text>
</g>
<!-- S&#45;073 -->
<g id="node14" class="node">
<title>S&#45;073</title>
<polygon fill="mediumseagreen" stroke="black" points="1280.5,-130 1212,-112 1280.5,-94 1349,-112 1280.5,-130"/>
<text text-anchor="middle" x="1280.5" y="-110.1" font-family="Helvetica,sans-Serif" font-size="8.00">S&#45;073</text>
</g>
<!-- S&#45;073&#45;&gt;S&#45;1728 -->
<g id="edge24" class="edge">
<title>S&#45;073&#45;&gt;S&#45;1728</title>
<path fill="none" stroke="dimgray" stroke-width="0.8" d="M1211.69,-112C1180.51,-112 1150.5,-112 1150.5,-112 1150.5,-112 1150.5,-31.76 1150.5,-31.76"/>
<polygon fill="dimgray" stroke="dimgray" stroke-width="0.8" points="1152.95,-31.76 1150.5,-24.76 1148.05,-31.76 1152.95,-31.76"/>
</g>
<!-- S&#45;073&#45;&gt;S&#45;1587 -->
<g id="edge23" class="edge">
<title>S&#45;073&#45;&gt;S&#45;1587</title>
<path fill="none" stroke="dimgray" stroke-width="0.8" d="M1280.5,-93.88C1280.5,-93.88 1280.5,-43.07 1280.5,-43.07"/>
<polygon fill="dimgray" stroke="dimgray" stroke-width="0.8" points="1282.95,-43.07 1280.5,-36.07 1278.05,-43.07 1282.95,-43.07"/>
</g>
<!-- S&#45;2460 -->
<g id="node27" class="node">
<title>S&#45;2460</title>
<polygon fill="mediumseagreen" stroke="black" points="1453.5,-36 1385,-18 1453.5,0 1522,-18 1453.5,-36"/>
<text text-anchor="middle" x="1453.5" y="-16.1" font-family="Helvetica,sans-Serif" font-size="8.00">S&#45;2460</text>
</g>
<!-- S&#45;073&#45;&gt;S&#45;2460 -->
<g id="edge25" class="edge">
<title>S&#45;073&#45;&gt;S&#45;2460</title>
<path fill="none" stroke="dimgray" stroke-width="0.8" d="M1349.08,-112C1359.58,-112 1367,-112 1367,-112 1367,-112 1367,-18 1367,-18 1367,-18 1377.92,-18 1377.92,-18"/>
<polygon fill="dimgray" stroke="dimgray" stroke-width="0.8" points="1377.92,-20.45 1384.92,-18 1377.92,-15.55 1377.92,-20.45"/>
</g>
<!-- S&#45;697 -->
<g id="node15" class="node">
<title>S&#45;697</title>
<polygon fill="mediumseagreen" stroke="black" points="1020.5,-976 952,-958 1020.5,-940 1089,-958 1020.5,-976"/>
<text text-anchor="middle" x="1020.5" y="-956.1" font-family="Helvetica,sans-Serif" font-size="8.00">S&#45;697</text>
</g>
<!-- S&#45;2234 -->
<g id="node16" class="node">
<title>S&#45;2234</title>
<polygon fill="mediumseagreen" stroke="black" points="674.5,-1070 606,-1052 674.5,-1034 743,-1052 674.5,-1070"/>
<text text-anchor="middle" x="674.5" y="-1050.1" font-family="Helvetica,sans-Serif" font-size="8.00">S&#45;2234</text>
</g>
<!-- S&#45;2523 -->
<g id="node17" class="node">
<title>S&#45;2523</title>
<polygon fill="mediumseagreen" stroke="black" points="1712.5,-506 1644,-488 1712.5,-470 1781,-488 1712.5,-506"/>
<text text-anchor="middle" x="1712.5" y="-486.1" font-family="Helvetica,sans-Serif" font-size="8.00">S&#45;2523</text>
</g>
<!-- C&#45;0692 -->
<g id="node25" class="node">
<title>C&#45;0692</title>
<ellipse fill="mediumseagreen" stroke="black" cx="1366.5" cy="-206" rx="68.5" ry="18"/>
<text text-anchor="middle" x="1366.5" y="-204.1" font-family="Helvetica,sans-Serif" font-size="8.00">C&#45;0692</text>
</g>
<!-- C&#45;0691&#45;&gt;C&#45;0692 -->
<g id="edge44" class="edge">
<title>C&#45;0691&#45;&gt;C&#45;0692</title>
<path fill="none" stroke="blue" stroke-width="0.8" stroke-dasharray="5,2" d="M1237,-379.87C1237,-336.15 1237,-206 1237,-206 1237,-206 1290.96,-206 1290.96,-206"/>
<polygon fill="blue" stroke="blue" stroke-width="0.8" points="1290.96,-208.45 1297.96,-206 1290.96,-203.55 1290.96,-208.45"/>
</g>
<!-- C&#45;0321 -->
<g id="node19" class="node">
<title>C&#45;0321</title>
<ellipse fill="mediumseagreen" stroke="black" cx="847.5" cy="-1146" rx="68.5" ry="18"/>
<text text-anchor="middle" x="847.5" y="-1144.1" font-family="Helvetica,sans-Serif" font-size="8.00">C&#45;0321</text>
</g>
<!-- C&#45;0321&#45;&gt;S&#45;2234 -->
<g id="edge37" class="edge">
<title>C&#45;0321&#45;&gt;S&#45;2234</title>
<path fill="none" stroke="dimgray" stroke-width="0.8" d="M778.92,-1146C768.42,-1146 761,-1146 761,-1146 761,-1146 761,-1052 761,-1052 761,-1052 750.08,-1052 750.08,-1052"/>
<polygon fill="dimgray" stroke="dimgray" stroke-width="0.8" points="750.08,-1049.55 743.08,-1052 750.08,-1054.45 750.08,-1049.55"/>
</g>
<!-- S&#45;1560 -->
<g id="node34" class="node">
<title>S&#45;1560</title>
<polygon fill="mediumseagreen" stroke="black" points="847.5,-1070 779,-1052 847.5,-1034 916,-1052 847.5,-1070"/>
<text text-anchor="middle" x="847.5" y="-1050.1" font-family="Helvetica,sans-Serif" font-size="8.00">S&#45;1560</text>
</g>
<!-- C&#45;0321&#45;&gt;S&#45;1560 -->
<g id="edge6" class="edge">
<title>C&#45;0321&#45;&gt;S&#45;1560</title>
<path fill="none" stroke="dimgray" stroke-width="0.8" d="M847.5,-1127.88C847.5,-1127.88 847.5,-1077.07 847.5,-1077.07"/>
<polygon fill="dimgray" stroke="dimgray" stroke-width="0.8" points="849.95,-1077.07 847.5,-1070.07 845.05,-1077.07 849.95,-1077.07"/>
</g>
<!-- C&#45;0301 -->
<g id="node40" class="node">
<title>C&#45;0301</title>
<ellipse fill="mediumseagreen" stroke="black" cx="1020.5" cy="-1052" rx="68.5" ry="18"/>
<text text-anchor="middle" x="1020.5" y="-1050.1" font-family="Helvetica,sans-Serif" font-size="8.00">C&#45;0301</text>
</g>
<!-- C&#45;0321&#45;&gt;C&#45;0301 -->
<g id="edge7" class="edge">
<title>C&#45;0321&#45;&gt;C&#45;0301</title>
<path fill="none" stroke="dimgray" stroke-width="0.8" d="M916.37,-1146C964.62,-1146 1020.5,-1146 1020.5,-1146 1020.5,-1146 1020.5,-1077.12 1020.5,-1077.12"/>
<polygon fill="dimgray" stroke="dimgray" stroke-width="0.8" points="1022.95,-1077.12 1020.5,-1070.12 1018.05,-1077.12 1022.95,-1077.12"/>
</g>
<!-- R&#45;213 -->
<g id="node20" class="node">
<title>R&#45;213</title>
<polygon fill="mediumseagreen" stroke="black" points="1608,-762.54 1608,-777.46 1567.87,-788 1511.13,-788 1471,-777.46 1471,-762.54 1511.13,-752 1567.87,-752 1608,-762.54"/>
<text text-anchor="middle" x="1539.5" y="-768.1" font-family="Helvetica,sans-Serif" font-size="8.00">R&#45;213</text>
</g>
<!-- C&#45;0911 -->
<g id="node30" class="node">
<title>C&#45;0911</title>
<ellipse fill="mediumseagreen" stroke="black" cx="1539.5" cy="-676" rx="68.5" ry="18"/>
<text text-anchor="middle" x="1539.5" y="-674.1" font-family="Helvetica,sans-Serif" font-size="8.00">C&#45;0911</text>
</g>
<!-- R&#45;213&#45;&gt;C&#45;0911 -->
<g id="edge12" class="edge">
<title>R&#45;213&#45;&gt;C&#45;0911</title>
<path fill="none" stroke="dimgray" stroke-width="0.8" d="M1539.5,-751.88C1539.5,-751.88 1539.5,-701.07 1539.5,-701.07"/>
<polygon fill="dimgray" stroke="dimgray" stroke-width="0.8" points="1541.95,-701.07 1539.5,-694.07 1537.05,-701.07 1541.95,-701.07"/>
</g>
<!-- C&#45;0008 -->
<g id="node21" class="node">
<title>C&#45;0008</title>
<ellipse fill="mediumseagreen" stroke="black" cx="1539.5" cy="-582" rx="68.5" ry="18"/>
<text text-anchor="middle" x="1539.5" y="-580.1" font-family="Helvetica,sans-Serif" font-size="8.00">C&#45;0008</text>
</g>
<!-- C&#45;0008&#45;&gt;C&#45;0635 -->
<g id="edge16" class="edge">
<title>C&#45;0008&#45;&gt;C&#45;0635</title>
<path fill="none" stroke="dimgray" stroke-width="0.8" d="M1470.92,-582C1460.42,-582 1453,-582 1453,-582 1453,-582 1453,-488 1453,-488 1453,-488 1442.08,-488 1442.08,-488"/>
<polygon fill="dimgray" stroke="dimgray" stroke-width="0.8" points="1442.08,-485.55 1435.08,-488 1442.08,-490.45 1442.08,-485.55"/>
</g>
<!-- C&#45;0008&#45;&gt;S&#45;762 -->
<g id="edge26" class="edge">
<title>C&#45;0008&#45;&gt;S&#45;762</title>
<path fill="none" stroke="dimgray" stroke-width="0.8" d="M1539.5,-563.88C1539.5,-563.88 1539.5,-513.07 1539.5,-513.07"/>
<polygon fill="dimgray" stroke="dimgray" stroke-width="0.8" points="1541.95,-513.07 1539.5,-506.07 1537.05,-513.07 1541.95,-513.07"/>
</g>
<!-- R&#45;155 -->
<g id="node35" class="node">
<title>R&#45;155</title>
<polygon fill="mediumseagreen" stroke="black" points="1435,-292.54 1435,-307.46 1394.87,-318 1338.13,-318 1298,-307.46 1298,-292.54 1338.13,-282 1394.87,-282 1435,-292.54"/>
<text text-anchor="middle" x="1366.5" y="-298.1" font-family="Helvetica,sans-Serif" font-size="8.00">R&#45;155</text>
</g>
<!-- C&#45;0690&#45;&gt;R&#45;155 -->
<g id="edge19" class="edge">
<title>C&#45;0690&#45;&gt;R&#45;155</title>
<path fill="none" stroke="dimgray" stroke-width="0.8" d="M1366.5,-375.88C1366.5,-375.88 1366.5,-325.07 1366.5,-325.07"/>
<polygon fill="dimgray" stroke="dimgray" stroke-width="0.8" points="1368.95,-325.07 1366.5,-318.07 1364.05,-325.07 1368.95,-325.07"/>
</g>
<!-- S&#45;658 -->
<g id="node23" class="node">
<title>S&#45;658</title>
<polygon fill="mediumseagreen" stroke="black" points="1712.5,-600 1644,-582 1712.5,-564 1781,-582 1712.5,-600"/>
<text text-anchor="middle" x="1712.5" y="-580.1" font-family="Helvetica,sans-Serif" font-size="8.00">S&#45;658</text>
</g>
<!-- S&#45;658&#45;&gt;S&#45;2523 -->
<g id="edge30" class="edge">
<title>S&#45;658&#45;&gt;S&#45;2523</title>
<path fill="none" stroke="dimgray" stroke-width="0.8" d="M1712.5,-563.88C1712.5,-563.88 1712.5,-513.07 1712.5,-513.07"/>
<polygon fill="dimgray" stroke="dimgray" stroke-width="0.8" points="1714.95,-513.07 1712.5,-506.07 1710.05,-513.07 1714.95,-513.07"/>
</g>
<!-- C&#45;0692&#45;&gt;S&#45;073 -->
<g id="edge22" class="edge">
<title>C&#45;0692&#45;&gt;S&#45;073</title>
<path fill="none" stroke="dimgray" stroke-width="0.8" d="M1323.5,-191.72C1323.5,-191.72 1323.5,-125.83 1323.5,-125.83"/>
<polygon fill="dimgray" stroke="dimgray" stroke-width="0.8" points="1325.95,-125.83 1323.5,-118.83 1321.05,-125.83 1325.95,-125.83"/>
</g>
<!-- S&#45;1610 -->
<g id="node37" class="node">
<title>S&#45;1610</title>
<polygon fill="mediumseagreen" stroke="black" points="1453.5,-130 1385,-112 1453.5,-94 1522,-112 1453.5,-130"/>
<text text-anchor="middle" x="1453.5" y="-110.1" font-family="Helvetica,sans-Serif" font-size="8.00">S&#45;1610</text>
</g>
<!-- C&#45;0692&#45;&gt;S&#45;1610 -->
<g id="edge21" class="edge">
<title>C&#45;0692&#45;&gt;S&#45;1610</title>
<path fill="none" stroke="dimgray" stroke-width="0.8" d="M1410,-191.72C1410,-191.72 1410,-125.83 1410,-125.83"/>
<polygon fill="dimgray" stroke="dimgray" stroke-width="0.8" points="1412.45,-125.83 1410,-118.83 1407.55,-125.83 1412.45,-125.83"/>
</g>
<!-- S&#45;2379 -->
<g id="node26" class="node">
<title>S&#45;2379</title>
<polygon fill="mediumseagreen" stroke="black" points="1366.5,-882 1298,-864 1366.5,-846 1435,-864 1366.5,-882"/>
<text text-anchor="middle" x="1366.5" y="-862.1" font-family="Helvetica,sans-Serif" font-size="8.00">S&#45;2379</text>
</g>
<!-- R&#45;093 -->
<g id="node28" class="node">
<title>R&#45;093</title>
<polygon fill="tomato" stroke="black" points="1262,-856.54 1262,-871.46 1221.87,-882 1165.13,-882 1125,-871.46 1125,-856.54 1165.13,-846 1221.87,-846 1262,-856.54"/>
<text text-anchor="middle" x="1193.5" y="-862.1" font-family="Helvetica,sans-Serif" font-size="8.00">R&#45;093</text>
</g>
<!-- ext_circ_101_23_ -->
<g id="node44" class="node">
<title>ext_circ_101_23_</title>
<polygon fill="lightpink" stroke="red" stroke-dasharray="5,2" points="382,-1450 245,-1450 245,-1414 382,-1414 382,-1450"/>
<text text-anchor="middle" x="313.5" y="-1434.6" font-family="Helvetica,sans-Serif" font-size="8.00">Circuito:</text>
<text text-anchor="middle" x="313.5" y="-1425.6" font-family="Helvetica,sans-Serif" font-size="8.00">101&#45;23&#45;</text>
</g>
<!-- R&#45;093&#45;&gt;ext_circ_101_23_ -->
<g id="edge46" class="edge">
<title>R&#45;093&#45;&gt;ext_circ_101_23_</title>
<path fill="none" stroke="red" stroke-width="0.8" stroke-dasharray="5,2" d="M1170.67,-882.04C1170.67,-895.29 1170.67,-911 1170.67,-911 1170.67,-911 319,-911 319,-911 319,-911 319,-1406.76 319,-1406.76"/>
<polygon fill="red" stroke="red" stroke-width="0.8" points="316.55,-1406.76 319,-1413.76 321.45,-1406.76 316.55,-1406.76"/>
</g>
<!-- C&#45;0911&#45;&gt;S&#45;1764 -->
<g id="edge28" class="edge">
<title>C&#45;0911&#45;&gt;S&#45;1764</title>
<path fill="none" stroke="dimgray" stroke-width="0.8" d="M1474.59,-670C1425.5,-670 1366.5,-670 1366.5,-670 1366.5,-670 1366.5,-607.23 1366.5,-607.23"/>
<polygon fill="dimgray" stroke="dimgray" stroke-width="0.8" points="1368.95,-607.23 1366.5,-600.23 1364.05,-607.23 1368.95,-607.23"/>
</g>
<!-- C&#45;0911&#45;&gt;C&#45;0912 -->
<g id="edge13" class="edge">
<title>C&#45;0911&#45;&gt;C&#45;0912</title>
<path fill="none" stroke="dimgray" stroke-width="0.8" d="M1474.88,-682C1380.57,-682 1216.33,-682 1216.33,-682 1216.33,-682 1216.33,-606.42 1216.33,-606.42"/>
<polygon fill="dimgray" stroke="dimgray" stroke-width="0.8" points="1218.78,-606.42 1216.33,-599.42 1213.88,-606.42 1218.78,-606.42"/>
</g>
<!-- C&#45;0911&#45;&gt;C&#45;0008 -->
<g id="edge15" class="edge">
<title>C&#45;0911&#45;&gt;C&#45;0008</title>
<path fill="none" stroke="dimgray" stroke-width="0.8" d="M1539.5,-657.88C1539.5,-657.88 1539.5,-607.07 1539.5,-607.07"/>
<polygon fill="dimgray" stroke="dimgray" stroke-width="0.8" points="1541.95,-607.07 1539.5,-600.07 1537.05,-607.07 1541.95,-607.07"/>
</g>
<!-- C&#45;0911&#45;&gt;S&#45;658 -->
<g id="edge29" class="edge">
<title>C&#45;0911&#45;&gt;S&#45;658</title>
<path fill="none" stroke="dimgray" stroke-width="0.8" d="M1604.41,-670C1653.5,-670 1712.5,-670 1712.5,-670 1712.5,-670 1712.5,-607.23 1712.5,-607.23"/>
<polygon fill="dimgray" stroke="dimgray" stroke-width="0.8" points="1714.95,-607.23 1712.5,-600.23 1710.05,-607.23 1714.95,-607.23"/>
</g>
<!-- S&#45;1682 -->
<g id="node39" class="node">
<title>S&#45;1682</title>
<polygon fill="mediumseagreen" stroke="black" points="1885.5,-600 1817,-582 1885.5,-564 1954,-582 1885.5,-600"/>
<text text-anchor="middle" x="1885.5" y="-580.1" font-family="Helvetica,sans-Serif" font-size="8.00">S&#45;1682</text>
</g>
<!-- C&#45;0911&#45;&gt;S&#45;1682 -->
<g id="edge14" class="edge">
<title>C&#45;0911&#45;&gt;S&#45;1682</title>
<path fill="none" stroke="dimgray" stroke-width="0.8" d="M1604.17,-682C1704.32,-682 1885.5,-682 1885.5,-682 1885.5,-682 1885.5,-607.34 1885.5,-607.34"/>
<polygon fill="dimgray" stroke="dimgray" stroke-width="0.8" points="1887.95,-607.34 1885.5,-600.34 1883.05,-607.34 1887.95,-607.34"/>
</g>
<!-- 111&#45;25&#45; -->
<g id="node32" class="node">
<title>111&#45;25&#45;</title>
<polygon fill="gold" stroke="black" points="569,-1424.54 569,-1439.46 528.87,-1450 472.13,-1450 432,-1439.46 432,-1424.54 472.13,-1414 528.87,-1414 569,-1424.54"/>
<polygon fill="none" stroke="black" points="573,-1421.46 573,-1442.54 529.39,-1454 471.61,-1454 428,-1442.54 428,-1421.46 471.61,-1410 529.39,-1410 573,-1421.46"/>
<text text-anchor="middle" x="500.5" y="-1430.1" font-family="Helvetica,sans-Serif" font-size="8.00">111&#45;25&#45;</text>
</g>
<!-- 111&#45;25&#45;&#45;&gt;C&#45;0181 -->
<g id="edge1" class="edge">
<title>111&#45;25&#45;&#45;&gt;C&#45;0181</title>
<path fill="none" stroke="dimgray" stroke-width="0.8" d="M500.5,-1409.76C500.5,-1409.76 500.5,-1359.21 500.5,-1359.21"/>
<polygon fill="dimgray" stroke="dimgray" stroke-width="0.8" points="502.95,-1359.21 500.5,-1352.21 498.05,-1359.21 502.95,-1359.21"/>
</g>
<!-- R&#45;155&#45;&gt;C&#45;0692 -->
<g id="edge20" class="edge">
<title>R&#45;155&#45;&gt;C&#45;0692</title>
<path fill="none" stroke="dimgray" stroke-width="0.8" d="M1366.5,-281.88C1366.5,-281.88 1366.5,-231.07 1366.5,-231.07"/>
<polygon fill="dimgray" stroke="dimgray" stroke-width="0.8" points="1368.95,-231.07 1366.5,-224.07 1364.05,-231.07 1368.95,-231.07"/>
</g>
<!-- C&#45;0672 -->
<g id="node36" class="node">
<title>C&#45;0672</title>
<ellipse fill="tomato" stroke="black" cx="674.5" cy="-958" rx="68.5" ry="18"/>
<text text-anchor="middle" x="674.5" y="-956.1" font-family="Helvetica,sans-Serif" font-size="8.00">C&#45;0672</text>
</g>
<!-- C&#45;0672&#45;&gt;ext_circ_101_23_ -->
<g id="edge45" class="edge">
<title>C&#45;0672&#45;&gt;ext_circ_101_23_</title>
<path fill="none" stroke="red" stroke-width="0.8" stroke-dasharray="5,2" d="M605.63,-958C504.58,-958 328,-958 328,-958 328,-958 328,-1407 328,-1407"/>
<polygon fill="red" stroke="red" stroke-width="0.8" points="325.55,-1407 328,-1414 330.45,-1407 325.55,-1407"/>
</g>
<!-- C&#45;0123 -->
<g id="node38" class="node">
<title>C&#45;0123</title>
<ellipse fill="mediumseagreen" stroke="black" cx="1366.5" cy="-958" rx="68.5" ry="18"/>
<text text-anchor="middle" x="1366.5" y="-956.1" font-family="Helvetica,sans-Serif" font-size="8.00">C&#45;0123</text>
</g>
<!-- C&#45;0123&#45;&gt;S&#45;2379 -->
<g id="edge9" class="edge">
<title>C&#45;0123&#45;&gt;S&#45;2379</title>
<path fill="none" stroke="dimgray" stroke-width="0.8" d="M1366.5,-939.88C1366.5,-939.88 1366.5,-889.07 1366.5,-889.07"/>
<polygon fill="dimgray" stroke="dimgray" stroke-width="0.8" points="1368.95,-889.07 1366.5,-882.07 1364.05,-889.07 1368.95,-889.07"/>
</g>
<!-- C&#45;0123&#45;&gt;C&#45;0913 -->
<g id="edge10" class="edge">
<title>C&#45;0123&#45;&gt;C&#45;0913</title>
<path fill="none" stroke="dimgray" stroke-width="0.8" d="M1435.37,-958C1483.62,-958 1539.5,-958 1539.5,-958 1539.5,-958 1539.5,-889.12 1539.5,-889.12"/>
<polygon fill="dimgray" stroke="dimgray" stroke-width="0.8" points="1541.95,-889.12 1539.5,-882.12 1537.05,-889.12 1541.95,-889.12"/>
</g>
<!-- C&#45;0301&#45;&gt;S&#45;660 -->
<g id="edge34" class="edge">
<title>C&#45;0301&#45;&gt;S&#45;660</title>
<path fill="none" stroke="dimgray" stroke-width="0.8" d="M951.92,-1052C941.42,-1052 934,-1052 934,-1052 934,-1052 934,-958 934,-958 934,-958 923.08,-958 923.08,-958"/>
<polygon fill="dimgray" stroke="dimgray" stroke-width="0.8" points="923.08,-955.55 916.08,-958 923.08,-960.45 923.08,-955.55"/>
</g>
<!-- C&#45;0301&#45;&gt;S&#45;697 -->
<g id="edge35" class="edge">
<title>C&#45;0301&#45;&gt;S&#45;697</title>
<path fill="none" stroke="dimgray" stroke-width="0.8" d="M1043.33,-1034.76C1043.33,-1034.76 1043.33,-977.06 1043.33,-977.06"/>
<polygon fill="dimgray" stroke="dimgray" stroke-width="0.8" points="1045.78,-977.06 1043.33,-970.06 1040.88,-977.06 1045.78,-977.06"/>
</g>
<!-- C&#45;0301&#45;&gt;C&#45;0672 -->
<g id="edge31" class="edge">
<title>C&#45;0301&#45;&gt;C&#45;0672</title>
<path fill="none" stroke="dimgray" stroke-width="0.8" d="M997.67,-1034.77C997.67,-1021.35 997.67,-1005 997.67,-1005 997.67,-1005 674.5,-1005 674.5,-1005 674.5,-1005 674.5,-983.04 674.5,-983.04"/>
<polygon fill="dimgray" stroke="dimgray" stroke-width="0.8" points="676.95,-983.04 674.5,-976.04 672.05,-983.04 676.95,-983.04"/>
</g>
<!-- C&#45;0301&#45;&gt;C&#45;0123 -->
<g id="edge8" class="edge">
<title>C&#45;0301&#45;&gt;C&#45;0123</title>
<path fill="none" stroke="dimgray" stroke-width="0.8" d="M1085.17,-1058C1185.32,-1058 1366.5,-1058 1366.5,-1058 1366.5,-1058 1366.5,-983.34 1366.5,-983.34"/>
<polygon fill="dimgray" stroke="dimgray" stroke-width="0.8" points="1368.95,-983.34 1366.5,-976.34 1364.05,-983.34 1368.95,-983.34"/>
</g>
<!-- C&#45;0673 -->
<g id="node41" class="node">
<title>C&#45;0673</title>
<ellipse fill="mediumseagreen" stroke="black" cx="1193.5" cy="-958" rx="68.5" ry="18"/>
<text text-anchor="middle" x="1193.5" y="-956.1" font-family="Helvetica,sans-Serif" font-size="8.00">C&#45;0673</text>
</g>
<!-- C&#45;0301&#45;&gt;C&#45;0673 -->
<g id="edge32" class="edge">
<title>C&#45;0301&#45;&gt;C&#45;0673</title>
<path fill="none" stroke="dimgray" stroke-width="0.8" d="M1085.41,-1046C1134.5,-1046 1193.5,-1046 1193.5,-1046 1193.5,-1046 1193.5,-983.23 1193.5,-983.23"/>
<polygon fill="dimgray" stroke="dimgray" stroke-width="0.8" points="1195.95,-983.23 1193.5,-976.23 1191.05,-983.23 1195.95,-983.23"/>
</g>
<!-- C&#45;0673&#45;&gt;R&#45;093 -->
<g id="edge33" class="edge">
<title>C&#45;0673&#45;&gt;R&#45;093</title>
<path fill="none" stroke="dimgray" stroke-width="0.8" d="M1216.33,-940.76C1216.33,-940.76 1216.33,-889.09 1216.33,-889.09"/>
<polygon fill="dimgray" stroke="dimgray" stroke-width="0.8" points="1218.78,-889.09 1216.33,-882.09 1213.88,-889.09 1218.78,-889.09"/>
</g>
<!-- C&#45;0275&#45;&gt;S&#45;114 -->
<g id="edge4" class="edge">
<title>C&#45;0275&#45;&gt;S&#45;114</title>
<path fill="none" stroke="dimgray" stroke-width="0.8" d="M717.5,-1225.72C717.5,-1225.72 717.5,-1159.83 717.5,-1159.83"/>
<polygon fill="dimgray" stroke="dimgray" stroke-width="0.8" points="719.95,-1159.83 717.5,-1152.83 715.05,-1159.83 719.95,-1159.83"/>
</g>
<!-- C&#45;0275&#45;&gt;C&#45;0321 -->
<g id="edge5" class="edge">
<title>C&#45;0275&#45;&gt;C&#45;0321</title>
<path fill="none" stroke="dimgray" stroke-width="0.8" d="M804,-1225.72C804,-1225.72 804,-1167.1 804,-1167.1"/>
<polygon fill="dimgray" stroke="dimgray" stroke-width="0.8" points="806.45,-1167.1 804,-1160.1 801.55,-1167.1 806.45,-1167.1"/>
</g>
<!-- C&#45;0913&#45;&gt;R&#45;213 -->
<g id="edge11" class="edge">
<title>C&#45;0913&#45;&gt;R&#45;213</title>
<path fill="none" stroke="dimgray" stroke-width="0.8" d="M1562.33,-846.76C1562.33,-846.76 1562.33,-795.09 1562.33,-795.09"/>
<polygon fill="dimgray" stroke="dimgray" stroke-width="0.8" points="1564.78,-795.09 1562.33,-788.09 1559.88,-795.09 1564.78,-795.09"/>
</g>
</g>
</svg>
