<?xml version="1.0" encoding="UTF-8" standalone="no"?>
<!DOCTYPE svg PUBLIC "-//W3C//DTD SVG 1.1//EN"
 "http://www.w3.org/Graphics/SVG/1.1/DTD/svg11.dtd">
<!-- Generated by graphviz version 2.50.0 (0)
 -->
<!-- Title: Grafo_Circuito_111_23_ Pages: 1 -->
<svg width="1783pt" height="1574pt"
 viewBox="0.00 0.00 1783.00 1574.00" xmlns="http://www.w3.org/2000/svg" xmlns:xlink="http://www.w3.org/1999/xlink">
<g id="graph0" class="graph" transform="scale(1 1) rotate(0) translate(4 1570)">
<title>Grafo_Circuito_111_23_</title>
<polygon fill="white" stroke="transparent" points="-4,4 -4,-1570 1779,-1570 1779,4 -4,4"/>
<!-- C&#45;0145 -->
<g id="node1" class="node">
<title>C&#45;0145</title>
<ellipse fill="mediumseagreen" stroke="black" cx="532" cy="-1031.5" rx="72" ry="21.5"/>
<text text-anchor="middle" x="532" y="-1029" font-family="Arial" font-size="10.00">C&#45;0145</text>
</g>
<!-- R&#45;073 -->
<g id="node14" class="node">
<title>R&#45;073</title>
<polygon fill="mediumseagreen" stroke="black" points="578,-921.59 578,-939.41 535.82,-952 476.18,-952 434,-939.41 434,-921.59 476.18,-909 535.82,-909 578,-921.59"/>
<text text-anchor="middle" x="506" y="-928" font-family="Arial" font-size="10.00">R&#45;073</text>
</g>
<!-- C&#45;0145&#45;&gt;R&#45;073 -->
<g id="edge11" class="edge">
<title>C&#45;0145&#45;&gt;R&#45;073</title>
<path fill="none" stroke="#4d4d4d" d="M519,-1010.08C519,-1010.08 519,-959.24 519,-959.24"/>
<polygon fill="#4d4d4d" stroke="#4d4d4d" points="521.45,-959.24 519,-952.24 516.55,-959.24 521.45,-959.24"/>
</g>
<!-- S&#45;163 -->
<g id="node2" class="node">
<title>S&#45;163</title>
<polygon fill="mediumseagreen" stroke="black" points="744,-750 672,-728.5 744,-707 816,-728.5 744,-750"/>
<text text-anchor="middle" x="744" y="-726" font-family="Arial" font-size="10.00">S&#45;163</text>
</g>
<!-- S&#45;1628 -->
<g id="node41" class="node">
<title>S&#45;1628</title>
<polygon fill="mediumseagreen" stroke="black" points="744,-649 672,-627.5 744,-606 816,-627.5 744,-649"/>
<text text-anchor="middle" x="744" y="-625" font-family="Arial" font-size="10.00">S&#45;1628</text>
</g>
<!-- S&#45;163&#45;&gt;S&#45;1628 -->
<g id="edge40" class="edge">
<title>S&#45;163&#45;&gt;S&#45;1628</title>
<path fill="none" stroke="#4d4d4d" d="M744,-706.58C744,-706.58 744,-656.03 744,-656.03"/>
<polygon fill="#4d4d4d" stroke="#4d4d4d" points="746.45,-656.03 744,-649.03 741.55,-656.03 746.45,-656.03"/>
</g>
<!-- C&#45;0289 -->
<g id="node3" class="node">
<title>C&#45;0289</title>
<ellipse fill="mediumseagreen" stroke="black" cx="981" cy="-1132.5" rx="72" ry="21.5"/>
<text text-anchor="middle" x="981" y="-1130" font-family="Arial" font-size="10.00">C&#45;0289</text>
</g>
<!-- C&#45;0289&#45;&gt;C&#45;0145 -->
<g id="edge10" class="edge">
<title>C&#45;0289&#45;&gt;C&#45;0145</title>
<path fill="none" stroke="#4d4d4d" d="M908.86,-1132C781.94,-1132 532,-1132 532,-1132 532,-1132 532,-1060.31 532,-1060.31"/>
<polygon fill="#4d4d4d" stroke="#4d4d4d" points="534.45,-1060.31 532,-1053.31 529.55,-1060.31 534.45,-1060.31"/>
</g>
<!-- C&#45;0287 -->
<g id="node6" class="node">
<title>C&#45;0287</title>
<ellipse fill="tomato" stroke="black" cx="1050" cy="-930.5" rx="72" ry="21.5"/>
<text text-anchor="middle" x="1050" y="-928" font-family="Arial" font-size="10.00">C&#45;0287</text>
</g>
<!-- C&#45;0289&#45;&gt;C&#45;0287 -->
<g id="edge7" class="edge">
<title>C&#45;0289&#45;&gt;C&#45;0287</title>
<path fill="none" stroke="#4d4d4d" d="M1053.22,-1132C1063.68,-1132 1071,-1132 1071,-1132 1071,-1132 1071,-958.31 1071,-958.31"/>
<polygon fill="#4d4d4d" stroke="#4d4d4d" points="1073.45,-958.31 1071,-951.31 1068.55,-958.31 1073.45,-958.31"/>
</g>
<!-- S&#45;160 -->
<g id="node20" class="node">
<title>S&#45;160</title>
<polygon fill="mediumseagreen" stroke="black" points="981,-1053 909,-1031.5 981,-1010 1053,-1031.5 981,-1053"/>
<text text-anchor="middle" x="981" y="-1029" font-family="Arial" font-size="10.00">S&#45;160</text>
</g>
<!-- C&#45;0289&#45;&gt;S&#45;160 -->
<g id="edge8" class="edge">
<title>C&#45;0289&#45;&gt;S&#45;160</title>
<path fill="none" stroke="#4d4d4d" d="M981,-1110.58C981,-1110.58 981,-1060.03 981,-1060.03"/>
<polygon fill="#4d4d4d" stroke="#4d4d4d" points="983.45,-1060.03 981,-1053.03 978.55,-1060.03 983.45,-1060.03"/>
</g>
<!-- S&#45;159 -->
<g id="node21" class="node">
<title>S&#45;159</title>
<polygon fill="mediumseagreen" stroke="black" points="1161,-1053 1089,-1031.5 1161,-1010 1233,-1031.5 1161,-1053"/>
<text text-anchor="middle" x="1161" y="-1029" font-family="Arial" font-size="10.00">S&#45;159</text>
</g>
<!-- C&#45;0289&#45;&gt;S&#45;159 -->
<g id="edge6" class="edge">
<title>C&#45;0289&#45;&gt;S&#45;159</title>
<path fill="none" stroke="#4d4d4d" d="M1041.94,-1121C1094.16,-1121 1161,-1121 1161,-1121 1161,-1121 1161,-1060.17 1161,-1060.17"/>
<polygon fill="#4d4d4d" stroke="#4d4d4d" points="1163.45,-1060.17 1161,-1053.17 1158.55,-1060.17 1163.45,-1060.17"/>
</g>
<!-- S&#45;2144 -->
<g id="node32" class="node">
<title>S&#45;2144</title>
<polygon fill="mediumseagreen" stroke="black" points="1341,-1053 1269,-1031.5 1341,-1010 1413,-1031.5 1341,-1053"/>
<text text-anchor="middle" x="1341" y="-1029" font-family="Arial" font-size="10.00">S&#45;2144</text>
</g>
<!-- C&#45;0289&#45;&gt;S&#45;2144 -->
<g id="edge9" class="edge">
<title>C&#45;0289&#45;&gt;S&#45;2144</title>
<path fill="none" stroke="#4d4d4d" d="M1043.99,-1143C1135.91,-1143 1296,-1143 1296,-1143 1296,-1143 1296,-1046.88 1296,-1046.88"/>
<polygon fill="#4d4d4d" stroke="#4d4d4d" points="1298.45,-1046.88 1296,-1039.88 1293.55,-1046.88 1298.45,-1046.88"/>
</g>
<!-- C&#45;0120 -->
<g id="node4" class="node">
<title>C&#45;0120</title>
<ellipse fill="tomato" stroke="black" cx="72" cy="-728.5" rx="72" ry="21.5"/>
<text text-anchor="middle" x="72" y="-726" font-family="Arial" font-size="10.00">C&#45;0120</text>
</g>
<!-- ext_circ_110_25_ -->
<g id="node46" class="node">
<title>ext_circ_110_25_</title>
<polygon fill="lightpink" stroke="darkorange" stroke-dasharray="5,2" points="361,-649 217,-649 217,-606 361,-606 361,-649"/>
<text text-anchor="middle" x="289" y="-630.5" font-family="Arial" font-size="10.00">Circuito:</text>
<text text-anchor="middle" x="289" y="-619.5" font-family="Arial" font-size="10.00">110&#45;25&#45;</text>
</g>
<!-- C&#45;0120&#45;&gt;ext_circ_110_25_ -->
<g id="edge48" class="edge">
<title>C&#45;0120&#45;&gt;ext_circ_110_25_</title>
<path fill="none" stroke="darkorange" stroke-dasharray="5,2" d="M72,-706.97C72,-677.18 72,-627 72,-627 72,-627 209.74,-627 209.74,-627"/>
<polygon fill="darkorange" stroke="darkorange" points="209.74,-629.45 216.74,-627 209.74,-624.55 209.74,-629.45"/>
</g>
<!-- C&#45;0875 -->
<g id="node5" class="node">
<title>C&#45;0875</title>
<ellipse fill="mediumseagreen" stroke="black" cx="1001" cy="-425.5" rx="72" ry="21.5"/>
<text text-anchor="middle" x="1001" y="-423" font-family="Arial" font-size="10.00">C&#45;0875</text>
</g>
<!-- C&#45;0876 -->
<g id="node10" class="node">
<title>C&#45;0876</title>
<ellipse fill="tomato" stroke="black" cx="805" cy="-324.5" rx="72" ry="21.5"/>
<text text-anchor="middle" x="805" y="-322" font-family="Arial" font-size="10.00">C&#45;0876</text>
</g>
<!-- C&#45;0875&#45;&gt;C&#45;0876 -->
<g id="edge21" class="edge">
<title>C&#45;0875&#45;&gt;C&#45;0876</title>
<path fill="none" stroke="#4d4d4d" d="M928.75,-425C896.01,-425 864.5,-425 864.5,-425 864.5,-425 864.5,-343.82 864.5,-343.82"/>
<polygon fill="#4d4d4d" stroke="#4d4d4d" points="866.95,-343.82 864.5,-336.82 862.05,-343.82 866.95,-343.82"/>
</g>
<!-- C&#45;0184 -->
<g id="node37" class="node">
<title>C&#45;0184</title>
<ellipse fill="mediumseagreen" stroke="black" cx="1165" cy="-324.5" rx="72" ry="21.5"/>
<text text-anchor="middle" x="1165" y="-322" font-family="Arial" font-size="10.00">C&#45;0184</text>
</g>
<!-- C&#45;0875&#45;&gt;C&#45;0184 -->
<g id="edge23" class="edge">
<title>C&#45;0875&#45;&gt;C&#45;0184</title>
<path fill="none" stroke="#4d4d4d" d="M1065,-415.4C1065,-389.72 1065,-324 1065,-324 1065,-324 1085.86,-324 1085.86,-324"/>
<polygon fill="#4d4d4d" stroke="#4d4d4d" points="1085.86,-326.45 1092.86,-324 1085.86,-321.55 1085.86,-326.45"/>
</g>
<!-- S&#45;165 -->
<g id="node40" class="node">
<title>S&#45;165</title>
<polygon fill="mediumseagreen" stroke="black" points="985,-346 913,-324.5 985,-303 1057,-324.5 985,-346"/>
<text text-anchor="middle" x="985" y="-322" font-family="Arial" font-size="10.00">S&#45;165</text>
</g>
<!-- C&#45;0875&#45;&gt;S&#45;165 -->
<g id="edge22" class="edge">
<title>C&#45;0875&#45;&gt;S&#45;165</title>
<path fill="none" stroke="#4d4d4d" d="M993,-404.08C993,-404.08 993,-350.84 993,-350.84"/>
<polygon fill="#4d4d4d" stroke="#4d4d4d" points="995.45,-350.84 993,-343.84 990.55,-350.84 995.45,-350.84"/>
</g>
<!-- ext_circ_111_22_ -->
<g id="node43" class="node">
<title>ext_circ_111_22_</title>
<polygon fill="lightpink" stroke="darkorange" stroke-dasharray="5,2" points="1397,-144 1253,-144 1253,-101 1397,-101 1397,-144"/>
<text text-anchor="middle" x="1325" y="-125.5" font-family="Arial" font-size="10.00">Circuito:</text>
<text text-anchor="middle" x="1325" y="-114.5" font-family="Arial" font-size="10.00">111&#45;22&#45;</text>
</g>
<!-- C&#45;0287&#45;&gt;ext_circ_111_22_ -->
<g id="edge42" class="edge">
<title>C&#45;0287&#45;&gt;ext_circ_111_22_</title>
<path fill="none" stroke="darkorange" stroke-dasharray="5,2" d="M1122.09,-930C1218.79,-930 1378.5,-930 1378.5,-930 1378.5,-930 1378.5,-151.1 1378.5,-151.1"/>
<polygon fill="darkorange" stroke="darkorange" points="1380.95,-151.1 1378.5,-144.1 1376.05,-151.1 1380.95,-151.1"/>
</g>
<!-- S&#45;053 -->
<g id="node7" class="node">
<title>S&#45;053</title>
<polygon fill="mediumseagreen" stroke="black" points="1542,-245 1470,-223.5 1542,-202 1614,-223.5 1542,-245"/>
<text text-anchor="middle" x="1542" y="-221" font-family="Arial" font-size="10.00">S&#45;053</text>
</g>
<!-- S&#45;052 -->
<g id="node13" class="node">
<title>S&#45;052</title>
<polygon fill="mediumseagreen" stroke="black" points="1523,-144 1451,-122.5 1523,-101 1595,-122.5 1523,-144"/>
<text text-anchor="middle" x="1523" y="-120" font-family="Arial" font-size="10.00">S&#45;052</text>
</g>
<!-- S&#45;053&#45;&gt;S&#45;052 -->
<g id="edge25" class="edge">
<title>S&#45;053&#45;&gt;S&#45;052</title>
<path fill="none" stroke="#4d4d4d" d="M1532.5,-204.5C1532.5,-204.5 1532.5,-148.41 1532.5,-148.41"/>
<polygon fill="#4d4d4d" stroke="#4d4d4d" points="1534.95,-148.41 1532.5,-141.41 1530.05,-148.41 1534.95,-148.41"/>
</g>
<!-- S&#45;2154 -->
<g id="node34" class="node">
<title>S&#45;2154</title>
<polygon fill="mediumseagreen" stroke="black" points="1703,-144 1631,-122.5 1703,-101 1775,-122.5 1703,-144"/>
<text text-anchor="middle" x="1703" y="-120" font-family="Arial" font-size="10.00">S&#45;2154</text>
</g>
<!-- S&#45;053&#45;&gt;S&#45;2154 -->
<g id="edge26" class="edge">
<title>S&#45;053&#45;&gt;S&#45;2154</title>
<path fill="none" stroke="#4d4d4d" d="M1604.5,-220.57C1604.5,-203.93 1604.5,-122 1604.5,-122 1604.5,-122 1625.46,-122 1625.46,-122"/>
<polygon fill="#4d4d4d" stroke="#4d4d4d" points="1625.46,-124.45 1632.46,-122 1625.46,-119.55 1625.46,-124.45"/>
</g>
<!-- C&#45;0804 -->
<g id="node8" class="node">
<title>C&#45;0804</title>
<ellipse fill="tomato" stroke="black" cx="289" cy="-728.5" rx="72" ry="21.5"/>
<text text-anchor="middle" x="289" y="-726" font-family="Arial" font-size="10.00">C&#45;0804</text>
</g>
<!-- C&#45;0804&#45;&gt;ext_circ_110_25_ -->
<g id="edge50" class="edge">
<title>C&#45;0804&#45;&gt;ext_circ_110_25_</title>
<path fill="none" stroke="darkorange" stroke-dasharray="5,2" d="M289,-706.58C289,-706.58 289,-656.03 289,-656.03"/>
<polygon fill="darkorange" stroke="darkorange" points="291.45,-656.03 289,-649.03 286.55,-656.03 291.45,-656.03"/>
</g>
<!-- S&#45;1614 -->
<g id="node9" class="node">
<title>S&#45;1614</title>
<polygon fill="mediumseagreen" stroke="black" points="1034,-245 962,-223.5 1034,-202 1106,-223.5 1034,-245"/>
<text text-anchor="middle" x="1034" y="-221" font-family="Arial" font-size="10.00">S&#45;1614</text>
</g>
<!-- C&#45;0877 -->
<g id="node27" class="node">
<title>C&#45;0877</title>
<ellipse fill="mediumseagreen" stroke="black" cx="1284" cy="-627.5" rx="72" ry="21.5"/>
<text text-anchor="middle" x="1284" y="-625" font-family="Arial" font-size="10.00">C&#45;0877</text>
</g>
<!-- C&#45;0876&#45;&gt;C&#45;0877 -->
<g id="edge44" class="edge">
<title>C&#45;0876&#45;&gt;C&#45;0877</title>
<path fill="none" stroke="blue" stroke-dasharray="5,2" d="M832,-344.74C832,-404.65 832,-577 832,-577 832,-577 1258.67,-577 1258.67,-577 1258.67,-577 1258.67,-600.25 1258.67,-600.25"/>
<polygon fill="blue" stroke="blue" points="1256.22,-600.25 1258.67,-607.25 1261.12,-600.25 1256.22,-600.25"/>
</g>
<!-- S&#45;157 -->
<g id="node11" class="node">
<title>S&#45;157</title>
<polygon fill="mediumseagreen" stroke="black" points="1161,-1255 1089,-1233.5 1161,-1212 1233,-1233.5 1161,-1255"/>
<text text-anchor="middle" x="1161" y="-1231" font-family="Arial" font-size="10.00">S&#45;157</text>
</g>
<!-- S&#45;155 -->
<g id="node12" class="node">
<title>S&#45;155</title>
<polygon fill="mediumseagreen" stroke="black" points="1251,-1356 1179,-1334.5 1251,-1313 1323,-1334.5 1251,-1356"/>
<text text-anchor="middle" x="1251" y="-1332" font-family="Arial" font-size="10.00">S&#45;155</text>
</g>
<!-- R&#45;073&#45;&gt;C&#45;0120 -->
<g id="edge34" class="edge">
<title>R&#45;073&#45;&gt;C&#45;0120</title>
<path fill="none" stroke="#4d4d4d" d="M438.97,-941C311.11,-941 45,-941 45,-941 45,-941 45,-755.49 45,-755.49"/>
<polygon fill="#4d4d4d" stroke="#4d4d4d" points="47.45,-755.49 45,-748.49 42.55,-755.49 47.45,-755.49"/>
</g>
<!-- R&#45;073&#45;&gt;C&#45;0804 -->
<g id="edge37" class="edge">
<title>R&#45;073&#45;&gt;C&#45;0804</title>
<path fill="none" stroke="#4d4d4d" d="M442.65,-919C378.6,-919 289,-919 289,-919 289,-919 289,-757.35 289,-757.35"/>
<polygon fill="#4d4d4d" stroke="#4d4d4d" points="291.45,-757.35 289,-750.35 286.55,-757.35 291.45,-757.35"/>
</g>
<!-- C&#45;0288 -->
<g id="node19" class="node">
<title>C&#45;0288</title>
<ellipse fill="mediumseagreen" stroke="black" cx="776" cy="-829.5" rx="72" ry="21.5"/>
<text text-anchor="middle" x="776" y="-827" font-family="Arial" font-size="10.00">C&#45;0288</text>
</g>
<!-- R&#45;073&#45;&gt;C&#45;0288 -->
<g id="edge38" class="edge">
<title>R&#45;073&#45;&gt;C&#45;0288</title>
<path fill="none" stroke="#4d4d4d" d="M578,-923C657.98,-923 776,-923 776,-923 776,-923 776,-858.19 776,-858.19"/>
<polygon fill="#4d4d4d" stroke="#4d4d4d" points="778.45,-858.19 776,-851.19 773.55,-858.19 778.45,-858.19"/>
</g>
<!-- S&#45;2378 -->
<g id="node22" class="node">
<title>S&#45;2378</title>
<polygon fill="mediumseagreen" stroke="black" points="162,-851 90,-829.5 162,-808 234,-829.5 162,-851"/>
<text text-anchor="middle" x="162" y="-827" font-family="Arial" font-size="10.00">S&#45;2378</text>
</g>
<!-- R&#45;073&#45;&gt;S&#45;2378 -->
<g id="edge13" class="edge">
<title>R&#45;073&#45;&gt;S&#45;2378</title>
<path fill="none" stroke="#4d4d4d" d="M433.89,-930C333.01,-930 162,-930 162,-930 162,-930 162,-858.31 162,-858.31"/>
<polygon fill="#4d4d4d" stroke="#4d4d4d" points="164.45,-858.31 162,-851.31 159.55,-858.31 164.45,-858.31"/>
</g>
<!-- C&#45;0803 -->
<g id="node26" class="node">
<title>C&#45;0803</title>
<ellipse fill="mediumseagreen" stroke="black" cx="596" cy="-829.5" rx="72" ry="21.5"/>
<text text-anchor="middle" x="596" y="-827" font-family="Arial" font-size="10.00">C&#45;0803</text>
</g>
<!-- R&#45;073&#45;&gt;C&#45;0803 -->
<g id="edge35" class="edge">
<title>R&#45;073&#45;&gt;C&#45;0803</title>
<path fill="none" stroke="#4d4d4d" d="M551,-913.37C551,-913.37 551,-853.38 551,-853.38"/>
<polygon fill="#4d4d4d" stroke="#4d4d4d" points="553.45,-853.38 551,-846.38 548.55,-853.38 553.45,-853.38"/>
</g>
<!-- S&#45;PR37 -->
<g id="node29" class="node">
<title>S&#45;PR37</title>
<polygon fill="mediumseagreen" stroke="black" points="956,-851 884,-829.5 956,-808 1028,-829.5 956,-851"/>
<text text-anchor="middle" x="956" y="-827" font-family="Arial" font-size="10.00">S&#45;PR37</text>
</g>
<!-- R&#45;073&#45;&gt;S&#45;PR37 -->
<g id="edge14" class="edge">
<title>R&#45;073&#45;&gt;S&#45;PR37</title>
<path fill="none" stroke="#4d4d4d" d="M578.08,-937C690.91,-937 896.5,-937 896.5,-937 896.5,-937 896.5,-840.33 896.5,-840.33"/>
<polygon fill="#4d4d4d" stroke="#4d4d4d" points="898.95,-840.33 896.5,-833.33 894.05,-840.33 898.95,-840.33"/>
</g>
<!-- S&#45;2132 -->
<g id="node33" class="node">
<title>S&#45;2132</title>
<polygon fill="mediumseagreen" stroke="black" points="416,-851 344,-829.5 416,-808 488,-829.5 416,-851"/>
<text text-anchor="middle" x="416" y="-827" font-family="Arial" font-size="10.00">S&#45;2132</text>
</g>
<!-- R&#45;073&#45;&gt;S&#45;2132 -->
<g id="edge12" class="edge">
<title>R&#45;073&#45;&gt;S&#45;2132</title>
<path fill="none" stroke="#4d4d4d" d="M461,-913.37C461,-913.37 461,-844.78 461,-844.78"/>
<polygon fill="#4d4d4d" stroke="#4d4d4d" points="463.45,-844.78 461,-837.78 458.55,-844.78 463.45,-844.78"/>
</g>
<!-- C&#45;0797 -->
<g id="node15" class="node">
<title>C&#45;0797</title>
<ellipse fill="mediumseagreen" stroke="black" cx="854" cy="-223.5" rx="72" ry="21.5"/>
<text text-anchor="middle" x="854" y="-221" font-family="Arial" font-size="10.00">C&#45;0797</text>
</g>
<!-- R&#45;177 -->
<g id="node16" class="node">
<title>R&#45;177</title>
<polygon fill="tomato" stroke="black" points="982,-113.59 982,-131.41 939.82,-144 880.18,-144 838,-131.41 838,-113.59 880.18,-101 939.82,-101 982,-113.59"/>
<text text-anchor="middle" x="910" y="-120" font-family="Arial" font-size="10.00">R&#45;177</text>
</g>
<!-- C&#45;0797&#45;&gt;R&#45;177 -->
<g id="edge30" class="edge">
<title>C&#45;0797&#45;&gt;R&#45;177</title>
<path fill="none" stroke="#4d4d4d" d="M882,-203.55C882,-203.55 882,-151.16 882,-151.16"/>
<polygon fill="#4d4d4d" stroke="#4d4d4d" points="884.45,-151.16 882,-144.16 879.55,-151.16 884.45,-151.16"/>
</g>
<!-- ext_circ_109_28_ -->
<g id="node45" class="node">
<title>ext_circ_109_28_</title>
<polygon fill="lightpink" stroke="darkorange" stroke-dasharray="5,2" points="1081,-43 937,-43 937,0 1081,0 1081,-43"/>
<text text-anchor="middle" x="1009" y="-24.5" font-family="Arial" font-size="10.00">Circuito:</text>
<text text-anchor="middle" x="1009" y="-13.5" font-family="Arial" font-size="10.00">109&#45;28&#45;</text>
</g>
<!-- R&#45;177&#45;&gt;ext_circ_109_28_ -->
<g id="edge46" class="edge">
<title>R&#45;177&#45;&gt;ext_circ_109_28_</title>
<path fill="none" stroke="darkorange" stroke-dasharray="5,2" d="M959.5,-106.72C959.5,-106.72 959.5,-50.17 959.5,-50.17"/>
<polygon fill="darkorange" stroke="darkorange" points="961.95,-50.17 959.5,-43.17 957.05,-50.17 961.95,-50.17"/>
</g>
<!-- C&#45;0353 -->
<g id="node17" class="node">
<title>C&#45;0353</title>
<ellipse fill="mediumseagreen" stroke="black" cx="1071" cy="-1334.5" rx="72" ry="21.5"/>
<text text-anchor="middle" x="1071" y="-1332" font-family="Arial" font-size="10.00">C&#45;0353</text>
</g>
<!-- C&#45;0353&#45;&gt;S&#45;157 -->
<g id="edge3" class="edge">
<title>C&#45;0353&#45;&gt;S&#45;157</title>
<path fill="none" stroke="#4d4d4d" d="M1116,-1317.37C1116,-1317.37 1116,-1248.78 1116,-1248.78"/>
<polygon fill="#4d4d4d" stroke="#4d4d4d" points="1118.45,-1248.78 1116,-1241.78 1113.55,-1248.78 1118.45,-1248.78"/>
</g>
<!-- C&#45;0231 -->
<g id="node31" class="node">
<title>C&#45;0231</title>
<ellipse fill="mediumseagreen" stroke="black" cx="981" cy="-1233.5" rx="72" ry="21.5"/>
<text text-anchor="middle" x="981" y="-1231" font-family="Arial" font-size="10.00">C&#45;0231</text>
</g>
<!-- C&#45;0353&#45;&gt;C&#45;0231 -->
<g id="edge4" class="edge">
<title>C&#45;0353&#45;&gt;C&#45;0231</title>
<path fill="none" stroke="#4d4d4d" d="M1026,-1317.37C1026,-1317.37 1026,-1257.38 1026,-1257.38"/>
<polygon fill="#4d4d4d" stroke="#4d4d4d" points="1028.45,-1257.38 1026,-1250.38 1023.55,-1257.38 1028.45,-1257.38"/>
</g>
<!-- C&#45;0001 -->
<g id="node18" class="node">
<title>C&#45;0001</title>
<ellipse fill="tomato" stroke="black" cx="1288" cy="-223.5" rx="72" ry="21.5"/>
<text text-anchor="middle" x="1288" y="-221" font-family="Arial" font-size="10.00">C&#45;0001</text>
</g>
<!-- C&#45;0001&#45;&gt;ext_circ_111_22_ -->
<g id="edge45" class="edge">
<title>C&#45;0001&#45;&gt;ext_circ_111_22_</title>
<path fill="none" stroke="darkorange" stroke-dasharray="5,2" d="M1306.5,-202.57C1306.5,-202.57 1306.5,-151.1 1306.5,-151.1"/>
<polygon fill="darkorange" stroke="darkorange" points="1308.95,-151.1 1306.5,-144.1 1304.05,-151.1 1308.95,-151.1"/>
</g>
<!-- C&#45;0288&#45;&gt;S&#45;163 -->
<g id="edge39" class="edge">
<title>C&#45;0288&#45;&gt;S&#45;163</title>
<path fill="none" stroke="#4d4d4d" d="M760,-808.08C760,-808.08 760,-752.54 760,-752.54"/>
<polygon fill="#4d4d4d" stroke="#4d4d4d" points="762.45,-752.54 760,-745.54 757.55,-752.54 762.45,-752.54"/>
</g>
<!-- R&#45;179 -->
<g id="node23" class="node">
<title>R&#45;179</title>
<polygon fill="tomato" stroke="black" points="604,-719.59 604,-737.41 561.82,-750 502.18,-750 460,-737.41 460,-719.59 502.18,-707 561.82,-707 604,-719.59"/>
<text text-anchor="middle" x="532" y="-726" font-family="Arial" font-size="10.00">R&#45;179</text>
</g>
<!-- R&#45;179&#45;&gt;ext_circ_110_25_ -->
<g id="edge49" class="edge">
<title>R&#45;179&#45;&gt;ext_circ_110_25_</title>
<path fill="none" stroke="darkorange" stroke-dasharray="5,2" d="M532,-706.97C532,-677.18 532,-627 532,-627 532,-627 368.25,-627 368.25,-627"/>
<polygon fill="darkorange" stroke="darkorange" points="368.25,-624.55 361.25,-627 368.25,-629.45 368.25,-624.55"/>
</g>
<!-- S&#45;2284 -->
<g id="node24" class="node">
<title>S&#45;2284</title>
<polygon fill="mediumseagreen" stroke="black" points="1703,-43 1631,-21.5 1703,0 1775,-21.5 1703,-43"/>
<text text-anchor="middle" x="1703" y="-19" font-family="Arial" font-size="10.00">S&#45;2284</text>
</g>
<!-- C&#45;0798 -->
<g id="node25" class="node">
<title>C&#45;0798</title>
<ellipse fill="tomato" stroke="black" cx="1108" cy="-122.5" rx="72" ry="21.5"/>
<text text-anchor="middle" x="1108" y="-120" font-family="Arial" font-size="10.00">C&#45;0798</text>
</g>
<!-- C&#45;0798&#45;&gt;ext_circ_109_28_ -->
<g id="edge47" class="edge">
<title>C&#45;0798&#45;&gt;ext_circ_109_28_</title>
<path fill="none" stroke="darkorange" stroke-dasharray="5,2" d="M1058.5,-106.72C1058.5,-106.72 1058.5,-50.17 1058.5,-50.17"/>
<polygon fill="darkorange" stroke="darkorange" points="1060.95,-50.17 1058.5,-43.17 1056.05,-50.17 1060.95,-50.17"/>
</g>
<!-- C&#45;0803&#45;&gt;R&#45;179 -->
<g id="edge36" class="edge">
<title>C&#45;0803&#45;&gt;R&#45;179</title>
<path fill="none" stroke="#4d4d4d" d="M564,-810.03C564,-810.03 564,-756.66 564,-756.66"/>
<polygon fill="#4d4d4d" stroke="#4d4d4d" points="566.45,-756.66 564,-749.66 561.55,-756.66 566.45,-756.66"/>
</g>
<!-- R&#45;202 -->
<g id="node30" class="node">
<title>R&#45;202</title>
<polygon fill="mediumseagreen" stroke="black" points="1352,-517.59 1352,-535.41 1309.82,-548 1250.18,-548 1208,-535.41 1208,-517.59 1250.18,-505 1309.82,-505 1352,-517.59"/>
<text text-anchor="middle" x="1280" y="-524" font-family="Arial" font-size="10.00">R&#45;202</text>
</g>
<!-- C&#45;0877&#45;&gt;R&#45;202 -->
<g id="edge19" class="edge">
<title>C&#45;0877&#45;&gt;R&#45;202</title>
<path fill="none" stroke="#4d4d4d" d="M1305.33,-606.57C1305.33,-606.57 1305.33,-555.1 1305.33,-555.1"/>
<polygon fill="#4d4d4d" stroke="#4d4d4d" points="1307.78,-555.1 1305.33,-548.1 1302.88,-555.1 1307.78,-555.1"/>
</g>
<!-- S&#45;166 -->
<g id="node28" class="node">
<title>S&#45;166</title>
<polygon fill="mediumseagreen" stroke="black" points="1104,-649 1032,-627.5 1104,-606 1176,-627.5 1104,-649"/>
<text text-anchor="middle" x="1104" y="-625" font-family="Arial" font-size="10.00">S&#45;166</text>
</g>
<!-- S&#45;1062 -->
<g id="node36" class="node">
<title>S&#45;1062</title>
<polygon fill="mediumseagreen" stroke="black" points="1104,-750 1032,-728.5 1104,-707 1176,-728.5 1104,-750"/>
<text text-anchor="middle" x="1104" y="-726" font-family="Arial" font-size="10.00">S&#45;1062</text>
</g>
<!-- S&#45;PR37&#45;&gt;S&#45;1062 -->
<g id="edge16" class="edge">
<title>S&#45;PR37&#45;&gt;S&#45;1062</title>
<path fill="none" stroke="#4d4d4d" d="M1017.33,-825.91C1017.33,-808.65 1017.33,-735 1017.33,-735 1017.33,-735 1046.59,-735 1046.59,-735"/>
<polygon fill="#4d4d4d" stroke="#4d4d4d" points="1046.59,-737.45 1053.59,-735 1046.59,-732.55 1046.59,-737.45"/>
</g>
<!-- S&#45;1508 -->
<g id="node42" class="node">
<title>S&#45;1508</title>
<polygon fill="mediumseagreen" stroke="black" points="924,-750 852,-728.5 924,-707 996,-728.5 924,-750"/>
<text text-anchor="middle" x="924" y="-726" font-family="Arial" font-size="10.00">S&#45;1508</text>
</g>
<!-- S&#45;PR37&#45;&gt;S&#45;1508 -->
<g id="edge15" class="edge">
<title>S&#45;PR37&#45;&gt;S&#45;1508</title>
<path fill="none" stroke="#4d4d4d" d="M940,-812.37C940,-812.37 940,-752.38 940,-752.38"/>
<polygon fill="#4d4d4d" stroke="#4d4d4d" points="942.45,-752.38 940,-745.38 937.55,-752.38 942.45,-752.38"/>
</g>
<!-- R&#45;202&#45;&gt;C&#45;0875 -->
<g id="edge20" class="edge">
<title>R&#45;202&#45;&gt;C&#45;0875</title>
<path fill="none" stroke="#4d4d4d" d="M1222.5,-513.23C1222.5,-485.72 1222.5,-425 1222.5,-425 1222.5,-425 1080.22,-425 1080.22,-425"/>
<polygon fill="#4d4d4d" stroke="#4d4d4d" points="1080.22,-422.55 1073.22,-425 1080.22,-427.45 1080.22,-422.55"/>
</g>
<!-- C&#45;0231&#45;&gt;C&#45;0289 -->
<g id="edge5" class="edge">
<title>C&#45;0231&#45;&gt;C&#45;0289</title>
<path fill="none" stroke="#4d4d4d" d="M981,-1211.58C981,-1211.58 981,-1161.03 981,-1161.03"/>
<polygon fill="#4d4d4d" stroke="#4d4d4d" points="983.45,-1161.03 981,-1154.03 978.55,-1161.03 983.45,-1161.03"/>
</g>
<!-- S&#45;2154&#45;&gt;S&#45;2284 -->
<g id="edge27" class="edge">
<title>S&#45;2154&#45;&gt;S&#45;2284</title>
<path fill="none" stroke="#4d4d4d" d="M1703,-100.58C1703,-100.58 1703,-50.03 1703,-50.03"/>
<polygon fill="#4d4d4d" stroke="#4d4d4d" points="1705.45,-50.03 1703,-43.03 1700.55,-50.03 1705.45,-50.03"/>
</g>
<!-- C&#45;0183 -->
<g id="node35" class="node">
<title>C&#45;0183</title>
<ellipse fill="mediumseagreen" stroke="black" cx="1161" cy="-1435.5" rx="72" ry="21.5"/>
<text text-anchor="middle" x="1161" y="-1433" font-family="Arial" font-size="10.00">C&#45;0183</text>
</g>
<!-- C&#45;0183&#45;&gt;S&#45;155 -->
<g id="edge41" class="edge">
<title>C&#45;0183&#45;&gt;S&#45;155</title>
<path fill="none" stroke="#4d4d4d" d="M1206,-1418.37C1206,-1418.37 1206,-1349.78 1206,-1349.78"/>
<polygon fill="#4d4d4d" stroke="#4d4d4d" points="1208.45,-1349.78 1206,-1342.78 1203.55,-1349.78 1208.45,-1349.78"/>
</g>
<!-- C&#45;0183&#45;&gt;C&#45;0353 -->
<g id="edge2" class="edge">
<title>C&#45;0183&#45;&gt;C&#45;0353</title>
<path fill="none" stroke="#4d4d4d" d="M1116,-1418.37C1116,-1418.37 1116,-1358.38 1116,-1358.38"/>
<polygon fill="#4d4d4d" stroke="#4d4d4d" points="1118.45,-1358.38 1116,-1351.38 1113.55,-1358.38 1118.45,-1358.38"/>
</g>
<!-- S&#45;1062&#45;&gt;C&#45;0877 -->
<g id="edge18" class="edge">
<title>S&#45;1062&#45;&gt;C&#45;0877</title>
<path fill="none" stroke="#4d4d4d" d="M1174.64,-728C1200.02,-728 1222.5,-728 1222.5,-728 1222.5,-728 1222.5,-646.03 1222.5,-646.03"/>
<polygon fill="#4d4d4d" stroke="#4d4d4d" points="1224.95,-646.03 1222.5,-639.03 1220.05,-646.03 1224.95,-646.03"/>
</g>
<!-- S&#45;1062&#45;&gt;S&#45;166 -->
<g id="edge33" class="edge">
<title>S&#45;1062&#45;&gt;S&#45;166</title>
<path fill="none" stroke="#4d4d4d" d="M1104,-706.58C1104,-706.58 1104,-656.03 1104,-656.03"/>
<polygon fill="#4d4d4d" stroke="#4d4d4d" points="1106.45,-656.03 1104,-649.03 1101.55,-656.03 1106.45,-656.03"/>
</g>
<!-- C&#45;0449 -->
<g id="node39" class="node">
<title>C&#45;0449</title>
<ellipse fill="tomato" stroke="black" cx="924" cy="-627.5" rx="72" ry="21.5"/>
<text text-anchor="middle" x="924" y="-625" font-family="Arial" font-size="10.00">C&#45;0449</text>
</g>
<!-- S&#45;1062&#45;&gt;C&#45;0449 -->
<g id="edge17" class="edge">
<title>S&#45;1062&#45;&gt;C&#45;0449</title>
<path fill="none" stroke="#4d4d4d" d="M1057.04,-721C1032.15,-721 1006.67,-721 1006.67,-721 1006.67,-721 1006.67,-627 1006.67,-627 1006.67,-627 1003.2,-627 1003.2,-627"/>
<polygon fill="#4d4d4d" stroke="#4d4d4d" points="1003.2,-624.55 996.2,-627 1003.2,-629.45 1003.2,-624.55"/>
</g>
<!-- C&#45;0184&#45;&gt;S&#45;053 -->
<g id="edge24" class="edge">
<title>C&#45;0184&#45;&gt;S&#45;053</title>
<path fill="none" stroke="#4d4d4d" d="M1237.24,-324C1346.71,-324 1542,-324 1542,-324 1542,-324 1542,-252.31 1542,-252.31"/>
<polygon fill="#4d4d4d" stroke="#4d4d4d" points="1544.45,-252.31 1542,-245.31 1539.55,-252.31 1544.45,-252.31"/>
</g>
<!-- C&#45;0184&#45;&gt;S&#45;1614 -->
<g id="edge32" class="edge">
<title>C&#45;0184&#45;&gt;S&#45;1614</title>
<path fill="none" stroke="#4d4d4d" d="M1101.67,-314.07C1101.67,-314.07 1101.67,-232.12 1101.67,-232.12"/>
<polygon fill="#4d4d4d" stroke="#4d4d4d" points="1104.12,-232.12 1101.67,-225.12 1099.22,-232.12 1104.12,-232.12"/>
</g>
<!-- C&#45;0184&#45;&gt;C&#45;0797 -->
<g id="edge29" class="edge">
<title>C&#45;0184&#45;&gt;C&#45;0797</title>
<path fill="none" stroke="#4d4d4d" d="M1097.33,-317.05C1097.33,-303 1097.33,-274 1097.33,-274 1097.33,-274 919.5,-274 919.5,-274 919.5,-274 919.5,-239.76 919.5,-239.76"/>
<polygon fill="#4d4d4d" stroke="#4d4d4d" points="921.95,-239.76 919.5,-232.76 917.05,-239.76 921.95,-239.76"/>
</g>
<!-- C&#45;0184&#45;&gt;C&#45;0001 -->
<g id="edge28" class="edge">
<title>C&#45;0184&#45;&gt;C&#45;0001</title>
<path fill="none" stroke="#4d4d4d" d="M1226.5,-313.31C1226.5,-313.31 1226.5,-241.74 1226.5,-241.74"/>
<polygon fill="#4d4d4d" stroke="#4d4d4d" points="1228.95,-241.74 1226.5,-234.74 1224.05,-241.74 1228.95,-241.74"/>
</g>
<!-- C&#45;0184&#45;&gt;C&#45;0798 -->
<g id="edge31" class="edge">
<title>C&#45;0184&#45;&gt;C&#45;0798</title>
<path fill="none" stroke="#4d4d4d" d="M1143,-304.02C1143,-304.02 1143,-148.55 1143,-148.55"/>
<polygon fill="#4d4d4d" stroke="#4d4d4d" points="1145.45,-148.55 1143,-141.55 1140.55,-148.55 1145.45,-148.55"/>
</g>
<!-- 111&#45;23&#45; -->
<g id="node38" class="node">
<title>111&#45;23&#45;</title>
<polygon fill="gold" stroke="black" points="1233,-1531.59 1233,-1549.41 1190.82,-1562 1131.18,-1562 1089,-1549.41 1089,-1531.59 1131.18,-1519 1190.82,-1519 1233,-1531.59"/>
<polygon fill="none" stroke="black" points="1237,-1528.61 1237,-1552.39 1191.41,-1566 1130.59,-1566 1085,-1552.39 1085,-1528.61 1130.59,-1515 1191.41,-1515 1237,-1528.61"/>
<text text-anchor="middle" x="1161" y="-1538" font-family="Arial" font-size="10.00">111&#45;23&#45;</text>
</g>
<!-- 111&#45;23&#45;&#45;&gt;C&#45;0183 -->
<g id="edge1" class="edge">
<title>111&#45;23&#45;&#45;&gt;C&#45;0183</title>
<path fill="none" stroke="#4d4d4d" d="M1161,-1514.81C1161,-1514.81 1161,-1464.03 1161,-1464.03"/>
<polygon fill="#4d4d4d" stroke="#4d4d4d" points="1163.45,-1464.03 1161,-1457.03 1158.55,-1464.03 1163.45,-1464.03"/>
</g>
<!-- ext_circ_110_26_ -->
<g id="node44" class="node">
<title>ext_circ_110_26_</title>
<polygon fill="lightpink" stroke="darkorange" stroke-dasharray="5,2" points="996,-548 852,-548 852,-505 996,-505 996,-548"/>
<text text-anchor="middle" x="924" y="-529.5" font-family="Arial" font-size="10.00">Circuito:</text>
<text text-anchor="middle" x="924" y="-518.5" font-family="Arial" font-size="10.00">110&#45;26&#45;</text>
</g>
<!-- C&#45;0449&#45;&gt;ext_circ_110_26_ -->
<g id="edge43" class="edge">
<title>C&#45;0449&#45;&gt;ext_circ_110_26_</title>
<path fill="none" stroke="darkorange" stroke-dasharray="5,2" d="M924,-605.58C924,-605.58 924,-555.03 924,-555.03"/>
<polygon fill="darkorange" stroke="darkorange" points="926.45,-555.03 924,-548.03 921.55,-555.03 926.45,-555.03"/>
</g>
</g>
</svg>
