<?xml version="1.0" encoding="UTF-8" standalone="no"?>
<!DOCTYPE svg PUBLIC "-//W3C//DTD SVG 1.1//EN"
 "http://www.w3.org/Graphics/SVG/1.1/DTD/svg11.dtd">
<!-- Generated by graphviz version 2.50.0 (0)
 -->
<!-- Title: Grafo_Circuito_112_32 Pages: 1 -->
<svg width="404pt" height="710pt"
 viewBox="0.00 0.00 404.00 710.00" xmlns="http://www.w3.org/2000/svg" xmlns:xlink="http://www.w3.org/1999/xlink">
<g id="graph0" class="graph" transform="scale(1 1) rotate(0) translate(4 706)">
<title>Grafo_Circuito_112_32</title>
<polygon fill="white" stroke="transparent" points="-4,4 -4,-706 400,-706 400,4 -4,4"/>
<!-- R&#45;060 -->
<g id="node1" class="node">
<title>R&#45;060</title>
<polygon fill="mediumseagreen" stroke="black" points="137,-386.54 137,-401.46 96.87,-412 40.13,-412 0,-401.46 0,-386.54 40.13,-376 96.87,-376 137,-386.54"/>
<text text-anchor="middle" x="68.5" y="-392.1" font-family="Helvetica,sans-Serif" font-size="8.00">R&#45;060</text>
</g>
<!-- C&#45;0277 -->
<g id="node2" class="node">
<title>C&#45;0277</title>
<ellipse fill="mediumseagreen" stroke="black" cx="154.5" cy="-488" rx="68.5" ry="18"/>
<text text-anchor="middle" x="154.5" y="-486.1" font-family="Helvetica,sans-Serif" font-size="8.00">C&#45;0277</text>
</g>
<!-- C&#45;0277&#45;&gt;R&#45;060 -->
<g id="edge3" class="edge">
<title>C&#45;0277&#45;&gt;R&#45;060</title>
<path fill="none" stroke="dimgray" stroke-width="0.8" d="M111.5,-473.72C111.5,-473.72 111.5,-415.41 111.5,-415.41"/>
<polygon fill="dimgray" stroke="dimgray" stroke-width="0.8" points="113.95,-415.41 111.5,-408.41 109.05,-415.41 113.95,-415.41"/>
</g>
<!-- C&#45;0060 -->
<g id="node6" class="node">
<title>C&#45;0060</title>
<ellipse fill="mediumseagreen" stroke="black" cx="241.5" cy="-394" rx="68.5" ry="18"/>
<text text-anchor="middle" x="241.5" y="-392.1" font-family="Helvetica,sans-Serif" font-size="8.00">C&#45;0060</text>
</g>
<!-- C&#45;0277&#45;&gt;C&#45;0060 -->
<g id="edge4" class="edge">
<title>C&#45;0277&#45;&gt;C&#45;0060</title>
<path fill="none" stroke="dimgray" stroke-width="0.8" d="M198,-473.72C198,-473.72 198,-415.1 198,-415.1"/>
<polygon fill="dimgray" stroke="dimgray" stroke-width="0.8" points="200.45,-415.1 198,-408.1 195.55,-415.1 200.45,-415.1"/>
</g>
<!-- C&#45;0013 -->
<g id="node3" class="node">
<title>C&#45;0013</title>
<ellipse fill="mediumseagreen" stroke="black" cx="154.5" cy="-582" rx="68.5" ry="18"/>
<text text-anchor="middle" x="154.5" y="-580.1" font-family="Helvetica,sans-Serif" font-size="8.00">C&#45;0013</text>
</g>
<!-- C&#45;0013&#45;&gt;C&#45;0277 -->
<g id="edge2" class="edge">
<title>C&#45;0013&#45;&gt;C&#45;0277</title>
<path fill="none" stroke="dimgray" stroke-width="0.8" d="M154.5,-563.88C154.5,-563.88 154.5,-513.07 154.5,-513.07"/>
<polygon fill="dimgray" stroke="dimgray" stroke-width="0.8" points="156.95,-513.07 154.5,-506.07 152.05,-513.07 156.95,-513.07"/>
</g>
<!-- C&#45;0729 -->
<g id="node4" class="node">
<title>C&#45;0729</title>
<ellipse fill="mediumseagreen" stroke="black" cx="327.5" cy="-206" rx="68.5" ry="18"/>
<text text-anchor="middle" x="327.5" y="-204.1" font-family="Helvetica,sans-Serif" font-size="8.00">C&#45;0729</text>
</g>
<!-- C&#45;0730 -->
<g id="node10" class="node">
<title>C&#45;0730</title>
<ellipse fill="mediumseagreen" stroke="black" cx="327.5" cy="-112" rx="68.5" ry="18"/>
<text text-anchor="middle" x="327.5" y="-110.1" font-family="Helvetica,sans-Serif" font-size="8.00">C&#45;0730</text>
</g>
<!-- C&#45;0729&#45;&gt;C&#45;0730 -->
<g id="edge7" class="edge">
<title>C&#45;0729&#45;&gt;C&#45;0730</title>
<path fill="none" stroke="dimgray" stroke-width="0.8" d="M327.5,-187.88C327.5,-187.88 327.5,-137.07 327.5,-137.07"/>
<polygon fill="dimgray" stroke="dimgray" stroke-width="0.8" points="329.95,-137.07 327.5,-130.07 325.05,-137.07 329.95,-137.07"/>
</g>
<!-- 112&#45;32 -->
<g id="node5" class="node">
<title>112&#45;32</title>
<polygon fill="gold" stroke="black" points="223,-672.54 223,-687.46 182.87,-698 126.13,-698 86,-687.46 86,-672.54 126.13,-662 182.87,-662 223,-672.54"/>
<polygon fill="none" stroke="black" points="227,-669.46 227,-690.54 183.39,-702 125.61,-702 82,-690.54 82,-669.46 125.61,-658 183.39,-658 227,-669.46"/>
<text text-anchor="middle" x="154.5" y="-678.1" font-family="Helvetica,sans-Serif" font-size="8.00">112&#45;32</text>
</g>
<!-- 112&#45;32&#45;&gt;C&#45;0013 -->
<g id="edge1" class="edge">
<title>112&#45;32&#45;&gt;C&#45;0013</title>
<path fill="none" stroke="dimgray" stroke-width="0.8" d="M154.5,-657.76C154.5,-657.76 154.5,-607.21 154.5,-607.21"/>
<polygon fill="dimgray" stroke="dimgray" stroke-width="0.8" points="156.95,-607.21 154.5,-600.21 152.05,-607.21 156.95,-607.21"/>
</g>
<!-- C&#45;0095 -->
<g id="node7" class="node">
<title>C&#45;0095</title>
<ellipse fill="mediumseagreen" stroke="black" cx="154.5" cy="-300" rx="68.5" ry="18"/>
<text text-anchor="middle" x="154.5" y="-298.1" font-family="Helvetica,sans-Serif" font-size="8.00">C&#45;0095</text>
</g>
<!-- C&#45;0060&#45;&gt;C&#45;0095 -->
<g id="edge9" class="edge">
<title>C&#45;0060&#45;&gt;C&#45;0095</title>
<path fill="none" stroke="dimgray" stroke-width="0.8" d="M198,-379.72C198,-379.72 198,-321.1 198,-321.1"/>
<polygon fill="dimgray" stroke="dimgray" stroke-width="0.8" points="200.45,-321.1 198,-314.1 195.55,-321.1 200.45,-321.1"/>
</g>
<!-- R&#45;101 -->
<g id="node9" class="node">
<title>R&#45;101</title>
<polygon fill="mediumseagreen" stroke="black" points="396,-292.54 396,-307.46 355.87,-318 299.13,-318 259,-307.46 259,-292.54 299.13,-282 355.87,-282 396,-292.54"/>
<text text-anchor="middle" x="327.5" y="-298.1" font-family="Helvetica,sans-Serif" font-size="8.00">R&#45;101</text>
</g>
<!-- C&#45;0060&#45;&gt;R&#45;101 -->
<g id="edge5" class="edge">
<title>C&#45;0060&#45;&gt;R&#45;101</title>
<path fill="none" stroke="dimgray" stroke-width="0.8" d="M284.5,-379.72C284.5,-379.72 284.5,-321.41 284.5,-321.41"/>
<polygon fill="dimgray" stroke="dimgray" stroke-width="0.8" points="286.95,-321.41 284.5,-314.41 282.05,-321.41 286.95,-321.41"/>
</g>
<!-- C&#45;0047 -->
<g id="node8" class="node">
<title>C&#45;0047</title>
<ellipse fill="mediumseagreen" stroke="black" cx="327.5" cy="-18" rx="68.5" ry="18"/>
<text text-anchor="middle" x="327.5" y="-16.1" font-family="Helvetica,sans-Serif" font-size="8.00">C&#45;0047</text>
</g>
<!-- R&#45;101&#45;&gt;C&#45;0729 -->
<g id="edge6" class="edge">
<title>R&#45;101&#45;&gt;C&#45;0729</title>
<path fill="none" stroke="dimgray" stroke-width="0.8" d="M327.5,-281.88C327.5,-281.88 327.5,-231.07 327.5,-231.07"/>
<polygon fill="dimgray" stroke="dimgray" stroke-width="0.8" points="329.95,-231.07 327.5,-224.07 325.05,-231.07 329.95,-231.07"/>
</g>
<!-- C&#45;0730&#45;&gt;C&#45;0047 -->
<g id="edge8" class="edge">
<title>C&#45;0730&#45;&gt;C&#45;0047</title>
<path fill="none" stroke="dimgray" stroke-width="0.8" d="M327.5,-93.88C327.5,-93.88 327.5,-43.07 327.5,-43.07"/>
<polygon fill="dimgray" stroke="dimgray" stroke-width="0.8" points="329.95,-43.07 327.5,-36.07 325.05,-43.07 329.95,-43.07"/>
</g>
</g>
</svg>
