<?xml version="1.0" encoding="UTF-8" standalone="no"?>
<!DOCTYPE svg PUBLIC "-//W3C//DTD SVG 1.1//EN"
 "http://www.w3.org/Graphics/SVG/1.1/DTD/svg11.dtd">
<!-- Generated by graphviz version 2.50.0 (0)
 -->
<!-- Title: Grafo_Circuito_206_25_ Pages: 1 -->
<svg width="2873pt" height="1675pt"
 viewBox="0.00 0.00 2873.00 1675.00" xmlns="http://www.w3.org/2000/svg" xmlns:xlink="http://www.w3.org/1999/xlink">
<g id="graph0" class="graph" transform="scale(1 1) rotate(0) translate(4 1671)">
<title>Grafo_Circuito_206_25_</title>
<polygon fill="white" stroke="transparent" points="-4,4 -4,-1671 2869,-1671 2869,4 -4,4"/>
<!-- S&#45;2449 -->
<g id="node1" class="node">
<title>S&#45;2449</title>
<polygon fill="mediumseagreen" stroke="black" points="1353,-952 1281,-930.5 1353,-909 1425,-930.5 1353,-952"/>
<text text-anchor="middle" x="1353" y="-928" font-family="Arial" font-size="10.00">S&#45;2449</text>
</g>
<!-- S&#45;2413 -->
<g id="node2" class="node">
<title>S&#45;2413</title>
<polygon fill="mediumseagreen" stroke="black" points="1533,-952 1461,-930.5 1533,-909 1605,-930.5 1533,-952"/>
<text text-anchor="middle" x="1533" y="-928" font-family="Arial" font-size="10.00">S&#45;2413</text>
</g>
<!-- R&#45;283 -->
<g id="node3" class="node">
<title>R&#45;283</title>
<polygon fill="tomato" stroke="black" points="324,-113.59 324,-131.41 281.82,-144 222.18,-144 180,-131.41 180,-113.59 222.18,-101 281.82,-101 324,-113.59"/>
<text text-anchor="middle" x="252" y="-120" font-family="Arial" font-size="10.00">R&#45;283</text>
</g>
<!-- ext_circ_205_25_ -->
<g id="node61" class="node">
<title>ext_circ_205_25_</title>
<polygon fill="lightpink" stroke="darkorange" stroke-dasharray="5,2" points="414,-43 270,-43 270,0 414,0 414,-43"/>
<text text-anchor="middle" x="342" y="-24.5" font-family="Arial" font-size="10.00">Circuito:</text>
<text text-anchor="middle" x="342" y="-13.5" font-family="Arial" font-size="10.00">205&#45;25&#45;</text>
</g>
<!-- R&#45;283&#45;&gt;ext_circ_205_25_ -->
<g id="edge63" class="edge">
<title>R&#45;283&#45;&gt;ext_circ_205_25_</title>
<path fill="none" stroke="darkorange" stroke-dasharray="5,2" d="M297,-105.37C297,-105.37 297,-50.31 297,-50.31"/>
<polygon fill="darkorange" stroke="darkorange" points="299.45,-50.31 297,-43.31 294.55,-50.31 299.45,-50.31"/>
</g>
<!-- S&#45;513 -->
<g id="node4" class="node">
<title>S&#45;513</title>
<polygon fill="mediumseagreen" stroke="black" points="776,-750 704,-728.5 776,-707 848,-728.5 776,-750"/>
<text text-anchor="middle" x="776" y="-726" font-family="Arial" font-size="10.00">S&#45;513</text>
</g>
<!-- C&#45;0577 -->
<g id="node6" class="node">
<title>C&#45;0577</title>
<ellipse fill="tomato" stroke="black" cx="596" cy="-627.5" rx="72" ry="21.5"/>
<text text-anchor="middle" x="596" y="-625" font-family="Arial" font-size="10.00">C&#45;0577</text>
</g>
<!-- S&#45;513&#45;&gt;C&#45;0577 -->
<g id="edge24" class="edge">
<title>S&#45;513&#45;&gt;C&#45;0577</title>
<path fill="none" stroke="#4d4d4d" d="M705.34,-728C672.67,-728 641,-728 641,-728 641,-728 641,-651.55 641,-651.55"/>
<polygon fill="#4d4d4d" stroke="#4d4d4d" points="643.45,-651.55 641,-644.55 638.55,-651.55 643.45,-651.55"/>
</g>
<!-- C&#45;0578 -->
<g id="node15" class="node">
<title>C&#45;0578</title>
<ellipse fill="mediumseagreen" stroke="black" cx="776" cy="-627.5" rx="72" ry="21.5"/>
<text text-anchor="middle" x="776" y="-625" font-family="Arial" font-size="10.00">C&#45;0578</text>
</g>
<!-- S&#45;513&#45;&gt;C&#45;0578 -->
<g id="edge23" class="edge">
<title>S&#45;513&#45;&gt;C&#45;0578</title>
<path fill="none" stroke="#4d4d4d" d="M776,-706.58C776,-706.58 776,-656.03 776,-656.03"/>
<polygon fill="#4d4d4d" stroke="#4d4d4d" points="778.45,-656.03 776,-649.03 773.55,-656.03 778.45,-656.03"/>
</g>
<!-- C&#45;0352 -->
<g id="node35" class="node">
<title>C&#45;0352</title>
<ellipse fill="tomato" stroke="black" cx="956" cy="-627.5" rx="72" ry="21.5"/>
<text text-anchor="middle" x="956" y="-625" font-family="Arial" font-size="10.00">C&#45;0352</text>
</g>
<!-- S&#45;513&#45;&gt;C&#45;0352 -->
<g id="edge22" class="edge">
<title>S&#45;513&#45;&gt;C&#45;0352</title>
<path fill="none" stroke="#4d4d4d" d="M846.47,-728C857.86,-728 866,-728 866,-728 866,-728 866,-627 866,-627 866,-627 876.78,-627 876.78,-627"/>
<polygon fill="#4d4d4d" stroke="#4d4d4d" points="876.78,-629.45 883.78,-627 876.78,-624.55 876.78,-629.45"/>
</g>
<!-- S&#45;2029 -->
<g id="node5" class="node">
<title>S&#45;2029</title>
<polygon fill="mediumseagreen" stroke="black" points="1758,-1154 1686,-1132.5 1758,-1111 1830,-1132.5 1758,-1154"/>
<text text-anchor="middle" x="1758" y="-1130" font-family="Arial" font-size="10.00">S&#45;2029</text>
</g>
<!-- C&#45;0579 -->
<g id="node22" class="node">
<title>C&#45;0579</title>
<ellipse fill="mediumseagreen" stroke="black" cx="776" cy="-425.5" rx="72" ry="21.5"/>
<text text-anchor="middle" x="776" y="-423" font-family="Arial" font-size="10.00">C&#45;0579</text>
</g>
<!-- C&#45;0577&#45;&gt;C&#45;0579 -->
<g id="edge62" class="edge">
<title>C&#45;0577&#45;&gt;C&#45;0579</title>
<path fill="none" stroke="blue" stroke-dasharray="5,2" d="M641,-610.49C641,-562.93 641,-432 641,-432 641,-432 700.31,-432 700.31,-432"/>
<polygon fill="blue" stroke="blue" points="700.31,-434.45 707.31,-432 700.31,-429.55 700.31,-434.45"/>
</g>
<!-- S&#45;1970 -->
<g id="node7" class="node">
<title>S&#45;1970</title>
<polygon fill="mediumseagreen" stroke="black" points="1218,-1255 1146,-1233.5 1218,-1212 1290,-1233.5 1218,-1255"/>
<text text-anchor="middle" x="1218" y="-1231" font-family="Arial" font-size="10.00">S&#45;1970</text>
</g>
<!-- S&#45;1869 -->
<g id="node8" class="node">
<title>S&#45;1869</title>
<polygon fill="mediumseagreen" stroke="black" points="506,-245 434,-223.5 506,-202 578,-223.5 506,-245"/>
<text text-anchor="middle" x="506" y="-221" font-family="Arial" font-size="10.00">S&#45;1869</text>
</g>
<!-- S&#45;1304 -->
<g id="node9" class="node">
<title>S&#45;1304</title>
<polygon fill="mediumseagreen" stroke="black" points="72,-245 0,-223.5 72,-202 144,-223.5 72,-245"/>
<text text-anchor="middle" x="72" y="-221" font-family="Arial" font-size="10.00">S&#45;1304</text>
</g>
<!-- S&#45;678 -->
<g id="node19" class="node">
<title>S&#45;678</title>
<polygon fill="mediumseagreen" stroke="black" points="72,-144 0,-122.5 72,-101 144,-122.5 72,-144"/>
<text text-anchor="middle" x="72" y="-120" font-family="Arial" font-size="10.00">S&#45;678</text>
</g>
<!-- S&#45;1304&#45;&gt;S&#45;678 -->
<g id="edge30" class="edge">
<title>S&#45;1304&#45;&gt;S&#45;678</title>
<path fill="none" stroke="#4d4d4d" d="M72,-201.58C72,-201.58 72,-151.03 72,-151.03"/>
<polygon fill="#4d4d4d" stroke="#4d4d4d" points="74.45,-151.03 72,-144.03 69.55,-151.03 74.45,-151.03"/>
</g>
<!-- S&#45;2034 -->
<g id="node10" class="node">
<title>S&#45;2034</title>
<polygon fill="mediumseagreen" stroke="black" points="72,-43 0,-21.5 72,0 144,-21.5 72,-43"/>
<text text-anchor="middle" x="72" y="-19" font-family="Arial" font-size="10.00">S&#45;2034</text>
</g>
<!-- S&#45;1375 -->
<g id="node11" class="node">
<title>S&#45;1375</title>
<polygon fill="mediumseagreen" stroke="black" points="1398,-1255 1326,-1233.5 1398,-1212 1470,-1233.5 1398,-1255"/>
<text text-anchor="middle" x="1398" y="-1231" font-family="Arial" font-size="10.00">S&#45;1375</text>
</g>
<!-- R&#45;082 -->
<g id="node12" class="node">
<title>R&#45;082</title>
<polygon fill="tomato" stroke="black" points="1298,-820.59 1298,-838.41 1255.82,-851 1196.18,-851 1154,-838.41 1154,-820.59 1196.18,-808 1255.82,-808 1298,-820.59"/>
<text text-anchor="middle" x="1226" y="-827" font-family="Arial" font-size="10.00">R&#45;082</text>
</g>
<!-- ext_circ_205_23_ -->
<g id="node60" class="node">
<title>ext_circ_205_23_</title>
<polygon fill="lightpink" stroke="darkorange" stroke-dasharray="5,2" points="1253,-750 1109,-750 1109,-707 1253,-707 1253,-750"/>
<text text-anchor="middle" x="1181" y="-731.5" font-family="Arial" font-size="10.00">Circuito:</text>
<text text-anchor="middle" x="1181" y="-720.5" font-family="Arial" font-size="10.00">205&#45;23&#45;</text>
</g>
<!-- R&#45;082&#45;&gt;ext_circ_205_23_ -->
<g id="edge60" class="edge">
<title>R&#45;082&#45;&gt;ext_circ_205_23_</title>
<path fill="none" stroke="darkorange" stroke-dasharray="5,2" d="M1203.5,-807.58C1203.5,-807.58 1203.5,-757.03 1203.5,-757.03"/>
<polygon fill="darkorange" stroke="darkorange" points="1205.95,-757.03 1203.5,-750.03 1201.05,-757.03 1205.95,-757.03"/>
</g>
<!-- S&#45;1177 -->
<g id="node13" class="node">
<title>S&#45;1177</title>
<polygon fill="mediumseagreen" stroke="black" points="750,-1053 678,-1031.5 750,-1010 822,-1031.5 750,-1053"/>
<text text-anchor="middle" x="750" y="-1029" font-family="Arial" font-size="10.00">S&#45;1177</text>
</g>
<!-- S&#45;1286 -->
<g id="node14" class="node">
<title>S&#45;1286</title>
<polygon fill="mediumseagreen" stroke="black" points="866,-952 794,-930.5 866,-909 938,-930.5 866,-952"/>
<text text-anchor="middle" x="866" y="-928" font-family="Arial" font-size="10.00">S&#45;1286</text>
</g>
<!-- S&#45;2358 -->
<g id="node17" class="node">
<title>S&#45;2358</title>
<polygon fill="mediumseagreen" stroke="black" points="686,-851 614,-829.5 686,-808 758,-829.5 686,-851"/>
<text text-anchor="middle" x="686" y="-827" font-family="Arial" font-size="10.00">S&#45;2358</text>
</g>
<!-- S&#45;1286&#45;&gt;S&#45;2358 -->
<g id="edge18" class="edge">
<title>S&#45;1286&#45;&gt;S&#45;2358</title>
<path fill="none" stroke="#4d4d4d" d="M795.47,-930C757.35,-930 718,-930 718,-930 718,-930 718,-848.82 718,-848.82"/>
<polygon fill="#4d4d4d" stroke="#4d4d4d" points="720.45,-848.82 718,-841.82 715.55,-848.82 720.45,-848.82"/>
</g>
<!-- S&#45;910 -->
<g id="node46" class="node">
<title>S&#45;910</title>
<polygon fill="mediumseagreen" stroke="black" points="866,-851 794,-829.5 866,-808 938,-829.5 866,-851"/>
<text text-anchor="middle" x="866" y="-827" font-family="Arial" font-size="10.00">S&#45;910</text>
</g>
<!-- S&#45;1286&#45;&gt;S&#45;910 -->
<g id="edge19" class="edge">
<title>S&#45;1286&#45;&gt;S&#45;910</title>
<path fill="none" stroke="#4d4d4d" d="M866,-908.58C866,-908.58 866,-858.03 866,-858.03"/>
<polygon fill="#4d4d4d" stroke="#4d4d4d" points="868.45,-858.03 866,-851.03 863.55,-858.03 868.45,-858.03"/>
</g>
<!-- R&#45;107 -->
<g id="node18" class="node">
<title>R&#45;107</title>
<polygon fill="mediumseagreen" stroke="black" points="848,-517.59 848,-535.41 805.82,-548 746.18,-548 704,-535.41 704,-517.59 746.18,-505 805.82,-505 848,-517.59"/>
<text text-anchor="middle" x="776" y="-524" font-family="Arial" font-size="10.00">R&#45;107</text>
</g>
<!-- C&#45;0578&#45;&gt;R&#45;107 -->
<g id="edge25" class="edge">
<title>C&#45;0578&#45;&gt;R&#45;107</title>
<path fill="none" stroke="#4d4d4d" d="M776,-605.58C776,-605.58 776,-555.03 776,-555.03"/>
<polygon fill="#4d4d4d" stroke="#4d4d4d" points="778.45,-555.03 776,-548.03 773.55,-555.03 778.45,-555.03"/>
</g>
<!-- S&#45;515 -->
<g id="node16" class="node">
<title>S&#45;515</title>
<polygon fill="mediumseagreen" stroke="black" points="1578,-1255 1506,-1233.5 1578,-1212 1650,-1233.5 1578,-1255"/>
<text text-anchor="middle" x="1578" y="-1231" font-family="Arial" font-size="10.00">S&#45;515</text>
</g>
<!-- R&#45;049 -->
<g id="node44" class="node">
<title>R&#45;049</title>
<polygon fill="mediumseagreen" stroke="black" points="1182,-1123.59 1182,-1141.41 1139.82,-1154 1080.18,-1154 1038,-1141.41 1038,-1123.59 1080.18,-1111 1139.82,-1111 1182,-1123.59"/>
<text text-anchor="middle" x="1110" y="-1130" font-family="Arial" font-size="10.00">R&#45;049</text>
</g>
<!-- S&#45;515&#45;&gt;R&#45;049 -->
<g id="edge11" class="edge">
<title>S&#45;515&#45;&gt;R&#45;049</title>
<path fill="none" stroke="#4d4d4d" d="M1539,-1223.39C1539,-1199.01 1539,-1139 1539,-1139 1539,-1139 1189.29,-1139 1189.29,-1139"/>
<polygon fill="#4d4d4d" stroke="#4d4d4d" points="1189.29,-1136.55 1182.29,-1139 1189.29,-1141.45 1189.29,-1136.55"/>
</g>
<!-- R&#45;107&#45;&gt;C&#45;0579 -->
<g id="edge26" class="edge">
<title>R&#45;107&#45;&gt;C&#45;0579</title>
<path fill="none" stroke="#4d4d4d" d="M776,-504.58C776,-504.58 776,-454.03 776,-454.03"/>
<polygon fill="#4d4d4d" stroke="#4d4d4d" points="778.45,-454.03 776,-447.03 773.55,-454.03 778.45,-454.03"/>
</g>
<!-- S&#45;678&#45;&gt;S&#45;2034 -->
<g id="edge31" class="edge">
<title>S&#45;678&#45;&gt;S&#45;2034</title>
<path fill="none" stroke="#4d4d4d" d="M72,-100.58C72,-100.58 72,-50.03 72,-50.03"/>
<polygon fill="#4d4d4d" stroke="#4d4d4d" points="74.45,-50.03 72,-43.03 69.55,-50.03 74.45,-50.03"/>
</g>
<!-- C&#45;1130 -->
<g id="node20" class="node">
<title>C&#45;1130</title>
<ellipse fill="mediumseagreen" stroke="black" cx="252" cy="-223.5" rx="72" ry="21.5"/>
<text text-anchor="middle" x="252" y="-221" font-family="Arial" font-size="10.00">C&#45;1130</text>
</g>
<!-- C&#45;1130&#45;&gt;R&#45;283 -->
<g id="edge33" class="edge">
<title>C&#45;1130&#45;&gt;R&#45;283</title>
<path fill="none" stroke="#4d4d4d" d="M252,-201.58C252,-201.58 252,-151.03 252,-151.03"/>
<polygon fill="#4d4d4d" stroke="#4d4d4d" points="254.45,-151.03 252,-144.03 249.55,-151.03 254.45,-151.03"/>
</g>
<!-- S&#45;596 -->
<g id="node21" class="node">
<title>S&#45;596</title>
<polygon fill="mediumseagreen" stroke="black" points="1758,-1255 1686,-1233.5 1758,-1212 1830,-1233.5 1758,-1255"/>
<text text-anchor="middle" x="1758" y="-1231" font-family="Arial" font-size="10.00">S&#45;596</text>
</g>
<!-- S&#45;596&#45;&gt;S&#45;2029 -->
<g id="edge7" class="edge">
<title>S&#45;596&#45;&gt;S&#45;2029</title>
<path fill="none" stroke="#4d4d4d" d="M1758,-1211.58C1758,-1211.58 1758,-1161.03 1758,-1161.03"/>
<polygon fill="#4d4d4d" stroke="#4d4d4d" points="1760.45,-1161.03 1758,-1154.03 1755.55,-1161.03 1760.45,-1161.03"/>
</g>
<!-- C&#45;0347 -->
<g id="node25" class="node">
<title>C&#45;0347</title>
<ellipse fill="mediumseagreen" stroke="black" cx="316" cy="-324.5" rx="72" ry="21.5"/>
<text text-anchor="middle" x="316" y="-322" font-family="Arial" font-size="10.00">C&#45;0347</text>
</g>
<!-- C&#45;0579&#45;&gt;C&#45;0347 -->
<g id="edge28" class="edge">
<title>C&#45;0579&#45;&gt;C&#45;0347</title>
<path fill="none" stroke="#4d4d4d" d="M708.13,-418C580.17,-418 316,-418 316,-418 316,-418 316,-353.19 316,-353.19"/>
<polygon fill="#4d4d4d" stroke="#4d4d4d" points="318.45,-353.19 316,-346.19 313.55,-353.19 318.45,-353.19"/>
</g>
<!-- C&#45;0348 -->
<g id="node37" class="node">
<title>C&#45;0348</title>
<ellipse fill="mediumseagreen" stroke="black" cx="776" cy="-324.5" rx="72" ry="21.5"/>
<text text-anchor="middle" x="776" y="-322" font-family="Arial" font-size="10.00">C&#45;0348</text>
</g>
<!-- C&#45;0579&#45;&gt;C&#45;0348 -->
<g id="edge35" class="edge">
<title>C&#45;0579&#45;&gt;C&#45;0348</title>
<path fill="none" stroke="#4d4d4d" d="M776,-403.58C776,-403.58 776,-353.03 776,-353.03"/>
<polygon fill="#4d4d4d" stroke="#4d4d4d" points="778.45,-353.03 776,-346.03 773.55,-353.03 778.45,-353.03"/>
</g>
<!-- S&#45;368 -->
<g id="node53" class="node">
<title>S&#45;368</title>
<polygon fill="mediumseagreen" stroke="black" points="956,-346 884,-324.5 956,-303 1028,-324.5 956,-346"/>
<text text-anchor="middle" x="956" y="-322" font-family="Arial" font-size="10.00">S&#45;368</text>
</g>
<!-- C&#45;0579&#45;&gt;S&#45;368 -->
<g id="edge27" class="edge">
<title>C&#45;0579&#45;&gt;S&#45;368</title>
<path fill="none" stroke="#4d4d4d" d="M848.18,-425C898.25,-425 956,-425 956,-425 956,-425 956,-353.31 956,-353.31"/>
<polygon fill="#4d4d4d" stroke="#4d4d4d" points="958.45,-353.31 956,-346.31 953.55,-353.31 958.45,-353.31"/>
</g>
<!-- S&#45;511 -->
<g id="node23" class="node">
<title>S&#45;511</title>
<polygon fill="mediumseagreen" stroke="black" points="930,-1053 858,-1031.5 930,-1010 1002,-1031.5 930,-1053"/>
<text text-anchor="middle" x="930" y="-1029" font-family="Arial" font-size="10.00">S&#45;511</text>
</g>
<!-- S&#45;527 -->
<g id="node24" class="node">
<title>S&#45;527</title>
<polygon fill="mediumseagreen" stroke="black" points="686,-245 614,-223.5 686,-202 758,-223.5 686,-245"/>
<text text-anchor="middle" x="686" y="-221" font-family="Arial" font-size="10.00">S&#45;527</text>
</g>
<!-- C&#45;0347&#45;&gt;S&#45;1304 -->
<g id="edge29" class="edge">
<title>C&#45;0347&#45;&gt;S&#45;1304</title>
<path fill="none" stroke="#4d4d4d" d="M243.78,-324C171.83,-324 72,-324 72,-324 72,-324 72,-252.31 72,-252.31"/>
<polygon fill="#4d4d4d" stroke="#4d4d4d" points="74.45,-252.31 72,-245.31 69.55,-252.31 74.45,-252.31"/>
</g>
<!-- C&#45;0347&#45;&gt;C&#45;1130 -->
<g id="edge32" class="edge">
<title>C&#45;0347&#45;&gt;C&#45;1130</title>
<path fill="none" stroke="#4d4d4d" d="M284,-305.03C284,-305.03 284,-249.91 284,-249.91"/>
<polygon fill="#4d4d4d" stroke="#4d4d4d" points="286.45,-249.91 284,-242.91 281.55,-249.91 286.45,-249.91"/>
</g>
<!-- C&#45;0059 -->
<g id="node59" class="node">
<title>C&#45;0059</title>
<ellipse fill="tomato" stroke="black" cx="432" cy="-122.5" rx="72" ry="21.5"/>
<text text-anchor="middle" x="432" y="-120" font-family="Arial" font-size="10.00">C&#45;0059</text>
</g>
<!-- C&#45;0347&#45;&gt;C&#45;0059 -->
<g id="edge34" class="edge">
<title>C&#45;0347&#45;&gt;C&#45;0059</title>
<path fill="none" stroke="#4d4d4d" d="M374,-311.56C374,-311.56 374,-142.34 374,-142.34"/>
<polygon fill="#4d4d4d" stroke="#4d4d4d" points="376.45,-142.34 374,-135.34 371.55,-142.34 376.45,-142.34"/>
</g>
<!-- C&#45;1328 -->
<g id="node26" class="node">
<title>C&#45;1328</title>
<ellipse fill="mediumseagreen" stroke="black" cx="1488" cy="-1435.5" rx="72" ry="21.5"/>
<text text-anchor="middle" x="1488" y="-1433" font-family="Arial" font-size="10.00">C&#45;1328</text>
</g>
<!-- S&#45;509 -->
<g id="node42" class="node">
<title>S&#45;509</title>
<polygon fill="mediumseagreen" stroke="black" points="1308,-1356 1236,-1334.5 1308,-1313 1380,-1334.5 1308,-1356"/>
<text text-anchor="middle" x="1308" y="-1332" font-family="Arial" font-size="10.00">S&#45;509</text>
</g>
<!-- C&#45;1328&#45;&gt;S&#45;509 -->
<g id="edge4" class="edge">
<title>C&#45;1328&#45;&gt;S&#45;509</title>
<path fill="none" stroke="#4d4d4d" d="M1415.82,-1435C1365.75,-1435 1308,-1435 1308,-1435 1308,-1435 1308,-1363.31 1308,-1363.31"/>
<polygon fill="#4d4d4d" stroke="#4d4d4d" points="1310.45,-1363.31 1308,-1356.31 1305.55,-1363.31 1310.45,-1363.31"/>
</g>
<!-- S&#45;1425 -->
<g id="node43" class="node">
<title>S&#45;1425</title>
<polygon fill="mediumseagreen" stroke="black" points="1488,-1356 1416,-1334.5 1488,-1313 1560,-1334.5 1488,-1356"/>
<text text-anchor="middle" x="1488" y="-1332" font-family="Arial" font-size="10.00">S&#45;1425</text>
</g>
<!-- C&#45;1328&#45;&gt;S&#45;1425 -->
<g id="edge3" class="edge">
<title>C&#45;1328&#45;&gt;S&#45;1425</title>
<path fill="none" stroke="#4d4d4d" d="M1488,-1413.58C1488,-1413.58 1488,-1363.03 1488,-1363.03"/>
<polygon fill="#4d4d4d" stroke="#4d4d4d" points="1490.45,-1363.03 1488,-1356.03 1485.55,-1363.03 1490.45,-1363.03"/>
</g>
<!-- S&#45;516 -->
<g id="node45" class="node">
<title>S&#45;516</title>
<polygon fill="mediumseagreen" stroke="black" points="1668,-1356 1596,-1334.5 1668,-1313 1740,-1334.5 1668,-1356"/>
<text text-anchor="middle" x="1668" y="-1332" font-family="Arial" font-size="10.00">S&#45;516</text>
</g>
<!-- C&#45;1328&#45;&gt;S&#45;516 -->
<g id="edge5" class="edge">
<title>C&#45;1328&#45;&gt;S&#45;516</title>
<path fill="none" stroke="#4d4d4d" d="M1560.18,-1435C1610.25,-1435 1668,-1435 1668,-1435 1668,-1435 1668,-1363.31 1668,-1363.31"/>
<polygon fill="#4d4d4d" stroke="#4d4d4d" points="1670.45,-1363.31 1668,-1356.31 1665.55,-1363.31 1670.45,-1363.31"/>
</g>
<!-- C&#45;1175 -->
<g id="node27" class="node">
<title>C&#45;1175</title>
<ellipse fill="tomato" stroke="black" cx="1046" cy="-829.5" rx="72" ry="21.5"/>
<text text-anchor="middle" x="1046" y="-827" font-family="Arial" font-size="10.00">C&#45;1175</text>
</g>
<!-- C&#45;1175&#45;&gt;ext_circ_205_23_ -->
<g id="edge59" class="edge">
<title>C&#45;1175&#45;&gt;ext_circ_205_23_</title>
<path fill="none" stroke="darkorange" stroke-dasharray="5,2" d="M1113.5,-821.91C1113.5,-821.91 1113.5,-757.19 1113.5,-757.19"/>
<polygon fill="darkorange" stroke="darkorange" points="1115.95,-757.19 1113.5,-750.19 1111.05,-757.19 1115.95,-757.19"/>
</g>
<!-- S&#45;1432 -->
<g id="node28" class="node">
<title>S&#45;1432</title>
<polygon fill="mediumseagreen" stroke="black" points="866,-245 794,-223.5 866,-202 938,-223.5 866,-245"/>
<text text-anchor="middle" x="866" y="-221" font-family="Arial" font-size="10.00">S&#45;1432</text>
</g>
<!-- C&#45;0926 -->
<g id="node29" class="node">
<title>C&#45;0926</title>
<ellipse fill="mediumseagreen" stroke="black" cx="1938" cy="-1233.5" rx="72" ry="21.5"/>
<text text-anchor="middle" x="1938" y="-1231" font-family="Arial" font-size="10.00">C&#45;0926</text>
</g>
<!-- R&#45;218 -->
<g id="node36" class="node">
<title>R&#45;218</title>
<polygon fill="mediumseagreen" stroke="black" points="2010,-1123.59 2010,-1141.41 1967.82,-1154 1908.18,-1154 1866,-1141.41 1866,-1123.59 1908.18,-1111 1967.82,-1111 2010,-1123.59"/>
<text text-anchor="middle" x="1938" y="-1130" font-family="Arial" font-size="10.00">R&#45;218</text>
</g>
<!-- C&#45;0926&#45;&gt;R&#45;218 -->
<g id="edge48" class="edge">
<title>C&#45;0926&#45;&gt;R&#45;218</title>
<path fill="none" stroke="#4d4d4d" d="M1914,-1213.06C1914,-1213.06 1914,-1161.31 1914,-1161.31"/>
<polygon fill="#4d4d4d" stroke="#4d4d4d" points="1916.45,-1161.31 1914,-1154.31 1911.55,-1161.31 1916.45,-1161.31"/>
</g>
<!-- C&#45;0928 -->
<g id="node30" class="node">
<title>C&#45;0928</title>
<ellipse fill="mediumseagreen" stroke="black" cx="1983" cy="-1031.5" rx="72" ry="21.5"/>
<text text-anchor="middle" x="1983" y="-1029" font-family="Arial" font-size="10.00">C&#45;0928</text>
</g>
<!-- C&#45;0928&#45;&gt;S&#45;2449 -->
<g id="edge57" class="edge">
<title>C&#45;0928&#45;&gt;S&#45;2449</title>
<path fill="none" stroke="#4d4d4d" d="M1919.91,-1042C1767.84,-1042 1393.5,-1042 1393.5,-1042 1393.5,-1042 1393.5,-947.01 1393.5,-947.01"/>
<polygon fill="#4d4d4d" stroke="#4d4d4d" points="1395.95,-947.01 1393.5,-940.01 1391.05,-947.01 1395.95,-947.01"/>
</g>
<!-- C&#45;0928&#45;&gt;S&#45;2413 -->
<g id="edge54" class="edge">
<title>C&#45;0928&#45;&gt;S&#45;2413</title>
<path fill="none" stroke="#4d4d4d" d="M1910.94,-1031C1793.07,-1031 1572,-1031 1572,-1031 1572,-1031 1572,-947.5 1572,-947.5"/>
<polygon fill="#4d4d4d" stroke="#4d4d4d" points="1574.45,-947.5 1572,-940.5 1569.55,-947.5 1574.45,-947.5"/>
</g>
<!-- S&#45;2021 -->
<g id="node31" class="node">
<title>S&#45;2021</title>
<polygon fill="tomato" stroke="black" points="1713,-952 1641,-930.5 1713,-909 1785,-930.5 1713,-952"/>
<text text-anchor="middle" x="1713" y="-928" font-family="Arial" font-size="10.00">S&#45;2021</text>
</g>
<!-- C&#45;0928&#45;&gt;S&#45;2021 -->
<g id="edge58" class="edge">
<title>C&#45;0928&#45;&gt;S&#45;2021</title>
<path fill="none" stroke="#4d4d4d" d="M1922.14,-1020C1848.86,-1020 1735.5,-1020 1735.5,-1020 1735.5,-1020 1735.5,-952.68 1735.5,-952.68"/>
<polygon fill="#4d4d4d" stroke="#4d4d4d" points="1737.95,-952.68 1735.5,-945.68 1733.05,-952.68 1737.95,-952.68"/>
</g>
<!-- S&#45;2546 -->
<g id="node38" class="node">
<title>S&#45;2546</title>
<polygon fill="mediumseagreen" stroke="black" points="1893,-952 1821,-930.5 1893,-909 1965,-930.5 1893,-952"/>
<text text-anchor="middle" x="1893" y="-928" font-family="Arial" font-size="10.00">S&#45;2546</text>
</g>
<!-- C&#45;0928&#45;&gt;S&#45;2546 -->
<g id="edge52" class="edge">
<title>C&#45;0928&#45;&gt;S&#45;2546</title>
<path fill="none" stroke="#4d4d4d" d="M1938,-1014.37C1938,-1014.37 1938,-945.78 1938,-945.78"/>
<polygon fill="#4d4d4d" stroke="#4d4d4d" points="1940.45,-945.78 1938,-938.78 1935.55,-945.78 1940.45,-945.78"/>
</g>
<!-- S&#45;2038 -->
<g id="node39" class="node">
<title>S&#45;2038</title>
<polygon fill="mediumseagreen" stroke="black" points="2073,-952 2001,-930.5 2073,-909 2145,-930.5 2073,-952"/>
<text text-anchor="middle" x="2073" y="-928" font-family="Arial" font-size="10.00">S&#45;2038</text>
</g>
<!-- C&#45;0928&#45;&gt;S&#45;2038 -->
<g id="edge56" class="edge">
<title>C&#45;0928&#45;&gt;S&#45;2038</title>
<path fill="none" stroke="#4d4d4d" d="M2011.8,-1011.55C2011.8,-1011.55 2011.8,-941 2011.8,-941"/>
<polygon fill="#4d4d4d" stroke="#4d4d4d" points="2014.25,-941 2011.8,-934 2009.35,-941 2014.25,-941"/>
</g>
<!-- S&#45;510 -->
<g id="node48" class="node">
<title>S&#45;510</title>
<polygon fill="mediumseagreen" stroke="black" points="2253,-952 2181,-930.5 2253,-909 2325,-930.5 2253,-952"/>
<text text-anchor="middle" x="2253" y="-928" font-family="Arial" font-size="10.00">S&#45;510</text>
</g>
<!-- C&#45;0928&#45;&gt;S&#45;510 -->
<g id="edge51" class="edge">
<title>C&#45;0928&#45;&gt;S&#45;510</title>
<path fill="none" stroke="#4d4d4d" d="M2055.18,-1031C2125.7,-1031 2222.5,-1031 2222.5,-1031 2222.5,-1031 2222.5,-950.23 2222.5,-950.23"/>
<polygon fill="#4d4d4d" stroke="#4d4d4d" points="2224.95,-950.23 2222.5,-943.23 2220.05,-950.23 2224.95,-950.23"/>
</g>
<!-- S&#45;1969 -->
<g id="node50" class="node">
<title>S&#45;1969</title>
<polygon fill="mediumseagreen" stroke="black" points="2433,-952 2361,-930.5 2433,-909 2505,-930.5 2433,-952"/>
<text text-anchor="middle" x="2433" y="-928" font-family="Arial" font-size="10.00">S&#45;1969</text>
</g>
<!-- C&#45;0928&#45;&gt;S&#45;1969 -->
<g id="edge53" class="edge">
<title>C&#45;0928&#45;&gt;S&#45;1969</title>
<path fill="none" stroke="#4d4d4d" d="M2022.6,-1013.25C2022.6,-993.87 2022.6,-966 2022.6,-966 2022.6,-966 2402.5,-966 2402.5,-966 2402.5,-966 2402.5,-949.92 2402.5,-949.92"/>
<polygon fill="#4d4d4d" stroke="#4d4d4d" points="2404.95,-949.92 2402.5,-942.92 2400.05,-949.92 2404.95,-949.92"/>
</g>
<!-- S&#45;209 -->
<g id="node55" class="node">
<title>S&#45;209</title>
<polygon fill="mediumseagreen" stroke="black" points="2613,-952 2541,-930.5 2613,-909 2685,-930.5 2613,-952"/>
<text text-anchor="middle" x="2613" y="-928" font-family="Arial" font-size="10.00">S&#45;209</text>
</g>
<!-- C&#45;0928&#45;&gt;S&#45;209 -->
<g id="edge55" class="edge">
<title>C&#45;0928&#45;&gt;S&#45;209</title>
<path fill="none" stroke="#4d4d4d" d="M2033.4,-1016.07C2033.4,-1001.22 2033.4,-981 2033.4,-981 2033.4,-981 2613,-981 2613,-981 2613,-981 2613,-959.21 2613,-959.21"/>
<polygon fill="#4d4d4d" stroke="#4d4d4d" points="2615.45,-959.21 2613,-952.21 2610.55,-959.21 2615.45,-959.21"/>
</g>
<!-- C&#45;0927 -->
<g id="node58" class="node">
<title>C&#45;0927</title>
<ellipse fill="tomato" stroke="black" cx="2793" cy="-930.5" rx="72" ry="21.5"/>
<text text-anchor="middle" x="2793" y="-928" font-family="Arial" font-size="10.00">C&#45;0927</text>
</g>
<!-- C&#45;0928&#45;&gt;C&#45;0927 -->
<g id="edge50" class="edge">
<title>C&#45;0928&#45;&gt;C&#45;0927</title>
<path fill="none" stroke="#4d4d4d" d="M2044.2,-1019.95C2044.2,-1009.26 2044.2,-995 2044.2,-995 2044.2,-995 2769,-995 2769,-995 2769,-995 2769,-957.91 2769,-957.91"/>
<polygon fill="#4d4d4d" stroke="#4d4d4d" points="2771.45,-957.91 2769,-950.91 2766.55,-957.91 2771.45,-957.91"/>
</g>
<!-- ext_circ_206_22_ -->
<g id="node63" class="node">
<title>ext_circ_206_22_</title>
<polygon fill="lightpink" stroke="darkorange" stroke-dasharray="5,2" points="1785,-851 1641,-851 1641,-808 1785,-808 1785,-851"/>
<text text-anchor="middle" x="1713" y="-832.5" font-family="Arial" font-size="10.00">Circuito:</text>
<text text-anchor="middle" x="1713" y="-821.5" font-family="Arial" font-size="10.00">206&#45;22&#45;</text>
</g>
<!-- S&#45;2021&#45;&gt;ext_circ_206_22_ -->
<g id="edge67" class="edge">
<title>S&#45;2021&#45;&gt;ext_circ_206_22_</title>
<path fill="none" stroke="darkorange" stroke-dasharray="5,2" d="M1713,-908.58C1713,-908.58 1713,-858.03 1713,-858.03"/>
<polygon fill="darkorange" stroke="darkorange" points="1715.45,-858.03 1713,-851.03 1710.55,-858.03 1715.45,-858.03"/>
</g>
<!-- S&#45;587 -->
<g id="node32" class="node">
<title>S&#45;587</title>
<polygon fill="mediumseagreen" stroke="black" points="2192,-1154 2120,-1132.5 2192,-1111 2264,-1132.5 2192,-1154"/>
<text text-anchor="middle" x="2192" y="-1130" font-family="Arial" font-size="10.00">S&#45;587</text>
</g>
<!-- S&#45;2031 -->
<g id="node33" class="node">
<title>S&#45;2031</title>
<polygon fill="mediumseagreen" stroke="black" points="2372,-1053 2300,-1031.5 2372,-1010 2444,-1031.5 2372,-1053"/>
<text text-anchor="middle" x="2372" y="-1029" font-family="Arial" font-size="10.00">S&#45;2031</text>
</g>
<!-- S&#45;1305 -->
<g id="node34" class="node">
<title>S&#45;1305</title>
<polygon fill="mediumseagreen" stroke="black" points="1046,-245 974,-223.5 1046,-202 1118,-223.5 1046,-245"/>
<text text-anchor="middle" x="1046" y="-221" font-family="Arial" font-size="10.00">S&#45;1305</text>
</g>
<!-- C&#45;0352&#45;&gt;S&#45;2413 -->
<g id="edge61" class="edge">
<title>C&#45;0352&#45;&gt;S&#45;2413</title>
<path fill="none" stroke="blue" stroke-dasharray="5,2" d="M1028.2,-627C1183.02,-627 1533,-627 1533,-627 1533,-627 1533,-901.67 1533,-901.67"/>
<polygon fill="blue" stroke="blue" points="1530.55,-901.67 1533,-908.67 1535.45,-901.67 1530.55,-901.67"/>
</g>
<!-- R&#45;218&#45;&gt;C&#45;0928 -->
<g id="edge49" class="edge">
<title>R&#45;218&#45;&gt;C&#45;0928</title>
<path fill="none" stroke="#4d4d4d" d="M1960.5,-1110.58C1960.5,-1110.58 1960.5,-1059 1960.5,-1059"/>
<polygon fill="#4d4d4d" stroke="#4d4d4d" points="1962.95,-1059 1960.5,-1052 1958.05,-1059 1962.95,-1059"/>
</g>
<!-- C&#45;0348&#45;&gt;S&#45;1869 -->
<g id="edge40" class="edge">
<title>C&#45;0348&#45;&gt;S&#45;1869</title>
<path fill="none" stroke="#4d4d4d" d="M703.88,-324C638.07,-324 551,-324 551,-324 551,-324 551,-238.72 551,-238.72"/>
<polygon fill="#4d4d4d" stroke="#4d4d4d" points="553.45,-238.72 551,-231.72 548.55,-238.72 553.45,-238.72"/>
</g>
<!-- C&#45;0348&#45;&gt;S&#45;527 -->
<g id="edge38" class="edge">
<title>C&#45;0348&#45;&gt;S&#45;527</title>
<path fill="none" stroke="#4d4d4d" d="M731,-307.37C731,-307.37 731,-238.78 731,-238.78"/>
<polygon fill="#4d4d4d" stroke="#4d4d4d" points="733.45,-238.78 731,-231.78 728.55,-238.78 733.45,-238.78"/>
</g>
<!-- C&#45;0348&#45;&gt;S&#45;1432 -->
<g id="edge37" class="edge">
<title>C&#45;0348&#45;&gt;S&#45;1432</title>
<path fill="none" stroke="#4d4d4d" d="M807.5,-305.03C807.5,-305.03 807.5,-234.74 807.5,-234.74"/>
<polygon fill="#4d4d4d" stroke="#4d4d4d" points="809.95,-234.74 807.5,-227.74 805.05,-234.74 809.95,-234.74"/>
</g>
<!-- C&#45;0348&#45;&gt;S&#45;1305 -->
<g id="edge36" class="edge">
<title>C&#45;0348&#45;&gt;S&#45;1305</title>
<path fill="none" stroke="#4d4d4d" d="M821,-307.65C821,-289.75 821,-264 821,-264 821,-264 1001,-264 1001,-264 1001,-264 1001,-238.7 1001,-238.7"/>
<polygon fill="#4d4d4d" stroke="#4d4d4d" points="1003.45,-238.7 1001,-231.7 998.55,-238.7 1003.45,-238.7"/>
</g>
<!-- C&#45;0067 -->
<g id="node54" class="node">
<title>C&#45;0067</title>
<ellipse fill="tomato" stroke="black" cx="1226" cy="-223.5" rx="72" ry="21.5"/>
<text text-anchor="middle" x="1226" y="-221" font-family="Arial" font-size="10.00">C&#45;0067</text>
</g>
<!-- C&#45;0348&#45;&gt;C&#45;0067 -->
<g id="edge39" class="edge">
<title>C&#45;0348&#45;&gt;C&#45;0067</title>
<path fill="none" stroke="#4d4d4d" d="M834.5,-311.82C834.5,-299.62 834.5,-283 834.5,-283 834.5,-283 1203.5,-283 1203.5,-283 1203.5,-283 1203.5,-250.98 1203.5,-250.98"/>
<polygon fill="#4d4d4d" stroke="#4d4d4d" points="1205.95,-250.98 1203.5,-243.98 1201.05,-250.98 1205.95,-250.98"/>
</g>
<!-- S&#45;488 -->
<g id="node40" class="node">
<title>S&#45;488</title>
<polygon fill="mediumseagreen" stroke="black" points="1110,-1053 1038,-1031.5 1110,-1010 1182,-1031.5 1110,-1053"/>
<text text-anchor="middle" x="1110" y="-1029" font-family="Arial" font-size="10.00">S&#45;488</text>
</g>
<!-- S&#45;488&#45;&gt;S&#45;1286 -->
<g id="edge17" class="edge">
<title>S&#45;488&#45;&gt;S&#45;1286</title>
<path fill="none" stroke="#4d4d4d" d="M1059,-1025.15C1059,-1002.93 1059,-930 1059,-930 1059,-930 943.5,-930 943.5,-930"/>
<polygon fill="#4d4d4d" stroke="#4d4d4d" points="943.5,-927.55 936.5,-930 943.5,-932.45 943.5,-927.55"/>
</g>
<!-- S&#45;488&#45;&gt;C&#45;1175 -->
<g id="edge15" class="edge">
<title>S&#45;488&#45;&gt;C&#45;1175</title>
<path fill="none" stroke="#4d4d4d" d="M1080,-1018.86C1080,-1018.86 1080,-855.68 1080,-855.68"/>
<polygon fill="#4d4d4d" stroke="#4d4d4d" points="1082.45,-855.68 1080,-848.68 1077.55,-855.68 1082.45,-855.68"/>
</g>
<!-- C&#45;1176 -->
<g id="node56" class="node">
<title>C&#45;1176</title>
<ellipse fill="mediumseagreen" stroke="black" cx="1173" cy="-930.5" rx="72" ry="21.5"/>
<text text-anchor="middle" x="1173" y="-928" font-family="Arial" font-size="10.00">C&#45;1176</text>
</g>
<!-- S&#45;488&#45;&gt;C&#45;1176 -->
<g id="edge14" class="edge">
<title>S&#45;488&#45;&gt;C&#45;1176</title>
<path fill="none" stroke="#4d4d4d" d="M1141.5,-1019.12C1141.5,-1019.12 1141.5,-956.91 1141.5,-956.91"/>
<polygon fill="#4d4d4d" stroke="#4d4d4d" points="1143.95,-956.91 1141.5,-949.91 1139.05,-956.91 1143.95,-956.91"/>
</g>
<!-- S&#45;2030 -->
<g id="node41" class="node">
<title>S&#45;2030</title>
<polygon fill="mediumseagreen" stroke="black" points="2192,-1255 2120,-1233.5 2192,-1212 2264,-1233.5 2192,-1255"/>
<text text-anchor="middle" x="2192" y="-1231" font-family="Arial" font-size="10.00">S&#45;2030</text>
</g>
<!-- S&#45;2030&#45;&gt;S&#45;587 -->
<g id="edge44" class="edge">
<title>S&#45;2030&#45;&gt;S&#45;587</title>
<path fill="none" stroke="#4d4d4d" d="M2192,-1211.58C2192,-1211.58 2192,-1161.03 2192,-1161.03"/>
<polygon fill="#4d4d4d" stroke="#4d4d4d" points="2194.45,-1161.03 2192,-1154.03 2189.55,-1161.03 2194.45,-1161.03"/>
</g>
<!-- S&#45;2292 -->
<g id="node57" class="node">
<title>S&#45;2292</title>
<polygon fill="mediumseagreen" stroke="black" points="2372,-1154 2300,-1132.5 2372,-1111 2444,-1132.5 2372,-1154"/>
<text text-anchor="middle" x="2372" y="-1130" font-family="Arial" font-size="10.00">S&#45;2292</text>
</g>
<!-- S&#45;2030&#45;&gt;S&#45;2292 -->
<g id="edge45" class="edge">
<title>S&#45;2030&#45;&gt;S&#45;2292</title>
<path fill="none" stroke="#4d4d4d" d="M2262.37,-1233C2312.85,-1233 2372,-1233 2372,-1233 2372,-1233 2372,-1161.31 2372,-1161.31"/>
<polygon fill="#4d4d4d" stroke="#4d4d4d" points="2374.45,-1161.31 2372,-1154.31 2369.55,-1161.31 2374.45,-1161.31"/>
</g>
<!-- R&#45;049&#45;&gt;S&#45;1177 -->
<g id="edge42" class="edge">
<title>R&#45;049&#45;&gt;S&#45;1177</title>
<path fill="none" stroke="#4d4d4d" d="M1037.58,-1139C932.46,-1139 750,-1139 750,-1139 750,-1139 750,-1060.25 750,-1060.25"/>
<polygon fill="#4d4d4d" stroke="#4d4d4d" points="752.45,-1060.25 750,-1053.25 747.55,-1060.25 752.45,-1060.25"/>
</g>
<!-- R&#45;049&#45;&gt;S&#45;511 -->
<g id="edge12" class="edge">
<title>R&#45;049&#45;&gt;S&#45;511</title>
<path fill="none" stroke="#4d4d4d" d="M1037.82,-1125C987.75,-1125 930,-1125 930,-1125 930,-1125 930,-1060.19 930,-1060.19"/>
<polygon fill="#4d4d4d" stroke="#4d4d4d" points="932.45,-1060.19 930,-1053.19 927.55,-1060.19 932.45,-1060.19"/>
</g>
<!-- R&#45;049&#45;&gt;S&#45;488 -->
<g id="edge13" class="edge">
<title>R&#45;049&#45;&gt;S&#45;488</title>
<path fill="none" stroke="#4d4d4d" d="M1110,-1110.58C1110,-1110.58 1110,-1060.03 1110,-1060.03"/>
<polygon fill="#4d4d4d" stroke="#4d4d4d" points="1112.45,-1060.03 1110,-1053.03 1107.55,-1060.03 1112.45,-1060.03"/>
</g>
<!-- S&#45;854 -->
<g id="node51" class="node">
<title>S&#45;854</title>
<polygon fill="mediumseagreen" stroke="black" points="1290,-1053 1218,-1031.5 1290,-1010 1362,-1031.5 1290,-1053"/>
<text text-anchor="middle" x="1290" y="-1029" font-family="Arial" font-size="10.00">S&#45;854</text>
</g>
<!-- R&#45;049&#45;&gt;S&#45;854 -->
<g id="edge41" class="edge">
<title>R&#45;049&#45;&gt;S&#45;854</title>
<path fill="none" stroke="#4d4d4d" d="M1182,-1125C1218,-1125 1254,-1125 1254,-1125 1254,-1125 1254,-1049.59 1254,-1049.59"/>
<polygon fill="#4d4d4d" stroke="#4d4d4d" points="1256.45,-1049.59 1254,-1042.59 1251.55,-1049.59 1256.45,-1049.59"/>
</g>
<!-- S&#45;516&#45;&gt;S&#45;1970 -->
<g id="edge9" class="edge">
<title>S&#45;516&#45;&gt;S&#45;1970</title>
<path fill="none" stroke="#4d4d4d" d="M1609.5,-1330.37C1609.5,-1319.87 1609.5,-1293 1609.5,-1293 1609.5,-1293 1263,-1293 1263,-1293 1263,-1293 1263,-1248.77 1263,-1248.77"/>
<polygon fill="#4d4d4d" stroke="#4d4d4d" points="1265.45,-1248.77 1263,-1241.77 1260.55,-1248.77 1265.45,-1248.77"/>
</g>
<!-- S&#45;516&#45;&gt;S&#45;1375 -->
<g id="edge8" class="edge">
<title>S&#45;516&#45;&gt;S&#45;1375</title>
<path fill="none" stroke="#4d4d4d" d="M1623,-1326.34C1623,-1309.83 1623,-1274 1623,-1274 1623,-1274 1443,-1274 1443,-1274 1443,-1274 1443,-1248.7 1443,-1248.7"/>
<polygon fill="#4d4d4d" stroke="#4d4d4d" points="1445.45,-1248.7 1443,-1241.7 1440.55,-1248.7 1445.45,-1248.7"/>
</g>
<!-- S&#45;516&#45;&gt;S&#45;515 -->
<g id="edge10" class="edge">
<title>S&#45;516&#45;&gt;S&#45;515</title>
<path fill="none" stroke="#4d4d4d" d="M1636.5,-1322.12C1636.5,-1322.12 1636.5,-1244.65 1636.5,-1244.65"/>
<polygon fill="#4d4d4d" stroke="#4d4d4d" points="1638.95,-1244.65 1636.5,-1237.65 1634.05,-1244.65 1638.95,-1244.65"/>
</g>
<!-- S&#45;516&#45;&gt;S&#45;596 -->
<g id="edge6" class="edge">
<title>S&#45;516&#45;&gt;S&#45;596</title>
<path fill="none" stroke="#4d4d4d" d="M1713,-1326.23C1713,-1326.23 1713,-1248.6 1713,-1248.6"/>
<polygon fill="#4d4d4d" stroke="#4d4d4d" points="1715.45,-1248.6 1713,-1241.6 1710.55,-1248.6 1715.45,-1248.6"/>
</g>
<!-- S&#45;516&#45;&gt;C&#45;0926 -->
<g id="edge47" class="edge">
<title>S&#45;516&#45;&gt;C&#45;0926</title>
<path fill="none" stroke="#4d4d4d" d="M1715.03,-1327C1792.39,-1327 1938,-1327 1938,-1327 1938,-1327 1938,-1262.19 1938,-1262.19"/>
<polygon fill="#4d4d4d" stroke="#4d4d4d" points="1940.45,-1262.19 1938,-1255.19 1935.55,-1262.19 1940.45,-1262.19"/>
</g>
<!-- S&#45;516&#45;&gt;S&#45;2030 -->
<g id="edge43" class="edge">
<title>S&#45;516&#45;&gt;S&#45;2030</title>
<path fill="none" stroke="#4d4d4d" d="M1718.24,-1341C1849.4,-1341 2192,-1341 2192,-1341 2192,-1341 2192,-1262.25 2192,-1262.25"/>
<polygon fill="#4d4d4d" stroke="#4d4d4d" points="2194.45,-1262.25 2192,-1255.25 2189.55,-1262.25 2194.45,-1262.25"/>
</g>
<!-- S&#45;910&#45;&gt;S&#45;513 -->
<g id="edge21" class="edge">
<title>S&#45;910&#45;&gt;S&#45;513</title>
<path fill="none" stroke="#4d4d4d" d="M821,-821.23C821,-821.23 821,-743.6 821,-743.6"/>
<polygon fill="#4d4d4d" stroke="#4d4d4d" points="823.45,-743.6 821,-736.6 818.55,-743.6 823.45,-743.6"/>
</g>
<!-- S&#45;1620 -->
<g id="node49" class="node">
<title>S&#45;1620</title>
<polygon fill="mediumseagreen" stroke="black" points="956,-750 884,-728.5 956,-707 1028,-728.5 956,-750"/>
<text text-anchor="middle" x="956" y="-726" font-family="Arial" font-size="10.00">S&#45;1620</text>
</g>
<!-- S&#45;910&#45;&gt;S&#45;1620 -->
<g id="edge20" class="edge">
<title>S&#45;910&#45;&gt;S&#45;1620</title>
<path fill="none" stroke="#4d4d4d" d="M911,-821.23C911,-821.23 911,-743.6 911,-743.6"/>
<polygon fill="#4d4d4d" stroke="#4d4d4d" points="913.45,-743.6 911,-736.6 908.55,-743.6 913.45,-743.6"/>
</g>
<!-- C&#45;0014 -->
<g id="node47" class="node">
<title>C&#45;0014</title>
<ellipse fill="mediumseagreen" stroke="black" cx="1488" cy="-1536.5" rx="72" ry="21.5"/>
<text text-anchor="middle" x="1488" y="-1534" font-family="Arial" font-size="10.00">C&#45;0014</text>
</g>
<!-- C&#45;0014&#45;&gt;C&#45;1328 -->
<g id="edge2" class="edge">
<title>C&#45;0014&#45;&gt;C&#45;1328</title>
<path fill="none" stroke="#4d4d4d" d="M1488,-1514.58C1488,-1514.58 1488,-1464.03 1488,-1464.03"/>
<polygon fill="#4d4d4d" stroke="#4d4d4d" points="1490.45,-1464.03 1488,-1457.03 1485.55,-1464.03 1490.45,-1464.03"/>
</g>
<!-- 206&#45;25&#45; -->
<g id="node52" class="node">
<title>206&#45;25&#45;</title>
<polygon fill="gold" stroke="black" points="1560,-1632.59 1560,-1650.41 1517.82,-1663 1458.18,-1663 1416,-1650.41 1416,-1632.59 1458.18,-1620 1517.82,-1620 1560,-1632.59"/>
<polygon fill="none" stroke="black" points="1564,-1629.61 1564,-1653.39 1518.41,-1667 1457.59,-1667 1412,-1653.39 1412,-1629.61 1457.59,-1616 1518.41,-1616 1564,-1629.61"/>
<text text-anchor="middle" x="1488" y="-1639" font-family="Arial" font-size="10.00">206&#45;25&#45;</text>
</g>
<!-- 206&#45;25&#45;&#45;&gt;C&#45;0014 -->
<g id="edge1" class="edge">
<title>206&#45;25&#45;&#45;&gt;C&#45;0014</title>
<path fill="none" stroke="#4d4d4d" d="M1488,-1615.81C1488,-1615.81 1488,-1565.03 1488,-1565.03"/>
<polygon fill="#4d4d4d" stroke="#4d4d4d" points="1490.45,-1565.03 1488,-1558.03 1485.55,-1565.03 1490.45,-1565.03"/>
</g>
<!-- ext_circ_206_23_ -->
<g id="node62" class="node">
<title>ext_circ_206_23_</title>
<polygon fill="lightpink" stroke="darkorange" stroke-dasharray="5,2" points="1298,-144 1154,-144 1154,-101 1298,-101 1298,-144"/>
<text text-anchor="middle" x="1226" y="-125.5" font-family="Arial" font-size="10.00">Circuito:</text>
<text text-anchor="middle" x="1226" y="-114.5" font-family="Arial" font-size="10.00">206&#45;23&#45;</text>
</g>
<!-- C&#45;0067&#45;&gt;ext_circ_206_23_ -->
<g id="edge65" class="edge">
<title>C&#45;0067&#45;&gt;ext_circ_206_23_</title>
<path fill="none" stroke="darkorange" stroke-dasharray="5,2" d="M1226,-201.58C1226,-201.58 1226,-151.03 1226,-151.03"/>
<polygon fill="darkorange" stroke="darkorange" points="1228.45,-151.03 1226,-144.03 1223.55,-151.03 1228.45,-151.03"/>
</g>
<!-- C&#45;1176&#45;&gt;R&#45;082 -->
<g id="edge16" class="edge">
<title>C&#45;1176&#45;&gt;R&#45;082</title>
<path fill="none" stroke="#4d4d4d" d="M1199.5,-910.06C1199.5,-910.06 1199.5,-858.31 1199.5,-858.31"/>
<polygon fill="#4d4d4d" stroke="#4d4d4d" points="1201.95,-858.31 1199.5,-851.31 1197.05,-858.31 1201.95,-858.31"/>
</g>
<!-- S&#45;2292&#45;&gt;S&#45;2031 -->
<g id="edge46" class="edge">
<title>S&#45;2292&#45;&gt;S&#45;2031</title>
<path fill="none" stroke="#4d4d4d" d="M2372,-1110.58C2372,-1110.58 2372,-1060.03 2372,-1060.03"/>
<polygon fill="#4d4d4d" stroke="#4d4d4d" points="2374.45,-1060.03 2372,-1053.03 2369.55,-1060.03 2374.45,-1060.03"/>
</g>
<!-- C&#45;0927&#45;&gt;C&#45;0926 -->
<g id="edge66" class="edge">
<title>C&#45;0927&#45;&gt;C&#45;0926</title>
<path fill="none" stroke="blue" stroke-dasharray="5,2" d="M2817,-951.16C2817,-1011.47 2817,-1183 2817,-1183 2817,-1183 1962,-1183 1962,-1183 1962,-1183 1962,-1205.96 1962,-1205.96"/>
<polygon fill="blue" stroke="blue" points="1959.55,-1205.96 1962,-1212.96 1964.45,-1205.96 1959.55,-1205.96"/>
</g>
<!-- C&#45;0059&#45;&gt;ext_circ_205_25_ -->
<g id="edge64" class="edge">
<title>C&#45;0059&#45;&gt;ext_circ_205_25_</title>
<path fill="none" stroke="darkorange" stroke-dasharray="5,2" d="M387,-105.37C387,-105.37 387,-50.31 387,-50.31"/>
<polygon fill="darkorange" stroke="darkorange" points="389.45,-50.31 387,-43.31 384.55,-50.31 389.45,-50.31"/>
</g>
</g>
</svg>
