<?xml version="1.0" encoding="UTF-8" standalone="no"?>
<!DOCTYPE svg PUBLIC "-//W3C//DTD SVG 1.1//EN"
 "http://www.w3.org/Graphics/SVG/1.1/DTD/svg11.dtd">
<!-- Generated by graphviz version 2.50.0 (0)
 -->
<!-- Title: Grafo_Circuito_110_26_ Pages: 1 -->
<svg width="1666pt" height="1372pt"
 viewBox="0.00 0.00 1666.00 1372.00" xmlns="http://www.w3.org/2000/svg" xmlns:xlink="http://www.w3.org/1999/xlink">
<g id="graph0" class="graph" transform="scale(1 1) rotate(0) translate(4 1368)">
<title>Grafo_Circuito_110_26_</title>
<polygon fill="white" stroke="transparent" points="-4,4 -4,-1368 1662,-1368 1662,4 -4,4"/>
<!-- C&#45;0880 -->
<g id="node1" class="node">
<title>C&#45;0880</title>
<ellipse fill="mediumseagreen" stroke="black" cx="1046" cy="-425.5" rx="72" ry="21.5"/>
<text text-anchor="middle" x="1046" y="-423" font-family="Arial" font-size="10.00">C&#45;0880</text>
</g>
<!-- C&#45;0449 -->
<g id="node7" class="node">
<title>C&#45;0449</title>
<ellipse fill="tomato" stroke="black" cx="1226" cy="-324.5" rx="72" ry="21.5"/>
<text text-anchor="middle" x="1226" y="-322" font-family="Arial" font-size="10.00">C&#45;0449</text>
</g>
<!-- C&#45;0880&#45;&gt;C&#45;0449 -->
<g id="edge16" class="edge">
<title>C&#45;0880&#45;&gt;C&#45;0449</title>
<path fill="none" stroke="#4d4d4d" d="M1113.65,-418C1173.03,-418 1250,-418 1250,-418 1250,-418 1250,-351.79 1250,-351.79"/>
<polygon fill="#4d4d4d" stroke="#4d4d4d" points="1252.45,-351.79 1250,-344.79 1247.55,-351.79 1252.45,-351.79"/>
</g>
<!-- S&#45;949 -->
<g id="node19" class="node">
<title>S&#45;949</title>
<polygon fill="mediumseagreen" stroke="black" points="866,-346 794,-324.5 866,-303 938,-324.5 866,-346"/>
<text text-anchor="middle" x="866" y="-322" font-family="Arial" font-size="10.00">S&#45;949</text>
</g>
<!-- C&#45;0880&#45;&gt;S&#45;949 -->
<g id="edge17" class="edge">
<title>C&#45;0880&#45;&gt;S&#45;949</title>
<path fill="none" stroke="#4d4d4d" d="M973.71,-425C933.1,-425 890.5,-425 890.5,-425 890.5,-425 890.5,-345.9 890.5,-345.9"/>
<polygon fill="#4d4d4d" stroke="#4d4d4d" points="892.95,-345.9 890.5,-338.9 888.05,-345.9 892.95,-345.9"/>
</g>
<!-- C&#45;0450 -->
<g id="node22" class="node">
<title>C&#45;0450</title>
<ellipse fill="mediumseagreen" stroke="black" cx="1046" cy="-324.5" rx="72" ry="21.5"/>
<text text-anchor="middle" x="1046" y="-322" font-family="Arial" font-size="10.00">C&#45;0450</text>
</g>
<!-- C&#45;0880&#45;&gt;C&#45;0450 -->
<g id="edge18" class="edge">
<title>C&#45;0880&#45;&gt;C&#45;0450</title>
<path fill="none" stroke="#4d4d4d" d="M1046,-403.58C1046,-403.58 1046,-353.03 1046,-353.03"/>
<polygon fill="#4d4d4d" stroke="#4d4d4d" points="1048.45,-353.03 1046,-346.03 1043.55,-353.03 1048.45,-353.03"/>
</g>
<!-- C&#45;0444 -->
<g id="node2" class="node">
<title>C&#45;0444</title>
<ellipse fill="tomato" stroke="black" cx="72" cy="-1132.5" rx="72" ry="21.5"/>
<text text-anchor="middle" x="72" y="-1130" font-family="Arial" font-size="10.00">C&#45;0444</text>
</g>
<!-- C&#45;0443 -->
<g id="node16" class="node">
<title>C&#45;0443</title>
<ellipse fill="mediumseagreen" stroke="black" cx="1069" cy="-930.5" rx="72" ry="21.5"/>
<text text-anchor="middle" x="1069" y="-928" font-family="Arial" font-size="10.00">C&#45;0443</text>
</g>
<!-- C&#45;0444&#45;&gt;C&#45;0443 -->
<g id="edge37" class="edge">
<title>C&#45;0444&#45;&gt;C&#45;0443</title>
<path fill="none" stroke="blue" stroke-dasharray="5,2" d="M63.5,-1111.12C63.5,-1069.35 63.5,-981 63.5,-981 63.5,-981 1030,-981 1030,-981 1030,-981 1030,-955.73 1030,-955.73"/>
<polygon fill="blue" stroke="blue" points="1032.45,-955.73 1030,-948.73 1027.55,-955.73 1032.45,-955.73"/>
</g>
<!-- S&#45;1631 -->
<g id="node3" class="node">
<title>S&#45;1631</title>
<polygon fill="mediumseagreen" stroke="black" points="1046,-750 974,-728.5 1046,-707 1118,-728.5 1046,-750"/>
<text text-anchor="middle" x="1046" y="-726" font-family="Arial" font-size="10.00">S&#45;1631</text>
</g>
<!-- C&#45;0485 -->
<g id="node4" class="node">
<title>C&#45;0485</title>
<ellipse fill="mediumseagreen" stroke="black" cx="1136" cy="-829.5" rx="72" ry="21.5"/>
<text text-anchor="middle" x="1136" y="-827" font-family="Arial" font-size="10.00">C&#45;0485</text>
</g>
<!-- C&#45;0485&#45;&gt;S&#45;1631 -->
<g id="edge8" class="edge">
<title>C&#45;0485&#45;&gt;S&#45;1631</title>
<path fill="none" stroke="#4d4d4d" d="M1091,-812.37C1091,-812.37 1091,-743.78 1091,-743.78"/>
<polygon fill="#4d4d4d" stroke="#4d4d4d" points="1093.45,-743.78 1091,-736.78 1088.55,-743.78 1093.45,-743.78"/>
</g>
<!-- C&#45;0431 -->
<g id="node11" class="node">
<title>C&#45;0431</title>
<ellipse fill="mediumseagreen" stroke="black" cx="1226" cy="-728.5" rx="72" ry="21.5"/>
<text text-anchor="middle" x="1226" y="-726" font-family="Arial" font-size="10.00">C&#45;0431</text>
</g>
<!-- C&#45;0485&#45;&gt;C&#45;0431 -->
<g id="edge11" class="edge">
<title>C&#45;0485&#45;&gt;C&#45;0431</title>
<path fill="none" stroke="#4d4d4d" d="M1181,-812.37C1181,-812.37 1181,-752.38 1181,-752.38"/>
<polygon fill="#4d4d4d" stroke="#4d4d4d" points="1183.45,-752.38 1181,-745.38 1178.55,-752.38 1183.45,-752.38"/>
</g>
<!-- S&#45;167 -->
<g id="node17" class="node">
<title>S&#45;167</title>
<polygon fill="mediumseagreen" stroke="black" points="1406,-750 1334,-728.5 1406,-707 1478,-728.5 1406,-750"/>
<text text-anchor="middle" x="1406" y="-726" font-family="Arial" font-size="10.00">S&#45;167</text>
</g>
<!-- C&#45;0485&#45;&gt;S&#45;167 -->
<g id="edge10" class="edge">
<title>C&#45;0485&#45;&gt;S&#45;167</title>
<path fill="none" stroke="#4d4d4d" d="M1203.78,-822C1283.76,-822 1406,-822 1406,-822 1406,-822 1406,-757.19 1406,-757.19"/>
<polygon fill="#4d4d4d" stroke="#4d4d4d" points="1408.45,-757.19 1406,-750.19 1403.55,-757.19 1408.45,-757.19"/>
</g>
<!-- S&#45;2429 -->
<g id="node21" class="node">
<title>S&#45;2429</title>
<polygon fill="mediumseagreen" stroke="black" points="1586,-750 1514,-728.5 1586,-707 1658,-728.5 1586,-750"/>
<text text-anchor="middle" x="1586" y="-726" font-family="Arial" font-size="10.00">S&#45;2429</text>
</g>
<!-- C&#45;0485&#45;&gt;S&#45;2429 -->
<g id="edge9" class="edge">
<title>C&#45;0485&#45;&gt;S&#45;2429</title>
<path fill="none" stroke="#4d4d4d" d="M1204.84,-836C1330.89,-836 1586,-836 1586,-836 1586,-836 1586,-757.25 1586,-757.25"/>
<polygon fill="#4d4d4d" stroke="#4d4d4d" points="1588.45,-757.25 1586,-750.25 1583.55,-757.25 1588.45,-757.25"/>
</g>
<!-- S&#45;1064 -->
<g id="node25" class="node">
<title>S&#45;1064</title>
<polygon fill="mediumseagreen" stroke="black" points="866,-750 794,-728.5 866,-707 938,-728.5 866,-750"/>
<text text-anchor="middle" x="866" y="-726" font-family="Arial" font-size="10.00">S&#45;1064</text>
</g>
<!-- C&#45;0485&#45;&gt;S&#45;1064 -->
<g id="edge7" class="edge">
<title>C&#45;0485&#45;&gt;S&#45;1064</title>
<path fill="none" stroke="#4d4d4d" d="M1063.88,-829C998.07,-829 911,-829 911,-829 911,-829 911,-743.72 911,-743.72"/>
<polygon fill="#4d4d4d" stroke="#4d4d4d" points="913.45,-743.72 911,-736.72 908.55,-743.72 913.45,-743.72"/>
</g>
<!-- C&#45;0430 -->
<g id="node5" class="node">
<title>C&#45;0430</title>
<ellipse fill="mediumseagreen" stroke="black" cx="686" cy="-728.5" rx="72" ry="21.5"/>
<text text-anchor="middle" x="686" y="-726" font-family="Arial" font-size="10.00">C&#45;0430</text>
</g>
<!-- C&#45;0152 -->
<g id="node13" class="node">
<title>C&#45;0152</title>
<ellipse fill="mediumseagreen" stroke="black" cx="729" cy="-627.5" rx="72" ry="21.5"/>
<text text-anchor="middle" x="729" y="-625" font-family="Arial" font-size="10.00">C&#45;0152</text>
</g>
<!-- C&#45;0430&#45;&gt;C&#45;0152 -->
<g id="edge32" class="edge">
<title>C&#45;0430&#45;&gt;C&#45;0152</title>
<path fill="none" stroke="#4d4d4d" d="M707.5,-707.57C707.5,-707.57 707.5,-655.05 707.5,-655.05"/>
<polygon fill="#4d4d4d" stroke="#4d4d4d" points="709.95,-655.05 707.5,-648.05 705.05,-655.05 709.95,-655.05"/>
</g>
<!-- S&#45;2320 -->
<g id="node30" class="node">
<title>S&#45;2320</title>
<polygon fill="mediumseagreen" stroke="black" points="549,-649 477,-627.5 549,-606 621,-627.5 549,-649"/>
<text text-anchor="middle" x="549" y="-625" font-family="Arial" font-size="10.00">S&#45;2320</text>
</g>
<!-- C&#45;0430&#45;&gt;S&#45;2320 -->
<g id="edge31" class="edge">
<title>C&#45;0430&#45;&gt;S&#45;2320</title>
<path fill="none" stroke="#4d4d4d" d="M617.5,-721.87C617.5,-721.87 617.5,-635.76 617.5,-635.76"/>
<polygon fill="#4d4d4d" stroke="#4d4d4d" points="619.95,-635.76 617.5,-628.76 615.05,-635.76 619.95,-635.76"/>
</g>
<!-- 110&#45;26&#45; -->
<g id="node6" class="node">
<title>110&#45;26&#45;</title>
<polygon fill="gold" stroke="black" points="488,-1329.59 488,-1347.41 445.82,-1360 386.18,-1360 344,-1347.41 344,-1329.59 386.18,-1317 445.82,-1317 488,-1329.59"/>
<polygon fill="none" stroke="black" points="492,-1326.61 492,-1350.39 446.41,-1364 385.59,-1364 340,-1350.39 340,-1326.61 385.59,-1313 446.41,-1313 492,-1326.61"/>
<text text-anchor="middle" x="416" y="-1336" font-family="Arial" font-size="10.00">110&#45;26&#45;</text>
</g>
<!-- C&#45;0090 -->
<g id="node20" class="node">
<title>C&#45;0090</title>
<ellipse fill="mediumseagreen" stroke="black" cx="416" cy="-1233.5" rx="72" ry="21.5"/>
<text text-anchor="middle" x="416" y="-1231" font-family="Arial" font-size="10.00">C&#45;0090</text>
</g>
<!-- 110&#45;26&#45;&#45;&gt;C&#45;0090 -->
<g id="edge1" class="edge">
<title>110&#45;26&#45;&#45;&gt;C&#45;0090</title>
<path fill="none" stroke="#4d4d4d" d="M416,-1312.81C416,-1312.81 416,-1262.03 416,-1262.03"/>
<polygon fill="#4d4d4d" stroke="#4d4d4d" points="418.45,-1262.03 416,-1255.03 413.55,-1262.03 418.45,-1262.03"/>
</g>
<!-- ext_circ_111_23_ -->
<g id="node38" class="node">
<title>ext_circ_111_23_</title>
<polygon fill="lightpink" stroke="darkorange" stroke-dasharray="5,2" points="1298,-245 1154,-245 1154,-202 1298,-202 1298,-245"/>
<text text-anchor="middle" x="1226" y="-226.5" font-family="Arial" font-size="10.00">Circuito:</text>
<text text-anchor="middle" x="1226" y="-215.5" font-family="Arial" font-size="10.00">111&#45;23&#45;</text>
</g>
<!-- C&#45;0449&#45;&gt;ext_circ_111_23_ -->
<g id="edge39" class="edge">
<title>C&#45;0449&#45;&gt;ext_circ_111_23_</title>
<path fill="none" stroke="darkorange" stroke-dasharray="5,2" d="M1226,-302.58C1226,-302.58 1226,-252.03 1226,-252.03"/>
<polygon fill="darkorange" stroke="darkorange" points="1228.45,-252.03 1226,-245.03 1223.55,-252.03 1228.45,-252.03"/>
</g>
<!-- C&#45;0879 -->
<g id="node8" class="node">
<title>C&#45;0879</title>
<ellipse fill="tomato" stroke="black" cx="1226" cy="-627.5" rx="72" ry="21.5"/>
<text text-anchor="middle" x="1226" y="-625" font-family="Arial" font-size="10.00">C&#45;0879</text>
</g>
<!-- C&#45;0879&#45;&gt;C&#45;0880 -->
<g id="edge38" class="edge">
<title>C&#45;0879&#45;&gt;C&#45;0880</title>
<path fill="none" stroke="blue" stroke-dasharray="5,2" d="M1202,-606.95C1202,-556.75 1202,-432 1202,-432 1202,-432 1121.88,-432 1121.88,-432"/>
<polygon fill="blue" stroke="blue" points="1121.88,-429.55 1114.88,-432 1121.88,-434.45 1121.88,-429.55"/>
</g>
<!-- C&#45;1219 -->
<g id="node9" class="node">
<title>C&#45;1219</title>
<ellipse fill="mediumseagreen" stroke="black" cx="605" cy="-526.5" rx="72" ry="21.5"/>
<text text-anchor="middle" x="605" y="-524" font-family="Arial" font-size="10.00">C&#45;1219</text>
</g>
<!-- R&#45;301 -->
<g id="node18" class="node">
<title>R&#45;301</title>
<polygon fill="tomato" stroke="black" points="663,-416.59 663,-434.41 620.82,-447 561.18,-447 519,-434.41 519,-416.59 561.18,-404 620.82,-404 663,-416.59"/>
<text text-anchor="middle" x="591" y="-423" font-family="Arial" font-size="10.00">R&#45;301</text>
</g>
<!-- C&#45;1219&#45;&gt;R&#45;301 -->
<g id="edge34" class="edge">
<title>C&#45;1219&#45;&gt;R&#45;301</title>
<path fill="none" stroke="#4d4d4d" d="M598,-505.08C598,-505.08 598,-454.24 598,-454.24"/>
<polygon fill="#4d4d4d" stroke="#4d4d4d" points="600.45,-454.24 598,-447.24 595.55,-454.24 600.45,-454.24"/>
</g>
<!-- C&#45;0097 -->
<g id="node10" class="node">
<title>C&#45;0097</title>
<ellipse fill="tomato" stroke="black" cx="506" cy="-728.5" rx="72" ry="21.5"/>
<text text-anchor="middle" x="506" y="-726" font-family="Arial" font-size="10.00">C&#45;0097</text>
</g>
<!-- ext_circ_110_23_ -->
<g id="node40" class="node">
<title>ext_circ_110_23_</title>
<polygon fill="lightpink" stroke="darkorange" stroke-dasharray="5,2" points="425,-649 281,-649 281,-606 425,-606 425,-649"/>
<text text-anchor="middle" x="353" y="-630.5" font-family="Arial" font-size="10.00">Circuito:</text>
<text text-anchor="middle" x="353" y="-619.5" font-family="Arial" font-size="10.00">110&#45;23&#45;</text>
</g>
<!-- C&#45;0097&#45;&gt;ext_circ_110_23_ -->
<g id="edge44" class="edge">
<title>C&#45;0097&#45;&gt;ext_circ_110_23_</title>
<path fill="none" stroke="darkorange" stroke-dasharray="5,2" d="M433.78,-728C423.32,-728 416,-728 416,-728 416,-728 416,-656.31 416,-656.31"/>
<polygon fill="darkorange" stroke="darkorange" points="418.45,-656.31 416,-649.31 413.55,-656.31 418.45,-656.31"/>
</g>
<!-- C&#45;0431&#45;&gt;C&#45;0879 -->
<g id="edge13" class="edge">
<title>C&#45;0431&#45;&gt;C&#45;0879</title>
<path fill="none" stroke="#4d4d4d" d="M1226,-706.58C1226,-706.58 1226,-656.03 1226,-656.03"/>
<polygon fill="#4d4d4d" stroke="#4d4d4d" points="1228.45,-656.03 1226,-649.03 1223.55,-656.03 1228.45,-656.03"/>
</g>
<!-- C&#45;0878 -->
<g id="node36" class="node">
<title>C&#45;0878</title>
<ellipse fill="mediumseagreen" stroke="black" cx="1046" cy="-627.5" rx="72" ry="21.5"/>
<text text-anchor="middle" x="1046" y="-625" font-family="Arial" font-size="10.00">C&#45;0878</text>
</g>
<!-- C&#45;0431&#45;&gt;C&#45;0878 -->
<g id="edge12" class="edge">
<title>C&#45;0431&#45;&gt;C&#45;0878</title>
<path fill="none" stroke="#4d4d4d" d="M1153.85,-728C1147.26,-728 1143,-728 1143,-728 1143,-728 1143,-627 1143,-627 1143,-627 1125.02,-627 1125.02,-627"/>
<polygon fill="#4d4d4d" stroke="#4d4d4d" points="1125.02,-624.55 1118.02,-627 1125.02,-629.45 1125.02,-624.55"/>
</g>
<!-- R&#45;178 -->
<g id="node12" class="node">
<title>R&#45;178</title>
<polygon fill="tomato" stroke="black" points="1132,-113.59 1132,-131.41 1089.82,-144 1030.18,-144 988,-131.41 988,-113.59 1030.18,-101 1089.82,-101 1132,-113.59"/>
<text text-anchor="middle" x="1060" y="-120" font-family="Arial" font-size="10.00">R&#45;178</text>
</g>
<!-- ext_circ_111_22_ -->
<g id="node39" class="node">
<title>ext_circ_111_22_</title>
<polygon fill="lightpink" stroke="darkorange" stroke-dasharray="5,2" points="1042,-43 898,-43 898,0 1042,0 1042,-43"/>
<text text-anchor="middle" x="970" y="-24.5" font-family="Arial" font-size="10.00">Circuito:</text>
<text text-anchor="middle" x="970" y="-13.5" font-family="Arial" font-size="10.00">111&#45;22&#45;</text>
</g>
<!-- R&#45;178&#45;&gt;ext_circ_111_22_ -->
<g id="edge40" class="edge">
<title>R&#45;178&#45;&gt;ext_circ_111_22_</title>
<path fill="none" stroke="darkorange" stroke-dasharray="5,2" d="M1015,-105.37C1015,-105.37 1015,-50.31 1015,-50.31"/>
<polygon fill="darkorange" stroke="darkorange" points="1017.45,-50.31 1015,-43.31 1012.55,-50.31 1017.45,-50.31"/>
</g>
<!-- C&#45;0152&#45;&gt;C&#45;1219 -->
<g id="edge33" class="edge">
<title>C&#45;0152&#45;&gt;C&#45;1219</title>
<path fill="none" stroke="#4d4d4d" d="M667,-616.31C667,-616.31 667,-544.44 667,-544.44"/>
<polygon fill="#4d4d4d" stroke="#4d4d4d" points="669.45,-544.44 667,-537.44 664.55,-544.44 669.45,-544.44"/>
</g>
<!-- C&#45;1220 -->
<g id="node24" class="node">
<title>C&#45;1220</title>
<ellipse fill="tomato" stroke="black" cx="771" cy="-425.5" rx="72" ry="21.5"/>
<text text-anchor="middle" x="771" y="-423" font-family="Arial" font-size="10.00">C&#45;1220</text>
</g>
<!-- C&#45;0152&#45;&gt;C&#45;1220 -->
<g id="edge35" class="edge">
<title>C&#45;0152&#45;&gt;C&#45;1220</title>
<path fill="none" stroke="#4d4d4d" d="M750,-606.64C750,-606.64 750,-453.24 750,-453.24"/>
<polygon fill="#4d4d4d" stroke="#4d4d4d" points="752.45,-453.24 750,-446.24 747.55,-453.24 752.45,-453.24"/>
</g>
<!-- S&#45;2185 -->
<g id="node14" class="node">
<title>S&#45;2185</title>
<polygon fill="mediumseagreen" stroke="black" points="326,-750 254,-728.5 326,-707 398,-728.5 326,-750"/>
<text text-anchor="middle" x="326" y="-726" font-family="Arial" font-size="10.00">S&#45;2185</text>
</g>
<!-- C&#45;0907 -->
<g id="node15" class="node">
<title>C&#45;0907</title>
<ellipse fill="mediumseagreen" stroke="black" cx="595" cy="-930.5" rx="72" ry="21.5"/>
<text text-anchor="middle" x="595" y="-928" font-family="Arial" font-size="10.00">C&#45;0907</text>
</g>
<!-- C&#45;0339 -->
<g id="node31" class="node">
<title>C&#45;0339</title>
<ellipse fill="mediumseagreen" stroke="black" cx="588" cy="-829.5" rx="72" ry="21.5"/>
<text text-anchor="middle" x="588" y="-827" font-family="Arial" font-size="10.00">C&#45;0339</text>
</g>
<!-- C&#45;0907&#45;&gt;C&#45;0339 -->
<g id="edge28" class="edge">
<title>C&#45;0907&#45;&gt;C&#45;0339</title>
<path fill="none" stroke="#4d4d4d" d="M591.5,-908.58C591.5,-908.58 591.5,-858.03 591.5,-858.03"/>
<polygon fill="#4d4d4d" stroke="#4d4d4d" points="593.95,-858.03 591.5,-851.03 589.05,-858.03 593.95,-858.03"/>
</g>
<!-- C&#45;0443&#45;&gt;C&#45;0485 -->
<g id="edge6" class="edge">
<title>C&#45;0443&#45;&gt;C&#45;0485</title>
<path fill="none" stroke="#4d4d4d" d="M1102.5,-911.03C1102.5,-911.03 1102.5,-855.57 1102.5,-855.57"/>
<polygon fill="#4d4d4d" stroke="#4d4d4d" points="1104.95,-855.57 1102.5,-848.57 1100.05,-855.57 1104.95,-855.57"/>
</g>
<!-- ext_circ_109_28_ -->
<g id="node41" class="node">
<title>ext_circ_109_28_</title>
<polygon fill="lightpink" stroke="darkorange" stroke-dasharray="5,2" points="726,-346 582,-346 582,-303 726,-303 726,-346"/>
<text text-anchor="middle" x="654" y="-327.5" font-family="Arial" font-size="10.00">Circuito:</text>
<text text-anchor="middle" x="654" y="-316.5" font-family="Arial" font-size="10.00">109&#45;28&#45;</text>
</g>
<!-- R&#45;301&#45;&gt;ext_circ_109_28_ -->
<g id="edge45" class="edge">
<title>R&#45;301&#45;&gt;ext_circ_109_28_</title>
<path fill="none" stroke="darkorange" stroke-dasharray="5,2" d="M622.5,-404.08C622.5,-404.08 622.5,-353.24 622.5,-353.24"/>
<polygon fill="darkorange" stroke="darkorange" points="624.95,-353.24 622.5,-346.24 620.05,-353.24 624.95,-353.24"/>
</g>
<!-- C&#45;0090&#45;&gt;C&#45;0444 -->
<g id="edge3" class="edge">
<title>C&#45;0090&#45;&gt;C&#45;0444</title>
<path fill="none" stroke="#4d4d4d" d="M343.89,-1233C243.01,-1233 72,-1233 72,-1233 72,-1233 72,-1161.31 72,-1161.31"/>
<polygon fill="#4d4d4d" stroke="#4d4d4d" points="74.45,-1161.31 72,-1154.31 69.55,-1161.31 74.45,-1161.31"/>
</g>
<!-- C&#45;0905 -->
<g id="node23" class="node">
<title>C&#45;0905</title>
<ellipse fill="mediumseagreen" stroke="black" cx="686" cy="-1132.5" rx="72" ry="21.5"/>
<text text-anchor="middle" x="686" y="-1130" font-family="Arial" font-size="10.00">C&#45;0905</text>
</g>
<!-- C&#45;0090&#45;&gt;C&#45;0905 -->
<g id="edge25" class="edge">
<title>C&#45;0090&#45;&gt;C&#45;0905</title>
<path fill="none" stroke="#4d4d4d" d="M483.78,-1226C563.76,-1226 686,-1226 686,-1226 686,-1226 686,-1161.19 686,-1161.19"/>
<polygon fill="#4d4d4d" stroke="#4d4d4d" points="688.45,-1161.19 686,-1154.19 683.55,-1161.19 688.45,-1161.19"/>
</g>
<!-- C&#45;0906 -->
<g id="node26" class="node">
<title>C&#45;0906</title>
<ellipse fill="tomato" stroke="black" cx="326" cy="-1132.5" rx="72" ry="21.5"/>
<text text-anchor="middle" x="326" y="-1130" font-family="Arial" font-size="10.00">C&#45;0906</text>
</g>
<!-- C&#45;0090&#45;&gt;C&#45;0906 -->
<g id="edge24" class="edge">
<title>C&#45;0090&#45;&gt;C&#45;0906</title>
<path fill="none" stroke="#4d4d4d" d="M371,-1216.37C371,-1216.37 371,-1156.38 371,-1156.38"/>
<polygon fill="#4d4d4d" stroke="#4d4d4d" points="373.45,-1156.38 371,-1149.38 368.55,-1156.38 373.45,-1156.38"/>
</g>
<!-- S&#45;151 -->
<g id="node32" class="node">
<title>S&#45;151</title>
<polygon fill="mediumseagreen" stroke="black" points="506,-1154 434,-1132.5 506,-1111 578,-1132.5 506,-1154"/>
<text text-anchor="middle" x="506" y="-1130" font-family="Arial" font-size="10.00">S&#45;151</text>
</g>
<!-- C&#45;0090&#45;&gt;S&#45;151 -->
<g id="edge23" class="edge">
<title>C&#45;0090&#45;&gt;S&#45;151</title>
<path fill="none" stroke="#4d4d4d" d="M461,-1216.37C461,-1216.37 461,-1147.78 461,-1147.78"/>
<polygon fill="#4d4d4d" stroke="#4d4d4d" points="463.45,-1147.78 461,-1140.78 458.55,-1147.78 463.45,-1147.78"/>
</g>
<!-- S&#45;152 -->
<g id="node33" class="node">
<title>S&#45;152</title>
<polygon fill="tomato" stroke="black" points="199,-1053 127,-1031.5 199,-1010 271,-1031.5 199,-1053"/>
<text text-anchor="middle" x="199" y="-1029" font-family="Arial" font-size="10.00">S&#45;152</text>
</g>
<!-- C&#45;0090&#45;&gt;S&#45;152 -->
<g id="edge22" class="edge">
<title>C&#45;0090&#45;&gt;S&#45;152</title>
<path fill="none" stroke="#4d4d4d" d="M407,-1211.83C407,-1159.59 407,-1031 407,-1031 407,-1031 276.42,-1031 276.42,-1031"/>
<polygon fill="#4d4d4d" stroke="#4d4d4d" points="276.42,-1028.55 269.42,-1031 276.42,-1033.45 276.42,-1028.55"/>
</g>
<!-- C&#45;0445 -->
<g id="node35" class="node">
<title>C&#45;0445</title>
<ellipse fill="mediumseagreen" stroke="black" cx="956" cy="-1132.5" rx="72" ry="21.5"/>
<text text-anchor="middle" x="956" y="-1130" font-family="Arial" font-size="10.00">C&#45;0445</text>
</g>
<!-- C&#45;0090&#45;&gt;C&#45;0445 -->
<g id="edge2" class="edge">
<title>C&#45;0090&#45;&gt;C&#45;0445</title>
<path fill="none" stroke="#4d4d4d" d="M484.67,-1240C630.11,-1240 956,-1240 956,-1240 956,-1240 956,-1161.25 956,-1161.25"/>
<polygon fill="#4d4d4d" stroke="#4d4d4d" points="958.45,-1161.25 956,-1154.25 953.55,-1161.25 958.45,-1161.25"/>
</g>
<!-- C&#45;0801 -->
<g id="node34" class="node">
<title>C&#45;0801</title>
<ellipse fill="tomato" stroke="black" cx="880" cy="-122.5" rx="72" ry="21.5"/>
<text text-anchor="middle" x="880" y="-120" font-family="Arial" font-size="10.00">C&#45;0801</text>
</g>
<!-- C&#45;0450&#45;&gt;C&#45;0801 -->
<g id="edge21" class="edge">
<title>C&#45;0450&#45;&gt;C&#45;0801</title>
<path fill="none" stroke="#4d4d4d" d="M973.94,-324C957.62,-324 945,-324 945,-324 945,-324 945,-138.95 945,-138.95"/>
<polygon fill="#4d4d4d" stroke="#4d4d4d" points="947.45,-138.95 945,-131.95 942.55,-138.95 947.45,-138.95"/>
</g>
<!-- C&#45;0799 -->
<g id="node37" class="node">
<title>C&#45;0799</title>
<ellipse fill="mediumseagreen" stroke="black" cx="1046" cy="-223.5" rx="72" ry="21.5"/>
<text text-anchor="middle" x="1046" y="-221" font-family="Arial" font-size="10.00">C&#45;0799</text>
</g>
<!-- C&#45;0450&#45;&gt;C&#45;0799 -->
<g id="edge19" class="edge">
<title>C&#45;0450&#45;&gt;C&#45;0799</title>
<path fill="none" stroke="#4d4d4d" d="M1046,-302.58C1046,-302.58 1046,-252.03 1046,-252.03"/>
<polygon fill="#4d4d4d" stroke="#4d4d4d" points="1048.45,-252.03 1046,-245.03 1043.55,-252.03 1048.45,-252.03"/>
</g>
<!-- R&#45;211 -->
<g id="node29" class="node">
<title>R&#45;211</title>
<polygon fill="mediumseagreen" stroke="black" points="745,-1022.59 745,-1040.41 702.82,-1053 643.18,-1053 601,-1040.41 601,-1022.59 643.18,-1010 702.82,-1010 745,-1022.59"/>
<text text-anchor="middle" x="673" y="-1029" font-family="Arial" font-size="10.00">R&#45;211</text>
</g>
<!-- C&#45;0905&#45;&gt;R&#45;211 -->
<g id="edge26" class="edge">
<title>C&#45;0905&#45;&gt;R&#45;211</title>
<path fill="none" stroke="#4d4d4d" d="M679.5,-1111.08C679.5,-1111.08 679.5,-1060.24 679.5,-1060.24"/>
<polygon fill="#4d4d4d" stroke="#4d4d4d" points="681.95,-1060.24 679.5,-1053.24 677.05,-1060.24 681.95,-1060.24"/>
</g>
<!-- C&#45;1220&#45;&gt;ext_circ_109_28_ -->
<g id="edge46" class="edge">
<title>C&#45;1220&#45;&gt;ext_circ_109_28_</title>
<path fill="none" stroke="darkorange" stroke-dasharray="5,2" d="M712.5,-412.71C712.5,-412.71 712.5,-353.01 712.5,-353.01"/>
<polygon fill="darkorange" stroke="darkorange" points="714.95,-353.01 712.5,-346.01 710.05,-353.01 714.95,-353.01"/>
</g>
<!-- C&#45;0906&#45;&gt;C&#45;0907 -->
<g id="edge43" class="edge">
<title>C&#45;0906&#45;&gt;C&#45;0907</title>
<path fill="none" stroke="blue" stroke-dasharray="5,2" d="M313.33,-1111.21C313.33,-1059.22 313.33,-930 313.33,-930 313.33,-930 515.83,-930 515.83,-930"/>
<polygon fill="blue" stroke="blue" points="515.83,-932.45 522.83,-930 515.83,-927.55 515.83,-932.45"/>
</g>
<!-- R&#45;203 -->
<g id="node27" class="node">
<title>R&#45;203</title>
<polygon fill="mediumseagreen" stroke="black" points="1118,-517.59 1118,-535.41 1075.82,-548 1016.18,-548 974,-535.41 974,-517.59 1016.18,-505 1075.82,-505 1118,-517.59"/>
<text text-anchor="middle" x="1046" y="-524" font-family="Arial" font-size="10.00">R&#45;203</text>
</g>
<!-- R&#45;203&#45;&gt;C&#45;0880 -->
<g id="edge15" class="edge">
<title>R&#45;203&#45;&gt;C&#45;0880</title>
<path fill="none" stroke="#4d4d4d" d="M1046,-504.58C1046,-504.58 1046,-454.03 1046,-454.03"/>
<polygon fill="#4d4d4d" stroke="#4d4d4d" points="1048.45,-454.03 1046,-447.03 1043.55,-454.03 1048.45,-454.03"/>
</g>
<!-- R&#45;063 -->
<g id="node28" class="node">
<title>R&#45;063</title>
<polygon fill="mediumseagreen" stroke="black" points="1096,-1022.59 1096,-1040.41 1053.82,-1053 994.18,-1053 952,-1040.41 952,-1022.59 994.18,-1010 1053.82,-1010 1096,-1022.59"/>
<text text-anchor="middle" x="1024" y="-1029" font-family="Arial" font-size="10.00">R&#45;063</text>
</g>
<!-- R&#45;063&#45;&gt;C&#45;0443 -->
<g id="edge5" class="edge">
<title>R&#45;063&#45;&gt;C&#45;0443</title>
<path fill="none" stroke="#4d4d4d" d="M1063,-1012.5C1063,-1012.5 1063,-959.22 1063,-959.22"/>
<polygon fill="#4d4d4d" stroke="#4d4d4d" points="1065.45,-959.22 1063,-952.22 1060.55,-959.22 1065.45,-959.22"/>
</g>
<!-- R&#45;211&#45;&gt;C&#45;0907 -->
<g id="edge27" class="edge">
<title>R&#45;211&#45;&gt;C&#45;0907</title>
<path fill="none" stroke="#4d4d4d" d="M634,-1012.5C634,-1012.5 634,-955.73 634,-955.73"/>
<polygon fill="#4d4d4d" stroke="#4d4d4d" points="636.45,-955.73 634,-948.73 631.55,-955.73 636.45,-955.73"/>
</g>
<!-- C&#45;0339&#45;&gt;C&#45;0430 -->
<g id="edge30" class="edge">
<title>C&#45;0339&#45;&gt;C&#45;0430</title>
<path fill="none" stroke="#4d4d4d" d="M637,-813.72C637,-813.72 637,-751.5 637,-751.5"/>
<polygon fill="#4d4d4d" stroke="#4d4d4d" points="639.45,-751.5 637,-744.5 634.55,-751.5 639.45,-751.5"/>
</g>
<!-- C&#45;0339&#45;&gt;C&#45;0097 -->
<g id="edge29" class="edge">
<title>C&#45;0339&#45;&gt;C&#45;0097</title>
<path fill="none" stroke="#4d4d4d" d="M547,-811.44C547,-811.44 547,-753.4 547,-753.4"/>
<polygon fill="#4d4d4d" stroke="#4d4d4d" points="549.45,-753.4 547,-746.4 544.55,-753.4 549.45,-753.4"/>
</g>
<!-- C&#45;0339&#45;&gt;S&#45;2185 -->
<g id="edge36" class="edge">
<title>C&#45;0339&#45;&gt;S&#45;2185</title>
<path fill="none" stroke="#4d4d4d" d="M515.76,-829C447.56,-829 355.67,-829 355.67,-829 355.67,-829 355.67,-748.23 355.67,-748.23"/>
<polygon fill="#4d4d4d" stroke="#4d4d4d" points="358.12,-748.23 355.67,-741.23 353.22,-748.23 358.12,-748.23"/>
</g>
<!-- S&#45;152&#45;&gt;ext_circ_110_23_ -->
<g id="edge42" class="edge">
<title>S&#45;152&#45;&gt;ext_circ_110_23_</title>
<path fill="none" stroke="darkorange" stroke-dasharray="5,2" d="M190.5,-1012.53C190.5,-932.56 190.5,-627 190.5,-627 190.5,-627 273.78,-627 273.78,-627"/>
<polygon fill="darkorange" stroke="darkorange" points="273.78,-629.45 280.78,-627 273.78,-624.55 273.78,-629.45"/>
</g>
<!-- C&#45;0801&#45;&gt;ext_circ_111_22_ -->
<g id="edge41" class="edge">
<title>C&#45;0801&#45;&gt;ext_circ_111_22_</title>
<path fill="none" stroke="darkorange" stroke-dasharray="5,2" d="M925,-105.37C925,-105.37 925,-50.31 925,-50.31"/>
<polygon fill="darkorange" stroke="darkorange" points="927.45,-50.31 925,-43.31 922.55,-50.31 927.45,-50.31"/>
</g>
<!-- C&#45;0445&#45;&gt;R&#45;063 -->
<g id="edge4" class="edge">
<title>C&#45;0445&#45;&gt;R&#45;063</title>
<path fill="none" stroke="#4d4d4d" d="M990,-1113.5C990,-1113.5 990,-1058.8 990,-1058.8"/>
<polygon fill="#4d4d4d" stroke="#4d4d4d" points="992.45,-1058.8 990,-1051.8 987.55,-1058.8 992.45,-1058.8"/>
</g>
<!-- C&#45;0878&#45;&gt;R&#45;203 -->
<g id="edge14" class="edge">
<title>C&#45;0878&#45;&gt;R&#45;203</title>
<path fill="none" stroke="#4d4d4d" d="M1046,-605.58C1046,-605.58 1046,-555.03 1046,-555.03"/>
<polygon fill="#4d4d4d" stroke="#4d4d4d" points="1048.45,-555.03 1046,-548.03 1043.55,-555.03 1048.45,-555.03"/>
</g>
<!-- C&#45;0799&#45;&gt;R&#45;178 -->
<g id="edge20" class="edge">
<title>C&#45;0799&#45;&gt;R&#45;178</title>
<path fill="none" stroke="#4d4d4d" d="M1053,-202.08C1053,-202.08 1053,-151.24 1053,-151.24"/>
<polygon fill="#4d4d4d" stroke="#4d4d4d" points="1055.45,-151.24 1053,-144.24 1050.55,-151.24 1055.45,-151.24"/>
</g>
</g>
</svg>
