<?xml version="1.0" encoding="UTF-8" standalone="no"?>
<!DOCTYPE svg PUBLIC "-//W3C//DTD SVG 1.1//EN"
 "http://www.w3.org/Graphics/SVG/1.1/DTD/svg11.dtd">
<!-- Generated by graphviz version 2.50.0 (0)
 -->
<!-- Title: Grafo_Circuito_111_23_ Pages: 1 -->
<svg width="1104pt" height="1574pt"
 viewBox="0.00 0.00 1104.00 1574.00" xmlns="http://www.w3.org/2000/svg" xmlns:xlink="http://www.w3.org/1999/xlink">
<g id="graph0" class="graph" transform="scale(1 1) rotate(0) translate(4 1570)">
<title>Grafo_Circuito_111_23_</title>
<polygon fill="white" stroke="transparent" points="-4,4 -4,-1570 1100,-1570 1100,4 -4,4"/>
<!-- C&#45;0184 -->
<g id="node1" class="node">
<title>C&#45;0184</title>
<ellipse fill="mediumseagreen" stroke="black" cx="297" cy="-324.5" rx="72" ry="21.5"/>
<text text-anchor="middle" x="297" y="-322" font-family="Arial" font-size="10.00">C&#45;0184</text>
</g>
<!-- S&#45;1614 -->
<g id="node2" class="node">
<title>S&#45;1614</title>
<polygon fill="mediumseagreen" stroke="black" points="285,-245 213,-223.5 285,-202 357,-223.5 285,-245"/>
<text text-anchor="middle" x="285" y="-221" font-family="Arial" font-size="10.00">S&#45;1614</text>
</g>
<!-- C&#45;0184&#45;&gt;S&#45;1614 -->
<g id="edge29" class="edge">
<title>C&#45;0184&#45;&gt;S&#45;1614</title>
<path fill="none" stroke="#4d4d4d" d="M291,-302.58C291,-302.58 291,-250.32 291,-250.32"/>
<polygon fill="#4d4d4d" stroke="#4d4d4d" points="293.45,-250.32 291,-243.32 288.55,-250.32 293.45,-250.32"/>
</g>
<!-- S&#45;053 -->
<g id="node4" class="node">
<title>S&#45;053</title>
<polygon fill="mediumseagreen" stroke="black" points="465,-245 393,-223.5 465,-202 537,-223.5 465,-245"/>
<text text-anchor="middle" x="465" y="-221" font-family="Arial" font-size="10.00">S&#45;053</text>
</g>
<!-- C&#45;0184&#45;&gt;S&#45;053 -->
<g id="edge23" class="edge">
<title>C&#45;0184&#45;&gt;S&#45;053</title>
<path fill="none" stroke="#4d4d4d" d="M365,-317.2C365,-293.93 365,-223 365,-223 365,-223 387.46,-223 387.46,-223"/>
<polygon fill="#4d4d4d" stroke="#4d4d4d" points="387.46,-225.45 394.46,-223 387.46,-220.55 387.46,-225.45"/>
</g>
<!-- C&#45;0001 -->
<g id="node7" class="node">
<title>C&#45;0001</title>
<ellipse fill="tomato" stroke="black" cx="105" cy="-223.5" rx="72" ry="21.5"/>
<text text-anchor="middle" x="105" y="-221" font-family="Arial" font-size="10.00">C&#45;0001</text>
</g>
<!-- C&#45;0184&#45;&gt;C&#45;0001 -->
<g id="edge27" class="edge">
<title>C&#45;0184&#45;&gt;C&#45;0001</title>
<path fill="none" stroke="#4d4d4d" d="M224.75,-324C192.01,-324 160.5,-324 160.5,-324 160.5,-324 160.5,-244.47 160.5,-244.47"/>
<polygon fill="#4d4d4d" stroke="#4d4d4d" points="162.95,-244.47 160.5,-237.47 158.05,-244.47 162.95,-244.47"/>
</g>
<!-- C&#45;0797 -->
<g id="node27" class="node">
<title>C&#45;0797</title>
<ellipse fill="mediumseagreen" stroke="black" cx="645" cy="-223.5" rx="72" ry="21.5"/>
<text text-anchor="middle" x="645" y="-221" font-family="Arial" font-size="10.00">C&#45;0797</text>
</g>
<!-- C&#45;0184&#45;&gt;C&#45;0797 -->
<g id="edge28" class="edge">
<title>C&#45;0184&#45;&gt;C&#45;0797</title>
<path fill="none" stroke="#4d4d4d" d="M361,-314.28C361,-299.52 361,-274 361,-274 361,-274 579,-274 579,-274 579,-274 579,-239.3 579,-239.3"/>
<polygon fill="#4d4d4d" stroke="#4d4d4d" points="581.45,-239.3 579,-232.3 576.55,-239.3 581.45,-239.3"/>
</g>
<!-- 111&#45;23&#45; -->
<g id="node3" class="node">
<title>111&#45;23&#45;</title>
<polygon fill="gold" stroke="black" points="544,-1531.59 544,-1549.41 501.82,-1562 442.18,-1562 400,-1549.41 400,-1531.59 442.18,-1519 501.82,-1519 544,-1531.59"/>
<polygon fill="none" stroke="black" points="548,-1528.61 548,-1552.39 502.41,-1566 441.59,-1566 396,-1552.39 396,-1528.61 441.59,-1515 502.41,-1515 548,-1528.61"/>
<text text-anchor="middle" x="472" y="-1538" font-family="Arial" font-size="10.00">111&#45;23&#45;</text>
</g>
<!-- C&#45;0183 -->
<g id="node6" class="node">
<title>C&#45;0183</title>
<ellipse fill="mediumseagreen" stroke="black" cx="472" cy="-1435.5" rx="72" ry="21.5"/>
<text text-anchor="middle" x="472" y="-1433" font-family="Arial" font-size="10.00">C&#45;0183</text>
</g>
<!-- 111&#45;23&#45;&#45;&gt;C&#45;0183 -->
<g id="edge1" class="edge">
<title>111&#45;23&#45;&#45;&gt;C&#45;0183</title>
<path fill="none" stroke="#4d4d4d" d="M472,-1514.81C472,-1514.81 472,-1464.03 472,-1464.03"/>
<polygon fill="#4d4d4d" stroke="#4d4d4d" points="474.45,-1464.03 472,-1457.03 469.55,-1464.03 474.45,-1464.03"/>
</g>
<!-- S&#45;2154 -->
<g id="node25" class="node">
<title>S&#45;2154</title>
<polygon fill="mediumseagreen" stroke="black" points="375,-144 303,-122.5 375,-101 447,-122.5 375,-144"/>
<text text-anchor="middle" x="375" y="-120" font-family="Arial" font-size="10.00">S&#45;2154</text>
</g>
<!-- S&#45;053&#45;&gt;S&#45;2154 -->
<g id="edge25" class="edge">
<title>S&#45;053&#45;&gt;S&#45;2154</title>
<path fill="none" stroke="#4d4d4d" d="M420,-215.23C420,-215.23 420,-137.6 420,-137.6"/>
<polygon fill="#4d4d4d" stroke="#4d4d4d" points="422.45,-137.6 420,-130.6 417.55,-137.6 422.45,-137.6"/>
</g>
<!-- S&#45;052 -->
<g id="node36" class="node">
<title>S&#45;052</title>
<polygon fill="mediumseagreen" stroke="black" points="555,-144 483,-122.5 555,-101 627,-122.5 555,-144"/>
<text text-anchor="middle" x="555" y="-120" font-family="Arial" font-size="10.00">S&#45;052</text>
</g>
<!-- S&#45;053&#45;&gt;S&#45;052 -->
<g id="edge24" class="edge">
<title>S&#45;053&#45;&gt;S&#45;052</title>
<path fill="none" stroke="#4d4d4d" d="M510,-215.23C510,-215.23 510,-137.6 510,-137.6"/>
<polygon fill="#4d4d4d" stroke="#4d4d4d" points="512.45,-137.6 510,-130.6 507.55,-137.6 512.45,-137.6"/>
</g>
<!-- S&#45;163 -->
<g id="node5" class="node">
<title>S&#45;163</title>
<polygon fill="mediumseagreen" stroke="black" points="844,-750 772,-728.5 844,-707 916,-728.5 844,-750"/>
<text text-anchor="middle" x="844" y="-726" font-family="Arial" font-size="10.00">S&#45;163</text>
</g>
<!-- S&#45;1628 -->
<g id="node19" class="node">
<title>S&#45;1628</title>
<polygon fill="mediumseagreen" stroke="black" points="844,-649 772,-627.5 844,-606 916,-627.5 844,-649"/>
<text text-anchor="middle" x="844" y="-625" font-family="Arial" font-size="10.00">S&#45;1628</text>
</g>
<!-- S&#45;163&#45;&gt;S&#45;1628 -->
<g id="edge34" class="edge">
<title>S&#45;163&#45;&gt;S&#45;1628</title>
<path fill="none" stroke="#4d4d4d" d="M844,-706.58C844,-706.58 844,-656.03 844,-656.03"/>
<polygon fill="#4d4d4d" stroke="#4d4d4d" points="846.45,-656.03 844,-649.03 841.55,-656.03 846.45,-656.03"/>
</g>
<!-- S&#45;155 -->
<g id="node17" class="node">
<title>S&#45;155</title>
<polygon fill="mediumseagreen" stroke="black" points="305,-1356 233,-1334.5 305,-1313 377,-1334.5 305,-1356"/>
<text text-anchor="middle" x="305" y="-1332" font-family="Arial" font-size="10.00">S&#45;155</text>
</g>
<!-- C&#45;0183&#45;&gt;S&#45;155 -->
<g id="edge35" class="edge">
<title>C&#45;0183&#45;&gt;S&#45;155</title>
<path fill="none" stroke="#4d4d4d" d="M408.5,-1425.03C408.5,-1400.42 408.5,-1341 408.5,-1341 408.5,-1341 362.23,-1341 362.23,-1341"/>
<polygon fill="#4d4d4d" stroke="#4d4d4d" points="362.23,-1338.55 355.23,-1341 362.23,-1343.45 362.23,-1338.55"/>
</g>
<!-- C&#45;0353 -->
<g id="node20" class="node">
<title>C&#45;0353</title>
<ellipse fill="mediumseagreen" stroke="black" cx="485" cy="-1334.5" rx="72" ry="21.5"/>
<text text-anchor="middle" x="485" y="-1332" font-family="Arial" font-size="10.00">C&#45;0353</text>
</g>
<!-- C&#45;0183&#45;&gt;C&#45;0353 -->
<g id="edge2" class="edge">
<title>C&#45;0183&#45;&gt;C&#45;0353</title>
<path fill="none" stroke="#4d4d4d" d="M478.5,-1414.08C478.5,-1414.08 478.5,-1363.24 478.5,-1363.24"/>
<polygon fill="#4d4d4d" stroke="#4d4d4d" points="480.95,-1363.24 478.5,-1356.24 476.05,-1363.24 480.95,-1363.24"/>
</g>
<!-- ext_circ_111_22_ -->
<g id="node38" class="node">
<title>ext_circ_111_22_</title>
<polygon fill="lightpink" stroke="darkorange" stroke-dasharray="5,2" points="144,-1562 0,-1562 0,-1519 144,-1519 144,-1562"/>
<text text-anchor="middle" x="72" y="-1543.5" font-family="Arial" font-size="10.00">Circuito:</text>
<text text-anchor="middle" x="72" y="-1532.5" font-family="Arial" font-size="10.00">111&#45;22&#45;</text>
</g>
<!-- C&#45;0001&#45;&gt;ext_circ_111_22_ -->
<g id="edge38" class="edge">
<title>C&#45;0001&#45;&gt;ext_circ_111_22_</title>
<path fill="none" stroke="darkorange" stroke-dasharray="5,2" d="M88.5,-244.45C88.5,-244.45 88.5,-1511.89 88.5,-1511.89"/>
<polygon fill="darkorange" stroke="darkorange" points="86.05,-1511.89 88.5,-1518.89 90.95,-1511.89 86.05,-1511.89"/>
</g>
<!-- C&#45;0875 -->
<g id="node8" class="node">
<title>C&#45;0875</title>
<ellipse fill="mediumseagreen" stroke="black" cx="477" cy="-425.5" rx="72" ry="21.5"/>
<text text-anchor="middle" x="477" y="-423" font-family="Arial" font-size="10.00">C&#45;0875</text>
</g>
<!-- C&#45;0875&#45;&gt;C&#45;0184 -->
<g id="edge22" class="edge">
<title>C&#45;0875&#45;&gt;C&#45;0184</title>
<path fill="none" stroke="#4d4d4d" d="M404.82,-425C354.75,-425 297,-425 297,-425 297,-425 297,-353.31 297,-353.31"/>
<polygon fill="#4d4d4d" stroke="#4d4d4d" points="299.45,-353.31 297,-346.31 294.55,-353.31 299.45,-353.31"/>
</g>
<!-- C&#45;0876 -->
<g id="node26" class="node">
<title>C&#45;0876</title>
<ellipse fill="tomato" stroke="black" cx="477" cy="-324.5" rx="72" ry="21.5"/>
<text text-anchor="middle" x="477" y="-322" font-family="Arial" font-size="10.00">C&#45;0876</text>
</g>
<!-- C&#45;0875&#45;&gt;C&#45;0876 -->
<g id="edge20" class="edge">
<title>C&#45;0875&#45;&gt;C&#45;0876</title>
<path fill="none" stroke="#4d4d4d" d="M477,-403.58C477,-403.58 477,-353.03 477,-353.03"/>
<polygon fill="#4d4d4d" stroke="#4d4d4d" points="479.45,-353.03 477,-346.03 474.55,-353.03 479.45,-353.03"/>
</g>
<!-- S&#45;165 -->
<g id="node33" class="node">
<title>S&#45;165</title>
<polygon fill="mediumseagreen" stroke="black" points="657,-346 585,-324.5 657,-303 729,-324.5 657,-346"/>
<text text-anchor="middle" x="657" y="-322" font-family="Arial" font-size="10.00">S&#45;165</text>
</g>
<!-- C&#45;0875&#45;&gt;S&#45;165 -->
<g id="edge21" class="edge">
<title>C&#45;0875&#45;&gt;S&#45;165</title>
<path fill="none" stroke="#4d4d4d" d="M549.18,-425C599.25,-425 657,-425 657,-425 657,-425 657,-353.31 657,-353.31"/>
<polygon fill="#4d4d4d" stroke="#4d4d4d" points="659.45,-353.31 657,-346.31 654.55,-353.31 659.45,-353.31"/>
</g>
<!-- S&#45;157 -->
<g id="node9" class="node">
<title>S&#45;157</title>
<polygon fill="mediumseagreen" stroke="black" points="307,-1255 235,-1233.5 307,-1212 379,-1233.5 307,-1255"/>
<text text-anchor="middle" x="307" y="-1231" font-family="Arial" font-size="10.00">S&#45;157</text>
</g>
<!-- C&#45;0289 -->
<g id="node10" class="node">
<title>C&#45;0289</title>
<ellipse fill="mediumseagreen" stroke="black" cx="487" cy="-1132.5" rx="72" ry="21.5"/>
<text text-anchor="middle" x="487" y="-1130" font-family="Arial" font-size="10.00">C&#45;0289</text>
</g>
<!-- S&#45;159 -->
<g id="node16" class="node">
<title>S&#45;159</title>
<polygon fill="mediumseagreen" stroke="black" points="304,-1053 232,-1031.5 304,-1010 376,-1031.5 304,-1053"/>
<text text-anchor="middle" x="304" y="-1029" font-family="Arial" font-size="10.00">S&#45;159</text>
</g>
<!-- C&#45;0289&#45;&gt;S&#45;159 -->
<g id="edge6" class="edge">
<title>C&#45;0289&#45;&gt;S&#45;159</title>
<path fill="none" stroke="#4d4d4d" d="M415.01,-1132C364.33,-1132 305.5,-1132 305.5,-1132 305.5,-1132 305.5,-1059.81 305.5,-1059.81"/>
<polygon fill="#4d4d4d" stroke="#4d4d4d" points="307.95,-1059.81 305.5,-1052.81 303.05,-1059.81 307.95,-1059.81"/>
</g>
<!-- S&#45;2144 -->
<g id="node18" class="node">
<title>S&#45;2144</title>
<polygon fill="mediumseagreen" stroke="black" points="484,-1053 412,-1031.5 484,-1010 556,-1031.5 484,-1053"/>
<text text-anchor="middle" x="484" y="-1029" font-family="Arial" font-size="10.00">S&#45;2144</text>
</g>
<!-- C&#45;0289&#45;&gt;S&#45;2144 -->
<g id="edge8" class="edge">
<title>C&#45;0289&#45;&gt;S&#45;2144</title>
<path fill="none" stroke="#4d4d4d" d="M485.5,-1110.58C485.5,-1110.58 485.5,-1059.68 485.5,-1059.68"/>
<polygon fill="#4d4d4d" stroke="#4d4d4d" points="487.95,-1059.68 485.5,-1052.68 483.05,-1059.68 487.95,-1059.68"/>
</g>
<!-- C&#45;0145 -->
<g id="node28" class="node">
<title>C&#45;0145</title>
<ellipse fill="mediumseagreen" stroke="black" cx="664" cy="-1031.5" rx="72" ry="21.5"/>
<text text-anchor="middle" x="664" y="-1029" font-family="Arial" font-size="10.00">C&#45;0145</text>
</g>
<!-- C&#45;0289&#45;&gt;C&#45;0145 -->
<g id="edge9" class="edge">
<title>C&#45;0289&#45;&gt;C&#45;0145</title>
<path fill="none" stroke="#4d4d4d" d="M554.67,-1125C604.64,-1125 664,-1125 664,-1125 664,-1125 664,-1060.19 664,-1060.19"/>
<polygon fill="#4d4d4d" stroke="#4d4d4d" points="666.45,-1060.19 664,-1053.19 661.55,-1060.19 666.45,-1060.19"/>
</g>
<!-- S&#45;160 -->
<g id="node31" class="node">
<title>S&#45;160</title>
<polygon fill="mediumseagreen" stroke="black" points="844,-1053 772,-1031.5 844,-1010 916,-1031.5 844,-1053"/>
<text text-anchor="middle" x="844" y="-1029" font-family="Arial" font-size="10.00">S&#45;160</text>
</g>
<!-- C&#45;0289&#45;&gt;S&#45;160 -->
<g id="edge7" class="edge">
<title>C&#45;0289&#45;&gt;S&#45;160</title>
<path fill="none" stroke="#4d4d4d" d="M555.83,-1139C659.57,-1139 844,-1139 844,-1139 844,-1139 844,-1060.25 844,-1060.25"/>
<polygon fill="#4d4d4d" stroke="#4d4d4d" points="846.45,-1060.25 844,-1053.25 841.55,-1060.25 846.45,-1060.25"/>
</g>
<!-- C&#45;0877 -->
<g id="node11" class="node">
<title>C&#45;0877</title>
<ellipse fill="mediumseagreen" stroke="black" cx="477" cy="-627.5" rx="72" ry="21.5"/>
<text text-anchor="middle" x="477" y="-625" font-family="Arial" font-size="10.00">C&#45;0877</text>
</g>
<!-- R&#45;202 -->
<g id="node21" class="node">
<title>R&#45;202</title>
<polygon fill="mediumseagreen" stroke="black" points="549,-517.59 549,-535.41 506.82,-548 447.18,-548 405,-535.41 405,-517.59 447.18,-505 506.82,-505 549,-517.59"/>
<text text-anchor="middle" x="477" y="-524" font-family="Arial" font-size="10.00">R&#45;202</text>
</g>
<!-- C&#45;0877&#45;&gt;R&#45;202 -->
<g id="edge18" class="edge">
<title>C&#45;0877&#45;&gt;R&#45;202</title>
<path fill="none" stroke="#4d4d4d" d="M477,-605.58C477,-605.58 477,-555.03 477,-555.03"/>
<polygon fill="#4d4d4d" stroke="#4d4d4d" points="479.45,-555.03 477,-548.03 474.55,-555.03 479.45,-555.03"/>
</g>
<!-- S&#45;166 -->
<g id="node12" class="node">
<title>S&#45;166</title>
<polygon fill="mediumseagreen" stroke="black" points="657,-649 585,-627.5 657,-606 729,-627.5 657,-649"/>
<text text-anchor="middle" x="657" y="-625" font-family="Arial" font-size="10.00">S&#45;166</text>
</g>
<!-- S&#45;2284 -->
<g id="node13" class="node">
<title>S&#45;2284</title>
<polygon fill="mediumseagreen" stroke="black" points="375,-43 303,-21.5 375,0 447,-21.5 375,-43"/>
<text text-anchor="middle" x="375" y="-19" font-family="Arial" font-size="10.00">S&#45;2284</text>
</g>
<!-- S&#45;1062 -->
<g id="node14" class="node">
<title>S&#45;1062</title>
<polygon fill="mediumseagreen" stroke="black" points="477,-750 405,-728.5 477,-707 549,-728.5 477,-750"/>
<text text-anchor="middle" x="477" y="-726" font-family="Arial" font-size="10.00">S&#45;1062</text>
</g>
<!-- S&#45;1062&#45;&gt;C&#45;0877 -->
<g id="edge17" class="edge">
<title>S&#45;1062&#45;&gt;C&#45;0877</title>
<path fill="none" stroke="#4d4d4d" d="M477,-706.58C477,-706.58 477,-656.03 477,-656.03"/>
<polygon fill="#4d4d4d" stroke="#4d4d4d" points="479.45,-656.03 477,-649.03 474.55,-656.03 479.45,-656.03"/>
</g>
<!-- S&#45;1062&#45;&gt;S&#45;166 -->
<g id="edge30" class="edge">
<title>S&#45;1062&#45;&gt;S&#45;166</title>
<path fill="none" stroke="#4d4d4d" d="M527.48,-735C547.57,-735 566,-735 566,-735 566,-735 566,-620 566,-620 566,-620 602.9,-620 602.9,-620"/>
<polygon fill="#4d4d4d" stroke="#4d4d4d" points="602.9,-622.45 609.9,-620 602.9,-617.55 602.9,-622.45"/>
</g>
<!-- C&#45;0449 -->
<g id="node34" class="node">
<title>C&#45;0449</title>
<ellipse fill="tomato" stroke="black" cx="297" cy="-627.5" rx="72" ry="21.5"/>
<text text-anchor="middle" x="297" y="-625" font-family="Arial" font-size="10.00">C&#45;0449</text>
</g>
<!-- S&#45;1062&#45;&gt;C&#45;0449 -->
<g id="edge16" class="edge">
<title>S&#45;1062&#45;&gt;C&#45;0449</title>
<path fill="none" stroke="#4d4d4d" d="M406.48,-728C357.32,-728 300.5,-728 300.5,-728 300.5,-728 300.5,-656.31 300.5,-656.31"/>
<polygon fill="#4d4d4d" stroke="#4d4d4d" points="302.95,-656.31 300.5,-649.31 298.05,-656.31 302.95,-656.31"/>
</g>
<!-- R&#45;073 -->
<g id="node15" class="node">
<title>R&#45;073</title>
<polygon fill="mediumseagreen" stroke="black" points="736,-921.59 736,-939.41 693.82,-952 634.18,-952 592,-939.41 592,-921.59 634.18,-909 693.82,-909 736,-921.59"/>
<text text-anchor="middle" x="664" y="-928" font-family="Arial" font-size="10.00">R&#45;073</text>
</g>
<!-- S&#45;2132 -->
<g id="node24" class="node">
<title>S&#45;2132</title>
<polygon fill="mediumseagreen" stroke="black" points="304,-851 232,-829.5 304,-808 376,-829.5 304,-851"/>
<text text-anchor="middle" x="304" y="-827" font-family="Arial" font-size="10.00">S&#45;2132</text>
</g>
<!-- R&#45;073&#45;&gt;S&#45;2132 -->
<g id="edge11" class="edge">
<title>R&#45;073&#45;&gt;S&#45;2132</title>
<path fill="none" stroke="#4d4d4d" d="M591.58,-937C486.46,-937 304,-937 304,-937 304,-937 304,-858.25 304,-858.25"/>
<polygon fill="#4d4d4d" stroke="#4d4d4d" points="306.45,-858.25 304,-851.25 301.55,-858.25 306.45,-858.25"/>
</g>
<!-- S&#45;PR37 -->
<g id="node29" class="node">
<title>S&#45;PR37</title>
<polygon fill="mediumseagreen" stroke="black" points="484,-851 412,-829.5 484,-808 556,-829.5 484,-851"/>
<text text-anchor="middle" x="484" y="-827" font-family="Arial" font-size="10.00">S&#45;PR37</text>
</g>
<!-- R&#45;073&#45;&gt;S&#45;PR37 -->
<g id="edge13" class="edge">
<title>R&#45;073&#45;&gt;S&#45;PR37</title>
<path fill="none" stroke="#4d4d4d" d="M591.82,-923C541.75,-923 484,-923 484,-923 484,-923 484,-858.19 484,-858.19"/>
<polygon fill="#4d4d4d" stroke="#4d4d4d" points="486.45,-858.19 484,-851.19 481.55,-858.19 486.45,-858.19"/>
</g>
<!-- C&#45;0803 -->
<g id="node30" class="node">
<title>C&#45;0803</title>
<ellipse fill="mediumseagreen" stroke="black" cx="664" cy="-829.5" rx="72" ry="21.5"/>
<text text-anchor="middle" x="664" y="-827" font-family="Arial" font-size="10.00">C&#45;0803</text>
</g>
<!-- R&#45;073&#45;&gt;C&#45;0803 -->
<g id="edge31" class="edge">
<title>R&#45;073&#45;&gt;C&#45;0803</title>
<path fill="none" stroke="#4d4d4d" d="M664,-908.58C664,-908.58 664,-858.03 664,-858.03"/>
<polygon fill="#4d4d4d" stroke="#4d4d4d" points="666.45,-858.03 664,-851.03 661.55,-858.03 666.45,-858.03"/>
</g>
<!-- C&#45;0288 -->
<g id="node32" class="node">
<title>C&#45;0288</title>
<ellipse fill="mediumseagreen" stroke="black" cx="844" cy="-829.5" rx="72" ry="21.5"/>
<text text-anchor="middle" x="844" y="-827" font-family="Arial" font-size="10.00">C&#45;0288</text>
</g>
<!-- R&#45;073&#45;&gt;C&#45;0288 -->
<g id="edge32" class="edge">
<title>R&#45;073&#45;&gt;C&#45;0288</title>
<path fill="none" stroke="#4d4d4d" d="M736.18,-923C786.25,-923 844,-923 844,-923 844,-923 844,-858.19 844,-858.19"/>
<polygon fill="#4d4d4d" stroke="#4d4d4d" points="846.45,-858.19 844,-851.19 841.55,-858.19 846.45,-858.19"/>
</g>
<!-- S&#45;2378 -->
<g id="node35" class="node">
<title>S&#45;2378</title>
<polygon fill="mediumseagreen" stroke="black" points="1024,-851 952,-829.5 1024,-808 1096,-829.5 1024,-851"/>
<text text-anchor="middle" x="1024" y="-827" font-family="Arial" font-size="10.00">S&#45;2378</text>
</g>
<!-- R&#45;073&#45;&gt;S&#45;2378 -->
<g id="edge12" class="edge">
<title>R&#45;073&#45;&gt;S&#45;2378</title>
<path fill="none" stroke="#4d4d4d" d="M736.42,-937C841.54,-937 1024,-937 1024,-937 1024,-937 1024,-858.25 1024,-858.25"/>
<polygon fill="#4d4d4d" stroke="#4d4d4d" points="1026.45,-858.25 1024,-851.25 1021.55,-858.25 1026.45,-858.25"/>
</g>
<!-- C&#45;0353&#45;&gt;S&#45;157 -->
<g id="edge3" class="edge">
<title>C&#45;0353&#45;&gt;S&#45;157</title>
<path fill="none" stroke="#4d4d4d" d="M417.32,-1327C399.92,-1327 386,-1327 386,-1327 386,-1327 386,-1233 386,-1233 386,-1233 384.55,-1233 384.55,-1233"/>
<polygon fill="#4d4d4d" stroke="#4d4d4d" points="384.55,-1230.55 377.55,-1233 384.55,-1235.45 384.55,-1230.55"/>
</g>
<!-- C&#45;0231 -->
<g id="node22" class="node">
<title>C&#45;0231</title>
<ellipse fill="mediumseagreen" stroke="black" cx="487" cy="-1233.5" rx="72" ry="21.5"/>
<text text-anchor="middle" x="487" y="-1231" font-family="Arial" font-size="10.00">C&#45;0231</text>
</g>
<!-- C&#45;0353&#45;&gt;C&#45;0231 -->
<g id="edge4" class="edge">
<title>C&#45;0353&#45;&gt;C&#45;0231</title>
<path fill="none" stroke="#4d4d4d" d="M486,-1312.58C486,-1312.58 486,-1262.03 486,-1262.03"/>
<polygon fill="#4d4d4d" stroke="#4d4d4d" points="488.45,-1262.03 486,-1255.03 483.55,-1262.03 488.45,-1262.03"/>
</g>
<!-- R&#45;202&#45;&gt;C&#45;0875 -->
<g id="edge19" class="edge">
<title>R&#45;202&#45;&gt;C&#45;0875</title>
<path fill="none" stroke="#4d4d4d" d="M477,-504.58C477,-504.58 477,-454.03 477,-454.03"/>
<polygon fill="#4d4d4d" stroke="#4d4d4d" points="479.45,-454.03 477,-447.03 474.55,-454.03 479.45,-454.03"/>
</g>
<!-- C&#45;0231&#45;&gt;C&#45;0289 -->
<g id="edge5" class="edge">
<title>C&#45;0231&#45;&gt;C&#45;0289</title>
<path fill="none" stroke="#4d4d4d" d="M487,-1211.58C487,-1211.58 487,-1161.03 487,-1161.03"/>
<polygon fill="#4d4d4d" stroke="#4d4d4d" points="489.45,-1161.03 487,-1154.03 484.55,-1161.03 489.45,-1161.03"/>
</g>
<!-- S&#45;1508 -->
<g id="node23" class="node">
<title>S&#45;1508</title>
<polygon fill="mediumseagreen" stroke="black" points="657,-750 585,-728.5 657,-707 729,-728.5 657,-750"/>
<text text-anchor="middle" x="657" y="-726" font-family="Arial" font-size="10.00">S&#45;1508</text>
</g>
<!-- S&#45;2154&#45;&gt;S&#45;2284 -->
<g id="edge26" class="edge">
<title>S&#45;2154&#45;&gt;S&#45;2284</title>
<path fill="none" stroke="#4d4d4d" d="M375,-100.58C375,-100.58 375,-50.03 375,-50.03"/>
<polygon fill="#4d4d4d" stroke="#4d4d4d" points="377.45,-50.03 375,-43.03 372.55,-50.03 377.45,-50.03"/>
</g>
<!-- C&#45;0876&#45;&gt;C&#45;0877 -->
<g id="edge37" class="edge">
<title>C&#45;0876&#45;&gt;C&#45;0877</title>
<path fill="none" stroke="blue" stroke-dasharray="5,2" d="M549.19,-324C550.57,-324 551.33,-324 551.33,-324 551.33,-324 551.33,-634 551.33,-634 551.33,-634 550.8,-634 550.8,-634"/>
<polygon fill="blue" stroke="blue" points="552.99,-631.55 545.99,-634 552.99,-636.45 552.99,-631.55"/>
</g>
<!-- C&#45;0145&#45;&gt;R&#45;073 -->
<g id="edge10" class="edge">
<title>C&#45;0145&#45;&gt;R&#45;073</title>
<path fill="none" stroke="#4d4d4d" d="M664,-1009.58C664,-1009.58 664,-959.03 664,-959.03"/>
<polygon fill="#4d4d4d" stroke="#4d4d4d" points="666.45,-959.03 664,-952.03 661.55,-959.03 666.45,-959.03"/>
</g>
<!-- S&#45;PR37&#45;&gt;S&#45;1062 -->
<g id="edge15" class="edge">
<title>S&#45;PR37&#45;&gt;S&#45;1062</title>
<path fill="none" stroke="#4d4d4d" d="M480.5,-808.57C480.5,-808.57 480.5,-756.05 480.5,-756.05"/>
<polygon fill="#4d4d4d" stroke="#4d4d4d" points="482.95,-756.05 480.5,-749.05 478.05,-756.05 482.95,-756.05"/>
</g>
<!-- S&#45;PR37&#45;&gt;S&#45;1508 -->
<g id="edge14" class="edge">
<title>S&#45;PR37&#45;&gt;S&#45;1508</title>
<path fill="none" stroke="#4d4d4d" d="M553.67,-828.28C553.67,-816.36 553.67,-721 553.67,-721 553.67,-721 602.87,-721 602.87,-721"/>
<polygon fill="#4d4d4d" stroke="#4d4d4d" points="602.87,-723.45 609.87,-721 602.87,-718.55 602.87,-723.45"/>
</g>
<!-- C&#45;0288&#45;&gt;S&#45;163 -->
<g id="edge33" class="edge">
<title>C&#45;0288&#45;&gt;S&#45;163</title>
<path fill="none" stroke="#4d4d4d" d="M844,-807.58C844,-807.58 844,-757.03 844,-757.03"/>
<polygon fill="#4d4d4d" stroke="#4d4d4d" points="846.45,-757.03 844,-750.03 841.55,-757.03 846.45,-757.03"/>
</g>
<!-- ext_circ_110_26_ -->
<g id="node37" class="node">
<title>ext_circ_110_26_</title>
<polygon fill="lightpink" stroke="darkorange" stroke-dasharray="5,2" points="348,-1562 204,-1562 204,-1519 348,-1519 348,-1562"/>
<text text-anchor="middle" x="276" y="-1543.5" font-family="Arial" font-size="10.00">Circuito:</text>
<text text-anchor="middle" x="276" y="-1532.5" font-family="Arial" font-size="10.00">110&#45;26&#45;</text>
</g>
<!-- C&#45;0449&#45;&gt;ext_circ_110_26_ -->
<g id="edge36" class="edge">
<title>C&#45;0449&#45;&gt;ext_circ_110_26_</title>
<path fill="none" stroke="darkorange" stroke-dasharray="5,2" d="M228.5,-634.32C228.5,-634.32 228.5,-1511.84 228.5,-1511.84"/>
<polygon fill="darkorange" stroke="darkorange" points="226.05,-1511.84 228.5,-1518.84 230.95,-1511.84 226.05,-1511.84"/>
</g>
</g>
</svg>
