<?xml version="1.0" encoding="UTF-8" standalone="no"?>
<!DOCTYPE svg PUBLIC "-//W3C//DTD SVG 1.1//EN"
 "http://www.w3.org/Graphics/SVG/1.1/DTD/svg11.dtd">
<!-- Generated by graphviz version 2.50.0 (0)
 -->
<!-- Title: Grafo_Circuito_114_23_ Pages: 1 -->
<svg width="3276pt" height="1582pt"
 viewBox="0.00 0.00 3276.00 1582.00" xmlns="http://www.w3.org/2000/svg" xmlns:xlink="http://www.w3.org/1999/xlink">
<g id="graph0" class="graph" transform="scale(1 1) rotate(0) translate(4 1578)">
<title>Grafo_Circuito_114_23_</title>
<polygon fill="white" stroke="transparent" points="-4,4 -4,-1578 3272,-1578 3272,4 -4,4"/>
<!-- SW&#45;011_B -->
<g id="node1" class="node">
<title>SW&#45;011_B</title>
<polygon fill="tomato" stroke="black" points="2594.79,-249 2475.81,-249 2445.21,-206 2564.19,-206 2594.79,-249"/>
<text text-anchor="middle" x="2520" y="-225" font-family="Arial" font-size="10.00">SW&#45;011_B</text>
</g>
<!-- kFED94 -->
<g id="node8" class="node">
<title>kFED94</title>
<polygon fill="mediumseagreen" stroke="black" points="699,-218.59 699,-236.41 656.82,-249 597.18,-249 555,-236.41 555,-218.59 597.18,-206 656.82,-206 699,-218.59"/>
<polygon fill="none" stroke="black" points="703,-215.61 703,-239.39 657.41,-253 596.59,-253 551,-239.39 551,-215.61 596.59,-202 657.41,-202 703,-215.61"/>
<text text-anchor="middle" x="627" y="-225" font-family="Arial" font-size="10.00">kFED94</text>
</g>
<!-- SW&#45;011_B&#45;&gt;kFED94 -->
<g id="edge51" class="edge">
<title>SW&#45;011_B&#45;&gt;kFED94</title>
<path fill="none" stroke="blue" stroke-dasharray="5,2" d="M2491.57,-249.04C2491.57,-264.27 2491.57,-282 2491.57,-282 2491.57,-282 652.33,-282 652.33,-282 652.33,-282 652.33,-260.15 652.33,-260.15"/>
<polygon fill="blue" stroke="blue" points="654.78,-260.15 652.33,-253.15 649.88,-260.15 654.78,-260.15"/>
</g>
<!-- S&#45;941 -->
<g id="node2" class="node">
<title>S&#45;941</title>
<polygon fill="mediumseagreen" stroke="black" points="2703,-249 2631,-227.5 2703,-206 2775,-227.5 2703,-249"/>
<text text-anchor="middle" x="2703" y="-225" font-family="Arial" font-size="10.00">S&#45;941</text>
</g>
<!-- SW&#45;011_D -->
<g id="node3" class="node">
<title>SW&#45;011_D</title>
<polygon fill="tomato" stroke="black" points="329.79,-249 210.81,-249 180.21,-206 299.19,-206 329.79,-249"/>
<text text-anchor="middle" x="255" y="-225" font-family="Arial" font-size="10.00">SW&#45;011_D</text>
</g>
<!-- SW&#45;011_A -->
<g id="node26" class="node">
<title>SW&#45;011_A</title>
<polygon fill="tomato" stroke="black" points="2048.79,-249 1929.81,-249 1899.21,-206 2018.19,-206 2048.79,-249"/>
<text text-anchor="middle" x="1974" y="-225" font-family="Arial" font-size="10.00">SW&#45;011_A</text>
</g>
<!-- SW&#45;011_D&#45;&gt;SW&#45;011_A -->
<g id="edge52" class="edge">
<title>SW&#45;011_D&#45;&gt;SW&#45;011_A</title>
<path fill="none" stroke="blue" stroke-dasharray="5,2" d="M255,-205.96C255,-190.73 255,-173 255,-173 255,-173 1907.68,-173 1907.68,-173 1907.68,-173 1907.68,-220.34 1907.68,-220.34"/>
<polygon fill="blue" stroke="blue" points="1905.23,-220.34 1907.68,-227.34 1910.13,-220.34 1905.23,-220.34"/>
</g>
<!-- C&#45;0805 -->
<g id="node4" class="node">
<title>C&#45;0805</title>
<ellipse fill="mediumseagreen" stroke="black" cx="3016" cy="-332.5" rx="72" ry="21.5"/>
<text text-anchor="middle" x="3016" y="-330" font-family="Arial" font-size="10.00">C&#45;0805</text>
</g>
<!-- R&#45;180 -->
<g id="node43" class="node">
<title>R&#45;180</title>
<polygon fill="tomato" stroke="black" points="3141,-218.59 3141,-236.41 3098.82,-249 3039.18,-249 2997,-236.41 2997,-218.59 3039.18,-206 3098.82,-206 3141,-218.59"/>
<text text-anchor="middle" x="3069" y="-225" font-family="Arial" font-size="10.00">R&#45;180</text>
</g>
<!-- C&#45;0805&#45;&gt;R&#45;180 -->
<g id="edge38" class="edge">
<title>C&#45;0805&#45;&gt;R&#45;180</title>
<path fill="none" stroke="#4d4d4d" d="M3042.5,-312.25C3042.5,-312.25 3042.5,-256.13 3042.5,-256.13"/>
<polygon fill="#4d4d4d" stroke="#4d4d4d" points="3044.95,-256.13 3042.5,-249.13 3040.05,-256.13 3044.95,-256.13"/>
</g>
<!-- C&#45;1107 -->
<g id="node5" class="node">
<title>C&#45;1107</title>
<ellipse fill="tomato" stroke="black" cx="72" cy="-227.5" rx="72" ry="21.5"/>
<text text-anchor="middle" x="72" y="-225" font-family="Arial" font-size="10.00">C&#45;1107</text>
</g>
<!-- ext_circ_206_24_ -->
<g id="node51" class="node">
<title>ext_circ_206_24_</title>
<polygon fill="lightpink" stroke="darkorange" stroke-dasharray="5,2" points="144,-144 0,-144 0,-101 144,-101 144,-144"/>
<text text-anchor="middle" x="72" y="-125.5" font-family="Arial" font-size="10.00">Circuito:</text>
<text text-anchor="middle" x="72" y="-114.5" font-family="Arial" font-size="10.00">206&#45;24&#45;</text>
</g>
<!-- C&#45;1107&#45;&gt;ext_circ_206_24_ -->
<g id="edge55" class="edge">
<title>C&#45;1107&#45;&gt;ext_circ_206_24_</title>
<path fill="none" stroke="darkorange" stroke-dasharray="5,2" d="M72,-206C72,-206 72,-151.33 72,-151.33"/>
<polygon fill="darkorange" stroke="darkorange" points="74.45,-151.33 72,-144.33 69.55,-151.33 74.45,-151.33"/>
</g>
<!-- S&#45;2361 -->
<g id="node6" class="node">
<title>S&#45;2361</title>
<polygon fill="mediumseagreen" stroke="black" points="2656,-1364 2584,-1342.5 2656,-1321 2728,-1342.5 2656,-1364"/>
<text text-anchor="middle" x="2656" y="-1340" font-family="Arial" font-size="10.00">S&#45;2361</text>
</g>
<!-- S&#45;2444 -->
<g id="node35" class="node">
<title>S&#45;2444</title>
<polygon fill="mediumseagreen" stroke="black" points="2656,-1263 2584,-1241.5 2656,-1220 2728,-1241.5 2656,-1263"/>
<text text-anchor="middle" x="2656" y="-1239" font-family="Arial" font-size="10.00">S&#45;2444</text>
</g>
<!-- S&#45;2361&#45;&gt;S&#45;2444 -->
<g id="edge3" class="edge">
<title>S&#45;2361&#45;&gt;S&#45;2444</title>
<path fill="none" stroke="#4d4d4d" d="M2656,-1320.58C2656,-1320.58 2656,-1270.03 2656,-1270.03"/>
<polygon fill="#4d4d4d" stroke="#4d4d4d" points="2658.45,-1270.03 2656,-1263.03 2653.55,-1270.03 2658.45,-1270.03"/>
</g>
<!-- C&#45;0024 -->
<g id="node7" class="node">
<title>C&#45;0024</title>
<ellipse fill="mediumseagreen" stroke="black" cx="2836" cy="-1342.5" rx="72" ry="21.5"/>
<text text-anchor="middle" x="2836" y="-1340" font-family="Arial" font-size="10.00">C&#45;0024</text>
</g>
<!-- C&#45;0581 -->
<g id="node22" class="node">
<title>C&#45;0581</title>
<ellipse fill="mediumseagreen" stroke="black" cx="3016" cy="-1241.5" rx="72" ry="21.5"/>
<text text-anchor="middle" x="3016" y="-1239" font-family="Arial" font-size="10.00">C&#45;0581</text>
</g>
<!-- C&#45;0024&#45;&gt;C&#45;0581 -->
<g id="edge6" class="edge">
<title>C&#45;0024&#45;&gt;C&#45;0581</title>
<path fill="none" stroke="#4d4d4d" d="M2908.18,-1342C2958.25,-1342 3016,-1342 3016,-1342 3016,-1342 3016,-1270.31 3016,-1270.31"/>
<polygon fill="#4d4d4d" stroke="#4d4d4d" points="3018.45,-1270.31 3016,-1263.31 3013.55,-1270.31 3018.45,-1270.31"/>
</g>
<!-- C&#45;0580 -->
<g id="node36" class="node">
<title>C&#45;0580</title>
<ellipse fill="tomato" stroke="black" cx="2836" cy="-1241.5" rx="72" ry="21.5"/>
<text text-anchor="middle" x="2836" y="-1239" font-family="Arial" font-size="10.00">C&#45;0580</text>
</g>
<!-- C&#45;0024&#45;&gt;C&#45;0580 -->
<g id="edge7" class="edge">
<title>C&#45;0024&#45;&gt;C&#45;0580</title>
<path fill="none" stroke="#4d4d4d" d="M2836,-1320.58C2836,-1320.58 2836,-1270.03 2836,-1270.03"/>
<polygon fill="#4d4d4d" stroke="#4d4d4d" points="2838.45,-1270.03 2836,-1263.03 2833.55,-1270.03 2838.45,-1270.03"/>
</g>
<!-- S&#45;1244 -->
<g id="node9" class="node">
<title>S&#45;1244</title>
<polygon fill="mediumseagreen" stroke="black" points="811,-249 739,-227.5 811,-206 883,-227.5 811,-249"/>
<text text-anchor="middle" x="811" y="-225" font-family="Arial" font-size="10.00">S&#45;1244</text>
</g>
<!-- S&#45;928 -->
<g id="node10" class="node">
<title>S&#45;928</title>
<polygon fill="mediumseagreen" stroke="black" points="991,-249 919,-227.5 991,-206 1063,-227.5 991,-249"/>
<text text-anchor="middle" x="991" y="-225" font-family="Arial" font-size="10.00">S&#45;928</text>
</g>
<!-- S&#45;2445 -->
<g id="node11" class="node">
<title>S&#45;2445</title>
<polygon fill="mediumseagreen" stroke="black" points="2656,-1162 2584,-1140.5 2656,-1119 2728,-1140.5 2656,-1162"/>
<text text-anchor="middle" x="2656" y="-1138" font-family="Arial" font-size="10.00">S&#45;2445</text>
</g>
<!-- S&#45;1757 -->
<g id="node12" class="node">
<title>S&#45;1757</title>
<polygon fill="mediumseagreen" stroke="black" points="2836,-455 2764,-433.5 2836,-412 2908,-433.5 2836,-455"/>
<text text-anchor="middle" x="2836" y="-431" font-family="Arial" font-size="10.00">S&#45;1757</text>
</g>
<!-- C&#45;1254 -->
<g id="node13" class="node">
<title>C&#45;1254</title>
<ellipse fill="mediumseagreen" stroke="black" cx="1171" cy="-227.5" rx="72" ry="21.5"/>
<text text-anchor="middle" x="1171" y="-225" font-family="Arial" font-size="10.00">C&#45;1254</text>
</g>
<!-- C&#45;0930 -->
<g id="node14" class="node">
<title>C&#45;0930</title>
<ellipse fill="tomato" stroke="black" cx="2656" cy="-736.5" rx="72" ry="21.5"/>
<text text-anchor="middle" x="2656" y="-734" font-family="Arial" font-size="10.00">C&#45;0930</text>
</g>
<!-- C&#45;0931 -->
<g id="node32" class="node">
<title>C&#45;0931</title>
<ellipse fill="mediumseagreen" stroke="black" cx="3016" cy="-534.5" rx="72" ry="21.5"/>
<text text-anchor="middle" x="3016" y="-532" font-family="Arial" font-size="10.00">C&#45;0931</text>
</g>
<!-- C&#45;0930&#45;&gt;C&#45;0931 -->
<g id="edge45" class="edge">
<title>C&#45;0930&#45;&gt;C&#45;0931</title>
<path fill="none" stroke="blue" stroke-dasharray="5,2" d="M2695.67,-718.46C2695.67,-670.06 2695.67,-541 2695.67,-541 2695.67,-541 2940.28,-541 2940.28,-541"/>
<polygon fill="blue" stroke="blue" points="2940.28,-543.45 2947.28,-541 2940.28,-538.55 2940.28,-543.45"/>
</g>
<!-- S&#45;2563 -->
<g id="node15" class="node">
<title>S&#45;2563</title>
<polygon fill="mediumseagreen" stroke="black" points="1351,-249 1279,-227.5 1351,-206 1423,-227.5 1351,-249"/>
<text text-anchor="middle" x="1351" y="-225" font-family="Arial" font-size="10.00">S&#45;2563</text>
</g>
<!-- C&#45;0582 -->
<g id="node16" class="node">
<title>C&#45;0582</title>
<ellipse fill="mediumseagreen" stroke="black" cx="3016" cy="-1039.5" rx="72" ry="21.5"/>
<text text-anchor="middle" x="3016" y="-1037" font-family="Arial" font-size="10.00">C&#45;0582</text>
</g>
<!-- C&#45;0297 -->
<g id="node42" class="node">
<title>C&#45;0297</title>
<ellipse fill="mediumseagreen" stroke="black" cx="3016" cy="-938.5" rx="72" ry="21.5"/>
<text text-anchor="middle" x="3016" y="-936" font-family="Arial" font-size="10.00">C&#45;0297</text>
</g>
<!-- C&#45;0582&#45;&gt;C&#45;0297 -->
<g id="edge10" class="edge">
<title>C&#45;0582&#45;&gt;C&#45;0297</title>
<path fill="none" stroke="#4d4d4d" d="M3016,-1017.58C3016,-1017.58 3016,-967.03 3016,-967.03"/>
<polygon fill="#4d4d4d" stroke="#4d4d4d" points="3018.45,-967.03 3016,-960.03 3013.55,-967.03 3018.45,-967.03"/>
</g>
<!-- S&#45;034 -->
<g id="node17" class="node">
<title>S&#45;034</title>
<polygon fill="mediumseagreen" stroke="black" points="1599,-354 1527,-332.5 1599,-311 1671,-332.5 1599,-354"/>
<text text-anchor="middle" x="1599" y="-330" font-family="Arial" font-size="10.00">S&#45;034</text>
</g>
<!-- S&#45;034&#45;&gt;SW&#45;011_B -->
<g id="edge27" class="edge">
<title>S&#45;034&#45;&gt;SW&#45;011_B</title>
<path fill="none" stroke="#4d4d4d" d="M1669.56,-332C1887.89,-332 2537.78,-332 2537.78,-332 2537.78,-332 2537.78,-256.15 2537.78,-256.15"/>
<polygon fill="#4d4d4d" stroke="#4d4d4d" points="2540.23,-256.15 2537.78,-249.15 2535.33,-256.15 2540.23,-256.15"/>
</g>
<!-- S&#45;034&#45;&gt;S&#45;941 -->
<g id="edge36" class="edge">
<title>S&#45;034&#45;&gt;S&#45;941</title>
<path fill="none" stroke="#4d4d4d" d="M1656.22,-337C1877.3,-337 2663.33,-337 2663.33,-337 2663.33,-337 2663.33,-244.22 2663.33,-244.22"/>
<polygon fill="#4d4d4d" stroke="#4d4d4d" points="2665.78,-244.22 2663.33,-237.22 2660.88,-244.22 2665.78,-244.22"/>
</g>
<!-- S&#45;034&#45;&gt;SW&#45;011_D -->
<g id="edge28" class="edge">
<title>S&#45;034&#45;&gt;SW&#45;011_D</title>
<path fill="none" stroke="#4d4d4d" d="M1565.44,-344C1357.62,-344 255,-344 255,-344 255,-344 255,-256.14 255,-256.14"/>
<polygon fill="#4d4d4d" stroke="#4d4d4d" points="257.45,-256.14 255,-249.14 252.55,-256.14 257.45,-256.14"/>
</g>
<!-- S&#45;034&#45;&gt;C&#45;1107 -->
<g id="edge33" class="edge">
<title>S&#45;034&#45;&gt;C&#45;1107</title>
<path fill="none" stroke="#4d4d4d" d="M1582.11,-349C1415.49,-349 72,-349 72,-349 72,-349 72,-256.22 72,-256.22"/>
<polygon fill="#4d4d4d" stroke="#4d4d4d" points="74.45,-256.22 72,-249.22 69.55,-256.22 74.45,-256.22"/>
</g>
<!-- S&#45;034&#45;&gt;kFED94 -->
<g id="edge23" class="edge">
<title>S&#45;034&#45;&gt;kFED94</title>
<path fill="none" stroke="#4d4d4d" d="M1532.01,-334C1308.4,-334 601.67,-334 601.67,-334 601.67,-334 601.67,-260.01 601.67,-260.01"/>
<polygon fill="#4d4d4d" stroke="#4d4d4d" points="604.12,-260.01 601.67,-253.01 599.22,-260.01 604.12,-260.01"/>
</g>
<!-- S&#45;034&#45;&gt;S&#45;1244 -->
<g id="edge22" class="edge">
<title>S&#45;034&#45;&gt;S&#45;1244</title>
<path fill="none" stroke="#4d4d4d" d="M1535.18,-330C1347.59,-330 811,-330 811,-330 811,-330 811,-256.24 811,-256.24"/>
<polygon fill="#4d4d4d" stroke="#4d4d4d" points="813.45,-256.24 811,-249.24 808.55,-256.24 813.45,-256.24"/>
</g>
<!-- S&#45;034&#45;&gt;S&#45;928 -->
<g id="edge34" class="edge">
<title>S&#45;034&#45;&gt;S&#45;928</title>
<path fill="none" stroke="#4d4d4d" d="M1552.05,-325C1409.44,-325 991,-325 991,-325 991,-325 991,-256.14 991,-256.14"/>
<polygon fill="#4d4d4d" stroke="#4d4d4d" points="993.45,-256.14 991,-249.14 988.55,-256.14 993.45,-256.14"/>
</g>
<!-- S&#45;034&#45;&gt;C&#45;1254 -->
<g id="edge35" class="edge">
<title>S&#45;034&#45;&gt;C&#45;1254</title>
<path fill="none" stroke="#4d4d4d" d="M1568.56,-320C1470.78,-320 1171,-320 1171,-320 1171,-320 1171,-256.42 1171,-256.42"/>
<polygon fill="#4d4d4d" stroke="#4d4d4d" points="1173.45,-256.42 1171,-249.42 1168.55,-256.42 1173.45,-256.42"/>
</g>
<!-- S&#45;034&#45;&gt;S&#45;2563 -->
<g id="edge31" class="edge">
<title>S&#45;034&#45;&gt;S&#45;2563</title>
<path fill="none" stroke="#4d4d4d" d="M1585.31,-315C1533.32,-315 1351,-315 1351,-315 1351,-315 1351,-256.13 1351,-256.13"/>
<polygon fill="#4d4d4d" stroke="#4d4d4d" points="1353.45,-256.13 1351,-249.13 1348.55,-256.13 1353.45,-256.13"/>
</g>
<!-- SW&#45;005_D -->
<g id="node18" class="node">
<title>SW&#45;005_D</title>
<polygon fill="tomato" stroke="black" points="514.79,-249 395.81,-249 365.21,-206 484.19,-206 514.79,-249"/>
<text text-anchor="middle" x="440" y="-225" font-family="Arial" font-size="10.00">SW&#45;005_D</text>
</g>
<!-- S&#45;034&#45;&gt;SW&#45;005_D -->
<g id="edge24" class="edge">
<title>S&#45;034&#45;&gt;SW&#45;005_D</title>
<path fill="none" stroke="#4d4d4d" d="M1548.45,-339C1325.38,-339 440,-339 440,-339 440,-339 440,-256.26 440,-256.26"/>
<polygon fill="#4d4d4d" stroke="#4d4d4d" points="442.45,-256.26 440,-249.26 437.55,-256.26 442.45,-256.26"/>
</g>
<!-- SW&#45;010_D -->
<g id="node19" class="node">
<title>SW&#45;010_D</title>
<polygon fill="tomato" stroke="black" points="1608.79,-249 1489.81,-249 1459.21,-206 1578.19,-206 1608.79,-249"/>
<text text-anchor="middle" x="1534" y="-225" font-family="Arial" font-size="10.00">SW&#45;010_D</text>
</g>
<!-- S&#45;034&#45;&gt;SW&#45;010_D -->
<g id="edge25" class="edge">
<title>S&#45;034&#45;&gt;SW&#45;010_D</title>
<path fill="none" stroke="#4d4d4d" d="M1567.82,-320.04C1567.82,-320.04 1567.82,-256.05 1567.82,-256.05"/>
<polygon fill="#4d4d4d" stroke="#4d4d4d" points="1570.27,-256.05 1567.82,-249.05 1565.37,-256.05 1570.27,-256.05"/>
</g>
<!-- C&#45;0816 -->
<g id="node23" class="node">
<title>C&#45;0816</title>
<ellipse fill="mediumseagreen" stroke="black" cx="2337" cy="-227.5" rx="72" ry="21.5"/>
<text text-anchor="middle" x="2337" y="-225" font-family="Arial" font-size="10.00">C&#45;0816</text>
</g>
<!-- S&#45;034&#45;&gt;C&#45;0816 -->
<g id="edge19" class="edge">
<title>S&#45;034&#45;&gt;C&#45;0816</title>
<path fill="none" stroke="#4d4d4d" d="M1652.67,-327C1822.5,-327 2337,-327 2337,-327 2337,-327 2337,-256.09 2337,-256.09"/>
<polygon fill="#4d4d4d" stroke="#4d4d4d" points="2339.45,-256.09 2337,-249.09 2334.55,-256.09 2339.45,-256.09"/>
</g>
<!-- C&#45;1295 -->
<g id="node25" class="node">
<title>C&#45;1295</title>
<ellipse fill="tomato" stroke="black" cx="1791" cy="-227.5" rx="72" ry="21.5"/>
<text text-anchor="middle" x="1791" y="-225" font-family="Arial" font-size="10.00">C&#45;1295</text>
</g>
<!-- S&#45;034&#45;&gt;C&#45;1295 -->
<g id="edge30" class="edge">
<title>S&#45;034&#45;&gt;C&#45;1295</title>
<path fill="none" stroke="#4d4d4d" d="M1650.22,-326.22C1650.22,-303.5 1650.22,-227 1650.22,-227 1650.22,-227 1711.96,-227 1711.96,-227"/>
<polygon fill="#4d4d4d" stroke="#4d4d4d" points="1711.96,-229.45 1718.96,-227 1711.96,-224.55 1711.96,-229.45"/>
</g>
<!-- S&#45;034&#45;&gt;SW&#45;011_A -->
<g id="edge26" class="edge">
<title>S&#45;034&#45;&gt;SW&#45;011_A</title>
<path fill="none" stroke="#4d4d4d" d="M1616.09,-316C1689.45,-316 1974,-316 1974,-316 1974,-316 1974,-256.38 1974,-256.38"/>
<polygon fill="#4d4d4d" stroke="#4d4d4d" points="1976.45,-256.38 1974,-249.38 1971.55,-256.38 1976.45,-256.38"/>
</g>
<!-- C&#45;0817 -->
<g id="node38" class="node">
<title>C&#45;0817</title>
<ellipse fill="tomato" stroke="black" cx="1664" cy="-122.5" rx="72" ry="21.5"/>
<text text-anchor="middle" x="1664" y="-120" font-family="Arial" font-size="10.00">C&#45;0817</text>
</g>
<!-- S&#45;034&#45;&gt;C&#45;0817 -->
<g id="edge21" class="edge">
<title>S&#45;034&#45;&gt;C&#45;0817</title>
<path fill="none" stroke="#4d4d4d" d="M1629.43,-319.99C1629.43,-319.99 1629.43,-148.65 1629.43,-148.65"/>
<polygon fill="#4d4d4d" stroke="#4d4d4d" points="1631.88,-148.65 1629.43,-141.65 1626.98,-148.65 1631.88,-148.65"/>
</g>
<!-- C&#45;1106 -->
<g id="node39" class="node">
<title>C&#45;1106</title>
<ellipse fill="mediumseagreen" stroke="black" cx="2157" cy="-227.5" rx="72" ry="21.5"/>
<text text-anchor="middle" x="2157" y="-225" font-family="Arial" font-size="10.00">C&#45;1106</text>
</g>
<!-- S&#45;034&#45;&gt;C&#45;1106 -->
<g id="edge32" class="edge">
<title>S&#45;034&#45;&gt;C&#45;1106</title>
<path fill="none" stroke="#4d4d4d" d="M1632.65,-321C1753.29,-321 2157,-321 2157,-321 2157,-321 2157,-256.19 2157,-256.19"/>
<polygon fill="#4d4d4d" stroke="#4d4d4d" points="2159.45,-256.19 2157,-249.19 2154.55,-256.19 2159.45,-256.19"/>
</g>
<!-- SW&#45;012_A -->
<g id="node40" class="node">
<title>SW&#45;012_A</title>
<polygon fill="tomato" stroke="black" points="2960.79,-249 2841.81,-249 2811.21,-206 2930.19,-206 2960.79,-249"/>
<text text-anchor="middle" x="2886" y="-225" font-family="Arial" font-size="10.00">SW&#45;012_A</text>
</g>
<!-- S&#45;034&#45;&gt;SW&#45;012_A -->
<g id="edge29" class="edge">
<title>S&#45;034&#45;&gt;SW&#45;012_A</title>
<path fill="none" stroke="#4d4d4d" d="M1636.05,-343C1844.28,-343 2859.68,-343 2859.68,-343 2859.68,-343 2859.68,-256.22 2859.68,-256.22"/>
<polygon fill="#4d4d4d" stroke="#4d4d4d" points="2862.13,-256.22 2859.68,-249.22 2857.23,-256.22 2862.13,-256.22"/>
</g>
<!-- ext_circ_109_27_ -->
<g id="node46" class="node">
<title>ext_circ_109_27_</title>
<polygon fill="lightpink" stroke="darkorange" stroke-dasharray="5,2" points="512,-144 368,-144 368,-101 512,-101 512,-144"/>
<text text-anchor="middle" x="440" y="-125.5" font-family="Arial" font-size="10.00">Circuito:</text>
<text text-anchor="middle" x="440" y="-114.5" font-family="Arial" font-size="10.00">109&#45;27&#45;</text>
</g>
<!-- SW&#45;005_D&#45;&gt;ext_circ_109_27_ -->
<g id="edge48" class="edge">
<title>SW&#45;005_D&#45;&gt;ext_circ_109_27_</title>
<path fill="none" stroke="darkorange" stroke-dasharray="5,2" d="M440,-206C440,-206 440,-151.33 440,-151.33"/>
<polygon fill="darkorange" stroke="darkorange" points="442.45,-151.33 440,-144.33 437.55,-151.33 442.45,-151.33"/>
</g>
<!-- ext_circ_109_29_ -->
<g id="node47" class="node">
<title>ext_circ_109_29_</title>
<polygon fill="lightpink" stroke="darkorange" stroke-dasharray="5,2" points="1556,-144 1412,-144 1412,-101 1556,-101 1556,-144"/>
<text text-anchor="middle" x="1484" y="-125.5" font-family="Arial" font-size="10.00">Circuito:</text>
<text text-anchor="middle" x="1484" y="-114.5" font-family="Arial" font-size="10.00">109&#45;29&#45;</text>
</g>
<!-- SW&#45;010_D&#45;&gt;ext_circ_109_29_ -->
<g id="edge49" class="edge">
<title>SW&#45;010_D&#45;&gt;ext_circ_109_29_</title>
<path fill="none" stroke="darkorange" stroke-dasharray="5,2" d="M1507.68,-206C1507.68,-206 1507.68,-151.33 1507.68,-151.33"/>
<polygon fill="darkorange" stroke="darkorange" points="1510.13,-151.33 1507.68,-144.33 1505.23,-151.33 1510.13,-151.33"/>
</g>
<!-- R&#45;108 -->
<g id="node20" class="node">
<title>R&#45;108</title>
<polygon fill="mediumseagreen" stroke="black" points="3088,-1131.59 3088,-1149.41 3045.82,-1162 2986.18,-1162 2944,-1149.41 2944,-1131.59 2986.18,-1119 3045.82,-1119 3088,-1131.59"/>
<text text-anchor="middle" x="3016" y="-1138" font-family="Arial" font-size="10.00">R&#45;108</text>
</g>
<!-- R&#45;108&#45;&gt;C&#45;0582 -->
<g id="edge9" class="edge">
<title>R&#45;108&#45;&gt;C&#45;0582</title>
<path fill="none" stroke="#4d4d4d" d="M3016,-1118.58C3016,-1118.58 3016,-1068.03 3016,-1068.03"/>
<polygon fill="#4d4d4d" stroke="#4d4d4d" points="3018.45,-1068.03 3016,-1061.03 3013.55,-1068.03 3018.45,-1068.03"/>
</g>
<!-- C&#45;0199 -->
<g id="node21" class="node">
<title>C&#45;0199</title>
<ellipse fill="mediumseagreen" stroke="black" cx="2836" cy="-837.5" rx="72" ry="21.5"/>
<text text-anchor="middle" x="2836" y="-835" font-family="Arial" font-size="10.00">C&#45;0199</text>
</g>
<!-- C&#45;0199&#45;&gt;C&#45;0930 -->
<g id="edge13" class="edge">
<title>C&#45;0199&#45;&gt;C&#45;0930</title>
<path fill="none" stroke="#4d4d4d" d="M2763.82,-837C2713.75,-837 2656,-837 2656,-837 2656,-837 2656,-765.31 2656,-765.31"/>
<polygon fill="#4d4d4d" stroke="#4d4d4d" points="2658.45,-765.31 2656,-758.31 2653.55,-765.31 2658.45,-765.31"/>
</g>
<!-- S&#45;118 -->
<g id="node30" class="node">
<title>S&#45;118</title>
<polygon fill="mediumseagreen" stroke="black" points="2836,-758 2764,-736.5 2836,-715 2908,-736.5 2836,-758"/>
<text text-anchor="middle" x="2836" y="-734" font-family="Arial" font-size="10.00">S&#45;118</text>
</g>
<!-- C&#45;0199&#45;&gt;S&#45;118 -->
<g id="edge12" class="edge">
<title>C&#45;0199&#45;&gt;S&#45;118</title>
<path fill="none" stroke="#4d4d4d" d="M2836,-815.58C2836,-815.58 2836,-765.03 2836,-765.03"/>
<polygon fill="#4d4d4d" stroke="#4d4d4d" points="2838.45,-765.03 2836,-758.03 2833.55,-765.03 2838.45,-765.03"/>
</g>
<!-- C&#45;0929 -->
<g id="node34" class="node">
<title>C&#45;0929</title>
<ellipse fill="mediumseagreen" stroke="black" cx="3016" cy="-736.5" rx="72" ry="21.5"/>
<text text-anchor="middle" x="3016" y="-734" font-family="Arial" font-size="10.00">C&#45;0929</text>
</g>
<!-- C&#45;0199&#45;&gt;C&#45;0929 -->
<g id="edge14" class="edge">
<title>C&#45;0199&#45;&gt;C&#45;0929</title>
<path fill="none" stroke="#4d4d4d" d="M2908.27,-837C2921.91,-837 2932,-837 2932,-837 2932,-837 2932,-736 2932,-736 2932,-736 2936.68,-736 2936.68,-736"/>
<polygon fill="#4d4d4d" stroke="#4d4d4d" points="2936.68,-738.45 2943.68,-736 2936.68,-733.55 2936.68,-738.45"/>
</g>
<!-- C&#45;0581&#45;&gt;R&#45;108 -->
<g id="edge8" class="edge">
<title>C&#45;0581&#45;&gt;R&#45;108</title>
<path fill="none" stroke="#4d4d4d" d="M3016,-1219.58C3016,-1219.58 3016,-1169.03 3016,-1169.03"/>
<polygon fill="#4d4d4d" stroke="#4d4d4d" points="3018.45,-1169.03 3016,-1162.03 3013.55,-1169.03 3018.45,-1169.03"/>
</g>
<!-- R&#45;183 -->
<g id="node24" class="node">
<title>R&#45;183</title>
<polygon fill="tomato" stroke="black" points="2343,-113.59 2343,-131.41 2300.82,-144 2241.18,-144 2199,-131.41 2199,-113.59 2241.18,-101 2300.82,-101 2343,-113.59"/>
<text text-anchor="middle" x="2271" y="-120" font-family="Arial" font-size="10.00">R&#45;183</text>
</g>
<!-- C&#45;0816&#45;&gt;R&#45;183 -->
<g id="edge20" class="edge">
<title>C&#45;0816&#45;&gt;R&#45;183</title>
<path fill="none" stroke="#4d4d4d" d="M2304,-208.24C2304,-208.24 2304,-150.07 2304,-150.07"/>
<polygon fill="#4d4d4d" stroke="#4d4d4d" points="2306.45,-150.07 2304,-143.07 2301.55,-150.07 2306.45,-150.07"/>
</g>
<!-- ext_circ_109_20_ -->
<g id="node45" class="node">
<title>ext_circ_109_20_</title>
<polygon fill="lightpink" stroke="darkorange" stroke-dasharray="5,2" points="2039,-43 1895,-43 1895,0 2039,0 2039,-43"/>
<text text-anchor="middle" x="1967" y="-24.5" font-family="Arial" font-size="10.00">Circuito:</text>
<text text-anchor="middle" x="1967" y="-13.5" font-family="Arial" font-size="10.00">109&#45;20&#45;</text>
</g>
<!-- R&#45;183&#45;&gt;ext_circ_109_20_ -->
<g id="edge46" class="edge">
<title>R&#45;183&#45;&gt;ext_circ_109_20_</title>
<path fill="none" stroke="darkorange" stroke-dasharray="5,2" d="M2271,-100.97C2271,-71.18 2271,-21 2271,-21 2271,-21 2046.04,-21 2046.04,-21"/>
<polygon fill="darkorange" stroke="darkorange" points="2046.04,-18.55 2039.04,-21 2046.04,-23.45 2046.04,-18.55"/>
</g>
<!-- ext_circ_101_25_ -->
<g id="node50" class="node">
<title>ext_circ_101_25_</title>
<polygon fill="lightpink" stroke="darkorange" stroke-dasharray="5,2" points="1916,-144 1772,-144 1772,-101 1916,-101 1916,-144"/>
<text text-anchor="middle" x="1844" y="-125.5" font-family="Arial" font-size="10.00">Circuito:</text>
<text text-anchor="middle" x="1844" y="-114.5" font-family="Arial" font-size="10.00">101&#45;25&#45;</text>
</g>
<!-- C&#45;1295&#45;&gt;ext_circ_101_25_ -->
<g id="edge54" class="edge">
<title>C&#45;1295&#45;&gt;ext_circ_101_25_</title>
<path fill="none" stroke="darkorange" stroke-dasharray="5,2" d="M1817.5,-207.25C1817.5,-207.25 1817.5,-151.13 1817.5,-151.13"/>
<polygon fill="darkorange" stroke="darkorange" points="1819.95,-151.13 1817.5,-144.13 1815.05,-151.13 1819.95,-151.13"/>
</g>
<!-- ext_circ__NA_ -->
<g id="node48" class="node">
<title>ext_circ__NA_</title>
<polygon fill="lightpink" stroke="darkorange" stroke-dasharray="5,2" points="2096,-144 1952,-144 1952,-101 2096,-101 2096,-144"/>
<text text-anchor="middle" x="2024" y="-125.5" font-family="Arial" font-size="10.00">Circuito:</text>
<text text-anchor="middle" x="2024" y="-114.5" font-family="Arial" font-size="10.00">&lt;NA&gt;</text>
</g>
<!-- SW&#45;011_A&#45;&gt;ext_circ__NA_ -->
<g id="edge50" class="edge">
<title>SW&#45;011_A&#45;&gt;ext_circ__NA_</title>
<path fill="none" stroke="darkorange" stroke-dasharray="5,2" d="M2000.32,-206C2000.32,-206 2000.32,-151.33 2000.32,-151.33"/>
<polygon fill="darkorange" stroke="darkorange" points="2002.77,-151.33 2000.32,-144.33 1997.87,-151.33 2002.77,-151.33"/>
</g>
<!-- S&#45;117 -->
<g id="node27" class="node">
<title>S&#45;117</title>
<polygon fill="mediumseagreen" stroke="black" points="3016,-859 2944,-837.5 3016,-816 3088,-837.5 3016,-859"/>
<text text-anchor="middle" x="3016" y="-835" font-family="Arial" font-size="10.00">S&#45;117</text>
</g>
<!-- S&#45;778 -->
<g id="node28" class="node">
<title>S&#45;778</title>
<polygon fill="mediumseagreen" stroke="black" points="3196,-859 3124,-837.5 3196,-816 3268,-837.5 3196,-859"/>
<text text-anchor="middle" x="3196" y="-835" font-family="Arial" font-size="10.00">S&#45;778</text>
</g>
<!-- C&#45;0807 -->
<g id="node29" class="node">
<title>C&#45;0807</title>
<ellipse fill="tomato" stroke="black" cx="3196" cy="-332.5" rx="72" ry="21.5"/>
<text text-anchor="middle" x="3196" y="-330" font-family="Arial" font-size="10.00">C&#45;0807</text>
</g>
<!-- ext_circ_113_24_ -->
<g id="node52" class="node">
<title>ext_circ_113_24_</title>
<polygon fill="lightpink" stroke="darkorange" stroke-dasharray="5,2" points="3204,-144 3060,-144 3060,-101 3204,-101 3204,-144"/>
<text text-anchor="middle" x="3132" y="-125.5" font-family="Arial" font-size="10.00">Circuito:</text>
<text text-anchor="middle" x="3132" y="-114.5" font-family="Arial" font-size="10.00">113&#45;24&#45;</text>
</g>
<!-- C&#45;0807&#45;&gt;ext_circ_113_24_ -->
<g id="edge57" class="edge">
<title>C&#45;0807&#45;&gt;ext_circ_113_24_</title>
<path fill="none" stroke="darkorange" stroke-dasharray="5,2" d="M3172.5,-311.98C3172.5,-311.98 3172.5,-151.04 3172.5,-151.04"/>
<polygon fill="darkorange" stroke="darkorange" points="3174.95,-151.04 3172.5,-144.04 3170.05,-151.04 3174.95,-151.04"/>
</g>
<!-- R&#45;219 -->
<g id="node31" class="node">
<title>R&#45;219</title>
<polygon fill="mediumseagreen" stroke="black" points="3088,-626.59 3088,-644.41 3045.82,-657 2986.18,-657 2944,-644.41 2944,-626.59 2986.18,-614 3045.82,-614 3088,-626.59"/>
<text text-anchor="middle" x="3016" y="-633" font-family="Arial" font-size="10.00">R&#45;219</text>
</g>
<!-- R&#45;219&#45;&gt;C&#45;0931 -->
<g id="edge16" class="edge">
<title>R&#45;219&#45;&gt;C&#45;0931</title>
<path fill="none" stroke="#4d4d4d" d="M3016,-613.58C3016,-613.58 3016,-563.03 3016,-563.03"/>
<polygon fill="#4d4d4d" stroke="#4d4d4d" points="3018.45,-563.03 3016,-556.03 3013.55,-563.03 3018.45,-563.03"/>
</g>
<!-- C&#45;0931&#45;&gt;S&#45;1757 -->
<g id="edge41" class="edge">
<title>C&#45;0931&#45;&gt;S&#45;1757</title>
<path fill="none" stroke="#4d4d4d" d="M2948.46,-527C2897.39,-527 2836,-527 2836,-527 2836,-527 2836,-462.19 2836,-462.19"/>
<polygon fill="#4d4d4d" stroke="#4d4d4d" points="2838.45,-462.19 2836,-455.19 2833.55,-462.19 2838.45,-462.19"/>
</g>
<!-- R&#45;076 -->
<g id="node41" class="node">
<title>R&#45;076</title>
<polygon fill="mediumseagreen" stroke="black" points="3088,-424.59 3088,-442.41 3045.82,-455 2986.18,-455 2944,-442.41 2944,-424.59 2986.18,-412 3045.82,-412 3088,-424.59"/>
<text text-anchor="middle" x="3016" y="-431" font-family="Arial" font-size="10.00">R&#45;076</text>
</g>
<!-- C&#45;0931&#45;&gt;R&#45;076 -->
<g id="edge17" class="edge">
<title>C&#45;0931&#45;&gt;R&#45;076</title>
<path fill="none" stroke="#4d4d4d" d="M3016,-512.58C3016,-512.58 3016,-462.03 3016,-462.03"/>
<polygon fill="#4d4d4d" stroke="#4d4d4d" points="3018.45,-462.03 3016,-455.03 3013.55,-462.03 3018.45,-462.03"/>
</g>
<!-- S&#45;1756 -->
<g id="node44" class="node">
<title>S&#45;1756</title>
<polygon fill="mediumseagreen" stroke="black" points="3196,-455 3124,-433.5 3196,-412 3268,-433.5 3196,-455"/>
<text text-anchor="middle" x="3196" y="-431" font-family="Arial" font-size="10.00">S&#45;1756</text>
</g>
<!-- C&#45;0931&#45;&gt;S&#45;1756 -->
<g id="edge40" class="edge">
<title>C&#45;0931&#45;&gt;S&#45;1756</title>
<path fill="none" stroke="#4d4d4d" d="M3088.18,-534C3138.25,-534 3196,-534 3196,-534 3196,-534 3196,-462.31 3196,-462.31"/>
<polygon fill="#4d4d4d" stroke="#4d4d4d" points="3198.45,-462.31 3196,-455.31 3193.55,-462.31 3198.45,-462.31"/>
</g>
<!-- C&#45;0052 -->
<g id="node33" class="node">
<title>C&#45;0052</title>
<ellipse fill="mediumseagreen" stroke="black" cx="2746" cy="-1443.5" rx="72" ry="21.5"/>
<text text-anchor="middle" x="2746" y="-1441" font-family="Arial" font-size="10.00">C&#45;0052</text>
</g>
<!-- C&#45;0052&#45;&gt;S&#45;2361 -->
<g id="edge2" class="edge">
<title>C&#45;0052&#45;&gt;S&#45;2361</title>
<path fill="none" stroke="#4d4d4d" d="M2701,-1426.37C2701,-1426.37 2701,-1357.78 2701,-1357.78"/>
<polygon fill="#4d4d4d" stroke="#4d4d4d" points="2703.45,-1357.78 2701,-1350.78 2698.55,-1357.78 2703.45,-1357.78"/>
</g>
<!-- C&#45;0052&#45;&gt;C&#45;0024 -->
<g id="edge5" class="edge">
<title>C&#45;0052&#45;&gt;C&#45;0024</title>
<path fill="none" stroke="#4d4d4d" d="M2791,-1426.37C2791,-1426.37 2791,-1366.38 2791,-1366.38"/>
<polygon fill="#4d4d4d" stroke="#4d4d4d" points="2793.45,-1366.38 2791,-1359.38 2788.55,-1366.38 2793.45,-1366.38"/>
</g>
<!-- C&#45;0929&#45;&gt;R&#45;219 -->
<g id="edge15" class="edge">
<title>C&#45;0929&#45;&gt;R&#45;219</title>
<path fill="none" stroke="#4d4d4d" d="M3016,-714.58C3016,-714.58 3016,-664.03 3016,-664.03"/>
<polygon fill="#4d4d4d" stroke="#4d4d4d" points="3018.45,-664.03 3016,-657.03 3013.55,-664.03 3018.45,-664.03"/>
</g>
<!-- S&#45;2444&#45;&gt;S&#45;2445 -->
<g id="edge4" class="edge">
<title>S&#45;2444&#45;&gt;S&#45;2445</title>
<path fill="none" stroke="#4d4d4d" d="M2656,-1219.58C2656,-1219.58 2656,-1169.03 2656,-1169.03"/>
<polygon fill="#4d4d4d" stroke="#4d4d4d" points="2658.45,-1169.03 2656,-1162.03 2653.55,-1169.03 2658.45,-1169.03"/>
</g>
<!-- C&#45;0580&#45;&gt;C&#45;0297 -->
<g id="edge44" class="edge">
<title>C&#45;0580&#45;&gt;C&#45;0297</title>
<path fill="none" stroke="blue" stroke-dasharray="5,2" d="M2812,-1221.12C2812,-1154.13 2812,-945 2812,-945 2812,-945 2940.22,-945 2940.22,-945"/>
<polygon fill="blue" stroke="blue" points="2940.22,-947.45 2947.22,-945 2940.22,-942.55 2940.22,-947.45"/>
</g>
<!-- 114&#45;23&#45; -->
<g id="node37" class="node">
<title>114&#45;23&#45;</title>
<polygon fill="gold" stroke="black" points="2818,-1539.59 2818,-1557.41 2775.82,-1570 2716.18,-1570 2674,-1557.41 2674,-1539.59 2716.18,-1527 2775.82,-1527 2818,-1539.59"/>
<polygon fill="none" stroke="black" points="2822,-1536.61 2822,-1560.39 2776.41,-1574 2715.59,-1574 2670,-1560.39 2670,-1536.61 2715.59,-1523 2776.41,-1523 2822,-1536.61"/>
<text text-anchor="middle" x="2746" y="-1546" font-family="Arial" font-size="10.00">114&#45;23&#45;</text>
</g>
<!-- 114&#45;23&#45;&#45;&gt;C&#45;0052 -->
<g id="edge1" class="edge">
<title>114&#45;23&#45;&#45;&gt;C&#45;0052</title>
<path fill="none" stroke="#4d4d4d" d="M2746,-1522.81C2746,-1522.81 2746,-1472.03 2746,-1472.03"/>
<polygon fill="#4d4d4d" stroke="#4d4d4d" points="2748.45,-1472.03 2746,-1465.03 2743.55,-1472.03 2748.45,-1472.03"/>
</g>
<!-- C&#45;0817&#45;&gt;ext_circ_109_20_ -->
<g id="edge47" class="edge">
<title>C&#45;0817&#45;&gt;ext_circ_109_20_</title>
<path fill="none" stroke="darkorange" stroke-dasharray="5,2" d="M1664,-100.97C1664,-71.18 1664,-21 1664,-21 1664,-21 1887.81,-21 1887.81,-21"/>
<polygon fill="darkorange" stroke="darkorange" points="1887.81,-23.45 1894.81,-21 1887.81,-18.55 1887.81,-23.45"/>
</g>
<!-- ext_circ_109_24_ -->
<g id="node49" class="node">
<title>ext_circ_109_24_</title>
<polygon fill="lightpink" stroke="darkorange" stroke-dasharray="5,2" points="2958,-144 2814,-144 2814,-101 2958,-101 2958,-144"/>
<text text-anchor="middle" x="2886" y="-125.5" font-family="Arial" font-size="10.00">Circuito:</text>
<text text-anchor="middle" x="2886" y="-114.5" font-family="Arial" font-size="10.00">109&#45;24&#45;</text>
</g>
<!-- SW&#45;012_A&#45;&gt;ext_circ_109_24_ -->
<g id="edge53" class="edge">
<title>SW&#45;012_A&#45;&gt;ext_circ_109_24_</title>
<path fill="none" stroke="darkorange" stroke-dasharray="5,2" d="M2886,-206C2886,-206 2886,-151.33 2886,-151.33"/>
<polygon fill="darkorange" stroke="darkorange" points="2888.45,-151.33 2886,-144.33 2883.55,-151.33 2888.45,-151.33"/>
</g>
<!-- R&#45;076&#45;&gt;C&#45;0805 -->
<g id="edge37" class="edge">
<title>R&#45;076&#45;&gt;C&#45;0805</title>
<path fill="none" stroke="#4d4d4d" d="M3016,-411.58C3016,-411.58 3016,-361.03 3016,-361.03"/>
<polygon fill="#4d4d4d" stroke="#4d4d4d" points="3018.45,-361.03 3016,-354.03 3013.55,-361.03 3018.45,-361.03"/>
</g>
<!-- R&#45;076&#45;&gt;S&#45;034 -->
<g id="edge18" class="edge">
<title>R&#45;076&#45;&gt;S&#45;034</title>
<path fill="none" stroke="#4d4d4d" d="M2943.73,-433C2930.09,-433 2920,-433 2920,-433 2920,-433 2920,-348 2920,-348 2920,-348 1626.22,-348 1626.22,-348"/>
<polygon fill="#4d4d4d" stroke="#4d4d4d" points="1626.22,-345.55 1619.22,-348 1626.22,-350.45 1626.22,-345.55"/>
</g>
<!-- R&#45;076&#45;&gt;C&#45;0807 -->
<g id="edge39" class="edge">
<title>R&#45;076&#45;&gt;C&#45;0807</title>
<path fill="none" stroke="#4d4d4d" d="M3088.22,-433C3098.68,-433 3106,-433 3106,-433 3106,-433 3106,-332 3106,-332 3106,-332 3116.78,-332 3116.78,-332"/>
<polygon fill="#4d4d4d" stroke="#4d4d4d" points="3116.78,-334.45 3123.78,-332 3116.78,-329.55 3116.78,-334.45"/>
</g>
<!-- C&#45;0297&#45;&gt;C&#45;0199 -->
<g id="edge11" class="edge">
<title>C&#45;0297&#45;&gt;C&#45;0199</title>
<path fill="none" stroke="#4d4d4d" d="M2948.48,-931C2906.32,-931 2860,-931 2860,-931 2860,-931 2860,-864.79 2860,-864.79"/>
<polygon fill="#4d4d4d" stroke="#4d4d4d" points="2862.45,-864.79 2860,-857.79 2857.55,-864.79 2862.45,-864.79"/>
</g>
<!-- C&#45;0297&#45;&gt;S&#45;117 -->
<g id="edge43" class="edge">
<title>C&#45;0297&#45;&gt;S&#45;117</title>
<path fill="none" stroke="#4d4d4d" d="M3016,-916.58C3016,-916.58 3016,-866.03 3016,-866.03"/>
<polygon fill="#4d4d4d" stroke="#4d4d4d" points="3018.45,-866.03 3016,-859.03 3013.55,-866.03 3018.45,-866.03"/>
</g>
<!-- C&#45;0297&#45;&gt;S&#45;778 -->
<g id="edge42" class="edge">
<title>C&#45;0297&#45;&gt;S&#45;778</title>
<path fill="none" stroke="#4d4d4d" d="M3088.18,-938C3138.25,-938 3196,-938 3196,-938 3196,-938 3196,-866.31 3196,-866.31"/>
<polygon fill="#4d4d4d" stroke="#4d4d4d" points="3198.45,-866.31 3196,-859.31 3193.55,-866.31 3198.45,-866.31"/>
</g>
<!-- R&#45;180&#45;&gt;ext_circ_113_24_ -->
<g id="edge56" class="edge">
<title>R&#45;180&#45;&gt;ext_circ_113_24_</title>
<path fill="none" stroke="darkorange" stroke-dasharray="5,2" d="M3100.5,-206.25C3100.5,-206.25 3100.5,-151.08 3100.5,-151.08"/>
<polygon fill="darkorange" stroke="darkorange" points="3102.95,-151.08 3100.5,-144.08 3098.05,-151.08 3102.95,-151.08"/>
</g>
</g>
</svg>
