<?xml version="1.0" encoding="UTF-8" standalone="no"?>
<!DOCTYPE svg PUBLIC "-//W3C//DTD SVG 1.1//EN"
 "http://www.w3.org/Graphics/SVG/1.1/DTD/svg11.dtd">
<!-- Generated by graphviz version 2.50.0 (0)
 -->
<!-- Title: Grafo_Circuito_208_28_ Pages: 1 -->
<svg width="2926pt" height="867pt"
 viewBox="0.00 0.00 2926.00 867.00" xmlns="http://www.w3.org/2000/svg" xmlns:xlink="http://www.w3.org/1999/xlink">
<g id="graph0" class="graph" transform="scale(1 1) rotate(0) translate(4 863)">
<title>Grafo_Circuito_208_28_</title>
<polygon fill="white" stroke="transparent" points="-4,4 -4,-863 2922,-863 2922,4 -4,4"/>
<!-- S&#45;1465 -->
<g id="node1" class="node">
<title>S&#45;1465</title>
<polygon fill="tomato" stroke="black" points="792,-346 720,-324.5 792,-303 864,-324.5 792,-346"/>
<text text-anchor="middle" x="792" y="-322" font-family="Arial" font-size="10.00">S&#45;1465</text>
</g>
<!-- S&#45;1805 -->
<g id="node2" class="node">
<title>S&#45;1805</title>
<polygon fill="mediumseagreen" stroke="black" points="972,-346 900,-324.5 972,-303 1044,-324.5 972,-346"/>
<text text-anchor="middle" x="972" y="-322" font-family="Arial" font-size="10.00">S&#45;1805</text>
</g>
<!-- C&#45;0684 -->
<g id="node3" class="node">
<title>C&#45;0684</title>
<ellipse fill="mediumseagreen" stroke="black" cx="1197" cy="-526.5" rx="72" ry="21.5"/>
<text text-anchor="middle" x="1197" y="-524" font-family="Arial" font-size="10.00">C&#45;0684</text>
</g>
<!-- S&#45;2303 -->
<g id="node6" class="node">
<title>S&#45;2303</title>
<polygon fill="mediumseagreen" stroke="black" points="207,-447 135,-425.5 207,-404 279,-425.5 207,-447"/>
<text text-anchor="middle" x="207" y="-423" font-family="Arial" font-size="10.00">S&#45;2303</text>
</g>
<!-- C&#45;0684&#45;&gt;S&#45;2303 -->
<g id="edge5" class="edge">
<title>C&#45;0684&#45;&gt;S&#45;2303</title>
<path fill="none" stroke="#4d4d4d" d="M1138.4,-539C925.73,-539 207,-539 207,-539 207,-539 207,-454.12 207,-454.12"/>
<polygon fill="#4d4d4d" stroke="#4d4d4d" points="209.45,-454.12 207,-447.12 204.55,-454.12 209.45,-454.12"/>
</g>
<!-- S&#45;1860 -->
<g id="node8" class="node">
<title>S&#45;1860</title>
<polygon fill="mediumseagreen" stroke="black" points="387,-447 315,-425.5 387,-404 459,-425.5 387,-447"/>
<text text-anchor="middle" x="387" y="-423" font-family="Arial" font-size="10.00">S&#45;1860</text>
</g>
<!-- C&#45;0684&#45;&gt;S&#45;1860 -->
<g id="edge11" class="edge">
<title>C&#45;0684&#45;&gt;S&#45;1860</title>
<path fill="none" stroke="#4d4d4d" d="M1125.83,-530C928.17,-530 387,-530 387,-530 387,-530 387,-454.15 387,-454.15"/>
<polygon fill="#4d4d4d" stroke="#4d4d4d" points="389.45,-454.15 387,-447.15 384.55,-454.15 389.45,-454.15"/>
</g>
<!-- S&#45;2365 -->
<g id="node9" class="node">
<title>S&#45;2365</title>
<polygon fill="mediumseagreen" stroke="black" points="567,-447 495,-425.5 567,-404 639,-425.5 567,-447"/>
<text text-anchor="middle" x="567" y="-423" font-family="Arial" font-size="10.00">S&#45;2365</text>
</g>
<!-- C&#45;0684&#45;&gt;S&#45;2365 -->
<g id="edge9" class="edge">
<title>C&#45;0684&#45;&gt;S&#45;2365</title>
<path fill="none" stroke="#4d4d4d" d="M1126.56,-522C962.17,-522 567,-522 567,-522 567,-522 567,-454.4 567,-454.4"/>
<polygon fill="#4d4d4d" stroke="#4d4d4d" points="569.45,-454.4 567,-447.4 564.55,-454.4 569.45,-454.4"/>
</g>
<!-- C&#45;0064 -->
<g id="node18" class="node">
<title>C&#45;0064</title>
<ellipse fill="mediumseagreen" stroke="black" cx="747" cy="-425.5" rx="72" ry="21.5"/>
<text text-anchor="middle" x="747" y="-423" font-family="Arial" font-size="10.00">C&#45;0064</text>
</g>
<!-- C&#45;0684&#45;&gt;C&#45;0064 -->
<g id="edge12" class="edge">
<title>C&#45;0684&#45;&gt;C&#45;0064</title>
<path fill="none" stroke="#4d4d4d" d="M1140.92,-513C1020.29,-513 747,-513 747,-513 747,-513 747,-454.13 747,-454.13"/>
<polygon fill="#4d4d4d" stroke="#4d4d4d" points="749.45,-454.13 747,-447.13 744.55,-454.13 749.45,-454.13"/>
</g>
<!-- S&#45;2462 -->
<g id="node19" class="node">
<title>S&#45;2462</title>
<polygon fill="mediumseagreen" stroke="black" points="1197,-447 1125,-425.5 1197,-404 1269,-425.5 1197,-447"/>
<text text-anchor="middle" x="1197" y="-423" font-family="Arial" font-size="10.00">S&#45;2462</text>
</g>
<!-- C&#45;0684&#45;&gt;S&#45;2462 -->
<g id="edge17" class="edge">
<title>C&#45;0684&#45;&gt;S&#45;2462</title>
<path fill="none" stroke="#4d4d4d" d="M1153.8,-508.91C1153.8,-508.91 1153.8,-441.2 1153.8,-441.2"/>
<polygon fill="#4d4d4d" stroke="#4d4d4d" points="1156.25,-441.2 1153.8,-434.2 1151.35,-441.2 1156.25,-441.2"/>
</g>
<!-- R&#45;089 -->
<g id="node21" class="node">
<title>R&#45;089</title>
<polygon fill="mediumseagreen" stroke="black" points="1584,-416.59 1584,-434.41 1541.82,-447 1482.18,-447 1440,-434.41 1440,-416.59 1482.18,-404 1541.82,-404 1584,-416.59"/>
<text text-anchor="middle" x="1512" y="-423" font-family="Arial" font-size="10.00">R&#45;089</text>
</g>
<!-- C&#45;0684&#45;&gt;R&#45;089 -->
<g id="edge18" class="edge">
<title>C&#45;0684&#45;&gt;R&#45;089</title>
<path fill="none" stroke="#4d4d4d" d="M1269.22,-526C1279.68,-526 1287,-526 1287,-526 1287,-526 1287,-432 1287,-432 1287,-432 1432.88,-432 1432.88,-432"/>
<polygon fill="#4d4d4d" stroke="#4d4d4d" points="1432.88,-434.45 1439.88,-432 1432.88,-429.55 1432.88,-434.45"/>
</g>
<!-- S&#45;2159 -->
<g id="node23" class="node">
<title>S&#45;2159</title>
<polygon fill="mediumseagreen" stroke="black" points="1692,-447 1620,-425.5 1692,-404 1764,-425.5 1692,-447"/>
<text text-anchor="middle" x="1692" y="-423" font-family="Arial" font-size="10.00">S&#45;2159</text>
</g>
<!-- C&#45;0684&#45;&gt;S&#45;2159 -->
<g id="edge16" class="edge">
<title>C&#45;0684&#45;&gt;S&#45;2159</title>
<path fill="none" stroke="#4d4d4d" d="M1182.6,-505.41C1182.6,-486.27 1182.6,-461 1182.6,-461 1182.6,-461 1692,-461 1692,-461 1692,-461 1692,-454.38 1692,-454.38"/>
<polygon fill="#4d4d4d" stroke="#4d4d4d" points="1694.45,-454.38 1692,-447.38 1689.55,-454.38 1694.45,-454.38"/>
</g>
<!-- C&#45;0464 -->
<g id="node27" class="node">
<title>C&#45;0464</title>
<ellipse fill="tomato" stroke="black" cx="2269" cy="-425.5" rx="72" ry="21.5"/>
<text text-anchor="middle" x="2269" y="-423" font-family="Arial" font-size="10.00">C&#45;0464</text>
</g>
<!-- C&#45;0684&#45;&gt;C&#45;0464 -->
<g id="edge8" class="edge">
<title>C&#45;0684&#45;&gt;C&#45;0464</title>
<path fill="none" stroke="#4d4d4d" d="M1211.4,-505.38C1211.4,-491.54 1211.4,-476 1211.4,-476 1211.4,-476 2269,-476 2269,-476 2269,-476 2269,-454.21 2269,-454.21"/>
<polygon fill="#4d4d4d" stroke="#4d4d4d" points="2271.45,-454.21 2269,-447.21 2266.55,-454.21 2271.45,-454.21"/>
</g>
<!-- C&#45;0465 -->
<g id="node28" class="node">
<title>C&#45;0465</title>
<ellipse fill="mediumseagreen" stroke="black" cx="2647" cy="-425.5" rx="72" ry="21.5"/>
<text text-anchor="middle" x="2647" y="-423" font-family="Arial" font-size="10.00">C&#45;0465</text>
</g>
<!-- C&#45;0684&#45;&gt;C&#45;0465 -->
<g id="edge6" class="edge">
<title>C&#45;0684&#45;&gt;C&#45;0465</title>
<path fill="none" stroke="#4d4d4d" d="M1240.2,-509.11C1240.2,-499.7 1240.2,-490 1240.2,-490 1240.2,-490 2647,-490 2647,-490 2647,-490 2647,-454.34 2647,-454.34"/>
<polygon fill="#4d4d4d" stroke="#4d4d4d" points="2649.45,-454.34 2647,-447.34 2644.55,-454.34 2649.45,-454.34"/>
</g>
<!-- S&#45;1686 -->
<g id="node4" class="node">
<title>S&#45;1686</title>
<polygon fill="mediumseagreen" stroke="black" points="1152,-346 1080,-324.5 1152,-303 1224,-324.5 1152,-346"/>
<text text-anchor="middle" x="1152" y="-322" font-family="Arial" font-size="10.00">S&#45;1686</text>
</g>
<!-- C&#45;0171 -->
<g id="node5" class="node">
<title>C&#45;0171</title>
<ellipse fill="tomato" stroke="black" cx="1107" cy="-728.5" rx="72" ry="21.5"/>
<text text-anchor="middle" x="1107" y="-726" font-family="Arial" font-size="10.00">C&#45;0171</text>
</g>
<!-- ext_circ_208_25_ -->
<g id="node43" class="node">
<title>ext_circ_208_25_</title>
<polygon fill="lightpink" stroke="darkorange" stroke-dasharray="5,2" points="1179,-649 1035,-649 1035,-606 1179,-606 1179,-649"/>
<text text-anchor="middle" x="1107" y="-630.5" font-family="Arial" font-size="10.00">Circuito:</text>
<text text-anchor="middle" x="1107" y="-619.5" font-family="Arial" font-size="10.00">208&#45;25&#45;</text>
</g>
<!-- C&#45;0171&#45;&gt;ext_circ_208_25_ -->
<g id="edge46" class="edge">
<title>C&#45;0171&#45;&gt;ext_circ_208_25_</title>
<path fill="none" stroke="darkorange" stroke-dasharray="5,2" d="M1107,-706.58C1107,-706.58 1107,-656.03 1107,-656.03"/>
<polygon fill="darkorange" stroke="darkorange" points="1109.45,-656.03 1107,-649.03 1104.55,-656.03 1109.45,-656.03"/>
</g>
<!-- S&#45;2479 -->
<g id="node7" class="node">
<title>S&#45;2479</title>
<polygon fill="mediumseagreen" stroke="black" points="72,-346 0,-324.5 72,-303 144,-324.5 72,-346"/>
<text text-anchor="middle" x="72" y="-322" font-family="Arial" font-size="10.00">S&#45;2479</text>
</g>
<!-- S&#45;2365&#45;&gt;S&#45;2479 -->
<g id="edge10" class="edge">
<title>S&#45;2365&#45;&gt;S&#45;2479</title>
<path fill="none" stroke="#4d4d4d" d="M498,-424.54C498,-417.17 498,-370 498,-370 498,-370 139.5,-370 139.5,-370 139.5,-370 139.5,-333.01 139.5,-333.01"/>
<polygon fill="#4d4d4d" stroke="#4d4d4d" points="141.95,-333.01 139.5,-326.01 137.05,-333.01 141.95,-333.01"/>
</g>
<!-- C&#45;0683 -->
<g id="node10" class="node">
<title>C&#45;0683</title>
<ellipse fill="mediumseagreen" stroke="black" cx="1287" cy="-627.5" rx="72" ry="21.5"/>
<text text-anchor="middle" x="1287" y="-625" font-family="Arial" font-size="10.00">C&#45;0683</text>
</g>
<!-- C&#45;0683&#45;&gt;C&#45;0684 -->
<g id="edge4" class="edge">
<title>C&#45;0683&#45;&gt;C&#45;0684</title>
<path fill="none" stroke="#4d4d4d" d="M1242,-610.37C1242,-610.37 1242,-550.38 1242,-550.38"/>
<polygon fill="#4d4d4d" stroke="#4d4d4d" points="1244.45,-550.38 1242,-543.38 1239.55,-550.38 1244.45,-550.38"/>
</g>
<!-- S&#45;2342 -->
<g id="node36" class="node">
<title>S&#45;2342</title>
<polygon fill="mediumseagreen" stroke="black" points="1377,-548 1305,-526.5 1377,-505 1449,-526.5 1377,-548"/>
<text text-anchor="middle" x="1377" y="-524" font-family="Arial" font-size="10.00">S&#45;2342</text>
</g>
<!-- C&#45;0683&#45;&gt;S&#45;2342 -->
<g id="edge3" class="edge">
<title>C&#45;0683&#45;&gt;S&#45;2342</title>
<path fill="none" stroke="#4d4d4d" d="M1332,-610.37C1332,-610.37 1332,-541.78 1332,-541.78"/>
<polygon fill="#4d4d4d" stroke="#4d4d4d" points="1334.45,-541.78 1332,-534.78 1329.55,-541.78 1334.45,-541.78"/>
</g>
<!-- C&#45;0467 -->
<g id="node11" class="node">
<title>C&#45;0467</title>
<ellipse fill="tomato" stroke="black" cx="1872" cy="-122.5" rx="72" ry="21.5"/>
<text text-anchor="middle" x="1872" y="-120" font-family="Arial" font-size="10.00">C&#45;0467</text>
</g>
<!-- ext_circ_112_23_ -->
<g id="node42" class="node">
<title>ext_circ_112_23_</title>
<polygon fill="lightpink" stroke="darkorange" stroke-dasharray="5,2" points="1989,-43 1845,-43 1845,0 1989,0 1989,-43"/>
<text text-anchor="middle" x="1917" y="-24.5" font-family="Arial" font-size="10.00">Circuito:</text>
<text text-anchor="middle" x="1917" y="-13.5" font-family="Arial" font-size="10.00">112&#45;23&#45;</text>
</g>
<!-- C&#45;0467&#45;&gt;ext_circ_112_23_ -->
<g id="edge44" class="edge">
<title>C&#45;0467&#45;&gt;ext_circ_112_23_</title>
<path fill="none" stroke="darkorange" stroke-dasharray="5,2" d="M1894.5,-102.06C1894.5,-102.06 1894.5,-50.31 1894.5,-50.31"/>
<polygon fill="darkorange" stroke="darkorange" points="1896.95,-50.31 1894.5,-43.31 1892.05,-50.31 1896.95,-50.31"/>
</g>
<!-- S&#45;1968 -->
<g id="node12" class="node">
<title>S&#45;1968</title>
<polygon fill="mediumseagreen" stroke="black" points="1332,-346 1260,-324.5 1332,-303 1404,-324.5 1332,-346"/>
<text text-anchor="middle" x="1332" y="-322" font-family="Arial" font-size="10.00">S&#45;1968</text>
</g>
<!-- S&#45;2193 -->
<g id="node14" class="node">
<title>S&#45;2193</title>
<polygon fill="mediumseagreen" stroke="black" points="1332,-245 1260,-223.5 1332,-202 1404,-223.5 1332,-245"/>
<text text-anchor="middle" x="1332" y="-221" font-family="Arial" font-size="10.00">S&#45;2193</text>
</g>
<!-- S&#45;1968&#45;&gt;S&#45;2193 -->
<g id="edge25" class="edge">
<title>S&#45;1968&#45;&gt;S&#45;2193</title>
<path fill="none" stroke="#4d4d4d" d="M1332,-302.58C1332,-302.58 1332,-252.03 1332,-252.03"/>
<polygon fill="#4d4d4d" stroke="#4d4d4d" points="1334.45,-252.03 1332,-245.03 1329.55,-252.03 1334.45,-252.03"/>
</g>
<!-- C&#45;1225 -->
<g id="node13" class="node">
<title>C&#45;1225</title>
<ellipse fill="tomato" stroke="black" cx="252" cy="-324.5" rx="72" ry="21.5"/>
<text text-anchor="middle" x="252" y="-322" font-family="Arial" font-size="10.00">C&#45;1225</text>
</g>
<!-- ext_circ_109_26_ -->
<g id="node40" class="node">
<title>ext_circ_109_26_</title>
<polygon fill="lightpink" stroke="darkorange" stroke-dasharray="5,2" points="504,-245 360,-245 360,-202 504,-202 504,-245"/>
<text text-anchor="middle" x="432" y="-226.5" font-family="Arial" font-size="10.00">Circuito:</text>
<text text-anchor="middle" x="432" y="-215.5" font-family="Arial" font-size="10.00">109&#45;26&#45;</text>
</g>
<!-- C&#45;1225&#45;&gt;ext_circ_109_26_ -->
<g id="edge40" class="edge">
<title>C&#45;1225&#45;&gt;ext_circ_109_26_</title>
<path fill="none" stroke="darkorange" stroke-dasharray="5,2" d="M252,-302.97C252,-273.18 252,-223 252,-223 252,-223 352.82,-223 352.82,-223"/>
<polygon fill="darkorange" stroke="darkorange" points="352.82,-225.45 359.82,-223 352.82,-220.55 352.82,-225.45"/>
</g>
<!-- R&#45;201 -->
<g id="node15" class="node">
<title>R&#45;201</title>
<polygon fill="tomato" stroke="black" points="1584,-113.59 1584,-131.41 1541.82,-144 1482.18,-144 1440,-131.41 1440,-113.59 1482.18,-101 1541.82,-101 1584,-113.59"/>
<text text-anchor="middle" x="1512" y="-120" font-family="Arial" font-size="10.00">R&#45;201</text>
</g>
<!-- ext_circ_112_22_ -->
<g id="node41" class="node">
<title>ext_circ_112_22_</title>
<polygon fill="lightpink" stroke="darkorange" stroke-dasharray="5,2" points="1719,-43 1575,-43 1575,0 1719,0 1719,-43"/>
<text text-anchor="middle" x="1647" y="-24.5" font-family="Arial" font-size="10.00">Circuito:</text>
<text text-anchor="middle" x="1647" y="-13.5" font-family="Arial" font-size="10.00">112&#45;22&#45;</text>
</g>
<!-- R&#45;201&#45;&gt;ext_circ_112_22_ -->
<g id="edge42" class="edge">
<title>R&#45;201&#45;&gt;ext_circ_112_22_</title>
<path fill="none" stroke="darkorange" stroke-dasharray="5,2" d="M1579.5,-112.07C1579.5,-112.07 1579.5,-50.35 1579.5,-50.35"/>
<polygon fill="darkorange" stroke="darkorange" points="1581.95,-50.35 1579.5,-43.35 1577.05,-50.35 1581.95,-50.35"/>
</g>
<!-- C&#45;0260 -->
<g id="node16" class="node">
<title>C&#45;0260</title>
<ellipse fill="mediumseagreen" stroke="black" cx="1512" cy="-324.5" rx="72" ry="21.5"/>
<text text-anchor="middle" x="1512" y="-322" font-family="Arial" font-size="10.00">C&#45;0260</text>
</g>
<!-- C&#45;0872 -->
<g id="node29" class="node">
<title>C&#45;0872</title>
<ellipse fill="mediumseagreen" stroke="black" cx="1512" cy="-223.5" rx="72" ry="21.5"/>
<text text-anchor="middle" x="1512" y="-221" font-family="Arial" font-size="10.00">C&#45;0872</text>
</g>
<!-- C&#45;0260&#45;&gt;C&#45;0872 -->
<g id="edge21" class="edge">
<title>C&#45;0260&#45;&gt;C&#45;0872</title>
<path fill="none" stroke="#4d4d4d" d="M1512,-302.58C1512,-302.58 1512,-252.03 1512,-252.03"/>
<polygon fill="#4d4d4d" stroke="#4d4d4d" points="1514.45,-252.03 1512,-245.03 1509.55,-252.03 1514.45,-252.03"/>
</g>
<!-- C&#45;0873 -->
<g id="node37" class="node">
<title>C&#45;0873</title>
<ellipse fill="tomato" stroke="black" cx="1692" cy="-122.5" rx="72" ry="21.5"/>
<text text-anchor="middle" x="1692" y="-120" font-family="Arial" font-size="10.00">C&#45;0873</text>
</g>
<!-- C&#45;0260&#45;&gt;C&#45;0873 -->
<g id="edge23" class="edge">
<title>C&#45;0260&#45;&gt;C&#45;0873</title>
<path fill="none" stroke="#4d4d4d" d="M1579.8,-317C1589.36,-317 1596,-317 1596,-317 1596,-317 1596,-122 1596,-122 1596,-122 1612.73,-122 1612.73,-122"/>
<polygon fill="#4d4d4d" stroke="#4d4d4d" points="1612.73,-124.45 1619.73,-122 1612.73,-119.55 1612.73,-124.45"/>
</g>
<!-- R&#45;153 -->
<g id="node17" class="node">
<title>R&#45;153</title>
<polygon fill="tomato" stroke="black" points="2918,-315.59 2918,-333.41 2875.82,-346 2816.18,-346 2774,-333.41 2774,-315.59 2816.18,-303 2875.82,-303 2918,-315.59"/>
<text text-anchor="middle" x="2846" y="-322" font-family="Arial" font-size="10.00">R&#45;153</text>
</g>
<!-- ext_circ_109_29_ -->
<g id="node39" class="node">
<title>ext_circ_109_29_</title>
<polygon fill="lightpink" stroke="darkorange" stroke-dasharray="5,2" points="2854,-245 2710,-245 2710,-202 2854,-202 2854,-245"/>
<text text-anchor="middle" x="2782" y="-226.5" font-family="Arial" font-size="10.00">Circuito:</text>
<text text-anchor="middle" x="2782" y="-215.5" font-family="Arial" font-size="10.00">109&#45;29&#45;</text>
</g>
<!-- R&#45;153&#45;&gt;ext_circ_109_29_ -->
<g id="edge38" class="edge">
<title>R&#45;153&#45;&gt;ext_circ_109_29_</title>
<path fill="none" stroke="darkorange" stroke-dasharray="5,2" d="M2814,-303.57C2814,-303.57 2814,-252.1 2814,-252.1"/>
<polygon fill="darkorange" stroke="darkorange" points="2816.45,-252.1 2814,-245.1 2811.55,-252.1 2816.45,-252.1"/>
</g>
<!-- C&#45;0064&#45;&gt;C&#45;1225 -->
<g id="edge14" class="edge">
<title>C&#45;0064&#45;&gt;C&#45;1225</title>
<path fill="none" stroke="#4d4d4d" d="M677.25,-419.92C677.25,-404.94 677.25,-365 677.25,-365 677.25,-365 319.5,-365 319.5,-365 319.5,-365 319.5,-339.31 319.5,-339.31"/>
<polygon fill="#4d4d4d" stroke="#4d4d4d" points="321.95,-339.31 319.5,-332.31 317.05,-339.31 321.95,-339.31"/>
</g>
<!-- S&#45;2259 -->
<g id="node30" class="node">
<title>S&#45;2259</title>
<polygon fill="mediumseagreen" stroke="black" points="432,-346 360,-324.5 432,-303 504,-324.5 432,-346"/>
<text text-anchor="middle" x="432" y="-322" font-family="Arial" font-size="10.00">S&#45;2259</text>
</g>
<!-- C&#45;0064&#45;&gt;S&#45;2259 -->
<g id="edge13" class="edge">
<title>C&#45;0064&#45;&gt;S&#45;2259</title>
<path fill="none" stroke="#4d4d4d" d="M679.5,-417.98C679.5,-398.89 679.5,-350 679.5,-350 679.5,-350 501,-350 501,-350 501,-350 501,-332.6 501,-332.6"/>
<polygon fill="#4d4d4d" stroke="#4d4d4d" points="503.45,-332.6 501,-325.6 498.55,-332.6 503.45,-332.6"/>
</g>
<!-- R&#45;091 -->
<g id="node31" class="node">
<title>R&#45;091</title>
<polygon fill="tomato" stroke="black" points="684,-315.59 684,-333.41 641.82,-346 582.18,-346 540,-333.41 540,-315.59 582.18,-303 641.82,-303 684,-315.59"/>
<text text-anchor="middle" x="612" y="-322" font-family="Arial" font-size="10.00">R&#45;091</text>
</g>
<!-- C&#45;0064&#45;&gt;R&#45;091 -->
<g id="edge15" class="edge">
<title>C&#45;0064&#45;&gt;R&#45;091</title>
<path fill="none" stroke="#4d4d4d" d="M681.75,-416.18C681.75,-416.18 681.75,-341.09 681.75,-341.09"/>
<polygon fill="#4d4d4d" stroke="#4d4d4d" points="684.2,-341.09 681.75,-334.09 679.3,-341.09 684.2,-341.09"/>
</g>
<!-- C&#45;0678 -->
<g id="node20" class="node">
<title>C&#45;0678</title>
<ellipse fill="mediumseagreen" stroke="black" cx="1287" cy="-728.5" rx="72" ry="21.5"/>
<text text-anchor="middle" x="1287" y="-726" font-family="Arial" font-size="10.00">C&#45;0678</text>
</g>
<!-- C&#45;0678&#45;&gt;C&#45;0683 -->
<g id="edge2" class="edge">
<title>C&#45;0678&#45;&gt;C&#45;0683</title>
<path fill="none" stroke="#4d4d4d" d="M1287,-706.58C1287,-706.58 1287,-656.03 1287,-656.03"/>
<polygon fill="#4d4d4d" stroke="#4d4d4d" points="1289.45,-656.03 1287,-649.03 1284.55,-656.03 1289.45,-656.03"/>
</g>
<!-- R&#45;089&#45;&gt;S&#45;1465 -->
<g id="edge28" class="edge">
<title>R&#45;089&#45;&gt;S&#45;1465</title>
<path fill="none" stroke="#4d4d4d" d="M1454.4,-411.91C1454.4,-401.53 1454.4,-389 1454.4,-389 1454.4,-389 841.5,-389 841.5,-389 841.5,-389 841.5,-338.4 841.5,-338.4"/>
<polygon fill="#4d4d4d" stroke="#4d4d4d" points="843.95,-338.4 841.5,-331.4 839.05,-338.4 843.95,-338.4"/>
</g>
<!-- R&#45;089&#45;&gt;S&#45;1805 -->
<g id="edge29" class="edge">
<title>R&#45;089&#45;&gt;S&#45;1805</title>
<path fill="none" stroke="#4d4d4d" d="M1468.8,-407.84C1468.8,-393.27 1468.8,-375 1468.8,-375 1468.8,-375 1039.5,-375 1039.5,-375 1039.5,-375 1039.5,-333.18 1039.5,-333.18"/>
<polygon fill="#4d4d4d" stroke="#4d4d4d" points="1041.95,-333.18 1039.5,-326.18 1037.05,-333.18 1041.95,-333.18"/>
</g>
<!-- R&#45;089&#45;&gt;S&#45;1686 -->
<g id="edge27" class="edge">
<title>R&#45;089&#45;&gt;S&#45;1686</title>
<path fill="none" stroke="#4d4d4d" d="M1483.2,-403.69C1483.2,-384.64 1483.2,-360 1483.2,-360 1483.2,-360 1174.5,-360 1174.5,-360 1174.5,-360 1174.5,-346.35 1174.5,-346.35"/>
<polygon fill="#4d4d4d" stroke="#4d4d4d" points="1176.95,-346.35 1174.5,-339.35 1172.05,-346.35 1176.95,-346.35"/>
</g>
<!-- R&#45;089&#45;&gt;S&#45;1968 -->
<g id="edge24" class="edge">
<title>R&#45;089&#45;&gt;S&#45;1968</title>
<path fill="none" stroke="#4d4d4d" d="M1439.7,-418C1398.3,-418 1354.5,-418 1354.5,-418 1354.5,-418 1354.5,-346.52 1354.5,-346.52"/>
<polygon fill="#4d4d4d" stroke="#4d4d4d" points="1356.95,-346.52 1354.5,-339.52 1352.05,-346.52 1356.95,-346.52"/>
</g>
<!-- R&#45;089&#45;&gt;C&#45;0260 -->
<g id="edge20" class="edge">
<title>R&#45;089&#45;&gt;C&#45;0260</title>
<path fill="none" stroke="#4d4d4d" d="M1497.6,-403.58C1497.6,-403.58 1497.6,-352.68 1497.6,-352.68"/>
<polygon fill="#4d4d4d" stroke="#4d4d4d" points="1500.05,-352.68 1497.6,-345.68 1495.15,-352.68 1500.05,-352.68"/>
</g>
<!-- S&#45;2423 -->
<g id="node24" class="node">
<title>S&#45;2423</title>
<polygon fill="mediumseagreen" stroke="black" points="1692,-346 1620,-324.5 1692,-303 1764,-324.5 1692,-346"/>
<text text-anchor="middle" x="1692" y="-322" font-family="Arial" font-size="10.00">S&#45;2423</text>
</g>
<!-- R&#45;089&#45;&gt;S&#45;2423 -->
<g id="edge26" class="edge">
<title>R&#45;089&#45;&gt;S&#45;2423</title>
<path fill="none" stroke="#4d4d4d" d="M1584.27,-425C1597.91,-425 1608,-425 1608,-425 1608,-425 1608,-331 1608,-331 1608,-331 1634.68,-331 1634.68,-331"/>
<polygon fill="#4d4d4d" stroke="#4d4d4d" points="1634.68,-333.45 1641.68,-331 1634.68,-328.55 1634.68,-333.45"/>
</g>
<!-- S&#45;015 -->
<g id="node25" class="node">
<title>S&#45;015</title>
<polygon fill="mediumseagreen" stroke="black" points="1872,-346 1800,-324.5 1872,-303 1944,-324.5 1872,-346"/>
<text text-anchor="middle" x="1872" y="-322" font-family="Arial" font-size="10.00">S&#45;015</text>
</g>
<!-- R&#45;089&#45;&gt;S&#45;015 -->
<g id="edge35" class="edge">
<title>R&#45;089&#45;&gt;S&#45;015</title>
<path fill="none" stroke="#4d4d4d" d="M1512,-403.96C1512,-383.23 1512,-355 1512,-355 1512,-355 1872,-355 1872,-355 1872,-355 1872,-353.01 1872,-353.01"/>
<polygon fill="#4d4d4d" stroke="#4d4d4d" points="1874.45,-353.01 1872,-346.01 1869.55,-353.01 1874.45,-353.01"/>
</g>
<!-- C&#45;0652 -->
<g id="node26" class="node">
<title>C&#45;0652</title>
<ellipse fill="mediumseagreen" stroke="black" cx="2052" cy="-324.5" rx="72" ry="21.5"/>
<text text-anchor="middle" x="2052" y="-322" font-family="Arial" font-size="10.00">C&#45;0652</text>
</g>
<!-- R&#45;089&#45;&gt;C&#45;0652 -->
<g id="edge31" class="edge">
<title>R&#45;089&#45;&gt;C&#45;0652</title>
<path fill="none" stroke="#4d4d4d" d="M1526.4,-403.88C1526.4,-391.74 1526.4,-379 1526.4,-379 1526.4,-379 2052,-379 2052,-379 2052,-379 2052,-353.04 2052,-353.04"/>
<polygon fill="#4d4d4d" stroke="#4d4d4d" points="2054.45,-353.04 2052,-346.04 2049.55,-353.04 2054.45,-353.04"/>
</g>
<!-- S&#45;2199 -->
<g id="node33" class="node">
<title>S&#45;2199</title>
<polygon fill="mediumseagreen" stroke="black" points="2232,-346 2160,-324.5 2232,-303 2304,-324.5 2232,-346"/>
<text text-anchor="middle" x="2232" y="-322" font-family="Arial" font-size="10.00">S&#45;2199</text>
</g>
<!-- R&#45;089&#45;&gt;S&#45;2199 -->
<g id="edge36" class="edge">
<title>R&#45;089&#45;&gt;S&#45;2199</title>
<path fill="none" stroke="#4d4d4d" d="M1540.8,-403.78C1540.8,-393.74 1540.8,-384 1540.8,-384 1540.8,-384 2178.5,-384 2178.5,-384 2178.5,-384 2178.5,-337.42 2178.5,-337.42"/>
<polygon fill="#4d4d4d" stroke="#4d4d4d" points="2180.95,-337.42 2178.5,-330.42 2176.05,-337.42 2180.95,-337.42"/>
</g>
<!-- S&#45;1721 -->
<g id="node34" class="node">
<title>S&#45;1721</title>
<polygon fill="mediumseagreen" stroke="black" points="2412,-346 2340,-324.5 2412,-303 2484,-324.5 2412,-346"/>
<text text-anchor="middle" x="2412" y="-322" font-family="Arial" font-size="10.00">S&#45;1721</text>
</g>
<!-- R&#45;089&#45;&gt;S&#45;1721 -->
<g id="edge30" class="edge">
<title>R&#45;089&#45;&gt;S&#45;1721</title>
<path fill="none" stroke="#4d4d4d" d="M1555.2,-407.91C1555.2,-400.69 1555.2,-394 1555.2,-394 1555.2,-394 2412.5,-394 2412.5,-394 2412.5,-394 2412.5,-353.11 2412.5,-353.11"/>
<polygon fill="#4d4d4d" stroke="#4d4d4d" points="2414.95,-353.11 2412.5,-346.11 2410.05,-353.11 2414.95,-353.11"/>
</g>
<!-- S&#45;1891 -->
<g id="node38" class="node">
<title>S&#45;1891</title>
<polygon fill="mediumseagreen" stroke="black" points="2592,-346 2520,-324.5 2592,-303 2664,-324.5 2592,-346"/>
<text text-anchor="middle" x="2592" y="-322" font-family="Arial" font-size="10.00">S&#45;1891</text>
</g>
<!-- R&#45;089&#45;&gt;S&#45;1891 -->
<g id="edge19" class="edge">
<title>R&#45;089&#45;&gt;S&#45;1891</title>
<path fill="none" stroke="#4d4d4d" d="M1569.6,-412.25C1569.6,-405.63 1569.6,-399 1569.6,-399 1569.6,-399 2547.5,-399 2547.5,-399 2547.5,-399 2547.5,-339.76 2547.5,-339.76"/>
<polygon fill="#4d4d4d" stroke="#4d4d4d" points="2549.95,-339.76 2547.5,-332.76 2545.05,-339.76 2549.95,-339.76"/>
</g>
<!-- R&#45;154 -->
<g id="node22" class="node">
<title>R&#45;154</title>
<polygon fill="tomato" stroke="black" points="2124,-113.59 2124,-131.41 2081.82,-144 2022.18,-144 1980,-131.41 1980,-113.59 2022.18,-101 2081.82,-101 2124,-113.59"/>
<text text-anchor="middle" x="2052" y="-120" font-family="Arial" font-size="10.00">R&#45;154</text>
</g>
<!-- R&#45;154&#45;&gt;ext_circ_112_23_ -->
<g id="edge45" class="edge">
<title>R&#45;154&#45;&gt;ext_circ_112_23_</title>
<path fill="none" stroke="darkorange" stroke-dasharray="5,2" d="M1984.5,-112.07C1984.5,-112.07 1984.5,-50.35 1984.5,-50.35"/>
<polygon fill="darkorange" stroke="darkorange" points="1986.95,-50.35 1984.5,-43.35 1982.05,-50.35 1986.95,-50.35"/>
</g>
<!-- C&#45;0652&#45;&gt;C&#45;0467 -->
<g id="edge32" class="edge">
<title>C&#45;0652&#45;&gt;C&#45;0467</title>
<path fill="none" stroke="#4d4d4d" d="M1979.78,-324C1969.32,-324 1962,-324 1962,-324 1962,-324 1962,-122 1962,-122 1962,-122 1951.22,-122 1951.22,-122"/>
<polygon fill="#4d4d4d" stroke="#4d4d4d" points="1951.22,-119.55 1944.22,-122 1951.22,-124.45 1951.22,-119.55"/>
</g>
<!-- C&#45;0469 -->
<g id="node35" class="node">
<title>C&#45;0469</title>
<ellipse fill="mediumseagreen" stroke="black" cx="2052" cy="-223.5" rx="72" ry="21.5"/>
<text text-anchor="middle" x="2052" y="-221" font-family="Arial" font-size="10.00">C&#45;0469</text>
</g>
<!-- C&#45;0652&#45;&gt;C&#45;0469 -->
<g id="edge33" class="edge">
<title>C&#45;0652&#45;&gt;C&#45;0469</title>
<path fill="none" stroke="#4d4d4d" d="M2052,-302.58C2052,-302.58 2052,-252.03 2052,-252.03"/>
<polygon fill="#4d4d4d" stroke="#4d4d4d" points="2054.45,-252.03 2052,-245.03 2049.55,-252.03 2054.45,-252.03"/>
</g>
<!-- C&#45;0464&#45;&gt;ext_circ_109_29_ -->
<g id="edge39" class="edge">
<title>C&#45;0464&#45;&gt;ext_circ_109_29_</title>
<path fill="none" stroke="darkorange" stroke-dasharray="5,2" d="M2322,-410.94C2322,-364.51 2322,-223 2322,-223 2322,-223 2702.87,-223 2702.87,-223"/>
<polygon fill="darkorange" stroke="darkorange" points="2702.87,-225.45 2709.87,-223 2702.87,-220.55 2702.87,-225.45"/>
</g>
<!-- C&#45;0465&#45;&gt;R&#45;153 -->
<g id="edge7" class="edge">
<title>C&#45;0465&#45;&gt;R&#45;153</title>
<path fill="none" stroke="#4d4d4d" d="M2714.5,-417.87C2714.5,-394.27 2714.5,-324 2714.5,-324 2714.5,-324 2766.71,-324 2766.71,-324"/>
<polygon fill="#4d4d4d" stroke="#4d4d4d" points="2766.71,-326.45 2773.71,-324 2766.71,-321.55 2766.71,-326.45"/>
</g>
<!-- C&#45;0872&#45;&gt;R&#45;201 -->
<g id="edge22" class="edge">
<title>C&#45;0872&#45;&gt;R&#45;201</title>
<path fill="none" stroke="#4d4d4d" d="M1512,-201.58C1512,-201.58 1512,-151.03 1512,-151.03"/>
<polygon fill="#4d4d4d" stroke="#4d4d4d" points="1514.45,-151.03 1512,-144.03 1509.55,-151.03 1514.45,-151.03"/>
</g>
<!-- R&#45;091&#45;&gt;ext_circ_109_26_ -->
<g id="edge41" class="edge">
<title>R&#45;091&#45;&gt;ext_circ_109_26_</title>
<path fill="none" stroke="darkorange" stroke-dasharray="5,2" d="M612,-302.97C612,-273.18 612,-223 612,-223 612,-223 511.18,-223 511.18,-223"/>
<polygon fill="darkorange" stroke="darkorange" points="511.18,-220.55 504.18,-223 511.18,-225.45 511.18,-220.55"/>
</g>
<!-- 208&#45;28&#45; -->
<g id="node32" class="node">
<title>208&#45;28&#45;</title>
<polygon fill="gold" stroke="black" points="1269,-824.59 1269,-842.41 1226.82,-855 1167.18,-855 1125,-842.41 1125,-824.59 1167.18,-812 1226.82,-812 1269,-824.59"/>
<polygon fill="none" stroke="black" points="1273,-821.61 1273,-845.39 1227.41,-859 1166.59,-859 1121,-845.39 1121,-821.61 1166.59,-808 1227.41,-808 1273,-821.61"/>
<text text-anchor="middle" x="1197" y="-831" font-family="Arial" font-size="10.00">208&#45;28&#45;</text>
</g>
<!-- 208&#45;28&#45;&#45;&gt;C&#45;0171 -->
<g id="edge37" class="edge">
<title>208&#45;28&#45;&#45;&gt;C&#45;0171</title>
<path fill="none" stroke="#4d4d4d" d="M1150,-812.76C1150,-812.76 1150,-753.07 1150,-753.07"/>
<polygon fill="#4d4d4d" stroke="#4d4d4d" points="1152.45,-753.07 1150,-746.07 1147.55,-753.07 1152.45,-753.07"/>
</g>
<!-- 208&#45;28&#45;&#45;&gt;C&#45;0678 -->
<g id="edge1" class="edge">
<title>208&#45;28&#45;&#45;&gt;C&#45;0678</title>
<path fill="none" stroke="#4d4d4d" d="M1244,-812.76C1244,-812.76 1244,-753.07 1244,-753.07"/>
<polygon fill="#4d4d4d" stroke="#4d4d4d" points="1246.45,-753.07 1244,-746.07 1241.55,-753.07 1246.45,-753.07"/>
</g>
<!-- C&#45;0469&#45;&gt;R&#45;154 -->
<g id="edge34" class="edge">
<title>C&#45;0469&#45;&gt;R&#45;154</title>
<path fill="none" stroke="#4d4d4d" d="M2052,-201.58C2052,-201.58 2052,-151.03 2052,-151.03"/>
<polygon fill="#4d4d4d" stroke="#4d4d4d" points="2054.45,-151.03 2052,-144.03 2049.55,-151.03 2054.45,-151.03"/>
</g>
<!-- C&#45;0873&#45;&gt;ext_circ_112_22_ -->
<g id="edge43" class="edge">
<title>C&#45;0873&#45;&gt;ext_circ_112_22_</title>
<path fill="none" stroke="darkorange" stroke-dasharray="5,2" d="M1669.5,-102.06C1669.5,-102.06 1669.5,-50.31 1669.5,-50.31"/>
<polygon fill="darkorange" stroke="darkorange" points="1671.95,-50.31 1669.5,-43.31 1667.05,-50.31 1671.95,-50.31"/>
</g>
</g>
</svg>
