<?xml version="1.0" encoding="UTF-8" standalone="no"?>
<!DOCTYPE svg PUBLIC "-//W3C//DTD SVG 1.1//EN"
 "http://www.w3.org/Graphics/SVG/1.1/DTD/svg11.dtd">
<!-- Generated by graphviz version 2.50.0 (0)
 -->
<!-- Title: Grafo_Circuito_113_26_ Pages: 1 -->
<svg width="894pt" height="1069pt"
 viewBox="0.00 0.00 894.00 1069.00" xmlns="http://www.w3.org/2000/svg" xmlns:xlink="http://www.w3.org/1999/xlink">
<g id="graph0" class="graph" transform="scale(1 1) rotate(0) translate(4 1065)">
<title>Grafo_Circuito_113_26_</title>
<polygon fill="white" stroke="transparent" points="-4,4 -4,-1065 890,-1065 890,4 -4,4"/>
<!-- S&#45;1093 -->
<g id="node1" class="node">
<title>S&#45;1093</title>
<polygon fill="mediumseagreen" stroke="black" points="147,-245 75,-223.5 147,-202 219,-223.5 147,-245"/>
<text text-anchor="middle" x="147" y="-221" font-family="Arial" font-size="10.00">S&#45;1093</text>
</g>
<!-- R&#45;092 -->
<g id="node5" class="node">
<title>R&#45;092</title>
<polygon fill="tomato" stroke="black" points="144,-113.59 144,-131.41 101.82,-144 42.18,-144 0,-131.41 0,-113.59 42.18,-101 101.82,-101 144,-113.59"/>
<text text-anchor="middle" x="72" y="-120" font-family="Arial" font-size="10.00">R&#45;092</text>
</g>
<!-- S&#45;1093&#45;&gt;R&#45;092 -->
<g id="edge14" class="edge">
<title>S&#45;1093&#45;&gt;R&#45;092</title>
<path fill="none" stroke="#4d4d4d" d="M109.5,-213.07C109.5,-213.07 109.5,-149.01 109.5,-149.01"/>
<polygon fill="#4d4d4d" stroke="#4d4d4d" points="111.95,-149.01 109.5,-142.01 107.05,-149.01 111.95,-149.01"/>
</g>
<!-- C&#45;1262 -->
<g id="node10" class="node">
<title>C&#45;1262</title>
<ellipse fill="tomato" stroke="black" cx="252" cy="-122.5" rx="72" ry="21.5"/>
<text text-anchor="middle" x="252" y="-120" font-family="Arial" font-size="10.00">C&#45;1262</text>
</g>
<!-- S&#45;1093&#45;&gt;C&#45;1262 -->
<g id="edge13" class="edge">
<title>S&#45;1093&#45;&gt;C&#45;1262</title>
<path fill="none" stroke="#4d4d4d" d="M199.5,-217.48C199.5,-217.48 199.5,-144.47 199.5,-144.47"/>
<polygon fill="#4d4d4d" stroke="#4d4d4d" points="201.95,-144.47 199.5,-137.47 197.05,-144.47 201.95,-144.47"/>
</g>
<!-- S&#45;2384 -->
<g id="node2" class="node">
<title>S&#45;2384</title>
<polygon fill="mediumseagreen" stroke="black" points="327,-245 255,-223.5 327,-202 399,-223.5 327,-245"/>
<text text-anchor="middle" x="327" y="-221" font-family="Arial" font-size="10.00">S&#45;2384</text>
</g>
<!-- C&#45;0104 -->
<g id="node3" class="node">
<title>C&#45;0104</title>
<ellipse fill="tomato" stroke="black" cx="787" cy="-223.5" rx="72" ry="21.5"/>
<text text-anchor="middle" x="787" y="-221" font-family="Arial" font-size="10.00">C&#45;0104</text>
</g>
<!-- ext_circ_113_23_ -->
<g id="node24" class="node">
<title>ext_circ_113_23_</title>
<polygon fill="lightpink" stroke="darkorange" stroke-dasharray="5,2" points="886,-144 742,-144 742,-101 886,-101 886,-144"/>
<text text-anchor="middle" x="814" y="-125.5" font-family="Arial" font-size="10.00">Circuito:</text>
<text text-anchor="middle" x="814" y="-114.5" font-family="Arial" font-size="10.00">113&#45;23&#45;</text>
</g>
<!-- C&#45;0104&#45;&gt;ext_circ_113_23_ -->
<g id="edge26" class="edge">
<title>C&#45;0104&#45;&gt;ext_circ_113_23_</title>
<path fill="none" stroke="darkorange" stroke-dasharray="5,2" d="M800.5,-202.08C800.5,-202.08 800.5,-151.24 800.5,-151.24"/>
<polygon fill="darkorange" stroke="darkorange" points="802.95,-151.24 800.5,-144.24 798.05,-151.24 802.95,-151.24"/>
</g>
<!-- 113&#45;26&#45; -->
<g id="node4" class="node">
<title>113&#45;26&#45;</title>
<polygon fill="gold" stroke="black" points="579,-1026.59 579,-1044.41 536.82,-1057 477.18,-1057 435,-1044.41 435,-1026.59 477.18,-1014 536.82,-1014 579,-1026.59"/>
<polygon fill="none" stroke="black" points="583,-1023.61 583,-1047.39 537.41,-1061 476.59,-1061 431,-1047.39 431,-1023.61 476.59,-1010 537.41,-1010 583,-1023.61"/>
<text text-anchor="middle" x="507" y="-1033" font-family="Arial" font-size="10.00">113&#45;26&#45;</text>
</g>
<!-- C&#45;0172 -->
<g id="node19" class="node">
<title>C&#45;0172</title>
<ellipse fill="mediumseagreen" stroke="black" cx="507" cy="-930.5" rx="72" ry="21.5"/>
<text text-anchor="middle" x="507" y="-928" font-family="Arial" font-size="10.00">C&#45;0172</text>
</g>
<!-- 113&#45;26&#45;&#45;&gt;C&#45;0172 -->
<g id="edge1" class="edge">
<title>113&#45;26&#45;&#45;&gt;C&#45;0172</title>
<path fill="none" stroke="#4d4d4d" d="M507,-1009.81C507,-1009.81 507,-959.03 507,-959.03"/>
<polygon fill="#4d4d4d" stroke="#4d4d4d" points="509.45,-959.03 507,-952.03 504.55,-959.03 509.45,-959.03"/>
</g>
<!-- ext_circ_112_22_ -->
<g id="node22" class="node">
<title>ext_circ_112_22_</title>
<polygon fill="lightpink" stroke="darkorange" stroke-dasharray="5,2" points="301,-43 157,-43 157,0 301,0 301,-43"/>
<text text-anchor="middle" x="229" y="-24.5" font-family="Arial" font-size="10.00">Circuito:</text>
<text text-anchor="middle" x="229" y="-13.5" font-family="Arial" font-size="10.00">112&#45;22&#45;</text>
</g>
<!-- R&#45;092&#45;&gt;ext_circ_112_22_ -->
<g id="edge23" class="edge">
<title>R&#45;092&#45;&gt;ext_circ_112_22_</title>
<path fill="none" stroke="darkorange" stroke-dasharray="5,2" d="M144.15,-122C158.11,-122 168.5,-122 168.5,-122 168.5,-122 168.5,-50.31 168.5,-50.31"/>
<polygon fill="darkorange" stroke="darkorange" points="170.95,-50.31 168.5,-43.31 166.05,-50.31 170.95,-50.31"/>
</g>
<!-- C&#45;0403 -->
<g id="node6" class="node">
<title>C&#45;0403</title>
<ellipse fill="mediumseagreen" stroke="black" cx="597" cy="-425.5" rx="72" ry="21.5"/>
<text text-anchor="middle" x="597" y="-423" font-family="Arial" font-size="10.00">C&#45;0403</text>
</g>
<!-- S&#45;1197 -->
<g id="node18" class="node">
<title>S&#45;1197</title>
<polygon fill="mediumseagreen" stroke="black" points="507,-346 435,-324.5 507,-303 579,-324.5 507,-346"/>
<text text-anchor="middle" x="507" y="-322" font-family="Arial" font-size="10.00">S&#45;1197</text>
</g>
<!-- C&#45;0403&#45;&gt;S&#45;1197 -->
<g id="edge11" class="edge">
<title>C&#45;0403&#45;&gt;S&#45;1197</title>
<path fill="none" stroke="#4d4d4d" d="M552,-408.37C552,-408.37 552,-339.78 552,-339.78"/>
<polygon fill="#4d4d4d" stroke="#4d4d4d" points="554.45,-339.78 552,-332.78 549.55,-339.78 554.45,-339.78"/>
</g>
<!-- S&#45;1227 -->
<g id="node21" class="node">
<title>S&#45;1227</title>
<polygon fill="mediumseagreen" stroke="black" points="737,-346 665,-324.5 737,-303 809,-324.5 737,-346"/>
<text text-anchor="middle" x="737" y="-322" font-family="Arial" font-size="10.00">S&#45;1227</text>
</g>
<!-- C&#45;0403&#45;&gt;S&#45;1227 -->
<g id="edge19" class="edge">
<title>C&#45;0403&#45;&gt;S&#45;1227</title>
<path fill="none" stroke="#4d4d4d" d="M669.22,-425C679.68,-425 687,-425 687,-425 687,-425 687,-338.09 687,-338.09"/>
<polygon fill="#4d4d4d" stroke="#4d4d4d" points="689.45,-338.09 687,-331.09 684.55,-338.09 689.45,-338.09"/>
</g>
<!-- C&#45;0512 -->
<g id="node7" class="node">
<title>C&#45;0512</title>
<ellipse fill="mediumseagreen" stroke="black" cx="507" cy="-829.5" rx="72" ry="21.5"/>
<text text-anchor="middle" x="507" y="-827" font-family="Arial" font-size="10.00">C&#45;0512</text>
</g>
<!-- R&#45;148 -->
<g id="node11" class="node">
<title>R&#45;148</title>
<polygon fill="mediumseagreen" stroke="black" points="579,-719.59 579,-737.41 536.82,-750 477.18,-750 435,-737.41 435,-719.59 477.18,-707 536.82,-707 579,-719.59"/>
<text text-anchor="middle" x="507" y="-726" font-family="Arial" font-size="10.00">R&#45;148</text>
</g>
<!-- C&#45;0512&#45;&gt;R&#45;148 -->
<g id="edge3" class="edge">
<title>C&#45;0512&#45;&gt;R&#45;148</title>
<path fill="none" stroke="#4d4d4d" d="M507,-807.58C507,-807.58 507,-757.03 507,-757.03"/>
<polygon fill="#4d4d4d" stroke="#4d4d4d" points="509.45,-757.03 507,-750.03 504.55,-757.03 509.45,-757.03"/>
</g>
<!-- S&#45;2176 -->
<g id="node8" class="node">
<title>S&#45;2176</title>
<polygon fill="mediumseagreen" stroke="black" points="237,-649 165,-627.5 237,-606 309,-627.5 237,-649"/>
<text text-anchor="middle" x="237" y="-625" font-family="Arial" font-size="10.00">S&#45;2176</text>
</g>
<!-- C&#45;0401 -->
<g id="node9" class="node">
<title>C&#45;0401</title>
<ellipse fill="tomato" stroke="black" cx="417" cy="-627.5" rx="72" ry="21.5"/>
<text text-anchor="middle" x="417" y="-625" font-family="Arial" font-size="10.00">C&#45;0401</text>
</g>
<!-- C&#45;0401&#45;&gt;S&#45;1197 -->
<g id="edge21" class="edge">
<title>C&#45;0401&#45;&gt;S&#45;1197</title>
<path fill="none" stroke="blue" stroke-dasharray="5,2" d="M462,-610.34C462,-610.34 462,-339.75 462,-339.75"/>
<polygon fill="blue" stroke="blue" points="464.45,-339.75 462,-332.75 459.55,-339.75 464.45,-339.75"/>
</g>
<!-- C&#45;1262&#45;&gt;ext_circ_112_22_ -->
<g id="edge22" class="edge">
<title>C&#45;1262&#45;&gt;ext_circ_112_22_</title>
<path fill="none" stroke="darkorange" stroke-dasharray="5,2" d="M240.5,-101.08C240.5,-101.08 240.5,-50.24 240.5,-50.24"/>
<polygon fill="darkorange" stroke="darkorange" points="242.95,-50.24 240.5,-43.24 238.05,-50.24 242.95,-50.24"/>
</g>
<!-- R&#45;148&#45;&gt;S&#45;2176 -->
<g id="edge6" class="edge">
<title>R&#45;148&#45;&gt;S&#45;2176</title>
<path fill="none" stroke="#4d4d4d" d="M435,-728C355.02,-728 237,-728 237,-728 237,-728 237,-656.31 237,-656.31"/>
<polygon fill="#4d4d4d" stroke="#4d4d4d" points="239.45,-656.31 237,-649.31 234.55,-656.31 239.45,-656.31"/>
</g>
<!-- R&#45;148&#45;&gt;C&#45;0401 -->
<g id="edge8" class="edge">
<title>R&#45;148&#45;&gt;C&#45;0401</title>
<path fill="none" stroke="#4d4d4d" d="M462,-711.37C462,-711.37 462,-651.38 462,-651.38"/>
<polygon fill="#4d4d4d" stroke="#4d4d4d" points="464.45,-651.38 462,-644.38 459.55,-651.38 464.45,-651.38"/>
</g>
<!-- C&#45;0402 -->
<g id="node15" class="node">
<title>C&#45;0402</title>
<ellipse fill="mediumseagreen" stroke="black" cx="597" cy="-627.5" rx="72" ry="21.5"/>
<text text-anchor="middle" x="597" y="-625" font-family="Arial" font-size="10.00">C&#45;0402</text>
</g>
<!-- R&#45;148&#45;&gt;C&#45;0402 -->
<g id="edge7" class="edge">
<title>R&#45;148&#45;&gt;C&#45;0402</title>
<path fill="none" stroke="#4d4d4d" d="M552,-711.37C552,-711.37 552,-651.38 552,-651.38"/>
<polygon fill="#4d4d4d" stroke="#4d4d4d" points="554.45,-651.38 552,-644.38 549.55,-651.38 554.45,-651.38"/>
</g>
<!-- S&#45;881 -->
<g id="node20" class="node">
<title>S&#45;881</title>
<polygon fill="mediumseagreen" stroke="black" points="777,-649 705,-627.5 777,-606 849,-627.5 777,-649"/>
<text text-anchor="middle" x="777" y="-625" font-family="Arial" font-size="10.00">S&#45;881</text>
</g>
<!-- R&#45;148&#45;&gt;S&#45;881 -->
<g id="edge4" class="edge">
<title>R&#45;148&#45;&gt;S&#45;881</title>
<path fill="none" stroke="#4d4d4d" d="M579,-728C658.98,-728 777,-728 777,-728 777,-728 777,-656.31 777,-656.31"/>
<polygon fill="#4d4d4d" stroke="#4d4d4d" points="779.45,-656.31 777,-649.31 774.55,-656.31 779.45,-656.31"/>
</g>
<!-- C&#45;1210 -->
<g id="node12" class="node">
<title>C&#45;1210</title>
<ellipse fill="mediumseagreen" stroke="black" cx="507" cy="-223.5" rx="72" ry="21.5"/>
<text text-anchor="middle" x="507" y="-221" font-family="Arial" font-size="10.00">C&#45;1210</text>
</g>
<!-- R&#45;299 -->
<g id="node17" class="node">
<title>R&#45;299</title>
<polygon fill="tomato" stroke="black" points="526,-113.59 526,-131.41 483.82,-144 424.18,-144 382,-131.41 382,-113.59 424.18,-101 483.82,-101 526,-113.59"/>
<text text-anchor="middle" x="454" y="-120" font-family="Arial" font-size="10.00">R&#45;299</text>
</g>
<!-- C&#45;1210&#45;&gt;R&#45;299 -->
<g id="edge17" class="edge">
<title>C&#45;1210&#45;&gt;R&#45;299</title>
<path fill="none" stroke="#4d4d4d" d="M480.5,-203.06C480.5,-203.06 480.5,-151.31 480.5,-151.31"/>
<polygon fill="#4d4d4d" stroke="#4d4d4d" points="482.95,-151.31 480.5,-144.31 478.05,-151.31 482.95,-151.31"/>
</g>
<!-- C&#45;0332 -->
<g id="node13" class="node">
<title>C&#45;0332</title>
<ellipse fill="tomato" stroke="black" cx="634" cy="-122.5" rx="72" ry="21.5"/>
<text text-anchor="middle" x="634" y="-120" font-family="Arial" font-size="10.00">C&#45;0332</text>
</g>
<!-- ext_circ_112_23_ -->
<g id="node23" class="node">
<title>ext_circ_112_23_</title>
<polygon fill="lightpink" stroke="darkorange" stroke-dasharray="5,2" points="571,-43 427,-43 427,0 571,0 571,-43"/>
<text text-anchor="middle" x="499" y="-24.5" font-family="Arial" font-size="10.00">Circuito:</text>
<text text-anchor="middle" x="499" y="-13.5" font-family="Arial" font-size="10.00">112&#45;23&#45;</text>
</g>
<!-- C&#45;0332&#45;&gt;ext_circ_112_23_ -->
<g id="edge24" class="edge">
<title>C&#45;0332&#45;&gt;ext_circ_112_23_</title>
<path fill="none" stroke="darkorange" stroke-dasharray="5,2" d="M566.5,-114.91C566.5,-114.91 566.5,-50.19 566.5,-50.19"/>
<polygon fill="darkorange" stroke="darkorange" points="568.95,-50.19 566.5,-43.19 564.05,-50.19 568.95,-50.19"/>
</g>
<!-- S&#45;1644 -->
<g id="node14" class="node">
<title>S&#45;1644</title>
<polygon fill="mediumseagreen" stroke="black" points="777,-548 705,-526.5 777,-505 849,-526.5 777,-548"/>
<text text-anchor="middle" x="777" y="-524" font-family="Arial" font-size="10.00">S&#45;1644</text>
</g>
<!-- R&#45;137 -->
<g id="node16" class="node">
<title>R&#45;137</title>
<polygon fill="mediumseagreen" stroke="black" points="669,-517.59 669,-535.41 626.82,-548 567.18,-548 525,-535.41 525,-517.59 567.18,-505 626.82,-505 669,-517.59"/>
<text text-anchor="middle" x="597" y="-524" font-family="Arial" font-size="10.00">R&#45;137</text>
</g>
<!-- C&#45;0402&#45;&gt;R&#45;137 -->
<g id="edge9" class="edge">
<title>C&#45;0402&#45;&gt;R&#45;137</title>
<path fill="none" stroke="#4d4d4d" d="M597,-605.58C597,-605.58 597,-555.03 597,-555.03"/>
<polygon fill="#4d4d4d" stroke="#4d4d4d" points="599.45,-555.03 597,-548.03 594.55,-555.03 599.45,-555.03"/>
</g>
<!-- R&#45;137&#45;&gt;C&#45;0403 -->
<g id="edge10" class="edge">
<title>R&#45;137&#45;&gt;C&#45;0403</title>
<path fill="none" stroke="#4d4d4d" d="M597,-504.58C597,-504.58 597,-454.03 597,-454.03"/>
<polygon fill="#4d4d4d" stroke="#4d4d4d" points="599.45,-454.03 597,-447.03 594.55,-454.03 599.45,-454.03"/>
</g>
<!-- R&#45;299&#45;&gt;ext_circ_112_23_ -->
<g id="edge25" class="edge">
<title>R&#45;299&#45;&gt;ext_circ_112_23_</title>
<path fill="none" stroke="darkorange" stroke-dasharray="5,2" d="M476.5,-100.58C476.5,-100.58 476.5,-50.03 476.5,-50.03"/>
<polygon fill="darkorange" stroke="darkorange" points="478.95,-50.03 476.5,-43.03 474.05,-50.03 478.95,-50.03"/>
</g>
<!-- S&#45;1197&#45;&gt;S&#45;1093 -->
<g id="edge12" class="edge">
<title>S&#45;1197&#45;&gt;S&#45;1093</title>
<path fill="none" stroke="#4d4d4d" d="M456.74,-331C367.81,-331 192,-331 192,-331 192,-331 192,-238.58 192,-238.58"/>
<polygon fill="#4d4d4d" stroke="#4d4d4d" points="194.45,-238.58 192,-231.58 189.55,-238.58 194.45,-238.58"/>
</g>
<!-- S&#45;1197&#45;&gt;S&#45;2384 -->
<g id="edge18" class="edge">
<title>S&#45;1197&#45;&gt;S&#45;2384</title>
<path fill="none" stroke="#4d4d4d" d="M459.78,-317C420.85,-317 372,-317 372,-317 372,-317 372,-238.8 372,-238.8"/>
<polygon fill="#4d4d4d" stroke="#4d4d4d" points="374.45,-238.8 372,-231.8 369.55,-238.8 374.45,-238.8"/>
</g>
<!-- S&#45;1197&#45;&gt;C&#45;1210 -->
<g id="edge16" class="edge">
<title>S&#45;1197&#45;&gt;C&#45;1210</title>
<path fill="none" stroke="#4d4d4d" d="M507,-302.58C507,-302.58 507,-252.03 507,-252.03"/>
<polygon fill="#4d4d4d" stroke="#4d4d4d" points="509.45,-252.03 507,-245.03 504.55,-252.03 509.45,-252.03"/>
</g>
<!-- S&#45;1197&#45;&gt;C&#45;0332 -->
<g id="edge15" class="edge">
<title>S&#45;1197&#45;&gt;C&#45;0332</title>
<path fill="none" stroke="#4d4d4d" d="M577.54,-324C601.34,-324 622,-324 622,-324 622,-324 622,-151.06 622,-151.06"/>
<polygon fill="#4d4d4d" stroke="#4d4d4d" points="624.45,-151.06 622,-144.06 619.55,-151.06 624.45,-151.06"/>
</g>
<!-- C&#45;0172&#45;&gt;C&#45;0512 -->
<g id="edge2" class="edge">
<title>C&#45;0172&#45;&gt;C&#45;0512</title>
<path fill="none" stroke="#4d4d4d" d="M507,-908.58C507,-908.58 507,-858.03 507,-858.03"/>
<polygon fill="#4d4d4d" stroke="#4d4d4d" points="509.45,-858.03 507,-851.03 504.55,-858.03 509.45,-858.03"/>
</g>
<!-- S&#45;881&#45;&gt;S&#45;1644 -->
<g id="edge5" class="edge">
<title>S&#45;881&#45;&gt;S&#45;1644</title>
<path fill="none" stroke="#4d4d4d" d="M777,-605.58C777,-605.58 777,-555.03 777,-555.03"/>
<polygon fill="#4d4d4d" stroke="#4d4d4d" points="779.45,-555.03 777,-548.03 774.55,-555.03 779.45,-555.03"/>
</g>
<!-- S&#45;1227&#45;&gt;C&#45;0104 -->
<g id="edge20" class="edge">
<title>S&#45;1227&#45;&gt;C&#45;0104</title>
<path fill="none" stroke="#4d4d4d" d="M762,-310.46C762,-310.46 762,-250.7 762,-250.7"/>
<polygon fill="#4d4d4d" stroke="#4d4d4d" points="764.45,-250.7 762,-243.7 759.55,-250.7 764.45,-250.7"/>
</g>
</g>
</svg>
