<?xml version="1.0" encoding="UTF-8" standalone="no"?>
<!DOCTYPE svg PUBLIC "-//W3C//DTD SVG 1.1//EN"
 "http://www.w3.org/Graphics/SVG/1.1/DTD/svg11.dtd">
<!-- Generated by graphviz version 2.50.0 (0)
 -->
<!-- Title: Grafo_Circuito_304_23_ Pages: 1 -->
<svg width="2206pt" height="1574pt"
 viewBox="0.00 0.00 2206.00 1574.00" xmlns="http://www.w3.org/2000/svg" xmlns:xlink="http://www.w3.org/1999/xlink">
<g id="graph0" class="graph" transform="scale(1 1) rotate(0) translate(4 1570)">
<title>Grafo_Circuito_304_23_</title>
<polygon fill="white" stroke="transparent" points="-4,4 -4,-1570 2202,-1570 2202,4 -4,4"/>
<!-- S&#45;139 -->
<g id="node1" class="node">
<title>S&#45;139</title>
<polygon fill="mediumseagreen" stroke="black" points="1332,-952 1260,-930.5 1332,-909 1404,-930.5 1332,-952"/>
<text text-anchor="middle" x="1332" y="-928" font-family="Arial" font-size="10.00">S&#45;139</text>
</g>
<!-- R&#45;065 -->
<g id="node2" class="node">
<title>R&#45;065</title>
<polygon fill="mediumseagreen" stroke="black" points="954,-820.59 954,-838.41 911.82,-851 852.18,-851 810,-838.41 810,-820.59 852.18,-808 911.82,-808 954,-820.59"/>
<text text-anchor="middle" x="882" y="-827" font-family="Arial" font-size="10.00">R&#45;065</text>
</g>
<!-- S&#45;139&#45;&gt;R&#45;065 -->
<g id="edge21" class="edge">
<title>S&#45;139&#45;&gt;R&#45;065</title>
<path fill="none" stroke="#4d4d4d" d="M1281.6,-937C1177.74,-937 949.5,-937 949.5,-937 949.5,-937 949.5,-846.81 949.5,-846.81"/>
<polygon fill="#4d4d4d" stroke="#4d4d4d" points="951.95,-846.81 949.5,-839.81 947.05,-846.81 951.95,-846.81"/>
</g>
<!-- S&#45;879 -->
<g id="node10" class="node">
<title>S&#45;879</title>
<polygon fill="mediumseagreen" stroke="black" points="1062,-851 990,-829.5 1062,-808 1134,-829.5 1062,-851"/>
<text text-anchor="middle" x="1062" y="-827" font-family="Arial" font-size="10.00">S&#45;879</text>
</g>
<!-- S&#45;139&#45;&gt;S&#45;879 -->
<g id="edge19" class="edge">
<title>S&#45;139&#45;&gt;S&#45;879</title>
<path fill="none" stroke="#4d4d4d" d="M1284.97,-923C1220.21,-923 1111.5,-923 1111.5,-923 1111.5,-923 1111.5,-843.22 1111.5,-843.22"/>
<polygon fill="#4d4d4d" stroke="#4d4d4d" points="1113.95,-843.22 1111.5,-836.22 1109.05,-843.22 1113.95,-843.22"/>
</g>
<!-- S&#45;870 -->
<g id="node11" class="node">
<title>S&#45;870</title>
<polygon fill="mediumseagreen" stroke="black" points="1242,-851 1170,-829.5 1242,-808 1314,-829.5 1242,-851"/>
<text text-anchor="middle" x="1242" y="-827" font-family="Arial" font-size="10.00">S&#45;870</text>
</g>
<!-- S&#45;139&#45;&gt;S&#45;870 -->
<g id="edge46" class="edge">
<title>S&#45;139&#45;&gt;S&#45;870</title>
<path fill="none" stroke="#4d4d4d" d="M1287,-922.23C1287,-922.23 1287,-844.6 1287,-844.6"/>
<polygon fill="#4d4d4d" stroke="#4d4d4d" points="1289.45,-844.6 1287,-837.6 1284.55,-844.6 1289.45,-844.6"/>
</g>
<!-- S&#45;540 -->
<g id="node12" class="node">
<title>S&#45;540</title>
<polygon fill="mediumseagreen" stroke="black" points="1422,-851 1350,-829.5 1422,-808 1494,-829.5 1422,-851"/>
<text text-anchor="middle" x="1422" y="-827" font-family="Arial" font-size="10.00">S&#45;540</text>
</g>
<!-- S&#45;139&#45;&gt;S&#45;540 -->
<g id="edge18" class="edge">
<title>S&#45;139&#45;&gt;S&#45;540</title>
<path fill="none" stroke="#4d4d4d" d="M1363.5,-918.12C1363.5,-918.12 1363.5,-840.65 1363.5,-840.65"/>
<polygon fill="#4d4d4d" stroke="#4d4d4d" points="1365.95,-840.65 1363.5,-833.65 1361.05,-840.65 1365.95,-840.65"/>
</g>
<!-- S&#45;906 -->
<g id="node14" class="node">
<title>S&#45;906</title>
<polygon fill="mediumseagreen" stroke="black" points="1602,-851 1530,-829.5 1602,-808 1674,-829.5 1602,-851"/>
<text text-anchor="middle" x="1602" y="-827" font-family="Arial" font-size="10.00">S&#45;906</text>
</g>
<!-- S&#45;139&#45;&gt;S&#45;906 -->
<g id="edge17" class="edge">
<title>S&#45;139&#45;&gt;S&#45;906</title>
<path fill="none" stroke="#4d4d4d" d="M1377,-922.34C1377,-905.83 1377,-870 1377,-870 1377,-870 1557,-870 1557,-870 1557,-870 1557,-844.7 1557,-844.7"/>
<polygon fill="#4d4d4d" stroke="#4d4d4d" points="1559.45,-844.7 1557,-837.7 1554.55,-844.7 1559.45,-844.7"/>
</g>
<!-- S&#45;1554 -->
<g id="node36" class="node">
<title>S&#45;1554</title>
<polygon fill="mediumseagreen" stroke="black" points="1782,-851 1710,-829.5 1782,-808 1854,-829.5 1782,-851"/>
<text text-anchor="middle" x="1782" y="-827" font-family="Arial" font-size="10.00">S&#45;1554</text>
</g>
<!-- S&#45;139&#45;&gt;S&#45;1554 -->
<g id="edge20" class="edge">
<title>S&#45;139&#45;&gt;S&#45;1554</title>
<path fill="none" stroke="#4d4d4d" d="M1390.5,-926.37C1390.5,-915.87 1390.5,-889 1390.5,-889 1390.5,-889 1737,-889 1737,-889 1737,-889 1737,-844.77 1737,-844.77"/>
<polygon fill="#4d4d4d" stroke="#4d4d4d" points="1739.45,-844.77 1737,-837.77 1734.55,-844.77 1739.45,-844.77"/>
</g>
<!-- C&#45;0525 -->
<g id="node8" class="node">
<title>C&#45;0525</title>
<ellipse fill="mediumseagreen" stroke="black" cx="882" cy="-728.5" rx="72" ry="21.5"/>
<text text-anchor="middle" x="882" y="-726" font-family="Arial" font-size="10.00">C&#45;0525</text>
</g>
<!-- R&#45;065&#45;&gt;C&#45;0525 -->
<g id="edge22" class="edge">
<title>R&#45;065&#45;&gt;C&#45;0525</title>
<path fill="none" stroke="#4d4d4d" d="M882,-807.58C882,-807.58 882,-757.03 882,-757.03"/>
<polygon fill="#4d4d4d" stroke="#4d4d4d" points="884.45,-757.03 882,-750.03 879.55,-757.03 884.45,-757.03"/>
</g>
<!-- R&#45;191 -->
<g id="node3" class="node">
<title>R&#45;191</title>
<polygon fill="mediumseagreen" stroke="black" points="1764,-1123.59 1764,-1141.41 1721.82,-1154 1662.18,-1154 1620,-1141.41 1620,-1123.59 1662.18,-1111 1721.82,-1111 1764,-1123.59"/>
<text text-anchor="middle" x="1692" y="-1130" font-family="Arial" font-size="10.00">R&#45;191</text>
</g>
<!-- C&#45;0842 -->
<g id="node15" class="node">
<title>C&#45;0842</title>
<ellipse fill="mediumseagreen" stroke="black" cx="1692" cy="-1031.5" rx="72" ry="21.5"/>
<text text-anchor="middle" x="1692" y="-1029" font-family="Arial" font-size="10.00">C&#45;0842</text>
</g>
<!-- R&#45;191&#45;&gt;C&#45;0842 -->
<g id="edge12" class="edge">
<title>R&#45;191&#45;&gt;C&#45;0842</title>
<path fill="none" stroke="#4d4d4d" d="M1692,-1110.58C1692,-1110.58 1692,-1060.03 1692,-1060.03"/>
<polygon fill="#4d4d4d" stroke="#4d4d4d" points="1694.45,-1060.03 1692,-1053.03 1689.55,-1060.03 1694.45,-1060.03"/>
</g>
<!-- S&#45;2175 -->
<g id="node4" class="node">
<title>S&#45;2175</title>
<polygon fill="mediumseagreen" stroke="black" points="612,-548 540,-526.5 612,-505 684,-526.5 612,-548"/>
<text text-anchor="middle" x="612" y="-524" font-family="Arial" font-size="10.00">S&#45;2175</text>
</g>
<!-- S&#45;2231 -->
<g id="node13" class="node">
<title>S&#45;2231</title>
<polygon fill="mediumseagreen" stroke="black" points="612,-447 540,-425.5 612,-404 684,-425.5 612,-447"/>
<text text-anchor="middle" x="612" y="-423" font-family="Arial" font-size="10.00">S&#45;2231</text>
</g>
<!-- S&#45;2175&#45;&gt;S&#45;2231 -->
<g id="edge39" class="edge">
<title>S&#45;2175&#45;&gt;S&#45;2231</title>
<path fill="none" stroke="#4d4d4d" d="M612,-504.58C612,-504.58 612,-454.03 612,-454.03"/>
<polygon fill="#4d4d4d" stroke="#4d4d4d" points="614.45,-454.03 612,-447.03 609.55,-454.03 614.45,-454.03"/>
</g>
<!-- C&#45;1096 -->
<g id="node5" class="node">
<title>C&#45;1096</title>
<ellipse fill="mediumseagreen" stroke="black" cx="1422" cy="-122.5" rx="72" ry="21.5"/>
<text text-anchor="middle" x="1422" y="-120" font-family="Arial" font-size="10.00">C&#45;1096</text>
</g>
<!-- R&#45;271 -->
<g id="node9" class="node">
<title>R&#45;271</title>
<polygon fill="tomato" stroke="black" points="1494,-12.59 1494,-30.41 1451.82,-43 1392.18,-43 1350,-30.41 1350,-12.59 1392.18,0 1451.82,0 1494,-12.59"/>
<text text-anchor="middle" x="1422" y="-19" font-family="Arial" font-size="10.00">R&#45;271</text>
</g>
<!-- C&#45;1096&#45;&gt;R&#45;271 -->
<g id="edge34" class="edge">
<title>C&#45;1096&#45;&gt;R&#45;271</title>
<path fill="none" stroke="#4d4d4d" d="M1422,-100.58C1422,-100.58 1422,-50.03 1422,-50.03"/>
<polygon fill="#4d4d4d" stroke="#4d4d4d" points="1424.45,-50.03 1422,-43.03 1419.55,-50.03 1424.45,-50.03"/>
</g>
<!-- C&#45;0037 -->
<g id="node6" class="node">
<title>C&#45;0037</title>
<ellipse fill="mediumseagreen" stroke="black" cx="1856" cy="-1435.5" rx="72" ry="21.5"/>
<text text-anchor="middle" x="1856" y="-1433" font-family="Arial" font-size="10.00">C&#45;0037</text>
</g>
<!-- S&#45;1279 -->
<g id="node17" class="node">
<title>S&#45;1279</title>
<polygon fill="mediumseagreen" stroke="black" points="1766,-1356 1694,-1334.5 1766,-1313 1838,-1334.5 1766,-1356"/>
<text text-anchor="middle" x="1766" y="-1332" font-family="Arial" font-size="10.00">S&#45;1279</text>
</g>
<!-- C&#45;0037&#45;&gt;S&#45;1279 -->
<g id="edge2" class="edge">
<title>C&#45;0037&#45;&gt;S&#45;1279</title>
<path fill="none" stroke="#4d4d4d" d="M1811,-1418.37C1811,-1418.37 1811,-1349.78 1811,-1349.78"/>
<polygon fill="#4d4d4d" stroke="#4d4d4d" points="1813.45,-1349.78 1811,-1342.78 1808.55,-1349.78 1813.45,-1349.78"/>
</g>
<!-- C&#45;0034 -->
<g id="node41" class="node">
<title>C&#45;0034</title>
<ellipse fill="tomato" stroke="black" cx="1586" cy="-1334.5" rx="72" ry="21.5"/>
<text text-anchor="middle" x="1586" y="-1332" font-family="Arial" font-size="10.00">C&#45;0034</text>
</g>
<!-- C&#45;0037&#45;&gt;C&#45;0034 -->
<g id="edge3" class="edge">
<title>C&#45;0037&#45;&gt;C&#45;0034</title>
<path fill="none" stroke="#4d4d4d" d="M1783.88,-1435C1710.24,-1435 1606.67,-1435 1606.67,-1435 1606.67,-1435 1606.67,-1362.32 1606.67,-1362.32"/>
<polygon fill="#4d4d4d" stroke="#4d4d4d" points="1609.12,-1362.32 1606.67,-1355.32 1604.22,-1362.32 1609.12,-1362.32"/>
</g>
<!-- C&#45;0358 -->
<g id="node47" class="node">
<title>C&#45;0358</title>
<ellipse fill="mediumseagreen" stroke="black" cx="1946" cy="-1334.5" rx="72" ry="21.5"/>
<text text-anchor="middle" x="1946" y="-1332" font-family="Arial" font-size="10.00">C&#45;0358</text>
</g>
<!-- C&#45;0037&#45;&gt;C&#45;0358 -->
<g id="edge5" class="edge">
<title>C&#45;0037&#45;&gt;C&#45;0358</title>
<path fill="none" stroke="#4d4d4d" d="M1901,-1418.37C1901,-1418.37 1901,-1358.38 1901,-1358.38"/>
<polygon fill="#4d4d4d" stroke="#4d4d4d" points="1903.45,-1358.38 1901,-1351.38 1898.55,-1358.38 1903.45,-1358.38"/>
</g>
<!-- S&#45;1849 -->
<g id="node48" class="node">
<title>S&#45;1849</title>
<polygon fill="mediumseagreen" stroke="black" points="2126,-1356 2054,-1334.5 2126,-1313 2198,-1334.5 2126,-1356"/>
<text text-anchor="middle" x="2126" y="-1332" font-family="Arial" font-size="10.00">S&#45;1849</text>
</g>
<!-- C&#45;0037&#45;&gt;S&#45;1849 -->
<g id="edge4" class="edge">
<title>C&#45;0037&#45;&gt;S&#45;1849</title>
<path fill="none" stroke="#4d4d4d" d="M1928,-1435C2007.98,-1435 2126,-1435 2126,-1435 2126,-1435 2126,-1363.31 2126,-1363.31"/>
<polygon fill="#4d4d4d" stroke="#4d4d4d" points="2128.45,-1363.31 2126,-1356.31 2123.55,-1363.31 2128.45,-1363.31"/>
</g>
<!-- S&#45;589 -->
<g id="node7" class="node">
<title>S&#45;589</title>
<polygon fill="mediumseagreen" stroke="black" points="1512,-952 1440,-930.5 1512,-909 1584,-930.5 1512,-952"/>
<text text-anchor="middle" x="1512" y="-928" font-family="Arial" font-size="10.00">S&#45;589</text>
</g>
<!-- S&#45;877 -->
<g id="node16" class="node">
<title>S&#45;877</title>
<polygon fill="mediumseagreen" stroke="black" points="72,-649 0,-627.5 72,-606 144,-627.5 72,-649"/>
<text text-anchor="middle" x="72" y="-625" font-family="Arial" font-size="10.00">S&#45;877</text>
</g>
<!-- C&#45;0525&#45;&gt;S&#45;877 -->
<g id="edge40" class="edge">
<title>C&#45;0525&#45;&gt;S&#45;877</title>
<path fill="none" stroke="#4d4d4d" d="M823.09,-741C636.7,-741 72,-741 72,-741 72,-741 72,-656.12 72,-656.12"/>
<polygon fill="#4d4d4d" stroke="#4d4d4d" points="74.45,-656.12 72,-649.12 69.55,-656.12 74.45,-656.12"/>
</g>
<!-- C&#45;1036 -->
<g id="node18" class="node">
<title>C&#45;1036</title>
<ellipse fill="mediumseagreen" stroke="black" cx="252" cy="-627.5" rx="72" ry="21.5"/>
<text text-anchor="middle" x="252" y="-625" font-family="Arial" font-size="10.00">C&#45;1036</text>
</g>
<!-- C&#45;0525&#45;&gt;C&#45;1036 -->
<g id="edge41" class="edge">
<title>C&#45;0525&#45;&gt;C&#45;1036</title>
<path fill="none" stroke="#4d4d4d" d="M810.96,-732C646.19,-732 252,-732 252,-732 252,-732 252,-656.15 252,-656.15"/>
<polygon fill="#4d4d4d" stroke="#4d4d4d" points="254.45,-656.15 252,-649.15 249.55,-656.15 254.45,-656.15"/>
</g>
<!-- S&#45;907 -->
<g id="node23" class="node">
<title>S&#45;907</title>
<polygon fill="mediumseagreen" stroke="black" points="432,-649 360,-627.5 432,-606 504,-627.5 432,-649"/>
<text text-anchor="middle" x="432" y="-625" font-family="Arial" font-size="10.00">S&#45;907</text>
</g>
<!-- C&#45;0525&#45;&gt;S&#45;907 -->
<g id="edge43" class="edge">
<title>C&#45;0525&#45;&gt;S&#45;907</title>
<path fill="none" stroke="#4d4d4d" d="M811.19,-724C684.47,-724 432,-724 432,-724 432,-724 432,-656.4 432,-656.4"/>
<polygon fill="#4d4d4d" stroke="#4d4d4d" points="434.45,-656.4 432,-649.4 429.55,-656.4 434.45,-656.4"/>
</g>
<!-- S&#45;1363 -->
<g id="node30" class="node">
<title>S&#45;1363</title>
<polygon fill="mediumseagreen" stroke="black" points="612,-649 540,-627.5 612,-606 684,-627.5 612,-649"/>
<text text-anchor="middle" x="612" y="-625" font-family="Arial" font-size="10.00">S&#45;1363</text>
</g>
<!-- C&#45;0525&#45;&gt;S&#45;1363 -->
<g id="edge37" class="edge">
<title>C&#45;0525&#45;&gt;S&#45;1363</title>
<path fill="none" stroke="#4d4d4d" d="M825.73,-715C746.6,-715 612,-715 612,-715 612,-715 612,-656.13 612,-656.13"/>
<polygon fill="#4d4d4d" stroke="#4d4d4d" points="614.45,-656.13 612,-649.13 609.55,-656.13 614.45,-656.13"/>
</g>
<!-- S&#45;875 -->
<g id="node31" class="node">
<title>S&#45;875</title>
<polygon fill="mediumseagreen" stroke="black" points="792,-649 720,-627.5 792,-606 864,-627.5 792,-649"/>
<text text-anchor="middle" x="792" y="-625" font-family="Arial" font-size="10.00">S&#45;875</text>
</g>
<!-- C&#45;0525&#45;&gt;S&#45;875 -->
<g id="edge42" class="edge">
<title>C&#45;0525&#45;&gt;S&#45;875</title>
<path fill="none" stroke="#4d4d4d" d="M837,-711.37C837,-711.37 837,-642.78 837,-642.78"/>
<polygon fill="#4d4d4d" stroke="#4d4d4d" points="839.45,-642.78 837,-635.78 834.55,-642.78 839.45,-642.78"/>
</g>
<!-- S&#45;871 -->
<g id="node38" class="node">
<title>S&#45;871</title>
<polygon fill="mediumseagreen" stroke="black" points="972,-649 900,-627.5 972,-606 1044,-627.5 972,-649"/>
<text text-anchor="middle" x="972" y="-625" font-family="Arial" font-size="10.00">S&#45;871</text>
</g>
<!-- C&#45;0525&#45;&gt;S&#45;871 -->
<g id="edge23" class="edge">
<title>C&#45;0525&#45;&gt;S&#45;871</title>
<path fill="none" stroke="#4d4d4d" d="M927,-711.37C927,-711.37 927,-642.78 927,-642.78"/>
<polygon fill="#4d4d4d" stroke="#4d4d4d" points="929.45,-642.78 927,-635.78 924.55,-642.78 929.45,-642.78"/>
</g>
<!-- S&#45;1900 -->
<g id="node39" class="node">
<title>S&#45;1900</title>
<polygon fill="mediumseagreen" stroke="black" points="1152,-649 1080,-627.5 1152,-606 1224,-627.5 1152,-649"/>
<text text-anchor="middle" x="1152" y="-625" font-family="Arial" font-size="10.00">S&#45;1900</text>
</g>
<!-- C&#45;0525&#45;&gt;S&#45;1900 -->
<g id="edge36" class="edge">
<title>C&#45;0525&#45;&gt;S&#45;1900</title>
<path fill="none" stroke="#4d4d4d" d="M935.32,-714C1001.86,-714 1107,-714 1107,-714 1107,-714 1107,-642.79 1107,-642.79"/>
<polygon fill="#4d4d4d" stroke="#4d4d4d" points="1109.45,-642.79 1107,-635.79 1104.55,-642.79 1109.45,-642.79"/>
</g>
<!-- SR&#45;0011 -->
<g id="node42" class="node">
<title>SR&#45;0011</title>
<polygon fill="mediumseagreen" stroke="black" points="1332,-649 1260,-627.5 1332,-606 1404,-627.5 1332,-649"/>
<text text-anchor="middle" x="1332" y="-625" font-family="Arial" font-size="10.00">SR&#45;0011</text>
</g>
<!-- C&#45;0525&#45;&gt;SR&#45;0011 -->
<g id="edge44" class="edge">
<title>C&#45;0525&#45;&gt;SR&#45;0011</title>
<path fill="none" stroke="#4d4d4d" d="M954.41,-728C1070.9,-728 1287,-728 1287,-728 1287,-728 1287,-642.72 1287,-642.72"/>
<polygon fill="#4d4d4d" stroke="#4d4d4d" points="1289.45,-642.72 1287,-635.72 1284.55,-642.72 1289.45,-642.72"/>
</g>
<!-- C&#45;1110 -->
<g id="node43" class="node">
<title>C&#45;1110</title>
<ellipse fill="mediumseagreen" stroke="black" cx="1512" cy="-627.5" rx="72" ry="21.5"/>
<text text-anchor="middle" x="1512" y="-625" font-family="Arial" font-size="10.00">C&#45;1110</text>
</g>
<!-- C&#45;0525&#45;&gt;C&#45;1110 -->
<g id="edge35" class="edge">
<title>C&#45;0525&#45;&gt;C&#45;1110</title>
<path fill="none" stroke="#4d4d4d" d="M950.83,-735C1105.47,-735 1467,-735 1467,-735 1467,-735 1467,-651.3 1467,-651.3"/>
<polygon fill="#4d4d4d" stroke="#4d4d4d" points="1469.45,-651.3 1467,-644.3 1464.55,-651.3 1469.45,-651.3"/>
</g>
<!-- S&#45;872 -->
<g id="node46" class="node">
<title>S&#45;872</title>
<polygon fill="mediumseagreen" stroke="black" points="1692,-649 1620,-627.5 1692,-606 1764,-627.5 1692,-649"/>
<text text-anchor="middle" x="1692" y="-625" font-family="Arial" font-size="10.00">S&#45;872</text>
</g>
<!-- C&#45;0525&#45;&gt;S&#45;872 -->
<g id="edge24" class="edge">
<title>C&#45;0525&#45;&gt;S&#45;872</title>
<path fill="none" stroke="#4d4d4d" d="M938.25,-742C1114.92,-742 1647,-742 1647,-742 1647,-742 1647,-642.73 1647,-642.73"/>
<polygon fill="#4d4d4d" stroke="#4d4d4d" points="1649.45,-642.73 1647,-635.73 1644.55,-642.73 1649.45,-642.73"/>
</g>
<!-- ext_circ_303_26_ -->
<g id="node50" class="node">
<title>ext_circ_303_26_</title>
<polygon fill="lightpink" stroke="darkorange" stroke-dasharray="5,2" points="1089,-1562 945,-1562 945,-1519 1089,-1519 1089,-1562"/>
<text text-anchor="middle" x="1017" y="-1543.5" font-family="Arial" font-size="10.00">Circuito:</text>
<text text-anchor="middle" x="1017" y="-1532.5" font-family="Arial" font-size="10.00">303&#45;26&#45;</text>
</g>
<!-- R&#45;271&#45;&gt;ext_circ_303_26_ -->
<g id="edge51" class="edge">
<title>R&#45;271&#45;&gt;ext_circ_303_26_</title>
<path fill="none" stroke="darkorange" stroke-dasharray="5,2" d="M1349.82,-21C1299.75,-21 1242,-21 1242,-21 1242,-21 1242,-721 1242,-721 1242,-721 972,-721 972,-721 972,-721 972,-1511.58 972,-1511.58"/>
<polygon fill="darkorange" stroke="darkorange" points="969.55,-1511.58 972,-1518.58 974.45,-1511.58 969.55,-1511.58"/>
</g>
<!-- C&#45;0842&#45;&gt;S&#45;139 -->
<g id="edge16" class="edge">
<title>C&#45;0842&#45;&gt;S&#45;139</title>
<path fill="none" stroke="#4d4d4d" d="M1623.01,-1038C1518.48,-1038 1332,-1038 1332,-1038 1332,-1038 1332,-959.25 1332,-959.25"/>
<polygon fill="#4d4d4d" stroke="#4d4d4d" points="1334.45,-959.25 1332,-952.25 1329.55,-959.25 1334.45,-959.25"/>
</g>
<!-- C&#45;0842&#45;&gt;S&#45;589 -->
<g id="edge15" class="edge">
<title>C&#45;0842&#45;&gt;S&#45;589</title>
<path fill="none" stroke="#4d4d4d" d="M1624.27,-1024C1587.31,-1024 1549,-1024 1549,-1024 1549,-1024 1549,-948.23 1549,-948.23"/>
<polygon fill="#4d4d4d" stroke="#4d4d4d" points="1551.45,-948.23 1549,-941.23 1546.55,-948.23 1551.45,-948.23"/>
</g>
<!-- S&#45;860 -->
<g id="node19" class="node">
<title>S&#45;860</title>
<polygon fill="mediumseagreen" stroke="black" points="1692,-952 1620,-930.5 1692,-909 1764,-930.5 1692,-952"/>
<text text-anchor="middle" x="1692" y="-928" font-family="Arial" font-size="10.00">S&#45;860</text>
</g>
<!-- C&#45;0842&#45;&gt;S&#45;860 -->
<g id="edge47" class="edge">
<title>C&#45;0842&#45;&gt;S&#45;860</title>
<path fill="none" stroke="#4d4d4d" d="M1692,-1009.58C1692,-1009.58 1692,-959.03 1692,-959.03"/>
<polygon fill="#4d4d4d" stroke="#4d4d4d" points="1694.45,-959.03 1692,-952.03 1689.55,-959.03 1694.45,-959.03"/>
</g>
<!-- S&#45;2017 -->
<g id="node24" class="node">
<title>S&#45;2017</title>
<polygon fill="mediumseagreen" stroke="black" points="1872,-952 1800,-930.5 1872,-909 1944,-930.5 1872,-952"/>
<text text-anchor="middle" x="1872" y="-928" font-family="Arial" font-size="10.00">S&#45;2017</text>
</g>
<!-- C&#45;0842&#45;&gt;S&#45;2017 -->
<g id="edge14" class="edge">
<title>C&#45;0842&#45;&gt;S&#45;2017</title>
<path fill="none" stroke="#4d4d4d" d="M1753.14,-1020C1785.86,-1020 1819.5,-1020 1819.5,-1020 1819.5,-1020 1819.5,-943.37 1819.5,-943.37"/>
<polygon fill="#4d4d4d" stroke="#4d4d4d" points="1821.95,-943.37 1819.5,-936.37 1817.05,-943.37 1821.95,-943.37"/>
</g>
<!-- C&#45;0843 -->
<g id="node40" class="node">
<title>C&#45;0843</title>
<ellipse fill="tomato" stroke="black" cx="2052" cy="-930.5" rx="72" ry="21.5"/>
<text text-anchor="middle" x="2052" y="-928" font-family="Arial" font-size="10.00">C&#45;0843</text>
</g>
<!-- C&#45;0842&#45;&gt;C&#45;0843 -->
<g id="edge13" class="edge">
<title>C&#45;0842&#45;&gt;C&#45;0843</title>
<path fill="none" stroke="#4d4d4d" d="M1764.02,-1031C1852.97,-1031 1992.67,-1031 1992.67,-1031 1992.67,-1031 1992.67,-949.82 1992.67,-949.82"/>
<polygon fill="#4d4d4d" stroke="#4d4d4d" points="1995.12,-949.82 1992.67,-942.82 1990.22,-949.82 1995.12,-949.82"/>
</g>
<!-- S&#45;1482 -->
<g id="node20" class="node">
<title>S&#45;1482</title>
<polygon fill="mediumseagreen" stroke="black" points="1602,-245 1530,-223.5 1602,-202 1674,-223.5 1602,-245"/>
<text text-anchor="middle" x="1602" y="-221" font-family="Arial" font-size="10.00">S&#45;1482</text>
</g>
<!-- S&#45;1482&#45;&gt;C&#45;1096 -->
<g id="edge33" class="edge">
<title>S&#45;1482&#45;&gt;C&#45;1096</title>
<path fill="none" stroke="#4d4d4d" d="M1531.34,-223C1498.67,-223 1467,-223 1467,-223 1467,-223 1467,-146.55 1467,-146.55"/>
<polygon fill="#4d4d4d" stroke="#4d4d4d" points="1469.45,-146.55 1467,-139.55 1464.55,-146.55 1469.45,-146.55"/>
</g>
<!-- S&#45;1481 -->
<g id="node32" class="node">
<title>S&#45;1481</title>
<polygon fill="mediumseagreen" stroke="black" points="1602,-144 1530,-122.5 1602,-101 1674,-122.5 1602,-144"/>
<text text-anchor="middle" x="1602" y="-120" font-family="Arial" font-size="10.00">S&#45;1481</text>
</g>
<!-- S&#45;1482&#45;&gt;S&#45;1481 -->
<g id="edge31" class="edge">
<title>S&#45;1482&#45;&gt;S&#45;1481</title>
<path fill="none" stroke="#4d4d4d" d="M1602,-201.58C1602,-201.58 1602,-151.03 1602,-151.03"/>
<polygon fill="#4d4d4d" stroke="#4d4d4d" points="1604.45,-151.03 1602,-144.03 1599.55,-151.03 1604.45,-151.03"/>
</g>
<!-- S&#45;2457 -->
<g id="node34" class="node">
<title>S&#45;2457</title>
<polygon fill="mediumseagreen" stroke="black" points="1782,-144 1710,-122.5 1782,-101 1854,-122.5 1782,-144"/>
<text text-anchor="middle" x="1782" y="-120" font-family="Arial" font-size="10.00">S&#45;2457</text>
</g>
<!-- S&#45;1482&#45;&gt;S&#45;2457 -->
<g id="edge30" class="edge">
<title>S&#45;1482&#45;&gt;S&#45;2457</title>
<path fill="none" stroke="#4d4d4d" d="M1649.06,-216C1709.3,-216 1806,-216 1806,-216 1806,-216 1806,-144.11 1806,-144.11"/>
<polygon fill="#4d4d4d" stroke="#4d4d4d" points="1808.45,-144.11 1806,-137.11 1803.55,-144.11 1808.45,-144.11"/>
</g>
<!-- 304&#45;23&#45; -->
<g id="node21" class="node">
<title>304&#45;23&#45;</title>
<polygon fill="gold" stroke="black" points="1928,-1531.59 1928,-1549.41 1885.82,-1562 1826.18,-1562 1784,-1549.41 1784,-1531.59 1826.18,-1519 1885.82,-1519 1928,-1531.59"/>
<polygon fill="none" stroke="black" points="1932,-1528.61 1932,-1552.39 1886.41,-1566 1825.59,-1566 1780,-1552.39 1780,-1528.61 1825.59,-1515 1886.41,-1515 1932,-1528.61"/>
<text text-anchor="middle" x="1856" y="-1538" font-family="Arial" font-size="10.00">304&#45;23&#45;</text>
</g>
<!-- 304&#45;23&#45;&#45;&gt;C&#45;0037 -->
<g id="edge1" class="edge">
<title>304&#45;23&#45;&#45;&gt;C&#45;0037</title>
<path fill="none" stroke="#4d4d4d" d="M1856,-1514.81C1856,-1514.81 1856,-1464.03 1856,-1464.03"/>
<polygon fill="#4d4d4d" stroke="#4d4d4d" points="1858.45,-1464.03 1856,-1457.03 1853.55,-1464.03 1858.45,-1464.03"/>
</g>
<!-- C&#45;0596 -->
<g id="node22" class="node">
<title>C&#45;0596</title>
<ellipse fill="mediumseagreen" stroke="black" cx="1602" cy="-324.5" rx="72" ry="21.5"/>
<text text-anchor="middle" x="1602" y="-322" font-family="Arial" font-size="10.00">C&#45;0596</text>
</g>
<!-- C&#45;0596&#45;&gt;S&#45;1482 -->
<g id="edge29" class="edge">
<title>C&#45;0596&#45;&gt;S&#45;1482</title>
<path fill="none" stroke="#4d4d4d" d="M1602,-302.58C1602,-302.58 1602,-252.03 1602,-252.03"/>
<polygon fill="#4d4d4d" stroke="#4d4d4d" points="1604.45,-252.03 1602,-245.03 1599.55,-252.03 1604.45,-252.03"/>
</g>
<!-- C&#45;0844 -->
<g id="node25" class="node">
<title>C&#45;0844</title>
<ellipse fill="mediumseagreen" stroke="black" cx="1729" cy="-1233.5" rx="72" ry="21.5"/>
<text text-anchor="middle" x="1729" y="-1231" font-family="Arial" font-size="10.00">C&#45;0844</text>
</g>
<!-- C&#45;0844&#45;&gt;R&#45;191 -->
<g id="edge11" class="edge">
<title>C&#45;0844&#45;&gt;R&#45;191</title>
<path fill="none" stroke="#4d4d4d" d="M1710.5,-1212.57C1710.5,-1212.57 1710.5,-1161.1 1710.5,-1161.1"/>
<polygon fill="#4d4d4d" stroke="#4d4d4d" points="1712.95,-1161.1 1710.5,-1154.1 1708.05,-1161.1 1712.95,-1161.1"/>
</g>
<!-- R&#45;100 -->
<g id="node26" class="node">
<title>R&#45;100</title>
<polygon fill="mediumseagreen" stroke="black" points="1674,-416.59 1674,-434.41 1631.82,-447 1572.18,-447 1530,-434.41 1530,-416.59 1572.18,-404 1631.82,-404 1674,-416.59"/>
<text text-anchor="middle" x="1602" y="-423" font-family="Arial" font-size="10.00">R&#45;100</text>
</g>
<!-- R&#45;100&#45;&gt;C&#45;0596 -->
<g id="edge28" class="edge">
<title>R&#45;100&#45;&gt;C&#45;0596</title>
<path fill="none" stroke="#4d4d4d" d="M1602,-403.58C1602,-403.58 1602,-353.03 1602,-353.03"/>
<polygon fill="#4d4d4d" stroke="#4d4d4d" points="1604.45,-353.03 1602,-346.03 1599.55,-353.03 1604.45,-353.03"/>
</g>
<!-- S&#45;2003 -->
<g id="node27" class="node">
<title>S&#45;2003</title>
<polygon fill="mediumseagreen" stroke="black" points="1332,-548 1260,-526.5 1332,-505 1404,-526.5 1332,-548"/>
<text text-anchor="middle" x="1332" y="-524" font-family="Arial" font-size="10.00">S&#45;2003</text>
</g>
<!-- C&#45;0597 -->
<g id="node28" class="node">
<title>C&#45;0597</title>
<ellipse fill="mediumseagreen" stroke="black" cx="1602" cy="-526.5" rx="72" ry="21.5"/>
<text text-anchor="middle" x="1602" y="-524" font-family="Arial" font-size="10.00">C&#45;0597</text>
</g>
<!-- C&#45;0597&#45;&gt;R&#45;100 -->
<g id="edge27" class="edge">
<title>C&#45;0597&#45;&gt;R&#45;100</title>
<path fill="none" stroke="#4d4d4d" d="M1602,-504.58C1602,-504.58 1602,-454.03 1602,-454.03"/>
<polygon fill="#4d4d4d" stroke="#4d4d4d" points="1604.45,-454.03 1602,-447.03 1599.55,-454.03 1604.45,-454.03"/>
</g>
<!-- S&#45;544 -->
<g id="node29" class="node">
<title>S&#45;544</title>
<polygon fill="mediumseagreen" stroke="black" points="1946,-1255 1874,-1233.5 1946,-1212 2018,-1233.5 1946,-1255"/>
<text text-anchor="middle" x="1946" y="-1231" font-family="Arial" font-size="10.00">S&#45;544</text>
</g>
<!-- S&#45;1505 -->
<g id="node35" class="node">
<title>S&#45;1505</title>
<polygon fill="mediumseagreen" stroke="black" points="1946,-1154 1874,-1132.5 1946,-1111 2018,-1132.5 1946,-1154"/>
<text text-anchor="middle" x="1946" y="-1130" font-family="Arial" font-size="10.00">S&#45;1505</text>
</g>
<!-- S&#45;544&#45;&gt;S&#45;1505 -->
<g id="edge7" class="edge">
<title>S&#45;544&#45;&gt;S&#45;1505</title>
<path fill="none" stroke="#4d4d4d" d="M1946,-1211.58C1946,-1211.58 1946,-1161.03 1946,-1161.03"/>
<polygon fill="#4d4d4d" stroke="#4d4d4d" points="1948.45,-1161.03 1946,-1154.03 1943.55,-1161.03 1948.45,-1161.03"/>
</g>
<!-- S&#45;2025 -->
<g id="node45" class="node">
<title>S&#45;2025</title>
<polygon fill="mediumseagreen" stroke="black" points="2126,-1154 2054,-1132.5 2126,-1111 2198,-1132.5 2126,-1154"/>
<text text-anchor="middle" x="2126" y="-1130" font-family="Arial" font-size="10.00">S&#45;2025</text>
</g>
<!-- S&#45;544&#45;&gt;S&#45;2025 -->
<g id="edge8" class="edge">
<title>S&#45;544&#45;&gt;S&#45;2025</title>
<path fill="none" stroke="#4d4d4d" d="M1992.91,-1226C2012.15,-1226 2030,-1226 2030,-1226 2030,-1226 2030,-1132 2030,-1132 2030,-1132 2048.47,-1132 2048.47,-1132"/>
<polygon fill="#4d4d4d" stroke="#4d4d4d" points="2048.47,-1134.45 2055.47,-1132 2048.47,-1129.55 2048.47,-1134.45"/>
</g>
<!-- S&#45;1363&#45;&gt;S&#45;2175 -->
<g id="edge38" class="edge">
<title>S&#45;1363&#45;&gt;S&#45;2175</title>
<path fill="none" stroke="#4d4d4d" d="M612,-605.58C612,-605.58 612,-555.03 612,-555.03"/>
<polygon fill="#4d4d4d" stroke="#4d4d4d" points="614.45,-555.03 612,-548.03 609.55,-555.03 614.45,-555.03"/>
</g>
<!-- C&#45;0759 -->
<g id="node37" class="node">
<title>C&#45;0759</title>
<ellipse fill="mediumseagreen" stroke="black" cx="1602" cy="-21.5" rx="72" ry="21.5"/>
<text text-anchor="middle" x="1602" y="-19" font-family="Arial" font-size="10.00">C&#45;0759</text>
</g>
<!-- S&#45;1481&#45;&gt;C&#45;0759 -->
<g id="edge32" class="edge">
<title>S&#45;1481&#45;&gt;C&#45;0759</title>
<path fill="none" stroke="#4d4d4d" d="M1602,-100.58C1602,-100.58 1602,-50.03 1602,-50.03"/>
<polygon fill="#4d4d4d" stroke="#4d4d4d" points="1604.45,-50.03 1602,-43.03 1599.55,-50.03 1604.45,-50.03"/>
</g>
<!-- C&#45;0563 -->
<g id="node33" class="node">
<title>C&#45;0563</title>
<ellipse fill="tomato" stroke="black" cx="1782" cy="-526.5" rx="72" ry="21.5"/>
<text text-anchor="middle" x="1782" y="-524" font-family="Arial" font-size="10.00">C&#45;0563</text>
</g>
<!-- C&#45;0563&#45;&gt;S&#45;1482 -->
<g id="edge50" class="edge">
<title>C&#45;0563&#45;&gt;S&#45;1482</title>
<path fill="none" stroke="blue" stroke-dasharray="5,2" d="M1758,-506.12C1758,-439.13 1758,-230 1758,-230 1758,-230 1659.65,-230 1659.65,-230"/>
<polygon fill="blue" stroke="blue" points="1659.65,-227.55 1652.65,-230 1659.65,-232.45 1659.65,-227.55"/>
</g>
<!-- C&#45;0843&#45;&gt;C&#45;0844 -->
<g id="edge49" class="edge">
<title>C&#45;0843&#45;&gt;C&#45;0844</title>
<path fill="none" stroke="blue" stroke-dasharray="5,2" d="M2005.33,-946.95C2005.33,-977.97 2005.33,-1042 2005.33,-1042 2005.33,-1042 1782,-1042 1782,-1042 1782,-1042 1782,-1211.79 1782,-1211.79"/>
<polygon fill="blue" stroke="blue" points="1779.55,-1211.79 1782,-1218.79 1784.45,-1211.79 1779.55,-1211.79"/>
</g>
<!-- ext_circ_304_22_ -->
<g id="node49" class="node">
<title>ext_circ_304_22_</title>
<polygon fill="lightpink" stroke="darkorange" stroke-dasharray="5,2" points="1653,-1562 1509,-1562 1509,-1519 1653,-1519 1653,-1562"/>
<text text-anchor="middle" x="1581" y="-1543.5" font-family="Arial" font-size="10.00">Circuito:</text>
<text text-anchor="middle" x="1581" y="-1532.5" font-family="Arial" font-size="10.00">304&#45;22&#45;</text>
</g>
<!-- C&#45;0034&#45;&gt;ext_circ_304_22_ -->
<g id="edge48" class="edge">
<title>C&#45;0034&#45;&gt;ext_circ_304_22_</title>
<path fill="none" stroke="darkorange" stroke-dasharray="5,2" d="M1560.33,-1354.63C1560.33,-1354.63 1560.33,-1511.75 1560.33,-1511.75"/>
<polygon fill="darkorange" stroke="darkorange" points="1557.88,-1511.75 1560.33,-1518.75 1562.78,-1511.75 1557.88,-1511.75"/>
</g>
<!-- SR&#45;0011&#45;&gt;S&#45;2003 -->
<g id="edge45" class="edge">
<title>SR&#45;0011&#45;&gt;S&#45;2003</title>
<path fill="none" stroke="#4d4d4d" d="M1332,-605.58C1332,-605.58 1332,-555.03 1332,-555.03"/>
<polygon fill="#4d4d4d" stroke="#4d4d4d" points="1334.45,-555.03 1332,-548.03 1329.55,-555.03 1334.45,-555.03"/>
</g>
<!-- S&#45;859 -->
<g id="node44" class="node">
<title>S&#45;859</title>
<polygon fill="mediumseagreen" stroke="black" points="2126,-1255 2054,-1233.5 2126,-1212 2198,-1233.5 2126,-1255"/>
<text text-anchor="middle" x="2126" y="-1231" font-family="Arial" font-size="10.00">S&#45;859</text>
</g>
<!-- S&#45;872&#45;&gt;C&#45;0597 -->
<g id="edge26" class="edge">
<title>S&#45;872&#45;&gt;C&#45;0597</title>
<path fill="none" stroke="#4d4d4d" d="M1647,-619.23C1647,-619.23 1647,-550.52 1647,-550.52"/>
<polygon fill="#4d4d4d" stroke="#4d4d4d" points="1649.45,-550.52 1647,-543.52 1644.55,-550.52 1649.45,-550.52"/>
</g>
<!-- S&#45;872&#45;&gt;C&#45;0563 -->
<g id="edge25" class="edge">
<title>S&#45;872&#45;&gt;C&#45;0563</title>
<path fill="none" stroke="#4d4d4d" d="M1737,-619.23C1737,-619.23 1737,-550.52 1737,-550.52"/>
<polygon fill="#4d4d4d" stroke="#4d4d4d" points="1739.45,-550.52 1737,-543.52 1734.55,-550.52 1739.45,-550.52"/>
</g>
<!-- C&#45;0358&#45;&gt;C&#45;0844 -->
<g id="edge10" class="edge">
<title>C&#45;0358&#45;&gt;C&#45;0844</title>
<path fill="none" stroke="#4d4d4d" d="M1873.78,-1334C1863.32,-1334 1856,-1334 1856,-1334 1856,-1334 1856,-1233 1856,-1233 1856,-1233 1808.03,-1233 1808.03,-1233"/>
<polygon fill="#4d4d4d" stroke="#4d4d4d" points="1808.03,-1230.55 1801.03,-1233 1808.03,-1235.45 1808.03,-1230.55"/>
</g>
<!-- C&#45;0358&#45;&gt;S&#45;544 -->
<g id="edge6" class="edge">
<title>C&#45;0358&#45;&gt;S&#45;544</title>
<path fill="none" stroke="#4d4d4d" d="M1946,-1312.58C1946,-1312.58 1946,-1262.03 1946,-1262.03"/>
<polygon fill="#4d4d4d" stroke="#4d4d4d" points="1948.45,-1262.03 1946,-1255.03 1943.55,-1262.03 1948.45,-1262.03"/>
</g>
<!-- C&#45;0358&#45;&gt;S&#45;859 -->
<g id="edge9" class="edge">
<title>C&#45;0358&#45;&gt;S&#45;859</title>
<path fill="none" stroke="#4d4d4d" d="M2018.27,-1334C2031.91,-1334 2042,-1334 2042,-1334 2042,-1334 2042,-1240 2042,-1240 2042,-1240 2068.68,-1240 2068.68,-1240"/>
<polygon fill="#4d4d4d" stroke="#4d4d4d" points="2068.68,-1242.45 2075.68,-1240 2068.68,-1237.55 2068.68,-1242.45"/>
</g>
</g>
</svg>
