<?xml version="1.0" encoding="UTF-8" standalone="no"?>
<!DOCTYPE svg PUBLIC "-//W3C//DTD SVG 1.1//EN"
 "http://www.w3.org/Graphics/SVG/1.1/DTD/svg11.dtd">
<!-- Generated by graphviz version 2.50.0 (0)
 -->
<!-- Title: Grafo_Circuito_110_24_ Pages: 1 -->
<svg width="1403pt" height="1274pt"
 viewBox="0.00 0.00 1403.00 1274.00" xmlns="http://www.w3.org/2000/svg" xmlns:xlink="http://www.w3.org/1999/xlink">
<g id="graph0" class="graph" transform="scale(1 1) rotate(0) translate(4 1270)">
<title>Grafo_Circuito_110_24_</title>
<polygon fill="white" stroke="transparent" points="-4,4 -4,-1270 1399,-1270 1399,4 -4,4"/>
<!-- C&#45;0778 -->
<g id="node1" class="node">
<title>C&#45;0778</title>
<ellipse fill="mediumseagreen" stroke="black" cx="241.5" cy="-864" rx="68.5" ry="18"/>
<text text-anchor="middle" x="241.5" y="-862.1" font-family="Helvetica,sans-Serif" font-size="8.00">C&#45;0778</text>
</g>
<!-- S&#45;1427 -->
<g id="node2" class="node">
<title>S&#45;1427</title>
<polygon fill="mediumseagreen" stroke="black" points="241.5,-976 173,-958 241.5,-940 310,-958 241.5,-976"/>
<text text-anchor="middle" x="241.5" y="-956.1" font-family="Helvetica,sans-Serif" font-size="8.00">S&#45;1427</text>
</g>
<!-- C&#45;0746 -->
<g id="node3" class="node">
<title>C&#45;0746</title>
<ellipse fill="mediumseagreen" stroke="black" cx="578.5" cy="-300" rx="68.5" ry="18"/>
<text text-anchor="middle" x="578.5" y="-298.1" font-family="Helvetica,sans-Serif" font-size="8.00">C&#45;0746</text>
</g>
<!-- R&#45;163 -->
<g id="node28" class="node">
<title>R&#45;163</title>
<polygon fill="mediumseagreen" stroke="black" points="628,-198.54 628,-213.46 587.87,-224 531.13,-224 491,-213.46 491,-198.54 531.13,-188 587.87,-188 628,-198.54"/>
<text text-anchor="middle" x="559.5" y="-204.1" font-family="Helvetica,sans-Serif" font-size="8.00">R&#45;163</text>
</g>
<!-- C&#45;0746&#45;&gt;R&#45;163 -->
<g id="edge19" class="edge">
<title>C&#45;0746&#45;&gt;R&#45;163</title>
<path fill="none" stroke="dimgray" stroke-width="0.8" d="M569,-281.88C569,-281.88 569,-231.07 569,-231.07"/>
<polygon fill="dimgray" stroke="dimgray" stroke-width="0.8" points="571.45,-231.07 569,-224.07 566.55,-231.07 571.45,-231.07"/>
</g>
<!-- C&#45;0506 -->
<g id="node4" class="node">
<title>C&#45;0506</title>
<ellipse fill="mediumseagreen" stroke="black" cx="760.5" cy="-582" rx="68.5" ry="18"/>
<text text-anchor="middle" x="760.5" y="-580.1" font-family="Helvetica,sans-Serif" font-size="8.00">C&#45;0506</text>
</g>
<!-- C&#45;0715 -->
<g id="node23" class="node">
<title>C&#45;0715</title>
<ellipse fill="mediumseagreen" stroke="black" cx="788.5" cy="-488" rx="68.5" ry="18"/>
<text text-anchor="middle" x="788.5" y="-486.1" font-family="Helvetica,sans-Serif" font-size="8.00">C&#45;0715</text>
</g>
<!-- C&#45;0506&#45;&gt;C&#45;0715 -->
<g id="edge15" class="edge">
<title>C&#45;0506&#45;&gt;C&#45;0715</title>
<path fill="none" stroke="dimgray" stroke-width="0.8" d="M774.5,-564.32C774.5,-564.32 774.5,-512.92 774.5,-512.92"/>
<polygon fill="dimgray" stroke="dimgray" stroke-width="0.8" points="776.95,-512.92 774.5,-505.92 772.05,-512.92 776.95,-512.92"/>
</g>
<!-- C&#45;0714 -->
<g id="node26" class="node">
<title>C&#45;0714</title>
<ellipse fill="tomato" stroke="black" cx="615.5" cy="-488" rx="68.5" ry="18"/>
<text text-anchor="middle" x="615.5" y="-486.1" font-family="Helvetica,sans-Serif" font-size="8.00">C&#45;0714</text>
</g>
<!-- C&#45;0506&#45;&gt;C&#45;0714 -->
<g id="edge14" class="edge">
<title>C&#45;0506&#45;&gt;C&#45;0714</title>
<path fill="none" stroke="dimgray" stroke-width="0.8" d="M691.91,-582C679.29,-582 670,-582 670,-582 670,-582 670,-506.15 670,-506.15"/>
<polygon fill="dimgray" stroke="dimgray" stroke-width="0.8" points="672.45,-506.15 670,-499.15 667.55,-506.15 672.45,-506.15"/>
</g>
<!-- C&#45;0504 -->
<g id="node5" class="node">
<title>C&#45;0504</title>
<ellipse fill="tomato" stroke="black" cx="68.5" cy="-770" rx="68.5" ry="18"/>
<text text-anchor="middle" x="68.5" y="-768.1" font-family="Helvetica,sans-Serif" font-size="8.00">C&#45;0504</text>
</g>
<!-- C&#45;0504&#45;&gt;C&#45;0714 -->
<g id="edge30" class="edge">
<title>C&#45;0504&#45;&gt;C&#45;0714</title>
<path fill="none" stroke="blue" stroke-width="0.8" stroke-dasharray="5,2" d="M68.5,-751.93C68.5,-689.69 68.5,-488 68.5,-488 68.5,-488 539.78,-488 539.78,-488"/>
<polygon fill="blue" stroke="blue" stroke-width="0.8" points="539.78,-490.45 546.78,-488 539.78,-485.55 539.78,-490.45"/>
</g>
<!-- C&#45;0716 -->
<g id="node6" class="node">
<title>C&#45;0716</title>
<ellipse fill="mediumseagreen" stroke="black" cx="788.5" cy="-394" rx="68.5" ry="18"/>
<text text-anchor="middle" x="788.5" y="-392.1" font-family="Helvetica,sans-Serif" font-size="8.00">C&#45;0716</text>
</g>
<!-- C&#45;0716&#45;&gt;C&#45;0746 -->
<g id="edge17" class="edge">
<title>C&#45;0716&#45;&gt;C&#45;0746</title>
<path fill="none" stroke="dimgray" stroke-width="0.8" d="M723.67,-388C668.11,-388 597,-388 597,-388 597,-388 597,-324.39 597,-324.39"/>
<polygon fill="dimgray" stroke="dimgray" stroke-width="0.8" points="599.45,-324.39 597,-317.39 594.55,-324.39 599.45,-324.39"/>
</g>
<!-- C&#45;0747 -->
<g id="node15" class="node">
<title>C&#45;0747</title>
<ellipse fill="tomato" stroke="black" cx="788.5" cy="-300" rx="68.5" ry="18"/>
<text text-anchor="middle" x="788.5" y="-298.1" font-family="Helvetica,sans-Serif" font-size="8.00">C&#45;0747</text>
</g>
<!-- C&#45;0716&#45;&gt;C&#45;0747 -->
<g id="edge18" class="edge">
<title>C&#45;0716&#45;&gt;C&#45;0747</title>
<path fill="none" stroke="dimgray" stroke-width="0.8" d="M788.5,-375.88C788.5,-375.88 788.5,-325.07 788.5,-325.07"/>
<polygon fill="dimgray" stroke="dimgray" stroke-width="0.8" points="790.95,-325.07 788.5,-318.07 786.05,-325.07 790.95,-325.07"/>
</g>
<!-- C&#45;0187 -->
<g id="node19" class="node">
<title>C&#45;0187</title>
<ellipse fill="mediumseagreen" stroke="black" cx="980.5" cy="-300" rx="68.5" ry="18"/>
<text text-anchor="middle" x="980.5" y="-298.1" font-family="Helvetica,sans-Serif" font-size="8.00">C&#45;0187</text>
</g>
<!-- C&#45;0716&#45;&gt;C&#45;0187 -->
<g id="edge22" class="edge">
<title>C&#45;0716&#45;&gt;C&#45;0187</title>
<path fill="none" stroke="dimgray" stroke-width="0.8" d="M857,-394C912.14,-394 980.5,-394 980.5,-394 980.5,-394 980.5,-325.12 980.5,-325.12"/>
<polygon fill="dimgray" stroke="dimgray" stroke-width="0.8" points="982.95,-325.12 980.5,-318.12 978.05,-325.12 982.95,-325.12"/>
</g>
<!-- C&#45;0428 -->
<g id="node7" class="node">
<title>C&#45;0428</title>
<ellipse fill="mediumseagreen" stroke="black" cx="807.5" cy="-206" rx="68.5" ry="18"/>
<text text-anchor="middle" x="807.5" y="-204.1" font-family="Helvetica,sans-Serif" font-size="8.00">C&#45;0428</text>
</g>
<!-- S&#45;1412 -->
<g id="node8" class="node">
<title>S&#45;1412</title>
<polygon fill="mediumseagreen" stroke="black" points="980.5,-224 912,-206 980.5,-188 1049,-206 980.5,-224"/>
<text text-anchor="middle" x="980.5" y="-204.1" font-family="Helvetica,sans-Serif" font-size="8.00">S&#45;1412</text>
</g>
<!-- S&#45;1582 -->
<g id="node9" class="node">
<title>S&#45;1582</title>
<polygon fill="mediumseagreen" stroke="black" points="241.5,-788 173,-770 241.5,-752 310,-770 241.5,-788"/>
<text text-anchor="middle" x="241.5" y="-768.1" font-family="Helvetica,sans-Serif" font-size="8.00">S&#45;1582</text>
</g>
<!-- 110&#45;24&#45; -->
<g id="node10" class="node">
<title>110&#45;24&#45;</title>
<polygon fill="gold" stroke="black" points="396,-1236.54 396,-1251.46 355.87,-1262 299.13,-1262 259,-1251.46 259,-1236.54 299.13,-1226 355.87,-1226 396,-1236.54"/>
<polygon fill="none" stroke="black" points="400,-1233.46 400,-1254.54 356.39,-1266 298.61,-1266 255,-1254.54 255,-1233.46 298.61,-1222 356.39,-1222 400,-1233.46"/>
<text text-anchor="middle" x="327.5" y="-1242.1" font-family="Helvetica,sans-Serif" font-size="8.00">110&#45;24&#45;</text>
</g>
<!-- C&#45;0096 -->
<g id="node29" class="node">
<title>C&#45;0096</title>
<ellipse fill="mediumseagreen" stroke="black" cx="327.5" cy="-1146" rx="68.5" ry="18"/>
<text text-anchor="middle" x="327.5" y="-1144.1" font-family="Helvetica,sans-Serif" font-size="8.00">C&#45;0096</text>
</g>
<!-- 110&#45;24&#45;&#45;&gt;C&#45;0096 -->
<g id="edge1" class="edge">
<title>110&#45;24&#45;&#45;&gt;C&#45;0096</title>
<path fill="none" stroke="dimgray" stroke-width="0.8" d="M327.5,-1221.76C327.5,-1221.76 327.5,-1171.21 327.5,-1171.21"/>
<polygon fill="dimgray" stroke="dimgray" stroke-width="0.8" points="329.95,-1171.21 327.5,-1164.21 325.05,-1171.21 329.95,-1171.21"/>
</g>
<!-- S&#45;2506 -->
<g id="node11" class="node">
<title>S&#45;2506</title>
<polygon fill="mediumseagreen" stroke="black" points="241.5,-1070 173,-1052 241.5,-1034 310,-1052 241.5,-1070"/>
<text text-anchor="middle" x="241.5" y="-1050.1" font-family="Helvetica,sans-Serif" font-size="8.00">S&#45;2506</text>
</g>
<!-- C&#45;0134 -->
<g id="node12" class="node">
<title>C&#45;0134</title>
<ellipse fill="mediumseagreen" stroke="black" cx="414.5" cy="-958" rx="68.5" ry="18"/>
<text text-anchor="middle" x="414.5" y="-956.1" font-family="Helvetica,sans-Serif" font-size="8.00">C&#45;0134</text>
</g>
<!-- C&#45;0134&#45;&gt;C&#45;0778 -->
<g id="edge28" class="edge">
<title>C&#45;0134&#45;&gt;C&#45;0778</title>
<path fill="none" stroke="dimgray" stroke-width="0.8" d="M349.83,-952C337.31,-952 328,-952 328,-952 328,-952 328,-870 328,-870 328,-870 313.17,-870 313.17,-870"/>
<polygon fill="dimgray" stroke="dimgray" stroke-width="0.8" points="313.17,-867.55 306.17,-870 313.17,-872.45 313.17,-867.55"/>
</g>
<!-- C&#45;0135 -->
<g id="node20" class="node">
<title>C&#45;0135</title>
<ellipse fill="mediumseagreen" stroke="black" cx="414.5" cy="-864" rx="68.5" ry="18"/>
<text text-anchor="middle" x="414.5" y="-862.1" font-family="Helvetica,sans-Serif" font-size="8.00">C&#45;0135</text>
</g>
<!-- C&#45;0134&#45;&gt;C&#45;0135 -->
<g id="edge7" class="edge">
<title>C&#45;0134&#45;&gt;C&#45;0135</title>
<path fill="none" stroke="dimgray" stroke-width="0.8" d="M414.5,-939.88C414.5,-939.88 414.5,-889.07 414.5,-889.07"/>
<polygon fill="dimgray" stroke="dimgray" stroke-width="0.8" points="416.95,-889.07 414.5,-882.07 412.05,-889.07 416.95,-889.07"/>
</g>
<!-- S&#45;1636 -->
<g id="node22" class="node">
<title>S&#45;1636</title>
<polygon fill="mediumseagreen" stroke="black" points="587.5,-882 519,-864 587.5,-846 656,-864 587.5,-882"/>
<text text-anchor="middle" x="587.5" y="-862.1" font-family="Helvetica,sans-Serif" font-size="8.00">S&#45;1636</text>
</g>
<!-- C&#45;0134&#45;&gt;S&#45;1636 -->
<g id="edge6" class="edge">
<title>C&#45;0134&#45;&gt;S&#45;1636</title>
<path fill="none" stroke="dimgray" stroke-width="0.8" d="M483.43,-958C495.18,-958 503.67,-958 503.67,-958 503.67,-958 503.67,-870 503.67,-870 503.67,-870 534.66,-870 534.66,-870"/>
<polygon fill="dimgray" stroke="dimgray" stroke-width="0.8" points="534.66,-872.45 541.66,-870 534.66,-867.55 534.66,-872.45"/>
</g>
<!-- R&#45;030 -->
<g id="node13" class="node">
<title>R&#45;030</title>
<polygon fill="mediumseagreen" stroke="black" points="829,-668.54 829,-683.46 788.87,-694 732.13,-694 692,-683.46 692,-668.54 732.13,-658 788.87,-658 829,-668.54"/>
<text text-anchor="middle" x="760.5" y="-674.1" font-family="Helvetica,sans-Serif" font-size="8.00">R&#45;030</text>
</g>
<!-- R&#45;030&#45;&gt;C&#45;0506 -->
<g id="edge13" class="edge">
<title>R&#45;030&#45;&gt;C&#45;0506</title>
<path fill="none" stroke="dimgray" stroke-width="0.8" d="M760.5,-657.88C760.5,-657.88 760.5,-607.07 760.5,-607.07"/>
<polygon fill="dimgray" stroke="dimgray" stroke-width="0.8" points="762.95,-607.07 760.5,-600.07 758.05,-607.07 762.95,-607.07"/>
</g>
<!-- S&#45;136 -->
<g id="node14" class="node">
<title>S&#45;136</title>
<polygon fill="mediumseagreen" stroke="black" points="414.5,-788 346,-770 414.5,-752 483,-770 414.5,-788"/>
<text text-anchor="middle" x="414.5" y="-768.1" font-family="Helvetica,sans-Serif" font-size="8.00">S&#45;136</text>
</g>
<!-- C&#45;0748 -->
<g id="node18" class="node">
<title>C&#45;0748</title>
<ellipse fill="mediumseagreen" stroke="black" cx="559.5" cy="-112" rx="68.5" ry="18"/>
<text text-anchor="middle" x="559.5" y="-110.1" font-family="Helvetica,sans-Serif" font-size="8.00">C&#45;0748</text>
</g>
<!-- C&#45;0747&#45;&gt;C&#45;0748 -->
<g id="edge32" class="edge">
<title>C&#45;0747&#45;&gt;C&#45;0748</title>
<path fill="none" stroke="blue" stroke-width="0.8" stroke-dasharray="5,2" d="M729.5,-290.68C729.5,-252.74 729.5,-112 729.5,-112 729.5,-112 635.16,-112 635.16,-112"/>
<polygon fill="blue" stroke="blue" stroke-width="0.8" points="635.16,-109.55 628.16,-112 635.16,-114.45 635.16,-109.55"/>
</g>
<!-- S&#45;1690 -->
<g id="node16" class="node">
<title>S&#45;1690</title>
<polygon fill="mediumseagreen" stroke="black" points="1153.5,-224 1085,-206 1153.5,-188 1222,-206 1153.5,-224"/>
<text text-anchor="middle" x="1153.5" y="-204.1" font-family="Helvetica,sans-Serif" font-size="8.00">S&#45;1690</text>
</g>
<!-- S&#45;1591 -->
<g id="node17" class="node">
<title>S&#45;1591</title>
<polygon fill="mediumseagreen" stroke="black" points="587.5,-788 519,-770 587.5,-752 656,-770 587.5,-788"/>
<text text-anchor="middle" x="587.5" y="-768.1" font-family="Helvetica,sans-Serif" font-size="8.00">S&#45;1591</text>
</g>
<!-- C&#45;0745 -->
<g id="node30" class="node">
<title>C&#45;0745</title>
<ellipse fill="mediumseagreen" stroke="black" cx="559.5" cy="-18" rx="68.5" ry="18"/>
<text text-anchor="middle" x="559.5" y="-16.1" font-family="Helvetica,sans-Serif" font-size="8.00">C&#45;0745</text>
</g>
<!-- C&#45;0748&#45;&gt;C&#45;0745 -->
<g id="edge21" class="edge">
<title>C&#45;0748&#45;&gt;C&#45;0745</title>
<path fill="none" stroke="dimgray" stroke-width="0.8" d="M559.5,-93.88C559.5,-93.88 559.5,-43.07 559.5,-43.07"/>
<polygon fill="dimgray" stroke="dimgray" stroke-width="0.8" points="561.95,-43.07 559.5,-36.07 557.05,-43.07 561.95,-43.07"/>
</g>
<!-- C&#45;0187&#45;&gt;C&#45;0428 -->
<g id="edge23" class="edge">
<title>C&#45;0187&#45;&gt;C&#45;0428</title>
<path fill="none" stroke="dimgray" stroke-width="0.8" d="M911.88,-300C887.74,-300 866.5,-300 866.5,-300 866.5,-300 866.5,-222.36 866.5,-222.36"/>
<polygon fill="dimgray" stroke="dimgray" stroke-width="0.8" points="868.95,-222.36 866.5,-215.36 864.05,-222.36 868.95,-222.36"/>
</g>
<!-- C&#45;0187&#45;&gt;S&#45;1412 -->
<g id="edge24" class="edge">
<title>C&#45;0187&#45;&gt;S&#45;1412</title>
<path fill="none" stroke="dimgray" stroke-width="0.8" d="M980.5,-281.88C980.5,-281.88 980.5,-231.07 980.5,-231.07"/>
<polygon fill="dimgray" stroke="dimgray" stroke-width="0.8" points="982.95,-231.07 980.5,-224.07 978.05,-231.07 982.95,-231.07"/>
</g>
<!-- C&#45;0187&#45;&gt;S&#45;1690 -->
<g id="edge26" class="edge">
<title>C&#45;0187&#45;&gt;S&#45;1690</title>
<path fill="none" stroke="dimgray" stroke-width="0.8" d="M1045.41,-294C1094.5,-294 1153.5,-294 1153.5,-294 1153.5,-294 1153.5,-231.23 1153.5,-231.23"/>
<polygon fill="dimgray" stroke="dimgray" stroke-width="0.8" points="1155.95,-231.23 1153.5,-224.23 1151.05,-231.23 1155.95,-231.23"/>
</g>
<!-- S&#45;1283 -->
<g id="node25" class="node">
<title>S&#45;1283</title>
<polygon fill="mediumseagreen" stroke="black" points="1326.5,-224 1258,-206 1326.5,-188 1395,-206 1326.5,-224"/>
<text text-anchor="middle" x="1326.5" y="-204.1" font-family="Helvetica,sans-Serif" font-size="8.00">S&#45;1283</text>
</g>
<!-- C&#45;0187&#45;&gt;S&#45;1283 -->
<g id="edge25" class="edge">
<title>C&#45;0187&#45;&gt;S&#45;1283</title>
<path fill="none" stroke="dimgray" stroke-width="0.8" d="M1045.17,-306C1145.32,-306 1326.5,-306 1326.5,-306 1326.5,-306 1326.5,-231.34 1326.5,-231.34"/>
<polygon fill="dimgray" stroke="dimgray" stroke-width="0.8" points="1328.95,-231.34 1326.5,-224.34 1324.05,-231.34 1328.95,-231.34"/>
</g>
<!-- C&#45;0135&#45;&gt;C&#45;0504 -->
<g id="edge10" class="edge">
<title>C&#45;0135&#45;&gt;C&#45;0504</title>
<path fill="none" stroke="dimgray" stroke-width="0.8" d="M380.25,-848.12C380.25,-831.26 380.25,-807 380.25,-807 380.25,-807 68.5,-807 68.5,-807 68.5,-807 68.5,-795.07 68.5,-795.07"/>
<polygon fill="dimgray" stroke="dimgray" stroke-width="0.8" points="70.95,-795.07 68.5,-788.07 66.05,-795.07 70.95,-795.07"/>
</g>
<!-- C&#45;0135&#45;&gt;S&#45;1582 -->
<g id="edge9" class="edge">
<title>C&#45;0135&#45;&gt;S&#45;1582</title>
<path fill="none" stroke="dimgray" stroke-width="0.8" d="M349.8,-858C342.15,-858 337,-858 337,-858 337,-858 337,-770 337,-770 337,-770 317.14,-770 317.14,-770"/>
<polygon fill="dimgray" stroke="dimgray" stroke-width="0.8" points="317.14,-767.55 310.14,-770 317.14,-772.45 317.14,-767.55"/>
</g>
<!-- C&#45;0135&#45;&gt;S&#45;136 -->
<g id="edge8" class="edge">
<title>C&#45;0135&#45;&gt;S&#45;136</title>
<path fill="none" stroke="dimgray" stroke-width="0.8" d="M414.5,-845.88C414.5,-845.88 414.5,-795.07 414.5,-795.07"/>
<polygon fill="dimgray" stroke="dimgray" stroke-width="0.8" points="416.95,-795.07 414.5,-788.07 412.05,-795.07 416.95,-795.07"/>
</g>
<!-- C&#45;0135&#45;&gt;S&#45;1591 -->
<g id="edge27" class="edge">
<title>C&#45;0135&#45;&gt;S&#45;1591</title>
<path fill="none" stroke="dimgray" stroke-width="0.8" d="M479.36,-858C489.84,-858 497.33,-858 497.33,-858 497.33,-858 497.33,-770 497.33,-770 497.33,-770 511.7,-770 511.7,-770"/>
<polygon fill="dimgray" stroke="dimgray" stroke-width="0.8" points="511.7,-772.45 518.7,-770 511.7,-767.55 511.7,-772.45"/>
</g>
<!-- C&#45;0505 -->
<g id="node27" class="node">
<title>C&#45;0505</title>
<ellipse fill="mediumseagreen" stroke="black" cx="760.5" cy="-770" rx="68.5" ry="18"/>
<text text-anchor="middle" x="760.5" y="-768.1" font-family="Helvetica,sans-Serif" font-size="8.00">C&#45;0505</text>
</g>
<!-- C&#45;0135&#45;&gt;C&#45;0505 -->
<g id="edge11" class="edge">
<title>C&#45;0135&#45;&gt;C&#45;0505</title>
<path fill="none" stroke="dimgray" stroke-width="0.8" d="M448.75,-848.1C448.75,-837.69 448.75,-826 448.75,-826 448.75,-826 760.5,-826 760.5,-826 760.5,-826 760.5,-795.03 760.5,-795.03"/>
<polygon fill="dimgray" stroke="dimgray" stroke-width="0.8" points="762.95,-795.03 760.5,-788.03 758.05,-795.03 762.95,-795.03"/>
</g>
<!-- C&#45;0195 -->
<g id="node21" class="node">
<title>C&#45;0195</title>
<ellipse fill="mediumseagreen" stroke="black" cx="414.5" cy="-1052" rx="68.5" ry="18"/>
<text text-anchor="middle" x="414.5" y="-1050.1" font-family="Helvetica,sans-Serif" font-size="8.00">C&#45;0195</text>
</g>
<!-- C&#45;0195&#45;&gt;S&#45;1427 -->
<g id="edge4" class="edge">
<title>C&#45;0195&#45;&gt;S&#45;1427</title>
<path fill="none" stroke="dimgray" stroke-width="0.8" d="M345.86,-1052C330.67,-1052 319,-1052 319,-1052 319,-1052 319,-964 319,-964 319,-964 294.48,-964 294.48,-964"/>
<polygon fill="dimgray" stroke="dimgray" stroke-width="0.8" points="294.48,-961.55 287.48,-964 294.48,-966.45 294.48,-961.55"/>
</g>
<!-- C&#45;0195&#45;&gt;C&#45;0134 -->
<g id="edge5" class="edge">
<title>C&#45;0195&#45;&gt;C&#45;0134</title>
<path fill="none" stroke="dimgray" stroke-width="0.8" d="M414.5,-1033.88C414.5,-1033.88 414.5,-983.07 414.5,-983.07"/>
<polygon fill="dimgray" stroke="dimgray" stroke-width="0.8" points="416.95,-983.07 414.5,-976.07 412.05,-983.07 416.95,-983.07"/>
</g>
<!-- S&#45;116 -->
<g id="node24" class="node">
<title>S&#45;116</title>
<polygon fill="mediumseagreen" stroke="black" points="587.5,-976 519,-958 587.5,-940 656,-958 587.5,-976"/>
<text text-anchor="middle" x="587.5" y="-956.1" font-family="Helvetica,sans-Serif" font-size="8.00">S&#45;116</text>
</g>
<!-- C&#45;0195&#45;&gt;S&#45;116 -->
<g id="edge29" class="edge">
<title>C&#45;0195&#45;&gt;S&#45;116</title>
<path fill="none" stroke="dimgray" stroke-width="0.8" d="M483.37,-1052C531.62,-1052 587.5,-1052 587.5,-1052 587.5,-1052 587.5,-983.12 587.5,-983.12"/>
<polygon fill="dimgray" stroke="dimgray" stroke-width="0.8" points="589.95,-983.12 587.5,-976.12 585.05,-983.12 589.95,-983.12"/>
</g>
<!-- C&#45;0715&#45;&gt;C&#45;0716 -->
<g id="edge16" class="edge">
<title>C&#45;0715&#45;&gt;C&#45;0716</title>
<path fill="none" stroke="dimgray" stroke-width="0.8" d="M788.5,-469.88C788.5,-469.88 788.5,-419.07 788.5,-419.07"/>
<polygon fill="dimgray" stroke="dimgray" stroke-width="0.8" points="790.95,-419.07 788.5,-412.07 786.05,-419.07 790.95,-419.07"/>
</g>
<!-- C&#45;0714&#45;&gt;C&#45;0716 -->
<g id="edge31" class="edge">
<title>C&#45;0714&#45;&gt;C&#45;0716</title>
<path fill="none" stroke="blue" stroke-width="0.8" stroke-dasharray="5,2" d="M665.5,-475.39C665.5,-451.06 665.5,-400 665.5,-400 665.5,-400 716.76,-400 716.76,-400"/>
<polygon fill="blue" stroke="blue" stroke-width="0.8" points="716.76,-402.45 723.76,-400 716.76,-397.55 716.76,-402.45"/>
</g>
<!-- C&#45;0505&#45;&gt;R&#45;030 -->
<g id="edge12" class="edge">
<title>C&#45;0505&#45;&gt;R&#45;030</title>
<path fill="none" stroke="dimgray" stroke-width="0.8" d="M760.5,-751.88C760.5,-751.88 760.5,-701.07 760.5,-701.07"/>
<polygon fill="dimgray" stroke="dimgray" stroke-width="0.8" points="762.95,-701.07 760.5,-694.07 758.05,-701.07 762.95,-701.07"/>
</g>
<!-- R&#45;163&#45;&gt;C&#45;0748 -->
<g id="edge20" class="edge">
<title>R&#45;163&#45;&gt;C&#45;0748</title>
<path fill="none" stroke="dimgray" stroke-width="0.8" d="M559.5,-187.88C559.5,-187.88 559.5,-137.07 559.5,-137.07"/>
<polygon fill="dimgray" stroke="dimgray" stroke-width="0.8" points="561.95,-137.07 559.5,-130.07 557.05,-137.07 561.95,-137.07"/>
</g>
<!-- C&#45;0096&#45;&gt;S&#45;2506 -->
<g id="edge2" class="edge">
<title>C&#45;0096&#45;&gt;S&#45;2506</title>
<path fill="none" stroke="dimgray" stroke-width="0.8" d="M284.5,-1131.72C284.5,-1131.72 284.5,-1065.83 284.5,-1065.83"/>
<polygon fill="dimgray" stroke="dimgray" stroke-width="0.8" points="286.95,-1065.83 284.5,-1058.83 282.05,-1065.83 286.95,-1065.83"/>
</g>
<!-- C&#45;0096&#45;&gt;C&#45;0195 -->
<g id="edge3" class="edge">
<title>C&#45;0096&#45;&gt;C&#45;0195</title>
<path fill="none" stroke="dimgray" stroke-width="0.8" d="M371,-1131.72C371,-1131.72 371,-1073.1 371,-1073.1"/>
<polygon fill="dimgray" stroke="dimgray" stroke-width="0.8" points="373.45,-1073.1 371,-1066.1 368.55,-1073.1 373.45,-1073.1"/>
</g>
</g>
</svg>
