<?xml version="1.0" encoding="UTF-8" standalone="no"?>
<!DOCTYPE svg PUBLIC "-//W3C//DTD SVG 1.1//EN"
 "http://www.w3.org/Graphics/SVG/1.1/DTD/svg11.dtd">
<!-- Generated by graphviz version 2.50.0 (0)
 -->
<!-- Title: Grafo_Circuito_303_28_ Pages: 1 -->
<svg width="576pt" height="867pt"
 viewBox="0.00 0.00 576.00 867.00" xmlns="http://www.w3.org/2000/svg" xmlns:xlink="http://www.w3.org/1999/xlink">
<g id="graph0" class="graph" transform="scale(1 1) rotate(0) translate(4 863)">
<title>Grafo_Circuito_303_28_</title>
<polygon fill="white" stroke="transparent" points="-4,4 -4,-863 572,-863 572,4 -4,4"/>
<!-- S&#45;261 -->
<g id="node1" class="node">
<title>S&#45;261</title>
<polygon fill="mediumseagreen" stroke="black" points="136,-346 64,-324.5 136,-303 208,-324.5 136,-346"/>
<text text-anchor="middle" x="136" y="-322" font-family="Arial" font-size="10.00">S&#45;261</text>
</g>
<!-- S&#45;271 -->
<g id="node7" class="node">
<title>S&#45;271</title>
<polygon fill="mediumseagreen" stroke="black" points="136,-245 64,-223.5 136,-202 208,-223.5 136,-245"/>
<text text-anchor="middle" x="136" y="-221" font-family="Arial" font-size="10.00">S&#45;271</text>
</g>
<!-- S&#45;261&#45;&gt;S&#45;271 -->
<g id="edge10" class="edge">
<title>S&#45;261&#45;&gt;S&#45;271</title>
<path fill="none" stroke="#4d4d4d" d="M136,-302.58C136,-302.58 136,-252.03 136,-252.03"/>
<polygon fill="#4d4d4d" stroke="#4d4d4d" points="138.45,-252.03 136,-245.03 133.55,-252.03 138.45,-252.03"/>
</g>
<!-- C&#45;1075 -->
<g id="node2" class="node">
<title>C&#45;1075</title>
<ellipse fill="mediumseagreen" stroke="black" cx="284" cy="-425.5" rx="72" ry="21.5"/>
<text text-anchor="middle" x="284" y="-423" font-family="Arial" font-size="10.00">C&#45;1075</text>
</g>
<!-- C&#45;1075&#45;&gt;S&#45;261 -->
<g id="edge9" class="edge">
<title>C&#45;1075&#45;&gt;S&#45;261</title>
<path fill="none" stroke="#4d4d4d" d="M211.83,-425C204.3,-425 199.33,-425 199.33,-425 199.33,-425 199.33,-334.4 199.33,-334.4"/>
<polygon fill="#4d4d4d" stroke="#4d4d4d" points="201.78,-334.4 199.33,-327.4 196.88,-334.4 201.78,-334.4"/>
</g>
<!-- C&#45;0112 -->
<g id="node12" class="node">
<title>C&#45;0112</title>
<ellipse fill="tomato" stroke="black" cx="316" cy="-324.5" rx="72" ry="21.5"/>
<text text-anchor="middle" x="316" y="-322" font-family="Arial" font-size="10.00">C&#45;0112</text>
</g>
<!-- C&#45;1075&#45;&gt;C&#45;0112 -->
<g id="edge6" class="edge">
<title>C&#45;1075&#45;&gt;C&#45;0112</title>
<path fill="none" stroke="#4d4d4d" d="M318.67,-406.5C318.67,-406.5 318.67,-353.22 318.67,-353.22"/>
<polygon fill="#4d4d4d" stroke="#4d4d4d" points="321.12,-353.22 318.67,-346.22 316.22,-353.22 321.12,-353.22"/>
</g>
<!-- C&#45;0115 -->
<g id="node13" class="node">
<title>C&#45;0115</title>
<ellipse fill="mediumseagreen" stroke="black" cx="496" cy="-324.5" rx="72" ry="21.5"/>
<text text-anchor="middle" x="496" y="-322" font-family="Arial" font-size="10.00">C&#45;0115</text>
</g>
<!-- C&#45;1075&#45;&gt;C&#45;0115 -->
<g id="edge7" class="edge">
<title>C&#45;1075&#45;&gt;C&#45;0115</title>
<path fill="none" stroke="#4d4d4d" d="M356.06,-425C406.53,-425 465,-425 465,-425 465,-425 465,-351.36 465,-351.36"/>
<polygon fill="#4d4d4d" stroke="#4d4d4d" points="467.45,-351.36 465,-344.36 462.55,-351.36 467.45,-351.36"/>
</g>
<!-- C&#45;0271 -->
<g id="node3" class="node">
<title>C&#45;0271</title>
<ellipse fill="tomato" stroke="black" cx="72" cy="-526.5" rx="72" ry="21.5"/>
<text text-anchor="middle" x="72" y="-524" font-family="Arial" font-size="10.00">C&#45;0271</text>
</g>
<!-- ext_circ_303_24_ -->
<g id="node15" class="node">
<title>ext_circ_303_24_</title>
<polygon fill="lightpink" stroke="darkorange" stroke-dasharray="5,2" points="144,-43 0,-43 0,0 144,0 144,-43"/>
<text text-anchor="middle" x="72" y="-24.5" font-family="Arial" font-size="10.00">Circuito:</text>
<text text-anchor="middle" x="72" y="-13.5" font-family="Arial" font-size="10.00">303&#45;24&#45;</text>
</g>
<!-- C&#45;0271&#45;&gt;ext_circ_303_24_ -->
<g id="edge16" class="edge">
<title>C&#45;0271&#45;&gt;ext_circ_303_24_</title>
<path fill="none" stroke="darkorange" stroke-dasharray="5,2" d="M32,-508.53C32,-508.53 32,-50.1 32,-50.1"/>
<polygon fill="darkorange" stroke="darkorange" points="34.45,-50.1 32,-43.1 29.55,-50.1 34.45,-50.1"/>
</g>
<!-- C&#45;1074 -->
<g id="node4" class="node">
<title>C&#45;1074</title>
<ellipse fill="mediumseagreen" stroke="black" cx="254" cy="-627.5" rx="72" ry="21.5"/>
<text text-anchor="middle" x="254" y="-625" font-family="Arial" font-size="10.00">C&#45;1074</text>
</g>
<!-- R&#45;261 -->
<g id="node8" class="node">
<title>R&#45;261</title>
<polygon fill="mediumseagreen" stroke="black" points="356,-517.59 356,-535.41 313.82,-548 254.18,-548 212,-535.41 212,-517.59 254.18,-505 313.82,-505 356,-517.59"/>
<text text-anchor="middle" x="284" y="-524" font-family="Arial" font-size="10.00">R&#45;261</text>
</g>
<!-- C&#45;1074&#45;&gt;R&#45;261 -->
<g id="edge4" class="edge">
<title>C&#45;1074&#45;&gt;R&#45;261</title>
<path fill="none" stroke="#4d4d4d" d="M269,-606.08C269,-606.08 269,-555.24 269,-555.24"/>
<polygon fill="#4d4d4d" stroke="#4d4d4d" points="271.45,-555.24 269,-548.24 266.55,-555.24 271.45,-555.24"/>
</g>
<!-- C&#45;0032 -->
<g id="node5" class="node">
<title>C&#45;0032</title>
<ellipse fill="mediumseagreen" stroke="black" cx="254" cy="-728.5" rx="72" ry="21.5"/>
<text text-anchor="middle" x="254" y="-726" font-family="Arial" font-size="10.00">C&#45;0032</text>
</g>
<!-- C&#45;0032&#45;&gt;C&#45;0271 -->
<g id="edge12" class="edge">
<title>C&#45;0032&#45;&gt;C&#45;0271</title>
<path fill="none" stroke="#4d4d4d" d="M181.81,-728C130.99,-728 72,-728 72,-728 72,-728 72,-555.06 72,-555.06"/>
<polygon fill="#4d4d4d" stroke="#4d4d4d" points="74.45,-555.06 72,-548.06 69.55,-555.06 74.45,-555.06"/>
</g>
<!-- C&#45;0032&#45;&gt;C&#45;1074 -->
<g id="edge3" class="edge">
<title>C&#45;0032&#45;&gt;C&#45;1074</title>
<path fill="none" stroke="#4d4d4d" d="M254,-706.58C254,-706.58 254,-656.03 254,-656.03"/>
<polygon fill="#4d4d4d" stroke="#4d4d4d" points="256.45,-656.03 254,-649.03 251.55,-656.03 256.45,-656.03"/>
</g>
<!-- S&#45;631 -->
<g id="node11" class="node">
<title>S&#45;631</title>
<polygon fill="mediumseagreen" stroke="black" points="434,-649 362,-627.5 434,-606 506,-627.5 434,-649"/>
<text text-anchor="middle" x="434" y="-625" font-family="Arial" font-size="10.00">S&#45;631</text>
</g>
<!-- C&#45;0032&#45;&gt;S&#45;631 -->
<g id="edge2" class="edge">
<title>C&#45;0032&#45;&gt;S&#45;631</title>
<path fill="none" stroke="#4d4d4d" d="M326.18,-728C376.25,-728 434,-728 434,-728 434,-728 434,-656.31 434,-656.31"/>
<polygon fill="#4d4d4d" stroke="#4d4d4d" points="436.45,-656.31 434,-649.31 431.55,-656.31 436.45,-656.31"/>
</g>
<!-- S&#45;251 -->
<g id="node6" class="node">
<title>S&#45;251</title>
<polygon fill="tomato" stroke="black" points="136,-144 64,-122.5 136,-101 208,-122.5 136,-144"/>
<text text-anchor="middle" x="136" y="-120" font-family="Arial" font-size="10.00">S&#45;251</text>
</g>
<!-- S&#45;251&#45;&gt;ext_circ_303_24_ -->
<g id="edge15" class="edge">
<title>S&#45;251&#45;&gt;ext_circ_303_24_</title>
<path fill="none" stroke="darkorange" stroke-dasharray="5,2" d="M104,-110.52C104,-110.52 104,-50.39 104,-50.39"/>
<polygon fill="darkorange" stroke="darkorange" points="106.45,-50.39 104,-43.39 101.55,-50.39 106.45,-50.39"/>
</g>
<!-- S&#45;271&#45;&gt;S&#45;251 -->
<g id="edge11" class="edge">
<title>S&#45;271&#45;&gt;S&#45;251</title>
<path fill="none" stroke="#4d4d4d" d="M136,-201.58C136,-201.58 136,-151.03 136,-151.03"/>
<polygon fill="#4d4d4d" stroke="#4d4d4d" points="138.45,-151.03 136,-144.03 133.55,-151.03 138.45,-151.03"/>
</g>
<!-- R&#45;261&#45;&gt;C&#45;1075 -->
<g id="edge5" class="edge">
<title>R&#45;261&#45;&gt;C&#45;1075</title>
<path fill="none" stroke="#4d4d4d" d="M284,-504.58C284,-504.58 284,-454.03 284,-454.03"/>
<polygon fill="#4d4d4d" stroke="#4d4d4d" points="286.45,-454.03 284,-447.03 281.55,-454.03 286.45,-454.03"/>
</g>
<!-- R&#45;094 -->
<g id="node9" class="node">
<title>R&#45;094</title>
<polygon fill="tomato" stroke="black" points="568,-214.59 568,-232.41 525.82,-245 466.18,-245 424,-232.41 424,-214.59 466.18,-202 525.82,-202 568,-214.59"/>
<text text-anchor="middle" x="496" y="-221" font-family="Arial" font-size="10.00">R&#45;094</text>
</g>
<!-- ext_circ_114_25_ -->
<g id="node14" class="node">
<title>ext_circ_114_25_</title>
<polygon fill="lightpink" stroke="darkorange" stroke-dasharray="5,2" points="568,-144 424,-144 424,-101 568,-101 568,-144"/>
<text text-anchor="middle" x="496" y="-125.5" font-family="Arial" font-size="10.00">Circuito:</text>
<text text-anchor="middle" x="496" y="-114.5" font-family="Arial" font-size="10.00">114&#45;25&#45;</text>
</g>
<!-- R&#45;094&#45;&gt;ext_circ_114_25_ -->
<g id="edge14" class="edge">
<title>R&#45;094&#45;&gt;ext_circ_114_25_</title>
<path fill="none" stroke="darkorange" stroke-dasharray="5,2" d="M496,-201.58C496,-201.58 496,-151.03 496,-151.03"/>
<polygon fill="darkorange" stroke="darkorange" points="498.45,-151.03 496,-144.03 493.55,-151.03 498.45,-151.03"/>
</g>
<!-- 303&#45;28&#45; -->
<g id="node10" class="node">
<title>303&#45;28&#45;</title>
<polygon fill="gold" stroke="black" points="326,-824.59 326,-842.41 283.82,-855 224.18,-855 182,-842.41 182,-824.59 224.18,-812 283.82,-812 326,-824.59"/>
<polygon fill="none" stroke="black" points="330,-821.61 330,-845.39 284.41,-859 223.59,-859 178,-845.39 178,-821.61 223.59,-808 284.41,-808 330,-821.61"/>
<text text-anchor="middle" x="254" y="-831" font-family="Arial" font-size="10.00">303&#45;28&#45;</text>
</g>
<!-- 303&#45;28&#45;&#45;&gt;C&#45;0032 -->
<g id="edge1" class="edge">
<title>303&#45;28&#45;&#45;&gt;C&#45;0032</title>
<path fill="none" stroke="#4d4d4d" d="M254,-807.81C254,-807.81 254,-757.03 254,-757.03"/>
<polygon fill="#4d4d4d" stroke="#4d4d4d" points="256.45,-757.03 254,-750.03 251.55,-757.03 256.45,-757.03"/>
</g>
<!-- C&#45;0112&#45;&gt;C&#45;1074 -->
<g id="edge13" class="edge">
<title>C&#45;0112&#45;&gt;C&#45;1074</title>
<path fill="none" stroke="blue" stroke-dasharray="5,2" d="M281.33,-343.59C281.33,-357.89 281.33,-375 281.33,-375 281.33,-375 190.67,-375 190.67,-375 190.67,-375 190.67,-609.97 190.67,-609.97"/>
<polygon fill="blue" stroke="blue" points="188.22,-609.97 190.67,-616.97 193.12,-609.97 188.22,-609.97"/>
</g>
<!-- C&#45;0115&#45;&gt;R&#45;094 -->
<g id="edge8" class="edge">
<title>C&#45;0115&#45;&gt;R&#45;094</title>
<path fill="none" stroke="#4d4d4d" d="M496,-302.58C496,-302.58 496,-252.03 496,-252.03"/>
<polygon fill="#4d4d4d" stroke="#4d4d4d" points="498.45,-252.03 496,-245.03 493.55,-252.03 498.45,-252.03"/>
</g>
</g>
</svg>
