<?xml version="1.0" encoding="UTF-8" standalone="no"?>
<!DOCTYPE svg PUBLIC "-//W3C//DTD SVG 1.1//EN"
 "http://www.w3.org/Graphics/SVG/1.1/DTD/svg11.dtd">
<!-- Generated by graphviz version 2.50.0 (0)
 -->
<!-- Title: Grafo_Circuito_303_27_ Pages: 1 -->
<svg width="1461pt" height="1877pt"
 viewBox="0.00 0.00 1461.00 1877.00" xmlns="http://www.w3.org/2000/svg" xmlns:xlink="http://www.w3.org/1999/xlink">
<g id="graph0" class="graph" transform="scale(1 1) rotate(0) translate(4 1873)">
<title>Grafo_Circuito_303_27_</title>
<polygon fill="white" stroke="transparent" points="-4,4 -4,-1873 1457,-1873 1457,4 -4,4"/>
<!-- S&#45;900 -->
<g id="node1" class="node">
<title>S&#45;900</title>
<polygon fill="mediumseagreen" stroke="black" points="841,-1053 769,-1031.5 841,-1010 913,-1031.5 841,-1053"/>
<text text-anchor="middle" x="841" y="-1029" font-family="Arial" font-size="10.00">S&#45;900</text>
</g>
<!-- S&#45;1717 -->
<g id="node2" class="node">
<title>S&#45;1717</title>
<polygon fill="mediumseagreen" stroke="black" points="432,-144 360,-122.5 432,-101 504,-122.5 432,-144"/>
<text text-anchor="middle" x="432" y="-120" font-family="Arial" font-size="10.00">S&#45;1717</text>
</g>
<!-- S&#45;1851 -->
<g id="node3" class="node">
<title>S&#45;1851</title>
<polygon fill="mediumseagreen" stroke="black" points="72,-245 0,-223.5 72,-202 144,-223.5 72,-245"/>
<text text-anchor="middle" x="72" y="-221" font-family="Arial" font-size="10.00">S&#45;1851</text>
</g>
<!-- C&#45;0193 -->
<g id="node41" class="node">
<title>C&#45;0193</title>
<ellipse fill="tomato" stroke="black" cx="72" cy="-122.5" rx="72" ry="21.5"/>
<text text-anchor="middle" x="72" y="-120" font-family="Arial" font-size="10.00">C&#45;0193</text>
</g>
<!-- S&#45;1851&#45;&gt;C&#45;0193 -->
<g id="edge42" class="edge">
<title>S&#45;1851&#45;&gt;C&#45;0193</title>
<path fill="none" stroke="#4d4d4d" d="M72,-201.58C72,-201.58 72,-151.03 72,-151.03"/>
<polygon fill="#4d4d4d" stroke="#4d4d4d" points="74.45,-151.03 72,-144.03 69.55,-151.03 74.45,-151.03"/>
</g>
<!-- C&#45;0040 -->
<g id="node4" class="node">
<title>C&#45;0040</title>
<ellipse fill="tomato" stroke="black" cx="507" cy="-1536.5" rx="72" ry="21.5"/>
<text text-anchor="middle" x="507" y="-1534" font-family="Arial" font-size="10.00">C&#45;0040</text>
</g>
<!-- ext_circ_303_24_ -->
<g id="node49" class="node">
<title>ext_circ_303_24_</title>
<polygon fill="lightpink" stroke="darkorange" stroke-dasharray="5,2" points="580,-1356 436,-1356 436,-1313 580,-1313 580,-1356"/>
<text text-anchor="middle" x="508" y="-1337.5" font-family="Arial" font-size="10.00">Circuito:</text>
<text text-anchor="middle" x="508" y="-1326.5" font-family="Arial" font-size="10.00">303&#45;24&#45;</text>
</g>
<!-- C&#45;0040&#45;&gt;ext_circ_303_24_ -->
<g id="edge49" class="edge">
<title>C&#45;0040&#45;&gt;ext_circ_303_24_</title>
<path fill="none" stroke="darkorange" stroke-dasharray="5,2" d="M467.5,-1518.22C467.5,-1518.22 467.5,-1363.21 467.5,-1363.21"/>
<polygon fill="darkorange" stroke="darkorange" points="469.95,-1363.21 467.5,-1356.21 465.05,-1363.21 469.95,-1363.21"/>
</g>
<!-- C&#45;0074 -->
<g id="node5" class="node">
<title>C&#45;0074</title>
<ellipse fill="mediumseagreen" stroke="black" cx="915" cy="-1738.5" rx="72" ry="21.5"/>
<text text-anchor="middle" x="915" y="-1736" font-family="Arial" font-size="10.00">C&#45;0074</text>
</g>
<!-- C&#45;1252 -->
<g id="node48" class="node">
<title>C&#45;1252</title>
<ellipse fill="mediumseagreen" stroke="black" cx="915" cy="-1637.5" rx="72" ry="21.5"/>
<text text-anchor="middle" x="915" y="-1635" font-family="Arial" font-size="10.00">C&#45;1252</text>
</g>
<!-- C&#45;0074&#45;&gt;C&#45;1252 -->
<g id="edge2" class="edge">
<title>C&#45;0074&#45;&gt;C&#45;1252</title>
<path fill="none" stroke="#4d4d4d" d="M915,-1716.58C915,-1716.58 915,-1666.03 915,-1666.03"/>
<polygon fill="#4d4d4d" stroke="#4d4d4d" points="917.45,-1666.03 915,-1659.03 912.55,-1666.03 917.45,-1666.03"/>
</g>
<!-- R&#45;212 -->
<g id="node6" class="node">
<title>R&#45;212</title>
<polygon fill="mediumseagreen" stroke="black" points="1183,-1325.59 1183,-1343.41 1140.82,-1356 1081.18,-1356 1039,-1343.41 1039,-1325.59 1081.18,-1313 1140.82,-1313 1183,-1325.59"/>
<text text-anchor="middle" x="1111" y="-1332" font-family="Arial" font-size="10.00">R&#45;212</text>
</g>
<!-- C&#45;0908 -->
<g id="node27" class="node">
<title>C&#45;0908</title>
<ellipse fill="mediumseagreen" stroke="black" cx="1111" cy="-1233.5" rx="72" ry="21.5"/>
<text text-anchor="middle" x="1111" y="-1231" font-family="Arial" font-size="10.00">C&#45;0908</text>
</g>
<!-- R&#45;212&#45;&gt;C&#45;0908 -->
<g id="edge13" class="edge">
<title>R&#45;212&#45;&gt;C&#45;0908</title>
<path fill="none" stroke="#4d4d4d" d="M1111,-1312.58C1111,-1312.58 1111,-1262.03 1111,-1262.03"/>
<polygon fill="#4d4d4d" stroke="#4d4d4d" points="1113.45,-1262.03 1111,-1255.03 1108.55,-1262.03 1113.45,-1262.03"/>
</g>
<!-- S&#45;2561 -->
<g id="node7" class="node">
<title>S&#45;2561</title>
<polygon fill="mediumseagreen" stroke="black" points="958,-346 886,-324.5 958,-303 1030,-324.5 958,-346"/>
<text text-anchor="middle" x="958" y="-322" font-family="Arial" font-size="10.00">S&#45;2561</text>
</g>
<!-- C&#45;0252 -->
<g id="node8" class="node">
<title>C&#45;0252</title>
<ellipse fill="mediumseagreen" stroke="black" cx="1021" cy="-1031.5" rx="72" ry="21.5"/>
<text text-anchor="middle" x="1021" y="-1029" font-family="Arial" font-size="10.00">C&#45;0252</text>
</g>
<!-- C&#45;1202 -->
<g id="node21" class="node">
<title>C&#45;1202</title>
<ellipse fill="mediumseagreen" stroke="black" cx="841" cy="-930.5" rx="72" ry="21.5"/>
<text text-anchor="middle" x="841" y="-928" font-family="Arial" font-size="10.00">C&#45;1202</text>
</g>
<!-- C&#45;0252&#45;&gt;C&#45;1202 -->
<g id="edge20" class="edge">
<title>C&#45;0252&#45;&gt;C&#45;1202</title>
<path fill="none" stroke="#4d4d4d" d="M948.78,-1031C938.32,-1031 931,-1031 931,-1031 931,-1031 931,-930 931,-930 931,-930 920.22,-930 920.22,-930"/>
<polygon fill="#4d4d4d" stroke="#4d4d4d" points="920.22,-927.55 913.22,-930 920.22,-932.45 920.22,-927.55"/>
</g>
<!-- C&#45;1203 -->
<g id="node23" class="node">
<title>C&#45;1203</title>
<ellipse fill="tomato" stroke="black" cx="1021" cy="-930.5" rx="72" ry="21.5"/>
<text text-anchor="middle" x="1021" y="-928" font-family="Arial" font-size="10.00">C&#45;1203</text>
</g>
<!-- C&#45;0252&#45;&gt;C&#45;1203 -->
<g id="edge19" class="edge">
<title>C&#45;0252&#45;&gt;C&#45;1203</title>
<path fill="none" stroke="#4d4d4d" d="M1021,-1009.58C1021,-1009.58 1021,-959.03 1021,-959.03"/>
<polygon fill="#4d4d4d" stroke="#4d4d4d" points="1023.45,-959.03 1021,-952.03 1018.55,-959.03 1023.45,-959.03"/>
</g>
<!-- S&#45;2560 -->
<g id="node9" class="node">
<title>S&#45;2560</title>
<polygon fill="mediumseagreen" stroke="black" points="1138,-346 1066,-324.5 1138,-303 1210,-324.5 1138,-346"/>
<text text-anchor="middle" x="1138" y="-322" font-family="Arial" font-size="10.00">S&#45;2560</text>
</g>
<!-- C&#45;0378 -->
<g id="node10" class="node">
<title>C&#45;0378</title>
<ellipse fill="mediumseagreen" stroke="black" cx="497" cy="-526.5" rx="72" ry="21.5"/>
<text text-anchor="middle" x="497" y="-524" font-family="Arial" font-size="10.00">C&#45;0378</text>
</g>
<!-- R&#45;127 -->
<g id="node45" class="node">
<title>R&#45;127</title>
<polygon fill="mediumseagreen" stroke="black" points="569,-416.59 569,-434.41 526.82,-447 467.18,-447 425,-434.41 425,-416.59 467.18,-404 526.82,-404 569,-416.59"/>
<text text-anchor="middle" x="497" y="-423" font-family="Arial" font-size="10.00">R&#45;127</text>
</g>
<!-- C&#45;0378&#45;&gt;R&#45;127 -->
<g id="edge37" class="edge">
<title>C&#45;0378&#45;&gt;R&#45;127</title>
<path fill="none" stroke="#4d4d4d" d="M497,-504.58C497,-504.58 497,-454.03 497,-454.03"/>
<polygon fill="#4d4d4d" stroke="#4d4d4d" points="499.45,-454.03 497,-447.03 494.55,-454.03 499.45,-454.03"/>
</g>
<!-- S&#45;735 -->
<g id="node11" class="node">
<title>S&#45;735</title>
<polygon fill="mediumseagreen" stroke="black" points="841,-649 769,-627.5 841,-606 913,-627.5 841,-649"/>
<text text-anchor="middle" x="841" y="-625" font-family="Arial" font-size="10.00">S&#45;735</text>
</g>
<!-- S&#45;735&#45;&gt;C&#45;0378 -->
<g id="edge36" class="edge">
<title>S&#45;735&#45;&gt;C&#45;0378</title>
<path fill="none" stroke="#4d4d4d" d="M790.33,-620.84C790.33,-598.26 790.33,-526 790.33,-526 790.33,-526 576.13,-526 576.13,-526"/>
<polygon fill="#4d4d4d" stroke="#4d4d4d" points="576.13,-523.55 569.13,-526 576.13,-528.45 576.13,-523.55"/>
</g>
<!-- C&#45;0541 -->
<g id="node30" class="node">
<title>C&#45;0541</title>
<ellipse fill="mediumseagreen" stroke="black" cx="778" cy="-324.5" rx="72" ry="21.5"/>
<text text-anchor="middle" x="778" y="-322" font-family="Arial" font-size="10.00">C&#45;0541</text>
</g>
<!-- S&#45;735&#45;&gt;C&#45;0541 -->
<g id="edge29" class="edge">
<title>S&#45;735&#45;&gt;C&#45;0541</title>
<path fill="none" stroke="#4d4d4d" d="M811.67,-614.48C811.67,-614.48 811.67,-350.8 811.67,-350.8"/>
<polygon fill="#4d4d4d" stroke="#4d4d4d" points="814.12,-350.8 811.67,-343.8 809.22,-350.8 814.12,-350.8"/>
</g>
<!-- SR&#45;0014 -->
<g id="node34" class="node">
<title>SR&#45;0014</title>
<polygon fill="mediumseagreen" stroke="black" points="905,-548 833,-526.5 905,-505 977,-526.5 905,-548"/>
<text text-anchor="middle" x="905" y="-524" font-family="Arial" font-size="10.00">SR&#45;0014</text>
</g>
<!-- S&#45;735&#45;&gt;SR&#45;0014 -->
<g id="edge24" class="edge">
<title>S&#45;735&#45;&gt;SR&#45;0014</title>
<path fill="none" stroke="#4d4d4d" d="M873,-615.52C873,-615.52 873,-545.47 873,-545.47"/>
<polygon fill="#4d4d4d" stroke="#4d4d4d" points="875.45,-545.47 873,-538.47 870.55,-545.47 875.45,-545.47"/>
</g>
<!-- C&#45;0377 -->
<g id="node47" class="node">
<title>C&#45;0377</title>
<ellipse fill="tomato" stroke="black" cx="1085" cy="-526.5" rx="72" ry="21.5"/>
<text text-anchor="middle" x="1085" y="-524" font-family="Arial" font-size="10.00">C&#45;0377</text>
</g>
<!-- S&#45;735&#45;&gt;C&#45;0377 -->
<g id="edge35" class="edge">
<title>S&#45;735&#45;&gt;C&#45;0377</title>
<path fill="none" stroke="#4d4d4d" d="M888.05,-620C950.51,-620 1053,-620 1053,-620 1053,-620 1053,-552.87 1053,-552.87"/>
<polygon fill="#4d4d4d" stroke="#4d4d4d" points="1055.45,-552.87 1053,-545.87 1050.55,-552.87 1055.45,-552.87"/>
</g>
<!-- S&#45;2302 -->
<g id="node12" class="node">
<title>S&#45;2302</title>
<polygon fill="mediumseagreen" stroke="black" points="1381,-952 1309,-930.5 1381,-909 1453,-930.5 1381,-952"/>
<text text-anchor="middle" x="1381" y="-928" font-family="Arial" font-size="10.00">S&#45;2302</text>
</g>
<!-- C&#45;1137 -->
<g id="node13" class="node">
<title>C&#45;1137</title>
<ellipse fill="mediumseagreen" stroke="black" cx="719" cy="-1536.5" rx="72" ry="21.5"/>
<text text-anchor="middle" x="719" y="-1534" font-family="Arial" font-size="10.00">C&#45;1137</text>
</g>
<!-- R&#45;286 -->
<g id="node24" class="node">
<title>R&#45;286</title>
<polygon fill="tomato" stroke="black" points="643,-1426.59 643,-1444.41 600.82,-1457 541.18,-1457 499,-1444.41 499,-1426.59 541.18,-1414 600.82,-1414 643,-1426.59"/>
<text text-anchor="middle" x="571" y="-1433" font-family="Arial" font-size="10.00">R&#45;286</text>
</g>
<!-- C&#45;1137&#45;&gt;R&#45;286 -->
<g id="edge4" class="edge">
<title>C&#45;1137&#45;&gt;R&#45;286</title>
<path fill="none" stroke="#4d4d4d" d="M663,-1522.81C663,-1495.11 663,-1435 663,-1435 663,-1435 650.04,-1435 650.04,-1435"/>
<polygon fill="#4d4d4d" stroke="#4d4d4d" points="650.04,-1432.55 643.04,-1435 650.04,-1437.45 650.04,-1432.55"/>
</g>
<!-- S&#45;2493 -->
<g id="node14" class="node">
<title>S&#45;2493</title>
<polygon fill="mediumseagreen" stroke="black" points="252,-144 180,-122.5 252,-101 324,-122.5 252,-144"/>
<text text-anchor="middle" x="252" y="-120" font-family="Arial" font-size="10.00">S&#45;2493</text>
</g>
<!-- S&#45;2424 -->
<g id="node15" class="node">
<title>S&#45;2424</title>
<polygon fill="mediumseagreen" stroke="black" points="751,-1457 679,-1435.5 751,-1414 823,-1435.5 751,-1457"/>
<text text-anchor="middle" x="751" y="-1433" font-family="Arial" font-size="10.00">S&#45;2424</text>
</g>
<!-- 303&#45;27&#45; -->
<g id="node16" class="node">
<title>303&#45;27&#45;</title>
<polygon fill="gold" stroke="black" points="987,-1834.59 987,-1852.41 944.82,-1865 885.18,-1865 843,-1852.41 843,-1834.59 885.18,-1822 944.82,-1822 987,-1834.59"/>
<polygon fill="none" stroke="black" points="991,-1831.61 991,-1855.39 945.41,-1869 884.59,-1869 839,-1855.39 839,-1831.61 884.59,-1818 945.41,-1818 991,-1831.61"/>
<text text-anchor="middle" x="915" y="-1841" font-family="Arial" font-size="10.00">303&#45;27&#45;</text>
</g>
<!-- 303&#45;27&#45;&#45;&gt;C&#45;0074 -->
<g id="edge1" class="edge">
<title>303&#45;27&#45;&#45;&gt;C&#45;0074</title>
<path fill="none" stroke="#4d4d4d" d="M915,-1817.81C915,-1817.81 915,-1767.03 915,-1767.03"/>
<polygon fill="#4d4d4d" stroke="#4d4d4d" points="917.45,-1767.03 915,-1760.03 912.55,-1767.03 917.45,-1767.03"/>
</g>
<!-- S&#45;478 -->
<g id="node17" class="node">
<title>S&#45;478</title>
<polygon fill="mediumseagreen" stroke="black" points="1201,-1053 1129,-1031.5 1201,-1010 1273,-1031.5 1201,-1053"/>
<text text-anchor="middle" x="1201" y="-1029" font-family="Arial" font-size="10.00">S&#45;478</text>
</g>
<!-- S&#45;2446 -->
<g id="node33" class="node">
<title>S&#45;2446</title>
<polygon fill="mediumseagreen" stroke="black" points="1201,-952 1129,-930.5 1201,-909 1273,-930.5 1201,-952"/>
<text text-anchor="middle" x="1201" y="-928" font-family="Arial" font-size="10.00">S&#45;2446</text>
</g>
<!-- S&#45;478&#45;&gt;S&#45;2446 -->
<g id="edge16" class="edge">
<title>S&#45;478&#45;&gt;S&#45;2446</title>
<path fill="none" stroke="#4d4d4d" d="M1201,-1009.58C1201,-1009.58 1201,-959.03 1201,-959.03"/>
<polygon fill="#4d4d4d" stroke="#4d4d4d" points="1203.45,-959.03 1201,-952.03 1198.55,-959.03 1203.45,-959.03"/>
</g>
<!-- S&#45;2346 -->
<g id="node18" class="node">
<title>S&#45;2346</title>
<polygon fill="mediumseagreen" stroke="black" points="252,-245 180,-223.5 252,-202 324,-223.5 252,-245"/>
<text text-anchor="middle" x="252" y="-221" font-family="Arial" font-size="10.00">S&#45;2346</text>
</g>
<!-- S&#45;2346&#45;&gt;S&#45;2493 -->
<g id="edge40" class="edge">
<title>S&#45;2346&#45;&gt;S&#45;2493</title>
<path fill="none" stroke="#4d4d4d" d="M252,-201.58C252,-201.58 252,-151.03 252,-151.03"/>
<polygon fill="#4d4d4d" stroke="#4d4d4d" points="254.45,-151.03 252,-144.03 249.55,-151.03 254.45,-151.03"/>
</g>
<!-- S&#45;2412 -->
<g id="node19" class="node">
<title>S&#45;2412</title>
<polygon fill="mediumseagreen" stroke="black" points="1048,-447 976,-425.5 1048,-404 1120,-425.5 1048,-447"/>
<text text-anchor="middle" x="1048" y="-423" font-family="Arial" font-size="10.00">S&#45;2412</text>
</g>
<!-- S&#45;2412&#45;&gt;S&#45;2561 -->
<g id="edge28" class="edge">
<title>S&#45;2412&#45;&gt;S&#45;2561</title>
<path fill="none" stroke="#4d4d4d" d="M1003,-417.23C1003,-417.23 1003,-339.6 1003,-339.6"/>
<polygon fill="#4d4d4d" stroke="#4d4d4d" points="1005.45,-339.6 1003,-332.6 1000.55,-339.6 1005.45,-339.6"/>
</g>
<!-- S&#45;2412&#45;&gt;S&#45;2560 -->
<g id="edge27" class="edge">
<title>S&#45;2412&#45;&gt;S&#45;2560</title>
<path fill="none" stroke="#4d4d4d" d="M1093,-417.23C1093,-417.23 1093,-339.6 1093,-339.6"/>
<polygon fill="#4d4d4d" stroke="#4d4d4d" points="1095.45,-339.6 1093,-332.6 1090.55,-339.6 1095.45,-339.6"/>
</g>
<!-- S&#45;2559 -->
<g id="node36" class="node">
<title>S&#45;2559</title>
<polygon fill="mediumseagreen" stroke="black" points="1318,-346 1246,-324.5 1318,-303 1390,-324.5 1318,-346"/>
<text text-anchor="middle" x="1318" y="-322" font-family="Arial" font-size="10.00">S&#45;2559</text>
</g>
<!-- S&#45;2412&#45;&gt;S&#45;2559 -->
<g id="edge26" class="edge">
<title>S&#45;2412&#45;&gt;S&#45;2559</title>
<path fill="none" stroke="#4d4d4d" d="M1118.43,-425C1179.95,-425 1259.5,-425 1259.5,-425 1259.5,-425 1259.5,-335.82 1259.5,-335.82"/>
<polygon fill="#4d4d4d" stroke="#4d4d4d" points="1261.95,-335.82 1259.5,-328.82 1257.05,-335.82 1261.95,-335.82"/>
</g>
<!-- C&#45;0909 -->
<g id="node20" class="node">
<title>C&#45;0909</title>
<ellipse fill="tomato" stroke="black" cx="931" cy="-1435.5" rx="72" ry="21.5"/>
<text text-anchor="middle" x="931" y="-1433" font-family="Arial" font-size="10.00">C&#45;0909</text>
</g>
<!-- C&#45;0909&#45;&gt;C&#45;0908 -->
<g id="edge50" class="edge">
<title>C&#45;0909&#45;&gt;C&#45;0908</title>
<path fill="none" stroke="blue" stroke-dasharray="5,2" d="M976,-1418.58C976,-1369.91 976,-1233 976,-1233 976,-1233 1031.76,-1233 1031.76,-1233"/>
<polygon fill="blue" stroke="blue" points="1031.76,-1235.45 1038.76,-1233 1031.76,-1230.55 1031.76,-1235.45"/>
</g>
<!-- R&#45;055 -->
<g id="node43" class="node">
<title>R&#45;055</title>
<polygon fill="mediumseagreen" stroke="black" points="913,-820.59 913,-838.41 870.82,-851 811.18,-851 769,-838.41 769,-820.59 811.18,-808 870.82,-808 913,-820.59"/>
<text text-anchor="middle" x="841" y="-827" font-family="Arial" font-size="10.00">R&#45;055</text>
</g>
<!-- C&#45;1202&#45;&gt;R&#45;055 -->
<g id="edge21" class="edge">
<title>C&#45;1202&#45;&gt;R&#45;055</title>
<path fill="none" stroke="#4d4d4d" d="M841,-908.58C841,-908.58 841,-858.03 841,-858.03"/>
<polygon fill="#4d4d4d" stroke="#4d4d4d" points="843.45,-858.03 841,-851.03 838.55,-858.03 843.45,-858.03"/>
</g>
<!-- C&#45;0985 -->
<g id="node22" class="node">
<title>C&#45;0985</title>
<ellipse fill="mediumseagreen" stroke="black" cx="638" cy="-223.5" rx="72" ry="21.5"/>
<text text-anchor="middle" x="638" y="-221" font-family="Arial" font-size="10.00">C&#45;0985</text>
</g>
<!-- R&#45;236 -->
<g id="node26" class="node">
<title>R&#45;236</title>
<polygon fill="tomato" stroke="black" points="684,-113.59 684,-131.41 641.82,-144 582.18,-144 540,-131.41 540,-113.59 582.18,-101 641.82,-101 684,-113.59"/>
<text text-anchor="middle" x="612" y="-120" font-family="Arial" font-size="10.00">R&#45;236</text>
</g>
<!-- C&#45;0985&#45;&gt;R&#45;236 -->
<g id="edge33" class="edge">
<title>C&#45;0985&#45;&gt;R&#45;236</title>
<path fill="none" stroke="#4d4d4d" d="M625,-202.08C625,-202.08 625,-151.24 625,-151.24"/>
<polygon fill="#4d4d4d" stroke="#4d4d4d" points="627.45,-151.24 625,-144.24 622.55,-151.24 627.45,-151.24"/>
</g>
<!-- C&#45;1203&#45;&gt;S&#45;735 -->
<g id="edge51" class="edge">
<title>C&#45;1203&#45;&gt;S&#45;735</title>
<path fill="none" stroke="blue" stroke-dasharray="5,2" d="M963,-917.76C963,-861.01 963,-634 963,-634 963,-634 898.33,-634 898.33,-634"/>
<polygon fill="blue" stroke="blue" points="898.33,-631.55 891.33,-634 898.33,-636.45 898.33,-631.55"/>
</g>
<!-- R&#45;286&#45;&gt;ext_circ_303_24_ -->
<g id="edge48" class="edge">
<title>R&#45;286&#45;&gt;ext_circ_303_24_</title>
<path fill="none" stroke="darkorange" stroke-dasharray="5,2" d="M539.5,-1414.08C539.5,-1414.08 539.5,-1363.24 539.5,-1363.24"/>
<polygon fill="darkorange" stroke="darkorange" points="541.95,-1363.24 539.5,-1356.24 537.05,-1363.24 541.95,-1363.24"/>
</g>
<!-- S&#45;1327 -->
<g id="node25" class="node">
<title>S&#45;1327</title>
<polygon fill="mediumseagreen" stroke="black" points="915,-1558 843,-1536.5 915,-1515 987,-1536.5 915,-1558"/>
<text text-anchor="middle" x="915" y="-1534" font-family="Arial" font-size="10.00">S&#45;1327</text>
</g>
<!-- S&#45;1327&#45;&gt;S&#45;2424 -->
<g id="edge9" class="edge">
<title>S&#45;1327&#45;&gt;S&#45;2424</title>
<path fill="none" stroke="#4d4d4d" d="M851,-1533.99C851,-1518.36 851,-1435 851,-1435 851,-1435 828.54,-1435 828.54,-1435"/>
<polygon fill="#4d4d4d" stroke="#4d4d4d" points="828.54,-1432.55 821.54,-1435 828.54,-1437.45 828.54,-1432.55"/>
</g>
<!-- S&#45;1327&#45;&gt;C&#45;0909 -->
<g id="edge10" class="edge">
<title>S&#45;1327&#45;&gt;C&#45;0909</title>
<path fill="none" stroke="#4d4d4d" d="M901.67,-1518.91C901.67,-1518.91 901.67,-1462.31 901.67,-1462.31"/>
<polygon fill="#4d4d4d" stroke="#4d4d4d" points="904.12,-1462.31 901.67,-1455.31 899.22,-1462.31 904.12,-1462.31"/>
</g>
<!-- C&#45;0910 -->
<g id="node29" class="node">
<title>C&#45;0910</title>
<ellipse fill="mediumseagreen" stroke="black" cx="1111" cy="-1435.5" rx="72" ry="21.5"/>
<text text-anchor="middle" x="1111" y="-1433" font-family="Arial" font-size="10.00">C&#45;0910</text>
</g>
<!-- S&#45;1327&#45;&gt;C&#45;0910 -->
<g id="edge11" class="edge">
<title>S&#45;1327&#45;&gt;C&#45;0910</title>
<path fill="none" stroke="#4d4d4d" d="M985.44,-1536C1001.02,-1536 1013,-1536 1013,-1536 1013,-1536 1013,-1435 1013,-1435 1013,-1435 1032,-1435 1032,-1435"/>
<polygon fill="#4d4d4d" stroke="#4d4d4d" points="1032,-1437.45 1039,-1435 1032,-1432.55 1032,-1437.45"/>
</g>
<!-- S&#45;2024 -->
<g id="node42" class="node">
<title>S&#45;2024</title>
<polygon fill="mediumseagreen" stroke="black" points="1291,-1457 1219,-1435.5 1291,-1414 1363,-1435.5 1291,-1457"/>
<text text-anchor="middle" x="1291" y="-1433" font-family="Arial" font-size="10.00">S&#45;2024</text>
</g>
<!-- S&#45;1327&#45;&gt;S&#45;2024 -->
<g id="edge47" class="edge">
<title>S&#45;1327&#45;&gt;S&#45;2024</title>
<path fill="none" stroke="#4d4d4d" d="M944.33,-1523.76C944.33,-1508.8 944.33,-1486 944.33,-1486 944.33,-1486 1283,-1486 1283,-1486 1283,-1486 1283,-1461.88 1283,-1461.88"/>
<polygon fill="#4d4d4d" stroke="#4d4d4d" points="1285.45,-1461.88 1283,-1454.88 1280.55,-1461.88 1285.45,-1461.88"/>
</g>
<!-- ext_circ_303_25_ -->
<g id="node50" class="node">
<title>ext_circ_303_25_</title>
<polygon fill="lightpink" stroke="darkorange" stroke-dasharray="5,2" points="684,-43 540,-43 540,0 684,0 684,-43"/>
<text text-anchor="middle" x="612" y="-24.5" font-family="Arial" font-size="10.00">Circuito:</text>
<text text-anchor="middle" x="612" y="-13.5" font-family="Arial" font-size="10.00">303&#45;25&#45;</text>
</g>
<!-- R&#45;236&#45;&gt;ext_circ_303_25_ -->
<g id="edge53" class="edge">
<title>R&#45;236&#45;&gt;ext_circ_303_25_</title>
<path fill="none" stroke="darkorange" stroke-dasharray="5,2" d="M612,-100.58C612,-100.58 612,-50.03 612,-50.03"/>
<polygon fill="darkorange" stroke="darkorange" points="614.45,-50.03 612,-43.03 609.55,-50.03 614.45,-50.03"/>
</g>
<!-- C&#45;0361 -->
<g id="node39" class="node">
<title>C&#45;0361</title>
<ellipse fill="mediumseagreen" stroke="black" cx="1111" cy="-1132.5" rx="72" ry="21.5"/>
<text text-anchor="middle" x="1111" y="-1130" font-family="Arial" font-size="10.00">C&#45;0361</text>
</g>
<!-- C&#45;0908&#45;&gt;C&#45;0361 -->
<g id="edge14" class="edge">
<title>C&#45;0908&#45;&gt;C&#45;0361</title>
<path fill="none" stroke="#4d4d4d" d="M1111,-1211.58C1111,-1211.58 1111,-1161.03 1111,-1161.03"/>
<polygon fill="#4d4d4d" stroke="#4d4d4d" points="1113.45,-1161.03 1111,-1154.03 1108.55,-1161.03 1113.45,-1161.03"/>
</g>
<!-- C&#45;1204 -->
<g id="node28" class="node">
<title>C&#45;1204</title>
<ellipse fill="mediumseagreen" stroke="black" cx="841" cy="-728.5" rx="72" ry="21.5"/>
<text text-anchor="middle" x="841" y="-726" font-family="Arial" font-size="10.00">C&#45;1204</text>
</g>
<!-- C&#45;1204&#45;&gt;S&#45;735 -->
<g id="edge23" class="edge">
<title>C&#45;1204&#45;&gt;S&#45;735</title>
<path fill="none" stroke="#4d4d4d" d="M841,-706.58C841,-706.58 841,-656.03 841,-656.03"/>
<polygon fill="#4d4d4d" stroke="#4d4d4d" points="843.45,-656.03 841,-649.03 838.55,-656.03 843.45,-656.03"/>
</g>
<!-- C&#45;0910&#45;&gt;R&#45;212 -->
<g id="edge12" class="edge">
<title>C&#45;0910&#45;&gt;R&#45;212</title>
<path fill="none" stroke="#4d4d4d" d="M1111,-1413.58C1111,-1413.58 1111,-1363.03 1111,-1363.03"/>
<polygon fill="#4d4d4d" stroke="#4d4d4d" points="1113.45,-1363.03 1111,-1356.03 1108.55,-1363.03 1113.45,-1363.03"/>
</g>
<!-- C&#45;0541&#45;&gt;C&#45;0985 -->
<g id="edge32" class="edge">
<title>C&#45;0541&#45;&gt;C&#45;0985</title>
<path fill="none" stroke="#4d4d4d" d="M715,-314.02C715,-288.09 715,-223 715,-223 715,-223 714.54,-223 714.54,-223"/>
<polygon fill="#4d4d4d" stroke="#4d4d4d" points="717.41,-220.55 710.41,-223 717.41,-225.45 717.41,-220.55"/>
</g>
<!-- C&#45;0242 -->
<g id="node31" class="node">
<title>C&#45;0242</title>
<ellipse fill="tomato" stroke="black" cx="792" cy="-122.5" rx="72" ry="21.5"/>
<text text-anchor="middle" x="792" y="-120" font-family="Arial" font-size="10.00">C&#45;0242</text>
</g>
<!-- C&#45;0541&#45;&gt;C&#45;0242 -->
<g id="edge31" class="edge">
<title>C&#45;0541&#45;&gt;C&#45;0242</title>
<path fill="none" stroke="#4d4d4d" d="M776.5,-302.88C776.5,-302.88 776.5,-150.66 776.5,-150.66"/>
<polygon fill="#4d4d4d" stroke="#4d4d4d" points="778.95,-150.66 776.5,-143.66 774.05,-150.66 778.95,-150.66"/>
</g>
<!-- R&#45;084 -->
<g id="node38" class="node">
<title>R&#45;084</title>
<polygon fill="tomato" stroke="black" points="977,-214.59 977,-232.41 934.82,-245 875.18,-245 833,-232.41 833,-214.59 875.18,-202 934.82,-202 977,-214.59"/>
<text text-anchor="middle" x="905" y="-221" font-family="Arial" font-size="10.00">R&#45;084</text>
</g>
<!-- C&#45;0541&#45;&gt;R&#45;084 -->
<g id="edge34" class="edge">
<title>C&#45;0541&#45;&gt;R&#45;084</title>
<path fill="none" stroke="#4d4d4d" d="M838.67,-312.91C838.67,-312.91 838.67,-241.34 838.67,-241.34"/>
<polygon fill="#4d4d4d" stroke="#4d4d4d" points="841.12,-241.34 838.67,-234.34 836.22,-241.34 841.12,-241.34"/>
</g>
<!-- S&#45;1224 -->
<g id="node46" class="node">
<title>S&#45;1224</title>
<polygon fill="mediumseagreen" stroke="black" points="1085,-245 1013,-223.5 1085,-202 1157,-223.5 1085,-245"/>
<text text-anchor="middle" x="1085" y="-221" font-family="Arial" font-size="10.00">S&#45;1224</text>
</g>
<!-- C&#45;0541&#45;&gt;S&#45;1224 -->
<g id="edge30" class="edge">
<title>C&#45;0541&#45;&gt;S&#45;1224</title>
<path fill="none" stroke="#4d4d4d" d="M844.33,-315.7C844.33,-301.23 844.33,-274 844.33,-274 844.33,-274 1021.5,-274 1021.5,-274 1021.5,-274 1021.5,-233.22 1021.5,-233.22"/>
<polygon fill="#4d4d4d" stroke="#4d4d4d" points="1023.95,-233.22 1021.5,-226.22 1019.05,-233.22 1023.95,-233.22"/>
</g>
<!-- C&#45;0242&#45;&gt;ext_circ_303_25_ -->
<g id="edge52" class="edge">
<title>C&#45;0242&#45;&gt;ext_circ_303_25_</title>
<path fill="none" stroke="darkorange" stroke-dasharray="5,2" d="M792,-100.97C792,-71.18 792,-21 792,-21 792,-21 691.18,-21 691.18,-21"/>
<polygon fill="darkorange" stroke="darkorange" points="691.18,-18.55 684.18,-21 691.18,-23.45 691.18,-18.55"/>
</g>
<!-- C&#45;0379 -->
<g id="node32" class="node">
<title>C&#45;0379</title>
<ellipse fill="mediumseagreen" stroke="black" cx="342" cy="-324.5" rx="72" ry="21.5"/>
<text text-anchor="middle" x="342" y="-322" font-family="Arial" font-size="10.00">C&#45;0379</text>
</g>
<!-- C&#45;0379&#45;&gt;S&#45;1851 -->
<g id="edge41" class="edge">
<title>C&#45;0379&#45;&gt;S&#45;1851</title>
<path fill="none" stroke="#4d4d4d" d="M270,-324C190.02,-324 72,-324 72,-324 72,-324 72,-252.31 72,-252.31"/>
<polygon fill="#4d4d4d" stroke="#4d4d4d" points="74.45,-252.31 72,-245.31 69.55,-252.31 74.45,-252.31"/>
</g>
<!-- C&#45;0379&#45;&gt;S&#45;2346 -->
<g id="edge39" class="edge">
<title>C&#45;0379&#45;&gt;S&#45;2346</title>
<path fill="none" stroke="#4d4d4d" d="M297,-307.37C297,-307.37 297,-238.78 297,-238.78"/>
<polygon fill="#4d4d4d" stroke="#4d4d4d" points="299.45,-238.78 297,-231.78 294.55,-238.78 299.45,-238.78"/>
</g>
<!-- S&#45;771 -->
<g id="node44" class="node">
<title>S&#45;771</title>
<polygon fill="mediumseagreen" stroke="black" points="432,-245 360,-223.5 432,-202 504,-223.5 432,-245"/>
<text text-anchor="middle" x="432" y="-221" font-family="Arial" font-size="10.00">S&#45;771</text>
</g>
<!-- C&#45;0379&#45;&gt;S&#45;771 -->
<g id="edge43" class="edge">
<title>C&#45;0379&#45;&gt;S&#45;771</title>
<path fill="none" stroke="#4d4d4d" d="M387,-307.37C387,-307.37 387,-238.78 387,-238.78"/>
<polygon fill="#4d4d4d" stroke="#4d4d4d" points="389.45,-238.78 387,-231.78 384.55,-238.78 389.45,-238.78"/>
</g>
<!-- SR&#45;0014&#45;&gt;S&#45;2412 -->
<g id="edge25" class="edge">
<title>SR&#45;0014&#45;&gt;S&#45;2412</title>
<path fill="none" stroke="#4d4d4d" d="M975.47,-526C986.86,-526 995,-526 995,-526 995,-526 995,-438.19 995,-438.19"/>
<polygon fill="#4d4d4d" stroke="#4d4d4d" points="997.45,-438.19 995,-431.19 992.55,-438.19 997.45,-438.19"/>
</g>
<!-- S&#45;736 -->
<g id="node35" class="node">
<title>S&#45;736</title>
<polygon fill="mediumseagreen" stroke="black" points="1381,-1053 1309,-1031.5 1381,-1010 1453,-1031.5 1381,-1053"/>
<text text-anchor="middle" x="1381" y="-1029" font-family="Arial" font-size="10.00">S&#45;736</text>
</g>
<!-- S&#45;736&#45;&gt;S&#45;2302 -->
<g id="edge45" class="edge">
<title>S&#45;736&#45;&gt;S&#45;2302</title>
<path fill="none" stroke="#4d4d4d" d="M1381,-1009.58C1381,-1009.58 1381,-959.03 1381,-959.03"/>
<polygon fill="#4d4d4d" stroke="#4d4d4d" points="1383.45,-959.03 1381,-952.03 1378.55,-959.03 1383.45,-959.03"/>
</g>
<!-- S&#45;1718 -->
<g id="node37" class="node">
<title>S&#45;1718</title>
<polygon fill="mediumseagreen" stroke="black" points="1095,-1558 1023,-1536.5 1095,-1515 1167,-1536.5 1095,-1558"/>
<text text-anchor="middle" x="1095" y="-1534" font-family="Arial" font-size="10.00">S&#45;1718</text>
</g>
<!-- ext_circ_307_23_ -->
<g id="node51" class="node">
<title>ext_circ_307_23_</title>
<polygon fill="lightpink" stroke="darkorange" stroke-dasharray="5,2" points="1044,-144 900,-144 900,-101 1044,-101 1044,-144"/>
<text text-anchor="middle" x="972" y="-125.5" font-family="Arial" font-size="10.00">Circuito:</text>
<text text-anchor="middle" x="972" y="-114.5" font-family="Arial" font-size="10.00">307&#45;23&#45;</text>
</g>
<!-- R&#45;084&#45;&gt;ext_circ_307_23_ -->
<g id="edge54" class="edge">
<title>R&#45;084&#45;&gt;ext_circ_307_23_</title>
<path fill="none" stroke="darkorange" stroke-dasharray="5,2" d="M938.5,-203.06C938.5,-203.06 938.5,-151.31 938.5,-151.31"/>
<polygon fill="darkorange" stroke="darkorange" points="940.95,-151.31 938.5,-144.31 936.05,-151.31 940.95,-151.31"/>
</g>
<!-- C&#45;0361&#45;&gt;S&#45;900 -->
<g id="edge46" class="edge">
<title>C&#45;0361&#45;&gt;S&#45;900</title>
<path fill="none" stroke="#4d4d4d" d="M1038.88,-1132C973.07,-1132 886,-1132 886,-1132 886,-1132 886,-1046.72 886,-1046.72"/>
<polygon fill="#4d4d4d" stroke="#4d4d4d" points="888.45,-1046.72 886,-1039.72 883.55,-1046.72 888.45,-1046.72"/>
</g>
<!-- C&#45;0361&#45;&gt;C&#45;0252 -->
<g id="edge18" class="edge">
<title>C&#45;0361&#45;&gt;C&#45;0252</title>
<path fill="none" stroke="#4d4d4d" d="M1066,-1115.37C1066,-1115.37 1066,-1055.38 1066,-1055.38"/>
<polygon fill="#4d4d4d" stroke="#4d4d4d" points="1068.45,-1055.38 1066,-1048.38 1063.55,-1055.38 1068.45,-1055.38"/>
</g>
<!-- C&#45;0361&#45;&gt;S&#45;478 -->
<g id="edge15" class="edge">
<title>C&#45;0361&#45;&gt;S&#45;478</title>
<path fill="none" stroke="#4d4d4d" d="M1156,-1115.37C1156,-1115.37 1156,-1046.78 1156,-1046.78"/>
<polygon fill="#4d4d4d" stroke="#4d4d4d" points="1158.45,-1046.78 1156,-1039.78 1153.55,-1046.78 1158.45,-1046.78"/>
</g>
<!-- C&#45;0361&#45;&gt;S&#45;736 -->
<g id="edge17" class="edge">
<title>C&#45;0361&#45;&gt;S&#45;736</title>
<path fill="none" stroke="#4d4d4d" d="M1183.12,-1132C1248.93,-1132 1336,-1132 1336,-1132 1336,-1132 1336,-1046.72 1336,-1046.72"/>
<polygon fill="#4d4d4d" stroke="#4d4d4d" points="1338.45,-1046.72 1336,-1039.72 1333.55,-1046.72 1338.45,-1046.72"/>
</g>
<!-- S&#45;986 -->
<g id="node40" class="node">
<title>S&#45;986</title>
<polygon fill="mediumseagreen" stroke="black" points="1275,-1558 1203,-1536.5 1275,-1515 1347,-1536.5 1275,-1558"/>
<text text-anchor="middle" x="1275" y="-1534" font-family="Arial" font-size="10.00">S&#45;986</text>
</g>
<!-- C&#45;0193&#45;&gt;ext_circ_303_25_ -->
<g id="edge56" class="edge">
<title>C&#45;0193&#45;&gt;ext_circ_303_25_</title>
<path fill="none" stroke="darkorange" stroke-dasharray="5,2" d="M72,-100.97C72,-71.18 72,-21 72,-21 72,-21 532.73,-21 532.73,-21"/>
<polygon fill="darkorange" stroke="darkorange" points="532.73,-23.45 539.73,-21 532.73,-18.55 532.73,-23.45"/>
</g>
<!-- R&#45;055&#45;&gt;C&#45;1204 -->
<g id="edge22" class="edge">
<title>R&#45;055&#45;&gt;C&#45;1204</title>
<path fill="none" stroke="#4d4d4d" d="M841,-807.58C841,-807.58 841,-757.03 841,-757.03"/>
<polygon fill="#4d4d4d" stroke="#4d4d4d" points="843.45,-757.03 841,-750.03 838.55,-757.03 843.45,-757.03"/>
</g>
<!-- S&#45;771&#45;&gt;S&#45;1717 -->
<g id="edge44" class="edge">
<title>S&#45;771&#45;&gt;S&#45;1717</title>
<path fill="none" stroke="#4d4d4d" d="M432,-201.58C432,-201.58 432,-151.03 432,-151.03"/>
<polygon fill="#4d4d4d" stroke="#4d4d4d" points="434.45,-151.03 432,-144.03 429.55,-151.03 434.45,-151.03"/>
</g>
<!-- R&#45;127&#45;&gt;C&#45;0379 -->
<g id="edge38" class="edge">
<title>R&#45;127&#45;&gt;C&#45;0379</title>
<path fill="none" stroke="#4d4d4d" d="M464.5,-404.47C464.5,-374.74 464.5,-324 464.5,-324 464.5,-324 421.32,-324 421.32,-324"/>
<polygon fill="#4d4d4d" stroke="#4d4d4d" points="421.32,-321.55 414.32,-324 421.32,-326.45 421.32,-321.55"/>
</g>
<!-- C&#45;0377&#45;&gt;S&#45;2346 -->
<g id="edge55" class="edge">
<title>C&#45;0377&#45;&gt;S&#45;2346</title>
<path fill="none" stroke="blue" stroke-dasharray="5,2" d="M1066.5,-505.67C1066.5,-491.76 1066.5,-476 1066.5,-476 1066.5,-476 225,-476 225,-476 225,-476 225,-244.08 225,-244.08"/>
<polygon fill="blue" stroke="blue" points="227.45,-244.08 225,-237.08 222.55,-244.08 227.45,-244.08"/>
</g>
<!-- C&#45;1252&#45;&gt;C&#45;0040 -->
<g id="edge5" class="edge">
<title>C&#45;1252&#45;&gt;C&#45;0040</title>
<path fill="none" stroke="#4d4d4d" d="M846.25,-1644C729.97,-1644 507,-1644 507,-1644 507,-1644 507,-1565.25 507,-1565.25"/>
<polygon fill="#4d4d4d" stroke="#4d4d4d" points="509.45,-1565.25 507,-1558.25 504.55,-1565.25 509.45,-1565.25"/>
</g>
<!-- C&#45;1252&#45;&gt;C&#45;1137 -->
<g id="edge3" class="edge">
<title>C&#45;1252&#45;&gt;C&#45;1137</title>
<path fill="none" stroke="#4d4d4d" d="M847.27,-1630C790.62,-1630 719,-1630 719,-1630 719,-1630 719,-1565.19 719,-1565.19"/>
<polygon fill="#4d4d4d" stroke="#4d4d4d" points="721.45,-1565.19 719,-1558.19 716.55,-1565.19 721.45,-1565.19"/>
</g>
<!-- C&#45;1252&#45;&gt;S&#45;1327 -->
<g id="edge8" class="edge">
<title>C&#45;1252&#45;&gt;S&#45;1327</title>
<path fill="none" stroke="#4d4d4d" d="M915,-1615.58C915,-1615.58 915,-1565.03 915,-1565.03"/>
<polygon fill="#4d4d4d" stroke="#4d4d4d" points="917.45,-1565.03 915,-1558.03 912.55,-1565.03 917.45,-1565.03"/>
</g>
<!-- C&#45;1252&#45;&gt;S&#45;1718 -->
<g id="edge6" class="edge">
<title>C&#45;1252&#45;&gt;S&#45;1718</title>
<path fill="none" stroke="#4d4d4d" d="M982.54,-1630C1033.61,-1630 1095,-1630 1095,-1630 1095,-1630 1095,-1565.19 1095,-1565.19"/>
<polygon fill="#4d4d4d" stroke="#4d4d4d" points="1097.45,-1565.19 1095,-1558.19 1092.55,-1565.19 1097.45,-1565.19"/>
</g>
<!-- C&#45;1252&#45;&gt;S&#45;986 -->
<g id="edge7" class="edge">
<title>C&#45;1252&#45;&gt;S&#45;986</title>
<path fill="none" stroke="#4d4d4d" d="M983.99,-1644C1088.52,-1644 1275,-1644 1275,-1644 1275,-1644 1275,-1565.25 1275,-1565.25"/>
<polygon fill="#4d4d4d" stroke="#4d4d4d" points="1277.45,-1565.25 1275,-1558.25 1272.55,-1565.25 1277.45,-1565.25"/>
</g>
</g>
</svg>
