<?xml version="1.0" encoding="UTF-8" standalone="no"?>
<!DOCTYPE svg PUBLIC "-//W3C//DTD SVG 1.1//EN"
 "http://www.w3.org/Graphics/SVG/1.1/DTD/svg11.dtd">
<!-- Generated by graphviz version 2.50.0 (0)
 -->
<!-- Title: Grafo_Circuito_113_24_ Pages: 1 -->
<svg width="930pt" height="1473pt"
 viewBox="0.00 0.00 930.00 1473.00" xmlns="http://www.w3.org/2000/svg" xmlns:xlink="http://www.w3.org/1999/xlink">
<g id="graph0" class="graph" transform="scale(1 1) rotate(0) translate(4 1469)">
<title>Grafo_Circuito_113_24_</title>
<polygon fill="white" stroke="transparent" points="-4,4 -4,-1469 926,-1469 926,4 -4,4"/>
<!-- C&#45;0940 -->
<g id="node1" class="node">
<title>C&#45;0940</title>
<ellipse fill="mediumseagreen" stroke="black" cx="252" cy="-1031.5" rx="72" ry="21.5"/>
<text text-anchor="middle" x="252" y="-1029" font-family="Arial" font-size="10.00">C&#45;0940</text>
</g>
<!-- S&#45;105 -->
<g id="node13" class="node">
<title>S&#45;105</title>
<polygon fill="mediumseagreen" stroke="black" points="72,-952 0,-930.5 72,-909 144,-930.5 72,-952"/>
<text text-anchor="middle" x="72" y="-928" font-family="Arial" font-size="10.00">S&#45;105</text>
</g>
<!-- C&#45;0940&#45;&gt;S&#45;105 -->
<g id="edge7" class="edge">
<title>C&#45;0940&#45;&gt;S&#45;105</title>
<path fill="none" stroke="#4d4d4d" d="M179.92,-1031C143.53,-1031 107,-1031 107,-1031 107,-1031 107,-948.64 107,-948.64"/>
<polygon fill="#4d4d4d" stroke="#4d4d4d" points="109.45,-948.64 107,-941.64 104.55,-948.64 109.45,-948.64"/>
</g>
<!-- S&#45;1483 -->
<g id="node14" class="node">
<title>S&#45;1483</title>
<polygon fill="mediumseagreen" stroke="black" points="252,-952 180,-930.5 252,-909 324,-930.5 252,-952"/>
<text text-anchor="middle" x="252" y="-928" font-family="Arial" font-size="10.00">S&#45;1483</text>
</g>
<!-- C&#45;0940&#45;&gt;S&#45;1483 -->
<g id="edge24" class="edge">
<title>C&#45;0940&#45;&gt;S&#45;1483</title>
<path fill="none" stroke="#4d4d4d" d="M252,-1009.58C252,-1009.58 252,-959.03 252,-959.03"/>
<polygon fill="#4d4d4d" stroke="#4d4d4d" points="254.45,-959.03 252,-952.03 249.55,-959.03 254.45,-959.03"/>
</g>
<!-- S&#45;1194 -->
<g id="node29" class="node">
<title>S&#45;1194</title>
<polygon fill="mediumseagreen" stroke="black" points="432,-952 360,-930.5 432,-909 504,-930.5 432,-952"/>
<text text-anchor="middle" x="432" y="-928" font-family="Arial" font-size="10.00">S&#45;1194</text>
</g>
<!-- C&#45;0940&#45;&gt;S&#45;1194 -->
<g id="edge8" class="edge">
<title>C&#45;0940&#45;&gt;S&#45;1194</title>
<path fill="none" stroke="#4d4d4d" d="M319.54,-1024C370.61,-1024 432,-1024 432,-1024 432,-1024 432,-959.19 432,-959.19"/>
<polygon fill="#4d4d4d" stroke="#4d4d4d" points="434.45,-959.19 432,-952.19 429.55,-959.19 434.45,-959.19"/>
</g>
<!-- C&#45;0814 -->
<g id="node2" class="node">
<title>C&#45;0814</title>
<ellipse fill="tomato" stroke="black" cx="612" cy="-425.5" rx="72" ry="21.5"/>
<text text-anchor="middle" x="612" y="-423" font-family="Arial" font-size="10.00">C&#45;0814</text>
</g>
<!-- C&#45;0815 -->
<g id="node27" class="node">
<title>C&#45;0815</title>
<ellipse fill="mediumseagreen" stroke="black" cx="792" cy="-223.5" rx="72" ry="21.5"/>
<text text-anchor="middle" x="792" y="-221" font-family="Arial" font-size="10.00">C&#45;0815</text>
</g>
<!-- C&#45;0814&#45;&gt;C&#45;0815 -->
<g id="edge33" class="edge">
<title>C&#45;0814&#45;&gt;C&#45;0815</title>
<path fill="none" stroke="blue" stroke-dasharray="5,2" d="M641,-405.71C641,-354.76 641,-223 641,-223 641,-223 712.6,-223 712.6,-223"/>
<polygon fill="blue" stroke="blue" points="712.6,-225.45 719.6,-223 712.6,-220.55 712.6,-225.45"/>
</g>
<!-- C&#45;0938 -->
<g id="node3" class="node">
<title>C&#45;0938</title>
<ellipse fill="mediumseagreen" stroke="black" cx="252" cy="-1233.5" rx="72" ry="21.5"/>
<text text-anchor="middle" x="252" y="-1231" font-family="Arial" font-size="10.00">C&#45;0938</text>
</g>
<!-- R&#45;221 -->
<g id="node28" class="node">
<title>R&#45;221</title>
<polygon fill="mediumseagreen" stroke="black" points="324,-1123.59 324,-1141.41 281.82,-1154 222.18,-1154 180,-1141.41 180,-1123.59 222.18,-1111 281.82,-1111 324,-1123.59"/>
<text text-anchor="middle" x="252" y="-1130" font-family="Arial" font-size="10.00">R&#45;221</text>
</g>
<!-- C&#45;0938&#45;&gt;R&#45;221 -->
<g id="edge5" class="edge">
<title>C&#45;0938&#45;&gt;R&#45;221</title>
<path fill="none" stroke="#4d4d4d" d="M252,-1211.58C252,-1211.58 252,-1161.03 252,-1161.03"/>
<polygon fill="#4d4d4d" stroke="#4d4d4d" points="254.45,-1161.03 252,-1154.03 249.55,-1161.03 254.45,-1161.03"/>
</g>
<!-- S&#45;2152 -->
<g id="node4" class="node">
<title>S&#45;2152</title>
<polygon fill="mediumseagreen" stroke="black" points="432,-1255 360,-1233.5 432,-1212 504,-1233.5 432,-1255"/>
<text text-anchor="middle" x="432" y="-1231" font-family="Arial" font-size="10.00">S&#45;2152</text>
</g>
<!-- C&#45;0813 -->
<g id="node5" class="node">
<title>C&#45;0813</title>
<ellipse fill="mediumseagreen" stroke="black" cx="792" cy="-425.5" rx="72" ry="21.5"/>
<text text-anchor="middle" x="792" y="-423" font-family="Arial" font-size="10.00">C&#45;0813</text>
</g>
<!-- R&#45;182 -->
<g id="node18" class="node">
<title>R&#45;182</title>
<polygon fill="mediumseagreen" stroke="black" points="864,-315.59 864,-333.41 821.82,-346 762.18,-346 720,-333.41 720,-315.59 762.18,-303 821.82,-303 864,-315.59"/>
<text text-anchor="middle" x="792" y="-322" font-family="Arial" font-size="10.00">R&#45;182</text>
</g>
<!-- C&#45;0813&#45;&gt;R&#45;182 -->
<g id="edge18" class="edge">
<title>C&#45;0813&#45;&gt;R&#45;182</title>
<path fill="none" stroke="#4d4d4d" d="M792,-403.58C792,-403.58 792,-353.03 792,-353.03"/>
<polygon fill="#4d4d4d" stroke="#4d4d4d" points="794.45,-353.03 792,-346.03 789.55,-353.03 794.45,-353.03"/>
</g>
<!-- S&#45;1242 -->
<g id="node6" class="node">
<title>S&#45;1242</title>
<polygon fill="mediumseagreen" stroke="black" points="612,-1255 540,-1233.5 612,-1212 684,-1233.5 612,-1255"/>
<text text-anchor="middle" x="612" y="-1231" font-family="Arial" font-size="10.00">S&#45;1242</text>
</g>
<!-- S&#45;2008 -->
<g id="node9" class="node">
<title>S&#45;2008</title>
<polygon fill="mediumseagreen" stroke="black" points="432,-1154 360,-1132.5 432,-1111 504,-1132.5 432,-1154"/>
<text text-anchor="middle" x="432" y="-1130" font-family="Arial" font-size="10.00">S&#45;2008</text>
</g>
<!-- S&#45;1242&#45;&gt;S&#45;2008 -->
<g id="edge29" class="edge">
<title>S&#45;1242&#45;&gt;S&#45;2008</title>
<path fill="none" stroke="#4d4d4d" d="M541.53,-1233C530.14,-1233 522,-1233 522,-1233 522,-1233 522,-1132 522,-1132 522,-1132 509.47,-1132 509.47,-1132"/>
<polygon fill="#4d4d4d" stroke="#4d4d4d" points="509.47,-1129.55 502.47,-1132 509.47,-1134.45 509.47,-1129.55"/>
</g>
<!-- S&#45;1553 -->
<g id="node12" class="node">
<title>S&#45;1553</title>
<polygon fill="mediumseagreen" stroke="black" points="612,-1154 540,-1132.5 612,-1111 684,-1132.5 612,-1154"/>
<text text-anchor="middle" x="612" y="-1130" font-family="Arial" font-size="10.00">S&#45;1553</text>
</g>
<!-- S&#45;1242&#45;&gt;S&#45;1553 -->
<g id="edge28" class="edge">
<title>S&#45;1242&#45;&gt;S&#45;1553</title>
<path fill="none" stroke="#4d4d4d" d="M612,-1211.58C612,-1211.58 612,-1161.03 612,-1161.03"/>
<polygon fill="#4d4d4d" stroke="#4d4d4d" points="614.45,-1161.03 612,-1154.03 609.55,-1161.03 614.45,-1161.03"/>
</g>
<!-- S&#45;1567 -->
<g id="node20" class="node">
<title>S&#45;1567</title>
<polygon fill="mediumseagreen" stroke="black" points="792,-1154 720,-1132.5 792,-1111 864,-1132.5 792,-1154"/>
<text text-anchor="middle" x="792" y="-1130" font-family="Arial" font-size="10.00">S&#45;1567</text>
</g>
<!-- S&#45;1242&#45;&gt;S&#45;1567 -->
<g id="edge26" class="edge">
<title>S&#45;1242&#45;&gt;S&#45;1567</title>
<path fill="none" stroke="#4d4d4d" d="M662.36,-1240C684.52,-1240 705.6,-1240 705.6,-1240 705.6,-1240 705.6,-1132 705.6,-1132 705.6,-1132 714.45,-1132 714.45,-1132"/>
<polygon fill="#4d4d4d" stroke="#4d4d4d" points="714.45,-1134.45 721.45,-1132 714.45,-1129.55 714.45,-1134.45"/>
</g>
<!-- S&#45;765 -->
<g id="node7" class="node">
<title>S&#45;765</title>
<polygon fill="mediumseagreen" stroke="black" points="792,-144 720,-122.5 792,-101 864,-122.5 792,-144"/>
<text text-anchor="middle" x="792" y="-120" font-family="Arial" font-size="10.00">S&#45;765</text>
</g>
<!-- S&#45;1940 -->
<g id="node22" class="node">
<title>S&#45;1940</title>
<polygon fill="mediumseagreen" stroke="black" points="850,-43 778,-21.5 850,0 922,-21.5 850,-43"/>
<text text-anchor="middle" x="850" y="-19" font-family="Arial" font-size="10.00">S&#45;1940</text>
</g>
<!-- S&#45;765&#45;&gt;S&#45;1940 -->
<g id="edge22" class="edge">
<title>S&#45;765&#45;&gt;S&#45;1940</title>
<path fill="none" stroke="#4d4d4d" d="M821,-109.3C821,-109.3 821,-41.39 821,-41.39"/>
<polygon fill="#4d4d4d" stroke="#4d4d4d" points="823.45,-41.39 821,-34.39 818.55,-41.39 823.45,-41.39"/>
</g>
<!-- C&#45;0025 -->
<g id="node23" class="node">
<title>C&#45;0025</title>
<ellipse fill="tomato" stroke="black" cx="670" cy="-21.5" rx="72" ry="21.5"/>
<text text-anchor="middle" x="670" y="-19" font-family="Arial" font-size="10.00">C&#45;0025</text>
</g>
<!-- S&#45;765&#45;&gt;C&#45;0025 -->
<g id="edge21" class="edge">
<title>S&#45;765&#45;&gt;C&#45;0025</title>
<path fill="none" stroke="#4d4d4d" d="M731,-119.14C731,-119.14 731,-40.22 731,-40.22"/>
<polygon fill="#4d4d4d" stroke="#4d4d4d" points="733.45,-40.22 731,-33.22 728.55,-40.22 733.45,-40.22"/>
</g>
<!-- S&#45;2009 -->
<g id="node8" class="node">
<title>S&#45;2009</title>
<polygon fill="mediumseagreen" stroke="black" points="252,-851 180,-829.5 252,-808 324,-829.5 252,-851"/>
<text text-anchor="middle" x="252" y="-827" font-family="Arial" font-size="10.00">S&#45;2009</text>
</g>
<!-- C&#45;0806 -->
<g id="node10" class="node">
<title>C&#45;0806</title>
<ellipse fill="mediumseagreen" stroke="black" cx="612" cy="-526.5" rx="72" ry="21.5"/>
<text text-anchor="middle" x="612" y="-524" font-family="Arial" font-size="10.00">C&#45;0806</text>
</g>
<!-- C&#45;0939 -->
<g id="node11" class="node">
<title>C&#45;0939</title>
<ellipse fill="tomato" stroke="black" cx="792" cy="-1233.5" rx="72" ry="21.5"/>
<text text-anchor="middle" x="792" y="-1231" font-family="Arial" font-size="10.00">C&#45;0939</text>
</g>
<!-- C&#45;0939&#45;&gt;C&#45;0940 -->
<g id="edge30" class="edge">
<title>C&#45;0939&#45;&gt;C&#45;0940</title>
<path fill="none" stroke="blue" stroke-dasharray="5,2" d="M724.47,-1226C709.71,-1226 698.4,-1226 698.4,-1226 698.4,-1226 698.4,-1038 698.4,-1038 698.4,-1038 327.77,-1038 327.77,-1038"/>
<polygon fill="blue" stroke="blue" points="327.77,-1035.55 320.77,-1038 327.77,-1040.45 327.77,-1035.55"/>
</g>
<!-- C&#45;0392 -->
<g id="node15" class="node">
<title>C&#45;0392</title>
<ellipse fill="tomato" stroke="black" cx="432" cy="-829.5" rx="72" ry="21.5"/>
<text text-anchor="middle" x="432" y="-827" font-family="Arial" font-size="10.00">C&#45;0392</text>
</g>
<!-- C&#45;0392&#45;&gt;C&#45;0806 -->
<g id="edge31" class="edge">
<title>C&#45;0392&#45;&gt;C&#45;0806</title>
<path fill="none" stroke="blue" stroke-dasharray="5,2" d="M467,-810.51C467,-744.07 467,-526 467,-526 467,-526 532.92,-526 532.92,-526"/>
<polygon fill="blue" stroke="blue" points="532.92,-528.45 539.92,-526 532.92,-523.55 532.92,-528.45"/>
</g>
<!-- R&#45;132 -->
<g id="node16" class="node">
<title>R&#45;132</title>
<polygon fill="mediumseagreen" stroke="black" points="684,-719.59 684,-737.41 641.82,-750 582.18,-750 540,-737.41 540,-719.59 582.18,-707 641.82,-707 684,-719.59"/>
<text text-anchor="middle" x="612" y="-726" font-family="Arial" font-size="10.00">R&#45;132</text>
</g>
<!-- C&#45;0394 -->
<g id="node19" class="node">
<title>C&#45;0394</title>
<ellipse fill="mediumseagreen" stroke="black" cx="612" cy="-627.5" rx="72" ry="21.5"/>
<text text-anchor="middle" x="612" y="-625" font-family="Arial" font-size="10.00">C&#45;0394</text>
</g>
<!-- R&#45;132&#45;&gt;C&#45;0394 -->
<g id="edge12" class="edge">
<title>R&#45;132&#45;&gt;C&#45;0394</title>
<path fill="none" stroke="#4d4d4d" d="M612,-706.58C612,-706.58 612,-656.03 612,-656.03"/>
<polygon fill="#4d4d4d" stroke="#4d4d4d" points="614.45,-656.03 612,-649.03 609.55,-656.03 614.45,-656.03"/>
</g>
<!-- C&#45;0393 -->
<g id="node17" class="node">
<title>C&#45;0393</title>
<ellipse fill="mediumseagreen" stroke="black" cx="612" cy="-829.5" rx="72" ry="21.5"/>
<text text-anchor="middle" x="612" y="-827" font-family="Arial" font-size="10.00">C&#45;0393</text>
</g>
<!-- C&#45;0393&#45;&gt;R&#45;132 -->
<g id="edge11" class="edge">
<title>C&#45;0393&#45;&gt;R&#45;132</title>
<path fill="none" stroke="#4d4d4d" d="M612,-807.58C612,-807.58 612,-757.03 612,-757.03"/>
<polygon fill="#4d4d4d" stroke="#4d4d4d" points="614.45,-757.03 612,-750.03 609.55,-757.03 614.45,-757.03"/>
</g>
<!-- R&#45;182&#45;&gt;C&#45;0815 -->
<g id="edge19" class="edge">
<title>R&#45;182&#45;&gt;C&#45;0815</title>
<path fill="none" stroke="#4d4d4d" d="M792,-302.58C792,-302.58 792,-252.03 792,-252.03"/>
<polygon fill="#4d4d4d" stroke="#4d4d4d" points="794.45,-252.03 792,-245.03 789.55,-252.03 794.45,-252.03"/>
</g>
<!-- C&#45;0394&#45;&gt;C&#45;0806 -->
<g id="edge13" class="edge">
<title>C&#45;0394&#45;&gt;C&#45;0806</title>
<path fill="none" stroke="#4d4d4d" d="M612,-605.58C612,-605.58 612,-555.03 612,-555.03"/>
<polygon fill="#4d4d4d" stroke="#4d4d4d" points="614.45,-555.03 612,-548.03 609.55,-555.03 614.45,-555.03"/>
</g>
<!-- C&#45;0807 -->
<g id="node24" class="node">
<title>C&#45;0807</title>
<ellipse fill="tomato" stroke="black" cx="358" cy="-526.5" rx="72" ry="21.5"/>
<text text-anchor="middle" x="358" y="-524" font-family="Arial" font-size="10.00">C&#45;0807</text>
</g>
<!-- C&#45;0394&#45;&gt;C&#45;0807 -->
<g id="edge14" class="edge">
<title>C&#45;0394&#45;&gt;C&#45;0807</title>
<path fill="none" stroke="#4d4d4d" d="M539.74,-627C476.62,-627 395,-627 395,-627 395,-627 395,-552.4 395,-552.4"/>
<polygon fill="#4d4d4d" stroke="#4d4d4d" points="397.45,-552.4 395,-545.4 392.55,-552.4 397.45,-552.4"/>
</g>
<!-- C&#45;0508 -->
<g id="node26" class="node">
<title>C&#45;0508</title>
<ellipse fill="mediumseagreen" stroke="black" cx="792" cy="-526.5" rx="72" ry="21.5"/>
<text text-anchor="middle" x="792" y="-524" font-family="Arial" font-size="10.00">C&#45;0508</text>
</g>
<!-- C&#45;0394&#45;&gt;C&#45;0508 -->
<g id="edge15" class="edge">
<title>C&#45;0394&#45;&gt;C&#45;0508</title>
<path fill="none" stroke="#4d4d4d" d="M684.18,-627C734.25,-627 792,-627 792,-627 792,-627 792,-555.31 792,-555.31"/>
<polygon fill="#4d4d4d" stroke="#4d4d4d" points="794.45,-555.31 792,-548.31 789.55,-555.31 794.45,-555.31"/>
</g>
<!-- S&#45;1569 -->
<g id="node21" class="node">
<title>S&#45;1569</title>
<polygon fill="mediumseagreen" stroke="black" points="792,-1053 720,-1031.5 792,-1010 864,-1031.5 792,-1053"/>
<text text-anchor="middle" x="792" y="-1029" font-family="Arial" font-size="10.00">S&#45;1569</text>
</g>
<!-- S&#45;1567&#45;&gt;S&#45;1569 -->
<g id="edge27" class="edge">
<title>S&#45;1567&#45;&gt;S&#45;1569</title>
<path fill="none" stroke="#4d4d4d" d="M792,-1110.58C792,-1110.58 792,-1060.03 792,-1060.03"/>
<polygon fill="#4d4d4d" stroke="#4d4d4d" points="794.45,-1060.03 792,-1053.03 789.55,-1060.03 794.45,-1060.03"/>
</g>
<!-- ext_circ_303_25_ -->
<g id="node32" class="node">
<title>ext_circ_303_25_</title>
<polygon fill="lightpink" stroke="darkorange" stroke-dasharray="5,2" points="405,-1461 261,-1461 261,-1418 405,-1418 405,-1461"/>
<text text-anchor="middle" x="333" y="-1442.5" font-family="Arial" font-size="10.00">Circuito:</text>
<text text-anchor="middle" x="333" y="-1431.5" font-family="Arial" font-size="10.00">303&#45;25&#45;</text>
</g>
<!-- C&#45;0025&#45;&gt;ext_circ_303_25_ -->
<g id="edge34" class="edge">
<title>C&#45;0025&#45;&gt;ext_circ_303_25_</title>
<path fill="none" stroke="darkorange" stroke-dasharray="5,2" d="M691.2,-42.1C691.2,-205.37 691.2,-1284 691.2,-1284 691.2,-1284 382.5,-1284 382.5,-1284 382.5,-1284 382.5,-1410.88 382.5,-1410.88"/>
<polygon fill="darkorange" stroke="darkorange" points="380.05,-1410.88 382.5,-1417.88 384.95,-1410.88 380.05,-1410.88"/>
</g>
<!-- ext_circ_114_23_ -->
<g id="node31" class="node">
<title>ext_circ_114_23_</title>
<polygon fill="lightpink" stroke="darkorange" stroke-dasharray="5,2" points="214,-1461 70,-1461 70,-1418 214,-1418 214,-1461"/>
<text text-anchor="middle" x="142" y="-1442.5" font-family="Arial" font-size="10.00">Circuito:</text>
<text text-anchor="middle" x="142" y="-1431.5" font-family="Arial" font-size="10.00">114&#45;23&#45;</text>
</g>
<!-- C&#45;0807&#45;&gt;ext_circ_114_23_ -->
<g id="edge32" class="edge">
<title>C&#45;0807&#45;&gt;ext_circ_114_23_</title>
<path fill="none" stroke="darkorange" stroke-dasharray="5,2" d="M285.85,-526C229.97,-526 162,-526 162,-526 162,-526 162,-1410.82 162,-1410.82"/>
<polygon fill="darkorange" stroke="darkorange" points="159.55,-1410.82 162,-1417.82 164.45,-1410.82 159.55,-1410.82"/>
</g>
<!-- 113&#45;24&#45; -->
<g id="node25" class="node">
<title>113&#45;24&#45;</title>
<polygon fill="gold" stroke="black" points="594,-1430.59 594,-1448.41 551.82,-1461 492.18,-1461 450,-1448.41 450,-1430.59 492.18,-1418 551.82,-1418 594,-1430.59"/>
<polygon fill="none" stroke="black" points="598,-1427.61 598,-1451.39 552.41,-1465 491.59,-1465 446,-1451.39 446,-1427.61 491.59,-1414 552.41,-1414 598,-1427.61"/>
<text text-anchor="middle" x="522" y="-1437" font-family="Arial" font-size="10.00">113&#45;24&#45;</text>
</g>
<!-- S&#45;102 -->
<g id="node30" class="node">
<title>S&#45;102</title>
<polygon fill="mediumseagreen" stroke="black" points="522,-1356 450,-1334.5 522,-1313 594,-1334.5 522,-1356"/>
<text text-anchor="middle" x="522" y="-1332" font-family="Arial" font-size="10.00">S&#45;102</text>
</g>
<!-- 113&#45;24&#45;&#45;&gt;S&#45;102 -->
<g id="edge1" class="edge">
<title>113&#45;24&#45;&#45;&gt;S&#45;102</title>
<path fill="none" stroke="#4d4d4d" d="M522,-1413.81C522,-1413.81 522,-1363.03 522,-1363.03"/>
<polygon fill="#4d4d4d" stroke="#4d4d4d" points="524.45,-1363.03 522,-1356.03 519.55,-1363.03 524.45,-1363.03"/>
</g>
<!-- C&#45;0508&#45;&gt;C&#45;0814 -->
<g id="edge17" class="edge">
<title>C&#45;0508&#45;&gt;C&#45;0814</title>
<path fill="none" stroke="#4d4d4d" d="M719.83,-526C715.47,-526 712.8,-526 712.8,-526 712.8,-526 712.8,-425 712.8,-425 712.8,-425 691.18,-425 691.18,-425"/>
<polygon fill="#4d4d4d" stroke="#4d4d4d" points="691.18,-422.55 684.18,-425 691.18,-427.45 691.18,-422.55"/>
</g>
<!-- C&#45;0508&#45;&gt;C&#45;0813 -->
<g id="edge16" class="edge">
<title>C&#45;0508&#45;&gt;C&#45;0813</title>
<path fill="none" stroke="#4d4d4d" d="M792,-504.58C792,-504.58 792,-454.03 792,-454.03"/>
<polygon fill="#4d4d4d" stroke="#4d4d4d" points="794.45,-454.03 792,-447.03 789.55,-454.03 794.45,-454.03"/>
</g>
<!-- C&#45;0815&#45;&gt;S&#45;765 -->
<g id="edge20" class="edge">
<title>C&#45;0815&#45;&gt;S&#45;765</title>
<path fill="none" stroke="#4d4d4d" d="M792,-201.58C792,-201.58 792,-151.03 792,-151.03"/>
<polygon fill="#4d4d4d" stroke="#4d4d4d" points="794.45,-151.03 792,-144.03 789.55,-151.03 794.45,-151.03"/>
</g>
<!-- R&#45;221&#45;&gt;C&#45;0940 -->
<g id="edge6" class="edge">
<title>R&#45;221&#45;&gt;C&#45;0940</title>
<path fill="none" stroke="#4d4d4d" d="M252,-1110.58C252,-1110.58 252,-1060.03 252,-1060.03"/>
<polygon fill="#4d4d4d" stroke="#4d4d4d" points="254.45,-1060.03 252,-1053.03 249.55,-1060.03 254.45,-1060.03"/>
</g>
<!-- S&#45;1194&#45;&gt;S&#45;2009 -->
<g id="edge23" class="edge">
<title>S&#45;1194&#45;&gt;S&#45;2009</title>
<path fill="none" stroke="#4d4d4d" d="M361.53,-930C350.14,-930 342,-930 342,-930 342,-930 342,-829 342,-829 342,-829 329.47,-829 329.47,-829"/>
<polygon fill="#4d4d4d" stroke="#4d4d4d" points="329.47,-826.55 322.47,-829 329.47,-831.45 329.47,-826.55"/>
</g>
<!-- S&#45;1194&#45;&gt;C&#45;0392 -->
<g id="edge10" class="edge">
<title>S&#45;1194&#45;&gt;C&#45;0392</title>
<path fill="none" stroke="#4d4d4d" d="M432,-908.58C432,-908.58 432,-858.03 432,-858.03"/>
<polygon fill="#4d4d4d" stroke="#4d4d4d" points="434.45,-858.03 432,-851.03 429.55,-858.03 434.45,-858.03"/>
</g>
<!-- S&#45;1194&#45;&gt;C&#45;0393 -->
<g id="edge9" class="edge">
<title>S&#45;1194&#45;&gt;C&#45;0393</title>
<path fill="none" stroke="#4d4d4d" d="M502.37,-930C552.85,-930 612,-930 612,-930 612,-930 612,-858.31 612,-858.31"/>
<polygon fill="#4d4d4d" stroke="#4d4d4d" points="614.45,-858.31 612,-851.31 609.55,-858.31 614.45,-858.31"/>
</g>
<!-- S&#45;102&#45;&gt;C&#45;0938 -->
<g id="edge4" class="edge">
<title>S&#45;102&#45;&gt;C&#45;0938</title>
<path fill="none" stroke="#4d4d4d" d="M451.58,-1334C384.12,-1334 292.5,-1334 292.5,-1334 292.5,-1334 292.5,-1258.47 292.5,-1258.47"/>
<polygon fill="#4d4d4d" stroke="#4d4d4d" points="294.95,-1258.47 292.5,-1251.47 290.05,-1258.47 294.95,-1258.47"/>
</g>
<!-- S&#45;102&#45;&gt;S&#45;2152 -->
<g id="edge2" class="edge">
<title>S&#45;102&#45;&gt;S&#45;2152</title>
<path fill="none" stroke="#4d4d4d" d="M477,-1326.23C477,-1326.23 477,-1248.6 477,-1248.6"/>
<polygon fill="#4d4d4d" stroke="#4d4d4d" points="479.45,-1248.6 477,-1241.6 474.55,-1248.6 479.45,-1248.6"/>
</g>
<!-- S&#45;102&#45;&gt;S&#45;1242 -->
<g id="edge25" class="edge">
<title>S&#45;102&#45;&gt;S&#45;1242</title>
<path fill="none" stroke="#4d4d4d" d="M567,-1326.23C567,-1326.23 567,-1248.6 567,-1248.6"/>
<polygon fill="#4d4d4d" stroke="#4d4d4d" points="569.45,-1248.6 567,-1241.6 564.55,-1248.6 569.45,-1248.6"/>
</g>
<!-- S&#45;102&#45;&gt;C&#45;0939 -->
<g id="edge3" class="edge">
<title>S&#45;102&#45;&gt;C&#45;0939</title>
<path fill="none" stroke="#4d4d4d" d="M592.59,-1334C672.59,-1334 792,-1334 792,-1334 792,-1334 792,-1262.31 792,-1262.31"/>
<polygon fill="#4d4d4d" stroke="#4d4d4d" points="794.45,-1262.31 792,-1255.31 789.55,-1262.31 794.45,-1262.31"/>
</g>
</g>
</svg>
