<?xml version="1.0" encoding="UTF-8" standalone="no"?>
<!DOCTYPE svg PUBLIC "-//W3C//DTD SVG 1.1//EN"
 "http://www.w3.org/Graphics/SVG/1.1/DTD/svg11.dtd">
<!-- Generated by graphviz version 2.50.0 (0)
 -->
<!-- Title: Grafo_Circuito_208_22_ Pages: 1 -->
<svg width="1666pt" height="1170pt"
 viewBox="0.00 0.00 1666.00 1170.00" xmlns="http://www.w3.org/2000/svg" xmlns:xlink="http://www.w3.org/1999/xlink">
<g id="graph0" class="graph" transform="scale(1 1) rotate(0) translate(4 1166)">
<title>Grafo_Circuito_208_22_</title>
<polygon fill="white" stroke="transparent" points="-4,4 -4,-1166 1662,-1166 1662,4 -4,4"/>
<!-- C&#45;0458 -->
<g id="node1" class="node">
<title>C&#45;0458</title>
<ellipse fill="mediumseagreen" stroke="black" cx="456" cy="-425.5" rx="72" ry="21.5"/>
<text text-anchor="middle" x="456" y="-423" font-family="Arial" font-size="10.00">C&#45;0458</text>
</g>
<!-- S&#45;2101 -->
<g id="node25" class="node">
<title>S&#45;2101</title>
<polygon fill="mediumseagreen" stroke="black" points="440,-346 368,-324.5 440,-303 512,-324.5 440,-346"/>
<text text-anchor="middle" x="440" y="-322" font-family="Arial" font-size="10.00">S&#45;2101</text>
</g>
<!-- C&#45;0458&#45;&gt;S&#45;2101 -->
<g id="edge12" class="edge">
<title>C&#45;0458&#45;&gt;S&#45;2101</title>
<path fill="none" stroke="#4d4d4d" d="M448,-404.08C448,-404.08 448,-350.84 448,-350.84"/>
<polygon fill="#4d4d4d" stroke="#4d4d4d" points="450.45,-350.84 448,-343.84 445.55,-350.84 450.45,-350.84"/>
</g>
<!-- C&#45;0386 -->
<g id="node2" class="node">
<title>C&#45;0386</title>
<ellipse fill="tomato" stroke="black" cx="738" cy="-829.5" rx="72" ry="21.5"/>
<text text-anchor="middle" x="738" y="-827" font-family="Arial" font-size="10.00">C&#45;0386</text>
</g>
<!-- C&#45;0457 -->
<g id="node24" class="node">
<title>C&#45;0457</title>
<ellipse fill="mediumseagreen" stroke="black" cx="488" cy="-526.5" rx="72" ry="21.5"/>
<text text-anchor="middle" x="488" y="-524" font-family="Arial" font-size="10.00">C&#45;0457</text>
</g>
<!-- C&#45;0386&#45;&gt;C&#45;0457 -->
<g id="edge38" class="edge">
<title>C&#45;0386&#45;&gt;C&#45;0457</title>
<path fill="none" stroke="blue" stroke-dasharray="5,2" d="M670.5,-821.87C670.5,-775.46 670.5,-533 670.5,-533 670.5,-533 563.74,-533 563.74,-533"/>
<polygon fill="blue" stroke="blue" points="563.74,-530.55 556.74,-533 563.74,-535.45 563.74,-530.55"/>
</g>
<!-- C&#45;0124 -->
<g id="node3" class="node">
<title>C&#45;0124</title>
<ellipse fill="tomato" stroke="black" cx="1035" cy="-122.5" rx="72" ry="21.5"/>
<text text-anchor="middle" x="1035" y="-120" font-family="Arial" font-size="10.00">C&#45;0124</text>
</g>
<!-- ext_circ_205_23_ -->
<g id="node41" class="node">
<title>ext_circ_205_23_</title>
<polygon fill="lightpink" stroke="darkorange" stroke-dasharray="5,2" points="1260,-43 1116,-43 1116,0 1260,0 1260,-43"/>
<text text-anchor="middle" x="1188" y="-24.5" font-family="Arial" font-size="10.00">Circuito:</text>
<text text-anchor="middle" x="1188" y="-13.5" font-family="Arial" font-size="10.00">205&#45;23&#45;</text>
</g>
<!-- C&#45;0124&#45;&gt;ext_circ_205_23_ -->
<g id="edge43" class="edge">
<title>C&#45;0124&#45;&gt;ext_circ_205_23_</title>
<path fill="none" stroke="darkorange" stroke-dasharray="5,2" d="M1096,-111C1120.03,-111 1142,-111 1142,-111 1142,-111 1142,-50.17 1142,-50.17"/>
<polygon fill="darkorange" stroke="darkorange" points="1144.45,-50.17 1142,-43.17 1139.55,-50.17 1144.45,-50.17"/>
</g>
<!-- C&#45;0764 -->
<g id="node4" class="node">
<title>C&#45;0764</title>
<ellipse fill="mediumseagreen" stroke="black" cx="1136" cy="-526.5" rx="72" ry="21.5"/>
<text text-anchor="middle" x="1136" y="-524" font-family="Arial" font-size="10.00">C&#45;0764</text>
</g>
<!-- S&#45;838 -->
<g id="node30" class="node">
<title>S&#45;838</title>
<polygon fill="mediumseagreen" stroke="black" points="1136,-447 1064,-425.5 1136,-404 1208,-425.5 1136,-447"/>
<text text-anchor="middle" x="1136" y="-423" font-family="Arial" font-size="10.00">S&#45;838</text>
</g>
<!-- C&#45;0764&#45;&gt;S&#45;838 -->
<g id="edge29" class="edge">
<title>C&#45;0764&#45;&gt;S&#45;838</title>
<path fill="none" stroke="#4d4d4d" d="M1136,-504.58C1136,-504.58 1136,-454.03 1136,-454.03"/>
<polygon fill="#4d4d4d" stroke="#4d4d4d" points="1138.45,-454.03 1136,-447.03 1133.55,-454.03 1138.45,-454.03"/>
</g>
<!-- S&#45;1627 -->
<g id="node32" class="node">
<title>S&#45;1627</title>
<polygon fill="mediumseagreen" stroke="black" points="1316,-447 1244,-425.5 1316,-404 1388,-425.5 1316,-447"/>
<text text-anchor="middle" x="1316" y="-423" font-family="Arial" font-size="10.00">S&#45;1627</text>
</g>
<!-- C&#45;0764&#45;&gt;S&#45;1627 -->
<g id="edge28" class="edge">
<title>C&#45;0764&#45;&gt;S&#45;1627</title>
<path fill="none" stroke="#4d4d4d" d="M1203.55,-519C1253.9,-519 1314,-519 1314,-519 1314,-519 1314,-453.72 1314,-453.72"/>
<polygon fill="#4d4d4d" stroke="#4d4d4d" points="1316.45,-453.72 1314,-446.72 1311.55,-453.72 1316.45,-453.72"/>
</g>
<!-- S&#45;992 -->
<g id="node5" class="node">
<title>S&#45;992</title>
<polygon fill="mediumseagreen" stroke="black" points="72,-245 0,-223.5 72,-202 144,-223.5 72,-245"/>
<text text-anchor="middle" x="72" y="-221" font-family="Arial" font-size="10.00">S&#45;992</text>
</g>
<!-- S&#45;2499 -->
<g id="node6" class="node">
<title>S&#45;2499</title>
<polygon fill="mediumseagreen" stroke="black" points="252,-245 180,-223.5 252,-202 324,-223.5 252,-245"/>
<text text-anchor="middle" x="252" y="-221" font-family="Arial" font-size="10.00">S&#45;2499</text>
</g>
<!-- S&#45;2326 -->
<g id="node7" class="node">
<title>S&#45;2326</title>
<polygon fill="mediumseagreen" stroke="black" points="1046,-245 974,-223.5 1046,-202 1118,-223.5 1046,-245"/>
<text text-anchor="middle" x="1046" y="-221" font-family="Arial" font-size="10.00">S&#45;2326</text>
</g>
<!-- C&#45;0762 -->
<g id="node8" class="node">
<title>C&#45;0762</title>
<ellipse fill="mediumseagreen" stroke="black" cx="1132" cy="-728.5" rx="72" ry="21.5"/>
<text text-anchor="middle" x="1132" y="-726" font-family="Arial" font-size="10.00">C&#45;0762</text>
</g>
<!-- R&#45;072 -->
<g id="node13" class="node">
<title>R&#45;072</title>
<polygon fill="mediumseagreen" stroke="black" points="1204,-618.59 1204,-636.41 1161.82,-649 1102.18,-649 1060,-636.41 1060,-618.59 1102.18,-606 1161.82,-606 1204,-618.59"/>
<text text-anchor="middle" x="1132" y="-625" font-family="Arial" font-size="10.00">R&#45;072</text>
</g>
<!-- C&#45;0762&#45;&gt;R&#45;072 -->
<g id="edge26" class="edge">
<title>C&#45;0762&#45;&gt;R&#45;072</title>
<path fill="none" stroke="#4d4d4d" d="M1132,-706.58C1132,-706.58 1132,-656.03 1132,-656.03"/>
<polygon fill="#4d4d4d" stroke="#4d4d4d" points="1134.45,-656.03 1132,-649.03 1129.55,-656.03 1134.45,-656.03"/>
</g>
<!-- S&#45;1606 -->
<g id="node9" class="node">
<title>S&#45;1606</title>
<polygon fill="mediumseagreen" stroke="black" points="1136,-346 1064,-324.5 1136,-303 1208,-324.5 1136,-346"/>
<text text-anchor="middle" x="1136" y="-322" font-family="Arial" font-size="10.00">S&#45;1606</text>
</g>
<!-- S&#45;1606&#45;&gt;C&#45;0124 -->
<g id="edge37" class="edge">
<title>S&#45;1606&#45;&gt;C&#45;0124</title>
<path fill="none" stroke="#4d4d4d" d="M1130,-304.73C1130,-255.8 1130,-133 1130,-133 1130,-133 1104.84,-133 1104.84,-133"/>
<polygon fill="#4d4d4d" stroke="#4d4d4d" points="1104.84,-130.55 1097.84,-133 1104.84,-135.45 1104.84,-130.55"/>
</g>
<!-- S&#45;1606&#45;&gt;S&#45;2326 -->
<g id="edge33" class="edge">
<title>S&#45;1606&#45;&gt;S&#45;2326</title>
<path fill="none" stroke="#4d4d4d" d="M1091,-316.23C1091,-316.23 1091,-238.6 1091,-238.6"/>
<polygon fill="#4d4d4d" stroke="#4d4d4d" points="1093.45,-238.6 1091,-231.6 1088.55,-238.6 1093.45,-238.6"/>
</g>
<!-- S&#45;1640 -->
<g id="node20" class="node">
<title>S&#45;1640</title>
<polygon fill="mediumseagreen" stroke="black" points="1226,-245 1154,-223.5 1226,-202 1298,-223.5 1226,-245"/>
<text text-anchor="middle" x="1226" y="-221" font-family="Arial" font-size="10.00">S&#45;1640</text>
</g>
<!-- S&#45;1606&#45;&gt;S&#45;1640 -->
<g id="edge32" class="edge">
<title>S&#45;1606&#45;&gt;S&#45;1640</title>
<path fill="none" stroke="#4d4d4d" d="M1167.5,-312.12C1167.5,-312.12 1167.5,-234.65 1167.5,-234.65"/>
<polygon fill="#4d4d4d" stroke="#4d4d4d" points="1169.95,-234.65 1167.5,-227.65 1165.05,-234.65 1169.95,-234.65"/>
</g>
<!-- C&#45;1138 -->
<g id="node22" class="node">
<title>C&#45;1138</title>
<ellipse fill="mediumseagreen" stroke="black" cx="1406" cy="-223.5" rx="72" ry="21.5"/>
<text text-anchor="middle" x="1406" y="-221" font-family="Arial" font-size="10.00">C&#45;1138</text>
</g>
<!-- S&#45;1606&#45;&gt;C&#45;1138 -->
<g id="edge35" class="edge">
<title>S&#45;1606&#45;&gt;C&#45;1138</title>
<path fill="none" stroke="#4d4d4d" d="M1181,-316.34C1181,-299.83 1181,-264 1181,-264 1181,-264 1361,-264 1361,-264 1361,-264 1361,-247.44 1361,-247.44"/>
<polygon fill="#4d4d4d" stroke="#4d4d4d" points="1363.45,-247.44 1361,-240.44 1358.55,-247.44 1363.45,-247.44"/>
</g>
<!-- S&#45;2455 -->
<g id="node33" class="node">
<title>S&#45;2455</title>
<polygon fill="mediumseagreen" stroke="black" points="1586,-245 1514,-223.5 1586,-202 1658,-223.5 1586,-245"/>
<text text-anchor="middle" x="1586" y="-221" font-family="Arial" font-size="10.00">S&#45;2455</text>
</g>
<!-- S&#45;1606&#45;&gt;S&#45;2455 -->
<g id="edge34" class="edge">
<title>S&#45;1606&#45;&gt;S&#45;2455</title>
<path fill="none" stroke="#4d4d4d" d="M1194.5,-320.37C1194.5,-309.87 1194.5,-283 1194.5,-283 1194.5,-283 1539,-283 1539,-283 1539,-283 1539,-238.28 1539,-238.28"/>
<polygon fill="#4d4d4d" stroke="#4d4d4d" points="1541.45,-238.28 1539,-231.28 1536.55,-238.28 1541.45,-238.28"/>
</g>
<!-- C&#45;0641 -->
<g id="node10" class="node">
<title>C&#45;0641</title>
<ellipse fill="tomato" stroke="black" cx="432" cy="-223.5" rx="72" ry="21.5"/>
<text text-anchor="middle" x="432" y="-221" font-family="Arial" font-size="10.00">C&#45;0641</text>
</g>
<!-- ext_circ_208_24_ -->
<g id="node40" class="node">
<title>ext_circ_208_24_</title>
<polygon fill="lightpink" stroke="darkorange" stroke-dasharray="5,2" points="504,-144 360,-144 360,-101 504,-101 504,-144"/>
<text text-anchor="middle" x="432" y="-125.5" font-family="Arial" font-size="10.00">Circuito:</text>
<text text-anchor="middle" x="432" y="-114.5" font-family="Arial" font-size="10.00">208&#45;24&#45;</text>
</g>
<!-- C&#45;0641&#45;&gt;ext_circ_208_24_ -->
<g id="edge40" class="edge">
<title>C&#45;0641&#45;&gt;ext_circ_208_24_</title>
<path fill="none" stroke="darkorange" stroke-dasharray="5,2" d="M432,-201.58C432,-201.58 432,-151.03 432,-151.03"/>
<polygon fill="darkorange" stroke="darkorange" points="434.45,-151.03 432,-144.03 429.55,-151.03 434.45,-151.03"/>
</g>
<!-- S&#45;2498 -->
<g id="node11" class="node">
<title>S&#45;2498</title>
<polygon fill="mediumseagreen" stroke="black" points="612,-245 540,-223.5 612,-202 684,-223.5 612,-245"/>
<text text-anchor="middle" x="612" y="-221" font-family="Arial" font-size="10.00">S&#45;2498</text>
</g>
<!-- R&#45;287 -->
<g id="node12" class="node">
<title>R&#45;287</title>
<polygon fill="tomato" stroke="black" points="1414,-113.59 1414,-131.41 1371.82,-144 1312.18,-144 1270,-131.41 1270,-113.59 1312.18,-101 1371.82,-101 1414,-113.59"/>
<text text-anchor="middle" x="1342" y="-120" font-family="Arial" font-size="10.00">R&#45;287</text>
</g>
<!-- R&#45;287&#45;&gt;ext_circ_205_23_ -->
<g id="edge42" class="edge">
<title>R&#45;287&#45;&gt;ext_circ_205_23_</title>
<path fill="none" stroke="darkorange" stroke-dasharray="5,2" d="M1269.76,-122C1237.66,-122 1207,-122 1207,-122 1207,-122 1207,-50.31 1207,-50.31"/>
<polygon fill="darkorange" stroke="darkorange" points="1209.45,-50.31 1207,-43.31 1204.55,-50.31 1209.45,-50.31"/>
</g>
<!-- R&#45;072&#45;&gt;C&#45;0764 -->
<g id="edge27" class="edge">
<title>R&#45;072&#45;&gt;C&#45;0764</title>
<path fill="none" stroke="#4d4d4d" d="M1134,-605.58C1134,-605.58 1134,-555.03 1134,-555.03"/>
<polygon fill="#4d4d4d" stroke="#4d4d4d" points="1136.45,-555.03 1134,-548.03 1131.55,-555.03 1136.45,-555.03"/>
</g>
<!-- S&#45;1038 -->
<g id="node14" class="node">
<title>S&#45;1038</title>
<polygon fill="mediumseagreen" stroke="black" points="558,-952 486,-930.5 558,-909 630,-930.5 558,-952"/>
<text text-anchor="middle" x="558" y="-928" font-family="Arial" font-size="10.00">S&#45;1038</text>
</g>
<!-- S&#45;2314 -->
<g id="node15" class="node">
<title>S&#45;2314</title>
<polygon fill="mediumseagreen" stroke="black" points="1312,-750 1240,-728.5 1312,-707 1384,-728.5 1312,-750"/>
<text text-anchor="middle" x="1312" y="-726" font-family="Arial" font-size="10.00">S&#45;2314</text>
</g>
<!-- S&#45;2291 -->
<g id="node29" class="node">
<title>S&#45;2291</title>
<polygon fill="mediumseagreen" stroke="black" points="1312,-649 1240,-627.5 1312,-606 1384,-627.5 1312,-649"/>
<text text-anchor="middle" x="1312" y="-625" font-family="Arial" font-size="10.00">S&#45;2291</text>
</g>
<!-- S&#45;2314&#45;&gt;S&#45;2291 -->
<g id="edge23" class="edge">
<title>S&#45;2314&#45;&gt;S&#45;2291</title>
<path fill="none" stroke="#4d4d4d" d="M1312,-706.58C1312,-706.58 1312,-656.03 1312,-656.03"/>
<polygon fill="#4d4d4d" stroke="#4d4d4d" points="1314.45,-656.03 1312,-649.03 1309.55,-656.03 1314.45,-656.03"/>
</g>
<!-- C&#45;0763 -->
<g id="node16" class="node">
<title>C&#45;0763</title>
<ellipse fill="tomato" stroke="black" cx="1492" cy="-728.5" rx="72" ry="21.5"/>
<text text-anchor="middle" x="1492" y="-726" font-family="Arial" font-size="10.00">C&#45;0763</text>
</g>
<!-- C&#45;0763&#45;&gt;C&#45;0764 -->
<g id="edge41" class="edge">
<title>C&#45;0763&#45;&gt;C&#45;0764</title>
<path fill="none" stroke="blue" stroke-dasharray="5,2" d="M1449,-711.15C1449,-663.3 1449,-533 1449,-533 1449,-533 1211.69,-533 1211.69,-533"/>
<polygon fill="blue" stroke="blue" points="1211.69,-530.55 1204.69,-533 1211.69,-535.45 1211.69,-530.55"/>
</g>
<!-- S&#45;1605 -->
<g id="node17" class="node">
<title>S&#45;1605</title>
<polygon fill="mediumseagreen" stroke="black" points="1316,-346 1244,-324.5 1316,-303 1388,-324.5 1316,-346"/>
<text text-anchor="middle" x="1316" y="-322" font-family="Arial" font-size="10.00">S&#45;1605</text>
</g>
<!-- S&#45;1619 -->
<g id="node18" class="node">
<title>S&#45;1619</title>
<polygon fill="mediumseagreen" stroke="black" points="738,-952 666,-930.5 738,-909 810,-930.5 738,-952"/>
<text text-anchor="middle" x="738" y="-928" font-family="Arial" font-size="10.00">S&#45;1619</text>
</g>
<!-- S&#45;1340 -->
<g id="node19" class="node">
<title>S&#45;1340</title>
<polygon fill="mediumseagreen" stroke="black" points="918,-952 846,-930.5 918,-909 990,-930.5 918,-952"/>
<text text-anchor="middle" x="918" y="-928" font-family="Arial" font-size="10.00">S&#45;1340</text>
</g>
<!-- C&#45;1127 -->
<g id="node21" class="node">
<title>C&#45;1127</title>
<ellipse fill="mediumseagreen" stroke="black" cx="792" cy="-223.5" rx="72" ry="21.5"/>
<text text-anchor="middle" x="792" y="-221" font-family="Arial" font-size="10.00">C&#45;1127</text>
</g>
<!-- R&#45;281 -->
<g id="node34" class="node">
<title>R&#45;281</title>
<polygon fill="tomato" stroke="black" points="864,-113.59 864,-131.41 821.82,-144 762.18,-144 720,-131.41 720,-113.59 762.18,-101 821.82,-101 864,-113.59"/>
<text text-anchor="middle" x="792" y="-120" font-family="Arial" font-size="10.00">R&#45;281</text>
</g>
<!-- C&#45;1127&#45;&gt;R&#45;281 -->
<g id="edge14" class="edge">
<title>C&#45;1127&#45;&gt;R&#45;281</title>
<path fill="none" stroke="#4d4d4d" d="M792,-201.58C792,-201.58 792,-151.03 792,-151.03"/>
<polygon fill="#4d4d4d" stroke="#4d4d4d" points="794.45,-151.03 792,-144.03 789.55,-151.03 794.45,-151.03"/>
</g>
<!-- C&#45;1138&#45;&gt;R&#45;287 -->
<g id="edge36" class="edge">
<title>C&#45;1138&#45;&gt;R&#45;287</title>
<path fill="none" stroke="#4d4d4d" d="M1374,-204.03C1374,-204.03 1374,-150.66 1374,-150.66"/>
<polygon fill="#4d4d4d" stroke="#4d4d4d" points="1376.45,-150.66 1374,-143.66 1371.55,-150.66 1376.45,-150.66"/>
</g>
<!-- C&#45;0188 -->
<g id="node23" class="node">
<title>C&#45;0188</title>
<ellipse fill="mediumseagreen" stroke="black" cx="828" cy="-1031.5" rx="72" ry="21.5"/>
<text text-anchor="middle" x="828" y="-1029" font-family="Arial" font-size="10.00">C&#45;0188</text>
</g>
<!-- C&#45;0188&#45;&gt;S&#45;1038 -->
<g id="edge3" class="edge">
<title>C&#45;0188&#45;&gt;S&#45;1038</title>
<path fill="none" stroke="#4d4d4d" d="M756,-1031C676.02,-1031 558,-1031 558,-1031 558,-1031 558,-959.31 558,-959.31"/>
<polygon fill="#4d4d4d" stroke="#4d4d4d" points="560.45,-959.31 558,-952.31 555.55,-959.31 560.45,-959.31"/>
</g>
<!-- C&#45;0188&#45;&gt;S&#45;1619 -->
<g id="edge4" class="edge">
<title>C&#45;0188&#45;&gt;S&#45;1619</title>
<path fill="none" stroke="#4d4d4d" d="M783,-1014.37C783,-1014.37 783,-945.78 783,-945.78"/>
<polygon fill="#4d4d4d" stroke="#4d4d4d" points="785.45,-945.78 783,-938.78 780.55,-945.78 785.45,-945.78"/>
</g>
<!-- C&#45;0188&#45;&gt;S&#45;1340 -->
<g id="edge2" class="edge">
<title>C&#45;0188&#45;&gt;S&#45;1340</title>
<path fill="none" stroke="#4d4d4d" d="M873,-1014.37C873,-1014.37 873,-945.78 873,-945.78"/>
<polygon fill="#4d4d4d" stroke="#4d4d4d" points="875.45,-945.78 873,-938.78 870.55,-945.78 875.45,-945.78"/>
</g>
<!-- C&#45;0456 -->
<g id="node38" class="node">
<title>C&#45;0456</title>
<ellipse fill="mediumseagreen" stroke="black" cx="1098" cy="-930.5" rx="72" ry="21.5"/>
<text text-anchor="middle" x="1098" y="-928" font-family="Arial" font-size="10.00">C&#45;0456</text>
</g>
<!-- C&#45;0188&#45;&gt;C&#45;0456 -->
<g id="edge5" class="edge">
<title>C&#45;0188&#45;&gt;C&#45;0456</title>
<path fill="none" stroke="#4d4d4d" d="M900,-1031C979.98,-1031 1098,-1031 1098,-1031 1098,-1031 1098,-959.31 1098,-959.31"/>
<polygon fill="#4d4d4d" stroke="#4d4d4d" points="1100.45,-959.31 1098,-952.31 1095.55,-959.31 1100.45,-959.31"/>
</g>
<!-- C&#45;0457&#45;&gt;C&#45;0458 -->
<g id="edge11" class="edge">
<title>C&#45;0457&#45;&gt;C&#45;0458</title>
<path fill="none" stroke="#4d4d4d" d="M472,-505.08C472,-505.08 472,-453.54 472,-453.54"/>
<polygon fill="#4d4d4d" stroke="#4d4d4d" points="474.45,-453.54 472,-446.54 469.55,-453.54 474.45,-453.54"/>
</g>
<!-- S&#45;2101&#45;&gt;S&#45;992 -->
<g id="edge16" class="edge">
<title>S&#45;2101&#45;&gt;S&#45;992</title>
<path fill="none" stroke="#4d4d4d" d="M389.6,-331C288.82,-331 72,-331 72,-331 72,-331 72,-252.25 72,-252.25"/>
<polygon fill="#4d4d4d" stroke="#4d4d4d" points="74.45,-252.25 72,-245.25 69.55,-252.25 74.45,-252.25"/>
</g>
<!-- S&#45;2101&#45;&gt;S&#45;2499 -->
<g id="edge17" class="edge">
<title>S&#45;2101&#45;&gt;S&#45;2499</title>
<path fill="none" stroke="#4d4d4d" d="M393.04,-317C337.36,-317 252,-317 252,-317 252,-317 252,-252.19 252,-252.19"/>
<polygon fill="#4d4d4d" stroke="#4d4d4d" points="254.45,-252.19 252,-245.19 249.55,-252.19 254.45,-252.19"/>
</g>
<!-- S&#45;2101&#45;&gt;C&#45;0641 -->
<g id="edge15" class="edge">
<title>S&#45;2101&#45;&gt;C&#45;0641</title>
<path fill="none" stroke="#4d4d4d" d="M436,-304.06C436,-304.06 436,-252.31 436,-252.31"/>
<polygon fill="#4d4d4d" stroke="#4d4d4d" points="438.45,-252.31 436,-245.31 433.55,-252.31 438.45,-252.31"/>
</g>
<!-- S&#45;2101&#45;&gt;S&#45;2498 -->
<g id="edge18" class="edge">
<title>S&#45;2101&#45;&gt;S&#45;2498</title>
<path fill="none" stroke="#4d4d4d" d="M508,-323.07C508,-310.73 508,-223 508,-223 508,-223 534.48,-223 534.48,-223"/>
<polygon fill="#4d4d4d" stroke="#4d4d4d" points="534.48,-225.45 541.48,-223 534.48,-220.55 534.48,-225.45"/>
</g>
<!-- S&#45;2101&#45;&gt;C&#45;1127 -->
<g id="edge13" class="edge">
<title>S&#45;2101&#45;&gt;C&#45;1127</title>
<path fill="none" stroke="#4d4d4d" d="M510.69,-324C607.5,-324 769.5,-324 769.5,-324 769.5,-324 769.5,-251.32 769.5,-251.32"/>
<polygon fill="#4d4d4d" stroke="#4d4d4d" points="771.95,-251.32 769.5,-244.32 767.05,-251.32 771.95,-251.32"/>
</g>
<!-- C&#45;0387 -->
<g id="node26" class="node">
<title>C&#45;0387</title>
<ellipse fill="mediumseagreen" stroke="black" cx="918" cy="-829.5" rx="72" ry="21.5"/>
<text text-anchor="middle" x="918" y="-827" font-family="Arial" font-size="10.00">C&#45;0387</text>
</g>
<!-- R&#45;130 -->
<g id="node36" class="node">
<title>R&#45;130</title>
<polygon fill="mediumseagreen" stroke="black" points="956,-719.59 956,-737.41 913.82,-750 854.18,-750 812,-737.41 812,-719.59 854.18,-707 913.82,-707 956,-719.59"/>
<text text-anchor="middle" x="884" y="-726" font-family="Arial" font-size="10.00">R&#45;130</text>
</g>
<!-- C&#45;0387&#45;&gt;R&#45;130 -->
<g id="edge8" class="edge">
<title>C&#45;0387&#45;&gt;R&#45;130</title>
<path fill="none" stroke="#4d4d4d" d="M901,-808.57C901,-808.57 901,-757.1 901,-757.1"/>
<polygon fill="#4d4d4d" stroke="#4d4d4d" points="903.45,-757.1 901,-750.1 898.55,-757.1 903.45,-757.1"/>
</g>
<!-- C&#45;0388 -->
<g id="node27" class="node">
<title>C&#45;0388</title>
<ellipse fill="mediumseagreen" stroke="black" cx="747" cy="-627.5" rx="72" ry="21.5"/>
<text text-anchor="middle" x="747" y="-625" font-family="Arial" font-size="10.00">C&#45;0388</text>
</g>
<!-- C&#45;0388&#45;&gt;C&#45;0457 -->
<g id="edge10" class="edge">
<title>C&#45;0388&#45;&gt;C&#45;0457</title>
<path fill="none" stroke="#4d4d4d" d="M679.5,-619.7C679.5,-594.82 679.5,-519 679.5,-519 679.5,-519 562.52,-519 562.52,-519"/>
<polygon fill="#4d4d4d" stroke="#4d4d4d" points="562.52,-516.55 555.52,-519 562.52,-521.45 562.52,-516.55"/>
</g>
<!-- S&#45;2408 -->
<g id="node28" class="node">
<title>S&#45;2408</title>
<polygon fill="mediumseagreen" stroke="black" points="1098,-851 1026,-829.5 1098,-808 1170,-829.5 1098,-851"/>
<text text-anchor="middle" x="1098" y="-827" font-family="Arial" font-size="10.00">S&#45;2408</text>
</g>
<!-- S&#45;838&#45;&gt;S&#45;1606 -->
<g id="edge31" class="edge">
<title>S&#45;838&#45;&gt;S&#45;1606</title>
<path fill="none" stroke="#4d4d4d" d="M1136,-403.58C1136,-403.58 1136,-353.03 1136,-353.03"/>
<polygon fill="#4d4d4d" stroke="#4d4d4d" points="1138.45,-353.03 1136,-346.03 1133.55,-353.03 1138.45,-353.03"/>
</g>
<!-- S&#45;838&#45;&gt;S&#45;1605 -->
<g id="edge30" class="edge">
<title>S&#45;838&#45;&gt;S&#45;1605</title>
<path fill="none" stroke="#4d4d4d" d="M1206.61,-425C1216.84,-425 1224,-425 1224,-425 1224,-425 1224,-324 1224,-324 1224,-324 1238.34,-324 1238.34,-324"/>
<polygon fill="#4d4d4d" stroke="#4d4d4d" points="1238.34,-326.45 1245.34,-324 1238.34,-321.55 1238.34,-326.45"/>
</g>
<!-- C&#45;0677 -->
<g id="node31" class="node">
<title>C&#45;0677</title>
<ellipse fill="mediumseagreen" stroke="black" cx="1278" cy="-829.5" rx="72" ry="21.5"/>
<text text-anchor="middle" x="1278" y="-827" font-family="Arial" font-size="10.00">C&#45;0677</text>
</g>
<!-- C&#45;0677&#45;&gt;C&#45;0762 -->
<g id="edge25" class="edge">
<title>C&#45;0677&#45;&gt;C&#45;0762</title>
<path fill="none" stroke="#4d4d4d" d="M1205.86,-829C1194.81,-829 1187,-829 1187,-829 1187,-829 1187,-749.47 1187,-749.47"/>
<polygon fill="#4d4d4d" stroke="#4d4d4d" points="1189.45,-749.47 1187,-742.47 1184.55,-749.47 1189.45,-749.47"/>
</g>
<!-- C&#45;0677&#45;&gt;S&#45;2314 -->
<g id="edge22" class="edge">
<title>C&#45;0677&#45;&gt;S&#45;2314</title>
<path fill="none" stroke="#4d4d4d" d="M1276.67,-807.58C1276.67,-807.58 1276.67,-746.48 1276.67,-746.48"/>
<polygon fill="#4d4d4d" stroke="#4d4d4d" points="1279.12,-746.48 1276.67,-739.48 1274.22,-746.48 1279.12,-746.48"/>
</g>
<!-- C&#45;0677&#45;&gt;C&#45;0763 -->
<g id="edge24" class="edge">
<title>C&#45;0677&#45;&gt;C&#45;0763</title>
<path fill="none" stroke="#4d4d4d" d="M1313.33,-810.7C1313.33,-796.34 1313.33,-779 1313.33,-779 1313.33,-779 1475,-779 1475,-779 1475,-779 1475,-756.62 1475,-756.62"/>
<polygon fill="#4d4d4d" stroke="#4d4d4d" points="1477.45,-756.62 1475,-749.62 1472.55,-756.62 1477.45,-756.62"/>
</g>
<!-- ext_circ_208_26_ -->
<g id="node39" class="node">
<title>ext_circ_208_26_</title>
<polygon fill="lightpink" stroke="darkorange" stroke-dasharray="5,2" points="864,-43 720,-43 720,0 864,0 864,-43"/>
<text text-anchor="middle" x="792" y="-24.5" font-family="Arial" font-size="10.00">Circuito:</text>
<text text-anchor="middle" x="792" y="-13.5" font-family="Arial" font-size="10.00">208&#45;26&#45;</text>
</g>
<!-- R&#45;281&#45;&gt;ext_circ_208_26_ -->
<g id="edge39" class="edge">
<title>R&#45;281&#45;&gt;ext_circ_208_26_</title>
<path fill="none" stroke="darkorange" stroke-dasharray="5,2" d="M792,-100.58C792,-100.58 792,-50.03 792,-50.03"/>
<polygon fill="darkorange" stroke="darkorange" points="794.45,-50.03 792,-43.03 789.55,-50.03 794.45,-50.03"/>
</g>
<!-- 208&#45;22&#45; -->
<g id="node35" class="node">
<title>208&#45;22&#45;</title>
<polygon fill="gold" stroke="black" points="900,-1127.59 900,-1145.41 857.82,-1158 798.18,-1158 756,-1145.41 756,-1127.59 798.18,-1115 857.82,-1115 900,-1127.59"/>
<polygon fill="none" stroke="black" points="904,-1124.61 904,-1148.39 858.41,-1162 797.59,-1162 752,-1148.39 752,-1124.61 797.59,-1111 858.41,-1111 904,-1124.61"/>
<text text-anchor="middle" x="828" y="-1134" font-family="Arial" font-size="10.00">208&#45;22&#45;</text>
</g>
<!-- 208&#45;22&#45;&#45;&gt;C&#45;0188 -->
<g id="edge1" class="edge">
<title>208&#45;22&#45;&#45;&gt;C&#45;0188</title>
<path fill="none" stroke="#4d4d4d" d="M828,-1110.81C828,-1110.81 828,-1060.03 828,-1060.03"/>
<polygon fill="#4d4d4d" stroke="#4d4d4d" points="830.45,-1060.03 828,-1053.03 825.55,-1060.03 830.45,-1060.03"/>
</g>
<!-- R&#45;130&#45;&gt;C&#45;0388 -->
<g id="edge9" class="edge">
<title>R&#45;130&#45;&gt;C&#45;0388</title>
<path fill="none" stroke="#4d4d4d" d="M815.5,-718.45C815.5,-718.45 815.5,-641.2 815.5,-641.2"/>
<polygon fill="#4d4d4d" stroke="#4d4d4d" points="817.95,-641.2 815.5,-634.2 813.05,-641.2 817.95,-641.2"/>
</g>
<!-- S&#45;1621 -->
<g id="node37" class="node">
<title>S&#45;1621</title>
<polygon fill="mediumseagreen" stroke="black" points="1458,-851 1386,-829.5 1458,-808 1530,-829.5 1458,-851"/>
<text text-anchor="middle" x="1458" y="-827" font-family="Arial" font-size="10.00">S&#45;1621</text>
</g>
<!-- C&#45;0456&#45;&gt;C&#45;0386 -->
<g id="edge7" class="edge">
<title>C&#45;0456&#45;&gt;C&#45;0386</title>
<path fill="none" stroke="#4d4d4d" d="M1074,-909.96C1074,-895.98 1074,-880 1074,-880 1074,-880 738,-880 738,-880 738,-880 738,-858.21 738,-858.21"/>
<polygon fill="#4d4d4d" stroke="#4d4d4d" points="740.45,-858.21 738,-851.21 735.55,-858.21 740.45,-858.21"/>
</g>
<!-- C&#45;0456&#45;&gt;C&#45;0387 -->
<g id="edge6" class="edge">
<title>C&#45;0456&#45;&gt;C&#45;0387</title>
<path fill="none" stroke="#4d4d4d" d="M1025.78,-930C1015.32,-930 1008,-930 1008,-930 1008,-930 1008,-829 1008,-829 1008,-829 997.22,-829 997.22,-829"/>
<polygon fill="#4d4d4d" stroke="#4d4d4d" points="997.22,-826.55 990.22,-829 997.22,-831.45 997.22,-826.55"/>
</g>
<!-- C&#45;0456&#45;&gt;S&#45;2408 -->
<g id="edge19" class="edge">
<title>C&#45;0456&#45;&gt;S&#45;2408</title>
<path fill="none" stroke="#4d4d4d" d="M1122,-910.06C1122,-910.06 1122,-851.03 1122,-851.03"/>
<polygon fill="#4d4d4d" stroke="#4d4d4d" points="1124.45,-851.03 1122,-844.03 1119.55,-851.03 1124.45,-851.03"/>
</g>
<!-- C&#45;0456&#45;&gt;C&#45;0677 -->
<g id="edge21" class="edge">
<title>C&#45;0456&#45;&gt;C&#45;0677</title>
<path fill="none" stroke="#4d4d4d" d="M1165.54,-923C1216.61,-923 1278,-923 1278,-923 1278,-923 1278,-858.19 1278,-858.19"/>
<polygon fill="#4d4d4d" stroke="#4d4d4d" points="1280.45,-858.19 1278,-851.19 1275.55,-858.19 1280.45,-858.19"/>
</g>
<!-- C&#45;0456&#45;&gt;S&#45;1621 -->
<g id="edge20" class="edge">
<title>C&#45;0456&#45;&gt;S&#45;1621</title>
<path fill="none" stroke="#4d4d4d" d="M1166.99,-937C1271.52,-937 1458,-937 1458,-937 1458,-937 1458,-858.25 1458,-858.25"/>
<polygon fill="#4d4d4d" stroke="#4d4d4d" points="1460.45,-858.25 1458,-851.25 1455.55,-858.25 1460.45,-858.25"/>
</g>
</g>
</svg>
