<?xml version="1.0" encoding="UTF-8" standalone="no"?>
<!DOCTYPE svg PUBLIC "-//W3C//DTD SVG 1.1//EN"
 "http://www.w3.org/Graphics/SVG/1.1/DTD/svg11.dtd">
<!-- Generated by graphviz version 2.50.0 (0)
 -->
<!-- Title: Grafo_Circuito_208_22_ Pages: 1 -->
<svg width="1384pt" height="898pt"
 viewBox="0.00 0.00 1384.00 898.00" xmlns="http://www.w3.org/2000/svg" xmlns:xlink="http://www.w3.org/1999/xlink">
<g id="graph0" class="graph" transform="scale(1 1) rotate(0) translate(4 894)">
<title>Grafo_Circuito_208_22_</title>
<polygon fill="white" stroke="transparent" points="-4,4 -4,-894 1380,-894 1380,4 -4,4"/>
<!-- C&#45;1138 -->
<g id="node1" class="node">
<title>C&#45;1138</title>
<ellipse fill="mediumseagreen" stroke="black" cx="68.5" cy="-18" rx="68.5" ry="18"/>
<text text-anchor="middle" x="68.5" y="-16.1" font-family="Helvetica,sans-Serif" font-size="8.00">C&#45;1138</text>
</g>
<!-- C&#45;0458 -->
<g id="node2" class="node">
<title>C&#45;0458</title>
<ellipse fill="mediumseagreen" stroke="black" cx="968.5" cy="-206" rx="68.5" ry="18"/>
<text text-anchor="middle" x="968.5" y="-204.1" font-family="Helvetica,sans-Serif" font-size="8.00">C&#45;0458</text>
</g>
<!-- S&#45;2101 -->
<g id="node17" class="node">
<title>S&#45;2101</title>
<polygon fill="mediumseagreen" stroke="black" points="968.5,-130 900,-112 968.5,-94 1037,-112 968.5,-130"/>
<text text-anchor="middle" x="968.5" y="-110.1" font-family="Helvetica,sans-Serif" font-size="8.00">S&#45;2101</text>
</g>
<!-- C&#45;0458&#45;&gt;S&#45;2101 -->
<g id="edge12" class="edge">
<title>C&#45;0458&#45;&gt;S&#45;2101</title>
<path fill="none" stroke="dimgray" stroke-width="0.8" d="M968.5,-187.88C968.5,-187.88 968.5,-137.07 968.5,-137.07"/>
<polygon fill="dimgray" stroke="dimgray" stroke-width="0.8" points="970.95,-137.07 968.5,-130.07 966.05,-137.07 970.95,-137.07"/>
</g>
<!-- S&#45;2291 -->
<g id="node3" class="node">
<title>S&#45;2291</title>
<polygon fill="mediumseagreen" stroke="black" points="208.5,-412 140,-394 208.5,-376 277,-394 208.5,-412"/>
<text text-anchor="middle" x="208.5" y="-392.1" font-family="Helvetica,sans-Serif" font-size="8.00">S&#45;2291</text>
</g>
<!-- R&#45;072 -->
<g id="node4" class="node">
<title>R&#45;072</title>
<polygon fill="mediumseagreen" stroke="black" points="525,-386.54 525,-401.46 484.87,-412 428.13,-412 388,-401.46 388,-386.54 428.13,-376 484.87,-376 525,-386.54"/>
<text text-anchor="middle" x="456.5" y="-392.1" font-family="Helvetica,sans-Serif" font-size="8.00">R&#45;072</text>
</g>
<!-- C&#45;0764 -->
<g id="node22" class="node">
<title>C&#45;0764</title>
<ellipse fill="mediumseagreen" stroke="black" cx="456.5" cy="-300" rx="68.5" ry="18"/>
<text text-anchor="middle" x="456.5" y="-298.1" font-family="Helvetica,sans-Serif" font-size="8.00">C&#45;0764</text>
</g>
<!-- R&#45;072&#45;&gt;C&#45;0764 -->
<g id="edge25" class="edge">
<title>R&#45;072&#45;&gt;C&#45;0764</title>
<path fill="none" stroke="dimgray" stroke-width="0.8" d="M456.5,-375.88C456.5,-375.88 456.5,-325.07 456.5,-325.07"/>
<polygon fill="dimgray" stroke="dimgray" stroke-width="0.8" points="458.95,-325.07 456.5,-318.07 454.05,-325.07 458.95,-325.07"/>
</g>
<!-- R&#45;130 -->
<g id="node5" class="node">
<title>R&#45;130</title>
<polygon fill="mediumseagreen" stroke="black" points="1037,-480.54 1037,-495.46 996.87,-506 940.13,-506 900,-495.46 900,-480.54 940.13,-470 996.87,-470 1037,-480.54"/>
<text text-anchor="middle" x="968.5" y="-486.1" font-family="Helvetica,sans-Serif" font-size="8.00">R&#45;130</text>
</g>
<!-- C&#45;0388 -->
<g id="node10" class="node">
<title>C&#45;0388</title>
<ellipse fill="mediumseagreen" stroke="black" cx="968.5" cy="-394" rx="68.5" ry="18"/>
<text text-anchor="middle" x="968.5" y="-392.1" font-family="Helvetica,sans-Serif" font-size="8.00">C&#45;0388</text>
</g>
<!-- R&#45;130&#45;&gt;C&#45;0388 -->
<g id="edge9" class="edge">
<title>R&#45;130&#45;&gt;C&#45;0388</title>
<path fill="none" stroke="dimgray" stroke-width="0.8" d="M968.5,-469.88C968.5,-469.88 968.5,-419.07 968.5,-419.07"/>
<polygon fill="dimgray" stroke="dimgray" stroke-width="0.8" points="970.95,-419.07 968.5,-412.07 966.05,-419.07 970.95,-419.07"/>
</g>
<!-- S&#45;838 -->
<g id="node6" class="node">
<title>S&#45;838</title>
<polygon fill="mediumseagreen" stroke="black" points="419.5,-224 351,-206 419.5,-188 488,-206 419.5,-224"/>
<text text-anchor="middle" x="419.5" y="-204.1" font-family="Helvetica,sans-Serif" font-size="8.00">S&#45;838</text>
</g>
<!-- S&#45;1606 -->
<g id="node13" class="node">
<title>S&#45;1606</title>
<polygon fill="mediumseagreen" stroke="black" points="400.5,-130 332,-112 400.5,-94 469,-112 400.5,-130"/>
<text text-anchor="middle" x="400.5" y="-110.1" font-family="Helvetica,sans-Serif" font-size="8.00">S&#45;1606</text>
</g>
<!-- S&#45;838&#45;&gt;S&#45;1606 -->
<g id="edge29" class="edge">
<title>S&#45;838&#45;&gt;S&#45;1606</title>
<path fill="none" stroke="dimgray" stroke-width="0.8" d="M410,-190.48C410,-190.48 410,-134.55 410,-134.55"/>
<polygon fill="dimgray" stroke="dimgray" stroke-width="0.8" points="412.45,-134.55 410,-127.55 407.55,-134.55 412.45,-134.55"/>
</g>
<!-- S&#45;1605 -->
<g id="node28" class="node">
<title>S&#45;1605</title>
<polygon fill="mediumseagreen" stroke="black" points="573.5,-130 505,-112 573.5,-94 642,-112 573.5,-130"/>
<text text-anchor="middle" x="573.5" y="-110.1" font-family="Helvetica,sans-Serif" font-size="8.00">S&#45;1605</text>
</g>
<!-- S&#45;838&#45;&gt;S&#45;1605 -->
<g id="edge28" class="edge">
<title>S&#45;838&#45;&gt;S&#45;1605</title>
<path fill="none" stroke="dimgray" stroke-width="0.8" d="M465.42,-212C488.38,-212 511.33,-212 511.33,-212 511.33,-212 511.33,-120.74 511.33,-120.74"/>
<polygon fill="dimgray" stroke="dimgray" stroke-width="0.8" points="513.78,-120.74 511.33,-113.74 508.88,-120.74 513.78,-120.74"/>
</g>
<!-- C&#45;0386 -->
<g id="node7" class="node">
<title>C&#45;0386</title>
<ellipse fill="tomato" stroke="black" cx="276.5" cy="-582" rx="68.5" ry="18"/>
<text text-anchor="middle" x="276.5" y="-580.1" font-family="Helvetica,sans-Serif" font-size="8.00">C&#45;0386</text>
</g>
<!-- C&#45;0457 -->
<g id="node18" class="node">
<title>C&#45;0457</title>
<ellipse fill="mediumseagreen" stroke="black" cx="968.5" cy="-300" rx="68.5" ry="18"/>
<text text-anchor="middle" x="968.5" y="-298.1" font-family="Helvetica,sans-Serif" font-size="8.00">C&#45;0457</text>
</g>
<!-- C&#45;0386&#45;&gt;C&#45;0457 -->
<g id="edge34" class="edge">
<title>C&#45;0386&#45;&gt;C&#45;0457</title>
<path fill="none" stroke="blue" stroke-width="0.8" stroke-dasharray="5,2" d="M338.5,-574.18C338.5,-533.41 338.5,-347 338.5,-347 338.5,-347 945.67,-347 945.67,-347 945.67,-347 945.67,-324.23 945.67,-324.23"/>
<polygon fill="blue" stroke="blue" stroke-width="0.8" points="948.12,-324.23 945.67,-317.23 943.22,-324.23 948.12,-324.23"/>
</g>
<!-- S&#45;2455 -->
<g id="node8" class="node">
<title>S&#45;2455</title>
<polygon fill="mediumseagreen" stroke="black" points="241.5,-36 173,-18 241.5,0 310,-18 241.5,-36"/>
<text text-anchor="middle" x="241.5" y="-16.1" font-family="Helvetica,sans-Serif" font-size="8.00">S&#45;2455</text>
</g>
<!-- C&#45;0677 -->
<g id="node9" class="node">
<title>C&#45;0677</title>
<ellipse fill="mediumseagreen" stroke="black" cx="449.5" cy="-582" rx="68.5" ry="18"/>
<text text-anchor="middle" x="449.5" y="-580.1" font-family="Helvetica,sans-Serif" font-size="8.00">C&#45;0677</text>
</g>
<!-- C&#45;0762 -->
<g id="node11" class="node">
<title>C&#45;0762</title>
<ellipse fill="mediumseagreen" stroke="black" cx="449.5" cy="-488" rx="68.5" ry="18"/>
<text text-anchor="middle" x="449.5" y="-486.1" font-family="Helvetica,sans-Serif" font-size="8.00">C&#45;0762</text>
</g>
<!-- C&#45;0677&#45;&gt;C&#45;0762 -->
<g id="edge22" class="edge">
<title>C&#45;0677&#45;&gt;C&#45;0762</title>
<path fill="none" stroke="dimgray" stroke-width="0.8" d="M449.5,-563.88C449.5,-563.88 449.5,-513.07 449.5,-513.07"/>
<polygon fill="dimgray" stroke="dimgray" stroke-width="0.8" points="451.95,-513.07 449.5,-506.07 447.05,-513.07 451.95,-513.07"/>
</g>
<!-- C&#45;0763 -->
<g id="node30" class="node">
<title>C&#45;0763</title>
<ellipse fill="tomato" stroke="black" cx="622.5" cy="-488" rx="68.5" ry="18"/>
<text text-anchor="middle" x="622.5" y="-486.1" font-family="Helvetica,sans-Serif" font-size="8.00">C&#45;0763</text>
</g>
<!-- C&#45;0677&#45;&gt;C&#45;0763 -->
<g id="edge23" class="edge">
<title>C&#45;0677&#45;&gt;C&#45;0763</title>
<path fill="none" stroke="dimgray" stroke-width="0.8" d="M514.33,-576C518.75,-576 521.5,-576 521.5,-576 521.5,-576 521.5,-488 521.5,-488 521.5,-488 546.73,-488 546.73,-488"/>
<polygon fill="dimgray" stroke="dimgray" stroke-width="0.8" points="546.73,-490.45 553.73,-488 546.73,-485.55 546.73,-490.45"/>
</g>
<!-- S&#45;2314 -->
<g id="node33" class="node">
<title>S&#45;2314</title>
<polygon fill="mediumseagreen" stroke="black" points="238.5,-506 170,-488 238.5,-470 307,-488 238.5,-506"/>
<text text-anchor="middle" x="238.5" y="-486.1" font-family="Helvetica,sans-Serif" font-size="8.00">S&#45;2314</text>
</g>
<!-- C&#45;0677&#45;&gt;S&#45;2314 -->
<g id="edge20" class="edge">
<title>C&#45;0677&#45;&gt;S&#45;2314</title>
<path fill="none" stroke="dimgray" stroke-width="0.8" d="M380.93,-582C372.07,-582 366,-582 366,-582 366,-582 366,-488 366,-488 366,-488 314.1,-488 314.1,-488"/>
<polygon fill="dimgray" stroke="dimgray" stroke-width="0.8" points="314.1,-485.55 307.1,-488 314.1,-490.45 314.1,-485.55"/>
</g>
<!-- C&#45;0388&#45;&gt;C&#45;0457 -->
<g id="edge10" class="edge">
<title>C&#45;0388&#45;&gt;C&#45;0457</title>
<path fill="none" stroke="dimgray" stroke-width="0.8" d="M991.33,-376.76C991.33,-376.76 991.33,-324.13 991.33,-324.13"/>
<polygon fill="dimgray" stroke="dimgray" stroke-width="0.8" points="993.78,-324.13 991.33,-317.13 988.88,-324.13 993.78,-324.13"/>
</g>
<!-- C&#45;0762&#45;&gt;R&#45;072 -->
<g id="edge24" class="edge">
<title>C&#45;0762&#45;&gt;R&#45;072</title>
<path fill="none" stroke="dimgray" stroke-width="0.8" d="M453,-469.88C453,-469.88 453,-419.07 453,-419.07"/>
<polygon fill="dimgray" stroke="dimgray" stroke-width="0.8" points="455.45,-419.07 453,-412.07 450.55,-419.07 455.45,-419.07"/>
</g>
<!-- S&#45;2499 -->
<g id="node12" class="node">
<title>S&#45;2499</title>
<polygon fill="mediumseagreen" stroke="black" points="788.5,-36 720,-18 788.5,0 857,-18 788.5,-36"/>
<text text-anchor="middle" x="788.5" y="-16.1" font-family="Helvetica,sans-Serif" font-size="8.00">S&#45;2499</text>
</g>
<!-- S&#45;1606&#45;&gt;C&#45;1138 -->
<g id="edge33" class="edge">
<title>S&#45;1606&#45;&gt;C&#45;1138</title>
<path fill="none" stroke="dimgray" stroke-width="0.8" d="M331.71,-112C234.46,-112 68.5,-112 68.5,-112 68.5,-112 68.5,-43.12 68.5,-43.12"/>
<polygon fill="dimgray" stroke="dimgray" stroke-width="0.8" points="70.95,-43.12 68.5,-36.12 66.05,-43.12 70.95,-43.12"/>
</g>
<!-- S&#45;1606&#45;&gt;S&#45;2455 -->
<g id="edge32" class="edge">
<title>S&#45;1606&#45;&gt;S&#45;2455</title>
<path fill="none" stroke="dimgray" stroke-width="0.8" d="M339,-110.04C339,-96.54 339,-18 339,-18 339,-18 317.01,-18 317.01,-18"/>
<polygon fill="dimgray" stroke="dimgray" stroke-width="0.8" points="317.01,-15.55 310.01,-18 317.01,-20.45 317.01,-15.55"/>
</g>
<!-- S&#45;1640 -->
<g id="node14" class="node">
<title>S&#45;1640</title>
<polygon fill="mediumseagreen" stroke="black" points="414.5,-36 346,-18 414.5,0 483,-18 414.5,-36"/>
<text text-anchor="middle" x="414.5" y="-16.1" font-family="Helvetica,sans-Serif" font-size="8.00">S&#45;1640</text>
</g>
<!-- S&#45;1606&#45;&gt;S&#45;1640 -->
<g id="edge30" class="edge">
<title>S&#45;1606&#45;&gt;S&#45;1640</title>
<path fill="none" stroke="dimgray" stroke-width="0.8" d="M407.5,-95.63C407.5,-95.63 407.5,-41.19 407.5,-41.19"/>
<polygon fill="dimgray" stroke="dimgray" stroke-width="0.8" points="409.95,-41.19 407.5,-34.19 405.05,-41.19 409.95,-41.19"/>
</g>
<!-- S&#45;2326 -->
<g id="node19" class="node">
<title>S&#45;2326</title>
<polygon fill="mediumseagreen" stroke="black" points="587.5,-36 519,-18 587.5,0 656,-18 587.5,-36"/>
<text text-anchor="middle" x="587.5" y="-16.1" font-family="Helvetica,sans-Serif" font-size="8.00">S&#45;2326</text>
</g>
<!-- S&#45;1606&#45;&gt;S&#45;2326 -->
<g id="edge31" class="edge">
<title>S&#45;1606&#45;&gt;S&#45;2326</title>
<path fill="none" stroke="dimgray" stroke-width="0.8" d="M469.25,-112C484.63,-112 496.5,-112 496.5,-112 496.5,-112 496.5,-18 496.5,-18 496.5,-18 511.99,-18 511.99,-18"/>
<polygon fill="dimgray" stroke="dimgray" stroke-width="0.8" points="511.99,-20.45 518.99,-18 511.99,-15.55 511.99,-20.45"/>
</g>
<!-- S&#45;2408 -->
<g id="node15" class="node">
<title>S&#45;2408</title>
<polygon fill="mediumseagreen" stroke="black" points="622.5,-600 554,-582 622.5,-564 691,-582 622.5,-600"/>
<text text-anchor="middle" x="622.5" y="-580.1" font-family="Helvetica,sans-Serif" font-size="8.00">S&#45;2408</text>
</g>
<!-- S&#45;1621 -->
<g id="node16" class="node">
<title>S&#45;1621</title>
<polygon fill="mediumseagreen" stroke="black" points="795.5,-600 727,-582 795.5,-564 864,-582 795.5,-600"/>
<text text-anchor="middle" x="795.5" y="-580.1" font-family="Helvetica,sans-Serif" font-size="8.00">S&#45;1621</text>
</g>
<!-- S&#45;2101&#45;&gt;S&#45;2499 -->
<g id="edge15" class="edge">
<title>S&#45;2101&#45;&gt;S&#45;2499</title>
<path fill="none" stroke="dimgray" stroke-width="0.8" d="M899.76,-112C850.2,-112 792,-112 792,-112 792,-112 792,-42.24 792,-42.24"/>
<polygon fill="dimgray" stroke="dimgray" stroke-width="0.8" points="794.45,-42.24 792,-35.24 789.55,-42.24 794.45,-42.24"/>
</g>
<!-- S&#45;992 -->
<g id="node20" class="node">
<title>S&#45;992</title>
<polygon fill="mediumseagreen" stroke="black" points="961.5,-36 893,-18 961.5,0 1030,-18 961.5,-36"/>
<text text-anchor="middle" x="961.5" y="-16.1" font-family="Helvetica,sans-Serif" font-size="8.00">S&#45;992</text>
</g>
<!-- S&#45;2101&#45;&gt;S&#45;992 -->
<g id="edge14" class="edge">
<title>S&#45;2101&#45;&gt;S&#45;992</title>
<path fill="none" stroke="dimgray" stroke-width="0.8" d="M965,-94.76C965,-94.76 965,-42.13 965,-42.13"/>
<polygon fill="dimgray" stroke="dimgray" stroke-width="0.8" points="967.45,-42.13 965,-35.13 962.55,-42.13 967.45,-42.13"/>
</g>
<!-- C&#45;1127 -->
<g id="node26" class="node">
<title>C&#45;1127</title>
<ellipse fill="mediumseagreen" stroke="black" cx="1134.5" cy="-18" rx="68.5" ry="18"/>
<text text-anchor="middle" x="1134.5" y="-16.1" font-family="Helvetica,sans-Serif" font-size="8.00">C&#45;1127</text>
</g>
<!-- S&#45;2101&#45;&gt;C&#45;1127 -->
<g id="edge13" class="edge">
<title>S&#45;2101&#45;&gt;C&#45;1127</title>
<path fill="none" stroke="dimgray" stroke-width="0.8" d="M1033.5,-110.94C1033.5,-100.62 1033.5,-18 1033.5,-18 1033.5,-18 1058.73,-18 1058.73,-18"/>
<polygon fill="dimgray" stroke="dimgray" stroke-width="0.8" points="1058.73,-20.45 1065.73,-18 1058.73,-15.55 1058.73,-20.45"/>
</g>
<!-- S&#45;2498 -->
<g id="node32" class="node">
<title>S&#45;2498</title>
<polygon fill="mediumseagreen" stroke="black" points="1307.5,-36 1239,-18 1307.5,0 1376,-18 1307.5,-36"/>
<text text-anchor="middle" x="1307.5" y="-16.1" font-family="Helvetica,sans-Serif" font-size="8.00">S&#45;2498</text>
</g>
<!-- S&#45;2101&#45;&gt;S&#45;2498 -->
<g id="edge16" class="edge">
<title>S&#45;2101&#45;&gt;S&#45;2498</title>
<path fill="none" stroke="dimgray" stroke-width="0.8" d="M1037.1,-112C1136.16,-112 1307.5,-112 1307.5,-112 1307.5,-112 1307.5,-43.12 1307.5,-43.12"/>
<polygon fill="dimgray" stroke="dimgray" stroke-width="0.8" points="1309.95,-43.12 1307.5,-36.12 1305.05,-43.12 1309.95,-43.12"/>
</g>
<!-- C&#45;0457&#45;&gt;C&#45;0458 -->
<g id="edge11" class="edge">
<title>C&#45;0457&#45;&gt;C&#45;0458</title>
<path fill="none" stroke="dimgray" stroke-width="0.8" d="M968.5,-281.88C968.5,-281.88 968.5,-231.07 968.5,-231.07"/>
<polygon fill="dimgray" stroke="dimgray" stroke-width="0.8" points="970.95,-231.07 968.5,-224.07 966.05,-231.07 970.95,-231.07"/>
</g>
<!-- C&#45;0387 -->
<g id="node21" class="node">
<title>C&#45;0387</title>
<ellipse fill="mediumseagreen" stroke="black" cx="968.5" cy="-582" rx="68.5" ry="18"/>
<text text-anchor="middle" x="968.5" y="-580.1" font-family="Helvetica,sans-Serif" font-size="8.00">C&#45;0387</text>
</g>
<!-- C&#45;0387&#45;&gt;R&#45;130 -->
<g id="edge8" class="edge">
<title>C&#45;0387&#45;&gt;R&#45;130</title>
<path fill="none" stroke="dimgray" stroke-width="0.8" d="M968.5,-563.88C968.5,-563.88 968.5,-513.07 968.5,-513.07"/>
<polygon fill="dimgray" stroke="dimgray" stroke-width="0.8" points="970.95,-513.07 968.5,-506.07 966.05,-513.07 970.95,-513.07"/>
</g>
<!-- C&#45;0764&#45;&gt;S&#45;838 -->
<g id="edge27" class="edge">
<title>C&#45;0764&#45;&gt;S&#45;838</title>
<path fill="none" stroke="dimgray" stroke-width="0.8" d="M438,-282.32C438,-282.32 438,-226.35 438,-226.35"/>
<polygon fill="dimgray" stroke="dimgray" stroke-width="0.8" points="440.45,-226.35 438,-219.35 435.55,-226.35 440.45,-226.35"/>
</g>
<!-- S&#45;1627 -->
<g id="node24" class="node">
<title>S&#45;1627</title>
<polygon fill="mediumseagreen" stroke="black" points="592.5,-224 524,-206 592.5,-188 661,-206 592.5,-224"/>
<text text-anchor="middle" x="592.5" y="-204.1" font-family="Helvetica,sans-Serif" font-size="8.00">S&#45;1627</text>
</g>
<!-- C&#45;0764&#45;&gt;S&#45;1627 -->
<g id="edge26" class="edge">
<title>C&#45;0764&#45;&gt;S&#45;1627</title>
<path fill="none" stroke="dimgray" stroke-width="0.8" d="M517.67,-291.82C517.67,-267.93 517.67,-200 517.67,-200 517.67,-200 539.81,-200 539.81,-200"/>
<polygon fill="dimgray" stroke="dimgray" stroke-width="0.8" points="539.81,-202.45 546.81,-200 539.81,-197.55 539.81,-202.45"/>
</g>
<!-- 208&#45;22&#45; -->
<g id="node23" class="node">
<title>208&#45;22&#45;</title>
<polygon fill="gold" stroke="black" points="777,-860.54 777,-875.46 736.87,-886 680.13,-886 640,-875.46 640,-860.54 680.13,-850 736.87,-850 777,-860.54"/>
<polygon fill="none" stroke="black" points="781,-857.46 781,-878.54 737.39,-890 679.61,-890 636,-878.54 636,-857.46 679.61,-846 737.39,-846 781,-857.46"/>
<text text-anchor="middle" x="708.5" y="-866.1" font-family="Helvetica,sans-Serif" font-size="8.00">208&#45;22&#45;</text>
</g>
<!-- C&#45;0188 -->
<g id="node31" class="node">
<title>C&#45;0188</title>
<ellipse fill="mediumseagreen" stroke="black" cx="708.5" cy="-770" rx="68.5" ry="18"/>
<text text-anchor="middle" x="708.5" y="-768.1" font-family="Helvetica,sans-Serif" font-size="8.00">C&#45;0188</text>
</g>
<!-- 208&#45;22&#45;&#45;&gt;C&#45;0188 -->
<g id="edge1" class="edge">
<title>208&#45;22&#45;&#45;&gt;C&#45;0188</title>
<path fill="none" stroke="dimgray" stroke-width="0.8" d="M708.5,-845.76C708.5,-845.76 708.5,-795.21 708.5,-795.21"/>
<polygon fill="dimgray" stroke="dimgray" stroke-width="0.8" points="710.95,-795.21 708.5,-788.21 706.05,-795.21 710.95,-795.21"/>
</g>
<!-- S&#45;1038 -->
<g id="node25" class="node">
<title>S&#45;1038</title>
<polygon fill="mediumseagreen" stroke="black" points="449.5,-694 381,-676 449.5,-658 518,-676 449.5,-694"/>
<text text-anchor="middle" x="449.5" y="-674.1" font-family="Helvetica,sans-Serif" font-size="8.00">S&#45;1038</text>
</g>
<!-- C&#45;0456 -->
<g id="node27" class="node">
<title>C&#45;0456</title>
<ellipse fill="mediumseagreen" stroke="black" cx="622.5" cy="-676" rx="68.5" ry="18"/>
<text text-anchor="middle" x="622.5" y="-674.1" font-family="Helvetica,sans-Serif" font-size="8.00">C&#45;0456</text>
</g>
<!-- C&#45;0456&#45;&gt;C&#45;0386 -->
<g id="edge6" class="edge">
<title>C&#45;0456&#45;&gt;C&#45;0386</title>
<path fill="none" stroke="dimgray" stroke-width="0.8" d="M588.25,-660.12C588.25,-643.26 588.25,-619 588.25,-619 588.25,-619 276.5,-619 276.5,-619 276.5,-619 276.5,-607.07 276.5,-607.07"/>
<polygon fill="dimgray" stroke="dimgray" stroke-width="0.8" points="278.95,-607.07 276.5,-600.07 274.05,-607.07 278.95,-607.07"/>
</g>
<!-- C&#45;0456&#45;&gt;C&#45;0677 -->
<g id="edge19" class="edge">
<title>C&#45;0456&#45;&gt;C&#45;0677</title>
<path fill="none" stroke="dimgray" stroke-width="0.8" d="M553.96,-676C545.36,-676 539.5,-676 539.5,-676 539.5,-676 539.5,-588 539.5,-588 539.5,-588 521.43,-588 521.43,-588"/>
<polygon fill="dimgray" stroke="dimgray" stroke-width="0.8" points="521.43,-585.55 514.43,-588 521.43,-590.45 521.43,-585.55"/>
</g>
<!-- C&#45;0456&#45;&gt;S&#45;2408 -->
<g id="edge17" class="edge">
<title>C&#45;0456&#45;&gt;S&#45;2408</title>
<path fill="none" stroke="dimgray" stroke-width="0.8" d="M622.5,-657.88C622.5,-657.88 622.5,-607.07 622.5,-607.07"/>
<polygon fill="dimgray" stroke="dimgray" stroke-width="0.8" points="624.95,-607.07 622.5,-600.07 620.05,-607.07 624.95,-607.07"/>
</g>
<!-- C&#45;0456&#45;&gt;S&#45;1621 -->
<g id="edge18" class="edge">
<title>C&#45;0456&#45;&gt;S&#45;1621</title>
<path fill="none" stroke="dimgray" stroke-width="0.8" d="M691.04,-676C699.64,-676 705.5,-676 705.5,-676 705.5,-676 705.5,-582 705.5,-582 705.5,-582 719.83,-582 719.83,-582"/>
<polygon fill="dimgray" stroke="dimgray" stroke-width="0.8" points="719.83,-584.45 726.83,-582 719.83,-579.55 719.83,-584.45"/>
</g>
<!-- C&#45;0456&#45;&gt;C&#45;0387 -->
<g id="edge7" class="edge">
<title>C&#45;0456&#45;&gt;C&#45;0387</title>
<path fill="none" stroke="dimgray" stroke-width="0.8" d="M656.75,-660.1C656.75,-649.69 656.75,-638 656.75,-638 656.75,-638 968.5,-638 968.5,-638 968.5,-638 968.5,-607.03 968.5,-607.03"/>
<polygon fill="dimgray" stroke="dimgray" stroke-width="0.8" points="970.95,-607.03 968.5,-600.03 966.05,-607.03 970.95,-607.03"/>
</g>
<!-- S&#45;1340 -->
<g id="node29" class="node">
<title>S&#45;1340</title>
<polygon fill="mediumseagreen" stroke="black" points="795.5,-694 727,-676 795.5,-658 864,-676 795.5,-694"/>
<text text-anchor="middle" x="795.5" y="-674.1" font-family="Helvetica,sans-Serif" font-size="8.00">S&#45;1340</text>
</g>
<!-- C&#45;0763&#45;&gt;C&#45;0764 -->
<g id="edge35" class="edge">
<title>C&#45;0763&#45;&gt;C&#45;0764</title>
<path fill="none" stroke="blue" stroke-width="0.8" stroke-dasharray="5,2" d="M607.5,-470.31C607.5,-423.51 607.5,-300 607.5,-300 607.5,-300 532.37,-300 532.37,-300"/>
<polygon fill="blue" stroke="blue" stroke-width="0.8" points="532.37,-297.55 525.37,-300 532.37,-302.45 532.37,-297.55"/>
</g>
<!-- C&#45;0188&#45;&gt;S&#45;1038 -->
<g id="edge3" class="edge">
<title>C&#45;0188&#45;&gt;S&#45;1038</title>
<path fill="none" stroke="dimgray" stroke-width="0.8" d="M639.77,-770C563.04,-770 449.5,-770 449.5,-770 449.5,-770 449.5,-701.12 449.5,-701.12"/>
<polygon fill="dimgray" stroke="dimgray" stroke-width="0.8" points="451.95,-701.12 449.5,-694.12 447.05,-701.12 451.95,-701.12"/>
</g>
<!-- C&#45;0188&#45;&gt;C&#45;0456 -->
<g id="edge5" class="edge">
<title>C&#45;0188&#45;&gt;C&#45;0456</title>
<path fill="none" stroke="dimgray" stroke-width="0.8" d="M665.5,-755.72C665.5,-755.72 665.5,-697.1 665.5,-697.1"/>
<polygon fill="dimgray" stroke="dimgray" stroke-width="0.8" points="667.95,-697.1 665.5,-690.1 663.05,-697.1 667.95,-697.1"/>
</g>
<!-- C&#45;0188&#45;&gt;S&#45;1340 -->
<g id="edge2" class="edge">
<title>C&#45;0188&#45;&gt;S&#45;1340</title>
<path fill="none" stroke="dimgray" stroke-width="0.8" d="M752,-755.72C752,-755.72 752,-689.83 752,-689.83"/>
<polygon fill="dimgray" stroke="dimgray" stroke-width="0.8" points="754.45,-689.83 752,-682.83 749.55,-689.83 754.45,-689.83"/>
</g>
<!-- S&#45;1619 -->
<g id="node34" class="node">
<title>S&#45;1619</title>
<polygon fill="mediumseagreen" stroke="black" points="968.5,-694 900,-676 968.5,-658 1037,-676 968.5,-694"/>
<text text-anchor="middle" x="968.5" y="-674.1" font-family="Helvetica,sans-Serif" font-size="8.00">S&#45;1619</text>
</g>
<!-- C&#45;0188&#45;&gt;S&#45;1619 -->
<g id="edge4" class="edge">
<title>C&#45;0188&#45;&gt;S&#45;1619</title>
<path fill="none" stroke="dimgray" stroke-width="0.8" d="M777.15,-770C854.18,-770 968.5,-770 968.5,-770 968.5,-770 968.5,-701.12 968.5,-701.12"/>
<polygon fill="dimgray" stroke="dimgray" stroke-width="0.8" points="970.95,-701.12 968.5,-694.12 966.05,-701.12 970.95,-701.12"/>
</g>
<!-- S&#45;2314&#45;&gt;S&#45;2291 -->
<g id="edge21" class="edge">
<title>S&#45;2314&#45;&gt;S&#45;2291</title>
<path fill="none" stroke="dimgray" stroke-width="0.8" d="M223.5,-473.72C223.5,-473.72 223.5,-415.1 223.5,-415.1"/>
<polygon fill="dimgray" stroke="dimgray" stroke-width="0.8" points="225.95,-415.1 223.5,-408.1 221.05,-415.1 225.95,-415.1"/>
</g>
</g>
</svg>
