<?xml version="1.0" encoding="UTF-8" standalone="no"?>
<!DOCTYPE svg PUBLIC "-//W3C//DTD SVG 1.1//EN"
 "http://www.w3.org/Graphics/SVG/1.1/DTD/svg11.dtd">
<!-- Generated by graphviz version 2.50.0 (0)
 -->
<!-- Title: Grafo_Circuito_304_26_ Pages: 1 -->
<svg width="1322pt" height="867pt"
 viewBox="0.00 0.00 1322.00 867.00" xmlns="http://www.w3.org/2000/svg" xmlns:xlink="http://www.w3.org/1999/xlink">
<g id="graph0" class="graph" transform="scale(1 1) rotate(0) translate(4 863)">
<title>Grafo_Circuito_304_26_</title>
<polygon fill="white" stroke="transparent" points="-4,4 -4,-863 1318,-863 1318,4 -4,4"/>
<!-- C&#45;0462 -->
<g id="node1" class="node">
<title>C&#45;0462</title>
<ellipse fill="mediumseagreen" stroke="black" cx="342" cy="-21.5" rx="72" ry="21.5"/>
<text text-anchor="middle" x="342" y="-19" font-family="Arial" font-size="10.00">C&#45;0462</text>
</g>
<!-- S&#45;1111 -->
<g id="node2" class="node">
<title>S&#45;1111</title>
<polygon fill="mediumseagreen" stroke="black" points="72,-346 0,-324.5 72,-303 144,-324.5 72,-346"/>
<text text-anchor="middle" x="72" y="-322" font-family="Arial" font-size="10.00">S&#45;1111</text>
</g>
<!-- S&#45;785 -->
<g id="node3" class="node">
<title>S&#45;785</title>
<polygon fill="mediumseagreen" stroke="black" points="252,-447 180,-425.5 252,-404 324,-425.5 252,-447"/>
<text text-anchor="middle" x="252" y="-423" font-family="Arial" font-size="10.00">S&#45;785</text>
</g>
<!-- S&#45;785&#45;&gt;S&#45;1111 -->
<g id="edge22" class="edge">
<title>S&#45;785&#45;&gt;S&#45;1111</title>
<path fill="none" stroke="#4d4d4d" d="M181.63,-425C131.15,-425 72,-425 72,-425 72,-425 72,-353.31 72,-353.31"/>
<polygon fill="#4d4d4d" stroke="#4d4d4d" points="74.45,-353.31 72,-346.31 69.55,-353.31 74.45,-353.31"/>
</g>
<!-- S&#45;2078 -->
<g id="node4" class="node">
<title>S&#45;2078</title>
<polygon fill="mediumseagreen" stroke="black" points="252,-346 180,-324.5 252,-303 324,-324.5 252,-346"/>
<text text-anchor="middle" x="252" y="-322" font-family="Arial" font-size="10.00">S&#45;2078</text>
</g>
<!-- S&#45;785&#45;&gt;S&#45;2078 -->
<g id="edge23" class="edge">
<title>S&#45;785&#45;&gt;S&#45;2078</title>
<path fill="none" stroke="#4d4d4d" d="M252,-403.58C252,-403.58 252,-353.03 252,-353.03"/>
<polygon fill="#4d4d4d" stroke="#4d4d4d" points="254.45,-353.03 252,-346.03 249.55,-353.03 254.45,-353.03"/>
</g>
<!-- S&#45;1740 -->
<g id="node5" class="node">
<title>S&#45;1740</title>
<polygon fill="mediumseagreen" stroke="black" points="792,-144 720,-122.5 792,-101 864,-122.5 792,-144"/>
<text text-anchor="middle" x="792" y="-120" font-family="Arial" font-size="10.00">S&#45;1740</text>
</g>
<!-- S&#45;783 -->
<g id="node6" class="node">
<title>S&#45;783</title>
<polygon fill="mediumseagreen" stroke="black" points="522,-245 450,-223.5 522,-202 594,-223.5 522,-245"/>
<text text-anchor="middle" x="522" y="-221" font-family="Arial" font-size="10.00">S&#45;783</text>
</g>
<!-- S&#45;1956 -->
<g id="node10" class="node">
<title>S&#45;1956</title>
<polygon fill="mediumseagreen" stroke="black" points="522,-144 450,-122.5 522,-101 594,-122.5 522,-144"/>
<text text-anchor="middle" x="522" y="-120" font-family="Arial" font-size="10.00">S&#45;1956</text>
</g>
<!-- S&#45;783&#45;&gt;S&#45;1956 -->
<g id="edge18" class="edge">
<title>S&#45;783&#45;&gt;S&#45;1956</title>
<path fill="none" stroke="#4d4d4d" d="M522,-201.58C522,-201.58 522,-151.03 522,-151.03"/>
<polygon fill="#4d4d4d" stroke="#4d4d4d" points="524.45,-151.03 522,-144.03 519.55,-151.03 524.45,-151.03"/>
</g>
<!-- C&#45;0073 -->
<g id="node7" class="node">
<title>C&#45;0073</title>
<ellipse fill="mediumseagreen" stroke="black" cx="522" cy="-728.5" rx="72" ry="21.5"/>
<text text-anchor="middle" x="522" y="-726" font-family="Arial" font-size="10.00">C&#45;0073</text>
</g>
<!-- C&#45;0978 -->
<g id="node8" class="node">
<title>C&#45;0978</title>
<ellipse fill="mediumseagreen" stroke="black" cx="342" cy="-627.5" rx="72" ry="21.5"/>
<text text-anchor="middle" x="342" y="-625" font-family="Arial" font-size="10.00">C&#45;0978</text>
</g>
<!-- C&#45;0073&#45;&gt;C&#45;0978 -->
<g id="edge3" class="edge">
<title>C&#45;0073&#45;&gt;C&#45;0978</title>
<path fill="none" stroke="#4d4d4d" d="M449.82,-728C399.75,-728 342,-728 342,-728 342,-728 342,-656.31 342,-656.31"/>
<polygon fill="#4d4d4d" stroke="#4d4d4d" points="344.45,-656.31 342,-649.31 339.55,-656.31 344.45,-656.31"/>
</g>
<!-- C&#45;0217 -->
<g id="node15" class="node">
<title>C&#45;0217</title>
<ellipse fill="mediumseagreen" stroke="black" cx="522" cy="-627.5" rx="72" ry="21.5"/>
<text text-anchor="middle" x="522" y="-625" font-family="Arial" font-size="10.00">C&#45;0217</text>
</g>
<!-- C&#45;0073&#45;&gt;C&#45;0217 -->
<g id="edge4" class="edge">
<title>C&#45;0073&#45;&gt;C&#45;0217</title>
<path fill="none" stroke="#4d4d4d" d="M522,-706.58C522,-706.58 522,-656.03 522,-656.03"/>
<polygon fill="#4d4d4d" stroke="#4d4d4d" points="524.45,-656.03 522,-649.03 519.55,-656.03 524.45,-656.03"/>
</g>
<!-- S&#45;973 -->
<g id="node25" class="node">
<title>S&#45;973</title>
<polygon fill="mediumseagreen" stroke="black" points="702,-649 630,-627.5 702,-606 774,-627.5 702,-649"/>
<text text-anchor="middle" x="702" y="-625" font-family="Arial" font-size="10.00">S&#45;973</text>
</g>
<!-- C&#45;0073&#45;&gt;S&#45;973 -->
<g id="edge2" class="edge">
<title>C&#45;0073&#45;&gt;S&#45;973</title>
<path fill="none" stroke="#4d4d4d" d="M594.18,-728C644.25,-728 702,-728 702,-728 702,-728 702,-656.31 702,-656.31"/>
<polygon fill="#4d4d4d" stroke="#4d4d4d" points="704.45,-656.31 702,-649.31 699.55,-656.31 704.45,-656.31"/>
</g>
<!-- S&#45;1724 -->
<g id="node9" class="node">
<title>S&#45;1724</title>
<polygon fill="mediumseagreen" stroke="black" points="702,-245 630,-223.5 702,-202 774,-223.5 702,-245"/>
<text text-anchor="middle" x="702" y="-221" font-family="Arial" font-size="10.00">S&#45;1724</text>
</g>
<!-- SR&#45;0022 -->
<g id="node11" class="node">
<title>SR&#45;0022</title>
<polygon fill="mediumseagreen" stroke="black" points="882,-245 810,-223.5 882,-202 954,-223.5 882,-245"/>
<text text-anchor="middle" x="882" y="-221" font-family="Arial" font-size="10.00">SR&#45;0022</text>
</g>
<!-- SR&#45;0022&#45;&gt;S&#45;1740 -->
<g id="edge16" class="edge">
<title>SR&#45;0022&#45;&gt;S&#45;1740</title>
<path fill="none" stroke="#4d4d4d" d="M837,-215.23C837,-215.23 837,-137.6 837,-137.6"/>
<polygon fill="#4d4d4d" stroke="#4d4d4d" points="839.45,-137.6 837,-130.6 834.55,-137.6 839.45,-137.6"/>
</g>
<!-- S&#45;2271 -->
<g id="node23" class="node">
<title>S&#45;2271</title>
<polygon fill="mediumseagreen" stroke="black" points="972,-144 900,-122.5 972,-101 1044,-122.5 972,-144"/>
<text text-anchor="middle" x="972" y="-120" font-family="Arial" font-size="10.00">S&#45;2271</text>
</g>
<!-- SR&#45;0022&#45;&gt;S&#45;2271 -->
<g id="edge15" class="edge">
<title>SR&#45;0022&#45;&gt;S&#45;2271</title>
<path fill="none" stroke="#4d4d4d" d="M927,-215.23C927,-215.23 927,-137.6 927,-137.6"/>
<polygon fill="#4d4d4d" stroke="#4d4d4d" points="929.45,-137.6 927,-130.6 924.55,-137.6 929.45,-137.6"/>
</g>
<!-- S&#45;2120 -->
<g id="node12" class="node">
<title>S&#45;2120</title>
<polygon fill="mediumseagreen" stroke="black" points="1062,-245 990,-223.5 1062,-202 1134,-223.5 1062,-245"/>
<text text-anchor="middle" x="1062" y="-221" font-family="Arial" font-size="10.00">S&#45;2120</text>
</g>
<!-- R&#45;037 -->
<g id="node13" class="node">
<title>R&#45;037</title>
<polygon fill="mediumseagreen" stroke="black" points="414,-517.59 414,-535.41 371.82,-548 312.18,-548 270,-535.41 270,-517.59 312.18,-505 371.82,-505 414,-517.59"/>
<text text-anchor="middle" x="342" y="-524" font-family="Arial" font-size="10.00">R&#45;037</text>
</g>
<!-- R&#45;037&#45;&gt;S&#45;785 -->
<g id="edge21" class="edge">
<title>R&#45;037&#45;&gt;S&#45;785</title>
<path fill="none" stroke="#4d4d4d" d="M297,-509.37C297,-509.37 297,-440.78 297,-440.78"/>
<polygon fill="#4d4d4d" stroke="#4d4d4d" points="299.45,-440.78 297,-433.78 294.55,-440.78 299.45,-440.78"/>
</g>
<!-- S&#45;786 -->
<g id="node22" class="node">
<title>S&#45;786</title>
<polygon fill="mediumseagreen" stroke="black" points="432,-447 360,-425.5 432,-404 504,-425.5 432,-447"/>
<text text-anchor="middle" x="432" y="-423" font-family="Arial" font-size="10.00">S&#45;786</text>
</g>
<!-- R&#45;037&#45;&gt;S&#45;786 -->
<g id="edge7" class="edge">
<title>R&#45;037&#45;&gt;S&#45;786</title>
<path fill="none" stroke="#4d4d4d" d="M387,-509.37C387,-509.37 387,-440.78 387,-440.78"/>
<polygon fill="#4d4d4d" stroke="#4d4d4d" points="389.45,-440.78 387,-433.78 384.55,-440.78 389.45,-440.78"/>
</g>
<!-- S&#45;974 -->
<g id="node14" class="node">
<title>S&#45;974</title>
<polygon fill="mediumseagreen" stroke="black" points="342,-144 270,-122.5 342,-101 414,-122.5 342,-144"/>
<text text-anchor="middle" x="342" y="-120" font-family="Arial" font-size="10.00">S&#45;974</text>
</g>
<!-- S&#45;974&#45;&gt;C&#45;0462 -->
<g id="edge11" class="edge">
<title>S&#45;974&#45;&gt;C&#45;0462</title>
<path fill="none" stroke="#4d4d4d" d="M342,-100.58C342,-100.58 342,-50.03 342,-50.03"/>
<polygon fill="#4d4d4d" stroke="#4d4d4d" points="344.45,-50.03 342,-43.03 339.55,-50.03 344.45,-50.03"/>
</g>
<!-- C&#45;0217&#45;&gt;R&#45;037 -->
<g id="edge6" class="edge">
<title>C&#45;0217&#45;&gt;R&#45;037</title>
<path fill="none" stroke="#4d4d4d" d="M449.96,-627C438.32,-627 430,-627 430,-627 430,-627 430,-526 430,-526 430,-526 421.27,-526 421.27,-526"/>
<polygon fill="#4d4d4d" stroke="#4d4d4d" points="421.27,-523.55 414.27,-526 421.27,-528.45 421.27,-523.55"/>
</g>
<!-- S&#45;2418 -->
<g id="node17" class="node">
<title>S&#45;2418</title>
<polygon fill="mediumseagreen" stroke="black" points="522,-548 450,-526.5 522,-505 594,-526.5 522,-548"/>
<text text-anchor="middle" x="522" y="-524" font-family="Arial" font-size="10.00">S&#45;2418</text>
</g>
<!-- C&#45;0217&#45;&gt;S&#45;2418 -->
<g id="edge13" class="edge">
<title>C&#45;0217&#45;&gt;S&#45;2418</title>
<path fill="none" stroke="#4d4d4d" d="M522,-605.58C522,-605.58 522,-555.03 522,-555.03"/>
<polygon fill="#4d4d4d" stroke="#4d4d4d" points="524.45,-555.03 522,-548.03 519.55,-555.03 524.45,-555.03"/>
</g>
<!-- S&#45;1845 -->
<g id="node21" class="node">
<title>S&#45;1845</title>
<polygon fill="mediumseagreen" stroke="black" points="702,-548 630,-526.5 702,-505 774,-526.5 702,-548"/>
<text text-anchor="middle" x="702" y="-524" font-family="Arial" font-size="10.00">S&#45;1845</text>
</g>
<!-- C&#45;0217&#45;&gt;S&#45;1845 -->
<g id="edge5" class="edge">
<title>C&#45;0217&#45;&gt;S&#45;1845</title>
<path fill="none" stroke="#4d4d4d" d="M594.04,-627C605.68,-627 614,-627 614,-627 614,-627 614,-526 614,-526 614,-526 624.39,-526 624.39,-526"/>
<polygon fill="#4d4d4d" stroke="#4d4d4d" points="624.39,-528.45 631.39,-526 624.39,-523.55 624.39,-528.45"/>
</g>
<!-- S&#45;784 -->
<g id="node16" class="node">
<title>S&#45;784</title>
<polygon fill="mediumseagreen" stroke="black" points="432,-346 360,-324.5 432,-303 504,-324.5 432,-346"/>
<text text-anchor="middle" x="432" y="-322" font-family="Arial" font-size="10.00">S&#45;784</text>
</g>
<!-- S&#45;1853 -->
<g id="node18" class="node">
<title>S&#45;1853</title>
<polygon fill="mediumseagreen" stroke="black" points="342,-245 270,-223.5 342,-202 414,-223.5 342,-245"/>
<text text-anchor="middle" x="342" y="-221" font-family="Arial" font-size="10.00">S&#45;1853</text>
</g>
<!-- S&#45;784&#45;&gt;S&#45;1853 -->
<g id="edge9" class="edge">
<title>S&#45;784&#45;&gt;S&#45;1853</title>
<path fill="none" stroke="#4d4d4d" d="M387,-316.23C387,-316.23 387,-238.6 387,-238.6"/>
<polygon fill="#4d4d4d" stroke="#4d4d4d" points="389.45,-238.6 387,-231.6 384.55,-238.6 389.45,-238.6"/>
</g>
<!-- S&#45;1853&#45;&gt;S&#45;974 -->
<g id="edge10" class="edge">
<title>S&#45;1853&#45;&gt;S&#45;974</title>
<path fill="none" stroke="#4d4d4d" d="M342,-201.58C342,-201.58 342,-151.03 342,-151.03"/>
<polygon fill="#4d4d4d" stroke="#4d4d4d" points="344.45,-151.03 342,-144.03 339.55,-151.03 344.45,-151.03"/>
</g>
<!-- S&#45;750 -->
<g id="node19" class="node">
<title>S&#45;750</title>
<polygon fill="mediumseagreen" stroke="black" points="792,-346 720,-324.5 792,-303 864,-324.5 792,-346"/>
<text text-anchor="middle" x="792" y="-322" font-family="Arial" font-size="10.00">S&#45;750</text>
</g>
<!-- S&#45;750&#45;&gt;S&#45;783 -->
<g id="edge17" class="edge">
<title>S&#45;750&#45;&gt;S&#45;783</title>
<path fill="none" stroke="#4d4d4d" d="M721.39,-324C649.64,-324 549,-324 549,-324 549,-324 549,-244.05 549,-244.05"/>
<polygon fill="#4d4d4d" stroke="#4d4d4d" points="551.45,-244.05 549,-237.05 546.55,-244.05 551.45,-244.05"/>
</g>
<!-- S&#45;750&#45;&gt;S&#45;1724 -->
<g id="edge12" class="edge">
<title>S&#45;750&#45;&gt;S&#45;1724</title>
<path fill="none" stroke="#4d4d4d" d="M747,-316.23C747,-316.23 747,-238.6 747,-238.6"/>
<polygon fill="#4d4d4d" stroke="#4d4d4d" points="749.45,-238.6 747,-231.6 744.55,-238.6 749.45,-238.6"/>
</g>
<!-- S&#45;750&#45;&gt;SR&#45;0022 -->
<g id="edge14" class="edge">
<title>S&#45;750&#45;&gt;SR&#45;0022</title>
<path fill="none" stroke="#4d4d4d" d="M837,-316.23C837,-316.23 837,-238.6 837,-238.6"/>
<polygon fill="#4d4d4d" stroke="#4d4d4d" points="839.45,-238.6 837,-231.6 834.55,-238.6 839.45,-238.6"/>
</g>
<!-- S&#45;750&#45;&gt;S&#45;2120 -->
<g id="edge20" class="edge">
<title>S&#45;750&#45;&gt;S&#45;2120</title>
<path fill="none" stroke="#4d4d4d" d="M839.03,-317C916.39,-317 1062,-317 1062,-317 1062,-317 1062,-252.19 1062,-252.19"/>
<polygon fill="#4d4d4d" stroke="#4d4d4d" points="1064.45,-252.19 1062,-245.19 1059.55,-252.19 1064.45,-252.19"/>
</g>
<!-- S&#45;1743 -->
<g id="node24" class="node">
<title>S&#45;1743</title>
<polygon fill="mediumseagreen" stroke="black" points="1242,-245 1170,-223.5 1242,-202 1314,-223.5 1242,-245"/>
<text text-anchor="middle" x="1242" y="-221" font-family="Arial" font-size="10.00">S&#45;1743</text>
</g>
<!-- S&#45;750&#45;&gt;S&#45;1743 -->
<g id="edge19" class="edge">
<title>S&#45;750&#45;&gt;S&#45;1743</title>
<path fill="none" stroke="#4d4d4d" d="M842.31,-331C959.74,-331 1242,-331 1242,-331 1242,-331 1242,-252.25 1242,-252.25"/>
<polygon fill="#4d4d4d" stroke="#4d4d4d" points="1244.45,-252.25 1242,-245.25 1239.55,-252.25 1244.45,-252.25"/>
</g>
<!-- 304&#45;26&#45; -->
<g id="node20" class="node">
<title>304&#45;26&#45;</title>
<polygon fill="gold" stroke="black" points="594,-824.59 594,-842.41 551.82,-855 492.18,-855 450,-842.41 450,-824.59 492.18,-812 551.82,-812 594,-824.59"/>
<polygon fill="none" stroke="black" points="598,-821.61 598,-845.39 552.41,-859 491.59,-859 446,-845.39 446,-821.61 491.59,-808 552.41,-808 598,-821.61"/>
<text text-anchor="middle" x="522" y="-831" font-family="Arial" font-size="10.00">304&#45;26&#45;</text>
</g>
<!-- 304&#45;26&#45;&#45;&gt;C&#45;0073 -->
<g id="edge24" class="edge">
<title>304&#45;26&#45;&#45;&gt;C&#45;0073</title>
<path fill="none" stroke="#4d4d4d" d="M522,-807.81C522,-807.81 522,-757.03 522,-757.03"/>
<polygon fill="#4d4d4d" stroke="#4d4d4d" points="524.45,-757.03 522,-750.03 519.55,-757.03 524.45,-757.03"/>
</g>
<!-- S&#45;786&#45;&gt;S&#45;784 -->
<g id="edge8" class="edge">
<title>S&#45;786&#45;&gt;S&#45;784</title>
<path fill="none" stroke="#4d4d4d" d="M432,-403.58C432,-403.58 432,-353.03 432,-353.03"/>
<polygon fill="#4d4d4d" stroke="#4d4d4d" points="434.45,-353.03 432,-346.03 429.55,-353.03 434.45,-353.03"/>
</g>
<!-- S&#45;786&#45;&gt;S&#45;750 -->
<g id="edge1" class="edge">
<title>S&#45;786&#45;&gt;S&#45;750</title>
<path fill="none" stroke="#4d4d4d" d="M502.69,-425C595.56,-425 747,-425 747,-425 747,-425 747,-339.72 747,-339.72"/>
<polygon fill="#4d4d4d" stroke="#4d4d4d" points="749.45,-339.72 747,-332.72 744.55,-339.72 749.45,-339.72"/>
</g>
</g>
</svg>
