<?xml version="1.0" encoding="UTF-8" standalone="no"?>
<!DOCTYPE svg PUBLIC "-//W3C//DTD SVG 1.1//EN"
 "http://www.w3.org/Graphics/SVG/1.1/DTD/svg11.dtd">
<!-- Generated by graphviz version 2.50.0 (0)
 -->
<!-- Title: Grafo_Circuito_304_25_ Pages: 1 -->
<svg width="2386pt" height="1372pt"
 viewBox="0.00 0.00 2386.00 1372.00" xmlns="http://www.w3.org/2000/svg" xmlns:xlink="http://www.w3.org/1999/xlink">
<g id="graph0" class="graph" transform="scale(1 1) rotate(0) translate(4 1368)">
<title>Grafo_Circuito_304_25_</title>
<polygon fill="white" stroke="transparent" points="-4,4 -4,-1368 2382,-1368 2382,4 -4,4"/>
<!-- R&#45;123 -->
<g id="node1" class="node">
<title>R&#45;123</title>
<polygon fill="mediumseagreen" stroke="black" points="594,-820.59 594,-838.41 551.82,-851 492.18,-851 450,-838.41 450,-820.59 492.18,-808 551.82,-808 594,-820.59"/>
<text text-anchor="middle" x="522" y="-827" font-family="Arial" font-size="10.00">R&#45;123</text>
</g>
<!-- C&#45;0370 -->
<g id="node7" class="node">
<title>C&#45;0370</title>
<ellipse fill="mediumseagreen" stroke="black" cx="522" cy="-728.5" rx="72" ry="21.5"/>
<text text-anchor="middle" x="522" y="-726" font-family="Arial" font-size="10.00">C&#45;0370</text>
</g>
<!-- R&#45;123&#45;&gt;C&#45;0370 -->
<g id="edge34" class="edge">
<title>R&#45;123&#45;&gt;C&#45;0370</title>
<path fill="none" stroke="#4d4d4d" d="M522,-807.58C522,-807.58 522,-757.03 522,-757.03"/>
<polygon fill="#4d4d4d" stroke="#4d4d4d" points="524.45,-757.03 522,-750.03 519.55,-757.03 524.45,-757.03"/>
</g>
<!-- C&#45;0783 -->
<g id="node2" class="node">
<title>C&#45;0783</title>
<ellipse fill="mediumseagreen" stroke="black" cx="1316" cy="-829.5" rx="72" ry="21.5"/>
<text text-anchor="middle" x="1316" y="-827" font-family="Arial" font-size="10.00">C&#45;0783</text>
</g>
<!-- R&#45;173 -->
<g id="node39" class="node">
<title>R&#45;173</title>
<polygon fill="tomato" stroke="black" points="1388,-719.59 1388,-737.41 1345.82,-750 1286.18,-750 1244,-737.41 1244,-719.59 1286.18,-707 1345.82,-707 1388,-719.59"/>
<text text-anchor="middle" x="1316" y="-726" font-family="Arial" font-size="10.00">R&#45;173</text>
</g>
<!-- C&#45;0783&#45;&gt;R&#45;173 -->
<g id="edge10" class="edge">
<title>C&#45;0783&#45;&gt;R&#45;173</title>
<path fill="none" stroke="#4d4d4d" d="M1340,-809.06C1340,-809.06 1340,-757.31 1340,-757.31"/>
<polygon fill="#4d4d4d" stroke="#4d4d4d" points="1342.45,-757.31 1340,-750.31 1337.55,-757.31 1342.45,-757.31"/>
</g>
<!-- C&#45;1183 -->
<g id="node3" class="node">
<title>C&#45;1183</title>
<ellipse fill="mediumseagreen" stroke="black" cx="1496" cy="-627.5" rx="72" ry="21.5"/>
<text text-anchor="middle" x="1496" y="-625" font-family="Arial" font-size="10.00">C&#45;1183</text>
</g>
<!-- S&#45;541 -->
<g id="node5" class="node">
<title>S&#45;541</title>
<polygon fill="mediumseagreen" stroke="black" points="1496,-548 1424,-526.5 1496,-505 1568,-526.5 1496,-548"/>
<text text-anchor="middle" x="1496" y="-524" font-family="Arial" font-size="10.00">S&#45;541</text>
</g>
<!-- C&#45;1183&#45;&gt;S&#45;541 -->
<g id="edge27" class="edge">
<title>C&#45;1183&#45;&gt;S&#45;541</title>
<path fill="none" stroke="#4d4d4d" d="M1496,-605.58C1496,-605.58 1496,-555.03 1496,-555.03"/>
<polygon fill="#4d4d4d" stroke="#4d4d4d" points="1498.45,-555.03 1496,-548.03 1493.55,-555.03 1498.45,-555.03"/>
</g>
<!-- C&#45;0219 -->
<g id="node19" class="node">
<title>C&#45;0219</title>
<ellipse fill="mediumseagreen" stroke="black" cx="1676" cy="-526.5" rx="72" ry="21.5"/>
<text text-anchor="middle" x="1676" y="-524" font-family="Arial" font-size="10.00">C&#45;0219</text>
</g>
<!-- C&#45;1183&#45;&gt;C&#45;0219 -->
<g id="edge15" class="edge">
<title>C&#45;1183&#45;&gt;C&#45;0219</title>
<path fill="none" stroke="#4d4d4d" d="M1568.18,-627C1618.25,-627 1676,-627 1676,-627 1676,-627 1676,-555.31 1676,-555.31"/>
<polygon fill="#4d4d4d" stroke="#4d4d4d" points="1678.45,-555.31 1676,-548.31 1673.55,-555.31 1678.45,-555.31"/>
</g>
<!-- S&#45;2243 -->
<g id="node41" class="node">
<title>S&#45;2243</title>
<polygon fill="mediumseagreen" stroke="black" points="1316,-548 1244,-526.5 1316,-505 1388,-526.5 1316,-548"/>
<text text-anchor="middle" x="1316" y="-524" font-family="Arial" font-size="10.00">S&#45;2243</text>
</g>
<!-- C&#45;1183&#45;&gt;S&#45;2243 -->
<g id="edge14" class="edge">
<title>C&#45;1183&#45;&gt;S&#45;2243</title>
<path fill="none" stroke="#4d4d4d" d="M1428.46,-620C1377.39,-620 1316,-620 1316,-620 1316,-620 1316,-555.19 1316,-555.19"/>
<polygon fill="#4d4d4d" stroke="#4d4d4d" points="1318.45,-555.19 1316,-548.19 1313.55,-555.19 1318.45,-555.19"/>
</g>
<!-- C&#45;0239 -->
<g id="node4" class="node">
<title>C&#45;0239</title>
<ellipse fill="tomato" stroke="black" cx="1496" cy="-425.5" rx="72" ry="21.5"/>
<text text-anchor="middle" x="1496" y="-423" font-family="Arial" font-size="10.00">C&#45;0239</text>
</g>
<!-- ext_circ_304_27_ -->
<g id="node45" class="node">
<title>ext_circ_304_27_</title>
<polygon fill="lightpink" stroke="darkorange" stroke-dasharray="5,2" points="905,-1360 761,-1360 761,-1317 905,-1317 905,-1360"/>
<text text-anchor="middle" x="833" y="-1341.5" font-family="Arial" font-size="10.00">Circuito:</text>
<text text-anchor="middle" x="833" y="-1330.5" font-family="Arial" font-size="10.00">304&#45;27&#45;</text>
</g>
<!-- C&#45;0239&#45;&gt;ext_circ_304_27_ -->
<g id="edge46" class="edge">
<title>C&#45;0239&#45;&gt;ext_circ_304_27_</title>
<path fill="none" stroke="darkorange" stroke-dasharray="5,2" d="M1423.78,-425C1413.32,-425 1406,-425 1406,-425 1406,-425 1406,-1338 1406,-1338 1406,-1338 912.28,-1338 912.28,-1338"/>
<polygon fill="darkorange" stroke="darkorange" points="912.28,-1335.55 905.28,-1338 912.28,-1340.45 912.28,-1335.55"/>
</g>
<!-- S&#45;541&#45;&gt;C&#45;0239 -->
<g id="edge28" class="edge">
<title>S&#45;541&#45;&gt;C&#45;0239</title>
<path fill="none" stroke="#4d4d4d" d="M1496,-504.58C1496,-504.58 1496,-454.03 1496,-454.03"/>
<polygon fill="#4d4d4d" stroke="#4d4d4d" points="1498.45,-454.03 1496,-447.03 1493.55,-454.03 1498.45,-454.03"/>
</g>
<!-- S&#45;1374 -->
<g id="node6" class="node">
<title>S&#45;1374</title>
<polygon fill="mediumseagreen" stroke="black" points="776,-851 704,-829.5 776,-808 848,-829.5 776,-851"/>
<text text-anchor="middle" x="776" y="-827" font-family="Arial" font-size="10.00">S&#45;1374</text>
</g>
<!-- S&#45;1255 -->
<g id="node18" class="node">
<title>S&#45;1255</title>
<polygon fill="mediumseagreen" stroke="black" points="972,-649 900,-627.5 972,-606 1044,-627.5 972,-649"/>
<text text-anchor="middle" x="972" y="-625" font-family="Arial" font-size="10.00">S&#45;1255</text>
</g>
<!-- C&#45;0370&#45;&gt;S&#45;1255 -->
<g id="edge36" class="edge">
<title>C&#45;0370&#45;&gt;S&#45;1255</title>
<path fill="none" stroke="#4d4d4d" d="M594,-728C719.24,-728 964,-728 964,-728 964,-728 964,-653.88 964,-653.88"/>
<polygon fill="#4d4d4d" stroke="#4d4d4d" points="966.45,-653.88 964,-646.88 961.55,-653.88 966.45,-653.88"/>
</g>
<!-- R&#45;083 -->
<g id="node29" class="node">
<title>R&#45;083</title>
<polygon fill="tomato" stroke="black" points="864,-618.59 864,-636.41 821.82,-649 762.18,-649 720,-636.41 720,-618.59 762.18,-606 821.82,-606 864,-618.59"/>
<text text-anchor="middle" x="792" y="-625" font-family="Arial" font-size="10.00">R&#45;083</text>
</g>
<!-- C&#45;0370&#45;&gt;R&#45;083 -->
<g id="edge41" class="edge">
<title>C&#45;0370&#45;&gt;R&#45;083</title>
<path fill="none" stroke="#4d4d4d" d="M583.04,-717C654.34,-717 762.67,-717 762.67,-717 762.67,-717 762.67,-656.17 762.67,-656.17"/>
<polygon fill="#4d4d4d" stroke="#4d4d4d" points="765.12,-656.17 762.67,-649.17 760.22,-656.17 765.12,-656.17"/>
</g>
<!-- S&#45;1254 -->
<g id="node31" class="node">
<title>S&#45;1254</title>
<polygon fill="mediumseagreen" stroke="black" points="72,-649 0,-627.5 72,-606 144,-627.5 72,-649"/>
<text text-anchor="middle" x="72" y="-625" font-family="Arial" font-size="10.00">S&#45;1254</text>
</g>
<!-- C&#45;0370&#45;&gt;S&#45;1254 -->
<g id="edge38" class="edge">
<title>C&#45;0370&#45;&gt;S&#45;1254</title>
<path fill="none" stroke="#4d4d4d" d="M453.16,-735C327.11,-735 72,-735 72,-735 72,-735 72,-656.25 72,-656.25"/>
<polygon fill="#4d4d4d" stroke="#4d4d4d" points="74.45,-656.25 72,-649.25 69.55,-656.25 74.45,-656.25"/>
</g>
<!-- S&#45;1256 -->
<g id="node33" class="node">
<title>S&#45;1256</title>
<polygon fill="mediumseagreen" stroke="black" points="252,-649 180,-627.5 252,-606 324,-627.5 252,-649"/>
<text text-anchor="middle" x="252" y="-625" font-family="Arial" font-size="10.00">S&#45;1256</text>
</g>
<!-- C&#45;0370&#45;&gt;S&#45;1256 -->
<g id="edge35" class="edge">
<title>C&#45;0370&#45;&gt;S&#45;1256</title>
<path fill="none" stroke="#4d4d4d" d="M454.5,-721C382.43,-721 278.5,-721 278.5,-721 278.5,-721 278.5,-648.3 278.5,-648.3"/>
<polygon fill="#4d4d4d" stroke="#4d4d4d" points="280.95,-648.3 278.5,-641.3 276.05,-648.3 280.95,-648.3"/>
</g>
<!-- S&#45;653 -->
<g id="node34" class="node">
<title>S&#45;653</title>
<polygon fill="mediumseagreen" stroke="black" points="432,-649 360,-627.5 432,-606 504,-627.5 432,-649"/>
<text text-anchor="middle" x="432" y="-625" font-family="Arial" font-size="10.00">S&#45;653</text>
</g>
<!-- C&#45;0370&#45;&gt;S&#45;653 -->
<g id="edge39" class="edge">
<title>C&#45;0370&#45;&gt;S&#45;653</title>
<path fill="none" stroke="#4d4d4d" d="M477,-711.37C477,-711.37 477,-642.78 477,-642.78"/>
<polygon fill="#4d4d4d" stroke="#4d4d4d" points="479.45,-642.78 477,-635.78 474.55,-642.78 479.45,-642.78"/>
</g>
<!-- S&#45;651 -->
<g id="node38" class="node">
<title>S&#45;651</title>
<polygon fill="mediumseagreen" stroke="black" points="612,-649 540,-627.5 612,-606 684,-627.5 612,-649"/>
<text text-anchor="middle" x="612" y="-625" font-family="Arial" font-size="10.00">S&#45;651</text>
</g>
<!-- C&#45;0370&#45;&gt;S&#45;651 -->
<g id="edge40" class="edge">
<title>C&#45;0370&#45;&gt;S&#45;651</title>
<path fill="none" stroke="#4d4d4d" d="M567,-711.37C567,-711.37 567,-642.78 567,-642.78"/>
<polygon fill="#4d4d4d" stroke="#4d4d4d" points="569.45,-642.78 567,-635.78 564.55,-642.78 569.45,-642.78"/>
</g>
<!-- S&#45;865 -->
<g id="node8" class="node">
<title>S&#45;865</title>
<polygon fill="mediumseagreen" stroke="black" points="739,-952 667,-930.5 739,-909 811,-930.5 739,-952"/>
<text text-anchor="middle" x="739" y="-928" font-family="Arial" font-size="10.00">S&#45;865</text>
</g>
<!-- S&#45;865&#45;&gt;S&#45;1374 -->
<g id="edge30" class="edge">
<title>S&#45;865&#45;&gt;S&#45;1374</title>
<path fill="none" stroke="#4d4d4d" d="M757.5,-914.27C757.5,-914.27 757.5,-852.69 757.5,-852.69"/>
<polygon fill="#4d4d4d" stroke="#4d4d4d" points="759.95,-852.69 757.5,-845.69 755.05,-852.69 759.95,-852.69"/>
</g>
<!-- C&#45;0368 -->
<g id="node9" class="node">
<title>C&#45;0368</title>
<ellipse fill="tomato" stroke="black" cx="919" cy="-930.5" rx="72" ry="21.5"/>
<text text-anchor="middle" x="919" y="-928" font-family="Arial" font-size="10.00">C&#45;0368</text>
</g>
<!-- C&#45;0368&#45;&gt;C&#45;0370 -->
<g id="edge47" class="edge">
<title>C&#45;0368&#45;&gt;C&#45;0370</title>
<path fill="none" stroke="blue" stroke-dasharray="5,2" d="M856,-919.93C856,-879.79 856,-739 856,-739 856,-739 592.22,-739 592.22,-739"/>
<polygon fill="blue" stroke="blue" points="592.22,-736.55 585.22,-739 592.22,-741.45 592.22,-736.55"/>
</g>
<!-- S&#45;2551 -->
<g id="node10" class="node">
<title>S&#45;2551</title>
<polygon fill="mediumseagreen" stroke="black" points="1586,-346 1514,-324.5 1586,-303 1658,-324.5 1586,-346"/>
<text text-anchor="middle" x="1586" y="-322" font-family="Arial" font-size="10.00">S&#45;2551</text>
</g>
<!-- S&#45;1400 -->
<g id="node11" class="node">
<title>S&#45;1400</title>
<polygon fill="mediumseagreen" stroke="black" points="1856,-245 1784,-223.5 1856,-202 1928,-223.5 1856,-245"/>
<text text-anchor="middle" x="1856" y="-221" font-family="Arial" font-size="10.00">S&#45;1400</text>
</g>
<!-- C&#45;0220 -->
<g id="node12" class="node">
<title>C&#45;0220</title>
<ellipse fill="mediumseagreen" stroke="black" cx="1946" cy="-425.5" rx="72" ry="21.5"/>
<text text-anchor="middle" x="1946" y="-423" font-family="Arial" font-size="10.00">C&#45;0220</text>
</g>
<!-- C&#45;1143 -->
<g id="node13" class="node">
<title>C&#45;1143</title>
<ellipse fill="mediumseagreen" stroke="black" cx="2306" cy="-324.5" rx="72" ry="21.5"/>
<text text-anchor="middle" x="2306" y="-322" font-family="Arial" font-size="10.00">C&#45;1143</text>
</g>
<!-- C&#45;0220&#45;&gt;C&#45;1143 -->
<g id="edge25" class="edge">
<title>C&#45;0220&#45;&gt;C&#45;1143</title>
<path fill="none" stroke="#4d4d4d" d="M2014.99,-432C2119.52,-432 2306,-432 2306,-432 2306,-432 2306,-353.25 2306,-353.25"/>
<polygon fill="#4d4d4d" stroke="#4d4d4d" points="2308.45,-353.25 2306,-346.25 2303.55,-353.25 2308.45,-353.25"/>
</g>
<!-- S&#45;1720 -->
<g id="node17" class="node">
<title>S&#45;1720</title>
<polygon fill="mediumseagreen" stroke="black" points="1766,-346 1694,-324.5 1766,-303 1838,-324.5 1766,-346"/>
<text text-anchor="middle" x="1766" y="-322" font-family="Arial" font-size="10.00">S&#45;1720</text>
</g>
<!-- C&#45;0220&#45;&gt;S&#45;1720 -->
<g id="edge26" class="edge">
<title>C&#45;0220&#45;&gt;S&#45;1720</title>
<path fill="none" stroke="#4d4d4d" d="M1873.98,-425C1834.3,-425 1793,-425 1793,-425 1793,-425 1793,-345.05 1793,-345.05"/>
<polygon fill="#4d4d4d" stroke="#4d4d4d" points="1795.45,-345.05 1793,-338.05 1790.55,-345.05 1795.45,-345.05"/>
</g>
<!-- S&#45;543 -->
<g id="node22" class="node">
<title>S&#45;543</title>
<polygon fill="mediumseagreen" stroke="black" points="1946,-346 1874,-324.5 1946,-303 2018,-324.5 1946,-346"/>
<text text-anchor="middle" x="1946" y="-322" font-family="Arial" font-size="10.00">S&#45;543</text>
</g>
<!-- C&#45;0220&#45;&gt;S&#45;543 -->
<g id="edge19" class="edge">
<title>C&#45;0220&#45;&gt;S&#45;543</title>
<path fill="none" stroke="#4d4d4d" d="M1946,-403.58C1946,-403.58 1946,-353.03 1946,-353.03"/>
<polygon fill="#4d4d4d" stroke="#4d4d4d" points="1948.45,-353.03 1946,-346.03 1943.55,-353.03 1948.45,-353.03"/>
</g>
<!-- S&#45;1814 -->
<g id="node30" class="node">
<title>S&#45;1814</title>
<polygon fill="mediumseagreen" stroke="black" points="2126,-346 2054,-324.5 2126,-303 2198,-324.5 2126,-346"/>
<text text-anchor="middle" x="2126" y="-322" font-family="Arial" font-size="10.00">S&#45;1814</text>
</g>
<!-- C&#45;0220&#45;&gt;S&#45;1814 -->
<g id="edge24" class="edge">
<title>C&#45;0220&#45;&gt;S&#45;1814</title>
<path fill="none" stroke="#4d4d4d" d="M2013.54,-418C2064.61,-418 2126,-418 2126,-418 2126,-418 2126,-353.19 2126,-353.19"/>
<polygon fill="#4d4d4d" stroke="#4d4d4d" points="2128.45,-353.19 2126,-346.19 2123.55,-353.19 2128.45,-353.19"/>
</g>
<!-- C&#45;0360 -->
<g id="node14" class="node">
<title>C&#45;0360</title>
<ellipse fill="mediumseagreen" stroke="black" cx="649" cy="-1132.5" rx="72" ry="21.5"/>
<text text-anchor="middle" x="649" y="-1130" font-family="Arial" font-size="10.00">C&#45;0360</text>
</g>
<!-- S&#45;330 -->
<g id="node20" class="node">
<title>S&#45;330</title>
<polygon fill="mediumseagreen" stroke="black" points="829,-1053 757,-1031.5 829,-1010 901,-1031.5 829,-1053"/>
<text text-anchor="middle" x="829" y="-1029" font-family="Arial" font-size="10.00">S&#45;330</text>
</g>
<!-- C&#45;0360&#45;&gt;S&#45;330 -->
<g id="edge3" class="edge">
<title>C&#45;0360&#45;&gt;S&#45;330</title>
<path fill="none" stroke="#4d4d4d" d="M721.19,-1132C772.01,-1132 831,-1132 831,-1132 831,-1132 831,-1059.81 831,-1059.81"/>
<polygon fill="#4d4d4d" stroke="#4d4d4d" points="833.45,-1059.81 831,-1052.81 828.55,-1059.81 833.45,-1059.81"/>
</g>
<!-- C&#45;1055 -->
<g id="node23" class="node">
<title>C&#45;1055</title>
<ellipse fill="mediumseagreen" stroke="black" cx="649" cy="-1031.5" rx="72" ry="21.5"/>
<text text-anchor="middle" x="649" y="-1029" font-family="Arial" font-size="10.00">C&#45;1055</text>
</g>
<!-- C&#45;0360&#45;&gt;C&#45;1055 -->
<g id="edge4" class="edge">
<title>C&#45;0360&#45;&gt;C&#45;1055</title>
<path fill="none" stroke="#4d4d4d" d="M649,-1110.58C649,-1110.58 649,-1060.03 649,-1060.03"/>
<polygon fill="#4d4d4d" stroke="#4d4d4d" points="651.45,-1060.03 649,-1053.03 646.55,-1060.03 651.45,-1060.03"/>
</g>
<!-- C&#45;1182 -->
<g id="node15" class="node">
<title>C&#45;1182</title>
<ellipse fill="mediumseagreen" stroke="black" cx="1496" cy="-829.5" rx="72" ry="21.5"/>
<text text-anchor="middle" x="1496" y="-827" font-family="Arial" font-size="10.00">C&#45;1182</text>
</g>
<!-- R&#45;064 -->
<g id="node36" class="node">
<title>R&#45;064</title>
<polygon fill="mediumseagreen" stroke="black" points="1568,-719.59 1568,-737.41 1525.82,-750 1466.18,-750 1424,-737.41 1424,-719.59 1466.18,-707 1525.82,-707 1568,-719.59"/>
<text text-anchor="middle" x="1496" y="-726" font-family="Arial" font-size="10.00">R&#45;064</text>
</g>
<!-- C&#45;1182&#45;&gt;R&#45;064 -->
<g id="edge12" class="edge">
<title>C&#45;1182&#45;&gt;R&#45;064</title>
<path fill="none" stroke="#4d4d4d" d="M1496,-807.58C1496,-807.58 1496,-757.03 1496,-757.03"/>
<polygon fill="#4d4d4d" stroke="#4d4d4d" points="1498.45,-757.03 1496,-750.03 1493.55,-757.03 1498.45,-757.03"/>
</g>
<!-- S&#45;1345 -->
<g id="node16" class="node">
<title>S&#45;1345</title>
<polygon fill="mediumseagreen" stroke="black" points="1099,-952 1027,-930.5 1099,-909 1171,-930.5 1099,-952"/>
<text text-anchor="middle" x="1099" y="-928" font-family="Arial" font-size="10.00">S&#45;1345</text>
</g>
<!-- S&#45;1809 -->
<g id="node32" class="node">
<title>S&#45;1809</title>
<polygon fill="mediumseagreen" stroke="black" points="972,-548 900,-526.5 972,-505 1044,-526.5 972,-548"/>
<text text-anchor="middle" x="972" y="-524" font-family="Arial" font-size="10.00">S&#45;1809</text>
</g>
<!-- S&#45;1255&#45;&gt;S&#45;1809 -->
<g id="edge37" class="edge">
<title>S&#45;1255&#45;&gt;S&#45;1809</title>
<path fill="none" stroke="#4d4d4d" d="M972,-605.58C972,-605.58 972,-555.03 972,-555.03"/>
<polygon fill="#4d4d4d" stroke="#4d4d4d" points="974.45,-555.03 972,-548.03 969.55,-555.03 974.45,-555.03"/>
</g>
<!-- C&#45;0219&#45;&gt;C&#45;0220 -->
<g id="edge18" class="edge">
<title>C&#45;0219&#45;&gt;C&#45;0220</title>
<path fill="none" stroke="#4d4d4d" d="M1748,-526C1827.98,-526 1946,-526 1946,-526 1946,-526 1946,-454.31 1946,-454.31"/>
<polygon fill="#4d4d4d" stroke="#4d4d4d" points="1948.45,-454.31 1946,-447.31 1943.55,-454.31 1948.45,-454.31"/>
</g>
<!-- SR&#45;0023 -->
<g id="node43" class="node">
<title>SR&#45;0023</title>
<polygon fill="mediumseagreen" stroke="black" points="1676,-447 1604,-425.5 1676,-404 1748,-425.5 1676,-447"/>
<text text-anchor="middle" x="1676" y="-423" font-family="Arial" font-size="10.00">SR&#45;0023</text>
</g>
<!-- C&#45;0219&#45;&gt;SR&#45;0023 -->
<g id="edge16" class="edge">
<title>C&#45;0219&#45;&gt;SR&#45;0023</title>
<path fill="none" stroke="#4d4d4d" d="M1676,-504.58C1676,-504.58 1676,-454.03 1676,-454.03"/>
<polygon fill="#4d4d4d" stroke="#4d4d4d" points="1678.45,-454.03 1676,-447.03 1673.55,-454.03 1678.45,-454.03"/>
</g>
<!-- S&#45;330&#45;&gt;S&#45;865 -->
<g id="edge29" class="edge">
<title>S&#45;330&#45;&gt;S&#45;865</title>
<path fill="none" stroke="#4d4d4d" d="M793,-1020.69C793,-1020.69 793,-943.12 793,-943.12"/>
<polygon fill="#4d4d4d" stroke="#4d4d4d" points="795.45,-943.12 793,-936.12 790.55,-943.12 795.45,-943.12"/>
</g>
<!-- S&#45;330&#45;&gt;C&#45;0368 -->
<g id="edge31" class="edge">
<title>S&#45;330&#45;&gt;C&#45;0368</title>
<path fill="none" stroke="#4d4d4d" d="M874,-1023.23C874,-1023.23 874,-954.52 874,-954.52"/>
<polygon fill="#4d4d4d" stroke="#4d4d4d" points="876.45,-954.52 874,-947.52 871.55,-954.52 876.45,-954.52"/>
</g>
<!-- S&#45;330&#45;&gt;S&#45;1345 -->
<g id="edge42" class="edge">
<title>S&#45;330&#45;&gt;S&#45;1345</title>
<path fill="none" stroke="#4d4d4d" d="M876.03,-1024C953.39,-1024 1099,-1024 1099,-1024 1099,-1024 1099,-959.19 1099,-959.19"/>
<polygon fill="#4d4d4d" stroke="#4d4d4d" points="1101.45,-959.19 1099,-952.19 1096.55,-959.19 1101.45,-959.19"/>
</g>
<!-- C&#45;0825 -->
<g id="node25" class="node">
<title>C&#45;0825</title>
<ellipse fill="mediumseagreen" stroke="black" cx="1279" cy="-930.5" rx="72" ry="21.5"/>
<text text-anchor="middle" x="1279" y="-928" font-family="Arial" font-size="10.00">C&#45;0825</text>
</g>
<!-- S&#45;330&#45;&gt;C&#45;0825 -->
<g id="edge6" class="edge">
<title>S&#45;330&#45;&gt;C&#45;0825</title>
<path fill="none" stroke="#4d4d4d" d="M879.31,-1038C996.74,-1038 1279,-1038 1279,-1038 1279,-1038 1279,-959.25 1279,-959.25"/>
<polygon fill="#4d4d4d" stroke="#4d4d4d" points="1281.45,-959.25 1279,-952.25 1276.55,-959.25 1281.45,-959.25"/>
</g>
<!-- C&#45;0369 -->
<g id="node42" class="node">
<title>C&#45;0369</title>
<ellipse fill="mediumseagreen" stroke="black" cx="559" cy="-930.5" rx="72" ry="21.5"/>
<text text-anchor="middle" x="559" y="-928" font-family="Arial" font-size="10.00">C&#45;0369</text>
</g>
<!-- S&#45;330&#45;&gt;C&#45;0369 -->
<g id="edge32" class="edge">
<title>S&#45;330&#45;&gt;C&#45;0369</title>
<path fill="none" stroke="#4d4d4d" d="M775,-1026.1C775,-1013.07 775,-981 775,-981 775,-981 604,-981 604,-981 604,-981 604,-954.32 604,-954.32"/>
<polygon fill="#4d4d4d" stroke="#4d4d4d" points="606.45,-954.32 604,-947.32 601.55,-954.32 606.45,-954.32"/>
</g>
<!-- S&#45;1399 -->
<g id="node21" class="node">
<title>S&#45;1399</title>
<polygon fill="mediumseagreen" stroke="black" points="2036,-245 1964,-223.5 2036,-202 2108,-223.5 2036,-245"/>
<text text-anchor="middle" x="2036" y="-221" font-family="Arial" font-size="10.00">S&#45;1399</text>
</g>
<!-- S&#45;545 -->
<g id="node27" class="node">
<title>S&#45;545</title>
<polygon fill="mediumseagreen" stroke="black" points="2036,-144 1964,-122.5 2036,-101 2108,-122.5 2036,-144"/>
<text text-anchor="middle" x="2036" y="-120" font-family="Arial" font-size="10.00">S&#45;545</text>
</g>
<!-- S&#45;1399&#45;&gt;S&#45;545 -->
<g id="edge21" class="edge">
<title>S&#45;1399&#45;&gt;S&#45;545</title>
<path fill="none" stroke="#4d4d4d" d="M2036,-201.58C2036,-201.58 2036,-151.03 2036,-151.03"/>
<polygon fill="#4d4d4d" stroke="#4d4d4d" points="2038.45,-151.03 2036,-144.03 2033.55,-151.03 2038.45,-151.03"/>
</g>
<!-- S&#45;543&#45;&gt;S&#45;1400 -->
<g id="edge23" class="edge">
<title>S&#45;543&#45;&gt;S&#45;1400</title>
<path fill="none" stroke="#4d4d4d" d="M1901,-316.23C1901,-316.23 1901,-238.6 1901,-238.6"/>
<polygon fill="#4d4d4d" stroke="#4d4d4d" points="1903.45,-238.6 1901,-231.6 1898.55,-238.6 1903.45,-238.6"/>
</g>
<!-- S&#45;543&#45;&gt;S&#45;1399 -->
<g id="edge20" class="edge">
<title>S&#45;543&#45;&gt;S&#45;1399</title>
<path fill="none" stroke="#4d4d4d" d="M1991,-316.23C1991,-316.23 1991,-238.6 1991,-238.6"/>
<polygon fill="#4d4d4d" stroke="#4d4d4d" points="1993.45,-238.6 1991,-231.6 1988.55,-238.6 1993.45,-238.6"/>
</g>
<!-- R&#45;258 -->
<g id="node24" class="node">
<title>R&#45;258</title>
<polygon fill="tomato" stroke="black" points="377,-921.59 377,-939.41 334.82,-952 275.18,-952 233,-939.41 233,-921.59 275.18,-909 334.82,-909 377,-921.59"/>
<text text-anchor="middle" x="305" y="-928" font-family="Arial" font-size="10.00">R&#45;258</text>
</g>
<!-- C&#45;1055&#45;&gt;R&#45;258 -->
<g id="edge5" class="edge">
<title>C&#45;1055&#45;&gt;R&#45;258</title>
<path fill="none" stroke="#4d4d4d" d="M576.95,-1031C491.93,-1031 362,-1031 362,-1031 362,-1031 362,-951.05 362,-951.05"/>
<polygon fill="#4d4d4d" stroke="#4d4d4d" points="364.45,-951.05 362,-944.05 359.55,-951.05 364.45,-951.05"/>
</g>
<!-- ext_circ_304_24_ -->
<g id="node44" class="node">
<title>ext_circ_304_24_</title>
<polygon fill="lightpink" stroke="darkorange" stroke-dasharray="5,2" points="529,-1360 385,-1360 385,-1317 529,-1317 529,-1360"/>
<text text-anchor="middle" x="457" y="-1341.5" font-family="Arial" font-size="10.00">Circuito:</text>
<text text-anchor="middle" x="457" y="-1330.5" font-family="Arial" font-size="10.00">304&#45;24&#45;</text>
</g>
<!-- R&#45;258&#45;&gt;ext_circ_304_24_ -->
<g id="edge43" class="edge">
<title>R&#45;258&#45;&gt;ext_circ_304_24_</title>
<path fill="none" stroke="darkorange" stroke-dasharray="5,2" d="M347,-948.54C347,-1027.4 347,-1338 347,-1338 347,-1338 377.86,-1338 377.86,-1338"/>
<polygon fill="darkorange" stroke="darkorange" points="377.86,-1340.45 384.86,-1338 377.86,-1335.55 377.86,-1340.45"/>
</g>
<!-- C&#45;0825&#45;&gt;C&#45;0783 -->
<g id="edge9" class="edge">
<title>C&#45;0825&#45;&gt;C&#45;0783</title>
<path fill="none" stroke="#4d4d4d" d="M1297.5,-909.57C1297.5,-909.57 1297.5,-857.4 1297.5,-857.4"/>
<polygon fill="#4d4d4d" stroke="#4d4d4d" points="1299.95,-857.4 1297.5,-850.4 1295.05,-857.4 1299.95,-857.4"/>
</g>
<!-- C&#45;0825&#45;&gt;C&#45;1182 -->
<g id="edge11" class="edge">
<title>C&#45;0825&#45;&gt;C&#45;1182</title>
<path fill="none" stroke="#4d4d4d" d="M1351.26,-930C1414.38,-930 1496,-930 1496,-930 1496,-930 1496,-858.31 1496,-858.31"/>
<polygon fill="#4d4d4d" stroke="#4d4d4d" points="1498.45,-858.31 1496,-851.31 1493.55,-858.31 1498.45,-858.31"/>
</g>
<!-- S&#45;1293 -->
<g id="node37" class="node">
<title>S&#45;1293</title>
<polygon fill="mediumseagreen" stroke="black" points="956,-851 884,-829.5 956,-808 1028,-829.5 956,-851"/>
<text text-anchor="middle" x="956" y="-827" font-family="Arial" font-size="10.00">S&#45;1293</text>
</g>
<!-- C&#45;0825&#45;&gt;S&#45;1293 -->
<g id="edge7" class="edge">
<title>C&#45;0825&#45;&gt;S&#45;1293</title>
<path fill="none" stroke="#4d4d4d" d="M1226,-915.89C1226,-900.98 1226,-880 1226,-880 1226,-880 1009,-880 1009,-880 1009,-880 1009,-842.29 1009,-842.29"/>
<polygon fill="#4d4d4d" stroke="#4d4d4d" points="1011.45,-842.29 1009,-835.29 1006.55,-842.29 1011.45,-842.29"/>
</g>
<!-- C&#45;1184 -->
<g id="node40" class="node">
<title>C&#45;1184</title>
<ellipse fill="tomato" stroke="black" cx="1136" cy="-829.5" rx="72" ry="21.5"/>
<text text-anchor="middle" x="1136" y="-827" font-family="Arial" font-size="10.00">C&#45;1184</text>
</g>
<!-- C&#45;0825&#45;&gt;C&#45;1184 -->
<g id="edge8" class="edge">
<title>C&#45;0825&#45;&gt;C&#45;1184</title>
<path fill="none" stroke="#4d4d4d" d="M1206.78,-930C1196.32,-930 1189,-930 1189,-930 1189,-930 1189,-851.33 1189,-851.33"/>
<polygon fill="#4d4d4d" stroke="#4d4d4d" points="1191.45,-851.33 1189,-844.33 1186.55,-851.33 1191.45,-851.33"/>
</g>
<!-- 304&#45;25&#45; -->
<g id="node26" class="node">
<title>304&#45;25&#45;</title>
<polygon fill="gold" stroke="black" points="721,-1329.59 721,-1347.41 678.82,-1360 619.18,-1360 577,-1347.41 577,-1329.59 619.18,-1317 678.82,-1317 721,-1329.59"/>
<polygon fill="none" stroke="black" points="725,-1326.61 725,-1350.39 679.41,-1364 618.59,-1364 573,-1350.39 573,-1326.61 618.59,-1313 679.41,-1313 725,-1326.61"/>
<text text-anchor="middle" x="649" y="-1336" font-family="Arial" font-size="10.00">304&#45;25&#45;</text>
</g>
<!-- S&#45;537 -->
<g id="node35" class="node">
<title>S&#45;537</title>
<polygon fill="mediumseagreen" stroke="black" points="649,-1255 577,-1233.5 649,-1212 721,-1233.5 649,-1255"/>
<text text-anchor="middle" x="649" y="-1231" font-family="Arial" font-size="10.00">S&#45;537</text>
</g>
<!-- 304&#45;25&#45;&#45;&gt;S&#45;537 -->
<g id="edge1" class="edge">
<title>304&#45;25&#45;&#45;&gt;S&#45;537</title>
<path fill="none" stroke="#4d4d4d" d="M649,-1312.81C649,-1312.81 649,-1262.03 649,-1262.03"/>
<polygon fill="#4d4d4d" stroke="#4d4d4d" points="651.45,-1262.03 649,-1255.03 646.55,-1262.03 651.45,-1262.03"/>
</g>
<!-- S&#45;2106 -->
<g id="node28" class="node">
<title>S&#45;2106</title>
<polygon fill="mediumseagreen" stroke="black" points="2036,-43 1964,-21.5 2036,0 2108,-21.5 2036,-43"/>
<text text-anchor="middle" x="2036" y="-19" font-family="Arial" font-size="10.00">S&#45;2106</text>
</g>
<!-- S&#45;545&#45;&gt;S&#45;2106 -->
<g id="edge22" class="edge">
<title>S&#45;545&#45;&gt;S&#45;2106</title>
<path fill="none" stroke="#4d4d4d" d="M2036,-100.58C2036,-100.58 2036,-50.03 2036,-50.03"/>
<polygon fill="#4d4d4d" stroke="#4d4d4d" points="2038.45,-50.03 2036,-43.03 2033.55,-50.03 2038.45,-50.03"/>
</g>
<!-- ext_circ_303_26_ -->
<g id="node46" class="node">
<title>ext_circ_303_26_</title>
<polygon fill="lightpink" stroke="darkorange" stroke-dasharray="5,2" points="332,-1360 188,-1360 188,-1317 332,-1317 332,-1360"/>
<text text-anchor="middle" x="260" y="-1341.5" font-family="Arial" font-size="10.00">Circuito:</text>
<text text-anchor="middle" x="260" y="-1330.5" font-family="Arial" font-size="10.00">303&#45;26&#45;</text>
</g>
<!-- R&#45;083&#45;&gt;ext_circ_303_26_ -->
<g id="edge48" class="edge">
<title>R&#45;083&#45;&gt;ext_circ_303_26_</title>
<path fill="none" stroke="darkorange" stroke-dasharray="5,2" d="M805.33,-649.21C805.33,-662.9 805.33,-678 805.33,-678 805.33,-678 210.5,-678 210.5,-678 210.5,-678 210.5,-1309.9 210.5,-1309.9"/>
<polygon fill="darkorange" stroke="darkorange" points="208.05,-1309.9 210.5,-1316.9 212.95,-1309.9 208.05,-1309.9"/>
</g>
<!-- S&#45;537&#45;&gt;C&#45;0360 -->
<g id="edge2" class="edge">
<title>S&#45;537&#45;&gt;C&#45;0360</title>
<path fill="none" stroke="#4d4d4d" d="M649,-1211.58C649,-1211.58 649,-1161.03 649,-1161.03"/>
<polygon fill="#4d4d4d" stroke="#4d4d4d" points="651.45,-1161.03 649,-1154.03 646.55,-1161.03 651.45,-1161.03"/>
</g>
<!-- R&#45;064&#45;&gt;C&#45;1183 -->
<g id="edge13" class="edge">
<title>R&#45;064&#45;&gt;C&#45;1183</title>
<path fill="none" stroke="#4d4d4d" d="M1496,-706.58C1496,-706.58 1496,-656.03 1496,-656.03"/>
<polygon fill="#4d4d4d" stroke="#4d4d4d" points="1498.45,-656.03 1496,-649.03 1493.55,-656.03 1498.45,-656.03"/>
</g>
<!-- R&#45;173&#45;&gt;ext_circ_304_24_ -->
<g id="edge45" class="edge">
<title>R&#45;173&#45;&gt;ext_circ_304_24_</title>
<path fill="none" stroke="darkorange" stroke-dasharray="5,2" d="M1292,-750.21C1292,-763.9 1292,-779 1292,-779 1292,-779 417.5,-779 417.5,-779 417.5,-779 417.5,-1309.91 417.5,-1309.91"/>
<polygon fill="darkorange" stroke="darkorange" points="415.05,-1309.91 417.5,-1316.91 419.95,-1309.91 415.05,-1309.91"/>
</g>
<!-- C&#45;1184&#45;&gt;C&#45;1183 -->
<g id="edge44" class="edge">
<title>C&#45;1184&#45;&gt;C&#45;1183</title>
<path fill="none" stroke="blue" stroke-dasharray="5,2" d="M1136,-807.83C1136,-756.93 1136,-634 1136,-634 1136,-634 1420.01,-634 1420.01,-634"/>
<polygon fill="blue" stroke="blue" points="1420.01,-636.45 1427.01,-634 1420.01,-631.55 1420.01,-636.45"/>
</g>
<!-- C&#45;0369&#45;&gt;R&#45;123 -->
<g id="edge33" class="edge">
<title>C&#45;0369&#45;&gt;R&#45;123</title>
<path fill="none" stroke="#4d4d4d" d="M540.5,-909.57C540.5,-909.57 540.5,-858.1 540.5,-858.1"/>
<polygon fill="#4d4d4d" stroke="#4d4d4d" points="542.95,-858.1 540.5,-851.1 538.05,-858.1 542.95,-858.1"/>
</g>
<!-- SR&#45;0023&#45;&gt;S&#45;2551 -->
<g id="edge17" class="edge">
<title>SR&#45;0023&#45;&gt;S&#45;2551</title>
<path fill="none" stroke="#4d4d4d" d="M1631,-417.23C1631,-417.23 1631,-339.6 1631,-339.6"/>
<polygon fill="#4d4d4d" stroke="#4d4d4d" points="1633.45,-339.6 1631,-332.6 1628.55,-339.6 1633.45,-339.6"/>
</g>
</g>
</svg>
