<?xml version="1.0" encoding="UTF-8" standalone="no"?>
<!DOCTYPE svg PUBLIC "-//W3C//DTD SVG 1.1//EN"
 "http://www.w3.org/Graphics/SVG/1.1/DTD/svg11.dtd">
<!-- Generated by graphviz version 2.50.0 (0)
 -->
<!-- Title: Grafo_Circuito_110_22_ Pages: 1 -->
<svg width="1768pt" height="1473pt"
 viewBox="0.00 0.00 1768.00 1473.00" xmlns="http://www.w3.org/2000/svg" xmlns:xlink="http://www.w3.org/1999/xlink">
<g id="graph0" class="graph" transform="scale(1 1) rotate(0) translate(4 1469)">
<title>Grafo_Circuito_110_22_</title>
<polygon fill="white" stroke="transparent" points="-4,4 -4,-1469 1764,-1469 1764,4 -4,4"/>
<!-- S&#45;2472 -->
<g id="node1" class="node">
<title>S&#45;2472</title>
<polygon fill="mediumseagreen" stroke="black" points="702,-952 630,-930.5 702,-909 774,-930.5 702,-952"/>
<text text-anchor="middle" x="702" y="-928" font-family="Arial" font-size="10.00">S&#45;2472</text>
</g>
<!-- R&#45;025 -->
<g id="node2" class="node">
<title>R&#45;025</title>
<polygon fill="tomato" stroke="black" points="1607,-719.59 1607,-737.41 1564.82,-750 1505.18,-750 1463,-737.41 1463,-719.59 1505.18,-707 1564.82,-707 1607,-719.59"/>
<text text-anchor="middle" x="1535" y="-726" font-family="Arial" font-size="10.00">R&#45;025</text>
</g>
<!-- ext_circ_111_25_ -->
<g id="node43" class="node">
<title>ext_circ_111_25_</title>
<polygon fill="lightpink" stroke="darkorange" stroke-dasharray="5,2" points="1517,-649 1373,-649 1373,-606 1517,-606 1517,-649"/>
<text text-anchor="middle" x="1445" y="-630.5" font-family="Arial" font-size="10.00">Circuito:</text>
<text text-anchor="middle" x="1445" y="-619.5" font-family="Arial" font-size="10.00">111&#45;25&#45;</text>
</g>
<!-- R&#45;025&#45;&gt;ext_circ_111_25_ -->
<g id="edge47" class="edge">
<title>R&#45;025&#45;&gt;ext_circ_111_25_</title>
<path fill="none" stroke="darkorange" stroke-dasharray="5,2" d="M1490,-711.37C1490,-711.37 1490,-656.31 1490,-656.31"/>
<polygon fill="darkorange" stroke="darkorange" points="1492.45,-656.31 1490,-649.31 1487.55,-656.31 1492.45,-656.31"/>
</g>
<!-- C&#45;0519 -->
<g id="node3" class="node">
<title>C&#45;0519</title>
<ellipse fill="mediumseagreen" stroke="black" cx="702" cy="-829.5" rx="72" ry="21.5"/>
<text text-anchor="middle" x="702" y="-827" font-family="Arial" font-size="10.00">C&#45;0519</text>
</g>
<!-- R&#45;032 -->
<g id="node16" class="node">
<title>R&#45;032</title>
<polygon fill="mediumseagreen" stroke="black" points="774,-719.59 774,-737.41 731.82,-750 672.18,-750 630,-737.41 630,-719.59 672.18,-707 731.82,-707 774,-719.59"/>
<text text-anchor="middle" x="702" y="-726" font-family="Arial" font-size="10.00">R&#45;032</text>
</g>
<!-- C&#45;0519&#45;&gt;R&#45;032 -->
<g id="edge11" class="edge">
<title>C&#45;0519&#45;&gt;R&#45;032</title>
<path fill="none" stroke="#4d4d4d" d="M702,-807.58C702,-807.58 702,-757.03 702,-757.03"/>
<polygon fill="#4d4d4d" stroke="#4d4d4d" points="704.45,-757.03 702,-750.03 699.55,-757.03 704.45,-757.03"/>
</g>
<!-- R&#45;162 -->
<g id="node4" class="node">
<title>R&#45;162</title>
<polygon fill="tomato" stroke="black" points="737,-113.59 737,-131.41 694.82,-144 635.18,-144 593,-131.41 593,-113.59 635.18,-101 694.82,-101 737,-113.59"/>
<text text-anchor="middle" x="665" y="-120" font-family="Arial" font-size="10.00">R&#45;162</text>
</g>
<!-- ext_circ_110_24_ -->
<g id="node42" class="node">
<title>ext_circ_110_24_</title>
<polygon fill="lightpink" stroke="darkorange" stroke-dasharray="5,2" points="917,-43 773,-43 773,0 917,0 917,-43"/>
<text text-anchor="middle" x="845" y="-24.5" font-family="Arial" font-size="10.00">Circuito:</text>
<text text-anchor="middle" x="845" y="-13.5" font-family="Arial" font-size="10.00">110&#45;24&#45;</text>
</g>
<!-- R&#45;162&#45;&gt;ext_circ_110_24_ -->
<g id="edge45" class="edge">
<title>R&#45;162&#45;&gt;ext_circ_110_24_</title>
<path fill="none" stroke="darkorange" stroke-dasharray="5,2" d="M665,-100.97C665,-71.18 665,-21 665,-21 665,-21 765.82,-21 765.82,-21"/>
<polygon fill="darkorange" stroke="darkorange" points="765.82,-23.45 772.82,-21 765.82,-18.55 765.82,-23.45"/>
</g>
<!-- C&#45;0328 -->
<g id="node5" class="node">
<title>C&#45;0328</title>
<ellipse fill="mediumseagreen" stroke="black" cx="882" cy="-930.5" rx="72" ry="21.5"/>
<text text-anchor="middle" x="882" y="-928" font-family="Arial" font-size="10.00">C&#45;0328</text>
</g>
<!-- C&#45;0328&#45;&gt;C&#45;0519 -->
<g id="edge10" class="edge">
<title>C&#45;0328&#45;&gt;C&#45;0519</title>
<path fill="none" stroke="#4d4d4d" d="M814.2,-923C804.64,-923 798,-923 798,-923 798,-923 798,-829 798,-829 798,-829 781.27,-829 781.27,-829"/>
<polygon fill="#4d4d4d" stroke="#4d4d4d" points="781.27,-826.55 774.27,-829 781.27,-831.45 781.27,-826.55"/>
</g>
<!-- C&#45;0520 -->
<g id="node11" class="node">
<title>C&#45;0520</title>
<ellipse fill="tomato" stroke="black" cx="882" cy="-829.5" rx="72" ry="21.5"/>
<text text-anchor="middle" x="882" y="-827" font-family="Arial" font-size="10.00">C&#45;0520</text>
</g>
<!-- C&#45;0328&#45;&gt;C&#45;0520 -->
<g id="edge9" class="edge">
<title>C&#45;0328&#45;&gt;C&#45;0520</title>
<path fill="none" stroke="#4d4d4d" d="M882,-908.58C882,-908.58 882,-858.03 882,-858.03"/>
<polygon fill="#4d4d4d" stroke="#4d4d4d" points="884.45,-858.03 882,-851.03 879.55,-858.03 884.45,-858.03"/>
</g>
<!-- S&#45;191 -->
<g id="node6" class="node">
<title>S&#45;191</title>
<polygon fill="mediumseagreen" stroke="black" points="1062,-851 990,-829.5 1062,-808 1134,-829.5 1062,-851"/>
<text text-anchor="middle" x="1062" y="-827" font-family="Arial" font-size="10.00">S&#45;191</text>
</g>
<!-- S&#45;056 -->
<g id="node7" class="node">
<title>S&#45;056</title>
<polygon fill="mediumseagreen" stroke="black" points="342,-1053 270,-1031.5 342,-1010 414,-1031.5 342,-1053"/>
<text text-anchor="middle" x="342" y="-1029" font-family="Arial" font-size="10.00">S&#45;056</text>
</g>
<!-- 110&#45;22&#45; -->
<g id="node8" class="node">
<title>110&#45;22&#45;</title>
<polygon fill="gold" stroke="black" points="864,-1430.59 864,-1448.41 821.82,-1461 762.18,-1461 720,-1448.41 720,-1430.59 762.18,-1418 821.82,-1418 864,-1430.59"/>
<polygon fill="none" stroke="black" points="868,-1427.61 868,-1451.39 822.41,-1465 761.59,-1465 716,-1451.39 716,-1427.61 761.59,-1414 822.41,-1414 868,-1427.61"/>
<text text-anchor="middle" x="792" y="-1437" font-family="Arial" font-size="10.00">110&#45;22&#45;</text>
</g>
<!-- C&#45;0092 -->
<g id="node27" class="node">
<title>C&#45;0092</title>
<ellipse fill="mediumseagreen" stroke="black" cx="792" cy="-1334.5" rx="72" ry="21.5"/>
<text text-anchor="middle" x="792" y="-1332" font-family="Arial" font-size="10.00">C&#45;0092</text>
</g>
<!-- 110&#45;22&#45;&#45;&gt;C&#45;0092 -->
<g id="edge1" class="edge">
<title>110&#45;22&#45;&#45;&gt;C&#45;0092</title>
<path fill="none" stroke="#4d4d4d" d="M792,-1413.81C792,-1413.81 792,-1363.03 792,-1363.03"/>
<polygon fill="#4d4d4d" stroke="#4d4d4d" points="794.45,-1363.03 792,-1356.03 789.55,-1363.03 794.45,-1363.03"/>
</g>
<!-- C&#45;0062 -->
<g id="node9" class="node">
<title>C&#45;0062</title>
<ellipse fill="mediumseagreen" stroke="black" cx="612" cy="-1132.5" rx="72" ry="21.5"/>
<text text-anchor="middle" x="612" y="-1130" font-family="Arial" font-size="10.00">C&#45;0062</text>
</g>
<!-- C&#45;0062&#45;&gt;S&#45;056 -->
<g id="edge40" class="edge">
<title>C&#45;0062&#45;&gt;S&#45;056</title>
<path fill="none" stroke="#4d4d4d" d="M540,-1132C460.02,-1132 342,-1132 342,-1132 342,-1132 342,-1060.31 342,-1060.31"/>
<polygon fill="#4d4d4d" stroke="#4d4d4d" points="344.45,-1060.31 342,-1053.31 339.55,-1060.31 344.45,-1060.31"/>
</g>
<!-- S&#45;1729 -->
<g id="node21" class="node">
<title>S&#45;1729</title>
<polygon fill="mediumseagreen" stroke="black" points="522,-1053 450,-1031.5 522,-1010 594,-1031.5 522,-1053"/>
<text text-anchor="middle" x="522" y="-1029" font-family="Arial" font-size="10.00">S&#45;1729</text>
</g>
<!-- C&#45;0062&#45;&gt;S&#45;1729 -->
<g id="edge39" class="edge">
<title>C&#45;0062&#45;&gt;S&#45;1729</title>
<path fill="none" stroke="#4d4d4d" d="M567,-1115.37C567,-1115.37 567,-1046.78 567,-1046.78"/>
<polygon fill="#4d4d4d" stroke="#4d4d4d" points="569.45,-1046.78 567,-1039.78 564.55,-1046.78 569.45,-1046.78"/>
</g>
<!-- S&#45;2475 -->
<g id="node35" class="node">
<title>S&#45;2475</title>
<polygon fill="mediumseagreen" stroke="black" points="702,-1053 630,-1031.5 702,-1010 774,-1031.5 702,-1053"/>
<text text-anchor="middle" x="702" y="-1029" font-family="Arial" font-size="10.00">S&#45;2475</text>
</g>
<!-- C&#45;0062&#45;&gt;S&#45;2475 -->
<g id="edge38" class="edge">
<title>C&#45;0062&#45;&gt;S&#45;2475</title>
<path fill="none" stroke="#4d4d4d" d="M648,-1113.5C648,-1113.5 648,-1043.97 648,-1043.97"/>
<polygon fill="#4d4d4d" stroke="#4d4d4d" points="650.45,-1043.97 648,-1036.97 645.55,-1043.97 650.45,-1043.97"/>
</g>
<!-- C&#45;0524 -->
<g id="node40" class="node">
<title>C&#45;0524</title>
<ellipse fill="mediumseagreen" stroke="black" cx="882" cy="-1031.5" rx="72" ry="21.5"/>
<text text-anchor="middle" x="882" y="-1029" font-family="Arial" font-size="10.00">C&#45;0524</text>
</g>
<!-- C&#45;0062&#45;&gt;C&#45;0524 -->
<g id="edge6" class="edge">
<title>C&#45;0062&#45;&gt;C&#45;0524</title>
<path fill="none" stroke="#4d4d4d" d="M666,-1118.16C666,-1103.23 666,-1082 666,-1082 666,-1082 837,-1082 837,-1082 837,-1082 837,-1055.32 837,-1055.32"/>
<polygon fill="#4d4d4d" stroke="#4d4d4d" points="839.45,-1055.32 837,-1048.32 834.55,-1055.32 839.45,-1055.32"/>
</g>
<!-- C&#45;0780 -->
<g id="node10" class="node">
<title>C&#45;0780</title>
<ellipse fill="mediumseagreen" stroke="black" cx="894" cy="-425.5" rx="72" ry="21.5"/>
<text text-anchor="middle" x="894" y="-423" font-family="Arial" font-size="10.00">C&#45;0780</text>
</g>
<!-- C&#45;0518 -->
<g id="node19" class="node">
<title>C&#45;0518</title>
<ellipse fill="mediumseagreen" stroke="black" cx="702" cy="-627.5" rx="72" ry="21.5"/>
<text text-anchor="middle" x="702" y="-625" font-family="Arial" font-size="10.00">C&#45;0518</text>
</g>
<!-- C&#45;0520&#45;&gt;C&#45;0518 -->
<g id="edge41" class="edge">
<title>C&#45;0520&#45;&gt;C&#45;0518</title>
<path fill="none" stroke="blue" stroke-dasharray="5,2" d="M837,-812.68C837,-766.31 837,-640 837,-640 837,-640 767.82,-640 767.82,-640"/>
<polygon fill="blue" stroke="blue" points="767.82,-637.55 760.82,-640 767.82,-642.45 767.82,-637.55"/>
</g>
<!-- S&#45;1609 -->
<g id="node12" class="node">
<title>S&#45;1609</title>
<polygon fill="mediumseagreen" stroke="black" points="72,-548 0,-526.5 72,-505 144,-526.5 72,-548"/>
<text text-anchor="middle" x="72" y="-524" font-family="Arial" font-size="10.00">S&#45;1609</text>
</g>
<!-- C&#45;0743 -->
<g id="node13" class="node">
<title>C&#45;0743</title>
<ellipse fill="mediumseagreen" stroke="black" cx="665" cy="-223.5" rx="72" ry="21.5"/>
<text text-anchor="middle" x="665" y="-221" font-family="Arial" font-size="10.00">C&#45;0743</text>
</g>
<!-- C&#45;0743&#45;&gt;R&#45;162 -->
<g id="edge30" class="edge">
<title>C&#45;0743&#45;&gt;R&#45;162</title>
<path fill="none" stroke="#4d4d4d" d="M665,-201.58C665,-201.58 665,-151.03 665,-151.03"/>
<polygon fill="#4d4d4d" stroke="#4d4d4d" points="667.45,-151.03 665,-144.03 662.55,-151.03 667.45,-151.03"/>
</g>
<!-- S&#45;2288 -->
<g id="node14" class="node">
<title>S&#45;2288</title>
<polygon fill="mediumseagreen" stroke="black" points="1508,-447 1436,-425.5 1508,-404 1580,-425.5 1508,-447"/>
<text text-anchor="middle" x="1508" y="-423" font-family="Arial" font-size="10.00">S&#45;2288</text>
</g>
<!-- C&#45;0779 -->
<g id="node15" class="node">
<title>C&#45;0779</title>
<ellipse fill="tomato" stroke="black" cx="1008" cy="-324.5" rx="72" ry="21.5"/>
<text text-anchor="middle" x="1008" y="-322" font-family="Arial" font-size="10.00">C&#45;0779</text>
</g>
<!-- C&#45;0779&#45;&gt;ext_circ_110_24_ -->
<g id="edge42" class="edge">
<title>C&#45;0779&#45;&gt;ext_circ_110_24_</title>
<path fill="none" stroke="darkorange" stroke-dasharray="5,2" d="M1008,-302.67C1008,-233.08 1008,-21 1008,-21 1008,-21 924.44,-21 924.44,-21"/>
<polygon fill="darkorange" stroke="darkorange" points="924.44,-18.55 917.44,-21 924.44,-23.45 924.44,-18.55"/>
</g>
<!-- R&#45;032&#45;&gt;C&#45;0518 -->
<g id="edge12" class="edge">
<title>R&#45;032&#45;&gt;C&#45;0518</title>
<path fill="none" stroke="#4d4d4d" d="M702,-706.58C702,-706.58 702,-656.03 702,-656.03"/>
<polygon fill="#4d4d4d" stroke="#4d4d4d" points="704.45,-656.03 702,-649.03 699.55,-656.03 704.45,-656.03"/>
</g>
<!-- S&#45;189 -->
<g id="node17" class="node">
<title>S&#45;189</title>
<polygon fill="mediumseagreen" stroke="black" points="252,-548 180,-526.5 252,-505 324,-526.5 252,-548"/>
<text text-anchor="middle" x="252" y="-524" font-family="Arial" font-size="10.00">S&#45;189</text>
</g>
<!-- S&#45;190 -->
<g id="node18" class="node">
<title>S&#45;190</title>
<polygon fill="mediumseagreen" stroke="black" points="1242,-851 1170,-829.5 1242,-808 1314,-829.5 1242,-851"/>
<text text-anchor="middle" x="1242" y="-827" font-family="Arial" font-size="10.00">S&#45;190</text>
</g>
<!-- C&#45;0518&#45;&gt;S&#45;1609 -->
<g id="edge17" class="edge">
<title>C&#45;0518&#45;&gt;S&#45;1609</title>
<path fill="none" stroke="#4d4d4d" d="M639,-638C479.44,-638 72,-638 72,-638 72,-638 72,-555.26 72,-555.26"/>
<polygon fill="#4d4d4d" stroke="#4d4d4d" points="74.45,-555.26 72,-548.26 69.55,-555.26 74.45,-555.26"/>
</g>
<!-- C&#45;0518&#45;&gt;S&#45;189 -->
<g id="edge31" class="edge">
<title>C&#45;0518&#45;&gt;S&#45;189</title>
<path fill="none" stroke="#4d4d4d" d="M629.59,-627C513.1,-627 297,-627 297,-627 297,-627 297,-541.72 297,-541.72"/>
<polygon fill="#4d4d4d" stroke="#4d4d4d" points="299.45,-541.72 297,-534.72 294.55,-541.72 299.45,-541.72"/>
</g>
<!-- S&#45;188 -->
<g id="node22" class="node">
<title>S&#45;188</title>
<polygon fill="mediumseagreen" stroke="black" points="432,-548 360,-526.5 432,-505 504,-526.5 432,-548"/>
<text text-anchor="middle" x="432" y="-524" font-family="Arial" font-size="10.00">S&#45;188</text>
</g>
<!-- C&#45;0518&#45;&gt;S&#45;188 -->
<g id="edge16" class="edge">
<title>C&#45;0518&#45;&gt;S&#45;188</title>
<path fill="none" stroke="#4d4d4d" d="M641.11,-616C574.48,-616 477,-616 477,-616 477,-616 477,-541.76 477,-541.76"/>
<polygon fill="#4d4d4d" stroke="#4d4d4d" points="479.45,-541.76 477,-534.76 474.55,-541.76 479.45,-541.76"/>
</g>
<!-- C&#45;0810 -->
<g id="node25" class="node">
<title>C&#45;0810</title>
<ellipse fill="mediumseagreen" stroke="black" cx="612" cy="-526.5" rx="72" ry="21.5"/>
<text text-anchor="middle" x="612" y="-524" font-family="Arial" font-size="10.00">C&#45;0810</text>
</g>
<!-- C&#45;0518&#45;&gt;C&#45;0810 -->
<g id="edge26" class="edge">
<title>C&#45;0518&#45;&gt;C&#45;0810</title>
<path fill="none" stroke="#4d4d4d" d="M657,-610.37C657,-610.37 657,-550.38 657,-550.38"/>
<polygon fill="#4d4d4d" stroke="#4d4d4d" points="659.45,-550.38 657,-543.38 654.55,-550.38 659.45,-550.38"/>
</g>
<!-- S&#45;1608 -->
<g id="node32" class="node">
<title>S&#45;1608</title>
<polygon fill="mediumseagreen" stroke="black" points="792,-548 720,-526.5 792,-505 864,-526.5 792,-548"/>
<text text-anchor="middle" x="792" y="-524" font-family="Arial" font-size="10.00">S&#45;1608</text>
</g>
<!-- C&#45;0518&#45;&gt;S&#45;1608 -->
<g id="edge18" class="edge">
<title>C&#45;0518&#45;&gt;S&#45;1608</title>
<path fill="none" stroke="#4d4d4d" d="M747,-610.37C747,-610.37 747,-541.78 747,-541.78"/>
<polygon fill="#4d4d4d" stroke="#4d4d4d" points="749.45,-541.78 747,-534.78 744.55,-541.78 749.45,-541.78"/>
</g>
<!-- C&#45;0811 -->
<g id="node34" class="node">
<title>C&#45;0811</title>
<ellipse fill="tomato" stroke="black" cx="972" cy="-526.5" rx="72" ry="21.5"/>
<text text-anchor="middle" x="972" y="-524" font-family="Arial" font-size="10.00">C&#45;0811</text>
</g>
<!-- C&#45;0518&#45;&gt;C&#45;0811 -->
<g id="edge25" class="edge">
<title>C&#45;0518&#45;&gt;C&#45;0811</title>
<path fill="none" stroke="#4d4d4d" d="M758.2,-614C824.84,-614 927,-614 927,-614 927,-614 927,-550.37 927,-550.37"/>
<polygon fill="#4d4d4d" stroke="#4d4d4d" points="929.45,-550.37 927,-543.37 924.55,-550.37 929.45,-550.37"/>
</g>
<!-- C&#45;0150 -->
<g id="node36" class="node">
<title>C&#45;0150</title>
<ellipse fill="mediumseagreen" stroke="black" cx="1152" cy="-526.5" rx="72" ry="21.5"/>
<text text-anchor="middle" x="1152" y="-524" font-family="Arial" font-size="10.00">C&#45;0150</text>
</g>
<!-- C&#45;0518&#45;&gt;C&#45;0150 -->
<g id="edge20" class="edge">
<title>C&#45;0518&#45;&gt;C&#45;0150</title>
<path fill="none" stroke="#4d4d4d" d="M772.55,-623C888.58,-623 1107,-623 1107,-623 1107,-623 1107,-550.31 1107,-550.31"/>
<polygon fill="#4d4d4d" stroke="#4d4d4d" points="1109.45,-550.31 1107,-543.31 1104.55,-550.31 1109.45,-550.31"/>
</g>
<!-- S&#45;1852 -->
<g id="node39" class="node">
<title>S&#45;1852</title>
<polygon fill="mediumseagreen" stroke="black" points="1508,-548 1436,-526.5 1508,-505 1580,-526.5 1508,-548"/>
<text text-anchor="middle" x="1508" y="-524" font-family="Arial" font-size="10.00">S&#45;1852</text>
</g>
<!-- C&#45;0518&#45;&gt;S&#45;1852 -->
<g id="edge13" class="edge">
<title>C&#45;0518&#45;&gt;S&#45;1852</title>
<path fill="none" stroke="#4d4d4d" d="M773.16,-631C919.38,-631 1240,-631 1240,-631 1240,-631 1240,-533 1240,-533 1240,-533 1450.59,-533 1450.59,-533"/>
<polygon fill="#4d4d4d" stroke="#4d4d4d" points="1450.59,-535.45 1457.59,-533 1450.59,-530.55 1450.59,-535.45"/>
</g>
<!-- S&#45;2036 -->
<g id="node20" class="node">
<title>S&#45;2036</title>
<polygon fill="mediumseagreen" stroke="black" points="792,-1154 720,-1132.5 792,-1111 864,-1132.5 792,-1154"/>
<text text-anchor="middle" x="792" y="-1130" font-family="Arial" font-size="10.00">S&#45;2036</text>
</g>
<!-- C&#45;1278 -->
<g id="node23" class="node">
<title>C&#45;1278</title>
<ellipse fill="tomato" stroke="black" cx="1355" cy="-728.5" rx="72" ry="21.5"/>
<text text-anchor="middle" x="1355" y="-726" font-family="Arial" font-size="10.00">C&#45;1278</text>
</g>
<!-- C&#45;1278&#45;&gt;ext_circ_111_25_ -->
<g id="edge46" class="edge">
<title>C&#45;1278&#45;&gt;ext_circ_111_25_</title>
<path fill="none" stroke="darkorange" stroke-dasharray="5,2" d="M1400,-711.37C1400,-711.37 1400,-656.31 1400,-656.31"/>
<polygon fill="darkorange" stroke="darkorange" points="1402.45,-656.31 1400,-649.31 1397.55,-656.31 1402.45,-656.31"/>
</g>
<!-- R&#45;102 -->
<g id="node24" class="node">
<title>R&#45;102</title>
<polygon fill="mediumseagreen" stroke="black" points="1314,-921.59 1314,-939.41 1271.82,-952 1212.18,-952 1170,-939.41 1170,-921.59 1212.18,-909 1271.82,-909 1314,-921.59"/>
<text text-anchor="middle" x="1242" y="-928" font-family="Arial" font-size="10.00">R&#45;102</text>
</g>
<!-- R&#45;102&#45;&gt;S&#45;191 -->
<g id="edge33" class="edge">
<title>R&#45;102&#45;&gt;S&#45;191</title>
<path fill="none" stroke="#4d4d4d" d="M1169.98,-930C1130.3,-930 1089,-930 1089,-930 1089,-930 1089,-850.05 1089,-850.05"/>
<polygon fill="#4d4d4d" stroke="#4d4d4d" points="1091.45,-850.05 1089,-843.05 1086.55,-850.05 1091.45,-850.05"/>
</g>
<!-- R&#45;102&#45;&gt;S&#45;190 -->
<g id="edge34" class="edge">
<title>R&#45;102&#45;&gt;S&#45;190</title>
<path fill="none" stroke="#4d4d4d" d="M1242,-908.58C1242,-908.58 1242,-858.03 1242,-858.03"/>
<polygon fill="#4d4d4d" stroke="#4d4d4d" points="1244.45,-858.03 1242,-851.03 1239.55,-858.03 1244.45,-858.03"/>
</g>
<!-- R&#45;102&#45;&gt;C&#45;1278 -->
<g id="edge35" class="edge">
<title>R&#45;102&#45;&gt;C&#45;1278</title>
<path fill="none" stroke="#4d4d4d" d="M1314.14,-923C1343.43,-923 1370.5,-923 1370.5,-923 1370.5,-923 1370.5,-756.69 1370.5,-756.69"/>
<polygon fill="#4d4d4d" stroke="#4d4d4d" points="1372.95,-756.69 1370.5,-749.69 1368.05,-756.69 1372.95,-756.69"/>
</g>
<!-- C&#45;1280 -->
<g id="node29" class="node">
<title>C&#45;1280</title>
<ellipse fill="mediumseagreen" stroke="black" cx="1509" cy="-829.5" rx="72" ry="21.5"/>
<text text-anchor="middle" x="1509" y="-827" font-family="Arial" font-size="10.00">C&#45;1280</text>
</g>
<!-- R&#45;102&#45;&gt;C&#45;1280 -->
<g id="edge36" class="edge">
<title>R&#45;102&#45;&gt;C&#45;1280</title>
<path fill="none" stroke="#4d4d4d" d="M1314.25,-937C1393.33,-937 1509,-937 1509,-937 1509,-937 1509,-858.25 1509,-858.25"/>
<polygon fill="#4d4d4d" stroke="#4d4d4d" points="1511.45,-858.25 1509,-851.25 1506.55,-858.25 1511.45,-858.25"/>
</g>
<!-- R&#45;181 -->
<g id="node26" class="node">
<title>R&#45;181</title>
<polygon fill="mediumseagreen" stroke="black" points="688,-416.59 688,-434.41 645.82,-447 586.18,-447 544,-434.41 544,-416.59 586.18,-404 645.82,-404 688,-416.59"/>
<text text-anchor="middle" x="616" y="-423" font-family="Arial" font-size="10.00">R&#45;181</text>
</g>
<!-- C&#45;0810&#45;&gt;R&#45;181 -->
<g id="edge27" class="edge">
<title>C&#45;0810&#45;&gt;R&#45;181</title>
<path fill="none" stroke="#4d4d4d" d="M614,-504.58C614,-504.58 614,-454.03 614,-454.03"/>
<polygon fill="#4d4d4d" stroke="#4d4d4d" points="616.45,-454.03 614,-447.03 611.55,-454.03 616.45,-454.03"/>
</g>
<!-- C&#45;0812 -->
<g id="node38" class="node">
<title>C&#45;0812</title>
<ellipse fill="mediumseagreen" stroke="black" cx="665" cy="-324.5" rx="72" ry="21.5"/>
<text text-anchor="middle" x="665" y="-322" font-family="Arial" font-size="10.00">C&#45;0812</text>
</g>
<!-- R&#45;181&#45;&gt;C&#45;0812 -->
<g id="edge28" class="edge">
<title>R&#45;181&#45;&gt;C&#45;0812</title>
<path fill="none" stroke="#4d4d4d" d="M640.5,-403.58C640.5,-403.58 640.5,-352 640.5,-352"/>
<polygon fill="#4d4d4d" stroke="#4d4d4d" points="642.95,-352 640.5,-345 638.05,-352 642.95,-352"/>
</g>
<!-- S&#45;1831 -->
<g id="node30" class="node">
<title>S&#45;1831</title>
<polygon fill="mediumseagreen" stroke="black" points="792,-1255 720,-1233.5 792,-1212 864,-1233.5 792,-1255"/>
<text text-anchor="middle" x="792" y="-1231" font-family="Arial" font-size="10.00">S&#45;1831</text>
</g>
<!-- C&#45;0092&#45;&gt;S&#45;1831 -->
<g id="edge2" class="edge">
<title>C&#45;0092&#45;&gt;S&#45;1831</title>
<path fill="none" stroke="#4d4d4d" d="M792,-1312.58C792,-1312.58 792,-1262.03 792,-1262.03"/>
<polygon fill="#4d4d4d" stroke="#4d4d4d" points="794.45,-1262.03 792,-1255.03 789.55,-1262.03 794.45,-1262.03"/>
</g>
<!-- S&#45;138 -->
<g id="node28" class="node">
<title>S&#45;138</title>
<polygon fill="mediumseagreen" stroke="black" points="972,-1154 900,-1132.5 972,-1111 1044,-1132.5 972,-1154"/>
<text text-anchor="middle" x="972" y="-1130" font-family="Arial" font-size="10.00">S&#45;138</text>
</g>
<!-- C&#45;1280&#45;&gt;R&#45;025 -->
<g id="edge37" class="edge">
<title>C&#45;1280&#45;&gt;R&#45;025</title>
<path fill="none" stroke="#4d4d4d" d="M1522,-808.08C1522,-808.08 1522,-757.24 1522,-757.24"/>
<polygon fill="#4d4d4d" stroke="#4d4d4d" points="1524.45,-757.24 1522,-750.24 1519.55,-757.24 1524.45,-757.24"/>
</g>
<!-- S&#45;1831&#45;&gt;C&#45;0062 -->
<g id="edge5" class="edge">
<title>S&#45;1831&#45;&gt;C&#45;0062</title>
<path fill="none" stroke="#4d4d4d" d="M721.63,-1233C671.15,-1233 612,-1233 612,-1233 612,-1233 612,-1161.31 612,-1161.31"/>
<polygon fill="#4d4d4d" stroke="#4d4d4d" points="614.45,-1161.31 612,-1154.31 609.55,-1161.31 614.45,-1161.31"/>
</g>
<!-- S&#45;1831&#45;&gt;S&#45;2036 -->
<g id="edge3" class="edge">
<title>S&#45;1831&#45;&gt;S&#45;2036</title>
<path fill="none" stroke="#4d4d4d" d="M792,-1211.58C792,-1211.58 792,-1161.03 792,-1161.03"/>
<polygon fill="#4d4d4d" stroke="#4d4d4d" points="794.45,-1161.03 792,-1154.03 789.55,-1161.03 794.45,-1161.03"/>
</g>
<!-- S&#45;1831&#45;&gt;S&#45;138 -->
<g id="edge4" class="edge">
<title>S&#45;1831&#45;&gt;S&#45;138</title>
<path fill="none" stroke="#4d4d4d" d="M862.37,-1233C912.85,-1233 972,-1233 972,-1233 972,-1233 972,-1161.31 972,-1161.31"/>
<polygon fill="#4d4d4d" stroke="#4d4d4d" points="974.45,-1161.31 972,-1154.31 969.55,-1161.31 974.45,-1161.31"/>
</g>
<!-- S&#45;186 -->
<g id="node31" class="node">
<title>S&#45;186</title>
<polygon fill="mediumseagreen" stroke="black" points="1148,-447 1076,-425.5 1148,-404 1220,-425.5 1148,-447"/>
<text text-anchor="middle" x="1148" y="-423" font-family="Arial" font-size="10.00">S&#45;186</text>
</g>
<!-- S&#45;1650 -->
<g id="node33" class="node">
<title>S&#45;1650</title>
<polygon fill="mediumseagreen" stroke="black" points="1328,-447 1256,-425.5 1328,-404 1400,-425.5 1328,-447"/>
<text text-anchor="middle" x="1328" y="-423" font-family="Arial" font-size="10.00">S&#45;1650</text>
</g>
<!-- C&#45;0811&#45;&gt;C&#45;0812 -->
<g id="edge43" class="edge">
<title>C&#45;0811&#45;&gt;C&#45;0812</title>
<path fill="none" stroke="blue" stroke-dasharray="5,2" d="M933,-508.27C933,-493.8 933,-476 933,-476 933,-476 728.5,-476 728.5,-476 728.5,-476 728.5,-341.91 728.5,-341.91"/>
<polygon fill="blue" stroke="blue" points="730.95,-341.91 728.5,-334.91 726.05,-341.91 730.95,-341.91"/>
</g>
<!-- C&#45;0150&#45;&gt;C&#45;0780 -->
<g id="edge23" class="edge">
<title>C&#45;0150&#45;&gt;C&#45;0780</title>
<path fill="none" stroke="#4d4d4d" d="M1083.34,-533C1067.24,-533 1054.67,-533 1054.67,-533 1054.67,-533 1054.67,-425 1054.67,-425 1054.67,-425 973.34,-425 973.34,-425"/>
<polygon fill="#4d4d4d" stroke="#4d4d4d" points="973.34,-422.55 966.34,-425 973.34,-427.45 973.34,-422.55"/>
</g>
<!-- C&#45;0150&#45;&gt;C&#45;0779 -->
<g id="edge22" class="edge">
<title>C&#45;0150&#45;&gt;C&#45;0779</title>
<path fill="none" stroke="#4d4d4d" d="M1084.14,-519C1073.17,-519 1065.33,-519 1065.33,-519 1065.33,-519 1065.33,-344.56 1065.33,-344.56"/>
<polygon fill="#4d4d4d" stroke="#4d4d4d" points="1067.78,-344.56 1065.33,-337.56 1062.88,-344.56 1067.78,-344.56"/>
</g>
<!-- C&#45;0150&#45;&gt;S&#45;186 -->
<g id="edge21" class="edge">
<title>C&#45;0150&#45;&gt;S&#45;186</title>
<path fill="none" stroke="#4d4d4d" d="M1150,-504.58C1150,-504.58 1150,-453.68 1150,-453.68"/>
<polygon fill="#4d4d4d" stroke="#4d4d4d" points="1152.45,-453.68 1150,-446.68 1147.55,-453.68 1152.45,-453.68"/>
</g>
<!-- C&#45;0150&#45;&gt;S&#45;1650 -->
<g id="edge24" class="edge">
<title>C&#45;0150&#45;&gt;S&#45;1650</title>
<path fill="none" stroke="#4d4d4d" d="M1219.67,-519C1245.79,-519 1269.5,-519 1269.5,-519 1269.5,-519 1269.5,-436.76 1269.5,-436.76"/>
<polygon fill="#4d4d4d" stroke="#4d4d4d" points="1271.95,-436.76 1269.5,-429.76 1267.05,-436.76 1271.95,-436.76"/>
</g>
<!-- S&#45;2441 -->
<g id="node37" class="node">
<title>S&#45;2441</title>
<polygon fill="mediumseagreen" stroke="black" points="1688,-447 1616,-425.5 1688,-404 1760,-425.5 1688,-447"/>
<text text-anchor="middle" x="1688" y="-423" font-family="Arial" font-size="10.00">S&#45;2441</text>
</g>
<!-- C&#45;0812&#45;&gt;C&#45;0743 -->
<g id="edge19" class="edge">
<title>C&#45;0812&#45;&gt;C&#45;0743</title>
<path fill="none" stroke="#4d4d4d" d="M665,-302.58C665,-302.58 665,-252.03 665,-252.03"/>
<polygon fill="#4d4d4d" stroke="#4d4d4d" points="667.45,-252.03 665,-245.03 662.55,-252.03 667.45,-252.03"/>
</g>
<!-- C&#45;0744 -->
<g id="node41" class="node">
<title>C&#45;0744</title>
<ellipse fill="tomato" stroke="black" cx="845" cy="-122.5" rx="72" ry="21.5"/>
<text text-anchor="middle" x="845" y="-120" font-family="Arial" font-size="10.00">C&#45;0744</text>
</g>
<!-- C&#45;0812&#45;&gt;C&#45;0744 -->
<g id="edge29" class="edge">
<title>C&#45;0812&#45;&gt;C&#45;0744</title>
<path fill="none" stroke="#4d4d4d" d="M737.07,-324C768.14,-324 797.5,-324 797.5,-324 797.5,-324 797.5,-145.99 797.5,-145.99"/>
<polygon fill="#4d4d4d" stroke="#4d4d4d" points="799.95,-145.99 797.5,-138.99 795.05,-145.99 799.95,-145.99"/>
</g>
<!-- S&#45;1852&#45;&gt;S&#45;2288 -->
<g id="edge15" class="edge">
<title>S&#45;1852&#45;&gt;S&#45;2288</title>
<path fill="none" stroke="#4d4d4d" d="M1508,-504.58C1508,-504.58 1508,-454.03 1508,-454.03"/>
<polygon fill="#4d4d4d" stroke="#4d4d4d" points="1510.45,-454.03 1508,-447.03 1505.55,-454.03 1510.45,-454.03"/>
</g>
<!-- S&#45;1852&#45;&gt;S&#45;2441 -->
<g id="edge14" class="edge">
<title>S&#45;1852&#45;&gt;S&#45;2441</title>
<path fill="none" stroke="#4d4d4d" d="M1578.37,-526C1628.85,-526 1688,-526 1688,-526 1688,-526 1688,-454.31 1688,-454.31"/>
<polygon fill="#4d4d4d" stroke="#4d4d4d" points="1690.45,-454.31 1688,-447.31 1685.55,-454.31 1690.45,-454.31"/>
</g>
<!-- C&#45;0524&#45;&gt;S&#45;2472 -->
<g id="edge7" class="edge">
<title>C&#45;0524&#45;&gt;S&#45;2472</title>
<path fill="none" stroke="#4d4d4d" d="M809.73,-1031C796.09,-1031 786,-1031 786,-1031 786,-1031 786,-937 786,-937 786,-937 759.32,-937 759.32,-937"/>
<polygon fill="#4d4d4d" stroke="#4d4d4d" points="759.32,-934.55 752.32,-937 759.32,-939.45 759.32,-934.55"/>
</g>
<!-- C&#45;0524&#45;&gt;C&#45;0328 -->
<g id="edge8" class="edge">
<title>C&#45;0524&#45;&gt;C&#45;0328</title>
<path fill="none" stroke="#4d4d4d" d="M882,-1009.58C882,-1009.58 882,-959.03 882,-959.03"/>
<polygon fill="#4d4d4d" stroke="#4d4d4d" points="884.45,-959.03 882,-952.03 879.55,-959.03 884.45,-959.03"/>
</g>
<!-- C&#45;0524&#45;&gt;R&#45;102 -->
<g id="edge32" class="edge">
<title>C&#45;0524&#45;&gt;R&#45;102</title>
<path fill="none" stroke="#4d4d4d" d="M953.99,-1031C1059.04,-1031 1242,-1031 1242,-1031 1242,-1031 1242,-959.31 1242,-959.31"/>
<polygon fill="#4d4d4d" stroke="#4d4d4d" points="1244.45,-959.31 1242,-952.31 1239.55,-959.31 1244.45,-959.31"/>
</g>
<!-- C&#45;0744&#45;&gt;ext_circ_110_24_ -->
<g id="edge44" class="edge">
<title>C&#45;0744&#45;&gt;ext_circ_110_24_</title>
<path fill="none" stroke="darkorange" stroke-dasharray="5,2" d="M845,-100.58C845,-100.58 845,-50.03 845,-50.03"/>
<polygon fill="darkorange" stroke="darkorange" points="847.45,-50.03 845,-43.03 842.55,-50.03 847.45,-50.03"/>
</g>
</g>
</svg>
