<?xml version="1.0" encoding="UTF-8" standalone="no"?>
<!DOCTYPE svg PUBLIC "-//W3C//DTD SVG 1.1//EN"
 "http://www.w3.org/Graphics/SVG/1.1/DTD/svg11.dtd">
<!-- Generated by graphviz version 2.50.0 (0)
 -->
<!-- Title: Grafo_Circuito_109_25_ Pages: 1 -->
<svg width="1107pt" height="867pt"
 viewBox="0.00 0.00 1107.00 867.00" xmlns="http://www.w3.org/2000/svg" xmlns:xlink="http://www.w3.org/1999/xlink">
<g id="graph0" class="graph" transform="scale(1 1) rotate(0) translate(4 863)">
<title>Grafo_Circuito_109_25_</title>
<polygon fill="white" stroke="transparent" points="-4,4 -4,-863 1103,-863 1103,4 -4,4"/>
<!-- S&#45;1522 -->
<g id="node1" class="node">
<title>S&#45;1522</title>
<polygon fill="mediumseagreen" stroke="black" points="440,-548 368,-526.5 440,-505 512,-526.5 440,-548"/>
<text text-anchor="middle" x="440" y="-524" font-family="Arial" font-size="10.00">S&#45;1522</text>
</g>
<!-- C&#45;1224 -->
<g id="node2" class="node">
<title>C&#45;1224</title>
<ellipse fill="tomato" stroke="black" cx="506" cy="-425.5" rx="72" ry="21.5"/>
<text text-anchor="middle" x="506" y="-423" font-family="Arial" font-size="10.00">C&#45;1224</text>
</g>
<!-- ext_circ_113_23_ -->
<g id="node26" class="node">
<title>ext_circ_113_23_</title>
<polygon fill="lightpink" stroke="darkorange" stroke-dasharray="5,2" points="721,-245 577,-245 577,-202 721,-202 721,-245"/>
<text text-anchor="middle" x="649" y="-226.5" font-family="Arial" font-size="10.00">Circuito:</text>
<text text-anchor="middle" x="649" y="-215.5" font-family="Arial" font-size="10.00">113&#45;23&#45;</text>
</g>
<!-- C&#45;1224&#45;&gt;ext_circ_113_23_ -->
<g id="edge27" class="edge">
<title>C&#45;1224&#45;&gt;ext_circ_113_23_</title>
<path fill="none" stroke="darkorange" stroke-dasharray="5,2" d="M578.22,-425C588.68,-425 596,-425 596,-425 596,-425 596,-252.06 596,-252.06"/>
<polygon fill="darkorange" stroke="darkorange" points="598.45,-252.06 596,-245.06 593.55,-252.06 598.45,-252.06"/>
</g>
<!-- S&#45;1524 -->
<g id="node3" class="node">
<title>S&#45;1524</title>
<polygon fill="mediumseagreen" stroke="black" points="252,-245 180,-223.5 252,-202 324,-223.5 252,-245"/>
<text text-anchor="middle" x="252" y="-221" font-family="Arial" font-size="10.00">S&#45;1524</text>
</g>
<!-- C&#45;1518 -->
<g id="node4" class="node">
<title>C&#45;1518</title>
<ellipse fill="mediumseagreen" stroke="black" cx="514" cy="-728.5" rx="72" ry="21.5"/>
<text text-anchor="middle" x="514" y="-726" font-family="Arial" font-size="10.00">C&#45;1518</text>
</g>
<!-- C&#45;0011 -->
<g id="node8" class="node">
<title>C&#45;0011</title>
<ellipse fill="tomato" stroke="black" cx="334" cy="-627.5" rx="72" ry="21.5"/>
<text text-anchor="middle" x="334" y="-625" font-family="Arial" font-size="10.00">C&#45;0011</text>
</g>
<!-- C&#45;1518&#45;&gt;C&#45;0011 -->
<g id="edge3" class="edge">
<title>C&#45;1518&#45;&gt;C&#45;0011</title>
<path fill="none" stroke="#4d4d4d" d="M441.82,-728C391.75,-728 334,-728 334,-728 334,-728 334,-656.31 334,-656.31"/>
<polygon fill="#4d4d4d" stroke="#4d4d4d" points="336.45,-656.31 334,-649.31 331.55,-656.31 336.45,-656.31"/>
</g>
<!-- S&#45;1519 -->
<g id="node13" class="node">
<title>S&#45;1519</title>
<polygon fill="mediumseagreen" stroke="black" points="514,-649 442,-627.5 514,-606 586,-627.5 514,-649"/>
<text text-anchor="middle" x="514" y="-625" font-family="Arial" font-size="10.00">S&#45;1519</text>
</g>
<!-- C&#45;1518&#45;&gt;S&#45;1519 -->
<g id="edge2" class="edge">
<title>C&#45;1518&#45;&gt;S&#45;1519</title>
<path fill="none" stroke="#4d4d4d" d="M514,-706.58C514,-706.58 514,-656.03 514,-656.03"/>
<polygon fill="#4d4d4d" stroke="#4d4d4d" points="516.45,-656.03 514,-649.03 511.55,-656.03 516.45,-656.03"/>
</g>
<!-- C&#45;0106 -->
<g id="node16" class="node">
<title>C&#45;0106</title>
<ellipse fill="mediumseagreen" stroke="black" cx="694" cy="-627.5" rx="72" ry="21.5"/>
<text text-anchor="middle" x="694" y="-625" font-family="Arial" font-size="10.00">C&#45;0106</text>
</g>
<!-- C&#45;1518&#45;&gt;C&#45;0106 -->
<g id="edge4" class="edge">
<title>C&#45;1518&#45;&gt;C&#45;0106</title>
<path fill="none" stroke="#4d4d4d" d="M586.18,-728C636.25,-728 694,-728 694,-728 694,-728 694,-656.31 694,-656.31"/>
<polygon fill="#4d4d4d" stroke="#4d4d4d" points="696.45,-656.31 694,-649.31 691.55,-656.31 696.45,-656.31"/>
</g>
<!-- R&#45;047 -->
<g id="node5" class="node">
<title>R&#45;047</title>
<polygon fill="mediumseagreen" stroke="black" points="361,-416.59 361,-434.41 318.82,-447 259.18,-447 217,-434.41 217,-416.59 259.18,-404 318.82,-404 361,-416.59"/>
<text text-anchor="middle" x="289" y="-423" font-family="Arial" font-size="10.00">R&#45;047</text>
</g>
<!-- C&#45;0792 -->
<g id="node6" class="node">
<title>C&#45;0792</title>
<ellipse fill="tomato" stroke="black" cx="72" cy="-324.5" rx="72" ry="21.5"/>
<text text-anchor="middle" x="72" y="-322" font-family="Arial" font-size="10.00">C&#45;0792</text>
</g>
<!-- R&#45;047&#45;&gt;C&#45;0792 -->
<g id="edge17" class="edge">
<title>R&#45;047&#45;&gt;C&#45;0792</title>
<path fill="none" stroke="#4d4d4d" d="M216.74,-425C153.62,-425 72,-425 72,-425 72,-425 72,-353.31 72,-353.31"/>
<polygon fill="#4d4d4d" stroke="#4d4d4d" points="74.45,-353.31 72,-346.31 69.55,-353.31 74.45,-353.31"/>
</g>
<!-- S&#45;1525 -->
<g id="node9" class="node">
<title>S&#45;1525</title>
<polygon fill="mediumseagreen" stroke="black" points="252,-346 180,-324.5 252,-303 324,-324.5 252,-346"/>
<text text-anchor="middle" x="252" y="-322" font-family="Arial" font-size="10.00">S&#45;1525</text>
</g>
<!-- R&#45;047&#45;&gt;S&#45;1525 -->
<g id="edge15" class="edge">
<title>R&#45;047&#45;&gt;S&#45;1525</title>
<path fill="none" stroke="#4d4d4d" d="M270.5,-403.58C270.5,-403.58 270.5,-347.74 270.5,-347.74"/>
<polygon fill="#4d4d4d" stroke="#4d4d4d" points="272.95,-347.74 270.5,-340.74 268.05,-347.74 272.95,-347.74"/>
</g>
<!-- C&#45;0791 -->
<g id="node10" class="node">
<title>C&#45;0791</title>
<ellipse fill="mediumseagreen" stroke="black" cx="432" cy="-324.5" rx="72" ry="21.5"/>
<text text-anchor="middle" x="432" y="-322" font-family="Arial" font-size="10.00">C&#45;0791</text>
</g>
<!-- R&#45;047&#45;&gt;C&#45;0791 -->
<g id="edge18" class="edge">
<title>R&#45;047&#45;&gt;C&#45;0791</title>
<path fill="none" stroke="#4d4d4d" d="M361.26,-425C363.32,-425 364.5,-425 364.5,-425 364.5,-425 364.5,-339.05 364.5,-339.05"/>
<polygon fill="#4d4d4d" stroke="#4d4d4d" points="366.95,-339.05 364.5,-332.05 362.05,-339.05 366.95,-339.05"/>
</g>
<!-- ext_circ_109_20_ -->
<g id="node25" class="node">
<title>ext_circ_109_20_</title>
<polygon fill="lightpink" stroke="darkorange" stroke-dasharray="5,2" points="350,-144 206,-144 206,-101 350,-101 350,-144"/>
<text text-anchor="middle" x="278" y="-125.5" font-family="Arial" font-size="10.00">Circuito:</text>
<text text-anchor="middle" x="278" y="-114.5" font-family="Arial" font-size="10.00">109&#45;20&#45;</text>
</g>
<!-- C&#45;0792&#45;&gt;ext_circ_109_20_ -->
<g id="edge25" class="edge">
<title>C&#45;0792&#45;&gt;ext_circ_109_20_</title>
<path fill="none" stroke="darkorange" stroke-dasharray="5,2" d="M72,-302.83C72,-250.59 72,-122 72,-122 72,-122 198.95,-122 198.95,-122"/>
<polygon fill="darkorange" stroke="darkorange" points="198.95,-124.45 205.95,-122 198.95,-119.55 198.95,-124.45"/>
</g>
<!-- C&#45;0107 -->
<g id="node7" class="node">
<title>C&#45;0107</title>
<ellipse fill="mediumseagreen" stroke="black" cx="866" cy="-425.5" rx="72" ry="21.5"/>
<text text-anchor="middle" x="866" y="-423" font-family="Arial" font-size="10.00">C&#45;0107</text>
</g>
<!-- C&#45;0564 -->
<g id="node18" class="node">
<title>C&#45;0564</title>
<ellipse fill="mediumseagreen" stroke="black" cx="866" cy="-324.5" rx="72" ry="21.5"/>
<text text-anchor="middle" x="866" y="-322" font-family="Arial" font-size="10.00">C&#45;0564</text>
</g>
<!-- C&#45;0107&#45;&gt;C&#45;0564 -->
<g id="edge10" class="edge">
<title>C&#45;0107&#45;&gt;C&#45;0564</title>
<path fill="none" stroke="#4d4d4d" d="M866,-403.58C866,-403.58 866,-353.03 866,-353.03"/>
<polygon fill="#4d4d4d" stroke="#4d4d4d" points="868.45,-353.03 866,-346.03 863.55,-353.03 868.45,-353.03"/>
</g>
<!-- C&#45;0011&#45;&gt;R&#45;047 -->
<g id="edge23" class="edge">
<title>C&#45;0011&#45;&gt;R&#45;047</title>
<path fill="none" stroke="blue" stroke-dasharray="5,2" d="M295,-609.22C295,-609.22 295,-454.21 295,-454.21"/>
<polygon fill="blue" stroke="blue" points="297.45,-454.21 295,-447.21 292.55,-454.21 297.45,-454.21"/>
</g>
<!-- S&#45;1525&#45;&gt;S&#45;1524 -->
<g id="edge16" class="edge">
<title>S&#45;1525&#45;&gt;S&#45;1524</title>
<path fill="none" stroke="#4d4d4d" d="M252,-302.58C252,-302.58 252,-252.03 252,-252.03"/>
<polygon fill="#4d4d4d" stroke="#4d4d4d" points="254.45,-252.03 252,-245.03 249.55,-252.03 254.45,-252.03"/>
</g>
<!-- R&#45;176 -->
<g id="node17" class="node">
<title>R&#45;176</title>
<polygon fill="tomato" stroke="black" points="504,-214.59 504,-232.41 461.82,-245 402.18,-245 360,-232.41 360,-214.59 402.18,-202 461.82,-202 504,-214.59"/>
<text text-anchor="middle" x="432" y="-221" font-family="Arial" font-size="10.00">R&#45;176</text>
</g>
<!-- C&#45;0791&#45;&gt;R&#45;176 -->
<g id="edge19" class="edge">
<title>C&#45;0791&#45;&gt;R&#45;176</title>
<path fill="none" stroke="#4d4d4d" d="M432,-302.58C432,-302.58 432,-252.03 432,-252.03"/>
<polygon fill="#4d4d4d" stroke="#4d4d4d" points="434.45,-252.03 432,-245.03 429.55,-252.03 434.45,-252.03"/>
</g>
<!-- C&#45;0173 -->
<g id="node11" class="node">
<title>C&#45;0173</title>
<ellipse fill="mediumseagreen" stroke="black" cx="620" cy="-526.5" rx="72" ry="21.5"/>
<text text-anchor="middle" x="620" y="-524" font-family="Arial" font-size="10.00">C&#45;0173</text>
</g>
<!-- C&#45;0173&#45;&gt;C&#45;1224 -->
<g id="edge20" class="edge">
<title>C&#45;0173&#45;&gt;C&#45;1224</title>
<path fill="none" stroke="#4d4d4d" d="M568,-511.6C568,-511.6 568,-443.71 568,-443.71"/>
<polygon fill="#4d4d4d" stroke="#4d4d4d" points="570.45,-443.71 568,-436.71 565.55,-443.71 570.45,-443.71"/>
</g>
<!-- C&#45;0173&#45;&gt;R&#45;047 -->
<g id="edge14" class="edge">
<title>C&#45;0173&#45;&gt;R&#45;047</title>
<path fill="none" stroke="#4d4d4d" d="M558,-515.16C558,-502.87 558,-485 558,-485 558,-485 328,-485 328,-485 328,-485 328,-451.33 328,-451.33"/>
<polygon fill="#4d4d4d" stroke="#4d4d4d" points="330.45,-451.33 328,-444.33 325.55,-451.33 330.45,-451.33"/>
</g>
<!-- C&#45;0173&#45;&gt;C&#45;0107 -->
<g id="edge9" class="edge">
<title>C&#45;0173&#45;&gt;C&#45;0107</title>
<path fill="none" stroke="#4d4d4d" d="M666,-509.65C666,-491.75 666,-466 666,-466 666,-466 833,-466 833,-466 833,-466 833,-451.8 833,-451.8"/>
<polygon fill="#4d4d4d" stroke="#4d4d4d" points="835.45,-451.8 833,-444.8 830.55,-451.8 835.45,-451.8"/>
</g>
<!-- C&#45;1216 -->
<g id="node22" class="node">
<title>C&#45;1216</title>
<ellipse fill="mediumseagreen" stroke="black" cx="686" cy="-425.5" rx="72" ry="21.5"/>
<text text-anchor="middle" x="686" y="-423" font-family="Arial" font-size="10.00">C&#45;1216</text>
</g>
<!-- C&#45;0173&#45;&gt;C&#45;1216 -->
<g id="edge21" class="edge">
<title>C&#45;0173&#45;&gt;C&#45;1216</title>
<path fill="none" stroke="#4d4d4d" d="M640,-505.57C640,-505.57 640,-449.07 640,-449.07"/>
<polygon fill="#4d4d4d" stroke="#4d4d4d" points="642.45,-449.07 640,-442.07 637.55,-449.07 642.45,-449.07"/>
</g>
<!-- S&#45;1745 -->
<g id="node12" class="node">
<title>S&#45;1745</title>
<polygon fill="mediumseagreen" stroke="black" points="847,-245 775,-223.5 847,-202 919,-223.5 847,-245"/>
<text text-anchor="middle" x="847" y="-221" font-family="Arial" font-size="10.00">S&#45;1745</text>
</g>
<!-- S&#45;2244 -->
<g id="node14" class="node">
<title>S&#45;2244</title>
<polygon fill="tomato" stroke="black" points="1027,-144 955,-122.5 1027,-101 1099,-122.5 1027,-144"/>
<text text-anchor="middle" x="1027" y="-120" font-family="Arial" font-size="10.00">S&#45;2244</text>
</g>
<!-- ext_circ_109_29_ -->
<g id="node24" class="node">
<title>ext_circ_109_29_</title>
<polygon fill="lightpink" stroke="darkorange" stroke-dasharray="5,2" points="1099,-43 955,-43 955,0 1099,0 1099,-43"/>
<text text-anchor="middle" x="1027" y="-24.5" font-family="Arial" font-size="10.00">Circuito:</text>
<text text-anchor="middle" x="1027" y="-13.5" font-family="Arial" font-size="10.00">109&#45;29&#45;</text>
</g>
<!-- S&#45;2244&#45;&gt;ext_circ_109_29_ -->
<g id="edge24" class="edge">
<title>S&#45;2244&#45;&gt;ext_circ_109_29_</title>
<path fill="none" stroke="darkorange" stroke-dasharray="5,2" d="M1027,-100.58C1027,-100.58 1027,-50.03 1027,-50.03"/>
<polygon fill="darkorange" stroke="darkorange" points="1029.45,-50.03 1027,-43.03 1024.55,-50.03 1029.45,-50.03"/>
</g>
<!-- S&#45;2197 -->
<g id="node15" class="node">
<title>S&#45;2197</title>
<polygon fill="mediumseagreen" stroke="black" points="800,-548 728,-526.5 800,-505 872,-526.5 800,-548"/>
<text text-anchor="middle" x="800" y="-524" font-family="Arial" font-size="10.00">S&#45;2197</text>
</g>
<!-- C&#45;0106&#45;&gt;S&#45;1522 -->
<g id="edge7" class="edge">
<title>C&#45;0106&#45;&gt;S&#45;1522</title>
<path fill="none" stroke="#4d4d4d" d="M645.33,-611.52C645.33,-596.73 645.33,-577 645.33,-577 645.33,-577 477,-577 477,-577 477,-577 477,-544.21 477,-544.21"/>
<polygon fill="#4d4d4d" stroke="#4d4d4d" points="479.45,-544.21 477,-537.21 474.55,-544.21 479.45,-544.21"/>
</g>
<!-- C&#45;0106&#45;&gt;C&#45;0173 -->
<g id="edge8" class="edge">
<title>C&#45;0106&#45;&gt;C&#45;0173</title>
<path fill="none" stroke="#4d4d4d" d="M668.67,-607.06C668.67,-607.06 668.67,-549.59 668.67,-549.59"/>
<polygon fill="#4d4d4d" stroke="#4d4d4d" points="671.12,-549.59 668.67,-542.59 666.22,-549.59 671.12,-549.59"/>
</g>
<!-- C&#45;0106&#45;&gt;S&#45;2197 -->
<g id="edge5" class="edge">
<title>C&#45;0106&#45;&gt;S&#45;2197</title>
<path fill="none" stroke="#4d4d4d" d="M747,-612.6C747,-612.6 747,-539.48 747,-539.48"/>
<polygon fill="#4d4d4d" stroke="#4d4d4d" points="749.45,-539.48 747,-532.48 744.55,-539.48 749.45,-539.48"/>
</g>
<!-- S&#45;1521 -->
<g id="node19" class="node">
<title>S&#45;1521</title>
<polygon fill="mediumseagreen" stroke="black" points="980,-548 908,-526.5 980,-505 1052,-526.5 980,-548"/>
<text text-anchor="middle" x="980" y="-524" font-family="Arial" font-size="10.00">S&#45;1521</text>
</g>
<!-- C&#45;0106&#45;&gt;S&#45;1521 -->
<g id="edge6" class="edge">
<title>C&#45;0106&#45;&gt;S&#45;1521</title>
<path fill="none" stroke="#4d4d4d" d="M766.17,-627C850.9,-627 980,-627 980,-627 980,-627 980,-555.31 980,-555.31"/>
<polygon fill="#4d4d4d" stroke="#4d4d4d" points="982.45,-555.31 980,-548.31 977.55,-555.31 982.45,-555.31"/>
</g>
<!-- R&#45;176&#45;&gt;ext_circ_109_20_ -->
<g id="edge26" class="edge">
<title>R&#45;176&#45;&gt;ext_circ_109_20_</title>
<path fill="none" stroke="darkorange" stroke-dasharray="5,2" d="M360,-223C346.75,-223 337,-223 337,-223 337,-223 337,-151.31 337,-151.31"/>
<polygon fill="darkorange" stroke="darkorange" points="339.45,-151.31 337,-144.31 334.55,-151.31 339.45,-151.31"/>
</g>
<!-- C&#45;0564&#45;&gt;S&#45;1745 -->
<g id="edge11" class="edge">
<title>C&#45;0564&#45;&gt;S&#45;1745</title>
<path fill="none" stroke="#4d4d4d" d="M856.5,-303.08C856.5,-303.08 856.5,-249.17 856.5,-249.17"/>
<polygon fill="#4d4d4d" stroke="#4d4d4d" points="858.95,-249.17 856.5,-242.17 854.05,-249.17 858.95,-249.17"/>
</g>
<!-- S&#45;1776 -->
<g id="node21" class="node">
<title>S&#45;1776</title>
<polygon fill="mediumseagreen" stroke="black" points="1027,-245 955,-223.5 1027,-202 1099,-223.5 1027,-245"/>
<text text-anchor="middle" x="1027" y="-221" font-family="Arial" font-size="10.00">S&#45;1776</text>
</g>
<!-- C&#45;0564&#45;&gt;S&#45;1776 -->
<g id="edge12" class="edge">
<title>C&#45;0564&#45;&gt;S&#45;1776</title>
<path fill="none" stroke="#4d4d4d" d="M928.5,-313.64C928.5,-287.45 928.5,-223 928.5,-223 928.5,-223 949.46,-223 949.46,-223"/>
<polygon fill="#4d4d4d" stroke="#4d4d4d" points="949.46,-225.45 956.46,-223 949.46,-220.55 949.46,-225.45"/>
</g>
<!-- R&#45;300 -->
<g id="node20" class="node">
<title>R&#45;300</title>
<polygon fill="tomato" stroke="black" points="758,-315.59 758,-333.41 715.82,-346 656.18,-346 614,-333.41 614,-315.59 656.18,-303 715.82,-303 758,-315.59"/>
<text text-anchor="middle" x="686" y="-322" font-family="Arial" font-size="10.00">R&#45;300</text>
</g>
<!-- R&#45;300&#45;&gt;ext_circ_113_23_ -->
<g id="edge28" class="edge">
<title>R&#45;300&#45;&gt;ext_circ_113_23_</title>
<path fill="none" stroke="darkorange" stroke-dasharray="5,2" d="M667.5,-302.58C667.5,-302.58 667.5,-252.03 667.5,-252.03"/>
<polygon fill="darkorange" stroke="darkorange" points="669.95,-252.03 667.5,-245.03 665.05,-252.03 669.95,-252.03"/>
</g>
<!-- S&#45;1776&#45;&gt;S&#45;2244 -->
<g id="edge13" class="edge">
<title>S&#45;1776&#45;&gt;S&#45;2244</title>
<path fill="none" stroke="#4d4d4d" d="M1027,-201.58C1027,-201.58 1027,-151.03 1027,-151.03"/>
<polygon fill="#4d4d4d" stroke="#4d4d4d" points="1029.45,-151.03 1027,-144.03 1024.55,-151.03 1029.45,-151.03"/>
</g>
<!-- C&#45;1216&#45;&gt;R&#45;300 -->
<g id="edge22" class="edge">
<title>C&#45;1216&#45;&gt;R&#45;300</title>
<path fill="none" stroke="#4d4d4d" d="M686,-403.58C686,-403.58 686,-353.03 686,-353.03"/>
<polygon fill="#4d4d4d" stroke="#4d4d4d" points="688.45,-353.03 686,-346.03 683.55,-353.03 688.45,-353.03"/>
</g>
<!-- 109&#45;25&#45; -->
<g id="node23" class="node">
<title>109&#45;25&#45;</title>
<polygon fill="gold" stroke="black" points="586,-824.59 586,-842.41 543.82,-855 484.18,-855 442,-842.41 442,-824.59 484.18,-812 543.82,-812 586,-824.59"/>
<polygon fill="none" stroke="black" points="590,-821.61 590,-845.39 544.41,-859 483.59,-859 438,-845.39 438,-821.61 483.59,-808 544.41,-808 590,-821.61"/>
<text text-anchor="middle" x="514" y="-831" font-family="Arial" font-size="10.00">109&#45;25&#45;</text>
</g>
<!-- 109&#45;25&#45;&#45;&gt;C&#45;1518 -->
<g id="edge1" class="edge">
<title>109&#45;25&#45;&#45;&gt;C&#45;1518</title>
<path fill="none" stroke="#4d4d4d" d="M514,-807.81C514,-807.81 514,-757.03 514,-757.03"/>
<polygon fill="#4d4d4d" stroke="#4d4d4d" points="516.45,-757.03 514,-750.03 511.55,-757.03 516.45,-757.03"/>
</g>
</g>
</svg>
