<?xml version="1.0" encoding="UTF-8" standalone="no"?>
<!DOCTYPE svg PUBLIC "-//W3C//DTD SVG 1.1//EN"
 "http://www.w3.org/Graphics/SVG/1.1/DTD/svg11.dtd">
<!-- Generated by graphviz version 2.50.0 (0)
 -->
<!-- Title: Grafo_Circuito_304_26_ Pages: 1 -->
<svg width="1455pt" height="1069pt"
 viewBox="0.00 0.00 1455.00 1069.00" xmlns="http://www.w3.org/2000/svg" xmlns:xlink="http://www.w3.org/1999/xlink">
<g id="graph0" class="graph" transform="scale(1 1) rotate(0) translate(4 1065)">
<title>Grafo_Circuito_304_26_</title>
<polygon fill="white" stroke="transparent" points="-4,4 -4,-1065 1451,-1065 1451,4 -4,4"/>
<!-- S&#45;784 -->
<g id="node1" class="node">
<title>S&#45;784</title>
<polygon fill="mediumseagreen" stroke="black" points="565,-548 493,-526.5 565,-505 637,-526.5 565,-548"/>
<text text-anchor="middle" x="565" y="-524" font-family="Arial" font-size="10.00">S&#45;784</text>
</g>
<!-- S&#45;1853 -->
<g id="node22" class="node">
<title>S&#45;1853</title>
<polygon fill="mediumseagreen" stroke="black" points="475,-447 403,-425.5 475,-404 547,-425.5 475,-447"/>
<text text-anchor="middle" x="475" y="-423" font-family="Arial" font-size="10.00">S&#45;1853</text>
</g>
<!-- S&#45;784&#45;&gt;S&#45;1853 -->
<g id="edge11" class="edge">
<title>S&#45;784&#45;&gt;S&#45;1853</title>
<path fill="none" stroke="#4d4d4d" d="M520,-518.23C520,-518.23 520,-440.6 520,-440.6"/>
<polygon fill="#4d4d4d" stroke="#4d4d4d" points="522.45,-440.6 520,-433.6 517.55,-440.6 522.45,-440.6"/>
</g>
<!-- C&#45;0460 -->
<g id="node2" class="node">
<title>C&#45;0460</title>
<ellipse fill="tomato" stroke="black" cx="475" cy="-223.5" rx="72" ry="21.5"/>
<text text-anchor="middle" x="475" y="-221" font-family="Arial" font-size="10.00">C&#45;0460</text>
</g>
<!-- ext_circ_304_27_ -->
<g id="node32" class="node">
<title>ext_circ_304_27_</title>
<polygon fill="lightpink" stroke="darkorange" stroke-dasharray="5,2" points="547,-43 403,-43 403,0 547,0 547,-43"/>
<text text-anchor="middle" x="475" y="-24.5" font-family="Arial" font-size="10.00">Circuito:</text>
<text text-anchor="middle" x="475" y="-13.5" font-family="Arial" font-size="10.00">304&#45;27&#45;</text>
</g>
<!-- C&#45;0460&#45;&gt;ext_circ_304_27_ -->
<g id="edge33" class="edge">
<title>C&#45;0460&#45;&gt;ext_circ_304_27_</title>
<path fill="none" stroke="darkorange" stroke-dasharray="5,2" d="M462.33,-202.26C462.33,-202.26 462.33,-50.06 462.33,-50.06"/>
<polygon fill="darkorange" stroke="darkorange" points="464.78,-50.06 462.33,-43.06 459.88,-50.06 464.78,-50.06"/>
</g>
<!-- C&#45;0462 -->
<g id="node3" class="node">
<title>C&#45;0462</title>
<ellipse fill="mediumseagreen" stroke="black" cx="655" cy="-223.5" rx="72" ry="21.5"/>
<text text-anchor="middle" x="655" y="-221" font-family="Arial" font-size="10.00">C&#45;0462</text>
</g>
<!-- R&#45;142 -->
<g id="node30" class="node">
<title>R&#45;142</title>
<polygon fill="tomato" stroke="black" points="700,-113.59 700,-131.41 657.82,-144 598.18,-144 556,-131.41 556,-113.59 598.18,-101 657.82,-101 700,-113.59"/>
<text text-anchor="middle" x="628" y="-120" font-family="Arial" font-size="10.00">R&#45;142</text>
</g>
<!-- C&#45;0462&#45;&gt;R&#45;142 -->
<g id="edge14" class="edge">
<title>C&#45;0462&#45;&gt;R&#45;142</title>
<path fill="none" stroke="#4d4d4d" d="M641.5,-202.08C641.5,-202.08 641.5,-151.24 641.5,-151.24"/>
<polygon fill="#4d4d4d" stroke="#4d4d4d" points="643.95,-151.24 641.5,-144.24 639.05,-151.24 643.95,-151.24"/>
</g>
<!-- S&#45;974 -->
<g id="node4" class="node">
<title>S&#45;974</title>
<polygon fill="mediumseagreen" stroke="black" points="475,-346 403,-324.5 475,-303 547,-324.5 475,-346"/>
<text text-anchor="middle" x="475" y="-322" font-family="Arial" font-size="10.00">S&#45;974</text>
</g>
<!-- S&#45;974&#45;&gt;C&#45;0460 -->
<g id="edge15" class="edge">
<title>S&#45;974&#45;&gt;C&#45;0460</title>
<path fill="none" stroke="#4d4d4d" d="M475,-302.58C475,-302.58 475,-252.03 475,-252.03"/>
<polygon fill="#4d4d4d" stroke="#4d4d4d" points="477.45,-252.03 475,-245.03 472.55,-252.03 477.45,-252.03"/>
</g>
<!-- S&#45;974&#45;&gt;C&#45;0462 -->
<g id="edge13" class="edge">
<title>S&#45;974&#45;&gt;C&#45;0462</title>
<path fill="none" stroke="#4d4d4d" d="M545.37,-324C595.85,-324 655,-324 655,-324 655,-324 655,-252.31 655,-252.31"/>
<polygon fill="#4d4d4d" stroke="#4d4d4d" points="657.45,-252.31 655,-245.31 652.55,-252.31 657.45,-252.31"/>
</g>
<!-- S&#45;1740 -->
<g id="node5" class="node">
<title>S&#45;1740</title>
<polygon fill="mediumseagreen" stroke="black" points="1105,-346 1033,-324.5 1105,-303 1177,-324.5 1105,-346"/>
<text text-anchor="middle" x="1105" y="-322" font-family="Arial" font-size="10.00">S&#45;1740</text>
</g>
<!-- S&#45;1140 -->
<g id="node6" class="node">
<title>S&#45;1140</title>
<polygon fill="tomato" stroke="black" points="348,-144 276,-122.5 348,-101 420,-122.5 348,-144"/>
<text text-anchor="middle" x="348" y="-120" font-family="Arial" font-size="10.00">S&#45;1140</text>
</g>
<!-- S&#45;1140&#45;&gt;ext_circ_304_27_ -->
<g id="edge34" class="edge">
<title>S&#45;1140&#45;&gt;ext_circ_304_27_</title>
<path fill="none" stroke="darkorange" stroke-dasharray="5,2" d="M411.5,-119.59C411.5,-119.59 411.5,-50.1 411.5,-50.1"/>
<polygon fill="darkorange" stroke="darkorange" points="413.95,-50.1 411.5,-43.1 409.05,-50.1 413.95,-50.1"/>
</g>
<!-- S&#45;1111 -->
<g id="node7" class="node">
<title>S&#45;1111</title>
<polygon fill="mediumseagreen" stroke="black" points="1015,-548 943,-526.5 1015,-505 1087,-526.5 1015,-548"/>
<text text-anchor="middle" x="1015" y="-524" font-family="Arial" font-size="10.00">S&#45;1111</text>
</g>
<!-- S&#45;2120 -->
<g id="node8" class="node">
<title>S&#45;2120</title>
<polygon fill="mediumseagreen" stroke="black" points="655,-447 583,-425.5 655,-404 727,-425.5 655,-447"/>
<text text-anchor="middle" x="655" y="-423" font-family="Arial" font-size="10.00">S&#45;2120</text>
</g>
<!-- C&#45;0978 -->
<g id="node9" class="node">
<title>C&#45;0978</title>
<ellipse fill="mediumseagreen" stroke="black" cx="72" cy="-829.5" rx="72" ry="21.5"/>
<text text-anchor="middle" x="72" y="-827" font-family="Arial" font-size="10.00">C&#45;0978</text>
</g>
<!-- R&#45;233 -->
<g id="node26" class="node">
<title>R&#45;233</title>
<polygon fill="tomato" stroke="black" points="170,-719.59 170,-737.41 127.82,-750 68.18,-750 26,-737.41 26,-719.59 68.18,-707 127.82,-707 170,-719.59"/>
<text text-anchor="middle" x="98" y="-726" font-family="Arial" font-size="10.00">R&#45;233</text>
</g>
<!-- C&#45;0978&#45;&gt;R&#45;233 -->
<g id="edge4" class="edge">
<title>C&#45;0978&#45;&gt;R&#45;233</title>
<path fill="none" stroke="#4d4d4d" d="M85,-808.08C85,-808.08 85,-757.24 85,-757.24"/>
<polygon fill="#4d4d4d" stroke="#4d4d4d" points="87.45,-757.24 85,-750.24 82.55,-757.24 87.45,-757.24"/>
</g>
<!-- S&#45;783 -->
<g id="node10" class="node">
<title>S&#45;783</title>
<polygon fill="mediumseagreen" stroke="black" points="835,-447 763,-425.5 835,-404 907,-425.5 835,-447"/>
<text text-anchor="middle" x="835" y="-423" font-family="Arial" font-size="10.00">S&#45;783</text>
</g>
<!-- S&#45;1956 -->
<g id="node28" class="node">
<title>S&#45;1956</title>
<polygon fill="mediumseagreen" stroke="black" points="835,-346 763,-324.5 835,-303 907,-324.5 835,-346"/>
<text text-anchor="middle" x="835" y="-322" font-family="Arial" font-size="10.00">S&#45;1956</text>
</g>
<!-- S&#45;783&#45;&gt;S&#45;1956 -->
<g id="edge22" class="edge">
<title>S&#45;783&#45;&gt;S&#45;1956</title>
<path fill="none" stroke="#4d4d4d" d="M835,-403.58C835,-403.58 835,-353.03 835,-353.03"/>
<polygon fill="#4d4d4d" stroke="#4d4d4d" points="837.45,-353.03 835,-346.03 832.55,-353.03 837.45,-353.03"/>
</g>
<!-- S&#45;1743 -->
<g id="node11" class="node">
<title>S&#45;1743</title>
<polygon fill="mediumseagreen" stroke="black" points="1015,-447 943,-425.5 1015,-404 1087,-425.5 1015,-447"/>
<text text-anchor="middle" x="1015" y="-423" font-family="Arial" font-size="10.00">S&#45;1743</text>
</g>
<!-- S&#45;786 -->
<g id="node12" class="node">
<title>S&#45;786</title>
<polygon fill="mediumseagreen" stroke="black" points="612,-649 540,-627.5 612,-606 684,-627.5 612,-649"/>
<text text-anchor="middle" x="612" y="-625" font-family="Arial" font-size="10.00">S&#45;786</text>
</g>
<!-- S&#45;786&#45;&gt;S&#45;784 -->
<g id="edge10" class="edge">
<title>S&#45;786&#45;&gt;S&#45;784</title>
<path fill="none" stroke="#4d4d4d" d="M588.5,-612.6C588.5,-612.6 588.5,-548.14 588.5,-548.14"/>
<polygon fill="#4d4d4d" stroke="#4d4d4d" points="590.95,-548.14 588.5,-541.14 586.05,-548.14 590.95,-548.14"/>
</g>
<!-- S&#45;750 -->
<g id="node14" class="node">
<title>S&#45;750</title>
<polygon fill="mediumseagreen" stroke="black" points="835,-548 763,-526.5 835,-505 907,-526.5 835,-548"/>
<text text-anchor="middle" x="835" y="-524" font-family="Arial" font-size="10.00">S&#45;750</text>
</g>
<!-- S&#45;786&#45;&gt;S&#45;750 -->
<g id="edge16" class="edge">
<title>S&#45;786&#45;&gt;S&#45;750</title>
<path fill="none" stroke="#4d4d4d" d="M660.5,-620.4C660.5,-598.42 660.5,-533 660.5,-533 660.5,-533 777.53,-533 777.53,-533"/>
<polygon fill="#4d4d4d" stroke="#4d4d4d" points="777.53,-535.45 784.53,-533 777.53,-530.55 777.53,-535.45"/>
</g>
<!-- C&#45;0218 -->
<g id="node13" class="node">
<title>C&#45;0218</title>
<ellipse fill="tomato" stroke="black" cx="252" cy="-829.5" rx="72" ry="21.5"/>
<text text-anchor="middle" x="252" y="-827" font-family="Arial" font-size="10.00">C&#45;0218</text>
</g>
<!-- ext_circ_304_22_ -->
<g id="node31" class="node">
<title>ext_circ_304_22_</title>
<polygon fill="lightpink" stroke="darkorange" stroke-dasharray="5,2" points="247,-649 103,-649 103,-606 247,-606 247,-649"/>
<text text-anchor="middle" x="175" y="-630.5" font-family="Arial" font-size="10.00">Circuito:</text>
<text text-anchor="middle" x="175" y="-619.5" font-family="Arial" font-size="10.00">304&#45;22&#45;</text>
</g>
<!-- C&#45;0218&#45;&gt;ext_circ_304_22_ -->
<g id="edge31" class="edge">
<title>C&#45;0218&#45;&gt;ext_circ_304_22_</title>
<path fill="none" stroke="darkorange" stroke-dasharray="5,2" d="M213.5,-811.22C213.5,-811.22 213.5,-656.21 213.5,-656.21"/>
<polygon fill="darkorange" stroke="darkorange" points="215.95,-656.21 213.5,-649.21 211.05,-656.21 215.95,-656.21"/>
</g>
<!-- S&#45;750&#45;&gt;S&#45;2120 -->
<g id="edge24" class="edge">
<title>S&#45;750&#45;&gt;S&#45;2120</title>
<path fill="none" stroke="#4d4d4d" d="M788.04,-519C757.56,-519 723.5,-519 723.5,-519 723.5,-519 723.5,-433.55 723.5,-433.55"/>
<polygon fill="#4d4d4d" stroke="#4d4d4d" points="725.95,-433.55 723.5,-426.55 721.05,-433.55 725.95,-433.55"/>
</g>
<!-- S&#45;750&#45;&gt;S&#45;783 -->
<g id="edge21" class="edge">
<title>S&#45;750&#45;&gt;S&#45;783</title>
<path fill="none" stroke="#4d4d4d" d="M799,-515.69C799,-515.69 799,-443.54 799,-443.54"/>
<polygon fill="#4d4d4d" stroke="#4d4d4d" points="801.45,-443.54 799,-436.54 796.55,-443.54 801.45,-443.54"/>
</g>
<!-- S&#45;750&#45;&gt;S&#45;1743 -->
<g id="edge23" class="edge">
<title>S&#45;750&#45;&gt;S&#45;1743</title>
<path fill="none" stroke="#4d4d4d" d="M905.47,-526C916.86,-526 925,-526 925,-526 925,-526 925,-425 925,-425 925,-425 937.53,-425 937.53,-425"/>
<polygon fill="#4d4d4d" stroke="#4d4d4d" points="937.53,-427.45 944.53,-425 937.53,-422.55 937.53,-427.45"/>
</g>
<!-- SR&#45;0022 -->
<g id="node16" class="node">
<title>SR&#45;0022</title>
<polygon fill="mediumseagreen" stroke="black" points="1195,-447 1123,-425.5 1195,-404 1267,-425.5 1195,-447"/>
<text text-anchor="middle" x="1195" y="-423" font-family="Arial" font-size="10.00">SR&#45;0022</text>
</g>
<!-- S&#45;750&#45;&gt;SR&#45;0022 -->
<g id="edge18" class="edge">
<title>S&#45;750&#45;&gt;SR&#45;0022</title>
<path fill="none" stroke="#4d4d4d" d="M835,-505C835,-487.61 835,-466 835,-466 835,-466 1195,-466 1195,-466 1195,-466 1195,-454.17 1195,-454.17"/>
<polygon fill="#4d4d4d" stroke="#4d4d4d" points="1197.45,-454.17 1195,-447.17 1192.55,-454.17 1197.45,-454.17"/>
</g>
<!-- S&#45;1724 -->
<g id="node20" class="node">
<title>S&#45;1724</title>
<polygon fill="mediumseagreen" stroke="black" points="1375,-447 1303,-425.5 1375,-404 1447,-425.5 1375,-447"/>
<text text-anchor="middle" x="1375" y="-423" font-family="Arial" font-size="10.00">S&#45;1724</text>
</g>
<!-- S&#45;750&#45;&gt;S&#45;1724 -->
<g id="edge17" class="edge">
<title>S&#45;750&#45;&gt;S&#45;1724</title>
<path fill="none" stroke="#4d4d4d" d="M871,-515.6C871,-503.3 871,-485 871,-485 871,-485 1375,-485 1375,-485 1375,-485 1375,-454.32 1375,-454.32"/>
<polygon fill="#4d4d4d" stroke="#4d4d4d" points="1377.45,-454.32 1375,-447.32 1372.55,-454.32 1377.45,-454.32"/>
</g>
<!-- S&#45;2078 -->
<g id="node15" class="node">
<title>S&#45;2078</title>
<polygon fill="mediumseagreen" stroke="black" points="1195,-548 1123,-526.5 1195,-505 1267,-526.5 1195,-548"/>
<text text-anchor="middle" x="1195" y="-524" font-family="Arial" font-size="10.00">S&#45;2078</text>
</g>
<!-- SR&#45;0022&#45;&gt;S&#45;1740 -->
<g id="edge20" class="edge">
<title>SR&#45;0022&#45;&gt;S&#45;1740</title>
<path fill="none" stroke="#4d4d4d" d="M1150,-417.23C1150,-417.23 1150,-339.6 1150,-339.6"/>
<polygon fill="#4d4d4d" stroke="#4d4d4d" points="1152.45,-339.6 1150,-332.6 1147.55,-339.6 1152.45,-339.6"/>
</g>
<!-- S&#45;2271 -->
<g id="node29" class="node">
<title>S&#45;2271</title>
<polygon fill="mediumseagreen" stroke="black" points="1285,-346 1213,-324.5 1285,-303 1357,-324.5 1285,-346"/>
<text text-anchor="middle" x="1285" y="-322" font-family="Arial" font-size="10.00">S&#45;2271</text>
</g>
<!-- SR&#45;0022&#45;&gt;S&#45;2271 -->
<g id="edge19" class="edge">
<title>SR&#45;0022&#45;&gt;S&#45;2271</title>
<path fill="none" stroke="#4d4d4d" d="M1240,-417.23C1240,-417.23 1240,-339.6 1240,-339.6"/>
<polygon fill="#4d4d4d" stroke="#4d4d4d" points="1242.45,-339.6 1240,-332.6 1237.55,-339.6 1242.45,-339.6"/>
</g>
<!-- S&#45;973 -->
<g id="node17" class="node">
<title>S&#45;973</title>
<polygon fill="mediumseagreen" stroke="black" points="432,-851 360,-829.5 432,-808 504,-829.5 432,-851"/>
<text text-anchor="middle" x="432" y="-827" font-family="Arial" font-size="10.00">S&#45;973</text>
</g>
<!-- C&#45;0217 -->
<g id="node18" class="node">
<title>C&#45;0217</title>
<ellipse fill="mediumseagreen" stroke="black" cx="612" cy="-829.5" rx="72" ry="21.5"/>
<text text-anchor="middle" x="612" y="-827" font-family="Arial" font-size="10.00">C&#45;0217</text>
</g>
<!-- S&#45;1845 -->
<g id="node19" class="node">
<title>S&#45;1845</title>
<polygon fill="mediumseagreen" stroke="black" points="432,-750 360,-728.5 432,-707 504,-728.5 432,-750"/>
<text text-anchor="middle" x="432" y="-726" font-family="Arial" font-size="10.00">S&#45;1845</text>
</g>
<!-- C&#45;0217&#45;&gt;S&#45;1845 -->
<g id="edge7" class="edge">
<title>C&#45;0217&#45;&gt;S&#45;1845</title>
<path fill="none" stroke="#4d4d4d" d="M539.78,-829C529.32,-829 522,-829 522,-829 522,-829 522,-728 522,-728 522,-728 509.47,-728 509.47,-728"/>
<polygon fill="#4d4d4d" stroke="#4d4d4d" points="509.47,-725.55 502.47,-728 509.47,-730.45 509.47,-725.55"/>
</g>
<!-- R&#45;037 -->
<g id="node25" class="node">
<title>R&#45;037</title>
<polygon fill="mediumseagreen" stroke="black" points="684,-719.59 684,-737.41 641.82,-750 582.18,-750 540,-737.41 540,-719.59 582.18,-707 641.82,-707 684,-719.59"/>
<text text-anchor="middle" x="612" y="-726" font-family="Arial" font-size="10.00">R&#45;037</text>
</g>
<!-- C&#45;0217&#45;&gt;R&#45;037 -->
<g id="edge8" class="edge">
<title>C&#45;0217&#45;&gt;R&#45;037</title>
<path fill="none" stroke="#4d4d4d" d="M612,-807.58C612,-807.58 612,-757.03 612,-757.03"/>
<polygon fill="#4d4d4d" stroke="#4d4d4d" points="614.45,-757.03 612,-750.03 609.55,-757.03 614.45,-757.03"/>
</g>
<!-- S&#45;2418 -->
<g id="node27" class="node">
<title>S&#45;2418</title>
<polygon fill="mediumseagreen" stroke="black" points="792,-750 720,-728.5 792,-707 864,-728.5 792,-750"/>
<text text-anchor="middle" x="792" y="-726" font-family="Arial" font-size="10.00">S&#45;2418</text>
</g>
<!-- C&#45;0217&#45;&gt;S&#45;2418 -->
<g id="edge29" class="edge">
<title>C&#45;0217&#45;&gt;S&#45;2418</title>
<path fill="none" stroke="#4d4d4d" d="M684.18,-829C734.25,-829 792,-829 792,-829 792,-829 792,-757.31 792,-757.31"/>
<polygon fill="#4d4d4d" stroke="#4d4d4d" points="794.45,-757.31 792,-750.31 789.55,-757.31 794.45,-757.31"/>
</g>
<!-- C&#45;0073 -->
<g id="node21" class="node">
<title>C&#45;0073</title>
<ellipse fill="mediumseagreen" stroke="black" cx="342" cy="-930.5" rx="72" ry="21.5"/>
<text text-anchor="middle" x="342" y="-928" font-family="Arial" font-size="10.00">C&#45;0073</text>
</g>
<!-- C&#45;0073&#45;&gt;C&#45;0978 -->
<g id="edge3" class="edge">
<title>C&#45;0073&#45;&gt;C&#45;0978</title>
<path fill="none" stroke="#4d4d4d" d="M270,-930C190.02,-930 72,-930 72,-930 72,-930 72,-858.31 72,-858.31"/>
<polygon fill="#4d4d4d" stroke="#4d4d4d" points="74.45,-858.31 72,-851.31 69.55,-858.31 74.45,-858.31"/>
</g>
<!-- C&#45;0073&#45;&gt;C&#45;0218 -->
<g id="edge5" class="edge">
<title>C&#45;0073&#45;&gt;C&#45;0218</title>
<path fill="none" stroke="#4d4d4d" d="M297,-913.37C297,-913.37 297,-853.38 297,-853.38"/>
<polygon fill="#4d4d4d" stroke="#4d4d4d" points="299.45,-853.38 297,-846.38 294.55,-853.38 299.45,-853.38"/>
</g>
<!-- C&#45;0073&#45;&gt;S&#45;973 -->
<g id="edge2" class="edge">
<title>C&#45;0073&#45;&gt;S&#45;973</title>
<path fill="none" stroke="#4d4d4d" d="M387,-913.37C387,-913.37 387,-844.78 387,-844.78"/>
<polygon fill="#4d4d4d" stroke="#4d4d4d" points="389.45,-844.78 387,-837.78 384.55,-844.78 389.45,-844.78"/>
</g>
<!-- C&#45;0073&#45;&gt;C&#45;0217 -->
<g id="edge6" class="edge">
<title>C&#45;0073&#45;&gt;C&#45;0217</title>
<path fill="none" stroke="#4d4d4d" d="M414,-930C493.98,-930 612,-930 612,-930 612,-930 612,-858.31 612,-858.31"/>
<polygon fill="#4d4d4d" stroke="#4d4d4d" points="614.45,-858.31 612,-851.31 609.55,-858.31 614.45,-858.31"/>
</g>
<!-- S&#45;1853&#45;&gt;S&#45;974 -->
<g id="edge12" class="edge">
<title>S&#45;1853&#45;&gt;S&#45;974</title>
<path fill="none" stroke="#4d4d4d" d="M475,-403.58C475,-403.58 475,-353.03 475,-353.03"/>
<polygon fill="#4d4d4d" stroke="#4d4d4d" points="477.45,-353.03 475,-346.03 472.55,-353.03 477.45,-353.03"/>
</g>
<!-- S&#45;785 -->
<g id="node23" class="node">
<title>S&#45;785</title>
<polygon fill="mediumseagreen" stroke="black" points="1015,-649 943,-627.5 1015,-606 1087,-627.5 1015,-649"/>
<text text-anchor="middle" x="1015" y="-625" font-family="Arial" font-size="10.00">S&#45;785</text>
</g>
<!-- S&#45;785&#45;&gt;S&#45;1111 -->
<g id="edge26" class="edge">
<title>S&#45;785&#45;&gt;S&#45;1111</title>
<path fill="none" stroke="#4d4d4d" d="M1015,-605.58C1015,-605.58 1015,-555.03 1015,-555.03"/>
<polygon fill="#4d4d4d" stroke="#4d4d4d" points="1017.45,-555.03 1015,-548.03 1012.55,-555.03 1017.45,-555.03"/>
</g>
<!-- S&#45;785&#45;&gt;S&#45;2078 -->
<g id="edge27" class="edge">
<title>S&#45;785&#45;&gt;S&#45;2078</title>
<path fill="none" stroke="#4d4d4d" d="M1085.37,-627C1135.85,-627 1195,-627 1195,-627 1195,-627 1195,-555.31 1195,-555.31"/>
<polygon fill="#4d4d4d" stroke="#4d4d4d" points="1197.45,-555.31 1195,-548.31 1192.55,-555.31 1197.45,-555.31"/>
</g>
<!-- 304&#45;26&#45; -->
<g id="node24" class="node">
<title>304&#45;26&#45;</title>
<polygon fill="gold" stroke="black" points="414,-1026.59 414,-1044.41 371.82,-1057 312.18,-1057 270,-1044.41 270,-1026.59 312.18,-1014 371.82,-1014 414,-1026.59"/>
<polygon fill="none" stroke="black" points="418,-1023.61 418,-1047.39 372.41,-1061 311.59,-1061 266,-1047.39 266,-1023.61 311.59,-1010 372.41,-1010 418,-1023.61"/>
<text text-anchor="middle" x="342" y="-1033" font-family="Arial" font-size="10.00">304&#45;26&#45;</text>
</g>
<!-- 304&#45;26&#45;&#45;&gt;C&#45;0073 -->
<g id="edge1" class="edge">
<title>304&#45;26&#45;&#45;&gt;C&#45;0073</title>
<path fill="none" stroke="#4d4d4d" d="M342,-1009.81C342,-1009.81 342,-959.03 342,-959.03"/>
<polygon fill="#4d4d4d" stroke="#4d4d4d" points="344.45,-959.03 342,-952.03 339.55,-959.03 344.45,-959.03"/>
</g>
<!-- R&#45;037&#45;&gt;S&#45;1140 -->
<g id="edge28" class="edge">
<title>R&#45;037&#45;&gt;S&#45;1140</title>
<path fill="none" stroke="#4d4d4d" d="M588,-706.79C588,-693.1 588,-678 588,-678 588,-678 381.5,-678 381.5,-678 381.5,-678 381.5,-141.1 381.5,-141.1"/>
<polygon fill="#4d4d4d" stroke="#4d4d4d" points="383.95,-141.1 381.5,-134.1 379.05,-141.1 383.95,-141.1"/>
</g>
<!-- R&#45;037&#45;&gt;S&#45;786 -->
<g id="edge9" class="edge">
<title>R&#45;037&#45;&gt;S&#45;786</title>
<path fill="none" stroke="#4d4d4d" d="M636,-706.58C636,-706.58 636,-648.9 636,-648.9"/>
<polygon fill="#4d4d4d" stroke="#4d4d4d" points="638.45,-648.9 636,-641.9 633.55,-648.9 638.45,-648.9"/>
</g>
<!-- R&#45;037&#45;&gt;S&#45;785 -->
<g id="edge25" class="edge">
<title>R&#45;037&#45;&gt;S&#45;785</title>
<path fill="none" stroke="#4d4d4d" d="M684.22,-728C694.68,-728 702,-728 702,-728 702,-728 702,-627 702,-627 702,-627 937.37,-627 937.37,-627"/>
<polygon fill="#4d4d4d" stroke="#4d4d4d" points="937.37,-629.45 944.37,-627 937.37,-624.55 937.37,-629.45"/>
</g>
<!-- R&#45;233&#45;&gt;ext_circ_304_22_ -->
<g id="edge30" class="edge">
<title>R&#45;233&#45;&gt;ext_circ_304_22_</title>
<path fill="none" stroke="darkorange" stroke-dasharray="5,2" d="M136.5,-709.5C136.5,-709.5 136.5,-656.22 136.5,-656.22"/>
<polygon fill="darkorange" stroke="darkorange" points="138.95,-656.22 136.5,-649.22 134.05,-656.22 138.95,-656.22"/>
</g>
<!-- R&#45;142&#45;&gt;ext_circ_304_27_ -->
<g id="edge32" class="edge">
<title>R&#45;142&#45;&gt;ext_circ_304_27_</title>
<path fill="none" stroke="darkorange" stroke-dasharray="5,2" d="M555.9,-122C528.91,-122 504.67,-122 504.67,-122 504.67,-122 504.67,-50.31 504.67,-50.31"/>
<polygon fill="darkorange" stroke="darkorange" points="507.12,-50.31 504.67,-43.31 502.22,-50.31 507.12,-50.31"/>
</g>
</g>
</svg>
