<?xml version="1.0" encoding="UTF-8" standalone="no"?>
<!DOCTYPE svg PUBLIC "-//W3C//DTD SVG 1.1//EN"
 "http://www.w3.org/Graphics/SVG/1.1/DTD/svg11.dtd">
<!-- Generated by graphviz version 2.50.0 (0)
 -->
<!-- Title: Grafo_Circuito_304_22_ Pages: 1 -->
<svg width="1293pt" height="1170pt"
 viewBox="0.00 0.00 1293.00 1170.00" xmlns="http://www.w3.org/2000/svg" xmlns:xlink="http://www.w3.org/1999/xlink">
<g id="graph0" class="graph" transform="scale(1 1) rotate(0) translate(4 1166)">
<title>Grafo_Circuito_304_22_</title>
<polygon fill="white" stroke="transparent" points="-4,4 -4,-1166 1289,-1166 1289,4 -4,4"/>
<!-- 304&#45;22&#45; -->
<g id="node1" class="node">
<title>304&#45;22&#45;</title>
<polygon fill="gold" stroke="black" points="655,-1127.59 655,-1145.41 612.82,-1158 553.18,-1158 511,-1145.41 511,-1127.59 553.18,-1115 612.82,-1115 655,-1127.59"/>
<polygon fill="none" stroke="black" points="659,-1124.61 659,-1148.39 613.41,-1162 552.59,-1162 507,-1148.39 507,-1124.61 552.59,-1111 613.41,-1111 659,-1124.61"/>
<text text-anchor="middle" x="583" y="-1134" font-family="Arial" font-size="10.00">304&#45;22&#45;</text>
</g>
<!-- C&#45;0035 -->
<g id="node24" class="node">
<title>C&#45;0035</title>
<ellipse fill="mediumseagreen" stroke="black" cx="583" cy="-1031.5" rx="72" ry="21.5"/>
<text text-anchor="middle" x="583" y="-1029" font-family="Arial" font-size="10.00">C&#45;0035</text>
</g>
<!-- 304&#45;22&#45;&#45;&gt;C&#45;0035 -->
<g id="edge1" class="edge">
<title>304&#45;22&#45;&#45;&gt;C&#45;0035</title>
<path fill="none" stroke="#4d4d4d" d="M583,-1110.81C583,-1110.81 583,-1060.03 583,-1060.03"/>
<polygon fill="#4d4d4d" stroke="#4d4d4d" points="585.45,-1060.03 583,-1053.03 580.55,-1060.03 585.45,-1060.03"/>
</g>
<!-- C&#45;0722 -->
<g id="node2" class="node">
<title>C&#45;0722</title>
<ellipse fill="mediumseagreen" stroke="black" cx="313" cy="-728.5" rx="72" ry="21.5"/>
<text text-anchor="middle" x="313" y="-726" font-family="Arial" font-size="10.00">C&#45;0722</text>
</g>
<!-- R&#45;067 -->
<g id="node11" class="node">
<title>R&#45;067</title>
<polygon fill="mediumseagreen" stroke="black" points="385,-618.59 385,-636.41 342.82,-649 283.18,-649 241,-636.41 241,-618.59 283.18,-606 342.82,-606 385,-618.59"/>
<text text-anchor="middle" x="313" y="-625" font-family="Arial" font-size="10.00">R&#45;067</text>
</g>
<!-- C&#45;0722&#45;&gt;R&#45;067 -->
<g id="edge15" class="edge">
<title>C&#45;0722&#45;&gt;R&#45;067</title>
<path fill="none" stroke="#4d4d4d" d="M313,-706.58C313,-706.58 313,-656.03 313,-656.03"/>
<polygon fill="#4d4d4d" stroke="#4d4d4d" points="315.45,-656.03 313,-649.03 310.55,-656.03 315.45,-656.03"/>
</g>
<!-- C&#45;0977 -->
<g id="node3" class="node">
<title>C&#45;0977</title>
<ellipse fill="mediumseagreen" stroke="black" cx="673" cy="-425.5" rx="72" ry="21.5"/>
<text text-anchor="middle" x="673" y="-423" font-family="Arial" font-size="10.00">C&#45;0977</text>
</g>
<!-- R&#45;233 -->
<g id="node20" class="node">
<title>R&#45;233</title>
<polygon fill="tomato" stroke="black" points="745,-315.59 745,-333.41 702.82,-346 643.18,-346 601,-333.41 601,-315.59 643.18,-303 702.82,-303 745,-315.59"/>
<text text-anchor="middle" x="673" y="-322" font-family="Arial" font-size="10.00">R&#45;233</text>
</g>
<!-- C&#45;0977&#45;&gt;R&#45;233 -->
<g id="edge11" class="edge">
<title>C&#45;0977&#45;&gt;R&#45;233</title>
<path fill="none" stroke="#4d4d4d" d="M673,-403.58C673,-403.58 673,-353.03 673,-353.03"/>
<polygon fill="#4d4d4d" stroke="#4d4d4d" points="675.45,-353.03 673,-346.03 670.55,-353.03 675.45,-353.03"/>
</g>
<!-- R&#45;160 -->
<g id="node4" class="node">
<title>R&#45;160</title>
<polygon fill="tomato" stroke="black" points="1010,-12.59 1010,-30.41 967.82,-43 908.18,-43 866,-30.41 866,-12.59 908.18,0 967.82,0 1010,-12.59"/>
<text text-anchor="middle" x="938" y="-19" font-family="Arial" font-size="10.00">R&#45;160</text>
</g>
<!-- ext_circ_307_24_ -->
<g id="node33" class="node">
<title>ext_circ_307_24_</title>
<polygon fill="lightpink" stroke="darkorange" stroke-dasharray="5,2" points="1027,-1158 883,-1158 883,-1115 1027,-1115 1027,-1158"/>
<text text-anchor="middle" x="955" y="-1139.5" font-family="Arial" font-size="10.00">Circuito:</text>
<text text-anchor="middle" x="955" y="-1128.5" font-family="Arial" font-size="10.00">307&#45;24&#45;</text>
</g>
<!-- R&#45;160&#45;&gt;ext_circ_307_24_ -->
<g id="edge36" class="edge">
<title>R&#45;160&#45;&gt;ext_circ_307_24_</title>
<path fill="none" stroke="darkorange" stroke-dasharray="5,2" d="M865.78,-21C855.32,-21 848,-21 848,-21 848,-21 848,-230 848,-230 848,-230 937,-230 937,-230 937,-230 937,-1107.99 937,-1107.99"/>
<polygon fill="darkorange" stroke="darkorange" points="934.55,-1107.99 937,-1114.99 939.45,-1107.99 934.55,-1107.99"/>
</g>
<!-- S&#45;894 -->
<g id="node5" class="node">
<title>S&#45;894</title>
<polygon fill="mediumseagreen" stroke="black" points="853,-447 781,-425.5 853,-404 925,-425.5 853,-447"/>
<text text-anchor="middle" x="853" y="-423" font-family="Arial" font-size="10.00">S&#45;894</text>
</g>
<!-- R&#45;276 -->
<g id="node6" class="node">
<title>R&#45;276</title>
<polygon fill="tomato" stroke="black" points="470,-113.59 470,-131.41 427.82,-144 368.18,-144 326,-131.41 326,-113.59 368.18,-101 427.82,-101 470,-113.59"/>
<text text-anchor="middle" x="398" y="-120" font-family="Arial" font-size="10.00">R&#45;276</text>
</g>
<!-- ext_circ_304_23_ -->
<g id="node34" class="node">
<title>ext_circ_304_23_</title>
<polygon fill="lightpink" stroke="darkorange" stroke-dasharray="5,2" points="847,-1158 703,-1158 703,-1115 847,-1115 847,-1158"/>
<text text-anchor="middle" x="775" y="-1139.5" font-family="Arial" font-size="10.00">Circuito:</text>
<text text-anchor="middle" x="775" y="-1128.5" font-family="Arial" font-size="10.00">304&#45;23&#45;</text>
</g>
<!-- R&#45;276&#45;&gt;ext_circ_304_23_ -->
<g id="edge38" class="edge">
<title>R&#45;276&#45;&gt;ext_circ_304_23_</title>
<path fill="none" stroke="darkorange" stroke-dasharray="5,2" d="M343,-136.75C343,-174.47 343,-274 343,-274 343,-274 769,-274 769,-274 769,-274 769,-1107.75 769,-1107.75"/>
<polygon fill="darkorange" stroke="darkorange" points="766.55,-1107.75 769,-1114.75 771.45,-1107.75 766.55,-1107.75"/>
</g>
<!-- C&#45;0723 -->
<g id="node7" class="node">
<title>C&#45;0723</title>
<ellipse fill="tomato" stroke="black" cx="493" cy="-728.5" rx="72" ry="21.5"/>
<text text-anchor="middle" x="493" y="-726" font-family="Arial" font-size="10.00">C&#45;0723</text>
</g>
<!-- C&#45;0724 -->
<g id="node27" class="node">
<title>C&#45;0724</title>
<ellipse fill="mediumseagreen" stroke="black" cx="313" cy="-526.5" rx="72" ry="21.5"/>
<text text-anchor="middle" x="313" y="-524" font-family="Arial" font-size="10.00">C&#45;0724</text>
</g>
<!-- C&#45;0723&#45;&gt;C&#45;0724 -->
<g id="edge34" class="edge">
<title>C&#45;0723&#45;&gt;C&#45;0724</title>
<path fill="none" stroke="blue" stroke-dasharray="5,2" d="M469,-708C469,-657.29 469,-530 469,-530 469,-530 391.15,-530 391.15,-530"/>
<polygon fill="blue" stroke="blue" points="391.15,-527.55 384.15,-530 391.15,-532.45 391.15,-527.55"/>
</g>
<!-- C&#45;0726 -->
<g id="node8" class="node">
<title>C&#45;0726</title>
<ellipse fill="tomato" stroke="black" cx="578" cy="-122.5" rx="72" ry="21.5"/>
<text text-anchor="middle" x="578" y="-120" font-family="Arial" font-size="10.00">C&#45;0726</text>
</g>
<!-- C&#45;0726&#45;&gt;ext_circ_307_24_ -->
<g id="edge35" class="edge">
<title>C&#45;0726&#45;&gt;ext_circ_307_24_</title>
<path fill="none" stroke="darkorange" stroke-dasharray="5,2" d="M625.5,-138.76C625.5,-153.52 625.5,-173 625.5,-173 625.5,-173 949,-173 949,-173 949,-173 949,-1107.57 949,-1107.57"/>
<polygon fill="darkorange" stroke="darkorange" points="946.55,-1107.57 949,-1114.57 951.45,-1107.57 946.55,-1107.57"/>
</g>
<!-- S&#45;1939 -->
<g id="node9" class="node">
<title>S&#45;1939</title>
<polygon fill="mediumseagreen" stroke="black" points="72,-245 0,-223.5 72,-202 144,-223.5 72,-245"/>
<text text-anchor="middle" x="72" y="-221" font-family="Arial" font-size="10.00">S&#45;1939</text>
</g>
<!-- S&#45;1112 -->
<g id="node10" class="node">
<title>S&#45;1112</title>
<polygon fill="mediumseagreen" stroke="black" points="133,-447 61,-425.5 133,-404 205,-425.5 133,-447"/>
<text text-anchor="middle" x="133" y="-423" font-family="Arial" font-size="10.00">S&#45;1112</text>
</g>
<!-- R&#45;067&#45;&gt;C&#45;0724 -->
<g id="edge16" class="edge">
<title>R&#45;067&#45;&gt;C&#45;0724</title>
<path fill="none" stroke="#4d4d4d" d="M313,-605.58C313,-605.58 313,-555.03 313,-555.03"/>
<polygon fill="#4d4d4d" stroke="#4d4d4d" points="315.45,-555.03 313,-548.03 310.55,-555.03 315.45,-555.03"/>
</g>
<!-- S&#45;1915 -->
<g id="node12" class="node">
<title>S&#45;1915</title>
<polygon fill="mediumseagreen" stroke="black" points="313,-346 241,-324.5 313,-303 385,-324.5 313,-346"/>
<text text-anchor="middle" x="313" y="-322" font-family="Arial" font-size="10.00">S&#45;1915</text>
</g>
<!-- S&#45;1915&#45;&gt;S&#45;1939 -->
<g id="edge20" class="edge">
<title>S&#45;1915&#45;&gt;S&#45;1939</title>
<path fill="none" stroke="#4d4d4d" d="M242.61,-324C181.42,-324 102.5,-324 102.5,-324 102.5,-324 102.5,-243.23 102.5,-243.23"/>
<polygon fill="#4d4d4d" stroke="#4d4d4d" points="104.95,-243.23 102.5,-236.23 100.05,-243.23 104.95,-243.23"/>
</g>
<!-- C&#45;0027 -->
<g id="node16" class="node">
<title>C&#45;0027</title>
<ellipse fill="tomato" stroke="black" cx="252" cy="-223.5" rx="72" ry="21.5"/>
<text text-anchor="middle" x="252" y="-221" font-family="Arial" font-size="10.00">C&#45;0027</text>
</g>
<!-- S&#45;1915&#45;&gt;C&#45;0027 -->
<g id="edge26" class="edge">
<title>S&#45;1915&#45;&gt;C&#45;0027</title>
<path fill="none" stroke="#4d4d4d" d="M268.67,-316.23C268.67,-316.23 268.67,-251.43 268.67,-251.43"/>
<polygon fill="#4d4d4d" stroke="#4d4d4d" points="271.12,-251.43 268.67,-244.43 266.22,-251.43 271.12,-251.43"/>
</g>
<!-- C&#45;1111 -->
<g id="node17" class="node">
<title>C&#45;1111</title>
<ellipse fill="mediumseagreen" stroke="black" cx="432" cy="-223.5" rx="72" ry="21.5"/>
<text text-anchor="middle" x="432" y="-221" font-family="Arial" font-size="10.00">C&#45;1111</text>
</g>
<!-- S&#45;1915&#45;&gt;C&#45;1111 -->
<g id="edge27" class="edge">
<title>S&#45;1915&#45;&gt;C&#45;1111</title>
<path fill="none" stroke="#4d4d4d" d="M368.33,-319.35C368.33,-319.35 368.33,-240.58 368.33,-240.58"/>
<polygon fill="#4d4d4d" stroke="#4d4d4d" points="370.78,-240.58 368.33,-233.58 365.88,-240.58 370.78,-240.58"/>
</g>
<!-- S&#45;890 -->
<g id="node25" class="node">
<title>S&#45;890</title>
<polygon fill="mediumseagreen" stroke="black" points="732,-245 660,-223.5 732,-202 804,-223.5 732,-245"/>
<text text-anchor="middle" x="732" y="-221" font-family="Arial" font-size="10.00">S&#45;890</text>
</g>
<!-- S&#45;1915&#45;&gt;S&#45;890 -->
<g id="edge21" class="edge">
<title>S&#45;1915&#45;&gt;S&#45;890</title>
<path fill="none" stroke="#4d4d4d" d="M376.67,-321.69C376.67,-309.15 376.67,-259 376.67,-259 376.67,-259 702.5,-259 702.5,-259 702.5,-259 702.5,-243.32 702.5,-243.32"/>
<polygon fill="#4d4d4d" stroke="#4d4d4d" points="704.95,-243.32 702.5,-236.32 700.05,-243.32 704.95,-243.32"/>
</g>
<!-- S&#45;2276 -->
<g id="node13" class="node">
<title>S&#45;2276</title>
<polygon fill="mediumseagreen" stroke="black" points="758,-144 686,-122.5 758,-101 830,-122.5 758,-144"/>
<text text-anchor="middle" x="758" y="-120" font-family="Arial" font-size="10.00">S&#45;2276</text>
</g>
<!-- S&#45;862 -->
<g id="node14" class="node">
<title>S&#45;862</title>
<polygon fill="mediumseagreen" stroke="black" points="313,-447 241,-425.5 313,-404 385,-425.5 313,-447"/>
<text text-anchor="middle" x="313" y="-423" font-family="Arial" font-size="10.00">S&#45;862</text>
</g>
<!-- C&#45;0412 -->
<g id="node15" class="node">
<title>C&#45;0412</title>
<ellipse fill="mediumseagreen" stroke="black" cx="853" cy="-526.5" rx="72" ry="21.5"/>
<text text-anchor="middle" x="853" y="-524" font-family="Arial" font-size="10.00">C&#45;0412</text>
</g>
<!-- C&#45;0412&#45;&gt;C&#45;0977 -->
<g id="edge10" class="edge">
<title>C&#45;0412&#45;&gt;C&#45;0977</title>
<path fill="none" stroke="#4d4d4d" d="M796.68,-513C752,-513 697,-513 697,-513 697,-513 697,-452.79 697,-452.79"/>
<polygon fill="#4d4d4d" stroke="#4d4d4d" points="699.45,-452.79 697,-445.79 694.55,-452.79 699.45,-452.79"/>
</g>
<!-- C&#45;0412&#45;&gt;S&#45;894 -->
<g id="edge8" class="edge">
<title>C&#45;0412&#45;&gt;S&#45;894</title>
<path fill="none" stroke="#4d4d4d" d="M853,-504.58C853,-504.58 853,-454.03 853,-454.03"/>
<polygon fill="#4d4d4d" stroke="#4d4d4d" points="855.45,-454.03 853,-447.03 850.55,-454.03 855.45,-454.03"/>
</g>
<!-- C&#45;0218 -->
<g id="node26" class="node">
<title>C&#45;0218</title>
<ellipse fill="tomato" stroke="black" cx="1033" cy="-425.5" rx="72" ry="21.5"/>
<text text-anchor="middle" x="1033" y="-423" font-family="Arial" font-size="10.00">C&#45;0218</text>
</g>
<!-- C&#45;0412&#45;&gt;C&#45;0218 -->
<g id="edge9" class="edge">
<title>C&#45;0412&#45;&gt;C&#45;0218</title>
<path fill="none" stroke="#4d4d4d" d="M920.61,-519C956.8,-519 994,-519 994,-519 994,-519 994,-450.97 994,-450.97"/>
<polygon fill="#4d4d4d" stroke="#4d4d4d" points="996.45,-450.97 994,-443.97 991.55,-450.97 996.45,-450.97"/>
</g>
<!-- S&#45;895 -->
<g id="node30" class="node">
<title>S&#45;895</title>
<polygon fill="mediumseagreen" stroke="black" points="1213,-447 1141,-425.5 1213,-404 1285,-425.5 1213,-447"/>
<text text-anchor="middle" x="1213" y="-423" font-family="Arial" font-size="10.00">S&#45;895</text>
</g>
<!-- C&#45;0412&#45;&gt;S&#45;895 -->
<g id="edge12" class="edge">
<title>C&#45;0412&#45;&gt;S&#45;895</title>
<path fill="none" stroke="#4d4d4d" d="M921.86,-533C1016.18,-533 1174,-533 1174,-533 1174,-533 1174,-442.42 1174,-442.42"/>
<polygon fill="#4d4d4d" stroke="#4d4d4d" points="1176.45,-442.42 1174,-435.42 1171.55,-442.42 1176.45,-442.42"/>
</g>
<!-- C&#45;0027&#45;&gt;ext_circ_304_23_ -->
<g id="edge37" class="edge">
<title>C&#45;0027&#45;&gt;ext_circ_304_23_</title>
<path fill="none" stroke="darkorange" stroke-dasharray="5,2" d="M296.33,-240.45C296.33,-259.56 296.33,-288 296.33,-288 296.33,-288 757,-288 757,-288 757,-288 757,-1107.67 757,-1107.67"/>
<polygon fill="darkorange" stroke="darkorange" points="754.55,-1107.67 757,-1114.67 759.45,-1107.67 754.55,-1107.67"/>
</g>
<!-- C&#45;1111&#45;&gt;R&#45;276 -->
<g id="edge28" class="edge">
<title>C&#45;1111&#45;&gt;R&#45;276</title>
<path fill="none" stroke="#4d4d4d" d="M415,-202.57C415,-202.57 415,-151.1 415,-151.1"/>
<polygon fill="#4d4d4d" stroke="#4d4d4d" points="417.45,-151.1 415,-144.1 412.55,-151.1 417.45,-151.1"/>
</g>
<!-- S&#45;892 -->
<g id="node18" class="node">
<title>S&#45;892</title>
<polygon fill="mediumseagreen" stroke="black" points="583,-952 511,-930.5 583,-909 655,-930.5 583,-952"/>
<text text-anchor="middle" x="583" y="-928" font-family="Arial" font-size="10.00">S&#45;892</text>
</g>
<!-- S&#45;1326 -->
<g id="node22" class="node">
<title>S&#45;1326</title>
<polygon fill="mediumseagreen" stroke="black" points="583,-851 511,-829.5 583,-808 655,-829.5 583,-851"/>
<text text-anchor="middle" x="583" y="-827" font-family="Arial" font-size="10.00">S&#45;1326</text>
</g>
<!-- S&#45;892&#45;&gt;S&#45;1326 -->
<g id="edge3" class="edge">
<title>S&#45;892&#45;&gt;S&#45;1326</title>
<path fill="none" stroke="#4d4d4d" d="M583,-908.58C583,-908.58 583,-858.03 583,-858.03"/>
<polygon fill="#4d4d4d" stroke="#4d4d4d" points="585.45,-858.03 583,-851.03 580.55,-858.03 585.45,-858.03"/>
</g>
<!-- C&#45;0410 -->
<g id="node19" class="node">
<title>C&#45;0410</title>
<ellipse fill="tomato" stroke="black" cx="673" cy="-728.5" rx="72" ry="21.5"/>
<text text-anchor="middle" x="673" y="-726" font-family="Arial" font-size="10.00">C&#45;0410</text>
</g>
<!-- C&#45;0410&#45;&gt;C&#45;0412 -->
<g id="edge31" class="edge">
<title>C&#45;0410&#45;&gt;C&#45;0412</title>
<path fill="none" stroke="blue" stroke-dasharray="5,2" d="M649,-708.22C649,-659.33 649,-539 649,-539 649,-539 787.27,-539 787.27,-539"/>
<polygon fill="blue" stroke="blue" points="787.27,-541.45 794.27,-539 787.27,-536.55 787.27,-541.45"/>
</g>
<!-- ext_circ_304_26_ -->
<g id="node32" class="node">
<title>ext_circ_304_26_</title>
<polygon fill="lightpink" stroke="darkorange" stroke-dasharray="5,2" points="1207,-1158 1063,-1158 1063,-1115 1207,-1115 1207,-1158"/>
<text text-anchor="middle" x="1135" y="-1139.5" font-family="Arial" font-size="10.00">Circuito:</text>
<text text-anchor="middle" x="1135" y="-1128.5" font-family="Arial" font-size="10.00">304&#45;26&#45;</text>
</g>
<!-- R&#45;233&#45;&gt;ext_circ_304_26_ -->
<g id="edge33" class="edge">
<title>R&#45;233&#45;&gt;ext_circ_304_26_</title>
<path fill="none" stroke="darkorange" stroke-dasharray="5,2" d="M745.3,-324C872.5,-324 1123,-324 1123,-324 1123,-324 1123,-1107.77 1123,-1107.77"/>
<polygon fill="darkorange" stroke="darkorange" points="1120.55,-1107.77 1123,-1114.77 1125.45,-1107.77 1120.55,-1107.77"/>
</g>
<!-- S&#45;861 -->
<g id="node21" class="node">
<title>S&#45;861</title>
<polygon fill="mediumseagreen" stroke="black" points="493,-447 421,-425.5 493,-404 565,-425.5 493,-447"/>
<text text-anchor="middle" x="493" y="-423" font-family="Arial" font-size="10.00">S&#45;861</text>
</g>
<!-- S&#45;861&#45;&gt;S&#45;1915 -->
<g id="edge19" class="edge">
<title>S&#45;861&#45;&gt;S&#45;1915</title>
<path fill="none" stroke="#4d4d4d" d="M422.53,-425C411.14,-425 403,-425 403,-425 403,-425 403,-324 403,-324 403,-324 390.47,-324 390.47,-324"/>
<polygon fill="#4d4d4d" stroke="#4d4d4d" points="390.47,-321.55 383.47,-324 390.47,-326.45 390.47,-321.55"/>
</g>
<!-- S&#45;1916 -->
<g id="node31" class="node">
<title>S&#45;1916</title>
<polygon fill="mediumseagreen" stroke="black" points="493,-346 421,-324.5 493,-303 565,-324.5 493,-346"/>
<text text-anchor="middle" x="493" y="-322" font-family="Arial" font-size="10.00">S&#45;1916</text>
</g>
<!-- S&#45;861&#45;&gt;S&#45;1916 -->
<g id="edge29" class="edge">
<title>S&#45;861&#45;&gt;S&#45;1916</title>
<path fill="none" stroke="#4d4d4d" d="M493,-403.58C493,-403.58 493,-353.03 493,-353.03"/>
<polygon fill="#4d4d4d" stroke="#4d4d4d" points="495.45,-353.03 493,-346.03 490.55,-353.03 495.45,-353.03"/>
</g>
<!-- S&#45;1326&#45;&gt;C&#45;0722 -->
<g id="edge14" class="edge">
<title>S&#45;1326&#45;&gt;C&#45;0722</title>
<path fill="none" stroke="#4d4d4d" d="M512.41,-829C432.41,-829 313,-829 313,-829 313,-829 313,-757.31 313,-757.31"/>
<polygon fill="#4d4d4d" stroke="#4d4d4d" points="315.45,-757.31 313,-750.31 310.55,-757.31 315.45,-757.31"/>
</g>
<!-- S&#45;1326&#45;&gt;C&#45;0723 -->
<g id="edge13" class="edge">
<title>S&#45;1326&#45;&gt;C&#45;0723</title>
<path fill="none" stroke="#4d4d4d" d="M538,-821.23C538,-821.23 538,-752.52 538,-752.52"/>
<polygon fill="#4d4d4d" stroke="#4d4d4d" points="540.45,-752.52 538,-745.52 535.55,-752.52 540.45,-752.52"/>
</g>
<!-- S&#45;1326&#45;&gt;C&#45;0410 -->
<g id="edge5" class="edge">
<title>S&#45;1326&#45;&gt;C&#45;0410</title>
<path fill="none" stroke="#4d4d4d" d="M628,-821.23C628,-821.23 628,-752.52 628,-752.52"/>
<polygon fill="#4d4d4d" stroke="#4d4d4d" points="630.45,-752.52 628,-745.52 625.55,-752.52 630.45,-752.52"/>
</g>
<!-- C&#45;0411 -->
<g id="node29" class="node">
<title>C&#45;0411</title>
<ellipse fill="mediumseagreen" stroke="black" cx="853" cy="-728.5" rx="72" ry="21.5"/>
<text text-anchor="middle" x="853" y="-726" font-family="Arial" font-size="10.00">C&#45;0411</text>
</g>
<!-- S&#45;1326&#45;&gt;C&#45;0411 -->
<g id="edge4" class="edge">
<title>S&#45;1326&#45;&gt;C&#45;0411</title>
<path fill="none" stroke="#4d4d4d" d="M653.56,-829C721.5,-829 814,-829 814,-829 814,-829 814,-753.93 814,-753.93"/>
<polygon fill="#4d4d4d" stroke="#4d4d4d" points="816.45,-753.93 814,-746.93 811.55,-753.93 816.45,-753.93"/>
</g>
<!-- R&#45;140 -->
<g id="node23" class="node">
<title>R&#45;140</title>
<polygon fill="mediumseagreen" stroke="black" points="925,-618.59 925,-636.41 882.82,-649 823.18,-649 781,-636.41 781,-618.59 823.18,-606 882.82,-606 925,-618.59"/>
<text text-anchor="middle" x="853" y="-625" font-family="Arial" font-size="10.00">R&#45;140</text>
</g>
<!-- R&#45;140&#45;&gt;C&#45;0412 -->
<g id="edge7" class="edge">
<title>R&#45;140&#45;&gt;C&#45;0412</title>
<path fill="none" stroke="#4d4d4d" d="M853,-605.58C853,-605.58 853,-555.03 853,-555.03"/>
<polygon fill="#4d4d4d" stroke="#4d4d4d" points="855.45,-555.03 853,-548.03 850.55,-555.03 855.45,-555.03"/>
</g>
<!-- C&#45;0035&#45;&gt;S&#45;892 -->
<g id="edge2" class="edge">
<title>C&#45;0035&#45;&gt;S&#45;892</title>
<path fill="none" stroke="#4d4d4d" d="M583,-1009.58C583,-1009.58 583,-959.03 583,-959.03"/>
<polygon fill="#4d4d4d" stroke="#4d4d4d" points="585.45,-959.03 583,-952.03 580.55,-959.03 585.45,-959.03"/>
</g>
<!-- S&#45;890&#45;&gt;C&#45;0726 -->
<g id="edge23" class="edge">
<title>S&#45;890&#45;&gt;C&#45;0726</title>
<path fill="none" stroke="#4d4d4d" d="M673,-219.14C673,-199.71 673,-122 673,-122 673,-122 657,-122 657,-122"/>
<polygon fill="#4d4d4d" stroke="#4d4d4d" points="657,-119.55 650,-122 657,-124.45 657,-119.55"/>
</g>
<!-- S&#45;890&#45;&gt;S&#45;2276 -->
<g id="edge22" class="edge">
<title>S&#45;890&#45;&gt;S&#45;2276</title>
<path fill="none" stroke="#4d4d4d" d="M745,-205.44C745,-205.44 745,-147.4 745,-147.4"/>
<polygon fill="#4d4d4d" stroke="#4d4d4d" points="747.45,-147.4 745,-140.4 742.55,-147.4 747.45,-147.4"/>
</g>
<!-- C&#45;0725 -->
<g id="node28" class="node">
<title>C&#45;0725</title>
<ellipse fill="mediumseagreen" stroke="black" cx="938" cy="-122.5" rx="72" ry="21.5"/>
<text text-anchor="middle" x="938" y="-120" font-family="Arial" font-size="10.00">C&#45;0725</text>
</g>
<!-- S&#45;890&#45;&gt;C&#45;0725 -->
<g id="edge24" class="edge">
<title>S&#45;890&#45;&gt;C&#45;0725</title>
<path fill="none" stroke="#4d4d4d" d="M779.29,-216C827.58,-216 895.5,-216 895.5,-216 895.5,-216 895.5,-147.09 895.5,-147.09"/>
<polygon fill="#4d4d4d" stroke="#4d4d4d" points="897.95,-147.09 895.5,-140.09 893.05,-147.09 897.95,-147.09"/>
</g>
<!-- C&#45;0218&#45;&gt;ext_circ_304_26_ -->
<g id="edge32" class="edge">
<title>C&#45;0218&#45;&gt;ext_circ_304_26_</title>
<path fill="none" stroke="darkorange" stroke-dasharray="5,2" d="M1084,-440.68C1084,-440.68 1084,-1107.9 1084,-1107.9"/>
<polygon fill="darkorange" stroke="darkorange" points="1081.55,-1107.9 1084,-1114.9 1086.45,-1107.9 1081.55,-1107.9"/>
</g>
<!-- C&#45;0724&#45;&gt;S&#45;1112 -->
<g id="edge30" class="edge">
<title>C&#45;0724&#45;&gt;S&#45;1112</title>
<path fill="none" stroke="#4d4d4d" d="M240.82,-526C190.75,-526 133,-526 133,-526 133,-526 133,-454.31 133,-454.31"/>
<polygon fill="#4d4d4d" stroke="#4d4d4d" points="135.45,-454.31 133,-447.31 130.55,-454.31 135.45,-454.31"/>
</g>
<!-- C&#45;0724&#45;&gt;S&#45;862 -->
<g id="edge18" class="edge">
<title>C&#45;0724&#45;&gt;S&#45;862</title>
<path fill="none" stroke="#4d4d4d" d="M313,-504.58C313,-504.58 313,-454.03 313,-454.03"/>
<polygon fill="#4d4d4d" stroke="#4d4d4d" points="315.45,-454.03 313,-447.03 310.55,-454.03 315.45,-454.03"/>
</g>
<!-- C&#45;0724&#45;&gt;S&#45;861 -->
<g id="edge17" class="edge">
<title>C&#45;0724&#45;&gt;S&#45;861</title>
<path fill="none" stroke="#4d4d4d" d="M383.49,-522C442.46,-522 517,-522 517,-522 517,-522 517,-447.16 517,-447.16"/>
<polygon fill="#4d4d4d" stroke="#4d4d4d" points="519.45,-447.16 517,-440.16 514.55,-447.16 519.45,-447.16"/>
</g>
<!-- C&#45;0725&#45;&gt;R&#45;160 -->
<g id="edge25" class="edge">
<title>C&#45;0725&#45;&gt;R&#45;160</title>
<path fill="none" stroke="#4d4d4d" d="M938,-100.58C938,-100.58 938,-50.03 938,-50.03"/>
<polygon fill="#4d4d4d" stroke="#4d4d4d" points="940.45,-50.03 938,-43.03 935.55,-50.03 940.45,-50.03"/>
</g>
<!-- C&#45;0411&#45;&gt;R&#45;140 -->
<g id="edge6" class="edge">
<title>C&#45;0411&#45;&gt;R&#45;140</title>
<path fill="none" stroke="#4d4d4d" d="M853,-706.58C853,-706.58 853,-656.03 853,-656.03"/>
<polygon fill="#4d4d4d" stroke="#4d4d4d" points="855.45,-656.03 853,-649.03 850.55,-656.03 855.45,-656.03"/>
</g>
</g>
</svg>
