<?xml version="1.0" encoding="UTF-8" standalone="no"?>
<!DOCTYPE svg PUBLIC "-//W3C//DTD SVG 1.1//EN"
 "http://www.w3.org/Graphics/SVG/1.1/DTD/svg11.dtd">
<!-- Generated by graphviz version 2.50.0 (0)
 -->
<!-- Title: Grafo_Circuito_208_27_ Pages: 1 -->
<svg width="1784pt" height="1473pt"
 viewBox="0.00 0.00 1784.00 1473.00" xmlns="http://www.w3.org/2000/svg" xmlns:xlink="http://www.w3.org/1999/xlink">
<g id="graph0" class="graph" transform="scale(1 1) rotate(0) translate(4 1469)">
<title>Grafo_Circuito_208_27_</title>
<polygon fill="white" stroke="transparent" points="-4,4 -4,-1469 1780,-1469 1780,4 -4,4"/>
<!-- S&#45;2045 -->
<g id="node1" class="node">
<title>S&#45;2045</title>
<polygon fill="mediumseagreen" stroke="black" points="1164,-144 1092,-122.5 1164,-101 1236,-122.5 1164,-144"/>
<text text-anchor="middle" x="1164" y="-120" font-family="Arial" font-size="10.00">S&#45;2045</text>
</g>
<!-- S&#45;1051 -->
<g id="node2" class="node">
<title>S&#45;1051</title>
<polygon fill="mediumseagreen" stroke="black" points="545,-1154 473,-1132.5 545,-1111 617,-1132.5 545,-1154"/>
<text text-anchor="middle" x="545" y="-1130" font-family="Arial" font-size="10.00">S&#45;1051</text>
</g>
<!-- C&#45;0602 -->
<g id="node9" class="node">
<title>C&#45;0602</title>
<ellipse fill="mediumseagreen" stroke="black" cx="455" cy="-1031.5" rx="72" ry="21.5"/>
<text text-anchor="middle" x="455" y="-1029" font-family="Arial" font-size="10.00">C&#45;0602</text>
</g>
<!-- S&#45;1051&#45;&gt;C&#45;0602 -->
<g id="edge6" class="edge">
<title>S&#45;1051&#45;&gt;C&#45;0602</title>
<path fill="none" stroke="#4d4d4d" d="M500,-1124.23C500,-1124.23 500,-1055.52 500,-1055.52"/>
<polygon fill="#4d4d4d" stroke="#4d4d4d" points="502.45,-1055.52 500,-1048.52 497.55,-1055.52 502.45,-1055.52"/>
</g>
<!-- C&#45;0600 -->
<g id="node21" class="node">
<title>C&#45;0600</title>
<ellipse fill="tomato" stroke="black" cx="635" cy="-1031.5" rx="72" ry="21.5"/>
<text text-anchor="middle" x="635" y="-1029" font-family="Arial" font-size="10.00">C&#45;0600</text>
</g>
<!-- S&#45;1051&#45;&gt;C&#45;0600 -->
<g id="edge7" class="edge">
<title>S&#45;1051&#45;&gt;C&#45;0600</title>
<path fill="none" stroke="#4d4d4d" d="M590,-1124.23C590,-1124.23 590,-1055.52 590,-1055.52"/>
<polygon fill="#4d4d4d" stroke="#4d4d4d" points="592.45,-1055.52 590,-1048.52 587.55,-1055.52 592.45,-1055.52"/>
</g>
<!-- S&#45;1387 -->
<g id="node3" class="node">
<title>S&#45;1387</title>
<polygon fill="mediumseagreen" stroke="black" points="624,-346 552,-324.5 624,-303 696,-324.5 624,-346"/>
<text text-anchor="middle" x="624" y="-322" font-family="Arial" font-size="10.00">S&#45;1387</text>
</g>
<!-- S&#45;2323 -->
<g id="node4" class="node">
<title>S&#45;2323</title>
<polygon fill="mediumseagreen" stroke="black" points="725,-1154 653,-1132.5 725,-1111 797,-1132.5 725,-1154"/>
<text text-anchor="middle" x="725" y="-1130" font-family="Arial" font-size="10.00">S&#45;2323</text>
</g>
<!-- S&#45;2063 -->
<g id="node5" class="node">
<title>S&#45;2063</title>
<polygon fill="mediumseagreen" stroke="black" points="804,-245 732,-223.5 804,-202 876,-223.5 804,-245"/>
<text text-anchor="middle" x="804" y="-221" font-family="Arial" font-size="10.00">S&#45;2063</text>
</g>
<!-- S&#45;805 -->
<g id="node6" class="node">
<title>S&#45;805</title>
<polygon fill="mediumseagreen" stroke="black" points="1704,-43 1632,-21.5 1704,0 1776,-21.5 1704,-43"/>
<text text-anchor="middle" x="1704" y="-19" font-family="Arial" font-size="10.00">S&#45;805</text>
</g>
<!-- S&#45;2228 -->
<g id="node7" class="node">
<title>S&#45;2228</title>
<polygon fill="mediumseagreen" stroke="black" points="95,-750 23,-728.5 95,-707 167,-728.5 95,-750"/>
<text text-anchor="middle" x="95" y="-726" font-family="Arial" font-size="10.00">S&#45;2228</text>
</g>
<!-- C&#45;0161 -->
<g id="node8" class="node">
<title>C&#45;0161</title>
<ellipse fill="mediumseagreen" stroke="black" cx="1344" cy="-223.5" rx="72" ry="21.5"/>
<text text-anchor="middle" x="1344" y="-221" font-family="Arial" font-size="10.00">C&#45;0161</text>
</g>
<!-- C&#45;0161&#45;&gt;S&#45;2045 -->
<g id="edge27" class="edge">
<title>C&#45;0161&#45;&gt;S&#45;2045</title>
<path fill="none" stroke="#4d4d4d" d="M1276.46,-216C1225.39,-216 1164,-216 1164,-216 1164,-216 1164,-151.19 1164,-151.19"/>
<polygon fill="#4d4d4d" stroke="#4d4d4d" points="1166.45,-151.19 1164,-144.19 1161.55,-151.19 1166.45,-151.19"/>
</g>
<!-- S&#45;PR40 -->
<g id="node12" class="node">
<title>S&#45;PR40</title>
<polygon fill="mediumseagreen" stroke="black" points="1344,-144 1272,-122.5 1344,-101 1416,-122.5 1344,-144"/>
<text text-anchor="middle" x="1344" y="-120" font-family="Arial" font-size="10.00">S&#45;PR40</text>
</g>
<!-- C&#45;0161&#45;&gt;S&#45;PR40 -->
<g id="edge23" class="edge">
<title>C&#45;0161&#45;&gt;S&#45;PR40</title>
<path fill="none" stroke="#4d4d4d" d="M1344,-201.58C1344,-201.58 1344,-151.03 1344,-151.03"/>
<polygon fill="#4d4d4d" stroke="#4d4d4d" points="1346.45,-151.03 1344,-144.03 1341.55,-151.03 1346.45,-151.03"/>
</g>
<!-- S&#45;PR38 -->
<g id="node15" class="node">
<title>S&#45;PR38</title>
<polygon fill="mediumseagreen" stroke="black" points="1704,-144 1632,-122.5 1704,-101 1776,-122.5 1704,-144"/>
<text text-anchor="middle" x="1704" y="-120" font-family="Arial" font-size="10.00">S&#45;PR38</text>
</g>
<!-- C&#45;0161&#45;&gt;S&#45;PR38 -->
<g id="edge21" class="edge">
<title>C&#45;0161&#45;&gt;S&#45;PR38</title>
<path fill="none" stroke="#4d4d4d" d="M1412.99,-230C1517.52,-230 1704,-230 1704,-230 1704,-230 1704,-151.25 1704,-151.25"/>
<polygon fill="#4d4d4d" stroke="#4d4d4d" points="1706.45,-151.25 1704,-144.25 1701.55,-151.25 1706.45,-151.25"/>
</g>
<!-- C&#45;0487 -->
<g id="node24" class="node">
<title>C&#45;0487</title>
<ellipse fill="tomato" stroke="black" cx="984" cy="-122.5" rx="72" ry="21.5"/>
<text text-anchor="middle" x="984" y="-120" font-family="Arial" font-size="10.00">C&#45;0487</text>
</g>
<!-- C&#45;0161&#45;&gt;C&#45;0487 -->
<g id="edge26" class="edge">
<title>C&#45;0161&#45;&gt;C&#45;0487</title>
<path fill="none" stroke="#4d4d4d" d="M1275.01,-230C1170.48,-230 984,-230 984,-230 984,-230 984,-151.25 984,-151.25"/>
<polygon fill="#4d4d4d" stroke="#4d4d4d" points="986.45,-151.25 984,-144.25 981.55,-151.25 986.45,-151.25"/>
</g>
<!-- C&#45;0488 -->
<g id="node28" class="node">
<title>C&#45;0488</title>
<ellipse fill="mediumseagreen" stroke="black" cx="1524" cy="-122.5" rx="72" ry="21.5"/>
<text text-anchor="middle" x="1524" y="-120" font-family="Arial" font-size="10.00">C&#45;0488</text>
</g>
<!-- C&#45;0161&#45;&gt;C&#45;0488 -->
<g id="edge24" class="edge">
<title>C&#45;0161&#45;&gt;C&#45;0488</title>
<path fill="none" stroke="#4d4d4d" d="M1411.54,-216C1462.61,-216 1524,-216 1524,-216 1524,-216 1524,-151.19 1524,-151.19"/>
<polygon fill="#4d4d4d" stroke="#4d4d4d" points="1526.45,-151.19 1524,-144.19 1521.55,-151.19 1526.45,-151.19"/>
</g>
<!-- R&#45;114 -->
<g id="node26" class="node">
<title>R&#45;114</title>
<polygon fill="mediumseagreen" stroke="black" points="527,-921.59 527,-939.41 484.82,-952 425.18,-952 383,-939.41 383,-921.59 425.18,-909 484.82,-909 527,-921.59"/>
<text text-anchor="middle" x="455" y="-928" font-family="Arial" font-size="10.00">R&#45;114</text>
</g>
<!-- C&#45;0602&#45;&gt;R&#45;114 -->
<g id="edge8" class="edge">
<title>C&#45;0602&#45;&gt;R&#45;114</title>
<path fill="none" stroke="#4d4d4d" d="M455,-1009.58C455,-1009.58 455,-959.03 455,-959.03"/>
<polygon fill="#4d4d4d" stroke="#4d4d4d" points="457.45,-959.03 455,-952.03 452.55,-959.03 457.45,-959.03"/>
</g>
<!-- S&#45;1048 -->
<g id="node10" class="node">
<title>S&#45;1048</title>
<polygon fill="mediumseagreen" stroke="black" points="804,-346 732,-324.5 804,-303 876,-324.5 804,-346"/>
<text text-anchor="middle" x="804" y="-322" font-family="Arial" font-size="10.00">S&#45;1048</text>
</g>
<!-- S&#45;1048&#45;&gt;S&#45;2063 -->
<g id="edge18" class="edge">
<title>S&#45;1048&#45;&gt;S&#45;2063</title>
<path fill="none" stroke="#4d4d4d" d="M804,-302.58C804,-302.58 804,-252.03 804,-252.03"/>
<polygon fill="#4d4d4d" stroke="#4d4d4d" points="806.45,-252.03 804,-245.03 801.55,-252.03 806.45,-252.03"/>
</g>
<!-- R&#45;071 -->
<g id="node11" class="node">
<title>R&#45;071</title>
<polygon fill="mediumseagreen" stroke="black" points="887,-517.59 887,-535.41 844.82,-548 785.18,-548 743,-535.41 743,-517.59 785.18,-505 844.82,-505 887,-517.59"/>
<text text-anchor="middle" x="815" y="-524" font-family="Arial" font-size="10.00">R&#45;071</text>
</g>
<!-- C&#45;1213 -->
<g id="node19" class="node">
<title>C&#45;1213</title>
<ellipse fill="mediumseagreen" stroke="black" cx="815" cy="-425.5" rx="72" ry="21.5"/>
<text text-anchor="middle" x="815" y="-423" font-family="Arial" font-size="10.00">C&#45;1213</text>
</g>
<!-- R&#45;071&#45;&gt;C&#45;1213 -->
<g id="edge14" class="edge">
<title>R&#45;071&#45;&gt;C&#45;1213</title>
<path fill="none" stroke="#4d4d4d" d="M815,-504.58C815,-504.58 815,-454.03 815,-454.03"/>
<polygon fill="#4d4d4d" stroke="#4d4d4d" points="817.45,-454.03 815,-447.03 812.55,-454.03 817.45,-454.03"/>
</g>
<!-- S&#45;1574 -->
<g id="node13" class="node">
<title>S&#45;1574</title>
<polygon fill="mediumseagreen" stroke="black" points="275,-750 203,-728.5 275,-707 347,-728.5 275,-750"/>
<text text-anchor="middle" x="275" y="-726" font-family="Arial" font-size="10.00">S&#45;1574</text>
</g>
<!-- S&#45;2211 -->
<g id="node14" class="node">
<title>S&#45;2211</title>
<polygon fill="mediumseagreen" stroke="black" points="455,-750 383,-728.5 455,-707 527,-728.5 455,-750"/>
<text text-anchor="middle" x="455" y="-726" font-family="Arial" font-size="10.00">S&#45;2211</text>
</g>
<!-- S&#45;PR38&#45;&gt;S&#45;805 -->
<g id="edge22" class="edge">
<title>S&#45;PR38&#45;&gt;S&#45;805</title>
<path fill="none" stroke="#4d4d4d" d="M1704,-100.58C1704,-100.58 1704,-50.03 1704,-50.03"/>
<polygon fill="#4d4d4d" stroke="#4d4d4d" points="1706.45,-50.03 1704,-43.03 1701.55,-50.03 1706.45,-50.03"/>
</g>
<!-- S&#45;1575 -->
<g id="node16" class="node">
<title>S&#45;1575</title>
<polygon fill="mediumseagreen" stroke="black" points="635,-750 563,-728.5 635,-707 707,-728.5 635,-750"/>
<text text-anchor="middle" x="635" y="-726" font-family="Arial" font-size="10.00">S&#45;1575</text>
</g>
<!-- S&#45;1388 -->
<g id="node17" class="node">
<title>S&#45;1388</title>
<polygon fill="mediumseagreen" stroke="black" points="984,-346 912,-324.5 984,-303 1056,-324.5 984,-346"/>
<text text-anchor="middle" x="984" y="-322" font-family="Arial" font-size="10.00">S&#45;1388</text>
</g>
<!-- C&#45;0601 -->
<g id="node18" class="node">
<title>C&#45;0601</title>
<ellipse fill="mediumseagreen" stroke="black" cx="455" cy="-829.5" rx="72" ry="21.5"/>
<text text-anchor="middle" x="455" y="-827" font-family="Arial" font-size="10.00">C&#45;0601</text>
</g>
<!-- C&#45;0601&#45;&gt;S&#45;2228 -->
<g id="edge31" class="edge">
<title>C&#45;0601&#45;&gt;S&#45;2228</title>
<path fill="none" stroke="#4d4d4d" d="M386.29,-836C297.87,-836 155.5,-836 155.5,-836 155.5,-836 155.5,-739.08 155.5,-739.08"/>
<polygon fill="#4d4d4d" stroke="#4d4d4d" points="157.95,-739.08 155.5,-732.08 153.05,-739.08 157.95,-739.08"/>
</g>
<!-- C&#45;0601&#45;&gt;S&#45;1574 -->
<g id="edge30" class="edge">
<title>C&#45;0601&#45;&gt;S&#45;1574</title>
<path fill="none" stroke="#4d4d4d" d="M387.29,-822C363.46,-822 342.5,-822 342.5,-822 342.5,-822 342.5,-737.12 342.5,-737.12"/>
<polygon fill="#4d4d4d" stroke="#4d4d4d" points="344.95,-737.12 342.5,-730.12 340.05,-737.12 344.95,-737.12"/>
</g>
<!-- C&#45;0601&#45;&gt;S&#45;2211 -->
<g id="edge32" class="edge">
<title>C&#45;0601&#45;&gt;S&#45;2211</title>
<path fill="none" stroke="#4d4d4d" d="M455,-807.58C455,-807.58 455,-757.03 455,-757.03"/>
<polygon fill="#4d4d4d" stroke="#4d4d4d" points="457.45,-757.03 455,-750.03 452.55,-757.03 457.45,-757.03"/>
</g>
<!-- C&#45;0601&#45;&gt;S&#45;1575 -->
<g id="edge10" class="edge">
<title>C&#45;0601&#45;&gt;S&#45;1575</title>
<path fill="none" stroke="#4d4d4d" d="M522.52,-822C564.68,-822 611,-822 611,-822 611,-822 611,-750.11 611,-750.11"/>
<polygon fill="#4d4d4d" stroke="#4d4d4d" points="613.45,-750.11 611,-743.11 608.55,-750.11 613.45,-750.11"/>
</g>
<!-- S&#45;1779 -->
<g id="node20" class="node">
<title>S&#45;1779</title>
<polygon fill="mediumseagreen" stroke="black" points="815,-750 743,-728.5 815,-707 887,-728.5 815,-750"/>
<text text-anchor="middle" x="815" y="-726" font-family="Arial" font-size="10.00">S&#45;1779</text>
</g>
<!-- C&#45;0601&#45;&gt;S&#45;1779 -->
<g id="edge11" class="edge">
<title>C&#45;0601&#45;&gt;S&#45;1779</title>
<path fill="none" stroke="#4d4d4d" d="M523.74,-836C616.42,-836 770,-836 770,-836 770,-836 770,-743.58 770,-743.58"/>
<polygon fill="#4d4d4d" stroke="#4d4d4d" points="772.45,-743.58 770,-736.58 767.55,-743.58 772.45,-743.58"/>
</g>
<!-- C&#45;1213&#45;&gt;S&#45;1387 -->
<g id="edge28" class="edge">
<title>C&#45;1213&#45;&gt;S&#45;1387</title>
<path fill="none" stroke="#4d4d4d" d="M747.51,-418C694.47,-418 629.5,-418 629.5,-418 629.5,-418 629.5,-351.79 629.5,-351.79"/>
<polygon fill="#4d4d4d" stroke="#4d4d4d" points="631.95,-351.79 629.5,-344.79 627.05,-351.79 631.95,-351.79"/>
</g>
<!-- C&#45;1213&#45;&gt;S&#45;1048 -->
<g id="edge17" class="edge">
<title>C&#45;1213&#45;&gt;S&#45;1048</title>
<path fill="none" stroke="#4d4d4d" d="M809.5,-403.58C809.5,-403.58 809.5,-351.66 809.5,-351.66"/>
<polygon fill="#4d4d4d" stroke="#4d4d4d" points="811.95,-351.66 809.5,-344.66 807.05,-351.66 811.95,-351.66"/>
</g>
<!-- C&#45;1213&#45;&gt;S&#45;1388 -->
<g id="edge16" class="edge">
<title>C&#45;1213&#45;&gt;S&#45;1388</title>
<path fill="none" stroke="#4d4d4d" d="M881.5,-417.19C881.5,-392.95 881.5,-324 881.5,-324 881.5,-324 906.65,-324 906.65,-324"/>
<polygon fill="#4d4d4d" stroke="#4d4d4d" points="906.65,-326.45 913.65,-324 906.65,-321.55 906.65,-326.45"/>
</g>
<!-- S&#45;1708 -->
<g id="node27" class="node">
<title>S&#45;1708</title>
<polygon fill="mediumseagreen" stroke="black" points="1164,-346 1092,-324.5 1164,-303 1236,-324.5 1164,-346"/>
<text text-anchor="middle" x="1164" y="-322" font-family="Arial" font-size="10.00">S&#45;1708</text>
</g>
<!-- C&#45;1213&#45;&gt;S&#45;1708 -->
<g id="edge15" class="edge">
<title>C&#45;1213&#45;&gt;S&#45;1708</title>
<path fill="none" stroke="#4d4d4d" d="M882.7,-418C984.2,-418 1164,-418 1164,-418 1164,-418 1164,-353.19 1164,-353.19"/>
<polygon fill="#4d4d4d" stroke="#4d4d4d" points="1166.45,-353.19 1164,-346.19 1161.55,-353.19 1166.45,-353.19"/>
</g>
<!-- C&#45;1212 -->
<g id="node29" class="node">
<title>C&#45;1212</title>
<ellipse fill="tomato" stroke="black" cx="444" cy="-324.5" rx="72" ry="21.5"/>
<text text-anchor="middle" x="444" y="-322" font-family="Arial" font-size="10.00">C&#45;1212</text>
</g>
<!-- C&#45;1213&#45;&gt;C&#45;1212 -->
<g id="edge29" class="edge">
<title>C&#45;1213&#45;&gt;C&#45;1212</title>
<path fill="none" stroke="#4d4d4d" d="M746.35,-432C646.15,-432 471.67,-432 471.67,-432 471.67,-432 471.67,-351.47 471.67,-351.47"/>
<polygon fill="#4d4d4d" stroke="#4d4d4d" points="474.12,-351.47 471.67,-344.47 469.22,-351.47 474.12,-351.47"/>
</g>
<!-- S&#45;1392 -->
<g id="node32" class="node">
<title>S&#45;1392</title>
<polygon fill="mediumseagreen" stroke="black" points="1344,-346 1272,-324.5 1344,-303 1416,-324.5 1344,-346"/>
<text text-anchor="middle" x="1344" y="-322" font-family="Arial" font-size="10.00">S&#45;1392</text>
</g>
<!-- C&#45;1213&#45;&gt;S&#45;1392 -->
<g id="edge19" class="edge">
<title>C&#45;1213&#45;&gt;S&#45;1392</title>
<path fill="none" stroke="#4d4d4d" d="M883.89,-432C1027.15,-432 1344,-432 1344,-432 1344,-432 1344,-353.25 1344,-353.25"/>
<polygon fill="#4d4d4d" stroke="#4d4d4d" points="1346.45,-353.25 1344,-346.25 1341.55,-353.25 1346.45,-353.25"/>
</g>
<!-- C&#45;1211 -->
<g id="node33" class="node">
<title>C&#45;1211</title>
<ellipse fill="mediumseagreen" stroke="black" cx="815" cy="-627.5" rx="72" ry="21.5"/>
<text text-anchor="middle" x="815" y="-625" font-family="Arial" font-size="10.00">C&#45;1211</text>
</g>
<!-- S&#45;1779&#45;&gt;C&#45;1211 -->
<g id="edge12" class="edge">
<title>S&#45;1779&#45;&gt;C&#45;1211</title>
<path fill="none" stroke="#4d4d4d" d="M815,-706.58C815,-706.58 815,-656.03 815,-656.03"/>
<polygon fill="#4d4d4d" stroke="#4d4d4d" points="817.45,-656.03 815,-649.03 812.55,-656.03 817.45,-656.03"/>
</g>
<!-- C&#45;0600&#45;&gt;S&#45;1575 -->
<g id="edge34" class="edge">
<title>C&#45;0600&#45;&gt;S&#45;1575</title>
<path fill="none" stroke="blue" stroke-dasharray="5,2" d="M659,-1011.15C659,-1011.15 659,-749.85 659,-749.85"/>
<polygon fill="blue" stroke="blue" points="661.45,-749.85 659,-742.85 656.55,-749.85 661.45,-749.85"/>
</g>
<!-- 208&#45;27&#45; -->
<g id="node22" class="node">
<title>208&#45;27&#45;</title>
<polygon fill="gold" stroke="black" points="526,-1430.59 526,-1448.41 483.82,-1461 424.18,-1461 382,-1448.41 382,-1430.59 424.18,-1418 483.82,-1418 526,-1430.59"/>
<polygon fill="none" stroke="black" points="530,-1427.61 530,-1451.39 484.41,-1465 423.59,-1465 378,-1451.39 378,-1427.61 423.59,-1414 484.41,-1414 530,-1427.61"/>
<text text-anchor="middle" x="454" y="-1437" font-family="Arial" font-size="10.00">208&#45;27&#45;</text>
</g>
<!-- C&#45;0149 -->
<g id="node30" class="node">
<title>C&#45;0149</title>
<ellipse fill="mediumseagreen" stroke="black" cx="454" cy="-1334.5" rx="72" ry="21.5"/>
<text text-anchor="middle" x="454" y="-1332" font-family="Arial" font-size="10.00">C&#45;0149</text>
</g>
<!-- 208&#45;27&#45;&#45;&gt;C&#45;0149 -->
<g id="edge1" class="edge">
<title>208&#45;27&#45;&#45;&gt;C&#45;0149</title>
<path fill="none" stroke="#4d4d4d" d="M454,-1413.81C454,-1413.81 454,-1363.03 454,-1363.03"/>
<polygon fill="#4d4d4d" stroke="#4d4d4d" points="456.45,-1363.03 454,-1356.03 451.55,-1363.03 456.45,-1363.03"/>
</g>
<!-- R&#45;151 -->
<g id="node23" class="node">
<title>R&#45;151</title>
<polygon fill="tomato" stroke="black" points="1596,-12.59 1596,-30.41 1553.82,-43 1494.18,-43 1452,-30.41 1452,-12.59 1494.18,0 1553.82,0 1596,-12.59"/>
<text text-anchor="middle" x="1524" y="-19" font-family="Arial" font-size="10.00">R&#45;151</text>
</g>
<!-- ext_circ_208_24_ -->
<g id="node34" class="node">
<title>ext_circ_208_24_</title>
<polygon fill="lightpink" stroke="darkorange" stroke-dasharray="5,2" points="144,-1461 0,-1461 0,-1418 144,-1418 144,-1461"/>
<text text-anchor="middle" x="72" y="-1442.5" font-family="Arial" font-size="10.00">Circuito:</text>
<text text-anchor="middle" x="72" y="-1431.5" font-family="Arial" font-size="10.00">208&#45;24&#45;</text>
</g>
<!-- R&#45;151&#45;&gt;ext_circ_208_24_ -->
<g id="edge35" class="edge">
<title>R&#45;151&#45;&gt;ext_circ_208_24_</title>
<path fill="none" stroke="darkorange" stroke-dasharray="5,2" d="M1451.88,-21C1150.54,-21 7.67,-21 7.67,-21 7.67,-21 7.67,-1410.79 7.67,-1410.79"/>
<polygon fill="darkorange" stroke="darkorange" points="5.22,-1410.79 7.67,-1417.79 10.12,-1410.79 5.22,-1410.79"/>
</g>
<!-- C&#45;0487&#45;&gt;ext_circ_208_24_ -->
<g id="edge36" class="edge">
<title>C&#45;0487&#45;&gt;ext_circ_208_24_</title>
<path fill="none" stroke="darkorange" stroke-dasharray="5,2" d="M911.98,-122C687.49,-122 15.33,-122 15.33,-122 15.33,-122 15.33,-1410.73 15.33,-1410.73"/>
<polygon fill="darkorange" stroke="darkorange" points="12.88,-1410.73 15.33,-1417.73 17.78,-1410.73 12.88,-1410.73"/>
</g>
<!-- C&#45;1151 -->
<g id="node25" class="node">
<title>C&#45;1151</title>
<ellipse fill="mediumseagreen" stroke="black" cx="590" cy="-1233.5" rx="72" ry="21.5"/>
<text text-anchor="middle" x="590" y="-1231" font-family="Arial" font-size="10.00">C&#45;1151</text>
</g>
<!-- C&#45;1151&#45;&gt;S&#45;1051 -->
<g id="edge5" class="edge">
<title>C&#45;1151&#45;&gt;S&#45;1051</title>
<path fill="none" stroke="#4d4d4d" d="M567.5,-1213.06C567.5,-1213.06 567.5,-1154.34 567.5,-1154.34"/>
<polygon fill="#4d4d4d" stroke="#4d4d4d" points="569.95,-1154.34 567.5,-1147.34 565.05,-1154.34 569.95,-1154.34"/>
</g>
<!-- C&#45;1151&#45;&gt;S&#45;2323 -->
<g id="edge4" class="edge">
<title>C&#45;1151&#45;&gt;S&#45;2323</title>
<path fill="none" stroke="#4d4d4d" d="M657.5,-1225.91C657.5,-1225.91 657.5,-1140.98 657.5,-1140.98"/>
<polygon fill="#4d4d4d" stroke="#4d4d4d" points="659.95,-1140.98 657.5,-1133.98 655.05,-1140.98 659.95,-1140.98"/>
</g>
<!-- R&#45;114&#45;&gt;C&#45;0601 -->
<g id="edge9" class="edge">
<title>R&#45;114&#45;&gt;C&#45;0601</title>
<path fill="none" stroke="#4d4d4d" d="M455,-908.58C455,-908.58 455,-858.03 455,-858.03"/>
<polygon fill="#4d4d4d" stroke="#4d4d4d" points="457.45,-858.03 455,-851.03 452.55,-858.03 457.45,-858.03"/>
</g>
<!-- C&#45;0488&#45;&gt;R&#45;151 -->
<g id="edge25" class="edge">
<title>C&#45;0488&#45;&gt;R&#45;151</title>
<path fill="none" stroke="#4d4d4d" d="M1524,-100.58C1524,-100.58 1524,-50.03 1524,-50.03"/>
<polygon fill="#4d4d4d" stroke="#4d4d4d" points="1526.45,-50.03 1524,-43.03 1521.55,-50.03 1526.45,-50.03"/>
</g>
<!-- C&#45;1212&#45;&gt;C&#45;1211 -->
<g id="edge37" class="edge">
<title>C&#45;1212&#45;&gt;C&#45;1211</title>
<path fill="none" stroke="blue" stroke-dasharray="5,2" d="M427.33,-345.77C427.33,-414.63 427.33,-627 427.33,-627 427.33,-627 735.99,-627 735.99,-627"/>
<polygon fill="blue" stroke="blue" points="735.99,-629.45 742.99,-627 735.99,-624.55 735.99,-629.45"/>
</g>
<!-- C&#45;0149&#45;&gt;C&#45;1151 -->
<g id="edge3" class="edge">
<title>C&#45;0149&#45;&gt;C&#45;1151</title>
<path fill="none" stroke="#4d4d4d" d="M522,-1327.24C522,-1327.24 522,-1247.7 522,-1247.7"/>
<polygon fill="#4d4d4d" stroke="#4d4d4d" points="524.45,-1247.7 522,-1240.7 519.55,-1247.7 524.45,-1247.7"/>
</g>
<!-- C&#45;0068 -->
<g id="node31" class="node">
<title>C&#45;0068</title>
<ellipse fill="tomato" stroke="black" cx="410" cy="-1233.5" rx="72" ry="21.5"/>
<text text-anchor="middle" x="410" y="-1231" font-family="Arial" font-size="10.00">C&#45;0068</text>
</g>
<!-- C&#45;0149&#45;&gt;C&#45;0068 -->
<g id="edge2" class="edge">
<title>C&#45;0149&#45;&gt;C&#45;0068</title>
<path fill="none" stroke="#4d4d4d" d="M432,-1313.57C432,-1313.57 432,-1261.05 432,-1261.05"/>
<polygon fill="#4d4d4d" stroke="#4d4d4d" points="434.45,-1261.05 432,-1254.05 429.55,-1261.05 434.45,-1261.05"/>
</g>
<!-- C&#45;0068&#45;&gt;ext_circ_208_24_ -->
<g id="edge33" class="edge">
<title>C&#45;0068&#45;&gt;ext_circ_208_24_</title>
<path fill="none" stroke="darkorange" stroke-dasharray="5,2" d="M358,-1248.61C358,-1296.07 358,-1439 358,-1439 358,-1439 151.17,-1439 151.17,-1439"/>
<polygon fill="darkorange" stroke="darkorange" points="151.17,-1436.55 144.17,-1439 151.17,-1441.45 151.17,-1436.55"/>
</g>
<!-- S&#45;1392&#45;&gt;C&#45;0161 -->
<g id="edge20" class="edge">
<title>S&#45;1392&#45;&gt;C&#45;0161</title>
<path fill="none" stroke="#4d4d4d" d="M1344,-302.58C1344,-302.58 1344,-252.03 1344,-252.03"/>
<polygon fill="#4d4d4d" stroke="#4d4d4d" points="1346.45,-252.03 1344,-245.03 1341.55,-252.03 1346.45,-252.03"/>
</g>
<!-- C&#45;1211&#45;&gt;R&#45;071 -->
<g id="edge13" class="edge">
<title>C&#45;1211&#45;&gt;R&#45;071</title>
<path fill="none" stroke="#4d4d4d" d="M815,-605.58C815,-605.58 815,-555.03 815,-555.03"/>
<polygon fill="#4d4d4d" stroke="#4d4d4d" points="817.45,-555.03 815,-548.03 812.55,-555.03 817.45,-555.03"/>
</g>
</g>
</svg>
