<?xml version="1.0" encoding="UTF-8" standalone="no"?>
<!DOCTYPE svg PUBLIC "-//W3C//DTD SVG 1.1//EN"
 "http://www.w3.org/Graphics/SVG/1.1/DTD/svg11.dtd">
<!-- Generated by graphviz version 2.50.0 (0)
 -->
<!-- Title: Grafo_Circuito_109_20_ Pages: 1 -->
<svg width="1405pt" height="1838pt"
 viewBox="0.00 0.00 1405.00 1838.00" xmlns="http://www.w3.org/2000/svg" xmlns:xlink="http://www.w3.org/1999/xlink">
<g id="graph0" class="graph" transform="scale(1 1) rotate(0) translate(4 1834)">
<title>Grafo_Circuito_109_20_</title>
<polygon fill="white" stroke="transparent" points="-4,4 -4,-1834 1401,-1834 1401,4 -4,4"/>
<!-- C&#45;0899 -->
<g id="node1" class="node">
<title>C&#45;0899</title>
<ellipse fill="mediumseagreen" stroke="black" cx="809.5" cy="-1428" rx="68.5" ry="18"/>
<text text-anchor="middle" x="809.5" y="-1426.1" font-family="Helvetica,sans-Serif" font-size="8.00">C&#45;0899</text>
</g>
<!-- R&#45;209 -->
<g id="node31" class="node">
<title>R&#45;209</title>
<polygon fill="mediumseagreen" stroke="black" points="878,-1326.54 878,-1341.46 837.87,-1352 781.13,-1352 741,-1341.46 741,-1326.54 781.13,-1316 837.87,-1316 878,-1326.54"/>
<text text-anchor="middle" x="809.5" y="-1332.1" font-family="Helvetica,sans-Serif" font-size="8.00">R&#45;209</text>
</g>
<!-- C&#45;0899&#45;&gt;R&#45;209 -->
<g id="edge8" class="edge">
<title>C&#45;0899&#45;&gt;R&#45;209</title>
<path fill="none" stroke="dimgray" stroke-width="0.8" d="M809.5,-1409.88C809.5,-1409.88 809.5,-1359.07 809.5,-1359.07"/>
<polygon fill="dimgray" stroke="dimgray" stroke-width="0.8" points="811.95,-1359.07 809.5,-1352.07 807.05,-1359.07 811.95,-1359.07"/>
</g>
<!-- S&#45;042 -->
<g id="node2" class="node">
<title>S&#45;042</title>
<polygon fill="mediumseagreen" stroke="black" points="896.5,-224 828,-206 896.5,-188 965,-206 896.5,-224"/>
<text text-anchor="middle" x="896.5" y="-204.1" font-family="Helvetica,sans-Serif" font-size="8.00">S&#45;042</text>
</g>
<!-- S&#45;1373 -->
<g id="node40" class="node">
<title>S&#45;1373</title>
<polygon fill="mediumseagreen" stroke="black" points="896.5,-130 828,-112 896.5,-94 965,-112 896.5,-130"/>
<text text-anchor="middle" x="896.5" y="-110.1" font-family="Helvetica,sans-Serif" font-size="8.00">S&#45;1373</text>
</g>
<!-- S&#45;042&#45;&gt;S&#45;1373 -->
<g id="edge38" class="edge">
<title>S&#45;042&#45;&gt;S&#45;1373</title>
<path fill="none" stroke="dimgray" stroke-width="0.8" d="M896.5,-187.88C896.5,-187.88 896.5,-137.07 896.5,-137.07"/>
<polygon fill="dimgray" stroke="dimgray" stroke-width="0.8" points="898.95,-137.07 896.5,-130.07 894.05,-137.07 898.95,-137.07"/>
</g>
<!-- 109&#45;20&#45; -->
<g id="node3" class="node">
<title>109&#45;20&#45;</title>
<polygon fill="gold" stroke="black" points="1137,-1800.54 1137,-1815.46 1096.87,-1826 1040.13,-1826 1000,-1815.46 1000,-1800.54 1040.13,-1790 1096.87,-1790 1137,-1800.54"/>
<polygon fill="none" stroke="black" points="1141,-1797.46 1141,-1818.54 1097.39,-1830 1039.61,-1830 996,-1818.54 996,-1797.46 1039.61,-1786 1097.39,-1786 1141,-1797.46"/>
<text text-anchor="middle" x="1068.5" y="-1806.1" font-family="Helvetica,sans-Serif" font-size="8.00">109&#45;20&#45;</text>
</g>
<!-- C&#45;0055 -->
<g id="node36" class="node">
<title>C&#45;0055</title>
<ellipse fill="mediumseagreen" stroke="black" cx="1068.5" cy="-1710" rx="68.5" ry="18"/>
<text text-anchor="middle" x="1068.5" y="-1708.1" font-family="Helvetica,sans-Serif" font-size="8.00">C&#45;0055</text>
</g>
<!-- 109&#45;20&#45;&#45;&gt;C&#45;0055 -->
<g id="edge1" class="edge">
<title>109&#45;20&#45;&#45;&gt;C&#45;0055</title>
<path fill="none" stroke="dimgray" stroke-width="0.8" d="M1068.5,-1785.76C1068.5,-1785.76 1068.5,-1735.21 1068.5,-1735.21"/>
<polygon fill="dimgray" stroke="dimgray" stroke-width="0.8" points="1070.95,-1735.21 1068.5,-1728.21 1066.05,-1735.21 1070.95,-1735.21"/>
</g>
<!-- C&#45;0367 -->
<g id="node4" class="node">
<title>C&#45;0367</title>
<ellipse fill="mediumseagreen" stroke="black" cx="550.5" cy="-1146" rx="68.5" ry="18"/>
<text text-anchor="middle" x="550.5" y="-1144.1" font-family="Helvetica,sans-Serif" font-size="8.00">C&#45;0367</text>
</g>
<!-- R&#45;117 -->
<g id="node24" class="node">
<title>R&#45;117</title>
<polygon fill="mediumseagreen" stroke="black" points="619,-1044.54 619,-1059.46 578.87,-1070 522.13,-1070 482,-1059.46 482,-1044.54 522.13,-1034 578.87,-1034 619,-1044.54"/>
<text text-anchor="middle" x="550.5" y="-1050.1" font-family="Helvetica,sans-Serif" font-size="8.00">R&#45;117</text>
</g>
<!-- C&#45;0367&#45;&gt;R&#45;117 -->
<g id="edge16" class="edge">
<title>C&#45;0367&#45;&gt;R&#45;117</title>
<path fill="none" stroke="dimgray" stroke-width="0.8" d="M550.5,-1127.88C550.5,-1127.88 550.5,-1077.07 550.5,-1077.07"/>
<polygon fill="dimgray" stroke="dimgray" stroke-width="0.8" points="552.95,-1077.07 550.5,-1070.07 548.05,-1077.07 552.95,-1077.07"/>
</g>
<!-- C&#45;1265 -->
<g id="node5" class="node">
<title>C&#45;1265</title>
<ellipse fill="mediumseagreen" stroke="black" cx="550.5" cy="-300" rx="68.5" ry="18"/>
<text text-anchor="middle" x="550.5" y="-298.1" font-family="Helvetica,sans-Serif" font-size="8.00">C&#45;1265</text>
</g>
<!-- C&#45;1265&#45;&gt;S&#45;042 -->
<g id="edge37" class="edge">
<title>C&#45;1265&#45;&gt;S&#45;042</title>
<path fill="none" stroke="dimgray" stroke-width="0.8" d="M619.27,-300C720.18,-300 896.5,-300 896.5,-300 896.5,-300 896.5,-231.12 896.5,-231.12"/>
<polygon fill="dimgray" stroke="dimgray" stroke-width="0.8" points="898.95,-231.12 896.5,-224.12 894.05,-231.12 898.95,-231.12"/>
</g>
<!-- C&#45;0789 -->
<g id="node11" class="node">
<title>C&#45;0789</title>
<ellipse fill="tomato" stroke="black" cx="550.5" cy="-206" rx="68.5" ry="18"/>
<text text-anchor="middle" x="550.5" y="-204.1" font-family="Helvetica,sans-Serif" font-size="8.00">C&#45;0789</text>
</g>
<!-- C&#45;1265&#45;&gt;C&#45;0789 -->
<g id="edge35" class="edge">
<title>C&#45;1265&#45;&gt;C&#45;0789</title>
<path fill="none" stroke="dimgray" stroke-width="0.8" d="M550.5,-281.88C550.5,-281.88 550.5,-231.07 550.5,-231.07"/>
<polygon fill="dimgray" stroke="dimgray" stroke-width="0.8" points="552.95,-231.07 550.5,-224.07 548.05,-231.07 552.95,-231.07"/>
</g>
<!-- C&#45;0788 -->
<g id="node16" class="node">
<title>C&#45;0788</title>
<ellipse fill="mediumseagreen" stroke="black" cx="723.5" cy="-206" rx="68.5" ry="18"/>
<text text-anchor="middle" x="723.5" y="-204.1" font-family="Helvetica,sans-Serif" font-size="8.00">C&#45;0788</text>
</g>
<!-- C&#45;1265&#45;&gt;C&#45;0788 -->
<g id="edge34" class="edge">
<title>C&#45;1265&#45;&gt;C&#45;0788</title>
<path fill="none" stroke="dimgray" stroke-width="0.8" d="M610.05,-291C667.67,-291 746.33,-291 746.33,-291 746.33,-291 746.33,-230.2 746.33,-230.2"/>
<polygon fill="dimgray" stroke="dimgray" stroke-width="0.8" points="748.78,-230.2 746.33,-223.2 743.88,-230.2 748.78,-230.2"/>
</g>
<!-- C&#45;0036 -->
<g id="node29" class="node">
<title>C&#45;0036</title>
<ellipse fill="mediumseagreen" stroke="black" cx="154.5" cy="-206" rx="68.5" ry="18"/>
<text text-anchor="middle" x="154.5" y="-204.1" font-family="Helvetica,sans-Serif" font-size="8.00">C&#45;0036</text>
</g>
<!-- C&#45;1265&#45;&gt;C&#45;0036 -->
<g id="edge30" class="edge">
<title>C&#45;1265&#45;&gt;C&#45;0036</title>
<path fill="none" stroke="dimgray" stroke-width="0.8" d="M481.97,-300C368.63,-300 154.5,-300 154.5,-300 154.5,-300 154.5,-231.12 154.5,-231.12"/>
<polygon fill="dimgray" stroke="dimgray" stroke-width="0.8" points="156.95,-231.12 154.5,-224.12 152.05,-231.12 156.95,-231.12"/>
</g>
<!-- S&#45;760 -->
<g id="node6" class="node">
<title>S&#45;760</title>
<polygon fill="mediumseagreen" stroke="black" points="982.5,-1070 914,-1052 982.5,-1034 1051,-1052 982.5,-1070"/>
<text text-anchor="middle" x="982.5" y="-1050.1" font-family="Helvetica,sans-Serif" font-size="8.00">S&#45;760</text>
</g>
<!-- C&#45;0944 -->
<g id="node7" class="node">
<title>C&#45;0944</title>
<ellipse fill="tomato" stroke="black" cx="809.5" cy="-1052" rx="68.5" ry="18"/>
<text text-anchor="middle" x="809.5" y="-1050.1" font-family="Helvetica,sans-Serif" font-size="8.00">C&#45;0944</text>
</g>
<!-- ext_circ_113_24_ -->
<g id="node43" class="node">
<title>ext_circ_113_24_</title>
<polygon fill="lightpink" stroke="red" stroke-dasharray="5,2" points="901,-1826 764,-1826 764,-1790 901,-1790 901,-1826"/>
<text text-anchor="middle" x="832.5" y="-1810.6" font-family="Helvetica,sans-Serif" font-size="8.00">Circuito:</text>
<text text-anchor="middle" x="832.5" y="-1801.6" font-family="Helvetica,sans-Serif" font-size="8.00">113&#45;24&#45;</text>
</g>
<!-- C&#45;0944&#45;&gt;ext_circ_113_24_ -->
<g id="edge44" class="edge">
<title>C&#45;0944&#45;&gt;ext_circ_113_24_</title>
<path fill="none" stroke="red" stroke-width="0.8" stroke-dasharray="5,2" d="M810,-1070.14C810,-1108.23 810,-1193 810,-1193 810,-1193 885.67,-1193 885.67,-1193 885.67,-1193 885.67,-1782.93 885.67,-1782.93"/>
<polygon fill="red" stroke="red" stroke-width="0.8" points="883.22,-1782.93 885.67,-1789.93 888.12,-1782.93 883.22,-1782.93"/>
</g>
<!-- S&#45;1487 -->
<g id="node8" class="node">
<title>S&#45;1487</title>
<polygon fill="mediumseagreen" stroke="black" points="1068.5,-1634 1000,-1616 1068.5,-1598 1137,-1616 1068.5,-1634"/>
<text text-anchor="middle" x="1068.5" y="-1614.1" font-family="Helvetica,sans-Serif" font-size="8.00">S&#45;1487</text>
</g>
<!-- C&#45;0163 -->
<g id="node18" class="node">
<title>C&#45;0163</title>
<ellipse fill="mediumseagreen" stroke="black" cx="1068.5" cy="-1522" rx="68.5" ry="18"/>
<text text-anchor="middle" x="1068.5" y="-1520.1" font-family="Helvetica,sans-Serif" font-size="8.00">C&#45;0163</text>
</g>
<!-- S&#45;1487&#45;&gt;C&#45;0163 -->
<g id="edge3" class="edge">
<title>S&#45;1487&#45;&gt;C&#45;0163</title>
<path fill="none" stroke="dimgray" stroke-width="0.8" d="M1068.5,-1597.88C1068.5,-1597.88 1068.5,-1547.07 1068.5,-1547.07"/>
<polygon fill="dimgray" stroke="dimgray" stroke-width="0.8" points="1070.95,-1547.07 1068.5,-1540.07 1066.05,-1547.07 1070.95,-1547.07"/>
</g>
<!-- S&#45;037 -->
<g id="node9" class="node">
<title>S&#45;037</title>
<polygon fill="mediumseagreen" stroke="black" points="723.5,-1164 655,-1146 723.5,-1128 792,-1146 723.5,-1164"/>
<text text-anchor="middle" x="723.5" y="-1144.1" font-family="Helvetica,sans-Serif" font-size="8.00">S&#45;037</text>
</g>
<!-- C&#45;1264 -->
<g id="node10" class="node">
<title>C&#45;1264</title>
<ellipse fill="mediumseagreen" stroke="black" cx="550.5" cy="-488" rx="68.5" ry="18"/>
<text text-anchor="middle" x="550.5" y="-486.1" font-family="Helvetica,sans-Serif" font-size="8.00">C&#45;1264</text>
</g>
<!-- R&#45;066 -->
<g id="node22" class="node">
<title>R&#45;066</title>
<polygon fill="mediumseagreen" stroke="black" points="619,-386.54 619,-401.46 578.87,-412 522.13,-412 482,-401.46 482,-386.54 522.13,-376 578.87,-376 619,-386.54"/>
<text text-anchor="middle" x="550.5" y="-392.1" font-family="Helvetica,sans-Serif" font-size="8.00">R&#45;066</text>
</g>
<!-- C&#45;1264&#45;&gt;R&#45;066 -->
<g id="edge28" class="edge">
<title>C&#45;1264&#45;&gt;R&#45;066</title>
<path fill="none" stroke="dimgray" stroke-width="0.8" d="M550.5,-469.88C550.5,-469.88 550.5,-419.07 550.5,-419.07"/>
<polygon fill="dimgray" stroke="dimgray" stroke-width="0.8" points="552.95,-419.07 550.5,-412.07 548.05,-419.07 552.95,-419.07"/>
</g>
<!-- ext_circ_114_22_ -->
<g id="node45" class="node">
<title>ext_circ_114_22_</title>
<polygon fill="lightpink" stroke="red" stroke-dasharray="5,2" points="396,-1826 259,-1826 259,-1790 396,-1790 396,-1826"/>
<text text-anchor="middle" x="327.5" y="-1810.6" font-family="Helvetica,sans-Serif" font-size="8.00">Circuito:</text>
<text text-anchor="middle" x="327.5" y="-1801.6" font-family="Helvetica,sans-Serif" font-size="8.00">114&#45;22&#45;</text>
</g>
<!-- C&#45;0789&#45;&gt;ext_circ_114_22_ -->
<g id="edge50" class="edge">
<title>C&#45;0789&#45;&gt;ext_circ_114_22_</title>
<path fill="none" stroke="red" stroke-width="0.8" stroke-dasharray="5,2" d="M481.87,-206C402.91,-206 284,-206 284,-206 284,-206 284,-1782.73 284,-1782.73"/>
<polygon fill="red" stroke="red" stroke-width="0.8" points="281.55,-1782.73 284,-1789.73 286.45,-1782.73 281.55,-1782.73"/>
</g>
<!-- S&#45;1163 -->
<g id="node12" class="node">
<title>S&#45;1163</title>
<polygon fill="mediumseagreen" stroke="black" points="896.5,-1164 828,-1146 896.5,-1128 965,-1146 896.5,-1164"/>
<text text-anchor="middle" x="896.5" y="-1144.1" font-family="Helvetica,sans-Serif" font-size="8.00">S&#45;1163</text>
</g>
<!-- S&#45;1163&#45;&gt;S&#45;760 -->
<g id="edge11" class="edge">
<title>S&#45;1163&#45;&gt;S&#45;760</title>
<path fill="none" stroke="dimgray" stroke-width="0.8" d="M939.5,-1139.24C939.5,-1139.24 939.5,-1065.95 939.5,-1065.95"/>
<polygon fill="dimgray" stroke="dimgray" stroke-width="0.8" points="941.95,-1065.95 939.5,-1058.95 937.05,-1065.95 941.95,-1065.95"/>
</g>
<!-- S&#45;1163&#45;&gt;C&#45;0944 -->
<g id="edge12" class="edge">
<title>S&#45;1163&#45;&gt;C&#45;0944</title>
<path fill="none" stroke="dimgray" stroke-width="0.8" d="M853,-1139.24C853,-1139.24 853,-1073.15 853,-1073.15"/>
<polygon fill="dimgray" stroke="dimgray" stroke-width="0.8" points="855.45,-1073.15 853,-1066.15 850.55,-1073.15 855.45,-1073.15"/>
</g>
<!-- R&#45;185 -->
<g id="node13" class="node">
<title>R&#45;185</title>
<polygon fill="mediumseagreen" stroke="black" points="792,-668.54 792,-683.46 751.87,-694 695.13,-694 655,-683.46 655,-668.54 695.13,-658 751.87,-658 792,-668.54"/>
<text text-anchor="middle" x="723.5" y="-674.1" font-family="Helvetica,sans-Serif" font-size="8.00">R&#45;185</text>
</g>
<!-- C&#45;0824 -->
<g id="node34" class="node">
<title>C&#45;0824</title>
<ellipse fill="mediumseagreen" stroke="black" cx="723.5" cy="-582" rx="68.5" ry="18"/>
<text text-anchor="middle" x="723.5" y="-580.1" font-family="Helvetica,sans-Serif" font-size="8.00">C&#45;0824</text>
</g>
<!-- R&#45;185&#45;&gt;C&#45;0824 -->
<g id="edge22" class="edge">
<title>R&#45;185&#45;&gt;C&#45;0824</title>
<path fill="none" stroke="dimgray" stroke-width="0.8" d="M723.5,-657.88C723.5,-657.88 723.5,-607.07 723.5,-607.07"/>
<polygon fill="dimgray" stroke="dimgray" stroke-width="0.8" points="725.95,-607.07 723.5,-600.07 721.05,-607.07 725.95,-607.07"/>
</g>
<!-- S&#45;047 -->
<g id="node14" class="node">
<title>S&#45;047</title>
<polygon fill="mediumseagreen" stroke="black" points="1069.5,-1164 1001,-1146 1069.5,-1128 1138,-1146 1069.5,-1164"/>
<text text-anchor="middle" x="1069.5" y="-1144.1" font-family="Helvetica,sans-Serif" font-size="8.00">S&#45;047</text>
</g>
<!-- C&#45;1263 -->
<g id="node15" class="node">
<title>C&#45;1263</title>
<ellipse fill="tomato" stroke="black" cx="723.5" cy="-488" rx="68.5" ry="18"/>
<text text-anchor="middle" x="723.5" y="-486.1" font-family="Helvetica,sans-Serif" font-size="8.00">C&#45;1263</text>
</g>
<!-- C&#45;1263&#45;&gt;C&#45;1265 -->
<g id="edge47" class="edge">
<title>C&#45;1263&#45;&gt;C&#45;1265</title>
<path fill="none" stroke="blue" stroke-width="0.8" stroke-dasharray="5,2" d="M700.67,-470.84C700.67,-426.03 700.67,-309 700.67,-309 700.67,-309 616.85,-309 616.85,-309"/>
<polygon fill="blue" stroke="blue" stroke-width="0.8" points="616.85,-306.55 609.85,-309 616.85,-311.45 616.85,-306.55"/>
</g>
<!-- R&#45;175 -->
<g id="node42" class="node">
<title>R&#45;175</title>
<polygon fill="tomato" stroke="black" points="792,-104.54 792,-119.46 751.87,-130 695.13,-130 655,-119.46 655,-104.54 695.13,-94 751.87,-94 792,-104.54"/>
<text text-anchor="middle" x="723.5" y="-110.1" font-family="Helvetica,sans-Serif" font-size="8.00">R&#45;175</text>
</g>
<!-- C&#45;0788&#45;&gt;R&#45;175 -->
<g id="edge36" class="edge">
<title>C&#45;0788&#45;&gt;R&#45;175</title>
<path fill="none" stroke="dimgray" stroke-width="0.8" d="M723.5,-187.88C723.5,-187.88 723.5,-137.07 723.5,-137.07"/>
<polygon fill="dimgray" stroke="dimgray" stroke-width="0.8" points="725.95,-137.07 723.5,-130.07 721.05,-137.07 725.95,-137.07"/>
</g>
<!-- S&#45;1468 -->
<g id="node17" class="node">
<title>S&#45;1468</title>
<polygon fill="mediumseagreen" stroke="black" points="1242.5,-1164 1174,-1146 1242.5,-1128 1311,-1146 1242.5,-1164"/>
<text text-anchor="middle" x="1242.5" y="-1144.1" font-family="Helvetica,sans-Serif" font-size="8.00">S&#45;1468</text>
</g>
<!-- C&#45;0163&#45;&gt;C&#45;0899 -->
<g id="edge7" class="edge">
<title>C&#45;0163&#45;&gt;C&#45;0899</title>
<path fill="none" stroke="dimgray" stroke-width="0.8" d="M999.89,-1522C926.64,-1522 821,-1522 821,-1522 821,-1522 821,-1453.12 821,-1453.12"/>
<polygon fill="dimgray" stroke="dimgray" stroke-width="0.8" points="823.45,-1453.12 821,-1446.12 818.55,-1453.12 823.45,-1453.12"/>
</g>
<!-- C&#45;0012 -->
<g id="node23" class="node">
<title>C&#45;0012</title>
<ellipse fill="tomato" stroke="black" cx="982.5" cy="-1428" rx="68.5" ry="18"/>
<text text-anchor="middle" x="982.5" y="-1426.1" font-family="Helvetica,sans-Serif" font-size="8.00">C&#45;0012</text>
</g>
<!-- C&#45;0163&#45;&gt;C&#45;0012 -->
<g id="edge6" class="edge">
<title>C&#45;0163&#45;&gt;C&#45;0012</title>
<path fill="none" stroke="dimgray" stroke-width="0.8" d="M1025.5,-1507.72C1025.5,-1507.72 1025.5,-1449.1 1025.5,-1449.1"/>
<polygon fill="dimgray" stroke="dimgray" stroke-width="0.8" points="1027.95,-1449.1 1025.5,-1442.1 1023.05,-1449.1 1027.95,-1449.1"/>
</g>
<!-- C&#45;0793 -->
<g id="node33" class="node">
<title>C&#45;0793</title>
<ellipse fill="mediumseagreen" stroke="black" cx="1155.5" cy="-1428" rx="68.5" ry="18"/>
<text text-anchor="middle" x="1155.5" y="-1426.1" font-family="Helvetica,sans-Serif" font-size="8.00">C&#45;0793</text>
</g>
<!-- C&#45;0163&#45;&gt;C&#45;0793 -->
<g id="edge4" class="edge">
<title>C&#45;0163&#45;&gt;C&#45;0793</title>
<path fill="none" stroke="dimgray" stroke-width="0.8" d="M1112,-1507.72C1112,-1507.72 1112,-1449.1 1112,-1449.1"/>
<polygon fill="dimgray" stroke="dimgray" stroke-width="0.8" points="1114.45,-1449.1 1112,-1442.1 1109.55,-1449.1 1114.45,-1449.1"/>
</g>
<!-- R&#45;079 -->
<g id="node39" class="node">
<title>R&#45;079</title>
<polygon fill="tomato" stroke="black" points="1397,-1420.54 1397,-1435.46 1356.87,-1446 1300.13,-1446 1260,-1435.46 1260,-1420.54 1300.13,-1410 1356.87,-1410 1397,-1420.54"/>
<text text-anchor="middle" x="1328.5" y="-1426.1" font-family="Helvetica,sans-Serif" font-size="8.00">R&#45;079</text>
</g>
<!-- C&#45;0163&#45;&gt;R&#45;079 -->
<g id="edge5" class="edge">
<title>C&#45;0163&#45;&gt;R&#45;079</title>
<path fill="none" stroke="dimgray" stroke-width="0.8" d="M1137.1,-1522C1207.14,-1522 1305.67,-1522 1305.67,-1522 1305.67,-1522 1305.67,-1453.12 1305.67,-1453.12"/>
<polygon fill="dimgray" stroke="dimgray" stroke-width="0.8" points="1308.12,-1453.12 1305.67,-1446.12 1303.22,-1453.12 1308.12,-1453.12"/>
</g>
<!-- C&#45;0817 -->
<g id="node19" class="node">
<title>C&#45;0817</title>
<ellipse fill="tomato" stroke="black" cx="241.5" cy="-112" rx="68.5" ry="18"/>
<text text-anchor="middle" x="241.5" y="-110.1" font-family="Helvetica,sans-Serif" font-size="8.00">C&#45;0817</text>
</g>
<!-- ext_circ_114_23_ -->
<g id="node44" class="node">
<title>ext_circ_114_23_</title>
<polygon fill="lightpink" stroke="red" stroke-dasharray="5,2" points="612,-1826 475,-1826 475,-1790 612,-1790 612,-1826"/>
<text text-anchor="middle" x="543.5" y="-1810.6" font-family="Helvetica,sans-Serif" font-size="8.00">Circuito:</text>
<text text-anchor="middle" x="543.5" y="-1801.6" font-family="Helvetica,sans-Serif" font-size="8.00">114&#45;23&#45;</text>
</g>
<!-- C&#45;0817&#45;&gt;ext_circ_114_23_ -->
<g id="edge48" class="edge">
<title>C&#45;0817&#45;&gt;ext_circ_114_23_</title>
<path fill="none" stroke="red" stroke-width="0.8" stroke-dasharray="5,2" d="M306.25,-106C376.07,-106 477.33,-106 477.33,-106 477.33,-106 477.33,-1782.75 477.33,-1782.75"/>
<polygon fill="red" stroke="red" stroke-width="0.8" points="474.88,-1782.75 477.33,-1789.75 479.78,-1782.75 474.88,-1782.75"/>
</g>
<!-- C&#45;0546 -->
<g id="node20" class="node">
<title>C&#45;0546</title>
<ellipse fill="mediumseagreen" stroke="black" cx="550.5" cy="-958" rx="68.5" ry="18"/>
<text text-anchor="middle" x="550.5" y="-956.1" font-family="Helvetica,sans-Serif" font-size="8.00">C&#45;0546</text>
</g>
<!-- S&#45;902 -->
<g id="node30" class="node">
<title>S&#45;902</title>
<polygon fill="mediumseagreen" stroke="black" points="550.5,-882 482,-864 550.5,-846 619,-864 550.5,-882"/>
<text text-anchor="middle" x="550.5" y="-862.1" font-family="Helvetica,sans-Serif" font-size="8.00">S&#45;902</text>
</g>
<!-- C&#45;0546&#45;&gt;S&#45;902 -->
<g id="edge18" class="edge">
<title>C&#45;0546&#45;&gt;S&#45;902</title>
<path fill="none" stroke="dimgray" stroke-width="0.8" d="M550.5,-939.88C550.5,-939.88 550.5,-889.07 550.5,-889.07"/>
<polygon fill="dimgray" stroke="dimgray" stroke-width="0.8" points="552.95,-889.07 550.5,-882.07 548.05,-889.07 552.95,-889.07"/>
</g>
<!-- S&#45;1454 -->
<g id="node21" class="node">
<title>S&#45;1454</title>
<polygon fill="mediumseagreen" stroke="black" points="896.5,-506 828,-488 896.5,-470 965,-488 896.5,-506"/>
<text text-anchor="middle" x="896.5" y="-486.1" font-family="Helvetica,sans-Serif" font-size="8.00">S&#45;1454</text>
</g>
<!-- S&#45;2246 -->
<g id="node35" class="node">
<title>S&#45;2246</title>
<polygon fill="mediumseagreen" stroke="black" points="896.5,-412 828,-394 896.5,-376 965,-394 896.5,-412"/>
<text text-anchor="middle" x="896.5" y="-392.1" font-family="Helvetica,sans-Serif" font-size="8.00">S&#45;2246</text>
</g>
<!-- S&#45;1454&#45;&gt;S&#45;2246 -->
<g id="edge24" class="edge">
<title>S&#45;1454&#45;&gt;S&#45;2246</title>
<path fill="none" stroke="dimgray" stroke-width="0.8" d="M896.5,-469.88C896.5,-469.88 896.5,-419.07 896.5,-419.07"/>
<polygon fill="dimgray" stroke="dimgray" stroke-width="0.8" points="898.95,-419.07 896.5,-412.07 894.05,-419.07 898.95,-419.07"/>
</g>
<!-- R&#45;066&#45;&gt;C&#45;1265 -->
<g id="edge29" class="edge">
<title>R&#45;066&#45;&gt;C&#45;1265</title>
<path fill="none" stroke="dimgray" stroke-width="0.8" d="M550.5,-375.88C550.5,-375.88 550.5,-325.07 550.5,-325.07"/>
<polygon fill="dimgray" stroke="dimgray" stroke-width="0.8" points="552.95,-325.07 550.5,-318.07 548.05,-325.07 552.95,-325.07"/>
</g>
<!-- C&#45;0897 -->
<g id="node38" class="node">
<title>C&#45;0897</title>
<ellipse fill="mediumseagreen" stroke="black" cx="809.5" cy="-1240" rx="68.5" ry="18"/>
<text text-anchor="middle" x="809.5" y="-1238.1" font-family="Helvetica,sans-Serif" font-size="8.00">C&#45;0897</text>
</g>
<!-- C&#45;0012&#45;&gt;C&#45;0897 -->
<g id="edge43" class="edge">
<title>C&#45;0012&#45;&gt;C&#45;0897</title>
<path fill="none" stroke="blue" stroke-width="0.8" stroke-dasharray="5,2" d="M939.5,-1413.95C939.5,-1371.76 939.5,-1249 939.5,-1249 939.5,-1249 876.17,-1249 876.17,-1249"/>
<polygon fill="blue" stroke="blue" stroke-width="0.8" points="876.17,-1246.55 869.17,-1249 876.17,-1251.45 876.17,-1246.55"/>
</g>
<!-- R&#45;117&#45;&gt;C&#45;0546 -->
<g id="edge17" class="edge">
<title>R&#45;117&#45;&gt;C&#45;0546</title>
<path fill="none" stroke="dimgray" stroke-width="0.8" d="M550.5,-1033.88C550.5,-1033.88 550.5,-983.07 550.5,-983.07"/>
<polygon fill="dimgray" stroke="dimgray" stroke-width="0.8" points="552.95,-983.07 550.5,-976.07 548.05,-983.07 552.95,-983.07"/>
</g>
<!-- C&#45;0818 -->
<g id="node25" class="node">
<title>C&#45;0818</title>
<ellipse fill="mediumseagreen" stroke="black" cx="68.5" cy="-112" rx="68.5" ry="18"/>
<text text-anchor="middle" x="68.5" y="-110.1" font-family="Helvetica,sans-Serif" font-size="8.00">C&#45;0818</text>
</g>
<!-- R&#45;183 -->
<g id="node32" class="node">
<title>R&#45;183</title>
<polygon fill="tomato" stroke="black" points="137,-10.54 137,-25.46 96.87,-36 40.13,-36 0,-25.46 0,-10.54 40.13,0 96.87,0 137,-10.54"/>
<text text-anchor="middle" x="68.5" y="-16.1" font-family="Helvetica,sans-Serif" font-size="8.00">R&#45;183</text>
</g>
<!-- C&#45;0818&#45;&gt;R&#45;183 -->
<g id="edge33" class="edge">
<title>C&#45;0818&#45;&gt;R&#45;183</title>
<path fill="none" stroke="dimgray" stroke-width="0.8" d="M68.5,-93.88C68.5,-93.88 68.5,-43.07 68.5,-43.07"/>
<polygon fill="dimgray" stroke="dimgray" stroke-width="0.8" points="70.95,-43.07 68.5,-36.07 66.05,-43.07 70.95,-43.07"/>
</g>
<!-- S&#45;1453 -->
<g id="node26" class="node">
<title>S&#45;1453</title>
<polygon fill="mediumseagreen" stroke="black" points="1069.5,-506 1001,-488 1069.5,-470 1138,-488 1069.5,-506"/>
<text text-anchor="middle" x="1069.5" y="-486.1" font-family="Helvetica,sans-Serif" font-size="8.00">S&#45;1453</text>
</g>
<!-- C&#45;0823 -->
<g id="node27" class="node">
<title>C&#45;0823</title>
<ellipse fill="tomato" stroke="black" cx="550.5" cy="-770" rx="68.5" ry="18"/>
<text text-anchor="middle" x="550.5" y="-768.1" font-family="Helvetica,sans-Serif" font-size="8.00">C&#45;0823</text>
</g>
<!-- C&#45;0823&#45;&gt;C&#45;0824 -->
<g id="edge46" class="edge">
<title>C&#45;0823&#45;&gt;C&#45;0824</title>
<path fill="none" stroke="blue" stroke-width="0.8" stroke-dasharray="5,2" d="M527.67,-752.84C527.67,-708.03 527.67,-591 527.67,-591 527.67,-591 656.95,-591 656.95,-591"/>
<polygon fill="blue" stroke="blue" stroke-width="0.8" points="656.95,-593.45 663.95,-591 656.95,-588.55 656.95,-593.45"/>
</g>
<!-- C&#45;0822 -->
<g id="node28" class="node">
<title>C&#45;0822</title>
<ellipse fill="mediumseagreen" stroke="black" cx="723.5" cy="-770" rx="68.5" ry="18"/>
<text text-anchor="middle" x="723.5" y="-768.1" font-family="Helvetica,sans-Serif" font-size="8.00">C&#45;0822</text>
</g>
<!-- C&#45;0822&#45;&gt;R&#45;185 -->
<g id="edge21" class="edge">
<title>C&#45;0822&#45;&gt;R&#45;185</title>
<path fill="none" stroke="dimgray" stroke-width="0.8" d="M723.5,-751.88C723.5,-751.88 723.5,-701.07 723.5,-701.07"/>
<polygon fill="dimgray" stroke="dimgray" stroke-width="0.8" points="725.95,-701.07 723.5,-694.07 721.05,-701.07 725.95,-701.07"/>
</g>
<!-- C&#45;0036&#45;&gt;C&#45;0817 -->
<g id="edge31" class="edge">
<title>C&#45;0036&#45;&gt;C&#45;0817</title>
<path fill="none" stroke="dimgray" stroke-width="0.8" d="M198,-191.72C198,-191.72 198,-133.1 198,-133.1"/>
<polygon fill="dimgray" stroke="dimgray" stroke-width="0.8" points="200.45,-133.1 198,-126.1 195.55,-133.1 200.45,-133.1"/>
</g>
<!-- C&#45;0036&#45;&gt;C&#45;0818 -->
<g id="edge32" class="edge">
<title>C&#45;0036&#45;&gt;C&#45;0818</title>
<path fill="none" stroke="dimgray" stroke-width="0.8" d="M111.5,-191.72C111.5,-191.72 111.5,-133.1 111.5,-133.1"/>
<polygon fill="dimgray" stroke="dimgray" stroke-width="0.8" points="113.95,-133.1 111.5,-126.1 109.05,-133.1 113.95,-133.1"/>
</g>
<!-- S&#45;902&#45;&gt;C&#45;0823 -->
<g id="edge20" class="edge">
<title>S&#45;902&#45;&gt;C&#45;0823</title>
<path fill="none" stroke="dimgray" stroke-width="0.8" d="M550.5,-845.88C550.5,-845.88 550.5,-795.07 550.5,-795.07"/>
<polygon fill="dimgray" stroke="dimgray" stroke-width="0.8" points="552.95,-795.07 550.5,-788.07 548.05,-795.07 552.95,-795.07"/>
</g>
<!-- S&#45;902&#45;&gt;C&#45;0822 -->
<g id="edge19" class="edge">
<title>S&#45;902&#45;&gt;C&#45;0822</title>
<path fill="none" stroke="dimgray" stroke-width="0.8" d="M619.07,-864C657.59,-864 698,-864 698,-864 698,-864 698,-793.81 698,-793.81"/>
<polygon fill="dimgray" stroke="dimgray" stroke-width="0.8" points="700.45,-793.81 698,-786.81 695.55,-793.81 700.45,-793.81"/>
</g>
<!-- R&#45;209&#45;&gt;C&#45;0897 -->
<g id="edge9" class="edge">
<title>R&#45;209&#45;&gt;C&#45;0897</title>
<path fill="none" stroke="dimgray" stroke-width="0.8" d="M809.5,-1315.88C809.5,-1315.88 809.5,-1265.07 809.5,-1265.07"/>
<polygon fill="dimgray" stroke="dimgray" stroke-width="0.8" points="811.95,-1265.07 809.5,-1258.07 807.05,-1265.07 811.95,-1265.07"/>
</g>
<!-- R&#45;183&#45;&gt;ext_circ_114_23_ -->
<g id="edge49" class="edge">
<title>R&#45;183&#45;&gt;ext_circ_114_23_</title>
<path fill="none" stroke="red" stroke-width="0.8" stroke-dasharray="5,2" d="M137.32,-18C254.37,-18 479.67,-18 479.67,-18 479.67,-18 479.67,-1782.99 479.67,-1782.99"/>
<polygon fill="red" stroke="red" stroke-width="0.8" points="477.22,-1782.99 479.67,-1789.99 482.12,-1782.99 477.22,-1782.99"/>
</g>
<!-- C&#45;0824&#45;&gt;C&#45;1264 -->
<g id="edge27" class="edge">
<title>C&#45;0824&#45;&gt;C&#45;1264</title>
<path fill="none" stroke="dimgray" stroke-width="0.8" d="M664.15,-573C622.18,-573 573.33,-573 573.33,-573 573.33,-573 573.33,-512.2 573.33,-512.2"/>
<polygon fill="dimgray" stroke="dimgray" stroke-width="0.8" points="575.78,-512.2 573.33,-505.2 570.88,-512.2 575.78,-512.2"/>
</g>
<!-- C&#45;0824&#45;&gt;C&#45;1263 -->
<g id="edge26" class="edge">
<title>C&#45;0824&#45;&gt;C&#45;1263</title>
<path fill="none" stroke="dimgray" stroke-width="0.8" d="M723.5,-563.88C723.5,-563.88 723.5,-513.07 723.5,-513.07"/>
<polygon fill="dimgray" stroke="dimgray" stroke-width="0.8" points="725.95,-513.07 723.5,-506.07 721.05,-513.07 725.95,-513.07"/>
</g>
<!-- C&#45;0824&#45;&gt;S&#45;1454 -->
<g id="edge23" class="edge">
<title>C&#45;0824&#45;&gt;S&#45;1454</title>
<path fill="none" stroke="dimgray" stroke-width="0.8" d="M788.25,-576C820.63,-576 853,-576 853,-576 853,-576 853,-501.61 853,-501.61"/>
<polygon fill="dimgray" stroke="dimgray" stroke-width="0.8" points="855.45,-501.61 853,-494.61 850.55,-501.61 855.45,-501.61"/>
</g>
<!-- C&#45;0824&#45;&gt;S&#45;1453 -->
<g id="edge25" class="edge">
<title>C&#45;0824&#45;&gt;S&#45;1453</title>
<path fill="none" stroke="dimgray" stroke-width="0.8" d="M788.39,-588C877.28,-588 1026,-588 1026,-588 1026,-588 1026,-501.87 1026,-501.87"/>
<polygon fill="dimgray" stroke="dimgray" stroke-width="0.8" points="1028.45,-501.87 1026,-494.87 1023.55,-501.87 1028.45,-501.87"/>
</g>
<!-- S&#45;1618 -->
<g id="node41" class="node">
<title>S&#45;1618</title>
<polygon fill="mediumseagreen" stroke="black" points="377.5,-506 309,-488 377.5,-470 446,-488 377.5,-506"/>
<text text-anchor="middle" x="377.5" y="-486.1" font-family="Helvetica,sans-Serif" font-size="8.00">S&#45;1618</text>
</g>
<!-- C&#45;0824&#45;&gt;S&#45;1618 -->
<g id="edge39" class="edge">
<title>C&#45;0824&#45;&gt;S&#45;1618</title>
<path fill="none" stroke="dimgray" stroke-width="0.8" d="M654.99,-582C548.33,-582 354.67,-582 354.67,-582 354.67,-582 354.67,-507.29 354.67,-507.29"/>
<polygon fill="dimgray" stroke="dimgray" stroke-width="0.8" points="357.12,-507.29 354.67,-500.29 352.22,-507.29 357.12,-507.29"/>
</g>
<!-- C&#45;0055&#45;&gt;S&#45;1487 -->
<g id="edge2" class="edge">
<title>C&#45;0055&#45;&gt;S&#45;1487</title>
<path fill="none" stroke="dimgray" stroke-width="0.8" d="M1068.5,-1691.88C1068.5,-1691.88 1068.5,-1641.07 1068.5,-1641.07"/>
<polygon fill="dimgray" stroke="dimgray" stroke-width="0.8" points="1070.95,-1641.07 1068.5,-1634.07 1066.05,-1641.07 1070.95,-1641.07"/>
</g>
<!-- C&#45;0545 -->
<g id="node37" class="node">
<title>C&#45;0545</title>
<ellipse fill="tomato" stroke="black" cx="377.5" cy="-1146" rx="68.5" ry="18"/>
<text text-anchor="middle" x="377.5" y="-1144.1" font-family="Helvetica,sans-Serif" font-size="8.00">C&#45;0545</text>
</g>
<!-- C&#45;0545&#45;&gt;C&#45;0546 -->
<g id="edge45" class="edge">
<title>C&#45;0545&#45;&gt;C&#45;0546</title>
<path fill="none" stroke="blue" stroke-width="0.8" stroke-dasharray="5,2" d="M400.33,-1128.98C400.33,-1082.71 400.33,-958 400.33,-958 400.33,-958 474.57,-958 474.57,-958"/>
<polygon fill="blue" stroke="blue" stroke-width="0.8" points="474.57,-960.45 481.57,-958 474.57,-955.55 474.57,-960.45"/>
</g>
<!-- C&#45;0897&#45;&gt;C&#45;0367 -->
<g id="edge14" class="edge">
<title>C&#45;0897&#45;&gt;C&#45;0367</title>
<path fill="none" stroke="dimgray" stroke-width="0.8" d="M744.9,-1234C688.47,-1234 615.5,-1234 615.5,-1234 615.5,-1234 615.5,-1158.77 615.5,-1158.77"/>
<polygon fill="dimgray" stroke="dimgray" stroke-width="0.8" points="617.95,-1158.77 615.5,-1151.77 613.05,-1158.77 617.95,-1158.77"/>
</g>
<!-- C&#45;0897&#45;&gt;S&#45;037 -->
<g id="edge41" class="edge">
<title>C&#45;0897&#45;&gt;S&#45;037</title>
<path fill="none" stroke="dimgray" stroke-width="0.8" d="M766.5,-1225.72C766.5,-1225.72 766.5,-1159.83 766.5,-1159.83"/>
<polygon fill="dimgray" stroke="dimgray" stroke-width="0.8" points="768.95,-1159.83 766.5,-1152.83 764.05,-1159.83 768.95,-1159.83"/>
</g>
<!-- C&#45;0897&#45;&gt;S&#45;1163 -->
<g id="edge10" class="edge">
<title>C&#45;0897&#45;&gt;S&#45;1163</title>
<path fill="none" stroke="dimgray" stroke-width="0.8" d="M853,-1225.72C853,-1225.72 853,-1159.83 853,-1159.83"/>
<polygon fill="dimgray" stroke="dimgray" stroke-width="0.8" points="855.45,-1159.83 853,-1152.83 850.55,-1159.83 855.45,-1159.83"/>
</g>
<!-- C&#45;0897&#45;&gt;S&#45;047 -->
<g id="edge40" class="edge">
<title>C&#45;0897&#45;&gt;S&#45;047</title>
<path fill="none" stroke="dimgray" stroke-width="0.8" d="M868.95,-1231C933.04,-1231 1026,-1231 1026,-1231 1026,-1231 1026,-1159.67 1026,-1159.67"/>
<polygon fill="dimgray" stroke="dimgray" stroke-width="0.8" points="1028.45,-1159.67 1026,-1152.67 1023.55,-1159.67 1028.45,-1159.67"/>
</g>
<!-- C&#45;0897&#45;&gt;S&#45;1468 -->
<g id="edge13" class="edge">
<title>C&#45;0897&#45;&gt;S&#45;1468</title>
<path fill="none" stroke="dimgray" stroke-width="0.8" d="M878.24,-1240C990.06,-1240 1199,-1240 1199,-1240 1199,-1240 1199,-1159.76 1199,-1159.76"/>
<polygon fill="dimgray" stroke="dimgray" stroke-width="0.8" points="1201.45,-1159.76 1199,-1152.76 1196.55,-1159.76 1201.45,-1159.76"/>
</g>
<!-- C&#45;0897&#45;&gt;C&#45;0545 -->
<g id="edge15" class="edge">
<title>C&#45;0897&#45;&gt;C&#45;0545</title>
<path fill="none" stroke="dimgray" stroke-width="0.8" d="M744.91,-1246C634.44,-1246 421,-1246 421,-1246 421,-1246 421,-1167.33 421,-1167.33"/>
<polygon fill="dimgray" stroke="dimgray" stroke-width="0.8" points="423.45,-1167.33 421,-1160.33 418.55,-1167.33 423.45,-1167.33"/>
</g>
<!-- R&#45;079&#45;&gt;ext_circ_113_24_ -->
<g id="edge42" class="edge">
<title>R&#45;079&#45;&gt;ext_circ_113_24_</title>
<path fill="none" stroke="red" stroke-width="0.8" stroke-dasharray="5,2" d="M1351.33,-1446.04C1351.33,-1459.29 1351.33,-1475 1351.33,-1475 1351.33,-1475 893.33,-1475 893.33,-1475 893.33,-1475 893.33,-1782.62 893.33,-1782.62"/>
<polygon fill="red" stroke="red" stroke-width="0.8" points="890.88,-1782.62 893.33,-1789.62 895.78,-1782.62 890.88,-1782.62"/>
</g>
<!-- R&#45;175&#45;&gt;ext_circ_114_22_ -->
<g id="edge51" class="edge">
<title>R&#45;175&#45;&gt;ext_circ_114_22_</title>
<path fill="none" stroke="red" stroke-width="0.8" stroke-dasharray="5,2" d="M654.74,-118C576.82,-118 460.5,-118 460.5,-118 460.5,-118 460.5,-1808 460.5,-1808 460.5,-1808 403.34,-1808 403.34,-1808"/>
<polygon fill="red" stroke="red" stroke-width="0.8" points="403.34,-1805.55 396.34,-1808 403.34,-1810.45 403.34,-1805.55"/>
</g>
</g>
</svg>
