<?xml version="1.0" encoding="UTF-8" standalone="no"?>
<!DOCTYPE svg PUBLIC "-//W3C//DTD SVG 1.1//EN"
 "http://www.w3.org/Graphics/SVG/1.1/DTD/svg11.dtd">
<!-- Generated by graphviz version 2.50.0 (0)
 -->
<!-- Title: Grafo_Circuito_307_22_ Pages: 1 -->
<svg width="2041pt" height="2281pt"
 viewBox="0.00 0.00 2041.00 2281.00" xmlns="http://www.w3.org/2000/svg" xmlns:xlink="http://www.w3.org/1999/xlink">
<g id="graph0" class="graph" transform="scale(1 1) rotate(0) translate(4 2277)">
<title>Grafo_Circuito_307_22_</title>
<polygon fill="white" stroke="transparent" points="-4,4 -4,-2277 2037,-2277 2037,4 -4,4"/>
<!-- S&#45;1563 -->
<g id="node1" class="node">
<title>S&#45;1563</title>
<polygon fill="mediumseagreen" stroke="black" points="72,-1457 0,-1435.5 72,-1414 144,-1435.5 72,-1457"/>
<text text-anchor="middle" x="72" y="-1433" font-family="Arial" font-size="10.00">S&#45;1563</text>
</g>
<!-- S&#45;2405 -->
<g id="node2" class="node">
<title>S&#45;2405</title>
<polygon fill="mediumseagreen" stroke="black" points="1075,-1154 1003,-1132.5 1075,-1111 1147,-1132.5 1075,-1154"/>
<text text-anchor="middle" x="1075" y="-1130" font-family="Arial" font-size="10.00">S&#45;2405</text>
</g>
<!-- S&#45;308 -->
<g id="node3" class="node">
<title>S&#45;308</title>
<polygon fill="mediumseagreen" stroke="black" points="1241,-750 1169,-728.5 1241,-707 1313,-728.5 1241,-750"/>
<text text-anchor="middle" x="1241" y="-726" font-family="Arial" font-size="10.00">S&#45;308</text>
</g>
<!-- SR&#45;0025 -->
<g id="node4" class="node">
<title>SR&#45;0025</title>
<polygon fill="mediumseagreen" stroke="black" points="1241,-649 1169,-627.5 1241,-606 1313,-627.5 1241,-649"/>
<text text-anchor="middle" x="1241" y="-625" font-family="Arial" font-size="10.00">SR&#45;0025</text>
</g>
<!-- S&#45;308&#45;&gt;SR&#45;0025 -->
<g id="edge49" class="edge">
<title>S&#45;308&#45;&gt;SR&#45;0025</title>
<path fill="none" stroke="#4d4d4d" d="M1241,-706.58C1241,-706.58 1241,-656.03 1241,-656.03"/>
<polygon fill="#4d4d4d" stroke="#4d4d4d" points="1243.45,-656.03 1241,-649.03 1238.55,-656.03 1243.45,-656.03"/>
</g>
<!-- S&#45;2147 -->
<g id="node56" class="node">
<title>S&#45;2147</title>
<polygon fill="mediumseagreen" stroke="black" points="1241,-548 1169,-526.5 1241,-505 1313,-526.5 1241,-548"/>
<text text-anchor="middle" x="1241" y="-524" font-family="Arial" font-size="10.00">S&#45;2147</text>
</g>
<!-- SR&#45;0025&#45;&gt;S&#45;2147 -->
<g id="edge50" class="edge">
<title>SR&#45;0025&#45;&gt;S&#45;2147</title>
<path fill="none" stroke="#4d4d4d" d="M1241,-605.58C1241,-605.58 1241,-555.03 1241,-555.03"/>
<polygon fill="#4d4d4d" stroke="#4d4d4d" points="1243.45,-555.03 1241,-548.03 1238.55,-555.03 1243.45,-555.03"/>
</g>
<!-- R&#45;210 -->
<g id="node5" class="node">
<title>R&#45;210</title>
<polygon fill="mediumseagreen" stroke="black" points="1583,-517.59 1583,-535.41 1540.82,-548 1481.18,-548 1439,-535.41 1439,-517.59 1481.18,-505 1540.82,-505 1583,-517.59"/>
<text text-anchor="middle" x="1511" y="-524" font-family="Arial" font-size="10.00">R&#45;210</text>
</g>
<!-- C&#45;0902 -->
<g id="node62" class="node">
<title>C&#45;0902</title>
<ellipse fill="mediumseagreen" stroke="black" cx="1511" cy="-425.5" rx="72" ry="21.5"/>
<text text-anchor="middle" x="1511" y="-423" font-family="Arial" font-size="10.00">C&#45;0902</text>
</g>
<!-- R&#45;210&#45;&gt;C&#45;0902 -->
<g id="edge34" class="edge">
<title>R&#45;210&#45;&gt;C&#45;0902</title>
<path fill="none" stroke="#4d4d4d" d="M1511,-504.58C1511,-504.58 1511,-454.03 1511,-454.03"/>
<polygon fill="#4d4d4d" stroke="#4d4d4d" points="1513.45,-454.03 1511,-447.03 1508.55,-454.03 1513.45,-454.03"/>
</g>
<!-- S&#45;1913 -->
<g id="node6" class="node">
<title>S&#45;1913</title>
<polygon fill="mediumseagreen" stroke="black" points="792,-1558 720,-1536.5 792,-1515 864,-1536.5 792,-1558"/>
<text text-anchor="middle" x="792" y="-1534" font-family="Arial" font-size="10.00">S&#45;1913</text>
</g>
<!-- S&#45;1913&#45;&gt;S&#45;1563 -->
<g id="edge53" class="edge">
<title>S&#45;1913&#45;&gt;S&#45;1563</title>
<path fill="none" stroke="#4d4d4d" d="M761.69,-1549C630.34,-1549 117,-1549 117,-1549 117,-1549 117,-1450.66 117,-1450.66"/>
<polygon fill="#4d4d4d" stroke="#4d4d4d" points="119.45,-1450.66 117,-1443.66 114.55,-1450.66 119.45,-1450.66"/>
</g>
<!-- S&#45;1938 -->
<g id="node8" class="node">
<title>S&#45;1938</title>
<polygon fill="mediumseagreen" stroke="black" points="252,-1457 180,-1435.5 252,-1414 324,-1435.5 252,-1457"/>
<text text-anchor="middle" x="252" y="-1433" font-family="Arial" font-size="10.00">S&#45;1938</text>
</g>
<!-- S&#45;1913&#45;&gt;S&#45;1938 -->
<g id="edge11" class="edge">
<title>S&#45;1913&#45;&gt;S&#45;1938</title>
<path fill="none" stroke="#4d4d4d" d="M731.3,-1540C599.12,-1540 297,-1540 297,-1540 297,-1540 297,-1450.7 297,-1450.7"/>
<polygon fill="#4d4d4d" stroke="#4d4d4d" points="299.45,-1450.7 297,-1443.7 294.55,-1450.7 299.45,-1450.7"/>
</g>
<!-- C&#45;0383 -->
<g id="node13" class="node">
<title>C&#45;0383</title>
<ellipse fill="tomato" stroke="black" cx="432" cy="-1435.5" rx="72" ry="21.5"/>
<text text-anchor="middle" x="432" y="-1433" font-family="Arial" font-size="10.00">C&#45;0383</text>
</g>
<!-- S&#45;1913&#45;&gt;C&#45;0383 -->
<g id="edge15" class="edge">
<title>S&#45;1913&#45;&gt;C&#45;0383</title>
<path fill="none" stroke="#4d4d4d" d="M734.96,-1532C633.45,-1532 432,-1532 432,-1532 432,-1532 432,-1464.4 432,-1464.4"/>
<polygon fill="#4d4d4d" stroke="#4d4d4d" points="434.45,-1464.4 432,-1457.4 429.55,-1464.4 434.45,-1464.4"/>
</g>
<!-- S&#45;184 -->
<g id="node18" class="node">
<title>S&#45;184</title>
<polygon fill="mediumseagreen" stroke="black" points="612,-1457 540,-1435.5 612,-1414 684,-1435.5 612,-1457"/>
<text text-anchor="middle" x="612" y="-1433" font-family="Arial" font-size="10.00">S&#45;184</text>
</g>
<!-- S&#45;1913&#45;&gt;S&#45;184 -->
<g id="edge13" class="edge">
<title>S&#45;1913&#45;&gt;S&#45;184</title>
<path fill="none" stroke="#4d4d4d" d="M765.05,-1523C714.84,-1523 612,-1523 612,-1523 612,-1523 612,-1464.13 612,-1464.13"/>
<polygon fill="#4d4d4d" stroke="#4d4d4d" points="614.45,-1464.13 612,-1457.13 609.55,-1464.13 614.45,-1464.13"/>
</g>
<!-- S&#45;1777 -->
<g id="node19" class="node">
<title>S&#45;1777</title>
<polygon fill="mediumseagreen" stroke="black" points="792,-1457 720,-1435.5 792,-1414 864,-1435.5 792,-1457"/>
<text text-anchor="middle" x="792" y="-1433" font-family="Arial" font-size="10.00">S&#45;1777</text>
</g>
<!-- S&#45;1913&#45;&gt;S&#45;1777 -->
<g id="edge12" class="edge">
<title>S&#45;1913&#45;&gt;S&#45;1777</title>
<path fill="none" stroke="#4d4d4d" d="M792,-1514.58C792,-1514.58 792,-1464.03 792,-1464.03"/>
<polygon fill="#4d4d4d" stroke="#4d4d4d" points="794.45,-1464.03 792,-1457.03 789.55,-1464.03 794.45,-1464.03"/>
</g>
<!-- S&#45;185 -->
<g id="node28" class="node">
<title>S&#45;185</title>
<polygon fill="mediumseagreen" stroke="black" points="972,-1457 900,-1435.5 972,-1414 1044,-1435.5 972,-1457"/>
<text text-anchor="middle" x="972" y="-1433" font-family="Arial" font-size="10.00">S&#45;185</text>
</g>
<!-- S&#45;1913&#45;&gt;S&#45;185 -->
<g id="edge59" class="edge">
<title>S&#45;1913&#45;&gt;S&#45;185</title>
<path fill="none" stroke="#4d4d4d" d="M818.99,-1523C858.39,-1523 927,-1523 927,-1523 927,-1523 927,-1450.57 927,-1450.57"/>
<polygon fill="#4d4d4d" stroke="#4d4d4d" points="929.45,-1450.57 927,-1443.57 924.55,-1450.57 929.45,-1450.57"/>
</g>
<!-- C&#45;0384 -->
<g id="node43" class="node">
<title>C&#45;0384</title>
<ellipse fill="mediumseagreen" stroke="black" cx="1152" cy="-1435.5" rx="72" ry="21.5"/>
<text text-anchor="middle" x="1152" y="-1433" font-family="Arial" font-size="10.00">C&#45;0384</text>
</g>
<!-- S&#45;1913&#45;&gt;C&#45;0384 -->
<g id="edge16" class="edge">
<title>S&#45;1913&#45;&gt;C&#45;0384</title>
<path fill="none" stroke="#4d4d4d" d="M849.04,-1532C950.55,-1532 1152,-1532 1152,-1532 1152,-1532 1152,-1464.4 1152,-1464.4"/>
<polygon fill="#4d4d4d" stroke="#4d4d4d" points="1154.45,-1464.4 1152,-1457.4 1149.55,-1464.4 1154.45,-1464.4"/>
</g>
<!-- S&#45;181 -->
<g id="node44" class="node">
<title>S&#45;181</title>
<polygon fill="mediumseagreen" stroke="black" points="1332,-1457 1260,-1435.5 1332,-1414 1404,-1435.5 1332,-1457"/>
<text text-anchor="middle" x="1332" y="-1433" font-family="Arial" font-size="10.00">S&#45;181</text>
</g>
<!-- S&#45;1913&#45;&gt;S&#45;181 -->
<g id="edge54" class="edge">
<title>S&#45;1913&#45;&gt;S&#45;181</title>
<path fill="none" stroke="#4d4d4d" d="M852.37,-1540C993.28,-1540 1332,-1540 1332,-1540 1332,-1540 1332,-1464.15 1332,-1464.15"/>
<polygon fill="#4d4d4d" stroke="#4d4d4d" points="1334.45,-1464.15 1332,-1457.15 1329.55,-1464.15 1334.45,-1464.15"/>
</g>
<!-- S&#45;183 -->
<g id="node48" class="node">
<title>S&#45;183</title>
<polygon fill="mediumseagreen" stroke="black" points="1512,-1457 1440,-1435.5 1512,-1414 1584,-1435.5 1512,-1457"/>
<text text-anchor="middle" x="1512" y="-1433" font-family="Arial" font-size="10.00">S&#45;183</text>
</g>
<!-- S&#45;1913&#45;&gt;S&#45;183 -->
<g id="edge14" class="edge">
<title>S&#45;1913&#45;&gt;S&#45;183</title>
<path fill="none" stroke="#4d4d4d" d="M822.48,-1549C959.52,-1549 1512,-1549 1512,-1549 1512,-1549 1512,-1464.12 1512,-1464.12"/>
<polygon fill="#4d4d4d" stroke="#4d4d4d" points="1514.45,-1464.12 1512,-1457.12 1509.55,-1464.12 1514.45,-1464.12"/>
</g>
<!-- C&#45;0867 -->
<g id="node7" class="node">
<title>C&#45;0867</title>
<ellipse fill="tomato" stroke="black" cx="268" cy="-1940.5" rx="72" ry="21.5"/>
<text text-anchor="middle" x="268" y="-1938" font-family="Arial" font-size="10.00">C&#45;0867</text>
</g>
<!-- C&#45;0868 -->
<g id="node51" class="node">
<title>C&#45;0868</title>
<ellipse fill="mediumseagreen" stroke="black" cx="702" cy="-1738.5" rx="72" ry="21.5"/>
<text text-anchor="middle" x="702" y="-1736" font-family="Arial" font-size="10.00">C&#45;0868</text>
</g>
<!-- C&#45;0867&#45;&gt;C&#45;0868 -->
<g id="edge65" class="edge">
<title>C&#45;0867&#45;&gt;C&#45;0868</title>
<path fill="none" stroke="blue" stroke-dasharray="5,2" d="M233,-1921.62C233,-1881.01 233,-1789 233,-1789 233,-1789 678,-1789 678,-1789 678,-1789 678,-1766.04 678,-1766.04"/>
<polygon fill="blue" stroke="blue" points="680.45,-1766.04 678,-1759.04 675.55,-1766.04 680.45,-1766.04"/>
</g>
<!-- S&#45;1568 -->
<g id="node9" class="node">
<title>S&#45;1568</title>
<polygon fill="mediumseagreen" stroke="black" points="1331,-346 1259,-324.5 1331,-303 1403,-324.5 1331,-346"/>
<text text-anchor="middle" x="1331" y="-322" font-family="Arial" font-size="10.00">S&#45;1568</text>
</g>
<!-- R&#45;056 -->
<g id="node10" class="node">
<title>R&#45;056</title>
<polygon fill="mediumseagreen" stroke="black" points="1620,-921.59 1620,-939.41 1577.82,-952 1518.18,-952 1476,-939.41 1476,-921.59 1518.18,-909 1577.82,-909 1620,-921.59"/>
<text text-anchor="middle" x="1548" y="-928" font-family="Arial" font-size="10.00">R&#45;056</text>
</g>
<!-- C&#45;0720 -->
<g id="node60" class="node">
<title>C&#45;0720</title>
<ellipse fill="mediumseagreen" stroke="black" cx="1601" cy="-829.5" rx="72" ry="21.5"/>
<text text-anchor="middle" x="1601" y="-827" font-family="Arial" font-size="10.00">C&#45;0720</text>
</g>
<!-- R&#45;056&#45;&gt;C&#45;0720 -->
<g id="edge28" class="edge">
<title>R&#45;056&#45;&gt;C&#45;0720</title>
<path fill="none" stroke="#4d4d4d" d="M1574.5,-908.58C1574.5,-908.58 1574.5,-856.66 1574.5,-856.66"/>
<polygon fill="#4d4d4d" stroke="#4d4d4d" points="1576.95,-856.66 1574.5,-849.66 1572.05,-856.66 1576.95,-856.66"/>
</g>
<!-- C&#45;0962 -->
<g id="node11" class="node">
<title>C&#45;0962</title>
<ellipse fill="mediumseagreen" stroke="black" cx="1255" cy="-1031.5" rx="72" ry="21.5"/>
<text text-anchor="middle" x="1255" y="-1029" font-family="Arial" font-size="10.00">C&#45;0962</text>
</g>
<!-- R&#45;227 -->
<g id="node38" class="node">
<title>R&#45;227</title>
<polygon fill="mediumseagreen" stroke="black" points="1327,-921.59 1327,-939.41 1284.82,-952 1225.18,-952 1183,-939.41 1183,-921.59 1225.18,-909 1284.82,-909 1327,-921.59"/>
<text text-anchor="middle" x="1255" y="-928" font-family="Arial" font-size="10.00">R&#45;227</text>
</g>
<!-- C&#45;0962&#45;&gt;R&#45;227 -->
<g id="edge45" class="edge">
<title>C&#45;0962&#45;&gt;R&#45;227</title>
<path fill="none" stroke="#4d4d4d" d="M1255,-1009.58C1255,-1009.58 1255,-959.03 1255,-959.03"/>
<polygon fill="#4d4d4d" stroke="#4d4d4d" points="1257.45,-959.03 1255,-952.03 1252.55,-959.03 1257.45,-959.03"/>
</g>
<!-- C&#45;0719 -->
<g id="node12" class="node">
<title>C&#45;0719</title>
<ellipse fill="mediumseagreen" stroke="black" cx="1435" cy="-1031.5" rx="72" ry="21.5"/>
<text text-anchor="middle" x="1435" y="-1029" font-family="Arial" font-size="10.00">C&#45;0719</text>
</g>
<!-- C&#45;0719&#45;&gt;R&#45;056 -->
<g id="edge27" class="edge">
<title>C&#45;0719&#45;&gt;R&#45;056</title>
<path fill="none" stroke="#4d4d4d" d="M1491.5,-1017.88C1491.5,-1017.88 1491.5,-951.23 1491.5,-951.23"/>
<polygon fill="#4d4d4d" stroke="#4d4d4d" points="1493.95,-951.23 1491.5,-944.23 1489.05,-951.23 1493.95,-951.23"/>
</g>
<!-- S&#45;1841 -->
<g id="node53" class="node">
<title>S&#45;1841</title>
<polygon fill="mediumseagreen" stroke="black" points="895,-1154 823,-1132.5 895,-1111 967,-1132.5 895,-1154"/>
<text text-anchor="middle" x="895" y="-1130" font-family="Arial" font-size="10.00">S&#45;1841</text>
</g>
<!-- C&#45;0383&#45;&gt;S&#45;1841 -->
<g id="edge66" class="edge">
<title>C&#45;0383&#45;&gt;S&#45;1841</title>
<path fill="none" stroke="blue" stroke-dasharray="5,2" d="M432,-1413.7C432,-1345.22 432,-1139 432,-1139 432,-1139 837.57,-1139 837.57,-1139"/>
<polygon fill="blue" stroke="blue" points="837.57,-1141.45 844.57,-1139 837.57,-1136.55 837.57,-1141.45"/>
</g>
<!-- S&#45;548 -->
<g id="node14" class="node">
<title>S&#45;548</title>
<polygon fill="mediumseagreen" stroke="black" points="1691,-144 1619,-122.5 1691,-101 1763,-122.5 1691,-144"/>
<text text-anchor="middle" x="1691" y="-120" font-family="Arial" font-size="10.00">S&#45;548</text>
</g>
<!-- S&#45;1531 -->
<g id="node58" class="node">
<title>S&#45;1531</title>
<polygon fill="mediumseagreen" stroke="black" points="1691,-43 1619,-21.5 1691,0 1763,-21.5 1691,-43"/>
<text text-anchor="middle" x="1691" y="-19" font-family="Arial" font-size="10.00">S&#45;1531</text>
</g>
<!-- S&#45;548&#45;&gt;S&#45;1531 -->
<g id="edge40" class="edge">
<title>S&#45;548&#45;&gt;S&#45;1531</title>
<path fill="none" stroke="#4d4d4d" d="M1691,-100.58C1691,-100.58 1691,-50.03 1691,-50.03"/>
<polygon fill="#4d4d4d" stroke="#4d4d4d" points="1693.45,-50.03 1691,-43.03 1688.55,-50.03 1693.45,-50.03"/>
</g>
<!-- C&#45;0038 -->
<g id="node15" class="node">
<title>C&#45;0038</title>
<ellipse fill="tomato" stroke="black" cx="342" cy="-1839.5" rx="72" ry="21.5"/>
<text text-anchor="middle" x="342" y="-1837" font-family="Arial" font-size="10.00">C&#45;0038</text>
</g>
<!-- ext_circ_307_24_ -->
<g id="node67" class="node">
<title>ext_circ_307_24_</title>
<polygon fill="lightpink" stroke="darkorange" stroke-dasharray="5,2" points="504,-1760 360,-1760 360,-1717 504,-1717 504,-1760"/>
<text text-anchor="middle" x="432" y="-1741.5" font-family="Arial" font-size="10.00">Circuito:</text>
<text text-anchor="middle" x="432" y="-1730.5" font-family="Arial" font-size="10.00">307&#45;24&#45;</text>
</g>
<!-- C&#45;0038&#45;&gt;ext_circ_307_24_ -->
<g id="edge73" class="edge">
<title>C&#45;0038&#45;&gt;ext_circ_307_24_</title>
<path fill="none" stroke="darkorange" stroke-dasharray="5,2" d="M387,-1822.37C387,-1822.37 387,-1767.31 387,-1767.31"/>
<polygon fill="darkorange" stroke="darkorange" points="389.45,-1767.31 387,-1760.31 384.55,-1767.31 389.45,-1767.31"/>
</g>
<!-- S&#45;2533 -->
<g id="node16" class="node">
<title>S&#45;2533</title>
<polygon fill="mediumseagreen" stroke="black" points="715,-1053 643,-1031.5 715,-1010 787,-1031.5 715,-1053"/>
<text text-anchor="middle" x="715" y="-1029" font-family="Arial" font-size="10.00">S&#45;2533</text>
</g>
<!-- S&#45;1566 -->
<g id="node17" class="node">
<title>S&#45;1566</title>
<polygon fill="mediumseagreen" stroke="black" points="612,-1659 540,-1637.5 612,-1616 684,-1637.5 612,-1659"/>
<text text-anchor="middle" x="612" y="-1635" font-family="Arial" font-size="10.00">S&#45;1566</text>
</g>
<!-- S&#45;2128 -->
<g id="node20" class="node">
<title>S&#45;2128</title>
<polygon fill="mediumseagreen" stroke="black" points="1961,-649 1889,-627.5 1961,-606 2033,-627.5 1961,-649"/>
<text text-anchor="middle" x="1961" y="-625" font-family="Arial" font-size="10.00">S&#45;2128</text>
</g>
<!-- C&#45;1090 -->
<g id="node21" class="node">
<title>C&#45;1090</title>
<ellipse fill="mediumseagreen" stroke="black" cx="522" cy="-1940.5" rx="72" ry="21.5"/>
<text text-anchor="middle" x="522" y="-1938" font-family="Arial" font-size="10.00">C&#45;1090</text>
</g>
<!-- R&#45;268 -->
<g id="node37" class="node">
<title>R&#45;268</title>
<polygon fill="tomato" stroke="black" points="594,-1830.59 594,-1848.41 551.82,-1861 492.18,-1861 450,-1848.41 450,-1830.59 492.18,-1818 551.82,-1818 594,-1830.59"/>
<text text-anchor="middle" x="522" y="-1837" font-family="Arial" font-size="10.00">R&#45;268</text>
</g>
<!-- C&#45;1090&#45;&gt;R&#45;268 -->
<g id="edge62" class="edge">
<title>C&#45;1090&#45;&gt;R&#45;268</title>
<path fill="none" stroke="#4d4d4d" d="M522,-1918.58C522,-1918.58 522,-1868.03 522,-1868.03"/>
<polygon fill="#4d4d4d" stroke="#4d4d4d" points="524.45,-1868.03 522,-1861.03 519.55,-1868.03 524.45,-1868.03"/>
</g>
<!-- R&#45;129 -->
<g id="node22" class="node">
<title>R&#45;129</title>
<polygon fill="mediumseagreen" stroke="black" points="1224,-1325.59 1224,-1343.41 1181.82,-1356 1122.18,-1356 1080,-1343.41 1080,-1325.59 1122.18,-1313 1181.82,-1313 1224,-1325.59"/>
<text text-anchor="middle" x="1152" y="-1332" font-family="Arial" font-size="10.00">R&#45;129</text>
</g>
<!-- C&#45;0385 -->
<g id="node25" class="node">
<title>C&#45;0385</title>
<ellipse fill="mediumseagreen" stroke="black" cx="1152" cy="-1233.5" rx="72" ry="21.5"/>
<text text-anchor="middle" x="1152" y="-1231" font-family="Arial" font-size="10.00">C&#45;0385</text>
</g>
<!-- R&#45;129&#45;&gt;C&#45;0385 -->
<g id="edge18" class="edge">
<title>R&#45;129&#45;&gt;C&#45;0385</title>
<path fill="none" stroke="#4d4d4d" d="M1152,-1312.58C1152,-1312.58 1152,-1262.03 1152,-1262.03"/>
<polygon fill="#4d4d4d" stroke="#4d4d4d" points="1154.45,-1262.03 1152,-1255.03 1149.55,-1262.03 1154.45,-1262.03"/>
</g>
<!-- S&#45;556 -->
<g id="node23" class="node">
<title>S&#45;556</title>
<polygon fill="mediumseagreen" stroke="black" points="1691,-245 1619,-223.5 1691,-202 1763,-223.5 1691,-245"/>
<text text-anchor="middle" x="1691" y="-221" font-family="Arial" font-size="10.00">S&#45;556</text>
</g>
<!-- S&#45;556&#45;&gt;S&#45;548 -->
<g id="edge39" class="edge">
<title>S&#45;556&#45;&gt;S&#45;548</title>
<path fill="none" stroke="#4d4d4d" d="M1691,-201.58C1691,-201.58 1691,-151.03 1691,-151.03"/>
<polygon fill="#4d4d4d" stroke="#4d4d4d" points="1693.45,-151.03 1691,-144.03 1688.55,-151.03 1693.45,-151.03"/>
</g>
<!-- S&#45;2394 -->
<g id="node24" class="node">
<title>S&#45;2394</title>
<polygon fill="mediumseagreen" stroke="black" points="1512,-1255 1440,-1233.5 1512,-1212 1584,-1233.5 1512,-1255"/>
<text text-anchor="middle" x="1512" y="-1231" font-family="Arial" font-size="10.00">S&#45;2394</text>
</g>
<!-- C&#45;0385&#45;&gt;S&#45;2405 -->
<g id="edge23" class="edge">
<title>C&#45;0385&#45;&gt;S&#45;2405</title>
<path fill="none" stroke="#4d4d4d" d="M1113.5,-1214.98C1113.5,-1214.98 1113.5,-1149.6 1113.5,-1149.6"/>
<polygon fill="#4d4d4d" stroke="#4d4d4d" points="1115.95,-1149.6 1113.5,-1142.6 1111.05,-1149.6 1115.95,-1149.6"/>
</g>
<!-- S&#45;1978 -->
<g id="node41" class="node">
<title>S&#45;1978</title>
<polygon fill="mediumseagreen" stroke="black" points="1255,-1154 1183,-1132.5 1255,-1111 1327,-1132.5 1255,-1154"/>
<text text-anchor="middle" x="1255" y="-1130" font-family="Arial" font-size="10.00">S&#45;1978</text>
</g>
<!-- C&#45;0385&#45;&gt;S&#45;1978 -->
<g id="edge52" class="edge">
<title>C&#45;0385&#45;&gt;S&#45;1978</title>
<path fill="none" stroke="#4d4d4d" d="M1196.67,-1216.37C1196.67,-1216.37 1196.67,-1143.59 1196.67,-1143.59"/>
<polygon fill="#4d4d4d" stroke="#4d4d4d" points="1199.12,-1143.59 1196.67,-1136.59 1194.22,-1143.59 1199.12,-1143.59"/>
</g>
<!-- C&#45;0385&#45;&gt;S&#45;1841 -->
<g id="edge19" class="edge">
<title>C&#45;0385&#45;&gt;S&#45;1841</title>
<path fill="none" stroke="#4d4d4d" d="M1079.85,-1233C1016.21,-1233 933.5,-1233 933.5,-1233 933.5,-1233 933.5,-1149.5 933.5,-1149.5"/>
<polygon fill="#4d4d4d" stroke="#4d4d4d" points="935.95,-1149.5 933.5,-1142.5 931.05,-1149.5 935.95,-1149.5"/>
</g>
<!-- C&#45;0142 -->
<g id="node65" class="node">
<title>C&#45;0142</title>
<ellipse fill="mediumseagreen" stroke="black" cx="1435" cy="-1132.5" rx="72" ry="21.5"/>
<text text-anchor="middle" x="1435" y="-1130" font-family="Arial" font-size="10.00">C&#45;0142</text>
</g>
<!-- C&#45;0385&#45;&gt;C&#45;0142 -->
<g id="edge24" class="edge">
<title>C&#45;0385&#45;&gt;C&#45;0142</title>
<path fill="none" stroke="#4d4d4d" d="M1210.33,-1220.76C1210.33,-1205.8 1210.33,-1183 1210.33,-1183 1210.33,-1183 1383.5,-1183 1383.5,-1183 1383.5,-1183 1383.5,-1154.65 1383.5,-1154.65"/>
<polygon fill="#4d4d4d" stroke="#4d4d4d" points="1385.95,-1154.65 1383.5,-1147.65 1381.05,-1154.65 1385.95,-1154.65"/>
</g>
<!-- C&#45;0903 -->
<g id="node26" class="node">
<title>C&#45;0903</title>
<ellipse fill="tomato" stroke="black" cx="1511" cy="-324.5" rx="72" ry="21.5"/>
<text text-anchor="middle" x="1511" y="-322" font-family="Arial" font-size="10.00">C&#45;0903</text>
</g>
<!-- S&#45;551 -->
<g id="node47" class="node">
<title>S&#45;551</title>
<polygon fill="mediumseagreen" stroke="black" points="1691,-649 1619,-627.5 1691,-606 1763,-627.5 1691,-649"/>
<text text-anchor="middle" x="1691" y="-625" font-family="Arial" font-size="10.00">S&#45;551</text>
</g>
<!-- C&#45;0903&#45;&gt;S&#45;551 -->
<g id="edge70" class="edge">
<title>C&#45;0903&#45;&gt;S&#45;551</title>
<path fill="none" stroke="blue" stroke-dasharray="5,2" d="M1583.22,-324C1593.68,-324 1601,-324 1601,-324 1601,-324 1601,-627 1601,-627 1601,-627 1613.53,-627 1613.53,-627"/>
<polygon fill="blue" stroke="blue" points="1613.53,-629.45 1620.53,-627 1613.53,-624.55 1613.53,-629.45"/>
</g>
<!-- S&#45;1840 -->
<g id="node27" class="node">
<title>S&#45;1840</title>
<polygon fill="tomato" stroke="black" points="895,-1053 823,-1031.5 895,-1010 967,-1031.5 895,-1053"/>
<text text-anchor="middle" x="895" y="-1029" font-family="Arial" font-size="10.00">S&#45;1840</text>
</g>
<!-- C&#45;0961 -->
<g id="node34" class="node">
<title>C&#45;0961</title>
<ellipse fill="tomato" stroke="black" cx="1061" cy="-728.5" rx="72" ry="21.5"/>
<text text-anchor="middle" x="1061" y="-726" font-family="Arial" font-size="10.00">C&#45;0961</text>
</g>
<!-- S&#45;1840&#45;&gt;C&#45;0961 -->
<g id="edge67" class="edge">
<title>S&#45;1840&#45;&gt;C&#45;0961</title>
<path fill="none" stroke="blue" stroke-dasharray="5,2" d="M941.95,-1024C968.33,-1024 996,-1024 996,-1024 996,-1024 996,-745 996,-745"/>
<polygon fill="blue" stroke="blue" points="998.45,-745 996,-738 993.55,-745 998.45,-745"/>
</g>
<!-- S&#45;1229 -->
<g id="node29" class="node">
<title>S&#45;1229</title>
<polygon fill="mediumseagreen" stroke="black" points="162,-2063 90,-2041.5 162,-2020 234,-2041.5 162,-2063"/>
<text text-anchor="middle" x="162" y="-2039" font-family="Arial" font-size="10.00">S&#45;1229</text>
</g>
<!-- S&#45;259 -->
<g id="node30" class="node">
<title>S&#45;259</title>
<polygon fill="mediumseagreen" stroke="black" points="342,-2063 270,-2041.5 342,-2020 414,-2041.5 342,-2063"/>
<text text-anchor="middle" x="342" y="-2039" font-family="Arial" font-size="10.00">S&#45;259</text>
</g>
<!-- C&#45;0198 -->
<g id="node31" class="node">
<title>C&#45;0198</title>
<ellipse fill="mediumseagreen" stroke="black" cx="792" cy="-1637.5" rx="72" ry="21.5"/>
<text text-anchor="middle" x="792" y="-1635" font-family="Arial" font-size="10.00">C&#45;0198</text>
</g>
<!-- C&#45;0198&#45;&gt;S&#45;1913 -->
<g id="edge10" class="edge">
<title>C&#45;0198&#45;&gt;S&#45;1913</title>
<path fill="none" stroke="#4d4d4d" d="M792,-1615.58C792,-1615.58 792,-1565.03 792,-1565.03"/>
<polygon fill="#4d4d4d" stroke="#4d4d4d" points="794.45,-1565.03 792,-1558.03 789.55,-1565.03 794.45,-1565.03"/>
</g>
<!-- C&#45;0866 -->
<g id="node32" class="node">
<title>C&#45;0866</title>
<ellipse fill="mediumseagreen" stroke="black" cx="702" cy="-1940.5" rx="72" ry="21.5"/>
<text text-anchor="middle" x="702" y="-1938" font-family="Arial" font-size="10.00">C&#45;0866</text>
</g>
<!-- R&#45;199 -->
<g id="node35" class="node">
<title>R&#45;199</title>
<polygon fill="mediumseagreen" stroke="black" points="774,-1830.59 774,-1848.41 731.82,-1861 672.18,-1861 630,-1848.41 630,-1830.59 672.18,-1818 731.82,-1818 774,-1830.59"/>
<text text-anchor="middle" x="702" y="-1837" font-family="Arial" font-size="10.00">R&#45;199</text>
</g>
<!-- C&#45;0866&#45;&gt;R&#45;199 -->
<g id="edge7" class="edge">
<title>C&#45;0866&#45;&gt;R&#45;199</title>
<path fill="none" stroke="#4d4d4d" d="M702,-1918.58C702,-1918.58 702,-1868.03 702,-1868.03"/>
<polygon fill="#4d4d4d" stroke="#4d4d4d" points="704.45,-1868.03 702,-1861.03 699.55,-1868.03 704.45,-1868.03"/>
</g>
<!-- SR&#45;0016 -->
<g id="node33" class="node">
<title>SR&#45;0016</title>
<polygon fill="mediumseagreen" stroke="black" points="1332,-1356 1260,-1334.5 1332,-1313 1404,-1334.5 1332,-1356"/>
<text text-anchor="middle" x="1332" y="-1332" font-family="Arial" font-size="10.00">SR&#45;0016</text>
</g>
<!-- S&#45;180 -->
<g id="node49" class="node">
<title>S&#45;180</title>
<polygon fill="mediumseagreen" stroke="black" points="1332,-1255 1260,-1233.5 1332,-1212 1404,-1233.5 1332,-1255"/>
<text text-anchor="middle" x="1332" y="-1231" font-family="Arial" font-size="10.00">S&#45;180</text>
</g>
<!-- SR&#45;0016&#45;&gt;S&#45;180 -->
<g id="edge56" class="edge">
<title>SR&#45;0016&#45;&gt;S&#45;180</title>
<path fill="none" stroke="#4d4d4d" d="M1332,-1312.58C1332,-1312.58 1332,-1262.03 1332,-1262.03"/>
<polygon fill="#4d4d4d" stroke="#4d4d4d" points="1334.45,-1262.03 1332,-1255.03 1329.55,-1262.03 1334.45,-1262.03"/>
</g>
<!-- C&#45;0961&#45;&gt;C&#45;0962 -->
<g id="edge71" class="edge">
<title>C&#45;0961&#45;&gt;C&#45;0962</title>
<path fill="none" stroke="blue" stroke-dasharray="5,2" d="M1133.02,-728C1147.31,-728 1158,-728 1158,-728 1158,-728 1158,-1031 1158,-1031 1158,-1031 1175.98,-1031 1175.98,-1031"/>
<polygon fill="blue" stroke="blue" points="1175.98,-1033.45 1182.98,-1031 1175.98,-1028.55 1175.98,-1033.45"/>
</g>
<!-- R&#45;199&#45;&gt;C&#45;0868 -->
<g id="edge8" class="edge">
<title>R&#45;199&#45;&gt;C&#45;0868</title>
<path fill="none" stroke="#4d4d4d" d="M726,-1817.58C726,-1817.58 726,-1766 726,-1766"/>
<polygon fill="#4d4d4d" stroke="#4d4d4d" points="728.45,-1766 726,-1759 723.55,-1766 728.45,-1766"/>
</g>
<!-- C&#45;0904 -->
<g id="node36" class="node">
<title>C&#45;0904</title>
<ellipse fill="mediumseagreen" stroke="black" cx="1511" cy="-627.5" rx="72" ry="21.5"/>
<text text-anchor="middle" x="1511" y="-625" font-family="Arial" font-size="10.00">C&#45;0904</text>
</g>
<!-- C&#45;0904&#45;&gt;R&#45;210 -->
<g id="edge33" class="edge">
<title>C&#45;0904&#45;&gt;R&#45;210</title>
<path fill="none" stroke="#4d4d4d" d="M1511,-605.58C1511,-605.58 1511,-555.03 1511,-555.03"/>
<polygon fill="#4d4d4d" stroke="#4d4d4d" points="1513.45,-555.03 1511,-548.03 1508.55,-555.03 1513.45,-555.03"/>
</g>
<!-- R&#45;268&#45;&gt;ext_circ_307_24_ -->
<g id="edge72" class="edge">
<title>R&#45;268&#45;&gt;ext_circ_307_24_</title>
<path fill="none" stroke="darkorange" stroke-dasharray="5,2" d="M477,-1822.37C477,-1822.37 477,-1767.31 477,-1767.31"/>
<polygon fill="darkorange" stroke="darkorange" points="479.45,-1767.31 477,-1760.31 474.55,-1767.31 479.45,-1767.31"/>
</g>
<!-- C&#45;0960 -->
<g id="node61" class="node">
<title>C&#45;0960</title>
<ellipse fill="mediumseagreen" stroke="black" cx="1241" cy="-829.5" rx="72" ry="21.5"/>
<text text-anchor="middle" x="1241" y="-827" font-family="Arial" font-size="10.00">C&#45;0960</text>
</g>
<!-- R&#45;227&#45;&gt;C&#45;0960 -->
<g id="edge46" class="edge">
<title>R&#45;227&#45;&gt;C&#45;0960</title>
<path fill="none" stroke="#4d4d4d" d="M1248,-908.58C1248,-908.58 1248,-858.03 1248,-858.03"/>
<polygon fill="#4d4d4d" stroke="#4d4d4d" points="1250.45,-858.03 1248,-851.03 1245.55,-858.03 1250.45,-858.03"/>
</g>
<!-- S&#45;559 -->
<g id="node39" class="node">
<title>S&#45;559</title>
<polygon fill="mediumseagreen" stroke="black" points="1421,-750 1349,-728.5 1421,-707 1493,-728.5 1421,-750"/>
<text text-anchor="middle" x="1421" y="-726" font-family="Arial" font-size="10.00">S&#45;559</text>
</g>
<!-- S&#45;553 -->
<g id="node40" class="node">
<title>S&#45;553</title>
<polygon fill="mediumseagreen" stroke="black" points="1691,-346 1619,-324.5 1691,-303 1763,-324.5 1691,-346"/>
<text text-anchor="middle" x="1691" y="-322" font-family="Arial" font-size="10.00">S&#45;553</text>
</g>
<!-- S&#45;553&#45;&gt;S&#45;556 -->
<g id="edge38" class="edge">
<title>S&#45;553&#45;&gt;S&#45;556</title>
<path fill="none" stroke="#4d4d4d" d="M1691,-302.58C1691,-302.58 1691,-252.03 1691,-252.03"/>
<polygon fill="#4d4d4d" stroke="#4d4d4d" points="1693.45,-252.03 1691,-245.03 1688.55,-252.03 1693.45,-252.03"/>
</g>
<!-- S&#45;555 -->
<g id="node42" class="node">
<title>S&#45;555</title>
<polygon fill="mediumseagreen" stroke="black" points="1601,-750 1529,-728.5 1601,-707 1673,-728.5 1601,-750"/>
<text text-anchor="middle" x="1601" y="-726" font-family="Arial" font-size="10.00">S&#45;555</text>
</g>
<!-- S&#45;555&#45;&gt;C&#45;0904 -->
<g id="edge32" class="edge">
<title>S&#45;555&#45;&gt;C&#45;0904</title>
<path fill="none" stroke="#4d4d4d" d="M1556,-720.23C1556,-720.23 1556,-651.52 1556,-651.52"/>
<polygon fill="#4d4d4d" stroke="#4d4d4d" points="1558.45,-651.52 1556,-644.52 1553.55,-651.52 1558.45,-651.52"/>
</g>
<!-- S&#45;555&#45;&gt;S&#45;551 -->
<g id="edge31" class="edge">
<title>S&#45;555&#45;&gt;S&#45;551</title>
<path fill="none" stroke="#4d4d4d" d="M1646,-720.23C1646,-720.23 1646,-642.6 1646,-642.6"/>
<polygon fill="#4d4d4d" stroke="#4d4d4d" points="1648.45,-642.6 1646,-635.6 1643.55,-642.6 1648.45,-642.6"/>
</g>
<!-- C&#45;0384&#45;&gt;R&#45;129 -->
<g id="edge17" class="edge">
<title>C&#45;0384&#45;&gt;R&#45;129</title>
<path fill="none" stroke="#4d4d4d" d="M1152,-1413.58C1152,-1413.58 1152,-1363.03 1152,-1363.03"/>
<polygon fill="#4d4d4d" stroke="#4d4d4d" points="1154.45,-1363.03 1152,-1356.03 1149.55,-1363.03 1154.45,-1363.03"/>
</g>
<!-- S&#45;181&#45;&gt;SR&#45;0016 -->
<g id="edge55" class="edge">
<title>S&#45;181&#45;&gt;SR&#45;0016</title>
<path fill="none" stroke="#4d4d4d" d="M1332,-1413.58C1332,-1413.58 1332,-1363.03 1332,-1363.03"/>
<polygon fill="#4d4d4d" stroke="#4d4d4d" points="1334.45,-1363.03 1332,-1356.03 1329.55,-1363.03 1334.45,-1363.03"/>
</g>
<!-- S&#45;1565 -->
<g id="node45" class="node">
<title>S&#45;1565</title>
<polygon fill="mediumseagreen" stroke="black" points="1512,-1356 1440,-1334.5 1512,-1313 1584,-1334.5 1512,-1356"/>
<text text-anchor="middle" x="1512" y="-1332" font-family="Arial" font-size="10.00">S&#45;1565</text>
</g>
<!-- S&#45;181&#45;&gt;S&#45;1565 -->
<g id="edge57" class="edge">
<title>S&#45;181&#45;&gt;S&#45;1565</title>
<path fill="none" stroke="#4d4d4d" d="M1402.47,-1435C1413.86,-1435 1422,-1435 1422,-1435 1422,-1435 1422,-1334 1422,-1334 1422,-1334 1434.53,-1334 1434.53,-1334"/>
<polygon fill="#4d4d4d" stroke="#4d4d4d" points="1434.53,-1336.45 1441.53,-1334 1434.53,-1331.55 1434.53,-1336.45"/>
</g>
<!-- S&#45;1565&#45;&gt;S&#45;2394 -->
<g id="edge58" class="edge">
<title>S&#45;1565&#45;&gt;S&#45;2394</title>
<path fill="none" stroke="#4d4d4d" d="M1512,-1312.58C1512,-1312.58 1512,-1262.03 1512,-1262.03"/>
<polygon fill="#4d4d4d" stroke="#4d4d4d" points="1514.45,-1262.03 1512,-1255.03 1509.55,-1262.03 1514.45,-1262.03"/>
</g>
<!-- S&#45;554 -->
<g id="node46" class="node">
<title>S&#45;554</title>
<polygon fill="mediumseagreen" stroke="black" points="1781,-750 1709,-728.5 1781,-707 1853,-728.5 1781,-750"/>
<text text-anchor="middle" x="1781" y="-726" font-family="Arial" font-size="10.00">S&#45;554</text>
</g>
<!-- C&#45;0721 -->
<g id="node50" class="node">
<title>C&#45;0721</title>
<ellipse fill="tomato" stroke="black" cx="1615" cy="-1031.5" rx="72" ry="21.5"/>
<text text-anchor="middle" x="1615" y="-1029" font-family="Arial" font-size="10.00">C&#45;0721</text>
</g>
<!-- C&#45;0721&#45;&gt;C&#45;0720 -->
<g id="edge69" class="edge">
<title>C&#45;0721&#45;&gt;C&#45;0720</title>
<path fill="none" stroke="blue" stroke-dasharray="5,2" d="M1646.5,-1012.13C1646.5,-1012.13 1646.5,-853.22 1646.5,-853.22"/>
<polygon fill="blue" stroke="blue" points="1648.95,-853.22 1646.5,-846.22 1644.05,-853.22 1648.95,-853.22"/>
</g>
<!-- C&#45;0868&#45;&gt;S&#45;1566 -->
<g id="edge60" class="edge">
<title>C&#45;0868&#45;&gt;S&#45;1566</title>
<path fill="none" stroke="#4d4d4d" d="M657,-1721.37C657,-1721.37 657,-1652.78 657,-1652.78"/>
<polygon fill="#4d4d4d" stroke="#4d4d4d" points="659.45,-1652.78 657,-1645.78 654.55,-1652.78 659.45,-1652.78"/>
</g>
<!-- C&#45;0868&#45;&gt;C&#45;0198 -->
<g id="edge9" class="edge">
<title>C&#45;0868&#45;&gt;C&#45;0198</title>
<path fill="none" stroke="#4d4d4d" d="M747,-1721.37C747,-1721.37 747,-1661.38 747,-1661.38"/>
<polygon fill="#4d4d4d" stroke="#4d4d4d" points="749.45,-1661.38 747,-1654.38 744.55,-1661.38 749.45,-1661.38"/>
</g>
<!-- C&#45;0192 -->
<g id="node52" class="node">
<title>C&#45;0192</title>
<ellipse fill="mediumseagreen" stroke="black" cx="522" cy="-2041.5" rx="72" ry="21.5"/>
<text text-anchor="middle" x="522" y="-2039" font-family="Arial" font-size="10.00">C&#45;0192</text>
</g>
<!-- C&#45;0192&#45;&gt;C&#45;0867 -->
<g id="edge5" class="edge">
<title>C&#45;0192&#45;&gt;C&#45;0867</title>
<path fill="none" stroke="#4d4d4d" d="M453.19,-2048C439.2,-2048 428.67,-2048 428.67,-2048 428.67,-2048 428.67,-1940 428.67,-1940 428.67,-1940 347.34,-1940 347.34,-1940"/>
<polygon fill="#4d4d4d" stroke="#4d4d4d" points="347.34,-1937.55 340.34,-1940 347.34,-1942.45 347.34,-1937.55"/>
</g>
<!-- C&#45;0192&#45;&gt;C&#45;0038 -->
<g id="edge63" class="edge">
<title>C&#45;0192&#45;&gt;C&#45;0038</title>
<path fill="none" stroke="#4d4d4d" d="M454.5,-2034C445.51,-2034 439.33,-2034 439.33,-2034 439.33,-2034 439.33,-1839 439.33,-1839 439.33,-1839 421.01,-1839 421.01,-1839"/>
<polygon fill="#4d4d4d" stroke="#4d4d4d" points="421.01,-1836.55 414.01,-1839 421.01,-1841.45 421.01,-1836.55"/>
</g>
<!-- C&#45;0192&#45;&gt;C&#45;1090 -->
<g id="edge61" class="edge">
<title>C&#45;0192&#45;&gt;C&#45;1090</title>
<path fill="none" stroke="#4d4d4d" d="M522,-2019.58C522,-2019.58 522,-1969.03 522,-1969.03"/>
<polygon fill="#4d4d4d" stroke="#4d4d4d" points="524.45,-1969.03 522,-1962.03 519.55,-1969.03 524.45,-1969.03"/>
</g>
<!-- C&#45;0192&#45;&gt;C&#45;0866 -->
<g id="edge6" class="edge">
<title>C&#45;0192&#45;&gt;C&#45;0866</title>
<path fill="none" stroke="#4d4d4d" d="M589.54,-2034C640.61,-2034 702,-2034 702,-2034 702,-2034 702,-1969.19 702,-1969.19"/>
<polygon fill="#4d4d4d" stroke="#4d4d4d" points="704.45,-1969.19 702,-1962.19 699.55,-1969.19 704.45,-1969.19"/>
</g>
<!-- S&#45;1564 -->
<g id="node63" class="node">
<title>S&#45;1564</title>
<polygon fill="mediumseagreen" stroke="black" points="882,-1962 810,-1940.5 882,-1919 954,-1940.5 882,-1962"/>
<text text-anchor="middle" x="882" y="-1938" font-family="Arial" font-size="10.00">S&#45;1564</text>
</g>
<!-- C&#45;0192&#45;&gt;S&#45;1564 -->
<g id="edge4" class="edge">
<title>C&#45;0192&#45;&gt;S&#45;1564</title>
<path fill="none" stroke="#4d4d4d" d="M590.99,-2048C695.52,-2048 882,-2048 882,-2048 882,-2048 882,-1969.25 882,-1969.25"/>
<polygon fill="#4d4d4d" stroke="#4d4d4d" points="884.45,-1969.25 882,-1962.25 879.55,-1969.25 884.45,-1969.25"/>
</g>
<!-- S&#45;1841&#45;&gt;S&#45;2533 -->
<g id="edge22" class="edge">
<title>S&#45;1841&#45;&gt;S&#45;2533</title>
<path fill="none" stroke="#4d4d4d" d="M847.88,-1125C806.72,-1125 753.5,-1125 753.5,-1125 753.5,-1125 753.5,-1048.51 753.5,-1048.51"/>
<polygon fill="#4d4d4d" stroke="#4d4d4d" points="755.95,-1048.51 753.5,-1041.51 751.05,-1048.51 755.95,-1048.51"/>
</g>
<!-- S&#45;1841&#45;&gt;S&#45;1840 -->
<g id="edge20" class="edge">
<title>S&#45;1841&#45;&gt;S&#45;1840</title>
<path fill="none" stroke="#4d4d4d" d="M895,-1110.58C895,-1110.58 895,-1060.03 895,-1060.03"/>
<polygon fill="#4d4d4d" stroke="#4d4d4d" points="897.45,-1060.03 895,-1053.03 892.55,-1060.03 897.45,-1060.03"/>
</g>
<!-- R&#45;081 -->
<g id="node54" class="node">
<title>R&#45;081</title>
<polygon fill="tomato" stroke="black" points="1147,-1022.59 1147,-1040.41 1104.82,-1053 1045.18,-1053 1003,-1040.41 1003,-1022.59 1045.18,-1010 1104.82,-1010 1147,-1022.59"/>
<text text-anchor="middle" x="1075" y="-1029" font-family="Arial" font-size="10.00">R&#45;081</text>
</g>
<!-- S&#45;1841&#45;&gt;R&#45;081 -->
<g id="edge21" class="edge">
<title>S&#45;1841&#45;&gt;R&#45;081</title>
<path fill="none" stroke="#4d4d4d" d="M965.39,-1132C972.97,-1132 978,-1132 978,-1132 978,-1132 978,-1038 978,-1038 978,-1038 995.98,-1038 995.98,-1038"/>
<polygon fill="#4d4d4d" stroke="#4d4d4d" points="995.98,-1040.45 1002.98,-1038 995.98,-1035.55 995.98,-1040.45"/>
</g>
<!-- ext_circ_307_25_ -->
<g id="node66" class="node">
<title>ext_circ_307_25_</title>
<polygon fill="lightpink" stroke="darkorange" stroke-dasharray="5,2" points="1147,-952 1003,-952 1003,-909 1147,-909 1147,-952"/>
<text text-anchor="middle" x="1075" y="-933.5" font-family="Arial" font-size="10.00">Circuito:</text>
<text text-anchor="middle" x="1075" y="-922.5" font-family="Arial" font-size="10.00">307&#45;25&#45;</text>
</g>
<!-- R&#45;081&#45;&gt;ext_circ_307_25_ -->
<g id="edge68" class="edge">
<title>R&#45;081&#45;&gt;ext_circ_307_25_</title>
<path fill="none" stroke="darkorange" stroke-dasharray="5,2" d="M1075,-1009.58C1075,-1009.58 1075,-959.03 1075,-959.03"/>
<polygon fill="darkorange" stroke="darkorange" points="1077.45,-959.03 1075,-952.03 1072.55,-959.03 1077.45,-959.03"/>
</g>
<!-- C&#45;0082 -->
<g id="node55" class="node">
<title>C&#45;0082</title>
<ellipse fill="mediumseagreen" stroke="black" cx="342" cy="-2142.5" rx="72" ry="21.5"/>
<text text-anchor="middle" x="342" y="-2140" font-family="Arial" font-size="10.00">C&#45;0082</text>
</g>
<!-- C&#45;0082&#45;&gt;S&#45;1229 -->
<g id="edge2" class="edge">
<title>C&#45;0082&#45;&gt;S&#45;1229</title>
<path fill="none" stroke="#4d4d4d" d="M269.82,-2142C219.75,-2142 162,-2142 162,-2142 162,-2142 162,-2070.31 162,-2070.31"/>
<polygon fill="#4d4d4d" stroke="#4d4d4d" points="164.45,-2070.31 162,-2063.31 159.55,-2070.31 164.45,-2070.31"/>
</g>
<!-- C&#45;0082&#45;&gt;S&#45;259 -->
<g id="edge64" class="edge">
<title>C&#45;0082&#45;&gt;S&#45;259</title>
<path fill="none" stroke="#4d4d4d" d="M342,-2120.58C342,-2120.58 342,-2070.03 342,-2070.03"/>
<polygon fill="#4d4d4d" stroke="#4d4d4d" points="344.45,-2070.03 342,-2063.03 339.55,-2070.03 344.45,-2070.03"/>
</g>
<!-- C&#45;0082&#45;&gt;C&#45;0192 -->
<g id="edge3" class="edge">
<title>C&#45;0082&#45;&gt;C&#45;0192</title>
<path fill="none" stroke="#4d4d4d" d="M414.18,-2142C464.25,-2142 522,-2142 522,-2142 522,-2142 522,-2070.31 522,-2070.31"/>
<polygon fill="#4d4d4d" stroke="#4d4d4d" points="524.45,-2070.31 522,-2063.31 519.55,-2070.31 524.45,-2070.31"/>
</g>
<!-- S&#45;2148 -->
<g id="node59" class="node">
<title>S&#45;2148</title>
<polygon fill="mediumseagreen" stroke="black" points="1241,-447 1169,-425.5 1241,-404 1313,-425.5 1241,-447"/>
<text text-anchor="middle" x="1241" y="-423" font-family="Arial" font-size="10.00">S&#45;2148</text>
</g>
<!-- S&#45;2147&#45;&gt;S&#45;2148 -->
<g id="edge51" class="edge">
<title>S&#45;2147&#45;&gt;S&#45;2148</title>
<path fill="none" stroke="#4d4d4d" d="M1241,-504.58C1241,-504.58 1241,-454.03 1241,-454.03"/>
<polygon fill="#4d4d4d" stroke="#4d4d4d" points="1243.45,-454.03 1241,-447.03 1238.55,-454.03 1243.45,-454.03"/>
</g>
<!-- S&#45;2027 -->
<g id="node57" class="node">
<title>S&#45;2027</title>
<polygon fill="mediumseagreen" stroke="black" points="1961,-750 1889,-728.5 1961,-707 2033,-728.5 1961,-750"/>
<text text-anchor="middle" x="1961" y="-726" font-family="Arial" font-size="10.00">S&#45;2027</text>
</g>
<!-- S&#45;2027&#45;&gt;S&#45;2128 -->
<g id="edge43" class="edge">
<title>S&#45;2027&#45;&gt;S&#45;2128</title>
<path fill="none" stroke="#4d4d4d" d="M1961,-706.58C1961,-706.58 1961,-656.03 1961,-656.03"/>
<polygon fill="#4d4d4d" stroke="#4d4d4d" points="1963.45,-656.03 1961,-649.03 1958.55,-656.03 1963.45,-656.03"/>
</g>
<!-- C&#45;0720&#45;&gt;S&#45;559 -->
<g id="edge29" class="edge">
<title>C&#45;0720&#45;&gt;S&#45;559</title>
<path fill="none" stroke="#4d4d4d" d="M1528.88,-829C1505.04,-829 1484.5,-829 1484.5,-829 1484.5,-829 1484.5,-738.4 1484.5,-738.4"/>
<polygon fill="#4d4d4d" stroke="#4d4d4d" points="1486.95,-738.4 1484.5,-731.4 1482.05,-738.4 1486.95,-738.4"/>
</g>
<!-- C&#45;0720&#45;&gt;S&#45;555 -->
<g id="edge30" class="edge">
<title>C&#45;0720&#45;&gt;S&#45;555</title>
<path fill="none" stroke="#4d4d4d" d="M1601,-807.58C1601,-807.58 1601,-757.03 1601,-757.03"/>
<polygon fill="#4d4d4d" stroke="#4d4d4d" points="1603.45,-757.03 1601,-750.03 1598.55,-757.03 1603.45,-757.03"/>
</g>
<!-- C&#45;0720&#45;&gt;S&#45;554 -->
<g id="edge41" class="edge">
<title>C&#45;0720&#45;&gt;S&#45;554</title>
<path fill="none" stroke="#4d4d4d" d="M1668.54,-822C1719.61,-822 1781,-822 1781,-822 1781,-822 1781,-757.19 1781,-757.19"/>
<polygon fill="#4d4d4d" stroke="#4d4d4d" points="1783.45,-757.19 1781,-750.19 1778.55,-757.19 1783.45,-757.19"/>
</g>
<!-- C&#45;0720&#45;&gt;S&#45;2027 -->
<g id="edge42" class="edge">
<title>C&#45;0720&#45;&gt;S&#45;2027</title>
<path fill="none" stroke="#4d4d4d" d="M1669.99,-836C1774.52,-836 1961,-836 1961,-836 1961,-836 1961,-757.25 1961,-757.25"/>
<polygon fill="#4d4d4d" stroke="#4d4d4d" points="1963.45,-757.25 1961,-750.25 1958.55,-757.25 1963.45,-757.25"/>
</g>
<!-- C&#45;0960&#45;&gt;S&#45;308 -->
<g id="edge48" class="edge">
<title>C&#45;0960&#45;&gt;S&#45;308</title>
<path fill="none" stroke="#4d4d4d" d="M1241,-807.58C1241,-807.58 1241,-757.03 1241,-757.03"/>
<polygon fill="#4d4d4d" stroke="#4d4d4d" points="1243.45,-757.03 1241,-750.03 1238.55,-757.03 1243.45,-757.03"/>
</g>
<!-- C&#45;0960&#45;&gt;C&#45;0961 -->
<g id="edge47" class="edge">
<title>C&#45;0960&#45;&gt;C&#45;0961</title>
<path fill="none" stroke="#4d4d4d" d="M1168.89,-829C1121.42,-829 1068,-829 1068,-829 1068,-829 1068,-757.31 1068,-757.31"/>
<polygon fill="#4d4d4d" stroke="#4d4d4d" points="1070.45,-757.31 1068,-750.31 1065.55,-757.31 1070.45,-757.31"/>
</g>
<!-- C&#45;0902&#45;&gt;S&#45;1568 -->
<g id="edge36" class="edge">
<title>C&#45;0902&#45;&gt;S&#45;1568</title>
<path fill="none" stroke="#4d4d4d" d="M1438.76,-425C1406.66,-425 1376,-425 1376,-425 1376,-425 1376,-339.72 1376,-339.72"/>
<polygon fill="#4d4d4d" stroke="#4d4d4d" points="1378.45,-339.72 1376,-332.72 1373.55,-339.72 1378.45,-339.72"/>
</g>
<!-- C&#45;0902&#45;&gt;C&#45;0903 -->
<g id="edge35" class="edge">
<title>C&#45;0902&#45;&gt;C&#45;0903</title>
<path fill="none" stroke="#4d4d4d" d="M1511,-403.58C1511,-403.58 1511,-353.03 1511,-353.03"/>
<polygon fill="#4d4d4d" stroke="#4d4d4d" points="1513.45,-353.03 1511,-346.03 1508.55,-353.03 1513.45,-353.03"/>
</g>
<!-- C&#45;0902&#45;&gt;S&#45;553 -->
<g id="edge37" class="edge">
<title>C&#45;0902&#45;&gt;S&#45;553</title>
<path fill="none" stroke="#4d4d4d" d="M1583.18,-425C1633.25,-425 1691,-425 1691,-425 1691,-425 1691,-353.31 1691,-353.31"/>
<polygon fill="#4d4d4d" stroke="#4d4d4d" points="1693.45,-353.31 1691,-346.31 1688.55,-353.31 1693.45,-353.31"/>
</g>
<!-- 307&#45;22&#45; -->
<g id="node64" class="node">
<title>307&#45;22&#45;</title>
<polygon fill="gold" stroke="black" points="414,-2238.59 414,-2256.41 371.82,-2269 312.18,-2269 270,-2256.41 270,-2238.59 312.18,-2226 371.82,-2226 414,-2238.59"/>
<polygon fill="none" stroke="black" points="418,-2235.61 418,-2259.39 372.41,-2273 311.59,-2273 266,-2259.39 266,-2235.61 311.59,-2222 372.41,-2222 418,-2235.61"/>
<text text-anchor="middle" x="342" y="-2245" font-family="Arial" font-size="10.00">307&#45;22&#45;</text>
</g>
<!-- 307&#45;22&#45;&#45;&gt;C&#45;0082 -->
<g id="edge1" class="edge">
<title>307&#45;22&#45;&#45;&gt;C&#45;0082</title>
<path fill="none" stroke="#4d4d4d" d="M342,-2221.81C342,-2221.81 342,-2171.03 342,-2171.03"/>
<polygon fill="#4d4d4d" stroke="#4d4d4d" points="344.45,-2171.03 342,-2164.03 339.55,-2171.03 344.45,-2171.03"/>
</g>
<!-- C&#45;0142&#45;&gt;C&#45;0962 -->
<g id="edge44" class="edge">
<title>C&#45;0142&#45;&gt;C&#45;0962</title>
<path fill="none" stroke="#4d4d4d" d="M1363.01,-1132C1358.66,-1132 1356,-1132 1356,-1132 1356,-1132 1356,-1031 1356,-1031 1356,-1031 1334.06,-1031 1334.06,-1031"/>
<polygon fill="#4d4d4d" stroke="#4d4d4d" points="1334.06,-1028.55 1327.06,-1031 1334.06,-1033.45 1334.06,-1028.55"/>
</g>
<!-- C&#45;0142&#45;&gt;C&#45;0719 -->
<g id="edge25" class="edge">
<title>C&#45;0142&#45;&gt;C&#45;0719</title>
<path fill="none" stroke="#4d4d4d" d="M1435,-1110.58C1435,-1110.58 1435,-1060.03 1435,-1060.03"/>
<polygon fill="#4d4d4d" stroke="#4d4d4d" points="1437.45,-1060.03 1435,-1053.03 1432.55,-1060.03 1437.45,-1060.03"/>
</g>
<!-- C&#45;0142&#45;&gt;C&#45;0721 -->
<g id="edge26" class="edge">
<title>C&#45;0142&#45;&gt;C&#45;0721</title>
<path fill="none" stroke="#4d4d4d" d="M1507.14,-1132C1536.43,-1132 1563.5,-1132 1563.5,-1132 1563.5,-1132 1563.5,-1053.76 1563.5,-1053.76"/>
<polygon fill="#4d4d4d" stroke="#4d4d4d" points="1565.95,-1053.76 1563.5,-1046.76 1561.05,-1053.76 1565.95,-1053.76"/>
</g>
</g>
</svg>
