<?xml version="1.0" encoding="UTF-8" standalone="no"?>
<!DOCTYPE svg PUBLIC "-//W3C//DTD SVG 1.1//EN"
 "http://www.w3.org/Graphics/SVG/1.1/DTD/svg11.dtd">
<!-- Generated by graphviz version 2.50.0 (0)
 -->
<!-- Title: Grafo_Circuito_205_24_ Pages: 1 -->
<svg width="2242pt" height="1473pt"
 viewBox="0.00 0.00 2242.00 1473.00" xmlns="http://www.w3.org/2000/svg" xmlns:xlink="http://www.w3.org/1999/xlink">
<g id="graph0" class="graph" transform="scale(1 1) rotate(0) translate(4 1469)">
<title>Grafo_Circuito_205_24_</title>
<polygon fill="white" stroke="transparent" points="-4,4 -4,-1469 2238,-1469 2238,4 -4,4"/>
<!-- C&#45;1172 -->
<g id="node1" class="node">
<title>C&#45;1172</title>
<ellipse fill="mediumseagreen" stroke="black" cx="1512" cy="-728.5" rx="72" ry="21.5"/>
<text text-anchor="middle" x="1512" y="-726" font-family="Arial" font-size="10.00">C&#45;1172</text>
</g>
<!-- S&#45;1771 -->
<g id="node52" class="node">
<title>S&#45;1771</title>
<polygon fill="mediumseagreen" stroke="black" points="1332,-649 1260,-627.5 1332,-606 1404,-627.5 1332,-649"/>
<text text-anchor="middle" x="1332" y="-625" font-family="Arial" font-size="10.00">S&#45;1771</text>
</g>
<!-- C&#45;1172&#45;&gt;S&#45;1771 -->
<g id="edge42" class="edge">
<title>C&#45;1172&#45;&gt;S&#45;1771</title>
<path fill="none" stroke="#4d4d4d" d="M1439.82,-728C1389.75,-728 1332,-728 1332,-728 1332,-728 1332,-656.31 1332,-656.31"/>
<polygon fill="#4d4d4d" stroke="#4d4d4d" points="1334.45,-656.31 1332,-649.31 1329.55,-656.31 1334.45,-656.31"/>
</g>
<!-- S&#45;1824 -->
<g id="node53" class="node">
<title>S&#45;1824</title>
<polygon fill="mediumseagreen" stroke="black" points="1512,-649 1440,-627.5 1512,-606 1584,-627.5 1512,-649"/>
<text text-anchor="middle" x="1512" y="-625" font-family="Arial" font-size="10.00">S&#45;1824</text>
</g>
<!-- C&#45;1172&#45;&gt;S&#45;1824 -->
<g id="edge41" class="edge">
<title>C&#45;1172&#45;&gt;S&#45;1824</title>
<path fill="none" stroke="#4d4d4d" d="M1512,-706.58C1512,-706.58 1512,-656.03 1512,-656.03"/>
<polygon fill="#4d4d4d" stroke="#4d4d4d" points="1514.45,-656.03 1512,-649.03 1509.55,-656.03 1514.45,-656.03"/>
</g>
<!-- S&#45;2020 -->
<g id="node58" class="node">
<title>S&#45;2020</title>
<polygon fill="mediumseagreen" stroke="black" points="1692,-649 1620,-627.5 1692,-606 1764,-627.5 1692,-649"/>
<text text-anchor="middle" x="1692" y="-625" font-family="Arial" font-size="10.00">S&#45;2020</text>
</g>
<!-- C&#45;1172&#45;&gt;S&#45;2020 -->
<g id="edge43" class="edge">
<title>C&#45;1172&#45;&gt;S&#45;2020</title>
<path fill="none" stroke="#4d4d4d" d="M1584.18,-728C1634.25,-728 1692,-728 1692,-728 1692,-728 1692,-656.31 1692,-656.31"/>
<polygon fill="#4d4d4d" stroke="#4d4d4d" points="1694.45,-656.31 1692,-649.31 1689.55,-656.31 1694.45,-656.31"/>
</g>
<!-- S&#45;1912 -->
<g id="node2" class="node">
<title>S&#45;1912</title>
<polygon fill="mediumseagreen" stroke="black" points="1442,-43 1370,-21.5 1442,0 1514,-21.5 1442,-43"/>
<text text-anchor="middle" x="1442" y="-19" font-family="Arial" font-size="10.00">S&#45;1912</text>
</g>
<!-- S&#45;2089 -->
<g id="node3" class="node">
<title>S&#45;2089</title>
<polygon fill="mediumseagreen" stroke="black" points="432,-1154 360,-1132.5 432,-1111 504,-1132.5 432,-1154"/>
<text text-anchor="middle" x="432" y="-1130" font-family="Arial" font-size="10.00">S&#45;2089</text>
</g>
<!-- S&#45;2504 -->
<g id="node48" class="node">
<title>S&#45;2504</title>
<polygon fill="mediumseagreen" stroke="black" points="252,-1053 180,-1031.5 252,-1010 324,-1031.5 252,-1053"/>
<text text-anchor="middle" x="252" y="-1029" font-family="Arial" font-size="10.00">S&#45;2504</text>
</g>
<!-- S&#45;2089&#45;&gt;S&#45;2504 -->
<g id="edge4" class="edge">
<title>S&#45;2089&#45;&gt;S&#45;2504</title>
<path fill="none" stroke="#4d4d4d" d="M361.63,-1132C311.15,-1132 252,-1132 252,-1132 252,-1132 252,-1060.31 252,-1060.31"/>
<polygon fill="#4d4d4d" stroke="#4d4d4d" points="254.45,-1060.31 252,-1053.31 249.55,-1060.31 254.45,-1060.31"/>
</g>
<!-- S&#45;1638 -->
<g id="node4" class="node">
<title>S&#45;1638</title>
<polygon fill="mediumseagreen" stroke="black" points="252,-649 180,-627.5 252,-606 324,-627.5 252,-649"/>
<text text-anchor="middle" x="252" y="-625" font-family="Arial" font-size="10.00">S&#45;1638</text>
</g>
<!-- S&#45;1338 -->
<g id="node5" class="node">
<title>S&#45;1338</title>
<polygon fill="mediumseagreen" stroke="black" points="72,-750 0,-728.5 72,-707 144,-728.5 72,-750"/>
<text text-anchor="middle" x="72" y="-726" font-family="Arial" font-size="10.00">S&#45;1338</text>
</g>
<!-- S&#45;898 -->
<g id="node6" class="node">
<title>S&#45;898</title>
<polygon fill="mediumseagreen" stroke="black" points="252,-750 180,-728.5 252,-707 324,-728.5 252,-750"/>
<text text-anchor="middle" x="252" y="-726" font-family="Arial" font-size="10.00">S&#45;898</text>
</g>
<!-- S&#45;963 -->
<g id="node7" class="node">
<title>S&#45;963</title>
<polygon fill="mediumseagreen" stroke="black" points="1622,-144 1550,-122.5 1622,-101 1694,-122.5 1622,-144"/>
<text text-anchor="middle" x="1622" y="-120" font-family="Arial" font-size="10.00">S&#45;963</text>
</g>
<!-- S&#45;963&#45;&gt;S&#45;1912 -->
<g id="edge54" class="edge">
<title>S&#45;963&#45;&gt;S&#45;1912</title>
<path fill="none" stroke="#4d4d4d" d="M1551.5,-122C1500.68,-122 1441,-122 1441,-122 1441,-122 1441,-49.81 1441,-49.81"/>
<polygon fill="#4d4d4d" stroke="#4d4d4d" points="1443.45,-49.81 1441,-42.81 1438.55,-49.81 1443.45,-49.81"/>
</g>
<!-- S&#45;1804 -->
<g id="node50" class="node">
<title>S&#45;1804</title>
<polygon fill="mediumseagreen" stroke="black" points="1622,-43 1550,-21.5 1622,0 1694,-21.5 1622,-43"/>
<text text-anchor="middle" x="1622" y="-19" font-family="Arial" font-size="10.00">S&#45;1804</text>
</g>
<!-- S&#45;963&#45;&gt;S&#45;1804 -->
<g id="edge53" class="edge">
<title>S&#45;963&#45;&gt;S&#45;1804</title>
<path fill="none" stroke="#4d4d4d" d="M1622,-100.58C1622,-100.58 1622,-50.03 1622,-50.03"/>
<polygon fill="#4d4d4d" stroke="#4d4d4d" points="1624.45,-50.03 1622,-43.03 1619.55,-50.03 1624.45,-50.03"/>
</g>
<!-- S&#45;2129 -->
<g id="node61" class="node">
<title>S&#45;2129</title>
<polygon fill="mediumseagreen" stroke="black" points="1802,-43 1730,-21.5 1802,0 1874,-21.5 1802,-43"/>
<text text-anchor="middle" x="1802" y="-19" font-family="Arial" font-size="10.00">S&#45;2129</text>
</g>
<!-- S&#45;963&#45;&gt;S&#45;2129 -->
<g id="edge55" class="edge">
<title>S&#45;963&#45;&gt;S&#45;2129</title>
<path fill="none" stroke="#4d4d4d" d="M1692.47,-122C1703.86,-122 1712,-122 1712,-122 1712,-122 1712,-21 1712,-21 1712,-21 1724.53,-21 1724.53,-21"/>
<polygon fill="#4d4d4d" stroke="#4d4d4d" points="1724.53,-23.45 1731.53,-21 1724.53,-18.55 1724.53,-23.45"/>
</g>
<!-- S&#45;1641 -->
<g id="node8" class="node">
<title>S&#45;1641</title>
<polygon fill="mediumseagreen" stroke="black" points="432,-750 360,-728.5 432,-707 504,-728.5 432,-750"/>
<text text-anchor="middle" x="432" y="-726" font-family="Arial" font-size="10.00">S&#45;1641</text>
</g>
<!-- S&#45;1812 -->
<g id="node9" class="node">
<title>S&#45;1812</title>
<polygon fill="mediumseagreen" stroke="black" points="432,-1053 360,-1031.5 432,-1010 504,-1031.5 432,-1053"/>
<text text-anchor="middle" x="432" y="-1029" font-family="Arial" font-size="10.00">S&#45;1812</text>
</g>
<!-- C&#45;0273 -->
<g id="node10" class="node">
<title>C&#45;0273</title>
<ellipse fill="mediumseagreen" stroke="black" cx="792" cy="-1132.5" rx="72" ry="21.5"/>
<text text-anchor="middle" x="792" y="-1130" font-family="Arial" font-size="10.00">C&#45;0273</text>
</g>
<!-- C&#45;0273&#45;&gt;S&#45;1812 -->
<g id="edge9" class="edge">
<title>C&#45;0273&#45;&gt;S&#45;1812</title>
<path fill="none" stroke="#4d4d4d" d="M723.17,-1139C643.17,-1139 522,-1139 522,-1139 522,-1139 522,-1031 522,-1031 522,-1031 509.47,-1031 509.47,-1031"/>
<polygon fill="#4d4d4d" stroke="#4d4d4d" points="509.47,-1028.55 502.47,-1031 509.47,-1033.45 509.47,-1028.55"/>
</g>
<!-- C&#45;0611 -->
<g id="node13" class="node">
<title>C&#45;0611</title>
<ellipse fill="mediumseagreen" stroke="black" cx="612" cy="-1031.5" rx="72" ry="21.5"/>
<text text-anchor="middle" x="612" y="-1029" font-family="Arial" font-size="10.00">C&#45;0611</text>
</g>
<!-- C&#45;0273&#45;&gt;C&#45;0611 -->
<g id="edge14" class="edge">
<title>C&#45;0273&#45;&gt;C&#45;0611</title>
<path fill="none" stroke="#4d4d4d" d="M724.46,-1125C673.39,-1125 612,-1125 612,-1125 612,-1125 612,-1060.19 612,-1060.19"/>
<polygon fill="#4d4d4d" stroke="#4d4d4d" points="614.45,-1060.19 612,-1053.19 609.55,-1060.19 614.45,-1060.19"/>
</g>
<!-- C&#45;0609 -->
<g id="node21" class="node">
<title>C&#45;0609</title>
<ellipse fill="tomato" stroke="black" cx="792" cy="-1031.5" rx="72" ry="21.5"/>
<text text-anchor="middle" x="792" y="-1029" font-family="Arial" font-size="10.00">C&#45;0609</text>
</g>
<!-- C&#45;0273&#45;&gt;C&#45;0609 -->
<g id="edge13" class="edge">
<title>C&#45;0273&#45;&gt;C&#45;0609</title>
<path fill="none" stroke="#4d4d4d" d="M756,-1113.5C756,-1113.5 756,-1057.41 756,-1057.41"/>
<polygon fill="#4d4d4d" stroke="#4d4d4d" points="758.45,-1057.41 756,-1050.41 753.55,-1057.41 758.45,-1057.41"/>
</g>
<!-- S&#45;1260 -->
<g id="node27" class="node">
<title>S&#45;1260</title>
<polygon fill="mediumseagreen" stroke="black" points="972,-1053 900,-1031.5 972,-1010 1044,-1031.5 972,-1053"/>
<text text-anchor="middle" x="972" y="-1029" font-family="Arial" font-size="10.00">S&#45;1260</text>
</g>
<!-- C&#45;0273&#45;&gt;S&#45;1260 -->
<g id="edge10" class="edge">
<title>C&#45;0273&#45;&gt;S&#45;1260</title>
<path fill="none" stroke="#4d4d4d" d="M864.19,-1132C869.31,-1132 872.5,-1132 872.5,-1132 872.5,-1132 872.5,-1031 872.5,-1031 872.5,-1031 894.55,-1031 894.55,-1031"/>
<polygon fill="#4d4d4d" stroke="#4d4d4d" points="894.55,-1033.45 901.55,-1031 894.55,-1028.55 894.55,-1033.45"/>
</g>
<!-- S&#45;519 -->
<g id="node38" class="node">
<title>S&#45;519</title>
<polygon fill="mediumseagreen" stroke="black" points="1152,-1053 1080,-1031.5 1152,-1010 1224,-1031.5 1152,-1053"/>
<text text-anchor="middle" x="1152" y="-1029" font-family="Arial" font-size="10.00">S&#45;519</text>
</g>
<!-- C&#45;0273&#45;&gt;S&#45;519 -->
<g id="edge8" class="edge">
<title>C&#45;0273&#45;&gt;S&#45;519</title>
<path fill="none" stroke="#4d4d4d" d="M792,-1111C792,-1093.61 792,-1072 792,-1072 792,-1072 1152,-1072 1152,-1072 1152,-1072 1152,-1060.17 1152,-1060.17"/>
<polygon fill="#4d4d4d" stroke="#4d4d4d" points="1154.45,-1060.17 1152,-1053.17 1149.55,-1060.17 1154.45,-1060.17"/>
</g>
<!-- S&#45;937 -->
<g id="node46" class="node">
<title>S&#45;937</title>
<polygon fill="mediumseagreen" stroke="black" points="1422,-1053 1350,-1031.5 1422,-1010 1494,-1031.5 1422,-1053"/>
<text text-anchor="middle" x="1422" y="-1029" font-family="Arial" font-size="10.00">S&#45;937</text>
</g>
<!-- C&#45;0273&#45;&gt;S&#45;937 -->
<g id="edge12" class="edge">
<title>C&#45;0273&#45;&gt;S&#45;937</title>
<path fill="none" stroke="#4d4d4d" d="M828,-1113.69C828,-1102.71 828,-1091 828,-1091 828,-1091 1422,-1091 1422,-1091 1422,-1091 1422,-1060.32 1422,-1060.32"/>
<polygon fill="#4d4d4d" stroke="#4d4d4d" points="1424.45,-1060.32 1422,-1053.32 1419.55,-1060.32 1424.45,-1060.32"/>
</g>
<!-- R&#45;169 -->
<g id="node11" class="node">
<title>R&#45;169</title>
<polygon fill="tomato" stroke="black" points="1512,-315.59 1512,-333.41 1469.82,-346 1410.18,-346 1368,-333.41 1368,-315.59 1410.18,-303 1469.82,-303 1512,-315.59"/>
<text text-anchor="middle" x="1440" y="-322" font-family="Arial" font-size="10.00">R&#45;169</text>
</g>
<!-- ext_circ_205_23_ -->
<g id="node63" class="node">
<title>ext_circ_205_23_</title>
<polygon fill="lightpink" stroke="darkorange" stroke-dasharray="5,2" points="1512,-245 1368,-245 1368,-202 1512,-202 1512,-245"/>
<text text-anchor="middle" x="1440" y="-226.5" font-family="Arial" font-size="10.00">Circuito:</text>
<text text-anchor="middle" x="1440" y="-215.5" font-family="Arial" font-size="10.00">205&#45;23&#45;</text>
</g>
<!-- R&#45;169&#45;&gt;ext_circ_205_23_ -->
<g id="edge66" class="edge">
<title>R&#45;169&#45;&gt;ext_circ_205_23_</title>
<path fill="none" stroke="darkorange" stroke-dasharray="5,2" d="M1440,-302.58C1440,-302.58 1440,-252.03 1440,-252.03"/>
<polygon fill="darkorange" stroke="darkorange" points="1442.45,-252.03 1440,-245.03 1437.55,-252.03 1442.45,-252.03"/>
</g>
<!-- S&#45;1657 -->
<g id="node12" class="node">
<title>S&#45;1657</title>
<polygon fill="mediumseagreen" stroke="black" points="1522,-548 1450,-526.5 1522,-505 1594,-526.5 1522,-548"/>
<text text-anchor="middle" x="1522" y="-524" font-family="Arial" font-size="10.00">S&#45;1657</text>
</g>
<!-- R&#45;096 -->
<g id="node31" class="node">
<title>R&#45;096</title>
<polygon fill="mediumseagreen" stroke="black" points="684,-921.59 684,-939.41 641.82,-952 582.18,-952 540,-939.41 540,-921.59 582.18,-909 641.82,-909 684,-921.59"/>
<text text-anchor="middle" x="612" y="-928" font-family="Arial" font-size="10.00">R&#45;096</text>
</g>
<!-- C&#45;0611&#45;&gt;R&#45;096 -->
<g id="edge15" class="edge">
<title>C&#45;0611&#45;&gt;R&#45;096</title>
<path fill="none" stroke="#4d4d4d" d="M612,-1009.58C612,-1009.58 612,-959.03 612,-959.03"/>
<polygon fill="#4d4d4d" stroke="#4d4d4d" points="614.45,-959.03 612,-952.03 609.55,-959.03 614.45,-959.03"/>
</g>
<!-- S&#45;1189 -->
<g id="node14" class="node">
<title>S&#45;1189</title>
<polygon fill="mediumseagreen" stroke="black" points="773,-548 701,-526.5 773,-505 845,-526.5 773,-548"/>
<text text-anchor="middle" x="773" y="-524" font-family="Arial" font-size="10.00">S&#45;1189</text>
</g>
<!-- C&#45;0355 -->
<g id="node15" class="node">
<title>C&#45;0355</title>
<ellipse fill="mediumseagreen" stroke="black" cx="1702" cy="-526.5" rx="72" ry="21.5"/>
<text text-anchor="middle" x="1702" y="-524" font-family="Arial" font-size="10.00">C&#45;0355</text>
</g>
<!-- C&#45;0771 -->
<g id="node16" class="node">
<title>C&#45;0771</title>
<ellipse fill="mediumseagreen" stroke="black" cx="1413" cy="-425.5" rx="72" ry="21.5"/>
<text text-anchor="middle" x="1413" y="-423" font-family="Arial" font-size="10.00">C&#45;0771</text>
</g>
<!-- C&#45;0355&#45;&gt;C&#45;0771 -->
<g id="edge58" class="edge">
<title>C&#45;0355&#45;&gt;C&#45;0771</title>
<path fill="none" stroke="#4d4d4d" d="M1641.67,-514.53C1641.67,-499.6 1641.67,-476 1641.67,-476 1641.67,-476 1467.5,-476 1467.5,-476 1467.5,-476 1467.5,-446.57 1467.5,-446.57"/>
<polygon fill="#4d4d4d" stroke="#4d4d4d" points="1469.95,-446.57 1467.5,-439.57 1465.05,-446.57 1469.95,-446.57"/>
</g>
<!-- S&#45;2189 -->
<g id="node19" class="node">
<title>S&#45;2189</title>
<polygon fill="mediumseagreen" stroke="black" points="1593,-447 1521,-425.5 1593,-404 1665,-425.5 1593,-447"/>
<text text-anchor="middle" x="1593" y="-423" font-family="Arial" font-size="10.00">S&#45;2189</text>
</g>
<!-- C&#45;0355&#45;&gt;S&#45;2189 -->
<g id="edge61" class="edge">
<title>C&#45;0355&#45;&gt;S&#45;2189</title>
<path fill="none" stroke="#4d4d4d" d="M1653.33,-510.27C1653.33,-510.27 1653.33,-436.3 1653.33,-436.3"/>
<polygon fill="#4d4d4d" stroke="#4d4d4d" points="1655.78,-436.3 1653.33,-429.3 1650.88,-436.3 1655.78,-436.3"/>
</g>
<!-- S&#45;1654 -->
<g id="node40" class="node">
<title>S&#45;1654</title>
<polygon fill="mediumseagreen" stroke="black" points="1847,-447 1775,-425.5 1847,-404 1919,-425.5 1847,-447"/>
<text text-anchor="middle" x="1847" y="-423" font-family="Arial" font-size="10.00">S&#45;1654</text>
</g>
<!-- C&#45;0355&#45;&gt;S&#45;1654 -->
<g id="edge46" class="edge">
<title>C&#45;0355&#45;&gt;S&#45;1654</title>
<path fill="none" stroke="#4d4d4d" d="M1774.14,-526C1782.16,-526 1787.5,-526 1787.5,-526 1787.5,-526 1787.5,-436.32 1787.5,-436.32"/>
<polygon fill="#4d4d4d" stroke="#4d4d4d" points="1789.95,-436.32 1787.5,-429.32 1785.05,-436.32 1789.95,-436.32"/>
</g>
<!-- C&#45;0770 -->
<g id="node44" class="node">
<title>C&#45;0770</title>
<ellipse fill="tomato" stroke="black" cx="1644" cy="-324.5" rx="72" ry="21.5"/>
<text text-anchor="middle" x="1644" y="-322" font-family="Arial" font-size="10.00">C&#45;0770</text>
</g>
<!-- C&#45;0355&#45;&gt;C&#45;0770 -->
<g id="edge60" class="edge">
<title>C&#45;0355&#45;&gt;C&#45;0770</title>
<path fill="none" stroke="#4d4d4d" d="M1690.5,-505.26C1690.5,-505.26 1690.5,-348.12 1690.5,-348.12"/>
<polygon fill="#4d4d4d" stroke="#4d4d4d" points="1692.95,-348.12 1690.5,-341.12 1688.05,-348.12 1692.95,-348.12"/>
</g>
<!-- C&#45;0771&#45;&gt;R&#45;169 -->
<g id="edge59" class="edge">
<title>C&#45;0771&#45;&gt;R&#45;169</title>
<path fill="none" stroke="#4d4d4d" d="M1426.5,-404.08C1426.5,-404.08 1426.5,-353.24 1426.5,-353.24"/>
<polygon fill="#4d4d4d" stroke="#4d4d4d" points="1428.95,-353.24 1426.5,-346.24 1424.05,-353.24 1428.95,-353.24"/>
</g>
<!-- S&#45;2186 -->
<g id="node17" class="node">
<title>S&#45;2186</title>
<polygon fill="mediumseagreen" stroke="black" points="1667,-245 1595,-223.5 1667,-202 1739,-223.5 1667,-245"/>
<text text-anchor="middle" x="1667" y="-221" font-family="Arial" font-size="10.00">S&#45;2186</text>
</g>
<!-- S&#45;1492 -->
<g id="node18" class="node">
<title>S&#45;1492</title>
<polygon fill="mediumseagreen" stroke="black" points="972,-952 900,-930.5 972,-909 1044,-930.5 972,-952"/>
<text text-anchor="middle" x="972" y="-928" font-family="Arial" font-size="10.00">S&#45;1492</text>
</g>
<!-- C&#45;0636 -->
<g id="node20" class="node">
<title>C&#45;0636</title>
<ellipse fill="mediumseagreen" stroke="black" cx="882" cy="-1233.5" rx="72" ry="21.5"/>
<text text-anchor="middle" x="882" y="-1231" font-family="Arial" font-size="10.00">C&#45;0636</text>
</g>
<!-- C&#45;0636&#45;&gt;S&#45;2089 -->
<g id="edge3" class="edge">
<title>C&#45;0636&#45;&gt;S&#45;2089</title>
<path fill="none" stroke="#4d4d4d" d="M809.7,-1233C682.5,-1233 432,-1233 432,-1233 432,-1233 432,-1161.31 432,-1161.31"/>
<polygon fill="#4d4d4d" stroke="#4d4d4d" points="434.45,-1161.31 432,-1154.31 429.55,-1161.31 434.45,-1161.31"/>
</g>
<!-- C&#45;0636&#45;&gt;C&#45;0273 -->
<g id="edge7" class="edge">
<title>C&#45;0636&#45;&gt;C&#45;0273</title>
<path fill="none" stroke="#4d4d4d" d="M837,-1216.37C837,-1216.37 837,-1156.38 837,-1156.38"/>
<polygon fill="#4d4d4d" stroke="#4d4d4d" points="839.45,-1156.38 837,-1149.38 834.55,-1156.38 839.45,-1156.38"/>
</g>
<!-- S&#45;1811 -->
<g id="node47" class="node">
<title>S&#45;1811</title>
<polygon fill="mediumseagreen" stroke="black" points="972,-1154 900,-1132.5 972,-1111 1044,-1132.5 972,-1154"/>
<text text-anchor="middle" x="972" y="-1130" font-family="Arial" font-size="10.00">S&#45;1811</text>
</g>
<!-- C&#45;0636&#45;&gt;S&#45;1811 -->
<g id="edge5" class="edge">
<title>C&#45;0636&#45;&gt;S&#45;1811</title>
<path fill="none" stroke="#4d4d4d" d="M927,-1216.37C927,-1216.37 927,-1147.78 927,-1147.78"/>
<polygon fill="#4d4d4d" stroke="#4d4d4d" points="929.45,-1147.78 927,-1140.78 924.55,-1147.78 929.45,-1147.78"/>
</g>
<!-- S&#45;1421 -->
<g id="node51" class="node">
<title>S&#45;1421</title>
<polygon fill="mediumseagreen" stroke="black" points="1152,-1154 1080,-1132.5 1152,-1111 1224,-1132.5 1152,-1154"/>
<text text-anchor="middle" x="1152" y="-1130" font-family="Arial" font-size="10.00">S&#45;1421</text>
</g>
<!-- C&#45;0636&#45;&gt;S&#45;1421 -->
<g id="edge6" class="edge">
<title>C&#45;0636&#45;&gt;S&#45;1421</title>
<path fill="none" stroke="#4d4d4d" d="M954,-1233C1033.98,-1233 1152,-1233 1152,-1233 1152,-1233 1152,-1161.31 1152,-1161.31"/>
<polygon fill="#4d4d4d" stroke="#4d4d4d" points="1154.45,-1161.31 1152,-1154.31 1149.55,-1161.31 1154.45,-1161.31"/>
</g>
<!-- C&#45;0610 -->
<g id="node62" class="node">
<title>C&#45;0610</title>
<ellipse fill="mediumseagreen" stroke="black" cx="612" cy="-829.5" rx="72" ry="21.5"/>
<text text-anchor="middle" x="612" y="-827" font-family="Arial" font-size="10.00">C&#45;0610</text>
</g>
<!-- C&#45;0609&#45;&gt;C&#45;0610 -->
<g id="edge62" class="edge">
<title>C&#45;0609&#45;&gt;C&#45;0610</title>
<path fill="none" stroke="blue" stroke-dasharray="5,2" d="M768,-1011.22C768,-962.33 768,-842 768,-842 768,-842 677.98,-842 677.98,-842"/>
<polygon fill="blue" stroke="blue" points="677.98,-839.55 670.98,-842 677.98,-844.45 677.98,-839.55"/>
</g>
<!-- S&#45;1823 -->
<g id="node22" class="node">
<title>S&#45;1823</title>
<polygon fill="mediumseagreen" stroke="black" points="1152,-952 1080,-930.5 1152,-909 1224,-930.5 1152,-952"/>
<text text-anchor="middle" x="1152" y="-928" font-family="Arial" font-size="10.00">S&#45;1823</text>
</g>
<!-- S&#45;1639 -->
<g id="node23" class="node">
<title>S&#45;1639</title>
<polygon fill="mediumseagreen" stroke="black" points="612,-750 540,-728.5 612,-707 684,-728.5 612,-750"/>
<text text-anchor="middle" x="612" y="-726" font-family="Arial" font-size="10.00">S&#45;1639</text>
</g>
<!-- S&#45;1336 -->
<g id="node24" class="node">
<title>S&#45;1336</title>
<polygon fill="mediumseagreen" stroke="black" points="953,-548 881,-526.5 953,-505 1025,-526.5 953,-548"/>
<text text-anchor="middle" x="953" y="-524" font-family="Arial" font-size="10.00">S&#45;1336</text>
</g>
<!-- S&#45;1655 -->
<g id="node25" class="node">
<title>S&#45;1655</title>
<polygon fill="mediumseagreen" stroke="black" points="1847,-346 1775,-324.5 1847,-303 1919,-324.5 1847,-346"/>
<text text-anchor="middle" x="1847" y="-322" font-family="Arial" font-size="10.00">S&#45;1655</text>
</g>
<!-- S&#45;1655&#45;&gt;S&#45;2186 -->
<g id="edge48" class="edge">
<title>S&#45;1655&#45;&gt;S&#45;2186</title>
<path fill="none" stroke="#4d4d4d" d="M1776.45,-324C1750.58,-324 1727.5,-324 1727.5,-324 1727.5,-324 1727.5,-234.32 1727.5,-234.32"/>
<polygon fill="#4d4d4d" stroke="#4d4d4d" points="1729.95,-234.32 1727.5,-227.32 1725.05,-234.32 1729.95,-234.32"/>
</g>
<!-- S&#45;2064 -->
<g id="node33" class="node">
<title>S&#45;2064</title>
<polygon fill="mediumseagreen" stroke="black" points="1847,-245 1775,-223.5 1847,-202 1919,-223.5 1847,-245"/>
<text text-anchor="middle" x="1847" y="-221" font-family="Arial" font-size="10.00">S&#45;2064</text>
</g>
<!-- S&#45;1655&#45;&gt;S&#45;2064 -->
<g id="edge49" class="edge">
<title>S&#45;1655&#45;&gt;S&#45;2064</title>
<path fill="none" stroke="#4d4d4d" d="M1847,-302.58C1847,-302.58 1847,-252.03 1847,-252.03"/>
<polygon fill="#4d4d4d" stroke="#4d4d4d" points="1849.45,-252.03 1847,-245.03 1844.55,-252.03 1849.45,-252.03"/>
</g>
<!-- S&#45;2065 -->
<g id="node35" class="node">
<title>S&#45;2065</title>
<polygon fill="mediumseagreen" stroke="black" points="2117,-245 2045,-223.5 2117,-202 2189,-223.5 2117,-245"/>
<text text-anchor="middle" x="2117" y="-221" font-family="Arial" font-size="10.00">S&#45;2065</text>
</g>
<!-- S&#45;1655&#45;&gt;S&#45;2065 -->
<g id="edge56" class="edge">
<title>S&#45;1655&#45;&gt;S&#45;2065</title>
<path fill="none" stroke="#4d4d4d" d="M1917.59,-324C1997.59,-324 2117,-324 2117,-324 2117,-324 2117,-252.31 2117,-252.31"/>
<polygon fill="#4d4d4d" stroke="#4d4d4d" points="2119.45,-252.31 2117,-245.31 2114.55,-252.31 2119.45,-252.31"/>
</g>
<!-- S&#45;935 -->
<g id="node26" class="node">
<title>S&#45;935</title>
<polygon fill="mediumseagreen" stroke="black" points="432,-649 360,-627.5 432,-606 504,-627.5 432,-649"/>
<text text-anchor="middle" x="432" y="-625" font-family="Arial" font-size="10.00">S&#45;935</text>
</g>
<!-- S&#45;1260&#45;&gt;S&#45;1492 -->
<g id="edge11" class="edge">
<title>S&#45;1260&#45;&gt;S&#45;1492</title>
<path fill="none" stroke="#4d4d4d" d="M972,-1009.58C972,-1009.58 972,-959.03 972,-959.03"/>
<polygon fill="#4d4d4d" stroke="#4d4d4d" points="974.45,-959.03 972,-952.03 969.55,-959.03 974.45,-959.03"/>
</g>
<!-- S&#45;1656 -->
<g id="node28" class="node">
<title>S&#45;1656</title>
<polygon fill="mediumseagreen" stroke="black" points="1802,-144 1730,-122.5 1802,-101 1874,-122.5 1802,-144"/>
<text text-anchor="middle" x="1802" y="-120" font-family="Arial" font-size="10.00">S&#45;1656</text>
</g>
<!-- S&#45;1822 -->
<g id="node29" class="node">
<title>S&#45;1822</title>
<polygon fill="mediumseagreen" stroke="black" points="1332,-952 1260,-930.5 1332,-909 1404,-930.5 1332,-952"/>
<text text-anchor="middle" x="1332" y="-928" font-family="Arial" font-size="10.00">S&#45;1822</text>
</g>
<!-- S&#45;936 -->
<g id="node30" class="node">
<title>S&#45;936</title>
<polygon fill="mediumseagreen" stroke="black" points="792,-750 720,-728.5 792,-707 864,-728.5 792,-750"/>
<text text-anchor="middle" x="792" y="-726" font-family="Arial" font-size="10.00">S&#45;936</text>
</g>
<!-- S&#45;936&#45;&gt;S&#45;1638 -->
<g id="edge22" class="edge">
<title>S&#45;936&#45;&gt;S&#45;1638</title>
<path fill="none" stroke="#4d4d4d" d="M748.8,-719.66C748.8,-708.86 748.8,-692 748.8,-692 748.8,-692 252,-692 252,-692 252,-692 252,-656.34 252,-656.34"/>
<polygon fill="#4d4d4d" stroke="#4d4d4d" points="254.45,-656.34 252,-649.34 249.55,-656.34 254.45,-656.34"/>
</g>
<!-- S&#45;936&#45;&gt;S&#45;935 -->
<g id="edge30" class="edge">
<title>S&#45;936&#45;&gt;S&#45;935</title>
<path fill="none" stroke="#4d4d4d" d="M777.6,-711.12C777.6,-696.51 777.6,-678 777.6,-678 777.6,-678 432,-678 432,-678 432,-678 432,-656.21 432,-656.21"/>
<polygon fill="#4d4d4d" stroke="#4d4d4d" points="434.45,-656.21 432,-649.21 429.55,-656.21 434.45,-656.21"/>
</g>
<!-- S&#45;1337 -->
<g id="node32" class="node">
<title>S&#45;1337</title>
<polygon fill="mediumseagreen" stroke="black" points="612,-649 540,-627.5 612,-606 684,-627.5 612,-649"/>
<text text-anchor="middle" x="612" y="-625" font-family="Arial" font-size="10.00">S&#45;1337</text>
</g>
<!-- S&#45;936&#45;&gt;S&#45;1337 -->
<g id="edge23" class="edge">
<title>S&#45;936&#45;&gt;S&#45;1337</title>
<path fill="none" stroke="#4d4d4d" d="M721.49,-728C714.83,-728 710.5,-728 710.5,-728 710.5,-728 710.5,-627 710.5,-627 710.5,-627 689.54,-627 689.54,-627"/>
<polygon fill="#4d4d4d" stroke="#4d4d4d" points="689.54,-624.55 682.54,-627 689.54,-629.45 689.54,-624.55"/>
</g>
<!-- S&#45;1637 -->
<g id="node36" class="node">
<title>S&#45;1637</title>
<polygon fill="mediumseagreen" stroke="black" points="792,-649 720,-627.5 792,-606 864,-627.5 792,-649"/>
<text text-anchor="middle" x="792" y="-625" font-family="Arial" font-size="10.00">S&#45;1637</text>
</g>
<!-- S&#45;936&#45;&gt;S&#45;1637 -->
<g id="edge21" class="edge">
<title>S&#45;936&#45;&gt;S&#45;1637</title>
<path fill="none" stroke="#4d4d4d" d="M806.4,-710.91C806.4,-710.91 806.4,-651.89 806.4,-651.89"/>
<polygon fill="#4d4d4d" stroke="#4d4d4d" points="808.85,-651.89 806.4,-644.89 803.95,-651.89 808.85,-651.89"/>
</g>
<!-- S&#45;934 -->
<g id="node45" class="node">
<title>S&#45;934</title>
<polygon fill="mediumseagreen" stroke="black" points="972,-649 900,-627.5 972,-606 1044,-627.5 972,-649"/>
<text text-anchor="middle" x="972" y="-625" font-family="Arial" font-size="10.00">S&#45;934</text>
</g>
<!-- S&#45;936&#45;&gt;S&#45;934 -->
<g id="edge25" class="edge">
<title>S&#45;936&#45;&gt;S&#45;934</title>
<path fill="none" stroke="#4d4d4d" d="M862.37,-728C870.94,-728 876.75,-728 876.75,-728 876.75,-728 876.75,-634 876.75,-634 876.75,-634 914.59,-634 914.59,-634"/>
<polygon fill="#4d4d4d" stroke="#4d4d4d" points="914.59,-636.45 921.59,-634 914.59,-631.55 914.59,-636.45"/>
</g>
<!-- S&#45;1643 -->
<g id="node60" class="node">
<title>S&#45;1643</title>
<polygon fill="mediumseagreen" stroke="black" points="1152,-649 1080,-627.5 1152,-606 1224,-627.5 1152,-649"/>
<text text-anchor="middle" x="1152" y="-625" font-family="Arial" font-size="10.00">S&#45;1643</text>
</g>
<!-- S&#45;936&#45;&gt;S&#45;1643 -->
<g id="edge24" class="edge">
<title>S&#45;936&#45;&gt;S&#45;1643</title>
<path fill="none" stroke="#4d4d4d" d="M835.2,-719.67C835.2,-701.79 835.2,-663 835.2,-663 835.2,-663 1152,-663 1152,-663 1152,-663 1152,-656.38 1152,-656.38"/>
<polygon fill="#4d4d4d" stroke="#4d4d4d" points="1154.45,-656.38 1152,-649.38 1149.55,-656.38 1154.45,-656.38"/>
</g>
<!-- R&#45;096&#45;&gt;C&#45;0610 -->
<g id="edge16" class="edge">
<title>R&#45;096&#45;&gt;C&#45;0610</title>
<path fill="none" stroke="#4d4d4d" d="M612,-908.58C612,-908.58 612,-858.03 612,-858.03"/>
<polygon fill="#4d4d4d" stroke="#4d4d4d" points="614.45,-858.03 612,-851.03 609.55,-858.03 614.45,-858.03"/>
</g>
<!-- S&#45;2064&#45;&gt;S&#45;963 -->
<g id="edge52" class="edge">
<title>S&#45;2064&#45;&gt;S&#45;963</title>
<path fill="none" stroke="#4d4d4d" d="M1808,-213.28C1808,-198.52 1808,-173 1808,-173 1808,-173 1644.5,-173 1644.5,-173 1644.5,-173 1644.5,-144.38 1644.5,-144.38"/>
<polygon fill="#4d4d4d" stroke="#4d4d4d" points="1646.95,-144.38 1644.5,-137.38 1642.05,-144.38 1646.95,-144.38"/>
</g>
<!-- S&#45;2064&#45;&gt;S&#45;1656 -->
<g id="edge51" class="edge">
<title>S&#45;2064&#45;&gt;S&#45;1656</title>
<path fill="none" stroke="#4d4d4d" d="M1841,-203.55C1841,-203.55 1841,-139.57 1841,-139.57"/>
<polygon fill="#4d4d4d" stroke="#4d4d4d" points="1843.45,-139.57 1841,-132.57 1838.55,-139.57 1843.45,-139.57"/>
</g>
<!-- S&#45;2248 -->
<g id="node43" class="node">
<title>S&#45;2248</title>
<polygon fill="mediumseagreen" stroke="black" points="1982,-144 1910,-122.5 1982,-101 2054,-122.5 1982,-144"/>
<text text-anchor="middle" x="1982" y="-120" font-family="Arial" font-size="10.00">S&#45;2248</text>
</g>
<!-- S&#45;2064&#45;&gt;S&#45;2248 -->
<g id="edge50" class="edge">
<title>S&#45;2064&#45;&gt;S&#45;2248</title>
<path fill="none" stroke="#4d4d4d" d="M1914.5,-222.07C1914.5,-222.07 1914.5,-131.02 1914.5,-131.02"/>
<polygon fill="#4d4d4d" stroke="#4d4d4d" points="1916.95,-131.02 1914.5,-124.02 1912.05,-131.02 1916.95,-131.02"/>
</g>
<!-- C&#45;1171 -->
<g id="node34" class="node">
<title>C&#45;1171</title>
<ellipse fill="mediumseagreen" stroke="black" cx="1512" cy="-930.5" rx="72" ry="21.5"/>
<text text-anchor="middle" x="1512" y="-928" font-family="Arial" font-size="10.00">C&#45;1171</text>
</g>
<!-- R&#45;051 -->
<g id="node41" class="node">
<title>R&#45;051</title>
<polygon fill="mediumseagreen" stroke="black" points="1584,-820.59 1584,-838.41 1541.82,-851 1482.18,-851 1440,-838.41 1440,-820.59 1482.18,-808 1541.82,-808 1584,-820.59"/>
<text text-anchor="middle" x="1512" y="-827" font-family="Arial" font-size="10.00">R&#45;051</text>
</g>
<!-- C&#45;1171&#45;&gt;R&#45;051 -->
<g id="edge39" class="edge">
<title>C&#45;1171&#45;&gt;R&#45;051</title>
<path fill="none" stroke="#4d4d4d" d="M1512,-908.58C1512,-908.58 1512,-858.03 1512,-858.03"/>
<polygon fill="#4d4d4d" stroke="#4d4d4d" points="1514.45,-858.03 1512,-851.03 1509.55,-858.03 1514.45,-858.03"/>
</g>
<!-- S&#45;2383 -->
<g id="node55" class="node">
<title>S&#45;2383</title>
<polygon fill="mediumseagreen" stroke="black" points="2162,-144 2090,-122.5 2162,-101 2234,-122.5 2162,-144"/>
<text text-anchor="middle" x="2162" y="-120" font-family="Arial" font-size="10.00">S&#45;2383</text>
</g>
<!-- S&#45;2065&#45;&gt;S&#45;2383 -->
<g id="edge57" class="edge">
<title>S&#45;2065&#45;&gt;S&#45;2383</title>
<path fill="none" stroke="#4d4d4d" d="M2139.5,-208.6C2139.5,-208.6 2139.5,-144.46 2139.5,-144.46"/>
<polygon fill="#4d4d4d" stroke="#4d4d4d" points="2141.95,-144.46 2139.5,-137.46 2137.05,-144.46 2141.95,-144.46"/>
</g>
<!-- C&#45;0248 -->
<g id="node37" class="node">
<title>C&#45;0248</title>
<ellipse fill="mediumseagreen" stroke="black" cx="882" cy="-1334.5" rx="72" ry="21.5"/>
<text text-anchor="middle" x="882" y="-1332" font-family="Arial" font-size="10.00">C&#45;0248</text>
</g>
<!-- C&#45;0248&#45;&gt;C&#45;0636 -->
<g id="edge2" class="edge">
<title>C&#45;0248&#45;&gt;C&#45;0636</title>
<path fill="none" stroke="#4d4d4d" d="M882,-1312.58C882,-1312.58 882,-1262.03 882,-1262.03"/>
<polygon fill="#4d4d4d" stroke="#4d4d4d" points="884.45,-1262.03 882,-1255.03 879.55,-1262.03 884.45,-1262.03"/>
</g>
<!-- 205&#45;24&#45; -->
<g id="node39" class="node">
<title>205&#45;24&#45;</title>
<polygon fill="gold" stroke="black" points="954,-1430.59 954,-1448.41 911.82,-1461 852.18,-1461 810,-1448.41 810,-1430.59 852.18,-1418 911.82,-1418 954,-1430.59"/>
<polygon fill="none" stroke="black" points="958,-1427.61 958,-1451.39 912.41,-1465 851.59,-1465 806,-1451.39 806,-1427.61 851.59,-1414 912.41,-1414 958,-1427.61"/>
<text text-anchor="middle" x="882" y="-1437" font-family="Arial" font-size="10.00">205&#45;24&#45;</text>
</g>
<!-- 205&#45;24&#45;&#45;&gt;C&#45;0248 -->
<g id="edge1" class="edge">
<title>205&#45;24&#45;&#45;&gt;C&#45;0248</title>
<path fill="none" stroke="#4d4d4d" d="M882,-1413.81C882,-1413.81 882,-1363.03 882,-1363.03"/>
<polygon fill="#4d4d4d" stroke="#4d4d4d" points="884.45,-1363.03 882,-1356.03 879.55,-1363.03 884.45,-1363.03"/>
</g>
<!-- S&#45;1654&#45;&gt;S&#45;1655 -->
<g id="edge47" class="edge">
<title>S&#45;1654&#45;&gt;S&#45;1655</title>
<path fill="none" stroke="#4d4d4d" d="M1847,-403.58C1847,-403.58 1847,-353.03 1847,-353.03"/>
<polygon fill="#4d4d4d" stroke="#4d4d4d" points="1849.45,-353.03 1847,-346.03 1844.55,-353.03 1849.45,-353.03"/>
</g>
<!-- R&#45;051&#45;&gt;C&#45;1172 -->
<g id="edge40" class="edge">
<title>R&#45;051&#45;&gt;C&#45;1172</title>
<path fill="none" stroke="#4d4d4d" d="M1512,-807.58C1512,-807.58 1512,-757.03 1512,-757.03"/>
<polygon fill="#4d4d4d" stroke="#4d4d4d" points="1514.45,-757.03 1512,-750.03 1509.55,-757.03 1514.45,-757.03"/>
</g>
<!-- C&#45;1173 -->
<g id="node42" class="node">
<title>C&#45;1173</title>
<ellipse fill="tomato" stroke="black" cx="1692" cy="-930.5" rx="72" ry="21.5"/>
<text text-anchor="middle" x="1692" y="-928" font-family="Arial" font-size="10.00">C&#45;1173</text>
</g>
<!-- C&#45;1173&#45;&gt;S&#45;1824 -->
<g id="edge65" class="edge">
<title>C&#45;1173&#45;&gt;S&#45;1824</title>
<path fill="none" stroke="blue" stroke-dasharray="5,2" d="M1619.91,-930C1612.15,-930 1607,-930 1607,-930 1607,-930 1607,-634 1607,-634 1607,-634 1569.28,-634 1569.28,-634"/>
<polygon fill="blue" stroke="blue" points="1569.28,-631.55 1562.28,-634 1569.28,-636.45 1569.28,-631.55"/>
</g>
<!-- C&#45;0770&#45;&gt;ext_circ_205_23_ -->
<g id="edge67" class="edge">
<title>C&#45;0770&#45;&gt;ext_circ_205_23_</title>
<path fill="none" stroke="darkorange" stroke-dasharray="5,2" d="M1583.5,-312.46C1583.5,-285.57 1583.5,-223 1583.5,-223 1583.5,-223 1519.17,-223 1519.17,-223"/>
<polygon fill="darkorange" stroke="darkorange" points="1519.17,-220.55 1512.17,-223 1519.17,-225.45 1519.17,-220.55"/>
</g>
<!-- S&#45;934&#45;&gt;S&#45;1189 -->
<g id="edge27" class="edge">
<title>S&#45;934&#45;&gt;S&#45;1189</title>
<path fill="none" stroke="#4d4d4d" d="M924.98,-620C897.53,-620 868.25,-620 868.25,-620 868.25,-620 868.25,-526 868.25,-526 868.25,-526 850.72,-526 850.72,-526"/>
<polygon fill="#4d4d4d" stroke="#4d4d4d" points="850.72,-523.55 843.72,-526 850.72,-528.45 850.72,-523.55"/>
</g>
<!-- S&#45;934&#45;&gt;S&#45;1336 -->
<g id="edge28" class="edge">
<title>S&#45;934&#45;&gt;S&#45;1336</title>
<path fill="none" stroke="#4d4d4d" d="M962.5,-608.5C962.5,-608.5 962.5,-552.41 962.5,-552.41"/>
<polygon fill="#4d4d4d" stroke="#4d4d4d" points="964.95,-552.41 962.5,-545.41 960.05,-552.41 964.95,-552.41"/>
</g>
<!-- S&#45;1752 -->
<g id="node54" class="node">
<title>S&#45;1752</title>
<polygon fill="mediumseagreen" stroke="black" points="1133,-548 1061,-526.5 1133,-505 1205,-526.5 1133,-548"/>
<text text-anchor="middle" x="1133" y="-524" font-family="Arial" font-size="10.00">S&#45;1752</text>
</g>
<!-- S&#45;934&#45;&gt;S&#45;1752 -->
<g id="edge26" class="edge">
<title>S&#45;934&#45;&gt;S&#45;1752</title>
<path fill="none" stroke="#4d4d4d" d="M1042.54,-627C1058.33,-627 1070.5,-627 1070.5,-627 1070.5,-627 1070.5,-536.4 1070.5,-536.4"/>
<polygon fill="#4d4d4d" stroke="#4d4d4d" points="1072.95,-536.4 1070.5,-529.4 1068.05,-536.4 1072.95,-536.4"/>
</g>
<!-- C&#45;0196 -->
<g id="node59" class="node">
<title>C&#45;0196</title>
<ellipse fill="tomato" stroke="black" cx="1260" cy="-324.5" rx="72" ry="21.5"/>
<text text-anchor="middle" x="1260" y="-322" font-family="Arial" font-size="10.00">C&#45;0196</text>
</g>
<!-- S&#45;934&#45;&gt;C&#45;0196 -->
<g id="edge29" class="edge">
<title>S&#45;934&#45;&gt;C&#45;0196</title>
<path fill="none" stroke="#4d4d4d" d="M1034.5,-624.5C1034.5,-592.98 1034.5,-324 1034.5,-324 1034.5,-324 1180.72,-324 1180.72,-324"/>
<polygon fill="#4d4d4d" stroke="#4d4d4d" points="1180.72,-326.45 1187.72,-324 1180.72,-321.55 1180.72,-326.45"/>
</g>
<!-- S&#45;937&#45;&gt;S&#45;1823 -->
<g id="edge36" class="edge">
<title>S&#45;937&#45;&gt;S&#45;1823</title>
<path fill="none" stroke="#4d4d4d" d="M1351.63,-1031C1301.15,-1031 1242,-1031 1242,-1031 1242,-1031 1242,-930 1242,-930 1242,-930 1229.47,-930 1229.47,-930"/>
<polygon fill="#4d4d4d" stroke="#4d4d4d" points="1229.47,-927.55 1222.47,-930 1229.47,-932.45 1229.47,-927.55"/>
</g>
<!-- S&#45;937&#45;&gt;S&#45;1822 -->
<g id="edge34" class="edge">
<title>S&#45;937&#45;&gt;S&#45;1822</title>
<path fill="none" stroke="#4d4d4d" d="M1377,-1023.23C1377,-1023.23 1377,-945.6 1377,-945.6"/>
<polygon fill="#4d4d4d" stroke="#4d4d4d" points="1379.45,-945.6 1377,-938.6 1374.55,-945.6 1379.45,-945.6"/>
</g>
<!-- S&#45;937&#45;&gt;C&#45;1171 -->
<g id="edge38" class="edge">
<title>S&#45;937&#45;&gt;C&#45;1171</title>
<path fill="none" stroke="#4d4d4d" d="M1467,-1023.23C1467,-1023.23 1467,-954.52 1467,-954.52"/>
<polygon fill="#4d4d4d" stroke="#4d4d4d" points="1469.45,-954.52 1467,-947.52 1464.55,-954.52 1469.45,-954.52"/>
</g>
<!-- S&#45;937&#45;&gt;C&#45;1173 -->
<g id="edge37" class="edge">
<title>S&#45;937&#45;&gt;C&#45;1173</title>
<path fill="none" stroke="#4d4d4d" d="M1469.03,-1024C1546.39,-1024 1692,-1024 1692,-1024 1692,-1024 1692,-959.19 1692,-959.19"/>
<polygon fill="#4d4d4d" stroke="#4d4d4d" points="1694.45,-959.19 1692,-952.19 1689.55,-959.19 1694.45,-959.19"/>
</g>
<!-- R&#45;085 -->
<g id="node56" class="node">
<title>R&#45;085</title>
<polygon fill="tomato" stroke="black" points="1944,-921.59 1944,-939.41 1901.82,-952 1842.18,-952 1800,-939.41 1800,-921.59 1842.18,-909 1901.82,-909 1944,-921.59"/>
<text text-anchor="middle" x="1872" y="-928" font-family="Arial" font-size="10.00">R&#45;085</text>
</g>
<!-- S&#45;937&#45;&gt;R&#45;085 -->
<g id="edge35" class="edge">
<title>S&#45;937&#45;&gt;R&#45;085</title>
<path fill="none" stroke="#4d4d4d" d="M1472.31,-1038C1589.74,-1038 1872,-1038 1872,-1038 1872,-1038 1872,-959.25 1872,-959.25"/>
<polygon fill="#4d4d4d" stroke="#4d4d4d" points="1874.45,-959.25 1872,-952.25 1869.55,-959.25 1874.45,-959.25"/>
</g>
<!-- S&#45;2165 -->
<g id="node49" class="node">
<title>S&#45;2165</title>
<polygon fill="mediumseagreen" stroke="black" points="972,-750 900,-728.5 972,-707 1044,-728.5 972,-750"/>
<text text-anchor="middle" x="972" y="-726" font-family="Arial" font-size="10.00">S&#45;2165</text>
</g>
<!-- ext_circ_206_22_ -->
<g id="node64" class="node">
<title>ext_circ_206_22_</title>
<polygon fill="lightpink" stroke="darkorange" stroke-dasharray="5,2" points="1944,-851 1800,-851 1800,-808 1944,-808 1944,-851"/>
<text text-anchor="middle" x="1872" y="-832.5" font-family="Arial" font-size="10.00">Circuito:</text>
<text text-anchor="middle" x="1872" y="-821.5" font-family="Arial" font-size="10.00">206&#45;22&#45;</text>
</g>
<!-- R&#45;085&#45;&gt;ext_circ_206_22_ -->
<g id="edge64" class="edge">
<title>R&#45;085&#45;&gt;ext_circ_206_22_</title>
<path fill="none" stroke="darkorange" stroke-dasharray="5,2" d="M1872,-908.58C1872,-908.58 1872,-858.03 1872,-858.03"/>
<polygon fill="darkorange" stroke="darkorange" points="1874.45,-858.03 1872,-851.03 1869.55,-858.03 1874.45,-858.03"/>
</g>
<!-- S&#45;1385 -->
<g id="node57" class="node">
<title>S&#45;1385</title>
<polygon fill="mediumseagreen" stroke="black" points="1152,-750 1080,-728.5 1152,-707 1224,-728.5 1152,-750"/>
<text text-anchor="middle" x="1152" y="-726" font-family="Arial" font-size="10.00">S&#45;1385</text>
</g>
<!-- S&#45;2020&#45;&gt;S&#45;1657 -->
<g id="edge44" class="edge">
<title>S&#45;2020&#45;&gt;S&#45;1657</title>
<path fill="none" stroke="#4d4d4d" d="M1645.02,-620C1617.86,-620 1589,-620 1589,-620 1589,-620 1589,-535.12 1589,-535.12"/>
<polygon fill="#4d4d4d" stroke="#4d4d4d" points="1591.45,-535.12 1589,-528.12 1586.55,-535.12 1591.45,-535.12"/>
</g>
<!-- S&#45;2020&#45;&gt;C&#45;0355 -->
<g id="edge45" class="edge">
<title>S&#45;2020&#45;&gt;C&#45;0355</title>
<path fill="none" stroke="#4d4d4d" d="M1697,-607.06C1697,-607.06 1697,-554.95 1697,-554.95"/>
<polygon fill="#4d4d4d" stroke="#4d4d4d" points="1699.45,-554.95 1697,-547.95 1694.55,-554.95 1699.45,-554.95"/>
</g>
<!-- C&#45;0196&#45;&gt;ext_circ_205_23_ -->
<g id="edge63" class="edge">
<title>C&#45;0196&#45;&gt;ext_circ_205_23_</title>
<path fill="none" stroke="darkorange" stroke-dasharray="5,2" d="M1260,-302.97C1260,-273.18 1260,-223 1260,-223 1260,-223 1360.82,-223 1360.82,-223"/>
<polygon fill="darkorange" stroke="darkorange" points="1360.82,-225.45 1367.82,-223 1360.82,-220.55 1360.82,-225.45"/>
</g>
<!-- C&#45;0610&#45;&gt;S&#45;1338 -->
<g id="edge18" class="edge">
<title>C&#45;0610&#45;&gt;S&#45;1338</title>
<path fill="none" stroke="#4d4d4d" d="M549,-840C406.55,-840 72,-840 72,-840 72,-840 72,-757.26 72,-757.26"/>
<polygon fill="#4d4d4d" stroke="#4d4d4d" points="74.45,-757.26 72,-750.26 69.55,-757.26 74.45,-757.26"/>
</g>
<!-- C&#45;0610&#45;&gt;S&#45;898 -->
<g id="edge17" class="edge">
<title>C&#45;0610&#45;&gt;S&#45;898</title>
<path fill="none" stroke="#4d4d4d" d="M540.01,-829C434.96,-829 252,-829 252,-829 252,-829 252,-757.31 252,-757.31"/>
<polygon fill="#4d4d4d" stroke="#4d4d4d" points="254.45,-757.31 252,-750.31 249.55,-757.31 254.45,-757.31"/>
</g>
<!-- C&#45;0610&#45;&gt;S&#45;1641 -->
<g id="edge32" class="edge">
<title>C&#45;0610&#45;&gt;S&#45;1641</title>
<path fill="none" stroke="#4d4d4d" d="M551.06,-818C498.84,-818 432,-818 432,-818 432,-818 432,-757.17 432,-757.17"/>
<polygon fill="#4d4d4d" stroke="#4d4d4d" points="434.45,-757.17 432,-750.17 429.55,-757.17 434.45,-757.17"/>
</g>
<!-- C&#45;0610&#45;&gt;S&#45;1639 -->
<g id="edge31" class="edge">
<title>C&#45;0610&#45;&gt;S&#45;1639</title>
<path fill="none" stroke="#4d4d4d" d="M612,-807.58C612,-807.58 612,-757.03 612,-757.03"/>
<polygon fill="#4d4d4d" stroke="#4d4d4d" points="614.45,-757.03 612,-750.03 609.55,-757.03 614.45,-757.03"/>
</g>
<!-- C&#45;0610&#45;&gt;S&#45;936 -->
<g id="edge20" class="edge">
<title>C&#45;0610&#45;&gt;S&#45;936</title>
<path fill="none" stroke="#4d4d4d" d="M668.28,-816C728.67,-816 816,-816 816,-816 816,-816 816,-749.95 816,-749.95"/>
<polygon fill="#4d4d4d" stroke="#4d4d4d" points="818.45,-749.95 816,-742.95 813.55,-749.95 818.45,-749.95"/>
</g>
<!-- C&#45;0610&#45;&gt;S&#45;2165 -->
<g id="edge19" class="edge">
<title>C&#45;0610&#45;&gt;S&#45;2165</title>
<path fill="none" stroke="#4d4d4d" d="M682.69,-825C787.54,-825 972,-825 972,-825 972,-825 972,-757.4 972,-757.4"/>
<polygon fill="#4d4d4d" stroke="#4d4d4d" points="974.45,-757.4 972,-750.4 969.55,-757.4 974.45,-757.4"/>
</g>
<!-- C&#45;0610&#45;&gt;S&#45;1385 -->
<g id="edge33" class="edge">
<title>C&#45;0610&#45;&gt;S&#45;1385</title>
<path fill="none" stroke="#4d4d4d" d="M683.15,-833C829.78,-833 1152,-833 1152,-833 1152,-833 1152,-757.15 1152,-757.15"/>
<polygon fill="#4d4d4d" stroke="#4d4d4d" points="1154.45,-757.15 1152,-750.15 1149.55,-757.15 1154.45,-757.15"/>
</g>
</g>
</svg>
