<?xml version="1.0" encoding="UTF-8" standalone="no"?>
<!DOCTYPE svg PUBLIC "-//W3C//DTD SVG 1.1//EN"
 "http://www.w3.org/Graphics/SVG/1.1/DTD/svg11.dtd">
<!-- Generated by graphviz version 2.50.0 (0)
 -->
<!-- Title: Grafo_Circuito_113_23_ Pages: 1 -->
<svg width="2529pt" height="1473pt"
 viewBox="0.00 0.00 2529.00 1473.00" xmlns="http://www.w3.org/2000/svg" xmlns:xlink="http://www.w3.org/1999/xlink">
<g id="graph0" class="graph" transform="scale(1 1) rotate(0) translate(4 1469)">
<title>Grafo_Circuito_113_23_</title>
<polygon fill="white" stroke="transparent" points="-4,4 -4,-1469 2525,-1469 2525,4 -4,4"/>
<!-- S&#45;2226 -->
<g id="node1" class="node">
<title>S&#45;2226</title>
<polygon fill="mediumseagreen" stroke="black" points="2089,-649 2017,-627.5 2089,-606 2161,-627.5 2089,-649"/>
<text text-anchor="middle" x="2089" y="-625" font-family="Arial" font-size="10.00">S&#45;2226</text>
</g>
<!-- C&#45;0292 -->
<g id="node2" class="node">
<title>C&#45;0292</title>
<ellipse fill="mediumseagreen" stroke="black" cx="1512" cy="-728.5" rx="72" ry="21.5"/>
<text text-anchor="middle" x="1512" y="-726" font-family="Arial" font-size="10.00">C&#45;0292</text>
</g>
<!-- C&#45;1041 -->
<g id="node14" class="node">
<title>C&#45;1041</title>
<ellipse fill="tomato" stroke="black" cx="1512" cy="-627.5" rx="72" ry="21.5"/>
<text text-anchor="middle" x="1512" y="-625" font-family="Arial" font-size="10.00">C&#45;1041</text>
</g>
<!-- C&#45;0292&#45;&gt;C&#45;1041 -->
<g id="edge23" class="edge">
<title>C&#45;0292&#45;&gt;C&#45;1041</title>
<path fill="none" stroke="#4d4d4d" d="M1512,-706.58C1512,-706.58 1512,-656.03 1512,-656.03"/>
<polygon fill="#4d4d4d" stroke="#4d4d4d" points="1514.45,-656.03 1512,-649.03 1509.55,-656.03 1514.45,-656.03"/>
</g>
<!-- C&#45;1042 -->
<g id="node51" class="node">
<title>C&#45;1042</title>
<ellipse fill="mediumseagreen" stroke="black" cx="1332" cy="-627.5" rx="72" ry="21.5"/>
<text text-anchor="middle" x="1332" y="-625" font-family="Arial" font-size="10.00">C&#45;1042</text>
</g>
<!-- C&#45;0292&#45;&gt;C&#45;1042 -->
<g id="edge24" class="edge">
<title>C&#45;0292&#45;&gt;C&#45;1042</title>
<path fill="none" stroke="#4d4d4d" d="M1439.73,-728C1426.09,-728 1416,-728 1416,-728 1416,-728 1416,-627 1416,-627 1416,-627 1411.32,-627 1411.32,-627"/>
<polygon fill="#4d4d4d" stroke="#4d4d4d" points="1411.32,-624.55 1404.32,-627 1411.32,-629.45 1411.32,-624.55"/>
</g>
<!-- S&#45;1894 -->
<g id="node3" class="node">
<title>S&#45;1894</title>
<polygon fill="mediumseagreen" stroke="black" points="1512,-245 1440,-223.5 1512,-202 1584,-223.5 1512,-245"/>
<text text-anchor="middle" x="1512" y="-221" font-family="Arial" font-size="10.00">S&#45;1894</text>
</g>
<!-- C&#45;0826 -->
<g id="node4" class="node">
<title>C&#45;0826</title>
<ellipse fill="mediumseagreen" stroke="black" cx="252" cy="-526.5" rx="72" ry="21.5"/>
<text text-anchor="middle" x="252" y="-524" font-family="Arial" font-size="10.00">C&#45;0826</text>
</g>
<!-- R&#45;186 -->
<g id="node17" class="node">
<title>R&#45;186</title>
<polygon fill="tomato" stroke="black" points="298,-416.59 298,-434.41 255.82,-447 196.18,-447 154,-434.41 154,-416.59 196.18,-404 255.82,-404 298,-416.59"/>
<text text-anchor="middle" x="226" y="-423" font-family="Arial" font-size="10.00">R&#45;186</text>
</g>
<!-- C&#45;0826&#45;&gt;R&#45;186 -->
<g id="edge54" class="edge">
<title>C&#45;0826&#45;&gt;R&#45;186</title>
<path fill="none" stroke="#4d4d4d" d="M239,-505.08C239,-505.08 239,-454.24 239,-454.24"/>
<polygon fill="#4d4d4d" stroke="#4d4d4d" points="241.45,-454.24 239,-447.24 236.55,-454.24 241.45,-454.24"/>
</g>
<!-- C&#45;0522 -->
<g id="node5" class="node">
<title>C&#45;0522</title>
<ellipse fill="tomato" stroke="black" cx="356" cy="-1132.5" rx="72" ry="21.5"/>
<text text-anchor="middle" x="356" y="-1130" font-family="Arial" font-size="10.00">C&#45;0522</text>
</g>
<!-- C&#45;0521 -->
<g id="node41" class="node">
<title>C&#45;0521</title>
<ellipse fill="mediumseagreen" stroke="black" cx="972" cy="-930.5" rx="72" ry="21.5"/>
<text text-anchor="middle" x="972" y="-928" font-family="Arial" font-size="10.00">C&#45;0521</text>
</g>
<!-- C&#45;0522&#45;&gt;C&#45;0521 -->
<g id="edge57" class="edge">
<title>C&#45;0522&#45;&gt;C&#45;0521</title>
<path fill="none" stroke="blue" stroke-dasharray="5,2" d="M372.5,-1111.39C372.5,-1067.61 372.5,-971 372.5,-971 372.5,-971 931.33,-971 931.33,-971 931.33,-971 931.33,-955.38 931.33,-955.38"/>
<polygon fill="blue" stroke="blue" points="933.78,-955.38 931.33,-948.38 928.88,-955.38 933.78,-955.38"/>
</g>
<!-- S&#45;1787 -->
<g id="node6" class="node">
<title>S&#45;1787</title>
<polygon fill="mediumseagreen" stroke="black" points="536,-1154 464,-1132.5 536,-1111 608,-1132.5 536,-1154"/>
<text text-anchor="middle" x="536" y="-1130" font-family="Arial" font-size="10.00">S&#45;1787</text>
</g>
<!-- C&#45;0399 -->
<g id="node7" class="node">
<title>C&#45;0399</title>
<ellipse fill="mediumseagreen" stroke="black" cx="716" cy="-1132.5" rx="72" ry="21.5"/>
<text text-anchor="middle" x="716" y="-1130" font-family="Arial" font-size="10.00">C&#45;0399</text>
</g>
<!-- R&#45;136 -->
<g id="node45" class="node">
<title>R&#45;136</title>
<polygon fill="mediumseagreen" stroke="black" points="529,-1022.59 529,-1040.41 486.82,-1053 427.18,-1053 385,-1040.41 385,-1022.59 427.18,-1010 486.82,-1010 529,-1022.59"/>
<text text-anchor="middle" x="457" y="-1029" font-family="Arial" font-size="10.00">R&#45;136</text>
</g>
<!-- C&#45;0399&#45;&gt;R&#45;136 -->
<g id="edge44" class="edge">
<title>C&#45;0399&#45;&gt;R&#45;136</title>
<path fill="none" stroke="#4d4d4d" d="M664,-1117.52C664,-1089.29 664,-1031 664,-1031 664,-1031 536.11,-1031 536.11,-1031"/>
<polygon fill="#4d4d4d" stroke="#4d4d4d" points="536.11,-1028.55 529.11,-1031 536.11,-1033.45 536.11,-1028.55"/>
</g>
<!-- S&#45;2459 -->
<g id="node8" class="node">
<title>S&#45;2459</title>
<polygon fill="mediumseagreen" stroke="black" points="2269,-649 2197,-627.5 2269,-606 2341,-627.5 2269,-649"/>
<text text-anchor="middle" x="2269" y="-625" font-family="Arial" font-size="10.00">S&#45;2459</text>
</g>
<!-- R&#45;300 -->
<g id="node9" class="node">
<title>R&#45;300</title>
<polygon fill="tomato" stroke="black" points="1674,-416.59 1674,-434.41 1631.82,-447 1572.18,-447 1530,-434.41 1530,-416.59 1572.18,-404 1631.82,-404 1674,-416.59"/>
<text text-anchor="middle" x="1602" y="-423" font-family="Arial" font-size="10.00">R&#45;300</text>
</g>
<!-- ext_circ_109_25_ -->
<g id="node58" class="node">
<title>ext_circ_109_25_</title>
<polygon fill="lightpink" stroke="darkorange" stroke-dasharray="5,2" points="1764,-346 1620,-346 1620,-303 1764,-303 1764,-346"/>
<text text-anchor="middle" x="1692" y="-327.5" font-family="Arial" font-size="10.00">Circuito:</text>
<text text-anchor="middle" x="1692" y="-316.5" font-family="Arial" font-size="10.00">109&#45;25&#45;</text>
</g>
<!-- R&#45;300&#45;&gt;ext_circ_109_25_ -->
<g id="edge58" class="edge">
<title>R&#45;300&#45;&gt;ext_circ_109_25_</title>
<path fill="none" stroke="darkorange" stroke-dasharray="5,2" d="M1647,-408.37C1647,-408.37 1647,-353.31 1647,-353.31"/>
<polygon fill="darkorange" stroke="darkorange" points="1649.45,-353.31 1647,-346.31 1644.55,-353.31 1649.45,-353.31"/>
</g>
<!-- C&#45;1040 -->
<g id="node10" class="node">
<title>C&#45;1040</title>
<ellipse fill="mediumseagreen" stroke="black" cx="1332" cy="-425.5" rx="72" ry="21.5"/>
<text text-anchor="middle" x="1332" y="-423" font-family="Arial" font-size="10.00">C&#45;1040</text>
</g>
<!-- C&#45;0640 -->
<g id="node55" class="node">
<title>C&#45;0640</title>
<ellipse fill="mediumseagreen" stroke="black" cx="1332" cy="-324.5" rx="72" ry="21.5"/>
<text text-anchor="middle" x="1332" y="-322" font-family="Arial" font-size="10.00">C&#45;0640</text>
</g>
<!-- C&#45;1040&#45;&gt;C&#45;0640 -->
<g id="edge27" class="edge">
<title>C&#45;1040&#45;&gt;C&#45;0640</title>
<path fill="none" stroke="#4d4d4d" d="M1332,-403.58C1332,-403.58 1332,-353.03 1332,-353.03"/>
<polygon fill="#4d4d4d" stroke="#4d4d4d" points="1334.45,-353.03 1332,-346.03 1329.55,-353.03 1334.45,-353.03"/>
</g>
<!-- C&#45;0523 -->
<g id="node11" class="node">
<title>C&#45;0523</title>
<ellipse fill="mediumseagreen" stroke="black" cx="896" cy="-1132.5" rx="72" ry="21.5"/>
<text text-anchor="middle" x="896" y="-1130" font-family="Arial" font-size="10.00">C&#45;0523</text>
</g>
<!-- R&#45;027 -->
<g id="node37" class="node">
<title>R&#45;027</title>
<polygon fill="mediumseagreen" stroke="black" points="994,-1022.59 994,-1040.41 951.82,-1053 892.18,-1053 850,-1040.41 850,-1022.59 892.18,-1010 951.82,-1010 994,-1022.59"/>
<text text-anchor="middle" x="922" y="-1029" font-family="Arial" font-size="10.00">R&#45;027</text>
</g>
<!-- C&#45;0523&#45;&gt;R&#45;027 -->
<g id="edge7" class="edge">
<title>C&#45;0523&#45;&gt;R&#45;027</title>
<path fill="none" stroke="#4d4d4d" d="M909,-1111.08C909,-1111.08 909,-1060.24 909,-1060.24"/>
<polygon fill="#4d4d4d" stroke="#4d4d4d" points="911.45,-1060.24 909,-1053.24 906.55,-1060.24 911.45,-1060.24"/>
</g>
<!-- S&#45;108A -->
<g id="node12" class="node">
<title>S&#45;108A</title>
<polygon fill="tomato" stroke="black" points="1152,-144 1080,-122.5 1152,-101 1224,-122.5 1152,-144"/>
<text text-anchor="middle" x="1152" y="-120" font-family="Arial" font-size="10.00">S&#45;108A</text>
</g>
<!-- ext_circ_109_26_ -->
<g id="node60" class="node">
<title>ext_circ_109_26_</title>
<polygon fill="lightpink" stroke="darkorange" stroke-dasharray="5,2" points="1224,-43 1080,-43 1080,0 1224,0 1224,-43"/>
<text text-anchor="middle" x="1152" y="-24.5" font-family="Arial" font-size="10.00">Circuito:</text>
<text text-anchor="middle" x="1152" y="-13.5" font-family="Arial" font-size="10.00">109&#45;26&#45;</text>
</g>
<!-- S&#45;108A&#45;&gt;ext_circ_109_26_ -->
<g id="edge62" class="edge">
<title>S&#45;108A&#45;&gt;ext_circ_109_26_</title>
<path fill="none" stroke="darkorange" stroke-dasharray="5,2" d="M1152,-100.58C1152,-100.58 1152,-50.03 1152,-50.03"/>
<polygon fill="darkorange" stroke="darkorange" points="1154.45,-50.03 1152,-43.03 1149.55,-50.03 1154.45,-50.03"/>
</g>
<!-- C&#45;0827 -->
<g id="node13" class="node">
<title>C&#45;0827</title>
<ellipse fill="tomato" stroke="black" cx="406" cy="-425.5" rx="72" ry="21.5"/>
<text text-anchor="middle" x="406" y="-423" font-family="Arial" font-size="10.00">C&#45;0827</text>
</g>
<!-- ext_circ_112_23_ -->
<g id="node62" class="node">
<title>ext_circ_112_23_</title>
<polygon fill="lightpink" stroke="darkorange" stroke-dasharray="5,2" points="383,-346 239,-346 239,-303 383,-303 383,-346"/>
<text text-anchor="middle" x="311" y="-327.5" font-family="Arial" font-size="10.00">Circuito:</text>
<text text-anchor="middle" x="311" y="-316.5" font-family="Arial" font-size="10.00">112&#45;23&#45;</text>
</g>
<!-- C&#45;0827&#45;&gt;ext_circ_112_23_ -->
<g id="edge68" class="edge">
<title>C&#45;0827&#45;&gt;ext_circ_112_23_</title>
<path fill="none" stroke="darkorange" stroke-dasharray="5,2" d="M358.5,-409.27C358.5,-409.27 358.5,-353.34 358.5,-353.34"/>
<polygon fill="darkorange" stroke="darkorange" points="360.95,-353.34 358.5,-346.34 356.05,-353.34 360.95,-353.34"/>
</g>
<!-- C&#45;1041&#45;&gt;C&#45;1040 -->
<g id="edge60" class="edge">
<title>C&#45;1041&#45;&gt;C&#45;1040</title>
<path fill="none" stroke="blue" stroke-dasharray="5,2" d="M1470,-609.88C1470,-560.62 1470,-425 1470,-425 1470,-425 1411.23,-425 1411.23,-425"/>
<polygon fill="blue" stroke="blue" points="1411.23,-422.55 1404.23,-425 1411.23,-427.45 1411.23,-422.55"/>
</g>
<!-- C&#45;1224 -->
<g id="node15" class="node">
<title>C&#45;1224</title>
<ellipse fill="tomato" stroke="black" cx="1782" cy="-425.5" rx="72" ry="21.5"/>
<text text-anchor="middle" x="1782" y="-423" font-family="Arial" font-size="10.00">C&#45;1224</text>
</g>
<!-- C&#45;1224&#45;&gt;ext_circ_109_25_ -->
<g id="edge59" class="edge">
<title>C&#45;1224&#45;&gt;ext_circ_109_25_</title>
<path fill="none" stroke="darkorange" stroke-dasharray="5,2" d="M1737,-408.37C1737,-408.37 1737,-353.31 1737,-353.31"/>
<polygon fill="darkorange" stroke="darkorange" points="1739.45,-353.31 1737,-346.31 1734.55,-353.31 1739.45,-353.31"/>
</g>
<!-- C&#45;0936 -->
<g id="node16" class="node">
<title>C&#45;0936</title>
<ellipse fill="tomato" stroke="black" cx="972" cy="-122.5" rx="72" ry="21.5"/>
<text text-anchor="middle" x="972" y="-120" font-family="Arial" font-size="10.00">C&#45;0936</text>
</g>
<!-- S&#45;1572 -->
<g id="node38" class="node">
<title>S&#45;1572</title>
<polygon fill="mediumseagreen" stroke="black" points="612,-750 540,-728.5 612,-707 684,-728.5 612,-750"/>
<text text-anchor="middle" x="612" y="-726" font-family="Arial" font-size="10.00">S&#45;1572</text>
</g>
<!-- C&#45;0936&#45;&gt;S&#45;1572 -->
<g id="edge63" class="edge">
<title>C&#45;0936&#45;&gt;S&#45;1572</title>
<path fill="none" stroke="blue" stroke-dasharray="5,2" d="M900.01,-122C794.96,-122 612,-122 612,-122 612,-122 612,-699.91 612,-699.91"/>
<polygon fill="blue" stroke="blue" points="609.55,-699.91 612,-706.91 614.45,-699.91 609.55,-699.91"/>
</g>
<!-- R&#45;186&#45;&gt;ext_circ_112_23_ -->
<g id="edge67" class="edge">
<title>R&#45;186&#45;&gt;ext_circ_112_23_</title>
<path fill="none" stroke="darkorange" stroke-dasharray="5,2" d="M268.5,-407.44C268.5,-407.44 268.5,-353.27 268.5,-353.27"/>
<polygon fill="darkorange" stroke="darkorange" points="270.95,-353.27 268.5,-346.27 266.05,-353.27 270.95,-353.27"/>
</g>
<!-- R&#45;222 -->
<g id="node18" class="node">
<title>R&#45;222</title>
<polygon fill="mediumseagreen" stroke="black" points="324,-719.59 324,-737.41 281.82,-750 222.18,-750 180,-737.41 180,-719.59 222.18,-707 281.82,-707 324,-719.59"/>
<text text-anchor="middle" x="252" y="-726" font-family="Arial" font-size="10.00">R&#45;222</text>
</g>
<!-- C&#45;0947 -->
<g id="node42" class="node">
<title>C&#45;0947</title>
<ellipse fill="mediumseagreen" stroke="black" cx="252" cy="-627.5" rx="72" ry="21.5"/>
<text text-anchor="middle" x="252" y="-625" font-family="Arial" font-size="10.00">C&#45;0947</text>
</g>
<!-- R&#45;222&#45;&gt;C&#45;0947 -->
<g id="edge51" class="edge">
<title>R&#45;222&#45;&gt;C&#45;0947</title>
<path fill="none" stroke="#4d4d4d" d="M252,-706.58C252,-706.58 252,-656.03 252,-656.03"/>
<polygon fill="#4d4d4d" stroke="#4d4d4d" points="254.45,-656.03 252,-649.03 249.55,-656.03 254.45,-656.03"/>
</g>
<!-- C&#45;1217 -->
<g id="node19" class="node">
<title>C&#45;1217</title>
<ellipse fill="mediumseagreen" stroke="black" cx="1615" cy="-526.5" rx="72" ry="21.5"/>
<text text-anchor="middle" x="1615" y="-524" font-family="Arial" font-size="10.00">C&#45;1217</text>
</g>
<!-- C&#45;1217&#45;&gt;R&#45;300 -->
<g id="edge19" class="edge">
<title>C&#45;1217&#45;&gt;R&#45;300</title>
<path fill="none" stroke="#4d4d4d" d="M1608.5,-505.08C1608.5,-505.08 1608.5,-454.24 1608.5,-454.24"/>
<polygon fill="#4d4d4d" stroke="#4d4d4d" points="1610.95,-454.24 1608.5,-447.24 1606.05,-454.24 1610.95,-454.24"/>
</g>
<!-- C&#45;0948 -->
<g id="node20" class="node">
<title>C&#45;0948</title>
<ellipse fill="tomato" stroke="black" cx="72" cy="-829.5" rx="72" ry="21.5"/>
<text text-anchor="middle" x="72" y="-827" font-family="Arial" font-size="10.00">C&#45;0948</text>
</g>
<!-- C&#45;0948&#45;&gt;C&#45;0947 -->
<g id="edge66" class="edge">
<title>C&#45;0948&#45;&gt;C&#45;0947</title>
<path fill="none" stroke="blue" stroke-dasharray="5,2" d="M48,-808.95C48,-758.75 48,-634 48,-634 48,-634 176.22,-634 176.22,-634"/>
<polygon fill="blue" stroke="blue" points="176.22,-636.45 183.22,-634 176.22,-631.55 176.22,-636.45"/>
</g>
<!-- S&#45;2174 -->
<g id="node21" class="node">
<title>S&#45;2174</title>
<polygon fill="mediumseagreen" stroke="black" points="2449,-649 2377,-627.5 2449,-606 2521,-627.5 2449,-649"/>
<text text-anchor="middle" x="2449" y="-625" font-family="Arial" font-size="10.00">S&#45;2174</text>
</g>
<!-- S&#45;889 -->
<g id="node40" class="node">
<title>S&#45;889</title>
<polygon fill="mediumseagreen" stroke="black" points="2449,-548 2377,-526.5 2449,-505 2521,-526.5 2449,-548"/>
<text text-anchor="middle" x="2449" y="-524" font-family="Arial" font-size="10.00">S&#45;889</text>
</g>
<!-- S&#45;2174&#45;&gt;S&#45;889 -->
<g id="edge14" class="edge">
<title>S&#45;2174&#45;&gt;S&#45;889</title>
<path fill="none" stroke="#4d4d4d" d="M2449,-605.58C2449,-605.58 2449,-555.03 2449,-555.03"/>
<polygon fill="#4d4d4d" stroke="#4d4d4d" points="2451.45,-555.03 2449,-548.03 2446.55,-555.03 2451.45,-555.03"/>
</g>
<!-- C&#45;0398 -->
<g id="node22" class="node">
<title>C&#45;0398</title>
<ellipse fill="tomato" stroke="black" cx="1076" cy="-1132.5" rx="72" ry="21.5"/>
<text text-anchor="middle" x="1076" y="-1130" font-family="Arial" font-size="10.00">C&#45;0398</text>
</g>
<!-- C&#45;0400 -->
<g id="node36" class="node">
<title>C&#45;0400</title>
<ellipse fill="mediumseagreen" stroke="black" cx="432" cy="-930.5" rx="72" ry="21.5"/>
<text text-anchor="middle" x="432" y="-928" font-family="Arial" font-size="10.00">C&#45;0400</text>
</g>
<!-- C&#45;0398&#45;&gt;C&#45;0400 -->
<g id="edge64" class="edge">
<title>C&#45;0398&#45;&gt;C&#45;0400</title>
<path fill="none" stroke="blue" stroke-dasharray="5,2" d="M1024,-1117.52C1024,-1080.93 1024,-990 1024,-990 1024,-990 464.33,-990 464.33,-990 464.33,-990 464.33,-956.98 464.33,-956.98"/>
<polygon fill="blue" stroke="blue" points="466.78,-956.98 464.33,-949.98 461.88,-956.98 466.78,-956.98"/>
</g>
<!-- C&#45;0517 -->
<g id="node23" class="node">
<title>C&#45;0517</title>
<ellipse fill="mediumseagreen" stroke="black" cx="972" cy="-829.5" rx="72" ry="21.5"/>
<text text-anchor="middle" x="972" y="-827" font-family="Arial" font-size="10.00">C&#45;0517</text>
</g>
<!-- S&#45;1833 -->
<g id="node26" class="node">
<title>S&#45;1833</title>
<polygon fill="mediumseagreen" stroke="black" points="1152,-750 1080,-728.5 1152,-707 1224,-728.5 1152,-750"/>
<text text-anchor="middle" x="1152" y="-726" font-family="Arial" font-size="10.00">S&#45;1833</text>
</g>
<!-- C&#45;0517&#45;&gt;S&#45;1833 -->
<g id="edge37" class="edge">
<title>C&#45;0517&#45;&gt;S&#45;1833</title>
<path fill="none" stroke="#4d4d4d" d="M1033.04,-818C1071.53,-818 1114,-818 1114,-818 1114,-818 1114,-745.77 1114,-745.77"/>
<polygon fill="#4d4d4d" stroke="#4d4d4d" points="1116.45,-745.77 1114,-738.77 1111.55,-745.77 1116.45,-745.77"/>
</g>
<!-- S&#45;2474 -->
<g id="node27" class="node">
<title>S&#45;2474</title>
<polygon fill="mediumseagreen" stroke="black" points="1332,-750 1260,-728.5 1332,-707 1404,-728.5 1332,-750"/>
<text text-anchor="middle" x="1332" y="-726" font-family="Arial" font-size="10.00">S&#45;2474</text>
</g>
<!-- C&#45;0517&#45;&gt;S&#45;2474 -->
<g id="edge39" class="edge">
<title>C&#45;0517&#45;&gt;S&#45;2474</title>
<path fill="none" stroke="#4d4d4d" d="M1034.85,-840C1128.56,-840 1294,-840 1294,-840 1294,-840 1294,-745.79 1294,-745.79"/>
<polygon fill="#4d4d4d" stroke="#4d4d4d" points="1296.45,-745.79 1294,-738.79 1291.55,-745.79 1296.45,-745.79"/>
</g>
<!-- C&#45;0517&#45;&gt;S&#45;1572 -->
<g id="edge38" class="edge">
<title>C&#45;0517&#45;&gt;S&#45;1572</title>
<path fill="none" stroke="#4d4d4d" d="M903.17,-836C823.17,-836 702,-836 702,-836 702,-836 702,-728 702,-728 702,-728 689.47,-728 689.47,-728"/>
<polygon fill="#4d4d4d" stroke="#4d4d4d" points="689.47,-725.55 682.47,-728 689.47,-730.45 689.47,-725.55"/>
</g>
<!-- S&#45;2473 -->
<g id="node39" class="node">
<title>S&#45;2473</title>
<polygon fill="mediumseagreen" stroke="black" points="792,-750 720,-728.5 792,-707 864,-728.5 792,-750"/>
<text text-anchor="middle" x="792" y="-726" font-family="Arial" font-size="10.00">S&#45;2473</text>
</g>
<!-- C&#45;0517&#45;&gt;S&#45;2473 -->
<g id="edge40" class="edge">
<title>C&#45;0517&#45;&gt;S&#45;2473</title>
<path fill="none" stroke="#4d4d4d" d="M904.44,-822C879.41,-822 857,-822 857,-822 857,-822 857,-737.81 857,-737.81"/>
<polygon fill="#4d4d4d" stroke="#4d4d4d" points="859.45,-737.81 857,-730.81 854.55,-737.81 859.45,-737.81"/>
</g>
<!-- S&#45;1933 -->
<g id="node57" class="node">
<title>S&#45;1933</title>
<polygon fill="mediumseagreen" stroke="black" points="972,-750 900,-728.5 972,-707 1044,-728.5 972,-750"/>
<text text-anchor="middle" x="972" y="-726" font-family="Arial" font-size="10.00">S&#45;1933</text>
</g>
<!-- C&#45;0517&#45;&gt;S&#45;1933 -->
<g id="edge41" class="edge">
<title>C&#45;0517&#45;&gt;S&#45;1933</title>
<path fill="none" stroke="#4d4d4d" d="M972,-807.58C972,-807.58 972,-757.03 972,-757.03"/>
<polygon fill="#4d4d4d" stroke="#4d4d4d" points="974.45,-757.03 972,-750.03 969.55,-757.03 974.45,-757.03"/>
</g>
<!-- C&#45;0949 -->
<g id="node24" class="node">
<title>C&#45;0949</title>
<ellipse fill="mediumseagreen" stroke="black" cx="252" cy="-829.5" rx="72" ry="21.5"/>
<text text-anchor="middle" x="252" y="-827" font-family="Arial" font-size="10.00">C&#45;0949</text>
</g>
<!-- C&#45;0949&#45;&gt;R&#45;222 -->
<g id="edge50" class="edge">
<title>C&#45;0949&#45;&gt;R&#45;222</title>
<path fill="none" stroke="#4d4d4d" d="M252,-807.58C252,-807.58 252,-757.03 252,-757.03"/>
<polygon fill="#4d4d4d" stroke="#4d4d4d" points="254.45,-757.03 252,-750.03 249.55,-757.03 254.45,-757.03"/>
</g>
<!-- C&#45;1258 -->
<g id="node25" class="node">
<title>C&#45;1258</title>
<ellipse fill="tomato" stroke="black" cx="1332" cy="-122.5" rx="72" ry="21.5"/>
<text text-anchor="middle" x="1332" y="-120" font-family="Arial" font-size="10.00">C&#45;1258</text>
</g>
<!-- ext_circ__NA_ -->
<g id="node59" class="node">
<title>ext_circ__NA_</title>
<polygon fill="lightpink" stroke="darkorange" stroke-dasharray="5,2" points="1404,-43 1260,-43 1260,0 1404,0 1404,-43"/>
<text text-anchor="middle" x="1332" y="-24.5" font-family="Arial" font-size="10.00">Circuito:</text>
<text text-anchor="middle" x="1332" y="-13.5" font-family="Arial" font-size="10.00">&lt;NA&gt;</text>
</g>
<!-- C&#45;1258&#45;&gt;ext_circ__NA_ -->
<g id="edge61" class="edge">
<title>C&#45;1258&#45;&gt;ext_circ__NA_</title>
<path fill="none" stroke="darkorange" stroke-dasharray="5,2" d="M1332,-100.58C1332,-100.58 1332,-50.03 1332,-50.03"/>
<polygon fill="darkorange" stroke="darkorange" points="1334.45,-50.03 1332,-43.03 1329.55,-50.03 1334.45,-50.03"/>
</g>
<!-- S&#45;2404 -->
<g id="node28" class="node">
<title>S&#45;2404</title>
<polygon fill="mediumseagreen" stroke="black" points="1512,-144 1440,-122.5 1512,-101 1584,-122.5 1512,-144"/>
<text text-anchor="middle" x="1512" y="-120" font-family="Arial" font-size="10.00">S&#45;2404</text>
</g>
<!-- S&#45;107 -->
<g id="node29" class="node">
<title>S&#45;107</title>
<polygon fill="mediumseagreen" stroke="black" points="1152,-245 1080,-223.5 1152,-202 1224,-223.5 1152,-245"/>
<text text-anchor="middle" x="1152" y="-221" font-family="Arial" font-size="10.00">S&#45;107</text>
</g>
<!-- C&#45;0808 -->
<g id="node30" class="node">
<title>C&#45;0808</title>
<ellipse fill="mediumseagreen" stroke="black" cx="896" cy="-1233.5" rx="72" ry="21.5"/>
<text text-anchor="middle" x="896" y="-1231" font-family="Arial" font-size="10.00">C&#45;0808</text>
</g>
<!-- C&#45;0808&#45;&gt;C&#45;0522 -->
<g id="edge5" class="edge">
<title>C&#45;0808&#45;&gt;C&#45;0522</title>
<path fill="none" stroke="#4d4d4d" d="M833,-1244C690.55,-1244 356,-1244 356,-1244 356,-1244 356,-1161.26 356,-1161.26"/>
<polygon fill="#4d4d4d" stroke="#4d4d4d" points="358.45,-1161.26 356,-1154.26 353.55,-1161.26 358.45,-1161.26"/>
</g>
<!-- C&#45;0808&#45;&gt;S&#45;1787 -->
<g id="edge4" class="edge">
<title>C&#45;0808&#45;&gt;S&#45;1787</title>
<path fill="none" stroke="#4d4d4d" d="M824.01,-1233C718.96,-1233 536,-1233 536,-1233 536,-1233 536,-1161.31 536,-1161.31"/>
<polygon fill="#4d4d4d" stroke="#4d4d4d" points="538.45,-1161.31 536,-1154.31 533.55,-1161.31 538.45,-1161.31"/>
</g>
<!-- C&#45;0808&#45;&gt;C&#45;0399 -->
<g id="edge42" class="edge">
<title>C&#45;0808&#45;&gt;C&#45;0399</title>
<path fill="none" stroke="#4d4d4d" d="M835.06,-1222C782.84,-1222 716,-1222 716,-1222 716,-1222 716,-1161.17 716,-1161.17"/>
<polygon fill="#4d4d4d" stroke="#4d4d4d" points="718.45,-1161.17 716,-1154.17 713.55,-1161.17 718.45,-1161.17"/>
</g>
<!-- C&#45;0808&#45;&gt;C&#45;0523 -->
<g id="edge6" class="edge">
<title>C&#45;0808&#45;&gt;C&#45;0523</title>
<path fill="none" stroke="#4d4d4d" d="M896,-1211.58C896,-1211.58 896,-1161.03 896,-1161.03"/>
<polygon fill="#4d4d4d" stroke="#4d4d4d" points="898.45,-1161.03 896,-1154.03 893.55,-1161.03 898.45,-1161.03"/>
</g>
<!-- C&#45;0808&#45;&gt;C&#45;0398 -->
<g id="edge43" class="edge">
<title>C&#45;0808&#45;&gt;C&#45;0398</title>
<path fill="none" stroke="#4d4d4d" d="M956.94,-1222C1009.16,-1222 1076,-1222 1076,-1222 1076,-1222 1076,-1161.17 1076,-1161.17"/>
<polygon fill="#4d4d4d" stroke="#4d4d4d" points="1078.45,-1161.17 1076,-1154.17 1073.55,-1161.17 1078.45,-1161.17"/>
</g>
<!-- S&#45;039 -->
<g id="node48" class="node">
<title>S&#45;039</title>
<polygon fill="mediumseagreen" stroke="black" points="1256,-1154 1184,-1132.5 1256,-1111 1328,-1132.5 1256,-1154"/>
<text text-anchor="middle" x="1256" y="-1130" font-family="Arial" font-size="10.00">S&#45;039</text>
</g>
<!-- C&#45;0808&#45;&gt;S&#45;039 -->
<g id="edge3" class="edge">
<title>C&#45;0808&#45;&gt;S&#45;039</title>
<path fill="none" stroke="#4d4d4d" d="M967.99,-1233C1073.04,-1233 1256,-1233 1256,-1233 1256,-1233 1256,-1161.31 1256,-1161.31"/>
<polygon fill="#4d4d4d" stroke="#4d4d4d" points="1258.45,-1161.31 1256,-1154.31 1253.55,-1161.31 1258.45,-1161.31"/>
</g>
<!-- S&#45;041 -->
<g id="node49" class="node">
<title>S&#45;041</title>
<polygon fill="mediumseagreen" stroke="black" points="1436,-1154 1364,-1132.5 1436,-1111 1508,-1132.5 1436,-1154"/>
<text text-anchor="middle" x="1436" y="-1130" font-family="Arial" font-size="10.00">S&#45;041</text>
</g>
<!-- C&#45;0808&#45;&gt;S&#45;041 -->
<g id="edge56" class="edge">
<title>C&#45;0808&#45;&gt;S&#45;041</title>
<path fill="none" stroke="#4d4d4d" d="M959,-1244C1101.45,-1244 1436,-1244 1436,-1244 1436,-1244 1436,-1161.26 1436,-1161.26"/>
<polygon fill="#4d4d4d" stroke="#4d4d4d" points="1438.45,-1161.26 1436,-1154.26 1433.55,-1161.26 1438.45,-1161.26"/>
</g>
<!-- S&#45;1506 -->
<g id="node31" class="node">
<title>S&#45;1506</title>
<polygon fill="mediumseagreen" stroke="black" points="72,-548 0,-526.5 72,-505 144,-526.5 72,-548"/>
<text text-anchor="middle" x="72" y="-524" font-family="Arial" font-size="10.00">S&#45;1506</text>
</g>
<!-- C&#45;1032 -->
<g id="node32" class="node">
<title>C&#45;1032</title>
<ellipse fill="mediumseagreen" stroke="black" cx="1692" cy="-728.5" rx="72" ry="21.5"/>
<text text-anchor="middle" x="1692" y="-726" font-family="Arial" font-size="10.00">C&#45;1032</text>
</g>
<!-- C&#45;0174 -->
<g id="node50" class="node">
<title>C&#45;0174</title>
<ellipse fill="mediumseagreen" stroke="black" cx="1692" cy="-627.5" rx="72" ry="21.5"/>
<text text-anchor="middle" x="1692" y="-625" font-family="Arial" font-size="10.00">C&#45;0174</text>
</g>
<!-- C&#45;1032&#45;&gt;C&#45;0174 -->
<g id="edge17" class="edge">
<title>C&#45;1032&#45;&gt;C&#45;0174</title>
<path fill="none" stroke="#4d4d4d" d="M1692,-706.58C1692,-706.58 1692,-656.03 1692,-656.03"/>
<polygon fill="#4d4d4d" stroke="#4d4d4d" points="1694.45,-656.03 1692,-649.03 1689.55,-656.03 1694.45,-656.03"/>
</g>
<!-- 113&#45;23&#45; -->
<g id="node33" class="node">
<title>113&#45;23&#45;</title>
<polygon fill="gold" stroke="black" points="968,-1430.59 968,-1448.41 925.82,-1461 866.18,-1461 824,-1448.41 824,-1430.59 866.18,-1418 925.82,-1418 968,-1430.59"/>
<polygon fill="none" stroke="black" points="972,-1427.61 972,-1451.39 926.41,-1465 865.59,-1465 820,-1451.39 820,-1427.61 865.59,-1414 926.41,-1414 972,-1427.61"/>
<text text-anchor="middle" x="896" y="-1437" font-family="Arial" font-size="10.00">113&#45;23&#45;</text>
</g>
<!-- C&#45;0784 -->
<g id="node56" class="node">
<title>C&#45;0784</title>
<ellipse fill="mediumseagreen" stroke="black" cx="896" cy="-1334.5" rx="72" ry="21.5"/>
<text text-anchor="middle" x="896" y="-1332" font-family="Arial" font-size="10.00">C&#45;0784</text>
</g>
<!-- 113&#45;23&#45;&#45;&gt;C&#45;0784 -->
<g id="edge1" class="edge">
<title>113&#45;23&#45;&#45;&gt;C&#45;0784</title>
<path fill="none" stroke="#4d4d4d" d="M896,-1413.81C896,-1413.81 896,-1363.03 896,-1363.03"/>
<polygon fill="#4d4d4d" stroke="#4d4d4d" points="898.45,-1363.03 896,-1356.03 893.55,-1363.03 898.45,-1363.03"/>
</g>
<!-- S&#45;2367 -->
<g id="node34" class="node">
<title>S&#45;2367</title>
<polygon fill="mediumseagreen" stroke="black" points="1946,-750 1874,-728.5 1946,-707 2018,-728.5 1946,-750"/>
<text text-anchor="middle" x="1946" y="-726" font-family="Arial" font-size="10.00">S&#45;2367</text>
</g>
<!-- S&#45;599 -->
<g id="node54" class="node">
<title>S&#45;599</title>
<polygon fill="mediumseagreen" stroke="black" points="1909,-649 1837,-627.5 1909,-606 1981,-627.5 1909,-649"/>
<text text-anchor="middle" x="1909" y="-625" font-family="Arial" font-size="10.00">S&#45;599</text>
</g>
<!-- S&#45;2367&#45;&gt;S&#45;599 -->
<g id="edge21" class="edge">
<title>S&#45;2367&#45;&gt;S&#45;599</title>
<path fill="none" stroke="#4d4d4d" d="M1927.5,-712.27C1927.5,-712.27 1927.5,-650.69 1927.5,-650.69"/>
<polygon fill="#4d4d4d" stroke="#4d4d4d" points="1929.95,-650.69 1927.5,-643.69 1925.05,-650.69 1929.95,-650.69"/>
</g>
<!-- R&#45;253 -->
<g id="node35" class="node">
<title>R&#45;253</title>
<polygon fill="mediumseagreen" stroke="black" points="1404,-517.59 1404,-535.41 1361.82,-548 1302.18,-548 1260,-535.41 1260,-517.59 1302.18,-505 1361.82,-505 1404,-517.59"/>
<text text-anchor="middle" x="1332" y="-524" font-family="Arial" font-size="10.00">R&#45;253</text>
</g>
<!-- R&#45;253&#45;&gt;C&#45;1040 -->
<g id="edge26" class="edge">
<title>R&#45;253&#45;&gt;C&#45;1040</title>
<path fill="none" stroke="#4d4d4d" d="M1332,-504.58C1332,-504.58 1332,-454.03 1332,-454.03"/>
<polygon fill="#4d4d4d" stroke="#4d4d4d" points="1334.45,-454.03 1332,-447.03 1329.55,-454.03 1334.45,-454.03"/>
</g>
<!-- C&#45;0400&#45;&gt;C&#45;0948 -->
<g id="edge48" class="edge">
<title>C&#45;0400&#45;&gt;C&#45;0948</title>
<path fill="none" stroke="#4d4d4d" d="M363.01,-937C258.48,-937 72,-937 72,-937 72,-937 72,-858.25 72,-858.25"/>
<polygon fill="#4d4d4d" stroke="#4d4d4d" points="74.45,-858.25 72,-851.25 69.55,-858.25 74.45,-858.25"/>
</g>
<!-- C&#45;0400&#45;&gt;C&#45;0949 -->
<g id="edge49" class="edge">
<title>C&#45;0400&#45;&gt;C&#45;0949</title>
<path fill="none" stroke="#4d4d4d" d="M364.25,-923C333.55,-923 304,-923 304,-923 304,-923 304,-851.52 304,-851.52"/>
<polygon fill="#4d4d4d" stroke="#4d4d4d" points="306.45,-851.52 304,-844.52 301.55,-851.52 306.45,-851.52"/>
</g>
<!-- C&#45;0104 -->
<g id="node47" class="node">
<title>C&#45;0104</title>
<ellipse fill="tomato" stroke="black" cx="432" cy="-829.5" rx="72" ry="21.5"/>
<text text-anchor="middle" x="432" y="-827" font-family="Arial" font-size="10.00">C&#45;0104</text>
</g>
<!-- C&#45;0400&#45;&gt;C&#45;0104 -->
<g id="edge46" class="edge">
<title>C&#45;0400&#45;&gt;C&#45;0104</title>
<path fill="none" stroke="#4d4d4d" d="M432,-908.58C432,-908.58 432,-858.03 432,-858.03"/>
<polygon fill="#4d4d4d" stroke="#4d4d4d" points="434.45,-858.03 432,-851.03 429.55,-858.03 434.45,-858.03"/>
</g>
<!-- S&#45;1899 -->
<g id="node52" class="node">
<title>S&#45;1899</title>
<polygon fill="mediumseagreen" stroke="black" points="612,-851 540,-829.5 612,-808 684,-829.5 612,-851"/>
<text text-anchor="middle" x="612" y="-827" font-family="Arial" font-size="10.00">S&#45;1899</text>
</g>
<!-- C&#45;0400&#45;&gt;S&#45;1899 -->
<g id="edge47" class="edge">
<title>C&#45;0400&#45;&gt;S&#45;1899</title>
<path fill="none" stroke="#4d4d4d" d="M504.25,-930C539.33,-930 574,-930 574,-930 574,-930 574,-846.88 574,-846.88"/>
<polygon fill="#4d4d4d" stroke="#4d4d4d" points="576.45,-846.88 574,-839.88 571.55,-846.88 576.45,-846.88"/>
</g>
<!-- R&#45;027&#45;&gt;C&#45;0521 -->
<g id="edge8" class="edge">
<title>R&#45;027&#45;&gt;C&#45;0521</title>
<path fill="none" stroke="#4d4d4d" d="M962.67,-1012.98C962.67,-1012.98 962.67,-959.06 962.67,-959.06"/>
<polygon fill="#4d4d4d" stroke="#4d4d4d" points="965.12,-959.06 962.67,-952.06 960.22,-959.06 965.12,-959.06"/>
</g>
<!-- C&#45;0521&#45;&gt;C&#45;0517 -->
<g id="edge36" class="edge">
<title>C&#45;0521&#45;&gt;C&#45;0517</title>
<path fill="none" stroke="#4d4d4d" d="M972,-908.58C972,-908.58 972,-858.03 972,-858.03"/>
<polygon fill="#4d4d4d" stroke="#4d4d4d" points="974.45,-858.03 972,-851.03 969.55,-858.03 974.45,-858.03"/>
</g>
<!-- C&#45;0446 -->
<g id="node44" class="node">
<title>C&#45;0446</title>
<ellipse fill="mediumseagreen" stroke="black" cx="1692" cy="-829.5" rx="72" ry="21.5"/>
<text text-anchor="middle" x="1692" y="-827" font-family="Arial" font-size="10.00">C&#45;0446</text>
</g>
<!-- C&#45;0521&#45;&gt;C&#45;0446 -->
<g id="edge9" class="edge">
<title>C&#45;0521&#45;&gt;C&#45;0446</title>
<path fill="none" stroke="#4d4d4d" d="M1044,-930C1226.35,-930 1692,-930 1692,-930 1692,-930 1692,-858.31 1692,-858.31"/>
<polygon fill="#4d4d4d" stroke="#4d4d4d" points="1694.45,-858.31 1692,-851.31 1689.55,-858.31 1694.45,-858.31"/>
</g>
<!-- C&#45;0947&#45;&gt;C&#45;0826 -->
<g id="edge53" class="edge">
<title>C&#45;0947&#45;&gt;C&#45;0826</title>
<path fill="none" stroke="#4d4d4d" d="M252,-605.58C252,-605.58 252,-555.03 252,-555.03"/>
<polygon fill="#4d4d4d" stroke="#4d4d4d" points="254.45,-555.03 252,-548.03 249.55,-555.03 254.45,-555.03"/>
</g>
<!-- C&#45;0947&#45;&gt;C&#45;0827 -->
<g id="edge55" class="edge">
<title>C&#45;0947&#45;&gt;C&#45;0827</title>
<path fill="none" stroke="#4d4d4d" d="M324,-627C337.25,-627 347,-627 347,-627 347,-627 347,-445.1 347,-445.1"/>
<polygon fill="#4d4d4d" stroke="#4d4d4d" points="349.45,-445.1 347,-438.1 344.55,-445.1 349.45,-445.1"/>
</g>
<!-- C&#45;0947&#45;&gt;S&#45;1506 -->
<g id="edge52" class="edge">
<title>C&#45;0947&#45;&gt;S&#45;1506</title>
<path fill="none" stroke="#4d4d4d" d="M184.48,-620C142.32,-620 96,-620 96,-620 96,-620 96,-548.11 96,-548.11"/>
<polygon fill="#4d4d4d" stroke="#4d4d4d" points="98.45,-548.11 96,-541.11 93.55,-548.11 98.45,-548.11"/>
</g>
<!-- S&#45;896 -->
<g id="node43" class="node">
<title>S&#45;896</title>
<polygon fill="mediumseagreen" stroke="black" points="1692,-144 1620,-122.5 1692,-101 1764,-122.5 1692,-144"/>
<text text-anchor="middle" x="1692" y="-120" font-family="Arial" font-size="10.00">S&#45;896</text>
</g>
<!-- C&#45;0446&#45;&gt;C&#45;0292 -->
<g id="edge22" class="edge">
<title>C&#45;0446&#45;&gt;C&#45;0292</title>
<path fill="none" stroke="#4d4d4d" d="M1619.86,-829C1583.07,-829 1546,-829 1546,-829 1546,-829 1546,-754.88 1546,-754.88"/>
<polygon fill="#4d4d4d" stroke="#4d4d4d" points="1548.45,-754.88 1546,-747.88 1543.55,-754.88 1548.45,-754.88"/>
</g>
<!-- C&#45;0446&#45;&gt;C&#45;1032 -->
<g id="edge16" class="edge">
<title>C&#45;0446&#45;&gt;C&#45;1032</title>
<path fill="none" stroke="#4d4d4d" d="M1692,-807.58C1692,-807.58 1692,-757.03 1692,-757.03"/>
<polygon fill="#4d4d4d" stroke="#4d4d4d" points="1694.45,-757.03 1692,-750.03 1689.55,-757.03 1694.45,-757.03"/>
</g>
<!-- C&#45;0446&#45;&gt;S&#45;2367 -->
<g id="edge15" class="edge">
<title>C&#45;0446&#45;&gt;S&#45;2367</title>
<path fill="none" stroke="#4d4d4d" d="M1759.73,-822C1834.98,-822 1946,-822 1946,-822 1946,-822 1946,-757.19 1946,-757.19"/>
<polygon fill="#4d4d4d" stroke="#4d4d4d" points="1948.45,-757.19 1946,-750.19 1943.55,-757.19 1948.45,-757.19"/>
</g>
<!-- S&#45;2173 -->
<g id="node46" class="node">
<title>S&#45;2173</title>
<polygon fill="mediumseagreen" stroke="black" points="2197,-750 2125,-728.5 2197,-707 2269,-728.5 2197,-750"/>
<text text-anchor="middle" x="2197" y="-726" font-family="Arial" font-size="10.00">S&#45;2173</text>
</g>
<!-- C&#45;0446&#45;&gt;S&#45;2173 -->
<g id="edge10" class="edge">
<title>C&#45;0446&#45;&gt;S&#45;2173</title>
<path fill="none" stroke="#4d4d4d" d="M1760.63,-836C1898.71,-836 2197,-836 2197,-836 2197,-836 2197,-757.25 2197,-757.25"/>
<polygon fill="#4d4d4d" stroke="#4d4d4d" points="2199.45,-757.25 2197,-750.25 2194.55,-757.25 2199.45,-757.25"/>
</g>
<!-- R&#45;136&#45;&gt;C&#45;0400 -->
<g id="edge45" class="edge">
<title>R&#45;136&#45;&gt;C&#45;0400</title>
<path fill="none" stroke="#4d4d4d" d="M424.67,-1010.57C424.67,-1010.57 424.67,-959.1 424.67,-959.1"/>
<polygon fill="#4d4d4d" stroke="#4d4d4d" points="427.12,-959.1 424.67,-952.1 422.22,-959.1 427.12,-959.1"/>
</g>
<!-- S&#45;2173&#45;&gt;S&#45;2226 -->
<g id="edge13" class="edge">
<title>S&#45;2173&#45;&gt;S&#45;2226</title>
<path fill="none" stroke="#4d4d4d" d="M2143,-723.07C2143,-723.07 2143,-639.96 2143,-639.96"/>
<polygon fill="#4d4d4d" stroke="#4d4d4d" points="2145.45,-639.96 2143,-632.96 2140.55,-639.96 2145.45,-639.96"/>
</g>
<!-- S&#45;2173&#45;&gt;S&#45;2459 -->
<g id="edge11" class="edge">
<title>S&#45;2173&#45;&gt;S&#45;2459</title>
<path fill="none" stroke="#4d4d4d" d="M2233,-717.69C2233,-717.69 2233,-645.54 2233,-645.54"/>
<polygon fill="#4d4d4d" stroke="#4d4d4d" points="2235.45,-645.54 2233,-638.54 2230.55,-645.54 2235.45,-645.54"/>
</g>
<!-- S&#45;2173&#45;&gt;S&#45;2174 -->
<g id="edge12" class="edge">
<title>S&#45;2173&#45;&gt;S&#45;2174</title>
<path fill="none" stroke="#4d4d4d" d="M2267.53,-728C2342.08,-728 2449,-728 2449,-728 2449,-728 2449,-656.31 2449,-656.31"/>
<polygon fill="#4d4d4d" stroke="#4d4d4d" points="2451.45,-656.31 2449,-649.31 2446.55,-656.31 2451.45,-656.31"/>
</g>
<!-- ext_circ_113_26_ -->
<g id="node61" class="node">
<title>ext_circ_113_26_</title>
<polygon fill="lightpink" stroke="darkorange" stroke-dasharray="5,2" points="504,-750 360,-750 360,-707 504,-707 504,-750"/>
<text text-anchor="middle" x="432" y="-731.5" font-family="Arial" font-size="10.00">Circuito:</text>
<text text-anchor="middle" x="432" y="-720.5" font-family="Arial" font-size="10.00">113&#45;26&#45;</text>
</g>
<!-- C&#45;0104&#45;&gt;ext_circ_113_26_ -->
<g id="edge65" class="edge">
<title>C&#45;0104&#45;&gt;ext_circ_113_26_</title>
<path fill="none" stroke="darkorange" stroke-dasharray="5,2" d="M432,-807.58C432,-807.58 432,-757.03 432,-757.03"/>
<polygon fill="darkorange" stroke="darkorange" points="434.45,-757.03 432,-750.03 429.55,-757.03 434.45,-757.03"/>
</g>
<!-- C&#45;0174&#45;&gt;C&#45;1224 -->
<g id="edge20" class="edge">
<title>C&#45;0174&#45;&gt;C&#45;1224</title>
<path fill="none" stroke="#4d4d4d" d="M1737,-610.63C1737,-610.63 1737,-449.47 1737,-449.47"/>
<polygon fill="#4d4d4d" stroke="#4d4d4d" points="1739.45,-449.47 1737,-442.47 1734.55,-449.47 1739.45,-449.47"/>
</g>
<!-- C&#45;0174&#45;&gt;C&#45;1217 -->
<g id="edge18" class="edge">
<title>C&#45;0174&#45;&gt;C&#45;1217</title>
<path fill="none" stroke="#4d4d4d" d="M1653.5,-608.98C1653.5,-608.98 1653.5,-551.91 1653.5,-551.91"/>
<polygon fill="#4d4d4d" stroke="#4d4d4d" points="1655.95,-551.91 1653.5,-544.91 1651.05,-551.91 1655.95,-551.91"/>
</g>
<!-- C&#45;1042&#45;&gt;R&#45;253 -->
<g id="edge25" class="edge">
<title>C&#45;1042&#45;&gt;R&#45;253</title>
<path fill="none" stroke="#4d4d4d" d="M1332,-605.58C1332,-605.58 1332,-555.03 1332,-555.03"/>
<polygon fill="#4d4d4d" stroke="#4d4d4d" points="1334.45,-555.03 1332,-548.03 1329.55,-555.03 1334.45,-555.03"/>
</g>
<!-- S&#45;776 -->
<g id="node53" class="node">
<title>S&#45;776</title>
<polygon fill="mediumseagreen" stroke="black" points="1332,-245 1260,-223.5 1332,-202 1404,-223.5 1332,-245"/>
<text text-anchor="middle" x="1332" y="-221" font-family="Arial" font-size="10.00">S&#45;776</text>
</g>
<!-- S&#45;776&#45;&gt;S&#45;108A -->
<g id="edge32" class="edge">
<title>S&#45;776&#45;&gt;S&#45;108A</title>
<path fill="none" stroke="#4d4d4d" d="M1261.53,-223C1250.14,-223 1242,-223 1242,-223 1242,-223 1242,-122 1242,-122 1242,-122 1229.47,-122 1229.47,-122"/>
<polygon fill="#4d4d4d" stroke="#4d4d4d" points="1229.47,-119.55 1222.47,-122 1229.47,-124.45 1229.47,-119.55"/>
</g>
<!-- S&#45;776&#45;&gt;C&#45;0936 -->
<g id="edge33" class="edge">
<title>S&#45;776&#45;&gt;C&#45;0936</title>
<path fill="none" stroke="#4d4d4d" d="M1296,-212.6C1296,-200.3 1296,-182 1296,-182 1296,-182 972,-182 972,-182 972,-182 972,-151.32 972,-151.32"/>
<polygon fill="#4d4d4d" stroke="#4d4d4d" points="974.45,-151.32 972,-144.32 969.55,-151.32 974.45,-151.32"/>
</g>
<!-- S&#45;776&#45;&gt;C&#45;1258 -->
<g id="edge31" class="edge">
<title>S&#45;776&#45;&gt;C&#45;1258</title>
<path fill="none" stroke="#4d4d4d" d="M1332,-201.58C1332,-201.58 1332,-151.03 1332,-151.03"/>
<polygon fill="#4d4d4d" stroke="#4d4d4d" points="1334.45,-151.03 1332,-144.03 1329.55,-151.03 1334.45,-151.03"/>
</g>
<!-- S&#45;776&#45;&gt;S&#45;2404 -->
<g id="edge30" class="edge">
<title>S&#45;776&#45;&gt;S&#45;2404</title>
<path fill="none" stroke="#4d4d4d" d="M1402.53,-223C1417.04,-223 1428,-223 1428,-223 1428,-223 1428,-122 1428,-122 1428,-122 1434.5,-122 1434.5,-122"/>
<polygon fill="#4d4d4d" stroke="#4d4d4d" points="1434.5,-124.45 1441.5,-122 1434.5,-119.55 1434.5,-124.45"/>
</g>
<!-- S&#45;776&#45;&gt;S&#45;896 -->
<g id="edge29" class="edge">
<title>S&#45;776&#45;&gt;S&#45;896</title>
<path fill="none" stroke="#4d4d4d" d="M1368,-212.68C1368,-195.28 1368,-163 1368,-163 1368,-163 1692,-163 1692,-163 1692,-163 1692,-151.17 1692,-151.17"/>
<polygon fill="#4d4d4d" stroke="#4d4d4d" points="1694.45,-151.17 1692,-144.17 1689.55,-151.17 1694.45,-151.17"/>
</g>
<!-- C&#45;0640&#45;&gt;S&#45;1894 -->
<g id="edge34" class="edge">
<title>C&#45;0640&#45;&gt;S&#45;1894</title>
<path fill="none" stroke="#4d4d4d" d="M1404.22,-324C1449.76,-324 1500,-324 1500,-324 1500,-324 1500,-248.47 1500,-248.47"/>
<polygon fill="#4d4d4d" stroke="#4d4d4d" points="1502.45,-248.47 1500,-241.47 1497.55,-248.47 1502.45,-248.47"/>
</g>
<!-- C&#45;0640&#45;&gt;S&#45;107 -->
<g id="edge35" class="edge">
<title>C&#45;0640&#45;&gt;S&#45;107</title>
<path fill="none" stroke="#4d4d4d" d="M1259.82,-324C1209.75,-324 1152,-324 1152,-324 1152,-324 1152,-252.31 1152,-252.31"/>
<polygon fill="#4d4d4d" stroke="#4d4d4d" points="1154.45,-252.31 1152,-245.31 1149.55,-252.31 1154.45,-252.31"/>
</g>
<!-- C&#45;0640&#45;&gt;S&#45;776 -->
<g id="edge28" class="edge">
<title>C&#45;0640&#45;&gt;S&#45;776</title>
<path fill="none" stroke="#4d4d4d" d="M1332,-302.58C1332,-302.58 1332,-252.03 1332,-252.03"/>
<polygon fill="#4d4d4d" stroke="#4d4d4d" points="1334.45,-252.03 1332,-245.03 1329.55,-252.03 1334.45,-252.03"/>
</g>
<!-- C&#45;0784&#45;&gt;C&#45;0808 -->
<g id="edge2" class="edge">
<title>C&#45;0784&#45;&gt;C&#45;0808</title>
<path fill="none" stroke="#4d4d4d" d="M896,-1312.58C896,-1312.58 896,-1262.03 896,-1262.03"/>
<polygon fill="#4d4d4d" stroke="#4d4d4d" points="898.45,-1262.03 896,-1255.03 893.55,-1262.03 898.45,-1262.03"/>
</g>
</g>
</svg>
