<?xml version="1.0" encoding="UTF-8" standalone="no"?>
<!DOCTYPE svg PUBLIC "-//W3C//DTD SVG 1.1//EN"
 "http://www.w3.org/Graphics/SVG/1.1/DTD/svg11.dtd">
<!-- Generated by graphviz version 2.50.0 (0)
 -->
<!-- Title: Grafo_Circuito_112_24_ Pages: 1 -->
<svg width="2598pt" height="1776pt"
 viewBox="0.00 0.00 2598.00 1776.00" xmlns="http://www.w3.org/2000/svg" xmlns:xlink="http://www.w3.org/1999/xlink">
<g id="graph0" class="graph" transform="scale(1 1) rotate(0) translate(4 1772)">
<title>Grafo_Circuito_112_24_</title>
<polygon fill="white" stroke="transparent" points="-4,4 -4,-1772 2594,-1772 2594,4 -4,4"/>
<!-- C&#45;0737 -->
<g id="node1" class="node">
<title>C&#45;0737</title>
<ellipse fill="tomato" stroke="black" cx="612" cy="-122.5" rx="72" ry="21.5"/>
<text text-anchor="middle" x="612" y="-120" font-family="Arial" font-size="10.00">C&#45;0737</text>
</g>
<!-- ext_circ_303_25_ -->
<g id="node67" class="node">
<title>ext_circ_303_25_</title>
<polygon fill="lightpink" stroke="darkorange" stroke-dasharray="5,2" points="684,-43 540,-43 540,0 684,0 684,-43"/>
<text text-anchor="middle" x="612" y="-24.5" font-family="Arial" font-size="10.00">Circuito:</text>
<text text-anchor="middle" x="612" y="-13.5" font-family="Arial" font-size="10.00">303&#45;25&#45;</text>
</g>
<!-- C&#45;0737&#45;&gt;ext_circ_303_25_ -->
<g id="edge67" class="edge">
<title>C&#45;0737&#45;&gt;ext_circ_303_25_</title>
<path fill="none" stroke="darkorange" stroke-dasharray="5,2" d="M612,-100.58C612,-100.58 612,-50.03 612,-50.03"/>
<polygon fill="darkorange" stroke="darkorange" points="614.45,-50.03 612,-43.03 609.55,-50.03 614.45,-50.03"/>
</g>
<!-- S&#45;2512 -->
<g id="node2" class="node">
<title>S&#45;2512</title>
<polygon fill="mediumseagreen" stroke="black" points="938,-851 866,-829.5 938,-808 1010,-829.5 938,-851"/>
<text text-anchor="middle" x="938" y="-827" font-family="Arial" font-size="10.00">S&#45;2512</text>
</g>
<!-- S&#45;1783 -->
<g id="node3" class="node">
<title>S&#45;1783</title>
<polygon fill="mediumseagreen" stroke="black" points="162,-649 90,-627.5 162,-606 234,-627.5 162,-649"/>
<text text-anchor="middle" x="162" y="-625" font-family="Arial" font-size="10.00">S&#45;1783</text>
</g>
<!-- S&#45;2448 -->
<g id="node4" class="node">
<title>S&#45;2448</title>
<polygon fill="mediumseagreen" stroke="black" points="117,-851 45,-829.5 117,-808 189,-829.5 117,-851"/>
<text text-anchor="middle" x="117" y="-827" font-family="Arial" font-size="10.00">S&#45;2448</text>
</g>
<!-- S&#45;2312 -->
<g id="node22" class="node">
<title>S&#45;2312</title>
<polygon fill="mediumseagreen" stroke="black" points="72,-750 0,-728.5 72,-707 144,-728.5 72,-750"/>
<text text-anchor="middle" x="72" y="-726" font-family="Arial" font-size="10.00">S&#45;2312</text>
</g>
<!-- S&#45;2448&#45;&gt;S&#45;2312 -->
<g id="edge38" class="edge">
<title>S&#45;2448&#45;&gt;S&#45;2312</title>
<path fill="none" stroke="#4d4d4d" d="M94.5,-814.6C94.5,-814.6 94.5,-750.46 94.5,-750.46"/>
<polygon fill="#4d4d4d" stroke="#4d4d4d" points="96.95,-750.46 94.5,-743.46 92.05,-750.46 96.95,-750.46"/>
</g>
<!-- S&#45;2447 -->
<g id="node5" class="node">
<title>S&#45;2447</title>
<polygon fill="mediumseagreen" stroke="black" points="207,-952 135,-930.5 207,-909 279,-930.5 207,-952"/>
<text text-anchor="middle" x="207" y="-928" font-family="Arial" font-size="10.00">S&#45;2447</text>
</g>
<!-- S&#45;2447&#45;&gt;S&#45;2448 -->
<g id="edge37" class="edge">
<title>S&#45;2447&#45;&gt;S&#45;2448</title>
<path fill="none" stroke="#4d4d4d" d="M162,-922.23C162,-922.23 162,-844.6 162,-844.6"/>
<polygon fill="#4d4d4d" stroke="#4d4d4d" points="164.45,-844.6 162,-837.6 159.55,-844.6 164.45,-844.6"/>
</g>
<!-- S&#45;558 -->
<g id="node6" class="node">
<title>S&#45;558</title>
<polygon fill="mediumseagreen" stroke="black" points="1078,-1255 1006,-1233.5 1078,-1212 1150,-1233.5 1078,-1255"/>
<text text-anchor="middle" x="1078" y="-1231" font-family="Arial" font-size="10.00">S&#45;558</text>
</g>
<!-- S&#45;027 -->
<g id="node7" class="node">
<title>S&#45;027</title>
<polygon fill="mediumseagreen" stroke="black" points="882,-548 810,-526.5 882,-505 954,-526.5 882,-548"/>
<text text-anchor="middle" x="882" y="-524" font-family="Arial" font-size="10.00">S&#45;027</text>
</g>
<!-- R&#45;187 -->
<g id="node8" class="node">
<title>R&#45;187</title>
<polygon fill="tomato" stroke="black" points="2076,-1022.59 2076,-1040.41 2033.82,-1053 1974.18,-1053 1932,-1040.41 1932,-1022.59 1974.18,-1010 2033.82,-1010 2076,-1022.59"/>
<text text-anchor="middle" x="2004" y="-1029" font-family="Arial" font-size="10.00">R&#45;187</text>
</g>
<!-- ext_circ_112_22_ -->
<g id="node68" class="node">
<title>ext_circ_112_22_</title>
<polygon fill="lightpink" stroke="darkorange" stroke-dasharray="5,2" points="2166,-952 2022,-952 2022,-909 2166,-909 2166,-952"/>
<text text-anchor="middle" x="2094" y="-933.5" font-family="Arial" font-size="10.00">Circuito:</text>
<text text-anchor="middle" x="2094" y="-922.5" font-family="Arial" font-size="10.00">112&#45;22&#45;</text>
</g>
<!-- R&#45;187&#45;&gt;ext_circ_112_22_ -->
<g id="edge71" class="edge">
<title>R&#45;187&#45;&gt;ext_circ_112_22_</title>
<path fill="none" stroke="darkorange" stroke-dasharray="5,2" d="M2049,-1014.37C2049,-1014.37 2049,-959.31 2049,-959.31"/>
<polygon fill="darkorange" stroke="darkorange" points="2051.45,-959.31 2049,-952.31 2046.55,-959.31 2051.45,-959.31"/>
</g>
<!-- R&#45;135 -->
<g id="node9" class="node">
<title>R&#45;135</title>
<polygon fill="mediumseagreen" stroke="black" points="1362,-1426.59 1362,-1444.41 1319.82,-1457 1260.18,-1457 1218,-1444.41 1218,-1426.59 1260.18,-1414 1319.82,-1414 1362,-1426.59"/>
<text text-anchor="middle" x="1290" y="-1433" font-family="Arial" font-size="10.00">R&#45;135</text>
</g>
<!-- C&#45;0397 -->
<g id="node39" class="node">
<title>C&#45;0397</title>
<ellipse fill="mediumseagreen" stroke="black" cx="1708" cy="-1334.5" rx="72" ry="21.5"/>
<text text-anchor="middle" x="1708" y="-1332" font-family="Arial" font-size="10.00">C&#45;0397</text>
</g>
<!-- R&#45;135&#45;&gt;C&#45;0397 -->
<g id="edge50" class="edge">
<title>R&#45;135&#45;&gt;C&#45;0397</title>
<path fill="none" stroke="#4d4d4d" d="M1358,-1425.35C1358,-1402.1 1358,-1347 1358,-1347 1358,-1347 1642.42,-1347 1642.42,-1347"/>
<polygon fill="#4d4d4d" stroke="#4d4d4d" points="1642.42,-1349.45 1649.42,-1347 1642.42,-1344.55 1642.42,-1349.45"/>
</g>
<!-- S&#45;2524 -->
<g id="node10" class="node">
<title>S&#45;2524</title>
<polygon fill="mediumseagreen" stroke="black" points="1258,-1255 1186,-1233.5 1258,-1212 1330,-1233.5 1258,-1255"/>
<text text-anchor="middle" x="1258" y="-1231" font-family="Arial" font-size="10.00">S&#45;2524</text>
</g>
<!-- S&#45;2200 -->
<g id="node11" class="node">
<title>S&#45;2200</title>
<polygon fill="mediumseagreen" stroke="black" points="342,-649 270,-627.5 342,-606 414,-627.5 342,-649"/>
<text text-anchor="middle" x="342" y="-625" font-family="Arial" font-size="10.00">S&#45;2200</text>
</g>
<!-- C&#45;0455 -->
<g id="node12" class="node">
<title>C&#45;0455</title>
<ellipse fill="mediumseagreen" stroke="black" cx="398" cy="-930.5" rx="72" ry="21.5"/>
<text text-anchor="middle" x="398" y="-928" font-family="Arial" font-size="10.00">C&#45;0455</text>
</g>
<!-- C&#45;0454 -->
<g id="node43" class="node">
<title>C&#45;0454</title>
<ellipse fill="mediumseagreen" stroke="black" cx="410" cy="-829.5" rx="72" ry="21.5"/>
<text text-anchor="middle" x="410" y="-827" font-family="Arial" font-size="10.00">C&#45;0454</text>
</g>
<!-- C&#45;0455&#45;&gt;C&#45;0454 -->
<g id="edge39" class="edge">
<title>C&#45;0455&#45;&gt;C&#45;0454</title>
<path fill="none" stroke="#4d4d4d" d="M404,-908.58C404,-908.58 404,-858.03 404,-858.03"/>
<polygon fill="#4d4d4d" stroke="#4d4d4d" points="406.45,-858.03 404,-851.03 401.55,-858.03 406.45,-858.03"/>
</g>
<!-- S&#45;024 -->
<g id="node13" class="node">
<title>S&#45;024</title>
<polygon fill="mediumseagreen" stroke="black" points="252,-750 180,-728.5 252,-707 324,-728.5 252,-750"/>
<text text-anchor="middle" x="252" y="-726" font-family="Arial" font-size="10.00">S&#45;024</text>
</g>
<!-- C&#45;1073 -->
<g id="node14" class="node">
<title>C&#45;1073</title>
<ellipse fill="mediumseagreen" stroke="black" cx="702" cy="-425.5" rx="72" ry="21.5"/>
<text text-anchor="middle" x="702" y="-423" font-family="Arial" font-size="10.00">C&#45;1073</text>
</g>
<!-- C&#45;0621 -->
<g id="node23" class="node">
<title>C&#45;0621</title>
<ellipse fill="mediumseagreen" stroke="black" cx="702" cy="-324.5" rx="72" ry="21.5"/>
<text text-anchor="middle" x="702" y="-322" font-family="Arial" font-size="10.00">C&#45;0621</text>
</g>
<!-- C&#45;1073&#45;&gt;C&#45;0621 -->
<g id="edge8" class="edge">
<title>C&#45;1073&#45;&gt;C&#45;0621</title>
<path fill="none" stroke="#4d4d4d" d="M702,-403.58C702,-403.58 702,-353.03 702,-353.03"/>
<polygon fill="#4d4d4d" stroke="#4d4d4d" points="704.45,-353.03 702,-346.03 699.55,-353.03 704.45,-353.03"/>
</g>
<!-- S&#45;1864 -->
<g id="node15" class="node">
<title>S&#45;1864</title>
<polygon fill="mediumseagreen" stroke="black" points="522,-649 450,-627.5 522,-606 594,-627.5 522,-649"/>
<text text-anchor="middle" x="522" y="-625" font-family="Arial" font-size="10.00">S&#45;1864</text>
</g>
<!-- C&#45;1071 -->
<g id="node16" class="node">
<title>C&#45;1071</title>
<ellipse fill="mediumseagreen" stroke="black" cx="702" cy="-627.5" rx="72" ry="21.5"/>
<text text-anchor="middle" x="702" y="-625" font-family="Arial" font-size="10.00">C&#45;1071</text>
</g>
<!-- R&#45;260 -->
<g id="node46" class="node">
<title>R&#45;260</title>
<polygon fill="mediumseagreen" stroke="black" points="774,-517.59 774,-535.41 731.82,-548 672.18,-548 630,-535.41 630,-517.59 672.18,-505 731.82,-505 774,-517.59"/>
<text text-anchor="middle" x="702" y="-524" font-family="Arial" font-size="10.00">R&#45;260</text>
</g>
<!-- C&#45;1071&#45;&gt;R&#45;260 -->
<g id="edge6" class="edge">
<title>C&#45;1071&#45;&gt;R&#45;260</title>
<path fill="none" stroke="#4d4d4d" d="M702,-605.58C702,-605.58 702,-555.03 702,-555.03"/>
<polygon fill="#4d4d4d" stroke="#4d4d4d" points="704.45,-555.03 702,-548.03 699.55,-555.03 704.45,-555.03"/>
</g>
<!-- S&#45;020 -->
<g id="node17" class="node">
<title>S&#45;020</title>
<polygon fill="mediumseagreen" stroke="black" points="1438,-1255 1366,-1233.5 1438,-1212 1510,-1233.5 1438,-1255"/>
<text text-anchor="middle" x="1438" y="-1231" font-family="Arial" font-size="10.00">S&#45;020</text>
</g>
<!-- S&#45;1195 -->
<g id="node18" class="node">
<title>S&#45;1195</title>
<polygon fill="mediumseagreen" stroke="black" points="1174,-1659 1102,-1637.5 1174,-1616 1246,-1637.5 1174,-1659"/>
<text text-anchor="middle" x="1174" y="-1635" font-family="Arial" font-size="10.00">S&#45;1195</text>
</g>
<!-- S&#45;2178 -->
<g id="node31" class="node">
<title>S&#45;2178</title>
<polygon fill="mediumseagreen" stroke="black" points="904,-1558 832,-1536.5 904,-1515 976,-1536.5 904,-1558"/>
<text text-anchor="middle" x="904" y="-1534" font-family="Arial" font-size="10.00">S&#45;2178</text>
</g>
<!-- S&#45;1195&#45;&gt;S&#45;2178 -->
<g id="edge27" class="edge">
<title>S&#45;1195&#45;&gt;S&#45;2178</title>
<path fill="none" stroke="#4d4d4d" d="M1103.41,-1637C1023.41,-1637 904,-1637 904,-1637 904,-1637 904,-1565.31 904,-1565.31"/>
<polygon fill="#4d4d4d" stroke="#4d4d4d" points="906.45,-1565.31 904,-1558.31 901.55,-1565.31 906.45,-1565.31"/>
</g>
<!-- C&#45;0019 -->
<g id="node38" class="node">
<title>C&#45;0019</title>
<ellipse fill="mediumseagreen" stroke="black" cx="1084" cy="-1536.5" rx="72" ry="21.5"/>
<text text-anchor="middle" x="1084" y="-1534" font-family="Arial" font-size="10.00">C&#45;0019</text>
</g>
<!-- S&#45;1195&#45;&gt;C&#45;0019 -->
<g id="edge28" class="edge">
<title>S&#45;1195&#45;&gt;C&#45;0019</title>
<path fill="none" stroke="#4d4d4d" d="M1129,-1629.23C1129,-1629.23 1129,-1560.52 1129,-1560.52"/>
<polygon fill="#4d4d4d" stroke="#4d4d4d" points="1131.45,-1560.52 1129,-1553.52 1126.55,-1560.52 1131.45,-1560.52"/>
</g>
<!-- C&#45;0396 -->
<g id="node51" class="node">
<title>C&#45;0396</title>
<ellipse fill="mediumseagreen" stroke="black" cx="1264" cy="-1536.5" rx="72" ry="21.5"/>
<text text-anchor="middle" x="1264" y="-1534" font-family="Arial" font-size="10.00">C&#45;0396</text>
</g>
<!-- S&#45;1195&#45;&gt;C&#45;0396 -->
<g id="edge47" class="edge">
<title>S&#45;1195&#45;&gt;C&#45;0396</title>
<path fill="none" stroke="#4d4d4d" d="M1219,-1629.23C1219,-1629.23 1219,-1560.52 1219,-1560.52"/>
<polygon fill="#4d4d4d" stroke="#4d4d4d" points="1221.45,-1560.52 1219,-1553.52 1216.55,-1560.52 1221.45,-1560.52"/>
</g>
<!-- C&#45;0395 -->
<g id="node64" class="node">
<title>C&#45;0395</title>
<ellipse fill="tomato" stroke="black" cx="1444" cy="-1536.5" rx="72" ry="21.5"/>
<text text-anchor="middle" x="1444" y="-1534" font-family="Arial" font-size="10.00">C&#45;0395</text>
</g>
<!-- S&#45;1195&#45;&gt;C&#45;0395 -->
<g id="edge48" class="edge">
<title>S&#45;1195&#45;&gt;C&#45;0395</title>
<path fill="none" stroke="#4d4d4d" d="M1244.59,-1637C1324.59,-1637 1444,-1637 1444,-1637 1444,-1637 1444,-1565.31 1444,-1565.31"/>
<polygon fill="#4d4d4d" stroke="#4d4d4d" points="1446.45,-1565.31 1444,-1558.31 1441.55,-1565.31 1446.45,-1565.31"/>
</g>
<!-- S&#45;2324 -->
<g id="node19" class="node">
<title>S&#45;2324</title>
<polygon fill="mediumseagreen" stroke="black" points="1618,-1255 1546,-1233.5 1618,-1212 1690,-1233.5 1618,-1255"/>
<text text-anchor="middle" x="1618" y="-1231" font-family="Arial" font-size="10.00">S&#45;2324</text>
</g>
<!-- S&#45;1703 -->
<g id="node20" class="node">
<title>S&#45;1703</title>
<polygon fill="mediumseagreen" stroke="black" points="1798,-1255 1726,-1233.5 1798,-1212 1870,-1233.5 1798,-1255"/>
<text text-anchor="middle" x="1798" y="-1231" font-family="Arial" font-size="10.00">S&#45;1703</text>
</g>
<!-- S&#45;2338 -->
<g id="node21" class="node">
<title>S&#45;2338</title>
<polygon fill="mediumseagreen" stroke="black" points="882,-649 810,-627.5 882,-606 954,-627.5 882,-649"/>
<text text-anchor="middle" x="882" y="-625" font-family="Arial" font-size="10.00">S&#45;2338</text>
</g>
<!-- S&#45;1196 -->
<g id="node24" class="node">
<title>S&#45;1196</title>
<polygon fill="mediumseagreen" stroke="black" points="522,-245 450,-223.5 522,-202 594,-223.5 522,-245"/>
<text text-anchor="middle" x="522" y="-221" font-family="Arial" font-size="10.00">S&#45;1196</text>
</g>
<!-- C&#45;0621&#45;&gt;S&#45;1196 -->
<g id="edge14" class="edge">
<title>C&#45;0621&#45;&gt;S&#45;1196</title>
<path fill="none" stroke="#4d4d4d" d="M629.82,-324C579.75,-324 522,-324 522,-324 522,-324 522,-252.31 522,-252.31"/>
<polygon fill="#4d4d4d" stroke="#4d4d4d" points="524.45,-252.31 522,-245.31 519.55,-252.31 524.45,-252.31"/>
</g>
<!-- S&#45;1325 -->
<g id="node25" class="node">
<title>S&#45;1325</title>
<polygon fill="mediumseagreen" stroke="black" points="702,-245 630,-223.5 702,-202 774,-223.5 702,-245"/>
<text text-anchor="middle" x="702" y="-221" font-family="Arial" font-size="10.00">S&#45;1325</text>
</g>
<!-- C&#45;0621&#45;&gt;S&#45;1325 -->
<g id="edge15" class="edge">
<title>C&#45;0621&#45;&gt;S&#45;1325</title>
<path fill="none" stroke="#4d4d4d" d="M702,-302.58C702,-302.58 702,-252.03 702,-252.03"/>
<polygon fill="#4d4d4d" stroke="#4d4d4d" points="704.45,-252.03 702,-245.03 699.55,-252.03 704.45,-252.03"/>
</g>
<!-- S&#45;344 -->
<g id="node30" class="node">
<title>S&#45;344</title>
<polygon fill="mediumseagreen" stroke="black" points="882,-245 810,-223.5 882,-202 954,-223.5 882,-245"/>
<text text-anchor="middle" x="882" y="-221" font-family="Arial" font-size="10.00">S&#45;344</text>
</g>
<!-- C&#45;0621&#45;&gt;S&#45;344 -->
<g id="edge65" class="edge">
<title>C&#45;0621&#45;&gt;S&#45;344</title>
<path fill="none" stroke="#4d4d4d" d="M774.18,-324C824.25,-324 882,-324 882,-324 882,-324 882,-252.31 882,-252.31"/>
<polygon fill="#4d4d4d" stroke="#4d4d4d" points="884.45,-252.31 882,-245.31 879.55,-252.31 884.45,-252.31"/>
</g>
<!-- S&#45;030 -->
<g id="node26" class="node">
<title>S&#45;030</title>
<polygon fill="mediumseagreen" stroke="black" points="898,-1255 826,-1233.5 898,-1212 970,-1233.5 898,-1255"/>
<text text-anchor="middle" x="898" y="-1231" font-family="Arial" font-size="10.00">S&#45;030</text>
</g>
<!-- S&#45;022 -->
<g id="node56" class="node">
<title>S&#45;022</title>
<polygon fill="mediumseagreen" stroke="black" points="898,-1154 826,-1132.5 898,-1111 970,-1132.5 898,-1154"/>
<text text-anchor="middle" x="898" y="-1130" font-family="Arial" font-size="10.00">S&#45;022</text>
</g>
<!-- S&#45;030&#45;&gt;S&#45;022 -->
<g id="edge46" class="edge">
<title>S&#45;030&#45;&gt;S&#45;022</title>
<path fill="none" stroke="#4d4d4d" d="M898,-1211.58C898,-1211.58 898,-1161.03 898,-1161.03"/>
<polygon fill="#4d4d4d" stroke="#4d4d4d" points="900.45,-1161.03 898,-1154.03 895.55,-1161.03 900.45,-1161.03"/>
</g>
<!-- R&#45;068 -->
<g id="node27" class="node">
<title>R&#45;068</title>
<polygon fill="mediumseagreen" stroke="black" points="650,-1224.59 650,-1242.41 607.82,-1255 548.18,-1255 506,-1242.41 506,-1224.59 548.18,-1212 607.82,-1212 650,-1224.59"/>
<text text-anchor="middle" x="578" y="-1231" font-family="Arial" font-size="10.00">R&#45;068</text>
</g>
<!-- C&#45;1270 -->
<g id="node28" class="node">
<title>C&#45;1270</title>
<ellipse fill="mediumseagreen" stroke="black" cx="578" cy="-1132.5" rx="72" ry="21.5"/>
<text text-anchor="middle" x="578" y="-1130" font-family="Arial" font-size="10.00">C&#45;1270</text>
</g>
<!-- R&#45;068&#45;&gt;C&#45;1270 -->
<g id="edge33" class="edge">
<title>R&#45;068&#45;&gt;C&#45;1270</title>
<path fill="none" stroke="#4d4d4d" d="M578,-1211.58C578,-1211.58 578,-1161.03 578,-1161.03"/>
<polygon fill="#4d4d4d" stroke="#4d4d4d" points="580.45,-1161.03 578,-1154.03 575.55,-1161.03 580.45,-1161.03"/>
</g>
<!-- S&#45;023 -->
<g id="node34" class="node">
<title>S&#45;023</title>
<polygon fill="mediumseagreen" stroke="black" points="578,-1053 506,-1031.5 578,-1010 650,-1031.5 578,-1053"/>
<text text-anchor="middle" x="578" y="-1029" font-family="Arial" font-size="10.00">S&#45;023</text>
</g>
<!-- C&#45;1270&#45;&gt;S&#45;023 -->
<g id="edge25" class="edge">
<title>C&#45;1270&#45;&gt;S&#45;023</title>
<path fill="none" stroke="#4d4d4d" d="M578,-1110.58C578,-1110.58 578,-1060.03 578,-1060.03"/>
<polygon fill="#4d4d4d" stroke="#4d4d4d" points="580.45,-1060.03 578,-1053.03 575.55,-1060.03 580.45,-1060.03"/>
</g>
<!-- S&#45;2544 -->
<g id="node29" class="node">
<title>S&#45;2544</title>
<polygon fill="mediumseagreen" stroke="black" points="2324,-1154 2252,-1132.5 2324,-1111 2396,-1132.5 2324,-1154"/>
<text text-anchor="middle" x="2324" y="-1130" font-family="Arial" font-size="10.00">S&#45;2544</text>
</g>
<!-- S&#45;344&#45;&gt;C&#45;0737 -->
<g id="edge10" class="edge">
<title>S&#45;344&#45;&gt;C&#45;0737</title>
<path fill="none" stroke="#4d4d4d" d="M828,-218.1C828,-205.07 828,-173 828,-173 828,-173 657,-173 657,-173 657,-173 657,-146.32 657,-146.32"/>
<polygon fill="#4d4d4d" stroke="#4d4d4d" points="659.45,-146.32 657,-139.32 654.55,-146.32 659.45,-146.32"/>
</g>
<!-- S&#45;028 -->
<g id="node35" class="node">
<title>S&#45;028</title>
<polygon fill="mediumseagreen" stroke="black" points="792,-144 720,-122.5 792,-101 864,-122.5 792,-144"/>
<text text-anchor="middle" x="792" y="-120" font-family="Arial" font-size="10.00">S&#45;028</text>
</g>
<!-- S&#45;344&#45;&gt;S&#45;028 -->
<g id="edge9" class="edge">
<title>S&#45;344&#45;&gt;S&#45;028</title>
<path fill="none" stroke="#4d4d4d" d="M846,-212.69C846,-212.69 846,-135.12 846,-135.12"/>
<polygon fill="#4d4d4d" stroke="#4d4d4d" points="848.45,-135.12 846,-128.12 843.55,-135.12 848.45,-135.12"/>
</g>
<!-- C&#45;0738 -->
<g id="node40" class="node">
<title>C&#45;0738</title>
<ellipse fill="mediumseagreen" stroke="black" cx="972" cy="-122.5" rx="72" ry="21.5"/>
<text text-anchor="middle" x="972" y="-120" font-family="Arial" font-size="10.00">C&#45;0738</text>
</g>
<!-- S&#45;344&#45;&gt;C&#45;0738 -->
<g id="edge1" class="edge">
<title>S&#45;344&#45;&gt;C&#45;0738</title>
<path fill="none" stroke="#4d4d4d" d="M927,-215.23C927,-215.23 927,-146.52 927,-146.52"/>
<polygon fill="#4d4d4d" stroke="#4d4d4d" points="929.45,-146.52 927,-139.52 924.55,-146.52 929.45,-146.52"/>
</g>
<!-- S&#45;2518 -->
<g id="node45" class="node">
<title>S&#45;2518</title>
<polygon fill="mediumseagreen" stroke="black" points="1152,-144 1080,-122.5 1152,-101 1224,-122.5 1152,-144"/>
<text text-anchor="middle" x="1152" y="-120" font-family="Arial" font-size="10.00">S&#45;2518</text>
</g>
<!-- S&#45;344&#45;&gt;S&#45;2518 -->
<g id="edge11" class="edge">
<title>S&#45;344&#45;&gt;S&#45;2518</title>
<path fill="none" stroke="#4d4d4d" d="M952.57,-223C1018.56,-223 1107,-223 1107,-223 1107,-223 1107,-137.72 1107,-137.72"/>
<polygon fill="#4d4d4d" stroke="#4d4d4d" points="1109.45,-137.72 1107,-130.72 1104.55,-137.72 1109.45,-137.72"/>
</g>
<!-- S&#45;1905 -->
<g id="node32" class="node">
<title>S&#45;1905</title>
<polygon fill="mediumseagreen" stroke="black" points="1242,-548 1170,-526.5 1242,-505 1314,-526.5 1242,-548"/>
<text text-anchor="middle" x="1242" y="-524" font-family="Arial" font-size="10.00">S&#45;1905</text>
</g>
<!-- S&#45;2517 -->
<g id="node33" class="node">
<title>S&#45;2517</title>
<polygon fill="mediumseagreen" stroke="black" points="1152,-43 1080,-21.5 1152,0 1224,-21.5 1152,-43"/>
<text text-anchor="middle" x="1152" y="-19" font-family="Arial" font-size="10.00">S&#45;2517</text>
</g>
<!-- S&#45;023&#45;&gt;S&#45;2447 -->
<g id="edge36" class="edge">
<title>S&#45;023&#45;&gt;S&#45;2447</title>
<path fill="none" stroke="#4d4d4d" d="M527.58,-1038C426.14,-1038 207,-1038 207,-1038 207,-1038 207,-959.25 207,-959.25"/>
<polygon fill="#4d4d4d" stroke="#4d4d4d" points="209.45,-959.25 207,-952.25 204.55,-959.25 209.45,-959.25"/>
</g>
<!-- S&#45;023&#45;&gt;C&#45;0455 -->
<g id="edge34" class="edge">
<title>S&#45;023&#45;&gt;C&#45;0455</title>
<path fill="none" stroke="#4d4d4d" d="M530.71,-1024C477.38,-1024 398,-1024 398,-1024 398,-1024 398,-959.19 398,-959.19"/>
<polygon fill="#4d4d4d" stroke="#4d4d4d" points="400.45,-959.19 398,-952.19 395.55,-959.19 400.45,-959.19"/>
</g>
<!-- S&#45;2513 -->
<g id="node42" class="node">
<title>S&#45;2513</title>
<polygon fill="mediumseagreen" stroke="black" points="578,-952 506,-930.5 578,-909 650,-930.5 578,-952"/>
<text text-anchor="middle" x="578" y="-928" font-family="Arial" font-size="10.00">S&#45;2513</text>
</g>
<!-- S&#45;023&#45;&gt;S&#45;2513 -->
<g id="edge17" class="edge">
<title>S&#45;023&#45;&gt;S&#45;2513</title>
<path fill="none" stroke="#4d4d4d" d="M578,-1009.58C578,-1009.58 578,-959.03 578,-959.03"/>
<polygon fill="#4d4d4d" stroke="#4d4d4d" points="580.45,-959.03 578,-952.03 575.55,-959.03 580.45,-959.03"/>
</g>
<!-- S&#45;2227 -->
<g id="node53" class="node">
<title>S&#45;2227</title>
<polygon fill="mediumseagreen" stroke="black" points="758,-952 686,-930.5 758,-909 830,-930.5 758,-952"/>
<text text-anchor="middle" x="758" y="-928" font-family="Arial" font-size="10.00">S&#45;2227</text>
</g>
<!-- S&#45;023&#45;&gt;S&#45;2227 -->
<g id="edge20" class="edge">
<title>S&#45;023&#45;&gt;S&#45;2227</title>
<path fill="none" stroke="#4d4d4d" d="M624.95,-1024C684.44,-1024 779.33,-1024 779.33,-1024 779.33,-1024 779.33,-952.94 779.33,-952.94"/>
<polygon fill="#4d4d4d" stroke="#4d4d4d" points="781.78,-952.94 779.33,-945.94 776.88,-952.94 781.78,-952.94"/>
</g>
<!-- S&#45;2514 -->
<g id="node57" class="node">
<title>S&#45;2514</title>
<polygon fill="mediumseagreen" stroke="black" points="938,-952 866,-930.5 938,-909 1010,-930.5 938,-952"/>
<text text-anchor="middle" x="938" y="-928" font-family="Arial" font-size="10.00">S&#45;2514</text>
</g>
<!-- S&#45;023&#45;&gt;S&#45;2514 -->
<g id="edge18" class="edge">
<title>S&#45;023&#45;&gt;S&#45;2514</title>
<path fill="none" stroke="#4d4d4d" d="M628.53,-1038C723.25,-1038 918,-1038 918,-1038 918,-1038 918,-953.36 918,-953.36"/>
<polygon fill="#4d4d4d" stroke="#4d4d4d" points="920.45,-953.36 918,-946.36 915.55,-953.36 920.45,-953.36"/>
</g>
<!-- S&#45;029 -->
<g id="node36" class="node">
<title>S&#45;029</title>
<polygon fill="mediumseagreen" stroke="black" points="1062,-649 990,-627.5 1062,-606 1134,-627.5 1062,-649"/>
<text text-anchor="middle" x="1062" y="-625" font-family="Arial" font-size="10.00">S&#45;029</text>
</g>
<!-- S&#45;029&#45;&gt;S&#45;027 -->
<g id="edge23" class="edge">
<title>S&#45;029&#45;&gt;S&#45;027</title>
<path fill="none" stroke="#4d4d4d" d="M991.53,-627C980.14,-627 972,-627 972,-627 972,-627 972,-526 972,-526 972,-526 959.47,-526 959.47,-526"/>
<polygon fill="#4d4d4d" stroke="#4d4d4d" points="959.47,-523.55 952.47,-526 959.47,-528.45 959.47,-523.55"/>
</g>
<!-- S&#45;1688 -->
<g id="node52" class="node">
<title>S&#45;1688</title>
<polygon fill="mediumseagreen" stroke="black" points="1062,-548 990,-526.5 1062,-505 1134,-526.5 1062,-548"/>
<text text-anchor="middle" x="1062" y="-524" font-family="Arial" font-size="10.00">S&#45;1688</text>
</g>
<!-- S&#45;029&#45;&gt;S&#45;1688 -->
<g id="edge12" class="edge">
<title>S&#45;029&#45;&gt;S&#45;1688</title>
<path fill="none" stroke="#4d4d4d" d="M1062,-605.58C1062,-605.58 1062,-555.03 1062,-555.03"/>
<polygon fill="#4d4d4d" stroke="#4d4d4d" points="1064.45,-555.03 1062,-548.03 1059.55,-555.03 1064.45,-555.03"/>
</g>
<!-- S&#45;1802 -->
<g id="node37" class="node">
<title>S&#45;1802</title>
<polygon fill="mediumseagreen" stroke="black" points="1978,-1255 1906,-1233.5 1978,-1212 2050,-1233.5 1978,-1255"/>
<text text-anchor="middle" x="1978" y="-1231" font-family="Arial" font-size="10.00">S&#45;1802</text>
</g>
<!-- C&#45;1234 -->
<g id="node59" class="node">
<title>C&#45;1234</title>
<ellipse fill="mediumseagreen" stroke="black" cx="848" cy="-1435.5" rx="72" ry="21.5"/>
<text text-anchor="middle" x="848" y="-1433" font-family="Arial" font-size="10.00">C&#45;1234</text>
</g>
<!-- C&#45;0019&#45;&gt;C&#45;1234 -->
<g id="edge29" class="edge">
<title>C&#45;0019&#45;&gt;C&#45;1234</title>
<path fill="none" stroke="#4d4d4d" d="M1104,-1515.47C1104,-1485.74 1104,-1435 1104,-1435 1104,-1435 926.99,-1435 926.99,-1435"/>
<polygon fill="#4d4d4d" stroke="#4d4d4d" points="926.99,-1432.55 919.99,-1435 926.99,-1437.45 926.99,-1432.55"/>
</g>
<!-- C&#45;0397&#45;&gt;S&#45;558 -->
<g id="edge52" class="edge">
<title>C&#45;0397&#45;&gt;S&#45;558</title>
<path fill="none" stroke="#4d4d4d" d="M1636.89,-1338C1468.23,-1338 1058,-1338 1058,-1338 1058,-1338 1058,-1256.37 1058,-1256.37"/>
<polygon fill="#4d4d4d" stroke="#4d4d4d" points="1060.45,-1256.37 1058,-1249.37 1055.55,-1256.37 1060.45,-1256.37"/>
</g>
<!-- C&#45;0397&#45;&gt;S&#45;2524 -->
<g id="edge63" class="edge">
<title>C&#45;0397&#45;&gt;S&#45;2524</title>
<path fill="none" stroke="#4d4d4d" d="M1637.3,-1330C1514.33,-1330 1274,-1330 1274,-1330 1274,-1330 1274,-1257.31 1274,-1257.31"/>
<polygon fill="#4d4d4d" stroke="#4d4d4d" points="1276.45,-1257.31 1274,-1250.31 1271.55,-1257.31 1276.45,-1257.31"/>
</g>
<!-- C&#45;0397&#45;&gt;S&#45;020 -->
<g id="edge51" class="edge">
<title>C&#45;0397&#45;&gt;S&#45;020</title>
<path fill="none" stroke="#4d4d4d" d="M1651.72,-1321C1579.66,-1321 1464,-1321 1464,-1321 1464,-1321 1464,-1254.56 1464,-1254.56"/>
<polygon fill="#4d4d4d" stroke="#4d4d4d" points="1466.45,-1254.56 1464,-1247.56 1461.55,-1254.56 1466.45,-1254.56"/>
</g>
<!-- C&#45;0397&#45;&gt;S&#45;2324 -->
<g id="edge62" class="edge">
<title>C&#45;0397&#45;&gt;S&#45;2324</title>
<path fill="none" stroke="#4d4d4d" d="M1663,-1317.37C1663,-1317.37 1663,-1248.78 1663,-1248.78"/>
<polygon fill="#4d4d4d" stroke="#4d4d4d" points="1665.45,-1248.78 1663,-1241.78 1660.55,-1248.78 1665.45,-1248.78"/>
</g>
<!-- C&#45;0397&#45;&gt;S&#45;1703 -->
<g id="edge54" class="edge">
<title>C&#45;0397&#45;&gt;S&#45;1703</title>
<path fill="none" stroke="#4d4d4d" d="M1753,-1317.37C1753,-1317.37 1753,-1248.78 1753,-1248.78"/>
<polygon fill="#4d4d4d" stroke="#4d4d4d" points="1755.45,-1248.78 1753,-1241.78 1750.55,-1248.78 1755.45,-1248.78"/>
</g>
<!-- C&#45;0397&#45;&gt;S&#45;1802 -->
<g id="edge64" class="edge">
<title>C&#45;0397&#45;&gt;S&#45;1802</title>
<path fill="none" stroke="#4d4d4d" d="M1764.27,-1321C1843.4,-1321 1978,-1321 1978,-1321 1978,-1321 1978,-1262.13 1978,-1262.13"/>
<polygon fill="#4d4d4d" stroke="#4d4d4d" points="1980.45,-1262.13 1978,-1255.13 1975.55,-1262.13 1980.45,-1262.13"/>
</g>
<!-- S&#45;1202 -->
<g id="node48" class="node">
<title>S&#45;1202</title>
<polygon fill="mediumseagreen" stroke="black" points="2158,-1255 2086,-1233.5 2158,-1212 2230,-1233.5 2158,-1255"/>
<text text-anchor="middle" x="2158" y="-1231" font-family="Arial" font-size="10.00">S&#45;1202</text>
</g>
<!-- C&#45;0397&#45;&gt;S&#45;1202 -->
<g id="edge53" class="edge">
<title>C&#45;0397&#45;&gt;S&#45;1202</title>
<path fill="none" stroke="#4d4d4d" d="M1778.81,-1330C1905.53,-1330 2158,-1330 2158,-1330 2158,-1330 2158,-1262.4 2158,-1262.4"/>
<polygon fill="#4d4d4d" stroke="#4d4d4d" points="2160.45,-1262.4 2158,-1255.4 2155.55,-1262.4 2160.45,-1262.4"/>
</g>
<!-- S&#45;007 -->
<g id="node62" class="node">
<title>S&#45;007</title>
<polygon fill="mediumseagreen" stroke="black" points="2338,-1255 2266,-1233.5 2338,-1212 2410,-1233.5 2338,-1255"/>
<text text-anchor="middle" x="2338" y="-1231" font-family="Arial" font-size="10.00">S&#45;007</text>
</g>
<!-- C&#45;0397&#45;&gt;S&#45;007 -->
<g id="edge55" class="edge">
<title>C&#45;0397&#45;&gt;S&#45;007</title>
<path fill="none" stroke="#4d4d4d" d="M1779.04,-1338C1943.81,-1338 2338,-1338 2338,-1338 2338,-1338 2338,-1262.15 2338,-1262.15"/>
<polygon fill="#4d4d4d" stroke="#4d4d4d" points="2340.45,-1262.15 2338,-1255.15 2335.55,-1262.15 2340.45,-1262.15"/>
</g>
<!-- S&#45;2368 -->
<g id="node66" class="node">
<title>S&#45;2368</title>
<polygon fill="mediumseagreen" stroke="black" points="2518,-1255 2446,-1233.5 2518,-1212 2590,-1233.5 2518,-1255"/>
<text text-anchor="middle" x="2518" y="-1231" font-family="Arial" font-size="10.00">S&#45;2368</text>
</g>
<!-- C&#45;0397&#45;&gt;S&#45;2368 -->
<g id="edge61" class="edge">
<title>C&#45;0397&#45;&gt;S&#45;2368</title>
<path fill="none" stroke="#4d4d4d" d="M1766.91,-1347C1953.3,-1347 2518,-1347 2518,-1347 2518,-1347 2518,-1262.12 2518,-1262.12"/>
<polygon fill="#4d4d4d" stroke="#4d4d4d" points="2520.45,-1262.12 2518,-1255.12 2515.55,-1262.12 2520.45,-1262.12"/>
</g>
<!-- S&#45;025 -->
<g id="node41" class="node">
<title>S&#45;025</title>
<polygon fill="mediumseagreen" stroke="black" points="432,-750 360,-728.5 432,-707 504,-728.5 432,-750"/>
<text text-anchor="middle" x="432" y="-726" font-family="Arial" font-size="10.00">S&#45;025</text>
</g>
<!-- S&#45;025&#45;&gt;S&#45;1783 -->
<g id="edge42" class="edge">
<title>S&#45;025&#45;&gt;S&#45;1783</title>
<path fill="none" stroke="#4d4d4d" d="M378,-723.07C378,-711.83 378,-687 378,-687 378,-687 207,-687 207,-687 207,-687 207,-642.77 207,-642.77"/>
<polygon fill="#4d4d4d" stroke="#4d4d4d" points="209.45,-642.77 207,-635.77 204.55,-642.77 209.45,-642.77"/>
</g>
<!-- C&#45;0454&#45;&gt;S&#45;024 -->
<g id="edge40" class="edge">
<title>C&#45;0454&#45;&gt;S&#45;024</title>
<path fill="none" stroke="#4d4d4d" d="M349,-817.86C349,-791.2 349,-728 349,-728 349,-728 329.49,-728 329.49,-728"/>
<polygon fill="#4d4d4d" stroke="#4d4d4d" points="329.49,-725.55 322.49,-728 329.49,-730.45 329.49,-725.55"/>
</g>
<!-- C&#45;0454&#45;&gt;S&#45;025 -->
<g id="edge41" class="edge">
<title>C&#45;0454&#45;&gt;S&#45;025</title>
<path fill="none" stroke="#4d4d4d" d="M421,-808.08C421,-808.08 421,-753.84 421,-753.84"/>
<polygon fill="#4d4d4d" stroke="#4d4d4d" points="423.45,-753.84 421,-746.84 418.55,-753.84 423.45,-753.84"/>
</g>
<!-- S&#45;026 -->
<g id="node60" class="node">
<title>S&#45;026</title>
<polygon fill="mediumseagreen" stroke="black" points="882,-750 810,-728.5 882,-707 954,-728.5 882,-750"/>
<text text-anchor="middle" x="882" y="-726" font-family="Arial" font-size="10.00">S&#45;026</text>
</g>
<!-- C&#45;0454&#45;&gt;S&#45;026 -->
<g id="edge43" class="edge">
<title>C&#45;0454&#45;&gt;S&#45;026</title>
<path fill="none" stroke="#4d4d4d" d="M482.36,-829C600.06,-829 820,-829 820,-829 820,-829 820,-738.84 820,-738.84"/>
<polygon fill="#4d4d4d" stroke="#4d4d4d" points="822.45,-738.84 820,-731.84 817.55,-738.84 822.45,-738.84"/>
</g>
<!-- S&#45;2107 -->
<g id="node44" class="node">
<title>S&#45;2107</title>
<polygon fill="mediumseagreen" stroke="black" points="2504,-1154 2432,-1132.5 2504,-1111 2576,-1132.5 2504,-1154"/>
<text text-anchor="middle" x="2504" y="-1130" font-family="Arial" font-size="10.00">S&#45;2107</text>
</g>
<!-- S&#45;2518&#45;&gt;S&#45;2517 -->
<g id="edge13" class="edge">
<title>S&#45;2518&#45;&gt;S&#45;2517</title>
<path fill="none" stroke="#4d4d4d" d="M1152,-100.58C1152,-100.58 1152,-50.03 1152,-50.03"/>
<polygon fill="#4d4d4d" stroke="#4d4d4d" points="1154.45,-50.03 1152,-43.03 1149.55,-50.03 1154.45,-50.03"/>
</g>
<!-- R&#45;260&#45;&gt;C&#45;1073 -->
<g id="edge7" class="edge">
<title>R&#45;260&#45;&gt;C&#45;1073</title>
<path fill="none" stroke="#4d4d4d" d="M702,-504.58C702,-504.58 702,-454.03 702,-454.03"/>
<polygon fill="#4d4d4d" stroke="#4d4d4d" points="704.45,-454.03 702,-447.03 699.55,-454.03 704.45,-454.03"/>
</g>
<!-- C&#45;1269 -->
<g id="node47" class="node">
<title>C&#45;1269</title>
<ellipse fill="mediumseagreen" stroke="black" cx="578" cy="-1334.5" rx="72" ry="21.5"/>
<text text-anchor="middle" x="578" y="-1332" font-family="Arial" font-size="10.00">C&#45;1269</text>
</g>
<!-- C&#45;1269&#45;&gt;R&#45;068 -->
<g id="edge32" class="edge">
<title>C&#45;1269&#45;&gt;R&#45;068</title>
<path fill="none" stroke="#4d4d4d" d="M578,-1312.58C578,-1312.58 578,-1262.03 578,-1262.03"/>
<polygon fill="#4d4d4d" stroke="#4d4d4d" points="580.45,-1262.03 578,-1255.03 575.55,-1262.03 580.45,-1262.03"/>
</g>
<!-- C&#45;0829 -->
<g id="node49" class="node">
<title>C&#45;0829</title>
<ellipse fill="mediumseagreen" stroke="black" cx="2030" cy="-1132.5" rx="72" ry="21.5"/>
<text text-anchor="middle" x="2030" y="-1130" font-family="Arial" font-size="10.00">C&#45;0829</text>
</g>
<!-- S&#45;1202&#45;&gt;C&#45;0829 -->
<g id="edge58" class="edge">
<title>S&#45;1202&#45;&gt;C&#45;0829</title>
<path fill="none" stroke="#4d4d4d" d="M2094,-1231C2094,-1231 2094,-1149.5 2094,-1149.5"/>
<polygon fill="#4d4d4d" stroke="#4d4d4d" points="2096.45,-1149.5 2094,-1142.5 2091.55,-1149.5 2096.45,-1149.5"/>
</g>
<!-- C&#45;0830 -->
<g id="node63" class="node">
<title>C&#45;0830</title>
<ellipse fill="tomato" stroke="black" cx="2184" cy="-1031.5" rx="72" ry="21.5"/>
<text text-anchor="middle" x="2184" y="-1029" font-family="Arial" font-size="10.00">C&#45;0830</text>
</g>
<!-- S&#45;1202&#45;&gt;C&#45;0830 -->
<g id="edge59" class="edge">
<title>S&#45;1202&#45;&gt;C&#45;0830</title>
<path fill="none" stroke="#4d4d4d" d="M2171,-1215.57C2171,-1215.57 2171,-1059.69 2171,-1059.69"/>
<polygon fill="#4d4d4d" stroke="#4d4d4d" points="2173.45,-1059.69 2171,-1052.69 2168.55,-1059.69 2173.45,-1059.69"/>
</g>
<!-- C&#45;0829&#45;&gt;R&#45;187 -->
<g id="edge60" class="edge">
<title>C&#45;0829&#45;&gt;R&#45;187</title>
<path fill="none" stroke="#4d4d4d" d="M2017,-1111.08C2017,-1111.08 2017,-1060.24 2017,-1060.24"/>
<polygon fill="#4d4d4d" stroke="#4d4d4d" points="2019.45,-1060.24 2017,-1053.24 2014.55,-1060.24 2019.45,-1060.24"/>
</g>
<!-- C&#45;1271 -->
<g id="node50" class="node">
<title>C&#45;1271</title>
<ellipse fill="tomato" stroke="black" cx="758" cy="-1334.5" rx="72" ry="21.5"/>
<text text-anchor="middle" x="758" y="-1332" font-family="Arial" font-size="10.00">C&#45;1271</text>
</g>
<!-- C&#45;1271&#45;&gt;C&#45;1270 -->
<g id="edge68" class="edge">
<title>C&#45;1271&#45;&gt;C&#45;1270</title>
<path fill="none" stroke="blue" stroke-dasharray="5,2" d="M732.67,-1314.34C732.67,-1263.12 732.67,-1132 732.67,-1132 732.67,-1132 657.35,-1132 657.35,-1132"/>
<polygon fill="blue" stroke="blue" points="657.35,-1129.55 650.35,-1132 657.35,-1134.45 657.35,-1129.55"/>
</g>
<!-- C&#45;0396&#45;&gt;R&#45;135 -->
<g id="edge49" class="edge">
<title>C&#45;0396&#45;&gt;R&#45;135</title>
<path fill="none" stroke="#4d4d4d" d="M1277,-1515.08C1277,-1515.08 1277,-1464.24 1277,-1464.24"/>
<polygon fill="#4d4d4d" stroke="#4d4d4d" points="1279.45,-1464.24 1277,-1457.24 1274.55,-1464.24 1279.45,-1464.24"/>
</g>
<!-- S&#45;021 -->
<g id="node54" class="node">
<title>S&#45;021</title>
<polygon fill="mediumseagreen" stroke="black" points="938,-1356 866,-1334.5 938,-1313 1010,-1334.5 938,-1356"/>
<text text-anchor="middle" x="938" y="-1332" font-family="Arial" font-size="10.00">S&#45;021</text>
</g>
<!-- S&#45;021&#45;&gt;S&#45;030 -->
<g id="edge22" class="edge">
<title>S&#45;021&#45;&gt;S&#45;030</title>
<path fill="none" stroke="#4d4d4d" d="M918,-1318.72C918,-1318.72 918,-1256.17 918,-1256.17"/>
<polygon fill="#4d4d4d" stroke="#4d4d4d" points="920.45,-1256.17 918,-1249.17 915.55,-1256.17 920.45,-1256.17"/>
</g>
<!-- S&#45;1371 -->
<g id="node55" class="node">
<title>S&#45;1371</title>
<polygon fill="mediumseagreen" stroke="black" points="1242,-649 1170,-627.5 1242,-606 1314,-627.5 1242,-649"/>
<text text-anchor="middle" x="1242" y="-625" font-family="Arial" font-size="10.00">S&#45;1371</text>
</g>
<!-- S&#45;1371&#45;&gt;S&#45;1905 -->
<g id="edge35" class="edge">
<title>S&#45;1371&#45;&gt;S&#45;1905</title>
<path fill="none" stroke="#4d4d4d" d="M1242,-605.58C1242,-605.58 1242,-555.03 1242,-555.03"/>
<polygon fill="#4d4d4d" stroke="#4d4d4d" points="1244.45,-555.03 1242,-548.03 1239.55,-555.03 1244.45,-555.03"/>
</g>
<!-- S&#45;2514&#45;&gt;S&#45;2512 -->
<g id="edge19" class="edge">
<title>S&#45;2514&#45;&gt;S&#45;2512</title>
<path fill="none" stroke="#4d4d4d" d="M938,-908.58C938,-908.58 938,-858.03 938,-858.03"/>
<polygon fill="#4d4d4d" stroke="#4d4d4d" points="940.45,-858.03 938,-851.03 935.55,-858.03 940.45,-858.03"/>
</g>
<!-- S&#45;313 -->
<g id="node58" class="node">
<title>S&#45;313</title>
<polygon fill="mediumseagreen" stroke="black" points="1422,-649 1350,-627.5 1422,-606 1494,-627.5 1422,-649"/>
<text text-anchor="middle" x="1422" y="-625" font-family="Arial" font-size="10.00">S&#45;313</text>
</g>
<!-- C&#45;1234&#45;&gt;C&#45;1269 -->
<g id="edge31" class="edge">
<title>C&#45;1234&#45;&gt;C&#45;1269</title>
<path fill="none" stroke="#4d4d4d" d="M776,-1435C696.02,-1435 578,-1435 578,-1435 578,-1435 578,-1363.31 578,-1363.31"/>
<polygon fill="#4d4d4d" stroke="#4d4d4d" points="580.45,-1363.31 578,-1356.31 575.55,-1363.31 580.45,-1363.31"/>
</g>
<!-- C&#45;1234&#45;&gt;C&#45;1271 -->
<g id="edge30" class="edge">
<title>C&#45;1234&#45;&gt;C&#45;1271</title>
<path fill="none" stroke="#4d4d4d" d="M803,-1418.37C803,-1418.37 803,-1358.38 803,-1358.38"/>
<polygon fill="#4d4d4d" stroke="#4d4d4d" points="805.45,-1358.38 803,-1351.38 800.55,-1358.38 805.45,-1358.38"/>
</g>
<!-- C&#45;1234&#45;&gt;S&#45;021 -->
<g id="edge21" class="edge">
<title>C&#45;1234&#45;&gt;S&#45;021</title>
<path fill="none" stroke="#4d4d4d" d="M893,-1418.37C893,-1418.37 893,-1349.78 893,-1349.78"/>
<polygon fill="#4d4d4d" stroke="#4d4d4d" points="895.45,-1349.78 893,-1342.78 890.55,-1349.78 895.45,-1349.78"/>
</g>
<!-- S&#45;026&#45;&gt;S&#45;2200 -->
<g id="edge44" class="edge">
<title>S&#45;026&#45;&gt;S&#45;2200</title>
<path fill="none" stroke="#4d4d4d" d="M858,-714.16C858,-696.27 858,-668 858,-668 858,-668 396,-668 396,-668 396,-668 396,-640.13 396,-640.13"/>
<polygon fill="#4d4d4d" stroke="#4d4d4d" points="398.45,-640.13 396,-633.13 393.55,-640.13 398.45,-640.13"/>
</g>
<!-- S&#45;026&#45;&gt;S&#45;1864 -->
<g id="edge2" class="edge">
<title>S&#45;026&#45;&gt;S&#45;1864</title>
<path fill="none" stroke="#4d4d4d" d="M831.58,-735C738.7,-735 550,-735 550,-735 550,-735 550,-647.68 550,-647.68"/>
<polygon fill="#4d4d4d" stroke="#4d4d4d" points="552.45,-647.68 550,-640.68 547.55,-647.68 552.45,-647.68"/>
</g>
<!-- S&#45;026&#45;&gt;C&#45;1071 -->
<g id="edge5" class="edge">
<title>S&#45;026&#45;&gt;C&#45;1071</title>
<path fill="none" stroke="#4d4d4d" d="M834.74,-721C790.12,-721 730,-721 730,-721 730,-721 730,-654.33 730,-654.33"/>
<polygon fill="#4d4d4d" stroke="#4d4d4d" points="732.45,-654.33 730,-647.33 727.55,-654.33 732.45,-654.33"/>
</g>
<!-- S&#45;026&#45;&gt;S&#45;2338 -->
<g id="edge4" class="edge">
<title>S&#45;026&#45;&gt;S&#45;2338</title>
<path fill="none" stroke="#4d4d4d" d="M906,-714.03C906,-714.03 906,-648.94 906,-648.94"/>
<polygon fill="#4d4d4d" stroke="#4d4d4d" points="908.45,-648.94 906,-641.94 903.55,-648.94 908.45,-648.94"/>
</g>
<!-- S&#45;026&#45;&gt;S&#45;029 -->
<g id="edge24" class="edge">
<title>S&#45;026&#45;&gt;S&#45;029</title>
<path fill="none" stroke="#4d4d4d" d="M909.07,-715C943.91,-715 1000,-715 1000,-715 1000,-715 1000,-637.82 1000,-637.82"/>
<polygon fill="#4d4d4d" stroke="#4d4d4d" points="1002.45,-637.82 1000,-630.82 997.55,-637.82 1002.45,-637.82"/>
</g>
<!-- S&#45;026&#45;&gt;S&#45;1371 -->
<g id="edge45" class="edge">
<title>S&#45;026&#45;&gt;S&#45;1371</title>
<path fill="none" stroke="#4d4d4d" d="M939.07,-724C1025.09,-724 1178,-724 1178,-724 1178,-724 1178,-637.28 1178,-637.28"/>
<polygon fill="#4d4d4d" stroke="#4d4d4d" points="1180.45,-637.28 1178,-630.28 1175.55,-637.28 1180.45,-637.28"/>
</g>
<!-- S&#45;026&#45;&gt;S&#45;313 -->
<g id="edge16" class="edge">
<title>S&#45;026&#45;&gt;S&#45;313</title>
<path fill="none" stroke="#4d4d4d" d="M942.74,-732C1070.22,-732 1354,-732 1354,-732 1354,-732 1354,-635.98 1354,-635.98"/>
<polygon fill="#4d4d4d" stroke="#4d4d4d" points="1356.45,-635.98 1354,-628.98 1351.55,-635.98 1356.45,-635.98"/>
</g>
<!-- C&#45;1072 -->
<g id="node61" class="node">
<title>C&#45;1072</title>
<ellipse fill="tomato" stroke="black" cx="1602" cy="-627.5" rx="72" ry="21.5"/>
<text text-anchor="middle" x="1602" y="-625" font-family="Arial" font-size="10.00">C&#45;1072</text>
</g>
<!-- S&#45;026&#45;&gt;C&#45;1072 -->
<g id="edge3" class="edge">
<title>S&#45;026&#45;&gt;C&#45;1072</title>
<path fill="none" stroke="#4d4d4d" d="M912.32,-741C1041.34,-741 1538,-741 1538,-741 1538,-741 1538,-644.57 1538,-644.57"/>
<polygon fill="#4d4d4d" stroke="#4d4d4d" points="1540.45,-644.57 1538,-637.57 1535.55,-644.57 1540.45,-644.57"/>
</g>
<!-- C&#45;1072&#45;&gt;C&#45;1073 -->
<g id="edge66" class="edge">
<title>C&#45;1072&#45;&gt;C&#45;1073</title>
<path fill="none" stroke="blue" stroke-dasharray="5,2" d="M1602,-605.83C1602,-553.59 1602,-425 1602,-425 1602,-425 781.13,-425 781.13,-425"/>
<polygon fill="blue" stroke="blue" points="781.13,-422.55 774.13,-425 781.13,-427.45 781.13,-422.55"/>
</g>
<!-- S&#45;007&#45;&gt;S&#45;2544 -->
<g id="edge57" class="edge">
<title>S&#45;007&#45;&gt;S&#45;2544</title>
<path fill="none" stroke="#4d4d4d" d="M2331,-1214.03C2331,-1214.03 2331,-1158.91 2331,-1158.91"/>
<polygon fill="#4d4d4d" stroke="#4d4d4d" points="2333.45,-1158.91 2331,-1151.91 2328.55,-1158.91 2333.45,-1158.91"/>
</g>
<!-- S&#45;007&#45;&gt;S&#45;2107 -->
<g id="edge56" class="edge">
<title>S&#45;007&#45;&gt;S&#45;2107</title>
<path fill="none" stroke="#4d4d4d" d="M2408.42,-1233C2425.53,-1233 2439,-1233 2439,-1233 2439,-1233 2439,-1141.6 2439,-1141.6"/>
<polygon fill="#4d4d4d" stroke="#4d4d4d" points="2441.45,-1141.6 2439,-1134.6 2436.55,-1141.6 2441.45,-1141.6"/>
</g>
<!-- C&#45;0830&#45;&gt;ext_circ_112_22_ -->
<g id="edge70" class="edge">
<title>C&#45;0830&#45;&gt;ext_circ_112_22_</title>
<path fill="none" stroke="darkorange" stroke-dasharray="5,2" d="M2139,-1014.37C2139,-1014.37 2139,-959.31 2139,-959.31"/>
<polygon fill="darkorange" stroke="darkorange" points="2141.45,-959.31 2139,-952.31 2136.55,-959.31 2141.45,-959.31"/>
</g>
<!-- C&#45;0395&#45;&gt;S&#45;020 -->
<g id="edge69" class="edge">
<title>C&#45;0395&#45;&gt;S&#45;020</title>
<path fill="none" stroke="blue" stroke-dasharray="5,2" d="M1418,-1516.15C1418,-1516.15 1418,-1256.24 1418,-1256.24"/>
<polygon fill="blue" stroke="blue" points="1420.45,-1256.24 1418,-1249.24 1415.55,-1256.24 1420.45,-1256.24"/>
</g>
<!-- 112&#45;24&#45; -->
<g id="node65" class="node">
<title>112&#45;24&#45;</title>
<polygon fill="gold" stroke="black" points="1246,-1733.59 1246,-1751.41 1203.82,-1764 1144.18,-1764 1102,-1751.41 1102,-1733.59 1144.18,-1721 1203.82,-1721 1246,-1733.59"/>
<polygon fill="none" stroke="black" points="1250,-1730.61 1250,-1754.39 1204.41,-1768 1143.59,-1768 1098,-1754.39 1098,-1730.61 1143.59,-1717 1204.41,-1717 1250,-1730.61"/>
<text text-anchor="middle" x="1174" y="-1740" font-family="Arial" font-size="10.00">112&#45;24&#45;</text>
</g>
<!-- 112&#45;24&#45;&#45;&gt;S&#45;1195 -->
<g id="edge26" class="edge">
<title>112&#45;24&#45;&#45;&gt;S&#45;1195</title>
<path fill="none" stroke="#4d4d4d" d="M1174,-1716.81C1174,-1716.81 1174,-1666.03 1174,-1666.03"/>
<polygon fill="#4d4d4d" stroke="#4d4d4d" points="1176.45,-1666.03 1174,-1659.03 1171.55,-1666.03 1176.45,-1666.03"/>
</g>
</g>
</svg>
