<?xml version="1.0" encoding="UTF-8" standalone="no"?>
<!DOCTYPE svg PUBLIC "-//W3C//DTD SVG 1.1//EN"
 "http://www.w3.org/Graphics/SVG/1.1/DTD/svg11.dtd">
<!-- Generated by graphviz version 2.50.0 (0)
 -->
<!-- Title: Grafo_Circuito_113_35 Pages: 1 -->
<svg width="153pt" height="240pt"
 viewBox="0.00 0.00 153.00 240.00" xmlns="http://www.w3.org/2000/svg" xmlns:xlink="http://www.w3.org/1999/xlink">
<g id="graph0" class="graph" transform="scale(1 1) rotate(0) translate(4 236)">
<title>Grafo_Circuito_113_35</title>
<polygon fill="white" stroke="transparent" points="-4,4 -4,-236 149,-236 149,4 -4,4"/>
<!-- C&#45;0113 -->
<g id="node1" class="node">
<title>C&#45;0113</title>
<ellipse fill="mediumseagreen" stroke="black" cx="72.5" cy="-112" rx="68.5" ry="18"/>
<text text-anchor="middle" x="72.5" y="-110.1" font-family="Helvetica,sans-Serif" font-size="8.00">C&#45;0113</text>
</g>
<!-- C&#45;0118 -->
<g id="node3" class="node">
<title>C&#45;0118</title>
<ellipse fill="mediumseagreen" stroke="black" cx="72.5" cy="-18" rx="68.5" ry="18"/>
<text text-anchor="middle" x="72.5" y="-16.1" font-family="Helvetica,sans-Serif" font-size="8.00">C&#45;0118</text>
</g>
<!-- C&#45;0113&#45;&gt;C&#45;0118 -->
<g id="edge2" class="edge">
<title>C&#45;0113&#45;&gt;C&#45;0118</title>
<path fill="none" stroke="dimgray" stroke-width="0.8" d="M72.5,-93.88C72.5,-93.88 72.5,-43.07 72.5,-43.07"/>
<polygon fill="dimgray" stroke="dimgray" stroke-width="0.8" points="74.95,-43.07 72.5,-36.07 70.05,-43.07 74.95,-43.07"/>
</g>
<!-- 113&#45;35 -->
<g id="node2" class="node">
<title>113&#45;35</title>
<polygon fill="gold" stroke="black" points="141,-202.54 141,-217.46 100.87,-228 44.13,-228 4,-217.46 4,-202.54 44.13,-192 100.87,-192 141,-202.54"/>
<polygon fill="none" stroke="black" points="145,-199.46 145,-220.54 101.39,-232 43.61,-232 0,-220.54 0,-199.46 43.61,-188 101.39,-188 145,-199.46"/>
<text text-anchor="middle" x="72.5" y="-208.1" font-family="Helvetica,sans-Serif" font-size="8.00">113&#45;35</text>
</g>
<!-- 113&#45;35&#45;&gt;C&#45;0113 -->
<g id="edge1" class="edge">
<title>113&#45;35&#45;&gt;C&#45;0113</title>
<path fill="none" stroke="dimgray" stroke-width="0.8" d="M72.5,-187.76C72.5,-187.76 72.5,-137.21 72.5,-137.21"/>
<polygon fill="dimgray" stroke="dimgray" stroke-width="0.8" points="74.95,-137.21 72.5,-130.21 70.05,-137.21 74.95,-137.21"/>
</g>
</g>
</svg>
