<?xml version="1.0" encoding="UTF-8" standalone="no"?>
<!DOCTYPE svg PUBLIC "-//W3C//DTD SVG 1.1//EN"
 "http://www.w3.org/Graphics/SVG/1.1/DTD/svg11.dtd">
<!-- Generated by graphviz version 2.50.0 (0)
 -->
<!-- Title: Grafo_Circuito_114_23_ Pages: 1 -->
<svg width="930pt" height="1274pt"
 viewBox="0.00 0.00 930.00 1274.00" xmlns="http://www.w3.org/2000/svg" xmlns:xlink="http://www.w3.org/1999/xlink">
<g id="graph0" class="graph" transform="scale(1 1) rotate(0) translate(4 1270)">
<title>Grafo_Circuito_114_23_</title>
<polygon fill="white" stroke="transparent" points="-4,4 -4,-1270 926,-1270 926,4 -4,4"/>
<!-- R&#45;219 -->
<g id="node1" class="node">
<title>R&#45;219</title>
<polygon fill="mediumseagreen" stroke="black" points="656,-386.54 656,-401.46 615.87,-412 559.13,-412 519,-401.46 519,-386.54 559.13,-376 615.87,-376 656,-386.54"/>
<text text-anchor="middle" x="587.5" y="-392.1" font-family="Helvetica,sans-Serif" font-size="8.00">R&#45;219</text>
</g>
<!-- C&#45;0931 -->
<g id="node27" class="node">
<title>C&#45;0931</title>
<ellipse fill="mediumseagreen" stroke="black" cx="587.5" cy="-300" rx="68.5" ry="18"/>
<text text-anchor="middle" x="587.5" y="-298.1" font-family="Helvetica,sans-Serif" font-size="8.00">C&#45;0931</text>
</g>
<!-- R&#45;219&#45;&gt;C&#45;0931 -->
<g id="edge16" class="edge">
<title>R&#45;219&#45;&gt;C&#45;0931</title>
<path fill="none" stroke="dimgray" stroke-width="0.8" d="M587.5,-375.88C587.5,-375.88 587.5,-325.07 587.5,-325.07"/>
<polygon fill="dimgray" stroke="dimgray" stroke-width="0.8" points="589.95,-325.07 587.5,-318.07 585.05,-325.07 589.95,-325.07"/>
</g>
<!-- C&#45;0816 -->
<g id="node2" class="node">
<title>C&#45;0816</title>
<ellipse fill="mediumseagreen" stroke="black" cx="680.5" cy="-18" rx="68.5" ry="18"/>
<text text-anchor="middle" x="680.5" y="-16.1" font-family="Helvetica,sans-Serif" font-size="8.00">C&#45;0816</text>
</g>
<!-- S&#45;034 -->
<g id="node3" class="node">
<title>S&#45;034</title>
<polygon fill="mediumseagreen" stroke="black" points="680.5,-130 612,-112 680.5,-94 749,-112 680.5,-130"/>
<text text-anchor="middle" x="680.5" y="-110.1" font-family="Helvetica,sans-Serif" font-size="8.00">S&#45;034</text>
</g>
<!-- S&#45;034&#45;&gt;C&#45;0816 -->
<g id="edge19" class="edge">
<title>S&#45;034&#45;&gt;C&#45;0816</title>
<path fill="none" stroke="dimgray" stroke-width="0.8" d="M680.5,-93.88C680.5,-93.88 680.5,-43.07 680.5,-43.07"/>
<polygon fill="dimgray" stroke="dimgray" stroke-width="0.8" points="682.95,-43.07 680.5,-36.07 678.05,-43.07 682.95,-43.07"/>
</g>
<!-- S&#45;1244 -->
<g id="node19" class="node">
<title>S&#45;1244</title>
<polygon fill="mediumseagreen" stroke="black" points="853.5,-36 785,-18 853.5,0 922,-18 853.5,-36"/>
<text text-anchor="middle" x="853.5" y="-16.1" font-family="Helvetica,sans-Serif" font-size="8.00">S&#45;1244</text>
</g>
<!-- S&#45;034&#45;&gt;S&#45;1244 -->
<g id="edge20" class="edge">
<title>S&#45;034&#45;&gt;S&#45;1244</title>
<path fill="none" stroke="dimgray" stroke-width="0.8" d="M749.3,-112C778.97,-112 807,-112 807,-112 807,-112 807,-30.88 807,-30.88"/>
<polygon fill="dimgray" stroke="dimgray" stroke-width="0.8" points="809.45,-30.88 807,-23.88 804.55,-30.88 809.45,-30.88"/>
</g>
<!-- S&#45;778 -->
<g id="node4" class="node">
<title>S&#45;778</title>
<polygon fill="mediumseagreen" stroke="black" points="68.5,-600 0,-582 68.5,-564 137,-582 68.5,-600"/>
<text text-anchor="middle" x="68.5" y="-580.1" font-family="Helvetica,sans-Serif" font-size="8.00">S&#45;778</text>
</g>
<!-- C&#45;0581 -->
<g id="node5" class="node">
<title>C&#45;0581</title>
<ellipse fill="mediumseagreen" stroke="black" cx="241.5" cy="-958" rx="68.5" ry="18"/>
<text text-anchor="middle" x="241.5" y="-956.1" font-family="Helvetica,sans-Serif" font-size="8.00">C&#45;0581</text>
</g>
<!-- R&#45;108 -->
<g id="node11" class="node">
<title>R&#45;108</title>
<polygon fill="mediumseagreen" stroke="black" points="310,-856.54 310,-871.46 269.87,-882 213.13,-882 173,-871.46 173,-856.54 213.13,-846 269.87,-846 310,-856.54"/>
<text text-anchor="middle" x="241.5" y="-862.1" font-family="Helvetica,sans-Serif" font-size="8.00">R&#45;108</text>
</g>
<!-- C&#45;0581&#45;&gt;R&#45;108 -->
<g id="edge8" class="edge">
<title>C&#45;0581&#45;&gt;R&#45;108</title>
<path fill="none" stroke="dimgray" stroke-width="0.8" d="M241.5,-939.88C241.5,-939.88 241.5,-889.07 241.5,-889.07"/>
<polygon fill="dimgray" stroke="dimgray" stroke-width="0.8" points="243.95,-889.07 241.5,-882.07 239.05,-889.07 243.95,-889.07"/>
</g>
<!-- S&#45;117 -->
<g id="node6" class="node">
<title>S&#45;117</title>
<polygon fill="mediumseagreen" stroke="black" points="241.5,-600 173,-582 241.5,-564 310,-582 241.5,-600"/>
<text text-anchor="middle" x="241.5" y="-580.1" font-family="Helvetica,sans-Serif" font-size="8.00">S&#45;117</text>
</g>
<!-- C&#45;0052 -->
<g id="node7" class="node">
<title>C&#45;0052</title>
<ellipse fill="mediumseagreen" stroke="black" cx="462.5" cy="-1146" rx="68.5" ry="18"/>
<text text-anchor="middle" x="462.5" y="-1144.1" font-family="Helvetica,sans-Serif" font-size="8.00">C&#45;0052</text>
</g>
<!-- C&#45;0024 -->
<g id="node12" class="node">
<title>C&#45;0024</title>
<ellipse fill="mediumseagreen" stroke="black" cx="414.5" cy="-1052" rx="68.5" ry="18"/>
<text text-anchor="middle" x="414.5" y="-1050.1" font-family="Helvetica,sans-Serif" font-size="8.00">C&#45;0024</text>
</g>
<!-- C&#45;0052&#45;&gt;C&#45;0024 -->
<g id="edge5" class="edge">
<title>C&#45;0052&#45;&gt;C&#45;0024</title>
<path fill="none" stroke="dimgray" stroke-width="0.8" d="M438.5,-1128.76C438.5,-1128.76 438.5,-1076.13 438.5,-1076.13"/>
<polygon fill="dimgray" stroke="dimgray" stroke-width="0.8" points="440.95,-1076.13 438.5,-1069.13 436.05,-1076.13 440.95,-1076.13"/>
</g>
<!-- S&#45;2361 -->
<g id="node13" class="node">
<title>S&#45;2361</title>
<polygon fill="mediumseagreen" stroke="black" points="587.5,-1070 519,-1052 587.5,-1034 656,-1052 587.5,-1070"/>
<text text-anchor="middle" x="587.5" y="-1050.1" font-family="Helvetica,sans-Serif" font-size="8.00">S&#45;2361</text>
</g>
<!-- C&#45;0052&#45;&gt;S&#45;2361 -->
<g id="edge2" class="edge">
<title>C&#45;0052&#45;&gt;S&#45;2361</title>
<path fill="none" stroke="dimgray" stroke-width="0.8" d="M525,-1138.62C525,-1138.62 525,-1060.61 525,-1060.61"/>
<polygon fill="dimgray" stroke="dimgray" stroke-width="0.8" points="527.45,-1060.61 525,-1053.61 522.55,-1060.61 527.45,-1060.61"/>
</g>
<!-- C&#45;0199 -->
<g id="node8" class="node">
<title>C&#45;0199</title>
<ellipse fill="mediumseagreen" stroke="black" cx="414.5" cy="-582" rx="68.5" ry="18"/>
<text text-anchor="middle" x="414.5" y="-580.1" font-family="Helvetica,sans-Serif" font-size="8.00">C&#45;0199</text>
</g>
<!-- S&#45;118 -->
<g id="node10" class="node">
<title>S&#45;118</title>
<polygon fill="mediumseagreen" stroke="black" points="241.5,-506 173,-488 241.5,-470 310,-488 241.5,-506"/>
<text text-anchor="middle" x="241.5" y="-486.1" font-family="Helvetica,sans-Serif" font-size="8.00">S&#45;118</text>
</g>
<!-- C&#45;0199&#45;&gt;S&#45;118 -->
<g id="edge12" class="edge">
<title>C&#45;0199&#45;&gt;S&#45;118</title>
<path fill="none" stroke="dimgray" stroke-width="0.8" d="M345.88,-582C338.72,-582 334,-582 334,-582 334,-582 334,-488 334,-488 334,-488 317.18,-488 317.18,-488"/>
<polygon fill="dimgray" stroke="dimgray" stroke-width="0.8" points="317.18,-485.55 310.18,-488 317.18,-490.45 317.18,-485.55"/>
</g>
<!-- C&#45;0930 -->
<g id="node14" class="node">
<title>C&#45;0930</title>
<ellipse fill="tomato" stroke="black" cx="414.5" cy="-488" rx="68.5" ry="18"/>
<text text-anchor="middle" x="414.5" y="-486.1" font-family="Helvetica,sans-Serif" font-size="8.00">C&#45;0930</text>
</g>
<!-- C&#45;0199&#45;&gt;C&#45;0930 -->
<g id="edge14" class="edge">
<title>C&#45;0199&#45;&gt;C&#45;0930</title>
<path fill="none" stroke="dimgray" stroke-width="0.8" d="M414.5,-563.88C414.5,-563.88 414.5,-513.07 414.5,-513.07"/>
<polygon fill="dimgray" stroke="dimgray" stroke-width="0.8" points="416.95,-513.07 414.5,-506.07 412.05,-513.07 416.95,-513.07"/>
</g>
<!-- C&#45;0929 -->
<g id="node23" class="node">
<title>C&#45;0929</title>
<ellipse fill="mediumseagreen" stroke="black" cx="587.5" cy="-488" rx="68.5" ry="18"/>
<text text-anchor="middle" x="587.5" y="-486.1" font-family="Helvetica,sans-Serif" font-size="8.00">C&#45;0929</text>
</g>
<!-- C&#45;0199&#45;&gt;C&#45;0929 -->
<g id="edge13" class="edge">
<title>C&#45;0199&#45;&gt;C&#45;0929</title>
<path fill="none" stroke="dimgray" stroke-width="0.8" d="M483.37,-582C531.62,-582 587.5,-582 587.5,-582 587.5,-582 587.5,-513.12 587.5,-513.12"/>
<polygon fill="dimgray" stroke="dimgray" stroke-width="0.8" points="589.95,-513.12 587.5,-506.12 585.05,-513.12 589.95,-513.12"/>
</g>
<!-- S&#45;2444 -->
<g id="node9" class="node">
<title>S&#45;2444</title>
<polygon fill="mediumseagreen" stroke="black" points="587.5,-976 519,-958 587.5,-940 656,-958 587.5,-976"/>
<text text-anchor="middle" x="587.5" y="-956.1" font-family="Helvetica,sans-Serif" font-size="8.00">S&#45;2444</text>
</g>
<!-- S&#45;2445 -->
<g id="node18" class="node">
<title>S&#45;2445</title>
<polygon fill="mediumseagreen" stroke="black" points="587.5,-882 519,-864 587.5,-846 656,-864 587.5,-882"/>
<text text-anchor="middle" x="587.5" y="-862.1" font-family="Helvetica,sans-Serif" font-size="8.00">S&#45;2445</text>
</g>
<!-- S&#45;2444&#45;&gt;S&#45;2445 -->
<g id="edge4" class="edge">
<title>S&#45;2444&#45;&gt;S&#45;2445</title>
<path fill="none" stroke="dimgray" stroke-width="0.8" d="M587.5,-939.88C587.5,-939.88 587.5,-889.07 587.5,-889.07"/>
<polygon fill="dimgray" stroke="dimgray" stroke-width="0.8" points="589.95,-889.07 587.5,-882.07 585.05,-889.07 589.95,-889.07"/>
</g>
<!-- C&#45;0582 -->
<g id="node21" class="node">
<title>C&#45;0582</title>
<ellipse fill="mediumseagreen" stroke="black" cx="241.5" cy="-770" rx="68.5" ry="18"/>
<text text-anchor="middle" x="241.5" y="-768.1" font-family="Helvetica,sans-Serif" font-size="8.00">C&#45;0582</text>
</g>
<!-- R&#45;108&#45;&gt;C&#45;0582 -->
<g id="edge9" class="edge">
<title>R&#45;108&#45;&gt;C&#45;0582</title>
<path fill="none" stroke="dimgray" stroke-width="0.8" d="M241.5,-845.88C241.5,-845.88 241.5,-795.07 241.5,-795.07"/>
<polygon fill="dimgray" stroke="dimgray" stroke-width="0.8" points="243.95,-795.07 241.5,-788.07 239.05,-795.07 243.95,-795.07"/>
</g>
<!-- C&#45;0024&#45;&gt;C&#45;0581 -->
<g id="edge7" class="edge">
<title>C&#45;0024&#45;&gt;C&#45;0581</title>
<path fill="none" stroke="dimgray" stroke-width="0.8" d="M345.63,-1052C305.8,-1052 263.5,-1052 263.5,-1052 263.5,-1052 263.5,-982.24 263.5,-982.24"/>
<polygon fill="dimgray" stroke="dimgray" stroke-width="0.8" points="265.95,-982.24 263.5,-975.24 261.05,-982.24 265.95,-982.24"/>
</g>
<!-- C&#45;0580 -->
<g id="node17" class="node">
<title>C&#45;0580</title>
<ellipse fill="tomato" stroke="black" cx="414.5" cy="-958" rx="68.5" ry="18"/>
<text text-anchor="middle" x="414.5" y="-956.1" font-family="Helvetica,sans-Serif" font-size="8.00">C&#45;0580</text>
</g>
<!-- C&#45;0024&#45;&gt;C&#45;0580 -->
<g id="edge6" class="edge">
<title>C&#45;0024&#45;&gt;C&#45;0580</title>
<path fill="none" stroke="dimgray" stroke-width="0.8" d="M414.5,-1033.88C414.5,-1033.88 414.5,-983.07 414.5,-983.07"/>
<polygon fill="dimgray" stroke="dimgray" stroke-width="0.8" points="416.95,-983.07 414.5,-976.07 412.05,-983.07 416.95,-983.07"/>
</g>
<!-- S&#45;2361&#45;&gt;S&#45;2444 -->
<g id="edge3" class="edge">
<title>S&#45;2361&#45;&gt;S&#45;2444</title>
<path fill="none" stroke="dimgray" stroke-width="0.8" d="M587.5,-1033.88C587.5,-1033.88 587.5,-983.07 587.5,-983.07"/>
<polygon fill="dimgray" stroke="dimgray" stroke-width="0.8" points="589.95,-983.07 587.5,-976.07 585.05,-983.07 589.95,-983.07"/>
</g>
<!-- C&#45;0930&#45;&gt;C&#45;0931 -->
<g id="edge28" class="edge">
<title>C&#45;0930&#45;&gt;C&#45;0931</title>
<path fill="none" stroke="blue" stroke-width="0.8" stroke-dasharray="5,2" d="M391.67,-470.88C391.67,-425.57 391.67,-306 391.67,-306 391.67,-306 515.83,-306 515.83,-306"/>
<polygon fill="blue" stroke="blue" stroke-width="0.8" points="515.83,-308.45 522.83,-306 515.83,-303.55 515.83,-308.45"/>
</g>
<!-- C&#45;0805 -->
<g id="node15" class="node">
<title>C&#45;0805</title>
<ellipse fill="mediumseagreen" stroke="black" cx="507.5" cy="-112" rx="68.5" ry="18"/>
<text text-anchor="middle" x="507.5" y="-110.1" font-family="Helvetica,sans-Serif" font-size="8.00">C&#45;0805</text>
</g>
<!-- R&#45;180 -->
<g id="node26" class="node">
<title>R&#45;180</title>
<polygon fill="tomato" stroke="black" points="576,-10.54 576,-25.46 535.87,-36 479.13,-36 439,-25.46 439,-10.54 479.13,0 535.87,0 576,-10.54"/>
<text text-anchor="middle" x="507.5" y="-16.1" font-family="Helvetica,sans-Serif" font-size="8.00">R&#45;180</text>
</g>
<!-- C&#45;0805&#45;&gt;R&#45;180 -->
<g id="edge22" class="edge">
<title>C&#45;0805&#45;&gt;R&#45;180</title>
<path fill="none" stroke="dimgray" stroke-width="0.8" d="M507.5,-93.88C507.5,-93.88 507.5,-43.07 507.5,-43.07"/>
<polygon fill="dimgray" stroke="dimgray" stroke-width="0.8" points="509.95,-43.07 507.5,-36.07 505.05,-43.07 509.95,-43.07"/>
</g>
<!-- S&#45;1756 -->
<g id="node16" class="node">
<title>S&#45;1756</title>
<polygon fill="mediumseagreen" stroke="black" points="414.5,-224 346,-206 414.5,-188 483,-206 414.5,-224"/>
<text text-anchor="middle" x="414.5" y="-204.1" font-family="Helvetica,sans-Serif" font-size="8.00">S&#45;1756</text>
</g>
<!-- C&#45;0297 -->
<g id="node24" class="node">
<title>C&#45;0297</title>
<ellipse fill="mediumseagreen" stroke="black" cx="241.5" cy="-676" rx="68.5" ry="18"/>
<text text-anchor="middle" x="241.5" y="-674.1" font-family="Helvetica,sans-Serif" font-size="8.00">C&#45;0297</text>
</g>
<!-- C&#45;0580&#45;&gt;C&#45;0297 -->
<g id="edge27" class="edge">
<title>C&#45;0580&#45;&gt;C&#45;0297</title>
<path fill="none" stroke="blue" stroke-width="0.8" stroke-dasharray="5,2" d="M391.67,-940.73C391.67,-880.31 391.67,-682 391.67,-682 391.67,-682 313.49,-682 313.49,-682"/>
<polygon fill="blue" stroke="blue" stroke-width="0.8" points="313.49,-679.55 306.49,-682 313.49,-684.45 313.49,-679.55"/>
</g>
<!-- 114&#45;23&#45; -->
<g id="node20" class="node">
<title>114&#45;23&#45;</title>
<polygon fill="gold" stroke="black" points="531,-1236.54 531,-1251.46 490.87,-1262 434.13,-1262 394,-1251.46 394,-1236.54 434.13,-1226 490.87,-1226 531,-1236.54"/>
<polygon fill="none" stroke="black" points="535,-1233.46 535,-1254.54 491.39,-1266 433.61,-1266 390,-1254.54 390,-1233.46 433.61,-1222 491.39,-1222 535,-1233.46"/>
<text text-anchor="middle" x="462.5" y="-1242.1" font-family="Helvetica,sans-Serif" font-size="8.00">114&#45;23&#45;</text>
</g>
<!-- 114&#45;23&#45;&#45;&gt;C&#45;0052 -->
<g id="edge1" class="edge">
<title>114&#45;23&#45;&#45;&gt;C&#45;0052</title>
<path fill="none" stroke="dimgray" stroke-width="0.8" d="M462.5,-1221.76C462.5,-1221.76 462.5,-1171.21 462.5,-1171.21"/>
<polygon fill="dimgray" stroke="dimgray" stroke-width="0.8" points="464.95,-1171.21 462.5,-1164.21 460.05,-1171.21 464.95,-1171.21"/>
</g>
<!-- C&#45;0582&#45;&gt;C&#45;0297 -->
<g id="edge10" class="edge">
<title>C&#45;0582&#45;&gt;C&#45;0297</title>
<path fill="none" stroke="dimgray" stroke-width="0.8" d="M241.5,-751.88C241.5,-751.88 241.5,-701.07 241.5,-701.07"/>
<polygon fill="dimgray" stroke="dimgray" stroke-width="0.8" points="243.95,-701.07 241.5,-694.07 239.05,-701.07 243.95,-701.07"/>
</g>
<!-- R&#45;076 -->
<g id="node22" class="node">
<title>R&#45;076</title>
<polygon fill="mediumseagreen" stroke="black" points="656,-198.54 656,-213.46 615.87,-224 559.13,-224 519,-213.46 519,-198.54 559.13,-188 615.87,-188 656,-198.54"/>
<text text-anchor="middle" x="587.5" y="-204.1" font-family="Helvetica,sans-Serif" font-size="8.00">R&#45;076</text>
</g>
<!-- R&#45;076&#45;&gt;S&#45;034 -->
<g id="edge18" class="edge">
<title>R&#45;076&#45;&gt;S&#45;034</title>
<path fill="none" stroke="dimgray" stroke-width="0.8" d="M634,-192.53C634,-192.53 634,-125.05 634,-125.05"/>
<polygon fill="dimgray" stroke="dimgray" stroke-width="0.8" points="636.45,-125.05 634,-118.05 631.55,-125.05 636.45,-125.05"/>
</g>
<!-- R&#45;076&#45;&gt;C&#45;0805 -->
<g id="edge21" class="edge">
<title>R&#45;076&#45;&gt;C&#45;0805</title>
<path fill="none" stroke="dimgray" stroke-width="0.8" d="M547.5,-190.9C547.5,-190.9 547.5,-133.76 547.5,-133.76"/>
<polygon fill="dimgray" stroke="dimgray" stroke-width="0.8" points="549.95,-133.76 547.5,-126.76 545.05,-133.76 549.95,-133.76"/>
</g>
<!-- C&#45;0929&#45;&gt;R&#45;219 -->
<g id="edge15" class="edge">
<title>C&#45;0929&#45;&gt;R&#45;219</title>
<path fill="none" stroke="dimgray" stroke-width="0.8" d="M587.5,-469.88C587.5,-469.88 587.5,-419.07 587.5,-419.07"/>
<polygon fill="dimgray" stroke="dimgray" stroke-width="0.8" points="589.95,-419.07 587.5,-412.07 585.05,-419.07 589.95,-419.07"/>
</g>
<!-- C&#45;0297&#45;&gt;S&#45;778 -->
<g id="edge25" class="edge">
<title>C&#45;0297&#45;&gt;S&#45;778</title>
<path fill="none" stroke="dimgray" stroke-width="0.8" d="M172.63,-676C124.38,-676 68.5,-676 68.5,-676 68.5,-676 68.5,-607.12 68.5,-607.12"/>
<polygon fill="dimgray" stroke="dimgray" stroke-width="0.8" points="70.95,-607.12 68.5,-600.12 66.05,-607.12 70.95,-607.12"/>
</g>
<!-- C&#45;0297&#45;&gt;S&#45;117 -->
<g id="edge26" class="edge">
<title>C&#45;0297&#45;&gt;S&#45;117</title>
<path fill="none" stroke="dimgray" stroke-width="0.8" d="M241.5,-657.88C241.5,-657.88 241.5,-607.07 241.5,-607.07"/>
<polygon fill="dimgray" stroke="dimgray" stroke-width="0.8" points="243.95,-607.07 241.5,-600.07 239.05,-607.07 243.95,-607.07"/>
</g>
<!-- C&#45;0297&#45;&gt;C&#45;0199 -->
<g id="edge11" class="edge">
<title>C&#45;0297&#45;&gt;C&#45;0199</title>
<path fill="none" stroke="dimgray" stroke-width="0.8" d="M306.17,-670C363.21,-670 437.33,-670 437.33,-670 437.33,-670 437.33,-606.39 437.33,-606.39"/>
<polygon fill="dimgray" stroke="dimgray" stroke-width="0.8" points="439.78,-606.39 437.33,-599.39 434.88,-606.39 439.78,-606.39"/>
</g>
<!-- S&#45;1757 -->
<g id="node25" class="node">
<title>S&#45;1757</title>
<polygon fill="mediumseagreen" stroke="black" points="760.5,-224 692,-206 760.5,-188 829,-206 760.5,-224"/>
<text text-anchor="middle" x="760.5" y="-204.1" font-family="Helvetica,sans-Serif" font-size="8.00">S&#45;1757</text>
</g>
<!-- ext_circ_113_24_ -->
<g id="node28" class="node">
<title>ext_circ_113_24_</title>
<polygon fill="lightpink" stroke="red" stroke-dasharray="5,2" points="354,-1262 217,-1262 217,-1226 354,-1226 354,-1262"/>
<text text-anchor="middle" x="285.5" y="-1246.6" font-family="Helvetica,sans-Serif" font-size="8.00">Circuito:</text>
<text text-anchor="middle" x="285.5" y="-1237.6" font-family="Helvetica,sans-Serif" font-size="8.00">113&#45;24&#45;</text>
</g>
<!-- R&#45;180&#45;&gt;ext_circ_113_24_ -->
<g id="edge29" class="edge">
<title>R&#45;180&#45;&gt;ext_circ_113_24_</title>
<path fill="none" stroke="red" stroke-width="0.8" stroke-dasharray="5,2" d="M438.95,-18C386.11,-18 322,-18 322,-18 322,-18 322,-1218.72 322,-1218.72"/>
<polygon fill="red" stroke="red" stroke-width="0.8" points="319.55,-1218.72 322,-1225.72 324.45,-1218.72 319.55,-1218.72"/>
</g>
<!-- C&#45;0931&#45;&gt;S&#45;1756 -->
<g id="edge23" class="edge">
<title>C&#45;0931&#45;&gt;S&#45;1756</title>
<path fill="none" stroke="dimgray" stroke-width="0.8" d="M522.51,-294C481.92,-294 437.33,-294 437.33,-294 437.33,-294 437.33,-225.24 437.33,-225.24"/>
<polygon fill="dimgray" stroke="dimgray" stroke-width="0.8" points="439.78,-225.24 437.33,-218.24 434.88,-225.24 439.78,-225.24"/>
</g>
<!-- C&#45;0931&#45;&gt;R&#45;076 -->
<g id="edge17" class="edge">
<title>C&#45;0931&#45;&gt;R&#45;076</title>
<path fill="none" stroke="dimgray" stroke-width="0.8" d="M587.5,-281.88C587.5,-281.88 587.5,-231.07 587.5,-231.07"/>
<polygon fill="dimgray" stroke="dimgray" stroke-width="0.8" points="589.95,-231.07 587.5,-224.07 585.05,-231.07 589.95,-231.07"/>
</g>
<!-- C&#45;0931&#45;&gt;S&#45;1757 -->
<g id="edge24" class="edge">
<title>C&#45;0931&#45;&gt;S&#45;1757</title>
<path fill="none" stroke="dimgray" stroke-width="0.8" d="M656.37,-300C704.62,-300 760.5,-300 760.5,-300 760.5,-300 760.5,-231.12 760.5,-231.12"/>
<polygon fill="dimgray" stroke="dimgray" stroke-width="0.8" points="762.95,-231.12 760.5,-224.12 758.05,-231.12 762.95,-231.12"/>
</g>
</g>
</svg>
