<?xml version="1.0" encoding="UTF-8" standalone="no"?>
<!DOCTYPE svg PUBLIC "-//W3C//DTD SVG 1.1//EN"
 "http://www.w3.org/Graphics/SVG/1.1/DTD/svg11.dtd">
<!-- Generated by graphviz version 2.50.0 (0)
 -->
<!-- Title: Grafo_Circuito_101_33 Pages: 1 -->
<svg width="318pt" height="428pt"
 viewBox="0.00 0.00 318.00 428.00" xmlns="http://www.w3.org/2000/svg" xmlns:xlink="http://www.w3.org/1999/xlink">
<g id="graph0" class="graph" transform="scale(1 1) rotate(0) translate(4 424)">
<title>Grafo_Circuito_101_33</title>
<polygon fill="white" stroke="transparent" points="-4,4 -4,-424 314,-424 314,4 -4,4"/>
<!-- C&#45;0131 -->
<g id="node1" class="node">
<title>C&#45;0131</title>
<ellipse fill="mediumseagreen" stroke="black" cx="154.5" cy="-300" rx="68.5" ry="18"/>
<text text-anchor="middle" x="154.5" y="-298.1" font-family="Helvetica,sans-Serif" font-size="8.00">C&#45;0131</text>
</g>
<!-- C&#45;0043 -->
<g id="node6" class="node">
<title>C&#45;0043</title>
<ellipse fill="mediumseagreen" stroke="black" cx="68.5" cy="-206" rx="68.5" ry="18"/>
<text text-anchor="middle" x="68.5" y="-204.1" font-family="Helvetica,sans-Serif" font-size="8.00">C&#45;0043</text>
</g>
<!-- C&#45;0131&#45;&gt;C&#45;0043 -->
<g id="edge4" class="edge">
<title>C&#45;0131&#45;&gt;C&#45;0043</title>
<path fill="none" stroke="dimgray" stroke-width="0.8" d="M111.5,-285.72C111.5,-285.72 111.5,-227.1 111.5,-227.1"/>
<polygon fill="dimgray" stroke="dimgray" stroke-width="0.8" points="113.95,-227.1 111.5,-220.1 109.05,-227.1 113.95,-227.1"/>
</g>
<!-- C&#45;0042 -->
<g id="node7" class="node">
<title>C&#45;0042</title>
<ellipse fill="mediumseagreen" stroke="black" cx="241.5" cy="-206" rx="68.5" ry="18"/>
<text text-anchor="middle" x="241.5" y="-204.1" font-family="Helvetica,sans-Serif" font-size="8.00">C&#45;0042</text>
</g>
<!-- C&#45;0131&#45;&gt;C&#45;0042 -->
<g id="edge2" class="edge">
<title>C&#45;0131&#45;&gt;C&#45;0042</title>
<path fill="none" stroke="dimgray" stroke-width="0.8" d="M198,-285.72C198,-285.72 198,-227.1 198,-227.1"/>
<polygon fill="dimgray" stroke="dimgray" stroke-width="0.8" points="200.45,-227.1 198,-220.1 195.55,-227.1 200.45,-227.1"/>
</g>
<!-- 101&#45;33 -->
<g id="node2" class="node">
<title>101&#45;33</title>
<polygon fill="gold" stroke="black" points="223,-390.54 223,-405.46 182.87,-416 126.13,-416 86,-405.46 86,-390.54 126.13,-380 182.87,-380 223,-390.54"/>
<polygon fill="none" stroke="black" points="227,-387.46 227,-408.54 183.39,-420 125.61,-420 82,-408.54 82,-387.46 125.61,-376 183.39,-376 227,-387.46"/>
<text text-anchor="middle" x="154.5" y="-396.1" font-family="Helvetica,sans-Serif" font-size="8.00">101&#45;33</text>
</g>
<!-- 101&#45;33&#45;&gt;C&#45;0131 -->
<g id="edge1" class="edge">
<title>101&#45;33&#45;&gt;C&#45;0131</title>
<path fill="none" stroke="dimgray" stroke-width="0.8" d="M154.5,-375.76C154.5,-375.76 154.5,-325.21 154.5,-325.21"/>
<polygon fill="dimgray" stroke="dimgray" stroke-width="0.8" points="156.95,-325.21 154.5,-318.21 152.05,-325.21 156.95,-325.21"/>
</g>
<!-- S&#45;1710 -->
<g id="node3" class="node">
<title>S&#45;1710</title>
<polygon fill="mediumseagreen" stroke="black" points="241.5,-130 173,-112 241.5,-94 310,-112 241.5,-130"/>
<text text-anchor="middle" x="241.5" y="-110.1" font-family="Helvetica,sans-Serif" font-size="8.00">S&#45;1710</text>
</g>
<!-- C&#45;0556 -->
<g id="node4" class="node">
<title>C&#45;0556</title>
<ellipse fill="mediumseagreen" stroke="black" cx="68.5" cy="-112" rx="68.5" ry="18"/>
<text text-anchor="middle" x="68.5" y="-110.1" font-family="Helvetica,sans-Serif" font-size="8.00">C&#45;0556</text>
</g>
<!-- C&#45;0175 -->
<g id="node5" class="node">
<title>C&#45;0175</title>
<ellipse fill="mediumseagreen" stroke="black" cx="68.5" cy="-18" rx="68.5" ry="18"/>
<text text-anchor="middle" x="68.5" y="-16.1" font-family="Helvetica,sans-Serif" font-size="8.00">C&#45;0175</text>
</g>
<!-- C&#45;0556&#45;&gt;C&#45;0175 -->
<g id="edge6" class="edge">
<title>C&#45;0556&#45;&gt;C&#45;0175</title>
<path fill="none" stroke="dimgray" stroke-width="0.8" d="M68.5,-93.88C68.5,-93.88 68.5,-43.07 68.5,-43.07"/>
<polygon fill="dimgray" stroke="dimgray" stroke-width="0.8" points="70.95,-43.07 68.5,-36.07 66.05,-43.07 70.95,-43.07"/>
</g>
<!-- C&#45;0043&#45;&gt;C&#45;0556 -->
<g id="edge5" class="edge">
<title>C&#45;0043&#45;&gt;C&#45;0556</title>
<path fill="none" stroke="dimgray" stroke-width="0.8" d="M68.5,-187.88C68.5,-187.88 68.5,-137.07 68.5,-137.07"/>
<polygon fill="dimgray" stroke="dimgray" stroke-width="0.8" points="70.95,-137.07 68.5,-130.07 66.05,-137.07 70.95,-137.07"/>
</g>
<!-- C&#45;0042&#45;&gt;S&#45;1710 -->
<g id="edge3" class="edge">
<title>C&#45;0042&#45;&gt;S&#45;1710</title>
<path fill="none" stroke="dimgray" stroke-width="0.8" d="M241.5,-187.88C241.5,-187.88 241.5,-137.07 241.5,-137.07"/>
<polygon fill="dimgray" stroke="dimgray" stroke-width="0.8" points="243.95,-137.07 241.5,-130.07 239.05,-137.07 243.95,-137.07"/>
</g>
</g>
</svg>
