<?xml version="1.0" encoding="UTF-8" standalone="no"?>
<!DOCTYPE svg PUBLIC "-//W3C//DTD SVG 1.1//EN"
 "http://www.w3.org/Graphics/SVG/1.1/DTD/svg11.dtd">
<!-- Generated by graphviz version 2.50.0 (0)
 -->
<!-- Title: Grafo_Circuito_111_32 Pages: 1 -->
<svg width="318pt" height="240pt"
 viewBox="0.00 0.00 318.00 240.00" xmlns="http://www.w3.org/2000/svg" xmlns:xlink="http://www.w3.org/1999/xlink">
<g id="graph0" class="graph" transform="scale(1 1) rotate(0) translate(4 236)">
<title>Grafo_Circuito_111_32</title>
<polygon fill="white" stroke="transparent" points="-4,4 -4,-236 314,-236 314,4 -4,4"/>
<!-- C&#45;0091 -->
<g id="node1" class="node">
<title>C&#45;0091</title>
<ellipse fill="mediumseagreen" stroke="black" cx="68.5" cy="-18" rx="68.5" ry="18"/>
<text text-anchor="middle" x="68.5" y="-16.1" font-family="Helvetica,sans-Serif" font-size="8.00">C&#45;0091</text>
</g>
<!-- C&#45;0078 -->
<g id="node2" class="node">
<title>C&#45;0078</title>
<ellipse fill="mediumseagreen" stroke="black" cx="154.5" cy="-112" rx="68.5" ry="18"/>
<text text-anchor="middle" x="154.5" y="-110.1" font-family="Helvetica,sans-Serif" font-size="8.00">C&#45;0078</text>
</g>
<!-- C&#45;0078&#45;&gt;C&#45;0091 -->
<g id="edge3" class="edge">
<title>C&#45;0078&#45;&gt;C&#45;0091</title>
<path fill="none" stroke="dimgray" stroke-width="0.8" d="M111.5,-97.72C111.5,-97.72 111.5,-39.1 111.5,-39.1"/>
<polygon fill="dimgray" stroke="dimgray" stroke-width="0.8" points="113.95,-39.1 111.5,-32.1 109.05,-39.1 113.95,-39.1"/>
</g>
<!-- C&#45;0679 -->
<g id="node3" class="node">
<title>C&#45;0679</title>
<ellipse fill="mediumseagreen" stroke="black" cx="241.5" cy="-18" rx="68.5" ry="18"/>
<text text-anchor="middle" x="241.5" y="-16.1" font-family="Helvetica,sans-Serif" font-size="8.00">C&#45;0679</text>
</g>
<!-- C&#45;0078&#45;&gt;C&#45;0679 -->
<g id="edge2" class="edge">
<title>C&#45;0078&#45;&gt;C&#45;0679</title>
<path fill="none" stroke="dimgray" stroke-width="0.8" d="M198,-97.72C198,-97.72 198,-39.1 198,-39.1"/>
<polygon fill="dimgray" stroke="dimgray" stroke-width="0.8" points="200.45,-39.1 198,-32.1 195.55,-39.1 200.45,-39.1"/>
</g>
<!-- 111&#45;32 -->
<g id="node4" class="node">
<title>111&#45;32</title>
<polygon fill="gold" stroke="black" points="223,-202.54 223,-217.46 182.87,-228 126.13,-228 86,-217.46 86,-202.54 126.13,-192 182.87,-192 223,-202.54"/>
<polygon fill="none" stroke="black" points="227,-199.46 227,-220.54 183.39,-232 125.61,-232 82,-220.54 82,-199.46 125.61,-188 183.39,-188 227,-199.46"/>
<text text-anchor="middle" x="154.5" y="-208.1" font-family="Helvetica,sans-Serif" font-size="8.00">111&#45;32</text>
</g>
<!-- 111&#45;32&#45;&gt;C&#45;0078 -->
<g id="edge1" class="edge">
<title>111&#45;32&#45;&gt;C&#45;0078</title>
<path fill="none" stroke="dimgray" stroke-width="0.8" d="M154.5,-187.76C154.5,-187.76 154.5,-137.21 154.5,-137.21"/>
<polygon fill="dimgray" stroke="dimgray" stroke-width="0.8" points="156.95,-137.21 154.5,-130.21 152.05,-137.21 156.95,-137.21"/>
</g>
</g>
</svg>
