<?xml version="1.0" encoding="UTF-8" standalone="no"?>
<!DOCTYPE svg PUBLIC "-//W3C//DTD SVG 1.1//EN"
 "http://www.w3.org/Graphics/SVG/1.1/DTD/svg11.dtd">
<!-- Generated by graphviz version 2.50.0 (0)
 -->
<!-- Title: Grafo_Circuito_208_26_ Pages: 1 -->
<svg width="1756pt" height="1473pt"
 viewBox="0.00 0.00 1756.00 1473.00" xmlns="http://www.w3.org/2000/svg" xmlns:xlink="http://www.w3.org/1999/xlink">
<g id="graph0" class="graph" transform="scale(1 1) rotate(0) translate(4 1469)">
<title>Grafo_Circuito_208_26_</title>
<polygon fill="white" stroke="transparent" points="-4,4 -4,-1469 1752,-1469 1752,4 -4,4"/>
<!-- R&#45;119 -->
<g id="node1" class="node">
<title>R&#45;119</title>
<polygon fill="mediumseagreen" stroke="black" points="1073,-921.59 1073,-939.41 1030.82,-952 971.18,-952 929,-939.41 929,-921.59 971.18,-909 1030.82,-909 1073,-921.59"/>
<text text-anchor="middle" x="1001" y="-928" font-family="Arial" font-size="10.00">R&#45;119</text>
</g>
<!-- C&#45;0557 -->
<g id="node15" class="node">
<title>C&#45;0557</title>
<ellipse fill="mediumseagreen" stroke="black" cx="866" cy="-829.5" rx="72" ry="21.5"/>
<text text-anchor="middle" x="866" y="-827" font-family="Arial" font-size="10.00">C&#45;0557</text>
</g>
<!-- R&#45;119&#45;&gt;C&#45;0557 -->
<g id="edge10" class="edge">
<title>R&#45;119&#45;&gt;C&#45;0557</title>
<path fill="none" stroke="#4d4d4d" d="M933.5,-920.07C933.5,-920.07 933.5,-844.17 933.5,-844.17"/>
<polygon fill="#4d4d4d" stroke="#4d4d4d" points="935.95,-844.17 933.5,-837.17 931.05,-844.17 935.95,-844.17"/>
</g>
<!-- S&#45;1278 -->
<g id="node2" class="node">
<title>S&#45;1278</title>
<polygon fill="mediumseagreen" stroke="black" points="1676,-851 1604,-829.5 1676,-808 1748,-829.5 1676,-851"/>
<text text-anchor="middle" x="1676" y="-827" font-family="Arial" font-size="10.00">S&#45;1278</text>
</g>
<!-- S&#45;916 -->
<g id="node3" class="node">
<title>S&#45;916</title>
<polygon fill="mediumseagreen" stroke="black" points="1631,-952 1559,-930.5 1631,-909 1703,-930.5 1631,-952"/>
<text text-anchor="middle" x="1631" y="-928" font-family="Arial" font-size="10.00">S&#45;916</text>
</g>
<!-- S&#45;916&#45;&gt;S&#45;1278 -->
<g id="edge35" class="edge">
<title>S&#45;916&#45;&gt;S&#45;1278</title>
<path fill="none" stroke="#4d4d4d" d="M1653.5,-915.6C1653.5,-915.6 1653.5,-851.46 1653.5,-851.46"/>
<polygon fill="#4d4d4d" stroke="#4d4d4d" points="1655.95,-851.46 1653.5,-844.46 1651.05,-851.46 1655.95,-851.46"/>
</g>
<!-- S&#45;2500 -->
<g id="node4" class="node">
<title>S&#45;2500</title>
<polygon fill="mediumseagreen" stroke="black" points="686,-750 614,-728.5 686,-707 758,-728.5 686,-750"/>
<text text-anchor="middle" x="686" y="-726" font-family="Arial" font-size="10.00">S&#45;2500</text>
</g>
<!-- S&#45;2279 -->
<g id="node5" class="node">
<title>S&#45;2279</title>
<polygon fill="mediumseagreen" stroke="black" points="1316,-43 1244,-21.5 1316,0 1388,-21.5 1316,-43"/>
<text text-anchor="middle" x="1316" y="-19" font-family="Arial" font-size="10.00">S&#45;2279</text>
</g>
<!-- S&#45;2596 -->
<g id="node6" class="node">
<title>S&#45;2596</title>
<polygon fill="mediumseagreen" stroke="black" points="702,-649 630,-627.5 702,-606 774,-627.5 702,-649"/>
<text text-anchor="middle" x="702" y="-625" font-family="Arial" font-size="10.00">S&#45;2596</text>
</g>
<!-- S&#45;2060 -->
<g id="node7" class="node">
<title>S&#45;2060</title>
<polygon fill="mediumseagreen" stroke="black" points="72,-1154 0,-1132.5 72,-1111 144,-1132.5 72,-1154"/>
<text text-anchor="middle" x="72" y="-1130" font-family="Arial" font-size="10.00">S&#45;2060</text>
</g>
<!-- 208&#45;26&#45; -->
<g id="node8" class="node">
<title>208&#45;26&#45;</title>
<polygon fill="gold" stroke="black" points="668,-1430.59 668,-1448.41 625.82,-1461 566.18,-1461 524,-1448.41 524,-1430.59 566.18,-1418 625.82,-1418 668,-1430.59"/>
<polygon fill="none" stroke="black" points="672,-1427.61 672,-1451.39 626.41,-1465 565.59,-1465 520,-1451.39 520,-1427.61 565.59,-1414 626.41,-1414 672,-1427.61"/>
<text text-anchor="middle" x="596" y="-1437" font-family="Arial" font-size="10.00">208&#45;26&#45;</text>
</g>
<!-- C&#45;0100 -->
<g id="node24" class="node">
<title>C&#45;0100</title>
<ellipse fill="mediumseagreen" stroke="black" cx="596" cy="-1334.5" rx="72" ry="21.5"/>
<text text-anchor="middle" x="596" y="-1332" font-family="Arial" font-size="10.00">C&#45;0100</text>
</g>
<!-- 208&#45;26&#45;&#45;&gt;C&#45;0100 -->
<g id="edge1" class="edge">
<title>208&#45;26&#45;&#45;&gt;C&#45;0100</title>
<path fill="none" stroke="#4d4d4d" d="M596,-1413.81C596,-1413.81 596,-1363.03 596,-1363.03"/>
<polygon fill="#4d4d4d" stroke="#4d4d4d" points="598.45,-1363.03 596,-1356.03 593.55,-1363.03 598.45,-1363.03"/>
</g>
<!-- S&#45;1652 -->
<g id="node9" class="node">
<title>S&#45;1652</title>
<polygon fill="mediumseagreen" stroke="black" points="1316,-245 1244,-223.5 1316,-202 1388,-223.5 1316,-245"/>
<text text-anchor="middle" x="1316" y="-221" font-family="Arial" font-size="10.00">S&#45;1652</text>
</g>
<!-- SR&#45;0033 -->
<g id="node28" class="node">
<title>SR&#45;0033</title>
<polygon fill="mediumseagreen" stroke="black" points="1316,-144 1244,-122.5 1316,-101 1388,-122.5 1316,-144"/>
<text text-anchor="middle" x="1316" y="-120" font-family="Arial" font-size="10.00">SR&#45;0033</text>
</g>
<!-- S&#45;1652&#45;&gt;SR&#45;0033 -->
<g id="edge24" class="edge">
<title>S&#45;1652&#45;&gt;SR&#45;0033</title>
<path fill="none" stroke="#4d4d4d" d="M1316,-201.58C1316,-201.58 1316,-151.03 1316,-151.03"/>
<polygon fill="#4d4d4d" stroke="#4d4d4d" points="1318.45,-151.03 1316,-144.03 1313.55,-151.03 1318.45,-151.03"/>
</g>
<!-- C&#45;0294 -->
<g id="node10" class="node">
<title>C&#45;0294</title>
<ellipse fill="tomato" stroke="black" cx="803" cy="-526.5" rx="72" ry="21.5"/>
<text text-anchor="middle" x="803" y="-524" font-family="Arial" font-size="10.00">C&#45;0294</text>
</g>
<!-- ext_circ_307_25_ -->
<g id="node43" class="node">
<title>ext_circ_307_25_</title>
<polygon fill="lightpink" stroke="darkorange" stroke-dasharray="5,2" points="965,-447 821,-447 821,-404 965,-404 965,-447"/>
<text text-anchor="middle" x="893" y="-428.5" font-family="Arial" font-size="10.00">Circuito:</text>
<text text-anchor="middle" x="893" y="-417.5" font-family="Arial" font-size="10.00">307&#45;25&#45;</text>
</g>
<!-- C&#45;0294&#45;&gt;ext_circ_307_25_ -->
<g id="edge43" class="edge">
<title>C&#45;0294&#45;&gt;ext_circ_307_25_</title>
<path fill="none" stroke="darkorange" stroke-dasharray="5,2" d="M848,-509.37C848,-509.37 848,-454.31 848,-454.31"/>
<polygon fill="darkorange" stroke="darkorange" points="850.45,-454.31 848,-447.31 845.55,-454.31 850.45,-454.31"/>
</g>
<!-- C&#45;1102 -->
<g id="node11" class="node">
<title>C&#45;1102</title>
<ellipse fill="mediumseagreen" stroke="black" cx="956" cy="-627.5" rx="72" ry="21.5"/>
<text text-anchor="middle" x="956" y="-625" font-family="Arial" font-size="10.00">C&#45;1102</text>
</g>
<!-- R&#45;273 -->
<g id="node30" class="node">
<title>R&#45;273</title>
<polygon fill="tomato" stroke="black" points="1055,-517.59 1055,-535.41 1012.82,-548 953.18,-548 911,-535.41 911,-517.59 953.18,-505 1012.82,-505 1055,-517.59"/>
<text text-anchor="middle" x="983" y="-524" font-family="Arial" font-size="10.00">R&#45;273</text>
</g>
<!-- C&#45;1102&#45;&gt;R&#45;273 -->
<g id="edge18" class="edge">
<title>C&#45;1102&#45;&gt;R&#45;273</title>
<path fill="none" stroke="#4d4d4d" d="M969.5,-606.08C969.5,-606.08 969.5,-555.24 969.5,-555.24"/>
<polygon fill="#4d4d4d" stroke="#4d4d4d" points="971.95,-555.24 969.5,-548.24 967.05,-555.24 971.95,-555.24"/>
</g>
<!-- S&#45;998 -->
<g id="node12" class="node">
<title>S&#45;998</title>
<polygon fill="mediumseagreen" stroke="black" points="866,-750 794,-728.5 866,-707 938,-728.5 866,-750"/>
<text text-anchor="middle" x="866" y="-726" font-family="Arial" font-size="10.00">S&#45;998</text>
</g>
<!-- S&#45;1856 -->
<g id="node13" class="node">
<title>S&#45;1856</title>
<polygon fill="mediumseagreen" stroke="black" points="506,-750 434,-728.5 506,-707 578,-728.5 506,-750"/>
<text text-anchor="middle" x="506" y="-726" font-family="Arial" font-size="10.00">S&#45;1856</text>
</g>
<!-- C&#45;0558 -->
<g id="node14" class="node">
<title>C&#45;0558</title>
<ellipse fill="mediumseagreen" stroke="black" cx="1046" cy="-1031.5" rx="72" ry="21.5"/>
<text text-anchor="middle" x="1046" y="-1029" font-family="Arial" font-size="10.00">C&#45;0558</text>
</g>
<!-- C&#45;0558&#45;&gt;R&#45;119 -->
<g id="edge9" class="edge">
<title>C&#45;0558&#45;&gt;R&#45;119</title>
<path fill="none" stroke="#4d4d4d" d="M1023.5,-1011.06C1023.5,-1011.06 1023.5,-959.31 1023.5,-959.31"/>
<polygon fill="#4d4d4d" stroke="#4d4d4d" points="1025.95,-959.31 1023.5,-952.31 1021.05,-959.31 1025.95,-959.31"/>
</g>
<!-- C&#45;0557&#45;&gt;S&#45;2500 -->
<g id="edge11" class="edge">
<title>C&#45;0557&#45;&gt;S&#45;2500</title>
<path fill="none" stroke="#4d4d4d" d="M798.48,-822C756.32,-822 710,-822 710,-822 710,-822 710,-750.11 710,-750.11"/>
<polygon fill="#4d4d4d" stroke="#4d4d4d" points="712.45,-750.11 710,-743.11 707.55,-750.11 712.45,-750.11"/>
</g>
<!-- C&#45;0557&#45;&gt;S&#45;998 -->
<g id="edge26" class="edge">
<title>C&#45;0557&#45;&gt;S&#45;998</title>
<path fill="none" stroke="#4d4d4d" d="M866,-807.58C866,-807.58 866,-757.03 866,-757.03"/>
<polygon fill="#4d4d4d" stroke="#4d4d4d" points="868.45,-757.03 866,-750.03 863.55,-757.03 868.45,-757.03"/>
</g>
<!-- C&#45;0557&#45;&gt;S&#45;1856 -->
<g id="edge12" class="edge">
<title>C&#45;0557&#45;&gt;S&#45;1856</title>
<path fill="none" stroke="#4d4d4d" d="M797.01,-836C692.48,-836 506,-836 506,-836 506,-836 506,-757.25 506,-757.25"/>
<polygon fill="#4d4d4d" stroke="#4d4d4d" points="508.45,-757.25 506,-750.25 503.55,-757.25 508.45,-757.25"/>
</g>
<!-- C&#45;1312 -->
<g id="node29" class="node">
<title>C&#45;1312</title>
<ellipse fill="mediumseagreen" stroke="black" cx="1046" cy="-728.5" rx="72" ry="21.5"/>
<text text-anchor="middle" x="1046" y="-726" font-family="Arial" font-size="10.00">C&#45;1312</text>
</g>
<!-- C&#45;0557&#45;&gt;C&#45;1312 -->
<g id="edge13" class="edge">
<title>C&#45;0557&#45;&gt;C&#45;1312</title>
<path fill="none" stroke="#4d4d4d" d="M938.3,-829C979.7,-829 1023.5,-829 1023.5,-829 1023.5,-829 1023.5,-756.32 1023.5,-756.32"/>
<polygon fill="#4d4d4d" stroke="#4d4d4d" points="1025.95,-756.32 1023.5,-749.32 1021.05,-756.32 1025.95,-756.32"/>
</g>
<!-- S&#45;1843 -->
<g id="node16" class="node">
<title>S&#45;1843</title>
<polygon fill="mediumseagreen" stroke="black" points="1136,-649 1064,-627.5 1136,-606 1208,-627.5 1136,-649"/>
<text text-anchor="middle" x="1136" y="-625" font-family="Arial" font-size="10.00">S&#45;1843</text>
</g>
<!-- C&#45;0559 -->
<g id="node17" class="node">
<title>C&#45;0559</title>
<ellipse fill="tomato" stroke="black" cx="686" cy="-1031.5" rx="72" ry="21.5"/>
<text text-anchor="middle" x="686" y="-1029" font-family="Arial" font-size="10.00">C&#45;0559</text>
</g>
<!-- C&#45;0559&#45;&gt;S&#45;2500 -->
<g id="edge42" class="edge">
<title>C&#45;0559&#45;&gt;S&#45;2500</title>
<path fill="none" stroke="blue" stroke-dasharray="5,2" d="M662,-1011.15C662,-1011.15 662,-749.85 662,-749.85"/>
<polygon fill="blue" stroke="blue" points="664.45,-749.85 662,-742.85 659.55,-749.85 664.45,-749.85"/>
</g>
<!-- S&#45;1289 -->
<g id="node18" class="node">
<title>S&#45;1289</title>
<polygon fill="mediumseagreen" stroke="black" points="866,-1053 794,-1031.5 866,-1010 938,-1031.5 866,-1053"/>
<text text-anchor="middle" x="866" y="-1029" font-family="Arial" font-size="10.00">S&#45;1289</text>
</g>
<!-- C&#45;0641 -->
<g id="node19" class="node">
<title>C&#45;0641</title>
<ellipse fill="tomato" stroke="black" cx="146" cy="-1031.5" rx="72" ry="21.5"/>
<text text-anchor="middle" x="146" y="-1029" font-family="Arial" font-size="10.00">C&#45;0641</text>
</g>
<!-- ext_circ_208_22_ -->
<g id="node42" class="node">
<title>ext_circ_208_22_</title>
<polygon fill="lightpink" stroke="darkorange" stroke-dasharray="5,2" points="308,-952 164,-952 164,-909 308,-909 308,-952"/>
<text text-anchor="middle" x="236" y="-933.5" font-family="Arial" font-size="10.00">Circuito:</text>
<text text-anchor="middle" x="236" y="-922.5" font-family="Arial" font-size="10.00">208&#45;22&#45;</text>
</g>
<!-- C&#45;0641&#45;&gt;ext_circ_208_22_ -->
<g id="edge41" class="edge">
<title>C&#45;0641&#45;&gt;ext_circ_208_22_</title>
<path fill="none" stroke="darkorange" stroke-dasharray="5,2" d="M191,-1014.37C191,-1014.37 191,-959.31 191,-959.31"/>
<polygon fill="darkorange" stroke="darkorange" points="193.45,-959.31 191,-952.31 188.55,-959.31 193.45,-959.31"/>
</g>
<!-- C&#45;0139 -->
<g id="node20" class="node">
<title>C&#45;0139</title>
<ellipse fill="mediumseagreen" stroke="black" cx="506" cy="-1233.5" rx="72" ry="21.5"/>
<text text-anchor="middle" x="506" y="-1231" font-family="Arial" font-size="10.00">C&#45;0139</text>
</g>
<!-- C&#45;0139&#45;&gt;S&#45;2060 -->
<g id="edge5" class="edge">
<title>C&#45;0139&#45;&gt;S&#45;2060</title>
<path fill="none" stroke="#4d4d4d" d="M442.89,-1244C322.52,-1244 72,-1244 72,-1244 72,-1244 72,-1161.26 72,-1161.26"/>
<polygon fill="#4d4d4d" stroke="#4d4d4d" points="74.45,-1161.26 72,-1154.26 69.55,-1161.26 74.45,-1161.26"/>
</g>
<!-- C&#45;0139&#45;&gt;C&#45;0641 -->
<g id="edge4" class="edge">
<title>C&#45;0139&#45;&gt;C&#45;0641</title>
<path fill="none" stroke="#4d4d4d" d="M433.87,-1233C338.12,-1233 181,-1233 181,-1233 181,-1233 181,-1057.46 181,-1057.46"/>
<polygon fill="#4d4d4d" stroke="#4d4d4d" points="183.45,-1057.46 181,-1050.46 178.55,-1057.46 183.45,-1057.46"/>
</g>
<!-- S&#45;701 -->
<g id="node22" class="node">
<title>S&#45;701</title>
<polygon fill="tomato" stroke="black" points="506,-1154 434,-1132.5 506,-1111 578,-1132.5 506,-1154"/>
<text text-anchor="middle" x="506" y="-1130" font-family="Arial" font-size="10.00">S&#45;701</text>
</g>
<!-- C&#45;0139&#45;&gt;S&#45;701 -->
<g id="edge3" class="edge">
<title>C&#45;0139&#45;&gt;S&#45;701</title>
<path fill="none" stroke="#4d4d4d" d="M506,-1211.58C506,-1211.58 506,-1161.03 506,-1161.03"/>
<polygon fill="#4d4d4d" stroke="#4d4d4d" points="508.45,-1161.03 506,-1154.03 503.55,-1161.03 508.45,-1161.03"/>
</g>
<!-- S&#45;1168 -->
<g id="node25" class="node">
<title>S&#45;1168</title>
<polygon fill="mediumseagreen" stroke="black" points="866,-1154 794,-1132.5 866,-1111 938,-1132.5 866,-1154"/>
<text text-anchor="middle" x="866" y="-1130" font-family="Arial" font-size="10.00">S&#45;1168</text>
</g>
<!-- C&#45;0139&#45;&gt;S&#45;1168 -->
<g id="edge6" class="edge">
<title>C&#45;0139&#45;&gt;S&#45;1168</title>
<path fill="none" stroke="#4d4d4d" d="M578.26,-1233C676.19,-1233 839,-1233 839,-1233 839,-1233 839,-1153.05 839,-1153.05"/>
<polygon fill="#4d4d4d" stroke="#4d4d4d" points="841.45,-1153.05 839,-1146.05 836.55,-1153.05 841.45,-1153.05"/>
</g>
<!-- S&#45;327 -->
<g id="node33" class="node">
<title>S&#45;327</title>
<polygon fill="mediumseagreen" stroke="black" points="686,-1154 614,-1132.5 686,-1111 758,-1132.5 686,-1154"/>
<text text-anchor="middle" x="686" y="-1130" font-family="Arial" font-size="10.00">S&#45;327</text>
</g>
<!-- C&#45;0139&#45;&gt;S&#45;327 -->
<g id="edge30" class="edge">
<title>C&#45;0139&#45;&gt;S&#45;327</title>
<path fill="none" stroke="#4d4d4d" d="M567.15,-1222C599.26,-1222 632,-1222 632,-1222 632,-1222 632,-1145.1 632,-1145.1"/>
<polygon fill="#4d4d4d" stroke="#4d4d4d" points="634.45,-1145.1 632,-1138.1 629.55,-1145.1 634.45,-1145.1"/>
</g>
<!-- C&#45;1126 -->
<g id="node40" class="node">
<title>C&#45;1126</title>
<ellipse fill="mediumseagreen" stroke="black" cx="326" cy="-1132.5" rx="72" ry="21.5"/>
<text text-anchor="middle" x="326" y="-1130" font-family="Arial" font-size="10.00">C&#45;1126</text>
</g>
<!-- C&#45;0139&#45;&gt;C&#45;1126 -->
<g id="edge28" class="edge">
<title>C&#45;0139&#45;&gt;C&#45;1126</title>
<path fill="none" stroke="#4d4d4d" d="M445.06,-1222C392.84,-1222 326,-1222 326,-1222 326,-1222 326,-1161.17 326,-1161.17"/>
<polygon fill="#4d4d4d" stroke="#4d4d4d" points="328.45,-1161.17 326,-1154.17 323.55,-1161.17 328.45,-1161.17"/>
</g>
<!-- S&#45;1653 -->
<g id="node21" class="node">
<title>S&#45;1653</title>
<polygon fill="mediumseagreen" stroke="black" points="1316,-346 1244,-324.5 1316,-303 1388,-324.5 1316,-346"/>
<text text-anchor="middle" x="1316" y="-322" font-family="Arial" font-size="10.00">S&#45;1653</text>
</g>
<!-- S&#45;1653&#45;&gt;S&#45;1652 -->
<g id="edge23" class="edge">
<title>S&#45;1653&#45;&gt;S&#45;1652</title>
<path fill="none" stroke="#4d4d4d" d="M1316,-302.58C1316,-302.58 1316,-252.03 1316,-252.03"/>
<polygon fill="#4d4d4d" stroke="#4d4d4d" points="1318.45,-252.03 1316,-245.03 1313.55,-252.03 1318.45,-252.03"/>
</g>
<!-- ext_circ_208_24_ -->
<g id="node41" class="node">
<title>ext_circ_208_24_</title>
<polygon fill="lightpink" stroke="darkorange" stroke-dasharray="5,2" points="578,-1053 434,-1053 434,-1010 578,-1010 578,-1053"/>
<text text-anchor="middle" x="506" y="-1034.5" font-family="Arial" font-size="10.00">Circuito:</text>
<text text-anchor="middle" x="506" y="-1023.5" font-family="Arial" font-size="10.00">208&#45;24&#45;</text>
</g>
<!-- S&#45;701&#45;&gt;ext_circ_208_24_ -->
<g id="edge40" class="edge">
<title>S&#45;701&#45;&gt;ext_circ_208_24_</title>
<path fill="none" stroke="darkorange" stroke-dasharray="5,2" d="M506,-1110.58C506,-1110.58 506,-1060.03 506,-1060.03"/>
<polygon fill="darkorange" stroke="darkorange" points="508.45,-1060.03 506,-1053.03 503.55,-1060.03 508.45,-1060.03"/>
</g>
<!-- R&#45;005 -->
<g id="node23" class="node">
<title>R&#45;005</title>
<polygon fill="tomato" stroke="black" points="1415,-719.59 1415,-737.41 1372.82,-750 1313.18,-750 1271,-737.41 1271,-719.59 1313.18,-707 1372.82,-707 1415,-719.59"/>
<text text-anchor="middle" x="1343" y="-726" font-family="Arial" font-size="10.00">R&#45;005</text>
</g>
<!-- ext_circ_109_29_ -->
<g id="node44" class="node">
<title>ext_circ_109_29_</title>
<polygon fill="lightpink" stroke="darkorange" stroke-dasharray="5,2" points="1568,-649 1424,-649 1424,-606 1568,-606 1568,-649"/>
<text text-anchor="middle" x="1496" y="-630.5" font-family="Arial" font-size="10.00">Circuito:</text>
<text text-anchor="middle" x="1496" y="-619.5" font-family="Arial" font-size="10.00">109&#45;29&#45;</text>
</g>
<!-- R&#45;005&#45;&gt;ext_circ_109_29_ -->
<g id="edge47" class="edge">
<title>R&#45;005&#45;&gt;ext_circ_109_29_</title>
<path fill="none" stroke="darkorange" stroke-dasharray="5,2" d="M1401.5,-715.23C1401.5,-687.72 1401.5,-627 1401.5,-627 1401.5,-627 1416.9,-627 1416.9,-627"/>
<polygon fill="darkorange" stroke="darkorange" points="1416.9,-629.45 1423.9,-627 1416.9,-624.55 1416.9,-629.45"/>
</g>
<!-- C&#45;0100&#45;&gt;C&#45;0139 -->
<g id="edge2" class="edge">
<title>C&#45;0100&#45;&gt;C&#45;0139</title>
<path fill="none" stroke="#4d4d4d" d="M551,-1317.37C551,-1317.37 551,-1257.38 551,-1257.38"/>
<polygon fill="#4d4d4d" stroke="#4d4d4d" points="553.45,-1257.38 551,-1250.38 548.55,-1257.38 553.45,-1257.38"/>
</g>
<!-- C&#45;0901 -->
<g id="node31" class="node">
<title>C&#45;0901</title>
<ellipse fill="mediumseagreen" stroke="black" cx="956" cy="-1233.5" rx="72" ry="21.5"/>
<text text-anchor="middle" x="956" y="-1231" font-family="Arial" font-size="10.00">C&#45;0901</text>
</g>
<!-- C&#45;0100&#45;&gt;C&#45;0901 -->
<g id="edge31" class="edge">
<title>C&#45;0100&#45;&gt;C&#45;0901</title>
<path fill="none" stroke="#4d4d4d" d="M650,-1319.96C650,-1294.38 650,-1244 650,-1244 650,-1244 885.97,-1244 885.97,-1244"/>
<polygon fill="#4d4d4d" stroke="#4d4d4d" points="885.97,-1246.45 892.97,-1244 885.97,-1241.55 885.97,-1246.45"/>
</g>
<!-- S&#45;1168&#45;&gt;C&#45;0558 -->
<g id="edge7" class="edge">
<title>S&#45;1168&#45;&gt;C&#45;0558</title>
<path fill="none" stroke="#4d4d4d" d="M912.92,-1125C948.74,-1125 992,-1125 992,-1125 992,-1125 992,-1053.11 992,-1053.11"/>
<polygon fill="#4d4d4d" stroke="#4d4d4d" points="994.45,-1053.11 992,-1046.11 989.55,-1053.11 994.45,-1053.11"/>
</g>
<!-- S&#45;1168&#45;&gt;C&#45;0559 -->
<g id="edge8" class="edge">
<title>S&#45;1168&#45;&gt;C&#45;0559</title>
<path fill="none" stroke="#4d4d4d" d="M795.4,-1132C788.5,-1132 784,-1132 784,-1132 784,-1132 784,-1031 784,-1031 784,-1031 765,-1031 765,-1031"/>
<polygon fill="#4d4d4d" stroke="#4d4d4d" points="765,-1028.55 758,-1031 765,-1033.45 765,-1028.55"/>
</g>
<!-- S&#45;1168&#45;&gt;S&#45;1289 -->
<g id="edge27" class="edge">
<title>S&#45;1168&#45;&gt;S&#45;1289</title>
<path fill="none" stroke="#4d4d4d" d="M866,-1110.58C866,-1110.58 866,-1060.03 866,-1060.03"/>
<polygon fill="#4d4d4d" stroke="#4d4d4d" points="868.45,-1060.03 866,-1053.03 863.55,-1060.03 868.45,-1060.03"/>
</g>
<!-- R&#45;PRU1 -->
<g id="node26" class="node">
<title>R&#45;PRU1</title>
<polygon fill="mediumseagreen" stroke="black" points="1388,-517.59 1388,-535.41 1345.82,-548 1286.18,-548 1244,-535.41 1244,-517.59 1286.18,-505 1345.82,-505 1388,-517.59"/>
<text text-anchor="middle" x="1316" y="-524" font-family="Arial" font-size="10.00">R&#45;PRU1</text>
</g>
<!-- SR&#45;0008 -->
<g id="node32" class="node">
<title>SR&#45;0008</title>
<polygon fill="mediumseagreen" stroke="black" points="1316,-447 1244,-425.5 1316,-404 1388,-425.5 1316,-447"/>
<text text-anchor="middle" x="1316" y="-423" font-family="Arial" font-size="10.00">SR&#45;0008</text>
</g>
<!-- R&#45;PRU1&#45;&gt;SR&#45;0008 -->
<g id="edge21" class="edge">
<title>R&#45;PRU1&#45;&gt;SR&#45;0008</title>
<path fill="none" stroke="#4d4d4d" d="M1316,-504.58C1316,-504.58 1316,-454.03 1316,-454.03"/>
<polygon fill="#4d4d4d" stroke="#4d4d4d" points="1318.45,-454.03 1316,-447.03 1313.55,-454.03 1318.45,-454.03"/>
</g>
<!-- C&#45;0732 -->
<g id="node27" class="node">
<title>C&#45;0732</title>
<ellipse fill="mediumseagreen" stroke="black" cx="1226" cy="-1132.5" rx="72" ry="21.5"/>
<text text-anchor="middle" x="1226" y="-1130" font-family="Arial" font-size="10.00">C&#45;0732</text>
</g>
<!-- C&#45;0731 -->
<g id="node36" class="node">
<title>C&#45;0731</title>
<ellipse fill="mediumseagreen" stroke="black" cx="1406" cy="-1031.5" rx="72" ry="21.5"/>
<text text-anchor="middle" x="1406" y="-1029" font-family="Arial" font-size="10.00">C&#45;0731</text>
</g>
<!-- C&#45;0732&#45;&gt;C&#45;0731 -->
<g id="edge33" class="edge">
<title>C&#45;0732&#45;&gt;C&#45;0731</title>
<path fill="none" stroke="#4d4d4d" d="M1271,-1115.28C1271,-1086.32 1271,-1031 1271,-1031 1271,-1031 1326.76,-1031 1326.76,-1031"/>
<polygon fill="#4d4d4d" stroke="#4d4d4d" points="1326.76,-1033.45 1333.76,-1031 1326.76,-1028.55 1326.76,-1033.45"/>
</g>
<!-- SR&#45;0033&#45;&gt;S&#45;2279 -->
<g id="edge25" class="edge">
<title>SR&#45;0033&#45;&gt;S&#45;2279</title>
<path fill="none" stroke="#4d4d4d" d="M1316,-100.58C1316,-100.58 1316,-50.03 1316,-50.03"/>
<polygon fill="#4d4d4d" stroke="#4d4d4d" points="1318.45,-50.03 1316,-43.03 1313.55,-50.03 1318.45,-50.03"/>
</g>
<!-- C&#45;1312&#45;&gt;S&#45;2596 -->
<g id="edge14" class="edge">
<title>C&#45;1312&#45;&gt;S&#45;2596</title>
<path fill="none" stroke="#4d4d4d" d="M987.5,-715.82C987.5,-703.62 987.5,-687 987.5,-687 987.5,-687 766,-687 766,-687 766,-687 766,-637.06 766,-637.06"/>
<polygon fill="#4d4d4d" stroke="#4d4d4d" points="768.45,-637.06 766,-630.06 763.55,-637.06 768.45,-637.06"/>
</g>
<!-- C&#45;1312&#45;&gt;C&#45;0294 -->
<g id="edge16" class="edge">
<title>C&#45;1312&#45;&gt;C&#45;0294</title>
<path fill="none" stroke="#4d4d4d" d="M1001,-711.65C1001,-693.75 1001,-668 1001,-668 1001,-668 834.5,-668 834.5,-668 834.5,-668 834.5,-552.88 834.5,-552.88"/>
<polygon fill="#4d4d4d" stroke="#4d4d4d" points="836.95,-552.88 834.5,-545.88 832.05,-552.88 836.95,-552.88"/>
</g>
<!-- C&#45;1312&#45;&gt;C&#45;1102 -->
<g id="edge17" class="edge">
<title>C&#45;1312&#45;&gt;C&#45;1102</title>
<path fill="none" stroke="#4d4d4d" d="M1014.5,-709.03C1014.5,-709.03 1014.5,-647.2 1014.5,-647.2"/>
<polygon fill="#4d4d4d" stroke="#4d4d4d" points="1016.95,-647.2 1014.5,-640.2 1012.05,-647.2 1016.95,-647.2"/>
</g>
<!-- C&#45;1312&#45;&gt;S&#45;1843 -->
<g id="edge15" class="edge">
<title>C&#45;1312&#45;&gt;S&#45;1843</title>
<path fill="none" stroke="#4d4d4d" d="M1091,-711.37C1091,-711.37 1091,-642.78 1091,-642.78"/>
<polygon fill="#4d4d4d" stroke="#4d4d4d" points="1093.45,-642.78 1091,-635.78 1088.55,-642.78 1093.45,-642.78"/>
</g>
<!-- S&#45;997 -->
<g id="node38" class="node">
<title>S&#45;997</title>
<polygon fill="mediumseagreen" stroke="black" points="1316,-649 1244,-627.5 1316,-606 1388,-627.5 1316,-649"/>
<text text-anchor="middle" x="1316" y="-625" font-family="Arial" font-size="10.00">S&#45;997</text>
</g>
<!-- C&#45;1312&#45;&gt;S&#45;997 -->
<g id="edge19" class="edge">
<title>C&#45;1312&#45;&gt;S&#45;997</title>
<path fill="none" stroke="#4d4d4d" d="M1118.19,-728C1179.46,-728 1257.5,-728 1257.5,-728 1257.5,-728 1257.5,-638.82 1257.5,-638.82"/>
<polygon fill="#4d4d4d" stroke="#4d4d4d" points="1259.95,-638.82 1257.5,-631.82 1255.05,-638.82 1259.95,-638.82"/>
</g>
<!-- R&#45;273&#45;&gt;ext_circ_307_25_ -->
<g id="edge44" class="edge">
<title>R&#45;273&#45;&gt;ext_circ_307_25_</title>
<path fill="none" stroke="darkorange" stroke-dasharray="5,2" d="M938,-509.37C938,-509.37 938,-454.31 938,-454.31"/>
<polygon fill="darkorange" stroke="darkorange" points="940.45,-454.31 938,-447.31 935.55,-454.31 940.45,-454.31"/>
</g>
<!-- C&#45;0901&#45;&gt;C&#45;0732 -->
<g id="edge32" class="edge">
<title>C&#45;0901&#45;&gt;C&#45;0732</title>
<path fill="none" stroke="#4d4d4d" d="M1010,-1219.15C1010,-1192.71 1010,-1139 1010,-1139 1010,-1139 1150.36,-1139 1150.36,-1139"/>
<polygon fill="#4d4d4d" stroke="#4d4d4d" points="1150.36,-1141.45 1157.36,-1139 1150.36,-1136.55 1150.36,-1141.45"/>
</g>
<!-- SR&#45;0008&#45;&gt;S&#45;1653 -->
<g id="edge22" class="edge">
<title>SR&#45;0008&#45;&gt;S&#45;1653</title>
<path fill="none" stroke="#4d4d4d" d="M1316,-403.58C1316,-403.58 1316,-353.03 1316,-353.03"/>
<polygon fill="#4d4d4d" stroke="#4d4d4d" points="1318.45,-353.03 1316,-346.03 1313.55,-353.03 1318.45,-353.03"/>
</g>
<!-- C&#45;0500 -->
<g id="node34" class="node">
<title>C&#45;0500</title>
<ellipse fill="tomato" stroke="black" cx="1496" cy="-829.5" rx="72" ry="21.5"/>
<text text-anchor="middle" x="1496" y="-827" font-family="Arial" font-size="10.00">C&#45;0500</text>
</g>
<!-- C&#45;0500&#45;&gt;ext_circ_109_29_ -->
<g id="edge46" class="edge">
<title>C&#45;0500&#45;&gt;ext_circ_109_29_</title>
<path fill="none" stroke="darkorange" stroke-dasharray="5,2" d="M1496,-807.88C1496,-807.88 1496,-656.27 1496,-656.27"/>
<polygon fill="darkorange" stroke="darkorange" points="1498.45,-656.27 1496,-649.27 1493.55,-656.27 1498.45,-656.27"/>
</g>
<!-- SPR&#45;62 -->
<g id="node35" class="node">
<title>SPR&#45;62</title>
<polygon fill="mediumseagreen" stroke="black" points="1406,-952 1334,-930.5 1406,-909 1478,-930.5 1406,-952"/>
<text text-anchor="middle" x="1406" y="-928" font-family="Arial" font-size="10.00">SPR&#45;62</text>
</g>
<!-- SPR&#45;62&#45;&gt;C&#45;0500 -->
<g id="edge37" class="edge">
<title>SPR&#45;62&#45;&gt;C&#45;0500</title>
<path fill="none" stroke="#4d4d4d" d="M1451,-922.23C1451,-922.23 1451,-853.52 1451,-853.52"/>
<polygon fill="#4d4d4d" stroke="#4d4d4d" points="1453.45,-853.52 1451,-846.52 1448.55,-853.52 1453.45,-853.52"/>
</g>
<!-- C&#45;0501 -->
<g id="node39" class="node">
<title>C&#45;0501</title>
<ellipse fill="mediumseagreen" stroke="black" cx="1316" cy="-829.5" rx="72" ry="21.5"/>
<text text-anchor="middle" x="1316" y="-827" font-family="Arial" font-size="10.00">C&#45;0501</text>
</g>
<!-- SPR&#45;62&#45;&gt;C&#45;0501 -->
<g id="edge38" class="edge">
<title>SPR&#45;62&#45;&gt;C&#45;0501</title>
<path fill="none" stroke="#4d4d4d" d="M1361,-922.23C1361,-922.23 1361,-853.52 1361,-853.52"/>
<polygon fill="#4d4d4d" stroke="#4d4d4d" points="1363.45,-853.52 1361,-846.52 1358.55,-853.52 1363.45,-853.52"/>
</g>
<!-- C&#45;0731&#45;&gt;S&#45;916 -->
<g id="edge34" class="edge">
<title>C&#45;0731&#45;&gt;S&#45;916</title>
<path fill="none" stroke="#4d4d4d" d="M1478.12,-1031C1543.93,-1031 1631,-1031 1631,-1031 1631,-1031 1631,-959.31 1631,-959.31"/>
<polygon fill="#4d4d4d" stroke="#4d4d4d" points="1633.45,-959.31 1631,-952.31 1628.55,-959.31 1633.45,-959.31"/>
</g>
<!-- C&#45;0731&#45;&gt;SPR&#45;62 -->
<g id="edge36" class="edge">
<title>C&#45;0731&#45;&gt;SPR&#45;62</title>
<path fill="none" stroke="#4d4d4d" d="M1406,-1009.58C1406,-1009.58 1406,-959.03 1406,-959.03"/>
<polygon fill="#4d4d4d" stroke="#4d4d4d" points="1408.45,-959.03 1406,-952.03 1403.55,-959.03 1408.45,-959.03"/>
</g>
<!-- R&#45;281 -->
<g id="node37" class="node">
<title>R&#45;281</title>
<polygon fill="tomato" stroke="black" points="398,-1022.59 398,-1040.41 355.82,-1053 296.18,-1053 254,-1040.41 254,-1022.59 296.18,-1010 355.82,-1010 398,-1022.59"/>
<text text-anchor="middle" x="326" y="-1029" font-family="Arial" font-size="10.00">R&#45;281</text>
</g>
<!-- R&#45;281&#45;&gt;ext_circ_208_22_ -->
<g id="edge45" class="edge">
<title>R&#45;281&#45;&gt;ext_circ_208_22_</title>
<path fill="none" stroke="darkorange" stroke-dasharray="5,2" d="M281,-1014.37C281,-1014.37 281,-959.31 281,-959.31"/>
<polygon fill="darkorange" stroke="darkorange" points="283.45,-959.31 281,-952.31 278.55,-959.31 283.45,-959.31"/>
</g>
<!-- S&#45;997&#45;&gt;R&#45;PRU1 -->
<g id="edge20" class="edge">
<title>S&#45;997&#45;&gt;R&#45;PRU1</title>
<path fill="none" stroke="#4d4d4d" d="M1316,-605.58C1316,-605.58 1316,-555.03 1316,-555.03"/>
<polygon fill="#4d4d4d" stroke="#4d4d4d" points="1318.45,-555.03 1316,-548.03 1313.55,-555.03 1318.45,-555.03"/>
</g>
<!-- C&#45;0501&#45;&gt;R&#45;005 -->
<g id="edge39" class="edge">
<title>C&#45;0501&#45;&gt;R&#45;005</title>
<path fill="none" stroke="#4d4d4d" d="M1329.5,-808.08C1329.5,-808.08 1329.5,-757.24 1329.5,-757.24"/>
<polygon fill="#4d4d4d" stroke="#4d4d4d" points="1331.95,-757.24 1329.5,-750.24 1327.05,-757.24 1331.95,-757.24"/>
</g>
<!-- C&#45;1126&#45;&gt;R&#45;281 -->
<g id="edge29" class="edge">
<title>C&#45;1126&#45;&gt;R&#45;281</title>
<path fill="none" stroke="#4d4d4d" d="M326,-1110.58C326,-1110.58 326,-1060.03 326,-1060.03"/>
<polygon fill="#4d4d4d" stroke="#4d4d4d" points="328.45,-1060.03 326,-1053.03 323.55,-1060.03 328.45,-1060.03"/>
</g>
</g>
</svg>
