<?xml version="1.0" encoding="UTF-8" standalone="no"?>
<!DOCTYPE svg PUBLIC "-//W3C//DTD SVG 1.1//EN"
 "http://www.w3.org/Graphics/SVG/1.1/DTD/svg11.dtd">
<!-- Generated by graphviz version 2.50.0 (0)
 -->
<!-- Title: Grafo_Circuito_113_26_ Pages: 1 -->
<svg width="969pt" height="1069pt"
 viewBox="0.00 0.00 969.00 1069.00" xmlns="http://www.w3.org/2000/svg" xmlns:xlink="http://www.w3.org/1999/xlink">
<g id="graph0" class="graph" transform="scale(1 1) rotate(0) translate(4 1065)">
<title>Grafo_Circuito_113_26_</title>
<polygon fill="white" stroke="transparent" points="-4,4 -4,-1065 965,-1065 965,4 -4,4"/>
<!-- C&#45;0172 -->
<g id="node1" class="node">
<title>C&#45;0172</title>
<ellipse fill="mediumseagreen" stroke="black" cx="342" cy="-930.5" rx="72" ry="21.5"/>
<text text-anchor="middle" x="342" y="-928" font-family="Arial" font-size="10.00">C&#45;0172</text>
</g>
<!-- C&#45;0512 -->
<g id="node10" class="node">
<title>C&#45;0512</title>
<ellipse fill="mediumseagreen" stroke="black" cx="342" cy="-829.5" rx="72" ry="21.5"/>
<text text-anchor="middle" x="342" y="-827" font-family="Arial" font-size="10.00">C&#45;0512</text>
</g>
<!-- C&#45;0172&#45;&gt;C&#45;0512 -->
<g id="edge2" class="edge">
<title>C&#45;0172&#45;&gt;C&#45;0512</title>
<path fill="none" stroke="#4d4d4d" d="M342,-908.58C342,-908.58 342,-858.03 342,-858.03"/>
<polygon fill="#4d4d4d" stroke="#4d4d4d" points="344.45,-858.03 342,-851.03 339.55,-858.03 344.45,-858.03"/>
</g>
<!-- S&#45;2384 -->
<g id="node2" class="node">
<title>S&#45;2384</title>
<polygon fill="mediumseagreen" stroke="black" points="709,-245 637,-223.5 709,-202 781,-223.5 709,-245"/>
<text text-anchor="middle" x="709" y="-221" font-family="Arial" font-size="10.00">S&#45;2384</text>
</g>
<!-- C&#45;1262 -->
<g id="node3" class="node">
<title>C&#45;1262</title>
<ellipse fill="tomato" stroke="black" cx="529" cy="-122.5" rx="72" ry="21.5"/>
<text text-anchor="middle" x="529" y="-120" font-family="Arial" font-size="10.00">C&#45;1262</text>
</g>
<!-- ext_circ_112_22_ -->
<g id="node22" class="node">
<title>ext_circ_112_22_</title>
<polygon fill="lightpink" stroke="darkorange" stroke-dasharray="5,2" points="646,-43 502,-43 502,0 646,0 646,-43"/>
<text text-anchor="middle" x="574" y="-24.5" font-family="Arial" font-size="10.00">Circuito:</text>
<text text-anchor="middle" x="574" y="-13.5" font-family="Arial" font-size="10.00">112&#45;22&#45;</text>
</g>
<!-- C&#45;1262&#45;&gt;ext_circ_112_22_ -->
<g id="edge22" class="edge">
<title>C&#45;1262&#45;&gt;ext_circ_112_22_</title>
<path fill="none" stroke="darkorange" stroke-dasharray="5,2" d="M551.5,-102.06C551.5,-102.06 551.5,-50.31 551.5,-50.31"/>
<polygon fill="darkorange" stroke="darkorange" points="553.95,-50.31 551.5,-43.31 549.05,-50.31 553.95,-50.31"/>
</g>
<!-- C&#45;1210 -->
<g id="node4" class="node">
<title>C&#45;1210</title>
<ellipse fill="mediumseagreen" stroke="black" cx="349" cy="-223.5" rx="72" ry="21.5"/>
<text text-anchor="middle" x="349" y="-221" font-family="Arial" font-size="10.00">C&#45;1210</text>
</g>
<!-- R&#45;299 -->
<g id="node12" class="node">
<title>R&#45;299</title>
<polygon fill="tomato" stroke="black" points="421,-113.59 421,-131.41 378.82,-144 319.18,-144 277,-131.41 277,-113.59 319.18,-101 378.82,-101 421,-113.59"/>
<text text-anchor="middle" x="349" y="-120" font-family="Arial" font-size="10.00">R&#45;299</text>
</g>
<!-- C&#45;1210&#45;&gt;R&#45;299 -->
<g id="edge17" class="edge">
<title>C&#45;1210&#45;&gt;R&#45;299</title>
<path fill="none" stroke="#4d4d4d" d="M349,-201.58C349,-201.58 349,-151.03 349,-151.03"/>
<polygon fill="#4d4d4d" stroke="#4d4d4d" points="351.45,-151.03 349,-144.03 346.55,-151.03 351.45,-151.03"/>
</g>
<!-- S&#45;2176 -->
<g id="node5" class="node">
<title>S&#45;2176</title>
<polygon fill="mediumseagreen" stroke="black" points="72,-649 0,-627.5 72,-606 144,-627.5 72,-649"/>
<text text-anchor="middle" x="72" y="-625" font-family="Arial" font-size="10.00">S&#45;2176</text>
</g>
<!-- C&#45;0403 -->
<g id="node6" class="node">
<title>C&#45;0403</title>
<ellipse fill="mediumseagreen" stroke="black" cx="612" cy="-425.5" rx="72" ry="21.5"/>
<text text-anchor="middle" x="612" y="-423" font-family="Arial" font-size="10.00">C&#45;0403</text>
</g>
<!-- S&#45;1227 -->
<g id="node19" class="node">
<title>S&#45;1227</title>
<polygon fill="mediumseagreen" stroke="black" points="799,-346 727,-324.5 799,-303 871,-324.5 799,-346"/>
<text text-anchor="middle" x="799" y="-322" font-family="Arial" font-size="10.00">S&#45;1227</text>
</g>
<!-- C&#45;0403&#45;&gt;S&#45;1227 -->
<g id="edge19" class="edge">
<title>C&#45;0403&#45;&gt;S&#45;1227</title>
<path fill="none" stroke="#4d4d4d" d="M668.33,-411.96C668.33,-385.83 668.33,-331 668.33,-331 668.33,-331 741.48,-331 741.48,-331"/>
<polygon fill="#4d4d4d" stroke="#4d4d4d" points="741.48,-333.45 748.48,-331 741.48,-328.55 741.48,-333.45"/>
</g>
<!-- S&#45;1197 -->
<g id="node20" class="node">
<title>S&#45;1197</title>
<polygon fill="mediumseagreen" stroke="black" points="529,-346 457,-324.5 529,-303 601,-324.5 529,-346"/>
<text text-anchor="middle" x="529" y="-322" font-family="Arial" font-size="10.00">S&#45;1197</text>
</g>
<!-- C&#45;0403&#45;&gt;S&#45;1197 -->
<g id="edge11" class="edge">
<title>C&#45;0403&#45;&gt;S&#45;1197</title>
<path fill="none" stroke="#4d4d4d" d="M570.5,-407.91C570.5,-407.91 570.5,-340.73 570.5,-340.73"/>
<polygon fill="#4d4d4d" stroke="#4d4d4d" points="572.95,-340.73 570.5,-333.73 568.05,-340.73 572.95,-340.73"/>
</g>
<!-- R&#45;092 -->
<g id="node7" class="node">
<title>R&#45;092</title>
<polygon fill="tomato" stroke="black" points="781,-113.59 781,-131.41 738.82,-144 679.18,-144 637,-131.41 637,-113.59 679.18,-101 738.82,-101 781,-113.59"/>
<text text-anchor="middle" x="709" y="-120" font-family="Arial" font-size="10.00">R&#45;092</text>
</g>
<!-- R&#45;092&#45;&gt;ext_circ_112_22_ -->
<g id="edge23" class="edge">
<title>R&#45;092&#45;&gt;ext_circ_112_22_</title>
<path fill="none" stroke="darkorange" stroke-dasharray="5,2" d="M641.5,-112.07C641.5,-112.07 641.5,-50.35 641.5,-50.35"/>
<polygon fill="darkorange" stroke="darkorange" points="643.95,-50.35 641.5,-43.35 639.05,-50.35 643.95,-50.35"/>
</g>
<!-- 113&#45;26&#45; -->
<g id="node8" class="node">
<title>113&#45;26&#45;</title>
<polygon fill="gold" stroke="black" points="414,-1026.59 414,-1044.41 371.82,-1057 312.18,-1057 270,-1044.41 270,-1026.59 312.18,-1014 371.82,-1014 414,-1026.59"/>
<polygon fill="none" stroke="black" points="418,-1023.61 418,-1047.39 372.41,-1061 311.59,-1061 266,-1047.39 266,-1023.61 311.59,-1010 372.41,-1010 418,-1023.61"/>
<text text-anchor="middle" x="342" y="-1033" font-family="Arial" font-size="10.00">113&#45;26&#45;</text>
</g>
<!-- 113&#45;26&#45;&#45;&gt;C&#45;0172 -->
<g id="edge1" class="edge">
<title>113&#45;26&#45;&#45;&gt;C&#45;0172</title>
<path fill="none" stroke="#4d4d4d" d="M342,-1009.81C342,-1009.81 342,-959.03 342,-959.03"/>
<polygon fill="#4d4d4d" stroke="#4d4d4d" points="344.45,-959.03 342,-952.03 339.55,-959.03 344.45,-959.03"/>
</g>
<!-- S&#45;881 -->
<g id="node9" class="node">
<title>S&#45;881</title>
<polygon fill="mediumseagreen" stroke="black" points="252,-649 180,-627.5 252,-606 324,-627.5 252,-649"/>
<text text-anchor="middle" x="252" y="-625" font-family="Arial" font-size="10.00">S&#45;881</text>
</g>
<!-- S&#45;1644 -->
<g id="node17" class="node">
<title>S&#45;1644</title>
<polygon fill="mediumseagreen" stroke="black" points="252,-548 180,-526.5 252,-505 324,-526.5 252,-548"/>
<text text-anchor="middle" x="252" y="-524" font-family="Arial" font-size="10.00">S&#45;1644</text>
</g>
<!-- S&#45;881&#45;&gt;S&#45;1644 -->
<g id="edge5" class="edge">
<title>S&#45;881&#45;&gt;S&#45;1644</title>
<path fill="none" stroke="#4d4d4d" d="M252,-605.58C252,-605.58 252,-555.03 252,-555.03"/>
<polygon fill="#4d4d4d" stroke="#4d4d4d" points="254.45,-555.03 252,-548.03 249.55,-555.03 254.45,-555.03"/>
</g>
<!-- R&#45;148 -->
<g id="node13" class="node">
<title>R&#45;148</title>
<polygon fill="mediumseagreen" stroke="black" points="414,-719.59 414,-737.41 371.82,-750 312.18,-750 270,-737.41 270,-719.59 312.18,-707 371.82,-707 414,-719.59"/>
<text text-anchor="middle" x="342" y="-726" font-family="Arial" font-size="10.00">R&#45;148</text>
</g>
<!-- C&#45;0512&#45;&gt;R&#45;148 -->
<g id="edge3" class="edge">
<title>C&#45;0512&#45;&gt;R&#45;148</title>
<path fill="none" stroke="#4d4d4d" d="M342,-807.58C342,-807.58 342,-757.03 342,-757.03"/>
<polygon fill="#4d4d4d" stroke="#4d4d4d" points="344.45,-757.03 342,-750.03 339.55,-757.03 344.45,-757.03"/>
</g>
<!-- S&#45;1093 -->
<g id="node11" class="node">
<title>S&#45;1093</title>
<polygon fill="mediumseagreen" stroke="black" points="529,-245 457,-223.5 529,-202 601,-223.5 529,-245"/>
<text text-anchor="middle" x="529" y="-221" font-family="Arial" font-size="10.00">S&#45;1093</text>
</g>
<!-- S&#45;1093&#45;&gt;C&#45;1262 -->
<g id="edge13" class="edge">
<title>S&#45;1093&#45;&gt;C&#45;1262</title>
<path fill="none" stroke="#4d4d4d" d="M529,-201.58C529,-201.58 529,-151.03 529,-151.03"/>
<polygon fill="#4d4d4d" stroke="#4d4d4d" points="531.45,-151.03 529,-144.03 526.55,-151.03 531.45,-151.03"/>
</g>
<!-- S&#45;1093&#45;&gt;R&#45;092 -->
<g id="edge14" class="edge">
<title>S&#45;1093&#45;&gt;R&#45;092</title>
<path fill="none" stroke="#4d4d4d" d="M599.47,-223C610.86,-223 619,-223 619,-223 619,-223 619,-122 619,-122 619,-122 629.78,-122 629.78,-122"/>
<polygon fill="#4d4d4d" stroke="#4d4d4d" points="629.78,-124.45 636.78,-122 629.78,-119.55 629.78,-124.45"/>
</g>
<!-- ext_circ_112_23_ -->
<g id="node23" class="node">
<title>ext_circ_112_23_</title>
<polygon fill="lightpink" stroke="darkorange" stroke-dasharray="5,2" points="376,-43 232,-43 232,0 376,0 376,-43"/>
<text text-anchor="middle" x="304" y="-24.5" font-family="Arial" font-size="10.00">Circuito:</text>
<text text-anchor="middle" x="304" y="-13.5" font-family="Arial" font-size="10.00">112&#45;23&#45;</text>
</g>
<!-- R&#45;299&#45;&gt;ext_circ_112_23_ -->
<g id="edge25" class="edge">
<title>R&#45;299&#45;&gt;ext_circ_112_23_</title>
<path fill="none" stroke="darkorange" stroke-dasharray="5,2" d="M326.5,-100.58C326.5,-100.58 326.5,-50.03 326.5,-50.03"/>
<polygon fill="darkorange" stroke="darkorange" points="328.95,-50.03 326.5,-43.03 324.05,-50.03 328.95,-50.03"/>
</g>
<!-- R&#45;148&#45;&gt;S&#45;2176 -->
<g id="edge6" class="edge">
<title>R&#45;148&#45;&gt;S&#45;2176</title>
<path fill="none" stroke="#4d4d4d" d="M270,-728C190.02,-728 72,-728 72,-728 72,-728 72,-656.31 72,-656.31"/>
<polygon fill="#4d4d4d" stroke="#4d4d4d" points="74.45,-656.31 72,-649.31 69.55,-656.31 74.45,-656.31"/>
</g>
<!-- R&#45;148&#45;&gt;S&#45;881 -->
<g id="edge4" class="edge">
<title>R&#45;148&#45;&gt;S&#45;881</title>
<path fill="none" stroke="#4d4d4d" d="M297,-711.37C297,-711.37 297,-642.78 297,-642.78"/>
<polygon fill="#4d4d4d" stroke="#4d4d4d" points="299.45,-642.78 297,-635.78 294.55,-642.78 299.45,-642.78"/>
</g>
<!-- C&#45;0401 -->
<g id="node14" class="node">
<title>C&#45;0401</title>
<ellipse fill="tomato" stroke="black" cx="432" cy="-627.5" rx="72" ry="21.5"/>
<text text-anchor="middle" x="432" y="-625" font-family="Arial" font-size="10.00">C&#45;0401</text>
</g>
<!-- R&#45;148&#45;&gt;C&#45;0401 -->
<g id="edge8" class="edge">
<title>R&#45;148&#45;&gt;C&#45;0401</title>
<path fill="none" stroke="#4d4d4d" d="M387,-711.37C387,-711.37 387,-651.38 387,-651.38"/>
<polygon fill="#4d4d4d" stroke="#4d4d4d" points="389.45,-651.38 387,-644.38 384.55,-651.38 389.45,-651.38"/>
</g>
<!-- C&#45;0402 -->
<g id="node15" class="node">
<title>C&#45;0402</title>
<ellipse fill="mediumseagreen" stroke="black" cx="612" cy="-627.5" rx="72" ry="21.5"/>
<text text-anchor="middle" x="612" y="-625" font-family="Arial" font-size="10.00">C&#45;0402</text>
</g>
<!-- R&#45;148&#45;&gt;C&#45;0402 -->
<g id="edge7" class="edge">
<title>R&#45;148&#45;&gt;C&#45;0402</title>
<path fill="none" stroke="#4d4d4d" d="M414,-728C493.98,-728 612,-728 612,-728 612,-728 612,-656.31 612,-656.31"/>
<polygon fill="#4d4d4d" stroke="#4d4d4d" points="614.45,-656.31 612,-649.31 609.55,-656.31 614.45,-656.31"/>
</g>
<!-- C&#45;0401&#45;&gt;S&#45;1197 -->
<g id="edge21" class="edge">
<title>C&#45;0401&#45;&gt;S&#45;1197</title>
<path fill="none" stroke="blue" stroke-dasharray="5,2" d="M480.5,-611.21C480.5,-611.21 480.5,-339.03 480.5,-339.03"/>
<polygon fill="blue" stroke="blue" points="482.95,-339.03 480.5,-332.03 478.05,-339.03 482.95,-339.03"/>
</g>
<!-- R&#45;137 -->
<g id="node18" class="node">
<title>R&#45;137</title>
<polygon fill="mediumseagreen" stroke="black" points="684,-517.59 684,-535.41 641.82,-548 582.18,-548 540,-535.41 540,-517.59 582.18,-505 641.82,-505 684,-517.59"/>
<text text-anchor="middle" x="612" y="-524" font-family="Arial" font-size="10.00">R&#45;137</text>
</g>
<!-- C&#45;0402&#45;&gt;R&#45;137 -->
<g id="edge9" class="edge">
<title>C&#45;0402&#45;&gt;R&#45;137</title>
<path fill="none" stroke="#4d4d4d" d="M612,-605.58C612,-605.58 612,-555.03 612,-555.03"/>
<polygon fill="#4d4d4d" stroke="#4d4d4d" points="614.45,-555.03 612,-548.03 609.55,-555.03 614.45,-555.03"/>
</g>
<!-- C&#45;0104 -->
<g id="node16" class="node">
<title>C&#45;0104</title>
<ellipse fill="tomato" stroke="black" cx="889" cy="-223.5" rx="72" ry="21.5"/>
<text text-anchor="middle" x="889" y="-221" font-family="Arial" font-size="10.00">C&#45;0104</text>
</g>
<!-- ext_circ_113_23_ -->
<g id="node24" class="node">
<title>ext_circ_113_23_</title>
<polygon fill="lightpink" stroke="darkorange" stroke-dasharray="5,2" points="961,-144 817,-144 817,-101 961,-101 961,-144"/>
<text text-anchor="middle" x="889" y="-125.5" font-family="Arial" font-size="10.00">Circuito:</text>
<text text-anchor="middle" x="889" y="-114.5" font-family="Arial" font-size="10.00">113&#45;23&#45;</text>
</g>
<!-- C&#45;0104&#45;&gt;ext_circ_113_23_ -->
<g id="edge26" class="edge">
<title>C&#45;0104&#45;&gt;ext_circ_113_23_</title>
<path fill="none" stroke="darkorange" stroke-dasharray="5,2" d="M889,-201.58C889,-201.58 889,-151.03 889,-151.03"/>
<polygon fill="darkorange" stroke="darkorange" points="891.45,-151.03 889,-144.03 886.55,-151.03 891.45,-151.03"/>
</g>
<!-- R&#45;137&#45;&gt;C&#45;0403 -->
<g id="edge10" class="edge">
<title>R&#45;137&#45;&gt;C&#45;0403</title>
<path fill="none" stroke="#4d4d4d" d="M612,-504.58C612,-504.58 612,-454.03 612,-454.03"/>
<polygon fill="#4d4d4d" stroke="#4d4d4d" points="614.45,-454.03 612,-447.03 609.55,-454.03 614.45,-454.03"/>
</g>
<!-- S&#45;1227&#45;&gt;C&#45;0104 -->
<g id="edge20" class="edge">
<title>S&#45;1227&#45;&gt;C&#45;0104</title>
<path fill="none" stroke="#4d4d4d" d="M844,-316.23C844,-316.23 844,-247.52 844,-247.52"/>
<polygon fill="#4d4d4d" stroke="#4d4d4d" points="846.45,-247.52 844,-240.52 841.55,-247.52 846.45,-247.52"/>
</g>
<!-- S&#45;1197&#45;&gt;S&#45;2384 -->
<g id="edge18" class="edge">
<title>S&#45;1197&#45;&gt;S&#45;2384</title>
<path fill="none" stroke="#4d4d4d" d="M576.11,-317C611.05,-317 652.67,-317 652.67,-317 652.67,-317 652.67,-235.27 652.67,-235.27"/>
<polygon fill="#4d4d4d" stroke="#4d4d4d" points="655.12,-235.27 652.67,-228.27 650.22,-235.27 655.12,-235.27"/>
</g>
<!-- S&#45;1197&#45;&gt;C&#45;1210 -->
<g id="edge16" class="edge">
<title>S&#45;1197&#45;&gt;C&#45;1210</title>
<path fill="none" stroke="#4d4d4d" d="M482.11,-317C441.93,-317 390.5,-317 390.5,-317 390.5,-317 390.5,-248.09 390.5,-248.09"/>
<polygon fill="#4d4d4d" stroke="#4d4d4d" points="392.95,-248.09 390.5,-241.09 388.05,-248.09 392.95,-248.09"/>
</g>
<!-- S&#45;1197&#45;&gt;S&#45;1093 -->
<g id="edge12" class="edge">
<title>S&#45;1197&#45;&gt;S&#45;1093</title>
<path fill="none" stroke="#4d4d4d" d="M529,-302.58C529,-302.58 529,-252.03 529,-252.03"/>
<polygon fill="#4d4d4d" stroke="#4d4d4d" points="531.45,-252.03 529,-245.03 526.55,-252.03 531.45,-252.03"/>
</g>
<!-- C&#45;0332 -->
<g id="node21" class="node">
<title>C&#45;0332</title>
<ellipse fill="tomato" stroke="black" cx="169" cy="-122.5" rx="72" ry="21.5"/>
<text text-anchor="middle" x="169" y="-120" font-family="Arial" font-size="10.00">C&#45;0332</text>
</g>
<!-- S&#45;1197&#45;&gt;C&#45;0332 -->
<g id="edge15" class="edge">
<title>S&#45;1197&#45;&gt;C&#45;0332</title>
<path fill="none" stroke="#4d4d4d" d="M478.53,-331C388.72,-331 210.5,-331 210.5,-331 210.5,-331 210.5,-147.28 210.5,-147.28"/>
<polygon fill="#4d4d4d" stroke="#4d4d4d" points="212.95,-147.28 210.5,-140.28 208.05,-147.28 212.95,-147.28"/>
</g>
<!-- C&#45;0332&#45;&gt;ext_circ_112_23_ -->
<g id="edge24" class="edge">
<title>C&#45;0332&#45;&gt;ext_circ_112_23_</title>
<path fill="none" stroke="darkorange" stroke-dasharray="5,2" d="M236.5,-114.91C236.5,-114.91 236.5,-50.19 236.5,-50.19"/>
<polygon fill="darkorange" stroke="darkorange" points="238.95,-50.19 236.5,-43.19 234.05,-50.19 238.95,-50.19"/>
</g>
</g>
</svg>
