<?xml version="1.0" encoding="UTF-8" standalone="no"?>
<!DOCTYPE svg PUBLIC "-//W3C//DTD SVG 1.1//EN"
 "http://www.w3.org/Graphics/SVG/1.1/DTD/svg11.dtd">
<!-- Generated by graphviz version 2.50.0 (0)
 -->
<!-- Title: Grafo_Circuito_114_25_ Pages: 1 -->
<svg width="2042pt" height="1170pt"
 viewBox="0.00 0.00 2042.00 1170.00" xmlns="http://www.w3.org/2000/svg" xmlns:xlink="http://www.w3.org/1999/xlink">
<g id="graph0" class="graph" transform="scale(1 1) rotate(0) translate(4 1166)">
<title>Grafo_Circuito_114_25_</title>
<polygon fill="white" stroke="transparent" points="-4,4 -4,-1166 2038,-1166 2038,4 -4,4"/>
<!-- S&#45;637 -->
<g id="node1" class="node">
<title>S&#45;637</title>
<polygon fill="mediumseagreen" stroke="black" points="1512,-144 1440,-122.5 1512,-101 1584,-122.5 1512,-144"/>
<text text-anchor="middle" x="1512" y="-120" font-family="Arial" font-size="10.00">S&#45;637</text>
</g>
<!-- S&#45;1711 -->
<g id="node24" class="node">
<title>S&#45;1711</title>
<polygon fill="mediumseagreen" stroke="black" points="1512,-43 1440,-21.5 1512,0 1584,-21.5 1512,-43"/>
<text text-anchor="middle" x="1512" y="-19" font-family="Arial" font-size="10.00">S&#45;1711</text>
</g>
<!-- S&#45;637&#45;&gt;S&#45;1711 -->
<g id="edge24" class="edge">
<title>S&#45;637&#45;&gt;S&#45;1711</title>
<path fill="none" stroke="#4d4d4d" d="M1512,-100.58C1512,-100.58 1512,-50.03 1512,-50.03"/>
<polygon fill="#4d4d4d" stroke="#4d4d4d" points="1514.45,-50.03 1512,-43.03 1509.55,-50.03 1514.45,-50.03"/>
</g>
<!-- S&#45;233 -->
<g id="node2" class="node">
<title>S&#45;233</title>
<polygon fill="mediumseagreen" stroke="black" points="702,-952 630,-930.5 702,-909 774,-930.5 702,-952"/>
<text text-anchor="middle" x="702" y="-928" font-family="Arial" font-size="10.00">S&#45;233</text>
</g>
<!-- S&#45;2450 -->
<g id="node10" class="node">
<title>S&#45;2450</title>
<polygon fill="mediumseagreen" stroke="black" points="522,-851 450,-829.5 522,-808 594,-829.5 522,-851"/>
<text text-anchor="middle" x="522" y="-827" font-family="Arial" font-size="10.00">S&#45;2450</text>
</g>
<!-- S&#45;233&#45;&gt;S&#45;2450 -->
<g id="edge28" class="edge">
<title>S&#45;233&#45;&gt;S&#45;2450</title>
<path fill="none" stroke="#4d4d4d" d="M631.63,-930C581.15,-930 522,-930 522,-930 522,-930 522,-858.31 522,-858.31"/>
<polygon fill="#4d4d4d" stroke="#4d4d4d" points="524.45,-858.31 522,-851.31 519.55,-858.31 524.45,-858.31"/>
</g>
<!-- C&#45;0646 -->
<g id="node19" class="node">
<title>C&#45;0646</title>
<ellipse fill="mediumseagreen" stroke="black" cx="702" cy="-829.5" rx="72" ry="21.5"/>
<text text-anchor="middle" x="702" y="-827" font-family="Arial" font-size="10.00">C&#45;0646</text>
</g>
<!-- S&#45;233&#45;&gt;C&#45;0646 -->
<g id="edge27" class="edge">
<title>S&#45;233&#45;&gt;C&#45;0646</title>
<path fill="none" stroke="#4d4d4d" d="M702,-908.58C702,-908.58 702,-858.03 702,-858.03"/>
<polygon fill="#4d4d4d" stroke="#4d4d4d" points="704.45,-858.03 702,-851.03 699.55,-858.03 704.45,-858.03"/>
</g>
<!-- S&#45;2098 -->
<g id="node22" class="node">
<title>S&#45;2098</title>
<polygon fill="mediumseagreen" stroke="black" points="882,-851 810,-829.5 882,-808 954,-829.5 882,-851"/>
<text text-anchor="middle" x="882" y="-827" font-family="Arial" font-size="10.00">S&#45;2098</text>
</g>
<!-- S&#45;233&#45;&gt;S&#45;2098 -->
<g id="edge29" class="edge">
<title>S&#45;233&#45;&gt;S&#45;2098</title>
<path fill="none" stroke="#4d4d4d" d="M772.37,-930C822.85,-930 882,-930 882,-930 882,-930 882,-858.31 882,-858.31"/>
<polygon fill="#4d4d4d" stroke="#4d4d4d" points="884.45,-858.31 882,-851.31 879.55,-858.31 884.45,-858.31"/>
</g>
<!-- S&#45;707 -->
<g id="node3" class="node">
<title>S&#45;707</title>
<polygon fill="mediumseagreen" stroke="black" points="342,-750 270,-728.5 342,-707 414,-728.5 342,-750"/>
<text text-anchor="middle" x="342" y="-726" font-family="Arial" font-size="10.00">S&#45;707</text>
</g>
<!-- S&#45;704 -->
<g id="node4" class="node">
<title>S&#45;704</title>
<polygon fill="mediumseagreen" stroke="black" points="72,-649 0,-627.5 72,-606 144,-627.5 72,-649"/>
<text text-anchor="middle" x="72" y="-625" font-family="Arial" font-size="10.00">S&#45;704</text>
</g>
<!-- S&#45;707&#45;&gt;S&#45;704 -->
<g id="edge5" class="edge">
<title>S&#45;707&#45;&gt;S&#45;704</title>
<path fill="none" stroke="#4d4d4d" d="M271.41,-728C191.41,-728 72,-728 72,-728 72,-728 72,-656.31 72,-656.31"/>
<polygon fill="#4d4d4d" stroke="#4d4d4d" points="74.45,-656.31 72,-649.31 69.55,-656.31 74.45,-656.31"/>
</g>
<!-- S&#45;1742 -->
<g id="node15" class="node">
<title>S&#45;1742</title>
<polygon fill="mediumseagreen" stroke="black" points="252,-649 180,-627.5 252,-606 324,-627.5 252,-649"/>
<text text-anchor="middle" x="252" y="-625" font-family="Arial" font-size="10.00">S&#45;1742</text>
</g>
<!-- S&#45;707&#45;&gt;S&#45;1742 -->
<g id="edge12" class="edge">
<title>S&#45;707&#45;&gt;S&#45;1742</title>
<path fill="none" stroke="#4d4d4d" d="M297,-720.23C297,-720.23 297,-642.6 297,-642.6"/>
<polygon fill="#4d4d4d" stroke="#4d4d4d" points="299.45,-642.6 297,-635.6 294.55,-642.6 299.45,-642.6"/>
</g>
<!-- S&#45;932 -->
<g id="node25" class="node">
<title>S&#45;932</title>
<polygon fill="mediumseagreen" stroke="black" points="432,-649 360,-627.5 432,-606 504,-627.5 432,-649"/>
<text text-anchor="middle" x="432" y="-625" font-family="Arial" font-size="10.00">S&#45;932</text>
</g>
<!-- S&#45;707&#45;&gt;S&#45;932 -->
<g id="edge7" class="edge">
<title>S&#45;707&#45;&gt;S&#45;932</title>
<path fill="none" stroke="#4d4d4d" d="M387,-720.23C387,-720.23 387,-642.6 387,-642.6"/>
<polygon fill="#4d4d4d" stroke="#4d4d4d" points="389.45,-642.6 387,-635.6 384.55,-642.6 389.45,-642.6"/>
</g>
<!-- S&#45;2236 -->
<g id="node32" class="node">
<title>S&#45;2236</title>
<polygon fill="mediumseagreen" stroke="black" points="72,-548 0,-526.5 72,-505 144,-526.5 72,-548"/>
<text text-anchor="middle" x="72" y="-524" font-family="Arial" font-size="10.00">S&#45;2236</text>
</g>
<!-- S&#45;704&#45;&gt;S&#45;2236 -->
<g id="edge6" class="edge">
<title>S&#45;704&#45;&gt;S&#45;2236</title>
<path fill="none" stroke="#4d4d4d" d="M72,-605.58C72,-605.58 72,-555.03 72,-555.03"/>
<polygon fill="#4d4d4d" stroke="#4d4d4d" points="74.45,-555.03 72,-548.03 69.55,-555.03 74.45,-555.03"/>
</g>
<!-- S&#45;2567 -->
<g id="node5" class="node">
<title>S&#45;2567</title>
<polygon fill="mediumseagreen" stroke="black" points="252,-548 180,-526.5 252,-505 324,-526.5 252,-548"/>
<text text-anchor="middle" x="252" y="-524" font-family="Arial" font-size="10.00">S&#45;2567</text>
</g>
<!-- C&#45;0178 -->
<g id="node6" class="node">
<title>C&#45;0178</title>
<ellipse fill="mediumseagreen" stroke="black" cx="702" cy="-1031.5" rx="72" ry="21.5"/>
<text text-anchor="middle" x="702" y="-1029" font-family="Arial" font-size="10.00">C&#45;0178</text>
</g>
<!-- C&#45;0178&#45;&gt;S&#45;233 -->
<g id="edge31" class="edge">
<title>C&#45;0178&#45;&gt;S&#45;233</title>
<path fill="none" stroke="#4d4d4d" d="M702,-1009.58C702,-1009.58 702,-959.03 702,-959.03"/>
<polygon fill="#4d4d4d" stroke="#4d4d4d" points="704.45,-959.03 702,-952.03 699.55,-959.03 704.45,-959.03"/>
</g>
<!-- S&#45;648 -->
<g id="node7" class="node">
<title>S&#45;648</title>
<polygon fill="mediumseagreen" stroke="black" points="1692,-144 1620,-122.5 1692,-101 1764,-122.5 1692,-144"/>
<text text-anchor="middle" x="1692" y="-120" font-family="Arial" font-size="10.00">S&#45;648</text>
</g>
<!-- S&#45;633 -->
<g id="node8" class="node">
<title>S&#45;633</title>
<polygon fill="mediumseagreen" stroke="black" points="1242,-447 1170,-425.5 1242,-404 1314,-425.5 1242,-447"/>
<text text-anchor="middle" x="1242" y="-423" font-family="Arial" font-size="10.00">S&#45;633</text>
</g>
<!-- C&#45;0573 -->
<g id="node9" class="node">
<title>C&#45;0573</title>
<ellipse fill="mediumseagreen" stroke="black" cx="1602" cy="-223.5" rx="72" ry="21.5"/>
<text text-anchor="middle" x="1602" y="-221" font-family="Arial" font-size="10.00">C&#45;0573</text>
</g>
<!-- C&#45;0573&#45;&gt;S&#45;637 -->
<g id="edge23" class="edge">
<title>C&#45;0573&#45;&gt;S&#45;637</title>
<path fill="none" stroke="#4d4d4d" d="M1548,-209.03C1548,-209.03 1548,-140.52 1548,-140.52"/>
<polygon fill="#4d4d4d" stroke="#4d4d4d" points="1550.45,-140.52 1548,-133.52 1545.55,-140.52 1550.45,-140.52"/>
</g>
<!-- C&#45;0573&#45;&gt;S&#45;648 -->
<g id="edge25" class="edge">
<title>C&#45;0573&#45;&gt;S&#45;648</title>
<path fill="none" stroke="#4d4d4d" d="M1647,-206.37C1647,-206.37 1647,-137.78 1647,-137.78"/>
<polygon fill="#4d4d4d" stroke="#4d4d4d" points="1649.45,-137.78 1647,-130.78 1644.55,-137.78 1649.45,-137.78"/>
</g>
<!-- R&#45;070 -->
<g id="node11" class="node">
<title>R&#45;070</title>
<polygon fill="mediumseagreen" stroke="black" points="864,-719.59 864,-737.41 821.82,-750 762.18,-750 720,-737.41 720,-719.59 762.18,-707 821.82,-707 864,-719.59"/>
<text text-anchor="middle" x="792" y="-726" font-family="Arial" font-size="10.00">R&#45;070</text>
</g>
<!-- S&#45;635 -->
<g id="node16" class="node">
<title>S&#45;635</title>
<polygon fill="mediumseagreen" stroke="black" points="972,-649 900,-627.5 972,-606 1044,-627.5 972,-649"/>
<text text-anchor="middle" x="972" y="-625" font-family="Arial" font-size="10.00">S&#45;635</text>
</g>
<!-- R&#45;070&#45;&gt;S&#45;635 -->
<g id="edge14" class="edge">
<title>R&#45;070&#45;&gt;S&#45;635</title>
<path fill="none" stroke="#4d4d4d" d="M864.24,-728C896.34,-728 927,-728 927,-728 927,-728 927,-642.72 927,-642.72"/>
<polygon fill="#4d4d4d" stroke="#4d4d4d" points="929.45,-642.72 927,-635.72 924.55,-642.72 929.45,-642.72"/>
</g>
<!-- S&#45;1766 -->
<g id="node12" class="node">
<title>S&#45;1766</title>
<polygon fill="mediumseagreen" stroke="black" points="792,-447 720,-425.5 792,-404 864,-425.5 792,-447"/>
<text text-anchor="middle" x="792" y="-423" font-family="Arial" font-size="10.00">S&#45;1766</text>
</g>
<!-- S&#45;636 -->
<g id="node13" class="node">
<title>S&#45;636</title>
<polygon fill="mediumseagreen" stroke="black" points="792,-548 720,-526.5 792,-505 864,-526.5 792,-548"/>
<text text-anchor="middle" x="792" y="-524" font-family="Arial" font-size="10.00">S&#45;636</text>
</g>
<!-- S&#45;636&#45;&gt;S&#45;1766 -->
<g id="edge17" class="edge">
<title>S&#45;636&#45;&gt;S&#45;1766</title>
<path fill="none" stroke="#4d4d4d" d="M792,-504.58C792,-504.58 792,-454.03 792,-454.03"/>
<polygon fill="#4d4d4d" stroke="#4d4d4d" points="794.45,-454.03 792,-447.03 789.55,-454.03 794.45,-454.03"/>
</g>
<!-- S&#45;634 -->
<g id="node14" class="node">
<title>S&#45;634</title>
<polygon fill="mediumseagreen" stroke="black" points="1422,-447 1350,-425.5 1422,-404 1494,-425.5 1422,-447"/>
<text text-anchor="middle" x="1422" y="-423" font-family="Arial" font-size="10.00">S&#45;634</text>
</g>
<!-- S&#45;635&#45;&gt;S&#45;636 -->
<g id="edge16" class="edge">
<title>S&#45;635&#45;&gt;S&#45;636</title>
<path fill="none" stroke="#4d4d4d" d="M921.38,-634C868.14,-634 792,-634 792,-634 792,-634 792,-555.25 792,-555.25"/>
<polygon fill="#4d4d4d" stroke="#4d4d4d" points="794.45,-555.25 792,-548.25 789.55,-555.25 794.45,-555.25"/>
</g>
<!-- S&#45;638 -->
<g id="node23" class="node">
<title>S&#45;638</title>
<polygon fill="mediumseagreen" stroke="black" points="972,-548 900,-526.5 972,-505 1044,-526.5 972,-548"/>
<text text-anchor="middle" x="972" y="-524" font-family="Arial" font-size="10.00">S&#45;638</text>
</g>
<!-- S&#45;635&#45;&gt;S&#45;638 -->
<g id="edge4" class="edge">
<title>S&#45;635&#45;&gt;S&#45;638</title>
<path fill="none" stroke="#4d4d4d" d="M972,-605.58C972,-605.58 972,-555.03 972,-555.03"/>
<polygon fill="#4d4d4d" stroke="#4d4d4d" points="974.45,-555.03 972,-548.03 969.55,-555.03 974.45,-555.03"/>
</g>
<!-- R&#45;075 -->
<g id="node26" class="node">
<title>R&#45;075</title>
<polygon fill="tomato" stroke="black" points="1224,-517.59 1224,-535.41 1181.82,-548 1122.18,-548 1080,-535.41 1080,-517.59 1122.18,-505 1181.82,-505 1224,-517.59"/>
<text text-anchor="middle" x="1152" y="-524" font-family="Arial" font-size="10.00">R&#45;075</text>
</g>
<!-- S&#45;635&#45;&gt;R&#45;075 -->
<g id="edge15" class="edge">
<title>S&#45;635&#45;&gt;R&#45;075</title>
<path fill="none" stroke="#4d4d4d" d="M1019.29,-620C1072.62,-620 1152,-620 1152,-620 1152,-620 1152,-555.19 1152,-555.19"/>
<polygon fill="#4d4d4d" stroke="#4d4d4d" points="1154.45,-555.19 1152,-548.19 1149.55,-555.19 1154.45,-555.19"/>
</g>
<!-- C&#45;0832 -->
<g id="node29" class="node">
<title>C&#45;0832</title>
<ellipse fill="mediumseagreen" stroke="black" cx="1512" cy="-526.5" rx="72" ry="21.5"/>
<text text-anchor="middle" x="1512" y="-524" font-family="Arial" font-size="10.00">C&#45;0832</text>
</g>
<!-- S&#45;635&#45;&gt;C&#45;0832 -->
<g id="edge18" class="edge">
<title>S&#45;635&#45;&gt;C&#45;0832</title>
<path fill="none" stroke="#4d4d4d" d="M1022.32,-634C1156.37,-634 1512,-634 1512,-634 1512,-634 1512,-555.25 1512,-555.25"/>
<polygon fill="#4d4d4d" stroke="#4d4d4d" points="1514.45,-555.25 1512,-548.25 1509.55,-555.25 1514.45,-555.25"/>
</g>
<!-- C&#45;0572 -->
<g id="node17" class="node">
<title>C&#45;0572</title>
<ellipse fill="mediumseagreen" stroke="black" cx="1602" cy="-425.5" rx="72" ry="21.5"/>
<text text-anchor="middle" x="1602" y="-423" font-family="Arial" font-size="10.00">C&#45;0572</text>
</g>
<!-- R&#45;105 -->
<g id="node28" class="node">
<title>R&#45;105</title>
<polygon fill="mediumseagreen" stroke="black" points="1674,-315.59 1674,-333.41 1631.82,-346 1572.18,-346 1530,-333.41 1530,-315.59 1572.18,-303 1631.82,-303 1674,-315.59"/>
<text text-anchor="middle" x="1602" y="-322" font-family="Arial" font-size="10.00">R&#45;105</text>
</g>
<!-- C&#45;0572&#45;&gt;R&#45;105 -->
<g id="edge21" class="edge">
<title>C&#45;0572&#45;&gt;R&#45;105</title>
<path fill="none" stroke="#4d4d4d" d="M1602,-403.58C1602,-403.58 1602,-353.03 1602,-353.03"/>
<polygon fill="#4d4d4d" stroke="#4d4d4d" points="1604.45,-353.03 1602,-346.03 1599.55,-353.03 1604.45,-353.03"/>
</g>
<!-- C&#45;0571 -->
<g id="node18" class="node">
<title>C&#45;0571</title>
<ellipse fill="tomato" stroke="black" cx="1782" cy="-425.5" rx="72" ry="21.5"/>
<text text-anchor="middle" x="1782" y="-423" font-family="Arial" font-size="10.00">C&#45;0571</text>
</g>
<!-- C&#45;0571&#45;&gt;S&#45;637 -->
<g id="edge35" class="edge">
<title>C&#45;0571&#45;&gt;S&#45;637</title>
<path fill="none" stroke="blue" stroke-dasharray="5,2" d="M1737,-408.54C1737,-351.93 1737,-173 1737,-173 1737,-173 1566,-173 1566,-173 1566,-173 1566,-134.9 1566,-134.9"/>
<polygon fill="blue" stroke="blue" points="1568.45,-134.9 1566,-127.9 1563.55,-134.9 1568.45,-134.9"/>
</g>
<!-- C&#45;0646&#45;&gt;S&#45;707 -->
<g id="edge26" class="edge">
<title>C&#45;0646&#45;&gt;S&#45;707</title>
<path fill="none" stroke="#4d4d4d" d="M657,-812.28C657,-783.32 657,-728 657,-728 657,-728 419.69,-728 419.69,-728"/>
<polygon fill="#4d4d4d" stroke="#4d4d4d" points="419.69,-725.55 412.69,-728 419.69,-730.45 419.69,-725.55"/>
</g>
<!-- C&#45;0646&#45;&gt;R&#45;070 -->
<g id="edge13" class="edge">
<title>C&#45;0646&#45;&gt;R&#45;070</title>
<path fill="none" stroke="#4d4d4d" d="M747,-812.37C747,-812.37 747,-752.72 747,-752.72"/>
<polygon fill="#4d4d4d" stroke="#4d4d4d" points="749.45,-752.72 747,-745.72 744.55,-752.72 749.45,-752.72"/>
</g>
<!-- C&#45;0166 -->
<g id="node20" class="node">
<title>C&#45;0166</title>
<ellipse fill="tomato" stroke="black" cx="432" cy="-526.5" rx="72" ry="21.5"/>
<text text-anchor="middle" x="432" y="-524" font-family="Arial" font-size="10.00">C&#45;0166</text>
</g>
<!-- ext_circ_303_25_ -->
<g id="node33" class="node">
<title>ext_circ_303_25_</title>
<polygon fill="lightpink" stroke="darkorange" stroke-dasharray="5,2" points="595,-346 451,-346 451,-303 595,-303 595,-346"/>
<text text-anchor="middle" x="523" y="-327.5" font-family="Arial" font-size="10.00">Circuito:</text>
<text text-anchor="middle" x="523" y="-316.5" font-family="Arial" font-size="10.00">303&#45;25&#45;</text>
</g>
<!-- C&#45;0166&#45;&gt;ext_circ_303_25_ -->
<g id="edge32" class="edge">
<title>C&#45;0166&#45;&gt;ext_circ_303_25_</title>
<path fill="none" stroke="darkorange" stroke-dasharray="5,2" d="M477.5,-509.63C477.5,-509.63 477.5,-353.28 477.5,-353.28"/>
<polygon fill="darkorange" stroke="darkorange" points="479.95,-353.28 477.5,-346.28 475.05,-353.28 479.95,-353.28"/>
</g>
<!-- 114&#45;25&#45; -->
<g id="node21" class="node">
<title>114&#45;25&#45;</title>
<polygon fill="gold" stroke="black" points="774,-1127.59 774,-1145.41 731.82,-1158 672.18,-1158 630,-1145.41 630,-1127.59 672.18,-1115 731.82,-1115 774,-1127.59"/>
<polygon fill="none" stroke="black" points="778,-1124.61 778,-1148.39 732.41,-1162 671.59,-1162 626,-1148.39 626,-1124.61 671.59,-1111 732.41,-1111 778,-1124.61"/>
<text text-anchor="middle" x="702" y="-1134" font-family="Arial" font-size="10.00">114&#45;25&#45;</text>
</g>
<!-- 114&#45;25&#45;&#45;&gt;C&#45;0178 -->
<g id="edge30" class="edge">
<title>114&#45;25&#45;&#45;&gt;C&#45;0178</title>
<path fill="none" stroke="#4d4d4d" d="M702,-1110.81C702,-1110.81 702,-1060.03 702,-1060.03"/>
<polygon fill="#4d4d4d" stroke="#4d4d4d" points="704.45,-1060.03 702,-1053.03 699.55,-1060.03 704.45,-1060.03"/>
</g>
<!-- S&#45;932&#45;&gt;S&#45;2567 -->
<g id="edge11" class="edge">
<title>S&#45;932&#45;&gt;S&#45;2567</title>
<path fill="none" stroke="#4d4d4d" d="M361.53,-627C350.14,-627 342,-627 342,-627 342,-627 342,-526 342,-526 342,-526 329.47,-526 329.47,-526"/>
<polygon fill="#4d4d4d" stroke="#4d4d4d" points="329.47,-523.55 322.47,-526 329.47,-528.45 329.47,-523.55"/>
</g>
<!-- S&#45;932&#45;&gt;C&#45;0166 -->
<g id="edge8" class="edge">
<title>S&#45;932&#45;&gt;C&#45;0166</title>
<path fill="none" stroke="#4d4d4d" d="M432,-605.58C432,-605.58 432,-555.03 432,-555.03"/>
<polygon fill="#4d4d4d" stroke="#4d4d4d" points="434.45,-555.03 432,-548.03 429.55,-555.03 434.45,-555.03"/>
</g>
<!-- C&#45;1128 -->
<g id="node27" class="node">
<title>C&#45;1128</title>
<ellipse fill="mediumseagreen" stroke="black" cx="612" cy="-526.5" rx="72" ry="21.5"/>
<text text-anchor="middle" x="612" y="-524" font-family="Arial" font-size="10.00">C&#45;1128</text>
</g>
<!-- S&#45;932&#45;&gt;C&#45;1128 -->
<g id="edge9" class="edge">
<title>S&#45;932&#45;&gt;C&#45;1128</title>
<path fill="none" stroke="#4d4d4d" d="M479.22,-620C518.15,-620 567,-620 567,-620 567,-620 567,-550.65 567,-550.65"/>
<polygon fill="#4d4d4d" stroke="#4d4d4d" points="569.45,-550.65 567,-543.65 564.55,-550.65 569.45,-550.65"/>
</g>
<!-- ext_circ_114_24_ -->
<g id="node34" class="node">
<title>ext_circ_114_24_</title>
<polygon fill="lightpink" stroke="darkorange" stroke-dasharray="5,2" points="1134,-447 990,-447 990,-404 1134,-404 1134,-447"/>
<text text-anchor="middle" x="1062" y="-428.5" font-family="Arial" font-size="10.00">Circuito:</text>
<text text-anchor="middle" x="1062" y="-417.5" font-family="Arial" font-size="10.00">114&#45;24&#45;</text>
</g>
<!-- R&#45;075&#45;&gt;ext_circ_114_24_ -->
<g id="edge34" class="edge">
<title>R&#45;075&#45;&gt;ext_circ_114_24_</title>
<path fill="none" stroke="darkorange" stroke-dasharray="5,2" d="M1107,-509.37C1107,-509.37 1107,-454.31 1107,-454.31"/>
<polygon fill="darkorange" stroke="darkorange" points="1109.45,-454.31 1107,-447.31 1104.55,-454.31 1109.45,-454.31"/>
</g>
<!-- R&#45;282 -->
<g id="node31" class="node">
<title>R&#45;282</title>
<polygon fill="tomato" stroke="black" points="671,-416.59 671,-434.41 628.82,-447 569.18,-447 527,-434.41 527,-416.59 569.18,-404 628.82,-404 671,-416.59"/>
<text text-anchor="middle" x="599" y="-423" font-family="Arial" font-size="10.00">R&#45;282</text>
</g>
<!-- C&#45;1128&#45;&gt;R&#45;282 -->
<g id="edge10" class="edge">
<title>C&#45;1128&#45;&gt;R&#45;282</title>
<path fill="none" stroke="#4d4d4d" d="M605.5,-505.08C605.5,-505.08 605.5,-454.24 605.5,-454.24"/>
<polygon fill="#4d4d4d" stroke="#4d4d4d" points="607.95,-454.24 605.5,-447.24 603.05,-454.24 607.95,-454.24"/>
</g>
<!-- R&#45;105&#45;&gt;C&#45;0573 -->
<g id="edge22" class="edge">
<title>R&#45;105&#45;&gt;C&#45;0573</title>
<path fill="none" stroke="#4d4d4d" d="M1602,-302.58C1602,-302.58 1602,-252.03 1602,-252.03"/>
<polygon fill="#4d4d4d" stroke="#4d4d4d" points="1604.45,-252.03 1602,-245.03 1599.55,-252.03 1604.45,-252.03"/>
</g>
<!-- C&#45;0832&#45;&gt;S&#45;633 -->
<g id="edge2" class="edge">
<title>C&#45;0832&#45;&gt;S&#45;633</title>
<path fill="none" stroke="#4d4d4d" d="M1439.75,-526C1368.12,-526 1269,-526 1269,-526 1269,-526 1269,-446.05 1269,-446.05"/>
<polygon fill="#4d4d4d" stroke="#4d4d4d" points="1271.45,-446.05 1269,-439.05 1266.55,-446.05 1271.45,-446.05"/>
</g>
<!-- C&#45;0832&#45;&gt;S&#45;634 -->
<g id="edge3" class="edge">
<title>C&#45;0832&#45;&gt;S&#45;634</title>
<path fill="none" stroke="#4d4d4d" d="M1467,-509.37C1467,-509.37 1467,-440.78 1467,-440.78"/>
<polygon fill="#4d4d4d" stroke="#4d4d4d" points="1469.45,-440.78 1467,-433.78 1464.55,-440.78 1469.45,-440.78"/>
</g>
<!-- C&#45;0832&#45;&gt;C&#45;0572 -->
<g id="edge19" class="edge">
<title>C&#45;0832&#45;&gt;C&#45;0572</title>
<path fill="none" stroke="#4d4d4d" d="M1557,-509.37C1557,-509.37 1557,-449.38 1557,-449.38"/>
<polygon fill="#4d4d4d" stroke="#4d4d4d" points="1559.45,-449.38 1557,-442.38 1554.55,-449.38 1559.45,-449.38"/>
</g>
<!-- C&#45;0832&#45;&gt;C&#45;0571 -->
<g id="edge20" class="edge">
<title>C&#45;0832&#45;&gt;C&#45;0571</title>
<path fill="none" stroke="#4d4d4d" d="M1579.78,-519C1659.76,-519 1782,-519 1782,-519 1782,-519 1782,-454.19 1782,-454.19"/>
<polygon fill="#4d4d4d" stroke="#4d4d4d" points="1784.45,-454.19 1782,-447.19 1779.55,-454.19 1784.45,-454.19"/>
</g>
<!-- S&#45;632 -->
<g id="node30" class="node">
<title>S&#45;632</title>
<polygon fill="mediumseagreen" stroke="black" points="1962,-447 1890,-425.5 1962,-404 2034,-425.5 1962,-447"/>
<text text-anchor="middle" x="1962" y="-423" font-family="Arial" font-size="10.00">S&#45;632</text>
</g>
<!-- C&#45;0832&#45;&gt;S&#45;632 -->
<g id="edge1" class="edge">
<title>C&#45;0832&#45;&gt;S&#45;632</title>
<path fill="none" stroke="#4d4d4d" d="M1580.84,-533C1706.89,-533 1962,-533 1962,-533 1962,-533 1962,-454.25 1962,-454.25"/>
<polygon fill="#4d4d4d" stroke="#4d4d4d" points="1964.45,-454.25 1962,-447.25 1959.55,-454.25 1964.45,-454.25"/>
</g>
<!-- R&#45;282&#45;&gt;ext_circ_303_25_ -->
<g id="edge33" class="edge">
<title>R&#45;282&#45;&gt;ext_circ_303_25_</title>
<path fill="none" stroke="darkorange" stroke-dasharray="5,2" d="M561,-406.03C561,-406.03 561,-353.01 561,-353.01"/>
<polygon fill="darkorange" stroke="darkorange" points="563.45,-353.01 561,-346.01 558.55,-353.01 563.45,-353.01"/>
</g>
</g>
</svg>
