<?xml version="1.0" encoding="UTF-8" standalone="no"?>
<!DOCTYPE svg PUBLIC "-//W3C//DTD SVG 1.1//EN"
 "http://www.w3.org/Graphics/SVG/1.1/DTD/svg11.dtd">
<!-- Generated by graphviz version 2.50.0 (0)
 -->
<!-- Title: Grafo_Circuito_109_29_ Pages: 1 -->
<svg width="2782pt" height="1574pt"
 viewBox="0.00 0.00 2782.00 1574.00" xmlns="http://www.w3.org/2000/svg" xmlns:xlink="http://www.w3.org/1999/xlink">
<g id="graph0" class="graph" transform="scale(1 1) rotate(0) translate(4 1570)">
<title>Grafo_Circuito_109_29_</title>
<polygon fill="white" stroke="transparent" points="-4,4 -4,-1570 2778,-1570 2778,4 -4,4"/>
<!-- S&#45;925 -->
<g id="node1" class="node">
<title>S&#45;925</title>
<polygon fill="mediumseagreen" stroke="black" points="72,-245 0,-223.5 72,-202 144,-223.5 72,-245"/>
<text text-anchor="middle" x="72" y="-221" font-family="Arial" font-size="10.00">S&#45;925</text>
</g>
<!-- S&#45;1535 -->
<g id="node2" class="node">
<title>S&#45;1535</title>
<polygon fill="mediumseagreen" stroke="black" points="1882,-1255 1810,-1233.5 1882,-1212 1954,-1233.5 1882,-1255"/>
<text text-anchor="middle" x="1882" y="-1231" font-family="Arial" font-size="10.00">S&#45;1535</text>
</g>
<!-- S&#45;982 -->
<g id="node3" class="node">
<title>S&#45;982</title>
<polygon fill="mediumseagreen" stroke="black" points="1448,-1053 1376,-1031.5 1448,-1010 1520,-1031.5 1448,-1053"/>
<text text-anchor="middle" x="1448" y="-1029" font-family="Arial" font-size="10.00">S&#45;982</text>
</g>
<!-- SPR&#45;61 -->
<g id="node4" class="node">
<title>SPR&#45;61</title>
<polygon fill="mediumseagreen" stroke="black" points="675,-346 603,-324.5 675,-303 747,-324.5 675,-346"/>
<text text-anchor="middle" x="675" y="-322" font-family="Arial" font-size="10.00">SPR&#45;61</text>
</g>
<!-- C&#45;0502 -->
<g id="node21" class="node">
<title>C&#45;0502</title>
<ellipse fill="mediumseagreen" stroke="black" cx="612" cy="-223.5" rx="72" ry="21.5"/>
<text text-anchor="middle" x="612" y="-221" font-family="Arial" font-size="10.00">C&#45;0502</text>
</g>
<!-- SPR&#45;61&#45;&gt;C&#45;0502 -->
<g id="edge21" class="edge">
<title>SPR&#45;61&#45;&gt;C&#45;0502</title>
<path fill="none" stroke="#4d4d4d" d="M643.5,-312.12C643.5,-312.12 643.5,-249.91 643.5,-249.91"/>
<polygon fill="#4d4d4d" stroke="#4d4d4d" points="645.95,-249.91 643.5,-242.91 641.05,-249.91 645.95,-249.91"/>
</g>
<!-- S&#45;2415 -->
<g id="node32" class="node">
<title>S&#45;2415</title>
<polygon fill="mediumseagreen" stroke="black" points="866,-245 794,-223.5 866,-202 938,-223.5 866,-245"/>
<text text-anchor="middle" x="866" y="-221" font-family="Arial" font-size="10.00">S&#45;2415</text>
</g>
<!-- SPR&#45;61&#45;&gt;S&#45;2415 -->
<g id="edge20" class="edge">
<title>SPR&#45;61&#45;&gt;S&#45;2415</title>
<path fill="none" stroke="#4d4d4d" d="M738,-321.57C738,-304.93 738,-223 738,-223 738,-223 788.63,-223 788.63,-223"/>
<polygon fill="#4d4d4d" stroke="#4d4d4d" points="788.63,-225.45 795.63,-223 788.63,-220.55 788.63,-225.45"/>
</g>
<!-- C&#45;0500 -->
<g id="node38" class="node">
<title>C&#45;0500</title>
<ellipse fill="tomato" stroke="black" cx="792" cy="-122.5" rx="72" ry="21.5"/>
<text text-anchor="middle" x="792" y="-120" font-family="Arial" font-size="10.00">C&#45;0500</text>
</g>
<!-- SPR&#45;61&#45;&gt;C&#45;0500 -->
<g id="edge23" class="edge">
<title>SPR&#45;61&#45;&gt;C&#45;0500</title>
<path fill="none" stroke="#4d4d4d" d="M729,-319.1C729,-319.1 729,-140.16 729,-140.16"/>
<polygon fill="#4d4d4d" stroke="#4d4d4d" points="731.45,-140.16 729,-133.16 726.55,-140.16 731.45,-140.16"/>
</g>
<!-- SW&#45;005_C -->
<g id="node5" class="node">
<title>SW&#45;005_C</title>
<polygon fill="tomato" stroke="black" points="2730.79,-1457 2611.81,-1457 2581.21,-1414 2700.19,-1414 2730.79,-1457"/>
<text text-anchor="middle" x="2656" y="-1433" font-family="Arial" font-size="10.00">SW&#45;005_C</text>
</g>
<!-- ext_circ_109_27_ -->
<g id="node48" class="node">
<title>ext_circ_109_27_</title>
<polygon fill="lightpink" stroke="darkorange" stroke-dasharray="5,2" points="2774,-1356 2630,-1356 2630,-1313 2774,-1313 2774,-1356"/>
<text text-anchor="middle" x="2702" y="-1337.5" font-family="Arial" font-size="10.00">Circuito:</text>
<text text-anchor="middle" x="2702" y="-1326.5" font-family="Arial" font-size="10.00">109&#45;27&#45;</text>
</g>
<!-- SW&#45;005_C&#45;&gt;ext_circ_109_27_ -->
<g id="edge47" class="edge">
<title>SW&#45;005_C&#45;&gt;ext_circ_109_27_</title>
<path fill="none" stroke="darkorange" stroke-dasharray="5,2" d="M2680.32,-1413.58C2680.32,-1413.58 2680.32,-1363.03 2680.32,-1363.03"/>
<polygon fill="darkorange" stroke="darkorange" points="2682.77,-1363.03 2680.32,-1356.03 2677.87,-1363.03 2682.77,-1363.03"/>
</g>
<!-- S&#45;2343 -->
<g id="node6" class="node">
<title>S&#45;2343</title>
<polygon fill="mediumseagreen" stroke="black" points="252,-245 180,-223.5 252,-202 324,-223.5 252,-245"/>
<text text-anchor="middle" x="252" y="-221" font-family="Arial" font-size="10.00">S&#45;2343</text>
</g>
<!-- R&#45;115 -->
<g id="node7" class="node">
<title>R&#45;115</title>
<polygon fill="mediumseagreen" stroke="black" points="1107,-820.59 1107,-838.41 1064.82,-851 1005.18,-851 963,-838.41 963,-820.59 1005.18,-808 1064.82,-808 1107,-820.59"/>
<text text-anchor="middle" x="1035" y="-827" font-family="Arial" font-size="10.00">R&#45;115</text>
</g>
<!-- C&#45;0614 -->
<g id="node9" class="node">
<title>C&#45;0614</title>
<ellipse fill="mediumseagreen" stroke="black" cx="1035" cy="-728.5" rx="72" ry="21.5"/>
<text text-anchor="middle" x="1035" y="-726" font-family="Arial" font-size="10.00">C&#45;0614</text>
</g>
<!-- R&#45;115&#45;&gt;C&#45;0614 -->
<g id="edge14" class="edge">
<title>R&#45;115&#45;&gt;C&#45;0614</title>
<path fill="none" stroke="#4d4d4d" d="M1035,-807.58C1035,-807.58 1035,-757.03 1035,-757.03"/>
<polygon fill="#4d4d4d" stroke="#4d4d4d" points="1037.45,-757.03 1035,-750.03 1032.55,-757.03 1037.45,-757.03"/>
</g>
<!-- C&#45;0305 -->
<g id="node8" class="node">
<title>C&#45;0305</title>
<ellipse fill="mediumseagreen" stroke="black" cx="855" cy="-627.5" rx="72" ry="21.5"/>
<text text-anchor="middle" x="855" y="-625" font-family="Arial" font-size="10.00">C&#45;0305</text>
</g>
<!-- S&#45;1273 -->
<g id="node18" class="node">
<title>S&#45;1273</title>
<polygon fill="mediumseagreen" stroke="black" points="855,-548 783,-526.5 855,-505 927,-526.5 855,-548"/>
<text text-anchor="middle" x="855" y="-524" font-family="Arial" font-size="10.00">S&#45;1273</text>
</g>
<!-- C&#45;0305&#45;&gt;S&#45;1273 -->
<g id="edge30" class="edge">
<title>C&#45;0305&#45;&gt;S&#45;1273</title>
<path fill="none" stroke="#4d4d4d" d="M855,-605.58C855,-605.58 855,-555.03 855,-555.03"/>
<polygon fill="#4d4d4d" stroke="#4d4d4d" points="857.45,-555.03 855,-548.03 852.55,-555.03 857.45,-555.03"/>
</g>
<!-- S&#45;1469 -->
<g id="node33" class="node">
<title>S&#45;1469</title>
<polygon fill="mediumseagreen" stroke="black" points="1035,-548 963,-526.5 1035,-505 1107,-526.5 1035,-548"/>
<text text-anchor="middle" x="1035" y="-524" font-family="Arial" font-size="10.00">S&#45;1469</text>
</g>
<!-- C&#45;0305&#45;&gt;S&#45;1469 -->
<g id="edge16" class="edge">
<title>C&#45;0305&#45;&gt;S&#45;1469</title>
<path fill="none" stroke="#4d4d4d" d="M927.17,-627C930.51,-627 932.5,-627 932.5,-627 932.5,-627 932.5,-526 932.5,-526 932.5,-526 957.65,-526 957.65,-526"/>
<polygon fill="#4d4d4d" stroke="#4d4d4d" points="957.65,-528.45 964.65,-526 957.65,-523.55 957.65,-528.45"/>
</g>
<!-- C&#45;0031 -->
<g id="node36" class="node">
<title>C&#45;0031</title>
<ellipse fill="mediumseagreen" stroke="black" cx="675" cy="-526.5" rx="72" ry="21.5"/>
<text text-anchor="middle" x="675" y="-524" font-family="Arial" font-size="10.00">C&#45;0031</text>
</g>
<!-- C&#45;0305&#45;&gt;C&#45;0031 -->
<g id="edge17" class="edge">
<title>C&#45;0305&#45;&gt;C&#45;0031</title>
<path fill="none" stroke="#4d4d4d" d="M782.82,-627C732.75,-627 675,-627 675,-627 675,-627 675,-555.31 675,-555.31"/>
<polygon fill="#4d4d4d" stroke="#4d4d4d" points="677.45,-555.31 675,-548.31 672.55,-555.31 677.45,-555.31"/>
</g>
<!-- C&#45;0614&#45;&gt;C&#45;0305 -->
<g id="edge15" class="edge">
<title>C&#45;0614&#45;&gt;C&#45;0305</title>
<path fill="none" stroke="#4d4d4d" d="M962.94,-728C922.06,-728 879,-728 879,-728 879,-728 879,-654.84 879,-654.84"/>
<polygon fill="#4d4d4d" stroke="#4d4d4d" points="881.45,-654.84 879,-647.84 876.55,-654.84 881.45,-654.84"/>
</g>
<!-- S&#45;922 -->
<g id="node12" class="node">
<title>S&#45;922</title>
<polygon fill="mediumseagreen" stroke="black" points="1035,-649 963,-627.5 1035,-606 1107,-627.5 1035,-649"/>
<text text-anchor="middle" x="1035" y="-625" font-family="Arial" font-size="10.00">S&#45;922</text>
</g>
<!-- C&#45;0614&#45;&gt;S&#45;922 -->
<g id="edge31" class="edge">
<title>C&#45;0614&#45;&gt;S&#45;922</title>
<path fill="none" stroke="#4d4d4d" d="M1035,-706.58C1035,-706.58 1035,-656.03 1035,-656.03"/>
<polygon fill="#4d4d4d" stroke="#4d4d4d" points="1037.45,-656.03 1035,-649.03 1032.55,-656.03 1037.45,-656.03"/>
</g>
<!-- C&#45;0279 -->
<g id="node47" class="node">
<title>C&#45;0279</title>
<ellipse fill="mediumseagreen" stroke="black" cx="1215" cy="-627.5" rx="72" ry="21.5"/>
<text text-anchor="middle" x="1215" y="-625" font-family="Arial" font-size="10.00">C&#45;0279</text>
</g>
<!-- C&#45;0614&#45;&gt;C&#45;0279 -->
<g id="edge32" class="edge">
<title>C&#45;0614&#45;&gt;C&#45;0279</title>
<path fill="none" stroke="#4d4d4d" d="M1107.21,-728C1165.89,-728 1239,-728 1239,-728 1239,-728 1239,-654.84 1239,-654.84"/>
<polygon fill="#4d4d4d" stroke="#4d4d4d" points="1241.45,-654.84 1239,-647.84 1236.55,-654.84 1241.45,-654.84"/>
</g>
<!-- C&#45;0138 -->
<g id="node10" class="node">
<title>C&#45;0138</title>
<ellipse fill="mediumseagreen" stroke="black" cx="1131" cy="-223.5" rx="72" ry="21.5"/>
<text text-anchor="middle" x="1131" y="-221" font-family="Arial" font-size="10.00">C&#45;0138</text>
</g>
<!-- C&#45;0464 -->
<g id="node11" class="node">
<title>C&#45;0464</title>
<ellipse fill="tomato" stroke="black" cx="1575" cy="-930.5" rx="72" ry="21.5"/>
<text text-anchor="middle" x="1575" y="-928" font-family="Arial" font-size="10.00">C&#45;0464</text>
</g>
<!-- ext_circ_208_28_ -->
<g id="node51" class="node">
<title>ext_circ_208_28_</title>
<polygon fill="lightpink" stroke="darkorange" stroke-dasharray="5,2" points="1737,-851 1593,-851 1593,-808 1737,-808 1737,-851"/>
<text text-anchor="middle" x="1665" y="-832.5" font-family="Arial" font-size="10.00">Circuito:</text>
<text text-anchor="middle" x="1665" y="-821.5" font-family="Arial" font-size="10.00">208&#45;28&#45;</text>
</g>
<!-- C&#45;0464&#45;&gt;ext_circ_208_28_ -->
<g id="edge53" class="edge">
<title>C&#45;0464&#45;&gt;ext_circ_208_28_</title>
<path fill="none" stroke="darkorange" stroke-dasharray="5,2" d="M1620,-913.37C1620,-913.37 1620,-858.31 1620,-858.31"/>
<polygon fill="darkorange" stroke="darkorange" points="1622.45,-858.31 1620,-851.31 1617.55,-858.31 1622.45,-858.31"/>
</g>
<!-- S&#45;924 -->
<g id="node13" class="node">
<title>S&#45;924</title>
<polygon fill="mediumseagreen" stroke="black" points="342,-346 270,-324.5 342,-303 414,-324.5 342,-346"/>
<text text-anchor="middle" x="342" y="-322" font-family="Arial" font-size="10.00">S&#45;924</text>
</g>
<!-- S&#45;924&#45;&gt;S&#45;925 -->
<g id="edge29" class="edge">
<title>S&#45;924&#45;&gt;S&#45;925</title>
<path fill="none" stroke="#4d4d4d" d="M271.41,-324C191.41,-324 72,-324 72,-324 72,-324 72,-252.31 72,-252.31"/>
<polygon fill="#4d4d4d" stroke="#4d4d4d" points="74.45,-252.31 72,-245.31 69.55,-252.31 74.45,-252.31"/>
</g>
<!-- S&#45;924&#45;&gt;S&#45;2343 -->
<g id="edge26" class="edge">
<title>S&#45;924&#45;&gt;S&#45;2343</title>
<path fill="none" stroke="#4d4d4d" d="M297,-316.23C297,-316.23 297,-238.6 297,-238.6"/>
<polygon fill="#4d4d4d" stroke="#4d4d4d" points="299.45,-238.6 297,-231.6 294.55,-238.6 299.45,-238.6"/>
</g>
<!-- S&#45;1893 -->
<g id="node46" class="node">
<title>S&#45;1893</title>
<polygon fill="mediumseagreen" stroke="black" points="432,-245 360,-223.5 432,-202 504,-223.5 432,-245"/>
<text text-anchor="middle" x="432" y="-221" font-family="Arial" font-size="10.00">S&#45;1893</text>
</g>
<!-- S&#45;924&#45;&gt;S&#45;1893 -->
<g id="edge27" class="edge">
<title>S&#45;924&#45;&gt;S&#45;1893</title>
<path fill="none" stroke="#4d4d4d" d="M387,-316.23C387,-316.23 387,-238.6 387,-238.6"/>
<polygon fill="#4d4d4d" stroke="#4d4d4d" points="389.45,-238.6 387,-231.6 384.55,-238.6 389.45,-238.6"/>
</g>
<!-- S&#45;1330 -->
<g id="node14" class="node">
<title>S&#45;1330</title>
<polygon fill="mediumseagreen" stroke="black" points="855,-346 783,-324.5 855,-303 927,-324.5 855,-346"/>
<text text-anchor="middle" x="855" y="-322" font-family="Arial" font-size="10.00">S&#45;1330</text>
</g>
<!-- S&#45;2280 -->
<g id="node15" class="node">
<title>S&#45;2280</title>
<polygon fill="mediumseagreen" stroke="black" points="432,-144 360,-122.5 432,-101 504,-122.5 432,-144"/>
<text text-anchor="middle" x="432" y="-120" font-family="Arial" font-size="10.00">S&#45;2280</text>
</g>
<!-- SW&#45;010_D -->
<g id="node16" class="node">
<title>SW&#45;010_D</title>
<polygon fill="tomato" stroke="black" points="2408.79,-1356 2289.81,-1356 2259.21,-1313 2378.19,-1313 2408.79,-1356"/>
<text text-anchor="middle" x="2334" y="-1332" font-family="Arial" font-size="10.00">SW&#45;010_D</text>
</g>
<!-- ext_circ_114_23_ -->
<g id="node49" class="node">
<title>ext_circ_114_23_</title>
<polygon fill="lightpink" stroke="darkorange" stroke-dasharray="5,2" points="2494,-1255 2350,-1255 2350,-1212 2494,-1212 2494,-1255"/>
<text text-anchor="middle" x="2422" y="-1236.5" font-family="Arial" font-size="10.00">Circuito:</text>
<text text-anchor="middle" x="2422" y="-1225.5" font-family="Arial" font-size="10.00">114&#45;23&#45;</text>
</g>
<!-- SW&#45;010_D&#45;&gt;ext_circ_114_23_ -->
<g id="edge48" class="edge">
<title>SW&#45;010_D&#45;&gt;ext_circ_114_23_</title>
<path fill="none" stroke="darkorange" stroke-dasharray="5,2" d="M2379.32,-1314.55C2379.32,-1314.55 2379.32,-1262.16 2379.32,-1262.16"/>
<polygon fill="darkorange" stroke="darkorange" points="2381.77,-1262.16 2379.32,-1255.16 2376.87,-1262.16 2381.77,-1262.16"/>
</g>
<!-- C&#45;0029 -->
<g id="node17" class="node">
<title>C&#45;0029</title>
<ellipse fill="mediumseagreen" stroke="black" cx="1242" cy="-1031.5" rx="72" ry="21.5"/>
<text text-anchor="middle" x="1242" y="-1029" font-family="Arial" font-size="10.00">C&#45;0029</text>
</g>
<!-- S&#45;1935 -->
<g id="node23" class="node">
<title>S&#45;1935</title>
<polygon fill="mediumseagreen" stroke="black" points="1395,-952 1323,-930.5 1395,-909 1467,-930.5 1395,-952"/>
<text text-anchor="middle" x="1395" y="-928" font-family="Arial" font-size="10.00">S&#45;1935</text>
</g>
<!-- C&#45;0029&#45;&gt;S&#45;1935 -->
<g id="edge38" class="edge">
<title>C&#45;0029&#45;&gt;S&#45;1935</title>
<path fill="none" stroke="#4d4d4d" d="M1301.82,-1019.46C1301.82,-992.57 1301.82,-930 1301.82,-930 1301.82,-930 1317.38,-930 1317.38,-930"/>
<polygon fill="#4d4d4d" stroke="#4d4d4d" points="1317.38,-932.45 1324.38,-930 1317.38,-927.55 1317.38,-932.45"/>
</g>
<!-- C&#45;0613 -->
<g id="node39" class="node">
<title>C&#45;0613</title>
<ellipse fill="mediumseagreen" stroke="black" cx="1035" cy="-930.5" rx="72" ry="21.5"/>
<text text-anchor="middle" x="1035" y="-928" font-family="Arial" font-size="10.00">C&#45;0613</text>
</g>
<!-- C&#45;0029&#45;&gt;C&#45;0613 -->
<g id="edge12" class="edge">
<title>C&#45;0029&#45;&gt;C&#45;0613</title>
<path fill="none" stroke="#4d4d4d" d="M1169.89,-1031C1110.15,-1031 1035,-1031 1035,-1031 1035,-1031 1035,-959.31 1035,-959.31"/>
<polygon fill="#4d4d4d" stroke="#4d4d4d" points="1037.45,-959.31 1035,-952.31 1032.55,-959.31 1037.45,-959.31"/>
</g>
<!-- C&#45;0612 -->
<g id="node42" class="node">
<title>C&#45;0612</title>
<ellipse fill="tomato" stroke="black" cx="1215" cy="-930.5" rx="72" ry="21.5"/>
<text text-anchor="middle" x="1215" y="-928" font-family="Arial" font-size="10.00">C&#45;0612</text>
</g>
<!-- C&#45;0029&#45;&gt;C&#45;0612 -->
<g id="edge11" class="edge">
<title>C&#45;0029&#45;&gt;C&#45;0612</title>
<path fill="none" stroke="#4d4d4d" d="M1228.5,-1010.08C1228.5,-1010.08 1228.5,-958.89 1228.5,-958.89"/>
<polygon fill="#4d4d4d" stroke="#4d4d4d" points="1230.95,-958.89 1228.5,-951.89 1226.05,-958.89 1230.95,-958.89"/>
</g>
<!-- SW&#45;008_B -->
<g id="node19" class="node">
<title>SW&#45;008_B</title>
<polygon fill="mediumseagreen" stroke="black" points="1205.79,-346 1086.81,-346 1056.21,-303 1175.19,-303 1205.79,-346"/>
<text text-anchor="middle" x="1131" y="-322" font-family="Arial" font-size="10.00">SW&#45;008_B</text>
</g>
<!-- SW&#45;008_B&#45;&gt;C&#45;0138 -->
<g id="edge37" class="edge">
<title>SW&#45;008_B&#45;&gt;C&#45;0138</title>
<path fill="none" stroke="#4d4d4d" d="M1131,-302.58C1131,-302.58 1131,-252.03 1131,-252.03"/>
<polygon fill="#4d4d4d" stroke="#4d4d4d" points="1133.45,-252.03 1131,-245.03 1128.55,-252.03 1133.45,-252.03"/>
</g>
<!-- C&#45;0466 -->
<g id="node20" class="node">
<title>C&#45;0466</title>
<ellipse fill="mediumseagreen" stroke="black" cx="1702" cy="-1031.5" rx="72" ry="21.5"/>
<text text-anchor="middle" x="1702" y="-1029" font-family="Arial" font-size="10.00">C&#45;0466</text>
</g>
<!-- R&#45;153 -->
<g id="node22" class="node">
<title>R&#45;153</title>
<polygon fill="tomato" stroke="black" points="1827,-921.59 1827,-939.41 1784.82,-952 1725.18,-952 1683,-939.41 1683,-921.59 1725.18,-909 1784.82,-909 1827,-921.59"/>
<text text-anchor="middle" x="1755" y="-928" font-family="Arial" font-size="10.00">R&#45;153</text>
</g>
<!-- C&#45;0466&#45;&gt;R&#45;153 -->
<g id="edge41" class="edge">
<title>C&#45;0466&#45;&gt;R&#45;153</title>
<path fill="none" stroke="#4d4d4d" d="M1728.5,-1011.06C1728.5,-1011.06 1728.5,-959.31 1728.5,-959.31"/>
<polygon fill="#4d4d4d" stroke="#4d4d4d" points="1730.95,-959.31 1728.5,-952.31 1726.05,-959.31 1730.95,-959.31"/>
</g>
<!-- R&#45;005 -->
<g id="node34" class="node">
<title>R&#45;005</title>
<polygon fill="tomato" stroke="black" points="684,-113.59 684,-131.41 641.82,-144 582.18,-144 540,-131.41 540,-113.59 582.18,-101 641.82,-101 684,-113.59"/>
<text text-anchor="middle" x="612" y="-120" font-family="Arial" font-size="10.00">R&#45;005</text>
</g>
<!-- C&#45;0502&#45;&gt;R&#45;005 -->
<g id="edge22" class="edge">
<title>C&#45;0502&#45;&gt;R&#45;005</title>
<path fill="none" stroke="#4d4d4d" d="M612,-201.58C612,-201.58 612,-151.03 612,-151.03"/>
<polygon fill="#4d4d4d" stroke="#4d4d4d" points="614.45,-151.03 612,-144.03 609.55,-151.03 614.45,-151.03"/>
</g>
<!-- R&#45;153&#45;&gt;ext_circ_208_28_ -->
<g id="edge54" class="edge">
<title>R&#45;153&#45;&gt;ext_circ_208_28_</title>
<path fill="none" stroke="darkorange" stroke-dasharray="5,2" d="M1710,-913.37C1710,-913.37 1710,-858.31 1710,-858.31"/>
<polygon fill="darkorange" stroke="darkorange" points="1712.45,-858.31 1710,-851.31 1707.55,-858.31 1712.45,-858.31"/>
</g>
<!-- R&#45;003 -->
<g id="node24" class="node">
<title>R&#45;003</title>
<polygon fill="mediumseagreen" stroke="black" points="1774,-1224.59 1774,-1242.41 1731.82,-1255 1672.18,-1255 1630,-1242.41 1630,-1224.59 1672.18,-1212 1731.82,-1212 1774,-1224.59"/>
<text text-anchor="middle" x="1702" y="-1231" font-family="Arial" font-size="10.00">R&#45;003</text>
</g>
<!-- C&#45;0061 -->
<g id="node28" class="node">
<title>C&#45;0061</title>
<ellipse fill="mediumseagreen" stroke="black" cx="1702" cy="-1132.5" rx="72" ry="21.5"/>
<text text-anchor="middle" x="1702" y="-1130" font-family="Arial" font-size="10.00">C&#45;0061</text>
</g>
<!-- R&#45;003&#45;&gt;C&#45;0061 -->
<g id="edge7" class="edge">
<title>R&#45;003&#45;&gt;C&#45;0061</title>
<path fill="none" stroke="#4d4d4d" d="M1702,-1211.58C1702,-1211.58 1702,-1161.03 1702,-1161.03"/>
<polygon fill="#4d4d4d" stroke="#4d4d4d" points="1704.45,-1161.03 1702,-1154.03 1699.55,-1161.03 1704.45,-1161.03"/>
</g>
<!-- C&#45;0282 -->
<g id="node25" class="node">
<title>C&#45;0282</title>
<ellipse fill="mediumseagreen" stroke="black" cx="1215" cy="-526.5" rx="72" ry="21.5"/>
<text text-anchor="middle" x="1215" y="-524" font-family="Arial" font-size="10.00">C&#45;0282</text>
</g>
<!-- SW&#45;008_A -->
<g id="node43" class="node">
<title>SW&#45;008_A</title>
<polygon fill="mediumseagreen" stroke="black" points="1289.79,-447 1170.81,-447 1140.21,-404 1259.19,-404 1289.79,-447"/>
<text text-anchor="middle" x="1215" y="-423" font-family="Arial" font-size="10.00">SW&#45;008_A</text>
</g>
<!-- C&#45;0282&#45;&gt;SW&#45;008_A -->
<g id="edge34" class="edge">
<title>C&#45;0282&#45;&gt;SW&#45;008_A</title>
<path fill="none" stroke="#4d4d4d" d="M1215,-504.58C1215,-504.58 1215,-454.03 1215,-454.03"/>
<polygon fill="#4d4d4d" stroke="#4d4d4d" points="1217.45,-454.03 1215,-447.03 1212.55,-454.03 1217.45,-454.03"/>
</g>
<!-- SW&#45;010_B -->
<g id="node26" class="node">
<title>SW&#45;010_B</title>
<polygon fill="mediumseagreen" stroke="black" points="2499.79,-1457 2380.81,-1457 2350.21,-1414 2469.19,-1414 2499.79,-1457"/>
<text text-anchor="middle" x="2425" y="-1433" font-family="Arial" font-size="10.00">SW&#45;010_B</text>
</g>
<!-- SW&#45;010_B&#45;&gt;SW&#45;010_D -->
<g id="edge4" class="edge">
<title>SW&#45;010_B&#45;&gt;SW&#45;010_D</title>
<path fill="none" stroke="#4d4d4d" d="M2379.5,-1413.58C2379.5,-1413.58 2379.5,-1363.03 2379.5,-1363.03"/>
<polygon fill="#4d4d4d" stroke="#4d4d4d" points="2381.95,-1363.03 2379.5,-1356.03 2377.05,-1363.03 2381.95,-1363.03"/>
</g>
<!-- SW&#45;010_A -->
<g id="node27" class="node">
<title>SW&#45;010_A</title>
<polygon fill="mediumseagreen" stroke="black" points="2136.79,-1356 2017.81,-1356 1987.21,-1313 2106.19,-1313 2136.79,-1356"/>
<text text-anchor="middle" x="2062" y="-1332" font-family="Arial" font-size="10.00">SW&#45;010_A</text>
</g>
<!-- SW&#45;010_B&#45;&gt;SW&#45;010_A -->
<g id="edge5" class="edge">
<title>SW&#45;010_B&#45;&gt;SW&#45;010_A</title>
<path fill="none" stroke="#4d4d4d" d="M2365.06,-1435C2261.96,-1435 2062,-1435 2062,-1435 2062,-1435 2062,-1363.31 2062,-1363.31"/>
<polygon fill="#4d4d4d" stroke="#4d4d4d" points="2064.45,-1363.31 2062,-1356.31 2059.55,-1363.31 2064.45,-1363.31"/>
</g>
<!-- SW&#45;010_C -->
<g id="node37" class="node">
<title>SW&#45;010_C</title>
<polygon fill="mediumseagreen" stroke="black" points="2593.79,-1356 2474.81,-1356 2444.21,-1313 2563.19,-1313 2593.79,-1356"/>
<text text-anchor="middle" x="2519" y="-1332" font-family="Arial" font-size="10.00">SW&#45;010_C</text>
</g>
<!-- SW&#45;010_B&#45;&gt;SW&#45;010_C -->
<g id="edge3" class="edge">
<title>SW&#45;010_B&#45;&gt;SW&#45;010_C</title>
<path fill="none" stroke="#4d4d4d" d="M2472,-1417.91C2472,-1417.91 2472,-1359.23 2472,-1359.23"/>
<polygon fill="#4d4d4d" stroke="#4d4d4d" points="2474.45,-1359.23 2472,-1352.23 2469.55,-1359.23 2474.45,-1359.23"/>
</g>
<!-- SW&#45;010_A&#45;&gt;S&#45;1535 -->
<g id="edge45" class="edge">
<title>SW&#45;010_A&#45;&gt;S&#45;1535</title>
<path fill="none" stroke="#4d4d4d" d="M1997.02,-1327C1945.46,-1327 1882,-1327 1882,-1327 1882,-1327 1882,-1262.19 1882,-1262.19"/>
<polygon fill="#4d4d4d" stroke="#4d4d4d" points="1884.45,-1262.19 1882,-1255.19 1879.55,-1262.19 1884.45,-1262.19"/>
</g>
<!-- SW&#45;010_A&#45;&gt;R&#45;003 -->
<g id="edge6" class="edge">
<title>SW&#45;010_A&#45;&gt;R&#45;003</title>
<path fill="none" stroke="#4d4d4d" d="M2006.93,-1341C1906.09,-1341 1702,-1341 1702,-1341 1702,-1341 1702,-1262.25 1702,-1262.25"/>
<polygon fill="#4d4d4d" stroke="#4d4d4d" points="1704.45,-1262.25 1702,-1255.25 1699.55,-1262.25 1704.45,-1262.25"/>
</g>
<!-- S&#45;2244 -->
<g id="node30" class="node">
<title>S&#45;2244</title>
<polygon fill="tomato" stroke="black" points="2062,-1255 1990,-1233.5 2062,-1212 2134,-1233.5 2062,-1255"/>
<text text-anchor="middle" x="2062" y="-1231" font-family="Arial" font-size="10.00">S&#45;2244</text>
</g>
<!-- SW&#45;010_A&#45;&gt;S&#45;2244 -->
<g id="edge46" class="edge">
<title>SW&#45;010_A&#45;&gt;S&#45;2244</title>
<path fill="none" stroke="#4d4d4d" d="M2062,-1312.58C2062,-1312.58 2062,-1262.03 2062,-1262.03"/>
<polygon fill="#4d4d4d" stroke="#4d4d4d" points="2064.45,-1262.03 2062,-1255.03 2059.55,-1262.03 2064.45,-1262.03"/>
</g>
<!-- S&#45;1533 -->
<g id="node40" class="node">
<title>S&#45;1533</title>
<polygon fill="tomato" stroke="black" points="2242,-1255 2170,-1233.5 2242,-1212 2314,-1233.5 2242,-1255"/>
<text text-anchor="middle" x="2242" y="-1231" font-family="Arial" font-size="10.00">S&#45;1533</text>
</g>
<!-- SW&#45;010_A&#45;&gt;S&#45;1533 -->
<g id="edge44" class="edge">
<title>SW&#45;010_A&#45;&gt;S&#45;1533</title>
<path fill="none" stroke="#4d4d4d" d="M2121.47,-1334C2164.34,-1334 2214.68,-1334 2214.68,-1334 2214.68,-1334 2214.68,-1254.05 2214.68,-1254.05"/>
<polygon fill="#4d4d4d" stroke="#4d4d4d" points="2217.13,-1254.05 2214.68,-1247.05 2212.23,-1254.05 2217.13,-1254.05"/>
</g>
<!-- C&#45;0061&#45;&gt;S&#45;982 -->
<g id="edge9" class="edge">
<title>C&#45;0061&#45;&gt;S&#45;982</title>
<path fill="none" stroke="#4d4d4d" d="M1629.89,-1132C1554.8,-1132 1448,-1132 1448,-1132 1448,-1132 1448,-1060.31 1448,-1060.31"/>
<polygon fill="#4d4d4d" stroke="#4d4d4d" points="1450.45,-1060.31 1448,-1053.31 1445.55,-1060.31 1450.45,-1060.31"/>
</g>
<!-- C&#45;0061&#45;&gt;C&#45;0464 -->
<g id="edge39" class="edge">
<title>C&#45;0061&#45;&gt;C&#45;0464</title>
<path fill="none" stroke="#4d4d4d" d="M1641.1,-1121C1608.51,-1121 1575,-1121 1575,-1121 1575,-1121 1575,-959.35 1575,-959.35"/>
<polygon fill="#4d4d4d" stroke="#4d4d4d" points="1577.45,-959.35 1575,-952.35 1572.55,-959.35 1577.45,-959.35"/>
</g>
<!-- C&#45;0061&#45;&gt;C&#45;0029 -->
<g id="edge10" class="edge">
<title>C&#45;0061&#45;&gt;C&#45;0029</title>
<path fill="none" stroke="#4d4d4d" d="M1639,-1143C1513.02,-1143 1242,-1143 1242,-1143 1242,-1143 1242,-1060.26 1242,-1060.26"/>
<polygon fill="#4d4d4d" stroke="#4d4d4d" points="1244.45,-1060.26 1242,-1053.26 1239.55,-1060.26 1244.45,-1060.26"/>
</g>
<!-- C&#45;0061&#45;&gt;C&#45;0466 -->
<g id="edge40" class="edge">
<title>C&#45;0061&#45;&gt;C&#45;0466</title>
<path fill="none" stroke="#4d4d4d" d="M1678,-1112.06C1678,-1112.06 1678,-1058.91 1678,-1058.91"/>
<polygon fill="#4d4d4d" stroke="#4d4d4d" points="1680.45,-1058.91 1678,-1051.91 1675.55,-1058.91 1680.45,-1058.91"/>
</g>
<!-- S&#45;2254 -->
<g id="node31" class="node">
<title>S&#45;2254</title>
<polygon fill="mediumseagreen" stroke="black" points="1882,-1053 1810,-1031.5 1882,-1010 1954,-1031.5 1882,-1053"/>
<text text-anchor="middle" x="1882" y="-1029" font-family="Arial" font-size="10.00">S&#45;2254</text>
</g>
<!-- C&#45;0061&#45;&gt;S&#45;2254 -->
<g id="edge43" class="edge">
<title>C&#45;0061&#45;&gt;S&#45;2254</title>
<path fill="none" stroke="#4d4d4d" d="M1769.54,-1125C1820.61,-1125 1882,-1125 1882,-1125 1882,-1125 1882,-1060.19 1882,-1060.19"/>
<polygon fill="#4d4d4d" stroke="#4d4d4d" points="1884.45,-1060.19 1882,-1053.19 1879.55,-1060.19 1884.45,-1060.19"/>
</g>
<!-- S&#45;1324 -->
<g id="node35" class="node">
<title>S&#45;1324</title>
<polygon fill="mediumseagreen" stroke="black" points="2062,-1053 1990,-1031.5 2062,-1010 2134,-1031.5 2062,-1053"/>
<text text-anchor="middle" x="2062" y="-1029" font-family="Arial" font-size="10.00">S&#45;1324</text>
</g>
<!-- C&#45;0061&#45;&gt;S&#45;1324 -->
<g id="edge42" class="edge">
<title>C&#45;0061&#45;&gt;S&#45;1324</title>
<path fill="none" stroke="#4d4d4d" d="M1770.84,-1139C1850.45,-1139 1970.68,-1139 1970.68,-1139 1970.68,-1139 1970.68,-1031 1970.68,-1031 1970.68,-1031 1984.4,-1031 1984.4,-1031"/>
<polygon fill="#4d4d4d" stroke="#4d4d4d" points="1984.4,-1033.45 1991.4,-1031 1984.4,-1028.55 1984.4,-1033.45"/>
</g>
<!-- S&#45;1323 -->
<g id="node41" class="node">
<title>S&#45;1323</title>
<polygon fill="mediumseagreen" stroke="black" points="2242,-1053 2170,-1031.5 2242,-1010 2314,-1031.5 2242,-1053"/>
<text text-anchor="middle" x="2242" y="-1029" font-family="Arial" font-size="10.00">S&#45;1323</text>
</g>
<!-- C&#45;0061&#45;&gt;S&#45;1323 -->
<g id="edge8" class="edge">
<title>C&#45;0061&#45;&gt;S&#45;1323</title>
<path fill="none" stroke="#4d4d4d" d="M1726,-1111.96C1726,-1097.98 1726,-1082 1726,-1082 1726,-1082 2242,-1082 2242,-1082 2242,-1082 2242,-1060.21 2242,-1060.21"/>
<polygon fill="#4d4d4d" stroke="#4d4d4d" points="2244.45,-1060.21 2242,-1053.21 2239.55,-1060.21 2244.45,-1060.21"/>
</g>
<!-- 109&#45;29&#45; -->
<g id="node29" class="node">
<title>109&#45;29&#45;</title>
<polygon fill="gold" stroke="black" points="2589,-1531.59 2589,-1549.41 2546.82,-1562 2487.18,-1562 2445,-1549.41 2445,-1531.59 2487.18,-1519 2546.82,-1519 2589,-1531.59"/>
<polygon fill="none" stroke="black" points="2593,-1528.61 2593,-1552.39 2547.41,-1566 2486.59,-1566 2441,-1552.39 2441,-1528.61 2486.59,-1515 2547.41,-1515 2593,-1528.61"/>
<text text-anchor="middle" x="2517" y="-1538" font-family="Arial" font-size="10.00">109&#45;29&#45;</text>
</g>
<!-- 109&#45;29&#45;&#45;&gt;SW&#45;005_C -->
<g id="edge1" class="edge">
<title>109&#45;29&#45;&#45;&gt;SW&#45;005_C</title>
<path fill="none" stroke="#4d4d4d" d="M2587.18,-1526.77C2587.18,-1526.77 2587.18,-1442.55 2587.18,-1442.55"/>
<polygon fill="#4d4d4d" stroke="#4d4d4d" points="2589.63,-1442.55 2587.18,-1435.55 2584.73,-1442.55 2589.63,-1442.55"/>
</g>
<!-- 109&#45;29&#45;&#45;&gt;SW&#45;010_B -->
<g id="edge2" class="edge">
<title>109&#45;29&#45;&#45;&gt;SW&#45;010_B</title>
<path fill="none" stroke="#4d4d4d" d="M2470.32,-1519.76C2470.32,-1519.76 2470.32,-1464.29 2470.32,-1464.29"/>
<polygon fill="#4d4d4d" stroke="#4d4d4d" points="2472.77,-1464.29 2470.32,-1457.29 2467.87,-1464.29 2472.77,-1464.29"/>
</g>
<!-- ext_circ_109_25_ -->
<g id="node53" class="node">
<title>ext_circ_109_25_</title>
<polygon fill="lightpink" stroke="darkorange" stroke-dasharray="5,2" points="2134,-1154 1990,-1154 1990,-1111 2134,-1111 2134,-1154"/>
<text text-anchor="middle" x="2062" y="-1135.5" font-family="Arial" font-size="10.00">Circuito:</text>
<text text-anchor="middle" x="2062" y="-1124.5" font-family="Arial" font-size="10.00">109&#45;25&#45;</text>
</g>
<!-- S&#45;2244&#45;&gt;ext_circ_109_25_ -->
<g id="edge56" class="edge">
<title>S&#45;2244&#45;&gt;ext_circ_109_25_</title>
<path fill="none" stroke="darkorange" stroke-dasharray="5,2" d="M2062,-1211.58C2062,-1211.58 2062,-1161.03 2062,-1161.03"/>
<polygon fill="darkorange" stroke="darkorange" points="2064.45,-1161.03 2062,-1154.03 2059.55,-1161.03 2064.45,-1161.03"/>
</g>
<!-- ext_circ_208_26_ -->
<g id="node50" class="node">
<title>ext_circ_208_26_</title>
<polygon fill="lightpink" stroke="darkorange" stroke-dasharray="5,2" points="774,-43 630,-43 630,0 774,0 774,-43"/>
<text text-anchor="middle" x="702" y="-24.5" font-family="Arial" font-size="10.00">Circuito:</text>
<text text-anchor="middle" x="702" y="-13.5" font-family="Arial" font-size="10.00">208&#45;26&#45;</text>
</g>
<!-- R&#45;005&#45;&gt;ext_circ_208_26_ -->
<g id="edge50" class="edge">
<title>R&#45;005&#45;&gt;ext_circ_208_26_</title>
<path fill="none" stroke="darkorange" stroke-dasharray="5,2" d="M657,-105.37C657,-105.37 657,-50.31 657,-50.31"/>
<polygon fill="darkorange" stroke="darkorange" points="659.45,-50.31 657,-43.31 654.55,-50.31 659.45,-50.31"/>
</g>
<!-- C&#45;0063 -->
<g id="node44" class="node">
<title>C&#45;0063</title>
<ellipse fill="mediumseagreen" stroke="black" cx="675" cy="-425.5" rx="72" ry="21.5"/>
<text text-anchor="middle" x="675" y="-423" font-family="Arial" font-size="10.00">C&#45;0063</text>
</g>
<!-- C&#45;0031&#45;&gt;C&#45;0063 -->
<g id="edge18" class="edge">
<title>C&#45;0031&#45;&gt;C&#45;0063</title>
<path fill="none" stroke="#4d4d4d" d="M675,-504.58C675,-504.58 675,-454.03 675,-454.03"/>
<polygon fill="#4d4d4d" stroke="#4d4d4d" points="677.45,-454.03 675,-447.03 672.55,-454.03 677.45,-454.03"/>
</g>
<!-- C&#45;0500&#45;&gt;ext_circ_208_26_ -->
<g id="edge51" class="edge">
<title>C&#45;0500&#45;&gt;ext_circ_208_26_</title>
<path fill="none" stroke="darkorange" stroke-dasharray="5,2" d="M747,-105.37C747,-105.37 747,-50.31 747,-50.31"/>
<polygon fill="darkorange" stroke="darkorange" points="749.45,-50.31 747,-43.31 744.55,-50.31 749.45,-50.31"/>
</g>
<!-- C&#45;0613&#45;&gt;R&#45;115 -->
<g id="edge13" class="edge">
<title>C&#45;0613&#45;&gt;R&#45;115</title>
<path fill="none" stroke="#4d4d4d" d="M1035,-908.58C1035,-908.58 1035,-858.03 1035,-858.03"/>
<polygon fill="#4d4d4d" stroke="#4d4d4d" points="1037.45,-858.03 1035,-851.03 1032.55,-858.03 1037.45,-858.03"/>
</g>
<!-- ext_circ_109_26_ -->
<g id="node52" class="node">
<title>ext_circ_109_26_</title>
<polygon fill="lightpink" stroke="darkorange" stroke-dasharray="5,2" points="2314,-1154 2170,-1154 2170,-1111 2314,-1111 2314,-1154"/>
<text text-anchor="middle" x="2242" y="-1135.5" font-family="Arial" font-size="10.00">Circuito:</text>
<text text-anchor="middle" x="2242" y="-1124.5" font-family="Arial" font-size="10.00">109&#45;26&#45;</text>
</g>
<!-- S&#45;1533&#45;&gt;ext_circ_109_26_ -->
<g id="edge55" class="edge">
<title>S&#45;1533&#45;&gt;ext_circ_109_26_</title>
<path fill="none" stroke="darkorange" stroke-dasharray="5,2" d="M2242,-1211.58C2242,-1211.58 2242,-1161.03 2242,-1161.03"/>
<polygon fill="darkorange" stroke="darkorange" points="2244.45,-1161.03 2242,-1154.03 2239.55,-1161.03 2244.45,-1161.03"/>
</g>
<!-- C&#45;0612&#45;&gt;C&#45;0305 -->
<g id="edge49" class="edge">
<title>C&#45;0612&#45;&gt;C&#45;0305</title>
<path fill="none" stroke="blue" stroke-dasharray="5,2" d="M1191,-909.96C1191,-895.98 1191,-880 1191,-880 1191,-880 831,-880 831,-880 831,-880 831,-655.16 831,-655.16"/>
<polygon fill="blue" stroke="blue" points="833.45,-655.16 831,-648.16 828.55,-655.16 833.45,-655.16"/>
</g>
<!-- SW&#45;008_A&#45;&gt;SW&#45;008_B -->
<g id="edge35" class="edge">
<title>SW&#45;008_A&#45;&gt;SW&#45;008_B</title>
<path fill="none" stroke="#4d4d4d" d="M1173,-403.58C1173,-403.58 1173,-353.03 1173,-353.03"/>
<polygon fill="#4d4d4d" stroke="#4d4d4d" points="1175.45,-353.03 1173,-346.03 1170.55,-353.03 1175.45,-353.03"/>
</g>
<!-- SW&#45;008_C -->
<g id="node45" class="node">
<title>SW&#45;008_C</title>
<polygon fill="tomato" stroke="black" points="1390.79,-346 1271.81,-346 1241.21,-303 1360.19,-303 1390.79,-346"/>
<text text-anchor="middle" x="1316" y="-322" font-family="Arial" font-size="10.00">SW&#45;008_C</text>
</g>
<!-- SW&#45;008_A&#45;&gt;SW&#45;008_C -->
<g id="edge36" class="edge">
<title>SW&#45;008_A&#45;&gt;SW&#45;008_C</title>
<path fill="none" stroke="#4d4d4d" d="M1273.55,-424.07C1273.55,-424.07 1273.55,-353.04 1273.55,-353.04"/>
<polygon fill="#4d4d4d" stroke="#4d4d4d" points="1276,-353.04 1273.55,-346.04 1271.1,-353.04 1276,-353.04"/>
</g>
<!-- C&#45;0063&#45;&gt;SPR&#45;61 -->
<g id="edge19" class="edge">
<title>C&#45;0063&#45;&gt;SPR&#45;61</title>
<path fill="none" stroke="#4d4d4d" d="M675,-403.58C675,-403.58 675,-353.03 675,-353.03"/>
<polygon fill="#4d4d4d" stroke="#4d4d4d" points="677.45,-353.03 675,-346.03 672.55,-353.03 677.45,-353.03"/>
</g>
<!-- C&#45;0063&#45;&gt;S&#45;924 -->
<g id="edge25" class="edge">
<title>C&#45;0063&#45;&gt;S&#45;924</title>
<path fill="none" stroke="#4d4d4d" d="M602.74,-425C504.81,-425 342,-425 342,-425 342,-425 342,-353.31 342,-353.31"/>
<polygon fill="#4d4d4d" stroke="#4d4d4d" points="344.45,-353.31 342,-346.31 339.55,-353.31 344.45,-353.31"/>
</g>
<!-- C&#45;0063&#45;&gt;S&#45;1330 -->
<g id="edge24" class="edge">
<title>C&#45;0063&#45;&gt;S&#45;1330</title>
<path fill="none" stroke="#4d4d4d" d="M747.18,-425C797.25,-425 855,-425 855,-425 855,-425 855,-353.31 855,-353.31"/>
<polygon fill="#4d4d4d" stroke="#4d4d4d" points="857.45,-353.31 855,-346.31 852.55,-353.31 857.45,-353.31"/>
</g>
<!-- SW&#45;008_C&#45;&gt;SW&#45;008_A -->
<g id="edge52" class="edge">
<title>SW&#45;008_C&#45;&gt;SW&#45;008_A</title>
<path fill="none" stroke="blue" stroke-dasharray="5,2" d="M1257.45,-325.93C1257.45,-325.93 1257.45,-396.96 1257.45,-396.96"/>
<polygon fill="blue" stroke="blue" points="1255,-396.96 1257.45,-403.96 1259.9,-396.96 1255,-396.96"/>
</g>
<!-- S&#45;1893&#45;&gt;S&#45;2280 -->
<g id="edge28" class="edge">
<title>S&#45;1893&#45;&gt;S&#45;2280</title>
<path fill="none" stroke="#4d4d4d" d="M432,-201.58C432,-201.58 432,-151.03 432,-151.03"/>
<polygon fill="#4d4d4d" stroke="#4d4d4d" points="434.45,-151.03 432,-144.03 429.55,-151.03 434.45,-151.03"/>
</g>
<!-- C&#45;0279&#45;&gt;C&#45;0282 -->
<g id="edge33" class="edge">
<title>C&#45;0279&#45;&gt;C&#45;0282</title>
<path fill="none" stroke="#4d4d4d" d="M1215,-605.58C1215,-605.58 1215,-555.03 1215,-555.03"/>
<polygon fill="#4d4d4d" stroke="#4d4d4d" points="1217.45,-555.03 1215,-548.03 1212.55,-555.03 1217.45,-555.03"/>
</g>
</g>
</svg>
