<?xml version="1.0" encoding="UTF-8" standalone="no"?>
<!DOCTYPE svg PUBLIC "-//W3C//DTD SVG 1.1//EN"
 "http://www.w3.org/Graphics/SVG/1.1/DTD/svg11.dtd">
<!-- Generated by graphviz version 2.50.0 (0)
 -->
<!-- Title: Grafo_Circuito_114_24_ Pages: 1 -->
<svg width="2269pt" height="1372pt"
 viewBox="0.00 0.00 2269.00 1372.00" xmlns="http://www.w3.org/2000/svg" xmlns:xlink="http://www.w3.org/1999/xlink">
<g id="graph0" class="graph" transform="scale(1 1) rotate(0) translate(4 1368)">
<title>Grafo_Circuito_114_24_</title>
<polygon fill="white" stroke="transparent" points="-4,4 -4,-1368 2265,-1368 2265,4 -4,4"/>
<!-- 114&#45;24&#45; -->
<g id="node1" class="node">
<title>114&#45;24&#45;</title>
<polygon fill="gold" stroke="black" points="986,-1329.59 986,-1347.41 943.82,-1360 884.18,-1360 842,-1347.41 842,-1329.59 884.18,-1317 943.82,-1317 986,-1329.59"/>
<polygon fill="none" stroke="black" points="990,-1326.61 990,-1350.39 944.41,-1364 883.59,-1364 838,-1350.39 838,-1326.61 883.59,-1313 944.41,-1313 990,-1326.61"/>
<text text-anchor="middle" x="914" y="-1336" font-family="Arial" font-size="10.00">114&#45;24&#45;</text>
</g>
<!-- C&#45;0177 -->
<g id="node38" class="node">
<title>C&#45;0177</title>
<ellipse fill="mediumseagreen" stroke="black" cx="914" cy="-1233.5" rx="72" ry="21.5"/>
<text text-anchor="middle" x="914" y="-1231" font-family="Arial" font-size="10.00">C&#45;0177</text>
</g>
<!-- 114&#45;24&#45;&#45;&gt;C&#45;0177 -->
<g id="edge1" class="edge">
<title>114&#45;24&#45;&#45;&gt;C&#45;0177</title>
<path fill="none" stroke="#4d4d4d" d="M914,-1312.81C914,-1312.81 914,-1262.03 914,-1262.03"/>
<polygon fill="#4d4d4d" stroke="#4d4d4d" points="916.45,-1262.03 914,-1255.03 911.55,-1262.03 916.45,-1262.03"/>
</g>
<!-- S&#45;234 -->
<g id="node2" class="node">
<title>S&#45;234</title>
<polygon fill="mediumseagreen" stroke="black" points="1469,-447 1397,-425.5 1469,-404 1541,-425.5 1469,-447"/>
<text text-anchor="middle" x="1469" y="-423" font-family="Arial" font-size="10.00">S&#45;234</text>
</g>
<!-- S&#45;235 -->
<g id="node3" class="node">
<title>S&#45;235</title>
<polygon fill="mediumseagreen" stroke="black" points="1469,-346 1397,-324.5 1469,-303 1541,-324.5 1469,-346"/>
<text text-anchor="middle" x="1469" y="-322" font-family="Arial" font-size="10.00">S&#45;235</text>
</g>
<!-- S&#45;234&#45;&gt;S&#45;235 -->
<g id="edge36" class="edge">
<title>S&#45;234&#45;&gt;S&#45;235</title>
<path fill="none" stroke="#4d4d4d" d="M1505,-414.69C1505,-414.69 1505,-342.54 1505,-342.54"/>
<polygon fill="#4d4d4d" stroke="#4d4d4d" points="1507.45,-342.54 1505,-335.54 1502.55,-342.54 1507.45,-342.54"/>
</g>
<!-- S&#45;2425 -->
<g id="node4" class="node">
<title>S&#45;2425</title>
<polygon fill="mediumseagreen" stroke="black" points="1649,-346 1577,-324.5 1649,-303 1721,-324.5 1649,-346"/>
<text text-anchor="middle" x="1649" y="-322" font-family="Arial" font-size="10.00">S&#45;2425</text>
</g>
<!-- S&#45;234&#45;&gt;S&#45;2425 -->
<g id="edge35" class="edge">
<title>S&#45;234&#45;&gt;S&#45;2425</title>
<path fill="none" stroke="#4d4d4d" d="M1539.37,-425C1589.85,-425 1649,-425 1649,-425 1649,-425 1649,-353.31 1649,-353.31"/>
<polygon fill="#4d4d4d" stroke="#4d4d4d" points="1651.45,-353.31 1649,-346.31 1646.55,-353.31 1651.45,-353.31"/>
</g>
<!-- S&#45;275 -->
<g id="node14" class="node">
<title>S&#45;275</title>
<polygon fill="mediumseagreen" stroke="black" points="929,-346 857,-324.5 929,-303 1001,-324.5 929,-346"/>
<text text-anchor="middle" x="929" y="-322" font-family="Arial" font-size="10.00">S&#45;275</text>
</g>
<!-- S&#45;234&#45;&gt;S&#45;275 -->
<g id="edge39" class="edge">
<title>S&#45;234&#45;&gt;S&#45;275</title>
<path fill="none" stroke="#4d4d4d" d="M1433,-414.6C1433,-402.3 1433,-384 1433,-384 1433,-384 929,-384 929,-384 929,-384 929,-353.32 929,-353.32"/>
<polygon fill="#4d4d4d" stroke="#4d4d4d" points="931.45,-353.32 929,-346.32 926.55,-353.32 931.45,-353.32"/>
</g>
<!-- S&#45;277 -->
<g id="node25" class="node">
<title>S&#45;277</title>
<polygon fill="mediumseagreen" stroke="black" points="1109,-346 1037,-324.5 1109,-303 1181,-324.5 1109,-346"/>
<text text-anchor="middle" x="1109" y="-322" font-family="Arial" font-size="10.00">S&#45;277</text>
</g>
<!-- S&#45;234&#45;&gt;S&#45;277 -->
<g id="edge37" class="edge">
<title>S&#45;234&#45;&gt;S&#45;277</title>
<path fill="none" stroke="#4d4d4d" d="M1469,-404C1469,-386.61 1469,-365 1469,-365 1469,-365 1109,-365 1109,-365 1109,-365 1109,-353.17 1109,-353.17"/>
<polygon fill="#4d4d4d" stroke="#4d4d4d" points="1111.45,-353.17 1109,-346.17 1106.55,-353.17 1111.45,-353.17"/>
</g>
<!-- R&#45;075 -->
<g id="node27" class="node">
<title>R&#45;075</title>
<polygon fill="tomato" stroke="black" points="1361,-315.59 1361,-333.41 1318.82,-346 1259.18,-346 1217,-333.41 1217,-315.59 1259.18,-303 1318.82,-303 1361,-315.59"/>
<text text-anchor="middle" x="1289" y="-322" font-family="Arial" font-size="10.00">R&#45;075</text>
</g>
<!-- S&#45;234&#45;&gt;R&#45;075 -->
<g id="edge38" class="edge">
<title>S&#45;234&#45;&gt;R&#45;075</title>
<path fill="none" stroke="#4d4d4d" d="M1398.53,-425C1387.14,-425 1379,-425 1379,-425 1379,-425 1379,-324 1379,-324 1379,-324 1368.22,-324 1368.22,-324"/>
<polygon fill="#4d4d4d" stroke="#4d4d4d" points="1368.22,-321.55 1361.22,-324 1368.22,-326.45 1368.22,-321.55"/>
</g>
<!-- S&#45;272 -->
<g id="node5" class="node">
<title>S&#45;272</title>
<polygon fill="mediumseagreen" stroke="black" points="1829,-447 1757,-425.5 1829,-404 1901,-425.5 1829,-447"/>
<text text-anchor="middle" x="1829" y="-423" font-family="Arial" font-size="10.00">S&#45;272</text>
</g>
<!-- S&#45;2262 -->
<g id="node6" class="node">
<title>S&#45;2262</title>
<polygon fill="mediumseagreen" stroke="black" points="1829,-346 1757,-324.5 1829,-303 1901,-324.5 1829,-346"/>
<text text-anchor="middle" x="1829" y="-322" font-family="Arial" font-size="10.00">S&#45;2262</text>
</g>
<!-- S&#45;272&#45;&gt;S&#45;2262 -->
<g id="edge32" class="edge">
<title>S&#45;272&#45;&gt;S&#45;2262</title>
<path fill="none" stroke="#4d4d4d" d="M1829,-403.58C1829,-403.58 1829,-353.03 1829,-353.03"/>
<polygon fill="#4d4d4d" stroke="#4d4d4d" points="1831.45,-353.03 1829,-346.03 1826.55,-353.03 1831.45,-353.03"/>
</g>
<!-- S&#45;204 -->
<g id="node10" class="node">
<title>S&#45;204</title>
<polygon fill="mediumseagreen" stroke="black" points="2009,-346 1937,-324.5 2009,-303 2081,-324.5 2009,-346"/>
<text text-anchor="middle" x="2009" y="-322" font-family="Arial" font-size="10.00">S&#45;204</text>
</g>
<!-- S&#45;272&#45;&gt;S&#45;204 -->
<g id="edge33" class="edge">
<title>S&#45;272&#45;&gt;S&#45;204</title>
<path fill="none" stroke="#4d4d4d" d="M1899.68,-425C1939.77,-425 1982,-425 1982,-425 1982,-425 1982,-345.05 1982,-345.05"/>
<polygon fill="#4d4d4d" stroke="#4d4d4d" points="1984.45,-345.05 1982,-338.05 1979.55,-345.05 1984.45,-345.05"/>
</g>
<!-- C&#45;0595 -->
<g id="node7" class="node">
<title>C&#45;0595</title>
<ellipse fill="tomato" stroke="black" cx="374" cy="-728.5" rx="72" ry="21.5"/>
<text text-anchor="middle" x="374" y="-726" font-family="Arial" font-size="10.00">C&#45;0595</text>
</g>
<!-- C&#45;0599 -->
<g id="node9" class="node">
<title>C&#45;0599</title>
<ellipse fill="mediumseagreen" stroke="black" cx="1199" cy="-526.5" rx="72" ry="21.5"/>
<text text-anchor="middle" x="1199" y="-524" font-family="Arial" font-size="10.00">C&#45;0599</text>
</g>
<!-- C&#45;0595&#45;&gt;C&#45;0599 -->
<g id="edge48" class="edge">
<title>C&#45;0595&#45;&gt;C&#45;0599</title>
<path fill="none" stroke="blue" stroke-dasharray="5,2" d="M446.06,-728C462.38,-728 475,-728 475,-728 475,-728 475,-540 475,-540 475,-540 1135.79,-540 1135.79,-540"/>
<polygon fill="blue" stroke="blue" points="1135.79,-542.45 1142.79,-540 1135.79,-537.55 1135.79,-542.45"/>
</g>
<!-- C&#45;0592 -->
<g id="node8" class="node">
<title>C&#45;0592</title>
<ellipse fill="tomato" stroke="black" cx="554" cy="-728.5" rx="72" ry="21.5"/>
<text text-anchor="middle" x="554" y="-726" font-family="Arial" font-size="10.00">C&#45;0592</text>
</g>
<!-- C&#45;0593 -->
<g id="node28" class="node">
<title>C&#45;0593</title>
<ellipse fill="mediumseagreen" stroke="black" cx="398" cy="-526.5" rx="72" ry="21.5"/>
<text text-anchor="middle" x="398" y="-524" font-family="Arial" font-size="10.00">C&#45;0593</text>
</g>
<!-- C&#45;0592&#45;&gt;C&#45;0593 -->
<g id="edge43" class="edge">
<title>C&#45;0592&#45;&gt;C&#45;0593</title>
<path fill="none" stroke="blue" stroke-dasharray="5,2" d="M490,-718.4C490,-676.55 490,-519 490,-519 490,-519 472.83,-519 472.83,-519"/>
<polygon fill="blue" stroke="blue" points="472.83,-516.55 465.83,-519 472.83,-521.45 472.83,-516.55"/>
</g>
<!-- C&#45;0599&#45;&gt;S&#45;234 -->
<g id="edge34" class="edge">
<title>C&#45;0599&#45;&gt;S&#45;234</title>
<path fill="none" stroke="#4d4d4d" d="M1259.93,-515C1339.56,-515 1469,-515 1469,-515 1469,-515 1469,-454.17 1469,-454.17"/>
<polygon fill="#4d4d4d" stroke="#4d4d4d" points="1471.45,-454.17 1469,-447.17 1466.55,-454.17 1471.45,-454.17"/>
</g>
<!-- C&#45;0599&#45;&gt;S&#45;272 -->
<g id="edge31" class="edge">
<title>C&#45;0599&#45;&gt;S&#45;272</title>
<path fill="none" stroke="#4d4d4d" d="M1271.27,-526C1436.75,-526 1829,-526 1829,-526 1829,-526 1829,-454.31 1829,-454.31"/>
<polygon fill="#4d4d4d" stroke="#4d4d4d" points="1831.45,-454.31 1829,-447.31 1826.55,-454.31 1831.45,-454.31"/>
</g>
<!-- S&#45;1959 -->
<g id="node12" class="node">
<title>S&#45;1959</title>
<polygon fill="mediumseagreen" stroke="black" points="2099,-447 2027,-425.5 2099,-404 2171,-425.5 2099,-447"/>
<text text-anchor="middle" x="2099" y="-423" font-family="Arial" font-size="10.00">S&#45;1959</text>
</g>
<!-- C&#45;0599&#45;&gt;S&#45;1959 -->
<g id="edge28" class="edge">
<title>C&#45;0599&#45;&gt;S&#45;1959</title>
<path fill="none" stroke="#4d4d4d" d="M1261.93,-537C1466.41,-537 2099,-537 2099,-537 2099,-537 2099,-454.26 2099,-454.26"/>
<polygon fill="#4d4d4d" stroke="#4d4d4d" points="2101.45,-454.26 2099,-447.26 2096.55,-454.26 2101.45,-454.26"/>
</g>
<!-- S&#45;2483 -->
<g id="node16" class="node">
<title>S&#45;2483</title>
<polygon fill="mediumseagreen" stroke="black" points="749,-447 677,-425.5 749,-404 821,-425.5 749,-447"/>
<text text-anchor="middle" x="749" y="-423" font-family="Arial" font-size="10.00">S&#45;2483</text>
</g>
<!-- C&#45;0599&#45;&gt;S&#45;2483 -->
<g id="edge41" class="edge">
<title>C&#45;0599&#45;&gt;S&#45;2483</title>
<path fill="none" stroke="#4d4d4d" d="M1130.35,-533C1019.9,-533 815,-533 815,-533 815,-533 815,-434.37 815,-434.37"/>
<polygon fill="#4d4d4d" stroke="#4d4d4d" points="817.45,-434.37 815,-427.37 812.55,-434.37 817.45,-434.37"/>
</g>
<!-- S&#45;1444 -->
<g id="node22" class="node">
<title>S&#45;1444</title>
<polygon fill="mediumseagreen" stroke="black" points="929,-447 857,-425.5 929,-404 1001,-425.5 929,-447"/>
<text text-anchor="middle" x="929" y="-423" font-family="Arial" font-size="10.00">S&#45;1444</text>
</g>
<!-- C&#45;0599&#45;&gt;S&#45;1444 -->
<g id="edge26" class="edge">
<title>C&#45;0599&#45;&gt;S&#45;1444</title>
<path fill="none" stroke="#4d4d4d" d="M1126.84,-526C1067.62,-526 993.5,-526 993.5,-526 993.5,-526 993.5,-434.98 993.5,-434.98"/>
<polygon fill="#4d4d4d" stroke="#4d4d4d" points="995.95,-434.98 993.5,-427.98 991.05,-434.98 995.95,-434.98"/>
</g>
<!-- S&#45;2502 -->
<g id="node33" class="node">
<title>S&#45;2502</title>
<polygon fill="mediumseagreen" stroke="black" points="1109,-447 1037,-425.5 1109,-404 1181,-425.5 1109,-447"/>
<text text-anchor="middle" x="1109" y="-423" font-family="Arial" font-size="10.00">S&#45;2502</text>
</g>
<!-- C&#45;0599&#45;&gt;S&#45;2502 -->
<g id="edge27" class="edge">
<title>C&#45;0599&#45;&gt;S&#45;2502</title>
<path fill="none" stroke="#4d4d4d" d="M1154,-509.37C1154,-509.37 1154,-440.78 1154,-440.78"/>
<polygon fill="#4d4d4d" stroke="#4d4d4d" points="1156.45,-440.78 1154,-433.78 1151.55,-440.78 1156.45,-440.78"/>
</g>
<!-- S&#45;058 -->
<g id="node36" class="node">
<title>S&#45;058</title>
<polygon fill="mediumseagreen" stroke="black" points="1289,-447 1217,-425.5 1289,-404 1361,-425.5 1289,-447"/>
<text text-anchor="middle" x="1289" y="-423" font-family="Arial" font-size="10.00">S&#45;058</text>
</g>
<!-- C&#45;0599&#45;&gt;S&#45;058 -->
<g id="edge30" class="edge">
<title>C&#45;0599&#45;&gt;S&#45;058</title>
<path fill="none" stroke="#4d4d4d" d="M1244,-509.37C1244,-509.37 1244,-440.78 1244,-440.78"/>
<polygon fill="#4d4d4d" stroke="#4d4d4d" points="1246.45,-440.78 1244,-433.78 1241.55,-440.78 1246.45,-440.78"/>
</g>
<!-- S&#45;144 -->
<g id="node11" class="node">
<title>S&#45;144</title>
<polygon fill="mediumseagreen" stroke="black" points="734,-750 662,-728.5 734,-707 806,-728.5 734,-750"/>
<text text-anchor="middle" x="734" y="-726" font-family="Arial" font-size="10.00">S&#45;144</text>
</g>
<!-- S&#45;2416 -->
<g id="node42" class="node">
<title>S&#45;2416</title>
<polygon fill="mediumseagreen" stroke="black" points="2189,-346 2117,-324.5 2189,-303 2261,-324.5 2189,-346"/>
<text text-anchor="middle" x="2189" y="-322" font-family="Arial" font-size="10.00">S&#45;2416</text>
</g>
<!-- S&#45;1959&#45;&gt;S&#45;2416 -->
<g id="edge29" class="edge">
<title>S&#45;1959&#45;&gt;S&#45;2416</title>
<path fill="none" stroke="#4d4d4d" d="M2144,-417.23C2144,-417.23 2144,-339.6 2144,-339.6"/>
<polygon fill="#4d4d4d" stroke="#4d4d4d" points="2146.45,-339.6 2144,-332.6 2141.55,-339.6 2146.45,-339.6"/>
</g>
<!-- S&#45;140 -->
<g id="node13" class="node">
<title>S&#45;140</title>
<polygon fill="mediumseagreen" stroke="black" points="914,-1154 842,-1132.5 914,-1111 986,-1132.5 914,-1154"/>
<text text-anchor="middle" x="914" y="-1130" font-family="Arial" font-size="10.00">S&#45;140</text>
</g>
<!-- C&#45;0451 -->
<g id="node29" class="node">
<title>C&#45;0451</title>
<ellipse fill="mediumseagreen" stroke="black" cx="914" cy="-1031.5" rx="72" ry="21.5"/>
<text text-anchor="middle" x="914" y="-1029" font-family="Arial" font-size="10.00">C&#45;0451</text>
</g>
<!-- S&#45;140&#45;&gt;C&#45;0451 -->
<g id="edge3" class="edge">
<title>S&#45;140&#45;&gt;C&#45;0451</title>
<path fill="none" stroke="#4d4d4d" d="M914,-1110.58C914,-1110.58 914,-1060.03 914,-1060.03"/>
<polygon fill="#4d4d4d" stroke="#4d4d4d" points="916.45,-1060.03 914,-1053.03 911.55,-1060.03 916.45,-1060.03"/>
</g>
<!-- S&#45;273 -->
<g id="node23" class="node">
<title>S&#45;273</title>
<polygon fill="mediumseagreen" stroke="black" points="929,-245 857,-223.5 929,-202 1001,-223.5 929,-245"/>
<text text-anchor="middle" x="929" y="-221" font-family="Arial" font-size="10.00">S&#45;273</text>
</g>
<!-- S&#45;275&#45;&gt;S&#45;273 -->
<g id="edge40" class="edge">
<title>S&#45;275&#45;&gt;S&#45;273</title>
<path fill="none" stroke="#4d4d4d" d="M929,-302.58C929,-302.58 929,-252.03 929,-252.03"/>
<polygon fill="#4d4d4d" stroke="#4d4d4d" points="931.45,-252.03 929,-245.03 926.55,-252.03 931.45,-252.03"/>
</g>
<!-- R&#45;112 -->
<g id="node15" class="node">
<title>R&#45;112</title>
<polygon fill="mediumseagreen" stroke="black" points="812,-618.59 812,-636.41 769.82,-649 710.18,-649 668,-636.41 668,-618.59 710.18,-606 769.82,-606 812,-618.59"/>
<text text-anchor="middle" x="740" y="-625" font-family="Arial" font-size="10.00">R&#45;112</text>
</g>
<!-- R&#45;112&#45;&gt;C&#45;0593 -->
<g id="edge11" class="edge">
<title>R&#45;112&#45;&gt;C&#45;0593</title>
<path fill="none" stroke="#4d4d4d" d="M672.5,-617.25C672.5,-588.98 672.5,-512 672.5,-512 672.5,-512 458.25,-512 458.25,-512"/>
<polygon fill="#4d4d4d" stroke="#4d4d4d" points="458.25,-509.55 451.25,-512 458.25,-514.45 458.25,-509.55"/>
</g>
<!-- C&#45;0594 -->
<g id="node17" class="node">
<title>C&#45;0594</title>
<ellipse fill="mediumseagreen" stroke="black" cx="914" cy="-728.5" rx="72" ry="21.5"/>
<text text-anchor="middle" x="914" y="-726" font-family="Arial" font-size="10.00">C&#45;0594</text>
</g>
<!-- C&#45;0594&#45;&gt;R&#45;112 -->
<g id="edge10" class="edge">
<title>C&#45;0594&#45;&gt;R&#45;112</title>
<path fill="none" stroke="#4d4d4d" d="M849.5,-718.77C849.5,-693.36 849.5,-627 849.5,-627 849.5,-627 819.12,-627 819.12,-627"/>
<polygon fill="#4d4d4d" stroke="#4d4d4d" points="819.12,-624.55 812.12,-627 819.12,-629.45 819.12,-624.55"/>
</g>
<!-- C&#45;0041 -->
<g id="node18" class="node">
<title>C&#45;0041</title>
<ellipse fill="tomato" stroke="black" cx="205" cy="-122.5" rx="72" ry="21.5"/>
<text text-anchor="middle" x="205" y="-120" font-family="Arial" font-size="10.00">C&#45;0041</text>
</g>
<!-- ext_circ_109_28_ -->
<g id="node44" class="node">
<title>ext_circ_109_28_</title>
<polygon fill="lightpink" stroke="darkorange" stroke-dasharray="5,2" points="367,-43 223,-43 223,0 367,0 367,-43"/>
<text text-anchor="middle" x="295" y="-24.5" font-family="Arial" font-size="10.00">Circuito:</text>
<text text-anchor="middle" x="295" y="-13.5" font-family="Arial" font-size="10.00">109&#45;28&#45;</text>
</g>
<!-- C&#45;0041&#45;&gt;ext_circ_109_28_ -->
<g id="edge45" class="edge">
<title>C&#45;0041&#45;&gt;ext_circ_109_28_</title>
<path fill="none" stroke="darkorange" stroke-dasharray="5,2" d="M250,-105.37C250,-105.37 250,-50.31 250,-50.31"/>
<polygon fill="darkorange" stroke="darkorange" points="252.45,-50.31 250,-43.31 247.55,-50.31 252.45,-50.31"/>
</g>
<!-- C&#45;0749 -->
<g id="node19" class="node">
<title>C&#45;0749</title>
<ellipse fill="mediumseagreen" stroke="black" cx="734" cy="-829.5" rx="72" ry="21.5"/>
<text text-anchor="middle" x="734" y="-827" font-family="Arial" font-size="10.00">C&#45;0749</text>
</g>
<!-- C&#45;0749&#45;&gt;C&#45;0595 -->
<g id="edge23" class="edge">
<title>C&#45;0749&#45;&gt;C&#45;0595</title>
<path fill="none" stroke="#4d4d4d" d="M665.01,-836C560.48,-836 374,-836 374,-836 374,-836 374,-757.25 374,-757.25"/>
<polygon fill="#4d4d4d" stroke="#4d4d4d" points="376.45,-757.25 374,-750.25 371.55,-757.25 376.45,-757.25"/>
</g>
<!-- C&#45;0749&#45;&gt;C&#45;0592 -->
<g id="edge8" class="edge">
<title>C&#45;0749&#45;&gt;C&#45;0592</title>
<path fill="none" stroke="#4d4d4d" d="M666.46,-822C615.39,-822 554,-822 554,-822 554,-822 554,-757.19 554,-757.19"/>
<polygon fill="#4d4d4d" stroke="#4d4d4d" points="556.45,-757.19 554,-750.19 551.55,-757.19 556.45,-757.19"/>
</g>
<!-- C&#45;0749&#45;&gt;S&#45;144 -->
<g id="edge42" class="edge">
<title>C&#45;0749&#45;&gt;S&#45;144</title>
<path fill="none" stroke="#4d4d4d" d="M710,-809.06C710,-809.06 710,-750.03 710,-750.03"/>
<polygon fill="#4d4d4d" stroke="#4d4d4d" points="712.45,-750.03 710,-743.03 707.55,-750.03 712.45,-750.03"/>
</g>
<!-- C&#45;0749&#45;&gt;C&#45;0594 -->
<g id="edge9" class="edge">
<title>C&#45;0749&#45;&gt;C&#45;0594</title>
<path fill="none" stroke="#4d4d4d" d="M806.32,-829C813.39,-829 818,-829 818,-829 818,-829 818,-728 818,-728 818,-728 834.73,-728 834.73,-728"/>
<polygon fill="#4d4d4d" stroke="#4d4d4d" points="834.73,-730.45 841.73,-728 834.73,-725.55 834.73,-730.45"/>
</g>
<!-- C&#45;0598 -->
<g id="node20" class="node">
<title>C&#45;0598</title>
<ellipse fill="mediumseagreen" stroke="black" cx="1131" cy="-728.5" rx="72" ry="21.5"/>
<text text-anchor="middle" x="1131" y="-726" font-family="Arial" font-size="10.00">C&#45;0598</text>
</g>
<!-- C&#45;0749&#45;&gt;C&#45;0598 -->
<g id="edge22" class="edge">
<title>C&#45;0749&#45;&gt;C&#45;0598</title>
<path fill="none" stroke="#4d4d4d" d="M758,-808.96C758,-794.98 758,-779 758,-779 758,-779 1067.5,-779 1067.5,-779 1067.5,-779 1067.5,-745.72 1067.5,-745.72"/>
<polygon fill="#4d4d4d" stroke="#4d4d4d" points="1069.95,-745.72 1067.5,-738.72 1065.05,-745.72 1069.95,-745.72"/>
</g>
<!-- R&#45;113 -->
<g id="node35" class="node">
<title>R&#45;113</title>
<polygon fill="mediumseagreen" stroke="black" points="1221,-618.59 1221,-636.41 1178.82,-649 1119.18,-649 1077,-636.41 1077,-618.59 1119.18,-606 1178.82,-606 1221,-618.59"/>
<text text-anchor="middle" x="1149" y="-625" font-family="Arial" font-size="10.00">R&#45;113</text>
</g>
<!-- C&#45;0598&#45;&gt;R&#45;113 -->
<g id="edge24" class="edge">
<title>C&#45;0598&#45;&gt;R&#45;113</title>
<path fill="none" stroke="#4d4d4d" d="M1140,-707.08C1140,-707.08 1140,-656.24 1140,-656.24"/>
<polygon fill="#4d4d4d" stroke="#4d4d4d" points="1142.45,-656.24 1140,-649.24 1137.55,-656.24 1142.45,-656.24"/>
</g>
<!-- S&#45;1616 -->
<g id="node21" class="node">
<title>S&#45;1616</title>
<polygon fill="mediumseagreen" stroke="black" points="914,-851 842,-829.5 914,-808 986,-829.5 914,-851"/>
<text text-anchor="middle" x="914" y="-827" font-family="Arial" font-size="10.00">S&#45;1616</text>
</g>
<!-- C&#45;0647 -->
<g id="node24" class="node">
<title>C&#45;0647</title>
<ellipse fill="mediumseagreen" stroke="black" cx="824" cy="-930.5" rx="72" ry="21.5"/>
<text text-anchor="middle" x="824" y="-928" font-family="Arial" font-size="10.00">C&#45;0647</text>
</g>
<!-- C&#45;0647&#45;&gt;C&#45;0749 -->
<g id="edge7" class="edge">
<title>C&#45;0647&#45;&gt;C&#45;0749</title>
<path fill="none" stroke="#4d4d4d" d="M779,-913.37C779,-913.37 779,-853.38 779,-853.38"/>
<polygon fill="#4d4d4d" stroke="#4d4d4d" points="781.45,-853.38 779,-846.38 776.55,-853.38 781.45,-853.38"/>
</g>
<!-- C&#45;0647&#45;&gt;S&#45;1616 -->
<g id="edge6" class="edge">
<title>C&#45;0647&#45;&gt;S&#45;1616</title>
<path fill="none" stroke="#4d4d4d" d="M869,-913.37C869,-913.37 869,-844.78 869,-844.78"/>
<polygon fill="#4d4d4d" stroke="#4d4d4d" points="871.45,-844.78 869,-837.78 866.55,-844.78 871.45,-844.78"/>
</g>
<!-- S&#45;1600 -->
<g id="node26" class="node">
<title>S&#45;1600</title>
<polygon fill="mediumseagreen" stroke="black" points="209,-447 137,-425.5 209,-404 281,-425.5 209,-447"/>
<text text-anchor="middle" x="209" y="-423" font-family="Arial" font-size="10.00">S&#45;1600</text>
</g>
<!-- S&#45;2501 -->
<g id="node31" class="node">
<title>S&#45;2501</title>
<polygon fill="mediumseagreen" stroke="black" points="72,-346 0,-324.5 72,-303 144,-324.5 72,-346"/>
<text text-anchor="middle" x="72" y="-322" font-family="Arial" font-size="10.00">S&#45;2501</text>
</g>
<!-- S&#45;1600&#45;&gt;S&#45;2501 -->
<g id="edge13" class="edge">
<title>S&#45;1600&#45;&gt;S&#45;2501</title>
<path fill="none" stroke="#4d4d4d" d="M140.5,-424.37C140.5,-424.37 140.5,-332.76 140.5,-332.76"/>
<polygon fill="#4d4d4d" stroke="#4d4d4d" points="142.95,-332.76 140.5,-325.76 138.05,-332.76 142.95,-332.76"/>
</g>
<!-- S&#45;1084 -->
<g id="node34" class="node">
<title>S&#45;1084</title>
<polygon fill="mediumseagreen" stroke="black" points="252,-346 180,-324.5 252,-303 324,-324.5 252,-346"/>
<text text-anchor="middle" x="252" y="-322" font-family="Arial" font-size="10.00">S&#45;1084</text>
</g>
<!-- S&#45;1600&#45;&gt;S&#45;1084 -->
<g id="edge15" class="edge">
<title>S&#45;1600&#45;&gt;S&#45;1084</title>
<path fill="none" stroke="#4d4d4d" d="M230.5,-410.16C230.5,-410.16 230.5,-346.65 230.5,-346.65"/>
<polygon fill="#4d4d4d" stroke="#4d4d4d" points="232.95,-346.65 230.5,-339.65 228.05,-346.65 232.95,-346.65"/>
</g>
<!-- ext_circ_114_25_ -->
<g id="node46" class="node">
<title>ext_circ_114_25_</title>
<polygon fill="lightpink" stroke="darkorange" stroke-dasharray="5,2" points="1361,-245 1217,-245 1217,-202 1361,-202 1361,-245"/>
<text text-anchor="middle" x="1289" y="-226.5" font-family="Arial" font-size="10.00">Circuito:</text>
<text text-anchor="middle" x="1289" y="-215.5" font-family="Arial" font-size="10.00">114&#45;25&#45;</text>
</g>
<!-- R&#45;075&#45;&gt;ext_circ_114_25_ -->
<g id="edge49" class="edge">
<title>R&#45;075&#45;&gt;ext_circ_114_25_</title>
<path fill="none" stroke="darkorange" stroke-dasharray="5,2" d="M1289,-302.58C1289,-302.58 1289,-252.03 1289,-252.03"/>
<polygon fill="darkorange" stroke="darkorange" points="1291.45,-252.03 1289,-245.03 1286.55,-252.03 1291.45,-252.03"/>
</g>
<!-- C&#45;0593&#45;&gt;S&#45;1600 -->
<g id="edge12" class="edge">
<title>C&#45;0593&#45;&gt;S&#45;1600</title>
<path fill="none" stroke="#4d4d4d" d="M326.01,-526C272.6,-526 209,-526 209,-526 209,-526 209,-454.31 209,-454.31"/>
<polygon fill="#4d4d4d" stroke="#4d4d4d" points="211.45,-454.31 209,-447.31 206.55,-454.31 211.45,-454.31"/>
</g>
<!-- C&#45;0194 -->
<g id="node32" class="node">
<title>C&#45;0194</title>
<ellipse fill="tomato" stroke="black" cx="389" cy="-425.5" rx="72" ry="21.5"/>
<text text-anchor="middle" x="389" y="-423" font-family="Arial" font-size="10.00">C&#45;0194</text>
</g>
<!-- C&#45;0593&#45;&gt;C&#45;0194 -->
<g id="edge21" class="edge">
<title>C&#45;0593&#45;&gt;C&#45;0194</title>
<path fill="none" stroke="#4d4d4d" d="M393.5,-504.58C393.5,-504.58 393.5,-454.03 393.5,-454.03"/>
<polygon fill="#4d4d4d" stroke="#4d4d4d" points="395.95,-454.03 393.5,-447.03 391.05,-454.03 395.95,-454.03"/>
</g>
<!-- C&#45;1133 -->
<g id="node40" class="node">
<title>C&#45;1133</title>
<ellipse fill="mediumseagreen" stroke="black" cx="569" cy="-425.5" rx="72" ry="21.5"/>
<text text-anchor="middle" x="569" y="-423" font-family="Arial" font-size="10.00">C&#45;1133</text>
</g>
<!-- C&#45;0593&#45;&gt;C&#45;1133 -->
<g id="edge19" class="edge">
<title>C&#45;0593&#45;&gt;C&#45;1133</title>
<path fill="none" stroke="#4d4d4d" d="M465.5,-518.87C465.5,-495.27 465.5,-425 465.5,-425 465.5,-425 489.83,-425 489.83,-425"/>
<polygon fill="#4d4d4d" stroke="#4d4d4d" points="489.83,-427.45 496.83,-425 489.83,-422.55 489.83,-427.45"/>
</g>
<!-- C&#45;0451&#45;&gt;C&#45;0647 -->
<g id="edge5" class="edge">
<title>C&#45;0451&#45;&gt;C&#45;0647</title>
<path fill="none" stroke="#4d4d4d" d="M869,-1014.37C869,-1014.37 869,-954.38 869,-954.38"/>
<polygon fill="#4d4d4d" stroke="#4d4d4d" points="871.45,-954.38 869,-947.38 866.55,-954.38 871.45,-954.38"/>
</g>
<!-- S&#45;1709 -->
<g id="node39" class="node">
<title>S&#45;1709</title>
<polygon fill="mediumseagreen" stroke="black" points="1004,-952 932,-930.5 1004,-909 1076,-930.5 1004,-952"/>
<text text-anchor="middle" x="1004" y="-928" font-family="Arial" font-size="10.00">S&#45;1709</text>
</g>
<!-- C&#45;0451&#45;&gt;S&#45;1709 -->
<g id="edge4" class="edge">
<title>C&#45;0451&#45;&gt;S&#45;1709</title>
<path fill="none" stroke="#4d4d4d" d="M959,-1014.37C959,-1014.37 959,-945.78 959,-945.78"/>
<polygon fill="#4d4d4d" stroke="#4d4d4d" points="961.45,-945.78 959,-938.78 956.55,-945.78 961.45,-945.78"/>
</g>
<!-- R&#45;284 -->
<g id="node30" class="node">
<title>R&#45;284</title>
<polygon fill="tomato" stroke="black" points="627,-315.59 627,-333.41 584.82,-346 525.18,-346 483,-333.41 483,-315.59 525.18,-303 584.82,-303 627,-315.59"/>
<text text-anchor="middle" x="555" y="-322" font-family="Arial" font-size="10.00">R&#45;284</text>
</g>
<!-- ext_circ_111_22_ -->
<g id="node45" class="node">
<title>ext_circ_111_22_</title>
<polygon fill="lightpink" stroke="darkorange" stroke-dasharray="5,2" points="624,-245 480,-245 480,-202 624,-202 624,-245"/>
<text text-anchor="middle" x="552" y="-226.5" font-family="Arial" font-size="10.00">Circuito:</text>
<text text-anchor="middle" x="552" y="-215.5" font-family="Arial" font-size="10.00">111&#45;22&#45;</text>
</g>
<!-- R&#45;284&#45;&gt;ext_circ_111_22_ -->
<g id="edge46" class="edge">
<title>R&#45;284&#45;&gt;ext_circ_111_22_</title>
<path fill="none" stroke="darkorange" stroke-dasharray="5,2" d="M553.5,-302.58C553.5,-302.58 553.5,-252.03 553.5,-252.03"/>
<polygon fill="darkorange" stroke="darkorange" points="555.95,-252.03 553.5,-245.03 551.05,-252.03 555.95,-252.03"/>
</g>
<!-- S&#45;1599 -->
<g id="node41" class="node">
<title>S&#45;1599</title>
<polygon fill="mediumseagreen" stroke="black" points="72,-245 0,-223.5 72,-202 144,-223.5 72,-245"/>
<text text-anchor="middle" x="72" y="-221" font-family="Arial" font-size="10.00">S&#45;1599</text>
</g>
<!-- S&#45;2501&#45;&gt;S&#45;1599 -->
<g id="edge14" class="edge">
<title>S&#45;2501&#45;&gt;S&#45;1599</title>
<path fill="none" stroke="#4d4d4d" d="M72,-302.58C72,-302.58 72,-252.03 72,-252.03"/>
<polygon fill="#4d4d4d" stroke="#4d4d4d" points="74.45,-252.03 72,-245.03 69.55,-252.03 74.45,-252.03"/>
</g>
<!-- C&#45;0194&#45;&gt;ext_circ_111_22_ -->
<g id="edge47" class="edge">
<title>C&#45;0194&#45;&gt;ext_circ_111_22_</title>
<path fill="none" stroke="darkorange" stroke-dasharray="5,2" d="M447,-412.52C447,-367.83 447,-223 447,-223 447,-223 472.93,-223 472.93,-223"/>
<polygon fill="darkorange" stroke="darkorange" points="472.93,-225.45 479.93,-223 472.93,-220.55 472.93,-225.45"/>
</g>
<!-- S&#45;1084&#45;&gt;C&#45;0041 -->
<g id="edge18" class="edge">
<title>S&#45;1084&#45;&gt;C&#45;0041</title>
<path fill="none" stroke="#4d4d4d" d="M228.5,-309.97C228.5,-309.97 228.5,-150.04 228.5,-150.04"/>
<polygon fill="#4d4d4d" stroke="#4d4d4d" points="230.95,-150.04 228.5,-143.04 226.05,-150.04 230.95,-150.04"/>
</g>
<!-- C&#45;0955 -->
<g id="node43" class="node">
<title>C&#45;0955</title>
<ellipse fill="mediumseagreen" stroke="black" cx="365" cy="-223.5" rx="72" ry="21.5"/>
<text text-anchor="middle" x="365" y="-221" font-family="Arial" font-size="10.00">C&#45;0955</text>
</g>
<!-- S&#45;1084&#45;&gt;C&#45;0955 -->
<g id="edge16" class="edge">
<title>S&#45;1084&#45;&gt;C&#45;0955</title>
<path fill="none" stroke="#4d4d4d" d="M308.5,-319.63C308.5,-319.63 308.5,-244.11 308.5,-244.11"/>
<polygon fill="#4d4d4d" stroke="#4d4d4d" points="310.95,-244.11 308.5,-237.11 306.05,-244.11 310.95,-244.11"/>
</g>
<!-- R&#45;113&#45;&gt;C&#45;0599 -->
<g id="edge25" class="edge">
<title>R&#45;113&#45;&gt;C&#45;0599</title>
<path fill="none" stroke="#4d4d4d" d="M1174,-605.58C1174,-605.58 1174,-554 1174,-554"/>
<polygon fill="#4d4d4d" stroke="#4d4d4d" points="1176.45,-554 1174,-547 1171.55,-554 1176.45,-554"/>
</g>
<!-- R&#45;225 -->
<g id="node37" class="node">
<title>R&#45;225</title>
<polygon fill="tomato" stroke="black" points="457,-113.59 457,-131.41 414.82,-144 355.18,-144 313,-131.41 313,-113.59 355.18,-101 414.82,-101 457,-113.59"/>
<text text-anchor="middle" x="385" y="-120" font-family="Arial" font-size="10.00">R&#45;225</text>
</g>
<!-- R&#45;225&#45;&gt;ext_circ_109_28_ -->
<g id="edge44" class="edge">
<title>R&#45;225&#45;&gt;ext_circ_109_28_</title>
<path fill="none" stroke="darkorange" stroke-dasharray="5,2" d="M340,-105.37C340,-105.37 340,-50.31 340,-50.31"/>
<polygon fill="darkorange" stroke="darkorange" points="342.45,-50.31 340,-43.31 337.55,-50.31 342.45,-50.31"/>
</g>
<!-- C&#45;0177&#45;&gt;S&#45;140 -->
<g id="edge2" class="edge">
<title>C&#45;0177&#45;&gt;S&#45;140</title>
<path fill="none" stroke="#4d4d4d" d="M914,-1211.58C914,-1211.58 914,-1161.03 914,-1161.03"/>
<polygon fill="#4d4d4d" stroke="#4d4d4d" points="916.45,-1161.03 914,-1154.03 911.55,-1161.03 916.45,-1161.03"/>
</g>
<!-- C&#45;1133&#45;&gt;R&#45;284 -->
<g id="edge20" class="edge">
<title>C&#45;1133&#45;&gt;R&#45;284</title>
<path fill="none" stroke="#4d4d4d" d="M562,-404.08C562,-404.08 562,-353.24 562,-353.24"/>
<polygon fill="#4d4d4d" stroke="#4d4d4d" points="564.45,-353.24 562,-346.24 559.55,-353.24 564.45,-353.24"/>
</g>
<!-- C&#45;0955&#45;&gt;R&#45;225 -->
<g id="edge17" class="edge">
<title>C&#45;0955&#45;&gt;R&#45;225</title>
<path fill="none" stroke="#4d4d4d" d="M375,-202.08C375,-202.08 375,-151.24 375,-151.24"/>
<polygon fill="#4d4d4d" stroke="#4d4d4d" points="377.45,-151.24 375,-144.24 372.55,-151.24 377.45,-151.24"/>
</g>
</g>
</svg>
