<?xml version="1.0" encoding="UTF-8" standalone="no"?>
<!DOCTYPE svg PUBLIC "-//W3C//DTD SVG 1.1//EN"
 "http://www.w3.org/Graphics/SVG/1.1/DTD/svg11.dtd">
<!-- Generated by graphviz version 2.50.0 (0)
 -->
<!-- Title: Grafo_Circuito_110_32 Pages: 1 -->
<svg width="491pt" height="616pt"
 viewBox="0.00 0.00 491.00 616.00" xmlns="http://www.w3.org/2000/svg" xmlns:xlink="http://www.w3.org/1999/xlink">
<g id="graph0" class="graph" transform="scale(1 1) rotate(0) translate(4 612)">
<title>Grafo_Circuito_110_32</title>
<polygon fill="white" stroke="transparent" points="-4,4 -4,-612 487,-612 487,4 -4,4"/>
<!-- C&#45;0267 -->
<g id="node1" class="node">
<title>C&#45;0267</title>
<ellipse fill="mediumseagreen" stroke="black" cx="241.5" cy="-18" rx="68.5" ry="18"/>
<text text-anchor="middle" x="241.5" y="-16.1" font-family="Helvetica,sans-Serif" font-size="8.00">C&#45;0267</text>
</g>
<!-- C&#45;0094 -->
<g id="node2" class="node">
<title>C&#45;0094</title>
<ellipse fill="mediumseagreen" stroke="black" cx="241.5" cy="-488" rx="68.5" ry="18"/>
<text text-anchor="middle" x="241.5" y="-486.1" font-family="Helvetica,sans-Serif" font-size="8.00">C&#45;0094</text>
</g>
<!-- C&#45;0046 -->
<g id="node10" class="node">
<title>C&#45;0046</title>
<ellipse fill="mediumseagreen" stroke="black" cx="241.5" cy="-394" rx="68.5" ry="18"/>
<text text-anchor="middle" x="241.5" y="-392.1" font-family="Helvetica,sans-Serif" font-size="8.00">C&#45;0046</text>
</g>
<!-- C&#45;0094&#45;&gt;C&#45;0046 -->
<g id="edge2" class="edge">
<title>C&#45;0094&#45;&gt;C&#45;0046</title>
<path fill="none" stroke="dimgray" stroke-width="0.8" d="M241.5,-469.88C241.5,-469.88 241.5,-419.07 241.5,-419.07"/>
<polygon fill="dimgray" stroke="dimgray" stroke-width="0.8" points="243.95,-419.07 241.5,-412.07 239.05,-419.07 243.95,-419.07"/>
</g>
<!-- C&#45;0424 -->
<g id="node3" class="node">
<title>C&#45;0424</title>
<ellipse fill="mediumseagreen" stroke="black" cx="414.5" cy="-206" rx="68.5" ry="18"/>
<text text-anchor="middle" x="414.5" y="-204.1" font-family="Helvetica,sans-Serif" font-size="8.00">C&#45;0424</text>
</g>
<!-- C&#45;0474 -->
<g id="node4" class="node">
<title>C&#45;0474</title>
<ellipse fill="tomato" stroke="black" cx="68.5" cy="-300" rx="68.5" ry="18"/>
<text text-anchor="middle" x="68.5" y="-298.1" font-family="Helvetica,sans-Serif" font-size="8.00">C&#45;0474</text>
</g>
<!-- C&#45;0473 -->
<g id="node8" class="node">
<title>C&#45;0473</title>
<ellipse fill="mediumseagreen" stroke="black" cx="241.5" cy="-112" rx="68.5" ry="18"/>
<text text-anchor="middle" x="241.5" y="-110.1" font-family="Helvetica,sans-Serif" font-size="8.00">C&#45;0473</text>
</g>
<!-- C&#45;0474&#45;&gt;C&#45;0473 -->
<g id="edge10" class="edge">
<title>C&#45;0474&#45;&gt;C&#45;0473</title>
<path fill="none" stroke="blue" stroke-width="0.8" stroke-dasharray="5,2" d="M68.5,-281.97C68.5,-234.92 68.5,-112 68.5,-112 68.5,-112 165.63,-112 165.63,-112"/>
<polygon fill="blue" stroke="blue" stroke-width="0.8" points="165.63,-114.45 172.63,-112 165.63,-109.55 165.63,-114.45"/>
</g>
<!-- C&#45;0475 -->
<g id="node5" class="node">
<title>C&#45;0475</title>
<ellipse fill="mediumseagreen" stroke="black" cx="241.5" cy="-300" rx="68.5" ry="18"/>
<text text-anchor="middle" x="241.5" y="-298.1" font-family="Helvetica,sans-Serif" font-size="8.00">C&#45;0475</text>
</g>
<!-- R&#45;146 -->
<g id="node7" class="node">
<title>R&#45;146</title>
<polygon fill="mediumseagreen" stroke="black" points="310,-198.54 310,-213.46 269.87,-224 213.13,-224 173,-213.46 173,-198.54 213.13,-188 269.87,-188 310,-198.54"/>
<text text-anchor="middle" x="241.5" y="-204.1" font-family="Helvetica,sans-Serif" font-size="8.00">R&#45;146</text>
</g>
<!-- C&#45;0475&#45;&gt;R&#45;146 -->
<g id="edge5" class="edge">
<title>C&#45;0475&#45;&gt;R&#45;146</title>
<path fill="none" stroke="dimgray" stroke-width="0.8" d="M241.5,-281.88C241.5,-281.88 241.5,-231.07 241.5,-231.07"/>
<polygon fill="dimgray" stroke="dimgray" stroke-width="0.8" points="243.95,-231.07 241.5,-224.07 239.05,-231.07 243.95,-231.07"/>
</g>
<!-- 110&#45;32 -->
<g id="node6" class="node">
<title>110&#45;32</title>
<polygon fill="gold" stroke="black" points="310,-578.54 310,-593.46 269.87,-604 213.13,-604 173,-593.46 173,-578.54 213.13,-568 269.87,-568 310,-578.54"/>
<polygon fill="none" stroke="black" points="314,-575.46 314,-596.54 270.39,-608 212.61,-608 169,-596.54 169,-575.46 212.61,-564 270.39,-564 314,-575.46"/>
<text text-anchor="middle" x="241.5" y="-584.1" font-family="Helvetica,sans-Serif" font-size="8.00">110&#45;32</text>
</g>
<!-- 110&#45;32&#45;&gt;C&#45;0094 -->
<g id="edge1" class="edge">
<title>110&#45;32&#45;&gt;C&#45;0094</title>
<path fill="none" stroke="dimgray" stroke-width="0.8" d="M241.5,-563.76C241.5,-563.76 241.5,-513.21 241.5,-513.21"/>
<polygon fill="dimgray" stroke="dimgray" stroke-width="0.8" points="243.95,-513.21 241.5,-506.21 239.05,-513.21 243.95,-513.21"/>
</g>
<!-- R&#45;146&#45;&gt;C&#45;0473 -->
<g id="edge6" class="edge">
<title>R&#45;146&#45;&gt;C&#45;0473</title>
<path fill="none" stroke="dimgray" stroke-width="0.8" d="M241.5,-187.88C241.5,-187.88 241.5,-137.07 241.5,-137.07"/>
<polygon fill="dimgray" stroke="dimgray" stroke-width="0.8" points="243.95,-137.07 241.5,-130.07 239.05,-137.07 243.95,-137.07"/>
</g>
<!-- C&#45;0473&#45;&gt;C&#45;0267 -->
<g id="edge7" class="edge">
<title>C&#45;0473&#45;&gt;C&#45;0267</title>
<path fill="none" stroke="dimgray" stroke-width="0.8" d="M241.5,-93.88C241.5,-93.88 241.5,-43.07 241.5,-43.07"/>
<polygon fill="dimgray" stroke="dimgray" stroke-width="0.8" points="243.95,-43.07 241.5,-36.07 239.05,-43.07 243.95,-43.07"/>
</g>
<!-- C&#45;0088 -->
<g id="node9" class="node">
<title>C&#45;0088</title>
<ellipse fill="mediumseagreen" stroke="black" cx="414.5" cy="-300" rx="68.5" ry="18"/>
<text text-anchor="middle" x="414.5" y="-298.1" font-family="Helvetica,sans-Serif" font-size="8.00">C&#45;0088</text>
</g>
<!-- C&#45;0088&#45;&gt;C&#45;0424 -->
<g id="edge9" class="edge">
<title>C&#45;0088&#45;&gt;C&#45;0424</title>
<path fill="none" stroke="dimgray" stroke-width="0.8" d="M414.5,-281.88C414.5,-281.88 414.5,-231.07 414.5,-231.07"/>
<polygon fill="dimgray" stroke="dimgray" stroke-width="0.8" points="416.95,-231.07 414.5,-224.07 412.05,-231.07 416.95,-231.07"/>
</g>
<!-- C&#45;0046&#45;&gt;C&#45;0474 -->
<g id="edge3" class="edge">
<title>C&#45;0046&#45;&gt;C&#45;0474</title>
<path fill="none" stroke="dimgray" stroke-width="0.8" d="M172.63,-394C124.38,-394 68.5,-394 68.5,-394 68.5,-394 68.5,-325.12 68.5,-325.12"/>
<polygon fill="dimgray" stroke="dimgray" stroke-width="0.8" points="70.95,-325.12 68.5,-318.12 66.05,-325.12 70.95,-325.12"/>
</g>
<!-- C&#45;0046&#45;&gt;C&#45;0475 -->
<g id="edge4" class="edge">
<title>C&#45;0046&#45;&gt;C&#45;0475</title>
<path fill="none" stroke="dimgray" stroke-width="0.8" d="M241.5,-375.88C241.5,-375.88 241.5,-325.07 241.5,-325.07"/>
<polygon fill="dimgray" stroke="dimgray" stroke-width="0.8" points="243.95,-325.07 241.5,-318.07 239.05,-325.07 243.95,-325.07"/>
</g>
<!-- C&#45;0046&#45;&gt;C&#45;0088 -->
<g id="edge8" class="edge">
<title>C&#45;0046&#45;&gt;C&#45;0088</title>
<path fill="none" stroke="dimgray" stroke-width="0.8" d="M310.37,-394C358.62,-394 414.5,-394 414.5,-394 414.5,-394 414.5,-325.12 414.5,-325.12"/>
<polygon fill="dimgray" stroke="dimgray" stroke-width="0.8" points="416.95,-325.12 414.5,-318.12 412.05,-325.12 416.95,-325.12"/>
</g>
</g>
</svg>
