<?xml version="1.0" encoding="UTF-8" standalone="no"?>
<!DOCTYPE svg PUBLIC "-//W3C//DTD SVG 1.1//EN"
 "http://www.w3.org/Graphics/SVG/1.1/DTD/svg11.dtd">
<!-- Generated by graphviz version 2.50.0 (0)
 -->
<!-- Title: Grafo_Circuito_114_25_ Pages: 1 -->
<svg width="1525pt" height="1170pt"
 viewBox="0.00 0.00 1525.00 1170.00" xmlns="http://www.w3.org/2000/svg" xmlns:xlink="http://www.w3.org/1999/xlink">
<g id="graph0" class="graph" transform="scale(1 1) rotate(0) translate(4 1166)">
<title>Grafo_Circuito_114_25_</title>
<polygon fill="white" stroke="transparent" points="-4,4 -4,-1166 1521,-1166 1521,4 -4,4"/>
<!-- S&#45;633 -->
<g id="node1" class="node">
<title>S&#45;633</title>
<polygon fill="mediumseagreen" stroke="black" points="1085,-447 1013,-425.5 1085,-404 1157,-425.5 1085,-447"/>
<text text-anchor="middle" x="1085" y="-423" font-family="Arial" font-size="10.00">S&#45;633</text>
</g>
<!-- S&#45;1766 -->
<g id="node2" class="node">
<title>S&#45;1766</title>
<polygon fill="mediumseagreen" stroke="black" points="1445,-447 1373,-425.5 1445,-404 1517,-425.5 1445,-447"/>
<text text-anchor="middle" x="1445" y="-423" font-family="Arial" font-size="10.00">S&#45;1766</text>
</g>
<!-- R&#45;070 -->
<g id="node3" class="node">
<title>R&#45;070</title>
<polygon fill="mediumseagreen" stroke="black" points="1099,-719.59 1099,-737.41 1056.82,-750 997.18,-750 955,-737.41 955,-719.59 997.18,-707 1056.82,-707 1099,-719.59"/>
<text text-anchor="middle" x="1027" y="-726" font-family="Arial" font-size="10.00">R&#45;070</text>
</g>
<!-- S&#45;635 -->
<g id="node24" class="node">
<title>S&#45;635</title>
<polygon fill="mediumseagreen" stroke="black" points="1085,-649 1013,-627.5 1085,-606 1157,-627.5 1085,-649"/>
<text text-anchor="middle" x="1085" y="-625" font-family="Arial" font-size="10.00">S&#45;635</text>
</g>
<!-- R&#45;070&#45;&gt;S&#45;635 -->
<g id="edge16" class="edge">
<title>R&#45;070&#45;&gt;S&#45;635</title>
<path fill="none" stroke="#4d4d4d" d="M1056,-706.58C1056,-706.58 1056,-647.43 1056,-647.43"/>
<polygon fill="#4d4d4d" stroke="#4d4d4d" points="1058.45,-647.43 1056,-640.43 1053.55,-647.43 1058.45,-647.43"/>
</g>
<!-- S&#45;634 -->
<g id="node4" class="node">
<title>S&#45;634</title>
<polygon fill="mediumseagreen" stroke="black" points="1265,-447 1193,-425.5 1265,-404 1337,-425.5 1265,-447"/>
<text text-anchor="middle" x="1265" y="-423" font-family="Arial" font-size="10.00">S&#45;634</text>
</g>
<!-- C&#45;0646 -->
<g id="node5" class="node">
<title>C&#45;0646</title>
<ellipse fill="mediumseagreen" stroke="black" cx="892" cy="-829.5" rx="72" ry="21.5"/>
<text text-anchor="middle" x="892" y="-827" font-family="Arial" font-size="10.00">C&#45;0646</text>
</g>
<!-- C&#45;0646&#45;&gt;R&#45;070 -->
<g id="edge15" class="edge">
<title>C&#45;0646&#45;&gt;R&#45;070</title>
<path fill="none" stroke="#4d4d4d" d="M959.5,-821.91C959.5,-821.91 959.5,-745.84 959.5,-745.84"/>
<polygon fill="#4d4d4d" stroke="#4d4d4d" points="961.95,-745.84 959.5,-738.84 957.05,-745.84 961.95,-745.84"/>
</g>
<!-- S&#45;707 -->
<g id="node12" class="node">
<title>S&#45;707</title>
<polygon fill="mediumseagreen" stroke="black" points="802,-750 730,-728.5 802,-707 874,-728.5 802,-750"/>
<text text-anchor="middle" x="802" y="-726" font-family="Arial" font-size="10.00">S&#45;707</text>
</g>
<!-- C&#45;0646&#45;&gt;S&#45;707 -->
<g id="edge6" class="edge">
<title>C&#45;0646&#45;&gt;S&#45;707</title>
<path fill="none" stroke="#4d4d4d" d="M847,-812.37C847,-812.37 847,-743.78 847,-743.78"/>
<polygon fill="#4d4d4d" stroke="#4d4d4d" points="849.45,-743.78 847,-736.78 844.55,-743.78 849.45,-743.78"/>
</g>
<!-- C&#45;0166 -->
<g id="node6" class="node">
<title>C&#45;0166</title>
<ellipse fill="tomato" stroke="black" cx="252" cy="-526.5" rx="72" ry="21.5"/>
<text text-anchor="middle" x="252" y="-524" font-family="Arial" font-size="10.00">C&#45;0166</text>
</g>
<!-- ext_circ_303_25_ -->
<g id="node33" class="node">
<title>ext_circ_303_25_</title>
<polygon fill="lightpink" stroke="darkorange" stroke-dasharray="5,2" points="903,-1158 759,-1158 759,-1115 903,-1115 903,-1158"/>
<text text-anchor="middle" x="831" y="-1139.5" font-family="Arial" font-size="10.00">Circuito:</text>
<text text-anchor="middle" x="831" y="-1128.5" font-family="Arial" font-size="10.00">303&#45;25&#45;</text>
</g>
<!-- C&#45;0166&#45;&gt;ext_circ_303_25_ -->
<g id="edge32" class="edge">
<title>C&#45;0166&#45;&gt;ext_circ_303_25_</title>
<path fill="none" stroke="darkorange" stroke-dasharray="5,2" d="M228,-547.02C228,-608.67 228,-788 228,-788 228,-788 779.33,-788 779.33,-788 779.33,-788 779.33,-1107.96 779.33,-1107.96"/>
<polygon fill="darkorange" stroke="darkorange" points="776.88,-1107.96 779.33,-1114.96 781.78,-1107.96 776.88,-1107.96"/>
</g>
<!-- C&#45;0832 -->
<g id="node7" class="node">
<title>C&#45;0832</title>
<ellipse fill="mediumseagreen" stroke="black" cx="905" cy="-526.5" rx="72" ry="21.5"/>
<text text-anchor="middle" x="905" y="-524" font-family="Arial" font-size="10.00">C&#45;0832</text>
</g>
<!-- C&#45;0832&#45;&gt;S&#45;633 -->
<g id="edge30" class="edge">
<title>C&#45;0832&#45;&gt;S&#45;633</title>
<path fill="none" stroke="#4d4d4d" d="M977.22,-526C987.68,-526 995,-526 995,-526 995,-526 995,-425 995,-425 995,-425 1007.53,-425 1007.53,-425"/>
<polygon fill="#4d4d4d" stroke="#4d4d4d" points="1007.53,-427.45 1014.53,-425 1007.53,-422.55 1007.53,-427.45"/>
</g>
<!-- C&#45;0832&#45;&gt;S&#45;634 -->
<g id="edge29" class="edge">
<title>C&#45;0832&#45;&gt;S&#45;634</title>
<path fill="none" stroke="#4d4d4d" d="M941,-507.55C941,-488.21 941,-461 941,-461 941,-461 1265,-461 1265,-461 1265,-461 1265,-454.38 1265,-454.38"/>
<polygon fill="#4d4d4d" stroke="#4d4d4d" points="1267.45,-454.38 1265,-447.38 1262.55,-454.38 1267.45,-454.38"/>
</g>
<!-- S&#45;632 -->
<g id="node27" class="node">
<title>S&#45;632</title>
<polygon fill="mediumseagreen" stroke="black" points="545,-447 473,-425.5 545,-404 617,-425.5 545,-447"/>
<text text-anchor="middle" x="545" y="-423" font-family="Arial" font-size="10.00">S&#45;632</text>
</g>
<!-- C&#45;0832&#45;&gt;S&#45;632 -->
<g id="edge31" class="edge">
<title>C&#45;0832&#45;&gt;S&#45;632</title>
<path fill="none" stroke="#4d4d4d" d="M869,-507.7C869,-493.34 869,-476 869,-476 869,-476 613,-476 613,-476 613,-476 613,-433.75 613,-433.75"/>
<polygon fill="#4d4d4d" stroke="#4d4d4d" points="615.45,-433.75 613,-426.75 610.55,-433.75 615.45,-433.75"/>
</g>
<!-- C&#45;0572 -->
<g id="node28" class="node">
<title>C&#45;0572</title>
<ellipse fill="mediumseagreen" stroke="black" cx="725" cy="-425.5" rx="72" ry="21.5"/>
<text text-anchor="middle" x="725" y="-423" font-family="Arial" font-size="10.00">C&#45;0572</text>
</g>
<!-- C&#45;0832&#45;&gt;C&#45;0572 -->
<g id="edge22" class="edge">
<title>C&#45;0832&#45;&gt;C&#45;0572</title>
<path fill="none" stroke="#4d4d4d" d="M832.81,-526C809.95,-526 790.5,-526 790.5,-526 790.5,-526 790.5,-441.77 790.5,-441.77"/>
<polygon fill="#4d4d4d" stroke="#4d4d4d" points="792.95,-441.77 790.5,-434.77 788.05,-441.77 792.95,-441.77"/>
</g>
<!-- C&#45;0571 -->
<g id="node29" class="node">
<title>C&#45;0571</title>
<ellipse fill="tomato" stroke="black" cx="905" cy="-425.5" rx="72" ry="21.5"/>
<text text-anchor="middle" x="905" y="-423" font-family="Arial" font-size="10.00">C&#45;0571</text>
</g>
<!-- C&#45;0832&#45;&gt;C&#45;0571 -->
<g id="edge23" class="edge">
<title>C&#45;0832&#45;&gt;C&#45;0571</title>
<path fill="none" stroke="#4d4d4d" d="M905,-504.58C905,-504.58 905,-454.03 905,-454.03"/>
<polygon fill="#4d4d4d" stroke="#4d4d4d" points="907.45,-454.03 905,-447.03 902.55,-454.03 907.45,-454.03"/>
</g>
<!-- S&#45;1711 -->
<g id="node8" class="node">
<title>S&#45;1711</title>
<polygon fill="mediumseagreen" stroke="black" points="635,-43 563,-21.5 635,0 707,-21.5 635,-43"/>
<text text-anchor="middle" x="635" y="-19" font-family="Arial" font-size="10.00">S&#45;1711</text>
</g>
<!-- C&#45;1128 -->
<g id="node9" class="node">
<title>C&#45;1128</title>
<ellipse fill="mediumseagreen" stroke="black" cx="506" cy="-526.5" rx="72" ry="21.5"/>
<text text-anchor="middle" x="506" y="-524" font-family="Arial" font-size="10.00">C&#45;1128</text>
</g>
<!-- R&#45;282 -->
<g id="node16" class="node">
<title>R&#45;282</title>
<polygon fill="tomato" stroke="black" points="437,-416.59 437,-434.41 394.82,-447 335.18,-447 293,-434.41 293,-416.59 335.18,-404 394.82,-404 437,-416.59"/>
<text text-anchor="middle" x="365" y="-423" font-family="Arial" font-size="10.00">R&#45;282</text>
</g>
<!-- C&#45;1128&#45;&gt;R&#45;282 -->
<g id="edge12" class="edge">
<title>C&#45;1128&#45;&gt;R&#45;282</title>
<path fill="none" stroke="#4d4d4d" d="M455,-511.08C455,-482.69 455,-425 455,-425 455,-425 444.22,-425 444.22,-425"/>
<polygon fill="#4d4d4d" stroke="#4d4d4d" points="444.22,-422.55 437.22,-425 444.22,-427.45 444.22,-422.55"/>
</g>
<!-- C&#45;0178 -->
<g id="node10" class="node">
<title>C&#45;0178</title>
<ellipse fill="mediumseagreen" stroke="black" cx="1072" cy="-1031.5" rx="72" ry="21.5"/>
<text text-anchor="middle" x="1072" y="-1029" font-family="Arial" font-size="10.00">C&#45;0178</text>
</g>
<!-- S&#45;233 -->
<g id="node15" class="node">
<title>S&#45;233</title>
<polygon fill="mediumseagreen" stroke="black" points="1072,-952 1000,-930.5 1072,-909 1144,-930.5 1072,-952"/>
<text text-anchor="middle" x="1072" y="-928" font-family="Arial" font-size="10.00">S&#45;233</text>
</g>
<!-- C&#45;0178&#45;&gt;S&#45;233 -->
<g id="edge2" class="edge">
<title>C&#45;0178&#45;&gt;S&#45;233</title>
<path fill="none" stroke="#4d4d4d" d="M1072,-1009.58C1072,-1009.58 1072,-959.03 1072,-959.03"/>
<polygon fill="#4d4d4d" stroke="#4d4d4d" points="1074.45,-959.03 1072,-952.03 1069.55,-959.03 1074.45,-959.03"/>
</g>
<!-- C&#45;0573 -->
<g id="node11" class="node">
<title>C&#45;0573</title>
<ellipse fill="mediumseagreen" stroke="black" cx="725" cy="-223.5" rx="72" ry="21.5"/>
<text text-anchor="middle" x="725" y="-221" font-family="Arial" font-size="10.00">C&#45;0573</text>
</g>
<!-- S&#45;637 -->
<g id="node19" class="node">
<title>S&#45;637</title>
<polygon fill="mediumseagreen" stroke="black" points="635,-144 563,-122.5 635,-101 707,-122.5 635,-144"/>
<text text-anchor="middle" x="635" y="-120" font-family="Arial" font-size="10.00">S&#45;637</text>
</g>
<!-- C&#45;0573&#45;&gt;S&#45;637 -->
<g id="edge26" class="edge">
<title>C&#45;0573&#45;&gt;S&#45;637</title>
<path fill="none" stroke="#4d4d4d" d="M671,-209.03C671,-209.03 671,-140.52 671,-140.52"/>
<polygon fill="#4d4d4d" stroke="#4d4d4d" points="673.45,-140.52 671,-133.52 668.55,-140.52 673.45,-140.52"/>
</g>
<!-- S&#45;648 -->
<g id="node20" class="node">
<title>S&#45;648</title>
<polygon fill="mediumseagreen" stroke="black" points="815,-144 743,-122.5 815,-101 887,-122.5 815,-144"/>
<text text-anchor="middle" x="815" y="-120" font-family="Arial" font-size="10.00">S&#45;648</text>
</g>
<!-- C&#45;0573&#45;&gt;S&#45;648 -->
<g id="edge28" class="edge">
<title>C&#45;0573&#45;&gt;S&#45;648</title>
<path fill="none" stroke="#4d4d4d" d="M770,-206.37C770,-206.37 770,-137.78 770,-137.78"/>
<polygon fill="#4d4d4d" stroke="#4d4d4d" points="772.45,-137.78 770,-130.78 767.55,-137.78 772.45,-137.78"/>
</g>
<!-- S&#45;932 -->
<g id="node13" class="node">
<title>S&#45;932</title>
<polygon fill="mediumseagreen" stroke="black" points="506,-649 434,-627.5 506,-606 578,-627.5 506,-649"/>
<text text-anchor="middle" x="506" y="-625" font-family="Arial" font-size="10.00">S&#45;932</text>
</g>
<!-- S&#45;707&#45;&gt;S&#45;932 -->
<g id="edge9" class="edge">
<title>S&#45;707&#45;&gt;S&#45;932</title>
<path fill="none" stroke="#4d4d4d" d="M731.58,-728C648.49,-728 521.5,-728 521.5,-728 521.5,-728 521.5,-651.55 521.5,-651.55"/>
<polygon fill="#4d4d4d" stroke="#4d4d4d" points="523.95,-651.55 521.5,-644.55 519.05,-651.55 523.95,-651.55"/>
</g>
<!-- S&#45;704 -->
<g id="node21" class="node">
<title>S&#45;704</title>
<polygon fill="mediumseagreen" stroke="black" points="712,-649 640,-627.5 712,-606 784,-627.5 712,-649"/>
<text text-anchor="middle" x="712" y="-625" font-family="Arial" font-size="10.00">S&#45;704</text>
</g>
<!-- S&#45;707&#45;&gt;S&#45;704 -->
<g id="edge7" class="edge">
<title>S&#45;707&#45;&gt;S&#45;704</title>
<path fill="none" stroke="#4d4d4d" d="M757,-720.23C757,-720.23 757,-642.6 757,-642.6"/>
<polygon fill="#4d4d4d" stroke="#4d4d4d" points="759.45,-642.6 757,-635.6 754.55,-642.6 759.45,-642.6"/>
</g>
<!-- S&#45;1742 -->
<g id="node30" class="node">
<title>S&#45;1742</title>
<polygon fill="mediumseagreen" stroke="black" points="892,-649 820,-627.5 892,-606 964,-627.5 892,-649"/>
<text text-anchor="middle" x="892" y="-625" font-family="Arial" font-size="10.00">S&#45;1742</text>
</g>
<!-- S&#45;707&#45;&gt;S&#45;1742 -->
<g id="edge14" class="edge">
<title>S&#45;707&#45;&gt;S&#45;1742</title>
<path fill="none" stroke="#4d4d4d" d="M847,-720.23C847,-720.23 847,-642.6 847,-642.6"/>
<polygon fill="#4d4d4d" stroke="#4d4d4d" points="849.45,-642.6 847,-635.6 844.55,-642.6 849.45,-642.6"/>
</g>
<!-- S&#45;932&#45;&gt;C&#45;0166 -->
<g id="edge10" class="edge">
<title>S&#45;932&#45;&gt;C&#45;0166</title>
<path fill="none" stroke="#4d4d4d" d="M458.9,-620C391.61,-620 276,-620 276,-620 276,-620 276,-553.79 276,-553.79"/>
<polygon fill="#4d4d4d" stroke="#4d4d4d" points="278.45,-553.79 276,-546.79 273.55,-553.79 278.45,-553.79"/>
</g>
<!-- S&#45;932&#45;&gt;C&#45;1128 -->
<g id="edge11" class="edge">
<title>S&#45;932&#45;&gt;C&#45;1128</title>
<path fill="none" stroke="#4d4d4d" d="M506,-605.58C506,-605.58 506,-555.03 506,-555.03"/>
<polygon fill="#4d4d4d" stroke="#4d4d4d" points="508.45,-555.03 506,-548.03 503.55,-555.03 508.45,-555.03"/>
</g>
<!-- S&#45;2567 -->
<g id="node18" class="node">
<title>S&#45;2567</title>
<polygon fill="mediumseagreen" stroke="black" points="72,-548 0,-526.5 72,-505 144,-526.5 72,-548"/>
<text text-anchor="middle" x="72" y="-524" font-family="Arial" font-size="10.00">S&#45;2567</text>
</g>
<!-- S&#45;932&#45;&gt;S&#45;2567 -->
<g id="edge13" class="edge">
<title>S&#45;932&#45;&gt;S&#45;2567</title>
<path fill="none" stroke="#4d4d4d" d="M455.37,-634C340.88,-634 72,-634 72,-634 72,-634 72,-555.25 72,-555.25"/>
<polygon fill="#4d4d4d" stroke="#4d4d4d" points="74.45,-555.25 72,-548.25 69.55,-555.25 74.45,-555.25"/>
</g>
<!-- R&#45;075 -->
<g id="node14" class="node">
<title>R&#45;075</title>
<polygon fill="tomato" stroke="black" points="1517,-517.59 1517,-535.41 1474.82,-548 1415.18,-548 1373,-535.41 1373,-517.59 1415.18,-505 1474.82,-505 1517,-517.59"/>
<text text-anchor="middle" x="1445" y="-524" font-family="Arial" font-size="10.00">R&#45;075</text>
</g>
<!-- ext_circ_114_24_ -->
<g id="node34" class="node">
<title>ext_circ_114_24_</title>
<polygon fill="lightpink" stroke="darkorange" stroke-dasharray="5,2" points="609,-1158 465,-1158 465,-1115 609,-1115 609,-1158"/>
<text text-anchor="middle" x="537" y="-1139.5" font-family="Arial" font-size="10.00">Circuito:</text>
<text text-anchor="middle" x="537" y="-1128.5" font-family="Arial" font-size="10.00">114&#45;24&#45;</text>
</g>
<!-- R&#45;075&#45;&gt;ext_circ_114_24_ -->
<g id="edge34" class="edge">
<title>R&#45;075&#45;&gt;ext_circ_114_24_</title>
<path fill="none" stroke="darkorange" stroke-dasharray="5,2" d="M1469,-548.21C1469,-561.9 1469,-577 1469,-577 1469,-577 593.5,-577 593.5,-577 593.5,-577 593.5,-1107.91 593.5,-1107.91"/>
<polygon fill="darkorange" stroke="darkorange" points="591.05,-1107.91 593.5,-1114.91 595.95,-1107.91 591.05,-1107.91"/>
</g>
<!-- S&#45;233&#45;&gt;C&#45;0646 -->
<g id="edge5" class="edge">
<title>S&#45;233&#45;&gt;C&#45;0646</title>
<path fill="none" stroke="#4d4d4d" d="M1001.53,-930C967.32,-930 933.5,-930 933.5,-930 933.5,-930 933.5,-854.47 933.5,-854.47"/>
<polygon fill="#4d4d4d" stroke="#4d4d4d" points="935.95,-854.47 933.5,-847.47 931.05,-854.47 935.95,-854.47"/>
</g>
<!-- S&#45;2098 -->
<g id="node26" class="node">
<title>S&#45;2098</title>
<polygon fill="mediumseagreen" stroke="black" points="1072,-851 1000,-829.5 1072,-808 1144,-829.5 1072,-851"/>
<text text-anchor="middle" x="1072" y="-827" font-family="Arial" font-size="10.00">S&#45;2098</text>
</g>
<!-- S&#45;233&#45;&gt;S&#45;2098 -->
<g id="edge3" class="edge">
<title>S&#45;233&#45;&gt;S&#45;2098</title>
<path fill="none" stroke="#4d4d4d" d="M1072,-908.58C1072,-908.58 1072,-858.03 1072,-858.03"/>
<polygon fill="#4d4d4d" stroke="#4d4d4d" points="1074.45,-858.03 1072,-851.03 1069.55,-858.03 1074.45,-858.03"/>
</g>
<!-- S&#45;2450 -->
<g id="node31" class="node">
<title>S&#45;2450</title>
<polygon fill="mediumseagreen" stroke="black" points="1252,-851 1180,-829.5 1252,-808 1324,-829.5 1252,-851"/>
<text text-anchor="middle" x="1252" y="-827" font-family="Arial" font-size="10.00">S&#45;2450</text>
</g>
<!-- S&#45;233&#45;&gt;S&#45;2450 -->
<g id="edge4" class="edge">
<title>S&#45;233&#45;&gt;S&#45;2450</title>
<path fill="none" stroke="#4d4d4d" d="M1142.37,-930C1192.85,-930 1252,-930 1252,-930 1252,-930 1252,-858.31 1252,-858.31"/>
<polygon fill="#4d4d4d" stroke="#4d4d4d" points="1254.45,-858.31 1252,-851.31 1249.55,-858.31 1254.45,-858.31"/>
</g>
<!-- R&#45;282&#45;&gt;ext_circ_303_25_ -->
<g id="edge33" class="edge">
<title>R&#45;282&#45;&gt;ext_circ_303_25_</title>
<path fill="none" stroke="darkorange" stroke-dasharray="5,2" d="M379,-447.25C379,-522.76 379,-769 379,-769 379,-769 799.67,-769 799.67,-769 799.67,-769 799.67,-1107.88 799.67,-1107.88"/>
<polygon fill="darkorange" stroke="darkorange" points="797.22,-1107.88 799.67,-1114.88 802.12,-1107.88 797.22,-1107.88"/>
</g>
<!-- S&#45;636 -->
<g id="node17" class="node">
<title>S&#45;636</title>
<polygon fill="mediumseagreen" stroke="black" points="1085,-548 1013,-526.5 1085,-505 1157,-526.5 1085,-548"/>
<text text-anchor="middle" x="1085" y="-524" font-family="Arial" font-size="10.00">S&#45;636</text>
</g>
<!-- S&#45;636&#45;&gt;S&#45;1766 -->
<g id="edge20" class="edge">
<title>S&#45;636&#45;&gt;S&#45;1766</title>
<path fill="none" stroke="#4d4d4d" d="M1085,-504.85C1085,-496.99 1085,-490 1085,-490 1085,-490 1445,-490 1445,-490 1445,-490 1445,-454.34 1445,-454.34"/>
<polygon fill="#4d4d4d" stroke="#4d4d4d" points="1447.45,-454.34 1445,-447.34 1442.55,-454.34 1447.45,-454.34"/>
</g>
<!-- S&#45;637&#45;&gt;S&#45;1711 -->
<g id="edge27" class="edge">
<title>S&#45;637&#45;&gt;S&#45;1711</title>
<path fill="none" stroke="#4d4d4d" d="M635,-100.58C635,-100.58 635,-50.03 635,-50.03"/>
<polygon fill="#4d4d4d" stroke="#4d4d4d" points="637.45,-50.03 635,-43.03 632.55,-50.03 637.45,-50.03"/>
</g>
<!-- S&#45;2236 -->
<g id="node32" class="node">
<title>S&#45;2236</title>
<polygon fill="mediumseagreen" stroke="black" points="712,-548 640,-526.5 712,-505 784,-526.5 712,-548"/>
<text text-anchor="middle" x="712" y="-524" font-family="Arial" font-size="10.00">S&#45;2236</text>
</g>
<!-- S&#45;704&#45;&gt;S&#45;2236 -->
<g id="edge8" class="edge">
<title>S&#45;704&#45;&gt;S&#45;2236</title>
<path fill="none" stroke="#4d4d4d" d="M712,-605.58C712,-605.58 712,-555.03 712,-555.03"/>
<polygon fill="#4d4d4d" stroke="#4d4d4d" points="714.45,-555.03 712,-548.03 709.55,-555.03 714.45,-555.03"/>
</g>
<!-- R&#45;105 -->
<g id="node22" class="node">
<title>R&#45;105</title>
<polygon fill="mediumseagreen" stroke="black" points="797,-315.59 797,-333.41 754.82,-346 695.18,-346 653,-333.41 653,-315.59 695.18,-303 754.82,-303 797,-315.59"/>
<text text-anchor="middle" x="725" y="-322" font-family="Arial" font-size="10.00">R&#45;105</text>
</g>
<!-- R&#45;105&#45;&gt;C&#45;0573 -->
<g id="edge25" class="edge">
<title>R&#45;105&#45;&gt;C&#45;0573</title>
<path fill="none" stroke="#4d4d4d" d="M725,-302.58C725,-302.58 725,-252.03 725,-252.03"/>
<polygon fill="#4d4d4d" stroke="#4d4d4d" points="727.45,-252.03 725,-245.03 722.55,-252.03 727.45,-252.03"/>
</g>
<!-- 114&#45;25&#45; -->
<g id="node23" class="node">
<title>114&#45;25&#45;</title>
<polygon fill="gold" stroke="black" points="1144,-1127.59 1144,-1145.41 1101.82,-1158 1042.18,-1158 1000,-1145.41 1000,-1127.59 1042.18,-1115 1101.82,-1115 1144,-1127.59"/>
<polygon fill="none" stroke="black" points="1148,-1124.61 1148,-1148.39 1102.41,-1162 1041.59,-1162 996,-1148.39 996,-1124.61 1041.59,-1111 1102.41,-1111 1148,-1124.61"/>
<text text-anchor="middle" x="1072" y="-1134" font-family="Arial" font-size="10.00">114&#45;25&#45;</text>
</g>
<!-- 114&#45;25&#45;&#45;&gt;C&#45;0178 -->
<g id="edge1" class="edge">
<title>114&#45;25&#45;&#45;&gt;C&#45;0178</title>
<path fill="none" stroke="#4d4d4d" d="M1072,-1110.81C1072,-1110.81 1072,-1060.03 1072,-1060.03"/>
<polygon fill="#4d4d4d" stroke="#4d4d4d" points="1074.45,-1060.03 1072,-1053.03 1069.55,-1060.03 1074.45,-1060.03"/>
</g>
<!-- S&#45;635&#45;&gt;C&#45;0832 -->
<g id="edge21" class="edge">
<title>S&#45;635&#45;&gt;C&#45;0832</title>
<path fill="none" stroke="#4d4d4d" d="M1014.44,-627C990.88,-627 970.5,-627 970.5,-627 970.5,-627 970.5,-542.77 970.5,-542.77"/>
<polygon fill="#4d4d4d" stroke="#4d4d4d" points="972.95,-542.77 970.5,-535.77 968.05,-542.77 972.95,-542.77"/>
</g>
<!-- S&#45;635&#45;&gt;R&#45;075 -->
<g id="edge18" class="edge">
<title>S&#45;635&#45;&gt;R&#45;075</title>
<path fill="none" stroke="#4d4d4d" d="M1135.3,-634C1229.04,-634 1421,-634 1421,-634 1421,-634 1421,-555.25 1421,-555.25"/>
<polygon fill="#4d4d4d" stroke="#4d4d4d" points="1423.45,-555.25 1421,-548.25 1418.55,-555.25 1423.45,-555.25"/>
</g>
<!-- S&#45;635&#45;&gt;S&#45;636 -->
<g id="edge19" class="edge">
<title>S&#45;635&#45;&gt;S&#45;636</title>
<path fill="none" stroke="#4d4d4d" d="M1085,-605.58C1085,-605.58 1085,-555.03 1085,-555.03"/>
<polygon fill="#4d4d4d" stroke="#4d4d4d" points="1087.45,-555.03 1085,-548.03 1082.55,-555.03 1087.45,-555.03"/>
</g>
<!-- S&#45;638 -->
<g id="node25" class="node">
<title>S&#45;638</title>
<polygon fill="mediumseagreen" stroke="black" points="1265,-548 1193,-526.5 1265,-505 1337,-526.5 1265,-548"/>
<text text-anchor="middle" x="1265" y="-524" font-family="Arial" font-size="10.00">S&#45;638</text>
</g>
<!-- S&#45;635&#45;&gt;S&#45;638 -->
<g id="edge17" class="edge">
<title>S&#45;635&#45;&gt;S&#45;638</title>
<path fill="none" stroke="#4d4d4d" d="M1131.95,-620C1183.33,-620 1258.5,-620 1258.5,-620 1258.5,-620 1258.5,-553.33 1258.5,-553.33"/>
<polygon fill="#4d4d4d" stroke="#4d4d4d" points="1260.95,-553.33 1258.5,-546.33 1256.05,-553.33 1260.95,-553.33"/>
</g>
<!-- C&#45;0572&#45;&gt;R&#45;105 -->
<g id="edge24" class="edge">
<title>C&#45;0572&#45;&gt;R&#45;105</title>
<path fill="none" stroke="#4d4d4d" d="M725,-403.58C725,-403.58 725,-353.03 725,-353.03"/>
<polygon fill="#4d4d4d" stroke="#4d4d4d" points="727.45,-353.03 725,-346.03 722.55,-353.03 727.45,-353.03"/>
</g>
<!-- C&#45;0571&#45;&gt;S&#45;637 -->
<g id="edge35" class="edge">
<title>C&#45;0571&#45;&gt;S&#45;637</title>
<path fill="none" stroke="blue" stroke-dasharray="5,2" d="M860,-408.54C860,-351.93 860,-173 860,-173 860,-173 689,-173 689,-173 689,-173 689,-134.9 689,-134.9"/>
<polygon fill="blue" stroke="blue" points="691.45,-134.9 689,-127.9 686.55,-134.9 691.45,-134.9"/>
</g>
</g>
</svg>
