<?xml version="1.0" encoding="UTF-8" standalone="no"?>
<!DOCTYPE svg PUBLIC "-//W3C//DTD SVG 1.1//EN"
 "http://www.w3.org/Graphics/SVG/1.1/DTD/svg11.dtd">
<!-- Generated by graphviz version 2.50.0 (0)
 -->
<!-- Title: Grafo_Circuito_109_27_ Pages: 1 -->
<svg width="1101pt" height="522pt"
 viewBox="0.00 0.00 1100.52 522.00" xmlns="http://www.w3.org/2000/svg" xmlns:xlink="http://www.w3.org/1999/xlink">
<g id="graph0" class="graph" transform="scale(1 1) rotate(0) translate(4 518)">
<title>Grafo_Circuito_109_27_</title>
<polygon fill="white" stroke="transparent" points="-4,4 -4,-518 1096.52,-518 1096.52,4 -4,4"/>
<!-- SW&#45;005_D -->
<g id="node1" class="node">
<title>SW&#45;005_D</title>
<polygon fill="tomato" stroke="black" points="484.54,-318 371.53,-318 342.46,-282 455.47,-282 484.54,-318"/>
<text text-anchor="middle" x="413.5" y="-298.1" font-family="Helvetica,sans-Serif" font-size="8.00">SW&#45;005_D</text>
</g>
<!-- ext_circ__NA_ -->
<g id="node12" class="node">
<title>ext_circ__NA_</title>
<polygon fill="lightpink" stroke="red" stroke-dasharray="5,2" points="137,-510 0,-510 0,-474 137,-474 137,-510"/>
<text text-anchor="middle" x="68.5" y="-494.6" font-family="Helvetica,sans-Serif" font-size="8.00">Circuito:</text>
<text text-anchor="middle" x="68.5" y="-485.6" font-family="Helvetica,sans-Serif" font-size="8.00">&lt;NA&gt;</text>
</g>
<!-- SW&#45;005_D&#45;&gt;ext_circ__NA_ -->
<g id="edge11" class="edge">
<title>SW&#45;005_D&#45;&gt;ext_circ__NA_</title>
<path fill="none" stroke="red" stroke-width="0.8" stroke-dasharray="5,2" d="M356.92,-300C259.04,-300 68.5,-300 68.5,-300 68.5,-300 68.5,-466.94 68.5,-466.94"/>
<polygon fill="red" stroke="red" stroke-width="0.8" points="66.05,-466.94 68.5,-473.94 70.95,-466.94 66.05,-466.94"/>
</g>
<!-- SW&#45;005_C -->
<g id="node2" class="node">
<title>SW&#45;005_C</title>
<polygon fill="tomato" stroke="black" points="662.54,-318 549.53,-318 520.46,-282 633.47,-282 662.54,-318"/>
<text text-anchor="middle" x="591.5" y="-298.1" font-family="Helvetica,sans-Serif" font-size="8.00">SW&#45;005_C</text>
</g>
<!-- ext_circ_109_29_ -->
<g id="node11" class="node">
<title>ext_circ_109_29_</title>
<polygon fill="lightpink" stroke="red" stroke-dasharray="5,2" points="310,-510 173,-510 173,-474 310,-474 310,-510"/>
<text text-anchor="middle" x="241.5" y="-494.6" font-family="Helvetica,sans-Serif" font-size="8.00">Circuito:</text>
<text text-anchor="middle" x="241.5" y="-485.6" font-family="Helvetica,sans-Serif" font-size="8.00">109&#45;29&#45;</text>
</g>
<!-- SW&#45;005_C&#45;&gt;ext_circ_109_29_ -->
<g id="edge10" class="edge">
<title>SW&#45;005_C&#45;&gt;ext_circ_109_29_</title>
<path fill="none" stroke="red" stroke-width="0.8" stroke-dasharray="5,2" d="M567.83,-318.04C567.83,-331.29 567.83,-347 567.83,-347 567.83,-347 241.5,-347 241.5,-347 241.5,-347 241.5,-466.93 241.5,-466.93"/>
<polygon fill="red" stroke="red" stroke-width="0.8" points="239.05,-466.93 241.5,-473.93 243.95,-466.93 239.05,-466.93"/>
</g>
<!-- SW&#45;006_C -->
<g id="node3" class="node">
<title>SW&#45;006_C</title>
<polygon fill="tomato" stroke="black" points="1092.54,-36 979.53,-36 950.46,0 1063.47,0 1092.54,-36"/>
<text text-anchor="middle" x="1021.5" y="-16.1" font-family="Helvetica,sans-Serif" font-size="8.00">SW&#45;006_C</text>
</g>
<!-- ext_circ_110_23_ -->
<g id="node13" class="node">
<title>ext_circ_110_23_</title>
<polygon fill="lightpink" stroke="red" stroke-dasharray="5,2" points="483,-510 346,-510 346,-474 483,-474 483,-510"/>
<text text-anchor="middle" x="414.5" y="-494.6" font-family="Helvetica,sans-Serif" font-size="8.00">Circuito:</text>
<text text-anchor="middle" x="414.5" y="-485.6" font-family="Helvetica,sans-Serif" font-size="8.00">110&#45;23&#45;</text>
</g>
<!-- SW&#45;006_C&#45;&gt;ext_circ_110_23_ -->
<g id="edge12" class="edge">
<title>SW&#45;006_C&#45;&gt;ext_circ_110_23_</title>
<path fill="none" stroke="red" stroke-width="0.8" stroke-dasharray="5,2" d="M964.89,-18C830.18,-18 501.76,-18 501.76,-18 501.76,-18 501.76,-492 501.76,-492 501.76,-492 490.25,-492 490.25,-492"/>
<polygon fill="red" stroke="red" stroke-width="0.8" points="490.25,-489.55 483.25,-492 490.25,-494.45 490.25,-489.55"/>
</g>
<!-- SW&#45;005_B -->
<g id="node4" class="node">
<title>SW&#45;005_B</title>
<polygon fill="mediumseagreen" stroke="black" points="662.54,-412 549.53,-412 520.46,-376 633.47,-376 662.54,-412"/>
<text text-anchor="middle" x="591.5" y="-392.1" font-family="Helvetica,sans-Serif" font-size="8.00">SW&#45;005_B</text>
</g>
<!-- SW&#45;005_B&#45;&gt;SW&#45;005_D -->
<g id="edge4" class="edge">
<title>SW&#45;005_B&#45;&gt;SW&#45;005_D</title>
<path fill="none" stroke="dimgray" stroke-width="0.8" d="M534.52,-394C482.78,-394 414.5,-394 414.5,-394 414.5,-394 414.5,-325.12 414.5,-325.12"/>
<polygon fill="dimgray" stroke="dimgray" stroke-width="0.8" points="416.95,-325.12 414.5,-318.12 412.05,-325.12 416.95,-325.12"/>
</g>
<!-- SW&#45;005_B&#45;&gt;SW&#45;005_C -->
<g id="edge3" class="edge">
<title>SW&#45;005_B&#45;&gt;SW&#45;005_C</title>
<path fill="none" stroke="dimgray" stroke-width="0.8" d="M615.17,-375.88C615.17,-375.88 615.17,-325.07 615.17,-325.07"/>
<polygon fill="dimgray" stroke="dimgray" stroke-width="0.8" points="617.62,-325.07 615.17,-318.07 612.72,-325.07 617.62,-325.07"/>
</g>
<!-- SW&#45;005_A -->
<g id="node7" class="node">
<title>SW&#45;005_A</title>
<polygon fill="mediumseagreen" stroke="black" points="914.54,-318 801.53,-318 772.46,-282 885.47,-282 914.54,-318"/>
<text text-anchor="middle" x="843.5" y="-298.1" font-family="Helvetica,sans-Serif" font-size="8.00">SW&#45;005_A</text>
</g>
<!-- SW&#45;005_B&#45;&gt;SW&#45;005_A -->
<g id="edge2" class="edge">
<title>SW&#45;005_B&#45;&gt;SW&#45;005_A</title>
<path fill="none" stroke="dimgray" stroke-width="0.8" d="M648.05,-394C722.35,-394 843.5,-394 843.5,-394 843.5,-394 843.5,-325.12 843.5,-325.12"/>
<polygon fill="dimgray" stroke="dimgray" stroke-width="0.8" points="845.95,-325.12 843.5,-318.12 841.05,-325.12 845.95,-325.12"/>
</g>
<!-- 109&#45;27&#45; -->
<g id="node5" class="node">
<title>109&#45;27&#45;</title>
<polygon fill="gold" stroke="black" points="660,-484.54 660,-499.46 619.87,-510 563.13,-510 523,-499.46 523,-484.54 563.13,-474 619.87,-474 660,-484.54"/>
<polygon fill="none" stroke="black" points="664,-481.46 664,-502.54 620.39,-514 562.61,-514 519,-502.54 519,-481.46 562.61,-470 620.39,-470 664,-481.46"/>
<text text-anchor="middle" x="591.5" y="-490.1" font-family="Helvetica,sans-Serif" font-size="8.00">109&#45;27&#45;</text>
</g>
<!-- 109&#45;27&#45;&#45;&gt;SW&#45;005_B -->
<g id="edge1" class="edge">
<title>109&#45;27&#45;&#45;&gt;SW&#45;005_B</title>
<path fill="none" stroke="dimgray" stroke-width="0.8" d="M591.5,-469.76C591.5,-469.76 591.5,-419.21 591.5,-419.21"/>
<polygon fill="dimgray" stroke="dimgray" stroke-width="0.8" points="593.95,-419.21 591.5,-412.21 589.05,-419.21 593.95,-419.21"/>
</g>
<!-- SW&#45;013_C -->
<g id="node6" class="node">
<title>SW&#45;013_C</title>
<polygon fill="mediumseagreen" stroke="black" points="736.54,-130 623.53,-130 594.46,-94 707.47,-94 736.54,-130"/>
<text text-anchor="middle" x="665.5" y="-110.1" font-family="Helvetica,sans-Serif" font-size="8.00">SW&#45;013_C</text>
</g>
<!-- SW&#45;013_A -->
<g id="node8" class="node">
<title>SW&#45;013_A</title>
<polygon fill="mediumseagreen" stroke="black" points="914.54,-224 801.53,-224 772.46,-188 885.47,-188 914.54,-224"/>
<text text-anchor="middle" x="843.5" y="-204.1" font-family="Helvetica,sans-Serif" font-size="8.00">SW&#45;013_A</text>
</g>
<!-- SW&#45;005_A&#45;&gt;SW&#45;013_A -->
<g id="edge5" class="edge">
<title>SW&#45;005_A&#45;&gt;SW&#45;013_A</title>
<path fill="none" stroke="dimgray" stroke-width="0.8" d="M843.5,-281.88C843.5,-281.88 843.5,-231.07 843.5,-231.07"/>
<polygon fill="dimgray" stroke="dimgray" stroke-width="0.8" points="845.95,-231.07 843.5,-224.07 841.05,-231.07 845.95,-231.07"/>
</g>
<!-- SW&#45;013_A&#45;&gt;SW&#45;013_C -->
<g id="edge7" class="edge">
<title>SW&#45;013_A&#45;&gt;SW&#45;013_C</title>
<path fill="none" stroke="dimgray" stroke-width="0.8" d="M786.89,-206C746.85,-206 700.26,-206 700.26,-206 700.26,-206 700.26,-137.12 700.26,-137.12"/>
<polygon fill="dimgray" stroke="dimgray" stroke-width="0.8" points="702.71,-137.12 700.26,-130.12 697.81,-137.12 702.71,-137.12"/>
</g>
<!-- SW&#45;013_D -->
<g id="node9" class="node">
<title>SW&#45;013_D</title>
<polygon fill="mediumseagreen" stroke="black" points="914.54,-130 801.53,-130 772.46,-94 885.47,-94 914.54,-130"/>
<text text-anchor="middle" x="843.5" y="-110.1" font-family="Helvetica,sans-Serif" font-size="8.00">SW&#45;013_D</text>
</g>
<!-- SW&#45;013_A&#45;&gt;SW&#45;013_D -->
<g id="edge8" class="edge">
<title>SW&#45;013_A&#45;&gt;SW&#45;013_D</title>
<path fill="none" stroke="dimgray" stroke-width="0.8" d="M843.5,-187.88C843.5,-187.88 843.5,-137.07 843.5,-137.07"/>
<polygon fill="dimgray" stroke="dimgray" stroke-width="0.8" points="845.95,-137.07 843.5,-130.07 841.05,-137.07 845.95,-137.07"/>
</g>
<!-- SW&#45;013_B -->
<g id="node10" class="node">
<title>SW&#45;013_B</title>
<polygon fill="mediumseagreen" stroke="black" points="1092.54,-130 979.53,-130 950.46,-94 1063.47,-94 1092.54,-130"/>
<text text-anchor="middle" x="1021.5" y="-110.1" font-family="Helvetica,sans-Serif" font-size="8.00">SW&#45;013_B</text>
</g>
<!-- SW&#45;013_A&#45;&gt;SW&#45;013_B -->
<g id="edge6" class="edge">
<title>SW&#45;013_A&#45;&gt;SW&#45;013_B</title>
<path fill="none" stroke="dimgray" stroke-width="0.8" d="M900.31,-206C952.4,-206 1021.5,-206 1021.5,-206 1021.5,-206 1021.5,-137.12 1021.5,-137.12"/>
<polygon fill="dimgray" stroke="dimgray" stroke-width="0.8" points="1023.95,-137.12 1021.5,-130.12 1019.05,-137.12 1023.95,-137.12"/>
</g>
<!-- SW&#45;013_B&#45;&gt;SW&#45;006_C -->
<g id="edge9" class="edge">
<title>SW&#45;013_B&#45;&gt;SW&#45;006_C</title>
<path fill="none" stroke="dimgray" stroke-width="0.8" d="M1021.5,-93.88C1021.5,-93.88 1021.5,-43.07 1021.5,-43.07"/>
<polygon fill="dimgray" stroke="dimgray" stroke-width="0.8" points="1023.95,-43.07 1021.5,-36.07 1019.05,-43.07 1023.95,-43.07"/>
</g>
</g>
</svg>
