<?xml version="1.0" encoding="UTF-8" standalone="no"?>
<!DOCTYPE svg PUBLIC "-//W3C//DTD SVG 1.1//EN"
 "http://www.w3.org/Graphics/SVG/1.1/DTD/svg11.dtd">
<!-- Generated by graphviz version 2.50.0 (0)
 -->
<!-- Title: Grafo_Circuito_109_27_ Pages: 1 -->
<svg width="897pt" height="665pt"
 viewBox="0.00 0.00 897.29 665.00" xmlns="http://www.w3.org/2000/svg" xmlns:xlink="http://www.w3.org/1999/xlink">
<g id="graph0" class="graph" transform="scale(1 1) rotate(0) translate(4 661)">
<title>Grafo_Circuito_109_27_</title>
<polygon fill="white" stroke="transparent" points="-4,4 -4,-661 893.29,-661 893.29,4 -4,4"/>
<!-- SW&#45;004_C -->
<g id="node1" class="node">
<title>SW&#45;004_C</title>
<polygon fill="tomato" stroke="black" points="334.44,-144 215.46,-144 184.85,-101 303.83,-101 334.44,-144"/>
<text text-anchor="middle" x="259.65" y="-120" font-family="Arial" font-size="10.00">SW&#45;004_C</text>
</g>
<!-- ext_circ_109_24_ -->
<g id="node17" class="node">
<title>ext_circ_109_24_</title>
<polygon fill="lightpink" stroke="darkorange" stroke-dasharray="5,2" points="608.65,-43 464.65,-43 464.65,0 608.65,0 608.65,-43"/>
<text text-anchor="middle" x="536.65" y="-24.5" font-family="Arial" font-size="10.00">Circuito:</text>
<text text-anchor="middle" x="536.65" y="-13.5" font-family="Arial" font-size="10.00">109&#45;24&#45;</text>
</g>
<!-- SW&#45;004_C&#45;&gt;ext_circ_109_24_ -->
<g id="edge17" class="edge">
<title>SW&#45;004_C&#45;&gt;ext_circ_109_24_</title>
<path fill="none" stroke="darkorange" stroke-dasharray="5,2" d="M259.65,-100.97C259.65,-71.18 259.65,-21 259.65,-21 259.65,-21 457.59,-21 457.59,-21"/>
<polygon fill="darkorange" stroke="darkorange" points="457.59,-23.45 464.59,-21 457.59,-18.55 457.59,-23.45"/>
</g>
<!-- SW&#45;004_D -->
<g id="node2" class="node">
<title>SW&#45;004_D</title>
<polygon fill="tomato" stroke="black" points="519.44,-144 400.46,-144 369.85,-101 488.83,-101 519.44,-144"/>
<text text-anchor="middle" x="444.65" y="-120" font-family="Arial" font-size="10.00">SW&#45;004_D</text>
</g>
<!-- SW&#45;004_D&#45;&gt;ext_circ_109_24_ -->
<g id="edge19" class="edge">
<title>SW&#45;004_D&#45;&gt;ext_circ_109_24_</title>
<path fill="none" stroke="darkorange" stroke-dasharray="5,2" d="M491.97,-105.37C491.97,-105.37 491.97,-50.31 491.97,-50.31"/>
<polygon fill="darkorange" stroke="darkorange" points="494.42,-50.31 491.97,-43.31 489.52,-50.31 494.42,-50.31"/>
</g>
<!-- SW&#45;002_B -->
<g id="node3" class="node">
<title>SW&#45;002_B</title>
<polygon fill="tomato" stroke="black" points="149.44,-144 30.46,-144 -0.15,-101 118.83,-101 149.44,-144"/>
<text text-anchor="middle" x="74.65" y="-120" font-family="Arial" font-size="10.00">SW&#45;002_B</text>
</g>
<!-- ext_circ_109_28_ -->
<g id="node18" class="node">
<title>ext_circ_109_28_</title>
<polygon fill="lightpink" stroke="darkorange" stroke-dasharray="5,2" points="146.65,-43 2.65,-43 2.65,0 146.65,0 146.65,-43"/>
<text text-anchor="middle" x="74.65" y="-24.5" font-family="Arial" font-size="10.00">Circuito:</text>
<text text-anchor="middle" x="74.65" y="-13.5" font-family="Arial" font-size="10.00">109&#45;28&#45;</text>
</g>
<!-- SW&#45;002_B&#45;&gt;ext_circ_109_28_ -->
<g id="edge18" class="edge">
<title>SW&#45;002_B&#45;&gt;ext_circ_109_28_</title>
<path fill="none" stroke="darkorange" stroke-dasharray="5,2" d="M74.65,-100.58C74.65,-100.58 74.65,-50.03 74.65,-50.03"/>
<polygon fill="darkorange" stroke="darkorange" points="77.1,-50.03 74.65,-43.03 72.2,-50.03 77.1,-50.03"/>
</g>
<!-- SW&#45;005_D -->
<g id="node4" class="node">
<title>SW&#45;005_D</title>
<polygon fill="tomato" stroke="black" points="334.44,-447 215.46,-447 184.85,-404 303.83,-404 334.44,-447"/>
<text text-anchor="middle" x="259.65" y="-423" font-family="Arial" font-size="10.00">SW&#45;005_D</text>
</g>
<!-- ext_circ_114_23_ -->
<g id="node16" class="node">
<title>ext_circ_114_23_</title>
<polygon fill="lightpink" stroke="darkorange" stroke-dasharray="5,2" points="331.65,-346 187.65,-346 187.65,-303 331.65,-303 331.65,-346"/>
<text text-anchor="middle" x="259.65" y="-327.5" font-family="Arial" font-size="10.00">Circuito:</text>
<text text-anchor="middle" x="259.65" y="-316.5" font-family="Arial" font-size="10.00">114&#45;23&#45;</text>
</g>
<!-- SW&#45;005_D&#45;&gt;ext_circ_114_23_ -->
<g id="edge15" class="edge">
<title>SW&#45;005_D&#45;&gt;ext_circ_114_23_</title>
<path fill="none" stroke="darkorange" stroke-dasharray="5,2" d="M259.65,-403.58C259.65,-403.58 259.65,-353.03 259.65,-353.03"/>
<polygon fill="darkorange" stroke="darkorange" points="262.1,-353.03 259.65,-346.03 257.2,-353.03 262.1,-353.03"/>
</g>
<!-- SW&#45;013_C -->
<g id="node5" class="node">
<title>SW&#45;013_C</title>
<polygon fill="mediumseagreen" stroke="black" points="427.44,-245 308.46,-245 277.85,-202 396.83,-202 427.44,-245"/>
<text text-anchor="middle" x="352.65" y="-221" font-family="Arial" font-size="10.00">SW&#45;013_C</text>
</g>
<!-- SW&#45;013_C&#45;&gt;SW&#45;004_C -->
<g id="edge10" class="edge">
<title>SW&#45;013_C&#45;&gt;SW&#45;004_C</title>
<path fill="none" stroke="#4d4d4d" d="M306.15,-201.58C306.15,-201.58 306.15,-151.03 306.15,-151.03"/>
<polygon fill="#4d4d4d" stroke="#4d4d4d" points="308.6,-151.03 306.15,-144.03 303.7,-151.03 308.6,-151.03"/>
</g>
<!-- SW&#45;013_C&#45;&gt;SW&#45;004_D -->
<g id="edge12" class="edge">
<title>SW&#45;013_C&#45;&gt;SW&#45;004_D</title>
<path fill="none" stroke="#4d4d4d" d="M398.65,-204.5C398.65,-204.5 398.65,-148.76 398.65,-148.76"/>
<polygon fill="#4d4d4d" stroke="#4d4d4d" points="401.1,-148.76 398.65,-141.76 396.2,-148.76 401.1,-148.76"/>
</g>
<!-- SW&#45;013_C&#45;&gt;SW&#45;002_B -->
<g id="edge11" class="edge">
<title>SW&#45;013_C&#45;&gt;SW&#45;002_B</title>
<path fill="none" stroke="#4d4d4d" d="M292.67,-223C210.94,-223 74.65,-223 74.65,-223 74.65,-223 74.65,-151.31 74.65,-151.31"/>
<polygon fill="#4d4d4d" stroke="#4d4d4d" points="77.1,-151.31 74.65,-144.31 72.2,-151.31 77.1,-151.31"/>
</g>
<!-- SW&#45;013_A -->
<g id="node6" class="node">
<title>SW&#45;013_A</title>
<polygon fill="mediumseagreen" stroke="black" points="704.44,-346 585.46,-346 554.85,-303 673.83,-303 704.44,-346"/>
<text text-anchor="middle" x="629.65" y="-322" font-family="Arial" font-size="10.00">SW&#45;013_A</text>
</g>
<!-- SW&#45;013_A&#45;&gt;SW&#45;013_C -->
<g id="edge7" class="edge">
<title>SW&#45;013_A&#45;&gt;SW&#45;013_C</title>
<path fill="none" stroke="#4d4d4d" d="M569.68,-324C552.26,-324 537.82,-324 537.82,-324 537.82,-324 537.82,-223 537.82,-223 537.82,-223 419,-223 419,-223"/>
<polygon fill="#4d4d4d" stroke="#4d4d4d" points="419,-220.55 412,-223 419,-225.45 419,-220.55"/>
</g>
<!-- SW&#45;013_B -->
<g id="node8" class="node">
<title>SW&#45;013_B</title>
<polygon fill="mediumseagreen" stroke="black" points="704.44,-245 585.46,-245 554.85,-202 673.83,-202 704.44,-245"/>
<text text-anchor="middle" x="629.65" y="-221" font-family="Arial" font-size="10.00">SW&#45;013_B</text>
</g>
<!-- SW&#45;013_A&#45;&gt;SW&#45;013_B -->
<g id="edge6" class="edge">
<title>SW&#45;013_A&#45;&gt;SW&#45;013_B</title>
<path fill="none" stroke="#4d4d4d" d="M629.65,-302.58C629.65,-302.58 629.65,-252.03 629.65,-252.03"/>
<polygon fill="#4d4d4d" stroke="#4d4d4d" points="632.1,-252.03 629.65,-245.03 627.2,-252.03 632.1,-252.03"/>
</g>
<!-- SW&#45;013_D -->
<g id="node9" class="node">
<title>SW&#45;013_D</title>
<polygon fill="mediumseagreen" stroke="black" points="889.44,-245 770.46,-245 739.85,-202 858.83,-202 889.44,-245"/>
<text text-anchor="middle" x="814.65" y="-221" font-family="Arial" font-size="10.00">SW&#45;013_D</text>
</g>
<!-- SW&#45;013_A&#45;&gt;SW&#45;013_D -->
<g id="edge8" class="edge">
<title>SW&#45;013_A&#45;&gt;SW&#45;013_D</title>
<path fill="none" stroke="#4d4d4d" d="M688.94,-324C743.06,-324 814.65,-324 814.65,-324 814.65,-324 814.65,-252.31 814.65,-252.31"/>
<polygon fill="#4d4d4d" stroke="#4d4d4d" points="817.1,-252.31 814.65,-245.31 812.2,-252.31 817.1,-252.31"/>
</g>
<!-- SW&#45;005_C -->
<g id="node7" class="node">
<title>SW&#45;005_C</title>
<polygon fill="tomato" stroke="black" points="519.44,-447 400.46,-447 369.85,-404 488.83,-404 519.44,-447"/>
<text text-anchor="middle" x="444.65" y="-423" font-family="Arial" font-size="10.00">SW&#45;005_C</text>
</g>
<!-- ext_circ_109_29_ -->
<g id="node15" class="node">
<title>ext_circ_109_29_</title>
<polygon fill="lightpink" stroke="darkorange" stroke-dasharray="5,2" points="516.65,-346 372.65,-346 372.65,-303 516.65,-303 516.65,-346"/>
<text text-anchor="middle" x="444.65" y="-327.5" font-family="Arial" font-size="10.00">Circuito:</text>
<text text-anchor="middle" x="444.65" y="-316.5" font-family="Arial" font-size="10.00">109&#45;29&#45;</text>
</g>
<!-- SW&#45;005_C&#45;&gt;ext_circ_109_29_ -->
<g id="edge14" class="edge">
<title>SW&#45;005_C&#45;&gt;ext_circ_109_29_</title>
<path fill="none" stroke="darkorange" stroke-dasharray="5,2" d="M444.65,-403.58C444.65,-403.58 444.65,-353.03 444.65,-353.03"/>
<polygon fill="darkorange" stroke="darkorange" points="447.1,-353.03 444.65,-346.03 442.2,-353.03 447.1,-353.03"/>
</g>
<!-- SW&#45;006_C -->
<g id="node13" class="node">
<title>SW&#45;006_C</title>
<polygon fill="tomato" stroke="black" points="704.44,-144 585.46,-144 554.85,-101 673.83,-101 704.44,-144"/>
<text text-anchor="middle" x="629.65" y="-120" font-family="Arial" font-size="10.00">SW&#45;006_C</text>
</g>
<!-- SW&#45;013_B&#45;&gt;SW&#45;006_C -->
<g id="edge13" class="edge">
<title>SW&#45;013_B&#45;&gt;SW&#45;006_C</title>
<path fill="none" stroke="#4d4d4d" d="M629.65,-201.58C629.65,-201.58 629.65,-151.03 629.65,-151.03"/>
<polygon fill="#4d4d4d" stroke="#4d4d4d" points="632.1,-151.03 629.65,-144.03 627.2,-151.03 632.1,-151.03"/>
</g>
<!-- SW&#45;007_D -->
<g id="node14" class="node">
<title>SW&#45;007_D</title>
<polygon fill="tomato" stroke="black" points="889.44,-144 770.46,-144 739.85,-101 858.83,-101 889.44,-144"/>
<text text-anchor="middle" x="814.65" y="-120" font-family="Arial" font-size="10.00">SW&#45;007_D</text>
</g>
<!-- SW&#45;013_D&#45;&gt;SW&#45;007_D -->
<g id="edge9" class="edge">
<title>SW&#45;013_D&#45;&gt;SW&#45;007_D</title>
<path fill="none" stroke="#4d4d4d" d="M814.65,-201.58C814.65,-201.58 814.65,-151.03 814.65,-151.03"/>
<polygon fill="#4d4d4d" stroke="#4d4d4d" points="817.1,-151.03 814.65,-144.03 812.2,-151.03 817.1,-151.03"/>
</g>
<!-- SW&#45;005_B -->
<g id="node10" class="node">
<title>SW&#45;005_B</title>
<polygon fill="mediumseagreen" stroke="black" points="519.44,-548 400.46,-548 369.85,-505 488.83,-505 519.44,-548"/>
<text text-anchor="middle" x="444.65" y="-524" font-family="Arial" font-size="10.00">SW&#45;005_B</text>
</g>
<!-- SW&#45;005_B&#45;&gt;SW&#45;005_D -->
<g id="edge3" class="edge">
<title>SW&#45;005_B&#45;&gt;SW&#45;005_D</title>
<path fill="none" stroke="#4d4d4d" d="M384.58,-526C330.56,-526 259.65,-526 259.65,-526 259.65,-526 259.65,-454.31 259.65,-454.31"/>
<polygon fill="#4d4d4d" stroke="#4d4d4d" points="262.1,-454.31 259.65,-447.31 257.2,-454.31 262.1,-454.31"/>
</g>
<!-- SW&#45;005_B&#45;&gt;SW&#45;005_C -->
<g id="edge2" class="edge">
<title>SW&#45;005_B&#45;&gt;SW&#45;005_C</title>
<path fill="none" stroke="#4d4d4d" d="M444.65,-504.58C444.65,-504.58 444.65,-454.03 444.65,-454.03"/>
<polygon fill="#4d4d4d" stroke="#4d4d4d" points="447.1,-454.03 444.65,-447.03 442.2,-454.03 447.1,-454.03"/>
</g>
<!-- SW&#45;005_A -->
<g id="node11" class="node">
<title>SW&#45;005_A</title>
<polygon fill="mediumseagreen" stroke="black" points="704.44,-447 585.46,-447 554.85,-404 673.83,-404 704.44,-447"/>
<text text-anchor="middle" x="629.65" y="-423" font-family="Arial" font-size="10.00">SW&#45;005_A</text>
</g>
<!-- SW&#45;005_B&#45;&gt;SW&#45;005_A -->
<g id="edge4" class="edge">
<title>SW&#45;005_B&#45;&gt;SW&#45;005_A</title>
<path fill="none" stroke="#4d4d4d" d="M503.94,-526C558.06,-526 629.65,-526 629.65,-526 629.65,-526 629.65,-454.31 629.65,-454.31"/>
<polygon fill="#4d4d4d" stroke="#4d4d4d" points="632.1,-454.31 629.65,-447.31 627.2,-454.31 632.1,-454.31"/>
</g>
<!-- SW&#45;005_A&#45;&gt;SW&#45;013_A -->
<g id="edge5" class="edge">
<title>SW&#45;005_A&#45;&gt;SW&#45;013_A</title>
<path fill="none" stroke="#4d4d4d" d="M629.65,-403.58C629.65,-403.58 629.65,-353.03 629.65,-353.03"/>
<polygon fill="#4d4d4d" stroke="#4d4d4d" points="632.1,-353.03 629.65,-346.03 627.2,-353.03 632.1,-353.03"/>
</g>
<!-- 109&#45;27&#45; -->
<g id="node12" class="node">
<title>109&#45;27&#45;</title>
<polygon fill="gold" stroke="black" points="516.65,-622.59 516.65,-640.41 474.47,-653 414.82,-653 372.65,-640.41 372.65,-622.59 414.82,-610 474.47,-610 516.65,-622.59"/>
<polygon fill="none" stroke="black" points="520.65,-619.61 520.65,-643.39 475.05,-657 414.24,-657 368.65,-643.39 368.65,-619.61 414.24,-606 475.05,-606 520.65,-619.61"/>
<text text-anchor="middle" x="444.65" y="-629" font-family="Arial" font-size="10.00">109&#45;27&#45;</text>
</g>
<!-- 109&#45;27&#45;&#45;&gt;SW&#45;005_B -->
<g id="edge1" class="edge">
<title>109&#45;27&#45;&#45;&gt;SW&#45;005_B</title>
<path fill="none" stroke="#4d4d4d" d="M444.65,-605.81C444.65,-605.81 444.65,-555.03 444.65,-555.03"/>
<polygon fill="#4d4d4d" stroke="#4d4d4d" points="447.1,-555.03 444.65,-548.03 442.2,-555.03 447.1,-555.03"/>
</g>
<!-- SW&#45;006_C&#45;&gt;ext_circ_109_24_ -->
<g id="edge20" class="edge">
<title>SW&#45;006_C&#45;&gt;ext_circ_109_24_</title>
<path fill="none" stroke="darkorange" stroke-dasharray="5,2" d="M581.82,-100.58C581.82,-100.58 581.82,-50.03 581.82,-50.03"/>
<polygon fill="darkorange" stroke="darkorange" points="584.27,-50.03 581.82,-43.03 579.37,-50.03 584.27,-50.03"/>
</g>
<!-- SW&#45;007_D&#45;&gt;ext_circ_109_24_ -->
<g id="edge16" class="edge">
<title>SW&#45;007_D&#45;&gt;ext_circ_109_24_</title>
<path fill="none" stroke="darkorange" stroke-dasharray="5,2" d="M814.65,-100.97C814.65,-71.18 814.65,-21 814.65,-21 814.65,-21 615.96,-21 615.96,-21"/>
<polygon fill="darkorange" stroke="darkorange" points="615.96,-18.55 608.96,-21 615.96,-23.45 615.96,-18.55"/>
</g>
</g>
</svg>
