<?xml version="1.0" encoding="UTF-8" standalone="no"?>
<!DOCTYPE svg PUBLIC "-//W3C//DTD SVG 1.1//EN"
 "http://www.w3.org/Graphics/SVG/1.1/DTD/svg11.dtd">
<!-- Generated by graphviz version 2.50.0 (0)
 -->
<!-- Title: Grafo_Circuito_109_24_ Pages: 1 -->
<svg width="1068pt" height="867pt"
 viewBox="0.00 0.00 1068.29 867.00" xmlns="http://www.w3.org/2000/svg" xmlns:xlink="http://www.w3.org/1999/xlink">
<g id="graph0" class="graph" transform="scale(1 1) rotate(0) translate(4 863)">
<title>Grafo_Circuito_109_24_</title>
<polygon fill="white" stroke="transparent" points="-4,4 -4,-863 1064.29,-863 1064.29,4 -4,4"/>
<!-- SW&#45;004_C -->
<g id="node1" class="node">
<title>SW&#45;004_C</title>
<polygon fill="tomato" stroke="black" points="509.44,-144 390.46,-144 359.85,-101 478.83,-101 509.44,-144"/>
<text text-anchor="middle" x="434.65" y="-120" font-family="Arial" font-size="10.00">SW&#45;004_C</text>
</g>
<!-- ext_circ_109_27_ -->
<g id="node19" class="node">
<title>ext_circ_109_27_</title>
<polygon fill="lightpink" stroke="darkorange" stroke-dasharray="5,2" points="598.65,-43 454.65,-43 454.65,0 598.65,0 598.65,-43"/>
<text text-anchor="middle" x="526.65" y="-24.5" font-family="Arial" font-size="10.00">Circuito:</text>
<text text-anchor="middle" x="526.65" y="-13.5" font-family="Arial" font-size="10.00">109&#45;27&#45;</text>
</g>
<!-- SW&#45;004_C&#45;&gt;ext_circ_109_27_ -->
<g id="edge18" class="edge">
<title>SW&#45;004_C&#45;&gt;ext_circ_109_27_</title>
<path fill="none" stroke="darkorange" stroke-dasharray="5,2" d="M481.97,-105.37C481.97,-105.37 481.97,-50.31 481.97,-50.31"/>
<polygon fill="darkorange" stroke="darkorange" points="484.42,-50.31 481.97,-43.31 479.52,-50.31 484.42,-50.31"/>
</g>
<!-- SW&#45;006_B -->
<g id="node2" class="node">
<title>SW&#45;006_B</title>
<polygon fill="tomato" stroke="black" points="1060.44,-144 941.46,-144 910.85,-101 1029.83,-101 1060.44,-144"/>
<text text-anchor="middle" x="985.65" y="-120" font-family="Arial" font-size="10.00">SW&#45;006_B</text>
</g>
<!-- SW&#45;006_B&#45;&gt;ext_circ_109_27_ -->
<g id="edge21" class="edge">
<title>SW&#45;006_B&#45;&gt;ext_circ_109_27_</title>
<path fill="none" stroke="darkorange" stroke-dasharray="5,2" d="M985.65,-100.97C985.65,-71.18 985.65,-21 985.65,-21 985.65,-21 605.87,-21 605.87,-21"/>
<polygon fill="darkorange" stroke="darkorange" points="605.87,-18.55 598.87,-21 605.87,-23.45 605.87,-18.55"/>
</g>
<!-- SW&#45;007_C -->
<g id="node3" class="node">
<title>SW&#45;007_C</title>
<polygon fill="mediumseagreen" stroke="black" points="433.44,-548 314.46,-548 283.85,-505 402.83,-505 433.44,-548"/>
<text text-anchor="middle" x="358.65" y="-524" font-family="Arial" font-size="10.00">SW&#45;007_C</text>
</g>
<!-- SW&#45;007_D -->
<g id="node15" class="node">
<title>SW&#45;007_D</title>
<polygon fill="tomato" stroke="black" points="149.44,-346 30.46,-346 -0.15,-303 118.83,-303 149.44,-346"/>
<text text-anchor="middle" x="74.65" y="-322" font-family="Arial" font-size="10.00">SW&#45;007_D</text>
</g>
<!-- SW&#45;007_C&#45;&gt;SW&#45;007_D -->
<g id="edge15" class="edge">
<title>SW&#45;007_C&#45;&gt;SW&#45;007_D</title>
<path fill="none" stroke="#4d4d4d" d="M298.76,-526C215.44,-526 74.65,-526 74.65,-526 74.65,-526 74.65,-353.06 74.65,-353.06"/>
<polygon fill="#4d4d4d" stroke="#4d4d4d" points="77.1,-353.06 74.65,-346.06 72.2,-353.06 77.1,-353.06"/>
</g>
<!-- SW&#45;007_A -->
<g id="node16" class="node">
<title>SW&#45;007_A</title>
<polygon fill="mediumseagreen" stroke="black" points="331.44,-447 212.46,-447 181.85,-404 300.83,-404 331.44,-447"/>
<text text-anchor="middle" x="256.65" y="-423" font-family="Arial" font-size="10.00">SW&#45;007_A</text>
</g>
<!-- SW&#45;007_C&#45;&gt;SW&#45;007_A -->
<g id="edge14" class="edge">
<title>SW&#45;007_C&#45;&gt;SW&#45;007_A</title>
<path fill="none" stroke="#4d4d4d" d="M307.65,-504.58C307.65,-504.58 307.65,-454.03 307.65,-454.03"/>
<polygon fill="#4d4d4d" stroke="#4d4d4d" points="310.1,-454.03 307.65,-447.03 305.2,-454.03 310.1,-454.03"/>
</g>
<!-- SW&#45;007_B -->
<g id="node18" class="node">
<title>SW&#45;007_B</title>
<polygon fill="mediumseagreen" stroke="black" points="516.44,-447 397.46,-447 366.85,-404 485.83,-404 516.44,-447"/>
<text text-anchor="middle" x="441.65" y="-423" font-family="Arial" font-size="10.00">SW&#45;007_B</text>
</g>
<!-- SW&#45;007_C&#45;&gt;SW&#45;007_B -->
<g id="edge13" class="edge">
<title>SW&#45;007_C&#45;&gt;SW&#45;007_B</title>
<path fill="none" stroke="#4d4d4d" d="M400.15,-504.58C400.15,-504.58 400.15,-454.03 400.15,-454.03"/>
<polygon fill="#4d4d4d" stroke="#4d4d4d" points="402.6,-454.03 400.15,-447.03 397.7,-454.03 402.6,-454.03"/>
</g>
<!-- S&#45;2265 -->
<g id="node4" class="node">
<title>S&#45;2265</title>
<polygon fill="tomato" stroke="black" points="257.65,-346 185.65,-324.5 257.65,-303 329.65,-324.5 257.65,-346"/>
<text text-anchor="middle" x="257.65" y="-322" font-family="Arial" font-size="10.00">S&#45;2265</text>
</g>
<!-- ext_circ_110_23_ -->
<g id="node22" class="node">
<title>ext_circ_110_23_</title>
<polygon fill="lightpink" stroke="darkorange" stroke-dasharray="5,2" points="329.65,-245 185.65,-245 185.65,-202 329.65,-202 329.65,-245"/>
<text text-anchor="middle" x="257.65" y="-226.5" font-family="Arial" font-size="10.00">Circuito:</text>
<text text-anchor="middle" x="257.65" y="-215.5" font-family="Arial" font-size="10.00">110&#45;23&#45;</text>
</g>
<!-- S&#45;2265&#45;&gt;ext_circ_110_23_ -->
<g id="edge24" class="edge">
<title>S&#45;2265&#45;&gt;ext_circ_110_23_</title>
<path fill="none" stroke="darkorange" stroke-dasharray="5,2" d="M257.65,-302.58C257.65,-302.58 257.65,-252.03 257.65,-252.03"/>
<polygon fill="darkorange" stroke="darkorange" points="260.1,-252.03 257.65,-245.03 255.2,-252.03 260.1,-252.03"/>
</g>
<!-- SW&#45;004_D -->
<g id="node5" class="node">
<title>SW&#45;004_D</title>
<polygon fill="tomato" stroke="black" points="694.44,-144 575.46,-144 544.85,-101 663.83,-101 694.44,-144"/>
<text text-anchor="middle" x="619.65" y="-120" font-family="Arial" font-size="10.00">SW&#45;004_D</text>
</g>
<!-- SW&#45;004_D&#45;&gt;ext_circ_109_27_ -->
<g id="edge19" class="edge">
<title>SW&#45;004_D&#45;&gt;ext_circ_109_27_</title>
<path fill="none" stroke="darkorange" stroke-dasharray="5,2" d="M571.82,-100.58C571.82,-100.58 571.82,-50.03 571.82,-50.03"/>
<polygon fill="darkorange" stroke="darkorange" points="574.27,-50.03 571.82,-43.03 569.37,-50.03 574.27,-50.03"/>
</g>
<!-- SW&#45;003_A -->
<g id="node6" class="node">
<title>SW&#45;003_A</title>
<polygon fill="tomato" stroke="black" points="875.44,-245 756.46,-245 725.85,-202 844.83,-202 875.44,-245"/>
<text text-anchor="middle" x="800.65" y="-221" font-family="Arial" font-size="10.00">SW&#45;003_A</text>
</g>
<!-- ext_circ_109_28_ -->
<g id="node20" class="node">
<title>ext_circ_109_28_</title>
<polygon fill="lightpink" stroke="darkorange" stroke-dasharray="5,2" points="874.65,-144 730.65,-144 730.65,-101 874.65,-101 874.65,-144"/>
<text text-anchor="middle" x="802.65" y="-125.5" font-family="Arial" font-size="10.00">Circuito:</text>
<text text-anchor="middle" x="802.65" y="-114.5" font-family="Arial" font-size="10.00">109&#45;28&#45;</text>
</g>
<!-- SW&#45;003_A&#45;&gt;ext_circ_109_28_ -->
<g id="edge20" class="edge">
<title>SW&#45;003_A&#45;&gt;ext_circ_109_28_</title>
<path fill="none" stroke="darkorange" stroke-dasharray="5,2" d="M802.65,-201.58C802.65,-201.58 802.65,-151.03 802.65,-151.03"/>
<polygon fill="darkorange" stroke="darkorange" points="805.1,-151.03 802.65,-144.03 800.2,-151.03 805.1,-151.03"/>
</g>
<!-- SW&#45;004_B -->
<g id="node7" class="node">
<title>SW&#45;004_B</title>
<polygon fill="mediumseagreen" stroke="black" points="862.44,-447 743.46,-447 712.85,-404 831.83,-404 862.44,-447"/>
<text text-anchor="middle" x="787.65" y="-423" font-family="Arial" font-size="10.00">SW&#45;004_B</text>
</g>
<!-- SW&#45;003_B -->
<g id="node8" class="node">
<title>SW&#45;003_B</title>
<polygon fill="mediumseagreen" stroke="black" points="875.44,-346 756.46,-346 725.85,-303 844.83,-303 875.44,-346"/>
<text text-anchor="middle" x="800.65" y="-322" font-family="Arial" font-size="10.00">SW&#45;003_B</text>
</g>
<!-- SW&#45;004_B&#45;&gt;SW&#45;003_B -->
<g id="edge8" class="edge">
<title>SW&#45;004_B&#45;&gt;SW&#45;003_B</title>
<path fill="none" stroke="#4d4d4d" d="M794.15,-403.58C794.15,-403.58 794.15,-353.03 794.15,-353.03"/>
<polygon fill="#4d4d4d" stroke="#4d4d4d" points="796.6,-353.03 794.15,-346.03 791.7,-353.03 796.6,-353.03"/>
</g>
<!-- SW&#45;003_B&#45;&gt;SW&#45;003_A -->
<g id="edge10" class="edge">
<title>SW&#45;003_B&#45;&gt;SW&#45;003_A</title>
<path fill="none" stroke="#4d4d4d" d="M800.65,-302.58C800.65,-302.58 800.65,-252.03 800.65,-252.03"/>
<polygon fill="#4d4d4d" stroke="#4d4d4d" points="803.1,-252.03 800.65,-245.03 798.2,-252.03 803.1,-252.03"/>
</g>
<!-- SW&#45;003_C -->
<g id="node10" class="node">
<title>SW&#45;003_C</title>
<polygon fill="mediumseagreen" stroke="black" points="1060.44,-245 941.46,-245 910.85,-202 1029.83,-202 1060.44,-245"/>
<text text-anchor="middle" x="985.65" y="-221" font-family="Arial" font-size="10.00">SW&#45;003_C</text>
</g>
<!-- SW&#45;003_B&#45;&gt;SW&#45;003_C -->
<g id="edge9" class="edge">
<title>SW&#45;003_B&#45;&gt;SW&#45;003_C</title>
<path fill="none" stroke="#4d4d4d" d="M859.94,-324C914.06,-324 985.65,-324 985.65,-324 985.65,-324 985.65,-252.31 985.65,-252.31"/>
<polygon fill="#4d4d4d" stroke="#4d4d4d" points="988.1,-252.31 985.65,-245.31 983.2,-252.31 988.1,-252.31"/>
</g>
<!-- S&#45;309B -->
<g id="node9" class="node">
<title>S&#45;309B</title>
<polygon fill="mediumseagreen" stroke="black" points="360.65,-649 288.65,-627.5 360.65,-606 432.65,-627.5 360.65,-649"/>
<text text-anchor="middle" x="360.65" y="-625" font-family="Arial" font-size="10.00">S&#45;309B</text>
</g>
<!-- S&#45;309B&#45;&gt;SW&#45;007_C -->
<g id="edge12" class="edge">
<title>S&#45;309B&#45;&gt;SW&#45;007_C</title>
<path fill="none" stroke="#4d4d4d" d="M360.65,-605.58C360.65,-605.58 360.65,-555.03 360.65,-555.03"/>
<polygon fill="#4d4d4d" stroke="#4d4d4d" points="363.1,-555.03 360.65,-548.03 358.2,-555.03 363.1,-555.03"/>
</g>
<!-- SW&#45;003_C&#45;&gt;SW&#45;006_B -->
<g id="edge11" class="edge">
<title>SW&#45;003_C&#45;&gt;SW&#45;006_B</title>
<path fill="none" stroke="#4d4d4d" d="M985.65,-201.58C985.65,-201.58 985.65,-151.03 985.65,-151.03"/>
<polygon fill="#4d4d4d" stroke="#4d4d4d" points="988.1,-151.03 985.65,-144.03 983.2,-151.03 988.1,-151.03"/>
</g>
<!-- SW&#45;004_A -->
<g id="node11" class="node">
<title>SW&#45;004_A</title>
<polygon fill="mediumseagreen" stroke="black" points="683.44,-548 564.46,-548 533.85,-505 652.83,-505 683.44,-548"/>
<text text-anchor="middle" x="608.65" y="-524" font-family="Arial" font-size="10.00">SW&#45;004_A</text>
</g>
<!-- SW&#45;004_A&#45;&gt;SW&#45;004_C -->
<g id="edge6" class="edge">
<title>SW&#45;004_A&#45;&gt;SW&#45;004_C</title>
<path fill="none" stroke="#4d4d4d" d="M539.5,-504.75C539.5,-420.73 539.5,-122 539.5,-122 539.5,-122 500.81,-122 500.81,-122"/>
<polygon fill="#4d4d4d" stroke="#4d4d4d" points="500.81,-119.55 493.81,-122 500.81,-124.45 500.81,-119.55"/>
</g>
<!-- SW&#45;004_A&#45;&gt;SW&#45;004_D -->
<g id="edge7" class="edge">
<title>SW&#45;004_A&#45;&gt;SW&#45;004_D</title>
<path fill="none" stroke="#4d4d4d" d="M591.1,-504.78C591.1,-504.78 591.1,-151.33 591.1,-151.33"/>
<polygon fill="#4d4d4d" stroke="#4d4d4d" points="593.55,-151.33 591.1,-144.33 588.65,-151.33 593.55,-151.33"/>
</g>
<!-- SW&#45;004_A&#45;&gt;SW&#45;004_B -->
<g id="edge5" class="edge">
<title>SW&#45;004_A&#45;&gt;SW&#45;004_B</title>
<path fill="none" stroke="#4d4d4d" d="M637.19,-504.97C637.19,-475.18 637.19,-425 637.19,-425 637.19,-425 720.75,-425 720.75,-425"/>
<polygon fill="#4d4d4d" stroke="#4d4d4d" points="720.75,-427.45 727.75,-425 720.75,-422.55 720.75,-427.45"/>
</g>
<!-- 109&#45;24&#45; -->
<g id="node12" class="node">
<title>109&#45;24&#45;</title>
<polygon fill="gold" stroke="black" points="522.65,-824.59 522.65,-842.41 480.47,-855 420.82,-855 378.65,-842.41 378.65,-824.59 420.82,-812 480.47,-812 522.65,-824.59"/>
<polygon fill="none" stroke="black" points="526.65,-821.61 526.65,-845.39 481.05,-859 420.24,-859 374.65,-845.39 374.65,-821.61 420.24,-808 481.05,-808 526.65,-821.61"/>
<text text-anchor="middle" x="450.65" y="-831" font-family="Arial" font-size="10.00">109&#45;24&#45;</text>
</g>
<!-- S&#45;309 -->
<g id="node17" class="node">
<title>S&#45;309</title>
<polygon fill="mediumseagreen" stroke="black" points="450.65,-750 378.65,-728.5 450.65,-707 522.65,-728.5 450.65,-750"/>
<text text-anchor="middle" x="450.65" y="-726" font-family="Arial" font-size="10.00">S&#45;309</text>
</g>
<!-- 109&#45;24&#45;&#45;&gt;S&#45;309 -->
<g id="edge1" class="edge">
<title>109&#45;24&#45;&#45;&gt;S&#45;309</title>
<path fill="none" stroke="#4d4d4d" d="M450.65,-807.81C450.65,-807.81 450.65,-757.03 450.65,-757.03"/>
<polygon fill="#4d4d4d" stroke="#4d4d4d" points="453.1,-757.03 450.65,-750.03 448.2,-757.03 453.1,-757.03"/>
</g>
<!-- S&#45;309A -->
<g id="node13" class="node">
<title>S&#45;309A</title>
<polygon fill="mediumseagreen" stroke="black" points="574.65,-649 502.65,-627.5 574.65,-606 646.65,-627.5 574.65,-649"/>
<text text-anchor="middle" x="574.65" y="-625" font-family="Arial" font-size="10.00">S&#45;309A</text>
</g>
<!-- S&#45;309A&#45;&gt;SW&#45;004_A -->
<g id="edge4" class="edge">
<title>S&#45;309A&#45;&gt;SW&#45;004_A</title>
<path fill="none" stroke="#4d4d4d" d="M590.32,-610.37C590.32,-610.37 590.32,-555.31 590.32,-555.31"/>
<polygon fill="#4d4d4d" stroke="#4d4d4d" points="592.77,-555.31 590.32,-548.31 587.87,-555.31 592.77,-555.31"/>
</g>
<!-- SW&#45;012_B -->
<g id="node14" class="node">
<title>SW&#45;012_B</title>
<polygon fill="tomato" stroke="black" points="515.44,-346 396.46,-346 365.85,-303 484.83,-303 515.44,-346"/>
<text text-anchor="middle" x="440.65" y="-322" font-family="Arial" font-size="10.00">SW&#45;012_B</text>
</g>
<!-- ext_circ_114_23_ -->
<g id="node21" class="node">
<title>ext_circ_114_23_</title>
<polygon fill="lightpink" stroke="darkorange" stroke-dasharray="5,2" points="512.65,-245 368.65,-245 368.65,-202 512.65,-202 512.65,-245"/>
<text text-anchor="middle" x="440.65" y="-226.5" font-family="Arial" font-size="10.00">Circuito:</text>
<text text-anchor="middle" x="440.65" y="-215.5" font-family="Arial" font-size="10.00">114&#45;23&#45;</text>
</g>
<!-- SW&#45;012_B&#45;&gt;ext_circ_114_23_ -->
<g id="edge23" class="edge">
<title>SW&#45;012_B&#45;&gt;ext_circ_114_23_</title>
<path fill="none" stroke="darkorange" stroke-dasharray="5,2" d="M440.65,-302.58C440.65,-302.58 440.65,-252.03 440.65,-252.03"/>
<polygon fill="darkorange" stroke="darkorange" points="443.1,-252.03 440.65,-245.03 438.2,-252.03 443.1,-252.03"/>
</g>
<!-- SW&#45;007_D&#45;&gt;ext_circ_109_27_ -->
<g id="edge22" class="edge">
<title>SW&#45;007_D&#45;&gt;ext_circ_109_27_</title>
<path fill="none" stroke="darkorange" stroke-dasharray="5,2" d="M74.65,-302.67C74.65,-233.08 74.65,-21 74.65,-21 74.65,-21 447.53,-21 447.53,-21"/>
<polygon fill="darkorange" stroke="darkorange" points="447.53,-23.45 454.53,-21 447.53,-18.55 447.53,-23.45"/>
</g>
<!-- SW&#45;007_A&#45;&gt;S&#45;2265 -->
<g id="edge17" class="edge">
<title>SW&#45;007_A&#45;&gt;S&#45;2265</title>
<path fill="none" stroke="#4d4d4d" d="M257.65,-403.58C257.65,-403.58 257.65,-353.03 257.65,-353.03"/>
<polygon fill="#4d4d4d" stroke="#4d4d4d" points="260.1,-353.03 257.65,-346.03 255.2,-353.03 260.1,-353.03"/>
</g>
<!-- SW&#45;007_A&#45;&gt;SW&#45;012_B -->
<g id="edge16" class="edge">
<title>SW&#45;007_A&#45;&gt;SW&#45;012_B</title>
<path fill="none" stroke="#4d4d4d" d="M316.01,-425C332.34,-425 345.65,-425 345.65,-425 345.65,-425 345.65,-324 345.65,-324 345.65,-324 373.75,-324 373.75,-324"/>
<polygon fill="#4d4d4d" stroke="#4d4d4d" points="373.75,-326.45 380.75,-324 373.75,-321.55 373.75,-326.45"/>
</g>
<!-- S&#45;309&#45;&gt;S&#45;309B -->
<g id="edge2" class="edge">
<title>S&#45;309&#45;&gt;S&#45;309B</title>
<path fill="none" stroke="#4d4d4d" d="M405.65,-720.23C405.65,-720.23 405.65,-642.6 405.65,-642.6"/>
<polygon fill="#4d4d4d" stroke="#4d4d4d" points="408.1,-642.6 405.65,-635.6 403.2,-642.6 408.1,-642.6"/>
</g>
<!-- S&#45;309&#45;&gt;S&#45;309A -->
<g id="edge3" class="edge">
<title>S&#45;309&#45;&gt;S&#45;309A</title>
<path fill="none" stroke="#4d4d4d" d="M512.65,-725.14C512.65,-725.14 512.65,-637.57 512.65,-637.57"/>
<polygon fill="#4d4d4d" stroke="#4d4d4d" points="515.1,-637.57 512.65,-630.57 510.2,-637.57 515.1,-637.57"/>
</g>
</g>
</svg>
