<?xml version="1.0" encoding="UTF-8" standalone="no"?>
<!DOCTYPE svg PUBLIC "-//W3C//DTD SVG 1.1//EN"
 "http://www.w3.org/Graphics/SVG/1.1/DTD/svg11.dtd">
<!-- Generated by graphviz version 2.50.0 (0)
 -->
<!-- Title: Grafo_Circuito_303_24_ Pages: 1 -->
<svg width="1353pt" height="1069pt"
 viewBox="0.00 0.00 1353.00 1069.00" xmlns="http://www.w3.org/2000/svg" xmlns:xlink="http://www.w3.org/1999/xlink">
<g id="graph0" class="graph" transform="scale(1 1) rotate(0) translate(4 1065)">
<title>Grafo_Circuito_303_24_</title>
<polygon fill="white" stroke="transparent" points="-4,4 -4,-1065 1349,-1065 1349,4 -4,4"/>
<!-- S&#45;256 -->
<g id="node1" class="node">
<title>S&#45;256</title>
<polygon fill="mediumseagreen" stroke="black" points="1003,-447 931,-425.5 1003,-404 1075,-425.5 1003,-447"/>
<text text-anchor="middle" x="1003" y="-423" font-family="Arial" font-size="10.00">S&#45;256</text>
</g>
<!-- C&#45;0889 -->
<g id="node2" class="node">
<title>C&#45;0889</title>
<ellipse fill="tomato" stroke="black" cx="169" cy="-728.5" rx="72" ry="21.5"/>
<text text-anchor="middle" x="169" y="-726" font-family="Arial" font-size="10.00">C&#45;0889</text>
</g>
<!-- C&#45;0888 -->
<g id="node20" class="node">
<title>C&#45;0888</title>
<ellipse fill="mediumseagreen" stroke="black" cx="283" cy="-526.5" rx="72" ry="21.5"/>
<text text-anchor="middle" x="283" y="-524" font-family="Arial" font-size="10.00">C&#45;0888</text>
</g>
<!-- C&#45;0889&#45;&gt;C&#45;0888 -->
<g id="edge41" class="edge">
<title>C&#45;0889&#45;&gt;C&#45;0888</title>
<path fill="none" stroke="blue" stroke-dasharray="5,2" d="M226,-715.25C226,-715.25 226,-546.8 226,-546.8"/>
<polygon fill="blue" stroke="blue" points="228.45,-546.8 226,-539.8 223.55,-546.8 228.45,-546.8"/>
</g>
<!-- R&#45;009 -->
<g id="node3" class="node">
<title>R&#45;009</title>
<polygon fill="mediumseagreen" stroke="black" points="535,-315.59 535,-333.41 492.82,-346 433.18,-346 391,-333.41 391,-315.59 433.18,-303 492.82,-303 535,-315.59"/>
<text text-anchor="middle" x="463" y="-322" font-family="Arial" font-size="10.00">R&#45;009</text>
</g>
<!-- C&#45;0529 -->
<g id="node16" class="node">
<title>C&#45;0529</title>
<ellipse fill="mediumseagreen" stroke="black" cx="463" cy="-223.5" rx="72" ry="21.5"/>
<text text-anchor="middle" x="463" y="-221" font-family="Arial" font-size="10.00">C&#45;0529</text>
</g>
<!-- R&#45;009&#45;&gt;C&#45;0529 -->
<g id="edge11" class="edge">
<title>R&#45;009&#45;&gt;C&#45;0529</title>
<path fill="none" stroke="#4d4d4d" d="M463,-302.58C463,-302.58 463,-252.03 463,-252.03"/>
<polygon fill="#4d4d4d" stroke="#4d4d4d" points="465.45,-252.03 463,-245.03 460.55,-252.03 465.45,-252.03"/>
</g>
<!-- R&#45;206 -->
<g id="node4" class="node">
<title>R&#45;206</title>
<polygon fill="mediumseagreen" stroke="black" points="408,-618.59 408,-636.41 365.82,-649 306.18,-649 264,-636.41 264,-618.59 306.18,-606 365.82,-606 408,-618.59"/>
<text text-anchor="middle" x="336" y="-625" font-family="Arial" font-size="10.00">R&#45;206</text>
</g>
<!-- R&#45;206&#45;&gt;C&#45;0888 -->
<g id="edge31" class="edge">
<title>R&#45;206&#45;&gt;C&#45;0888</title>
<path fill="none" stroke="#4d4d4d" d="M309.5,-605.58C309.5,-605.58 309.5,-553.66 309.5,-553.66"/>
<polygon fill="#4d4d4d" stroke="#4d4d4d" points="311.95,-553.66 309.5,-546.66 307.05,-553.66 311.95,-553.66"/>
</g>
<!-- S&#45;262 -->
<g id="node5" class="node">
<title>S&#45;262</title>
<polygon fill="mediumseagreen" stroke="black" points="1183,-447 1111,-425.5 1183,-404 1255,-425.5 1183,-447"/>
<text text-anchor="middle" x="1183" y="-423" font-family="Arial" font-size="10.00">S&#45;262</text>
</g>
<!-- S&#45;263 -->
<g id="node19" class="node">
<title>S&#45;263</title>
<polygon fill="mediumseagreen" stroke="black" points="1093,-346 1021,-324.5 1093,-303 1165,-324.5 1093,-346"/>
<text text-anchor="middle" x="1093" y="-322" font-family="Arial" font-size="10.00">S&#45;263</text>
</g>
<!-- S&#45;262&#45;&gt;S&#45;263 -->
<g id="edge20" class="edge">
<title>S&#45;262&#45;&gt;S&#45;263</title>
<path fill="none" stroke="#4d4d4d" d="M1138,-417.23C1138,-417.23 1138,-339.6 1138,-339.6"/>
<polygon fill="#4d4d4d" stroke="#4d4d4d" points="1140.45,-339.6 1138,-332.6 1135.55,-339.6 1140.45,-339.6"/>
</g>
<!-- C&#45;0126 -->
<g id="node31" class="node">
<title>C&#45;0126</title>
<ellipse fill="tomato" stroke="black" cx="1273" cy="-324.5" rx="72" ry="21.5"/>
<text text-anchor="middle" x="1273" y="-322" font-family="Arial" font-size="10.00">C&#45;0126</text>
</g>
<!-- S&#45;262&#45;&gt;C&#45;0126 -->
<g id="edge19" class="edge">
<title>S&#45;262&#45;&gt;C&#45;0126</title>
<path fill="none" stroke="#4d4d4d" d="M1228,-417.23C1228,-417.23 1228,-348.52 1228,-348.52"/>
<polygon fill="#4d4d4d" stroke="#4d4d4d" points="1230.45,-348.52 1228,-341.52 1225.55,-348.52 1230.45,-348.52"/>
</g>
<!-- S&#45;1873 -->
<g id="node6" class="node">
<title>S&#45;1873</title>
<polygon fill="mediumseagreen" stroke="black" points="283,-43 211,-21.5 283,0 355,-21.5 283,-43"/>
<text text-anchor="middle" x="283" y="-19" font-family="Arial" font-size="10.00">S&#45;1873</text>
</g>
<!-- C&#45;0486 -->
<g id="node7" class="node">
<title>C&#45;0486</title>
<ellipse fill="mediumseagreen" stroke="black" cx="349" cy="-829.5" rx="72" ry="21.5"/>
<text text-anchor="middle" x="349" y="-827" font-family="Arial" font-size="10.00">C&#45;0486</text>
</g>
<!-- C&#45;0486&#45;&gt;C&#45;0889 -->
<g id="edge28" class="edge">
<title>C&#45;0486&#45;&gt;C&#45;0889</title>
<path fill="none" stroke="#4d4d4d" d="M276.82,-829C226.75,-829 169,-829 169,-829 169,-829 169,-757.31 169,-757.31"/>
<polygon fill="#4d4d4d" stroke="#4d4d4d" points="171.45,-757.31 169,-750.31 166.55,-757.31 171.45,-757.31"/>
</g>
<!-- C&#45;0890 -->
<g id="node25" class="node">
<title>C&#45;0890</title>
<ellipse fill="mediumseagreen" stroke="black" cx="349" cy="-728.5" rx="72" ry="21.5"/>
<text text-anchor="middle" x="349" y="-726" font-family="Arial" font-size="10.00">C&#45;0890</text>
</g>
<!-- C&#45;0486&#45;&gt;C&#45;0890 -->
<g id="edge29" class="edge">
<title>C&#45;0486&#45;&gt;C&#45;0890</title>
<path fill="none" stroke="#4d4d4d" d="M349,-807.58C349,-807.58 349,-757.03 349,-757.03"/>
<polygon fill="#4d4d4d" stroke="#4d4d4d" points="351.45,-757.03 349,-750.03 346.55,-757.03 351.45,-757.03"/>
</g>
<!-- C&#45;0531 -->
<g id="node8" class="node">
<title>C&#45;0531</title>
<ellipse fill="mediumseagreen" stroke="black" cx="463" cy="-425.5" rx="72" ry="21.5"/>
<text text-anchor="middle" x="463" y="-423" font-family="Arial" font-size="10.00">C&#45;0531</text>
</g>
<!-- C&#45;0531&#45;&gt;R&#45;009 -->
<g id="edge10" class="edge">
<title>C&#45;0531&#45;&gt;R&#45;009</title>
<path fill="none" stroke="#4d4d4d" d="M463,-403.58C463,-403.58 463,-353.03 463,-353.03"/>
<polygon fill="#4d4d4d" stroke="#4d4d4d" points="465.45,-353.03 463,-346.03 460.55,-353.03 465.45,-353.03"/>
</g>
<!-- S&#45;2096 -->
<g id="node9" class="node">
<title>S&#45;2096</title>
<polygon fill="mediumseagreen" stroke="black" points="913,-245 841,-223.5 913,-202 985,-223.5 913,-245"/>
<text text-anchor="middle" x="913" y="-221" font-family="Arial" font-size="10.00">S&#45;2096</text>
</g>
<!-- C&#45;0040 -->
<g id="node10" class="node">
<title>C&#45;0040</title>
<ellipse fill="tomato" stroke="black" cx="72" cy="-324.5" rx="72" ry="21.5"/>
<text text-anchor="middle" x="72" y="-322" font-family="Arial" font-size="10.00">C&#45;0040</text>
</g>
<!-- ext_circ_303_27_ -->
<g id="node38" class="node">
<title>ext_circ_303_27_</title>
<polygon fill="lightpink" stroke="darkorange" stroke-dasharray="5,2" points="292,-144 148,-144 148,-101 292,-101 292,-144"/>
<text text-anchor="middle" x="220" y="-125.5" font-family="Arial" font-size="10.00">Circuito:</text>
<text text-anchor="middle" x="220" y="-114.5" font-family="Arial" font-size="10.00">303&#45;27&#45;</text>
</g>
<!-- C&#45;0040&#45;&gt;ext_circ_303_27_ -->
<g id="edge42" class="edge">
<title>C&#45;0040&#45;&gt;ext_circ_303_27_</title>
<path fill="none" stroke="darkorange" stroke-dasharray="5,2" d="M141.01,-331C150.74,-331 157.5,-331 157.5,-331 157.5,-331 157.5,-151.03 157.5,-151.03"/>
<polygon fill="darkorange" stroke="darkorange" points="159.95,-151.03 157.5,-144.03 155.05,-151.03 159.95,-151.03"/>
</g>
<!-- 303&#45;24&#45; -->
<g id="node11" class="node">
<title>303&#45;24&#45;</title>
<polygon fill="gold" stroke="black" points="548,-1026.59 548,-1044.41 505.82,-1057 446.18,-1057 404,-1044.41 404,-1026.59 446.18,-1014 505.82,-1014 548,-1026.59"/>
<polygon fill="none" stroke="black" points="552,-1023.61 552,-1047.39 506.41,-1061 445.59,-1061 400,-1047.39 400,-1023.61 445.59,-1010 506.41,-1010 552,-1023.61"/>
<text text-anchor="middle" x="476" y="-1033" font-family="Arial" font-size="10.00">303&#45;24&#45;</text>
</g>
<!-- C&#45;0170 -->
<g id="node33" class="node">
<title>C&#45;0170</title>
<ellipse fill="mediumseagreen" stroke="black" cx="476" cy="-930.5" rx="72" ry="21.5"/>
<text text-anchor="middle" x="476" y="-928" font-family="Arial" font-size="10.00">C&#45;0170</text>
</g>
<!-- 303&#45;24&#45;&#45;&gt;C&#45;0170 -->
<g id="edge2" class="edge">
<title>303&#45;24&#45;&#45;&gt;C&#45;0170</title>
<path fill="none" stroke="#4d4d4d" d="M476,-1009.81C476,-1009.81 476,-959.03 476,-959.03"/>
<polygon fill="#4d4d4d" stroke="#4d4d4d" points="478.45,-959.03 476,-952.03 473.55,-959.03 478.45,-959.03"/>
</g>
<!-- C&#45;0006 -->
<g id="node12" class="node">
<title>C&#45;0006</title>
<ellipse fill="mediumseagreen" stroke="black" cx="103" cy="-425.5" rx="72" ry="21.5"/>
<text text-anchor="middle" x="103" y="-423" font-family="Arial" font-size="10.00">C&#45;0006</text>
</g>
<!-- C&#45;0006&#45;&gt;C&#45;0040 -->
<g id="edge34" class="edge">
<title>C&#45;0006&#45;&gt;C&#45;0040</title>
<path fill="none" stroke="#4d4d4d" d="M87.5,-404.08C87.5,-404.08 87.5,-352.54 87.5,-352.54"/>
<polygon fill="#4d4d4d" stroke="#4d4d4d" points="89.95,-352.54 87.5,-345.54 85.05,-352.54 89.95,-352.54"/>
</g>
<!-- C&#45;1136 -->
<g id="node14" class="node">
<title>C&#45;1136</title>
<ellipse fill="mediumseagreen" stroke="black" cx="252" cy="-324.5" rx="72" ry="21.5"/>
<text text-anchor="middle" x="252" y="-322" font-family="Arial" font-size="10.00">C&#45;1136</text>
</g>
<!-- C&#45;0006&#45;&gt;C&#45;1136 -->
<g id="edge35" class="edge">
<title>C&#45;0006&#45;&gt;C&#45;1136</title>
<path fill="none" stroke="#4d4d4d" d="M171,-418.38C171,-394.24 171,-317 171,-317 171,-317 177.38,-317 177.38,-317"/>
<polygon fill="#4d4d4d" stroke="#4d4d4d" points="177.38,-319.45 184.38,-317 177.38,-314.55 177.38,-319.45"/>
</g>
<!-- S&#45;950 -->
<g id="node13" class="node">
<title>S&#45;950</title>
<polygon fill="mediumseagreen" stroke="black" points="618,-750 546,-728.5 618,-707 690,-728.5 618,-750"/>
<text text-anchor="middle" x="618" y="-726" font-family="Arial" font-size="10.00">S&#45;950</text>
</g>
<!-- S&#45;1719 -->
<g id="node26" class="node">
<title>S&#45;1719</title>
<polygon fill="tomato" stroke="black" points="618,-649 546,-627.5 618,-606 690,-627.5 618,-649"/>
<text text-anchor="middle" x="618" y="-625" font-family="Arial" font-size="10.00">S&#45;1719</text>
</g>
<!-- S&#45;950&#45;&gt;S&#45;1719 -->
<g id="edge26" class="edge">
<title>S&#45;950&#45;&gt;S&#45;1719</title>
<path fill="none" stroke="#4d4d4d" d="M618,-706.58C618,-706.58 618,-656.03 618,-656.03"/>
<polygon fill="#4d4d4d" stroke="#4d4d4d" points="620.45,-656.03 618,-649.03 615.55,-656.03 620.45,-656.03"/>
</g>
<!-- R&#45;286 -->
<g id="node17" class="node">
<title>R&#45;286</title>
<polygon fill="tomato" stroke="black" points="311,-214.59 311,-232.41 268.82,-245 209.18,-245 167,-232.41 167,-214.59 209.18,-202 268.82,-202 311,-214.59"/>
<text text-anchor="middle" x="239" y="-221" font-family="Arial" font-size="10.00">R&#45;286</text>
</g>
<!-- C&#45;1136&#45;&gt;R&#45;286 -->
<g id="edge25" class="edge">
<title>C&#45;1136&#45;&gt;R&#45;286</title>
<path fill="none" stroke="#4d4d4d" d="M245.5,-303.08C245.5,-303.08 245.5,-252.24 245.5,-252.24"/>
<polygon fill="#4d4d4d" stroke="#4d4d4d" points="247.95,-252.24 245.5,-245.24 243.05,-252.24 247.95,-252.24"/>
</g>
<!-- S&#45;1448 -->
<g id="node15" class="node">
<title>S&#45;1448</title>
<polygon fill="mediumseagreen" stroke="black" points="798,-750 726,-728.5 798,-707 870,-728.5 798,-750"/>
<text text-anchor="middle" x="798" y="-726" font-family="Arial" font-size="10.00">S&#45;1448</text>
</g>
<!-- S&#45;945 -->
<g id="node34" class="node">
<title>S&#45;945</title>
<polygon fill="mediumseagreen" stroke="black" points="463,-144 391,-122.5 463,-101 535,-122.5 463,-144"/>
<text text-anchor="middle" x="463" y="-120" font-family="Arial" font-size="10.00">S&#45;945</text>
</g>
<!-- C&#45;0529&#45;&gt;S&#45;945 -->
<g id="edge12" class="edge">
<title>C&#45;0529&#45;&gt;S&#45;945</title>
<path fill="none" stroke="#4d4d4d" d="M463,-201.58C463,-201.58 463,-151.03 463,-151.03"/>
<polygon fill="#4d4d4d" stroke="#4d4d4d" points="465.45,-151.03 463,-144.03 460.55,-151.03 465.45,-151.03"/>
</g>
<!-- R&#45;286&#45;&gt;ext_circ_303_27_ -->
<g id="edge39" class="edge">
<title>R&#45;286&#45;&gt;ext_circ_303_27_</title>
<path fill="none" stroke="darkorange" stroke-dasharray="5,2" d="M229.5,-201.58C229.5,-201.58 229.5,-151.03 229.5,-151.03"/>
<polygon fill="darkorange" stroke="darkorange" points="231.95,-151.03 229.5,-144.03 227.05,-151.03 231.95,-151.03"/>
</g>
<!-- C&#45;0530 -->
<g id="node18" class="node">
<title>C&#45;0530</title>
<ellipse fill="tomato" stroke="black" cx="643" cy="-425.5" rx="72" ry="21.5"/>
<text text-anchor="middle" x="643" y="-423" font-family="Arial" font-size="10.00">C&#45;0530</text>
</g>
<!-- C&#45;0530&#45;&gt;C&#45;0529 -->
<g id="edge36" class="edge">
<title>C&#45;0530&#45;&gt;C&#45;0529</title>
<path fill="none" stroke="blue" stroke-dasharray="5,2" d="M619,-404.97C619,-353.49 619,-223 619,-223 619,-223 542.06,-223 542.06,-223"/>
<polygon fill="blue" stroke="blue" points="542.06,-220.55 535.06,-223 542.06,-225.45 542.06,-220.55"/>
</g>
<!-- S&#45;263&#45;&gt;S&#45;2096 -->
<g id="edge21" class="edge">
<title>S&#45;263&#45;&gt;S&#45;2096</title>
<path fill="none" stroke="#4d4d4d" d="M1022.34,-324C989.67,-324 958,-324 958,-324 958,-324 958,-238.72 958,-238.72"/>
<polygon fill="#4d4d4d" stroke="#4d4d4d" points="960.45,-238.72 958,-231.72 955.55,-238.72 960.45,-238.72"/>
</g>
<!-- S&#45;1842 -->
<g id="node21" class="node">
<title>S&#45;1842</title>
<polygon fill="mediumseagreen" stroke="black" points="1093,-245 1021,-223.5 1093,-202 1165,-223.5 1093,-245"/>
<text text-anchor="middle" x="1093" y="-221" font-family="Arial" font-size="10.00">S&#45;1842</text>
</g>
<!-- S&#45;263&#45;&gt;S&#45;1842 -->
<g id="edge22" class="edge">
<title>S&#45;263&#45;&gt;S&#45;1842</title>
<path fill="none" stroke="#4d4d4d" d="M1093,-302.58C1093,-302.58 1093,-252.03 1093,-252.03"/>
<polygon fill="#4d4d4d" stroke="#4d4d4d" points="1095.45,-252.03 1093,-245.03 1090.55,-252.03 1095.45,-252.03"/>
</g>
<!-- C&#45;0888&#45;&gt;C&#45;0006 -->
<g id="edge33" class="edge">
<title>C&#45;0888&#45;&gt;C&#45;0006</title>
<path fill="none" stroke="#4d4d4d" d="M210.79,-526C173.62,-526 136,-526 136,-526 136,-526 136,-451.88 136,-451.88"/>
<polygon fill="#4d4d4d" stroke="#4d4d4d" points="138.45,-451.88 136,-444.88 133.55,-451.88 138.45,-451.88"/>
</g>
<!-- S&#45;254 -->
<g id="node36" class="node">
<title>S&#45;254</title>
<polygon fill="mediumseagreen" stroke="black" points="283,-447 211,-425.5 283,-404 355,-425.5 283,-447"/>
<text text-anchor="middle" x="283" y="-423" font-family="Arial" font-size="10.00">S&#45;254</text>
</g>
<!-- C&#45;0888&#45;&gt;S&#45;254 -->
<g id="edge32" class="edge">
<title>C&#45;0888&#45;&gt;S&#45;254</title>
<path fill="none" stroke="#4d4d4d" d="M283,-504.58C283,-504.58 283,-454.03 283,-454.03"/>
<polygon fill="#4d4d4d" stroke="#4d4d4d" points="285.45,-454.03 283,-447.03 280.55,-454.03 285.45,-454.03"/>
</g>
<!-- S&#45;1626 -->
<g id="node22" class="node">
<title>S&#45;1626</title>
<polygon fill="mediumseagreen" stroke="black" points="981,-649 909,-627.5 981,-606 1053,-627.5 981,-649"/>
<text text-anchor="middle" x="981" y="-625" font-family="Arial" font-size="10.00">S&#45;1626</text>
</g>
<!-- S&#45;1622 -->
<g id="node27" class="node">
<title>S&#45;1622</title>
<polygon fill="mediumseagreen" stroke="black" points="751,-548 679,-526.5 751,-505 823,-526.5 751,-548"/>
<text text-anchor="middle" x="751" y="-524" font-family="Arial" font-size="10.00">S&#45;1622</text>
</g>
<!-- S&#45;1626&#45;&gt;S&#45;1622 -->
<g id="edge7" class="edge">
<title>S&#45;1626&#45;&gt;S&#45;1622</title>
<path fill="none" stroke="#4d4d4d" d="M915.67,-625.38C915.67,-610.8 915.67,-526 915.67,-526 915.67,-526 828.79,-526 828.79,-526"/>
<polygon fill="#4d4d4d" stroke="#4d4d4d" points="828.79,-523.55 821.79,-526 828.79,-528.45 828.79,-523.55"/>
</g>
<!-- R&#45;008 -->
<g id="node28" class="node">
<title>R&#45;008</title>
<polygon fill="mediumseagreen" stroke="black" points="1073,-517.59 1073,-535.41 1030.82,-548 971.18,-548 929,-535.41 929,-517.59 971.18,-505 1030.82,-505 1073,-517.59"/>
<text text-anchor="middle" x="1001" y="-524" font-family="Arial" font-size="10.00">R&#45;008</text>
</g>
<!-- S&#45;1626&#45;&gt;R&#45;008 -->
<g id="edge17" class="edge">
<title>S&#45;1626&#45;&gt;R&#45;008</title>
<path fill="none" stroke="#4d4d4d" d="M991,-608.98C991,-608.98 991,-555.06 991,-555.06"/>
<polygon fill="#4d4d4d" stroke="#4d4d4d" points="993.45,-555.06 991,-548.06 988.55,-555.06 993.45,-555.06"/>
</g>
<!-- S&#45;1715 -->
<g id="node35" class="node">
<title>S&#45;1715</title>
<polygon fill="mediumseagreen" stroke="black" points="1181,-548 1109,-526.5 1181,-505 1253,-526.5 1181,-548"/>
<text text-anchor="middle" x="1181" y="-524" font-family="Arial" font-size="10.00">S&#45;1715</text>
</g>
<!-- S&#45;1626&#45;&gt;S&#45;1715 -->
<g id="edge6" class="edge">
<title>S&#45;1626&#45;&gt;S&#45;1715</title>
<path fill="none" stroke="#4d4d4d" d="M1051.51,-627C1109.09,-627 1181,-627 1181,-627 1181,-627 1181,-555.31 1181,-555.31"/>
<polygon fill="#4d4d4d" stroke="#4d4d4d" points="1183.45,-555.31 1181,-548.31 1178.55,-555.31 1183.45,-555.31"/>
</g>
<!-- S&#45;1800 -->
<g id="node23" class="node">
<title>S&#45;1800</title>
<polygon fill="mediumseagreen" stroke="black" points="463,-43 391,-21.5 463,0 535,-21.5 463,-43"/>
<text text-anchor="middle" x="463" y="-19" font-family="Arial" font-size="10.00">S&#45;1800</text>
</g>
<!-- S&#45;2125 -->
<g id="node24" class="node">
<title>S&#45;2125</title>
<polygon fill="mediumseagreen" stroke="black" points="643,-43 571,-21.5 643,0 715,-21.5 643,-43"/>
<text text-anchor="middle" x="643" y="-19" font-family="Arial" font-size="10.00">S&#45;2125</text>
</g>
<!-- C&#45;0890&#45;&gt;R&#45;206 -->
<g id="edge30" class="edge">
<title>C&#45;0890&#45;&gt;R&#45;206</title>
<path fill="none" stroke="#4d4d4d" d="M342.5,-707.08C342.5,-707.08 342.5,-656.24 342.5,-656.24"/>
<polygon fill="#4d4d4d" stroke="#4d4d4d" points="344.95,-656.24 342.5,-649.24 340.05,-656.24 344.95,-656.24"/>
</g>
<!-- S&#45;1719&#45;&gt;C&#45;0486 -->
<g id="edge40" class="edge">
<title>S&#45;1719&#45;&gt;C&#45;0486</title>
<path fill="none" stroke="blue" stroke-dasharray="5,2" d="M547.33,-627C504.87,-627 459,-627 459,-627 459,-627 459,-836 459,-836 459,-836 424.73,-836 424.73,-836"/>
<polygon fill="blue" stroke="blue" points="424.73,-833.55 417.73,-836 424.73,-838.45 424.73,-833.55"/>
</g>
<!-- S&#45;1622&#45;&gt;C&#45;0531 -->
<g id="edge8" class="edge">
<title>S&#45;1622&#45;&gt;C&#45;0531</title>
<path fill="none" stroke="#4d4d4d" d="M680.58,-526C605.41,-526 497,-526 497,-526 497,-526 497,-451.88 497,-451.88"/>
<polygon fill="#4d4d4d" stroke="#4d4d4d" points="499.45,-451.88 497,-444.88 494.55,-451.88 499.45,-451.88"/>
</g>
<!-- S&#45;1622&#45;&gt;C&#45;0530 -->
<g id="edge9" class="edge">
<title>S&#45;1622&#45;&gt;C&#45;0530</title>
<path fill="none" stroke="#4d4d4d" d="M697,-521.07C697,-521.07 697,-446.98 697,-446.98"/>
<polygon fill="#4d4d4d" stroke="#4d4d4d" points="699.45,-446.98 697,-439.98 694.55,-446.98 699.45,-446.98"/>
</g>
<!-- S&#45;2170 -->
<g id="node29" class="node">
<title>S&#45;2170</title>
<polygon fill="tomato" stroke="black" points="823,-447 751,-425.5 823,-404 895,-425.5 823,-447"/>
<text text-anchor="middle" x="823" y="-423" font-family="Arial" font-size="10.00">S&#45;2170</text>
</g>
<!-- S&#45;1622&#45;&gt;S&#45;2170 -->
<g id="edge16" class="edge">
<title>S&#45;1622&#45;&gt;S&#45;2170</title>
<path fill="none" stroke="#4d4d4d" d="M787,-515.69C787,-515.69 787,-443.54 787,-443.54"/>
<polygon fill="#4d4d4d" stroke="#4d4d4d" points="789.45,-443.54 787,-436.54 784.55,-443.54 789.45,-443.54"/>
</g>
<!-- R&#45;008&#45;&gt;S&#45;256 -->
<g id="edge1" class="edge">
<title>R&#45;008&#45;&gt;S&#45;256</title>
<path fill="none" stroke="#4d4d4d" d="M1002,-504.58C1002,-504.58 1002,-454.03 1002,-454.03"/>
<polygon fill="#4d4d4d" stroke="#4d4d4d" points="1004.45,-454.03 1002,-447.03 999.55,-454.03 1004.45,-454.03"/>
</g>
<!-- R&#45;008&#45;&gt;S&#45;262 -->
<g id="edge18" class="edge">
<title>R&#45;008&#45;&gt;S&#45;262</title>
<path fill="none" stroke="#4d4d4d" d="M1073.14,-526C1084.19,-526 1092,-526 1092,-526 1092,-526 1092,-425 1092,-425 1092,-425 1105.65,-425 1105.65,-425"/>
<polygon fill="#4d4d4d" stroke="#4d4d4d" points="1105.65,-427.45 1112.65,-425 1105.65,-422.55 1105.65,-427.45"/>
</g>
<!-- S&#45;2170&#45;&gt;S&#45;1626 -->
<g id="edge37" class="edge">
<title>S&#45;2170&#45;&gt;S&#45;1626</title>
<path fill="none" stroke="blue" stroke-dasharray="5,2" d="M893.33,-425C909.64,-425 922.33,-425 922.33,-425 922.33,-425 922.33,-616.27 922.33,-616.27"/>
<polygon fill="blue" stroke="blue" points="919.88,-616.27 922.33,-623.27 924.78,-616.27 919.88,-616.27"/>
</g>
<!-- C&#45;0005 -->
<g id="node30" class="node">
<title>C&#45;0005</title>
<ellipse fill="mediumseagreen" stroke="black" cx="708" cy="-829.5" rx="72" ry="21.5"/>
<text text-anchor="middle" x="708" y="-827" font-family="Arial" font-size="10.00">C&#45;0005</text>
</g>
<!-- C&#45;0005&#45;&gt;S&#45;950 -->
<g id="edge24" class="edge">
<title>C&#45;0005&#45;&gt;S&#45;950</title>
<path fill="none" stroke="#4d4d4d" d="M663,-812.37C663,-812.37 663,-743.78 663,-743.78"/>
<polygon fill="#4d4d4d" stroke="#4d4d4d" points="665.45,-743.78 663,-736.78 660.55,-743.78 665.45,-743.78"/>
</g>
<!-- C&#45;0005&#45;&gt;S&#45;1448 -->
<g id="edge23" class="edge">
<title>C&#45;0005&#45;&gt;S&#45;1448</title>
<path fill="none" stroke="#4d4d4d" d="M753,-812.37C753,-812.37 753,-743.78 753,-743.78"/>
<polygon fill="#4d4d4d" stroke="#4d4d4d" points="755.45,-743.78 753,-736.78 750.55,-743.78 755.45,-743.78"/>
</g>
<!-- S&#45;944 -->
<g id="node32" class="node">
<title>S&#45;944</title>
<polygon fill="mediumseagreen" stroke="black" points="980,-750 908,-728.5 980,-707 1052,-728.5 980,-750"/>
<text text-anchor="middle" x="980" y="-726" font-family="Arial" font-size="10.00">S&#45;944</text>
</g>
<!-- C&#45;0005&#45;&gt;S&#45;944 -->
<g id="edge4" class="edge">
<title>C&#45;0005&#45;&gt;S&#45;944</title>
<path fill="none" stroke="#4d4d4d" d="M780.18,-829C860.76,-829 980,-829 980,-829 980,-829 980,-757.31 980,-757.31"/>
<polygon fill="#4d4d4d" stroke="#4d4d4d" points="982.45,-757.31 980,-750.31 977.55,-757.31 982.45,-757.31"/>
</g>
<!-- ext_circ_303_23_ -->
<g id="node37" class="node">
<title>ext_circ_303_23_</title>
<polygon fill="lightpink" stroke="darkorange" stroke-dasharray="5,2" points="1345,-245 1201,-245 1201,-202 1345,-202 1345,-245"/>
<text text-anchor="middle" x="1273" y="-226.5" font-family="Arial" font-size="10.00">Circuito:</text>
<text text-anchor="middle" x="1273" y="-215.5" font-family="Arial" font-size="10.00">303&#45;23&#45;</text>
</g>
<!-- C&#45;0126&#45;&gt;ext_circ_303_23_ -->
<g id="edge38" class="edge">
<title>C&#45;0126&#45;&gt;ext_circ_303_23_</title>
<path fill="none" stroke="darkorange" stroke-dasharray="5,2" d="M1273,-302.58C1273,-302.58 1273,-252.03 1273,-252.03"/>
<polygon fill="darkorange" stroke="darkorange" points="1275.45,-252.03 1273,-245.03 1270.55,-252.03 1275.45,-252.03"/>
</g>
<!-- S&#45;944&#45;&gt;S&#45;1626 -->
<g id="edge5" class="edge">
<title>S&#45;944&#45;&gt;S&#45;1626</title>
<path fill="none" stroke="#4d4d4d" d="M980.5,-707.08C980.5,-707.08 980.5,-655.89 980.5,-655.89"/>
<polygon fill="#4d4d4d" stroke="#4d4d4d" points="982.95,-655.89 980.5,-648.89 978.05,-655.89 982.95,-655.89"/>
</g>
<!-- C&#45;0170&#45;&gt;C&#45;0486 -->
<g id="edge27" class="edge">
<title>C&#45;0170&#45;&gt;C&#45;0486</title>
<path fill="none" stroke="#4d4d4d" d="M412.5,-920.07C412.5,-920.07 412.5,-846.72 412.5,-846.72"/>
<polygon fill="#4d4d4d" stroke="#4d4d4d" points="414.95,-846.72 412.5,-839.72 410.05,-846.72 414.95,-846.72"/>
</g>
<!-- C&#45;0170&#45;&gt;C&#45;0005 -->
<g id="edge3" class="edge">
<title>C&#45;0170&#45;&gt;C&#45;0005</title>
<path fill="none" stroke="#4d4d4d" d="M540.5,-920.87C540.5,-894.32 540.5,-822 540.5,-822 540.5,-822 633.35,-822 633.35,-822"/>
<polygon fill="#4d4d4d" stroke="#4d4d4d" points="633.35,-824.45 640.35,-822 633.35,-819.55 633.35,-824.45"/>
</g>
<!-- S&#45;945&#45;&gt;S&#45;1873 -->
<g id="edge14" class="edge">
<title>S&#45;945&#45;&gt;S&#45;1873</title>
<path fill="none" stroke="#4d4d4d" d="M392.59,-122C364.86,-122 339.5,-122 339.5,-122 339.5,-122 339.5,-33.35 339.5,-33.35"/>
<polygon fill="#4d4d4d" stroke="#4d4d4d" points="341.95,-33.35 339.5,-26.35 337.05,-33.35 341.95,-33.35"/>
</g>
<!-- S&#45;945&#45;&gt;S&#45;1800 -->
<g id="edge13" class="edge">
<title>S&#45;945&#45;&gt;S&#45;1800</title>
<path fill="none" stroke="#4d4d4d" d="M463,-100.58C463,-100.58 463,-50.03 463,-50.03"/>
<polygon fill="#4d4d4d" stroke="#4d4d4d" points="465.45,-50.03 463,-43.03 460.55,-50.03 465.45,-50.03"/>
</g>
<!-- S&#45;945&#45;&gt;S&#45;2125 -->
<g id="edge15" class="edge">
<title>S&#45;945&#45;&gt;S&#45;2125</title>
<path fill="none" stroke="#4d4d4d" d="M533.49,-122C592.46,-122 667,-122 667,-122 667,-122 667,-42.9 667,-42.9"/>
<polygon fill="#4d4d4d" stroke="#4d4d4d" points="669.45,-42.9 667,-35.9 664.55,-42.9 669.45,-42.9"/>
</g>
</g>
</svg>
