<?xml version="1.0" encoding="UTF-8" standalone="no"?>
<!DOCTYPE svg PUBLIC "-//W3C//DTD SVG 1.1//EN"
 "http://www.w3.org/Graphics/SVG/1.1/DTD/svg11.dtd">
<!-- Generated by graphviz version 2.50.0 (0)
 -->
<!-- Title: Grafo_Circuito_206_25_ Pages: 1 -->
<svg width="2084pt" height="1556pt"
 viewBox="0.00 0.00 2084.00 1556.00" xmlns="http://www.w3.org/2000/svg" xmlns:xlink="http://www.w3.org/1999/xlink">
<g id="graph0" class="graph" transform="scale(1 1) rotate(0) translate(4 1552)">
<title>Grafo_Circuito_206_25_</title>
<polygon fill="white" stroke="transparent" points="-4,4 -4,-1552 2080,-1552 2080,4 -4,4"/>
<!-- R&#45;049 -->
<g id="node1" class="node">
<title>R&#45;049</title>
<polygon fill="mediumseagreen" stroke="black" points="483,-1044.54 483,-1059.46 442.87,-1070 386.13,-1070 346,-1059.46 346,-1044.54 386.13,-1034 442.87,-1034 483,-1044.54"/>
<text text-anchor="middle" x="414.5" y="-1050.1" font-family="Helvetica,sans-Serif" font-size="8.00">R&#45;049</text>
</g>
<!-- S&#45;1177 -->
<g id="node20" class="node">
<title>S&#45;1177</title>
<polygon fill="mediumseagreen" stroke="black" points="68.5,-976 0,-958 68.5,-940 137,-958 68.5,-976"/>
<text text-anchor="middle" x="68.5" y="-956.1" font-family="Helvetica,sans-Serif" font-size="8.00">S&#45;1177</text>
</g>
<!-- R&#45;049&#45;&gt;S&#45;1177 -->
<g id="edge39" class="edge">
<title>R&#45;049&#45;&gt;S&#45;1177</title>
<path fill="none" stroke="dimgray" stroke-width="0.8" d="M345.73,-1058C244.82,-1058 68.5,-1058 68.5,-1058 68.5,-1058 68.5,-983.34 68.5,-983.34"/>
<polygon fill="dimgray" stroke="dimgray" stroke-width="0.8" points="70.95,-983.34 68.5,-976.34 66.05,-983.34 70.95,-983.34"/>
</g>
<!-- S&#45;854 -->
<g id="node35" class="node">
<title>S&#45;854</title>
<polygon fill="mediumseagreen" stroke="black" points="241.5,-976 173,-958 241.5,-940 310,-958 241.5,-976"/>
<text text-anchor="middle" x="241.5" y="-956.1" font-family="Helvetica,sans-Serif" font-size="8.00">S&#45;854</text>
</g>
<!-- R&#45;049&#45;&gt;S&#45;854 -->
<g id="edge38" class="edge">
<title>R&#45;049&#45;&gt;S&#45;854</title>
<path fill="none" stroke="dimgray" stroke-width="0.8" d="M345.63,-1046C297.38,-1046 241.5,-1046 241.5,-1046 241.5,-1046 241.5,-983.23 241.5,-983.23"/>
<polygon fill="dimgray" stroke="dimgray" stroke-width="0.8" points="243.95,-983.23 241.5,-976.23 239.05,-983.23 243.95,-983.23"/>
</g>
<!-- S&#45;511 -->
<g id="node39" class="node">
<title>S&#45;511</title>
<polygon fill="mediumseagreen" stroke="black" points="414.5,-976 346,-958 414.5,-940 483,-958 414.5,-976"/>
<text text-anchor="middle" x="414.5" y="-956.1" font-family="Helvetica,sans-Serif" font-size="8.00">S&#45;511</text>
</g>
<!-- R&#45;049&#45;&gt;S&#45;511 -->
<g id="edge12" class="edge">
<title>R&#45;049&#45;&gt;S&#45;511</title>
<path fill="none" stroke="dimgray" stroke-width="0.8" d="M414.5,-1033.88C414.5,-1033.88 414.5,-983.07 414.5,-983.07"/>
<polygon fill="dimgray" stroke="dimgray" stroke-width="0.8" points="416.95,-983.07 414.5,-976.07 412.05,-983.07 416.95,-983.07"/>
</g>
<!-- S&#45;488 -->
<g id="node48" class="node">
<title>S&#45;488</title>
<polygon fill="mediumseagreen" stroke="black" points="587.5,-976 519,-958 587.5,-940 656,-958 587.5,-976"/>
<text text-anchor="middle" x="587.5" y="-956.1" font-family="Helvetica,sans-Serif" font-size="8.00">S&#45;488</text>
</g>
<!-- R&#45;049&#45;&gt;S&#45;488 -->
<g id="edge13" class="edge">
<title>R&#45;049&#45;&gt;S&#45;488</title>
<path fill="none" stroke="dimgray" stroke-width="0.8" d="M483.14,-1046C498.33,-1046 510,-1046 510,-1046 510,-1046 510,-958 510,-958 510,-958 511.89,-958 511.89,-958"/>
<polygon fill="dimgray" stroke="dimgray" stroke-width="0.8" points="511.89,-960.45 518.89,-958 511.89,-955.55 511.89,-960.45"/>
</g>
<!-- S&#45;2449 -->
<g id="node2" class="node">
<title>S&#45;2449</title>
<polygon fill="mediumseagreen" stroke="black" points="969.5,-882 901,-864 969.5,-846 1038,-864 969.5,-882"/>
<text text-anchor="middle" x="969.5" y="-862.1" font-family="Helvetica,sans-Serif" font-size="8.00">S&#45;2449</text>
</g>
<!-- S&#45;2031 -->
<g id="node3" class="node">
<title>S&#45;2031</title>
<polygon fill="mediumseagreen" stroke="black" points="760.5,-976 692,-958 760.5,-940 829,-958 760.5,-976"/>
<text text-anchor="middle" x="760.5" y="-956.1" font-family="Helvetica,sans-Serif" font-size="8.00">S&#45;2031</text>
</g>
<!-- S&#45;1375 -->
<g id="node4" class="node">
<title>S&#45;1375</title>
<polygon fill="mediumseagreen" stroke="black" points="414.5,-1164 346,-1146 414.5,-1128 483,-1146 414.5,-1164"/>
<text text-anchor="middle" x="414.5" y="-1144.1" font-family="Helvetica,sans-Serif" font-size="8.00">S&#45;1375</text>
</g>
<!-- S&#45;2546 -->
<g id="node5" class="node">
<title>S&#45;2546</title>
<polygon fill="mediumseagreen" stroke="black" points="1142.5,-882 1074,-864 1142.5,-846 1211,-864 1142.5,-882"/>
<text text-anchor="middle" x="1142.5" y="-862.1" font-family="Helvetica,sans-Serif" font-size="8.00">S&#45;2546</text>
</g>
<!-- C&#45;1130 -->
<g id="node6" class="node">
<title>C&#45;1130</title>
<ellipse fill="mediumseagreen" stroke="black" cx="277.5" cy="-206" rx="68.5" ry="18"/>
<text text-anchor="middle" x="277.5" y="-204.1" font-family="Helvetica,sans-Serif" font-size="8.00">C&#45;1130</text>
</g>
<!-- C&#45;0577 -->
<g id="node7" class="node">
<title>C&#45;0577</title>
<ellipse fill="tomato" stroke="black" cx="277.5" cy="-582" rx="68.5" ry="18"/>
<text text-anchor="middle" x="277.5" y="-580.1" font-family="Helvetica,sans-Serif" font-size="8.00">C&#45;0577</text>
</g>
<!-- C&#45;0579 -->
<g id="node54" class="node">
<title>C&#45;0579</title>
<ellipse fill="mediumseagreen" stroke="black" cx="450.5" cy="-394" rx="68.5" ry="18"/>
<text text-anchor="middle" x="450.5" y="-392.1" font-family="Helvetica,sans-Serif" font-size="8.00">C&#45;0579</text>
</g>
<!-- C&#45;0577&#45;&gt;C&#45;0579 -->
<g id="edge58" class="edge">
<title>C&#45;0577&#45;&gt;C&#45;0579</title>
<path fill="none" stroke="blue" stroke-width="0.8" stroke-dasharray="5,2" d="M254.67,-564.88C254.67,-519.57 254.67,-400 254.67,-400 254.67,-400 378.83,-400 378.83,-400"/>
<polygon fill="blue" stroke="blue" stroke-width="0.8" points="378.83,-402.45 385.83,-400 378.83,-397.55 378.83,-402.45"/>
</g>
<!-- S&#45;368 -->
<g id="node8" class="node">
<title>S&#45;368</title>
<polygon fill="mediumseagreen" stroke="black" points="277.5,-318 209,-300 277.5,-282 346,-300 277.5,-318"/>
<text text-anchor="middle" x="277.5" y="-298.1" font-family="Helvetica,sans-Serif" font-size="8.00">S&#45;368</text>
</g>
<!-- S&#45;1620 -->
<g id="node9" class="node">
<title>S&#45;1620</title>
<polygon fill="mediumseagreen" stroke="black" points="277.5,-694 209,-676 277.5,-658 346,-676 277.5,-694"/>
<text text-anchor="middle" x="277.5" y="-674.1" font-family="Helvetica,sans-Serif" font-size="8.00">S&#45;1620</text>
</g>
<!-- C&#45;0578 -->
<g id="node10" class="node">
<title>C&#45;0578</title>
<ellipse fill="mediumseagreen" stroke="black" cx="450.5" cy="-582" rx="68.5" ry="18"/>
<text text-anchor="middle" x="450.5" y="-580.1" font-family="Helvetica,sans-Serif" font-size="8.00">C&#45;0578</text>
</g>
<!-- R&#45;107 -->
<g id="node33" class="node">
<title>R&#45;107</title>
<polygon fill="mediumseagreen" stroke="black" points="519,-480.54 519,-495.46 478.87,-506 422.13,-506 382,-495.46 382,-480.54 422.13,-470 478.87,-470 519,-480.54"/>
<text text-anchor="middle" x="450.5" y="-486.1" font-family="Helvetica,sans-Serif" font-size="8.00">R&#45;107</text>
</g>
<!-- C&#45;0578&#45;&gt;R&#45;107 -->
<g id="edge25" class="edge">
<title>C&#45;0578&#45;&gt;R&#45;107</title>
<path fill="none" stroke="dimgray" stroke-width="0.8" d="M450.5,-563.88C450.5,-563.88 450.5,-513.07 450.5,-513.07"/>
<polygon fill="dimgray" stroke="dimgray" stroke-width="0.8" points="452.95,-513.07 450.5,-506.07 448.05,-513.07 452.95,-513.07"/>
</g>
<!-- S&#45;2358 -->
<g id="node11" class="node">
<title>S&#45;2358</title>
<polygon fill="mediumseagreen" stroke="black" points="191.5,-788 123,-770 191.5,-752 260,-770 191.5,-788"/>
<text text-anchor="middle" x="191.5" y="-768.1" font-family="Helvetica,sans-Serif" font-size="8.00">S&#45;2358</text>
</g>
<!-- S&#45;2029 -->
<g id="node12" class="node">
<title>S&#45;2029</title>
<polygon fill="mediumseagreen" stroke="black" points="933.5,-1070 865,-1052 933.5,-1034 1002,-1052 933.5,-1070"/>
<text text-anchor="middle" x="933.5" y="-1050.1" font-family="Helvetica,sans-Serif" font-size="8.00">S&#45;2029</text>
</g>
<!-- S&#45;1425 -->
<g id="node13" class="node">
<title>S&#45;1425</title>
<polygon fill="mediumseagreen" stroke="black" points="501.5,-1258 433,-1240 501.5,-1222 570,-1240 501.5,-1258"/>
<text text-anchor="middle" x="501.5" y="-1238.1" font-family="Helvetica,sans-Serif" font-size="8.00">S&#45;1425</text>
</g>
<!-- S&#45;513 -->
<g id="node14" class="node">
<title>S&#45;513</title>
<polygon fill="mediumseagreen" stroke="black" points="450.5,-694 382,-676 450.5,-658 519,-676 450.5,-694"/>
<text text-anchor="middle" x="450.5" y="-674.1" font-family="Helvetica,sans-Serif" font-size="8.00">S&#45;513</text>
</g>
<!-- S&#45;513&#45;&gt;C&#45;0577 -->
<g id="edge23" class="edge">
<title>S&#45;513&#45;&gt;C&#45;0577</title>
<path fill="none" stroke="dimgray" stroke-width="0.8" d="M381.82,-676C368.2,-676 358,-676 358,-676 358,-676 358,-582 358,-582 358,-582 353.12,-582 353.12,-582"/>
<polygon fill="dimgray" stroke="dimgray" stroke-width="0.8" points="353.12,-579.55 346.12,-582 353.12,-584.45 353.12,-579.55"/>
</g>
<!-- S&#45;513&#45;&gt;C&#45;0578 -->
<g id="edge24" class="edge">
<title>S&#45;513&#45;&gt;C&#45;0578</title>
<path fill="none" stroke="dimgray" stroke-width="0.8" d="M450.5,-657.88C450.5,-657.88 450.5,-607.07 450.5,-607.07"/>
<polygon fill="dimgray" stroke="dimgray" stroke-width="0.8" points="452.95,-607.07 450.5,-600.07 448.05,-607.07 452.95,-607.07"/>
</g>
<!-- C&#45;0352 -->
<g id="node15" class="node">
<title>C&#45;0352</title>
<ellipse fill="tomato" stroke="black" cx="623.5" cy="-582" rx="68.5" ry="18"/>
<text text-anchor="middle" x="623.5" y="-580.1" font-family="Helvetica,sans-Serif" font-size="8.00">C&#45;0352</text>
</g>
<!-- S&#45;513&#45;&gt;C&#45;0352 -->
<g id="edge22" class="edge">
<title>S&#45;513&#45;&gt;C&#45;0352</title>
<path fill="none" stroke="dimgray" stroke-width="0.8" d="M519.37,-676C567.62,-676 623.5,-676 623.5,-676 623.5,-676 623.5,-607.12 623.5,-607.12"/>
<polygon fill="dimgray" stroke="dimgray" stroke-width="0.8" points="625.95,-607.12 623.5,-600.12 621.05,-607.12 625.95,-607.12"/>
</g>
<!-- S&#45;2413 -->
<g id="node21" class="node">
<title>S&#45;2413</title>
<polygon fill="mediumseagreen" stroke="black" points="1315.5,-882 1247,-864 1315.5,-846 1384,-864 1315.5,-882"/>
<text text-anchor="middle" x="1315.5" y="-862.1" font-family="Helvetica,sans-Serif" font-size="8.00">S&#45;2413</text>
</g>
<!-- C&#45;0352&#45;&gt;S&#45;2413 -->
<g id="edge57" class="edge">
<title>C&#45;0352&#45;&gt;S&#45;2413</title>
<path fill="none" stroke="blue" stroke-width="0.8" stroke-dasharray="5,2" d="M692.06,-582C866.87,-582 1315.5,-582 1315.5,-582 1315.5,-582 1315.5,-838.93 1315.5,-838.93"/>
<polygon fill="blue" stroke="blue" stroke-width="0.8" points="1313.05,-838.93 1315.5,-845.93 1317.95,-838.93 1313.05,-838.93"/>
</g>
<!-- S&#45;1305 -->
<g id="node16" class="node">
<title>S&#45;1305</title>
<polygon fill="mediumseagreen" stroke="black" points="623.5,-224 555,-206 623.5,-188 692,-206 623.5,-224"/>
<text text-anchor="middle" x="623.5" y="-204.1" font-family="Helvetica,sans-Serif" font-size="8.00">S&#45;1305</text>
</g>
<!-- C&#45;0927 -->
<g id="node17" class="node">
<title>C&#45;0927</title>
<ellipse fill="tomato" stroke="black" cx="796.5" cy="-864" rx="68.5" ry="18"/>
<text text-anchor="middle" x="796.5" y="-862.1" font-family="Helvetica,sans-Serif" font-size="8.00">C&#45;0927</text>
</g>
<!-- C&#45;0926 -->
<g id="node42" class="node">
<title>C&#45;0926</title>
<ellipse fill="mediumseagreen" stroke="black" cx="1279.5" cy="-1146" rx="68.5" ry="18"/>
<text text-anchor="middle" x="1279.5" y="-1144.1" font-family="Helvetica,sans-Serif" font-size="8.00">C&#45;0926</text>
</g>
<!-- C&#45;0927&#45;&gt;C&#45;0926 -->
<g id="edge59" class="edge">
<title>C&#45;0927&#45;&gt;C&#45;0926</title>
<path fill="none" stroke="blue" stroke-width="0.8" stroke-dasharray="5,2" d="M841,-877.84C841,-894.43 841,-920 841,-920 841,-920 1220,-920 1220,-920 1220,-920 1220,-1129.86 1220,-1129.86"/>
<polygon fill="blue" stroke="blue" stroke-width="0.8" points="1217.55,-1129.86 1220,-1136.86 1222.45,-1129.86 1217.55,-1129.86"/>
</g>
<!-- S&#45;1286 -->
<g id="node18" class="node">
<title>S&#45;1286</title>
<polygon fill="mediumseagreen" stroke="black" points="277.5,-882 209,-864 277.5,-846 346,-864 277.5,-882"/>
<text text-anchor="middle" x="277.5" y="-862.1" font-family="Helvetica,sans-Serif" font-size="8.00">S&#45;1286</text>
</g>
<!-- S&#45;1286&#45;&gt;S&#45;2358 -->
<g id="edge18" class="edge">
<title>S&#45;1286&#45;&gt;S&#45;2358</title>
<path fill="none" stroke="dimgray" stroke-width="0.8" d="M234.5,-857.24C234.5,-857.24 234.5,-783.95 234.5,-783.95"/>
<polygon fill="dimgray" stroke="dimgray" stroke-width="0.8" points="236.95,-783.95 234.5,-776.95 232.05,-783.95 236.95,-783.95"/>
</g>
<!-- S&#45;910 -->
<g id="node44" class="node">
<title>S&#45;910</title>
<polygon fill="mediumseagreen" stroke="black" points="364.5,-788 296,-770 364.5,-752 433,-770 364.5,-788"/>
<text text-anchor="middle" x="364.5" y="-768.1" font-family="Helvetica,sans-Serif" font-size="8.00">S&#45;910</text>
</g>
<!-- S&#45;1286&#45;&gt;S&#45;910 -->
<g id="edge19" class="edge">
<title>S&#45;1286&#45;&gt;S&#45;910</title>
<path fill="none" stroke="dimgray" stroke-width="0.8" d="M321,-857.24C321,-857.24 321,-783.7 321,-783.7"/>
<polygon fill="dimgray" stroke="dimgray" stroke-width="0.8" points="323.45,-783.7 321,-776.7 318.55,-783.7 323.45,-783.7"/>
</g>
<!-- S&#45;2034 -->
<g id="node19" class="node">
<title>S&#45;2034</title>
<polygon fill="mediumseagreen" stroke="black" points="450.5,-36 382,-18 450.5,0 519,-18 450.5,-36"/>
<text text-anchor="middle" x="450.5" y="-16.1" font-family="Helvetica,sans-Serif" font-size="8.00">S&#45;2034</text>
</g>
<!-- R&#45;082 -->
<g id="node22" class="node">
<title>R&#45;082</title>
<polygon fill="tomato" stroke="black" points="692,-762.54 692,-777.46 651.87,-788 595.13,-788 555,-777.46 555,-762.54 595.13,-752 651.87,-752 692,-762.54"/>
<text text-anchor="middle" x="623.5" y="-768.1" font-family="Helvetica,sans-Serif" font-size="8.00">R&#45;082</text>
</g>
<!-- ext_circ_205_23_ -->
<g id="node56" class="node">
<title>ext_circ_205_23_</title>
<polygon fill="lightpink" stroke="red" stroke-dasharray="5,2" points="930,-1544 793,-1544 793,-1508 930,-1508 930,-1544"/>
<text text-anchor="middle" x="861.5" y="-1528.6" font-family="Helvetica,sans-Serif" font-size="8.00">Circuito:</text>
<text text-anchor="middle" x="861.5" y="-1519.6" font-family="Helvetica,sans-Serif" font-size="8.00">205&#45;23&#45;</text>
</g>
<!-- R&#45;082&#45;&gt;ext_circ_205_23_ -->
<g id="edge56" class="edge">
<title>R&#45;082&#45;&gt;ext_circ_205_23_</title>
<path fill="none" stroke="red" stroke-width="0.8" stroke-dasharray="5,2" d="M692.25,-770C882.49,-770 1402,-770 1402,-770 1402,-770 1402,-1526 1402,-1526 1402,-1526 937.23,-1526 937.23,-1526"/>
<polygon fill="red" stroke="red" stroke-width="0.8" points="937.23,-1523.55 930.23,-1526 937.23,-1528.45 937.23,-1523.55"/>
</g>
<!-- S&#45;1304 -->
<g id="node23" class="node">
<title>S&#45;1304</title>
<polygon fill="mediumseagreen" stroke="black" points="450.5,-224 382,-206 450.5,-188 519,-206 450.5,-224"/>
<text text-anchor="middle" x="450.5" y="-204.1" font-family="Helvetica,sans-Serif" font-size="8.00">S&#45;1304</text>
</g>
<!-- S&#45;678 -->
<g id="node51" class="node">
<title>S&#45;678</title>
<polygon fill="mediumseagreen" stroke="black" points="450.5,-130 382,-112 450.5,-94 519,-112 450.5,-130"/>
<text text-anchor="middle" x="450.5" y="-110.1" font-family="Helvetica,sans-Serif" font-size="8.00">S&#45;678</text>
</g>
<!-- S&#45;1304&#45;&gt;S&#45;678 -->
<g id="edge30" class="edge">
<title>S&#45;1304&#45;&gt;S&#45;678</title>
<path fill="none" stroke="dimgray" stroke-width="0.8" d="M450.5,-187.88C450.5,-187.88 450.5,-137.07 450.5,-137.07"/>
<polygon fill="dimgray" stroke="dimgray" stroke-width="0.8" points="452.95,-137.07 450.5,-130.07 448.05,-137.07 452.95,-137.07"/>
</g>
<!-- S&#45;527 -->
<g id="node24" class="node">
<title>S&#45;527</title>
<polygon fill="mediumseagreen" stroke="black" points="796.5,-224 728,-206 796.5,-188 865,-206 796.5,-224"/>
<text text-anchor="middle" x="796.5" y="-204.1" font-family="Helvetica,sans-Serif" font-size="8.00">S&#45;527</text>
</g>
<!-- C&#45;1175 -->
<g id="node25" class="node">
<title>C&#45;1175</title>
<ellipse fill="tomato" stroke="black" cx="450.5" cy="-864" rx="68.5" ry="18"/>
<text text-anchor="middle" x="450.5" y="-862.1" font-family="Helvetica,sans-Serif" font-size="8.00">C&#45;1175</text>
</g>
<!-- C&#45;1175&#45;&gt;ext_circ_205_23_ -->
<g id="edge55" class="edge">
<title>C&#45;1175&#45;&gt;ext_circ_205_23_</title>
<path fill="none" stroke="red" stroke-width="0.8" stroke-dasharray="5,2" d="M492,-878.56C492,-942.23 492,-1193 492,-1193 492,-1193 923,-1193 923,-1193 923,-1193 923,-1500.62 923,-1500.62"/>
<polygon fill="red" stroke="red" stroke-width="0.8" points="920.55,-1500.62 923,-1507.62 925.45,-1500.62 920.55,-1500.62"/>
</g>
<!-- S&#45;509 -->
<g id="node26" class="node">
<title>S&#45;509</title>
<polygon fill="mediumseagreen" stroke="black" points="674.5,-1258 606,-1240 674.5,-1222 743,-1240 674.5,-1258"/>
<text text-anchor="middle" x="674.5" y="-1238.1" font-family="Helvetica,sans-Serif" font-size="8.00">S&#45;509</text>
</g>
<!-- S&#45;510 -->
<g id="node27" class="node">
<title>S&#45;510</title>
<polygon fill="mediumseagreen" stroke="black" points="1488.5,-882 1420,-864 1488.5,-846 1557,-864 1488.5,-882"/>
<text text-anchor="middle" x="1488.5" y="-862.1" font-family="Helvetica,sans-Serif" font-size="8.00">S&#45;510</text>
</g>
<!-- S&#45;515 -->
<g id="node28" class="node">
<title>S&#45;515</title>
<polygon fill="mediumseagreen" stroke="black" points="587.5,-1164 519,-1146 587.5,-1128 656,-1146 587.5,-1164"/>
<text text-anchor="middle" x="587.5" y="-1144.1" font-family="Helvetica,sans-Serif" font-size="8.00">S&#45;515</text>
</g>
<!-- S&#45;515&#45;&gt;R&#45;049 -->
<g id="edge11" class="edge">
<title>S&#45;515&#45;&gt;R&#45;049</title>
<path fill="none" stroke="dimgray" stroke-width="0.8" d="M518.92,-1146C508.42,-1146 501,-1146 501,-1146 501,-1146 501,-1058 501,-1058 501,-1058 490.08,-1058 490.08,-1058"/>
<polygon fill="dimgray" stroke="dimgray" stroke-width="0.8" points="490.08,-1055.55 483.08,-1058 490.08,-1060.45 490.08,-1055.55"/>
</g>
<!-- R&#45;218 -->
<g id="node29" class="node">
<title>R&#45;218</title>
<polygon fill="mediumseagreen" stroke="black" points="1366,-1044.54 1366,-1059.46 1325.87,-1070 1269.13,-1070 1229,-1059.46 1229,-1044.54 1269.13,-1034 1325.87,-1034 1366,-1044.54"/>
<text text-anchor="middle" x="1297.5" y="-1050.1" font-family="Helvetica,sans-Serif" font-size="8.00">R&#45;218</text>
</g>
<!-- C&#45;0928 -->
<g id="node47" class="node">
<title>C&#45;0928</title>
<ellipse fill="mediumseagreen" stroke="black" cx="1315.5" cy="-958" rx="68.5" ry="18"/>
<text text-anchor="middle" x="1315.5" y="-956.1" font-family="Helvetica,sans-Serif" font-size="8.00">C&#45;0928</text>
</g>
<!-- R&#45;218&#45;&gt;C&#45;0928 -->
<g id="edge46" class="edge">
<title>R&#45;218&#45;&gt;C&#45;0928</title>
<path fill="none" stroke="dimgray" stroke-width="0.8" d="M1306.5,-1033.88C1306.5,-1033.88 1306.5,-983.07 1306.5,-983.07"/>
<polygon fill="dimgray" stroke="dimgray" stroke-width="0.8" points="1308.95,-983.07 1306.5,-976.07 1304.05,-983.07 1308.95,-983.07"/>
</g>
<!-- C&#45;0014 -->
<g id="node30" class="node">
<title>C&#45;0014</title>
<ellipse fill="mediumseagreen" stroke="black" cx="674.5" cy="-1428" rx="68.5" ry="18"/>
<text text-anchor="middle" x="674.5" y="-1426.1" font-family="Helvetica,sans-Serif" font-size="8.00">C&#45;0014</text>
</g>
<!-- S&#45;508 -->
<g id="node49" class="node">
<title>S&#45;508</title>
<polygon fill="mediumseagreen" stroke="black" points="674.5,-1352 606,-1334 674.5,-1316 743,-1334 674.5,-1352"/>
<text text-anchor="middle" x="674.5" y="-1332.1" font-family="Helvetica,sans-Serif" font-size="8.00">S&#45;508</text>
</g>
<!-- C&#45;0014&#45;&gt;S&#45;508 -->
<g id="edge2" class="edge">
<title>C&#45;0014&#45;&gt;S&#45;508</title>
<path fill="none" stroke="dimgray" stroke-width="0.8" d="M674.5,-1409.88C674.5,-1409.88 674.5,-1359.07 674.5,-1359.07"/>
<polygon fill="dimgray" stroke="dimgray" stroke-width="0.8" points="676.95,-1359.07 674.5,-1352.07 672.05,-1359.07 676.95,-1359.07"/>
</g>
<!-- S&#45;516 -->
<g id="node31" class="node">
<title>S&#45;516</title>
<polygon fill="mediumseagreen" stroke="black" points="847.5,-1258 779,-1240 847.5,-1222 916,-1240 847.5,-1258"/>
<text text-anchor="middle" x="847.5" y="-1238.1" font-family="Helvetica,sans-Serif" font-size="8.00">S&#45;516</text>
</g>
<!-- S&#45;516&#45;&gt;S&#45;1375 -->
<g id="edge8" class="edge">
<title>S&#45;516&#45;&gt;S&#45;1375</title>
<path fill="none" stroke="dimgray" stroke-width="0.8" d="M791.5,-1236.72C791.5,-1228.37 791.5,-1207 791.5,-1207 791.5,-1207 458,-1207 458,-1207 458,-1207 458,-1160 458,-1160"/>
<polygon fill="dimgray" stroke="dimgray" stroke-width="0.8" points="460.45,-1160 458,-1153 455.55,-1160 460.45,-1160"/>
</g>
<!-- S&#45;516&#45;&gt;S&#45;515 -->
<g id="edge10" class="edge">
<title>S&#45;516&#45;&gt;S&#45;515</title>
<path fill="none" stroke="dimgray" stroke-width="0.8" d="M804,-1233.36C804,-1217.37 804,-1178 804,-1178 804,-1178 631,-1178 631,-1178 631,-1178 631,-1159.79 631,-1159.79"/>
<polygon fill="dimgray" stroke="dimgray" stroke-width="0.8" points="633.45,-1159.79 631,-1152.79 628.55,-1159.79 633.45,-1159.79"/>
</g>
<!-- S&#45;2030 -->
<g id="node36" class="node">
<title>S&#45;2030</title>
<polygon fill="mediumseagreen" stroke="black" points="760.5,-1164 692,-1146 760.5,-1128 829,-1146 760.5,-1164"/>
<text text-anchor="middle" x="760.5" y="-1144.1" font-family="Helvetica,sans-Serif" font-size="8.00">S&#45;2030</text>
</g>
<!-- S&#45;516&#45;&gt;S&#45;2030 -->
<g id="edge40" class="edge">
<title>S&#45;516&#45;&gt;S&#45;2030</title>
<path fill="none" stroke="dimgray" stroke-width="0.8" d="M816.5,-1229.94C816.5,-1229.94 816.5,-1156.63 816.5,-1156.63"/>
<polygon fill="dimgray" stroke="dimgray" stroke-width="0.8" points="818.95,-1156.63 816.5,-1149.63 814.05,-1156.63 818.95,-1156.63"/>
</g>
<!-- S&#45;596 -->
<g id="node38" class="node">
<title>S&#45;596</title>
<polygon fill="mediumseagreen" stroke="black" points="933.5,-1164 865,-1146 933.5,-1128 1002,-1146 933.5,-1164"/>
<text text-anchor="middle" x="933.5" y="-1144.1" font-family="Helvetica,sans-Serif" font-size="8.00">S&#45;596</text>
</g>
<!-- S&#45;516&#45;&gt;S&#45;596 -->
<g id="edge6" class="edge">
<title>S&#45;516&#45;&gt;S&#45;596</title>
<path fill="none" stroke="dimgray" stroke-width="0.8" d="M890.5,-1233.24C890.5,-1233.24 890.5,-1159.95 890.5,-1159.95"/>
<polygon fill="dimgray" stroke="dimgray" stroke-width="0.8" points="892.95,-1159.95 890.5,-1152.95 888.05,-1159.95 892.95,-1159.95"/>
</g>
<!-- S&#45;1970 -->
<g id="node40" class="node">
<title>S&#45;1970</title>
<polygon fill="mediumseagreen" stroke="black" points="1106.5,-1164 1038,-1146 1106.5,-1128 1175,-1146 1106.5,-1164"/>
<text text-anchor="middle" x="1106.5" y="-1144.1" font-family="Helvetica,sans-Serif" font-size="8.00">S&#45;1970</text>
</g>
<!-- S&#45;516&#45;&gt;S&#45;1970 -->
<g id="edge9" class="edge">
<title>S&#45;516&#45;&gt;S&#45;1970</title>
<path fill="none" stroke="dimgray" stroke-width="0.8" d="M893.21,-1234C967.56,-1234 1106.5,-1234 1106.5,-1234 1106.5,-1234 1106.5,-1171.23 1106.5,-1171.23"/>
<polygon fill="dimgray" stroke="dimgray" stroke-width="0.8" points="1108.95,-1171.23 1106.5,-1164.23 1104.05,-1171.23 1108.95,-1171.23"/>
</g>
<!-- S&#45;516&#45;&gt;C&#45;0926 -->
<g id="edge44" class="edge">
<title>S&#45;516&#45;&gt;C&#45;0926</title>
<path fill="none" stroke="dimgray" stroke-width="0.8" d="M893.32,-1246C1004.5,-1246 1279.5,-1246 1279.5,-1246 1279.5,-1246 1279.5,-1171.34 1279.5,-1171.34"/>
<polygon fill="dimgray" stroke="dimgray" stroke-width="0.8" points="1281.95,-1171.34 1279.5,-1164.34 1277.05,-1171.34 1281.95,-1171.34"/>
</g>
<!-- C&#45;0347 -->
<g id="node32" class="node">
<title>C&#45;0347</title>
<ellipse fill="mediumseagreen" stroke="black" cx="450.5" cy="-300" rx="68.5" ry="18"/>
<text text-anchor="middle" x="450.5" y="-298.1" font-family="Helvetica,sans-Serif" font-size="8.00">C&#45;0347</text>
</g>
<!-- C&#45;0347&#45;&gt;C&#45;1130 -->
<g id="edge32" class="edge">
<title>C&#45;0347&#45;&gt;C&#45;1130</title>
<path fill="none" stroke="dimgray" stroke-width="0.8" d="M381.88,-300C374.72,-300 370,-300 370,-300 370,-300 370,-206 370,-206 370,-206 353.18,-206 353.18,-206"/>
<polygon fill="dimgray" stroke="dimgray" stroke-width="0.8" points="353.18,-203.55 346.18,-206 353.18,-208.45 353.18,-203.55"/>
</g>
<!-- C&#45;0347&#45;&gt;S&#45;1304 -->
<g id="edge29" class="edge">
<title>C&#45;0347&#45;&gt;S&#45;1304</title>
<path fill="none" stroke="dimgray" stroke-width="0.8" d="M450.5,-281.88C450.5,-281.88 450.5,-231.07 450.5,-231.07"/>
<polygon fill="dimgray" stroke="dimgray" stroke-width="0.8" points="452.95,-231.07 450.5,-224.07 448.05,-231.07 452.95,-231.07"/>
</g>
<!-- R&#45;107&#45;&gt;C&#45;0579 -->
<g id="edge26" class="edge">
<title>R&#45;107&#45;&gt;C&#45;0579</title>
<path fill="none" stroke="dimgray" stroke-width="0.8" d="M450.5,-469.88C450.5,-469.88 450.5,-419.07 450.5,-419.07"/>
<polygon fill="dimgray" stroke="dimgray" stroke-width="0.8" points="452.95,-419.07 450.5,-412.07 448.05,-419.07 452.95,-419.07"/>
</g>
<!-- C&#45;0348 -->
<g id="node34" class="node">
<title>C&#45;0348</title>
<ellipse fill="mediumseagreen" stroke="black" cx="796.5" cy="-300" rx="68.5" ry="18"/>
<text text-anchor="middle" x="796.5" y="-298.1" font-family="Helvetica,sans-Serif" font-size="8.00">C&#45;0348</text>
</g>
<!-- C&#45;0348&#45;&gt;S&#45;1305 -->
<g id="edge34" class="edge">
<title>C&#45;0348&#45;&gt;S&#45;1305</title>
<path fill="none" stroke="dimgray" stroke-width="0.8" d="M727.63,-300C679.38,-300 623.5,-300 623.5,-300 623.5,-300 623.5,-231.12 623.5,-231.12"/>
<polygon fill="dimgray" stroke="dimgray" stroke-width="0.8" points="625.95,-231.12 623.5,-224.12 621.05,-231.12 625.95,-231.12"/>
</g>
<!-- C&#45;0348&#45;&gt;S&#45;527 -->
<g id="edge36" class="edge">
<title>C&#45;0348&#45;&gt;S&#45;527</title>
<path fill="none" stroke="dimgray" stroke-width="0.8" d="M796.5,-281.88C796.5,-281.88 796.5,-231.07 796.5,-231.07"/>
<polygon fill="dimgray" stroke="dimgray" stroke-width="0.8" points="798.95,-231.07 796.5,-224.07 794.05,-231.07 798.95,-231.07"/>
</g>
<!-- S&#45;1869 -->
<g id="node37" class="node">
<title>S&#45;1869</title>
<polygon fill="mediumseagreen" stroke="black" points="969.5,-224 901,-206 969.5,-188 1038,-206 969.5,-224"/>
<text text-anchor="middle" x="969.5" y="-204.1" font-family="Helvetica,sans-Serif" font-size="8.00">S&#45;1869</text>
</g>
<!-- C&#45;0348&#45;&gt;S&#45;1869 -->
<g id="edge37" class="edge">
<title>C&#45;0348&#45;&gt;S&#45;1869</title>
<path fill="none" stroke="dimgray" stroke-width="0.8" d="M861.41,-294C910.5,-294 969.5,-294 969.5,-294 969.5,-294 969.5,-231.23 969.5,-231.23"/>
<polygon fill="dimgray" stroke="dimgray" stroke-width="0.8" points="971.95,-231.23 969.5,-224.23 967.05,-231.23 971.95,-231.23"/>
</g>
<!-- S&#45;1432 -->
<g id="node41" class="node">
<title>S&#45;1432</title>
<polygon fill="mediumseagreen" stroke="black" points="1142.5,-224 1074,-206 1142.5,-188 1211,-206 1142.5,-224"/>
<text text-anchor="middle" x="1142.5" y="-204.1" font-family="Helvetica,sans-Serif" font-size="8.00">S&#45;1432</text>
</g>
<!-- C&#45;0348&#45;&gt;S&#45;1432 -->
<g id="edge35" class="edge">
<title>C&#45;0348&#45;&gt;S&#45;1432</title>
<path fill="none" stroke="dimgray" stroke-width="0.8" d="M861.17,-306C961.32,-306 1142.5,-306 1142.5,-306 1142.5,-306 1142.5,-231.34 1142.5,-231.34"/>
<polygon fill="dimgray" stroke="dimgray" stroke-width="0.8" points="1144.95,-231.34 1142.5,-224.34 1140.05,-231.34 1144.95,-231.34"/>
</g>
<!-- S&#45;587 -->
<g id="node46" class="node">
<title>S&#45;587</title>
<polygon fill="mediumseagreen" stroke="black" points="587.5,-1070 519,-1052 587.5,-1034 656,-1052 587.5,-1070"/>
<text text-anchor="middle" x="587.5" y="-1050.1" font-family="Helvetica,sans-Serif" font-size="8.00">S&#45;587</text>
</g>
<!-- S&#45;2030&#45;&gt;S&#45;587 -->
<g id="edge41" class="edge">
<title>S&#45;2030&#45;&gt;S&#45;587</title>
<path fill="none" stroke="dimgray" stroke-width="0.8" d="M691.92,-1146C681.42,-1146 674,-1146 674,-1146 674,-1146 674,-1052 674,-1052 674,-1052 663.08,-1052 663.08,-1052"/>
<polygon fill="dimgray" stroke="dimgray" stroke-width="0.8" points="663.08,-1049.55 656.08,-1052 663.08,-1054.45 663.08,-1049.55"/>
</g>
<!-- S&#45;2292 -->
<g id="node52" class="node">
<title>S&#45;2292</title>
<polygon fill="mediumseagreen" stroke="black" points="760.5,-1070 692,-1052 760.5,-1034 829,-1052 760.5,-1070"/>
<text text-anchor="middle" x="760.5" y="-1050.1" font-family="Helvetica,sans-Serif" font-size="8.00">S&#45;2292</text>
</g>
<!-- S&#45;2030&#45;&gt;S&#45;2292 -->
<g id="edge42" class="edge">
<title>S&#45;2030&#45;&gt;S&#45;2292</title>
<path fill="none" stroke="dimgray" stroke-width="0.8" d="M760.5,-1127.88C760.5,-1127.88 760.5,-1077.07 760.5,-1077.07"/>
<polygon fill="dimgray" stroke="dimgray" stroke-width="0.8" points="762.95,-1077.07 760.5,-1070.07 758.05,-1077.07 762.95,-1077.07"/>
</g>
<!-- S&#45;596&#45;&gt;S&#45;2029 -->
<g id="edge7" class="edge">
<title>S&#45;596&#45;&gt;S&#45;2029</title>
<path fill="none" stroke="dimgray" stroke-width="0.8" d="M933.5,-1127.88C933.5,-1127.88 933.5,-1077.07 933.5,-1077.07"/>
<polygon fill="dimgray" stroke="dimgray" stroke-width="0.8" points="935.95,-1077.07 933.5,-1070.07 931.05,-1077.07 935.95,-1077.07"/>
</g>
<!-- C&#45;0926&#45;&gt;R&#45;218 -->
<g id="edge45" class="edge">
<title>C&#45;0926&#45;&gt;R&#45;218</title>
<path fill="none" stroke="dimgray" stroke-width="0.8" d="M1288.5,-1127.88C1288.5,-1127.88 1288.5,-1077.07 1288.5,-1077.07"/>
<polygon fill="dimgray" stroke="dimgray" stroke-width="0.8" points="1290.95,-1077.07 1288.5,-1070.07 1286.05,-1077.07 1290.95,-1077.07"/>
</g>
<!-- S&#45;209 -->
<g id="node43" class="node">
<title>S&#45;209</title>
<polygon fill="mediumseagreen" stroke="black" points="1661.5,-882 1593,-864 1661.5,-846 1730,-864 1661.5,-882"/>
<text text-anchor="middle" x="1661.5" y="-862.1" font-family="Helvetica,sans-Serif" font-size="8.00">S&#45;209</text>
</g>
<!-- S&#45;910&#45;&gt;S&#45;1620 -->
<g id="edge20" class="edge">
<title>S&#45;910&#45;&gt;S&#45;1620</title>
<path fill="none" stroke="dimgray" stroke-width="0.8" d="M321,-763.24C321,-763.24 321,-689.7 321,-689.7"/>
<polygon fill="dimgray" stroke="dimgray" stroke-width="0.8" points="323.45,-689.7 321,-682.7 318.55,-689.7 323.45,-689.7"/>
</g>
<!-- S&#45;910&#45;&gt;S&#45;513 -->
<g id="edge21" class="edge">
<title>S&#45;910&#45;&gt;S&#45;513</title>
<path fill="none" stroke="dimgray" stroke-width="0.8" d="M407.5,-763.24C407.5,-763.24 407.5,-689.95 407.5,-689.95"/>
<polygon fill="dimgray" stroke="dimgray" stroke-width="0.8" points="409.95,-689.95 407.5,-682.95 405.05,-689.95 409.95,-689.95"/>
</g>
<!-- 206&#45;25&#45; -->
<g id="node45" class="node">
<title>206&#45;25&#45;</title>
<polygon fill="gold" stroke="black" points="743,-1518.54 743,-1533.46 702.87,-1544 646.13,-1544 606,-1533.46 606,-1518.54 646.13,-1508 702.87,-1508 743,-1518.54"/>
<polygon fill="none" stroke="black" points="747,-1515.46 747,-1536.54 703.39,-1548 645.61,-1548 602,-1536.54 602,-1515.46 645.61,-1504 703.39,-1504 747,-1515.46"/>
<text text-anchor="middle" x="674.5" y="-1524.1" font-family="Helvetica,sans-Serif" font-size="8.00">206&#45;25&#45;</text>
</g>
<!-- 206&#45;25&#45;&#45;&gt;C&#45;0014 -->
<g id="edge1" class="edge">
<title>206&#45;25&#45;&#45;&gt;C&#45;0014</title>
<path fill="none" stroke="dimgray" stroke-width="0.8" d="M674.5,-1503.76C674.5,-1503.76 674.5,-1453.21 674.5,-1453.21"/>
<polygon fill="dimgray" stroke="dimgray" stroke-width="0.8" points="676.95,-1453.21 674.5,-1446.21 672.05,-1453.21 676.95,-1453.21"/>
</g>
<!-- C&#45;0928&#45;&gt;S&#45;2449 -->
<g id="edge54" class="edge">
<title>C&#45;0928&#45;&gt;S&#45;2449</title>
<path fill="none" stroke="dimgray" stroke-width="0.8" d="M1246.96,-958C1159.67,-958 1020,-958 1020,-958 1020,-958 1020,-875.79 1020,-875.79"/>
<polygon fill="dimgray" stroke="dimgray" stroke-width="0.8" points="1022.45,-875.79 1020,-868.79 1017.55,-875.79 1022.45,-875.79"/>
</g>
<!-- C&#45;0928&#45;&gt;S&#45;2546 -->
<g id="edge49" class="edge">
<title>C&#45;0928&#45;&gt;S&#45;2546</title>
<path fill="none" stroke="dimgray" stroke-width="0.8" d="M1256.04,-949C1224.83,-949 1193,-949 1193,-949 1193,-949 1193,-876.06 1193,-876.06"/>
<polygon fill="dimgray" stroke="dimgray" stroke-width="0.8" points="1195.45,-876.06 1193,-869.06 1190.55,-876.06 1195.45,-876.06"/>
</g>
<!-- C&#45;0928&#45;&gt;C&#45;0927 -->
<g id="edge47" class="edge">
<title>C&#45;0928&#45;&gt;C&#45;0927</title>
<path fill="none" stroke="dimgray" stroke-width="0.8" d="M1255.98,-967C1131.07,-967 853,-967 853,-967 853,-967 853,-881.25 853,-881.25"/>
<polygon fill="dimgray" stroke="dimgray" stroke-width="0.8" points="855.45,-881.25 853,-874.25 850.55,-881.25 855.45,-881.25"/>
</g>
<!-- C&#45;0928&#45;&gt;S&#45;2413 -->
<g id="edge51" class="edge">
<title>C&#45;0928&#45;&gt;S&#45;2413</title>
<path fill="none" stroke="dimgray" stroke-width="0.8" d="M1315.5,-939.88C1315.5,-939.88 1315.5,-889.07 1315.5,-889.07"/>
<polygon fill="dimgray" stroke="dimgray" stroke-width="0.8" points="1317.95,-889.07 1315.5,-882.07 1313.05,-889.07 1317.95,-889.07"/>
</g>
<!-- C&#45;0928&#45;&gt;S&#45;510 -->
<g id="edge48" class="edge">
<title>C&#45;0928&#45;&gt;S&#45;510</title>
<path fill="none" stroke="dimgray" stroke-width="0.8" d="M1369.76,-947C1420.5,-947 1488.5,-947 1488.5,-947 1488.5,-947 1488.5,-889.01 1488.5,-889.01"/>
<polygon fill="dimgray" stroke="dimgray" stroke-width="0.8" points="1490.95,-889.01 1488.5,-882.01 1486.05,-889.01 1490.95,-889.01"/>
</g>
<!-- C&#45;0928&#45;&gt;S&#45;209 -->
<g id="edge52" class="edge">
<title>C&#45;0928&#45;&gt;S&#45;209</title>
<path fill="none" stroke="dimgray" stroke-width="0.8" d="M1382.62,-954C1483.24,-954 1661.5,-954 1661.5,-954 1661.5,-954 1661.5,-889.21 1661.5,-889.21"/>
<polygon fill="dimgray" stroke="dimgray" stroke-width="0.8" points="1663.95,-889.21 1661.5,-882.21 1659.05,-889.21 1663.95,-889.21"/>
</g>
<!-- S&#45;1969 -->
<g id="node53" class="node">
<title>S&#45;1969</title>
<polygon fill="mediumseagreen" stroke="black" points="1834.5,-882 1766,-864 1834.5,-846 1903,-864 1834.5,-882"/>
<text text-anchor="middle" x="1834.5" y="-862.1" font-family="Helvetica,sans-Serif" font-size="8.00">S&#45;1969</text>
</g>
<!-- C&#45;0928&#45;&gt;S&#45;1969 -->
<g id="edge50" class="edge">
<title>C&#45;0928&#45;&gt;S&#45;1969</title>
<path fill="none" stroke="dimgray" stroke-width="0.8" d="M1383.08,-961C1523.64,-961 1834.5,-961 1834.5,-961 1834.5,-961 1834.5,-889.24 1834.5,-889.24"/>
<polygon fill="dimgray" stroke="dimgray" stroke-width="0.8" points="1836.95,-889.24 1834.5,-882.24 1832.05,-889.24 1836.95,-889.24"/>
</g>
<!-- S&#45;2038 -->
<g id="node55" class="node">
<title>S&#45;2038</title>
<polygon fill="mediumseagreen" stroke="black" points="2007.5,-882 1939,-864 2007.5,-846 2076,-864 2007.5,-882"/>
<text text-anchor="middle" x="2007.5" y="-862.1" font-family="Helvetica,sans-Serif" font-size="8.00">S&#45;2038</text>
</g>
<!-- C&#45;0928&#45;&gt;S&#45;2038 -->
<g id="edge53" class="edge">
<title>C&#45;0928&#45;&gt;S&#45;2038</title>
<path fill="none" stroke="dimgray" stroke-width="0.8" d="M1372.72,-968C1538.51,-968 2007.5,-968 2007.5,-968 2007.5,-968 2007.5,-889.12 2007.5,-889.12"/>
<polygon fill="dimgray" stroke="dimgray" stroke-width="0.8" points="2009.95,-889.12 2007.5,-882.12 2005.05,-889.12 2009.95,-889.12"/>
</g>
<!-- S&#45;488&#45;&gt;S&#45;1286 -->
<g id="edge17" class="edge">
<title>S&#45;488&#45;&gt;S&#45;1286</title>
<path fill="none" stroke="dimgray" stroke-width="0.8" d="M531,-954.61C531,-942.33 531,-901 531,-901 531,-901 328,-901 328,-901 328,-901 328,-875.84 328,-875.84"/>
<polygon fill="dimgray" stroke="dimgray" stroke-width="0.8" points="330.45,-875.84 328,-868.84 325.55,-875.84 330.45,-875.84"/>
</g>
<!-- S&#45;488&#45;&gt;C&#45;1175 -->
<g id="edge14" class="edge">
<title>S&#45;488&#45;&gt;C&#45;1175</title>
<path fill="none" stroke="dimgray" stroke-width="0.8" d="M543,-951.54C543,-930.3 543,-864 543,-864 543,-864 526.18,-864 526.18,-864"/>
<polygon fill="dimgray" stroke="dimgray" stroke-width="0.8" points="526.18,-861.55 519.18,-864 526.18,-866.45 526.18,-861.55"/>
</g>
<!-- C&#45;1176 -->
<g id="node50" class="node">
<title>C&#45;1176</title>
<ellipse fill="mediumseagreen" stroke="black" cx="623.5" cy="-864" rx="68.5" ry="18"/>
<text text-anchor="middle" x="623.5" y="-862.1" font-family="Helvetica,sans-Serif" font-size="8.00">C&#45;1176</text>
</g>
<!-- S&#45;488&#45;&gt;C&#45;1176 -->
<g id="edge15" class="edge">
<title>S&#45;488&#45;&gt;C&#45;1176</title>
<path fill="none" stroke="dimgray" stroke-width="0.8" d="M605.5,-944.53C605.5,-944.53 605.5,-888.61 605.5,-888.61"/>
<polygon fill="dimgray" stroke="dimgray" stroke-width="0.8" points="607.95,-888.61 605.5,-881.61 603.05,-888.61 607.95,-888.61"/>
</g>
<!-- S&#45;508&#45;&gt;S&#45;1425 -->
<g id="edge3" class="edge">
<title>S&#45;508&#45;&gt;S&#45;1425</title>
<path fill="none" stroke="dimgray" stroke-width="0.8" d="M605.63,-1334C557.38,-1334 501.5,-1334 501.5,-1334 501.5,-1334 501.5,-1265.12 501.5,-1265.12"/>
<polygon fill="dimgray" stroke="dimgray" stroke-width="0.8" points="503.95,-1265.12 501.5,-1258.12 499.05,-1265.12 503.95,-1265.12"/>
</g>
<!-- S&#45;508&#45;&gt;S&#45;509 -->
<g id="edge4" class="edge">
<title>S&#45;508&#45;&gt;S&#45;509</title>
<path fill="none" stroke="dimgray" stroke-width="0.8" d="M674.5,-1315.88C674.5,-1315.88 674.5,-1265.07 674.5,-1265.07"/>
<polygon fill="dimgray" stroke="dimgray" stroke-width="0.8" points="676.95,-1265.07 674.5,-1258.07 672.05,-1265.07 676.95,-1265.07"/>
</g>
<!-- S&#45;508&#45;&gt;S&#45;516 -->
<g id="edge5" class="edge">
<title>S&#45;508&#45;&gt;S&#45;516</title>
<path fill="none" stroke="dimgray" stroke-width="0.8" d="M743.21,-1334C766.16,-1334 786,-1334 786,-1334 786,-1334 786,-1248.96 786,-1248.96"/>
<polygon fill="dimgray" stroke="dimgray" stroke-width="0.8" points="788.45,-1248.96 786,-1241.96 783.55,-1248.96 788.45,-1248.96"/>
</g>
<!-- C&#45;1176&#45;&gt;R&#45;082 -->
<g id="edge16" class="edge">
<title>C&#45;1176&#45;&gt;R&#45;082</title>
<path fill="none" stroke="dimgray" stroke-width="0.8" d="M623.5,-845.88C623.5,-845.88 623.5,-795.07 623.5,-795.07"/>
<polygon fill="dimgray" stroke="dimgray" stroke-width="0.8" points="625.95,-795.07 623.5,-788.07 621.05,-795.07 625.95,-795.07"/>
</g>
<!-- S&#45;678&#45;&gt;S&#45;2034 -->
<g id="edge31" class="edge">
<title>S&#45;678&#45;&gt;S&#45;2034</title>
<path fill="none" stroke="dimgray" stroke-width="0.8" d="M450.5,-93.88C450.5,-93.88 450.5,-43.07 450.5,-43.07"/>
<polygon fill="dimgray" stroke="dimgray" stroke-width="0.8" points="452.95,-43.07 450.5,-36.07 448.05,-43.07 452.95,-43.07"/>
</g>
<!-- S&#45;2292&#45;&gt;S&#45;2031 -->
<g id="edge43" class="edge">
<title>S&#45;2292&#45;&gt;S&#45;2031</title>
<path fill="none" stroke="dimgray" stroke-width="0.8" d="M760.5,-1033.88C760.5,-1033.88 760.5,-983.07 760.5,-983.07"/>
<polygon fill="dimgray" stroke="dimgray" stroke-width="0.8" points="762.95,-983.07 760.5,-976.07 758.05,-983.07 762.95,-983.07"/>
</g>
<!-- C&#45;0579&#45;&gt;S&#45;368 -->
<g id="edge27" class="edge">
<title>C&#45;0579&#45;&gt;S&#45;368</title>
<path fill="none" stroke="dimgray" stroke-width="0.8" d="M385.51,-388C344.92,-388 300.33,-388 300.33,-388 300.33,-388 300.33,-319.24 300.33,-319.24"/>
<polygon fill="dimgray" stroke="dimgray" stroke-width="0.8" points="302.78,-319.24 300.33,-312.24 297.88,-319.24 302.78,-319.24"/>
</g>
<!-- C&#45;0579&#45;&gt;C&#45;0347 -->
<g id="edge28" class="edge">
<title>C&#45;0579&#45;&gt;C&#45;0347</title>
<path fill="none" stroke="dimgray" stroke-width="0.8" d="M450.5,-375.88C450.5,-375.88 450.5,-325.07 450.5,-325.07"/>
<polygon fill="dimgray" stroke="dimgray" stroke-width="0.8" points="452.95,-325.07 450.5,-318.07 448.05,-325.07 452.95,-325.07"/>
</g>
<!-- C&#45;0579&#45;&gt;C&#45;0348 -->
<g id="edge33" class="edge">
<title>C&#45;0579&#45;&gt;C&#45;0348</title>
<path fill="none" stroke="dimgray" stroke-width="0.8" d="M519.27,-394C620.18,-394 796.5,-394 796.5,-394 796.5,-394 796.5,-325.12 796.5,-325.12"/>
<polygon fill="dimgray" stroke="dimgray" stroke-width="0.8" points="798.95,-325.12 796.5,-318.12 794.05,-325.12 798.95,-325.12"/>
</g>
</g>
</svg>
