<?xml version="1.0" encoding="UTF-8" standalone="no"?>
<!DOCTYPE svg PUBLIC "-//W3C//DTD SVG 1.1//EN"
 "http://www.w3.org/Graphics/SVG/1.1/DTD/svg11.dtd">
<!-- Generated by graphviz version 2.50.0 (0)
 -->
<!-- Title: Grafo_Circuito_114_25_ Pages: 1 -->
<svg width="1604pt" height="1086pt"
 viewBox="0.00 0.00 1604.00 1086.00" xmlns="http://www.w3.org/2000/svg" xmlns:xlink="http://www.w3.org/1999/xlink">
<g id="graph0" class="graph" transform="scale(1 1) rotate(0) translate(4 1082)">
<title>Grafo_Circuito_114_25_</title>
<polygon fill="white" stroke="transparent" points="-4,4 -4,-1082 1600,-1082 1600,4 -4,4"/>
<!-- C&#45;0646 -->
<g id="node1" class="node">
<title>C&#45;0646</title>
<ellipse fill="mediumseagreen" stroke="black" cx="834.5" cy="-770" rx="68.5" ry="18"/>
<text text-anchor="middle" x="834.5" y="-768.1" font-family="Helvetica,sans-Serif" font-size="8.00">C&#45;0646</text>
</g>
<!-- R&#45;070 -->
<g id="node5" class="node">
<title>R&#45;070</title>
<polygon fill="mediumseagreen" stroke="black" points="1033,-668.54 1033,-683.46 992.87,-694 936.13,-694 896,-683.46 896,-668.54 936.13,-658 992.87,-658 1033,-668.54"/>
<text text-anchor="middle" x="964.5" y="-674.1" font-family="Helvetica,sans-Serif" font-size="8.00">R&#45;070</text>
</g>
<!-- C&#45;0646&#45;&gt;R&#45;070 -->
<g id="edge15" class="edge">
<title>C&#45;0646&#45;&gt;R&#45;070</title>
<path fill="none" stroke="dimgray" stroke-width="0.8" d="M899.5,-764.12C899.5,-764.12 899.5,-691.5 899.5,-691.5"/>
<polygon fill="dimgray" stroke="dimgray" stroke-width="0.8" points="901.95,-691.5 899.5,-684.5 897.05,-691.5 901.95,-691.5"/>
</g>
<!-- S&#45;707 -->
<g id="node30" class="node">
<title>S&#45;707</title>
<polygon fill="mediumseagreen" stroke="black" points="705.5,-694 637,-676 705.5,-658 774,-676 705.5,-694"/>
<text text-anchor="middle" x="705.5" y="-674.1" font-family="Helvetica,sans-Serif" font-size="8.00">S&#45;707</text>
</g>
<!-- C&#45;0646&#45;&gt;S&#45;707 -->
<g id="edge6" class="edge">
<title>C&#45;0646&#45;&gt;S&#45;707</title>
<path fill="none" stroke="dimgray" stroke-width="0.8" d="M770,-763.83C770,-763.83 770,-684.17 770,-684.17"/>
<polygon fill="dimgray" stroke="dimgray" stroke-width="0.8" points="772.45,-684.17 770,-677.17 767.55,-684.17 772.45,-684.17"/>
</g>
<!-- S&#45;932 -->
<g id="node2" class="node">
<title>S&#45;932</title>
<polygon fill="mediumseagreen" stroke="black" points="477.5,-600 409,-582 477.5,-564 546,-582 477.5,-600"/>
<text text-anchor="middle" x="477.5" y="-580.1" font-family="Helvetica,sans-Serif" font-size="8.00">S&#45;932</text>
</g>
<!-- C&#45;1128 -->
<g id="node4" class="node">
<title>C&#45;1128</title>
<ellipse fill="mediumseagreen" stroke="black" cx="489.5" cy="-488" rx="68.5" ry="18"/>
<text text-anchor="middle" x="489.5" y="-486.1" font-family="Helvetica,sans-Serif" font-size="8.00">C&#45;1128</text>
</g>
<!-- S&#45;932&#45;&gt;C&#45;1128 -->
<g id="edge11" class="edge">
<title>S&#45;932&#45;&gt;C&#45;1128</title>
<path fill="none" stroke="dimgray" stroke-width="0.8" d="M483.5,-565.19C483.5,-565.19 483.5,-512.94 483.5,-512.94"/>
<polygon fill="dimgray" stroke="dimgray" stroke-width="0.8" points="485.95,-512.94 483.5,-505.94 481.05,-512.94 485.95,-512.94"/>
</g>
<!-- C&#45;0166 -->
<g id="node7" class="node">
<title>C&#45;0166</title>
<ellipse fill="tomato" stroke="black" cx="241.5" cy="-488" rx="68.5" ry="18"/>
<text text-anchor="middle" x="241.5" y="-486.1" font-family="Helvetica,sans-Serif" font-size="8.00">C&#45;0166</text>
</g>
<!-- S&#45;932&#45;&gt;C&#45;0166 -->
<g id="edge10" class="edge">
<title>S&#45;932&#45;&gt;C&#45;0166</title>
<path fill="none" stroke="dimgray" stroke-width="0.8" d="M415,-580.37C415,-567.89 415,-488 415,-488 415,-488 317.07,-488 317.07,-488"/>
<polygon fill="dimgray" stroke="dimgray" stroke-width="0.8" points="317.07,-485.55 310.07,-488 317.07,-490.45 317.07,-485.55"/>
</g>
<!-- S&#45;2567 -->
<g id="node8" class="node">
<title>S&#45;2567</title>
<polygon fill="mediumseagreen" stroke="black" points="68.5,-506 0,-488 68.5,-470 137,-488 68.5,-506"/>
<text text-anchor="middle" x="68.5" y="-486.1" font-family="Helvetica,sans-Serif" font-size="8.00">S&#45;2567</text>
</g>
<!-- S&#45;932&#45;&gt;S&#45;2567 -->
<g id="edge13" class="edge">
<title>S&#45;932&#45;&gt;S&#45;2567</title>
<path fill="none" stroke="dimgray" stroke-width="0.8" d="M408.58,-582C292.02,-582 68.5,-582 68.5,-582 68.5,-582 68.5,-513.12 68.5,-513.12"/>
<polygon fill="dimgray" stroke="dimgray" stroke-width="0.8" points="70.95,-513.12 68.5,-506.12 66.05,-513.12 70.95,-513.12"/>
</g>
<!-- R&#45;075 -->
<g id="node3" class="node">
<title>R&#45;075</title>
<polygon fill="tomato" stroke="black" points="1423,-480.54 1423,-495.46 1382.87,-506 1326.13,-506 1286,-495.46 1286,-480.54 1326.13,-470 1382.87,-470 1423,-480.54"/>
<text text-anchor="middle" x="1354.5" y="-486.1" font-family="Helvetica,sans-Serif" font-size="8.00">R&#45;075</text>
</g>
<!-- ext_circ_114_24_ -->
<g id="node34" class="node">
<title>ext_circ_114_24_</title>
<polygon fill="lightpink" stroke="red" stroke-dasharray="5,2" points="655,-1074 518,-1074 518,-1038 655,-1038 655,-1074"/>
<text text-anchor="middle" x="586.5" y="-1058.6" font-family="Helvetica,sans-Serif" font-size="8.00">Circuito:</text>
<text text-anchor="middle" x="586.5" y="-1049.6" font-family="Helvetica,sans-Serif" font-size="8.00">114&#45;24&#45;</text>
</g>
<!-- R&#45;075&#45;&gt;ext_circ_114_24_ -->
<g id="edge34" class="edge">
<title>R&#45;075&#45;&gt;ext_circ_114_24_</title>
<path fill="none" stroke="red" stroke-width="0.8" stroke-dasharray="5,2" d="M1377.33,-506.31C1377.33,-563.81 1377.33,-737 1377.33,-737 1377.33,-737 646,-737 646,-737 646,-737 646,-1030.94 646,-1030.94"/>
<polygon fill="red" stroke="red" stroke-width="0.8" points="643.55,-1030.94 646,-1037.94 648.45,-1030.94 643.55,-1030.94"/>
</g>
<!-- R&#45;282 -->
<g id="node10" class="node">
<title>R&#45;282</title>
<polygon fill="tomato" stroke="black" points="558,-386.54 558,-401.46 517.87,-412 461.13,-412 421,-401.46 421,-386.54 461.13,-376 517.87,-376 558,-386.54"/>
<text text-anchor="middle" x="489.5" y="-392.1" font-family="Helvetica,sans-Serif" font-size="8.00">R&#45;282</text>
</g>
<!-- C&#45;1128&#45;&gt;R&#45;282 -->
<g id="edge12" class="edge">
<title>C&#45;1128&#45;&gt;R&#45;282</title>
<path fill="none" stroke="dimgray" stroke-width="0.8" d="M489.5,-469.88C489.5,-469.88 489.5,-419.07 489.5,-419.07"/>
<polygon fill="dimgray" stroke="dimgray" stroke-width="0.8" points="491.95,-419.07 489.5,-412.07 487.05,-419.07 491.95,-419.07"/>
</g>
<!-- S&#45;635 -->
<g id="node31" class="node">
<title>S&#45;635</title>
<polygon fill="mediumseagreen" stroke="black" points="1008.5,-600 940,-582 1008.5,-564 1077,-582 1008.5,-600"/>
<text text-anchor="middle" x="1008.5" y="-580.1" font-family="Helvetica,sans-Serif" font-size="8.00">S&#45;635</text>
</g>
<!-- R&#45;070&#45;&gt;S&#45;635 -->
<g id="edge16" class="edge">
<title>R&#45;070&#45;&gt;S&#45;635</title>
<path fill="none" stroke="dimgray" stroke-width="0.8" d="M986.5,-657.88C986.5,-657.88 986.5,-601.37 986.5,-601.37"/>
<polygon fill="dimgray" stroke="dimgray" stroke-width="0.8" points="988.95,-601.37 986.5,-594.37 984.05,-601.37 988.95,-601.37"/>
</g>
<!-- S&#45;632 -->
<g id="node6" class="node">
<title>S&#45;632</title>
<polygon fill="mediumseagreen" stroke="black" points="1354.5,-412 1286,-394 1354.5,-376 1423,-394 1354.5,-412"/>
<text text-anchor="middle" x="1354.5" y="-392.1" font-family="Helvetica,sans-Serif" font-size="8.00">S&#45;632</text>
</g>
<!-- ext_circ_303_25_ -->
<g id="node33" class="node">
<title>ext_circ_303_25_</title>
<polygon fill="lightpink" stroke="red" stroke-dasharray="5,2" points="875,-1074 738,-1074 738,-1038 875,-1038 875,-1074"/>
<text text-anchor="middle" x="806.5" y="-1058.6" font-family="Helvetica,sans-Serif" font-size="8.00">Circuito:</text>
<text text-anchor="middle" x="806.5" y="-1049.6" font-family="Helvetica,sans-Serif" font-size="8.00">303&#45;25&#45;</text>
</g>
<!-- C&#45;0166&#45;&gt;ext_circ_303_25_ -->
<g id="edge32" class="edge">
<title>C&#45;0166&#45;&gt;ext_circ_303_25_</title>
<path fill="none" stroke="red" stroke-width="0.8" stroke-dasharray="5,2" d="M241.5,-506.05C241.5,-561.08 241.5,-723 241.5,-723 241.5,-723 747.33,-723 747.33,-723 747.33,-723 747.33,-1030.62 747.33,-1030.62"/>
<polygon fill="red" stroke="red" stroke-width="0.8" points="744.88,-1030.62 747.33,-1037.62 749.78,-1030.62 744.88,-1030.62"/>
</g>
<!-- S&#45;704 -->
<g id="node9" class="node">
<title>S&#45;704</title>
<polygon fill="mediumseagreen" stroke="black" points="662.5,-600 594,-582 662.5,-564 731,-582 662.5,-600"/>
<text text-anchor="middle" x="662.5" y="-580.1" font-family="Helvetica,sans-Serif" font-size="8.00">S&#45;704</text>
</g>
<!-- S&#45;2236 -->
<g id="node27" class="node">
<title>S&#45;2236</title>
<polygon fill="mediumseagreen" stroke="black" points="662.5,-506 594,-488 662.5,-470 731,-488 662.5,-506"/>
<text text-anchor="middle" x="662.5" y="-486.1" font-family="Helvetica,sans-Serif" font-size="8.00">S&#45;2236</text>
</g>
<!-- S&#45;704&#45;&gt;S&#45;2236 -->
<g id="edge8" class="edge">
<title>S&#45;704&#45;&gt;S&#45;2236</title>
<path fill="none" stroke="dimgray" stroke-width="0.8" d="M662.5,-563.88C662.5,-563.88 662.5,-513.07 662.5,-513.07"/>
<polygon fill="dimgray" stroke="dimgray" stroke-width="0.8" points="664.95,-513.07 662.5,-506.07 660.05,-513.07 664.95,-513.07"/>
</g>
<!-- R&#45;282&#45;&gt;ext_circ_303_25_ -->
<g id="edge33" class="edge">
<title>R&#45;282&#45;&gt;ext_circ_303_25_</title>
<path fill="none" stroke="red" stroke-width="0.8" stroke-dasharray="5,2" d="M558.08,-394C568.58,-394 576,-394 576,-394 576,-394 576,-708 576,-708 576,-708 756.67,-708 756.67,-708 756.67,-708 756.67,-1030.78 756.67,-1030.78"/>
<polygon fill="red" stroke="red" stroke-width="0.8" points="754.22,-1030.78 756.67,-1037.78 759.12,-1030.78 754.22,-1030.78"/>
</g>
<!-- S&#45;1742 -->
<g id="node11" class="node">
<title>S&#45;1742</title>
<polygon fill="mediumseagreen" stroke="black" points="835.5,-600 767,-582 835.5,-564 904,-582 835.5,-600"/>
<text text-anchor="middle" x="835.5" y="-580.1" font-family="Helvetica,sans-Serif" font-size="8.00">S&#45;1742</text>
</g>
<!-- S&#45;636 -->
<g id="node12" class="node">
<title>S&#45;636</title>
<polygon fill="mediumseagreen" stroke="black" points="835.5,-506 767,-488 835.5,-470 904,-488 835.5,-506"/>
<text text-anchor="middle" x="835.5" y="-486.1" font-family="Helvetica,sans-Serif" font-size="8.00">S&#45;636</text>
</g>
<!-- S&#45;1766 -->
<g id="node22" class="node">
<title>S&#45;1766</title>
<polygon fill="mediumseagreen" stroke="black" points="662.5,-412 594,-394 662.5,-376 731,-394 662.5,-412"/>
<text text-anchor="middle" x="662.5" y="-392.1" font-family="Helvetica,sans-Serif" font-size="8.00">S&#45;1766</text>
</g>
<!-- S&#45;636&#45;&gt;S&#45;1766 -->
<g id="edge20" class="edge">
<title>S&#45;636&#45;&gt;S&#45;1766</title>
<path fill="none" stroke="dimgray" stroke-width="0.8" d="M766.92,-488C756.42,-488 749,-488 749,-488 749,-488 749,-394 749,-394 749,-394 738.08,-394 738.08,-394"/>
<polygon fill="dimgray" stroke="dimgray" stroke-width="0.8" points="738.08,-391.55 731.08,-394 738.08,-396.45 738.08,-391.55"/>
</g>
<!-- R&#45;105 -->
<g id="node13" class="node">
<title>R&#45;105</title>
<polygon fill="mediumseagreen" stroke="black" points="904,-292.54 904,-307.46 863.87,-318 807.13,-318 767,-307.46 767,-292.54 807.13,-282 863.87,-282 904,-292.54"/>
<text text-anchor="middle" x="835.5" y="-298.1" font-family="Helvetica,sans-Serif" font-size="8.00">R&#45;105</text>
</g>
<!-- C&#45;0573 -->
<g id="node16" class="node">
<title>C&#45;0573</title>
<ellipse fill="mediumseagreen" stroke="black" cx="835.5" cy="-206" rx="68.5" ry="18"/>
<text text-anchor="middle" x="835.5" y="-204.1" font-family="Helvetica,sans-Serif" font-size="8.00">C&#45;0573</text>
</g>
<!-- R&#45;105&#45;&gt;C&#45;0573 -->
<g id="edge25" class="edge">
<title>R&#45;105&#45;&gt;C&#45;0573</title>
<path fill="none" stroke="dimgray" stroke-width="0.8" d="M835.5,-281.88C835.5,-281.88 835.5,-231.07 835.5,-231.07"/>
<polygon fill="dimgray" stroke="dimgray" stroke-width="0.8" points="837.95,-231.07 835.5,-224.07 833.05,-231.07 837.95,-231.07"/>
</g>
<!-- 114&#45;25&#45; -->
<g id="node14" class="node">
<title>114&#45;25&#45;</title>
<polygon fill="gold" stroke="black" points="1076,-1048.54 1076,-1063.46 1035.87,-1074 979.13,-1074 939,-1063.46 939,-1048.54 979.13,-1038 1035.87,-1038 1076,-1048.54"/>
<polygon fill="none" stroke="black" points="1080,-1045.46 1080,-1066.54 1036.39,-1078 978.61,-1078 935,-1066.54 935,-1045.46 978.61,-1034 1036.39,-1034 1080,-1045.46"/>
<text text-anchor="middle" x="1007.5" y="-1054.1" font-family="Helvetica,sans-Serif" font-size="8.00">114&#45;25&#45;</text>
</g>
<!-- C&#45;0178 -->
<g id="node26" class="node">
<title>C&#45;0178</title>
<ellipse fill="mediumseagreen" stroke="black" cx="1007.5" cy="-958" rx="68.5" ry="18"/>
<text text-anchor="middle" x="1007.5" y="-956.1" font-family="Helvetica,sans-Serif" font-size="8.00">C&#45;0178</text>
</g>
<!-- 114&#45;25&#45;&#45;&gt;C&#45;0178 -->
<g id="edge1" class="edge">
<title>114&#45;25&#45;&#45;&gt;C&#45;0178</title>
<path fill="none" stroke="dimgray" stroke-width="0.8" d="M1007.5,-1033.76C1007.5,-1033.76 1007.5,-983.21 1007.5,-983.21"/>
<polygon fill="dimgray" stroke="dimgray" stroke-width="0.8" points="1009.95,-983.21 1007.5,-976.21 1005.05,-983.21 1009.95,-983.21"/>
</g>
<!-- C&#45;0832 -->
<g id="node15" class="node">
<title>C&#45;0832</title>
<ellipse fill="mediumseagreen" stroke="black" cx="1008.5" cy="-488" rx="68.5" ry="18"/>
<text text-anchor="middle" x="1008.5" y="-486.1" font-family="Helvetica,sans-Serif" font-size="8.00">C&#45;0832</text>
</g>
<!-- C&#45;0832&#45;&gt;S&#45;632 -->
<g id="edge31" class="edge">
<title>C&#45;0832&#45;&gt;S&#45;632</title>
<path fill="none" stroke="dimgray" stroke-width="0.8" d="M1008.5,-469.96C1008.5,-453.27 1008.5,-431 1008.5,-431 1008.5,-431 1354.5,-431 1354.5,-431 1354.5,-431 1354.5,-419.07 1354.5,-419.07"/>
<polygon fill="dimgray" stroke="dimgray" stroke-width="0.8" points="1356.95,-419.07 1354.5,-412.07 1352.05,-419.07 1356.95,-419.07"/>
</g>
<!-- C&#45;0571 -->
<g id="node18" class="node">
<title>C&#45;0571</title>
<ellipse fill="tomato" stroke="black" cx="1527.5" cy="-394" rx="68.5" ry="18"/>
<text text-anchor="middle" x="1527.5" y="-392.1" font-family="Helvetica,sans-Serif" font-size="8.00">C&#45;0571</text>
</g>
<!-- C&#45;0832&#45;&gt;C&#45;0571 -->
<g id="edge22" class="edge">
<title>C&#45;0832&#45;&gt;C&#45;0571</title>
<path fill="none" stroke="dimgray" stroke-width="0.8" d="M1042.75,-472.1C1042.75,-461.69 1042.75,-450 1042.75,-450 1042.75,-450 1527.5,-450 1527.5,-450 1527.5,-450 1527.5,-419.03 1527.5,-419.03"/>
<polygon fill="dimgray" stroke="dimgray" stroke-width="0.8" points="1529.95,-419.03 1527.5,-412.03 1525.05,-419.03 1529.95,-419.03"/>
</g>
<!-- C&#45;0572 -->
<g id="node19" class="node">
<title>C&#45;0572</title>
<ellipse fill="mediumseagreen" stroke="black" cx="835.5" cy="-394" rx="68.5" ry="18"/>
<text text-anchor="middle" x="835.5" y="-392.1" font-family="Helvetica,sans-Serif" font-size="8.00">C&#45;0572</text>
</g>
<!-- C&#45;0832&#45;&gt;C&#45;0572 -->
<g id="edge23" class="edge">
<title>C&#45;0832&#45;&gt;C&#45;0572</title>
<path fill="none" stroke="dimgray" stroke-width="0.8" d="M943.9,-482C934.55,-482 928,-482 928,-482 928,-482 928,-394 928,-394 928,-394 911.18,-394 911.18,-394"/>
<polygon fill="dimgray" stroke="dimgray" stroke-width="0.8" points="911.18,-391.55 904.18,-394 911.18,-396.45 911.18,-391.55"/>
</g>
<!-- S&#45;633 -->
<g id="node28" class="node">
<title>S&#45;633</title>
<polygon fill="mediumseagreen" stroke="black" points="1008.5,-412 940,-394 1008.5,-376 1077,-394 1008.5,-412"/>
<text text-anchor="middle" x="1008.5" y="-392.1" font-family="Helvetica,sans-Serif" font-size="8.00">S&#45;633</text>
</g>
<!-- C&#45;0832&#45;&gt;S&#45;633 -->
<g id="edge30" class="edge">
<title>C&#45;0832&#45;&gt;S&#45;633</title>
<path fill="none" stroke="dimgray" stroke-width="0.8" d="M974.25,-472.05C974.25,-472.05 974.25,-410.17 974.25,-410.17"/>
<polygon fill="dimgray" stroke="dimgray" stroke-width="0.8" points="976.7,-410.17 974.25,-403.17 971.8,-410.17 976.7,-410.17"/>
</g>
<!-- S&#45;634 -->
<g id="node29" class="node">
<title>S&#45;634</title>
<polygon fill="mediumseagreen" stroke="black" points="1181.5,-412 1113,-394 1181.5,-376 1250,-394 1181.5,-412"/>
<text text-anchor="middle" x="1181.5" y="-392.1" font-family="Helvetica,sans-Serif" font-size="8.00">S&#45;634</text>
</g>
<!-- C&#45;0832&#45;&gt;S&#45;634 -->
<g id="edge29" class="edge">
<title>C&#45;0832&#45;&gt;S&#45;634</title>
<path fill="none" stroke="dimgray" stroke-width="0.8" d="M1077.01,-488C1088.08,-488 1096,-488 1096,-488 1096,-488 1096,-394 1096,-394 1096,-394 1105.89,-394 1105.89,-394"/>
<polygon fill="dimgray" stroke="dimgray" stroke-width="0.8" points="1105.89,-396.45 1112.89,-394 1105.89,-391.55 1105.89,-396.45"/>
</g>
<!-- S&#45;648 -->
<g id="node21" class="node">
<title>S&#45;648</title>
<polygon fill="mediumseagreen" stroke="black" points="891.5,-130 823,-112 891.5,-94 960,-112 891.5,-130"/>
<text text-anchor="middle" x="891.5" y="-110.1" font-family="Helvetica,sans-Serif" font-size="8.00">S&#45;648</text>
</g>
<!-- C&#45;0573&#45;&gt;S&#45;648 -->
<g id="edge28" class="edge">
<title>C&#45;0573&#45;&gt;S&#45;648</title>
<path fill="none" stroke="dimgray" stroke-width="0.8" d="M863.5,-189.19C863.5,-189.19 863.5,-129.8 863.5,-129.8"/>
<polygon fill="dimgray" stroke="dimgray" stroke-width="0.8" points="865.95,-129.8 863.5,-122.8 861.05,-129.8 865.95,-129.8"/>
</g>
<!-- S&#45;637 -->
<g id="node25" class="node">
<title>S&#45;637</title>
<polygon fill="mediumseagreen" stroke="black" points="718.5,-130 650,-112 718.5,-94 787,-112 718.5,-130"/>
<text text-anchor="middle" x="718.5" y="-110.1" font-family="Helvetica,sans-Serif" font-size="8.00">S&#45;637</text>
</g>
<!-- C&#45;0573&#45;&gt;S&#45;637 -->
<g id="edge26" class="edge">
<title>C&#45;0573&#45;&gt;S&#45;637</title>
<path fill="none" stroke="dimgray" stroke-width="0.8" d="M773.67,-197.99C773.67,-197.99 773.67,-122.84 773.67,-122.84"/>
<polygon fill="dimgray" stroke="dimgray" stroke-width="0.8" points="776.12,-122.84 773.67,-115.84 771.22,-122.84 776.12,-122.84"/>
</g>
<!-- S&#45;233 -->
<g id="node17" class="node">
<title>S&#45;233</title>
<polygon fill="mediumseagreen" stroke="black" points="1007.5,-882 939,-864 1007.5,-846 1076,-864 1007.5,-882"/>
<text text-anchor="middle" x="1007.5" y="-862.1" font-family="Helvetica,sans-Serif" font-size="8.00">S&#45;233</text>
</g>
<!-- S&#45;233&#45;&gt;C&#45;0646 -->
<g id="edge5" class="edge">
<title>S&#45;233&#45;&gt;C&#45;0646</title>
<path fill="none" stroke="dimgray" stroke-width="0.8" d="M938.91,-864C912.71,-864 889,-864 889,-864 889,-864 889,-788.15 889,-788.15"/>
<polygon fill="dimgray" stroke="dimgray" stroke-width="0.8" points="891.45,-788.15 889,-781.15 886.55,-788.15 891.45,-788.15"/>
</g>
<!-- S&#45;2450 -->
<g id="node23" class="node">
<title>S&#45;2450</title>
<polygon fill="mediumseagreen" stroke="black" points="1007.5,-788 939,-770 1007.5,-752 1076,-770 1007.5,-788"/>
<text text-anchor="middle" x="1007.5" y="-768.1" font-family="Helvetica,sans-Serif" font-size="8.00">S&#45;2450</text>
</g>
<!-- S&#45;233&#45;&gt;S&#45;2450 -->
<g id="edge4" class="edge">
<title>S&#45;233&#45;&gt;S&#45;2450</title>
<path fill="none" stroke="dimgray" stroke-width="0.8" d="M1007.5,-845.88C1007.5,-845.88 1007.5,-795.07 1007.5,-795.07"/>
<polygon fill="dimgray" stroke="dimgray" stroke-width="0.8" points="1009.95,-795.07 1007.5,-788.07 1005.05,-795.07 1009.95,-795.07"/>
</g>
<!-- S&#45;2098 -->
<g id="node32" class="node">
<title>S&#45;2098</title>
<polygon fill="mediumseagreen" stroke="black" points="1180.5,-788 1112,-770 1180.5,-752 1249,-770 1180.5,-788"/>
<text text-anchor="middle" x="1180.5" y="-768.1" font-family="Helvetica,sans-Serif" font-size="8.00">S&#45;2098</text>
</g>
<!-- S&#45;233&#45;&gt;S&#45;2098 -->
<g id="edge3" class="edge">
<title>S&#45;233&#45;&gt;S&#45;2098</title>
<path fill="none" stroke="dimgray" stroke-width="0.8" d="M1076.37,-864C1124.62,-864 1180.5,-864 1180.5,-864 1180.5,-864 1180.5,-795.12 1180.5,-795.12"/>
<polygon fill="dimgray" stroke="dimgray" stroke-width="0.8" points="1182.95,-795.12 1180.5,-788.12 1178.05,-795.12 1182.95,-795.12"/>
</g>
<!-- C&#45;0571&#45;&gt;S&#45;637 -->
<g id="edge35" class="edge">
<title>C&#45;0571&#45;&gt;S&#45;637</title>
<path fill="none" stroke="blue" stroke-width="0.8" stroke-dasharray="5,2" d="M1527.5,-375.95C1527.5,-320.92 1527.5,-159 1527.5,-159 1527.5,-159 780.33,-159 780.33,-159 780.33,-159 780.33,-121.02 780.33,-121.02"/>
<polygon fill="blue" stroke="blue" stroke-width="0.8" points="782.78,-121.02 780.33,-114.02 777.88,-121.02 782.78,-121.02"/>
</g>
<!-- C&#45;0572&#45;&gt;R&#45;105 -->
<g id="edge24" class="edge">
<title>C&#45;0572&#45;&gt;R&#45;105</title>
<path fill="none" stroke="dimgray" stroke-width="0.8" d="M835.5,-375.88C835.5,-375.88 835.5,-325.07 835.5,-325.07"/>
<polygon fill="dimgray" stroke="dimgray" stroke-width="0.8" points="837.95,-325.07 835.5,-318.07 833.05,-325.07 837.95,-325.07"/>
</g>
<!-- S&#45;638 -->
<g id="node20" class="node">
<title>S&#45;638</title>
<polygon fill="mediumseagreen" stroke="black" points="1181.5,-506 1113,-488 1181.5,-470 1250,-488 1181.5,-506"/>
<text text-anchor="middle" x="1181.5" y="-486.1" font-family="Helvetica,sans-Serif" font-size="8.00">S&#45;638</text>
</g>
<!-- S&#45;1711 -->
<g id="node24" class="node">
<title>S&#45;1711</title>
<polygon fill="mediumseagreen" stroke="black" points="718.5,-36 650,-18 718.5,0 787,-18 718.5,-36"/>
<text text-anchor="middle" x="718.5" y="-16.1" font-family="Helvetica,sans-Serif" font-size="8.00">S&#45;1711</text>
</g>
<!-- S&#45;637&#45;&gt;S&#45;1711 -->
<g id="edge27" class="edge">
<title>S&#45;637&#45;&gt;S&#45;1711</title>
<path fill="none" stroke="dimgray" stroke-width="0.8" d="M718.5,-93.88C718.5,-93.88 718.5,-43.07 718.5,-43.07"/>
<polygon fill="dimgray" stroke="dimgray" stroke-width="0.8" points="720.95,-43.07 718.5,-36.07 716.05,-43.07 720.95,-43.07"/>
</g>
<!-- C&#45;0178&#45;&gt;S&#45;233 -->
<g id="edge2" class="edge">
<title>C&#45;0178&#45;&gt;S&#45;233</title>
<path fill="none" stroke="dimgray" stroke-width="0.8" d="M1007.5,-939.88C1007.5,-939.88 1007.5,-889.07 1007.5,-889.07"/>
<polygon fill="dimgray" stroke="dimgray" stroke-width="0.8" points="1009.95,-889.07 1007.5,-882.07 1005.05,-889.07 1009.95,-889.07"/>
</g>
<!-- S&#45;707&#45;&gt;S&#45;932 -->
<g id="edge9" class="edge">
<title>S&#45;707&#45;&gt;S&#45;932</title>
<path fill="none" stroke="dimgray" stroke-width="0.8" d="M636.93,-676C588.43,-676 532,-676 532,-676 532,-676 532,-593.04 532,-593.04"/>
<polygon fill="dimgray" stroke="dimgray" stroke-width="0.8" points="534.45,-593.04 532,-586.04 529.55,-593.04 534.45,-593.04"/>
</g>
<!-- S&#45;707&#45;&gt;S&#45;704 -->
<g id="edge7" class="edge">
<title>S&#45;707&#45;&gt;S&#45;704</title>
<path fill="none" stroke="dimgray" stroke-width="0.8" d="M684,-663.32C684,-663.32 684,-601.48 684,-601.48"/>
<polygon fill="dimgray" stroke="dimgray" stroke-width="0.8" points="686.45,-601.48 684,-594.48 681.55,-601.48 686.45,-601.48"/>
</g>
<!-- S&#45;707&#45;&gt;S&#45;1742 -->
<g id="edge14" class="edge">
<title>S&#45;707&#45;&gt;S&#45;1742</title>
<path fill="none" stroke="dimgray" stroke-width="0.8" d="M770.5,-674.94C770.5,-674.94 770.5,-589.93 770.5,-589.93"/>
<polygon fill="dimgray" stroke="dimgray" stroke-width="0.8" points="772.95,-589.93 770.5,-582.93 768.05,-589.93 772.95,-589.93"/>
</g>
<!-- S&#45;635&#45;&gt;R&#45;075 -->
<g id="edge18" class="edge">
<title>S&#45;635&#45;&gt;R&#45;075</title>
<path fill="none" stroke="dimgray" stroke-width="0.8" d="M1054.46,-588C1143.68,-588 1331.67,-588 1331.67,-588 1331.67,-588 1331.67,-513.34 1331.67,-513.34"/>
<polygon fill="dimgray" stroke="dimgray" stroke-width="0.8" points="1334.12,-513.34 1331.67,-506.34 1329.22,-513.34 1334.12,-513.34"/>
</g>
<!-- S&#45;635&#45;&gt;S&#45;636 -->
<g id="edge19" class="edge">
<title>S&#45;635&#45;&gt;S&#45;636</title>
<path fill="none" stroke="dimgray" stroke-width="0.8" d="M939.82,-582C926.2,-582 916,-582 916,-582 916,-582 916,-494 916,-494 916,-494 888.39,-494 888.39,-494"/>
<polygon fill="dimgray" stroke="dimgray" stroke-width="0.8" points="888.39,-491.55 881.39,-494 888.39,-496.45 888.39,-491.55"/>
</g>
<!-- S&#45;635&#45;&gt;C&#45;0832 -->
<g id="edge21" class="edge">
<title>S&#45;635&#45;&gt;C&#45;0832</title>
<path fill="none" stroke="dimgray" stroke-width="0.8" d="M1008.5,-563.88C1008.5,-563.88 1008.5,-513.07 1008.5,-513.07"/>
<polygon fill="dimgray" stroke="dimgray" stroke-width="0.8" points="1010.95,-513.07 1008.5,-506.07 1006.05,-513.07 1010.95,-513.07"/>
</g>
<!-- S&#45;635&#45;&gt;S&#45;638 -->
<g id="edge17" class="edge">
<title>S&#45;635&#45;&gt;S&#45;638</title>
<path fill="none" stroke="dimgray" stroke-width="0.8" d="M1054.27,-576C1105.38,-576 1181,-576 1181,-576 1181,-576 1181,-513.23 1181,-513.23"/>
<polygon fill="dimgray" stroke="dimgray" stroke-width="0.8" points="1183.45,-513.23 1181,-506.23 1178.55,-513.23 1183.45,-513.23"/>
</g>
</g>
</svg>
