<?xml version="1.0" encoding="UTF-8" standalone="no"?>
<!DOCTYPE svg PUBLIC "-//W3C//DTD SVG 1.1//EN"
 "http://www.w3.org/Graphics/SVG/1.1/DTD/svg11.dtd">
<!-- Generated by graphviz version 2.50.0 (0)
 -->
<!-- Title: Grafo_Circuito_208_23_ Pages: 1 -->
<svg width="1232pt" height="968pt"
 viewBox="0.00 0.00 1232.00 968.00" xmlns="http://www.w3.org/2000/svg" xmlns:xlink="http://www.w3.org/1999/xlink">
<g id="graph0" class="graph" transform="scale(1 1) rotate(0) translate(4 964)">
<title>Grafo_Circuito_208_23_</title>
<polygon fill="white" stroke="transparent" points="-4,4 -4,-964 1228,-964 1228,4 -4,4"/>
<!-- C&#45;0127 -->
<g id="node1" class="node">
<title>C&#45;0127</title>
<ellipse fill="tomato" stroke="black" cx="697" cy="-122.5" rx="72" ry="21.5"/>
<text text-anchor="middle" x="697" y="-120" font-family="Arial" font-size="10.00">C&#45;0127</text>
</g>
<!-- ext_circ_205_23_ -->
<g id="node29" class="node">
<title>ext_circ_205_23_</title>
<polygon fill="lightpink" stroke="darkorange" stroke-dasharray="5,2" points="859,-43 715,-43 715,0 859,0 859,-43"/>
<text text-anchor="middle" x="787" y="-24.5" font-family="Arial" font-size="10.00">Circuito:</text>
<text text-anchor="middle" x="787" y="-13.5" font-family="Arial" font-size="10.00">205&#45;23&#45;</text>
</g>
<!-- C&#45;0127&#45;&gt;ext_circ_205_23_ -->
<g id="edge30" class="edge">
<title>C&#45;0127&#45;&gt;ext_circ_205_23_</title>
<path fill="none" stroke="darkorange" stroke-dasharray="5,2" d="M742,-105.37C742,-105.37 742,-50.31 742,-50.31"/>
<polygon fill="darkorange" stroke="darkorange" points="744.45,-50.31 742,-43.31 739.55,-50.31 744.45,-50.31"/>
</g>
<!-- S&#45;303 -->
<g id="node2" class="node">
<title>S&#45;303</title>
<polygon fill="mediumseagreen" stroke="black" points="268,-548 196,-526.5 268,-505 340,-526.5 268,-548"/>
<text text-anchor="middle" x="268" y="-524" font-family="Arial" font-size="10.00">S&#45;303</text>
</g>
<!-- S&#45;1547 -->
<g id="node3" class="node">
<title>S&#45;1547</title>
<polygon fill="mediumseagreen" stroke="black" points="972,-649 900,-627.5 972,-606 1044,-627.5 972,-649"/>
<text text-anchor="middle" x="972" y="-625" font-family="Arial" font-size="10.00">S&#45;1547</text>
</g>
<!-- S&#45;1110 -->
<g id="node21" class="node">
<title>S&#45;1110</title>
<polygon fill="mediumseagreen" stroke="black" points="1062,-548 990,-526.5 1062,-505 1134,-526.5 1062,-548"/>
<text text-anchor="middle" x="1062" y="-524" font-family="Arial" font-size="10.00">S&#45;1110</text>
</g>
<!-- S&#45;1547&#45;&gt;S&#45;1110 -->
<g id="edge6" class="edge">
<title>S&#45;1547&#45;&gt;S&#45;1110</title>
<path fill="none" stroke="#4d4d4d" d="M1017,-619.23C1017,-619.23 1017,-541.6 1017,-541.6"/>
<polygon fill="#4d4d4d" stroke="#4d4d4d" points="1019.45,-541.6 1017,-534.6 1014.55,-541.6 1019.45,-541.6"/>
</g>
<!-- S&#45;278 -->
<g id="node4" class="node">
<title>S&#45;278</title>
<polygon fill="mediumseagreen" stroke="black" points="432,-649 360,-627.5 432,-606 504,-627.5 432,-649"/>
<text text-anchor="middle" x="432" y="-625" font-family="Arial" font-size="10.00">S&#45;278</text>
</g>
<!-- C&#45;0786 -->
<g id="node5" class="node">
<title>C&#45;0786</title>
<ellipse fill="tomato" stroke="black" cx="402" cy="-425.5" rx="72" ry="21.5"/>
<text text-anchor="middle" x="402" y="-423" font-family="Arial" font-size="10.00">C&#45;0786</text>
</g>
<!-- ext_circ_208_25_ -->
<g id="node30" class="node">
<title>ext_circ_208_25_</title>
<polygon fill="lightpink" stroke="darkorange" stroke-dasharray="5,2" points="601,-346 457,-346 457,-303 601,-303 601,-346"/>
<text text-anchor="middle" x="529" y="-327.5" font-family="Arial" font-size="10.00">Circuito:</text>
<text text-anchor="middle" x="529" y="-316.5" font-family="Arial" font-size="10.00">208&#45;25&#45;</text>
</g>
<!-- C&#45;0786&#45;&gt;ext_circ_208_25_ -->
<g id="edge32" class="edge">
<title>C&#45;0786&#45;&gt;ext_circ_208_25_</title>
<path fill="none" stroke="darkorange" stroke-dasharray="5,2" d="M465.5,-415.07C465.5,-415.07 465.5,-353.35 465.5,-353.35"/>
<polygon fill="darkorange" stroke="darkorange" points="467.95,-353.35 465.5,-346.35 463.05,-353.35 467.95,-353.35"/>
</g>
<!-- S&#45;304 -->
<g id="node6" class="node">
<title>S&#45;304</title>
<polygon fill="mediumseagreen" stroke="black" points="792,-245 720,-223.5 792,-202 864,-223.5 792,-245"/>
<text text-anchor="middle" x="792" y="-221" font-family="Arial" font-size="10.00">S&#45;304</text>
</g>
<!-- C&#45;0871 -->
<g id="node7" class="node">
<title>C&#45;0871</title>
<ellipse fill="mediumseagreen" stroke="black" cx="882" cy="-324.5" rx="72" ry="21.5"/>
<text text-anchor="middle" x="882" y="-322" font-family="Arial" font-size="10.00">C&#45;0871</text>
</g>
<!-- C&#45;0871&#45;&gt;C&#45;0127 -->
<g id="edge19" class="edge">
<title>C&#45;0871&#45;&gt;C&#45;0127</title>
<path fill="none" stroke="#4d4d4d" d="M814.27,-317C753.06,-317 672.5,-317 672.5,-317 672.5,-317 672.5,-149.95 672.5,-149.95"/>
<polygon fill="#4d4d4d" stroke="#4d4d4d" points="674.95,-149.95 672.5,-142.95 670.05,-149.95 674.95,-149.95"/>
</g>
<!-- C&#45;0871&#45;&gt;S&#45;304 -->
<g id="edge13" class="edge">
<title>C&#45;0871&#45;&gt;S&#45;304</title>
<path fill="none" stroke="#4d4d4d" d="M837,-307.37C837,-307.37 837,-238.78 837,-238.78"/>
<polygon fill="#4d4d4d" stroke="#4d4d4d" points="839.45,-238.78 837,-231.78 834.55,-238.78 839.45,-238.78"/>
</g>
<!-- C&#45;1193 -->
<g id="node22" class="node">
<title>C&#45;1193</title>
<ellipse fill="mediumseagreen" stroke="black" cx="972" cy="-223.5" rx="72" ry="21.5"/>
<text text-anchor="middle" x="972" y="-221" font-family="Arial" font-size="10.00">C&#45;1193</text>
</g>
<!-- C&#45;0871&#45;&gt;C&#45;1193 -->
<g id="edge17" class="edge">
<title>C&#45;0871&#45;&gt;C&#45;1193</title>
<path fill="none" stroke="#4d4d4d" d="M927,-307.37C927,-307.37 927,-247.38 927,-247.38"/>
<polygon fill="#4d4d4d" stroke="#4d4d4d" points="929.45,-247.38 927,-240.38 924.55,-247.38 929.45,-247.38"/>
</g>
<!-- S&#45;305 -->
<g id="node26" class="node">
<title>S&#45;305</title>
<polygon fill="mediumseagreen" stroke="black" points="1152,-245 1080,-223.5 1152,-202 1224,-223.5 1152,-245"/>
<text text-anchor="middle" x="1152" y="-221" font-family="Arial" font-size="10.00">S&#45;305</text>
</g>
<!-- C&#45;0871&#45;&gt;S&#45;305 -->
<g id="edge14" class="edge">
<title>C&#45;0871&#45;&gt;S&#45;305</title>
<path fill="none" stroke="#4d4d4d" d="M954.12,-324C1019.93,-324 1107,-324 1107,-324 1107,-324 1107,-238.72 1107,-238.72"/>
<polygon fill="#4d4d4d" stroke="#4d4d4d" points="1109.45,-238.72 1107,-231.72 1104.55,-238.72 1109.45,-238.72"/>
</g>
<!-- S&#45;306 -->
<g id="node8" class="node">
<title>S&#45;306</title>
<polygon fill="mediumseagreen" stroke="black" points="1152,-144 1080,-122.5 1152,-101 1224,-122.5 1152,-144"/>
<text text-anchor="middle" x="1152" y="-120" font-family="Arial" font-size="10.00">S&#45;306</text>
</g>
<!-- S&#45;307 -->
<g id="node27" class="node">
<title>S&#45;307</title>
<polygon fill="mediumseagreen" stroke="black" points="1152,-43 1080,-21.5 1152,0 1224,-21.5 1152,-43"/>
<text text-anchor="middle" x="1152" y="-19" font-family="Arial" font-size="10.00">S&#45;307</text>
</g>
<!-- S&#45;306&#45;&gt;S&#45;307 -->
<g id="edge16" class="edge">
<title>S&#45;306&#45;&gt;S&#45;307</title>
<path fill="none" stroke="#4d4d4d" d="M1152,-100.58C1152,-100.58 1152,-50.03 1152,-50.03"/>
<polygon fill="#4d4d4d" stroke="#4d4d4d" points="1154.45,-50.03 1152,-43.03 1149.55,-50.03 1154.45,-50.03"/>
</g>
<!-- C&#45;0870 -->
<g id="node9" class="node">
<title>C&#45;0870</title>
<ellipse fill="tomato" stroke="black" cx="522" cy="-526.5" rx="72" ry="21.5"/>
<text text-anchor="middle" x="522" y="-524" font-family="Arial" font-size="10.00">C&#45;0870</text>
</g>
<!-- C&#45;0870&#45;&gt;C&#45;0871 -->
<g id="edge28" class="edge">
<title>C&#45;0870&#45;&gt;C&#45;0871</title>
<path fill="none" stroke="blue" stroke-dasharray="5,2" d="M594.22,-526C604.68,-526 612,-526 612,-526 612,-526 612,-331 612,-331 612,-331 806.17,-331 806.17,-331"/>
<polygon fill="blue" stroke="blue" points="806.17,-333.45 813.17,-331 806.17,-328.55 806.17,-333.45"/>
</g>
<!-- R&#45;200 -->
<g id="node10" class="node">
<title>R&#45;200</title>
<polygon fill="mediumseagreen" stroke="black" points="954,-416.59 954,-434.41 911.82,-447 852.18,-447 810,-434.41 810,-416.59 852.18,-404 911.82,-404 954,-416.59"/>
<text text-anchor="middle" x="882" y="-423" font-family="Arial" font-size="10.00">R&#45;200</text>
</g>
<!-- R&#45;200&#45;&gt;C&#45;0871 -->
<g id="edge12" class="edge">
<title>R&#45;200&#45;&gt;C&#45;0871</title>
<path fill="none" stroke="#4d4d4d" d="M882,-403.58C882,-403.58 882,-353.03 882,-353.03"/>
<polygon fill="#4d4d4d" stroke="#4d4d4d" points="884.45,-353.03 882,-346.03 879.55,-353.03 884.45,-353.03"/>
</g>
<!-- C&#45;1199 -->
<g id="node11" class="node">
<title>C&#45;1199</title>
<ellipse fill="mediumseagreen" stroke="black" cx="72" cy="-829.5" rx="72" ry="21.5"/>
<text text-anchor="middle" x="72" y="-827" font-family="Arial" font-size="10.00">C&#45;1199</text>
</g>
<!-- R&#45;296 -->
<g id="node23" class="node">
<title>R&#45;296</title>
<polygon fill="mediumseagreen" stroke="black" points="144,-719.59 144,-737.41 101.82,-750 42.18,-750 0,-737.41 0,-719.59 42.18,-707 101.82,-707 144,-719.59"/>
<text text-anchor="middle" x="72" y="-726" font-family="Arial" font-size="10.00">R&#45;296</text>
</g>
<!-- C&#45;1199&#45;&gt;R&#45;296 -->
<g id="edge27" class="edge">
<title>C&#45;1199&#45;&gt;R&#45;296</title>
<path fill="none" stroke="#4d4d4d" d="M72,-807.58C72,-807.58 72,-757.03 72,-757.03"/>
<polygon fill="#4d4d4d" stroke="#4d4d4d" points="74.45,-757.03 72,-750.03 69.55,-757.03 74.45,-757.03"/>
</g>
<!-- C&#45;0327 -->
<g id="node12" class="node">
<title>C&#45;0327</title>
<ellipse fill="mediumseagreen" stroke="black" cx="612" cy="-728.5" rx="72" ry="21.5"/>
<text text-anchor="middle" x="612" y="-726" font-family="Arial" font-size="10.00">C&#45;0327</text>
</g>
<!-- C&#45;0327&#45;&gt;S&#45;278 -->
<g id="edge24" class="edge">
<title>C&#45;0327&#45;&gt;S&#45;278</title>
<path fill="none" stroke="#4d4d4d" d="M539.78,-728C529.32,-728 522,-728 522,-728 522,-728 522,-627 522,-627 522,-627 509.47,-627 509.47,-627"/>
<polygon fill="#4d4d4d" stroke="#4d4d4d" points="509.47,-624.55 502.47,-627 509.47,-629.45 509.47,-624.55"/>
</g>
<!-- R&#45;007 -->
<g id="node17" class="node">
<title>R&#45;007</title>
<polygon fill="mediumseagreen" stroke="black" points="684,-618.59 684,-636.41 641.82,-649 582.18,-649 540,-636.41 540,-618.59 582.18,-606 641.82,-606 684,-618.59"/>
<text text-anchor="middle" x="612" y="-625" font-family="Arial" font-size="10.00">R&#45;007</text>
</g>
<!-- C&#45;0327&#45;&gt;R&#45;007 -->
<g id="edge8" class="edge">
<title>C&#45;0327&#45;&gt;R&#45;007</title>
<path fill="none" stroke="#4d4d4d" d="M612,-706.58C612,-706.58 612,-656.03 612,-656.03"/>
<polygon fill="#4d4d4d" stroke="#4d4d4d" points="614.45,-656.03 612,-649.03 609.55,-656.03 614.45,-656.03"/>
</g>
<!-- S&#45;266 -->
<g id="node13" class="node">
<title>S&#45;266</title>
<polygon fill="mediumseagreen" stroke="black" points="252,-851 180,-829.5 252,-808 324,-829.5 252,-851"/>
<text text-anchor="middle" x="252" y="-827" font-family="Arial" font-size="10.00">S&#45;266</text>
</g>
<!-- S&#45;2438 -->
<g id="node18" class="node">
<title>S&#45;2438</title>
<polygon fill="mediumseagreen" stroke="black" points="252,-750 180,-728.5 252,-707 324,-728.5 252,-750"/>
<text text-anchor="middle" x="252" y="-726" font-family="Arial" font-size="10.00">S&#45;2438</text>
</g>
<!-- S&#45;266&#45;&gt;S&#45;2438 -->
<g id="edge2" class="edge">
<title>S&#45;266&#45;&gt;S&#45;2438</title>
<path fill="none" stroke="#4d4d4d" d="M252,-807.58C252,-807.58 252,-757.03 252,-757.03"/>
<polygon fill="#4d4d4d" stroke="#4d4d4d" points="254.45,-757.03 252,-750.03 249.55,-757.03 254.45,-757.03"/>
</g>
<!-- R&#45;174 -->
<g id="node14" class="node">
<title>R&#45;174</title>
<polygon fill="tomato" stroke="black" points="767,-416.59 767,-434.41 724.82,-447 665.18,-447 623,-434.41 623,-416.59 665.18,-404 724.82,-404 767,-416.59"/>
<text text-anchor="middle" x="695" y="-423" font-family="Arial" font-size="10.00">R&#45;174</text>
</g>
<!-- R&#45;174&#45;&gt;ext_circ_208_25_ -->
<g id="edge31" class="edge">
<title>R&#45;174&#45;&gt;ext_circ_208_25_</title>
<path fill="none" stroke="darkorange" stroke-dasharray="5,2" d="M622.98,-418C609.04,-418 598.67,-418 598.67,-418 598.67,-418 598.67,-353.19 598.67,-353.19"/>
<polygon fill="darkorange" stroke="darkorange" points="601.12,-353.19 598.67,-346.19 596.22,-353.19 601.12,-353.19"/>
</g>
<!-- 208&#45;23&#45; -->
<g id="node15" class="node">
<title>208&#45;23&#45;</title>
<polygon fill="gold" stroke="black" points="414,-925.59 414,-943.41 371.82,-956 312.18,-956 270,-943.41 270,-925.59 312.18,-913 371.82,-913 414,-925.59"/>
<polygon fill="none" stroke="black" points="418,-922.61 418,-946.39 372.41,-960 311.59,-960 266,-946.39 266,-922.61 311.59,-909 372.41,-909 418,-922.61"/>
<text text-anchor="middle" x="342" y="-932" font-family="Arial" font-size="10.00">208&#45;23&#45;</text>
</g>
<!-- 208&#45;23&#45;&#45;&gt;C&#45;1199 -->
<g id="edge26" class="edge">
<title>208&#45;23&#45;&#45;&gt;C&#45;1199</title>
<path fill="none" stroke="#4d4d4d" d="M265.71,-934C185.87,-934 72,-934 72,-934 72,-934 72,-858.15 72,-858.15"/>
<polygon fill="#4d4d4d" stroke="#4d4d4d" points="74.45,-858.15 72,-851.15 69.55,-858.15 74.45,-858.15"/>
</g>
<!-- 208&#45;23&#45;&#45;&gt;S&#45;266 -->
<g id="edge1" class="edge">
<title>208&#45;23&#45;&#45;&gt;S&#45;266</title>
<path fill="none" stroke="#4d4d4d" d="M295,-913.76C295,-913.76 295,-845.36 295,-845.36"/>
<polygon fill="#4d4d4d" stroke="#4d4d4d" points="297.45,-845.36 295,-838.36 292.55,-845.36 297.45,-845.36"/>
</g>
<!-- C&#45;0644 -->
<g id="node19" class="node">
<title>C&#45;0644</title>
<ellipse fill="tomato" stroke="black" cx="432" cy="-829.5" rx="72" ry="21.5"/>
<text text-anchor="middle" x="432" y="-827" font-family="Arial" font-size="10.00">C&#45;0644</text>
</g>
<!-- 208&#45;23&#45;&#45;&gt;C&#45;0644 -->
<g id="edge25" class="edge">
<title>208&#45;23&#45;&#45;&gt;C&#45;0644</title>
<path fill="none" stroke="#4d4d4d" d="M389,-913.76C389,-913.76 389,-854.07 389,-854.07"/>
<polygon fill="#4d4d4d" stroke="#4d4d4d" points="391.45,-854.07 389,-847.07 386.55,-854.07 391.45,-854.07"/>
</g>
<!-- R&#45;006 -->
<g id="node24" class="node">
<title>R&#45;006</title>
<polygon fill="mediumseagreen" stroke="black" points="684,-820.59 684,-838.41 641.82,-851 582.18,-851 540,-838.41 540,-820.59 582.18,-808 641.82,-808 684,-820.59"/>
<text text-anchor="middle" x="612" y="-827" font-family="Arial" font-size="10.00">R&#45;006</text>
</g>
<!-- 208&#45;23&#45;&#45;&gt;R&#45;006 -->
<g id="edge3" class="edge">
<title>208&#45;23&#45;&#45;&gt;R&#45;006</title>
<path fill="none" stroke="#4d4d4d" d="M418.29,-934C498.13,-934 612,-934 612,-934 612,-934 612,-858.15 612,-858.15"/>
<polygon fill="#4d4d4d" stroke="#4d4d4d" points="614.45,-858.15 612,-851.15 609.55,-858.15 614.45,-858.15"/>
</g>
<!-- S&#45;279 -->
<g id="node16" class="node">
<title>S&#45;279</title>
<polygon fill="mediumseagreen" stroke="black" points="882,-750 810,-728.5 882,-707 954,-728.5 882,-750"/>
<text text-anchor="middle" x="882" y="-726" font-family="Arial" font-size="10.00">S&#45;279</text>
</g>
<!-- S&#45;279&#45;&gt;S&#45;1547 -->
<g id="edge5" class="edge">
<title>S&#45;279&#45;&gt;S&#45;1547</title>
<path fill="none" stroke="#4d4d4d" d="M927,-720.23C927,-720.23 927,-642.6 927,-642.6"/>
<polygon fill="#4d4d4d" stroke="#4d4d4d" points="929.45,-642.6 927,-635.6 924.55,-642.6 929.45,-642.6"/>
</g>
<!-- R&#45;007&#45;&gt;S&#45;303 -->
<g id="edge20" class="edge">
<title>R&#45;007&#45;&gt;S&#45;303</title>
<path fill="none" stroke="#4d4d4d" d="M558,-613.16C558,-598.23 558,-577 558,-577 558,-577 332,-577 332,-577 332,-577 332,-535.94 332,-535.94"/>
<polygon fill="#4d4d4d" stroke="#4d4d4d" points="334.45,-535.94 332,-528.94 329.55,-535.94 334.45,-535.94"/>
</g>
<!-- R&#45;007&#45;&gt;C&#45;0786 -->
<g id="edge23" class="edge">
<title>R&#45;007&#45;&gt;C&#45;0786</title>
<path fill="none" stroke="#4d4d4d" d="M596.33,-605.83C596.33,-554.93 596.33,-432 596.33,-432 596.33,-432 477.79,-432 477.79,-432"/>
<polygon fill="#4d4d4d" stroke="#4d4d4d" points="477.79,-429.55 470.79,-432 477.79,-434.45 477.79,-429.55"/>
</g>
<!-- R&#45;007&#45;&gt;C&#45;0870 -->
<g id="edge9" class="edge">
<title>R&#45;007&#45;&gt;C&#45;0870</title>
<path fill="none" stroke="#4d4d4d" d="M576,-607.55C576,-607.55 576,-547.87 576,-547.87"/>
<polygon fill="#4d4d4d" stroke="#4d4d4d" points="578.45,-547.87 576,-540.87 573.55,-547.87 578.45,-547.87"/>
</g>
<!-- C&#45;0787 -->
<g id="node25" class="node">
<title>C&#45;0787</title>
<ellipse fill="mediumseagreen" stroke="black" cx="702" cy="-526.5" rx="72" ry="21.5"/>
<text text-anchor="middle" x="702" y="-524" font-family="Arial" font-size="10.00">C&#45;0787</text>
</g>
<!-- R&#45;007&#45;&gt;C&#45;0787 -->
<g id="edge21" class="edge">
<title>R&#45;007&#45;&gt;C&#45;0787</title>
<path fill="none" stroke="#4d4d4d" d="M657,-610.37C657,-610.37 657,-550.38 657,-550.38"/>
<polygon fill="#4d4d4d" stroke="#4d4d4d" points="659.45,-550.38 657,-543.38 654.55,-550.38 659.45,-550.38"/>
</g>
<!-- C&#45;0869 -->
<g id="node28" class="node">
<title>C&#45;0869</title>
<ellipse fill="mediumseagreen" stroke="black" cx="882" cy="-526.5" rx="72" ry="21.5"/>
<text text-anchor="middle" x="882" y="-524" font-family="Arial" font-size="10.00">C&#45;0869</text>
</g>
<!-- R&#45;007&#45;&gt;C&#45;0869 -->
<g id="edge10" class="edge">
<title>R&#45;007&#45;&gt;C&#45;0869</title>
<path fill="none" stroke="#4d4d4d" d="M684.25,-627C755.88,-627 855,-627 855,-627 855,-627 855,-553.84 855,-553.84"/>
<polygon fill="#4d4d4d" stroke="#4d4d4d" points="857.45,-553.84 855,-546.84 852.55,-553.84 857.45,-553.84"/>
</g>
<!-- ext_circ_208_24_ -->
<g id="node31" class="node">
<title>ext_circ_208_24_</title>
<polygon fill="lightpink" stroke="darkorange" stroke-dasharray="5,2" points="504,-750 360,-750 360,-707 504,-707 504,-750"/>
<text text-anchor="middle" x="432" y="-731.5" font-family="Arial" font-size="10.00">Circuito:</text>
<text text-anchor="middle" x="432" y="-720.5" font-family="Arial" font-size="10.00">208&#45;24&#45;</text>
</g>
<!-- C&#45;0644&#45;&gt;ext_circ_208_24_ -->
<g id="edge33" class="edge">
<title>C&#45;0644&#45;&gt;ext_circ_208_24_</title>
<path fill="none" stroke="darkorange" stroke-dasharray="5,2" d="M432,-807.58C432,-807.58 432,-757.03 432,-757.03"/>
<polygon fill="darkorange" stroke="darkorange" points="434.45,-757.03 432,-750.03 429.55,-757.03 434.45,-757.03"/>
</g>
<!-- R&#45;294 -->
<g id="node20" class="node">
<title>R&#45;294</title>
<polygon fill="tomato" stroke="black" points="1012,-113.59 1012,-131.41 969.82,-144 910.18,-144 868,-131.41 868,-113.59 910.18,-101 969.82,-101 1012,-113.59"/>
<text text-anchor="middle" x="940" y="-120" font-family="Arial" font-size="10.00">R&#45;294</text>
</g>
<!-- R&#45;294&#45;&gt;ext_circ_205_23_ -->
<g id="edge29" class="edge">
<title>R&#45;294&#45;&gt;ext_circ_205_23_</title>
<path fill="none" stroke="darkorange" stroke-dasharray="5,2" d="M867.8,-122C839.65,-122 814,-122 814,-122 814,-122 814,-50.31 814,-50.31"/>
<polygon fill="darkorange" stroke="darkorange" points="816.45,-50.31 814,-43.31 811.55,-50.31 816.45,-50.31"/>
</g>
<!-- C&#45;1193&#45;&gt;R&#45;294 -->
<g id="edge18" class="edge">
<title>C&#45;1193&#45;&gt;R&#45;294</title>
<path fill="none" stroke="#4d4d4d" d="M956,-202.08C956,-202.08 956,-151.24 956,-151.24"/>
<polygon fill="#4d4d4d" stroke="#4d4d4d" points="958.45,-151.24 956,-144.24 953.55,-151.24 958.45,-151.24"/>
</g>
<!-- R&#45;006&#45;&gt;C&#45;0327 -->
<g id="edge7" class="edge">
<title>R&#45;006&#45;&gt;C&#45;0327</title>
<path fill="none" stroke="#4d4d4d" d="M612,-807.58C612,-807.58 612,-757.03 612,-757.03"/>
<polygon fill="#4d4d4d" stroke="#4d4d4d" points="614.45,-757.03 612,-750.03 609.55,-757.03 614.45,-757.03"/>
</g>
<!-- R&#45;006&#45;&gt;S&#45;279 -->
<g id="edge4" class="edge">
<title>R&#45;006&#45;&gt;S&#45;279</title>
<path fill="none" stroke="#4d4d4d" d="M684,-829C763.98,-829 882,-829 882,-829 882,-829 882,-757.31 882,-757.31"/>
<polygon fill="#4d4d4d" stroke="#4d4d4d" points="884.45,-757.31 882,-750.31 879.55,-757.31 884.45,-757.31"/>
</g>
<!-- C&#45;0787&#45;&gt;R&#45;174 -->
<g id="edge22" class="edge">
<title>C&#45;0787&#45;&gt;R&#45;174</title>
<path fill="none" stroke="#4d4d4d" d="M698.5,-504.58C698.5,-504.58 698.5,-454.03 698.5,-454.03"/>
<polygon fill="#4d4d4d" stroke="#4d4d4d" points="700.95,-454.03 698.5,-447.03 696.05,-454.03 700.95,-454.03"/>
</g>
<!-- S&#45;305&#45;&gt;S&#45;306 -->
<g id="edge15" class="edge">
<title>S&#45;305&#45;&gt;S&#45;306</title>
<path fill="none" stroke="#4d4d4d" d="M1152,-201.58C1152,-201.58 1152,-151.03 1152,-151.03"/>
<polygon fill="#4d4d4d" stroke="#4d4d4d" points="1154.45,-151.03 1152,-144.03 1149.55,-151.03 1154.45,-151.03"/>
</g>
<!-- C&#45;0869&#45;&gt;R&#45;200 -->
<g id="edge11" class="edge">
<title>C&#45;0869&#45;&gt;R&#45;200</title>
<path fill="none" stroke="#4d4d4d" d="M882,-504.58C882,-504.58 882,-454.03 882,-454.03"/>
<polygon fill="#4d4d4d" stroke="#4d4d4d" points="884.45,-454.03 882,-447.03 879.55,-454.03 884.45,-454.03"/>
</g>
</g>
</svg>
