<?xml version="1.0" encoding="UTF-8" standalone="no"?>
<!DOCTYPE svg PUBLIC "-//W3C//DTD SVG 1.1//EN"
 "http://www.w3.org/Graphics/SVG/1.1/DTD/svg11.dtd">
<!-- Generated by graphviz version 2.50.0 (0)
 -->
<!-- Title: Grafo_Circuito_111_22_ Pages: 1 -->
<svg width="1782pt" height="1180pt"
 viewBox="0.00 0.00 1782.00 1180.00" xmlns="http://www.w3.org/2000/svg" xmlns:xlink="http://www.w3.org/1999/xlink">
<g id="graph0" class="graph" transform="scale(1 1) rotate(0) translate(4 1176)">
<title>Grafo_Circuito_111_22_</title>
<polygon fill="white" stroke="transparent" points="-4,4 -4,-1176 1778,-1176 1778,4 -4,4"/>
<!-- S&#45;170 -->
<g id="node1" class="node">
<title>S&#45;170</title>
<polygon fill="mediumseagreen" stroke="black" points="802.5,-600 734,-582 802.5,-564 871,-582 802.5,-600"/>
<text text-anchor="middle" x="802.5" y="-580.1" font-family="Helvetica,sans-Serif" font-size="8.00">S&#45;170</text>
</g>
<!-- S&#45;2091 -->
<g id="node9" class="node">
<title>S&#45;2091</title>
<polygon fill="mediumseagreen" stroke="black" points="629.5,-506 561,-488 629.5,-470 698,-488 629.5,-506"/>
<text text-anchor="middle" x="629.5" y="-486.1" font-family="Helvetica,sans-Serif" font-size="8.00">S&#45;2091</text>
</g>
<!-- S&#45;170&#45;&gt;S&#45;2091 -->
<g id="edge7" class="edge">
<title>S&#45;170&#45;&gt;S&#45;2091</title>
<path fill="none" stroke="dimgray" stroke-width="0.8" d="M734,-582C697.68,-582 660.5,-582 660.5,-582 660.5,-582 660.5,-505.06 660.5,-505.06"/>
<polygon fill="dimgray" stroke="dimgray" stroke-width="0.8" points="662.95,-505.06 660.5,-498.06 658.05,-505.06 662.95,-505.06"/>
</g>
<!-- S&#45;2183 -->
<g id="node14" class="node">
<title>S&#45;2183</title>
<polygon fill="mediumseagreen" stroke="black" points="802.5,-506 734,-488 802.5,-470 871,-488 802.5,-506"/>
<text text-anchor="middle" x="802.5" y="-486.1" font-family="Helvetica,sans-Serif" font-size="8.00">S&#45;2183</text>
</g>
<!-- S&#45;170&#45;&gt;S&#45;2183 -->
<g id="edge8" class="edge">
<title>S&#45;170&#45;&gt;S&#45;2183</title>
<path fill="none" stroke="dimgray" stroke-width="0.8" d="M802.5,-563.88C802.5,-563.88 802.5,-513.07 802.5,-513.07"/>
<polygon fill="dimgray" stroke="dimgray" stroke-width="0.8" points="804.95,-513.07 802.5,-506.07 800.05,-513.07 804.95,-513.07"/>
</g>
<!-- S&#45;2137 -->
<g id="node2" class="node">
<title>S&#45;2137</title>
<polygon fill="mediumseagreen" stroke="black" points="1037.5,-882 969,-864 1037.5,-846 1106,-864 1037.5,-882"/>
<text text-anchor="middle" x="1037.5" y="-862.1" font-family="Helvetica,sans-Serif" font-size="8.00">S&#45;2137</text>
</g>
<!-- S&#45;1149 -->
<g id="node3" class="node">
<title>S&#45;1149</title>
<polygon fill="mediumseagreen" stroke="black" points="691.5,-882 623,-864 691.5,-846 760,-864 691.5,-882"/>
<text text-anchor="middle" x="691.5" y="-862.1" font-family="Helvetica,sans-Serif" font-size="8.00">S&#45;1149</text>
</g>
<!-- C&#45;1132 -->
<g id="node4" class="node">
<title>C&#45;1132</title>
<ellipse fill="mediumseagreen" stroke="black" cx="1188.5" cy="-206" rx="68.5" ry="18"/>
<text text-anchor="middle" x="1188.5" y="-204.1" font-family="Helvetica,sans-Serif" font-size="8.00">C&#45;1132</text>
</g>
<!-- R&#45;284 -->
<g id="node17" class="node">
<title>R&#45;284</title>
<polygon fill="tomato" stroke="black" points="1257,-104.54 1257,-119.46 1216.87,-130 1160.13,-130 1120,-119.46 1120,-104.54 1160.13,-94 1216.87,-94 1257,-104.54"/>
<text text-anchor="middle" x="1188.5" y="-110.1" font-family="Helvetica,sans-Serif" font-size="8.00">R&#45;284</text>
</g>
<!-- C&#45;1132&#45;&gt;R&#45;284 -->
<g id="edge26" class="edge">
<title>C&#45;1132&#45;&gt;R&#45;284</title>
<path fill="none" stroke="dimgray" stroke-width="0.8" d="M1188.5,-187.88C1188.5,-187.88 1188.5,-137.07 1188.5,-137.07"/>
<polygon fill="dimgray" stroke="dimgray" stroke-width="0.8" points="1190.95,-137.07 1188.5,-130.07 1186.05,-137.07 1190.95,-137.07"/>
</g>
<!-- S&#45;175 -->
<g id="node5" class="node">
<title>S&#45;175</title>
<polygon fill="mediumseagreen" stroke="black" points="445.5,-976 377,-958 445.5,-940 514,-958 445.5,-976"/>
<text text-anchor="middle" x="445.5" y="-956.1" font-family="Helvetica,sans-Serif" font-size="8.00">S&#45;175</text>
</g>
<!-- R&#45;029 -->
<g id="node6" class="node">
<title>R&#45;029</title>
<polygon fill="mediumseagreen" stroke="black" points="1273,-574.54 1273,-589.46 1232.87,-600 1176.13,-600 1136,-589.46 1136,-574.54 1176.13,-564 1232.87,-564 1273,-574.54"/>
<text text-anchor="middle" x="1204.5" y="-580.1" font-family="Helvetica,sans-Serif" font-size="8.00">R&#45;029</text>
</g>
<!-- C&#45;0490 -->
<g id="node33" class="node">
<title>C&#45;0490</title>
<ellipse fill="mediumseagreen" stroke="black" cx="1278.5" cy="-488" rx="68.5" ry="18"/>
<text text-anchor="middle" x="1278.5" y="-486.1" font-family="Helvetica,sans-Serif" font-size="8.00">C&#45;0490</text>
</g>
<!-- R&#45;029&#45;&gt;C&#45;0490 -->
<g id="edge21" class="edge">
<title>R&#45;029&#45;&gt;C&#45;0490</title>
<path fill="none" stroke="dimgray" stroke-width="0.8" d="M1241.5,-566.05C1241.5,-566.05 1241.5,-510.4 1241.5,-510.4"/>
<polygon fill="dimgray" stroke="dimgray" stroke-width="0.8" points="1243.95,-510.4 1241.5,-503.4 1239.05,-510.4 1243.95,-510.4"/>
</g>
<!-- C&#45;0491 -->
<g id="node7" class="node">
<title>C&#45;0491</title>
<ellipse fill="mediumseagreen" stroke="black" cx="1186.5" cy="-676" rx="68.5" ry="18"/>
<text text-anchor="middle" x="1186.5" y="-674.1" font-family="Helvetica,sans-Serif" font-size="8.00">C&#45;0491</text>
</g>
<!-- C&#45;0491&#45;&gt;R&#45;029 -->
<g id="edge20" class="edge">
<title>C&#45;0491&#45;&gt;R&#45;029</title>
<path fill="none" stroke="dimgray" stroke-width="0.8" d="M1195.5,-657.88C1195.5,-657.88 1195.5,-607.07 1195.5,-607.07"/>
<polygon fill="dimgray" stroke="dimgray" stroke-width="0.8" points="1197.95,-607.07 1195.5,-600.07 1193.05,-607.07 1197.95,-607.07"/>
</g>
<!-- C&#45;0924 -->
<g id="node8" class="node">
<title>C&#45;0924</title>
<ellipse fill="tomato" stroke="black" cx="618.5" cy="-958" rx="68.5" ry="18"/>
<text text-anchor="middle" x="618.5" y="-956.1" font-family="Helvetica,sans-Serif" font-size="8.00">C&#45;0924</text>
</g>
<!-- C&#45;0925 -->
<g id="node15" class="node">
<title>C&#45;0925</title>
<ellipse fill="mediumseagreen" stroke="black" cx="1315.5" cy="-770" rx="68.5" ry="18"/>
<text text-anchor="middle" x="1315.5" y="-768.1" font-family="Helvetica,sans-Serif" font-size="8.00">C&#45;0925</text>
</g>
<!-- C&#45;0924&#45;&gt;C&#45;0925 -->
<g id="edge36" class="edge">
<title>C&#45;0924&#45;&gt;C&#45;0925</title>
<path fill="none" stroke="blue" stroke-width="0.8" stroke-dasharray="5,2" d="M592,-941.27C592,-903.92 592,-817 592,-817 592,-817 1278,-817 1278,-817 1278,-817 1278,-792.13 1278,-792.13"/>
<polygon fill="blue" stroke="blue" stroke-width="0.8" points="1280.45,-792.13 1278,-785.13 1275.55,-792.13 1280.45,-792.13"/>
</g>
<!-- S&#45;1878 -->
<g id="node10" class="node">
<title>S&#45;1878</title>
<polygon fill="mediumseagreen" stroke="black" points="1361.5,-130 1293,-112 1361.5,-94 1430,-112 1361.5,-130"/>
<text text-anchor="middle" x="1361.5" y="-110.1" font-family="Helvetica,sans-Serif" font-size="8.00">S&#45;1878</text>
</g>
<!-- S&#45;1077 -->
<g id="node20" class="node">
<title>S&#45;1077</title>
<polygon fill="mediumseagreen" stroke="black" points="1361.5,-36 1293,-18 1361.5,0 1430,-18 1361.5,-36"/>
<text text-anchor="middle" x="1361.5" y="-16.1" font-family="Helvetica,sans-Serif" font-size="8.00">S&#45;1077</text>
</g>
<!-- S&#45;1878&#45;&gt;S&#45;1077 -->
<g id="edge29" class="edge">
<title>S&#45;1878&#45;&gt;S&#45;1077</title>
<path fill="none" stroke="dimgray" stroke-width="0.8" d="M1361.5,-93.88C1361.5,-93.88 1361.5,-43.07 1361.5,-43.07"/>
<polygon fill="dimgray" stroke="dimgray" stroke-width="0.8" points="1363.95,-43.07 1361.5,-36.07 1359.05,-43.07 1363.95,-43.07"/>
</g>
<!-- S&#45;1749 -->
<g id="node11" class="node">
<title>S&#45;1749</title>
<polygon fill="mediumseagreen" stroke="black" points="803.5,-694 735,-676 803.5,-658 872,-676 803.5,-694"/>
<text text-anchor="middle" x="803.5" y="-674.1" font-family="Helvetica,sans-Serif" font-size="8.00">S&#45;1749</text>
</g>
<!-- S&#45;1749&#45;&gt;S&#45;170 -->
<g id="edge6" class="edge">
<title>S&#45;1749&#45;&gt;S&#45;170</title>
<path fill="none" stroke="dimgray" stroke-width="0.8" d="M803,-657.88C803,-657.88 803,-607.07 803,-607.07"/>
<polygon fill="dimgray" stroke="dimgray" stroke-width="0.8" points="805.45,-607.07 803,-600.07 800.55,-607.07 805.45,-607.07"/>
</g>
<!-- R&#45;178 -->
<g id="node12" class="node">
<title>R&#45;178</title>
<polygon fill="tomato" stroke="black" points="1108,-292.54 1108,-307.46 1067.87,-318 1011.13,-318 971,-307.46 971,-292.54 1011.13,-282 1067.87,-282 1108,-292.54"/>
<text text-anchor="middle" x="1039.5" y="-298.1" font-family="Helvetica,sans-Serif" font-size="8.00">R&#45;178</text>
</g>
<!-- ext_circ_110_26_ -->
<g id="node38" class="node">
<title>ext_circ_110_26_</title>
<polygon fill="lightpink" stroke="red" stroke-dasharray="5,2" points="137,-1168 0,-1168 0,-1132 137,-1132 137,-1168"/>
<text text-anchor="middle" x="68.5" y="-1152.6" font-family="Helvetica,sans-Serif" font-size="8.00">Circuito:</text>
<text text-anchor="middle" x="68.5" y="-1143.6" font-family="Helvetica,sans-Serif" font-size="8.00">110&#45;26&#45;</text>
</g>
<!-- R&#45;178&#45;&gt;ext_circ_110_26_ -->
<g id="edge41" class="edge">
<title>R&#45;178&#45;&gt;ext_circ_110_26_</title>
<path fill="none" stroke="red" stroke-width="0.8" stroke-dasharray="5,2" d="M970.8,-300C745.84,-300 45.67,-300 45.67,-300 45.67,-300 45.67,-1124.85 45.67,-1124.85"/>
<polygon fill="red" stroke="red" stroke-width="0.8" points="43.22,-1124.85 45.67,-1131.85 48.12,-1124.85 43.22,-1124.85"/>
</g>
<!-- C&#45;0076 -->
<g id="node13" class="node">
<title>C&#45;0076</title>
<ellipse fill="mediumseagreen" stroke="black" cx="791.5" cy="-1052" rx="68.5" ry="18"/>
<text text-anchor="middle" x="791.5" y="-1050.1" font-family="Helvetica,sans-Serif" font-size="8.00">C&#45;0076</text>
</g>
<!-- C&#45;0076&#45;&gt;S&#45;175 -->
<g id="edge35" class="edge">
<title>C&#45;0076&#45;&gt;S&#45;175</title>
<path fill="none" stroke="dimgray" stroke-width="0.8" d="M726.79,-1058C634.34,-1058 475.5,-1058 475.5,-1058 475.5,-1058 475.5,-975.33 475.5,-975.33"/>
<polygon fill="dimgray" stroke="dimgray" stroke-width="0.8" points="477.95,-975.33 475.5,-968.33 473.05,-975.33 477.95,-975.33"/>
</g>
<!-- C&#45;0076&#45;&gt;C&#45;0924 -->
<g id="edge13" class="edge">
<title>C&#45;0076&#45;&gt;C&#45;0924</title>
<path fill="none" stroke="dimgray" stroke-width="0.8" d="M726.48,-1046C681.8,-1046 630.5,-1046 630.5,-1046 630.5,-1046 630.5,-982.81 630.5,-982.81"/>
<polygon fill="dimgray" stroke="dimgray" stroke-width="0.8" points="632.95,-982.81 630.5,-975.81 628.05,-982.81 632.95,-982.81"/>
</g>
<!-- S&#45;1758 -->
<g id="node22" class="node">
<title>S&#45;1758</title>
<polygon fill="mediumseagreen" stroke="black" points="791.5,-976 723,-958 791.5,-940 860,-958 791.5,-976"/>
<text text-anchor="middle" x="791.5" y="-956.1" font-family="Helvetica,sans-Serif" font-size="8.00">S&#45;1758</text>
</g>
<!-- C&#45;0076&#45;&gt;S&#45;1758 -->
<g id="edge12" class="edge">
<title>C&#45;0076&#45;&gt;S&#45;1758</title>
<path fill="none" stroke="dimgray" stroke-width="0.8" d="M791.5,-1033.88C791.5,-1033.88 791.5,-983.07 791.5,-983.07"/>
<polygon fill="dimgray" stroke="dimgray" stroke-width="0.8" points="793.95,-983.07 791.5,-976.07 789.05,-983.07 793.95,-983.07"/>
</g>
<!-- S&#45;168 -->
<g id="node26" class="node">
<title>S&#45;168</title>
<polygon fill="mediumseagreen" stroke="black" points="964.5,-976 896,-958 964.5,-940 1033,-958 964.5,-976"/>
<text text-anchor="middle" x="964.5" y="-956.1" font-family="Helvetica,sans-Serif" font-size="8.00">S&#45;168</text>
</g>
<!-- C&#45;0076&#45;&gt;S&#45;168 -->
<g id="edge2" class="edge">
<title>C&#45;0076&#45;&gt;S&#45;168</title>
<path fill="none" stroke="dimgray" stroke-width="0.8" d="M856.41,-1046C905.5,-1046 964.5,-1046 964.5,-1046 964.5,-1046 964.5,-983.23 964.5,-983.23"/>
<polygon fill="dimgray" stroke="dimgray" stroke-width="0.8" points="966.95,-983.23 964.5,-976.23 962.05,-983.23 966.95,-983.23"/>
</g>
<!-- C&#45;0923 -->
<g id="node35" class="node">
<title>C&#45;0923</title>
<ellipse fill="mediumseagreen" stroke="black" cx="1204.5" cy="-958" rx="68.5" ry="18"/>
<text text-anchor="middle" x="1204.5" y="-956.1" font-family="Helvetica,sans-Serif" font-size="8.00">C&#45;0923</text>
</g>
<!-- C&#45;0076&#45;&gt;C&#45;0923 -->
<g id="edge14" class="edge">
<title>C&#45;0076&#45;&gt;C&#45;0923</title>
<path fill="none" stroke="dimgray" stroke-width="0.8" d="M856.49,-1058C972.79,-1058 1204.5,-1058 1204.5,-1058 1204.5,-1058 1204.5,-983.34 1204.5,-983.34"/>
<polygon fill="dimgray" stroke="dimgray" stroke-width="0.8" points="1206.95,-983.34 1204.5,-976.34 1202.05,-983.34 1206.95,-983.34"/>
</g>
<!-- S&#45;2430 -->
<g id="node24" class="node">
<title>S&#45;2430</title>
<polygon fill="mediumseagreen" stroke="black" points="792.5,-412 724,-394 792.5,-376 861,-394 792.5,-412"/>
<text text-anchor="middle" x="792.5" y="-392.1" font-family="Helvetica,sans-Serif" font-size="8.00">S&#45;2430</text>
</g>
<!-- S&#45;2183&#45;&gt;S&#45;2430 -->
<g id="edge9" class="edge">
<title>S&#45;2183&#45;&gt;S&#45;2430</title>
<path fill="none" stroke="dimgray" stroke-width="0.8" d="M797.5,-471.19C797.5,-471.19 797.5,-417.98 797.5,-417.98"/>
<polygon fill="dimgray" stroke="dimgray" stroke-width="0.8" points="799.95,-417.98 797.5,-410.98 795.05,-417.98 799.95,-417.98"/>
</g>
<!-- C&#45;0925&#45;&gt;C&#45;0491 -->
<g id="edge18" class="edge">
<title>C&#45;0925&#45;&gt;C&#45;0491</title>
<path fill="none" stroke="dimgray" stroke-width="0.8" d="M1251,-763.83C1251,-763.83 1251,-689.31 1251,-689.31"/>
<polygon fill="dimgray" stroke="dimgray" stroke-width="0.8" points="1253.45,-689.31 1251,-682.31 1248.55,-689.31 1253.45,-689.31"/>
</g>
<!-- C&#45;0287 -->
<g id="node18" class="node">
<title>C&#45;0287</title>
<ellipse fill="tomato" stroke="black" cx="1013.5" cy="-676" rx="68.5" ry="18"/>
<text text-anchor="middle" x="1013.5" y="-674.1" font-family="Helvetica,sans-Serif" font-size="8.00">C&#45;0287</text>
</g>
<!-- C&#45;0925&#45;&gt;C&#45;0287 -->
<g id="edge33" class="edge">
<title>C&#45;0925&#45;&gt;C&#45;0287</title>
<path fill="none" stroke="dimgray" stroke-width="0.8" d="M1246.77,-770C1161.02,-770 1025.5,-770 1025.5,-770 1025.5,-770 1025.5,-701.12 1025.5,-701.12"/>
<polygon fill="dimgray" stroke="dimgray" stroke-width="0.8" points="1027.95,-701.12 1025.5,-694.12 1023.05,-701.12 1027.95,-701.12"/>
</g>
<!-- S&#45;1829 -->
<g id="node23" class="node">
<title>S&#45;1829</title>
<polygon fill="mediumseagreen" stroke="black" points="1359.5,-694 1291,-676 1359.5,-658 1428,-676 1359.5,-694"/>
<text text-anchor="middle" x="1359.5" y="-674.1" font-family="Helvetica,sans-Serif" font-size="8.00">S&#45;1829</text>
</g>
<!-- C&#45;0925&#45;&gt;S&#45;1829 -->
<g id="edge34" class="edge">
<title>C&#45;0925&#45;&gt;S&#45;1829</title>
<path fill="none" stroke="dimgray" stroke-width="0.8" d="M1337.5,-752.76C1337.5,-752.76 1337.5,-695.34 1337.5,-695.34"/>
<polygon fill="dimgray" stroke="dimgray" stroke-width="0.8" points="1339.95,-695.34 1337.5,-688.34 1335.05,-695.34 1339.95,-695.34"/>
</g>
<!-- C&#45;0492 -->
<g id="node30" class="node">
<title>C&#45;0492</title>
<ellipse fill="tomato" stroke="black" cx="1532.5" cy="-676" rx="68.5" ry="18"/>
<text text-anchor="middle" x="1532.5" y="-674.1" font-family="Helvetica,sans-Serif" font-size="8.00">C&#45;0492</text>
</g>
<!-- C&#45;0925&#45;&gt;C&#45;0492 -->
<g id="edge19" class="edge">
<title>C&#45;0925&#45;&gt;C&#45;0492</title>
<path fill="none" stroke="dimgray" stroke-width="0.8" d="M1380.31,-764C1444.26,-764 1532.5,-764 1532.5,-764 1532.5,-764 1532.5,-701.23 1532.5,-701.23"/>
<polygon fill="dimgray" stroke="dimgray" stroke-width="0.8" points="1534.95,-701.23 1532.5,-694.23 1530.05,-701.23 1534.95,-701.23"/>
</g>
<!-- S&#45;173 -->
<g id="node32" class="node">
<title>S&#45;173</title>
<polygon fill="mediumseagreen" stroke="black" points="1705.5,-694 1637,-676 1705.5,-658 1774,-676 1705.5,-694"/>
<text text-anchor="middle" x="1705.5" y="-674.1" font-family="Helvetica,sans-Serif" font-size="8.00">S&#45;173</text>
</g>
<!-- C&#45;0925&#45;&gt;S&#45;173 -->
<g id="edge17" class="edge">
<title>C&#45;0925&#45;&gt;S&#45;173</title>
<path fill="none" stroke="dimgray" stroke-width="0.8" d="M1380.34,-776C1491.24,-776 1705.5,-776 1705.5,-776 1705.5,-776 1705.5,-701.34 1705.5,-701.34"/>
<polygon fill="dimgray" stroke="dimgray" stroke-width="0.8" points="1707.95,-701.34 1705.5,-694.34 1703.05,-701.34 1707.95,-701.34"/>
</g>
<!-- S&#45;1930 -->
<g id="node16" class="node">
<title>S&#45;1930</title>
<polygon fill="mediumseagreen" stroke="black" points="1361.5,-224 1293,-206 1361.5,-188 1430,-206 1361.5,-224"/>
<text text-anchor="middle" x="1361.5" y="-204.1" font-family="Helvetica,sans-Serif" font-size="8.00">S&#45;1930</text>
</g>
<!-- S&#45;1930&#45;&gt;S&#45;1878 -->
<g id="edge28" class="edge">
<title>S&#45;1930&#45;&gt;S&#45;1878</title>
<path fill="none" stroke="dimgray" stroke-width="0.8" d="M1361.5,-187.88C1361.5,-187.88 1361.5,-137.07 1361.5,-137.07"/>
<polygon fill="dimgray" stroke="dimgray" stroke-width="0.8" points="1363.95,-137.07 1361.5,-130.07 1359.05,-137.07 1363.95,-137.07"/>
</g>
<!-- ext_circ_114_24_ -->
<g id="node37" class="node">
<title>ext_circ_114_24_</title>
<polygon fill="lightpink" stroke="red" stroke-dasharray="5,2" points="322,-1168 185,-1168 185,-1132 322,-1132 322,-1168"/>
<text text-anchor="middle" x="253.5" y="-1152.6" font-family="Helvetica,sans-Serif" font-size="8.00">Circuito:</text>
<text text-anchor="middle" x="253.5" y="-1143.6" font-family="Helvetica,sans-Serif" font-size="8.00">114&#45;24&#45;</text>
</g>
<!-- R&#45;284&#45;&gt;ext_circ_114_24_ -->
<g id="edge39" class="edge">
<title>R&#45;284&#45;&gt;ext_circ_114_24_</title>
<path fill="none" stroke="red" stroke-width="0.8" stroke-dasharray="5,2" d="M1120,-112C900.77,-112 230.67,-112 230.67,-112 230.67,-112 230.67,-1124.98 230.67,-1124.98"/>
<polygon fill="red" stroke="red" stroke-width="0.8" points="228.22,-1124.98 230.67,-1131.98 233.12,-1124.98 228.22,-1124.98"/>
</g>
<!-- ext_circ_111_23_ -->
<g id="node39" class="node">
<title>ext_circ_111_23_</title>
<polygon fill="lightpink" stroke="red" stroke-dasharray="5,2" points="574,-1168 437,-1168 437,-1132 574,-1132 574,-1168"/>
<text text-anchor="middle" x="505.5" y="-1152.6" font-family="Helvetica,sans-Serif" font-size="8.00">Circuito:</text>
<text text-anchor="middle" x="505.5" y="-1143.6" font-family="Helvetica,sans-Serif" font-size="8.00">111&#45;23&#45;</text>
</g>
<!-- C&#45;0287&#45;&gt;ext_circ_111_23_ -->
<g id="edge42" class="edge">
<title>C&#45;0287&#45;&gt;ext_circ_111_23_</title>
<path fill="none" stroke="red" stroke-width="0.8" stroke-dasharray="5,2" d="M957,-686.43C957,-700.28 957,-723 957,-723 957,-723 532,-723 532,-723 532,-723 532,-1124.93 532,-1124.93"/>
<polygon fill="red" stroke="red" stroke-width="0.8" points="529.55,-1124.93 532,-1131.93 534.45,-1124.93 529.55,-1124.93"/>
</g>
<!-- C&#45;0801 -->
<g id="node19" class="node">
<title>C&#45;0801</title>
<ellipse fill="tomato" stroke="black" cx="1460.5" cy="-394" rx="68.5" ry="18"/>
<text text-anchor="middle" x="1460.5" y="-392.1" font-family="Helvetica,sans-Serif" font-size="8.00">C&#45;0801</text>
</g>
<!-- C&#45;0801&#45;&gt;ext_circ_110_26_ -->
<g id="edge40" class="edge">
<title>C&#45;0801&#45;&gt;ext_circ_110_26_</title>
<path fill="none" stroke="red" stroke-width="0.8" stroke-dasharray="5,2" d="M1416,-407.85C1416,-421.71 1416,-441 1416,-441 1416,-441 91.33,-441 91.33,-441 91.33,-441 91.33,-1124.76 91.33,-1124.76"/>
<polygon fill="red" stroke="red" stroke-width="0.8" points="88.88,-1124.76 91.33,-1131.76 93.78,-1124.76 88.88,-1124.76"/>
</g>
<!-- S&#45;1768 -->
<g id="node21" class="node">
<title>S&#45;1768</title>
<polygon fill="mediumseagreen" stroke="black" points="1361.5,-318 1293,-300 1361.5,-282 1430,-300 1361.5,-318"/>
<text text-anchor="middle" x="1361.5" y="-298.1" font-family="Helvetica,sans-Serif" font-size="8.00">S&#45;1768</text>
</g>
<!-- S&#45;1768&#45;&gt;C&#45;1132 -->
<g id="edge25" class="edge">
<title>S&#45;1768&#45;&gt;C&#45;1132</title>
<path fill="none" stroke="dimgray" stroke-width="0.8" d="M1292.89,-300C1264.46,-300 1238,-300 1238,-300 1238,-300 1238,-225.68 1238,-225.68"/>
<polygon fill="dimgray" stroke="dimgray" stroke-width="0.8" points="1240.45,-225.68 1238,-218.68 1235.55,-225.68 1240.45,-225.68"/>
</g>
<!-- S&#45;1768&#45;&gt;S&#45;1930 -->
<g id="edge27" class="edge">
<title>S&#45;1768&#45;&gt;S&#45;1930</title>
<path fill="none" stroke="dimgray" stroke-width="0.8" d="M1361.5,-281.88C1361.5,-281.88 1361.5,-231.07 1361.5,-231.07"/>
<polygon fill="dimgray" stroke="dimgray" stroke-width="0.8" points="1363.95,-231.07 1361.5,-224.07 1359.05,-231.07 1363.95,-231.07"/>
</g>
<!-- C&#45;0194 -->
<g id="node27" class="node">
<title>C&#45;0194</title>
<ellipse fill="tomato" stroke="black" cx="1534.5" cy="-206" rx="68.5" ry="18"/>
<text text-anchor="middle" x="1534.5" y="-204.1" font-family="Helvetica,sans-Serif" font-size="8.00">C&#45;0194</text>
</g>
<!-- S&#45;1768&#45;&gt;C&#45;0194 -->
<g id="edge24" class="edge">
<title>S&#45;1768&#45;&gt;C&#45;0194</title>
<path fill="none" stroke="dimgray" stroke-width="0.8" d="M1430.13,-300C1459.42,-300 1487,-300 1487,-300 1487,-300 1487,-226.07 1487,-226.07"/>
<polygon fill="dimgray" stroke="dimgray" stroke-width="0.8" points="1489.45,-226.07 1487,-219.07 1484.55,-226.07 1489.45,-226.07"/>
</g>
<!-- S&#45;169 -->
<g id="node25" class="node">
<title>S&#45;169</title>
<polygon fill="mediumseagreen" stroke="black" points="864.5,-882 796,-864 864.5,-846 933,-864 864.5,-882"/>
<text text-anchor="middle" x="864.5" y="-862.1" font-family="Helvetica,sans-Serif" font-size="8.00">S&#45;169</text>
</g>
<!-- S&#45;1150 -->
<g id="node29" class="node">
<title>S&#45;1150</title>
<polygon fill="mediumseagreen" stroke="black" points="813.5,-788 745,-770 813.5,-752 882,-770 813.5,-788"/>
<text text-anchor="middle" x="813.5" y="-768.1" font-family="Helvetica,sans-Serif" font-size="8.00">S&#45;1150</text>
</g>
<!-- S&#45;169&#45;&gt;S&#45;1150 -->
<g id="edge4" class="edge">
<title>S&#45;169&#45;&gt;S&#45;1150</title>
<path fill="none" stroke="dimgray" stroke-width="0.8" d="M839,-852.47C839,-852.47 839,-788.33 839,-788.33"/>
<polygon fill="dimgray" stroke="dimgray" stroke-width="0.8" points="841.45,-788.33 839,-781.33 836.55,-788.33 841.45,-788.33"/>
</g>
<!-- S&#45;168&#45;&gt;S&#45;2137 -->
<g id="edge10" class="edge">
<title>S&#45;168&#45;&gt;S&#45;2137</title>
<path fill="none" stroke="dimgray" stroke-width="0.8" d="M1001,-949.33C1001,-949.33 1001,-879.65 1001,-879.65"/>
<polygon fill="dimgray" stroke="dimgray" stroke-width="0.8" points="1003.45,-879.65 1001,-872.65 998.55,-879.65 1003.45,-879.65"/>
</g>
<!-- S&#45;168&#45;&gt;S&#45;1149 -->
<g id="edge11" class="edge">
<title>S&#45;168&#45;&gt;S&#45;1149</title>
<path fill="none" stroke="dimgray" stroke-width="0.8" d="M908.33,-954.62C908.33,-943.84 908.33,-911 908.33,-911 908.33,-911 741.5,-911 741.5,-911 741.5,-911 741.5,-876.03 741.5,-876.03"/>
<polygon fill="dimgray" stroke="dimgray" stroke-width="0.8" points="743.95,-876.03 741.5,-869.03 739.05,-876.03 743.95,-876.03"/>
</g>
<!-- S&#45;168&#45;&gt;S&#45;169 -->
<g id="edge3" class="edge">
<title>S&#45;168&#45;&gt;S&#45;169</title>
<path fill="none" stroke="dimgray" stroke-width="0.8" d="M920.67,-951.24C920.67,-951.24 920.67,-874.59 920.67,-874.59"/>
<polygon fill="dimgray" stroke="dimgray" stroke-width="0.8" points="923.12,-874.59 920.67,-867.59 918.22,-874.59 923.12,-874.59"/>
</g>
<!-- C&#45;0194&#45;&gt;ext_circ_114_24_ -->
<g id="edge38" class="edge">
<title>C&#45;0194&#45;&gt;ext_circ_114_24_</title>
<path fill="none" stroke="red" stroke-width="0.8" stroke-dasharray="5,2" d="M1508,-222.7C1508,-236.21 1508,-253 1508,-253 1508,-253 276.33,-253 276.33,-253 276.33,-253 276.33,-1124.68 276.33,-1124.68"/>
<polygon fill="red" stroke="red" stroke-width="0.8" points="273.88,-1124.68 276.33,-1131.68 278.78,-1124.68 273.88,-1124.68"/>
</g>
<!-- C&#45;0800 -->
<g id="node28" class="node">
<title>C&#45;0800</title>
<ellipse fill="mediumseagreen" stroke="black" cx="1114.5" cy="-394" rx="68.5" ry="18"/>
<text text-anchor="middle" x="1114.5" y="-392.1" font-family="Helvetica,sans-Serif" font-size="8.00">C&#45;0800</text>
</g>
<!-- C&#45;0800&#45;&gt;R&#45;178 -->
<g id="edge32" class="edge">
<title>C&#45;0800&#45;&gt;R&#45;178</title>
<path fill="none" stroke="dimgray" stroke-width="0.8" d="M1077,-378.9C1077,-378.9 1077,-322.69 1077,-322.69"/>
<polygon fill="dimgray" stroke="dimgray" stroke-width="0.8" points="1079.45,-322.69 1077,-315.69 1074.55,-322.69 1079.45,-322.69"/>
</g>
<!-- S&#45;1150&#45;&gt;S&#45;1749 -->
<g id="edge5" class="edge">
<title>S&#45;1150&#45;&gt;S&#45;1749</title>
<path fill="none" stroke="dimgray" stroke-width="0.8" d="M808.5,-753.19C808.5,-753.19 808.5,-699.98 808.5,-699.98"/>
<polygon fill="dimgray" stroke="dimgray" stroke-width="0.8" points="810.95,-699.98 808.5,-692.98 806.05,-699.98 810.95,-699.98"/>
</g>
<!-- C&#45;0492&#45;&gt;C&#45;0490 -->
<g id="edge37" class="edge">
<title>C&#45;0492&#45;&gt;C&#45;0490</title>
<path fill="none" stroke="blue" stroke-width="0.8" stroke-dasharray="5,2" d="M1496.5,-660.48C1496.5,-616.47 1496.5,-494 1496.5,-494 1496.5,-494 1350.32,-494 1350.32,-494"/>
<polygon fill="blue" stroke="blue" stroke-width="0.8" points="1350.32,-491.55 1343.32,-494 1350.32,-496.45 1350.32,-491.55"/>
</g>
<!-- 111&#45;22&#45; -->
<g id="node31" class="node">
<title>111&#45;22&#45;</title>
<polygon fill="gold" stroke="black" points="860,-1142.54 860,-1157.46 819.87,-1168 763.13,-1168 723,-1157.46 723,-1142.54 763.13,-1132 819.87,-1132 860,-1142.54"/>
<polygon fill="none" stroke="black" points="864,-1139.46 864,-1160.54 820.39,-1172 762.61,-1172 719,-1160.54 719,-1139.46 762.61,-1128 820.39,-1128 864,-1139.46"/>
<text text-anchor="middle" x="791.5" y="-1148.1" font-family="Helvetica,sans-Serif" font-size="8.00">111&#45;22&#45;</text>
</g>
<!-- 111&#45;22&#45;&#45;&gt;C&#45;0076 -->
<g id="edge1" class="edge">
<title>111&#45;22&#45;&#45;&gt;C&#45;0076</title>
<path fill="none" stroke="dimgray" stroke-width="0.8" d="M791.5,-1127.76C791.5,-1127.76 791.5,-1077.21 791.5,-1077.21"/>
<polygon fill="dimgray" stroke="dimgray" stroke-width="0.8" points="793.95,-1077.21 791.5,-1070.21 789.05,-1077.21 793.95,-1077.21"/>
</g>
<!-- C&#45;0490&#45;&gt;C&#45;0801 -->
<g id="edge30" class="edge">
<title>C&#45;0490&#45;&gt;C&#45;0801</title>
<path fill="none" stroke="dimgray" stroke-width="0.8" d="M1343.09,-482C1373.84,-482 1404,-482 1404,-482 1404,-482 1404,-411.44 1404,-411.44"/>
<polygon fill="dimgray" stroke="dimgray" stroke-width="0.8" points="1406.45,-411.44 1404,-404.44 1401.55,-411.44 1406.45,-411.44"/>
</g>
<!-- C&#45;0490&#45;&gt;C&#45;0800 -->
<g id="edge31" class="edge">
<title>C&#45;0490&#45;&gt;C&#45;0800</title>
<path fill="none" stroke="dimgray" stroke-width="0.8" d="M1214.5,-481.54C1214.5,-460.3 1214.5,-394 1214.5,-394 1214.5,-394 1190.13,-394 1190.13,-394"/>
<polygon fill="dimgray" stroke="dimgray" stroke-width="0.8" points="1190.13,-391.55 1183.13,-394 1190.13,-396.45 1190.13,-391.55"/>
</g>
<!-- C&#45;0121 -->
<g id="node36" class="node">
<title>C&#45;0121</title>
<ellipse fill="mediumseagreen" stroke="black" cx="1287.5" cy="-394" rx="68.5" ry="18"/>
<text text-anchor="middle" x="1287.5" y="-392.1" font-family="Helvetica,sans-Serif" font-size="8.00">C&#45;0121</text>
</g>
<!-- C&#45;0490&#45;&gt;C&#45;0121 -->
<g id="edge22" class="edge">
<title>C&#45;0490&#45;&gt;C&#45;0121</title>
<path fill="none" stroke="dimgray" stroke-width="0.8" d="M1283,-469.88C1283,-469.88 1283,-419.07 1283,-419.07"/>
<polygon fill="dimgray" stroke="dimgray" stroke-width="0.8" points="1285.45,-419.07 1283,-412.07 1280.55,-419.07 1285.45,-419.07"/>
</g>
<!-- R&#45;217 -->
<g id="node34" class="node">
<title>R&#45;217</title>
<polygon fill="mediumseagreen" stroke="black" points="1340,-856.54 1340,-871.46 1299.87,-882 1243.13,-882 1203,-871.46 1203,-856.54 1243.13,-846 1299.87,-846 1340,-856.54"/>
<text text-anchor="middle" x="1271.5" y="-862.1" font-family="Helvetica,sans-Serif" font-size="8.00">R&#45;217</text>
</g>
<!-- R&#45;217&#45;&gt;C&#45;0925 -->
<g id="edge16" class="edge">
<title>R&#45;217&#45;&gt;C&#45;0925</title>
<path fill="none" stroke="dimgray" stroke-width="0.8" d="M1309,-848.05C1309,-848.05 1309,-794.95 1309,-794.95"/>
<polygon fill="dimgray" stroke="dimgray" stroke-width="0.8" points="1311.45,-794.95 1309,-787.95 1306.55,-794.95 1311.45,-794.95"/>
</g>
<!-- C&#45;0923&#45;&gt;R&#45;217 -->
<g id="edge15" class="edge">
<title>C&#45;0923&#45;&gt;R&#45;217</title>
<path fill="none" stroke="dimgray" stroke-width="0.8" d="M1238,-942.05C1238,-942.05 1238,-887.66 1238,-887.66"/>
<polygon fill="dimgray" stroke="dimgray" stroke-width="0.8" points="1240.45,-887.66 1238,-880.66 1235.55,-887.66 1240.45,-887.66"/>
</g>
<!-- C&#45;0121&#45;&gt;S&#45;1768 -->
<g id="edge23" class="edge">
<title>C&#45;0121&#45;&gt;S&#45;1768</title>
<path fill="none" stroke="dimgray" stroke-width="0.8" d="M1324.5,-378.48C1324.5,-378.48 1324.5,-315.51 1324.5,-315.51"/>
<polygon fill="dimgray" stroke="dimgray" stroke-width="0.8" points="1326.95,-315.51 1324.5,-308.51 1322.05,-315.51 1326.95,-315.51"/>
</g>
</g>
</svg>
