<?xml version="1.0" encoding="UTF-8" standalone="no"?>
<!DOCTYPE svg PUBLIC "-//W3C//DTD SVG 1.1//EN"
 "http://www.w3.org/Graphics/SVG/1.1/DTD/svg11.dtd">
<!-- Generated by graphviz version 2.50.0 (0)
 -->
<!-- Title: Grafo_Circuito_114_32 Pages: 1 -->
<svg width="318pt" height="710pt"
 viewBox="0.00 0.00 318.00 710.00" xmlns="http://www.w3.org/2000/svg" xmlns:xlink="http://www.w3.org/1999/xlink">
<g id="graph0" class="graph" transform="scale(1 1) rotate(0) translate(4 706)">
<title>Grafo_Circuito_114_32</title>
<polygon fill="white" stroke="transparent" points="-4,4 -4,-706 314,-706 314,4 -4,4"/>
<!-- C&#45;1314 -->
<g id="node1" class="node">
<title>C&#45;1314</title>
<ellipse fill="mediumseagreen" stroke="black" cx="154.5" cy="-488" rx="68.5" ry="18"/>
<text text-anchor="middle" x="154.5" y="-486.1" font-family="Helvetica,sans-Serif" font-size="8.00">C&#45;1314</text>
</g>
<!-- C&#45;1316 -->
<g id="node2" class="node">
<title>C&#45;1316</title>
<ellipse fill="mediumseagreen" stroke="black" cx="68.5" cy="-394" rx="68.5" ry="18"/>
<text text-anchor="middle" x="68.5" y="-392.1" font-family="Helvetica,sans-Serif" font-size="8.00">C&#45;1316</text>
</g>
<!-- C&#45;1314&#45;&gt;C&#45;1316 -->
<g id="edge4" class="edge">
<title>C&#45;1314&#45;&gt;C&#45;1316</title>
<path fill="none" stroke="dimgray" stroke-width="0.8" d="M111.5,-473.72C111.5,-473.72 111.5,-415.1 111.5,-415.1"/>
<polygon fill="dimgray" stroke="dimgray" stroke-width="0.8" points="113.95,-415.1 111.5,-408.1 109.05,-415.1 113.95,-415.1"/>
</g>
<!-- C&#45;1317 -->
<g id="node8" class="node">
<title>C&#45;1317</title>
<ellipse fill="tomato" stroke="black" cx="241.5" cy="-394" rx="68.5" ry="18"/>
<text text-anchor="middle" x="241.5" y="-392.1" font-family="Helvetica,sans-Serif" font-size="8.00">C&#45;1317</text>
</g>
<!-- C&#45;1314&#45;&gt;C&#45;1317 -->
<g id="edge3" class="edge">
<title>C&#45;1314&#45;&gt;C&#45;1317</title>
<path fill="none" stroke="dimgray" stroke-width="0.8" d="M198,-473.72C198,-473.72 198,-415.1 198,-415.1"/>
<polygon fill="dimgray" stroke="dimgray" stroke-width="0.8" points="200.45,-415.1 198,-408.1 195.55,-415.1 200.45,-415.1"/>
</g>
<!-- R&#45;307 -->
<g id="node5" class="node">
<title>R&#45;307</title>
<polygon fill="mediumseagreen" stroke="black" points="137,-292.54 137,-307.46 96.87,-318 40.13,-318 0,-307.46 0,-292.54 40.13,-282 96.87,-282 137,-292.54"/>
<text text-anchor="middle" x="68.5" y="-298.1" font-family="Helvetica,sans-Serif" font-size="8.00">R&#45;307</text>
</g>
<!-- C&#45;1316&#45;&gt;R&#45;307 -->
<g id="edge5" class="edge">
<title>C&#45;1316&#45;&gt;R&#45;307</title>
<path fill="none" stroke="dimgray" stroke-width="0.8" d="M68.5,-375.88C68.5,-375.88 68.5,-325.07 68.5,-325.07"/>
<polygon fill="dimgray" stroke="dimgray" stroke-width="0.8" points="70.95,-325.07 68.5,-318.07 66.05,-325.07 70.95,-325.07"/>
</g>
<!-- C&#45;0119 -->
<g id="node3" class="node">
<title>C&#45;0119</title>
<ellipse fill="mediumseagreen" stroke="black" cx="154.5" cy="-582" rx="68.5" ry="18"/>
<text text-anchor="middle" x="154.5" y="-580.1" font-family="Helvetica,sans-Serif" font-size="8.00">C&#45;0119</text>
</g>
<!-- C&#45;0119&#45;&gt;C&#45;1314 -->
<g id="edge2" class="edge">
<title>C&#45;0119&#45;&gt;C&#45;1314</title>
<path fill="none" stroke="dimgray" stroke-width="0.8" d="M154.5,-563.88C154.5,-563.88 154.5,-513.07 154.5,-513.07"/>
<polygon fill="dimgray" stroke="dimgray" stroke-width="0.8" points="156.95,-513.07 154.5,-506.07 152.05,-513.07 156.95,-513.07"/>
</g>
<!-- C&#45;0077 -->
<g id="node4" class="node">
<title>C&#45;0077</title>
<ellipse fill="mediumseagreen" stroke="black" cx="68.5" cy="-18" rx="68.5" ry="18"/>
<text text-anchor="middle" x="68.5" y="-16.1" font-family="Helvetica,sans-Serif" font-size="8.00">C&#45;0077</text>
</g>
<!-- C&#45;1315 -->
<g id="node9" class="node">
<title>C&#45;1315</title>
<ellipse fill="mediumseagreen" stroke="black" cx="68.5" cy="-206" rx="68.5" ry="18"/>
<text text-anchor="middle" x="68.5" y="-204.1" font-family="Helvetica,sans-Serif" font-size="8.00">C&#45;1315</text>
</g>
<!-- R&#45;307&#45;&gt;C&#45;1315 -->
<g id="edge6" class="edge">
<title>R&#45;307&#45;&gt;C&#45;1315</title>
<path fill="none" stroke="dimgray" stroke-width="0.8" d="M68.5,-281.88C68.5,-281.88 68.5,-231.07 68.5,-231.07"/>
<polygon fill="dimgray" stroke="dimgray" stroke-width="0.8" points="70.95,-231.07 68.5,-224.07 66.05,-231.07 70.95,-231.07"/>
</g>
<!-- 114&#45;32 -->
<g id="node6" class="node">
<title>114&#45;32</title>
<polygon fill="gold" stroke="black" points="223,-672.54 223,-687.46 182.87,-698 126.13,-698 86,-687.46 86,-672.54 126.13,-662 182.87,-662 223,-672.54"/>
<polygon fill="none" stroke="black" points="227,-669.46 227,-690.54 183.39,-702 125.61,-702 82,-690.54 82,-669.46 125.61,-658 183.39,-658 227,-669.46"/>
<text text-anchor="middle" x="154.5" y="-678.1" font-family="Helvetica,sans-Serif" font-size="8.00">114&#45;32</text>
</g>
<!-- 114&#45;32&#45;&gt;C&#45;0119 -->
<g id="edge1" class="edge">
<title>114&#45;32&#45;&gt;C&#45;0119</title>
<path fill="none" stroke="dimgray" stroke-width="0.8" d="M154.5,-657.76C154.5,-657.76 154.5,-607.21 154.5,-607.21"/>
<polygon fill="dimgray" stroke="dimgray" stroke-width="0.8" points="156.95,-607.21 154.5,-600.21 152.05,-607.21 156.95,-607.21"/>
</g>
<!-- C&#45;0122 -->
<g id="node7" class="node">
<title>C&#45;0122</title>
<ellipse fill="mediumseagreen" stroke="black" cx="68.5" cy="-112" rx="68.5" ry="18"/>
<text text-anchor="middle" x="68.5" y="-110.1" font-family="Helvetica,sans-Serif" font-size="8.00">C&#45;0122</text>
</g>
<!-- C&#45;0122&#45;&gt;C&#45;0077 -->
<g id="edge8" class="edge">
<title>C&#45;0122&#45;&gt;C&#45;0077</title>
<path fill="none" stroke="dimgray" stroke-width="0.8" d="M68.5,-93.88C68.5,-93.88 68.5,-43.07 68.5,-43.07"/>
<polygon fill="dimgray" stroke="dimgray" stroke-width="0.8" points="70.95,-43.07 68.5,-36.07 66.05,-43.07 70.95,-43.07"/>
</g>
<!-- C&#45;1317&#45;&gt;C&#45;1315 -->
<g id="edge9" class="edge">
<title>C&#45;1317&#45;&gt;C&#45;1315</title>
<path fill="none" stroke="blue" stroke-width="0.8" stroke-dasharray="5,2" d="M241.5,-375.97C241.5,-328.92 241.5,-206 241.5,-206 241.5,-206 144.37,-206 144.37,-206"/>
<polygon fill="blue" stroke="blue" stroke-width="0.8" points="144.37,-203.55 137.37,-206 144.37,-208.45 144.37,-203.55"/>
</g>
<!-- C&#45;1315&#45;&gt;C&#45;0122 -->
<g id="edge7" class="edge">
<title>C&#45;1315&#45;&gt;C&#45;0122</title>
<path fill="none" stroke="dimgray" stroke-width="0.8" d="M68.5,-187.88C68.5,-187.88 68.5,-137.07 68.5,-137.07"/>
<polygon fill="dimgray" stroke="dimgray" stroke-width="0.8" points="70.95,-137.07 68.5,-130.07 66.05,-137.07 70.95,-137.07"/>
</g>
</g>
</svg>
