<?xml version="1.0" encoding="UTF-8" standalone="no"?>
<!DOCTYPE svg PUBLIC "-//W3C//DTD SVG 1.1//EN"
 "http://www.w3.org/Graphics/SVG/1.1/DTD/svg11.dtd">
<!-- Generated by graphviz version 2.50.0 (0)
 -->
<!-- Title: Grafo_Circuito_206_25_ Pages: 1 -->
<svg width="2754pt" height="1675pt"
 viewBox="0.00 0.00 2754.00 1675.00" xmlns="http://www.w3.org/2000/svg" xmlns:xlink="http://www.w3.org/1999/xlink">
<g id="graph0" class="graph" transform="scale(1 1) rotate(0) translate(4 1671)">
<title>Grafo_Circuito_206_25_</title>
<polygon fill="white" stroke="transparent" points="-4,4 -4,-1671 2750,-1671 2750,4 -4,4"/>
<!-- C&#45;0579 -->
<g id="node1" class="node">
<title>C&#45;0579</title>
<ellipse fill="mediumseagreen" stroke="black" cx="2134" cy="-425.5" rx="72" ry="21.5"/>
<text text-anchor="middle" x="2134" y="-423" font-family="Arial" font-size="10.00">C&#45;0579</text>
</g>
<!-- C&#45;0347 -->
<g id="node13" class="node">
<title>C&#45;0347</title>
<ellipse fill="mediumseagreen" stroke="black" cx="1954" cy="-324.5" rx="72" ry="21.5"/>
<text text-anchor="middle" x="1954" y="-322" font-family="Arial" font-size="10.00">C&#45;0347</text>
</g>
<!-- C&#45;0579&#45;&gt;C&#45;0347 -->
<g id="edge11" class="edge">
<title>C&#45;0579&#45;&gt;C&#45;0347</title>
<path fill="none" stroke="#4d4d4d" d="M2066.48,-418C2024.32,-418 1978,-418 1978,-418 1978,-418 1978,-351.79 1978,-351.79"/>
<polygon fill="#4d4d4d" stroke="#4d4d4d" points="1980.45,-351.79 1978,-344.79 1975.55,-351.79 1980.45,-351.79"/>
</g>
<!-- S&#45;368 -->
<g id="node41" class="node">
<title>S&#45;368</title>
<polygon fill="mediumseagreen" stroke="black" points="2134,-346 2062,-324.5 2134,-303 2206,-324.5 2134,-346"/>
<text text-anchor="middle" x="2134" y="-322" font-family="Arial" font-size="10.00">S&#45;368</text>
</g>
<!-- C&#45;0579&#45;&gt;S&#45;368 -->
<g id="edge10" class="edge">
<title>C&#45;0579&#45;&gt;S&#45;368</title>
<path fill="none" stroke="#4d4d4d" d="M2134,-403.58C2134,-403.58 2134,-353.03 2134,-353.03"/>
<polygon fill="#4d4d4d" stroke="#4d4d4d" points="2136.45,-353.03 2134,-346.03 2131.55,-353.03 2136.45,-353.03"/>
</g>
<!-- C&#45;0348 -->
<g id="node54" class="node">
<title>C&#45;0348</title>
<ellipse fill="mediumseagreen" stroke="black" cx="2314" cy="-324.5" rx="72" ry="21.5"/>
<text text-anchor="middle" x="2314" y="-322" font-family="Arial" font-size="10.00">C&#45;0348</text>
</g>
<!-- C&#45;0579&#45;&gt;C&#45;0348 -->
<g id="edge16" class="edge">
<title>C&#45;0579&#45;&gt;C&#45;0348</title>
<path fill="none" stroke="#4d4d4d" d="M2206.31,-425C2252.78,-425 2304.5,-425 2304.5,-425 2304.5,-425 2304.5,-352.81 2304.5,-352.81"/>
<polygon fill="#4d4d4d" stroke="#4d4d4d" points="2306.95,-352.81 2304.5,-345.81 2302.05,-352.81 2306.95,-352.81"/>
</g>
<!-- C&#45;0926 -->
<g id="node2" class="node">
<title>C&#45;0926</title>
<ellipse fill="mediumseagreen" stroke="black" cx="1062" cy="-1233.5" rx="72" ry="21.5"/>
<text text-anchor="middle" x="1062" y="-1231" font-family="Arial" font-size="10.00">C&#45;0926</text>
</g>
<!-- R&#45;218 -->
<g id="node43" class="node">
<title>R&#45;218</title>
<polygon fill="mediumseagreen" stroke="black" points="954,-1123.59 954,-1141.41 911.82,-1154 852.18,-1154 810,-1141.41 810,-1123.59 852.18,-1111 911.82,-1111 954,-1123.59"/>
<text text-anchor="middle" x="882" y="-1130" font-family="Arial" font-size="10.00">R&#45;218</text>
</g>
<!-- C&#45;0926&#45;&gt;R&#45;218 -->
<g id="edge28" class="edge">
<title>C&#45;0926&#45;&gt;R&#45;218</title>
<path fill="none" stroke="#4d4d4d" d="M1008,-1219.15C1008,-1192.71 1008,-1139 1008,-1139 1008,-1139 961.2,-1139 961.2,-1139"/>
<polygon fill="#4d4d4d" stroke="#4d4d4d" points="961.2,-1136.55 954.2,-1139 961.2,-1141.45 961.2,-1136.55"/>
</g>
<!-- C&#45;1176 -->
<g id="node3" class="node">
<title>C&#45;1176</title>
<ellipse fill="mediumseagreen" stroke="black" cx="1512" cy="-930.5" rx="72" ry="21.5"/>
<text text-anchor="middle" x="1512" y="-928" font-family="Arial" font-size="10.00">C&#45;1176</text>
</g>
<!-- R&#45;082 -->
<g id="node14" class="node">
<title>R&#45;082</title>
<polygon fill="tomato" stroke="black" points="1531,-820.59 1531,-838.41 1488.82,-851 1429.18,-851 1387,-838.41 1387,-820.59 1429.18,-808 1488.82,-808 1531,-820.59"/>
<text text-anchor="middle" x="1459" y="-827" font-family="Arial" font-size="10.00">R&#45;082</text>
</g>
<!-- C&#45;1176&#45;&gt;R&#45;082 -->
<g id="edge50" class="edge">
<title>C&#45;1176&#45;&gt;R&#45;082</title>
<path fill="none" stroke="#4d4d4d" d="M1485.5,-910.06C1485.5,-910.06 1485.5,-858.31 1485.5,-858.31"/>
<polygon fill="#4d4d4d" stroke="#4d4d4d" points="1487.95,-858.31 1485.5,-851.31 1483.05,-858.31 1487.95,-858.31"/>
</g>
<!-- R&#45;107 -->
<g id="node4" class="node">
<title>R&#45;107</title>
<polygon fill="mediumseagreen" stroke="black" points="2206,-517.59 2206,-535.41 2163.82,-548 2104.18,-548 2062,-535.41 2062,-517.59 2104.18,-505 2163.82,-505 2206,-517.59"/>
<text text-anchor="middle" x="2134" y="-524" font-family="Arial" font-size="10.00">R&#45;107</text>
</g>
<!-- R&#45;107&#45;&gt;C&#45;0579 -->
<g id="edge9" class="edge">
<title>R&#45;107&#45;&gt;C&#45;0579</title>
<path fill="none" stroke="#4d4d4d" d="M2134,-504.58C2134,-504.58 2134,-454.03 2134,-454.03"/>
<polygon fill="#4d4d4d" stroke="#4d4d4d" points="2136.45,-454.03 2134,-447.03 2131.55,-454.03 2136.45,-454.03"/>
</g>
<!-- S&#45;1177 -->
<g id="node5" class="node">
<title>S&#45;1177</title>
<polygon fill="mediumseagreen" stroke="black" points="1395,-1053 1323,-1031.5 1395,-1010 1467,-1031.5 1395,-1053"/>
<text text-anchor="middle" x="1395" y="-1029" font-family="Arial" font-size="10.00">S&#45;1177</text>
</g>
<!-- S&#45;488 -->
<g id="node6" class="node">
<title>S&#45;488</title>
<polygon fill="mediumseagreen" stroke="black" points="1575,-1053 1503,-1031.5 1575,-1010 1647,-1031.5 1575,-1053"/>
<text text-anchor="middle" x="1575" y="-1029" font-family="Arial" font-size="10.00">S&#45;488</text>
</g>
<!-- S&#45;488&#45;&gt;C&#45;1176 -->
<g id="edge48" class="edge">
<title>S&#45;488&#45;&gt;C&#45;1176</title>
<path fill="none" stroke="#4d4d4d" d="M1543.5,-1019.12C1543.5,-1019.12 1543.5,-956.91 1543.5,-956.91"/>
<polygon fill="#4d4d4d" stroke="#4d4d4d" points="1545.95,-956.91 1543.5,-949.91 1541.05,-956.91 1545.95,-956.91"/>
</g>
<!-- C&#45;1175 -->
<g id="node10" class="node">
<title>C&#45;1175</title>
<ellipse fill="tomato" stroke="black" cx="1639" cy="-829.5" rx="72" ry="21.5"/>
<text text-anchor="middle" x="1639" y="-827" font-family="Arial" font-size="10.00">C&#45;1175</text>
</g>
<!-- S&#45;488&#45;&gt;C&#45;1175 -->
<g id="edge49" class="edge">
<title>S&#45;488&#45;&gt;C&#45;1175</title>
<path fill="none" stroke="#4d4d4d" d="M1605,-1018.86C1605,-1018.86 1605,-855.68 1605,-855.68"/>
<polygon fill="#4d4d4d" stroke="#4d4d4d" points="1607.45,-855.68 1605,-848.68 1602.55,-855.68 1607.45,-855.68"/>
</g>
<!-- S&#45;1286 -->
<g id="node46" class="node">
<title>S&#45;1286</title>
<polygon fill="mediumseagreen" stroke="black" points="1819,-952 1747,-930.5 1819,-909 1891,-930.5 1819,-952"/>
<text text-anchor="middle" x="1819" y="-928" font-family="Arial" font-size="10.00">S&#45;1286</text>
</g>
<!-- S&#45;488&#45;&gt;S&#45;1286 -->
<g id="edge51" class="edge">
<title>S&#45;488&#45;&gt;S&#45;1286</title>
<path fill="none" stroke="#4d4d4d" d="M1626,-1025.15C1626,-1002.93 1626,-930 1626,-930 1626,-930 1741.5,-930 1741.5,-930"/>
<polygon fill="#4d4d4d" stroke="#4d4d4d" points="1741.5,-932.45 1748.5,-930 1741.5,-927.55 1741.5,-932.45"/>
</g>
<!-- S&#45;515 -->
<g id="node7" class="node">
<title>S&#45;515</title>
<polygon fill="mediumseagreen" stroke="black" points="1485,-1255 1413,-1233.5 1485,-1212 1557,-1233.5 1485,-1255"/>
<text text-anchor="middle" x="1485" y="-1231" font-family="Arial" font-size="10.00">S&#45;515</text>
</g>
<!-- R&#45;049 -->
<g id="node21" class="node">
<title>R&#45;049</title>
<polygon fill="mediumseagreen" stroke="black" points="1647,-1123.59 1647,-1141.41 1604.82,-1154 1545.18,-1154 1503,-1141.41 1503,-1123.59 1545.18,-1111 1604.82,-1111 1647,-1123.59"/>
<text text-anchor="middle" x="1575" y="-1130" font-family="Arial" font-size="10.00">R&#45;049</text>
</g>
<!-- S&#45;515&#45;&gt;R&#45;049 -->
<g id="edge45" class="edge">
<title>S&#45;515&#45;&gt;R&#45;049</title>
<path fill="none" stroke="#4d4d4d" d="M1530,-1225.23C1530,-1225.23 1530,-1156.52 1530,-1156.52"/>
<polygon fill="#4d4d4d" stroke="#4d4d4d" points="1532.45,-1156.52 1530,-1149.52 1527.55,-1156.52 1532.45,-1156.52"/>
</g>
<!-- C&#45;0352 -->
<g id="node8" class="node">
<title>C&#45;0352</title>
<ellipse fill="tomato" stroke="black" cx="1774" cy="-627.5" rx="72" ry="21.5"/>
<text text-anchor="middle" x="1774" y="-625" font-family="Arial" font-size="10.00">C&#45;0352</text>
</g>
<!-- S&#45;2413 -->
<g id="node50" class="node">
<title>S&#45;2413</title>
<polygon fill="mediumseagreen" stroke="black" points="972,-952 900,-930.5 972,-909 1044,-930.5 972,-952"/>
<text text-anchor="middle" x="972" y="-928" font-family="Arial" font-size="10.00">S&#45;2413</text>
</g>
<!-- C&#45;0352&#45;&gt;S&#45;2413 -->
<g id="edge57" class="edge">
<title>C&#45;0352&#45;&gt;S&#45;2413</title>
<path fill="none" stroke="blue" stroke-dasharray="5,2" d="M1701.77,-627C1504.63,-627 972,-627 972,-627 972,-627 972,-901.67 972,-901.67"/>
<polygon fill="blue" stroke="blue" points="969.55,-901.67 972,-908.67 974.45,-901.67 969.55,-901.67"/>
</g>
<!-- S&#45;1869 -->
<g id="node9" class="node">
<title>S&#45;1869</title>
<polygon fill="mediumseagreen" stroke="black" points="2134,-245 2062,-223.5 2134,-202 2206,-223.5 2134,-245"/>
<text text-anchor="middle" x="2134" y="-221" font-family="Arial" font-size="10.00">S&#45;1869</text>
</g>
<!-- ext_circ_205_23_ -->
<g id="node56" class="node">
<title>ext_circ_205_23_</title>
<polygon fill="lightpink" stroke="darkorange" stroke-dasharray="5,2" points="1621,-750 1477,-750 1477,-707 1621,-707 1621,-750"/>
<text text-anchor="middle" x="1549" y="-731.5" font-family="Arial" font-size="10.00">Circuito:</text>
<text text-anchor="middle" x="1549" y="-720.5" font-family="Arial" font-size="10.00">205&#45;23&#45;</text>
</g>
<!-- C&#45;1175&#45;&gt;ext_circ_205_23_ -->
<g id="edge58" class="edge">
<title>C&#45;1175&#45;&gt;ext_circ_205_23_</title>
<path fill="none" stroke="darkorange" stroke-dasharray="5,2" d="M1594,-812.37C1594,-812.37 1594,-757.31 1594,-757.31"/>
<polygon fill="darkorange" stroke="darkorange" points="1596.45,-757.31 1594,-750.31 1591.55,-757.31 1596.45,-757.31"/>
</g>
<!-- C&#45;1328 -->
<g id="node11" class="node">
<title>C&#45;1328</title>
<ellipse fill="mediumseagreen" stroke="black" cx="1575" cy="-1435.5" rx="72" ry="21.5"/>
<text text-anchor="middle" x="1575" y="-1433" font-family="Arial" font-size="10.00">C&#45;1328</text>
</g>
<!-- S&#45;1425 -->
<g id="node25" class="node">
<title>S&#45;1425</title>
<polygon fill="mediumseagreen" stroke="black" points="1395,-1356 1323,-1334.5 1395,-1313 1467,-1334.5 1395,-1356"/>
<text text-anchor="middle" x="1395" y="-1332" font-family="Arial" font-size="10.00">S&#45;1425</text>
</g>
<!-- C&#45;1328&#45;&gt;S&#45;1425 -->
<g id="edge37" class="edge">
<title>C&#45;1328&#45;&gt;S&#45;1425</title>
<path fill="none" stroke="#4d4d4d" d="M1502.82,-1435C1452.75,-1435 1395,-1435 1395,-1435 1395,-1435 1395,-1363.31 1395,-1363.31"/>
<polygon fill="#4d4d4d" stroke="#4d4d4d" points="1397.45,-1363.31 1395,-1356.31 1392.55,-1363.31 1397.45,-1363.31"/>
</g>
<!-- S&#45;509 -->
<g id="node42" class="node">
<title>S&#45;509</title>
<polygon fill="mediumseagreen" stroke="black" points="1575,-1356 1503,-1334.5 1575,-1313 1647,-1334.5 1575,-1356"/>
<text text-anchor="middle" x="1575" y="-1332" font-family="Arial" font-size="10.00">S&#45;509</text>
</g>
<!-- C&#45;1328&#45;&gt;S&#45;509 -->
<g id="edge38" class="edge">
<title>C&#45;1328&#45;&gt;S&#45;509</title>
<path fill="none" stroke="#4d4d4d" d="M1575,-1413.58C1575,-1413.58 1575,-1363.03 1575,-1363.03"/>
<polygon fill="#4d4d4d" stroke="#4d4d4d" points="1577.45,-1363.03 1575,-1356.03 1572.55,-1363.03 1577.45,-1363.03"/>
</g>
<!-- S&#45;516 -->
<g id="node52" class="node">
<title>S&#45;516</title>
<polygon fill="mediumseagreen" stroke="black" points="1755,-1356 1683,-1334.5 1755,-1313 1827,-1334.5 1755,-1356"/>
<text text-anchor="middle" x="1755" y="-1332" font-family="Arial" font-size="10.00">S&#45;516</text>
</g>
<!-- C&#45;1328&#45;&gt;S&#45;516 -->
<g id="edge39" class="edge">
<title>C&#45;1328&#45;&gt;S&#45;516</title>
<path fill="none" stroke="#4d4d4d" d="M1647.18,-1435C1697.25,-1435 1755,-1435 1755,-1435 1755,-1435 1755,-1363.31 1755,-1363.31"/>
<polygon fill="#4d4d4d" stroke="#4d4d4d" points="1757.45,-1363.31 1755,-1356.31 1752.55,-1363.31 1757.45,-1363.31"/>
</g>
<!-- S&#45;587 -->
<g id="node12" class="node">
<title>S&#45;587</title>
<polygon fill="mediumseagreen" stroke="black" points="2115,-1154 2043,-1132.5 2115,-1111 2187,-1132.5 2115,-1154"/>
<text text-anchor="middle" x="2115" y="-1130" font-family="Arial" font-size="10.00">S&#45;587</text>
</g>
<!-- C&#45;1130 -->
<g id="node15" class="node">
<title>C&#45;1130</title>
<ellipse fill="mediumseagreen" stroke="black" cx="1774" cy="-223.5" rx="72" ry="21.5"/>
<text text-anchor="middle" x="1774" y="-221" font-family="Arial" font-size="10.00">C&#45;1130</text>
</g>
<!-- C&#45;0347&#45;&gt;C&#45;1130 -->
<g id="edge15" class="edge">
<title>C&#45;0347&#45;&gt;C&#45;1130</title>
<path fill="none" stroke="#4d4d4d" d="M1881.82,-324C1831.75,-324 1774,-324 1774,-324 1774,-324 1774,-252.31 1774,-252.31"/>
<polygon fill="#4d4d4d" stroke="#4d4d4d" points="1776.45,-252.31 1774,-245.31 1771.55,-252.31 1776.45,-252.31"/>
</g>
<!-- S&#45;1304 -->
<g id="node37" class="node">
<title>S&#45;1304</title>
<polygon fill="mediumseagreen" stroke="black" points="1954,-245 1882,-223.5 1954,-202 2026,-223.5 1954,-245"/>
<text text-anchor="middle" x="1954" y="-221" font-family="Arial" font-size="10.00">S&#45;1304</text>
</g>
<!-- C&#45;0347&#45;&gt;S&#45;1304 -->
<g id="edge12" class="edge">
<title>C&#45;0347&#45;&gt;S&#45;1304</title>
<path fill="none" stroke="#4d4d4d" d="M1954,-302.58C1954,-302.58 1954,-252.03 1954,-252.03"/>
<polygon fill="#4d4d4d" stroke="#4d4d4d" points="1956.45,-252.03 1954,-245.03 1951.55,-252.03 1956.45,-252.03"/>
</g>
<!-- R&#45;082&#45;&gt;ext_circ_205_23_ -->
<g id="edge59" class="edge">
<title>R&#45;082&#45;&gt;ext_circ_205_23_</title>
<path fill="none" stroke="darkorange" stroke-dasharray="5,2" d="M1504,-812.37C1504,-812.37 1504,-757.31 1504,-757.31"/>
<polygon fill="darkorange" stroke="darkorange" points="1506.45,-757.31 1504,-750.31 1501.55,-757.31 1506.45,-757.31"/>
</g>
<!-- S&#45;2029 -->
<g id="node16" class="node">
<title>S&#45;2029</title>
<polygon fill="mediumseagreen" stroke="black" points="1845,-1154 1773,-1132.5 1845,-1111 1917,-1132.5 1845,-1154"/>
<text text-anchor="middle" x="1845" y="-1130" font-family="Arial" font-size="10.00">S&#45;2029</text>
</g>
<!-- S&#45;1305 -->
<g id="node17" class="node">
<title>S&#45;1305</title>
<polygon fill="mediumseagreen" stroke="black" points="2314,-245 2242,-223.5 2314,-202 2386,-223.5 2314,-245"/>
<text text-anchor="middle" x="2314" y="-221" font-family="Arial" font-size="10.00">S&#45;1305</text>
</g>
<!-- S&#45;1620 -->
<g id="node18" class="node">
<title>S&#45;1620</title>
<polygon fill="mediumseagreen" stroke="black" points="1774,-750 1702,-728.5 1774,-707 1846,-728.5 1774,-750"/>
<text text-anchor="middle" x="1774" y="-726" font-family="Arial" font-size="10.00">S&#45;1620</text>
</g>
<!-- S&#45;1375 -->
<g id="node19" class="node">
<title>S&#45;1375</title>
<polygon fill="mediumseagreen" stroke="black" points="1665,-1255 1593,-1233.5 1665,-1212 1737,-1233.5 1665,-1255"/>
<text text-anchor="middle" x="1665" y="-1231" font-family="Arial" font-size="10.00">S&#45;1375</text>
</g>
<!-- S&#45;854 -->
<g id="node20" class="node">
<title>S&#45;854</title>
<polygon fill="mediumseagreen" stroke="black" points="1755,-1053 1683,-1031.5 1755,-1010 1827,-1031.5 1755,-1053"/>
<text text-anchor="middle" x="1755" y="-1029" font-family="Arial" font-size="10.00">S&#45;854</text>
</g>
<!-- R&#45;049&#45;&gt;S&#45;1177 -->
<g id="edge22" class="edge">
<title>R&#45;049&#45;&gt;S&#45;1177</title>
<path fill="none" stroke="#4d4d4d" d="M1502.76,-1125C1470.66,-1125 1440,-1125 1440,-1125 1440,-1125 1440,-1046.8 1440,-1046.8"/>
<polygon fill="#4d4d4d" stroke="#4d4d4d" points="1442.45,-1046.8 1440,-1039.8 1437.55,-1046.8 1442.45,-1046.8"/>
</g>
<!-- R&#45;049&#45;&gt;S&#45;488 -->
<g id="edge47" class="edge">
<title>R&#45;049&#45;&gt;S&#45;488</title>
<path fill="none" stroke="#4d4d4d" d="M1551,-1110.58C1551,-1110.58 1551,-1052.9 1551,-1052.9"/>
<polygon fill="#4d4d4d" stroke="#4d4d4d" points="1553.45,-1052.9 1551,-1045.9 1548.55,-1052.9 1553.45,-1052.9"/>
</g>
<!-- R&#45;049&#45;&gt;S&#45;854 -->
<g id="edge21" class="edge">
<title>R&#45;049&#45;&gt;S&#45;854</title>
<path fill="none" stroke="#4d4d4d" d="M1647.24,-1132C1679.34,-1132 1710,-1132 1710,-1132 1710,-1132 1710,-1046.72 1710,-1046.72"/>
<polygon fill="#4d4d4d" stroke="#4d4d4d" points="1712.45,-1046.72 1710,-1039.72 1707.55,-1046.72 1712.45,-1046.72"/>
</g>
<!-- S&#45;511 -->
<g id="node44" class="node">
<title>S&#45;511</title>
<polygon fill="mediumseagreen" stroke="black" points="1935,-1053 1863,-1031.5 1935,-1010 2007,-1031.5 1935,-1053"/>
<text text-anchor="middle" x="1935" y="-1029" font-family="Arial" font-size="10.00">S&#45;511</text>
</g>
<!-- R&#45;049&#45;&gt;S&#45;511 -->
<g id="edge46" class="edge">
<title>R&#45;049&#45;&gt;S&#45;511</title>
<path fill="none" stroke="#4d4d4d" d="M1599,-1110.79C1599,-1097.1 1599,-1082 1599,-1082 1599,-1082 1890,-1082 1890,-1082 1890,-1082 1890,-1046.84 1890,-1046.84"/>
<polygon fill="#4d4d4d" stroke="#4d4d4d" points="1892.45,-1046.84 1890,-1039.84 1887.55,-1046.84 1892.45,-1046.84"/>
</g>
<!-- S&#45;678 -->
<g id="node22" class="node">
<title>S&#45;678</title>
<polygon fill="mediumseagreen" stroke="black" points="1954,-144 1882,-122.5 1954,-101 2026,-122.5 1954,-144"/>
<text text-anchor="middle" x="1954" y="-120" font-family="Arial" font-size="10.00">S&#45;678</text>
</g>
<!-- S&#45;2034 -->
<g id="node40" class="node">
<title>S&#45;2034</title>
<polygon fill="mediumseagreen" stroke="black" points="1954,-43 1882,-21.5 1954,0 2026,-21.5 1954,-43"/>
<text text-anchor="middle" x="1954" y="-19" font-family="Arial" font-size="10.00">S&#45;2034</text>
</g>
<!-- S&#45;678&#45;&gt;S&#45;2034 -->
<g id="edge14" class="edge">
<title>S&#45;678&#45;&gt;S&#45;2034</title>
<path fill="none" stroke="#4d4d4d" d="M1954,-100.58C1954,-100.58 1954,-50.03 1954,-50.03"/>
<polygon fill="#4d4d4d" stroke="#4d4d4d" points="1956.45,-50.03 1954,-43.03 1951.55,-50.03 1956.45,-50.03"/>
</g>
<!-- S&#45;2292 -->
<g id="node23" class="node">
<title>S&#45;2292</title>
<polygon fill="mediumseagreen" stroke="black" points="2295,-1154 2223,-1132.5 2295,-1111 2367,-1132.5 2295,-1154"/>
<text text-anchor="middle" x="2295" y="-1130" font-family="Arial" font-size="10.00">S&#45;2292</text>
</g>
<!-- S&#45;2031 -->
<g id="node38" class="node">
<title>S&#45;2031</title>
<polygon fill="mediumseagreen" stroke="black" points="2295,-1053 2223,-1031.5 2295,-1010 2367,-1031.5 2295,-1053"/>
<text text-anchor="middle" x="2295" y="-1029" font-family="Arial" font-size="10.00">S&#45;2031</text>
</g>
<!-- S&#45;2292&#45;&gt;S&#45;2031 -->
<g id="edge26" class="edge">
<title>S&#45;2292&#45;&gt;S&#45;2031</title>
<path fill="none" stroke="#4d4d4d" d="M2295,-1110.58C2295,-1110.58 2295,-1060.03 2295,-1060.03"/>
<polygon fill="#4d4d4d" stroke="#4d4d4d" points="2297.45,-1060.03 2295,-1053.03 2292.55,-1060.03 2297.45,-1060.03"/>
</g>
<!-- S&#45;513 -->
<g id="node24" class="node">
<title>S&#45;513</title>
<polygon fill="mediumseagreen" stroke="black" points="1954,-750 1882,-728.5 1954,-707 2026,-728.5 1954,-750"/>
<text text-anchor="middle" x="1954" y="-726" font-family="Arial" font-size="10.00">S&#45;513</text>
</g>
<!-- S&#45;513&#45;&gt;C&#45;0352 -->
<g id="edge33" class="edge">
<title>S&#45;513&#45;&gt;C&#45;0352</title>
<path fill="none" stroke="#4d4d4d" d="M1883.53,-728C1872.14,-728 1864,-728 1864,-728 1864,-728 1864,-627 1864,-627 1864,-627 1853.22,-627 1853.22,-627"/>
<polygon fill="#4d4d4d" stroke="#4d4d4d" points="1853.22,-624.55 1846.22,-627 1853.22,-629.45 1853.22,-624.55"/>
</g>
<!-- C&#45;0577 -->
<g id="node35" class="node">
<title>C&#45;0577</title>
<ellipse fill="tomato" stroke="black" cx="1954" cy="-627.5" rx="72" ry="21.5"/>
<text text-anchor="middle" x="1954" y="-625" font-family="Arial" font-size="10.00">C&#45;0577</text>
</g>
<!-- S&#45;513&#45;&gt;C&#45;0577 -->
<g id="edge31" class="edge">
<title>S&#45;513&#45;&gt;C&#45;0577</title>
<path fill="none" stroke="#4d4d4d" d="M1954,-706.58C1954,-706.58 1954,-656.03 1954,-656.03"/>
<polygon fill="#4d4d4d" stroke="#4d4d4d" points="1956.45,-656.03 1954,-649.03 1951.55,-656.03 1956.45,-656.03"/>
</g>
<!-- C&#45;0578 -->
<g id="node48" class="node">
<title>C&#45;0578</title>
<ellipse fill="mediumseagreen" stroke="black" cx="2134" cy="-627.5" rx="72" ry="21.5"/>
<text text-anchor="middle" x="2134" y="-625" font-family="Arial" font-size="10.00">C&#45;0578</text>
</g>
<!-- S&#45;513&#45;&gt;C&#45;0578 -->
<g id="edge32" class="edge">
<title>S&#45;513&#45;&gt;C&#45;0578</title>
<path fill="none" stroke="#4d4d4d" d="M2024.61,-728C2047.21,-728 2066.5,-728 2066.5,-728 2066.5,-728 2066.5,-642.05 2066.5,-642.05"/>
<polygon fill="#4d4d4d" stroke="#4d4d4d" points="2068.95,-642.05 2066.5,-635.05 2064.05,-642.05 2068.95,-642.05"/>
</g>
<!-- S&#45;596 -->
<g id="node26" class="node">
<title>S&#45;596</title>
<polygon fill="mediumseagreen" stroke="black" points="1845,-1255 1773,-1233.5 1845,-1212 1917,-1233.5 1845,-1255"/>
<text text-anchor="middle" x="1845" y="-1231" font-family="Arial" font-size="10.00">S&#45;596</text>
</g>
<!-- S&#45;596&#45;&gt;S&#45;2029 -->
<g id="edge41" class="edge">
<title>S&#45;596&#45;&gt;S&#45;2029</title>
<path fill="none" stroke="#4d4d4d" d="M1845,-1211.58C1845,-1211.58 1845,-1161.03 1845,-1161.03"/>
<polygon fill="#4d4d4d" stroke="#4d4d4d" points="1847.45,-1161.03 1845,-1154.03 1842.55,-1161.03 1847.45,-1161.03"/>
</g>
<!-- S&#45;1969 -->
<g id="node27" class="node">
<title>S&#45;1969</title>
<polygon fill="mediumseagreen" stroke="black" points="72,-952 0,-930.5 72,-909 144,-930.5 72,-952"/>
<text text-anchor="middle" x="72" y="-928" font-family="Arial" font-size="10.00">S&#45;1969</text>
</g>
<!-- S&#45;527 -->
<g id="node28" class="node">
<title>S&#45;527</title>
<polygon fill="mediumseagreen" stroke="black" points="2494,-245 2422,-223.5 2494,-202 2566,-223.5 2494,-245"/>
<text text-anchor="middle" x="2494" y="-221" font-family="Arial" font-size="10.00">S&#45;527</text>
</g>
<!-- C&#45;0928 -->
<g id="node29" class="node">
<title>C&#45;0928</title>
<ellipse fill="mediumseagreen" stroke="black" cx="792" cy="-1031.5" rx="72" ry="21.5"/>
<text text-anchor="middle" x="792" y="-1029" font-family="Arial" font-size="10.00">C&#45;0928</text>
</g>
<!-- C&#45;0928&#45;&gt;S&#45;1969 -->
<g id="edge1" class="edge">
<title>C&#45;0928&#45;&gt;S&#45;1969</title>
<path fill="none" stroke="#4d4d4d" d="M733.38,-1044C561.7,-1044 72,-1044 72,-1044 72,-1044 72,-959.12 72,-959.12"/>
<polygon fill="#4d4d4d" stroke="#4d4d4d" points="74.45,-959.12 72,-952.12 69.55,-959.12 74.45,-959.12"/>
</g>
<!-- S&#45;510 -->
<g id="node30" class="node">
<title>S&#45;510</title>
<polygon fill="mediumseagreen" stroke="black" points="252,-952 180,-930.5 252,-909 324,-930.5 252,-952"/>
<text text-anchor="middle" x="252" y="-928" font-family="Arial" font-size="10.00">S&#45;510</text>
</g>
<!-- C&#45;0928&#45;&gt;S&#45;510 -->
<g id="edge7" class="edge">
<title>C&#45;0928&#45;&gt;S&#45;510</title>
<path fill="none" stroke="#4d4d4d" d="M720.85,-1035C574.22,-1035 252,-1035 252,-1035 252,-1035 252,-959.15 252,-959.15"/>
<polygon fill="#4d4d4d" stroke="#4d4d4d" points="254.45,-959.15 252,-952.15 249.55,-959.15 254.45,-959.15"/>
</g>
<!-- S&#45;209 -->
<g id="node32" class="node">
<title>S&#45;209</title>
<polygon fill="mediumseagreen" stroke="black" points="432,-952 360,-930.5 432,-909 504,-930.5 432,-952"/>
<text text-anchor="middle" x="432" y="-928" font-family="Arial" font-size="10.00">S&#45;209</text>
</g>
<!-- C&#45;0928&#45;&gt;S&#45;209 -->
<g id="edge2" class="edge">
<title>C&#45;0928&#45;&gt;S&#45;209</title>
<path fill="none" stroke="#4d4d4d" d="M721.31,-1027C616.46,-1027 432,-1027 432,-1027 432,-1027 432,-959.4 432,-959.4"/>
<polygon fill="#4d4d4d" stroke="#4d4d4d" points="434.45,-959.4 432,-952.4 429.55,-959.4 434.45,-959.4"/>
</g>
<!-- S&#45;2546 -->
<g id="node33" class="node">
<title>S&#45;2546</title>
<polygon fill="mediumseagreen" stroke="black" points="612,-952 540,-930.5 612,-909 684,-930.5 612,-952"/>
<text text-anchor="middle" x="612" y="-928" font-family="Arial" font-size="10.00">S&#45;2546</text>
</g>
<!-- C&#45;0928&#45;&gt;S&#45;2546 -->
<g id="edge6" class="edge">
<title>C&#45;0928&#45;&gt;S&#45;2546</title>
<path fill="none" stroke="#4d4d4d" d="M735.54,-1018C682.75,-1018 612,-1018 612,-1018 612,-1018 612,-959.13 612,-959.13"/>
<polygon fill="#4d4d4d" stroke="#4d4d4d" points="614.45,-959.13 612,-952.13 609.55,-959.13 614.45,-959.13"/>
</g>
<!-- C&#45;0927 -->
<g id="node49" class="node">
<title>C&#45;0927</title>
<ellipse fill="tomato" stroke="black" cx="792" cy="-930.5" rx="72" ry="21.5"/>
<text text-anchor="middle" x="792" y="-928" font-family="Arial" font-size="10.00">C&#45;0927</text>
</g>
<!-- C&#45;0928&#45;&gt;C&#45;0927 -->
<g id="edge30" class="edge">
<title>C&#45;0928&#45;&gt;C&#45;0927</title>
<path fill="none" stroke="#4d4d4d" d="M768,-1011.06C768,-1011.06 768,-957.91 768,-957.91"/>
<polygon fill="#4d4d4d" stroke="#4d4d4d" points="770.45,-957.91 768,-950.91 765.55,-957.91 770.45,-957.91"/>
</g>
<!-- C&#45;0928&#45;&gt;S&#45;2413 -->
<g id="edge5" class="edge">
<title>C&#45;0928&#45;&gt;S&#45;2413</title>
<path fill="none" stroke="#4d4d4d" d="M853.18,-1020C888.9,-1020 927,-1020 927,-1020 927,-1020 927,-945.76 927,-945.76"/>
<polygon fill="#4d4d4d" stroke="#4d4d4d" points="929.45,-945.76 927,-938.76 924.55,-945.76 929.45,-945.76"/>
</g>
<!-- S&#45;2038 -->
<g id="node53" class="node">
<title>S&#45;2038</title>
<polygon fill="mediumseagreen" stroke="black" points="1152,-952 1080,-930.5 1152,-909 1224,-930.5 1152,-952"/>
<text text-anchor="middle" x="1152" y="-928" font-family="Arial" font-size="10.00">S&#45;2038</text>
</g>
<!-- C&#45;0928&#45;&gt;S&#45;2038 -->
<g id="edge3" class="edge">
<title>C&#45;0928&#45;&gt;S&#45;2038</title>
<path fill="none" stroke="#4d4d4d" d="M864.27,-1031C957.27,-1031 1107,-1031 1107,-1031 1107,-1031 1107,-945.72 1107,-945.72"/>
<polygon fill="#4d4d4d" stroke="#4d4d4d" points="1109.45,-945.72 1107,-938.72 1104.55,-945.72 1109.45,-945.72"/>
</g>
<!-- S&#45;2449 -->
<g id="node55" class="node">
<title>S&#45;2449</title>
<polygon fill="mediumseagreen" stroke="black" points="1332,-952 1260,-930.5 1332,-909 1404,-930.5 1332,-952"/>
<text text-anchor="middle" x="1332" y="-928" font-family="Arial" font-size="10.00">S&#45;2449</text>
</g>
<!-- C&#45;0928&#45;&gt;S&#45;2449 -->
<g id="edge4" class="edge">
<title>C&#45;0928&#45;&gt;S&#45;2449</title>
<path fill="none" stroke="#4d4d4d" d="M855.01,-1042C989.29,-1042 1291.5,-1042 1291.5,-1042 1291.5,-1042 1291.5,-947.01 1291.5,-947.01"/>
<polygon fill="#4d4d4d" stroke="#4d4d4d" points="1293.95,-947.01 1291.5,-940.01 1289.05,-947.01 1293.95,-947.01"/>
</g>
<!-- 206&#45;25&#45; -->
<g id="node31" class="node">
<title>206&#45;25&#45;</title>
<polygon fill="gold" stroke="black" points="1647,-1632.59 1647,-1650.41 1604.82,-1663 1545.18,-1663 1503,-1650.41 1503,-1632.59 1545.18,-1620 1604.82,-1620 1647,-1632.59"/>
<polygon fill="none" stroke="black" points="1651,-1629.61 1651,-1653.39 1605.41,-1667 1544.59,-1667 1499,-1653.39 1499,-1629.61 1544.59,-1616 1605.41,-1616 1651,-1629.61"/>
<text text-anchor="middle" x="1575" y="-1639" font-family="Arial" font-size="10.00">206&#45;25&#45;</text>
</g>
<!-- C&#45;0014 -->
<g id="node45" class="node">
<title>C&#45;0014</title>
<ellipse fill="mediumseagreen" stroke="black" cx="1575" cy="-1536.5" rx="72" ry="21.5"/>
<text text-anchor="middle" x="1575" y="-1534" font-family="Arial" font-size="10.00">C&#45;0014</text>
</g>
<!-- 206&#45;25&#45;&#45;&gt;C&#45;0014 -->
<g id="edge35" class="edge">
<title>206&#45;25&#45;&#45;&gt;C&#45;0014</title>
<path fill="none" stroke="#4d4d4d" d="M1575,-1615.81C1575,-1615.81 1575,-1565.03 1575,-1565.03"/>
<polygon fill="#4d4d4d" stroke="#4d4d4d" points="1577.45,-1565.03 1575,-1558.03 1572.55,-1565.03 1577.45,-1565.03"/>
</g>
<!-- S&#45;1432 -->
<g id="node34" class="node">
<title>S&#45;1432</title>
<polygon fill="mediumseagreen" stroke="black" points="2674,-245 2602,-223.5 2674,-202 2746,-223.5 2674,-245"/>
<text text-anchor="middle" x="2674" y="-221" font-family="Arial" font-size="10.00">S&#45;1432</text>
</g>
<!-- C&#45;0577&#45;&gt;C&#45;0579 -->
<g id="edge56" class="edge">
<title>C&#45;0577&#45;&gt;C&#45;0579</title>
<path fill="none" stroke="blue" stroke-dasharray="5,2" d="M1930,-606.95C1930,-556.75 1930,-432 1930,-432 1930,-432 2058.22,-432 2058.22,-432"/>
<polygon fill="blue" stroke="blue" points="2058.22,-434.45 2065.22,-432 2058.22,-429.55 2058.22,-434.45"/>
</g>
<!-- S&#45;910 -->
<g id="node36" class="node">
<title>S&#45;910</title>
<polygon fill="mediumseagreen" stroke="black" points="1819,-851 1747,-829.5 1819,-808 1891,-829.5 1819,-851"/>
<text text-anchor="middle" x="1819" y="-827" font-family="Arial" font-size="10.00">S&#45;910</text>
</g>
<!-- S&#45;910&#45;&gt;S&#45;1620 -->
<g id="edge54" class="edge">
<title>S&#45;910&#45;&gt;S&#45;1620</title>
<path fill="none" stroke="#4d4d4d" d="M1796.5,-814.6C1796.5,-814.6 1796.5,-750.46 1796.5,-750.46"/>
<polygon fill="#4d4d4d" stroke="#4d4d4d" points="1798.95,-750.46 1796.5,-743.46 1794.05,-750.46 1798.95,-750.46"/>
</g>
<!-- S&#45;910&#45;&gt;S&#45;513 -->
<g id="edge34" class="edge">
<title>S&#45;910&#45;&gt;S&#45;513</title>
<path fill="none" stroke="#4d4d4d" d="M1886.5,-828.07C1886.5,-828.07 1886.5,-737.02 1886.5,-737.02"/>
<polygon fill="#4d4d4d" stroke="#4d4d4d" points="1888.95,-737.02 1886.5,-730.02 1884.05,-737.02 1888.95,-737.02"/>
</g>
<!-- S&#45;1304&#45;&gt;S&#45;678 -->
<g id="edge13" class="edge">
<title>S&#45;1304&#45;&gt;S&#45;678</title>
<path fill="none" stroke="#4d4d4d" d="M1954,-201.58C1954,-201.58 1954,-151.03 1954,-151.03"/>
<polygon fill="#4d4d4d" stroke="#4d4d4d" points="1956.45,-151.03 1954,-144.03 1951.55,-151.03 1956.45,-151.03"/>
</g>
<!-- S&#45;2358 -->
<g id="node39" class="node">
<title>S&#45;2358</title>
<polygon fill="mediumseagreen" stroke="black" points="1999,-851 1927,-829.5 1999,-808 2071,-829.5 1999,-851"/>
<text text-anchor="middle" x="1999" y="-827" font-family="Arial" font-size="10.00">S&#45;2358</text>
</g>
<!-- R&#45;218&#45;&gt;C&#45;0928 -->
<g id="edge29" class="edge">
<title>R&#45;218&#45;&gt;C&#45;0928</title>
<path fill="none" stroke="#4d4d4d" d="M837,-1115.37C837,-1115.37 837,-1055.38 837,-1055.38"/>
<polygon fill="#4d4d4d" stroke="#4d4d4d" points="839.45,-1055.38 837,-1048.38 834.55,-1055.38 839.45,-1055.38"/>
</g>
<!-- C&#45;0014&#45;&gt;C&#45;1328 -->
<g id="edge36" class="edge">
<title>C&#45;0014&#45;&gt;C&#45;1328</title>
<path fill="none" stroke="#4d4d4d" d="M1575,-1514.58C1575,-1514.58 1575,-1464.03 1575,-1464.03"/>
<polygon fill="#4d4d4d" stroke="#4d4d4d" points="1577.45,-1464.03 1575,-1457.03 1572.55,-1464.03 1577.45,-1464.03"/>
</g>
<!-- S&#45;1286&#45;&gt;S&#45;910 -->
<g id="edge53" class="edge">
<title>S&#45;1286&#45;&gt;S&#45;910</title>
<path fill="none" stroke="#4d4d4d" d="M1819,-908.58C1819,-908.58 1819,-858.03 1819,-858.03"/>
<polygon fill="#4d4d4d" stroke="#4d4d4d" points="1821.45,-858.03 1819,-851.03 1816.55,-858.03 1821.45,-858.03"/>
</g>
<!-- S&#45;1286&#45;&gt;S&#45;2358 -->
<g id="edge52" class="edge">
<title>S&#45;1286&#45;&gt;S&#45;2358</title>
<path fill="none" stroke="#4d4d4d" d="M1889.53,-930C1927.65,-930 1967,-930 1967,-930 1967,-930 1967,-848.82 1967,-848.82"/>
<polygon fill="#4d4d4d" stroke="#4d4d4d" points="1969.45,-848.82 1967,-841.82 1964.55,-848.82 1969.45,-848.82"/>
</g>
<!-- S&#45;1970 -->
<g id="node47" class="node">
<title>S&#45;1970</title>
<polygon fill="mediumseagreen" stroke="black" points="2025,-1255 1953,-1233.5 2025,-1212 2097,-1233.5 2025,-1255"/>
<text text-anchor="middle" x="2025" y="-1231" font-family="Arial" font-size="10.00">S&#45;1970</text>
</g>
<!-- C&#45;0578&#45;&gt;R&#45;107 -->
<g id="edge8" class="edge">
<title>C&#45;0578&#45;&gt;R&#45;107</title>
<path fill="none" stroke="#4d4d4d" d="M2134,-605.58C2134,-605.58 2134,-555.03 2134,-555.03"/>
<polygon fill="#4d4d4d" stroke="#4d4d4d" points="2136.45,-555.03 2134,-548.03 2131.55,-555.03 2136.45,-555.03"/>
</g>
<!-- C&#45;0927&#45;&gt;C&#45;0926 -->
<g id="edge55" class="edge">
<title>C&#45;0927&#45;&gt;C&#45;0926</title>
<path fill="none" stroke="blue" stroke-dasharray="5,2" d="M816,-951.04C816,-965.02 816,-981 816,-981 816,-981 1026,-981 1026,-981 1026,-981 1026,-1207.52 1026,-1207.52"/>
<polygon fill="blue" stroke="blue" points="1023.55,-1207.52 1026,-1214.52 1028.45,-1207.52 1023.55,-1207.52"/>
</g>
<!-- S&#45;2030 -->
<g id="node51" class="node">
<title>S&#45;2030</title>
<polygon fill="mediumseagreen" stroke="black" points="2205,-1255 2133,-1233.5 2205,-1212 2277,-1233.5 2205,-1255"/>
<text text-anchor="middle" x="2205" y="-1231" font-family="Arial" font-size="10.00">S&#45;2030</text>
</g>
<!-- S&#45;2030&#45;&gt;S&#45;587 -->
<g id="edge24" class="edge">
<title>S&#45;2030&#45;&gt;S&#45;587</title>
<path fill="none" stroke="#4d4d4d" d="M2160,-1225.23C2160,-1225.23 2160,-1147.6 2160,-1147.6"/>
<polygon fill="#4d4d4d" stroke="#4d4d4d" points="2162.45,-1147.6 2160,-1140.6 2157.55,-1147.6 2162.45,-1147.6"/>
</g>
<!-- S&#45;2030&#45;&gt;S&#45;2292 -->
<g id="edge25" class="edge">
<title>S&#45;2030&#45;&gt;S&#45;2292</title>
<path fill="none" stroke="#4d4d4d" d="M2250,-1225.23C2250,-1225.23 2250,-1147.6 2250,-1147.6"/>
<polygon fill="#4d4d4d" stroke="#4d4d4d" points="2252.45,-1147.6 2250,-1140.6 2247.55,-1147.6 2252.45,-1147.6"/>
</g>
<!-- S&#45;516&#45;&gt;C&#45;0926 -->
<g id="edge27" class="edge">
<title>S&#45;516&#45;&gt;C&#45;0926</title>
<path fill="none" stroke="#4d4d4d" d="M1696.5,-1330.37C1696.5,-1319.87 1696.5,-1293 1696.5,-1293 1696.5,-1293 1062,-1293 1062,-1293 1062,-1293 1062,-1262.32 1062,-1262.32"/>
<polygon fill="#4d4d4d" stroke="#4d4d4d" points="1064.45,-1262.32 1062,-1255.32 1059.55,-1262.32 1064.45,-1262.32"/>
</g>
<!-- S&#45;516&#45;&gt;S&#45;515 -->
<g id="edge44" class="edge">
<title>S&#45;516&#45;&gt;S&#45;515</title>
<path fill="none" stroke="#4d4d4d" d="M1710,-1326.34C1710,-1309.83 1710,-1274 1710,-1274 1710,-1274 1530,-1274 1530,-1274 1530,-1274 1530,-1248.7 1530,-1248.7"/>
<polygon fill="#4d4d4d" stroke="#4d4d4d" points="1532.45,-1248.7 1530,-1241.7 1527.55,-1248.7 1532.45,-1248.7"/>
</g>
<!-- S&#45;516&#45;&gt;S&#45;1375 -->
<g id="edge42" class="edge">
<title>S&#45;516&#45;&gt;S&#45;1375</title>
<path fill="none" stroke="#4d4d4d" d="M1723.5,-1322.12C1723.5,-1322.12 1723.5,-1244.65 1723.5,-1244.65"/>
<polygon fill="#4d4d4d" stroke="#4d4d4d" points="1725.95,-1244.65 1723.5,-1237.65 1721.05,-1244.65 1725.95,-1244.65"/>
</g>
<!-- S&#45;516&#45;&gt;S&#45;596 -->
<g id="edge40" class="edge">
<title>S&#45;516&#45;&gt;S&#45;596</title>
<path fill="none" stroke="#4d4d4d" d="M1800,-1326.23C1800,-1326.23 1800,-1248.6 1800,-1248.6"/>
<polygon fill="#4d4d4d" stroke="#4d4d4d" points="1802.45,-1248.6 1800,-1241.6 1797.55,-1248.6 1802.45,-1248.6"/>
</g>
<!-- S&#45;516&#45;&gt;S&#45;1970 -->
<g id="edge43" class="edge">
<title>S&#45;516&#45;&gt;S&#45;1970</title>
<path fill="none" stroke="#4d4d4d" d="M1802.03,-1327C1879.39,-1327 2025,-1327 2025,-1327 2025,-1327 2025,-1262.19 2025,-1262.19"/>
<polygon fill="#4d4d4d" stroke="#4d4d4d" points="2027.45,-1262.19 2025,-1255.19 2022.55,-1262.19 2027.45,-1262.19"/>
</g>
<!-- S&#45;516&#45;&gt;S&#45;2030 -->
<g id="edge23" class="edge">
<title>S&#45;516&#45;&gt;S&#45;2030</title>
<path fill="none" stroke="#4d4d4d" d="M1805.31,-1341C1922.74,-1341 2205,-1341 2205,-1341 2205,-1341 2205,-1262.25 2205,-1262.25"/>
<polygon fill="#4d4d4d" stroke="#4d4d4d" points="2207.45,-1262.25 2205,-1255.25 2202.55,-1262.25 2207.45,-1262.25"/>
</g>
<!-- C&#45;0348&#45;&gt;S&#45;1869 -->
<g id="edge20" class="edge">
<title>C&#45;0348&#45;&gt;S&#45;1869</title>
<path fill="none" stroke="#4d4d4d" d="M2241.85,-324C2236.13,-324 2232.5,-324 2232.5,-324 2232.5,-324 2232.5,-223 2232.5,-223 2232.5,-223 2211.54,-223 2211.54,-223"/>
<polygon fill="#4d4d4d" stroke="#4d4d4d" points="2211.54,-220.55 2204.54,-223 2211.54,-225.45 2211.54,-220.55"/>
</g>
<!-- C&#45;0348&#45;&gt;S&#45;1305 -->
<g id="edge17" class="edge">
<title>C&#45;0348&#45;&gt;S&#45;1305</title>
<path fill="none" stroke="#4d4d4d" d="M2314,-302.58C2314,-302.58 2314,-252.03 2314,-252.03"/>
<polygon fill="#4d4d4d" stroke="#4d4d4d" points="2316.45,-252.03 2314,-245.03 2311.55,-252.03 2316.45,-252.03"/>
</g>
<!-- C&#45;0348&#45;&gt;S&#45;527 -->
<g id="edge19" class="edge">
<title>C&#45;0348&#45;&gt;S&#45;527</title>
<path fill="none" stroke="#4d4d4d" d="M2381.54,-317C2432.61,-317 2494,-317 2494,-317 2494,-317 2494,-252.19 2494,-252.19"/>
<polygon fill="#4d4d4d" stroke="#4d4d4d" points="2496.45,-252.19 2494,-245.19 2491.55,-252.19 2496.45,-252.19"/>
</g>
<!-- C&#45;0348&#45;&gt;S&#45;1432 -->
<g id="edge18" class="edge">
<title>C&#45;0348&#45;&gt;S&#45;1432</title>
<path fill="none" stroke="#4d4d4d" d="M2382.99,-331C2487.52,-331 2674,-331 2674,-331 2674,-331 2674,-252.25 2674,-252.25"/>
<polygon fill="#4d4d4d" stroke="#4d4d4d" points="2676.45,-252.25 2674,-245.25 2671.55,-252.25 2676.45,-252.25"/>
</g>
</g>
</svg>
