<?xml version="1.0" encoding="UTF-8" standalone="no"?>
<!DOCTYPE svg PUBLIC "-//W3C//DTD SVG 1.1//EN"
 "http://www.w3.org/Graphics/SVG/1.1/DTD/svg11.dtd">
<!-- Generated by graphviz version 2.50.0 (0)
 -->
<!-- Title: Grafo_Circuito_110_24_ Pages: 1 -->
<svg width="1347pt" height="1372pt"
 viewBox="0.00 0.00 1347.00 1372.00" xmlns="http://www.w3.org/2000/svg" xmlns:xlink="http://www.w3.org/1999/xlink">
<g id="graph0" class="graph" transform="scale(1 1) rotate(0) translate(4 1368)">
<title>Grafo_Circuito_110_24_</title>
<polygon fill="white" stroke="transparent" points="-4,4 -4,-1368 1343,-1368 1343,4 -4,4"/>
<!-- C&#45;0096 -->
<g id="node1" class="node">
<title>C&#45;0096</title>
<ellipse fill="mediumseagreen" stroke="black" cx="162" cy="-1233.5" rx="72" ry="21.5"/>
<text text-anchor="middle" x="162" y="-1231" font-family="Arial" font-size="10.00">C&#45;0096</text>
</g>
<!-- S&#45;2506 -->
<g id="node19" class="node">
<title>S&#45;2506</title>
<polygon fill="mediumseagreen" stroke="black" points="72,-1154 0,-1132.5 72,-1111 144,-1132.5 72,-1154"/>
<text text-anchor="middle" x="72" y="-1130" font-family="Arial" font-size="10.00">S&#45;2506</text>
</g>
<!-- C&#45;0096&#45;&gt;S&#45;2506 -->
<g id="edge2" class="edge">
<title>C&#45;0096&#45;&gt;S&#45;2506</title>
<path fill="none" stroke="#4d4d4d" d="M117,-1216.37C117,-1216.37 117,-1147.78 117,-1147.78"/>
<polygon fill="#4d4d4d" stroke="#4d4d4d" points="119.45,-1147.78 117,-1140.78 114.55,-1147.78 119.45,-1147.78"/>
</g>
<!-- C&#45;0195 -->
<g id="node28" class="node">
<title>C&#45;0195</title>
<ellipse fill="mediumseagreen" stroke="black" cx="252" cy="-1132.5" rx="72" ry="21.5"/>
<text text-anchor="middle" x="252" y="-1130" font-family="Arial" font-size="10.00">C&#45;0195</text>
</g>
<!-- C&#45;0096&#45;&gt;C&#45;0195 -->
<g id="edge3" class="edge">
<title>C&#45;0096&#45;&gt;C&#45;0195</title>
<path fill="none" stroke="#4d4d4d" d="M207,-1216.37C207,-1216.37 207,-1156.38 207,-1156.38"/>
<polygon fill="#4d4d4d" stroke="#4d4d4d" points="209.45,-1156.38 207,-1149.38 204.55,-1156.38 209.45,-1156.38"/>
</g>
<!-- S&#45;1690 -->
<g id="node2" class="node">
<title>S&#45;1690</title>
<polygon fill="mediumseagreen" stroke="black" points="727,-245 655,-223.5 727,-202 799,-223.5 727,-245"/>
<text text-anchor="middle" x="727" y="-221" font-family="Arial" font-size="10.00">S&#45;1690</text>
</g>
<!-- S&#45;136 -->
<g id="node3" class="node">
<title>S&#45;136</title>
<polygon fill="mediumseagreen" stroke="black" points="72,-851 0,-829.5 72,-808 144,-829.5 72,-851"/>
<text text-anchor="middle" x="72" y="-827" font-family="Arial" font-size="10.00">S&#45;136</text>
</g>
<!-- S&#45;1636 -->
<g id="node4" class="node">
<title>S&#45;1636</title>
<polygon fill="mediumseagreen" stroke="black" points="252,-952 180,-930.5 252,-909 324,-930.5 252,-952"/>
<text text-anchor="middle" x="252" y="-928" font-family="Arial" font-size="10.00">S&#45;1636</text>
</g>
<!-- S&#45;1412 -->
<g id="node5" class="node">
<title>S&#45;1412</title>
<polygon fill="mediumseagreen" stroke="black" points="907,-245 835,-223.5 907,-202 979,-223.5 907,-245"/>
<text text-anchor="middle" x="907" y="-221" font-family="Arial" font-size="10.00">S&#45;1412</text>
</g>
<!-- C&#45;0506 -->
<g id="node6" class="node">
<title>C&#45;0506</title>
<ellipse fill="mediumseagreen" stroke="black" cx="792" cy="-627.5" rx="72" ry="21.5"/>
<text text-anchor="middle" x="792" y="-625" font-family="Arial" font-size="10.00">C&#45;0506</text>
</g>
<!-- C&#45;0715 -->
<g id="node9" class="node">
<title>C&#45;0715</title>
<ellipse fill="mediumseagreen" stroke="black" cx="664" cy="-526.5" rx="72" ry="21.5"/>
<text text-anchor="middle" x="664" y="-524" font-family="Arial" font-size="10.00">C&#45;0715</text>
</g>
<!-- C&#45;0506&#45;&gt;C&#45;0715 -->
<g id="edge14" class="edge">
<title>C&#45;0506&#45;&gt;C&#45;0715</title>
<path fill="none" stroke="#4d4d4d" d="M728,-617.45C728,-617.45 728,-543.51 728,-543.51"/>
<polygon fill="#4d4d4d" stroke="#4d4d4d" points="730.45,-543.51 728,-536.51 725.55,-543.51 730.45,-543.51"/>
</g>
<!-- C&#45;0714 -->
<g id="node12" class="node">
<title>C&#45;0714</title>
<ellipse fill="tomato" stroke="black" cx="844" cy="-526.5" rx="72" ry="21.5"/>
<text text-anchor="middle" x="844" y="-524" font-family="Arial" font-size="10.00">C&#45;0714</text>
</g>
<!-- C&#45;0506&#45;&gt;C&#45;0714 -->
<g id="edge15" class="edge">
<title>C&#45;0506&#45;&gt;C&#45;0714</title>
<path fill="none" stroke="#4d4d4d" d="M818,-607.06C818,-607.06 818,-553.56 818,-553.56"/>
<polygon fill="#4d4d4d" stroke="#4d4d4d" points="820.45,-553.56 818,-546.56 815.55,-553.56 820.45,-553.56"/>
</g>
<!-- S&#45;1591 -->
<g id="node7" class="node">
<title>S&#45;1591</title>
<polygon fill="mediumseagreen" stroke="black" points="252,-851 180,-829.5 252,-808 324,-829.5 252,-851"/>
<text text-anchor="middle" x="252" y="-827" font-family="Arial" font-size="10.00">S&#45;1591</text>
</g>
<!-- C&#45;0748 -->
<g id="node8" class="node">
<title>C&#45;0748</title>
<ellipse fill="mediumseagreen" stroke="black" cx="547" cy="-122.5" rx="72" ry="21.5"/>
<text text-anchor="middle" x="547" y="-120" font-family="Arial" font-size="10.00">C&#45;0748</text>
</g>
<!-- C&#45;0745 -->
<g id="node25" class="node">
<title>C&#45;0745</title>
<ellipse fill="mediumseagreen" stroke="black" cx="547" cy="-21.5" rx="72" ry="21.5"/>
<text text-anchor="middle" x="547" y="-19" font-family="Arial" font-size="10.00">C&#45;0745</text>
</g>
<!-- C&#45;0748&#45;&gt;C&#45;0745 -->
<g id="edge21" class="edge">
<title>C&#45;0748&#45;&gt;C&#45;0745</title>
<path fill="none" stroke="#4d4d4d" d="M547,-100.58C547,-100.58 547,-50.03 547,-50.03"/>
<polygon fill="#4d4d4d" stroke="#4d4d4d" points="549.45,-50.03 547,-43.03 544.55,-50.03 549.45,-50.03"/>
</g>
<!-- C&#45;0716 -->
<g id="node16" class="node">
<title>C&#45;0716</title>
<ellipse fill="mediumseagreen" stroke="black" cx="664" cy="-425.5" rx="72" ry="21.5"/>
<text text-anchor="middle" x="664" y="-423" font-family="Arial" font-size="10.00">C&#45;0716</text>
</g>
<!-- C&#45;0715&#45;&gt;C&#45;0716 -->
<g id="edge16" class="edge">
<title>C&#45;0715&#45;&gt;C&#45;0716</title>
<path fill="none" stroke="#4d4d4d" d="M664,-504.58C664,-504.58 664,-454.03 664,-454.03"/>
<polygon fill="#4d4d4d" stroke="#4d4d4d" points="666.45,-454.03 664,-447.03 661.55,-454.03 666.45,-454.03"/>
</g>
<!-- S&#45;116 -->
<g id="node10" class="node">
<title>S&#45;116</title>
<polygon fill="mediumseagreen" stroke="black" points="72,-1053 0,-1031.5 72,-1010 144,-1031.5 72,-1053"/>
<text text-anchor="middle" x="72" y="-1029" font-family="Arial" font-size="10.00">S&#45;116</text>
</g>
<!-- S&#45;1427 -->
<g id="node11" class="node">
<title>S&#45;1427</title>
<polygon fill="mediumseagreen" stroke="black" points="252,-1053 180,-1031.5 252,-1010 324,-1031.5 252,-1053"/>
<text text-anchor="middle" x="252" y="-1029" font-family="Arial" font-size="10.00">S&#45;1427</text>
</g>
<!-- C&#45;0714&#45;&gt;C&#45;0716 -->
<g id="edge31" class="edge">
<title>C&#45;0714&#45;&gt;C&#45;0716</title>
<path fill="none" stroke="blue" stroke-dasharray="5,2" d="M790,-512.15C790,-485.71 790,-432 790,-432 790,-432 739.9,-432 739.9,-432"/>
<polygon fill="blue" stroke="blue" points="739.9,-429.55 732.9,-432 739.9,-434.45 739.9,-429.55"/>
</g>
<!-- R&#45;163 -->
<g id="node13" class="node">
<title>R&#45;163</title>
<polygon fill="mediumseagreen" stroke="black" points="619,-214.59 619,-232.41 576.82,-245 517.18,-245 475,-232.41 475,-214.59 517.18,-202 576.82,-202 619,-214.59"/>
<text text-anchor="middle" x="547" y="-221" font-family="Arial" font-size="10.00">R&#45;163</text>
</g>
<!-- R&#45;163&#45;&gt;C&#45;0748 -->
<g id="edge20" class="edge">
<title>R&#45;163&#45;&gt;C&#45;0748</title>
<path fill="none" stroke="#4d4d4d" d="M547,-201.58C547,-201.58 547,-151.03 547,-151.03"/>
<polygon fill="#4d4d4d" stroke="#4d4d4d" points="549.45,-151.03 547,-144.03 544.55,-151.03 549.45,-151.03"/>
</g>
<!-- 110&#45;24&#45; -->
<g id="node14" class="node">
<title>110&#45;24&#45;</title>
<polygon fill="gold" stroke="black" points="234,-1329.59 234,-1347.41 191.82,-1360 132.18,-1360 90,-1347.41 90,-1329.59 132.18,-1317 191.82,-1317 234,-1329.59"/>
<polygon fill="none" stroke="black" points="238,-1326.61 238,-1350.39 192.41,-1364 131.59,-1364 86,-1350.39 86,-1326.61 131.59,-1313 192.41,-1313 238,-1326.61"/>
<text text-anchor="middle" x="162" y="-1336" font-family="Arial" font-size="10.00">110&#45;24&#45;</text>
</g>
<!-- 110&#45;24&#45;&#45;&gt;C&#45;0096 -->
<g id="edge1" class="edge">
<title>110&#45;24&#45;&#45;&gt;C&#45;0096</title>
<path fill="none" stroke="#4d4d4d" d="M162,-1312.81C162,-1312.81 162,-1262.03 162,-1262.03"/>
<polygon fill="#4d4d4d" stroke="#4d4d4d" points="164.45,-1262.03 162,-1255.03 159.55,-1262.03 164.45,-1262.03"/>
</g>
<!-- C&#45;0747 -->
<g id="node15" class="node">
<title>C&#45;0747</title>
<ellipse fill="tomato" stroke="black" cx="484" cy="-324.5" rx="72" ry="21.5"/>
<text text-anchor="middle" x="484" y="-322" font-family="Arial" font-size="10.00">C&#45;0747</text>
</g>
<!-- C&#45;0747&#45;&gt;C&#45;0748 -->
<g id="edge32" class="edge">
<title>C&#45;0747&#45;&gt;C&#45;0748</title>
<path fill="none" stroke="blue" stroke-dasharray="5,2" d="M443.5,-306.53C443.5,-256.97 443.5,-122 443.5,-122 443.5,-122 467.83,-122 467.83,-122"/>
<polygon fill="blue" stroke="blue" points="467.83,-124.45 474.83,-122 467.83,-119.55 467.83,-124.45"/>
</g>
<!-- C&#45;0716&#45;&gt;C&#45;0747 -->
<g id="edge17" class="edge">
<title>C&#45;0716&#45;&gt;C&#45;0747</title>
<path fill="none" stroke="#4d4d4d" d="M591.85,-425C568.26,-425 548,-425 548,-425 548,-425 548,-341.5 548,-341.5"/>
<polygon fill="#4d4d4d" stroke="#4d4d4d" points="550.45,-341.5 548,-334.5 545.55,-341.5 550.45,-341.5"/>
</g>
<!-- C&#45;0746 -->
<g id="node18" class="node">
<title>C&#45;0746</title>
<ellipse fill="mediumseagreen" stroke="black" cx="664" cy="-324.5" rx="72" ry="21.5"/>
<text text-anchor="middle" x="664" y="-322" font-family="Arial" font-size="10.00">C&#45;0746</text>
</g>
<!-- C&#45;0716&#45;&gt;C&#45;0746 -->
<g id="edge18" class="edge">
<title>C&#45;0716&#45;&gt;C&#45;0746</title>
<path fill="none" stroke="#4d4d4d" d="M664,-403.58C664,-403.58 664,-353.03 664,-353.03"/>
<polygon fill="#4d4d4d" stroke="#4d4d4d" points="666.45,-353.03 664,-346.03 661.55,-353.03 666.45,-353.03"/>
</g>
<!-- C&#45;0187 -->
<g id="node27" class="node">
<title>C&#45;0187</title>
<ellipse fill="mediumseagreen" stroke="black" cx="907" cy="-324.5" rx="72" ry="21.5"/>
<text text-anchor="middle" x="907" y="-322" font-family="Arial" font-size="10.00">C&#45;0187</text>
</g>
<!-- C&#45;0716&#45;&gt;C&#45;0187 -->
<g id="edge22" class="edge">
<title>C&#45;0716&#45;&gt;C&#45;0187</title>
<path fill="none" stroke="#4d4d4d" d="M731.5,-418C793.4,-418 875.5,-418 875.5,-418 875.5,-418 875.5,-350.87 875.5,-350.87"/>
<polygon fill="#4d4d4d" stroke="#4d4d4d" points="877.95,-350.87 875.5,-343.87 873.05,-350.87 877.95,-350.87"/>
</g>
<!-- C&#45;0135 -->
<g id="node17" class="node">
<title>C&#45;0135</title>
<ellipse fill="mediumseagreen" stroke="black" cx="432" cy="-930.5" rx="72" ry="21.5"/>
<text text-anchor="middle" x="432" y="-928" font-family="Arial" font-size="10.00">C&#45;0135</text>
</g>
<!-- C&#45;0135&#45;&gt;S&#45;136 -->
<g id="edge8" class="edge">
<title>C&#45;0135&#45;&gt;S&#45;136</title>
<path fill="none" stroke="#4d4d4d" d="M396,-911.69C396,-900.71 396,-889 396,-889 396,-889 72,-889 72,-889 72,-889 72,-858.32 72,-858.32"/>
<polygon fill="#4d4d4d" stroke="#4d4d4d" points="74.45,-858.32 72,-851.32 69.55,-858.32 74.45,-858.32"/>
</g>
<!-- C&#45;0135&#45;&gt;S&#45;1591 -->
<g id="edge27" class="edge">
<title>C&#45;0135&#45;&gt;S&#45;1591</title>
<path fill="none" stroke="#4d4d4d" d="M364.2,-923C354.64,-923 348,-923 348,-923 348,-923 348,-829 348,-829 348,-829 329.53,-829 329.53,-829"/>
<polygon fill="#4d4d4d" stroke="#4d4d4d" points="329.53,-826.55 322.53,-829 329.53,-831.45 329.53,-826.55"/>
</g>
<!-- C&#45;0504 -->
<g id="node20" class="node">
<title>C&#45;0504</title>
<ellipse fill="tomato" stroke="black" cx="432" cy="-829.5" rx="72" ry="21.5"/>
<text text-anchor="middle" x="432" y="-827" font-family="Arial" font-size="10.00">C&#45;0504</text>
</g>
<!-- C&#45;0135&#45;&gt;C&#45;0504 -->
<g id="edge11" class="edge">
<title>C&#45;0135&#45;&gt;C&#45;0504</title>
<path fill="none" stroke="#4d4d4d" d="M432,-908.58C432,-908.58 432,-858.03 432,-858.03"/>
<polygon fill="#4d4d4d" stroke="#4d4d4d" points="434.45,-858.03 432,-851.03 429.55,-858.03 434.45,-858.03"/>
</g>
<!-- S&#45;1582 -->
<g id="node22" class="node">
<title>S&#45;1582</title>
<polygon fill="mediumseagreen" stroke="black" points="612,-851 540,-829.5 612,-808 684,-829.5 612,-851"/>
<text text-anchor="middle" x="612" y="-827" font-family="Arial" font-size="10.00">S&#45;1582</text>
</g>
<!-- C&#45;0135&#45;&gt;S&#45;1582 -->
<g id="edge9" class="edge">
<title>C&#45;0135&#45;&gt;S&#45;1582</title>
<path fill="none" stroke="#4d4d4d" d="M504.22,-930C514.68,-930 522,-930 522,-930 522,-930 522,-829 522,-829 522,-829 534.53,-829 534.53,-829"/>
<polygon fill="#4d4d4d" stroke="#4d4d4d" points="534.53,-831.45 541.53,-829 534.53,-826.55 534.53,-831.45"/>
</g>
<!-- C&#45;0505 -->
<g id="node24" class="node">
<title>C&#45;0505</title>
<ellipse fill="mediumseagreen" stroke="black" cx="792" cy="-829.5" rx="72" ry="21.5"/>
<text text-anchor="middle" x="792" y="-827" font-family="Arial" font-size="10.00">C&#45;0505</text>
</g>
<!-- C&#45;0135&#45;&gt;C&#45;0505 -->
<g id="edge10" class="edge">
<title>C&#45;0135&#45;&gt;C&#45;0505</title>
<path fill="none" stroke="#4d4d4d" d="M468,-911.69C468,-893.93 468,-870 468,-870 468,-870 792,-870 792,-870 792,-870 792,-858.17 792,-858.17"/>
<polygon fill="#4d4d4d" stroke="#4d4d4d" points="794.45,-858.17 792,-851.17 789.55,-858.17 794.45,-858.17"/>
</g>
<!-- C&#45;0746&#45;&gt;R&#45;163 -->
<g id="edge19" class="edge">
<title>C&#45;0746&#45;&gt;R&#45;163</title>
<path fill="none" stroke="#4d4d4d" d="M605.5,-311.71C605.5,-311.71 605.5,-243.51 605.5,-243.51"/>
<polygon fill="#4d4d4d" stroke="#4d4d4d" points="607.95,-243.51 605.5,-236.51 603.05,-243.51 607.95,-243.51"/>
</g>
<!-- C&#45;0504&#45;&gt;C&#45;0715 -->
<g id="edge30" class="edge">
<title>C&#45;0504&#45;&gt;C&#45;0715</title>
<path fill="none" stroke="blue" stroke-dasharray="5,2" d="M458,-809.12C458,-741.07 458,-526 458,-526 458,-526 584.95,-526 584.95,-526"/>
<polygon fill="blue" stroke="blue" points="584.95,-528.45 591.95,-526 584.95,-523.55 584.95,-528.45"/>
</g>
<!-- C&#45;0428 -->
<g id="node21" class="node">
<title>C&#45;0428</title>
<ellipse fill="mediumseagreen" stroke="black" cx="1087" cy="-223.5" rx="72" ry="21.5"/>
<text text-anchor="middle" x="1087" y="-221" font-family="Arial" font-size="10.00">C&#45;0428</text>
</g>
<!-- S&#45;1283 -->
<g id="node23" class="node">
<title>S&#45;1283</title>
<polygon fill="mediumseagreen" stroke="black" points="1267,-245 1195,-223.5 1267,-202 1339,-223.5 1267,-245"/>
<text text-anchor="middle" x="1267" y="-221" font-family="Arial" font-size="10.00">S&#45;1283</text>
</g>
<!-- R&#45;030 -->
<g id="node29" class="node">
<title>R&#45;030</title>
<polygon fill="mediumseagreen" stroke="black" points="864,-719.59 864,-737.41 821.82,-750 762.18,-750 720,-737.41 720,-719.59 762.18,-707 821.82,-707 864,-719.59"/>
<text text-anchor="middle" x="792" y="-726" font-family="Arial" font-size="10.00">R&#45;030</text>
</g>
<!-- C&#45;0505&#45;&gt;R&#45;030 -->
<g id="edge12" class="edge">
<title>C&#45;0505&#45;&gt;R&#45;030</title>
<path fill="none" stroke="#4d4d4d" d="M792,-807.58C792,-807.58 792,-757.03 792,-757.03"/>
<polygon fill="#4d4d4d" stroke="#4d4d4d" points="794.45,-757.03 792,-750.03 789.55,-757.03 794.45,-757.03"/>
</g>
<!-- C&#45;0134 -->
<g id="node26" class="node">
<title>C&#45;0134</title>
<ellipse fill="mediumseagreen" stroke="black" cx="432" cy="-1031.5" rx="72" ry="21.5"/>
<text text-anchor="middle" x="432" y="-1029" font-family="Arial" font-size="10.00">C&#45;0134</text>
</g>
<!-- C&#45;0134&#45;&gt;S&#45;1636 -->
<g id="edge6" class="edge">
<title>C&#45;0134&#45;&gt;S&#45;1636</title>
<path fill="none" stroke="#4d4d4d" d="M359.73,-1031C346.09,-1031 336,-1031 336,-1031 336,-1031 336,-937 336,-937 336,-937 309.32,-937 309.32,-937"/>
<polygon fill="#4d4d4d" stroke="#4d4d4d" points="309.32,-934.55 302.32,-937 309.32,-939.45 309.32,-934.55"/>
</g>
<!-- C&#45;0134&#45;&gt;C&#45;0135 -->
<g id="edge7" class="edge">
<title>C&#45;0134&#45;&gt;C&#45;0135</title>
<path fill="none" stroke="#4d4d4d" d="M432,-1009.58C432,-1009.58 432,-959.03 432,-959.03"/>
<polygon fill="#4d4d4d" stroke="#4d4d4d" points="434.45,-959.03 432,-952.03 429.55,-959.03 434.45,-959.03"/>
</g>
<!-- C&#45;0778 -->
<g id="node30" class="node">
<title>C&#45;0778</title>
<ellipse fill="mediumseagreen" stroke="black" cx="612" cy="-930.5" rx="72" ry="21.5"/>
<text text-anchor="middle" x="612" y="-928" font-family="Arial" font-size="10.00">C&#45;0778</text>
</g>
<!-- C&#45;0134&#45;&gt;C&#45;0778 -->
<g id="edge28" class="edge">
<title>C&#45;0134&#45;&gt;C&#45;0778</title>
<path fill="none" stroke="#4d4d4d" d="M504.18,-1031C554.25,-1031 612,-1031 612,-1031 612,-1031 612,-959.31 612,-959.31"/>
<polygon fill="#4d4d4d" stroke="#4d4d4d" points="614.45,-959.31 612,-952.31 609.55,-959.31 614.45,-959.31"/>
</g>
<!-- C&#45;0187&#45;&gt;S&#45;1690 -->
<g id="edge26" class="edge">
<title>C&#45;0187&#45;&gt;S&#45;1690</title>
<path fill="none" stroke="#4d4d4d" d="M834.8,-324C806.65,-324 781,-324 781,-324 781,-324 781,-235.9 781,-235.9"/>
<polygon fill="#4d4d4d" stroke="#4d4d4d" points="783.45,-235.9 781,-228.9 778.55,-235.9 783.45,-235.9"/>
</g>
<!-- C&#45;0187&#45;&gt;S&#45;1412 -->
<g id="edge24" class="edge">
<title>C&#45;0187&#45;&gt;S&#45;1412</title>
<path fill="none" stroke="#4d4d4d" d="M907,-302.58C907,-302.58 907,-252.03 907,-252.03"/>
<polygon fill="#4d4d4d" stroke="#4d4d4d" points="909.45,-252.03 907,-245.03 904.55,-252.03 909.45,-252.03"/>
</g>
<!-- C&#45;0187&#45;&gt;C&#45;0428 -->
<g id="edge23" class="edge">
<title>C&#45;0187&#45;&gt;C&#45;0428</title>
<path fill="none" stroke="#4d4d4d" d="M974.54,-317C1025.61,-317 1087,-317 1087,-317 1087,-317 1087,-252.19 1087,-252.19"/>
<polygon fill="#4d4d4d" stroke="#4d4d4d" points="1089.45,-252.19 1087,-245.19 1084.55,-252.19 1089.45,-252.19"/>
</g>
<!-- C&#45;0187&#45;&gt;S&#45;1283 -->
<g id="edge25" class="edge">
<title>C&#45;0187&#45;&gt;S&#45;1283</title>
<path fill="none" stroke="#4d4d4d" d="M975.99,-331C1080.52,-331 1267,-331 1267,-331 1267,-331 1267,-252.25 1267,-252.25"/>
<polygon fill="#4d4d4d" stroke="#4d4d4d" points="1269.45,-252.25 1267,-245.25 1264.55,-252.25 1269.45,-252.25"/>
</g>
<!-- C&#45;0195&#45;&gt;S&#45;116 -->
<g id="edge29" class="edge">
<title>C&#45;0195&#45;&gt;S&#45;116</title>
<path fill="none" stroke="#4d4d4d" d="M179.78,-1132C169.32,-1132 162,-1132 162,-1132 162,-1132 162,-1031 162,-1031 162,-1031 149.47,-1031 149.47,-1031"/>
<polygon fill="#4d4d4d" stroke="#4d4d4d" points="149.47,-1028.55 142.47,-1031 149.47,-1033.45 149.47,-1028.55"/>
</g>
<!-- C&#45;0195&#45;&gt;S&#45;1427 -->
<g id="edge4" class="edge">
<title>C&#45;0195&#45;&gt;S&#45;1427</title>
<path fill="none" stroke="#4d4d4d" d="M252,-1110.58C252,-1110.58 252,-1060.03 252,-1060.03"/>
<polygon fill="#4d4d4d" stroke="#4d4d4d" points="254.45,-1060.03 252,-1053.03 249.55,-1060.03 254.45,-1060.03"/>
</g>
<!-- C&#45;0195&#45;&gt;C&#45;0134 -->
<g id="edge5" class="edge">
<title>C&#45;0195&#45;&gt;C&#45;0134</title>
<path fill="none" stroke="#4d4d4d" d="M324.18,-1132C374.25,-1132 432,-1132 432,-1132 432,-1132 432,-1060.31 432,-1060.31"/>
<polygon fill="#4d4d4d" stroke="#4d4d4d" points="434.45,-1060.31 432,-1053.31 429.55,-1060.31 434.45,-1060.31"/>
</g>
<!-- R&#45;030&#45;&gt;C&#45;0506 -->
<g id="edge13" class="edge">
<title>R&#45;030&#45;&gt;C&#45;0506</title>
<path fill="none" stroke="#4d4d4d" d="M792,-706.58C792,-706.58 792,-656.03 792,-656.03"/>
<polygon fill="#4d4d4d" stroke="#4d4d4d" points="794.45,-656.03 792,-649.03 789.55,-656.03 794.45,-656.03"/>
</g>
</g>
</svg>
