<?xml version="1.0" encoding="UTF-8" standalone="no"?>
<!DOCTYPE svg PUBLIC "-//W3C//DTD SVG 1.1//EN"
 "http://www.w3.org/Graphics/SVG/1.1/DTD/svg11.dtd">
<!-- Generated by graphviz version 2.50.0 (0)
 -->
<!-- Title: Grafo_Circuito_316_22 Pages: 1 -->
<svg width="2642pt" height="1180pt"
 viewBox="0.00 0.00 2642.00 1180.00" xmlns="http://www.w3.org/2000/svg" xmlns:xlink="http://www.w3.org/1999/xlink">
<g id="graph0" class="graph" transform="scale(1 1) rotate(0) translate(4 1176)">
<title>Grafo_Circuito_316_22</title>
<polygon fill="white" stroke="transparent" points="-4,4 -4,-1176 2638,-1176 2638,4 -4,4"/>
<!-- C&#45;1029 -->
<g id="node1" class="node">
<title>C&#45;1029</title>
<ellipse fill="mediumseagreen" stroke="black" cx="1700.5" cy="-488" rx="68.5" ry="18"/>
<text text-anchor="middle" x="1700.5" y="-486.1" font-family="Helvetica,sans-Serif" font-size="8.00">C&#45;1029</text>
</g>
<!-- C&#45;0259 -->
<g id="node3" class="node">
<title>C&#45;0259</title>
<ellipse fill="mediumseagreen" stroke="black" cx="1959.5" cy="-394" rx="68.5" ry="18"/>
<text text-anchor="middle" x="1959.5" y="-392.1" font-family="Helvetica,sans-Serif" font-size="8.00">C&#45;0259</text>
</g>
<!-- C&#45;1029&#45;&gt;C&#45;0259 -->
<g id="edge29" class="edge">
<title>C&#45;1029&#45;&gt;C&#45;0259</title>
<path fill="none" stroke="dimgray" stroke-width="0.8" d="M1769.23,-488C1845.96,-488 1959.5,-488 1959.5,-488 1959.5,-488 1959.5,-419.12 1959.5,-419.12"/>
<polygon fill="dimgray" stroke="dimgray" stroke-width="0.8" points="1961.95,-419.12 1959.5,-412.12 1957.05,-419.12 1961.95,-419.12"/>
</g>
<!-- S&#45;2054 -->
<g id="node16" class="node">
<title>S&#45;2054</title>
<polygon fill="mediumseagreen" stroke="black" points="1527.5,-412 1459,-394 1527.5,-376 1596,-394 1527.5,-412"/>
<text text-anchor="middle" x="1527.5" y="-392.1" font-family="Helvetica,sans-Serif" font-size="8.00">S&#45;2054</text>
</g>
<!-- C&#45;1029&#45;&gt;S&#45;2054 -->
<g id="edge28" class="edge">
<title>C&#45;1029&#45;&gt;S&#45;2054</title>
<path fill="none" stroke="dimgray" stroke-width="0.8" d="M1635.51,-482C1594.92,-482 1550.33,-482 1550.33,-482 1550.33,-482 1550.33,-413.24 1550.33,-413.24"/>
<polygon fill="dimgray" stroke="dimgray" stroke-width="0.8" points="1552.78,-413.24 1550.33,-406.24 1547.88,-413.24 1552.78,-413.24"/>
</g>
<!-- C&#45;0256 -->
<g id="node20" class="node">
<title>C&#45;0256</title>
<ellipse fill="mediumseagreen" stroke="black" cx="1700.5" cy="-394" rx="68.5" ry="18"/>
<text text-anchor="middle" x="1700.5" y="-392.1" font-family="Helvetica,sans-Serif" font-size="8.00">C&#45;0256</text>
</g>
<!-- C&#45;1029&#45;&gt;C&#45;0256 -->
<g id="edge38" class="edge">
<title>C&#45;1029&#45;&gt;C&#45;0256</title>
<path fill="none" stroke="dimgray" stroke-width="0.8" d="M1700.5,-469.88C1700.5,-469.88 1700.5,-419.07 1700.5,-419.07"/>
<polygon fill="dimgray" stroke="dimgray" stroke-width="0.8" points="1702.95,-419.07 1700.5,-412.07 1698.05,-419.07 1702.95,-419.07"/>
</g>
<!-- C&#45;0257 -->
<g id="node2" class="node">
<title>C&#45;0257</title>
<ellipse fill="mediumseagreen" stroke="black" cx="1613.5" cy="-300" rx="68.5" ry="18"/>
<text text-anchor="middle" x="1613.5" y="-298.1" font-family="Helvetica,sans-Serif" font-size="8.00">C&#45;0257</text>
</g>
<!-- C&#45;0274 -->
<g id="node31" class="node">
<title>C&#45;0274</title>
<ellipse fill="mediumseagreen" stroke="black" cx="1527.5" cy="-206" rx="68.5" ry="18"/>
<text text-anchor="middle" x="1527.5" y="-204.1" font-family="Helvetica,sans-Serif" font-size="8.00">C&#45;0274</text>
</g>
<!-- C&#45;0257&#45;&gt;C&#45;0274 -->
<g id="edge41" class="edge">
<title>C&#45;0257&#45;&gt;C&#45;0274</title>
<path fill="none" stroke="dimgray" stroke-width="0.8" d="M1570.5,-285.72C1570.5,-285.72 1570.5,-227.1 1570.5,-227.1"/>
<polygon fill="dimgray" stroke="dimgray" stroke-width="0.8" points="1572.95,-227.1 1570.5,-220.1 1568.05,-227.1 1572.95,-227.1"/>
</g>
<!-- S&#45;1184 -->
<g id="node38" class="node">
<title>S&#45;1184</title>
<polygon fill="mediumseagreen" stroke="black" points="1700.5,-224 1632,-206 1700.5,-188 1769,-206 1700.5,-224"/>
<text text-anchor="middle" x="1700.5" y="-204.1" font-family="Helvetica,sans-Serif" font-size="8.00">S&#45;1184</text>
</g>
<!-- C&#45;0257&#45;&gt;S&#45;1184 -->
<g id="edge40" class="edge">
<title>C&#45;0257&#45;&gt;S&#45;1184</title>
<path fill="none" stroke="dimgray" stroke-width="0.8" d="M1657,-285.72C1657,-285.72 1657,-219.83 1657,-219.83"/>
<polygon fill="dimgray" stroke="dimgray" stroke-width="0.8" points="1659.45,-219.83 1657,-212.83 1654.55,-219.83 1659.45,-219.83"/>
</g>
<!-- S&#45;647 -->
<g id="node12" class="node">
<title>S&#45;647</title>
<polygon fill="mediumseagreen" stroke="black" points="2132.5,-318 2064,-300 2132.5,-282 2201,-300 2132.5,-318"/>
<text text-anchor="middle" x="2132.5" y="-298.1" font-family="Helvetica,sans-Serif" font-size="8.00">S&#45;647</text>
</g>
<!-- C&#45;0259&#45;&gt;S&#45;647 -->
<g id="edge37" class="edge">
<title>C&#45;0259&#45;&gt;S&#45;647</title>
<path fill="none" stroke="dimgray" stroke-width="0.8" d="M2024.41,-388C2073.5,-388 2132.5,-388 2132.5,-388 2132.5,-388 2132.5,-325.23 2132.5,-325.23"/>
<polygon fill="dimgray" stroke="dimgray" stroke-width="0.8" points="2134.95,-325.23 2132.5,-318.23 2130.05,-325.23 2134.95,-325.23"/>
</g>
<!-- C&#45;0262 -->
<g id="node33" class="node">
<title>C&#45;0262</title>
<ellipse fill="mediumseagreen" stroke="black" cx="2305.5" cy="-300" rx="68.5" ry="18"/>
<text text-anchor="middle" x="2305.5" y="-298.1" font-family="Helvetica,sans-Serif" font-size="8.00">C&#45;0262</text>
</g>
<!-- C&#45;0259&#45;&gt;C&#45;0262 -->
<g id="edge31" class="edge">
<title>C&#45;0259&#45;&gt;C&#45;0262</title>
<path fill="none" stroke="dimgray" stroke-width="0.8" d="M2024.17,-400C2124.32,-400 2305.5,-400 2305.5,-400 2305.5,-400 2305.5,-325.34 2305.5,-325.34"/>
<polygon fill="dimgray" stroke="dimgray" stroke-width="0.8" points="2307.95,-325.34 2305.5,-318.34 2303.05,-325.34 2307.95,-325.34"/>
</g>
<!-- S&#45;1166 -->
<g id="node34" class="node">
<title>S&#45;1166</title>
<polygon fill="mediumseagreen" stroke="black" points="1786.5,-318 1718,-300 1786.5,-282 1855,-300 1786.5,-318"/>
<text text-anchor="middle" x="1786.5" y="-298.1" font-family="Helvetica,sans-Serif" font-size="8.00">S&#45;1166</text>
</g>
<!-- C&#45;0259&#45;&gt;S&#45;1166 -->
<g id="edge36" class="edge">
<title>C&#45;0259&#45;&gt;S&#45;1166</title>
<path fill="none" stroke="dimgray" stroke-width="0.8" d="M1890.93,-394C1852.41,-394 1812,-394 1812,-394 1812,-394 1812,-318.53 1812,-318.53"/>
<polygon fill="dimgray" stroke="dimgray" stroke-width="0.8" points="1814.45,-318.53 1812,-311.53 1809.55,-318.53 1814.45,-318.53"/>
</g>
<!-- S&#45;1343 -->
<g id="node39" class="node">
<title>S&#45;1343</title>
<polygon fill="mediumseagreen" stroke="black" points="1959.5,-318 1891,-300 1959.5,-282 2028,-300 1959.5,-318"/>
<text text-anchor="middle" x="1959.5" y="-298.1" font-family="Helvetica,sans-Serif" font-size="8.00">S&#45;1343</text>
</g>
<!-- C&#45;0259&#45;&gt;S&#45;1343 -->
<g id="edge30" class="edge">
<title>C&#45;0259&#45;&gt;S&#45;1343</title>
<path fill="none" stroke="dimgray" stroke-width="0.8" d="M1959.5,-375.88C1959.5,-375.88 1959.5,-325.07 1959.5,-325.07"/>
<polygon fill="dimgray" stroke="dimgray" stroke-width="0.8" points="1961.95,-325.07 1959.5,-318.07 1957.05,-325.07 1961.95,-325.07"/>
</g>
<!-- S&#45;2015 -->
<g id="node4" class="node">
<title>S&#45;2015</title>
<polygon fill="mediumseagreen" stroke="black" points="1354.5,-130 1286,-112 1354.5,-94 1423,-112 1354.5,-130"/>
<text text-anchor="middle" x="1354.5" y="-110.1" font-family="Helvetica,sans-Serif" font-size="8.00">S&#45;2015</text>
</g>
<!-- S&#45;1866 -->
<g id="node5" class="node">
<title>S&#45;1866</title>
<polygon fill="mediumseagreen" stroke="black" points="68.5,-694 0,-676 68.5,-658 137,-676 68.5,-694"/>
<text text-anchor="middle" x="68.5" y="-674.1" font-family="Helvetica,sans-Serif" font-size="8.00">S&#45;1866</text>
</g>
<!-- C&#45;0233 -->
<g id="node6" class="node">
<title>C&#45;0233</title>
<ellipse fill="tomato" stroke="black" cx="2046.5" cy="-206" rx="68.5" ry="18"/>
<text text-anchor="middle" x="2046.5" y="-204.1" font-family="Helvetica,sans-Serif" font-size="8.00">C&#45;0233</text>
</g>
<!-- C&#45;0234 -->
<g id="node40" class="node">
<title>C&#45;0234</title>
<ellipse fill="mediumseagreen" stroke="black" cx="1700.5" cy="-112" rx="68.5" ry="18"/>
<text text-anchor="middle" x="1700.5" y="-110.1" font-family="Helvetica,sans-Serif" font-size="8.00">C&#45;0234</text>
</g>
<!-- C&#45;0233&#45;&gt;C&#45;0234 -->
<g id="edge53" class="edge">
<title>C&#45;0233&#45;&gt;C&#45;0234</title>
<path fill="none" stroke="blue" stroke-width="0.8" stroke-dasharray="5,2" d="M2046.5,-187.77C2046.5,-161.99 2046.5,-118 2046.5,-118 2046.5,-118 1772.17,-118 1772.17,-118"/>
<polygon fill="blue" stroke="blue" stroke-width="0.8" points="1772.17,-115.55 1765.17,-118 1772.17,-120.45 1772.17,-115.55"/>
</g>
<!-- C&#45;0322 -->
<g id="node7" class="node">
<title>C&#45;0322</title>
<ellipse fill="mediumseagreen" stroke="black" cx="1527.5" cy="-958" rx="68.5" ry="18"/>
<text text-anchor="middle" x="1527.5" y="-956.1" font-family="Helvetica,sans-Serif" font-size="8.00">C&#45;0322</text>
</g>
<!-- C&#45;0324 -->
<g id="node24" class="node">
<title>C&#45;0324</title>
<ellipse fill="mediumseagreen" stroke="black" cx="1527.5" cy="-864" rx="68.5" ry="18"/>
<text text-anchor="middle" x="1527.5" y="-862.1" font-family="Helvetica,sans-Serif" font-size="8.00">C&#45;0324</text>
</g>
<!-- C&#45;0322&#45;&gt;C&#45;0324 -->
<g id="edge3" class="edge">
<title>C&#45;0322&#45;&gt;C&#45;0324</title>
<path fill="none" stroke="dimgray" stroke-width="0.8" d="M1527.5,-939.88C1527.5,-939.88 1527.5,-889.07 1527.5,-889.07"/>
<polygon fill="dimgray" stroke="dimgray" stroke-width="0.8" points="1529.95,-889.07 1527.5,-882.07 1525.05,-889.07 1529.95,-889.07"/>
</g>
<!-- S&#45;2427 -->
<g id="node8" class="node">
<title>S&#45;2427</title>
<polygon fill="mediumseagreen" stroke="black" points="699.5,-600 631,-582 699.5,-564 768,-582 699.5,-600"/>
<text text-anchor="middle" x="699.5" y="-580.1" font-family="Helvetica,sans-Serif" font-size="8.00">S&#45;2427</text>
</g>
<!-- C&#45;0254 -->
<g id="node9" class="node">
<title>C&#45;0254</title>
<ellipse fill="mediumseagreen" stroke="black" cx="872.5" cy="-300" rx="68.5" ry="18"/>
<text text-anchor="middle" x="872.5" y="-298.1" font-family="Helvetica,sans-Serif" font-size="8.00">C&#45;0254</text>
</g>
<!-- S&#45;630 -->
<g id="node18" class="node">
<title>S&#45;630</title>
<polygon fill="mediumseagreen" stroke="black" points="785.5,-224 717,-206 785.5,-188 854,-206 785.5,-224"/>
<text text-anchor="middle" x="785.5" y="-204.1" font-family="Helvetica,sans-Serif" font-size="8.00">S&#45;630</text>
</g>
<!-- C&#45;0254&#45;&gt;S&#45;630 -->
<g id="edge15" class="edge">
<title>C&#45;0254&#45;&gt;S&#45;630</title>
<path fill="none" stroke="dimgray" stroke-width="0.8" d="M829,-285.72C829,-285.72 829,-219.83 829,-219.83"/>
<polygon fill="dimgray" stroke="dimgray" stroke-width="0.8" points="831.45,-219.83 829,-212.83 826.55,-219.83 831.45,-219.83"/>
</g>
<!-- C&#45;0255 -->
<g id="node37" class="node">
<title>C&#45;0255</title>
<ellipse fill="tomato" stroke="black" cx="958.5" cy="-206" rx="68.5" ry="18"/>
<text text-anchor="middle" x="958.5" y="-204.1" font-family="Helvetica,sans-Serif" font-size="8.00">C&#45;0255</text>
</g>
<!-- C&#45;0254&#45;&gt;C&#45;0255 -->
<g id="edge16" class="edge">
<title>C&#45;0254&#45;&gt;C&#45;0255</title>
<path fill="none" stroke="dimgray" stroke-width="0.8" d="M915.5,-285.72C915.5,-285.72 915.5,-227.1 915.5,-227.1"/>
<polygon fill="dimgray" stroke="dimgray" stroke-width="0.8" points="917.95,-227.1 915.5,-220.1 913.05,-227.1 917.95,-227.1"/>
</g>
<!-- S&#45;2233 -->
<g id="node10" class="node">
<title>S&#45;2233</title>
<polygon fill="mediumseagreen" stroke="black" points="2219.5,-224 2151,-206 2219.5,-188 2288,-206 2219.5,-224"/>
<text text-anchor="middle" x="2219.5" y="-204.1" font-family="Helvetica,sans-Serif" font-size="8.00">S&#45;2233</text>
</g>
<!-- C&#45;1028 -->
<g id="node11" class="node">
<title>C&#45;1028</title>
<ellipse fill="mediumseagreen" stroke="black" cx="1700.5" cy="-676" rx="68.5" ry="18"/>
<text text-anchor="middle" x="1700.5" y="-674.1" font-family="Helvetica,sans-Serif" font-size="8.00">C&#45;1028</text>
</g>
<!-- R&#45;045 -->
<g id="node23" class="node">
<title>R&#45;045</title>
<polygon fill="mediumseagreen" stroke="black" points="1769,-574.54 1769,-589.46 1728.87,-600 1672.13,-600 1632,-589.46 1632,-574.54 1672.13,-564 1728.87,-564 1769,-574.54"/>
<text text-anchor="middle" x="1700.5" y="-580.1" font-family="Helvetica,sans-Serif" font-size="8.00">R&#45;045</text>
</g>
<!-- C&#45;1028&#45;&gt;R&#45;045 -->
<g id="edge26" class="edge">
<title>C&#45;1028&#45;&gt;R&#45;045</title>
<path fill="none" stroke="dimgray" stroke-width="0.8" d="M1700.5,-657.88C1700.5,-657.88 1700.5,-607.07 1700.5,-607.07"/>
<polygon fill="dimgray" stroke="dimgray" stroke-width="0.8" points="1702.95,-607.07 1700.5,-600.07 1698.05,-607.07 1702.95,-607.07"/>
</g>
<!-- R&#45;122 -->
<g id="node13" class="node">
<title>R&#45;122</title>
<polygon fill="mediumseagreen" stroke="black" points="941,-480.54 941,-495.46 900.87,-506 844.13,-506 804,-495.46 804,-480.54 844.13,-470 900.87,-470 941,-480.54"/>
<text text-anchor="middle" x="872.5" y="-486.1" font-family="Helvetica,sans-Serif" font-size="8.00">R&#45;122</text>
</g>
<!-- C&#45;0567 -->
<g id="node35" class="node">
<title>C&#45;0567</title>
<ellipse fill="mediumseagreen" stroke="black" cx="872.5" cy="-394" rx="68.5" ry="18"/>
<text text-anchor="middle" x="872.5" y="-392.1" font-family="Helvetica,sans-Serif" font-size="8.00">C&#45;0567</text>
</g>
<!-- R&#45;122&#45;&gt;C&#45;0567 -->
<g id="edge13" class="edge">
<title>R&#45;122&#45;&gt;C&#45;0567</title>
<path fill="none" stroke="dimgray" stroke-width="0.8" d="M872.5,-469.88C872.5,-469.88 872.5,-419.07 872.5,-419.07"/>
<polygon fill="dimgray" stroke="dimgray" stroke-width="0.8" points="874.95,-419.07 872.5,-412.07 870.05,-419.07 874.95,-419.07"/>
</g>
<!-- C&#45;1089 -->
<g id="node14" class="node">
<title>C&#45;1089</title>
<ellipse fill="mediumseagreen" stroke="black" cx="316.5" cy="-676" rx="68.5" ry="18"/>
<text text-anchor="middle" x="316.5" y="-674.1" font-family="Helvetica,sans-Serif" font-size="8.00">C&#45;1089</text>
</g>
<!-- R&#45;267 -->
<g id="node25" class="node">
<title>R&#45;267</title>
<polygon fill="tomato" stroke="black" points="347,-574.54 347,-589.46 306.87,-600 250.13,-600 210,-589.46 210,-574.54 250.13,-564 306.87,-564 347,-574.54"/>
<text text-anchor="middle" x="278.5" y="-580.1" font-family="Helvetica,sans-Serif" font-size="8.00">R&#45;267</text>
</g>
<!-- C&#45;1089&#45;&gt;R&#45;267 -->
<g id="edge20" class="edge">
<title>C&#45;1089&#45;&gt;R&#45;267</title>
<path fill="none" stroke="dimgray" stroke-width="0.8" d="M297.5,-658.32C297.5,-658.32 297.5,-607.24 297.5,-607.24"/>
<polygon fill="dimgray" stroke="dimgray" stroke-width="0.8" points="299.95,-607.24 297.5,-600.24 295.05,-607.24 299.95,-607.24"/>
</g>
<!-- S&#45;628 -->
<g id="node15" class="node">
<title>S&#45;628</title>
<polygon fill="mediumseagreen" stroke="black" points="489.5,-694 421,-676 489.5,-658 558,-676 489.5,-694"/>
<text text-anchor="middle" x="489.5" y="-674.1" font-family="Helvetica,sans-Serif" font-size="8.00">S&#45;628</text>
</g>
<!-- S&#45;782 -->
<g id="node17" class="node">
<title>S&#45;782</title>
<polygon fill="mediumseagreen" stroke="black" points="1527.5,-788 1459,-770 1527.5,-752 1596,-770 1527.5,-788"/>
<text text-anchor="middle" x="1527.5" y="-768.1" font-family="Helvetica,sans-Serif" font-size="8.00">S&#45;782</text>
</g>
<!-- S&#45;782&#45;&gt;C&#45;1028 -->
<g id="edge25" class="edge">
<title>S&#45;782&#45;&gt;C&#45;1028</title>
<path fill="none" stroke="dimgray" stroke-width="0.8" d="M1596.36,-770C1607.78,-770 1616,-770 1616,-770 1616,-770 1616,-676 1616,-676 1616,-676 1624.89,-676 1624.89,-676"/>
<polygon fill="dimgray" stroke="dimgray" stroke-width="0.8" points="1624.89,-678.45 1631.89,-676 1624.89,-673.55 1624.89,-678.45"/>
</g>
<!-- C&#45;1027 -->
<g id="node28" class="node">
<title>C&#45;1027</title>
<ellipse fill="tomato" stroke="black" cx="1527.5" cy="-676" rx="68.5" ry="18"/>
<text text-anchor="middle" x="1527.5" y="-674.1" font-family="Helvetica,sans-Serif" font-size="8.00">C&#45;1027</text>
</g>
<!-- S&#45;782&#45;&gt;C&#45;1027 -->
<g id="edge24" class="edge">
<title>S&#45;782&#45;&gt;C&#45;1027</title>
<path fill="none" stroke="dimgray" stroke-width="0.8" d="M1527.5,-751.88C1527.5,-751.88 1527.5,-701.07 1527.5,-701.07"/>
<polygon fill="dimgray" stroke="dimgray" stroke-width="0.8" points="1529.95,-701.07 1527.5,-694.07 1525.05,-701.07 1529.95,-701.07"/>
</g>
<!-- S&#45;629 -->
<g id="node19" class="node">
<title>S&#45;629</title>
<polygon fill="mediumseagreen" stroke="black" points="662.5,-694 594,-676 662.5,-658 731,-676 662.5,-694"/>
<text text-anchor="middle" x="662.5" y="-674.1" font-family="Helvetica,sans-Serif" font-size="8.00">S&#45;629</text>
</g>
<!-- S&#45;629&#45;&gt;S&#45;2427 -->
<g id="edge9" class="edge">
<title>S&#45;629&#45;&gt;S&#45;2427</title>
<path fill="none" stroke="dimgray" stroke-width="0.8" d="M664.33,-658.32C664.33,-658.32 664.33,-598.06 664.33,-598.06"/>
<polygon fill="dimgray" stroke="dimgray" stroke-width="0.8" points="666.78,-598.06 664.33,-591.06 661.88,-598.06 666.78,-598.06"/>
</g>
<!-- C&#45;0566 -->
<g id="node27" class="node">
<title>C&#45;0566</title>
<ellipse fill="mediumseagreen" stroke="black" cx="872.5" cy="-582" rx="68.5" ry="18"/>
<text text-anchor="middle" x="872.5" y="-580.1" font-family="Helvetica,sans-Serif" font-size="8.00">C&#45;0566</text>
</g>
<!-- S&#45;629&#45;&gt;C&#45;0566 -->
<g id="edge11" class="edge">
<title>S&#45;629&#45;&gt;C&#45;0566</title>
<path fill="none" stroke="dimgray" stroke-width="0.8" d="M697.67,-666.94C697.67,-653.28 697.67,-629 697.67,-629 697.67,-629 854,-629 854,-629 854,-629 854,-606.5 854,-606.5"/>
<polygon fill="dimgray" stroke="dimgray" stroke-width="0.8" points="856.45,-606.5 854,-599.5 851.55,-606.5 856.45,-606.5"/>
</g>
<!-- C&#45;0565 -->
<g id="node36" class="node">
<title>C&#45;0565</title>
<ellipse fill="tomato" stroke="black" cx="451.5" cy="-582" rx="68.5" ry="18"/>
<text text-anchor="middle" x="451.5" y="-580.1" font-family="Helvetica,sans-Serif" font-size="8.00">C&#45;0565</text>
</g>
<!-- S&#45;629&#45;&gt;C&#45;0565 -->
<g id="edge10" class="edge">
<title>S&#45;629&#45;&gt;C&#45;0565</title>
<path fill="none" stroke="dimgray" stroke-width="0.8" d="M612.5,-670.95C612.5,-651.42 612.5,-582 612.5,-582 612.5,-582 527.25,-582 527.25,-582"/>
<polygon fill="dimgray" stroke="dimgray" stroke-width="0.8" points="527.25,-579.55 520.25,-582 527.25,-584.45 527.25,-579.55"/>
</g>
<!-- C&#45;0256&#45;&gt;C&#45;0257 -->
<g id="edge39" class="edge">
<title>C&#45;0256&#45;&gt;C&#45;0257</title>
<path fill="none" stroke="dimgray" stroke-width="0.8" d="M1657,-379.72C1657,-379.72 1657,-321.1 1657,-321.1"/>
<polygon fill="dimgray" stroke="dimgray" stroke-width="0.8" points="1659.45,-321.1 1657,-314.1 1654.55,-321.1 1659.45,-321.1"/>
</g>
<!-- C&#45;0004 -->
<g id="node21" class="node">
<title>C&#45;0004</title>
<ellipse fill="tomato" stroke="black" cx="1354.5" cy="-676" rx="68.5" ry="18"/>
<text text-anchor="middle" x="1354.5" y="-674.1" font-family="Helvetica,sans-Serif" font-size="8.00">C&#45;0004</text>
</g>
<!-- ext_circ_111_24_ -->
<g id="node49" class="node">
<title>ext_circ_111_24_</title>
<polygon fill="lightpink" stroke="red" stroke-dasharray="5,2" points="1100,-1168 963,-1168 963,-1132 1100,-1132 1100,-1168"/>
<text text-anchor="middle" x="1031.5" y="-1152.6" font-family="Helvetica,sans-Serif" font-size="8.00">Circuito:</text>
<text text-anchor="middle" x="1031.5" y="-1143.6" font-family="Helvetica,sans-Serif" font-size="8.00">111&#45;24&#45;</text>
</g>
<!-- C&#45;0004&#45;&gt;ext_circ_111_24_ -->
<g id="edge50" class="edge">
<title>C&#45;0004&#45;&gt;ext_circ_111_24_</title>
<path fill="none" stroke="red" stroke-width="0.8" stroke-dasharray="5,2" d="M1377.33,-693.15C1377.33,-778.13 1377.33,-1150 1377.33,-1150 1377.33,-1150 1107.24,-1150 1107.24,-1150"/>
<polygon fill="red" stroke="red" stroke-width="0.8" points="1107.24,-1147.55 1100.24,-1150 1107.24,-1152.45 1107.24,-1147.55"/>
</g>
<!-- S&#45;1712 -->
<g id="node22" class="node">
<title>S&#45;1712</title>
<polygon fill="mediumseagreen" stroke="black" points="1700.5,-788 1632,-770 1700.5,-752 1769,-770 1700.5,-788"/>
<text text-anchor="middle" x="1700.5" y="-768.1" font-family="Helvetica,sans-Serif" font-size="8.00">S&#45;1712</text>
</g>
<!-- R&#45;045&#45;&gt;C&#45;1029 -->
<g id="edge27" class="edge">
<title>R&#45;045&#45;&gt;C&#45;1029</title>
<path fill="none" stroke="dimgray" stroke-width="0.8" d="M1700.5,-563.88C1700.5,-563.88 1700.5,-513.07 1700.5,-513.07"/>
<polygon fill="dimgray" stroke="dimgray" stroke-width="0.8" points="1702.95,-513.07 1700.5,-506.07 1698.05,-513.07 1702.95,-513.07"/>
</g>
<!-- C&#45;0324&#45;&gt;S&#45;782 -->
<g id="edge23" class="edge">
<title>C&#45;0324&#45;&gt;S&#45;782</title>
<path fill="none" stroke="dimgray" stroke-width="0.8" d="M1527.5,-845.88C1527.5,-845.88 1527.5,-795.07 1527.5,-795.07"/>
<polygon fill="dimgray" stroke="dimgray" stroke-width="0.8" points="1529.95,-795.07 1527.5,-788.07 1525.05,-795.07 1529.95,-795.07"/>
</g>
<!-- C&#45;0324&#45;&gt;S&#45;1712 -->
<g id="edge22" class="edge">
<title>C&#45;0324&#45;&gt;S&#45;1712</title>
<path fill="none" stroke="dimgray" stroke-width="0.8" d="M1596.37,-864C1644.62,-864 1700.5,-864 1700.5,-864 1700.5,-864 1700.5,-795.12 1700.5,-795.12"/>
<polygon fill="dimgray" stroke="dimgray" stroke-width="0.8" points="1702.95,-795.12 1700.5,-788.12 1698.05,-795.12 1702.95,-795.12"/>
</g>
<!-- S&#45;691 -->
<g id="node30" class="node">
<title>S&#45;691</title>
<polygon fill="mediumseagreen" stroke="black" points="835.5,-788 767,-770 835.5,-752 904,-770 835.5,-788"/>
<text text-anchor="middle" x="835.5" y="-768.1" font-family="Helvetica,sans-Serif" font-size="8.00">S&#45;691</text>
</g>
<!-- C&#45;0324&#45;&gt;S&#45;691 -->
<g id="edge4" class="edge">
<title>C&#45;0324&#45;&gt;S&#45;691</title>
<path fill="none" stroke="dimgray" stroke-width="0.8" d="M1458.94,-864C1284.13,-864 835.5,-864 835.5,-864 835.5,-864 835.5,-795.12 835.5,-795.12"/>
<polygon fill="dimgray" stroke="dimgray" stroke-width="0.8" points="837.95,-795.12 835.5,-788.12 833.05,-795.12 837.95,-795.12"/>
</g>
<!-- R&#45;267&#45;&gt;ext_circ_111_24_ -->
<g id="edge51" class="edge">
<title>R&#45;267&#45;&gt;ext_circ_111_24_</title>
<path fill="none" stroke="red" stroke-width="0.8" stroke-dasharray="5,2" d="M229,-594.66C229,-678.47 229,-1150 229,-1150 229,-1150 955.73,-1150 955.73,-1150"/>
<polygon fill="red" stroke="red" stroke-width="0.8" points="955.73,-1152.45 962.73,-1150 955.73,-1147.55 955.73,-1152.45"/>
</g>
<!-- S&#45;2396 -->
<g id="node26" class="node">
<title>S&#45;2396</title>
<polygon fill="mediumseagreen" stroke="black" points="1527.5,-36 1459,-18 1527.5,0 1596,-18 1527.5,-36"/>
<text text-anchor="middle" x="1527.5" y="-16.1" font-family="Helvetica,sans-Serif" font-size="8.00">S&#45;2396</text>
</g>
<!-- C&#45;0566&#45;&gt;R&#45;122 -->
<g id="edge12" class="edge">
<title>C&#45;0566&#45;&gt;R&#45;122</title>
<path fill="none" stroke="dimgray" stroke-width="0.8" d="M872.5,-563.88C872.5,-563.88 872.5,-513.07 872.5,-513.07"/>
<polygon fill="dimgray" stroke="dimgray" stroke-width="0.8" points="874.95,-513.07 872.5,-506.07 870.05,-513.07 874.95,-513.07"/>
</g>
<!-- C&#45;1027&#45;&gt;C&#45;1029 -->
<g id="edge52" class="edge">
<title>C&#45;1027&#45;&gt;C&#45;1029</title>
<path fill="none" stroke="blue" stroke-width="0.8" stroke-dasharray="5,2" d="M1504.67,-658.88C1504.67,-613.57 1504.67,-494 1504.67,-494 1504.67,-494 1628.83,-494 1628.83,-494"/>
<polygon fill="blue" stroke="blue" stroke-width="0.8" points="1628.83,-496.45 1635.83,-494 1628.83,-491.55 1628.83,-496.45"/>
</g>
<!-- S&#45;2110 -->
<g id="node29" class="node">
<title>S&#45;2110</title>
<polygon fill="mediumseagreen" stroke="black" points="835.5,-694 767,-676 835.5,-658 904,-676 835.5,-694"/>
<text text-anchor="middle" x="835.5" y="-674.1" font-family="Helvetica,sans-Serif" font-size="8.00">S&#45;2110</text>
</g>
<!-- S&#45;691&#45;&gt;S&#45;1866 -->
<g id="edge5" class="edge">
<title>S&#45;691&#45;&gt;S&#45;1866</title>
<path fill="none" stroke="dimgray" stroke-width="0.8" d="M804.96,-780C662.31,-780 68.5,-780 68.5,-780 68.5,-780 68.5,-701.12 68.5,-701.12"/>
<polygon fill="dimgray" stroke="dimgray" stroke-width="0.8" points="70.95,-701.12 68.5,-694.12 66.05,-701.12 70.95,-701.12"/>
</g>
<!-- S&#45;691&#45;&gt;C&#45;1089 -->
<g id="edge19" class="edge">
<title>S&#45;691&#45;&gt;C&#45;1089</title>
<path fill="none" stroke="dimgray" stroke-width="0.8" d="M777.97,-773C642.85,-773 316.5,-773 316.5,-773 316.5,-773 316.5,-701.24 316.5,-701.24"/>
<polygon fill="dimgray" stroke="dimgray" stroke-width="0.8" points="318.95,-701.24 316.5,-694.24 314.05,-701.24 318.95,-701.24"/>
</g>
<!-- S&#45;691&#45;&gt;S&#45;628 -->
<g id="edge17" class="edge">
<title>S&#45;691&#45;&gt;S&#45;628</title>
<path fill="none" stroke="dimgray" stroke-width="0.8" d="M782.2,-766C685.14,-766 489.5,-766 489.5,-766 489.5,-766 489.5,-701.21 489.5,-701.21"/>
<polygon fill="dimgray" stroke="dimgray" stroke-width="0.8" points="491.95,-701.21 489.5,-694.21 487.05,-701.21 491.95,-701.21"/>
</g>
<!-- S&#45;691&#45;&gt;S&#45;629 -->
<g id="edge8" class="edge">
<title>S&#45;691&#45;&gt;S&#45;629</title>
<path fill="none" stroke="dimgray" stroke-width="0.8" d="M808.85,-759C760.32,-759 662.5,-759 662.5,-759 662.5,-759 662.5,-701.01 662.5,-701.01"/>
<polygon fill="dimgray" stroke="dimgray" stroke-width="0.8" points="664.95,-701.01 662.5,-694.01 660.05,-701.01 664.95,-701.01"/>
</g>
<!-- S&#45;691&#45;&gt;C&#45;0004 -->
<g id="edge18" class="edge">
<title>S&#45;691&#45;&gt;C&#45;0004</title>
<path fill="none" stroke="dimgray" stroke-width="0.8" d="M870,-779C982.52,-779 1331.67,-779 1331.67,-779 1331.67,-779 1331.67,-700.01 1331.67,-700.01"/>
<polygon fill="dimgray" stroke="dimgray" stroke-width="0.8" points="1334.12,-700.01 1331.67,-693.01 1329.22,-700.01 1334.12,-700.01"/>
</g>
<!-- S&#45;691&#45;&gt;S&#45;2110 -->
<g id="edge6" class="edge">
<title>S&#45;691&#45;&gt;S&#45;2110</title>
<path fill="none" stroke="dimgray" stroke-width="0.8" d="M835.5,-751.88C835.5,-751.88 835.5,-701.07 835.5,-701.07"/>
<polygon fill="dimgray" stroke="dimgray" stroke-width="0.8" points="837.95,-701.07 835.5,-694.07 833.05,-701.07 837.95,-701.07"/>
</g>
<!-- S&#45;526 -->
<g id="node32" class="node">
<title>S&#45;526</title>
<polygon fill="mediumseagreen" stroke="black" points="1008.5,-694 940,-676 1008.5,-658 1077,-676 1008.5,-694"/>
<text text-anchor="middle" x="1008.5" y="-674.1" font-family="Helvetica,sans-Serif" font-size="8.00">S&#45;526</text>
</g>
<!-- S&#45;691&#45;&gt;S&#45;526 -->
<g id="edge7" class="edge">
<title>S&#45;691&#45;&gt;S&#45;526</title>
<path fill="none" stroke="dimgray" stroke-width="0.8" d="M869.99,-761C904.18,-761 951.5,-761 951.5,-761 951.5,-761 951.5,-686.23 951.5,-686.23"/>
<polygon fill="dimgray" stroke="dimgray" stroke-width="0.8" points="953.95,-686.23 951.5,-679.23 949.05,-686.23 953.95,-686.23"/>
</g>
<!-- S&#45;525 -->
<g id="node44" class="node">
<title>S&#45;525</title>
<polygon fill="mediumseagreen" stroke="black" points="1181.5,-694 1113,-676 1181.5,-658 1250,-676 1181.5,-694"/>
<text text-anchor="middle" x="1181.5" y="-674.1" font-family="Helvetica,sans-Serif" font-size="8.00">S&#45;525</text>
</g>
<!-- S&#45;691&#45;&gt;S&#45;525 -->
<g id="edge21" class="edge">
<title>S&#45;691&#45;&gt;S&#45;525</title>
<path fill="none" stroke="dimgray" stroke-width="0.8" d="M904.27,-770C1005.18,-770 1181.5,-770 1181.5,-770 1181.5,-770 1181.5,-701.12 1181.5,-701.12"/>
<polygon fill="dimgray" stroke="dimgray" stroke-width="0.8" points="1183.95,-701.12 1181.5,-694.12 1179.05,-701.12 1183.95,-701.12"/>
</g>
<!-- C&#45;0274&#45;&gt;S&#45;2015 -->
<g id="edge43" class="edge">
<title>C&#45;0274&#45;&gt;S&#45;2015</title>
<path fill="none" stroke="dimgray" stroke-width="0.8" d="M1458.63,-206C1410.38,-206 1354.5,-206 1354.5,-206 1354.5,-206 1354.5,-137.12 1354.5,-137.12"/>
<polygon fill="dimgray" stroke="dimgray" stroke-width="0.8" points="1356.95,-137.12 1354.5,-130.12 1352.05,-137.12 1356.95,-137.12"/>
</g>
<!-- C&#45;0274&#45;&gt;C&#45;0234 -->
<g id="edge44" class="edge">
<title>C&#45;0274&#45;&gt;C&#45;0234</title>
<path fill="none" stroke="dimgray" stroke-width="0.8" d="M1596.12,-206C1603.28,-206 1608,-206 1608,-206 1608,-206 1608,-118 1608,-118 1608,-118 1628.75,-118 1628.75,-118"/>
<polygon fill="dimgray" stroke="dimgray" stroke-width="0.8" points="1628.75,-120.45 1635.75,-118 1628.75,-115.55 1628.75,-120.45"/>
</g>
<!-- S&#45;1944 -->
<g id="node47" class="node">
<title>S&#45;1944</title>
<polygon fill="mediumseagreen" stroke="black" points="1527.5,-130 1459,-112 1527.5,-94 1596,-112 1527.5,-130"/>
<text text-anchor="middle" x="1527.5" y="-110.1" font-family="Helvetica,sans-Serif" font-size="8.00">S&#45;1944</text>
</g>
<!-- C&#45;0274&#45;&gt;S&#45;1944 -->
<g id="edge42" class="edge">
<title>C&#45;0274&#45;&gt;S&#45;1944</title>
<path fill="none" stroke="dimgray" stroke-width="0.8" d="M1527.5,-187.88C1527.5,-187.88 1527.5,-137.07 1527.5,-137.07"/>
<polygon fill="dimgray" stroke="dimgray" stroke-width="0.8" points="1529.95,-137.07 1527.5,-130.07 1525.05,-137.07 1529.95,-137.07"/>
</g>
<!-- C&#45;0262&#45;&gt;C&#45;0233 -->
<g id="edge34" class="edge">
<title>C&#45;0262&#45;&gt;C&#45;0233</title>
<path fill="none" stroke="dimgray" stroke-width="0.8" d="M2254,-287.65C2254,-273.73 2254,-253 2254,-253 2254,-253 2089.5,-253 2089.5,-253 2089.5,-253 2089.5,-227.1 2089.5,-227.1"/>
<polygon fill="dimgray" stroke="dimgray" stroke-width="0.8" points="2091.95,-227.1 2089.5,-220.1 2087.05,-227.1 2091.95,-227.1"/>
</g>
<!-- C&#45;0262&#45;&gt;S&#45;2233 -->
<g id="edge33" class="edge">
<title>C&#45;0262&#45;&gt;S&#45;2233</title>
<path fill="none" stroke="dimgray" stroke-width="0.8" d="M2271,-284.05C2271,-284.05 2271,-217.52 2271,-217.52"/>
<polygon fill="dimgray" stroke="dimgray" stroke-width="0.8" points="2273.45,-217.52 2271,-210.52 2268.55,-217.52 2273.45,-217.52"/>
</g>
<!-- S&#45;2124 -->
<g id="node41" class="node">
<title>S&#45;2124</title>
<polygon fill="mediumseagreen" stroke="black" points="2392.5,-224 2324,-206 2392.5,-188 2461,-206 2392.5,-224"/>
<text text-anchor="middle" x="2392.5" y="-204.1" font-family="Helvetica,sans-Serif" font-size="8.00">S&#45;2124</text>
</g>
<!-- C&#45;0262&#45;&gt;S&#45;2124 -->
<g id="edge32" class="edge">
<title>C&#45;0262&#45;&gt;S&#45;2124</title>
<path fill="none" stroke="dimgray" stroke-width="0.8" d="M2349,-285.72C2349,-285.72 2349,-219.83 2349,-219.83"/>
<polygon fill="dimgray" stroke="dimgray" stroke-width="0.8" points="2351.45,-219.83 2349,-212.83 2346.55,-219.83 2351.45,-219.83"/>
</g>
<!-- C&#45;0735 -->
<g id="node46" class="node">
<title>C&#45;0735</title>
<ellipse fill="mediumseagreen" stroke="black" cx="2565.5" cy="-206" rx="68.5" ry="18"/>
<text text-anchor="middle" x="2565.5" y="-204.1" font-family="Helvetica,sans-Serif" font-size="8.00">C&#45;0735</text>
</g>
<!-- C&#45;0262&#45;&gt;C&#45;0735 -->
<g id="edge35" class="edge">
<title>C&#45;0262&#45;&gt;C&#45;0735</title>
<path fill="none" stroke="dimgray" stroke-width="0.8" d="M2374.15,-300C2451.18,-300 2565.5,-300 2565.5,-300 2565.5,-300 2565.5,-231.12 2565.5,-231.12"/>
<polygon fill="dimgray" stroke="dimgray" stroke-width="0.8" points="2567.95,-231.12 2565.5,-224.12 2563.05,-231.12 2567.95,-231.12"/>
</g>
<!-- C&#45;0567&#45;&gt;C&#45;0254 -->
<g id="edge14" class="edge">
<title>C&#45;0567&#45;&gt;C&#45;0254</title>
<path fill="none" stroke="dimgray" stroke-width="0.8" d="M872.5,-375.88C872.5,-375.88 872.5,-325.07 872.5,-325.07"/>
<polygon fill="dimgray" stroke="dimgray" stroke-width="0.8" points="874.95,-325.07 872.5,-318.07 870.05,-325.07 874.95,-325.07"/>
</g>
<!-- C&#45;0565&#45;&gt;C&#45;0567 -->
<g id="edge48" class="edge">
<title>C&#45;0565&#45;&gt;C&#45;0567</title>
<path fill="none" stroke="blue" stroke-width="0.8" stroke-dasharray="5,2" d="M451.5,-563.97C451.5,-516.92 451.5,-394 451.5,-394 451.5,-394 796.92,-394 796.92,-394"/>
<polygon fill="blue" stroke="blue" stroke-width="0.8" points="796.92,-396.45 803.92,-394 796.92,-391.55 796.92,-396.45"/>
</g>
<!-- S&#45;2263 -->
<g id="node43" class="node">
<title>S&#45;2263</title>
<polygon fill="mediumseagreen" stroke="black" points="1873.5,-36 1805,-18 1873.5,0 1942,-18 1873.5,-36"/>
<text text-anchor="middle" x="1873.5" y="-16.1" font-family="Helvetica,sans-Serif" font-size="8.00">S&#45;2263</text>
</g>
<!-- C&#45;0255&#45;&gt;S&#45;2263 -->
<g id="edge49" class="edge">
<title>C&#45;0255&#45;&gt;S&#45;2263</title>
<path fill="none" stroke="blue" stroke-width="0.8" stroke-dasharray="5,2" d="M958.5,-187.96C958.5,-174.71 958.5,-159 958.5,-159 958.5,-159 1838.33,-159 1838.33,-159 1838.33,-159 1838.33,-33.82 1838.33,-33.82"/>
<polygon fill="blue" stroke="blue" stroke-width="0.8" points="1840.78,-33.82 1838.33,-26.82 1835.88,-33.82 1840.78,-33.82"/>
</g>
<!-- C&#45;0234&#45;&gt;S&#45;2396 -->
<g id="edge47" class="edge">
<title>C&#45;0234&#45;&gt;S&#45;2396</title>
<path fill="none" stroke="dimgray" stroke-width="0.8" d="M1635.9,-106C1626.55,-106 1620,-106 1620,-106 1620,-106 1620,-18 1620,-18 1620,-18 1603.18,-18 1603.18,-18"/>
<polygon fill="dimgray" stroke="dimgray" stroke-width="0.8" points="1603.18,-15.55 1596.18,-18 1603.18,-20.45 1603.18,-15.55"/>
</g>
<!-- S&#45;524 -->
<g id="node42" class="node">
<title>S&#45;524</title>
<polygon fill="mediumseagreen" stroke="black" points="1700.5,-36 1632,-18 1700.5,0 1769,-18 1700.5,-36"/>
<text text-anchor="middle" x="1700.5" y="-16.1" font-family="Helvetica,sans-Serif" font-size="8.00">S&#45;524</text>
</g>
<!-- C&#45;0234&#45;&gt;S&#45;524 -->
<g id="edge46" class="edge">
<title>C&#45;0234&#45;&gt;S&#45;524</title>
<path fill="none" stroke="dimgray" stroke-width="0.8" d="M1700.5,-93.88C1700.5,-93.88 1700.5,-43.07 1700.5,-43.07"/>
<polygon fill="dimgray" stroke="dimgray" stroke-width="0.8" points="1702.95,-43.07 1700.5,-36.07 1698.05,-43.07 1702.95,-43.07"/>
</g>
<!-- C&#45;0234&#45;&gt;S&#45;2263 -->
<g id="edge45" class="edge">
<title>C&#45;0234&#45;&gt;S&#45;2263</title>
<path fill="none" stroke="dimgray" stroke-width="0.8" d="M1765.34,-106C1794.15,-106 1821.67,-106 1821.67,-106 1821.67,-106 1821.67,-29.73 1821.67,-29.73"/>
<polygon fill="dimgray" stroke="dimgray" stroke-width="0.8" points="1824.12,-29.73 1821.67,-22.73 1819.22,-29.73 1824.12,-29.73"/>
</g>
<!-- 316&#45;22 -->
<g id="node45" class="node">
<title>316&#45;22</title>
<polygon fill="gold" stroke="black" points="1596,-1142.54 1596,-1157.46 1555.87,-1168 1499.13,-1168 1459,-1157.46 1459,-1142.54 1499.13,-1132 1555.87,-1132 1596,-1142.54"/>
<polygon fill="none" stroke="black" points="1600,-1139.46 1600,-1160.54 1556.39,-1172 1498.61,-1172 1455,-1160.54 1455,-1139.46 1498.61,-1128 1556.39,-1128 1600,-1139.46"/>
<text text-anchor="middle" x="1527.5" y="-1148.1" font-family="Helvetica,sans-Serif" font-size="8.00">316&#45;22</text>
</g>
<!-- C&#45;0323 -->
<g id="node48" class="node">
<title>C&#45;0323</title>
<ellipse fill="mediumseagreen" stroke="black" cx="1527.5" cy="-1052" rx="68.5" ry="18"/>
<text text-anchor="middle" x="1527.5" y="-1050.1" font-family="Helvetica,sans-Serif" font-size="8.00">C&#45;0323</text>
</g>
<!-- 316&#45;22&#45;&gt;C&#45;0323 -->
<g id="edge1" class="edge">
<title>316&#45;22&#45;&gt;C&#45;0323</title>
<path fill="none" stroke="dimgray" stroke-width="0.8" d="M1527.5,-1127.76C1527.5,-1127.76 1527.5,-1077.21 1527.5,-1077.21"/>
<polygon fill="dimgray" stroke="dimgray" stroke-width="0.8" points="1529.95,-1077.21 1527.5,-1070.21 1525.05,-1077.21 1529.95,-1077.21"/>
</g>
<!-- C&#45;0323&#45;&gt;C&#45;0322 -->
<g id="edge2" class="edge">
<title>C&#45;0323&#45;&gt;C&#45;0322</title>
<path fill="none" stroke="dimgray" stroke-width="0.8" d="M1527.5,-1033.88C1527.5,-1033.88 1527.5,-983.07 1527.5,-983.07"/>
<polygon fill="dimgray" stroke="dimgray" stroke-width="0.8" points="1529.95,-983.07 1527.5,-976.07 1525.05,-983.07 1529.95,-983.07"/>
</g>
</g>
</svg>
