<?xml version="1.0" encoding="UTF-8" standalone="no"?>
<!DOCTYPE svg PUBLIC "-//W3C//DTD SVG 1.1//EN"
 "http://www.w3.org/Graphics/SVG/1.1/DTD/svg11.dtd">
<!-- Generated by graphviz version 2.50.0 (0)
 -->
<!-- Title: Grafo_Circuito_109_20_ Pages: 1 -->
<svg width="1179pt" height="2079pt"
 viewBox="0.00 0.00 1179.00 2079.00" xmlns="http://www.w3.org/2000/svg" xmlns:xlink="http://www.w3.org/1999/xlink">
<g id="graph0" class="graph" transform="scale(1 1) rotate(0) translate(4 2075)">
<title>Grafo_Circuito_109_20_</title>
<polygon fill="white" stroke="transparent" points="-4,4 -4,-2075 1175,-2075 1175,4 -4,4"/>
<!-- C&#45;0899 -->
<g id="node1" class="node">
<title>C&#45;0899</title>
<ellipse fill="mediumseagreen" stroke="black" cx="657" cy="-1637.5" rx="72" ry="21.5"/>
<text text-anchor="middle" x="657" y="-1635" font-family="Arial" font-size="10.00">C&#45;0899</text>
</g>
<!-- R&#45;209 -->
<g id="node44" class="node">
<title>R&#45;209</title>
<polygon fill="mediumseagreen" stroke="black" points="716,-1527.59 716,-1545.41 673.82,-1558 614.18,-1558 572,-1545.41 572,-1527.59 614.18,-1515 673.82,-1515 716,-1527.59"/>
<text text-anchor="middle" x="644" y="-1534" font-family="Arial" font-size="10.00">R&#45;209</text>
</g>
<!-- C&#45;0899&#45;&gt;R&#45;209 -->
<g id="edge10" class="edge">
<title>C&#45;0899&#45;&gt;R&#45;209</title>
<path fill="none" stroke="#4d4d4d" d="M650.5,-1616.08C650.5,-1616.08 650.5,-1565.24 650.5,-1565.24"/>
<polygon fill="#4d4d4d" stroke="#4d4d4d" points="652.95,-1565.24 650.5,-1558.24 648.05,-1565.24 652.95,-1565.24"/>
</g>
<!-- R&#45;185 -->
<g id="node2" class="node">
<title>R&#45;185</title>
<polygon fill="mediumseagreen" stroke="black" points="811,-820.59 811,-838.41 768.82,-851 709.18,-851 667,-838.41 667,-820.59 709.18,-808 768.82,-808 811,-820.59"/>
<text text-anchor="middle" x="739" y="-827" font-family="Arial" font-size="10.00">R&#45;185</text>
</g>
<!-- C&#45;0824 -->
<g id="node10" class="node">
<title>C&#45;0824</title>
<ellipse fill="mediumseagreen" stroke="black" cx="739" cy="-728.5" rx="72" ry="21.5"/>
<text text-anchor="middle" x="739" y="-726" font-family="Arial" font-size="10.00">C&#45;0824</text>
</g>
<!-- R&#45;185&#45;&gt;C&#45;0824 -->
<g id="edge25" class="edge">
<title>R&#45;185&#45;&gt;C&#45;0824</title>
<path fill="none" stroke="#4d4d4d" d="M739,-807.58C739,-807.58 739,-757.03 739,-757.03"/>
<polygon fill="#4d4d4d" stroke="#4d4d4d" points="741.45,-757.03 739,-750.03 736.55,-757.03 741.45,-757.03"/>
</g>
<!-- R&#45;066 -->
<g id="node3" class="node">
<title>R&#45;066</title>
<polygon fill="mediumseagreen" stroke="black" points="1050,-517.59 1050,-535.41 1007.82,-548 948.18,-548 906,-535.41 906,-517.59 948.18,-505 1007.82,-505 1050,-517.59"/>
<text text-anchor="middle" x="978" y="-524" font-family="Arial" font-size="10.00">R&#45;066</text>
</g>
<!-- C&#45;1265 -->
<g id="node30" class="node">
<title>C&#45;1265</title>
<ellipse fill="mediumseagreen" stroke="black" cx="776" cy="-425.5" rx="72" ry="21.5"/>
<text text-anchor="middle" x="776" y="-423" font-family="Arial" font-size="10.00">C&#45;1265</text>
</g>
<!-- R&#45;066&#45;&gt;C&#45;1265 -->
<g id="edge32" class="edge">
<title>R&#45;066&#45;&gt;C&#45;1265</title>
<path fill="none" stroke="#4d4d4d" d="M905.68,-526C867.72,-526 829,-526 829,-526 829,-526 829,-447.33 829,-447.33"/>
<polygon fill="#4d4d4d" stroke="#4d4d4d" points="831.45,-447.33 829,-440.33 826.55,-447.33 831.45,-447.33"/>
</g>
<!-- C&#45;0792 -->
<g id="node4" class="node">
<title>C&#45;0792</title>
<ellipse fill="tomato" stroke="black" cx="1091" cy="-1536.5" rx="72" ry="21.5"/>
<text text-anchor="middle" x="1091" y="-1534" font-family="Arial" font-size="10.00">C&#45;0792</text>
</g>
<!-- ext_circ_109_25_ -->
<g id="node47" class="node">
<title>ext_circ_109_25_</title>
<polygon fill="lightpink" stroke="darkorange" stroke-dasharray="5,2" points="1122,-1457 978,-1457 978,-1414 1122,-1414 1122,-1457"/>
<text text-anchor="middle" x="1050" y="-1438.5" font-family="Arial" font-size="10.00">Circuito:</text>
<text text-anchor="middle" x="1050" y="-1427.5" font-family="Arial" font-size="10.00">109&#45;25&#45;</text>
</g>
<!-- C&#45;0792&#45;&gt;ext_circ_109_25_ -->
<g id="edge47" class="edge">
<title>C&#45;0792&#45;&gt;ext_circ_109_25_</title>
<path fill="none" stroke="darkorange" stroke-dasharray="5,2" d="M1070.5,-1515.57C1070.5,-1515.57 1070.5,-1464.1 1070.5,-1464.1"/>
<polygon fill="darkorange" stroke="darkorange" points="1072.95,-1464.1 1070.5,-1457.1 1068.05,-1464.1 1072.95,-1464.1"/>
</g>
<!-- S&#45;1468 -->
<g id="node5" class="node">
<title>S&#45;1468</title>
<polygon fill="mediumseagreen" stroke="black" points="252,-1356 180,-1334.5 252,-1313 324,-1334.5 252,-1356"/>
<text text-anchor="middle" x="252" y="-1332" font-family="Arial" font-size="10.00">S&#45;1468</text>
</g>
<!-- C&#45;0114 -->
<g id="node23" class="node">
<title>C&#45;0114</title>
<ellipse fill="tomato" stroke="black" cx="252" cy="-1031.5" rx="72" ry="21.5"/>
<text text-anchor="middle" x="252" y="-1029" font-family="Arial" font-size="10.00">C&#45;0114</text>
</g>
<!-- S&#45;1468&#45;&gt;C&#45;0114 -->
<g id="edge16" class="edge">
<title>S&#45;1468&#45;&gt;C&#45;0114</title>
<path fill="none" stroke="#4d4d4d" d="M252,-1312.71C252,-1312.71 252,-1060.09 252,-1060.09"/>
<polygon fill="#4d4d4d" stroke="#4d4d4d" points="254.45,-1060.09 252,-1053.09 249.55,-1060.09 254.45,-1060.09"/>
</g>
<!-- S&#45;042 -->
<g id="node6" class="node">
<title>S&#45;042</title>
<polygon fill="mediumseagreen" stroke="black" points="776,-346 704,-324.5 776,-303 848,-324.5 776,-346"/>
<text text-anchor="middle" x="776" y="-322" font-family="Arial" font-size="10.00">S&#45;042</text>
</g>
<!-- S&#45;1373 -->
<g id="node19" class="node">
<title>S&#45;1373</title>
<polygon fill="mediumseagreen" stroke="black" points="769,-245 697,-223.5 769,-202 841,-223.5 769,-245"/>
<text text-anchor="middle" x="769" y="-221" font-family="Arial" font-size="10.00">S&#45;1373</text>
</g>
<!-- S&#45;042&#45;&gt;S&#45;1373 -->
<g id="edge41" class="edge">
<title>S&#45;042&#45;&gt;S&#45;1373</title>
<path fill="none" stroke="#4d4d4d" d="M772.5,-303.57C772.5,-303.57 772.5,-251.05 772.5,-251.05"/>
<polygon fill="#4d4d4d" stroke="#4d4d4d" points="774.95,-251.05 772.5,-244.05 770.05,-251.05 774.95,-251.05"/>
</g>
<!-- C&#45;0546 -->
<g id="node7" class="node">
<title>C&#45;0546</title>
<ellipse fill="mediumseagreen" stroke="black" cx="675" cy="-1132.5" rx="72" ry="21.5"/>
<text text-anchor="middle" x="675" y="-1130" font-family="Arial" font-size="10.00">C&#45;0546</text>
</g>
<!-- S&#45;902 -->
<g id="node14" class="node">
<title>S&#45;902</title>
<polygon fill="mediumseagreen" stroke="black" points="675,-1053 603,-1031.5 675,-1010 747,-1031.5 675,-1053"/>
<text text-anchor="middle" x="675" y="-1029" font-family="Arial" font-size="10.00">S&#45;902</text>
</g>
<!-- C&#45;0546&#45;&gt;S&#45;902 -->
<g id="edge21" class="edge">
<title>C&#45;0546&#45;&gt;S&#45;902</title>
<path fill="none" stroke="#4d4d4d" d="M675,-1110.58C675,-1110.58 675,-1060.03 675,-1060.03"/>
<polygon fill="#4d4d4d" stroke="#4d4d4d" points="677.45,-1060.03 675,-1053.03 672.55,-1060.03 677.45,-1060.03"/>
</g>
<!-- R&#45;175 -->
<g id="node8" class="node">
<title>R&#45;175</title>
<polygon fill="tomato" stroke="black" points="654,-214.59 654,-232.41 611.82,-245 552.18,-245 510,-232.41 510,-214.59 552.18,-202 611.82,-202 654,-214.59"/>
<text text-anchor="middle" x="582" y="-221" font-family="Arial" font-size="10.00">R&#45;175</text>
</g>
<!-- ext_circ_114_22_ -->
<g id="node51" class="node">
<title>ext_circ_114_22_</title>
<polygon fill="lightpink" stroke="darkorange" stroke-dasharray="5,2" points="609,-144 465,-144 465,-101 609,-101 609,-144"/>
<text text-anchor="middle" x="537" y="-125.5" font-family="Arial" font-size="10.00">Circuito:</text>
<text text-anchor="middle" x="537" y="-114.5" font-family="Arial" font-size="10.00">114&#45;22&#45;</text>
</g>
<!-- R&#45;175&#45;&gt;ext_circ_114_22_ -->
<g id="edge58" class="edge">
<title>R&#45;175&#45;&gt;ext_circ_114_22_</title>
<path fill="none" stroke="darkorange" stroke-dasharray="5,2" d="M559.5,-201.58C559.5,-201.58 559.5,-151.03 559.5,-151.03"/>
<polygon fill="darkorange" stroke="darkorange" points="561.95,-151.03 559.5,-144.03 557.05,-151.03 561.95,-151.03"/>
</g>
<!-- C&#45;0055 -->
<g id="node9" class="node">
<title>C&#45;0055</title>
<ellipse fill="mediumseagreen" stroke="black" cx="784" cy="-1940.5" rx="72" ry="21.5"/>
<text text-anchor="middle" x="784" y="-1938" font-family="Arial" font-size="10.00">C&#45;0055</text>
</g>
<!-- S&#45;1487 -->
<g id="node12" class="node">
<title>S&#45;1487</title>
<polygon fill="mediumseagreen" stroke="black" points="784,-1861 712,-1839.5 784,-1818 856,-1839.5 784,-1861"/>
<text text-anchor="middle" x="784" y="-1837" font-family="Arial" font-size="10.00">S&#45;1487</text>
</g>
<!-- C&#45;0055&#45;&gt;S&#45;1487 -->
<g id="edge2" class="edge">
<title>C&#45;0055&#45;&gt;S&#45;1487</title>
<path fill="none" stroke="#4d4d4d" d="M784,-1918.58C784,-1918.58 784,-1868.03 784,-1868.03"/>
<polygon fill="#4d4d4d" stroke="#4d4d4d" points="786.45,-1868.03 784,-1861.03 781.55,-1868.03 786.45,-1868.03"/>
</g>
<!-- C&#45;1264 -->
<g id="node21" class="node">
<title>C&#45;1264</title>
<ellipse fill="mediumseagreen" stroke="black" cx="1099" cy="-627.5" rx="72" ry="21.5"/>
<text text-anchor="middle" x="1099" y="-625" font-family="Arial" font-size="10.00">C&#45;1264</text>
</g>
<!-- C&#45;0824&#45;&gt;C&#45;1264 -->
<g id="edge30" class="edge">
<title>C&#45;0824&#45;&gt;C&#45;1264</title>
<path fill="none" stroke="#4d4d4d" d="M807.89,-735C912.28,-735 1098.5,-735 1098.5,-735 1098.5,-735 1098.5,-656.25 1098.5,-656.25"/>
<polygon fill="#4d4d4d" stroke="#4d4d4d" points="1100.95,-656.25 1098.5,-649.25 1096.05,-656.25 1100.95,-656.25"/>
</g>
<!-- S&#45;1454 -->
<g id="node29" class="node">
<title>S&#45;1454</title>
<polygon fill="mediumseagreen" stroke="black" points="559,-649 487,-627.5 559,-606 631,-627.5 559,-649"/>
<text text-anchor="middle" x="559" y="-625" font-family="Arial" font-size="10.00">S&#45;1454</text>
</g>
<!-- C&#45;0824&#45;&gt;S&#45;1454 -->
<g id="edge26" class="edge">
<title>C&#45;0824&#45;&gt;S&#45;1454</title>
<path fill="none" stroke="#4d4d4d" d="M677.79,-717C634.09,-717 583,-717 583,-717 583,-717 583,-648.88 583,-648.88"/>
<polygon fill="#4d4d4d" stroke="#4d4d4d" points="585.45,-648.88 583,-641.88 580.55,-648.88 585.45,-648.88"/>
</g>
<!-- S&#45;1453 -->
<g id="node34" class="node">
<title>S&#45;1453</title>
<polygon fill="mediumseagreen" stroke="black" points="739,-649 667,-627.5 739,-606 811,-627.5 739,-649"/>
<text text-anchor="middle" x="739" y="-625" font-family="Arial" font-size="10.00">S&#45;1453</text>
</g>
<!-- C&#45;0824&#45;&gt;S&#45;1453 -->
<g id="edge28" class="edge">
<title>C&#45;0824&#45;&gt;S&#45;1453</title>
<path fill="none" stroke="#4d4d4d" d="M739,-706.58C739,-706.58 739,-656.03 739,-656.03"/>
<polygon fill="#4d4d4d" stroke="#4d4d4d" points="741.45,-656.03 739,-649.03 736.55,-656.03 741.45,-656.03"/>
</g>
<!-- S&#45;1618 -->
<g id="node38" class="node">
<title>S&#45;1618</title>
<polygon fill="mediumseagreen" stroke="black" points="919,-649 847,-627.5 919,-606 991,-627.5 919,-649"/>
<text text-anchor="middle" x="919" y="-625" font-family="Arial" font-size="10.00">S&#45;1618</text>
</g>
<!-- C&#45;0824&#45;&gt;S&#45;1618 -->
<g id="edge43" class="edge">
<title>C&#45;0824&#45;&gt;S&#45;1618</title>
<path fill="none" stroke="#4d4d4d" d="M806.5,-721C845.54,-721 887,-721 887,-721 887,-721 887,-646.72 887,-646.72"/>
<polygon fill="#4d4d4d" stroke="#4d4d4d" points="889.45,-646.72 887,-639.72 884.55,-646.72 889.45,-646.72"/>
</g>
<!-- C&#45;1263 -->
<g id="node41" class="node">
<title>C&#45;1263</title>
<ellipse fill="tomato" stroke="black" cx="379" cy="-627.5" rx="72" ry="21.5"/>
<text text-anchor="middle" x="379" y="-625" font-family="Arial" font-size="10.00">C&#45;1263</text>
</g>
<!-- C&#45;0824&#45;&gt;C&#45;1263 -->
<g id="edge29" class="edge">
<title>C&#45;0824&#45;&gt;C&#45;1263</title>
<path fill="none" stroke="#4d4d4d" d="M666.64,-728C568.55,-728 405.5,-728 405.5,-728 405.5,-728 405.5,-654.84 405.5,-654.84"/>
<polygon fill="#4d4d4d" stroke="#4d4d4d" points="407.95,-654.84 405.5,-647.84 403.05,-654.84 407.95,-654.84"/>
</g>
<!-- C&#45;0818 -->
<g id="node11" class="node">
<title>C&#45;0818</title>
<ellipse fill="mediumseagreen" stroke="black" cx="1079" cy="-223.5" rx="72" ry="21.5"/>
<text text-anchor="middle" x="1079" y="-221" font-family="Arial" font-size="10.00">C&#45;0818</text>
</g>
<!-- R&#45;183 -->
<g id="node43" class="node">
<title>R&#45;183</title>
<polygon fill="tomato" stroke="black" points="1164,-113.59 1164,-131.41 1121.82,-144 1062.18,-144 1020,-131.41 1020,-113.59 1062.18,-101 1121.82,-101 1164,-113.59"/>
<text text-anchor="middle" x="1092" y="-120" font-family="Arial" font-size="10.00">R&#45;183</text>
</g>
<!-- C&#45;0818&#45;&gt;R&#45;183 -->
<g id="edge36" class="edge">
<title>C&#45;0818&#45;&gt;R&#45;183</title>
<path fill="none" stroke="#4d4d4d" d="M1085.5,-202.08C1085.5,-202.08 1085.5,-151.24 1085.5,-151.24"/>
<polygon fill="#4d4d4d" stroke="#4d4d4d" points="1087.95,-151.24 1085.5,-144.24 1083.05,-151.24 1087.95,-151.24"/>
</g>
<!-- C&#45;0163 -->
<g id="node27" class="node">
<title>C&#45;0163</title>
<ellipse fill="mediumseagreen" stroke="black" cx="784" cy="-1738.5" rx="72" ry="21.5"/>
<text text-anchor="middle" x="784" y="-1736" font-family="Arial" font-size="10.00">C&#45;0163</text>
</g>
<!-- S&#45;1487&#45;&gt;C&#45;0163 -->
<g id="edge3" class="edge">
<title>S&#45;1487&#45;&gt;C&#45;0163</title>
<path fill="none" stroke="#4d4d4d" d="M784,-1817.58C784,-1817.58 784,-1767.03 784,-1767.03"/>
<polygon fill="#4d4d4d" stroke="#4d4d4d" points="786.45,-1767.03 784,-1760.03 781.55,-1767.03 786.45,-1767.03"/>
</g>
<!-- C&#45;0367 -->
<g id="node13" class="node">
<title>C&#45;0367</title>
<ellipse fill="mediumseagreen" stroke="black" cx="792" cy="-1334.5" rx="72" ry="21.5"/>
<text text-anchor="middle" x="792" y="-1332" font-family="Arial" font-size="10.00">C&#45;0367</text>
</g>
<!-- R&#45;117 -->
<g id="node32" class="node">
<title>R&#45;117</title>
<polygon fill="mediumseagreen" stroke="black" points="747,-1224.59 747,-1242.41 704.82,-1255 645.18,-1255 603,-1242.41 603,-1224.59 645.18,-1212 704.82,-1212 747,-1224.59"/>
<text text-anchor="middle" x="675" y="-1231" font-family="Arial" font-size="10.00">R&#45;117</text>
</g>
<!-- C&#45;0367&#45;&gt;R&#45;117 -->
<g id="edge19" class="edge">
<title>C&#45;0367&#45;&gt;R&#45;117</title>
<path fill="none" stroke="#4d4d4d" d="M733.5,-1321.71C733.5,-1321.71 733.5,-1253.51 733.5,-1253.51"/>
<polygon fill="#4d4d4d" stroke="#4d4d4d" points="735.95,-1253.51 733.5,-1246.51 731.05,-1253.51 735.95,-1253.51"/>
</g>
<!-- C&#45;0822 -->
<g id="node16" class="node">
<title>C&#45;0822</title>
<ellipse fill="mediumseagreen" stroke="black" cx="739" cy="-930.5" rx="72" ry="21.5"/>
<text text-anchor="middle" x="739" y="-928" font-family="Arial" font-size="10.00">C&#45;0822</text>
</g>
<!-- S&#45;902&#45;&gt;C&#45;0822 -->
<g id="edge22" class="edge">
<title>S&#45;902&#45;&gt;C&#45;0822</title>
<path fill="none" stroke="#4d4d4d" d="M707,-1019.52C707,-1019.52 707,-957.09 707,-957.09"/>
<polygon fill="#4d4d4d" stroke="#4d4d4d" points="709.45,-957.09 707,-950.09 704.55,-957.09 709.45,-957.09"/>
</g>
<!-- C&#45;0823 -->
<g id="node40" class="node">
<title>C&#45;0823</title>
<ellipse fill="tomato" stroke="black" cx="559" cy="-930.5" rx="72" ry="21.5"/>
<text text-anchor="middle" x="559" y="-928" font-family="Arial" font-size="10.00">C&#45;0823</text>
</g>
<!-- S&#45;902&#45;&gt;C&#45;0823 -->
<g id="edge23" class="edge">
<title>S&#45;902&#45;&gt;C&#45;0823</title>
<path fill="none" stroke="#4d4d4d" d="M617,-1027.16C617,-1027.16 617,-950.24 617,-950.24"/>
<polygon fill="#4d4d4d" stroke="#4d4d4d" points="619.45,-950.24 617,-943.24 614.55,-950.24 619.45,-950.24"/>
</g>
<!-- C&#45;0545 -->
<g id="node15" class="node">
<title>C&#45;0545</title>
<ellipse fill="tomato" stroke="black" cx="72" cy="-1334.5" rx="72" ry="21.5"/>
<text text-anchor="middle" x="72" y="-1332" font-family="Arial" font-size="10.00">C&#45;0545</text>
</g>
<!-- C&#45;0545&#45;&gt;C&#45;0546 -->
<g id="edge52" class="edge">
<title>C&#45;0545&#45;&gt;C&#45;0546</title>
<path fill="none" stroke="blue" stroke-dasharray="5,2" d="M72,-1312.83C72,-1260.59 72,-1132 72,-1132 72,-1132 595.86,-1132 595.86,-1132"/>
<polygon fill="blue" stroke="blue" points="595.86,-1134.45 602.86,-1132 595.86,-1129.55 595.86,-1134.45"/>
</g>
<!-- C&#45;0822&#45;&gt;R&#45;185 -->
<g id="edge24" class="edge">
<title>C&#45;0822&#45;&gt;R&#45;185</title>
<path fill="none" stroke="#4d4d4d" d="M739,-908.58C739,-908.58 739,-858.03 739,-858.03"/>
<polygon fill="#4d4d4d" stroke="#4d4d4d" points="741.45,-858.03 739,-851.03 736.55,-858.03 741.45,-858.03"/>
</g>
<!-- C&#45;0012 -->
<g id="node17" class="node">
<title>C&#45;0012</title>
<ellipse fill="tomato" stroke="black" cx="477" cy="-1637.5" rx="72" ry="21.5"/>
<text text-anchor="middle" x="477" y="-1635" font-family="Arial" font-size="10.00">C&#45;0012</text>
</g>
<!-- C&#45;0897 -->
<g id="node42" class="node">
<title>C&#45;0897</title>
<ellipse fill="mediumseagreen" stroke="black" cx="612" cy="-1435.5" rx="72" ry="21.5"/>
<text text-anchor="middle" x="612" y="-1433" font-family="Arial" font-size="10.00">C&#45;0897</text>
</g>
<!-- C&#45;0012&#45;&gt;C&#45;0897 -->
<g id="edge49" class="edge">
<title>C&#45;0012&#45;&gt;C&#45;0897</title>
<path fill="none" stroke="blue" stroke-dasharray="5,2" d="M544.5,-1629.83C544.5,-1629.83 544.5,-1450.18 544.5,-1450.18"/>
<polygon fill="blue" stroke="blue" points="546.95,-1450.18 544.5,-1443.18 542.05,-1450.18 546.95,-1450.18"/>
</g>
<!-- R&#45;079 -->
<g id="node18" class="node">
<title>R&#45;079</title>
<polygon fill="tomato" stroke="black" points="901,-1426.59 901,-1444.41 858.82,-1457 799.18,-1457 757,-1444.41 757,-1426.59 799.18,-1414 858.82,-1414 901,-1426.59"/>
<text text-anchor="middle" x="829" y="-1433" font-family="Arial" font-size="10.00">R&#45;079</text>
</g>
<!-- ext_circ_113_24_ -->
<g id="node48" class="node">
<title>ext_circ_113_24_</title>
<polygon fill="lightpink" stroke="darkorange" stroke-dasharray="5,2" points="1170,-1154 1026,-1154 1026,-1111 1170,-1111 1170,-1154"/>
<text text-anchor="middle" x="1098" y="-1135.5" font-family="Arial" font-size="10.00">Circuito:</text>
<text text-anchor="middle" x="1098" y="-1124.5" font-family="Arial" font-size="10.00">113&#45;24&#45;</text>
</g>
<!-- R&#45;079&#45;&gt;ext_circ_113_24_ -->
<g id="edge48" class="edge">
<title>R&#45;079&#45;&gt;ext_circ_113_24_</title>
<path fill="none" stroke="darkorange" stroke-dasharray="5,2" d="M882,-1420.52C882,-1408.63 882,-1394 882,-1394 882,-1394 1114.5,-1394 1114.5,-1394 1114.5,-1394 1114.5,-1161.35 1114.5,-1161.35"/>
<polygon fill="darkorange" stroke="darkorange" points="1116.95,-1161.35 1114.5,-1154.35 1112.05,-1161.35 1116.95,-1161.35"/>
</g>
<!-- C&#45;0946 -->
<g id="node37" class="node">
<title>C&#45;0946</title>
<ellipse fill="tomato" stroke="black" cx="727" cy="-122.5" rx="72" ry="21.5"/>
<text text-anchor="middle" x="727" y="-120" font-family="Arial" font-size="10.00">C&#45;0946</text>
</g>
<!-- S&#45;1373&#45;&gt;C&#45;0946 -->
<g id="edge42" class="edge">
<title>S&#45;1373&#45;&gt;C&#45;0946</title>
<path fill="none" stroke="#4d4d4d" d="M748,-208.16C748,-208.16 748,-150.25 748,-150.25"/>
<polygon fill="#4d4d4d" stroke="#4d4d4d" points="750.45,-150.25 748,-143.25 745.55,-150.25 750.45,-150.25"/>
</g>
<!-- C&#45;0944 -->
<g id="node20" class="node">
<title>C&#45;0944</title>
<ellipse fill="tomato" stroke="black" cx="1035" cy="-1233.5" rx="72" ry="21.5"/>
<text text-anchor="middle" x="1035" y="-1231" font-family="Arial" font-size="10.00">C&#45;0944</text>
</g>
<!-- C&#45;0944&#45;&gt;ext_circ_113_24_ -->
<g id="edge50" class="edge">
<title>C&#45;0944&#45;&gt;ext_circ_113_24_</title>
<path fill="none" stroke="darkorange" stroke-dasharray="5,2" d="M1066.5,-1214.03C1066.5,-1214.03 1066.5,-1161.01 1066.5,-1161.01"/>
<polygon fill="darkorange" stroke="darkorange" points="1068.95,-1161.01 1066.5,-1154.01 1064.05,-1161.01 1068.95,-1161.01"/>
</g>
<!-- C&#45;1264&#45;&gt;R&#45;066 -->
<g id="edge31" class="edge">
<title>C&#45;1264&#45;&gt;R&#45;066</title>
<path fill="none" stroke="#4d4d4d" d="M1038.5,-615.52C1038.5,-615.52 1038.5,-546.1 1038.5,-546.1"/>
<polygon fill="#4d4d4d" stroke="#4d4d4d" points="1040.95,-546.1 1038.5,-539.1 1036.05,-546.1 1040.95,-546.1"/>
</g>
<!-- C&#45;0789 -->
<g id="node22" class="node">
<title>C&#45;0789</title>
<ellipse fill="tomato" stroke="black" cx="416" cy="-324.5" rx="72" ry="21.5"/>
<text text-anchor="middle" x="416" y="-322" font-family="Arial" font-size="10.00">C&#45;0789</text>
</g>
<!-- C&#45;0789&#45;&gt;ext_circ_114_22_ -->
<g id="edge57" class="edge">
<title>C&#45;0789&#45;&gt;ext_circ_114_22_</title>
<path fill="none" stroke="darkorange" stroke-dasharray="5,2" d="M476.5,-312.77C476.5,-312.77 476.5,-151.17 476.5,-151.17"/>
<polygon fill="darkorange" stroke="darkorange" points="478.95,-151.17 476.5,-144.17 474.05,-151.17 478.95,-151.17"/>
</g>
<!-- ext_circ_109_23_ -->
<g id="node49" class="node">
<title>ext_circ_109_23_</title>
<polygon fill="lightpink" stroke="darkorange" stroke-dasharray="5,2" points="722,-43 578,-43 578,0 722,0 722,-43"/>
<text text-anchor="middle" x="650" y="-24.5" font-family="Arial" font-size="10.00">Circuito:</text>
<text text-anchor="middle" x="650" y="-13.5" font-family="Arial" font-size="10.00">109&#45;23&#45;</text>
</g>
<!-- C&#45;0114&#45;&gt;ext_circ_109_23_ -->
<g id="edge51" class="edge">
<title>C&#45;0114&#45;&gt;ext_circ_109_23_</title>
<path fill="none" stroke="darkorange" stroke-dasharray="5,2" d="M243.5,-1009.93C243.5,-863.48 243.5,-21 243.5,-21 243.5,-21 570.79,-21 570.79,-21"/>
<polygon fill="darkorange" stroke="darkorange" points="570.79,-23.45 577.79,-21 570.79,-18.55 570.79,-23.45"/>
</g>
<!-- S&#45;047 -->
<g id="node24" class="node">
<title>S&#45;047</title>
<polygon fill="mediumseagreen" stroke="black" points="432,-1356 360,-1334.5 432,-1313 504,-1334.5 432,-1356"/>
<text text-anchor="middle" x="432" y="-1332" font-family="Arial" font-size="10.00">S&#45;047</text>
</g>
<!-- R&#45;176 -->
<g id="node25" class="node">
<title>R&#45;176</title>
<polygon fill="tomato" stroke="black" points="983,-1527.59 983,-1545.41 940.82,-1558 881.18,-1558 839,-1545.41 839,-1527.59 881.18,-1515 940.82,-1515 983,-1527.59"/>
<text text-anchor="middle" x="911" y="-1534" font-family="Arial" font-size="10.00">R&#45;176</text>
</g>
<!-- R&#45;176&#45;&gt;ext_circ_109_25_ -->
<g id="edge46" class="edge">
<title>R&#45;176&#45;&gt;ext_circ_109_25_</title>
<path fill="none" stroke="darkorange" stroke-dasharray="5,2" d="M983.22,-1536C993.68,-1536 1001,-1536 1001,-1536 1001,-1536 1001,-1464.31 1001,-1464.31"/>
<polygon fill="darkorange" stroke="darkorange" points="1003.45,-1464.31 1001,-1457.31 998.55,-1464.31 1003.45,-1464.31"/>
</g>
<!-- S&#45;760 -->
<g id="node26" class="node">
<title>S&#45;760</title>
<polygon fill="mediumseagreen" stroke="black" points="855,-1255 783,-1233.5 855,-1212 927,-1233.5 855,-1255"/>
<text text-anchor="middle" x="855" y="-1231" font-family="Arial" font-size="10.00">S&#45;760</text>
</g>
<!-- C&#45;0163&#45;&gt;C&#45;0899 -->
<g id="edge9" class="edge">
<title>C&#45;0163&#45;&gt;C&#45;0899</title>
<path fill="none" stroke="#4d4d4d" d="M720.5,-1728.07C720.5,-1728.07 720.5,-1654.72 720.5,-1654.72"/>
<polygon fill="#4d4d4d" stroke="#4d4d4d" points="722.95,-1654.72 720.5,-1647.72 718.05,-1654.72 722.95,-1654.72"/>
</g>
<!-- C&#45;0163&#45;&gt;C&#45;0792 -->
<g id="edge6" class="edge">
<title>C&#45;0163&#45;&gt;C&#45;0792</title>
<path fill="none" stroke="#4d4d4d" d="M856.37,-1738C947.13,-1738 1091,-1738 1091,-1738 1091,-1738 1091,-1565.06 1091,-1565.06"/>
<polygon fill="#4d4d4d" stroke="#4d4d4d" points="1093.45,-1565.06 1091,-1558.06 1088.55,-1565.06 1093.45,-1565.06"/>
</g>
<!-- C&#45;0163&#45;&gt;C&#45;0012 -->
<g id="edge8" class="edge">
<title>C&#45;0163&#45;&gt;C&#45;0012</title>
<path fill="none" stroke="#4d4d4d" d="M711.63,-1738C620.87,-1738 477,-1738 477,-1738 477,-1738 477,-1666.31 477,-1666.31"/>
<polygon fill="#4d4d4d" stroke="#4d4d4d" points="479.45,-1666.31 477,-1659.31 474.55,-1666.31 479.45,-1666.31"/>
</g>
<!-- C&#45;0163&#45;&gt;R&#45;079 -->
<g id="edge7" class="edge">
<title>C&#45;0163&#45;&gt;R&#45;079</title>
<path fill="none" stroke="#4d4d4d" d="M798,-1717.19C798,-1717.19 798,-1463.78 798,-1463.78"/>
<polygon fill="#4d4d4d" stroke="#4d4d4d" points="800.45,-1463.78 798,-1456.78 795.55,-1463.78 800.45,-1463.78"/>
</g>
<!-- C&#45;0793 -->
<g id="node45" class="node">
<title>C&#45;0793</title>
<ellipse fill="mediumseagreen" stroke="black" cx="911" cy="-1637.5" rx="72" ry="21.5"/>
<text text-anchor="middle" x="911" y="-1635" font-family="Arial" font-size="10.00">C&#45;0793</text>
</g>
<!-- C&#45;0163&#45;&gt;C&#45;0793 -->
<g id="edge4" class="edge">
<title>C&#45;0163&#45;&gt;C&#45;0793</title>
<path fill="none" stroke="#4d4d4d" d="M847.5,-1728.07C847.5,-1728.07 847.5,-1654.72 847.5,-1654.72"/>
<polygon fill="#4d4d4d" stroke="#4d4d4d" points="849.95,-1654.72 847.5,-1647.72 845.05,-1654.72 849.95,-1654.72"/>
</g>
<!-- C&#45;0788 -->
<g id="node28" class="node">
<title>C&#45;0788</title>
<ellipse fill="mediumseagreen" stroke="black" cx="596" cy="-324.5" rx="72" ry="21.5"/>
<text text-anchor="middle" x="596" y="-322" font-family="Arial" font-size="10.00">C&#45;0788</text>
</g>
<!-- C&#45;0788&#45;&gt;R&#45;175 -->
<g id="edge39" class="edge">
<title>C&#45;0788&#45;&gt;R&#45;175</title>
<path fill="none" stroke="#4d4d4d" d="M589,-303.08C589,-303.08 589,-252.24 589,-252.24"/>
<polygon fill="#4d4d4d" stroke="#4d4d4d" points="591.45,-252.24 589,-245.24 586.55,-252.24 591.45,-252.24"/>
</g>
<!-- S&#45;2246 -->
<g id="node33" class="node">
<title>S&#45;2246</title>
<polygon fill="mediumseagreen" stroke="black" points="559,-548 487,-526.5 559,-505 631,-526.5 559,-548"/>
<text text-anchor="middle" x="559" y="-524" font-family="Arial" font-size="10.00">S&#45;2246</text>
</g>
<!-- S&#45;1454&#45;&gt;S&#45;2246 -->
<g id="edge27" class="edge">
<title>S&#45;1454&#45;&gt;S&#45;2246</title>
<path fill="none" stroke="#4d4d4d" d="M559,-605.58C559,-605.58 559,-555.03 559,-555.03"/>
<polygon fill="#4d4d4d" stroke="#4d4d4d" points="561.45,-555.03 559,-548.03 556.55,-555.03 561.45,-555.03"/>
</g>
<!-- C&#45;1265&#45;&gt;S&#45;042 -->
<g id="edge40" class="edge">
<title>C&#45;1265&#45;&gt;S&#45;042</title>
<path fill="none" stroke="#4d4d4d" d="M776,-403.58C776,-403.58 776,-353.03 776,-353.03"/>
<polygon fill="#4d4d4d" stroke="#4d4d4d" points="778.45,-353.03 776,-346.03 773.55,-353.03 778.45,-353.03"/>
</g>
<!-- C&#45;1265&#45;&gt;C&#45;0789 -->
<g id="edge38" class="edge">
<title>C&#45;1265&#45;&gt;C&#45;0789</title>
<path fill="none" stroke="#4d4d4d" d="M703.63,-425C612.87,-425 469,-425 469,-425 469,-425 469,-346.33 469,-346.33"/>
<polygon fill="#4d4d4d" stroke="#4d4d4d" points="471.45,-346.33 469,-339.33 466.55,-346.33 471.45,-346.33"/>
</g>
<!-- C&#45;1265&#45;&gt;C&#45;0788 -->
<g id="edge37" class="edge">
<title>C&#45;1265&#45;&gt;C&#45;0788</title>
<path fill="none" stroke="#4d4d4d" d="M715.1,-414C682.51,-414 649,-414 649,-414 649,-414 649,-346.28 649,-346.28"/>
<polygon fill="#4d4d4d" stroke="#4d4d4d" points="651.45,-346.28 649,-339.28 646.55,-346.28 651.45,-346.28"/>
</g>
<!-- C&#45;0036 -->
<g id="node35" class="node">
<title>C&#45;0036</title>
<ellipse fill="mediumseagreen" stroke="black" cx="956" cy="-324.5" rx="72" ry="21.5"/>
<text text-anchor="middle" x="956" y="-322" font-family="Arial" font-size="10.00">C&#45;0036</text>
</g>
<!-- C&#45;1265&#45;&gt;C&#45;0036 -->
<g id="edge33" class="edge">
<title>C&#45;1265&#45;&gt;C&#45;0036</title>
<path fill="none" stroke="#4d4d4d" d="M848.31,-425C873.23,-425 895,-425 895,-425 895,-425 895,-343.03 895,-343.03"/>
<polygon fill="#4d4d4d" stroke="#4d4d4d" points="897.45,-343.03 895,-336.03 892.55,-343.03 897.45,-343.03"/>
</g>
<!-- S&#45;037 -->
<g id="node31" class="node">
<title>S&#45;037</title>
<polygon fill="mediumseagreen" stroke="black" points="612,-1356 540,-1334.5 612,-1313 684,-1334.5 612,-1356"/>
<text text-anchor="middle" x="612" y="-1332" font-family="Arial" font-size="10.00">S&#45;037</text>
</g>
<!-- R&#45;117&#45;&gt;C&#45;0546 -->
<g id="edge20" class="edge">
<title>R&#45;117&#45;&gt;C&#45;0546</title>
<path fill="none" stroke="#4d4d4d" d="M675,-1211.58C675,-1211.58 675,-1161.03 675,-1161.03"/>
<polygon fill="#4d4d4d" stroke="#4d4d4d" points="677.45,-1161.03 675,-1154.03 672.55,-1161.03 677.45,-1161.03"/>
</g>
<!-- C&#45;0036&#45;&gt;C&#45;0818 -->
<g id="edge35" class="edge">
<title>C&#45;0036&#45;&gt;C&#45;0818</title>
<path fill="none" stroke="#4d4d4d" d="M1017.5,-313.31C1017.5,-313.31 1017.5,-241.74 1017.5,-241.74"/>
<polygon fill="#4d4d4d" stroke="#4d4d4d" points="1019.95,-241.74 1017.5,-234.74 1015.05,-241.74 1019.95,-241.74"/>
</g>
<!-- C&#45;0817 -->
<g id="node36" class="node">
<title>C&#45;0817</title>
<ellipse fill="tomato" stroke="black" cx="912" cy="-122.5" rx="72" ry="21.5"/>
<text text-anchor="middle" x="912" y="-120" font-family="Arial" font-size="10.00">C&#45;0817</text>
</g>
<!-- C&#45;0036&#45;&gt;C&#45;0817 -->
<g id="edge34" class="edge">
<title>C&#45;0036&#45;&gt;C&#45;0817</title>
<path fill="none" stroke="#4d4d4d" d="M934,-304.02C934,-304.02 934,-150.03 934,-150.03"/>
<polygon fill="#4d4d4d" stroke="#4d4d4d" points="936.45,-150.03 934,-143.03 931.55,-150.03 936.45,-150.03"/>
</g>
<!-- ext_circ_114_23_ -->
<g id="node50" class="node">
<title>ext_circ_114_23_</title>
<polygon fill="lightpink" stroke="darkorange" stroke-dasharray="5,2" points="1066,-43 922,-43 922,0 1066,0 1066,-43"/>
<text text-anchor="middle" x="994" y="-24.5" font-family="Arial" font-size="10.00">Circuito:</text>
<text text-anchor="middle" x="994" y="-13.5" font-family="Arial" font-size="10.00">114&#45;23&#45;</text>
</g>
<!-- C&#45;0817&#45;&gt;ext_circ_114_23_ -->
<g id="edge55" class="edge">
<title>C&#45;0817&#45;&gt;ext_circ_114_23_</title>
<path fill="none" stroke="darkorange" stroke-dasharray="5,2" d="M953,-104.44C953,-104.44 953,-50.27 953,-50.27"/>
<polygon fill="darkorange" stroke="darkorange" points="955.45,-50.27 953,-43.27 950.55,-50.27 955.45,-50.27"/>
</g>
<!-- C&#45;0946&#45;&gt;ext_circ_109_23_ -->
<g id="edge59" class="edge">
<title>C&#45;0946&#45;&gt;ext_circ_109_23_</title>
<path fill="none" stroke="darkorange" stroke-dasharray="5,2" d="M688.5,-103.98C688.5,-103.98 688.5,-50.06 688.5,-50.06"/>
<polygon fill="darkorange" stroke="darkorange" points="690.95,-50.06 688.5,-43.06 686.05,-50.06 690.95,-50.06"/>
</g>
<!-- S&#45;1163 -->
<g id="node39" class="node">
<title>S&#45;1163</title>
<polygon fill="mediumseagreen" stroke="black" points="972,-1356 900,-1334.5 972,-1313 1044,-1334.5 972,-1356"/>
<text text-anchor="middle" x="972" y="-1332" font-family="Arial" font-size="10.00">S&#45;1163</text>
</g>
<!-- S&#45;1163&#45;&gt;C&#45;0944 -->
<g id="edge14" class="edge">
<title>S&#45;1163&#45;&gt;C&#45;0944</title>
<path fill="none" stroke="#4d4d4d" d="M1003.5,-1322.12C1003.5,-1322.12 1003.5,-1259.91 1003.5,-1259.91"/>
<polygon fill="#4d4d4d" stroke="#4d4d4d" points="1005.95,-1259.91 1003.5,-1252.91 1001.05,-1259.91 1005.95,-1259.91"/>
</g>
<!-- S&#45;1163&#45;&gt;S&#45;760 -->
<g id="edge13" class="edge">
<title>S&#45;1163&#45;&gt;S&#45;760</title>
<path fill="none" stroke="#4d4d4d" d="M913.5,-1330.16C913.5,-1330.16 913.5,-1244.71 913.5,-1244.71"/>
<polygon fill="#4d4d4d" stroke="#4d4d4d" points="915.95,-1244.71 913.5,-1237.71 911.05,-1244.71 915.95,-1244.71"/>
</g>
<!-- C&#45;0823&#45;&gt;C&#45;0824 -->
<g id="edge53" class="edge">
<title>C&#45;0823&#45;&gt;C&#45;0824</title>
<path fill="none" stroke="blue" stroke-dasharray="5,2" d="M535,-910.01C535,-860.6 535,-739 535,-739 535,-739 669.13,-739 669.13,-739"/>
<polygon fill="blue" stroke="blue" points="669.13,-741.45 676.13,-739 669.13,-736.55 669.13,-741.45"/>
</g>
<!-- C&#45;1263&#45;&gt;C&#45;1265 -->
<g id="edge54" class="edge">
<title>C&#45;1263&#45;&gt;C&#45;1265</title>
<path fill="none" stroke="blue" stroke-dasharray="5,2" d="M397.5,-606.64C397.5,-557.01 397.5,-436 397.5,-436 397.5,-436 706.07,-436 706.07,-436"/>
<polygon fill="blue" stroke="blue" points="706.07,-438.45 713.07,-436 706.07,-433.55 706.07,-438.45"/>
</g>
<!-- C&#45;0897&#45;&gt;S&#45;1468 -->
<g id="edge15" class="edge">
<title>C&#45;0897&#45;&gt;S&#45;1468</title>
<path fill="none" stroke="#4d4d4d" d="M540.01,-1435C434.96,-1435 252,-1435 252,-1435 252,-1435 252,-1363.31 252,-1363.31"/>
<polygon fill="#4d4d4d" stroke="#4d4d4d" points="254.45,-1363.31 252,-1356.31 249.55,-1363.31 254.45,-1363.31"/>
</g>
<!-- C&#45;0897&#45;&gt;C&#45;0367 -->
<g id="edge18" class="edge">
<title>C&#45;0897&#45;&gt;C&#45;0367</title>
<path fill="none" stroke="#4d4d4d" d="M684.2,-1435C706.11,-1435 724.5,-1435 724.5,-1435 724.5,-1435 724.5,-1349.05 724.5,-1349.05"/>
<polygon fill="#4d4d4d" stroke="#4d4d4d" points="726.95,-1349.05 724.5,-1342.05 722.05,-1349.05 726.95,-1349.05"/>
</g>
<!-- C&#45;0897&#45;&gt;C&#45;0545 -->
<g id="edge17" class="edge">
<title>C&#45;0897&#45;&gt;C&#45;0545</title>
<path fill="none" stroke="#4d4d4d" d="M549,-1446C406.55,-1446 72,-1446 72,-1446 72,-1446 72,-1363.26 72,-1363.26"/>
<polygon fill="#4d4d4d" stroke="#4d4d4d" points="74.45,-1363.26 72,-1356.26 69.55,-1363.26 74.45,-1363.26"/>
</g>
<!-- C&#45;0897&#45;&gt;S&#45;047 -->
<g id="edge44" class="edge">
<title>C&#45;0897&#45;&gt;S&#45;047</title>
<path fill="none" stroke="#4d4d4d" d="M551.11,-1424C506.79,-1424 454.5,-1424 454.5,-1424 454.5,-1424 454.5,-1356.68 454.5,-1356.68"/>
<polygon fill="#4d4d4d" stroke="#4d4d4d" points="456.95,-1356.68 454.5,-1349.68 452.05,-1356.68 456.95,-1356.68"/>
</g>
<!-- C&#45;0897&#45;&gt;S&#45;037 -->
<g id="edge45" class="edge">
<title>C&#45;0897&#45;&gt;S&#45;037</title>
<path fill="none" stroke="#4d4d4d" d="M588,-1415.06C588,-1415.06 588,-1356.03 588,-1356.03"/>
<polygon fill="#4d4d4d" stroke="#4d4d4d" points="590.45,-1356.03 588,-1349.03 585.55,-1356.03 590.45,-1356.03"/>
</g>
<!-- C&#45;0897&#45;&gt;S&#45;1163 -->
<g id="edge12" class="edge">
<title>C&#45;0897&#45;&gt;S&#45;1163</title>
<path fill="none" stroke="#4d4d4d" d="M636,-1415.02C636,-1397.47 636,-1375 636,-1375 636,-1375 939.5,-1375 939.5,-1375 939.5,-1375 939.5,-1353.43 939.5,-1353.43"/>
<polygon fill="#4d4d4d" stroke="#4d4d4d" points="941.95,-1353.43 939.5,-1346.43 937.05,-1353.43 941.95,-1353.43"/>
</g>
<!-- R&#45;183&#45;&gt;ext_circ_114_23_ -->
<g id="edge56" class="edge">
<title>R&#45;183&#45;&gt;ext_circ_114_23_</title>
<path fill="none" stroke="darkorange" stroke-dasharray="5,2" d="M1043,-106.72C1043,-106.72 1043,-50.17 1043,-50.17"/>
<polygon fill="darkorange" stroke="darkorange" points="1045.45,-50.17 1043,-43.17 1040.55,-50.17 1045.45,-50.17"/>
</g>
<!-- R&#45;209&#45;&gt;C&#45;0897 -->
<g id="edge11" class="edge">
<title>R&#45;209&#45;&gt;C&#45;0897</title>
<path fill="none" stroke="#4d4d4d" d="M628,-1514.58C628,-1514.58 628,-1463.68 628,-1463.68"/>
<polygon fill="#4d4d4d" stroke="#4d4d4d" points="630.45,-1463.68 628,-1456.68 625.55,-1463.68 630.45,-1463.68"/>
</g>
<!-- C&#45;0793&#45;&gt;R&#45;176 -->
<g id="edge5" class="edge">
<title>C&#45;0793&#45;&gt;R&#45;176</title>
<path fill="none" stroke="#4d4d4d" d="M911,-1615.58C911,-1615.58 911,-1565.03 911,-1565.03"/>
<polygon fill="#4d4d4d" stroke="#4d4d4d" points="913.45,-1565.03 911,-1558.03 908.55,-1565.03 913.45,-1565.03"/>
</g>
<!-- 109&#45;20&#45; -->
<g id="node46" class="node">
<title>109&#45;20&#45;</title>
<polygon fill="gold" stroke="black" points="856,-2036.59 856,-2054.41 813.82,-2067 754.18,-2067 712,-2054.41 712,-2036.59 754.18,-2024 813.82,-2024 856,-2036.59"/>
<polygon fill="none" stroke="black" points="860,-2033.61 860,-2057.39 814.41,-2071 753.59,-2071 708,-2057.39 708,-2033.61 753.59,-2020 814.41,-2020 860,-2033.61"/>
<text text-anchor="middle" x="784" y="-2043" font-family="Arial" font-size="10.00">109&#45;20&#45;</text>
</g>
<!-- 109&#45;20&#45;&#45;&gt;C&#45;0055 -->
<g id="edge1" class="edge">
<title>109&#45;20&#45;&#45;&gt;C&#45;0055</title>
<path fill="none" stroke="#4d4d4d" d="M784,-2019.81C784,-2019.81 784,-1969.03 784,-1969.03"/>
<polygon fill="#4d4d4d" stroke="#4d4d4d" points="786.45,-1969.03 784,-1962.03 781.55,-1969.03 786.45,-1969.03"/>
</g>
</g>
</svg>
