<?xml version="1.0" encoding="UTF-8" standalone="no"?>
<!DOCTYPE svg PUBLIC "-//W3C//DTD SVG 1.1//EN"
 "http://www.w3.org/Graphics/SVG/1.1/DTD/svg11.dtd">
<!-- Generated by graphviz version 2.50.0 (0)
 -->
<!-- Title: Grafo_Circuito_208_23_ Pages: 1 -->
<svg width="1052pt" height="968pt"
 viewBox="0.00 0.00 1052.00 968.00" xmlns="http://www.w3.org/2000/svg" xmlns:xlink="http://www.w3.org/1999/xlink">
<g id="graph0" class="graph" transform="scale(1 1) rotate(0) translate(4 964)">
<title>Grafo_Circuito_208_23_</title>
<polygon fill="white" stroke="transparent" points="-4,4 -4,-964 1048,-964 1048,4 -4,4"/>
<!-- 208&#45;23&#45; -->
<g id="node1" class="node">
<title>208&#45;23&#45;</title>
<polygon fill="gold" stroke="black" points="404,-925.59 404,-943.41 361.82,-956 302.18,-956 260,-943.41 260,-925.59 302.18,-913 361.82,-913 404,-925.59"/>
<polygon fill="none" stroke="black" points="408,-922.61 408,-946.39 362.41,-960 301.59,-960 256,-946.39 256,-922.61 301.59,-909 362.41,-909 408,-922.61"/>
<text text-anchor="middle" x="332" y="-932" font-family="Arial" font-size="10.00">208&#45;23&#45;</text>
</g>
<!-- C&#45;1199 -->
<g id="node2" class="node">
<title>C&#45;1199</title>
<ellipse fill="mediumseagreen" stroke="black" cx="72" cy="-829.5" rx="72" ry="21.5"/>
<text text-anchor="middle" x="72" y="-827" font-family="Arial" font-size="10.00">C&#45;1199</text>
</g>
<!-- 208&#45;23&#45;&#45;&gt;C&#45;1199 -->
<g id="edge24" class="edge">
<title>208&#45;23&#45;&#45;&gt;C&#45;1199</title>
<path fill="none" stroke="#4d4d4d" d="M255.75,-934C179.03,-934 72,-934 72,-934 72,-934 72,-858.15 72,-858.15"/>
<polygon fill="#4d4d4d" stroke="#4d4d4d" points="74.45,-858.15 72,-851.15 69.55,-858.15 74.45,-858.15"/>
</g>
<!-- C&#45;0644 -->
<g id="node13" class="node">
<title>C&#45;0644</title>
<ellipse fill="tomato" stroke="black" cx="252" cy="-829.5" rx="72" ry="21.5"/>
<text text-anchor="middle" x="252" y="-827" font-family="Arial" font-size="10.00">C&#45;0644</text>
</g>
<!-- 208&#45;23&#45;&#45;&gt;C&#45;0644 -->
<g id="edge23" class="edge">
<title>208&#45;23&#45;&#45;&gt;C&#45;0644</title>
<path fill="none" stroke="#4d4d4d" d="M278.67,-915.73C278.67,-915.73 278.67,-856.54 278.67,-856.54"/>
<polygon fill="#4d4d4d" stroke="#4d4d4d" points="281.12,-856.54 278.67,-849.54 276.22,-856.54 281.12,-856.54"/>
</g>
<!-- S&#45;266 -->
<g id="node15" class="node">
<title>S&#45;266</title>
<polygon fill="mediumseagreen" stroke="black" points="432,-851 360,-829.5 432,-808 504,-829.5 432,-851"/>
<text text-anchor="middle" x="432" y="-827" font-family="Arial" font-size="10.00">S&#45;266</text>
</g>
<!-- 208&#45;23&#45;&#45;&gt;S&#45;266 -->
<g id="edge1" class="edge">
<title>208&#45;23&#45;&#45;&gt;S&#45;266</title>
<path fill="none" stroke="#4d4d4d" d="M376,-913C376,-913 376,-841.57 376,-841.57"/>
<polygon fill="#4d4d4d" stroke="#4d4d4d" points="378.45,-841.57 376,-834.57 373.55,-841.57 378.45,-841.57"/>
</g>
<!-- R&#45;006 -->
<g id="node25" class="node">
<title>R&#45;006</title>
<polygon fill="mediumseagreen" stroke="black" points="684,-820.59 684,-838.41 641.82,-851 582.18,-851 540,-838.41 540,-820.59 582.18,-808 641.82,-808 684,-820.59"/>
<text text-anchor="middle" x="612" y="-827" font-family="Arial" font-size="10.00">R&#45;006</text>
</g>
<!-- 208&#45;23&#45;&#45;&gt;R&#45;006 -->
<g id="edge3" class="edge">
<title>208&#45;23&#45;&#45;&gt;R&#45;006</title>
<path fill="none" stroke="#4d4d4d" d="M392,-917.82C392,-904.83 392,-889 392,-889 392,-889 565,-889 565,-889 565,-889 565,-853.07 565,-853.07"/>
<polygon fill="#4d4d4d" stroke="#4d4d4d" points="567.45,-853.07 565,-846.07 562.55,-853.07 567.45,-853.07"/>
</g>
<!-- C&#45;0869 -->
<g id="node3" class="node">
<title>C&#45;0869</title>
<ellipse fill="mediumseagreen" stroke="black" cx="252" cy="-526.5" rx="72" ry="21.5"/>
<text text-anchor="middle" x="252" y="-524" font-family="Arial" font-size="10.00">C&#45;0869</text>
</g>
<!-- R&#45;200 -->
<g id="node16" class="node">
<title>R&#45;200</title>
<polygon fill="mediumseagreen" stroke="black" points="324,-416.59 324,-434.41 281.82,-447 222.18,-447 180,-434.41 180,-416.59 222.18,-404 281.82,-404 324,-416.59"/>
<text text-anchor="middle" x="252" y="-423" font-family="Arial" font-size="10.00">R&#45;200</text>
</g>
<!-- C&#45;0869&#45;&gt;R&#45;200 -->
<g id="edge11" class="edge">
<title>C&#45;0869&#45;&gt;R&#45;200</title>
<path fill="none" stroke="#4d4d4d" d="M252,-504.58C252,-504.58 252,-454.03 252,-454.03"/>
<polygon fill="#4d4d4d" stroke="#4d4d4d" points="254.45,-454.03 252,-447.03 249.55,-454.03 254.45,-454.03"/>
</g>
<!-- S&#45;1547 -->
<g id="node4" class="node">
<title>S&#45;1547</title>
<polygon fill="mediumseagreen" stroke="black" points="792,-649 720,-627.5 792,-606 864,-627.5 792,-649"/>
<text text-anchor="middle" x="792" y="-625" font-family="Arial" font-size="10.00">S&#45;1547</text>
</g>
<!-- S&#45;1110 -->
<g id="node23" class="node">
<title>S&#45;1110</title>
<polygon fill="mediumseagreen" stroke="black" points="972,-548 900,-526.5 972,-505 1044,-526.5 972,-548"/>
<text text-anchor="middle" x="972" y="-524" font-family="Arial" font-size="10.00">S&#45;1110</text>
</g>
<!-- S&#45;1547&#45;&gt;S&#45;1110 -->
<g id="edge6" class="edge">
<title>S&#45;1547&#45;&gt;S&#45;1110</title>
<path fill="none" stroke="#4d4d4d" d="M862.72,-627C897.06,-627 931,-627 931,-627 931,-627 931,-542.77 931,-542.77"/>
<polygon fill="#4d4d4d" stroke="#4d4d4d" points="933.45,-542.77 931,-535.77 928.55,-542.77 933.45,-542.77"/>
</g>
<!-- R&#45;174 -->
<g id="node5" class="node">
<title>R&#45;174</title>
<polygon fill="tomato" stroke="black" points="684,-416.59 684,-434.41 641.82,-447 582.18,-447 540,-434.41 540,-416.59 582.18,-404 641.82,-404 684,-416.59"/>
<text text-anchor="middle" x="612" y="-423" font-family="Arial" font-size="10.00">R&#45;174</text>
</g>
<!-- ext_circ_208_25_ -->
<g id="node27" class="node">
<title>ext_circ_208_25_</title>
<polygon fill="lightpink" stroke="darkorange" stroke-dasharray="5,2" points="962,-956 818,-956 818,-913 962,-913 962,-956"/>
<text text-anchor="middle" x="890" y="-937.5" font-family="Arial" font-size="10.00">Circuito:</text>
<text text-anchor="middle" x="890" y="-926.5" font-family="Arial" font-size="10.00">208&#45;25&#45;</text>
</g>
<!-- R&#45;174&#45;&gt;ext_circ_208_25_ -->
<g id="edge27" class="edge">
<title>R&#45;174&#45;&gt;ext_circ_208_25_</title>
<path fill="none" stroke="darkorange" stroke-dasharray="5,2" d="M684,-425C763.98,-425 882,-425 882,-425 882,-425 882,-905.93 882,-905.93"/>
<polygon fill="darkorange" stroke="darkorange" points="879.55,-905.93 882,-912.93 884.45,-905.93 879.55,-905.93"/>
</g>
<!-- C&#45;0871 -->
<g id="node6" class="node">
<title>C&#45;0871</title>
<ellipse fill="mediumseagreen" stroke="black" cx="252" cy="-324.5" rx="72" ry="21.5"/>
<text text-anchor="middle" x="252" y="-322" font-family="Arial" font-size="10.00">C&#45;0871</text>
</g>
<!-- S&#45;304 -->
<g id="node8" class="node">
<title>S&#45;304</title>
<polygon fill="mediumseagreen" stroke="black" points="72,-245 0,-223.5 72,-202 144,-223.5 72,-245"/>
<text text-anchor="middle" x="72" y="-221" font-family="Arial" font-size="10.00">S&#45;304</text>
</g>
<!-- C&#45;0871&#45;&gt;S&#45;304 -->
<g id="edge13" class="edge">
<title>C&#45;0871&#45;&gt;S&#45;304</title>
<path fill="none" stroke="#4d4d4d" d="M179.82,-324C129.75,-324 72,-324 72,-324 72,-324 72,-252.31 72,-252.31"/>
<polygon fill="#4d4d4d" stroke="#4d4d4d" points="74.45,-252.31 72,-245.31 69.55,-252.31 74.45,-252.31"/>
</g>
<!-- C&#45;1193 -->
<g id="node11" class="node">
<title>C&#45;1193</title>
<ellipse fill="mediumseagreen" stroke="black" cx="252" cy="-223.5" rx="72" ry="21.5"/>
<text text-anchor="middle" x="252" y="-221" font-family="Arial" font-size="10.00">C&#45;1193</text>
</g>
<!-- C&#45;0871&#45;&gt;C&#45;1193 -->
<g id="edge17" class="edge">
<title>C&#45;0871&#45;&gt;C&#45;1193</title>
<path fill="none" stroke="#4d4d4d" d="M252,-302.58C252,-302.58 252,-252.03 252,-252.03"/>
<polygon fill="#4d4d4d" stroke="#4d4d4d" points="254.45,-252.03 252,-245.03 249.55,-252.03 254.45,-252.03"/>
</g>
<!-- S&#45;305 -->
<g id="node18" class="node">
<title>S&#45;305</title>
<polygon fill="mediumseagreen" stroke="black" points="432,-245 360,-223.5 432,-202 504,-223.5 432,-245"/>
<text text-anchor="middle" x="432" y="-221" font-family="Arial" font-size="10.00">S&#45;305</text>
</g>
<!-- C&#45;0871&#45;&gt;S&#45;305 -->
<g id="edge14" class="edge">
<title>C&#45;0871&#45;&gt;S&#45;305</title>
<path fill="none" stroke="#4d4d4d" d="M319.65,-317C379.03,-317 456,-317 456,-317 456,-317 456,-245.11 456,-245.11"/>
<polygon fill="#4d4d4d" stroke="#4d4d4d" points="458.45,-245.11 456,-238.11 453.55,-245.11 458.45,-245.11"/>
</g>
<!-- C&#45;0870 -->
<g id="node7" class="node">
<title>C&#45;0870</title>
<ellipse fill="tomato" stroke="black" cx="432" cy="-526.5" rx="72" ry="21.5"/>
<text text-anchor="middle" x="432" y="-524" font-family="Arial" font-size="10.00">C&#45;0870</text>
</g>
<!-- C&#45;0870&#45;&gt;C&#45;0871 -->
<g id="edge25" class="edge">
<title>C&#45;0870&#45;&gt;C&#45;0871</title>
<path fill="none" stroke="blue" stroke-dasharray="5,2" d="M408,-505.95C408,-455.75 408,-331 408,-331 408,-331 327.88,-331 327.88,-331"/>
<polygon fill="blue" stroke="blue" points="327.88,-328.55 320.88,-331 327.88,-333.45 327.88,-328.55"/>
</g>
<!-- S&#45;307 -->
<g id="node9" class="node">
<title>S&#45;307</title>
<polygon fill="mediumseagreen" stroke="black" points="432,-43 360,-21.5 432,0 504,-21.5 432,-43"/>
<text text-anchor="middle" x="432" y="-19" font-family="Arial" font-size="10.00">S&#45;307</text>
</g>
<!-- C&#45;0327 -->
<g id="node10" class="node">
<title>C&#45;0327</title>
<ellipse fill="mediumseagreen" stroke="black" cx="612" cy="-728.5" rx="72" ry="21.5"/>
<text text-anchor="middle" x="612" y="-726" font-family="Arial" font-size="10.00">C&#45;0327</text>
</g>
<!-- S&#45;278 -->
<g id="node19" class="node">
<title>S&#45;278</title>
<polygon fill="mediumseagreen" stroke="black" points="432,-649 360,-627.5 432,-606 504,-627.5 432,-649"/>
<text text-anchor="middle" x="432" y="-625" font-family="Arial" font-size="10.00">S&#45;278</text>
</g>
<!-- C&#45;0327&#45;&gt;S&#45;278 -->
<g id="edge22" class="edge">
<title>C&#45;0327&#45;&gt;S&#45;278</title>
<path fill="none" stroke="#4d4d4d" d="M539.73,-728C526.09,-728 516,-728 516,-728 516,-728 516,-634 516,-634 516,-634 489.32,-634 489.32,-634"/>
<polygon fill="#4d4d4d" stroke="#4d4d4d" points="489.32,-631.55 482.32,-634 489.32,-636.45 489.32,-631.55"/>
</g>
<!-- R&#45;007 -->
<g id="node24" class="node">
<title>R&#45;007</title>
<polygon fill="mediumseagreen" stroke="black" points="684,-618.59 684,-636.41 641.82,-649 582.18,-649 540,-636.41 540,-618.59 582.18,-606 641.82,-606 684,-618.59"/>
<text text-anchor="middle" x="612" y="-625" font-family="Arial" font-size="10.00">R&#45;007</text>
</g>
<!-- C&#45;0327&#45;&gt;R&#45;007 -->
<g id="edge8" class="edge">
<title>C&#45;0327&#45;&gt;R&#45;007</title>
<path fill="none" stroke="#4d4d4d" d="M612,-706.58C612,-706.58 612,-656.03 612,-656.03"/>
<polygon fill="#4d4d4d" stroke="#4d4d4d" points="614.45,-656.03 612,-649.03 609.55,-656.03 614.45,-656.03"/>
</g>
<!-- R&#45;294 -->
<g id="node21" class="node">
<title>R&#45;294</title>
<polygon fill="tomato" stroke="black" points="324,-113.59 324,-131.41 281.82,-144 222.18,-144 180,-131.41 180,-113.59 222.18,-101 281.82,-101 324,-113.59"/>
<text text-anchor="middle" x="252" y="-120" font-family="Arial" font-size="10.00">R&#45;294</text>
</g>
<!-- C&#45;1193&#45;&gt;R&#45;294 -->
<g id="edge18" class="edge">
<title>C&#45;1193&#45;&gt;R&#45;294</title>
<path fill="none" stroke="#4d4d4d" d="M228,-203.06C228,-203.06 228,-151.31 228,-151.31"/>
<polygon fill="#4d4d4d" stroke="#4d4d4d" points="230.45,-151.31 228,-144.31 225.55,-151.31 230.45,-151.31"/>
</g>
<!-- C&#45;0787 -->
<g id="node12" class="node">
<title>C&#45;0787</title>
<ellipse fill="mediumseagreen" stroke="black" cx="612" cy="-526.5" rx="72" ry="21.5"/>
<text text-anchor="middle" x="612" y="-524" font-family="Arial" font-size="10.00">C&#45;0787</text>
</g>
<!-- C&#45;0787&#45;&gt;R&#45;174 -->
<g id="edge21" class="edge">
<title>C&#45;0787&#45;&gt;R&#45;174</title>
<path fill="none" stroke="#4d4d4d" d="M612,-504.58C612,-504.58 612,-454.03 612,-454.03"/>
<polygon fill="#4d4d4d" stroke="#4d4d4d" points="614.45,-454.03 612,-447.03 609.55,-454.03 614.45,-454.03"/>
</g>
<!-- ext_circ_208_24_ -->
<g id="node28" class="node">
<title>ext_circ_208_24_</title>
<polygon fill="lightpink" stroke="darkorange" stroke-dasharray="5,2" points="590,-956 446,-956 446,-913 590,-913 590,-956"/>
<text text-anchor="middle" x="518" y="-937.5" font-family="Arial" font-size="10.00">Circuito:</text>
<text text-anchor="middle" x="518" y="-926.5" font-family="Arial" font-size="10.00">208&#45;24&#45;</text>
</g>
<!-- C&#45;0644&#45;&gt;ext_circ_208_24_ -->
<g id="edge28" class="edge">
<title>C&#45;0644&#45;&gt;ext_circ_208_24_</title>
<path fill="none" stroke="darkorange" stroke-dasharray="5,2" d="M301.33,-845.51C301.33,-856.83 301.33,-870 301.33,-870 301.33,-870 475,-870 475,-870 475,-870 475,-905.66 475,-905.66"/>
<polygon fill="darkorange" stroke="darkorange" points="472.55,-905.66 475,-912.66 477.45,-905.66 472.55,-905.66"/>
</g>
<!-- S&#45;306 -->
<g id="node14" class="node">
<title>S&#45;306</title>
<polygon fill="mediumseagreen" stroke="black" points="432,-144 360,-122.5 432,-101 504,-122.5 432,-144"/>
<text text-anchor="middle" x="432" y="-120" font-family="Arial" font-size="10.00">S&#45;306</text>
</g>
<!-- S&#45;306&#45;&gt;S&#45;307 -->
<g id="edge16" class="edge">
<title>S&#45;306&#45;&gt;S&#45;307</title>
<path fill="none" stroke="#4d4d4d" d="M432,-100.58C432,-100.58 432,-50.03 432,-50.03"/>
<polygon fill="#4d4d4d" stroke="#4d4d4d" points="434.45,-50.03 432,-43.03 429.55,-50.03 434.45,-50.03"/>
</g>
<!-- S&#45;2438 -->
<g id="node17" class="node">
<title>S&#45;2438</title>
<polygon fill="mediumseagreen" stroke="black" points="432,-750 360,-728.5 432,-707 504,-728.5 432,-750"/>
<text text-anchor="middle" x="432" y="-726" font-family="Arial" font-size="10.00">S&#45;2438</text>
</g>
<!-- S&#45;266&#45;&gt;S&#45;2438 -->
<g id="edge2" class="edge">
<title>S&#45;266&#45;&gt;S&#45;2438</title>
<path fill="none" stroke="#4d4d4d" d="M432,-807.58C432,-807.58 432,-757.03 432,-757.03"/>
<polygon fill="#4d4d4d" stroke="#4d4d4d" points="434.45,-757.03 432,-750.03 429.55,-757.03 434.45,-757.03"/>
</g>
<!-- R&#45;200&#45;&gt;C&#45;0871 -->
<g id="edge12" class="edge">
<title>R&#45;200&#45;&gt;C&#45;0871</title>
<path fill="none" stroke="#4d4d4d" d="M252,-403.58C252,-403.58 252,-353.03 252,-353.03"/>
<polygon fill="#4d4d4d" stroke="#4d4d4d" points="254.45,-353.03 252,-346.03 249.55,-353.03 254.45,-353.03"/>
</g>
<!-- S&#45;305&#45;&gt;S&#45;306 -->
<g id="edge15" class="edge">
<title>S&#45;305&#45;&gt;S&#45;306</title>
<path fill="none" stroke="#4d4d4d" d="M432,-201.58C432,-201.58 432,-151.03 432,-151.03"/>
<polygon fill="#4d4d4d" stroke="#4d4d4d" points="434.45,-151.03 432,-144.03 429.55,-151.03 434.45,-151.03"/>
</g>
<!-- S&#45;279 -->
<g id="node20" class="node">
<title>S&#45;279</title>
<polygon fill="mediumseagreen" stroke="black" points="792,-750 720,-728.5 792,-707 864,-728.5 792,-750"/>
<text text-anchor="middle" x="792" y="-726" font-family="Arial" font-size="10.00">S&#45;279</text>
</g>
<!-- S&#45;279&#45;&gt;S&#45;1547 -->
<g id="edge5" class="edge">
<title>S&#45;279&#45;&gt;S&#45;1547</title>
<path fill="none" stroke="#4d4d4d" d="M792,-706.58C792,-706.58 792,-656.03 792,-656.03"/>
<polygon fill="#4d4d4d" stroke="#4d4d4d" points="794.45,-656.03 792,-649.03 789.55,-656.03 794.45,-656.03"/>
</g>
<!-- ext_circ_205_23_ -->
<g id="node26" class="node">
<title>ext_circ_205_23_</title>
<polygon fill="lightpink" stroke="darkorange" stroke-dasharray="5,2" points="774,-956 630,-956 630,-913 774,-913 774,-956"/>
<text text-anchor="middle" x="702" y="-937.5" font-family="Arial" font-size="10.00">Circuito:</text>
<text text-anchor="middle" x="702" y="-926.5" font-family="Arial" font-size="10.00">205&#45;23&#45;</text>
</g>
<!-- R&#45;294&#45;&gt;ext_circ_205_23_ -->
<g id="edge26" class="edge">
<title>R&#45;294&#45;&gt;ext_circ_205_23_</title>
<path fill="none" stroke="darkorange" stroke-dasharray="5,2" d="M276,-144.21C276,-157.9 276,-173 276,-173 276,-173 696,-173 696,-173 696,-173 696,-905.94 696,-905.94"/>
<polygon fill="darkorange" stroke="darkorange" points="693.55,-905.94 696,-912.94 698.45,-905.94 693.55,-905.94"/>
</g>
<!-- S&#45;303 -->
<g id="node22" class="node">
<title>S&#45;303</title>
<polygon fill="mediumseagreen" stroke="black" points="792,-548 720,-526.5 792,-505 864,-526.5 792,-548"/>
<text text-anchor="middle" x="792" y="-524" font-family="Arial" font-size="10.00">S&#45;303</text>
</g>
<!-- R&#45;007&#45;&gt;C&#45;0869 -->
<g id="edge10" class="edge">
<title>R&#45;007&#45;&gt;C&#45;0869</title>
<path fill="none" stroke="#4d4d4d" d="M588,-605.79C588,-592.1 588,-577 588,-577 588,-577 252,-577 252,-577 252,-577 252,-555.21 252,-555.21"/>
<polygon fill="#4d4d4d" stroke="#4d4d4d" points="254.45,-555.21 252,-548.21 249.55,-555.21 254.45,-555.21"/>
</g>
<!-- R&#45;007&#45;&gt;C&#45;0870 -->
<g id="edge9" class="edge">
<title>R&#45;007&#45;&gt;C&#45;0870</title>
<path fill="none" stroke="#4d4d4d" d="M539.68,-620C532.61,-620 528,-620 528,-620 528,-620 528,-526 528,-526 528,-526 511.27,-526 511.27,-526"/>
<polygon fill="#4d4d4d" stroke="#4d4d4d" points="511.27,-523.55 504.27,-526 511.27,-528.45 511.27,-523.55"/>
</g>
<!-- R&#45;007&#45;&gt;C&#45;0787 -->
<g id="edge20" class="edge">
<title>R&#45;007&#45;&gt;C&#45;0787</title>
<path fill="none" stroke="#4d4d4d" d="M636,-605.58C636,-605.58 636,-554 636,-554"/>
<polygon fill="#4d4d4d" stroke="#4d4d4d" points="638.45,-554 636,-547 633.55,-554 638.45,-554"/>
</g>
<!-- R&#45;007&#45;&gt;S&#45;303 -->
<g id="edge19" class="edge">
<title>R&#45;007&#45;&gt;S&#45;303</title>
<path fill="none" stroke="#4d4d4d" d="M684.27,-627C697.91,-627 708,-627 708,-627 708,-627 708,-526 708,-526 708,-526 714.5,-526 714.5,-526"/>
<polygon fill="#4d4d4d" stroke="#4d4d4d" points="714.5,-528.45 721.5,-526 714.5,-523.55 714.5,-528.45"/>
</g>
<!-- R&#45;006&#45;&gt;C&#45;0327 -->
<g id="edge7" class="edge">
<title>R&#45;006&#45;&gt;C&#45;0327</title>
<path fill="none" stroke="#4d4d4d" d="M612,-807.58C612,-807.58 612,-757.03 612,-757.03"/>
<polygon fill="#4d4d4d" stroke="#4d4d4d" points="614.45,-757.03 612,-750.03 609.55,-757.03 614.45,-757.03"/>
</g>
<!-- R&#45;006&#45;&gt;S&#45;279 -->
<g id="edge4" class="edge">
<title>R&#45;006&#45;&gt;S&#45;279</title>
<path fill="none" stroke="#4d4d4d" d="M684.24,-829C716.34,-829 747,-829 747,-829 747,-829 747,-743.72 747,-743.72"/>
<polygon fill="#4d4d4d" stroke="#4d4d4d" points="749.45,-743.72 747,-736.72 744.55,-743.72 749.45,-743.72"/>
</g>
</g>
</svg>
