<?xml version="1.0" encoding="UTF-8" standalone="no"?>
<!DOCTYPE svg PUBLIC "-//W3C//DTD SVG 1.1//EN"
 "http://www.w3.org/Graphics/SVG/1.1/DTD/svg11.dtd">
<!-- Generated by graphviz version 2.50.0 (0)
 -->
<!-- Title: Grafo_Circuito_101_32 Pages: 1 -->
<svg width="1096pt" height="898pt"
 viewBox="0.00 0.00 1096.00 898.00" xmlns="http://www.w3.org/2000/svg" xmlns:xlink="http://www.w3.org/1999/xlink">
<g id="graph0" class="graph" transform="scale(1 1) rotate(0) translate(4 894)">
<title>Grafo_Circuito_101_32</title>
<polygon fill="white" stroke="transparent" points="-4,4 -4,-894 1092,-894 1092,4 -4,4"/>
<!-- S&#45;2389 -->
<g id="node1" class="node">
<title>S&#45;2389</title>
<polygon fill="mediumseagreen" stroke="black" points="457.5,-318 389,-300 457.5,-282 526,-300 457.5,-318"/>
<text text-anchor="middle" x="457.5" y="-298.1" font-family="Helvetica,sans-Serif" font-size="8.00">S&#45;2389</text>
</g>
<!-- C&#45;0432 -->
<g id="node2" class="node">
<title>C&#45;0432</title>
<ellipse fill="mediumseagreen" stroke="black" cx="606.5" cy="-18" rx="68.5" ry="18"/>
<text text-anchor="middle" x="606.5" y="-16.1" font-family="Helvetica,sans-Serif" font-size="8.00">C&#45;0432</text>
</g>
<!-- C&#45;0221 -->
<g id="node3" class="node">
<title>C&#45;0221</title>
<ellipse fill="mediumseagreen" stroke="black" cx="414.5" cy="-582" rx="68.5" ry="18"/>
<text text-anchor="middle" x="414.5" y="-580.1" font-family="Helvetica,sans-Serif" font-size="8.00">C&#45;0221</text>
</g>
<!-- R&#45;022 -->
<g id="node7" class="node">
<title>R&#45;022</title>
<polygon fill="mediumseagreen" stroke="black" points="223,-480.54 223,-495.46 182.87,-506 126.13,-506 86,-495.46 86,-480.54 126.13,-470 182.87,-470 223,-480.54"/>
<text text-anchor="middle" x="154.5" y="-486.1" font-family="Helvetica,sans-Serif" font-size="8.00">R&#45;022</text>
</g>
<!-- C&#45;0221&#45;&gt;R&#45;022 -->
<g id="edge19" class="edge">
<title>C&#45;0221&#45;&gt;R&#45;022</title>
<path fill="none" stroke="dimgray" stroke-width="0.8" d="M345.85,-582C268.82,-582 154.5,-582 154.5,-582 154.5,-582 154.5,-513.12 154.5,-513.12"/>
<polygon fill="dimgray" stroke="dimgray" stroke-width="0.8" points="156.95,-513.12 154.5,-506.12 152.05,-513.12 156.95,-513.12"/>
</g>
<!-- C&#45;1249 -->
<g id="node13" class="node">
<title>C&#45;1249</title>
<ellipse fill="tomato" stroke="black" cx="327.5" cy="-488" rx="68.5" ry="18"/>
<text text-anchor="middle" x="327.5" y="-486.1" font-family="Helvetica,sans-Serif" font-size="8.00">C&#45;1249</text>
</g>
<!-- C&#45;0221&#45;&gt;C&#45;1249 -->
<g id="edge18" class="edge">
<title>C&#45;0221&#45;&gt;C&#45;1249</title>
<path fill="none" stroke="dimgray" stroke-width="0.8" d="M371,-567.72C371,-567.72 371,-509.1 371,-509.1"/>
<polygon fill="dimgray" stroke="dimgray" stroke-width="0.8" points="373.45,-509.1 371,-502.1 368.55,-509.1 373.45,-509.1"/>
</g>
<!-- C&#45;0136 -->
<g id="node19" class="node">
<title>C&#45;0136</title>
<ellipse fill="mediumseagreen" stroke="black" cx="500.5" cy="-488" rx="68.5" ry="18"/>
<text text-anchor="middle" x="500.5" y="-486.1" font-family="Helvetica,sans-Serif" font-size="8.00">C&#45;0136</text>
</g>
<!-- C&#45;0221&#45;&gt;C&#45;0136 -->
<g id="edge10" class="edge">
<title>C&#45;0221&#45;&gt;C&#45;0136</title>
<path fill="none" stroke="dimgray" stroke-width="0.8" d="M457.5,-567.72C457.5,-567.72 457.5,-509.1 457.5,-509.1"/>
<polygon fill="dimgray" stroke="dimgray" stroke-width="0.8" points="459.95,-509.1 457.5,-502.1 455.05,-509.1 459.95,-509.1"/>
</g>
<!-- C&#45;0132 -->
<g id="node4" class="node">
<title>C&#45;0132</title>
<ellipse fill="mediumseagreen" stroke="black" cx="759.5" cy="-770" rx="68.5" ry="18"/>
<text text-anchor="middle" x="759.5" y="-768.1" font-family="Helvetica,sans-Serif" font-size="8.00">C&#45;0132</text>
</g>
<!-- C&#45;0676 -->
<g id="node23" class="node">
<title>C&#45;0676</title>
<ellipse fill="mediumseagreen" stroke="black" cx="759.5" cy="-676" rx="68.5" ry="18"/>
<text text-anchor="middle" x="759.5" y="-674.1" font-family="Helvetica,sans-Serif" font-size="8.00">C&#45;0676</text>
</g>
<!-- C&#45;0132&#45;&gt;C&#45;0676 -->
<g id="edge2" class="edge">
<title>C&#45;0132&#45;&gt;C&#45;0676</title>
<path fill="none" stroke="dimgray" stroke-width="0.8" d="M759.5,-751.88C759.5,-751.88 759.5,-701.07 759.5,-701.07"/>
<polygon fill="dimgray" stroke="dimgray" stroke-width="0.8" points="761.95,-701.07 759.5,-694.07 757.05,-701.07 761.95,-701.07"/>
</g>
<!-- R&#45;145 -->
<g id="node5" class="node">
<title>R&#45;145</title>
<polygon fill="mediumseagreen" stroke="black" points="699,-198.54 699,-213.46 658.87,-224 602.13,-224 562,-213.46 562,-198.54 602.13,-188 658.87,-188 699,-198.54"/>
<text text-anchor="middle" x="630.5" y="-204.1" font-family="Helvetica,sans-Serif" font-size="8.00">R&#45;145</text>
</g>
<!-- C&#45;0426 -->
<g id="node8" class="node">
<title>C&#45;0426</title>
<ellipse fill="mediumseagreen" stroke="black" cx="630.5" cy="-112" rx="68.5" ry="18"/>
<text text-anchor="middle" x="630.5" y="-110.1" font-family="Helvetica,sans-Serif" font-size="8.00">C&#45;0426</text>
</g>
<!-- R&#45;145&#45;&gt;C&#45;0426 -->
<g id="edge15" class="edge">
<title>R&#45;145&#45;&gt;C&#45;0426</title>
<path fill="none" stroke="dimgray" stroke-width="0.8" d="M630.5,-187.88C630.5,-187.88 630.5,-137.07 630.5,-137.07"/>
<polygon fill="dimgray" stroke="dimgray" stroke-width="0.8" points="632.95,-137.07 630.5,-130.07 628.05,-137.07 632.95,-137.07"/>
</g>
<!-- S&#45;1403 -->
<g id="node6" class="node">
<title>S&#45;1403</title>
<polygon fill="mediumseagreen" stroke="black" points="68.5,-318 0,-300 68.5,-282 137,-300 68.5,-318"/>
<text text-anchor="middle" x="68.5" y="-298.1" font-family="Helvetica,sans-Serif" font-size="8.00">S&#45;1403</text>
</g>
<!-- C&#45;0197 -->
<g id="node17" class="node">
<title>C&#45;0197</title>
<ellipse fill="mediumseagreen" stroke="black" cx="154.5" cy="-394" rx="68.5" ry="18"/>
<text text-anchor="middle" x="154.5" y="-392.1" font-family="Helvetica,sans-Serif" font-size="8.00">C&#45;0197</text>
</g>
<!-- R&#45;022&#45;&gt;C&#45;0197 -->
<g id="edge20" class="edge">
<title>R&#45;022&#45;&gt;C&#45;0197</title>
<path fill="none" stroke="dimgray" stroke-width="0.8" d="M154.5,-469.88C154.5,-469.88 154.5,-419.07 154.5,-419.07"/>
<polygon fill="dimgray" stroke="dimgray" stroke-width="0.8" points="156.95,-419.07 154.5,-412.07 152.05,-419.07 156.95,-419.07"/>
</g>
<!-- C&#45;0426&#45;&gt;C&#45;0432 -->
<g id="edge17" class="edge">
<title>C&#45;0426&#45;&gt;C&#45;0432</title>
<path fill="none" stroke="dimgray" stroke-width="0.8" d="M618.5,-93.88C618.5,-93.88 618.5,-42.75 618.5,-42.75"/>
<polygon fill="dimgray" stroke="dimgray" stroke-width="0.8" points="620.95,-42.75 618.5,-35.75 616.05,-42.75 620.95,-42.75"/>
</g>
<!-- C&#45;0433 -->
<g id="node22" class="node">
<title>C&#45;0433</title>
<ellipse fill="tomato" stroke="black" cx="779.5" cy="-18" rx="68.5" ry="18"/>
<text text-anchor="middle" x="779.5" y="-16.1" font-family="Helvetica,sans-Serif" font-size="8.00">C&#45;0433</text>
</g>
<!-- C&#45;0426&#45;&gt;C&#45;0433 -->
<g id="edge16" class="edge">
<title>C&#45;0426&#45;&gt;C&#45;0433</title>
<path fill="none" stroke="dimgray" stroke-width="0.8" d="M687,-101.58C687,-77.11 687,-18 687,-18 687,-18 703.82,-18 703.82,-18"/>
<polygon fill="dimgray" stroke="dimgray" stroke-width="0.8" points="703.82,-20.45 710.82,-18 703.82,-15.55 703.82,-20.45"/>
</g>
<!-- C&#45;0728 -->
<g id="node9" class="node">
<title>C&#45;0728</title>
<ellipse fill="mediumseagreen" stroke="black" cx="673.5" cy="-582" rx="68.5" ry="18"/>
<text text-anchor="middle" x="673.5" y="-580.1" font-family="Helvetica,sans-Serif" font-size="8.00">C&#45;0728</text>
</g>
<!-- S&#45;2476 -->
<g id="node12" class="node">
<title>S&#45;2476</title>
<polygon fill="mediumseagreen" stroke="black" points="673.5,-506 605,-488 673.5,-470 742,-488 673.5,-506"/>
<text text-anchor="middle" x="673.5" y="-486.1" font-family="Helvetica,sans-Serif" font-size="8.00">S&#45;2476</text>
</g>
<!-- C&#45;0728&#45;&gt;S&#45;2476 -->
<g id="edge5" class="edge">
<title>C&#45;0728&#45;&gt;S&#45;2476</title>
<path fill="none" stroke="dimgray" stroke-width="0.8" d="M673.5,-563.88C673.5,-563.88 673.5,-513.07 673.5,-513.07"/>
<polygon fill="dimgray" stroke="dimgray" stroke-width="0.8" points="675.95,-513.07 673.5,-506.07 671.05,-513.07 675.95,-513.07"/>
</g>
<!-- C&#45;0434 -->
<g id="node10" class="node">
<title>C&#45;0434</title>
<ellipse fill="mediumseagreen" stroke="black" cx="846.5" cy="-582" rx="68.5" ry="18"/>
<text text-anchor="middle" x="846.5" y="-580.1" font-family="Helvetica,sans-Serif" font-size="8.00">C&#45;0434</text>
</g>
<!-- C&#45;0643 -->
<g id="node20" class="node">
<title>C&#45;0643</title>
<ellipse fill="mediumseagreen" stroke="black" cx="846.5" cy="-488" rx="68.5" ry="18"/>
<text text-anchor="middle" x="846.5" y="-486.1" font-family="Helvetica,sans-Serif" font-size="8.00">C&#45;0643</text>
</g>
<!-- C&#45;0434&#45;&gt;C&#45;0643 -->
<g id="edge6" class="edge">
<title>C&#45;0434&#45;&gt;C&#45;0643</title>
<path fill="none" stroke="dimgray" stroke-width="0.8" d="M846.5,-563.88C846.5,-563.88 846.5,-513.07 846.5,-513.07"/>
<polygon fill="dimgray" stroke="dimgray" stroke-width="0.8" points="848.95,-513.07 846.5,-506.07 844.05,-513.07 848.95,-513.07"/>
</g>
<!-- C&#45;0425 -->
<g id="node11" class="node">
<title>C&#45;0425</title>
<ellipse fill="mediumseagreen" stroke="black" cx="630.5" cy="-300" rx="68.5" ry="18"/>
<text text-anchor="middle" x="630.5" y="-298.1" font-family="Helvetica,sans-Serif" font-size="8.00">C&#45;0425</text>
</g>
<!-- C&#45;0425&#45;&gt;R&#45;145 -->
<g id="edge14" class="edge">
<title>C&#45;0425&#45;&gt;R&#45;145</title>
<path fill="none" stroke="dimgray" stroke-width="0.8" d="M630.5,-281.88C630.5,-281.88 630.5,-231.07 630.5,-231.07"/>
<polygon fill="dimgray" stroke="dimgray" stroke-width="0.8" points="632.95,-231.07 630.5,-224.07 628.05,-231.07 632.95,-231.07"/>
</g>
<!-- C&#45;1249&#45;&gt;C&#45;0197 -->
<g id="edge24" class="edge">
<title>C&#45;1249&#45;&gt;C&#45;0197</title>
<path fill="none" stroke="blue" stroke-width="0.8" stroke-dasharray="5,2" d="M284.5,-473.72C284.5,-447.43 284.5,-394 284.5,-394 284.5,-394 230.31,-394 230.31,-394"/>
<polygon fill="blue" stroke="blue" stroke-width="0.8" points="230.31,-391.55 223.31,-394 230.31,-396.45 230.31,-391.55"/>
</g>
<!-- C&#45;0065 -->
<g id="node14" class="node">
<title>C&#45;0065</title>
<ellipse fill="mediumseagreen" stroke="black" cx="241.5" cy="-300" rx="68.5" ry="18"/>
<text text-anchor="middle" x="241.5" y="-298.1" font-family="Helvetica,sans-Serif" font-size="8.00">C&#45;0065</text>
</g>
<!-- S&#45;2308 -->
<g id="node15" class="node">
<title>S&#45;2308</title>
<polygon fill="mediumseagreen" stroke="black" points="1019.5,-600 951,-582 1019.5,-564 1088,-582 1019.5,-600"/>
<text text-anchor="middle" x="1019.5" y="-580.1" font-family="Helvetica,sans-Serif" font-size="8.00">S&#45;2308</text>
</g>
<!-- S&#45;2321 -->
<g id="node16" class="node">
<title>S&#45;2321</title>
<polygon fill="mediumseagreen" stroke="black" points="846.5,-412 778,-394 846.5,-376 915,-394 846.5,-412"/>
<text text-anchor="middle" x="846.5" y="-392.1" font-family="Helvetica,sans-Serif" font-size="8.00">S&#45;2321</text>
</g>
<!-- C&#45;0197&#45;&gt;S&#45;1403 -->
<g id="edge22" class="edge">
<title>C&#45;0197&#45;&gt;S&#45;1403</title>
<path fill="none" stroke="dimgray" stroke-width="0.8" d="M111.5,-379.72C111.5,-379.72 111.5,-313.83 111.5,-313.83"/>
<polygon fill="dimgray" stroke="dimgray" stroke-width="0.8" points="113.95,-313.83 111.5,-306.83 109.05,-313.83 113.95,-313.83"/>
</g>
<!-- C&#45;0197&#45;&gt;C&#45;0065 -->
<g id="edge21" class="edge">
<title>C&#45;0197&#45;&gt;C&#45;0065</title>
<path fill="none" stroke="dimgray" stroke-width="0.8" d="M198,-379.72C198,-379.72 198,-321.1 198,-321.1"/>
<polygon fill="dimgray" stroke="dimgray" stroke-width="0.8" points="200.45,-321.1 198,-314.1 195.55,-321.1 200.45,-321.1"/>
</g>
<!-- S&#45;1440 -->
<g id="node18" class="node">
<title>S&#45;1440</title>
<polygon fill="mediumseagreen" stroke="black" points="500.5,-412 432,-394 500.5,-376 569,-394 500.5,-412"/>
<text text-anchor="middle" x="500.5" y="-392.1" font-family="Helvetica,sans-Serif" font-size="8.00">S&#45;1440</text>
</g>
<!-- S&#45;1440&#45;&gt;S&#45;2389 -->
<g id="edge12" class="edge">
<title>S&#45;1440&#45;&gt;S&#45;2389</title>
<path fill="none" stroke="dimgray" stroke-width="0.8" d="M479,-381.32C479,-381.32 479,-319.48 479,-319.48"/>
<polygon fill="dimgray" stroke="dimgray" stroke-width="0.8" points="481.45,-319.48 479,-312.48 476.55,-319.48 481.45,-319.48"/>
</g>
<!-- S&#45;1440&#45;&gt;C&#45;0425 -->
<g id="edge13" class="edge">
<title>S&#45;1440&#45;&gt;C&#45;0425</title>
<path fill="none" stroke="dimgray" stroke-width="0.8" d="M565.5,-392.94C565.5,-392.94 565.5,-312.72 565.5,-312.72"/>
<polygon fill="dimgray" stroke="dimgray" stroke-width="0.8" points="567.95,-312.72 565.5,-305.72 563.05,-312.72 567.95,-312.72"/>
</g>
<!-- C&#45;0136&#45;&gt;S&#45;1440 -->
<g id="edge11" class="edge">
<title>C&#45;0136&#45;&gt;S&#45;1440</title>
<path fill="none" stroke="dimgray" stroke-width="0.8" d="M500.5,-469.88C500.5,-469.88 500.5,-419.07 500.5,-419.07"/>
<polygon fill="dimgray" stroke="dimgray" stroke-width="0.8" points="502.95,-419.07 500.5,-412.07 498.05,-419.07 502.95,-419.07"/>
</g>
<!-- C&#45;0643&#45;&gt;S&#45;2321 -->
<g id="edge7" class="edge">
<title>C&#45;0643&#45;&gt;S&#45;2321</title>
<path fill="none" stroke="dimgray" stroke-width="0.8" d="M846.5,-469.88C846.5,-469.88 846.5,-419.07 846.5,-419.07"/>
<polygon fill="dimgray" stroke="dimgray" stroke-width="0.8" points="848.95,-419.07 846.5,-412.07 844.05,-419.07 848.95,-419.07"/>
</g>
<!-- 101&#45;32 -->
<g id="node21" class="node">
<title>101&#45;32</title>
<polygon fill="gold" stroke="black" points="828,-860.54 828,-875.46 787.87,-886 731.13,-886 691,-875.46 691,-860.54 731.13,-850 787.87,-850 828,-860.54"/>
<polygon fill="none" stroke="black" points="832,-857.46 832,-878.54 788.39,-890 730.61,-890 687,-878.54 687,-857.46 730.61,-846 788.39,-846 832,-857.46"/>
<text text-anchor="middle" x="759.5" y="-866.1" font-family="Helvetica,sans-Serif" font-size="8.00">101&#45;32</text>
</g>
<!-- 101&#45;32&#45;&gt;C&#45;0132 -->
<g id="edge1" class="edge">
<title>101&#45;32&#45;&gt;C&#45;0132</title>
<path fill="none" stroke="dimgray" stroke-width="0.8" d="M759.5,-845.76C759.5,-845.76 759.5,-795.21 759.5,-795.21"/>
<polygon fill="dimgray" stroke="dimgray" stroke-width="0.8" points="761.95,-795.21 759.5,-788.21 757.05,-795.21 761.95,-795.21"/>
</g>
<!-- C&#45;0433&#45;&gt;C&#45;0425 -->
<g id="edge23" class="edge">
<title>C&#45;0433&#45;&gt;C&#45;0425</title>
<path fill="none" stroke="blue" stroke-width="0.8" stroke-dasharray="5,2" d="M726.5,-29.4C726.5,-82.16 726.5,-300 726.5,-300 726.5,-300 706.25,-300 706.25,-300"/>
<polygon fill="blue" stroke="blue" stroke-width="0.8" points="706.25,-297.55 699.25,-300 706.25,-302.45 706.25,-297.55"/>
</g>
<!-- C&#45;0676&#45;&gt;C&#45;0221 -->
<g id="edge9" class="edge">
<title>C&#45;0676&#45;&gt;C&#45;0221</title>
<path fill="none" stroke="dimgray" stroke-width="0.8" d="M690.93,-676C590.31,-676 414.5,-676 414.5,-676 414.5,-676 414.5,-607.12 414.5,-607.12"/>
<polygon fill="dimgray" stroke="dimgray" stroke-width="0.8" points="416.95,-607.12 414.5,-600.12 412.05,-607.12 416.95,-607.12"/>
</g>
<!-- C&#45;0676&#45;&gt;C&#45;0728 -->
<g id="edge4" class="edge">
<title>C&#45;0676&#45;&gt;C&#45;0728</title>
<path fill="none" stroke="dimgray" stroke-width="0.8" d="M716.5,-661.72C716.5,-661.72 716.5,-603.1 716.5,-603.1"/>
<polygon fill="dimgray" stroke="dimgray" stroke-width="0.8" points="718.95,-603.1 716.5,-596.1 714.05,-603.1 718.95,-603.1"/>
</g>
<!-- C&#45;0676&#45;&gt;C&#45;0434 -->
<g id="edge3" class="edge">
<title>C&#45;0676&#45;&gt;C&#45;0434</title>
<path fill="none" stroke="dimgray" stroke-width="0.8" d="M803,-661.72C803,-661.72 803,-603.1 803,-603.1"/>
<polygon fill="dimgray" stroke="dimgray" stroke-width="0.8" points="805.45,-603.1 803,-596.1 800.55,-603.1 805.45,-603.1"/>
</g>
<!-- C&#45;0676&#45;&gt;S&#45;2308 -->
<g id="edge8" class="edge">
<title>C&#45;0676&#45;&gt;S&#45;2308</title>
<path fill="none" stroke="dimgray" stroke-width="0.8" d="M828.15,-676C905.18,-676 1019.5,-676 1019.5,-676 1019.5,-676 1019.5,-607.12 1019.5,-607.12"/>
<polygon fill="dimgray" stroke="dimgray" stroke-width="0.8" points="1021.95,-607.12 1019.5,-600.12 1017.05,-607.12 1021.95,-607.12"/>
</g>
</g>
</svg>
