<?xml version="1.0" encoding="UTF-8" standalone="no"?>
<!DOCTYPE svg PUBLIC "-//W3C//DTD SVG 1.1//EN"
 "http://www.w3.org/Graphics/SVG/1.1/DTD/svg11.dtd">
<!-- Generated by graphviz version 2.50.0 (0)
 -->
<!-- Title: Grafo_Circuito_110_22_ Pages: 1 -->
<svg width="1777pt" height="1473pt"
 viewBox="0.00 0.00 1777.00 1473.00" xmlns="http://www.w3.org/2000/svg" xmlns:xlink="http://www.w3.org/1999/xlink">
<g id="graph0" class="graph" transform="scale(1 1) rotate(0) translate(4 1469)">
<title>Grafo_Circuito_110_22_</title>
<polygon fill="white" stroke="transparent" points="-4,4 -4,-1469 1773,-1469 1773,4 -4,4"/>
<!-- S&#45;056 -->
<g id="node1" class="node">
<title>S&#45;056</title>
<polygon fill="mediumseagreen" stroke="black" points="702,-1053 630,-1031.5 702,-1010 774,-1031.5 702,-1053"/>
<text text-anchor="middle" x="702" y="-1029" font-family="Arial" font-size="10.00">S&#45;056</text>
</g>
<!-- S&#45;138 -->
<g id="node2" class="node">
<title>S&#45;138</title>
<polygon fill="mediumseagreen" stroke="black" points="792,-1154 720,-1132.5 792,-1111 864,-1132.5 792,-1154"/>
<text text-anchor="middle" x="792" y="-1130" font-family="Arial" font-size="10.00">S&#45;138</text>
</g>
<!-- S&#45;189 -->
<g id="node3" class="node">
<title>S&#45;189</title>
<polygon fill="mediumseagreen" stroke="black" points="72,-548 0,-526.5 72,-505 144,-526.5 72,-548"/>
<text text-anchor="middle" x="72" y="-524" font-family="Arial" font-size="10.00">S&#45;189</text>
</g>
<!-- C&#45;0328 -->
<g id="node4" class="node">
<title>C&#45;0328</title>
<ellipse fill="mediumseagreen" stroke="black" cx="792" cy="-930.5" rx="72" ry="21.5"/>
<text text-anchor="middle" x="792" y="-928" font-family="Arial" font-size="10.00">C&#45;0328</text>
</g>
<!-- C&#45;0519 -->
<g id="node10" class="node">
<title>C&#45;0519</title>
<ellipse fill="mediumseagreen" stroke="black" cx="702" cy="-829.5" rx="72" ry="21.5"/>
<text text-anchor="middle" x="702" y="-827" font-family="Arial" font-size="10.00">C&#45;0519</text>
</g>
<!-- C&#45;0328&#45;&gt;C&#45;0519 -->
<g id="edge11" class="edge">
<title>C&#45;0328&#45;&gt;C&#45;0519</title>
<path fill="none" stroke="#4d4d4d" d="M747,-913.37C747,-913.37 747,-853.38 747,-853.38"/>
<polygon fill="#4d4d4d" stroke="#4d4d4d" points="749.45,-853.38 747,-846.38 744.55,-853.38 749.45,-853.38"/>
</g>
<!-- C&#45;0520 -->
<g id="node14" class="node">
<title>C&#45;0520</title>
<ellipse fill="tomato" stroke="black" cx="882" cy="-829.5" rx="72" ry="21.5"/>
<text text-anchor="middle" x="882" y="-827" font-family="Arial" font-size="10.00">C&#45;0520</text>
</g>
<!-- C&#45;0328&#45;&gt;C&#45;0520 -->
<g id="edge10" class="edge">
<title>C&#45;0328&#45;&gt;C&#45;0520</title>
<path fill="none" stroke="#4d4d4d" d="M837,-913.37C837,-913.37 837,-853.38 837,-853.38"/>
<polygon fill="#4d4d4d" stroke="#4d4d4d" points="839.45,-853.38 837,-846.38 834.55,-853.38 839.45,-853.38"/>
</g>
<!-- S&#45;1609 -->
<g id="node5" class="node">
<title>S&#45;1609</title>
<polygon fill="mediumseagreen" stroke="black" points="252,-548 180,-526.5 252,-505 324,-526.5 252,-548"/>
<text text-anchor="middle" x="252" y="-524" font-family="Arial" font-size="10.00">S&#45;1609</text>
</g>
<!-- C&#45;1280 -->
<g id="node6" class="node">
<title>C&#45;1280</title>
<ellipse fill="mediumseagreen" stroke="black" cx="1287" cy="-829.5" rx="72" ry="21.5"/>
<text text-anchor="middle" x="1287" y="-827" font-family="Arial" font-size="10.00">C&#45;1280</text>
</g>
<!-- R&#45;025 -->
<g id="node38" class="node">
<title>R&#45;025</title>
<polygon fill="tomato" stroke="black" points="1512,-719.59 1512,-737.41 1469.82,-750 1410.18,-750 1368,-737.41 1368,-719.59 1410.18,-707 1469.82,-707 1512,-719.59"/>
<text text-anchor="middle" x="1440" y="-726" font-family="Arial" font-size="10.00">R&#45;025</text>
</g>
<!-- C&#45;1280&#45;&gt;R&#45;025 -->
<g id="edge39" class="edge">
<title>C&#45;1280&#45;&gt;R&#45;025</title>
<path fill="none" stroke="#4d4d4d" d="M1359.1,-829C1372.04,-829 1381.5,-829 1381.5,-829 1381.5,-829 1381.5,-748.64 1381.5,-748.64"/>
<polygon fill="#4d4d4d" stroke="#4d4d4d" points="1383.95,-748.64 1381.5,-741.64 1379.05,-748.64 1383.95,-748.64"/>
</g>
<!-- S&#45;191 -->
<g id="node7" class="node">
<title>S&#45;191</title>
<polygon fill="mediumseagreen" stroke="black" points="1467,-851 1395,-829.5 1467,-808 1539,-829.5 1467,-851"/>
<text text-anchor="middle" x="1467" y="-827" font-family="Arial" font-size="10.00">S&#45;191</text>
</g>
<!-- S&#45;2475 -->
<g id="node8" class="node">
<title>S&#45;2475</title>
<polygon fill="mediumseagreen" stroke="black" points="882,-1053 810,-1031.5 882,-1010 954,-1031.5 882,-1053"/>
<text text-anchor="middle" x="882" y="-1029" font-family="Arial" font-size="10.00">S&#45;2475</text>
</g>
<!-- S&#45;2441 -->
<g id="node9" class="node">
<title>S&#45;2441</title>
<polygon fill="mediumseagreen" stroke="black" points="972,-447 900,-425.5 972,-404 1044,-425.5 972,-447"/>
<text text-anchor="middle" x="972" y="-423" font-family="Arial" font-size="10.00">S&#45;2441</text>
</g>
<!-- R&#45;032 -->
<g id="node28" class="node">
<title>R&#45;032</title>
<polygon fill="mediumseagreen" stroke="black" points="774,-719.59 774,-737.41 731.82,-750 672.18,-750 630,-737.41 630,-719.59 672.18,-707 731.82,-707 774,-719.59"/>
<text text-anchor="middle" x="702" y="-726" font-family="Arial" font-size="10.00">R&#45;032</text>
</g>
<!-- C&#45;0519&#45;&gt;R&#45;032 -->
<g id="edge12" class="edge">
<title>C&#45;0519&#45;&gt;R&#45;032</title>
<path fill="none" stroke="#4d4d4d" d="M702,-807.58C702,-807.58 702,-757.03 702,-757.03"/>
<polygon fill="#4d4d4d" stroke="#4d4d4d" points="704.45,-757.03 702,-750.03 699.55,-757.03 704.45,-757.03"/>
</g>
<!-- R&#45;172 -->
<g id="node11" class="node">
<title>R&#45;172</title>
<polygon fill="tomato" stroke="black" points="1114,-113.59 1114,-131.41 1071.82,-144 1012.18,-144 970,-131.41 970,-113.59 1012.18,-101 1071.82,-101 1114,-113.59"/>
<text text-anchor="middle" x="1042" y="-120" font-family="Arial" font-size="10.00">R&#45;172</text>
</g>
<!-- ext_circ_110_24_ -->
<g id="node45" class="node">
<title>ext_circ_110_24_</title>
<polygon fill="lightpink" stroke="darkorange" stroke-dasharray="5,2" points="844,-43 700,-43 700,0 844,0 844,-43"/>
<text text-anchor="middle" x="772" y="-24.5" font-family="Arial" font-size="10.00">Circuito:</text>
<text text-anchor="middle" x="772" y="-13.5" font-family="Arial" font-size="10.00">110&#45;24&#45;</text>
</g>
<!-- R&#45;172&#45;&gt;ext_circ_110_24_ -->
<g id="edge46" class="edge">
<title>R&#45;172&#45;&gt;ext_circ_110_24_</title>
<path fill="none" stroke="darkorange" stroke-dasharray="5,2" d="M1042,-100.97C1042,-71.18 1042,-21 1042,-21 1042,-21 851,-21 851,-21"/>
<polygon fill="darkorange" stroke="darkorange" points="851,-18.55 844,-21 851,-23.45 851,-18.55"/>
</g>
<!-- C&#45;0779 -->
<g id="node12" class="node">
<title>C&#45;0779</title>
<ellipse fill="tomato" stroke="black" cx="862" cy="-122.5" rx="72" ry="21.5"/>
<text text-anchor="middle" x="862" y="-120" font-family="Arial" font-size="10.00">C&#45;0779</text>
</g>
<!-- C&#45;0779&#45;&gt;ext_circ_110_24_ -->
<g id="edge45" class="edge">
<title>C&#45;0779&#45;&gt;ext_circ_110_24_</title>
<path fill="none" stroke="darkorange" stroke-dasharray="5,2" d="M817,-105.37C817,-105.37 817,-50.31 817,-50.31"/>
<polygon fill="darkorange" stroke="darkorange" points="819.45,-50.31 817,-43.31 814.55,-50.31 819.45,-50.31"/>
</g>
<!-- S&#45;190 -->
<g id="node13" class="node">
<title>S&#45;190</title>
<polygon fill="mediumseagreen" stroke="black" points="1647,-851 1575,-829.5 1647,-808 1719,-829.5 1647,-851"/>
<text text-anchor="middle" x="1647" y="-827" font-family="Arial" font-size="10.00">S&#45;190</text>
</g>
<!-- C&#45;0518 -->
<g id="node35" class="node">
<title>C&#45;0518</title>
<ellipse fill="mediumseagreen" stroke="black" cx="702" cy="-627.5" rx="72" ry="21.5"/>
<text text-anchor="middle" x="702" y="-625" font-family="Arial" font-size="10.00">C&#45;0518</text>
</g>
<!-- C&#45;0520&#45;&gt;C&#45;0518 -->
<g id="edge44" class="edge">
<title>C&#45;0520&#45;&gt;C&#45;0518</title>
<path fill="none" stroke="blue" stroke-dasharray="5,2" d="M837,-812.51C837,-765.64 837,-638 837,-638 837,-638 772.15,-638 772.15,-638"/>
<polygon fill="blue" stroke="blue" points="772.15,-635.55 765.15,-638 772.15,-640.45 772.15,-635.55"/>
</g>
<!-- C&#45;0524 -->
<g id="node15" class="node">
<title>C&#45;0524</title>
<ellipse fill="mediumseagreen" stroke="black" cx="1062" cy="-1031.5" rx="72" ry="21.5"/>
<text text-anchor="middle" x="1062" y="-1029" font-family="Arial" font-size="10.00">C&#45;0524</text>
</g>
<!-- C&#45;0524&#45;&gt;C&#45;0328 -->
<g id="edge9" class="edge">
<title>C&#45;0524&#45;&gt;C&#45;0328</title>
<path fill="none" stroke="#4d4d4d" d="M1008,-1017.16C1008,-999.27 1008,-971 1008,-971 1008,-971 837,-971 837,-971 837,-971 837,-954.44 837,-954.44"/>
<polygon fill="#4d4d4d" stroke="#4d4d4d" points="839.45,-954.44 837,-947.44 834.55,-954.44 839.45,-954.44"/>
</g>
<!-- S&#45;2472 -->
<g id="node23" class="node">
<title>S&#45;2472</title>
<polygon fill="mediumseagreen" stroke="black" points="972,-952 900,-930.5 972,-909 1044,-930.5 972,-952"/>
<text text-anchor="middle" x="972" y="-928" font-family="Arial" font-size="10.00">S&#45;2472</text>
</g>
<!-- C&#45;0524&#45;&gt;S&#45;2472 -->
<g id="edge8" class="edge">
<title>C&#45;0524&#45;&gt;S&#45;2472</title>
<path fill="none" stroke="#4d4d4d" d="M1026,-1012.5C1026,-1012.5 1026,-942.97 1026,-942.97"/>
<polygon fill="#4d4d4d" stroke="#4d4d4d" points="1028.45,-942.97 1026,-935.97 1023.55,-942.97 1028.45,-942.97"/>
</g>
<!-- C&#45;0015 -->
<g id="node34" class="node">
<title>C&#45;0015</title>
<ellipse fill="tomato" stroke="black" cx="1152" cy="-930.5" rx="72" ry="21.5"/>
<text text-anchor="middle" x="1152" y="-928" font-family="Arial" font-size="10.00">C&#45;0015</text>
</g>
<!-- C&#45;0524&#45;&gt;C&#45;0015 -->
<g id="edge7" class="edge">
<title>C&#45;0524&#45;&gt;C&#45;0015</title>
<path fill="none" stroke="#4d4d4d" d="M1098,-1012.5C1098,-1012.5 1098,-951.84 1098,-951.84"/>
<polygon fill="#4d4d4d" stroke="#4d4d4d" points="1100.45,-951.84 1098,-944.84 1095.55,-951.84 1100.45,-951.84"/>
</g>
<!-- R&#45;102 -->
<g id="node43" class="node">
<title>R&#45;102</title>
<polygon fill="mediumseagreen" stroke="black" points="1539,-921.59 1539,-939.41 1496.82,-952 1437.18,-952 1395,-939.41 1395,-921.59 1437.18,-909 1496.82,-909 1539,-921.59"/>
<text text-anchor="middle" x="1467" y="-928" font-family="Arial" font-size="10.00">R&#45;102</text>
</g>
<!-- C&#45;0524&#45;&gt;R&#45;102 -->
<g id="edge34" class="edge">
<title>C&#45;0524&#45;&gt;R&#45;102</title>
<path fill="none" stroke="#4d4d4d" d="M1116,-1016.99C1116,-1005.02 1116,-990 1116,-990 1116,-990 1467,-990 1467,-990 1467,-990 1467,-959.32 1467,-959.32"/>
<polygon fill="#4d4d4d" stroke="#4d4d4d" points="1469.45,-959.32 1467,-952.32 1464.55,-959.32 1469.45,-959.32"/>
</g>
<!-- C&#45;0812 -->
<g id="node16" class="node">
<title>C&#45;0812</title>
<ellipse fill="mediumseagreen" stroke="black" cx="502" cy="-324.5" rx="72" ry="21.5"/>
<text text-anchor="middle" x="502" y="-322" font-family="Arial" font-size="10.00">C&#45;0812</text>
</g>
<!-- C&#45;0743 -->
<g id="node19" class="node">
<title>C&#45;0743</title>
<ellipse fill="mediumseagreen" stroke="black" cx="502" cy="-223.5" rx="72" ry="21.5"/>
<text text-anchor="middle" x="502" y="-221" font-family="Arial" font-size="10.00">C&#45;0743</text>
</g>
<!-- C&#45;0812&#45;&gt;C&#45;0743 -->
<g id="edge31" class="edge">
<title>C&#45;0812&#45;&gt;C&#45;0743</title>
<path fill="none" stroke="#4d4d4d" d="M502,-302.58C502,-302.58 502,-252.03 502,-252.03"/>
<polygon fill="#4d4d4d" stroke="#4d4d4d" points="504.45,-252.03 502,-245.03 499.55,-252.03 504.45,-252.03"/>
</g>
<!-- C&#45;0744 -->
<g id="node31" class="node">
<title>C&#45;0744</title>
<ellipse fill="tomato" stroke="black" cx="682" cy="-122.5" rx="72" ry="21.5"/>
<text text-anchor="middle" x="682" y="-120" font-family="Arial" font-size="10.00">C&#45;0744</text>
</g>
<!-- C&#45;0812&#45;&gt;C&#45;0744 -->
<g id="edge30" class="edge">
<title>C&#45;0812&#45;&gt;C&#45;0744</title>
<path fill="none" stroke="#4d4d4d" d="M572.8,-320C609.61,-320 647,-320 647,-320 647,-320 647,-148.44 647,-148.44"/>
<polygon fill="#4d4d4d" stroke="#4d4d4d" points="649.45,-148.44 647,-141.44 644.55,-148.44 649.45,-148.44"/>
</g>
<!-- C&#45;0780 -->
<g id="node17" class="node">
<title>C&#45;0780</title>
<ellipse fill="mediumseagreen" stroke="black" cx="1042" cy="-223.5" rx="72" ry="21.5"/>
<text text-anchor="middle" x="1042" y="-221" font-family="Arial" font-size="10.00">C&#45;0780</text>
</g>
<!-- C&#45;0780&#45;&gt;R&#45;172 -->
<g id="edge24" class="edge">
<title>C&#45;0780&#45;&gt;R&#45;172</title>
<path fill="none" stroke="#4d4d4d" d="M1042,-201.58C1042,-201.58 1042,-151.03 1042,-151.03"/>
<polygon fill="#4d4d4d" stroke="#4d4d4d" points="1044.45,-151.03 1042,-144.03 1039.55,-151.03 1044.45,-151.03"/>
</g>
<!-- S&#45;186 -->
<g id="node18" class="node">
<title>S&#45;186</title>
<polygon fill="mediumseagreen" stroke="black" points="1222,-245 1150,-223.5 1222,-202 1294,-223.5 1222,-245"/>
<text text-anchor="middle" x="1222" y="-221" font-family="Arial" font-size="10.00">S&#45;186</text>
</g>
<!-- R&#45;162 -->
<g id="node21" class="node">
<title>R&#45;162</title>
<polygon fill="tomato" stroke="black" points="574,-113.59 574,-131.41 531.82,-144 472.18,-144 430,-131.41 430,-113.59 472.18,-101 531.82,-101 574,-113.59"/>
<text text-anchor="middle" x="502" y="-120" font-family="Arial" font-size="10.00">R&#45;162</text>
</g>
<!-- C&#45;0743&#45;&gt;R&#45;162 -->
<g id="edge32" class="edge">
<title>C&#45;0743&#45;&gt;R&#45;162</title>
<path fill="none" stroke="#4d4d4d" d="M502,-201.58C502,-201.58 502,-151.03 502,-151.03"/>
<polygon fill="#4d4d4d" stroke="#4d4d4d" points="504.45,-151.03 502,-144.03 499.55,-151.03 504.45,-151.03"/>
</g>
<!-- C&#45;0810 -->
<g id="node20" class="node">
<title>C&#45;0810</title>
<ellipse fill="mediumseagreen" stroke="black" cx="432" cy="-526.5" rx="72" ry="21.5"/>
<text text-anchor="middle" x="432" y="-524" font-family="Arial" font-size="10.00">C&#45;0810</text>
</g>
<!-- R&#45;181 -->
<g id="node32" class="node">
<title>R&#45;181</title>
<polygon fill="mediumseagreen" stroke="black" points="517,-416.59 517,-434.41 474.82,-447 415.18,-447 373,-434.41 373,-416.59 415.18,-404 474.82,-404 517,-416.59"/>
<text text-anchor="middle" x="445" y="-423" font-family="Arial" font-size="10.00">R&#45;181</text>
</g>
<!-- C&#45;0810&#45;&gt;R&#45;181 -->
<g id="edge28" class="edge">
<title>C&#45;0810&#45;&gt;R&#45;181</title>
<path fill="none" stroke="#4d4d4d" d="M438.5,-505.08C438.5,-505.08 438.5,-454.24 438.5,-454.24"/>
<polygon fill="#4d4d4d" stroke="#4d4d4d" points="440.95,-454.24 438.5,-447.24 436.05,-454.24 440.95,-454.24"/>
</g>
<!-- R&#45;162&#45;&gt;ext_circ_110_24_ -->
<g id="edge49" class="edge">
<title>R&#45;162&#45;&gt;ext_circ_110_24_</title>
<path fill="none" stroke="darkorange" stroke-dasharray="5,2" d="M502,-100.97C502,-71.18 502,-21 502,-21 502,-21 693,-21 693,-21"/>
<polygon fill="darkorange" stroke="darkorange" points="693,-23.45 700,-21 693,-18.55 693,-23.45"/>
</g>
<!-- C&#45;0092 -->
<g id="node22" class="node">
<title>C&#45;0092</title>
<ellipse fill="mediumseagreen" stroke="black" cx="972" cy="-1334.5" rx="72" ry="21.5"/>
<text text-anchor="middle" x="972" y="-1332" font-family="Arial" font-size="10.00">C&#45;0092</text>
</g>
<!-- S&#45;1831 -->
<g id="node29" class="node">
<title>S&#45;1831</title>
<polygon fill="mediumseagreen" stroke="black" points="972,-1255 900,-1233.5 972,-1212 1044,-1233.5 972,-1255"/>
<text text-anchor="middle" x="972" y="-1231" font-family="Arial" font-size="10.00">S&#45;1831</text>
</g>
<!-- C&#45;0092&#45;&gt;S&#45;1831 -->
<g id="edge2" class="edge">
<title>C&#45;0092&#45;&gt;S&#45;1831</title>
<path fill="none" stroke="#4d4d4d" d="M972,-1312.58C972,-1312.58 972,-1262.03 972,-1262.03"/>
<polygon fill="#4d4d4d" stroke="#4d4d4d" points="974.45,-1262.03 972,-1255.03 969.55,-1262.03 974.45,-1262.03"/>
</g>
<!-- S&#45;1729 -->
<g id="node24" class="node">
<title>S&#45;1729</title>
<polygon fill="mediumseagreen" stroke="black" points="1242,-1053 1170,-1031.5 1242,-1010 1314,-1031.5 1242,-1053"/>
<text text-anchor="middle" x="1242" y="-1029" font-family="Arial" font-size="10.00">S&#45;1729</text>
</g>
<!-- C&#45;0811 -->
<g id="node25" class="node">
<title>C&#45;0811</title>
<ellipse fill="tomato" stroke="black" cx="612" cy="-526.5" rx="72" ry="21.5"/>
<text text-anchor="middle" x="612" y="-524" font-family="Arial" font-size="10.00">C&#45;0811</text>
</g>
<!-- C&#45;0811&#45;&gt;C&#45;0812 -->
<g id="edge47" class="edge">
<title>C&#45;0811&#45;&gt;C&#45;0812</title>
<path fill="none" stroke="blue" stroke-dasharray="5,2" d="M557,-512.62C557,-512.62 557,-345.48 557,-345.48"/>
<polygon fill="blue" stroke="blue" points="559.45,-345.48 557,-338.48 554.55,-345.48 559.45,-345.48"/>
</g>
<!-- S&#45;1608 -->
<g id="node26" class="node">
<title>S&#45;1608</title>
<polygon fill="mediumseagreen" stroke="black" points="792,-548 720,-526.5 792,-505 864,-526.5 792,-548"/>
<text text-anchor="middle" x="792" y="-524" font-family="Arial" font-size="10.00">S&#45;1608</text>
</g>
<!-- 110&#45;22&#45; -->
<g id="node27" class="node">
<title>110&#45;22&#45;</title>
<polygon fill="gold" stroke="black" points="1044,-1430.59 1044,-1448.41 1001.82,-1461 942.18,-1461 900,-1448.41 900,-1430.59 942.18,-1418 1001.82,-1418 1044,-1430.59"/>
<polygon fill="none" stroke="black" points="1048,-1427.61 1048,-1451.39 1002.41,-1465 941.59,-1465 896,-1451.39 896,-1427.61 941.59,-1414 1002.41,-1414 1048,-1427.61"/>
<text text-anchor="middle" x="972" y="-1437" font-family="Arial" font-size="10.00">110&#45;22&#45;</text>
</g>
<!-- 110&#45;22&#45;&#45;&gt;C&#45;0092 -->
<g id="edge1" class="edge">
<title>110&#45;22&#45;&#45;&gt;C&#45;0092</title>
<path fill="none" stroke="#4d4d4d" d="M972,-1413.81C972,-1413.81 972,-1363.03 972,-1363.03"/>
<polygon fill="#4d4d4d" stroke="#4d4d4d" points="974.45,-1363.03 972,-1356.03 969.55,-1363.03 974.45,-1363.03"/>
</g>
<!-- R&#45;032&#45;&gt;C&#45;0518 -->
<g id="edge13" class="edge">
<title>R&#45;032&#45;&gt;C&#45;0518</title>
<path fill="none" stroke="#4d4d4d" d="M702,-706.58C702,-706.58 702,-656.03 702,-656.03"/>
<polygon fill="#4d4d4d" stroke="#4d4d4d" points="704.45,-656.03 702,-649.03 699.55,-656.03 704.45,-656.03"/>
</g>
<!-- S&#45;1831&#45;&gt;S&#45;138 -->
<g id="edge4" class="edge">
<title>S&#45;1831&#45;&gt;S&#45;138</title>
<path fill="none" stroke="#4d4d4d" d="M901.63,-1233C851.15,-1233 792,-1233 792,-1233 792,-1233 792,-1161.31 792,-1161.31"/>
<polygon fill="#4d4d4d" stroke="#4d4d4d" points="794.45,-1161.31 792,-1154.31 789.55,-1161.31 794.45,-1161.31"/>
</g>
<!-- C&#45;0062 -->
<g id="node30" class="node">
<title>C&#45;0062</title>
<ellipse fill="mediumseagreen" stroke="black" cx="972" cy="-1132.5" rx="72" ry="21.5"/>
<text text-anchor="middle" x="972" y="-1130" font-family="Arial" font-size="10.00">C&#45;0062</text>
</g>
<!-- S&#45;1831&#45;&gt;C&#45;0062 -->
<g id="edge5" class="edge">
<title>S&#45;1831&#45;&gt;C&#45;0062</title>
<path fill="none" stroke="#4d4d4d" d="M972,-1211.58C972,-1211.58 972,-1161.03 972,-1161.03"/>
<polygon fill="#4d4d4d" stroke="#4d4d4d" points="974.45,-1161.03 972,-1154.03 969.55,-1161.03 974.45,-1161.03"/>
</g>
<!-- S&#45;2036 -->
<g id="node39" class="node">
<title>S&#45;2036</title>
<polygon fill="mediumseagreen" stroke="black" points="1152,-1154 1080,-1132.5 1152,-1111 1224,-1132.5 1152,-1154"/>
<text text-anchor="middle" x="1152" y="-1130" font-family="Arial" font-size="10.00">S&#45;2036</text>
</g>
<!-- S&#45;1831&#45;&gt;S&#45;2036 -->
<g id="edge3" class="edge">
<title>S&#45;1831&#45;&gt;S&#45;2036</title>
<path fill="none" stroke="#4d4d4d" d="M1042.37,-1233C1092.85,-1233 1152,-1233 1152,-1233 1152,-1233 1152,-1161.31 1152,-1161.31"/>
<polygon fill="#4d4d4d" stroke="#4d4d4d" points="1154.45,-1161.31 1152,-1154.31 1149.55,-1161.31 1154.45,-1161.31"/>
</g>
<!-- C&#45;0062&#45;&gt;S&#45;056 -->
<g id="edge42" class="edge">
<title>C&#45;0062&#45;&gt;S&#45;056</title>
<path fill="none" stroke="#4d4d4d" d="M918,-1118.16C918,-1100.27 918,-1072 918,-1072 918,-1072 747,-1072 747,-1072 747,-1072 747,-1046.7 747,-1046.7"/>
<polygon fill="#4d4d4d" stroke="#4d4d4d" points="749.45,-1046.7 747,-1039.7 744.55,-1046.7 749.45,-1046.7"/>
</g>
<!-- C&#45;0062&#45;&gt;S&#45;2475 -->
<g id="edge40" class="edge">
<title>C&#45;0062&#45;&gt;S&#45;2475</title>
<path fill="none" stroke="#4d4d4d" d="M936,-1113.5C936,-1113.5 936,-1043.97 936,-1043.97"/>
<polygon fill="#4d4d4d" stroke="#4d4d4d" points="938.45,-1043.97 936,-1036.97 933.55,-1043.97 938.45,-1043.97"/>
</g>
<!-- C&#45;0062&#45;&gt;C&#45;0524 -->
<g id="edge6" class="edge">
<title>C&#45;0062&#45;&gt;C&#45;0524</title>
<path fill="none" stroke="#4d4d4d" d="M1008,-1113.5C1008,-1113.5 1008,-1052.84 1008,-1052.84"/>
<polygon fill="#4d4d4d" stroke="#4d4d4d" points="1010.45,-1052.84 1008,-1045.84 1005.55,-1052.84 1010.45,-1052.84"/>
</g>
<!-- C&#45;0062&#45;&gt;S&#45;1729 -->
<g id="edge41" class="edge">
<title>C&#45;0062&#45;&gt;S&#45;1729</title>
<path fill="none" stroke="#4d4d4d" d="M1026,-1117.99C1026,-1106.02 1026,-1091 1026,-1091 1026,-1091 1197,-1091 1197,-1091 1197,-1091 1197,-1046.77 1197,-1046.77"/>
<polygon fill="#4d4d4d" stroke="#4d4d4d" points="1199.45,-1046.77 1197,-1039.77 1194.55,-1046.77 1199.45,-1046.77"/>
</g>
<!-- C&#45;0744&#45;&gt;ext_circ_110_24_ -->
<g id="edge48" class="edge">
<title>C&#45;0744&#45;&gt;ext_circ_110_24_</title>
<path fill="none" stroke="darkorange" stroke-dasharray="5,2" d="M727,-105.37C727,-105.37 727,-50.31 727,-50.31"/>
<polygon fill="darkorange" stroke="darkorange" points="729.45,-50.31 727,-43.31 724.55,-50.31 729.45,-50.31"/>
</g>
<!-- R&#45;181&#45;&gt;C&#45;0812 -->
<g id="edge29" class="edge">
<title>R&#45;181&#45;&gt;C&#45;0812</title>
<path fill="none" stroke="#4d4d4d" d="M473.5,-403.58C473.5,-403.58 473.5,-351.32 473.5,-351.32"/>
<polygon fill="#4d4d4d" stroke="#4d4d4d" points="475.95,-351.32 473.5,-344.32 471.05,-351.32 475.95,-351.32"/>
</g>
<!-- C&#45;1278 -->
<g id="node33" class="node">
<title>C&#45;1278</title>
<ellipse fill="tomato" stroke="black" cx="1697" cy="-728.5" rx="72" ry="21.5"/>
<text text-anchor="middle" x="1697" y="-726" font-family="Arial" font-size="10.00">C&#45;1278</text>
</g>
<!-- ext_circ_111_25_ -->
<g id="node46" class="node">
<title>ext_circ_111_25_</title>
<polygon fill="lightpink" stroke="darkorange" stroke-dasharray="5,2" points="1602,-649 1458,-649 1458,-606 1602,-606 1602,-649"/>
<text text-anchor="middle" x="1530" y="-630.5" font-family="Arial" font-size="10.00">Circuito:</text>
<text text-anchor="middle" x="1530" y="-619.5" font-family="Arial" font-size="10.00">111&#45;25&#45;</text>
</g>
<!-- C&#45;1278&#45;&gt;ext_circ_111_25_ -->
<g id="edge50" class="edge">
<title>C&#45;1278&#45;&gt;ext_circ_111_25_</title>
<path fill="none" stroke="darkorange" stroke-dasharray="5,2" d="M1624.93,-728C1604.89,-728 1588.5,-728 1588.5,-728 1588.5,-728 1588.5,-656.31 1588.5,-656.31"/>
<polygon fill="darkorange" stroke="darkorange" points="1590.95,-656.31 1588.5,-649.31 1586.05,-656.31 1590.95,-656.31"/>
</g>
<!-- ext_circ_110_25_ -->
<g id="node44" class="node">
<title>ext_circ_110_25_</title>
<polygon fill="lightpink" stroke="darkorange" stroke-dasharray="5,2" points="1179,-851 1035,-851 1035,-808 1179,-808 1179,-851"/>
<text text-anchor="middle" x="1107" y="-832.5" font-family="Arial" font-size="10.00">Circuito:</text>
<text text-anchor="middle" x="1107" y="-821.5" font-family="Arial" font-size="10.00">110&#45;25&#45;</text>
</g>
<!-- C&#45;0015&#45;&gt;ext_circ_110_25_ -->
<g id="edge43" class="edge">
<title>C&#45;0015&#45;&gt;ext_circ_110_25_</title>
<path fill="none" stroke="darkorange" stroke-dasharray="5,2" d="M1129.5,-910.06C1129.5,-910.06 1129.5,-858.31 1129.5,-858.31"/>
<polygon fill="darkorange" stroke="darkorange" points="1131.95,-858.31 1129.5,-851.31 1127.05,-858.31 1131.95,-858.31"/>
</g>
<!-- C&#45;0518&#45;&gt;S&#45;189 -->
<g id="edge33" class="edge">
<title>C&#45;0518&#45;&gt;S&#45;189</title>
<path fill="none" stroke="#4d4d4d" d="M639,-638C479.44,-638 72,-638 72,-638 72,-638 72,-555.26 72,-555.26"/>
<polygon fill="#4d4d4d" stroke="#4d4d4d" points="74.45,-555.26 72,-548.26 69.55,-555.26 74.45,-555.26"/>
</g>
<!-- C&#45;0518&#45;&gt;S&#45;1609 -->
<g id="edge18" class="edge">
<title>C&#45;0518&#45;&gt;S&#45;1609</title>
<path fill="none" stroke="#4d4d4d" d="M629.7,-627C502.5,-627 252,-627 252,-627 252,-627 252,-555.31 252,-555.31"/>
<polygon fill="#4d4d4d" stroke="#4d4d4d" points="254.45,-555.31 252,-548.31 249.55,-555.31 254.45,-555.31"/>
</g>
<!-- C&#45;0518&#45;&gt;C&#45;0810 -->
<g id="edge27" class="edge">
<title>C&#45;0518&#45;&gt;C&#45;0810</title>
<path fill="none" stroke="#4d4d4d" d="M641.07,-616C561.44,-616 432,-616 432,-616 432,-616 432,-555.17 432,-555.17"/>
<polygon fill="#4d4d4d" stroke="#4d4d4d" points="434.45,-555.17 432,-548.17 429.55,-555.17 434.45,-555.17"/>
</g>
<!-- C&#45;0518&#45;&gt;C&#45;0811 -->
<g id="edge26" class="edge">
<title>C&#45;0518&#45;&gt;C&#45;0811</title>
<path fill="none" stroke="#4d4d4d" d="M657,-610.37C657,-610.37 657,-550.38 657,-550.38"/>
<polygon fill="#4d4d4d" stroke="#4d4d4d" points="659.45,-550.38 657,-543.38 654.55,-550.38 659.45,-550.38"/>
</g>
<!-- C&#45;0518&#45;&gt;S&#45;1608 -->
<g id="edge19" class="edge">
<title>C&#45;0518&#45;&gt;S&#45;1608</title>
<path fill="none" stroke="#4d4d4d" d="M747,-610.37C747,-610.37 747,-541.78 747,-541.78"/>
<polygon fill="#4d4d4d" stroke="#4d4d4d" points="749.45,-541.78 747,-534.78 744.55,-541.78 749.45,-541.78"/>
</g>
<!-- S&#45;188 -->
<g id="node37" class="node">
<title>S&#45;188</title>
<polygon fill="mediumseagreen" stroke="black" points="972,-548 900,-526.5 972,-505 1044,-526.5 972,-548"/>
<text text-anchor="middle" x="972" y="-524" font-family="Arial" font-size="10.00">S&#45;188</text>
</g>
<!-- C&#45;0518&#45;&gt;S&#45;188 -->
<g id="edge17" class="edge">
<title>C&#45;0518&#45;&gt;S&#45;188</title>
<path fill="none" stroke="#4d4d4d" d="M762.89,-616C829.52,-616 927,-616 927,-616 927,-616 927,-541.76 927,-541.76"/>
<polygon fill="#4d4d4d" stroke="#4d4d4d" points="929.45,-541.76 927,-534.76 924.55,-541.76 929.45,-541.76"/>
</g>
<!-- S&#45;1852 -->
<g id="node40" class="node">
<title>S&#45;1852</title>
<polygon fill="mediumseagreen" stroke="black" points="1152,-548 1080,-526.5 1152,-505 1224,-526.5 1152,-548"/>
<text text-anchor="middle" x="1152" y="-524" font-family="Arial" font-size="10.00">S&#45;1852</text>
</g>
<!-- C&#45;0518&#45;&gt;S&#45;1852 -->
<g id="edge14" class="edge">
<title>C&#45;0518&#45;&gt;S&#45;1852</title>
<path fill="none" stroke="#4d4d4d" d="M774.04,-627C895.87,-627 1129.5,-627 1129.5,-627 1129.5,-627 1129.5,-548.33 1129.5,-548.33"/>
<polygon fill="#4d4d4d" stroke="#4d4d4d" points="1131.95,-548.33 1129.5,-541.33 1127.05,-548.33 1131.95,-548.33"/>
</g>
<!-- C&#45;0150 -->
<g id="node41" class="node">
<title>C&#45;0150</title>
<ellipse fill="mediumseagreen" stroke="black" cx="1222" cy="-324.5" rx="72" ry="21.5"/>
<text text-anchor="middle" x="1222" y="-322" font-family="Arial" font-size="10.00">C&#45;0150</text>
</g>
<!-- C&#45;0518&#45;&gt;C&#45;0150 -->
<g id="edge20" class="edge">
<title>C&#45;0518&#45;&gt;C&#45;0150</title>
<path fill="none" stroke="#4d4d4d" d="M702,-605.67C702,-538.11 702,-337 702,-337 702,-337 1156.36,-337 1156.36,-337"/>
<polygon fill="#4d4d4d" stroke="#4d4d4d" points="1156.36,-339.45 1163.36,-337 1156.36,-334.55 1156.36,-339.45"/>
</g>
<!-- S&#45;2288 -->
<g id="node36" class="node">
<title>S&#45;2288</title>
<polygon fill="mediumseagreen" stroke="black" points="1152,-447 1080,-425.5 1152,-404 1224,-425.5 1152,-447"/>
<text text-anchor="middle" x="1152" y="-423" font-family="Arial" font-size="10.00">S&#45;2288</text>
</g>
<!-- R&#45;025&#45;&gt;ext_circ_111_25_ -->
<g id="edge51" class="edge">
<title>R&#45;025&#45;&gt;ext_circ_111_25_</title>
<path fill="none" stroke="darkorange" stroke-dasharray="5,2" d="M1485,-711.37C1485,-711.37 1485,-656.31 1485,-656.31"/>
<polygon fill="darkorange" stroke="darkorange" points="1487.45,-656.31 1485,-649.31 1482.55,-656.31 1487.45,-656.31"/>
</g>
<!-- S&#45;1852&#45;&gt;S&#45;2441 -->
<g id="edge15" class="edge">
<title>S&#45;1852&#45;&gt;S&#45;2441</title>
<path fill="none" stroke="#4d4d4d" d="M1081.53,-526C1070.14,-526 1062,-526 1062,-526 1062,-526 1062,-425 1062,-425 1062,-425 1049.47,-425 1049.47,-425"/>
<polygon fill="#4d4d4d" stroke="#4d4d4d" points="1049.47,-422.55 1042.47,-425 1049.47,-427.45 1049.47,-422.55"/>
</g>
<!-- S&#45;1852&#45;&gt;S&#45;2288 -->
<g id="edge16" class="edge">
<title>S&#45;1852&#45;&gt;S&#45;2288</title>
<path fill="none" stroke="#4d4d4d" d="M1152,-504.58C1152,-504.58 1152,-454.03 1152,-454.03"/>
<polygon fill="#4d4d4d" stroke="#4d4d4d" points="1154.45,-454.03 1152,-447.03 1149.55,-454.03 1154.45,-454.03"/>
</g>
<!-- C&#45;0150&#45;&gt;C&#45;0779 -->
<g id="edge22" class="edge">
<title>C&#45;0150&#45;&gt;C&#45;0779</title>
<path fill="none" stroke="#4d4d4d" d="M1150.88,-328C1060.75,-328 917,-328 917,-328 917,-328 917,-143.62 917,-143.62"/>
<polygon fill="#4d4d4d" stroke="#4d4d4d" points="919.45,-143.62 917,-136.62 914.55,-143.62 919.45,-143.62"/>
</g>
<!-- C&#45;0150&#45;&gt;C&#45;0780 -->
<g id="edge23" class="edge">
<title>C&#45;0150&#45;&gt;C&#45;0780</title>
<path fill="none" stroke="#4d4d4d" d="M1165.72,-311C1132.54,-311 1097,-311 1097,-311 1097,-311 1097,-244.56 1097,-244.56"/>
<polygon fill="#4d4d4d" stroke="#4d4d4d" points="1099.45,-244.56 1097,-237.56 1094.55,-244.56 1099.45,-244.56"/>
</g>
<!-- C&#45;0150&#45;&gt;S&#45;186 -->
<g id="edge21" class="edge">
<title>C&#45;0150&#45;&gt;S&#45;186</title>
<path fill="none" stroke="#4d4d4d" d="M1222,-302.58C1222,-302.58 1222,-252.03 1222,-252.03"/>
<polygon fill="#4d4d4d" stroke="#4d4d4d" points="1224.45,-252.03 1222,-245.03 1219.55,-252.03 1224.45,-252.03"/>
</g>
<!-- S&#45;1650 -->
<g id="node42" class="node">
<title>S&#45;1650</title>
<polygon fill="mediumseagreen" stroke="black" points="1402,-245 1330,-223.5 1402,-202 1474,-223.5 1402,-245"/>
<text text-anchor="middle" x="1402" y="-221" font-family="Arial" font-size="10.00">S&#45;1650</text>
</g>
<!-- C&#45;0150&#45;&gt;S&#45;1650 -->
<g id="edge25" class="edge">
<title>C&#45;0150&#45;&gt;S&#45;1650</title>
<path fill="none" stroke="#4d4d4d" d="M1294.32,-324C1320.84,-324 1344.5,-324 1344.5,-324 1344.5,-324 1344.5,-235.08 1344.5,-235.08"/>
<polygon fill="#4d4d4d" stroke="#4d4d4d" points="1346.95,-235.08 1344.5,-228.08 1342.05,-235.08 1346.95,-235.08"/>
</g>
<!-- R&#45;102&#45;&gt;C&#45;1280 -->
<g id="edge38" class="edge">
<title>R&#45;102&#45;&gt;C&#45;1280</title>
<path fill="none" stroke="#4d4d4d" d="M1394.88,-930C1364.7,-930 1336.5,-930 1336.5,-930 1336.5,-930 1336.5,-852.2 1336.5,-852.2"/>
<polygon fill="#4d4d4d" stroke="#4d4d4d" points="1338.95,-852.2 1336.5,-845.2 1334.05,-852.2 1338.95,-852.2"/>
</g>
<!-- R&#45;102&#45;&gt;S&#45;191 -->
<g id="edge35" class="edge">
<title>R&#45;102&#45;&gt;S&#45;191</title>
<path fill="none" stroke="#4d4d4d" d="M1467,-908.58C1467,-908.58 1467,-858.03 1467,-858.03"/>
<polygon fill="#4d4d4d" stroke="#4d4d4d" points="1469.45,-858.03 1467,-851.03 1464.55,-858.03 1469.45,-858.03"/>
</g>
<!-- R&#45;102&#45;&gt;S&#45;190 -->
<g id="edge36" class="edge">
<title>R&#45;102&#45;&gt;S&#45;190</title>
<path fill="none" stroke="#4d4d4d" d="M1539.18,-923C1589.25,-923 1647,-923 1647,-923 1647,-923 1647,-858.19 1647,-858.19"/>
<polygon fill="#4d4d4d" stroke="#4d4d4d" points="1649.45,-858.19 1647,-851.19 1644.55,-858.19 1649.45,-858.19"/>
</g>
<!-- R&#45;102&#45;&gt;C&#45;1278 -->
<g id="edge37" class="edge">
<title>R&#45;102&#45;&gt;C&#45;1278</title>
<path fill="none" stroke="#4d4d4d" d="M1539.06,-937C1621.13,-937 1744,-937 1744,-937 1744,-937 1744,-751.86 1744,-751.86"/>
<polygon fill="#4d4d4d" stroke="#4d4d4d" points="1746.45,-751.86 1744,-744.86 1741.55,-751.86 1746.45,-751.86"/>
</g>
</g>
</svg>
