<?xml version="1.0" encoding="UTF-8" standalone="no"?>
<!DOCTYPE svg PUBLIC "-//W3C//DTD SVG 1.1//EN"
 "http://www.w3.org/Graphics/SVG/1.1/DTD/svg11.dtd">
<!-- Generated by graphviz version 2.50.0 (0)
 -->
<!-- Title: Grafo_Circuito_304_22_ Pages: 1 -->
<svg width="1767pt" height="1086pt"
 viewBox="0.00 0.00 1767.00 1086.00" xmlns="http://www.w3.org/2000/svg" xmlns:xlink="http://www.w3.org/1999/xlink">
<g id="graph0" class="graph" transform="scale(1 1) rotate(0) translate(4 1082)">
<title>Grafo_Circuito_304_22_</title>
<polygon fill="white" stroke="transparent" points="-4,4 -4,-1082 1763,-1082 1763,4 -4,4"/>
<!-- S&#45;862 -->
<g id="node1" class="node">
<title>S&#45;862</title>
<polygon fill="mediumseagreen" stroke="black" points="999.5,-412 931,-394 999.5,-376 1068,-394 999.5,-412"/>
<text text-anchor="middle" x="999.5" y="-392.1" font-family="Helvetica,sans-Serif" font-size="8.00">S&#45;862</text>
</g>
<!-- R&#45;067 -->
<g id="node2" class="node">
<title>R&#45;067</title>
<polygon fill="mediumseagreen" stroke="black" points="1111,-574.54 1111,-589.46 1070.87,-600 1014.13,-600 974,-589.46 974,-574.54 1014.13,-564 1070.87,-564 1111,-574.54"/>
<text text-anchor="middle" x="1042.5" y="-580.1" font-family="Helvetica,sans-Serif" font-size="8.00">R&#45;067</text>
</g>
<!-- C&#45;0724 -->
<g id="node14" class="node">
<title>C&#45;0724</title>
<ellipse fill="mediumseagreen" stroke="black" cx="1085.5" cy="-488" rx="68.5" ry="18"/>
<text text-anchor="middle" x="1085.5" y="-486.1" font-family="Helvetica,sans-Serif" font-size="8.00">C&#45;0724</text>
</g>
<!-- R&#45;067&#45;&gt;C&#45;0724 -->
<g id="edge16" class="edge">
<title>R&#45;067&#45;&gt;C&#45;0724</title>
<path fill="none" stroke="dimgray" stroke-width="0.8" d="M1079.67,-566.05C1079.67,-566.05 1079.67,-512.95 1079.67,-512.95"/>
<polygon fill="dimgray" stroke="dimgray" stroke-width="0.8" points="1082.12,-512.95 1079.67,-505.95 1077.22,-512.95 1082.12,-512.95"/>
</g>
<!-- C&#45;0725 -->
<g id="node3" class="node">
<title>C&#45;0725</title>
<ellipse fill="mediumseagreen" stroke="black" cx="774.5" cy="-112" rx="68.5" ry="18"/>
<text text-anchor="middle" x="774.5" y="-110.1" font-family="Helvetica,sans-Serif" font-size="8.00">C&#45;0725</text>
</g>
<!-- R&#45;160 -->
<g id="node18" class="node">
<title>R&#45;160</title>
<polygon fill="tomato" stroke="black" points="843,-10.54 843,-25.46 802.87,-36 746.13,-36 706,-25.46 706,-10.54 746.13,0 802.87,0 843,-10.54"/>
<text text-anchor="middle" x="774.5" y="-16.1" font-family="Helvetica,sans-Serif" font-size="8.00">R&#45;160</text>
</g>
<!-- C&#45;0725&#45;&gt;R&#45;160 -->
<g id="edge25" class="edge">
<title>C&#45;0725&#45;&gt;R&#45;160</title>
<path fill="none" stroke="dimgray" stroke-width="0.8" d="M774.5,-93.88C774.5,-93.88 774.5,-43.07 774.5,-43.07"/>
<polygon fill="dimgray" stroke="dimgray" stroke-width="0.8" points="776.95,-43.07 774.5,-36.07 772.05,-43.07 776.95,-43.07"/>
</g>
<!-- S&#45;1915 -->
<g id="node4" class="node">
<title>S&#45;1915</title>
<polygon fill="mediumseagreen" stroke="black" points="1431.5,-318 1363,-300 1431.5,-282 1500,-300 1431.5,-318"/>
<text text-anchor="middle" x="1431.5" y="-298.1" font-family="Helvetica,sans-Serif" font-size="8.00">S&#45;1915</text>
</g>
<!-- S&#45;1939 -->
<g id="node9" class="node">
<title>S&#45;1939</title>
<polygon fill="mediumseagreen" stroke="black" points="1517.5,-224 1449,-206 1517.5,-188 1586,-206 1517.5,-224"/>
<text text-anchor="middle" x="1517.5" y="-204.1" font-family="Helvetica,sans-Serif" font-size="8.00">S&#45;1939</text>
</g>
<!-- S&#45;1915&#45;&gt;S&#45;1939 -->
<g id="edge20" class="edge">
<title>S&#45;1915&#45;&gt;S&#45;1939</title>
<path fill="none" stroke="dimgray" stroke-width="0.8" d="M1474.5,-293.24C1474.5,-293.24 1474.5,-219.95 1474.5,-219.95"/>
<polygon fill="dimgray" stroke="dimgray" stroke-width="0.8" points="1476.95,-219.95 1474.5,-212.95 1472.05,-219.95 1476.95,-219.95"/>
</g>
<!-- C&#45;1111 -->
<g id="node23" class="node">
<title>C&#45;1111</title>
<ellipse fill="mediumseagreen" stroke="black" cx="1690.5" cy="-206" rx="68.5" ry="18"/>
<text text-anchor="middle" x="1690.5" y="-204.1" font-family="Helvetica,sans-Serif" font-size="8.00">C&#45;1111</text>
</g>
<!-- S&#45;1915&#45;&gt;C&#45;1111 -->
<g id="edge27" class="edge">
<title>S&#45;1915&#45;&gt;C&#45;1111</title>
<path fill="none" stroke="dimgray" stroke-width="0.8" d="M1500.23,-300C1576.96,-300 1690.5,-300 1690.5,-300 1690.5,-300 1690.5,-231.12 1690.5,-231.12"/>
<polygon fill="dimgray" stroke="dimgray" stroke-width="0.8" points="1692.95,-231.12 1690.5,-224.12 1688.05,-231.12 1692.95,-231.12"/>
</g>
<!-- S&#45;890 -->
<g id="node24" class="node">
<title>S&#45;890</title>
<polygon fill="mediumseagreen" stroke="black" points="1022.5,-224 954,-206 1022.5,-188 1091,-206 1022.5,-224"/>
<text text-anchor="middle" x="1022.5" y="-204.1" font-family="Helvetica,sans-Serif" font-size="8.00">S&#45;890</text>
</g>
<!-- S&#45;1915&#45;&gt;S&#45;890 -->
<g id="edge21" class="edge">
<title>S&#45;1915&#45;&gt;S&#45;890</title>
<path fill="none" stroke="dimgray" stroke-width="0.8" d="M1379.67,-295.53C1379.67,-282.09 1379.67,-243 1379.67,-243 1379.67,-243 1079.5,-243 1079.5,-243 1079.5,-243 1079.5,-216.41 1079.5,-216.41"/>
<polygon fill="dimgray" stroke="dimgray" stroke-width="0.8" points="1081.95,-216.41 1079.5,-209.41 1077.05,-216.41 1081.95,-216.41"/>
</g>
<!-- C&#45;0027 -->
<g id="node26" class="node">
<title>C&#45;0027</title>
<ellipse fill="tomato" stroke="black" cx="1344.5" cy="-206" rx="68.5" ry="18"/>
<text text-anchor="middle" x="1344.5" y="-204.1" font-family="Helvetica,sans-Serif" font-size="8.00">C&#45;0027</text>
</g>
<!-- S&#45;1915&#45;&gt;C&#45;0027 -->
<g id="edge26" class="edge">
<title>S&#45;1915&#45;&gt;C&#45;0027</title>
<path fill="none" stroke="dimgray" stroke-width="0.8" d="M1396.33,-290.99C1396.33,-290.99 1396.33,-225.06 1396.33,-225.06"/>
<polygon fill="dimgray" stroke="dimgray" stroke-width="0.8" points="1398.78,-225.06 1396.33,-218.06 1393.88,-225.06 1398.78,-225.06"/>
</g>
<!-- C&#45;0218 -->
<g id="node5" class="node">
<title>C&#45;0218</title>
<ellipse fill="tomato" stroke="black" cx="232.5" cy="-394" rx="68.5" ry="18"/>
<text text-anchor="middle" x="232.5" y="-392.1" font-family="Helvetica,sans-Serif" font-size="8.00">C&#45;0218</text>
</g>
<!-- ext_circ_304_26_ -->
<g id="node32" class="node">
<title>ext_circ_304_26_</title>
<polygon fill="lightpink" stroke="red" stroke-dasharray="5,2" points="610,-1074 473,-1074 473,-1038 610,-1038 610,-1074"/>
<text text-anchor="middle" x="541.5" y="-1058.6" font-family="Helvetica,sans-Serif" font-size="8.00">Circuito:</text>
<text text-anchor="middle" x="541.5" y="-1049.6" font-family="Helvetica,sans-Serif" font-size="8.00">304&#45;26&#45;</text>
</g>
<!-- C&#45;0218&#45;&gt;ext_circ_304_26_ -->
<g id="edge32" class="edge">
<title>C&#45;0218&#45;&gt;ext_circ_304_26_</title>
<path fill="none" stroke="red" stroke-width="0.8" stroke-dasharray="5,2" d="M301.07,-394C348.64,-394 403.5,-394 403.5,-394 403.5,-394 403.5,-1056 403.5,-1056 403.5,-1056 465.9,-1056 465.9,-1056"/>
<polygon fill="red" stroke="red" stroke-width="0.8" points="465.9,-1058.45 472.9,-1056 465.9,-1053.55 465.9,-1058.45"/>
</g>
<!-- S&#45;2276 -->
<g id="node6" class="node">
<title>S&#45;2276</title>
<polygon fill="mediumseagreen" stroke="black" points="1022.5,-130 954,-112 1022.5,-94 1091,-112 1022.5,-130"/>
<text text-anchor="middle" x="1022.5" y="-110.1" font-family="Helvetica,sans-Serif" font-size="8.00">S&#45;2276</text>
</g>
<!-- R&#45;276 -->
<g id="node7" class="node">
<title>R&#45;276</title>
<polygon fill="tomato" stroke="black" points="1759,-104.54 1759,-119.46 1718.87,-130 1662.13,-130 1622,-119.46 1622,-104.54 1662.13,-94 1718.87,-94 1759,-104.54"/>
<text text-anchor="middle" x="1690.5" y="-110.1" font-family="Helvetica,sans-Serif" font-size="8.00">R&#45;276</text>
</g>
<!-- ext_circ_304_23_ -->
<g id="node34" class="node">
<title>ext_circ_304_23_</title>
<polygon fill="lightpink" stroke="red" stroke-dasharray="5,2" points="137,-1074 0,-1074 0,-1038 137,-1038 137,-1074"/>
<text text-anchor="middle" x="68.5" y="-1058.6" font-family="Helvetica,sans-Serif" font-size="8.00">Circuito:</text>
<text text-anchor="middle" x="68.5" y="-1049.6" font-family="Helvetica,sans-Serif" font-size="8.00">304&#45;23&#45;</text>
</g>
<!-- R&#45;276&#45;&gt;ext_circ_304_23_ -->
<g id="edge38" class="edge">
<title>R&#45;276&#45;&gt;ext_circ_304_23_</title>
<path fill="none" stroke="red" stroke-width="0.8" stroke-dasharray="5,2" d="M1667.67,-130.03C1667.67,-146.4 1667.67,-168 1667.67,-168 1667.67,-168 45.67,-168 45.67,-168 45.67,-168 45.67,-1030.86 45.67,-1030.86"/>
<polygon fill="red" stroke="red" stroke-width="0.8" points="43.22,-1030.86 45.67,-1037.86 48.12,-1030.86 43.22,-1030.86"/>
</g>
<!-- S&#45;1112 -->
<g id="node8" class="node">
<title>S&#45;1112</title>
<polygon fill="mediumseagreen" stroke="black" points="1172.5,-412 1104,-394 1172.5,-376 1241,-394 1172.5,-412"/>
<text text-anchor="middle" x="1172.5" y="-392.1" font-family="Helvetica,sans-Serif" font-size="8.00">S&#45;1112</text>
</g>
<!-- S&#45;1916 -->
<g id="node10" class="node">
<title>S&#45;1916</title>
<polygon fill="mediumseagreen" stroke="black" points="1258.5,-318 1190,-300 1258.5,-282 1327,-300 1258.5,-318"/>
<text text-anchor="middle" x="1258.5" y="-298.1" font-family="Helvetica,sans-Serif" font-size="8.00">S&#45;1916</text>
</g>
<!-- C&#45;0410 -->
<g id="node11" class="node">
<title>C&#45;0410</title>
<ellipse fill="tomato" stroke="black" cx="826.5" cy="-676" rx="68.5" ry="18"/>
<text text-anchor="middle" x="826.5" y="-674.1" font-family="Helvetica,sans-Serif" font-size="8.00">C&#45;0410</text>
</g>
<!-- C&#45;0412 -->
<g id="node28" class="node">
<title>C&#45;0412</title>
<ellipse fill="mediumseagreen" stroke="black" cx="653.5" cy="-488" rx="68.5" ry="18"/>
<text text-anchor="middle" x="653.5" y="-486.1" font-family="Helvetica,sans-Serif" font-size="8.00">C&#45;0412</text>
</g>
<!-- C&#45;0410&#45;&gt;C&#45;0412 -->
<g id="edge31" class="edge">
<title>C&#45;0410&#45;&gt;C&#45;0412</title>
<path fill="none" stroke="blue" stroke-width="0.8" stroke-dasharray="5,2" d="M803.67,-658.88C803.67,-613.57 803.67,-494 803.67,-494 803.67,-494 725.49,-494 725.49,-494"/>
<polygon fill="blue" stroke="blue" stroke-width="0.8" points="725.49,-491.55 718.49,-494 725.49,-496.45 725.49,-491.55"/>
</g>
<!-- C&#45;0722 -->
<g id="node12" class="node">
<title>C&#45;0722</title>
<ellipse fill="mediumseagreen" stroke="black" cx="999.5" cy="-676" rx="68.5" ry="18"/>
<text text-anchor="middle" x="999.5" y="-674.1" font-family="Helvetica,sans-Serif" font-size="8.00">C&#45;0722</text>
</g>
<!-- C&#45;0722&#45;&gt;R&#45;067 -->
<g id="edge15" class="edge">
<title>C&#45;0722&#45;&gt;R&#45;067</title>
<path fill="none" stroke="dimgray" stroke-width="0.8" d="M1021,-658.76C1021,-658.76 1021,-607.09 1021,-607.09"/>
<polygon fill="dimgray" stroke="dimgray" stroke-width="0.8" points="1023.45,-607.09 1021,-600.09 1018.55,-607.09 1023.45,-607.09"/>
</g>
<!-- S&#45;894 -->
<g id="node13" class="node">
<title>S&#45;894</title>
<polygon fill="mediumseagreen" stroke="black" points="480.5,-412 412,-394 480.5,-376 549,-394 480.5,-412"/>
<text text-anchor="middle" x="480.5" y="-392.1" font-family="Helvetica,sans-Serif" font-size="8.00">S&#45;894</text>
</g>
<!-- C&#45;0724&#45;&gt;S&#45;862 -->
<g id="edge18" class="edge">
<title>C&#45;0724&#45;&gt;S&#45;862</title>
<path fill="none" stroke="dimgray" stroke-width="0.8" d="M1042.5,-473.72C1042.5,-473.72 1042.5,-407.83 1042.5,-407.83"/>
<polygon fill="dimgray" stroke="dimgray" stroke-width="0.8" points="1044.95,-407.83 1042.5,-400.83 1040.05,-407.83 1044.95,-407.83"/>
</g>
<!-- C&#45;0724&#45;&gt;S&#45;1112 -->
<g id="edge30" class="edge">
<title>C&#45;0724&#45;&gt;S&#45;1112</title>
<path fill="none" stroke="dimgray" stroke-width="0.8" d="M1129,-473.72C1129,-473.72 1129,-407.83 1129,-407.83"/>
<polygon fill="dimgray" stroke="dimgray" stroke-width="0.8" points="1131.45,-407.83 1129,-400.83 1126.55,-407.83 1131.45,-407.83"/>
</g>
<!-- S&#45;861 -->
<g id="node25" class="node">
<title>S&#45;861</title>
<polygon fill="mediumseagreen" stroke="black" points="1345.5,-412 1277,-394 1345.5,-376 1414,-394 1345.5,-412"/>
<text text-anchor="middle" x="1345.5" y="-392.1" font-family="Helvetica,sans-Serif" font-size="8.00">S&#45;861</text>
</g>
<!-- C&#45;0724&#45;&gt;S&#45;861 -->
<g id="edge17" class="edge">
<title>C&#45;0724&#45;&gt;S&#45;861</title>
<path fill="none" stroke="dimgray" stroke-width="0.8" d="M1154.15,-488C1231.18,-488 1345.5,-488 1345.5,-488 1345.5,-488 1345.5,-419.12 1345.5,-419.12"/>
<polygon fill="dimgray" stroke="dimgray" stroke-width="0.8" points="1347.95,-419.12 1345.5,-412.12 1343.05,-419.12 1347.95,-419.12"/>
</g>
<!-- C&#45;0723 -->
<g id="node15" class="node">
<title>C&#45;0723</title>
<ellipse fill="tomato" stroke="black" cx="480.5" cy="-676" rx="68.5" ry="18"/>
<text text-anchor="middle" x="480.5" y="-674.1" font-family="Helvetica,sans-Serif" font-size="8.00">C&#45;0723</text>
</g>
<!-- C&#45;0723&#45;&gt;C&#45;0724 -->
<g id="edge34" class="edge">
<title>C&#45;0723&#45;&gt;C&#45;0724</title>
<path fill="none" stroke="blue" stroke-width="0.8" stroke-dasharray="5,2" d="M457.67,-658.99C457.67,-621.49 457.67,-535 457.67,-535 457.67,-535 1048.33,-535 1048.33,-535 1048.33,-535 1048.33,-510.13 1048.33,-510.13"/>
<polygon fill="blue" stroke="blue" stroke-width="0.8" points="1050.78,-510.13 1048.33,-503.13 1045.88,-510.13 1050.78,-510.13"/>
</g>
<!-- R&#45;140 -->
<g id="node16" class="node">
<title>R&#45;140</title>
<polygon fill="mediumseagreen" stroke="black" points="722,-574.54 722,-589.46 681.87,-600 625.13,-600 585,-589.46 585,-574.54 625.13,-564 681.87,-564 722,-574.54"/>
<text text-anchor="middle" x="653.5" y="-580.1" font-family="Helvetica,sans-Serif" font-size="8.00">R&#45;140</text>
</g>
<!-- R&#45;140&#45;&gt;C&#45;0412 -->
<g id="edge7" class="edge">
<title>R&#45;140&#45;&gt;C&#45;0412</title>
<path fill="none" stroke="dimgray" stroke-width="0.8" d="M653.5,-563.88C653.5,-563.88 653.5,-513.07 653.5,-513.07"/>
<polygon fill="dimgray" stroke="dimgray" stroke-width="0.8" points="655.95,-513.07 653.5,-506.07 651.05,-513.07 655.95,-513.07"/>
</g>
<!-- C&#45;0411 -->
<g id="node17" class="node">
<title>C&#45;0411</title>
<ellipse fill="mediumseagreen" stroke="black" cx="653.5" cy="-676" rx="68.5" ry="18"/>
<text text-anchor="middle" x="653.5" y="-674.1" font-family="Helvetica,sans-Serif" font-size="8.00">C&#45;0411</text>
</g>
<!-- C&#45;0411&#45;&gt;R&#45;140 -->
<g id="edge6" class="edge">
<title>C&#45;0411&#45;&gt;R&#45;140</title>
<path fill="none" stroke="dimgray" stroke-width="0.8" d="M653.5,-657.88C653.5,-657.88 653.5,-607.07 653.5,-607.07"/>
<polygon fill="dimgray" stroke="dimgray" stroke-width="0.8" points="655.95,-607.07 653.5,-600.07 651.05,-607.07 655.95,-607.07"/>
</g>
<!-- ext_circ_307_24_ -->
<g id="node33" class="node">
<title>ext_circ_307_24_</title>
<polygon fill="lightpink" stroke="red" stroke-dasharray="5,2" points="395,-1074 258,-1074 258,-1038 395,-1038 395,-1074"/>
<text text-anchor="middle" x="326.5" y="-1058.6" font-family="Helvetica,sans-Serif" font-size="8.00">Circuito:</text>
<text text-anchor="middle" x="326.5" y="-1049.6" font-family="Helvetica,sans-Serif" font-size="8.00">307&#45;24&#45;</text>
</g>
<!-- R&#45;160&#45;&gt;ext_circ_307_24_ -->
<g id="edge36" class="edge">
<title>R&#45;160&#45;&gt;ext_circ_307_24_</title>
<path fill="none" stroke="red" stroke-width="0.8" stroke-dasharray="5,2" d="M705.9,-18C581.7,-18 332.33,-18 332.33,-18 332.33,-18 332.33,-1030.98 332.33,-1030.98"/>
<polygon fill="red" stroke="red" stroke-width="0.8" points="329.88,-1030.98 332.33,-1037.98 334.78,-1030.98 329.88,-1030.98"/>
</g>
<!-- C&#45;0035 -->
<g id="node19" class="node">
<title>C&#45;0035</title>
<ellipse fill="mediumseagreen" stroke="black" cx="739.5" cy="-958" rx="68.5" ry="18"/>
<text text-anchor="middle" x="739.5" y="-956.1" font-family="Helvetica,sans-Serif" font-size="8.00">C&#45;0035</text>
</g>
<!-- S&#45;892 -->
<g id="node27" class="node">
<title>S&#45;892</title>
<polygon fill="mediumseagreen" stroke="black" points="739.5,-882 671,-864 739.5,-846 808,-864 739.5,-882"/>
<text text-anchor="middle" x="739.5" y="-862.1" font-family="Helvetica,sans-Serif" font-size="8.00">S&#45;892</text>
</g>
<!-- C&#45;0035&#45;&gt;S&#45;892 -->
<g id="edge2" class="edge">
<title>C&#45;0035&#45;&gt;S&#45;892</title>
<path fill="none" stroke="dimgray" stroke-width="0.8" d="M739.5,-939.88C739.5,-939.88 739.5,-889.07 739.5,-889.07"/>
<polygon fill="dimgray" stroke="dimgray" stroke-width="0.8" points="741.95,-889.07 739.5,-882.07 737.05,-889.07 741.95,-889.07"/>
</g>
<!-- C&#45;0726 -->
<g id="node20" class="node">
<title>C&#45;0726</title>
<ellipse fill="tomato" stroke="black" cx="1195.5" cy="-112" rx="68.5" ry="18"/>
<text text-anchor="middle" x="1195.5" y="-110.1" font-family="Helvetica,sans-Serif" font-size="8.00">C&#45;0726</text>
</g>
<!-- C&#45;0726&#45;&gt;ext_circ_307_24_ -->
<g id="edge35" class="edge">
<title>C&#45;0726&#45;&gt;ext_circ_307_24_</title>
<path fill="none" stroke="red" stroke-width="0.8" stroke-dasharray="5,2" d="M1169,-128.77C1169,-138.56 1169,-149 1169,-149 1169,-149 363.67,-149 363.67,-149 363.67,-149 363.67,-1030.88 363.67,-1030.88"/>
<polygon fill="red" stroke="red" stroke-width="0.8" points="361.22,-1030.88 363.67,-1037.88 366.12,-1030.88 361.22,-1030.88"/>
</g>
<!-- 304&#45;22&#45; -->
<g id="node21" class="node">
<title>304&#45;22&#45;</title>
<polygon fill="gold" stroke="black" points="808,-1048.54 808,-1063.46 767.87,-1074 711.13,-1074 671,-1063.46 671,-1048.54 711.13,-1038 767.87,-1038 808,-1048.54"/>
<polygon fill="none" stroke="black" points="812,-1045.46 812,-1066.54 768.39,-1078 710.61,-1078 667,-1066.54 667,-1045.46 710.61,-1034 768.39,-1034 812,-1045.46"/>
<text text-anchor="middle" x="739.5" y="-1054.1" font-family="Helvetica,sans-Serif" font-size="8.00">304&#45;22&#45;</text>
</g>
<!-- 304&#45;22&#45;&#45;&gt;C&#45;0035 -->
<g id="edge1" class="edge">
<title>304&#45;22&#45;&#45;&gt;C&#45;0035</title>
<path fill="none" stroke="dimgray" stroke-width="0.8" d="M739.5,-1033.76C739.5,-1033.76 739.5,-983.21 739.5,-983.21"/>
<polygon fill="dimgray" stroke="dimgray" stroke-width="0.8" points="741.95,-983.21 739.5,-976.21 737.05,-983.21 741.95,-983.21"/>
</g>
<!-- S&#45;895 -->
<g id="node22" class="node">
<title>S&#45;895</title>
<polygon fill="mediumseagreen" stroke="black" points="653.5,-412 585,-394 653.5,-376 722,-394 653.5,-412"/>
<text text-anchor="middle" x="653.5" y="-392.1" font-family="Helvetica,sans-Serif" font-size="8.00">S&#45;895</text>
</g>
<!-- C&#45;1111&#45;&gt;R&#45;276 -->
<g id="edge28" class="edge">
<title>C&#45;1111&#45;&gt;R&#45;276</title>
<path fill="none" stroke="dimgray" stroke-width="0.8" d="M1713.33,-188.76C1713.33,-188.76 1713.33,-137.09 1713.33,-137.09"/>
<polygon fill="dimgray" stroke="dimgray" stroke-width="0.8" points="1715.78,-137.09 1713.33,-130.09 1710.88,-137.09 1715.78,-137.09"/>
</g>
<!-- S&#45;890&#45;&gt;C&#45;0725 -->
<g id="edge23" class="edge">
<title>S&#45;890&#45;&gt;C&#45;0725</title>
<path fill="none" stroke="dimgray" stroke-width="0.8" d="M953.78,-206C888.58,-206 800.5,-206 800.5,-206 800.5,-206 800.5,-135.81 800.5,-135.81"/>
<polygon fill="dimgray" stroke="dimgray" stroke-width="0.8" points="802.95,-135.81 800.5,-128.81 798.05,-135.81 802.95,-135.81"/>
</g>
<!-- S&#45;890&#45;&gt;S&#45;2276 -->
<g id="edge22" class="edge">
<title>S&#45;890&#45;&gt;S&#45;2276</title>
<path fill="none" stroke="dimgray" stroke-width="0.8" d="M1022.5,-187.88C1022.5,-187.88 1022.5,-137.07 1022.5,-137.07"/>
<polygon fill="dimgray" stroke="dimgray" stroke-width="0.8" points="1024.95,-137.07 1022.5,-130.07 1020.05,-137.07 1024.95,-137.07"/>
</g>
<!-- S&#45;890&#45;&gt;C&#45;0726 -->
<g id="edge24" class="edge">
<title>S&#45;890&#45;&gt;C&#45;0726</title>
<path fill="none" stroke="dimgray" stroke-width="0.8" d="M1091.13,-206C1120.42,-206 1148,-206 1148,-206 1148,-206 1148,-132.07 1148,-132.07"/>
<polygon fill="dimgray" stroke="dimgray" stroke-width="0.8" points="1150.45,-132.07 1148,-125.07 1145.55,-132.07 1150.45,-132.07"/>
</g>
<!-- S&#45;861&#45;&gt;S&#45;1915 -->
<g id="edge19" class="edge">
<title>S&#45;861&#45;&gt;S&#45;1915</title>
<path fill="none" stroke="dimgray" stroke-width="0.8" d="M1388.5,-387.24C1388.5,-387.24 1388.5,-313.95 1388.5,-313.95"/>
<polygon fill="dimgray" stroke="dimgray" stroke-width="0.8" points="1390.95,-313.95 1388.5,-306.95 1386.05,-313.95 1390.95,-313.95"/>
</g>
<!-- S&#45;861&#45;&gt;S&#45;1916 -->
<g id="edge29" class="edge">
<title>S&#45;861&#45;&gt;S&#45;1916</title>
<path fill="none" stroke="dimgray" stroke-width="0.8" d="M1302,-387.24C1302,-387.24 1302,-313.7 1302,-313.7"/>
<polygon fill="dimgray" stroke="dimgray" stroke-width="0.8" points="1304.45,-313.7 1302,-306.7 1299.55,-313.7 1304.45,-313.7"/>
</g>
<!-- C&#45;0027&#45;&gt;ext_circ_304_23_ -->
<g id="edge37" class="edge">
<title>C&#45;0027&#45;&gt;ext_circ_304_23_</title>
<path fill="none" stroke="red" stroke-width="0.8" stroke-dasharray="5,2" d="M1301.5,-220.13C1301.5,-236.72 1301.5,-262 1301.5,-262 1301.5,-262 91.33,-262 91.33,-262 91.33,-262 91.33,-1030.92 91.33,-1030.92"/>
<polygon fill="red" stroke="red" stroke-width="0.8" points="88.88,-1030.92 91.33,-1037.92 93.78,-1030.92 88.88,-1030.92"/>
</g>
<!-- S&#45;1326 -->
<g id="node31" class="node">
<title>S&#45;1326</title>
<polygon fill="mediumseagreen" stroke="black" points="739.5,-788 671,-770 739.5,-752 808,-770 739.5,-788"/>
<text text-anchor="middle" x="739.5" y="-768.1" font-family="Helvetica,sans-Serif" font-size="8.00">S&#45;1326</text>
</g>
<!-- S&#45;892&#45;&gt;S&#45;1326 -->
<g id="edge3" class="edge">
<title>S&#45;892&#45;&gt;S&#45;1326</title>
<path fill="none" stroke="dimgray" stroke-width="0.8" d="M739.5,-845.88C739.5,-845.88 739.5,-795.07 739.5,-795.07"/>
<polygon fill="dimgray" stroke="dimgray" stroke-width="0.8" points="741.95,-795.07 739.5,-788.07 737.05,-795.07 741.95,-795.07"/>
</g>
<!-- C&#45;0412&#45;&gt;C&#45;0218 -->
<g id="edge9" class="edge">
<title>C&#45;0412&#45;&gt;C&#45;0218</title>
<path fill="none" stroke="dimgray" stroke-width="0.8" d="M588.78,-494C481.74,-494 279.5,-494 279.5,-494 279.5,-494 279.5,-414.49 279.5,-414.49"/>
<polygon fill="dimgray" stroke="dimgray" stroke-width="0.8" points="281.95,-414.49 279.5,-407.49 277.05,-414.49 281.95,-414.49"/>
</g>
<!-- C&#45;0412&#45;&gt;S&#45;894 -->
<g id="edge8" class="edge">
<title>C&#45;0412&#45;&gt;S&#45;894</title>
<path fill="none" stroke="dimgray" stroke-width="0.8" d="M588.51,-482C547.92,-482 503.33,-482 503.33,-482 503.33,-482 503.33,-413.24 503.33,-413.24"/>
<polygon fill="dimgray" stroke="dimgray" stroke-width="0.8" points="505.78,-413.24 503.33,-406.24 500.88,-413.24 505.78,-413.24"/>
</g>
<!-- C&#45;0412&#45;&gt;S&#45;895 -->
<g id="edge12" class="edge">
<title>C&#45;0412&#45;&gt;S&#45;895</title>
<path fill="none" stroke="dimgray" stroke-width="0.8" d="M653.5,-469.88C653.5,-469.88 653.5,-419.07 653.5,-419.07"/>
<polygon fill="dimgray" stroke="dimgray" stroke-width="0.8" points="655.95,-419.07 653.5,-412.07 651.05,-419.07 655.95,-419.07"/>
</g>
<!-- C&#45;0977 -->
<g id="node30" class="node">
<title>C&#45;0977</title>
<ellipse fill="mediumseagreen" stroke="black" cx="826.5" cy="-394" rx="68.5" ry="18"/>
<text text-anchor="middle" x="826.5" y="-392.1" font-family="Helvetica,sans-Serif" font-size="8.00">C&#45;0977</text>
</g>
<!-- C&#45;0412&#45;&gt;C&#45;0977 -->
<g id="edge10" class="edge">
<title>C&#45;0412&#45;&gt;C&#45;0977</title>
<path fill="none" stroke="dimgray" stroke-width="0.8" d="M718.17,-482C775.21,-482 849.33,-482 849.33,-482 849.33,-482 849.33,-418.39 849.33,-418.39"/>
<polygon fill="dimgray" stroke="dimgray" stroke-width="0.8" points="851.78,-418.39 849.33,-411.39 846.88,-418.39 851.78,-418.39"/>
</g>
<!-- R&#45;233 -->
<g id="node29" class="node">
<title>R&#45;233</title>
<polygon fill="tomato" stroke="black" points="895,-292.54 895,-307.46 854.87,-318 798.13,-318 758,-307.46 758,-292.54 798.13,-282 854.87,-282 895,-292.54"/>
<text text-anchor="middle" x="826.5" y="-298.1" font-family="Helvetica,sans-Serif" font-size="8.00">R&#45;233</text>
</g>
<!-- R&#45;233&#45;&gt;ext_circ_304_26_ -->
<g id="edge33" class="edge">
<title>R&#45;233&#45;&gt;ext_circ_304_26_</title>
<path fill="none" stroke="red" stroke-width="0.8" stroke-dasharray="5,2" d="M757.98,-300C681.1,-300 567,-300 567,-300 567,-300 567,-1030.69 567,-1030.69"/>
<polygon fill="red" stroke="red" stroke-width="0.8" points="564.55,-1030.69 567,-1037.69 569.45,-1030.69 564.55,-1030.69"/>
</g>
<!-- C&#45;0977&#45;&gt;R&#45;233 -->
<g id="edge11" class="edge">
<title>C&#45;0977&#45;&gt;R&#45;233</title>
<path fill="none" stroke="dimgray" stroke-width="0.8" d="M826.5,-375.88C826.5,-375.88 826.5,-325.07 826.5,-325.07"/>
<polygon fill="dimgray" stroke="dimgray" stroke-width="0.8" points="828.95,-325.07 826.5,-318.07 824.05,-325.07 828.95,-325.07"/>
</g>
<!-- S&#45;1326&#45;&gt;C&#45;0410 -->
<g id="edge4" class="edge">
<title>S&#45;1326&#45;&gt;C&#45;0410</title>
<path fill="none" stroke="dimgray" stroke-width="0.8" d="M783,-763.24C783,-763.24 783,-697.15 783,-697.15"/>
<polygon fill="dimgray" stroke="dimgray" stroke-width="0.8" points="785.45,-697.15 783,-690.15 780.55,-697.15 785.45,-697.15"/>
</g>
<!-- S&#45;1326&#45;&gt;C&#45;0722 -->
<g id="edge13" class="edge">
<title>S&#45;1326&#45;&gt;C&#45;0722</title>
<path fill="none" stroke="dimgray" stroke-width="0.8" d="M808.15,-770C885.18,-770 999.5,-770 999.5,-770 999.5,-770 999.5,-701.12 999.5,-701.12"/>
<polygon fill="dimgray" stroke="dimgray" stroke-width="0.8" points="1001.95,-701.12 999.5,-694.12 997.05,-701.12 1001.95,-701.12"/>
</g>
<!-- S&#45;1326&#45;&gt;C&#45;0723 -->
<g id="edge14" class="edge">
<title>S&#45;1326&#45;&gt;C&#45;0723</title>
<path fill="none" stroke="dimgray" stroke-width="0.8" d="M670.94,-770C603.64,-770 511,-770 511,-770 511,-770 511,-699.37 511,-699.37"/>
<polygon fill="dimgray" stroke="dimgray" stroke-width="0.8" points="513.45,-699.37 511,-692.37 508.55,-699.37 513.45,-699.37"/>
</g>
<!-- S&#45;1326&#45;&gt;C&#45;0411 -->
<g id="edge5" class="edge">
<title>S&#45;1326&#45;&gt;C&#45;0411</title>
<path fill="none" stroke="dimgray" stroke-width="0.8" d="M696.5,-763.24C696.5,-763.24 696.5,-697.15 696.5,-697.15"/>
<polygon fill="dimgray" stroke="dimgray" stroke-width="0.8" points="698.95,-697.15 696.5,-690.15 694.05,-697.15 698.95,-697.15"/>
</g>
</g>
</svg>
