<?xml version="1.0" encoding="UTF-8" standalone="no"?>
<!DOCTYPE svg PUBLIC "-//W3C//DTD SVG 1.1//EN"
 "http://www.w3.org/Graphics/SVG/1.1/DTD/svg11.dtd">
<!-- Generated by graphviz version 2.50.0 (0)
 -->
<!-- Title: Grafo_Circuito_113_26_ Pages: 1 -->
<svg width="1052pt" height="968pt"
 viewBox="0.00 0.00 1052.00 968.00" xmlns="http://www.w3.org/2000/svg" xmlns:xlink="http://www.w3.org/1999/xlink">
<g id="graph0" class="graph" transform="scale(1 1) rotate(0) translate(4 964)">
<title>Grafo_Circuito_113_26_</title>
<polygon fill="white" stroke="transparent" points="-4,4 -4,-964 1048,-964 1048,4 -4,4"/>
<!-- C&#45;0402 -->
<g id="node1" class="node">
<title>C&#45;0402</title>
<ellipse fill="mediumseagreen" stroke="black" cx="432" cy="-526.5" rx="72" ry="21.5"/>
<text text-anchor="middle" x="432" y="-524" font-family="Arial" font-size="10.00">C&#45;0402</text>
</g>
<!-- R&#45;137 -->
<g id="node11" class="node">
<title>R&#45;137</title>
<polygon fill="mediumseagreen" stroke="black" points="504,-416.59 504,-434.41 461.82,-447 402.18,-447 360,-434.41 360,-416.59 402.18,-404 461.82,-404 504,-416.59"/>
<text text-anchor="middle" x="432" y="-423" font-family="Arial" font-size="10.00">R&#45;137</text>
</g>
<!-- C&#45;0402&#45;&gt;R&#45;137 -->
<g id="edge9" class="edge">
<title>C&#45;0402&#45;&gt;R&#45;137</title>
<path fill="none" stroke="#4d4d4d" d="M432,-504.58C432,-504.58 432,-454.03 432,-454.03"/>
<polygon fill="#4d4d4d" stroke="#4d4d4d" points="434.45,-454.03 432,-447.03 429.55,-454.03 434.45,-454.03"/>
</g>
<!-- C&#45;0512 -->
<g id="node2" class="node">
<title>C&#45;0512</title>
<ellipse fill="mediumseagreen" stroke="black" cx="702" cy="-728.5" rx="72" ry="21.5"/>
<text text-anchor="middle" x="702" y="-726" font-family="Arial" font-size="10.00">C&#45;0512</text>
</g>
<!-- R&#45;148 -->
<g id="node10" class="node">
<title>R&#45;148</title>
<polygon fill="mediumseagreen" stroke="black" points="774,-618.59 774,-636.41 731.82,-649 672.18,-649 630,-636.41 630,-618.59 672.18,-606 731.82,-606 774,-618.59"/>
<text text-anchor="middle" x="702" y="-625" font-family="Arial" font-size="10.00">R&#45;148</text>
</g>
<!-- C&#45;0512&#45;&gt;R&#45;148 -->
<g id="edge3" class="edge">
<title>C&#45;0512&#45;&gt;R&#45;148</title>
<path fill="none" stroke="#4d4d4d" d="M702,-706.58C702,-706.58 702,-656.03 702,-656.03"/>
<polygon fill="#4d4d4d" stroke="#4d4d4d" points="704.45,-656.03 702,-649.03 699.55,-656.03 704.45,-656.03"/>
</g>
<!-- 113&#45;26&#45; -->
<g id="node3" class="node">
<title>113&#45;26&#45;</title>
<polygon fill="gold" stroke="black" points="774,-925.59 774,-943.41 731.82,-956 672.18,-956 630,-943.41 630,-925.59 672.18,-913 731.82,-913 774,-925.59"/>
<polygon fill="none" stroke="black" points="778,-922.61 778,-946.39 732.41,-960 671.59,-960 626,-946.39 626,-922.61 671.59,-909 732.41,-909 778,-922.61"/>
<text text-anchor="middle" x="702" y="-932" font-family="Arial" font-size="10.00">113&#45;26&#45;</text>
</g>
<!-- C&#45;0172 -->
<g id="node18" class="node">
<title>C&#45;0172</title>
<ellipse fill="mediumseagreen" stroke="black" cx="702" cy="-829.5" rx="72" ry="21.5"/>
<text text-anchor="middle" x="702" y="-827" font-family="Arial" font-size="10.00">C&#45;0172</text>
</g>
<!-- 113&#45;26&#45;&#45;&gt;C&#45;0172 -->
<g id="edge1" class="edge">
<title>113&#45;26&#45;&#45;&gt;C&#45;0172</title>
<path fill="none" stroke="#4d4d4d" d="M702,-908.81C702,-908.81 702,-858.03 702,-858.03"/>
<polygon fill="#4d4d4d" stroke="#4d4d4d" points="704.45,-858.03 702,-851.03 699.55,-858.03 704.45,-858.03"/>
</g>
<!-- C&#45;0401 -->
<g id="node4" class="node">
<title>C&#45;0401</title>
<ellipse fill="tomato" stroke="black" cx="612" cy="-526.5" rx="72" ry="21.5"/>
<text text-anchor="middle" x="612" y="-524" font-family="Arial" font-size="10.00">C&#45;0401</text>
</g>
<!-- S&#45;1197 -->
<g id="node5" class="node">
<title>S&#45;1197</title>
<polygon fill="mediumseagreen" stroke="black" points="342,-245 270,-223.5 342,-202 414,-223.5 342,-245"/>
<text text-anchor="middle" x="342" y="-221" font-family="Arial" font-size="10.00">S&#45;1197</text>
</g>
<!-- C&#45;0401&#45;&gt;S&#45;1197 -->
<g id="edge19" class="edge">
<title>C&#45;0401&#45;&gt;S&#45;1197</title>
<path fill="none" stroke="blue" stroke-dasharray="5,2" d="M567,-509.54C567,-452.93 567,-274 567,-274 567,-274 396,-274 396,-274 396,-274 396,-235.9 396,-235.9"/>
<polygon fill="blue" stroke="blue" points="398.45,-235.9 396,-228.9 393.55,-235.9 398.45,-235.9"/>
</g>
<!-- C&#45;0332 -->
<g id="node6" class="node">
<title>C&#45;0332</title>
<ellipse fill="tomato" stroke="black" cx="72" cy="-122.5" rx="72" ry="21.5"/>
<text text-anchor="middle" x="72" y="-120" font-family="Arial" font-size="10.00">C&#45;0332</text>
</g>
<!-- S&#45;1197&#45;&gt;C&#45;0332 -->
<g id="edge15" class="edge">
<title>S&#45;1197&#45;&gt;C&#45;0332</title>
<path fill="none" stroke="#4d4d4d" d="M271.51,-223C198.81,-223 96,-223 96,-223 96,-223 96,-149.84 96,-149.84"/>
<polygon fill="#4d4d4d" stroke="#4d4d4d" points="98.45,-149.84 96,-142.84 93.55,-149.84 98.45,-149.84"/>
</g>
<!-- S&#45;2384 -->
<g id="node8" class="node">
<title>S&#45;2384</title>
<polygon fill="mediumseagreen" stroke="black" points="252,-144 180,-122.5 252,-101 324,-122.5 252,-144"/>
<text text-anchor="middle" x="252" y="-120" font-family="Arial" font-size="10.00">S&#45;2384</text>
</g>
<!-- S&#45;1197&#45;&gt;S&#45;2384 -->
<g id="edge17" class="edge">
<title>S&#45;1197&#45;&gt;S&#45;2384</title>
<path fill="none" stroke="#4d4d4d" d="M297,-215.23C297,-215.23 297,-137.6 297,-137.6"/>
<polygon fill="#4d4d4d" stroke="#4d4d4d" points="299.45,-137.6 297,-130.6 294.55,-137.6 299.45,-137.6"/>
</g>
<!-- C&#45;1210 -->
<g id="node13" class="node">
<title>C&#45;1210</title>
<ellipse fill="mediumseagreen" stroke="black" cx="432" cy="-122.5" rx="72" ry="21.5"/>
<text text-anchor="middle" x="432" y="-120" font-family="Arial" font-size="10.00">C&#45;1210</text>
</g>
<!-- S&#45;1197&#45;&gt;C&#45;1210 -->
<g id="edge16" class="edge">
<title>S&#45;1197&#45;&gt;C&#45;1210</title>
<path fill="none" stroke="#4d4d4d" d="M378,-212.69C378,-212.69 378,-143.78 378,-143.78"/>
<polygon fill="#4d4d4d" stroke="#4d4d4d" points="380.45,-143.78 378,-136.78 375.55,-143.78 380.45,-143.78"/>
</g>
<!-- S&#45;1093 -->
<g id="node17" class="node">
<title>S&#45;1093</title>
<polygon fill="mediumseagreen" stroke="black" points="612,-144 540,-122.5 612,-101 684,-122.5 612,-144"/>
<text text-anchor="middle" x="612" y="-120" font-family="Arial" font-size="10.00">S&#45;1093</text>
</g>
<!-- S&#45;1197&#45;&gt;S&#45;1093 -->
<g id="edge12" class="edge">
<title>S&#45;1197&#45;&gt;S&#45;1093</title>
<path fill="none" stroke="#4d4d4d" d="M396,-218.1C396,-205.07 396,-173 396,-173 396,-173 567,-173 567,-173 567,-173 567,-137.84 567,-137.84"/>
<polygon fill="#4d4d4d" stroke="#4d4d4d" points="569.45,-137.84 567,-130.84 564.55,-137.84 569.45,-137.84"/>
</g>
<!-- ext_circ_112_23_ -->
<g id="node20" class="node">
<title>ext_circ_112_23_</title>
<polygon fill="lightpink" stroke="darkorange" stroke-dasharray="5,2" points="515,-956 371,-956 371,-913 515,-913 515,-956"/>
<text text-anchor="middle" x="443" y="-937.5" font-family="Arial" font-size="10.00">Circuito:</text>
<text text-anchor="middle" x="443" y="-926.5" font-family="Arial" font-size="10.00">112&#45;23&#45;</text>
</g>
<!-- C&#45;0332&#45;&gt;ext_circ_112_23_ -->
<g id="edge22" class="edge">
<title>C&#45;0332&#45;&gt;ext_circ_112_23_</title>
<path fill="none" stroke="darkorange" stroke-dasharray="5,2" d="M48,-142.97C48,-268.96 48,-934 48,-934 48,-934 363.55,-934 363.55,-934"/>
<polygon fill="darkorange" stroke="darkorange" points="363.55,-936.45 370.55,-934 363.55,-931.55 363.55,-936.45"/>
</g>
<!-- S&#45;1227 -->
<g id="node7" class="node">
<title>S&#45;1227</title>
<polygon fill="mediumseagreen" stroke="black" points="522,-245 450,-223.5 522,-202 594,-223.5 522,-245"/>
<text text-anchor="middle" x="522" y="-221" font-family="Arial" font-size="10.00">S&#45;1227</text>
</g>
<!-- S&#45;1644 -->
<g id="node9" class="node">
<title>S&#45;1644</title>
<polygon fill="mediumseagreen" stroke="black" points="792,-447 720,-425.5 792,-404 864,-425.5 792,-447"/>
<text text-anchor="middle" x="792" y="-423" font-family="Arial" font-size="10.00">S&#45;1644</text>
</g>
<!-- R&#45;148&#45;&gt;C&#45;0402 -->
<g id="edge7" class="edge">
<title>R&#45;148&#45;&gt;C&#45;0402</title>
<path fill="none" stroke="#4d4d4d" d="M629.72,-627C551.41,-627 437.5,-627 437.5,-627 437.5,-627 437.5,-555.31 437.5,-555.31"/>
<polygon fill="#4d4d4d" stroke="#4d4d4d" points="439.95,-555.31 437.5,-548.31 435.05,-555.31 439.95,-555.31"/>
</g>
<!-- R&#45;148&#45;&gt;C&#45;0401 -->
<g id="edge8" class="edge">
<title>R&#45;148&#45;&gt;C&#45;0401</title>
<path fill="none" stroke="#4d4d4d" d="M657,-610.37C657,-610.37 657,-550.38 657,-550.38"/>
<polygon fill="#4d4d4d" stroke="#4d4d4d" points="659.45,-550.38 657,-543.38 654.55,-550.38 659.45,-550.38"/>
</g>
<!-- S&#45;881 -->
<g id="node14" class="node">
<title>S&#45;881</title>
<polygon fill="mediumseagreen" stroke="black" points="792,-548 720,-526.5 792,-505 864,-526.5 792,-548"/>
<text text-anchor="middle" x="792" y="-524" font-family="Arial" font-size="10.00">S&#45;881</text>
</g>
<!-- R&#45;148&#45;&gt;S&#45;881 -->
<g id="edge4" class="edge">
<title>R&#45;148&#45;&gt;S&#45;881</title>
<path fill="none" stroke="#4d4d4d" d="M747,-610.37C747,-610.37 747,-541.78 747,-541.78"/>
<polygon fill="#4d4d4d" stroke="#4d4d4d" points="749.45,-541.78 747,-534.78 744.55,-541.78 749.45,-541.78"/>
</g>
<!-- S&#45;2176 -->
<g id="node16" class="node">
<title>S&#45;2176</title>
<polygon fill="mediumseagreen" stroke="black" points="972,-548 900,-526.5 972,-505 1044,-526.5 972,-548"/>
<text text-anchor="middle" x="972" y="-524" font-family="Arial" font-size="10.00">S&#45;2176</text>
</g>
<!-- R&#45;148&#45;&gt;S&#45;2176 -->
<g id="edge6" class="edge">
<title>R&#45;148&#45;&gt;S&#45;2176</title>
<path fill="none" stroke="#4d4d4d" d="M774,-627C853.98,-627 972,-627 972,-627 972,-627 972,-555.31 972,-555.31"/>
<polygon fill="#4d4d4d" stroke="#4d4d4d" points="974.45,-555.31 972,-548.31 969.55,-555.31 974.45,-555.31"/>
</g>
<!-- C&#45;0403 -->
<g id="node19" class="node">
<title>C&#45;0403</title>
<ellipse fill="mediumseagreen" stroke="black" cx="432" cy="-324.5" rx="72" ry="21.5"/>
<text text-anchor="middle" x="432" y="-322" font-family="Arial" font-size="10.00">C&#45;0403</text>
</g>
<!-- R&#45;137&#45;&gt;C&#45;0403 -->
<g id="edge10" class="edge">
<title>R&#45;137&#45;&gt;C&#45;0403</title>
<path fill="none" stroke="#4d4d4d" d="M432,-403.58C432,-403.58 432,-353.03 432,-353.03"/>
<polygon fill="#4d4d4d" stroke="#4d4d4d" points="434.45,-353.03 432,-346.03 429.55,-353.03 434.45,-353.03"/>
</g>
<!-- R&#45;092 -->
<g id="node12" class="node">
<title>R&#45;092</title>
<polygon fill="tomato" stroke="black" points="594,-12.59 594,-30.41 551.82,-43 492.18,-43 450,-30.41 450,-12.59 492.18,0 551.82,0 594,-12.59"/>
<text text-anchor="middle" x="522" y="-19" font-family="Arial" font-size="10.00">R&#45;092</text>
</g>
<!-- C&#45;1262 -->
<g id="node15" class="node">
<title>C&#45;1262</title>
<ellipse fill="tomato" stroke="black" cx="702" cy="-21.5" rx="72" ry="21.5"/>
<text text-anchor="middle" x="702" y="-19" font-family="Arial" font-size="10.00">C&#45;1262</text>
</g>
<!-- R&#45;092&#45;&gt;C&#45;1262 -->
<g id="edge21" class="edge">
<title>R&#45;092&#45;&gt;C&#45;1262</title>
<path fill="none" stroke="blue" stroke-dasharray="5,2" d="M594.18,-14C594.18,-14 627.48,-14 627.48,-14"/>
<polygon fill="blue" stroke="blue" points="627.48,-16.45 634.48,-14 627.48,-11.55 627.48,-16.45"/>
</g>
<!-- S&#45;881&#45;&gt;S&#45;1644 -->
<g id="edge5" class="edge">
<title>S&#45;881&#45;&gt;S&#45;1644</title>
<path fill="none" stroke="#4d4d4d" d="M792,-504.58C792,-504.58 792,-454.03 792,-454.03"/>
<polygon fill="#4d4d4d" stroke="#4d4d4d" points="794.45,-454.03 792,-447.03 789.55,-454.03 794.45,-454.03"/>
</g>
<!-- C&#45;1262&#45;&gt;R&#45;092 -->
<g id="edge20" class="edge">
<title>C&#45;1262&#45;&gt;R&#45;092</title>
<path fill="none" stroke="blue" stroke-dasharray="5,2" d="M633.18,-28C633.18,-28 601.07,-28 601.07,-28"/>
<polygon fill="blue" stroke="blue" points="601.07,-25.55 594.07,-28 601.07,-30.45 601.07,-25.55"/>
</g>
<!-- S&#45;1093&#45;&gt;R&#45;092 -->
<g id="edge14" class="edge">
<title>S&#45;1093&#45;&gt;R&#45;092</title>
<path fill="none" stroke="#4d4d4d" d="M567,-114.23C567,-114.23 567,-45.52 567,-45.52"/>
<polygon fill="#4d4d4d" stroke="#4d4d4d" points="569.45,-45.52 567,-38.52 564.55,-45.52 569.45,-45.52"/>
</g>
<!-- S&#45;1093&#45;&gt;C&#45;1262 -->
<g id="edge13" class="edge">
<title>S&#45;1093&#45;&gt;C&#45;1262</title>
<path fill="none" stroke="#4d4d4d" d="M657,-114.23C657,-114.23 657,-45.52 657,-45.52"/>
<polygon fill="#4d4d4d" stroke="#4d4d4d" points="659.45,-45.52 657,-38.52 654.55,-45.52 659.45,-45.52"/>
</g>
<!-- C&#45;0172&#45;&gt;C&#45;0512 -->
<g id="edge2" class="edge">
<title>C&#45;0172&#45;&gt;C&#45;0512</title>
<path fill="none" stroke="#4d4d4d" d="M702,-807.58C702,-807.58 702,-757.03 702,-757.03"/>
<polygon fill="#4d4d4d" stroke="#4d4d4d" points="704.45,-757.03 702,-750.03 699.55,-757.03 704.45,-757.03"/>
</g>
<!-- C&#45;0403&#45;&gt;S&#45;1197 -->
<g id="edge11" class="edge">
<title>C&#45;0403&#45;&gt;S&#45;1197</title>
<path fill="none" stroke="#4d4d4d" d="M378,-310.03C378,-310.03 378,-241.52 378,-241.52"/>
<polygon fill="#4d4d4d" stroke="#4d4d4d" points="380.45,-241.52 378,-234.52 375.55,-241.52 380.45,-241.52"/>
</g>
<!-- C&#45;0403&#45;&gt;S&#45;1227 -->
<g id="edge18" class="edge">
<title>C&#45;0403&#45;&gt;S&#45;1227</title>
<path fill="none" stroke="#4d4d4d" d="M477,-307.37C477,-307.37 477,-238.78 477,-238.78"/>
<polygon fill="#4d4d4d" stroke="#4d4d4d" points="479.45,-238.78 477,-231.78 474.55,-238.78 479.45,-238.78"/>
</g>
</g>
</svg>
