<?xml version="1.0" encoding="UTF-8" standalone="no"?>
<!DOCTYPE svg PUBLIC "-//W3C//DTD SVG 1.1//EN"
 "http://www.w3.org/Graphics/SVG/1.1/DTD/svg11.dtd">
<!-- Generated by graphviz version 2.50.0 (0)
 -->
<!-- Title: Grafo_Circuito_113_24_ Pages: 1 -->
<svg width="837pt" height="1368pt"
 viewBox="0.00 0.00 837.00 1368.00" xmlns="http://www.w3.org/2000/svg" xmlns:xlink="http://www.w3.org/1999/xlink">
<g id="graph0" class="graph" transform="scale(1 1) rotate(0) translate(4 1364)">
<title>Grafo_Circuito_113_24_</title>
<polygon fill="white" stroke="transparent" points="-4,4 -4,-1364 833,-1364 833,4 -4,4"/>
<!-- C&#45;0815 -->
<g id="node1" class="node">
<title>C&#45;0815</title>
<ellipse fill="mediumseagreen" stroke="black" cx="306.5" cy="-206" rx="68.5" ry="18"/>
<text text-anchor="middle" x="306.5" y="-204.1" font-family="Helvetica,sans-Serif" font-size="8.00">C&#45;0815</text>
</g>
<!-- S&#45;765 -->
<g id="node22" class="node">
<title>S&#45;765</title>
<polygon fill="mediumseagreen" stroke="black" points="306.5,-130 238,-112 306.5,-94 375,-112 306.5,-130"/>
<text text-anchor="middle" x="306.5" y="-110.1" font-family="Helvetica,sans-Serif" font-size="8.00">S&#45;765</text>
</g>
<!-- C&#45;0815&#45;&gt;S&#45;765 -->
<g id="edge20" class="edge">
<title>C&#45;0815&#45;&gt;S&#45;765</title>
<path fill="none" stroke="dimgray" stroke-width="0.8" d="M306.5,-187.88C306.5,-187.88 306.5,-137.07 306.5,-137.07"/>
<polygon fill="dimgray" stroke="dimgray" stroke-width="0.8" points="308.95,-137.07 306.5,-130.07 304.05,-137.07 308.95,-137.07"/>
</g>
<!-- C&#45;0394 -->
<g id="node2" class="node">
<title>C&#45;0394</title>
<ellipse fill="mediumseagreen" stroke="black" cx="241.5" cy="-582" rx="68.5" ry="18"/>
<text text-anchor="middle" x="241.5" y="-580.1" font-family="Helvetica,sans-Serif" font-size="8.00">C&#45;0394</text>
</g>
<!-- C&#45;0806 -->
<g id="node4" class="node">
<title>C&#45;0806</title>
<ellipse fill="mediumseagreen" stroke="black" cx="68.5" cy="-488" rx="68.5" ry="18"/>
<text text-anchor="middle" x="68.5" y="-486.1" font-family="Helvetica,sans-Serif" font-size="8.00">C&#45;0806</text>
</g>
<!-- C&#45;0394&#45;&gt;C&#45;0806 -->
<g id="edge13" class="edge">
<title>C&#45;0394&#45;&gt;C&#45;0806</title>
<path fill="none" stroke="dimgray" stroke-width="0.8" d="M172.57,-582C133.09,-582 91.33,-582 91.33,-582 91.33,-582 91.33,-512.24 91.33,-512.24"/>
<polygon fill="dimgray" stroke="dimgray" stroke-width="0.8" points="93.78,-512.24 91.33,-505.24 88.88,-512.24 93.78,-512.24"/>
</g>
<!-- C&#45;0508 -->
<g id="node14" class="node">
<title>C&#45;0508</title>
<ellipse fill="mediumseagreen" stroke="black" cx="241.5" cy="-488" rx="68.5" ry="18"/>
<text text-anchor="middle" x="241.5" y="-486.1" font-family="Helvetica,sans-Serif" font-size="8.00">C&#45;0508</text>
</g>
<!-- C&#45;0394&#45;&gt;C&#45;0508 -->
<g id="edge15" class="edge">
<title>C&#45;0394&#45;&gt;C&#45;0508</title>
<path fill="none" stroke="dimgray" stroke-width="0.8" d="M241.5,-563.88C241.5,-563.88 241.5,-513.07 241.5,-513.07"/>
<polygon fill="dimgray" stroke="dimgray" stroke-width="0.8" points="243.95,-513.07 241.5,-506.07 239.05,-513.07 243.95,-513.07"/>
</g>
<!-- C&#45;0807 -->
<g id="node20" class="node">
<title>C&#45;0807</title>
<ellipse fill="tomato" stroke="black" cx="414.5" cy="-488" rx="68.5" ry="18"/>
<text text-anchor="middle" x="414.5" y="-486.1" font-family="Helvetica,sans-Serif" font-size="8.00">C&#45;0807</text>
</g>
<!-- C&#45;0394&#45;&gt;C&#45;0807 -->
<g id="edge14" class="edge">
<title>C&#45;0394&#45;&gt;C&#45;0807</title>
<path fill="none" stroke="dimgray" stroke-width="0.8" d="M310.27,-582C366.7,-582 437.33,-582 437.33,-582 437.33,-582 437.33,-512.24 437.33,-512.24"/>
<polygon fill="dimgray" stroke="dimgray" stroke-width="0.8" points="439.78,-512.24 437.33,-505.24 434.88,-512.24 439.78,-512.24"/>
</g>
<!-- S&#45;2008 -->
<g id="node3" class="node">
<title>S&#45;2008</title>
<polygon fill="mediumseagreen" stroke="black" points="414.5,-1070 346,-1052 414.5,-1034 483,-1052 414.5,-1070"/>
<text text-anchor="middle" x="414.5" y="-1050.1" font-family="Helvetica,sans-Serif" font-size="8.00">S&#45;2008</text>
</g>
<!-- C&#45;0025 -->
<g id="node5" class="node">
<title>C&#45;0025</title>
<ellipse fill="tomato" stroke="black" cx="195.5" cy="-18" rx="68.5" ry="18"/>
<text text-anchor="middle" x="195.5" y="-16.1" font-family="Helvetica,sans-Serif" font-size="8.00">C&#45;0025</text>
</g>
<!-- ext_circ_303_25_ -->
<g id="node32" class="node">
<title>ext_circ_303_25_</title>
<polygon fill="lightpink" stroke="red" stroke-dasharray="5,2" points="159,-1356 22,-1356 22,-1320 159,-1320 159,-1356"/>
<text text-anchor="middle" x="90.5" y="-1340.6" font-family="Helvetica,sans-Serif" font-size="8.00">Circuito:</text>
<text text-anchor="middle" x="90.5" y="-1331.6" font-family="Helvetica,sans-Serif" font-size="8.00">303&#45;25&#45;</text>
</g>
<!-- C&#45;0025&#45;&gt;ext_circ_303_25_ -->
<g id="edge34" class="edge">
<title>C&#45;0025&#45;&gt;ext_circ_303_25_</title>
<path fill="none" stroke="red" stroke-width="0.8" stroke-dasharray="5,2" d="M220,-34.84C220,-113.52 220,-441 220,-441 220,-441 148,-441 148,-441 148,-441 148,-1312.68 148,-1312.68"/>
<polygon fill="red" stroke="red" stroke-width="0.8" points="145.55,-1312.68 148,-1319.68 150.45,-1312.68 145.55,-1312.68"/>
</g>
<!-- S&#45;1940 -->
<g id="node6" class="node">
<title>S&#45;1940</title>
<polygon fill="mediumseagreen" stroke="black" points="368.5,-36 300,-18 368.5,0 437,-18 368.5,-36"/>
<text text-anchor="middle" x="368.5" y="-16.1" font-family="Helvetica,sans-Serif" font-size="8.00">S&#45;1940</text>
</g>
<!-- S&#45;1567 -->
<g id="node7" class="node">
<title>S&#45;1567</title>
<polygon fill="mediumseagreen" stroke="black" points="587.5,-1070 519,-1052 587.5,-1034 656,-1052 587.5,-1070"/>
<text text-anchor="middle" x="587.5" y="-1050.1" font-family="Helvetica,sans-Serif" font-size="8.00">S&#45;1567</text>
</g>
<!-- S&#45;1569 -->
<g id="node17" class="node">
<title>S&#45;1569</title>
<polygon fill="mediumseagreen" stroke="black" points="587.5,-976 519,-958 587.5,-940 656,-958 587.5,-976"/>
<text text-anchor="middle" x="587.5" y="-956.1" font-family="Helvetica,sans-Serif" font-size="8.00">S&#45;1569</text>
</g>
<!-- S&#45;1567&#45;&gt;S&#45;1569 -->
<g id="edge27" class="edge">
<title>S&#45;1567&#45;&gt;S&#45;1569</title>
<path fill="none" stroke="dimgray" stroke-width="0.8" d="M587.5,-1033.88C587.5,-1033.88 587.5,-983.07 587.5,-983.07"/>
<polygon fill="dimgray" stroke="dimgray" stroke-width="0.8" points="589.95,-983.07 587.5,-976.07 585.05,-983.07 589.95,-983.07"/>
</g>
<!-- 113&#45;24&#45; -->
<g id="node8" class="node">
<title>113&#45;24&#45;</title>
<polygon fill="gold" stroke="black" points="396,-1330.54 396,-1345.46 355.87,-1356 299.13,-1356 259,-1345.46 259,-1330.54 299.13,-1320 355.87,-1320 396,-1330.54"/>
<polygon fill="none" stroke="black" points="400,-1327.46 400,-1348.54 356.39,-1360 298.61,-1360 255,-1348.54 255,-1327.46 298.61,-1316 356.39,-1316 400,-1327.46"/>
<text text-anchor="middle" x="327.5" y="-1336.1" font-family="Helvetica,sans-Serif" font-size="8.00">113&#45;24&#45;</text>
</g>
<!-- S&#45;102 -->
<g id="node24" class="node">
<title>S&#45;102</title>
<polygon fill="mediumseagreen" stroke="black" points="327.5,-1258 259,-1240 327.5,-1222 396,-1240 327.5,-1258"/>
<text text-anchor="middle" x="327.5" y="-1238.1" font-family="Helvetica,sans-Serif" font-size="8.00">S&#45;102</text>
</g>
<!-- 113&#45;24&#45;&#45;&gt;S&#45;102 -->
<g id="edge1" class="edge">
<title>113&#45;24&#45;&#45;&gt;S&#45;102</title>
<path fill="none" stroke="dimgray" stroke-width="0.8" d="M327.5,-1315.76C327.5,-1315.76 327.5,-1265.21 327.5,-1265.21"/>
<polygon fill="dimgray" stroke="dimgray" stroke-width="0.8" points="329.95,-1265.21 327.5,-1258.21 325.05,-1265.21 329.95,-1265.21"/>
</g>
<!-- C&#45;0814 -->
<g id="node9" class="node">
<title>C&#45;0814</title>
<ellipse fill="tomato" stroke="black" cx="133.5" cy="-394" rx="68.5" ry="18"/>
<text text-anchor="middle" x="133.5" y="-392.1" font-family="Helvetica,sans-Serif" font-size="8.00">C&#45;0814</text>
</g>
<!-- C&#45;0814&#45;&gt;C&#45;0815 -->
<g id="edge33" class="edge">
<title>C&#45;0814&#45;&gt;C&#45;0815</title>
<path fill="none" stroke="blue" stroke-width="0.8" stroke-dasharray="5,2" d="M164.5,-377.65C164.5,-331.91 164.5,-206 164.5,-206 164.5,-206 231,-206 231,-206"/>
<polygon fill="blue" stroke="blue" stroke-width="0.8" points="231,-208.45 238,-206 231,-203.55 231,-208.45"/>
</g>
<!-- C&#45;0939 -->
<g id="node10" class="node">
<title>C&#45;0939</title>
<ellipse fill="tomato" stroke="black" cx="68.5" cy="-1146" rx="68.5" ry="18"/>
<text text-anchor="middle" x="68.5" y="-1144.1" font-family="Helvetica,sans-Serif" font-size="8.00">C&#45;0939</text>
</g>
<!-- C&#45;0940 -->
<g id="node18" class="node">
<title>C&#45;0940</title>
<ellipse fill="mediumseagreen" stroke="black" cx="241.5" cy="-958" rx="68.5" ry="18"/>
<text text-anchor="middle" x="241.5" y="-956.1" font-family="Helvetica,sans-Serif" font-size="8.00">C&#45;0940</text>
</g>
<!-- C&#45;0939&#45;&gt;C&#45;0940 -->
<g id="edge30" class="edge">
<title>C&#45;0939&#45;&gt;C&#45;0940</title>
<path fill="none" stroke="blue" stroke-width="0.8" stroke-dasharray="5,2" d="M45.67,-1128.88C45.67,-1083.57 45.67,-964 45.67,-964 45.67,-964 169.83,-964 169.83,-964"/>
<polygon fill="blue" stroke="blue" stroke-width="0.8" points="169.83,-966.45 176.83,-964 169.83,-961.55 169.83,-966.45"/>
</g>
<!-- S&#45;105 -->
<g id="node11" class="node">
<title>S&#45;105</title>
<polygon fill="mediumseagreen" stroke="black" points="68.5,-882 0,-864 68.5,-846 137,-864 68.5,-882"/>
<text text-anchor="middle" x="68.5" y="-862.1" font-family="Helvetica,sans-Serif" font-size="8.00">S&#45;105</text>
</g>
<!-- S&#45;2152 -->
<g id="node12" class="node">
<title>S&#45;2152</title>
<polygon fill="mediumseagreen" stroke="black" points="241.5,-1164 173,-1146 241.5,-1128 310,-1146 241.5,-1164"/>
<text text-anchor="middle" x="241.5" y="-1144.1" font-family="Helvetica,sans-Serif" font-size="8.00">S&#45;2152</text>
</g>
<!-- C&#45;0938 -->
<g id="node13" class="node">
<title>C&#45;0938</title>
<ellipse fill="mediumseagreen" stroke="black" cx="414.5" cy="-1146" rx="68.5" ry="18"/>
<text text-anchor="middle" x="414.5" y="-1144.1" font-family="Helvetica,sans-Serif" font-size="8.00">C&#45;0938</text>
</g>
<!-- R&#45;221 -->
<g id="node19" class="node">
<title>R&#45;221</title>
<polygon fill="mediumseagreen" stroke="black" points="310,-1044.54 310,-1059.46 269.87,-1070 213.13,-1070 173,-1059.46 173,-1044.54 213.13,-1034 269.87,-1034 310,-1044.54"/>
<text text-anchor="middle" x="241.5" y="-1050.1" font-family="Helvetica,sans-Serif" font-size="8.00">R&#45;221</text>
</g>
<!-- C&#45;0938&#45;&gt;R&#45;221 -->
<g id="edge5" class="edge">
<title>C&#45;0938&#45;&gt;R&#45;221</title>
<path fill="none" stroke="dimgray" stroke-width="0.8" d="M345.82,-1146C332.2,-1146 322,-1146 322,-1146 322,-1146 322,-1052 322,-1052 322,-1052 317.12,-1052 317.12,-1052"/>
<polygon fill="dimgray" stroke="dimgray" stroke-width="0.8" points="317.12,-1049.55 310.12,-1052 317.12,-1054.45 317.12,-1049.55"/>
</g>
<!-- C&#45;0508&#45;&gt;C&#45;0814 -->
<g id="edge17" class="edge">
<title>C&#45;0508&#45;&gt;C&#45;0814</title>
<path fill="none" stroke="dimgray" stroke-width="0.8" d="M187.5,-476.85C187.5,-476.85 187.5,-412.14 187.5,-412.14"/>
<polygon fill="dimgray" stroke="dimgray" stroke-width="0.8" points="189.95,-412.14 187.5,-405.14 185.05,-412.14 189.95,-412.14"/>
</g>
<!-- C&#45;0813 -->
<g id="node23" class="node">
<title>C&#45;0813</title>
<ellipse fill="mediumseagreen" stroke="black" cx="306.5" cy="-394" rx="68.5" ry="18"/>
<text text-anchor="middle" x="306.5" y="-392.1" font-family="Helvetica,sans-Serif" font-size="8.00">C&#45;0813</text>
</g>
<!-- C&#45;0508&#45;&gt;C&#45;0813 -->
<g id="edge16" class="edge">
<title>C&#45;0508&#45;&gt;C&#45;0813</title>
<path fill="none" stroke="dimgray" stroke-width="0.8" d="M274,-472.05C274,-472.05 274,-417.02 274,-417.02"/>
<polygon fill="dimgray" stroke="dimgray" stroke-width="0.8" points="276.45,-417.02 274,-410.02 271.55,-417.02 276.45,-417.02"/>
</g>
<!-- S&#45;2009 -->
<g id="node15" class="node">
<title>S&#45;2009</title>
<polygon fill="mediumseagreen" stroke="black" points="68.5,-788 0,-770 68.5,-752 137,-770 68.5,-788"/>
<text text-anchor="middle" x="68.5" y="-768.1" font-family="Helvetica,sans-Serif" font-size="8.00">S&#45;2009</text>
</g>
<!-- S&#45;1553 -->
<g id="node16" class="node">
<title>S&#45;1553</title>
<polygon fill="mediumseagreen" stroke="black" points="760.5,-1070 692,-1052 760.5,-1034 829,-1052 760.5,-1070"/>
<text text-anchor="middle" x="760.5" y="-1050.1" font-family="Helvetica,sans-Serif" font-size="8.00">S&#45;1553</text>
</g>
<!-- C&#45;0940&#45;&gt;S&#45;105 -->
<g id="edge7" class="edge">
<title>C&#45;0940&#45;&gt;S&#45;105</title>
<path fill="none" stroke="dimgray" stroke-width="0.8" d="M176.51,-952C135.92,-952 91.33,-952 91.33,-952 91.33,-952 91.33,-883.24 91.33,-883.24"/>
<polygon fill="dimgray" stroke="dimgray" stroke-width="0.8" points="93.78,-883.24 91.33,-876.24 88.88,-883.24 93.78,-883.24"/>
</g>
<!-- S&#45;1194 -->
<g id="node28" class="node">
<title>S&#45;1194</title>
<polygon fill="mediumseagreen" stroke="black" points="241.5,-882 173,-864 241.5,-846 310,-864 241.5,-882"/>
<text text-anchor="middle" x="241.5" y="-862.1" font-family="Helvetica,sans-Serif" font-size="8.00">S&#45;1194</text>
</g>
<!-- C&#45;0940&#45;&gt;S&#45;1194 -->
<g id="edge8" class="edge">
<title>C&#45;0940&#45;&gt;S&#45;1194</title>
<path fill="none" stroke="dimgray" stroke-width="0.8" d="M241.5,-939.88C241.5,-939.88 241.5,-889.07 241.5,-889.07"/>
<polygon fill="dimgray" stroke="dimgray" stroke-width="0.8" points="243.95,-889.07 241.5,-882.07 239.05,-889.07 243.95,-889.07"/>
</g>
<!-- S&#45;1483 -->
<g id="node29" class="node">
<title>S&#45;1483</title>
<polygon fill="mediumseagreen" stroke="black" points="414.5,-882 346,-864 414.5,-846 483,-864 414.5,-882"/>
<text text-anchor="middle" x="414.5" y="-862.1" font-family="Helvetica,sans-Serif" font-size="8.00">S&#45;1483</text>
</g>
<!-- C&#45;0940&#45;&gt;S&#45;1483 -->
<g id="edge24" class="edge">
<title>C&#45;0940&#45;&gt;S&#45;1483</title>
<path fill="none" stroke="dimgray" stroke-width="0.8" d="M310.37,-958C358.62,-958 414.5,-958 414.5,-958 414.5,-958 414.5,-889.12 414.5,-889.12"/>
<polygon fill="dimgray" stroke="dimgray" stroke-width="0.8" points="416.95,-889.12 414.5,-882.12 412.05,-889.12 416.95,-889.12"/>
</g>
<!-- R&#45;221&#45;&gt;C&#45;0940 -->
<g id="edge6" class="edge">
<title>R&#45;221&#45;&gt;C&#45;0940</title>
<path fill="none" stroke="dimgray" stroke-width="0.8" d="M241.5,-1033.88C241.5,-1033.88 241.5,-983.07 241.5,-983.07"/>
<polygon fill="dimgray" stroke="dimgray" stroke-width="0.8" points="243.95,-983.07 241.5,-976.07 239.05,-983.07 243.95,-983.07"/>
</g>
<!-- ext_circ_114_23_ -->
<g id="node31" class="node">
<title>ext_circ_114_23_</title>
<polygon fill="lightpink" stroke="red" stroke-dasharray="5,2" points="573,-1356 436,-1356 436,-1320 573,-1320 573,-1356"/>
<text text-anchor="middle" x="504.5" y="-1340.6" font-family="Helvetica,sans-Serif" font-size="8.00">Circuito:</text>
<text text-anchor="middle" x="504.5" y="-1331.6" font-family="Helvetica,sans-Serif" font-size="8.00">114&#45;23&#45;</text>
</g>
<!-- C&#45;0807&#45;&gt;ext_circ_114_23_ -->
<g id="edge32" class="edge">
<title>C&#45;0807&#45;&gt;ext_circ_114_23_</title>
<path fill="none" stroke="red" stroke-width="0.8" stroke-dasharray="5,2" d="M483.12,-488C490.28,-488 495,-488 495,-488 495,-488 495,-1312.85 495,-1312.85"/>
<polygon fill="red" stroke="red" stroke-width="0.8" points="492.55,-1312.85 495,-1319.85 497.45,-1312.85 492.55,-1312.85"/>
</g>
<!-- R&#45;132 -->
<g id="node21" class="node">
<title>R&#45;132</title>
<polygon fill="mediumseagreen" stroke="black" points="310,-668.54 310,-683.46 269.87,-694 213.13,-694 173,-683.46 173,-668.54 213.13,-658 269.87,-658 310,-668.54"/>
<text text-anchor="middle" x="241.5" y="-674.1" font-family="Helvetica,sans-Serif" font-size="8.00">R&#45;132</text>
</g>
<!-- R&#45;132&#45;&gt;C&#45;0394 -->
<g id="edge12" class="edge">
<title>R&#45;132&#45;&gt;C&#45;0394</title>
<path fill="none" stroke="dimgray" stroke-width="0.8" d="M241.5,-657.88C241.5,-657.88 241.5,-607.07 241.5,-607.07"/>
<polygon fill="dimgray" stroke="dimgray" stroke-width="0.8" points="243.95,-607.07 241.5,-600.07 239.05,-607.07 243.95,-607.07"/>
</g>
<!-- S&#45;765&#45;&gt;C&#45;0025 -->
<g id="edge21" class="edge">
<title>S&#45;765&#45;&gt;C&#45;0025</title>
<path fill="none" stroke="dimgray" stroke-width="0.8" d="M251,-108.43C251,-108.43 251,-35.73 251,-35.73"/>
<polygon fill="dimgray" stroke="dimgray" stroke-width="0.8" points="253.45,-35.73 251,-28.73 248.55,-35.73 253.45,-35.73"/>
</g>
<!-- S&#45;765&#45;&gt;S&#45;1940 -->
<g id="edge22" class="edge">
<title>S&#45;765&#45;&gt;S&#45;1940</title>
<path fill="none" stroke="dimgray" stroke-width="0.8" d="M337.5,-101.94C337.5,-101.94 337.5,-34.99 337.5,-34.99"/>
<polygon fill="dimgray" stroke="dimgray" stroke-width="0.8" points="339.95,-34.99 337.5,-27.99 335.05,-34.99 339.95,-34.99"/>
</g>
<!-- R&#45;182 -->
<g id="node30" class="node">
<title>R&#45;182</title>
<polygon fill="mediumseagreen" stroke="black" points="375,-292.54 375,-307.46 334.87,-318 278.13,-318 238,-307.46 238,-292.54 278.13,-282 334.87,-282 375,-292.54"/>
<text text-anchor="middle" x="306.5" y="-298.1" font-family="Helvetica,sans-Serif" font-size="8.00">R&#45;182</text>
</g>
<!-- C&#45;0813&#45;&gt;R&#45;182 -->
<g id="edge18" class="edge">
<title>C&#45;0813&#45;&gt;R&#45;182</title>
<path fill="none" stroke="dimgray" stroke-width="0.8" d="M306.5,-375.88C306.5,-375.88 306.5,-325.07 306.5,-325.07"/>
<polygon fill="dimgray" stroke="dimgray" stroke-width="0.8" points="308.95,-325.07 306.5,-318.07 304.05,-325.07 308.95,-325.07"/>
</g>
<!-- S&#45;102&#45;&gt;C&#45;0939 -->
<g id="edge4" class="edge">
<title>S&#45;102&#45;&gt;C&#45;0939</title>
<path fill="none" stroke="dimgray" stroke-width="0.8" d="M258.75,-1240C185.35,-1240 79.5,-1240 79.5,-1240 79.5,-1240 79.5,-1171.12 79.5,-1171.12"/>
<polygon fill="dimgray" stroke="dimgray" stroke-width="0.8" points="81.95,-1171.12 79.5,-1164.12 77.05,-1171.12 81.95,-1171.12"/>
</g>
<!-- S&#45;102&#45;&gt;S&#45;2152 -->
<g id="edge2" class="edge">
<title>S&#45;102&#45;&gt;S&#45;2152</title>
<path fill="none" stroke="dimgray" stroke-width="0.8" d="M284.5,-1233.24C284.5,-1233.24 284.5,-1159.95 284.5,-1159.95"/>
<polygon fill="dimgray" stroke="dimgray" stroke-width="0.8" points="286.95,-1159.95 284.5,-1152.95 282.05,-1159.95 286.95,-1159.95"/>
</g>
<!-- S&#45;102&#45;&gt;C&#45;0938 -->
<g id="edge3" class="edge">
<title>S&#45;102&#45;&gt;C&#45;0938</title>
<path fill="none" stroke="dimgray" stroke-width="0.8" d="M371,-1233.24C371,-1233.24 371,-1167.15 371,-1167.15"/>
<polygon fill="dimgray" stroke="dimgray" stroke-width="0.8" points="373.45,-1167.15 371,-1160.15 368.55,-1167.15 373.45,-1167.15"/>
</g>
<!-- S&#45;1242 -->
<g id="node25" class="node">
<title>S&#45;1242</title>
<polygon fill="mediumseagreen" stroke="black" points="587.5,-1164 519,-1146 587.5,-1128 656,-1146 587.5,-1164"/>
<text text-anchor="middle" x="587.5" y="-1144.1" font-family="Helvetica,sans-Serif" font-size="8.00">S&#45;1242</text>
</g>
<!-- S&#45;102&#45;&gt;S&#45;1242 -->
<g id="edge25" class="edge">
<title>S&#45;102&#45;&gt;S&#45;1242</title>
<path fill="none" stroke="dimgray" stroke-width="0.8" d="M396.04,-1240C460.11,-1240 546,-1240 546,-1240 546,-1240 546,-1160.38 546,-1160.38"/>
<polygon fill="dimgray" stroke="dimgray" stroke-width="0.8" points="548.45,-1160.38 546,-1153.38 543.55,-1160.38 548.45,-1160.38"/>
</g>
<!-- S&#45;1242&#45;&gt;S&#45;2008 -->
<g id="edge29" class="edge">
<title>S&#45;1242&#45;&gt;S&#45;2008</title>
<path fill="none" stroke="dimgray" stroke-width="0.8" d="M518.88,-1146C511.72,-1146 507,-1146 507,-1146 507,-1146 507,-1052 507,-1052 507,-1052 490.18,-1052 490.18,-1052"/>
<polygon fill="dimgray" stroke="dimgray" stroke-width="0.8" points="490.18,-1049.55 483.18,-1052 490.18,-1054.45 490.18,-1049.55"/>
</g>
<!-- S&#45;1242&#45;&gt;S&#45;1567 -->
<g id="edge26" class="edge">
<title>S&#45;1242&#45;&gt;S&#45;1567</title>
<path fill="none" stroke="dimgray" stroke-width="0.8" d="M587.5,-1127.88C587.5,-1127.88 587.5,-1077.07 587.5,-1077.07"/>
<polygon fill="dimgray" stroke="dimgray" stroke-width="0.8" points="589.95,-1077.07 587.5,-1070.07 585.05,-1077.07 589.95,-1077.07"/>
</g>
<!-- S&#45;1242&#45;&gt;S&#45;1553 -->
<g id="edge28" class="edge">
<title>S&#45;1242&#45;&gt;S&#45;1553</title>
<path fill="none" stroke="dimgray" stroke-width="0.8" d="M656.37,-1146C704.62,-1146 760.5,-1146 760.5,-1146 760.5,-1146 760.5,-1077.12 760.5,-1077.12"/>
<polygon fill="dimgray" stroke="dimgray" stroke-width="0.8" points="762.95,-1077.12 760.5,-1070.12 758.05,-1077.12 762.95,-1077.12"/>
</g>
<!-- C&#45;0393 -->
<g id="node26" class="node">
<title>C&#45;0393</title>
<ellipse fill="mediumseagreen" stroke="black" cx="241.5" cy="-770" rx="68.5" ry="18"/>
<text text-anchor="middle" x="241.5" y="-768.1" font-family="Helvetica,sans-Serif" font-size="8.00">C&#45;0393</text>
</g>
<!-- C&#45;0393&#45;&gt;R&#45;132 -->
<g id="edge11" class="edge">
<title>C&#45;0393&#45;&gt;R&#45;132</title>
<path fill="none" stroke="dimgray" stroke-width="0.8" d="M241.5,-751.88C241.5,-751.88 241.5,-701.07 241.5,-701.07"/>
<polygon fill="dimgray" stroke="dimgray" stroke-width="0.8" points="243.95,-701.07 241.5,-694.07 239.05,-701.07 243.95,-701.07"/>
</g>
<!-- C&#45;0392 -->
<g id="node27" class="node">
<title>C&#45;0392</title>
<ellipse fill="tomato" stroke="black" cx="414.5" cy="-770" rx="68.5" ry="18"/>
<text text-anchor="middle" x="414.5" y="-768.1" font-family="Helvetica,sans-Serif" font-size="8.00">C&#45;0392</text>
</g>
<!-- C&#45;0392&#45;&gt;C&#45;0806 -->
<g id="edge31" class="edge">
<title>C&#45;0392&#45;&gt;C&#45;0806</title>
<path fill="none" stroke="blue" stroke-width="0.8" stroke-dasharray="5,2" d="M391.67,-752.77C391.67,-739.35 391.67,-723 391.67,-723 391.67,-723 45.67,-723 45.67,-723 45.67,-723 45.67,-512.28 45.67,-512.28"/>
<polygon fill="blue" stroke="blue" stroke-width="0.8" points="48.12,-512.28 45.67,-505.28 43.22,-512.28 48.12,-512.28"/>
</g>
<!-- S&#45;1194&#45;&gt;S&#45;2009 -->
<g id="edge23" class="edge">
<title>S&#45;1194&#45;&gt;S&#45;2009</title>
<path fill="none" stroke="dimgray" stroke-width="0.8" d="M172.97,-864C168.65,-864 166,-864 166,-864 166,-864 166,-770 166,-770 166,-770 144.01,-770 144.01,-770"/>
<polygon fill="dimgray" stroke="dimgray" stroke-width="0.8" points="144.01,-767.55 137.01,-770 144.01,-772.45 144.01,-767.55"/>
</g>
<!-- S&#45;1194&#45;&gt;C&#45;0393 -->
<g id="edge10" class="edge">
<title>S&#45;1194&#45;&gt;C&#45;0393</title>
<path fill="none" stroke="dimgray" stroke-width="0.8" d="M241.5,-845.88C241.5,-845.88 241.5,-795.07 241.5,-795.07"/>
<polygon fill="dimgray" stroke="dimgray" stroke-width="0.8" points="243.95,-795.07 241.5,-788.07 239.05,-795.07 243.95,-795.07"/>
</g>
<!-- S&#45;1194&#45;&gt;C&#45;0392 -->
<g id="edge9" class="edge">
<title>S&#45;1194&#45;&gt;C&#45;0392</title>
<path fill="none" stroke="dimgray" stroke-width="0.8" d="M310.18,-864C323.8,-864 334,-864 334,-864 334,-864 334,-770 334,-770 334,-770 338.88,-770 338.88,-770"/>
<polygon fill="dimgray" stroke="dimgray" stroke-width="0.8" points="338.88,-772.45 345.88,-770 338.88,-767.55 338.88,-772.45"/>
</g>
<!-- R&#45;182&#45;&gt;C&#45;0815 -->
<g id="edge19" class="edge">
<title>R&#45;182&#45;&gt;C&#45;0815</title>
<path fill="none" stroke="dimgray" stroke-width="0.8" d="M306.5,-281.88C306.5,-281.88 306.5,-231.07 306.5,-231.07"/>
<polygon fill="dimgray" stroke="dimgray" stroke-width="0.8" points="308.95,-231.07 306.5,-224.07 304.05,-231.07 308.95,-231.07"/>
</g>
</g>
</svg>
