<?xml version="1.0" encoding="UTF-8" standalone="no"?>
<!DOCTYPE svg PUBLIC "-//W3C//DTD SVG 1.1//EN"
 "http://www.w3.org/Graphics/SVG/1.1/DTD/svg11.dtd">
<!-- Generated by graphviz version 2.50.0 (0)
 -->
<!-- Title: Grafo_Circuito_109_24_ Pages: 1 -->
<svg width="1197pt" height="867pt"
 viewBox="0.00 0.00 1197.29 867.00" xmlns="http://www.w3.org/2000/svg" xmlns:xlink="http://www.w3.org/1999/xlink">
<g id="graph0" class="graph" transform="scale(1 1) rotate(0) translate(4 863)">
<title>Grafo_Circuito_109_24_</title>
<polygon fill="white" stroke="transparent" points="-4,4 -4,-863 1193.29,-863 1193.29,4 -4,4"/>
<!-- SW&#45;004_C -->
<g id="node1" class="node">
<title>SW&#45;004_C</title>
<polygon fill="tomato" stroke="black" points="149.44,-144 30.46,-144 -0.15,-101 118.83,-101 149.44,-144"/>
<text text-anchor="middle" x="74.65" y="-120" font-family="Arial" font-size="10.00">SW&#45;004_C</text>
</g>
<!-- ext_circ_109_27_ -->
<g id="node19" class="node">
<title>ext_circ_109_27_</title>
<polygon fill="lightpink" stroke="darkorange" stroke-dasharray="5,2" points="514.65,-43 370.65,-43 370.65,0 514.65,0 514.65,-43"/>
<text text-anchor="middle" x="442.65" y="-24.5" font-family="Arial" font-size="10.00">Circuito:</text>
<text text-anchor="middle" x="442.65" y="-13.5" font-family="Arial" font-size="10.00">109&#45;27&#45;</text>
</g>
<!-- SW&#45;004_C&#45;&gt;ext_circ_109_27_ -->
<g id="edge18" class="edge">
<title>SW&#45;004_C&#45;&gt;ext_circ_109_27_</title>
<path fill="none" stroke="darkorange" stroke-dasharray="5,2" d="M74.65,-100.8C74.65,-69.14 74.65,-14 74.65,-14 74.65,-14 363.38,-14 363.38,-14"/>
<polygon fill="darkorange" stroke="darkorange" points="363.38,-16.45 370.38,-14 363.38,-11.55 363.38,-16.45"/>
</g>
<!-- SW&#45;004_D -->
<g id="node2" class="node">
<title>SW&#45;004_D</title>
<polygon fill="tomato" stroke="black" points="334.44,-144 215.46,-144 184.85,-101 303.83,-101 334.44,-144"/>
<text text-anchor="middle" x="259.65" y="-120" font-family="Arial" font-size="10.00">SW&#45;004_D</text>
</g>
<!-- SW&#45;004_D&#45;&gt;ext_circ_109_27_ -->
<g id="edge19" class="edge">
<title>SW&#45;004_D&#45;&gt;ext_circ_109_27_</title>
<path fill="none" stroke="darkorange" stroke-dasharray="5,2" d="M259.65,-100.58C259.65,-72.67 259.65,-28 259.65,-28 259.65,-28 363.58,-28 363.58,-28"/>
<polygon fill="darkorange" stroke="darkorange" points="363.58,-30.45 370.58,-28 363.58,-25.55 363.58,-30.45"/>
</g>
<!-- SW&#45;003_B -->
<g id="node3" class="node">
<title>SW&#45;003_B</title>
<polygon fill="mediumseagreen" stroke="black" points="515.44,-346 396.46,-346 365.85,-303 484.83,-303 515.44,-346"/>
<text text-anchor="middle" x="440.65" y="-322" font-family="Arial" font-size="10.00">SW&#45;003_B</text>
</g>
<!-- SW&#45;003_A -->
<g id="node5" class="node">
<title>SW&#45;003_A</title>
<polygon fill="tomato" stroke="black" points="515.44,-245 396.46,-245 365.85,-202 484.83,-202 515.44,-245"/>
<text text-anchor="middle" x="440.65" y="-221" font-family="Arial" font-size="10.00">SW&#45;003_A</text>
</g>
<!-- SW&#45;003_B&#45;&gt;SW&#45;003_A -->
<g id="edge10" class="edge">
<title>SW&#45;003_B&#45;&gt;SW&#45;003_A</title>
<path fill="none" stroke="#4d4d4d" d="M440.65,-302.58C440.65,-302.58 440.65,-252.03 440.65,-252.03"/>
<polygon fill="#4d4d4d" stroke="#4d4d4d" points="443.1,-252.03 440.65,-245.03 438.2,-252.03 443.1,-252.03"/>
</g>
<!-- SW&#45;003_C -->
<g id="node6" class="node">
<title>SW&#45;003_C</title>
<polygon fill="mediumseagreen" stroke="black" points="700.44,-245 581.46,-245 550.85,-202 669.83,-202 700.44,-245"/>
<text text-anchor="middle" x="625.65" y="-221" font-family="Arial" font-size="10.00">SW&#45;003_C</text>
</g>
<!-- SW&#45;003_B&#45;&gt;SW&#45;003_C -->
<g id="edge9" class="edge">
<title>SW&#45;003_B&#45;&gt;SW&#45;003_C</title>
<path fill="none" stroke="#4d4d4d" d="M499.79,-324C549.5,-324 612.5,-324 612.5,-324 612.5,-324 612.5,-252.31 612.5,-252.31"/>
<polygon fill="#4d4d4d" stroke="#4d4d4d" points="614.95,-252.31 612.5,-245.31 610.05,-252.31 614.95,-252.31"/>
</g>
<!-- 109&#45;24&#45; -->
<g id="node4" class="node">
<title>109&#45;24&#45;</title>
<polygon fill="gold" stroke="black" points="507.65,-824.59 507.65,-842.41 465.47,-855 405.82,-855 363.65,-842.41 363.65,-824.59 405.82,-812 465.47,-812 507.65,-824.59"/>
<polygon fill="none" stroke="black" points="511.65,-821.61 511.65,-845.39 466.05,-859 405.24,-859 359.65,-845.39 359.65,-821.61 405.24,-808 466.05,-808 511.65,-821.61"/>
<text text-anchor="middle" x="435.65" y="-831" font-family="Arial" font-size="10.00">109&#45;24&#45;</text>
</g>
<!-- S&#45;309 -->
<g id="node13" class="node">
<title>S&#45;309</title>
<polygon fill="mediumseagreen" stroke="black" points="435.65,-750 363.65,-728.5 435.65,-707 507.65,-728.5 435.65,-750"/>
<text text-anchor="middle" x="435.65" y="-726" font-family="Arial" font-size="10.00">S&#45;309</text>
</g>
<!-- 109&#45;24&#45;&#45;&gt;S&#45;309 -->
<g id="edge1" class="edge">
<title>109&#45;24&#45;&#45;&gt;S&#45;309</title>
<path fill="none" stroke="#4d4d4d" d="M435.65,-807.81C435.65,-807.81 435.65,-757.03 435.65,-757.03"/>
<polygon fill="#4d4d4d" stroke="#4d4d4d" points="438.1,-757.03 435.65,-750.03 433.2,-757.03 438.1,-757.03"/>
</g>
<!-- ext_circ_109_28_ -->
<g id="node20" class="node">
<title>ext_circ_109_28_</title>
<polygon fill="lightpink" stroke="darkorange" stroke-dasharray="5,2" points="514.65,-144 370.65,-144 370.65,-101 514.65,-101 514.65,-144"/>
<text text-anchor="middle" x="442.65" y="-125.5" font-family="Arial" font-size="10.00">Circuito:</text>
<text text-anchor="middle" x="442.65" y="-114.5" font-family="Arial" font-size="10.00">109&#45;28&#45;</text>
</g>
<!-- SW&#45;003_A&#45;&gt;ext_circ_109_28_ -->
<g id="edge20" class="edge">
<title>SW&#45;003_A&#45;&gt;ext_circ_109_28_</title>
<path fill="none" stroke="darkorange" stroke-dasharray="5,2" d="M442.65,-201.58C442.65,-201.58 442.65,-151.03 442.65,-151.03"/>
<polygon fill="darkorange" stroke="darkorange" points="445.1,-151.03 442.65,-144.03 440.2,-151.03 445.1,-151.03"/>
</g>
<!-- SW&#45;006_B -->
<g id="node10" class="node">
<title>SW&#45;006_B</title>
<polygon fill="tomato" stroke="black" points="700.44,-144 581.46,-144 550.85,-101 669.83,-101 700.44,-144"/>
<text text-anchor="middle" x="625.65" y="-120" font-family="Arial" font-size="10.00">SW&#45;006_B</text>
</g>
<!-- SW&#45;003_C&#45;&gt;SW&#45;006_B -->
<g id="edge11" class="edge">
<title>SW&#45;003_C&#45;&gt;SW&#45;006_B</title>
<path fill="none" stroke="#4d4d4d" d="M625.65,-201.58C625.65,-201.58 625.65,-151.03 625.65,-151.03"/>
<polygon fill="#4d4d4d" stroke="#4d4d4d" points="628.1,-151.03 625.65,-144.03 623.2,-151.03 628.1,-151.03"/>
</g>
<!-- S&#45;2265 -->
<g id="node7" class="node">
<title>S&#45;2265</title>
<polygon fill="tomato" stroke="black" points="931.65,-346 859.65,-324.5 931.65,-303 1003.65,-324.5 931.65,-346"/>
<text text-anchor="middle" x="931.65" y="-322" font-family="Arial" font-size="10.00">S&#45;2265</text>
</g>
<!-- ext_circ_110_23_ -->
<g id="node22" class="node">
<title>ext_circ_110_23_</title>
<polygon fill="lightpink" stroke="darkorange" stroke-dasharray="5,2" points="1003.65,-245 859.65,-245 859.65,-202 1003.65,-202 1003.65,-245"/>
<text text-anchor="middle" x="931.65" y="-226.5" font-family="Arial" font-size="10.00">Circuito:</text>
<text text-anchor="middle" x="931.65" y="-215.5" font-family="Arial" font-size="10.00">110&#45;23&#45;</text>
</g>
<!-- S&#45;2265&#45;&gt;ext_circ_110_23_ -->
<g id="edge24" class="edge">
<title>S&#45;2265&#45;&gt;ext_circ_110_23_</title>
<path fill="none" stroke="darkorange" stroke-dasharray="5,2" d="M931.65,-302.58C931.65,-302.58 931.65,-252.03 931.65,-252.03"/>
<polygon fill="darkorange" stroke="darkorange" points="934.1,-252.03 931.65,-245.03 929.2,-252.03 934.1,-252.03"/>
</g>
<!-- SW&#45;007_B -->
<g id="node8" class="node">
<title>SW&#45;007_B</title>
<polygon fill="mediumseagreen" stroke="black" points="693.44,-447 574.46,-447 543.85,-404 662.83,-404 693.44,-447"/>
<text text-anchor="middle" x="618.65" y="-423" font-family="Arial" font-size="10.00">SW&#45;007_B</text>
</g>
<!-- SW&#45;007_C -->
<g id="node9" class="node">
<title>SW&#45;007_C</title>
<polygon fill="mediumseagreen" stroke="black" points="758.44,-548 639.46,-548 608.85,-505 727.83,-505 758.44,-548"/>
<text text-anchor="middle" x="683.65" y="-524" font-family="Arial" font-size="10.00">SW&#45;007_C</text>
</g>
<!-- SW&#45;007_C&#45;&gt;SW&#45;007_B -->
<g id="edge13" class="edge">
<title>SW&#45;007_C&#45;&gt;SW&#45;007_B</title>
<path fill="none" stroke="#4d4d4d" d="M651.15,-504.58C651.15,-504.58 651.15,-454.03 651.15,-454.03"/>
<polygon fill="#4d4d4d" stroke="#4d4d4d" points="653.6,-454.03 651.15,-447.03 648.7,-454.03 653.6,-454.03"/>
</g>
<!-- SW&#45;007_D -->
<g id="node16" class="node">
<title>SW&#45;007_D</title>
<polygon fill="tomato" stroke="black" points="823.44,-346 704.46,-346 673.85,-303 792.83,-303 823.44,-346"/>
<text text-anchor="middle" x="748.65" y="-322" font-family="Arial" font-size="10.00">SW&#45;007_D</text>
</g>
<!-- SW&#45;007_C&#45;&gt;SW&#45;007_D -->
<g id="edge15" class="edge">
<title>SW&#45;007_C&#45;&gt;SW&#45;007_D</title>
<path fill="none" stroke="#4d4d4d" d="M714.96,-504.88C714.96,-504.88 714.96,-353.27 714.96,-353.27"/>
<polygon fill="#4d4d4d" stroke="#4d4d4d" points="717.41,-353.27 714.96,-346.27 712.51,-353.27 717.41,-353.27"/>
</g>
<!-- SW&#45;007_A -->
<g id="node18" class="node">
<title>SW&#45;007_A</title>
<polygon fill="mediumseagreen" stroke="black" points="1006.44,-447 887.46,-447 856.85,-404 975.83,-404 1006.44,-447"/>
<text text-anchor="middle" x="931.65" y="-423" font-family="Arial" font-size="10.00">SW&#45;007_A</text>
</g>
<!-- SW&#45;007_C&#45;&gt;SW&#45;007_A -->
<g id="edge14" class="edge">
<title>SW&#45;007_C&#45;&gt;SW&#45;007_A</title>
<path fill="none" stroke="#4d4d4d" d="M736.63,-517.13C736.63,-492.01 736.63,-425 736.63,-425 736.63,-425 864.54,-425 864.54,-425"/>
<polygon fill="#4d4d4d" stroke="#4d4d4d" points="864.54,-427.45 871.54,-425 864.54,-422.55 864.54,-427.45"/>
</g>
<!-- SW&#45;006_B&#45;&gt;ext_circ_109_27_ -->
<g id="edge21" class="edge">
<title>SW&#45;006_B&#45;&gt;ext_circ_109_27_</title>
<path fill="none" stroke="darkorange" stroke-dasharray="5,2" d="M625.65,-100.58C625.65,-72.67 625.65,-28 625.65,-28 625.65,-28 521.71,-28 521.71,-28"/>
<polygon fill="darkorange" stroke="darkorange" points="521.71,-25.55 514.71,-28 521.71,-30.45 521.71,-25.55"/>
</g>
<!-- SW&#45;012_B -->
<g id="node11" class="node">
<title>SW&#45;012_B</title>
<polygon fill="tomato" stroke="black" points="1189.44,-346 1070.46,-346 1039.85,-303 1158.83,-303 1189.44,-346"/>
<text text-anchor="middle" x="1114.65" y="-322" font-family="Arial" font-size="10.00">SW&#45;012_B</text>
</g>
<!-- ext_circ__NA_ -->
<g id="node21" class="node">
<title>ext_circ__NA_</title>
<polygon fill="lightpink" stroke="darkorange" stroke-dasharray="5,2" points="1186.65,-245 1042.65,-245 1042.65,-202 1186.65,-202 1186.65,-245"/>
<text text-anchor="middle" x="1114.65" y="-226.5" font-family="Arial" font-size="10.00">Circuito:</text>
<text text-anchor="middle" x="1114.65" y="-215.5" font-family="Arial" font-size="10.00">&lt;NA&gt;</text>
</g>
<!-- SW&#45;012_B&#45;&gt;ext_circ__NA_ -->
<g id="edge23" class="edge">
<title>SW&#45;012_B&#45;&gt;ext_circ__NA_</title>
<path fill="none" stroke="darkorange" stroke-dasharray="5,2" d="M1114.65,-302.58C1114.65,-302.58 1114.65,-252.03 1114.65,-252.03"/>
<polygon fill="darkorange" stroke="darkorange" points="1117.1,-252.03 1114.65,-245.03 1112.2,-252.03 1117.1,-252.03"/>
</g>
<!-- S&#45;309A -->
<g id="node12" class="node">
<title>S&#45;309A</title>
<polygon fill="mediumseagreen" stroke="black" points="345.65,-649 273.65,-627.5 345.65,-606 417.65,-627.5 345.65,-649"/>
<text text-anchor="middle" x="345.65" y="-625" font-family="Arial" font-size="10.00">S&#45;309A</text>
</g>
<!-- SW&#45;004_A -->
<g id="node15" class="node">
<title>SW&#45;004_A</title>
<polygon fill="mediumseagreen" stroke="black" points="418.44,-548 299.46,-548 268.85,-505 387.83,-505 418.44,-548"/>
<text text-anchor="middle" x="343.65" y="-524" font-family="Arial" font-size="10.00">SW&#45;004_A</text>
</g>
<!-- S&#45;309A&#45;&gt;SW&#45;004_A -->
<g id="edge4" class="edge">
<title>S&#45;309A&#45;&gt;SW&#45;004_A</title>
<path fill="none" stroke="#4d4d4d" d="M345.65,-605.58C345.65,-605.58 345.65,-555.03 345.65,-555.03"/>
<polygon fill="#4d4d4d" stroke="#4d4d4d" points="348.1,-555.03 345.65,-548.03 343.2,-555.03 348.1,-555.03"/>
</g>
<!-- S&#45;309&#45;&gt;S&#45;309A -->
<g id="edge3" class="edge">
<title>S&#45;309&#45;&gt;S&#45;309A</title>
<path fill="none" stroke="#4d4d4d" d="M390.65,-720.23C390.65,-720.23 390.65,-642.6 390.65,-642.6"/>
<polygon fill="#4d4d4d" stroke="#4d4d4d" points="393.1,-642.6 390.65,-635.6 388.2,-642.6 393.1,-642.6"/>
</g>
<!-- S&#45;309B -->
<g id="node14" class="node">
<title>S&#45;309B</title>
<polygon fill="mediumseagreen" stroke="black" points="571.65,-649 499.65,-627.5 571.65,-606 643.65,-627.5 571.65,-649"/>
<text text-anchor="middle" x="571.65" y="-625" font-family="Arial" font-size="10.00">S&#45;309B</text>
</g>
<!-- S&#45;309&#45;&gt;S&#45;309B -->
<g id="edge2" class="edge">
<title>S&#45;309&#45;&gt;S&#45;309B</title>
<path fill="none" stroke="#4d4d4d" d="M503.65,-727.07C503.65,-727.07 503.65,-635.74 503.65,-635.74"/>
<polygon fill="#4d4d4d" stroke="#4d4d4d" points="506.1,-635.74 503.65,-628.74 501.2,-635.74 506.1,-635.74"/>
</g>
<!-- S&#45;309B&#45;&gt;SW&#45;007_C -->
<g id="edge12" class="edge">
<title>S&#45;309B&#45;&gt;SW&#45;007_C</title>
<path fill="none" stroke="#4d4d4d" d="M626.32,-622.07C626.32,-622.07 626.32,-536.75 626.32,-536.75"/>
<polygon fill="#4d4d4d" stroke="#4d4d4d" points="628.77,-536.75 626.32,-529.75 623.87,-536.75 628.77,-536.75"/>
</g>
<!-- SW&#45;004_A&#45;&gt;SW&#45;004_C -->
<g id="edge6" class="edge">
<title>SW&#45;004_A&#45;&gt;SW&#45;004_C</title>
<path fill="none" stroke="#4d4d4d" d="M283.61,-526C204.33,-526 74.65,-526 74.65,-526 74.65,-526 74.65,-151.19 74.65,-151.19"/>
<polygon fill="#4d4d4d" stroke="#4d4d4d" points="77.1,-151.19 74.65,-144.19 72.2,-151.19 77.1,-151.19"/>
</g>
<!-- SW&#45;004_A&#45;&gt;SW&#45;004_D -->
<g id="edge7" class="edge">
<title>SW&#45;004_A&#45;&gt;SW&#45;004_D</title>
<path fill="none" stroke="#4d4d4d" d="M301.65,-504.78C301.65,-504.78 301.65,-151.33 301.65,-151.33"/>
<polygon fill="#4d4d4d" stroke="#4d4d4d" points="304.1,-151.33 301.65,-144.33 299.2,-151.33 304.1,-151.33"/>
</g>
<!-- SW&#45;004_B -->
<g id="node17" class="node">
<title>SW&#45;004_B</title>
<polygon fill="mediumseagreen" stroke="black" points="495.44,-447 376.46,-447 345.85,-404 464.83,-404 495.44,-447"/>
<text text-anchor="middle" x="420.65" y="-423" font-family="Arial" font-size="10.00">SW&#45;004_B</text>
</g>
<!-- SW&#45;004_A&#45;&gt;SW&#45;004_B -->
<g id="edge5" class="edge">
<title>SW&#45;004_A&#45;&gt;SW&#45;004_B</title>
<path fill="none" stroke="#4d4d4d" d="M382.15,-504.58C382.15,-504.58 382.15,-454.03 382.15,-454.03"/>
<polygon fill="#4d4d4d" stroke="#4d4d4d" points="384.6,-454.03 382.15,-447.03 379.7,-454.03 384.6,-454.03"/>
</g>
<!-- SW&#45;007_D&#45;&gt;ext_circ_109_27_ -->
<g id="edge22" class="edge">
<title>SW&#45;007_D&#45;&gt;ext_circ_109_27_</title>
<path fill="none" stroke="darkorange" stroke-dasharray="5,2" d="M761.79,-302.67C761.79,-231.99 761.79,-14 761.79,-14 761.79,-14 521.67,-14 521.67,-14"/>
<polygon fill="darkorange" stroke="darkorange" points="521.67,-11.55 514.67,-14 521.67,-16.45 521.67,-11.55"/>
</g>
<!-- SW&#45;004_B&#45;&gt;SW&#45;003_B -->
<g id="edge8" class="edge">
<title>SW&#45;004_B&#45;&gt;SW&#45;003_B</title>
<path fill="none" stroke="#4d4d4d" d="M430.65,-403.58C430.65,-403.58 430.65,-353.03 430.65,-353.03"/>
<polygon fill="#4d4d4d" stroke="#4d4d4d" points="433.1,-353.03 430.65,-346.03 428.2,-353.03 433.1,-353.03"/>
</g>
<!-- SW&#45;007_A&#45;&gt;S&#45;2265 -->
<g id="edge17" class="edge">
<title>SW&#45;007_A&#45;&gt;S&#45;2265</title>
<path fill="none" stroke="#4d4d4d" d="M931.65,-403.58C931.65,-403.58 931.65,-353.03 931.65,-353.03"/>
<polygon fill="#4d4d4d" stroke="#4d4d4d" points="934.1,-353.03 931.65,-346.03 929.2,-353.03 934.1,-353.03"/>
</g>
<!-- SW&#45;007_A&#45;&gt;SW&#45;012_B -->
<g id="edge16" class="edge">
<title>SW&#45;007_A&#45;&gt;SW&#45;012_B</title>
<path fill="none" stroke="#4d4d4d" d="M990.81,-425C1044.27,-425 1114.65,-425 1114.65,-425 1114.65,-425 1114.65,-353.31 1114.65,-353.31"/>
<polygon fill="#4d4d4d" stroke="#4d4d4d" points="1117.1,-353.31 1114.65,-346.31 1112.2,-353.31 1117.1,-353.31"/>
</g>
</g>
</svg>
