<?xml version="1.0" encoding="UTF-8" standalone="no"?>
<!DOCTYPE svg PUBLIC "-//W3C//DTD SVG 1.1//EN"
 "http://www.w3.org/Graphics/SVG/1.1/DTD/svg11.dtd">
<!-- Generated by graphviz version 2.50.0 (0)
 -->
<!-- Title: Grafo_Circuito_114_22_ Pages: 1 -->
<svg width="2386pt" height="1170pt"
 viewBox="0.00 0.00 2386.00 1170.00" xmlns="http://www.w3.org/2000/svg" xmlns:xlink="http://www.w3.org/1999/xlink">
<g id="graph0" class="graph" transform="scale(1 1) rotate(0) translate(4 1166)">
<title>Grafo_Circuito_114_22_</title>
<polygon fill="white" stroke="transparent" points="-4,4 -4,-1166 2382,-1166 2382,4 -4,4"/>
<!-- C&#45;0821 -->
<g id="node1" class="node">
<title>C&#45;0821</title>
<ellipse fill="mediumseagreen" stroke="black" cx="1872" cy="-627.5" rx="72" ry="21.5"/>
<text text-anchor="middle" x="1872" y="-625" font-family="Arial" font-size="10.00">C&#45;0821</text>
</g>
<!-- R&#45;184 -->
<g id="node16" class="node">
<title>R&#45;184</title>
<polygon fill="mediumseagreen" stroke="black" points="1944,-517.59 1944,-535.41 1901.82,-548 1842.18,-548 1800,-535.41 1800,-517.59 1842.18,-505 1901.82,-505 1944,-517.59"/>
<text text-anchor="middle" x="1872" y="-524" font-family="Arial" font-size="10.00">R&#45;184</text>
</g>
<!-- C&#45;0821&#45;&gt;R&#45;184 -->
<g id="edge12" class="edge">
<title>C&#45;0821&#45;&gt;R&#45;184</title>
<path fill="none" stroke="#4d4d4d" d="M1872,-605.58C1872,-605.58 1872,-555.03 1872,-555.03"/>
<polygon fill="#4d4d4d" stroke="#4d4d4d" points="1874.45,-555.03 1872,-548.03 1869.55,-555.03 1874.45,-555.03"/>
</g>
<!-- C&#45;0968 -->
<g id="node2" class="node">
<title>C&#45;0968</title>
<ellipse fill="mediumseagreen" stroke="black" cx="882" cy="-526.5" rx="72" ry="21.5"/>
<text text-anchor="middle" x="882" y="-524" font-family="Arial" font-size="10.00">C&#45;0968</text>
</g>
<!-- R&#45;229 -->
<g id="node34" class="node">
<title>R&#45;229</title>
<polygon fill="tomato" stroke="black" points="961,-416.59 961,-434.41 918.82,-447 859.18,-447 817,-434.41 817,-416.59 859.18,-404 918.82,-404 961,-416.59"/>
<text text-anchor="middle" x="889" y="-423" font-family="Arial" font-size="10.00">R&#45;229</text>
</g>
<!-- C&#45;0968&#45;&gt;R&#45;229 -->
<g id="edge33" class="edge">
<title>C&#45;0968&#45;&gt;R&#45;229</title>
<path fill="none" stroke="#4d4d4d" d="M885.5,-504.58C885.5,-504.58 885.5,-454.03 885.5,-454.03"/>
<polygon fill="#4d4d4d" stroke="#4d4d4d" points="887.95,-454.03 885.5,-447.03 883.05,-454.03 887.95,-454.03"/>
</g>
<!-- S&#45;2062 -->
<g id="node3" class="node">
<title>S&#45;2062</title>
<polygon fill="mediumseagreen" stroke="black" points="1512,-245 1440,-223.5 1512,-202 1584,-223.5 1512,-245"/>
<text text-anchor="middle" x="1512" y="-221" font-family="Arial" font-size="10.00">S&#45;2062</text>
</g>
<!-- C&#45;0583 -->
<g id="node4" class="node">
<title>C&#45;0583</title>
<ellipse fill="tomato" stroke="black" cx="252" cy="-930.5" rx="72" ry="21.5"/>
<text text-anchor="middle" x="252" y="-928" font-family="Arial" font-size="10.00">C&#45;0583</text>
</g>
<!-- C&#45;0584 -->
<g id="node7" class="node">
<title>C&#45;0584</title>
<ellipse fill="mediumseagreen" stroke="black" cx="1602" cy="-728.5" rx="72" ry="21.5"/>
<text text-anchor="middle" x="1602" y="-726" font-family="Arial" font-size="10.00">C&#45;0584</text>
</g>
<!-- C&#45;0583&#45;&gt;C&#45;0584 -->
<g id="edge42" class="edge">
<title>C&#45;0583&#45;&gt;C&#45;0584</title>
<path fill="none" stroke="blue" stroke-dasharray="5,2" d="M228,-910.07C228,-868.72 228,-779 228,-779 228,-779 1548,-779 1548,-779 1548,-779 1548,-749.84 1548,-749.84"/>
<polygon fill="blue" stroke="blue" points="1550.45,-749.84 1548,-742.84 1545.55,-749.84 1550.45,-749.84"/>
</g>
<!-- C&#45;0967 -->
<g id="node5" class="node">
<title>C&#45;0967</title>
<ellipse fill="tomato" stroke="black" cx="635" cy="-425.5" rx="72" ry="21.5"/>
<text text-anchor="middle" x="635" y="-423" font-family="Arial" font-size="10.00">C&#45;0967</text>
</g>
<!-- ext_circ_109_23_ -->
<g id="node44" class="node">
<title>ext_circ_109_23_</title>
<polygon fill="lightpink" stroke="darkorange" stroke-dasharray="5,2" points="834,-346 690,-346 690,-303 834,-303 834,-346"/>
<text text-anchor="middle" x="762" y="-327.5" font-family="Arial" font-size="10.00">Circuito:</text>
<text text-anchor="middle" x="762" y="-316.5" font-family="Arial" font-size="10.00">109&#45;23&#45;</text>
</g>
<!-- C&#45;0967&#45;&gt;ext_circ_109_23_ -->
<g id="edge47" class="edge">
<title>C&#45;0967&#45;&gt;ext_circ_109_23_</title>
<path fill="none" stroke="darkorange" stroke-dasharray="5,2" d="M698.5,-415.07C698.5,-415.07 698.5,-353.35 698.5,-353.35"/>
<polygon fill="darkorange" stroke="darkorange" points="700.95,-353.35 698.5,-346.35 696.05,-353.35 700.95,-353.35"/>
</g>
<!-- R&#45;175 -->
<g id="node6" class="node">
<title>R&#45;175</title>
<polygon fill="tomato" stroke="black" points="1841,-113.59 1841,-131.41 1798.82,-144 1739.18,-144 1697,-131.41 1697,-113.59 1739.18,-101 1798.82,-101 1841,-113.59"/>
<text text-anchor="middle" x="1769" y="-120" font-family="Arial" font-size="10.00">R&#45;175</text>
</g>
<!-- ext_circ_109_20_ -->
<g id="node43" class="node">
<title>ext_circ_109_20_</title>
<polygon fill="lightpink" stroke="darkorange" stroke-dasharray="5,2" points="2007,-43 1863,-43 1863,0 2007,0 2007,-43"/>
<text text-anchor="middle" x="1935" y="-24.5" font-family="Arial" font-size="10.00">Circuito:</text>
<text text-anchor="middle" x="1935" y="-13.5" font-family="Arial" font-size="10.00">109&#45;20&#45;</text>
</g>
<!-- R&#45;175&#45;&gt;ext_circ_109_20_ -->
<g id="edge44" class="edge">
<title>R&#45;175&#45;&gt;ext_circ_109_20_</title>
<path fill="none" stroke="darkorange" stroke-dasharray="5,2" d="M1832.71,-111C1867.47,-111 1903.5,-111 1903.5,-111 1903.5,-111 1903.5,-50.17 1903.5,-50.17"/>
<polygon fill="darkorange" stroke="darkorange" points="1905.95,-50.17 1903.5,-43.17 1901.05,-50.17 1905.95,-50.17"/>
</g>
<!-- C&#45;0584&#45;&gt;C&#45;0821 -->
<g id="edge11" class="edge">
<title>C&#45;0584&#45;&gt;C&#45;0821</title>
<path fill="none" stroke="#4d4d4d" d="M1669.78,-721C1749.76,-721 1872,-721 1872,-721 1872,-721 1872,-656.19 1872,-656.19"/>
<polygon fill="#4d4d4d" stroke="#4d4d4d" points="1874.45,-656.19 1872,-649.19 1869.55,-656.19 1874.45,-656.19"/>
</g>
<!-- S&#45;126 -->
<g id="node10" class="node">
<title>S&#45;126</title>
<polygon fill="mediumseagreen" stroke="black" points="2052,-649 1980,-627.5 2052,-606 2124,-627.5 2052,-649"/>
<text text-anchor="middle" x="2052" y="-625" font-family="Arial" font-size="10.00">S&#45;126</text>
</g>
<!-- C&#45;0584&#45;&gt;S&#45;126 -->
<g id="edge8" class="edge">
<title>C&#45;0584&#45;&gt;S&#45;126</title>
<path fill="none" stroke="#4d4d4d" d="M1670.84,-735C1796.89,-735 2052,-735 2052,-735 2052,-735 2052,-656.25 2052,-656.25"/>
<polygon fill="#4d4d4d" stroke="#4d4d4d" points="2054.45,-656.25 2052,-649.25 2049.55,-656.25 2054.45,-656.25"/>
</g>
<!-- S&#45;1784 -->
<g id="node11" class="node">
<title>S&#45;1784</title>
<polygon fill="mediumseagreen" stroke="black" points="1332,-649 1260,-627.5 1332,-606 1404,-627.5 1332,-649"/>
<text text-anchor="middle" x="1332" y="-625" font-family="Arial" font-size="10.00">S&#45;1784</text>
</g>
<!-- C&#45;0584&#45;&gt;S&#45;1784 -->
<g id="edge10" class="edge">
<title>C&#45;0584&#45;&gt;S&#45;1784</title>
<path fill="none" stroke="#4d4d4d" d="M1533.17,-735C1453.17,-735 1332,-735 1332,-735 1332,-735 1332,-656.25 1332,-656.25"/>
<polygon fill="#4d4d4d" stroke="#4d4d4d" points="1334.45,-656.25 1332,-649.25 1329.55,-656.25 1334.45,-656.25"/>
</g>
<!-- S&#45;2156 -->
<g id="node15" class="node">
<title>S&#45;2156</title>
<polygon fill="mediumseagreen" stroke="black" points="1512,-649 1440,-627.5 1512,-606 1584,-627.5 1512,-649"/>
<text text-anchor="middle" x="1512" y="-625" font-family="Arial" font-size="10.00">S&#45;2156</text>
</g>
<!-- C&#45;0584&#45;&gt;S&#45;2156 -->
<g id="edge6" class="edge">
<title>C&#45;0584&#45;&gt;S&#45;2156</title>
<path fill="none" stroke="#4d4d4d" d="M1557,-711.37C1557,-711.37 1557,-642.78 1557,-642.78"/>
<polygon fill="#4d4d4d" stroke="#4d4d4d" points="1559.45,-642.78 1557,-635.78 1554.55,-642.78 1559.45,-642.78"/>
</g>
<!-- S&#45;127 -->
<g id="node27" class="node">
<title>S&#45;127</title>
<polygon fill="mediumseagreen" stroke="black" points="1692,-649 1620,-627.5 1692,-606 1764,-627.5 1692,-649"/>
<text text-anchor="middle" x="1692" y="-625" font-family="Arial" font-size="10.00">S&#45;127</text>
</g>
<!-- C&#45;0584&#45;&gt;S&#45;127 -->
<g id="edge9" class="edge">
<title>C&#45;0584&#45;&gt;S&#45;127</title>
<path fill="none" stroke="#4d4d4d" d="M1647,-711.37C1647,-711.37 1647,-642.78 1647,-642.78"/>
<polygon fill="#4d4d4d" stroke="#4d4d4d" points="1649.45,-642.78 1647,-635.78 1644.55,-642.78 1649.45,-642.78"/>
</g>
<!-- S&#45;1983 -->
<g id="node8" class="node">
<title>S&#45;1983</title>
<polygon fill="mediumseagreen" stroke="black" points="252,-649 180,-627.5 252,-606 324,-627.5 252,-649"/>
<text text-anchor="middle" x="252" y="-625" font-family="Arial" font-size="10.00">S&#45;1983</text>
</g>
<!-- C&#45;0958 -->
<g id="node9" class="node">
<title>C&#45;0958</title>
<ellipse fill="tomato" stroke="black" cx="432" cy="-930.5" rx="72" ry="21.5"/>
<text text-anchor="middle" x="432" y="-928" font-family="Arial" font-size="10.00">C&#45;0958</text>
</g>
<!-- C&#45;0959 -->
<g id="node19" class="node">
<title>C&#45;0959</title>
<ellipse fill="mediumseagreen" stroke="black" cx="432" cy="-728.5" rx="72" ry="21.5"/>
<text text-anchor="middle" x="432" y="-726" font-family="Arial" font-size="10.00">C&#45;0959</text>
</g>
<!-- C&#45;0958&#45;&gt;C&#45;0959 -->
<g id="edge49" class="edge">
<title>C&#45;0958&#45;&gt;C&#45;0959</title>
<path fill="none" stroke="blue" stroke-dasharray="5,2" d="M432,-908.88C432,-908.88 432,-757.27 432,-757.27"/>
<polygon fill="blue" stroke="blue" points="434.45,-757.27 432,-750.27 429.55,-757.27 434.45,-757.27"/>
</g>
<!-- R&#45;077 -->
<g id="node12" class="node">
<title>R&#45;077</title>
<polygon fill="mediumseagreen" stroke="black" points="1044,-820.59 1044,-838.41 1001.82,-851 942.18,-851 900,-838.41 900,-820.59 942.18,-808 1001.82,-808 1044,-820.59"/>
<text text-anchor="middle" x="972" y="-827" font-family="Arial" font-size="10.00">R&#45;077</text>
</g>
<!-- C&#45;0534 -->
<g id="node39" class="node">
<title>C&#45;0534</title>
<ellipse fill="mediumseagreen" stroke="black" cx="972" cy="-728.5" rx="72" ry="21.5"/>
<text text-anchor="middle" x="972" y="-726" font-family="Arial" font-size="10.00">C&#45;0534</text>
</g>
<!-- R&#45;077&#45;&gt;C&#45;0534 -->
<g id="edge26" class="edge">
<title>R&#45;077&#45;&gt;C&#45;0534</title>
<path fill="none" stroke="#4d4d4d" d="M972,-807.58C972,-807.58 972,-757.03 972,-757.03"/>
<polygon fill="#4d4d4d" stroke="#4d4d4d" points="974.45,-757.03 972,-750.03 969.55,-757.03 974.45,-757.03"/>
</g>
<!-- C&#45;0790 -->
<g id="node13" class="node">
<title>C&#45;0790</title>
<ellipse fill="mediumseagreen" stroke="black" cx="1692" cy="-223.5" rx="72" ry="21.5"/>
<text text-anchor="middle" x="1692" y="-221" font-family="Arial" font-size="10.00">C&#45;0790</text>
</g>
<!-- C&#45;0790&#45;&gt;R&#45;175 -->
<g id="edge19" class="edge">
<title>C&#45;0790&#45;&gt;R&#45;175</title>
<path fill="none" stroke="#4d4d4d" d="M1730.5,-204.98C1730.5,-204.98 1730.5,-148.59 1730.5,-148.59"/>
<polygon fill="#4d4d4d" stroke="#4d4d4d" points="1732.95,-148.59 1730.5,-141.59 1728.05,-148.59 1732.95,-148.59"/>
</g>
<!-- S&#45;2157 -->
<g id="node14" class="node">
<title>S&#45;2157</title>
<polygon fill="mediumseagreen" stroke="black" points="1872,-245 1800,-223.5 1872,-202 1944,-223.5 1872,-245"/>
<text text-anchor="middle" x="1872" y="-221" font-family="Arial" font-size="10.00">S&#45;2157</text>
</g>
<!-- S&#45;2232 -->
<g id="node29" class="node">
<title>S&#45;2232</title>
<polygon fill="mediumseagreen" stroke="black" points="1512,-548 1440,-526.5 1512,-505 1584,-526.5 1512,-548"/>
<text text-anchor="middle" x="1512" y="-524" font-family="Arial" font-size="10.00">S&#45;2232</text>
</g>
<!-- S&#45;2156&#45;&gt;S&#45;2232 -->
<g id="edge7" class="edge">
<title>S&#45;2156&#45;&gt;S&#45;2232</title>
<path fill="none" stroke="#4d4d4d" d="M1512,-605.58C1512,-605.58 1512,-555.03 1512,-555.03"/>
<polygon fill="#4d4d4d" stroke="#4d4d4d" points="1514.45,-555.03 1512,-548.03 1509.55,-555.03 1514.45,-555.03"/>
</g>
<!-- C&#45;0819 -->
<g id="node24" class="node">
<title>C&#45;0819</title>
<ellipse fill="mediumseagreen" stroke="black" cx="1872" cy="-425.5" rx="72" ry="21.5"/>
<text text-anchor="middle" x="1872" y="-423" font-family="Arial" font-size="10.00">C&#45;0819</text>
</g>
<!-- R&#45;184&#45;&gt;C&#45;0819 -->
<g id="edge13" class="edge">
<title>R&#45;184&#45;&gt;C&#45;0819</title>
<path fill="none" stroke="#4d4d4d" d="M1872,-504.58C1872,-504.58 1872,-454.03 1872,-454.03"/>
<polygon fill="#4d4d4d" stroke="#4d4d4d" points="1874.45,-454.03 1872,-447.03 1869.55,-454.03 1874.45,-454.03"/>
</g>
<!-- S&#45;1725 -->
<g id="node17" class="node">
<title>S&#45;1725</title>
<polygon fill="mediumseagreen" stroke="black" points="2052,-245 1980,-223.5 2052,-202 2124,-223.5 2052,-245"/>
<text text-anchor="middle" x="2052" y="-221" font-family="Arial" font-size="10.00">S&#45;1725</text>
</g>
<!-- C&#45;0957 -->
<g id="node18" class="node">
<title>C&#45;0957</title>
<ellipse fill="mediumseagreen" stroke="black" cx="612" cy="-930.5" rx="72" ry="21.5"/>
<text text-anchor="middle" x="612" y="-928" font-family="Arial" font-size="10.00">C&#45;0957</text>
</g>
<!-- R&#45;226 -->
<g id="node32" class="node">
<title>R&#45;226</title>
<polygon fill="mediumseagreen" stroke="black" points="671,-820.59 671,-838.41 628.82,-851 569.18,-851 527,-838.41 527,-820.59 569.18,-808 628.82,-808 671,-820.59"/>
<text text-anchor="middle" x="599" y="-827" font-family="Arial" font-size="10.00">R&#45;226</text>
</g>
<!-- C&#45;0957&#45;&gt;R&#45;226 -->
<g id="edge36" class="edge">
<title>C&#45;0957&#45;&gt;R&#45;226</title>
<path fill="none" stroke="#4d4d4d" d="M605.5,-909.08C605.5,-909.08 605.5,-858.24 605.5,-858.24"/>
<polygon fill="#4d4d4d" stroke="#4d4d4d" points="607.95,-858.24 605.5,-851.24 603.05,-858.24 607.95,-858.24"/>
</g>
<!-- C&#45;0959&#45;&gt;S&#45;1983 -->
<g id="edge40" class="edge">
<title>C&#45;0959&#45;&gt;S&#45;1983</title>
<path fill="none" stroke="#4d4d4d" d="M364.48,-721C322.32,-721 276,-721 276,-721 276,-721 276,-649.11 276,-649.11"/>
<polygon fill="#4d4d4d" stroke="#4d4d4d" points="278.45,-649.11 276,-642.11 273.55,-649.11 278.45,-649.11"/>
</g>
<!-- S&#45;1982 -->
<g id="node23" class="node">
<title>S&#45;1982</title>
<polygon fill="mediumseagreen" stroke="black" points="432,-649 360,-627.5 432,-606 504,-627.5 432,-649"/>
<text text-anchor="middle" x="432" y="-625" font-family="Arial" font-size="10.00">S&#45;1982</text>
</g>
<!-- C&#45;0959&#45;&gt;S&#45;1982 -->
<g id="edge41" class="edge">
<title>C&#45;0959&#45;&gt;S&#45;1982</title>
<path fill="none" stroke="#4d4d4d" d="M432,-706.58C432,-706.58 432,-656.03 432,-656.03"/>
<polygon fill="#4d4d4d" stroke="#4d4d4d" points="434.45,-656.03 432,-649.03 429.55,-656.03 434.45,-656.03"/>
</g>
<!-- S&#45;2485 -->
<g id="node35" class="node">
<title>S&#45;2485</title>
<polygon fill="mediumseagreen" stroke="black" points="612,-649 540,-627.5 612,-606 684,-627.5 612,-649"/>
<text text-anchor="middle" x="612" y="-625" font-family="Arial" font-size="10.00">S&#45;2485</text>
</g>
<!-- C&#45;0959&#45;&gt;S&#45;2485 -->
<g id="edge39" class="edge">
<title>C&#45;0959&#45;&gt;S&#45;2485</title>
<path fill="none" stroke="#4d4d4d" d="M493.17,-717C543.12,-717 605.5,-717 605.5,-717 605.5,-717 605.5,-654.36 605.5,-654.36"/>
<polygon fill="#4d4d4d" stroke="#4d4d4d" points="607.95,-654.36 605.5,-647.36 603.05,-654.36 607.95,-654.36"/>
</g>
<!-- S&#45;1981 -->
<g id="node37" class="node">
<title>S&#45;1981</title>
<polygon fill="mediumseagreen" stroke="black" points="72,-649 0,-627.5 72,-606 144,-627.5 72,-649"/>
<text text-anchor="middle" x="72" y="-625" font-family="Arial" font-size="10.00">S&#45;1981</text>
</g>
<!-- C&#45;0959&#45;&gt;S&#45;1981 -->
<g id="edge38" class="edge">
<title>C&#45;0959&#45;&gt;S&#45;1981</title>
<path fill="none" stroke="#4d4d4d" d="M363.01,-735C258.48,-735 72,-735 72,-735 72,-735 72,-656.25 72,-656.25"/>
<polygon fill="#4d4d4d" stroke="#4d4d4d" points="74.45,-656.25 72,-649.25 69.55,-656.25 74.45,-656.25"/>
</g>
<!-- C&#45;0533 -->
<g id="node20" class="node">
<title>C&#45;0533</title>
<ellipse fill="tomato" stroke="black" cx="792" cy="-930.5" rx="72" ry="21.5"/>
<text text-anchor="middle" x="792" y="-928" font-family="Arial" font-size="10.00">C&#45;0533</text>
</g>
<!-- S&#45;2133 -->
<g id="node38" class="node">
<title>S&#45;2133</title>
<polygon fill="mediumseagreen" stroke="black" points="1152,-649 1080,-627.5 1152,-606 1224,-627.5 1152,-649"/>
<text text-anchor="middle" x="1152" y="-625" font-family="Arial" font-size="10.00">S&#45;2133</text>
</g>
<!-- C&#45;0533&#45;&gt;S&#45;2133 -->
<g id="edge46" class="edge">
<title>C&#45;0533&#45;&gt;S&#45;2133</title>
<path fill="none" stroke="blue" stroke-dasharray="5,2" d="M768,-909.96C768,-895.98 768,-880 768,-880 768,-880 1176,-880 1176,-880 1176,-880 1176,-649.17 1176,-649.17"/>
<polygon fill="blue" stroke="blue" points="1178.45,-649.17 1176,-642.17 1173.55,-649.17 1178.45,-649.17"/>
</g>
<!-- R&#45;109 -->
<g id="node21" class="node">
<title>R&#45;109</title>
<polygon fill="mediumseagreen" stroke="black" points="1584,-820.59 1584,-838.41 1541.82,-851 1482.18,-851 1440,-838.41 1440,-820.59 1482.18,-808 1541.82,-808 1584,-820.59"/>
<text text-anchor="middle" x="1512" y="-827" font-family="Arial" font-size="10.00">R&#45;109</text>
</g>
<!-- R&#45;109&#45;&gt;C&#45;0584 -->
<g id="edge5" class="edge">
<title>R&#45;109&#45;&gt;C&#45;0584</title>
<path fill="none" stroke="#4d4d4d" d="M1566,-815.03C1566,-815.03 1566,-754.42 1566,-754.42"/>
<polygon fill="#4d4d4d" stroke="#4d4d4d" points="1568.45,-754.42 1566,-747.42 1563.55,-754.42 1568.45,-754.42"/>
</g>
<!-- S&#45;2138 -->
<g id="node22" class="node">
<title>S&#45;2138</title>
<polygon fill="mediumseagreen" stroke="black" points="792,-649 720,-627.5 792,-606 864,-627.5 792,-649"/>
<text text-anchor="middle" x="792" y="-625" font-family="Arial" font-size="10.00">S&#45;2138</text>
</g>
<!-- S&#45;2138&#45;&gt;C&#45;0968 -->
<g id="edge32" class="edge">
<title>S&#45;2138&#45;&gt;C&#45;0968</title>
<path fill="none" stroke="#4d4d4d" d="M837,-619.23C837,-619.23 837,-550.52 837,-550.52"/>
<polygon fill="#4d4d4d" stroke="#4d4d4d" points="839.45,-550.52 837,-543.52 834.55,-550.52 839.45,-550.52"/>
</g>
<!-- S&#45;2138&#45;&gt;C&#45;0967 -->
<g id="edge31" class="edge">
<title>S&#45;2138&#45;&gt;C&#45;0967</title>
<path fill="none" stroke="#4d4d4d" d="M721.61,-627C706.77,-627 695.5,-627 695.5,-627 695.5,-627 695.5,-444.2 695.5,-444.2"/>
<polygon fill="#4d4d4d" stroke="#4d4d4d" points="697.95,-444.2 695.5,-437.2 693.05,-444.2 697.95,-444.2"/>
</g>
<!-- C&#45;0309 -->
<g id="node30" class="node">
<title>C&#45;0309</title>
<ellipse fill="mediumseagreen" stroke="black" cx="1962" cy="-324.5" rx="72" ry="21.5"/>
<text text-anchor="middle" x="1962" y="-322" font-family="Arial" font-size="10.00">C&#45;0309</text>
</g>
<!-- C&#45;0819&#45;&gt;C&#45;0309 -->
<g id="edge15" class="edge">
<title>C&#45;0819&#45;&gt;C&#45;0309</title>
<path fill="none" stroke="#4d4d4d" d="M1917,-408.37C1917,-408.37 1917,-348.38 1917,-348.38"/>
<polygon fill="#4d4d4d" stroke="#4d4d4d" points="1919.45,-348.38 1917,-341.38 1914.55,-348.38 1919.45,-348.38"/>
</g>
<!-- C&#45;0820 -->
<g id="node33" class="node">
<title>C&#45;0820</title>
<ellipse fill="tomato" stroke="black" cx="1782" cy="-324.5" rx="72" ry="21.5"/>
<text text-anchor="middle" x="1782" y="-322" font-family="Arial" font-size="10.00">C&#45;0820</text>
</g>
<!-- C&#45;0819&#45;&gt;C&#45;0820 -->
<g id="edge14" class="edge">
<title>C&#45;0819&#45;&gt;C&#45;0820</title>
<path fill="none" stroke="#4d4d4d" d="M1827,-408.37C1827,-408.37 1827,-348.38 1827,-348.38"/>
<polygon fill="#4d4d4d" stroke="#4d4d4d" points="1829.45,-348.38 1827,-341.38 1824.55,-348.38 1829.45,-348.38"/>
</g>
<!-- C&#45;0789 -->
<g id="node25" class="node">
<title>C&#45;0789</title>
<ellipse fill="tomato" stroke="black" cx="2102" cy="-122.5" rx="72" ry="21.5"/>
<text text-anchor="middle" x="2102" y="-120" font-family="Arial" font-size="10.00">C&#45;0789</text>
</g>
<!-- C&#45;0789&#45;&gt;ext_circ_109_20_ -->
<g id="edge45" class="edge">
<title>C&#45;0789&#45;&gt;ext_circ_109_20_</title>
<path fill="none" stroke="darkorange" stroke-dasharray="5,2" d="M2029.93,-122C2009.89,-122 1993.5,-122 1993.5,-122 1993.5,-122 1993.5,-50.31 1993.5,-50.31"/>
<polygon fill="darkorange" stroke="darkorange" points="1995.95,-50.31 1993.5,-43.31 1991.05,-50.31 1995.95,-50.31"/>
</g>
<!-- C&#45;0532 -->
<g id="node26" class="node">
<title>C&#45;0532</title>
<ellipse fill="mediumseagreen" stroke="black" cx="972" cy="-930.5" rx="72" ry="21.5"/>
<text text-anchor="middle" x="972" y="-928" font-family="Arial" font-size="10.00">C&#45;0532</text>
</g>
<!-- C&#45;0532&#45;&gt;R&#45;077 -->
<g id="edge25" class="edge">
<title>C&#45;0532&#45;&gt;R&#45;077</title>
<path fill="none" stroke="#4d4d4d" d="M972,-908.58C972,-908.58 972,-858.03 972,-858.03"/>
<polygon fill="#4d4d4d" stroke="#4d4d4d" points="974.45,-858.03 972,-851.03 969.55,-858.03 974.45,-858.03"/>
</g>
<!-- 114&#45;22&#45; -->
<g id="node28" class="node">
<title>114&#45;22&#45;</title>
<polygon fill="gold" stroke="black" points="774,-1127.59 774,-1145.41 731.82,-1158 672.18,-1158 630,-1145.41 630,-1127.59 672.18,-1115 731.82,-1115 774,-1127.59"/>
<polygon fill="none" stroke="black" points="778,-1124.61 778,-1148.39 732.41,-1162 671.59,-1162 626,-1148.39 626,-1124.61 671.59,-1111 732.41,-1111 778,-1124.61"/>
<text text-anchor="middle" x="702" y="-1134" font-family="Arial" font-size="10.00">114&#45;22&#45;</text>
</g>
<!-- C&#45;0051 -->
<g id="node42" class="node">
<title>C&#45;0051</title>
<ellipse fill="mediumseagreen" stroke="black" cx="702" cy="-1031.5" rx="72" ry="21.5"/>
<text text-anchor="middle" x="702" y="-1029" font-family="Arial" font-size="10.00">C&#45;0051</text>
</g>
<!-- 114&#45;22&#45;&#45;&gt;C&#45;0051 -->
<g id="edge1" class="edge">
<title>114&#45;22&#45;&#45;&gt;C&#45;0051</title>
<path fill="none" stroke="#4d4d4d" d="M702,-1110.81C702,-1110.81 702,-1060.03 702,-1060.03"/>
<polygon fill="#4d4d4d" stroke="#4d4d4d" points="704.45,-1060.03 702,-1053.03 699.55,-1060.03 704.45,-1060.03"/>
</g>
<!-- C&#45;0309&#45;&gt;S&#45;2062 -->
<g id="edge16" class="edge">
<title>C&#45;0309&#45;&gt;S&#45;2062</title>
<path fill="none" stroke="#4d4d4d" d="M1903.5,-311.82C1903.5,-299.62 1903.5,-283 1903.5,-283 1903.5,-283 1512,-283 1512,-283 1512,-283 1512,-252.32 1512,-252.32"/>
<polygon fill="#4d4d4d" stroke="#4d4d4d" points="1514.45,-252.32 1512,-245.32 1509.55,-252.32 1514.45,-252.32"/>
</g>
<!-- C&#45;0309&#45;&gt;C&#45;0790 -->
<g id="edge18" class="edge">
<title>C&#45;0309&#45;&gt;C&#45;0790</title>
<path fill="none" stroke="#4d4d4d" d="M1917,-307.65C1917,-289.75 1917,-264 1917,-264 1917,-264 1737,-264 1737,-264 1737,-264 1737,-247.44 1737,-247.44"/>
<polygon fill="#4d4d4d" stroke="#4d4d4d" points="1739.45,-247.44 1737,-240.44 1734.55,-247.44 1739.45,-247.44"/>
</g>
<!-- C&#45;0309&#45;&gt;S&#45;2157 -->
<g id="edge17" class="edge">
<title>C&#45;0309&#45;&gt;S&#45;2157</title>
<path fill="none" stroke="#4d4d4d" d="M1930.5,-305.03C1930.5,-305.03 1930.5,-234.74 1930.5,-234.74"/>
<polygon fill="#4d4d4d" stroke="#4d4d4d" points="1932.95,-234.74 1930.5,-227.74 1928.05,-234.74 1932.95,-234.74"/>
</g>
<!-- C&#45;0309&#45;&gt;S&#45;1725 -->
<g id="edge21" class="edge">
<title>C&#45;0309&#45;&gt;S&#45;1725</title>
<path fill="none" stroke="#4d4d4d" d="M2007,-307.37C2007,-307.37 2007,-238.78 2007,-238.78"/>
<polygon fill="#4d4d4d" stroke="#4d4d4d" points="2009.45,-238.78 2007,-231.78 2004.55,-238.78 2009.45,-238.78"/>
</g>
<!-- C&#45;0309&#45;&gt;C&#45;0789 -->
<g id="edge20" class="edge">
<title>C&#45;0309&#45;&gt;C&#45;0789</title>
<path fill="none" stroke="#4d4d4d" d="M1962,-302.9C1962,-252.82 1962,-133 1962,-133 1962,-133 2031.96,-133 2031.96,-133"/>
<polygon fill="#4d4d4d" stroke="#4d4d4d" points="2031.96,-135.45 2038.96,-133 2031.96,-130.55 2031.96,-135.45"/>
</g>
<!-- S&#45;1116 -->
<g id="node40" class="node">
<title>S&#45;1116</title>
<polygon fill="mediumseagreen" stroke="black" points="2306,-245 2234,-223.5 2306,-202 2378,-223.5 2306,-245"/>
<text text-anchor="middle" x="2306" y="-221" font-family="Arial" font-size="10.00">S&#45;1116</text>
</g>
<!-- C&#45;0309&#45;&gt;S&#45;1116 -->
<g id="edge22" class="edge">
<title>C&#45;0309&#45;&gt;S&#45;1116</title>
<path fill="none" stroke="#4d4d4d" d="M2034.11,-324C2134.99,-324 2306,-324 2306,-324 2306,-324 2306,-252.31 2306,-252.31"/>
<polygon fill="#4d4d4d" stroke="#4d4d4d" points="2308.45,-252.31 2306,-245.31 2303.55,-252.31 2308.45,-252.31"/>
</g>
<!-- S&#45;2467 -->
<g id="node31" class="node">
<title>S&#45;2467</title>
<ellipse fill="mediumseagreen" stroke="black" cx="972" cy="-627.5" rx="72" ry="21.5"/>
<text text-anchor="middle" x="972" y="-625" font-family="Arial" font-size="10.00">S&#45;2467</text>
</g>
<!-- R&#45;226&#45;&gt;C&#45;0959 -->
<g id="edge37" class="edge">
<title>R&#45;226&#45;&gt;C&#45;0959</title>
<path fill="none" stroke="#4d4d4d" d="M533.5,-818.64C533.5,-792.45 533.5,-728 533.5,-728 533.5,-728 511.14,-728 511.14,-728"/>
<polygon fill="#4d4d4d" stroke="#4d4d4d" points="511.14,-725.55 504.14,-728 511.14,-730.45 511.14,-725.55"/>
</g>
<!-- C&#45;0820&#45;&gt;C&#45;0821 -->
<g id="edge43" class="edge">
<title>C&#45;0820&#45;&gt;C&#45;0821</title>
<path fill="none" stroke="blue" stroke-dasharray="5,2" d="M1782,-346.26C1782,-415.62 1782,-627 1782,-627 1782,-627 1792.78,-627 1792.78,-627"/>
<polygon fill="blue" stroke="blue" points="1792.78,-629.45 1799.78,-627 1792.78,-624.55 1792.78,-629.45"/>
</g>
<!-- R&#45;229&#45;&gt;ext_circ_109_23_ -->
<g id="edge48" class="edge">
<title>R&#45;229&#45;&gt;ext_circ_109_23_</title>
<path fill="none" stroke="darkorange" stroke-dasharray="5,2" d="M825.5,-413.91C825.5,-413.91 825.5,-353.19 825.5,-353.19"/>
<polygon fill="darkorange" stroke="darkorange" points="827.95,-353.19 825.5,-346.19 823.05,-353.19 827.95,-353.19"/>
</g>
<!-- S&#45;2196 -->
<g id="node36" class="node">
<title>S&#45;2196</title>
<polygon fill="mediumseagreen" stroke="black" points="1152,-548 1080,-526.5 1152,-505 1224,-526.5 1152,-548"/>
<text text-anchor="middle" x="1152" y="-524" font-family="Arial" font-size="10.00">S&#45;2196</text>
</g>
<!-- S&#45;2133&#45;&gt;S&#45;2196 -->
<g id="edge28" class="edge">
<title>S&#45;2133&#45;&gt;S&#45;2196</title>
<path fill="none" stroke="#4d4d4d" d="M1152,-605.58C1152,-605.58 1152,-555.03 1152,-555.03"/>
<polygon fill="#4d4d4d" stroke="#4d4d4d" points="1154.45,-555.03 1152,-548.03 1149.55,-555.03 1154.45,-555.03"/>
</g>
<!-- C&#45;0534&#45;&gt;S&#45;2138 -->
<g id="edge30" class="edge">
<title>C&#45;0534&#45;&gt;S&#45;2138</title>
<path fill="none" stroke="#4d4d4d" d="M909,-739C865.7,-739 816,-739 816,-739 816,-739 816,-649.08 816,-649.08"/>
<polygon fill="#4d4d4d" stroke="#4d4d4d" points="818.45,-649.08 816,-642.08 813.55,-649.08 818.45,-649.08"/>
</g>
<!-- C&#45;0534&#45;&gt;S&#45;2467 -->
<g id="edge29" class="edge">
<title>C&#45;0534&#45;&gt;S&#45;2467</title>
<path fill="none" stroke="#4d4d4d" d="M972,-706.58C972,-706.58 972,-656.03 972,-656.03"/>
<polygon fill="#4d4d4d" stroke="#4d4d4d" points="974.45,-656.03 972,-649.03 969.55,-656.03 974.45,-656.03"/>
</g>
<!-- C&#45;0534&#45;&gt;S&#45;2133 -->
<g id="edge27" class="edge">
<title>C&#45;0534&#45;&gt;S&#45;2133</title>
<path fill="none" stroke="#4d4d4d" d="M1039.52,-721C1081.68,-721 1128,-721 1128,-721 1128,-721 1128,-649.11 1128,-649.11"/>
<polygon fill="#4d4d4d" stroke="#4d4d4d" points="1130.45,-649.11 1128,-642.11 1125.55,-649.11 1130.45,-649.11"/>
</g>
<!-- C&#45;0585 -->
<g id="node41" class="node">
<title>C&#45;0585</title>
<ellipse fill="mediumseagreen" stroke="black" cx="1332" cy="-930.5" rx="72" ry="21.5"/>
<text text-anchor="middle" x="1332" y="-928" font-family="Arial" font-size="10.00">C&#45;0585</text>
</g>
<!-- C&#45;0585&#45;&gt;R&#45;109 -->
<g id="edge4" class="edge">
<title>C&#45;0585&#45;&gt;R&#45;109</title>
<path fill="none" stroke="#4d4d4d" d="M1404.18,-930C1454.25,-930 1512,-930 1512,-930 1512,-930 1512,-858.31 1512,-858.31"/>
<polygon fill="#4d4d4d" stroke="#4d4d4d" points="1514.45,-858.31 1512,-851.31 1509.55,-858.31 1514.45,-858.31"/>
</g>
<!-- C&#45;0051&#45;&gt;C&#45;0583 -->
<g id="edge2" class="edge">
<title>C&#45;0051&#45;&gt;C&#45;0583</title>
<path fill="none" stroke="#4d4d4d" d="M633.16,-1038C507.11,-1038 252,-1038 252,-1038 252,-1038 252,-959.25 252,-959.25"/>
<polygon fill="#4d4d4d" stroke="#4d4d4d" points="254.45,-959.25 252,-952.25 249.55,-959.25 254.45,-959.25"/>
</g>
<!-- C&#45;0051&#45;&gt;C&#45;0958 -->
<g id="edge35" class="edge">
<title>C&#45;0051&#45;&gt;C&#45;0958</title>
<path fill="none" stroke="#4d4d4d" d="M634.22,-1024C554.24,-1024 432,-1024 432,-1024 432,-1024 432,-959.19 432,-959.19"/>
<polygon fill="#4d4d4d" stroke="#4d4d4d" points="434.45,-959.19 432,-952.19 429.55,-959.19 434.45,-959.19"/>
</g>
<!-- C&#45;0051&#45;&gt;C&#45;0957 -->
<g id="edge34" class="edge">
<title>C&#45;0051&#45;&gt;C&#45;0957</title>
<path fill="none" stroke="#4d4d4d" d="M657,-1014.37C657,-1014.37 657,-954.38 657,-954.38"/>
<polygon fill="#4d4d4d" stroke="#4d4d4d" points="659.45,-954.38 657,-947.38 654.55,-954.38 659.45,-954.38"/>
</g>
<!-- C&#45;0051&#45;&gt;C&#45;0533 -->
<g id="edge24" class="edge">
<title>C&#45;0051&#45;&gt;C&#45;0533</title>
<path fill="none" stroke="#4d4d4d" d="M747,-1014.37C747,-1014.37 747,-954.38 747,-954.38"/>
<polygon fill="#4d4d4d" stroke="#4d4d4d" points="749.45,-954.38 747,-947.38 744.55,-954.38 749.45,-954.38"/>
</g>
<!-- C&#45;0051&#45;&gt;C&#45;0532 -->
<g id="edge23" class="edge">
<title>C&#45;0051&#45;&gt;C&#45;0532</title>
<path fill="none" stroke="#4d4d4d" d="M769.78,-1024C849.76,-1024 972,-1024 972,-1024 972,-1024 972,-959.19 972,-959.19"/>
<polygon fill="#4d4d4d" stroke="#4d4d4d" points="974.45,-959.19 972,-952.19 969.55,-959.19 974.45,-959.19"/>
</g>
<!-- C&#45;0051&#45;&gt;C&#45;0585 -->
<g id="edge3" class="edge">
<title>C&#45;0051&#45;&gt;C&#45;0585</title>
<path fill="none" stroke="#4d4d4d" d="M770.92,-1038C934.39,-1038 1332,-1038 1332,-1038 1332,-1038 1332,-959.25 1332,-959.25"/>
<polygon fill="#4d4d4d" stroke="#4d4d4d" points="1334.45,-959.25 1332,-952.25 1329.55,-959.25 1334.45,-959.25"/>
</g>
</g>
</svg>
