<?xml version="1.0" encoding="UTF-8" standalone="no"?>
<!DOCTYPE svg PUBLIC "-//W3C//DTD SVG 1.1//EN"
 "http://www.w3.org/Graphics/SVG/1.1/DTD/svg11.dtd">
<!-- Generated by graphviz version 2.50.0 (0)
 -->
<!-- Title: Grafo_Circuito_111_22_ Pages: 1 -->
<svg width="1537pt" height="1271pt"
 viewBox="0.00 0.00 1537.00 1271.00" xmlns="http://www.w3.org/2000/svg" xmlns:xlink="http://www.w3.org/1999/xlink">
<g id="graph0" class="graph" transform="scale(1 1) rotate(0) translate(4 1267)">
<title>Grafo_Circuito_111_22_</title>
<polygon fill="white" stroke="transparent" points="-4,4 -4,-1267 1533,-1267 1533,4 -4,4"/>
<!-- C&#45;0121 -->
<g id="node1" class="node">
<title>C&#45;0121</title>
<ellipse fill="mediumseagreen" stroke="black" cx="1277" cy="-425.5" rx="72" ry="21.5"/>
<text text-anchor="middle" x="1277" y="-423" font-family="Arial" font-size="10.00">C&#45;0121</text>
</g>
<!-- S&#45;1768 -->
<g id="node23" class="node">
<title>S&#45;1768</title>
<polygon fill="mediumseagreen" stroke="black" points="1277,-346 1205,-324.5 1277,-303 1349,-324.5 1277,-346"/>
<text text-anchor="middle" x="1277" y="-322" font-family="Arial" font-size="10.00">S&#45;1768</text>
</g>
<!-- C&#45;0121&#45;&gt;S&#45;1768 -->
<g id="edge23" class="edge">
<title>C&#45;0121&#45;&gt;S&#45;1768</title>
<path fill="none" stroke="#4d4d4d" d="M1277,-403.58C1277,-403.58 1277,-353.03 1277,-353.03"/>
<polygon fill="#4d4d4d" stroke="#4d4d4d" points="1279.45,-353.03 1277,-346.03 1274.55,-353.03 1279.45,-353.03"/>
</g>
<!-- S&#45;1149 -->
<g id="node2" class="node">
<title>S&#45;1149</title>
<polygon fill="mediumseagreen" stroke="black" points="377,-952 305,-930.5 377,-909 449,-930.5 377,-952"/>
<text text-anchor="middle" x="377" y="-928" font-family="Arial" font-size="10.00">S&#45;1149</text>
</g>
<!-- S&#45;1878 -->
<g id="node3" class="node">
<title>S&#45;1878</title>
<polygon fill="mediumseagreen" stroke="black" points="1457,-144 1385,-122.5 1457,-101 1529,-122.5 1457,-144"/>
<text text-anchor="middle" x="1457" y="-120" font-family="Arial" font-size="10.00">S&#45;1878</text>
</g>
<!-- S&#45;1077 -->
<g id="node25" class="node">
<title>S&#45;1077</title>
<polygon fill="mediumseagreen" stroke="black" points="1457,-43 1385,-21.5 1457,0 1529,-21.5 1457,-43"/>
<text text-anchor="middle" x="1457" y="-19" font-family="Arial" font-size="10.00">S&#45;1077</text>
</g>
<!-- S&#45;1878&#45;&gt;S&#45;1077 -->
<g id="edge29" class="edge">
<title>S&#45;1878&#45;&gt;S&#45;1077</title>
<path fill="none" stroke="#4d4d4d" d="M1457,-100.58C1457,-100.58 1457,-50.03 1457,-50.03"/>
<polygon fill="#4d4d4d" stroke="#4d4d4d" points="1459.45,-50.03 1457,-43.03 1454.55,-50.03 1459.45,-50.03"/>
</g>
<!-- S&#45;175 -->
<g id="node4" class="node">
<title>S&#45;175</title>
<polygon fill="mediumseagreen" stroke="black" points="377,-1053 305,-1031.5 377,-1010 449,-1031.5 377,-1053"/>
<text text-anchor="middle" x="377" y="-1029" font-family="Arial" font-size="10.00">S&#45;175</text>
</g>
<!-- R&#45;178 -->
<g id="node5" class="node">
<title>R&#45;178</title>
<polygon fill="tomato" stroke="black" points="1169,-315.59 1169,-333.41 1126.82,-346 1067.18,-346 1025,-333.41 1025,-315.59 1067.18,-303 1126.82,-303 1169,-315.59"/>
<text text-anchor="middle" x="1097" y="-322" font-family="Arial" font-size="10.00">R&#45;178</text>
</g>
<!-- ext_circ_110_26_ -->
<g id="node38" class="node">
<title>ext_circ_110_26_</title>
<polygon fill="lightpink" stroke="darkorange" stroke-dasharray="5,2" points="399,-1259 255,-1259 255,-1216 399,-1216 399,-1259"/>
<text text-anchor="middle" x="327" y="-1240.5" font-family="Arial" font-size="10.00">Circuito:</text>
<text text-anchor="middle" x="327" y="-1229.5" font-family="Arial" font-size="10.00">110&#45;26&#45;</text>
</g>
<!-- R&#45;178&#45;&gt;ext_circ_110_26_ -->
<g id="edge41" class="edge">
<title>R&#45;178&#45;&gt;ext_circ_110_26_</title>
<path fill="none" stroke="darkorange" stroke-dasharray="5,2" d="M1024.84,-324C823.74,-324 271.67,-324 271.67,-324 271.67,-324 271.67,-1208.82 271.67,-1208.82"/>
<polygon fill="darkorange" stroke="darkorange" points="269.22,-1208.82 271.67,-1215.82 274.12,-1208.82 269.22,-1208.82"/>
</g>
<!-- S&#45;168 -->
<g id="node6" class="node">
<title>S&#45;168</title>
<polygon fill="mediumseagreen" stroke="black" points="557,-1053 485,-1031.5 557,-1010 629,-1031.5 557,-1053"/>
<text text-anchor="middle" x="557" y="-1029" font-family="Arial" font-size="10.00">S&#45;168</text>
</g>
<!-- S&#45;168&#45;&gt;S&#45;1149 -->
<g id="edge11" class="edge">
<title>S&#45;168&#45;&gt;S&#45;1149</title>
<path fill="none" stroke="#4d4d4d" d="M486.56,-1031C470.98,-1031 459,-1031 459,-1031 459,-1031 459,-930 459,-930 459,-930 454.6,-930 454.6,-930"/>
<polygon fill="#4d4d4d" stroke="#4d4d4d" points="454.6,-927.55 447.6,-930 454.6,-932.45 454.6,-927.55"/>
</g>
<!-- S&#45;169 -->
<g id="node8" class="node">
<title>S&#45;169</title>
<polygon fill="mediumseagreen" stroke="black" points="557,-952 485,-930.5 557,-909 629,-930.5 557,-952"/>
<text text-anchor="middle" x="557" y="-928" font-family="Arial" font-size="10.00">S&#45;169</text>
</g>
<!-- S&#45;168&#45;&gt;S&#45;169 -->
<g id="edge3" class="edge">
<title>S&#45;168&#45;&gt;S&#45;169</title>
<path fill="none" stroke="#4d4d4d" d="M557,-1009.58C557,-1009.58 557,-959.03 557,-959.03"/>
<polygon fill="#4d4d4d" stroke="#4d4d4d" points="559.45,-959.03 557,-952.03 554.55,-959.03 559.45,-959.03"/>
</g>
<!-- S&#45;2137 -->
<g id="node29" class="node">
<title>S&#45;2137</title>
<polygon fill="mediumseagreen" stroke="black" points="737,-952 665,-930.5 737,-909 809,-930.5 737,-952"/>
<text text-anchor="middle" x="737" y="-928" font-family="Arial" font-size="10.00">S&#45;2137</text>
</g>
<!-- S&#45;168&#45;&gt;S&#45;2137 -->
<g id="edge10" class="edge">
<title>S&#45;168&#45;&gt;S&#45;2137</title>
<path fill="none" stroke="#4d4d4d" d="M627.71,-1031C640.39,-1031 649.67,-1031 649.67,-1031 649.67,-1031 649.67,-930 649.67,-930 649.67,-930 659.51,-930 659.51,-930"/>
<polygon fill="#4d4d4d" stroke="#4d4d4d" points="659.51,-932.45 666.51,-930 659.51,-927.55 659.51,-932.45"/>
</g>
<!-- 111&#45;22&#45; -->
<g id="node7" class="node">
<title>111&#45;22&#45;</title>
<polygon fill="gold" stroke="black" points="809,-1228.59 809,-1246.41 766.82,-1259 707.18,-1259 665,-1246.41 665,-1228.59 707.18,-1216 766.82,-1216 809,-1228.59"/>
<polygon fill="none" stroke="black" points="813,-1225.61 813,-1249.39 767.41,-1263 706.59,-1263 661,-1249.39 661,-1225.61 706.59,-1212 767.41,-1212 813,-1225.61"/>
<text text-anchor="middle" x="737" y="-1235" font-family="Arial" font-size="10.00">111&#45;22&#45;</text>
</g>
<!-- C&#45;0076 -->
<g id="node11" class="node">
<title>C&#45;0076</title>
<ellipse fill="mediumseagreen" stroke="black" cx="737" cy="-1132.5" rx="72" ry="21.5"/>
<text text-anchor="middle" x="737" y="-1130" font-family="Arial" font-size="10.00">C&#45;0076</text>
</g>
<!-- 111&#45;22&#45;&#45;&gt;C&#45;0076 -->
<g id="edge1" class="edge">
<title>111&#45;22&#45;&#45;&gt;C&#45;0076</title>
<path fill="none" stroke="#4d4d4d" d="M737,-1211.81C737,-1211.81 737,-1161.03 737,-1161.03"/>
<polygon fill="#4d4d4d" stroke="#4d4d4d" points="739.45,-1161.03 737,-1154.03 734.55,-1161.03 739.45,-1161.03"/>
</g>
<!-- S&#45;1150 -->
<g id="node9" class="node">
<title>S&#45;1150</title>
<polygon fill="mediumseagreen" stroke="black" points="557,-851 485,-829.5 557,-808 629,-829.5 557,-851"/>
<text text-anchor="middle" x="557" y="-827" font-family="Arial" font-size="10.00">S&#45;1150</text>
</g>
<!-- S&#45;169&#45;&gt;S&#45;1150 -->
<g id="edge4" class="edge">
<title>S&#45;169&#45;&gt;S&#45;1150</title>
<path fill="none" stroke="#4d4d4d" d="M557,-908.58C557,-908.58 557,-858.03 557,-858.03"/>
<polygon fill="#4d4d4d" stroke="#4d4d4d" points="559.45,-858.03 557,-851.03 554.55,-858.03 559.45,-858.03"/>
</g>
<!-- S&#45;1749 -->
<g id="node26" class="node">
<title>S&#45;1749</title>
<polygon fill="mediumseagreen" stroke="black" points="557,-750 485,-728.5 557,-707 629,-728.5 557,-750"/>
<text text-anchor="middle" x="557" y="-726" font-family="Arial" font-size="10.00">S&#45;1749</text>
</g>
<!-- S&#45;1150&#45;&gt;S&#45;1749 -->
<g id="edge5" class="edge">
<title>S&#45;1150&#45;&gt;S&#45;1749</title>
<path fill="none" stroke="#4d4d4d" d="M557,-807.58C557,-807.58 557,-757.03 557,-757.03"/>
<polygon fill="#4d4d4d" stroke="#4d4d4d" points="559.45,-757.03 557,-750.03 554.55,-757.03 559.45,-757.03"/>
</g>
<!-- R&#45;217 -->
<g id="node10" class="node">
<title>R&#45;217</title>
<polygon fill="mediumseagreen" stroke="black" points="1169,-921.59 1169,-939.41 1126.82,-952 1067.18,-952 1025,-939.41 1025,-921.59 1067.18,-909 1126.82,-909 1169,-921.59"/>
<text text-anchor="middle" x="1097" y="-928" font-family="Arial" font-size="10.00">R&#45;217</text>
</g>
<!-- C&#45;0925 -->
<g id="node33" class="node">
<title>C&#45;0925</title>
<ellipse fill="mediumseagreen" stroke="black" cx="1097" cy="-829.5" rx="72" ry="21.5"/>
<text text-anchor="middle" x="1097" y="-827" font-family="Arial" font-size="10.00">C&#45;0925</text>
</g>
<!-- R&#45;217&#45;&gt;C&#45;0925 -->
<g id="edge16" class="edge">
<title>R&#45;217&#45;&gt;C&#45;0925</title>
<path fill="none" stroke="#4d4d4d" d="M1097,-908.58C1097,-908.58 1097,-858.03 1097,-858.03"/>
<polygon fill="#4d4d4d" stroke="#4d4d4d" points="1099.45,-858.03 1097,-851.03 1094.55,-858.03 1099.45,-858.03"/>
</g>
<!-- C&#45;0076&#45;&gt;S&#45;175 -->
<g id="edge35" class="edge">
<title>C&#45;0076&#45;&gt;S&#45;175</title>
<path fill="none" stroke="#4d4d4d" d="M668.31,-1139C576.17,-1139 424,-1139 424,-1139 424,-1139 424,-1046.23 424,-1046.23"/>
<polygon fill="#4d4d4d" stroke="#4d4d4d" points="426.45,-1046.23 424,-1039.23 421.55,-1046.23 426.45,-1046.23"/>
</g>
<!-- C&#45;0076&#45;&gt;S&#45;168 -->
<g id="edge2" class="edge">
<title>C&#45;0076&#45;&gt;S&#45;168</title>
<path fill="none" stroke="#4d4d4d" d="M669.52,-1125C644,-1125 621,-1125 621,-1125 621,-1125 621,-1041.2 621,-1041.2"/>
<polygon fill="#4d4d4d" stroke="#4d4d4d" points="623.45,-1041.2 621,-1034.2 618.55,-1041.2 623.45,-1041.2"/>
</g>
<!-- C&#45;0924 -->
<g id="node19" class="node">
<title>C&#45;0924</title>
<ellipse fill="tomato" stroke="black" cx="737" cy="-1031.5" rx="72" ry="21.5"/>
<text text-anchor="middle" x="737" y="-1029" font-family="Arial" font-size="10.00">C&#45;0924</text>
</g>
<!-- C&#45;0076&#45;&gt;C&#45;0924 -->
<g id="edge13" class="edge">
<title>C&#45;0076&#45;&gt;C&#45;0924</title>
<path fill="none" stroke="#4d4d4d" d="M737,-1110.58C737,-1110.58 737,-1060.03 737,-1060.03"/>
<polygon fill="#4d4d4d" stroke="#4d4d4d" points="739.45,-1060.03 737,-1053.03 734.55,-1060.03 739.45,-1060.03"/>
</g>
<!-- S&#45;1758 -->
<g id="node21" class="node">
<title>S&#45;1758</title>
<polygon fill="mediumseagreen" stroke="black" points="917,-1053 845,-1031.5 917,-1010 989,-1031.5 917,-1053"/>
<text text-anchor="middle" x="917" y="-1029" font-family="Arial" font-size="10.00">S&#45;1758</text>
</g>
<!-- C&#45;0076&#45;&gt;S&#45;1758 -->
<g id="edge12" class="edge">
<title>C&#45;0076&#45;&gt;S&#45;1758</title>
<path fill="none" stroke="#4d4d4d" d="M804.54,-1125C855.61,-1125 917,-1125 917,-1125 917,-1125 917,-1060.19 917,-1060.19"/>
<polygon fill="#4d4d4d" stroke="#4d4d4d" points="919.45,-1060.19 917,-1053.19 914.55,-1060.19 919.45,-1060.19"/>
</g>
<!-- C&#45;0923 -->
<g id="node32" class="node">
<title>C&#45;0923</title>
<ellipse fill="mediumseagreen" stroke="black" cx="1097" cy="-1031.5" rx="72" ry="21.5"/>
<text text-anchor="middle" x="1097" y="-1029" font-family="Arial" font-size="10.00">C&#45;0923</text>
</g>
<!-- C&#45;0076&#45;&gt;C&#45;0923 -->
<g id="edge14" class="edge">
<title>C&#45;0076&#45;&gt;C&#45;0923</title>
<path fill="none" stroke="#4d4d4d" d="M805.99,-1139C910.52,-1139 1097,-1139 1097,-1139 1097,-1139 1097,-1060.25 1097,-1060.25"/>
<polygon fill="#4d4d4d" stroke="#4d4d4d" points="1099.45,-1060.25 1097,-1053.25 1094.55,-1060.25 1099.45,-1060.25"/>
</g>
<!-- S&#45;173 -->
<g id="node12" class="node">
<title>S&#45;173</title>
<polygon fill="mediumseagreen" stroke="black" points="917,-750 845,-728.5 917,-707 989,-728.5 917,-750"/>
<text text-anchor="middle" x="917" y="-726" font-family="Arial" font-size="10.00">S&#45;173</text>
</g>
<!-- S&#45;170 -->
<g id="node13" class="node">
<title>S&#45;170</title>
<polygon fill="mediumseagreen" stroke="black" points="557,-649 485,-627.5 557,-606 629,-627.5 557,-649"/>
<text text-anchor="middle" x="557" y="-625" font-family="Arial" font-size="10.00">S&#45;170</text>
</g>
<!-- S&#45;2091 -->
<g id="node22" class="node">
<title>S&#45;2091</title>
<polygon fill="mediumseagreen" stroke="black" points="552,-548 480,-526.5 552,-505 624,-526.5 552,-548"/>
<text text-anchor="middle" x="552" y="-524" font-family="Arial" font-size="10.00">S&#45;2091</text>
</g>
<!-- S&#45;170&#45;&gt;S&#45;2091 -->
<g id="edge7" class="edge">
<title>S&#45;170&#45;&gt;S&#45;2091</title>
<path fill="none" stroke="#4d4d4d" d="M554.5,-606.57C554.5,-606.57 554.5,-554.4 554.5,-554.4"/>
<polygon fill="#4d4d4d" stroke="#4d4d4d" points="556.95,-554.4 554.5,-547.4 552.05,-554.4 556.95,-554.4"/>
</g>
<!-- S&#45;2183 -->
<g id="node28" class="node">
<title>S&#45;2183</title>
<polygon fill="mediumseagreen" stroke="black" points="732,-548 660,-526.5 732,-505 804,-526.5 732,-548"/>
<text text-anchor="middle" x="732" y="-524" font-family="Arial" font-size="10.00">S&#45;2183</text>
</g>
<!-- S&#45;170&#45;&gt;S&#45;2183 -->
<g id="edge8" class="edge">
<title>S&#45;170&#45;&gt;S&#45;2183</title>
<path fill="none" stroke="#4d4d4d" d="M627.41,-627C676.96,-627 734.5,-627 734.5,-627 734.5,-627 734.5,-554.32 734.5,-554.32"/>
<polygon fill="#4d4d4d" stroke="#4d4d4d" points="736.95,-554.32 734.5,-547.32 732.05,-554.32 736.95,-554.32"/>
</g>
<!-- C&#45;0491 -->
<g id="node14" class="node">
<title>C&#45;0491</title>
<ellipse fill="mediumseagreen" stroke="black" cx="1097" cy="-728.5" rx="72" ry="21.5"/>
<text text-anchor="middle" x="1097" y="-726" font-family="Arial" font-size="10.00">C&#45;0491</text>
</g>
<!-- R&#45;029 -->
<g id="node18" class="node">
<title>R&#45;029</title>
<polygon fill="mediumseagreen" stroke="black" points="1169,-618.59 1169,-636.41 1126.82,-649 1067.18,-649 1025,-636.41 1025,-618.59 1067.18,-606 1126.82,-606 1169,-618.59"/>
<text text-anchor="middle" x="1097" y="-625" font-family="Arial" font-size="10.00">R&#45;029</text>
</g>
<!-- C&#45;0491&#45;&gt;R&#45;029 -->
<g id="edge20" class="edge">
<title>C&#45;0491&#45;&gt;R&#45;029</title>
<path fill="none" stroke="#4d4d4d" d="M1097,-706.58C1097,-706.58 1097,-656.03 1097,-656.03"/>
<polygon fill="#4d4d4d" stroke="#4d4d4d" points="1099.45,-656.03 1097,-649.03 1094.55,-656.03 1099.45,-656.03"/>
</g>
<!-- C&#45;0194 -->
<g id="node15" class="node">
<title>C&#45;0194</title>
<ellipse fill="tomato" stroke="black" cx="1023" cy="-223.5" rx="72" ry="21.5"/>
<text text-anchor="middle" x="1023" y="-221" font-family="Arial" font-size="10.00">C&#45;0194</text>
</g>
<!-- ext_circ_114_24_ -->
<g id="node37" class="node">
<title>ext_circ_114_24_</title>
<polygon fill="lightpink" stroke="darkorange" stroke-dasharray="5,2" points="144,-1259 0,-1259 0,-1216 144,-1216 144,-1259"/>
<text text-anchor="middle" x="72" y="-1240.5" font-family="Arial" font-size="10.00">Circuito:</text>
<text text-anchor="middle" x="72" y="-1229.5" font-family="Arial" font-size="10.00">114&#45;24&#45;</text>
</g>
<!-- C&#45;0194&#45;&gt;ext_circ_114_24_ -->
<g id="edge38" class="edge">
<title>C&#45;0194&#45;&gt;ext_circ_114_24_</title>
<path fill="none" stroke="darkorange" stroke-dasharray="5,2" d="M950.65,-223C732.48,-223 96,-223 96,-223 96,-223 96,-1208.84 96,-1208.84"/>
<polygon fill="darkorange" stroke="darkorange" points="93.55,-1208.84 96,-1215.84 98.45,-1208.84 93.55,-1208.84"/>
</g>
<!-- C&#45;1132 -->
<g id="node16" class="node">
<title>C&#45;1132</title>
<ellipse fill="mediumseagreen" stroke="black" cx="1277" cy="-223.5" rx="72" ry="21.5"/>
<text text-anchor="middle" x="1277" y="-221" font-family="Arial" font-size="10.00">C&#45;1132</text>
</g>
<!-- R&#45;284 -->
<g id="node34" class="node">
<title>R&#45;284</title>
<polygon fill="tomato" stroke="black" points="1349,-113.59 1349,-131.41 1306.82,-144 1247.18,-144 1205,-131.41 1205,-113.59 1247.18,-101 1306.82,-101 1349,-113.59"/>
<text text-anchor="middle" x="1277" y="-120" font-family="Arial" font-size="10.00">R&#45;284</text>
</g>
<!-- C&#45;1132&#45;&gt;R&#45;284 -->
<g id="edge26" class="edge">
<title>C&#45;1132&#45;&gt;R&#45;284</title>
<path fill="none" stroke="#4d4d4d" d="M1277,-201.58C1277,-201.58 1277,-151.03 1277,-151.03"/>
<polygon fill="#4d4d4d" stroke="#4d4d4d" points="1279.45,-151.03 1277,-144.03 1274.55,-151.03 1279.45,-151.03"/>
</g>
<!-- S&#45;1829 -->
<g id="node17" class="node">
<title>S&#45;1829</title>
<polygon fill="mediumseagreen" stroke="black" points="1277,-750 1205,-728.5 1277,-707 1349,-728.5 1277,-750"/>
<text text-anchor="middle" x="1277" y="-726" font-family="Arial" font-size="10.00">S&#45;1829</text>
</g>
<!-- C&#45;0490 -->
<g id="node35" class="node">
<title>C&#45;0490</title>
<ellipse fill="mediumseagreen" stroke="black" cx="1097" cy="-526.5" rx="72" ry="21.5"/>
<text text-anchor="middle" x="1097" y="-524" font-family="Arial" font-size="10.00">C&#45;0490</text>
</g>
<!-- R&#45;029&#45;&gt;C&#45;0490 -->
<g id="edge21" class="edge">
<title>R&#45;029&#45;&gt;C&#45;0490</title>
<path fill="none" stroke="#4d4d4d" d="M1097,-605.58C1097,-605.58 1097,-555.03 1097,-555.03"/>
<polygon fill="#4d4d4d" stroke="#4d4d4d" points="1099.45,-555.03 1097,-548.03 1094.55,-555.03 1099.45,-555.03"/>
</g>
<!-- C&#45;0924&#45;&gt;C&#45;0925 -->
<g id="edge36" class="edge">
<title>C&#45;0924&#45;&gt;C&#45;0925</title>
<path fill="none" stroke="blue" stroke-dasharray="5,2" d="M809.04,-1031C820.68,-1031 829,-1031 829,-1031 829,-1031 829,-840 829,-840 829,-840 1027.17,-840 1027.17,-840"/>
<polygon fill="blue" stroke="blue" points="1027.17,-842.45 1034.17,-840 1027.17,-837.55 1027.17,-842.45"/>
</g>
<!-- C&#45;0492 -->
<g id="node20" class="node">
<title>C&#45;0492</title>
<ellipse fill="tomato" stroke="black" cx="1457" cy="-728.5" rx="72" ry="21.5"/>
<text text-anchor="middle" x="1457" y="-726" font-family="Arial" font-size="10.00">C&#45;0492</text>
</g>
<!-- C&#45;0492&#45;&gt;C&#45;0490 -->
<g id="edge37" class="edge">
<title>C&#45;0492&#45;&gt;C&#45;0490</title>
<path fill="none" stroke="blue" stroke-dasharray="5,2" d="M1433,-707.95C1433,-657.75 1433,-533 1433,-533 1433,-533 1172.81,-533 1172.81,-533"/>
<polygon fill="blue" stroke="blue" points="1172.81,-530.55 1165.81,-533 1172.81,-535.45 1172.81,-530.55"/>
</g>
<!-- S&#45;1768&#45;&gt;C&#45;0194 -->
<g id="edge24" class="edge">
<title>S&#45;1768&#45;&gt;C&#45;0194</title>
<path fill="none" stroke="#4d4d4d" d="M1206.53,-324C1195.14,-324 1187,-324 1187,-324 1187,-324 1187,-223 1187,-223 1187,-223 1102.41,-223 1102.41,-223"/>
<polygon fill="#4d4d4d" stroke="#4d4d4d" points="1102.41,-220.55 1095.41,-223 1102.41,-225.45 1102.41,-220.55"/>
</g>
<!-- S&#45;1768&#45;&gt;C&#45;1132 -->
<g id="edge25" class="edge">
<title>S&#45;1768&#45;&gt;C&#45;1132</title>
<path fill="none" stroke="#4d4d4d" d="M1277,-302.58C1277,-302.58 1277,-252.03 1277,-252.03"/>
<polygon fill="#4d4d4d" stroke="#4d4d4d" points="1279.45,-252.03 1277,-245.03 1274.55,-252.03 1279.45,-252.03"/>
</g>
<!-- S&#45;1930 -->
<g id="node27" class="node">
<title>S&#45;1930</title>
<polygon fill="mediumseagreen" stroke="black" points="1457,-245 1385,-223.5 1457,-202 1529,-223.5 1457,-245"/>
<text text-anchor="middle" x="1457" y="-221" font-family="Arial" font-size="10.00">S&#45;1930</text>
</g>
<!-- S&#45;1768&#45;&gt;S&#45;1930 -->
<g id="edge27" class="edge">
<title>S&#45;1768&#45;&gt;S&#45;1930</title>
<path fill="none" stroke="#4d4d4d" d="M1347.49,-324C1406.46,-324 1481,-324 1481,-324 1481,-324 1481,-244.9 1481,-244.9"/>
<polygon fill="#4d4d4d" stroke="#4d4d4d" points="1483.45,-244.9 1481,-237.9 1478.55,-244.9 1483.45,-244.9"/>
</g>
<!-- C&#45;0801 -->
<g id="node24" class="node">
<title>C&#45;0801</title>
<ellipse fill="tomato" stroke="black" cx="917" cy="-425.5" rx="72" ry="21.5"/>
<text text-anchor="middle" x="917" y="-423" font-family="Arial" font-size="10.00">C&#45;0801</text>
</g>
<!-- C&#45;0801&#45;&gt;ext_circ_110_26_ -->
<g id="edge40" class="edge">
<title>C&#45;0801&#45;&gt;ext_circ_110_26_</title>
<path fill="none" stroke="darkorange" stroke-dasharray="5,2" d="M941,-446.04C941,-460.02 941,-476 941,-476 941,-476 288.33,-476 288.33,-476 288.33,-476 288.33,-1208.94 288.33,-1208.94"/>
<polygon fill="darkorange" stroke="darkorange" points="285.88,-1208.94 288.33,-1215.94 290.78,-1208.94 285.88,-1208.94"/>
</g>
<!-- S&#45;1749&#45;&gt;S&#45;170 -->
<g id="edge6" class="edge">
<title>S&#45;1749&#45;&gt;S&#45;170</title>
<path fill="none" stroke="#4d4d4d" d="M557,-706.58C557,-706.58 557,-656.03 557,-656.03"/>
<polygon fill="#4d4d4d" stroke="#4d4d4d" points="559.45,-656.03 557,-649.03 554.55,-656.03 559.45,-656.03"/>
</g>
<!-- S&#45;1930&#45;&gt;S&#45;1878 -->
<g id="edge28" class="edge">
<title>S&#45;1930&#45;&gt;S&#45;1878</title>
<path fill="none" stroke="#4d4d4d" d="M1457,-201.58C1457,-201.58 1457,-151.03 1457,-151.03"/>
<polygon fill="#4d4d4d" stroke="#4d4d4d" points="1459.45,-151.03 1457,-144.03 1454.55,-151.03 1459.45,-151.03"/>
</g>
<!-- S&#45;2430 -->
<g id="node30" class="node">
<title>S&#45;2430</title>
<polygon fill="mediumseagreen" stroke="black" points="732,-447 660,-425.5 732,-404 804,-425.5 732,-447"/>
<text text-anchor="middle" x="732" y="-423" font-family="Arial" font-size="10.00">S&#45;2430</text>
</g>
<!-- S&#45;2183&#45;&gt;S&#45;2430 -->
<g id="edge9" class="edge">
<title>S&#45;2183&#45;&gt;S&#45;2430</title>
<path fill="none" stroke="#4d4d4d" d="M732,-504.58C732,-504.58 732,-454.03 732,-454.03"/>
<polygon fill="#4d4d4d" stroke="#4d4d4d" points="734.45,-454.03 732,-447.03 729.55,-454.03 734.45,-454.03"/>
</g>
<!-- C&#45;0800 -->
<g id="node31" class="node">
<title>C&#45;0800</title>
<ellipse fill="mediumseagreen" stroke="black" cx="1097" cy="-425.5" rx="72" ry="21.5"/>
<text text-anchor="middle" x="1097" y="-423" font-family="Arial" font-size="10.00">C&#45;0800</text>
</g>
<!-- C&#45;0800&#45;&gt;R&#45;178 -->
<g id="edge32" class="edge">
<title>C&#45;0800&#45;&gt;R&#45;178</title>
<path fill="none" stroke="#4d4d4d" d="M1097,-403.58C1097,-403.58 1097,-353.03 1097,-353.03"/>
<polygon fill="#4d4d4d" stroke="#4d4d4d" points="1099.45,-353.03 1097,-346.03 1094.55,-353.03 1099.45,-353.03"/>
</g>
<!-- C&#45;0923&#45;&gt;R&#45;217 -->
<g id="edge15" class="edge">
<title>C&#45;0923&#45;&gt;R&#45;217</title>
<path fill="none" stroke="#4d4d4d" d="M1097,-1009.58C1097,-1009.58 1097,-959.03 1097,-959.03"/>
<polygon fill="#4d4d4d" stroke="#4d4d4d" points="1099.45,-959.03 1097,-952.03 1094.55,-959.03 1099.45,-959.03"/>
</g>
<!-- C&#45;0925&#45;&gt;S&#45;173 -->
<g id="edge17" class="edge">
<title>C&#45;0925&#45;&gt;S&#45;173</title>
<path fill="none" stroke="#4d4d4d" d="M1036.06,-818C983.84,-818 917,-818 917,-818 917,-818 917,-757.17 917,-757.17"/>
<polygon fill="#4d4d4d" stroke="#4d4d4d" points="919.45,-757.17 917,-750.17 914.55,-757.17 919.45,-757.17"/>
</g>
<!-- C&#45;0925&#45;&gt;C&#45;0491 -->
<g id="edge19" class="edge">
<title>C&#45;0925&#45;&gt;C&#45;0491</title>
<path fill="none" stroke="#4d4d4d" d="M1097,-807.58C1097,-807.58 1097,-757.03 1097,-757.03"/>
<polygon fill="#4d4d4d" stroke="#4d4d4d" points="1099.45,-757.03 1097,-750.03 1094.55,-757.03 1099.45,-757.03"/>
</g>
<!-- C&#45;0925&#45;&gt;S&#45;1829 -->
<g id="edge34" class="edge">
<title>C&#45;0925&#45;&gt;S&#45;1829</title>
<path fill="none" stroke="#4d4d4d" d="M1164.54,-822C1215.61,-822 1277,-822 1277,-822 1277,-822 1277,-757.19 1277,-757.19"/>
<polygon fill="#4d4d4d" stroke="#4d4d4d" points="1279.45,-757.19 1277,-750.19 1274.55,-757.19 1279.45,-757.19"/>
</g>
<!-- C&#45;0925&#45;&gt;C&#45;0492 -->
<g id="edge18" class="edge">
<title>C&#45;0925&#45;&gt;C&#45;0492</title>
<path fill="none" stroke="#4d4d4d" d="M1165.99,-836C1270.52,-836 1457,-836 1457,-836 1457,-836 1457,-757.25 1457,-757.25"/>
<polygon fill="#4d4d4d" stroke="#4d4d4d" points="1459.45,-757.25 1457,-750.25 1454.55,-757.25 1459.45,-757.25"/>
</g>
<!-- C&#45;0287 -->
<g id="node36" class="node">
<title>C&#45;0287</title>
<ellipse fill="tomato" stroke="black" cx="737" cy="-728.5" rx="72" ry="21.5"/>
<text text-anchor="middle" x="737" y="-726" font-family="Arial" font-size="10.00">C&#45;0287</text>
</g>
<!-- C&#45;0925&#45;&gt;C&#45;0287 -->
<g id="edge33" class="edge">
<title>C&#45;0925&#45;&gt;C&#45;0287</title>
<path fill="none" stroke="#4d4d4d" d="M1025.01,-829C919.96,-829 737,-829 737,-829 737,-829 737,-757.31 737,-757.31"/>
<polygon fill="#4d4d4d" stroke="#4d4d4d" points="739.45,-757.31 737,-750.31 734.55,-757.31 739.45,-757.31"/>
</g>
<!-- R&#45;284&#45;&gt;ext_circ_114_24_ -->
<g id="edge39" class="edge">
<title>R&#45;284&#45;&gt;ext_circ_114_24_</title>
<path fill="none" stroke="darkorange" stroke-dasharray="5,2" d="M1204.71,-122C941.27,-122 48,-122 48,-122 48,-122 48,-1208.97 48,-1208.97"/>
<polygon fill="darkorange" stroke="darkorange" points="45.55,-1208.97 48,-1215.97 50.45,-1208.97 45.55,-1208.97"/>
</g>
<!-- C&#45;0490&#45;&gt;C&#45;0121 -->
<g id="edge22" class="edge">
<title>C&#45;0490&#45;&gt;C&#45;0121</title>
<path fill="none" stroke="#4d4d4d" d="M1164.54,-519C1215.61,-519 1277,-519 1277,-519 1277,-519 1277,-454.19 1277,-454.19"/>
<polygon fill="#4d4d4d" stroke="#4d4d4d" points="1279.45,-454.19 1277,-447.19 1274.55,-454.19 1279.45,-454.19"/>
</g>
<!-- C&#45;0490&#45;&gt;C&#45;0801 -->
<g id="edge30" class="edge">
<title>C&#45;0490&#45;&gt;C&#45;0801</title>
<path fill="none" stroke="#4d4d4d" d="M1024.79,-526C966.11,-526 893,-526 893,-526 893,-526 893,-452.84 893,-452.84"/>
<polygon fill="#4d4d4d" stroke="#4d4d4d" points="895.45,-452.84 893,-445.84 890.55,-452.84 895.45,-452.84"/>
</g>
<!-- C&#45;0490&#45;&gt;C&#45;0800 -->
<g id="edge31" class="edge">
<title>C&#45;0490&#45;&gt;C&#45;0800</title>
<path fill="none" stroke="#4d4d4d" d="M1097,-504.58C1097,-504.58 1097,-454.03 1097,-454.03"/>
<polygon fill="#4d4d4d" stroke="#4d4d4d" points="1099.45,-454.03 1097,-447.03 1094.55,-454.03 1099.45,-454.03"/>
</g>
<!-- ext_circ_111_23_ -->
<g id="node39" class="node">
<title>ext_circ_111_23_</title>
<polygon fill="lightpink" stroke="darkorange" stroke-dasharray="5,2" points="613,-1259 469,-1259 469,-1216 613,-1216 613,-1259"/>
<text text-anchor="middle" x="541" y="-1240.5" font-family="Arial" font-size="10.00">Circuito:</text>
<text text-anchor="middle" x="541" y="-1229.5" font-family="Arial" font-size="10.00">111&#45;23&#45;</text>
</g>
<!-- C&#45;0287&#45;&gt;ext_circ_111_23_ -->
<g id="edge42" class="edge">
<title>C&#45;0287&#45;&gt;ext_circ_111_23_</title>
<path fill="none" stroke="darkorange" stroke-dasharray="5,2" d="M664.99,-728C650.36,-728 639.33,-728 639.33,-728 639.33,-728 639.33,-1237 639.33,-1237 639.33,-1237 620.24,-1237 620.24,-1237"/>
<polygon fill="darkorange" stroke="darkorange" points="620.24,-1234.55 613.24,-1237 620.24,-1239.45 620.24,-1234.55"/>
</g>
</g>
</svg>
