<?xml version="1.0" encoding="UTF-8" standalone="no"?>
<!DOCTYPE svg PUBLIC "-//W3C//DTD SVG 1.1//EN"
 "http://www.w3.org/Graphics/SVG/1.1/DTD/svg11.dtd">
<!-- Generated by graphviz version 2.50.0 (0)
 -->
<!-- Title: Grafo_Circuito_109_28_ Pages: 1 -->
<svg width="1867pt" height="1675pt"
 viewBox="0.00 0.00 1867.00 1675.00" xmlns="http://www.w3.org/2000/svg" xmlns:xlink="http://www.w3.org/1999/xlink">
<g id="graph0" class="graph" transform="scale(1 1) rotate(0) translate(4 1671)">
<title>Grafo_Circuito_109_28_</title>
<polygon fill="white" stroke="transparent" points="-4,4 -4,-1671 1863,-1671 1863,4 -4,4"/>
<!-- C&#45;0956 -->
<g id="node1" class="node">
<title>C&#45;0956</title>
<ellipse fill="mediumseagreen" stroke="black" cx="252" cy="-122.5" rx="72" ry="21.5"/>
<text text-anchor="middle" x="252" y="-120" font-family="Arial" font-size="10.00">C&#45;0956</text>
</g>
<!-- S&#45;199 -->
<g id="node2" class="node">
<title>S&#45;199</title>
<polygon fill="mediumseagreen" stroke="black" points="739,-245 667,-223.5 739,-202 811,-223.5 739,-245"/>
<text text-anchor="middle" x="739" y="-221" font-family="Arial" font-size="10.00">S&#45;199</text>
</g>
<!-- S&#45;2191 -->
<g id="node3" class="node">
<title>S&#45;2191</title>
<polygon fill="mediumseagreen" stroke="black" points="506,-1053 434,-1031.5 506,-1010 578,-1031.5 506,-1053"/>
<text text-anchor="middle" x="506" y="-1029" font-family="Arial" font-size="10.00">S&#45;2191</text>
</g>
<!-- S&#45;2591 -->
<g id="node4" class="node">
<title>S&#45;2591</title>
<polygon fill="mediumseagreen" stroke="black" points="1433,-144 1361,-122.5 1433,-101 1505,-122.5 1433,-144"/>
<text text-anchor="middle" x="1433" y="-120" font-family="Arial" font-size="10.00">S&#45;2591</text>
</g>
<!-- S&#45;2562 -->
<g id="node5" class="node">
<title>S&#45;2562</title>
<polygon fill="mediumseagreen" stroke="black" points="872,-1558 800,-1536.5 872,-1515 944,-1536.5 872,-1558"/>
<text text-anchor="middle" x="872" y="-1534" font-family="Arial" font-size="10.00">S&#45;2562</text>
</g>
<!-- S&#45;2592 -->
<g id="node6" class="node">
<title>S&#45;2592</title>
<polygon fill="mediumseagreen" stroke="black" points="1253,-144 1181,-122.5 1253,-101 1325,-122.5 1253,-144"/>
<text text-anchor="middle" x="1253" y="-120" font-family="Arial" font-size="10.00">S&#45;2592</text>
</g>
<!-- S&#45;197 -->
<g id="node7" class="node">
<title>S&#45;197</title>
<polygon fill="mediumseagreen" stroke="black" points="432,-144 360,-122.5 432,-101 504,-122.5 432,-144"/>
<text text-anchor="middle" x="432" y="-120" font-family="Arial" font-size="10.00">S&#45;197</text>
</g>
<!-- C&#45;0620 -->
<g id="node8" class="node">
<title>C&#45;0620</title>
<ellipse fill="mediumseagreen" stroke="black" cx="938" cy="-526.5" rx="72" ry="21.5"/>
<text text-anchor="middle" x="938" y="-524" font-family="Arial" font-size="10.00">C&#45;0620</text>
</g>
<!-- R&#45;118 -->
<g id="node41" class="node">
<title>R&#45;118</title>
<polygon fill="mediumseagreen" stroke="black" points="991,-416.59 991,-434.41 948.82,-447 889.18,-447 847,-434.41 847,-416.59 889.18,-404 948.82,-404 991,-416.59"/>
<text text-anchor="middle" x="919" y="-423" font-family="Arial" font-size="10.00">R&#45;118</text>
</g>
<!-- C&#45;0620&#45;&gt;R&#45;118 -->
<g id="edge10" class="edge">
<title>C&#45;0620&#45;&gt;R&#45;118</title>
<path fill="none" stroke="#4d4d4d" d="M928.5,-505.08C928.5,-505.08 928.5,-454.24 928.5,-454.24"/>
<polygon fill="#4d4d4d" stroke="#4d4d4d" points="930.95,-454.24 928.5,-447.24 926.05,-454.24 930.95,-454.24"/>
</g>
<!-- S&#45;2519 -->
<g id="node9" class="node">
<title>S&#45;2519</title>
<polygon fill="mediumseagreen" stroke="black" points="1052,-1558 980,-1536.5 1052,-1515 1124,-1536.5 1052,-1558"/>
<text text-anchor="middle" x="1052" y="-1534" font-family="Arial" font-size="10.00">S&#45;2519</text>
</g>
<!-- SW&#45;002_D -->
<g id="node10" class="node">
<title>SW&#45;002_D</title>
<polygon fill="mediumseagreen" stroke="black" points="763.79,-1558 644.81,-1558 614.21,-1515 733.19,-1515 763.79,-1558"/>
<text text-anchor="middle" x="689" y="-1534" font-family="Arial" font-size="10.00">SW&#45;002_D</text>
</g>
<!-- SW&#45;002_C -->
<g id="node40" class="node">
<title>SW&#45;002_C</title>
<polygon fill="mediumseagreen" stroke="black" points="763.79,-1457 644.81,-1457 614.21,-1414 733.19,-1414 763.79,-1457"/>
<text text-anchor="middle" x="689" y="-1433" font-family="Arial" font-size="10.00">SW&#45;002_C</text>
</g>
<!-- SW&#45;002_D&#45;&gt;SW&#45;002_C -->
<g id="edge37" class="edge">
<title>SW&#45;002_D&#45;&gt;SW&#45;002_C</title>
<path fill="none" stroke="#4d4d4d" d="M689,-1514.58C689,-1514.58 689,-1464.03 689,-1464.03"/>
<polygon fill="#4d4d4d" stroke="#4d4d4d" points="691.45,-1464.03 689,-1457.03 686.55,-1464.03 691.45,-1464.03"/>
</g>
<!-- SW&#45;002_A -->
<g id="node44" class="node">
<title>SW&#45;002_A</title>
<polygon fill="tomato" stroke="black" points="453.79,-1255 334.81,-1255 304.21,-1212 423.19,-1212 453.79,-1255"/>
<text text-anchor="middle" x="379" y="-1231" font-family="Arial" font-size="10.00">SW&#45;002_A</text>
</g>
<!-- SW&#45;002_D&#45;&gt;SW&#45;002_A -->
<g id="edge38" class="edge">
<title>SW&#45;002_D&#45;&gt;SW&#45;002_A</title>
<path fill="none" stroke="#4d4d4d" d="M628.84,-1536C536.2,-1536 369.18,-1536 369.18,-1536 369.18,-1536 369.18,-1262.26 369.18,-1262.26"/>
<polygon fill="#4d4d4d" stroke="#4d4d4d" points="371.63,-1262.26 369.18,-1255.26 366.73,-1262.26 371.63,-1262.26"/>
</g>
<!-- SW&#45;002_B -->
<g id="node45" class="node">
<title>SW&#45;002_B</title>
<polygon fill="tomato" stroke="black" points="1037.79,-1457 918.81,-1457 888.21,-1414 1007.19,-1414 1037.79,-1457"/>
<text text-anchor="middle" x="963" y="-1433" font-family="Arial" font-size="10.00">SW&#45;002_B</text>
</g>
<!-- SW&#45;002_D&#45;&gt;SW&#45;002_B -->
<g id="edge36" class="edge">
<title>SW&#45;002_D&#45;&gt;SW&#45;002_B</title>
<path fill="none" stroke="#4d4d4d" d="M748.38,-1536C772.25,-1536 794.24,-1536 794.24,-1536 794.24,-1536 794.24,-1442 794.24,-1442 794.24,-1442 900.74,-1442 900.74,-1442"/>
<polygon fill="#4d4d4d" stroke="#4d4d4d" points="900.74,-1444.45 907.74,-1442 900.74,-1439.55 900.74,-1444.45"/>
</g>
<!-- 109&#45;28&#45; -->
<g id="node11" class="node">
<title>109&#45;28&#45;</title>
<polygon fill="gold" stroke="black" points="1034,-1632.59 1034,-1650.41 991.82,-1663 932.18,-1663 890,-1650.41 890,-1632.59 932.18,-1620 991.82,-1620 1034,-1632.59"/>
<polygon fill="none" stroke="black" points="1038,-1629.61 1038,-1653.39 992.41,-1667 931.59,-1667 886,-1653.39 886,-1629.61 931.59,-1616 992.41,-1616 1038,-1629.61"/>
<text text-anchor="middle" x="962" y="-1639" font-family="Arial" font-size="10.00">109&#45;28&#45;</text>
</g>
<!-- 109&#45;28&#45;&#45;&gt;S&#45;2562 -->
<g id="edge2" class="edge">
<title>109&#45;28&#45;&#45;&gt;S&#45;2562</title>
<path fill="none" stroke="#4d4d4d" d="M915,-1620.76C915,-1620.76 915,-1552.36 915,-1552.36"/>
<polygon fill="#4d4d4d" stroke="#4d4d4d" points="917.45,-1552.36 915,-1545.36 912.55,-1552.36 917.45,-1552.36"/>
</g>
<!-- 109&#45;28&#45;&#45;&gt;S&#45;2519 -->
<g id="edge33" class="edge">
<title>109&#45;28&#45;&#45;&gt;S&#45;2519</title>
<path fill="none" stroke="#4d4d4d" d="M1009,-1620.76C1009,-1620.76 1009,-1552.36 1009,-1552.36"/>
<polygon fill="#4d4d4d" stroke="#4d4d4d" points="1011.45,-1552.36 1009,-1545.36 1006.55,-1552.36 1011.45,-1552.36"/>
</g>
<!-- 109&#45;28&#45;&#45;&gt;SW&#45;002_D -->
<g id="edge35" class="edge">
<title>109&#45;28&#45;&#45;&gt;SW&#45;002_D</title>
<path fill="none" stroke="#4d4d4d" d="M885.95,-1641C805.18,-1641 689,-1641 689,-1641 689,-1641 689,-1565.15 689,-1565.15"/>
<polygon fill="#4d4d4d" stroke="#4d4d4d" points="691.45,-1565.15 689,-1558.15 686.55,-1565.15 691.45,-1565.15"/>
</g>
<!-- S&#45;2521 -->
<g id="node23" class="node">
<title>S&#45;2521</title>
<polygon fill="mediumseagreen" stroke="black" points="1232,-1558 1160,-1536.5 1232,-1515 1304,-1536.5 1232,-1558"/>
<text text-anchor="middle" x="1232" y="-1534" font-family="Arial" font-size="10.00">S&#45;2521</text>
</g>
<!-- 109&#45;28&#45;&#45;&gt;S&#45;2521 -->
<g id="edge34" class="edge">
<title>109&#45;28&#45;&#45;&gt;S&#45;2521</title>
<path fill="none" stroke="#4d4d4d" d="M1038.29,-1641C1118.13,-1641 1232,-1641 1232,-1641 1232,-1641 1232,-1565.15 1232,-1565.15"/>
<polygon fill="#4d4d4d" stroke="#4d4d4d" points="1234.45,-1565.15 1232,-1558.15 1229.55,-1565.15 1234.45,-1565.15"/>
</g>
<!-- R&#45;301 -->
<g id="node12" class="node">
<title>R&#45;301</title>
<polygon fill="tomato" stroke="black" points="1605,-416.59 1605,-434.41 1562.82,-447 1503.18,-447 1461,-434.41 1461,-416.59 1503.18,-404 1562.82,-404 1605,-416.59"/>
<text text-anchor="middle" x="1533" y="-423" font-family="Arial" font-size="10.00">R&#45;301</text>
</g>
<!-- ext_circ_110_26_ -->
<g id="node53" class="node">
<title>ext_circ_110_26_</title>
<polygon fill="lightpink" stroke="darkorange" stroke-dasharray="5,2" points="1695,-346 1551,-346 1551,-303 1695,-303 1695,-346"/>
<text text-anchor="middle" x="1623" y="-327.5" font-family="Arial" font-size="10.00">Circuito:</text>
<text text-anchor="middle" x="1623" y="-316.5" font-family="Arial" font-size="10.00">110&#45;26&#45;</text>
</g>
<!-- R&#45;301&#45;&gt;ext_circ_110_26_ -->
<g id="edge52" class="edge">
<title>R&#45;301&#45;&gt;ext_circ_110_26_</title>
<path fill="none" stroke="darkorange" stroke-dasharray="5,2" d="M1578,-408.37C1578,-408.37 1578,-353.31 1578,-353.31"/>
<polygon fill="darkorange" stroke="darkorange" points="1580.45,-353.31 1578,-346.31 1575.55,-353.31 1580.45,-353.31"/>
</g>
<!-- C&#45;0796 -->
<g id="node13" class="node">
<title>C&#45;0796</title>
<ellipse fill="mediumseagreen" stroke="black" cx="919" cy="-223.5" rx="72" ry="21.5"/>
<text text-anchor="middle" x="919" y="-221" font-family="Arial" font-size="10.00">C&#45;0796</text>
</g>
<!-- R&#45;177 -->
<g id="node15" class="node">
<title>R&#45;177</title>
<polygon fill="tomato" stroke="black" points="1044,-113.59 1044,-131.41 1001.82,-144 942.18,-144 900,-131.41 900,-113.59 942.18,-101 1001.82,-101 1044,-113.59"/>
<text text-anchor="middle" x="972" y="-120" font-family="Arial" font-size="10.00">R&#45;177</text>
</g>
<!-- C&#45;0796&#45;&gt;R&#45;177 -->
<g id="edge23" class="edge">
<title>C&#45;0796&#45;&gt;R&#45;177</title>
<path fill="none" stroke="#4d4d4d" d="M945.5,-203.06C945.5,-203.06 945.5,-151.31 945.5,-151.31"/>
<polygon fill="#4d4d4d" stroke="#4d4d4d" points="947.95,-151.31 945.5,-144.31 943.05,-151.31 947.95,-151.31"/>
</g>
<!-- C&#45;1218 -->
<g id="node14" class="node">
<title>C&#45;1218</title>
<ellipse fill="mediumseagreen" stroke="black" cx="1533" cy="-526.5" rx="72" ry="21.5"/>
<text text-anchor="middle" x="1533" y="-524" font-family="Arial" font-size="10.00">C&#45;1218</text>
</g>
<!-- C&#45;1218&#45;&gt;R&#45;301 -->
<g id="edge5" class="edge">
<title>C&#45;1218&#45;&gt;R&#45;301</title>
<path fill="none" stroke="#4d4d4d" d="M1533,-504.58C1533,-504.58 1533,-454.03 1533,-454.03"/>
<polygon fill="#4d4d4d" stroke="#4d4d4d" points="1535.45,-454.03 1533,-447.03 1530.55,-454.03 1535.45,-454.03"/>
</g>
<!-- ext_circ_111_23_ -->
<g id="node55" class="node">
<title>ext_circ_111_23_</title>
<polygon fill="lightpink" stroke="darkorange" stroke-dasharray="5,2" points="1107,-43 963,-43 963,0 1107,0 1107,-43"/>
<text text-anchor="middle" x="1035" y="-24.5" font-family="Arial" font-size="10.00">Circuito:</text>
<text text-anchor="middle" x="1035" y="-13.5" font-family="Arial" font-size="10.00">111&#45;23&#45;</text>
</g>
<!-- R&#45;177&#45;&gt;ext_circ_111_23_ -->
<g id="edge56" class="edge">
<title>R&#45;177&#45;&gt;ext_circ_111_23_</title>
<path fill="none" stroke="darkorange" stroke-dasharray="5,2" d="M1003.5,-101.08C1003.5,-101.08 1003.5,-50.24 1003.5,-50.24"/>
<polygon fill="darkorange" stroke="darkorange" points="1005.95,-50.24 1003.5,-43.24 1001.05,-50.24 1005.95,-50.24"/>
</g>
<!-- S&#45;198 -->
<g id="node16" class="node">
<title>S&#45;198</title>
<polygon fill="mediumseagreen" stroke="black" points="612,-144 540,-122.5 612,-101 684,-122.5 612,-144"/>
<text text-anchor="middle" x="612" y="-120" font-family="Arial" font-size="10.00">S&#45;198</text>
</g>
<!-- C&#45;0041 -->
<g id="node17" class="node">
<title>C&#45;0041</title>
<ellipse fill="tomato" stroke="black" cx="792" cy="-122.5" rx="72" ry="21.5"/>
<text text-anchor="middle" x="792" y="-120" font-family="Arial" font-size="10.00">C&#45;0041</text>
</g>
<!-- ext_circ_114_24_ -->
<g id="node54" class="node">
<title>ext_circ_114_24_</title>
<polygon fill="lightpink" stroke="darkorange" stroke-dasharray="5,2" points="864,-43 720,-43 720,0 864,0 864,-43"/>
<text text-anchor="middle" x="792" y="-24.5" font-family="Arial" font-size="10.00">Circuito:</text>
<text text-anchor="middle" x="792" y="-13.5" font-family="Arial" font-size="10.00">114&#45;24&#45;</text>
</g>
<!-- C&#45;0041&#45;&gt;ext_circ_114_24_ -->
<g id="edge54" class="edge">
<title>C&#45;0041&#45;&gt;ext_circ_114_24_</title>
<path fill="none" stroke="darkorange" stroke-dasharray="5,2" d="M792,-100.58C792,-100.58 792,-50.03 792,-50.03"/>
<polygon fill="darkorange" stroke="darkorange" points="794.45,-50.03 792,-43.03 789.55,-50.03 794.45,-50.03"/>
</g>
<!-- S&#45;2481 -->
<g id="node18" class="node">
<title>S&#45;2481</title>
<polygon fill="mediumseagreen" stroke="black" points="506,-1154 434,-1132.5 506,-1111 578,-1132.5 506,-1154"/>
<text text-anchor="middle" x="506" y="-1130" font-family="Arial" font-size="10.00">S&#45;2481</text>
</g>
<!-- S&#45;2481&#45;&gt;S&#45;2191 -->
<g id="edge1" class="edge">
<title>S&#45;2481&#45;&gt;S&#45;2191</title>
<path fill="none" stroke="#4d4d4d" d="M506,-1110.58C506,-1110.58 506,-1060.03 506,-1060.03"/>
<polygon fill="#4d4d4d" stroke="#4d4d4d" points="508.45,-1060.03 506,-1053.03 503.55,-1060.03 508.45,-1060.03"/>
</g>
<!-- C&#45;0694 -->
<g id="node19" class="node">
<title>C&#45;0694</title>
<ellipse fill="mediumseagreen" stroke="black" cx="1226" cy="-627.5" rx="72" ry="21.5"/>
<text text-anchor="middle" x="1226" y="-625" font-family="Arial" font-size="10.00">C&#45;0694</text>
</g>
<!-- C&#45;0694&#45;&gt;C&#45;0620 -->
<g id="edge9" class="edge">
<title>C&#45;0694&#45;&gt;C&#45;0620</title>
<path fill="none" stroke="#4d4d4d" d="M1153.88,-627C1085.13,-627 992,-627 992,-627 992,-627 992,-547.9 992,-547.9"/>
<polygon fill="#4d4d4d" stroke="#4d4d4d" points="994.45,-547.9 992,-540.9 989.55,-547.9 994.45,-547.9"/>
</g>
<!-- C&#45;0618 -->
<g id="node24" class="node">
<title>C&#45;0618</title>
<ellipse fill="tomato" stroke="black" cx="1136" cy="-526.5" rx="72" ry="21.5"/>
<text text-anchor="middle" x="1136" y="-524" font-family="Arial" font-size="10.00">C&#45;0618</text>
</g>
<!-- C&#45;0694&#45;&gt;C&#45;0618 -->
<g id="edge8" class="edge">
<title>C&#45;0694&#45;&gt;C&#45;0618</title>
<path fill="none" stroke="#4d4d4d" d="M1181,-610.37C1181,-610.37 1181,-550.38 1181,-550.38"/>
<polygon fill="#4d4d4d" stroke="#4d4d4d" points="1183.45,-550.38 1181,-543.38 1178.55,-550.38 1183.45,-550.38"/>
</g>
<!-- S&#45;228 -->
<g id="node42" class="node">
<title>S&#45;228</title>
<polygon fill="mediumseagreen" stroke="black" points="1316,-548 1244,-526.5 1316,-505 1388,-526.5 1316,-548"/>
<text text-anchor="middle" x="1316" y="-524" font-family="Arial" font-size="10.00">S&#45;228</text>
</g>
<!-- C&#45;0694&#45;&gt;S&#45;228 -->
<g id="edge29" class="edge">
<title>C&#45;0694&#45;&gt;S&#45;228</title>
<path fill="none" stroke="#4d4d4d" d="M1271,-610.37C1271,-610.37 1271,-541.78 1271,-541.78"/>
<polygon fill="#4d4d4d" stroke="#4d4d4d" points="1273.45,-541.78 1271,-534.78 1268.55,-541.78 1273.45,-541.78"/>
</g>
<!-- C&#45;1167 -->
<g id="node20" class="node">
<title>C&#45;1167</title>
<ellipse fill="mediumseagreen" stroke="black" cx="686" cy="-1132.5" rx="72" ry="21.5"/>
<text text-anchor="middle" x="686" y="-1130" font-family="Arial" font-size="10.00">C&#45;1167</text>
</g>
<!-- C&#45;0247 -->
<g id="node43" class="node">
<title>C&#45;0247</title>
<ellipse fill="tomato" stroke="black" cx="686" cy="-1031.5" rx="72" ry="21.5"/>
<text text-anchor="middle" x="686" y="-1029" font-family="Arial" font-size="10.00">C&#45;0247</text>
</g>
<!-- C&#45;1167&#45;&gt;C&#45;0247 -->
<g id="edge47" class="edge">
<title>C&#45;1167&#45;&gt;C&#45;0247</title>
<path fill="none" stroke="#4d4d4d" d="M686,-1110.58C686,-1110.58 686,-1060.03 686,-1060.03"/>
<polygon fill="#4d4d4d" stroke="#4d4d4d" points="688.45,-1060.03 686,-1053.03 683.55,-1060.03 688.45,-1060.03"/>
</g>
<!-- S&#45;2489 -->
<g id="node21" class="node">
<title>S&#45;2489</title>
<polygon fill="mediumseagreen" stroke="black" points="1046,-1053 974,-1031.5 1046,-1010 1118,-1031.5 1046,-1053"/>
<text text-anchor="middle" x="1046" y="-1029" font-family="Arial" font-size="10.00">S&#45;2489</text>
</g>
<!-- C&#45;1149 -->
<g id="node22" class="node">
<title>C&#45;1149</title>
<ellipse fill="mediumseagreen" stroke="black" cx="1316" cy="-930.5" rx="72" ry="21.5"/>
<text text-anchor="middle" x="1316" y="-928" font-family="Arial" font-size="10.00">C&#45;1149</text>
</g>
<!-- R&#45;069 -->
<g id="node35" class="node">
<title>R&#45;069</title>
<polygon fill="mediumseagreen" stroke="black" points="1388,-820.59 1388,-838.41 1345.82,-851 1286.18,-851 1244,-838.41 1244,-820.59 1286.18,-808 1345.82,-808 1388,-820.59"/>
<text text-anchor="middle" x="1316" y="-827" font-family="Arial" font-size="10.00">R&#45;069</text>
</g>
<!-- C&#45;1149&#45;&gt;R&#45;069 -->
<g id="edge41" class="edge">
<title>C&#45;1149&#45;&gt;R&#45;069</title>
<path fill="none" stroke="#4d4d4d" d="M1316,-908.58C1316,-908.58 1316,-858.03 1316,-858.03"/>
<polygon fill="#4d4d4d" stroke="#4d4d4d" points="1318.45,-858.03 1316,-851.03 1313.55,-858.03 1318.45,-858.03"/>
</g>
<!-- S&#45;200 -->
<g id="node27" class="node">
<title>S&#45;200</title>
<polygon fill="mediumseagreen" stroke="black" points="1279,-245 1207,-223.5 1279,-202 1351,-223.5 1279,-245"/>
<text text-anchor="middle" x="1279" y="-221" font-family="Arial" font-size="10.00">S&#45;200</text>
</g>
<!-- C&#45;0618&#45;&gt;S&#45;200 -->
<g id="edge53" class="edge">
<title>C&#45;0618&#45;&gt;S&#45;200</title>
<path fill="none" stroke="blue" stroke-dasharray="5,2" d="M1154.5,-505.67C1154.5,-491.76 1154.5,-476 1154.5,-476 1154.5,-476 1257,-476 1257,-476 1257,-476 1257,-245.54 1257,-245.54"/>
<polygon fill="blue" stroke="blue" points="1259.45,-245.54 1257,-238.54 1254.55,-245.54 1259.45,-245.54"/>
</g>
<!-- S&#45;230 -->
<g id="node25" class="node">
<title>S&#45;230</title>
<polygon fill="mediumseagreen" stroke="black" points="1173,-447 1101,-425.5 1173,-404 1245,-425.5 1173,-447"/>
<text text-anchor="middle" x="1173" y="-423" font-family="Arial" font-size="10.00">S&#45;230</text>
</g>
<!-- S&#45;196 -->
<g id="node26" class="node">
<title>S&#45;196</title>
<polygon fill="mediumseagreen" stroke="black" points="72,-144 0,-122.5 72,-101 144,-122.5 72,-144"/>
<text text-anchor="middle" x="72" y="-120" font-family="Arial" font-size="10.00">S&#45;196</text>
</g>
<!-- S&#45;200&#45;&gt;S&#45;2591 -->
<g id="edge13" class="edge">
<title>S&#45;200&#45;&gt;S&#45;2591</title>
<path fill="none" stroke="#4d4d4d" d="M1338,-219.14C1338,-199.71 1338,-122 1338,-122 1338,-122 1355.46,-122 1355.46,-122"/>
<polygon fill="#4d4d4d" stroke="#4d4d4d" points="1355.46,-124.45 1362.46,-122 1355.46,-119.55 1355.46,-124.45"/>
</g>
<!-- S&#45;200&#45;&gt;S&#45;2592 -->
<g id="edge14" class="edge">
<title>S&#45;200&#45;&gt;S&#45;2592</title>
<path fill="none" stroke="#4d4d4d" d="M1266,-205.44C1266,-205.44 1266,-147.4 1266,-147.4"/>
<polygon fill="#4d4d4d" stroke="#4d4d4d" points="1268.45,-147.4 1266,-140.4 1263.55,-147.4 1268.45,-147.4"/>
</g>
<!-- C&#45;0154 -->
<g id="node28" class="node">
<title>C&#45;0154</title>
<ellipse fill="mediumseagreen" stroke="black" cx="1226" cy="-1031.5" rx="72" ry="21.5"/>
<text text-anchor="middle" x="1226" y="-1029" font-family="Arial" font-size="10.00">C&#45;0154</text>
</g>
<!-- C&#45;0154&#45;&gt;C&#45;1149 -->
<g id="edge51" class="edge">
<title>C&#45;0154&#45;&gt;C&#45;1149</title>
<path fill="none" stroke="#4d4d4d" d="M1271,-1014.37C1271,-1014.37 1271,-954.38 1271,-954.38"/>
<polygon fill="#4d4d4d" stroke="#4d4d4d" points="1273.45,-954.38 1271,-947.38 1268.55,-954.38 1273.45,-954.38"/>
</g>
<!-- C&#45;0453 -->
<g id="node47" class="node">
<title>C&#45;0453</title>
<ellipse fill="tomato" stroke="black" cx="1136" cy="-930.5" rx="72" ry="21.5"/>
<text text-anchor="middle" x="1136" y="-928" font-family="Arial" font-size="10.00">C&#45;0453</text>
</g>
<!-- C&#45;0154&#45;&gt;C&#45;0453 -->
<g id="edge50" class="edge">
<title>C&#45;0154&#45;&gt;C&#45;0453</title>
<path fill="none" stroke="#4d4d4d" d="M1181,-1014.37C1181,-1014.37 1181,-954.38 1181,-954.38"/>
<polygon fill="#4d4d4d" stroke="#4d4d4d" points="1183.45,-954.38 1181,-947.38 1178.55,-954.38 1183.45,-954.38"/>
</g>
<!-- S&#45;2482 -->
<g id="node29" class="node">
<title>S&#45;2482</title>
<polygon fill="mediumseagreen" stroke="black" points="866,-1154 794,-1132.5 866,-1111 938,-1132.5 866,-1154"/>
<text text-anchor="middle" x="866" y="-1130" font-family="Arial" font-size="10.00">S&#45;2482</text>
</g>
<!-- C&#45;1220 -->
<g id="node30" class="node">
<title>C&#45;1220</title>
<ellipse fill="tomato" stroke="black" cx="1713" cy="-425.5" rx="72" ry="21.5"/>
<text text-anchor="middle" x="1713" y="-423" font-family="Arial" font-size="10.00">C&#45;1220</text>
</g>
<!-- C&#45;1220&#45;&gt;ext_circ_110_26_ -->
<g id="edge57" class="edge">
<title>C&#45;1220&#45;&gt;ext_circ_110_26_</title>
<path fill="none" stroke="darkorange" stroke-dasharray="5,2" d="M1668,-408.37C1668,-408.37 1668,-353.31 1668,-353.31"/>
<polygon fill="darkorange" stroke="darkorange" points="1670.45,-353.31 1668,-346.31 1665.55,-353.31 1670.45,-353.31"/>
</g>
<!-- S&#45;2488 -->
<g id="node31" class="node">
<title>S&#45;2488</title>
<polygon fill="mediumseagreen" stroke="black" points="872,-1356 800,-1334.5 872,-1313 944,-1334.5 872,-1356"/>
<text text-anchor="middle" x="872" y="-1332" font-family="Arial" font-size="10.00">S&#45;2488</text>
</g>
<!-- SW&#45;001_A -->
<g id="node32" class="node">
<title>SW&#45;001_A</title>
<polygon fill="mediumseagreen" stroke="black" points="940.79,-1255 821.81,-1255 791.21,-1212 910.19,-1212 940.79,-1255"/>
<text text-anchor="middle" x="866" y="-1231" font-family="Arial" font-size="10.00">SW&#45;001_A</text>
</g>
<!-- SW&#45;001_A&#45;&gt;S&#45;2481 -->
<g id="edge4" class="edge">
<title>SW&#45;001_A&#45;&gt;S&#45;2481</title>
<path fill="none" stroke="#4d4d4d" d="M842,-1211.79C842,-1198.1 842,-1183 842,-1183 842,-1183 515.82,-1183 515.82,-1183 515.82,-1183 515.82,-1158.3 515.82,-1158.3"/>
<polygon fill="#4d4d4d" stroke="#4d4d4d" points="518.27,-1158.3 515.82,-1151.3 513.37,-1158.3 518.27,-1158.3"/>
</g>
<!-- SW&#45;001_A&#45;&gt;C&#45;1167 -->
<g id="edge46" class="edge">
<title>SW&#45;001_A&#45;&gt;C&#45;1167</title>
<path fill="none" stroke="#4d4d4d" d="M805.99,-1233C790.21,-1233 777.5,-1233 777.5,-1233 777.5,-1233 777.5,-1132 777.5,-1132 777.5,-1132 765.1,-1132 765.1,-1132"/>
<polygon fill="#4d4d4d" stroke="#4d4d4d" points="765.1,-1129.55 758.1,-1132 765.1,-1134.45 765.1,-1129.55"/>
</g>
<!-- SW&#45;001_A&#45;&gt;S&#45;2482 -->
<g id="edge45" class="edge">
<title>SW&#45;001_A&#45;&gt;S&#45;2482</title>
<path fill="none" stroke="#4d4d4d" d="M890,-1211.58C890,-1211.58 890,-1153.9 890,-1153.9"/>
<polygon fill="#4d4d4d" stroke="#4d4d4d" points="892.45,-1153.9 890,-1146.9 887.55,-1153.9 892.45,-1153.9"/>
</g>
<!-- S&#45;2480 -->
<g id="node38" class="node">
<title>S&#45;2480</title>
<polygon fill="mediumseagreen" stroke="black" points="1046,-1154 974,-1132.5 1046,-1111 1118,-1132.5 1046,-1154"/>
<text text-anchor="middle" x="1046" y="-1130" font-family="Arial" font-size="10.00">S&#45;2480</text>
</g>
<!-- SW&#45;001_A&#45;&gt;S&#45;2480 -->
<g id="edge43" class="edge">
<title>SW&#45;001_A&#45;&gt;S&#45;2480</title>
<path fill="none" stroke="#4d4d4d" d="M920.41,-1226C974.35,-1226 1049,-1226 1049,-1226 1049,-1226 1049,-1160.25 1049,-1160.25"/>
<polygon fill="#4d4d4d" stroke="#4d4d4d" points="1051.45,-1160.25 1049,-1153.25 1046.55,-1160.25 1051.45,-1160.25"/>
</g>
<!-- C&#45;1113 -->
<g id="node46" class="node">
<title>C&#45;1113</title>
<ellipse fill="mediumseagreen" stroke="black" cx="1226" cy="-1132.5" rx="72" ry="21.5"/>
<text text-anchor="middle" x="1226" y="-1130" font-family="Arial" font-size="10.00">C&#45;1113</text>
</g>
<!-- SW&#45;001_A&#45;&gt;C&#45;1113 -->
<g id="edge48" class="edge">
<title>SW&#45;001_A&#45;&gt;C&#45;1113</title>
<path fill="none" stroke="#4d4d4d" d="M930.48,-1240C1034.79,-1240 1229,-1240 1229,-1240 1229,-1240 1229,-1161 1229,-1161"/>
<polygon fill="#4d4d4d" stroke="#4d4d4d" points="1231.45,-1161 1229,-1154 1226.55,-1161 1231.45,-1161"/>
</g>
<!-- S&#45;2487 -->
<g id="node33" class="node">
<title>S&#45;2487</title>
<polygon fill="mediumseagreen" stroke="black" points="506,-1356 434,-1334.5 506,-1313 578,-1334.5 506,-1356"/>
<text text-anchor="middle" x="506" y="-1332" font-family="Arial" font-size="10.00">S&#45;2487</text>
</g>
<!-- C&#45;0798 -->
<g id="node34" class="node">
<title>C&#45;0798</title>
<ellipse fill="tomato" stroke="black" cx="1099" cy="-223.5" rx="72" ry="21.5"/>
<text text-anchor="middle" x="1099" y="-221" font-family="Arial" font-size="10.00">C&#45;0798</text>
</g>
<!-- C&#45;0798&#45;&gt;ext_circ_111_23_ -->
<g id="edge55" class="edge">
<title>C&#45;0798&#45;&gt;ext_circ_111_23_</title>
<path fill="none" stroke="darkorange" stroke-dasharray="5,2" d="M1075.5,-203.02C1075.5,-203.02 1075.5,-50.25 1075.5,-50.25"/>
<polygon fill="darkorange" stroke="darkorange" points="1077.95,-50.25 1075.5,-43.25 1073.05,-50.25 1077.95,-50.25"/>
</g>
<!-- C&#45;1150 -->
<g id="node50" class="node">
<title>C&#45;1150</title>
<ellipse fill="mediumseagreen" stroke="black" cx="1316" cy="-728.5" rx="72" ry="21.5"/>
<text text-anchor="middle" x="1316" y="-726" font-family="Arial" font-size="10.00">C&#45;1150</text>
</g>
<!-- R&#45;069&#45;&gt;C&#45;1150 -->
<g id="edge31" class="edge">
<title>R&#45;069&#45;&gt;C&#45;1150</title>
<path fill="none" stroke="#4d4d4d" d="M1316,-807.58C1316,-807.58 1316,-757.03 1316,-757.03"/>
<polygon fill="#4d4d4d" stroke="#4d4d4d" points="1318.45,-757.03 1316,-750.03 1313.55,-757.03 1318.45,-757.03"/>
</g>
<!-- S&#45;229 -->
<g id="node36" class="node">
<title>S&#45;229</title>
<polygon fill="mediumseagreen" stroke="black" points="1353,-447 1281,-425.5 1353,-404 1425,-425.5 1353,-447"/>
<text text-anchor="middle" x="1353" y="-423" font-family="Arial" font-size="10.00">S&#45;229</text>
</g>
<!-- S&#45;1087 -->
<g id="node37" class="node">
<title>S&#45;1087</title>
<polygon fill="mediumseagreen" stroke="black" points="496,-245 424,-223.5 496,-202 568,-223.5 496,-245"/>
<text text-anchor="middle" x="496" y="-221" font-family="Arial" font-size="10.00">S&#45;1087</text>
</g>
<!-- S&#45;1087&#45;&gt;C&#45;0956 -->
<g id="edge19" class="edge">
<title>S&#45;1087&#45;&gt;C&#45;0956</title>
<path fill="none" stroke="#4d4d4d" d="M448.7,-216C394.83,-216 314.18,-216 314.18,-216 314.18,-216 314.18,-140.59 314.18,-140.59"/>
<polygon fill="#4d4d4d" stroke="#4d4d4d" points="316.63,-140.59 314.18,-133.59 311.73,-140.59 316.63,-140.59"/>
</g>
<!-- S&#45;1087&#45;&gt;S&#45;197 -->
<g id="edge20" class="edge">
<title>S&#45;1087&#45;&gt;S&#45;197</title>
<path fill="none" stroke="#4d4d4d" d="M464,-211.52C464,-211.52 464,-141.47 464,-141.47"/>
<polygon fill="#4d4d4d" stroke="#4d4d4d" points="466.45,-141.47 464,-134.47 461.55,-141.47 466.45,-141.47"/>
</g>
<!-- S&#45;1087&#45;&gt;S&#45;198 -->
<g id="edge16" class="edge">
<title>S&#45;1087&#45;&gt;S&#45;198</title>
<path fill="none" stroke="#4d4d4d" d="M549.33,-217.78C549.33,-217.78 549.33,-132.34 549.33,-132.34"/>
<polygon fill="#4d4d4d" stroke="#4d4d4d" points="551.78,-132.34 549.33,-125.34 546.88,-132.34 551.78,-132.34"/>
</g>
<!-- S&#45;1087&#45;&gt;C&#45;0041 -->
<g id="edge18" class="edge">
<title>S&#45;1087&#45;&gt;C&#45;0041</title>
<path fill="none" stroke="#4d4d4d" d="M558.67,-220.49C558.67,-209.62 558.67,-173 558.67,-173 558.67,-173 765.5,-173 765.5,-173 765.5,-173 765.5,-149.75 765.5,-149.75"/>
<polygon fill="#4d4d4d" stroke="#4d4d4d" points="767.95,-149.75 765.5,-142.75 763.05,-149.75 767.95,-149.75"/>
</g>
<!-- S&#45;1087&#45;&gt;S&#45;196 -->
<g id="edge17" class="edge">
<title>S&#45;1087&#45;&gt;S&#45;196</title>
<path fill="none" stroke="#4d4d4d" d="M445.7,-230C333.38,-230 72,-230 72,-230 72,-230 72,-151.25 72,-151.25"/>
<polygon fill="#4d4d4d" stroke="#4d4d4d" points="74.45,-151.25 72,-144.25 69.55,-151.25 74.45,-151.25"/>
</g>
<!-- S&#45;2480&#45;&gt;S&#45;2489 -->
<g id="edge44" class="edge">
<title>S&#45;2480&#45;&gt;S&#45;2489</title>
<path fill="none" stroke="#4d4d4d" d="M1046,-1110.58C1046,-1110.58 1046,-1060.03 1046,-1060.03"/>
<polygon fill="#4d4d4d" stroke="#4d4d4d" points="1048.45,-1060.03 1046,-1053.03 1043.55,-1060.03 1048.45,-1060.03"/>
</g>
<!-- SW&#45;001_B -->
<g id="node39" class="node">
<title>SW&#45;001_B</title>
<polygon fill="mediumseagreen" stroke="black" points="763.79,-1356 644.81,-1356 614.21,-1313 733.19,-1313 763.79,-1356"/>
<text text-anchor="middle" x="689" y="-1332" font-family="Arial" font-size="10.00">SW&#45;001_B</text>
</g>
<!-- SW&#45;001_B&#45;&gt;SW&#45;001_A -->
<g id="edge42" class="edge">
<title>SW&#45;001_B&#45;&gt;SW&#45;001_A</title>
<path fill="none" stroke="#4d4d4d" d="M748.44,-1334C773.56,-1334 797.12,-1334 797.12,-1334 797.12,-1334 797.12,-1240.57 797.12,-1240.57"/>
<polygon fill="#4d4d4d" stroke="#4d4d4d" points="799.57,-1240.57 797.12,-1233.57 794.67,-1240.57 799.57,-1240.57"/>
</g>
<!-- SW&#45;001_C -->
<g id="node48" class="node">
<title>SW&#45;001_C</title>
<polygon fill="mediumseagreen" stroke="black" points="755.79,-1255 636.81,-1255 606.21,-1212 725.19,-1212 755.79,-1255"/>
<text text-anchor="middle" x="681" y="-1231" font-family="Arial" font-size="10.00">SW&#45;001_C</text>
</g>
<!-- SW&#45;001_B&#45;&gt;SW&#45;001_C -->
<g id="edge40" class="edge">
<title>SW&#45;001_B&#45;&gt;SW&#45;001_C</title>
<path fill="none" stroke="#4d4d4d" d="M685,-1312.58C685,-1312.58 685,-1262.03 685,-1262.03"/>
<polygon fill="#4d4d4d" stroke="#4d4d4d" points="687.45,-1262.03 685,-1255.03 682.55,-1262.03 687.45,-1262.03"/>
</g>
<!-- SW&#45;002_C&#45;&gt;S&#45;2488 -->
<g id="edge39" class="edge">
<title>SW&#45;002_C&#45;&gt;S&#45;2488</title>
<path fill="none" stroke="#4d4d4d" d="M743.27,-1428C788.02,-1428 844.18,-1428 844.18,-1428 844.18,-1428 844.18,-1354.9 844.18,-1354.9"/>
<polygon fill="#4d4d4d" stroke="#4d4d4d" points="846.63,-1354.9 844.18,-1347.9 841.73,-1354.9 846.63,-1354.9"/>
</g>
<!-- SW&#45;002_C&#45;&gt;S&#45;2487 -->
<g id="edge3" class="edge">
<title>SW&#45;002_C&#45;&gt;S&#45;2487</title>
<path fill="none" stroke="#4d4d4d" d="M629.08,-1435C575.71,-1435 506,-1435 506,-1435 506,-1435 506,-1363.31 506,-1363.31"/>
<polygon fill="#4d4d4d" stroke="#4d4d4d" points="508.45,-1363.31 506,-1356.31 503.55,-1363.31 508.45,-1363.31"/>
</g>
<!-- SW&#45;002_C&#45;&gt;SW&#45;001_B -->
<g id="edge32" class="edge">
<title>SW&#45;002_C&#45;&gt;SW&#45;001_B</title>
<path fill="none" stroke="#4d4d4d" d="M689,-1413.58C689,-1413.58 689,-1363.03 689,-1363.03"/>
<polygon fill="#4d4d4d" stroke="#4d4d4d" points="691.45,-1363.03 689,-1356.03 686.55,-1363.03 691.45,-1363.03"/>
</g>
<!-- C&#45;0619 -->
<g id="node52" class="node">
<title>C&#45;0619</title>
<ellipse fill="mediumseagreen" stroke="black" cx="919" cy="-324.5" rx="72" ry="21.5"/>
<text text-anchor="middle" x="919" y="-322" font-family="Arial" font-size="10.00">C&#45;0619</text>
</g>
<!-- R&#45;118&#45;&gt;C&#45;0619 -->
<g id="edge11" class="edge">
<title>R&#45;118&#45;&gt;C&#45;0619</title>
<path fill="none" stroke="#4d4d4d" d="M919,-403.58C919,-403.58 919,-353.03 919,-353.03"/>
<polygon fill="#4d4d4d" stroke="#4d4d4d" points="921.45,-353.03 919,-346.03 916.55,-353.03 921.45,-353.03"/>
</g>
<!-- S&#45;228&#45;&gt;S&#45;230 -->
<g id="edge6" class="edge">
<title>S&#45;228&#45;&gt;S&#45;230</title>
<path fill="none" stroke="#4d4d4d" d="M1269,-518.87C1269,-495.27 1269,-425 1269,-425 1269,-425 1250.53,-425 1250.53,-425"/>
<polygon fill="#4d4d4d" stroke="#4d4d4d" points="1250.53,-422.55 1243.53,-425 1250.53,-427.45 1250.53,-422.55"/>
</g>
<!-- S&#45;228&#45;&gt;S&#45;229 -->
<g id="edge7" class="edge">
<title>S&#45;228&#45;&gt;S&#45;229</title>
<path fill="none" stroke="#4d4d4d" d="M1334.5,-510.27C1334.5,-510.27 1334.5,-448.69 1334.5,-448.69"/>
<polygon fill="#4d4d4d" stroke="#4d4d4d" points="1336.95,-448.69 1334.5,-441.69 1332.05,-448.69 1336.95,-448.69"/>
</g>
<!-- ext_circ_109_23_ -->
<g id="node57" class="node">
<title>ext_circ_109_23_</title>
<polygon fill="lightpink" stroke="darkorange" stroke-dasharray="5,2" points="605,-952 461,-952 461,-909 605,-909 605,-952"/>
<text text-anchor="middle" x="533" y="-933.5" font-family="Arial" font-size="10.00">Circuito:</text>
<text text-anchor="middle" x="533" y="-922.5" font-family="Arial" font-size="10.00">109&#45;23&#45;</text>
</g>
<!-- C&#45;0247&#45;&gt;ext_circ_109_23_ -->
<g id="edge60" class="edge">
<title>C&#45;0247&#45;&gt;ext_circ_109_23_</title>
<path fill="none" stroke="darkorange" stroke-dasharray="5,2" d="M613.9,-1031C600.96,-1031 591.5,-1031 591.5,-1031 591.5,-1031 591.5,-959.31 591.5,-959.31"/>
<polygon fill="darkorange" stroke="darkorange" points="593.95,-959.31 591.5,-952.31 589.05,-959.31 593.95,-959.31"/>
</g>
<!-- SW&#45;002_A&#45;&gt;ext_circ_109_23_ -->
<g id="edge59" class="edge">
<title>SW&#45;002_A&#45;&gt;ext_circ_109_23_</title>
<path fill="none" stroke="darkorange" stroke-dasharray="5,2" d="M429,-1220.07C429,-1161.33 429,-930 429,-930 429,-930 453.77,-930 453.77,-930"/>
<polygon fill="darkorange" stroke="darkorange" points="453.77,-932.45 460.77,-930 453.77,-927.55 453.77,-932.45"/>
</g>
<!-- ext_circ_109_24_ -->
<g id="node56" class="node">
<title>ext_circ_109_24_</title>
<polygon fill="lightpink" stroke="darkorange" stroke-dasharray="5,2" points="1124,-1356 980,-1356 980,-1313 1124,-1313 1124,-1356"/>
<text text-anchor="middle" x="1052" y="-1337.5" font-family="Arial" font-size="10.00">Circuito:</text>
<text text-anchor="middle" x="1052" y="-1326.5" font-family="Arial" font-size="10.00">109&#45;24&#45;</text>
</g>
<!-- SW&#45;002_B&#45;&gt;ext_circ_109_24_ -->
<g id="edge58" class="edge">
<title>SW&#45;002_B&#45;&gt;ext_circ_109_24_</title>
<path fill="none" stroke="darkorange" stroke-dasharray="5,2" d="M1008.82,-1416.03C1008.82,-1416.03 1008.82,-1363.01 1008.82,-1363.01"/>
<polygon fill="darkorange" stroke="darkorange" points="1011.27,-1363.01 1008.82,-1356.01 1006.37,-1363.01 1011.27,-1363.01"/>
</g>
<!-- C&#45;1113&#45;&gt;C&#45;0154 -->
<g id="edge49" class="edge">
<title>C&#45;1113&#45;&gt;C&#45;0154</title>
<path fill="none" stroke="#4d4d4d" d="M1226,-1110.58C1226,-1110.58 1226,-1060.03 1226,-1060.03"/>
<polygon fill="#4d4d4d" stroke="#4d4d4d" points="1228.45,-1060.03 1226,-1053.03 1223.55,-1060.03 1228.45,-1060.03"/>
</g>
<!-- C&#45;0453&#45;&gt;C&#45;1150 -->
<g id="edge61" class="edge">
<title>C&#45;0453&#45;&gt;C&#45;1150</title>
<path fill="none" stroke="blue" stroke-dasharray="5,2" d="M1181,-913.58C1181,-864.91 1181,-728 1181,-728 1181,-728 1236.76,-728 1236.76,-728"/>
<polygon fill="blue" stroke="blue" points="1236.76,-730.45 1243.76,-728 1236.76,-725.55 1236.76,-730.45"/>
</g>
<!-- S&#45;274 -->
<g id="node49" class="node">
<title>S&#45;274</title>
<polygon fill="mediumseagreen" stroke="black" points="1596,-649 1524,-627.5 1596,-606 1668,-627.5 1596,-649"/>
<text text-anchor="middle" x="1596" y="-625" font-family="Arial" font-size="10.00">S&#45;274</text>
</g>
<!-- S&#45;274&#45;&gt;C&#45;1218 -->
<g id="edge28" class="edge">
<title>S&#45;274&#45;&gt;C&#45;1218</title>
<path fill="none" stroke="#4d4d4d" d="M1564.5,-615.12C1564.5,-615.12 1564.5,-552.91 1564.5,-552.91"/>
<polygon fill="#4d4d4d" stroke="#4d4d4d" points="1566.95,-552.91 1564.5,-545.91 1562.05,-552.91 1566.95,-552.91"/>
</g>
<!-- S&#45;274&#45;&gt;C&#45;1220 -->
<g id="edge27" class="edge">
<title>S&#45;274&#45;&gt;C&#45;1220</title>
<path fill="none" stroke="#4d4d4d" d="M1650,-622.1C1650,-622.1 1650,-443.16 1650,-443.16"/>
<polygon fill="#4d4d4d" stroke="#4d4d4d" points="1652.45,-443.16 1650,-436.16 1647.55,-443.16 1652.45,-443.16"/>
</g>
<!-- S&#45;1716 -->
<g id="node51" class="node">
<title>S&#45;1716</title>
<polygon fill="mediumseagreen" stroke="black" points="1787,-548 1715,-526.5 1787,-505 1859,-526.5 1787,-548"/>
<text text-anchor="middle" x="1787" y="-524" font-family="Arial" font-size="10.00">S&#45;1716</text>
</g>
<!-- S&#45;274&#45;&gt;S&#45;1716 -->
<g id="edge26" class="edge">
<title>S&#45;274&#45;&gt;S&#45;1716</title>
<path fill="none" stroke="#4d4d4d" d="M1659,-624.57C1659,-607.93 1659,-526 1659,-526 1659,-526 1709.63,-526 1709.63,-526"/>
<polygon fill="#4d4d4d" stroke="#4d4d4d" points="1709.63,-528.45 1716.63,-526 1709.63,-523.55 1709.63,-528.45"/>
</g>
<!-- C&#45;1150&#45;&gt;C&#45;0694 -->
<g id="edge30" class="edge">
<title>C&#45;1150&#45;&gt;C&#45;0694</title>
<path fill="none" stroke="#4d4d4d" d="M1271,-711.37C1271,-711.37 1271,-651.38 1271,-651.38"/>
<polygon fill="#4d4d4d" stroke="#4d4d4d" points="1273.45,-651.38 1271,-644.38 1268.55,-651.38 1273.45,-651.38"/>
</g>
<!-- C&#45;1150&#45;&gt;S&#45;274 -->
<g id="edge25" class="edge">
<title>C&#45;1150&#45;&gt;S&#45;274</title>
<path fill="none" stroke="#4d4d4d" d="M1343,-708.45C1343,-678.87 1343,-627 1343,-627 1343,-627 1518.53,-627 1518.53,-627"/>
<polygon fill="#4d4d4d" stroke="#4d4d4d" points="1518.53,-629.45 1525.53,-627 1518.53,-624.55 1518.53,-629.45"/>
</g>
<!-- C&#45;0619&#45;&gt;S&#45;199 -->
<g id="edge24" class="edge">
<title>C&#45;0619&#45;&gt;S&#45;199</title>
<path fill="none" stroke="#4d4d4d" d="M851.23,-317C825.6,-317 802.5,-317 802.5,-317 802.5,-317 802.5,-233.2 802.5,-233.2"/>
<polygon fill="#4d4d4d" stroke="#4d4d4d" points="804.95,-233.2 802.5,-226.2 800.05,-233.2 804.95,-233.2"/>
</g>
<!-- C&#45;0619&#45;&gt;C&#45;0796 -->
<g id="edge21" class="edge">
<title>C&#45;0619&#45;&gt;C&#45;0796</title>
<path fill="none" stroke="#4d4d4d" d="M919,-302.58C919,-302.58 919,-252.03 919,-252.03"/>
<polygon fill="#4d4d4d" stroke="#4d4d4d" points="921.45,-252.03 919,-245.03 916.55,-252.03 921.45,-252.03"/>
</g>
<!-- C&#45;0619&#45;&gt;S&#45;200 -->
<g id="edge12" class="edge">
<title>C&#45;0619&#45;&gt;S&#45;200</title>
<path fill="none" stroke="#4d4d4d" d="M987.9,-331C1078.41,-331 1226,-331 1226,-331 1226,-331 1226,-236.28 1226,-236.28"/>
<polygon fill="#4d4d4d" stroke="#4d4d4d" points="1228.45,-236.28 1226,-229.28 1223.55,-236.28 1228.45,-236.28"/>
</g>
<!-- C&#45;0619&#45;&gt;C&#45;0798 -->
<g id="edge22" class="edge">
<title>C&#45;0619&#45;&gt;C&#45;0798</title>
<path fill="none" stroke="#4d4d4d" d="M986.69,-317C1016.77,-317 1045.5,-317 1045.5,-317 1045.5,-317 1045.5,-245.11 1045.5,-245.11"/>
<polygon fill="#4d4d4d" stroke="#4d4d4d" points="1047.95,-245.11 1045.5,-238.11 1043.05,-245.11 1047.95,-245.11"/>
</g>
<!-- C&#45;0619&#45;&gt;S&#45;1087 -->
<g id="edge15" class="edge">
<title>C&#45;0619&#45;&gt;S&#45;1087</title>
<path fill="none" stroke="#4d4d4d" d="M849.92,-331C734.39,-331 514.5,-331 514.5,-331 514.5,-331 514.5,-246.83 514.5,-246.83"/>
<polygon fill="#4d4d4d" stroke="#4d4d4d" points="516.95,-246.83 514.5,-239.83 512.05,-246.83 516.95,-246.83"/>
</g>
</g>
</svg>
