<?xml version="1.0" encoding="UTF-8" standalone="no"?>
<!DOCTYPE svg PUBLIC "-//W3C//DTD SVG 1.1//EN"
 "http://www.w3.org/Graphics/SVG/1.1/DTD/svg11.dtd">
<!-- Generated by graphviz version 2.50.0 (0)
 -->
<!-- Title: Grafo_Circuito_110_22_ Pages: 1 -->
<svg width="2106pt" height="1473pt"
 viewBox="0.00 0.00 2106.00 1473.00" xmlns="http://www.w3.org/2000/svg" xmlns:xlink="http://www.w3.org/1999/xlink">
<g id="graph0" class="graph" transform="scale(1 1) rotate(0) translate(4 1469)">
<title>Grafo_Circuito_110_22_</title>
<polygon fill="white" stroke="transparent" points="-4,4 -4,-1469 2102,-1469 2102,4 -4,4"/>
<!-- C&#45;0520 -->
<g id="node1" class="node">
<title>C&#45;0520</title>
<ellipse fill="tomato" stroke="black" cx="1216" cy="-829.5" rx="72" ry="21.5"/>
<text text-anchor="middle" x="1216" y="-827" font-family="Arial" font-size="10.00">C&#45;0520</text>
</g>
<!-- C&#45;0518 -->
<g id="node18" class="node">
<title>C&#45;0518</title>
<ellipse fill="mediumseagreen" stroke="black" cx="1396" cy="-627.5" rx="72" ry="21.5"/>
<text text-anchor="middle" x="1396" y="-625" font-family="Arial" font-size="10.00">C&#45;0518</text>
</g>
<!-- C&#45;0520&#45;&gt;C&#45;0518 -->
<g id="edge44" class="edge">
<title>C&#45;0520&#45;&gt;C&#45;0518</title>
<path fill="none" stroke="blue" stroke-dasharray="5,2" d="M1261,-812.51C1261,-765.64 1261,-638 1261,-638 1261,-638 1325.85,-638 1325.85,-638"/>
<polygon fill="blue" stroke="blue" points="1325.85,-640.45 1332.85,-638 1325.85,-635.55 1325.85,-640.45"/>
</g>
<!-- C&#45;0743 -->
<g id="node2" class="node">
<title>C&#45;0743</title>
<ellipse fill="mediumseagreen" stroke="black" cx="1589" cy="-223.5" rx="72" ry="21.5"/>
<text text-anchor="middle" x="1589" y="-221" font-family="Arial" font-size="10.00">C&#45;0743</text>
</g>
<!-- R&#45;162 -->
<g id="node21" class="node">
<title>R&#45;162</title>
<polygon fill="tomato" stroke="black" points="1634,-113.59 1634,-131.41 1591.82,-144 1532.18,-144 1490,-131.41 1490,-113.59 1532.18,-101 1591.82,-101 1634,-113.59"/>
<text text-anchor="middle" x="1562" y="-120" font-family="Arial" font-size="10.00">R&#45;162</text>
</g>
<!-- C&#45;0743&#45;&gt;R&#45;162 -->
<g id="edge32" class="edge">
<title>C&#45;0743&#45;&gt;R&#45;162</title>
<path fill="none" stroke="#4d4d4d" d="M1575.5,-202.08C1575.5,-202.08 1575.5,-151.24 1575.5,-151.24"/>
<polygon fill="#4d4d4d" stroke="#4d4d4d" points="1577.95,-151.24 1575.5,-144.24 1573.05,-151.24 1577.95,-151.24"/>
</g>
<!-- S&#45;138 -->
<g id="node3" class="node">
<title>S&#45;138</title>
<polygon fill="mediumseagreen" stroke="black" points="72,-1154 0,-1132.5 72,-1111 144,-1132.5 72,-1154"/>
<text text-anchor="middle" x="72" y="-1130" font-family="Arial" font-size="10.00">S&#45;138</text>
</g>
<!-- S&#45;2036 -->
<g id="node4" class="node">
<title>S&#45;2036</title>
<polygon fill="mediumseagreen" stroke="black" points="252,-1154 180,-1132.5 252,-1111 324,-1132.5 252,-1154"/>
<text text-anchor="middle" x="252" y="-1130" font-family="Arial" font-size="10.00">S&#45;2036</text>
</g>
<!-- S&#45;1831 -->
<g id="node5" class="node">
<title>S&#45;1831</title>
<polygon fill="mediumseagreen" stroke="black" points="252,-1255 180,-1233.5 252,-1212 324,-1233.5 252,-1255"/>
<text text-anchor="middle" x="252" y="-1231" font-family="Arial" font-size="10.00">S&#45;1831</text>
</g>
<!-- S&#45;1831&#45;&gt;S&#45;138 -->
<g id="edge4" class="edge">
<title>S&#45;1831&#45;&gt;S&#45;138</title>
<path fill="none" stroke="#4d4d4d" d="M181.63,-1233C131.15,-1233 72,-1233 72,-1233 72,-1233 72,-1161.31 72,-1161.31"/>
<polygon fill="#4d4d4d" stroke="#4d4d4d" points="74.45,-1161.31 72,-1154.31 69.55,-1161.31 74.45,-1161.31"/>
</g>
<!-- S&#45;1831&#45;&gt;S&#45;2036 -->
<g id="edge3" class="edge">
<title>S&#45;1831&#45;&gt;S&#45;2036</title>
<path fill="none" stroke="#4d4d4d" d="M252,-1211.58C252,-1211.58 252,-1161.03 252,-1161.03"/>
<polygon fill="#4d4d4d" stroke="#4d4d4d" points="254.45,-1161.03 252,-1154.03 249.55,-1161.03 254.45,-1161.03"/>
</g>
<!-- C&#45;0062 -->
<g id="node29" class="node">
<title>C&#45;0062</title>
<ellipse fill="mediumseagreen" stroke="black" cx="432" cy="-1132.5" rx="72" ry="21.5"/>
<text text-anchor="middle" x="432" y="-1130" font-family="Arial" font-size="10.00">C&#45;0062</text>
</g>
<!-- S&#45;1831&#45;&gt;C&#45;0062 -->
<g id="edge5" class="edge">
<title>S&#45;1831&#45;&gt;C&#45;0062</title>
<path fill="none" stroke="#4d4d4d" d="M322.37,-1233C372.85,-1233 432,-1233 432,-1233 432,-1233 432,-1161.31 432,-1161.31"/>
<polygon fill="#4d4d4d" stroke="#4d4d4d" points="434.45,-1161.31 432,-1154.31 429.55,-1161.31 434.45,-1161.31"/>
</g>
<!-- S&#45;2475 -->
<g id="node6" class="node">
<title>S&#45;2475</title>
<polygon fill="mediumseagreen" stroke="black" points="162,-1053 90,-1031.5 162,-1010 234,-1031.5 162,-1053"/>
<text text-anchor="middle" x="162" y="-1029" font-family="Arial" font-size="10.00">S&#45;2475</text>
</g>
<!-- S&#45;190 -->
<g id="node7" class="node">
<title>S&#45;190</title>
<polygon fill="mediumseagreen" stroke="black" points="602,-851 530,-829.5 602,-808 674,-829.5 602,-851"/>
<text text-anchor="middle" x="602" y="-827" font-family="Arial" font-size="10.00">S&#45;190</text>
</g>
<!-- S&#45;056 -->
<g id="node8" class="node">
<title>S&#45;056</title>
<polygon fill="mediumseagreen" stroke="black" points="342,-1053 270,-1031.5 342,-1010 414,-1031.5 342,-1053"/>
<text text-anchor="middle" x="342" y="-1029" font-family="Arial" font-size="10.00">S&#45;056</text>
</g>
<!-- C&#45;0780 -->
<g id="node9" class="node">
<title>C&#45;0780</title>
<ellipse fill="mediumseagreen" stroke="black" cx="895" cy="-223.5" rx="72" ry="21.5"/>
<text text-anchor="middle" x="895" y="-221" font-family="Arial" font-size="10.00">C&#45;0780</text>
</g>
<!-- R&#45;172 -->
<g id="node36" class="node">
<title>R&#45;172</title>
<polygon fill="tomato" stroke="black" points="1121,-113.59 1121,-131.41 1078.82,-144 1019.18,-144 977,-131.41 977,-113.59 1019.18,-101 1078.82,-101 1121,-113.59"/>
<text text-anchor="middle" x="1049" y="-120" font-family="Arial" font-size="10.00">R&#45;172</text>
</g>
<!-- C&#45;0780&#45;&gt;R&#45;172 -->
<g id="edge24" class="edge">
<title>C&#45;0780&#45;&gt;R&#45;172</title>
<path fill="none" stroke="#4d4d4d" d="M967,-223C980.25,-223 990,-223 990,-223 990,-223 990,-142.64 990,-142.64"/>
<polygon fill="#4d4d4d" stroke="#4d4d4d" points="992.45,-142.64 990,-135.64 987.55,-142.64 992.45,-142.64"/>
</g>
<!-- R&#45;032 -->
<g id="node10" class="node">
<title>R&#45;032</title>
<polygon fill="mediumseagreen" stroke="black" points="1468,-719.59 1468,-737.41 1425.82,-750 1366.18,-750 1324,-737.41 1324,-719.59 1366.18,-707 1425.82,-707 1468,-719.59"/>
<text text-anchor="middle" x="1396" y="-726" font-family="Arial" font-size="10.00">R&#45;032</text>
</g>
<!-- R&#45;032&#45;&gt;C&#45;0518 -->
<g id="edge13" class="edge">
<title>R&#45;032&#45;&gt;C&#45;0518</title>
<path fill="none" stroke="#4d4d4d" d="M1396,-706.58C1396,-706.58 1396,-656.03 1396,-656.03"/>
<polygon fill="#4d4d4d" stroke="#4d4d4d" points="1398.45,-656.03 1396,-649.03 1393.55,-656.03 1398.45,-656.03"/>
</g>
<!-- 110&#45;22&#45; -->
<g id="node11" class="node">
<title>110&#45;22&#45;</title>
<polygon fill="gold" stroke="black" points="324,-1430.59 324,-1448.41 281.82,-1461 222.18,-1461 180,-1448.41 180,-1430.59 222.18,-1418 281.82,-1418 324,-1430.59"/>
<polygon fill="none" stroke="black" points="328,-1427.61 328,-1451.39 282.41,-1465 221.59,-1465 176,-1451.39 176,-1427.61 221.59,-1414 282.41,-1414 328,-1427.61"/>
<text text-anchor="middle" x="252" y="-1437" font-family="Arial" font-size="10.00">110&#45;22&#45;</text>
</g>
<!-- C&#45;0092 -->
<g id="node31" class="node">
<title>C&#45;0092</title>
<ellipse fill="mediumseagreen" stroke="black" cx="252" cy="-1334.5" rx="72" ry="21.5"/>
<text text-anchor="middle" x="252" y="-1332" font-family="Arial" font-size="10.00">C&#45;0092</text>
</g>
<!-- 110&#45;22&#45;&#45;&gt;C&#45;0092 -->
<g id="edge1" class="edge">
<title>110&#45;22&#45;&#45;&gt;C&#45;0092</title>
<path fill="none" stroke="#4d4d4d" d="M252,-1413.81C252,-1413.81 252,-1363.03 252,-1363.03"/>
<polygon fill="#4d4d4d" stroke="#4d4d4d" points="254.45,-1363.03 252,-1356.03 249.55,-1363.03 254.45,-1363.03"/>
</g>
<!-- C&#45;1278 -->
<g id="node12" class="node">
<title>C&#45;1278</title>
<ellipse fill="tomato" stroke="black" cx="703" cy="-728.5" rx="72" ry="21.5"/>
<text text-anchor="middle" x="703" y="-726" font-family="Arial" font-size="10.00">C&#45;1278</text>
</g>
<!-- ext_circ_111_25_ -->
<g id="node46" class="node">
<title>ext_circ_111_25_</title>
<polygon fill="lightpink" stroke="darkorange" stroke-dasharray="5,2" points="865,-649 721,-649 721,-606 865,-606 865,-649"/>
<text text-anchor="middle" x="793" y="-630.5" font-family="Arial" font-size="10.00">Circuito:</text>
<text text-anchor="middle" x="793" y="-619.5" font-family="Arial" font-size="10.00">111&#45;25&#45;</text>
</g>
<!-- C&#45;1278&#45;&gt;ext_circ_111_25_ -->
<g id="edge50" class="edge">
<title>C&#45;1278&#45;&gt;ext_circ_111_25_</title>
<path fill="none" stroke="darkorange" stroke-dasharray="5,2" d="M748,-711.37C748,-711.37 748,-656.31 748,-656.31"/>
<polygon fill="darkorange" stroke="darkorange" points="750.45,-656.31 748,-649.31 745.55,-656.31 750.45,-656.31"/>
</g>
<!-- S&#45;2472 -->
<g id="node13" class="node">
<title>S&#45;2472</title>
<polygon fill="mediumseagreen" stroke="black" points="432,-952 360,-930.5 432,-909 504,-930.5 432,-952"/>
<text text-anchor="middle" x="432" y="-928" font-family="Arial" font-size="10.00">S&#45;2472</text>
</g>
<!-- S&#45;188 -->
<g id="node14" class="node">
<title>S&#45;188</title>
<polygon fill="mediumseagreen" stroke="black" points="872,-548 800,-526.5 872,-505 944,-526.5 872,-548"/>
<text text-anchor="middle" x="872" y="-524" font-family="Arial" font-size="10.00">S&#45;188</text>
</g>
<!-- C&#45;0015 -->
<g id="node15" class="node">
<title>C&#45;0015</title>
<ellipse fill="tomato" stroke="black" cx="612" cy="-930.5" rx="72" ry="21.5"/>
<text text-anchor="middle" x="612" y="-928" font-family="Arial" font-size="10.00">C&#45;0015</text>
</g>
<!-- ext_circ_110_25_ -->
<g id="node44" class="node">
<title>ext_circ_110_25_</title>
<polygon fill="lightpink" stroke="darkorange" stroke-dasharray="5,2" points="494,-851 350,-851 350,-808 494,-808 494,-851"/>
<text text-anchor="middle" x="422" y="-832.5" font-family="Arial" font-size="10.00">Circuito:</text>
<text text-anchor="middle" x="422" y="-821.5" font-family="Arial" font-size="10.00">110&#45;25&#45;</text>
</g>
<!-- C&#45;0015&#45;&gt;ext_circ_110_25_ -->
<g id="edge43" class="edge">
<title>C&#45;0015&#45;&gt;ext_circ_110_25_</title>
<path fill="none" stroke="darkorange" stroke-dasharray="5,2" d="M540,-930C526.75,-930 517,-930 517,-930 517,-930 517,-829 517,-829 517,-829 501,-829 501,-829"/>
<polygon fill="darkorange" stroke="darkorange" points="501,-826.55 494,-829 501,-831.45 501,-826.55"/>
</g>
<!-- C&#45;0150 -->
<g id="node16" class="node">
<title>C&#45;0150</title>
<ellipse fill="mediumseagreen" stroke="black" cx="1075" cy="-324.5" rx="72" ry="21.5"/>
<text text-anchor="middle" x="1075" y="-322" font-family="Arial" font-size="10.00">C&#45;0150</text>
</g>
<!-- C&#45;0150&#45;&gt;C&#45;0780 -->
<g id="edge23" class="edge">
<title>C&#45;0150&#45;&gt;C&#45;0780</title>
<path fill="none" stroke="#4d4d4d" d="M1002.84,-324C979.49,-324 959.5,-324 959.5,-324 959.5,-324 959.5,-240.14 959.5,-240.14"/>
<polygon fill="#4d4d4d" stroke="#4d4d4d" points="961.95,-240.14 959.5,-233.14 957.05,-240.14 961.95,-240.14"/>
</g>
<!-- S&#45;186 -->
<g id="node23" class="node">
<title>S&#45;186</title>
<polygon fill="mediumseagreen" stroke="black" points="1075,-245 1003,-223.5 1075,-202 1147,-223.5 1075,-245"/>
<text text-anchor="middle" x="1075" y="-221" font-family="Arial" font-size="10.00">S&#45;186</text>
</g>
<!-- C&#45;0150&#45;&gt;S&#45;186 -->
<g id="edge21" class="edge">
<title>C&#45;0150&#45;&gt;S&#45;186</title>
<path fill="none" stroke="#4d4d4d" d="M1075,-302.58C1075,-302.58 1075,-252.03 1075,-252.03"/>
<polygon fill="#4d4d4d" stroke="#4d4d4d" points="1077.45,-252.03 1075,-245.03 1072.55,-252.03 1077.45,-252.03"/>
</g>
<!-- S&#45;1650 -->
<g id="node24" class="node">
<title>S&#45;1650</title>
<polygon fill="mediumseagreen" stroke="black" points="1255,-245 1183,-223.5 1255,-202 1327,-223.5 1255,-245"/>
<text text-anchor="middle" x="1255" y="-221" font-family="Arial" font-size="10.00">S&#45;1650</text>
</g>
<!-- C&#45;0150&#45;&gt;S&#45;1650 -->
<g id="edge25" class="edge">
<title>C&#45;0150&#45;&gt;S&#45;1650</title>
<path fill="none" stroke="#4d4d4d" d="M1145.51,-320C1169.56,-320 1190.5,-320 1190.5,-320 1190.5,-320 1190.5,-232.89 1190.5,-232.89"/>
<polygon fill="#4d4d4d" stroke="#4d4d4d" points="1192.95,-232.89 1190.5,-225.89 1188.05,-232.89 1192.95,-232.89"/>
</g>
<!-- C&#45;0779 -->
<g id="node26" class="node">
<title>C&#45;0779</title>
<ellipse fill="tomato" stroke="black" cx="1382" cy="-122.5" rx="72" ry="21.5"/>
<text text-anchor="middle" x="1382" y="-120" font-family="Arial" font-size="10.00">C&#45;0779</text>
</g>
<!-- C&#45;0150&#45;&gt;C&#45;0779 -->
<g id="edge22" class="edge">
<title>C&#45;0150&#45;&gt;C&#45;0779</title>
<path fill="none" stroke="#4d4d4d" d="M1146.1,-328C1228.32,-328 1352.5,-328 1352.5,-328 1352.5,-328 1352.5,-149.2 1352.5,-149.2"/>
<polygon fill="#4d4d4d" stroke="#4d4d4d" points="1354.95,-149.2 1352.5,-142.2 1350.05,-149.2 1354.95,-149.2"/>
</g>
<!-- C&#45;0812 -->
<g id="node17" class="node">
<title>C&#45;0812</title>
<ellipse fill="mediumseagreen" stroke="black" cx="1742" cy="-324.5" rx="72" ry="21.5"/>
<text text-anchor="middle" x="1742" y="-322" font-family="Arial" font-size="10.00">C&#45;0812</text>
</g>
<!-- C&#45;0812&#45;&gt;C&#45;0743 -->
<g id="edge31" class="edge">
<title>C&#45;0812&#45;&gt;C&#45;0743</title>
<path fill="none" stroke="#4d4d4d" d="M1685.91,-311C1662.43,-311 1640.5,-311 1640.5,-311 1640.5,-311 1640.5,-245.74 1640.5,-245.74"/>
<polygon fill="#4d4d4d" stroke="#4d4d4d" points="1642.95,-245.74 1640.5,-238.74 1638.05,-245.74 1642.95,-245.74"/>
</g>
<!-- C&#45;0744 -->
<g id="node32" class="node">
<title>C&#45;0744</title>
<ellipse fill="tomato" stroke="black" cx="1742" cy="-122.5" rx="72" ry="21.5"/>
<text text-anchor="middle" x="1742" y="-120" font-family="Arial" font-size="10.00">C&#45;0744</text>
</g>
<!-- C&#45;0812&#45;&gt;C&#45;0744 -->
<g id="edge30" class="edge">
<title>C&#45;0812&#45;&gt;C&#45;0744</title>
<path fill="none" stroke="#4d4d4d" d="M1742,-302.88C1742,-302.88 1742,-151.27 1742,-151.27"/>
<polygon fill="#4d4d4d" stroke="#4d4d4d" points="1744.45,-151.27 1742,-144.27 1739.55,-151.27 1744.45,-151.27"/>
</g>
<!-- C&#45;0518&#45;&gt;S&#45;188 -->
<g id="edge17" class="edge">
<title>C&#45;0518&#45;&gt;S&#45;188</title>
<path fill="none" stroke="#4d4d4d" d="M1324.01,-627C1187.49,-627 904.5,-627 904.5,-627 904.5,-627 904.5,-545.42 904.5,-545.42"/>
<polygon fill="#4d4d4d" stroke="#4d4d4d" points="906.95,-545.42 904.5,-538.42 902.05,-545.42 906.95,-545.42"/>
</g>
<!-- C&#45;0518&#45;&gt;C&#45;0150 -->
<g id="edge20" class="edge">
<title>C&#45;0518&#45;&gt;C&#45;0150</title>
<path fill="none" stroke="#4d4d4d" d="M1396,-605.67C1396,-538.11 1396,-337 1396,-337 1396,-337 1140.88,-337 1140.88,-337"/>
<polygon fill="#4d4d4d" stroke="#4d4d4d" points="1140.88,-334.55 1133.88,-337 1140.88,-339.45 1140.88,-334.55"/>
</g>
<!-- S&#45;1608 -->
<g id="node20" class="node">
<title>S&#45;1608</title>
<polygon fill="mediumseagreen" stroke="black" points="1126,-548 1054,-526.5 1126,-505 1198,-526.5 1126,-548"/>
<text text-anchor="middle" x="1126" y="-524" font-family="Arial" font-size="10.00">S&#45;1608</text>
</g>
<!-- C&#45;0518&#45;&gt;S&#45;1608 -->
<g id="edge19" class="edge">
<title>C&#45;0518&#45;&gt;S&#45;1608</title>
<path fill="none" stroke="#4d4d4d" d="M1335.11,-616C1268.48,-616 1171,-616 1171,-616 1171,-616 1171,-541.76 1171,-541.76"/>
<polygon fill="#4d4d4d" stroke="#4d4d4d" points="1173.45,-541.76 1171,-534.76 1168.55,-541.76 1173.45,-541.76"/>
</g>
<!-- S&#45;1609 -->
<g id="node33" class="node">
<title>S&#45;1609</title>
<polygon fill="mediumseagreen" stroke="black" points="1306,-548 1234,-526.5 1306,-505 1378,-526.5 1306,-548"/>
<text text-anchor="middle" x="1306" y="-524" font-family="Arial" font-size="10.00">S&#45;1609</text>
</g>
<!-- C&#45;0518&#45;&gt;S&#45;1609 -->
<g id="edge18" class="edge">
<title>C&#45;0518&#45;&gt;S&#45;1609</title>
<path fill="none" stroke="#4d4d4d" d="M1351,-610.37C1351,-610.37 1351,-541.78 1351,-541.78"/>
<polygon fill="#4d4d4d" stroke="#4d4d4d" points="1353.45,-541.78 1351,-534.78 1348.55,-541.78 1353.45,-541.78"/>
</g>
<!-- S&#45;189 -->
<g id="node34" class="node">
<title>S&#45;189</title>
<polygon fill="mediumseagreen" stroke="black" points="1486,-548 1414,-526.5 1486,-505 1558,-526.5 1486,-548"/>
<text text-anchor="middle" x="1486" y="-524" font-family="Arial" font-size="10.00">S&#45;189</text>
</g>
<!-- C&#45;0518&#45;&gt;S&#45;189 -->
<g id="edge33" class="edge">
<title>C&#45;0518&#45;&gt;S&#45;189</title>
<path fill="none" stroke="#4d4d4d" d="M1441,-610.37C1441,-610.37 1441,-541.78 1441,-541.78"/>
<polygon fill="#4d4d4d" stroke="#4d4d4d" points="1443.45,-541.78 1441,-534.78 1438.55,-541.78 1443.45,-541.78"/>
</g>
<!-- S&#45;1852 -->
<g id="node35" class="node">
<title>S&#45;1852</title>
<polygon fill="mediumseagreen" stroke="black" points="1666,-548 1594,-526.5 1666,-505 1738,-526.5 1666,-548"/>
<text text-anchor="middle" x="1666" y="-524" font-family="Arial" font-size="10.00">S&#45;1852</text>
</g>
<!-- C&#45;0518&#45;&gt;S&#45;1852 -->
<g id="edge14" class="edge">
<title>C&#45;0518&#45;&gt;S&#45;1852</title>
<path fill="none" stroke="#4d4d4d" d="M1456.93,-616C1536.56,-616 1666,-616 1666,-616 1666,-616 1666,-555.17 1666,-555.17"/>
<polygon fill="#4d4d4d" stroke="#4d4d4d" points="1668.45,-555.17 1666,-548.17 1663.55,-555.17 1668.45,-555.17"/>
</g>
<!-- C&#45;0811 -->
<g id="node40" class="node">
<title>C&#45;0811</title>
<ellipse fill="tomato" stroke="black" cx="1846" cy="-526.5" rx="72" ry="21.5"/>
<text text-anchor="middle" x="1846" y="-524" font-family="Arial" font-size="10.00">C&#45;0811</text>
</g>
<!-- C&#45;0518&#45;&gt;C&#45;0811 -->
<g id="edge26" class="edge">
<title>C&#45;0518&#45;&gt;C&#45;0811</title>
<path fill="none" stroke="#4d4d4d" d="M1468.3,-627C1595.5,-627 1846,-627 1846,-627 1846,-627 1846,-555.31 1846,-555.31"/>
<polygon fill="#4d4d4d" stroke="#4d4d4d" points="1848.45,-555.31 1846,-548.31 1843.55,-555.31 1848.45,-555.31"/>
</g>
<!-- C&#45;0810 -->
<g id="node41" class="node">
<title>C&#45;0810</title>
<ellipse fill="mediumseagreen" stroke="black" cx="2026" cy="-526.5" rx="72" ry="21.5"/>
<text text-anchor="middle" x="2026" y="-524" font-family="Arial" font-size="10.00">C&#45;0810</text>
</g>
<!-- C&#45;0518&#45;&gt;C&#45;0810 -->
<g id="edge27" class="edge">
<title>C&#45;0518&#45;&gt;C&#45;0810</title>
<path fill="none" stroke="#4d4d4d" d="M1459,-638C1618.56,-638 2026,-638 2026,-638 2026,-638 2026,-555.26 2026,-555.26"/>
<polygon fill="#4d4d4d" stroke="#4d4d4d" points="2028.45,-555.26 2026,-548.26 2023.55,-555.26 2028.45,-555.26"/>
</g>
<!-- R&#45;102 -->
<g id="node19" class="node">
<title>R&#45;102</title>
<polygon fill="mediumseagreen" stroke="black" points="864,-921.59 864,-939.41 821.82,-952 762.18,-952 720,-939.41 720,-921.59 762.18,-909 821.82,-909 864,-921.59"/>
<text text-anchor="middle" x="792" y="-928" font-family="Arial" font-size="10.00">R&#45;102</text>
</g>
<!-- R&#45;102&#45;&gt;S&#45;190 -->
<g id="edge36" class="edge">
<title>R&#45;102&#45;&gt;S&#45;190</title>
<path fill="none" stroke="#4d4d4d" d="M738.33,-915.96C738.33,-887.89 738.33,-829 738.33,-829 738.33,-829 679.56,-829 679.56,-829"/>
<polygon fill="#4d4d4d" stroke="#4d4d4d" points="679.56,-826.55 672.56,-829 679.56,-831.45 679.56,-826.55"/>
</g>
<!-- R&#45;102&#45;&gt;C&#45;1278 -->
<g id="edge37" class="edge">
<title>R&#45;102&#45;&gt;C&#45;1278</title>
<path fill="none" stroke="#4d4d4d" d="M756.67,-910.39C756.67,-910.39 756.67,-749.93 756.67,-749.93"/>
<polygon fill="#4d4d4d" stroke="#4d4d4d" points="759.12,-749.93 756.67,-742.93 754.22,-749.93 759.12,-749.93"/>
</g>
<!-- C&#45;1280 -->
<g id="node27" class="node">
<title>C&#45;1280</title>
<ellipse fill="mediumseagreen" stroke="black" cx="856" cy="-829.5" rx="72" ry="21.5"/>
<text text-anchor="middle" x="856" y="-827" font-family="Arial" font-size="10.00">C&#45;1280</text>
</g>
<!-- R&#45;102&#45;&gt;C&#45;1280 -->
<g id="edge38" class="edge">
<title>R&#45;102&#45;&gt;C&#45;1280</title>
<path fill="none" stroke="#4d4d4d" d="M824,-909.57C824,-909.57 824,-856.03 824,-856.03"/>
<polygon fill="#4d4d4d" stroke="#4d4d4d" points="826.45,-856.03 824,-849.03 821.55,-856.03 826.45,-856.03"/>
</g>
<!-- S&#45;191 -->
<g id="node39" class="node">
<title>S&#45;191</title>
<polygon fill="mediumseagreen" stroke="black" points="1036,-851 964,-829.5 1036,-808 1108,-829.5 1036,-851"/>
<text text-anchor="middle" x="1036" y="-827" font-family="Arial" font-size="10.00">S&#45;191</text>
</g>
<!-- R&#45;102&#45;&gt;S&#45;191 -->
<g id="edge35" class="edge">
<title>R&#45;102&#45;&gt;S&#45;191</title>
<path fill="none" stroke="#4d4d4d" d="M864.22,-930C936.17,-930 1036,-930 1036,-930 1036,-930 1036,-858.31 1036,-858.31"/>
<polygon fill="#4d4d4d" stroke="#4d4d4d" points="1038.45,-858.31 1036,-851.31 1033.55,-858.31 1038.45,-858.31"/>
</g>
<!-- ext_circ_110_24_ -->
<g id="node45" class="node">
<title>ext_circ_110_24_</title>
<polygon fill="lightpink" stroke="darkorange" stroke-dasharray="5,2" points="1544,-43 1400,-43 1400,0 1544,0 1544,-43"/>
<text text-anchor="middle" x="1472" y="-24.5" font-family="Arial" font-size="10.00">Circuito:</text>
<text text-anchor="middle" x="1472" y="-13.5" font-family="Arial" font-size="10.00">110&#45;24&#45;</text>
</g>
<!-- R&#45;162&#45;&gt;ext_circ_110_24_ -->
<g id="edge49" class="edge">
<title>R&#45;162&#45;&gt;ext_circ_110_24_</title>
<path fill="none" stroke="darkorange" stroke-dasharray="5,2" d="M1517,-105.37C1517,-105.37 1517,-50.31 1517,-50.31"/>
<polygon fill="darkorange" stroke="darkorange" points="1519.45,-50.31 1517,-43.31 1514.55,-50.31 1519.45,-50.31"/>
</g>
<!-- C&#45;0519 -->
<g id="node22" class="node">
<title>C&#45;0519</title>
<ellipse fill="mediumseagreen" stroke="black" cx="1396" cy="-829.5" rx="72" ry="21.5"/>
<text text-anchor="middle" x="1396" y="-827" font-family="Arial" font-size="10.00">C&#45;0519</text>
</g>
<!-- C&#45;0519&#45;&gt;R&#45;032 -->
<g id="edge12" class="edge">
<title>C&#45;0519&#45;&gt;R&#45;032</title>
<path fill="none" stroke="#4d4d4d" d="M1396,-807.58C1396,-807.58 1396,-757.03 1396,-757.03"/>
<polygon fill="#4d4d4d" stroke="#4d4d4d" points="1398.45,-757.03 1396,-750.03 1393.55,-757.03 1398.45,-757.03"/>
</g>
<!-- S&#45;1729 -->
<g id="node25" class="node">
<title>S&#45;1729</title>
<polygon fill="mediumseagreen" stroke="black" points="522,-1053 450,-1031.5 522,-1010 594,-1031.5 522,-1053"/>
<text text-anchor="middle" x="522" y="-1029" font-family="Arial" font-size="10.00">S&#45;1729</text>
</g>
<!-- C&#45;0779&#45;&gt;ext_circ_110_24_ -->
<g id="edge45" class="edge">
<title>C&#45;0779&#45;&gt;ext_circ_110_24_</title>
<path fill="none" stroke="darkorange" stroke-dasharray="5,2" d="M1427,-105.37C1427,-105.37 1427,-50.31 1427,-50.31"/>
<polygon fill="darkorange" stroke="darkorange" points="1429.45,-50.31 1427,-43.31 1424.55,-50.31 1429.45,-50.31"/>
</g>
<!-- R&#45;025 -->
<g id="node42" class="node">
<title>R&#45;025</title>
<polygon fill="tomato" stroke="black" points="955,-719.59 955,-737.41 912.82,-750 853.18,-750 811,-737.41 811,-719.59 853.18,-707 912.82,-707 955,-719.59"/>
<text text-anchor="middle" x="883" y="-726" font-family="Arial" font-size="10.00">R&#45;025</text>
</g>
<!-- C&#45;1280&#45;&gt;R&#45;025 -->
<g id="edge39" class="edge">
<title>C&#45;1280&#45;&gt;R&#45;025</title>
<path fill="none" stroke="#4d4d4d" d="M869.5,-808.08C869.5,-808.08 869.5,-757.24 869.5,-757.24"/>
<polygon fill="#4d4d4d" stroke="#4d4d4d" points="871.95,-757.24 869.5,-750.24 867.05,-757.24 871.95,-757.24"/>
</g>
<!-- S&#45;2441 -->
<g id="node28" class="node">
<title>S&#45;2441</title>
<polygon fill="mediumseagreen" stroke="black" points="1512,-447 1440,-425.5 1512,-404 1584,-425.5 1512,-447"/>
<text text-anchor="middle" x="1512" y="-423" font-family="Arial" font-size="10.00">S&#45;2441</text>
</g>
<!-- C&#45;0062&#45;&gt;S&#45;2475 -->
<g id="edge40" class="edge">
<title>C&#45;0062&#45;&gt;S&#45;2475</title>
<path fill="none" stroke="#4d4d4d" d="M378,-1118.16C378,-1103.23 378,-1082 378,-1082 378,-1082 207,-1082 207,-1082 207,-1082 207,-1046.84 207,-1046.84"/>
<polygon fill="#4d4d4d" stroke="#4d4d4d" points="209.45,-1046.84 207,-1039.84 204.55,-1046.84 209.45,-1046.84"/>
</g>
<!-- C&#45;0062&#45;&gt;S&#45;056 -->
<g id="edge42" class="edge">
<title>C&#45;0062&#45;&gt;S&#45;056</title>
<path fill="none" stroke="#4d4d4d" d="M396,-1113.5C396,-1113.5 396,-1043.97 396,-1043.97"/>
<polygon fill="#4d4d4d" stroke="#4d4d4d" points="398.45,-1043.97 396,-1036.97 393.55,-1043.97 398.45,-1043.97"/>
</g>
<!-- C&#45;0062&#45;&gt;S&#45;1729 -->
<g id="edge41" class="edge">
<title>C&#45;0062&#45;&gt;S&#45;1729</title>
<path fill="none" stroke="#4d4d4d" d="M477,-1115.37C477,-1115.37 477,-1046.78 477,-1046.78"/>
<polygon fill="#4d4d4d" stroke="#4d4d4d" points="479.45,-1046.78 477,-1039.78 474.55,-1046.78 479.45,-1046.78"/>
</g>
<!-- C&#45;0524 -->
<g id="node30" class="node">
<title>C&#45;0524</title>
<ellipse fill="mediumseagreen" stroke="black" cx="702" cy="-1031.5" rx="72" ry="21.5"/>
<text text-anchor="middle" x="702" y="-1029" font-family="Arial" font-size="10.00">C&#45;0524</text>
</g>
<!-- C&#45;0062&#45;&gt;C&#45;0524 -->
<g id="edge6" class="edge">
<title>C&#45;0062&#45;&gt;C&#45;0524</title>
<path fill="none" stroke="#4d4d4d" d="M504,-1132C583.98,-1132 702,-1132 702,-1132 702,-1132 702,-1060.31 702,-1060.31"/>
<polygon fill="#4d4d4d" stroke="#4d4d4d" points="704.45,-1060.31 702,-1053.31 699.55,-1060.31 704.45,-1060.31"/>
</g>
<!-- C&#45;0524&#45;&gt;S&#45;2472 -->
<g id="edge8" class="edge">
<title>C&#45;0524&#45;&gt;S&#45;2472</title>
<path fill="none" stroke="#4d4d4d" d="M648,-1017.16C648,-1002.23 648,-981 648,-981 648,-981 477,-981 477,-981 477,-981 477,-945.84 477,-945.84"/>
<polygon fill="#4d4d4d" stroke="#4d4d4d" points="479.45,-945.84 477,-938.84 474.55,-945.84 479.45,-945.84"/>
</g>
<!-- C&#45;0524&#45;&gt;C&#45;0015 -->
<g id="edge7" class="edge">
<title>C&#45;0524&#45;&gt;C&#45;0015</title>
<path fill="none" stroke="#4d4d4d" d="M666,-1012.5C666,-1012.5 666,-951.84 666,-951.84"/>
<polygon fill="#4d4d4d" stroke="#4d4d4d" points="668.45,-951.84 666,-944.84 663.55,-951.84 668.45,-951.84"/>
</g>
<!-- C&#45;0524&#45;&gt;R&#45;102 -->
<g id="edge34" class="edge">
<title>C&#45;0524&#45;&gt;R&#45;102</title>
<path fill="none" stroke="#4d4d4d" d="M747,-1014.37C747,-1014.37 747,-954.72 747,-954.72"/>
<polygon fill="#4d4d4d" stroke="#4d4d4d" points="749.45,-954.72 747,-947.72 744.55,-954.72 749.45,-954.72"/>
</g>
<!-- C&#45;0328 -->
<g id="node43" class="node">
<title>C&#45;0328</title>
<ellipse fill="mediumseagreen" stroke="black" cx="1216" cy="-930.5" rx="72" ry="21.5"/>
<text text-anchor="middle" x="1216" y="-928" font-family="Arial" font-size="10.00">C&#45;0328</text>
</g>
<!-- C&#45;0524&#45;&gt;C&#45;0328 -->
<g id="edge9" class="edge">
<title>C&#45;0524&#45;&gt;C&#45;0328</title>
<path fill="none" stroke="#4d4d4d" d="M774.01,-1031C915.47,-1031 1216,-1031 1216,-1031 1216,-1031 1216,-959.31 1216,-959.31"/>
<polygon fill="#4d4d4d" stroke="#4d4d4d" points="1218.45,-959.31 1216,-952.31 1213.55,-959.31 1218.45,-959.31"/>
</g>
<!-- C&#45;0092&#45;&gt;S&#45;1831 -->
<g id="edge2" class="edge">
<title>C&#45;0092&#45;&gt;S&#45;1831</title>
<path fill="none" stroke="#4d4d4d" d="M252,-1312.58C252,-1312.58 252,-1262.03 252,-1262.03"/>
<polygon fill="#4d4d4d" stroke="#4d4d4d" points="254.45,-1262.03 252,-1255.03 249.55,-1262.03 254.45,-1262.03"/>
</g>
<!-- C&#45;0744&#45;&gt;ext_circ_110_24_ -->
<g id="edge48" class="edge">
<title>C&#45;0744&#45;&gt;ext_circ_110_24_</title>
<path fill="none" stroke="darkorange" stroke-dasharray="5,2" d="M1742,-100.97C1742,-71.18 1742,-21 1742,-21 1742,-21 1551,-21 1551,-21"/>
<polygon fill="darkorange" stroke="darkorange" points="1551,-18.55 1544,-21 1551,-23.45 1551,-18.55"/>
</g>
<!-- S&#45;1852&#45;&gt;S&#45;2441 -->
<g id="edge15" class="edge">
<title>S&#45;1852&#45;&gt;S&#45;2441</title>
<path fill="none" stroke="#4d4d4d" d="M1607,-522.14C1607,-502.71 1607,-425 1607,-425 1607,-425 1589.54,-425 1589.54,-425"/>
<polygon fill="#4d4d4d" stroke="#4d4d4d" points="1589.54,-422.55 1582.54,-425 1589.54,-427.45 1589.54,-422.55"/>
</g>
<!-- S&#45;2288 -->
<g id="node37" class="node">
<title>S&#45;2288</title>
<polygon fill="mediumseagreen" stroke="black" points="1692,-447 1620,-425.5 1692,-404 1764,-425.5 1692,-447"/>
<text text-anchor="middle" x="1692" y="-423" font-family="Arial" font-size="10.00">S&#45;2288</text>
</g>
<!-- S&#45;1852&#45;&gt;S&#45;2288 -->
<g id="edge16" class="edge">
<title>S&#45;1852&#45;&gt;S&#45;2288</title>
<path fill="none" stroke="#4d4d4d" d="M1679,-508.44C1679,-508.44 1679,-450.4 1679,-450.4"/>
<polygon fill="#4d4d4d" stroke="#4d4d4d" points="1681.45,-450.4 1679,-443.4 1676.55,-450.4 1681.45,-450.4"/>
</g>
<!-- R&#45;172&#45;&gt;ext_circ_110_24_ -->
<g id="edge46" class="edge">
<title>R&#45;172&#45;&gt;ext_circ_110_24_</title>
<path fill="none" stroke="darkorange" stroke-dasharray="5,2" d="M1049,-100.97C1049,-71.18 1049,-21 1049,-21 1049,-21 1392.76,-21 1392.76,-21"/>
<polygon fill="darkorange" stroke="darkorange" points="1392.76,-23.45 1399.76,-21 1392.76,-18.55 1392.76,-23.45"/>
</g>
<!-- R&#45;181 -->
<g id="node38" class="node">
<title>R&#45;181</title>
<polygon fill="mediumseagreen" stroke="black" points="2064,-416.59 2064,-434.41 2021.82,-447 1962.18,-447 1920,-434.41 1920,-416.59 1962.18,-404 2021.82,-404 2064,-416.59"/>
<text text-anchor="middle" x="1992" y="-423" font-family="Arial" font-size="10.00">R&#45;181</text>
</g>
<!-- R&#45;181&#45;&gt;C&#45;0812 -->
<g id="edge29" class="edge">
<title>R&#45;181&#45;&gt;C&#45;0812</title>
<path fill="none" stroke="#4d4d4d" d="M1919.94,-425C1865.7,-425 1800.67,-425 1800.67,-425 1800.67,-425 1800.67,-344.23 1800.67,-344.23"/>
<polygon fill="#4d4d4d" stroke="#4d4d4d" points="1803.12,-344.23 1800.67,-337.23 1798.22,-344.23 1803.12,-344.23"/>
</g>
<!-- C&#45;0811&#45;&gt;C&#45;0812 -->
<g id="edge47" class="edge">
<title>C&#45;0811&#45;&gt;C&#45;0812</title>
<path fill="none" stroke="blue" stroke-dasharray="5,2" d="M1787.33,-513.86C1787.33,-513.86 1787.33,-348.27 1787.33,-348.27"/>
<polygon fill="blue" stroke="blue" points="1789.78,-348.27 1787.33,-341.27 1784.88,-348.27 1789.78,-348.27"/>
</g>
<!-- C&#45;0810&#45;&gt;R&#45;181 -->
<g id="edge28" class="edge">
<title>C&#45;0810&#45;&gt;R&#45;181</title>
<path fill="none" stroke="#4d4d4d" d="M2009,-505.57C2009,-505.57 2009,-454.1 2009,-454.1"/>
<polygon fill="#4d4d4d" stroke="#4d4d4d" points="2011.45,-454.1 2009,-447.1 2006.55,-454.1 2011.45,-454.1"/>
</g>
<!-- R&#45;025&#45;&gt;ext_circ_111_25_ -->
<g id="edge51" class="edge">
<title>R&#45;025&#45;&gt;ext_circ_111_25_</title>
<path fill="none" stroke="darkorange" stroke-dasharray="5,2" d="M838,-711.37C838,-711.37 838,-656.31 838,-656.31"/>
<polygon fill="darkorange" stroke="darkorange" points="840.45,-656.31 838,-649.31 835.55,-656.31 840.45,-656.31"/>
</g>
<!-- C&#45;0328&#45;&gt;C&#45;0520 -->
<g id="edge10" class="edge">
<title>C&#45;0328&#45;&gt;C&#45;0520</title>
<path fill="none" stroke="#4d4d4d" d="M1216,-908.58C1216,-908.58 1216,-858.03 1216,-858.03"/>
<polygon fill="#4d4d4d" stroke="#4d4d4d" points="1218.45,-858.03 1216,-851.03 1213.55,-858.03 1218.45,-858.03"/>
</g>
<!-- C&#45;0328&#45;&gt;C&#45;0519 -->
<g id="edge11" class="edge">
<title>C&#45;0328&#45;&gt;C&#45;0519</title>
<path fill="none" stroke="#4d4d4d" d="M1288.18,-930C1338.25,-930 1396,-930 1396,-930 1396,-930 1396,-858.31 1396,-858.31"/>
<polygon fill="#4d4d4d" stroke="#4d4d4d" points="1398.45,-858.31 1396,-851.31 1393.55,-858.31 1398.45,-858.31"/>
</g>
</g>
</svg>
