<?xml version="1.0" encoding="UTF-8" standalone="no"?>
<!DOCTYPE svg PUBLIC "-//W3C//DTD SVG 1.1//EN"
 "http://www.w3.org/Graphics/SVG/1.1/DTD/svg11.dtd">
<!-- Generated by graphviz version 2.50.0 (0)
 -->
<!-- Title: Grafo_Circuito_113_23_ Pages: 1 -->
<svg width="2431pt" height="1274pt"
 viewBox="0.00 0.00 2431.00 1274.00" xmlns="http://www.w3.org/2000/svg" xmlns:xlink="http://www.w3.org/1999/xlink">
<g id="graph0" class="graph" transform="scale(1 1) rotate(0) translate(4 1270)">
<title>Grafo_Circuito_113_23_</title>
<polygon fill="white" stroke="transparent" points="-4,4 -4,-1270 2427,-1270 2427,4 -4,4"/>
<!-- S&#45;776 -->
<g id="node1" class="node">
<title>S&#45;776</title>
<polygon fill="mediumseagreen" stroke="black" points="414.5,-130 346,-112 414.5,-94 483,-112 414.5,-130"/>
<text text-anchor="middle" x="414.5" y="-110.1" font-family="Helvetica,sans-Serif" font-size="8.00">S&#45;776</text>
</g>
<!-- C&#45;1258 -->
<g id="node3" class="node">
<title>C&#45;1258</title>
<ellipse fill="tomato" stroke="black" cx="155.5" cy="-18" rx="68.5" ry="18"/>
<text text-anchor="middle" x="155.5" y="-16.1" font-family="Helvetica,sans-Serif" font-size="8.00">C&#45;1258</text>
</g>
<!-- S&#45;776&#45;&gt;C&#45;1258 -->
<g id="edge30" class="edge">
<title>S&#45;776&#45;&gt;C&#45;1258</title>
<path fill="none" stroke="dimgray" stroke-width="0.8" d="M345.86,-112C282.61,-112 198.5,-112 198.5,-112 198.5,-112 198.5,-39.28 198.5,-39.28"/>
<polygon fill="dimgray" stroke="dimgray" stroke-width="0.8" points="200.95,-39.28 198.5,-32.28 196.05,-39.28 200.95,-39.28"/>
</g>
<!-- C&#45;0936 -->
<g id="node5" class="node">
<title>C&#45;0936</title>
<ellipse fill="tomato" stroke="black" cx="328.5" cy="-18" rx="68.5" ry="18"/>
<text text-anchor="middle" x="328.5" y="-16.1" font-family="Helvetica,sans-Serif" font-size="8.00">C&#45;0936</text>
</g>
<!-- S&#45;776&#45;&gt;C&#45;0936 -->
<g id="edge31" class="edge">
<title>S&#45;776&#45;&gt;C&#45;0936</title>
<path fill="none" stroke="dimgray" stroke-width="0.8" d="M363,-107.47C363,-107.47 363,-40.85 363,-40.85"/>
<polygon fill="dimgray" stroke="dimgray" stroke-width="0.8" points="365.45,-40.85 363,-33.85 360.55,-40.85 365.45,-40.85"/>
</g>
<!-- S&#45;2404 -->
<g id="node20" class="node">
<title>S&#45;2404</title>
<polygon fill="mediumseagreen" stroke="black" points="501.5,-36 433,-18 501.5,0 570,-18 501.5,-36"/>
<text text-anchor="middle" x="501.5" y="-16.1" font-family="Helvetica,sans-Serif" font-size="8.00">S&#45;2404</text>
</g>
<!-- S&#45;776&#45;&gt;S&#45;2404 -->
<g id="edge29" class="edge">
<title>S&#45;776&#45;&gt;S&#45;2404</title>
<path fill="none" stroke="dimgray" stroke-width="0.8" d="M449.67,-102.99C449.67,-102.99 449.67,-29.52 449.67,-29.52"/>
<polygon fill="dimgray" stroke="dimgray" stroke-width="0.8" points="452.12,-29.52 449.67,-22.52 447.22,-29.52 452.12,-29.52"/>
</g>
<!-- S&#45;896 -->
<g id="node24" class="node">
<title>S&#45;896</title>
<polygon fill="mediumseagreen" stroke="black" points="674.5,-36 606,-18 674.5,0 743,-18 674.5,-36"/>
<text text-anchor="middle" x="674.5" y="-16.1" font-family="Helvetica,sans-Serif" font-size="8.00">S&#45;896</text>
</g>
<!-- S&#45;776&#45;&gt;S&#45;896 -->
<g id="edge28" class="edge">
<title>S&#45;776&#45;&gt;S&#45;896</title>
<path fill="none" stroke="dimgray" stroke-width="0.8" d="M466.33,-107.53C466.33,-94.09 466.33,-55 466.33,-55 466.33,-55 631,-55 631,-55 631,-55 631,-31.79 631,-31.79"/>
<polygon fill="dimgray" stroke="dimgray" stroke-width="0.8" points="633.45,-31.79 631,-24.79 628.55,-31.79 633.45,-31.79"/>
</g>
<!-- S&#45;2174 -->
<g id="node2" class="node">
<title>S&#45;2174</title>
<polygon fill="mediumseagreen" stroke="black" points="68.5,-506 0,-488 68.5,-470 137,-488 68.5,-506"/>
<text text-anchor="middle" x="68.5" y="-486.1" font-family="Helvetica,sans-Serif" font-size="8.00">S&#45;2174</text>
</g>
<!-- S&#45;889 -->
<g id="node32" class="node">
<title>S&#45;889</title>
<polygon fill="mediumseagreen" stroke="black" points="68.5,-412 0,-394 68.5,-376 137,-394 68.5,-412"/>
<text text-anchor="middle" x="68.5" y="-392.1" font-family="Helvetica,sans-Serif" font-size="8.00">S&#45;889</text>
</g>
<!-- S&#45;2174&#45;&gt;S&#45;889 -->
<g id="edge14" class="edge">
<title>S&#45;2174&#45;&gt;S&#45;889</title>
<path fill="none" stroke="dimgray" stroke-width="0.8" d="M68.5,-469.88C68.5,-469.88 68.5,-419.07 68.5,-419.07"/>
<polygon fill="dimgray" stroke="dimgray" stroke-width="0.8" points="70.95,-419.07 68.5,-412.07 66.05,-419.07 70.95,-419.07"/>
</g>
<!-- ext_circ__NA_ -->
<g id="node55" class="node">
<title>ext_circ__NA_</title>
<polygon fill="lightpink" stroke="red" stroke-dasharray="5,2" points="1015,-1262 878,-1262 878,-1226 1015,-1226 1015,-1262"/>
<text text-anchor="middle" x="946.5" y="-1246.6" font-family="Helvetica,sans-Serif" font-size="8.00">Circuito:</text>
<text text-anchor="middle" x="946.5" y="-1237.6" font-family="Helvetica,sans-Serif" font-size="8.00">&lt;NA&gt;</text>
</g>
<!-- C&#45;1258&#45;&gt;ext_circ__NA_ -->
<g id="edge56" class="edge">
<title>C&#45;1258&#45;&gt;ext_circ__NA_</title>
<path fill="none" stroke="red" stroke-width="0.8" stroke-dasharray="5,2" d="M155,-36.28C155,-188.79 155,-1244 155,-1244 155,-1244 870.99,-1244 870.99,-1244"/>
<polygon fill="red" stroke="red" stroke-width="0.8" points="870.99,-1246.45 877.99,-1244 870.99,-1241.55 870.99,-1246.45"/>
</g>
<!-- C&#45;0522 -->
<g id="node4" class="node">
<title>C&#45;0522</title>
<ellipse fill="tomato" stroke="black" cx="1111.5" cy="-958" rx="68.5" ry="18"/>
<text text-anchor="middle" x="1111.5" y="-956.1" font-family="Helvetica,sans-Serif" font-size="8.00">C&#45;0522</text>
</g>
<!-- C&#45;0521 -->
<g id="node15" class="node">
<title>C&#45;0521</title>
<ellipse fill="mediumseagreen" stroke="black" cx="1625.5" cy="-770" rx="68.5" ry="18"/>
<text text-anchor="middle" x="1625.5" y="-768.1" font-family="Helvetica,sans-Serif" font-size="8.00">C&#45;0521</text>
</g>
<!-- C&#45;0522&#45;&gt;C&#45;0521 -->
<g id="edge53" class="edge">
<title>C&#45;0522&#45;&gt;C&#45;0521</title>
<path fill="none" stroke="blue" stroke-width="0.8" stroke-dasharray="5,2" d="M1087,-940.88C1087,-895.57 1087,-776 1087,-776 1087,-776 1553.81,-776 1553.81,-776"/>
<polygon fill="blue" stroke="blue" stroke-width="0.8" points="1553.81,-778.45 1560.81,-776 1553.81,-773.55 1553.81,-778.45"/>
</g>
<!-- S&#45;1572 -->
<g id="node48" class="node">
<title>S&#45;1572</title>
<polygon fill="mediumseagreen" stroke="black" points="1798.5,-600 1730,-582 1798.5,-564 1867,-582 1798.5,-600"/>
<text text-anchor="middle" x="1798.5" y="-580.1" font-family="Helvetica,sans-Serif" font-size="8.00">S&#45;1572</text>
</g>
<!-- C&#45;0936&#45;&gt;S&#45;1572 -->
<g id="edge57" class="edge">
<title>C&#45;0936&#45;&gt;S&#45;1572</title>
<path fill="none" stroke="blue" stroke-width="0.8" stroke-dasharray="5,2" d="M380,-29.88C380,-46.31 380,-74 380,-74 380,-74 1798.5,-74 1798.5,-74 1798.5,-74 1798.5,-556.92 1798.5,-556.92"/>
<polygon fill="blue" stroke="blue" stroke-width="0.8" points="1796.05,-556.92 1798.5,-563.92 1800.95,-556.92 1796.05,-556.92"/>
</g>
<!-- S&#45;041 -->
<g id="node6" class="node">
<title>S&#45;041</title>
<polygon fill="mediumseagreen" stroke="black" points="1284.5,-976 1216,-958 1284.5,-940 1353,-958 1284.5,-976"/>
<text text-anchor="middle" x="1284.5" y="-956.1" font-family="Helvetica,sans-Serif" font-size="8.00">S&#45;041</text>
</g>
<!-- S&#45;2173 -->
<g id="node7" class="node">
<title>S&#45;2173</title>
<polygon fill="mediumseagreen" stroke="black" points="327.5,-600 259,-582 327.5,-564 396,-582 327.5,-600"/>
<text text-anchor="middle" x="327.5" y="-580.1" font-family="Helvetica,sans-Serif" font-size="8.00">S&#45;2173</text>
</g>
<!-- S&#45;2173&#45;&gt;S&#45;2174 -->
<g id="edge12" class="edge">
<title>S&#45;2173&#45;&gt;S&#45;2174</title>
<path fill="none" stroke="dimgray" stroke-width="0.8" d="M258.77,-582C182.04,-582 68.5,-582 68.5,-582 68.5,-582 68.5,-513.12 68.5,-513.12"/>
<polygon fill="dimgray" stroke="dimgray" stroke-width="0.8" points="70.95,-513.12 68.5,-506.12 66.05,-513.12 70.95,-513.12"/>
</g>
<!-- S&#45;2226 -->
<g id="node10" class="node">
<title>S&#45;2226</title>
<polygon fill="mediumseagreen" stroke="black" points="241.5,-506 173,-488 241.5,-470 310,-488 241.5,-506"/>
<text text-anchor="middle" x="241.5" y="-486.1" font-family="Helvetica,sans-Serif" font-size="8.00">S&#45;2226</text>
</g>
<!-- S&#45;2173&#45;&gt;S&#45;2226 -->
<g id="edge13" class="edge">
<title>S&#45;2173&#45;&gt;S&#45;2226</title>
<path fill="none" stroke="dimgray" stroke-width="0.8" d="M284.5,-575.24C284.5,-575.24 284.5,-501.95 284.5,-501.95"/>
<polygon fill="dimgray" stroke="dimgray" stroke-width="0.8" points="286.95,-501.95 284.5,-494.95 282.05,-501.95 286.95,-501.95"/>
</g>
<!-- S&#45;2459 -->
<g id="node23" class="node">
<title>S&#45;2459</title>
<polygon fill="mediumseagreen" stroke="black" points="414.5,-506 346,-488 414.5,-470 483,-488 414.5,-506"/>
<text text-anchor="middle" x="414.5" y="-486.1" font-family="Helvetica,sans-Serif" font-size="8.00">S&#45;2459</text>
</g>
<!-- S&#45;2173&#45;&gt;S&#45;2459 -->
<g id="edge11" class="edge">
<title>S&#45;2173&#45;&gt;S&#45;2459</title>
<path fill="none" stroke="dimgray" stroke-width="0.8" d="M371,-575.24C371,-575.24 371,-501.7 371,-501.7"/>
<polygon fill="dimgray" stroke="dimgray" stroke-width="0.8" points="373.45,-501.7 371,-494.7 368.55,-501.7 373.45,-501.7"/>
</g>
<!-- C&#45;0948 -->
<g id="node8" class="node">
<title>C&#45;0948</title>
<ellipse fill="tomato" stroke="black" cx="2008.5" cy="-676" rx="68.5" ry="18"/>
<text text-anchor="middle" x="2008.5" y="-674.1" font-family="Helvetica,sans-Serif" font-size="8.00">C&#45;0948</text>
</g>
<!-- C&#45;0947 -->
<g id="node50" class="node">
<title>C&#45;0947</title>
<ellipse fill="mediumseagreen" stroke="black" cx="2219.5" cy="-488" rx="68.5" ry="18"/>
<text text-anchor="middle" x="2219.5" y="-486.1" font-family="Helvetica,sans-Serif" font-size="8.00">C&#45;0947</text>
</g>
<!-- C&#45;0948&#45;&gt;C&#45;0947 -->
<g id="edge60" class="edge">
<title>C&#45;0948&#45;&gt;C&#45;0947</title>
<path fill="none" stroke="blue" stroke-width="0.8" stroke-dasharray="5,2" d="M2070.5,-667.92C2070.5,-631.94 2070.5,-488 2070.5,-488 2070.5,-488 2143.67,-488 2143.67,-488"/>
<polygon fill="blue" stroke="blue" stroke-width="0.8" points="2143.67,-490.45 2150.67,-488 2143.67,-485.55 2143.67,-490.45"/>
</g>
<!-- C&#45;0174 -->
<g id="node9" class="node">
<title>C&#45;0174</title>
<ellipse fill="mediumseagreen" stroke="black" cx="933.5" cy="-488" rx="68.5" ry="18"/>
<text text-anchor="middle" x="933.5" y="-486.1" font-family="Helvetica,sans-Serif" font-size="8.00">C&#45;0174</text>
</g>
<!-- C&#45;1217 -->
<g id="node53" class="node">
<title>C&#45;1217</title>
<ellipse fill="mediumseagreen" stroke="black" cx="933.5" cy="-394" rx="68.5" ry="18"/>
<text text-anchor="middle" x="933.5" y="-392.1" font-family="Helvetica,sans-Serif" font-size="8.00">C&#45;1217</text>
</g>
<!-- C&#45;0174&#45;&gt;C&#45;1217 -->
<g id="edge18" class="edge">
<title>C&#45;0174&#45;&gt;C&#45;1217</title>
<path fill="none" stroke="dimgray" stroke-width="0.8" d="M933.5,-469.88C933.5,-469.88 933.5,-419.07 933.5,-419.07"/>
<polygon fill="dimgray" stroke="dimgray" stroke-width="0.8" points="935.95,-419.07 933.5,-412.07 931.05,-419.07 935.95,-419.07"/>
</g>
<!-- C&#45;0292 -->
<g id="node11" class="node">
<title>C&#45;0292</title>
<ellipse fill="mediumseagreen" stroke="black" cx="760.5" cy="-582" rx="68.5" ry="18"/>
<text text-anchor="middle" x="760.5" y="-580.1" font-family="Helvetica,sans-Serif" font-size="8.00">C&#45;0292</text>
</g>
<!-- C&#45;1042 -->
<g id="node16" class="node">
<title>C&#45;1042</title>
<ellipse fill="mediumseagreen" stroke="black" cx="587.5" cy="-488" rx="68.5" ry="18"/>
<text text-anchor="middle" x="587.5" y="-486.1" font-family="Helvetica,sans-Serif" font-size="8.00">C&#45;1042</text>
</g>
<!-- C&#45;0292&#45;&gt;C&#45;1042 -->
<g id="edge23" class="edge">
<title>C&#45;0292&#45;&gt;C&#45;1042</title>
<path fill="none" stroke="dimgray" stroke-width="0.8" d="M691.63,-582C643.38,-582 587.5,-582 587.5,-582 587.5,-582 587.5,-513.12 587.5,-513.12"/>
<polygon fill="dimgray" stroke="dimgray" stroke-width="0.8" points="589.95,-513.12 587.5,-506.12 585.05,-513.12 589.95,-513.12"/>
</g>
<!-- C&#45;1041 -->
<g id="node19" class="node">
<title>C&#45;1041</title>
<ellipse fill="tomato" stroke="black" cx="760.5" cy="-488" rx="68.5" ry="18"/>
<text text-anchor="middle" x="760.5" y="-486.1" font-family="Helvetica,sans-Serif" font-size="8.00">C&#45;1041</text>
</g>
<!-- C&#45;0292&#45;&gt;C&#45;1041 -->
<g id="edge22" class="edge">
<title>C&#45;0292&#45;&gt;C&#45;1041</title>
<path fill="none" stroke="dimgray" stroke-width="0.8" d="M760.5,-563.88C760.5,-563.88 760.5,-513.07 760.5,-513.07"/>
<polygon fill="dimgray" stroke="dimgray" stroke-width="0.8" points="762.95,-513.07 760.5,-506.07 758.05,-513.07 762.95,-513.07"/>
</g>
<!-- C&#45;1032 -->
<g id="node12" class="node">
<title>C&#45;1032</title>
<ellipse fill="mediumseagreen" stroke="black" cx="933.5" cy="-582" rx="68.5" ry="18"/>
<text text-anchor="middle" x="933.5" y="-580.1" font-family="Helvetica,sans-Serif" font-size="8.00">C&#45;1032</text>
</g>
<!-- C&#45;1032&#45;&gt;C&#45;0174 -->
<g id="edge17" class="edge">
<title>C&#45;1032&#45;&gt;C&#45;0174</title>
<path fill="none" stroke="dimgray" stroke-width="0.8" d="M933.5,-563.88C933.5,-563.88 933.5,-513.07 933.5,-513.07"/>
<polygon fill="dimgray" stroke="dimgray" stroke-width="0.8" points="935.95,-513.07 933.5,-506.07 931.05,-513.07 935.95,-513.07"/>
</g>
<!-- R&#45;300 -->
<g id="node13" class="node">
<title>R&#45;300</title>
<polygon fill="tomato" stroke="black" points="1002,-292.54 1002,-307.46 961.87,-318 905.13,-318 865,-307.46 865,-292.54 905.13,-282 961.87,-282 1002,-292.54"/>
<text text-anchor="middle" x="933.5" y="-298.1" font-family="Helvetica,sans-Serif" font-size="8.00">R&#45;300</text>
</g>
<!-- ext_circ_109_25_ -->
<g id="node54" class="node">
<title>ext_circ_109_25_</title>
<polygon fill="lightpink" stroke="red" stroke-dasharray="5,2" points="1280,-1262 1143,-1262 1143,-1226 1280,-1226 1280,-1262"/>
<text text-anchor="middle" x="1211.5" y="-1246.6" font-family="Helvetica,sans-Serif" font-size="8.00">Circuito:</text>
<text text-anchor="middle" x="1211.5" y="-1237.6" font-family="Helvetica,sans-Serif" font-size="8.00">109&#45;25&#45;</text>
</g>
<!-- R&#45;300&#45;&gt;ext_circ_109_25_ -->
<g id="edge54" class="edge">
<title>R&#45;300&#45;&gt;ext_circ_109_25_</title>
<path fill="none" stroke="red" stroke-width="0.8" stroke-dasharray="5,2" d="M1002.34,-300C1079.96,-300 1195.5,-300 1195.5,-300 1195.5,-300 1195.5,-1218.99 1195.5,-1218.99"/>
<polygon fill="red" stroke="red" stroke-width="0.8" points="1193.05,-1218.99 1195.5,-1225.99 1197.95,-1218.99 1193.05,-1218.99"/>
</g>
<!-- S&#45;599 -->
<g id="node14" class="node">
<title>S&#45;599</title>
<polygon fill="mediumseagreen" stroke="black" points="1106.5,-506 1038,-488 1106.5,-470 1175,-488 1106.5,-506"/>
<text text-anchor="middle" x="1106.5" y="-486.1" font-family="Helvetica,sans-Serif" font-size="8.00">S&#45;599</text>
</g>
<!-- C&#45;0446 -->
<g id="node51" class="node">
<title>C&#45;0446</title>
<ellipse fill="mediumseagreen" stroke="black" cx="933.5" cy="-676" rx="68.5" ry="18"/>
<text text-anchor="middle" x="933.5" y="-674.1" font-family="Helvetica,sans-Serif" font-size="8.00">C&#45;0446</text>
</g>
<!-- C&#45;0521&#45;&gt;C&#45;0446 -->
<g id="edge9" class="edge">
<title>C&#45;0521&#45;&gt;C&#45;0446</title>
<path fill="none" stroke="dimgray" stroke-width="0.8" d="M1560.7,-764C1389.82,-764 940,-764 940,-764 940,-764 940,-701.23 940,-701.23"/>
<polygon fill="dimgray" stroke="dimgray" stroke-width="0.8" points="942.45,-701.23 940,-694.23 937.55,-701.23 942.45,-701.23"/>
</g>
<!-- C&#45;0517 -->
<g id="node52" class="node">
<title>C&#45;0517</title>
<ellipse fill="mediumseagreen" stroke="black" cx="1625.5" cy="-676" rx="68.5" ry="18"/>
<text text-anchor="middle" x="1625.5" y="-674.1" font-family="Helvetica,sans-Serif" font-size="8.00">C&#45;0517</text>
</g>
<!-- C&#45;0521&#45;&gt;C&#45;0517 -->
<g id="edge34" class="edge">
<title>C&#45;0521&#45;&gt;C&#45;0517</title>
<path fill="none" stroke="dimgray" stroke-width="0.8" d="M1625.5,-751.88C1625.5,-751.88 1625.5,-701.07 1625.5,-701.07"/>
<polygon fill="dimgray" stroke="dimgray" stroke-width="0.8" points="1627.95,-701.07 1625.5,-694.07 1623.05,-701.07 1627.95,-701.07"/>
</g>
<!-- R&#45;253 -->
<g id="node44" class="node">
<title>R&#45;253</title>
<polygon fill="mediumseagreen" stroke="black" points="656,-386.54 656,-401.46 615.87,-412 559.13,-412 519,-401.46 519,-386.54 559.13,-376 615.87,-376 656,-386.54"/>
<text text-anchor="middle" x="587.5" y="-392.1" font-family="Helvetica,sans-Serif" font-size="8.00">R&#45;253</text>
</g>
<!-- C&#45;1042&#45;&gt;R&#45;253 -->
<g id="edge24" class="edge">
<title>C&#45;1042&#45;&gt;R&#45;253</title>
<path fill="none" stroke="dimgray" stroke-width="0.8" d="M587.5,-469.88C587.5,-469.88 587.5,-419.07 587.5,-419.07"/>
<polygon fill="dimgray" stroke="dimgray" stroke-width="0.8" points="589.95,-419.07 587.5,-412.07 585.05,-419.07 589.95,-419.07"/>
</g>
<!-- C&#45;1040 -->
<g id="node17" class="node">
<title>C&#45;1040</title>
<ellipse fill="mediumseagreen" stroke="black" cx="587.5" cy="-300" rx="68.5" ry="18"/>
<text text-anchor="middle" x="587.5" y="-298.1" font-family="Helvetica,sans-Serif" font-size="8.00">C&#45;1040</text>
</g>
<!-- C&#45;0640 -->
<g id="node22" class="node">
<title>C&#45;0640</title>
<ellipse fill="mediumseagreen" stroke="black" cx="587.5" cy="-206" rx="68.5" ry="18"/>
<text text-anchor="middle" x="587.5" y="-204.1" font-family="Helvetica,sans-Serif" font-size="8.00">C&#45;0640</text>
</g>
<!-- C&#45;1040&#45;&gt;C&#45;0640 -->
<g id="edge26" class="edge">
<title>C&#45;1040&#45;&gt;C&#45;0640</title>
<path fill="none" stroke="dimgray" stroke-width="0.8" d="M587.5,-281.88C587.5,-281.88 587.5,-231.07 587.5,-231.07"/>
<polygon fill="dimgray" stroke="dimgray" stroke-width="0.8" points="589.95,-231.07 587.5,-224.07 585.05,-231.07 589.95,-231.07"/>
</g>
<!-- 113&#45;23&#45; -->
<g id="node18" class="node">
<title>113&#45;23&#45;</title>
<polygon fill="gold" stroke="black" points="1699,-1236.54 1699,-1251.46 1658.87,-1262 1602.13,-1262 1562,-1251.46 1562,-1236.54 1602.13,-1226 1658.87,-1226 1699,-1236.54"/>
<polygon fill="none" stroke="black" points="1703,-1233.46 1703,-1254.54 1659.39,-1266 1601.61,-1266 1558,-1254.54 1558,-1233.46 1601.61,-1222 1659.39,-1222 1703,-1233.46"/>
<text text-anchor="middle" x="1630.5" y="-1242.1" font-family="Helvetica,sans-Serif" font-size="8.00">113&#45;23&#45;</text>
</g>
<!-- C&#45;0784 -->
<g id="node42" class="node">
<title>C&#45;0784</title>
<ellipse fill="mediumseagreen" stroke="black" cx="1630.5" cy="-1146" rx="68.5" ry="18"/>
<text text-anchor="middle" x="1630.5" y="-1144.1" font-family="Helvetica,sans-Serif" font-size="8.00">C&#45;0784</text>
</g>
<!-- 113&#45;23&#45;&#45;&gt;C&#45;0784 -->
<g id="edge1" class="edge">
<title>113&#45;23&#45;&#45;&gt;C&#45;0784</title>
<path fill="none" stroke="dimgray" stroke-width="0.8" d="M1630.5,-1221.76C1630.5,-1221.76 1630.5,-1171.21 1630.5,-1171.21"/>
<polygon fill="dimgray" stroke="dimgray" stroke-width="0.8" points="1632.95,-1171.21 1630.5,-1164.21 1628.05,-1171.21 1632.95,-1171.21"/>
</g>
<!-- C&#45;1041&#45;&gt;C&#45;1040 -->
<g id="edge55" class="edge">
<title>C&#45;1041&#45;&gt;C&#45;1040</title>
<path fill="none" stroke="blue" stroke-width="0.8" stroke-dasharray="5,2" d="M737.67,-470.98C737.67,-424.71 737.67,-300 737.67,-300 737.67,-300 663.43,-300 663.43,-300"/>
<polygon fill="blue" stroke="blue" stroke-width="0.8" points="663.43,-297.55 656.43,-300 663.43,-302.45 663.43,-297.55"/>
</g>
<!-- C&#45;0398 -->
<g id="node21" class="node">
<title>C&#45;0398</title>
<ellipse fill="tomato" stroke="black" cx="1457.5" cy="-958" rx="68.5" ry="18"/>
<text text-anchor="middle" x="1457.5" y="-956.1" font-family="Helvetica,sans-Serif" font-size="8.00">C&#45;0398</text>
</g>
<!-- C&#45;0400 -->
<g id="node43" class="node">
<title>C&#45;0400</title>
<ellipse fill="mediumseagreen" stroke="black" cx="2008.5" cy="-770" rx="68.5" ry="18"/>
<text text-anchor="middle" x="2008.5" y="-768.1" font-family="Helvetica,sans-Serif" font-size="8.00">C&#45;0400</text>
</g>
<!-- C&#45;0398&#45;&gt;C&#45;0400 -->
<g id="edge58" class="edge">
<title>C&#45;0398&#45;&gt;C&#45;0400</title>
<path fill="none" stroke="blue" stroke-width="0.8" stroke-dasharray="5,2" d="M1433,-940.99C1433,-903.49 1433,-817 1433,-817 1433,-817 1978.67,-817 1978.67,-817 1978.67,-817 1978.67,-793.44 1978.67,-793.44"/>
<polygon fill="blue" stroke="blue" stroke-width="0.8" points="1981.12,-793.44 1978.67,-786.44 1976.22,-793.44 1981.12,-793.44"/>
</g>
<!-- C&#45;0640&#45;&gt;S&#45;776 -->
<g id="edge27" class="edge">
<title>C&#45;0640&#45;&gt;S&#45;776</title>
<path fill="none" stroke="dimgray" stroke-width="0.8" d="M518.63,-206C470.38,-206 414.5,-206 414.5,-206 414.5,-206 414.5,-137.12 414.5,-137.12"/>
<polygon fill="dimgray" stroke="dimgray" stroke-width="0.8" points="416.95,-137.12 414.5,-130.12 412.05,-137.12 416.95,-137.12"/>
</g>
<!-- S&#45;107 -->
<g id="node30" class="node">
<title>S&#45;107</title>
<polygon fill="mediumseagreen" stroke="black" points="587.5,-130 519,-112 587.5,-94 656,-112 587.5,-130"/>
<text text-anchor="middle" x="587.5" y="-110.1" font-family="Helvetica,sans-Serif" font-size="8.00">S&#45;107</text>
</g>
<!-- C&#45;0640&#45;&gt;S&#45;107 -->
<g id="edge33" class="edge">
<title>C&#45;0640&#45;&gt;S&#45;107</title>
<path fill="none" stroke="dimgray" stroke-width="0.8" d="M587.5,-187.88C587.5,-187.88 587.5,-137.07 587.5,-137.07"/>
<polygon fill="dimgray" stroke="dimgray" stroke-width="0.8" points="589.95,-137.07 587.5,-130.07 585.05,-137.07 589.95,-137.07"/>
</g>
<!-- S&#45;1894 -->
<g id="node31" class="node">
<title>S&#45;1894</title>
<polygon fill="mediumseagreen" stroke="black" points="760.5,-130 692,-112 760.5,-94 829,-112 760.5,-130"/>
<text text-anchor="middle" x="760.5" y="-110.1" font-family="Helvetica,sans-Serif" font-size="8.00">S&#45;1894</text>
</g>
<!-- C&#45;0640&#45;&gt;S&#45;1894 -->
<g id="edge32" class="edge">
<title>C&#45;0640&#45;&gt;S&#45;1894</title>
<path fill="none" stroke="dimgray" stroke-width="0.8" d="M656.27,-206C712.7,-206 783.33,-206 783.33,-206 783.33,-206 783.33,-131.29 783.33,-131.29"/>
<polygon fill="dimgray" stroke="dimgray" stroke-width="0.8" points="785.78,-131.29 783.33,-124.29 780.88,-131.29 785.78,-131.29"/>
</g>
<!-- C&#45;0949 -->
<g id="node25" class="node">
<title>C&#45;0949</title>
<ellipse fill="mediumseagreen" stroke="black" cx="2181.5" cy="-676" rx="68.5" ry="18"/>
<text text-anchor="middle" x="2181.5" y="-674.1" font-family="Helvetica,sans-Serif" font-size="8.00">C&#45;0949</text>
</g>
<!-- R&#45;222 -->
<g id="node38" class="node">
<title>R&#45;222</title>
<polygon fill="mediumseagreen" stroke="black" points="2288,-574.54 2288,-589.46 2247.87,-600 2191.13,-600 2151,-589.46 2151,-574.54 2191.13,-564 2247.87,-564 2288,-574.54"/>
<text text-anchor="middle" x="2219.5" y="-580.1" font-family="Helvetica,sans-Serif" font-size="8.00">R&#45;222</text>
</g>
<!-- C&#45;0949&#45;&gt;R&#45;222 -->
<g id="edge48" class="edge">
<title>C&#45;0949&#45;&gt;R&#45;222</title>
<path fill="none" stroke="dimgray" stroke-width="0.8" d="M2200.5,-658.32C2200.5,-658.32 2200.5,-607.24 2200.5,-607.24"/>
<polygon fill="dimgray" stroke="dimgray" stroke-width="0.8" points="2202.95,-607.24 2200.5,-600.24 2198.05,-607.24 2202.95,-607.24"/>
</g>
<!-- R&#45;027 -->
<g id="node26" class="node">
<title>R&#45;027</title>
<polygon fill="mediumseagreen" stroke="black" points="1778,-856.54 1778,-871.46 1737.87,-882 1681.13,-882 1641,-871.46 1641,-856.54 1681.13,-846 1737.87,-846 1778,-856.54"/>
<text text-anchor="middle" x="1709.5" y="-862.1" font-family="Helvetica,sans-Serif" font-size="8.00">R&#45;027</text>
</g>
<!-- R&#45;027&#45;&gt;C&#45;0521 -->
<g id="edge8" class="edge">
<title>R&#45;027&#45;&gt;C&#45;0521</title>
<path fill="none" stroke="dimgray" stroke-width="0.8" d="M1667.5,-849.31C1667.5,-849.31 1667.5,-791.28 1667.5,-791.28"/>
<polygon fill="dimgray" stroke="dimgray" stroke-width="0.8" points="1669.95,-791.28 1667.5,-784.28 1665.05,-791.28 1669.95,-791.28"/>
</g>
<!-- S&#45;1787 -->
<g id="node27" class="node">
<title>S&#45;1787</title>
<polygon fill="mediumseagreen" stroke="black" points="1630.5,-976 1562,-958 1630.5,-940 1699,-958 1630.5,-976"/>
<text text-anchor="middle" x="1630.5" y="-956.1" font-family="Helvetica,sans-Serif" font-size="8.00">S&#45;1787</text>
</g>
<!-- R&#45;136 -->
<g id="node28" class="node">
<title>R&#45;136</title>
<polygon fill="mediumseagreen" stroke="black" points="2056,-856.54 2056,-871.46 2015.87,-882 1959.13,-882 1919,-871.46 1919,-856.54 1959.13,-846 2015.87,-846 2056,-856.54"/>
<text text-anchor="middle" x="1987.5" y="-862.1" font-family="Helvetica,sans-Serif" font-size="8.00">R&#45;136</text>
</g>
<!-- R&#45;136&#45;&gt;C&#45;0400 -->
<g id="edge43" class="edge">
<title>R&#45;136&#45;&gt;C&#45;0400</title>
<path fill="none" stroke="dimgray" stroke-width="0.8" d="M2017.33,-846.32C2017.33,-846.32 2017.33,-794.92 2017.33,-794.92"/>
<polygon fill="dimgray" stroke="dimgray" stroke-width="0.8" points="2019.78,-794.92 2017.33,-787.92 2014.88,-794.92 2019.78,-794.92"/>
</g>
<!-- C&#45;0826 -->
<g id="node29" class="node">
<title>C&#45;0826</title>
<ellipse fill="mediumseagreen" stroke="black" cx="2132.5" cy="-394" rx="68.5" ry="18"/>
<text text-anchor="middle" x="2132.5" y="-392.1" font-family="Helvetica,sans-Serif" font-size="8.00">C&#45;0826</text>
</g>
<!-- S&#45;2473 -->
<g id="node33" class="node">
<title>S&#45;2473</title>
<polygon fill="mediumseagreen" stroke="black" points="1279.5,-600 1211,-582 1279.5,-564 1348,-582 1279.5,-600"/>
<text text-anchor="middle" x="1279.5" y="-580.1" font-family="Helvetica,sans-Serif" font-size="8.00">S&#45;2473</text>
</g>
<!-- C&#45;0104 -->
<g id="node34" class="node">
<title>C&#45;0104</title>
<ellipse fill="tomato" stroke="black" cx="1835.5" cy="-676" rx="68.5" ry="18"/>
<text text-anchor="middle" x="1835.5" y="-674.1" font-family="Helvetica,sans-Serif" font-size="8.00">C&#45;0104</text>
</g>
<!-- ext_circ_113_26_ -->
<g id="node56" class="node">
<title>ext_circ_113_26_</title>
<polygon fill="lightpink" stroke="red" stroke-dasharray="5,2" points="1499,-1262 1362,-1262 1362,-1226 1499,-1226 1499,-1262"/>
<text text-anchor="middle" x="1430.5" y="-1246.6" font-family="Helvetica,sans-Serif" font-size="8.00">Circuito:</text>
<text text-anchor="middle" x="1430.5" y="-1237.6" font-family="Helvetica,sans-Serif" font-size="8.00">113&#45;26&#45;</text>
</g>
<!-- C&#45;0104&#45;&gt;ext_circ_113_26_ -->
<g id="edge59" class="edge">
<title>C&#45;0104&#45;&gt;ext_circ_113_26_</title>
<path fill="none" stroke="red" stroke-width="0.8" stroke-dasharray="5,2" d="M1772.5,-683.34C1772.5,-696.56 1772.5,-723 1772.5,-723 1772.5,-723 1373,-723 1373,-723 1373,-723 1373,-1218.76 1373,-1218.76"/>
<polygon fill="red" stroke="red" stroke-width="0.8" points="1370.55,-1218.76 1373,-1225.76 1375.45,-1218.76 1370.55,-1218.76"/>
</g>
<!-- C&#45;0523 -->
<g id="node35" class="node">
<title>C&#45;0523</title>
<ellipse fill="mediumseagreen" stroke="black" cx="1803.5" cy="-958" rx="68.5" ry="18"/>
<text text-anchor="middle" x="1803.5" y="-956.1" font-family="Helvetica,sans-Serif" font-size="8.00">C&#45;0523</text>
</g>
<!-- C&#45;0523&#45;&gt;R&#45;027 -->
<g id="edge7" class="edge">
<title>C&#45;0523&#45;&gt;R&#45;027</title>
<path fill="none" stroke="dimgray" stroke-width="0.8" d="M1756.5,-944.53C1756.5,-944.53 1756.5,-884.14 1756.5,-884.14"/>
<polygon fill="dimgray" stroke="dimgray" stroke-width="0.8" points="1758.95,-884.14 1756.5,-877.14 1754.05,-884.14 1758.95,-884.14"/>
</g>
<!-- C&#45;0399 -->
<g id="node36" class="node">
<title>C&#45;0399</title>
<ellipse fill="mediumseagreen" stroke="black" cx="1976.5" cy="-958" rx="68.5" ry="18"/>
<text text-anchor="middle" x="1976.5" y="-956.1" font-family="Helvetica,sans-Serif" font-size="8.00">C&#45;0399</text>
</g>
<!-- C&#45;0399&#45;&gt;R&#45;136 -->
<g id="edge42" class="edge">
<title>C&#45;0399&#45;&gt;R&#45;136</title>
<path fill="none" stroke="dimgray" stroke-width="0.8" d="M1982,-939.88C1982,-939.88 1982,-889.07 1982,-889.07"/>
<polygon fill="dimgray" stroke="dimgray" stroke-width="0.8" points="1984.45,-889.07 1982,-882.07 1979.55,-889.07 1984.45,-889.07"/>
</g>
<!-- S&#45;2474 -->
<g id="node37" class="node">
<title>S&#45;2474</title>
<polygon fill="mediumseagreen" stroke="black" points="1452.5,-600 1384,-582 1452.5,-564 1521,-582 1452.5,-600"/>
<text text-anchor="middle" x="1452.5" y="-580.1" font-family="Helvetica,sans-Serif" font-size="8.00">S&#45;2474</text>
</g>
<!-- R&#45;222&#45;&gt;C&#45;0947 -->
<g id="edge49" class="edge">
<title>R&#45;222&#45;&gt;C&#45;0947</title>
<path fill="none" stroke="dimgray" stroke-width="0.8" d="M2219.5,-563.88C2219.5,-563.88 2219.5,-513.07 2219.5,-513.07"/>
<polygon fill="dimgray" stroke="dimgray" stroke-width="0.8" points="2221.95,-513.07 2219.5,-506.07 2217.05,-513.07 2221.95,-513.07"/>
</g>
<!-- C&#45;0808 -->
<g id="node39" class="node">
<title>C&#45;0808</title>
<ellipse fill="mediumseagreen" stroke="black" cx="1630.5" cy="-1052" rx="68.5" ry="18"/>
<text text-anchor="middle" x="1630.5" y="-1050.1" font-family="Helvetica,sans-Serif" font-size="8.00">C&#45;0808</text>
</g>
<!-- C&#45;0808&#45;&gt;C&#45;0522 -->
<g id="edge5" class="edge">
<title>C&#45;0808&#45;&gt;C&#45;0522</title>
<path fill="none" stroke="dimgray" stroke-width="0.8" d="M1571.1,-1061C1444.9,-1061 1161.5,-1061 1161.5,-1061 1161.5,-1061 1161.5,-977.63 1161.5,-977.63"/>
<polygon fill="dimgray" stroke="dimgray" stroke-width="0.8" points="1163.95,-977.63 1161.5,-970.63 1159.05,-977.63 1163.95,-977.63"/>
</g>
<!-- C&#45;0808&#45;&gt;S&#45;041 -->
<g id="edge52" class="edge">
<title>C&#45;0808&#45;&gt;S&#45;041</title>
<path fill="none" stroke="dimgray" stroke-width="0.8" d="M1561.98,-1052C1469.59,-1052 1316.5,-1052 1316.5,-1052 1316.5,-1052 1316.5,-974.71 1316.5,-974.71"/>
<polygon fill="dimgray" stroke="dimgray" stroke-width="0.8" points="1318.95,-974.71 1316.5,-967.71 1314.05,-974.71 1318.95,-974.71"/>
</g>
<!-- C&#45;0808&#45;&gt;C&#45;0398 -->
<g id="edge40" class="edge">
<title>C&#45;0808&#45;&gt;C&#45;0398</title>
<path fill="none" stroke="dimgray" stroke-width="0.8" d="M1571.15,-1043C1541.77,-1043 1512.5,-1043 1512.5,-1043 1512.5,-1043 1512.5,-975.77 1512.5,-975.77"/>
<polygon fill="dimgray" stroke="dimgray" stroke-width="0.8" points="1514.95,-975.77 1512.5,-968.77 1510.05,-975.77 1514.95,-975.77"/>
</g>
<!-- C&#45;0808&#45;&gt;S&#45;1787 -->
<g id="edge4" class="edge">
<title>C&#45;0808&#45;&gt;S&#45;1787</title>
<path fill="none" stroke="dimgray" stroke-width="0.8" d="M1630.5,-1033.88C1630.5,-1033.88 1630.5,-983.07 1630.5,-983.07"/>
<polygon fill="dimgray" stroke="dimgray" stroke-width="0.8" points="1632.95,-983.07 1630.5,-976.07 1628.05,-983.07 1632.95,-983.07"/>
</g>
<!-- C&#45;0808&#45;&gt;C&#45;0523 -->
<g id="edge6" class="edge">
<title>C&#45;0808&#45;&gt;C&#45;0523</title>
<path fill="none" stroke="dimgray" stroke-width="0.8" d="M1690.04,-1043C1740.08,-1043 1803.5,-1043 1803.5,-1043 1803.5,-1043 1803.5,-983.03 1803.5,-983.03"/>
<polygon fill="dimgray" stroke="dimgray" stroke-width="0.8" points="1805.95,-983.03 1803.5,-976.03 1801.05,-983.03 1805.95,-983.03"/>
</g>
<!-- C&#45;0808&#45;&gt;C&#45;0399 -->
<g id="edge41" class="edge">
<title>C&#45;0808&#45;&gt;C&#45;0399</title>
<path fill="none" stroke="dimgray" stroke-width="0.8" d="M1699.27,-1052C1800.18,-1052 1976.5,-1052 1976.5,-1052 1976.5,-1052 1976.5,-983.12 1976.5,-983.12"/>
<polygon fill="dimgray" stroke="dimgray" stroke-width="0.8" points="1978.95,-983.12 1976.5,-976.12 1974.05,-983.12 1978.95,-983.12"/>
</g>
<!-- S&#45;039 -->
<g id="node40" class="node">
<title>S&#45;039</title>
<polygon fill="mediumseagreen" stroke="black" points="2149.5,-976 2081,-958 2149.5,-940 2218,-958 2149.5,-976"/>
<text text-anchor="middle" x="2149.5" y="-956.1" font-family="Helvetica,sans-Serif" font-size="8.00">S&#45;039</text>
</g>
<!-- C&#45;0808&#45;&gt;S&#45;039 -->
<g id="edge3" class="edge">
<title>C&#45;0808&#45;&gt;S&#45;039</title>
<path fill="none" stroke="dimgray" stroke-width="0.8" d="M1690.04,-1061C1826.36,-1061 2149.5,-1061 2149.5,-1061 2149.5,-1061 2149.5,-983.41 2149.5,-983.41"/>
<polygon fill="dimgray" stroke="dimgray" stroke-width="0.8" points="2151.95,-983.41 2149.5,-976.41 2147.05,-983.41 2151.95,-983.41"/>
</g>
<!-- S&#45;1833 -->
<g id="node41" class="node">
<title>S&#45;1833</title>
<polygon fill="mediumseagreen" stroke="black" points="1625.5,-600 1557,-582 1625.5,-564 1694,-582 1625.5,-600"/>
<text text-anchor="middle" x="1625.5" y="-580.1" font-family="Helvetica,sans-Serif" font-size="8.00">S&#45;1833</text>
</g>
<!-- C&#45;0784&#45;&gt;C&#45;0808 -->
<g id="edge2" class="edge">
<title>C&#45;0784&#45;&gt;C&#45;0808</title>
<path fill="none" stroke="dimgray" stroke-width="0.8" d="M1630.5,-1127.88C1630.5,-1127.88 1630.5,-1077.07 1630.5,-1077.07"/>
<polygon fill="dimgray" stroke="dimgray" stroke-width="0.8" points="1632.95,-1077.07 1630.5,-1070.07 1628.05,-1077.07 1632.95,-1077.07"/>
</g>
<!-- C&#45;0400&#45;&gt;C&#45;0948 -->
<g id="edge46" class="edge">
<title>C&#45;0400&#45;&gt;C&#45;0948</title>
<path fill="none" stroke="dimgray" stroke-width="0.8" d="M2008.5,-751.88C2008.5,-751.88 2008.5,-701.07 2008.5,-701.07"/>
<polygon fill="dimgray" stroke="dimgray" stroke-width="0.8" points="2010.95,-701.07 2008.5,-694.07 2006.05,-701.07 2010.95,-701.07"/>
</g>
<!-- C&#45;0400&#45;&gt;C&#45;0949 -->
<g id="edge47" class="edge">
<title>C&#45;0400&#45;&gt;C&#45;0949</title>
<path fill="none" stroke="dimgray" stroke-width="0.8" d="M2073.26,-764C2116.51,-764 2165.5,-764 2165.5,-764 2165.5,-764 2165.5,-700.81 2165.5,-700.81"/>
<polygon fill="dimgray" stroke="dimgray" stroke-width="0.8" points="2167.95,-700.81 2165.5,-693.81 2163.05,-700.81 2167.95,-700.81"/>
</g>
<!-- C&#45;0400&#45;&gt;C&#45;0104 -->
<g id="edge44" class="edge">
<title>C&#45;0400&#45;&gt;C&#45;0104</title>
<path fill="none" stroke="dimgray" stroke-width="0.8" d="M1939.8,-770C1912.74,-770 1888,-770 1888,-770 1888,-770 1888,-694.91 1888,-694.91"/>
<polygon fill="dimgray" stroke="dimgray" stroke-width="0.8" points="1890.45,-694.91 1888,-687.91 1885.55,-694.91 1890.45,-694.91"/>
</g>
<!-- S&#45;1899 -->
<g id="node45" class="node">
<title>S&#45;1899</title>
<polygon fill="mediumseagreen" stroke="black" points="2354.5,-694 2286,-676 2354.5,-658 2423,-676 2354.5,-694"/>
<text text-anchor="middle" x="2354.5" y="-674.1" font-family="Helvetica,sans-Serif" font-size="8.00">S&#45;1899</text>
</g>
<!-- C&#45;0400&#45;&gt;S&#45;1899 -->
<g id="edge45" class="edge">
<title>C&#45;0400&#45;&gt;S&#45;1899</title>
<path fill="none" stroke="dimgray" stroke-width="0.8" d="M2073.17,-776C2173.32,-776 2354.5,-776 2354.5,-776 2354.5,-776 2354.5,-701.34 2354.5,-701.34"/>
<polygon fill="dimgray" stroke="dimgray" stroke-width="0.8" points="2356.95,-701.34 2354.5,-694.34 2352.05,-701.34 2356.95,-701.34"/>
</g>
<!-- R&#45;253&#45;&gt;C&#45;1040 -->
<g id="edge25" class="edge">
<title>R&#45;253&#45;&gt;C&#45;1040</title>
<path fill="none" stroke="dimgray" stroke-width="0.8" d="M587.5,-375.88C587.5,-375.88 587.5,-325.07 587.5,-325.07"/>
<polygon fill="dimgray" stroke="dimgray" stroke-width="0.8" points="589.95,-325.07 587.5,-318.07 585.05,-325.07 589.95,-325.07"/>
</g>
<!-- S&#45;2367 -->
<g id="node46" class="node">
<title>S&#45;2367</title>
<polygon fill="mediumseagreen" stroke="black" points="1106.5,-600 1038,-582 1106.5,-564 1175,-582 1106.5,-600"/>
<text text-anchor="middle" x="1106.5" y="-580.1" font-family="Helvetica,sans-Serif" font-size="8.00">S&#45;2367</text>
</g>
<!-- S&#45;2367&#45;&gt;S&#45;599 -->
<g id="edge20" class="edge">
<title>S&#45;2367&#45;&gt;S&#45;599</title>
<path fill="none" stroke="dimgray" stroke-width="0.8" d="M1106.5,-563.88C1106.5,-563.88 1106.5,-513.07 1106.5,-513.07"/>
<polygon fill="dimgray" stroke="dimgray" stroke-width="0.8" points="1108.95,-513.07 1106.5,-506.07 1104.05,-513.07 1108.95,-513.07"/>
</g>
<!-- S&#45;1506 -->
<g id="node47" class="node">
<title>S&#45;1506</title>
<polygon fill="mediumseagreen" stroke="black" points="2305.5,-412 2237,-394 2305.5,-376 2374,-394 2305.5,-412"/>
<text text-anchor="middle" x="2305.5" y="-392.1" font-family="Helvetica,sans-Serif" font-size="8.00">S&#45;1506</text>
</g>
<!-- S&#45;1933 -->
<g id="node49" class="node">
<title>S&#45;1933</title>
<polygon fill="mediumseagreen" stroke="black" points="1971.5,-600 1903,-582 1971.5,-564 2040,-582 1971.5,-600"/>
<text text-anchor="middle" x="1971.5" y="-580.1" font-family="Helvetica,sans-Serif" font-size="8.00">S&#45;1933</text>
</g>
<!-- C&#45;0947&#45;&gt;C&#45;0826 -->
<g id="edge51" class="edge">
<title>C&#45;0947&#45;&gt;C&#45;0826</title>
<path fill="none" stroke="dimgray" stroke-width="0.8" d="M2176,-473.72C2176,-473.72 2176,-415.1 2176,-415.1"/>
<polygon fill="dimgray" stroke="dimgray" stroke-width="0.8" points="2178.45,-415.1 2176,-408.1 2173.55,-415.1 2178.45,-415.1"/>
</g>
<!-- C&#45;0947&#45;&gt;S&#45;1506 -->
<g id="edge50" class="edge">
<title>C&#45;0947&#45;&gt;S&#45;1506</title>
<path fill="none" stroke="dimgray" stroke-width="0.8" d="M2262.5,-473.72C2262.5,-473.72 2262.5,-407.83 2262.5,-407.83"/>
<polygon fill="dimgray" stroke="dimgray" stroke-width="0.8" points="2264.95,-407.83 2262.5,-400.83 2260.05,-407.83 2264.95,-407.83"/>
</g>
<!-- C&#45;0446&#45;&gt;S&#45;2173 -->
<g id="edge10" class="edge">
<title>C&#45;0446&#45;&gt;S&#45;2173</title>
<path fill="none" stroke="dimgray" stroke-width="0.8" d="M868.65,-682C712.32,-682 327.5,-682 327.5,-682 327.5,-682 327.5,-607.34 327.5,-607.34"/>
<polygon fill="dimgray" stroke="dimgray" stroke-width="0.8" points="329.95,-607.34 327.5,-600.34 325.05,-607.34 329.95,-607.34"/>
</g>
<!-- C&#45;0446&#45;&gt;C&#45;0292 -->
<g id="edge21" class="edge">
<title>C&#45;0446&#45;&gt;C&#45;0292</title>
<path fill="none" stroke="dimgray" stroke-width="0.8" d="M868.59,-670C819.5,-670 760.5,-670 760.5,-670 760.5,-670 760.5,-607.23 760.5,-607.23"/>
<polygon fill="dimgray" stroke="dimgray" stroke-width="0.8" points="762.95,-607.23 760.5,-600.23 758.05,-607.23 762.95,-607.23"/>
</g>
<!-- C&#45;0446&#45;&gt;C&#45;1032 -->
<g id="edge16" class="edge">
<title>C&#45;0446&#45;&gt;C&#45;1032</title>
<path fill="none" stroke="dimgray" stroke-width="0.8" d="M933.5,-657.88C933.5,-657.88 933.5,-607.07 933.5,-607.07"/>
<polygon fill="dimgray" stroke="dimgray" stroke-width="0.8" points="935.95,-607.07 933.5,-600.07 931.05,-607.07 935.95,-607.07"/>
</g>
<!-- C&#45;0446&#45;&gt;S&#45;2367 -->
<g id="edge15" class="edge">
<title>C&#45;0446&#45;&gt;S&#45;2367</title>
<path fill="none" stroke="dimgray" stroke-width="0.8" d="M993.02,-667C1051.18,-667 1131,-667 1131,-667 1131,-667 1131,-600.82 1131,-600.82"/>
<polygon fill="dimgray" stroke="dimgray" stroke-width="0.8" points="1133.45,-600.82 1131,-593.82 1128.55,-600.82 1133.45,-600.82"/>
</g>
<!-- C&#45;0517&#45;&gt;S&#45;2473 -->
<g id="edge37" class="edge">
<title>C&#45;0517&#45;&gt;S&#45;2473</title>
<path fill="none" stroke="dimgray" stroke-width="0.8" d="M1566.06,-685C1467.74,-685 1282,-685 1282,-685 1282,-685 1282,-606.47 1282,-606.47"/>
<polygon fill="dimgray" stroke="dimgray" stroke-width="0.8" points="1284.45,-606.47 1282,-599.47 1279.55,-606.47 1284.45,-606.47"/>
</g>
<!-- C&#45;0517&#45;&gt;S&#45;2474 -->
<g id="edge38" class="edge">
<title>C&#45;0517&#45;&gt;S&#45;2474</title>
<path fill="none" stroke="dimgray" stroke-width="0.8" d="M1556.9,-676C1517.99,-676 1477,-676 1477,-676 1477,-676 1477,-600.91 1477,-600.91"/>
<polygon fill="dimgray" stroke="dimgray" stroke-width="0.8" points="1479.45,-600.91 1477,-593.91 1474.55,-600.91 1479.45,-600.91"/>
</g>
<!-- C&#45;0517&#45;&gt;S&#45;1833 -->
<g id="edge35" class="edge">
<title>C&#45;0517&#45;&gt;S&#45;1833</title>
<path fill="none" stroke="dimgray" stroke-width="0.8" d="M1602.67,-658.76C1602.67,-658.76 1602.67,-601.06 1602.67,-601.06"/>
<polygon fill="dimgray" stroke="dimgray" stroke-width="0.8" points="1605.12,-601.06 1602.67,-594.06 1600.22,-601.06 1605.12,-601.06"/>
</g>
<!-- C&#45;0517&#45;&gt;S&#45;1572 -->
<g id="edge36" class="edge">
<title>C&#45;0517&#45;&gt;S&#45;1572</title>
<path fill="none" stroke="dimgray" stroke-width="0.8" d="M1694.19,-676C1722.37,-676 1748.5,-676 1748.5,-676 1748.5,-676 1748.5,-594.05 1748.5,-594.05"/>
<polygon fill="dimgray" stroke="dimgray" stroke-width="0.8" points="1750.95,-594.05 1748.5,-587.05 1746.05,-594.05 1750.95,-594.05"/>
</g>
<!-- C&#45;0517&#45;&gt;S&#45;1933 -->
<g id="edge39" class="edge">
<title>C&#45;0517&#45;&gt;S&#45;1933</title>
<path fill="none" stroke="dimgray" stroke-width="0.8" d="M1648.33,-658.77C1648.33,-645.35 1648.33,-629 1648.33,-629 1648.33,-629 1913.5,-629 1913.5,-629 1913.5,-629 1913.5,-591.8 1913.5,-591.8"/>
<polygon fill="dimgray" stroke="dimgray" stroke-width="0.8" points="1915.95,-591.8 1913.5,-584.8 1911.05,-591.8 1915.95,-591.8"/>
</g>
<!-- C&#45;1217&#45;&gt;R&#45;300 -->
<g id="edge19" class="edge">
<title>C&#45;1217&#45;&gt;R&#45;300</title>
<path fill="none" stroke="dimgray" stroke-width="0.8" d="M933.5,-375.88C933.5,-375.88 933.5,-325.07 933.5,-325.07"/>
<polygon fill="dimgray" stroke="dimgray" stroke-width="0.8" points="935.95,-325.07 933.5,-318.07 931.05,-325.07 935.95,-325.07"/>
</g>
</g>
</svg>
