<?xml version="1.0" encoding="UTF-8" standalone="no"?>
<!DOCTYPE svg PUBLIC "-//W3C//DTD SVG 1.1//EN"
 "http://www.w3.org/Graphics/SVG/1.1/DTD/svg11.dtd">
<!-- Generated by graphviz version 2.50.0 (0)
 -->
<!-- Title: Grafo_Circuito_206_25_ Pages: 1 -->
<svg width="2192pt" height="1675pt"
 viewBox="0.00 0.00 2192.00 1675.00" xmlns="http://www.w3.org/2000/svg" xmlns:xlink="http://www.w3.org/1999/xlink">
<g id="graph0" class="graph" transform="scale(1 1) rotate(0) translate(4 1671)">
<title>Grafo_Circuito_206_25_</title>
<polygon fill="white" stroke="transparent" points="-4,4 -4,-1671 2188,-1671 2188,4 -4,4"/>
<!-- S&#45;1869 -->
<g id="node1" class="node">
<title>S&#45;1869</title>
<polygon fill="mediumseagreen" stroke="black" points="582,-245 510,-223.5 582,-202 654,-223.5 582,-245"/>
<text text-anchor="middle" x="582" y="-221" font-family="Arial" font-size="10.00">S&#45;1869</text>
</g>
<!-- S&#45;1620 -->
<g id="node2" class="node">
<title>S&#45;1620</title>
<polygon fill="mediumseagreen" stroke="black" points="582,-750 510,-728.5 582,-707 654,-728.5 582,-750"/>
<text text-anchor="middle" x="582" y="-726" font-family="Arial" font-size="10.00">S&#45;1620</text>
</g>
<!-- S&#45;368 -->
<g id="node3" class="node">
<title>S&#45;368</title>
<polygon fill="mediumseagreen" stroke="black" points="402,-346 330,-324.5 402,-303 474,-324.5 402,-346"/>
<text text-anchor="middle" x="402" y="-322" font-family="Arial" font-size="10.00">S&#45;368</text>
</g>
<!-- S&#45;1969 -->
<g id="node4" class="node">
<title>S&#45;1969</title>
<polygon fill="mediumseagreen" stroke="black" points="1572,-952 1500,-930.5 1572,-909 1644,-930.5 1572,-952"/>
<text text-anchor="middle" x="1572" y="-928" font-family="Arial" font-size="10.00">S&#45;1969</text>
</g>
<!-- S&#45;511 -->
<g id="node5" class="node">
<title>S&#45;511</title>
<polygon fill="mediumseagreen" stroke="black" points="252,-1053 180,-1031.5 252,-1010 324,-1031.5 252,-1053"/>
<text text-anchor="middle" x="252" y="-1029" font-family="Arial" font-size="10.00">S&#45;511</text>
</g>
<!-- S&#45;510 -->
<g id="node6" class="node">
<title>S&#45;510</title>
<polygon fill="mediumseagreen" stroke="black" points="1752,-952 1680,-930.5 1752,-909 1824,-930.5 1752,-952"/>
<text text-anchor="middle" x="1752" y="-928" font-family="Arial" font-size="10.00">S&#45;510</text>
</g>
<!-- S&#45;513 -->
<g id="node7" class="node">
<title>S&#45;513</title>
<polygon fill="mediumseagreen" stroke="black" points="402,-750 330,-728.5 402,-707 474,-728.5 402,-750"/>
<text text-anchor="middle" x="402" y="-726" font-family="Arial" font-size="10.00">S&#45;513</text>
</g>
<!-- C&#45;0577 -->
<g id="node37" class="node">
<title>C&#45;0577</title>
<ellipse fill="tomato" stroke="black" cx="402" cy="-627.5" rx="72" ry="21.5"/>
<text text-anchor="middle" x="402" y="-625" font-family="Arial" font-size="10.00">C&#45;0577</text>
</g>
<!-- S&#45;513&#45;&gt;C&#45;0577 -->
<g id="edge24" class="edge">
<title>S&#45;513&#45;&gt;C&#45;0577</title>
<path fill="none" stroke="#4d4d4d" d="M402,-706.58C402,-706.58 402,-656.03 402,-656.03"/>
<polygon fill="#4d4d4d" stroke="#4d4d4d" points="404.45,-656.03 402,-649.03 399.55,-656.03 404.45,-656.03"/>
</g>
<!-- C&#45;0352 -->
<g id="node49" class="node">
<title>C&#45;0352</title>
<ellipse fill="tomato" stroke="black" cx="222" cy="-627.5" rx="72" ry="21.5"/>
<text text-anchor="middle" x="222" y="-625" font-family="Arial" font-size="10.00">C&#45;0352</text>
</g>
<!-- S&#45;513&#45;&gt;C&#45;0352 -->
<g id="edge22" class="edge">
<title>S&#45;513&#45;&gt;C&#45;0352</title>
<path fill="none" stroke="#4d4d4d" d="M331.52,-728C292.31,-728 251.33,-728 251.33,-728 251.33,-728 251.33,-654.36 251.33,-654.36"/>
<polygon fill="#4d4d4d" stroke="#4d4d4d" points="253.78,-654.36 251.33,-647.36 248.88,-654.36 253.78,-654.36"/>
</g>
<!-- C&#45;0578 -->
<g id="node55" class="node">
<title>C&#45;0578</title>
<ellipse fill="mediumseagreen" stroke="black" cx="582" cy="-627.5" rx="72" ry="21.5"/>
<text text-anchor="middle" x="582" y="-625" font-family="Arial" font-size="10.00">C&#45;0578</text>
</g>
<!-- S&#45;513&#45;&gt;C&#45;0578 -->
<g id="edge23" class="edge">
<title>S&#45;513&#45;&gt;C&#45;0578</title>
<path fill="none" stroke="#4d4d4d" d="M472.5,-728C480.58,-728 486,-728 486,-728 486,-728 486,-627 486,-627 486,-627 502.73,-627 502.73,-627"/>
<polygon fill="#4d4d4d" stroke="#4d4d4d" points="502.73,-629.45 509.73,-627 502.73,-624.55 502.73,-629.45"/>
</g>
<!-- R&#45;107 -->
<g id="node8" class="node">
<title>R&#45;107</title>
<polygon fill="mediumseagreen" stroke="black" points="654,-517.59 654,-535.41 611.82,-548 552.18,-548 510,-535.41 510,-517.59 552.18,-505 611.82,-505 654,-517.59"/>
<text text-anchor="middle" x="582" y="-524" font-family="Arial" font-size="10.00">R&#45;107</text>
</g>
<!-- C&#45;0579 -->
<g id="node9" class="node">
<title>C&#45;0579</title>
<ellipse fill="mediumseagreen" stroke="black" cx="582" cy="-425.5" rx="72" ry="21.5"/>
<text text-anchor="middle" x="582" y="-423" font-family="Arial" font-size="10.00">C&#45;0579</text>
</g>
<!-- R&#45;107&#45;&gt;C&#45;0579 -->
<g id="edge26" class="edge">
<title>R&#45;107&#45;&gt;C&#45;0579</title>
<path fill="none" stroke="#4d4d4d" d="M582,-504.58C582,-504.58 582,-454.03 582,-454.03"/>
<polygon fill="#4d4d4d" stroke="#4d4d4d" points="584.45,-454.03 582,-447.03 579.55,-454.03 584.45,-454.03"/>
</g>
<!-- C&#45;0579&#45;&gt;S&#45;368 -->
<g id="edge27" class="edge">
<title>C&#45;0579&#45;&gt;S&#45;368</title>
<path fill="none" stroke="#4d4d4d" d="M514.48,-418C472.32,-418 426,-418 426,-418 426,-418 426,-346.11 426,-346.11"/>
<polygon fill="#4d4d4d" stroke="#4d4d4d" points="428.45,-346.11 426,-339.11 423.55,-346.11 428.45,-346.11"/>
</g>
<!-- C&#45;0348 -->
<g id="node25" class="node">
<title>C&#45;0348</title>
<ellipse fill="mediumseagreen" stroke="black" cx="582" cy="-324.5" rx="72" ry="21.5"/>
<text text-anchor="middle" x="582" y="-322" font-family="Arial" font-size="10.00">C&#45;0348</text>
</g>
<!-- C&#45;0579&#45;&gt;C&#45;0348 -->
<g id="edge33" class="edge">
<title>C&#45;0579&#45;&gt;C&#45;0348</title>
<path fill="none" stroke="#4d4d4d" d="M582,-403.58C582,-403.58 582,-353.03 582,-353.03"/>
<polygon fill="#4d4d4d" stroke="#4d4d4d" points="584.45,-353.03 582,-346.03 579.55,-353.03 584.45,-353.03"/>
</g>
<!-- C&#45;0347 -->
<g id="node40" class="node">
<title>C&#45;0347</title>
<ellipse fill="mediumseagreen" stroke="black" cx="942" cy="-324.5" rx="72" ry="21.5"/>
<text text-anchor="middle" x="942" y="-322" font-family="Arial" font-size="10.00">C&#45;0347</text>
</g>
<!-- C&#45;0579&#45;&gt;C&#45;0347 -->
<g id="edge28" class="edge">
<title>C&#45;0579&#45;&gt;C&#45;0347</title>
<path fill="none" stroke="#4d4d4d" d="M654.27,-425C747.27,-425 897,-425 897,-425 897,-425 897,-348.55 897,-348.55"/>
<polygon fill="#4d4d4d" stroke="#4d4d4d" points="899.45,-348.55 897,-341.55 894.55,-348.55 899.45,-348.55"/>
</g>
<!-- S&#45;2030 -->
<g id="node10" class="node">
<title>S&#45;2030</title>
<polygon fill="mediumseagreen" stroke="black" points="1046,-1255 974,-1233.5 1046,-1212 1118,-1233.5 1046,-1255"/>
<text text-anchor="middle" x="1046" y="-1231" font-family="Arial" font-size="10.00">S&#45;2030</text>
</g>
<!-- S&#45;2292 -->
<g id="node44" class="node">
<title>S&#45;2292</title>
<polygon fill="mediumseagreen" stroke="black" points="919,-1154 847,-1132.5 919,-1111 991,-1132.5 919,-1154"/>
<text text-anchor="middle" x="919" y="-1130" font-family="Arial" font-size="10.00">S&#45;2292</text>
</g>
<!-- S&#45;2030&#45;&gt;S&#45;2292 -->
<g id="edge42" class="edge">
<title>S&#45;2030&#45;&gt;S&#45;2292</title>
<path fill="none" stroke="#4d4d4d" d="M982.5,-1230.59C982.5,-1230.59 982.5,-1142.23 982.5,-1142.23"/>
<polygon fill="#4d4d4d" stroke="#4d4d4d" points="984.95,-1142.23 982.5,-1135.23 980.05,-1142.23 984.95,-1142.23"/>
</g>
<!-- S&#45;587 -->
<g id="node50" class="node">
<title>S&#45;587</title>
<polygon fill="mediumseagreen" stroke="black" points="1173,-1154 1101,-1132.5 1173,-1111 1245,-1132.5 1173,-1154"/>
<text text-anchor="middle" x="1173" y="-1130" font-family="Arial" font-size="10.00">S&#45;587</text>
</g>
<!-- S&#45;2030&#45;&gt;S&#45;587 -->
<g id="edge41" class="edge">
<title>S&#45;2030&#45;&gt;S&#45;587</title>
<path fill="none" stroke="#4d4d4d" d="M1109.5,-1230.59C1109.5,-1230.59 1109.5,-1142.23 1109.5,-1142.23"/>
<polygon fill="#4d4d4d" stroke="#4d4d4d" points="1111.95,-1142.23 1109.5,-1135.23 1107.05,-1142.23 1111.95,-1142.23"/>
</g>
<!-- S&#45;527 -->
<g id="node11" class="node">
<title>S&#45;527</title>
<polygon fill="mediumseagreen" stroke="black" points="762,-245 690,-223.5 762,-202 834,-223.5 762,-245"/>
<text text-anchor="middle" x="762" y="-221" font-family="Arial" font-size="10.00">S&#45;527</text>
</g>
<!-- S&#45;910 -->
<g id="node12" class="node">
<title>S&#45;910</title>
<polygon fill="mediumseagreen" stroke="black" points="492,-851 420,-829.5 492,-808 564,-829.5 492,-851"/>
<text text-anchor="middle" x="492" y="-827" font-family="Arial" font-size="10.00">S&#45;910</text>
</g>
<!-- S&#45;910&#45;&gt;S&#45;1620 -->
<g id="edge20" class="edge">
<title>S&#45;910&#45;&gt;S&#45;1620</title>
<path fill="none" stroke="#4d4d4d" d="M537,-821.23C537,-821.23 537,-743.6 537,-743.6"/>
<polygon fill="#4d4d4d" stroke="#4d4d4d" points="539.45,-743.6 537,-736.6 534.55,-743.6 539.45,-743.6"/>
</g>
<!-- S&#45;910&#45;&gt;S&#45;513 -->
<g id="edge21" class="edge">
<title>S&#45;910&#45;&gt;S&#45;513</title>
<path fill="none" stroke="#4d4d4d" d="M447,-821.23C447,-821.23 447,-743.6 447,-743.6"/>
<polygon fill="#4d4d4d" stroke="#4d4d4d" points="449.45,-743.6 447,-736.6 444.55,-743.6 449.45,-743.6"/>
</g>
<!-- S&#45;509 -->
<g id="node13" class="node">
<title>S&#45;509</title>
<polygon fill="mediumseagreen" stroke="black" points="956,-1356 884,-1334.5 956,-1313 1028,-1334.5 956,-1356"/>
<text text-anchor="middle" x="956" y="-1332" font-family="Arial" font-size="10.00">S&#45;509</text>
</g>
<!-- C&#45;1176 -->
<g id="node14" class="node">
<title>C&#45;1176</title>
<ellipse fill="mediumseagreen" stroke="black" cx="238" cy="-930.5" rx="72" ry="21.5"/>
<text text-anchor="middle" x="238" y="-928" font-family="Arial" font-size="10.00">C&#45;1176</text>
</g>
<!-- R&#45;082 -->
<g id="node31" class="node">
<title>R&#45;082</title>
<polygon fill="tomato" stroke="black" points="310,-820.59 310,-838.41 267.82,-851 208.18,-851 166,-838.41 166,-820.59 208.18,-808 267.82,-808 310,-820.59"/>
<text text-anchor="middle" x="238" y="-827" font-family="Arial" font-size="10.00">R&#45;082</text>
</g>
<!-- C&#45;1176&#45;&gt;R&#45;082 -->
<g id="edge16" class="edge">
<title>C&#45;1176&#45;&gt;R&#45;082</title>
<path fill="none" stroke="#4d4d4d" d="M238,-908.58C238,-908.58 238,-858.03 238,-858.03"/>
<polygon fill="#4d4d4d" stroke="#4d4d4d" points="240.45,-858.03 238,-851.03 235.55,-858.03 240.45,-858.03"/>
</g>
<!-- S&#45;1432 -->
<g id="node15" class="node">
<title>S&#45;1432</title>
<polygon fill="mediumseagreen" stroke="black" points="222,-245 150,-223.5 222,-202 294,-223.5 222,-245"/>
<text text-anchor="middle" x="222" y="-221" font-family="Arial" font-size="10.00">S&#45;1432</text>
</g>
<!-- 206&#45;25&#45; -->
<g id="node16" class="node">
<title>206&#45;25&#45;</title>
<polygon fill="gold" stroke="black" points="1028,-1632.59 1028,-1650.41 985.82,-1663 926.18,-1663 884,-1650.41 884,-1632.59 926.18,-1620 985.82,-1620 1028,-1632.59"/>
<polygon fill="none" stroke="black" points="1032,-1629.61 1032,-1653.39 986.41,-1667 925.59,-1667 880,-1653.39 880,-1629.61 925.59,-1616 986.41,-1616 1032,-1629.61"/>
<text text-anchor="middle" x="956" y="-1639" font-family="Arial" font-size="10.00">206&#45;25&#45;</text>
</g>
<!-- C&#45;0014 -->
<g id="node30" class="node">
<title>C&#45;0014</title>
<ellipse fill="mediumseagreen" stroke="black" cx="956" cy="-1536.5" rx="72" ry="21.5"/>
<text text-anchor="middle" x="956" y="-1534" font-family="Arial" font-size="10.00">C&#45;0014</text>
</g>
<!-- 206&#45;25&#45;&#45;&gt;C&#45;0014 -->
<g id="edge1" class="edge">
<title>206&#45;25&#45;&#45;&gt;C&#45;0014</title>
<path fill="none" stroke="#4d4d4d" d="M956,-1615.81C956,-1615.81 956,-1565.03 956,-1565.03"/>
<polygon fill="#4d4d4d" stroke="#4d4d4d" points="958.45,-1565.03 956,-1558.03 953.55,-1565.03 958.45,-1565.03"/>
</g>
<!-- C&#45;0926 -->
<g id="node17" class="node">
<title>C&#45;0926</title>
<ellipse fill="mediumseagreen" stroke="black" cx="1263" cy="-1233.5" rx="72" ry="21.5"/>
<text text-anchor="middle" x="1263" y="-1231" font-family="Arial" font-size="10.00">C&#45;0926</text>
</g>
<!-- R&#45;218 -->
<g id="node18" class="node">
<title>R&#45;218</title>
<polygon fill="mediumseagreen" stroke="black" points="1438,-1123.59 1438,-1141.41 1395.82,-1154 1336.18,-1154 1294,-1141.41 1294,-1123.59 1336.18,-1111 1395.82,-1111 1438,-1123.59"/>
<text text-anchor="middle" x="1366" y="-1130" font-family="Arial" font-size="10.00">R&#45;218</text>
</g>
<!-- C&#45;0926&#45;&gt;R&#45;218 -->
<g id="edge45" class="edge">
<title>C&#45;0926&#45;&gt;R&#45;218</title>
<path fill="none" stroke="#4d4d4d" d="M1314.5,-1218.16C1314.5,-1218.16 1314.5,-1154.65 1314.5,-1154.65"/>
<polygon fill="#4d4d4d" stroke="#4d4d4d" points="1316.95,-1154.65 1314.5,-1147.65 1312.05,-1154.65 1316.95,-1154.65"/>
</g>
<!-- C&#45;0928 -->
<g id="node53" class="node">
<title>C&#45;0928</title>
<ellipse fill="mediumseagreen" stroke="black" cx="1392" cy="-1031.5" rx="72" ry="21.5"/>
<text text-anchor="middle" x="1392" y="-1029" font-family="Arial" font-size="10.00">C&#45;0928</text>
</g>
<!-- R&#45;218&#45;&gt;C&#45;0928 -->
<g id="edge46" class="edge">
<title>R&#45;218&#45;&gt;C&#45;0928</title>
<path fill="none" stroke="#4d4d4d" d="M1379,-1110.58C1379,-1110.58 1379,-1059.68 1379,-1059.68"/>
<polygon fill="#4d4d4d" stroke="#4d4d4d" points="1381.45,-1059.68 1379,-1052.68 1376.55,-1059.68 1381.45,-1059.68"/>
</g>
<!-- C&#45;1175 -->
<g id="node19" class="node">
<title>C&#45;1175</title>
<ellipse fill="tomato" stroke="black" cx="672" cy="-930.5" rx="72" ry="21.5"/>
<text text-anchor="middle" x="672" y="-928" font-family="Arial" font-size="10.00">C&#45;1175</text>
</g>
<!-- ext_circ_205_23_ -->
<g id="node56" class="node">
<title>ext_circ_205_23_</title>
<polygon fill="lightpink" stroke="darkorange" stroke-dasharray="5,2" points="703,-1663 559,-1663 559,-1620 703,-1620 703,-1663"/>
<text text-anchor="middle" x="631" y="-1644.5" font-family="Arial" font-size="10.00">Circuito:</text>
<text text-anchor="middle" x="631" y="-1633.5" font-family="Arial" font-size="10.00">205&#45;23&#45;</text>
</g>
<!-- C&#45;1175&#45;&gt;ext_circ_205_23_ -->
<g id="edge55" class="edge">
<title>C&#45;1175&#45;&gt;ext_circ_205_23_</title>
<path fill="none" stroke="darkorange" stroke-dasharray="5,2" d="M607,-939.75C607,-939.75 607,-1612.74 607,-1612.74"/>
<polygon fill="darkorange" stroke="darkorange" points="604.55,-1612.73 607,-1619.74 609.45,-1612.74 604.55,-1612.73"/>
</g>
<!-- S&#45;209 -->
<g id="node20" class="node">
<title>S&#45;209</title>
<polygon fill="mediumseagreen" stroke="black" points="1932,-952 1860,-930.5 1932,-909 2004,-930.5 1932,-952"/>
<text text-anchor="middle" x="1932" y="-928" font-family="Arial" font-size="10.00">S&#45;209</text>
</g>
<!-- S&#45;1425 -->
<g id="node21" class="node">
<title>S&#45;1425</title>
<polygon fill="mediumseagreen" stroke="black" points="1136,-1356 1064,-1334.5 1136,-1313 1208,-1334.5 1136,-1356"/>
<text text-anchor="middle" x="1136" y="-1332" font-family="Arial" font-size="10.00">S&#45;1425</text>
</g>
<!-- S&#45;508 -->
<g id="node22" class="node">
<title>S&#45;508</title>
<polygon fill="mediumseagreen" stroke="black" points="956,-1457 884,-1435.5 956,-1414 1028,-1435.5 956,-1457"/>
<text text-anchor="middle" x="956" y="-1433" font-family="Arial" font-size="10.00">S&#45;508</text>
</g>
<!-- S&#45;508&#45;&gt;S&#45;509 -->
<g id="edge4" class="edge">
<title>S&#45;508&#45;&gt;S&#45;509</title>
<path fill="none" stroke="#4d4d4d" d="M956,-1413.58C956,-1413.58 956,-1363.03 956,-1363.03"/>
<polygon fill="#4d4d4d" stroke="#4d4d4d" points="958.45,-1363.03 956,-1356.03 953.55,-1363.03 958.45,-1363.03"/>
</g>
<!-- S&#45;508&#45;&gt;S&#45;1425 -->
<g id="edge3" class="edge">
<title>S&#45;508&#45;&gt;S&#45;1425</title>
<path fill="none" stroke="#4d4d4d" d="M1026.37,-1435C1076.85,-1435 1136,-1435 1136,-1435 1136,-1435 1136,-1363.31 1136,-1363.31"/>
<polygon fill="#4d4d4d" stroke="#4d4d4d" points="1138.45,-1363.31 1136,-1356.31 1133.55,-1363.31 1138.45,-1363.31"/>
</g>
<!-- S&#45;516 -->
<g id="node51" class="node">
<title>S&#45;516</title>
<polygon fill="mediumseagreen" stroke="black" points="776,-1356 704,-1334.5 776,-1313 848,-1334.5 776,-1356"/>
<text text-anchor="middle" x="776" y="-1332" font-family="Arial" font-size="10.00">S&#45;516</text>
</g>
<!-- S&#45;508&#45;&gt;S&#45;516 -->
<g id="edge5" class="edge">
<title>S&#45;508&#45;&gt;S&#45;516</title>
<path fill="none" stroke="#4d4d4d" d="M885.63,-1435C835.15,-1435 776,-1435 776,-1435 776,-1435 776,-1363.31 776,-1363.31"/>
<polygon fill="#4d4d4d" stroke="#4d4d4d" points="778.45,-1363.31 776,-1356.31 773.55,-1363.31 778.45,-1363.31"/>
</g>
<!-- S&#45;596 -->
<g id="node23" class="node">
<title>S&#45;596</title>
<polygon fill="mediumseagreen" stroke="black" points="326,-1255 254,-1233.5 326,-1212 398,-1233.5 326,-1255"/>
<text text-anchor="middle" x="326" y="-1231" font-family="Arial" font-size="10.00">S&#45;596</text>
</g>
<!-- S&#45;2029 -->
<g id="node35" class="node">
<title>S&#45;2029</title>
<polygon fill="mediumseagreen" stroke="black" points="326,-1154 254,-1132.5 326,-1111 398,-1132.5 326,-1154"/>
<text text-anchor="middle" x="326" y="-1130" font-family="Arial" font-size="10.00">S&#45;2029</text>
</g>
<!-- S&#45;596&#45;&gt;S&#45;2029 -->
<g id="edge7" class="edge">
<title>S&#45;596&#45;&gt;S&#45;2029</title>
<path fill="none" stroke="#4d4d4d" d="M326,-1211.58C326,-1211.58 326,-1161.03 326,-1161.03"/>
<polygon fill="#4d4d4d" stroke="#4d4d4d" points="328.45,-1161.03 326,-1154.03 323.55,-1161.03 328.45,-1161.03"/>
</g>
<!-- S&#45;488 -->
<g id="node24" class="node">
<title>S&#45;488</title>
<polygon fill="mediumseagreen" stroke="black" points="506,-1053 434,-1031.5 506,-1010 578,-1031.5 506,-1053"/>
<text text-anchor="middle" x="506" y="-1029" font-family="Arial" font-size="10.00">S&#45;488</text>
</g>
<!-- S&#45;488&#45;&gt;C&#45;1176 -->
<g id="edge14" class="edge">
<title>S&#45;488&#45;&gt;C&#45;1176</title>
<path fill="none" stroke="#4d4d4d" d="M459.06,-1024C435.82,-1024 412.67,-1024 412.67,-1024 412.67,-1024 412.67,-930 412.67,-930 412.67,-930 317.05,-930 317.05,-930"/>
<polygon fill="#4d4d4d" stroke="#4d4d4d" points="317.05,-927.55 310.05,-930 317.05,-932.45 317.05,-927.55"/>
</g>
<!-- S&#45;488&#45;&gt;C&#45;1175 -->
<g id="edge15" class="edge">
<title>S&#45;488&#45;&gt;C&#45;1175</title>
<path fill="none" stroke="#4d4d4d" d="M573.33,-1029.97C573.33,-1016.78 573.33,-923 573.33,-923 573.33,-923 597.28,-923 597.28,-923"/>
<polygon fill="#4d4d4d" stroke="#4d4d4d" points="597.28,-925.45 604.28,-923 597.28,-920.55 597.28,-925.45"/>
</g>
<!-- S&#45;1286 -->
<g id="node39" class="node">
<title>S&#45;1286</title>
<polygon fill="mediumseagreen" stroke="black" points="492,-952 420,-930.5 492,-909 564,-930.5 492,-952"/>
<text text-anchor="middle" x="492" y="-928" font-family="Arial" font-size="10.00">S&#45;1286</text>
</g>
<!-- S&#45;488&#45;&gt;S&#45;1286 -->
<g id="edge17" class="edge">
<title>S&#45;488&#45;&gt;S&#45;1286</title>
<path fill="none" stroke="#4d4d4d" d="M499,-1012.03C499,-1012.03 499,-956.91 499,-956.91"/>
<polygon fill="#4d4d4d" stroke="#4d4d4d" points="501.45,-956.91 499,-949.91 496.55,-956.91 501.45,-956.91"/>
</g>
<!-- C&#45;0348&#45;&gt;S&#45;1869 -->
<g id="edge37" class="edge">
<title>C&#45;0348&#45;&gt;S&#45;1869</title>
<path fill="none" stroke="#4d4d4d" d="M606,-304.06C606,-304.06 606,-245.03 606,-245.03"/>
<polygon fill="#4d4d4d" stroke="#4d4d4d" points="608.45,-245.03 606,-238.03 603.55,-245.03 608.45,-245.03"/>
</g>
<!-- C&#45;0348&#45;&gt;S&#45;527 -->
<g id="edge36" class="edge">
<title>C&#45;0348&#45;&gt;S&#45;527</title>
<path fill="none" stroke="#4d4d4d" d="M654.24,-324C686.34,-324 717,-324 717,-324 717,-324 717,-238.72 717,-238.72"/>
<polygon fill="#4d4d4d" stroke="#4d4d4d" points="719.45,-238.72 717,-231.72 714.55,-238.72 719.45,-238.72"/>
</g>
<!-- C&#45;0348&#45;&gt;S&#45;1432 -->
<g id="edge35" class="edge">
<title>C&#45;0348&#45;&gt;S&#45;1432</title>
<path fill="none" stroke="#4d4d4d" d="M558,-303.96C558,-289.98 558,-274 558,-274 558,-274 222,-274 222,-274 222,-274 222,-252.21 222,-252.21"/>
<polygon fill="#4d4d4d" stroke="#4d4d4d" points="224.45,-252.21 222,-245.21 219.55,-252.21 224.45,-252.21"/>
</g>
<!-- S&#45;1305 -->
<g id="node48" class="node">
<title>S&#45;1305</title>
<polygon fill="mediumseagreen" stroke="black" points="402,-245 330,-223.5 402,-202 474,-223.5 402,-245"/>
<text text-anchor="middle" x="402" y="-221" font-family="Arial" font-size="10.00">S&#45;1305</text>
</g>
<!-- C&#45;0348&#45;&gt;S&#45;1305 -->
<g id="edge34" class="edge">
<title>C&#45;0348&#45;&gt;S&#45;1305</title>
<path fill="none" stroke="#4d4d4d" d="M509.68,-324C502.61,-324 498,-324 498,-324 498,-324 498,-223 498,-223 498,-223 479.53,-223 479.53,-223"/>
<polygon fill="#4d4d4d" stroke="#4d4d4d" points="479.53,-220.55 472.53,-223 479.53,-225.45 479.53,-220.55"/>
</g>
<!-- S&#45;2038 -->
<g id="node26" class="node">
<title>S&#45;2038</title>
<polygon fill="mediumseagreen" stroke="black" points="2112,-952 2040,-930.5 2112,-909 2184,-930.5 2112,-952"/>
<text text-anchor="middle" x="2112" y="-928" font-family="Arial" font-size="10.00">S&#45;2038</text>
</g>
<!-- S&#45;678 -->
<g id="node27" class="node">
<title>S&#45;678</title>
<polygon fill="mediumseagreen" stroke="black" points="942,-144 870,-122.5 942,-101 1014,-122.5 942,-144"/>
<text text-anchor="middle" x="942" y="-120" font-family="Arial" font-size="10.00">S&#45;678</text>
</g>
<!-- S&#45;2034 -->
<g id="node54" class="node">
<title>S&#45;2034</title>
<polygon fill="mediumseagreen" stroke="black" points="942,-43 870,-21.5 942,0 1014,-21.5 942,-43"/>
<text text-anchor="middle" x="942" y="-19" font-family="Arial" font-size="10.00">S&#45;2034</text>
</g>
<!-- S&#45;678&#45;&gt;S&#45;2034 -->
<g id="edge31" class="edge">
<title>S&#45;678&#45;&gt;S&#45;2034</title>
<path fill="none" stroke="#4d4d4d" d="M942,-100.58C942,-100.58 942,-50.03 942,-50.03"/>
<polygon fill="#4d4d4d" stroke="#4d4d4d" points="944.45,-50.03 942,-43.03 939.55,-50.03 944.45,-50.03"/>
</g>
<!-- S&#45;2546 -->
<g id="node28" class="node">
<title>S&#45;2546</title>
<polygon fill="mediumseagreen" stroke="black" points="852,-952 780,-930.5 852,-909 924,-930.5 852,-952"/>
<text text-anchor="middle" x="852" y="-928" font-family="Arial" font-size="10.00">S&#45;2546</text>
</g>
<!-- S&#45;515 -->
<g id="node29" class="node">
<title>S&#45;515</title>
<polygon fill="mediumseagreen" stroke="black" points="506,-1255 434,-1233.5 506,-1212 578,-1233.5 506,-1255"/>
<text text-anchor="middle" x="506" y="-1231" font-family="Arial" font-size="10.00">S&#45;515</text>
</g>
<!-- R&#45;049 -->
<g id="node47" class="node">
<title>R&#45;049</title>
<polygon fill="mediumseagreen" stroke="black" points="578,-1123.59 578,-1141.41 535.82,-1154 476.18,-1154 434,-1141.41 434,-1123.59 476.18,-1111 535.82,-1111 578,-1123.59"/>
<text text-anchor="middle" x="506" y="-1130" font-family="Arial" font-size="10.00">R&#45;049</text>
</g>
<!-- S&#45;515&#45;&gt;R&#45;049 -->
<g id="edge11" class="edge">
<title>S&#45;515&#45;&gt;R&#45;049</title>
<path fill="none" stroke="#4d4d4d" d="M506,-1211.58C506,-1211.58 506,-1161.03 506,-1161.03"/>
<polygon fill="#4d4d4d" stroke="#4d4d4d" points="508.45,-1161.03 506,-1154.03 503.55,-1161.03 508.45,-1161.03"/>
</g>
<!-- C&#45;0014&#45;&gt;S&#45;508 -->
<g id="edge2" class="edge">
<title>C&#45;0014&#45;&gt;S&#45;508</title>
<path fill="none" stroke="#4d4d4d" d="M956,-1514.58C956,-1514.58 956,-1464.03 956,-1464.03"/>
<polygon fill="#4d4d4d" stroke="#4d4d4d" points="958.45,-1464.03 956,-1457.03 953.55,-1464.03 958.45,-1464.03"/>
</g>
<!-- R&#45;082&#45;&gt;ext_circ_205_23_ -->
<g id="edge56" class="edge">
<title>R&#45;082&#45;&gt;ext_circ_205_23_</title>
<path fill="none" stroke="darkorange" stroke-dasharray="5,2" d="M310.42,-829C355.65,-829 405.33,-829 405.33,-829 405.33,-829 405.33,-1641 405.33,-1641 405.33,-1641 551.98,-1641 551.98,-1641"/>
<polygon fill="darkorange" stroke="darkorange" points="551.98,-1643.45 558.98,-1641 551.98,-1638.55 551.98,-1643.45"/>
</g>
<!-- C&#45;0927 -->
<g id="node32" class="node">
<title>C&#45;0927</title>
<ellipse fill="tomato" stroke="black" cx="1032" cy="-930.5" rx="72" ry="21.5"/>
<text text-anchor="middle" x="1032" y="-928" font-family="Arial" font-size="10.00">C&#45;0927</text>
</g>
<!-- C&#45;0927&#45;&gt;C&#45;0926 -->
<g id="edge59" class="edge">
<title>C&#45;0927&#45;&gt;C&#45;0926</title>
<path fill="none" stroke="blue" stroke-dasharray="5,2" d="M1027.67,-952.03C1027.67,-1013.09 1027.67,-1183 1027.67,-1183 1027.67,-1183 1218,-1183 1218,-1183 1218,-1183 1218,-1209.68 1218,-1209.68"/>
<polygon fill="blue" stroke="blue" points="1215.55,-1209.68 1218,-1216.68 1220.45,-1209.68 1215.55,-1209.68"/>
</g>
<!-- S&#45;1177 -->
<g id="node33" class="node">
<title>S&#45;1177</title>
<polygon fill="mediumseagreen" stroke="black" points="686,-1053 614,-1031.5 686,-1010 758,-1031.5 686,-1053"/>
<text text-anchor="middle" x="686" y="-1029" font-family="Arial" font-size="10.00">S&#45;1177</text>
</g>
<!-- S&#45;1304 -->
<g id="node34" class="node">
<title>S&#45;1304</title>
<polygon fill="mediumseagreen" stroke="black" points="942,-245 870,-223.5 942,-202 1014,-223.5 942,-245"/>
<text text-anchor="middle" x="942" y="-221" font-family="Arial" font-size="10.00">S&#45;1304</text>
</g>
<!-- S&#45;1304&#45;&gt;S&#45;678 -->
<g id="edge30" class="edge">
<title>S&#45;1304&#45;&gt;S&#45;678</title>
<path fill="none" stroke="#4d4d4d" d="M942,-201.58C942,-201.58 942,-151.03 942,-151.03"/>
<polygon fill="#4d4d4d" stroke="#4d4d4d" points="944.45,-151.03 942,-144.03 939.55,-151.03 944.45,-151.03"/>
</g>
<!-- S&#45;2449 -->
<g id="node36" class="node">
<title>S&#45;2449</title>
<polygon fill="mediumseagreen" stroke="black" points="1212,-952 1140,-930.5 1212,-909 1284,-930.5 1212,-952"/>
<text text-anchor="middle" x="1212" y="-928" font-family="Arial" font-size="10.00">S&#45;2449</text>
</g>
<!-- C&#45;0577&#45;&gt;C&#45;0579 -->
<g id="edge58" class="edge">
<title>C&#45;0577&#45;&gt;C&#45;0579</title>
<path fill="none" stroke="blue" stroke-dasharray="5,2" d="M378,-606.95C378,-556.75 378,-432 378,-432 378,-432 506.22,-432 506.22,-432"/>
<polygon fill="blue" stroke="blue" points="506.22,-434.45 513.22,-432 506.22,-429.55 506.22,-434.45"/>
</g>
<!-- S&#45;1970 -->
<g id="node38" class="node">
<title>S&#45;1970</title>
<polygon fill="mediumseagreen" stroke="black" points="686,-1255 614,-1233.5 686,-1212 758,-1233.5 686,-1255"/>
<text text-anchor="middle" x="686" y="-1231" font-family="Arial" font-size="10.00">S&#45;1970</text>
</g>
<!-- S&#45;1286&#45;&gt;S&#45;910 -->
<g id="edge19" class="edge">
<title>S&#45;1286&#45;&gt;S&#45;910</title>
<path fill="none" stroke="#4d4d4d" d="M492,-908.58C492,-908.58 492,-858.03 492,-858.03"/>
<polygon fill="#4d4d4d" stroke="#4d4d4d" points="494.45,-858.03 492,-851.03 489.55,-858.03 494.45,-858.03"/>
</g>
<!-- S&#45;2358 -->
<g id="node46" class="node">
<title>S&#45;2358</title>
<polygon fill="mediumseagreen" stroke="black" points="672,-851 600,-829.5 672,-808 744,-829.5 672,-851"/>
<text text-anchor="middle" x="672" y="-827" font-family="Arial" font-size="10.00">S&#45;2358</text>
</g>
<!-- S&#45;1286&#45;&gt;S&#45;2358 -->
<g id="edge18" class="edge">
<title>S&#45;1286&#45;&gt;S&#45;2358</title>
<path fill="none" stroke="#4d4d4d" d="M542.28,-937C556.73,-937 568.67,-937 568.67,-937 568.67,-937 568.67,-829 568.67,-829 568.67,-829 594.65,-829 594.65,-829"/>
<polygon fill="#4d4d4d" stroke="#4d4d4d" points="594.65,-831.45 601.65,-829 594.65,-826.55 594.65,-831.45"/>
</g>
<!-- C&#45;0347&#45;&gt;S&#45;1304 -->
<g id="edge29" class="edge">
<title>C&#45;0347&#45;&gt;S&#45;1304</title>
<path fill="none" stroke="#4d4d4d" d="M942,-302.58C942,-302.58 942,-252.03 942,-252.03"/>
<polygon fill="#4d4d4d" stroke="#4d4d4d" points="944.45,-252.03 942,-245.03 939.55,-252.03 944.45,-252.03"/>
</g>
<!-- C&#45;1130 -->
<g id="node52" class="node">
<title>C&#45;1130</title>
<ellipse fill="mediumseagreen" stroke="black" cx="1122" cy="-223.5" rx="72" ry="21.5"/>
<text text-anchor="middle" x="1122" y="-221" font-family="Arial" font-size="10.00">C&#45;1130</text>
</g>
<!-- C&#45;0347&#45;&gt;C&#45;1130 -->
<g id="edge32" class="edge">
<title>C&#45;0347&#45;&gt;C&#45;1130</title>
<path fill="none" stroke="#4d4d4d" d="M1014.24,-324C1046.34,-324 1077,-324 1077,-324 1077,-324 1077,-247.55 1077,-247.55"/>
<polygon fill="#4d4d4d" stroke="#4d4d4d" points="1079.45,-247.55 1077,-240.55 1074.55,-247.55 1079.45,-247.55"/>
</g>
<!-- S&#45;2413 -->
<g id="node41" class="node">
<title>S&#45;2413</title>
<polygon fill="mediumseagreen" stroke="black" points="1392,-952 1320,-930.5 1392,-909 1464,-930.5 1392,-952"/>
<text text-anchor="middle" x="1392" y="-928" font-family="Arial" font-size="10.00">S&#45;2413</text>
</g>
<!-- S&#45;854 -->
<g id="node42" class="node">
<title>S&#45;854</title>
<polygon fill="mediumseagreen" stroke="black" points="72,-1053 0,-1031.5 72,-1010 144,-1031.5 72,-1053"/>
<text text-anchor="middle" x="72" y="-1029" font-family="Arial" font-size="10.00">S&#45;854</text>
</g>
<!-- S&#45;1375 -->
<g id="node43" class="node">
<title>S&#45;1375</title>
<polygon fill="mediumseagreen" stroke="black" points="866,-1255 794,-1233.5 866,-1212 938,-1233.5 866,-1255"/>
<text text-anchor="middle" x="866" y="-1231" font-family="Arial" font-size="10.00">S&#45;1375</text>
</g>
<!-- S&#45;2031 -->
<g id="node45" class="node">
<title>S&#45;2031</title>
<polygon fill="mediumseagreen" stroke="black" points="919,-1053 847,-1031.5 919,-1010 991,-1031.5 919,-1053"/>
<text text-anchor="middle" x="919" y="-1029" font-family="Arial" font-size="10.00">S&#45;2031</text>
</g>
<!-- S&#45;2292&#45;&gt;S&#45;2031 -->
<g id="edge43" class="edge">
<title>S&#45;2292&#45;&gt;S&#45;2031</title>
<path fill="none" stroke="#4d4d4d" d="M919,-1110.58C919,-1110.58 919,-1060.03 919,-1060.03"/>
<polygon fill="#4d4d4d" stroke="#4d4d4d" points="921.45,-1060.03 919,-1053.03 916.55,-1060.03 921.45,-1060.03"/>
</g>
<!-- R&#45;049&#45;&gt;S&#45;511 -->
<g id="edge12" class="edge">
<title>R&#45;049&#45;&gt;S&#45;511</title>
<path fill="none" stroke="#4d4d4d" d="M433.74,-1132C429.55,-1132 427,-1132 427,-1132 427,-1132 427,-1038 427,-1038 427,-1038 309.62,-1038 309.62,-1038"/>
<polygon fill="#4d4d4d" stroke="#4d4d4d" points="309.62,-1035.55 302.62,-1038 309.62,-1040.45 309.62,-1035.55"/>
</g>
<!-- R&#45;049&#45;&gt;S&#45;488 -->
<g id="edge13" class="edge">
<title>R&#45;049&#45;&gt;S&#45;488</title>
<path fill="none" stroke="#4d4d4d" d="M530,-1110.58C530,-1110.58 530,-1052.9 530,-1052.9"/>
<polygon fill="#4d4d4d" stroke="#4d4d4d" points="532.45,-1052.9 530,-1045.9 527.55,-1052.9 532.45,-1052.9"/>
</g>
<!-- R&#45;049&#45;&gt;S&#45;1177 -->
<g id="edge39" class="edge">
<title>R&#45;049&#45;&gt;S&#45;1177</title>
<path fill="none" stroke="#4d4d4d" d="M578.18,-1132C628.25,-1132 686,-1132 686,-1132 686,-1132 686,-1060.31 686,-1060.31"/>
<polygon fill="#4d4d4d" stroke="#4d4d4d" points="688.45,-1060.31 686,-1053.31 683.55,-1060.31 688.45,-1060.31"/>
</g>
<!-- R&#45;049&#45;&gt;S&#45;854 -->
<g id="edge38" class="edge">
<title>R&#45;049&#45;&gt;S&#45;854</title>
<path fill="none" stroke="#4d4d4d" d="M482,-1110.79C482,-1097.1 482,-1082 482,-1082 482,-1082 72,-1082 72,-1082 72,-1082 72,-1060.21 72,-1060.21"/>
<polygon fill="#4d4d4d" stroke="#4d4d4d" points="74.45,-1060.21 72,-1053.21 69.55,-1060.21 74.45,-1060.21"/>
</g>
<!-- C&#45;0352&#45;&gt;S&#45;2413 -->
<g id="edge57" class="edge">
<title>C&#45;0352&#45;&gt;S&#45;2413</title>
<path fill="none" stroke="blue" stroke-dasharray="5,2" d="M208.67,-648.92C208.67,-662.68 208.67,-678 208.67,-678 208.67,-678 1392,-678 1392,-678 1392,-678 1392,-901.97 1392,-901.97"/>
<polygon fill="blue" stroke="blue" points="1389.55,-901.97 1392,-908.97 1394.45,-901.97 1389.55,-901.97"/>
</g>
<!-- S&#45;516&#45;&gt;S&#45;2030 -->
<g id="edge40" class="edge">
<title>S&#45;516&#45;&gt;S&#45;2030</title>
<path fill="none" stroke="#4d4d4d" d="M821,-1326.34C821,-1309.83 821,-1274 821,-1274 821,-1274 1001,-1274 1001,-1274 1001,-1274 1001,-1248.7 1001,-1248.7"/>
<polygon fill="#4d4d4d" stroke="#4d4d4d" points="1003.45,-1248.7 1001,-1241.7 998.55,-1248.7 1003.45,-1248.7"/>
</g>
<!-- S&#45;516&#45;&gt;C&#45;0926 -->
<g id="edge44" class="edge">
<title>S&#45;516&#45;&gt;C&#45;0926</title>
<path fill="none" stroke="#4d4d4d" d="M834.5,-1330.37C834.5,-1319.87 834.5,-1293 834.5,-1293 834.5,-1293 1199.5,-1293 1199.5,-1293 1199.5,-1293 1199.5,-1250.86 1199.5,-1250.86"/>
<polygon fill="#4d4d4d" stroke="#4d4d4d" points="1201.95,-1250.86 1199.5,-1243.86 1197.05,-1250.86 1201.95,-1250.86"/>
</g>
<!-- S&#45;516&#45;&gt;S&#45;596 -->
<g id="edge6" class="edge">
<title>S&#45;516&#45;&gt;S&#45;596</title>
<path fill="none" stroke="#4d4d4d" d="M725.69,-1341C608.26,-1341 326,-1341 326,-1341 326,-1341 326,-1262.25 326,-1262.25"/>
<polygon fill="#4d4d4d" stroke="#4d4d4d" points="328.45,-1262.25 326,-1255.25 323.55,-1262.25 328.45,-1262.25"/>
</g>
<!-- S&#45;516&#45;&gt;S&#45;515 -->
<g id="edge10" class="edge">
<title>S&#45;516&#45;&gt;S&#45;515</title>
<path fill="none" stroke="#4d4d4d" d="M728.92,-1327C667.69,-1327 568.5,-1327 568.5,-1327 568.5,-1327 568.5,-1243.61 568.5,-1243.61"/>
<polygon fill="#4d4d4d" stroke="#4d4d4d" points="570.95,-1243.61 568.5,-1236.61 566.05,-1243.61 570.95,-1243.61"/>
</g>
<!-- S&#45;516&#45;&gt;S&#45;1970 -->
<g id="edge9" class="edge">
<title>S&#45;516&#45;&gt;S&#45;1970</title>
<path fill="none" stroke="#4d4d4d" d="M731,-1326.23C731,-1326.23 731,-1248.6 731,-1248.6"/>
<polygon fill="#4d4d4d" stroke="#4d4d4d" points="733.45,-1248.6 731,-1241.6 728.55,-1248.6 733.45,-1248.6"/>
</g>
<!-- S&#45;516&#45;&gt;S&#45;1375 -->
<g id="edge8" class="edge">
<title>S&#45;516&#45;&gt;S&#45;1375</title>
<path fill="none" stroke="#4d4d4d" d="M807.5,-1322.12C807.5,-1322.12 807.5,-1244.65 807.5,-1244.65"/>
<polygon fill="#4d4d4d" stroke="#4d4d4d" points="809.95,-1244.65 807.5,-1237.65 805.05,-1244.65 809.95,-1244.65"/>
</g>
<!-- C&#45;0928&#45;&gt;S&#45;1969 -->
<g id="edge50" class="edge">
<title>C&#45;0928&#45;&gt;S&#45;1969</title>
<path fill="none" stroke="#4d4d4d" d="M1448.46,-1018C1501.25,-1018 1572,-1018 1572,-1018 1572,-1018 1572,-959.13 1572,-959.13"/>
<polygon fill="#4d4d4d" stroke="#4d4d4d" points="1574.45,-959.13 1572,-952.13 1569.55,-959.13 1574.45,-959.13"/>
</g>
<!-- C&#45;0928&#45;&gt;S&#45;510 -->
<g id="edge48" class="edge">
<title>C&#45;0928&#45;&gt;S&#45;510</title>
<path fill="none" stroke="#4d4d4d" d="M1462.69,-1027C1567.54,-1027 1752,-1027 1752,-1027 1752,-1027 1752,-959.4 1752,-959.4"/>
<polygon fill="#4d4d4d" stroke="#4d4d4d" points="1754.45,-959.4 1752,-952.4 1749.55,-959.4 1754.45,-959.4"/>
</g>
<!-- C&#45;0928&#45;&gt;S&#45;209 -->
<g id="edge52" class="edge">
<title>C&#45;0928&#45;&gt;S&#45;209</title>
<path fill="none" stroke="#4d4d4d" d="M1463.15,-1035C1609.78,-1035 1932,-1035 1932,-1035 1932,-1035 1932,-959.15 1932,-959.15"/>
<polygon fill="#4d4d4d" stroke="#4d4d4d" points="1934.45,-959.15 1932,-952.15 1929.55,-959.15 1934.45,-959.15"/>
</g>
<!-- C&#45;0928&#45;&gt;S&#45;2038 -->
<g id="edge53" class="edge">
<title>C&#45;0928&#45;&gt;S&#45;2038</title>
<path fill="none" stroke="#4d4d4d" d="M1450.62,-1044C1622.3,-1044 2112,-1044 2112,-1044 2112,-1044 2112,-959.12 2112,-959.12"/>
<polygon fill="#4d4d4d" stroke="#4d4d4d" points="2114.45,-959.12 2112,-952.12 2109.55,-959.12 2114.45,-959.12"/>
</g>
<!-- C&#45;0928&#45;&gt;S&#45;2546 -->
<g id="edge49" class="edge">
<title>C&#45;0928&#45;&gt;S&#45;2546</title>
<path fill="none" stroke="#4d4d4d" d="M1368,-1010.96C1368,-996.98 1368,-981 1368,-981 1368,-981 885.5,-981 885.5,-981 885.5,-981 885.5,-949.21 885.5,-949.21"/>
<polygon fill="#4d4d4d" stroke="#4d4d4d" points="887.95,-949.21 885.5,-942.21 883.05,-949.21 887.95,-949.21"/>
</g>
<!-- C&#45;0928&#45;&gt;C&#45;0927 -->
<g id="edge47" class="edge">
<title>C&#45;0928&#45;&gt;C&#45;0927</title>
<path fill="none" stroke="#4d4d4d" d="M1323.31,-1038C1227.23,-1038 1064.33,-1038 1064.33,-1038 1064.33,-1038 1064.33,-956.72 1064.33,-956.72"/>
<polygon fill="#4d4d4d" stroke="#4d4d4d" points="1066.78,-956.72 1064.33,-949.72 1061.88,-956.72 1066.78,-956.72"/>
</g>
<!-- C&#45;0928&#45;&gt;S&#45;2449 -->
<g id="edge54" class="edge">
<title>C&#45;0928&#45;&gt;S&#45;2449</title>
<path fill="none" stroke="#4d4d4d" d="M1324.52,-1024C1293.93,-1024 1264.5,-1024 1264.5,-1024 1264.5,-1024 1264.5,-943.35 1264.5,-943.35"/>
<polygon fill="#4d4d4d" stroke="#4d4d4d" points="1266.95,-943.35 1264.5,-936.35 1262.05,-943.35 1266.95,-943.35"/>
</g>
<!-- C&#45;0928&#45;&gt;S&#45;2413 -->
<g id="edge51" class="edge">
<title>C&#45;0928&#45;&gt;S&#45;2413</title>
<path fill="none" stroke="#4d4d4d" d="M1416,-1011.06C1416,-1011.06 1416,-952.03 1416,-952.03"/>
<polygon fill="#4d4d4d" stroke="#4d4d4d" points="1418.45,-952.03 1416,-945.03 1413.55,-952.03 1418.45,-952.03"/>
</g>
<!-- C&#45;0578&#45;&gt;R&#45;107 -->
<g id="edge25" class="edge">
<title>C&#45;0578&#45;&gt;R&#45;107</title>
<path fill="none" stroke="#4d4d4d" d="M582,-605.58C582,-605.58 582,-555.03 582,-555.03"/>
<polygon fill="#4d4d4d" stroke="#4d4d4d" points="584.45,-555.03 582,-548.03 579.55,-555.03 584.45,-555.03"/>
</g>
</g>
</svg>
