<?xml version="1.0" encoding="UTF-8" standalone="no"?>
<!DOCTYPE svg PUBLIC "-//W3C//DTD SVG 1.1//EN"
 "http://www.w3.org/Graphics/SVG/1.1/DTD/svg11.dtd">
<!-- Generated by graphviz version 2.50.0 (0)
 -->
<!-- Title: Grafo_Circuito_304_23_ Pages: 1 -->
<svg width="1920pt" height="1776pt"
 viewBox="0.00 0.00 1920.00 1776.00" xmlns="http://www.w3.org/2000/svg" xmlns:xlink="http://www.w3.org/1999/xlink">
<g id="graph0" class="graph" transform="scale(1 1) rotate(0) translate(4 1772)">
<title>Grafo_Circuito_304_23_</title>
<polygon fill="white" stroke="transparent" points="-4,4 -4,-1772 1916,-1772 1916,4 -4,4"/>
<!-- S&#45;2017 -->
<g id="node1" class="node">
<title>S&#45;2017</title>
<polygon fill="mediumseagreen" stroke="black" points="814,-1154 742,-1132.5 814,-1111 886,-1132.5 814,-1154"/>
<text text-anchor="middle" x="814" y="-1130" font-family="Arial" font-size="10.00">S&#45;2017</text>
</g>
<!-- C&#45;1036 -->
<g id="node2" class="node">
<title>C&#45;1036</title>
<ellipse fill="mediumseagreen" stroke="black" cx="72" cy="-829.5" rx="72" ry="21.5"/>
<text text-anchor="middle" x="72" y="-827" font-family="Arial" font-size="10.00">C&#45;1036</text>
</g>
<!-- R&#45;087 -->
<g id="node54" class="node">
<title>R&#45;087</title>
<polygon fill="tomato" stroke="black" points="248,-416.59 248,-434.41 205.82,-447 146.18,-447 104,-434.41 104,-416.59 146.18,-404 205.82,-404 248,-416.59"/>
<text text-anchor="middle" x="176" y="-423" font-family="Arial" font-size="10.00">R&#45;087</text>
</g>
<!-- C&#45;1036&#45;&gt;R&#45;087 -->
<g id="edge48" class="edge">
<title>C&#45;1036&#45;&gt;R&#45;087</title>
<path fill="none" stroke="#4d4d4d" d="M124,-814.16C124,-814.16 124,-447.43 124,-447.43"/>
<polygon fill="#4d4d4d" stroke="#4d4d4d" points="126.45,-447.43 124,-440.43 121.55,-447.43 126.45,-447.43"/>
</g>
<!-- S&#45;139 -->
<g id="node3" class="node">
<title>S&#45;139</title>
<polygon fill="mediumseagreen" stroke="black" points="994,-1154 922,-1132.5 994,-1111 1066,-1132.5 994,-1154"/>
<text text-anchor="middle" x="994" y="-1130" font-family="Arial" font-size="10.00">S&#45;139</text>
</g>
<!-- S&#45;870 -->
<g id="node4" class="node">
<title>S&#45;870</title>
<polygon fill="mediumseagreen" stroke="black" points="454,-1053 382,-1031.5 454,-1010 526,-1031.5 454,-1053"/>
<text text-anchor="middle" x="454" y="-1029" font-family="Arial" font-size="10.00">S&#45;870</text>
</g>
<!-- S&#45;139&#45;&gt;S&#45;870 -->
<g id="edge54" class="edge">
<title>S&#45;139&#45;&gt;S&#45;870</title>
<path fill="none" stroke="#4d4d4d" d="M950.8,-1123.66C950.8,-1112.86 950.8,-1096 950.8,-1096 950.8,-1096 454,-1096 454,-1096 454,-1096 454,-1060.34 454,-1060.34"/>
<polygon fill="#4d4d4d" stroke="#4d4d4d" points="456.45,-1060.34 454,-1053.34 451.55,-1060.34 456.45,-1060.34"/>
</g>
<!-- S&#45;879 -->
<g id="node18" class="node">
<title>S&#45;879</title>
<polygon fill="mediumseagreen" stroke="black" points="634,-1053 562,-1031.5 634,-1010 706,-1031.5 634,-1053"/>
<text text-anchor="middle" x="634" y="-1029" font-family="Arial" font-size="10.00">S&#45;879</text>
</g>
<!-- S&#45;139&#45;&gt;S&#45;879 -->
<g id="edge19" class="edge">
<title>S&#45;139&#45;&gt;S&#45;879</title>
<path fill="none" stroke="#4d4d4d" d="M979.6,-1115.12C979.6,-1100.51 979.6,-1082 979.6,-1082 979.6,-1082 634,-1082 634,-1082 634,-1082 634,-1060.21 634,-1060.21"/>
<polygon fill="#4d4d4d" stroke="#4d4d4d" points="636.45,-1060.21 634,-1053.21 631.55,-1060.21 636.45,-1060.21"/>
</g>
<!-- S&#45;540 -->
<g id="node31" class="node">
<title>S&#45;540</title>
<polygon fill="mediumseagreen" stroke="black" points="814,-1053 742,-1031.5 814,-1010 886,-1031.5 814,-1053"/>
<text text-anchor="middle" x="814" y="-1029" font-family="Arial" font-size="10.00">S&#45;540</text>
</g>
<!-- S&#45;139&#45;&gt;S&#45;540 -->
<g id="edge18" class="edge">
<title>S&#45;139&#45;&gt;S&#45;540</title>
<path fill="none" stroke="#4d4d4d" d="M923.53,-1132C912.14,-1132 904,-1132 904,-1132 904,-1132 904,-1031 904,-1031 904,-1031 891.47,-1031 891.47,-1031"/>
<polygon fill="#4d4d4d" stroke="#4d4d4d" points="891.47,-1028.55 884.47,-1031 891.47,-1033.45 891.47,-1028.55"/>
</g>
<!-- S&#45;1554 -->
<g id="node41" class="node">
<title>S&#45;1554</title>
<polygon fill="mediumseagreen" stroke="black" points="994,-1053 922,-1031.5 994,-1010 1066,-1031.5 994,-1053"/>
<text text-anchor="middle" x="994" y="-1029" font-family="Arial" font-size="10.00">S&#45;1554</text>
</g>
<!-- S&#45;139&#45;&gt;S&#45;1554 -->
<g id="edge20" class="edge">
<title>S&#45;139&#45;&gt;S&#45;1554</title>
<path fill="none" stroke="#4d4d4d" d="M1008.4,-1114.91C1008.4,-1114.91 1008.4,-1055.89 1008.4,-1055.89"/>
<polygon fill="#4d4d4d" stroke="#4d4d4d" points="1010.85,-1055.89 1008.4,-1048.89 1005.95,-1055.89 1010.85,-1055.89"/>
</g>
<!-- R&#45;065 -->
<g id="node44" class="node">
<title>R&#45;065</title>
<polygon fill="mediumseagreen" stroke="black" points="1246,-1022.59 1246,-1040.41 1203.82,-1053 1144.18,-1053 1102,-1040.41 1102,-1022.59 1144.18,-1010 1203.82,-1010 1246,-1022.59"/>
<text text-anchor="middle" x="1174" y="-1029" font-family="Arial" font-size="10.00">R&#45;065</text>
</g>
<!-- S&#45;139&#45;&gt;R&#45;065 -->
<g id="edge21" class="edge">
<title>S&#45;139&#45;&gt;R&#45;065</title>
<path fill="none" stroke="#4d4d4d" d="M1064.47,-1132C1075.86,-1132 1084,-1132 1084,-1132 1084,-1132 1084,-1031 1084,-1031 1084,-1031 1094.78,-1031 1094.78,-1031"/>
<polygon fill="#4d4d4d" stroke="#4d4d4d" points="1094.78,-1033.45 1101.78,-1031 1094.78,-1028.55 1094.78,-1033.45"/>
</g>
<!-- S&#45;906 -->
<g id="node48" class="node">
<title>S&#45;906</title>
<polygon fill="mediumseagreen" stroke="black" points="1354,-1053 1282,-1031.5 1354,-1010 1426,-1031.5 1354,-1053"/>
<text text-anchor="middle" x="1354" y="-1029" font-family="Arial" font-size="10.00">S&#45;906</text>
</g>
<!-- S&#45;139&#45;&gt;S&#45;906 -->
<g id="edge17" class="edge">
<title>S&#45;139&#45;&gt;S&#45;906</title>
<path fill="none" stroke="#4d4d4d" d="M1037.2,-1123.67C1037.2,-1105.79 1037.2,-1067 1037.2,-1067 1037.2,-1067 1354,-1067 1354,-1067 1354,-1067 1354,-1060.38 1354,-1060.38"/>
<polygon fill="#4d4d4d" stroke="#4d4d4d" points="1356.45,-1060.38 1354,-1053.38 1351.55,-1060.38 1356.45,-1060.38"/>
</g>
<!-- S&#45;1363 -->
<g id="node5" class="node">
<title>S&#45;1363</title>
<polygon fill="mediumseagreen" stroke="black" points="252,-851 180,-829.5 252,-808 324,-829.5 252,-851"/>
<text text-anchor="middle" x="252" y="-827" font-family="Arial" font-size="10.00">S&#45;1363</text>
</g>
<!-- S&#45;2175 -->
<g id="node9" class="node">
<title>S&#45;2175</title>
<polygon fill="mediumseagreen" stroke="black" points="252,-750 180,-728.5 252,-707 324,-728.5 252,-750"/>
<text text-anchor="middle" x="252" y="-726" font-family="Arial" font-size="10.00">S&#45;2175</text>
</g>
<!-- S&#45;1363&#45;&gt;S&#45;2175 -->
<g id="edge44" class="edge">
<title>S&#45;1363&#45;&gt;S&#45;2175</title>
<path fill="none" stroke="#4d4d4d" d="M252,-807.58C252,-807.58 252,-757.03 252,-757.03"/>
<polygon fill="#4d4d4d" stroke="#4d4d4d" points="254.45,-757.03 252,-750.03 249.55,-757.03 254.45,-757.03"/>
</g>
<!-- C&#45;1034 -->
<g id="node6" class="node">
<title>C&#45;1034</title>
<ellipse fill="tomato" stroke="black" cx="379" cy="-526.5" rx="72" ry="21.5"/>
<text text-anchor="middle" x="379" y="-524" font-family="Arial" font-size="10.00">C&#45;1034</text>
</g>
<!-- ext_circ_307_24_ -->
<g id="node58" class="node">
<title>ext_circ_307_24_</title>
<polygon fill="lightpink" stroke="darkorange" stroke-dasharray="5,2" points="615,-43 471,-43 471,0 615,0 615,-43"/>
<text text-anchor="middle" x="543" y="-24.5" font-family="Arial" font-size="10.00">Circuito:</text>
<text text-anchor="middle" x="543" y="-13.5" font-family="Arial" font-size="10.00">307&#45;24&#45;</text>
</g>
<!-- C&#45;1034&#45;&gt;ext_circ_307_24_ -->
<g id="edge67" class="edge">
<title>C&#45;1034&#45;&gt;ext_circ_307_24_</title>
<path fill="none" stroke="darkorange" stroke-dasharray="5,2" d="M370.5,-505.08C370.5,-409.66 370.5,-28 370.5,-28 370.5,-28 463.84,-28 463.84,-28"/>
<polygon fill="darkorange" stroke="darkorange" points="463.84,-30.45 470.84,-28 463.84,-25.55 463.84,-30.45"/>
</g>
<!-- S&#45;2003 -->
<g id="node7" class="node">
<title>S&#45;2003</title>
<polygon fill="mediumseagreen" stroke="black" points="1300,-750 1228,-728.5 1300,-707 1372,-728.5 1300,-750"/>
<text text-anchor="middle" x="1300" y="-726" font-family="Arial" font-size="10.00">S&#45;2003</text>
</g>
<!-- S&#45;589 -->
<g id="node8" class="node">
<title>S&#45;589</title>
<polygon fill="mediumseagreen" stroke="black" points="1174,-1154 1102,-1132.5 1174,-1111 1246,-1132.5 1174,-1154"/>
<text text-anchor="middle" x="1174" y="-1130" font-family="Arial" font-size="10.00">S&#45;589</text>
</g>
<!-- S&#45;2231 -->
<g id="node55" class="node">
<title>S&#45;2231</title>
<polygon fill="mediumseagreen" stroke="black" points="252,-649 180,-627.5 252,-606 324,-627.5 252,-649"/>
<text text-anchor="middle" x="252" y="-625" font-family="Arial" font-size="10.00">S&#45;2231</text>
</g>
<!-- S&#45;2175&#45;&gt;S&#45;2231 -->
<g id="edge45" class="edge">
<title>S&#45;2175&#45;&gt;S&#45;2231</title>
<path fill="none" stroke="#4d4d4d" d="M252,-706.58C252,-706.58 252,-656.03 252,-656.03"/>
<polygon fill="#4d4d4d" stroke="#4d4d4d" points="254.45,-656.03 252,-649.03 249.55,-656.03 254.45,-656.03"/>
</g>
<!-- C&#45;0759 -->
<g id="node10" class="node">
<title>C&#45;0759</title>
<ellipse fill="mediumseagreen" stroke="black" cx="760" cy="-223.5" rx="72" ry="21.5"/>
<text text-anchor="middle" x="760" y="-221" font-family="Arial" font-size="10.00">C&#45;0759</text>
</g>
<!-- R&#45;167 -->
<g id="node50" class="node">
<title>R&#45;167</title>
<polygon fill="tomato" stroke="black" points="774,-113.59 774,-131.41 731.82,-144 672.18,-144 630,-131.41 630,-113.59 672.18,-101 731.82,-101 774,-113.59"/>
<text text-anchor="middle" x="702" y="-120" font-family="Arial" font-size="10.00">R&#45;167</text>
</g>
<!-- C&#45;0759&#45;&gt;R&#45;167 -->
<g id="edge33" class="edge">
<title>C&#45;0759&#45;&gt;R&#45;167</title>
<path fill="none" stroke="#4d4d4d" d="M731,-203.55C731,-203.55 731,-151.16 731,-151.16"/>
<polygon fill="#4d4d4d" stroke="#4d4d4d" points="733.45,-151.16 731,-144.16 728.55,-151.16 733.45,-151.16"/>
</g>
<!-- R&#45;271 -->
<g id="node11" class="node">
<title>R&#45;271</title>
<polygon fill="tomato" stroke="black" points="578,-214.59 578,-232.41 535.82,-245 476.18,-245 434,-232.41 434,-214.59 476.18,-202 535.82,-202 578,-214.59"/>
<text text-anchor="middle" x="506" y="-221" font-family="Arial" font-size="10.00">R&#45;271</text>
</g>
<!-- ext_circ_303_26_ -->
<g id="node60" class="node">
<title>ext_circ_303_26_</title>
<polygon fill="lightpink" stroke="darkorange" stroke-dasharray="5,2" points="584,-144 440,-144 440,-101 584,-101 584,-144"/>
<text text-anchor="middle" x="512" y="-125.5" font-family="Arial" font-size="10.00">Circuito:</text>
<text text-anchor="middle" x="512" y="-114.5" font-family="Arial" font-size="10.00">303&#45;26&#45;</text>
</g>
<!-- R&#45;271&#45;&gt;ext_circ_303_26_ -->
<g id="edge62" class="edge">
<title>R&#45;271&#45;&gt;ext_circ_303_26_</title>
<path fill="none" stroke="darkorange" stroke-dasharray="5,2" d="M486,-201.58C486,-201.58 486,-151.03 486,-151.03"/>
<polygon fill="darkorange" stroke="darkorange" points="488.45,-151.03 486,-144.03 483.55,-151.03 488.45,-151.03"/>
</g>
<!-- C&#45;0037 -->
<g id="node12" class="node">
<title>C&#45;0037</title>
<ellipse fill="mediumseagreen" stroke="black" cx="1228" cy="-1637.5" rx="72" ry="21.5"/>
<text text-anchor="middle" x="1228" y="-1635" font-family="Arial" font-size="10.00">C&#45;0037</text>
</g>
<!-- S&#45;1279 -->
<g id="node16" class="node">
<title>S&#45;1279</title>
<polygon fill="mediumseagreen" stroke="black" points="958,-1558 886,-1536.5 958,-1515 1030,-1536.5 958,-1558"/>
<text text-anchor="middle" x="958" y="-1534" font-family="Arial" font-size="10.00">S&#45;1279</text>
</g>
<!-- C&#45;0037&#45;&gt;S&#45;1279 -->
<g id="edge2" class="edge">
<title>C&#45;0037&#45;&gt;S&#45;1279</title>
<path fill="none" stroke="#4d4d4d" d="M1156,-1637C1076.02,-1637 958,-1637 958,-1637 958,-1637 958,-1565.31 958,-1565.31"/>
<polygon fill="#4d4d4d" stroke="#4d4d4d" points="960.45,-1565.31 958,-1558.31 955.55,-1565.31 960.45,-1565.31"/>
</g>
<!-- C&#45;0358 -->
<g id="node21" class="node">
<title>C&#45;0358</title>
<ellipse fill="mediumseagreen" stroke="black" cx="1138" cy="-1536.5" rx="72" ry="21.5"/>
<text text-anchor="middle" x="1138" y="-1534" font-family="Arial" font-size="10.00">C&#45;0358</text>
</g>
<!-- C&#45;0037&#45;&gt;C&#45;0358 -->
<g id="edge5" class="edge">
<title>C&#45;0037&#45;&gt;C&#45;0358</title>
<path fill="none" stroke="#4d4d4d" d="M1183,-1620.37C1183,-1620.37 1183,-1560.38 1183,-1560.38"/>
<polygon fill="#4d4d4d" stroke="#4d4d4d" points="1185.45,-1560.38 1183,-1553.38 1180.55,-1560.38 1185.45,-1560.38"/>
</g>
<!-- S&#45;1849 -->
<g id="node24" class="node">
<title>S&#45;1849</title>
<polygon fill="mediumseagreen" stroke="black" points="1318,-1558 1246,-1536.5 1318,-1515 1390,-1536.5 1318,-1558"/>
<text text-anchor="middle" x="1318" y="-1534" font-family="Arial" font-size="10.00">S&#45;1849</text>
</g>
<!-- C&#45;0037&#45;&gt;S&#45;1849 -->
<g id="edge4" class="edge">
<title>C&#45;0037&#45;&gt;S&#45;1849</title>
<path fill="none" stroke="#4d4d4d" d="M1273,-1620.37C1273,-1620.37 1273,-1551.78 1273,-1551.78"/>
<polygon fill="#4d4d4d" stroke="#4d4d4d" points="1275.45,-1551.78 1273,-1544.78 1270.55,-1551.78 1275.45,-1551.78"/>
</g>
<!-- C&#45;0034 -->
<g id="node26" class="node">
<title>C&#45;0034</title>
<ellipse fill="tomato" stroke="black" cx="1732" cy="-1233.5" rx="72" ry="21.5"/>
<text text-anchor="middle" x="1732" y="-1231" font-family="Arial" font-size="10.00">C&#45;0034</text>
</g>
<!-- C&#45;0037&#45;&gt;C&#45;0034 -->
<g id="edge3" class="edge">
<title>C&#45;0037&#45;&gt;C&#45;0034</title>
<path fill="none" stroke="#4d4d4d" d="M1228,-1615.78C1228,-1533.29 1228,-1244 1228,-1244 1228,-1244 1661.93,-1244 1661.93,-1244"/>
<polygon fill="#4d4d4d" stroke="#4d4d4d" points="1661.93,-1246.45 1668.93,-1244 1661.93,-1241.55 1661.93,-1246.45"/>
</g>
<!-- C&#45;0843 -->
<g id="node13" class="node">
<title>C&#45;0843</title>
<ellipse fill="tomato" stroke="black" cx="634" cy="-1132.5" rx="72" ry="21.5"/>
<text text-anchor="middle" x="634" y="-1130" font-family="Arial" font-size="10.00">C&#45;0843</text>
</g>
<!-- C&#45;0844 -->
<g id="node32" class="node">
<title>C&#45;0844</title>
<ellipse fill="mediumseagreen" stroke="black" cx="1327" cy="-1435.5" rx="72" ry="21.5"/>
<text text-anchor="middle" x="1327" y="-1433" font-family="Arial" font-size="10.00">C&#45;0844</text>
</g>
<!-- C&#45;0843&#45;&gt;C&#45;0844 -->
<g id="edge57" class="edge">
<title>C&#45;0843&#45;&gt;C&#45;0844</title>
<path fill="none" stroke="blue" stroke-dasharray="5,2" d="M610,-1153.04C610,-1167.02 610,-1183 610,-1183 610,-1183 1264,-1183 1264,-1183 1264,-1183 1264,-1417.97 1264,-1417.97"/>
<polygon fill="blue" stroke="blue" points="1261.55,-1417.97 1264,-1424.97 1266.45,-1417.97 1261.55,-1417.97"/>
</g>
<!-- S&#45;859 -->
<g id="node14" class="node">
<title>S&#45;859</title>
<polygon fill="mediumseagreen" stroke="black" points="930,-1457 858,-1435.5 930,-1414 1002,-1435.5 930,-1457"/>
<text text-anchor="middle" x="930" y="-1433" font-family="Arial" font-size="10.00">S&#45;859</text>
</g>
<!-- 304&#45;23&#45; -->
<g id="node15" class="node">
<title>304&#45;23&#45;</title>
<polygon fill="gold" stroke="black" points="1300,-1733.59 1300,-1751.41 1257.82,-1764 1198.18,-1764 1156,-1751.41 1156,-1733.59 1198.18,-1721 1257.82,-1721 1300,-1733.59"/>
<polygon fill="none" stroke="black" points="1304,-1730.61 1304,-1754.39 1258.41,-1768 1197.59,-1768 1152,-1754.39 1152,-1730.61 1197.59,-1717 1258.41,-1717 1304,-1730.61"/>
<text text-anchor="middle" x="1228" y="-1740" font-family="Arial" font-size="10.00">304&#45;23&#45;</text>
</g>
<!-- 304&#45;23&#45;&#45;&gt;C&#45;0037 -->
<g id="edge1" class="edge">
<title>304&#45;23&#45;&#45;&gt;C&#45;0037</title>
<path fill="none" stroke="#4d4d4d" d="M1228,-1716.81C1228,-1716.81 1228,-1666.03 1228,-1666.03"/>
<polygon fill="#4d4d4d" stroke="#4d4d4d" points="1230.45,-1666.03 1228,-1659.03 1225.55,-1666.03 1230.45,-1666.03"/>
</g>
<!-- S&#45;544 -->
<g id="node17" class="node">
<title>S&#45;544</title>
<polygon fill="mediumseagreen" stroke="black" points="1110,-1457 1038,-1435.5 1110,-1414 1182,-1435.5 1110,-1457"/>
<text text-anchor="middle" x="1110" y="-1433" font-family="Arial" font-size="10.00">S&#45;544</text>
</g>
<!-- S&#45;2025 -->
<g id="node30" class="node">
<title>S&#45;2025</title>
<polygon fill="mediumseagreen" stroke="black" points="911,-1356 839,-1334.5 911,-1313 983,-1334.5 911,-1356"/>
<text text-anchor="middle" x="911" y="-1332" font-family="Arial" font-size="10.00">S&#45;2025</text>
</g>
<!-- S&#45;544&#45;&gt;S&#45;2025 -->
<g id="edge8" class="edge">
<title>S&#45;544&#45;&gt;S&#45;2025</title>
<path fill="none" stroke="#4d4d4d" d="M1063.02,-1428C1035.86,-1428 1007,-1428 1007,-1428 1007,-1428 1007,-1334 1007,-1334 1007,-1334 988.53,-1334 988.53,-1334"/>
<polygon fill="#4d4d4d" stroke="#4d4d4d" points="988.53,-1331.55 981.53,-1334 988.53,-1336.45 988.53,-1331.55"/>
</g>
<!-- S&#45;1505 -->
<g id="node35" class="node">
<title>S&#45;1505</title>
<polygon fill="mediumseagreen" stroke="black" points="1091,-1356 1019,-1334.5 1091,-1313 1163,-1334.5 1091,-1356"/>
<text text-anchor="middle" x="1091" y="-1332" font-family="Arial" font-size="10.00">S&#45;1505</text>
</g>
<!-- S&#45;544&#45;&gt;S&#45;1505 -->
<g id="edge7" class="edge">
<title>S&#45;544&#45;&gt;S&#45;1505</title>
<path fill="none" stroke="#4d4d4d" d="M1100.5,-1416.5C1100.5,-1416.5 1100.5,-1360.41 1100.5,-1360.41"/>
<polygon fill="#4d4d4d" stroke="#4d4d4d" points="1102.95,-1360.41 1100.5,-1353.41 1098.05,-1360.41 1102.95,-1360.41"/>
</g>
<!-- R&#45;100 -->
<g id="node19" class="node">
<title>R&#45;100</title>
<polygon fill="mediumseagreen" stroke="black" points="1647,-618.59 1647,-636.41 1604.82,-649 1545.18,-649 1503,-636.41 1503,-618.59 1545.18,-606 1604.82,-606 1647,-618.59"/>
<text text-anchor="middle" x="1575" y="-625" font-family="Arial" font-size="10.00">R&#45;100</text>
</g>
<!-- C&#45;0596 -->
<g id="node49" class="node">
<title>C&#45;0596</title>
<ellipse fill="mediumseagreen" stroke="black" cx="1199" cy="-526.5" rx="72" ry="21.5"/>
<text text-anchor="middle" x="1199" y="-524" font-family="Arial" font-size="10.00">C&#45;0596</text>
</g>
<!-- R&#45;100&#45;&gt;C&#45;0596 -->
<g id="edge28" class="edge">
<title>R&#45;100&#45;&gt;C&#45;0596</title>
<path fill="none" stroke="#4d4d4d" d="M1502.76,-627C1406.87,-627 1249.5,-627 1249.5,-627 1249.5,-627 1249.5,-549.2 1249.5,-549.2"/>
<polygon fill="#4d4d4d" stroke="#4d4d4d" points="1251.95,-549.2 1249.5,-542.2 1247.05,-549.2 1251.95,-549.2"/>
</g>
<!-- S&#45;1482 -->
<g id="node20" class="node">
<title>S&#45;1482</title>
<polygon fill="mediumseagreen" stroke="black" points="866,-447 794,-425.5 866,-404 938,-425.5 866,-447"/>
<text text-anchor="middle" x="866" y="-423" font-family="Arial" font-size="10.00">S&#45;1482</text>
</g>
<!-- C&#45;1096 -->
<g id="node22" class="node">
<title>C&#45;1096</title>
<ellipse fill="mediumseagreen" stroke="black" cx="506" cy="-324.5" rx="72" ry="21.5"/>
<text text-anchor="middle" x="506" y="-322" font-family="Arial" font-size="10.00">C&#45;1096</text>
</g>
<!-- S&#45;1482&#45;&gt;C&#45;1096 -->
<g id="edge36" class="edge">
<title>S&#45;1482&#45;&gt;C&#45;1096</title>
<path fill="none" stroke="#4d4d4d" d="M815.64,-432C718.45,-432 514.5,-432 514.5,-432 514.5,-432 514.5,-353 514.5,-353"/>
<polygon fill="#4d4d4d" stroke="#4d4d4d" points="516.95,-353 514.5,-346 512.05,-353 516.95,-353"/>
</g>
<!-- S&#45;2457 -->
<g id="node28" class="node">
<title>S&#45;2457</title>
<polygon fill="mediumseagreen" stroke="black" points="686,-346 614,-324.5 686,-303 758,-324.5 686,-346"/>
<text text-anchor="middle" x="686" y="-322" font-family="Arial" font-size="10.00">S&#45;2457</text>
</g>
<!-- S&#45;1482&#45;&gt;S&#45;2457 -->
<g id="edge30" class="edge">
<title>S&#45;1482&#45;&gt;S&#45;2457</title>
<path fill="none" stroke="#4d4d4d" d="M818.71,-418C765.38,-418 686,-418 686,-418 686,-418 686,-353.19 686,-353.19"/>
<polygon fill="#4d4d4d" stroke="#4d4d4d" points="688.45,-353.19 686,-346.19 683.55,-353.19 688.45,-353.19"/>
</g>
<!-- C&#45;0232 -->
<g id="node36" class="node">
<title>C&#45;0232</title>
<ellipse fill="tomato" stroke="black" cx="866" cy="-324.5" rx="72" ry="21.5"/>
<text text-anchor="middle" x="866" y="-322" font-family="Arial" font-size="10.00">C&#45;0232</text>
</g>
<!-- S&#45;1482&#45;&gt;C&#45;0232 -->
<g id="edge38" class="edge">
<title>S&#45;1482&#45;&gt;C&#45;0232</title>
<path fill="none" stroke="#4d4d4d" d="M866,-403.58C866,-403.58 866,-353.03 866,-353.03"/>
<polygon fill="#4d4d4d" stroke="#4d4d4d" points="868.45,-353.03 866,-346.03 863.55,-353.03 868.45,-353.03"/>
</g>
<!-- S&#45;1481 -->
<g id="node51" class="node">
<title>S&#45;1481</title>
<polygon fill="mediumseagreen" stroke="black" points="1046,-346 974,-324.5 1046,-303 1118,-324.5 1046,-346"/>
<text text-anchor="middle" x="1046" y="-322" font-family="Arial" font-size="10.00">S&#45;1481</text>
</g>
<!-- S&#45;1482&#45;&gt;S&#45;1481 -->
<g id="edge31" class="edge">
<title>S&#45;1482&#45;&gt;S&#45;1481</title>
<path fill="none" stroke="#4d4d4d" d="M899.7,-414C937.32,-414 993,-414 993,-414 993,-414 993,-337.37 993,-337.37"/>
<polygon fill="#4d4d4d" stroke="#4d4d4d" points="995.45,-337.37 993,-330.37 990.55,-337.37 995.45,-337.37"/>
</g>
<!-- C&#45;0358&#45;&gt;S&#45;859 -->
<g id="edge9" class="edge">
<title>C&#45;0358&#45;&gt;S&#45;859</title>
<path fill="none" stroke="#4d4d4d" d="M1065.77,-1536C1048.02,-1536 1034,-1536 1034,-1536 1034,-1536 1034,-1442 1034,-1442 1034,-1442 987.48,-1442 987.48,-1442"/>
<polygon fill="#4d4d4d" stroke="#4d4d4d" points="987.48,-1439.55 980.48,-1442 987.48,-1444.45 987.48,-1439.55"/>
</g>
<!-- C&#45;0358&#45;&gt;S&#45;544 -->
<g id="edge6" class="edge">
<title>C&#45;0358&#45;&gt;S&#45;544</title>
<path fill="none" stroke="#4d4d4d" d="M1124,-1515.08C1124,-1515.08 1124,-1459.86 1124,-1459.86"/>
<polygon fill="#4d4d4d" stroke="#4d4d4d" points="1126.45,-1459.86 1124,-1452.86 1121.55,-1459.86 1126.45,-1459.86"/>
</g>
<!-- C&#45;0358&#45;&gt;C&#45;0844 -->
<g id="edge10" class="edge">
<title>C&#45;0358&#45;&gt;C&#45;0844</title>
<path fill="none" stroke="#4d4d4d" d="M1196,-1523.64C1196,-1496.33 1196,-1435 1196,-1435 1196,-1435 1247.99,-1435 1247.99,-1435"/>
<polygon fill="#4d4d4d" stroke="#4d4d4d" points="1247.99,-1437.45 1254.99,-1435 1247.99,-1432.55 1247.99,-1437.45"/>
</g>
<!-- C&#45;1096&#45;&gt;R&#45;271 -->
<g id="edge37" class="edge">
<title>C&#45;1096&#45;&gt;R&#45;271</title>
<path fill="none" stroke="#4d4d4d" d="M506,-302.58C506,-302.58 506,-252.03 506,-252.03"/>
<polygon fill="#4d4d4d" stroke="#4d4d4d" points="508.45,-252.03 506,-245.03 503.55,-252.03 508.45,-252.03"/>
</g>
<!-- C&#45;0020 -->
<g id="node23" class="node">
<title>C&#45;0020</title>
<ellipse fill="tomato" stroke="black" cx="940" cy="-223.5" rx="72" ry="21.5"/>
<text text-anchor="middle" x="940" y="-221" font-family="Arial" font-size="10.00">C&#45;0020</text>
</g>
<!-- ext_circ_307_23_ -->
<g id="node59" class="node">
<title>ext_circ_307_23_</title>
<polygon fill="lightpink" stroke="darkorange" stroke-dasharray="5,2" points="959,-144 815,-144 815,-101 959,-101 959,-144"/>
<text text-anchor="middle" x="887" y="-125.5" font-family="Arial" font-size="10.00">Circuito:</text>
<text text-anchor="middle" x="887" y="-114.5" font-family="Arial" font-size="10.00">307&#45;23&#45;</text>
</g>
<!-- C&#45;0020&#45;&gt;ext_circ_307_23_ -->
<g id="edge61" class="edge">
<title>C&#45;0020&#45;&gt;ext_circ_307_23_</title>
<path fill="none" stroke="darkorange" stroke-dasharray="5,2" d="M913.5,-203.06C913.5,-203.06 913.5,-151.31 913.5,-151.31"/>
<polygon fill="darkorange" stroke="darkorange" points="915.95,-151.31 913.5,-144.31 911.05,-151.31 915.95,-151.31"/>
</g>
<!-- C&#45;0525 -->
<g id="node25" class="node">
<title>C&#45;0525</title>
<ellipse fill="mediumseagreen" stroke="black" cx="940" cy="-930.5" rx="72" ry="21.5"/>
<text text-anchor="middle" x="940" y="-928" font-family="Arial" font-size="10.00">C&#45;0525</text>
</g>
<!-- C&#45;0525&#45;&gt;C&#45;1036 -->
<g id="edge47" class="edge">
<title>C&#45;0525&#45;&gt;C&#45;1036</title>
<path fill="none" stroke="#4d4d4d" d="M886.68,-945C697.83,-945 72,-945 72,-945 72,-945 72,-858.22 72,-858.22"/>
<polygon fill="#4d4d4d" stroke="#4d4d4d" points="74.45,-858.22 72,-851.22 69.55,-858.22 74.45,-858.22"/>
</g>
<!-- C&#45;0525&#45;&gt;S&#45;1363 -->
<g id="edge43" class="edge">
<title>C&#45;0525&#45;&gt;S&#45;1363</title>
<path fill="none" stroke="#4d4d4d" d="M873.72,-939C701.29,-939 252,-939 252,-939 252,-939 252,-858.13 252,-858.13"/>
<polygon fill="#4d4d4d" stroke="#4d4d4d" points="254.45,-858.13 252,-851.13 249.55,-858.13 254.45,-858.13"/>
</g>
<!-- C&#45;0525&#45;&gt;C&#45;1034 -->
<g id="edge49" class="edge">
<title>C&#45;0525&#45;&gt;C&#45;1034</title>
<path fill="none" stroke="#4d4d4d" d="M868.25,-933C723.04,-933 408,-933 408,-933 408,-933 408,-553.38 408,-553.38"/>
<polygon fill="#4d4d4d" stroke="#4d4d4d" points="410.45,-553.38 408,-546.38 405.55,-553.38 410.45,-553.38"/>
</g>
<!-- S&#45;1900 -->
<g id="node27" class="node">
<title>S&#45;1900</title>
<polygon fill="mediumseagreen" stroke="black" points="506,-851 434,-829.5 506,-808 578,-829.5 506,-851"/>
<text text-anchor="middle" x="506" y="-827" font-family="Arial" font-size="10.00">S&#45;1900</text>
</g>
<!-- C&#45;0525&#45;&gt;S&#45;1900 -->
<g id="edge42" class="edge">
<title>C&#45;0525&#45;&gt;S&#45;1900</title>
<path fill="none" stroke="#4d4d4d" d="M868.66,-927C761.14,-927 570,-927 570,-927 570,-927 570,-838.91 570,-838.91"/>
<polygon fill="#4d4d4d" stroke="#4d4d4d" points="572.45,-838.91 570,-831.91 567.55,-838.91 572.45,-838.91"/>
</g>
<!-- S&#45;907 -->
<g id="node29" class="node">
<title>S&#45;907</title>
<polygon fill="mediumseagreen" stroke="black" points="686,-851 614,-829.5 686,-808 758,-829.5 686,-851"/>
<text text-anchor="middle" x="686" y="-827" font-family="Arial" font-size="10.00">S&#45;907</text>
</g>
<!-- C&#45;0525&#45;&gt;S&#45;907 -->
<g id="edge51" class="edge">
<title>C&#45;0525&#45;&gt;S&#45;907</title>
<path fill="none" stroke="#4d4d4d" d="M875.41,-921C820.33,-921 750,-921 750,-921 750,-921 750,-839.14 750,-839.14"/>
<polygon fill="#4d4d4d" stroke="#4d4d4d" points="752.45,-839.14 750,-832.14 747.55,-839.14 752.45,-839.14"/>
</g>
<!-- C&#45;0027 -->
<g id="node34" class="node">
<title>C&#45;0027</title>
<ellipse fill="tomato" stroke="black" cx="877" cy="-728.5" rx="72" ry="21.5"/>
<text text-anchor="middle" x="877" y="-726" font-family="Arial" font-size="10.00">C&#45;0027</text>
</g>
<!-- C&#45;0525&#45;&gt;C&#45;0027 -->
<g id="edge41" class="edge">
<title>C&#45;0525&#45;&gt;C&#45;0027</title>
<path fill="none" stroke="#4d4d4d" d="M890.07,-915C863.6,-915 836.5,-915 836.5,-915 836.5,-915 836.5,-753.38 836.5,-753.38"/>
<polygon fill="#4d4d4d" stroke="#4d4d4d" points="838.95,-753.38 836.5,-746.38 834.05,-753.38 838.95,-753.38"/>
</g>
<!-- S&#45;875 -->
<g id="node39" class="node">
<title>S&#45;875</title>
<polygon fill="mediumseagreen" stroke="black" points="940,-851 868,-829.5 940,-808 1012,-829.5 940,-851"/>
<text text-anchor="middle" x="940" y="-827" font-family="Arial" font-size="10.00">S&#45;875</text>
</g>
<!-- C&#45;0525&#45;&gt;S&#45;875 -->
<g id="edge50" class="edge">
<title>C&#45;0525&#45;&gt;S&#45;875</title>
<path fill="none" stroke="#4d4d4d" d="M940,-908.58C940,-908.58 940,-858.03 940,-858.03"/>
<polygon fill="#4d4d4d" stroke="#4d4d4d" points="942.45,-858.03 940,-851.03 937.55,-858.03 942.45,-858.03"/>
</g>
<!-- C&#45;1110 -->
<g id="node42" class="node">
<title>C&#45;1110</title>
<ellipse fill="mediumseagreen" stroke="black" cx="1120" cy="-829.5" rx="72" ry="21.5"/>
<text text-anchor="middle" x="1120" y="-827" font-family="Arial" font-size="10.00">C&#45;1110</text>
</g>
<!-- C&#45;0525&#45;&gt;C&#45;1110 -->
<g id="edge39" class="edge">
<title>C&#45;0525&#45;&gt;C&#45;1110</title>
<path fill="none" stroke="#4d4d4d" d="M989.96,-915C1021.76,-915 1057,-915 1057,-915 1057,-915 1057,-846.98 1057,-846.98"/>
<polygon fill="#4d4d4d" stroke="#4d4d4d" points="1059.45,-846.98 1057,-839.98 1054.55,-846.98 1059.45,-846.98"/>
</g>
<!-- SR&#45;0011 -->
<g id="node45" class="node">
<title>SR&#45;0011</title>
<polygon fill="mediumseagreen" stroke="black" points="1300,-851 1228,-829.5 1300,-808 1372,-829.5 1300,-851"/>
<text text-anchor="middle" x="1300" y="-827" font-family="Arial" font-size="10.00">SR&#45;0011</text>
</g>
<!-- C&#45;0525&#45;&gt;SR&#45;0011 -->
<g id="edge52" class="edge">
<title>C&#45;0525&#45;&gt;SR&#45;0011</title>
<path fill="none" stroke="#4d4d4d" d="M1004.81,-921C1092.2,-921 1237,-921 1237,-921 1237,-921 1237,-839.54 1237,-839.54"/>
<polygon fill="#4d4d4d" stroke="#4d4d4d" points="1239.45,-839.54 1237,-832.54 1234.55,-839.54 1239.45,-839.54"/>
</g>
<!-- S&#45;872 -->
<g id="node47" class="node">
<title>S&#45;872</title>
<polygon fill="mediumseagreen" stroke="black" points="1480,-851 1408,-829.5 1480,-808 1552,-829.5 1480,-851"/>
<text text-anchor="middle" x="1480" y="-827" font-family="Arial" font-size="10.00">S&#45;872</text>
</g>
<!-- C&#45;0525&#45;&gt;S&#45;872 -->
<g id="edge24" class="edge">
<title>C&#45;0525&#45;&gt;S&#45;872</title>
<path fill="none" stroke="#4d4d4d" d="M1011.15,-927C1144.13,-927 1417,-927 1417,-927 1417,-927 1417,-839.31 1417,-839.31"/>
<polygon fill="#4d4d4d" stroke="#4d4d4d" points="1419.45,-839.31 1417,-832.31 1414.55,-839.31 1419.45,-839.31"/>
</g>
<!-- S&#45;871 -->
<g id="node52" class="node">
<title>S&#45;871</title>
<polygon fill="mediumseagreen" stroke="black" points="1660,-851 1588,-829.5 1660,-808 1732,-829.5 1660,-851"/>
<text text-anchor="middle" x="1660" y="-827" font-family="Arial" font-size="10.00">S&#45;871</text>
</g>
<!-- C&#45;0525&#45;&gt;S&#45;871 -->
<g id="edge23" class="edge">
<title>C&#45;0525&#45;&gt;S&#45;871</title>
<path fill="none" stroke="#4d4d4d" d="M1011.59,-933C1186.99,-933 1624,-933 1624,-933 1624,-933 1624,-847.58 1624,-847.58"/>
<polygon fill="#4d4d4d" stroke="#4d4d4d" points="1626.45,-847.58 1624,-840.58 1621.55,-847.58 1626.45,-847.58"/>
</g>
<!-- S&#45;877 -->
<g id="node53" class="node">
<title>S&#45;877</title>
<polygon fill="mediumseagreen" stroke="black" points="1840,-851 1768,-829.5 1840,-808 1912,-829.5 1840,-851"/>
<text text-anchor="middle" x="1840" y="-827" font-family="Arial" font-size="10.00">S&#45;877</text>
</g>
<!-- C&#45;0525&#45;&gt;S&#45;877 -->
<g id="edge46" class="edge">
<title>C&#45;0525&#45;&gt;S&#45;877</title>
<path fill="none" stroke="#4d4d4d" d="M1006.38,-939C1205.82,-939 1786,-939 1786,-939 1786,-939 1786,-842.08 1786,-842.08"/>
<polygon fill="#4d4d4d" stroke="#4d4d4d" points="1788.45,-842.08 1786,-835.08 1783.55,-842.08 1788.45,-842.08"/>
</g>
<!-- ext_circ_304_22_ -->
<g id="node57" class="node">
<title>ext_circ_304_22_</title>
<polygon fill="lightpink" stroke="darkorange" stroke-dasharray="5,2" points="1192,-649 1048,-649 1048,-606 1192,-606 1192,-649"/>
<text text-anchor="middle" x="1120" y="-630.5" font-family="Arial" font-size="10.00">Circuito:</text>
<text text-anchor="middle" x="1120" y="-619.5" font-family="Arial" font-size="10.00">304&#45;22&#45;</text>
</g>
<!-- C&#45;0034&#45;&gt;ext_circ_304_22_ -->
<g id="edge56" class="edge">
<title>C&#45;0034&#45;&gt;ext_circ_304_22_</title>
<path fill="none" stroke="darkorange" stroke-dasharray="5,2" d="M1750,-1212.4C1750,-1110.93 1750,-678 1750,-678 1750,-678 1144,-678 1144,-678 1144,-678 1144,-656.21 1144,-656.21"/>
<polygon fill="darkorange" stroke="darkorange" points="1146.45,-656.21 1144,-649.21 1141.55,-656.21 1146.45,-656.21"/>
</g>
<!-- R&#45;191 -->
<g id="node46" class="node">
<title>R&#45;191</title>
<polygon fill="mediumseagreen" stroke="black" points="1417,-1325.59 1417,-1343.41 1374.82,-1356 1315.18,-1356 1273,-1343.41 1273,-1325.59 1315.18,-1313 1374.82,-1313 1417,-1325.59"/>
<text text-anchor="middle" x="1345" y="-1332" font-family="Arial" font-size="10.00">R&#45;191</text>
</g>
<!-- C&#45;0844&#45;&gt;R&#45;191 -->
<g id="edge11" class="edge">
<title>C&#45;0844&#45;&gt;R&#45;191</title>
<path fill="none" stroke="#4d4d4d" d="M1336,-1414.08C1336,-1414.08 1336,-1363.24 1336,-1363.24"/>
<polygon fill="#4d4d4d" stroke="#4d4d4d" points="1338.45,-1363.24 1336,-1356.24 1333.55,-1363.24 1338.45,-1363.24"/>
</g>
<!-- C&#45;0760 -->
<g id="node33" class="node">
<title>C&#45;0760</title>
<ellipse fill="tomato" stroke="black" cx="1067" cy="-122.5" rx="72" ry="21.5"/>
<text text-anchor="middle" x="1067" y="-120" font-family="Arial" font-size="10.00">C&#45;0760</text>
</g>
<!-- C&#45;0760&#45;&gt;ext_circ_307_24_ -->
<g id="edge60" class="edge">
<title>C&#45;0760&#45;&gt;ext_circ_307_24_</title>
<path fill="none" stroke="darkorange" stroke-dasharray="5,2" d="M1067,-100.97C1067,-71.18 1067,-21 1067,-21 1067,-21 622.04,-21 622.04,-21"/>
<polygon fill="darkorange" stroke="darkorange" points="622.04,-18.55 615.04,-21 622.04,-23.45 622.04,-18.55"/>
</g>
<!-- C&#45;0027&#45;&gt;ext_circ_304_22_ -->
<g id="edge65" class="edge">
<title>C&#45;0027&#45;&gt;ext_circ_304_22_</title>
<path fill="none" stroke="darkorange" stroke-dasharray="5,2" d="M943.5,-720.19C943.5,-695.95 943.5,-627 943.5,-627 943.5,-627 1040.96,-627 1040.96,-627"/>
<polygon fill="darkorange" stroke="darkorange" points="1040.96,-629.45 1047.96,-627 1040.96,-624.55 1040.96,-629.45"/>
</g>
<!-- C&#45;0232&#45;&gt;ext_circ_303_26_ -->
<g id="edge63" class="edge">
<title>C&#45;0232&#45;&gt;ext_circ_303_26_</title>
<path fill="none" stroke="darkorange" stroke-dasharray="5,2" d="M850,-303.43C850,-261.81 850,-173 850,-173 850,-173 532,-173 532,-173 532,-173 532,-151.21 532,-151.21"/>
<polygon fill="darkorange" stroke="darkorange" points="534.45,-151.21 532,-144.21 529.55,-151.21 534.45,-151.21"/>
</g>
<!-- C&#45;0563 -->
<g id="node37" class="node">
<title>C&#45;0563</title>
<ellipse fill="tomato" stroke="black" cx="1480" cy="-728.5" rx="72" ry="21.5"/>
<text text-anchor="middle" x="1480" y="-726" font-family="Arial" font-size="10.00">C&#45;0563</text>
</g>
<!-- C&#45;0563&#45;&gt;S&#45;1482 -->
<g id="edge58" class="edge">
<title>C&#45;0563&#45;&gt;S&#45;1482</title>
<path fill="none" stroke="blue" stroke-dasharray="5,2" d="M1455.5,-708.12C1455.5,-640.07 1455.5,-425 1455.5,-425 1455.5,-425 943.52,-425 943.52,-425"/>
<polygon fill="blue" stroke="blue" points="943.52,-422.55 936.52,-425 943.52,-427.45 943.52,-422.55"/>
</g>
<!-- C&#45;0597 -->
<g id="node38" class="node">
<title>C&#45;0597</title>
<ellipse fill="mediumseagreen" stroke="black" cx="1660" cy="-728.5" rx="72" ry="21.5"/>
<text text-anchor="middle" x="1660" y="-726" font-family="Arial" font-size="10.00">C&#45;0597</text>
</g>
<!-- C&#45;0597&#45;&gt;R&#45;100 -->
<g id="edge27" class="edge">
<title>C&#45;0597&#45;&gt;R&#45;100</title>
<path fill="none" stroke="#4d4d4d" d="M1617.5,-710.91C1617.5,-710.91 1617.5,-652.23 1617.5,-652.23"/>
<polygon fill="#4d4d4d" stroke="#4d4d4d" points="1619.95,-652.23 1617.5,-645.23 1615.05,-652.23 1619.95,-652.23"/>
</g>
<!-- R&#45;276 -->
<g id="node40" class="node">
<title>R&#45;276</title>
<polygon fill="tomato" stroke="black" points="1192,-719.59 1192,-737.41 1149.82,-750 1090.18,-750 1048,-737.41 1048,-719.59 1090.18,-707 1149.82,-707 1192,-719.59"/>
<text text-anchor="middle" x="1120" y="-726" font-family="Arial" font-size="10.00">R&#45;276</text>
</g>
<!-- R&#45;276&#45;&gt;ext_circ_304_22_ -->
<g id="edge64" class="edge">
<title>R&#45;276&#45;&gt;ext_circ_304_22_</title>
<path fill="none" stroke="darkorange" stroke-dasharray="5,2" d="M1096,-706.58C1096,-706.58 1096,-656.03 1096,-656.03"/>
<polygon fill="darkorange" stroke="darkorange" points="1098.45,-656.03 1096,-649.03 1093.55,-656.03 1098.45,-656.03"/>
</g>
<!-- C&#45;1110&#45;&gt;R&#45;276 -->
<g id="edge40" class="edge">
<title>C&#45;1110&#45;&gt;R&#45;276</title>
<path fill="none" stroke="#4d4d4d" d="M1120,-807.58C1120,-807.58 1120,-757.03 1120,-757.03"/>
<polygon fill="#4d4d4d" stroke="#4d4d4d" points="1122.45,-757.03 1120,-750.03 1117.55,-757.03 1122.45,-757.03"/>
</g>
<!-- S&#45;860 -->
<g id="node43" class="node">
<title>S&#45;860</title>
<polygon fill="mediumseagreen" stroke="black" points="1354,-1154 1282,-1132.5 1354,-1111 1426,-1132.5 1354,-1154"/>
<text text-anchor="middle" x="1354" y="-1130" font-family="Arial" font-size="10.00">S&#45;860</text>
</g>
<!-- R&#45;065&#45;&gt;C&#45;0525 -->
<g id="edge22" class="edge">
<title>R&#45;065&#45;&gt;C&#45;0525</title>
<path fill="none" stroke="#4d4d4d" d="M1147,-1009.67C1147,-984.05 1147,-945 1147,-945 1147,-945 1000.31,-945 1000.31,-945"/>
<polygon fill="#4d4d4d" stroke="#4d4d4d" points="1000.31,-942.55 993.31,-945 1000.31,-947.45 1000.31,-942.55"/>
</g>
<!-- SR&#45;0011&#45;&gt;S&#45;2003 -->
<g id="edge53" class="edge">
<title>SR&#45;0011&#45;&gt;S&#45;2003</title>
<path fill="none" stroke="#4d4d4d" d="M1300,-807.58C1300,-807.58 1300,-757.03 1300,-757.03"/>
<polygon fill="#4d4d4d" stroke="#4d4d4d" points="1302.45,-757.03 1300,-750.03 1297.55,-757.03 1302.45,-757.03"/>
</g>
<!-- C&#45;0842 -->
<g id="node56" class="node">
<title>C&#45;0842</title>
<ellipse fill="mediumseagreen" stroke="black" cx="1084" cy="-1233.5" rx="72" ry="21.5"/>
<text text-anchor="middle" x="1084" y="-1231" font-family="Arial" font-size="10.00">C&#45;0842</text>
</g>
<!-- R&#45;191&#45;&gt;C&#45;0842 -->
<g id="edge12" class="edge">
<title>R&#45;191&#45;&gt;C&#45;0842</title>
<path fill="none" stroke="#4d4d4d" d="M1277.5,-1324.02C1277.5,-1298.09 1277.5,-1233 1277.5,-1233 1277.5,-1233 1163.05,-1233 1163.05,-1233"/>
<polygon fill="#4d4d4d" stroke="#4d4d4d" points="1163.05,-1230.55 1156.05,-1233 1163.05,-1235.45 1163.05,-1230.55"/>
</g>
<!-- S&#45;872&#45;&gt;C&#45;0563 -->
<g id="edge25" class="edge">
<title>S&#45;872&#45;&gt;C&#45;0563</title>
<path fill="none" stroke="#4d4d4d" d="M1480,-807.58C1480,-807.58 1480,-757.03 1480,-757.03"/>
<polygon fill="#4d4d4d" stroke="#4d4d4d" points="1482.45,-757.03 1480,-750.03 1477.55,-757.03 1482.45,-757.03"/>
</g>
<!-- S&#45;872&#45;&gt;C&#45;0597 -->
<g id="edge26" class="edge">
<title>S&#45;872&#45;&gt;C&#45;0597</title>
<path fill="none" stroke="#4d4d4d" d="M1550.47,-829C1561.86,-829 1570,-829 1570,-829 1570,-829 1570,-728 1570,-728 1570,-728 1580.78,-728 1580.78,-728"/>
<polygon fill="#4d4d4d" stroke="#4d4d4d" points="1580.78,-730.45 1587.78,-728 1580.78,-725.55 1580.78,-730.45"/>
</g>
<!-- C&#45;0596&#45;&gt;S&#45;1482 -->
<g id="edge29" class="edge">
<title>C&#45;0596&#45;&gt;S&#45;1482</title>
<path fill="none" stroke="#4d4d4d" d="M1133,-517.82C1133,-495.17 1133,-436 1133,-436 1133,-436 909.84,-436 909.84,-436"/>
<polygon fill="#4d4d4d" stroke="#4d4d4d" points="909.84,-433.55 902.84,-436 909.84,-438.45 909.84,-433.55"/>
</g>
<!-- R&#45;167&#45;&gt;ext_circ_307_24_ -->
<g id="edge59" class="edge">
<title>R&#45;167&#45;&gt;ext_circ_307_24_</title>
<path fill="none" stroke="darkorange" stroke-dasharray="5,2" d="M629.9,-122C612.59,-122 599,-122 599,-122 599,-122 599,-50.31 599,-50.31"/>
<polygon fill="darkorange" stroke="darkorange" points="601.45,-50.31 599,-43.31 596.55,-50.31 601.45,-50.31"/>
</g>
<!-- S&#45;1481&#45;&gt;C&#45;0759 -->
<g id="edge32" class="edge">
<title>S&#45;1481&#45;&gt;C&#45;0759</title>
<path fill="none" stroke="#4d4d4d" d="M986.67,-320.54C986.67,-308.63 986.67,-274 986.67,-274 986.67,-274 813,-274 813,-274 813,-274 813,-245.11 813,-245.11"/>
<polygon fill="#4d4d4d" stroke="#4d4d4d" points="815.45,-245.11 813,-238.11 810.55,-245.11 815.45,-245.11"/>
</g>
<!-- S&#45;1481&#45;&gt;C&#45;0020 -->
<g id="edge35" class="edge">
<title>S&#45;1481&#45;&gt;C&#45;0020</title>
<path fill="none" stroke="#4d4d4d" d="M999.33,-316.91C999.33,-316.91 999.33,-242.78 999.33,-242.78"/>
<polygon fill="#4d4d4d" stroke="#4d4d4d" points="1001.78,-242.78 999.33,-235.78 996.88,-242.78 1001.78,-242.78"/>
</g>
<!-- S&#45;1481&#45;&gt;C&#45;0760 -->
<g id="edge34" class="edge">
<title>S&#45;1481&#45;&gt;C&#45;0760</title>
<path fill="none" stroke="#4d4d4d" d="M1065,-308.65C1065,-308.65 1065,-151.25 1065,-151.25"/>
<polygon fill="#4d4d4d" stroke="#4d4d4d" points="1067.45,-151.25 1065,-144.25 1062.55,-151.25 1067.45,-151.25"/>
</g>
<!-- R&#45;087&#45;&gt;ext_circ_307_24_ -->
<g id="edge66" class="edge">
<title>R&#45;087&#45;&gt;ext_circ_307_24_</title>
<path fill="none" stroke="darkorange" stroke-dasharray="5,2" d="M176,-403.96C176,-319.29 176,-14 176,-14 176,-14 463.93,-14 463.93,-14"/>
<polygon fill="darkorange" stroke="darkorange" points="463.93,-16.45 470.93,-14 463.93,-11.55 463.93,-16.45"/>
</g>
<!-- C&#45;0842&#45;&gt;S&#45;2017 -->
<g id="edge14" class="edge">
<title>C&#45;0842&#45;&gt;S&#45;2017</title>
<path fill="none" stroke="#4d4d4d" d="M1016.34,-1226C951.2,-1226 862.5,-1226 862.5,-1226 862.5,-1226 862.5,-1146.53 862.5,-1146.53"/>
<polygon fill="#4d4d4d" stroke="#4d4d4d" points="864.95,-1146.53 862.5,-1139.53 860.05,-1146.53 864.95,-1146.53"/>
</g>
<!-- C&#45;0842&#45;&gt;S&#45;139 -->
<g id="edge16" class="edge">
<title>C&#45;0842&#45;&gt;S&#45;139</title>
<path fill="none" stroke="#4d4d4d" d="M1039,-1216.37C1039,-1216.37 1039,-1147.78 1039,-1147.78"/>
<polygon fill="#4d4d4d" stroke="#4d4d4d" points="1041.45,-1147.78 1039,-1140.78 1036.55,-1147.78 1041.45,-1147.78"/>
</g>
<!-- C&#45;0842&#45;&gt;S&#45;589 -->
<g id="edge15" class="edge">
<title>C&#45;0842&#45;&gt;S&#45;589</title>
<path fill="none" stroke="#4d4d4d" d="M1129,-1216.37C1129,-1216.37 1129,-1147.78 1129,-1147.78"/>
<polygon fill="#4d4d4d" stroke="#4d4d4d" points="1131.45,-1147.78 1129,-1140.78 1126.55,-1147.78 1131.45,-1147.78"/>
</g>
<!-- C&#45;0842&#45;&gt;C&#45;0843 -->
<g id="edge13" class="edge">
<title>C&#45;0842&#45;&gt;C&#45;0843</title>
<path fill="none" stroke="#4d4d4d" d="M1015.08,-1240C894.52,-1240 658,-1240 658,-1240 658,-1240 658,-1159.97 658,-1159.97"/>
<polygon fill="#4d4d4d" stroke="#4d4d4d" points="660.45,-1159.97 658,-1152.97 655.55,-1159.97 660.45,-1159.97"/>
</g>
<!-- C&#45;0842&#45;&gt;S&#45;860 -->
<g id="edge55" class="edge">
<title>C&#45;0842&#45;&gt;S&#45;860</title>
<path fill="none" stroke="#4d4d4d" d="M1144.91,-1222C1223.3,-1222 1349.5,-1222 1349.5,-1222 1349.5,-1222 1349.5,-1159.81 1349.5,-1159.81"/>
<polygon fill="#4d4d4d" stroke="#4d4d4d" points="1351.95,-1159.81 1349.5,-1152.81 1347.05,-1159.81 1351.95,-1159.81"/>
</g>
</g>
</svg>
