<?xml version="1.0" encoding="UTF-8" standalone="no"?>
<!DOCTYPE svg PUBLIC "-//W3C//DTD SVG 1.1//EN"
 "http://www.w3.org/Graphics/SVG/1.1/DTD/svg11.dtd">
<!-- Generated by graphviz version 2.50.0 (0)
 -->
<!-- Title: Grafo_Circuito_110_25_ Pages: 1 -->
<svg width="1539pt" height="968pt"
 viewBox="0.00 0.00 1539.00 968.00" xmlns="http://www.w3.org/2000/svg" xmlns:xlink="http://www.w3.org/1999/xlink">
<g id="graph0" class="graph" transform="scale(1 1) rotate(0) translate(4 964)">
<title>Grafo_Circuito_110_25_</title>
<polygon fill="white" stroke="transparent" points="-4,4 -4,-964 1535,-964 1535,4 -4,4"/>
<!-- C&#45;0632 -->
<g id="node1" class="node">
<title>C&#45;0632</title>
<ellipse fill="mediumseagreen" stroke="black" cx="623" cy="-728.5" rx="72" ry="21.5"/>
<text text-anchor="middle" x="623" y="-726" font-family="Arial" font-size="10.00">C&#45;0632</text>
</g>
<!-- R&#45;038 -->
<g id="node27" class="node">
<title>R&#45;038</title>
<polygon fill="mediumseagreen" stroke="black" points="637,-618.59 637,-636.41 594.82,-649 535.18,-649 493,-636.41 493,-618.59 535.18,-606 594.82,-606 637,-618.59"/>
<text text-anchor="middle" x="565" y="-625" font-family="Arial" font-size="10.00">R&#45;038</text>
</g>
<!-- C&#45;0632&#45;&gt;R&#45;038 -->
<g id="edge10" class="edge">
<title>C&#45;0632&#45;&gt;R&#45;038</title>
<path fill="none" stroke="#4d4d4d" d="M594,-708.55C594,-708.55 594,-656.16 594,-656.16"/>
<polygon fill="#4d4d4d" stroke="#4d4d4d" points="596.45,-656.16 594,-649.16 591.55,-656.16 596.45,-656.16"/>
</g>
<!-- S&#45;2192 -->
<g id="node2" class="node">
<title>S&#45;2192</title>
<polygon fill="mediumseagreen" stroke="black" points="269,-447 197,-425.5 269,-404 341,-425.5 269,-447"/>
<text text-anchor="middle" x="269" y="-423" font-family="Arial" font-size="10.00">S&#45;2192</text>
</g>
<!-- S&#45;1504 -->
<g id="node3" class="node">
<title>S&#45;1504</title>
<polygon fill="mediumseagreen" stroke="black" points="919,-346 847,-324.5 919,-303 991,-324.5 919,-346"/>
<text text-anchor="middle" x="919" y="-322" font-family="Arial" font-size="10.00">S&#45;1504</text>
</g>
<!-- C&#45;0802 -->
<g id="node6" class="node">
<title>C&#45;0802</title>
<ellipse fill="mediumseagreen" stroke="black" cx="739" cy="-223.5" rx="72" ry="21.5"/>
<text text-anchor="middle" x="739" y="-221" font-family="Arial" font-size="10.00">C&#45;0802</text>
</g>
<!-- S&#45;1504&#45;&gt;C&#45;0802 -->
<g id="edge4" class="edge">
<title>S&#45;1504&#45;&gt;C&#45;0802</title>
<path fill="none" stroke="#4d4d4d" d="M868.52,-331C833.83,-331 794,-331 794,-331 794,-331 794,-244.55 794,-244.55"/>
<polygon fill="#4d4d4d" stroke="#4d4d4d" points="796.45,-244.55 794,-237.55 791.55,-244.55 796.45,-244.55"/>
</g>
<!-- S&#45;1615 -->
<g id="node9" class="node">
<title>S&#45;1615</title>
<polygon fill="mediumseagreen" stroke="black" points="919,-245 847,-223.5 919,-202 991,-223.5 919,-245"/>
<text text-anchor="middle" x="919" y="-221" font-family="Arial" font-size="10.00">S&#45;1615</text>
</g>
<!-- S&#45;1504&#45;&gt;S&#45;1615 -->
<g id="edge3" class="edge">
<title>S&#45;1504&#45;&gt;S&#45;1615</title>
<path fill="none" stroke="#4d4d4d" d="M919,-302.58C919,-302.58 919,-252.03 919,-252.03"/>
<polygon fill="#4d4d4d" stroke="#4d4d4d" points="921.45,-252.03 919,-245.03 916.55,-252.03 921.45,-252.03"/>
</g>
<!-- C&#45;0804 -->
<g id="node17" class="node">
<title>C&#45;0804</title>
<ellipse fill="tomato" stroke="black" cx="982" cy="-122.5" rx="72" ry="21.5"/>
<text text-anchor="middle" x="982" y="-120" font-family="Arial" font-size="10.00">C&#45;0804</text>
</g>
<!-- S&#45;1504&#45;&gt;C&#45;0804 -->
<g id="edge5" class="edge">
<title>S&#45;1504&#45;&gt;C&#45;0804</title>
<path fill="none" stroke="#4d4d4d" d="M965.91,-317C985.15,-317 1003,-317 1003,-317 1003,-317 1003,-150.31 1003,-150.31"/>
<polygon fill="#4d4d4d" stroke="#4d4d4d" points="1005.45,-150.31 1003,-143.31 1000.55,-150.31 1005.45,-150.31"/>
</g>
<!-- S&#45;1904 -->
<g id="node26" class="node">
<title>S&#45;1904</title>
<polygon fill="mediumseagreen" stroke="black" points="1173,-245 1101,-223.5 1173,-202 1245,-223.5 1173,-245"/>
<text text-anchor="middle" x="1173" y="-221" font-family="Arial" font-size="10.00">S&#45;1904</text>
</g>
<!-- S&#45;1504&#45;&gt;S&#45;1904 -->
<g id="edge2" class="edge">
<title>S&#45;1504&#45;&gt;S&#45;1904</title>
<path fill="none" stroke="#4d4d4d" d="M969.25,-331C992.48,-331 1015,-331 1015,-331 1015,-331 1015,-223 1015,-223 1015,-223 1095.32,-223 1095.32,-223"/>
<polygon fill="#4d4d4d" stroke="#4d4d4d" points="1095.32,-225.45 1102.32,-223 1095.32,-220.55 1095.32,-225.45"/>
</g>
<!-- C&#45;0120 -->
<g id="node4" class="node">
<title>C&#45;0120</title>
<ellipse fill="tomato" stroke="black" cx="72" cy="-122.5" rx="72" ry="21.5"/>
<text text-anchor="middle" x="72" y="-120" font-family="Arial" font-size="10.00">C&#45;0120</text>
</g>
<!-- ext_circ_111_23_ -->
<g id="node28" class="node">
<title>ext_circ_111_23_</title>
<polygon fill="lightpink" stroke="darkorange" stroke-dasharray="5,2" points="811,-43 667,-43 667,0 811,0 811,-43"/>
<text text-anchor="middle" x="739" y="-24.5" font-family="Arial" font-size="10.00">Circuito:</text>
<text text-anchor="middle" x="739" y="-13.5" font-family="Arial" font-size="10.00">111&#45;23&#45;</text>
</g>
<!-- C&#45;0120&#45;&gt;ext_circ_111_23_ -->
<g id="edge31" class="edge">
<title>C&#45;0120&#45;&gt;ext_circ_111_23_</title>
<path fill="none" stroke="darkorange" stroke-dasharray="5,2" d="M72,-100.97C72,-71.18 72,-21 72,-21 72,-21 659.99,-21 659.99,-21"/>
<polygon fill="darkorange" stroke="darkorange" points="659.99,-23.45 666.99,-21 659.99,-18.55 659.99,-23.45"/>
</g>
<!-- C&#45;0606 -->
<g id="node5" class="node">
<title>C&#45;0606</title>
<ellipse fill="mediumseagreen" stroke="black" cx="1027" cy="-627.5" rx="72" ry="21.5"/>
<text text-anchor="middle" x="1027" y="-625" font-family="Arial" font-size="10.00">C&#45;0606</text>
</g>
<!-- R&#45;099 -->
<g id="node10" class="node">
<title>R&#45;099</title>
<polygon fill="mediumseagreen" stroke="black" points="1103,-517.59 1103,-535.41 1060.82,-548 1001.18,-548 959,-535.41 959,-517.59 1001.18,-505 1060.82,-505 1103,-517.59"/>
<text text-anchor="middle" x="1031" y="-524" font-family="Arial" font-size="10.00">R&#45;099</text>
</g>
<!-- C&#45;0606&#45;&gt;R&#45;099 -->
<g id="edge22" class="edge">
<title>C&#45;0606&#45;&gt;R&#45;099</title>
<path fill="none" stroke="#4d4d4d" d="M1029,-605.58C1029,-605.58 1029,-555.03 1029,-555.03"/>
<polygon fill="#4d4d4d" stroke="#4d4d4d" points="1031.45,-555.03 1029,-548.03 1026.55,-555.03 1031.45,-555.03"/>
</g>
<!-- R&#45;179 -->
<g id="node16" class="node">
<title>R&#45;179</title>
<polygon fill="tomato" stroke="black" points="811,-113.59 811,-131.41 768.82,-144 709.18,-144 667,-131.41 667,-113.59 709.18,-101 768.82,-101 811,-113.59"/>
<text text-anchor="middle" x="739" y="-120" font-family="Arial" font-size="10.00">R&#45;179</text>
</g>
<!-- C&#45;0802&#45;&gt;R&#45;179 -->
<g id="edge6" class="edge">
<title>C&#45;0802&#45;&gt;R&#45;179</title>
<path fill="none" stroke="#4d4d4d" d="M739,-201.58C739,-201.58 739,-151.03 739,-151.03"/>
<polygon fill="#4d4d4d" stroke="#4d4d4d" points="741.45,-151.03 739,-144.03 736.55,-151.03 741.45,-151.03"/>
</g>
<!-- C&#45;0834 -->
<g id="node7" class="node">
<title>C&#45;0834</title>
<ellipse fill="mediumseagreen" stroke="black" cx="449" cy="-425.5" rx="72" ry="21.5"/>
<text text-anchor="middle" x="449" y="-423" font-family="Arial" font-size="10.00">C&#45;0834</text>
</g>
<!-- S&#45;2395 -->
<g id="node11" class="node">
<title>S&#45;2395</title>
<polygon fill="mediumseagreen" stroke="black" points="379,-346 307,-324.5 379,-303 451,-324.5 379,-346"/>
<text text-anchor="middle" x="379" y="-322" font-family="Arial" font-size="10.00">S&#45;2395</text>
</g>
<!-- C&#45;0834&#45;&gt;S&#45;2395 -->
<g id="edge13" class="edge">
<title>C&#45;0834&#45;&gt;S&#45;2395</title>
<path fill="none" stroke="#4d4d4d" d="M414,-406.5C414,-406.5 414,-342.6 414,-342.6"/>
<polygon fill="#4d4d4d" stroke="#4d4d4d" points="416.45,-342.6 414,-335.6 411.55,-342.6 416.45,-342.6"/>
</g>
<!-- 110&#45;25&#45; -->
<g id="node8" class="node">
<title>110&#45;25&#45;</title>
<polygon fill="gold" stroke="black" points="904,-925.59 904,-943.41 861.82,-956 802.18,-956 760,-943.41 760,-925.59 802.18,-913 861.82,-913 904,-925.59"/>
<polygon fill="none" stroke="black" points="908,-922.61 908,-946.39 862.41,-960 801.59,-960 756,-946.39 756,-922.61 801.59,-909 862.41,-909 908,-922.61"/>
<text text-anchor="middle" x="832" y="-932" font-family="Arial" font-size="10.00">110&#45;25&#45;</text>
</g>
<!-- C&#45;0089 -->
<g id="node14" class="node">
<title>C&#45;0089</title>
<ellipse fill="mediumseagreen" stroke="black" cx="832" cy="-829.5" rx="72" ry="21.5"/>
<text text-anchor="middle" x="832" y="-827" font-family="Arial" font-size="10.00">C&#45;0089</text>
</g>
<!-- 110&#45;25&#45;&#45;&gt;C&#45;0089 -->
<g id="edge23" class="edge">
<title>110&#45;25&#45;&#45;&gt;C&#45;0089</title>
<path fill="none" stroke="#4d4d4d" d="M832,-908.81C832,-908.81 832,-858.03 832,-858.03"/>
<polygon fill="#4d4d4d" stroke="#4d4d4d" points="834.45,-858.03 832,-851.03 829.55,-858.03 834.45,-858.03"/>
</g>
<!-- C&#45;0548 -->
<g id="node18" class="node">
<title>C&#45;0548</title>
<ellipse fill="mediumseagreen" stroke="black" cx="1099" cy="-425.5" rx="72" ry="21.5"/>
<text text-anchor="middle" x="1099" y="-423" font-family="Arial" font-size="10.00">C&#45;0548</text>
</g>
<!-- R&#45;099&#45;&gt;C&#45;0548 -->
<g id="edge21" class="edge">
<title>R&#45;099&#45;&gt;C&#45;0548</title>
<path fill="none" stroke="#4d4d4d" d="M1065,-506.06C1065,-506.06 1065,-451.54 1065,-451.54"/>
<polygon fill="#4d4d4d" stroke="#4d4d4d" points="1067.45,-451.54 1065,-444.54 1062.55,-451.54 1067.45,-451.54"/>
</g>
<!-- S&#45;2395&#45;&gt;C&#45;0120 -->
<g id="edge16" class="edge">
<title>S&#45;2395&#45;&gt;C&#45;0120</title>
<path fill="none" stroke="#4d4d4d" d="M328.66,-331C239.58,-331 63.5,-331 63.5,-331 63.5,-331 63.5,-151.03 63.5,-151.03"/>
<polygon fill="#4d4d4d" stroke="#4d4d4d" points="65.95,-151.03 63.5,-144.03 61.05,-151.03 65.95,-151.03"/>
</g>
<!-- C&#45;0015 -->
<g id="node12" class="node">
<title>C&#45;0015</title>
<ellipse fill="tomato" stroke="black" cx="199" cy="-223.5" rx="72" ry="21.5"/>
<text text-anchor="middle" x="199" y="-221" font-family="Arial" font-size="10.00">C&#45;0015</text>
</g>
<!-- S&#45;2395&#45;&gt;C&#45;0015 -->
<g id="edge14" class="edge">
<title>S&#45;2395&#45;&gt;C&#45;0015</title>
<path fill="none" stroke="#4d4d4d" d="M331.92,-317C289.58,-317 234,-317 234,-317 234,-317 234,-249.42 234,-249.42"/>
<polygon fill="#4d4d4d" stroke="#4d4d4d" points="236.45,-249.42 234,-242.42 231.55,-249.42 236.45,-249.42"/>
</g>
<!-- S&#45;162 -->
<g id="node21" class="node">
<title>S&#45;162</title>
<polygon fill="mediumseagreen" stroke="black" points="379,-245 307,-223.5 379,-202 451,-223.5 379,-245"/>
<text text-anchor="middle" x="379" y="-221" font-family="Arial" font-size="10.00">S&#45;162</text>
</g>
<!-- S&#45;2395&#45;&gt;S&#45;162 -->
<g id="edge15" class="edge">
<title>S&#45;2395&#45;&gt;S&#45;162</title>
<path fill="none" stroke="#4d4d4d" d="M379,-302.58C379,-302.58 379,-252.03 379,-252.03"/>
<polygon fill="#4d4d4d" stroke="#4d4d4d" points="381.45,-252.03 379,-245.03 376.55,-252.03 381.45,-252.03"/>
</g>
<!-- C&#45;0133 -->
<g id="node22" class="node">
<title>C&#45;0133</title>
<ellipse fill="tomato" stroke="black" cx="559" cy="-223.5" rx="72" ry="21.5"/>
<text text-anchor="middle" x="559" y="-221" font-family="Arial" font-size="10.00">C&#45;0133</text>
</g>
<!-- S&#45;2395&#45;&gt;C&#45;0133 -->
<g id="edge17" class="edge">
<title>S&#45;2395&#45;&gt;C&#45;0133</title>
<path fill="none" stroke="#4d4d4d" d="M425.9,-317C461.37,-317 504,-317 504,-317 504,-317 504,-244.7 504,-244.7"/>
<polygon fill="#4d4d4d" stroke="#4d4d4d" points="506.45,-244.7 504,-237.7 501.55,-244.7 506.45,-244.7"/>
</g>
<!-- ext_circ_110_22_ -->
<g id="node29" class="node">
<title>ext_circ_110_22_</title>
<polygon fill="lightpink" stroke="darkorange" stroke-dasharray="5,2" points="324,-144 180,-144 180,-101 324,-101 324,-144"/>
<text text-anchor="middle" x="252" y="-125.5" font-family="Arial" font-size="10.00">Circuito:</text>
<text text-anchor="middle" x="252" y="-114.5" font-family="Arial" font-size="10.00">110&#45;22&#45;</text>
</g>
<!-- C&#45;0015&#45;&gt;ext_circ_110_22_ -->
<g id="edge30" class="edge">
<title>C&#45;0015&#45;&gt;ext_circ_110_22_</title>
<path fill="none" stroke="darkorange" stroke-dasharray="5,2" d="M225.5,-203.06C225.5,-203.06 225.5,-151.31 225.5,-151.31"/>
<polygon fill="darkorange" stroke="darkorange" points="227.95,-151.31 225.5,-144.31 223.05,-151.31 227.95,-151.31"/>
</g>
<!-- S&#45;2223 -->
<g id="node13" class="node">
<title>S&#45;2223</title>
<polygon fill="mediumseagreen" stroke="black" points="1099,-346 1027,-324.5 1099,-303 1171,-324.5 1099,-346"/>
<text text-anchor="middle" x="1099" y="-322" font-family="Arial" font-size="10.00">S&#45;2223</text>
</g>
<!-- C&#45;0089&#45;&gt;C&#45;0632 -->
<g id="edge8" class="edge">
<title>C&#45;0089&#45;&gt;C&#45;0632</title>
<path fill="none" stroke="#4d4d4d" d="M759.78,-829C699.37,-829 623,-829 623,-829 623,-829 623,-757.31 623,-757.31"/>
<polygon fill="#4d4d4d" stroke="#4d4d4d" points="625.45,-757.31 623,-750.31 620.55,-757.31 625.45,-757.31"/>
</g>
<!-- C&#45;0633 -->
<g id="node20" class="node">
<title>C&#45;0633</title>
<ellipse fill="tomato" stroke="black" cx="832" cy="-728.5" rx="72" ry="21.5"/>
<text text-anchor="middle" x="832" y="-726" font-family="Arial" font-size="10.00">C&#45;0633</text>
</g>
<!-- C&#45;0089&#45;&gt;C&#45;0633 -->
<g id="edge9" class="edge">
<title>C&#45;0089&#45;&gt;C&#45;0633</title>
<path fill="none" stroke="#4d4d4d" d="M832,-807.58C832,-807.58 832,-757.03 832,-757.03"/>
<polygon fill="#4d4d4d" stroke="#4d4d4d" points="834.45,-757.03 832,-750.03 829.55,-757.03 834.45,-757.03"/>
</g>
<!-- S&#45;2035 -->
<g id="node24" class="node">
<title>S&#45;2035</title>
<polygon fill="mediumseagreen" stroke="black" points="1027,-750 955,-728.5 1027,-707 1099,-728.5 1027,-750"/>
<text text-anchor="middle" x="1027" y="-726" font-family="Arial" font-size="10.00">S&#45;2035</text>
</g>
<!-- C&#45;0089&#45;&gt;S&#45;2035 -->
<g id="edge24" class="edge">
<title>C&#45;0089&#45;&gt;S&#45;2035</title>
<path fill="none" stroke="#4d4d4d" d="M904.06,-829C959.6,-829 1027,-829 1027,-829 1027,-829 1027,-757.31 1027,-757.31"/>
<polygon fill="#4d4d4d" stroke="#4d4d4d" points="1029.45,-757.31 1027,-750.31 1024.55,-757.31 1029.45,-757.31"/>
</g>
<!-- C&#45;0631 -->
<g id="node15" class="node">
<title>C&#45;0631</title>
<ellipse fill="mediumseagreen" stroke="black" cx="449" cy="-526.5" rx="72" ry="21.5"/>
<text text-anchor="middle" x="449" y="-524" font-family="Arial" font-size="10.00">C&#45;0631</text>
</g>
<!-- C&#45;0631&#45;&gt;S&#45;2192 -->
<g id="edge18" class="edge">
<title>C&#45;0631&#45;&gt;S&#45;2192</title>
<path fill="none" stroke="#4d4d4d" d="M376.82,-526C326.75,-526 269,-526 269,-526 269,-526 269,-454.31 269,-454.31"/>
<polygon fill="#4d4d4d" stroke="#4d4d4d" points="271.45,-454.31 269,-447.31 266.55,-454.31 271.45,-454.31"/>
</g>
<!-- C&#45;0631&#45;&gt;C&#45;0834 -->
<g id="edge12" class="edge">
<title>C&#45;0631&#45;&gt;C&#45;0834</title>
<path fill="none" stroke="#4d4d4d" d="M449,-504.58C449,-504.58 449,-454.03 449,-454.03"/>
<polygon fill="#4d4d4d" stroke="#4d4d4d" points="451.45,-454.03 449,-447.03 446.55,-454.03 451.45,-454.03"/>
</g>
<!-- R&#45;179&#45;&gt;ext_circ_111_23_ -->
<g id="edge28" class="edge">
<title>R&#45;179&#45;&gt;ext_circ_111_23_</title>
<path fill="none" stroke="darkorange" stroke-dasharray="5,2" d="M739,-100.58C739,-100.58 739,-50.03 739,-50.03"/>
<polygon fill="darkorange" stroke="darkorange" points="741.45,-50.03 739,-43.03 736.55,-50.03 741.45,-50.03"/>
</g>
<!-- C&#45;0804&#45;&gt;ext_circ_111_23_ -->
<g id="edge27" class="edge">
<title>C&#45;0804&#45;&gt;ext_circ_111_23_</title>
<path fill="none" stroke="darkorange" stroke-dasharray="5,2" d="M982,-100.97C982,-71.18 982,-21 982,-21 982,-21 818.25,-21 818.25,-21"/>
<polygon fill="darkorange" stroke="darkorange" points="818.25,-18.55 811.25,-21 818.25,-23.45 818.25,-18.55"/>
</g>
<!-- C&#45;0548&#45;&gt;S&#45;1504 -->
<g id="edge1" class="edge">
<title>C&#45;0548&#45;&gt;S&#45;1504</title>
<path fill="none" stroke="#4d4d4d" d="M1026.87,-425C999.59,-425 975,-425 975,-425 975,-425 975,-336.35 975,-336.35"/>
<polygon fill="#4d4d4d" stroke="#4d4d4d" points="977.45,-336.35 975,-329.35 972.55,-336.35 977.45,-336.35"/>
</g>
<!-- C&#45;0548&#45;&gt;S&#45;2223 -->
<g id="edge19" class="edge">
<title>C&#45;0548&#45;&gt;S&#45;2223</title>
<path fill="none" stroke="#4d4d4d" d="M1099,-403.58C1099,-403.58 1099,-353.03 1099,-353.03"/>
<polygon fill="#4d4d4d" stroke="#4d4d4d" points="1101.45,-353.03 1099,-346.03 1096.55,-353.03 1101.45,-353.03"/>
</g>
<!-- S&#45;2222 -->
<g id="node23" class="node">
<title>S&#45;2222</title>
<polygon fill="mediumseagreen" stroke="black" points="1279,-346 1207,-324.5 1279,-303 1351,-324.5 1279,-346"/>
<text text-anchor="middle" x="1279" y="-322" font-family="Arial" font-size="10.00">S&#45;2222</text>
</g>
<!-- C&#45;0548&#45;&gt;S&#45;2222 -->
<g id="edge20" class="edge">
<title>C&#45;0548&#45;&gt;S&#45;2222</title>
<path fill="none" stroke="#4d4d4d" d="M1166.78,-418C1204.13,-418 1243,-418 1243,-418 1243,-418 1243,-342.59 1243,-342.59"/>
<polygon fill="#4d4d4d" stroke="#4d4d4d" points="1245.45,-342.59 1243,-335.59 1240.55,-342.59 1245.45,-342.59"/>
</g>
<!-- S&#45;1635 -->
<g id="node25" class="node">
<title>S&#45;1635</title>
<polygon fill="mediumseagreen" stroke="black" points="1459,-346 1387,-324.5 1459,-303 1531,-324.5 1459,-346"/>
<text text-anchor="middle" x="1459" y="-322" font-family="Arial" font-size="10.00">S&#45;1635</text>
</g>
<!-- C&#45;0548&#45;&gt;S&#45;1635 -->
<g id="edge7" class="edge">
<title>C&#45;0548&#45;&gt;S&#45;1635</title>
<path fill="none" stroke="#4d4d4d" d="M1167.99,-432C1272.52,-432 1459,-432 1459,-432 1459,-432 1459,-353.25 1459,-353.25"/>
<polygon fill="#4d4d4d" stroke="#4d4d4d" points="1461.45,-353.25 1459,-346.25 1456.55,-353.25 1461.45,-353.25"/>
</g>
<!-- C&#45;0547 -->
<g id="node19" class="node">
<title>C&#45;0547</title>
<ellipse fill="tomato" stroke="black" cx="1207" cy="-627.5" rx="72" ry="21.5"/>
<text text-anchor="middle" x="1207" y="-625" font-family="Arial" font-size="10.00">C&#45;0547</text>
</g>
<!-- C&#45;0547&#45;&gt;C&#45;0548 -->
<g id="edge33" class="edge">
<title>C&#45;0547&#45;&gt;C&#45;0548</title>
<path fill="none" stroke="blue" stroke-dasharray="5,2" d="M1153,-612.97C1153,-612.97 1153,-446.9 1153,-446.9"/>
<polygon fill="blue" stroke="blue" points="1155.45,-446.9 1153,-439.9 1150.55,-446.9 1155.45,-446.9"/>
</g>
<!-- C&#45;0633&#45;&gt;C&#45;0631 -->
<g id="edge29" class="edge">
<title>C&#45;0633&#45;&gt;C&#45;0631</title>
<path fill="none" stroke="blue" stroke-dasharray="5,2" d="M777,-714.58C777,-668.83 777,-526 777,-526 777,-526 527.98,-526 527.98,-526"/>
<polygon fill="blue" stroke="blue" points="527.98,-523.55 520.98,-526 527.98,-528.45 527.98,-523.55"/>
</g>
<!-- ext_circ_111_25_ -->
<g id="node30" class="node">
<title>ext_circ_111_25_</title>
<polygon fill="lightpink" stroke="darkorange" stroke-dasharray="5,2" points="631,-144 487,-144 487,-101 631,-101 631,-144"/>
<text text-anchor="middle" x="559" y="-125.5" font-family="Arial" font-size="10.00">Circuito:</text>
<text text-anchor="middle" x="559" y="-114.5" font-family="Arial" font-size="10.00">111&#45;25&#45;</text>
</g>
<!-- C&#45;0133&#45;&gt;ext_circ_111_25_ -->
<g id="edge32" class="edge">
<title>C&#45;0133&#45;&gt;ext_circ_111_25_</title>
<path fill="none" stroke="darkorange" stroke-dasharray="5,2" d="M559,-201.58C559,-201.58 559,-151.03 559,-151.03"/>
<polygon fill="darkorange" stroke="darkorange" points="561.45,-151.03 559,-144.03 556.55,-151.03 561.45,-151.03"/>
</g>
<!-- S&#45;2035&#45;&gt;C&#45;0606 -->
<g id="edge25" class="edge">
<title>S&#45;2035&#45;&gt;C&#45;0606</title>
<path fill="none" stroke="#4d4d4d" d="M1027,-706.58C1027,-706.58 1027,-656.03 1027,-656.03"/>
<polygon fill="#4d4d4d" stroke="#4d4d4d" points="1029.45,-656.03 1027,-649.03 1024.55,-656.03 1029.45,-656.03"/>
</g>
<!-- S&#45;2035&#45;&gt;C&#45;0547 -->
<g id="edge26" class="edge">
<title>S&#45;2035&#45;&gt;C&#45;0547</title>
<path fill="none" stroke="#4d4d4d" d="M1097.37,-728C1147.85,-728 1207,-728 1207,-728 1207,-728 1207,-656.31 1207,-656.31"/>
<polygon fill="#4d4d4d" stroke="#4d4d4d" points="1209.45,-656.31 1207,-649.31 1204.55,-656.31 1209.45,-656.31"/>
</g>
<!-- R&#45;038&#45;&gt;C&#45;0631 -->
<g id="edge11" class="edge">
<title>R&#45;038&#45;&gt;C&#45;0631</title>
<path fill="none" stroke="#4d4d4d" d="M507,-614.3C507,-614.3 507,-546.39 507,-546.39"/>
<polygon fill="#4d4d4d" stroke="#4d4d4d" points="509.45,-546.39 507,-539.39 504.55,-546.39 509.45,-546.39"/>
</g>
</g>
</svg>
