<?xml version="1.0" encoding="UTF-8" standalone="no"?>
<!DOCTYPE svg PUBLIC "-//W3C//DTD SVG 1.1//EN"
 "http://www.w3.org/Graphics/SVG/1.1/DTD/svg11.dtd">
<!-- Generated by graphviz version 2.50.0 (0)
 -->
<!-- Title: Grafo_Circuito_208_24_ Pages: 1 -->
<svg width="2582pt" height="1271pt"
 viewBox="0.00 0.00 2582.00 1271.00" xmlns="http://www.w3.org/2000/svg" xmlns:xlink="http://www.w3.org/1999/xlink">
<g id="graph0" class="graph" transform="scale(1 1) rotate(0) translate(4 1267)">
<title>Grafo_Circuito_208_24_</title>
<polygon fill="white" stroke="transparent" points="-4,4 -4,-1267 2578,-1267 2578,4 -4,4"/>
<!-- SR&#45;0010 -->
<g id="node1" class="node">
<title>SR&#45;0010</title>
<polygon fill="mediumseagreen" stroke="black" points="342,-649 270,-627.5 342,-606 414,-627.5 342,-649"/>
<text text-anchor="middle" x="342" y="-625" font-family="Arial" font-size="10.00">SR&#45;0010</text>
</g>
<!-- C&#45;1134 -->
<g id="node17" class="node">
<title>C&#45;1134</title>
<ellipse fill="mediumseagreen" stroke="black" cx="252" cy="-526.5" rx="72" ry="21.5"/>
<text text-anchor="middle" x="252" y="-524" font-family="Arial" font-size="10.00">C&#45;1134</text>
</g>
<!-- SR&#45;0010&#45;&gt;C&#45;1134 -->
<g id="edge18" class="edge">
<title>SR&#45;0010&#45;&gt;C&#45;1134</title>
<path fill="none" stroke="#4d4d4d" d="M297,-619.23C297,-619.23 297,-550.52 297,-550.52"/>
<polygon fill="#4d4d4d" stroke="#4d4d4d" points="299.45,-550.52 297,-543.52 294.55,-550.52 299.45,-550.52"/>
</g>
<!-- C&#45;1046 -->
<g id="node18" class="node">
<title>C&#45;1046</title>
<ellipse fill="mediumseagreen" stroke="black" cx="432" cy="-526.5" rx="72" ry="21.5"/>
<text text-anchor="middle" x="432" y="-524" font-family="Arial" font-size="10.00">C&#45;1046</text>
</g>
<!-- SR&#45;0010&#45;&gt;C&#45;1046 -->
<g id="edge37" class="edge">
<title>SR&#45;0010&#45;&gt;C&#45;1046</title>
<path fill="none" stroke="#4d4d4d" d="M378,-616.69C378,-616.69 378,-547.78 378,-547.78"/>
<polygon fill="#4d4d4d" stroke="#4d4d4d" points="380.45,-547.78 378,-540.78 375.55,-547.78 380.45,-547.78"/>
</g>
<!-- C&#45;1047 -->
<g id="node22" class="node">
<title>C&#45;1047</title>
<ellipse fill="tomato" stroke="black" cx="612" cy="-526.5" rx="72" ry="21.5"/>
<text text-anchor="middle" x="612" y="-524" font-family="Arial" font-size="10.00">C&#45;1047</text>
</g>
<!-- SR&#45;0010&#45;&gt;C&#45;1047 -->
<g id="edge47" class="edge">
<title>SR&#45;0010&#45;&gt;C&#45;1047</title>
<path fill="none" stroke="#4d4d4d" d="M396,-622.1C396,-609.07 396,-577 396,-577 396,-577 567,-577 567,-577 567,-577 567,-550.32 567,-550.32"/>
<polygon fill="#4d4d4d" stroke="#4d4d4d" points="569.45,-550.32 567,-543.32 564.55,-550.32 569.45,-550.32"/>
</g>
<!-- SR&#45;0003 -->
<g id="node48" class="node">
<title>SR&#45;0003</title>
<polygon fill="mediumseagreen" stroke="black" points="72,-548 0,-526.5 72,-505 144,-526.5 72,-548"/>
<text text-anchor="middle" x="72" y="-524" font-family="Arial" font-size="10.00">SR&#45;0003</text>
</g>
<!-- SR&#45;0010&#45;&gt;SR&#45;0003 -->
<g id="edge19" class="edge">
<title>SR&#45;0010&#45;&gt;SR&#45;0003</title>
<path fill="none" stroke="#4d4d4d" d="M271.41,-627C191.41,-627 72,-627 72,-627 72,-627 72,-555.31 72,-555.31"/>
<polygon fill="#4d4d4d" stroke="#4d4d4d" points="74.45,-555.31 72,-548.31 69.55,-555.31 74.45,-555.31"/>
</g>
<!-- C&#45;0189 -->
<g id="node2" class="node">
<title>C&#45;0189</title>
<ellipse fill="mediumseagreen" stroke="black" cx="1448" cy="-1132.5" rx="72" ry="21.5"/>
<text text-anchor="middle" x="1448" y="-1130" font-family="Arial" font-size="10.00">C&#45;0189</text>
</g>
<!-- C&#45;1255 -->
<g id="node36" class="node">
<title>C&#45;1255</title>
<ellipse fill="mediumseagreen" stroke="black" cx="1448" cy="-1031.5" rx="72" ry="21.5"/>
<text text-anchor="middle" x="1448" y="-1029" font-family="Arial" font-size="10.00">C&#45;1255</text>
</g>
<!-- C&#45;0189&#45;&gt;C&#45;1255 -->
<g id="edge2" class="edge">
<title>C&#45;0189&#45;&gt;C&#45;1255</title>
<path fill="none" stroke="#4d4d4d" d="M1448,-1110.58C1448,-1110.58 1448,-1060.03 1448,-1060.03"/>
<polygon fill="#4d4d4d" stroke="#4d4d4d" points="1450.45,-1060.03 1448,-1053.03 1445.55,-1060.03 1450.45,-1060.03"/>
</g>
<!-- S&#45;294 -->
<g id="node3" class="node">
<title>S&#45;294</title>
<polygon fill="mediumseagreen" stroke="black" points="1422,-649 1350,-627.5 1422,-606 1494,-627.5 1422,-649"/>
<text text-anchor="middle" x="1422" y="-625" font-family="Arial" font-size="10.00">S&#45;294</text>
</g>
<!-- S&#45;2177 -->
<g id="node4" class="node">
<title>S&#45;2177</title>
<polygon fill="mediumseagreen" stroke="black" points="1602,-649 1530,-627.5 1602,-606 1674,-627.5 1602,-649"/>
<text text-anchor="middle" x="1602" y="-625" font-family="Arial" font-size="10.00">S&#45;2177</text>
</g>
<!-- S&#45;1157 -->
<g id="node5" class="node">
<title>S&#45;1157</title>
<polygon fill="mediumseagreen" stroke="black" points="2502,-649 2430,-627.5 2502,-606 2574,-627.5 2502,-649"/>
<text text-anchor="middle" x="2502" y="-625" font-family="Arial" font-size="10.00">S&#45;1157</text>
</g>
<!-- C&#45;1304 -->
<g id="node6" class="node">
<title>C&#45;1304</title>
<ellipse fill="tomato" stroke="black" cx="998" cy="-930.5" rx="72" ry="21.5"/>
<text text-anchor="middle" x="998" y="-928" font-family="Arial" font-size="10.00">C&#45;1304</text>
</g>
<!-- C&#45;1303 -->
<g id="node16" class="node">
<title>C&#45;1303</title>
<ellipse fill="mediumseagreen" stroke="black" cx="2142" cy="-728.5" rx="72" ry="21.5"/>
<text text-anchor="middle" x="2142" y="-726" font-family="Arial" font-size="10.00">C&#45;1303</text>
</g>
<!-- C&#45;1304&#45;&gt;C&#45;1303 -->
<g id="edge49" class="edge">
<title>C&#45;1304&#45;&gt;C&#45;1303</title>
<path fill="none" stroke="blue" stroke-dasharray="5,2" d="M1030,-911C1030,-870.09 1030,-779 1030,-779 1030,-779 2075,-779 2075,-779 2075,-779 2075,-743.39 2075,-743.39"/>
<polygon fill="blue" stroke="blue" points="2077.45,-743.39 2075,-736.39 2072.55,-743.39 2077.45,-743.39"/>
</g>
<!-- S&#45;292 -->
<g id="node7" class="node">
<title>S&#45;292</title>
<polygon fill="mediumseagreen" stroke="black" points="1242,-851 1170,-829.5 1242,-808 1314,-829.5 1242,-851"/>
<text text-anchor="middle" x="1242" y="-827" font-family="Arial" font-size="10.00">S&#45;292</text>
</g>
<!-- R&#45;059 -->
<g id="node31" class="node">
<title>R&#45;059</title>
<polygon fill="mediumseagreen" stroke="black" points="684,-719.59 684,-737.41 641.82,-750 582.18,-750 540,-737.41 540,-719.59 582.18,-707 641.82,-707 684,-719.59"/>
<text text-anchor="middle" x="612" y="-726" font-family="Arial" font-size="10.00">R&#45;059</text>
</g>
<!-- S&#45;292&#45;&gt;R&#45;059 -->
<g id="edge43" class="edge">
<title>S&#45;292&#45;&gt;R&#45;059</title>
<path fill="none" stroke="#4d4d4d" d="M1171.56,-829C1007.17,-829 612,-829 612,-829 612,-829 612,-757.31 612,-757.31"/>
<polygon fill="#4d4d4d" stroke="#4d4d4d" points="614.45,-757.31 612,-750.31 609.55,-757.31 614.45,-757.31"/>
</g>
<!-- S&#45;996 -->
<g id="node34" class="node">
<title>S&#45;996</title>
<polygon fill="mediumseagreen" stroke="black" points="1152,-750 1080,-728.5 1152,-707 1224,-728.5 1152,-750"/>
<text text-anchor="middle" x="1152" y="-726" font-family="Arial" font-size="10.00">S&#45;996</text>
</g>
<!-- S&#45;292&#45;&gt;S&#45;996 -->
<g id="edge21" class="edge">
<title>S&#45;292&#45;&gt;S&#45;996</title>
<path fill="none" stroke="#4d4d4d" d="M1197,-821.23C1197,-821.23 1197,-743.6 1197,-743.6"/>
<polygon fill="#4d4d4d" stroke="#4d4d4d" points="1199.45,-743.6 1197,-736.6 1194.55,-743.6 1199.45,-743.6"/>
</g>
<!-- C&#45;0703 -->
<g id="node43" class="node">
<title>C&#45;0703</title>
<ellipse fill="mediumseagreen" stroke="black" cx="1332" cy="-728.5" rx="72" ry="21.5"/>
<text text-anchor="middle" x="1332" y="-726" font-family="Arial" font-size="10.00">C&#45;0703</text>
</g>
<!-- S&#45;292&#45;&gt;C&#45;0703 -->
<g id="edge28" class="edge">
<title>S&#45;292&#45;&gt;C&#45;0703</title>
<path fill="none" stroke="#4d4d4d" d="M1287,-821.23C1287,-821.23 1287,-752.52 1287,-752.52"/>
<polygon fill="#4d4d4d" stroke="#4d4d4d" points="1289.45,-752.52 1287,-745.52 1284.55,-752.52 1289.45,-752.52"/>
</g>
<!-- S&#45;1045 -->
<g id="node8" class="node">
<title>S&#45;1045</title>
<polygon fill="mediumseagreen" stroke="black" points="1062,-144 990,-122.5 1062,-101 1134,-122.5 1062,-144"/>
<text text-anchor="middle" x="1062" y="-120" font-family="Arial" font-size="10.00">S&#45;1045</text>
</g>
<!-- S&#45;1185 -->
<g id="node9" class="node">
<title>S&#45;1185</title>
<polygon fill="mediumseagreen" stroke="black" points="1242,-346 1170,-324.5 1242,-303 1314,-324.5 1242,-346"/>
<text text-anchor="middle" x="1242" y="-322" font-family="Arial" font-size="10.00">S&#45;1185</text>
</g>
<!-- S&#45;297 -->
<g id="node38" class="node">
<title>S&#45;297</title>
<polygon fill="mediumseagreen" stroke="black" points="1242,-245 1170,-223.5 1242,-202 1314,-223.5 1242,-245"/>
<text text-anchor="middle" x="1242" y="-221" font-family="Arial" font-size="10.00">S&#45;297</text>
</g>
<!-- S&#45;1185&#45;&gt;S&#45;297 -->
<g id="edge39" class="edge">
<title>S&#45;1185&#45;&gt;S&#45;297</title>
<path fill="none" stroke="#4d4d4d" d="M1242,-302.58C1242,-302.58 1242,-252.03 1242,-252.03"/>
<polygon fill="#4d4d4d" stroke="#4d4d4d" points="1244.45,-252.03 1242,-245.03 1239.55,-252.03 1244.45,-252.03"/>
</g>
<!-- S&#45;988 -->
<g id="node10" class="node">
<title>S&#45;988</title>
<polygon fill="mediumseagreen" stroke="black" points="2052,-346 1980,-324.5 2052,-303 2124,-324.5 2052,-346"/>
<text text-anchor="middle" x="2052" y="-322" font-family="Arial" font-size="10.00">S&#45;988</text>
</g>
<!-- S&#45;987 -->
<g id="node11" class="node">
<title>S&#45;987</title>
<polygon fill="mediumseagreen" stroke="black" points="1962,-447 1890,-425.5 1962,-404 2034,-425.5 1962,-447"/>
<text text-anchor="middle" x="1962" y="-423" font-family="Arial" font-size="10.00">S&#45;987</text>
</g>
<!-- S&#45;987&#45;&gt;S&#45;988 -->
<g id="edge12" class="edge">
<title>S&#45;987&#45;&gt;S&#45;988</title>
<path fill="none" stroke="#4d4d4d" d="M2007,-417.23C2007,-417.23 2007,-339.6 2007,-339.6"/>
<polygon fill="#4d4d4d" stroke="#4d4d4d" points="2009.45,-339.6 2007,-332.6 2004.55,-339.6 2009.45,-339.6"/>
</g>
<!-- S&#45;989 -->
<g id="node28" class="node">
<title>S&#45;989</title>
<polygon fill="mediumseagreen" stroke="black" points="1872,-346 1800,-324.5 1872,-303 1944,-324.5 1872,-346"/>
<text text-anchor="middle" x="1872" y="-322" font-family="Arial" font-size="10.00">S&#45;989</text>
</g>
<!-- S&#45;987&#45;&gt;S&#45;989 -->
<g id="edge13" class="edge">
<title>S&#45;987&#45;&gt;S&#45;989</title>
<path fill="none" stroke="#4d4d4d" d="M1917,-417.23C1917,-417.23 1917,-339.6 1917,-339.6"/>
<polygon fill="#4d4d4d" stroke="#4d4d4d" points="1919.45,-339.6 1917,-332.6 1914.55,-339.6 1919.45,-339.6"/>
</g>
<!-- S&#45;990 -->
<g id="node12" class="node">
<title>S&#45;990</title>
<polygon fill="mediumseagreen" stroke="black" points="1962,-548 1890,-526.5 1962,-505 2034,-526.5 1962,-548"/>
<text text-anchor="middle" x="1962" y="-524" font-family="Arial" font-size="10.00">S&#45;990</text>
</g>
<!-- S&#45;990&#45;&gt;S&#45;987 -->
<g id="edge11" class="edge">
<title>S&#45;990&#45;&gt;S&#45;987</title>
<path fill="none" stroke="#4d4d4d" d="M1962,-504.58C1962,-504.58 1962,-454.03 1962,-454.03"/>
<polygon fill="#4d4d4d" stroke="#4d4d4d" points="1964.45,-454.03 1962,-447.03 1959.55,-454.03 1964.45,-454.03"/>
</g>
<!-- SR&#45;0009 -->
<g id="node13" class="node">
<title>SR&#45;0009</title>
<polygon fill="mediumseagreen" stroke="black" points="1962,-649 1890,-627.5 1962,-606 2034,-627.5 1962,-649"/>
<text text-anchor="middle" x="1962" y="-625" font-family="Arial" font-size="10.00">SR&#45;0009</text>
</g>
<!-- SR&#45;0009&#45;&gt;S&#45;990 -->
<g id="edge10" class="edge">
<title>SR&#45;0009&#45;&gt;S&#45;990</title>
<path fill="none" stroke="#4d4d4d" d="M1962,-605.58C1962,-605.58 1962,-555.03 1962,-555.03"/>
<polygon fill="#4d4d4d" stroke="#4d4d4d" points="1964.45,-555.03 1962,-548.03 1959.55,-555.03 1964.45,-555.03"/>
</g>
<!-- C&#45;0404 -->
<g id="node14" class="node">
<title>C&#45;0404</title>
<ellipse fill="tomato" stroke="black" cx="1782" cy="-627.5" rx="72" ry="21.5"/>
<text text-anchor="middle" x="1782" y="-625" font-family="Arial" font-size="10.00">C&#45;0404</text>
</g>
<!-- C&#45;0406 -->
<g id="node21" class="node">
<title>C&#45;0406</title>
<ellipse fill="mediumseagreen" stroke="black" cx="1242" cy="-425.5" rx="72" ry="21.5"/>
<text text-anchor="middle" x="1242" y="-423" font-family="Arial" font-size="10.00">C&#45;0406</text>
</g>
<!-- C&#45;0404&#45;&gt;C&#45;0406 -->
<g id="edge51" class="edge">
<title>C&#45;0404&#45;&gt;C&#45;0406</title>
<path fill="none" stroke="blue" stroke-dasharray="5,2" d="M1755,-607.34C1755,-556.12 1755,-425 1755,-425 1755,-425 1321.14,-425 1321.14,-425"/>
<polygon fill="blue" stroke="blue" points="1321.14,-422.55 1314.14,-425 1321.14,-427.45 1321.14,-422.55"/>
</g>
<!-- R&#45;304 -->
<g id="node15" class="node">
<title>R&#45;304</title>
<polygon fill="mediumseagreen" stroke="black" points="2085,-820.59 2085,-838.41 2042.82,-851 1983.18,-851 1941,-838.41 1941,-820.59 1983.18,-808 2042.82,-808 2085,-820.59"/>
<text text-anchor="middle" x="2013" y="-827" font-family="Arial" font-size="10.00">R&#45;304</text>
</g>
<!-- R&#45;304&#45;&gt;C&#45;1303 -->
<g id="edge6" class="edge">
<title>R&#45;304&#45;&gt;C&#45;1303</title>
<path fill="none" stroke="#4d4d4d" d="M2080,-819.07C2080,-819.07 2080,-746.64 2080,-746.64"/>
<polygon fill="#4d4d4d" stroke="#4d4d4d" points="2082.45,-746.64 2080,-739.64 2077.55,-746.64 2082.45,-746.64"/>
</g>
<!-- C&#45;1303&#45;&gt;S&#45;1157 -->
<g id="edge8" class="edge">
<title>C&#45;1303&#45;&gt;S&#45;1157</title>
<path fill="none" stroke="#4d4d4d" d="M2210.99,-735C2315.52,-735 2502,-735 2502,-735 2502,-735 2502,-656.25 2502,-656.25"/>
<polygon fill="#4d4d4d" stroke="#4d4d4d" points="2504.45,-656.25 2502,-649.25 2499.55,-656.25 2504.45,-656.25"/>
</g>
<!-- C&#45;1303&#45;&gt;SR&#45;0009 -->
<g id="edge9" class="edge">
<title>C&#45;1303&#45;&gt;SR&#45;0009</title>
<path fill="none" stroke="#4d4d4d" d="M2080.94,-717C2037.75,-717 1987.5,-717 1987.5,-717 1987.5,-717 1987.5,-648.48 1987.5,-648.48"/>
<polygon fill="#4d4d4d" stroke="#4d4d4d" points="1989.95,-648.48 1987.5,-641.48 1985.05,-648.48 1989.95,-648.48"/>
</g>
<!-- S&#45;290 -->
<g id="node25" class="node">
<title>S&#45;290</title>
<polygon fill="mediumseagreen" stroke="black" points="2142,-649 2070,-627.5 2142,-606 2214,-627.5 2142,-649"/>
<text text-anchor="middle" x="2142" y="-625" font-family="Arial" font-size="10.00">S&#45;290</text>
</g>
<!-- C&#45;1303&#45;&gt;S&#45;290 -->
<g id="edge7" class="edge">
<title>C&#45;1303&#45;&gt;S&#45;290</title>
<path fill="none" stroke="#4d4d4d" d="M2142,-706.58C2142,-706.58 2142,-656.03 2142,-656.03"/>
<polygon fill="#4d4d4d" stroke="#4d4d4d" points="2144.45,-656.03 2142,-649.03 2139.55,-656.03 2144.45,-656.03"/>
</g>
<!-- S&#45;2255 -->
<g id="node40" class="node">
<title>S&#45;2255</title>
<polygon fill="mediumseagreen" stroke="black" points="2322,-649 2250,-627.5 2322,-606 2394,-627.5 2322,-649"/>
<text text-anchor="middle" x="2322" y="-625" font-family="Arial" font-size="10.00">S&#45;2255</text>
</g>
<!-- C&#45;1303&#45;&gt;S&#45;2255 -->
<g id="edge14" class="edge">
<title>C&#45;1303&#45;&gt;S&#45;2255</title>
<path fill="none" stroke="#4d4d4d" d="M2209.54,-721C2260.61,-721 2322,-721 2322,-721 2322,-721 2322,-656.19 2322,-656.19"/>
<polygon fill="#4d4d4d" stroke="#4d4d4d" points="2324.45,-656.19 2322,-649.19 2319.55,-656.19 2324.45,-656.19"/>
</g>
<!-- R&#45;255 -->
<g id="node20" class="node">
<title>R&#45;255</title>
<polygon fill="mediumseagreen" stroke="black" points="504,-416.59 504,-434.41 461.82,-447 402.18,-447 360,-434.41 360,-416.59 402.18,-404 461.82,-404 504,-416.59"/>
<text text-anchor="middle" x="432" y="-423" font-family="Arial" font-size="10.00">R&#45;255</text>
</g>
<!-- C&#45;1046&#45;&gt;R&#45;255 -->
<g id="edge24" class="edge">
<title>C&#45;1046&#45;&gt;R&#45;255</title>
<path fill="none" stroke="#4d4d4d" d="M432,-504.58C432,-504.58 432,-454.03 432,-454.03"/>
<polygon fill="#4d4d4d" stroke="#4d4d4d" points="434.45,-454.03 432,-447.03 429.55,-454.03 434.45,-454.03"/>
</g>
<!-- S&#45;2555 -->
<g id="node19" class="node">
<title>S&#45;2555</title>
<polygon fill="mediumseagreen" stroke="black" points="1178,-952 1106,-930.5 1178,-909 1250,-930.5 1178,-952"/>
<text text-anchor="middle" x="1178" y="-928" font-family="Arial" font-size="10.00">S&#45;2555</text>
</g>
<!-- C&#45;1048 -->
<g id="node32" class="node">
<title>C&#45;1048</title>
<ellipse fill="mediumseagreen" stroke="black" cx="432" cy="-324.5" rx="72" ry="21.5"/>
<text text-anchor="middle" x="432" y="-322" font-family="Arial" font-size="10.00">C&#45;1048</text>
</g>
<!-- R&#45;255&#45;&gt;C&#45;1048 -->
<g id="edge23" class="edge">
<title>R&#45;255&#45;&gt;C&#45;1048</title>
<path fill="none" stroke="#4d4d4d" d="M432,-403.58C432,-403.58 432,-353.03 432,-353.03"/>
<polygon fill="#4d4d4d" stroke="#4d4d4d" points="434.45,-353.03 432,-346.03 429.55,-353.03 434.45,-353.03"/>
</g>
<!-- C&#45;0406&#45;&gt;S&#45;1185 -->
<g id="edge38" class="edge">
<title>C&#45;0406&#45;&gt;S&#45;1185</title>
<path fill="none" stroke="#4d4d4d" d="M1242,-403.58C1242,-403.58 1242,-353.03 1242,-353.03"/>
<polygon fill="#4d4d4d" stroke="#4d4d4d" points="1244.45,-353.03 1242,-346.03 1239.55,-353.03 1244.45,-353.03"/>
</g>
<!-- C&#45;1047&#45;&gt;C&#45;1048 -->
<g id="edge53" class="edge">
<title>C&#45;1047&#45;&gt;C&#45;1048</title>
<path fill="none" stroke="blue" stroke-dasharray="5,2" d="M612,-504.83C612,-452.59 612,-324 612,-324 612,-324 511.18,-324 511.18,-324"/>
<polygon fill="blue" stroke="blue" points="511.18,-321.55 504.18,-324 511.18,-326.45 511.18,-321.55"/>
</g>
<!-- C&#45;1198 -->
<g id="node23" class="node">
<title>C&#45;1198</title>
<ellipse fill="mediumseagreen" stroke="black" cx="882" cy="-627.5" rx="72" ry="21.5"/>
<text text-anchor="middle" x="882" y="-625" font-family="Arial" font-size="10.00">C&#45;1198</text>
</g>
<!-- R&#45;296 -->
<g id="node27" class="node">
<title>R&#45;296</title>
<polygon fill="mediumseagreen" stroke="black" points="954,-517.59 954,-535.41 911.82,-548 852.18,-548 810,-535.41 810,-517.59 852.18,-505 911.82,-505 954,-517.59"/>
<text text-anchor="middle" x="882" y="-524" font-family="Arial" font-size="10.00">R&#45;296</text>
</g>
<!-- C&#45;1198&#45;&gt;R&#45;296 -->
<g id="edge31" class="edge">
<title>C&#45;1198&#45;&gt;R&#45;296</title>
<path fill="none" stroke="#4d4d4d" d="M882,-605.58C882,-605.58 882,-555.03 882,-555.03"/>
<polygon fill="#4d4d4d" stroke="#4d4d4d" points="884.45,-555.03 882,-548.03 879.55,-555.03 884.45,-555.03"/>
</g>
<!-- S&#45;1817 -->
<g id="node24" class="node">
<title>S&#45;1817</title>
<polygon fill="mediumseagreen" stroke="black" points="522,-649 450,-627.5 522,-606 594,-627.5 522,-649"/>
<text text-anchor="middle" x="522" y="-625" font-family="Arial" font-size="10.00">S&#45;1817</text>
</g>
<!-- C&#45;0639 -->
<g id="node26" class="node">
<title>C&#45;0639</title>
<ellipse fill="tomato" stroke="black" cx="72" cy="-425.5" rx="72" ry="21.5"/>
<text text-anchor="middle" x="72" y="-423" font-family="Arial" font-size="10.00">C&#45;0639</text>
</g>
<!-- ext_circ_208_27_ -->
<g id="node50" class="node">
<title>ext_circ_208_27_</title>
<polygon fill="lightpink" stroke="darkorange" stroke-dasharray="5,2" points="144,-346 0,-346 0,-303 144,-303 144,-346"/>
<text text-anchor="middle" x="72" y="-327.5" font-family="Arial" font-size="10.00">Circuito:</text>
<text text-anchor="middle" x="72" y="-316.5" font-family="Arial" font-size="10.00">208&#45;27&#45;</text>
</g>
<!-- C&#45;0639&#45;&gt;ext_circ_208_27_ -->
<g id="edge50" class="edge">
<title>C&#45;0639&#45;&gt;ext_circ_208_27_</title>
<path fill="none" stroke="darkorange" stroke-dasharray="5,2" d="M72,-403.58C72,-403.58 72,-353.03 72,-353.03"/>
<polygon fill="darkorange" stroke="darkorange" points="74.45,-353.03 72,-346.03 69.55,-353.03 74.45,-353.03"/>
</g>
<!-- 208&#45;24&#45; -->
<g id="node29" class="node">
<title>208&#45;24&#45;</title>
<polygon fill="gold" stroke="black" points="1520,-1228.59 1520,-1246.41 1477.82,-1259 1418.18,-1259 1376,-1246.41 1376,-1228.59 1418.18,-1216 1477.82,-1216 1520,-1228.59"/>
<polygon fill="none" stroke="black" points="1524,-1225.61 1524,-1249.39 1478.41,-1263 1417.59,-1263 1372,-1249.39 1372,-1225.61 1417.59,-1212 1478.41,-1212 1524,-1225.61"/>
<text text-anchor="middle" x="1448" y="-1235" font-family="Arial" font-size="10.00">208&#45;24&#45;</text>
</g>
<!-- 208&#45;24&#45;&#45;&gt;C&#45;0189 -->
<g id="edge1" class="edge">
<title>208&#45;24&#45;&#45;&gt;C&#45;0189</title>
<path fill="none" stroke="#4d4d4d" d="M1448,-1211.81C1448,-1211.81 1448,-1161.03 1448,-1161.03"/>
<polygon fill="#4d4d4d" stroke="#4d4d4d" points="1450.45,-1161.03 1448,-1154.03 1445.55,-1161.03 1450.45,-1161.03"/>
</g>
<!-- S&#45;1146 -->
<g id="node30" class="node">
<title>S&#45;1146</title>
<polygon fill="mediumseagreen" stroke="black" points="1358,-952 1286,-930.5 1358,-909 1430,-930.5 1358,-952"/>
<text text-anchor="middle" x="1358" y="-928" font-family="Arial" font-size="10.00">S&#45;1146</text>
</g>
<!-- S&#45;1146&#45;&gt;S&#45;292 -->
<g id="edge27" class="edge">
<title>S&#45;1146&#45;&gt;S&#45;292</title>
<path fill="none" stroke="#4d4d4d" d="M1300,-926.16C1300,-926.16 1300,-840.71 1300,-840.71"/>
<polygon fill="#4d4d4d" stroke="#4d4d4d" points="1302.45,-840.71 1300,-833.71 1297.55,-840.71 1302.45,-840.71"/>
</g>
<!-- R&#45;059&#45;&gt;SR&#45;0010 -->
<g id="edge46" class="edge">
<title>R&#45;059&#45;&gt;SR&#45;0010</title>
<path fill="none" stroke="#4d4d4d" d="M540,-728C460.02,-728 342,-728 342,-728 342,-728 342,-656.31 342,-656.31"/>
<polygon fill="#4d4d4d" stroke="#4d4d4d" points="344.45,-656.31 342,-649.31 339.55,-656.31 344.45,-656.31"/>
</g>
<!-- R&#45;059&#45;&gt;S&#45;1817 -->
<g id="edge45" class="edge">
<title>R&#45;059&#45;&gt;S&#45;1817</title>
<path fill="none" stroke="#4d4d4d" d="M567,-711.37C567,-711.37 567,-642.78 567,-642.78"/>
<polygon fill="#4d4d4d" stroke="#4d4d4d" points="569.45,-642.78 567,-635.78 564.55,-642.78 569.45,-642.78"/>
</g>
<!-- S&#45;1818 -->
<g id="node35" class="node">
<title>S&#45;1818</title>
<polygon fill="mediumseagreen" stroke="black" points="702,-649 630,-627.5 702,-606 774,-627.5 702,-649"/>
<text text-anchor="middle" x="702" y="-625" font-family="Arial" font-size="10.00">S&#45;1818</text>
</g>
<!-- R&#45;059&#45;&gt;S&#45;1818 -->
<g id="edge44" class="edge">
<title>R&#45;059&#45;&gt;S&#45;1818</title>
<path fill="none" stroke="#4d4d4d" d="M657,-711.37C657,-711.37 657,-642.78 657,-642.78"/>
<polygon fill="#4d4d4d" stroke="#4d4d4d" points="659.45,-642.78 657,-635.78 654.55,-642.78 659.45,-642.78"/>
</g>
<!-- C&#45;0489 -->
<g id="node49" class="node">
<title>C&#45;0489</title>
<ellipse fill="mediumseagreen" stroke="black" cx="432" cy="-223.5" rx="72" ry="21.5"/>
<text text-anchor="middle" x="432" y="-221" font-family="Arial" font-size="10.00">C&#45;0489</text>
</g>
<!-- C&#45;1048&#45;&gt;C&#45;0489 -->
<g id="edge22" class="edge">
<title>C&#45;1048&#45;&gt;C&#45;0489</title>
<path fill="none" stroke="#4d4d4d" d="M432,-302.58C432,-302.58 432,-252.03 432,-252.03"/>
<polygon fill="#4d4d4d" stroke="#4d4d4d" points="434.45,-252.03 432,-245.03 429.55,-252.03 434.45,-252.03"/>
</g>
<!-- S&#45;1042 -->
<g id="node33" class="node">
<title>S&#45;1042</title>
<polygon fill="tomato" stroke="black" points="1242,-144 1170,-122.5 1242,-101 1314,-122.5 1242,-144"/>
<text text-anchor="middle" x="1242" y="-120" font-family="Arial" font-size="10.00">S&#45;1042</text>
</g>
<!-- ext_circ_205_23_ -->
<g id="node51" class="node">
<title>ext_circ_205_23_</title>
<polygon fill="lightpink" stroke="darkorange" stroke-dasharray="5,2" points="1314,-43 1170,-43 1170,0 1314,0 1314,-43"/>
<text text-anchor="middle" x="1242" y="-24.5" font-family="Arial" font-size="10.00">Circuito:</text>
<text text-anchor="middle" x="1242" y="-13.5" font-family="Arial" font-size="10.00">205&#45;23&#45;</text>
</g>
<!-- S&#45;1042&#45;&gt;ext_circ_205_23_ -->
<g id="edge52" class="edge">
<title>S&#45;1042&#45;&gt;ext_circ_205_23_</title>
<path fill="none" stroke="darkorange" stroke-dasharray="5,2" d="M1242,-100.58C1242,-100.58 1242,-50.03 1242,-50.03"/>
<polygon fill="darkorange" stroke="darkorange" points="1244.45,-50.03 1242,-43.03 1239.55,-50.03 1244.45,-50.03"/>
</g>
<!-- C&#45;1255&#45;&gt;C&#45;1304 -->
<g id="edge3" class="edge">
<title>C&#45;1255&#45;&gt;C&#45;1304</title>
<path fill="none" stroke="#4d4d4d" d="M1379.16,-1038C1253.11,-1038 998,-1038 998,-1038 998,-1038 998,-959.25 998,-959.25"/>
<polygon fill="#4d4d4d" stroke="#4d4d4d" points="1000.45,-959.25 998,-952.25 995.55,-959.25 1000.45,-959.25"/>
</g>
<!-- C&#45;1255&#45;&gt;S&#45;2555 -->
<g id="edge16" class="edge">
<title>C&#45;1255&#45;&gt;S&#45;2555</title>
<path fill="none" stroke="#4d4d4d" d="M1380.22,-1024C1300.24,-1024 1178,-1024 1178,-1024 1178,-1024 1178,-959.19 1178,-959.19"/>
<polygon fill="#4d4d4d" stroke="#4d4d4d" points="1180.45,-959.19 1178,-952.19 1175.55,-959.19 1180.45,-959.19"/>
</g>
<!-- C&#45;1255&#45;&gt;S&#45;1146 -->
<g id="edge26" class="edge">
<title>C&#45;1255&#45;&gt;S&#45;1146</title>
<path fill="none" stroke="#4d4d4d" d="M1403,-1014.37C1403,-1014.37 1403,-945.78 1403,-945.78"/>
<polygon fill="#4d4d4d" stroke="#4d4d4d" points="1405.45,-945.78 1403,-938.78 1400.55,-945.78 1405.45,-945.78"/>
</g>
<!-- C&#45;0318 -->
<g id="node39" class="node">
<title>C&#45;0318</title>
<ellipse fill="tomato" stroke="black" cx="1538" cy="-930.5" rx="72" ry="21.5"/>
<text text-anchor="middle" x="1538" y="-928" font-family="Arial" font-size="10.00">C&#45;0318</text>
</g>
<!-- C&#45;1255&#45;&gt;C&#45;0318 -->
<g id="edge48" class="edge">
<title>C&#45;1255&#45;&gt;C&#45;0318</title>
<path fill="none" stroke="#4d4d4d" d="M1493,-1014.37C1493,-1014.37 1493,-954.38 1493,-954.38"/>
<polygon fill="#4d4d4d" stroke="#4d4d4d" points="1495.45,-954.38 1493,-947.38 1490.55,-954.38 1495.45,-954.38"/>
</g>
<!-- S&#45;792 -->
<g id="node42" class="node">
<title>S&#45;792</title>
<polygon fill="mediumseagreen" stroke="black" points="1718,-952 1646,-930.5 1718,-909 1790,-930.5 1718,-952"/>
<text text-anchor="middle" x="1718" y="-928" font-family="Arial" font-size="10.00">S&#45;792</text>
</g>
<!-- C&#45;1255&#45;&gt;S&#45;792 -->
<g id="edge17" class="edge">
<title>C&#45;1255&#45;&gt;S&#45;792</title>
<path fill="none" stroke="#4d4d4d" d="M1515.78,-1024C1595.76,-1024 1718,-1024 1718,-1024 1718,-1024 1718,-959.19 1718,-959.19"/>
<polygon fill="#4d4d4d" stroke="#4d4d4d" points="1720.45,-959.19 1718,-952.19 1715.55,-959.19 1720.45,-959.19"/>
</g>
<!-- C&#45;1302 -->
<g id="node47" class="node">
<title>C&#45;1302</title>
<ellipse fill="mediumseagreen" stroke="black" cx="1936" cy="-930.5" rx="72" ry="21.5"/>
<text text-anchor="middle" x="1936" y="-928" font-family="Arial" font-size="10.00">C&#45;1302</text>
</g>
<!-- C&#45;1255&#45;&gt;C&#45;1302 -->
<g id="edge4" class="edge">
<title>C&#45;1255&#45;&gt;C&#45;1302</title>
<path fill="none" stroke="#4d4d4d" d="M1516.88,-1038C1651.4,-1038 1936,-1038 1936,-1038 1936,-1038 1936,-959.25 1936,-959.25"/>
<polygon fill="#4d4d4d" stroke="#4d4d4d" points="1938.45,-959.25 1936,-952.25 1933.55,-959.25 1938.45,-959.25"/>
</g>
<!-- S&#45;1707 -->
<g id="node37" class="node">
<title>S&#45;1707</title>
<polygon fill="mediumseagreen" stroke="black" points="2322,-548 2250,-526.5 2322,-505 2394,-526.5 2322,-548"/>
<text text-anchor="middle" x="2322" y="-524" font-family="Arial" font-size="10.00">S&#45;1707</text>
</g>
<!-- S&#45;297&#45;&gt;S&#45;1045 -->
<g id="edge42" class="edge">
<title>S&#45;297&#45;&gt;S&#45;1045</title>
<path fill="none" stroke="#4d4d4d" d="M1171.63,-223C1121.15,-223 1062,-223 1062,-223 1062,-223 1062,-151.31 1062,-151.31"/>
<polygon fill="#4d4d4d" stroke="#4d4d4d" points="1064.45,-151.31 1062,-144.31 1059.55,-151.31 1064.45,-151.31"/>
</g>
<!-- S&#45;297&#45;&gt;S&#45;1042 -->
<g id="edge41" class="edge">
<title>S&#45;297&#45;&gt;S&#45;1042</title>
<path fill="none" stroke="#4d4d4d" d="M1242,-201.58C1242,-201.58 1242,-151.03 1242,-151.03"/>
<polygon fill="#4d4d4d" stroke="#4d4d4d" points="1244.45,-151.03 1242,-144.03 1239.55,-151.03 1244.45,-151.03"/>
</g>
<!-- S&#45;2311 -->
<g id="node46" class="node">
<title>S&#45;2311</title>
<polygon fill="mediumseagreen" stroke="black" points="1422,-144 1350,-122.5 1422,-101 1494,-122.5 1422,-144"/>
<text text-anchor="middle" x="1422" y="-120" font-family="Arial" font-size="10.00">S&#45;2311</text>
</g>
<!-- S&#45;297&#45;&gt;S&#45;2311 -->
<g id="edge40" class="edge">
<title>S&#45;297&#45;&gt;S&#45;2311</title>
<path fill="none" stroke="#4d4d4d" d="M1312.37,-223C1362.85,-223 1422,-223 1422,-223 1422,-223 1422,-151.31 1422,-151.31"/>
<polygon fill="#4d4d4d" stroke="#4d4d4d" points="1424.45,-151.31 1422,-144.31 1419.55,-151.31 1424.45,-151.31"/>
</g>
<!-- S&#45;2255&#45;&gt;S&#45;1707 -->
<g id="edge15" class="edge">
<title>S&#45;2255&#45;&gt;S&#45;1707</title>
<path fill="none" stroke="#4d4d4d" d="M2322,-605.58C2322,-605.58 2322,-555.03 2322,-555.03"/>
<polygon fill="#4d4d4d" stroke="#4d4d4d" points="2324.45,-555.03 2322,-548.03 2319.55,-555.03 2324.45,-555.03"/>
</g>
<!-- C&#45;0709 -->
<g id="node41" class="node">
<title>C&#45;0709</title>
<ellipse fill="mediumseagreen" stroke="black" cx="1062" cy="-627.5" rx="72" ry="21.5"/>
<text text-anchor="middle" x="1062" y="-625" font-family="Arial" font-size="10.00">C&#45;0709</text>
</g>
<!-- C&#45;0703&#45;&gt;S&#45;294 -->
<g id="edge33" class="edge">
<title>C&#45;0703&#45;&gt;S&#45;294</title>
<path fill="none" stroke="#4d4d4d" d="M1377,-711.37C1377,-711.37 1377,-642.78 1377,-642.78"/>
<polygon fill="#4d4d4d" stroke="#4d4d4d" points="1379.45,-642.78 1377,-635.78 1374.55,-642.78 1379.45,-642.78"/>
</g>
<!-- C&#45;0703&#45;&gt;S&#45;2177 -->
<g id="edge32" class="edge">
<title>C&#45;0703&#45;&gt;S&#45;2177</title>
<path fill="none" stroke="#4d4d4d" d="M1404.05,-728C1474.1,-728 1570,-728 1570,-728 1570,-728 1570,-646.82 1570,-646.82"/>
<polygon fill="#4d4d4d" stroke="#4d4d4d" points="1572.45,-646.82 1570,-639.82 1567.55,-646.82 1572.45,-646.82"/>
</g>
<!-- C&#45;0703&#45;&gt;C&#45;0404 -->
<g id="edge35" class="edge">
<title>C&#45;0703&#45;&gt;C&#45;0404</title>
<path fill="none" stroke="#4d4d4d" d="M1395.03,-739C1511.8,-739 1750,-739 1750,-739 1750,-739 1750,-653.92 1750,-653.92"/>
<polygon fill="#4d4d4d" stroke="#4d4d4d" points="1752.45,-653.92 1750,-646.92 1747.55,-653.92 1752.45,-653.92"/>
</g>
<!-- C&#45;0703&#45;&gt;C&#45;1198 -->
<g id="edge30" class="edge">
<title>C&#45;0703&#45;&gt;C&#45;1198</title>
<path fill="none" stroke="#4d4d4d" d="M1273.5,-715.82C1273.5,-703.62 1273.5,-687 1273.5,-687 1273.5,-687 940,-687 940,-687 940,-687 940,-647.41 940,-647.41"/>
<polygon fill="#4d4d4d" stroke="#4d4d4d" points="942.45,-647.41 940,-640.41 937.55,-647.41 942.45,-647.41"/>
</g>
<!-- C&#45;0703&#45;&gt;C&#45;0709 -->
<g id="edge29" class="edge">
<title>C&#45;0703&#45;&gt;C&#45;0709</title>
<path fill="none" stroke="#4d4d4d" d="M1287,-711.65C1287,-693.75 1287,-668 1287,-668 1287,-668 1107,-668 1107,-668 1107,-668 1107,-651.44 1107,-651.44"/>
<polygon fill="#4d4d4d" stroke="#4d4d4d" points="1109.45,-651.44 1107,-644.44 1104.55,-651.44 1109.45,-651.44"/>
</g>
<!-- C&#45;0405 -->
<g id="node45" class="node">
<title>C&#45;0405</title>
<ellipse fill="mediumseagreen" stroke="black" cx="1242" cy="-627.5" rx="72" ry="21.5"/>
<text text-anchor="middle" x="1242" y="-625" font-family="Arial" font-size="10.00">C&#45;0405</text>
</g>
<!-- C&#45;0703&#45;&gt;C&#45;0405 -->
<g id="edge34" class="edge">
<title>C&#45;0703&#45;&gt;C&#45;0405</title>
<path fill="none" stroke="#4d4d4d" d="M1300.5,-709.03C1300.5,-709.03 1300.5,-647.2 1300.5,-647.2"/>
<polygon fill="#4d4d4d" stroke="#4d4d4d" points="1302.95,-647.2 1300.5,-640.2 1298.05,-647.2 1302.95,-647.2"/>
</g>
<!-- R&#45;138 -->
<g id="node44" class="node">
<title>R&#45;138</title>
<polygon fill="mediumseagreen" stroke="black" points="1314,-517.59 1314,-535.41 1271.82,-548 1212.18,-548 1170,-535.41 1170,-517.59 1212.18,-505 1271.82,-505 1314,-517.59"/>
<text text-anchor="middle" x="1242" y="-524" font-family="Arial" font-size="10.00">R&#45;138</text>
</g>
<!-- R&#45;138&#45;&gt;C&#45;0406 -->
<g id="edge36" class="edge">
<title>R&#45;138&#45;&gt;C&#45;0406</title>
<path fill="none" stroke="#4d4d4d" d="M1242,-504.58C1242,-504.58 1242,-454.03 1242,-454.03"/>
<polygon fill="#4d4d4d" stroke="#4d4d4d" points="1244.45,-454.03 1242,-447.03 1239.55,-454.03 1244.45,-454.03"/>
</g>
<!-- C&#45;0405&#45;&gt;R&#45;138 -->
<g id="edge25" class="edge">
<title>C&#45;0405&#45;&gt;R&#45;138</title>
<path fill="none" stroke="#4d4d4d" d="M1242,-605.58C1242,-605.58 1242,-555.03 1242,-555.03"/>
<polygon fill="#4d4d4d" stroke="#4d4d4d" points="1244.45,-555.03 1242,-548.03 1239.55,-555.03 1244.45,-555.03"/>
</g>
<!-- C&#45;1302&#45;&gt;R&#45;304 -->
<g id="edge5" class="edge">
<title>C&#45;1302&#45;&gt;R&#45;304</title>
<path fill="none" stroke="#4d4d4d" d="M1974.5,-911.98C1974.5,-911.98 1974.5,-855.59 1974.5,-855.59"/>
<polygon fill="#4d4d4d" stroke="#4d4d4d" points="1976.95,-855.59 1974.5,-848.59 1972.05,-855.59 1976.95,-855.59"/>
</g>
<!-- SR&#45;0003&#45;&gt;C&#45;0639 -->
<g id="edge20" class="edge">
<title>SR&#45;0003&#45;&gt;C&#45;0639</title>
<path fill="none" stroke="#4d4d4d" d="M72,-504.58C72,-504.58 72,-454.03 72,-454.03"/>
<polygon fill="#4d4d4d" stroke="#4d4d4d" points="74.45,-454.03 72,-447.03 69.55,-454.03 74.45,-454.03"/>
</g>
</g>
</svg>
