<?xml version="1.0" encoding="UTF-8" standalone="no"?>
<!DOCTYPE svg PUBLIC "-//W3C//DTD SVG 1.1//EN"
 "http://www.w3.org/Graphics/SVG/1.1/DTD/svg11.dtd">
<!-- Generated by graphviz version 2.50.0 (0)
 -->
<!-- Title: Grafo_Circuito_304_25_ Pages: 1 -->
<svg width="2036pt" height="1372pt"
 viewBox="0.00 0.00 2036.00 1372.00" xmlns="http://www.w3.org/2000/svg" xmlns:xlink="http://www.w3.org/1999/xlink">
<g id="graph0" class="graph" transform="scale(1 1) rotate(0) translate(4 1368)">
<title>Grafo_Circuito_304_25_</title>
<polygon fill="white" stroke="transparent" points="-4,4 -4,-1368 2032,-1368 2032,4 -4,4"/>
<!-- S&#45;653 -->
<g id="node1" class="node">
<title>S&#45;653</title>
<polygon fill="mediumseagreen" stroke="black" points="379,-649 307,-627.5 379,-606 451,-627.5 379,-649"/>
<text text-anchor="middle" x="379" y="-625" font-family="Arial" font-size="10.00">S&#45;653</text>
</g>
<!-- S&#45;537 -->
<g id="node2" class="node">
<title>S&#45;537</title>
<polygon fill="mediumseagreen" stroke="black" points="1776,-1255 1704,-1233.5 1776,-1212 1848,-1233.5 1776,-1255"/>
<text text-anchor="middle" x="1776" y="-1231" font-family="Arial" font-size="10.00">S&#45;537</text>
</g>
<!-- C&#45;0360 -->
<g id="node21" class="node">
<title>C&#45;0360</title>
<ellipse fill="mediumseagreen" stroke="black" cx="1776" cy="-1132.5" rx="72" ry="21.5"/>
<text text-anchor="middle" x="1776" y="-1130" font-family="Arial" font-size="10.00">C&#45;0360</text>
</g>
<!-- S&#45;537&#45;&gt;C&#45;0360 -->
<g id="edge2" class="edge">
<title>S&#45;537&#45;&gt;C&#45;0360</title>
<path fill="none" stroke="#4d4d4d" d="M1776,-1211.58C1776,-1211.58 1776,-1161.03 1776,-1161.03"/>
<polygon fill="#4d4d4d" stroke="#4d4d4d" points="1778.45,-1161.03 1776,-1154.03 1773.55,-1161.03 1778.45,-1161.03"/>
</g>
<!-- S&#45;1399 -->
<g id="node3" class="node">
<title>S&#45;1399</title>
<polygon fill="mediumseagreen" stroke="black" points="993,-245 921,-223.5 993,-202 1065,-223.5 993,-245"/>
<text text-anchor="middle" x="993" y="-221" font-family="Arial" font-size="10.00">S&#45;1399</text>
</g>
<!-- S&#45;545 -->
<g id="node13" class="node">
<title>S&#45;545</title>
<polygon fill="mediumseagreen" stroke="black" points="993,-144 921,-122.5 993,-101 1065,-122.5 993,-144"/>
<text text-anchor="middle" x="993" y="-120" font-family="Arial" font-size="10.00">S&#45;545</text>
</g>
<!-- S&#45;1399&#45;&gt;S&#45;545 -->
<g id="edge22" class="edge">
<title>S&#45;1399&#45;&gt;S&#45;545</title>
<path fill="none" stroke="#4d4d4d" d="M993,-201.58C993,-201.58 993,-151.03 993,-151.03"/>
<polygon fill="#4d4d4d" stroke="#4d4d4d" points="995.45,-151.03 993,-144.03 990.55,-151.03 995.45,-151.03"/>
</g>
<!-- S&#45;1254 -->
<g id="node4" class="node">
<title>S&#45;1254</title>
<polygon fill="mediumseagreen" stroke="black" points="559,-649 487,-627.5 559,-606 631,-627.5 559,-649"/>
<text text-anchor="middle" x="559" y="-625" font-family="Arial" font-size="10.00">S&#45;1254</text>
</g>
<!-- R&#45;173 -->
<g id="node5" class="node">
<title>R&#45;173</title>
<polygon fill="tomato" stroke="black" points="1539,-719.59 1539,-737.41 1496.82,-750 1437.18,-750 1395,-737.41 1395,-719.59 1437.18,-707 1496.82,-707 1539,-719.59"/>
<text text-anchor="middle" x="1467" y="-726" font-family="Arial" font-size="10.00">R&#45;173</text>
</g>
<!-- ext_circ_304_24_ -->
<g id="node48" class="node">
<title>ext_circ_304_24_</title>
<polygon fill="lightpink" stroke="darkorange" stroke-dasharray="5,2" points="1829,-649 1685,-649 1685,-606 1829,-606 1829,-649"/>
<text text-anchor="middle" x="1757" y="-630.5" font-family="Arial" font-size="10.00">Circuito:</text>
<text text-anchor="middle" x="1757" y="-619.5" font-family="Arial" font-size="10.00">304&#45;24&#45;</text>
</g>
<!-- R&#45;173&#45;&gt;ext_circ_304_24_ -->
<g id="edge49" class="edge">
<title>R&#45;173&#45;&gt;ext_circ_304_24_</title>
<path fill="none" stroke="darkorange" stroke-dasharray="5,2" d="M1468.5,-706.58C1468.5,-678.67 1468.5,-634 1468.5,-634 1468.5,-634 1677.94,-634 1677.94,-634"/>
<polygon fill="darkorange" stroke="darkorange" points="1677.94,-636.45 1684.94,-634 1677.94,-631.55 1677.94,-636.45"/>
</g>
<!-- C&#45;0316 -->
<g id="node6" class="node">
<title>C&#45;0316</title>
<ellipse fill="tomato" stroke="black" cx="1776" cy="-1031.5" rx="72" ry="21.5"/>
<text text-anchor="middle" x="1776" y="-1029" font-family="Arial" font-size="10.00">C&#45;0316</text>
</g>
<!-- C&#45;0316&#45;&gt;ext_circ_304_24_ -->
<g id="edge56" class="edge">
<title>C&#45;0316&#45;&gt;ext_circ_304_24_</title>
<path fill="none" stroke="darkorange" stroke-dasharray="5,2" d="M1792.33,-1010.35C1792.33,-1010.35 1792.33,-656.42 1792.33,-656.42"/>
<polygon fill="darkorange" stroke="darkorange" points="1794.78,-656.42 1792.33,-649.42 1789.88,-656.42 1794.78,-656.42"/>
</g>
<!-- S&#45;1293 -->
<g id="node7" class="node">
<title>S&#45;1293</title>
<polygon fill="mediumseagreen" stroke="black" points="1268,-851 1196,-829.5 1268,-808 1340,-829.5 1268,-851"/>
<text text-anchor="middle" x="1268" y="-827" font-family="Arial" font-size="10.00">S&#45;1293</text>
</g>
<!-- S&#45;330 -->
<g id="node8" class="node">
<title>S&#45;330</title>
<polygon fill="mediumseagreen" stroke="black" points="1377,-1053 1305,-1031.5 1377,-1010 1449,-1031.5 1377,-1053"/>
<text text-anchor="middle" x="1377" y="-1029" font-family="Arial" font-size="10.00">S&#45;330</text>
</g>
<!-- C&#45;0369 -->
<g id="node10" class="node">
<title>C&#45;0369</title>
<ellipse fill="mediumseagreen" stroke="black" cx="1107" cy="-930.5" rx="72" ry="21.5"/>
<text text-anchor="middle" x="1107" y="-928" font-family="Arial" font-size="10.00">C&#45;0369</text>
</g>
<!-- S&#45;330&#45;&gt;C&#45;0369 -->
<g id="edge35" class="edge">
<title>S&#45;330&#45;&gt;C&#45;0369</title>
<path fill="none" stroke="#4d4d4d" d="M1329.97,-1024C1252.61,-1024 1107,-1024 1107,-1024 1107,-1024 1107,-959.19 1107,-959.19"/>
<polygon fill="#4d4d4d" stroke="#4d4d4d" points="1109.45,-959.19 1107,-952.19 1104.55,-959.19 1109.45,-959.19"/>
</g>
<!-- S&#45;1345 -->
<g id="node11" class="node">
<title>S&#45;1345</title>
<polygon fill="mediumseagreen" stroke="black" points="1467,-952 1395,-930.5 1467,-909 1539,-930.5 1467,-952"/>
<text text-anchor="middle" x="1467" y="-928" font-family="Arial" font-size="10.00">S&#45;1345</text>
</g>
<!-- S&#45;330&#45;&gt;S&#45;1345 -->
<g id="edge45" class="edge">
<title>S&#45;330&#45;&gt;S&#45;1345</title>
<path fill="none" stroke="#4d4d4d" d="M1422,-1023.23C1422,-1023.23 1422,-945.6 1422,-945.6"/>
<polygon fill="#4d4d4d" stroke="#4d4d4d" points="1424.45,-945.6 1422,-938.6 1419.55,-945.6 1424.45,-945.6"/>
</g>
<!-- C&#45;0368 -->
<g id="node30" class="node">
<title>C&#45;0368</title>
<ellipse fill="tomato" stroke="black" cx="927" cy="-930.5" rx="72" ry="21.5"/>
<text text-anchor="middle" x="927" y="-928" font-family="Arial" font-size="10.00">C&#45;0368</text>
</g>
<!-- S&#45;330&#45;&gt;C&#45;0368 -->
<g id="edge34" class="edge">
<title>S&#45;330&#45;&gt;C&#45;0368</title>
<path fill="none" stroke="#4d4d4d" d="M1326.69,-1038C1209.26,-1038 927,-1038 927,-1038 927,-1038 927,-959.25 927,-959.25"/>
<polygon fill="#4d4d4d" stroke="#4d4d4d" points="929.45,-959.25 927,-952.25 924.55,-959.25 929.45,-959.25"/>
</g>
<!-- S&#45;865 -->
<g id="node34" class="node">
<title>S&#45;865</title>
<polygon fill="mediumseagreen" stroke="black" points="1684,-952 1612,-930.5 1684,-909 1756,-930.5 1684,-952"/>
<text text-anchor="middle" x="1684" y="-928" font-family="Arial" font-size="10.00">S&#45;865</text>
</g>
<!-- S&#45;330&#45;&gt;S&#45;865 -->
<g id="edge32" class="edge">
<title>S&#45;330&#45;&gt;S&#45;865</title>
<path fill="none" stroke="#4d4d4d" d="M1447.4,-1031C1530.05,-1031 1656,-1031 1656,-1031 1656,-1031 1656,-951.05 1656,-951.05"/>
<polygon fill="#4d4d4d" stroke="#4d4d4d" points="1658.45,-951.05 1656,-944.05 1653.55,-951.05 1658.45,-951.05"/>
</g>
<!-- C&#45;0825 -->
<g id="node36" class="node">
<title>C&#45;0825</title>
<ellipse fill="mediumseagreen" stroke="black" cx="1287" cy="-930.5" rx="72" ry="21.5"/>
<text text-anchor="middle" x="1287" y="-928" font-family="Arial" font-size="10.00">C&#45;0825</text>
</g>
<!-- S&#45;330&#45;&gt;C&#45;0825 -->
<g id="edge6" class="edge">
<title>S&#45;330&#45;&gt;C&#45;0825</title>
<path fill="none" stroke="#4d4d4d" d="M1332,-1023.23C1332,-1023.23 1332,-954.52 1332,-954.52"/>
<polygon fill="#4d4d4d" stroke="#4d4d4d" points="1334.45,-954.52 1332,-947.52 1329.55,-954.52 1334.45,-954.52"/>
</g>
<!-- S&#45;1400 -->
<g id="node9" class="node">
<title>S&#45;1400</title>
<polygon fill="mediumseagreen" stroke="black" points="813,-245 741,-223.5 813,-202 885,-223.5 813,-245"/>
<text text-anchor="middle" x="813" y="-221" font-family="Arial" font-size="10.00">S&#45;1400</text>
</g>
<!-- R&#45;123 -->
<g id="node45" class="node">
<title>R&#45;123</title>
<polygon fill="mediumseagreen" stroke="black" points="694,-820.59 694,-838.41 651.82,-851 592.18,-851 550,-838.41 550,-820.59 592.18,-808 651.82,-808 694,-820.59"/>
<text text-anchor="middle" x="622" y="-827" font-family="Arial" font-size="10.00">R&#45;123</text>
</g>
<!-- C&#45;0369&#45;&gt;R&#45;123 -->
<g id="edge36" class="edge">
<title>C&#45;0369&#45;&gt;R&#45;123</title>
<path fill="none" stroke="#4d4d4d" d="M1097.5,-908.85C1097.5,-900.99 1097.5,-894 1097.5,-894 1097.5,-894 622,-894 622,-894 622,-894 622,-858.34 622,-858.34"/>
<polygon fill="#4d4d4d" stroke="#4d4d4d" points="624.45,-858.34 622,-851.34 619.55,-858.34 624.45,-858.34"/>
</g>
<!-- C&#45;0220 -->
<g id="node12" class="node">
<title>C&#45;0220</title>
<ellipse fill="mediumseagreen" stroke="black" cx="570" cy="-425.5" rx="72" ry="21.5"/>
<text text-anchor="middle" x="570" y="-423" font-family="Arial" font-size="10.00">C&#45;0220</text>
</g>
<!-- S&#45;543 -->
<g id="node23" class="node">
<title>S&#45;543</title>
<polygon fill="mediumseagreen" stroke="black" points="813,-346 741,-324.5 813,-303 885,-324.5 813,-346"/>
<text text-anchor="middle" x="813" y="-322" font-family="Arial" font-size="10.00">S&#45;543</text>
</g>
<!-- C&#45;0220&#45;&gt;S&#45;543 -->
<g id="edge20" class="edge">
<title>C&#45;0220&#45;&gt;S&#45;543</title>
<path fill="none" stroke="#4d4d4d" d="M637.62,-418C705.31,-418 799.5,-418 799.5,-418 799.5,-418 799.5,-349.09 799.5,-349.09"/>
<polygon fill="#4d4d4d" stroke="#4d4d4d" points="801.95,-349.09 799.5,-342.09 797.05,-349.09 801.95,-349.09"/>
</g>
<!-- C&#45;1144 -->
<g id="node28" class="node">
<title>C&#45;1144</title>
<ellipse fill="tomato" stroke="black" cx="453" cy="-223.5" rx="72" ry="21.5"/>
<text text-anchor="middle" x="453" y="-221" font-family="Arial" font-size="10.00">C&#45;1144</text>
</g>
<!-- C&#45;0220&#45;&gt;C&#45;1144 -->
<g id="edge28" class="edge">
<title>C&#45;0220&#45;&gt;C&#45;1144</title>
<path fill="none" stroke="#4d4d4d" d="M516,-410.97C516,-410.97 516,-241.33 516,-241.33"/>
<polygon fill="#4d4d4d" stroke="#4d4d4d" points="518.45,-241.33 516,-234.33 513.55,-241.33 518.45,-241.33"/>
</g>
<!-- C&#45;1143 -->
<g id="node41" class="node">
<title>C&#45;1143</title>
<ellipse fill="mediumseagreen" stroke="black" cx="633" cy="-324.5" rx="72" ry="21.5"/>
<text text-anchor="middle" x="633" y="-322" font-family="Arial" font-size="10.00">C&#45;1143</text>
</g>
<!-- C&#45;0220&#45;&gt;C&#45;1143 -->
<g id="edge26" class="edge">
<title>C&#45;0220&#45;&gt;C&#45;1143</title>
<path fill="none" stroke="#4d4d4d" d="M601.5,-406.03C601.5,-406.03 601.5,-350.91 601.5,-350.91"/>
<polygon fill="#4d4d4d" stroke="#4d4d4d" points="603.95,-350.91 601.5,-343.91 599.05,-350.91 603.95,-350.91"/>
</g>
<!-- S&#45;1720 -->
<g id="node43" class="node">
<title>S&#45;1720</title>
<polygon fill="mediumseagreen" stroke="black" points="199,-346 127,-324.5 199,-303 271,-324.5 199,-346"/>
<text text-anchor="middle" x="199" y="-322" font-family="Arial" font-size="10.00">S&#45;1720</text>
</g>
<!-- C&#45;0220&#45;&gt;S&#45;1720 -->
<g id="edge29" class="edge">
<title>C&#45;0220&#45;&gt;S&#45;1720</title>
<path fill="none" stroke="#4d4d4d" d="M497.95,-425C392.23,-425 207.5,-425 207.5,-425 207.5,-425 207.5,-350.88 207.5,-350.88"/>
<polygon fill="#4d4d4d" stroke="#4d4d4d" points="209.95,-350.88 207.5,-343.88 205.05,-350.88 209.95,-350.88"/>
</g>
<!-- S&#45;1814 -->
<g id="node46" class="node">
<title>S&#45;1814</title>
<polygon fill="mediumseagreen" stroke="black" points="379,-346 307,-324.5 379,-303 451,-324.5 379,-346"/>
<text text-anchor="middle" x="379" y="-322" font-family="Arial" font-size="10.00">S&#45;1814</text>
</g>
<!-- C&#45;0220&#45;&gt;S&#45;1814 -->
<g id="edge25" class="edge">
<title>C&#45;0220&#45;&gt;S&#45;1814</title>
<path fill="none" stroke="#4d4d4d" d="M507,-415.02C507,-389.09 507,-324 507,-324 507,-324 456.37,-324 456.37,-324"/>
<polygon fill="#4d4d4d" stroke="#4d4d4d" points="456.37,-321.55 449.37,-324 456.37,-326.45 456.37,-321.55"/>
</g>
<!-- S&#45;2106 -->
<g id="node24" class="node">
<title>S&#45;2106</title>
<polygon fill="mediumseagreen" stroke="black" points="993,-43 921,-21.5 993,0 1065,-21.5 993,-43"/>
<text text-anchor="middle" x="993" y="-19" font-family="Arial" font-size="10.00">S&#45;2106</text>
</g>
<!-- S&#45;545&#45;&gt;S&#45;2106 -->
<g id="edge23" class="edge">
<title>S&#45;545&#45;&gt;S&#45;2106</title>
<path fill="none" stroke="#4d4d4d" d="M993,-100.58C993,-100.58 993,-50.03 993,-50.03"/>
<polygon fill="#4d4d4d" stroke="#4d4d4d" points="995.45,-50.03 993,-43.03 990.55,-50.03 995.45,-50.03"/>
</g>
<!-- C&#45;1184 -->
<g id="node14" class="node">
<title>C&#45;1184</title>
<ellipse fill="tomato" stroke="black" cx="1088" cy="-829.5" rx="72" ry="21.5"/>
<text text-anchor="middle" x="1088" y="-827" font-family="Arial" font-size="10.00">C&#45;1184</text>
</g>
<!-- C&#45;1183 -->
<g id="node33" class="node">
<title>C&#45;1183</title>
<ellipse fill="mediumseagreen" stroke="black" cx="1109" cy="-627.5" rx="72" ry="21.5"/>
<text text-anchor="middle" x="1109" y="-625" font-family="Arial" font-size="10.00">C&#45;1183</text>
</g>
<!-- C&#45;1184&#45;&gt;C&#45;1183 -->
<g id="edge48" class="edge">
<title>C&#45;1184&#45;&gt;C&#45;1183</title>
<path fill="none" stroke="blue" stroke-dasharray="5,2" d="M1109.5,-808.64C1109.5,-808.64 1109.5,-656.16 1109.5,-656.16"/>
<polygon fill="blue" stroke="blue" points="1111.95,-656.16 1109.5,-649.16 1107.05,-656.16 1111.95,-656.16"/>
</g>
<!-- C&#45;0782 -->
<g id="node15" class="node">
<title>C&#45;0782</title>
<ellipse fill="tomato" stroke="black" cx="1684" cy="-728.5" rx="72" ry="21.5"/>
<text text-anchor="middle" x="1684" y="-726" font-family="Arial" font-size="10.00">C&#45;0782</text>
</g>
<!-- C&#45;0782&#45;&gt;ext_circ_304_24_ -->
<g id="edge50" class="edge">
<title>C&#45;0782&#45;&gt;ext_circ_304_24_</title>
<path fill="none" stroke="darkorange" stroke-dasharray="5,2" d="M1720.5,-709.5C1720.5,-709.5 1720.5,-656.22 1720.5,-656.22"/>
<polygon fill="darkorange" stroke="darkorange" points="1722.95,-656.22 1720.5,-649.22 1718.05,-656.22 1722.95,-656.22"/>
</g>
<!-- C&#45;1055 -->
<g id="node16" class="node">
<title>C&#45;1055</title>
<ellipse fill="mediumseagreen" stroke="black" cx="1956" cy="-1031.5" rx="72" ry="21.5"/>
<text text-anchor="middle" x="1956" y="-1029" font-family="Arial" font-size="10.00">C&#45;1055</text>
</g>
<!-- R&#45;258 -->
<g id="node39" class="node">
<title>R&#45;258</title>
<polygon fill="tomato" stroke="black" points="2028,-719.59 2028,-737.41 1985.82,-750 1926.18,-750 1884,-737.41 1884,-719.59 1926.18,-707 1985.82,-707 2028,-719.59"/>
<text text-anchor="middle" x="1956" y="-726" font-family="Arial" font-size="10.00">R&#45;258</text>
</g>
<!-- C&#45;1055&#45;&gt;R&#45;258 -->
<g id="edge5" class="edge">
<title>C&#45;1055&#45;&gt;R&#45;258</title>
<path fill="none" stroke="#4d4d4d" d="M1956,-1009.71C1956,-1009.71 1956,-757.09 1956,-757.09"/>
<polygon fill="#4d4d4d" stroke="#4d4d4d" points="1958.45,-757.09 1956,-750.09 1953.55,-757.09 1958.45,-757.09"/>
</g>
<!-- R&#45;289 -->
<g id="node17" class="node">
<title>R&#45;289</title>
<polygon fill="tomato" stroke="black" points="705,-214.59 705,-232.41 662.82,-245 603.18,-245 561,-232.41 561,-214.59 603.18,-202 662.82,-202 705,-214.59"/>
<text text-anchor="middle" x="633" y="-221" font-family="Arial" font-size="10.00">R&#45;289</text>
</g>
<!-- ext_circ_303_26_ -->
<g id="node49" class="node">
<title>ext_circ_303_26_</title>
<polygon fill="lightpink" stroke="darkorange" stroke-dasharray="5,2" points="525,-144 381,-144 381,-101 525,-101 525,-144"/>
<text text-anchor="middle" x="453" y="-125.5" font-family="Arial" font-size="10.00">Circuito:</text>
<text text-anchor="middle" x="453" y="-114.5" font-family="Arial" font-size="10.00">303&#45;26&#45;</text>
</g>
<!-- R&#45;289&#45;&gt;ext_circ_303_26_ -->
<g id="edge51" class="edge">
<title>R&#45;289&#45;&gt;ext_circ_303_26_</title>
<path fill="none" stroke="darkorange" stroke-dasharray="5,2" d="M633,-201.97C633,-172.18 633,-122 633,-122 633,-122 532.18,-122 532.18,-122"/>
<polygon fill="darkorange" stroke="darkorange" points="532.18,-119.55 525.18,-122 532.18,-124.45 532.18,-119.55"/>
</g>
<!-- C&#45;0370 -->
<g id="node18" class="node">
<title>C&#45;0370</title>
<ellipse fill="mediumseagreen" stroke="black" cx="559" cy="-728.5" rx="72" ry="21.5"/>
<text text-anchor="middle" x="559" y="-726" font-family="Arial" font-size="10.00">C&#45;0370</text>
</g>
<!-- C&#45;0370&#45;&gt;S&#45;653 -->
<g id="edge42" class="edge">
<title>C&#45;0370&#45;&gt;S&#45;653</title>
<path fill="none" stroke="#4d4d4d" d="M498.06,-717C445.84,-717 379,-717 379,-717 379,-717 379,-656.17 379,-656.17"/>
<polygon fill="#4d4d4d" stroke="#4d4d4d" points="381.45,-656.17 379,-649.17 376.55,-656.17 381.45,-656.17"/>
</g>
<!-- C&#45;0370&#45;&gt;S&#45;1254 -->
<g id="edge41" class="edge">
<title>C&#45;0370&#45;&gt;S&#45;1254</title>
<path fill="none" stroke="#4d4d4d" d="M559,-706.58C559,-706.58 559,-656.03 559,-656.03"/>
<polygon fill="#4d4d4d" stroke="#4d4d4d" points="561.45,-656.03 559,-649.03 556.55,-656.03 561.45,-656.03"/>
</g>
<!-- S&#45;651 -->
<g id="node25" class="node">
<title>S&#45;651</title>
<polygon fill="mediumseagreen" stroke="black" points="739,-649 667,-627.5 739,-606 811,-627.5 739,-649"/>
<text text-anchor="middle" x="739" y="-625" font-family="Arial" font-size="10.00">S&#45;651</text>
</g>
<!-- C&#45;0370&#45;&gt;S&#45;651 -->
<g id="edge43" class="edge">
<title>C&#45;0370&#45;&gt;S&#45;651</title>
<path fill="none" stroke="#4d4d4d" d="M626.5,-721C654.47,-721 680.5,-721 680.5,-721 680.5,-721 680.5,-638.76 680.5,-638.76"/>
<polygon fill="#4d4d4d" stroke="#4d4d4d" points="682.95,-638.76 680.5,-631.76 678.05,-638.76 682.95,-638.76"/>
</g>
<!-- S&#45;1255 -->
<g id="node31" class="node">
<title>S&#45;1255</title>
<polygon fill="mediumseagreen" stroke="black" points="919,-649 847,-627.5 919,-606 991,-627.5 919,-649"/>
<text text-anchor="middle" x="919" y="-625" font-family="Arial" font-size="10.00">S&#45;1255</text>
</g>
<!-- C&#45;0370&#45;&gt;S&#45;1255 -->
<g id="edge39" class="edge">
<title>C&#45;0370&#45;&gt;S&#45;1255</title>
<path fill="none" stroke="#4d4d4d" d="M627.68,-735C722.25,-735 881,-735 881,-735 881,-735 881,-644.81 881,-644.81"/>
<polygon fill="#4d4d4d" stroke="#4d4d4d" points="883.45,-644.81 881,-637.81 878.55,-644.81 883.45,-644.81"/>
</g>
<!-- R&#45;083 -->
<g id="node35" class="node">
<title>R&#45;083</title>
<polygon fill="tomato" stroke="black" points="144,-416.59 144,-434.41 101.82,-447 42.18,-447 0,-434.41 0,-416.59 42.18,-404 101.82,-404 144,-416.59"/>
<text text-anchor="middle" x="72" y="-423" font-family="Arial" font-size="10.00">R&#45;083</text>
</g>
<!-- C&#45;0370&#45;&gt;R&#45;083 -->
<g id="edge44" class="edge">
<title>C&#45;0370&#45;&gt;R&#45;083</title>
<path fill="none" stroke="#4d4d4d" d="M495.99,-739C362.54,-739 63.5,-739 63.5,-739 63.5,-739 63.5,-454.05 63.5,-454.05"/>
<polygon fill="#4d4d4d" stroke="#4d4d4d" points="65.95,-454.05 63.5,-447.05 61.05,-454.05 65.95,-454.05"/>
</g>
<!-- S&#45;1256 -->
<g id="node47" class="node">
<title>S&#45;1256</title>
<polygon fill="mediumseagreen" stroke="black" points="199,-649 127,-627.5 199,-606 271,-627.5 199,-649"/>
<text text-anchor="middle" x="199" y="-625" font-family="Arial" font-size="10.00">S&#45;1256</text>
</g>
<!-- C&#45;0370&#45;&gt;S&#45;1256 -->
<g id="edge38" class="edge">
<title>C&#45;0370&#45;&gt;S&#45;1256</title>
<path fill="none" stroke="#4d4d4d" d="M487.01,-728C381.96,-728 199,-728 199,-728 199,-728 199,-656.31 199,-656.31"/>
<polygon fill="#4d4d4d" stroke="#4d4d4d" points="201.45,-656.31 199,-649.31 196.55,-656.31 201.45,-656.31"/>
</g>
<!-- C&#45;0219 -->
<g id="node19" class="node">
<title>C&#45;0219</title>
<ellipse fill="mediumseagreen" stroke="black" cx="966" cy="-526.5" rx="72" ry="21.5"/>
<text text-anchor="middle" x="966" y="-524" font-family="Arial" font-size="10.00">C&#45;0219</text>
</g>
<!-- C&#45;0219&#45;&gt;C&#45;0220 -->
<g id="edge19" class="edge">
<title>C&#45;0219&#45;&gt;C&#45;0220</title>
<path fill="none" stroke="#4d4d4d" d="M900,-517.78C900,-494.38 900,-432 900,-432 900,-432 645.78,-432 645.78,-432"/>
<polygon fill="#4d4d4d" stroke="#4d4d4d" points="645.78,-429.55 638.78,-432 645.78,-434.45 645.78,-429.55"/>
</g>
<!-- SR&#45;0023 -->
<g id="node22" class="node">
<title>SR&#45;0023</title>
<polygon fill="mediumseagreen" stroke="black" points="984,-447 912,-425.5 984,-404 1056,-425.5 984,-447"/>
<text text-anchor="middle" x="984" y="-423" font-family="Arial" font-size="10.00">SR&#45;0023</text>
</g>
<!-- C&#45;0219&#45;&gt;SR&#45;0023 -->
<g id="edge17" class="edge">
<title>C&#45;0219&#45;&gt;SR&#45;0023</title>
<path fill="none" stroke="#4d4d4d" d="M975,-505.08C975,-505.08 975,-451.5 975,-451.5"/>
<polygon fill="#4d4d4d" stroke="#4d4d4d" points="977.45,-451.5 975,-444.5 972.55,-451.5 977.45,-451.5"/>
</g>
<!-- S&#45;2243 -->
<g id="node20" class="node">
<title>S&#45;2243</title>
<polygon fill="mediumseagreen" stroke="black" points="1146,-548 1074,-526.5 1146,-505 1218,-526.5 1146,-548"/>
<text text-anchor="middle" x="1146" y="-524" font-family="Arial" font-size="10.00">S&#45;2243</text>
</g>
<!-- C&#45;0360&#45;&gt;C&#45;0316 -->
<g id="edge46" class="edge">
<title>C&#45;0360&#45;&gt;C&#45;0316</title>
<path fill="none" stroke="#4d4d4d" d="M1776,-1110.58C1776,-1110.58 1776,-1060.03 1776,-1060.03"/>
<polygon fill="#4d4d4d" stroke="#4d4d4d" points="1778.45,-1060.03 1776,-1053.03 1773.55,-1060.03 1778.45,-1060.03"/>
</g>
<!-- C&#45;0360&#45;&gt;S&#45;330 -->
<g id="edge3" class="edge">
<title>C&#45;0360&#45;&gt;S&#45;330</title>
<path fill="none" stroke="#4d4d4d" d="M1703.74,-1132C1588.76,-1132 1377,-1132 1377,-1132 1377,-1132 1377,-1060.31 1377,-1060.31"/>
<polygon fill="#4d4d4d" stroke="#4d4d4d" points="1379.45,-1060.31 1377,-1053.31 1374.55,-1060.31 1379.45,-1060.31"/>
</g>
<!-- C&#45;0360&#45;&gt;C&#45;1055 -->
<g id="edge4" class="edge">
<title>C&#45;0360&#45;&gt;C&#45;1055</title>
<path fill="none" stroke="#4d4d4d" d="M1848.18,-1132C1898.25,-1132 1956,-1132 1956,-1132 1956,-1132 1956,-1060.31 1956,-1060.31"/>
<polygon fill="#4d4d4d" stroke="#4d4d4d" points="1958.45,-1060.31 1956,-1053.31 1953.55,-1060.31 1958.45,-1060.31"/>
</g>
<!-- S&#45;2551 -->
<g id="node40" class="node">
<title>S&#45;2551</title>
<polygon fill="mediumseagreen" stroke="black" points="993,-346 921,-324.5 993,-303 1065,-324.5 993,-346"/>
<text text-anchor="middle" x="993" y="-322" font-family="Arial" font-size="10.00">S&#45;2551</text>
</g>
<!-- SR&#45;0023&#45;&gt;S&#45;2551 -->
<g id="edge18" class="edge">
<title>SR&#45;0023&#45;&gt;S&#45;2551</title>
<path fill="none" stroke="#4d4d4d" d="M988.5,-405.06C988.5,-405.06 988.5,-351.91 988.5,-351.91"/>
<polygon fill="#4d4d4d" stroke="#4d4d4d" points="990.95,-351.91 988.5,-344.91 986.05,-351.91 990.95,-351.91"/>
</g>
<!-- S&#45;543&#45;&gt;S&#45;1399 -->
<g id="edge21" class="edge">
<title>S&#45;543&#45;&gt;S&#45;1399</title>
<path fill="none" stroke="#4d4d4d" d="M883.49,-324C896.46,-324 906,-324 906,-324 906,-324 906,-223 906,-223 906,-223 915.36,-223 915.36,-223"/>
<polygon fill="#4d4d4d" stroke="#4d4d4d" points="915.36,-225.45 922.36,-223 915.36,-220.55 915.36,-225.45"/>
</g>
<!-- S&#45;543&#45;&gt;S&#45;1400 -->
<g id="edge24" class="edge">
<title>S&#45;543&#45;&gt;S&#45;1400</title>
<path fill="none" stroke="#4d4d4d" d="M813,-302.58C813,-302.58 813,-252.03 813,-252.03"/>
<polygon fill="#4d4d4d" stroke="#4d4d4d" points="815.45,-252.03 813,-245.03 810.55,-252.03 815.45,-252.03"/>
</g>
<!-- C&#45;0783 -->
<g id="node26" class="node">
<title>C&#45;0783</title>
<ellipse fill="mediumseagreen" stroke="black" cx="1448" cy="-829.5" rx="72" ry="21.5"/>
<text text-anchor="middle" x="1448" y="-827" font-family="Arial" font-size="10.00">C&#45;0783</text>
</g>
<!-- C&#45;0783&#45;&gt;R&#45;173 -->
<g id="edge10" class="edge">
<title>C&#45;0783&#45;&gt;R&#45;173</title>
<path fill="none" stroke="#4d4d4d" d="M1457.5,-808.08C1457.5,-808.08 1457.5,-757.24 1457.5,-757.24"/>
<polygon fill="#4d4d4d" stroke="#4d4d4d" points="1459.95,-757.24 1457.5,-750.24 1455.05,-757.24 1459.95,-757.24"/>
</g>
<!-- C&#45;1182 -->
<g id="node27" class="node">
<title>C&#45;1182</title>
<ellipse fill="mediumseagreen" stroke="black" cx="908" cy="-829.5" rx="72" ry="21.5"/>
<text text-anchor="middle" x="908" y="-827" font-family="Arial" font-size="10.00">C&#45;1182</text>
</g>
<!-- R&#45;064 -->
<g id="node37" class="node">
<title>R&#45;064</title>
<polygon fill="mediumseagreen" stroke="black" points="1059,-719.59 1059,-737.41 1016.82,-750 957.18,-750 915,-737.41 915,-719.59 957.18,-707 1016.82,-707 1059,-719.59"/>
<text text-anchor="middle" x="987" y="-726" font-family="Arial" font-size="10.00">R&#45;064</text>
</g>
<!-- C&#45;1182&#45;&gt;R&#45;064 -->
<g id="edge13" class="edge">
<title>C&#45;1182&#45;&gt;R&#45;064</title>
<path fill="none" stroke="#4d4d4d" d="M947.5,-811.44C947.5,-811.44 947.5,-754.43 947.5,-754.43"/>
<polygon fill="#4d4d4d" stroke="#4d4d4d" points="949.95,-754.43 947.5,-747.43 945.05,-754.43 949.95,-754.43"/>
</g>
<!-- C&#45;1144&#45;&gt;ext_circ_303_26_ -->
<g id="edge52" class="edge">
<title>C&#45;1144&#45;&gt;ext_circ_303_26_</title>
<path fill="none" stroke="darkorange" stroke-dasharray="5,2" d="M453,-201.58C453,-201.58 453,-151.03 453,-151.03"/>
<polygon fill="darkorange" stroke="darkorange" points="455.45,-151.03 453,-144.03 450.55,-151.03 455.45,-151.03"/>
</g>
<!-- 304&#45;25&#45; -->
<g id="node29" class="node">
<title>304&#45;25&#45;</title>
<polygon fill="gold" stroke="black" points="1848,-1329.59 1848,-1347.41 1805.82,-1360 1746.18,-1360 1704,-1347.41 1704,-1329.59 1746.18,-1317 1805.82,-1317 1848,-1329.59"/>
<polygon fill="none" stroke="black" points="1852,-1326.61 1852,-1350.39 1806.41,-1364 1745.59,-1364 1700,-1350.39 1700,-1326.61 1745.59,-1313 1806.41,-1313 1852,-1326.61"/>
<text text-anchor="middle" x="1776" y="-1336" font-family="Arial" font-size="10.00">304&#45;25&#45;</text>
</g>
<!-- 304&#45;25&#45;&#45;&gt;S&#45;537 -->
<g id="edge1" class="edge">
<title>304&#45;25&#45;&#45;&gt;S&#45;537</title>
<path fill="none" stroke="#4d4d4d" d="M1776,-1312.81C1776,-1312.81 1776,-1262.03 1776,-1262.03"/>
<polygon fill="#4d4d4d" stroke="#4d4d4d" points="1778.45,-1262.03 1776,-1255.03 1773.55,-1262.03 1778.45,-1262.03"/>
</g>
<!-- C&#45;0368&#45;&gt;C&#45;0370 -->
<g id="edge54" class="edge">
<title>C&#45;0368&#45;&gt;C&#45;0370</title>
<path fill="none" stroke="blue" stroke-dasharray="5,2" d="M854.91,-930C737.64,-930 518.5,-930 518.5,-930 518.5,-930 518.5,-753.38 518.5,-753.38"/>
<polygon fill="blue" stroke="blue" points="520.95,-753.38 518.5,-746.38 516.05,-753.38 520.95,-753.38"/>
</g>
<!-- S&#45;1809 -->
<g id="node38" class="node">
<title>S&#45;1809</title>
<polygon fill="mediumseagreen" stroke="black" points="786,-548 714,-526.5 786,-505 858,-526.5 786,-548"/>
<text text-anchor="middle" x="786" y="-524" font-family="Arial" font-size="10.00">S&#45;1809</text>
</g>
<!-- S&#45;1255&#45;&gt;S&#45;1809 -->
<g id="edge40" class="edge">
<title>S&#45;1255&#45;&gt;S&#45;1809</title>
<path fill="none" stroke="#4d4d4d" d="M852.5,-625.75C852.5,-625.75 852.5,-535.3 852.5,-535.3"/>
<polygon fill="#4d4d4d" stroke="#4d4d4d" points="854.95,-535.3 852.5,-528.3 850.05,-535.3 854.95,-535.3"/>
</g>
<!-- S&#45;541 -->
<g id="node32" class="node">
<title>S&#45;541</title>
<polygon fill="mediumseagreen" stroke="black" points="1326,-548 1254,-526.5 1326,-505 1398,-526.5 1326,-548"/>
<text text-anchor="middle" x="1326" y="-524" font-family="Arial" font-size="10.00">S&#45;541</text>
</g>
<!-- C&#45;0239 -->
<g id="node44" class="node">
<title>C&#45;0239</title>
<ellipse fill="tomato" stroke="black" cx="1326" cy="-425.5" rx="72" ry="21.5"/>
<text text-anchor="middle" x="1326" y="-423" font-family="Arial" font-size="10.00">C&#45;0239</text>
</g>
<!-- S&#45;541&#45;&gt;C&#45;0239 -->
<g id="edge31" class="edge">
<title>S&#45;541&#45;&gt;C&#45;0239</title>
<path fill="none" stroke="#4d4d4d" d="M1326,-504.58C1326,-504.58 1326,-454.03 1326,-454.03"/>
<polygon fill="#4d4d4d" stroke="#4d4d4d" points="1328.45,-454.03 1326,-447.03 1323.55,-454.03 1328.45,-454.03"/>
</g>
<!-- C&#45;1183&#45;&gt;C&#45;0219 -->
<g id="edge16" class="edge">
<title>C&#45;1183&#45;&gt;C&#45;0219</title>
<path fill="none" stroke="#4d4d4d" d="M1047,-616.25C1047,-589.82 1047,-526 1047,-526 1047,-526 1045.02,-526 1045.02,-526"/>
<polygon fill="#4d4d4d" stroke="#4d4d4d" points="1045.02,-523.55 1038.02,-526 1045.02,-528.45 1045.02,-523.55"/>
</g>
<!-- C&#45;1183&#45;&gt;S&#45;2243 -->
<g id="edge15" class="edge">
<title>C&#45;1183&#45;&gt;S&#45;2243</title>
<path fill="none" stroke="#4d4d4d" d="M1127.5,-606.57C1127.5,-606.57 1127.5,-549.75 1127.5,-549.75"/>
<polygon fill="#4d4d4d" stroke="#4d4d4d" points="1129.95,-549.75 1127.5,-542.75 1125.05,-549.75 1129.95,-549.75"/>
</g>
<!-- C&#45;1183&#45;&gt;S&#45;541 -->
<g id="edge30" class="edge">
<title>C&#45;1183&#45;&gt;S&#45;541</title>
<path fill="none" stroke="#4d4d4d" d="M1176.61,-620C1230.5,-620 1297,-620 1297,-620 1297,-620 1297,-546.5 1297,-546.5"/>
<polygon fill="#4d4d4d" stroke="#4d4d4d" points="1299.45,-546.5 1297,-539.5 1294.55,-546.5 1299.45,-546.5"/>
</g>
<!-- S&#45;1374 -->
<g id="node42" class="node">
<title>S&#45;1374</title>
<polygon fill="mediumseagreen" stroke="black" points="1702,-851 1630,-829.5 1702,-808 1774,-829.5 1702,-851"/>
<text text-anchor="middle" x="1702" y="-827" font-family="Arial" font-size="10.00">S&#45;1374</text>
</g>
<!-- S&#45;865&#45;&gt;S&#45;1374 -->
<g id="edge33" class="edge">
<title>S&#45;865&#45;&gt;S&#45;1374</title>
<path fill="none" stroke="#4d4d4d" d="M1693,-911.5C1693,-911.5 1693,-855.41 1693,-855.41"/>
<polygon fill="#4d4d4d" stroke="#4d4d4d" points="1695.45,-855.41 1693,-848.41 1690.55,-855.41 1695.45,-855.41"/>
</g>
<!-- R&#45;083&#45;&gt;ext_circ_303_26_ -->
<g id="edge55" class="edge">
<title>R&#45;083&#45;&gt;ext_circ_303_26_</title>
<path fill="none" stroke="darkorange" stroke-dasharray="5,2" d="M63.5,-403.67C63.5,-334.08 63.5,-122 63.5,-122 63.5,-122 373.65,-122 373.65,-122"/>
<polygon fill="darkorange" stroke="darkorange" points="373.65,-124.45 380.65,-122 373.65,-119.55 373.65,-124.45"/>
</g>
<!-- C&#45;0825&#45;&gt;S&#45;1293 -->
<g id="edge7" class="edge">
<title>C&#45;0825&#45;&gt;S&#45;1293</title>
<path fill="none" stroke="#4d4d4d" d="M1298.33,-909.08C1298.33,-909.08 1298.33,-848.99 1298.33,-848.99"/>
<polygon fill="#4d4d4d" stroke="#4d4d4d" points="1300.78,-848.99 1298.33,-841.99 1295.88,-848.99 1300.78,-848.99"/>
</g>
<!-- C&#45;0825&#45;&gt;C&#45;1184 -->
<g id="edge8" class="edge">
<title>C&#45;0825&#45;&gt;C&#45;1184</title>
<path fill="none" stroke="#4d4d4d" d="M1214.9,-930C1199.88,-930 1188.5,-930 1188.5,-930 1188.5,-930 1188.5,-829 1188.5,-829 1188.5,-829 1167.24,-829 1167.24,-829"/>
<polygon fill="#4d4d4d" stroke="#4d4d4d" points="1167.24,-826.55 1160.24,-829 1167.24,-831.45 1167.24,-826.55"/>
</g>
<!-- C&#45;0825&#45;&gt;C&#45;0782 -->
<g id="edge11" class="edge">
<title>C&#45;0825&#45;&gt;C&#45;0782</title>
<path fill="none" stroke="#4d4d4d" d="M1346.33,-918.28C1346.33,-903.33 1346.33,-880 1346.33,-880 1346.33,-880 1621,-880 1621,-880 1621,-880 1621,-745.91 1621,-745.91"/>
<polygon fill="#4d4d4d" stroke="#4d4d4d" points="1623.45,-745.91 1621,-738.91 1618.55,-745.91 1623.45,-745.91"/>
</g>
<!-- C&#45;0825&#45;&gt;C&#45;0783 -->
<g id="edge9" class="edge">
<title>C&#45;0825&#45;&gt;C&#45;0783</title>
<path fill="none" stroke="#4d4d4d" d="M1352.67,-921.49C1352.67,-896.65 1352.67,-829 1352.67,-829 1352.67,-829 1368.74,-829 1368.74,-829"/>
<polygon fill="#4d4d4d" stroke="#4d4d4d" points="1368.74,-831.45 1375.74,-829 1368.74,-826.55 1368.74,-831.45"/>
</g>
<!-- C&#45;0825&#45;&gt;C&#45;1182 -->
<g id="edge12" class="edge">
<title>C&#45;0825&#45;&gt;C&#45;1182</title>
<path fill="none" stroke="#4d4d4d" d="M1256.67,-910.85C1256.67,-891.55 1256.67,-865 1256.67,-865 1256.67,-865 917.5,-865 917.5,-865 917.5,-865 917.5,-857.97 917.5,-857.97"/>
<polygon fill="#4d4d4d" stroke="#4d4d4d" points="919.95,-857.97 917.5,-850.97 915.05,-857.97 919.95,-857.97"/>
</g>
<!-- R&#45;064&#45;&gt;C&#45;1183 -->
<g id="edge14" class="edge">
<title>R&#45;064&#45;&gt;C&#45;1183</title>
<path fill="none" stroke="#4d4d4d" d="M1048,-716.12C1048,-716.12 1048,-646.05 1048,-646.05"/>
<polygon fill="#4d4d4d" stroke="#4d4d4d" points="1050.45,-646.05 1048,-639.05 1045.55,-646.05 1050.45,-646.05"/>
</g>
<!-- R&#45;258&#45;&gt;ext_circ_304_24_ -->
<g id="edge47" class="edge">
<title>R&#45;258&#45;&gt;ext_circ_304_24_</title>
<path fill="none" stroke="darkorange" stroke-dasharray="5,2" d="M1883.76,-728C1847.28,-728 1810.67,-728 1810.67,-728 1810.67,-728 1810.67,-656.31 1810.67,-656.31"/>
<polygon fill="darkorange" stroke="darkorange" points="1813.12,-656.31 1810.67,-649.31 1808.22,-656.31 1813.12,-656.31"/>
</g>
<!-- C&#45;1143&#45;&gt;R&#45;289 -->
<g id="edge27" class="edge">
<title>C&#45;1143&#45;&gt;R&#45;289</title>
<path fill="none" stroke="#4d4d4d" d="M633,-302.58C633,-302.58 633,-252.03 633,-252.03"/>
<polygon fill="#4d4d4d" stroke="#4d4d4d" points="635.45,-252.03 633,-245.03 630.55,-252.03 635.45,-252.03"/>
</g>
<!-- ext_circ_304_27_ -->
<g id="node50" class="node">
<title>ext_circ_304_27_</title>
<polygon fill="lightpink" stroke="darkorange" stroke-dasharray="5,2" points="1398,-346 1254,-346 1254,-303 1398,-303 1398,-346"/>
<text text-anchor="middle" x="1326" y="-327.5" font-family="Arial" font-size="10.00">Circuito:</text>
<text text-anchor="middle" x="1326" y="-316.5" font-family="Arial" font-size="10.00">304&#45;27&#45;</text>
</g>
<!-- C&#45;0239&#45;&gt;ext_circ_304_27_ -->
<g id="edge53" class="edge">
<title>C&#45;0239&#45;&gt;ext_circ_304_27_</title>
<path fill="none" stroke="darkorange" stroke-dasharray="5,2" d="M1326,-403.58C1326,-403.58 1326,-353.03 1326,-353.03"/>
<polygon fill="darkorange" stroke="darkorange" points="1328.45,-353.03 1326,-346.03 1323.55,-353.03 1328.45,-353.03"/>
</g>
<!-- R&#45;123&#45;&gt;C&#45;0370 -->
<g id="edge37" class="edge">
<title>R&#45;123&#45;&gt;C&#45;0370</title>
<path fill="none" stroke="#4d4d4d" d="M590.5,-808.08C590.5,-808.08 590.5,-754.84 590.5,-754.84"/>
<polygon fill="#4d4d4d" stroke="#4d4d4d" points="592.95,-754.84 590.5,-747.84 588.05,-754.84 592.95,-754.84"/>
</g>
</g>
</svg>
