<?xml version="1.0" encoding="UTF-8" standalone="no"?>
<!DOCTYPE svg PUBLIC "-//W3C//DTD SVG 1.1//EN"
 "http://www.w3.org/Graphics/SVG/1.1/DTD/svg11.dtd">
<!-- Generated by graphviz version 2.50.0 (0)
 -->
<!-- Title: Grafo_Circuito_112_22_ Pages: 1 -->
<svg width="2144pt" height="1368pt"
 viewBox="0.00 0.00 2144.00 1368.00" xmlns="http://www.w3.org/2000/svg" xmlns:xlink="http://www.w3.org/1999/xlink">
<g id="graph0" class="graph" transform="scale(1 1) rotate(0) translate(4 1364)">
<title>Grafo_Circuito_112_22_</title>
<polygon fill="white" stroke="transparent" points="-4,4 -4,-1364 2140,-1364 2140,4 -4,4"/>
<!-- S&#45;2434 -->
<g id="node1" class="node">
<title>S&#45;2434</title>
<polygon fill="mediumseagreen" stroke="black" points="683.5,-788 615,-770 683.5,-752 752,-770 683.5,-788"/>
<text text-anchor="middle" x="683.5" y="-768.1" font-family="Helvetica,sans-Serif" font-size="8.00">S&#45;2434</text>
</g>
<!-- S&#45;2553 -->
<g id="node2" class="node">
<title>S&#45;2553</title>
<polygon fill="mediumseagreen" stroke="black" points="856.5,-788 788,-770 856.5,-752 925,-770 856.5,-788"/>
<text text-anchor="middle" x="856.5" y="-768.1" font-family="Helvetica,sans-Serif" font-size="8.00">S&#45;2553</text>
</g>
<!-- C&#45;0471 -->
<g id="node41" class="node">
<title>C&#45;0471</title>
<ellipse fill="mediumseagreen" stroke="black" cx="856.5" cy="-676" rx="68.5" ry="18"/>
<text text-anchor="middle" x="856.5" y="-674.1" font-family="Helvetica,sans-Serif" font-size="8.00">C&#45;0471</text>
</g>
<!-- S&#45;2553&#45;&gt;C&#45;0471 -->
<g id="edge13" class="edge">
<title>S&#45;2553&#45;&gt;C&#45;0471</title>
<path fill="none" stroke="dimgray" stroke-width="0.8" d="M856.5,-751.88C856.5,-751.88 856.5,-701.07 856.5,-701.07"/>
<polygon fill="dimgray" stroke="dimgray" stroke-width="0.8" points="858.95,-701.07 856.5,-694.07 854.05,-701.07 858.95,-701.07"/>
</g>
<!-- S&#45;2131 -->
<g id="node3" class="node">
<title>S&#45;2131</title>
<polygon fill="mediumseagreen" stroke="black" points="1029.5,-788 961,-770 1029.5,-752 1098,-770 1029.5,-788"/>
<text text-anchor="middle" x="1029.5" y="-768.1" font-family="Helvetica,sans-Serif" font-size="8.00">S&#45;2131</text>
</g>
<!-- R&#45;141 -->
<g id="node4" class="node">
<title>R&#45;141</title>
<polygon fill="mediumseagreen" stroke="black" points="569,-292.54 569,-307.46 528.87,-318 472.13,-318 432,-307.46 432,-292.54 472.13,-282 528.87,-282 569,-292.54"/>
<text text-anchor="middle" x="500.5" y="-298.1" font-family="Helvetica,sans-Serif" font-size="8.00">R&#45;141</text>
</g>
<!-- C&#45;0417 -->
<g id="node8" class="node">
<title>C&#45;0417</title>
<ellipse fill="mediumseagreen" stroke="black" cx="500.5" cy="-206" rx="68.5" ry="18"/>
<text text-anchor="middle" x="500.5" y="-204.1" font-family="Helvetica,sans-Serif" font-size="8.00">C&#45;0417</text>
</g>
<!-- R&#45;141&#45;&gt;C&#45;0417 -->
<g id="edge25" class="edge">
<title>R&#45;141&#45;&gt;C&#45;0417</title>
<path fill="none" stroke="dimgray" stroke-width="0.8" d="M500.5,-281.88C500.5,-281.88 500.5,-231.07 500.5,-231.07"/>
<polygon fill="dimgray" stroke="dimgray" stroke-width="0.8" points="502.95,-231.07 500.5,-224.07 498.05,-231.07 502.95,-231.07"/>
</g>
<!-- C&#45;1248 -->
<g id="node5" class="node">
<title>C&#45;1248</title>
<ellipse fill="mediumseagreen" stroke="black" cx="1418.5" cy="-1146" rx="68.5" ry="18"/>
<text text-anchor="middle" x="1418.5" y="-1144.1" font-family="Helvetica,sans-Serif" font-size="8.00">C&#45;1248</text>
</g>
<!-- C&#45;0917 -->
<g id="node13" class="node">
<title>C&#45;0917</title>
<ellipse fill="mediumseagreen" stroke="black" cx="1375.5" cy="-1052" rx="68.5" ry="18"/>
<text text-anchor="middle" x="1375.5" y="-1050.1" font-family="Helvetica,sans-Serif" font-size="8.00">C&#45;0917</text>
</g>
<!-- C&#45;1248&#45;&gt;C&#45;0917 -->
<g id="edge4" class="edge">
<title>C&#45;1248&#45;&gt;C&#45;0917</title>
<path fill="none" stroke="dimgray" stroke-width="0.8" d="M1397,-1128.76C1397,-1128.76 1397,-1076.13 1397,-1076.13"/>
<polygon fill="dimgray" stroke="dimgray" stroke-width="0.8" points="1399.45,-1076.13 1397,-1069.13 1394.55,-1076.13 1399.45,-1076.13"/>
</g>
<!-- C&#45;0918 -->
<g id="node15" class="node">
<title>C&#45;0918</title>
<ellipse fill="tomato" stroke="black" cx="1548.5" cy="-1052" rx="68.5" ry="18"/>
<text text-anchor="middle" x="1548.5" y="-1050.1" font-family="Helvetica,sans-Serif" font-size="8.00">C&#45;0918</text>
</g>
<!-- C&#45;1248&#45;&gt;C&#45;0918 -->
<g id="edge3" class="edge">
<title>C&#45;1248&#45;&gt;C&#45;0918</title>
<path fill="none" stroke="dimgray" stroke-width="0.8" d="M1483.5,-1140.12C1483.5,-1140.12 1483.5,-1064.88 1483.5,-1064.88"/>
<polygon fill="dimgray" stroke="dimgray" stroke-width="0.8" points="1485.95,-1064.88 1483.5,-1057.88 1481.05,-1064.88 1485.95,-1064.88"/>
</g>
<!-- S&#45;1096 -->
<g id="node6" class="node">
<title>S&#45;1096</title>
<polygon fill="mediumseagreen" stroke="black" points="748.5,-318 680,-300 748.5,-282 817,-300 748.5,-318"/>
<text text-anchor="middle" x="748.5" y="-298.1" font-family="Helvetica,sans-Serif" font-size="8.00">S&#45;1096</text>
</g>
<!-- S&#45;178 -->
<g id="node28" class="node">
<title>S&#45;178</title>
<polygon fill="mediumseagreen" stroke="black" points="748.5,-224 680,-206 748.5,-188 817,-206 748.5,-224"/>
<text text-anchor="middle" x="748.5" y="-204.1" font-family="Helvetica,sans-Serif" font-size="8.00">S&#45;178</text>
</g>
<!-- S&#45;1096&#45;&gt;S&#45;178 -->
<g id="edge36" class="edge">
<title>S&#45;1096&#45;&gt;S&#45;178</title>
<path fill="none" stroke="dimgray" stroke-width="0.8" d="M748.5,-281.88C748.5,-281.88 748.5,-231.07 748.5,-231.07"/>
<polygon fill="dimgray" stroke="dimgray" stroke-width="0.8" points="750.95,-231.07 748.5,-224.07 746.05,-231.07 750.95,-231.07"/>
</g>
<!-- S&#45;179 -->
<g id="node54" class="node">
<title>S&#45;179</title>
<polygon fill="mediumseagreen" stroke="black" points="921.5,-224 853,-206 921.5,-188 990,-206 921.5,-224"/>
<text text-anchor="middle" x="921.5" y="-204.1" font-family="Helvetica,sans-Serif" font-size="8.00">S&#45;179</text>
</g>
<!-- S&#45;1096&#45;&gt;S&#45;179 -->
<g id="edge35" class="edge">
<title>S&#45;1096&#45;&gt;S&#45;179</title>
<path fill="none" stroke="dimgray" stroke-width="0.8" d="M794.33,-294C810.62,-294 825,-294 825,-294 825,-294 825,-206 825,-206 825,-206 845.91,-206 845.91,-206"/>
<polygon fill="dimgray" stroke="dimgray" stroke-width="0.8" points="845.91,-208.45 852.91,-206 845.91,-203.55 845.91,-208.45"/>
</g>
<!-- S&#45;2552 -->
<g id="node7" class="node">
<title>S&#45;2552</title>
<polygon fill="mediumseagreen" stroke="black" points="1202.5,-788 1134,-770 1202.5,-752 1271,-770 1202.5,-788"/>
<text text-anchor="middle" x="1202.5" y="-768.1" font-family="Helvetica,sans-Serif" font-size="8.00">S&#45;2552</text>
</g>
<!-- S&#45;224 -->
<g id="node11" class="node">
<title>S&#45;224</title>
<polygon fill="mediumseagreen" stroke="black" points="68.5,-130 0,-112 68.5,-94 137,-112 68.5,-130"/>
<text text-anchor="middle" x="68.5" y="-110.1" font-family="Helvetica,sans-Serif" font-size="8.00">S&#45;224</text>
</g>
<!-- C&#45;0417&#45;&gt;S&#45;224 -->
<g id="edge27" class="edge">
<title>C&#45;0417&#45;&gt;S&#45;224</title>
<path fill="none" stroke="dimgray" stroke-width="0.8" d="M435.83,-212C315.31,-212 68.5,-212 68.5,-212 68.5,-212 68.5,-137.34 68.5,-137.34"/>
<polygon fill="dimgray" stroke="dimgray" stroke-width="0.8" points="70.95,-137.34 68.5,-130.34 66.05,-137.34 70.95,-137.34"/>
</g>
<!-- S&#45;1936 -->
<g id="node23" class="node">
<title>S&#45;1936</title>
<polygon fill="mediumseagreen" stroke="black" points="241.5,-130 173,-112 241.5,-94 310,-112 241.5,-130"/>
<text text-anchor="middle" x="241.5" y="-110.1" font-family="Helvetica,sans-Serif" font-size="8.00">S&#45;1936</text>
</g>
<!-- C&#45;0417&#45;&gt;S&#45;1936 -->
<g id="edge30" class="edge">
<title>C&#45;0417&#45;&gt;S&#45;1936</title>
<path fill="none" stroke="dimgray" stroke-width="0.8" d="M435.81,-200C359.1,-200 241.5,-200 241.5,-200 241.5,-200 241.5,-137.23 241.5,-137.23"/>
<polygon fill="dimgray" stroke="dimgray" stroke-width="0.8" points="243.95,-137.23 241.5,-130.23 239.05,-137.23 243.95,-137.23"/>
</g>
<!-- S&#45;2406 -->
<g id="node42" class="node">
<title>S&#45;2406</title>
<polygon fill="mediumseagreen" stroke="black" points="414.5,-130 346,-112 414.5,-94 483,-112 414.5,-130"/>
<text text-anchor="middle" x="414.5" y="-110.1" font-family="Helvetica,sans-Serif" font-size="8.00">S&#45;2406</text>
</g>
<!-- C&#45;0417&#45;&gt;S&#45;2406 -->
<g id="edge29" class="edge">
<title>C&#45;0417&#45;&gt;S&#45;2406</title>
<path fill="none" stroke="dimgray" stroke-width="0.8" d="M457.5,-191.72C457.5,-191.72 457.5,-125.83 457.5,-125.83"/>
<polygon fill="dimgray" stroke="dimgray" stroke-width="0.8" points="459.95,-125.83 457.5,-118.83 455.05,-125.83 459.95,-125.83"/>
</g>
<!-- C&#45;0874 -->
<g id="node43" class="node">
<title>C&#45;0874</title>
<ellipse fill="mediumseagreen" stroke="black" cx="587.5" cy="-112" rx="68.5" ry="18"/>
<text text-anchor="middle" x="587.5" y="-110.1" font-family="Helvetica,sans-Serif" font-size="8.00">C&#45;0874</text>
</g>
<!-- C&#45;0417&#45;&gt;C&#45;0874 -->
<g id="edge32" class="edge">
<title>C&#45;0417&#45;&gt;C&#45;0874</title>
<path fill="none" stroke="dimgray" stroke-width="0.8" d="M535.67,-190.48C535.67,-190.48 535.67,-130.96 535.67,-130.96"/>
<polygon fill="dimgray" stroke="dimgray" stroke-width="0.8" points="538.12,-130.96 535.67,-123.96 533.22,-130.96 538.12,-130.96"/>
</g>
<!-- S&#45;2400 -->
<g id="node46" class="node">
<title>S&#45;2400</title>
<polygon fill="mediumseagreen" stroke="black" points="760.5,-130 692,-112 760.5,-94 829,-112 760.5,-130"/>
<text text-anchor="middle" x="760.5" y="-110.1" font-family="Helvetica,sans-Serif" font-size="8.00">S&#45;2400</text>
</g>
<!-- C&#45;0417&#45;&gt;S&#45;2400 -->
<g id="edge26" class="edge">
<title>C&#45;0417&#45;&gt;S&#45;2400</title>
<path fill="none" stroke="dimgray" stroke-width="0.8" d="M569.11,-206C615.37,-206 668,-206 668,-206 668,-206 668,-112 668,-112 668,-112 684.82,-112 684.82,-112"/>
<polygon fill="dimgray" stroke="dimgray" stroke-width="0.8" points="684.82,-114.45 691.82,-112 684.82,-109.55 684.82,-114.45"/>
</g>
<!-- C&#45;0873 -->
<g id="node58" class="node">
<title>C&#45;0873</title>
<ellipse fill="tomato" stroke="black" cx="933.5" cy="-112" rx="68.5" ry="18"/>
<text text-anchor="middle" x="933.5" y="-110.1" font-family="Helvetica,sans-Serif" font-size="8.00">C&#45;0873</text>
</g>
<!-- C&#45;0417&#45;&gt;C&#45;0873 -->
<g id="edge31" class="edge">
<title>C&#45;0417&#45;&gt;C&#45;0873</title>
<path fill="none" stroke="dimgray" stroke-width="0.8" d="M552.33,-194.14C552.33,-180.22 552.33,-159 552.33,-159 552.33,-159 927.5,-159 927.5,-159 927.5,-159 927.5,-137.04 927.5,-137.04"/>
<polygon fill="dimgray" stroke="dimgray" stroke-width="0.8" points="929.95,-137.04 927.5,-130.04 925.05,-137.04 929.95,-137.04"/>
</g>
<!-- S&#45;2270 -->
<g id="node9" class="node">
<title>S&#45;2270</title>
<polygon fill="mediumseagreen" stroke="black" points="2045.5,-412 1977,-394 2045.5,-376 2114,-394 2045.5,-412"/>
<text text-anchor="middle" x="2045.5" y="-392.1" font-family="Helvetica,sans-Serif" font-size="8.00">S&#45;2270</text>
</g>
<!-- S&#45;009 -->
<g id="node10" class="node">
<title>S&#45;009</title>
<polygon fill="mediumseagreen" stroke="black" points="1872.5,-600 1804,-582 1872.5,-564 1941,-582 1872.5,-600"/>
<text text-anchor="middle" x="1872.5" y="-580.1" font-family="Helvetica,sans-Serif" font-size="8.00">S&#45;009</text>
</g>
<!-- S&#45;010 -->
<g id="node16" class="node">
<title>S&#45;010</title>
<polygon fill="mediumseagreen" stroke="black" points="1872.5,-506 1804,-488 1872.5,-470 1941,-488 1872.5,-506"/>
<text text-anchor="middle" x="1872.5" y="-486.1" font-family="Helvetica,sans-Serif" font-size="8.00">S&#45;010</text>
</g>
<!-- S&#45;009&#45;&gt;S&#45;010 -->
<g id="edge45" class="edge">
<title>S&#45;009&#45;&gt;S&#45;010</title>
<path fill="none" stroke="dimgray" stroke-width="0.8" d="M1872.5,-563.88C1872.5,-563.88 1872.5,-513.07 1872.5,-513.07"/>
<polygon fill="dimgray" stroke="dimgray" stroke-width="0.8" points="1874.95,-513.07 1872.5,-506.07 1870.05,-513.07 1874.95,-513.07"/>
</g>
<!-- S&#45;2195 -->
<g id="node19" class="node">
<title>S&#45;2195</title>
<polygon fill="mediumseagreen" stroke="black" points="2045.5,-506 1977,-488 2045.5,-470 2114,-488 2045.5,-506"/>
<text text-anchor="middle" x="2045.5" y="-486.1" font-family="Helvetica,sans-Serif" font-size="8.00">S&#45;2195</text>
</g>
<!-- S&#45;009&#45;&gt;S&#45;2195 -->
<g id="edge46" class="edge">
<title>S&#45;009&#45;&gt;S&#45;2195</title>
<path fill="none" stroke="dimgray" stroke-width="0.8" d="M1941.02,-582C1965.89,-582 1988,-582 1988,-582 1988,-582 1988,-498.13 1988,-498.13"/>
<polygon fill="dimgray" stroke="dimgray" stroke-width="0.8" points="1990.45,-498.13 1988,-491.13 1985.55,-498.13 1990.45,-498.13"/>
</g>
<!-- S&#45;1645 -->
<g id="node26" class="node">
<title>S&#45;1645</title>
<polygon fill="mediumseagreen" stroke="black" points="68.5,-36 0,-18 68.5,0 137,-18 68.5,-36"/>
<text text-anchor="middle" x="68.5" y="-16.1" font-family="Helvetica,sans-Serif" font-size="8.00">S&#45;1645</text>
</g>
<!-- S&#45;224&#45;&gt;S&#45;1645 -->
<g id="edge28" class="edge">
<title>S&#45;224&#45;&gt;S&#45;1645</title>
<path fill="none" stroke="dimgray" stroke-width="0.8" d="M68.5,-93.88C68.5,-93.88 68.5,-43.07 68.5,-43.07"/>
<polygon fill="dimgray" stroke="dimgray" stroke-width="0.8" points="70.95,-43.07 68.5,-36.07 66.05,-43.07 70.95,-43.07"/>
</g>
<!-- S&#45;2548 -->
<g id="node12" class="node">
<title>S&#45;2548</title>
<polygon fill="mediumseagreen" stroke="black" points="1375.5,-788 1307,-770 1375.5,-752 1444,-770 1375.5,-788"/>
<text text-anchor="middle" x="1375.5" y="-768.1" font-family="Helvetica,sans-Serif" font-size="8.00">S&#45;2548</text>
</g>
<!-- R&#45;215 -->
<g id="node55" class="node">
<title>R&#45;215</title>
<polygon fill="mediumseagreen" stroke="black" points="1444,-950.54 1444,-965.46 1403.87,-976 1347.13,-976 1307,-965.46 1307,-950.54 1347.13,-940 1403.87,-940 1444,-950.54"/>
<text text-anchor="middle" x="1375.5" y="-956.1" font-family="Helvetica,sans-Serif" font-size="8.00">R&#45;215</text>
</g>
<!-- C&#45;0917&#45;&gt;R&#45;215 -->
<g id="edge5" class="edge">
<title>C&#45;0917&#45;&gt;R&#45;215</title>
<path fill="none" stroke="dimgray" stroke-width="0.8" d="M1375.5,-1033.88C1375.5,-1033.88 1375.5,-983.07 1375.5,-983.07"/>
<polygon fill="dimgray" stroke="dimgray" stroke-width="0.8" points="1377.95,-983.07 1375.5,-976.07 1373.05,-983.07 1377.95,-983.07"/>
</g>
<!-- S&#45;884 -->
<g id="node14" class="node">
<title>S&#45;884</title>
<polygon fill="tomato" stroke="black" points="1170.5,-1164 1102,-1146 1170.5,-1128 1239,-1146 1170.5,-1164"/>
<text text-anchor="middle" x="1170.5" y="-1144.1" font-family="Helvetica,sans-Serif" font-size="8.00">S&#45;884</text>
</g>
<!-- ext_circ_112_23_ -->
<g id="node60" class="node">
<title>ext_circ_112_23_</title>
<polygon fill="lightpink" stroke="red" stroke-dasharray="5,2" points="1281,-1356 1144,-1356 1144,-1320 1281,-1320 1281,-1356"/>
<text text-anchor="middle" x="1212.5" y="-1340.6" font-family="Helvetica,sans-Serif" font-size="8.00">Circuito:</text>
<text text-anchor="middle" x="1212.5" y="-1331.6" font-family="Helvetica,sans-Serif" font-size="8.00">112&#45;23&#45;</text>
</g>
<!-- S&#45;884&#45;&gt;ext_circ_112_23_ -->
<g id="edge62" class="edge">
<title>S&#45;884&#45;&gt;ext_circ_112_23_</title>
<path fill="none" stroke="red" stroke-width="0.8" stroke-dasharray="5,2" d="M1191.5,-1158.6C1191.5,-1158.6 1191.5,-1312.93 1191.5,-1312.93"/>
<polygon fill="red" stroke="red" stroke-width="0.8" points="1189.05,-1312.93 1191.5,-1319.93 1193.95,-1312.93 1189.05,-1312.93"/>
</g>
<!-- C&#45;0919 -->
<g id="node27" class="node">
<title>C&#45;0919</title>
<ellipse fill="mediumseagreen" stroke="black" cx="1375.5" cy="-864" rx="68.5" ry="18"/>
<text text-anchor="middle" x="1375.5" y="-862.1" font-family="Helvetica,sans-Serif" font-size="8.00">C&#45;0919</text>
</g>
<!-- C&#45;0918&#45;&gt;C&#45;0919 -->
<g id="edge58" class="edge">
<title>C&#45;0918&#45;&gt;C&#45;0919</title>
<path fill="none" stroke="blue" stroke-width="0.8" stroke-dasharray="5,2" d="M1525.67,-1034.8C1525.67,-990.52 1525.67,-876 1525.67,-876 1525.67,-876 1433.76,-876 1433.76,-876"/>
<polygon fill="blue" stroke="blue" stroke-width="0.8" points="1433.76,-873.55 1426.76,-876 1433.76,-878.45 1433.76,-873.55"/>
</g>
<!-- S&#45;2257 -->
<g id="node17" class="node">
<title>S&#45;2257</title>
<polygon fill="mediumseagreen" stroke="black" points="1094.5,-224 1026,-206 1094.5,-188 1163,-206 1094.5,-224"/>
<text text-anchor="middle" x="1094.5" y="-204.1" font-family="Helvetica,sans-Serif" font-size="8.00">S&#45;2257</text>
</g>
<!-- S&#45;2437 -->
<g id="node18" class="node">
<title>S&#45;2437</title>
<polygon fill="mediumseagreen" stroke="black" points="921.5,-318 853,-300 921.5,-282 990,-300 921.5,-318"/>
<text text-anchor="middle" x="921.5" y="-298.1" font-family="Helvetica,sans-Serif" font-size="8.00">S&#45;2437</text>
</g>
<!-- S&#45;2195&#45;&gt;S&#45;2270 -->
<g id="edge47" class="edge">
<title>S&#45;2195&#45;&gt;S&#45;2270</title>
<path fill="none" stroke="dimgray" stroke-width="0.8" d="M2045.5,-469.88C2045.5,-469.88 2045.5,-419.07 2045.5,-419.07"/>
<polygon fill="dimgray" stroke="dimgray" stroke-width="0.8" points="2047.95,-419.07 2045.5,-412.07 2043.05,-419.07 2047.95,-419.07"/>
</g>
<!-- S&#45;1514 -->
<g id="node20" class="node">
<title>S&#45;1514</title>
<polygon fill="mediumseagreen" stroke="black" points="1353.5,-506 1285,-488 1353.5,-470 1422,-488 1353.5,-506"/>
<text text-anchor="middle" x="1353.5" y="-486.1" font-family="Helvetica,sans-Serif" font-size="8.00">S&#45;1514</text>
</g>
<!-- S&#45;1937 -->
<g id="node25" class="node">
<title>S&#45;1937</title>
<polygon fill="mediumseagreen" stroke="black" points="1353.5,-412 1285,-394 1353.5,-376 1422,-394 1353.5,-412"/>
<text text-anchor="middle" x="1353.5" y="-392.1" font-family="Helvetica,sans-Serif" font-size="8.00">S&#45;1937</text>
</g>
<!-- S&#45;1514&#45;&gt;S&#45;1937 -->
<g id="edge52" class="edge">
<title>S&#45;1514&#45;&gt;S&#45;1937</title>
<path fill="none" stroke="dimgray" stroke-width="0.8" d="M1353.5,-469.88C1353.5,-469.88 1353.5,-419.07 1353.5,-419.07"/>
<polygon fill="dimgray" stroke="dimgray" stroke-width="0.8" points="1355.95,-419.07 1353.5,-412.07 1351.05,-419.07 1355.95,-419.07"/>
</g>
<!-- S&#45;887 -->
<g id="node21" class="node">
<title>S&#45;887</title>
<polygon fill="mediumseagreen" stroke="black" points="1267.5,-318 1199,-300 1267.5,-282 1336,-300 1267.5,-318"/>
<text text-anchor="middle" x="1267.5" y="-298.1" font-family="Helvetica,sans-Serif" font-size="8.00">S&#45;887</text>
</g>
<!-- S&#45;887&#45;&gt;S&#45;2257 -->
<g id="edge19" class="edge">
<title>S&#45;887&#45;&gt;S&#45;2257</title>
<path fill="none" stroke="dimgray" stroke-width="0.8" d="M1198.92,-300C1188.42,-300 1181,-300 1181,-300 1181,-300 1181,-206 1181,-206 1181,-206 1170.08,-206 1170.08,-206"/>
<polygon fill="dimgray" stroke="dimgray" stroke-width="0.8" points="1170.08,-203.55 1163.08,-206 1170.08,-208.45 1170.08,-203.55"/>
</g>
<!-- S&#45;2364 -->
<g id="node22" class="node">
<title>S&#45;2364</title>
<polygon fill="mediumseagreen" stroke="black" points="1267.5,-224 1199,-206 1267.5,-188 1336,-206 1267.5,-224"/>
<text text-anchor="middle" x="1267.5" y="-204.1" font-family="Helvetica,sans-Serif" font-size="8.00">S&#45;2364</text>
</g>
<!-- S&#45;887&#45;&gt;S&#45;2364 -->
<g id="edge20" class="edge">
<title>S&#45;887&#45;&gt;S&#45;2364</title>
<path fill="none" stroke="dimgray" stroke-width="0.8" d="M1267.5,-281.88C1267.5,-281.88 1267.5,-231.07 1267.5,-231.07"/>
<polygon fill="dimgray" stroke="dimgray" stroke-width="0.8" points="1269.95,-231.07 1267.5,-224.07 1265.05,-231.07 1269.95,-231.07"/>
</g>
<!-- S&#45;2297 -->
<g id="node40" class="node">
<title>S&#45;2297</title>
<polygon fill="mediumseagreen" stroke="black" points="1440.5,-224 1372,-206 1440.5,-188 1509,-206 1440.5,-224"/>
<text text-anchor="middle" x="1440.5" y="-204.1" font-family="Helvetica,sans-Serif" font-size="8.00">S&#45;2297</text>
</g>
<!-- S&#45;887&#45;&gt;S&#45;2297 -->
<g id="edge18" class="edge">
<title>S&#45;887&#45;&gt;S&#45;2297</title>
<path fill="none" stroke="dimgray" stroke-width="0.8" d="M1336.04,-300C1367.1,-300 1397,-300 1397,-300 1397,-300 1397,-219.76 1397,-219.76"/>
<polygon fill="dimgray" stroke="dimgray" stroke-width="0.8" points="1399.45,-219.76 1397,-212.76 1394.55,-219.76 1399.45,-219.76"/>
</g>
<!-- R&#45;028 -->
<g id="node24" class="node">
<title>R&#45;028</title>
<polygon fill="mediumseagreen" stroke="black" points="1617,-762.54 1617,-777.46 1576.87,-788 1520.13,-788 1480,-777.46 1480,-762.54 1520.13,-752 1576.87,-752 1617,-762.54"/>
<text text-anchor="middle" x="1548.5" y="-768.1" font-family="Helvetica,sans-Serif" font-size="8.00">R&#45;028</text>
</g>
<!-- S&#45;1689 -->
<g id="node29" class="node">
<title>S&#45;1689</title>
<polygon fill="mediumseagreen" stroke="black" points="1537.5,-694 1469,-676 1537.5,-658 1606,-676 1537.5,-694"/>
<text text-anchor="middle" x="1537.5" y="-674.1" font-family="Helvetica,sans-Serif" font-size="8.00">S&#45;1689</text>
</g>
<!-- R&#45;028&#45;&gt;S&#45;1689 -->
<g id="edge48" class="edge">
<title>R&#45;028&#45;&gt;S&#45;1689</title>
<path fill="none" stroke="dimgray" stroke-width="0.8" d="M1543,-751.88C1543,-751.88 1543,-699.81 1543,-699.81"/>
<polygon fill="dimgray" stroke="dimgray" stroke-width="0.8" points="1545.45,-699.81 1543,-692.81 1540.55,-699.81 1545.45,-699.81"/>
</g>
<!-- S&#45;1198 -->
<g id="node38" class="node">
<title>S&#45;1198</title>
<polygon fill="mediumseagreen" stroke="black" points="1796.5,-694 1728,-676 1796.5,-658 1865,-676 1796.5,-694"/>
<text text-anchor="middle" x="1796.5" y="-674.1" font-family="Helvetica,sans-Serif" font-size="8.00">S&#45;1198</text>
</g>
<!-- R&#45;028&#45;&gt;S&#45;1198 -->
<g id="edge43" class="edge">
<title>R&#45;028&#45;&gt;S&#45;1198</title>
<path fill="none" stroke="dimgray" stroke-width="0.8" d="M1611.5,-760.99C1611.5,-737.46 1611.5,-676 1611.5,-676 1611.5,-676 1720.88,-676 1720.88,-676"/>
<polygon fill="dimgray" stroke="dimgray" stroke-width="0.8" points="1720.88,-678.45 1727.88,-676 1720.88,-673.55 1720.88,-678.45"/>
</g>
<!-- C&#45;0919&#45;&gt;S&#45;2434 -->
<g id="edge9" class="edge">
<title>C&#45;0919&#45;&gt;S&#45;2434</title>
<path fill="none" stroke="dimgray" stroke-width="0.8" d="M1318.28,-874C1152.49,-874 683.5,-874 683.5,-874 683.5,-874 683.5,-795.12 683.5,-795.12"/>
<polygon fill="dimgray" stroke="dimgray" stroke-width="0.8" points="685.95,-795.12 683.5,-788.12 681.05,-795.12 685.95,-795.12"/>
</g>
<!-- C&#45;0919&#45;&gt;S&#45;2553 -->
<g id="edge12" class="edge">
<title>C&#45;0919&#45;&gt;S&#45;2553</title>
<path fill="none" stroke="dimgray" stroke-width="0.8" d="M1307.92,-867C1167.36,-867 856.5,-867 856.5,-867 856.5,-867 856.5,-795.24 856.5,-795.24"/>
<polygon fill="dimgray" stroke="dimgray" stroke-width="0.8" points="858.95,-795.24 856.5,-788.24 854.05,-795.24 858.95,-795.24"/>
</g>
<!-- C&#45;0919&#45;&gt;S&#45;2131 -->
<g id="edge41" class="edge">
<title>C&#45;0919&#45;&gt;S&#45;2131</title>
<path fill="none" stroke="dimgray" stroke-width="0.8" d="M1308.38,-860C1207.76,-860 1029.5,-860 1029.5,-860 1029.5,-860 1029.5,-795.21 1029.5,-795.21"/>
<polygon fill="dimgray" stroke="dimgray" stroke-width="0.8" points="1031.95,-795.21 1029.5,-788.21 1027.05,-795.21 1031.95,-795.21"/>
</g>
<!-- C&#45;0919&#45;&gt;S&#45;2552 -->
<g id="edge11" class="edge">
<title>C&#45;0919&#45;&gt;S&#45;2552</title>
<path fill="none" stroke="dimgray" stroke-width="0.8" d="M1321.24,-853C1289.26,-853 1255,-853 1255,-853 1255,-853 1255,-781.46 1255,-781.46"/>
<polygon fill="dimgray" stroke="dimgray" stroke-width="0.8" points="1257.45,-781.46 1255,-774.46 1252.55,-781.46 1257.45,-781.46"/>
</g>
<!-- C&#45;0919&#45;&gt;S&#45;2548 -->
<g id="edge40" class="edge">
<title>C&#45;0919&#45;&gt;S&#45;2548</title>
<path fill="none" stroke="dimgray" stroke-width="0.8" d="M1375.5,-845.88C1375.5,-845.88 1375.5,-795.07 1375.5,-795.07"/>
<polygon fill="dimgray" stroke="dimgray" stroke-width="0.8" points="1377.95,-795.07 1375.5,-788.07 1373.05,-795.07 1377.95,-795.07"/>
</g>
<!-- C&#45;0919&#45;&gt;R&#45;028 -->
<g id="edge42" class="edge">
<title>C&#45;0919&#45;&gt;R&#45;028</title>
<path fill="none" stroke="dimgray" stroke-width="0.8" d="M1426.7,-852C1484.72,-852 1571.33,-852 1571.33,-852 1571.33,-852 1571.33,-795.2 1571.33,-795.2"/>
<polygon fill="dimgray" stroke="dimgray" stroke-width="0.8" points="1573.78,-795.2 1571.33,-788.2 1568.88,-795.2 1573.78,-795.2"/>
</g>
<!-- S&#45;2547 -->
<g id="node33" class="node">
<title>S&#45;2547</title>
<polygon fill="mediumseagreen" stroke="black" points="1721.5,-788 1653,-770 1721.5,-752 1790,-770 1721.5,-788"/>
<text text-anchor="middle" x="1721.5" y="-768.1" font-family="Helvetica,sans-Serif" font-size="8.00">S&#45;2547</text>
</g>
<!-- C&#45;0919&#45;&gt;S&#45;2547 -->
<g id="edge7" class="edge">
<title>C&#45;0919&#45;&gt;S&#45;2547</title>
<path fill="none" stroke="dimgray" stroke-width="0.8" d="M1440.17,-858C1540.32,-858 1721.5,-858 1721.5,-858 1721.5,-858 1721.5,-795.23 1721.5,-795.23"/>
<polygon fill="dimgray" stroke="dimgray" stroke-width="0.8" points="1723.95,-795.23 1721.5,-788.23 1719.05,-795.23 1723.95,-795.23"/>
</g>
<!-- S&#45;2549 -->
<g id="node48" class="node">
<title>S&#45;2549</title>
<polygon fill="mediumseagreen" stroke="black" points="1894.5,-788 1826,-770 1894.5,-752 1963,-770 1894.5,-788"/>
<text text-anchor="middle" x="1894.5" y="-768.1" font-family="Helvetica,sans-Serif" font-size="8.00">S&#45;2549</text>
</g>
<!-- C&#45;0919&#45;&gt;S&#45;2549 -->
<g id="edge8" class="edge">
<title>C&#45;0919&#45;&gt;S&#45;2549</title>
<path fill="none" stroke="dimgray" stroke-width="0.8" d="M1444.15,-864C1585.21,-864 1894.5,-864 1894.5,-864 1894.5,-864 1894.5,-795.12 1894.5,-795.12"/>
<polygon fill="dimgray" stroke="dimgray" stroke-width="0.8" points="1896.95,-795.12 1894.5,-788.12 1892.05,-795.12 1896.95,-795.12"/>
</g>
<!-- S&#45;2435 -->
<g id="node52" class="node">
<title>S&#45;2435</title>
<polygon fill="mediumseagreen" stroke="black" points="2067.5,-788 1999,-770 2067.5,-752 2136,-770 2067.5,-788"/>
<text text-anchor="middle" x="2067.5" y="-768.1" font-family="Helvetica,sans-Serif" font-size="8.00">S&#45;2435</text>
</g>
<!-- C&#45;0919&#45;&gt;S&#45;2435 -->
<g id="edge10" class="edge">
<title>C&#45;0919&#45;&gt;S&#45;2435</title>
<path fill="none" stroke="dimgray" stroke-width="0.8" d="M1440.29,-870C1612.32,-870 2067.5,-870 2067.5,-870 2067.5,-870 2067.5,-795.34 2067.5,-795.34"/>
<polygon fill="dimgray" stroke="dimgray" stroke-width="0.8" points="2069.95,-795.34 2067.5,-788.34 2065.05,-795.34 2069.95,-795.34"/>
</g>
<!-- C&#45;0831 -->
<g id="node31" class="node">
<title>C&#45;0831</title>
<ellipse fill="mediumseagreen" stroke="black" cx="1353.5" cy="-582" rx="68.5" ry="18"/>
<text text-anchor="middle" x="1353.5" y="-580.1" font-family="Helvetica,sans-Serif" font-size="8.00">C&#45;0831</text>
</g>
<!-- S&#45;1689&#45;&gt;C&#45;0831 -->
<g id="edge56" class="edge">
<title>S&#45;1689&#45;&gt;C&#45;0831</title>
<path fill="none" stroke="dimgray" stroke-width="0.8" d="M1468.63,-676C1420.38,-676 1364.5,-676 1364.5,-676 1364.5,-676 1364.5,-607.12 1364.5,-607.12"/>
<polygon fill="dimgray" stroke="dimgray" stroke-width="0.8" points="1366.95,-607.12 1364.5,-600.12 1362.05,-607.12 1366.95,-607.12"/>
</g>
<!-- S&#45;1201 -->
<g id="node47" class="node">
<title>S&#45;1201</title>
<polygon fill="mediumseagreen" stroke="black" points="1526.5,-600 1458,-582 1526.5,-564 1595,-582 1526.5,-600"/>
<text text-anchor="middle" x="1526.5" y="-580.1" font-family="Helvetica,sans-Serif" font-size="8.00">S&#45;1201</text>
</g>
<!-- S&#45;1689&#45;&gt;S&#45;1201 -->
<g id="edge50" class="edge">
<title>S&#45;1689&#45;&gt;S&#45;1201</title>
<path fill="none" stroke="dimgray" stroke-width="0.8" d="M1532,-659.19C1532,-659.19 1532,-605.66 1532,-605.66"/>
<polygon fill="dimgray" stroke="dimgray" stroke-width="0.8" points="1534.45,-605.66 1532,-598.66 1529.55,-605.66 1534.45,-605.66"/>
</g>
<!-- S&#45;2252 -->
<g id="node49" class="node">
<title>S&#45;2252</title>
<polygon fill="mediumseagreen" stroke="black" points="1699.5,-600 1631,-582 1699.5,-564 1768,-582 1699.5,-600"/>
<text text-anchor="middle" x="1699.5" y="-580.1" font-family="Helvetica,sans-Serif" font-size="8.00">S&#45;2252</text>
</g>
<!-- S&#45;1689&#45;&gt;S&#45;2252 -->
<g id="edge49" class="edge">
<title>S&#45;1689&#45;&gt;S&#45;2252</title>
<path fill="none" stroke="dimgray" stroke-width="0.8" d="M1602.33,-674.88C1602.33,-663.89 1602.33,-576 1602.33,-576 1602.33,-576 1646.76,-576 1646.76,-576"/>
<polygon fill="dimgray" stroke="dimgray" stroke-width="0.8" points="1646.76,-578.45 1653.76,-576 1646.76,-573.55 1646.76,-578.45"/>
</g>
<!-- S&#45;2401 -->
<g id="node30" class="node">
<title>S&#45;2401</title>
<polygon fill="tomato" stroke="black" points="683.5,-506 615,-488 683.5,-470 752,-488 683.5,-506"/>
<text text-anchor="middle" x="683.5" y="-486.1" font-family="Helvetica,sans-Serif" font-size="8.00">S&#45;2401</text>
</g>
<!-- S&#45;2401&#45;&gt;ext_circ_112_23_ -->
<g id="edge61" class="edge">
<title>S&#45;2401&#45;&gt;ext_circ_112_23_</title>
<path fill="none" stroke="red" stroke-width="0.8" stroke-dasharray="5,2" d="M752.08,-488C762.58,-488 770,-488 770,-488 770,-488 770,-1338 770,-1338 770,-1338 1136.84,-1338 1136.84,-1338"/>
<polygon fill="red" stroke="red" stroke-width="0.8" points="1136.84,-1340.45 1143.84,-1338 1136.84,-1335.55 1136.84,-1340.45"/>
</g>
<!-- S&#45;2402 -->
<g id="node32" class="node">
<title>S&#45;2402</title>
<polygon fill="mediumseagreen" stroke="black" points="1526.5,-506 1458,-488 1526.5,-470 1595,-488 1526.5,-506"/>
<text text-anchor="middle" x="1526.5" y="-486.1" font-family="Helvetica,sans-Serif" font-size="8.00">S&#45;2402</text>
</g>
<!-- 112&#45;22&#45; -->
<g id="node34" class="node">
<title>112&#45;22&#45;</title>
<polygon fill="gold" stroke="black" points="1468,-1330.54 1468,-1345.46 1427.87,-1356 1371.13,-1356 1331,-1345.46 1331,-1330.54 1371.13,-1320 1427.87,-1320 1468,-1330.54"/>
<polygon fill="none" stroke="black" points="1472,-1327.46 1472,-1348.54 1428.39,-1360 1370.61,-1360 1327,-1348.54 1327,-1327.46 1370.61,-1316 1428.39,-1316 1472,-1327.46"/>
<text text-anchor="middle" x="1399.5" y="-1336.1" font-family="Helvetica,sans-Serif" font-size="8.00">112&#45;22&#45;</text>
</g>
<!-- C&#45;0053 -->
<g id="node57" class="node">
<title>C&#45;0053</title>
<ellipse fill="mediumseagreen" stroke="black" cx="1399.5" cy="-1240" rx="68.5" ry="18"/>
<text text-anchor="middle" x="1399.5" y="-1238.1" font-family="Helvetica,sans-Serif" font-size="8.00">C&#45;0053</text>
</g>
<!-- 112&#45;22&#45;&#45;&gt;C&#45;0053 -->
<g id="edge1" class="edge">
<title>112&#45;22&#45;&#45;&gt;C&#45;0053</title>
<path fill="none" stroke="dimgray" stroke-width="0.8" d="M1399.5,-1315.76C1399.5,-1315.76 1399.5,-1265.21 1399.5,-1265.21"/>
<polygon fill="dimgray" stroke="dimgray" stroke-width="0.8" points="1401.95,-1265.21 1399.5,-1258.21 1397.05,-1265.21 1401.95,-1265.21"/>
</g>
<!-- C&#45;0416 -->
<g id="node35" class="node">
<title>C&#45;0416</title>
<ellipse fill="mediumseagreen" stroke="black" cx="538.5" cy="-394" rx="68.5" ry="18"/>
<text text-anchor="middle" x="538.5" y="-392.1" font-family="Helvetica,sans-Serif" font-size="8.00">C&#45;0416</text>
</g>
<!-- C&#45;0416&#45;&gt;R&#45;141 -->
<g id="edge24" class="edge">
<title>C&#45;0416&#45;&gt;R&#45;141</title>
<path fill="none" stroke="dimgray" stroke-width="0.8" d="M519.5,-376.32C519.5,-376.32 519.5,-325.24 519.5,-325.24"/>
<polygon fill="dimgray" stroke="dimgray" stroke-width="0.8" points="521.95,-325.24 519.5,-318.24 517.05,-325.24 521.95,-325.24"/>
</g>
<!-- S&#45;2436 -->
<g id="node36" class="node">
<title>S&#45;2436</title>
<polygon fill="mediumseagreen" stroke="black" points="1094.5,-318 1026,-300 1094.5,-282 1163,-300 1094.5,-318"/>
<text text-anchor="middle" x="1094.5" y="-298.1" font-family="Helvetica,sans-Serif" font-size="8.00">S&#45;2436</text>
</g>
<!-- C&#45;0261 -->
<g id="node37" class="node">
<title>C&#45;0261</title>
<ellipse fill="tomato" stroke="black" cx="748.5" cy="-394" rx="68.5" ry="18"/>
<text text-anchor="middle" x="748.5" y="-392.1" font-family="Helvetica,sans-Serif" font-size="8.00">C&#45;0261</text>
</g>
<!-- C&#45;0261&#45;&gt;S&#45;2400 -->
<g id="edge59" class="edge">
<title>C&#45;0261&#45;&gt;S&#45;2400</title>
<path fill="none" stroke="blue" stroke-width="0.8" stroke-dasharray="5,2" d="M813.24,-400C818.01,-400 821,-400 821,-400 821,-400 821,-121.15 821,-121.15"/>
<polygon fill="blue" stroke="blue" stroke-width="0.8" points="823.45,-121.15 821,-114.15 818.55,-121.15 823.45,-121.15"/>
</g>
<!-- S&#45;1198&#45;&gt;S&#45;009 -->
<g id="edge44" class="edge">
<title>S&#45;1198&#45;&gt;S&#45;009</title>
<path fill="none" stroke="dimgray" stroke-width="0.8" d="M1834.5,-667.66C1834.5,-667.66 1834.5,-597.19 1834.5,-597.19"/>
<polygon fill="dimgray" stroke="dimgray" stroke-width="0.8" points="1836.95,-597.19 1834.5,-590.19 1832.05,-597.19 1836.95,-597.19"/>
</g>
<!-- C&#45;0478 -->
<g id="node39" class="node">
<title>C&#45;0478</title>
<ellipse fill="mediumseagreen" stroke="black" cx="921.5" cy="-394" rx="68.5" ry="18"/>
<text text-anchor="middle" x="921.5" y="-392.1" font-family="Helvetica,sans-Serif" font-size="8.00">C&#45;0478</text>
</g>
<!-- C&#45;0478&#45;&gt;S&#45;1096 -->
<g id="edge34" class="edge">
<title>C&#45;0478&#45;&gt;S&#45;1096</title>
<path fill="none" stroke="dimgray" stroke-width="0.8" d="M856.9,-388C847.55,-388 841,-388 841,-388 841,-388 841,-306 841,-306 841,-306 801.21,-306 801.21,-306"/>
<polygon fill="dimgray" stroke="dimgray" stroke-width="0.8" points="801.21,-303.55 794.21,-306 801.21,-308.45 801.21,-303.55"/>
</g>
<!-- C&#45;0478&#45;&gt;S&#45;2437 -->
<g id="edge38" class="edge">
<title>C&#45;0478&#45;&gt;S&#45;2437</title>
<path fill="none" stroke="dimgray" stroke-width="0.8" d="M921.5,-375.88C921.5,-375.88 921.5,-325.07 921.5,-325.07"/>
<polygon fill="dimgray" stroke="dimgray" stroke-width="0.8" points="923.95,-325.07 921.5,-318.07 919.05,-325.07 923.95,-325.07"/>
</g>
<!-- C&#45;0478&#45;&gt;S&#45;2436 -->
<g id="edge37" class="edge">
<title>C&#45;0478&#45;&gt;S&#45;2436</title>
<path fill="none" stroke="dimgray" stroke-width="0.8" d="M990.15,-394C993.8,-394 996,-394 996,-394 996,-394 996,-300 996,-300 996,-300 1018.82,-300 1018.82,-300"/>
<polygon fill="dimgray" stroke="dimgray" stroke-width="0.8" points="1018.82,-302.45 1025.82,-300 1018.82,-297.55 1018.82,-302.45"/>
</g>
<!-- C&#45;0472 -->
<g id="node51" class="node">
<title>C&#45;0472</title>
<ellipse fill="mediumseagreen" stroke="black" cx="856.5" cy="-582" rx="68.5" ry="18"/>
<text text-anchor="middle" x="856.5" y="-580.1" font-family="Helvetica,sans-Serif" font-size="8.00">C&#45;0472</text>
</g>
<!-- C&#45;0471&#45;&gt;C&#45;0472 -->
<g id="edge14" class="edge">
<title>C&#45;0471&#45;&gt;C&#45;0472</title>
<path fill="none" stroke="dimgray" stroke-width="0.8" d="M856.5,-657.88C856.5,-657.88 856.5,-607.07 856.5,-607.07"/>
<polygon fill="dimgray" stroke="dimgray" stroke-width="0.8" points="858.95,-607.07 856.5,-600.07 854.05,-607.07 858.95,-607.07"/>
</g>
<!-- C&#45;0477 -->
<g id="node44" class="node">
<title>C&#45;0477</title>
<ellipse fill="mediumseagreen" stroke="black" cx="856.5" cy="-488" rx="68.5" ry="18"/>
<text text-anchor="middle" x="856.5" y="-486.1" font-family="Helvetica,sans-Serif" font-size="8.00">C&#45;0477</text>
</g>
<!-- C&#45;0477&#45;&gt;C&#45;0416 -->
<g id="edge23" class="edge">
<title>C&#45;0477&#45;&gt;C&#45;0416</title>
<path fill="none" stroke="dimgray" stroke-width="0.8" d="M797.67,-478.49C797.67,-464.76 797.67,-441 797.67,-441 797.67,-441 538.5,-441 538.5,-441 538.5,-441 538.5,-419.04 538.5,-419.04"/>
<polygon fill="dimgray" stroke="dimgray" stroke-width="0.8" points="540.95,-419.04 538.5,-412.04 536.05,-419.04 540.95,-419.04"/>
</g>
<!-- C&#45;0477&#45;&gt;C&#45;0261 -->
<g id="edge22" class="edge">
<title>C&#45;0477&#45;&gt;C&#45;0261</title>
<path fill="none" stroke="dimgray" stroke-width="0.8" d="M807.33,-475.32C807.33,-475.32 807.33,-410.36 807.33,-410.36"/>
<polygon fill="dimgray" stroke="dimgray" stroke-width="0.8" points="809.78,-410.36 807.33,-403.36 804.88,-410.36 809.78,-410.36"/>
</g>
<!-- C&#45;0477&#45;&gt;C&#45;0478 -->
<g id="edge33" class="edge">
<title>C&#45;0477&#45;&gt;C&#45;0478</title>
<path fill="none" stroke="dimgray" stroke-width="0.8" d="M889,-472.05C889,-472.05 889,-417.02 889,-417.02"/>
<polygon fill="dimgray" stroke="dimgray" stroke-width="0.8" points="891.45,-417.02 889,-410.02 886.55,-417.02 891.45,-417.02"/>
</g>
<!-- S&#45;2351 -->
<g id="node45" class="node">
<title>S&#45;2351</title>
<polygon fill="mediumseagreen" stroke="black" points="1094.5,-412 1026,-394 1094.5,-376 1163,-394 1094.5,-412"/>
<text text-anchor="middle" x="1094.5" y="-392.1" font-family="Helvetica,sans-Serif" font-size="8.00">S&#45;2351</text>
</g>
<!-- S&#45;2351&#45;&gt;S&#45;887 -->
<g id="edge17" class="edge">
<title>S&#45;2351&#45;&gt;S&#45;887</title>
<path fill="none" stroke="dimgray" stroke-width="0.8" d="M1163.1,-394C1198.77,-394 1235,-394 1235,-394 1235,-394 1235,-316.71 1235,-316.71"/>
<polygon fill="dimgray" stroke="dimgray" stroke-width="0.8" points="1237.45,-316.71 1235,-309.71 1232.55,-316.71 1237.45,-316.71"/>
</g>
<!-- S&#45;1201&#45;&gt;S&#45;1514 -->
<g id="edge51" class="edge">
<title>S&#45;1201&#45;&gt;S&#45;1514</title>
<path fill="none" stroke="dimgray" stroke-width="0.8" d="M1457.97,-582C1453.65,-582 1451,-582 1451,-582 1451,-582 1451,-488 1451,-488 1451,-488 1429.01,-488 1429.01,-488"/>
<polygon fill="dimgray" stroke="dimgray" stroke-width="0.8" points="1429.01,-485.55 1422.01,-488 1429.01,-490.45 1429.01,-485.55"/>
</g>
<!-- S&#45;1201&#45;&gt;S&#45;2402 -->
<g id="edge55" class="edge">
<title>S&#45;1201&#45;&gt;S&#45;2402</title>
<path fill="none" stroke="dimgray" stroke-width="0.8" d="M1526.5,-563.88C1526.5,-563.88 1526.5,-513.07 1526.5,-513.07"/>
<polygon fill="dimgray" stroke="dimgray" stroke-width="0.8" points="1528.95,-513.07 1526.5,-506.07 1524.05,-513.07 1528.95,-513.07"/>
</g>
<!-- S&#45;1796 -->
<g id="node56" class="node">
<title>S&#45;1796</title>
<polygon fill="mediumseagreen" stroke="black" points="1699.5,-506 1631,-488 1699.5,-470 1768,-488 1699.5,-506"/>
<text text-anchor="middle" x="1699.5" y="-486.1" font-family="Helvetica,sans-Serif" font-size="8.00">S&#45;1796</text>
</g>
<!-- S&#45;1201&#45;&gt;S&#45;1796 -->
<g id="edge53" class="edge">
<title>S&#45;1201&#45;&gt;S&#45;1796</title>
<path fill="none" stroke="dimgray" stroke-width="0.8" d="M1572.2,-588C1586.53,-588 1598.67,-588 1598.67,-588 1598.67,-588 1598.67,-488 1598.67,-488 1598.67,-488 1623.85,-488 1623.85,-488"/>
<polygon fill="dimgray" stroke="dimgray" stroke-width="0.8" points="1623.85,-490.45 1630.85,-488 1623.85,-485.55 1623.85,-490.45"/>
</g>
<!-- S&#45;2350 -->
<g id="node50" class="node">
<title>S&#45;2350</title>
<polygon fill="mediumseagreen" stroke="black" points="1072.5,-506 1004,-488 1072.5,-470 1141,-488 1072.5,-506"/>
<text text-anchor="middle" x="1072.5" y="-486.1" font-family="Helvetica,sans-Serif" font-size="8.00">S&#45;2350</text>
</g>
<!-- S&#45;2350&#45;&gt;S&#45;2351 -->
<g id="edge16" class="edge">
<title>S&#45;2350&#45;&gt;S&#45;2351</title>
<path fill="none" stroke="dimgray" stroke-width="0.8" d="M1083.5,-472.48C1083.5,-472.48 1083.5,-416.23 1083.5,-416.23"/>
<polygon fill="dimgray" stroke="dimgray" stroke-width="0.8" points="1085.95,-416.23 1083.5,-409.23 1081.05,-416.23 1085.95,-416.23"/>
</g>
<!-- C&#45;0472&#45;&gt;S&#45;2401 -->
<g id="edge39" class="edge">
<title>C&#45;0472&#45;&gt;S&#45;2401</title>
<path fill="none" stroke="dimgray" stroke-width="0.8" d="M787.63,-582C739.38,-582 683.5,-582 683.5,-582 683.5,-582 683.5,-513.12 683.5,-513.12"/>
<polygon fill="dimgray" stroke="dimgray" stroke-width="0.8" points="685.95,-513.12 683.5,-506.12 681.05,-513.12 685.95,-513.12"/>
</g>
<!-- C&#45;0472&#45;&gt;C&#45;0477 -->
<g id="edge21" class="edge">
<title>C&#45;0472&#45;&gt;C&#45;0477</title>
<path fill="none" stroke="dimgray" stroke-width="0.8" d="M856.5,-563.88C856.5,-563.88 856.5,-513.07 856.5,-513.07"/>
<polygon fill="dimgray" stroke="dimgray" stroke-width="0.8" points="858.95,-513.07 856.5,-506.07 854.05,-513.07 858.95,-513.07"/>
</g>
<!-- C&#45;0472&#45;&gt;S&#45;2350 -->
<g id="edge15" class="edge">
<title>C&#45;0472&#45;&gt;S&#45;2350</title>
<path fill="none" stroke="dimgray" stroke-width="0.8" d="M925.07,-582C981.07,-582 1051,-582 1051,-582 1051,-582 1051,-507.68 1051,-507.68"/>
<polygon fill="dimgray" stroke="dimgray" stroke-width="0.8" points="1053.45,-507.68 1051,-500.68 1048.55,-507.68 1053.45,-507.68"/>
</g>
<!-- S&#45;2414 -->
<g id="node53" class="node">
<title>S&#45;2414</title>
<polygon fill="mediumseagreen" stroke="black" points="1699.5,-412 1631,-394 1699.5,-376 1768,-394 1699.5,-412"/>
<text text-anchor="middle" x="1699.5" y="-392.1" font-family="Helvetica,sans-Serif" font-size="8.00">S&#45;2414</text>
</g>
<!-- R&#45;215&#45;&gt;C&#45;0919 -->
<g id="edge6" class="edge">
<title>R&#45;215&#45;&gt;C&#45;0919</title>
<path fill="none" stroke="dimgray" stroke-width="0.8" d="M1375.5,-939.88C1375.5,-939.88 1375.5,-889.07 1375.5,-889.07"/>
<polygon fill="dimgray" stroke="dimgray" stroke-width="0.8" points="1377.95,-889.07 1375.5,-882.07 1373.05,-889.07 1377.95,-889.07"/>
</g>
<!-- S&#45;1796&#45;&gt;S&#45;2414 -->
<g id="edge54" class="edge">
<title>S&#45;1796&#45;&gt;S&#45;2414</title>
<path fill="none" stroke="dimgray" stroke-width="0.8" d="M1699.5,-469.88C1699.5,-469.88 1699.5,-419.07 1699.5,-419.07"/>
<polygon fill="dimgray" stroke="dimgray" stroke-width="0.8" points="1701.95,-419.07 1699.5,-412.07 1697.05,-419.07 1701.95,-419.07"/>
</g>
<!-- C&#45;0053&#45;&gt;C&#45;1248 -->
<g id="edge2" class="edge">
<title>C&#45;0053&#45;&gt;C&#45;1248</title>
<path fill="none" stroke="dimgray" stroke-width="0.8" d="M1409,-1221.88C1409,-1221.88 1409,-1171.07 1409,-1171.07"/>
<polygon fill="dimgray" stroke="dimgray" stroke-width="0.8" points="1411.45,-1171.07 1409,-1164.07 1406.55,-1171.07 1411.45,-1171.07"/>
</g>
<!-- C&#45;0053&#45;&gt;S&#45;884 -->
<g id="edge57" class="edge">
<title>C&#45;0053&#45;&gt;S&#45;884</title>
<path fill="none" stroke="dimgray" stroke-width="0.8" d="M1340.5,-1230.64C1340.5,-1206.87 1340.5,-1146 1340.5,-1146 1340.5,-1146 1246.16,-1146 1246.16,-1146"/>
<polygon fill="dimgray" stroke="dimgray" stroke-width="0.8" points="1246.16,-1143.55 1239.16,-1146 1246.16,-1148.45 1246.16,-1143.55"/>
</g>
<!-- ext_circ_208_28_ -->
<g id="node59" class="node">
<title>ext_circ_208_28_</title>
<polygon fill="lightpink" stroke="red" stroke-dasharray="5,2" points="1645,-1356 1508,-1356 1508,-1320 1645,-1320 1645,-1356"/>
<text text-anchor="middle" x="1576.5" y="-1340.6" font-family="Helvetica,sans-Serif" font-size="8.00">Circuito:</text>
<text text-anchor="middle" x="1576.5" y="-1331.6" font-family="Helvetica,sans-Serif" font-size="8.00">208&#45;28&#45;</text>
</g>
<!-- C&#45;0873&#45;&gt;ext_circ_208_28_ -->
<g id="edge60" class="edge">
<title>C&#45;0873&#45;&gt;ext_circ_208_28_</title>
<path fill="none" stroke="red" stroke-width="0.8" stroke-dasharray="5,2" d="M1002.23,-112C1176.89,-112 1624,-112 1624,-112 1624,-112 1624,-1312.72 1624,-1312.72"/>
<polygon fill="red" stroke="red" stroke-width="0.8" points="1621.55,-1312.72 1624,-1319.72 1626.45,-1312.72 1621.55,-1312.72"/>
</g>
</g>
</svg>
