<?xml version="1.0" encoding="UTF-8" standalone="no"?>
<!DOCTYPE svg PUBLIC "-//W3C//DTD SVG 1.1//EN"
 "http://www.w3.org/Graphics/SVG/1.1/DTD/svg11.dtd">
<!-- Generated by graphviz version 2.50.0 (0)
 -->
<!-- Title: Grafo_Circuito_205_22_ Pages: 1 -->
<svg width="2296pt" height="1574pt"
 viewBox="0.00 0.00 2296.00 1574.00" xmlns="http://www.w3.org/2000/svg" xmlns:xlink="http://www.w3.org/1999/xlink">
<g id="graph0" class="graph" transform="scale(1 1) rotate(0) translate(4 1570)">
<title>Grafo_Circuito_205_22_</title>
<polygon fill="white" stroke="transparent" points="-4,4 -4,-1570 2292,-1570 2292,4 -4,4"/>
<!-- C&#45;0298 -->
<g id="node1" class="node">
<title>C&#45;0298</title>
<ellipse fill="mediumseagreen" stroke="black" cx="657" cy="-1031.5" rx="72" ry="21.5"/>
<text text-anchor="middle" x="657" y="-1029" font-family="Arial" font-size="10.00">C&#45;0298</text>
</g>
<!-- C&#45;0846 -->
<g id="node15" class="node">
<title>C&#45;0846</title>
<ellipse fill="tomato" stroke="black" cx="387" cy="-930.5" rx="72" ry="21.5"/>
<text text-anchor="middle" x="387" y="-928" font-family="Arial" font-size="10.00">C&#45;0846</text>
</g>
<!-- C&#45;0298&#45;&gt;C&#45;0846 -->
<g id="edge42" class="edge">
<title>C&#45;0298&#45;&gt;C&#45;0846</title>
<path fill="none" stroke="#4d4d4d" d="M585,-1031C505.02,-1031 387,-1031 387,-1031 387,-1031 387,-959.31 387,-959.31"/>
<polygon fill="#4d4d4d" stroke="#4d4d4d" points="389.45,-959.31 387,-952.31 384.55,-959.31 389.45,-959.31"/>
</g>
<!-- C&#45;0845 -->
<g id="node41" class="node">
<title>C&#45;0845</title>
<ellipse fill="mediumseagreen" stroke="black" cx="567" cy="-930.5" rx="72" ry="21.5"/>
<text text-anchor="middle" x="567" y="-928" font-family="Arial" font-size="10.00">C&#45;0845</text>
</g>
<!-- C&#45;0298&#45;&gt;C&#45;0845 -->
<g id="edge41" class="edge">
<title>C&#45;0298&#45;&gt;C&#45;0845</title>
<path fill="none" stroke="#4d4d4d" d="M612,-1014.37C612,-1014.37 612,-954.38 612,-954.38"/>
<polygon fill="#4d4d4d" stroke="#4d4d4d" points="614.45,-954.38 612,-947.38 609.55,-954.38 614.45,-954.38"/>
</g>
<!-- S&#45;2198 -->
<g id="node55" class="node">
<title>S&#45;2198</title>
<polygon fill="mediumseagreen" stroke="black" points="747,-952 675,-930.5 747,-909 819,-930.5 747,-952"/>
<text text-anchor="middle" x="747" y="-928" font-family="Arial" font-size="10.00">S&#45;2198</text>
</g>
<!-- C&#45;0298&#45;&gt;S&#45;2198 -->
<g id="edge40" class="edge">
<title>C&#45;0298&#45;&gt;S&#45;2198</title>
<path fill="none" stroke="#4d4d4d" d="M702,-1014.37C702,-1014.37 702,-945.78 702,-945.78"/>
<polygon fill="#4d4d4d" stroke="#4d4d4d" points="704.45,-945.78 702,-938.78 699.55,-945.78 704.45,-945.78"/>
</g>
<!-- S&#45;1593 -->
<g id="node2" class="node">
<title>S&#45;1593</title>
<polygon fill="mediumseagreen" stroke="black" points="889,-144 817,-122.5 889,-101 961,-122.5 889,-144"/>
<text text-anchor="middle" x="889" y="-120" font-family="Arial" font-size="10.00">S&#45;1593</text>
</g>
<!-- S&#45;431 -->
<g id="node3" class="node">
<title>S&#45;431</title>
<polygon fill="mediumseagreen" stroke="black" points="1242,-548 1170,-526.5 1242,-505 1314,-526.5 1242,-548"/>
<text text-anchor="middle" x="1242" y="-524" font-family="Arial" font-size="10.00">S&#45;431</text>
</g>
<!-- S&#45;1544 -->
<g id="node7" class="node">
<title>S&#45;1544</title>
<polygon fill="mediumseagreen" stroke="black" points="1242,-447 1170,-425.5 1242,-404 1314,-425.5 1242,-447"/>
<text text-anchor="middle" x="1242" y="-423" font-family="Arial" font-size="10.00">S&#45;1544</text>
</g>
<!-- S&#45;431&#45;&gt;S&#45;1544 -->
<g id="edge50" class="edge">
<title>S&#45;431&#45;&gt;S&#45;1544</title>
<path fill="none" stroke="#4d4d4d" d="M1242,-504.58C1242,-504.58 1242,-454.03 1242,-454.03"/>
<polygon fill="#4d4d4d" stroke="#4d4d4d" points="1244.45,-454.03 1242,-447.03 1239.55,-454.03 1244.45,-454.03"/>
</g>
<!-- S&#45;356 -->
<g id="node4" class="node">
<title>S&#45;356</title>
<polygon fill="mediumseagreen" stroke="black" points="1692,-952 1620,-930.5 1692,-909 1764,-930.5 1692,-952"/>
<text text-anchor="middle" x="1692" y="-928" font-family="Arial" font-size="10.00">S&#45;356</text>
</g>
<!-- S&#45;2122 -->
<g id="node16" class="node">
<title>S&#45;2122</title>
<polygon fill="mediumseagreen" stroke="black" points="1242,-851 1170,-829.5 1242,-808 1314,-829.5 1242,-851"/>
<text text-anchor="middle" x="1242" y="-827" font-family="Arial" font-size="10.00">S&#45;2122</text>
</g>
<!-- S&#45;356&#45;&gt;S&#45;2122 -->
<g id="edge14" class="edge">
<title>S&#45;356&#45;&gt;S&#45;2122</title>
<path fill="none" stroke="#4d4d4d" d="M1641.69,-937C1524.26,-937 1242,-937 1242,-937 1242,-937 1242,-858.25 1242,-858.25"/>
<polygon fill="#4d4d4d" stroke="#4d4d4d" points="1244.45,-858.25 1242,-851.25 1239.55,-858.25 1244.45,-858.25"/>
</g>
<!-- C&#45;0568 -->
<g id="node22" class="node">
<title>C&#45;0568</title>
<ellipse fill="tomato" stroke="black" cx="1422" cy="-829.5" rx="72" ry="21.5"/>
<text text-anchor="middle" x="1422" y="-827" font-family="Arial" font-size="10.00">C&#45;0568</text>
</g>
<!-- S&#45;356&#45;&gt;C&#45;0568 -->
<g id="edge18" class="edge">
<title>S&#45;356&#45;&gt;C&#45;0568</title>
<path fill="none" stroke="#4d4d4d" d="M1644.97,-923C1567.61,-923 1422,-923 1422,-923 1422,-923 1422,-858.19 1422,-858.19"/>
<polygon fill="#4d4d4d" stroke="#4d4d4d" points="1424.45,-858.19 1422,-851.19 1419.55,-858.19 1424.45,-858.19"/>
</g>
<!-- C&#45;0569 -->
<g id="node37" class="node">
<title>C&#45;0569</title>
<ellipse fill="mediumseagreen" stroke="black" cx="1602" cy="-829.5" rx="72" ry="21.5"/>
<text text-anchor="middle" x="1602" y="-827" font-family="Arial" font-size="10.00">C&#45;0569</text>
</g>
<!-- S&#45;356&#45;&gt;C&#45;0569 -->
<g id="edge19" class="edge">
<title>S&#45;356&#45;&gt;C&#45;0569</title>
<path fill="none" stroke="#4d4d4d" d="M1647,-922.23C1647,-922.23 1647,-853.52 1647,-853.52"/>
<polygon fill="#4d4d4d" stroke="#4d4d4d" points="1649.45,-853.52 1647,-846.52 1644.55,-853.52 1649.45,-853.52"/>
</g>
<!-- C&#45;0436 -->
<g id="node45" class="node">
<title>C&#45;0436</title>
<ellipse fill="mediumseagreen" stroke="black" cx="1782" cy="-829.5" rx="72" ry="21.5"/>
<text text-anchor="middle" x="1782" y="-827" font-family="Arial" font-size="10.00">C&#45;0436</text>
</g>
<!-- S&#45;356&#45;&gt;C&#45;0436 -->
<g id="edge15" class="edge">
<title>S&#45;356&#45;&gt;C&#45;0436</title>
<path fill="none" stroke="#4d4d4d" d="M1737,-922.23C1737,-922.23 1737,-853.52 1737,-853.52"/>
<polygon fill="#4d4d4d" stroke="#4d4d4d" points="1739.45,-853.52 1737,-846.52 1734.55,-853.52 1739.45,-853.52"/>
</g>
<!-- C&#45;0693 -->
<g id="node48" class="node">
<title>C&#45;0693</title>
<ellipse fill="tomato" stroke="black" cx="1962" cy="-728.5" rx="72" ry="21.5"/>
<text text-anchor="middle" x="1962" y="-726" font-family="Arial" font-size="10.00">C&#45;0693</text>
</g>
<!-- S&#45;356&#45;&gt;C&#45;0693 -->
<g id="edge16" class="edge">
<title>S&#45;356&#45;&gt;C&#45;0693</title>
<path fill="none" stroke="#4d4d4d" d="M1725.75,-919C1786.5,-919 1908,-919 1908,-919 1908,-919 1908,-749.82 1908,-749.82"/>
<polygon fill="#4d4d4d" stroke="#4d4d4d" points="1910.45,-749.82 1908,-742.82 1905.55,-749.82 1910.45,-749.82"/>
</g>
<!-- S&#45;1546 -->
<g id="node5" class="node">
<title>S&#45;1546</title>
<polygon fill="mediumseagreen" stroke="black" points="1062,-245 990,-223.5 1062,-202 1134,-223.5 1062,-245"/>
<text text-anchor="middle" x="1062" y="-221" font-family="Arial" font-size="10.00">S&#45;1546</text>
</g>
<!-- S&#45;1546&#45;&gt;S&#45;1593 -->
<g id="edge56" class="edge">
<title>S&#45;1546&#45;&gt;S&#45;1593</title>
<path fill="none" stroke="#4d4d4d" d="M993.5,-222.36C993.5,-211.21 993.5,-122 993.5,-122 993.5,-122 966.57,-122 966.57,-122"/>
<polygon fill="#4d4d4d" stroke="#4d4d4d" points="966.57,-119.55 959.57,-122 966.57,-124.45 966.57,-119.55"/>
</g>
<!-- S&#45;1594 -->
<g id="node42" class="node">
<title>S&#45;1594</title>
<polygon fill="mediumseagreen" stroke="black" points="1069,-144 997,-122.5 1069,-101 1141,-122.5 1069,-144"/>
<text text-anchor="middle" x="1069" y="-120" font-family="Arial" font-size="10.00">S&#45;1594</text>
</g>
<!-- S&#45;1546&#45;&gt;S&#45;1594 -->
<g id="edge57" class="edge">
<title>S&#45;1546&#45;&gt;S&#45;1594</title>
<path fill="none" stroke="#4d4d4d" d="M1065.5,-202.57C1065.5,-202.57 1065.5,-150.05 1065.5,-150.05"/>
<polygon fill="#4d4d4d" stroke="#4d4d4d" points="1067.95,-150.05 1065.5,-143.05 1063.05,-150.05 1067.95,-150.05"/>
</g>
<!-- S&#45;1527 -->
<g id="node6" class="node">
<title>S&#45;1527</title>
<polygon fill="mediumseagreen" stroke="black" points="1422,-548 1350,-526.5 1422,-505 1494,-526.5 1422,-548"/>
<text text-anchor="middle" x="1422" y="-524" font-family="Arial" font-size="10.00">S&#45;1527</text>
</g>
<!-- S&#45;1235 -->
<g id="node27" class="node">
<title>S&#45;1235</title>
<polygon fill="mediumseagreen" stroke="black" points="1422,-447 1350,-425.5 1422,-404 1494,-425.5 1422,-447"/>
<text text-anchor="middle" x="1422" y="-423" font-family="Arial" font-size="10.00">S&#45;1235</text>
</g>
<!-- S&#45;1527&#45;&gt;S&#45;1235 -->
<g id="edge60" class="edge">
<title>S&#45;1527&#45;&gt;S&#45;1235</title>
<path fill="none" stroke="#4d4d4d" d="M1422,-504.58C1422,-504.58 1422,-454.03 1422,-454.03"/>
<polygon fill="#4d4d4d" stroke="#4d4d4d" points="1424.45,-454.03 1422,-447.03 1419.55,-454.03 1424.45,-454.03"/>
</g>
<!-- S&#45;1545 -->
<g id="node43" class="node">
<title>S&#45;1545</title>
<polygon fill="mediumseagreen" stroke="black" points="1242,-346 1170,-324.5 1242,-303 1314,-324.5 1242,-346"/>
<text text-anchor="middle" x="1242" y="-322" font-family="Arial" font-size="10.00">S&#45;1545</text>
</g>
<!-- S&#45;1544&#45;&gt;S&#45;1545 -->
<g id="edge51" class="edge">
<title>S&#45;1544&#45;&gt;S&#45;1545</title>
<path fill="none" stroke="#4d4d4d" d="M1242,-403.58C1242,-403.58 1242,-353.03 1242,-353.03"/>
<polygon fill="#4d4d4d" stroke="#4d4d4d" points="1244.45,-353.03 1242,-346.03 1239.55,-353.03 1244.45,-353.03"/>
</g>
<!-- S&#45;1118 -->
<g id="node8" class="node">
<title>S&#45;1118</title>
<polygon fill="mediumseagreen" stroke="black" points="72,-649 0,-627.5 72,-606 144,-627.5 72,-649"/>
<text text-anchor="middle" x="72" y="-625" font-family="Arial" font-size="10.00">S&#45;1118</text>
</g>
<!-- S&#45;2451 -->
<g id="node21" class="node">
<title>S&#45;2451</title>
<polygon fill="mediumseagreen" stroke="black" points="72,-548 0,-526.5 72,-505 144,-526.5 72,-548"/>
<text text-anchor="middle" x="72" y="-524" font-family="Arial" font-size="10.00">S&#45;2451</text>
</g>
<!-- S&#45;1118&#45;&gt;S&#45;2451 -->
<g id="edge47" class="edge">
<title>S&#45;1118&#45;&gt;S&#45;2451</title>
<path fill="none" stroke="#4d4d4d" d="M72,-605.58C72,-605.58 72,-555.03 72,-555.03"/>
<polygon fill="#4d4d4d" stroke="#4d4d4d" points="74.45,-555.03 72,-548.03 69.55,-555.03 74.45,-555.03"/>
</g>
<!-- S&#45;1284 -->
<g id="node9" class="node">
<title>S&#45;1284</title>
<polygon fill="mediumseagreen" stroke="black" points="1512,-1255 1440,-1233.5 1512,-1212 1584,-1233.5 1512,-1255"/>
<text text-anchor="middle" x="1512" y="-1231" font-family="Arial" font-size="10.00">S&#45;1284</text>
</g>
<!-- R&#45;048 -->
<g id="node14" class="node">
<title>R&#45;048</title>
<polygon fill="mediumseagreen" stroke="black" points="1134,-1123.59 1134,-1141.41 1091.82,-1154 1032.18,-1154 990,-1141.41 990,-1123.59 1032.18,-1111 1091.82,-1111 1134,-1123.59"/>
<text text-anchor="middle" x="1062" y="-1130" font-family="Arial" font-size="10.00">R&#45;048</text>
</g>
<!-- S&#45;1284&#45;&gt;R&#45;048 -->
<g id="edge34" class="edge">
<title>S&#45;1284&#45;&gt;R&#45;048</title>
<path fill="none" stroke="#4d4d4d" d="M1461.69,-1240C1344.26,-1240 1062,-1240 1062,-1240 1062,-1240 1062,-1161.25 1062,-1161.25"/>
<polygon fill="#4d4d4d" stroke="#4d4d4d" points="1064.45,-1161.25 1062,-1154.25 1059.55,-1161.25 1064.45,-1161.25"/>
</g>
<!-- S&#45;1285 -->
<g id="node28" class="node">
<title>S&#45;1285</title>
<polygon fill="mediumseagreen" stroke="black" points="1242,-1154 1170,-1132.5 1242,-1111 1314,-1132.5 1242,-1154"/>
<text text-anchor="middle" x="1242" y="-1130" font-family="Arial" font-size="10.00">S&#45;1285</text>
</g>
<!-- S&#45;1284&#45;&gt;S&#45;1285 -->
<g id="edge33" class="edge">
<title>S&#45;1284&#45;&gt;S&#45;1285</title>
<path fill="none" stroke="#4d4d4d" d="M1464.97,-1226C1387.61,-1226 1242,-1226 1242,-1226 1242,-1226 1242,-1161.19 1242,-1161.19"/>
<polygon fill="#4d4d4d" stroke="#4d4d4d" points="1244.45,-1161.19 1242,-1154.19 1239.55,-1161.19 1244.45,-1161.19"/>
</g>
<!-- S&#45;2510 -->
<g id="node38" class="node">
<title>S&#45;2510</title>
<polygon fill="mediumseagreen" stroke="black" points="1422,-1154 1350,-1132.5 1422,-1111 1494,-1132.5 1422,-1154"/>
<text text-anchor="middle" x="1422" y="-1130" font-family="Arial" font-size="10.00">S&#45;2510</text>
</g>
<!-- S&#45;1284&#45;&gt;S&#45;2510 -->
<g id="edge4" class="edge">
<title>S&#45;1284&#45;&gt;S&#45;2510</title>
<path fill="none" stroke="#4d4d4d" d="M1467,-1225.23C1467,-1225.23 1467,-1147.6 1467,-1147.6"/>
<polygon fill="#4d4d4d" stroke="#4d4d4d" points="1469.45,-1147.6 1467,-1140.6 1464.55,-1147.6 1469.45,-1147.6"/>
</g>
<!-- S&#45;2452 -->
<g id="node46" class="node">
<title>S&#45;2452</title>
<polygon fill="mediumseagreen" stroke="black" points="1602,-1154 1530,-1132.5 1602,-1111 1674,-1132.5 1602,-1154"/>
<text text-anchor="middle" x="1602" y="-1130" font-family="Arial" font-size="10.00">S&#45;2452</text>
</g>
<!-- S&#45;1284&#45;&gt;S&#45;2452 -->
<g id="edge7" class="edge">
<title>S&#45;1284&#45;&gt;S&#45;2452</title>
<path fill="none" stroke="#4d4d4d" d="M1543.5,-1221.12C1543.5,-1221.12 1543.5,-1143.65 1543.5,-1143.65"/>
<polygon fill="#4d4d4d" stroke="#4d4d4d" points="1545.95,-1143.65 1543.5,-1136.65 1541.05,-1143.65 1545.95,-1143.65"/>
</g>
<!-- S&#45;353 -->
<g id="node47" class="node">
<title>S&#45;353</title>
<polygon fill="mediumseagreen" stroke="black" points="1782,-1154 1710,-1132.5 1782,-1111 1854,-1132.5 1782,-1154"/>
<text text-anchor="middle" x="1782" y="-1130" font-family="Arial" font-size="10.00">S&#45;353</text>
</g>
<!-- S&#45;1284&#45;&gt;S&#45;353 -->
<g id="edge6" class="edge">
<title>S&#45;1284&#45;&gt;S&#45;353</title>
<path fill="none" stroke="#4d4d4d" d="M1557,-1225.34C1557,-1208.83 1557,-1173 1557,-1173 1557,-1173 1737,-1173 1737,-1173 1737,-1173 1737,-1147.7 1737,-1147.7"/>
<polygon fill="#4d4d4d" stroke="#4d4d4d" points="1739.45,-1147.7 1737,-1140.7 1734.55,-1147.7 1739.45,-1147.7"/>
</g>
<!-- S&#45;1203 -->
<g id="node56" class="node">
<title>S&#45;1203</title>
<polygon fill="mediumseagreen" stroke="black" points="1962,-1154 1890,-1132.5 1962,-1111 2034,-1132.5 1962,-1154"/>
<text text-anchor="middle" x="1962" y="-1130" font-family="Arial" font-size="10.00">S&#45;1203</text>
</g>
<!-- S&#45;1284&#45;&gt;S&#45;1203 -->
<g id="edge5" class="edge">
<title>S&#45;1284&#45;&gt;S&#45;1203</title>
<path fill="none" stroke="#4d4d4d" d="M1570.5,-1229.37C1570.5,-1218.87 1570.5,-1192 1570.5,-1192 1570.5,-1192 1917,-1192 1917,-1192 1917,-1192 1917,-1147.77 1917,-1147.77"/>
<polygon fill="#4d4d4d" stroke="#4d4d4d" points="1919.45,-1147.77 1917,-1140.77 1914.55,-1147.77 1919.45,-1147.77"/>
</g>
<!-- S&#45;2341 -->
<g id="node10" class="node">
<title>S&#45;2341</title>
<polygon fill="mediumseagreen" stroke="black" points="927,-952 855,-930.5 927,-909 999,-930.5 927,-952"/>
<text text-anchor="middle" x="927" y="-928" font-family="Arial" font-size="10.00">S&#45;2341</text>
</g>
<!-- S&#45;430 -->
<g id="node11" class="node">
<title>S&#45;430</title>
<polygon fill="mediumseagreen" stroke="black" points="1602,-548 1530,-526.5 1602,-505 1674,-526.5 1602,-548"/>
<text text-anchor="middle" x="1602" y="-524" font-family="Arial" font-size="10.00">S&#45;430</text>
</g>
<!-- S&#45;2130 -->
<g id="node12" class="node">
<title>S&#45;2130</title>
<polygon fill="mediumseagreen" stroke="black" points="882,-1053 810,-1031.5 882,-1010 954,-1031.5 882,-1053"/>
<text text-anchor="middle" x="882" y="-1029" font-family="Arial" font-size="10.00">S&#45;2130</text>
</g>
<!-- S&#45;2130&#45;&gt;S&#45;2341 -->
<g id="edge36" class="edge">
<title>S&#45;2130&#45;&gt;S&#45;2341</title>
<path fill="none" stroke="#4d4d4d" d="M904.5,-1016.6C904.5,-1016.6 904.5,-952.46 904.5,-952.46"/>
<polygon fill="#4d4d4d" stroke="#4d4d4d" points="906.95,-952.46 904.5,-945.46 902.05,-952.46 906.95,-952.46"/>
</g>
<!-- S&#45;2360 -->
<g id="node13" class="node">
<title>S&#45;2360</title>
<polygon fill="mediumseagreen" stroke="black" points="2036,-851 1964,-829.5 2036,-808 2108,-829.5 2036,-851"/>
<text text-anchor="middle" x="2036" y="-827" font-family="Arial" font-size="10.00">S&#45;2360</text>
</g>
<!-- R&#45;048&#45;&gt;C&#45;0298 -->
<g id="edge39" class="edge">
<title>R&#45;048&#45;&gt;C&#45;0298</title>
<path fill="none" stroke="#4d4d4d" d="M989.59,-1139C873.1,-1139 657,-1139 657,-1139 657,-1139 657,-1060.25 657,-1060.25"/>
<polygon fill="#4d4d4d" stroke="#4d4d4d" points="659.45,-1060.25 657,-1053.25 654.55,-1060.25 659.45,-1060.25"/>
</g>
<!-- R&#45;048&#45;&gt;S&#45;2130 -->
<g id="edge35" class="edge">
<title>R&#45;048&#45;&gt;S&#45;2130</title>
<path fill="none" stroke="#4d4d4d" d="M989.82,-1125C939.75,-1125 882,-1125 882,-1125 882,-1125 882,-1060.19 882,-1060.19"/>
<polygon fill="#4d4d4d" stroke="#4d4d4d" points="884.45,-1060.19 882,-1053.19 879.55,-1060.19 884.45,-1060.19"/>
</g>
<!-- S&#45;1847 -->
<g id="node18" class="node">
<title>S&#45;1847</title>
<polygon fill="mediumseagreen" stroke="black" points="1062,-1053 990,-1031.5 1062,-1010 1134,-1031.5 1062,-1053"/>
<text text-anchor="middle" x="1062" y="-1029" font-family="Arial" font-size="10.00">S&#45;1847</text>
</g>
<!-- R&#45;048&#45;&gt;S&#45;1847 -->
<g id="edge37" class="edge">
<title>R&#45;048&#45;&gt;S&#45;1847</title>
<path fill="none" stroke="#4d4d4d" d="M1038,-1110.58C1038,-1110.58 1038,-1052.9 1038,-1052.9"/>
<polygon fill="#4d4d4d" stroke="#4d4d4d" points="1040.45,-1052.9 1038,-1045.9 1035.55,-1052.9 1040.45,-1052.9"/>
</g>
<!-- S&#45;1769 -->
<g id="node26" class="node">
<title>S&#45;1769</title>
<polygon fill="mediumseagreen" stroke="black" points="1242,-1053 1170,-1031.5 1242,-1010 1314,-1031.5 1242,-1053"/>
<text text-anchor="middle" x="1242" y="-1029" font-family="Arial" font-size="10.00">S&#45;1769</text>
</g>
<!-- R&#45;048&#45;&gt;S&#45;1769 -->
<g id="edge3" class="edge">
<title>R&#45;048&#45;&gt;S&#45;1769</title>
<path fill="none" stroke="#4d4d4d" d="M1134.26,-1132C1136.32,-1132 1137.5,-1132 1137.5,-1132 1137.5,-1132 1137.5,-1031 1137.5,-1031 1137.5,-1031 1164.43,-1031 1164.43,-1031"/>
<polygon fill="#4d4d4d" stroke="#4d4d4d" points="1164.43,-1033.45 1171.43,-1031 1164.43,-1028.55 1164.43,-1033.45"/>
</g>
<!-- S&#45;352 -->
<g id="node53" class="node">
<title>S&#45;352</title>
<polygon fill="mediumseagreen" stroke="black" points="1422,-1053 1350,-1031.5 1422,-1010 1494,-1031.5 1422,-1053"/>
<text text-anchor="middle" x="1422" y="-1029" font-family="Arial" font-size="10.00">S&#45;352</text>
</g>
<!-- R&#45;048&#45;&gt;S&#45;352 -->
<g id="edge26" class="edge">
<title>R&#45;048&#45;&gt;S&#45;352</title>
<path fill="none" stroke="#4d4d4d" d="M1086,-1110.79C1086,-1097.1 1086,-1082 1086,-1082 1086,-1082 1422,-1082 1422,-1082 1422,-1082 1422,-1060.21 1422,-1060.21"/>
<polygon fill="#4d4d4d" stroke="#4d4d4d" points="1424.45,-1060.21 1422,-1053.21 1419.55,-1060.21 1424.45,-1060.21"/>
</g>
<!-- C&#45;0847 -->
<g id="node19" class="node">
<title>C&#45;0847</title>
<ellipse fill="mediumseagreen" stroke="black" cx="567" cy="-728.5" rx="72" ry="21.5"/>
<text text-anchor="middle" x="567" y="-726" font-family="Arial" font-size="10.00">C&#45;0847</text>
</g>
<!-- C&#45;0846&#45;&gt;C&#45;0847 -->
<g id="edge65" class="edge">
<title>C&#45;0846&#45;&gt;C&#45;0847</title>
<path fill="none" stroke="blue" stroke-dasharray="5,2" d="M409.5,-910.01C409.5,-860.6 409.5,-739 409.5,-739 409.5,-739 496.85,-739 496.85,-739"/>
<polygon fill="blue" stroke="blue" points="496.85,-741.45 503.85,-739 496.85,-736.55 496.85,-741.45"/>
</g>
<!-- R&#45;144 -->
<g id="node17" class="node">
<title>R&#45;144</title>
<polygon fill="tomato" stroke="black" points="324,-517.59 324,-535.41 281.82,-548 222.18,-548 180,-535.41 180,-517.59 222.18,-505 281.82,-505 324,-517.59"/>
<text text-anchor="middle" x="252" y="-524" font-family="Arial" font-size="10.00">R&#45;144</text>
</g>
<!-- ext_circ_205_25_ -->
<g id="node62" class="node">
<title>ext_circ_205_25_</title>
<polygon fill="lightpink" stroke="darkorange" stroke-dasharray="5,2" points="324,-447 180,-447 180,-404 324,-404 324,-447"/>
<text text-anchor="middle" x="252" y="-428.5" font-family="Arial" font-size="10.00">Circuito:</text>
<text text-anchor="middle" x="252" y="-417.5" font-family="Arial" font-size="10.00">205&#45;25&#45;</text>
</g>
<!-- R&#45;144&#45;&gt;ext_circ_205_25_ -->
<g id="edge61" class="edge">
<title>R&#45;144&#45;&gt;ext_circ_205_25_</title>
<path fill="none" stroke="darkorange" stroke-dasharray="5,2" d="M252,-504.58C252,-504.58 252,-454.03 252,-454.03"/>
<polygon fill="darkorange" stroke="darkorange" points="254.45,-454.03 252,-447.03 249.55,-454.03 254.45,-454.03"/>
</g>
<!-- C&#45;0847&#45;&gt;S&#45;1118 -->
<g id="edge46" class="edge">
<title>C&#45;0847&#45;&gt;S&#45;1118</title>
<path fill="none" stroke="#4d4d4d" d="M494.76,-728C357.37,-728 72,-728 72,-728 72,-728 72,-656.31 72,-656.31"/>
<polygon fill="#4d4d4d" stroke="#4d4d4d" points="74.45,-656.31 72,-649.31 69.55,-656.31 74.45,-656.31"/>
</g>
<!-- C&#45;0739 -->
<g id="node23" class="node">
<title>C&#45;0739</title>
<ellipse fill="mediumseagreen" stroke="black" cx="252" cy="-627.5" rx="72" ry="21.5"/>
<text text-anchor="middle" x="252" y="-625" font-family="Arial" font-size="10.00">C&#45;0739</text>
</g>
<!-- C&#45;0847&#45;&gt;C&#45;0739 -->
<g id="edge25" class="edge">
<title>C&#45;0847&#45;&gt;C&#45;0739</title>
<path fill="none" stroke="#4d4d4d" d="M506.14,-717C432.86,-717 319.5,-717 319.5,-717 319.5,-717 319.5,-642.13 319.5,-642.13"/>
<polygon fill="#4d4d4d" stroke="#4d4d4d" points="321.95,-642.13 319.5,-635.13 317.05,-642.13 321.95,-642.13"/>
</g>
<!-- S&#45;2339 -->
<g id="node35" class="node">
<title>S&#45;2339</title>
<polygon fill="mediumseagreen" stroke="black" points="432,-649 360,-627.5 432,-606 504,-627.5 432,-649"/>
<text text-anchor="middle" x="432" y="-625" font-family="Arial" font-size="10.00">S&#45;2339</text>
</g>
<!-- C&#45;0847&#45;&gt;S&#45;2339 -->
<g id="edge45" class="edge">
<title>C&#45;0847&#45;&gt;S&#45;2339</title>
<path fill="none" stroke="#4d4d4d" d="M499.5,-720.91C499.5,-720.91 499.5,-635.98 499.5,-635.98"/>
<polygon fill="#4d4d4d" stroke="#4d4d4d" points="501.95,-635.98 499.5,-628.98 497.05,-635.98 501.95,-635.98"/>
</g>
<!-- S&#45;2141 -->
<g id="node49" class="node">
<title>S&#45;2141</title>
<polygon fill="mediumseagreen" stroke="black" points="612,-649 540,-627.5 612,-606 684,-627.5 612,-649"/>
<text text-anchor="middle" x="612" y="-625" font-family="Arial" font-size="10.00">S&#45;2141</text>
</g>
<!-- C&#45;0847&#45;&gt;S&#45;2141 -->
<g id="edge38" class="edge">
<title>C&#45;0847&#45;&gt;S&#45;2141</title>
<path fill="none" stroke="#4d4d4d" d="M589.5,-708.06C589.5,-708.06 589.5,-649.34 589.5,-649.34"/>
<polygon fill="#4d4d4d" stroke="#4d4d4d" points="591.95,-649.34 589.5,-642.34 587.05,-649.34 591.95,-649.34"/>
</g>
<!-- S&#45;2140 -->
<g id="node50" class="node">
<title>S&#45;2140</title>
<polygon fill="mediumseagreen" stroke="black" points="792,-649 720,-627.5 792,-606 864,-627.5 792,-649"/>
<text text-anchor="middle" x="792" y="-625" font-family="Arial" font-size="10.00">S&#45;2140</text>
</g>
<!-- C&#45;0847&#45;&gt;S&#45;2140 -->
<g id="edge48" class="edge">
<title>C&#45;0847&#45;&gt;S&#45;2140</title>
<path fill="none" stroke="#4d4d4d" d="M634.71,-721C693.58,-721 769.5,-721 769.5,-721 769.5,-721 769.5,-649.52 769.5,-649.52"/>
<polygon fill="#4d4d4d" stroke="#4d4d4d" points="771.95,-649.52 769.5,-642.52 767.05,-649.52 771.95,-649.52"/>
</g>
<!-- S&#45;2139 -->
<g id="node58" class="node">
<title>S&#45;2139</title>
<polygon fill="mediumseagreen" stroke="black" points="972,-649 900,-627.5 972,-606 1044,-627.5 972,-649"/>
<text text-anchor="middle" x="972" y="-625" font-family="Arial" font-size="10.00">S&#45;2139</text>
</g>
<!-- C&#45;0847&#45;&gt;S&#45;2139 -->
<g id="edge24" class="edge">
<title>C&#45;0847&#45;&gt;S&#45;2139</title>
<path fill="none" stroke="#4d4d4d" d="M635.83,-735C745.95,-735 949.5,-735 949.5,-735 949.5,-735 949.5,-649.45 949.5,-649.45"/>
<polygon fill="#4d4d4d" stroke="#4d4d4d" points="951.95,-649.45 949.5,-642.45 947.05,-649.45 951.95,-649.45"/>
</g>
<!-- C&#45;0071 -->
<g id="node20" class="node">
<title>C&#45;0071</title>
<ellipse fill="mediumseagreen" stroke="black" cx="1602" cy="-1435.5" rx="72" ry="21.5"/>
<text text-anchor="middle" x="1602" y="-1433" font-family="Arial" font-size="10.00">C&#45;0071</text>
</g>
<!-- S&#45;739 -->
<g id="node31" class="node">
<title>S&#45;739</title>
<polygon fill="mediumseagreen" stroke="black" points="1512,-1356 1440,-1334.5 1512,-1313 1584,-1334.5 1512,-1356"/>
<text text-anchor="middle" x="1512" y="-1332" font-family="Arial" font-size="10.00">S&#45;739</text>
</g>
<!-- C&#45;0071&#45;&gt;S&#45;739 -->
<g id="edge28" class="edge">
<title>C&#45;0071&#45;&gt;S&#45;739</title>
<path fill="none" stroke="#4d4d4d" d="M1557,-1418.37C1557,-1418.37 1557,-1349.78 1557,-1349.78"/>
<polygon fill="#4d4d4d" stroke="#4d4d4d" points="1559.45,-1349.78 1557,-1342.78 1554.55,-1349.78 1559.45,-1349.78"/>
</g>
<!-- S&#45;346 -->
<g id="node54" class="node">
<title>S&#45;346</title>
<polygon fill="mediumseagreen" stroke="black" points="1692,-1356 1620,-1334.5 1692,-1313 1764,-1334.5 1692,-1356"/>
<text text-anchor="middle" x="1692" y="-1332" font-family="Arial" font-size="10.00">S&#45;346</text>
</g>
<!-- C&#45;0071&#45;&gt;S&#45;346 -->
<g id="edge29" class="edge">
<title>C&#45;0071&#45;&gt;S&#45;346</title>
<path fill="none" stroke="#4d4d4d" d="M1647,-1418.37C1647,-1418.37 1647,-1349.78 1647,-1349.78"/>
<polygon fill="#4d4d4d" stroke="#4d4d4d" points="1649.45,-1349.78 1647,-1342.78 1644.55,-1349.78 1649.45,-1349.78"/>
</g>
<!-- C&#45;0570 -->
<g id="node40" class="node">
<title>C&#45;0570</title>
<ellipse fill="mediumseagreen" stroke="black" cx="1602" cy="-627.5" rx="72" ry="21.5"/>
<text text-anchor="middle" x="1602" y="-625" font-family="Arial" font-size="10.00">C&#45;0570</text>
</g>
<!-- C&#45;0568&#45;&gt;C&#45;0570 -->
<g id="edge64" class="edge">
<title>C&#45;0568&#45;&gt;C&#45;0570</title>
<path fill="none" stroke="blue" stroke-dasharray="5,2" d="M1398,-809.01C1398,-759.6 1398,-638 1398,-638 1398,-638 1532.13,-638 1532.13,-638"/>
<polygon fill="blue" stroke="blue" points="1532.13,-640.45 1539.13,-638 1532.13,-635.55 1532.13,-640.45"/>
</g>
<!-- C&#45;0739&#45;&gt;R&#45;144 -->
<g id="edge13" class="edge">
<title>C&#45;0739&#45;&gt;R&#45;144</title>
<path fill="none" stroke="#4d4d4d" d="M252,-605.58C252,-605.58 252,-555.03 252,-555.03"/>
<polygon fill="#4d4d4d" stroke="#4d4d4d" points="254.45,-555.03 252,-548.03 249.55,-555.03 254.45,-555.03"/>
</g>
<!-- S&#45;2048 -->
<g id="node24" class="node">
<title>S&#45;2048</title>
<polygon fill="mediumseagreen" stroke="black" points="1782,-548 1710,-526.5 1782,-505 1854,-526.5 1782,-548"/>
<text text-anchor="middle" x="1782" y="-524" font-family="Arial" font-size="10.00">S&#45;2048</text>
</g>
<!-- R&#45;192 -->
<g id="node25" class="node">
<title>R&#45;192</title>
<polygon fill="mediumseagreen" stroke="black" points="639,-820.59 639,-838.41 596.82,-851 537.18,-851 495,-838.41 495,-820.59 537.18,-808 596.82,-808 639,-820.59"/>
<text text-anchor="middle" x="567" y="-827" font-family="Arial" font-size="10.00">R&#45;192</text>
</g>
<!-- R&#45;192&#45;&gt;C&#45;0847 -->
<g id="edge44" class="edge">
<title>R&#45;192&#45;&gt;C&#45;0847</title>
<path fill="none" stroke="#4d4d4d" d="M567,-807.58C567,-807.58 567,-757.03 567,-757.03"/>
<polygon fill="#4d4d4d" stroke="#4d4d4d" points="569.45,-757.03 567,-750.03 564.55,-757.03 569.45,-757.03"/>
</g>
<!-- R&#45;264 -->
<g id="node29" class="node">
<title>R&#45;264</title>
<polygon fill="tomato" stroke="black" points="1334,-113.59 1334,-131.41 1291.82,-144 1232.18,-144 1190,-131.41 1190,-113.59 1232.18,-101 1291.82,-101 1334,-113.59"/>
<text text-anchor="middle" x="1262" y="-120" font-family="Arial" font-size="10.00">R&#45;264</text>
</g>
<!-- ext_circ_101_23_ -->
<g id="node64" class="node">
<title>ext_circ_101_23_</title>
<polygon fill="lightpink" stroke="darkorange" stroke-dasharray="5,2" points="1401,-43 1257,-43 1257,0 1401,0 1401,-43"/>
<text text-anchor="middle" x="1329" y="-24.5" font-family="Arial" font-size="10.00">Circuito:</text>
<text text-anchor="middle" x="1329" y="-13.5" font-family="Arial" font-size="10.00">101&#45;23&#45;</text>
</g>
<!-- R&#45;264&#45;&gt;ext_circ_101_23_ -->
<g id="edge67" class="edge">
<title>R&#45;264&#45;&gt;ext_circ_101_23_</title>
<path fill="none" stroke="darkorange" stroke-dasharray="5,2" d="M1295.5,-102.06C1295.5,-102.06 1295.5,-50.31 1295.5,-50.31"/>
<polygon fill="darkorange" stroke="darkorange" points="1297.95,-50.31 1295.5,-43.31 1293.05,-50.31 1297.95,-50.31"/>
</g>
<!-- S&#45;1537 -->
<g id="node30" class="node">
<title>S&#45;1537</title>
<polygon fill="mediumseagreen" stroke="black" points="1962,-548 1890,-526.5 1962,-505 2034,-526.5 1962,-548"/>
<text text-anchor="middle" x="1962" y="-524" font-family="Arial" font-size="10.00">S&#45;1537</text>
</g>
<!-- S&#45;2568 -->
<g id="node32" class="node">
<title>S&#45;2568</title>
<polygon fill="mediumseagreen" stroke="black" points="1692,-1255 1620,-1233.5 1692,-1212 1764,-1233.5 1692,-1255"/>
<text text-anchor="middle" x="1692" y="-1231" font-family="Arial" font-size="10.00">S&#45;2568</text>
</g>
<!-- S&#45;2525 -->
<g id="node33" class="node">
<title>S&#45;2525</title>
<polygon fill="mediumseagreen" stroke="black" points="972,-548 900,-526.5 972,-505 1044,-526.5 972,-548"/>
<text text-anchor="middle" x="972" y="-524" font-family="Arial" font-size="10.00">S&#45;2525</text>
</g>
<!-- S&#45;2359 -->
<g id="node34" class="node">
<title>S&#45;2359</title>
<polygon fill="mediumseagreen" stroke="black" points="2216,-851 2144,-829.5 2216,-808 2288,-829.5 2216,-851"/>
<text text-anchor="middle" x="2216" y="-827" font-family="Arial" font-size="10.00">S&#45;2359</text>
</g>
<!-- S&#45;2242 -->
<g id="node36" class="node">
<title>S&#45;2242</title>
<polygon fill="mediumseagreen" stroke="black" points="2036,-952 1964,-930.5 2036,-909 2108,-930.5 2036,-952"/>
<text text-anchor="middle" x="2036" y="-928" font-family="Arial" font-size="10.00">S&#45;2242</text>
</g>
<!-- S&#45;2242&#45;&gt;S&#45;2360 -->
<g id="edge1" class="edge">
<title>S&#45;2242&#45;&gt;S&#45;2360</title>
<path fill="none" stroke="#4d4d4d" d="M2036,-908.58C2036,-908.58 2036,-858.03 2036,-858.03"/>
<polygon fill="#4d4d4d" stroke="#4d4d4d" points="2038.45,-858.03 2036,-851.03 2033.55,-858.03 2038.45,-858.03"/>
</g>
<!-- S&#45;2242&#45;&gt;S&#45;2359 -->
<g id="edge11" class="edge">
<title>S&#45;2242&#45;&gt;S&#45;2359</title>
<path fill="none" stroke="#4d4d4d" d="M2106.37,-930C2156.85,-930 2216,-930 2216,-930 2216,-930 2216,-858.31 2216,-858.31"/>
<polygon fill="#4d4d4d" stroke="#4d4d4d" points="2218.45,-858.31 2216,-851.31 2213.55,-858.31 2218.45,-858.31"/>
</g>
<!-- R&#45;104 -->
<g id="node44" class="node">
<title>R&#45;104</title>
<polygon fill="mediumseagreen" stroke="black" points="1674,-719.59 1674,-737.41 1631.82,-750 1572.18,-750 1530,-737.41 1530,-719.59 1572.18,-707 1631.82,-707 1674,-719.59"/>
<text text-anchor="middle" x="1602" y="-726" font-family="Arial" font-size="10.00">R&#45;104</text>
</g>
<!-- C&#45;0569&#45;&gt;R&#45;104 -->
<g id="edge20" class="edge">
<title>C&#45;0569&#45;&gt;R&#45;104</title>
<path fill="none" stroke="#4d4d4d" d="M1602,-807.58C1602,-807.58 1602,-757.03 1602,-757.03"/>
<polygon fill="#4d4d4d" stroke="#4d4d4d" points="1604.45,-757.03 1602,-750.03 1599.55,-757.03 1604.45,-757.03"/>
</g>
<!-- S&#45;2250 -->
<g id="node39" class="node">
<title>S&#45;2250</title>
<polygon fill="mediumseagreen" stroke="black" points="1692,-1053 1620,-1031.5 1692,-1010 1764,-1031.5 1692,-1053"/>
<text text-anchor="middle" x="1692" y="-1029" font-family="Arial" font-size="10.00">S&#45;2250</text>
</g>
<!-- C&#45;0570&#45;&gt;S&#45;431 -->
<g id="edge49" class="edge">
<title>C&#45;0570&#45;&gt;S&#45;431</title>
<path fill="none" stroke="#4d4d4d" d="M1530.01,-627C1424.96,-627 1242,-627 1242,-627 1242,-627 1242,-555.31 1242,-555.31"/>
<polygon fill="#4d4d4d" stroke="#4d4d4d" points="1244.45,-555.31 1242,-548.31 1239.55,-555.31 1244.45,-555.31"/>
</g>
<!-- C&#45;0570&#45;&gt;S&#45;1527 -->
<g id="edge59" class="edge">
<title>C&#45;0570&#45;&gt;S&#45;1527</title>
<path fill="none" stroke="#4d4d4d" d="M1540.79,-616C1497.09,-616 1446,-616 1446,-616 1446,-616 1446,-547.88 1446,-547.88"/>
<polygon fill="#4d4d4d" stroke="#4d4d4d" points="1448.45,-547.88 1446,-540.88 1443.55,-547.88 1448.45,-547.88"/>
</g>
<!-- C&#45;0570&#45;&gt;S&#45;430 -->
<g id="edge22" class="edge">
<title>C&#45;0570&#45;&gt;S&#45;430</title>
<path fill="none" stroke="#4d4d4d" d="M1578,-607.06C1578,-607.06 1578,-548.03 1578,-548.03"/>
<polygon fill="#4d4d4d" stroke="#4d4d4d" points="1580.45,-548.03 1578,-541.03 1575.55,-548.03 1580.45,-548.03"/>
</g>
<!-- C&#45;0570&#45;&gt;S&#45;2048 -->
<g id="edge23" class="edge">
<title>C&#45;0570&#45;&gt;S&#45;2048</title>
<path fill="none" stroke="#4d4d4d" d="M1674.02,-627C1713.7,-627 1755,-627 1755,-627 1755,-627 1755,-547.05 1755,-547.05"/>
<polygon fill="#4d4d4d" stroke="#4d4d4d" points="1757.45,-547.05 1755,-540.05 1752.55,-547.05 1757.45,-547.05"/>
</g>
<!-- C&#45;0570&#45;&gt;S&#45;1537 -->
<g id="edge58" class="edge">
<title>C&#45;0570&#45;&gt;S&#45;1537</title>
<path fill="none" stroke="#4d4d4d" d="M1626,-606.96C1626,-592.98 1626,-577 1626,-577 1626,-577 1917,-577 1917,-577 1917,-577 1917,-541.84 1917,-541.84"/>
<polygon fill="#4d4d4d" stroke="#4d4d4d" points="1919.45,-541.84 1917,-534.84 1914.55,-541.84 1919.45,-541.84"/>
</g>
<!-- C&#45;0845&#45;&gt;R&#45;192 -->
<g id="edge43" class="edge">
<title>C&#45;0845&#45;&gt;R&#45;192</title>
<path fill="none" stroke="#4d4d4d" d="M567,-908.58C567,-908.58 567,-858.03 567,-858.03"/>
<polygon fill="#4d4d4d" stroke="#4d4d4d" points="569.45,-858.03 567,-851.03 564.55,-858.03 569.45,-858.03"/>
</g>
<!-- S&#45;1545&#45;&gt;S&#45;1546 -->
<g id="edge55" class="edge">
<title>S&#45;1545&#45;&gt;S&#45;1546</title>
<path fill="none" stroke="#4d4d4d" d="M1171.32,-324C1131.23,-324 1089,-324 1089,-324 1089,-324 1089,-244.05 1089,-244.05"/>
<polygon fill="#4d4d4d" stroke="#4d4d4d" points="1091.45,-244.05 1089,-237.05 1086.55,-244.05 1091.45,-244.05"/>
</g>
<!-- C&#45;1082 -->
<g id="node52" class="node">
<title>C&#45;1082</title>
<ellipse fill="mediumseagreen" stroke="black" cx="1242" cy="-223.5" rx="72" ry="21.5"/>
<text text-anchor="middle" x="1242" y="-221" font-family="Arial" font-size="10.00">C&#45;1082</text>
</g>
<!-- S&#45;1545&#45;&gt;C&#45;1082 -->
<g id="edge53" class="edge">
<title>S&#45;1545&#45;&gt;C&#45;1082</title>
<path fill="none" stroke="#4d4d4d" d="M1242,-302.58C1242,-302.58 1242,-252.03 1242,-252.03"/>
<polygon fill="#4d4d4d" stroke="#4d4d4d" points="1244.45,-252.03 1242,-245.03 1239.55,-252.03 1244.45,-252.03"/>
</g>
<!-- C&#45;0007 -->
<g id="node60" class="node">
<title>C&#45;0007</title>
<ellipse fill="tomato" stroke="black" cx="1422" cy="-223.5" rx="72" ry="21.5"/>
<text text-anchor="middle" x="1422" y="-221" font-family="Arial" font-size="10.00">C&#45;0007</text>
</g>
<!-- S&#45;1545&#45;&gt;C&#45;0007 -->
<g id="edge52" class="edge">
<title>S&#45;1545&#45;&gt;C&#45;0007</title>
<path fill="none" stroke="#4d4d4d" d="M1312.37,-324C1362.85,-324 1422,-324 1422,-324 1422,-324 1422,-252.31 1422,-252.31"/>
<polygon fill="#4d4d4d" stroke="#4d4d4d" points="1424.45,-252.31 1422,-245.31 1419.55,-252.31 1424.45,-252.31"/>
</g>
<!-- R&#45;104&#45;&gt;C&#45;0570 -->
<g id="edge21" class="edge">
<title>R&#45;104&#45;&gt;C&#45;0570</title>
<path fill="none" stroke="#4d4d4d" d="M1602,-706.58C1602,-706.58 1602,-656.03 1602,-656.03"/>
<polygon fill="#4d4d4d" stroke="#4d4d4d" points="1604.45,-656.03 1602,-649.03 1599.55,-656.03 1604.45,-656.03"/>
</g>
<!-- R&#45;080 -->
<g id="node61" class="node">
<title>R&#45;080</title>
<polygon fill="tomato" stroke="black" points="1854,-719.59 1854,-737.41 1811.82,-750 1752.18,-750 1710,-737.41 1710,-719.59 1752.18,-707 1811.82,-707 1854,-719.59"/>
<text text-anchor="middle" x="1782" y="-726" font-family="Arial" font-size="10.00">R&#45;080</text>
</g>
<!-- C&#45;0436&#45;&gt;R&#45;080 -->
<g id="edge17" class="edge">
<title>C&#45;0436&#45;&gt;R&#45;080</title>
<path fill="none" stroke="#4d4d4d" d="M1782,-807.58C1782,-807.58 1782,-757.03 1782,-757.03"/>
<polygon fill="#4d4d4d" stroke="#4d4d4d" points="1784.45,-757.03 1782,-750.03 1779.55,-757.03 1784.45,-757.03"/>
</g>
<!-- S&#45;353&#45;&gt;S&#45;2250 -->
<g id="edge8" class="edge">
<title>S&#45;353&#45;&gt;S&#45;2250</title>
<path fill="none" stroke="#4d4d4d" d="M1737,-1124.23C1737,-1124.23 1737,-1046.6 1737,-1046.6"/>
<polygon fill="#4d4d4d" stroke="#4d4d4d" points="1739.45,-1046.6 1737,-1039.6 1734.55,-1046.6 1739.45,-1046.6"/>
</g>
<!-- C&#45;0418 -->
<g id="node59" class="node">
<title>C&#45;0418</title>
<ellipse fill="mediumseagreen" stroke="black" cx="1872" cy="-1031.5" rx="72" ry="21.5"/>
<text text-anchor="middle" x="1872" y="-1029" font-family="Arial" font-size="10.00">C&#45;0418</text>
</g>
<!-- S&#45;353&#45;&gt;C&#45;0418 -->
<g id="edge9" class="edge">
<title>S&#45;353&#45;&gt;C&#45;0418</title>
<path fill="none" stroke="#4d4d4d" d="M1827,-1124.23C1827,-1124.23 1827,-1055.52 1827,-1055.52"/>
<polygon fill="#4d4d4d" stroke="#4d4d4d" points="1829.45,-1055.52 1827,-1048.52 1824.55,-1055.52 1829.45,-1055.52"/>
</g>
<!-- ext_circ_110_24_ -->
<g id="node63" class="node">
<title>ext_circ_110_24_</title>
<polygon fill="lightpink" stroke="darkorange" stroke-dasharray="5,2" points="1944,-649 1800,-649 1800,-606 1944,-606 1944,-649"/>
<text text-anchor="middle" x="1872" y="-630.5" font-family="Arial" font-size="10.00">Circuito:</text>
<text text-anchor="middle" x="1872" y="-619.5" font-family="Arial" font-size="10.00">110&#45;24&#45;</text>
</g>
<!-- C&#45;0693&#45;&gt;ext_circ_110_24_ -->
<g id="edge62" class="edge">
<title>C&#45;0693&#45;&gt;ext_circ_110_24_</title>
<path fill="none" stroke="darkorange" stroke-dasharray="5,2" d="M1917,-711.37C1917,-711.37 1917,-656.31 1917,-656.31"/>
<polygon fill="darkorange" stroke="darkorange" points="1919.45,-656.31 1917,-649.31 1914.55,-656.31 1919.45,-656.31"/>
</g>
<!-- 205&#45;22&#45; -->
<g id="node51" class="node">
<title>205&#45;22&#45;</title>
<polygon fill="gold" stroke="black" points="1674,-1531.59 1674,-1549.41 1631.82,-1562 1572.18,-1562 1530,-1549.41 1530,-1531.59 1572.18,-1519 1631.82,-1519 1674,-1531.59"/>
<polygon fill="none" stroke="black" points="1678,-1528.61 1678,-1552.39 1632.41,-1566 1571.59,-1566 1526,-1552.39 1526,-1528.61 1571.59,-1515 1632.41,-1515 1678,-1528.61"/>
<text text-anchor="middle" x="1602" y="-1538" font-family="Arial" font-size="10.00">205&#45;22&#45;</text>
</g>
<!-- 205&#45;22&#45;&#45;&gt;C&#45;0071 -->
<g id="edge27" class="edge">
<title>205&#45;22&#45;&#45;&gt;C&#45;0071</title>
<path fill="none" stroke="#4d4d4d" d="M1602,-1514.81C1602,-1514.81 1602,-1464.03 1602,-1464.03"/>
<polygon fill="#4d4d4d" stroke="#4d4d4d" points="1604.45,-1464.03 1602,-1457.03 1599.55,-1464.03 1604.45,-1464.03"/>
</g>
<!-- C&#45;1082&#45;&gt;R&#45;264 -->
<g id="edge54" class="edge">
<title>C&#45;1082&#45;&gt;R&#45;264</title>
<path fill="none" stroke="#4d4d4d" d="M1252,-202.08C1252,-202.08 1252,-151.24 1252,-151.24"/>
<polygon fill="#4d4d4d" stroke="#4d4d4d" points="1254.45,-151.24 1252,-144.24 1249.55,-151.24 1254.45,-151.24"/>
</g>
<!-- S&#45;346&#45;&gt;S&#45;1284 -->
<g id="edge32" class="edge">
<title>S&#45;346&#45;&gt;S&#45;1284</title>
<path fill="none" stroke="#4d4d4d" d="M1621.53,-1334C1610.14,-1334 1602,-1334 1602,-1334 1602,-1334 1602,-1233 1602,-1233 1602,-1233 1589.47,-1233 1589.47,-1233"/>
<polygon fill="#4d4d4d" stroke="#4d4d4d" points="1589.47,-1230.55 1582.47,-1233 1589.47,-1235.45 1589.47,-1230.55"/>
</g>
<!-- S&#45;346&#45;&gt;S&#45;2568 -->
<g id="edge30" class="edge">
<title>S&#45;346&#45;&gt;S&#45;2568</title>
<path fill="none" stroke="#4d4d4d" d="M1692,-1312.58C1692,-1312.58 1692,-1262.03 1692,-1262.03"/>
<polygon fill="#4d4d4d" stroke="#4d4d4d" points="1694.45,-1262.03 1692,-1255.03 1689.55,-1262.03 1694.45,-1262.03"/>
</g>
<!-- S&#45;347 -->
<g id="node57" class="node">
<title>S&#45;347</title>
<polygon fill="mediumseagreen" stroke="black" points="1872,-1255 1800,-1233.5 1872,-1212 1944,-1233.5 1872,-1255"/>
<text text-anchor="middle" x="1872" y="-1231" font-family="Arial" font-size="10.00">S&#45;347</text>
</g>
<!-- S&#45;346&#45;&gt;S&#45;347 -->
<g id="edge31" class="edge">
<title>S&#45;346&#45;&gt;S&#45;347</title>
<path fill="none" stroke="#4d4d4d" d="M1762.37,-1334C1812.85,-1334 1872,-1334 1872,-1334 1872,-1334 1872,-1262.31 1872,-1262.31"/>
<polygon fill="#4d4d4d" stroke="#4d4d4d" points="1874.45,-1262.31 1872,-1255.31 1869.55,-1262.31 1874.45,-1262.31"/>
</g>
<!-- S&#45;2139&#45;&gt;S&#45;2525 -->
<g id="edge2" class="edge">
<title>S&#45;2139&#45;&gt;S&#45;2525</title>
<path fill="none" stroke="#4d4d4d" d="M972,-605.58C972,-605.58 972,-555.03 972,-555.03"/>
<polygon fill="#4d4d4d" stroke="#4d4d4d" points="974.45,-555.03 972,-548.03 969.55,-555.03 974.45,-555.03"/>
</g>
<!-- C&#45;0418&#45;&gt;S&#45;356 -->
<g id="edge12" class="edge">
<title>C&#45;0418&#45;&gt;S&#45;356</title>
<path fill="none" stroke="#4d4d4d" d="M1827,-1014.48C1827,-988.26 1827,-941 1827,-941 1827,-941 1735.89,-941 1735.89,-941"/>
<polygon fill="#4d4d4d" stroke="#4d4d4d" points="1735.89,-938.55 1728.89,-941 1735.89,-943.45 1735.89,-938.55"/>
</g>
<!-- C&#45;0418&#45;&gt;S&#45;2242 -->
<g id="edge10" class="edge">
<title>C&#45;0418&#45;&gt;S&#45;2242</title>
<path fill="none" stroke="#4d4d4d" d="M1926,-1016.96C1926,-988.89 1926,-930 1926,-930 1926,-930 1958.4,-930 1958.4,-930"/>
<polygon fill="#4d4d4d" stroke="#4d4d4d" points="1958.4,-932.45 1965.4,-930 1958.4,-927.55 1958.4,-932.45"/>
</g>
<!-- C&#45;0007&#45;&gt;ext_circ_101_23_ -->
<g id="edge66" class="edge">
<title>C&#45;0007&#45;&gt;ext_circ_101_23_</title>
<path fill="none" stroke="darkorange" stroke-dasharray="5,2" d="M1375.5,-206.97C1375.5,-206.97 1375.5,-50.06 1375.5,-50.06"/>
<polygon fill="darkorange" stroke="darkorange" points="1377.95,-50.06 1375.5,-43.06 1373.05,-50.06 1377.95,-50.06"/>
</g>
<!-- R&#45;080&#45;&gt;ext_circ_110_24_ -->
<g id="edge63" class="edge">
<title>R&#45;080&#45;&gt;ext_circ_110_24_</title>
<path fill="none" stroke="darkorange" stroke-dasharray="5,2" d="M1827,-711.37C1827,-711.37 1827,-656.31 1827,-656.31"/>
<polygon fill="darkorange" stroke="darkorange" points="1829.45,-656.31 1827,-649.31 1824.55,-656.31 1829.45,-656.31"/>
</g>
</g>
</svg>
