<?xml version="1.0" encoding="UTF-8" standalone="no"?>
<!DOCTYPE svg PUBLIC "-//W3C//DTD SVG 1.1//EN"
 "http://www.w3.org/Graphics/SVG/1.1/DTD/svg11.dtd">
<!-- Generated by graphviz version 2.50.0 (0)
 -->
<!-- Title: Grafo_Circuito_303_24_ Pages: 1 -->
<svg width="1475pt" height="1069pt"
 viewBox="0.00 0.00 1475.00 1069.00" xmlns="http://www.w3.org/2000/svg" xmlns:xlink="http://www.w3.org/1999/xlink">
<g id="graph0" class="graph" transform="scale(1 1) rotate(0) translate(4 1065)">
<title>Grafo_Circuito_303_24_</title>
<polygon fill="white" stroke="transparent" points="-4,4 -4,-1065 1471,-1065 1471,4 -4,4"/>
<!-- C&#45;0005 -->
<g id="node1" class="node">
<title>C&#45;0005</title>
<ellipse fill="mediumseagreen" stroke="black" cx="765" cy="-829.5" rx="72" ry="21.5"/>
<text text-anchor="middle" x="765" y="-827" font-family="Arial" font-size="10.00">C&#45;0005</text>
</g>
<!-- S&#45;950 -->
<g id="node11" class="node">
<title>S&#45;950</title>
<polygon fill="mediumseagreen" stroke="black" points="405,-750 333,-728.5 405,-707 477,-728.5 405,-750"/>
<text text-anchor="middle" x="405" y="-726" font-family="Arial" font-size="10.00">S&#45;950</text>
</g>
<!-- C&#45;0005&#45;&gt;S&#45;950 -->
<g id="edge26" class="edge">
<title>C&#45;0005&#45;&gt;S&#45;950</title>
<path fill="none" stroke="#4d4d4d" d="M696.01,-836C591.48,-836 405,-836 405,-836 405,-836 405,-757.25 405,-757.25"/>
<polygon fill="#4d4d4d" stroke="#4d4d4d" points="407.45,-757.25 405,-750.25 402.55,-757.25 407.45,-757.25"/>
</g>
<!-- S&#45;944 -->
<g id="node20" class="node">
<title>S&#45;944</title>
<polygon fill="mediumseagreen" stroke="black" points="585,-750 513,-728.5 585,-707 657,-728.5 585,-750"/>
<text text-anchor="middle" x="585" y="-726" font-family="Arial" font-size="10.00">S&#45;944</text>
</g>
<!-- C&#45;0005&#45;&gt;S&#45;944 -->
<g id="edge3" class="edge">
<title>C&#45;0005&#45;&gt;S&#45;944</title>
<path fill="none" stroke="#4d4d4d" d="M697.46,-822C646.39,-822 585,-822 585,-822 585,-822 585,-757.19 585,-757.19"/>
<polygon fill="#4d4d4d" stroke="#4d4d4d" points="587.45,-757.19 585,-750.19 582.55,-757.19 587.45,-757.19"/>
</g>
<!-- C&#45;0271 -->
<g id="node27" class="node">
<title>C&#45;0271</title>
<ellipse fill="tomato" stroke="black" cx="765" cy="-728.5" rx="72" ry="21.5"/>
<text text-anchor="middle" x="765" y="-726" font-family="Arial" font-size="10.00">C&#45;0271</text>
</g>
<!-- C&#45;0005&#45;&gt;C&#45;0271 -->
<g id="edge25" class="edge">
<title>C&#45;0005&#45;&gt;C&#45;0271</title>
<path fill="none" stroke="#4d4d4d" d="M765,-807.58C765,-807.58 765,-757.03 765,-757.03"/>
<polygon fill="#4d4d4d" stroke="#4d4d4d" points="767.45,-757.03 765,-750.03 762.55,-757.03 767.45,-757.03"/>
</g>
<!-- S&#45;1448 -->
<g id="node30" class="node">
<title>S&#45;1448</title>
<polygon fill="mediumseagreen" stroke="black" points="945,-750 873,-728.5 945,-707 1017,-728.5 945,-750"/>
<text text-anchor="middle" x="945" y="-726" font-family="Arial" font-size="10.00">S&#45;1448</text>
</g>
<!-- C&#45;0005&#45;&gt;S&#45;1448 -->
<g id="edge24" class="edge">
<title>C&#45;0005&#45;&gt;S&#45;1448</title>
<path fill="none" stroke="#4d4d4d" d="M826.21,-818C869.91,-818 921,-818 921,-818 921,-818 921,-749.88 921,-749.88"/>
<polygon fill="#4d4d4d" stroke="#4d4d4d" points="923.45,-749.88 921,-742.88 918.55,-749.88 923.45,-749.88"/>
</g>
<!-- C&#45;0006 -->
<g id="node2" class="node">
<title>C&#45;0006</title>
<ellipse fill="mediumseagreen" stroke="black" cx="1215" cy="-425.5" rx="72" ry="21.5"/>
<text text-anchor="middle" x="1215" y="-423" font-family="Arial" font-size="10.00">C&#45;0006</text>
</g>
<!-- C&#45;1136 -->
<g id="node21" class="node">
<title>C&#45;1136</title>
<ellipse fill="mediumseagreen" stroke="black" cx="1145" cy="-324.5" rx="72" ry="21.5"/>
<text text-anchor="middle" x="1145" y="-322" font-family="Arial" font-size="10.00">C&#45;1136</text>
</g>
<!-- C&#45;0006&#45;&gt;C&#45;1136 -->
<g id="edge36" class="edge">
<title>C&#45;0006&#45;&gt;C&#45;1136</title>
<path fill="none" stroke="#4d4d4d" d="M1180,-406.5C1180,-406.5 1180,-350.41 1180,-350.41"/>
<polygon fill="#4d4d4d" stroke="#4d4d4d" points="1182.45,-350.41 1180,-343.41 1177.55,-350.41 1182.45,-350.41"/>
</g>
<!-- C&#45;0040 -->
<g id="node36" class="node">
<title>C&#45;0040</title>
<ellipse fill="tomato" stroke="black" cx="1311" cy="-223.5" rx="72" ry="21.5"/>
<text text-anchor="middle" x="1311" y="-221" font-family="Arial" font-size="10.00">C&#45;0040</text>
</g>
<!-- C&#45;0006&#45;&gt;C&#45;0040 -->
<g id="edge35" class="edge">
<title>C&#45;0006&#45;&gt;C&#45;0040</title>
<path fill="none" stroke="#4d4d4d" d="M1263,-409.31C1263,-409.31 1263,-246.77 1263,-246.77"/>
<polygon fill="#4d4d4d" stroke="#4d4d4d" points="1265.45,-246.77 1263,-239.77 1260.55,-246.77 1265.45,-246.77"/>
</g>
<!-- C&#45;0531 -->
<g id="node3" class="node">
<title>C&#45;0531</title>
<ellipse fill="mediumseagreen" stroke="black" cx="675" cy="-425.5" rx="72" ry="21.5"/>
<text text-anchor="middle" x="675" y="-423" font-family="Arial" font-size="10.00">C&#45;0531</text>
</g>
<!-- R&#45;009 -->
<g id="node5" class="node">
<title>R&#45;009</title>
<polygon fill="mediumseagreen" stroke="black" points="747,-315.59 747,-333.41 704.82,-346 645.18,-346 603,-333.41 603,-315.59 645.18,-303 704.82,-303 747,-315.59"/>
<text text-anchor="middle" x="675" y="-322" font-family="Arial" font-size="10.00">R&#45;009</text>
</g>
<!-- C&#45;0531&#45;&gt;R&#45;009 -->
<g id="edge9" class="edge">
<title>C&#45;0531&#45;&gt;R&#45;009</title>
<path fill="none" stroke="#4d4d4d" d="M675,-403.58C675,-403.58 675,-353.03 675,-353.03"/>
<polygon fill="#4d4d4d" stroke="#4d4d4d" points="677.45,-353.03 675,-346.03 672.55,-353.03 677.45,-353.03"/>
</g>
<!-- S&#45;256 -->
<g id="node4" class="node">
<title>S&#45;256</title>
<polygon fill="mediumseagreen" stroke="black" points="135,-447 63,-425.5 135,-404 207,-425.5 135,-447"/>
<text text-anchor="middle" x="135" y="-423" font-family="Arial" font-size="10.00">S&#45;256</text>
</g>
<!-- C&#45;0529 -->
<g id="node9" class="node">
<title>C&#45;0529</title>
<ellipse fill="mediumseagreen" stroke="black" cx="675" cy="-223.5" rx="72" ry="21.5"/>
<text text-anchor="middle" x="675" y="-221" font-family="Arial" font-size="10.00">C&#45;0529</text>
</g>
<!-- R&#45;009&#45;&gt;C&#45;0529 -->
<g id="edge10" class="edge">
<title>R&#45;009&#45;&gt;C&#45;0529</title>
<path fill="none" stroke="#4d4d4d" d="M675,-302.58C675,-302.58 675,-252.03 675,-252.03"/>
<polygon fill="#4d4d4d" stroke="#4d4d4d" points="677.45,-252.03 675,-245.03 672.55,-252.03 677.45,-252.03"/>
</g>
<!-- S&#45;1800 -->
<g id="node6" class="node">
<title>S&#45;1800</title>
<polygon fill="mediumseagreen" stroke="black" points="559,-43 487,-21.5 559,0 631,-21.5 559,-43"/>
<text text-anchor="middle" x="559" y="-19" font-family="Arial" font-size="10.00">S&#45;1800</text>
</g>
<!-- S&#45;1873 -->
<g id="node7" class="node">
<title>S&#45;1873</title>
<polygon fill="mediumseagreen" stroke="black" points="739,-43 667,-21.5 739,0 811,-21.5 739,-43"/>
<text text-anchor="middle" x="739" y="-19" font-family="Arial" font-size="10.00">S&#45;1873</text>
</g>
<!-- C&#45;0486 -->
<g id="node8" class="node">
<title>C&#45;0486</title>
<ellipse fill="mediumseagreen" stroke="black" cx="1125" cy="-829.5" rx="72" ry="21.5"/>
<text text-anchor="middle" x="1125" y="-827" font-family="Arial" font-size="10.00">C&#45;0486</text>
</g>
<!-- C&#45;0889 -->
<g id="node24" class="node">
<title>C&#45;0889</title>
<ellipse fill="tomato" stroke="black" cx="1125" cy="-728.5" rx="72" ry="21.5"/>
<text text-anchor="middle" x="1125" y="-726" font-family="Arial" font-size="10.00">C&#45;0889</text>
</g>
<!-- C&#45;0486&#45;&gt;C&#45;0889 -->
<g id="edge29" class="edge">
<title>C&#45;0486&#45;&gt;C&#45;0889</title>
<path fill="none" stroke="#4d4d4d" d="M1125,-807.58C1125,-807.58 1125,-757.03 1125,-757.03"/>
<polygon fill="#4d4d4d" stroke="#4d4d4d" points="1127.45,-757.03 1125,-750.03 1122.55,-757.03 1127.45,-757.03"/>
</g>
<!-- C&#45;0890 -->
<g id="node32" class="node">
<title>C&#45;0890</title>
<ellipse fill="mediumseagreen" stroke="black" cx="1305" cy="-728.5" rx="72" ry="21.5"/>
<text text-anchor="middle" x="1305" y="-726" font-family="Arial" font-size="10.00">C&#45;0890</text>
</g>
<!-- C&#45;0486&#45;&gt;C&#45;0890 -->
<g id="edge30" class="edge">
<title>C&#45;0486&#45;&gt;C&#45;0890</title>
<path fill="none" stroke="#4d4d4d" d="M1197.18,-829C1247.25,-829 1305,-829 1305,-829 1305,-829 1305,-757.31 1305,-757.31"/>
<polygon fill="#4d4d4d" stroke="#4d4d4d" points="1307.45,-757.31 1305,-750.31 1302.55,-757.31 1307.45,-757.31"/>
</g>
<!-- C&#45;0103 -->
<g id="node14" class="node">
<title>C&#45;0103</title>
<ellipse fill="tomato" stroke="black" cx="559" cy="-122.5" rx="72" ry="21.5"/>
<text text-anchor="middle" x="559" y="-120" font-family="Arial" font-size="10.00">C&#45;0103</text>
</g>
<!-- C&#45;0529&#45;&gt;C&#45;0103 -->
<g id="edge11" class="edge">
<title>C&#45;0529&#45;&gt;C&#45;0103</title>
<path fill="none" stroke="#4d4d4d" d="M617,-210.71C617,-210.71 617,-142.51 617,-142.51"/>
<polygon fill="#4d4d4d" stroke="#4d4d4d" points="619.45,-142.51 617,-135.51 614.55,-142.51 619.45,-142.51"/>
</g>
<!-- S&#45;945 -->
<g id="node25" class="node">
<title>S&#45;945</title>
<polygon fill="mediumseagreen" stroke="black" points="739,-144 667,-122.5 739,-101 811,-122.5 739,-144"/>
<text text-anchor="middle" x="739" y="-120" font-family="Arial" font-size="10.00">S&#45;945</text>
</g>
<!-- C&#45;0529&#45;&gt;S&#45;945 -->
<g id="edge12" class="edge">
<title>C&#45;0529&#45;&gt;S&#45;945</title>
<path fill="none" stroke="#4d4d4d" d="M707,-204.03C707,-204.03 707,-141.62 707,-141.62"/>
<polygon fill="#4d4d4d" stroke="#4d4d4d" points="709.45,-141.62 707,-134.62 704.55,-141.62 709.45,-141.62"/>
</g>
<!-- S&#45;1842 -->
<g id="node10" class="node">
<title>S&#45;1842</title>
<polygon fill="mediumseagreen" stroke="black" points="72,-245 0,-223.5 72,-202 144,-223.5 72,-245"/>
<text text-anchor="middle" x="72" y="-221" font-family="Arial" font-size="10.00">S&#45;1842</text>
</g>
<!-- S&#45;1719 -->
<g id="node28" class="node">
<title>S&#45;1719</title>
<polygon fill="tomato" stroke="black" points="405,-649 333,-627.5 405,-606 477,-627.5 405,-649"/>
<text text-anchor="middle" x="405" y="-625" font-family="Arial" font-size="10.00">S&#45;1719</text>
</g>
<!-- S&#45;950&#45;&gt;S&#45;1719 -->
<g id="edge27" class="edge">
<title>S&#45;950&#45;&gt;S&#45;1719</title>
<path fill="none" stroke="#4d4d4d" d="M381,-714.03C381,-714.03 381,-648.94 381,-648.94"/>
<polygon fill="#4d4d4d" stroke="#4d4d4d" points="383.45,-648.94 381,-641.94 378.55,-648.94 383.45,-648.94"/>
</g>
<!-- S&#45;263 -->
<g id="node12" class="node">
<title>S&#45;263</title>
<polygon fill="mediumseagreen" stroke="black" points="252,-346 180,-324.5 252,-303 324,-324.5 252,-346"/>
<text text-anchor="middle" x="252" y="-322" font-family="Arial" font-size="10.00">S&#45;263</text>
</g>
<!-- S&#45;263&#45;&gt;S&#45;1842 -->
<g id="edge22" class="edge">
<title>S&#45;263&#45;&gt;S&#45;1842</title>
<path fill="none" stroke="#4d4d4d" d="M181.66,-324C143.28,-324 103.5,-324 103.5,-324 103.5,-324 103.5,-242.82 103.5,-242.82"/>
<polygon fill="#4d4d4d" stroke="#4d4d4d" points="105.95,-242.82 103.5,-235.82 101.05,-242.82 105.95,-242.82"/>
</g>
<!-- S&#45;2096 -->
<g id="node17" class="node">
<title>S&#45;2096</title>
<polygon fill="mediumseagreen" stroke="black" points="252,-245 180,-223.5 252,-202 324,-223.5 252,-245"/>
<text text-anchor="middle" x="252" y="-221" font-family="Arial" font-size="10.00">S&#45;2096</text>
</g>
<!-- S&#45;263&#45;&gt;S&#45;2096 -->
<g id="edge21" class="edge">
<title>S&#45;263&#45;&gt;S&#45;2096</title>
<path fill="none" stroke="#4d4d4d" d="M252,-302.58C252,-302.58 252,-252.03 252,-252.03"/>
<polygon fill="#4d4d4d" stroke="#4d4d4d" points="254.45,-252.03 252,-245.03 249.55,-252.03 254.45,-252.03"/>
</g>
<!-- C&#45;0888 -->
<g id="node13" class="node">
<title>C&#45;0888</title>
<ellipse fill="mediumseagreen" stroke="black" cx="1305" cy="-526.5" rx="72" ry="21.5"/>
<text text-anchor="middle" x="1305" y="-524" font-family="Arial" font-size="10.00">C&#45;0888</text>
</g>
<!-- C&#45;0888&#45;&gt;C&#45;0006 -->
<g id="edge34" class="edge">
<title>C&#45;0888&#45;&gt;C&#45;0006</title>
<path fill="none" stroke="#4d4d4d" d="M1260,-509.37C1260,-509.37 1260,-449.38 1260,-449.38"/>
<polygon fill="#4d4d4d" stroke="#4d4d4d" points="1262.45,-449.38 1260,-442.38 1257.55,-449.38 1262.45,-449.38"/>
</g>
<!-- S&#45;254 -->
<g id="node37" class="node">
<title>S&#45;254</title>
<polygon fill="mediumseagreen" stroke="black" points="1395,-447 1323,-425.5 1395,-404 1467,-425.5 1395,-447"/>
<text text-anchor="middle" x="1395" y="-423" font-family="Arial" font-size="10.00">S&#45;254</text>
</g>
<!-- C&#45;0888&#45;&gt;S&#45;254 -->
<g id="edge33" class="edge">
<title>C&#45;0888&#45;&gt;S&#45;254</title>
<path fill="none" stroke="#4d4d4d" d="M1350,-509.37C1350,-509.37 1350,-440.78 1350,-440.78"/>
<polygon fill="#4d4d4d" stroke="#4d4d4d" points="1352.45,-440.78 1350,-433.78 1347.55,-440.78 1352.45,-440.78"/>
</g>
<!-- ext_circ_303_23_ -->
<g id="node39" class="node">
<title>ext_circ_303_23_</title>
<polygon fill="lightpink" stroke="darkorange" stroke-dasharray="5,2" points="451,-43 307,-43 307,0 451,0 451,-43"/>
<text text-anchor="middle" x="379" y="-24.5" font-family="Arial" font-size="10.00">Circuito:</text>
<text text-anchor="middle" x="379" y="-13.5" font-family="Arial" font-size="10.00">303&#45;23&#45;</text>
</g>
<!-- C&#45;0103&#45;&gt;ext_circ_303_23_ -->
<g id="edge39" class="edge">
<title>C&#45;0103&#45;&gt;ext_circ_303_23_</title>
<path fill="none" stroke="darkorange" stroke-dasharray="5,2" d="M559,-100.79C559,-87.1 559,-72 559,-72 559,-72 403,-72 403,-72 403,-72 403,-50.21 403,-50.21"/>
<polygon fill="darkorange" stroke="darkorange" points="405.45,-50.21 403,-43.21 400.55,-50.21 405.45,-50.21"/>
</g>
<!-- S&#45;262 -->
<g id="node15" class="node">
<title>S&#45;262</title>
<polygon fill="mediumseagreen" stroke="black" points="315,-447 243,-425.5 315,-404 387,-425.5 315,-447"/>
<text text-anchor="middle" x="315" y="-423" font-family="Arial" font-size="10.00">S&#45;262</text>
</g>
<!-- S&#45;262&#45;&gt;S&#45;263 -->
<g id="edge20" class="edge">
<title>S&#45;262&#45;&gt;S&#45;263</title>
<path fill="none" stroke="#4d4d4d" d="M283.5,-413.12C283.5,-413.12 283.5,-343.67 283.5,-343.67"/>
<polygon fill="#4d4d4d" stroke="#4d4d4d" points="285.95,-343.67 283.5,-336.67 281.05,-343.67 285.95,-343.67"/>
</g>
<!-- C&#45;0126 -->
<g id="node16" class="node">
<title>C&#45;0126</title>
<ellipse fill="tomato" stroke="black" cx="379" cy="-122.5" rx="72" ry="21.5"/>
<text text-anchor="middle" x="379" y="-120" font-family="Arial" font-size="10.00">C&#45;0126</text>
</g>
<!-- S&#45;262&#45;&gt;C&#45;0126 -->
<g id="edge19" class="edge">
<title>S&#45;262&#45;&gt;C&#45;0126</title>
<path fill="none" stroke="#4d4d4d" d="M355.5,-415.76C355.5,-415.76 355.5,-149.96 355.5,-149.96"/>
<polygon fill="#4d4d4d" stroke="#4d4d4d" points="357.95,-149.96 355.5,-142.96 353.05,-149.96 357.95,-149.96"/>
</g>
<!-- C&#45;0126&#45;&gt;ext_circ_303_23_ -->
<g id="edge41" class="edge">
<title>C&#45;0126&#45;&gt;ext_circ_303_23_</title>
<path fill="none" stroke="darkorange" stroke-dasharray="5,2" d="M355,-102.06C355,-102.06 355,-50.31 355,-50.31"/>
<polygon fill="darkorange" stroke="darkorange" points="357.45,-50.31 355,-43.31 352.55,-50.31 357.45,-50.31"/>
</g>
<!-- R&#45;008 -->
<g id="node18" class="node">
<title>R&#45;008</title>
<polygon fill="mediumseagreen" stroke="black" points="387,-517.59 387,-535.41 344.82,-548 285.18,-548 243,-535.41 243,-517.59 285.18,-505 344.82,-505 387,-517.59"/>
<text text-anchor="middle" x="315" y="-524" font-family="Arial" font-size="10.00">R&#45;008</text>
</g>
<!-- R&#45;008&#45;&gt;S&#45;256 -->
<g id="edge23" class="edge">
<title>R&#45;008&#45;&gt;S&#45;256</title>
<path fill="none" stroke="#4d4d4d" d="M242.82,-526C192.75,-526 135,-526 135,-526 135,-526 135,-454.31 135,-454.31"/>
<polygon fill="#4d4d4d" stroke="#4d4d4d" points="137.45,-454.31 135,-447.31 132.55,-454.31 137.45,-454.31"/>
</g>
<!-- R&#45;008&#45;&gt;S&#45;262 -->
<g id="edge18" class="edge">
<title>R&#45;008&#45;&gt;S&#45;262</title>
<path fill="none" stroke="#4d4d4d" d="M315,-504.58C315,-504.58 315,-454.03 315,-454.03"/>
<polygon fill="#4d4d4d" stroke="#4d4d4d" points="317.45,-454.03 315,-447.03 312.55,-454.03 317.45,-454.03"/>
</g>
<!-- R&#45;206 -->
<g id="node19" class="node">
<title>R&#45;206</title>
<polygon fill="mediumseagreen" stroke="black" points="1377,-618.59 1377,-636.41 1334.82,-649 1275.18,-649 1233,-636.41 1233,-618.59 1275.18,-606 1334.82,-606 1377,-618.59"/>
<text text-anchor="middle" x="1305" y="-625" font-family="Arial" font-size="10.00">R&#45;206</text>
</g>
<!-- R&#45;206&#45;&gt;C&#45;0888 -->
<g id="edge32" class="edge">
<title>R&#45;206&#45;&gt;C&#45;0888</title>
<path fill="none" stroke="#4d4d4d" d="M1305,-605.58C1305,-605.58 1305,-555.03 1305,-555.03"/>
<polygon fill="#4d4d4d" stroke="#4d4d4d" points="1307.45,-555.03 1305,-548.03 1302.55,-555.03 1307.45,-555.03"/>
</g>
<!-- S&#45;1626 -->
<g id="node35" class="node">
<title>S&#45;1626</title>
<polygon fill="mediumseagreen" stroke="black" points="585,-649 513,-627.5 585,-606 657,-627.5 585,-649"/>
<text text-anchor="middle" x="585" y="-625" font-family="Arial" font-size="10.00">S&#45;1626</text>
</g>
<!-- S&#45;944&#45;&gt;S&#45;1626 -->
<g id="edge4" class="edge">
<title>S&#45;944&#45;&gt;S&#45;1626</title>
<path fill="none" stroke="#4d4d4d" d="M585,-706.58C585,-706.58 585,-656.03 585,-656.03"/>
<polygon fill="#4d4d4d" stroke="#4d4d4d" points="587.45,-656.03 585,-649.03 582.55,-656.03 587.45,-656.03"/>
</g>
<!-- R&#45;286 -->
<g id="node23" class="node">
<title>R&#45;286</title>
<polygon fill="tomato" stroke="black" points="1203,-214.59 1203,-232.41 1160.82,-245 1101.18,-245 1059,-232.41 1059,-214.59 1101.18,-202 1160.82,-202 1203,-214.59"/>
<text text-anchor="middle" x="1131" y="-221" font-family="Arial" font-size="10.00">R&#45;286</text>
</g>
<!-- C&#45;1136&#45;&gt;R&#45;286 -->
<g id="edge37" class="edge">
<title>C&#45;1136&#45;&gt;R&#45;286</title>
<path fill="none" stroke="#4d4d4d" d="M1138,-303.08C1138,-303.08 1138,-252.24 1138,-252.24"/>
<polygon fill="#4d4d4d" stroke="#4d4d4d" points="1140.45,-252.24 1138,-245.24 1135.55,-252.24 1140.45,-252.24"/>
</g>
<!-- S&#45;2170 -->
<g id="node22" class="node">
<title>S&#45;2170</title>
<polygon fill="tomato" stroke="black" points="495,-447 423,-425.5 495,-404 567,-425.5 495,-447"/>
<text text-anchor="middle" x="495" y="-423" font-family="Arial" font-size="10.00">S&#45;2170</text>
</g>
<!-- S&#45;2170&#45;&gt;S&#45;1626 -->
<g id="edge40" class="edge">
<title>S&#45;2170&#45;&gt;S&#45;1626</title>
<path fill="none" stroke="blue" stroke-dasharray="5,2" d="M501,-445.22C501,-494.67 501,-620 501,-620 501,-620 531.09,-620 531.09,-620"/>
<polygon fill="blue" stroke="blue" points="531.09,-622.45 538.09,-620 531.09,-617.55 531.09,-622.45"/>
</g>
<!-- ext_circ_303_27_ -->
<g id="node41" class="node">
<title>ext_circ_303_27_</title>
<polygon fill="lightpink" stroke="darkorange" stroke-dasharray="5,2" points="1293,-144 1149,-144 1149,-101 1293,-101 1293,-144"/>
<text text-anchor="middle" x="1221" y="-125.5" font-family="Arial" font-size="10.00">Circuito:</text>
<text text-anchor="middle" x="1221" y="-114.5" font-family="Arial" font-size="10.00">303&#45;27&#45;</text>
</g>
<!-- R&#45;286&#45;&gt;ext_circ_303_27_ -->
<g id="edge46" class="edge">
<title>R&#45;286&#45;&gt;ext_circ_303_27_</title>
<path fill="none" stroke="darkorange" stroke-dasharray="5,2" d="M1176,-206.37C1176,-206.37 1176,-151.31 1176,-151.31"/>
<polygon fill="darkorange" stroke="darkorange" points="1178.45,-151.31 1176,-144.31 1173.55,-151.31 1178.45,-151.31"/>
</g>
<!-- C&#45;0889&#45;&gt;C&#45;0888 -->
<g id="edge44" class="edge">
<title>C&#45;0889&#45;&gt;C&#45;0888</title>
<path fill="none" stroke="blue" stroke-dasharray="5,2" d="M1170,-711.58C1170,-662.91 1170,-526 1170,-526 1170,-526 1225.76,-526 1225.76,-526"/>
<polygon fill="blue" stroke="blue" points="1225.76,-528.45 1232.76,-526 1225.76,-523.55 1225.76,-528.45"/>
</g>
<!-- S&#45;945&#45;&gt;S&#45;1800 -->
<g id="edge13" class="edge">
<title>S&#45;945&#45;&gt;S&#45;1800</title>
<path fill="none" stroke="#4d4d4d" d="M668.53,-122C657.14,-122 649,-122 649,-122 649,-122 649,-21 649,-21 649,-21 636.47,-21 636.47,-21"/>
<polygon fill="#4d4d4d" stroke="#4d4d4d" points="636.47,-18.55 629.47,-21 636.47,-23.45 636.47,-18.55"/>
</g>
<!-- S&#45;945&#45;&gt;S&#45;1873 -->
<g id="edge14" class="edge">
<title>S&#45;945&#45;&gt;S&#45;1873</title>
<path fill="none" stroke="#4d4d4d" d="M739,-100.58C739,-100.58 739,-50.03 739,-50.03"/>
<polygon fill="#4d4d4d" stroke="#4d4d4d" points="741.45,-50.03 739,-43.03 736.55,-50.03 741.45,-50.03"/>
</g>
<!-- S&#45;2125 -->
<g id="node26" class="node">
<title>S&#45;2125</title>
<polygon fill="mediumseagreen" stroke="black" points="919,-43 847,-21.5 919,0 991,-21.5 919,-43"/>
<text text-anchor="middle" x="919" y="-19" font-family="Arial" font-size="10.00">S&#45;2125</text>
</g>
<!-- S&#45;945&#45;&gt;S&#45;2125 -->
<g id="edge15" class="edge">
<title>S&#45;945&#45;&gt;S&#45;2125</title>
<path fill="none" stroke="#4d4d4d" d="M809.53,-122C847.65,-122 887,-122 887,-122 887,-122 887,-40.82 887,-40.82"/>
<polygon fill="#4d4d4d" stroke="#4d4d4d" points="889.45,-40.82 887,-33.82 884.55,-40.82 889.45,-40.82"/>
</g>
<!-- ext_circ_303_28_ -->
<g id="node40" class="node">
<title>ext_circ_303_28_</title>
<polygon fill="lightpink" stroke="darkorange" stroke-dasharray="5,2" points="837,-649 693,-649 693,-606 837,-606 837,-649"/>
<text text-anchor="middle" x="765" y="-630.5" font-family="Arial" font-size="10.00">Circuito:</text>
<text text-anchor="middle" x="765" y="-619.5" font-family="Arial" font-size="10.00">303&#45;28&#45;</text>
</g>
<!-- C&#45;0271&#45;&gt;ext_circ_303_28_ -->
<g id="edge42" class="edge">
<title>C&#45;0271&#45;&gt;ext_circ_303_28_</title>
<path fill="none" stroke="darkorange" stroke-dasharray="5,2" d="M765,-706.58C765,-706.58 765,-656.03 765,-656.03"/>
<polygon fill="darkorange" stroke="darkorange" points="767.45,-656.03 765,-649.03 762.55,-656.03 767.45,-656.03"/>
</g>
<!-- S&#45;1719&#45;&gt;C&#45;0486 -->
<g id="edge43" class="edge">
<title>S&#45;1719&#45;&gt;C&#45;0486</title>
<path fill="none" stroke="blue" stroke-dasharray="5,2" d="M429,-641.84C429,-656.77 429,-678 429,-678 429,-678 853,-678 853,-678 853,-678 853,-829 853,-829 853,-829 1045.82,-829 1045.82,-829"/>
<polygon fill="blue" stroke="blue" points="1045.82,-831.45 1052.82,-829 1045.82,-826.55 1045.82,-831.45"/>
</g>
<!-- S&#45;1622 -->
<g id="node29" class="node">
<title>S&#45;1622</title>
<polygon fill="mediumseagreen" stroke="black" points="585,-548 513,-526.5 585,-505 657,-526.5 585,-548"/>
<text text-anchor="middle" x="585" y="-524" font-family="Arial" font-size="10.00">S&#45;1622</text>
</g>
<!-- S&#45;1622&#45;&gt;C&#45;0531 -->
<g id="edge7" class="edge">
<title>S&#45;1622&#45;&gt;C&#45;0531</title>
<path fill="none" stroke="#4d4d4d" d="M621,-515.69C621,-515.69 621,-446.78 621,-446.78"/>
<polygon fill="#4d4d4d" stroke="#4d4d4d" points="623.45,-446.78 621,-439.78 618.55,-446.78 623.45,-446.78"/>
</g>
<!-- S&#45;1622&#45;&gt;S&#45;2170 -->
<g id="edge16" class="edge">
<title>S&#45;1622&#45;&gt;S&#45;2170</title>
<path fill="none" stroke="#4d4d4d" d="M540,-518.23C540,-518.23 540,-440.6 540,-440.6"/>
<polygon fill="#4d4d4d" stroke="#4d4d4d" points="542.45,-440.6 540,-433.6 537.55,-440.6 542.45,-440.6"/>
</g>
<!-- C&#45;0530 -->
<g id="node31" class="node">
<title>C&#45;0530</title>
<ellipse fill="tomato" stroke="black" cx="855" cy="-425.5" rx="72" ry="21.5"/>
<text text-anchor="middle" x="855" y="-423" font-family="Arial" font-size="10.00">C&#45;0530</text>
</g>
<!-- S&#45;1622&#45;&gt;C&#45;0530 -->
<g id="edge8" class="edge">
<title>S&#45;1622&#45;&gt;C&#45;0530</title>
<path fill="none" stroke="#4d4d4d" d="M639,-521.1C639,-508.07 639,-476 639,-476 639,-476 810,-476 810,-476 810,-476 810,-449.32 810,-449.32"/>
<polygon fill="#4d4d4d" stroke="#4d4d4d" points="812.45,-449.32 810,-442.32 807.55,-449.32 812.45,-449.32"/>
</g>
<!-- C&#45;0530&#45;&gt;C&#45;0529 -->
<g id="edge38" class="edge">
<title>C&#45;0530&#45;&gt;C&#45;0529</title>
<path fill="none" stroke="blue" stroke-dasharray="5,2" d="M797,-412.52C797,-367.83 797,-223 797,-223 797,-223 754.03,-223 754.03,-223"/>
<polygon fill="blue" stroke="blue" points="754.03,-220.55 747.03,-223 754.03,-225.45 754.03,-220.55"/>
</g>
<!-- C&#45;0890&#45;&gt;R&#45;206 -->
<g id="edge31" class="edge">
<title>C&#45;0890&#45;&gt;R&#45;206</title>
<path fill="none" stroke="#4d4d4d" d="M1305,-706.58C1305,-706.58 1305,-656.03 1305,-656.03"/>
<polygon fill="#4d4d4d" stroke="#4d4d4d" points="1307.45,-656.03 1305,-649.03 1302.55,-656.03 1307.45,-656.03"/>
</g>
<!-- C&#45;0170 -->
<g id="node33" class="node">
<title>C&#45;0170</title>
<ellipse fill="mediumseagreen" stroke="black" cx="945" cy="-930.5" rx="72" ry="21.5"/>
<text text-anchor="middle" x="945" y="-928" font-family="Arial" font-size="10.00">C&#45;0170</text>
</g>
<!-- C&#45;0170&#45;&gt;C&#45;0005 -->
<g id="edge2" class="edge">
<title>C&#45;0170&#45;&gt;C&#45;0005</title>
<path fill="none" stroke="#4d4d4d" d="M969,-909.96C969,-883.26 969,-840 969,-840 969,-840 834.87,-840 834.87,-840"/>
<polygon fill="#4d4d4d" stroke="#4d4d4d" points="834.87,-837.55 827.87,-840 834.87,-842.45 834.87,-837.55"/>
</g>
<!-- C&#45;0170&#45;&gt;C&#45;0486 -->
<g id="edge28" class="edge">
<title>C&#45;0170&#45;&gt;C&#45;0486</title>
<path fill="none" stroke="#4d4d4d" d="M1017.18,-930C1067.25,-930 1125,-930 1125,-930 1125,-930 1125,-858.31 1125,-858.31"/>
<polygon fill="#4d4d4d" stroke="#4d4d4d" points="1127.45,-858.31 1125,-851.31 1122.55,-858.31 1127.45,-858.31"/>
</g>
<!-- S&#45;1715 -->
<g id="node34" class="node">
<title>S&#45;1715</title>
<polygon fill="mediumseagreen" stroke="black" points="765,-548 693,-526.5 765,-505 837,-526.5 765,-548"/>
<text text-anchor="middle" x="765" y="-524" font-family="Arial" font-size="10.00">S&#45;1715</text>
</g>
<!-- S&#45;1626&#45;&gt;R&#45;008 -->
<g id="edge17" class="edge">
<title>S&#45;1626&#45;&gt;R&#45;008</title>
<path fill="none" stroke="#4d4d4d" d="M534.75,-634C511.52,-634 489,-634 489,-634 489,-634 489,-526 489,-526 489,-526 394.03,-526 394.03,-526"/>
<polygon fill="#4d4d4d" stroke="#4d4d4d" points="394.03,-523.55 387.03,-526 394.03,-528.45 394.03,-523.55"/>
</g>
<!-- S&#45;1626&#45;&gt;S&#45;1622 -->
<g id="edge6" class="edge">
<title>S&#45;1626&#45;&gt;S&#45;1622</title>
<path fill="none" stroke="#4d4d4d" d="M585,-605.58C585,-605.58 585,-555.03 585,-555.03"/>
<polygon fill="#4d4d4d" stroke="#4d4d4d" points="587.45,-555.03 585,-548.03 582.55,-555.03 587.45,-555.03"/>
</g>
<!-- S&#45;1626&#45;&gt;S&#45;1715 -->
<g id="edge5" class="edge">
<title>S&#45;1626&#45;&gt;S&#45;1715</title>
<path fill="none" stroke="#4d4d4d" d="M655.47,-627C666.86,-627 675,-627 675,-627 675,-627 675,-526 675,-526 675,-526 687.53,-526 687.53,-526"/>
<polygon fill="#4d4d4d" stroke="#4d4d4d" points="687.53,-528.45 694.53,-526 687.53,-523.55 687.53,-528.45"/>
</g>
<!-- C&#45;0040&#45;&gt;ext_circ_303_27_ -->
<g id="edge45" class="edge">
<title>C&#45;0040&#45;&gt;ext_circ_303_27_</title>
<path fill="none" stroke="darkorange" stroke-dasharray="5,2" d="M1266,-206.37C1266,-206.37 1266,-151.31 1266,-151.31"/>
<polygon fill="darkorange" stroke="darkorange" points="1268.45,-151.31 1266,-144.31 1263.55,-151.31 1268.45,-151.31"/>
</g>
<!-- 303&#45;24&#45; -->
<g id="node38" class="node">
<title>303&#45;24&#45;</title>
<polygon fill="gold" stroke="black" points="1017,-1026.59 1017,-1044.41 974.82,-1057 915.18,-1057 873,-1044.41 873,-1026.59 915.18,-1014 974.82,-1014 1017,-1026.59"/>
<polygon fill="none" stroke="black" points="1021,-1023.61 1021,-1047.39 975.41,-1061 914.59,-1061 869,-1047.39 869,-1023.61 914.59,-1010 975.41,-1010 1021,-1023.61"/>
<text text-anchor="middle" x="945" y="-1033" font-family="Arial" font-size="10.00">303&#45;24&#45;</text>
</g>
<!-- 303&#45;24&#45;&#45;&gt;C&#45;0170 -->
<g id="edge1" class="edge">
<title>303&#45;24&#45;&#45;&gt;C&#45;0170</title>
<path fill="none" stroke="#4d4d4d" d="M945,-1009.81C945,-1009.81 945,-959.03 945,-959.03"/>
<polygon fill="#4d4d4d" stroke="#4d4d4d" points="947.45,-959.03 945,-952.03 942.55,-959.03 947.45,-959.03"/>
</g>
</g>
</svg>
