<?xml version="1.0" encoding="UTF-8" standalone="no"?>
<!DOCTYPE svg PUBLIC "-//W3C//DTD SVG 1.1//EN"
 "http://www.w3.org/Graphics/SVG/1.1/DTD/svg11.dtd">
<!-- Generated by graphviz version 2.50.0 (0)
 -->
<!-- Title: Grafo_Circuito_307_25_ Pages: 1 -->
<svg width="3182pt" height="867pt"
 viewBox="0.00 0.00 3182.00 867.00" xmlns="http://www.w3.org/2000/svg" xmlns:xlink="http://www.w3.org/1999/xlink">
<g id="graph0" class="graph" transform="scale(1 1) rotate(0) translate(4 863)">
<title>Grafo_Circuito_307_25_</title>
<polygon fill="white" stroke="transparent" points="-4,4 -4,-863 3178,-863 3178,4 -4,4"/>
<!-- R&#45;303 -->
<g id="node1" class="node">
<title>R&#45;303</title>
<polygon fill="tomato" stroke="black" points="1944,-113.59 1944,-131.41 1901.82,-144 1842.18,-144 1800,-131.41 1800,-113.59 1842.18,-101 1901.82,-101 1944,-113.59"/>
<text text-anchor="middle" x="1872" y="-120" font-family="Arial" font-size="10.00">R&#45;303</text>
</g>
<!-- ext_circ_112_23_ -->
<g id="node52" class="node">
<title>ext_circ_112_23_</title>
<polygon fill="lightpink" stroke="darkorange" stroke-dasharray="5,2" points="1674,-43 1530,-43 1530,0 1674,0 1674,-43"/>
<text text-anchor="middle" x="1602" y="-24.5" font-family="Arial" font-size="10.00">Circuito:</text>
<text text-anchor="middle" x="1602" y="-13.5" font-family="Arial" font-size="10.00">112&#45;23&#45;</text>
</g>
<!-- R&#45;303&#45;&gt;ext_circ_112_23_ -->
<g id="edge54" class="edge">
<title>R&#45;303&#45;&gt;ext_circ_112_23_</title>
<path fill="none" stroke="darkorange" stroke-dasharray="5,2" d="M1872,-100.97C1872,-71.18 1872,-21 1872,-21 1872,-21 1681,-21 1681,-21"/>
<polygon fill="darkorange" stroke="darkorange" points="1681,-18.55 1674,-21 1681,-23.45 1681,-18.55"/>
</g>
<!-- C&#45;0371 -->
<g id="node2" class="node">
<title>C&#45;0371</title>
<ellipse fill="tomato" stroke="black" cx="1348" cy="-627.5" rx="72" ry="21.5"/>
<text text-anchor="middle" x="1348" y="-625" font-family="Arial" font-size="10.00">C&#45;0371</text>
</g>
<!-- C&#45;0373 -->
<g id="node24" class="node">
<title>C&#45;0373</title>
<ellipse fill="mediumseagreen" stroke="black" cx="2502" cy="-425.5" rx="72" ry="21.5"/>
<text text-anchor="middle" x="2502" y="-423" font-family="Arial" font-size="10.00">C&#45;0373</text>
</g>
<!-- C&#45;0371&#45;&gt;C&#45;0373 -->
<g id="edge50" class="edge">
<title>C&#45;0371&#45;&gt;C&#45;0373</title>
<path fill="none" stroke="blue" stroke-dasharray="5,2" d="M1352,-605.83C1352,-554.93 1352,-432 1352,-432 1352,-432 2426.08,-432 2426.08,-432"/>
<polygon fill="blue" stroke="blue" points="2426.08,-434.45 2433.08,-432 2426.08,-429.55 2426.08,-434.45"/>
</g>
<!-- S&#45;2443 -->
<g id="node3" class="node">
<title>S&#45;2443</title>
<polygon fill="mediumseagreen" stroke="black" points="1062,-43 990,-21.5 1062,0 1134,-21.5 1062,-43"/>
<text text-anchor="middle" x="1062" y="-19" font-family="Arial" font-size="10.00">S&#45;2443</text>
</g>
<!-- 307&#45;25&#45; -->
<g id="node4" class="node">
<title>307&#45;25&#45;</title>
<polygon fill="gold" stroke="black" points="1870,-824.59 1870,-842.41 1827.82,-855 1768.18,-855 1726,-842.41 1726,-824.59 1768.18,-812 1827.82,-812 1870,-824.59"/>
<polygon fill="none" stroke="black" points="1874,-821.61 1874,-845.39 1828.41,-859 1767.59,-859 1722,-845.39 1722,-821.61 1767.59,-808 1828.41,-808 1874,-821.61"/>
<text text-anchor="middle" x="1798" y="-831" font-family="Arial" font-size="10.00">307&#45;25&#45;</text>
</g>
<!-- C&#45;0105 -->
<g id="node29" class="node">
<title>C&#45;0105</title>
<ellipse fill="mediumseagreen" stroke="black" cx="1798" cy="-728.5" rx="72" ry="21.5"/>
<text text-anchor="middle" x="1798" y="-726" font-family="Arial" font-size="10.00">C&#45;0105</text>
</g>
<!-- 307&#45;25&#45;&#45;&gt;C&#45;0105 -->
<g id="edge1" class="edge">
<title>307&#45;25&#45;&#45;&gt;C&#45;0105</title>
<path fill="none" stroke="#4d4d4d" d="M1798,-807.81C1798,-807.81 1798,-757.03 1798,-757.03"/>
<polygon fill="#4d4d4d" stroke="#4d4d4d" points="1800.45,-757.03 1798,-750.03 1795.55,-757.03 1800.45,-757.03"/>
</g>
<!-- S&#45;1773 -->
<g id="node5" class="node">
<title>S&#45;1773</title>
<polygon fill="mediumseagreen" stroke="black" points="1152,-144 1080,-122.5 1152,-101 1224,-122.5 1152,-144"/>
<text text-anchor="middle" x="1152" y="-120" font-family="Arial" font-size="10.00">S&#45;1773</text>
</g>
<!-- S&#45;557 -->
<g id="node6" class="node">
<title>S&#45;557</title>
<polygon fill="mediumseagreen" stroke="black" points="653,-346 581,-324.5 653,-303 725,-324.5 653,-346"/>
<text text-anchor="middle" x="653" y="-322" font-family="Arial" font-size="10.00">S&#45;557</text>
</g>
<!-- C&#45;0448 -->
<g id="node8" class="node">
<title>C&#45;0448</title>
<ellipse fill="mediumseagreen" stroke="black" cx="542" cy="-223.5" rx="72" ry="21.5"/>
<text text-anchor="middle" x="542" y="-221" font-family="Arial" font-size="10.00">C&#45;0448</text>
</g>
<!-- S&#45;557&#45;&gt;C&#45;0448 -->
<g id="edge41" class="edge">
<title>S&#45;557&#45;&gt;C&#45;0448</title>
<path fill="none" stroke="#4d4d4d" d="M597.5,-319.35C597.5,-319.35 597.5,-244.36 597.5,-244.36"/>
<polygon fill="#4d4d4d" stroke="#4d4d4d" points="599.95,-244.36 597.5,-237.36 595.05,-244.36 599.95,-244.36"/>
</g>
<!-- S&#45;2004 -->
<g id="node21" class="node">
<title>S&#45;2004</title>
<polygon fill="mediumseagreen" stroke="black" points="722,-245 650,-223.5 722,-202 794,-223.5 722,-245"/>
<text text-anchor="middle" x="722" y="-221" font-family="Arial" font-size="10.00">S&#45;2004</text>
</g>
<!-- S&#45;557&#45;&gt;S&#45;2004 -->
<g id="edge48" class="edge">
<title>S&#45;557&#45;&gt;S&#45;2004</title>
<path fill="none" stroke="#4d4d4d" d="M687.5,-312.91C687.5,-312.91 687.5,-241.95 687.5,-241.95"/>
<polygon fill="#4d4d4d" stroke="#4d4d4d" points="689.95,-241.95 687.5,-234.95 685.05,-241.95 689.95,-241.95"/>
</g>
<!-- S&#45;1397 -->
<g id="node48" class="node">
<title>S&#45;1397</title>
<polygon fill="mediumseagreen" stroke="black" points="362,-245 290,-223.5 362,-202 434,-223.5 362,-245"/>
<text text-anchor="middle" x="362" y="-221" font-family="Arial" font-size="10.00">S&#45;1397</text>
</g>
<!-- S&#45;557&#45;&gt;S&#45;1397 -->
<g id="edge47" class="edge">
<title>S&#45;557&#45;&gt;S&#45;1397</title>
<path fill="none" stroke="#4d4d4d" d="M582.56,-324C496.43,-324 362,-324 362,-324 362,-324 362,-252.31 362,-252.31"/>
<polygon fill="#4d4d4d" stroke="#4d4d4d" points="364.45,-252.31 362,-245.31 359.55,-252.31 364.45,-252.31"/>
</g>
<!-- R&#45;081 -->
<g id="node7" class="node">
<title>R&#45;081</title>
<polygon fill="tomato" stroke="black" points="684,-113.59 684,-131.41 641.82,-144 582.18,-144 540,-131.41 540,-113.59 582.18,-101 641.82,-101 684,-113.59"/>
<text text-anchor="middle" x="612" y="-120" font-family="Arial" font-size="10.00">R&#45;081</text>
</g>
<!-- ext_circ_307_22_ -->
<g id="node54" class="node">
<title>ext_circ_307_22_</title>
<polygon fill="lightpink" stroke="darkorange" stroke-dasharray="5,2" points="684,-43 540,-43 540,0 684,0 684,-43"/>
<text text-anchor="middle" x="612" y="-24.5" font-family="Arial" font-size="10.00">Circuito:</text>
<text text-anchor="middle" x="612" y="-13.5" font-family="Arial" font-size="10.00">307&#45;22&#45;</text>
</g>
<!-- R&#45;081&#45;&gt;ext_circ_307_22_ -->
<g id="edge60" class="edge">
<title>R&#45;081&#45;&gt;ext_circ_307_22_</title>
<path fill="none" stroke="darkorange" stroke-dasharray="5,2" d="M612,-100.58C612,-100.58 612,-50.03 612,-50.03"/>
<polygon fill="darkorange" stroke="darkorange" points="614.45,-50.03 612,-43.03 609.55,-50.03 614.45,-50.03"/>
</g>
<!-- C&#45;0448&#45;&gt;R&#45;081 -->
<g id="edge45" class="edge">
<title>C&#45;0448&#45;&gt;R&#45;081</title>
<path fill="none" stroke="#4d4d4d" d="M564.67,-203.06C564.67,-203.06 564.67,-145.91 564.67,-145.91"/>
<polygon fill="#4d4d4d" stroke="#4d4d4d" points="567.12,-145.91 564.67,-138.91 562.22,-145.91 567.12,-145.91"/>
</g>
<!-- S&#45;2261 -->
<g id="node10" class="node">
<title>S&#45;2261</title>
<polygon fill="mediumseagreen" stroke="black" points="792,-144 720,-122.5 792,-101 864,-122.5 792,-144"/>
<text text-anchor="middle" x="792" y="-120" font-family="Arial" font-size="10.00">S&#45;2261</text>
</g>
<!-- C&#45;0448&#45;&gt;S&#45;2261 -->
<g id="edge42" class="edge">
<title>C&#45;0448&#45;&gt;S&#45;2261</title>
<path fill="none" stroke="#4d4d4d" d="M589.33,-206.97C589.33,-187.57 589.33,-158 589.33,-158 589.33,-158 757,-158 757,-158 757,-158 757,-140.73 757,-140.73"/>
<polygon fill="#4d4d4d" stroke="#4d4d4d" points="759.45,-140.73 757,-133.73 754.55,-140.73 759.45,-140.73"/>
</g>
<!-- S&#45;2237 -->
<g id="node16" class="node">
<title>S&#45;2237</title>
<polygon fill="mediumseagreen" stroke="black" points="72,-144 0,-122.5 72,-101 144,-122.5 72,-144"/>
<text text-anchor="middle" x="72" y="-120" font-family="Arial" font-size="10.00">S&#45;2237</text>
</g>
<!-- C&#45;0448&#45;&gt;S&#45;2237 -->
<g id="edge43" class="edge">
<title>C&#45;0448&#45;&gt;S&#45;2237</title>
<path fill="none" stroke="#4d4d4d" d="M478.5,-213.14C478.5,-202.35 478.5,-187 478.5,-187 478.5,-187 72,-187 72,-187 72,-187 72,-151.34 72,-151.34"/>
<polygon fill="#4d4d4d" stroke="#4d4d4d" points="74.45,-151.34 72,-144.34 69.55,-151.34 74.45,-151.34"/>
</g>
<!-- S&#45;561 -->
<g id="node30" class="node">
<title>S&#45;561</title>
<polygon fill="mediumseagreen" stroke="black" points="252,-144 180,-122.5 252,-101 324,-122.5 252,-144"/>
<text text-anchor="middle" x="252" y="-120" font-family="Arial" font-size="10.00">S&#45;561</text>
</g>
<!-- C&#45;0448&#45;&gt;S&#45;561 -->
<g id="edge46" class="edge">
<title>C&#45;0448&#45;&gt;S&#45;561</title>
<path fill="none" stroke="#4d4d4d" d="M487,-209.43C487,-194.49 487,-173 487,-173 487,-173 307,-173 307,-173 307,-173 307,-134.9 307,-134.9"/>
<polygon fill="#4d4d4d" stroke="#4d4d4d" points="309.45,-134.9 307,-127.9 304.55,-134.9 309.45,-134.9"/>
</g>
<!-- S&#45;2558 -->
<g id="node34" class="node">
<title>S&#45;2558</title>
<polygon fill="mediumseagreen" stroke="black" points="432,-144 360,-122.5 432,-101 504,-122.5 432,-144"/>
<text text-anchor="middle" x="432" y="-120" font-family="Arial" font-size="10.00">S&#45;2558</text>
</g>
<!-- C&#45;0448&#45;&gt;S&#45;2558 -->
<g id="edge44" class="edge">
<title>C&#45;0448&#45;&gt;S&#45;2558</title>
<path fill="none" stroke="#4d4d4d" d="M495.5,-206.82C495.5,-206.82 495.5,-132.25 495.5,-132.25"/>
<polygon fill="#4d4d4d" stroke="#4d4d4d" points="497.95,-132.25 495.5,-125.25 493.05,-132.25 497.95,-132.25"/>
</g>
<!-- S&#45;994 -->
<g id="node9" class="node">
<title>S&#45;994</title>
<polygon fill="mediumseagreen" stroke="black" points="2592,-346 2520,-324.5 2592,-303 2664,-324.5 2592,-346"/>
<text text-anchor="middle" x="2592" y="-322" font-family="Arial" font-size="10.00">S&#45;994</text>
</g>
<!-- S&#45;1288 -->
<g id="node11" class="node">
<title>S&#45;1288</title>
<polygon fill="mediumseagreen" stroke="black" points="2592,-245 2520,-223.5 2592,-202 2664,-223.5 2592,-245"/>
<text text-anchor="middle" x="2592" y="-221" font-family="Arial" font-size="10.00">S&#45;1288</text>
</g>
<!-- S&#45;994&#45;&gt;S&#45;1288 -->
<g id="edge14" class="edge">
<title>S&#45;994&#45;&gt;S&#45;1288</title>
<path fill="none" stroke="#4d4d4d" d="M2616,-310.03C2616,-310.03 2616,-244.94 2616,-244.94"/>
<polygon fill="#4d4d4d" stroke="#4d4d4d" points="2618.45,-244.94 2616,-237.94 2613.55,-244.94 2618.45,-244.94"/>
</g>
<!-- C&#45;0294 -->
<g id="node13" class="node">
<title>C&#45;0294</title>
<ellipse fill="tomato" stroke="black" cx="2603" cy="-122.5" rx="72" ry="21.5"/>
<text text-anchor="middle" x="2603" y="-120" font-family="Arial" font-size="10.00">C&#45;0294</text>
</g>
<!-- S&#45;994&#45;&gt;C&#45;0294 -->
<g id="edge13" class="edge">
<title>S&#45;994&#45;&gt;C&#45;0294</title>
<path fill="none" stroke="#4d4d4d" d="M2639.31,-317C2655.45,-317 2669.5,-317 2669.5,-317 2669.5,-317 2669.5,-137.86 2669.5,-137.86"/>
<polygon fill="#4d4d4d" stroke="#4d4d4d" points="2671.95,-137.86 2669.5,-130.86 2667.05,-137.86 2671.95,-137.86"/>
</g>
<!-- S&#45;063 -->
<g id="node18" class="node">
<title>S&#45;063</title>
<polygon fill="mediumseagreen" stroke="black" points="2846,-245 2774,-223.5 2846,-202 2918,-223.5 2846,-245"/>
<text text-anchor="middle" x="2846" y="-221" font-family="Arial" font-size="10.00">S&#45;063</text>
</g>
<!-- S&#45;994&#45;&gt;S&#45;063 -->
<g id="edge8" class="edge">
<title>S&#45;994&#45;&gt;S&#45;063</title>
<path fill="none" stroke="#4d4d4d" d="M2642.47,-331C2700.25,-331 2787,-331 2787,-331 2787,-331 2787,-234.58 2787,-234.58"/>
<polygon fill="#4d4d4d" stroke="#4d4d4d" points="2789.45,-234.58 2787,-227.58 2784.55,-234.58 2789.45,-234.58"/>
</g>
<!-- C&#45;1101 -->
<g id="node26" class="node">
<title>C&#45;1101</title>
<ellipse fill="mediumseagreen" stroke="black" cx="2232" cy="-223.5" rx="72" ry="21.5"/>
<text text-anchor="middle" x="2232" y="-221" font-family="Arial" font-size="10.00">C&#45;1101</text>
</g>
<!-- S&#45;994&#45;&gt;C&#45;1101 -->
<g id="edge11" class="edge">
<title>S&#45;994&#45;&gt;C&#45;1101</title>
<path fill="none" stroke="#4d4d4d" d="M2568,-310.16C2568,-295.23 2568,-274 2568,-274 2568,-274 2240,-274 2240,-274 2240,-274 2240,-251.92 2240,-251.92"/>
<polygon fill="#4d4d4d" stroke="#4d4d4d" points="2242.45,-251.92 2240,-244.92 2237.55,-251.92 2242.45,-251.92"/>
</g>
<!-- S&#45;1974 -->
<g id="node42" class="node">
<title>S&#45;1974</title>
<polygon fill="mediumseagreen" stroke="black" points="2412,-245 2340,-223.5 2412,-202 2484,-223.5 2412,-245"/>
<text text-anchor="middle" x="2412" y="-221" font-family="Arial" font-size="10.00">S&#45;1974</text>
</g>
<!-- S&#45;994&#45;&gt;S&#45;1974 -->
<g id="edge10" class="edge">
<title>S&#45;994&#45;&gt;S&#45;1974</title>
<path fill="none" stroke="#4d4d4d" d="M2521.53,-324C2510.14,-324 2502,-324 2502,-324 2502,-324 2502,-223 2502,-223 2502,-223 2489.47,-223 2489.47,-223"/>
<polygon fill="#4d4d4d" stroke="#4d4d4d" points="2489.47,-220.55 2482.47,-223 2489.47,-225.45 2489.47,-220.55"/>
</g>
<!-- S&#45;1152 -->
<g id="node12" class="node">
<title>S&#45;1152</title>
<polygon fill="mediumseagreen" stroke="black" points="1160,-245 1088,-223.5 1160,-202 1232,-223.5 1160,-245"/>
<text text-anchor="middle" x="1160" y="-221" font-family="Arial" font-size="10.00">S&#45;1152</text>
</g>
<!-- ext_circ_208_26_ -->
<g id="node51" class="node">
<title>ext_circ_208_26_</title>
<polygon fill="lightpink" stroke="darkorange" stroke-dasharray="5,2" points="2553,-43 2409,-43 2409,0 2553,0 2553,-43"/>
<text text-anchor="middle" x="2481" y="-24.5" font-family="Arial" font-size="10.00">Circuito:</text>
<text text-anchor="middle" x="2481" y="-13.5" font-family="Arial" font-size="10.00">208&#45;26&#45;</text>
</g>
<!-- C&#45;0294&#45;&gt;ext_circ_208_26_ -->
<g id="edge52" class="edge">
<title>C&#45;0294&#45;&gt;ext_circ_208_26_</title>
<path fill="none" stroke="darkorange" stroke-dasharray="5,2" d="M2542,-110.91C2542,-110.91 2542,-50.19 2542,-50.19"/>
<polygon fill="darkorange" stroke="darkorange" points="2544.45,-50.19 2542,-43.19 2539.55,-50.19 2544.45,-50.19"/>
</g>
<!-- S&#45;1794 -->
<g id="node14" class="node">
<title>S&#45;1794</title>
<polygon fill="mediumseagreen" stroke="black" points="972,-144 900,-122.5 972,-101 1044,-122.5 972,-144"/>
<text text-anchor="middle" x="972" y="-120" font-family="Arial" font-size="10.00">S&#45;1794</text>
</g>
<!-- S&#45;1794&#45;&gt;S&#45;2443 -->
<g id="edge36" class="edge">
<title>S&#45;1794&#45;&gt;S&#45;2443</title>
<path fill="none" stroke="#4d4d4d" d="M1017,-114.23C1017,-114.23 1017,-36.6 1017,-36.6"/>
<polygon fill="#4d4d4d" stroke="#4d4d4d" points="1019.45,-36.6 1017,-29.6 1014.55,-36.6 1019.45,-36.6"/>
</g>
<!-- S&#45;2442 -->
<g id="node15" class="node">
<title>S&#45;2442</title>
<polygon fill="mediumseagreen" stroke="black" points="882,-43 810,-21.5 882,0 954,-21.5 882,-43"/>
<text text-anchor="middle" x="882" y="-19" font-family="Arial" font-size="10.00">S&#45;2442</text>
</g>
<!-- S&#45;1794&#45;&gt;S&#45;2442 -->
<g id="edge35" class="edge">
<title>S&#45;1794&#45;&gt;S&#45;2442</title>
<path fill="none" stroke="#4d4d4d" d="M927,-114.23C927,-114.23 927,-36.6 927,-36.6"/>
<polygon fill="#4d4d4d" stroke="#4d4d4d" points="929.45,-36.6 927,-29.6 924.55,-36.6 929.45,-36.6"/>
</g>
<!-- C&#45;1300 -->
<g id="node17" class="node">
<title>C&#45;1300</title>
<ellipse fill="tomato" stroke="black" cx="1512" cy="-122.5" rx="72" ry="21.5"/>
<text text-anchor="middle" x="1512" y="-120" font-family="Arial" font-size="10.00">C&#45;1300</text>
</g>
<!-- C&#45;1300&#45;&gt;ext_circ_112_23_ -->
<g id="edge53" class="edge">
<title>C&#45;1300&#45;&gt;ext_circ_112_23_</title>
<path fill="none" stroke="darkorange" stroke-dasharray="5,2" d="M1566,-108.03C1566,-108.03 1566,-50 1566,-50"/>
<polygon fill="darkorange" stroke="darkorange" points="1568.45,-50 1566,-43 1563.55,-50 1568.45,-50"/>
</g>
<!-- S&#45;2426 -->
<g id="node35" class="node">
<title>S&#45;2426</title>
<polygon fill="mediumseagreen" stroke="black" points="2846,-144 2774,-122.5 2846,-101 2918,-122.5 2846,-144"/>
<text text-anchor="middle" x="2846" y="-120" font-family="Arial" font-size="10.00">S&#45;2426</text>
</g>
<!-- S&#45;063&#45;&gt;S&#45;2426 -->
<g id="edge9" class="edge">
<title>S&#45;063&#45;&gt;S&#45;2426</title>
<path fill="none" stroke="#4d4d4d" d="M2846,-201.58C2846,-201.58 2846,-151.03 2846,-151.03"/>
<polygon fill="#4d4d4d" stroke="#4d4d4d" points="2848.45,-151.03 2846,-144.03 2843.55,-151.03 2848.45,-151.03"/>
</g>
<!-- C&#45;1092 -->
<g id="node19" class="node">
<title>C&#45;1092</title>
<ellipse fill="mediumseagreen" stroke="black" cx="2872" cy="-324.5" rx="72" ry="21.5"/>
<text text-anchor="middle" x="2872" y="-322" font-family="Arial" font-size="10.00">C&#45;1092</text>
</g>
<!-- R&#45;269 -->
<g id="node40" class="node">
<title>R&#45;269</title>
<polygon fill="tomato" stroke="black" points="3098,-214.59 3098,-232.41 3055.82,-245 2996.18,-245 2954,-232.41 2954,-214.59 2996.18,-202 3055.82,-202 3098,-214.59"/>
<text text-anchor="middle" x="3026" y="-221" font-family="Arial" font-size="10.00">R&#45;269</text>
</g>
<!-- C&#45;1092&#45;&gt;R&#45;269 -->
<g id="edge26" class="edge">
<title>C&#45;1092&#45;&gt;R&#45;269</title>
<path fill="none" stroke="#4d4d4d" d="M2931,-312.05C2931,-284.95 2931,-223 2931,-223 2931,-223 2947,-223 2947,-223"/>
<polygon fill="#4d4d4d" stroke="#4d4d4d" points="2947,-225.45 2954,-223 2947,-220.55 2947,-225.45"/>
</g>
<!-- C&#45;0293 -->
<g id="node20" class="node">
<title>C&#45;0293</title>
<ellipse fill="tomato" stroke="black" cx="3102" cy="-324.5" rx="72" ry="21.5"/>
<text text-anchor="middle" x="3102" y="-322" font-family="Arial" font-size="10.00">C&#45;0293</text>
</g>
<!-- ext_circ_307_23_ -->
<g id="node53" class="node">
<title>ext_circ_307_23_</title>
<polygon fill="lightpink" stroke="darkorange" stroke-dasharray="5,2" points="3161,-144 3017,-144 3017,-101 3161,-101 3161,-144"/>
<text text-anchor="middle" x="3089" y="-125.5" font-family="Arial" font-size="10.00">Circuito:</text>
<text text-anchor="middle" x="3089" y="-114.5" font-family="Arial" font-size="10.00">307&#45;23&#45;</text>
</g>
<!-- C&#45;0293&#45;&gt;ext_circ_307_23_ -->
<g id="edge58" class="edge">
<title>C&#45;0293&#45;&gt;ext_circ_307_23_</title>
<path fill="none" stroke="darkorange" stroke-dasharray="5,2" d="M3129.5,-304.39C3129.5,-304.39 3129.5,-151.04 3129.5,-151.04"/>
<polygon fill="darkorange" stroke="darkorange" points="3131.95,-151.04 3129.5,-144.04 3127.05,-151.04 3131.95,-151.04"/>
</g>
<!-- R&#45;273 -->
<g id="node22" class="node">
<title>R&#45;273</title>
<polygon fill="tomato" stroke="black" points="2431,-113.59 2431,-131.41 2388.82,-144 2329.18,-144 2287,-131.41 2287,-113.59 2329.18,-101 2388.82,-101 2431,-113.59"/>
<text text-anchor="middle" x="2359" y="-120" font-family="Arial" font-size="10.00">R&#45;273</text>
</g>
<!-- R&#45;273&#45;&gt;ext_circ_208_26_ -->
<g id="edge51" class="edge">
<title>R&#45;273&#45;&gt;ext_circ_208_26_</title>
<path fill="none" stroke="darkorange" stroke-dasharray="5,2" d="M2420,-110.12C2420,-110.12 2420,-50.2 2420,-50.2"/>
<polygon fill="darkorange" stroke="darkorange" points="2422.45,-50.2 2420,-43.2 2417.55,-50.2 2422.45,-50.2"/>
</g>
<!-- C&#45;0176 -->
<g id="node23" class="node">
<title>C&#45;0176</title>
<ellipse fill="tomato" stroke="black" cx="1692" cy="-122.5" rx="72" ry="21.5"/>
<text text-anchor="middle" x="1692" y="-120" font-family="Arial" font-size="10.00">C&#45;0176</text>
</g>
<!-- C&#45;0176&#45;&gt;ext_circ_112_23_ -->
<g id="edge55" class="edge">
<title>C&#45;0176&#45;&gt;ext_circ_112_23_</title>
<path fill="none" stroke="darkorange" stroke-dasharray="5,2" d="M1647,-105.37C1647,-105.37 1647,-50.31 1647,-50.31"/>
<polygon fill="darkorange" stroke="darkorange" points="1649.45,-50.31 1647,-43.31 1644.55,-50.31 1649.45,-50.31"/>
</g>
<!-- C&#45;0373&#45;&gt;S&#45;994 -->
<g id="edge7" class="edge">
<title>C&#45;0373&#45;&gt;S&#45;994</title>
<path fill="none" stroke="#4d4d4d" d="M2547,-408.37C2547,-408.37 2547,-339.78 2547,-339.78"/>
<polygon fill="#4d4d4d" stroke="#4d4d4d" points="2549.45,-339.78 2547,-332.78 2544.55,-339.78 2549.45,-339.78"/>
</g>
<!-- C&#45;0373&#45;&gt;C&#45;1092 -->
<g id="edge25" class="edge">
<title>C&#45;0373&#45;&gt;C&#45;1092</title>
<path fill="none" stroke="#4d4d4d" d="M2569.86,-418C2676.68,-418 2872,-418 2872,-418 2872,-418 2872,-353.19 2872,-353.19"/>
<polygon fill="#4d4d4d" stroke="#4d4d4d" points="2874.45,-353.19 2872,-346.19 2869.55,-353.19 2874.45,-353.19"/>
</g>
<!-- C&#45;0373&#45;&gt;C&#45;0293 -->
<g id="edge27" class="edge">
<title>C&#45;0373&#45;&gt;C&#45;0293</title>
<path fill="none" stroke="#4d4d4d" d="M2570.83,-432C2728.43,-432 3102,-432 3102,-432 3102,-432 3102,-353.25 3102,-353.25"/>
<polygon fill="#4d4d4d" stroke="#4d4d4d" points="3104.45,-353.25 3102,-346.25 3099.55,-353.25 3104.45,-353.25"/>
</g>
<!-- C&#45;1067 -->
<g id="node27" class="node">
<title>C&#45;1067</title>
<ellipse fill="mediumseagreen" stroke="black" cx="1692" cy="-324.5" rx="72" ry="21.5"/>
<text text-anchor="middle" x="1692" y="-322" font-family="Arial" font-size="10.00">C&#45;1067</text>
</g>
<!-- C&#45;0373&#45;&gt;C&#45;1067 -->
<g id="edge16" class="edge">
<title>C&#45;0373&#45;&gt;C&#45;1067</title>
<path fill="none" stroke="#4d4d4d" d="M2448.76,-411C2269.63,-411 1700,-411 1700,-411 1700,-411 1700,-352.88 1700,-352.88"/>
<polygon fill="#4d4d4d" stroke="#4d4d4d" points="1702.45,-352.88 1700,-345.88 1697.55,-352.88 1702.45,-352.88"/>
</g>
<!-- S&#45;1543 -->
<g id="node46" class="node">
<title>S&#45;1543</title>
<polygon fill="mediumseagreen" stroke="black" points="2412,-346 2340,-324.5 2412,-303 2484,-324.5 2412,-346"/>
<text text-anchor="middle" x="2412" y="-322" font-family="Arial" font-size="10.00">S&#45;1543</text>
</g>
<!-- C&#45;0373&#45;&gt;S&#45;1543 -->
<g id="edge15" class="edge">
<title>C&#45;0373&#45;&gt;S&#45;1543</title>
<path fill="none" stroke="#4d4d4d" d="M2457,-408.37C2457,-408.37 2457,-339.78 2457,-339.78"/>
<polygon fill="#4d4d4d" stroke="#4d4d4d" points="2459.45,-339.78 2457,-332.78 2454.55,-339.78 2459.45,-339.78"/>
</g>
<!-- C&#45;1230 -->
<g id="node25" class="node">
<title>C&#45;1230</title>
<ellipse fill="mediumseagreen" stroke="black" cx="1528" cy="-627.5" rx="72" ry="21.5"/>
<text text-anchor="middle" x="1528" y="-625" font-family="Arial" font-size="10.00">C&#45;1230</text>
</g>
<!-- R&#45;057 -->
<g id="node44" class="node">
<title>R&#45;057</title>
<polygon fill="mediumseagreen" stroke="black" points="1574,-517.59 1574,-535.41 1531.82,-548 1472.18,-548 1430,-535.41 1430,-517.59 1472.18,-505 1531.82,-505 1574,-517.59"/>
<text text-anchor="middle" x="1502" y="-524" font-family="Arial" font-size="10.00">R&#45;057</text>
</g>
<!-- C&#45;1230&#45;&gt;R&#45;057 -->
<g id="edge30" class="edge">
<title>C&#45;1230&#45;&gt;R&#45;057</title>
<path fill="none" stroke="#4d4d4d" d="M1515,-606.08C1515,-606.08 1515,-555.24 1515,-555.24"/>
<polygon fill="#4d4d4d" stroke="#4d4d4d" points="1517.45,-555.24 1515,-548.24 1512.55,-555.24 1517.45,-555.24"/>
</g>
<!-- C&#45;1101&#45;&gt;R&#45;273 -->
<g id="edge12" class="edge">
<title>C&#45;1101&#45;&gt;R&#45;273</title>
<path fill="none" stroke="#4d4d4d" d="M2295.5,-213.07C2295.5,-213.07 2295.5,-140.95 2295.5,-140.95"/>
<polygon fill="#4d4d4d" stroke="#4d4d4d" points="2297.95,-140.95 2295.5,-133.95 2293.05,-140.95 2297.95,-140.95"/>
</g>
<!-- C&#45;1067&#45;&gt;C&#45;1300 -->
<g id="edge19" class="edge">
<title>C&#45;1067&#45;&gt;C&#45;1300</title>
<path fill="none" stroke="#4d4d4d" d="M1624.31,-317C1600.24,-317 1579,-317 1579,-317 1579,-317 1579,-137.86 1579,-137.86"/>
<polygon fill="#4d4d4d" stroke="#4d4d4d" points="1581.45,-137.86 1579,-130.86 1576.55,-137.86 1581.45,-137.86"/>
</g>
<!-- C&#45;1067&#45;&gt;C&#45;0176 -->
<g id="edge22" class="edge">
<title>C&#45;1067&#45;&gt;C&#45;0176</title>
<path fill="none" stroke="#4d4d4d" d="M1753.04,-313C1763.99,-313 1772,-313 1772,-313 1772,-313 1772,-122 1772,-122 1772,-122 1771.04,-122 1771.04,-122"/>
<polygon fill="#4d4d4d" stroke="#4d4d4d" points="1771.04,-119.55 1764.04,-122 1771.04,-124.45 1771.04,-119.55"/>
</g>
<!-- S&#45;1586 -->
<g id="node28" class="node">
<title>S&#45;1586</title>
<polygon fill="mediumseagreen" stroke="black" points="1692,-245 1620,-223.5 1692,-202 1764,-223.5 1692,-245"/>
<text text-anchor="middle" x="1692" y="-221" font-family="Arial" font-size="10.00">S&#45;1586</text>
</g>
<!-- C&#45;1067&#45;&gt;S&#45;1586 -->
<g id="edge17" class="edge">
<title>C&#45;1067&#45;&gt;S&#45;1586</title>
<path fill="none" stroke="#4d4d4d" d="M1692,-302.58C1692,-302.58 1692,-252.03 1692,-252.03"/>
<polygon fill="#4d4d4d" stroke="#4d4d4d" points="1694.45,-252.03 1692,-245.03 1689.55,-252.03 1694.45,-252.03"/>
</g>
<!-- C&#45;1298 -->
<g id="node37" class="node">
<title>C&#45;1298</title>
<ellipse fill="mediumseagreen" stroke="black" cx="1872" cy="-223.5" rx="72" ry="21.5"/>
<text text-anchor="middle" x="1872" y="-221" font-family="Arial" font-size="10.00">C&#45;1298</text>
</g>
<!-- C&#45;1067&#45;&gt;C&#45;1298 -->
<g id="edge20" class="edge">
<title>C&#45;1067&#45;&gt;C&#45;1298</title>
<path fill="none" stroke="#4d4d4d" d="M1764.15,-324C1787.74,-324 1808,-324 1808,-324 1808,-324 1808,-240.5 1808,-240.5"/>
<polygon fill="#4d4d4d" stroke="#4d4d4d" points="1810.45,-240.5 1808,-233.5 1805.55,-240.5 1810.45,-240.5"/>
</g>
<!-- S&#45;1290 -->
<g id="node43" class="node">
<title>S&#45;1290</title>
<polygon fill="mediumseagreen" stroke="black" points="2052,-245 1980,-223.5 2052,-202 2124,-223.5 2052,-245"/>
<text text-anchor="middle" x="2052" y="-221" font-family="Arial" font-size="10.00">S&#45;1290</text>
</g>
<!-- C&#45;1067&#45;&gt;S&#45;1290 -->
<g id="edge18" class="edge">
<title>C&#45;1067&#45;&gt;S&#45;1290</title>
<path fill="none" stroke="#4d4d4d" d="M1755.04,-335C1842.77,-335 1991,-335 1991,-335 1991,-335 1991,-234.21 1991,-234.21"/>
<polygon fill="#4d4d4d" stroke="#4d4d4d" points="1993.45,-234.21 1991,-227.21 1988.55,-234.21 1993.45,-234.21"/>
</g>
<!-- C&#45;1023 -->
<g id="node47" class="node">
<title>C&#45;1023</title>
<ellipse fill="mediumseagreen" stroke="black" cx="1356" cy="-223.5" rx="72" ry="21.5"/>
<text text-anchor="middle" x="1356" y="-221" font-family="Arial" font-size="10.00">C&#45;1023</text>
</g>
<!-- C&#45;1067&#45;&gt;C&#45;1023 -->
<g id="edge23" class="edge">
<title>C&#45;1067&#45;&gt;C&#45;1023</title>
<path fill="none" stroke="#4d4d4d" d="M1623.33,-331C1543.93,-331 1424,-331 1424,-331 1424,-331 1424,-237.89 1424,-237.89"/>
<polygon fill="#4d4d4d" stroke="#4d4d4d" points="1426.45,-237.89 1424,-230.89 1421.55,-237.89 1426.45,-237.89"/>
</g>
<!-- C&#45;0105&#45;&gt;C&#45;0371 -->
<g id="edge4" class="edge">
<title>C&#45;0105&#45;&gt;C&#45;0371</title>
<path fill="none" stroke="#4d4d4d" d="M1729.16,-735C1603.11,-735 1348,-735 1348,-735 1348,-735 1348,-656.25 1348,-656.25"/>
<polygon fill="#4d4d4d" stroke="#4d4d4d" points="1350.45,-656.25 1348,-649.25 1345.55,-656.25 1350.45,-656.25"/>
</g>
<!-- C&#45;0105&#45;&gt;C&#45;1230 -->
<g id="edge29" class="edge">
<title>C&#45;0105&#45;&gt;C&#45;1230</title>
<path fill="none" stroke="#4d4d4d" d="M1730.22,-721C1650.24,-721 1528,-721 1528,-721 1528,-721 1528,-656.19 1528,-656.19"/>
<polygon fill="#4d4d4d" stroke="#4d4d4d" points="1530.45,-656.19 1528,-649.19 1525.55,-656.19 1530.45,-656.19"/>
</g>
<!-- S&#45;585 -->
<g id="node32" class="node">
<title>S&#45;585</title>
<polygon fill="mediumseagreen" stroke="black" points="1708,-649 1636,-627.5 1708,-606 1780,-627.5 1708,-649"/>
<text text-anchor="middle" x="1708" y="-625" font-family="Arial" font-size="10.00">S&#45;585</text>
</g>
<!-- C&#45;0105&#45;&gt;S&#45;585 -->
<g id="edge2" class="edge">
<title>C&#45;0105&#45;&gt;S&#45;585</title>
<path fill="none" stroke="#4d4d4d" d="M1753,-711.37C1753,-711.37 1753,-642.78 1753,-642.78"/>
<polygon fill="#4d4d4d" stroke="#4d4d4d" points="1755.45,-642.78 1753,-635.78 1750.55,-642.78 1755.45,-642.78"/>
</g>
<!-- C&#45;0372 -->
<g id="node36" class="node">
<title>C&#45;0372</title>
<ellipse fill="mediumseagreen" stroke="black" cx="1888" cy="-627.5" rx="72" ry="21.5"/>
<text text-anchor="middle" x="1888" y="-625" font-family="Arial" font-size="10.00">C&#45;0372</text>
</g>
<!-- C&#45;0105&#45;&gt;C&#45;0372 -->
<g id="edge3" class="edge">
<title>C&#45;0105&#45;&gt;C&#45;0372</title>
<path fill="none" stroke="#4d4d4d" d="M1843,-711.37C1843,-711.37 1843,-651.38 1843,-651.38"/>
<polygon fill="#4d4d4d" stroke="#4d4d4d" points="1845.45,-651.38 1843,-644.38 1840.55,-651.38 1845.45,-651.38"/>
</g>
<!-- C&#45;1229 -->
<g id="node38" class="node">
<title>C&#45;1229</title>
<ellipse fill="tomato" stroke="black" cx="2068" cy="-627.5" rx="72" ry="21.5"/>
<text text-anchor="middle" x="2068" y="-625" font-family="Arial" font-size="10.00">C&#45;1229</text>
</g>
<!-- C&#45;0105&#45;&gt;C&#45;1229 -->
<g id="edge28" class="edge">
<title>C&#45;0105&#45;&gt;C&#45;1229</title>
<path fill="none" stroke="#4d4d4d" d="M1865.78,-721C1945.76,-721 2068,-721 2068,-721 2068,-721 2068,-656.19 2068,-656.19"/>
<polygon fill="#4d4d4d" stroke="#4d4d4d" points="2070.45,-656.19 2068,-649.19 2065.55,-656.19 2070.45,-656.19"/>
</g>
<!-- S&#45;679 -->
<g id="node41" class="node">
<title>S&#45;679</title>
<polygon fill="mediumseagreen" stroke="black" points="2248,-649 2176,-627.5 2248,-606 2320,-627.5 2248,-649"/>
<text text-anchor="middle" x="2248" y="-625" font-family="Arial" font-size="10.00">S&#45;679</text>
</g>
<!-- C&#45;0105&#45;&gt;S&#45;679 -->
<g id="edge49" class="edge">
<title>C&#45;0105&#45;&gt;S&#45;679</title>
<path fill="none" stroke="#4d4d4d" d="M1866.84,-735C1992.89,-735 2248,-735 2248,-735 2248,-735 2248,-656.25 2248,-656.25"/>
<polygon fill="#4d4d4d" stroke="#4d4d4d" points="2250.45,-656.25 2248,-649.25 2245.55,-656.25 2250.45,-656.25"/>
</g>
<!-- R&#45;250 -->
<g id="node31" class="node">
<title>R&#45;250</title>
<polygon fill="tomato" stroke="black" points="1404,-113.59 1404,-131.41 1361.82,-144 1302.18,-144 1260,-131.41 1260,-113.59 1302.18,-101 1361.82,-101 1404,-113.59"/>
<text text-anchor="middle" x="1332" y="-120" font-family="Arial" font-size="10.00">R&#45;250</text>
</g>
<!-- R&#45;250&#45;&gt;ext_circ_112_23_ -->
<g id="edge56" class="edge">
<title>R&#45;250&#45;&gt;ext_circ_112_23_</title>
<path fill="none" stroke="darkorange" stroke-dasharray="5,2" d="M1332,-100.79C1332,-87.1 1332,-72 1332,-72 1332,-72 1548,-72 1548,-72 1548,-72 1548,-50.21 1548,-50.21"/>
<polygon fill="darkorange" stroke="darkorange" points="1550.45,-50.21 1548,-43.21 1545.55,-50.21 1550.45,-50.21"/>
</g>
<!-- S&#45;584 -->
<g id="node33" class="node">
<title>S&#45;584</title>
<polygon fill="mediumseagreen" stroke="black" points="980,-245 908,-223.5 980,-202 1052,-223.5 980,-245"/>
<text text-anchor="middle" x="980" y="-221" font-family="Arial" font-size="10.00">S&#45;584</text>
</g>
<!-- S&#45;584&#45;&gt;S&#45;1773 -->
<g id="edge37" class="edge">
<title>S&#45;584&#45;&gt;S&#45;1773</title>
<path fill="none" stroke="#4d4d4d" d="M1048,-222.07C1048,-209.73 1048,-122 1048,-122 1048,-122 1074.48,-122 1074.48,-122"/>
<polygon fill="#4d4d4d" stroke="#4d4d4d" points="1074.48,-124.45 1081.48,-122 1074.48,-119.55 1074.48,-124.45"/>
</g>
<!-- S&#45;584&#45;&gt;S&#45;1794 -->
<g id="edge34" class="edge">
<title>S&#45;584&#45;&gt;S&#45;1794</title>
<path fill="none" stroke="#4d4d4d" d="M976,-203.06C976,-203.06 976,-149.91 976,-149.91"/>
<polygon fill="#4d4d4d" stroke="#4d4d4d" points="978.45,-149.91 976,-142.91 973.55,-149.91 978.45,-149.91"/>
</g>
<!-- R&#45;124 -->
<g id="node39" class="node">
<title>R&#45;124</title>
<polygon fill="mediumseagreen" stroke="black" points="1986,-517.59 1986,-535.41 1943.82,-548 1884.18,-548 1842,-535.41 1842,-517.59 1884.18,-505 1943.82,-505 1986,-517.59"/>
<text text-anchor="middle" x="1914" y="-524" font-family="Arial" font-size="10.00">R&#45;124</text>
</g>
<!-- C&#45;0372&#45;&gt;R&#45;124 -->
<g id="edge5" class="edge">
<title>C&#45;0372&#45;&gt;R&#45;124</title>
<path fill="none" stroke="#4d4d4d" d="M1901,-606.08C1901,-606.08 1901,-555.24 1901,-555.24"/>
<polygon fill="#4d4d4d" stroke="#4d4d4d" points="1903.45,-555.24 1901,-548.24 1898.55,-555.24 1903.45,-555.24"/>
</g>
<!-- C&#45;1298&#45;&gt;R&#45;303 -->
<g id="edge21" class="edge">
<title>C&#45;1298&#45;&gt;R&#45;303</title>
<path fill="none" stroke="#4d4d4d" d="M1872,-201.58C1872,-201.58 1872,-151.03 1872,-151.03"/>
<polygon fill="#4d4d4d" stroke="#4d4d4d" points="1874.45,-151.03 1872,-144.03 1869.55,-151.03 1874.45,-151.03"/>
</g>
<!-- C&#45;1231 -->
<g id="node49" class="node">
<title>C&#45;1231</title>
<ellipse fill="mediumseagreen" stroke="black" cx="964" cy="-425.5" rx="72" ry="21.5"/>
<text text-anchor="middle" x="964" y="-423" font-family="Arial" font-size="10.00">C&#45;1231</text>
</g>
<!-- C&#45;1229&#45;&gt;C&#45;1231 -->
<g id="edge59" class="edge">
<title>C&#45;1229&#45;&gt;C&#45;1231</title>
<path fill="none" stroke="blue" stroke-dasharray="5,2" d="M2060,-605.87C2060,-552.34 2060,-418 2060,-418 2060,-418 1038.73,-418 1038.73,-418"/>
<polygon fill="blue" stroke="blue" points="1038.73,-415.55 1031.73,-418 1038.73,-420.45 1038.73,-415.55"/>
</g>
<!-- R&#45;124&#45;&gt;C&#45;0373 -->
<g id="edge6" class="edge">
<title>R&#45;124&#45;&gt;C&#45;0373</title>
<path fill="none" stroke="#4d4d4d" d="M1962,-510.04C1962,-484.7 1962,-439 1962,-439 1962,-439 2438.74,-439 2438.74,-439"/>
<polygon fill="#4d4d4d" stroke="#4d4d4d" points="2438.74,-441.45 2445.74,-439 2438.74,-436.55 2438.74,-441.45"/>
</g>
<!-- R&#45;269&#45;&gt;ext_circ_307_23_ -->
<g id="edge57" class="edge">
<title>R&#45;269&#45;&gt;ext_circ_307_23_</title>
<path fill="none" stroke="darkorange" stroke-dasharray="5,2" d="M3057.5,-202.08C3057.5,-202.08 3057.5,-151.24 3057.5,-151.24"/>
<polygon fill="darkorange" stroke="darkorange" points="3059.95,-151.24 3057.5,-144.24 3055.05,-151.24 3059.95,-151.24"/>
</g>
<!-- R&#45;057&#45;&gt;C&#45;1231 -->
<g id="edge31" class="edge">
<title>R&#45;057&#45;&gt;C&#45;1231</title>
<path fill="none" stroke="#4d4d4d" d="M1435,-516.02C1435,-490.09 1435,-425 1435,-425 1435,-425 1043.05,-425 1043.05,-425"/>
<polygon fill="#4d4d4d" stroke="#4d4d4d" points="1043.05,-422.55 1036.05,-425 1043.05,-427.45 1043.05,-422.55"/>
</g>
<!-- S&#45;1888 -->
<g id="node45" class="node">
<title>S&#45;1888</title>
<polygon fill="mediumseagreen" stroke="black" points="874,-346 802,-324.5 874,-303 946,-324.5 874,-346"/>
<text text-anchor="middle" x="874" y="-322" font-family="Arial" font-size="10.00">S&#45;1888</text>
</g>
<!-- C&#45;1023&#45;&gt;R&#45;250 -->
<g id="edge24" class="edge">
<title>C&#45;1023&#45;&gt;R&#45;250</title>
<path fill="none" stroke="#4d4d4d" d="M1344,-202.08C1344,-202.08 1344,-151.24 1344,-151.24"/>
<polygon fill="#4d4d4d" stroke="#4d4d4d" points="1346.45,-151.24 1344,-144.24 1341.55,-151.24 1346.45,-151.24"/>
</g>
<!-- C&#45;1231&#45;&gt;S&#45;557 -->
<g id="edge40" class="edge">
<title>C&#45;1231&#45;&gt;S&#45;557</title>
<path fill="none" stroke="#4d4d4d" d="M891.87,-425C800,-425 653,-425 653,-425 653,-425 653,-353.31 653,-353.31"/>
<polygon fill="#4d4d4d" stroke="#4d4d4d" points="655.45,-353.31 653,-346.31 650.55,-353.31 655.45,-353.31"/>
</g>
<!-- C&#45;1231&#45;&gt;S&#45;1888 -->
<g id="edge39" class="edge">
<title>C&#45;1231&#45;&gt;S&#45;1888</title>
<path fill="none" stroke="#4d4d4d" d="M919,-408.37C919,-408.37 919,-339.78 919,-339.78"/>
<polygon fill="#4d4d4d" stroke="#4d4d4d" points="921.45,-339.78 919,-332.78 916.55,-339.78 921.45,-339.78"/>
</g>
<!-- SR&#45;0006 -->
<g id="node50" class="node">
<title>SR&#45;0006</title>
<polygon fill="mediumseagreen" stroke="black" points="1054,-346 982,-324.5 1054,-303 1126,-324.5 1054,-346"/>
<text text-anchor="middle" x="1054" y="-322" font-family="Arial" font-size="10.00">SR&#45;0006</text>
</g>
<!-- C&#45;1231&#45;&gt;SR&#45;0006 -->
<g id="edge32" class="edge">
<title>C&#45;1231&#45;&gt;SR&#45;0006</title>
<path fill="none" stroke="#4d4d4d" d="M1009,-408.37C1009,-408.37 1009,-339.78 1009,-339.78"/>
<polygon fill="#4d4d4d" stroke="#4d4d4d" points="1011.45,-339.78 1009,-332.78 1006.55,-339.78 1011.45,-339.78"/>
</g>
<!-- SR&#45;0006&#45;&gt;S&#45;1152 -->
<g id="edge38" class="edge">
<title>SR&#45;0006&#45;&gt;S&#45;1152</title>
<path fill="none" stroke="#4d4d4d" d="M1107,-318.78C1107,-318.78 1107,-236.41 1107,-236.41"/>
<polygon fill="#4d4d4d" stroke="#4d4d4d" points="1109.45,-236.41 1107,-229.41 1104.55,-236.41 1109.45,-236.41"/>
</g>
<!-- SR&#45;0006&#45;&gt;S&#45;584 -->
<g id="edge33" class="edge">
<title>SR&#45;0006&#45;&gt;S&#45;584</title>
<path fill="none" stroke="#4d4d4d" d="M1017,-313.69C1017,-313.69 1017,-241.23 1017,-241.23"/>
<polygon fill="#4d4d4d" stroke="#4d4d4d" points="1019.45,-241.23 1017,-234.23 1014.55,-241.23 1019.45,-241.23"/>
</g>
</g>
</svg>
