<?xml version="1.0" encoding="UTF-8" standalone="no"?>
<!DOCTYPE svg PUBLIC "-//W3C//DTD SVG 1.1//EN"
 "http://www.w3.org/Graphics/SVG/1.1/DTD/svg11.dtd">
<!-- Generated by graphviz version 2.50.0 (0)
 -->
<!-- Title: Grafo_Circuito_307_22_ Pages: 1 -->
<svg width="1701pt" height="2281pt"
 viewBox="0.00 0.00 1701.00 2281.00" xmlns="http://www.w3.org/2000/svg" xmlns:xlink="http://www.w3.org/1999/xlink">
<g id="graph0" class="graph" transform="scale(1 1) rotate(0) translate(4 2277)">
<title>Grafo_Circuito_307_22_</title>
<polygon fill="white" stroke="transparent" points="-4,4 -4,-2277 1697,-2277 1697,4 -4,4"/>
<!-- 307&#45;22&#45; -->
<g id="node1" class="node">
<title>307&#45;22&#45;</title>
<polygon fill="gold" stroke="black" points="594,-2238.59 594,-2256.41 551.82,-2269 492.18,-2269 450,-2256.41 450,-2238.59 492.18,-2226 551.82,-2226 594,-2238.59"/>
<polygon fill="none" stroke="black" points="598,-2235.61 598,-2259.39 552.41,-2273 491.59,-2273 446,-2259.39 446,-2235.61 491.59,-2222 552.41,-2222 598,-2235.61"/>
<text text-anchor="middle" x="522" y="-2245" font-family="Arial" font-size="10.00">307&#45;22&#45;</text>
</g>
<!-- C&#45;0082 -->
<g id="node61" class="node">
<title>C&#45;0082</title>
<ellipse fill="mediumseagreen" stroke="black" cx="522" cy="-2142.5" rx="72" ry="21.5"/>
<text text-anchor="middle" x="522" y="-2140" font-family="Arial" font-size="10.00">C&#45;0082</text>
</g>
<!-- 307&#45;22&#45;&#45;&gt;C&#45;0082 -->
<g id="edge1" class="edge">
<title>307&#45;22&#45;&#45;&gt;C&#45;0082</title>
<path fill="none" stroke="#4d4d4d" d="M522,-2221.81C522,-2221.81 522,-2171.03 522,-2171.03"/>
<polygon fill="#4d4d4d" stroke="#4d4d4d" points="524.45,-2171.03 522,-2164.03 519.55,-2171.03 524.45,-2171.03"/>
</g>
<!-- R&#45;129 -->
<g id="node2" class="node">
<title>R&#45;129</title>
<polygon fill="mediumseagreen" stroke="black" points="954,-1325.59 954,-1343.41 911.82,-1356 852.18,-1356 810,-1343.41 810,-1325.59 852.18,-1313 911.82,-1313 954,-1325.59"/>
<text text-anchor="middle" x="882" y="-1332" font-family="Arial" font-size="10.00">R&#45;129</text>
</g>
<!-- C&#45;0385 -->
<g id="node22" class="node">
<title>C&#45;0385</title>
<ellipse fill="mediumseagreen" stroke="black" cx="882" cy="-1233.5" rx="72" ry="21.5"/>
<text text-anchor="middle" x="882" y="-1231" font-family="Arial" font-size="10.00">C&#45;0385</text>
</g>
<!-- R&#45;129&#45;&gt;C&#45;0385 -->
<g id="edge18" class="edge">
<title>R&#45;129&#45;&gt;C&#45;0385</title>
<path fill="none" stroke="#4d4d4d" d="M882,-1312.58C882,-1312.58 882,-1262.03 882,-1262.03"/>
<polygon fill="#4d4d4d" stroke="#4d4d4d" points="884.45,-1262.03 882,-1255.03 879.55,-1262.03 884.45,-1262.03"/>
</g>
<!-- S&#45;2533 -->
<g id="node3" class="node">
<title>S&#45;2533</title>
<polygon fill="mediumseagreen" stroke="black" points="792,-1053 720,-1031.5 792,-1010 864,-1031.5 792,-1053"/>
<text text-anchor="middle" x="792" y="-1029" font-family="Arial" font-size="10.00">S&#45;2533</text>
</g>
<!-- S&#45;181 -->
<g id="node4" class="node">
<title>S&#45;181</title>
<polygon fill="mediumseagreen" stroke="black" points="162,-1457 90,-1435.5 162,-1414 234,-1435.5 162,-1457"/>
<text text-anchor="middle" x="162" y="-1433" font-family="Arial" font-size="10.00">S&#45;181</text>
</g>
<!-- S&#45;1565 -->
<g id="node13" class="node">
<title>S&#45;1565</title>
<polygon fill="mediumseagreen" stroke="black" points="72,-1356 0,-1334.5 72,-1313 144,-1334.5 72,-1356"/>
<text text-anchor="middle" x="72" y="-1332" font-family="Arial" font-size="10.00">S&#45;1565</text>
</g>
<!-- S&#45;181&#45;&gt;S&#45;1565 -->
<g id="edge56" class="edge">
<title>S&#45;181&#45;&gt;S&#45;1565</title>
<path fill="none" stroke="#4d4d4d" d="M117,-1427.23C117,-1427.23 117,-1349.6 117,-1349.6"/>
<polygon fill="#4d4d4d" stroke="#4d4d4d" points="119.45,-1349.6 117,-1342.6 114.55,-1349.6 119.45,-1349.6"/>
</g>
<!-- SR&#45;0016 -->
<g id="node14" class="node">
<title>SR&#45;0016</title>
<polygon fill="mediumseagreen" stroke="black" points="252,-1356 180,-1334.5 252,-1313 324,-1334.5 252,-1356"/>
<text text-anchor="middle" x="252" y="-1332" font-family="Arial" font-size="10.00">SR&#45;0016</text>
</g>
<!-- S&#45;181&#45;&gt;SR&#45;0016 -->
<g id="edge54" class="edge">
<title>S&#45;181&#45;&gt;SR&#45;0016</title>
<path fill="none" stroke="#4d4d4d" d="M207,-1427.23C207,-1427.23 207,-1349.6 207,-1349.6"/>
<polygon fill="#4d4d4d" stroke="#4d4d4d" points="209.45,-1349.6 207,-1342.6 204.55,-1349.6 209.45,-1349.6"/>
</g>
<!-- S&#45;2405 -->
<g id="node5" class="node">
<title>S&#45;2405</title>
<polygon fill="mediumseagreen" stroke="black" points="612,-1154 540,-1132.5 612,-1111 684,-1132.5 612,-1154"/>
<text text-anchor="middle" x="612" y="-1130" font-family="Arial" font-size="10.00">S&#45;2405</text>
</g>
<!-- S&#45;184 -->
<g id="node6" class="node">
<title>S&#45;184</title>
<polygon fill="mediumseagreen" stroke="black" points="342,-1457 270,-1435.5 342,-1414 414,-1435.5 342,-1457"/>
<text text-anchor="middle" x="342" y="-1433" font-family="Arial" font-size="10.00">S&#45;184</text>
</g>
<!-- C&#45;0902 -->
<g id="node7" class="node">
<title>C&#45;0902</title>
<ellipse fill="mediumseagreen" stroke="black" cx="1441" cy="-425.5" rx="72" ry="21.5"/>
<text text-anchor="middle" x="1441" y="-423" font-family="Arial" font-size="10.00">C&#45;0902</text>
</g>
<!-- C&#45;0903 -->
<g id="node46" class="node">
<title>C&#45;0903</title>
<ellipse fill="tomato" stroke="black" cx="1261" cy="-324.5" rx="72" ry="21.5"/>
<text text-anchor="middle" x="1261" y="-322" font-family="Arial" font-size="10.00">C&#45;0903</text>
</g>
<!-- C&#45;0902&#45;&gt;C&#45;0903 -->
<g id="edge34" class="edge">
<title>C&#45;0902&#45;&gt;C&#45;0903</title>
<path fill="none" stroke="#4d4d4d" d="M1368.94,-425C1328.06,-425 1285,-425 1285,-425 1285,-425 1285,-351.84 1285,-351.84"/>
<polygon fill="#4d4d4d" stroke="#4d4d4d" points="1287.45,-351.84 1285,-344.84 1282.55,-351.84 1287.45,-351.84"/>
</g>
<!-- S&#45;553 -->
<g id="node51" class="node">
<title>S&#45;553</title>
<polygon fill="mediumseagreen" stroke="black" points="1441,-346 1369,-324.5 1441,-303 1513,-324.5 1441,-346"/>
<text text-anchor="middle" x="1441" y="-322" font-family="Arial" font-size="10.00">S&#45;553</text>
</g>
<!-- C&#45;0902&#45;&gt;S&#45;553 -->
<g id="edge36" class="edge">
<title>C&#45;0902&#45;&gt;S&#45;553</title>
<path fill="none" stroke="#4d4d4d" d="M1441,-403.58C1441,-403.58 1441,-353.03 1441,-353.03"/>
<polygon fill="#4d4d4d" stroke="#4d4d4d" points="1443.45,-353.03 1441,-346.03 1438.55,-353.03 1443.45,-353.03"/>
</g>
<!-- S&#45;1568 -->
<g id="node57" class="node">
<title>S&#45;1568</title>
<polygon fill="mediumseagreen" stroke="black" points="1621,-346 1549,-324.5 1621,-303 1693,-324.5 1621,-346"/>
<text text-anchor="middle" x="1621" y="-322" font-family="Arial" font-size="10.00">S&#45;1568</text>
</g>
<!-- C&#45;0902&#45;&gt;S&#45;1568 -->
<g id="edge35" class="edge">
<title>C&#45;0902&#45;&gt;S&#45;1568</title>
<path fill="none" stroke="#4d4d4d" d="M1513.21,-425C1571.89,-425 1645,-425 1645,-425 1645,-425 1645,-345.9 1645,-345.9"/>
<polygon fill="#4d4d4d" stroke="#4d4d4d" points="1647.45,-345.9 1645,-338.9 1642.55,-345.9 1647.45,-345.9"/>
</g>
<!-- S&#45;1563 -->
<g id="node8" class="node">
<title>S&#45;1563</title>
<polygon fill="mediumseagreen" stroke="black" points="522,-1457 450,-1435.5 522,-1414 594,-1435.5 522,-1457"/>
<text text-anchor="middle" x="522" y="-1433" font-family="Arial" font-size="10.00">S&#45;1563</text>
</g>
<!-- R&#45;056 -->
<g id="node9" class="node">
<title>R&#45;056</title>
<polygon fill="mediumseagreen" stroke="black" points="1280,-921.59 1280,-939.41 1237.82,-952 1178.18,-952 1136,-939.41 1136,-921.59 1178.18,-909 1237.82,-909 1280,-921.59"/>
<text text-anchor="middle" x="1208" y="-928" font-family="Arial" font-size="10.00">R&#45;056</text>
</g>
<!-- C&#45;0720 -->
<g id="node56" class="node">
<title>C&#45;0720</title>
<ellipse fill="mediumseagreen" stroke="black" cx="1261" cy="-829.5" rx="72" ry="21.5"/>
<text text-anchor="middle" x="1261" y="-827" font-family="Arial" font-size="10.00">C&#45;0720</text>
</g>
<!-- R&#45;056&#45;&gt;C&#45;0720 -->
<g id="edge27" class="edge">
<title>R&#45;056&#45;&gt;C&#45;0720</title>
<path fill="none" stroke="#4d4d4d" d="M1234.5,-908.58C1234.5,-908.58 1234.5,-856.66 1234.5,-856.66"/>
<polygon fill="#4d4d4d" stroke="#4d4d4d" points="1236.95,-856.66 1234.5,-849.66 1232.05,-856.66 1236.95,-856.66"/>
</g>
<!-- S&#45;555 -->
<g id="node10" class="node">
<title>S&#45;555</title>
<polygon fill="mediumseagreen" stroke="black" points="1441,-750 1369,-728.5 1441,-707 1513,-728.5 1441,-750"/>
<text text-anchor="middle" x="1441" y="-726" font-family="Arial" font-size="10.00">S&#45;555</text>
</g>
<!-- C&#45;0904 -->
<g id="node31" class="node">
<title>C&#45;0904</title>
<ellipse fill="mediumseagreen" stroke="black" cx="1441" cy="-627.5" rx="72" ry="21.5"/>
<text text-anchor="middle" x="1441" y="-625" font-family="Arial" font-size="10.00">C&#45;0904</text>
</g>
<!-- S&#45;555&#45;&gt;C&#45;0904 -->
<g id="edge31" class="edge">
<title>S&#45;555&#45;&gt;C&#45;0904</title>
<path fill="none" stroke="#4d4d4d" d="M1441,-706.58C1441,-706.58 1441,-656.03 1441,-656.03"/>
<polygon fill="#4d4d4d" stroke="#4d4d4d" points="1443.45,-656.03 1441,-649.03 1438.55,-656.03 1443.45,-656.03"/>
</g>
<!-- S&#45;551 -->
<g id="node59" class="node">
<title>S&#45;551</title>
<polygon fill="mediumseagreen" stroke="black" points="1621,-649 1549,-627.5 1621,-606 1693,-627.5 1621,-649"/>
<text text-anchor="middle" x="1621" y="-625" font-family="Arial" font-size="10.00">S&#45;551</text>
</g>
<!-- S&#45;555&#45;&gt;S&#45;551 -->
<g id="edge30" class="edge">
<title>S&#45;555&#45;&gt;S&#45;551</title>
<path fill="none" stroke="#4d4d4d" d="M1511.63,-728C1517.65,-728 1521.5,-728 1521.5,-728 1521.5,-728 1521.5,-627 1521.5,-627 1521.5,-627 1543.55,-627 1543.55,-627"/>
<polygon fill="#4d4d4d" stroke="#4d4d4d" points="1543.55,-629.45 1550.55,-627 1543.55,-624.55 1543.55,-629.45"/>
</g>
<!-- S&#45;2147 -->
<g id="node11" class="node">
<title>S&#45;2147</title>
<polygon fill="mediumseagreen" stroke="black" points="721,-548 649,-526.5 721,-505 793,-526.5 721,-548"/>
<text text-anchor="middle" x="721" y="-524" font-family="Arial" font-size="10.00">S&#45;2147</text>
</g>
<!-- S&#45;2148 -->
<g id="node63" class="node">
<title>S&#45;2148</title>
<polygon fill="mediumseagreen" stroke="black" points="721,-447 649,-425.5 721,-404 793,-425.5 721,-447"/>
<text text-anchor="middle" x="721" y="-423" font-family="Arial" font-size="10.00">S&#45;2148</text>
</g>
<!-- S&#45;2147&#45;&gt;S&#45;2148 -->
<g id="edge50" class="edge">
<title>S&#45;2147&#45;&gt;S&#45;2148</title>
<path fill="none" stroke="#4d4d4d" d="M721,-504.58C721,-504.58 721,-454.03 721,-454.03"/>
<polygon fill="#4d4d4d" stroke="#4d4d4d" points="723.45,-454.03 721,-447.03 718.55,-454.03 723.45,-454.03"/>
</g>
<!-- R&#45;268 -->
<g id="node12" class="node">
<title>R&#45;268</title>
<polygon fill="tomato" stroke="black" points="684,-1830.59 684,-1848.41 641.82,-1861 582.18,-1861 540,-1848.41 540,-1830.59 582.18,-1818 641.82,-1818 684,-1830.59"/>
<text text-anchor="middle" x="612" y="-1837" font-family="Arial" font-size="10.00">R&#45;268</text>
</g>
<!-- ext_circ_307_24_ -->
<g id="node64" class="node">
<title>ext_circ_307_24_</title>
<polygon fill="lightpink" stroke="darkorange" stroke-dasharray="5,2" points="778,-2269 634,-2269 634,-2226 778,-2226 778,-2269"/>
<text text-anchor="middle" x="706" y="-2250.5" font-family="Arial" font-size="10.00">Circuito:</text>
<text text-anchor="middle" x="706" y="-2239.5" font-family="Arial" font-size="10.00">307&#45;24&#45;</text>
</g>
<!-- R&#45;268&#45;&gt;ext_circ_307_24_ -->
<g id="edge69" class="edge">
<title>R&#45;268&#45;&gt;ext_circ_307_24_</title>
<path fill="none" stroke="darkorange" stroke-dasharray="5,2" d="M636,-1861.21C636,-1874.9 636,-1890 636,-1890 636,-1890 882,-1890 882,-1890 882,-1890 882,-2247 882,-2247 882,-2247 785.09,-2247 785.09,-2247"/>
<polygon fill="darkorange" stroke="darkorange" points="785.09,-2244.55 778.09,-2247 785.09,-2249.45 785.09,-2244.55"/>
</g>
<!-- S&#45;2394 -->
<g id="node45" class="node">
<title>S&#45;2394</title>
<polygon fill="mediumseagreen" stroke="black" points="72,-1255 0,-1233.5 72,-1212 144,-1233.5 72,-1255"/>
<text text-anchor="middle" x="72" y="-1231" font-family="Arial" font-size="10.00">S&#45;2394</text>
</g>
<!-- S&#45;1565&#45;&gt;S&#45;2394 -->
<g id="edge57" class="edge">
<title>S&#45;1565&#45;&gt;S&#45;2394</title>
<path fill="none" stroke="#4d4d4d" d="M72,-1312.58C72,-1312.58 72,-1262.03 72,-1262.03"/>
<polygon fill="#4d4d4d" stroke="#4d4d4d" points="74.45,-1262.03 72,-1255.03 69.55,-1262.03 74.45,-1262.03"/>
</g>
<!-- S&#45;180 -->
<g id="node38" class="node">
<title>S&#45;180</title>
<polygon fill="mediumseagreen" stroke="black" points="252,-1255 180,-1233.5 252,-1212 324,-1233.5 252,-1255"/>
<text text-anchor="middle" x="252" y="-1231" font-family="Arial" font-size="10.00">S&#45;180</text>
</g>
<!-- SR&#45;0016&#45;&gt;S&#45;180 -->
<g id="edge55" class="edge">
<title>SR&#45;0016&#45;&gt;S&#45;180</title>
<path fill="none" stroke="#4d4d4d" d="M252,-1312.58C252,-1312.58 252,-1262.03 252,-1262.03"/>
<polygon fill="#4d4d4d" stroke="#4d4d4d" points="254.45,-1262.03 252,-1255.03 249.55,-1262.03 254.45,-1262.03"/>
</g>
<!-- C&#45;0719 -->
<g id="node15" class="node">
<title>C&#45;0719</title>
<ellipse fill="mediumseagreen" stroke="black" cx="1152" cy="-1031.5" rx="72" ry="21.5"/>
<text text-anchor="middle" x="1152" y="-1029" font-family="Arial" font-size="10.00">C&#45;0719</text>
</g>
<!-- C&#45;0719&#45;&gt;R&#45;056 -->
<g id="edge26" class="edge">
<title>C&#45;0719&#45;&gt;R&#45;056</title>
<path fill="none" stroke="#4d4d4d" d="M1180,-1011.55C1180,-1011.55 1180,-959.16 1180,-959.16"/>
<polygon fill="#4d4d4d" stroke="#4d4d4d" points="1182.45,-959.16 1180,-952.16 1177.55,-959.16 1182.45,-959.16"/>
</g>
<!-- SR&#45;0025 -->
<g id="node16" class="node">
<title>SR&#45;0025</title>
<polygon fill="mediumseagreen" stroke="black" points="721,-649 649,-627.5 721,-606 793,-627.5 721,-649"/>
<text text-anchor="middle" x="721" y="-625" font-family="Arial" font-size="10.00">SR&#45;0025</text>
</g>
<!-- SR&#45;0025&#45;&gt;S&#45;2147 -->
<g id="edge49" class="edge">
<title>SR&#45;0025&#45;&gt;S&#45;2147</title>
<path fill="none" stroke="#4d4d4d" d="M721,-605.58C721,-605.58 721,-555.03 721,-555.03"/>
<polygon fill="#4d4d4d" stroke="#4d4d4d" points="723.45,-555.03 721,-548.03 718.55,-555.03 723.45,-555.03"/>
</g>
<!-- S&#45;183 -->
<g id="node17" class="node">
<title>S&#45;183</title>
<polygon fill="mediumseagreen" stroke="black" points="702,-1457 630,-1435.5 702,-1414 774,-1435.5 702,-1457"/>
<text text-anchor="middle" x="702" y="-1433" font-family="Arial" font-size="10.00">S&#45;183</text>
</g>
<!-- S&#45;308 -->
<g id="node18" class="node">
<title>S&#45;308</title>
<polygon fill="mediumseagreen" stroke="black" points="721,-750 649,-728.5 721,-707 793,-728.5 721,-750"/>
<text text-anchor="middle" x="721" y="-726" font-family="Arial" font-size="10.00">S&#45;308</text>
</g>
<!-- S&#45;308&#45;&gt;SR&#45;0025 -->
<g id="edge48" class="edge">
<title>S&#45;308&#45;&gt;SR&#45;0025</title>
<path fill="none" stroke="#4d4d4d" d="M721,-706.58C721,-706.58 721,-656.03 721,-656.03"/>
<polygon fill="#4d4d4d" stroke="#4d4d4d" points="723.45,-656.03 721,-649.03 718.55,-656.03 723.45,-656.03"/>
</g>
<!-- S&#45;556 -->
<g id="node19" class="node">
<title>S&#45;556</title>
<polygon fill="mediumseagreen" stroke="black" points="1441,-245 1369,-223.5 1441,-202 1513,-223.5 1441,-245"/>
<text text-anchor="middle" x="1441" y="-221" font-family="Arial" font-size="10.00">S&#45;556</text>
</g>
<!-- S&#45;548 -->
<g id="node58" class="node">
<title>S&#45;548</title>
<polygon fill="mediumseagreen" stroke="black" points="1441,-144 1369,-122.5 1441,-101 1513,-122.5 1441,-144"/>
<text text-anchor="middle" x="1441" y="-120" font-family="Arial" font-size="10.00">S&#45;548</text>
</g>
<!-- S&#45;556&#45;&gt;S&#45;548 -->
<g id="edge38" class="edge">
<title>S&#45;556&#45;&gt;S&#45;548</title>
<path fill="none" stroke="#4d4d4d" d="M1441,-201.58C1441,-201.58 1441,-151.03 1441,-151.03"/>
<polygon fill="#4d4d4d" stroke="#4d4d4d" points="1443.45,-151.03 1441,-144.03 1438.55,-151.03 1443.45,-151.03"/>
</g>
<!-- S&#45;1531 -->
<g id="node20" class="node">
<title>S&#45;1531</title>
<polygon fill="mediumseagreen" stroke="black" points="1441,-43 1369,-21.5 1441,0 1513,-21.5 1441,-43"/>
<text text-anchor="middle" x="1441" y="-19" font-family="Arial" font-size="10.00">S&#45;1531</text>
</g>
<!-- C&#45;0868 -->
<g id="node21" class="node">
<title>C&#45;0868</title>
<ellipse fill="mediumseagreen" stroke="black" cx="792" cy="-1738.5" rx="72" ry="21.5"/>
<text text-anchor="middle" x="792" y="-1736" font-family="Arial" font-size="10.00">C&#45;0868</text>
</g>
<!-- S&#45;1566 -->
<g id="node28" class="node">
<title>S&#45;1566</title>
<polygon fill="mediumseagreen" stroke="black" points="702,-1659 630,-1637.5 702,-1616 774,-1637.5 702,-1659"/>
<text text-anchor="middle" x="702" y="-1635" font-family="Arial" font-size="10.00">S&#45;1566</text>
</g>
<!-- C&#45;0868&#45;&gt;S&#45;1566 -->
<g id="edge59" class="edge">
<title>C&#45;0868&#45;&gt;S&#45;1566</title>
<path fill="none" stroke="#4d4d4d" d="M747,-1721.37C747,-1721.37 747,-1652.78 747,-1652.78"/>
<polygon fill="#4d4d4d" stroke="#4d4d4d" points="749.45,-1652.78 747,-1645.78 744.55,-1652.78 749.45,-1652.78"/>
</g>
<!-- C&#45;0198 -->
<g id="node33" class="node">
<title>C&#45;0198</title>
<ellipse fill="mediumseagreen" stroke="black" cx="882" cy="-1637.5" rx="72" ry="21.5"/>
<text text-anchor="middle" x="882" y="-1635" font-family="Arial" font-size="10.00">C&#45;0198</text>
</g>
<!-- C&#45;0868&#45;&gt;C&#45;0198 -->
<g id="edge9" class="edge">
<title>C&#45;0868&#45;&gt;C&#45;0198</title>
<path fill="none" stroke="#4d4d4d" d="M837,-1721.37C837,-1721.37 837,-1661.38 837,-1661.38"/>
<polygon fill="#4d4d4d" stroke="#4d4d4d" points="839.45,-1661.38 837,-1654.38 834.55,-1661.38 839.45,-1661.38"/>
</g>
<!-- C&#45;0385&#45;&gt;S&#45;2405 -->
<g id="edge22" class="edge">
<title>C&#45;0385&#45;&gt;S&#45;2405</title>
<path fill="none" stroke="#4d4d4d" d="M809.88,-1233C744.07,-1233 657,-1233 657,-1233 657,-1233 657,-1147.72 657,-1147.72"/>
<polygon fill="#4d4d4d" stroke="#4d4d4d" points="659.45,-1147.72 657,-1140.72 654.55,-1147.72 659.45,-1147.72"/>
</g>
<!-- S&#45;1841 -->
<g id="node29" class="node">
<title>S&#45;1841</title>
<polygon fill="mediumseagreen" stroke="black" points="792,-1154 720,-1132.5 792,-1111 864,-1132.5 792,-1154"/>
<text text-anchor="middle" x="792" y="-1130" font-family="Arial" font-size="10.00">S&#45;1841</text>
</g>
<!-- C&#45;0385&#45;&gt;S&#45;1841 -->
<g id="edge19" class="edge">
<title>C&#45;0385&#45;&gt;S&#45;1841</title>
<path fill="none" stroke="#4d4d4d" d="M828,-1219.03C828,-1219.03 828,-1150.52 828,-1150.52"/>
<polygon fill="#4d4d4d" stroke="#4d4d4d" points="830.45,-1150.52 828,-1143.52 825.55,-1150.52 830.45,-1150.52"/>
</g>
<!-- S&#45;1978 -->
<g id="node42" class="node">
<title>S&#45;1978</title>
<polygon fill="mediumseagreen" stroke="black" points="972,-1154 900,-1132.5 972,-1111 1044,-1132.5 972,-1154"/>
<text text-anchor="middle" x="972" y="-1130" font-family="Arial" font-size="10.00">S&#45;1978</text>
</g>
<!-- C&#45;0385&#45;&gt;S&#45;1978 -->
<g id="edge51" class="edge">
<title>C&#45;0385&#45;&gt;S&#45;1978</title>
<path fill="none" stroke="#4d4d4d" d="M927,-1216.37C927,-1216.37 927,-1147.78 927,-1147.78"/>
<polygon fill="#4d4d4d" stroke="#4d4d4d" points="929.45,-1147.78 927,-1140.78 924.55,-1147.78 929.45,-1147.78"/>
</g>
<!-- C&#45;0142 -->
<g id="node53" class="node">
<title>C&#45;0142</title>
<ellipse fill="mediumseagreen" stroke="black" cx="1152" cy="-1132.5" rx="72" ry="21.5"/>
<text text-anchor="middle" x="1152" y="-1130" font-family="Arial" font-size="10.00">C&#45;0142</text>
</g>
<!-- C&#45;0385&#45;&gt;C&#45;0142 -->
<g id="edge23" class="edge">
<title>C&#45;0385&#45;&gt;C&#45;0142</title>
<path fill="none" stroke="#4d4d4d" d="M954.12,-1233C1019.93,-1233 1107,-1233 1107,-1233 1107,-1233 1107,-1156.55 1107,-1156.55"/>
<polygon fill="#4d4d4d" stroke="#4d4d4d" points="1109.45,-1156.55 1107,-1149.55 1104.55,-1156.55 1109.45,-1156.55"/>
</g>
<!-- S&#45;1564 -->
<g id="node23" class="node">
<title>S&#45;1564</title>
<polygon fill="mediumseagreen" stroke="black" points="972,-1962 900,-1940.5 972,-1919 1044,-1940.5 972,-1962"/>
<text text-anchor="middle" x="972" y="-1938" font-family="Arial" font-size="10.00">S&#45;1564</text>
</g>
<!-- C&#45;0384 -->
<g id="node24" class="node">
<title>C&#45;0384</title>
<ellipse fill="mediumseagreen" stroke="black" cx="882" cy="-1435.5" rx="72" ry="21.5"/>
<text text-anchor="middle" x="882" y="-1433" font-family="Arial" font-size="10.00">C&#45;0384</text>
</g>
<!-- C&#45;0384&#45;&gt;R&#45;129 -->
<g id="edge17" class="edge">
<title>C&#45;0384&#45;&gt;R&#45;129</title>
<path fill="none" stroke="#4d4d4d" d="M882,-1413.58C882,-1413.58 882,-1363.03 882,-1363.03"/>
<polygon fill="#4d4d4d" stroke="#4d4d4d" points="884.45,-1363.03 882,-1356.03 879.55,-1363.03 884.45,-1363.03"/>
</g>
<!-- S&#45;2128 -->
<g id="node25" class="node">
<title>S&#45;2128</title>
<polygon fill="mediumseagreen" stroke="black" points="1261,-649 1189,-627.5 1261,-606 1333,-627.5 1261,-649"/>
<text text-anchor="middle" x="1261" y="-625" font-family="Arial" font-size="10.00">S&#45;2128</text>
</g>
<!-- C&#45;0960 -->
<g id="node26" class="node">
<title>C&#45;0960</title>
<ellipse fill="mediumseagreen" stroke="black" cx="901" cy="-829.5" rx="72" ry="21.5"/>
<text text-anchor="middle" x="901" y="-827" font-family="Arial" font-size="10.00">C&#45;0960</text>
</g>
<!-- C&#45;0960&#45;&gt;S&#45;308 -->
<g id="edge47" class="edge">
<title>C&#45;0960&#45;&gt;S&#45;308</title>
<path fill="none" stroke="#4d4d4d" d="M833.4,-822C795.8,-822 756.5,-822 756.5,-822 756.5,-822 756.5,-746.59 756.5,-746.59"/>
<polygon fill="#4d4d4d" stroke="#4d4d4d" points="758.95,-746.59 756.5,-739.59 754.05,-746.59 758.95,-746.59"/>
</g>
<!-- C&#45;0961 -->
<g id="node62" class="node">
<title>C&#45;0961</title>
<ellipse fill="tomato" stroke="black" cx="901" cy="-728.5" rx="72" ry="21.5"/>
<text text-anchor="middle" x="901" y="-726" font-family="Arial" font-size="10.00">C&#45;0961</text>
</g>
<!-- C&#45;0960&#45;&gt;C&#45;0961 -->
<g id="edge46" class="edge">
<title>C&#45;0960&#45;&gt;C&#45;0961</title>
<path fill="none" stroke="#4d4d4d" d="M901,-807.58C901,-807.58 901,-757.03 901,-757.03"/>
<polygon fill="#4d4d4d" stroke="#4d4d4d" points="903.45,-757.03 901,-750.03 898.55,-757.03 903.45,-757.03"/>
</g>
<!-- S&#45;1777 -->
<g id="node27" class="node">
<title>S&#45;1777</title>
<polygon fill="mediumseagreen" stroke="black" points="1062,-1457 990,-1435.5 1062,-1414 1134,-1435.5 1062,-1457"/>
<text text-anchor="middle" x="1062" y="-1433" font-family="Arial" font-size="10.00">S&#45;1777</text>
</g>
<!-- S&#45;1841&#45;&gt;S&#45;2533 -->
<g id="edge21" class="edge">
<title>S&#45;1841&#45;&gt;S&#45;2533</title>
<path fill="none" stroke="#4d4d4d" d="M792,-1110.58C792,-1110.58 792,-1060.03 792,-1060.03"/>
<polygon fill="#4d4d4d" stroke="#4d4d4d" points="794.45,-1060.03 792,-1053.03 789.55,-1060.03 794.45,-1060.03"/>
</g>
<!-- S&#45;1840 -->
<g id="node49" class="node">
<title>S&#45;1840</title>
<polygon fill="tomato" stroke="black" points="612,-1053 540,-1031.5 612,-1010 684,-1031.5 612,-1053"/>
<text text-anchor="middle" x="612" y="-1029" font-family="Arial" font-size="10.00">S&#45;1840</text>
</g>
<!-- S&#45;1841&#45;&gt;S&#45;1840 -->
<g id="edge20" class="edge">
<title>S&#45;1841&#45;&gt;S&#45;1840</title>
<path fill="none" stroke="#4d4d4d" d="M721.53,-1132C710.14,-1132 702,-1132 702,-1132 702,-1132 702,-1031 702,-1031 702,-1031 689.47,-1031 689.47,-1031"/>
<polygon fill="#4d4d4d" stroke="#4d4d4d" points="689.47,-1028.55 682.47,-1031 689.47,-1033.45 689.47,-1028.55"/>
</g>
<!-- R&#45;210 -->
<g id="node30" class="node">
<title>R&#45;210</title>
<polygon fill="mediumseagreen" stroke="black" points="1513,-517.59 1513,-535.41 1470.82,-548 1411.18,-548 1369,-535.41 1369,-517.59 1411.18,-505 1470.82,-505 1513,-517.59"/>
<text text-anchor="middle" x="1441" y="-524" font-family="Arial" font-size="10.00">R&#45;210</text>
</g>
<!-- R&#45;210&#45;&gt;C&#45;0902 -->
<g id="edge33" class="edge">
<title>R&#45;210&#45;&gt;C&#45;0902</title>
<path fill="none" stroke="#4d4d4d" d="M1441,-504.58C1441,-504.58 1441,-454.03 1441,-454.03"/>
<polygon fill="#4d4d4d" stroke="#4d4d4d" points="1443.45,-454.03 1441,-447.03 1438.55,-454.03 1443.45,-454.03"/>
</g>
<!-- C&#45;0904&#45;&gt;R&#45;210 -->
<g id="edge32" class="edge">
<title>C&#45;0904&#45;&gt;R&#45;210</title>
<path fill="none" stroke="#4d4d4d" d="M1441,-605.58C1441,-605.58 1441,-555.03 1441,-555.03"/>
<polygon fill="#4d4d4d" stroke="#4d4d4d" points="1443.45,-555.03 1441,-548.03 1438.55,-555.03 1443.45,-555.03"/>
</g>
<!-- C&#45;0192 -->
<g id="node32" class="node">
<title>C&#45;0192</title>
<ellipse fill="mediumseagreen" stroke="black" cx="702" cy="-2041.5" rx="72" ry="21.5"/>
<text text-anchor="middle" x="702" y="-2039" font-family="Arial" font-size="10.00">C&#45;0192</text>
</g>
<!-- C&#45;0192&#45;&gt;S&#45;1564 -->
<g id="edge4" class="edge">
<title>C&#45;0192&#45;&gt;S&#45;1564</title>
<path fill="none" stroke="#4d4d4d" d="M774,-2041C853.98,-2041 972,-2041 972,-2041 972,-2041 972,-1969.31 972,-1969.31"/>
<polygon fill="#4d4d4d" stroke="#4d4d4d" points="974.45,-1969.31 972,-1962.31 969.55,-1969.31 974.45,-1969.31"/>
</g>
<!-- C&#45;0867 -->
<g id="node35" class="node">
<title>C&#45;0867</title>
<ellipse fill="tomato" stroke="black" cx="432" cy="-1940.5" rx="72" ry="21.5"/>
<text text-anchor="middle" x="432" y="-1938" font-family="Arial" font-size="10.00">C&#45;0867</text>
</g>
<!-- C&#45;0192&#45;&gt;C&#45;0867 -->
<g id="edge5" class="edge">
<title>C&#45;0192&#45;&gt;C&#45;0867</title>
<path fill="none" stroke="#4d4d4d" d="M648,-2027.16C648,-2012.23 648,-1991 648,-1991 648,-1991 477,-1991 477,-1991 477,-1991 477,-1964.32 477,-1964.32"/>
<polygon fill="#4d4d4d" stroke="#4d4d4d" points="479.45,-1964.32 477,-1957.32 474.55,-1964.32 479.45,-1964.32"/>
</g>
<!-- C&#45;1090 -->
<g id="node41" class="node">
<title>C&#45;1090</title>
<ellipse fill="mediumseagreen" stroke="black" cx="612" cy="-1940.5" rx="72" ry="21.5"/>
<text text-anchor="middle" x="612" y="-1938" font-family="Arial" font-size="10.00">C&#45;1090</text>
</g>
<!-- C&#45;0192&#45;&gt;C&#45;1090 -->
<g id="edge60" class="edge">
<title>C&#45;0192&#45;&gt;C&#45;1090</title>
<path fill="none" stroke="#4d4d4d" d="M666,-2022.5C666,-2022.5 666,-1961.84 666,-1961.84"/>
<polygon fill="#4d4d4d" stroke="#4d4d4d" points="668.45,-1961.84 666,-1954.84 663.55,-1961.84 668.45,-1961.84"/>
</g>
<!-- C&#45;0866 -->
<g id="node54" class="node">
<title>C&#45;0866</title>
<ellipse fill="mediumseagreen" stroke="black" cx="792" cy="-1940.5" rx="72" ry="21.5"/>
<text text-anchor="middle" x="792" y="-1938" font-family="Arial" font-size="10.00">C&#45;0866</text>
</g>
<!-- C&#45;0192&#45;&gt;C&#45;0866 -->
<g id="edge6" class="edge">
<title>C&#45;0192&#45;&gt;C&#45;0866</title>
<path fill="none" stroke="#4d4d4d" d="M747,-2024.37C747,-2024.37 747,-1964.38 747,-1964.38"/>
<polygon fill="#4d4d4d" stroke="#4d4d4d" points="749.45,-1964.38 747,-1957.38 744.55,-1964.38 749.45,-1964.38"/>
</g>
<!-- S&#45;1913 -->
<g id="node44" class="node">
<title>S&#45;1913</title>
<polygon fill="mediumseagreen" stroke="black" points="882,-1558 810,-1536.5 882,-1515 954,-1536.5 882,-1558"/>
<text text-anchor="middle" x="882" y="-1534" font-family="Arial" font-size="10.00">S&#45;1913</text>
</g>
<!-- C&#45;0198&#45;&gt;S&#45;1913 -->
<g id="edge10" class="edge">
<title>C&#45;0198&#45;&gt;S&#45;1913</title>
<path fill="none" stroke="#4d4d4d" d="M882,-1615.58C882,-1615.58 882,-1565.03 882,-1565.03"/>
<polygon fill="#4d4d4d" stroke="#4d4d4d" points="884.45,-1565.03 882,-1558.03 879.55,-1565.03 884.45,-1565.03"/>
</g>
<!-- S&#45;1229 -->
<g id="node34" class="node">
<title>S&#45;1229</title>
<polygon fill="mediumseagreen" stroke="black" points="342,-2063 270,-2041.5 342,-2020 414,-2041.5 342,-2063"/>
<text text-anchor="middle" x="342" y="-2039" font-family="Arial" font-size="10.00">S&#45;1229</text>
</g>
<!-- C&#45;0867&#45;&gt;C&#45;0868 -->
<g id="edge63" class="edge">
<title>C&#45;0867&#45;&gt;C&#45;0868</title>
<path fill="none" stroke="blue" stroke-dasharray="5,2" d="M477,-1923.58C477,-1874.91 477,-1738 477,-1738 477,-1738 712.73,-1738 712.73,-1738"/>
<polygon fill="blue" stroke="blue" points="712.73,-1740.45 719.73,-1738 712.73,-1735.55 712.73,-1740.45"/>
</g>
<!-- S&#45;1938 -->
<g id="node36" class="node">
<title>S&#45;1938</title>
<polygon fill="mediumseagreen" stroke="black" points="1242,-1457 1170,-1435.5 1242,-1414 1314,-1435.5 1242,-1457"/>
<text text-anchor="middle" x="1242" y="-1433" font-family="Arial" font-size="10.00">S&#45;1938</text>
</g>
<!-- R&#45;227 -->
<g id="node37" class="node">
<title>R&#45;227</title>
<polygon fill="mediumseagreen" stroke="black" points="987,-921.59 987,-939.41 944.82,-952 885.18,-952 843,-939.41 843,-921.59 885.18,-909 944.82,-909 987,-921.59"/>
<text text-anchor="middle" x="915" y="-928" font-family="Arial" font-size="10.00">R&#45;227</text>
</g>
<!-- R&#45;227&#45;&gt;C&#45;0960 -->
<g id="edge45" class="edge">
<title>R&#45;227&#45;&gt;C&#45;0960</title>
<path fill="none" stroke="#4d4d4d" d="M908,-908.58C908,-908.58 908,-858.03 908,-858.03"/>
<polygon fill="#4d4d4d" stroke="#4d4d4d" points="910.45,-858.03 908,-851.03 905.55,-858.03 910.45,-858.03"/>
</g>
<!-- S&#45;554 -->
<g id="node39" class="node">
<title>S&#45;554</title>
<polygon fill="mediumseagreen" stroke="black" points="1621,-750 1549,-728.5 1621,-707 1693,-728.5 1621,-750"/>
<text text-anchor="middle" x="1621" y="-726" font-family="Arial" font-size="10.00">S&#45;554</text>
</g>
<!-- S&#45;185 -->
<g id="node40" class="node">
<title>S&#45;185</title>
<polygon fill="mediumseagreen" stroke="black" points="1422,-1457 1350,-1435.5 1422,-1414 1494,-1435.5 1422,-1457"/>
<text text-anchor="middle" x="1422" y="-1433" font-family="Arial" font-size="10.00">S&#45;185</text>
</g>
<!-- C&#45;1090&#45;&gt;R&#45;268 -->
<g id="edge61" class="edge">
<title>C&#45;1090&#45;&gt;R&#45;268</title>
<path fill="none" stroke="#4d4d4d" d="M588,-1920.06C588,-1920.06 588,-1868.31 588,-1868.31"/>
<polygon fill="#4d4d4d" stroke="#4d4d4d" points="590.45,-1868.31 588,-1861.31 585.55,-1868.31 590.45,-1868.31"/>
</g>
<!-- R&#45;199 -->
<g id="node43" class="node">
<title>R&#45;199</title>
<polygon fill="mediumseagreen" stroke="black" points="864,-1830.59 864,-1848.41 821.82,-1861 762.18,-1861 720,-1848.41 720,-1830.59 762.18,-1818 821.82,-1818 864,-1830.59"/>
<text text-anchor="middle" x="792" y="-1837" font-family="Arial" font-size="10.00">R&#45;199</text>
</g>
<!-- R&#45;199&#45;&gt;C&#45;0868 -->
<g id="edge8" class="edge">
<title>R&#45;199&#45;&gt;C&#45;0868</title>
<path fill="none" stroke="#4d4d4d" d="M792,-1817.58C792,-1817.58 792,-1767.03 792,-1767.03"/>
<polygon fill="#4d4d4d" stroke="#4d4d4d" points="794.45,-1767.03 792,-1760.03 789.55,-1767.03 794.45,-1767.03"/>
</g>
<!-- S&#45;1913&#45;&gt;S&#45;181 -->
<g id="edge53" class="edge">
<title>S&#45;1913&#45;&gt;S&#45;181</title>
<path fill="none" stroke="#4d4d4d" d="M851.52,-1549C714.48,-1549 162,-1549 162,-1549 162,-1549 162,-1464.12 162,-1464.12"/>
<polygon fill="#4d4d4d" stroke="#4d4d4d" points="164.45,-1464.12 162,-1457.12 159.55,-1464.12 164.45,-1464.12"/>
</g>
<!-- S&#45;1913&#45;&gt;S&#45;184 -->
<g id="edge13" class="edge">
<title>S&#45;1913&#45;&gt;S&#45;184</title>
<path fill="none" stroke="#4d4d4d" d="M821.3,-1540C689.12,-1540 387,-1540 387,-1540 387,-1540 387,-1450.7 387,-1450.7"/>
<polygon fill="#4d4d4d" stroke="#4d4d4d" points="389.45,-1450.7 387,-1443.7 384.55,-1450.7 389.45,-1450.7"/>
</g>
<!-- S&#45;1913&#45;&gt;S&#45;1563 -->
<g id="edge52" class="edge">
<title>S&#45;1913&#45;&gt;S&#45;1563</title>
<path fill="none" stroke="#4d4d4d" d="M824.96,-1532C734.18,-1532 567,-1532 567,-1532 567,-1532 567,-1450.73 567,-1450.73"/>
<polygon fill="#4d4d4d" stroke="#4d4d4d" points="569.45,-1450.73 567,-1443.73 564.55,-1450.73 569.45,-1450.73"/>
</g>
<!-- S&#45;1913&#45;&gt;S&#45;183 -->
<g id="edge14" class="edge">
<title>S&#45;1913&#45;&gt;S&#45;183</title>
<path fill="none" stroke="#4d4d4d" d="M855.05,-1523C804.84,-1523 702,-1523 702,-1523 702,-1523 702,-1464.13 702,-1464.13"/>
<polygon fill="#4d4d4d" stroke="#4d4d4d" points="704.45,-1464.13 702,-1457.13 699.55,-1464.13 704.45,-1464.13"/>
</g>
<!-- S&#45;1913&#45;&gt;C&#45;0384 -->
<g id="edge16" class="edge">
<title>S&#45;1913&#45;&gt;C&#45;0384</title>
<path fill="none" stroke="#4d4d4d" d="M882,-1514.58C882,-1514.58 882,-1464.03 882,-1464.03"/>
<polygon fill="#4d4d4d" stroke="#4d4d4d" points="884.45,-1464.03 882,-1457.03 879.55,-1464.03 884.45,-1464.03"/>
</g>
<!-- S&#45;1913&#45;&gt;S&#45;1777 -->
<g id="edge12" class="edge">
<title>S&#45;1913&#45;&gt;S&#45;1777</title>
<path fill="none" stroke="#4d4d4d" d="M908.99,-1523C948.39,-1523 1017,-1523 1017,-1523 1017,-1523 1017,-1450.57 1017,-1450.57"/>
<polygon fill="#4d4d4d" stroke="#4d4d4d" points="1019.45,-1450.57 1017,-1443.57 1014.55,-1450.57 1019.45,-1450.57"/>
</g>
<!-- S&#45;1913&#45;&gt;S&#45;1938 -->
<g id="edge11" class="edge">
<title>S&#45;1913&#45;&gt;S&#45;1938</title>
<path fill="none" stroke="#4d4d4d" d="M939.04,-1532C1040.55,-1532 1242,-1532 1242,-1532 1242,-1532 1242,-1464.4 1242,-1464.4"/>
<polygon fill="#4d4d4d" stroke="#4d4d4d" points="1244.45,-1464.4 1242,-1457.4 1239.55,-1464.4 1244.45,-1464.4"/>
</g>
<!-- S&#45;1913&#45;&gt;S&#45;185 -->
<g id="edge58" class="edge">
<title>S&#45;1913&#45;&gt;S&#45;185</title>
<path fill="none" stroke="#4d4d4d" d="M942.37,-1540C1083.28,-1540 1422,-1540 1422,-1540 1422,-1540 1422,-1464.15 1422,-1464.15"/>
<polygon fill="#4d4d4d" stroke="#4d4d4d" points="1424.45,-1464.15 1422,-1457.15 1419.55,-1464.15 1424.45,-1464.15"/>
</g>
<!-- C&#45;0383 -->
<g id="node55" class="node">
<title>C&#45;0383</title>
<ellipse fill="tomato" stroke="black" cx="1602" cy="-1435.5" rx="72" ry="21.5"/>
<text text-anchor="middle" x="1602" y="-1433" font-family="Arial" font-size="10.00">C&#45;0383</text>
</g>
<!-- S&#45;1913&#45;&gt;C&#45;0383 -->
<g id="edge15" class="edge">
<title>S&#45;1913&#45;&gt;C&#45;0383</title>
<path fill="none" stroke="#4d4d4d" d="M912.48,-1549C1049.52,-1549 1602,-1549 1602,-1549 1602,-1549 1602,-1464.12 1602,-1464.12"/>
<polygon fill="#4d4d4d" stroke="#4d4d4d" points="1604.45,-1464.12 1602,-1457.12 1599.55,-1464.12 1604.45,-1464.12"/>
</g>
<!-- C&#45;0903&#45;&gt;S&#45;551 -->
<g id="edge67" class="edge">
<title>C&#45;0903&#45;&gt;S&#45;551</title>
<path fill="none" stroke="blue" stroke-dasharray="5,2" d="M1237,-345.04C1237,-359.02 1237,-375 1237,-375 1237,-375 1597,-375 1597,-375 1597,-375 1597,-605.83 1597,-605.83"/>
<polygon fill="blue" stroke="blue" points="1594.55,-605.83 1597,-612.83 1599.45,-605.83 1594.55,-605.83"/>
</g>
<!-- S&#45;559 -->
<g id="node47" class="node">
<title>S&#45;559</title>
<polygon fill="mediumseagreen" stroke="black" points="1081,-750 1009,-728.5 1081,-707 1153,-728.5 1081,-750"/>
<text text-anchor="middle" x="1081" y="-726" font-family="Arial" font-size="10.00">S&#45;559</text>
</g>
<!-- S&#45;259 -->
<g id="node48" class="node">
<title>S&#45;259</title>
<polygon fill="mediumseagreen" stroke="black" points="522,-2063 450,-2041.5 522,-2020 594,-2041.5 522,-2063"/>
<text text-anchor="middle" x="522" y="-2039" font-family="Arial" font-size="10.00">S&#45;259</text>
</g>
<!-- S&#45;1840&#45;&gt;C&#45;0960 -->
<g id="edge65" class="edge">
<title>S&#45;1840&#45;&gt;C&#45;0960</title>
<path fill="none" stroke="blue" stroke-dasharray="5,2" d="M666.5,-1026.27C666.5,-995.18 666.5,-836 666.5,-836 666.5,-836 825.23,-836 825.23,-836"/>
<polygon fill="blue" stroke="blue" points="825.23,-838.45 832.23,-836 825.23,-833.55 825.23,-838.45"/>
</g>
<!-- C&#45;0721 -->
<g id="node50" class="node">
<title>C&#45;0721</title>
<ellipse fill="tomato" stroke="black" cx="1332" cy="-1031.5" rx="72" ry="21.5"/>
<text text-anchor="middle" x="1332" y="-1029" font-family="Arial" font-size="10.00">C&#45;0721</text>
</g>
<!-- C&#45;0721&#45;&gt;C&#45;0720 -->
<g id="edge66" class="edge">
<title>C&#45;0721&#45;&gt;C&#45;0720</title>
<path fill="none" stroke="blue" stroke-dasharray="5,2" d="M1306.5,-1011.39C1306.5,-1011.39 1306.5,-853.35 1306.5,-853.35"/>
<polygon fill="blue" stroke="blue" points="1308.95,-853.35 1306.5,-846.35 1304.05,-853.35 1308.95,-853.35"/>
</g>
<!-- S&#45;553&#45;&gt;S&#45;556 -->
<g id="edge37" class="edge">
<title>S&#45;553&#45;&gt;S&#45;556</title>
<path fill="none" stroke="#4d4d4d" d="M1441,-302.58C1441,-302.58 1441,-252.03 1441,-252.03"/>
<polygon fill="#4d4d4d" stroke="#4d4d4d" points="1443.45,-252.03 1441,-245.03 1438.55,-252.03 1443.45,-252.03"/>
</g>
<!-- C&#45;0962 -->
<g id="node52" class="node">
<title>C&#45;0962</title>
<ellipse fill="mediumseagreen" stroke="black" cx="972" cy="-1031.5" rx="72" ry="21.5"/>
<text text-anchor="middle" x="972" y="-1029" font-family="Arial" font-size="10.00">C&#45;0962</text>
</g>
<!-- C&#45;0962&#45;&gt;R&#45;227 -->
<g id="edge44" class="edge">
<title>C&#45;0962&#45;&gt;R&#45;227</title>
<path fill="none" stroke="#4d4d4d" d="M943.5,-1011.55C943.5,-1011.55 943.5,-959.16 943.5,-959.16"/>
<polygon fill="#4d4d4d" stroke="#4d4d4d" points="945.95,-959.16 943.5,-952.16 941.05,-959.16 945.95,-959.16"/>
</g>
<!-- C&#45;0142&#45;&gt;C&#45;0719 -->
<g id="edge25" class="edge">
<title>C&#45;0142&#45;&gt;C&#45;0719</title>
<path fill="none" stroke="#4d4d4d" d="M1152,-1110.58C1152,-1110.58 1152,-1060.03 1152,-1060.03"/>
<polygon fill="#4d4d4d" stroke="#4d4d4d" points="1154.45,-1060.03 1152,-1053.03 1149.55,-1060.03 1154.45,-1060.03"/>
</g>
<!-- C&#45;0142&#45;&gt;C&#45;0721 -->
<g id="edge24" class="edge">
<title>C&#45;0142&#45;&gt;C&#45;0721</title>
<path fill="none" stroke="#4d4d4d" d="M1224.24,-1132C1256.34,-1132 1287,-1132 1287,-1132 1287,-1132 1287,-1055.55 1287,-1055.55"/>
<polygon fill="#4d4d4d" stroke="#4d4d4d" points="1289.45,-1055.55 1287,-1048.55 1284.55,-1055.55 1289.45,-1055.55"/>
</g>
<!-- C&#45;0142&#45;&gt;C&#45;0962 -->
<g id="edge43" class="edge">
<title>C&#45;0142&#45;&gt;C&#45;0962</title>
<path fill="none" stroke="#4d4d4d" d="M1079.78,-1132C1069.32,-1132 1062,-1132 1062,-1132 1062,-1132 1062,-1031 1062,-1031 1062,-1031 1051.22,-1031 1051.22,-1031"/>
<polygon fill="#4d4d4d" stroke="#4d4d4d" points="1051.22,-1028.55 1044.22,-1031 1051.22,-1033.45 1051.22,-1028.55"/>
</g>
<!-- C&#45;0866&#45;&gt;R&#45;199 -->
<g id="edge7" class="edge">
<title>C&#45;0866&#45;&gt;R&#45;199</title>
<path fill="none" stroke="#4d4d4d" d="M792,-1918.58C792,-1918.58 792,-1868.03 792,-1868.03"/>
<polygon fill="#4d4d4d" stroke="#4d4d4d" points="794.45,-1868.03 792,-1861.03 789.55,-1868.03 794.45,-1868.03"/>
</g>
<!-- C&#45;0383&#45;&gt;S&#45;1841 -->
<g id="edge64" class="edge">
<title>C&#45;0383&#45;&gt;S&#45;1841</title>
<path fill="none" stroke="blue" stroke-dasharray="5,2" d="M1539.5,-1424.65C1539.5,-1376.32 1539.5,-1183 1539.5,-1183 1539.5,-1183 846,-1183 846,-1183 846,-1183 846,-1144.9 846,-1144.9"/>
<polygon fill="blue" stroke="blue" points="848.45,-1144.9 846,-1137.9 843.55,-1144.9 848.45,-1144.9"/>
</g>
<!-- C&#45;0720&#45;&gt;S&#45;555 -->
<g id="edge29" class="edge">
<title>C&#45;0720&#45;&gt;S&#45;555</title>
<path fill="none" stroke="#4d4d4d" d="M1328.53,-822C1358.23,-822 1386.5,-822 1386.5,-822 1386.5,-822 1386.5,-740.79 1386.5,-740.79"/>
<polygon fill="#4d4d4d" stroke="#4d4d4d" points="1388.95,-740.79 1386.5,-733.79 1384.05,-740.79 1388.95,-740.79"/>
</g>
<!-- C&#45;0720&#45;&gt;S&#45;554 -->
<g id="edge40" class="edge">
<title>C&#45;0720&#45;&gt;S&#45;554</title>
<path fill="none" stroke="#4d4d4d" d="M1329.83,-836C1431.9,-836 1611.5,-836 1611.5,-836 1611.5,-836 1611.5,-754.23 1611.5,-754.23"/>
<polygon fill="#4d4d4d" stroke="#4d4d4d" points="1613.95,-754.23 1611.5,-747.23 1609.05,-754.23 1613.95,-754.23"/>
</g>
<!-- C&#45;0720&#45;&gt;S&#45;559 -->
<g id="edge28" class="edge">
<title>C&#45;0720&#45;&gt;S&#45;559</title>
<path fill="none" stroke="#4d4d4d" d="M1188.88,-829C1165.04,-829 1144.5,-829 1144.5,-829 1144.5,-829 1144.5,-738.4 1144.5,-738.4"/>
<polygon fill="#4d4d4d" stroke="#4d4d4d" points="1146.95,-738.4 1144.5,-731.4 1142.05,-738.4 1146.95,-738.4"/>
</g>
<!-- S&#45;2027 -->
<g id="node60" class="node">
<title>S&#45;2027</title>
<polygon fill="mediumseagreen" stroke="black" points="1261,-750 1189,-728.5 1261,-707 1333,-728.5 1261,-750"/>
<text text-anchor="middle" x="1261" y="-726" font-family="Arial" font-size="10.00">S&#45;2027</text>
</g>
<!-- C&#45;0720&#45;&gt;S&#45;2027 -->
<g id="edge41" class="edge">
<title>C&#45;0720&#45;&gt;S&#45;2027</title>
<path fill="none" stroke="#4d4d4d" d="M1261,-807.58C1261,-807.58 1261,-757.03 1261,-757.03"/>
<polygon fill="#4d4d4d" stroke="#4d4d4d" points="1263.45,-757.03 1261,-750.03 1258.55,-757.03 1263.45,-757.03"/>
</g>
<!-- S&#45;548&#45;&gt;S&#45;1531 -->
<g id="edge39" class="edge">
<title>S&#45;548&#45;&gt;S&#45;1531</title>
<path fill="none" stroke="#4d4d4d" d="M1441,-100.58C1441,-100.58 1441,-50.03 1441,-50.03"/>
<polygon fill="#4d4d4d" stroke="#4d4d4d" points="1443.45,-50.03 1441,-43.03 1438.55,-50.03 1443.45,-50.03"/>
</g>
<!-- S&#45;2027&#45;&gt;S&#45;2128 -->
<g id="edge42" class="edge">
<title>S&#45;2027&#45;&gt;S&#45;2128</title>
<path fill="none" stroke="#4d4d4d" d="M1261,-706.58C1261,-706.58 1261,-656.03 1261,-656.03"/>
<polygon fill="#4d4d4d" stroke="#4d4d4d" points="1263.45,-656.03 1261,-649.03 1258.55,-656.03 1263.45,-656.03"/>
</g>
<!-- C&#45;0082&#45;&gt;C&#45;0192 -->
<g id="edge3" class="edge">
<title>C&#45;0082&#45;&gt;C&#45;0192</title>
<path fill="none" stroke="#4d4d4d" d="M594.19,-2142C645.01,-2142 704,-2142 704,-2142 704,-2142 704,-2070.31 704,-2070.31"/>
<polygon fill="#4d4d4d" stroke="#4d4d4d" points="706.45,-2070.31 704,-2063.31 701.55,-2070.31 706.45,-2070.31"/>
</g>
<!-- C&#45;0082&#45;&gt;S&#45;1229 -->
<g id="edge2" class="edge">
<title>C&#45;0082&#45;&gt;S&#45;1229</title>
<path fill="none" stroke="#4d4d4d" d="M449.82,-2142C399.75,-2142 342,-2142 342,-2142 342,-2142 342,-2070.31 342,-2070.31"/>
<polygon fill="#4d4d4d" stroke="#4d4d4d" points="344.45,-2070.31 342,-2063.31 339.55,-2070.31 344.45,-2070.31"/>
</g>
<!-- C&#45;0082&#45;&gt;S&#45;259 -->
<g id="edge62" class="edge">
<title>C&#45;0082&#45;&gt;S&#45;259</title>
<path fill="none" stroke="#4d4d4d" d="M522,-2120.58C522,-2120.58 522,-2070.03 522,-2070.03"/>
<polygon fill="#4d4d4d" stroke="#4d4d4d" points="524.45,-2070.03 522,-2063.03 519.55,-2070.03 524.45,-2070.03"/>
</g>
<!-- C&#45;0961&#45;&gt;C&#45;0962 -->
<g id="edge68" class="edge">
<title>C&#45;0961&#45;&gt;C&#45;0962</title>
<path fill="none" stroke="blue" stroke-dasharray="5,2" d="M973.02,-728C987.31,-728 998,-728 998,-728 998,-728 998,-1004.12 998,-1004.12"/>
<polygon fill="blue" stroke="blue" points="995.55,-1004.12 998,-1011.12 1000.45,-1004.12 995.55,-1004.12"/>
</g>
</g>
</svg>
