<?xml version="1.0" encoding="UTF-8" standalone="no"?>
<!DOCTYPE svg PUBLIC "-//W3C//DTD SVG 1.1//EN"
 "http://www.w3.org/Graphics/SVG/1.1/DTD/svg11.dtd">
<!-- Generated by graphviz version 2.50.0 (0)
 -->
<!-- Title: Grafo_Circuito_303_27_ Pages: 1 -->
<svg width="1768pt" height="1877pt"
 viewBox="0.00 0.00 1768.00 1877.00" xmlns="http://www.w3.org/2000/svg" xmlns:xlink="http://www.w3.org/1999/xlink">
<g id="graph0" class="graph" transform="scale(1 1) rotate(0) translate(4 1873)">
<title>Grafo_Circuito_303_27_</title>
<polygon fill="white" stroke="transparent" points="-4,4 -4,-1873 1764,-1873 1764,4 -4,4"/>
<!-- S&#45;2302 -->
<g id="node1" class="node">
<title>S&#45;2302</title>
<polygon fill="mediumseagreen" stroke="black" points="1252,-952 1180,-930.5 1252,-909 1324,-930.5 1252,-952"/>
<text text-anchor="middle" x="1252" y="-928" font-family="Arial" font-size="10.00">S&#45;2302</text>
</g>
<!-- S&#45;1327 -->
<g id="node2" class="node">
<title>S&#45;1327</title>
<polygon fill="mediumseagreen" stroke="black" points="968,-1558 896,-1536.5 968,-1515 1040,-1536.5 968,-1558"/>
<text text-anchor="middle" x="968" y="-1534" font-family="Arial" font-size="10.00">S&#45;1327</text>
</g>
<!-- C&#45;0910 -->
<g id="node14" class="node">
<title>C&#45;0910</title>
<ellipse fill="mediumseagreen" stroke="black" cx="982" cy="-1435.5" rx="72" ry="21.5"/>
<text text-anchor="middle" x="982" y="-1433" font-family="Arial" font-size="10.00">C&#45;0910</text>
</g>
<!-- S&#45;1327&#45;&gt;C&#45;0910 -->
<g id="edge11" class="edge">
<title>S&#45;1327&#45;&gt;C&#45;0910</title>
<path fill="none" stroke="#4d4d4d" d="M975,-1517.03C975,-1517.03 975,-1464.01 975,-1464.01"/>
<polygon fill="#4d4d4d" stroke="#4d4d4d" points="977.45,-1464.01 975,-1457.01 972.55,-1464.01 977.45,-1464.01"/>
</g>
<!-- C&#45;0909 -->
<g id="node22" class="node">
<title>C&#45;0909</title>
<ellipse fill="tomato" stroke="black" cx="1162" cy="-1435.5" rx="72" ry="21.5"/>
<text text-anchor="middle" x="1162" y="-1433" font-family="Arial" font-size="10.00">C&#45;0909</text>
</g>
<!-- S&#45;1327&#45;&gt;C&#45;0909 -->
<g id="edge10" class="edge">
<title>S&#45;1327&#45;&gt;C&#45;0909</title>
<path fill="none" stroke="#4d4d4d" d="M1038.49,-1536C1053.54,-1536 1065,-1536 1065,-1536 1065,-1536 1065,-1435 1065,-1435 1065,-1435 1082.98,-1435 1082.98,-1435"/>
<polygon fill="#4d4d4d" stroke="#4d4d4d" points="1082.98,-1437.45 1089.98,-1435 1082.98,-1432.55 1082.98,-1437.45"/>
</g>
<!-- S&#45;2024 -->
<g id="node42" class="node">
<title>S&#45;2024</title>
<polygon fill="mediumseagreen" stroke="black" points="622,-1457 550,-1435.5 622,-1414 694,-1435.5 622,-1457"/>
<text text-anchor="middle" x="622" y="-1433" font-family="Arial" font-size="10.00">S&#45;2024</text>
</g>
<!-- S&#45;1327&#45;&gt;S&#45;2024 -->
<g id="edge47" class="edge">
<title>S&#45;1327&#45;&gt;S&#45;2024</title>
<path fill="none" stroke="#4d4d4d" d="M897.56,-1536C796.4,-1536 622,-1536 622,-1536 622,-1536 622,-1464.31 622,-1464.31"/>
<polygon fill="#4d4d4d" stroke="#4d4d4d" points="624.45,-1464.31 622,-1457.31 619.55,-1464.31 624.45,-1464.31"/>
</g>
<!-- S&#45;2424 -->
<g id="node47" class="node">
<title>S&#45;2424</title>
<polygon fill="mediumseagreen" stroke="black" points="802,-1457 730,-1435.5 802,-1414 874,-1435.5 802,-1457"/>
<text text-anchor="middle" x="802" y="-1433" font-family="Arial" font-size="10.00">S&#45;2424</text>
</g>
<!-- S&#45;1327&#45;&gt;S&#45;2424 -->
<g id="edge9" class="edge">
<title>S&#45;1327&#45;&gt;S&#45;2424</title>
<path fill="none" stroke="#4d4d4d" d="M903,-1534.38C903,-1519.8 903,-1435 903,-1435 903,-1435 879.42,-1435 879.42,-1435"/>
<polygon fill="#4d4d4d" stroke="#4d4d4d" points="879.42,-1432.55 872.42,-1435 879.42,-1437.45 879.42,-1432.55"/>
</g>
<!-- SR&#45;0014 -->
<g id="node3" class="node">
<title>SR&#45;0014</title>
<polygon fill="mediumseagreen" stroke="black" points="347,-548 275,-526.5 347,-505 419,-526.5 347,-548"/>
<text text-anchor="middle" x="347" y="-524" font-family="Arial" font-size="10.00">SR&#45;0014</text>
</g>
<!-- S&#45;2412 -->
<g id="node35" class="node">
<title>S&#45;2412</title>
<polygon fill="mediumseagreen" stroke="black" points="315,-447 243,-425.5 315,-404 387,-425.5 315,-447"/>
<text text-anchor="middle" x="315" y="-423" font-family="Arial" font-size="10.00">S&#45;2412</text>
</g>
<!-- SR&#45;0014&#45;&gt;S&#45;2412 -->
<g id="edge25" class="edge">
<title>SR&#45;0014&#45;&gt;S&#45;2412</title>
<path fill="none" stroke="#4d4d4d" d="M331,-509.37C331,-509.37 331,-449.38 331,-449.38"/>
<polygon fill="#4d4d4d" stroke="#4d4d4d" points="333.45,-449.38 331,-442.38 328.55,-449.38 333.45,-449.38"/>
</g>
<!-- R&#45;127 -->
<g id="node4" class="node">
<title>R&#45;127</title>
<polygon fill="mediumseagreen" stroke="black" points="1020,-416.59 1020,-434.41 977.82,-447 918.18,-447 876,-434.41 876,-416.59 918.18,-404 977.82,-404 1020,-416.59"/>
<text text-anchor="middle" x="948" y="-423" font-family="Arial" font-size="10.00">R&#45;127</text>
</g>
<!-- C&#45;0379 -->
<g id="node6" class="node">
<title>C&#45;0379</title>
<ellipse fill="mediumseagreen" stroke="black" cx="1083" cy="-324.5" rx="72" ry="21.5"/>
<text text-anchor="middle" x="1083" y="-322" font-family="Arial" font-size="10.00">C&#45;0379</text>
</g>
<!-- R&#45;127&#45;&gt;C&#45;0379 -->
<g id="edge38" class="edge">
<title>R&#45;127&#45;&gt;C&#45;0379</title>
<path fill="none" stroke="#4d4d4d" d="M1015.5,-415.07C1015.5,-415.07 1015.5,-339.17 1015.5,-339.17"/>
<polygon fill="#4d4d4d" stroke="#4d4d4d" points="1017.95,-339.17 1015.5,-332.17 1013.05,-339.17 1017.95,-339.17"/>
</g>
<!-- R&#45;236 -->
<g id="node5" class="node">
<title>R&#45;236</title>
<polygon fill="tomato" stroke="black" points="631,-113.59 631,-131.41 588.82,-144 529.18,-144 487,-131.41 487,-113.59 529.18,-101 588.82,-101 631,-113.59"/>
<text text-anchor="middle" x="559" y="-120" font-family="Arial" font-size="10.00">R&#45;236</text>
</g>
<!-- ext_circ_303_25_ -->
<g id="node50" class="node">
<title>ext_circ_303_25_</title>
<polygon fill="lightpink" stroke="darkorange" stroke-dasharray="5,2" points="811,-43 667,-43 667,0 811,0 811,-43"/>
<text text-anchor="middle" x="739" y="-24.5" font-family="Arial" font-size="10.00">Circuito:</text>
<text text-anchor="middle" x="739" y="-13.5" font-family="Arial" font-size="10.00">303&#45;25&#45;</text>
</g>
<!-- R&#45;236&#45;&gt;ext_circ_303_25_ -->
<g id="edge53" class="edge">
<title>R&#45;236&#45;&gt;ext_circ_303_25_</title>
<path fill="none" stroke="darkorange" stroke-dasharray="5,2" d="M559,-100.97C559,-71.18 559,-21 559,-21 559,-21 659.82,-21 659.82,-21"/>
<polygon fill="darkorange" stroke="darkorange" points="659.82,-23.45 666.82,-21 659.82,-18.55 659.82,-23.45"/>
</g>
<!-- S&#45;2346 -->
<g id="node7" class="node">
<title>S&#45;2346</title>
<polygon fill="mediumseagreen" stroke="black" points="1353,-245 1281,-223.5 1353,-202 1425,-223.5 1353,-245"/>
<text text-anchor="middle" x="1353" y="-221" font-family="Arial" font-size="10.00">S&#45;2346</text>
</g>
<!-- C&#45;0379&#45;&gt;S&#45;2346 -->
<g id="edge39" class="edge">
<title>C&#45;0379&#45;&gt;S&#45;2346</title>
<path fill="none" stroke="#4d4d4d" d="M1155.18,-324C1216.74,-324 1295.33,-324 1295.33,-324 1295.33,-324 1295.33,-234.82 1295.33,-234.82"/>
<polygon fill="#4d4d4d" stroke="#4d4d4d" points="1297.78,-234.82 1295.33,-227.82 1292.88,-234.82 1297.78,-234.82"/>
</g>
<!-- S&#45;1851 -->
<g id="node20" class="node">
<title>S&#45;1851</title>
<polygon fill="mediumseagreen" stroke="black" points="993,-245 921,-223.5 993,-202 1065,-223.5 993,-245"/>
<text text-anchor="middle" x="993" y="-221" font-family="Arial" font-size="10.00">S&#45;1851</text>
</g>
<!-- C&#45;0379&#45;&gt;S&#45;1851 -->
<g id="edge41" class="edge">
<title>C&#45;0379&#45;&gt;S&#45;1851</title>
<path fill="none" stroke="#4d4d4d" d="M1038,-307.37C1038,-307.37 1038,-238.78 1038,-238.78"/>
<polygon fill="#4d4d4d" stroke="#4d4d4d" points="1040.45,-238.78 1038,-231.78 1035.55,-238.78 1040.45,-238.78"/>
</g>
<!-- S&#45;771 -->
<g id="node33" class="node">
<title>S&#45;771</title>
<polygon fill="mediumseagreen" stroke="black" points="1173,-245 1101,-223.5 1173,-202 1245,-223.5 1173,-245"/>
<text text-anchor="middle" x="1173" y="-221" font-family="Arial" font-size="10.00">S&#45;771</text>
</g>
<!-- C&#45;0379&#45;&gt;S&#45;771 -->
<g id="edge43" class="edge">
<title>C&#45;0379&#45;&gt;S&#45;771</title>
<path fill="none" stroke="#4d4d4d" d="M1128,-307.37C1128,-307.37 1128,-238.78 1128,-238.78"/>
<polygon fill="#4d4d4d" stroke="#4d4d4d" points="1130.45,-238.78 1128,-231.78 1125.55,-238.78 1130.45,-238.78"/>
</g>
<!-- S&#45;2493 -->
<g id="node13" class="node">
<title>S&#45;2493</title>
<polygon fill="mediumseagreen" stroke="black" points="1353,-144 1281,-122.5 1353,-101 1425,-122.5 1353,-144"/>
<text text-anchor="middle" x="1353" y="-120" font-family="Arial" font-size="10.00">S&#45;2493</text>
</g>
<!-- S&#45;2346&#45;&gt;S&#45;2493 -->
<g id="edge40" class="edge">
<title>S&#45;2346&#45;&gt;S&#45;2493</title>
<path fill="none" stroke="#4d4d4d" d="M1353,-201.58C1353,-201.58 1353,-151.03 1353,-151.03"/>
<polygon fill="#4d4d4d" stroke="#4d4d4d" points="1355.45,-151.03 1353,-144.03 1350.55,-151.03 1355.45,-151.03"/>
</g>
<!-- S&#45;1717 -->
<g id="node8" class="node">
<title>S&#45;1717</title>
<polygon fill="mediumseagreen" stroke="black" points="1173,-144 1101,-122.5 1173,-101 1245,-122.5 1173,-144"/>
<text text-anchor="middle" x="1173" y="-120" font-family="Arial" font-size="10.00">S&#45;1717</text>
</g>
<!-- C&#45;0252 -->
<g id="node9" class="node">
<title>C&#45;0252</title>
<ellipse fill="mediumseagreen" stroke="black" cx="712" cy="-1031.5" rx="72" ry="21.5"/>
<text text-anchor="middle" x="712" y="-1029" font-family="Arial" font-size="10.00">C&#45;0252</text>
</g>
<!-- C&#45;1202 -->
<g id="node32" class="node">
<title>C&#45;1202</title>
<ellipse fill="mediumseagreen" stroke="black" cx="622" cy="-930.5" rx="72" ry="21.5"/>
<text text-anchor="middle" x="622" y="-928" font-family="Arial" font-size="10.00">C&#45;1202</text>
</g>
<!-- C&#45;0252&#45;&gt;C&#45;1202 -->
<g id="edge20" class="edge">
<title>C&#45;0252&#45;&gt;C&#45;1202</title>
<path fill="none" stroke="#4d4d4d" d="M667,-1014.37C667,-1014.37 667,-954.38 667,-954.38"/>
<polygon fill="#4d4d4d" stroke="#4d4d4d" points="669.45,-954.38 667,-947.38 664.55,-954.38 669.45,-954.38"/>
</g>
<!-- C&#45;1203 -->
<g id="node43" class="node">
<title>C&#45;1203</title>
<ellipse fill="tomato" stroke="black" cx="802" cy="-930.5" rx="72" ry="21.5"/>
<text text-anchor="middle" x="802" y="-928" font-family="Arial" font-size="10.00">C&#45;1203</text>
</g>
<!-- C&#45;0252&#45;&gt;C&#45;1203 -->
<g id="edge19" class="edge">
<title>C&#45;0252&#45;&gt;C&#45;1203</title>
<path fill="none" stroke="#4d4d4d" d="M757,-1014.37C757,-1014.37 757,-954.38 757,-954.38"/>
<polygon fill="#4d4d4d" stroke="#4d4d4d" points="759.45,-954.38 757,-947.38 754.55,-954.38 759.45,-954.38"/>
</g>
<!-- C&#45;0377 -->
<g id="node10" class="node">
<title>C&#45;0377</title>
<ellipse fill="tomato" stroke="black" cx="559" cy="-526.5" rx="72" ry="21.5"/>
<text text-anchor="middle" x="559" y="-524" font-family="Arial" font-size="10.00">C&#45;0377</text>
</g>
<!-- C&#45;0377&#45;&gt;S&#45;2346 -->
<g id="edge55" class="edge">
<title>C&#45;0377&#45;&gt;S&#45;2346</title>
<path fill="none" stroke="blue" stroke-dasharray="5,2" d="M622.5,-516.28C622.5,-501.52 622.5,-476 622.5,-476 622.5,-476 1309.67,-476 1309.67,-476 1309.67,-476 1309.67,-239.19 1309.67,-239.19"/>
<polygon fill="blue" stroke="blue" points="1312.12,-239.19 1309.67,-232.19 1307.22,-239.19 1312.12,-239.19"/>
</g>
<!-- S&#45;900 -->
<g id="node11" class="node">
<title>S&#45;900</title>
<polygon fill="mediumseagreen" stroke="black" points="892,-1053 820,-1031.5 892,-1010 964,-1031.5 892,-1053"/>
<text text-anchor="middle" x="892" y="-1029" font-family="Arial" font-size="10.00">S&#45;900</text>
</g>
<!-- R&#45;212 -->
<g id="node12" class="node">
<title>R&#45;212</title>
<polygon fill="mediumseagreen" stroke="black" points="1054,-1325.59 1054,-1343.41 1011.82,-1356 952.18,-1356 910,-1343.41 910,-1325.59 952.18,-1313 1011.82,-1313 1054,-1325.59"/>
<text text-anchor="middle" x="982" y="-1332" font-family="Arial" font-size="10.00">R&#45;212</text>
</g>
<!-- C&#45;0908 -->
<g id="node44" class="node">
<title>C&#45;0908</title>
<ellipse fill="mediumseagreen" stroke="black" cx="982" cy="-1233.5" rx="72" ry="21.5"/>
<text text-anchor="middle" x="982" y="-1231" font-family="Arial" font-size="10.00">C&#45;0908</text>
</g>
<!-- R&#45;212&#45;&gt;C&#45;0908 -->
<g id="edge13" class="edge">
<title>R&#45;212&#45;&gt;C&#45;0908</title>
<path fill="none" stroke="#4d4d4d" d="M982,-1312.58C982,-1312.58 982,-1262.03 982,-1262.03"/>
<polygon fill="#4d4d4d" stroke="#4d4d4d" points="984.45,-1262.03 982,-1255.03 979.55,-1262.03 984.45,-1262.03"/>
</g>
<!-- C&#45;0910&#45;&gt;R&#45;212 -->
<g id="edge12" class="edge">
<title>C&#45;0910&#45;&gt;R&#45;212</title>
<path fill="none" stroke="#4d4d4d" d="M982,-1413.58C982,-1413.58 982,-1363.03 982,-1363.03"/>
<polygon fill="#4d4d4d" stroke="#4d4d4d" points="984.45,-1363.03 982,-1356.03 979.55,-1363.03 984.45,-1363.03"/>
</g>
<!-- S&#45;2561 -->
<g id="node15" class="node">
<title>S&#45;2561</title>
<polygon fill="mediumseagreen" stroke="black" points="72,-346 0,-324.5 72,-303 144,-324.5 72,-346"/>
<text text-anchor="middle" x="72" y="-322" font-family="Arial" font-size="10.00">S&#45;2561</text>
</g>
<!-- S&#45;2559 -->
<g id="node16" class="node">
<title>S&#45;2559</title>
<polygon fill="mediumseagreen" stroke="black" points="252,-346 180,-324.5 252,-303 324,-324.5 252,-346"/>
<text text-anchor="middle" x="252" y="-322" font-family="Arial" font-size="10.00">S&#45;2559</text>
</g>
<!-- C&#45;0040 -->
<g id="node17" class="node">
<title>C&#45;0040</title>
<ellipse fill="tomato" stroke="black" cx="1148" cy="-1536.5" rx="72" ry="21.5"/>
<text text-anchor="middle" x="1148" y="-1534" font-family="Arial" font-size="10.00">C&#45;0040</text>
</g>
<!-- ext_circ_303_24_ -->
<g id="node49" class="node">
<title>ext_circ_303_24_</title>
<polygon fill="lightpink" stroke="darkorange" stroke-dasharray="5,2" points="1490,-1356 1346,-1356 1346,-1313 1490,-1313 1490,-1356"/>
<text text-anchor="middle" x="1418" y="-1337.5" font-family="Arial" font-size="10.00">Circuito:</text>
<text text-anchor="middle" x="1418" y="-1326.5" font-family="Arial" font-size="10.00">303&#45;24&#45;</text>
</g>
<!-- C&#45;0040&#45;&gt;ext_circ_303_24_ -->
<g id="edge49" class="edge">
<title>C&#45;0040&#45;&gt;ext_circ_303_24_</title>
<path fill="none" stroke="darkorange" stroke-dasharray="5,2" d="M1083,-1527C1083,-1486.97 1083,-1334 1083,-1334 1083,-1334 1338.72,-1334 1338.72,-1334"/>
<polygon fill="darkorange" stroke="darkorange" points="1338.72,-1336.45 1345.72,-1334 1338.72,-1331.55 1338.72,-1336.45"/>
</g>
<!-- S&#45;478 -->
<g id="node18" class="node">
<title>S&#45;478</title>
<polygon fill="mediumseagreen" stroke="black" points="1072,-1053 1000,-1031.5 1072,-1010 1144,-1031.5 1072,-1053"/>
<text text-anchor="middle" x="1072" y="-1029" font-family="Arial" font-size="10.00">S&#45;478</text>
</g>
<!-- S&#45;2446 -->
<g id="node45" class="node">
<title>S&#45;2446</title>
<polygon fill="mediumseagreen" stroke="black" points="1072,-952 1000,-930.5 1072,-909 1144,-930.5 1072,-952"/>
<text text-anchor="middle" x="1072" y="-928" font-family="Arial" font-size="10.00">S&#45;2446</text>
</g>
<!-- S&#45;478&#45;&gt;S&#45;2446 -->
<g id="edge16" class="edge">
<title>S&#45;478&#45;&gt;S&#45;2446</title>
<path fill="none" stroke="#4d4d4d" d="M1072,-1009.58C1072,-1009.58 1072,-959.03 1072,-959.03"/>
<polygon fill="#4d4d4d" stroke="#4d4d4d" points="1074.45,-959.03 1072,-952.03 1069.55,-959.03 1074.45,-959.03"/>
</g>
<!-- C&#45;0361 -->
<g id="node19" class="node">
<title>C&#45;0361</title>
<ellipse fill="mediumseagreen" stroke="black" cx="982" cy="-1132.5" rx="72" ry="21.5"/>
<text text-anchor="middle" x="982" y="-1130" font-family="Arial" font-size="10.00">C&#45;0361</text>
</g>
<!-- C&#45;0361&#45;&gt;C&#45;0252 -->
<g id="edge18" class="edge">
<title>C&#45;0361&#45;&gt;C&#45;0252</title>
<path fill="none" stroke="#4d4d4d" d="M909.88,-1132C844.07,-1132 757,-1132 757,-1132 757,-1132 757,-1055.55 757,-1055.55"/>
<polygon fill="#4d4d4d" stroke="#4d4d4d" points="759.45,-1055.55 757,-1048.55 754.55,-1055.55 759.45,-1055.55"/>
</g>
<!-- C&#45;0361&#45;&gt;S&#45;900 -->
<g id="edge46" class="edge">
<title>C&#45;0361&#45;&gt;S&#45;900</title>
<path fill="none" stroke="#4d4d4d" d="M937,-1115.37C937,-1115.37 937,-1046.78 937,-1046.78"/>
<polygon fill="#4d4d4d" stroke="#4d4d4d" points="939.45,-1046.78 937,-1039.78 934.55,-1046.78 939.45,-1046.78"/>
</g>
<!-- C&#45;0361&#45;&gt;S&#45;478 -->
<g id="edge15" class="edge">
<title>C&#45;0361&#45;&gt;S&#45;478</title>
<path fill="none" stroke="#4d4d4d" d="M1027,-1115.37C1027,-1115.37 1027,-1046.78 1027,-1046.78"/>
<polygon fill="#4d4d4d" stroke="#4d4d4d" points="1029.45,-1046.78 1027,-1039.78 1024.55,-1046.78 1029.45,-1046.78"/>
</g>
<!-- S&#45;736 -->
<g id="node31" class="node">
<title>S&#45;736</title>
<polygon fill="mediumseagreen" stroke="black" points="1252,-1053 1180,-1031.5 1252,-1010 1324,-1031.5 1252,-1053"/>
<text text-anchor="middle" x="1252" y="-1029" font-family="Arial" font-size="10.00">S&#45;736</text>
</g>
<!-- C&#45;0361&#45;&gt;S&#45;736 -->
<g id="edge17" class="edge">
<title>C&#45;0361&#45;&gt;S&#45;736</title>
<path fill="none" stroke="#4d4d4d" d="M1054.12,-1132C1119.93,-1132 1207,-1132 1207,-1132 1207,-1132 1207,-1046.72 1207,-1046.72"/>
<polygon fill="#4d4d4d" stroke="#4d4d4d" points="1209.45,-1046.72 1207,-1039.72 1204.55,-1046.72 1209.45,-1046.72"/>
</g>
<!-- C&#45;0193 -->
<g id="node38" class="node">
<title>C&#45;0193</title>
<ellipse fill="tomato" stroke="black" cx="956" cy="-122.5" rx="72" ry="21.5"/>
<text text-anchor="middle" x="956" y="-120" font-family="Arial" font-size="10.00">C&#45;0193</text>
</g>
<!-- S&#45;1851&#45;&gt;C&#45;0193 -->
<g id="edge42" class="edge">
<title>S&#45;1851&#45;&gt;C&#45;0193</title>
<path fill="none" stroke="#4d4d4d" d="M974.5,-207.27C974.5,-207.27 974.5,-150.6 974.5,-150.6"/>
<polygon fill="#4d4d4d" stroke="#4d4d4d" points="976.95,-150.6 974.5,-143.6 972.05,-150.6 976.95,-150.6"/>
</g>
<!-- S&#45;986 -->
<g id="node21" class="node">
<title>S&#45;986</title>
<polygon fill="mediumseagreen" stroke="black" points="1328,-1558 1256,-1536.5 1328,-1515 1400,-1536.5 1328,-1558"/>
<text text-anchor="middle" x="1328" y="-1534" font-family="Arial" font-size="10.00">S&#45;986</text>
</g>
<!-- C&#45;0909&#45;&gt;C&#45;0908 -->
<g id="edge50" class="edge">
<title>C&#45;0909&#45;&gt;C&#45;0908</title>
<path fill="none" stroke="blue" stroke-dasharray="5,2" d="M1117,-1418.58C1117,-1369.91 1117,-1233 1117,-1233 1117,-1233 1061.24,-1233 1061.24,-1233"/>
<polygon fill="blue" stroke="blue" points="1061.24,-1230.55 1054.24,-1233 1061.24,-1235.45 1061.24,-1230.55"/>
</g>
<!-- S&#45;735 -->
<g id="node23" class="node">
<title>S&#45;735</title>
<polygon fill="mediumseagreen" stroke="black" points="622,-649 550,-627.5 622,-606 694,-627.5 622,-649"/>
<text text-anchor="middle" x="622" y="-625" font-family="Arial" font-size="10.00">S&#45;735</text>
</g>
<!-- S&#45;735&#45;&gt;SR&#45;0014 -->
<g id="edge24" class="edge">
<title>S&#45;735&#45;&gt;SR&#45;0014</title>
<path fill="none" stroke="#4d4d4d" d="M551.54,-627C470.06,-627 347,-627 347,-627 347,-627 347,-555.31 347,-555.31"/>
<polygon fill="#4d4d4d" stroke="#4d4d4d" points="349.45,-555.31 347,-548.31 344.55,-555.31 349.45,-555.31"/>
</g>
<!-- S&#45;735&#45;&gt;C&#45;0377 -->
<g id="edge35" class="edge">
<title>S&#45;735&#45;&gt;C&#45;0377</title>
<path fill="none" stroke="#4d4d4d" d="M590.5,-615.12C590.5,-615.12 590.5,-552.91 590.5,-552.91"/>
<polygon fill="#4d4d4d" stroke="#4d4d4d" points="592.95,-552.91 590.5,-545.91 588.05,-552.91 592.95,-552.91"/>
</g>
<!-- C&#45;0541 -->
<g id="node39" class="node">
<title>C&#45;0541</title>
<ellipse fill="mediumseagreen" stroke="black" cx="686" cy="-324.5" rx="72" ry="21.5"/>
<text text-anchor="middle" x="686" y="-322" font-family="Arial" font-size="10.00">C&#45;0541</text>
</g>
<!-- S&#45;735&#45;&gt;C&#45;0541 -->
<g id="edge29" class="edge">
<title>S&#45;735&#45;&gt;C&#45;0541</title>
<path fill="none" stroke="#4d4d4d" d="M652,-614.87C652,-614.87 652,-350.48 652,-350.48"/>
<polygon fill="#4d4d4d" stroke="#4d4d4d" points="654.45,-350.48 652,-343.48 649.55,-350.48 654.45,-350.48"/>
</g>
<!-- C&#45;0378 -->
<g id="node46" class="node">
<title>C&#45;0378</title>
<ellipse fill="mediumseagreen" stroke="black" cx="880" cy="-526.5" rx="72" ry="21.5"/>
<text text-anchor="middle" x="880" y="-524" font-family="Arial" font-size="10.00">C&#45;0378</text>
</g>
<!-- S&#45;735&#45;&gt;C&#45;0378 -->
<g id="edge36" class="edge">
<title>S&#45;735&#45;&gt;C&#45;0378</title>
<path fill="none" stroke="#4d4d4d" d="M673,-621.15C673,-598.93 673,-526 673,-526 673,-526 800.89,-526 800.89,-526"/>
<polygon fill="#4d4d4d" stroke="#4d4d4d" points="800.89,-528.45 807.89,-526 800.89,-523.55 800.89,-528.45"/>
</g>
<!-- R&#45;286 -->
<g id="node24" class="node">
<title>R&#45;286</title>
<polygon fill="tomato" stroke="black" points="1567,-1426.59 1567,-1444.41 1524.82,-1457 1465.18,-1457 1423,-1444.41 1423,-1426.59 1465.18,-1414 1524.82,-1414 1567,-1426.59"/>
<text text-anchor="middle" x="1495" y="-1433" font-family="Arial" font-size="10.00">R&#45;286</text>
</g>
<!-- R&#45;286&#45;&gt;ext_circ_303_24_ -->
<g id="edge48" class="edge">
<title>R&#45;286&#45;&gt;ext_circ_303_24_</title>
<path fill="none" stroke="darkorange" stroke-dasharray="5,2" d="M1456.5,-1416.5C1456.5,-1416.5 1456.5,-1363.22 1456.5,-1363.22"/>
<polygon fill="darkorange" stroke="darkorange" points="1458.95,-1363.22 1456.5,-1356.22 1454.05,-1363.22 1458.95,-1363.22"/>
</g>
<!-- C&#45;0242 -->
<g id="node25" class="node">
<title>C&#45;0242</title>
<ellipse fill="tomato" stroke="black" cx="739" cy="-122.5" rx="72" ry="21.5"/>
<text text-anchor="middle" x="739" y="-120" font-family="Arial" font-size="10.00">C&#45;0242</text>
</g>
<!-- C&#45;0242&#45;&gt;ext_circ_303_25_ -->
<g id="edge52" class="edge">
<title>C&#45;0242&#45;&gt;ext_circ_303_25_</title>
<path fill="none" stroke="darkorange" stroke-dasharray="5,2" d="M739,-100.58C739,-100.58 739,-50.03 739,-50.03"/>
<polygon fill="darkorange" stroke="darkorange" points="741.45,-50.03 739,-43.03 736.55,-50.03 741.45,-50.03"/>
</g>
<!-- 303&#45;27&#45; -->
<g id="node26" class="node">
<title>303&#45;27&#45;</title>
<polygon fill="gold" stroke="black" points="1400,-1834.59 1400,-1852.41 1357.82,-1865 1298.18,-1865 1256,-1852.41 1256,-1834.59 1298.18,-1822 1357.82,-1822 1400,-1834.59"/>
<polygon fill="none" stroke="black" points="1404,-1831.61 1404,-1855.39 1358.41,-1869 1297.59,-1869 1252,-1855.39 1252,-1831.61 1297.59,-1818 1358.41,-1818 1404,-1831.61"/>
<text text-anchor="middle" x="1328" y="-1841" font-family="Arial" font-size="10.00">303&#45;27&#45;</text>
</g>
<!-- C&#45;0074 -->
<g id="node28" class="node">
<title>C&#45;0074</title>
<ellipse fill="mediumseagreen" stroke="black" cx="1328" cy="-1738.5" rx="72" ry="21.5"/>
<text text-anchor="middle" x="1328" y="-1736" font-family="Arial" font-size="10.00">C&#45;0074</text>
</g>
<!-- 303&#45;27&#45;&#45;&gt;C&#45;0074 -->
<g id="edge1" class="edge">
<title>303&#45;27&#45;&#45;&gt;C&#45;0074</title>
<path fill="none" stroke="#4d4d4d" d="M1328,-1817.81C1328,-1817.81 1328,-1767.03 1328,-1767.03"/>
<polygon fill="#4d4d4d" stroke="#4d4d4d" points="1330.45,-1767.03 1328,-1760.03 1325.55,-1767.03 1330.45,-1767.03"/>
</g>
<!-- S&#45;1224 -->
<g id="node27" class="node">
<title>S&#45;1224</title>
<polygon fill="mediumseagreen" stroke="black" points="813,-245 741,-223.5 813,-202 885,-223.5 813,-245"/>
<text text-anchor="middle" x="813" y="-221" font-family="Arial" font-size="10.00">S&#45;1224</text>
</g>
<!-- C&#45;1252 -->
<g id="node48" class="node">
<title>C&#45;1252</title>
<ellipse fill="mediumseagreen" stroke="black" cx="1328" cy="-1637.5" rx="72" ry="21.5"/>
<text text-anchor="middle" x="1328" y="-1635" font-family="Arial" font-size="10.00">C&#45;1252</text>
</g>
<!-- C&#45;0074&#45;&gt;C&#45;1252 -->
<g id="edge2" class="edge">
<title>C&#45;0074&#45;&gt;C&#45;1252</title>
<path fill="none" stroke="#4d4d4d" d="M1328,-1716.58C1328,-1716.58 1328,-1666.03 1328,-1666.03"/>
<polygon fill="#4d4d4d" stroke="#4d4d4d" points="1330.45,-1666.03 1328,-1659.03 1325.55,-1666.03 1330.45,-1666.03"/>
</g>
<!-- R&#45;055 -->
<g id="node29" class="node">
<title>R&#45;055</title>
<polygon fill="mediumseagreen" stroke="black" points="694,-820.59 694,-838.41 651.82,-851 592.18,-851 550,-838.41 550,-820.59 592.18,-808 651.82,-808 694,-820.59"/>
<text text-anchor="middle" x="622" y="-827" font-family="Arial" font-size="10.00">R&#45;055</text>
</g>
<!-- C&#45;1204 -->
<g id="node36" class="node">
<title>C&#45;1204</title>
<ellipse fill="mediumseagreen" stroke="black" cx="622" cy="-728.5" rx="72" ry="21.5"/>
<text text-anchor="middle" x="622" y="-726" font-family="Arial" font-size="10.00">C&#45;1204</text>
</g>
<!-- R&#45;055&#45;&gt;C&#45;1204 -->
<g id="edge22" class="edge">
<title>R&#45;055&#45;&gt;C&#45;1204</title>
<path fill="none" stroke="#4d4d4d" d="M622,-807.58C622,-807.58 622,-757.03 622,-757.03"/>
<polygon fill="#4d4d4d" stroke="#4d4d4d" points="624.45,-757.03 622,-750.03 619.55,-757.03 624.45,-757.03"/>
</g>
<!-- C&#45;1137 -->
<g id="node30" class="node">
<title>C&#45;1137</title>
<ellipse fill="mediumseagreen" stroke="black" cx="1508" cy="-1536.5" rx="72" ry="21.5"/>
<text text-anchor="middle" x="1508" y="-1534" font-family="Arial" font-size="10.00">C&#45;1137</text>
</g>
<!-- C&#45;1137&#45;&gt;R&#45;286 -->
<g id="edge4" class="edge">
<title>C&#45;1137&#45;&gt;R&#45;286</title>
<path fill="none" stroke="#4d4d4d" d="M1501.5,-1515.08C1501.5,-1515.08 1501.5,-1464.24 1501.5,-1464.24"/>
<polygon fill="#4d4d4d" stroke="#4d4d4d" points="1503.95,-1464.24 1501.5,-1457.24 1499.05,-1464.24 1503.95,-1464.24"/>
</g>
<!-- S&#45;736&#45;&gt;S&#45;2302 -->
<g id="edge45" class="edge">
<title>S&#45;736&#45;&gt;S&#45;2302</title>
<path fill="none" stroke="#4d4d4d" d="M1252,-1009.58C1252,-1009.58 1252,-959.03 1252,-959.03"/>
<polygon fill="#4d4d4d" stroke="#4d4d4d" points="1254.45,-959.03 1252,-952.03 1249.55,-959.03 1254.45,-959.03"/>
</g>
<!-- C&#45;1202&#45;&gt;R&#45;055 -->
<g id="edge21" class="edge">
<title>C&#45;1202&#45;&gt;R&#45;055</title>
<path fill="none" stroke="#4d4d4d" d="M622,-908.58C622,-908.58 622,-858.03 622,-858.03"/>
<polygon fill="#4d4d4d" stroke="#4d4d4d" points="624.45,-858.03 622,-851.03 619.55,-858.03 624.45,-858.03"/>
</g>
<!-- S&#45;771&#45;&gt;S&#45;1717 -->
<g id="edge44" class="edge">
<title>S&#45;771&#45;&gt;S&#45;1717</title>
<path fill="none" stroke="#4d4d4d" d="M1173,-201.58C1173,-201.58 1173,-151.03 1173,-151.03"/>
<polygon fill="#4d4d4d" stroke="#4d4d4d" points="1175.45,-151.03 1173,-144.03 1170.55,-151.03 1175.45,-151.03"/>
</g>
<!-- S&#45;1718 -->
<g id="node34" class="node">
<title>S&#45;1718</title>
<polygon fill="mediumseagreen" stroke="black" points="1688,-1558 1616,-1536.5 1688,-1515 1760,-1536.5 1688,-1558"/>
<text text-anchor="middle" x="1688" y="-1534" font-family="Arial" font-size="10.00">S&#45;1718</text>
</g>
<!-- S&#45;2412&#45;&gt;S&#45;2561 -->
<g id="edge28" class="edge">
<title>S&#45;2412&#45;&gt;S&#45;2561</title>
<path fill="none" stroke="#4d4d4d" d="M244.39,-425C172.64,-425 72,-425 72,-425 72,-425 72,-353.31 72,-353.31"/>
<polygon fill="#4d4d4d" stroke="#4d4d4d" points="74.45,-353.31 72,-346.31 69.55,-353.31 74.45,-353.31"/>
</g>
<!-- S&#45;2412&#45;&gt;S&#45;2559 -->
<g id="edge26" class="edge">
<title>S&#45;2412&#45;&gt;S&#45;2559</title>
<path fill="none" stroke="#4d4d4d" d="M283.5,-413.12C283.5,-413.12 283.5,-343.67 283.5,-343.67"/>
<polygon fill="#4d4d4d" stroke="#4d4d4d" points="285.95,-343.67 283.5,-336.67 281.05,-343.67 285.95,-343.67"/>
</g>
<!-- S&#45;2560 -->
<g id="node41" class="node">
<title>S&#45;2560</title>
<polygon fill="mediumseagreen" stroke="black" points="432,-346 360,-324.5 432,-303 504,-324.5 432,-346"/>
<text text-anchor="middle" x="432" y="-322" font-family="Arial" font-size="10.00">S&#45;2560</text>
</g>
<!-- S&#45;2412&#45;&gt;S&#45;2560 -->
<g id="edge27" class="edge">
<title>S&#45;2412&#45;&gt;S&#45;2560</title>
<path fill="none" stroke="#4d4d4d" d="M373.5,-421.16C373.5,-421.16 373.5,-335.71 373.5,-335.71"/>
<polygon fill="#4d4d4d" stroke="#4d4d4d" points="375.95,-335.71 373.5,-328.71 371.05,-335.71 375.95,-335.71"/>
</g>
<!-- C&#45;1204&#45;&gt;S&#45;735 -->
<g id="edge23" class="edge">
<title>C&#45;1204&#45;&gt;S&#45;735</title>
<path fill="none" stroke="#4d4d4d" d="M622,-706.58C622,-706.58 622,-656.03 622,-656.03"/>
<polygon fill="#4d4d4d" stroke="#4d4d4d" points="624.45,-656.03 622,-649.03 619.55,-656.03 624.45,-656.03"/>
</g>
<!-- R&#45;084 -->
<g id="node37" class="node">
<title>R&#45;084</title>
<polygon fill="tomato" stroke="black" points="451,-214.59 451,-232.41 408.82,-245 349.18,-245 307,-232.41 307,-214.59 349.18,-202 408.82,-202 451,-214.59"/>
<text text-anchor="middle" x="379" y="-221" font-family="Arial" font-size="10.00">R&#45;084</text>
</g>
<!-- ext_circ_307_23_ -->
<g id="node51" class="node">
<title>ext_circ_307_23_</title>
<polygon fill="lightpink" stroke="darkorange" stroke-dasharray="5,2" points="451,-144 307,-144 307,-101 451,-101 451,-144"/>
<text text-anchor="middle" x="379" y="-125.5" font-family="Arial" font-size="10.00">Circuito:</text>
<text text-anchor="middle" x="379" y="-114.5" font-family="Arial" font-size="10.00">307&#45;23&#45;</text>
</g>
<!-- R&#45;084&#45;&gt;ext_circ_307_23_ -->
<g id="edge54" class="edge">
<title>R&#45;084&#45;&gt;ext_circ_307_23_</title>
<path fill="none" stroke="darkorange" stroke-dasharray="5,2" d="M379,-201.58C379,-201.58 379,-151.03 379,-151.03"/>
<polygon fill="darkorange" stroke="darkorange" points="381.45,-151.03 379,-144.03 376.55,-151.03 381.45,-151.03"/>
</g>
<!-- C&#45;0193&#45;&gt;ext_circ_303_25_ -->
<g id="edge56" class="edge">
<title>C&#45;0193&#45;&gt;ext_circ_303_25_</title>
<path fill="none" stroke="darkorange" stroke-dasharray="5,2" d="M956,-100.97C956,-71.18 956,-21 956,-21 956,-21 818.26,-21 818.26,-21"/>
<polygon fill="darkorange" stroke="darkorange" points="818.26,-18.55 811.26,-21 818.26,-23.45 818.26,-18.55"/>
</g>
<!-- C&#45;0541&#45;&gt;C&#45;0242 -->
<g id="edge31" class="edge">
<title>C&#45;0541&#45;&gt;C&#45;0242</title>
<path fill="none" stroke="#4d4d4d" d="M704,-303.64C704,-303.64 704,-148.47 704,-148.47"/>
<polygon fill="#4d4d4d" stroke="#4d4d4d" points="706.45,-148.47 704,-141.47 701.55,-148.47 706.45,-148.47"/>
</g>
<!-- C&#45;0541&#45;&gt;S&#45;1224 -->
<g id="edge30" class="edge">
<title>C&#45;0541&#45;&gt;S&#45;1224</title>
<path fill="none" stroke="#4d4d4d" d="M749.5,-314.07C749.5,-314.07 749.5,-233.33 749.5,-233.33"/>
<polygon fill="#4d4d4d" stroke="#4d4d4d" points="751.95,-233.33 749.5,-226.33 747.05,-233.33 751.95,-233.33"/>
</g>
<!-- C&#45;0541&#45;&gt;R&#45;084 -->
<g id="edge34" class="edge">
<title>C&#45;0541&#45;&gt;R&#45;084</title>
<path fill="none" stroke="#4d4d4d" d="M619.67,-315.7C619.67,-301.23 619.67,-274 619.67,-274 619.67,-274 405.5,-274 405.5,-274 405.5,-274 405.5,-252.21 405.5,-252.21"/>
<polygon fill="#4d4d4d" stroke="#4d4d4d" points="407.95,-252.21 405.5,-245.21 403.05,-252.21 407.95,-252.21"/>
</g>
<!-- C&#45;0985 -->
<g id="node40" class="node">
<title>C&#45;0985</title>
<ellipse fill="mediumseagreen" stroke="black" cx="559" cy="-223.5" rx="72" ry="21.5"/>
<text text-anchor="middle" x="559" y="-221" font-family="Arial" font-size="10.00">C&#45;0985</text>
</g>
<!-- C&#45;0541&#45;&gt;C&#45;0985 -->
<g id="edge32" class="edge">
<title>C&#45;0541&#45;&gt;C&#45;0985</title>
<path fill="none" stroke="#4d4d4d" d="M625.33,-312.91C625.33,-312.91 625.33,-239.03 625.33,-239.03"/>
<polygon fill="#4d4d4d" stroke="#4d4d4d" points="627.78,-239.03 625.33,-232.03 622.88,-239.03 627.78,-239.03"/>
</g>
<!-- C&#45;0985&#45;&gt;R&#45;236 -->
<g id="edge33" class="edge">
<title>C&#45;0985&#45;&gt;R&#45;236</title>
<path fill="none" stroke="#4d4d4d" d="M559,-201.58C559,-201.58 559,-151.03 559,-151.03"/>
<polygon fill="#4d4d4d" stroke="#4d4d4d" points="561.45,-151.03 559,-144.03 556.55,-151.03 561.45,-151.03"/>
</g>
<!-- C&#45;1203&#45;&gt;S&#45;735 -->
<g id="edge51" class="edge">
<title>C&#45;1203&#45;&gt;S&#45;735</title>
<path fill="none" stroke="blue" stroke-dasharray="5,2" d="M744,-917.46C744,-859.37 744,-627 744,-627 744,-627 699.61,-627 699.61,-627"/>
<polygon fill="blue" stroke="blue" points="699.61,-624.55 692.61,-627 699.61,-629.45 699.61,-624.55"/>
</g>
<!-- C&#45;0908&#45;&gt;C&#45;0361 -->
<g id="edge14" class="edge">
<title>C&#45;0908&#45;&gt;C&#45;0361</title>
<path fill="none" stroke="#4d4d4d" d="M982,-1211.58C982,-1211.58 982,-1161.03 982,-1161.03"/>
<polygon fill="#4d4d4d" stroke="#4d4d4d" points="984.45,-1161.03 982,-1154.03 979.55,-1161.03 984.45,-1161.03"/>
</g>
<!-- C&#45;0378&#45;&gt;R&#45;127 -->
<g id="edge37" class="edge">
<title>C&#45;0378&#45;&gt;R&#45;127</title>
<path fill="none" stroke="#4d4d4d" d="M914,-507.5C914,-507.5 914,-452.8 914,-452.8"/>
<polygon fill="#4d4d4d" stroke="#4d4d4d" points="916.45,-452.8 914,-445.8 911.55,-452.8 916.45,-452.8"/>
</g>
<!-- C&#45;1252&#45;&gt;S&#45;1327 -->
<g id="edge8" class="edge">
<title>C&#45;1252&#45;&gt;S&#45;1327</title>
<path fill="none" stroke="#4d4d4d" d="M1259.01,-1644C1154.48,-1644 968,-1644 968,-1644 968,-1644 968,-1565.25 968,-1565.25"/>
<polygon fill="#4d4d4d" stroke="#4d4d4d" points="970.45,-1565.25 968,-1558.25 965.55,-1565.25 970.45,-1565.25"/>
</g>
<!-- C&#45;1252&#45;&gt;C&#45;0040 -->
<g id="edge5" class="edge">
<title>C&#45;1252&#45;&gt;C&#45;0040</title>
<path fill="none" stroke="#4d4d4d" d="M1260.46,-1630C1209.39,-1630 1148,-1630 1148,-1630 1148,-1630 1148,-1565.19 1148,-1565.19"/>
<polygon fill="#4d4d4d" stroke="#4d4d4d" points="1150.45,-1565.19 1148,-1558.19 1145.55,-1565.19 1150.45,-1565.19"/>
</g>
<!-- C&#45;1252&#45;&gt;S&#45;986 -->
<g id="edge7" class="edge">
<title>C&#45;1252&#45;&gt;S&#45;986</title>
<path fill="none" stroke="#4d4d4d" d="M1328,-1615.58C1328,-1615.58 1328,-1565.03 1328,-1565.03"/>
<polygon fill="#4d4d4d" stroke="#4d4d4d" points="1330.45,-1565.03 1328,-1558.03 1325.55,-1565.03 1330.45,-1565.03"/>
</g>
<!-- C&#45;1252&#45;&gt;C&#45;1137 -->
<g id="edge3" class="edge">
<title>C&#45;1252&#45;&gt;C&#45;1137</title>
<path fill="none" stroke="#4d4d4d" d="M1395.54,-1630C1446.61,-1630 1508,-1630 1508,-1630 1508,-1630 1508,-1565.19 1508,-1565.19"/>
<polygon fill="#4d4d4d" stroke="#4d4d4d" points="1510.45,-1565.19 1508,-1558.19 1505.55,-1565.19 1510.45,-1565.19"/>
</g>
<!-- C&#45;1252&#45;&gt;S&#45;1718 -->
<g id="edge6" class="edge">
<title>C&#45;1252&#45;&gt;S&#45;1718</title>
<path fill="none" stroke="#4d4d4d" d="M1396.99,-1644C1501.52,-1644 1688,-1644 1688,-1644 1688,-1644 1688,-1565.25 1688,-1565.25"/>
<polygon fill="#4d4d4d" stroke="#4d4d4d" points="1690.45,-1565.25 1688,-1558.25 1685.55,-1565.25 1690.45,-1565.25"/>
</g>
</g>
</svg>
