<?xml version="1.0" encoding="UTF-8" standalone="no"?>
<!DOCTYPE svg PUBLIC "-//W3C//DTD SVG 1.1//EN"
 "http://www.w3.org/Graphics/SVG/1.1/DTD/svg11.dtd">
<!-- Generated by graphviz version 2.50.0 (0)
 -->
<!-- Title: Grafo_Circuito_303_25_ Pages: 1 -->
<svg width="1592pt" height="1675pt"
 viewBox="0.00 0.00 1592.00 1675.00" xmlns="http://www.w3.org/2000/svg" xmlns:xlink="http://www.w3.org/1999/xlink">
<g id="graph0" class="graph" transform="scale(1 1) rotate(0) translate(4 1671)">
<title>Grafo_Circuito_303_25_</title>
<polygon fill="white" stroke="transparent" points="-4,4 -4,-1671 1588,-1671 1588,4 -4,4"/>
<!-- S&#45;341 -->
<g id="node1" class="node">
<title>S&#45;341</title>
<polygon fill="mediumseagreen" stroke="black" points="612,-649 540,-627.5 612,-606 684,-627.5 612,-649"/>
<text text-anchor="middle" x="612" y="-625" font-family="Arial" font-size="10.00">S&#45;341</text>
</g>
<!-- C&#45;0576 -->
<g id="node3" class="node">
<title>C&#45;0576</title>
<ellipse fill="tomato" stroke="black" cx="580" cy="-526.5" rx="72" ry="21.5"/>
<text text-anchor="middle" x="580" y="-524" font-family="Arial" font-size="10.00">C&#45;0576</text>
</g>
<!-- S&#45;341&#45;&gt;C&#45;0576 -->
<g id="edge26" class="edge">
<title>S&#45;341&#45;&gt;C&#45;0576</title>
<path fill="none" stroke="#4d4d4d" d="M596,-610.37C596,-610.37 596,-554.58 596,-554.58"/>
<polygon fill="#4d4d4d" stroke="#4d4d4d" points="598.45,-554.58 596,-547.58 593.55,-554.58 598.45,-554.58"/>
</g>
<!-- C&#45;0607 -->
<g id="node13" class="node">
<title>C&#45;0607</title>
<ellipse fill="mediumseagreen" stroke="black" cx="760" cy="-526.5" rx="72" ry="21.5"/>
<text text-anchor="middle" x="760" y="-524" font-family="Arial" font-size="10.00">C&#45;0607</text>
</g>
<!-- S&#45;341&#45;&gt;C&#45;0607 -->
<g id="edge27" class="edge">
<title>S&#45;341&#45;&gt;C&#45;0607</title>
<path fill="none" stroke="#4d4d4d" d="M682.48,-627C697.7,-627 709.33,-627 709.33,-627 709.33,-627 709.33,-549.2 709.33,-549.2"/>
<polygon fill="#4d4d4d" stroke="#4d4d4d" points="711.78,-549.2 709.33,-542.2 706.88,-549.2 711.78,-549.2"/>
</g>
<!-- C&#45;0976 -->
<g id="node2" class="node">
<title>C&#45;0976</title>
<ellipse fill="mediumseagreen" stroke="black" cx="972" cy="-1132.5" rx="72" ry="21.5"/>
<text text-anchor="middle" x="972" y="-1130" font-family="Arial" font-size="10.00">C&#45;0976</text>
</g>
<!-- S&#45;703 -->
<g id="node7" class="node">
<title>S&#45;703</title>
<polygon fill="mediumseagreen" stroke="black" points="612,-1053 540,-1031.5 612,-1010 684,-1031.5 612,-1053"/>
<text text-anchor="middle" x="612" y="-1029" font-family="Arial" font-size="10.00">S&#45;703</text>
</g>
<!-- C&#45;0976&#45;&gt;S&#45;703 -->
<g id="edge11" class="edge">
<title>C&#45;0976&#45;&gt;S&#45;703</title>
<path fill="none" stroke="#4d4d4d" d="M900.01,-1132C794.96,-1132 612,-1132 612,-1132 612,-1132 612,-1060.31 612,-1060.31"/>
<polygon fill="#4d4d4d" stroke="#4d4d4d" points="614.45,-1060.31 612,-1053.31 609.55,-1060.31 614.45,-1060.31"/>
</g>
<!-- S&#45;2380 -->
<g id="node9" class="node">
<title>S&#45;2380</title>
<polygon fill="mediumseagreen" stroke="black" points="792,-1053 720,-1031.5 792,-1010 864,-1031.5 792,-1053"/>
<text text-anchor="middle" x="792" y="-1029" font-family="Arial" font-size="10.00">S&#45;2380</text>
</g>
<!-- C&#45;0976&#45;&gt;S&#45;2380 -->
<g id="edge44" class="edge">
<title>C&#45;0976&#45;&gt;S&#45;2380</title>
<path fill="none" stroke="#4d4d4d" d="M910.79,-1121C867.09,-1121 816,-1121 816,-1121 816,-1121 816,-1052.88 816,-1052.88"/>
<polygon fill="#4d4d4d" stroke="#4d4d4d" points="818.45,-1052.88 816,-1045.88 813.55,-1052.88 818.45,-1052.88"/>
</g>
<!-- S&#45;1942 -->
<g id="node21" class="node">
<title>S&#45;1942</title>
<polygon fill="mediumseagreen" stroke="black" points="972,-1053 900,-1031.5 972,-1010 1044,-1031.5 972,-1053"/>
<text text-anchor="middle" x="972" y="-1029" font-family="Arial" font-size="10.00">S&#45;1942</text>
</g>
<!-- C&#45;0976&#45;&gt;S&#45;1942 -->
<g id="edge10" class="edge">
<title>C&#45;0976&#45;&gt;S&#45;1942</title>
<path fill="none" stroke="#4d4d4d" d="M972,-1110.58C972,-1110.58 972,-1060.03 972,-1060.03"/>
<polygon fill="#4d4d4d" stroke="#4d4d4d" points="974.45,-1060.03 972,-1053.03 969.55,-1060.03 974.45,-1060.03"/>
</g>
<!-- S&#45;702 -->
<g id="node40" class="node">
<title>S&#45;702</title>
<polygon fill="mediumseagreen" stroke="black" points="1152,-1053 1080,-1031.5 1152,-1010 1224,-1031.5 1152,-1053"/>
<text text-anchor="middle" x="1152" y="-1029" font-family="Arial" font-size="10.00">S&#45;702</text>
</g>
<!-- C&#45;0976&#45;&gt;S&#45;702 -->
<g id="edge46" class="edge">
<title>C&#45;0976&#45;&gt;S&#45;702</title>
<path fill="none" stroke="#4d4d4d" d="M1039.54,-1125C1090.61,-1125 1152,-1125 1152,-1125 1152,-1125 1152,-1060.19 1152,-1060.19"/>
<polygon fill="#4d4d4d" stroke="#4d4d4d" points="1154.45,-1060.19 1152,-1053.19 1149.55,-1060.19 1154.45,-1060.19"/>
</g>
<!-- S&#45;2526 -->
<g id="node45" class="node">
<title>S&#45;2526</title>
<polygon fill="mediumseagreen" stroke="black" points="1332,-1053 1260,-1031.5 1332,-1010 1404,-1031.5 1332,-1053"/>
<text text-anchor="middle" x="1332" y="-1029" font-family="Arial" font-size="10.00">S&#45;2526</text>
</g>
<!-- C&#45;0976&#45;&gt;S&#45;2526 -->
<g id="edge45" class="edge">
<title>C&#45;0976&#45;&gt;S&#45;2526</title>
<path fill="none" stroke="#4d4d4d" d="M1040.99,-1139C1145.52,-1139 1332,-1139 1332,-1139 1332,-1139 1332,-1060.25 1332,-1060.25"/>
<polygon fill="#4d4d4d" stroke="#4d4d4d" points="1334.45,-1060.25 1332,-1053.25 1329.55,-1060.25 1334.45,-1060.25"/>
</g>
<!-- C&#45;0608 -->
<g id="node14" class="node">
<title>C&#45;0608</title>
<ellipse fill="mediumseagreen" stroke="black" cx="760" cy="-324.5" rx="72" ry="21.5"/>
<text text-anchor="middle" x="760" y="-322" font-family="Arial" font-size="10.00">C&#45;0608</text>
</g>
<!-- C&#45;0576&#45;&gt;C&#45;0608 -->
<g id="edge49" class="edge">
<title>C&#45;0576&#45;&gt;C&#45;0608</title>
<path fill="none" stroke="blue" stroke-dasharray="5,2" d="M556,-506.01C556,-456.6 556,-335 556,-335 556,-335 690.13,-335 690.13,-335"/>
<polygon fill="blue" stroke="blue" points="690.13,-337.45 697.13,-335 690.13,-332.55 690.13,-337.45"/>
</g>
<!-- S&#45;492 -->
<g id="node4" class="node">
<title>S&#45;492</title>
<polygon fill="mediumseagreen" stroke="black" points="792,-649 720,-627.5 792,-606 864,-627.5 792,-649"/>
<text text-anchor="middle" x="792" y="-625" font-family="Arial" font-size="10.00">S&#45;492</text>
</g>
<!-- S&#45;1735 -->
<g id="node5" class="node">
<title>S&#45;1735</title>
<polygon fill="mediumseagreen" stroke="black" points="72,-1356 0,-1334.5 72,-1313 144,-1334.5 72,-1356"/>
<text text-anchor="middle" x="72" y="-1332" font-family="Arial" font-size="10.00">S&#45;1735</text>
</g>
<!-- 303&#45;25&#45; -->
<g id="node6" class="node">
<title>303&#45;25&#45;</title>
<polygon fill="gold" stroke="black" points="594,-1632.59 594,-1650.41 551.82,-1663 492.18,-1663 450,-1650.41 450,-1632.59 492.18,-1620 551.82,-1620 594,-1632.59"/>
<polygon fill="none" stroke="black" points="598,-1629.61 598,-1653.39 552.41,-1667 491.59,-1667 446,-1653.39 446,-1629.61 491.59,-1616 552.41,-1616 598,-1629.61"/>
<text text-anchor="middle" x="522" y="-1639" font-family="Arial" font-size="10.00">303&#45;25&#45;</text>
</g>
<!-- C&#45;0010 -->
<g id="node35" class="node">
<title>C&#45;0010</title>
<ellipse fill="mediumseagreen" stroke="black" cx="522" cy="-1536.5" rx="72" ry="21.5"/>
<text text-anchor="middle" x="522" y="-1534" font-family="Arial" font-size="10.00">C&#45;0010</text>
</g>
<!-- 303&#45;25&#45;&#45;&gt;C&#45;0010 -->
<g id="edge1" class="edge">
<title>303&#45;25&#45;&#45;&gt;C&#45;0010</title>
<path fill="none" stroke="#4d4d4d" d="M522,-1615.81C522,-1615.81 522,-1565.03 522,-1565.03"/>
<polygon fill="#4d4d4d" stroke="#4d4d4d" points="524.45,-1565.03 522,-1558.03 519.55,-1565.03 524.45,-1565.03"/>
</g>
<!-- S&#45;1914 -->
<g id="node8" class="node">
<title>S&#45;1914</title>
<polygon fill="mediumseagreen" stroke="black" points="252,-952 180,-930.5 252,-909 324,-930.5 252,-952"/>
<text text-anchor="middle" x="252" y="-928" font-family="Arial" font-size="10.00">S&#45;1914</text>
</g>
<!-- S&#45;703&#45;&gt;S&#45;1914 -->
<g id="edge42" class="edge">
<title>S&#45;703&#45;&gt;S&#45;1914</title>
<path fill="none" stroke="#4d4d4d" d="M541.31,-1031C436.46,-1031 252,-1031 252,-1031 252,-1031 252,-959.31 252,-959.31"/>
<polygon fill="#4d4d4d" stroke="#4d4d4d" points="254.45,-959.31 252,-952.31 249.55,-959.31 254.45,-959.31"/>
</g>
<!-- S&#45;836 -->
<g id="node10" class="node">
<title>S&#45;836</title>
<polygon fill="mediumseagreen" stroke="black" points="432,-952 360,-930.5 432,-909 504,-930.5 432,-952"/>
<text text-anchor="middle" x="432" y="-928" font-family="Arial" font-size="10.00">S&#45;836</text>
</g>
<!-- S&#45;703&#45;&gt;S&#45;836 -->
<g id="edge12" class="edge">
<title>S&#45;703&#45;&gt;S&#45;836</title>
<path fill="none" stroke="#4d4d4d" d="M578.14,-1020C526,-1020 432,-1020 432,-1020 432,-1020 432,-959.17 432,-959.17"/>
<polygon fill="#4d4d4d" stroke="#4d4d4d" points="434.45,-959.17 432,-952.17 429.55,-959.17 434.45,-959.17"/>
</g>
<!-- C&#45;0193 -->
<g id="node12" class="node">
<title>C&#45;0193</title>
<ellipse fill="tomato" stroke="black" cx="72" cy="-930.5" rx="72" ry="21.5"/>
<text text-anchor="middle" x="72" y="-928" font-family="Arial" font-size="10.00">C&#45;0193</text>
</g>
<!-- S&#45;703&#45;&gt;C&#45;0193 -->
<g id="edge41" class="edge">
<title>S&#45;703&#45;&gt;C&#45;0193</title>
<path fill="none" stroke="#4d4d4d" d="M574.88,-1042C452.88,-1042 72,-1042 72,-1042 72,-1042 72,-959.26 72,-959.26"/>
<polygon fill="#4d4d4d" stroke="#4d4d4d" points="74.45,-959.26 72,-952.26 69.55,-959.26 74.45,-959.26"/>
</g>
<!-- C&#45;1129 -->
<g id="node22" class="node">
<title>C&#45;1129</title>
<ellipse fill="mediumseagreen" stroke="black" cx="612" cy="-930.5" rx="72" ry="21.5"/>
<text text-anchor="middle" x="612" y="-928" font-family="Arial" font-size="10.00">C&#45;1129</text>
</g>
<!-- S&#45;703&#45;&gt;C&#45;1129 -->
<g id="edge43" class="edge">
<title>S&#45;703&#45;&gt;C&#45;1129</title>
<path fill="none" stroke="#4d4d4d" d="M576,-1020.69C576,-1020.69 576,-956.46 576,-956.46"/>
<polygon fill="#4d4d4d" stroke="#4d4d4d" points="578.45,-956.46 576,-949.46 573.55,-956.46 578.45,-956.46"/>
</g>
<!-- S&#45;1381 -->
<g id="node26" class="node">
<title>S&#45;1381</title>
<polygon fill="mediumseagreen" stroke="black" points="792,-952 720,-930.5 792,-909 864,-930.5 792,-952"/>
<text text-anchor="middle" x="792" y="-928" font-family="Arial" font-size="10.00">S&#45;1381</text>
</g>
<!-- S&#45;703&#45;&gt;S&#45;1381 -->
<g id="edge13" class="edge">
<title>S&#45;703&#45;&gt;S&#45;1381</title>
<path fill="none" stroke="#4d4d4d" d="M682.37,-1031C692,-1031 698.67,-1031 698.67,-1031 698.67,-1031 698.67,-930 698.67,-930 698.67,-930 714.26,-930 714.26,-930"/>
<polygon fill="#4d4d4d" stroke="#4d4d4d" points="714.26,-932.45 721.26,-930 714.26,-927.55 714.26,-932.45"/>
</g>
<!-- S&#45;1382 -->
<g id="node38" class="node">
<title>S&#45;1382</title>
<polygon fill="mediumseagreen" stroke="black" points="972,-952 900,-930.5 972,-909 1044,-930.5 972,-952"/>
<text text-anchor="middle" x="972" y="-928" font-family="Arial" font-size="10.00">S&#45;1382</text>
</g>
<!-- S&#45;703&#45;&gt;S&#45;1382 -->
<g id="edge14" class="edge">
<title>S&#45;703&#45;&gt;S&#45;1382</title>
<path fill="none" stroke="#4d4d4d" d="M612,-1010C612,-992.61 612,-971 612,-971 612,-971 972,-971 972,-971 972,-971 972,-959.17 972,-959.17"/>
<polygon fill="#4d4d4d" stroke="#4d4d4d" points="974.45,-959.17 972,-952.17 969.55,-959.17 974.45,-959.17"/>
</g>
<!-- S&#45;767 -->
<g id="node48" class="node">
<title>S&#45;767</title>
<polygon fill="mediumseagreen" stroke="black" points="1152,-952 1080,-930.5 1152,-909 1224,-930.5 1152,-952"/>
<text text-anchor="middle" x="1152" y="-928" font-family="Arial" font-size="10.00">S&#45;767</text>
</g>
<!-- S&#45;703&#45;&gt;S&#45;767 -->
<g id="edge15" class="edge">
<title>S&#45;703&#45;&gt;S&#45;767</title>
<path fill="none" stroke="#4d4d4d" d="M648,-1020.6C648,-1008.3 648,-990 648,-990 648,-990 1152,-990 1152,-990 1152,-990 1152,-959.32 1152,-959.32"/>
<polygon fill="#4d4d4d" stroke="#4d4d4d" points="1154.45,-959.32 1152,-952.32 1149.55,-959.32 1154.45,-959.32"/>
</g>
<!-- C&#45;0736 -->
<g id="node11" class="node">
<title>C&#45;0736</title>
<ellipse fill="mediumseagreen" stroke="black" cx="1120" cy="-122.5" rx="72" ry="21.5"/>
<text text-anchor="middle" x="1120" y="-120" font-family="Arial" font-size="10.00">C&#45;0736</text>
</g>
<!-- R&#45;161 -->
<g id="node28" class="node">
<title>R&#45;161</title>
<polygon fill="tomato" stroke="black" points="1192,-12.59 1192,-30.41 1149.82,-43 1090.18,-43 1048,-30.41 1048,-12.59 1090.18,0 1149.82,0 1192,-12.59"/>
<text text-anchor="middle" x="1120" y="-19" font-family="Arial" font-size="10.00">R&#45;161</text>
</g>
<!-- C&#45;0736&#45;&gt;R&#45;161 -->
<g id="edge34" class="edge">
<title>C&#45;0736&#45;&gt;R&#45;161</title>
<path fill="none" stroke="#4d4d4d" d="M1144,-102.06C1144,-102.06 1144,-50.31 1144,-50.31"/>
<polygon fill="#4d4d4d" stroke="#4d4d4d" points="1146.45,-50.31 1144,-43.31 1141.55,-50.31 1146.45,-50.31"/>
</g>
<!-- ext_circ_303_27_ -->
<g id="node50" class="node">
<title>ext_circ_303_27_</title>
<polygon fill="lightpink" stroke="darkorange" stroke-dasharray="5,2" points="383,-1663 239,-1663 239,-1620 383,-1620 383,-1663"/>
<text text-anchor="middle" x="311" y="-1644.5" font-family="Arial" font-size="10.00">Circuito:</text>
<text text-anchor="middle" x="311" y="-1633.5" font-family="Arial" font-size="10.00">303&#45;27&#45;</text>
</g>
<!-- C&#45;0193&#45;&gt;ext_circ_303_27_ -->
<g id="edge51" class="edge">
<title>C&#45;0193&#45;&gt;ext_circ_303_27_</title>
<path fill="none" stroke="darkorange" stroke-dasharray="5,2" d="M144.01,-930C158.64,-930 169.67,-930 169.67,-930 169.67,-930 169.67,-1648 169.67,-1648 169.67,-1648 231.68,-1648 231.68,-1648"/>
<polygon fill="darkorange" stroke="darkorange" points="231.68,-1650.45 238.68,-1648 231.68,-1645.55 231.68,-1650.45"/>
</g>
<!-- R&#45;098 -->
<g id="node24" class="node">
<title>R&#45;098</title>
<polygon fill="mediumseagreen" stroke="black" points="832,-416.59 832,-434.41 789.82,-447 730.18,-447 688,-434.41 688,-416.59 730.18,-404 789.82,-404 832,-416.59"/>
<text text-anchor="middle" x="760" y="-423" font-family="Arial" font-size="10.00">R&#45;098</text>
</g>
<!-- C&#45;0607&#45;&gt;R&#45;098 -->
<g id="edge28" class="edge">
<title>C&#45;0607&#45;&gt;R&#45;098</title>
<path fill="none" stroke="#4d4d4d" d="M760,-504.58C760,-504.58 760,-454.03 760,-454.03"/>
<polygon fill="#4d4d4d" stroke="#4d4d4d" points="762.45,-454.03 760,-447.03 757.55,-454.03 762.45,-454.03"/>
</g>
<!-- S&#45;1770 -->
<g id="node18" class="node">
<title>S&#45;1770</title>
<polygon fill="mediumseagreen" stroke="black" points="400,-245 328,-223.5 400,-202 472,-223.5 400,-245"/>
<text text-anchor="middle" x="400" y="-221" font-family="Arial" font-size="10.00">S&#45;1770</text>
</g>
<!-- C&#45;0608&#45;&gt;S&#45;1770 -->
<g id="edge31" class="edge">
<title>C&#45;0608&#45;&gt;S&#45;1770</title>
<path fill="none" stroke="#4d4d4d" d="M687.89,-324C587.01,-324 416,-324 416,-324 416,-324 416,-247.55 416,-247.55"/>
<polygon fill="#4d4d4d" stroke="#4d4d4d" points="418.45,-247.55 416,-240.55 413.55,-247.55 418.45,-247.55"/>
</g>
<!-- S&#45;2578 -->
<g id="node19" class="node">
<title>S&#45;2578</title>
<polygon fill="mediumseagreen" stroke="black" points="580,-245 508,-223.5 580,-202 652,-223.5 580,-245"/>
<text text-anchor="middle" x="580" y="-221" font-family="Arial" font-size="10.00">S&#45;2578</text>
</g>
<!-- C&#45;0608&#45;&gt;S&#45;2578 -->
<g id="edge30" class="edge">
<title>C&#45;0608&#45;&gt;S&#45;2578</title>
<path fill="none" stroke="#4d4d4d" d="M698.79,-313C655.09,-313 604,-313 604,-313 604,-313 604,-244.88 604,-244.88"/>
<polygon fill="#4d4d4d" stroke="#4d4d4d" points="606.45,-244.88 604,-237.88 601.55,-244.88 606.45,-244.88"/>
</g>
<!-- S&#45;2278 -->
<g id="node30" class="node">
<title>S&#45;2278</title>
<polygon fill="mediumseagreen" stroke="black" points="760,-245 688,-223.5 760,-202 832,-223.5 760,-245"/>
<text text-anchor="middle" x="760" y="-221" font-family="Arial" font-size="10.00">S&#45;2278</text>
</g>
<!-- C&#45;0608&#45;&gt;S&#45;2278 -->
<g id="edge40" class="edge">
<title>C&#45;0608&#45;&gt;S&#45;2278</title>
<path fill="none" stroke="#4d4d4d" d="M760,-302.58C760,-302.58 760,-252.03 760,-252.03"/>
<polygon fill="#4d4d4d" stroke="#4d4d4d" points="762.45,-252.03 760,-245.03 757.55,-252.03 762.45,-252.03"/>
</g>
<!-- S&#45;1966 -->
<g id="node31" class="node">
<title>S&#45;1966</title>
<polygon fill="mediumseagreen" stroke="black" points="940,-245 868,-223.5 940,-202 1012,-223.5 940,-245"/>
<text text-anchor="middle" x="940" y="-221" font-family="Arial" font-size="10.00">S&#45;1966</text>
</g>
<!-- C&#45;0608&#45;&gt;S&#45;1966 -->
<g id="edge37" class="edge">
<title>C&#45;0608&#45;&gt;S&#45;1966</title>
<path fill="none" stroke="#4d4d4d" d="M827.8,-317C856.75,-317 884,-317 884,-317 884,-317 884,-235.53 884,-235.53"/>
<polygon fill="#4d4d4d" stroke="#4d4d4d" points="886.45,-235.53 884,-228.53 881.55,-235.53 886.45,-235.53"/>
</g>
<!-- S&#45;340 -->
<g id="node39" class="node">
<title>S&#45;340</title>
<polygon fill="mediumseagreen" stroke="black" points="1120,-245 1048,-223.5 1120,-202 1192,-223.5 1120,-245"/>
<text text-anchor="middle" x="1120" y="-221" font-family="Arial" font-size="10.00">S&#45;340</text>
</g>
<!-- C&#45;0608&#45;&gt;S&#45;340 -->
<g id="edge32" class="edge">
<title>C&#45;0608&#45;&gt;S&#45;340</title>
<path fill="none" stroke="#4d4d4d" d="M828.9,-331C917.1,-331 1058.67,-331 1058.67,-331 1058.67,-331 1058.67,-234.08 1058.67,-234.08"/>
<polygon fill="#4d4d4d" stroke="#4d4d4d" points="1061.12,-234.08 1058.67,-227.08 1056.22,-234.08 1061.12,-234.08"/>
</g>
<!-- S&#45;2392 -->
<g id="node15" class="node">
<title>S&#45;2392</title>
<polygon fill="mediumseagreen" stroke="black" points="252,-1356 180,-1334.5 252,-1313 324,-1334.5 252,-1356"/>
<text text-anchor="middle" x="252" y="-1332" font-family="Arial" font-size="10.00">S&#45;2392</text>
</g>
<!-- S&#45;2531 -->
<g id="node16" class="node">
<title>S&#45;2531</title>
<polygon fill="mediumseagreen" stroke="black" points="432,-1356 360,-1334.5 432,-1313 504,-1334.5 432,-1356"/>
<text text-anchor="middle" x="432" y="-1332" font-family="Arial" font-size="10.00">S&#45;2531</text>
</g>
<!-- C&#45;0413 -->
<g id="node17" class="node">
<title>C&#45;0413</title>
<ellipse fill="mediumseagreen" stroke="black" cx="972" cy="-728.5" rx="72" ry="21.5"/>
<text text-anchor="middle" x="972" y="-726" font-family="Arial" font-size="10.00">C&#45;0413</text>
</g>
<!-- C&#45;0413&#45;&gt;S&#45;341 -->
<g id="edge25" class="edge">
<title>C&#45;0413&#45;&gt;S&#45;341</title>
<path fill="none" stroke="#4d4d4d" d="M903.01,-735C798.48,-735 612,-735 612,-735 612,-735 612,-656.25 612,-656.25"/>
<polygon fill="#4d4d4d" stroke="#4d4d4d" points="614.45,-656.25 612,-649.25 609.55,-656.25 614.45,-656.25"/>
</g>
<!-- C&#45;0413&#45;&gt;S&#45;492 -->
<g id="edge22" class="edge">
<title>C&#45;0413&#45;&gt;S&#45;492</title>
<path fill="none" stroke="#4d4d4d" d="M904.46,-721C853.39,-721 792,-721 792,-721 792,-721 792,-656.19 792,-656.19"/>
<polygon fill="#4d4d4d" stroke="#4d4d4d" points="794.45,-656.19 792,-649.19 789.55,-656.19 794.45,-656.19"/>
</g>
<!-- S&#45;1485 -->
<g id="node25" class="node">
<title>S&#45;1485</title>
<polygon fill="mediumseagreen" stroke="black" points="972,-649 900,-627.5 972,-606 1044,-627.5 972,-649"/>
<text text-anchor="middle" x="972" y="-625" font-family="Arial" font-size="10.00">S&#45;1485</text>
</g>
<!-- C&#45;0413&#45;&gt;S&#45;1485 -->
<g id="edge23" class="edge">
<title>C&#45;0413&#45;&gt;S&#45;1485</title>
<path fill="none" stroke="#4d4d4d" d="M972,-706.58C972,-706.58 972,-656.03 972,-656.03"/>
<polygon fill="#4d4d4d" stroke="#4d4d4d" points="974.45,-656.03 972,-649.03 969.55,-656.03 974.45,-656.03"/>
</g>
<!-- C&#45;343 -->
<g id="node29" class="node">
<title>C&#45;343</title>
<ellipse fill="mediumseagreen" stroke="black" cx="1152" cy="-627.5" rx="72" ry="21.5"/>
<text text-anchor="middle" x="1152" y="-625" font-family="Arial" font-size="10.00">C&#45;343</text>
</g>
<!-- C&#45;0413&#45;&gt;C&#45;343 -->
<g id="edge24" class="edge">
<title>C&#45;0413&#45;&gt;C&#45;343</title>
<path fill="none" stroke="#4d4d4d" d="M1044.01,-728C1058.48,-728 1069.33,-728 1069.33,-728 1069.33,-728 1069.33,-627 1069.33,-627 1069.33,-627 1072.8,-627 1072.8,-627"/>
<polygon fill="#4d4d4d" stroke="#4d4d4d" points="1072.8,-629.45 1079.8,-627 1072.8,-624.55 1072.8,-629.45"/>
</g>
<!-- S&#45;2168 -->
<g id="node20" class="node">
<title>S&#45;2168</title>
<polygon fill="mediumseagreen" stroke="black" points="1300,-43 1228,-21.5 1300,0 1372,-21.5 1300,-43"/>
<text text-anchor="middle" x="1300" y="-19" font-family="Arial" font-size="10.00">S&#45;2168</text>
</g>
<!-- S&#45;2453 -->
<g id="node23" class="node">
<title>S&#45;2453</title>
<polygon fill="mediumseagreen" stroke="black" points="1332,-649 1260,-627.5 1332,-606 1404,-627.5 1332,-649"/>
<text text-anchor="middle" x="1332" y="-625" font-family="Arial" font-size="10.00">S&#45;2453</text>
</g>
<!-- R&#45;098&#45;&gt;C&#45;0608 -->
<g id="edge29" class="edge">
<title>R&#45;098&#45;&gt;C&#45;0608</title>
<path fill="none" stroke="#4d4d4d" d="M760,-403.58C760,-403.58 760,-353.03 760,-353.03"/>
<polygon fill="#4d4d4d" stroke="#4d4d4d" points="762.45,-353.03 760,-346.03 757.55,-353.03 762.45,-353.03"/>
</g>
<!-- R&#45;062 -->
<g id="node27" class="node">
<title>R&#45;062</title>
<polygon fill="mediumseagreen" stroke="black" points="1224,-820.59 1224,-838.41 1181.82,-851 1122.18,-851 1080,-838.41 1080,-820.59 1122.18,-808 1181.82,-808 1224,-820.59"/>
<text text-anchor="middle" x="1152" y="-827" font-family="Arial" font-size="10.00">R&#45;062</text>
</g>
<!-- R&#45;062&#45;&gt;C&#45;0413 -->
<g id="edge21" class="edge">
<title>R&#45;062&#45;&gt;C&#45;0413</title>
<path fill="none" stroke="#4d4d4d" d="M1079.82,-829C1029.75,-829 972,-829 972,-829 972,-829 972,-757.31 972,-757.31"/>
<polygon fill="#4d4d4d" stroke="#4d4d4d" points="974.45,-757.31 972,-750.31 969.55,-757.31 974.45,-757.31"/>
</g>
<!-- S&#45;774 -->
<g id="node32" class="node">
<title>S&#45;774</title>
<polygon fill="mediumseagreen" stroke="black" points="1152,-750 1080,-728.5 1152,-707 1224,-728.5 1152,-750"/>
<text text-anchor="middle" x="1152" y="-726" font-family="Arial" font-size="10.00">S&#45;774</text>
</g>
<!-- R&#45;062&#45;&gt;S&#45;774 -->
<g id="edge17" class="edge">
<title>R&#45;062&#45;&gt;S&#45;774</title>
<path fill="none" stroke="#4d4d4d" d="M1152,-807.58C1152,-807.58 1152,-757.03 1152,-757.03"/>
<polygon fill="#4d4d4d" stroke="#4d4d4d" points="1154.45,-757.03 1152,-750.03 1149.55,-757.03 1154.45,-757.03"/>
</g>
<!-- S&#45;769 -->
<g id="node36" class="node">
<title>S&#45;769</title>
<polygon fill="mediumseagreen" stroke="black" points="1332,-750 1260,-728.5 1332,-707 1404,-728.5 1332,-750"/>
<text text-anchor="middle" x="1332" y="-726" font-family="Arial" font-size="10.00">S&#45;769</text>
</g>
<!-- R&#45;062&#45;&gt;S&#45;769 -->
<g id="edge18" class="edge">
<title>R&#45;062&#45;&gt;S&#45;769</title>
<path fill="none" stroke="#4d4d4d" d="M1224.18,-829C1274.25,-829 1332,-829 1332,-829 1332,-829 1332,-757.31 1332,-757.31"/>
<polygon fill="#4d4d4d" stroke="#4d4d4d" points="1334.45,-757.31 1332,-750.31 1329.55,-757.31 1334.45,-757.31"/>
</g>
<!-- ext_circ_112_24_ -->
<g id="node49" class="node">
<title>ext_circ_112_24_</title>
<polygon fill="lightpink" stroke="darkorange" stroke-dasharray="5,2" points="149,-1663 5,-1663 5,-1620 149,-1620 149,-1663"/>
<text text-anchor="middle" x="77" y="-1644.5" font-family="Arial" font-size="10.00">Circuito:</text>
<text text-anchor="middle" x="77" y="-1633.5" font-family="Arial" font-size="10.00">112&#45;24&#45;</text>
</g>
<!-- R&#45;161&#45;&gt;ext_circ_112_24_ -->
<g id="edge50" class="edge">
<title>R&#45;161&#45;&gt;ext_circ_112_24_</title>
<path fill="none" stroke="darkorange" stroke-dasharray="5,2" d="M1096,-43.21C1096,-56.9 1096,-72 1096,-72 1096,-72 159.33,-72 159.33,-72 159.33,-72 159.33,-1634 159.33,-1634 159.33,-1634 156.24,-1634 156.24,-1634"/>
<polygon fill="darkorange" stroke="darkorange" points="156.24,-1631.55 149.24,-1634 156.24,-1636.45 156.24,-1631.55"/>
</g>
<!-- S&#45;2014 -->
<g id="node41" class="node">
<title>S&#45;2014</title>
<polygon fill="mediumseagreen" stroke="black" points="940,-144 868,-122.5 940,-101 1012,-122.5 940,-144"/>
<text text-anchor="middle" x="940" y="-120" font-family="Arial" font-size="10.00">S&#45;2014</text>
</g>
<!-- S&#45;1966&#45;&gt;S&#45;2014 -->
<g id="edge38" class="edge">
<title>S&#45;1966&#45;&gt;S&#45;2014</title>
<path fill="none" stroke="#4d4d4d" d="M940,-201.58C940,-201.58 940,-151.03 940,-151.03"/>
<polygon fill="#4d4d4d" stroke="#4d4d4d" points="942.45,-151.03 940,-144.03 937.55,-151.03 942.45,-151.03"/>
</g>
<!-- S&#45;2529 -->
<g id="node33" class="node">
<title>S&#45;2529</title>
<polygon fill="mediumseagreen" stroke="black" points="612,-1356 540,-1334.5 612,-1313 684,-1334.5 612,-1356"/>
<text text-anchor="middle" x="612" y="-1332" font-family="Arial" font-size="10.00">S&#45;2529</text>
</g>
<!-- C&#45;0664 -->
<g id="node34" class="node">
<title>C&#45;0664</title>
<ellipse fill="tomato" stroke="black" cx="792" cy="-1334.5" rx="72" ry="21.5"/>
<text text-anchor="middle" x="792" y="-1332" font-family="Arial" font-size="10.00">C&#45;0664</text>
</g>
<!-- C&#45;0664&#45;&gt;C&#45;0976 -->
<g id="edge48" class="edge">
<title>C&#45;0664&#45;&gt;C&#45;0976</title>
<path fill="none" stroke="blue" stroke-dasharray="5,2" d="M768,-1314.01C768,-1264.6 768,-1143 768,-1143 768,-1143 902.13,-1143 902.13,-1143"/>
<polygon fill="blue" stroke="blue" points="902.13,-1145.45 909.13,-1143 902.13,-1140.55 902.13,-1145.45"/>
</g>
<!-- C&#45;1253 -->
<g id="node37" class="node">
<title>C&#45;1253</title>
<ellipse fill="mediumseagreen" stroke="black" cx="522" cy="-1435.5" rx="72" ry="21.5"/>
<text text-anchor="middle" x="522" y="-1433" font-family="Arial" font-size="10.00">C&#45;1253</text>
</g>
<!-- C&#45;0010&#45;&gt;C&#45;1253 -->
<g id="edge2" class="edge">
<title>C&#45;0010&#45;&gt;C&#45;1253</title>
<path fill="none" stroke="#4d4d4d" d="M522,-1514.58C522,-1514.58 522,-1464.03 522,-1464.03"/>
<polygon fill="#4d4d4d" stroke="#4d4d4d" points="524.45,-1464.03 522,-1457.03 519.55,-1464.03 524.45,-1464.03"/>
</g>
<!-- S&#45;769&#45;&gt;S&#45;2453 -->
<g id="edge19" class="edge">
<title>S&#45;769&#45;&gt;S&#45;2453</title>
<path fill="none" stroke="#4d4d4d" d="M1332,-706.58C1332,-706.58 1332,-656.03 1332,-656.03"/>
<polygon fill="#4d4d4d" stroke="#4d4d4d" points="1334.45,-656.03 1332,-649.03 1329.55,-656.03 1334.45,-656.03"/>
</g>
<!-- S&#45;1226 -->
<g id="node46" class="node">
<title>S&#45;1226</title>
<polygon fill="mediumseagreen" stroke="black" points="1512,-649 1440,-627.5 1512,-606 1584,-627.5 1512,-649"/>
<text text-anchor="middle" x="1512" y="-625" font-family="Arial" font-size="10.00">S&#45;1226</text>
</g>
<!-- S&#45;769&#45;&gt;S&#45;1226 -->
<g id="edge20" class="edge">
<title>S&#45;769&#45;&gt;S&#45;1226</title>
<path fill="none" stroke="#4d4d4d" d="M1402.37,-728C1452.85,-728 1512,-728 1512,-728 1512,-728 1512,-656.31 1512,-656.31"/>
<polygon fill="#4d4d4d" stroke="#4d4d4d" points="1514.45,-656.31 1512,-649.31 1509.55,-656.31 1514.45,-656.31"/>
</g>
<!-- C&#45;1253&#45;&gt;S&#45;1735 -->
<g id="edge3" class="edge">
<title>C&#45;1253&#45;&gt;S&#45;1735</title>
<path fill="none" stroke="#4d4d4d" d="M453.06,-1442C327.53,-1442 74.5,-1442 74.5,-1442 74.5,-1442 74.5,-1362.48 74.5,-1362.48"/>
<polygon fill="#4d4d4d" stroke="#4d4d4d" points="76.95,-1362.48 74.5,-1355.48 72.05,-1362.48 76.95,-1362.48"/>
</g>
<!-- C&#45;1253&#45;&gt;S&#45;2392 -->
<g id="edge4" class="edge">
<title>C&#45;1253&#45;&gt;S&#45;2392</title>
<path fill="none" stroke="#4d4d4d" d="M454.37,-1428C383.23,-1428 281.5,-1428 281.5,-1428 281.5,-1428 281.5,-1354.5 281.5,-1354.5"/>
<polygon fill="#4d4d4d" stroke="#4d4d4d" points="283.95,-1354.5 281.5,-1347.5 279.05,-1354.5 283.95,-1354.5"/>
</g>
<!-- C&#45;1253&#45;&gt;S&#45;2531 -->
<g id="edge5" class="edge">
<title>C&#45;1253&#45;&gt;S&#45;2531</title>
<path fill="none" stroke="#4d4d4d" d="M477,-1418.37C477,-1418.37 477,-1349.78 477,-1349.78"/>
<polygon fill="#4d4d4d" stroke="#4d4d4d" points="479.45,-1349.78 477,-1342.78 474.55,-1349.78 479.45,-1349.78"/>
</g>
<!-- C&#45;1253&#45;&gt;S&#45;2529 -->
<g id="edge47" class="edge">
<title>C&#45;1253&#45;&gt;S&#45;2529</title>
<path fill="none" stroke="#4d4d4d" d="M567,-1418.37C567,-1418.37 567,-1349.78 567,-1349.78"/>
<polygon fill="#4d4d4d" stroke="#4d4d4d" points="569.45,-1349.78 567,-1342.78 564.55,-1349.78 569.45,-1349.78"/>
</g>
<!-- C&#45;1253&#45;&gt;C&#45;0664 -->
<g id="edge7" class="edge">
<title>C&#45;1253&#45;&gt;C&#45;0664</title>
<path fill="none" stroke="#4d4d4d" d="M589.78,-1428C669.76,-1428 792,-1428 792,-1428 792,-1428 792,-1363.19 792,-1363.19"/>
<polygon fill="#4d4d4d" stroke="#4d4d4d" points="794.45,-1363.19 792,-1356.19 789.55,-1363.19 794.45,-1363.19"/>
</g>
<!-- C&#45;0975 -->
<g id="node47" class="node">
<title>C&#45;0975</title>
<ellipse fill="mediumseagreen" stroke="black" cx="972" cy="-1334.5" rx="72" ry="21.5"/>
<text text-anchor="middle" x="972" y="-1332" font-family="Arial" font-size="10.00">C&#45;0975</text>
</g>
<!-- C&#45;1253&#45;&gt;C&#45;0975 -->
<g id="edge6" class="edge">
<title>C&#45;1253&#45;&gt;C&#45;0975</title>
<path fill="none" stroke="#4d4d4d" d="M590.84,-1442C716.89,-1442 972,-1442 972,-1442 972,-1442 972,-1363.25 972,-1363.25"/>
<polygon fill="#4d4d4d" stroke="#4d4d4d" points="974.45,-1363.25 972,-1356.25 969.55,-1363.25 974.45,-1363.25"/>
</g>
<!-- S&#45;340&#45;&gt;C&#45;0736 -->
<g id="edge33" class="edge">
<title>S&#45;340&#45;&gt;C&#45;0736</title>
<path fill="none" stroke="#4d4d4d" d="M1120,-201.58C1120,-201.58 1120,-151.03 1120,-151.03"/>
<polygon fill="#4d4d4d" stroke="#4d4d4d" points="1122.45,-151.03 1120,-144.03 1117.55,-151.03 1122.45,-151.03"/>
</g>
<!-- S&#45;339 -->
<g id="node43" class="node">
<title>S&#45;339</title>
<polygon fill="mediumseagreen" stroke="black" points="1300,-144 1228,-122.5 1300,-101 1372,-122.5 1300,-144"/>
<text text-anchor="middle" x="1300" y="-120" font-family="Arial" font-size="10.00">S&#45;339</text>
</g>
<!-- S&#45;340&#45;&gt;S&#45;339 -->
<g id="edge35" class="edge">
<title>S&#45;340&#45;&gt;S&#45;339</title>
<path fill="none" stroke="#4d4d4d" d="M1190.33,-223C1218.32,-223 1244,-223 1244,-223 1244,-223 1244,-134.35 1244,-134.35"/>
<polygon fill="#4d4d4d" stroke="#4d4d4d" points="1246.45,-134.35 1244,-127.35 1241.55,-134.35 1246.45,-134.35"/>
</g>
<!-- C&#45;0986 -->
<g id="node44" class="node">
<title>C&#45;0986</title>
<ellipse fill="mediumseagreen" stroke="black" cx="940" cy="-21.5" rx="72" ry="21.5"/>
<text text-anchor="middle" x="940" y="-19" font-family="Arial" font-size="10.00">C&#45;0986</text>
</g>
<!-- S&#45;2014&#45;&gt;C&#45;0986 -->
<g id="edge39" class="edge">
<title>S&#45;2014&#45;&gt;C&#45;0986</title>
<path fill="none" stroke="#4d4d4d" d="M940,-100.58C940,-100.58 940,-50.03 940,-50.03"/>
<polygon fill="#4d4d4d" stroke="#4d4d4d" points="942.45,-50.03 940,-43.03 937.55,-50.03 942.45,-50.03"/>
</g>
<!-- R&#45;232 -->
<g id="node42" class="node">
<title>R&#45;232</title>
<polygon fill="mediumseagreen" stroke="black" points="1044,-1224.59 1044,-1242.41 1001.82,-1255 942.18,-1255 900,-1242.41 900,-1224.59 942.18,-1212 1001.82,-1212 1044,-1224.59"/>
<text text-anchor="middle" x="972" y="-1231" font-family="Arial" font-size="10.00">R&#45;232</text>
</g>
<!-- R&#45;232&#45;&gt;C&#45;0976 -->
<g id="edge9" class="edge">
<title>R&#45;232&#45;&gt;C&#45;0976</title>
<path fill="none" stroke="#4d4d4d" d="M972,-1211.58C972,-1211.58 972,-1161.03 972,-1161.03"/>
<polygon fill="#4d4d4d" stroke="#4d4d4d" points="974.45,-1161.03 972,-1154.03 969.55,-1161.03 974.45,-1161.03"/>
</g>
<!-- S&#45;339&#45;&gt;S&#45;2168 -->
<g id="edge36" class="edge">
<title>S&#45;339&#45;&gt;S&#45;2168</title>
<path fill="none" stroke="#4d4d4d" d="M1300,-100.58C1300,-100.58 1300,-50.03 1300,-50.03"/>
<polygon fill="#4d4d4d" stroke="#4d4d4d" points="1302.45,-50.03 1300,-43.03 1297.55,-50.03 1302.45,-50.03"/>
</g>
<!-- C&#45;0975&#45;&gt;R&#45;232 -->
<g id="edge8" class="edge">
<title>C&#45;0975&#45;&gt;R&#45;232</title>
<path fill="none" stroke="#4d4d4d" d="M972,-1312.58C972,-1312.58 972,-1262.03 972,-1262.03"/>
<polygon fill="#4d4d4d" stroke="#4d4d4d" points="974.45,-1262.03 972,-1255.03 969.55,-1262.03 974.45,-1262.03"/>
</g>
<!-- S&#45;767&#45;&gt;R&#45;062 -->
<g id="edge16" class="edge">
<title>S&#45;767&#45;&gt;R&#45;062</title>
<path fill="none" stroke="#4d4d4d" d="M1152,-908.58C1152,-908.58 1152,-858.03 1152,-858.03"/>
<polygon fill="#4d4d4d" stroke="#4d4d4d" points="1154.45,-858.03 1152,-851.03 1149.55,-858.03 1154.45,-858.03"/>
</g>
</g>
</svg>
