<?xml version="1.0" encoding="UTF-8" standalone="no"?>
<!DOCTYPE svg PUBLIC "-//W3C//DTD SVG 1.1//EN"
 "http://www.w3.org/Graphics/SVG/1.1/DTD/svg11.dtd">
<!-- Generated by graphviz version 2.50.0 (0)
 -->
<!-- Title: Grafo_Circuito_110_26_ Pages: 1 -->
<svg width="1442pt" height="1086pt"
 viewBox="0.00 0.00 1442.00 1086.00" xmlns="http://www.w3.org/2000/svg" xmlns:xlink="http://www.w3.org/1999/xlink">
<g id="graph0" class="graph" transform="scale(1 1) rotate(0) translate(4 1082)">
<title>Grafo_Circuito_110_26_</title>
<polygon fill="white" stroke="transparent" points="-4,4 -4,-1082 1438,-1082 1438,4 -4,4"/>
<!-- C&#45;0485 -->
<g id="node1" class="node">
<title>C&#45;0485</title>
<ellipse fill="mediumseagreen" stroke="black" cx="414.5" cy="-582" rx="68.5" ry="18"/>
<text text-anchor="middle" x="414.5" y="-580.1" font-family="Helvetica,sans-Serif" font-size="8.00">C&#45;0485</text>
</g>
<!-- S&#45;1064 -->
<g id="node4" class="node">
<title>S&#45;1064</title>
<polygon fill="mediumseagreen" stroke="black" points="68.5,-506 0,-488 68.5,-470 137,-488 68.5,-506"/>
<text text-anchor="middle" x="68.5" y="-486.1" font-family="Helvetica,sans-Serif" font-size="8.00">S&#45;1064</text>
</g>
<!-- C&#45;0485&#45;&gt;S&#45;1064 -->
<g id="edge7" class="edge">
<title>C&#45;0485&#45;&gt;S&#45;1064</title>
<path fill="none" stroke="dimgray" stroke-width="0.8" d="M349.83,-588C249.68,-588 68.5,-588 68.5,-588 68.5,-588 68.5,-513.34 68.5,-513.34"/>
<polygon fill="dimgray" stroke="dimgray" stroke-width="0.8" points="70.95,-513.34 68.5,-506.34 66.05,-513.34 70.95,-513.34"/>
</g>
<!-- S&#45;1631 -->
<g id="node15" class="node">
<title>S&#45;1631</title>
<polygon fill="mediumseagreen" stroke="black" points="241.5,-506 173,-488 241.5,-470 310,-488 241.5,-506"/>
<text text-anchor="middle" x="241.5" y="-486.1" font-family="Helvetica,sans-Serif" font-size="8.00">S&#45;1631</text>
</g>
<!-- C&#45;0485&#45;&gt;S&#45;1631 -->
<g id="edge8" class="edge">
<title>C&#45;0485&#45;&gt;S&#45;1631</title>
<path fill="none" stroke="dimgray" stroke-width="0.8" d="M349.59,-576C300.5,-576 241.5,-576 241.5,-576 241.5,-576 241.5,-513.23 241.5,-513.23"/>
<polygon fill="dimgray" stroke="dimgray" stroke-width="0.8" points="243.95,-513.23 241.5,-506.23 239.05,-513.23 243.95,-513.23"/>
</g>
<!-- S&#45;167 -->
<g id="node16" class="node">
<title>S&#45;167</title>
<polygon fill="mediumseagreen" stroke="black" points="414.5,-506 346,-488 414.5,-470 483,-488 414.5,-506"/>
<text text-anchor="middle" x="414.5" y="-486.1" font-family="Helvetica,sans-Serif" font-size="8.00">S&#45;167</text>
</g>
<!-- C&#45;0485&#45;&gt;S&#45;167 -->
<g id="edge10" class="edge">
<title>C&#45;0485&#45;&gt;S&#45;167</title>
<path fill="none" stroke="dimgray" stroke-width="0.8" d="M414.5,-563.88C414.5,-563.88 414.5,-513.07 414.5,-513.07"/>
<polygon fill="dimgray" stroke="dimgray" stroke-width="0.8" points="416.95,-513.07 414.5,-506.07 412.05,-513.07 416.95,-513.07"/>
</g>
<!-- C&#45;0431 -->
<g id="node22" class="node">
<title>C&#45;0431</title>
<ellipse fill="mediumseagreen" stroke="black" cx="587.5" cy="-488" rx="68.5" ry="18"/>
<text text-anchor="middle" x="587.5" y="-486.1" font-family="Helvetica,sans-Serif" font-size="8.00">C&#45;0431</text>
</g>
<!-- C&#45;0485&#45;&gt;C&#45;0431 -->
<g id="edge11" class="edge">
<title>C&#45;0485&#45;&gt;C&#45;0431</title>
<path fill="none" stroke="dimgray" stroke-width="0.8" d="M479.27,-576C516.72,-576 556.5,-576 556.5,-576 556.5,-576 556.5,-511.14 556.5,-511.14"/>
<polygon fill="dimgray" stroke="dimgray" stroke-width="0.8" points="558.95,-511.14 556.5,-504.14 554.05,-511.14 558.95,-511.14"/>
</g>
<!-- S&#45;2429 -->
<g id="node30" class="node">
<title>S&#45;2429</title>
<polygon fill="mediumseagreen" stroke="black" points="760.5,-506 692,-488 760.5,-470 829,-488 760.5,-506"/>
<text text-anchor="middle" x="760.5" y="-486.1" font-family="Helvetica,sans-Serif" font-size="8.00">S&#45;2429</text>
</g>
<!-- C&#45;0485&#45;&gt;S&#45;2429 -->
<g id="edge9" class="edge">
<title>C&#45;0485&#45;&gt;S&#45;2429</title>
<path fill="none" stroke="dimgray" stroke-width="0.8" d="M479.13,-588C568.12,-588 717.5,-588 717.5,-588 717.5,-588 717.5,-501.87 717.5,-501.87"/>
<polygon fill="dimgray" stroke="dimgray" stroke-width="0.8" points="719.95,-501.87 717.5,-494.87 715.05,-501.87 719.95,-501.87"/>
</g>
<!-- S&#45;2185 -->
<g id="node2" class="node">
<title>S&#45;2185</title>
<polygon fill="mediumseagreen" stroke="black" points="1106.5,-506 1038,-488 1106.5,-470 1175,-488 1106.5,-506"/>
<text text-anchor="middle" x="1106.5" y="-486.1" font-family="Helvetica,sans-Serif" font-size="8.00">S&#45;2185</text>
</g>
<!-- R&#45;063 -->
<g id="node3" class="node">
<title>R&#45;063</title>
<polygon fill="mediumseagreen" stroke="black" points="743,-762.54 743,-777.46 702.87,-788 646.13,-788 606,-777.46 606,-762.54 646.13,-752 702.87,-752 743,-762.54"/>
<text text-anchor="middle" x="674.5" y="-768.1" font-family="Helvetica,sans-Serif" font-size="8.00">R&#45;063</text>
</g>
<!-- C&#45;0443 -->
<g id="node28" class="node">
<title>C&#45;0443</title>
<ellipse fill="mediumseagreen" stroke="black" cx="525.5" cy="-676" rx="68.5" ry="18"/>
<text text-anchor="middle" x="525.5" y="-674.1" font-family="Helvetica,sans-Serif" font-size="8.00">C&#45;0443</text>
</g>
<!-- R&#45;063&#45;&gt;C&#45;0443 -->
<g id="edge5" class="edge">
<title>R&#45;063&#45;&gt;C&#45;0443</title>
<path fill="none" stroke="dimgray" stroke-width="0.8" d="M605.94,-770C588.7,-770 575,-770 575,-770 575,-770 575,-695.68 575,-695.68"/>
<polygon fill="dimgray" stroke="dimgray" stroke-width="0.8" points="577.45,-695.68 575,-688.68 572.55,-695.68 577.45,-695.68"/>
</g>
<!-- S&#45;2320 -->
<g id="node5" class="node">
<title>S&#45;2320</title>
<polygon fill="mediumseagreen" stroke="black" points="1192.5,-412 1124,-394 1192.5,-376 1261,-394 1192.5,-412"/>
<text text-anchor="middle" x="1192.5" y="-392.1" font-family="Helvetica,sans-Serif" font-size="8.00">S&#45;2320</text>
</g>
<!-- C&#45;0907 -->
<g id="node6" class="node">
<title>C&#45;0907</title>
<ellipse fill="mediumseagreen" stroke="black" cx="970.5" cy="-676" rx="68.5" ry="18"/>
<text text-anchor="middle" x="970.5" y="-674.1" font-family="Helvetica,sans-Serif" font-size="8.00">C&#45;0907</text>
</g>
<!-- C&#45;0339 -->
<g id="node24" class="node">
<title>C&#45;0339</title>
<ellipse fill="mediumseagreen" stroke="black" cx="970.5" cy="-582" rx="68.5" ry="18"/>
<text text-anchor="middle" x="970.5" y="-580.1" font-family="Helvetica,sans-Serif" font-size="8.00">C&#45;0339</text>
</g>
<!-- C&#45;0907&#45;&gt;C&#45;0339 -->
<g id="edge24" class="edge">
<title>C&#45;0907&#45;&gt;C&#45;0339</title>
<path fill="none" stroke="dimgray" stroke-width="0.8" d="M970.5,-657.88C970.5,-657.88 970.5,-607.07 970.5,-607.07"/>
<polygon fill="dimgray" stroke="dimgray" stroke-width="0.8" points="972.95,-607.07 970.5,-600.07 968.05,-607.07 972.95,-607.07"/>
</g>
<!-- C&#45;0878 -->
<g id="node7" class="node">
<title>C&#45;0878</title>
<ellipse fill="mediumseagreen" stroke="black" cx="501.5" cy="-394" rx="68.5" ry="18"/>
<text text-anchor="middle" x="501.5" y="-392.1" font-family="Helvetica,sans-Serif" font-size="8.00">C&#45;0878</text>
</g>
<!-- R&#45;203 -->
<g id="node19" class="node">
<title>R&#45;203</title>
<polygon fill="mediumseagreen" stroke="black" points="570,-292.54 570,-307.46 529.87,-318 473.13,-318 433,-307.46 433,-292.54 473.13,-282 529.87,-282 570,-292.54"/>
<text text-anchor="middle" x="501.5" y="-298.1" font-family="Helvetica,sans-Serif" font-size="8.00">R&#45;203</text>
</g>
<!-- C&#45;0878&#45;&gt;R&#45;203 -->
<g id="edge14" class="edge">
<title>C&#45;0878&#45;&gt;R&#45;203</title>
<path fill="none" stroke="dimgray" stroke-width="0.8" d="M501.5,-375.88C501.5,-375.88 501.5,-325.07 501.5,-325.07"/>
<polygon fill="dimgray" stroke="dimgray" stroke-width="0.8" points="503.95,-325.07 501.5,-318.07 499.05,-325.07 503.95,-325.07"/>
</g>
<!-- S&#45;949 -->
<g id="node8" class="node">
<title>S&#45;949</title>
<polygon fill="mediumseagreen" stroke="black" points="415.5,-130 347,-112 415.5,-94 484,-112 415.5,-130"/>
<text text-anchor="middle" x="415.5" y="-110.1" font-family="Helvetica,sans-Serif" font-size="8.00">S&#45;949</text>
</g>
<!-- C&#45;0152 -->
<g id="node9" class="node">
<title>C&#45;0152</title>
<ellipse fill="mediumseagreen" stroke="black" cx="1365.5" cy="-394" rx="68.5" ry="18"/>
<text text-anchor="middle" x="1365.5" y="-392.1" font-family="Helvetica,sans-Serif" font-size="8.00">C&#45;0152</text>
</g>
<!-- C&#45;1219 -->
<g id="node13" class="node">
<title>C&#45;1219</title>
<ellipse fill="mediumseagreen" stroke="black" cx="1365.5" cy="-300" rx="68.5" ry="18"/>
<text text-anchor="middle" x="1365.5" y="-298.1" font-family="Helvetica,sans-Serif" font-size="8.00">C&#45;1219</text>
</g>
<!-- C&#45;0152&#45;&gt;C&#45;1219 -->
<g id="edge29" class="edge">
<title>C&#45;0152&#45;&gt;C&#45;1219</title>
<path fill="none" stroke="dimgray" stroke-width="0.8" d="M1365.5,-375.88C1365.5,-375.88 1365.5,-325.07 1365.5,-325.07"/>
<polygon fill="dimgray" stroke="dimgray" stroke-width="0.8" points="1367.95,-325.07 1365.5,-318.07 1363.05,-325.07 1367.95,-325.07"/>
</g>
<!-- C&#45;0799 -->
<g id="node10" class="node">
<title>C&#45;0799</title>
<ellipse fill="mediumseagreen" stroke="black" cx="588.5" cy="-18" rx="68.5" ry="18"/>
<text text-anchor="middle" x="588.5" y="-16.1" font-family="Helvetica,sans-Serif" font-size="8.00">C&#45;0799</text>
</g>
<!-- C&#45;0879 -->
<g id="node11" class="node">
<title>C&#45;0879</title>
<ellipse fill="tomato" stroke="black" cx="674.5" cy="-394" rx="68.5" ry="18"/>
<text text-anchor="middle" x="674.5" y="-392.1" font-family="Helvetica,sans-Serif" font-size="8.00">C&#45;0879</text>
</g>
<!-- C&#45;0880 -->
<g id="node29" class="node">
<title>C&#45;0880</title>
<ellipse fill="mediumseagreen" stroke="black" cx="501.5" cy="-206" rx="68.5" ry="18"/>
<text text-anchor="middle" x="501.5" y="-204.1" font-family="Helvetica,sans-Serif" font-size="8.00">C&#45;0880</text>
</g>
<!-- C&#45;0879&#45;&gt;C&#45;0880 -->
<g id="edge32" class="edge">
<title>C&#45;0879&#45;&gt;C&#45;0880</title>
<path fill="none" stroke="blue" stroke-width="0.8" stroke-dasharray="5,2" d="M631.5,-379.87C631.5,-336.15 631.5,-206 631.5,-206 631.5,-206 577.31,-206 577.31,-206"/>
<polygon fill="blue" stroke="blue" stroke-width="0.8" points="577.31,-203.55 570.31,-206 577.31,-208.45 577.31,-203.55"/>
</g>
<!-- C&#45;0444 -->
<g id="node12" class="node">
<title>C&#45;0444</title>
<ellipse fill="tomato" stroke="black" cx="451.5" cy="-864" rx="68.5" ry="18"/>
<text text-anchor="middle" x="451.5" y="-862.1" font-family="Helvetica,sans-Serif" font-size="8.00">C&#45;0444</text>
</g>
<!-- C&#45;0444&#45;&gt;C&#45;0443 -->
<g id="edge31" class="edge">
<title>C&#45;0444&#45;&gt;C&#45;0443</title>
<path fill="none" stroke="blue" stroke-width="0.8" stroke-dasharray="5,2" d="M488.5,-848.62C488.5,-848.62 488.5,-698.33 488.5,-698.33"/>
<polygon fill="blue" stroke="blue" stroke-width="0.8" points="490.95,-698.33 488.5,-691.33 486.05,-698.33 490.95,-698.33"/>
</g>
<!-- 110&#45;26&#45; -->
<g id="node14" class="node">
<title>110&#45;26&#45;</title>
<polygon fill="gold" stroke="black" points="866,-1048.54 866,-1063.46 825.87,-1074 769.13,-1074 729,-1063.46 729,-1048.54 769.13,-1038 825.87,-1038 866,-1048.54"/>
<polygon fill="none" stroke="black" points="870,-1045.46 870,-1066.54 826.39,-1078 768.61,-1078 725,-1066.54 725,-1045.46 768.61,-1034 826.39,-1034 870,-1045.46"/>
<text text-anchor="middle" x="797.5" y="-1054.1" font-family="Helvetica,sans-Serif" font-size="8.00">110&#45;26&#45;</text>
</g>
<!-- C&#45;0090 -->
<g id="node31" class="node">
<title>C&#45;0090</title>
<ellipse fill="mediumseagreen" stroke="black" cx="797.5" cy="-958" rx="68.5" ry="18"/>
<text text-anchor="middle" x="797.5" y="-956.1" font-family="Helvetica,sans-Serif" font-size="8.00">C&#45;0090</text>
</g>
<!-- 110&#45;26&#45;&#45;&gt;C&#45;0090 -->
<g id="edge1" class="edge">
<title>110&#45;26&#45;&#45;&gt;C&#45;0090</title>
<path fill="none" stroke="dimgray" stroke-width="0.8" d="M797.5,-1033.76C797.5,-1033.76 797.5,-983.21 797.5,-983.21"/>
<polygon fill="dimgray" stroke="dimgray" stroke-width="0.8" points="799.95,-983.21 797.5,-976.21 795.05,-983.21 799.95,-983.21"/>
</g>
<!-- C&#45;0097 -->
<g id="node17" class="node">
<title>C&#45;0097</title>
<ellipse fill="tomato" stroke="black" cx="933.5" cy="-488" rx="68.5" ry="18"/>
<text text-anchor="middle" x="933.5" y="-486.1" font-family="Helvetica,sans-Serif" font-size="8.00">C&#45;0097</text>
</g>
<!-- ext_circ_110_23_ -->
<g id="node32" class="node">
<title>ext_circ_110_23_</title>
<polygon fill="lightpink" stroke="red" stroke-dasharray="5,2" points="543,-1074 406,-1074 406,-1038 543,-1038 543,-1074"/>
<text text-anchor="middle" x="474.5" y="-1058.6" font-family="Helvetica,sans-Serif" font-size="8.00">Circuito:</text>
<text text-anchor="middle" x="474.5" y="-1049.6" font-family="Helvetica,sans-Serif" font-size="8.00">110&#45;23&#45;</text>
</g>
<!-- C&#45;0097&#45;&gt;ext_circ_110_23_ -->
<g id="edge34" class="edge">
<title>C&#45;0097&#45;&gt;ext_circ_110_23_</title>
<path fill="none" stroke="red" stroke-width="0.8" stroke-dasharray="5,2" d="M886,-501.31C886,-551.02 886,-723 886,-723 886,-723 531.5,-723 531.5,-723 531.5,-723 531.5,-1030.62 531.5,-1030.62"/>
<polygon fill="red" stroke="red" stroke-width="0.8" points="529.05,-1030.62 531.5,-1037.62 533.95,-1030.62 529.05,-1030.62"/>
</g>
<!-- C&#45;0450 -->
<g id="node18" class="node">
<title>C&#45;0450</title>
<ellipse fill="mediumseagreen" stroke="black" cx="588.5" cy="-112" rx="68.5" ry="18"/>
<text text-anchor="middle" x="588.5" y="-110.1" font-family="Helvetica,sans-Serif" font-size="8.00">C&#45;0450</text>
</g>
<!-- C&#45;0450&#45;&gt;C&#45;0799 -->
<g id="edge18" class="edge">
<title>C&#45;0450&#45;&gt;C&#45;0799</title>
<path fill="none" stroke="dimgray" stroke-width="0.8" d="M588.5,-93.88C588.5,-93.88 588.5,-43.07 588.5,-43.07"/>
<polygon fill="dimgray" stroke="dimgray" stroke-width="0.8" points="590.95,-43.07 588.5,-36.07 586.05,-43.07 590.95,-43.07"/>
</g>
<!-- R&#45;203&#45;&gt;C&#45;0880 -->
<g id="edge15" class="edge">
<title>R&#45;203&#45;&gt;C&#45;0880</title>
<path fill="none" stroke="dimgray" stroke-width="0.8" d="M501.5,-281.88C501.5,-281.88 501.5,-231.07 501.5,-231.07"/>
<polygon fill="dimgray" stroke="dimgray" stroke-width="0.8" points="503.95,-231.07 501.5,-224.07 499.05,-231.07 503.95,-231.07"/>
</g>
<!-- S&#45;151 -->
<g id="node20" class="node">
<title>S&#45;151</title>
<polygon fill="mediumseagreen" stroke="black" points="624.5,-882 556,-864 624.5,-846 693,-864 624.5,-882"/>
<text text-anchor="middle" x="624.5" y="-862.1" font-family="Helvetica,sans-Serif" font-size="8.00">S&#45;151</text>
</g>
<!-- C&#45;0430 -->
<g id="node21" class="node">
<title>C&#45;0430</title>
<ellipse fill="mediumseagreen" stroke="black" cx="1279.5" cy="-488" rx="68.5" ry="18"/>
<text text-anchor="middle" x="1279.5" y="-486.1" font-family="Helvetica,sans-Serif" font-size="8.00">C&#45;0430</text>
</g>
<!-- C&#45;0430&#45;&gt;S&#45;2320 -->
<g id="edge27" class="edge">
<title>C&#45;0430&#45;&gt;S&#45;2320</title>
<path fill="none" stroke="dimgray" stroke-width="0.8" d="M1236,-473.72C1236,-473.72 1236,-407.83 1236,-407.83"/>
<polygon fill="dimgray" stroke="dimgray" stroke-width="0.8" points="1238.45,-407.83 1236,-400.83 1233.55,-407.83 1238.45,-407.83"/>
</g>
<!-- C&#45;0430&#45;&gt;C&#45;0152 -->
<g id="edge28" class="edge">
<title>C&#45;0430&#45;&gt;C&#45;0152</title>
<path fill="none" stroke="dimgray" stroke-width="0.8" d="M1322.5,-473.72C1322.5,-473.72 1322.5,-415.1 1322.5,-415.1"/>
<polygon fill="dimgray" stroke="dimgray" stroke-width="0.8" points="1324.95,-415.1 1322.5,-408.1 1320.05,-415.1 1324.95,-415.1"/>
</g>
<!-- C&#45;0431&#45;&gt;C&#45;0878 -->
<g id="edge12" class="edge">
<title>C&#45;0431&#45;&gt;C&#45;0878</title>
<path fill="none" stroke="dimgray" stroke-width="0.8" d="M544.5,-473.72C544.5,-473.72 544.5,-415.1 544.5,-415.1"/>
<polygon fill="dimgray" stroke="dimgray" stroke-width="0.8" points="546.95,-415.1 544.5,-408.1 542.05,-415.1 546.95,-415.1"/>
</g>
<!-- C&#45;0431&#45;&gt;C&#45;0879 -->
<g id="edge13" class="edge">
<title>C&#45;0431&#45;&gt;C&#45;0879</title>
<path fill="none" stroke="dimgray" stroke-width="0.8" d="M631,-473.72C631,-473.72 631,-415.1 631,-415.1"/>
<polygon fill="dimgray" stroke="dimgray" stroke-width="0.8" points="633.45,-415.1 631,-408.1 628.55,-415.1 633.45,-415.1"/>
</g>
<!-- R&#45;211 -->
<g id="node23" class="node">
<title>R&#45;211</title>
<polygon fill="mediumseagreen" stroke="black" points="1039,-762.54 1039,-777.46 998.87,-788 942.13,-788 902,-777.46 902,-762.54 942.13,-752 998.87,-752 1039,-762.54"/>
<text text-anchor="middle" x="970.5" y="-768.1" font-family="Helvetica,sans-Serif" font-size="8.00">R&#45;211</text>
</g>
<!-- R&#45;211&#45;&gt;C&#45;0907 -->
<g id="edge23" class="edge">
<title>R&#45;211&#45;&gt;C&#45;0907</title>
<path fill="none" stroke="dimgray" stroke-width="0.8" d="M970.5,-751.88C970.5,-751.88 970.5,-701.07 970.5,-701.07"/>
<polygon fill="dimgray" stroke="dimgray" stroke-width="0.8" points="972.95,-701.07 970.5,-694.07 968.05,-701.07 972.95,-701.07"/>
</g>
<!-- C&#45;0339&#45;&gt;S&#45;2185 -->
<g id="edge30" class="edge">
<title>C&#45;0339&#45;&gt;S&#45;2185</title>
<path fill="none" stroke="dimgray" stroke-width="0.8" d="M1020,-569.32C1020,-543.66 1020,-488 1020,-488 1020,-488 1030.92,-488 1030.92,-488"/>
<polygon fill="dimgray" stroke="dimgray" stroke-width="0.8" points="1030.92,-490.45 1037.92,-488 1030.92,-485.55 1030.92,-490.45"/>
</g>
<!-- C&#45;0339&#45;&gt;C&#45;0097 -->
<g id="edge25" class="edge">
<title>C&#45;0339&#45;&gt;C&#45;0097</title>
<path fill="none" stroke="dimgray" stroke-width="0.8" d="M952,-564.32C952,-564.32 952,-512.6 952,-512.6"/>
<polygon fill="dimgray" stroke="dimgray" stroke-width="0.8" points="954.45,-512.6 952,-505.6 949.55,-512.6 954.45,-512.6"/>
</g>
<!-- C&#45;0339&#45;&gt;C&#45;0430 -->
<g id="edge26" class="edge">
<title>C&#45;0339&#45;&gt;C&#45;0430</title>
<path fill="none" stroke="dimgray" stroke-width="0.8" d="M1039.19,-582C1130.37,-582 1280,-582 1280,-582 1280,-582 1280,-513.12 1280,-513.12"/>
<polygon fill="dimgray" stroke="dimgray" stroke-width="0.8" points="1282.45,-513.12 1280,-506.12 1277.55,-513.12 1282.45,-513.12"/>
</g>
<!-- C&#45;0445 -->
<g id="node25" class="node">
<title>C&#45;0445</title>
<ellipse fill="mediumseagreen" stroke="black" cx="797.5" cy="-864" rx="68.5" ry="18"/>
<text text-anchor="middle" x="797.5" y="-862.1" font-family="Helvetica,sans-Serif" font-size="8.00">C&#45;0445</text>
</g>
<!-- C&#45;0445&#45;&gt;R&#45;063 -->
<g id="edge4" class="edge">
<title>C&#45;0445&#45;&gt;R&#45;063</title>
<path fill="none" stroke="dimgray" stroke-width="0.8" d="M736,-855.99C736,-855.99 736,-786.37 736,-786.37"/>
<polygon fill="dimgray" stroke="dimgray" stroke-width="0.8" points="738.45,-786.37 736,-779.37 733.55,-786.37 738.45,-786.37"/>
</g>
<!-- C&#45;0905 -->
<g id="node26" class="node">
<title>C&#45;0905</title>
<ellipse fill="mediumseagreen" stroke="black" cx="970.5" cy="-864" rx="68.5" ry="18"/>
<text text-anchor="middle" x="970.5" y="-862.1" font-family="Helvetica,sans-Serif" font-size="8.00">C&#45;0905</text>
</g>
<!-- C&#45;0905&#45;&gt;R&#45;211 -->
<g id="edge22" class="edge">
<title>C&#45;0905&#45;&gt;R&#45;211</title>
<path fill="none" stroke="dimgray" stroke-width="0.8" d="M970.5,-845.88C970.5,-845.88 970.5,-795.07 970.5,-795.07"/>
<polygon fill="dimgray" stroke="dimgray" stroke-width="0.8" points="972.95,-795.07 970.5,-788.07 968.05,-795.07 972.95,-795.07"/>
</g>
<!-- C&#45;0906 -->
<g id="node27" class="node">
<title>C&#45;0906</title>
<ellipse fill="tomato" stroke="black" cx="1143.5" cy="-864" rx="68.5" ry="18"/>
<text text-anchor="middle" x="1143.5" y="-862.1" font-family="Helvetica,sans-Serif" font-size="8.00">C&#45;0906</text>
</g>
<!-- C&#45;0906&#45;&gt;C&#45;0907 -->
<g id="edge33" class="edge">
<title>C&#45;0906&#45;&gt;C&#45;0907</title>
<path fill="none" stroke="blue" stroke-width="0.8" stroke-dasharray="5,2" d="M1125,-846.65C1125,-800.11 1125,-676 1125,-676 1125,-676 1046.17,-676 1046.17,-676"/>
<polygon fill="blue" stroke="blue" stroke-width="0.8" points="1046.17,-673.55 1039.17,-676 1046.17,-678.45 1046.17,-673.55"/>
</g>
<!-- C&#45;0443&#45;&gt;C&#45;0485 -->
<g id="edge6" class="edge">
<title>C&#45;0443&#45;&gt;C&#45;0485</title>
<path fill="none" stroke="dimgray" stroke-width="0.8" d="M470,-665.22C470,-665.22 470,-599.66 470,-599.66"/>
<polygon fill="dimgray" stroke="dimgray" stroke-width="0.8" points="472.45,-599.66 470,-592.66 467.55,-599.66 472.45,-599.66"/>
</g>
<!-- C&#45;0880&#45;&gt;S&#45;949 -->
<g id="edge16" class="edge">
<title>C&#45;0880&#45;&gt;S&#45;949</title>
<path fill="none" stroke="dimgray" stroke-width="0.8" d="M458.5,-191.72C458.5,-191.72 458.5,-125.83 458.5,-125.83"/>
<polygon fill="dimgray" stroke="dimgray" stroke-width="0.8" points="460.95,-125.83 458.5,-118.83 456.05,-125.83 460.95,-125.83"/>
</g>
<!-- C&#45;0880&#45;&gt;C&#45;0450 -->
<g id="edge17" class="edge">
<title>C&#45;0880&#45;&gt;C&#45;0450</title>
<path fill="none" stroke="dimgray" stroke-width="0.8" d="M545,-191.72C545,-191.72 545,-133.1 545,-133.1"/>
<polygon fill="dimgray" stroke="dimgray" stroke-width="0.8" points="547.45,-133.1 545,-126.1 542.55,-133.1 547.45,-133.1"/>
</g>
<!-- C&#45;0090&#45;&gt;C&#45;0444 -->
<g id="edge2" class="edge">
<title>C&#45;0090&#45;&gt;C&#45;0444</title>
<path fill="none" stroke="dimgray" stroke-width="0.8" d="M732.61,-964C635.33,-964 463,-964 463,-964 463,-964 463,-888.88 463,-888.88"/>
<polygon fill="dimgray" stroke="dimgray" stroke-width="0.8" points="465.45,-888.88 463,-881.88 460.55,-888.88 465.45,-888.88"/>
</g>
<!-- C&#45;0090&#45;&gt;S&#45;151 -->
<g id="edge19" class="edge">
<title>C&#45;0090&#45;&gt;S&#45;151</title>
<path fill="none" stroke="dimgray" stroke-width="0.8" d="M732.59,-952C683.5,-952 624.5,-952 624.5,-952 624.5,-952 624.5,-889.23 624.5,-889.23"/>
<polygon fill="dimgray" stroke="dimgray" stroke-width="0.8" points="626.95,-889.23 624.5,-882.23 622.05,-889.23 626.95,-889.23"/>
</g>
<!-- C&#45;0090&#45;&gt;C&#45;0445 -->
<g id="edge3" class="edge">
<title>C&#45;0090&#45;&gt;C&#45;0445</title>
<path fill="none" stroke="dimgray" stroke-width="0.8" d="M797.5,-939.88C797.5,-939.88 797.5,-889.07 797.5,-889.07"/>
<polygon fill="dimgray" stroke="dimgray" stroke-width="0.8" points="799.95,-889.07 797.5,-882.07 795.05,-889.07 799.95,-889.07"/>
</g>
<!-- C&#45;0090&#45;&gt;C&#45;0905 -->
<g id="edge20" class="edge">
<title>C&#45;0090&#45;&gt;C&#45;0905</title>
<path fill="none" stroke="dimgray" stroke-width="0.8" d="M862.41,-952C911.5,-952 970.5,-952 970.5,-952 970.5,-952 970.5,-889.23 970.5,-889.23"/>
<polygon fill="dimgray" stroke="dimgray" stroke-width="0.8" points="972.95,-889.23 970.5,-882.23 968.05,-889.23 972.95,-889.23"/>
</g>
<!-- C&#45;0090&#45;&gt;C&#45;0906 -->
<g id="edge21" class="edge">
<title>C&#45;0090&#45;&gt;C&#45;0906</title>
<path fill="none" stroke="dimgray" stroke-width="0.8" d="M862.17,-964C962.32,-964 1143.5,-964 1143.5,-964 1143.5,-964 1143.5,-889.34 1143.5,-889.34"/>
<polygon fill="dimgray" stroke="dimgray" stroke-width="0.8" points="1145.95,-889.34 1143.5,-882.34 1141.05,-889.34 1145.95,-889.34"/>
</g>
</g>
</svg>
