<?xml version="1.0" encoding="UTF-8" standalone="no"?>
<!DOCTYPE svg PUBLIC "-//W3C//DTD SVG 1.1//EN"
 "http://www.w3.org/Graphics/SVG/1.1/DTD/svg11.dtd">
<!-- Generated by graphviz version 2.50.0 (0)
 -->
<!-- Title: Grafo_Circuito_113_23_ Pages: 1 -->
<svg width="2590pt" height="1473pt"
 viewBox="0.00 0.00 2590.00 1473.00" xmlns="http://www.w3.org/2000/svg" xmlns:xlink="http://www.w3.org/1999/xlink">
<g id="graph0" class="graph" transform="scale(1 1) rotate(0) translate(4 1469)">
<title>Grafo_Circuito_113_23_</title>
<polygon fill="white" stroke="transparent" points="-4,4 -4,-1469 2586,-1469 2586,4 -4,4"/>
<!-- S&#45;041 -->
<g id="node1" class="node">
<title>S&#45;041</title>
<polygon fill="mediumseagreen" stroke="black" points="949,-1154 877,-1132.5 949,-1111 1021,-1132.5 949,-1154"/>
<text text-anchor="middle" x="949" y="-1130" font-family="Arial" font-size="10.00">S&#45;041</text>
</g>
<!-- C&#45;1224 -->
<g id="node2" class="node">
<title>C&#45;1224</title>
<ellipse fill="tomato" stroke="black" cx="1152" cy="-425.5" rx="72" ry="21.5"/>
<text text-anchor="middle" x="1152" y="-423" font-family="Arial" font-size="10.00">C&#45;1224</text>
</g>
<!-- ext_circ_109_25_ -->
<g id="node58" class="node">
<title>ext_circ_109_25_</title>
<polygon fill="lightpink" stroke="darkorange" stroke-dasharray="5,2" points="1314,-346 1170,-346 1170,-303 1314,-303 1314,-346"/>
<text text-anchor="middle" x="1242" y="-327.5" font-family="Arial" font-size="10.00">Circuito:</text>
<text text-anchor="middle" x="1242" y="-316.5" font-family="Arial" font-size="10.00">109&#45;25&#45;</text>
</g>
<!-- C&#45;1224&#45;&gt;ext_circ_109_25_ -->
<g id="edge59" class="edge">
<title>C&#45;1224&#45;&gt;ext_circ_109_25_</title>
<path fill="none" stroke="darkorange" stroke-dasharray="5,2" d="M1197,-408.37C1197,-408.37 1197,-353.31 1197,-353.31"/>
<polygon fill="darkorange" stroke="darkorange" points="1199.45,-353.31 1197,-346.31 1194.55,-353.31 1199.45,-353.31"/>
</g>
<!-- S&#45;107 -->
<g id="node3" class="node">
<title>S&#45;107</title>
<polygon fill="mediumseagreen" stroke="black" points="792,-245 720,-223.5 792,-202 864,-223.5 792,-245"/>
<text text-anchor="middle" x="792" y="-221" font-family="Arial" font-size="10.00">S&#45;107</text>
</g>
<!-- C&#45;0292 -->
<g id="node4" class="node">
<title>C&#45;0292</title>
<ellipse fill="mediumseagreen" stroke="black" cx="972" cy="-728.5" rx="72" ry="21.5"/>
<text text-anchor="middle" x="972" y="-726" font-family="Arial" font-size="10.00">C&#45;0292</text>
</g>
<!-- C&#45;1041 -->
<g id="node17" class="node">
<title>C&#45;1041</title>
<ellipse fill="tomato" stroke="black" cx="792" cy="-627.5" rx="72" ry="21.5"/>
<text text-anchor="middle" x="792" y="-625" font-family="Arial" font-size="10.00">C&#45;1041</text>
</g>
<!-- C&#45;0292&#45;&gt;C&#45;1041 -->
<g id="edge23" class="edge">
<title>C&#45;0292&#45;&gt;C&#45;1041</title>
<path fill="none" stroke="#4d4d4d" d="M899.76,-728C892.94,-728 888.5,-728 888.5,-728 888.5,-728 888.5,-627 888.5,-627 888.5,-627 871.15,-627 871.15,-627"/>
<polygon fill="#4d4d4d" stroke="#4d4d4d" points="871.15,-624.55 864.15,-627 871.15,-629.45 871.15,-624.55"/>
</g>
<!-- C&#45;1042 -->
<g id="node29" class="node">
<title>C&#45;1042</title>
<ellipse fill="mediumseagreen" stroke="black" cx="972" cy="-627.5" rx="72" ry="21.5"/>
<text text-anchor="middle" x="972" y="-625" font-family="Arial" font-size="10.00">C&#45;1042</text>
</g>
<!-- C&#45;0292&#45;&gt;C&#45;1042 -->
<g id="edge24" class="edge">
<title>C&#45;0292&#45;&gt;C&#45;1042</title>
<path fill="none" stroke="#4d4d4d" d="M972,-706.58C972,-706.58 972,-656.03 972,-656.03"/>
<polygon fill="#4d4d4d" stroke="#4d4d4d" points="974.45,-656.03 972,-649.03 969.55,-656.03 974.45,-656.03"/>
</g>
<!-- C&#45;0808 -->
<g id="node5" class="node">
<title>C&#45;0808</title>
<ellipse fill="mediumseagreen" stroke="black" cx="1489" cy="-1233.5" rx="72" ry="21.5"/>
<text text-anchor="middle" x="1489" y="-1231" font-family="Arial" font-size="10.00">C&#45;0808</text>
</g>
<!-- C&#45;0808&#45;&gt;S&#45;041 -->
<g id="edge56" class="edge">
<title>C&#45;0808&#45;&gt;S&#45;041</title>
<path fill="none" stroke="#4d4d4d" d="M1426,-1244C1283.55,-1244 949,-1244 949,-1244 949,-1244 949,-1161.26 949,-1161.26"/>
<polygon fill="#4d4d4d" stroke="#4d4d4d" points="951.45,-1161.26 949,-1154.26 946.55,-1161.26 951.45,-1161.26"/>
</g>
<!-- C&#45;0523 -->
<g id="node13" class="node">
<title>C&#45;0523</title>
<ellipse fill="mediumseagreen" stroke="black" cx="1129" cy="-1132.5" rx="72" ry="21.5"/>
<text text-anchor="middle" x="1129" y="-1130" font-family="Arial" font-size="10.00">C&#45;0523</text>
</g>
<!-- C&#45;0808&#45;&gt;C&#45;0523 -->
<g id="edge6" class="edge">
<title>C&#45;0808&#45;&gt;C&#45;0523</title>
<path fill="none" stroke="#4d4d4d" d="M1417.01,-1233C1311.96,-1233 1129,-1233 1129,-1233 1129,-1233 1129,-1161.31 1129,-1161.31"/>
<polygon fill="#4d4d4d" stroke="#4d4d4d" points="1131.45,-1161.31 1129,-1154.31 1126.55,-1161.31 1131.45,-1161.31"/>
</g>
<!-- S&#45;1787 -->
<g id="node19" class="node">
<title>S&#45;1787</title>
<polygon fill="mediumseagreen" stroke="black" points="1309,-1154 1237,-1132.5 1309,-1111 1381,-1132.5 1309,-1154"/>
<text text-anchor="middle" x="1309" y="-1130" font-family="Arial" font-size="10.00">S&#45;1787</text>
</g>
<!-- C&#45;0808&#45;&gt;S&#45;1787 -->
<g id="edge4" class="edge">
<title>C&#45;0808&#45;&gt;S&#45;1787</title>
<path fill="none" stroke="#4d4d4d" d="M1428.06,-1222C1375.84,-1222 1309,-1222 1309,-1222 1309,-1222 1309,-1161.17 1309,-1161.17"/>
<polygon fill="#4d4d4d" stroke="#4d4d4d" points="1311.45,-1161.17 1309,-1154.17 1306.55,-1161.17 1311.45,-1161.17"/>
</g>
<!-- C&#45;0398 -->
<g id="node22" class="node">
<title>C&#45;0398</title>
<ellipse fill="tomato" stroke="black" cx="1489" cy="-1132.5" rx="72" ry="21.5"/>
<text text-anchor="middle" x="1489" y="-1130" font-family="Arial" font-size="10.00">C&#45;0398</text>
</g>
<!-- C&#45;0808&#45;&gt;C&#45;0398 -->
<g id="edge43" class="edge">
<title>C&#45;0808&#45;&gt;C&#45;0398</title>
<path fill="none" stroke="#4d4d4d" d="M1489,-1211.58C1489,-1211.58 1489,-1161.03 1489,-1161.03"/>
<polygon fill="#4d4d4d" stroke="#4d4d4d" points="1491.45,-1161.03 1489,-1154.03 1486.55,-1161.03 1491.45,-1161.03"/>
</g>
<!-- S&#45;039 -->
<g id="node28" class="node">
<title>S&#45;039</title>
<polygon fill="mediumseagreen" stroke="black" points="1669,-1154 1597,-1132.5 1669,-1111 1741,-1132.5 1669,-1154"/>
<text text-anchor="middle" x="1669" y="-1130" font-family="Arial" font-size="10.00">S&#45;039</text>
</g>
<!-- C&#45;0808&#45;&gt;S&#45;039 -->
<g id="edge3" class="edge">
<title>C&#45;0808&#45;&gt;S&#45;039</title>
<path fill="none" stroke="#4d4d4d" d="M1549.94,-1222C1602.16,-1222 1669,-1222 1669,-1222 1669,-1222 1669,-1161.17 1669,-1161.17"/>
<polygon fill="#4d4d4d" stroke="#4d4d4d" points="1671.45,-1161.17 1669,-1154.17 1666.55,-1161.17 1671.45,-1161.17"/>
</g>
<!-- C&#45;0522 -->
<g id="node35" class="node">
<title>C&#45;0522</title>
<ellipse fill="tomato" stroke="black" cx="1849" cy="-1132.5" rx="72" ry="21.5"/>
<text text-anchor="middle" x="1849" y="-1130" font-family="Arial" font-size="10.00">C&#45;0522</text>
</g>
<!-- C&#45;0808&#45;&gt;C&#45;0522 -->
<g id="edge5" class="edge">
<title>C&#45;0808&#45;&gt;C&#45;0522</title>
<path fill="none" stroke="#4d4d4d" d="M1560.99,-1233C1666.04,-1233 1849,-1233 1849,-1233 1849,-1233 1849,-1161.31 1849,-1161.31"/>
<polygon fill="#4d4d4d" stroke="#4d4d4d" points="1851.45,-1161.31 1849,-1154.31 1846.55,-1161.31 1851.45,-1161.31"/>
</g>
<!-- C&#45;0399 -->
<g id="node53" class="node">
<title>C&#45;0399</title>
<ellipse fill="mediumseagreen" stroke="black" cx="2029" cy="-1132.5" rx="72" ry="21.5"/>
<text text-anchor="middle" x="2029" y="-1130" font-family="Arial" font-size="10.00">C&#45;0399</text>
</g>
<!-- C&#45;0808&#45;&gt;C&#45;0399 -->
<g id="edge42" class="edge">
<title>C&#45;0808&#45;&gt;C&#45;0399</title>
<path fill="none" stroke="#4d4d4d" d="M1552,-1244C1694.45,-1244 2029,-1244 2029,-1244 2029,-1244 2029,-1161.26 2029,-1161.26"/>
<polygon fill="#4d4d4d" stroke="#4d4d4d" points="2031.45,-1161.26 2029,-1154.26 2026.55,-1161.26 2031.45,-1161.26"/>
</g>
<!-- S&#45;2473 -->
<g id="node6" class="node">
<title>S&#45;2473</title>
<polygon fill="mediumseagreen" stroke="black" points="72,-750 0,-728.5 72,-707 144,-728.5 72,-750"/>
<text text-anchor="middle" x="72" y="-726" font-family="Arial" font-size="10.00">S&#45;2473</text>
</g>
<!-- C&#45;0104 -->
<g id="node7" class="node">
<title>C&#45;0104</title>
<ellipse fill="tomato" stroke="black" cx="1804" cy="-829.5" rx="72" ry="21.5"/>
<text text-anchor="middle" x="1804" y="-827" font-family="Arial" font-size="10.00">C&#45;0104</text>
</g>
<!-- ext_circ_113_26_ -->
<g id="node61" class="node">
<title>ext_circ_113_26_</title>
<polygon fill="lightpink" stroke="darkorange" stroke-dasharray="5,2" points="1876,-750 1732,-750 1732,-707 1876,-707 1876,-750"/>
<text text-anchor="middle" x="1804" y="-731.5" font-family="Arial" font-size="10.00">Circuito:</text>
<text text-anchor="middle" x="1804" y="-720.5" font-family="Arial" font-size="10.00">113&#45;26&#45;</text>
</g>
<!-- C&#45;0104&#45;&gt;ext_circ_113_26_ -->
<g id="edge65" class="edge">
<title>C&#45;0104&#45;&gt;ext_circ_113_26_</title>
<path fill="none" stroke="darkorange" stroke-dasharray="5,2" d="M1804,-807.58C1804,-807.58 1804,-757.03 1804,-757.03"/>
<polygon fill="darkorange" stroke="darkorange" points="1806.45,-757.03 1804,-750.03 1801.55,-757.03 1806.45,-757.03"/>
</g>
<!-- R&#45;222 -->
<g id="node8" class="node">
<title>R&#45;222</title>
<polygon fill="mediumseagreen" stroke="black" points="2416,-719.59 2416,-737.41 2373.82,-750 2314.18,-750 2272,-737.41 2272,-719.59 2314.18,-707 2373.82,-707 2416,-719.59"/>
<text text-anchor="middle" x="2344" y="-726" font-family="Arial" font-size="10.00">R&#45;222</text>
</g>
<!-- C&#45;0947 -->
<g id="node11" class="node">
<title>C&#45;0947</title>
<ellipse fill="mediumseagreen" stroke="black" cx="2344" cy="-627.5" rx="72" ry="21.5"/>
<text text-anchor="middle" x="2344" y="-625" font-family="Arial" font-size="10.00">C&#45;0947</text>
</g>
<!-- R&#45;222&#45;&gt;C&#45;0947 -->
<g id="edge51" class="edge">
<title>R&#45;222&#45;&gt;C&#45;0947</title>
<path fill="none" stroke="#4d4d4d" d="M2344,-706.58C2344,-706.58 2344,-656.03 2344,-656.03"/>
<polygon fill="#4d4d4d" stroke="#4d4d4d" points="2346.45,-656.03 2344,-649.03 2341.55,-656.03 2346.45,-656.03"/>
</g>
<!-- C&#45;1040 -->
<g id="node9" class="node">
<title>C&#45;1040</title>
<ellipse fill="mediumseagreen" stroke="black" cx="972" cy="-425.5" rx="72" ry="21.5"/>
<text text-anchor="middle" x="972" y="-423" font-family="Arial" font-size="10.00">C&#45;1040</text>
</g>
<!-- C&#45;0640 -->
<g id="node51" class="node">
<title>C&#45;0640</title>
<ellipse fill="mediumseagreen" stroke="black" cx="972" cy="-324.5" rx="72" ry="21.5"/>
<text text-anchor="middle" x="972" y="-322" font-family="Arial" font-size="10.00">C&#45;0640</text>
</g>
<!-- C&#45;1040&#45;&gt;C&#45;0640 -->
<g id="edge27" class="edge">
<title>C&#45;1040&#45;&gt;C&#45;0640</title>
<path fill="none" stroke="#4d4d4d" d="M972,-403.58C972,-403.58 972,-353.03 972,-353.03"/>
<polygon fill="#4d4d4d" stroke="#4d4d4d" points="974.45,-353.03 972,-346.03 969.55,-353.03 974.45,-353.03"/>
</g>
<!-- S&#45;896 -->
<g id="node10" class="node">
<title>S&#45;896</title>
<polygon fill="mediumseagreen" stroke="black" points="972,-144 900,-122.5 972,-101 1044,-122.5 972,-144"/>
<text text-anchor="middle" x="972" y="-120" font-family="Arial" font-size="10.00">S&#45;896</text>
</g>
<!-- S&#45;1506 -->
<g id="node23" class="node">
<title>S&#45;1506</title>
<polygon fill="mediumseagreen" stroke="black" points="2217,-548 2145,-526.5 2217,-505 2289,-526.5 2217,-548"/>
<text text-anchor="middle" x="2217" y="-524" font-family="Arial" font-size="10.00">S&#45;1506</text>
</g>
<!-- C&#45;0947&#45;&gt;S&#45;1506 -->
<g id="edge52" class="edge">
<title>C&#45;0947&#45;&gt;S&#45;1506</title>
<path fill="none" stroke="#4d4d4d" d="M2280.5,-617.07C2280.5,-617.07 2280.5,-536.33 2280.5,-536.33"/>
<polygon fill="#4d4d4d" stroke="#4d4d4d" points="2282.95,-536.33 2280.5,-529.33 2278.05,-536.33 2282.95,-536.33"/>
</g>
<!-- C&#45;0827 -->
<g id="node24" class="node">
<title>C&#45;0827</title>
<ellipse fill="tomato" stroke="black" cx="2330" cy="-425.5" rx="72" ry="21.5"/>
<text text-anchor="middle" x="2330" y="-423" font-family="Arial" font-size="10.00">C&#45;0827</text>
</g>
<!-- C&#45;0947&#45;&gt;C&#45;0827 -->
<g id="edge55" class="edge">
<title>C&#45;0947&#45;&gt;C&#45;0827</title>
<path fill="none" stroke="#4d4d4d" d="M2345.5,-605.88C2345.5,-605.88 2345.5,-453.66 2345.5,-453.66"/>
<polygon fill="#4d4d4d" stroke="#4d4d4d" points="2347.95,-453.66 2345.5,-446.66 2343.05,-453.66 2347.95,-453.66"/>
</g>
<!-- C&#45;0826 -->
<g id="node32" class="node">
<title>C&#45;0826</title>
<ellipse fill="mediumseagreen" stroke="black" cx="2484" cy="-526.5" rx="72" ry="21.5"/>
<text text-anchor="middle" x="2484" y="-524" font-family="Arial" font-size="10.00">C&#45;0826</text>
</g>
<!-- C&#45;0947&#45;&gt;C&#45;0826 -->
<g id="edge53" class="edge">
<title>C&#45;0947&#45;&gt;C&#45;0826</title>
<path fill="none" stroke="#4d4d4d" d="M2407,-617.02C2407,-591.09 2407,-526 2407,-526 2407,-526 2407.46,-526 2407.46,-526"/>
<polygon fill="#4d4d4d" stroke="#4d4d4d" points="2404.59,-528.45 2411.59,-526 2404.59,-523.55 2404.59,-528.45"/>
</g>
<!-- S&#45;108A -->
<g id="node12" class="node">
<title>S&#45;108A</title>
<polygon fill="tomato" stroke="black" points="1152,-144 1080,-122.5 1152,-101 1224,-122.5 1152,-144"/>
<text text-anchor="middle" x="1152" y="-120" font-family="Arial" font-size="10.00">S&#45;108A</text>
</g>
<!-- ext_circ_109_26_ -->
<g id="node60" class="node">
<title>ext_circ_109_26_</title>
<polygon fill="lightpink" stroke="darkorange" stroke-dasharray="5,2" points="1224,-43 1080,-43 1080,0 1224,0 1224,-43"/>
<text text-anchor="middle" x="1152" y="-24.5" font-family="Arial" font-size="10.00">Circuito:</text>
<text text-anchor="middle" x="1152" y="-13.5" font-family="Arial" font-size="10.00">109&#45;26&#45;</text>
</g>
<!-- S&#45;108A&#45;&gt;ext_circ_109_26_ -->
<g id="edge62" class="edge">
<title>S&#45;108A&#45;&gt;ext_circ_109_26_</title>
<path fill="none" stroke="darkorange" stroke-dasharray="5,2" d="M1152,-100.58C1152,-100.58 1152,-50.03 1152,-50.03"/>
<polygon fill="darkorange" stroke="darkorange" points="1154.45,-50.03 1152,-43.03 1149.55,-50.03 1154.45,-50.03"/>
</g>
<!-- R&#45;027 -->
<g id="node33" class="node">
<title>R&#45;027</title>
<polygon fill="mediumseagreen" stroke="black" points="1201,-1022.59 1201,-1040.41 1158.82,-1053 1099.18,-1053 1057,-1040.41 1057,-1022.59 1099.18,-1010 1158.82,-1010 1201,-1022.59"/>
<text text-anchor="middle" x="1129" y="-1029" font-family="Arial" font-size="10.00">R&#45;027</text>
</g>
<!-- C&#45;0523&#45;&gt;R&#45;027 -->
<g id="edge7" class="edge">
<title>C&#45;0523&#45;&gt;R&#45;027</title>
<path fill="none" stroke="#4d4d4d" d="M1129,-1110.58C1129,-1110.58 1129,-1060.03 1129,-1060.03"/>
<polygon fill="#4d4d4d" stroke="#4d4d4d" points="1131.45,-1060.03 1129,-1053.03 1126.55,-1060.03 1131.45,-1060.03"/>
</g>
<!-- C&#45;0517 -->
<g id="node14" class="node">
<title>C&#45;0517</title>
<ellipse fill="mediumseagreen" stroke="black" cx="522" cy="-829.5" rx="72" ry="21.5"/>
<text text-anchor="middle" x="522" y="-827" font-family="Arial" font-size="10.00">C&#45;0517</text>
</g>
<!-- C&#45;0517&#45;&gt;S&#45;2473 -->
<g id="edge40" class="edge">
<title>C&#45;0517&#45;&gt;S&#45;2473</title>
<path fill="none" stroke="#4d4d4d" d="M453.16,-836C327.11,-836 72,-836 72,-836 72,-836 72,-757.25 72,-757.25"/>
<polygon fill="#4d4d4d" stroke="#4d4d4d" points="74.45,-757.25 72,-750.25 69.55,-757.25 74.45,-757.25"/>
</g>
<!-- S&#45;1572 -->
<g id="node16" class="node">
<title>S&#45;1572</title>
<polygon fill="mediumseagreen" stroke="black" points="252,-750 180,-728.5 252,-707 324,-728.5 252,-750"/>
<text text-anchor="middle" x="252" y="-726" font-family="Arial" font-size="10.00">S&#45;1572</text>
</g>
<!-- C&#45;0517&#45;&gt;S&#45;1572 -->
<g id="edge38" class="edge">
<title>C&#45;0517&#45;&gt;S&#45;1572</title>
<path fill="none" stroke="#4d4d4d" d="M454.22,-822C374.24,-822 252,-822 252,-822 252,-822 252,-757.19 252,-757.19"/>
<polygon fill="#4d4d4d" stroke="#4d4d4d" points="254.45,-757.19 252,-750.19 249.55,-757.19 254.45,-757.19"/>
</g>
<!-- S&#45;1833 -->
<g id="node20" class="node">
<title>S&#45;1833</title>
<polygon fill="mediumseagreen" stroke="black" points="432,-750 360,-728.5 432,-707 504,-728.5 432,-750"/>
<text text-anchor="middle" x="432" y="-726" font-family="Arial" font-size="10.00">S&#45;1833</text>
</g>
<!-- C&#45;0517&#45;&gt;S&#45;1833 -->
<g id="edge37" class="edge">
<title>C&#45;0517&#45;&gt;S&#45;1833</title>
<path fill="none" stroke="#4d4d4d" d="M477,-812.37C477,-812.37 477,-743.78 477,-743.78"/>
<polygon fill="#4d4d4d" stroke="#4d4d4d" points="479.45,-743.78 477,-736.78 474.55,-743.78 479.45,-743.78"/>
</g>
<!-- S&#45;2474 -->
<g id="node42" class="node">
<title>S&#45;2474</title>
<polygon fill="mediumseagreen" stroke="black" points="612,-750 540,-728.5 612,-707 684,-728.5 612,-750"/>
<text text-anchor="middle" x="612" y="-726" font-family="Arial" font-size="10.00">S&#45;2474</text>
</g>
<!-- C&#45;0517&#45;&gt;S&#45;2474 -->
<g id="edge39" class="edge">
<title>C&#45;0517&#45;&gt;S&#45;2474</title>
<path fill="none" stroke="#4d4d4d" d="M567,-812.37C567,-812.37 567,-743.78 567,-743.78"/>
<polygon fill="#4d4d4d" stroke="#4d4d4d" points="569.45,-743.78 567,-736.78 564.55,-743.78 569.45,-743.78"/>
</g>
<!-- S&#45;1933 -->
<g id="node44" class="node">
<title>S&#45;1933</title>
<polygon fill="mediumseagreen" stroke="black" points="792,-750 720,-728.5 792,-707 864,-728.5 792,-750"/>
<text text-anchor="middle" x="792" y="-726" font-family="Arial" font-size="10.00">S&#45;1933</text>
</g>
<!-- C&#45;0517&#45;&gt;S&#45;1933 -->
<g id="edge41" class="edge">
<title>C&#45;0517&#45;&gt;S&#45;1933</title>
<path fill="none" stroke="#4d4d4d" d="M594,-829C673.98,-829 792,-829 792,-829 792,-829 792,-757.31 792,-757.31"/>
<polygon fill="#4d4d4d" stroke="#4d4d4d" points="794.45,-757.31 792,-750.31 789.55,-757.31 794.45,-757.31"/>
</g>
<!-- S&#45;1899 -->
<g id="node15" class="node">
<title>S&#45;1899</title>
<polygon fill="mediumseagreen" stroke="black" points="1984,-851 1912,-829.5 1984,-808 2056,-829.5 1984,-851"/>
<text text-anchor="middle" x="1984" y="-827" font-family="Arial" font-size="10.00">S&#45;1899</text>
</g>
<!-- C&#45;1041&#45;&gt;C&#45;1040 -->
<g id="edge60" class="edge">
<title>C&#45;1041&#45;&gt;C&#45;1040</title>
<path fill="none" stroke="blue" stroke-dasharray="5,2" d="M768,-606.97C768,-555.49 768,-425 768,-425 768,-425 892.79,-425 892.79,-425"/>
<polygon fill="blue" stroke="blue" points="892.79,-427.45 899.79,-425 892.79,-422.55 892.79,-427.45"/>
</g>
<!-- 113&#45;23&#45; -->
<g id="node18" class="node">
<title>113&#45;23&#45;</title>
<polygon fill="gold" stroke="black" points="1561,-1430.59 1561,-1448.41 1518.82,-1461 1459.18,-1461 1417,-1448.41 1417,-1430.59 1459.18,-1418 1518.82,-1418 1561,-1430.59"/>
<polygon fill="none" stroke="black" points="1565,-1427.61 1565,-1451.39 1519.41,-1465 1458.59,-1465 1413,-1451.39 1413,-1427.61 1458.59,-1414 1519.41,-1414 1565,-1427.61"/>
<text text-anchor="middle" x="1489" y="-1437" font-family="Arial" font-size="10.00">113&#45;23&#45;</text>
</g>
<!-- C&#45;0784 -->
<g id="node21" class="node">
<title>C&#45;0784</title>
<ellipse fill="mediumseagreen" stroke="black" cx="1489" cy="-1334.5" rx="72" ry="21.5"/>
<text text-anchor="middle" x="1489" y="-1332" font-family="Arial" font-size="10.00">C&#45;0784</text>
</g>
<!-- 113&#45;23&#45;&#45;&gt;C&#45;0784 -->
<g id="edge1" class="edge">
<title>113&#45;23&#45;&#45;&gt;C&#45;0784</title>
<path fill="none" stroke="#4d4d4d" d="M1489,-1413.81C1489,-1413.81 1489,-1363.03 1489,-1363.03"/>
<polygon fill="#4d4d4d" stroke="#4d4d4d" points="1491.45,-1363.03 1489,-1356.03 1486.55,-1363.03 1491.45,-1363.03"/>
</g>
<!-- C&#45;0784&#45;&gt;C&#45;0808 -->
<g id="edge2" class="edge">
<title>C&#45;0784&#45;&gt;C&#45;0808</title>
<path fill="none" stroke="#4d4d4d" d="M1489,-1312.58C1489,-1312.58 1489,-1262.03 1489,-1262.03"/>
<polygon fill="#4d4d4d" stroke="#4d4d4d" points="1491.45,-1262.03 1489,-1255.03 1486.55,-1262.03 1491.45,-1262.03"/>
</g>
<!-- C&#45;0400 -->
<g id="node25" class="node">
<title>C&#45;0400</title>
<ellipse fill="mediumseagreen" stroke="black" cx="2029" cy="-930.5" rx="72" ry="21.5"/>
<text text-anchor="middle" x="2029" y="-928" font-family="Arial" font-size="10.00">C&#45;0400</text>
</g>
<!-- C&#45;0398&#45;&gt;C&#45;0400 -->
<g id="edge64" class="edge">
<title>C&#45;0398&#45;&gt;C&#45;0400</title>
<path fill="none" stroke="blue" stroke-dasharray="5,2" d="M1495,-1110.83C1495,-1058.59 1495,-930 1495,-930 1495,-930 1949.98,-930 1949.98,-930"/>
<polygon fill="blue" stroke="blue" points="1949.98,-932.45 1956.98,-930 1949.98,-927.55 1949.98,-932.45"/>
</g>
<!-- ext_circ_112_23_ -->
<g id="node62" class="node">
<title>ext_circ_112_23_</title>
<polygon fill="lightpink" stroke="darkorange" stroke-dasharray="5,2" points="2492,-346 2348,-346 2348,-303 2492,-303 2492,-346"/>
<text text-anchor="middle" x="2420" y="-327.5" font-family="Arial" font-size="10.00">Circuito:</text>
<text text-anchor="middle" x="2420" y="-316.5" font-family="Arial" font-size="10.00">112&#45;23&#45;</text>
</g>
<!-- C&#45;0827&#45;&gt;ext_circ_112_23_ -->
<g id="edge68" class="edge">
<title>C&#45;0827&#45;&gt;ext_circ_112_23_</title>
<path fill="none" stroke="darkorange" stroke-dasharray="5,2" d="M2375,-408.37C2375,-408.37 2375,-353.31 2375,-353.31"/>
<polygon fill="darkorange" stroke="darkorange" points="2377.45,-353.31 2375,-346.31 2372.55,-353.31 2377.45,-353.31"/>
</g>
<!-- C&#45;0400&#45;&gt;C&#45;0104 -->
<g id="edge46" class="edge">
<title>C&#45;0400&#45;&gt;C&#45;0104</title>
<path fill="none" stroke="#4d4d4d" d="M1968.1,-919C1913.85,-919 1843,-919 1843,-919 1843,-919 1843,-854.61 1843,-854.61"/>
<polygon fill="#4d4d4d" stroke="#4d4d4d" points="1845.45,-854.61 1843,-847.61 1840.55,-854.61 1845.45,-854.61"/>
</g>
<!-- C&#45;0400&#45;&gt;S&#45;1899 -->
<g id="edge47" class="edge">
<title>C&#45;0400&#45;&gt;S&#45;1899</title>
<path fill="none" stroke="#4d4d4d" d="M2006.5,-910.06C2006.5,-910.06 2006.5,-851.34 2006.5,-851.34"/>
<polygon fill="#4d4d4d" stroke="#4d4d4d" points="2008.95,-851.34 2006.5,-844.34 2004.05,-851.34 2008.95,-851.34"/>
</g>
<!-- C&#45;0948 -->
<g id="node47" class="node">
<title>C&#45;0948</title>
<ellipse fill="tomato" stroke="black" cx="2164" cy="-829.5" rx="72" ry="21.5"/>
<text text-anchor="middle" x="2164" y="-827" font-family="Arial" font-size="10.00">C&#45;0948</text>
</g>
<!-- C&#45;0400&#45;&gt;C&#45;0948 -->
<g id="edge48" class="edge">
<title>C&#45;0400&#45;&gt;C&#45;0948</title>
<path fill="none" stroke="#4d4d4d" d="M2096.5,-922.91C2096.5,-922.91 2096.5,-844.18 2096.5,-844.18"/>
<polygon fill="#4d4d4d" stroke="#4d4d4d" points="2098.95,-844.18 2096.5,-837.18 2094.05,-844.18 2098.95,-844.18"/>
</g>
<!-- C&#45;0949 -->
<g id="node55" class="node">
<title>C&#45;0949</title>
<ellipse fill="mediumseagreen" stroke="black" cx="2344" cy="-829.5" rx="72" ry="21.5"/>
<text text-anchor="middle" x="2344" y="-827" font-family="Arial" font-size="10.00">C&#45;0949</text>
</g>
<!-- C&#45;0400&#45;&gt;C&#45;0949 -->
<g id="edge49" class="edge">
<title>C&#45;0400&#45;&gt;C&#45;0949</title>
<path fill="none" stroke="#4d4d4d" d="M2101.27,-930C2194.27,-930 2344,-930 2344,-930 2344,-930 2344,-858.31 2344,-858.31"/>
<polygon fill="#4d4d4d" stroke="#4d4d4d" points="2346.45,-858.31 2344,-851.31 2341.55,-858.31 2346.45,-858.31"/>
</g>
<!-- C&#45;1032 -->
<g id="node26" class="node">
<title>C&#45;1032</title>
<ellipse fill="mediumseagreen" stroke="black" cx="1152" cy="-728.5" rx="72" ry="21.5"/>
<text text-anchor="middle" x="1152" y="-726" font-family="Arial" font-size="10.00">C&#45;1032</text>
</g>
<!-- C&#45;0174 -->
<g id="node41" class="node">
<title>C&#45;0174</title>
<ellipse fill="mediumseagreen" stroke="black" cx="1152" cy="-627.5" rx="72" ry="21.5"/>
<text text-anchor="middle" x="1152" y="-625" font-family="Arial" font-size="10.00">C&#45;0174</text>
</g>
<!-- C&#45;1032&#45;&gt;C&#45;0174 -->
<g id="edge17" class="edge">
<title>C&#45;1032&#45;&gt;C&#45;0174</title>
<path fill="none" stroke="#4d4d4d" d="M1152,-706.58C1152,-706.58 1152,-656.03 1152,-656.03"/>
<polygon fill="#4d4d4d" stroke="#4d4d4d" points="1154.45,-656.03 1152,-649.03 1149.55,-656.03 1154.45,-656.03"/>
</g>
<!-- C&#45;0446 -->
<g id="node27" class="node">
<title>C&#45;0446</title>
<ellipse fill="mediumseagreen" stroke="black" cx="1152" cy="-829.5" rx="72" ry="21.5"/>
<text text-anchor="middle" x="1152" y="-827" font-family="Arial" font-size="10.00">C&#45;0446</text>
</g>
<!-- C&#45;0446&#45;&gt;C&#45;0292 -->
<g id="edge22" class="edge">
<title>C&#45;0446&#45;&gt;C&#45;0292</title>
<path fill="none" stroke="#4d4d4d" d="M1090.85,-818C1061.45,-818 1032.5,-818 1032.5,-818 1032.5,-818 1032.5,-747.2 1032.5,-747.2"/>
<polygon fill="#4d4d4d" stroke="#4d4d4d" points="1034.95,-747.2 1032.5,-740.2 1030.05,-747.2 1034.95,-747.2"/>
</g>
<!-- C&#45;0446&#45;&gt;C&#45;1032 -->
<g id="edge16" class="edge">
<title>C&#45;0446&#45;&gt;C&#45;1032</title>
<path fill="none" stroke="#4d4d4d" d="M1152,-807.58C1152,-807.58 1152,-757.03 1152,-757.03"/>
<polygon fill="#4d4d4d" stroke="#4d4d4d" points="1154.45,-757.03 1152,-750.03 1149.55,-757.03 1154.45,-757.03"/>
</g>
<!-- S&#45;2367 -->
<g id="node50" class="node">
<title>S&#45;2367</title>
<polygon fill="mediumseagreen" stroke="black" points="1332,-750 1260,-728.5 1332,-707 1404,-728.5 1332,-750"/>
<text text-anchor="middle" x="1332" y="-726" font-family="Arial" font-size="10.00">S&#45;2367</text>
</g>
<!-- C&#45;0446&#45;&gt;S&#45;2367 -->
<g id="edge15" class="edge">
<title>C&#45;0446&#45;&gt;S&#45;2367</title>
<path fill="none" stroke="#4d4d4d" d="M1219.56,-822C1266.44,-822 1320.5,-822 1320.5,-822 1320.5,-822 1320.5,-753.97 1320.5,-753.97"/>
<polygon fill="#4d4d4d" stroke="#4d4d4d" points="1322.95,-753.97 1320.5,-746.97 1318.05,-753.97 1322.95,-753.97"/>
</g>
<!-- S&#45;2173 -->
<g id="node56" class="node">
<title>S&#45;2173</title>
<polygon fill="mediumseagreen" stroke="black" points="1534,-750 1462,-728.5 1534,-707 1606,-728.5 1534,-750"/>
<text text-anchor="middle" x="1534" y="-726" font-family="Arial" font-size="10.00">S&#45;2173</text>
</g>
<!-- C&#45;0446&#45;&gt;S&#45;2173 -->
<g id="edge10" class="edge">
<title>C&#45;0446&#45;&gt;S&#45;2173</title>
<path fill="none" stroke="#4d4d4d" d="M1220.96,-836C1329.51,-836 1528,-836 1528,-836 1528,-836 1528,-755.22 1528,-755.22"/>
<polygon fill="#4d4d4d" stroke="#4d4d4d" points="1530.45,-755.22 1528,-748.22 1525.55,-755.22 1530.45,-755.22"/>
</g>
<!-- R&#45;253 -->
<g id="node30" class="node">
<title>R&#45;253</title>
<polygon fill="mediumseagreen" stroke="black" points="1044,-517.59 1044,-535.41 1001.82,-548 942.18,-548 900,-535.41 900,-517.59 942.18,-505 1001.82,-505 1044,-517.59"/>
<text text-anchor="middle" x="972" y="-524" font-family="Arial" font-size="10.00">R&#45;253</text>
</g>
<!-- C&#45;1042&#45;&gt;R&#45;253 -->
<g id="edge25" class="edge">
<title>C&#45;1042&#45;&gt;R&#45;253</title>
<path fill="none" stroke="#4d4d4d" d="M972,-605.58C972,-605.58 972,-555.03 972,-555.03"/>
<polygon fill="#4d4d4d" stroke="#4d4d4d" points="974.45,-555.03 972,-548.03 969.55,-555.03 974.45,-555.03"/>
</g>
<!-- R&#45;253&#45;&gt;C&#45;1040 -->
<g id="edge26" class="edge">
<title>R&#45;253&#45;&gt;C&#45;1040</title>
<path fill="none" stroke="#4d4d4d" d="M972,-504.58C972,-504.58 972,-454.03 972,-454.03"/>
<polygon fill="#4d4d4d" stroke="#4d4d4d" points="974.45,-454.03 972,-447.03 969.55,-454.03 974.45,-454.03"/>
</g>
<!-- C&#45;1258 -->
<g id="node31" class="node">
<title>C&#45;1258</title>
<ellipse fill="tomato" stroke="black" cx="1332" cy="-122.5" rx="72" ry="21.5"/>
<text text-anchor="middle" x="1332" y="-120" font-family="Arial" font-size="10.00">C&#45;1258</text>
</g>
<!-- ext_circ__NA_ -->
<g id="node59" class="node">
<title>ext_circ__NA_</title>
<polygon fill="lightpink" stroke="darkorange" stroke-dasharray="5,2" points="1404,-43 1260,-43 1260,0 1404,0 1404,-43"/>
<text text-anchor="middle" x="1332" y="-24.5" font-family="Arial" font-size="10.00">Circuito:</text>
<text text-anchor="middle" x="1332" y="-13.5" font-family="Arial" font-size="10.00">&lt;NA&gt;</text>
</g>
<!-- C&#45;1258&#45;&gt;ext_circ__NA_ -->
<g id="edge61" class="edge">
<title>C&#45;1258&#45;&gt;ext_circ__NA_</title>
<path fill="none" stroke="darkorange" stroke-dasharray="5,2" d="M1332,-100.58C1332,-100.58 1332,-50.03 1332,-50.03"/>
<polygon fill="darkorange" stroke="darkorange" points="1334.45,-50.03 1332,-43.03 1329.55,-50.03 1334.45,-50.03"/>
</g>
<!-- R&#45;186 -->
<g id="node37" class="node">
<title>R&#45;186</title>
<polygon fill="tomato" stroke="black" points="2582,-416.59 2582,-434.41 2539.82,-447 2480.18,-447 2438,-434.41 2438,-416.59 2480.18,-404 2539.82,-404 2582,-416.59"/>
<text text-anchor="middle" x="2510" y="-423" font-family="Arial" font-size="10.00">R&#45;186</text>
</g>
<!-- C&#45;0826&#45;&gt;R&#45;186 -->
<g id="edge54" class="edge">
<title>C&#45;0826&#45;&gt;R&#45;186</title>
<path fill="none" stroke="#4d4d4d" d="M2497,-505.08C2497,-505.08 2497,-454.24 2497,-454.24"/>
<polygon fill="#4d4d4d" stroke="#4d4d4d" points="2499.45,-454.24 2497,-447.24 2494.55,-454.24 2499.45,-454.24"/>
</g>
<!-- C&#45;0521 -->
<g id="node48" class="node">
<title>C&#45;0521</title>
<ellipse fill="mediumseagreen" stroke="black" cx="1129" cy="-930.5" rx="72" ry="21.5"/>
<text text-anchor="middle" x="1129" y="-928" font-family="Arial" font-size="10.00">C&#45;0521</text>
</g>
<!-- R&#45;027&#45;&gt;C&#45;0521 -->
<g id="edge8" class="edge">
<title>R&#45;027&#45;&gt;C&#45;0521</title>
<path fill="none" stroke="#4d4d4d" d="M1129,-1009.58C1129,-1009.58 1129,-959.03 1129,-959.03"/>
<polygon fill="#4d4d4d" stroke="#4d4d4d" points="1131.45,-959.03 1129,-952.03 1126.55,-959.03 1131.45,-959.03"/>
</g>
<!-- C&#45;0936 -->
<g id="node34" class="node">
<title>C&#45;0936</title>
<ellipse fill="tomato" stroke="black" cx="792" cy="-122.5" rx="72" ry="21.5"/>
<text text-anchor="middle" x="792" y="-120" font-family="Arial" font-size="10.00">C&#45;0936</text>
</g>
<!-- C&#45;0936&#45;&gt;S&#45;1572 -->
<g id="edge63" class="edge">
<title>C&#45;0936&#45;&gt;S&#45;1572</title>
<path fill="none" stroke="blue" stroke-dasharray="5,2" d="M720.01,-122C572.99,-122 252,-122 252,-122 252,-122 252,-699.91 252,-699.91"/>
<polygon fill="blue" stroke="blue" points="249.55,-699.91 252,-706.91 254.45,-699.91 249.55,-699.91"/>
</g>
<!-- C&#45;0522&#45;&gt;C&#45;0521 -->
<g id="edge57" class="edge">
<title>C&#45;0522&#45;&gt;C&#45;0521</title>
<path fill="none" stroke="blue" stroke-dasharray="5,2" d="M1810,-1114.14C1810,-1066.21 1810,-941 1810,-941 1810,-941 1198.85,-941 1198.85,-941"/>
<polygon fill="blue" stroke="blue" points="1198.85,-938.55 1191.85,-941 1198.85,-943.45 1198.85,-938.55"/>
</g>
<!-- S&#45;1894 -->
<g id="node36" class="node">
<title>S&#45;1894</title>
<polygon fill="mediumseagreen" stroke="black" points="972,-245 900,-223.5 972,-202 1044,-223.5 972,-245"/>
<text text-anchor="middle" x="972" y="-221" font-family="Arial" font-size="10.00">S&#45;1894</text>
</g>
<!-- R&#45;186&#45;&gt;ext_circ_112_23_ -->
<g id="edge67" class="edge">
<title>R&#45;186&#45;&gt;ext_circ_112_23_</title>
<path fill="none" stroke="darkorange" stroke-dasharray="5,2" d="M2465,-408.37C2465,-408.37 2465,-353.31 2465,-353.31"/>
<polygon fill="darkorange" stroke="darkorange" points="2467.45,-353.31 2465,-346.31 2462.55,-353.31 2467.45,-353.31"/>
</g>
<!-- S&#45;599 -->
<g id="node38" class="node">
<title>S&#45;599</title>
<polygon fill="mediumseagreen" stroke="black" points="1332,-649 1260,-627.5 1332,-606 1404,-627.5 1332,-649"/>
<text text-anchor="middle" x="1332" y="-625" font-family="Arial" font-size="10.00">S&#45;599</text>
</g>
<!-- S&#45;2226 -->
<g id="node39" class="node">
<title>S&#45;2226</title>
<polygon fill="mediumseagreen" stroke="black" points="1512,-649 1440,-627.5 1512,-606 1584,-627.5 1512,-649"/>
<text text-anchor="middle" x="1512" y="-625" font-family="Arial" font-size="10.00">S&#45;2226</text>
</g>
<!-- S&#45;2404 -->
<g id="node40" class="node">
<title>S&#45;2404</title>
<polygon fill="mediumseagreen" stroke="black" points="1512,-144 1440,-122.5 1512,-101 1584,-122.5 1512,-144"/>
<text text-anchor="middle" x="1512" y="-120" font-family="Arial" font-size="10.00">S&#45;2404</text>
</g>
<!-- C&#45;0174&#45;&gt;C&#45;1224 -->
<g id="edge20" class="edge">
<title>C&#45;0174&#45;&gt;C&#45;1224</title>
<path fill="none" stroke="#4d4d4d" d="M1152,-605.88C1152,-605.88 1152,-454.27 1152,-454.27"/>
<polygon fill="#4d4d4d" stroke="#4d4d4d" points="1154.45,-454.27 1152,-447.27 1149.55,-454.27 1154.45,-454.27"/>
</g>
<!-- C&#45;1217 -->
<g id="node52" class="node">
<title>C&#45;1217</title>
<ellipse fill="mediumseagreen" stroke="black" cx="1306" cy="-526.5" rx="72" ry="21.5"/>
<text text-anchor="middle" x="1306" y="-524" font-family="Arial" font-size="10.00">C&#45;1217</text>
</g>
<!-- C&#45;0174&#45;&gt;C&#45;1217 -->
<g id="edge18" class="edge">
<title>C&#45;0174&#45;&gt;C&#45;1217</title>
<path fill="none" stroke="#4d4d4d" d="M1224.15,-627C1238.11,-627 1248.5,-627 1248.5,-627 1248.5,-627 1248.5,-546.64 1248.5,-546.64"/>
<polygon fill="#4d4d4d" stroke="#4d4d4d" points="1250.95,-546.64 1248.5,-539.64 1246.05,-546.64 1250.95,-546.64"/>
</g>
<!-- S&#45;2459 -->
<g id="node43" class="node">
<title>S&#45;2459</title>
<polygon fill="mediumseagreen" stroke="black" points="1692,-649 1620,-627.5 1692,-606 1764,-627.5 1692,-649"/>
<text text-anchor="middle" x="1692" y="-625" font-family="Arial" font-size="10.00">S&#45;2459</text>
</g>
<!-- S&#45;889 -->
<g id="node45" class="node">
<title>S&#45;889</title>
<polygon fill="mediumseagreen" stroke="black" points="1872,-548 1800,-526.5 1872,-505 1944,-526.5 1872,-548"/>
<text text-anchor="middle" x="1872" y="-524" font-family="Arial" font-size="10.00">S&#45;889</text>
</g>
<!-- R&#45;300 -->
<g id="node46" class="node">
<title>R&#45;300</title>
<polygon fill="tomato" stroke="black" points="1404,-416.59 1404,-434.41 1361.82,-447 1302.18,-447 1260,-434.41 1260,-416.59 1302.18,-404 1361.82,-404 1404,-416.59"/>
<text text-anchor="middle" x="1332" y="-423" font-family="Arial" font-size="10.00">R&#45;300</text>
</g>
<!-- R&#45;300&#45;&gt;ext_circ_109_25_ -->
<g id="edge58" class="edge">
<title>R&#45;300&#45;&gt;ext_circ_109_25_</title>
<path fill="none" stroke="darkorange" stroke-dasharray="5,2" d="M1287,-408.37C1287,-408.37 1287,-353.31 1287,-353.31"/>
<polygon fill="darkorange" stroke="darkorange" points="1289.45,-353.31 1287,-346.31 1284.55,-353.31 1289.45,-353.31"/>
</g>
<!-- C&#45;0948&#45;&gt;C&#45;0947 -->
<g id="edge66" class="edge">
<title>C&#45;0948&#45;&gt;C&#45;0947</title>
<path fill="none" stroke="blue" stroke-dasharray="5,2" d="M2190.5,-809.34C2190.5,-758.12 2190.5,-627 2190.5,-627 2190.5,-627 2264.74,-627 2264.74,-627"/>
<polygon fill="blue" stroke="blue" points="2264.74,-629.45 2271.74,-627 2264.74,-624.55 2264.74,-629.45"/>
</g>
<!-- C&#45;0521&#45;&gt;C&#45;0517 -->
<g id="edge36" class="edge">
<title>C&#45;0521&#45;&gt;C&#45;0517</title>
<path fill="none" stroke="#4d4d4d" d="M1064.67,-920.81C1064.67,-897.47 1064.67,-840 1064.67,-840 1064.67,-840 592.05,-840 592.05,-840"/>
<polygon fill="#4d4d4d" stroke="#4d4d4d" points="592.05,-837.55 585.05,-840 592.05,-842.45 592.05,-837.55"/>
</g>
<!-- C&#45;0521&#45;&gt;C&#45;0446 -->
<g id="edge9" class="edge">
<title>C&#45;0521&#45;&gt;C&#45;0446</title>
<path fill="none" stroke="#4d4d4d" d="M1140.5,-909.08C1140.5,-909.08 1140.5,-857.89 1140.5,-857.89"/>
<polygon fill="#4d4d4d" stroke="#4d4d4d" points="1142.95,-857.89 1140.5,-850.89 1138.05,-857.89 1142.95,-857.89"/>
</g>
<!-- R&#45;136 -->
<g id="node49" class="node">
<title>R&#45;136</title>
<polygon fill="mediumseagreen" stroke="black" points="2101,-1022.59 2101,-1040.41 2058.82,-1053 1999.18,-1053 1957,-1040.41 1957,-1022.59 1999.18,-1010 2058.82,-1010 2101,-1022.59"/>
<text text-anchor="middle" x="2029" y="-1029" font-family="Arial" font-size="10.00">R&#45;136</text>
</g>
<!-- R&#45;136&#45;&gt;C&#45;0400 -->
<g id="edge45" class="edge">
<title>R&#45;136&#45;&gt;C&#45;0400</title>
<path fill="none" stroke="#4d4d4d" d="M2029,-1009.58C2029,-1009.58 2029,-959.03 2029,-959.03"/>
<polygon fill="#4d4d4d" stroke="#4d4d4d" points="2031.45,-959.03 2029,-952.03 2026.55,-959.03 2031.45,-959.03"/>
</g>
<!-- S&#45;2367&#45;&gt;S&#45;599 -->
<g id="edge21" class="edge">
<title>S&#45;2367&#45;&gt;S&#45;599</title>
<path fill="none" stroke="#4d4d4d" d="M1332,-706.58C1332,-706.58 1332,-656.03 1332,-656.03"/>
<polygon fill="#4d4d4d" stroke="#4d4d4d" points="1334.45,-656.03 1332,-649.03 1329.55,-656.03 1334.45,-656.03"/>
</g>
<!-- C&#45;0640&#45;&gt;S&#45;107 -->
<g id="edge35" class="edge">
<title>C&#45;0640&#45;&gt;S&#45;107</title>
<path fill="none" stroke="#4d4d4d" d="M899.94,-324C859.06,-324 816,-324 816,-324 816,-324 816,-244.9 816,-244.9"/>
<polygon fill="#4d4d4d" stroke="#4d4d4d" points="818.45,-244.9 816,-237.9 813.55,-244.9 818.45,-244.9"/>
</g>
<!-- C&#45;0640&#45;&gt;S&#45;1894 -->
<g id="edge34" class="edge">
<title>C&#45;0640&#45;&gt;S&#45;1894</title>
<path fill="none" stroke="#4d4d4d" d="M972,-302.58C972,-302.58 972,-252.03 972,-252.03"/>
<polygon fill="#4d4d4d" stroke="#4d4d4d" points="974.45,-252.03 972,-245.03 969.55,-252.03 974.45,-252.03"/>
</g>
<!-- S&#45;776 -->
<g id="node54" class="node">
<title>S&#45;776</title>
<polygon fill="mediumseagreen" stroke="black" points="1152,-245 1080,-223.5 1152,-202 1224,-223.5 1152,-245"/>
<text text-anchor="middle" x="1152" y="-221" font-family="Arial" font-size="10.00">S&#45;776</text>
</g>
<!-- C&#45;0640&#45;&gt;S&#45;776 -->
<g id="edge28" class="edge">
<title>C&#45;0640&#45;&gt;S&#45;776</title>
<path fill="none" stroke="#4d4d4d" d="M1044.02,-324C1083.7,-324 1125,-324 1125,-324 1125,-324 1125,-244.05 1125,-244.05"/>
<polygon fill="#4d4d4d" stroke="#4d4d4d" points="1127.45,-244.05 1125,-237.05 1122.55,-244.05 1127.45,-244.05"/>
</g>
<!-- C&#45;1217&#45;&gt;R&#45;300 -->
<g id="edge19" class="edge">
<title>C&#45;1217&#45;&gt;R&#45;300</title>
<path fill="none" stroke="#4d4d4d" d="M1319,-505.08C1319,-505.08 1319,-454.24 1319,-454.24"/>
<polygon fill="#4d4d4d" stroke="#4d4d4d" points="1321.45,-454.24 1319,-447.24 1316.55,-454.24 1321.45,-454.24"/>
</g>
<!-- C&#45;0399&#45;&gt;R&#45;136 -->
<g id="edge44" class="edge">
<title>C&#45;0399&#45;&gt;R&#45;136</title>
<path fill="none" stroke="#4d4d4d" d="M2029,-1110.58C2029,-1110.58 2029,-1060.03 2029,-1060.03"/>
<polygon fill="#4d4d4d" stroke="#4d4d4d" points="2031.45,-1060.03 2029,-1053.03 2026.55,-1060.03 2031.45,-1060.03"/>
</g>
<!-- S&#45;776&#45;&gt;S&#45;896 -->
<g id="edge29" class="edge">
<title>S&#45;776&#45;&gt;S&#45;896</title>
<path fill="none" stroke="#4d4d4d" d="M1081.47,-223C1075.88,-223 1072.33,-223 1072.33,-223 1072.33,-223 1072.33,-122 1072.33,-122 1072.33,-122 1049.5,-122 1049.5,-122"/>
<polygon fill="#4d4d4d" stroke="#4d4d4d" points="1049.5,-119.55 1042.5,-122 1049.5,-124.45 1049.5,-119.55"/>
</g>
<!-- S&#45;776&#45;&gt;S&#45;108A -->
<g id="edge32" class="edge">
<title>S&#45;776&#45;&gt;S&#45;108A</title>
<path fill="none" stroke="#4d4d4d" d="M1176,-209.03C1176,-209.03 1176,-143.94 1176,-143.94"/>
<polygon fill="#4d4d4d" stroke="#4d4d4d" points="1178.45,-143.94 1176,-136.94 1173.55,-143.94 1178.45,-143.94"/>
</g>
<!-- S&#45;776&#45;&gt;C&#45;1258 -->
<g id="edge31" class="edge">
<title>S&#45;776&#45;&gt;C&#45;1258</title>
<path fill="none" stroke="#4d4d4d" d="M1199.22,-216C1238.15,-216 1287,-216 1287,-216 1287,-216 1287,-146.65 1287,-146.65"/>
<polygon fill="#4d4d4d" stroke="#4d4d4d" points="1289.45,-146.65 1287,-139.65 1284.55,-146.65 1289.45,-146.65"/>
</g>
<!-- S&#45;776&#45;&gt;C&#45;0936 -->
<g id="edge33" class="edge">
<title>S&#45;776&#45;&gt;C&#45;0936</title>
<path fill="none" stroke="#4d4d4d" d="M1128,-209.16C1128,-194.23 1128,-173 1128,-173 1128,-173 792,-173 792,-173 792,-173 792,-151.21 792,-151.21"/>
<polygon fill="#4d4d4d" stroke="#4d4d4d" points="794.45,-151.21 792,-144.21 789.55,-151.21 794.45,-151.21"/>
</g>
<!-- S&#45;776&#45;&gt;S&#45;2404 -->
<g id="edge30" class="edge">
<title>S&#45;776&#45;&gt;S&#45;2404</title>
<path fill="none" stroke="#4d4d4d" d="M1202.44,-230C1301.51,-230 1512,-230 1512,-230 1512,-230 1512,-151.25 1512,-151.25"/>
<polygon fill="#4d4d4d" stroke="#4d4d4d" points="1514.45,-151.25 1512,-144.25 1509.55,-151.25 1514.45,-151.25"/>
</g>
<!-- C&#45;0949&#45;&gt;R&#45;222 -->
<g id="edge50" class="edge">
<title>C&#45;0949&#45;&gt;R&#45;222</title>
<path fill="none" stroke="#4d4d4d" d="M2344,-807.58C2344,-807.58 2344,-757.03 2344,-757.03"/>
<polygon fill="#4d4d4d" stroke="#4d4d4d" points="2346.45,-757.03 2344,-750.03 2341.55,-757.03 2346.45,-757.03"/>
</g>
<!-- S&#45;2173&#45;&gt;S&#45;2226 -->
<g id="edge13" class="edge">
<title>S&#45;2173&#45;&gt;S&#45;2226</title>
<path fill="none" stroke="#4d4d4d" d="M1523,-709.98C1523,-709.98 1523,-652.91 1523,-652.91"/>
<polygon fill="#4d4d4d" stroke="#4d4d4d" points="1525.45,-652.91 1523,-645.91 1520.55,-652.91 1525.45,-652.91"/>
</g>
<!-- S&#45;2173&#45;&gt;S&#45;2459 -->
<g id="edge11" class="edge">
<title>S&#45;2173&#45;&gt;S&#45;2459</title>
<path fill="none" stroke="#4d4d4d" d="M1598.67,-725.99C1598.67,-710.36 1598.67,-627 1598.67,-627 1598.67,-627 1614.26,-627 1614.26,-627"/>
<polygon fill="#4d4d4d" stroke="#4d4d4d" points="1614.26,-629.45 1621.26,-627 1614.26,-624.55 1614.26,-629.45"/>
</g>
<!-- S&#45;2174 -->
<g id="node57" class="node">
<title>S&#45;2174</title>
<polygon fill="mediumseagreen" stroke="black" points="1872,-649 1800,-627.5 1872,-606 1944,-627.5 1872,-649"/>
<text text-anchor="middle" x="1872" y="-625" font-family="Arial" font-size="10.00">S&#45;2174</text>
</g>
<!-- S&#45;2173&#45;&gt;S&#45;2174 -->
<g id="edge12" class="edge">
<title>S&#45;2173&#45;&gt;S&#45;2174</title>
<path fill="none" stroke="#4d4d4d" d="M1591.33,-723.84C1591.33,-711.34 1591.33,-678 1591.33,-678 1591.33,-678 1838,-678 1838,-678 1838,-678 1838,-646.21 1838,-646.21"/>
<polygon fill="#4d4d4d" stroke="#4d4d4d" points="1840.45,-646.21 1838,-639.21 1835.55,-646.21 1840.45,-646.21"/>
</g>
<!-- S&#45;2174&#45;&gt;S&#45;889 -->
<g id="edge14" class="edge">
<title>S&#45;2174&#45;&gt;S&#45;889</title>
<path fill="none" stroke="#4d4d4d" d="M1872,-605.58C1872,-605.58 1872,-555.03 1872,-555.03"/>
<polygon fill="#4d4d4d" stroke="#4d4d4d" points="1874.45,-555.03 1872,-548.03 1869.55,-555.03 1874.45,-555.03"/>
</g>
</g>
</svg>
