<?xml version="1.0" encoding="UTF-8" standalone="no"?>
<!DOCTYPE svg PUBLIC "-//W3C//DTD SVG 1.1//EN"
 "http://www.w3.org/Graphics/SVG/1.1/DTD/svg11.dtd">
<!-- Generated by graphviz version 2.50.0 (0)
 -->
<!-- Title: Grafo_Circuito_113_24_ Pages: 1 -->
<svg width="1412pt" height="1574pt"
 viewBox="0.00 0.00 1412.00 1574.00" xmlns="http://www.w3.org/2000/svg" xmlns:xlink="http://www.w3.org/1999/xlink">
<g id="graph0" class="graph" transform="scale(1 1) rotate(0) translate(4 1570)">
<title>Grafo_Circuito_113_24_</title>
<polygon fill="white" stroke="transparent" points="-4,4 -4,-1570 1408,-1570 1408,4 -4,4"/>
<!-- S&#45;2009 -->
<g id="node1" class="node">
<title>S&#45;2009</title>
<polygon fill="mediumseagreen" stroke="black" points="792,-952 720,-930.5 792,-909 864,-930.5 792,-952"/>
<text text-anchor="middle" x="792" y="-928" font-family="Arial" font-size="10.00">S&#45;2009</text>
</g>
<!-- S&#45;105 -->
<g id="node2" class="node">
<title>S&#45;105</title>
<polygon fill="mediumseagreen" stroke="black" points="612,-1053 540,-1031.5 612,-1010 684,-1031.5 612,-1053"/>
<text text-anchor="middle" x="612" y="-1029" font-family="Arial" font-size="10.00">S&#45;105</text>
</g>
<!-- S&#45;1242 -->
<g id="node3" class="node">
<title>S&#45;1242</title>
<polygon fill="mediumseagreen" stroke="black" points="252,-1356 180,-1334.5 252,-1313 324,-1334.5 252,-1356"/>
<text text-anchor="middle" x="252" y="-1332" font-family="Arial" font-size="10.00">S&#45;1242</text>
</g>
<!-- S&#45;2008 -->
<g id="node18" class="node">
<title>S&#45;2008</title>
<polygon fill="mediumseagreen" stroke="black" points="72,-1255 0,-1233.5 72,-1212 144,-1233.5 72,-1255"/>
<text text-anchor="middle" x="72" y="-1231" font-family="Arial" font-size="10.00">S&#45;2008</text>
</g>
<!-- S&#45;1242&#45;&gt;S&#45;2008 -->
<g id="edge22" class="edge">
<title>S&#45;1242&#45;&gt;S&#45;2008</title>
<path fill="none" stroke="#4d4d4d" d="M181.63,-1334C131.15,-1334 72,-1334 72,-1334 72,-1334 72,-1262.31 72,-1262.31"/>
<polygon fill="#4d4d4d" stroke="#4d4d4d" points="74.45,-1262.31 72,-1255.31 69.55,-1262.31 74.45,-1262.31"/>
</g>
<!-- S&#45;1567 -->
<g id="node21" class="node">
<title>S&#45;1567</title>
<polygon fill="mediumseagreen" stroke="black" points="252,-1255 180,-1233.5 252,-1212 324,-1233.5 252,-1255"/>
<text text-anchor="middle" x="252" y="-1231" font-family="Arial" font-size="10.00">S&#45;1567</text>
</g>
<!-- S&#45;1242&#45;&gt;S&#45;1567 -->
<g id="edge19" class="edge">
<title>S&#45;1242&#45;&gt;S&#45;1567</title>
<path fill="none" stroke="#4d4d4d" d="M252,-1312.58C252,-1312.58 252,-1262.03 252,-1262.03"/>
<polygon fill="#4d4d4d" stroke="#4d4d4d" points="254.45,-1262.03 252,-1255.03 249.55,-1262.03 254.45,-1262.03"/>
</g>
<!-- S&#45;1553 -->
<g id="node26" class="node">
<title>S&#45;1553</title>
<polygon fill="mediumseagreen" stroke="black" points="432,-1255 360,-1233.5 432,-1212 504,-1233.5 432,-1255"/>
<text text-anchor="middle" x="432" y="-1231" font-family="Arial" font-size="10.00">S&#45;1553</text>
</g>
<!-- S&#45;1242&#45;&gt;S&#45;1553 -->
<g id="edge21" class="edge">
<title>S&#45;1242&#45;&gt;S&#45;1553</title>
<path fill="none" stroke="#4d4d4d" d="M322.47,-1334C333.86,-1334 342,-1334 342,-1334 342,-1334 342,-1233 342,-1233 342,-1233 354.53,-1233 354.53,-1233"/>
<polygon fill="#4d4d4d" stroke="#4d4d4d" points="354.53,-1235.45 361.53,-1233 354.53,-1230.55 354.53,-1235.45"/>
</g>
<!-- C&#45;0392 -->
<g id="node4" class="node">
<title>C&#45;0392</title>
<ellipse fill="tomato" stroke="black" cx="972" cy="-930.5" rx="72" ry="21.5"/>
<text text-anchor="middle" x="972" y="-928" font-family="Arial" font-size="10.00">C&#45;0392</text>
</g>
<!-- C&#45;0806 -->
<g id="node23" class="node">
<title>C&#45;0806</title>
<ellipse fill="mediumseagreen" stroke="black" cx="972" cy="-627.5" rx="72" ry="21.5"/>
<text text-anchor="middle" x="972" y="-625" font-family="Arial" font-size="10.00">C&#45;0806</text>
</g>
<!-- C&#45;0392&#45;&gt;C&#45;0806 -->
<g id="edge30" class="edge">
<title>C&#45;0392&#45;&gt;C&#45;0806</title>
<path fill="none" stroke="blue" stroke-dasharray="5,2" d="M948,-910.15C948,-910.15 948,-655.16 948,-655.16"/>
<polygon fill="blue" stroke="blue" points="950.45,-655.16 948,-648.16 945.55,-655.16 950.45,-655.16"/>
</g>
<!-- R&#45;221 -->
<g id="node5" class="node">
<title>R&#45;221</title>
<polygon fill="mediumseagreen" stroke="black" points="864,-1224.59 864,-1242.41 821.82,-1255 762.18,-1255 720,-1242.41 720,-1224.59 762.18,-1212 821.82,-1212 864,-1224.59"/>
<text text-anchor="middle" x="792" y="-1231" font-family="Arial" font-size="10.00">R&#45;221</text>
</g>
<!-- C&#45;0940 -->
<g id="node22" class="node">
<title>C&#45;0940</title>
<ellipse fill="mediumseagreen" stroke="black" cx="792" cy="-1132.5" rx="72" ry="21.5"/>
<text text-anchor="middle" x="792" y="-1130" font-family="Arial" font-size="10.00">C&#45;0940</text>
</g>
<!-- R&#45;221&#45;&gt;C&#45;0940 -->
<g id="edge24" class="edge">
<title>R&#45;221&#45;&gt;C&#45;0940</title>
<path fill="none" stroke="#4d4d4d" d="M792,-1211.58C792,-1211.58 792,-1161.03 792,-1161.03"/>
<polygon fill="#4d4d4d" stroke="#4d4d4d" points="794.45,-1161.03 792,-1154.03 789.55,-1161.03 794.45,-1161.03"/>
</g>
<!-- C&#45;0815 -->
<g id="node6" class="node">
<title>C&#45;0815</title>
<ellipse fill="mediumseagreen" stroke="black" cx="1152" cy="-324.5" rx="72" ry="21.5"/>
<text text-anchor="middle" x="1152" y="-322" font-family="Arial" font-size="10.00">C&#45;0815</text>
</g>
<!-- S&#45;765 -->
<g id="node30" class="node">
<title>S&#45;765</title>
<polygon fill="mediumseagreen" stroke="black" points="1152,-245 1080,-223.5 1152,-202 1224,-223.5 1152,-245"/>
<text text-anchor="middle" x="1152" y="-221" font-family="Arial" font-size="10.00">S&#45;765</text>
</g>
<!-- C&#45;0815&#45;&gt;S&#45;765 -->
<g id="edge12" class="edge">
<title>C&#45;0815&#45;&gt;S&#45;765</title>
<path fill="none" stroke="#4d4d4d" d="M1152,-302.58C1152,-302.58 1152,-252.03 1152,-252.03"/>
<polygon fill="#4d4d4d" stroke="#4d4d4d" points="1154.45,-252.03 1152,-245.03 1149.55,-252.03 1154.45,-252.03"/>
</g>
<!-- S&#45;1569 -->
<g id="node7" class="node">
<title>S&#45;1569</title>
<polygon fill="mediumseagreen" stroke="black" points="252,-1154 180,-1132.5 252,-1111 324,-1132.5 252,-1154"/>
<text text-anchor="middle" x="252" y="-1130" font-family="Arial" font-size="10.00">S&#45;1569</text>
</g>
<!-- C&#45;0939 -->
<g id="node8" class="node">
<title>C&#45;0939</title>
<ellipse fill="tomato" stroke="black" cx="432" cy="-1334.5" rx="72" ry="21.5"/>
<text text-anchor="middle" x="432" y="-1332" font-family="Arial" font-size="10.00">C&#45;0939</text>
</g>
<!-- C&#45;0939&#45;&gt;C&#45;0940 -->
<g id="edge34" class="edge">
<title>C&#45;0939&#45;&gt;C&#45;0940</title>
<path fill="none" stroke="blue" stroke-dasharray="5,2" d="M504.22,-1334C514.68,-1334 522,-1334 522,-1334 522,-1334 522,-1139 522,-1139 522,-1139 716.17,-1139 716.17,-1139"/>
<polygon fill="blue" stroke="blue" points="716.17,-1141.45 723.17,-1139 716.17,-1136.55 716.17,-1141.45"/>
</g>
<!-- S&#45;1483 -->
<g id="node9" class="node">
<title>S&#45;1483</title>
<polygon fill="mediumseagreen" stroke="black" points="792,-1053 720,-1031.5 792,-1010 864,-1031.5 792,-1053"/>
<text text-anchor="middle" x="792" y="-1029" font-family="Arial" font-size="10.00">S&#45;1483</text>
</g>
<!-- C&#45;0394 -->
<g id="node10" class="node">
<title>C&#45;0394</title>
<ellipse fill="mediumseagreen" stroke="black" cx="1152" cy="-728.5" rx="72" ry="21.5"/>
<text text-anchor="middle" x="1152" y="-726" font-family="Arial" font-size="10.00">C&#45;0394</text>
</g>
<!-- C&#45;0508 -->
<g id="node13" class="node">
<title>C&#45;0508</title>
<ellipse fill="mediumseagreen" stroke="black" cx="1152" cy="-627.5" rx="72" ry="21.5"/>
<text text-anchor="middle" x="1152" y="-625" font-family="Arial" font-size="10.00">C&#45;0508</text>
</g>
<!-- C&#45;0394&#45;&gt;C&#45;0508 -->
<g id="edge8" class="edge">
<title>C&#45;0394&#45;&gt;C&#45;0508</title>
<path fill="none" stroke="#4d4d4d" d="M1152,-706.58C1152,-706.58 1152,-656.03 1152,-656.03"/>
<polygon fill="#4d4d4d" stroke="#4d4d4d" points="1154.45,-656.03 1152,-649.03 1149.55,-656.03 1154.45,-656.03"/>
</g>
<!-- C&#45;0394&#45;&gt;C&#45;0806 -->
<g id="edge6" class="edge">
<title>C&#45;0394&#45;&gt;C&#45;0806</title>
<path fill="none" stroke="#4d4d4d" d="M1079.94,-728C1039.06,-728 996,-728 996,-728 996,-728 996,-654.84 996,-654.84"/>
<polygon fill="#4d4d4d" stroke="#4d4d4d" points="998.45,-654.84 996,-647.84 993.55,-654.84 998.45,-654.84"/>
</g>
<!-- C&#45;0807 -->
<g id="node29" class="node">
<title>C&#45;0807</title>
<ellipse fill="tomato" stroke="black" cx="1332" cy="-627.5" rx="72" ry="21.5"/>
<text text-anchor="middle" x="1332" y="-625" font-family="Arial" font-size="10.00">C&#45;0807</text>
</g>
<!-- C&#45;0394&#45;&gt;C&#45;0807 -->
<g id="edge7" class="edge">
<title>C&#45;0394&#45;&gt;C&#45;0807</title>
<path fill="none" stroke="#4d4d4d" d="M1224.18,-728C1274.25,-728 1332,-728 1332,-728 1332,-728 1332,-656.31 1332,-656.31"/>
<polygon fill="#4d4d4d" stroke="#4d4d4d" points="1334.45,-656.31 1332,-649.31 1329.55,-656.31 1334.45,-656.31"/>
</g>
<!-- S&#45;2152 -->
<g id="node11" class="node">
<title>S&#45;2152</title>
<polygon fill="mediumseagreen" stroke="black" points="612,-1356 540,-1334.5 612,-1313 684,-1334.5 612,-1356"/>
<text text-anchor="middle" x="612" y="-1332" font-family="Arial" font-size="10.00">S&#45;2152</text>
</g>
<!-- 113&#45;24&#45; -->
<g id="node12" class="node">
<title>113&#45;24&#45;</title>
<polygon fill="gold" stroke="black" points="594,-1531.59 594,-1549.41 551.82,-1562 492.18,-1562 450,-1549.41 450,-1531.59 492.18,-1519 551.82,-1519 594,-1531.59"/>
<polygon fill="none" stroke="black" points="598,-1528.61 598,-1552.39 552.41,-1566 491.59,-1566 446,-1552.39 446,-1528.61 491.59,-1515 552.41,-1515 598,-1528.61"/>
<text text-anchor="middle" x="522" y="-1538" font-family="Arial" font-size="10.00">113&#45;24&#45;</text>
</g>
<!-- S&#45;102 -->
<g id="node27" class="node">
<title>S&#45;102</title>
<polygon fill="mediumseagreen" stroke="black" points="522,-1457 450,-1435.5 522,-1414 594,-1435.5 522,-1457"/>
<text text-anchor="middle" x="522" y="-1433" font-family="Arial" font-size="10.00">S&#45;102</text>
</g>
<!-- 113&#45;24&#45;&#45;&gt;S&#45;102 -->
<g id="edge26" class="edge">
<title>113&#45;24&#45;&#45;&gt;S&#45;102</title>
<path fill="none" stroke="#4d4d4d" d="M522,-1514.81C522,-1514.81 522,-1464.03 522,-1464.03"/>
<polygon fill="#4d4d4d" stroke="#4d4d4d" points="524.45,-1464.03 522,-1457.03 519.55,-1464.03 524.45,-1464.03"/>
</g>
<!-- C&#45;0814 -->
<g id="node16" class="node">
<title>C&#45;0814</title>
<ellipse fill="tomato" stroke="black" cx="972" cy="-526.5" rx="72" ry="21.5"/>
<text text-anchor="middle" x="972" y="-524" font-family="Arial" font-size="10.00">C&#45;0814</text>
</g>
<!-- C&#45;0508&#45;&gt;C&#45;0814 -->
<g id="edge10" class="edge">
<title>C&#45;0508&#45;&gt;C&#45;0814</title>
<path fill="none" stroke="#4d4d4d" d="M1079.78,-627C1069.32,-627 1062,-627 1062,-627 1062,-627 1062,-526 1062,-526 1062,-526 1051.22,-526 1051.22,-526"/>
<polygon fill="#4d4d4d" stroke="#4d4d4d" points="1051.22,-523.55 1044.22,-526 1051.22,-528.45 1051.22,-523.55"/>
</g>
<!-- C&#45;0813 -->
<g id="node24" class="node">
<title>C&#45;0813</title>
<ellipse fill="mediumseagreen" stroke="black" cx="1152" cy="-526.5" rx="72" ry="21.5"/>
<text text-anchor="middle" x="1152" y="-524" font-family="Arial" font-size="10.00">C&#45;0813</text>
</g>
<!-- C&#45;0508&#45;&gt;C&#45;0813 -->
<g id="edge9" class="edge">
<title>C&#45;0508&#45;&gt;C&#45;0813</title>
<path fill="none" stroke="#4d4d4d" d="M1152,-605.58C1152,-605.58 1152,-555.03 1152,-555.03"/>
<polygon fill="#4d4d4d" stroke="#4d4d4d" points="1154.45,-555.03 1152,-548.03 1149.55,-555.03 1154.45,-555.03"/>
</g>
<!-- C&#45;0938 -->
<g id="node14" class="node">
<title>C&#45;0938</title>
<ellipse fill="mediumseagreen" stroke="black" cx="792" cy="-1334.5" rx="72" ry="21.5"/>
<text text-anchor="middle" x="792" y="-1332" font-family="Arial" font-size="10.00">C&#45;0938</text>
</g>
<!-- C&#45;0938&#45;&gt;R&#45;221 -->
<g id="edge25" class="edge">
<title>C&#45;0938&#45;&gt;R&#45;221</title>
<path fill="none" stroke="#4d4d4d" d="M792,-1312.58C792,-1312.58 792,-1262.03 792,-1262.03"/>
<polygon fill="#4d4d4d" stroke="#4d4d4d" points="794.45,-1262.03 792,-1255.03 789.55,-1262.03 794.45,-1262.03"/>
</g>
<!-- R&#45;132 -->
<g id="node15" class="node">
<title>R&#45;132</title>
<polygon fill="mediumseagreen" stroke="black" points="1224,-820.59 1224,-838.41 1181.82,-851 1122.18,-851 1080,-838.41 1080,-820.59 1122.18,-808 1181.82,-808 1224,-820.59"/>
<text text-anchor="middle" x="1152" y="-827" font-family="Arial" font-size="10.00">R&#45;132</text>
</g>
<!-- R&#45;132&#45;&gt;C&#45;0394 -->
<g id="edge5" class="edge">
<title>R&#45;132&#45;&gt;C&#45;0394</title>
<path fill="none" stroke="#4d4d4d" d="M1152,-807.58C1152,-807.58 1152,-757.03 1152,-757.03"/>
<polygon fill="#4d4d4d" stroke="#4d4d4d" points="1154.45,-757.03 1152,-750.03 1149.55,-757.03 1154.45,-757.03"/>
</g>
<!-- C&#45;0814&#45;&gt;C&#45;0815 -->
<g id="edge32" class="edge">
<title>C&#45;0814&#45;&gt;C&#45;0815</title>
<path fill="none" stroke="blue" stroke-dasharray="5,2" d="M1017,-509.58C1017,-460.91 1017,-324 1017,-324 1017,-324 1072.76,-324 1072.76,-324"/>
<polygon fill="blue" stroke="blue" points="1072.76,-326.45 1079.76,-324 1072.76,-321.55 1072.76,-326.45"/>
</g>
<!-- S&#45;1940 -->
<g id="node17" class="node">
<title>S&#45;1940</title>
<polygon fill="mediumseagreen" stroke="black" points="1062,-144 990,-122.5 1062,-101 1134,-122.5 1062,-144"/>
<text text-anchor="middle" x="1062" y="-120" font-family="Arial" font-size="10.00">S&#45;1940</text>
</g>
<!-- R&#45;182 -->
<g id="node19" class="node">
<title>R&#45;182</title>
<polygon fill="mediumseagreen" stroke="black" points="1224,-416.59 1224,-434.41 1181.82,-447 1122.18,-447 1080,-434.41 1080,-416.59 1122.18,-404 1181.82,-404 1224,-416.59"/>
<text text-anchor="middle" x="1152" y="-423" font-family="Arial" font-size="10.00">R&#45;182</text>
</g>
<!-- R&#45;182&#45;&gt;C&#45;0815 -->
<g id="edge1" class="edge">
<title>R&#45;182&#45;&gt;C&#45;0815</title>
<path fill="none" stroke="#4d4d4d" d="M1152,-403.58C1152,-403.58 1152,-353.03 1152,-353.03"/>
<polygon fill="#4d4d4d" stroke="#4d4d4d" points="1154.45,-353.03 1152,-346.03 1149.55,-353.03 1154.45,-353.03"/>
</g>
<!-- S&#45;1194 -->
<g id="node20" class="node">
<title>S&#45;1194</title>
<polygon fill="mediumseagreen" stroke="black" points="972,-1053 900,-1031.5 972,-1010 1044,-1031.5 972,-1053"/>
<text text-anchor="middle" x="972" y="-1029" font-family="Arial" font-size="10.00">S&#45;1194</text>
</g>
<!-- S&#45;1194&#45;&gt;S&#45;2009 -->
<g id="edge16" class="edge">
<title>S&#45;1194&#45;&gt;S&#45;2009</title>
<path fill="none" stroke="#4d4d4d" d="M901.53,-1031C890.14,-1031 882,-1031 882,-1031 882,-1031 882,-930 882,-930 882,-930 869.47,-930 869.47,-930"/>
<polygon fill="#4d4d4d" stroke="#4d4d4d" points="869.47,-927.55 862.47,-930 869.47,-932.45 869.47,-927.55"/>
</g>
<!-- S&#45;1194&#45;&gt;C&#45;0392 -->
<g id="edge3" class="edge">
<title>S&#45;1194&#45;&gt;C&#45;0392</title>
<path fill="none" stroke="#4d4d4d" d="M972,-1009.58C972,-1009.58 972,-959.03 972,-959.03"/>
<polygon fill="#4d4d4d" stroke="#4d4d4d" points="974.45,-959.03 972,-952.03 969.55,-959.03 974.45,-959.03"/>
</g>
<!-- C&#45;0393 -->
<g id="node28" class="node">
<title>C&#45;0393</title>
<ellipse fill="mediumseagreen" stroke="black" cx="1152" cy="-930.5" rx="72" ry="21.5"/>
<text text-anchor="middle" x="1152" y="-928" font-family="Arial" font-size="10.00">C&#45;0393</text>
</g>
<!-- S&#45;1194&#45;&gt;C&#45;0393 -->
<g id="edge2" class="edge">
<title>S&#45;1194&#45;&gt;C&#45;0393</title>
<path fill="none" stroke="#4d4d4d" d="M1042.37,-1031C1092.85,-1031 1152,-1031 1152,-1031 1152,-1031 1152,-959.31 1152,-959.31"/>
<polygon fill="#4d4d4d" stroke="#4d4d4d" points="1154.45,-959.31 1152,-952.31 1149.55,-959.31 1154.45,-959.31"/>
</g>
<!-- S&#45;1567&#45;&gt;S&#45;1569 -->
<g id="edge20" class="edge">
<title>S&#45;1567&#45;&gt;S&#45;1569</title>
<path fill="none" stroke="#4d4d4d" d="M252,-1211.58C252,-1211.58 252,-1161.03 252,-1161.03"/>
<polygon fill="#4d4d4d" stroke="#4d4d4d" points="254.45,-1161.03 252,-1154.03 249.55,-1161.03 254.45,-1161.03"/>
</g>
<!-- C&#45;0940&#45;&gt;S&#45;105 -->
<g id="edge13" class="edge">
<title>C&#45;0940&#45;&gt;S&#45;105</title>
<path fill="none" stroke="#4d4d4d" d="M724.46,-1125C673.39,-1125 612,-1125 612,-1125 612,-1125 612,-1060.19 612,-1060.19"/>
<polygon fill="#4d4d4d" stroke="#4d4d4d" points="614.45,-1060.19 612,-1053.19 609.55,-1060.19 614.45,-1060.19"/>
</g>
<!-- C&#45;0940&#45;&gt;S&#45;1483 -->
<g id="edge17" class="edge">
<title>C&#45;0940&#45;&gt;S&#45;1483</title>
<path fill="none" stroke="#4d4d4d" d="M792,-1110.58C792,-1110.58 792,-1060.03 792,-1060.03"/>
<polygon fill="#4d4d4d" stroke="#4d4d4d" points="794.45,-1060.03 792,-1053.03 789.55,-1060.03 794.45,-1060.03"/>
</g>
<!-- C&#45;0940&#45;&gt;S&#45;1194 -->
<g id="edge23" class="edge">
<title>C&#45;0940&#45;&gt;S&#45;1194</title>
<path fill="none" stroke="#4d4d4d" d="M864.18,-1132C914.25,-1132 972,-1132 972,-1132 972,-1132 972,-1060.31 972,-1060.31"/>
<polygon fill="#4d4d4d" stroke="#4d4d4d" points="974.45,-1060.31 972,-1053.31 969.55,-1060.31 974.45,-1060.31"/>
</g>
<!-- C&#45;0813&#45;&gt;R&#45;182 -->
<g id="edge11" class="edge">
<title>C&#45;0813&#45;&gt;R&#45;182</title>
<path fill="none" stroke="#4d4d4d" d="M1152,-504.58C1152,-504.58 1152,-454.03 1152,-454.03"/>
<polygon fill="#4d4d4d" stroke="#4d4d4d" points="1154.45,-454.03 1152,-447.03 1149.55,-454.03 1154.45,-454.03"/>
</g>
<!-- C&#45;0025 -->
<g id="node25" class="node">
<title>C&#45;0025</title>
<ellipse fill="tomato" stroke="black" cx="1242" cy="-122.5" rx="72" ry="21.5"/>
<text text-anchor="middle" x="1242" y="-120" font-family="Arial" font-size="10.00">C&#45;0025</text>
</g>
<!-- ext_circ_303_25_ -->
<g id="node32" class="node">
<title>ext_circ_303_25_</title>
<polygon fill="lightpink" stroke="darkorange" stroke-dasharray="5,2" points="1314,-43 1170,-43 1170,0 1314,0 1314,-43"/>
<text text-anchor="middle" x="1242" y="-24.5" font-family="Arial" font-size="10.00">Circuito:</text>
<text text-anchor="middle" x="1242" y="-13.5" font-family="Arial" font-size="10.00">303&#45;25&#45;</text>
</g>
<!-- C&#45;0025&#45;&gt;ext_circ_303_25_ -->
<g id="edge33" class="edge">
<title>C&#45;0025&#45;&gt;ext_circ_303_25_</title>
<path fill="none" stroke="darkorange" stroke-dasharray="5,2" d="M1242,-100.58C1242,-100.58 1242,-50.03 1242,-50.03"/>
<polygon fill="darkorange" stroke="darkorange" points="1244.45,-50.03 1242,-43.03 1239.55,-50.03 1244.45,-50.03"/>
</g>
<!-- S&#45;102&#45;&gt;S&#45;1242 -->
<g id="edge18" class="edge">
<title>S&#45;102&#45;&gt;S&#45;1242</title>
<path fill="none" stroke="#4d4d4d" d="M451.41,-1435C371.41,-1435 252,-1435 252,-1435 252,-1435 252,-1363.31 252,-1363.31"/>
<polygon fill="#4d4d4d" stroke="#4d4d4d" points="254.45,-1363.31 252,-1356.31 249.55,-1363.31 254.45,-1363.31"/>
</g>
<!-- S&#45;102&#45;&gt;C&#45;0939 -->
<g id="edge28" class="edge">
<title>S&#45;102&#45;&gt;C&#45;0939</title>
<path fill="none" stroke="#4d4d4d" d="M477,-1427.23C477,-1427.23 477,-1358.52 477,-1358.52"/>
<polygon fill="#4d4d4d" stroke="#4d4d4d" points="479.45,-1358.52 477,-1351.52 474.55,-1358.52 479.45,-1358.52"/>
</g>
<!-- S&#45;102&#45;&gt;S&#45;2152 -->
<g id="edge27" class="edge">
<title>S&#45;102&#45;&gt;S&#45;2152</title>
<path fill="none" stroke="#4d4d4d" d="M567,-1427.23C567,-1427.23 567,-1349.6 567,-1349.6"/>
<polygon fill="#4d4d4d" stroke="#4d4d4d" points="569.45,-1349.6 567,-1342.6 564.55,-1349.6 569.45,-1349.6"/>
</g>
<!-- S&#45;102&#45;&gt;C&#45;0938 -->
<g id="edge29" class="edge">
<title>S&#45;102&#45;&gt;C&#45;0938</title>
<path fill="none" stroke="#4d4d4d" d="M592.59,-1435C672.59,-1435 792,-1435 792,-1435 792,-1435 792,-1363.31 792,-1363.31"/>
<polygon fill="#4d4d4d" stroke="#4d4d4d" points="794.45,-1363.31 792,-1356.31 789.55,-1363.31 794.45,-1363.31"/>
</g>
<!-- C&#45;0393&#45;&gt;R&#45;132 -->
<g id="edge4" class="edge">
<title>C&#45;0393&#45;&gt;R&#45;132</title>
<path fill="none" stroke="#4d4d4d" d="M1152,-908.58C1152,-908.58 1152,-858.03 1152,-858.03"/>
<polygon fill="#4d4d4d" stroke="#4d4d4d" points="1154.45,-858.03 1152,-851.03 1149.55,-858.03 1154.45,-858.03"/>
</g>
<!-- ext_circ_114_23_ -->
<g id="node31" class="node">
<title>ext_circ_114_23_</title>
<polygon fill="lightpink" stroke="darkorange" stroke-dasharray="5,2" points="1404,-548 1260,-548 1260,-505 1404,-505 1404,-548"/>
<text text-anchor="middle" x="1332" y="-529.5" font-family="Arial" font-size="10.00">Circuito:</text>
<text text-anchor="middle" x="1332" y="-518.5" font-family="Arial" font-size="10.00">114&#45;23&#45;</text>
</g>
<!-- C&#45;0807&#45;&gt;ext_circ_114_23_ -->
<g id="edge31" class="edge">
<title>C&#45;0807&#45;&gt;ext_circ_114_23_</title>
<path fill="none" stroke="darkorange" stroke-dasharray="5,2" d="M1332,-605.58C1332,-605.58 1332,-555.03 1332,-555.03"/>
<polygon fill="darkorange" stroke="darkorange" points="1334.45,-555.03 1332,-548.03 1329.55,-555.03 1334.45,-555.03"/>
</g>
<!-- S&#45;765&#45;&gt;S&#45;1940 -->
<g id="edge15" class="edge">
<title>S&#45;765&#45;&gt;S&#45;1940</title>
<path fill="none" stroke="#4d4d4d" d="M1107,-215.23C1107,-215.23 1107,-137.6 1107,-137.6"/>
<polygon fill="#4d4d4d" stroke="#4d4d4d" points="1109.45,-137.6 1107,-130.6 1104.55,-137.6 1109.45,-137.6"/>
</g>
<!-- S&#45;765&#45;&gt;C&#45;0025 -->
<g id="edge14" class="edge">
<title>S&#45;765&#45;&gt;C&#45;0025</title>
<path fill="none" stroke="#4d4d4d" d="M1197,-215.23C1197,-215.23 1197,-146.52 1197,-146.52"/>
<polygon fill="#4d4d4d" stroke="#4d4d4d" points="1199.45,-146.52 1197,-139.52 1194.55,-146.52 1199.45,-146.52"/>
</g>
</g>
</svg>
