<?xml version="1.0" encoding="UTF-8" standalone="no"?>
<!DOCTYPE svg PUBLIC "-//W3C//DTD SVG 1.1//EN"
 "http://www.w3.org/Graphics/SVG/1.1/DTD/svg11.dtd">
<!-- Generated by graphviz version 2.50.0 (0)
 -->
<!-- Title: Grafo_Circuito_303_23_ Pages: 1 -->
<svg width="1606pt" height="1978pt"
 viewBox="0.00 0.00 1606.00 1978.00" xmlns="http://www.w3.org/2000/svg" xmlns:xlink="http://www.w3.org/1999/xlink">
<g id="graph0" class="graph" transform="scale(1 1) rotate(0) translate(4 1974)">
<title>Grafo_Circuito_303_23_</title>
<polygon fill="white" stroke="transparent" points="-4,4 -4,-1974 1602,-1974 1602,4 -4,4"/>
<!-- C&#45;0264 -->
<g id="node1" class="node">
<title>C&#45;0264</title>
<ellipse fill="mediumseagreen" stroke="black" cx="739" cy="-1132.5" rx="72" ry="21.5"/>
<text text-anchor="middle" x="739" y="-1130" font-family="Arial" font-size="10.00">C&#45;0264</text>
</g>
<!-- C&#45;0854 -->
<g id="node6" class="node">
<title>C&#45;0854</title>
<ellipse fill="mediumseagreen" stroke="black" cx="559" cy="-1031.5" rx="72" ry="21.5"/>
<text text-anchor="middle" x="559" y="-1029" font-family="Arial" font-size="10.00">C&#45;0854</text>
</g>
<!-- C&#45;0264&#45;&gt;C&#45;0854 -->
<g id="edge17" class="edge">
<title>C&#45;0264&#45;&gt;C&#45;0854</title>
<path fill="none" stroke="#4d4d4d" d="M666.63,-1132C622.3,-1132 574,-1132 574,-1132 574,-1132 574,-1059.81 574,-1059.81"/>
<polygon fill="#4d4d4d" stroke="#4d4d4d" points="576.45,-1059.81 574,-1052.81 571.55,-1059.81 576.45,-1059.81"/>
</g>
<!-- C&#45;0855 -->
<g id="node14" class="node">
<title>C&#45;0855</title>
<ellipse fill="tomato" stroke="black" cx="739" cy="-1031.5" rx="72" ry="21.5"/>
<text text-anchor="middle" x="739" y="-1029" font-family="Arial" font-size="10.00">C&#45;0855</text>
</g>
<!-- C&#45;0264&#45;&gt;C&#45;0855 -->
<g id="edge16" class="edge">
<title>C&#45;0264&#45;&gt;C&#45;0855</title>
<path fill="none" stroke="#4d4d4d" d="M739,-1110.58C739,-1110.58 739,-1060.03 739,-1060.03"/>
<polygon fill="#4d4d4d" stroke="#4d4d4d" points="741.45,-1060.03 739,-1053.03 736.55,-1060.03 741.45,-1060.03"/>
</g>
<!-- S&#45;1714 -->
<g id="node34" class="node">
<title>S&#45;1714</title>
<polygon fill="mediumseagreen" stroke="black" points="919,-1053 847,-1031.5 919,-1010 991,-1031.5 919,-1053"/>
<text text-anchor="middle" x="919" y="-1029" font-family="Arial" font-size="10.00">S&#45;1714</text>
</g>
<!-- C&#45;0264&#45;&gt;S&#45;1714 -->
<g id="edge15" class="edge">
<title>C&#45;0264&#45;&gt;S&#45;1714</title>
<path fill="none" stroke="#4d4d4d" d="M811.02,-1132C816.53,-1132 820,-1132 820,-1132 820,-1132 820,-1024 820,-1024 820,-1024 865.11,-1024 865.11,-1024"/>
<polygon fill="#4d4d4d" stroke="#4d4d4d" points="865.11,-1026.45 872.11,-1024 865.11,-1021.55 865.11,-1026.45"/>
</g>
<!-- S&#45;685 -->
<g id="node2" class="node">
<title>S&#45;685</title>
<polygon fill="mediumseagreen" stroke="black" points="1099,-1053 1027,-1031.5 1099,-1010 1171,-1031.5 1099,-1053"/>
<text text-anchor="middle" x="1099" y="-1029" font-family="Arial" font-size="10.00">S&#45;685</text>
</g>
<!-- C&#45;0265 -->
<g id="node3" class="node">
<title>C&#45;0265</title>
<ellipse fill="mediumseagreen" stroke="black" cx="811" cy="-728.5" rx="72" ry="21.5"/>
<text text-anchor="middle" x="811" y="-726" font-family="Arial" font-size="10.00">C&#45;0265</text>
</g>
<!-- S&#45;1322 -->
<g id="node5" class="node">
<title>S&#45;1322</title>
<polygon fill="mediumseagreen" stroke="black" points="451,-649 379,-627.5 451,-606 523,-627.5 451,-649"/>
<text text-anchor="middle" x="451" y="-625" font-family="Arial" font-size="10.00">S&#45;1322</text>
</g>
<!-- C&#45;0265&#45;&gt;S&#45;1322 -->
<g id="edge48" class="edge">
<title>C&#45;0265&#45;&gt;S&#45;1322</title>
<path fill="none" stroke="#4d4d4d" d="M742.33,-735C652.11,-735 505,-735 505,-735 505,-735 505,-639.98 505,-639.98"/>
<polygon fill="#4d4d4d" stroke="#4d4d4d" points="507.45,-639.98 505,-632.98 502.55,-639.98 507.45,-639.98"/>
</g>
<!-- C&#45;0574 -->
<g id="node17" class="node">
<title>C&#45;0574</title>
<ellipse fill="tomato" stroke="black" cx="631" cy="-627.5" rx="72" ry="21.5"/>
<text text-anchor="middle" x="631" y="-625" font-family="Arial" font-size="10.00">C&#45;0574</text>
</g>
<!-- C&#45;0265&#45;&gt;C&#45;0574 -->
<g id="edge27" class="edge">
<title>C&#45;0265&#45;&gt;C&#45;0574</title>
<path fill="none" stroke="#4d4d4d" d="M743.24,-721C696.22,-721 642,-721 642,-721 642,-721 642,-656.19 642,-656.19"/>
<polygon fill="#4d4d4d" stroke="#4d4d4d" points="644.45,-656.19 642,-649.19 639.55,-656.19 644.45,-656.19"/>
</g>
<!-- C&#45;0733 -->
<g id="node28" class="node">
<title>C&#45;0733</title>
<ellipse fill="mediumseagreen" stroke="black" cx="811" cy="-627.5" rx="72" ry="21.5"/>
<text text-anchor="middle" x="811" y="-625" font-family="Arial" font-size="10.00">C&#45;0733</text>
</g>
<!-- C&#45;0265&#45;&gt;C&#45;0733 -->
<g id="edge23" class="edge">
<title>C&#45;0265&#45;&gt;C&#45;0733</title>
<path fill="none" stroke="#4d4d4d" d="M787,-708.06C787,-708.06 787,-654.91 787,-654.91"/>
<polygon fill="#4d4d4d" stroke="#4d4d4d" points="789.45,-654.91 787,-647.91 784.55,-654.91 789.45,-654.91"/>
</g>
<!-- C&#45;0734 -->
<g id="node49" class="node">
<title>C&#45;0734</title>
<ellipse fill="tomato" stroke="black" cx="911" cy="-526.5" rx="72" ry="21.5"/>
<text text-anchor="middle" x="911" y="-524" font-family="Arial" font-size="10.00">C&#45;0734</text>
</g>
<!-- C&#45;0265&#45;&gt;C&#45;0734 -->
<g id="edge24" class="edge">
<title>C&#45;0265&#45;&gt;C&#45;0734</title>
<path fill="none" stroke="#4d4d4d" d="M878.8,-721C888.36,-721 895,-721 895,-721 895,-721 895,-554.69 895,-554.69"/>
<polygon fill="#4d4d4d" stroke="#4d4d4d" points="897.45,-554.69 895,-547.69 892.55,-554.69 897.45,-554.69"/>
</g>
<!-- C&#45;0575 -->
<g id="node53" class="node">
<title>C&#45;0575</title>
<ellipse fill="mediumseagreen" stroke="black" cx="1065" cy="-627.5" rx="72" ry="21.5"/>
<text text-anchor="middle" x="1065" y="-625" font-family="Arial" font-size="10.00">C&#45;0575</text>
</g>
<!-- C&#45;0265&#45;&gt;C&#45;0575 -->
<g id="edge28" class="edge">
<title>C&#45;0265&#45;&gt;C&#45;0575</title>
<path fill="none" stroke="#4d4d4d" d="M879.75,-735C895.13,-735 907,-735 907,-735 907,-735 907,-627 907,-627 907,-627 985.94,-627 985.94,-627"/>
<polygon fill="#4d4d4d" stroke="#4d4d4d" points="985.94,-629.45 992.94,-627 985.94,-624.55 985.94,-629.45"/>
</g>
<!-- S&#45;1741 -->
<g id="node56" class="node">
<title>S&#45;1741</title>
<polygon fill="mediumseagreen" stroke="black" points="1245,-649 1173,-627.5 1245,-606 1317,-627.5 1245,-649"/>
<text text-anchor="middle" x="1245" y="-625" font-family="Arial" font-size="10.00">S&#45;1741</text>
</g>
<!-- C&#45;0265&#45;&gt;S&#45;1741 -->
<g id="edge26" class="edge">
<title>C&#45;0265&#45;&gt;S&#45;1741</title>
<path fill="none" stroke="#4d4d4d" d="M835,-707.96C835,-693.98 835,-678 835,-678 835,-678 1208,-678 1208,-678 1208,-678 1208,-645.21 1208,-645.21"/>
<polygon fill="#4d4d4d" stroke="#4d4d4d" points="1210.45,-645.21 1208,-638.21 1205.55,-645.21 1210.45,-645.21"/>
</g>
<!-- S&#45;690 -->
<g id="node4" class="node">
<title>S&#45;690</title>
<polygon fill="mediumseagreen" stroke="black" points="919,-1154 847,-1132.5 919,-1111 991,-1132.5 919,-1154"/>
<text text-anchor="middle" x="919" y="-1130" font-family="Arial" font-size="10.00">S&#45;690</text>
</g>
<!-- S&#45;690&#45;&gt;S&#45;685 -->
<g id="edge57" class="edge">
<title>S&#45;690&#45;&gt;S&#45;685</title>
<path fill="none" stroke="#4d4d4d" d="M989.47,-1132C1000.86,-1132 1009,-1132 1009,-1132 1009,-1132 1009,-1031 1009,-1031 1009,-1031 1021.53,-1031 1021.53,-1031"/>
<polygon fill="#4d4d4d" stroke="#4d4d4d" points="1021.53,-1033.45 1028.53,-1031 1021.53,-1028.55 1021.53,-1033.45"/>
</g>
<!-- R&#45;195 -->
<g id="node10" class="node">
<title>R&#45;195</title>
<polygon fill="mediumseagreen" stroke="black" points="725,-921.59 725,-939.41 682.82,-952 623.18,-952 581,-939.41 581,-921.59 623.18,-909 682.82,-909 725,-921.59"/>
<text text-anchor="middle" x="653" y="-928" font-family="Arial" font-size="10.00">R&#45;195</text>
</g>
<!-- C&#45;0854&#45;&gt;R&#45;195 -->
<g id="edge18" class="edge">
<title>C&#45;0854&#45;&gt;R&#45;195</title>
<path fill="none" stroke="#4d4d4d" d="M606,-1014.82C606,-1014.82 606,-954.2 606,-954.2"/>
<polygon fill="#4d4d4d" stroke="#4d4d4d" points="608.45,-954.2 606,-947.2 603.55,-954.2 608.45,-954.2"/>
</g>
<!-- S&#45;652 -->
<g id="node7" class="node">
<title>S&#45;652</title>
<polygon fill="mediumseagreen" stroke="black" points="541,-346 469,-324.5 541,-303 613,-324.5 541,-346"/>
<text text-anchor="middle" x="541" y="-322" font-family="Arial" font-size="10.00">S&#45;652</text>
</g>
<!-- C&#45;0315 -->
<g id="node8" class="node">
<title>C&#45;0315</title>
<ellipse fill="mediumseagreen" stroke="black" cx="721" cy="-324.5" rx="72" ry="21.5"/>
<text text-anchor="middle" x="721" y="-322" font-family="Arial" font-size="10.00">C&#45;0315</text>
</g>
<!-- S&#45;2118 -->
<g id="node11" class="node">
<title>S&#45;2118</title>
<polygon fill="mediumseagreen" stroke="black" points="117,-245 45,-223.5 117,-202 189,-223.5 117,-245"/>
<text text-anchor="middle" x="117" y="-221" font-family="Arial" font-size="10.00">S&#45;2118</text>
</g>
<!-- C&#45;0315&#45;&gt;S&#45;2118 -->
<g id="edge35" class="edge">
<title>C&#45;0315&#45;&gt;S&#45;2118</title>
<path fill="none" stroke="#4d4d4d" d="M665,-310.91C665,-300.53 665,-288 665,-288 665,-288 139.5,-288 139.5,-288 139.5,-288 139.5,-245.46 139.5,-245.46"/>
<polygon fill="#4d4d4d" stroke="#4d4d4d" points="141.95,-245.46 139.5,-238.46 137.05,-245.46 141.95,-245.46"/>
</g>
<!-- C&#45;0992 -->
<g id="node13" class="node">
<title>C&#45;0992</title>
<ellipse fill="mediumseagreen" stroke="black" cx="297" cy="-223.5" rx="72" ry="21.5"/>
<text text-anchor="middle" x="297" y="-221" font-family="Arial" font-size="10.00">C&#45;0992</text>
</g>
<!-- C&#45;0315&#45;&gt;C&#45;0992 -->
<g id="edge38" class="edge">
<title>C&#45;0315&#45;&gt;C&#45;0992</title>
<path fill="none" stroke="#4d4d4d" d="M681,-306.55C681,-292.04 681,-274 681,-274 681,-274 318.5,-274 318.5,-274 318.5,-274 318.5,-251.04 318.5,-251.04"/>
<polygon fill="#4d4d4d" stroke="#4d4d4d" points="320.95,-251.04 318.5,-244.04 316.05,-251.04 320.95,-251.04"/>
</g>
<!-- S&#45;2117 -->
<g id="node24" class="node">
<title>S&#45;2117</title>
<polygon fill="mediumseagreen" stroke="black" points="477,-245 405,-223.5 477,-202 549,-223.5 477,-245"/>
<text text-anchor="middle" x="477" y="-221" font-family="Arial" font-size="10.00">S&#45;2117</text>
</g>
<!-- C&#45;0315&#45;&gt;S&#45;2117 -->
<g id="edge34" class="edge">
<title>C&#45;0315&#45;&gt;S&#45;2117</title>
<path fill="none" stroke="#4d4d4d" d="M697,-304.13C697,-284.91 697,-259 697,-259 697,-259 509,-259 509,-259 509,-259 509,-242.52 509,-242.52"/>
<polygon fill="#4d4d4d" stroke="#4d4d4d" points="511.45,-242.52 509,-235.52 506.55,-242.52 511.45,-242.52"/>
</g>
<!-- S&#45;2155 -->
<g id="node38" class="node">
<title>S&#45;2155</title>
<polygon fill="mediumseagreen" stroke="black" points="657,-245 585,-223.5 657,-202 729,-223.5 657,-245"/>
<text text-anchor="middle" x="657" y="-221" font-family="Arial" font-size="10.00">S&#45;2155</text>
</g>
<!-- C&#45;0315&#45;&gt;S&#45;2155 -->
<g id="edge37" class="edge">
<title>C&#45;0315&#45;&gt;S&#45;2155</title>
<path fill="none" stroke="#4d4d4d" d="M713,-303.08C713,-303.08 713,-235.3 713,-235.3"/>
<polygon fill="#4d4d4d" stroke="#4d4d4d" points="715.45,-235.3 713,-228.3 710.55,-235.3 715.45,-235.3"/>
</g>
<!-- C&#45;0207 -->
<g id="node41" class="node">
<title>C&#45;0207</title>
<ellipse fill="tomato" stroke="black" cx="631" cy="-122.5" rx="72" ry="21.5"/>
<text text-anchor="middle" x="631" y="-120" font-family="Arial" font-size="10.00">C&#45;0207</text>
</g>
<!-- C&#45;0315&#45;&gt;C&#45;0207 -->
<g id="edge40" class="edge">
<title>C&#45;0315&#45;&gt;C&#45;0207</title>
<path fill="none" stroke="#4d4d4d" d="M750.33,-304.71C750.33,-253.76 750.33,-122 750.33,-122 750.33,-122 710.17,-122 710.17,-122"/>
<polygon fill="#4d4d4d" stroke="#4d4d4d" points="710.17,-119.55 703.17,-122 710.17,-124.45 710.17,-119.55"/>
</g>
<!-- S&#45;582 -->
<g id="node44" class="node">
<title>S&#45;582</title>
<polygon fill="mediumseagreen" stroke="black" points="911,-245 839,-223.5 911,-202 983,-223.5 911,-245"/>
<text text-anchor="middle" x="911" y="-221" font-family="Arial" font-size="10.00">S&#45;582</text>
</g>
<!-- C&#45;0315&#45;&gt;S&#45;582 -->
<g id="edge41" class="edge">
<title>C&#45;0315&#45;&gt;S&#45;582</title>
<path fill="none" stroke="#4d4d4d" d="M771.67,-309.08C771.67,-280.69 771.67,-223 771.67,-223 771.67,-223 833.52,-223 833.52,-223"/>
<polygon fill="#4d4d4d" stroke="#4d4d4d" points="833.52,-225.45 840.52,-223 833.52,-220.55 833.52,-225.45"/>
</g>
<!-- S&#45;2357 -->
<g id="node9" class="node">
<title>S&#45;2357</title>
<polygon fill="mediumseagreen" stroke="black" points="1099,-1154 1027,-1132.5 1099,-1111 1171,-1132.5 1099,-1154"/>
<text text-anchor="middle" x="1099" y="-1130" font-family="Arial" font-size="10.00">S&#45;2357</text>
</g>
<!-- C&#45;0856 -->
<g id="node16" class="node">
<title>C&#45;0856</title>
<ellipse fill="mediumseagreen" stroke="black" cx="901" cy="-829.5" rx="72" ry="21.5"/>
<text text-anchor="middle" x="901" y="-827" font-family="Arial" font-size="10.00">C&#45;0856</text>
</g>
<!-- R&#45;195&#45;&gt;C&#45;0856 -->
<g id="edge19" class="edge">
<title>R&#45;195&#45;&gt;C&#45;0856</title>
<path fill="none" stroke="#4d4d4d" d="M725.17,-930C775,-930 832.33,-930 832.33,-930 832.33,-930 832.33,-843.09 832.33,-843.09"/>
<polygon fill="#4d4d4d" stroke="#4d4d4d" points="834.78,-843.09 832.33,-836.09 829.88,-843.09 834.78,-843.09"/>
</g>
<!-- S&#45;581 -->
<g id="node33" class="node">
<title>S&#45;581</title>
<polygon fill="mediumseagreen" stroke="black" points="117,-144 45,-122.5 117,-101 189,-122.5 117,-144"/>
<text text-anchor="middle" x="117" y="-120" font-family="Arial" font-size="10.00">S&#45;581</text>
</g>
<!-- S&#45;2118&#45;&gt;S&#45;581 -->
<g id="edge36" class="edge">
<title>S&#45;2118&#45;&gt;S&#45;581</title>
<path fill="none" stroke="#4d4d4d" d="M117,-201.58C117,-201.58 117,-151.03 117,-151.03"/>
<polygon fill="#4d4d4d" stroke="#4d4d4d" points="119.45,-151.03 117,-144.03 114.55,-151.03 119.45,-151.03"/>
</g>
<!-- S&#45;1975 -->
<g id="node12" class="node">
<title>S&#45;1975</title>
<polygon fill="mediumseagreen" stroke="black" points="1091,-346 1019,-324.5 1091,-303 1163,-324.5 1091,-346"/>
<text text-anchor="middle" x="1091" y="-322" font-family="Arial" font-size="10.00">S&#45;1975</text>
</g>
<!-- S&#45;578 -->
<g id="node19" class="node">
<title>S&#45;578</title>
<polygon fill="mediumseagreen" stroke="black" points="1091,-245 1019,-223.5 1091,-202 1163,-223.5 1091,-245"/>
<text text-anchor="middle" x="1091" y="-221" font-family="Arial" font-size="10.00">S&#45;578</text>
</g>
<!-- S&#45;1975&#45;&gt;S&#45;578 -->
<g id="edge43" class="edge">
<title>S&#45;1975&#45;&gt;S&#45;578</title>
<path fill="none" stroke="#4d4d4d" d="M1091,-302.58C1091,-302.58 1091,-252.03 1091,-252.03"/>
<polygon fill="#4d4d4d" stroke="#4d4d4d" points="1093.45,-252.03 1091,-245.03 1088.55,-252.03 1093.45,-252.03"/>
</g>
<!-- S&#45;579 -->
<g id="node51" class="node">
<title>S&#45;579</title>
<polygon fill="mediumseagreen" stroke="black" points="1271,-245 1199,-223.5 1271,-202 1343,-223.5 1271,-245"/>
<text text-anchor="middle" x="1271" y="-221" font-family="Arial" font-size="10.00">S&#45;579</text>
</g>
<!-- S&#45;1975&#45;&gt;S&#45;579 -->
<g id="edge44" class="edge">
<title>S&#45;1975&#45;&gt;S&#45;579</title>
<path fill="none" stroke="#4d4d4d" d="M1161.44,-324C1165.51,-324 1168,-324 1168,-324 1168,-324 1168,-223 1168,-223 1168,-223 1193.59,-223 1193.59,-223"/>
<polygon fill="#4d4d4d" stroke="#4d4d4d" points="1193.59,-225.45 1200.59,-223 1193.59,-220.55 1193.59,-225.45"/>
</g>
<!-- R&#45;238 -->
<g id="node43" class="node">
<title>R&#45;238</title>
<polygon fill="tomato" stroke="black" points="446,-113.59 446,-131.41 403.82,-144 344.18,-144 302,-131.41 302,-113.59 344.18,-101 403.82,-101 446,-113.59"/>
<text text-anchor="middle" x="374" y="-120" font-family="Arial" font-size="10.00">R&#45;238</text>
</g>
<!-- C&#45;0992&#45;&gt;R&#45;238 -->
<g id="edge39" class="edge">
<title>C&#45;0992&#45;&gt;R&#45;238</title>
<path fill="none" stroke="#4d4d4d" d="M335.5,-204.98C335.5,-204.98 335.5,-148.59 335.5,-148.59"/>
<polygon fill="#4d4d4d" stroke="#4d4d4d" points="337.95,-148.59 335.5,-141.59 333.05,-148.59 337.95,-148.59"/>
</g>
<!-- C&#45;0855&#45;&gt;C&#45;0856 -->
<g id="edge65" class="edge">
<title>C&#45;0855&#45;&gt;C&#45;0856</title>
<path fill="none" stroke="blue" stroke-dasharray="5,2" d="M807.71,-1038C823.45,-1038 835.67,-1038 835.67,-1038 835.67,-1038 835.67,-845.73 835.67,-845.73"/>
<polygon fill="blue" stroke="blue" points="838.12,-845.73 835.67,-838.73 833.22,-845.73 838.12,-845.73"/>
</g>
<!-- S&#45;2095 -->
<g id="node15" class="node">
<title>S&#45;2095</title>
<polygon fill="mediumseagreen" stroke="black" points="986,-952 914,-930.5 986,-909 1058,-930.5 986,-952"/>
<text text-anchor="middle" x="986" y="-928" font-family="Arial" font-size="10.00">S&#45;2095</text>
</g>
<!-- C&#45;0856&#45;&gt;C&#45;0265 -->
<g id="edge22" class="edge">
<title>C&#45;0856&#45;&gt;C&#45;0265</title>
<path fill="none" stroke="#4d4d4d" d="M856,-812.37C856,-812.37 856,-752.38 856,-752.38"/>
<polygon fill="#4d4d4d" stroke="#4d4d4d" points="858.45,-752.38 856,-745.38 853.55,-752.38 858.45,-752.38"/>
</g>
<!-- S&#45;689 -->
<g id="node40" class="node">
<title>S&#45;689</title>
<polygon fill="mediumseagreen" stroke="black" points="991,-750 919,-728.5 991,-707 1063,-728.5 991,-750"/>
<text text-anchor="middle" x="991" y="-726" font-family="Arial" font-size="10.00">S&#45;689</text>
</g>
<!-- C&#45;0856&#45;&gt;S&#45;689 -->
<g id="edge21" class="edge">
<title>C&#45;0856&#45;&gt;S&#45;689</title>
<path fill="none" stroke="#4d4d4d" d="M946,-812.37C946,-812.37 946,-743.78 946,-743.78"/>
<polygon fill="#4d4d4d" stroke="#4d4d4d" points="948.45,-743.78 946,-736.78 943.55,-743.78 948.45,-743.78"/>
</g>
<!-- S&#45;1623 -->
<g id="node42" class="node">
<title>S&#45;1623</title>
<polygon fill="mediumseagreen" stroke="black" points="1171,-750 1099,-728.5 1171,-707 1243,-728.5 1171,-750"/>
<text text-anchor="middle" x="1171" y="-726" font-family="Arial" font-size="10.00">S&#45;1623</text>
</g>
<!-- C&#45;0856&#45;&gt;S&#45;1623 -->
<g id="edge20" class="edge">
<title>C&#45;0856&#45;&gt;S&#45;1623</title>
<path fill="none" stroke="#4d4d4d" d="M973.04,-829C1052.27,-829 1168.5,-829 1168.5,-829 1168.5,-829 1168.5,-756.32 1168.5,-756.32"/>
<polygon fill="#4d4d4d" stroke="#4d4d4d" points="1170.95,-756.32 1168.5,-749.32 1166.05,-756.32 1170.95,-756.32"/>
</g>
<!-- C&#45;0314 -->
<g id="node62" class="node">
<title>C&#45;0314</title>
<ellipse fill="mediumseagreen" stroke="black" cx="1091" cy="-425.5" rx="72" ry="21.5"/>
<text text-anchor="middle" x="1091" y="-423" font-family="Arial" font-size="10.00">C&#45;0314</text>
</g>
<!-- C&#45;0574&#45;&gt;C&#45;0314 -->
<g id="edge68" class="edge">
<title>C&#45;0574&#45;&gt;C&#45;0314</title>
<path fill="none" stroke="blue" stroke-dasharray="5,2" d="M654,-607.07C654,-565.72 654,-476 654,-476 654,-476 1067,-476 1067,-476 1067,-476 1067,-453.04 1067,-453.04"/>
<polygon fill="blue" stroke="blue" points="1069.45,-453.04 1067,-446.04 1064.55,-453.04 1069.45,-453.04"/>
</g>
<!-- C&#45;0688 -->
<g id="node18" class="node">
<title>C&#45;0688</title>
<ellipse fill="mediumseagreen" stroke="black" cx="387" cy="-1536.5" rx="72" ry="21.5"/>
<text text-anchor="middle" x="387" y="-1534" font-family="Arial" font-size="10.00">C&#45;0688</text>
</g>
<!-- C&#45;0308 -->
<g id="node29" class="node">
<title>C&#45;0308</title>
<ellipse fill="tomato" stroke="black" cx="340" cy="-1334.5" rx="72" ry="21.5"/>
<text text-anchor="middle" x="340" y="-1332" font-family="Arial" font-size="10.00">C&#45;0308</text>
</g>
<!-- C&#45;0688&#45;&gt;C&#45;0308 -->
<g id="edge59" class="edge">
<title>C&#45;0688&#45;&gt;C&#45;0308</title>
<path fill="none" stroke="#4d4d4d" d="M363.5,-1516.02C363.5,-1516.02 363.5,-1362.03 363.5,-1362.03"/>
<polygon fill="#4d4d4d" stroke="#4d4d4d" points="365.95,-1362.03 363.5,-1355.03 361.05,-1362.03 365.95,-1362.03"/>
</g>
<!-- C&#45;0103 -->
<g id="node20" class="node">
<title>C&#45;0103</title>
<ellipse fill="tomato" stroke="black" cx="72" cy="-1637.5" rx="72" ry="21.5"/>
<text text-anchor="middle" x="72" y="-1635" font-family="Arial" font-size="10.00">C&#45;0103</text>
</g>
<!-- ext_circ_303_24_ -->
<g id="node63" class="node">
<title>ext_circ_303_24_</title>
<polygon fill="lightpink" stroke="darkorange" stroke-dasharray="5,2" points="234,-1558 90,-1558 90,-1515 234,-1515 234,-1558"/>
<text text-anchor="middle" x="162" y="-1539.5" font-family="Arial" font-size="10.00">Circuito:</text>
<text text-anchor="middle" x="162" y="-1528.5" font-family="Arial" font-size="10.00">303&#45;24&#45;</text>
</g>
<!-- C&#45;0103&#45;&gt;ext_circ_303_24_ -->
<g id="edge62" class="edge">
<title>C&#45;0103&#45;&gt;ext_circ_303_24_</title>
<path fill="none" stroke="darkorange" stroke-dasharray="5,2" d="M117,-1620.37C117,-1620.37 117,-1565.31 117,-1565.31"/>
<polygon fill="darkorange" stroke="darkorange" points="119.45,-1565.31 117,-1558.31 114.55,-1565.31 119.45,-1565.31"/>
</g>
<!-- C&#45;0126 -->
<g id="node21" class="node">
<title>C&#45;0126</title>
<ellipse fill="tomato" stroke="black" cx="252" cy="-1637.5" rx="72" ry="21.5"/>
<text text-anchor="middle" x="252" y="-1635" font-family="Arial" font-size="10.00">C&#45;0126</text>
</g>
<!-- C&#45;0126&#45;&gt;ext_circ_303_24_ -->
<g id="edge63" class="edge">
<title>C&#45;0126&#45;&gt;ext_circ_303_24_</title>
<path fill="none" stroke="darkorange" stroke-dasharray="5,2" d="M207,-1620.37C207,-1620.37 207,-1565.31 207,-1565.31"/>
<polygon fill="darkorange" stroke="darkorange" points="209.45,-1565.31 207,-1558.31 204.55,-1565.31 209.45,-1565.31"/>
</g>
<!-- S&#45;640 -->
<g id="node22" class="node">
<title>S&#45;640</title>
<polygon fill="mediumseagreen" stroke="black" points="1271,-346 1199,-324.5 1271,-303 1343,-324.5 1271,-346"/>
<text text-anchor="middle" x="1271" y="-322" font-family="Arial" font-size="10.00">S&#45;640</text>
</g>
<!-- S&#45;1931 -->
<g id="node48" class="node">
<title>S&#45;1931</title>
<polygon fill="mediumseagreen" stroke="black" points="1451,-245 1379,-223.5 1451,-202 1523,-223.5 1451,-245"/>
<text text-anchor="middle" x="1451" y="-221" font-family="Arial" font-size="10.00">S&#45;1931</text>
</g>
<!-- S&#45;640&#45;&gt;S&#45;1931 -->
<g id="edge47" class="edge">
<title>S&#45;640&#45;&gt;S&#45;1931</title>
<path fill="none" stroke="#4d4d4d" d="M1341.47,-324C1352.86,-324 1361,-324 1361,-324 1361,-324 1361,-223 1361,-223 1361,-223 1373.53,-223 1373.53,-223"/>
<polygon fill="#4d4d4d" stroke="#4d4d4d" points="1373.53,-225.45 1380.53,-223 1373.53,-220.55 1373.53,-225.45"/>
</g>
<!-- S&#45;1964 -->
<g id="node23" class="node">
<title>S&#45;1964</title>
<polygon fill="mediumseagreen" stroke="black" points="1166,-952 1094,-930.5 1166,-909 1238,-930.5 1166,-952"/>
<text text-anchor="middle" x="1166" y="-928" font-family="Arial" font-size="10.00">S&#45;1964</text>
</g>
<!-- S&#45;1136 -->
<g id="node25" class="node">
<title>S&#45;1136</title>
<polygon fill="mediumseagreen" stroke="black" points="589,-1558 517,-1536.5 589,-1515 661,-1536.5 589,-1558"/>
<text text-anchor="middle" x="589" y="-1534" font-family="Arial" font-size="10.00">S&#45;1136</text>
</g>
<!-- S&#45;761 -->
<g id="node26" class="node">
<title>S&#45;761</title>
<polygon fill="mediumseagreen" stroke="black" points="432,-1659 360,-1637.5 432,-1616 504,-1637.5 432,-1659"/>
<text text-anchor="middle" x="432" y="-1635" font-family="Arial" font-size="10.00">S&#45;761</text>
</g>
<!-- R&#45;106 -->
<g id="node27" class="node">
<title>R&#45;106</title>
<polygon fill="mediumseagreen" stroke="black" points="1163,-517.59 1163,-535.41 1120.82,-548 1061.18,-548 1019,-535.41 1019,-517.59 1061.18,-505 1120.82,-505 1163,-517.59"/>
<text text-anchor="middle" x="1091" y="-524" font-family="Arial" font-size="10.00">R&#45;106</text>
</g>
<!-- R&#45;106&#45;&gt;C&#45;0314 -->
<g id="edge30" class="edge">
<title>R&#45;106&#45;&gt;C&#45;0314</title>
<path fill="none" stroke="#4d4d4d" d="M1115,-504.58C1115,-504.58 1115,-453 1115,-453"/>
<polygon fill="#4d4d4d" stroke="#4d4d4d" points="1117.45,-453 1115,-446 1112.55,-453 1117.45,-453"/>
</g>
<!-- R&#45;143 -->
<g id="node52" class="node">
<title>R&#45;143</title>
<polygon fill="tomato" stroke="black" points="803,-517.59 803,-535.41 760.82,-548 701.18,-548 659,-535.41 659,-517.59 701.18,-505 760.82,-505 803,-517.59"/>
<text text-anchor="middle" x="731" y="-524" font-family="Arial" font-size="10.00">R&#45;143</text>
</g>
<!-- C&#45;0733&#45;&gt;R&#45;143 -->
<g id="edge25" class="edge">
<title>C&#45;0733&#45;&gt;R&#45;143</title>
<path fill="none" stroke="#4d4d4d" d="M771,-609.44C771,-609.44 771,-552.08 771,-552.08"/>
<polygon fill="#4d4d4d" stroke="#4d4d4d" points="773.45,-552.08 771,-545.08 768.55,-552.08 773.45,-552.08"/>
</g>
<!-- ext_circ_316_22 -->
<g id="node64" class="node">
<title>ext_circ_316_22</title>
<polygon fill="lightpink" stroke="darkorange" stroke-dasharray="5,2" points="803,-447 659,-447 659,-404 803,-404 803,-447"/>
<text text-anchor="middle" x="731" y="-428.5" font-family="Arial" font-size="10.00">Circuito:</text>
<text text-anchor="middle" x="731" y="-417.5" font-family="Arial" font-size="10.00">316&#45;22</text>
</g>
<!-- C&#45;0308&#45;&gt;ext_circ_316_22 -->
<g id="edge71" class="edge">
<title>C&#45;0308&#45;&gt;ext_circ_316_22</title>
<path fill="none" stroke="darkorange" stroke-dasharray="5,2" d="M374,-1315.5C374,-1184.9 374,-425 374,-425 374,-425 651.76,-425 651.76,-425"/>
<polygon fill="darkorange" stroke="darkorange" points="651.76,-427.45 658.76,-425 651.76,-422.55 651.76,-427.45"/>
</g>
<!-- S&#45;2116 -->
<g id="node30" class="node">
<title>S&#45;2116</title>
<polygon fill="mediumseagreen" stroke="black" points="1451,-346 1379,-324.5 1451,-303 1523,-324.5 1451,-346"/>
<text text-anchor="middle" x="1451" y="-322" font-family="Arial" font-size="10.00">S&#45;2116</text>
</g>
<!-- S&#45;687 -->
<g id="node31" class="node">
<title>S&#45;687</title>
<polygon fill="mediumseagreen" stroke="black" points="1346,-952 1274,-930.5 1346,-909 1418,-930.5 1346,-952"/>
<text text-anchor="middle" x="1346" y="-928" font-family="Arial" font-size="10.00">S&#45;687</text>
</g>
<!-- C&#45;0535 -->
<g id="node32" class="node">
<title>C&#45;0535</title>
<ellipse fill="mediumseagreen" stroke="black" cx="879" cy="-1435.5" rx="72" ry="21.5"/>
<text text-anchor="middle" x="879" y="-1433" font-family="Arial" font-size="10.00">C&#45;0535</text>
</g>
<!-- R&#45;046 -->
<g id="node57" class="node">
<title>R&#45;046</title>
<polygon fill="mediumseagreen" stroke="black" points="983,-1325.59 983,-1343.41 940.82,-1356 881.18,-1356 839,-1343.41 839,-1325.59 881.18,-1313 940.82,-1313 983,-1325.59"/>
<text text-anchor="middle" x="911" y="-1332" font-family="Arial" font-size="10.00">R&#45;046</text>
</g>
<!-- C&#45;0535&#45;&gt;R&#45;046 -->
<g id="edge11" class="edge">
<title>C&#45;0535&#45;&gt;R&#45;046</title>
<path fill="none" stroke="#4d4d4d" d="M895,-1414.08C895,-1414.08 895,-1363.24 895,-1363.24"/>
<polygon fill="#4d4d4d" stroke="#4d4d4d" points="897.45,-1363.24 895,-1356.24 892.55,-1363.24 897.45,-1363.24"/>
</g>
<!-- C&#45;0537 -->
<g id="node35" class="node">
<title>C&#45;0537</title>
<ellipse fill="mediumseagreen" stroke="black" cx="919" cy="-1233.5" rx="72" ry="21.5"/>
<text text-anchor="middle" x="919" y="-1231" font-family="Arial" font-size="10.00">C&#45;0537</text>
</g>
<!-- C&#45;0537&#45;&gt;C&#45;0264 -->
<g id="edge14" class="edge">
<title>C&#45;0537&#45;&gt;C&#45;0264</title>
<path fill="none" stroke="#4d4d4d" d="M846.72,-1233C801.59,-1233 752,-1233 752,-1233 752,-1233 752,-1160.81 752,-1160.81"/>
<polygon fill="#4d4d4d" stroke="#4d4d4d" points="754.45,-1160.81 752,-1153.81 749.55,-1160.81 754.45,-1160.81"/>
</g>
<!-- C&#45;0537&#45;&gt;S&#45;690 -->
<g id="edge56" class="edge">
<title>C&#45;0537&#45;&gt;S&#45;690</title>
<path fill="none" stroke="#4d4d4d" d="M919,-1211.58C919,-1211.58 919,-1161.03 919,-1161.03"/>
<polygon fill="#4d4d4d" stroke="#4d4d4d" points="921.45,-1161.03 919,-1154.03 916.55,-1161.03 921.45,-1161.03"/>
</g>
<!-- C&#45;0537&#45;&gt;S&#45;2357 -->
<g id="edge13" class="edge">
<title>C&#45;0537&#45;&gt;S&#45;2357</title>
<path fill="none" stroke="#4d4d4d" d="M979.95,-1222C1025.16,-1222 1079,-1222 1079,-1222 1079,-1222 1079,-1155.09 1079,-1155.09"/>
<polygon fill="#4d4d4d" stroke="#4d4d4d" points="1081.45,-1155.09 1079,-1148.09 1076.55,-1155.09 1081.45,-1155.09"/>
</g>
<!-- S&#45;686 -->
<g id="node46" class="node">
<title>S&#45;686</title>
<polygon fill="mediumseagreen" stroke="black" points="1279,-1154 1207,-1132.5 1279,-1111 1351,-1132.5 1279,-1154"/>
<text text-anchor="middle" x="1279" y="-1130" font-family="Arial" font-size="10.00">S&#45;686</text>
</g>
<!-- C&#45;0537&#45;&gt;S&#45;686 -->
<g id="edge49" class="edge">
<title>C&#45;0537&#45;&gt;S&#45;686</title>
<path fill="none" stroke="#4d4d4d" d="M991.11,-1233C1090.91,-1233 1259,-1233 1259,-1233 1259,-1233 1259,-1155.2 1259,-1155.2"/>
<polygon fill="#4d4d4d" stroke="#4d4d4d" points="1261.45,-1155.2 1259,-1148.2 1256.55,-1155.2 1261.45,-1155.2"/>
</g>
<!-- C&#45;0459 -->
<g id="node36" class="node">
<title>C&#45;0459</title>
<ellipse fill="mediumseagreen" stroke="black" cx="612" cy="-1637.5" rx="72" ry="21.5"/>
<text text-anchor="middle" x="612" y="-1635" font-family="Arial" font-size="10.00">C&#45;0459</text>
</g>
<!-- C&#45;0459&#45;&gt;C&#45;0688 -->
<g id="edge58" class="edge">
<title>C&#45;0459&#45;&gt;C&#45;0688</title>
<path fill="none" stroke="#4d4d4d" d="M539.86,-1637C523.33,-1637 510.5,-1637 510.5,-1637 510.5,-1637 510.5,-1536 510.5,-1536 510.5,-1536 466.2,-1536 466.2,-1536"/>
<polygon fill="#4d4d4d" stroke="#4d4d4d" points="466.2,-1533.55 459.2,-1536 466.2,-1538.45 466.2,-1533.55"/>
</g>
<!-- C&#45;0459&#45;&gt;S&#45;1136 -->
<g id="edge60" class="edge">
<title>C&#45;0459&#45;&gt;S&#45;1136</title>
<path fill="none" stroke="#4d4d4d" d="M600.5,-1616.08C600.5,-1616.08 600.5,-1561.84 600.5,-1561.84"/>
<polygon fill="#4d4d4d" stroke="#4d4d4d" points="602.95,-1561.84 600.5,-1554.84 598.05,-1561.84 602.95,-1561.84"/>
</g>
<!-- S&#45;1943 -->
<g id="node47" class="node">
<title>S&#45;1943</title>
<polygon fill="mediumseagreen" stroke="black" points="769,-1558 697,-1536.5 769,-1515 841,-1536.5 769,-1558"/>
<text text-anchor="middle" x="769" y="-1534" font-family="Arial" font-size="10.00">S&#45;1943</text>
</g>
<!-- C&#45;0459&#45;&gt;S&#45;1943 -->
<g id="edge6" class="edge">
<title>C&#45;0459&#45;&gt;S&#45;1943</title>
<path fill="none" stroke="#4d4d4d" d="M675.5,-1627.02C675.5,-1601.09 675.5,-1536 675.5,-1536 675.5,-1536 691.61,-1536 691.61,-1536"/>
<polygon fill="#4d4d4d" stroke="#4d4d4d" points="691.61,-1538.45 698.61,-1536 691.61,-1533.55 691.61,-1538.45"/>
</g>
<!-- C&#45;0263 -->
<g id="node59" class="node">
<title>C&#45;0263</title>
<ellipse fill="mediumseagreen" stroke="black" cx="996" cy="-1536.5" rx="72" ry="21.5"/>
<text text-anchor="middle" x="996" y="-1534" font-family="Arial" font-size="10.00">C&#45;0263</text>
</g>
<!-- C&#45;0459&#45;&gt;C&#45;0263 -->
<g id="edge7" class="edge">
<title>C&#45;0459&#45;&gt;C&#45;0263</title>
<path fill="none" stroke="#4d4d4d" d="M684.23,-1637C795.46,-1637 996,-1637 996,-1637 996,-1637 996,-1565.31 996,-1565.31"/>
<polygon fill="#4d4d4d" stroke="#4d4d4d" points="998.45,-1565.31 996,-1558.31 993.55,-1565.31 998.45,-1565.31"/>
</g>
<!-- 303&#45;23&#45; -->
<g id="node37" class="node">
<title>303&#45;23&#45;</title>
<polygon fill="gold" stroke="black" points="414,-1935.59 414,-1953.41 371.82,-1966 312.18,-1966 270,-1953.41 270,-1935.59 312.18,-1923 371.82,-1923 414,-1935.59"/>
<polygon fill="none" stroke="black" points="418,-1932.61 418,-1956.39 372.41,-1970 311.59,-1970 266,-1956.39 266,-1932.61 311.59,-1919 372.41,-1919 418,-1932.61"/>
<text text-anchor="middle" x="342" y="-1942" font-family="Arial" font-size="10.00">303&#45;23&#45;</text>
</g>
<!-- C&#45;0169 -->
<g id="node55" class="node">
<title>C&#45;0169</title>
<ellipse fill="mediumseagreen" stroke="black" cx="342" cy="-1839.5" rx="72" ry="21.5"/>
<text text-anchor="middle" x="342" y="-1837" font-family="Arial" font-size="10.00">C&#45;0169</text>
</g>
<!-- 303&#45;23&#45;&#45;&gt;C&#45;0169 -->
<g id="edge1" class="edge">
<title>303&#45;23&#45;&#45;&gt;C&#45;0169</title>
<path fill="none" stroke="#4d4d4d" d="M342,-1918.81C342,-1918.81 342,-1868.03 342,-1868.03"/>
<polygon fill="#4d4d4d" stroke="#4d4d4d" points="344.45,-1868.03 342,-1861.03 339.55,-1868.03 344.45,-1868.03"/>
</g>
<!-- S&#45;1713 -->
<g id="node39" class="node">
<title>S&#45;1713</title>
<polygon fill="mediumseagreen" stroke="black" points="1059,-1457 987,-1435.5 1059,-1414 1131,-1435.5 1059,-1457"/>
<text text-anchor="middle" x="1059" y="-1433" font-family="Arial" font-size="10.00">S&#45;1713</text>
</g>
<!-- ext_circ_111_24_ -->
<g id="node65" class="node">
<title>ext_circ_111_24_</title>
<polygon fill="lightpink" stroke="darkorange" stroke-dasharray="5,2" points="574,-43 430,-43 430,0 574,0 574,-43"/>
<text text-anchor="middle" x="502" y="-24.5" font-family="Arial" font-size="10.00">Circuito:</text>
<text text-anchor="middle" x="502" y="-13.5" font-family="Arial" font-size="10.00">111&#45;24&#45;</text>
</g>
<!-- C&#45;0207&#45;&gt;ext_circ_111_24_ -->
<g id="edge70" class="edge">
<title>C&#45;0207&#45;&gt;ext_circ_111_24_</title>
<path fill="none" stroke="darkorange" stroke-dasharray="5,2" d="M566.5,-112.82C566.5,-112.82 566.5,-50.32 566.5,-50.32"/>
<polygon fill="darkorange" stroke="darkorange" points="568.95,-50.32 566.5,-43.32 564.05,-50.32 568.95,-50.32"/>
</g>
<!-- R&#45;238&#45;&gt;ext_circ_111_24_ -->
<g id="edge69" class="edge">
<title>R&#45;238&#45;&gt;ext_circ_111_24_</title>
<path fill="none" stroke="darkorange" stroke-dasharray="5,2" d="M438,-110.91C438,-110.91 438,-50.19 438,-50.19"/>
<polygon fill="darkorange" stroke="darkorange" points="440.45,-50.19 438,-43.19 435.55,-50.19 440.45,-50.19"/>
</g>
<!-- C&#45;0536 -->
<g id="node45" class="node">
<title>C&#45;0536</title>
<ellipse fill="tomato" stroke="black" cx="1239" cy="-1435.5" rx="72" ry="21.5"/>
<text text-anchor="middle" x="1239" y="-1433" font-family="Arial" font-size="10.00">C&#45;0536</text>
</g>
<!-- C&#45;0536&#45;&gt;C&#45;0537 -->
<g id="edge64" class="edge">
<title>C&#45;0536&#45;&gt;C&#45;0537</title>
<path fill="none" stroke="blue" stroke-dasharray="5,2" d="M1189,-1419.83C1189,-1374.09 1189,-1244 1189,-1244 1189,-1244 988.96,-1244 988.96,-1244"/>
<polygon fill="blue" stroke="blue" points="988.96,-1241.55 981.96,-1244 988.96,-1246.45 988.96,-1241.55"/>
</g>
<!-- S&#45;688 -->
<g id="node50" class="node">
<title>S&#45;688</title>
<polygon fill="mediumseagreen" stroke="black" points="1279,-1053 1207,-1031.5 1279,-1010 1351,-1031.5 1279,-1053"/>
<text text-anchor="middle" x="1279" y="-1029" font-family="Arial" font-size="10.00">S&#45;688</text>
</g>
<!-- S&#45;686&#45;&gt;S&#45;688 -->
<g id="edge51" class="edge">
<title>S&#45;686&#45;&gt;S&#45;688</title>
<path fill="none" stroke="#4d4d4d" d="M1279,-1110.58C1279,-1110.58 1279,-1060.03 1279,-1060.03"/>
<polygon fill="#4d4d4d" stroke="#4d4d4d" points="1281.45,-1060.03 1279,-1053.03 1276.55,-1060.03 1281.45,-1060.03"/>
</g>
<!-- S&#45;1963 -->
<g id="node60" class="node">
<title>S&#45;1963</title>
<polygon fill="mediumseagreen" stroke="black" points="1459,-1053 1387,-1031.5 1459,-1010 1531,-1031.5 1459,-1053"/>
<text text-anchor="middle" x="1459" y="-1029" font-family="Arial" font-size="10.00">S&#45;1963</text>
</g>
<!-- S&#45;686&#45;&gt;S&#45;1963 -->
<g id="edge50" class="edge">
<title>S&#45;686&#45;&gt;S&#45;1963</title>
<path fill="none" stroke="#4d4d4d" d="M1349.37,-1132C1399.85,-1132 1459,-1132 1459,-1132 1459,-1132 1459,-1060.31 1459,-1060.31"/>
<polygon fill="#4d4d4d" stroke="#4d4d4d" points="1461.45,-1060.31 1459,-1053.31 1456.55,-1060.31 1461.45,-1060.31"/>
</g>
<!-- C&#45;0734&#45;&gt;ext_circ_316_22 -->
<g id="edge66" class="edge">
<title>C&#45;0734&#45;&gt;ext_circ_316_22</title>
<path fill="none" stroke="darkorange" stroke-dasharray="5,2" d="M911,-504.8C911,-473.14 911,-418 911,-418 911,-418 810.18,-418 810.18,-418"/>
<polygon fill="darkorange" stroke="darkorange" points="810.18,-415.55 803.18,-418 810.18,-420.45 810.18,-415.55"/>
</g>
<!-- S&#45;688&#45;&gt;S&#45;2095 -->
<g id="edge55" class="edge">
<title>S&#45;688&#45;&gt;S&#45;2095</title>
<path fill="none" stroke="#4d4d4d" d="M1217.33,-1028.24C1217.33,-1018.46 1217.33,-990 1217.33,-990 1217.33,-990 1042.5,-990 1042.5,-990 1042.5,-990 1042.5,-942.17 1042.5,-942.17"/>
<polygon fill="#4d4d4d" stroke="#4d4d4d" points="1044.95,-942.17 1042.5,-935.17 1040.05,-942.17 1044.95,-942.17"/>
</g>
<!-- S&#45;688&#45;&gt;S&#45;1964 -->
<g id="edge52" class="edge">
<title>S&#45;688&#45;&gt;S&#45;1964</title>
<path fill="none" stroke="#4d4d4d" d="M1227.67,-1025.18C1227.67,-1025.18 1227.67,-940.66 1227.67,-940.66"/>
<polygon fill="#4d4d4d" stroke="#4d4d4d" points="1230.12,-940.66 1227.67,-933.66 1225.22,-940.66 1230.12,-940.66"/>
</g>
<!-- S&#45;688&#45;&gt;S&#45;687 -->
<g id="edge53" class="edge">
<title>S&#45;688&#45;&gt;S&#45;687</title>
<path fill="none" stroke="#4d4d4d" d="M1299.67,-1016.16C1299.67,-1016.16 1299.67,-945.33 1299.67,-945.33"/>
<polygon fill="#4d4d4d" stroke="#4d4d4d" points="1302.12,-945.33 1299.67,-938.33 1297.22,-945.33 1302.12,-945.33"/>
</g>
<!-- S&#45;1561 -->
<g id="node58" class="node">
<title>S&#45;1561</title>
<polygon fill="mediumseagreen" stroke="black" points="1526,-952 1454,-930.5 1526,-909 1598,-930.5 1526,-952"/>
<text text-anchor="middle" x="1526" y="-928" font-family="Arial" font-size="10.00">S&#45;1561</text>
</g>
<!-- S&#45;688&#45;&gt;S&#45;1561 -->
<g id="edge54" class="edge">
<title>S&#45;688&#45;&gt;S&#45;1561</title>
<path fill="none" stroke="#4d4d4d" d="M1325.33,-1023.59C1325.33,-1007.19 1325.33,-971 1325.33,-971 1325.33,-971 1492.5,-971 1492.5,-971 1492.5,-971 1492.5,-949 1492.5,-949"/>
<polygon fill="#4d4d4d" stroke="#4d4d4d" points="1494.95,-949 1492.5,-942 1490.05,-949 1494.95,-949"/>
</g>
<!-- S&#45;2285 -->
<g id="node54" class="node">
<title>S&#45;2285</title>
<polygon fill="mediumseagreen" stroke="black" points="1271,-144 1199,-122.5 1271,-101 1343,-122.5 1271,-144"/>
<text text-anchor="middle" x="1271" y="-120" font-family="Arial" font-size="10.00">S&#45;2285</text>
</g>
<!-- S&#45;579&#45;&gt;S&#45;2285 -->
<g id="edge45" class="edge">
<title>S&#45;579&#45;&gt;S&#45;2285</title>
<path fill="none" stroke="#4d4d4d" d="M1271,-201.58C1271,-201.58 1271,-151.03 1271,-151.03"/>
<polygon fill="#4d4d4d" stroke="#4d4d4d" points="1273.45,-151.03 1271,-144.03 1268.55,-151.03 1273.45,-151.03"/>
</g>
<!-- R&#45;143&#45;&gt;ext_circ_316_22 -->
<g id="edge67" class="edge">
<title>R&#45;143&#45;&gt;ext_circ_316_22</title>
<path fill="none" stroke="darkorange" stroke-dasharray="5,2" d="M731,-504.58C731,-504.58 731,-454.03 731,-454.03"/>
<polygon fill="darkorange" stroke="darkorange" points="733.45,-454.03 731,-447.03 728.55,-454.03 733.45,-454.03"/>
</g>
<!-- C&#45;0575&#45;&gt;R&#45;106 -->
<g id="edge29" class="edge">
<title>C&#45;0575&#45;&gt;R&#45;106</title>
<path fill="none" stroke="#4d4d4d" d="M1078,-606.08C1078,-606.08 1078,-555.24 1078,-555.24"/>
<polygon fill="#4d4d4d" stroke="#4d4d4d" points="1080.45,-555.24 1078,-548.24 1075.55,-555.24 1080.45,-555.24"/>
</g>
<!-- C&#45;0687 -->
<g id="node61" class="node">
<title>C&#45;0687</title>
<ellipse fill="mediumseagreen" stroke="black" cx="342" cy="-1738.5" rx="72" ry="21.5"/>
<text text-anchor="middle" x="342" y="-1736" font-family="Arial" font-size="10.00">C&#45;0687</text>
</g>
<!-- C&#45;0169&#45;&gt;C&#45;0687 -->
<g id="edge2" class="edge">
<title>C&#45;0169&#45;&gt;C&#45;0687</title>
<path fill="none" stroke="#4d4d4d" d="M342,-1817.58C342,-1817.58 342,-1767.03 342,-1767.03"/>
<polygon fill="#4d4d4d" stroke="#4d4d4d" points="344.45,-1767.03 342,-1760.03 339.55,-1767.03 344.45,-1767.03"/>
</g>
<!-- R&#45;046&#45;&gt;C&#45;0537 -->
<g id="edge12" class="edge">
<title>R&#45;046&#45;&gt;C&#45;0537</title>
<path fill="none" stroke="#4d4d4d" d="M915,-1312.58C915,-1312.58 915,-1262.03 915,-1262.03"/>
<polygon fill="#4d4d4d" stroke="#4d4d4d" points="917.45,-1262.03 915,-1255.03 912.55,-1262.03 917.45,-1262.03"/>
</g>
<!-- C&#45;0263&#45;&gt;C&#45;0535 -->
<g id="edge9" class="edge">
<title>C&#45;0263&#45;&gt;C&#45;0535</title>
<path fill="none" stroke="#4d4d4d" d="M937.5,-1523.71C937.5,-1523.71 937.5,-1455.19 937.5,-1455.19"/>
<polygon fill="#4d4d4d" stroke="#4d4d4d" points="939.95,-1455.19 937.5,-1448.19 935.05,-1455.19 939.95,-1455.19"/>
</g>
<!-- C&#45;0263&#45;&gt;S&#45;1713 -->
<g id="edge8" class="edge">
<title>C&#45;0263&#45;&gt;S&#45;1713</title>
<path fill="none" stroke="#4d4d4d" d="M1027.5,-1517.03C1027.5,-1517.03 1027.5,-1454.62 1027.5,-1454.62"/>
<polygon fill="#4d4d4d" stroke="#4d4d4d" points="1029.95,-1454.62 1027.5,-1447.62 1025.05,-1454.62 1029.95,-1454.62"/>
</g>
<!-- C&#45;0263&#45;&gt;C&#45;0536 -->
<g id="edge10" class="edge">
<title>C&#45;0263&#45;&gt;C&#45;0536</title>
<path fill="none" stroke="#4d4d4d" d="M1068.25,-1536C1139.88,-1536 1239,-1536 1239,-1536 1239,-1536 1239,-1464.31 1239,-1464.31"/>
<polygon fill="#4d4d4d" stroke="#4d4d4d" points="1241.45,-1464.31 1239,-1457.31 1236.55,-1464.31 1241.45,-1464.31"/>
</g>
<!-- C&#45;0687&#45;&gt;C&#45;0103 -->
<g id="edge3" class="edge">
<title>C&#45;0687&#45;&gt;C&#45;0103</title>
<path fill="none" stroke="#4d4d4d" d="M270,-1738C190.02,-1738 72,-1738 72,-1738 72,-1738 72,-1666.31 72,-1666.31"/>
<polygon fill="#4d4d4d" stroke="#4d4d4d" points="74.45,-1666.31 72,-1659.31 69.55,-1666.31 74.45,-1666.31"/>
</g>
<!-- C&#45;0687&#45;&gt;C&#45;0126 -->
<g id="edge4" class="edge">
<title>C&#45;0687&#45;&gt;C&#45;0126</title>
<path fill="none" stroke="#4d4d4d" d="M297,-1721.37C297,-1721.37 297,-1661.38 297,-1661.38"/>
<polygon fill="#4d4d4d" stroke="#4d4d4d" points="299.45,-1661.38 297,-1654.38 294.55,-1661.38 299.45,-1661.38"/>
</g>
<!-- C&#45;0687&#45;&gt;S&#45;761 -->
<g id="edge61" class="edge">
<title>C&#45;0687&#45;&gt;S&#45;761</title>
<path fill="none" stroke="#4d4d4d" d="M387,-1721.37C387,-1721.37 387,-1652.78 387,-1652.78"/>
<polygon fill="#4d4d4d" stroke="#4d4d4d" points="389.45,-1652.78 387,-1645.78 384.55,-1652.78 389.45,-1652.78"/>
</g>
<!-- C&#45;0687&#45;&gt;C&#45;0459 -->
<g id="edge5" class="edge">
<title>C&#45;0687&#45;&gt;C&#45;0459</title>
<path fill="none" stroke="#4d4d4d" d="M414,-1738C493.98,-1738 612,-1738 612,-1738 612,-1738 612,-1666.31 612,-1666.31"/>
<polygon fill="#4d4d4d" stroke="#4d4d4d" points="614.45,-1666.31 612,-1659.31 609.55,-1666.31 614.45,-1666.31"/>
</g>
<!-- C&#45;0314&#45;&gt;S&#45;652 -->
<g id="edge32" class="edge">
<title>C&#45;0314&#45;&gt;S&#45;652</title>
<path fill="none" stroke="#4d4d4d" d="M1067,-404.96C1067,-390.98 1067,-375 1067,-375 1067,-375 586,-375 586,-375 586,-375 586,-339.84 586,-339.84"/>
<polygon fill="#4d4d4d" stroke="#4d4d4d" points="588.45,-339.84 586,-332.84 583.55,-339.84 588.45,-339.84"/>
</g>
<!-- C&#45;0314&#45;&gt;C&#45;0315 -->
<g id="edge33" class="edge">
<title>C&#45;0314&#45;&gt;C&#45;0315</title>
<path fill="none" stroke="#4d4d4d" d="M1021.99,-432C1012.54,-432 1006,-432 1006,-432 1006,-432 1006,-324 1006,-324 1006,-324 800.29,-324 800.29,-324"/>
<polygon fill="#4d4d4d" stroke="#4d4d4d" points="800.29,-321.55 793.29,-324 800.29,-326.45 800.29,-321.55"/>
</g>
<!-- C&#45;0314&#45;&gt;S&#45;1975 -->
<g id="edge42" class="edge">
<title>C&#45;0314&#45;&gt;S&#45;1975</title>
<path fill="none" stroke="#4d4d4d" d="M1115,-405.06C1115,-405.06 1115,-346.03 1115,-346.03"/>
<polygon fill="#4d4d4d" stroke="#4d4d4d" points="1117.45,-346.03 1115,-339.03 1112.55,-346.03 1117.45,-346.03"/>
</g>
<!-- C&#45;0314&#45;&gt;S&#45;640 -->
<g id="edge46" class="edge">
<title>C&#45;0314&#45;&gt;S&#45;640</title>
<path fill="none" stroke="#4d4d4d" d="M1158.93,-418C1205.16,-418 1258,-418 1258,-418 1258,-418 1258,-349.53 1258,-349.53"/>
<polygon fill="#4d4d4d" stroke="#4d4d4d" points="1260.45,-349.53 1258,-342.53 1255.55,-349.53 1260.45,-349.53"/>
</g>
<!-- C&#45;0314&#45;&gt;S&#45;2116 -->
<g id="edge31" class="edge">
<title>C&#45;0314&#45;&gt;S&#45;2116</title>
<path fill="none" stroke="#4d4d4d" d="M1160.01,-432C1250.67,-432 1398.5,-432 1398.5,-432 1398.5,-432 1398.5,-337.59 1398.5,-337.59"/>
<polygon fill="#4d4d4d" stroke="#4d4d4d" points="1400.95,-337.59 1398.5,-330.59 1396.05,-337.59 1400.95,-337.59"/>
</g>
</g>
</svg>
