<?xml version="1.0" encoding="UTF-8" standalone="no"?>
<!DOCTYPE svg PUBLIC "-//W3C//DTD SVG 1.1//EN"
 "http://www.w3.org/Graphics/SVG/1.1/DTD/svg11.dtd">
<!-- Generated by graphviz version 2.50.0 (0)
 -->
<!-- Title: Grafo_Circuito_304_22_ Pages: 1 -->
<svg width="1126pt" height="1271pt"
 viewBox="0.00 0.00 1126.00 1271.00" xmlns="http://www.w3.org/2000/svg" xmlns:xlink="http://www.w3.org/1999/xlink">
<g id="graph0" class="graph" transform="scale(1 1) rotate(0) translate(4 1267)">
<title>Grafo_Circuito_304_22_</title>
<polygon fill="white" stroke="transparent" points="-4,4 -4,-1267 1122,-1267 1122,4 -4,4"/>
<!-- S&#45;2276 -->
<g id="node1" class="node">
<title>S&#45;2276</title>
<polygon fill="mediumseagreen" stroke="black" points="432,-245 360,-223.5 432,-202 504,-223.5 432,-245"/>
<text text-anchor="middle" x="432" y="-221" font-family="Arial" font-size="10.00">S&#45;2276</text>
</g>
<!-- C&#45;0725 -->
<g id="node2" class="node">
<title>C&#45;0725</title>
<ellipse fill="mediumseagreen" stroke="black" cx="612" cy="-223.5" rx="72" ry="21.5"/>
<text text-anchor="middle" x="612" y="-221" font-family="Arial" font-size="10.00">C&#45;0725</text>
</g>
<!-- R&#45;160 -->
<g id="node5" class="node">
<title>R&#45;160</title>
<polygon fill="tomato" stroke="black" points="670,-113.59 670,-131.41 627.82,-144 568.18,-144 526,-131.41 526,-113.59 568.18,-101 627.82,-101 670,-113.59"/>
<text text-anchor="middle" x="598" y="-120" font-family="Arial" font-size="10.00">R&#45;160</text>
</g>
<!-- C&#45;0725&#45;&gt;R&#45;160 -->
<g id="edge26" class="edge">
<title>C&#45;0725&#45;&gt;R&#45;160</title>
<path fill="none" stroke="#4d4d4d" d="M605,-202.08C605,-202.08 605,-151.24 605,-151.24"/>
<polygon fill="#4d4d4d" stroke="#4d4d4d" points="607.45,-151.24 605,-144.24 602.55,-151.24 607.45,-151.24"/>
</g>
<!-- C&#45;0035 -->
<g id="node3" class="node">
<title>C&#45;0035</title>
<ellipse fill="mediumseagreen" stroke="black" cx="188" cy="-1132.5" rx="72" ry="21.5"/>
<text text-anchor="middle" x="188" y="-1130" font-family="Arial" font-size="10.00">C&#45;0035</text>
</g>
<!-- C&#45;0034 -->
<g id="node12" class="node">
<title>C&#45;0034</title>
<ellipse fill="tomato" stroke="black" cx="99" cy="-930.5" rx="72" ry="21.5"/>
<text text-anchor="middle" x="99" y="-928" font-family="Arial" font-size="10.00">C&#45;0034</text>
</g>
<!-- C&#45;0035&#45;&gt;C&#45;0034 -->
<g id="edge2" class="edge">
<title>C&#45;0035&#45;&gt;C&#45;0034</title>
<path fill="none" stroke="#4d4d4d" d="M143.5,-1115.28C143.5,-1115.28 143.5,-954.68 143.5,-954.68"/>
<polygon fill="#4d4d4d" stroke="#4d4d4d" points="145.95,-954.68 143.5,-947.68 141.05,-954.68 145.95,-954.68"/>
</g>
<!-- S&#45;892 -->
<g id="node19" class="node">
<title>S&#45;892</title>
<polygon fill="mediumseagreen" stroke="black" points="265,-1053 193,-1031.5 265,-1010 337,-1031.5 265,-1053"/>
<text text-anchor="middle" x="265" y="-1029" font-family="Arial" font-size="10.00">S&#45;892</text>
</g>
<!-- C&#45;0035&#45;&gt;S&#45;892 -->
<g id="edge3" class="edge">
<title>C&#45;0035&#45;&gt;S&#45;892</title>
<path fill="none" stroke="#4d4d4d" d="M226.5,-1113.98C226.5,-1113.98 226.5,-1048.6 226.5,-1048.6"/>
<polygon fill="#4d4d4d" stroke="#4d4d4d" points="228.95,-1048.6 226.5,-1041.6 224.05,-1048.6 228.95,-1048.6"/>
</g>
<!-- 304&#45;22&#45; -->
<g id="node4" class="node">
<title>304&#45;22&#45;</title>
<polygon fill="gold" stroke="black" points="260,-1228.59 260,-1246.41 217.82,-1259 158.18,-1259 116,-1246.41 116,-1228.59 158.18,-1216 217.82,-1216 260,-1228.59"/>
<polygon fill="none" stroke="black" points="264,-1225.61 264,-1249.39 218.41,-1263 157.59,-1263 112,-1249.39 112,-1225.61 157.59,-1212 218.41,-1212 264,-1225.61"/>
<text text-anchor="middle" x="188" y="-1235" font-family="Arial" font-size="10.00">304&#45;22&#45;</text>
</g>
<!-- 304&#45;22&#45;&#45;&gt;C&#45;0035 -->
<g id="edge1" class="edge">
<title>304&#45;22&#45;&#45;&gt;C&#45;0035</title>
<path fill="none" stroke="#4d4d4d" d="M188,-1211.81C188,-1211.81 188,-1161.03 188,-1161.03"/>
<polygon fill="#4d4d4d" stroke="#4d4d4d" points="190.45,-1161.03 188,-1154.03 185.55,-1161.03 190.45,-1161.03"/>
</g>
<!-- ext_circ_307_24_ -->
<g id="node35" class="node">
<title>ext_circ_307_24_</title>
<polygon fill="lightpink" stroke="darkorange" stroke-dasharray="5,2" points="760,-43 616,-43 616,0 760,0 760,-43"/>
<text text-anchor="middle" x="688" y="-24.5" font-family="Arial" font-size="10.00">Circuito:</text>
<text text-anchor="middle" x="688" y="-13.5" font-family="Arial" font-size="10.00">307&#45;24&#45;</text>
</g>
<!-- R&#45;160&#45;&gt;ext_circ_307_24_ -->
<g id="edge38" class="edge">
<title>R&#45;160&#45;&gt;ext_circ_307_24_</title>
<path fill="none" stroke="darkorange" stroke-dasharray="5,2" d="M643,-105.37C643,-105.37 643,-50.31 643,-50.31"/>
<polygon fill="darkorange" stroke="darkorange" points="645.45,-50.31 643,-43.31 640.55,-50.31 645.45,-50.31"/>
</g>
<!-- S&#45;894 -->
<g id="node6" class="node">
<title>S&#45;894</title>
<polygon fill="mediumseagreen" stroke="black" points="612,-548 540,-526.5 612,-505 684,-526.5 612,-548"/>
<text text-anchor="middle" x="612" y="-524" font-family="Arial" font-size="10.00">S&#45;894</text>
</g>
<!-- R&#45;140 -->
<g id="node7" class="node">
<title>R&#45;140</title>
<polygon fill="mediumseagreen" stroke="black" points="806,-719.59 806,-737.41 763.82,-750 704.18,-750 662,-737.41 662,-719.59 704.18,-707 763.82,-707 806,-719.59"/>
<text text-anchor="middle" x="734" y="-726" font-family="Arial" font-size="10.00">R&#45;140</text>
</g>
<!-- C&#45;0412 -->
<g id="node11" class="node">
<title>C&#45;0412</title>
<ellipse fill="mediumseagreen" stroke="black" cx="792" cy="-627.5" rx="72" ry="21.5"/>
<text text-anchor="middle" x="792" y="-625" font-family="Arial" font-size="10.00">C&#45;0412</text>
</g>
<!-- R&#45;140&#45;&gt;C&#45;0412 -->
<g id="edge8" class="edge">
<title>R&#45;140&#45;&gt;C&#45;0412</title>
<path fill="none" stroke="#4d4d4d" d="M763,-706.58C763,-706.58 763,-654.32 763,-654.32"/>
<polygon fill="#4d4d4d" stroke="#4d4d4d" points="765.45,-654.32 763,-647.32 760.55,-654.32 765.45,-654.32"/>
</g>
<!-- S&#45;862 -->
<g id="node8" class="node">
<title>S&#45;862</title>
<polygon fill="mediumseagreen" stroke="black" points="432,-548 360,-526.5 432,-505 504,-526.5 432,-548"/>
<text text-anchor="middle" x="432" y="-524" font-family="Arial" font-size="10.00">S&#45;862</text>
</g>
<!-- C&#45;0410 -->
<g id="node9" class="node">
<title>C&#45;0410</title>
<ellipse fill="tomato" stroke="black" cx="792" cy="-829.5" rx="72" ry="21.5"/>
<text text-anchor="middle" x="792" y="-827" font-family="Arial" font-size="10.00">C&#45;0410</text>
</g>
<!-- C&#45;0410&#45;&gt;C&#45;0412 -->
<g id="edge33" class="edge">
<title>C&#45;0410&#45;&gt;C&#45;0412</title>
<path fill="none" stroke="blue" stroke-dasharray="5,2" d="M835,-811.93C835,-811.93 835,-651.89 835,-651.89"/>
<polygon fill="blue" stroke="blue" points="837.45,-651.89 835,-644.89 832.55,-651.89 837.45,-651.89"/>
</g>
<!-- S&#45;1916 -->
<g id="node10" class="node">
<title>S&#45;1916</title>
<polygon fill="mediumseagreen" stroke="black" points="432,-447 360,-425.5 432,-404 504,-425.5 432,-447"/>
<text text-anchor="middle" x="432" y="-423" font-family="Arial" font-size="10.00">S&#45;1916</text>
</g>
<!-- C&#45;0412&#45;&gt;S&#45;894 -->
<g id="edge9" class="edge">
<title>C&#45;0412&#45;&gt;S&#45;894</title>
<path fill="none" stroke="#4d4d4d" d="M719.69,-627C694.77,-627 673,-627 673,-627 673,-627 673,-536.84 673,-536.84"/>
<polygon fill="#4d4d4d" stroke="#4d4d4d" points="675.45,-536.84 673,-529.84 670.55,-536.84 675.45,-536.84"/>
</g>
<!-- C&#45;0218 -->
<g id="node17" class="node">
<title>C&#45;0218</title>
<ellipse fill="tomato" stroke="black" cx="932" cy="-425.5" rx="72" ry="21.5"/>
<text text-anchor="middle" x="932" y="-423" font-family="Arial" font-size="10.00">C&#45;0218</text>
</g>
<!-- C&#45;0412&#45;&gt;C&#45;0218 -->
<g id="edge10" class="edge">
<title>C&#45;0412&#45;&gt;C&#45;0218</title>
<path fill="none" stroke="#4d4d4d" d="M859.59,-620C889.92,-620 919,-620 919,-620 919,-620 919,-453.69 919,-453.69"/>
<polygon fill="#4d4d4d" stroke="#4d4d4d" points="921.45,-453.69 919,-446.69 916.55,-453.69 921.45,-453.69"/>
</g>
<!-- C&#45;0977 -->
<g id="node21" class="node">
<title>C&#45;0977</title>
<ellipse fill="mediumseagreen" stroke="black" cx="792" cy="-526.5" rx="72" ry="21.5"/>
<text text-anchor="middle" x="792" y="-524" font-family="Arial" font-size="10.00">C&#45;0977</text>
</g>
<!-- C&#45;0412&#45;&gt;C&#45;0977 -->
<g id="edge11" class="edge">
<title>C&#45;0412&#45;&gt;C&#45;0977</title>
<path fill="none" stroke="#4d4d4d" d="M792,-605.58C792,-605.58 792,-555.03 792,-555.03"/>
<polygon fill="#4d4d4d" stroke="#4d4d4d" points="794.45,-555.03 792,-548.03 789.55,-555.03 794.45,-555.03"/>
</g>
<!-- S&#45;895 -->
<g id="node32" class="node">
<title>S&#45;895</title>
<polygon fill="mediumseagreen" stroke="black" points="1046,-548 974,-526.5 1046,-505 1118,-526.5 1046,-548"/>
<text text-anchor="middle" x="1046" y="-524" font-family="Arial" font-size="10.00">S&#45;895</text>
</g>
<!-- C&#45;0412&#45;&gt;S&#45;895 -->
<g id="edge13" class="edge">
<title>C&#45;0412&#45;&gt;S&#45;895</title>
<path fill="none" stroke="#4d4d4d" d="M860.74,-634C935.96,-634 1046,-634 1046,-634 1046,-634 1046,-555.25 1046,-555.25"/>
<polygon fill="#4d4d4d" stroke="#4d4d4d" points="1048.45,-555.25 1046,-548.25 1043.55,-555.25 1048.45,-555.25"/>
</g>
<!-- ext_circ_304_23_ -->
<g id="node33" class="node">
<title>ext_circ_304_23_</title>
<polygon fill="lightpink" stroke="darkorange" stroke-dasharray="5,2" points="144,-144 0,-144 0,-101 144,-101 144,-144"/>
<text text-anchor="middle" x="72" y="-125.5" font-family="Arial" font-size="10.00">Circuito:</text>
<text text-anchor="middle" x="72" y="-114.5" font-family="Arial" font-size="10.00">304&#45;23&#45;</text>
</g>
<!-- C&#45;0034&#45;&gt;ext_circ_304_23_ -->
<g id="edge32" class="edge">
<title>C&#45;0034&#45;&gt;ext_circ_304_23_</title>
<path fill="none" stroke="darkorange" stroke-dasharray="5,2" d="M157.5,-917.91C157.5,-815.94 157.5,-129 157.5,-129 157.5,-129 151.14,-129 151.14,-129"/>
<polygon fill="darkorange" stroke="darkorange" points="151.14,-126.55 144.14,-129 151.14,-131.45 151.14,-126.55"/>
</g>
<!-- C&#45;0722 -->
<g id="node13" class="node">
<title>C&#45;0722</title>
<ellipse fill="mediumseagreen" stroke="black" cx="252" cy="-829.5" rx="72" ry="21.5"/>
<text text-anchor="middle" x="252" y="-827" font-family="Arial" font-size="10.00">C&#45;0722</text>
</g>
<!-- R&#45;067 -->
<g id="node14" class="node">
<title>R&#45;067</title>
<polygon fill="mediumseagreen" stroke="black" points="324,-719.59 324,-737.41 281.82,-750 222.18,-750 180,-737.41 180,-719.59 222.18,-707 281.82,-707 324,-719.59"/>
<text text-anchor="middle" x="252" y="-726" font-family="Arial" font-size="10.00">R&#45;067</text>
</g>
<!-- C&#45;0722&#45;&gt;R&#45;067 -->
<g id="edge16" class="edge">
<title>C&#45;0722&#45;&gt;R&#45;067</title>
<path fill="none" stroke="#4d4d4d" d="M252,-807.58C252,-807.58 252,-757.03 252,-757.03"/>
<polygon fill="#4d4d4d" stroke="#4d4d4d" points="254.45,-757.03 252,-750.03 249.55,-757.03 254.45,-757.03"/>
</g>
<!-- C&#45;0724 -->
<g id="node23" class="node">
<title>C&#45;0724</title>
<ellipse fill="mediumseagreen" stroke="black" cx="252" cy="-627.5" rx="72" ry="21.5"/>
<text text-anchor="middle" x="252" y="-625" font-family="Arial" font-size="10.00">C&#45;0724</text>
</g>
<!-- R&#45;067&#45;&gt;C&#45;0724 -->
<g id="edge17" class="edge">
<title>R&#45;067&#45;&gt;C&#45;0724</title>
<path fill="none" stroke="#4d4d4d" d="M252,-706.58C252,-706.58 252,-656.03 252,-656.03"/>
<polygon fill="#4d4d4d" stroke="#4d4d4d" points="254.45,-656.03 252,-649.03 249.55,-656.03 254.45,-656.03"/>
</g>
<!-- C&#45;0726 -->
<g id="node15" class="node">
<title>C&#45;0726</title>
<ellipse fill="tomato" stroke="black" cx="778" cy="-122.5" rx="72" ry="21.5"/>
<text text-anchor="middle" x="778" y="-120" font-family="Arial" font-size="10.00">C&#45;0726</text>
</g>
<!-- C&#45;0726&#45;&gt;ext_circ_307_24_ -->
<g id="edge37" class="edge">
<title>C&#45;0726&#45;&gt;ext_circ_307_24_</title>
<path fill="none" stroke="darkorange" stroke-dasharray="5,2" d="M733,-105.37C733,-105.37 733,-50.31 733,-50.31"/>
<polygon fill="darkorange" stroke="darkorange" points="735.45,-50.31 733,-43.31 730.55,-50.31 735.45,-50.31"/>
</g>
<!-- C&#45;0723 -->
<g id="node16" class="node">
<title>C&#45;0723</title>
<ellipse fill="tomato" stroke="black" cx="432" cy="-829.5" rx="72" ry="21.5"/>
<text text-anchor="middle" x="432" y="-827" font-family="Arial" font-size="10.00">C&#45;0723</text>
</g>
<!-- C&#45;0723&#45;&gt;C&#45;0724 -->
<g id="edge36" class="edge">
<title>C&#45;0723&#45;&gt;C&#45;0724</title>
<path fill="none" stroke="blue" stroke-dasharray="5,2" d="M408,-809.01C408,-759.6 408,-638 408,-638 408,-638 322,-638 322,-638"/>
<polygon fill="blue" stroke="blue" points="322,-635.55 315,-638 322,-640.45 322,-635.55"/>
</g>
<!-- ext_circ_304_26_ -->
<g id="node34" class="node">
<title>ext_circ_304_26_</title>
<polygon fill="lightpink" stroke="darkorange" stroke-dasharray="5,2" points="850,-346 706,-346 706,-303 850,-303 850,-346"/>
<text text-anchor="middle" x="778" y="-327.5" font-family="Arial" font-size="10.00">Circuito:</text>
<text text-anchor="middle" x="778" y="-316.5" font-family="Arial" font-size="10.00">304&#45;26&#45;</text>
</g>
<!-- C&#45;0218&#45;&gt;ext_circ_304_26_ -->
<g id="edge34" class="edge">
<title>C&#45;0218&#45;&gt;ext_circ_304_26_</title>
<path fill="none" stroke="darkorange" stroke-dasharray="5,2" d="M860,-425C846.75,-425 837,-425 837,-425 837,-425 837,-353.31 837,-353.31"/>
<polygon fill="darkorange" stroke="darkorange" points="839.45,-353.31 837,-346.31 834.55,-353.31 839.45,-353.31"/>
</g>
<!-- C&#45;0411 -->
<g id="node18" class="node">
<title>C&#45;0411</title>
<ellipse fill="mediumseagreen" stroke="black" cx="612" cy="-829.5" rx="72" ry="21.5"/>
<text text-anchor="middle" x="612" y="-827" font-family="Arial" font-size="10.00">C&#45;0411</text>
</g>
<!-- C&#45;0411&#45;&gt;R&#45;140 -->
<g id="edge7" class="edge">
<title>C&#45;0411&#45;&gt;R&#45;140</title>
<path fill="none" stroke="#4d4d4d" d="M673,-817.91C673,-817.91 673,-747.89 673,-747.89"/>
<polygon fill="#4d4d4d" stroke="#4d4d4d" points="675.45,-747.89 673,-740.89 670.55,-747.89 675.45,-747.89"/>
</g>
<!-- S&#45;1326 -->
<g id="node22" class="node">
<title>S&#45;1326</title>
<polygon fill="mediumseagreen" stroke="black" points="432,-952 360,-930.5 432,-909 504,-930.5 432,-952"/>
<text text-anchor="middle" x="432" y="-928" font-family="Arial" font-size="10.00">S&#45;1326</text>
</g>
<!-- S&#45;892&#45;&gt;S&#45;1326 -->
<g id="edge4" class="edge">
<title>S&#45;892&#45;&gt;S&#45;1326</title>
<path fill="none" stroke="#4d4d4d" d="M333.75,-1030.44C333.75,-1020.06 333.75,-937 333.75,-937 333.75,-937 374.72,-937 374.72,-937"/>
<polygon fill="#4d4d4d" stroke="#4d4d4d" points="374.72,-939.45 381.72,-937 374.72,-934.55 374.72,-939.45"/>
</g>
<!-- C&#45;0027 -->
<g id="node20" class="node">
<title>C&#45;0027</title>
<ellipse fill="tomato" stroke="black" cx="252" cy="-223.5" rx="72" ry="21.5"/>
<text text-anchor="middle" x="252" y="-221" font-family="Arial" font-size="10.00">C&#45;0027</text>
</g>
<!-- C&#45;0027&#45;&gt;ext_circ_304_23_ -->
<g id="edge39" class="edge">
<title>C&#45;0027&#45;&gt;ext_circ_304_23_</title>
<path fill="none" stroke="darkorange" stroke-dasharray="5,2" d="M252,-201.8C252,-170.14 252,-115 252,-115 252,-115 151.18,-115 151.18,-115"/>
<polygon fill="darkorange" stroke="darkorange" points="151.18,-112.55 144.18,-115 151.18,-117.45 151.18,-112.55"/>
</g>
<!-- R&#45;233 -->
<g id="node29" class="node">
<title>R&#45;233</title>
<polygon fill="tomato" stroke="black" points="824,-416.59 824,-434.41 781.82,-447 722.18,-447 680,-434.41 680,-416.59 722.18,-404 781.82,-404 824,-416.59"/>
<text text-anchor="middle" x="752" y="-423" font-family="Arial" font-size="10.00">R&#45;233</text>
</g>
<!-- C&#45;0977&#45;&gt;R&#45;233 -->
<g id="edge12" class="edge">
<title>C&#45;0977&#45;&gt;R&#45;233</title>
<path fill="none" stroke="#4d4d4d" d="M772,-505.57C772,-505.57 772,-454.1 772,-454.1"/>
<polygon fill="#4d4d4d" stroke="#4d4d4d" points="774.45,-454.1 772,-447.1 769.55,-454.1 774.45,-454.1"/>
</g>
<!-- S&#45;1326&#45;&gt;C&#45;0410 -->
<g id="edge6" class="edge">
<title>S&#45;1326&#45;&gt;C&#45;0410</title>
<path fill="none" stroke="#4d4d4d" d="M482.44,-937C581.51,-937 792,-937 792,-937 792,-937 792,-858.25 792,-858.25"/>
<polygon fill="#4d4d4d" stroke="#4d4d4d" points="794.45,-858.25 792,-851.25 789.55,-858.25 794.45,-858.25"/>
</g>
<!-- S&#45;1326&#45;&gt;C&#45;0722 -->
<g id="edge15" class="edge">
<title>S&#45;1326&#45;&gt;C&#45;0722</title>
<path fill="none" stroke="#4d4d4d" d="M385.05,-923C333.67,-923 258.5,-923 258.5,-923 258.5,-923 258.5,-858.19 258.5,-858.19"/>
<polygon fill="#4d4d4d" stroke="#4d4d4d" points="260.95,-858.19 258.5,-851.19 256.05,-858.19 260.95,-858.19"/>
</g>
<!-- S&#45;1326&#45;&gt;C&#45;0723 -->
<g id="edge14" class="edge">
<title>S&#45;1326&#45;&gt;C&#45;0723</title>
<path fill="none" stroke="#4d4d4d" d="M432,-908.58C432,-908.58 432,-858.03 432,-858.03"/>
<polygon fill="#4d4d4d" stroke="#4d4d4d" points="434.45,-858.03 432,-851.03 429.55,-858.03 434.45,-858.03"/>
</g>
<!-- S&#45;1326&#45;&gt;C&#45;0411 -->
<g id="edge5" class="edge">
<title>S&#45;1326&#45;&gt;C&#45;0411</title>
<path fill="none" stroke="#4d4d4d" d="M479.29,-923C532.62,-923 612,-923 612,-923 612,-923 612,-858.19 612,-858.19"/>
<polygon fill="#4d4d4d" stroke="#4d4d4d" points="614.45,-858.19 612,-851.19 609.55,-858.19 614.45,-858.19"/>
</g>
<!-- C&#45;0724&#45;&gt;S&#45;862 -->
<g id="edge19" class="edge">
<title>C&#45;0724&#45;&gt;S&#45;862</title>
<path fill="none" stroke="#4d4d4d" d="M312.93,-616C373.04,-616 456,-616 456,-616 456,-616 456,-547.88 456,-547.88"/>
<polygon fill="#4d4d4d" stroke="#4d4d4d" points="458.45,-547.88 456,-540.88 453.55,-547.88 458.45,-547.88"/>
</g>
<!-- S&#45;1112 -->
<g id="node26" class="node">
<title>S&#45;1112</title>
<polygon fill="mediumseagreen" stroke="black" points="72,-548 0,-526.5 72,-505 144,-526.5 72,-548"/>
<text text-anchor="middle" x="72" y="-524" font-family="Arial" font-size="10.00">S&#45;1112</text>
</g>
<!-- C&#45;0724&#45;&gt;S&#45;1112 -->
<g id="edge31" class="edge">
<title>C&#45;0724&#45;&gt;S&#45;1112</title>
<path fill="none" stroke="#4d4d4d" d="M179.94,-627C134.94,-627 85.5,-627 85.5,-627 85.5,-627 85.5,-551.01 85.5,-551.01"/>
<polygon fill="#4d4d4d" stroke="#4d4d4d" points="87.95,-551.01 85.5,-544.01 83.05,-551.01 87.95,-551.01"/>
</g>
<!-- S&#45;861 -->
<g id="node30" class="node">
<title>S&#45;861</title>
<polygon fill="mediumseagreen" stroke="black" points="252,-548 180,-526.5 252,-505 324,-526.5 252,-548"/>
<text text-anchor="middle" x="252" y="-524" font-family="Arial" font-size="10.00">S&#45;861</text>
</g>
<!-- C&#45;0724&#45;&gt;S&#45;861 -->
<g id="edge18" class="edge">
<title>C&#45;0724&#45;&gt;S&#45;861</title>
<path fill="none" stroke="#4d4d4d" d="M252,-605.58C252,-605.58 252,-555.03 252,-555.03"/>
<polygon fill="#4d4d4d" stroke="#4d4d4d" points="254.45,-555.03 252,-548.03 249.55,-555.03 254.45,-555.03"/>
</g>
<!-- R&#45;276 -->
<g id="node24" class="node">
<title>R&#45;276</title>
<polygon fill="tomato" stroke="black" points="144,-214.59 144,-232.41 101.82,-245 42.18,-245 0,-232.41 0,-214.59 42.18,-202 101.82,-202 144,-214.59"/>
<text text-anchor="middle" x="72" y="-221" font-family="Arial" font-size="10.00">R&#45;276</text>
</g>
<!-- R&#45;276&#45;&gt;ext_circ_304_23_ -->
<g id="edge40" class="edge">
<title>R&#45;276&#45;&gt;ext_circ_304_23_</title>
<path fill="none" stroke="darkorange" stroke-dasharray="5,2" d="M72,-201.58C72,-201.58 72,-151.03 72,-151.03"/>
<polygon fill="darkorange" stroke="darkorange" points="74.45,-151.03 72,-144.03 69.55,-151.03 74.45,-151.03"/>
</g>
<!-- S&#45;1915 -->
<g id="node25" class="node">
<title>S&#45;1915</title>
<polygon fill="mediumseagreen" stroke="black" points="252,-447 180,-425.5 252,-404 324,-425.5 252,-447"/>
<text text-anchor="middle" x="252" y="-423" font-family="Arial" font-size="10.00">S&#45;1915</text>
</g>
<!-- S&#45;1915&#45;&gt;C&#45;0027 -->
<g id="edge27" class="edge">
<title>S&#45;1915&#45;&gt;C&#45;0027</title>
<path fill="none" stroke="#4d4d4d" d="M204.86,-418C189.12,-418 175.5,-418 175.5,-418 175.5,-418 175.5,-223 175.5,-223 175.5,-223 175.91,-223 175.91,-223"/>
<polygon fill="#4d4d4d" stroke="#4d4d4d" points="172.61,-225.45 179.61,-223 172.61,-220.55 172.61,-225.45"/>
</g>
<!-- S&#45;1939 -->
<g id="node27" class="node">
<title>S&#45;1939</title>
<polygon fill="mediumseagreen" stroke="black" points="252,-346 180,-324.5 252,-303 324,-324.5 252,-346"/>
<text text-anchor="middle" x="252" y="-322" font-family="Arial" font-size="10.00">S&#45;1939</text>
</g>
<!-- S&#45;1915&#45;&gt;S&#45;1939 -->
<g id="edge21" class="edge">
<title>S&#45;1915&#45;&gt;S&#45;1939</title>
<path fill="none" stroke="#4d4d4d" d="M252,-403.58C252,-403.58 252,-353.03 252,-353.03"/>
<polygon fill="#4d4d4d" stroke="#4d4d4d" points="254.45,-353.03 252,-346.03 249.55,-353.03 254.45,-353.03"/>
</g>
<!-- C&#45;1111 -->
<g id="node28" class="node">
<title>C&#45;1111</title>
<ellipse fill="mediumseagreen" stroke="black" cx="72" cy="-324.5" rx="72" ry="21.5"/>
<text text-anchor="middle" x="72" y="-322" font-family="Arial" font-size="10.00">C&#45;1111</text>
</g>
<!-- S&#45;1915&#45;&gt;C&#45;1111 -->
<g id="edge28" class="edge">
<title>S&#45;1915&#45;&gt;C&#45;1111</title>
<path fill="none" stroke="#4d4d4d" d="M201.38,-432C148.14,-432 72,-432 72,-432 72,-432 72,-353.25 72,-353.25"/>
<polygon fill="#4d4d4d" stroke="#4d4d4d" points="74.45,-353.25 72,-346.25 69.55,-353.25 74.45,-353.25"/>
</g>
<!-- S&#45;890 -->
<g id="node31" class="node">
<title>S&#45;890</title>
<polygon fill="mediumseagreen" stroke="black" points="552,-346 480,-324.5 552,-303 624,-324.5 552,-346"/>
<text text-anchor="middle" x="552" y="-322" font-family="Arial" font-size="10.00">S&#45;890</text>
</g>
<!-- S&#45;1915&#45;&gt;S&#45;890 -->
<g id="edge22" class="edge">
<title>S&#45;1915&#45;&gt;S&#45;890</title>
<path fill="none" stroke="#4d4d4d" d="M302.61,-432C316.22,-432 327.25,-432 327.25,-432 327.25,-432 327.25,-324 327.25,-324 327.25,-324 474.5,-324 474.5,-324"/>
<polygon fill="#4d4d4d" stroke="#4d4d4d" points="474.5,-326.45 481.5,-324 474.5,-321.55 474.5,-326.45"/>
</g>
<!-- C&#45;1111&#45;&gt;R&#45;276 -->
<g id="edge29" class="edge">
<title>C&#45;1111&#45;&gt;R&#45;276</title>
<path fill="none" stroke="#4d4d4d" d="M72,-302.58C72,-302.58 72,-252.03 72,-252.03"/>
<polygon fill="#4d4d4d" stroke="#4d4d4d" points="74.45,-252.03 72,-245.03 69.55,-252.03 74.45,-252.03"/>
</g>
<!-- R&#45;233&#45;&gt;ext_circ_304_26_ -->
<g id="edge35" class="edge">
<title>R&#45;233&#45;&gt;ext_circ_304_26_</title>
<path fill="none" stroke="darkorange" stroke-dasharray="5,2" d="M765,-403.58C765,-403.58 765,-353.03 765,-353.03"/>
<polygon fill="darkorange" stroke="darkorange" points="767.45,-353.03 765,-346.03 762.55,-353.03 767.45,-353.03"/>
</g>
<!-- S&#45;861&#45;&gt;S&#45;1916 -->
<g id="edge30" class="edge">
<title>S&#45;861&#45;&gt;S&#45;1916</title>
<path fill="none" stroke="#4d4d4d" d="M322.39,-526C327.38,-526 330.5,-526 330.5,-526 330.5,-526 330.5,-418 330.5,-418 330.5,-418 378.11,-418 378.11,-418"/>
<polygon fill="#4d4d4d" stroke="#4d4d4d" points="378.11,-420.45 385.11,-418 378.11,-415.55 378.11,-420.45"/>
</g>
<!-- S&#45;861&#45;&gt;S&#45;1915 -->
<g id="edge20" class="edge">
<title>S&#45;861&#45;&gt;S&#45;1915</title>
<path fill="none" stroke="#4d4d4d" d="M252,-504.58C252,-504.58 252,-454.03 252,-454.03"/>
<polygon fill="#4d4d4d" stroke="#4d4d4d" points="254.45,-454.03 252,-447.03 249.55,-454.03 254.45,-454.03"/>
</g>
<!-- S&#45;890&#45;&gt;S&#45;2276 -->
<g id="edge23" class="edge">
<title>S&#45;890&#45;&gt;S&#45;2276</title>
<path fill="none" stroke="#4d4d4d" d="M492,-320.66C492,-320.66 492,-234.34 492,-234.34"/>
<polygon fill="#4d4d4d" stroke="#4d4d4d" points="494.45,-234.34 492,-227.34 489.55,-234.34 494.45,-234.34"/>
</g>
<!-- S&#45;890&#45;&gt;C&#45;0725 -->
<g id="edge25" class="edge">
<title>S&#45;890&#45;&gt;C&#45;0725</title>
<path fill="none" stroke="#4d4d4d" d="M582,-311.71C582,-311.71 582,-250.11 582,-250.11"/>
<polygon fill="#4d4d4d" stroke="#4d4d4d" points="584.45,-250.11 582,-243.11 579.55,-250.11 584.45,-250.11"/>
</g>
<!-- S&#45;890&#45;&gt;C&#45;0726 -->
<g id="edge24" class="edge">
<title>S&#45;890&#45;&gt;C&#45;0726</title>
<path fill="none" stroke="#4d4d4d" d="M622.66,-324C658.69,-324 695,-324 695,-324 695,-324 695,-122 695,-122 695,-122 698.85,-122 698.85,-122"/>
<polygon fill="#4d4d4d" stroke="#4d4d4d" points="698.85,-124.45 705.85,-122 698.85,-119.55 698.85,-124.45"/>
</g>
</g>
</svg>
