<?xml version="1.0" encoding="UTF-8" standalone="no"?>
<!DOCTYPE svg PUBLIC "-//W3C//DTD SVG 1.1//EN"
 "http://www.w3.org/Graphics/SVG/1.1/DTD/svg11.dtd">
<!-- Generated by graphviz version 2.50.0 (0)
 -->
<!-- Title: Grafo_Circuito_208_27_ Pages: 1 -->
<svg width="1096pt" height="1574pt"
 viewBox="0.00 0.00 1096.00 1574.00" xmlns="http://www.w3.org/2000/svg" xmlns:xlink="http://www.w3.org/1999/xlink">
<g id="graph0" class="graph" transform="scale(1 1) rotate(0) translate(4 1570)">
<title>Grafo_Circuito_208_27_</title>
<polygon fill="white" stroke="transparent" points="-4,4 -4,-1570 1092,-1570 1092,4 -4,4"/>
<!-- C&#45;0488 -->
<g id="node1" class="node">
<title>C&#45;0488</title>
<ellipse fill="mediumseagreen" stroke="black" cx="209" cy="-223.5" rx="72" ry="21.5"/>
<text text-anchor="middle" x="209" y="-221" font-family="Arial" font-size="10.00">C&#45;0488</text>
</g>
<!-- R&#45;151 -->
<g id="node17" class="node">
<title>R&#45;151</title>
<polygon fill="tomato" stroke="black" points="267,-113.59 267,-131.41 224.82,-144 165.18,-144 123,-131.41 123,-113.59 165.18,-101 224.82,-101 267,-113.59"/>
<text text-anchor="middle" x="195" y="-120" font-family="Arial" font-size="10.00">R&#45;151</text>
</g>
<!-- C&#45;0488&#45;&gt;R&#45;151 -->
<g id="edge26" class="edge">
<title>C&#45;0488&#45;&gt;R&#45;151</title>
<path fill="none" stroke="#4d4d4d" d="M202,-202.08C202,-202.08 202,-151.24 202,-151.24"/>
<polygon fill="#4d4d4d" stroke="#4d4d4d" points="204.45,-151.24 202,-144.24 199.55,-151.24 204.45,-151.24"/>
</g>
<!-- R&#45;114 -->
<g id="node2" class="node">
<title>R&#45;114</title>
<polygon fill="mediumseagreen" stroke="black" points="728,-1022.59 728,-1040.41 685.82,-1053 626.18,-1053 584,-1040.41 584,-1022.59 626.18,-1010 685.82,-1010 728,-1022.59"/>
<text text-anchor="middle" x="656" y="-1029" font-family="Arial" font-size="10.00">R&#45;114</text>
</g>
<!-- C&#45;0601 -->
<g id="node34" class="node">
<title>C&#45;0601</title>
<ellipse fill="mediumseagreen" stroke="black" cx="656" cy="-930.5" rx="72" ry="21.5"/>
<text text-anchor="middle" x="656" y="-928" font-family="Arial" font-size="10.00">C&#45;0601</text>
</g>
<!-- R&#45;114&#45;&gt;C&#45;0601 -->
<g id="edge10" class="edge">
<title>R&#45;114&#45;&gt;C&#45;0601</title>
<path fill="none" stroke="#4d4d4d" d="M656,-1009.58C656,-1009.58 656,-959.03 656,-959.03"/>
<polygon fill="#4d4d4d" stroke="#4d4d4d" points="658.45,-959.03 656,-952.03 653.55,-959.03 658.45,-959.03"/>
</g>
<!-- C&#45;0487 -->
<g id="node3" class="node">
<title>C&#45;0487</title>
<ellipse fill="tomato" stroke="black" cx="375" cy="-122.5" rx="72" ry="21.5"/>
<text text-anchor="middle" x="375" y="-120" font-family="Arial" font-size="10.00">C&#45;0487</text>
</g>
<!-- ext_circ_208_24_ -->
<g id="node35" class="node">
<title>ext_circ_208_24_</title>
<polygon fill="lightpink" stroke="darkorange" stroke-dasharray="5,2" points="357,-43 213,-43 213,0 357,0 357,-43"/>
<text text-anchor="middle" x="285" y="-24.5" font-family="Arial" font-size="10.00">Circuito:</text>
<text text-anchor="middle" x="285" y="-13.5" font-family="Arial" font-size="10.00">208&#45;24&#45;</text>
</g>
<!-- C&#45;0487&#45;&gt;ext_circ_208_24_ -->
<g id="edge38" class="edge">
<title>C&#45;0487&#45;&gt;ext_circ_208_24_</title>
<path fill="none" stroke="darkorange" stroke-dasharray="5,2" d="M330,-105.37C330,-105.37 330,-50.31 330,-50.31"/>
<polygon fill="darkorange" stroke="darkorange" points="332.45,-50.31 330,-43.31 327.55,-50.31 332.45,-50.31"/>
</g>
<!-- S&#45;1779 -->
<g id="node4" class="node">
<title>S&#45;1779</title>
<polygon fill="mediumseagreen" stroke="black" points="296,-851 224,-829.5 296,-808 368,-829.5 296,-851"/>
<text text-anchor="middle" x="296" y="-827" font-family="Arial" font-size="10.00">S&#45;1779</text>
</g>
<!-- C&#45;1211 -->
<g id="node15" class="node">
<title>C&#45;1211</title>
<ellipse fill="mediumseagreen" stroke="black" cx="341" cy="-728.5" rx="72" ry="21.5"/>
<text text-anchor="middle" x="341" y="-726" font-family="Arial" font-size="10.00">C&#45;1211</text>
</g>
<!-- S&#45;1779&#45;&gt;C&#45;1211 -->
<g id="edge13" class="edge">
<title>S&#45;1779&#45;&gt;C&#45;1211</title>
<path fill="none" stroke="#4d4d4d" d="M318.5,-814.6C318.5,-814.6 318.5,-756.07 318.5,-756.07"/>
<polygon fill="#4d4d4d" stroke="#4d4d4d" points="320.95,-756.07 318.5,-749.07 316.05,-756.07 320.95,-756.07"/>
</g>
<!-- S&#45;1048 -->
<g id="node5" class="node">
<title>S&#45;1048</title>
<polygon fill="mediumseagreen" stroke="black" points="116,-447 44,-425.5 116,-404 188,-425.5 116,-447"/>
<text text-anchor="middle" x="116" y="-423" font-family="Arial" font-size="10.00">S&#45;1048</text>
</g>
<!-- S&#45;2063 -->
<g id="node29" class="node">
<title>S&#45;2063</title>
<polygon fill="mediumseagreen" stroke="black" points="116,-346 44,-324.5 116,-303 188,-324.5 116,-346"/>
<text text-anchor="middle" x="116" y="-322" font-family="Arial" font-size="10.00">S&#45;2063</text>
</g>
<!-- S&#45;1048&#45;&gt;S&#45;2063 -->
<g id="edge19" class="edge">
<title>S&#45;1048&#45;&gt;S&#45;2063</title>
<path fill="none" stroke="#4d4d4d" d="M116,-403.58C116,-403.58 116,-353.03 116,-353.03"/>
<polygon fill="#4d4d4d" stroke="#4d4d4d" points="118.45,-353.03 116,-346.03 113.55,-353.03 118.45,-353.03"/>
</g>
<!-- S&#45;2045 -->
<g id="node6" class="node">
<title>S&#45;2045</title>
<polygon fill="mediumseagreen" stroke="black" points="476,-245 404,-223.5 476,-202 548,-223.5 476,-245"/>
<text text-anchor="middle" x="476" y="-221" font-family="Arial" font-size="10.00">S&#45;2045</text>
</g>
<!-- S&#45;PR40 -->
<g id="node7" class="node">
<title>S&#45;PR40</title>
<polygon fill="mediumseagreen" stroke="black" points="656,-245 584,-223.5 656,-202 728,-223.5 656,-245"/>
<text text-anchor="middle" x="656" y="-221" font-family="Arial" font-size="10.00">S&#45;PR40</text>
</g>
<!-- R&#45;071 -->
<g id="node8" class="node">
<title>R&#45;071</title>
<polygon fill="mediumseagreen" stroke="black" points="503,-618.59 503,-636.41 460.82,-649 401.18,-649 359,-636.41 359,-618.59 401.18,-606 460.82,-606 503,-618.59"/>
<text text-anchor="middle" x="431" y="-625" font-family="Arial" font-size="10.00">R&#45;071</text>
</g>
<!-- C&#45;1213 -->
<g id="node28" class="node">
<title>C&#45;1213</title>
<ellipse fill="mediumseagreen" stroke="black" cx="476" cy="-526.5" rx="72" ry="21.5"/>
<text text-anchor="middle" x="476" y="-524" font-family="Arial" font-size="10.00">C&#45;1213</text>
</g>
<!-- R&#45;071&#45;&gt;C&#45;1213 -->
<g id="edge15" class="edge">
<title>R&#45;071&#45;&gt;C&#45;1213</title>
<path fill="none" stroke="#4d4d4d" d="M453.5,-605.58C453.5,-605.58 453.5,-554 453.5,-554"/>
<polygon fill="#4d4d4d" stroke="#4d4d4d" points="455.95,-554 453.5,-547 451.05,-554 455.95,-554"/>
</g>
<!-- C&#45;0602 -->
<g id="node9" class="node">
<title>C&#45;0602</title>
<ellipse fill="mediumseagreen" stroke="black" cx="656" cy="-1132.5" rx="72" ry="21.5"/>
<text text-anchor="middle" x="656" y="-1130" font-family="Arial" font-size="10.00">C&#45;0602</text>
</g>
<!-- C&#45;0602&#45;&gt;R&#45;114 -->
<g id="edge9" class="edge">
<title>C&#45;0602&#45;&gt;R&#45;114</title>
<path fill="none" stroke="#4d4d4d" d="M656,-1110.58C656,-1110.58 656,-1060.03 656,-1060.03"/>
<polygon fill="#4d4d4d" stroke="#4d4d4d" points="658.45,-1060.03 656,-1053.03 653.55,-1060.03 658.45,-1060.03"/>
</g>
<!-- S&#45;1574 -->
<g id="node10" class="node">
<title>S&#45;1574</title>
<polygon fill="mediumseagreen" stroke="black" points="476,-851 404,-829.5 476,-808 548,-829.5 476,-851"/>
<text text-anchor="middle" x="476" y="-827" font-family="Arial" font-size="10.00">S&#45;1574</text>
</g>
<!-- C&#45;0161 -->
<g id="node11" class="node">
<title>C&#45;0161</title>
<ellipse fill="mediumseagreen" stroke="black" cx="476" cy="-324.5" rx="72" ry="21.5"/>
<text text-anchor="middle" x="476" y="-322" font-family="Arial" font-size="10.00">C&#45;0161</text>
</g>
<!-- C&#45;0161&#45;&gt;C&#45;0488 -->
<g id="edge25" class="edge">
<title>C&#45;0161&#45;&gt;C&#45;0488</title>
<path fill="none" stroke="#4d4d4d" d="M407.12,-331C341.45,-331 252.5,-331 252.5,-331 252.5,-331 252.5,-247.77 252.5,-247.77"/>
<polygon fill="#4d4d4d" stroke="#4d4d4d" points="254.95,-247.77 252.5,-240.77 250.05,-247.77 254.95,-247.77"/>
</g>
<!-- C&#45;0161&#45;&gt;C&#45;0487 -->
<g id="edge27" class="edge">
<title>C&#45;0161&#45;&gt;C&#45;0487</title>
<path fill="none" stroke="#4d4d4d" d="M408.25,-317C395.46,-317 386,-317 386,-317 386,-317 386,-151.06 386,-151.06"/>
<polygon fill="#4d4d4d" stroke="#4d4d4d" points="388.45,-151.06 386,-144.06 383.55,-151.06 388.45,-151.06"/>
</g>
<!-- C&#45;0161&#45;&gt;S&#45;2045 -->
<g id="edge28" class="edge">
<title>C&#45;0161&#45;&gt;S&#45;2045</title>
<path fill="none" stroke="#4d4d4d" d="M476,-302.58C476,-302.58 476,-252.03 476,-252.03"/>
<polygon fill="#4d4d4d" stroke="#4d4d4d" points="478.45,-252.03 476,-245.03 473.55,-252.03 478.45,-252.03"/>
</g>
<!-- C&#45;0161&#45;&gt;S&#45;PR40 -->
<g id="edge24" class="edge">
<title>C&#45;0161&#45;&gt;S&#45;PR40</title>
<path fill="none" stroke="#4d4d4d" d="M543.54,-317C594.61,-317 656,-317 656,-317 656,-317 656,-252.19 656,-252.19"/>
<polygon fill="#4d4d4d" stroke="#4d4d4d" points="658.45,-252.19 656,-245.19 653.55,-252.19 658.45,-252.19"/>
</g>
<!-- S&#45;PR38 -->
<g id="node25" class="node">
<title>S&#45;PR38</title>
<polygon fill="mediumseagreen" stroke="black" points="836,-245 764,-223.5 836,-202 908,-223.5 836,-245"/>
<text text-anchor="middle" x="836" y="-221" font-family="Arial" font-size="10.00">S&#45;PR38</text>
</g>
<!-- C&#45;0161&#45;&gt;S&#45;PR38 -->
<g id="edge22" class="edge">
<title>C&#45;0161&#45;&gt;S&#45;PR38</title>
<path fill="none" stroke="#4d4d4d" d="M544.99,-331C649.52,-331 836,-331 836,-331 836,-331 836,-252.25 836,-252.25"/>
<polygon fill="#4d4d4d" stroke="#4d4d4d" points="838.45,-252.25 836,-245.25 833.55,-252.25 838.45,-252.25"/>
</g>
<!-- S&#45;1387 -->
<g id="node12" class="node">
<title>S&#45;1387</title>
<polygon fill="mediumseagreen" stroke="black" points="296,-447 224,-425.5 296,-404 368,-425.5 296,-447"/>
<text text-anchor="middle" x="296" y="-423" font-family="Arial" font-size="10.00">S&#45;1387</text>
</g>
<!-- S&#45;1575 -->
<g id="node13" class="node">
<title>S&#45;1575</title>
<polygon fill="mediumseagreen" stroke="black" points="656,-851 584,-829.5 656,-808 728,-829.5 656,-851"/>
<text text-anchor="middle" x="656" y="-827" font-family="Arial" font-size="10.00">S&#45;1575</text>
</g>
<!-- S&#45;2228 -->
<g id="node14" class="node">
<title>S&#45;2228</title>
<polygon fill="mediumseagreen" stroke="black" points="836,-851 764,-829.5 836,-808 908,-829.5 836,-851"/>
<text text-anchor="middle" x="836" y="-827" font-family="Arial" font-size="10.00">S&#45;2228</text>
</g>
<!-- C&#45;1211&#45;&gt;R&#45;071 -->
<g id="edge14" class="edge">
<title>C&#45;1211&#45;&gt;R&#45;071</title>
<path fill="none" stroke="#4d4d4d" d="M386,-711.37C386,-711.37 386,-651.72 386,-651.72"/>
<polygon fill="#4d4d4d" stroke="#4d4d4d" points="388.45,-651.72 386,-644.72 383.55,-651.72 388.45,-651.72"/>
</g>
<!-- S&#45;2323 -->
<g id="node16" class="node">
<title>S&#45;2323</title>
<polygon fill="mediumseagreen" stroke="black" points="656,-1255 584,-1233.5 656,-1212 728,-1233.5 656,-1255"/>
<text text-anchor="middle" x="656" y="-1231" font-family="Arial" font-size="10.00">S&#45;2323</text>
</g>
<!-- R&#45;151&#45;&gt;ext_circ_208_24_ -->
<g id="edge37" class="edge">
<title>R&#45;151&#45;&gt;ext_circ_208_24_</title>
<path fill="none" stroke="darkorange" stroke-dasharray="5,2" d="M240,-105.37C240,-105.37 240,-50.31 240,-50.31"/>
<polygon fill="darkorange" stroke="darkorange" points="242.45,-50.31 240,-43.31 237.55,-50.31 242.45,-50.31"/>
</g>
<!-- S&#45;1392 -->
<g id="node18" class="node">
<title>S&#45;1392</title>
<polygon fill="mediumseagreen" stroke="black" points="476,-447 404,-425.5 476,-404 548,-425.5 476,-447"/>
<text text-anchor="middle" x="476" y="-423" font-family="Arial" font-size="10.00">S&#45;1392</text>
</g>
<!-- S&#45;1392&#45;&gt;C&#45;0161 -->
<g id="edge21" class="edge">
<title>S&#45;1392&#45;&gt;C&#45;0161</title>
<path fill="none" stroke="#4d4d4d" d="M476,-403.58C476,-403.58 476,-353.03 476,-353.03"/>
<polygon fill="#4d4d4d" stroke="#4d4d4d" points="478.45,-353.03 476,-346.03 473.55,-353.03 478.45,-353.03"/>
</g>
<!-- C&#45;0068 -->
<g id="node19" class="node">
<title>C&#45;0068</title>
<ellipse fill="tomato" stroke="black" cx="72" cy="-1031.5" rx="72" ry="21.5"/>
<text text-anchor="middle" x="72" y="-1029" font-family="Arial" font-size="10.00">C&#45;0068</text>
</g>
<!-- C&#45;0068&#45;&gt;ext_circ_208_24_ -->
<g id="edge34" class="edge">
<title>C&#45;0068&#45;&gt;ext_circ_208_24_</title>
<path fill="none" stroke="darkorange" stroke-dasharray="5,2" d="M22,-1015.63C22,-887.07 22,-21 22,-21 22,-21 205.79,-21 205.79,-21"/>
<polygon fill="darkorange" stroke="darkorange" points="205.79,-23.45 212.79,-21 205.79,-18.55 205.79,-23.45"/>
</g>
<!-- S&#45;2211 -->
<g id="node20" class="node">
<title>S&#45;2211</title>
<polygon fill="mediumseagreen" stroke="black" points="1016,-851 944,-829.5 1016,-808 1088,-829.5 1016,-851"/>
<text text-anchor="middle" x="1016" y="-827" font-family="Arial" font-size="10.00">S&#45;2211</text>
</g>
<!-- S&#45;1388 -->
<g id="node21" class="node">
<title>S&#45;1388</title>
<polygon fill="mediumseagreen" stroke="black" points="656,-447 584,-425.5 656,-404 728,-425.5 656,-447"/>
<text text-anchor="middle" x="656" y="-423" font-family="Arial" font-size="10.00">S&#45;1388</text>
</g>
<!-- C&#45;0149 -->
<g id="node22" class="node">
<title>C&#45;0149</title>
<ellipse fill="mediumseagreen" stroke="black" cx="572" cy="-1435.5" rx="72" ry="21.5"/>
<text text-anchor="middle" x="572" y="-1433" font-family="Arial" font-size="10.00">C&#45;0149</text>
</g>
<!-- C&#45;0149&#45;&gt;C&#45;0068 -->
<g id="edge2" class="edge">
<title>C&#45;0149&#45;&gt;C&#45;0068</title>
<path fill="none" stroke="#4d4d4d" d="M516,-1421.58C516,-1350.45 516,-1031 516,-1031 516,-1031 151.32,-1031 151.32,-1031"/>
<polygon fill="#4d4d4d" stroke="#4d4d4d" points="151.32,-1028.55 144.32,-1031 151.32,-1033.45 151.32,-1028.55"/>
</g>
<!-- C&#45;1151 -->
<g id="node32" class="node">
<title>C&#45;1151</title>
<ellipse fill="mediumseagreen" stroke="black" cx="746" cy="-1334.5" rx="72" ry="21.5"/>
<text text-anchor="middle" x="746" y="-1332" font-family="Arial" font-size="10.00">C&#45;1151</text>
</g>
<!-- C&#45;0149&#45;&gt;C&#45;1151 -->
<g id="edge3" class="edge">
<title>C&#45;0149&#45;&gt;C&#45;1151</title>
<path fill="none" stroke="#4d4d4d" d="M614,-1417.82C614,-1388.74 614,-1334 614,-1334 614,-1334 666.82,-1334 666.82,-1334"/>
<polygon fill="#4d4d4d" stroke="#4d4d4d" points="666.82,-1336.45 673.82,-1334 666.82,-1331.55 666.82,-1336.45"/>
</g>
<!-- S&#45;1051 -->
<g id="node23" class="node">
<title>S&#45;1051</title>
<polygon fill="mediumseagreen" stroke="black" points="836,-1255 764,-1233.5 836,-1212 908,-1233.5 836,-1255"/>
<text text-anchor="middle" x="836" y="-1231" font-family="Arial" font-size="10.00">S&#45;1051</text>
</g>
<!-- S&#45;1051&#45;&gt;C&#45;0602 -->
<g id="edge7" class="edge">
<title>S&#45;1051&#45;&gt;C&#45;0602</title>
<path fill="none" stroke="#4d4d4d" d="M765.53,-1233C754.14,-1233 746,-1233 746,-1233 746,-1233 746,-1139 746,-1139 746,-1139 731.67,-1139 731.67,-1139"/>
<polygon fill="#4d4d4d" stroke="#4d4d4d" points="731.67,-1136.55 724.67,-1139 731.67,-1141.45 731.67,-1136.55"/>
</g>
<!-- C&#45;0600 -->
<g id="node31" class="node">
<title>C&#45;0600</title>
<ellipse fill="tomato" stroke="black" cx="836" cy="-1132.5" rx="72" ry="21.5"/>
<text text-anchor="middle" x="836" y="-1130" font-family="Arial" font-size="10.00">C&#45;0600</text>
</g>
<!-- S&#45;1051&#45;&gt;C&#45;0600 -->
<g id="edge8" class="edge">
<title>S&#45;1051&#45;&gt;C&#45;0600</title>
<path fill="none" stroke="#4d4d4d" d="M836,-1211.58C836,-1211.58 836,-1161.03 836,-1161.03"/>
<polygon fill="#4d4d4d" stroke="#4d4d4d" points="838.45,-1161.03 836,-1154.03 833.55,-1161.03 838.45,-1161.03"/>
</g>
<!-- S&#45;1708 -->
<g id="node24" class="node">
<title>S&#45;1708</title>
<polygon fill="mediumseagreen" stroke="black" points="836,-447 764,-425.5 836,-404 908,-425.5 836,-447"/>
<text text-anchor="middle" x="836" y="-423" font-family="Arial" font-size="10.00">S&#45;1708</text>
</g>
<!-- S&#45;805 -->
<g id="node26" class="node">
<title>S&#45;805</title>
<polygon fill="mediumseagreen" stroke="black" points="836,-144 764,-122.5 836,-101 908,-122.5 836,-144"/>
<text text-anchor="middle" x="836" y="-120" font-family="Arial" font-size="10.00">S&#45;805</text>
</g>
<!-- S&#45;PR38&#45;&gt;S&#45;805 -->
<g id="edge23" class="edge">
<title>S&#45;PR38&#45;&gt;S&#45;805</title>
<path fill="none" stroke="#4d4d4d" d="M836,-201.58C836,-201.58 836,-151.03 836,-151.03"/>
<polygon fill="#4d4d4d" stroke="#4d4d4d" points="838.45,-151.03 836,-144.03 833.55,-151.03 838.45,-151.03"/>
</g>
<!-- C&#45;1212 -->
<g id="node27" class="node">
<title>C&#45;1212</title>
<ellipse fill="tomato" stroke="black" cx="1016" cy="-425.5" rx="72" ry="21.5"/>
<text text-anchor="middle" x="1016" y="-423" font-family="Arial" font-size="10.00">C&#45;1212</text>
</g>
<!-- C&#45;1212&#45;&gt;C&#45;1211 -->
<g id="edge39" class="edge">
<title>C&#45;1212&#45;&gt;C&#45;1211</title>
<path fill="none" stroke="blue" stroke-dasharray="5,2" d="M1040,-445.82C1040,-513.64 1040,-728 1040,-728 1040,-728 420.17,-728 420.17,-728"/>
<polygon fill="blue" stroke="blue" points="420.17,-725.55 413.17,-728 420.17,-730.45 420.17,-725.55"/>
</g>
<!-- C&#45;1213&#45;&gt;S&#45;1048 -->
<g id="edge18" class="edge">
<title>C&#45;1213&#45;&gt;S&#45;1048</title>
<path fill="none" stroke="#4d4d4d" d="M407.2,-533C315.87,-533 166,-533 166,-533 166,-533 166,-439.22 166,-439.22"/>
<polygon fill="#4d4d4d" stroke="#4d4d4d" points="168.45,-439.22 166,-432.22 163.55,-439.22 168.45,-439.22"/>
</g>
<!-- C&#45;1213&#45;&gt;S&#45;1387 -->
<g id="edge29" class="edge">
<title>C&#45;1213&#45;&gt;S&#45;1387</title>
<path fill="none" stroke="#4d4d4d" d="M408.29,-519C384.46,-519 363.5,-519 363.5,-519 363.5,-519 363.5,-434.12 363.5,-434.12"/>
<polygon fill="#4d4d4d" stroke="#4d4d4d" points="365.95,-434.12 363.5,-427.12 361.05,-434.12 365.95,-434.12"/>
</g>
<!-- C&#45;1213&#45;&gt;S&#45;1392 -->
<g id="edge20" class="edge">
<title>C&#45;1213&#45;&gt;S&#45;1392</title>
<path fill="none" stroke="#4d4d4d" d="M476,-504.58C476,-504.58 476,-454.03 476,-454.03"/>
<polygon fill="#4d4d4d" stroke="#4d4d4d" points="478.45,-454.03 476,-447.03 473.55,-454.03 478.45,-454.03"/>
</g>
<!-- C&#45;1213&#45;&gt;S&#45;1388 -->
<g id="edge17" class="edge">
<title>C&#45;1213&#45;&gt;S&#45;1388</title>
<path fill="none" stroke="#4d4d4d" d="M536.94,-515C589.16,-515 656,-515 656,-515 656,-515 656,-454.17 656,-454.17"/>
<polygon fill="#4d4d4d" stroke="#4d4d4d" points="658.45,-454.17 656,-447.17 653.55,-454.17 658.45,-454.17"/>
</g>
<!-- C&#45;1213&#45;&gt;S&#45;1708 -->
<g id="edge16" class="edge">
<title>C&#45;1213&#45;&gt;S&#45;1708</title>
<path fill="none" stroke="#4d4d4d" d="M547.99,-526C653.04,-526 836,-526 836,-526 836,-526 836,-454.31 836,-454.31"/>
<polygon fill="#4d4d4d" stroke="#4d4d4d" points="838.45,-454.31 836,-447.31 833.55,-454.31 838.45,-454.31"/>
</g>
<!-- C&#45;1213&#45;&gt;C&#45;1212 -->
<g id="edge30" class="edge">
<title>C&#45;1213&#45;&gt;C&#45;1212</title>
<path fill="none" stroke="#4d4d4d" d="M539.01,-537C676.66,-537 992,-537 992,-537 992,-537 992,-452.95 992,-452.95"/>
<polygon fill="#4d4d4d" stroke="#4d4d4d" points="994.45,-452.95 992,-445.95 989.55,-452.95 994.45,-452.95"/>
</g>
<!-- 208&#45;27&#45; -->
<g id="node30" class="node">
<title>208&#45;27&#45;</title>
<polygon fill="gold" stroke="black" points="644,-1531.59 644,-1549.41 601.82,-1562 542.18,-1562 500,-1549.41 500,-1531.59 542.18,-1519 601.82,-1519 644,-1531.59"/>
<polygon fill="none" stroke="black" points="648,-1528.61 648,-1552.39 602.41,-1566 541.59,-1566 496,-1552.39 496,-1528.61 541.59,-1515 602.41,-1515 648,-1528.61"/>
<text text-anchor="middle" x="572" y="-1538" font-family="Arial" font-size="10.00">208&#45;27&#45;</text>
</g>
<!-- 208&#45;27&#45;&#45;&gt;C&#45;0149 -->
<g id="edge1" class="edge">
<title>208&#45;27&#45;&#45;&gt;C&#45;0149</title>
<path fill="none" stroke="#4d4d4d" d="M572,-1514.81C572,-1514.81 572,-1464.03 572,-1464.03"/>
<polygon fill="#4d4d4d" stroke="#4d4d4d" points="574.45,-1464.03 572,-1457.03 569.55,-1464.03 574.45,-1464.03"/>
</g>
<!-- C&#45;0600&#45;&gt;S&#45;1575 -->
<g id="edge36" class="edge">
<title>C&#45;0600&#45;&gt;S&#45;1575</title>
<path fill="none" stroke="blue" stroke-dasharray="5,2" d="M768.38,-1125C760.38,-1125 755,-1125 755,-1125 755,-1125 755,-829 755,-829 755,-829 733.37,-829 733.37,-829"/>
<polygon fill="blue" stroke="blue" points="733.37,-826.55 726.37,-829 733.37,-831.45 733.37,-826.55"/>
</g>
<!-- C&#45;1151&#45;&gt;S&#45;2323 -->
<g id="edge4" class="edge">
<title>C&#45;1151&#45;&gt;S&#45;2323</title>
<path fill="none" stroke="#4d4d4d" d="M701,-1317.37C701,-1317.37 701,-1248.78 701,-1248.78"/>
<polygon fill="#4d4d4d" stroke="#4d4d4d" points="703.45,-1248.78 701,-1241.78 698.55,-1248.78 703.45,-1248.78"/>
</g>
<!-- C&#45;1151&#45;&gt;S&#45;1051 -->
<g id="edge6" class="edge">
<title>C&#45;1151&#45;&gt;S&#45;1051</title>
<path fill="none" stroke="#4d4d4d" d="M791,-1317.37C791,-1317.37 791,-1248.78 791,-1248.78"/>
<polygon fill="#4d4d4d" stroke="#4d4d4d" points="793.45,-1248.78 791,-1241.78 788.55,-1248.78 793.45,-1248.78"/>
</g>
<!-- C&#45;0639 -->
<g id="node33" class="node">
<title>C&#45;0639</title>
<ellipse fill="tomato" stroke="black" cx="986" cy="-930.5" rx="72" ry="21.5"/>
<text text-anchor="middle" x="986" y="-928" font-family="Arial" font-size="10.00">C&#45;0639</text>
</g>
<!-- C&#45;1151&#45;&gt;C&#45;0639 -->
<g id="edge5" class="edge">
<title>C&#45;1151&#45;&gt;C&#45;0639</title>
<path fill="none" stroke="#4d4d4d" d="M737,-1313.13C737,-1230.56 737,-937 737,-937 737,-937 910.3,-937 910.3,-937"/>
<polygon fill="#4d4d4d" stroke="#4d4d4d" points="910.3,-939.45 917.3,-937 910.3,-934.55 910.3,-939.45"/>
</g>
<!-- C&#45;0639&#45;&gt;ext_circ_208_24_ -->
<g id="edge35" class="edge">
<title>C&#45;0639&#45;&gt;ext_circ_208_24_</title>
<path fill="none" stroke="darkorange" stroke-dasharray="5,2" d="M929,-917.29C929,-805.45 929,-21 929,-21 929,-21 364,-21 364,-21"/>
<polygon fill="darkorange" stroke="darkorange" points="364,-18.55 357,-21 364,-23.45 364,-18.55"/>
</g>
<!-- C&#45;0601&#45;&gt;S&#45;1779 -->
<g id="edge12" class="edge">
<title>C&#45;0601&#45;&gt;S&#45;1779</title>
<path fill="none" stroke="#4d4d4d" d="M587.01,-937C482.48,-937 296,-937 296,-937 296,-937 296,-858.25 296,-858.25"/>
<polygon fill="#4d4d4d" stroke="#4d4d4d" points="298.45,-858.25 296,-851.25 293.55,-858.25 298.45,-858.25"/>
</g>
<!-- C&#45;0601&#45;&gt;S&#45;1574 -->
<g id="edge31" class="edge">
<title>C&#45;0601&#45;&gt;S&#45;1574</title>
<path fill="none" stroke="#4d4d4d" d="M588.2,-923C559.25,-923 532,-923 532,-923 532,-923 532,-841.53 532,-841.53"/>
<polygon fill="#4d4d4d" stroke="#4d4d4d" points="534.45,-841.53 532,-834.53 529.55,-841.53 534.45,-841.53"/>
</g>
<!-- C&#45;0601&#45;&gt;S&#45;1575 -->
<g id="edge11" class="edge">
<title>C&#45;0601&#45;&gt;S&#45;1575</title>
<path fill="none" stroke="#4d4d4d" d="M632,-910.06C632,-910.06 632,-851.03 632,-851.03"/>
<polygon fill="#4d4d4d" stroke="#4d4d4d" points="634.45,-851.03 632,-844.03 629.55,-851.03 634.45,-851.03"/>
</g>
<!-- C&#45;0601&#45;&gt;S&#45;2228 -->
<g id="edge32" class="edge">
<title>C&#45;0601&#45;&gt;S&#45;2228</title>
<path fill="none" stroke="#4d4d4d" d="M723.54,-923C774.61,-923 836,-923 836,-923 836,-923 836,-858.19 836,-858.19"/>
<polygon fill="#4d4d4d" stroke="#4d4d4d" points="838.45,-858.19 836,-851.19 833.55,-858.19 838.45,-858.19"/>
</g>
<!-- C&#45;0601&#45;&gt;S&#45;2211 -->
<g id="edge33" class="edge">
<title>C&#45;0601&#45;&gt;S&#45;2211</title>
<path fill="none" stroke="#4d4d4d" d="M680,-909.96C680,-895.98 680,-880 680,-880 680,-880 1001,-880 1001,-880 1001,-880 1001,-853.6 1001,-853.6"/>
<polygon fill="#4d4d4d" stroke="#4d4d4d" points="1003.45,-853.6 1001,-846.6 998.55,-853.6 1003.45,-853.6"/>
</g>
</g>
</svg>
