<?xml version="1.0" encoding="UTF-8" standalone="no"?>
<!DOCTYPE svg PUBLIC "-//W3C//DTD SVG 1.1//EN"
 "http://www.w3.org/Graphics/SVG/1.1/DTD/svg11.dtd">
<!-- Generated by graphviz version 2.50.0 (0)
 -->
<!-- Title: Grafo_Circuito_304_27_ Pages: 1 -->
<svg width="2566pt" height="1271pt"
 viewBox="0.00 0.00 2566.00 1271.00" xmlns="http://www.w3.org/2000/svg" xmlns:xlink="http://www.w3.org/1999/xlink">
<g id="graph0" class="graph" transform="scale(1 1) rotate(0) translate(4 1267)">
<title>Grafo_Circuito_304_27_</title>
<polygon fill="white" stroke="transparent" points="-4,4 -4,-1267 2562,-1267 2562,4 -4,4"/>
<!-- S&#45;1723 -->
<g id="node1" class="node">
<title>S&#45;1723</title>
<polygon fill="mediumseagreen" stroke="black" points="761,-952 689,-930.5 761,-909 833,-930.5 761,-952"/>
<text text-anchor="middle" x="761" y="-928" font-family="Arial" font-size="10.00">S&#45;1723</text>
</g>
<!-- C&#45;0381 -->
<g id="node2" class="node">
<title>C&#45;0381</title>
<ellipse fill="mediumseagreen" stroke="black" cx="1245" cy="-728.5" rx="72" ry="21.5"/>
<text text-anchor="middle" x="1245" y="-726" font-family="Arial" font-size="10.00">C&#45;0381</text>
</g>
<!-- R&#45;128 -->
<g id="node12" class="node">
<title>R&#45;128</title>
<polygon fill="mediumseagreen" stroke="black" points="1351,-618.59 1351,-636.41 1308.82,-649 1249.18,-649 1207,-636.41 1207,-618.59 1249.18,-606 1308.82,-606 1351,-618.59"/>
<text text-anchor="middle" x="1279" y="-625" font-family="Arial" font-size="10.00">R&#45;128</text>
</g>
<!-- C&#45;0381&#45;&gt;R&#45;128 -->
<g id="edge31" class="edge">
<title>C&#45;0381&#45;&gt;R&#45;128</title>
<path fill="none" stroke="#4d4d4d" d="M1262,-707.57C1262,-707.57 1262,-656.1 1262,-656.1"/>
<polygon fill="#4d4d4d" stroke="#4d4d4d" points="1264.45,-656.1 1262,-649.1 1259.55,-656.1 1264.45,-656.1"/>
</g>
<!-- S&#45;502 -->
<g id="node3" class="node">
<title>S&#45;502</title>
<polygon fill="mediumseagreen" stroke="black" points="1031,-649 959,-627.5 1031,-606 1103,-627.5 1031,-649"/>
<text text-anchor="middle" x="1031" y="-625" font-family="Arial" font-size="10.00">S&#45;502</text>
</g>
<!-- C&#45;0212 -->
<g id="node4" class="node">
<title>C&#45;0212</title>
<ellipse fill="mediumseagreen" stroke="black" cx="1766" cy="-425.5" rx="72" ry="21.5"/>
<text text-anchor="middle" x="1766" y="-423" font-family="Arial" font-size="10.00">C&#45;0212</text>
</g>
<!-- S&#45;1947 -->
<g id="node6" class="node">
<title>S&#45;1947</title>
<polygon fill="mediumseagreen" stroke="black" points="1946,-346 1874,-324.5 1946,-303 2018,-324.5 1946,-346"/>
<text text-anchor="middle" x="1946" y="-322" font-family="Arial" font-size="10.00">S&#45;1947</text>
</g>
<!-- C&#45;0212&#45;&gt;S&#45;1947 -->
<g id="edge34" class="edge">
<title>C&#45;0212&#45;&gt;S&#45;1947</title>
<path fill="none" stroke="#4d4d4d" d="M1833.54,-418C1884.61,-418 1946,-418 1946,-418 1946,-418 1946,-353.19 1946,-353.19"/>
<polygon fill="#4d4d4d" stroke="#4d4d4d" points="1948.45,-353.19 1946,-346.19 1943.55,-353.19 1948.45,-353.19"/>
</g>
<!-- C&#45;0211 -->
<g id="node22" class="node">
<title>C&#45;0211</title>
<ellipse fill="mediumseagreen" stroke="black" cx="2126" cy="-324.5" rx="72" ry="21.5"/>
<text text-anchor="middle" x="2126" y="-322" font-family="Arial" font-size="10.00">C&#45;0211</text>
</g>
<!-- C&#45;0212&#45;&gt;C&#45;0211 -->
<g id="edge37" class="edge">
<title>C&#45;0212&#45;&gt;C&#45;0211</title>
<path fill="none" stroke="#4d4d4d" d="M1834.99,-432C1939.52,-432 2126,-432 2126,-432 2126,-432 2126,-353.25 2126,-353.25"/>
<polygon fill="#4d4d4d" stroke="#4d4d4d" points="2128.45,-353.25 2126,-346.25 2123.55,-353.25 2128.45,-353.25"/>
</g>
<!-- S&#45;2356 -->
<g id="node38" class="node">
<title>S&#45;2356</title>
<polygon fill="mediumseagreen" stroke="black" points="1586,-346 1514,-324.5 1586,-303 1658,-324.5 1586,-346"/>
<text text-anchor="middle" x="1586" y="-322" font-family="Arial" font-size="10.00">S&#45;2356</text>
</g>
<!-- C&#45;0212&#45;&gt;S&#45;2356 -->
<g id="edge35" class="edge">
<title>C&#45;0212&#45;&gt;S&#45;2356</title>
<path fill="none" stroke="#4d4d4d" d="M1693.87,-425C1666.59,-425 1642,-425 1642,-425 1642,-425 1642,-336.35 1642,-336.35"/>
<polygon fill="#4d4d4d" stroke="#4d4d4d" points="1644.45,-336.35 1642,-329.35 1639.55,-336.35 1644.45,-336.35"/>
</g>
<!-- S&#45;503 -->
<g id="node48" class="node">
<title>S&#45;503</title>
<polygon fill="mediumseagreen" stroke="black" points="1766,-346 1694,-324.5 1766,-303 1838,-324.5 1766,-346"/>
<text text-anchor="middle" x="1766" y="-322" font-family="Arial" font-size="10.00">S&#45;503</text>
</g>
<!-- C&#45;0212&#45;&gt;S&#45;503 -->
<g id="edge36" class="edge">
<title>C&#45;0212&#45;&gt;S&#45;503</title>
<path fill="none" stroke="#4d4d4d" d="M1766,-403.58C1766,-403.58 1766,-353.03 1766,-353.03"/>
<polygon fill="#4d4d4d" stroke="#4d4d4d" points="1768.45,-353.03 1766,-346.03 1763.55,-353.03 1768.45,-353.03"/>
</g>
<!-- C&#45;0914 -->
<g id="node5" class="node">
<title>C&#45;0914</title>
<ellipse fill="mediumseagreen" stroke="black" cx="2126" cy="-122.5" rx="72" ry="21.5"/>
<text text-anchor="middle" x="2126" y="-120" font-family="Arial" font-size="10.00">C&#45;0914</text>
</g>
<!-- R&#45;214 -->
<g id="node30" class="node">
<title>R&#45;214</title>
<polygon fill="tomato" stroke="black" points="2198,-12.59 2198,-30.41 2155.82,-43 2096.18,-43 2054,-30.41 2054,-12.59 2096.18,0 2155.82,0 2198,-12.59"/>
<text text-anchor="middle" x="2126" y="-19" font-family="Arial" font-size="10.00">R&#45;214</text>
</g>
<!-- C&#45;0914&#45;&gt;R&#45;214 -->
<g id="edge43" class="edge">
<title>C&#45;0914&#45;&gt;R&#45;214</title>
<path fill="none" stroke="#4d4d4d" d="M2126,-100.58C2126,-100.58 2126,-50.03 2126,-50.03"/>
<polygon fill="#4d4d4d" stroke="#4d4d4d" points="2128.45,-50.03 2126,-43.03 2123.55,-50.03 2128.45,-50.03"/>
</g>
<!-- C&#45;0461 -->
<g id="node7" class="node">
<title>C&#45;0461</title>
<ellipse fill="mediumseagreen" stroke="black" cx="326" cy="-425.5" rx="72" ry="21.5"/>
<text text-anchor="middle" x="326" y="-423" font-family="Arial" font-size="10.00">C&#45;0461</text>
</g>
<!-- R&#45;142 -->
<g id="node28" class="node">
<title>R&#45;142</title>
<polygon fill="tomato" stroke="black" points="218,-315.59 218,-333.41 175.82,-346 116.18,-346 74,-333.41 74,-315.59 116.18,-303 175.82,-303 218,-315.59"/>
<text text-anchor="middle" x="146" y="-322" font-family="Arial" font-size="10.00">R&#45;142</text>
</g>
<!-- C&#45;0461&#45;&gt;R&#45;142 -->
<g id="edge28" class="edge">
<title>C&#45;0461&#45;&gt;R&#45;142</title>
<path fill="none" stroke="#4d4d4d" d="M253.66,-425C222.47,-425 193,-425 193,-425 193,-425 193,-348.1 193,-348.1"/>
<polygon fill="#4d4d4d" stroke="#4d4d4d" points="195.45,-348.1 193,-341.1 190.55,-348.1 195.45,-348.1"/>
</g>
<!-- C&#45;0380 -->
<g id="node8" class="node">
<title>C&#45;0380</title>
<ellipse fill="tomato" stroke="black" cx="851" cy="-728.5" rx="72" ry="21.5"/>
<text text-anchor="middle" x="851" y="-726" font-family="Arial" font-size="10.00">C&#45;0380</text>
</g>
<!-- C&#45;0380&#45;&gt;C&#45;0212 -->
<g id="edge51" class="edge">
<title>C&#45;0380&#45;&gt;C&#45;0212</title>
<path fill="none" stroke="blue" stroke-dasharray="5,2" d="M880,-708.57C880,-650.42 880,-485 880,-485 880,-485 1719.33,-485 1719.33,-485 1719.33,-485 1719.33,-449.07 1719.33,-449.07"/>
<polygon fill="blue" stroke="blue" points="1721.78,-449.07 1719.33,-442.07 1716.88,-449.07 1721.78,-449.07"/>
</g>
<!-- S&#45;1431 -->
<g id="node9" class="node">
<title>S&#45;1431</title>
<polygon fill="mediumseagreen" stroke="black" points="1046,-346 974,-324.5 1046,-303 1118,-324.5 1046,-346"/>
<text text-anchor="middle" x="1046" y="-322" font-family="Arial" font-size="10.00">S&#45;1431</text>
</g>
<!-- S&#45;1378 -->
<g id="node10" class="node">
<title>S&#45;1378</title>
<polygon fill="mediumseagreen" stroke="black" points="1226,-346 1154,-324.5 1226,-303 1298,-324.5 1226,-346"/>
<text text-anchor="middle" x="1226" y="-322" font-family="Arial" font-size="10.00">S&#45;1378</text>
</g>
<!-- S&#45;547 -->
<g id="node11" class="node">
<title>S&#45;547</title>
<polygon fill="mediumseagreen" stroke="black" points="2126,-245 2054,-223.5 2126,-202 2198,-223.5 2126,-245"/>
<text text-anchor="middle" x="2126" y="-221" font-family="Arial" font-size="10.00">S&#45;547</text>
</g>
<!-- C&#45;0382 -->
<g id="node46" class="node">
<title>C&#45;0382</title>
<ellipse fill="mediumseagreen" stroke="black" cx="1698" cy="-526.5" rx="72" ry="21.5"/>
<text text-anchor="middle" x="1698" y="-524" font-family="Arial" font-size="10.00">C&#45;0382</text>
</g>
<!-- R&#45;128&#45;&gt;C&#45;0382 -->
<g id="edge32" class="edge">
<title>R&#45;128&#45;&gt;C&#45;0382</title>
<path fill="none" stroke="#4d4d4d" d="M1345.33,-616.76C1345.33,-592.79 1345.33,-537 1345.33,-537 1345.33,-537 1627.95,-537 1627.95,-537"/>
<polygon fill="#4d4d4d" stroke="#4d4d4d" points="1627.95,-539.45 1634.95,-537 1627.95,-534.55 1627.95,-539.45"/>
</g>
<!-- S&#45;1429 -->
<g id="node13" class="node">
<title>S&#45;1429</title>
<polygon fill="mediumseagreen" stroke="black" points="1406,-346 1334,-324.5 1406,-303 1478,-324.5 1406,-346"/>
<text text-anchor="middle" x="1406" y="-322" font-family="Arial" font-size="10.00">S&#45;1429</text>
</g>
<!-- S&#45;1865 -->
<g id="node14" class="node">
<title>S&#45;1865</title>
<polygon fill="mediumseagreen" stroke="black" points="1211,-851 1139,-829.5 1211,-808 1283,-829.5 1211,-851"/>
<text text-anchor="middle" x="1211" y="-827" font-family="Arial" font-size="10.00">S&#45;1865</text>
</g>
<!-- S&#45;1430 -->
<g id="node15" class="node">
<title>S&#45;1430</title>
<polygon fill="mediumseagreen" stroke="black" points="326,-346 254,-324.5 326,-303 398,-324.5 326,-346"/>
<text text-anchor="middle" x="326" y="-322" font-family="Arial" font-size="10.00">S&#45;1430</text>
</g>
<!-- S&#45;1497 -->
<g id="node16" class="node">
<title>S&#45;1497</title>
<polygon fill="mediumseagreen" stroke="black" points="1391,-851 1319,-829.5 1391,-808 1463,-829.5 1391,-851"/>
<text text-anchor="middle" x="1391" y="-827" font-family="Arial" font-size="10.00">S&#45;1497</text>
</g>
<!-- S&#45;2456 -->
<g id="node17" class="node">
<title>S&#45;2456</title>
<polygon fill="mediumseagreen" stroke="black" points="1046,-447 974,-425.5 1046,-404 1118,-425.5 1046,-447"/>
<text text-anchor="middle" x="1046" y="-423" font-family="Arial" font-size="10.00">S&#45;2456</text>
</g>
<!-- S&#45;1874 -->
<g id="node18" class="node">
<title>S&#45;1874</title>
<polygon fill="mediumseagreen" stroke="black" points="506,-346 434,-324.5 506,-303 578,-324.5 506,-346"/>
<text text-anchor="middle" x="506" y="-322" font-family="Arial" font-size="10.00">S&#45;1874</text>
</g>
<!-- S&#45;1362 -->
<g id="node19" class="node">
<title>S&#45;1362</title>
<polygon fill="mediumseagreen" stroke="black" points="506,-447 434,-425.5 506,-404 578,-425.5 506,-447"/>
<text text-anchor="middle" x="506" y="-423" font-family="Arial" font-size="10.00">S&#45;1362</text>
</g>
<!-- S&#45;2245 -->
<g id="node20" class="node">
<title>S&#45;2245</title>
<polygon fill="mediumseagreen" stroke="black" points="686,-346 614,-324.5 686,-303 758,-324.5 686,-346"/>
<text text-anchor="middle" x="686" y="-322" font-family="Arial" font-size="10.00">S&#45;2245</text>
</g>
<!-- C&#45;1201 -->
<g id="node21" class="node">
<title>C&#45;1201</title>
<ellipse fill="mediumseagreen" stroke="black" cx="941" cy="-1132.5" rx="72" ry="21.5"/>
<text text-anchor="middle" x="941" y="-1130" font-family="Arial" font-size="10.00">C&#45;1201</text>
</g>
<!-- C&#45;0281 -->
<g id="node40" class="node">
<title>C&#45;0281</title>
<ellipse fill="mediumseagreen" stroke="black" cx="941" cy="-1031.5" rx="72" ry="21.5"/>
<text text-anchor="middle" x="941" y="-1029" font-family="Arial" font-size="10.00">C&#45;0281</text>
</g>
<!-- C&#45;1201&#45;&gt;C&#45;0281 -->
<g id="edge2" class="edge">
<title>C&#45;1201&#45;&gt;C&#45;0281</title>
<path fill="none" stroke="#4d4d4d" d="M941,-1110.58C941,-1110.58 941,-1060.03 941,-1060.03"/>
<polygon fill="#4d4d4d" stroke="#4d4d4d" points="943.45,-1060.03 941,-1053.03 938.55,-1060.03 943.45,-1060.03"/>
</g>
<!-- C&#45;0211&#45;&gt;S&#45;547 -->
<g id="edge38" class="edge">
<title>C&#45;0211&#45;&gt;S&#45;547</title>
<path fill="none" stroke="#4d4d4d" d="M2126,-302.58C2126,-302.58 2126,-252.03 2126,-252.03"/>
<polygon fill="#4d4d4d" stroke="#4d4d4d" points="2128.45,-252.03 2126,-245.03 2123.55,-252.03 2128.45,-252.03"/>
</g>
<!-- S&#45;1945 -->
<g id="node34" class="node">
<title>S&#45;1945</title>
<polygon fill="mediumseagreen" stroke="black" points="2306,-245 2234,-223.5 2306,-202 2378,-223.5 2306,-245"/>
<text text-anchor="middle" x="2306" y="-221" font-family="Arial" font-size="10.00">S&#45;1945</text>
</g>
<!-- C&#45;0211&#45;&gt;S&#45;1945 -->
<g id="edge39" class="edge">
<title>C&#45;0211&#45;&gt;S&#45;1945</title>
<path fill="none" stroke="#4d4d4d" d="M2198.18,-324C2248.25,-324 2306,-324 2306,-324 2306,-324 2306,-252.31 2306,-252.31"/>
<polygon fill="#4d4d4d" stroke="#4d4d4d" points="2308.45,-252.31 2306,-245.31 2303.55,-252.31 2308.45,-252.31"/>
</g>
<!-- S&#45;504 -->
<g id="node41" class="node">
<title>S&#45;504</title>
<polygon fill="mediumseagreen" stroke="black" points="1946,-245 1874,-223.5 1946,-202 2018,-223.5 1946,-245"/>
<text text-anchor="middle" x="1946" y="-221" font-family="Arial" font-size="10.00">S&#45;504</text>
</g>
<!-- C&#45;0211&#45;&gt;S&#45;504 -->
<g id="edge44" class="edge">
<title>C&#45;0211&#45;&gt;S&#45;504</title>
<path fill="none" stroke="#4d4d4d" d="M2053.78,-324C2043.32,-324 2036,-324 2036,-324 2036,-324 2036,-223 2036,-223 2036,-223 2023.47,-223 2023.47,-223"/>
<polygon fill="#4d4d4d" stroke="#4d4d4d" points="2023.47,-220.55 2016.47,-223 2023.47,-225.45 2023.47,-220.55"/>
</g>
<!-- S&#45;1834 -->
<g id="node23" class="node">
<title>S&#45;1834</title>
<polygon fill="mediumseagreen" stroke="black" points="866,-346 794,-324.5 866,-303 938,-324.5 866,-346"/>
<text text-anchor="middle" x="866" y="-322" font-family="Arial" font-size="10.00">S&#45;1834</text>
</g>
<!-- C&#45;0460 -->
<g id="node24" class="node">
<title>C&#45;0460</title>
<ellipse fill="tomato" stroke="black" cx="72" cy="-425.5" rx="72" ry="21.5"/>
<text text-anchor="middle" x="72" y="-423" font-family="Arial" font-size="10.00">C&#45;0460</text>
</g>
<!-- ext_circ_304_26_ -->
<g id="node50" class="node">
<title>ext_circ_304_26_</title>
<polygon fill="lightpink" stroke="darkorange" stroke-dasharray="5,2" points="698,-1259 554,-1259 554,-1216 698,-1216 698,-1259"/>
<text text-anchor="middle" x="626" y="-1240.5" font-family="Arial" font-size="10.00">Circuito:</text>
<text text-anchor="middle" x="626" y="-1229.5" font-family="Arial" font-size="10.00">304&#45;26&#45;</text>
</g>
<!-- C&#45;0460&#45;&gt;ext_circ_304_26_ -->
<g id="edge49" class="edge">
<title>C&#45;0460&#45;&gt;ext_circ_304_26_</title>
<path fill="none" stroke="darkorange" stroke-dasharray="5,2" d="M48,-445.92C48,-547.13 48,-990 48,-990 48,-990 573.8,-990 573.8,-990 573.8,-990 573.8,-1208.97 573.8,-1208.97"/>
<polygon fill="darkorange" stroke="darkorange" points="571.35,-1208.97 573.8,-1215.97 576.25,-1208.97 571.35,-1208.97"/>
</g>
<!-- S&#45;1967 -->
<g id="node25" class="node">
<title>S&#45;1967</title>
<polygon fill="mediumseagreen" stroke="black" points="494,-548 422,-526.5 494,-505 566,-526.5 494,-548"/>
<text text-anchor="middle" x="494" y="-524" font-family="Arial" font-size="10.00">S&#45;1967</text>
</g>
<!-- S&#45;1967&#45;&gt;C&#45;0461 -->
<g id="edge27" class="edge">
<title>S&#45;1967&#45;&gt;C&#45;0461</title>
<path fill="none" stroke="#4d4d4d" d="M430,-523.99C430,-508.36 430,-425 430,-425 430,-425 405.23,-425 405.23,-425"/>
<polygon fill="#4d4d4d" stroke="#4d4d4d" points="405.23,-422.55 398.23,-425 405.23,-427.45 405.23,-422.55"/>
</g>
<!-- S&#45;1967&#45;&gt;C&#45;0460 -->
<g id="edge26" class="edge">
<title>S&#45;1967&#45;&gt;C&#45;0460</title>
<path fill="none" stroke="#4d4d4d" d="M426,-525C426,-515.69 426,-466 426,-466 426,-466 96,-466 96,-466 96,-466 96,-453.22 96,-453.22"/>
<polygon fill="#4d4d4d" stroke="#4d4d4d" points="98.45,-453.22 96,-446.22 93.55,-453.22 98.45,-453.22"/>
</g>
<!-- R&#45;012 -->
<g id="node26" class="node">
<title>R&#45;012</title>
<polygon fill="mediumseagreen" stroke="black" points="1103,-719.59 1103,-737.41 1060.82,-750 1001.18,-750 959,-737.41 959,-719.59 1001.18,-707 1060.82,-707 1103,-719.59"/>
<text text-anchor="middle" x="1031" y="-726" font-family="Arial" font-size="10.00">R&#45;012</text>
</g>
<!-- R&#45;012&#45;&gt;S&#45;502 -->
<g id="edge10" class="edge">
<title>R&#45;012&#45;&gt;S&#45;502</title>
<path fill="none" stroke="#4d4d4d" d="M1031,-706.58C1031,-706.58 1031,-656.03 1031,-656.03"/>
<polygon fill="#4d4d4d" stroke="#4d4d4d" points="1033.45,-656.03 1031,-649.03 1028.55,-656.03 1033.45,-656.03"/>
</g>
<!-- S&#45;866 -->
<g id="node45" class="node">
<title>S&#45;866</title>
<polygon fill="mediumseagreen" stroke="black" points="590,-649 518,-627.5 590,-606 662,-627.5 590,-649"/>
<text text-anchor="middle" x="590" y="-625" font-family="Arial" font-size="10.00">S&#45;866</text>
</g>
<!-- R&#45;012&#45;&gt;S&#45;866 -->
<g id="edge11" class="edge">
<title>R&#45;012&#45;&gt;S&#45;866</title>
<path fill="none" stroke="#4d4d4d" d="M958.82,-728C950.54,-728 945,-728 945,-728 945,-728 945,-627 945,-627 945,-627 667.56,-627 667.56,-627"/>
<polygon fill="#4d4d4d" stroke="#4d4d4d" points="667.56,-624.55 660.56,-627 667.56,-629.45 667.56,-624.55"/>
</g>
<!-- C&#45;0214 -->
<g id="node27" class="node">
<title>C&#45;0214</title>
<ellipse fill="mediumseagreen" stroke="black" cx="1031" cy="-829.5" rx="72" ry="21.5"/>
<text text-anchor="middle" x="1031" y="-827" font-family="Arial" font-size="10.00">C&#45;0214</text>
</g>
<!-- C&#45;0214&#45;&gt;C&#45;0381 -->
<g id="edge29" class="edge">
<title>C&#45;0214&#45;&gt;C&#45;0381</title>
<path fill="none" stroke="#4d4d4d" d="M1103.16,-829C1107.71,-829 1110.5,-829 1110.5,-829 1110.5,-829 1110.5,-728 1110.5,-728 1110.5,-728 1165.63,-728 1165.63,-728"/>
<polygon fill="#4d4d4d" stroke="#4d4d4d" points="1165.63,-730.45 1172.63,-728 1165.63,-725.55 1165.63,-730.45"/>
</g>
<!-- C&#45;0214&#45;&gt;C&#45;0380 -->
<g id="edge30" class="edge">
<title>C&#45;0214&#45;&gt;C&#45;0380</title>
<path fill="none" stroke="#4d4d4d" d="M963.21,-822C933.38,-822 905,-822 905,-822 905,-822 905,-750.11 905,-750.11"/>
<polygon fill="#4d4d4d" stroke="#4d4d4d" points="907.45,-750.11 905,-743.11 902.55,-750.11 907.45,-750.11"/>
</g>
<!-- C&#45;0214&#45;&gt;R&#45;012 -->
<g id="edge9" class="edge">
<title>C&#45;0214&#45;&gt;R&#45;012</title>
<path fill="none" stroke="#4d4d4d" d="M1031,-807.58C1031,-807.58 1031,-757.03 1031,-757.03"/>
<polygon fill="#4d4d4d" stroke="#4d4d4d" points="1033.45,-757.03 1031,-750.03 1028.55,-757.03 1033.45,-757.03"/>
</g>
<!-- R&#45;142&#45;&gt;ext_circ_304_26_ -->
<g id="edge50" class="edge">
<title>R&#45;142&#45;&gt;ext_circ_304_26_</title>
<path fill="none" stroke="darkorange" stroke-dasharray="5,2" d="M158.5,-346.01C158.5,-458.19 158.5,-971 158.5,-971 158.5,-971 593.6,-971 593.6,-971 593.6,-971 593.6,-1208.69 593.6,-1208.69"/>
<polygon fill="darkorange" stroke="darkorange" points="591.15,-1208.69 593.6,-1215.69 596.05,-1208.69 591.15,-1208.69"/>
</g>
<!-- C&#45;1094 -->
<g id="node29" class="node">
<title>C&#45;1094</title>
<ellipse fill="mediumseagreen" stroke="black" cx="941" cy="-930.5" rx="72" ry="21.5"/>
<text text-anchor="middle" x="941" y="-928" font-family="Arial" font-size="10.00">C&#45;1094</text>
</g>
<!-- R&#45;270 -->
<g id="node31" class="node">
<title>R&#45;270</title>
<polygon fill="tomato" stroke="black" points="627,-820.59 627,-838.41 584.82,-851 525.18,-851 483,-838.41 483,-820.59 525.18,-808 584.82,-808 627,-820.59"/>
<text text-anchor="middle" x="555" y="-827" font-family="Arial" font-size="10.00">R&#45;270</text>
</g>
<!-- C&#45;1094&#45;&gt;R&#45;270 -->
<g id="edge4" class="edge">
<title>C&#45;1094&#45;&gt;R&#45;270</title>
<path fill="none" stroke="#4d4d4d" d="M887,-916.15C887,-889.71 887,-836 887,-836 887,-836 634.04,-836 634.04,-836"/>
<polygon fill="#4d4d4d" stroke="#4d4d4d" points="634.04,-833.55 627.04,-836 634.04,-838.45 634.04,-833.55"/>
</g>
<!-- ext_circ_303_26_ -->
<g id="node51" class="node">
<title>ext_circ_303_26_</title>
<polygon fill="lightpink" stroke="darkorange" stroke-dasharray="5,2" points="503,-1259 359,-1259 359,-1216 503,-1216 503,-1259"/>
<text text-anchor="middle" x="431" y="-1240.5" font-family="Arial" font-size="10.00">Circuito:</text>
<text text-anchor="middle" x="431" y="-1229.5" font-family="Arial" font-size="10.00">303&#45;26&#45;</text>
</g>
<!-- R&#45;214&#45;&gt;ext_circ_303_26_ -->
<g id="edge53" class="edge">
<title>R&#45;214&#45;&gt;ext_circ_303_26_</title>
<path fill="none" stroke="darkorange" stroke-dasharray="5,2" d="M2053.91,-21C1728.22,-21 410,-21 410,-21 410,-21 410,-1208.87 410,-1208.87"/>
<polygon fill="darkorange" stroke="darkorange" points="407.55,-1208.87 410,-1215.87 412.45,-1208.87 407.55,-1208.87"/>
</g>
<!-- ext_circ_304_24_ -->
<g id="node49" class="node">
<title>ext_circ_304_24_</title>
<polygon fill="lightpink" stroke="darkorange" stroke-dasharray="5,2" points="293,-1259 149,-1259 149,-1216 293,-1216 293,-1259"/>
<text text-anchor="middle" x="221" y="-1240.5" font-family="Arial" font-size="10.00">Circuito:</text>
<text text-anchor="middle" x="221" y="-1229.5" font-family="Arial" font-size="10.00">304&#45;24&#45;</text>
</g>
<!-- R&#45;270&#45;&gt;ext_circ_304_24_ -->
<g id="edge48" class="edge">
<title>R&#45;270&#45;&gt;ext_circ_304_24_</title>
<path fill="none" stroke="darkorange" stroke-dasharray="5,2" d="M482.98,-829C387.38,-829 230.5,-829 230.5,-829 230.5,-829 230.5,-1208.83 230.5,-1208.83"/>
<polygon fill="darkorange" stroke="darkorange" points="228.05,-1208.83 230.5,-1215.83 232.95,-1208.83 228.05,-1208.83"/>
</g>
<!-- S&#45;588 -->
<g id="node32" class="node">
<title>S&#45;588</title>
<polygon fill="mediumseagreen" stroke="black" points="686,-548 614,-526.5 686,-505 758,-526.5 686,-548"/>
<text text-anchor="middle" x="686" y="-524" font-family="Arial" font-size="10.00">S&#45;588</text>
</g>
<!-- S&#45;588&#45;&gt;S&#45;2456 -->
<g id="edge15" class="edge">
<title>S&#45;588&#45;&gt;S&#45;2456</title>
<path fill="none" stroke="#4d4d4d" d="M756.49,-526C859.35,-526 1038.5,-526 1038.5,-526 1038.5,-526 1038.5,-451.88 1038.5,-451.88"/>
<polygon fill="#4d4d4d" stroke="#4d4d4d" points="1040.95,-451.88 1038.5,-444.88 1036.05,-451.88 1040.95,-451.88"/>
</g>
<!-- S&#45;588&#45;&gt;S&#45;1362 -->
<g id="edge14" class="edge">
<title>S&#45;588&#45;&gt;S&#45;1362</title>
<path fill="none" stroke="#4d4d4d" d="M615.42,-526C592.1,-526 572,-526 572,-526 572,-526 572,-434.6 572,-434.6"/>
<polygon fill="#4d4d4d" stroke="#4d4d4d" points="574.45,-434.6 572,-427.6 569.55,-434.6 574.45,-434.6"/>
</g>
<!-- S&#45;1131 -->
<g id="node37" class="node">
<title>S&#45;1131</title>
<polygon fill="mediumseagreen" stroke="black" points="686,-447 614,-425.5 686,-404 758,-425.5 686,-447"/>
<text text-anchor="middle" x="686" y="-423" font-family="Arial" font-size="10.00">S&#45;1131</text>
</g>
<!-- S&#45;588&#45;&gt;S&#45;1131 -->
<g id="edge24" class="edge">
<title>S&#45;588&#45;&gt;S&#45;1131</title>
<path fill="none" stroke="#4d4d4d" d="M686,-504.58C686,-504.58 686,-454.03 686,-454.03"/>
<polygon fill="#4d4d4d" stroke="#4d4d4d" points="688.45,-454.03 686,-447.03 683.55,-454.03 688.45,-454.03"/>
</g>
<!-- C&#45;0213 -->
<g id="node47" class="node">
<title>C&#45;0213</title>
<ellipse fill="mediumseagreen" stroke="black" cx="866" cy="-425.5" rx="72" ry="21.5"/>
<text text-anchor="middle" x="866" y="-423" font-family="Arial" font-size="10.00">C&#45;0213</text>
</g>
<!-- S&#45;588&#45;&gt;C&#45;0213 -->
<g id="edge16" class="edge">
<title>S&#45;588&#45;&gt;C&#45;0213</title>
<path fill="none" stroke="#4d4d4d" d="M719.51,-515C764,-515 837,-515 837,-515 837,-515 837,-452.36 837,-452.36"/>
<polygon fill="#4d4d4d" stroke="#4d4d4d" points="839.45,-452.36 837,-445.36 834.55,-452.36 839.45,-452.36"/>
</g>
<!-- 304&#45;27&#45; -->
<g id="node33" class="node">
<title>304&#45;27&#45;</title>
<polygon fill="gold" stroke="black" points="1013,-1228.59 1013,-1246.41 970.82,-1259 911.18,-1259 869,-1246.41 869,-1228.59 911.18,-1216 970.82,-1216 1013,-1228.59"/>
<polygon fill="none" stroke="black" points="1017,-1225.61 1017,-1249.39 971.41,-1263 910.59,-1263 865,-1249.39 865,-1225.61 910.59,-1212 971.41,-1212 1017,-1225.61"/>
<text text-anchor="middle" x="941" y="-1235" font-family="Arial" font-size="10.00">304&#45;27&#45;</text>
</g>
<!-- 304&#45;27&#45;&#45;&gt;C&#45;1201 -->
<g id="edge1" class="edge">
<title>304&#45;27&#45;&#45;&gt;C&#45;1201</title>
<path fill="none" stroke="#4d4d4d" d="M941,-1211.81C941,-1211.81 941,-1161.03 941,-1161.03"/>
<polygon fill="#4d4d4d" stroke="#4d4d4d" points="943.45,-1161.03 941,-1154.03 938.55,-1161.03 943.45,-1161.03"/>
</g>
<!-- S&#45;1945&#45;&gt;C&#45;0914 -->
<g id="edge41" class="edge">
<title>S&#45;1945&#45;&gt;C&#45;0914</title>
<path fill="none" stroke="#4d4d4d" d="M2235.53,-223C2224.14,-223 2216,-223 2216,-223 2216,-223 2216,-122 2216,-122 2216,-122 2205.22,-122 2205.22,-122"/>
<polygon fill="#4d4d4d" stroke="#4d4d4d" points="2205.22,-119.55 2198.22,-122 2205.22,-124.45 2205.22,-119.55"/>
</g>
<!-- S&#45;1946 -->
<g id="node42" class="node">
<title>S&#45;1946</title>
<polygon fill="mediumseagreen" stroke="black" points="2306,-144 2234,-122.5 2306,-101 2378,-122.5 2306,-144"/>
<text text-anchor="middle" x="2306" y="-120" font-family="Arial" font-size="10.00">S&#45;1946</text>
</g>
<!-- S&#45;1945&#45;&gt;S&#45;1946 -->
<g id="edge40" class="edge">
<title>S&#45;1945&#45;&gt;S&#45;1946</title>
<path fill="none" stroke="#4d4d4d" d="M2306,-201.58C2306,-201.58 2306,-151.03 2306,-151.03"/>
<polygon fill="#4d4d4d" stroke="#4d4d4d" points="2308.45,-151.03 2306,-144.03 2303.55,-151.03 2308.45,-151.03"/>
</g>
<!-- C&#45;0915 -->
<g id="node43" class="node">
<title>C&#45;0915</title>
<ellipse fill="tomato" stroke="black" cx="2486" cy="-122.5" rx="72" ry="21.5"/>
<text text-anchor="middle" x="2486" y="-120" font-family="Arial" font-size="10.00">C&#45;0915</text>
</g>
<!-- S&#45;1945&#45;&gt;C&#45;0915 -->
<g id="edge42" class="edge">
<title>S&#45;1945&#45;&gt;C&#45;0915</title>
<path fill="none" stroke="#4d4d4d" d="M2376.7,-223C2417.97,-223 2462,-223 2462,-223 2462,-223 2462,-149.84 2462,-149.84"/>
<polygon fill="#4d4d4d" stroke="#4d4d4d" points="2464.45,-149.84 2462,-142.84 2459.55,-149.84 2464.45,-149.84"/>
</g>
<!-- C&#45;0216 -->
<g id="node35" class="node">
<title>C&#45;0216</title>
<ellipse fill="mediumseagreen" stroke="black" cx="1121" cy="-930.5" rx="72" ry="21.5"/>
<text text-anchor="middle" x="1121" y="-928" font-family="Arial" font-size="10.00">C&#45;0216</text>
</g>
<!-- C&#45;0216&#45;&gt;S&#45;1865 -->
<g id="edge45" class="edge">
<title>C&#45;0216&#45;&gt;S&#45;1865</title>
<path fill="none" stroke="#4d4d4d" d="M1157,-911.5C1157,-911.5 1157,-841.97 1157,-841.97"/>
<polygon fill="#4d4d4d" stroke="#4d4d4d" points="1159.45,-841.97 1157,-834.97 1154.55,-841.97 1159.45,-841.97"/>
</g>
<!-- C&#45;0216&#45;&gt;S&#45;1497 -->
<g id="edge7" class="edge">
<title>C&#45;0216&#45;&gt;S&#45;1497</title>
<path fill="none" stroke="#4d4d4d" d="M1175,-916.16C1175,-898.27 1175,-870 1175,-870 1175,-870 1346,-870 1346,-870 1346,-870 1346,-844.7 1346,-844.7"/>
<polygon fill="#4d4d4d" stroke="#4d4d4d" points="1348.45,-844.7 1346,-837.7 1343.55,-844.7 1348.45,-844.7"/>
</g>
<!-- C&#45;0216&#45;&gt;C&#45;0214 -->
<g id="edge8" class="edge">
<title>C&#45;0216&#45;&gt;C&#45;0214</title>
<path fill="none" stroke="#4d4d4d" d="M1076,-913.37C1076,-913.37 1076,-853.38 1076,-853.38"/>
<polygon fill="#4d4d4d" stroke="#4d4d4d" points="1078.45,-853.38 1076,-846.38 1073.55,-853.38 1078.45,-853.38"/>
</g>
<!-- S&#45;1368 -->
<g id="node36" class="node">
<title>S&#45;1368</title>
<polygon fill="mediumseagreen" stroke="black" points="240,-548 168,-526.5 240,-505 312,-526.5 240,-548"/>
<text text-anchor="middle" x="240" y="-524" font-family="Arial" font-size="10.00">S&#45;1368</text>
</g>
<!-- S&#45;2217 -->
<g id="node39" class="node">
<title>S&#45;2217</title>
<polygon fill="mediumseagreen" stroke="black" points="1301,-952 1229,-930.5 1301,-909 1373,-930.5 1301,-952"/>
<text text-anchor="middle" x="1301" y="-928" font-family="Arial" font-size="10.00">S&#45;2217</text>
</g>
<!-- C&#45;0281&#45;&gt;S&#45;1723 -->
<g id="edge5" class="edge">
<title>C&#45;0281&#45;&gt;S&#45;1723</title>
<path fill="none" stroke="#4d4d4d" d="M873.4,-1024C823.96,-1024 765.5,-1024 765.5,-1024 765.5,-1024 765.5,-957.79 765.5,-957.79"/>
<polygon fill="#4d4d4d" stroke="#4d4d4d" points="767.95,-957.79 765.5,-950.79 763.05,-957.79 767.95,-957.79"/>
</g>
<!-- C&#45;0281&#45;&gt;C&#45;1094 -->
<g id="edge3" class="edge">
<title>C&#45;0281&#45;&gt;C&#45;1094</title>
<path fill="none" stroke="#4d4d4d" d="M941,-1009.58C941,-1009.58 941,-959.03 941,-959.03"/>
<polygon fill="#4d4d4d" stroke="#4d4d4d" points="943.45,-959.03 941,-952.03 938.55,-959.03 943.45,-959.03"/>
</g>
<!-- C&#45;0281&#45;&gt;C&#45;0216 -->
<g id="edge6" class="edge">
<title>C&#45;0281&#45;&gt;C&#45;0216</title>
<path fill="none" stroke="#4d4d4d" d="M1008.54,-1024C1059.61,-1024 1121,-1024 1121,-1024 1121,-1024 1121,-959.19 1121,-959.19"/>
<polygon fill="#4d4d4d" stroke="#4d4d4d" points="1123.45,-959.19 1121,-952.19 1118.55,-959.19 1123.45,-959.19"/>
</g>
<!-- C&#45;0281&#45;&gt;S&#45;2217 -->
<g id="edge46" class="edge">
<title>C&#45;0281&#45;&gt;S&#45;2217</title>
<path fill="none" stroke="#4d4d4d" d="M1009.99,-1038C1114.52,-1038 1301,-1038 1301,-1038 1301,-1038 1301,-959.25 1301,-959.25"/>
<polygon fill="#4d4d4d" stroke="#4d4d4d" points="1303.45,-959.25 1301,-952.25 1298.55,-959.25 1303.45,-959.25"/>
</g>
<!-- S&#45;1140 -->
<g id="node44" class="node">
<title>S&#45;1140</title>
<polygon fill="tomato" stroke="black" points="581,-952 509,-930.5 581,-909 653,-930.5 581,-952"/>
<text text-anchor="middle" x="581" y="-928" font-family="Arial" font-size="10.00">S&#45;1140</text>
</g>
<!-- C&#45;0281&#45;&gt;S&#45;1140 -->
<g id="edge47" class="edge">
<title>C&#45;0281&#45;&gt;S&#45;1140</title>
<path fill="none" stroke="#4d4d4d" d="M872.31,-1038C781.59,-1038 633.2,-1038 633.2,-1038 633.2,-1038 633.2,-943.59 633.2,-943.59"/>
<polygon fill="#4d4d4d" stroke="#4d4d4d" points="635.65,-943.59 633.2,-936.59 630.75,-943.59 635.65,-943.59"/>
</g>
<!-- C&#45;0915&#45;&gt;ext_circ_303_26_ -->
<g id="edge52" class="edge">
<title>C&#45;0915&#45;&gt;ext_circ_303_26_</title>
<path fill="none" stroke="darkorange" stroke-dasharray="5,2" d="M2510,-143C2510,-264.9 2510,-889 2510,-889 2510,-889 493,-889 493,-889 493,-889 493,-1208.96 493,-1208.96"/>
<polygon fill="darkorange" stroke="darkorange" points="490.55,-1208.96 493,-1215.96 495.45,-1208.96 490.55,-1208.96"/>
</g>
<!-- S&#45;1140&#45;&gt;ext_circ_304_26_ -->
<g id="edge54" class="edge">
<title>S&#45;1140&#45;&gt;ext_circ_304_26_</title>
<path fill="none" stroke="darkorange" stroke-dasharray="5,2" d="M613.4,-942.53C613.4,-942.53 613.4,-1208.58 613.4,-1208.58"/>
<polygon fill="darkorange" stroke="darkorange" points="610.95,-1208.58 613.4,-1215.58 615.85,-1208.58 610.95,-1208.58"/>
</g>
<!-- S&#45;866&#45;&gt;S&#45;1967 -->
<g id="edge25" class="edge">
<title>S&#45;866&#45;&gt;S&#45;1967</title>
<path fill="none" stroke="#4d4d4d" d="M542,-620.24C542,-620.24 542,-540.7 542,-540.7"/>
<polygon fill="#4d4d4d" stroke="#4d4d4d" points="544.45,-540.7 542,-533.7 539.55,-540.7 544.45,-540.7"/>
</g>
<!-- S&#45;866&#45;&gt;S&#45;588 -->
<g id="edge13" class="edge">
<title>S&#45;866&#45;&gt;S&#45;588</title>
<path fill="none" stroke="#4d4d4d" d="M638,-620.24C638,-620.24 638,-540.7 638,-540.7"/>
<polygon fill="#4d4d4d" stroke="#4d4d4d" points="640.45,-540.7 638,-533.7 635.55,-540.7 640.45,-540.7"/>
</g>
<!-- S&#45;866&#45;&gt;S&#45;1368 -->
<g id="edge12" class="edge">
<title>S&#45;866&#45;&gt;S&#45;1368</title>
<path fill="none" stroke="#4d4d4d" d="M519.67,-627C434.56,-627 302.5,-627 302.5,-627 302.5,-627 302.5,-536.4 302.5,-536.4"/>
<polygon fill="#4d4d4d" stroke="#4d4d4d" points="304.95,-536.4 302.5,-529.4 300.05,-536.4 304.95,-536.4"/>
</g>
<!-- C&#45;0382&#45;&gt;C&#45;0212 -->
<g id="edge33" class="edge">
<title>C&#45;0382&#45;&gt;C&#45;0212</title>
<path fill="none" stroke="#4d4d4d" d="M1744.67,-509.82C1744.67,-509.82 1744.67,-453.05 1744.67,-453.05"/>
<polygon fill="#4d4d4d" stroke="#4d4d4d" points="1747.12,-453.05 1744.67,-446.05 1742.22,-453.05 1747.12,-453.05"/>
</g>
<!-- C&#45;0213&#45;&gt;S&#45;1431 -->
<g id="edge19" class="edge">
<title>C&#45;0213&#45;&gt;S&#45;1431</title>
<path fill="none" stroke="#4d4d4d" d="M938.18,-425C946.46,-425 952,-425 952,-425 952,-425 952,-324 952,-324 952,-324 968.24,-324 968.24,-324"/>
<polygon fill="#4d4d4d" stroke="#4d4d4d" points="968.24,-326.45 975.24,-324 968.24,-321.55 968.24,-326.45"/>
</g>
<!-- C&#45;0213&#45;&gt;S&#45;1378 -->
<g id="edge20" class="edge">
<title>C&#45;0213&#45;&gt;S&#45;1378</title>
<path fill="none" stroke="#4d4d4d" d="M890,-404.95C890,-384.77 890,-357 890,-357 890,-357 1163.5,-357 1163.5,-357 1163.5,-357 1163.5,-334.5 1163.5,-334.5"/>
<polygon fill="#4d4d4d" stroke="#4d4d4d" points="1165.95,-334.5 1163.5,-327.5 1161.05,-334.5 1165.95,-334.5"/>
</g>
<!-- C&#45;0213&#45;&gt;S&#45;1429 -->
<g id="edge17" class="edge">
<title>C&#45;0213&#45;&gt;S&#45;1429</title>
<path fill="none" stroke="#4d4d4d" d="M914,-409.14C914,-400.64 914,-392 914,-392 914,-392 1339.67,-392 1339.67,-392 1339.67,-392 1339.67,-333.45 1339.67,-333.45"/>
<polygon fill="#4d4d4d" stroke="#4d4d4d" points="1342.12,-333.45 1339.67,-326.45 1337.22,-333.45 1342.12,-333.45"/>
</g>
<!-- C&#45;0213&#45;&gt;S&#45;1430 -->
<g id="edge18" class="edge">
<title>C&#45;0213&#45;&gt;S&#45;1430</title>
<path fill="none" stroke="#4d4d4d" d="M818,-409.33C818,-396.25 818,-380 818,-380 818,-380 326,-380 326,-380 326,-380 326,-353.12 326,-353.12"/>
<polygon fill="#4d4d4d" stroke="#4d4d4d" points="328.45,-353.12 326,-346.12 323.55,-353.12 328.45,-353.12"/>
</g>
<!-- C&#45;0213&#45;&gt;S&#45;1874 -->
<g id="edge22" class="edge">
<title>C&#45;0213&#45;&gt;S&#45;1874</title>
<path fill="none" stroke="#4d4d4d" d="M842,-405.1C842,-388.92 842,-369 842,-369 842,-369 506,-369 506,-369 506,-369 506,-353.23 506,-353.23"/>
<polygon fill="#4d4d4d" stroke="#4d4d4d" points="508.45,-353.23 506,-346.23 503.55,-353.23 508.45,-353.23"/>
</g>
<!-- C&#45;0213&#45;&gt;S&#45;2245 -->
<g id="edge23" class="edge">
<title>C&#45;0213&#45;&gt;S&#45;2245</title>
<path fill="none" stroke="#4d4d4d" d="M793.84,-425C789.29,-425 786.5,-425 786.5,-425 786.5,-425 786.5,-324 786.5,-324 786.5,-324 763.35,-324 763.35,-324"/>
<polygon fill="#4d4d4d" stroke="#4d4d4d" points="763.35,-321.55 756.35,-324 763.35,-326.45 763.35,-321.55"/>
</g>
<!-- C&#45;0213&#45;&gt;S&#45;1834 -->
<g id="edge21" class="edge">
<title>C&#45;0213&#45;&gt;S&#45;1834</title>
<path fill="none" stroke="#4d4d4d" d="M866,-403.58C866,-403.58 866,-353.03 866,-353.03"/>
<polygon fill="#4d4d4d" stroke="#4d4d4d" points="868.45,-353.03 866,-346.03 863.55,-353.03 868.45,-353.03"/>
</g>
</g>
</svg>
