<?xml version="1.0" encoding="UTF-8" standalone="no"?>
<!DOCTYPE svg PUBLIC "-//W3C//DTD SVG 1.1//EN"
 "http://www.w3.org/Graphics/SVG/1.1/DTD/svg11.dtd">
<!-- Generated by graphviz version 2.50.0 (0)
 -->
<!-- Title: Grafo_Circuito_303_23_ Pages: 1 -->
<svg width="2391pt" height="1978pt"
 viewBox="0.00 0.00 2391.00 1978.00" xmlns="http://www.w3.org/2000/svg" xmlns:xlink="http://www.w3.org/1999/xlink">
<g id="graph0" class="graph" transform="scale(1 1) rotate(0) translate(4 1974)">
<title>Grafo_Circuito_303_23_</title>
<polygon fill="white" stroke="transparent" points="-4,4 -4,-1974 2387,-1974 2387,4 -4,4"/>
<!-- S&#45;2155 -->
<g id="node1" class="node">
<title>S&#45;2155</title>
<polygon fill="mediumseagreen" stroke="black" points="1337,-245 1265,-223.5 1337,-202 1409,-223.5 1337,-245"/>
<text text-anchor="middle" x="1337" y="-221" font-family="Arial" font-size="10.00">S&#45;2155</text>
</g>
<!-- S&#45;2117 -->
<g id="node2" class="node">
<title>S&#45;2117</title>
<polygon fill="mediumseagreen" stroke="black" points="1517,-245 1445,-223.5 1517,-202 1589,-223.5 1517,-245"/>
<text text-anchor="middle" x="1517" y="-221" font-family="Arial" font-size="10.00">S&#45;2117</text>
</g>
<!-- S&#45;1136 -->
<g id="node3" class="node">
<title>S&#45;1136</title>
<polygon fill="mediumseagreen" stroke="black" points="432,-1558 360,-1536.5 432,-1515 504,-1536.5 432,-1558"/>
<text text-anchor="middle" x="432" y="-1534" font-family="Arial" font-size="10.00">S&#45;1136</text>
</g>
<!-- 303&#45;23&#45; -->
<g id="node4" class="node">
<title>303&#45;23&#45;</title>
<polygon fill="gold" stroke="black" points="414,-1935.59 414,-1953.41 371.82,-1966 312.18,-1966 270,-1953.41 270,-1935.59 312.18,-1923 371.82,-1923 414,-1935.59"/>
<polygon fill="none" stroke="black" points="418,-1932.61 418,-1956.39 372.41,-1970 311.59,-1970 266,-1956.39 266,-1932.61 311.59,-1919 372.41,-1919 418,-1932.61"/>
<text text-anchor="middle" x="342" y="-1942" font-family="Arial" font-size="10.00">303&#45;23&#45;</text>
</g>
<!-- C&#45;0169 -->
<g id="node60" class="node">
<title>C&#45;0169</title>
<ellipse fill="mediumseagreen" stroke="black" cx="342" cy="-1839.5" rx="72" ry="21.5"/>
<text text-anchor="middle" x="342" y="-1837" font-family="Arial" font-size="10.00">C&#45;0169</text>
</g>
<!-- 303&#45;23&#45;&#45;&gt;C&#45;0169 -->
<g id="edge1" class="edge">
<title>303&#45;23&#45;&#45;&gt;C&#45;0169</title>
<path fill="none" stroke="#4d4d4d" d="M342,-1918.81C342,-1918.81 342,-1868.03 342,-1868.03"/>
<polygon fill="#4d4d4d" stroke="#4d4d4d" points="344.45,-1868.03 342,-1861.03 339.55,-1868.03 344.45,-1868.03"/>
</g>
<!-- C&#45;0855 -->
<g id="node5" class="node">
<title>C&#45;0855</title>
<ellipse fill="tomato" stroke="black" cx="1201" cy="-1031.5" rx="72" ry="21.5"/>
<text text-anchor="middle" x="1201" y="-1029" font-family="Arial" font-size="10.00">C&#45;0855</text>
</g>
<!-- C&#45;0856 -->
<g id="node62" class="node">
<title>C&#45;0856</title>
<ellipse fill="mediumseagreen" stroke="black" cx="1418" cy="-829.5" rx="72" ry="21.5"/>
<text text-anchor="middle" x="1418" y="-827" font-family="Arial" font-size="10.00">C&#45;0856</text>
</g>
<!-- C&#45;0855&#45;&gt;C&#45;0856 -->
<g id="edge65" class="edge">
<title>C&#45;0855&#45;&gt;C&#45;0856</title>
<path fill="none" stroke="blue" stroke-dasharray="5,2" d="M1219.5,-1010.58C1219.5,-960.14 1219.5,-836 1219.5,-836 1219.5,-836 1342.13,-836 1342.13,-836"/>
<polygon fill="blue" stroke="blue" points="1342.13,-838.45 1349.13,-836 1342.13,-833.55 1342.13,-838.45"/>
</g>
<!-- C&#45;0734 -->
<g id="node6" class="node">
<title>C&#45;0734</title>
<ellipse fill="tomato" stroke="black" cx="887" cy="-526.5" rx="72" ry="21.5"/>
<text text-anchor="middle" x="887" y="-524" font-family="Arial" font-size="10.00">C&#45;0734</text>
</g>
<!-- ext_circ_316_22 -->
<g id="node64" class="node">
<title>ext_circ_316_22</title>
<polygon fill="lightpink" stroke="darkorange" stroke-dasharray="5,2" points="959,-447 815,-447 815,-404 959,-404 959,-447"/>
<text text-anchor="middle" x="887" y="-428.5" font-family="Arial" font-size="10.00">Circuito:</text>
<text text-anchor="middle" x="887" y="-417.5" font-family="Arial" font-size="10.00">316&#45;22</text>
</g>
<!-- C&#45;0734&#45;&gt;ext_circ_316_22 -->
<g id="edge66" class="edge">
<title>C&#45;0734&#45;&gt;ext_circ_316_22</title>
<path fill="none" stroke="darkorange" stroke-dasharray="5,2" d="M887,-504.58C887,-504.58 887,-454.03 887,-454.03"/>
<polygon fill="darkorange" stroke="darkorange" points="889.45,-454.03 887,-447.03 884.55,-454.03 889.45,-454.03"/>
</g>
<!-- S&#45;581 -->
<g id="node7" class="node">
<title>S&#45;581</title>
<polygon fill="mediumseagreen" stroke="black" points="1951,-144 1879,-122.5 1951,-101 2023,-122.5 1951,-144"/>
<text text-anchor="middle" x="1951" y="-120" font-family="Arial" font-size="10.00">S&#45;581</text>
</g>
<!-- S&#45;1975 -->
<g id="node8" class="node">
<title>S&#45;1975</title>
<polygon fill="mediumseagreen" stroke="black" points="1157,-346 1085,-324.5 1157,-303 1229,-324.5 1157,-346"/>
<text text-anchor="middle" x="1157" y="-322" font-family="Arial" font-size="10.00">S&#45;1975</text>
</g>
<!-- S&#45;578 -->
<g id="node24" class="node">
<title>S&#45;578</title>
<polygon fill="mediumseagreen" stroke="black" points="977,-245 905,-223.5 977,-202 1049,-223.5 977,-245"/>
<text text-anchor="middle" x="977" y="-221" font-family="Arial" font-size="10.00">S&#45;578</text>
</g>
<!-- S&#45;1975&#45;&gt;S&#45;578 -->
<g id="edge43" class="edge">
<title>S&#45;1975&#45;&gt;S&#45;578</title>
<path fill="none" stroke="#4d4d4d" d="M1086.32,-324C1046.23,-324 1004,-324 1004,-324 1004,-324 1004,-244.05 1004,-244.05"/>
<polygon fill="#4d4d4d" stroke="#4d4d4d" points="1006.45,-244.05 1004,-237.05 1001.55,-244.05 1006.45,-244.05"/>
</g>
<!-- S&#45;579 -->
<g id="node26" class="node">
<title>S&#45;579</title>
<polygon fill="mediumseagreen" stroke="black" points="1157,-245 1085,-223.5 1157,-202 1229,-223.5 1157,-245"/>
<text text-anchor="middle" x="1157" y="-221" font-family="Arial" font-size="10.00">S&#45;579</text>
</g>
<!-- S&#45;1975&#45;&gt;S&#45;579 -->
<g id="edge44" class="edge">
<title>S&#45;1975&#45;&gt;S&#45;579</title>
<path fill="none" stroke="#4d4d4d" d="M1157,-302.58C1157,-302.58 1157,-252.03 1157,-252.03"/>
<polygon fill="#4d4d4d" stroke="#4d4d4d" points="1159.45,-252.03 1157,-245.03 1154.55,-252.03 1159.45,-252.03"/>
</g>
<!-- S&#45;2357 -->
<g id="node9" class="node">
<title>S&#45;2357</title>
<polygon fill="mediumseagreen" stroke="black" points="1021,-1154 949,-1132.5 1021,-1111 1093,-1132.5 1021,-1154"/>
<text text-anchor="middle" x="1021" y="-1130" font-family="Arial" font-size="10.00">S&#45;2357</text>
</g>
<!-- S&#45;2095 -->
<g id="node10" class="node">
<title>S&#45;2095</title>
<polygon fill="mediumseagreen" stroke="black" points="1598,-952 1526,-930.5 1598,-909 1670,-930.5 1598,-952"/>
<text text-anchor="middle" x="1598" y="-928" font-family="Arial" font-size="10.00">S&#45;2095</text>
</g>
<!-- C&#45;0537 -->
<g id="node11" class="node">
<title>C&#45;0537</title>
<ellipse fill="mediumseagreen" stroke="black" cx="1247" cy="-1233.5" rx="72" ry="21.5"/>
<text text-anchor="middle" x="1247" y="-1231" font-family="Arial" font-size="10.00">C&#45;0537</text>
</g>
<!-- C&#45;0537&#45;&gt;S&#45;2357 -->
<g id="edge13" class="edge">
<title>C&#45;0537&#45;&gt;S&#45;2357</title>
<path fill="none" stroke="#4d4d4d" d="M1179.4,-1226C1120.35,-1226 1044,-1226 1044,-1226 1044,-1226 1044,-1154.52 1044,-1154.52"/>
<polygon fill="#4d4d4d" stroke="#4d4d4d" points="1046.45,-1154.52 1044,-1147.52 1041.55,-1154.52 1046.45,-1154.52"/>
</g>
<!-- S&#45;690 -->
<g id="node27" class="node">
<title>S&#45;690</title>
<polygon fill="mediumseagreen" stroke="black" points="1201,-1154 1129,-1132.5 1201,-1111 1273,-1132.5 1201,-1154"/>
<text text-anchor="middle" x="1201" y="-1130" font-family="Arial" font-size="10.00">S&#45;690</text>
</g>
<!-- C&#45;0537&#45;&gt;S&#45;690 -->
<g id="edge56" class="edge">
<title>C&#45;0537&#45;&gt;S&#45;690</title>
<path fill="none" stroke="#4d4d4d" d="M1224,-1213.06C1224,-1213.06 1224,-1154.34 1224,-1154.34"/>
<polygon fill="#4d4d4d" stroke="#4d4d4d" points="1226.45,-1154.34 1224,-1147.34 1221.55,-1154.34 1226.45,-1154.34"/>
</g>
<!-- C&#45;0264 -->
<g id="node37" class="node">
<title>C&#45;0264</title>
<ellipse fill="mediumseagreen" stroke="black" cx="1381" cy="-1132.5" rx="72" ry="21.5"/>
<text text-anchor="middle" x="1381" y="-1130" font-family="Arial" font-size="10.00">C&#45;0264</text>
</g>
<!-- C&#45;0537&#45;&gt;C&#45;0264 -->
<g id="edge14" class="edge">
<title>C&#45;0537&#45;&gt;C&#45;0264</title>
<path fill="none" stroke="#4d4d4d" d="M1314,-1225.57C1314,-1225.57 1314,-1147.39 1314,-1147.39"/>
<polygon fill="#4d4d4d" stroke="#4d4d4d" points="1316.45,-1147.39 1314,-1140.39 1311.55,-1147.39 1316.45,-1147.39"/>
</g>
<!-- S&#45;686 -->
<g id="node48" class="node">
<title>S&#45;686</title>
<polygon fill="mediumseagreen" stroke="black" points="1778,-1154 1706,-1132.5 1778,-1111 1850,-1132.5 1778,-1154"/>
<text text-anchor="middle" x="1778" y="-1130" font-family="Arial" font-size="10.00">S&#45;686</text>
</g>
<!-- C&#45;0537&#45;&gt;S&#45;686 -->
<g id="edge49" class="edge">
<title>C&#45;0537&#45;&gt;S&#45;686</title>
<path fill="none" stroke="#4d4d4d" d="M1319.17,-1233C1464.35,-1233 1778,-1233 1778,-1233 1778,-1233 1778,-1161.31 1778,-1161.31"/>
<polygon fill="#4d4d4d" stroke="#4d4d4d" points="1780.45,-1161.31 1778,-1154.31 1775.55,-1161.31 1780.45,-1161.31"/>
</g>
<!-- S&#45;761 -->
<g id="node12" class="node">
<title>S&#45;761</title>
<polygon fill="mediumseagreen" stroke="black" points="72,-1659 0,-1637.5 72,-1616 144,-1637.5 72,-1659"/>
<text text-anchor="middle" x="72" y="-1635" font-family="Arial" font-size="10.00">S&#45;761</text>
</g>
<!-- C&#45;0207 -->
<g id="node13" class="node">
<title>C&#45;0207</title>
<ellipse fill="tomato" stroke="black" cx="1591" cy="-122.5" rx="72" ry="21.5"/>
<text text-anchor="middle" x="1591" y="-120" font-family="Arial" font-size="10.00">C&#45;0207</text>
</g>
<!-- ext_circ_111_24_ -->
<g id="node65" class="node">
<title>ext_circ_111_24_</title>
<polygon fill="lightpink" stroke="darkorange" stroke-dasharray="5,2" points="1753,-43 1609,-43 1609,0 1753,0 1753,-43"/>
<text text-anchor="middle" x="1681" y="-24.5" font-family="Arial" font-size="10.00">Circuito:</text>
<text text-anchor="middle" x="1681" y="-13.5" font-family="Arial" font-size="10.00">111&#45;24&#45;</text>
</g>
<!-- C&#45;0207&#45;&gt;ext_circ_111_24_ -->
<g id="edge70" class="edge">
<title>C&#45;0207&#45;&gt;ext_circ_111_24_</title>
<path fill="none" stroke="darkorange" stroke-dasharray="5,2" d="M1636,-105.37C1636,-105.37 1636,-50.31 1636,-50.31"/>
<polygon fill="darkorange" stroke="darkorange" points="1638.45,-50.31 1636,-43.31 1633.55,-50.31 1638.45,-50.31"/>
</g>
<!-- S&#45;685 -->
<g id="node14" class="node">
<title>S&#45;685</title>
<polygon fill="mediumseagreen" stroke="black" points="1021,-1053 949,-1031.5 1021,-1010 1093,-1031.5 1021,-1053"/>
<text text-anchor="middle" x="1021" y="-1029" font-family="Arial" font-size="10.00">S&#45;685</text>
</g>
<!-- S&#45;2116 -->
<g id="node15" class="node">
<title>S&#45;2116</title>
<polygon fill="mediumseagreen" stroke="black" points="1527,-346 1455,-324.5 1527,-303 1599,-324.5 1527,-346"/>
<text text-anchor="middle" x="1527" y="-322" font-family="Arial" font-size="10.00">S&#45;2116</text>
</g>
<!-- C&#45;0315 -->
<g id="node16" class="node">
<title>C&#45;0315</title>
<ellipse fill="mediumseagreen" stroke="black" cx="1707" cy="-324.5" rx="72" ry="21.5"/>
<text text-anchor="middle" x="1707" y="-322" font-family="Arial" font-size="10.00">C&#45;0315</text>
</g>
<!-- C&#45;0315&#45;&gt;S&#45;2155 -->
<g id="edge37" class="edge">
<title>C&#45;0315&#45;&gt;S&#45;2155</title>
<path fill="none" stroke="#4d4d4d" d="M1642,-315.17C1642,-299.12 1642,-268 1642,-268 1642,-268 1344,-268 1344,-268 1344,-268 1344,-250.15 1344,-250.15"/>
<polygon fill="#4d4d4d" stroke="#4d4d4d" points="1346.45,-250.15 1344,-243.15 1341.55,-250.15 1346.45,-250.15"/>
</g>
<!-- C&#45;0315&#45;&gt;S&#45;2117 -->
<g id="edge34" class="edge">
<title>C&#45;0315&#45;&gt;S&#45;2117</title>
<path fill="none" stroke="#4d4d4d" d="M1649,-311.64C1649,-284.33 1649,-223 1649,-223 1649,-223 1594.64,-223 1594.64,-223"/>
<polygon fill="#4d4d4d" stroke="#4d4d4d" points="1594.64,-220.55 1587.64,-223 1594.64,-225.45 1594.64,-220.55"/>
</g>
<!-- C&#45;0315&#45;&gt;C&#45;0207 -->
<g id="edge40" class="edge">
<title>C&#45;0315&#45;&gt;C&#45;0207</title>
<path fill="none" stroke="#4d4d4d" d="M1656,-309.32C1656,-309.32 1656,-138.85 1656,-138.85"/>
<polygon fill="#4d4d4d" stroke="#4d4d4d" points="1658.45,-138.85 1656,-131.85 1653.55,-138.85 1658.45,-138.85"/>
</g>
<!-- C&#45;0992 -->
<g id="node17" class="node">
<title>C&#45;0992</title>
<ellipse fill="mediumseagreen" stroke="black" cx="1771" cy="-223.5" rx="72" ry="21.5"/>
<text text-anchor="middle" x="1771" y="-221" font-family="Arial" font-size="10.00">C&#45;0992</text>
</g>
<!-- C&#45;0315&#45;&gt;C&#45;0992 -->
<g id="edge38" class="edge">
<title>C&#45;0315&#45;&gt;C&#45;0992</title>
<path fill="none" stroke="#4d4d4d" d="M1719,-303.08C1719,-303.08 1719,-245.65 1719,-245.65"/>
<polygon fill="#4d4d4d" stroke="#4d4d4d" points="1721.45,-245.65 1719,-238.65 1716.55,-245.65 1721.45,-245.65"/>
</g>
<!-- S&#45;2118 -->
<g id="node34" class="node">
<title>S&#45;2118</title>
<polygon fill="mediumseagreen" stroke="black" points="1951,-245 1879,-223.5 1951,-202 2023,-223.5 1951,-245"/>
<text text-anchor="middle" x="1951" y="-221" font-family="Arial" font-size="10.00">S&#45;2118</text>
</g>
<!-- C&#45;0315&#45;&gt;S&#45;2118 -->
<g id="edge35" class="edge">
<title>C&#45;0315&#45;&gt;S&#45;2118</title>
<path fill="none" stroke="#4d4d4d" d="M1739,-305.05C1739,-284.8 1739,-256 1739,-256 1739,-256 1905.67,-256 1905.67,-256 1905.67,-256 1905.67,-238.7 1905.67,-238.7"/>
<polygon fill="#4d4d4d" stroke="#4d4d4d" points="1908.12,-238.7 1905.67,-231.7 1903.22,-238.7 1908.12,-238.7"/>
</g>
<!-- S&#45;582 -->
<g id="node47" class="node">
<title>S&#45;582</title>
<polygon fill="mediumseagreen" stroke="black" points="2131,-245 2059,-223.5 2131,-202 2203,-223.5 2131,-245"/>
<text text-anchor="middle" x="2131" y="-221" font-family="Arial" font-size="10.00">S&#45;582</text>
</g>
<!-- C&#45;0315&#45;&gt;S&#45;582 -->
<g id="edge41" class="edge">
<title>C&#45;0315&#45;&gt;S&#45;582</title>
<path fill="none" stroke="#4d4d4d" d="M1759,-309.6C1759,-296.33 1759,-279 1759,-279 1759,-279 2099,-279 2099,-279 2099,-279 2099,-242.54 2099,-242.54"/>
<polygon fill="#4d4d4d" stroke="#4d4d4d" points="2101.45,-242.54 2099,-235.54 2096.55,-242.54 2101.45,-242.54"/>
</g>
<!-- R&#45;238 -->
<g id="node46" class="node">
<title>R&#45;238</title>
<polygon fill="tomato" stroke="black" points="1843,-113.59 1843,-131.41 1800.82,-144 1741.18,-144 1699,-131.41 1699,-113.59 1741.18,-101 1800.82,-101 1843,-113.59"/>
<text text-anchor="middle" x="1771" y="-120" font-family="Arial" font-size="10.00">R&#45;238</text>
</g>
<!-- C&#45;0992&#45;&gt;R&#45;238 -->
<g id="edge39" class="edge">
<title>C&#45;0992&#45;&gt;R&#45;238</title>
<path fill="none" stroke="#4d4d4d" d="M1771,-201.58C1771,-201.58 1771,-151.03 1771,-151.03"/>
<polygon fill="#4d4d4d" stroke="#4d4d4d" points="1773.45,-151.03 1771,-144.03 1768.55,-151.03 1773.45,-151.03"/>
</g>
<!-- S&#45;1943 -->
<g id="node18" class="node">
<title>S&#45;1943</title>
<polygon fill="mediumseagreen" stroke="black" points="612,-1558 540,-1536.5 612,-1515 684,-1536.5 612,-1558"/>
<text text-anchor="middle" x="612" y="-1534" font-family="Arial" font-size="10.00">S&#45;1943</text>
</g>
<!-- S&#45;640 -->
<g id="node19" class="node">
<title>S&#45;640</title>
<polygon fill="mediumseagreen" stroke="black" points="1887,-346 1815,-324.5 1887,-303 1959,-324.5 1887,-346"/>
<text text-anchor="middle" x="1887" y="-322" font-family="Arial" font-size="10.00">S&#45;640</text>
</g>
<!-- S&#45;1931 -->
<g id="node32" class="node">
<title>S&#45;1931</title>
<polygon fill="mediumseagreen" stroke="black" points="2311,-245 2239,-223.5 2311,-202 2383,-223.5 2311,-245"/>
<text text-anchor="middle" x="2311" y="-221" font-family="Arial" font-size="10.00">S&#45;1931</text>
</g>
<!-- S&#45;640&#45;&gt;S&#45;1931 -->
<g id="edge47" class="edge">
<title>S&#45;640&#45;&gt;S&#45;1931</title>
<path fill="none" stroke="#4d4d4d" d="M1932.33,-316.39C1932.33,-306.48 1932.33,-291 1932.33,-291 1932.33,-291 2311,-291 2311,-291 2311,-291 2311,-252.23 2311,-252.23"/>
<polygon fill="#4d4d4d" stroke="#4d4d4d" points="2313.45,-252.23 2311,-245.23 2308.55,-252.23 2313.45,-252.23"/>
</g>
<!-- C&#45;0314 -->
<g id="node20" class="node">
<title>C&#45;0314</title>
<ellipse fill="mediumseagreen" stroke="black" cx="1707" cy="-425.5" rx="72" ry="21.5"/>
<text text-anchor="middle" x="1707" y="-423" font-family="Arial" font-size="10.00">C&#45;0314</text>
</g>
<!-- C&#45;0314&#45;&gt;S&#45;1975 -->
<g id="edge42" class="edge">
<title>C&#45;0314&#45;&gt;S&#45;1975</title>
<path fill="none" stroke="#4d4d4d" d="M1636.45,-421C1496.61,-421 1197.67,-421 1197.67,-421 1197.67,-421 1197.67,-341.11 1197.67,-341.11"/>
<polygon fill="#4d4d4d" stroke="#4d4d4d" points="1200.12,-341.11 1197.67,-334.11 1195.22,-341.11 1200.12,-341.11"/>
</g>
<!-- C&#45;0314&#45;&gt;S&#45;2116 -->
<g id="edge31" class="edge">
<title>C&#45;0314&#45;&gt;S&#45;2116</title>
<path fill="none" stroke="#4d4d4d" d="M1650.68,-412C1606,-412 1551,-412 1551,-412 1551,-412 1551,-345.95 1551,-345.95"/>
<polygon fill="#4d4d4d" stroke="#4d4d4d" points="1553.45,-345.95 1551,-338.95 1548.55,-345.95 1553.45,-345.95"/>
</g>
<!-- C&#45;0314&#45;&gt;C&#45;0315 -->
<g id="edge33" class="edge">
<title>C&#45;0314&#45;&gt;C&#45;0315</title>
<path fill="none" stroke="#4d4d4d" d="M1707,-403.58C1707,-403.58 1707,-353.03 1707,-353.03"/>
<polygon fill="#4d4d4d" stroke="#4d4d4d" points="1709.45,-353.03 1707,-346.03 1704.55,-353.03 1709.45,-353.03"/>
</g>
<!-- C&#45;0314&#45;&gt;S&#45;640 -->
<g id="edge46" class="edge">
<title>C&#45;0314&#45;&gt;S&#45;640</title>
<path fill="none" stroke="#4d4d4d" d="M1774.53,-418C1804.23,-418 1832.5,-418 1832.5,-418 1832.5,-418 1832.5,-336.79 1832.5,-336.79"/>
<polygon fill="#4d4d4d" stroke="#4d4d4d" points="1834.95,-336.79 1832.5,-329.79 1830.05,-336.79 1834.95,-336.79"/>
</g>
<!-- S&#45;652 -->
<g id="node40" class="node">
<title>S&#45;652</title>
<polygon fill="mediumseagreen" stroke="black" points="2067,-346 1995,-324.5 2067,-303 2139,-324.5 2067,-346"/>
<text text-anchor="middle" x="2067" y="-322" font-family="Arial" font-size="10.00">S&#45;652</text>
</g>
<!-- C&#45;0314&#45;&gt;S&#45;652 -->
<g id="edge32" class="edge">
<title>C&#45;0314&#45;&gt;S&#45;652</title>
<path fill="none" stroke="#4d4d4d" d="M1775.94,-432C1866.05,-432 2012.5,-432 2012.5,-432 2012.5,-432 2012.5,-336.98 2012.5,-336.98"/>
<polygon fill="#4d4d4d" stroke="#4d4d4d" points="2014.95,-336.98 2012.5,-329.98 2010.05,-336.98 2014.95,-336.98"/>
</g>
<!-- S&#45;687 -->
<g id="node21" class="node">
<title>S&#45;687</title>
<polygon fill="mediumseagreen" stroke="black" points="1778,-952 1706,-930.5 1778,-909 1850,-930.5 1778,-952"/>
<text text-anchor="middle" x="1778" y="-928" font-family="Arial" font-size="10.00">S&#45;687</text>
</g>
<!-- C&#45;0536 -->
<g id="node22" class="node">
<title>C&#45;0536</title>
<ellipse fill="tomato" stroke="black" cx="887" cy="-1435.5" rx="72" ry="21.5"/>
<text text-anchor="middle" x="887" y="-1433" font-family="Arial" font-size="10.00">C&#45;0536</text>
</g>
<!-- C&#45;0536&#45;&gt;C&#45;0537 -->
<g id="edge64" class="edge">
<title>C&#45;0536&#45;&gt;C&#45;0537</title>
<path fill="none" stroke="blue" stroke-dasharray="5,2" d="M954,-1427.59C954,-1391.02 954,-1240 954,-1240 954,-1240 1171.3,-1240 1171.3,-1240"/>
<polygon fill="blue" stroke="blue" points="1171.3,-1242.45 1178.3,-1240 1171.3,-1237.55 1171.3,-1242.45"/>
</g>
<!-- S&#45;1714 -->
<g id="node23" class="node">
<title>S&#45;1714</title>
<polygon fill="mediumseagreen" stroke="black" points="1381,-1053 1309,-1031.5 1381,-1010 1453,-1031.5 1381,-1053"/>
<text text-anchor="middle" x="1381" y="-1029" font-family="Arial" font-size="10.00">S&#45;1714</text>
</g>
<!-- C&#45;0265 -->
<g id="node25" class="node">
<title>C&#45;0265</title>
<ellipse fill="mediumseagreen" stroke="black" cx="1238" cy="-728.5" rx="72" ry="21.5"/>
<text text-anchor="middle" x="1238" y="-726" font-family="Arial" font-size="10.00">C&#45;0265</text>
</g>
<!-- C&#45;0265&#45;&gt;C&#45;0734 -->
<g id="edge24" class="edge">
<title>C&#45;0265&#45;&gt;C&#45;0734</title>
<path fill="none" stroke="#4d4d4d" d="M1169.01,-735C1063.34,-735 873.5,-735 873.5,-735 873.5,-735 873.5,-554.64 873.5,-554.64"/>
<polygon fill="#4d4d4d" stroke="#4d4d4d" points="875.95,-554.64 873.5,-547.64 871.05,-554.64 875.95,-554.64"/>
</g>
<!-- S&#45;1741 -->
<g id="node36" class="node">
<title>S&#45;1741</title>
<polygon fill="mediumseagreen" stroke="black" points="987,-649 915,-627.5 987,-606 1059,-627.5 987,-649"/>
<text text-anchor="middle" x="987" y="-625" font-family="Arial" font-size="10.00">S&#45;1741</text>
</g>
<!-- C&#45;0265&#45;&gt;S&#45;1741 -->
<g id="edge26" class="edge">
<title>C&#45;0265&#45;&gt;S&#45;1741</title>
<path fill="none" stroke="#4d4d4d" d="M1170.32,-721C1101.21,-721 1004,-721 1004,-721 1004,-721 1004,-651.22 1004,-651.22"/>
<polygon fill="#4d4d4d" stroke="#4d4d4d" points="1006.45,-651.22 1004,-644.22 1001.55,-651.22 1006.45,-651.22"/>
</g>
<!-- S&#45;1322 -->
<g id="node43" class="node">
<title>S&#45;1322</title>
<polygon fill="mediumseagreen" stroke="black" points="1167,-649 1095,-627.5 1167,-606 1239,-627.5 1167,-649"/>
<text text-anchor="middle" x="1167" y="-625" font-family="Arial" font-size="10.00">S&#45;1322</text>
</g>
<!-- C&#45;0265&#45;&gt;S&#45;1322 -->
<g id="edge48" class="edge">
<title>C&#45;0265&#45;&gt;S&#45;1322</title>
<path fill="none" stroke="#4d4d4d" d="M1202.5,-709.5C1202.5,-709.5 1202.5,-645.6 1202.5,-645.6"/>
<polygon fill="#4d4d4d" stroke="#4d4d4d" points="1204.95,-645.6 1202.5,-638.6 1200.05,-645.6 1204.95,-645.6"/>
</g>
<!-- C&#45;0733 -->
<g id="node45" class="node">
<title>C&#45;0733</title>
<ellipse fill="mediumseagreen" stroke="black" cx="1347" cy="-627.5" rx="72" ry="21.5"/>
<text text-anchor="middle" x="1347" y="-625" font-family="Arial" font-size="10.00">C&#45;0733</text>
</g>
<!-- C&#45;0265&#45;&gt;C&#45;0733 -->
<g id="edge23" class="edge">
<title>C&#45;0265&#45;&gt;C&#45;0733</title>
<path fill="none" stroke="#4d4d4d" d="M1283.75,-711.82C1283.75,-711.82 1283.75,-645.01 1283.75,-645.01"/>
<polygon fill="#4d4d4d" stroke="#4d4d4d" points="1286.2,-645.01 1283.75,-638.01 1281.3,-645.01 1286.2,-645.01"/>
</g>
<!-- C&#45;0574 -->
<g id="node51" class="node">
<title>C&#45;0574</title>
<ellipse fill="tomato" stroke="black" cx="1527" cy="-627.5" rx="72" ry="21.5"/>
<text text-anchor="middle" x="1527" y="-625" font-family="Arial" font-size="10.00">C&#45;0574</text>
</g>
<!-- C&#45;0265&#45;&gt;C&#45;0574 -->
<g id="edge27" class="edge">
<title>C&#45;0265&#45;&gt;C&#45;0574</title>
<path fill="none" stroke="#4d4d4d" d="M1292.5,-714.16C1292.5,-696.27 1292.5,-668 1292.5,-668 1292.5,-668 1472.5,-668 1472.5,-668 1472.5,-668 1472.5,-648.66 1472.5,-648.66"/>
<polygon fill="#4d4d4d" stroke="#4d4d4d" points="1474.95,-648.66 1472.5,-641.66 1470.05,-648.66 1474.95,-648.66"/>
</g>
<!-- C&#45;0575 -->
<g id="node54" class="node">
<title>C&#45;0575</title>
<ellipse fill="mediumseagreen" stroke="black" cx="1707" cy="-627.5" rx="72" ry="21.5"/>
<text text-anchor="middle" x="1707" y="-625" font-family="Arial" font-size="10.00">C&#45;0575</text>
</g>
<!-- C&#45;0265&#45;&gt;C&#45;0575 -->
<g id="edge28" class="edge">
<title>C&#45;0265&#45;&gt;C&#45;0575</title>
<path fill="none" stroke="#4d4d4d" d="M1301.25,-718.03C1301.25,-705.73 1301.25,-687 1301.25,-687 1301.25,-687 1652.5,-687 1652.5,-687 1652.5,-687 1652.5,-648.6 1652.5,-648.6"/>
<polygon fill="#4d4d4d" stroke="#4d4d4d" points="1654.95,-648.6 1652.5,-641.6 1650.05,-648.6 1654.95,-648.6"/>
</g>
<!-- S&#45;2285 -->
<g id="node42" class="node">
<title>S&#45;2285</title>
<polygon fill="mediumseagreen" stroke="black" points="1157,-144 1085,-122.5 1157,-101 1229,-122.5 1157,-144"/>
<text text-anchor="middle" x="1157" y="-120" font-family="Arial" font-size="10.00">S&#45;2285</text>
</g>
<!-- S&#45;579&#45;&gt;S&#45;2285 -->
<g id="edge45" class="edge">
<title>S&#45;579&#45;&gt;S&#45;2285</title>
<path fill="none" stroke="#4d4d4d" d="M1157,-201.58C1157,-201.58 1157,-151.03 1157,-151.03"/>
<polygon fill="#4d4d4d" stroke="#4d4d4d" points="1159.45,-151.03 1157,-144.03 1154.55,-151.03 1159.45,-151.03"/>
</g>
<!-- S&#45;690&#45;&gt;S&#45;685 -->
<g id="edge57" class="edge">
<title>S&#45;690&#45;&gt;S&#45;685</title>
<path fill="none" stroke="#4d4d4d" d="M1130.44,-1132C1119.64,-1132 1112,-1132 1112,-1132 1112,-1132 1112,-1031 1112,-1031 1112,-1031 1098.35,-1031 1098.35,-1031"/>
<polygon fill="#4d4d4d" stroke="#4d4d4d" points="1098.35,-1028.55 1091.35,-1031 1098.35,-1033.45 1098.35,-1028.55"/>
</g>
<!-- S&#45;688 -->
<g id="node28" class="node">
<title>S&#45;688</title>
<polygon fill="mediumseagreen" stroke="black" points="1778,-1053 1706,-1031.5 1778,-1010 1850,-1031.5 1778,-1053"/>
<text text-anchor="middle" x="1778" y="-1029" font-family="Arial" font-size="10.00">S&#45;688</text>
</g>
<!-- S&#45;688&#45;&gt;S&#45;2095 -->
<g id="edge55" class="edge">
<title>S&#45;688&#45;&gt;S&#45;2095</title>
<path fill="none" stroke="#4d4d4d" d="M1707.35,-1031C1678.38,-1031 1651.5,-1031 1651.5,-1031 1651.5,-1031 1651.5,-943.19 1651.5,-943.19"/>
<polygon fill="#4d4d4d" stroke="#4d4d4d" points="1653.95,-943.19 1651.5,-936.19 1649.05,-943.19 1653.95,-943.19"/>
</g>
<!-- S&#45;688&#45;&gt;S&#45;687 -->
<g id="edge53" class="edge">
<title>S&#45;688&#45;&gt;S&#45;687</title>
<path fill="none" stroke="#4d4d4d" d="M1754,-1017.03C1754,-1017.03 1754,-951.94 1754,-951.94"/>
<polygon fill="#4d4d4d" stroke="#4d4d4d" points="1756.45,-951.94 1754,-944.94 1751.55,-951.94 1756.45,-951.94"/>
</g>
<!-- S&#45;1964 -->
<g id="node38" class="node">
<title>S&#45;1964</title>
<polygon fill="mediumseagreen" stroke="black" points="1958,-952 1886,-930.5 1958,-909 2030,-930.5 1958,-952"/>
<text text-anchor="middle" x="1958" y="-928" font-family="Arial" font-size="10.00">S&#45;1964</text>
</g>
<!-- S&#45;688&#45;&gt;S&#45;1964 -->
<g id="edge52" class="edge">
<title>S&#45;688&#45;&gt;S&#45;1964</title>
<path fill="none" stroke="#4d4d4d" d="M1848.47,-1031C1859.86,-1031 1868,-1031 1868,-1031 1868,-1031 1868,-930 1868,-930 1868,-930 1880.53,-930 1880.53,-930"/>
<polygon fill="#4d4d4d" stroke="#4d4d4d" points="1880.53,-932.45 1887.53,-930 1880.53,-927.55 1880.53,-932.45"/>
</g>
<!-- S&#45;1561 -->
<g id="node61" class="node">
<title>S&#45;1561</title>
<polygon fill="mediumseagreen" stroke="black" points="2138,-952 2066,-930.5 2138,-909 2210,-930.5 2138,-952"/>
<text text-anchor="middle" x="2138" y="-928" font-family="Arial" font-size="10.00">S&#45;1561</text>
</g>
<!-- S&#45;688&#45;&gt;S&#45;1561 -->
<g id="edge54" class="edge">
<title>S&#45;688&#45;&gt;S&#45;1561</title>
<path fill="none" stroke="#4d4d4d" d="M1802,-1017.16C1802,-1002.23 1802,-981 1802,-981 1802,-981 2138,-981 2138,-981 2138,-981 2138,-959.21 2138,-959.21"/>
<polygon fill="#4d4d4d" stroke="#4d4d4d" points="2140.45,-959.21 2138,-952.21 2135.55,-959.21 2140.45,-959.21"/>
</g>
<!-- R&#45;143 -->
<g id="node29" class="node">
<title>R&#45;143</title>
<polygon fill="tomato" stroke="black" points="1279,-517.59 1279,-535.41 1236.82,-548 1177.18,-548 1135,-535.41 1135,-517.59 1177.18,-505 1236.82,-505 1279,-517.59"/>
<text text-anchor="middle" x="1207" y="-524" font-family="Arial" font-size="10.00">R&#45;143</text>
</g>
<!-- R&#45;143&#45;&gt;ext_circ_316_22 -->
<g id="edge67" class="edge">
<title>R&#45;143&#45;&gt;ext_circ_316_22</title>
<path fill="none" stroke="darkorange" stroke-dasharray="5,2" d="M1166.33,-508.16C1166.33,-482.24 1166.33,-438 1166.33,-438 1166.33,-438 966.3,-438 966.3,-438"/>
<polygon fill="darkorange" stroke="darkorange" points="966.3,-435.55 959.3,-438 966.3,-440.45 966.3,-435.55"/>
</g>
<!-- C&#45;0103 -->
<g id="node30" class="node">
<title>C&#45;0103</title>
<ellipse fill="tomato" stroke="black" cx="252" cy="-1637.5" rx="72" ry="21.5"/>
<text text-anchor="middle" x="252" y="-1635" font-family="Arial" font-size="10.00">C&#45;0103</text>
</g>
<!-- ext_circ_303_24_ -->
<g id="node63" class="node">
<title>ext_circ_303_24_</title>
<polygon fill="lightpink" stroke="darkorange" stroke-dasharray="5,2" points="324,-1558 180,-1558 180,-1515 324,-1515 324,-1558"/>
<text text-anchor="middle" x="252" y="-1539.5" font-family="Arial" font-size="10.00">Circuito:</text>
<text text-anchor="middle" x="252" y="-1528.5" font-family="Arial" font-size="10.00">303&#45;24&#45;</text>
</g>
<!-- C&#45;0103&#45;&gt;ext_circ_303_24_ -->
<g id="edge62" class="edge">
<title>C&#45;0103&#45;&gt;ext_circ_303_24_</title>
<path fill="none" stroke="darkorange" stroke-dasharray="5,2" d="M252,-1615.58C252,-1615.58 252,-1565.03 252,-1565.03"/>
<polygon fill="darkorange" stroke="darkorange" points="254.45,-1565.03 252,-1558.03 249.55,-1565.03 254.45,-1565.03"/>
</g>
<!-- C&#45;0459 -->
<g id="node31" class="node">
<title>C&#45;0459</title>
<ellipse fill="mediumseagreen" stroke="black" cx="612" cy="-1637.5" rx="72" ry="21.5"/>
<text text-anchor="middle" x="612" y="-1635" font-family="Arial" font-size="10.00">C&#45;0459</text>
</g>
<!-- C&#45;0459&#45;&gt;S&#45;1136 -->
<g id="edge60" class="edge">
<title>C&#45;0459&#45;&gt;S&#45;1136</title>
<path fill="none" stroke="#4d4d4d" d="M539.78,-1637C529.32,-1637 522,-1637 522,-1637 522,-1637 522,-1536 522,-1536 522,-1536 509.47,-1536 509.47,-1536"/>
<polygon fill="#4d4d4d" stroke="#4d4d4d" points="509.47,-1533.55 502.47,-1536 509.47,-1538.45 509.47,-1533.55"/>
</g>
<!-- C&#45;0459&#45;&gt;S&#45;1943 -->
<g id="edge6" class="edge">
<title>C&#45;0459&#45;&gt;S&#45;1943</title>
<path fill="none" stroke="#4d4d4d" d="M612,-1615.58C612,-1615.58 612,-1565.03 612,-1565.03"/>
<polygon fill="#4d4d4d" stroke="#4d4d4d" points="614.45,-1565.03 612,-1558.03 609.55,-1565.03 614.45,-1565.03"/>
</g>
<!-- C&#45;0688 -->
<g id="node39" class="node">
<title>C&#45;0688</title>
<ellipse fill="mediumseagreen" stroke="black" cx="792" cy="-1536.5" rx="72" ry="21.5"/>
<text text-anchor="middle" x="792" y="-1534" font-family="Arial" font-size="10.00">C&#45;0688</text>
</g>
<!-- C&#45;0459&#45;&gt;C&#45;0688 -->
<g id="edge58" class="edge">
<title>C&#45;0459&#45;&gt;C&#45;0688</title>
<path fill="none" stroke="#4d4d4d" d="M679.54,-1630C730.61,-1630 792,-1630 792,-1630 792,-1630 792,-1565.19 792,-1565.19"/>
<polygon fill="#4d4d4d" stroke="#4d4d4d" points="794.45,-1565.19 792,-1558.19 789.55,-1565.19 794.45,-1565.19"/>
</g>
<!-- C&#45;0263 -->
<g id="node55" class="node">
<title>C&#45;0263</title>
<ellipse fill="mediumseagreen" stroke="black" cx="1004" cy="-1536.5" rx="72" ry="21.5"/>
<text text-anchor="middle" x="1004" y="-1534" font-family="Arial" font-size="10.00">C&#45;0263</text>
</g>
<!-- C&#45;0459&#45;&gt;C&#45;0263 -->
<g id="edge7" class="edge">
<title>C&#45;0459&#45;&gt;C&#45;0263</title>
<path fill="none" stroke="#4d4d4d" d="M680.73,-1644C793.15,-1644 1004,-1644 1004,-1644 1004,-1644 1004,-1565.25 1004,-1565.25"/>
<polygon fill="#4d4d4d" stroke="#4d4d4d" points="1006.45,-1565.25 1004,-1558.25 1001.55,-1565.25 1006.45,-1565.25"/>
</g>
<!-- S&#45;1623 -->
<g id="node33" class="node">
<title>S&#45;1623</title>
<polygon fill="mediumseagreen" stroke="black" points="1418,-750 1346,-728.5 1418,-707 1490,-728.5 1418,-750"/>
<text text-anchor="middle" x="1418" y="-726" font-family="Arial" font-size="10.00">S&#45;1623</text>
</g>
<!-- S&#45;2118&#45;&gt;S&#45;581 -->
<g id="edge36" class="edge">
<title>S&#45;2118&#45;&gt;S&#45;581</title>
<path fill="none" stroke="#4d4d4d" d="M1951,-201.58C1951,-201.58 1951,-151.03 1951,-151.03"/>
<polygon fill="#4d4d4d" stroke="#4d4d4d" points="1953.45,-151.03 1951,-144.03 1948.55,-151.03 1953.45,-151.03"/>
</g>
<!-- S&#45;1713 -->
<g id="node35" class="node">
<title>S&#45;1713</title>
<polygon fill="mediumseagreen" stroke="black" points="1067,-1457 995,-1435.5 1067,-1414 1139,-1435.5 1067,-1457"/>
<text text-anchor="middle" x="1067" y="-1433" font-family="Arial" font-size="10.00">S&#45;1713</text>
</g>
<!-- C&#45;0264&#45;&gt;C&#45;0855 -->
<g id="edge16" class="edge">
<title>C&#45;0264&#45;&gt;C&#45;0855</title>
<path fill="none" stroke="#4d4d4d" d="M1308.73,-1132C1295.09,-1132 1285,-1132 1285,-1132 1285,-1132 1285,-1031 1285,-1031 1285,-1031 1280.32,-1031 1280.32,-1031"/>
<polygon fill="#4d4d4d" stroke="#4d4d4d" points="1280.32,-1028.55 1273.32,-1031 1280.32,-1033.45 1280.32,-1028.55"/>
</g>
<!-- C&#45;0264&#45;&gt;S&#45;1714 -->
<g id="edge15" class="edge">
<title>C&#45;0264&#45;&gt;S&#45;1714</title>
<path fill="none" stroke="#4d4d4d" d="M1381,-1110.58C1381,-1110.58 1381,-1060.03 1381,-1060.03"/>
<polygon fill="#4d4d4d" stroke="#4d4d4d" points="1383.45,-1060.03 1381,-1053.03 1378.55,-1060.03 1383.45,-1060.03"/>
</g>
<!-- C&#45;0854 -->
<g id="node49" class="node">
<title>C&#45;0854</title>
<ellipse fill="mediumseagreen" stroke="black" cx="1561" cy="-1031.5" rx="72" ry="21.5"/>
<text text-anchor="middle" x="1561" y="-1029" font-family="Arial" font-size="10.00">C&#45;0854</text>
</g>
<!-- C&#45;0264&#45;&gt;C&#45;0854 -->
<g id="edge17" class="edge">
<title>C&#45;0264&#45;&gt;C&#45;0854</title>
<path fill="none" stroke="#4d4d4d" d="M1453.18,-1132C1503.25,-1132 1561,-1132 1561,-1132 1561,-1132 1561,-1060.31 1561,-1060.31"/>
<polygon fill="#4d4d4d" stroke="#4d4d4d" points="1563.45,-1060.31 1561,-1053.31 1558.55,-1060.31 1563.45,-1060.31"/>
</g>
<!-- C&#45;0308 -->
<g id="node53" class="node">
<title>C&#45;0308</title>
<ellipse fill="tomato" stroke="black" cx="760" cy="-1334.5" rx="72" ry="21.5"/>
<text text-anchor="middle" x="760" y="-1332" font-family="Arial" font-size="10.00">C&#45;0308</text>
</g>
<!-- C&#45;0688&#45;&gt;C&#45;0308 -->
<g id="edge59" class="edge">
<title>C&#45;0688&#45;&gt;C&#45;0308</title>
<path fill="none" stroke="#4d4d4d" d="M767.5,-1516.02C767.5,-1516.02 767.5,-1362.95 767.5,-1362.95"/>
<polygon fill="#4d4d4d" stroke="#4d4d4d" points="769.95,-1362.95 767.5,-1355.95 765.05,-1362.95 769.95,-1362.95"/>
</g>
<!-- S&#45;689 -->
<g id="node41" class="node">
<title>S&#45;689</title>
<polygon fill="mediumseagreen" stroke="black" points="1598,-750 1526,-728.5 1598,-707 1670,-728.5 1598,-750"/>
<text text-anchor="middle" x="1598" y="-726" font-family="Arial" font-size="10.00">S&#45;689</text>
</g>
<!-- R&#45;106 -->
<g id="node44" class="node">
<title>R&#45;106</title>
<polygon fill="mediumseagreen" stroke="black" points="1779,-517.59 1779,-535.41 1736.82,-548 1677.18,-548 1635,-535.41 1635,-517.59 1677.18,-505 1736.82,-505 1779,-517.59"/>
<text text-anchor="middle" x="1707" y="-524" font-family="Arial" font-size="10.00">R&#45;106</text>
</g>
<!-- R&#45;106&#45;&gt;C&#45;0314 -->
<g id="edge30" class="edge">
<title>R&#45;106&#45;&gt;C&#45;0314</title>
<path fill="none" stroke="#4d4d4d" d="M1707,-504.58C1707,-504.58 1707,-454.03 1707,-454.03"/>
<polygon fill="#4d4d4d" stroke="#4d4d4d" points="1709.45,-454.03 1707,-447.03 1704.55,-454.03 1709.45,-454.03"/>
</g>
<!-- C&#45;0733&#45;&gt;R&#45;143 -->
<g id="edge25" class="edge">
<title>C&#45;0733&#45;&gt;R&#45;143</title>
<path fill="none" stroke="#4d4d4d" d="M1274.78,-627C1264.32,-627 1257,-627 1257,-627 1257,-627 1257,-549.2 1257,-549.2"/>
<polygon fill="#4d4d4d" stroke="#4d4d4d" points="1259.45,-549.2 1257,-542.2 1254.55,-549.2 1259.45,-549.2"/>
</g>
<!-- R&#45;238&#45;&gt;ext_circ_111_24_ -->
<g id="edge69" class="edge">
<title>R&#45;238&#45;&gt;ext_circ_111_24_</title>
<path fill="none" stroke="darkorange" stroke-dasharray="5,2" d="M1726,-105.37C1726,-105.37 1726,-50.31 1726,-50.31"/>
<polygon fill="darkorange" stroke="darkorange" points="1728.45,-50.31 1726,-43.31 1723.55,-50.31 1728.45,-50.31"/>
</g>
<!-- S&#45;686&#45;&gt;S&#45;688 -->
<g id="edge51" class="edge">
<title>S&#45;686&#45;&gt;S&#45;688</title>
<path fill="none" stroke="#4d4d4d" d="M1778,-1110.58C1778,-1110.58 1778,-1060.03 1778,-1060.03"/>
<polygon fill="#4d4d4d" stroke="#4d4d4d" points="1780.45,-1060.03 1778,-1053.03 1775.55,-1060.03 1780.45,-1060.03"/>
</g>
<!-- S&#45;1963 -->
<g id="node59" class="node">
<title>S&#45;1963</title>
<polygon fill="mediumseagreen" stroke="black" points="1958,-1053 1886,-1031.5 1958,-1010 2030,-1031.5 1958,-1053"/>
<text text-anchor="middle" x="1958" y="-1029" font-family="Arial" font-size="10.00">S&#45;1963</text>
</g>
<!-- S&#45;686&#45;&gt;S&#45;1963 -->
<g id="edge50" class="edge">
<title>S&#45;686&#45;&gt;S&#45;1963</title>
<path fill="none" stroke="#4d4d4d" d="M1848.37,-1132C1898.85,-1132 1958,-1132 1958,-1132 1958,-1132 1958,-1060.31 1958,-1060.31"/>
<polygon fill="#4d4d4d" stroke="#4d4d4d" points="1960.45,-1060.31 1958,-1053.31 1955.55,-1060.31 1960.45,-1060.31"/>
</g>
<!-- R&#45;195 -->
<g id="node50" class="node">
<title>R&#45;195</title>
<polygon fill="mediumseagreen" stroke="black" points="1490,-921.59 1490,-939.41 1447.82,-952 1388.18,-952 1346,-939.41 1346,-921.59 1388.18,-909 1447.82,-909 1490,-921.59"/>
<text text-anchor="middle" x="1418" y="-928" font-family="Arial" font-size="10.00">R&#45;195</text>
</g>
<!-- C&#45;0854&#45;&gt;R&#45;195 -->
<g id="edge18" class="edge">
<title>C&#45;0854&#45;&gt;R&#45;195</title>
<path fill="none" stroke="#4d4d4d" d="M1488.78,-1031C1478.32,-1031 1471,-1031 1471,-1031 1471,-1031 1471,-952.33 1471,-952.33"/>
<polygon fill="#4d4d4d" stroke="#4d4d4d" points="1473.45,-952.33 1471,-945.33 1468.55,-952.33 1473.45,-952.33"/>
</g>
<!-- R&#45;195&#45;&gt;C&#45;0856 -->
<g id="edge19" class="edge">
<title>R&#45;195&#45;&gt;C&#45;0856</title>
<path fill="none" stroke="#4d4d4d" d="M1418,-908.58C1418,-908.58 1418,-858.03 1418,-858.03"/>
<polygon fill="#4d4d4d" stroke="#4d4d4d" points="1420.45,-858.03 1418,-851.03 1415.55,-858.03 1420.45,-858.03"/>
</g>
<!-- C&#45;0574&#45;&gt;C&#45;0314 -->
<g id="edge68" class="edge">
<title>C&#45;0574&#45;&gt;C&#45;0314</title>
<path fill="none" stroke="blue" stroke-dasharray="5,2" d="M1503,-607C1503,-556.29 1503,-429 1503,-429 1503,-429 1628.94,-429 1628.94,-429"/>
<polygon fill="blue" stroke="blue" points="1628.94,-431.45 1635.94,-429 1628.94,-426.55 1628.94,-431.45"/>
</g>
<!-- C&#45;0535 -->
<g id="node52" class="node">
<title>C&#45;0535</title>
<ellipse fill="mediumseagreen" stroke="black" cx="1247" cy="-1435.5" rx="72" ry="21.5"/>
<text text-anchor="middle" x="1247" y="-1433" font-family="Arial" font-size="10.00">C&#45;0535</text>
</g>
<!-- R&#45;046 -->
<g id="node58" class="node">
<title>R&#45;046</title>
<polygon fill="mediumseagreen" stroke="black" points="1319,-1325.59 1319,-1343.41 1276.82,-1356 1217.18,-1356 1175,-1343.41 1175,-1325.59 1217.18,-1313 1276.82,-1313 1319,-1325.59"/>
<text text-anchor="middle" x="1247" y="-1332" font-family="Arial" font-size="10.00">R&#45;046</text>
</g>
<!-- C&#45;0535&#45;&gt;R&#45;046 -->
<g id="edge11" class="edge">
<title>C&#45;0535&#45;&gt;R&#45;046</title>
<path fill="none" stroke="#4d4d4d" d="M1247,-1413.58C1247,-1413.58 1247,-1363.03 1247,-1363.03"/>
<polygon fill="#4d4d4d" stroke="#4d4d4d" points="1249.45,-1363.03 1247,-1356.03 1244.55,-1363.03 1249.45,-1363.03"/>
</g>
<!-- C&#45;0308&#45;&gt;ext_circ_316_22 -->
<g id="edge71" class="edge">
<title>C&#45;0308&#45;&gt;ext_circ_316_22</title>
<path fill="none" stroke="darkorange" stroke-dasharray="5,2" d="M751.5,-1312.91C751.5,-1175.19 751.5,-425 751.5,-425 751.5,-425 807.89,-425 807.89,-425"/>
<polygon fill="darkorange" stroke="darkorange" points="807.89,-427.45 814.89,-425 807.89,-422.55 807.89,-427.45"/>
</g>
<!-- C&#45;0575&#45;&gt;R&#45;106 -->
<g id="edge29" class="edge">
<title>C&#45;0575&#45;&gt;R&#45;106</title>
<path fill="none" stroke="#4d4d4d" d="M1707,-605.58C1707,-605.58 1707,-555.03 1707,-555.03"/>
<polygon fill="#4d4d4d" stroke="#4d4d4d" points="1709.45,-555.03 1707,-548.03 1704.55,-555.03 1709.45,-555.03"/>
</g>
<!-- C&#45;0263&#45;&gt;C&#45;0536 -->
<g id="edge10" class="edge">
<title>C&#45;0263&#45;&gt;C&#45;0536</title>
<path fill="none" stroke="#4d4d4d" d="M945.5,-1523.71C945.5,-1523.71 945.5,-1455.19 945.5,-1455.19"/>
<polygon fill="#4d4d4d" stroke="#4d4d4d" points="947.95,-1455.19 945.5,-1448.19 943.05,-1455.19 947.95,-1455.19"/>
</g>
<!-- C&#45;0263&#45;&gt;S&#45;1713 -->
<g id="edge8" class="edge">
<title>C&#45;0263&#45;&gt;S&#45;1713</title>
<path fill="none" stroke="#4d4d4d" d="M1035.5,-1517.03C1035.5,-1517.03 1035.5,-1454.62 1035.5,-1454.62"/>
<polygon fill="#4d4d4d" stroke="#4d4d4d" points="1037.95,-1454.62 1035.5,-1447.62 1033.05,-1454.62 1037.95,-1454.62"/>
</g>
<!-- C&#45;0263&#45;&gt;C&#45;0535 -->
<g id="edge9" class="edge">
<title>C&#45;0263&#45;&gt;C&#45;0535</title>
<path fill="none" stroke="#4d4d4d" d="M1076.25,-1536C1147.88,-1536 1247,-1536 1247,-1536 1247,-1536 1247,-1464.31 1247,-1464.31"/>
<polygon fill="#4d4d4d" stroke="#4d4d4d" points="1249.45,-1464.31 1247,-1457.31 1244.55,-1464.31 1249.45,-1464.31"/>
</g>
<!-- C&#45;0687 -->
<g id="node56" class="node">
<title>C&#45;0687</title>
<ellipse fill="mediumseagreen" stroke="black" cx="342" cy="-1738.5" rx="72" ry="21.5"/>
<text text-anchor="middle" x="342" y="-1736" font-family="Arial" font-size="10.00">C&#45;0687</text>
</g>
<!-- C&#45;0687&#45;&gt;S&#45;761 -->
<g id="edge61" class="edge">
<title>C&#45;0687&#45;&gt;S&#45;761</title>
<path fill="none" stroke="#4d4d4d" d="M270,-1738C190.02,-1738 72,-1738 72,-1738 72,-1738 72,-1666.31 72,-1666.31"/>
<polygon fill="#4d4d4d" stroke="#4d4d4d" points="74.45,-1666.31 72,-1659.31 69.55,-1666.31 74.45,-1666.31"/>
</g>
<!-- C&#45;0687&#45;&gt;C&#45;0103 -->
<g id="edge3" class="edge">
<title>C&#45;0687&#45;&gt;C&#45;0103</title>
<path fill="none" stroke="#4d4d4d" d="M297,-1721.37C297,-1721.37 297,-1661.38 297,-1661.38"/>
<polygon fill="#4d4d4d" stroke="#4d4d4d" points="299.45,-1661.38 297,-1654.38 294.55,-1661.38 299.45,-1661.38"/>
</g>
<!-- C&#45;0687&#45;&gt;C&#45;0459 -->
<g id="edge5" class="edge">
<title>C&#45;0687&#45;&gt;C&#45;0459</title>
<path fill="none" stroke="#4d4d4d" d="M414,-1738C493.98,-1738 612,-1738 612,-1738 612,-1738 612,-1666.31 612,-1666.31"/>
<polygon fill="#4d4d4d" stroke="#4d4d4d" points="614.45,-1666.31 612,-1659.31 609.55,-1666.31 614.45,-1666.31"/>
</g>
<!-- C&#45;0126 -->
<g id="node57" class="node">
<title>C&#45;0126</title>
<ellipse fill="tomato" stroke="black" cx="432" cy="-1637.5" rx="72" ry="21.5"/>
<text text-anchor="middle" x="432" y="-1635" font-family="Arial" font-size="10.00">C&#45;0126</text>
</g>
<!-- C&#45;0687&#45;&gt;C&#45;0126 -->
<g id="edge4" class="edge">
<title>C&#45;0687&#45;&gt;C&#45;0126</title>
<path fill="none" stroke="#4d4d4d" d="M387,-1721.37C387,-1721.37 387,-1661.38 387,-1661.38"/>
<polygon fill="#4d4d4d" stroke="#4d4d4d" points="389.45,-1661.38 387,-1654.38 384.55,-1661.38 389.45,-1661.38"/>
</g>
<!-- C&#45;0126&#45;&gt;ext_circ_303_24_ -->
<g id="edge63" class="edge">
<title>C&#45;0126&#45;&gt;ext_circ_303_24_</title>
<path fill="none" stroke="darkorange" stroke-dasharray="5,2" d="M359.78,-1637C349.32,-1637 342,-1637 342,-1637 342,-1637 342,-1536 342,-1536 342,-1536 331.22,-1536 331.22,-1536"/>
<polygon fill="darkorange" stroke="darkorange" points="331.22,-1533.55 324.22,-1536 331.22,-1538.45 331.22,-1533.55"/>
</g>
<!-- R&#45;046&#45;&gt;C&#45;0537 -->
<g id="edge12" class="edge">
<title>R&#45;046&#45;&gt;C&#45;0537</title>
<path fill="none" stroke="#4d4d4d" d="M1247,-1312.58C1247,-1312.58 1247,-1262.03 1247,-1262.03"/>
<polygon fill="#4d4d4d" stroke="#4d4d4d" points="1249.45,-1262.03 1247,-1255.03 1244.55,-1262.03 1249.45,-1262.03"/>
</g>
<!-- C&#45;0169&#45;&gt;C&#45;0687 -->
<g id="edge2" class="edge">
<title>C&#45;0169&#45;&gt;C&#45;0687</title>
<path fill="none" stroke="#4d4d4d" d="M342,-1817.58C342,-1817.58 342,-1767.03 342,-1767.03"/>
<polygon fill="#4d4d4d" stroke="#4d4d4d" points="344.45,-1767.03 342,-1760.03 339.55,-1767.03 344.45,-1767.03"/>
</g>
<!-- C&#45;0856&#45;&gt;C&#45;0265 -->
<g id="edge22" class="edge">
<title>C&#45;0856&#45;&gt;C&#45;0265</title>
<path fill="none" stroke="#4d4d4d" d="M1350.42,-822C1322.71,-822 1297,-822 1297,-822 1297,-822 1297,-748.11 1297,-748.11"/>
<polygon fill="#4d4d4d" stroke="#4d4d4d" points="1299.45,-748.11 1297,-741.11 1294.55,-748.11 1299.45,-748.11"/>
</g>
<!-- C&#45;0856&#45;&gt;S&#45;1623 -->
<g id="edge20" class="edge">
<title>C&#45;0856&#45;&gt;S&#45;1623</title>
<path fill="none" stroke="#4d4d4d" d="M1418,-807.58C1418,-807.58 1418,-757.03 1418,-757.03"/>
<polygon fill="#4d4d4d" stroke="#4d4d4d" points="1420.45,-757.03 1418,-750.03 1415.55,-757.03 1420.45,-757.03"/>
</g>
<!-- C&#45;0856&#45;&gt;S&#45;689 -->
<g id="edge21" class="edge">
<title>C&#45;0856&#45;&gt;S&#45;689</title>
<path fill="none" stroke="#4d4d4d" d="M1490.18,-829C1540.25,-829 1598,-829 1598,-829 1598,-829 1598,-757.31 1598,-757.31"/>
<polygon fill="#4d4d4d" stroke="#4d4d4d" points="1600.45,-757.31 1598,-750.31 1595.55,-757.31 1600.45,-757.31"/>
</g>
</g>
</svg>
