<?xml version="1.0" encoding="UTF-8" standalone="no"?>
<!DOCTYPE svg PUBLIC "-//W3C//DTD SVG 1.1//EN"
 "http://www.w3.org/Graphics/SVG/1.1/DTD/svg11.dtd">
<!-- Generated by graphviz version 2.50.0 (0)
 -->
<!-- Title: Grafo_Circuito_307_25_ Pages: 1 -->
<svg width="3483pt" height="804pt"
 viewBox="0.00 0.00 3483.00 804.00" xmlns="http://www.w3.org/2000/svg" xmlns:xlink="http://www.w3.org/1999/xlink">
<g id="graph0" class="graph" transform="scale(1 1) rotate(0) translate(4 800)">
<title>Grafo_Circuito_307_25_</title>
<polygon fill="white" stroke="transparent" points="-4,4 -4,-800 3479,-800 3479,4 -4,4"/>
<!-- R&#45;081 -->
<g id="node1" class="node">
<title>R&#45;081</title>
<polygon fill="tomato" stroke="black" points="3475,-104.54 3475,-119.46 3434.87,-130 3378.13,-130 3338,-119.46 3338,-104.54 3378.13,-94 3434.87,-94 3475,-104.54"/>
<text text-anchor="middle" x="3406.5" y="-110.1" font-family="Helvetica,sans-Serif" font-size="8.00">R&#45;081</text>
</g>
<!-- ext_circ_307_22_ -->
<g id="node54" class="node">
<title>ext_circ_307_22_</title>
<polygon fill="lightpink" stroke="red" stroke-dasharray="5,2" points="1211,-792 1074,-792 1074,-756 1211,-756 1211,-792"/>
<text text-anchor="middle" x="1142.5" y="-776.6" font-family="Helvetica,sans-Serif" font-size="8.00">Circuito:</text>
<text text-anchor="middle" x="1142.5" y="-767.6" font-family="Helvetica,sans-Serif" font-size="8.00">307&#45;22&#45;</text>
</g>
<!-- R&#45;081&#45;&gt;ext_circ_307_22_ -->
<g id="edge60" class="edge">
<title>R&#45;081&#45;&gt;ext_circ_307_22_</title>
<path fill="none" stroke="red" stroke-width="0.8" stroke-dasharray="5,2" d="M3429.33,-130.16C3429.33,-199.13 3429.33,-441 3429.33,-441 3429.33,-441 1193,-441 1193,-441 1193,-441 1193,-748.62 1193,-748.62"/>
<polygon fill="red" stroke="red" stroke-width="0.8" points="1190.55,-748.62 1193,-755.62 1195.45,-748.62 1190.55,-748.62"/>
</g>
<!-- C&#45;1229 -->
<g id="node2" class="node">
<title>C&#45;1229</title>
<ellipse fill="tomato" stroke="black" cx="1943.5" cy="-582" rx="68.5" ry="18"/>
<text text-anchor="middle" x="1943.5" y="-580.1" font-family="Helvetica,sans-Serif" font-size="8.00">C&#45;1229</text>
</g>
<!-- C&#45;1231 -->
<g id="node39" class="node">
<title>C&#45;1231</title>
<ellipse fill="mediumseagreen" stroke="black" cx="2540.5" cy="-394" rx="68.5" ry="18"/>
<text text-anchor="middle" x="2540.5" y="-392.1" font-family="Helvetica,sans-Serif" font-size="8.00">C&#45;1231</text>
</g>
<!-- C&#45;1229&#45;&gt;C&#45;1231 -->
<g id="edge59" class="edge">
<title>C&#45;1229&#45;&gt;C&#45;1231</title>
<path fill="none" stroke="blue" stroke-width="0.8" stroke-dasharray="5,2" d="M1971.33,-565.48C1971.33,-521.17 1971.33,-403 1971.33,-403 1971.33,-403 2473.93,-403 2473.93,-403"/>
<polygon fill="blue" stroke="blue" stroke-width="0.8" points="2473.93,-405.45 2480.93,-403 2473.93,-400.55 2473.93,-405.45"/>
</g>
<!-- C&#45;0372 -->
<g id="node3" class="node">
<title>C&#45;0372</title>
<ellipse fill="mediumseagreen" stroke="black" cx="2116.5" cy="-582" rx="68.5" ry="18"/>
<text text-anchor="middle" x="2116.5" y="-580.1" font-family="Helvetica,sans-Serif" font-size="8.00">C&#45;0372</text>
</g>
<!-- R&#45;124 -->
<g id="node6" class="node">
<title>R&#45;124</title>
<polygon fill="mediumseagreen" stroke="black" points="2143,-480.54 2143,-495.46 2102.87,-506 2046.13,-506 2006,-495.46 2006,-480.54 2046.13,-470 2102.87,-470 2143,-480.54"/>
<text text-anchor="middle" x="2074.5" y="-486.1" font-family="Helvetica,sans-Serif" font-size="8.00">R&#45;124</text>
</g>
<!-- C&#45;0372&#45;&gt;R&#45;124 -->
<g id="edge5" class="edge">
<title>C&#45;0372&#45;&gt;R&#45;124</title>
<path fill="none" stroke="dimgray" stroke-width="0.8" d="M2095.5,-564.76C2095.5,-564.76 2095.5,-513.09 2095.5,-513.09"/>
<polygon fill="dimgray" stroke="dimgray" stroke-width="0.8" points="2097.95,-513.09 2095.5,-506.09 2093.05,-513.09 2097.95,-513.09"/>
</g>
<!-- S&#45;994 -->
<g id="node4" class="node">
<title>S&#45;994</title>
<polygon fill="mediumseagreen" stroke="black" points="1763.5,-318 1695,-300 1763.5,-282 1832,-300 1763.5,-318"/>
<text text-anchor="middle" x="1763.5" y="-298.1" font-family="Helvetica,sans-Serif" font-size="8.00">S&#45;994</text>
</g>
<!-- C&#45;0294 -->
<g id="node13" class="node">
<title>C&#45;0294</title>
<ellipse fill="tomato" stroke="black" cx="1503.5" cy="-206" rx="68.5" ry="18"/>
<text text-anchor="middle" x="1503.5" y="-204.1" font-family="Helvetica,sans-Serif" font-size="8.00">C&#45;0294</text>
</g>
<!-- S&#45;994&#45;&gt;C&#45;0294 -->
<g id="edge13" class="edge">
<title>S&#45;994&#45;&gt;C&#45;0294</title>
<path fill="none" stroke="dimgray" stroke-width="0.8" d="M1694.93,-300C1632.67,-300 1550.5,-300 1550.5,-300 1550.5,-300 1550.5,-226.47 1550.5,-226.47"/>
<polygon fill="dimgray" stroke="dimgray" stroke-width="0.8" points="1552.95,-226.47 1550.5,-219.47 1548.05,-226.47 1552.95,-226.47"/>
</g>
<!-- S&#45;063 -->
<g id="node17" class="node">
<title>S&#45;063</title>
<polygon fill="mediumseagreen" stroke="black" points="1676.5,-224 1608,-206 1676.5,-188 1745,-206 1676.5,-224"/>
<text text-anchor="middle" x="1676.5" y="-204.1" font-family="Helvetica,sans-Serif" font-size="8.00">S&#45;063</text>
</g>
<!-- S&#45;994&#45;&gt;S&#45;063 -->
<g id="edge8" class="edge">
<title>S&#45;994&#45;&gt;S&#45;063</title>
<path fill="none" stroke="dimgray" stroke-width="0.8" d="M1720,-293.24C1720,-293.24 1720,-219.7 1720,-219.7"/>
<polygon fill="dimgray" stroke="dimgray" stroke-width="0.8" points="1722.45,-219.7 1720,-212.7 1717.55,-219.7 1722.45,-219.7"/>
</g>
<!-- C&#45;1101 -->
<g id="node19" class="node">
<title>C&#45;1101</title>
<ellipse fill="mediumseagreen" stroke="black" cx="2195.5" cy="-206" rx="68.5" ry="18"/>
<text text-anchor="middle" x="2195.5" y="-204.1" font-family="Helvetica,sans-Serif" font-size="8.00">C&#45;1101</text>
</g>
<!-- S&#45;994&#45;&gt;C&#45;1101 -->
<g id="edge11" class="edge">
<title>S&#45;994&#45;&gt;C&#45;1101</title>
<path fill="none" stroke="dimgray" stroke-width="0.8" d="M1809.43,-306C1908.82,-306 2135,-306 2135,-306 2135,-306 2135,-221.53 2135,-221.53"/>
<polygon fill="dimgray" stroke="dimgray" stroke-width="0.8" points="2137.45,-221.53 2135,-214.53 2132.55,-221.53 2137.45,-221.53"/>
</g>
<!-- S&#45;1288 -->
<g id="node33" class="node">
<title>S&#45;1288</title>
<polygon fill="mediumseagreen" stroke="black" points="1849.5,-224 1781,-206 1849.5,-188 1918,-206 1849.5,-224"/>
<text text-anchor="middle" x="1849.5" y="-204.1" font-family="Helvetica,sans-Serif" font-size="8.00">S&#45;1288</text>
</g>
<!-- S&#45;994&#45;&gt;S&#45;1288 -->
<g id="edge14" class="edge">
<title>S&#45;994&#45;&gt;S&#45;1288</title>
<path fill="none" stroke="dimgray" stroke-width="0.8" d="M1806.5,-293.24C1806.5,-293.24 1806.5,-219.95 1806.5,-219.95"/>
<polygon fill="dimgray" stroke="dimgray" stroke-width="0.8" points="1808.95,-219.95 1806.5,-212.95 1804.05,-219.95 1808.95,-219.95"/>
</g>
<!-- S&#45;1974 -->
<g id="node43" class="node">
<title>S&#45;1974</title>
<polygon fill="mediumseagreen" stroke="black" points="2022.5,-224 1954,-206 2022.5,-188 2091,-206 2022.5,-224"/>
<text text-anchor="middle" x="2022.5" y="-204.1" font-family="Helvetica,sans-Serif" font-size="8.00">S&#45;1974</text>
</g>
<!-- S&#45;994&#45;&gt;S&#45;1974 -->
<g id="edge10" class="edge">
<title>S&#45;994&#45;&gt;S&#45;1974</title>
<path fill="none" stroke="dimgray" stroke-width="0.8" d="M1809.34,-294C1875.17,-294 1988.67,-294 1988.67,-294 1988.67,-294 1988.67,-222.42 1988.67,-222.42"/>
<polygon fill="dimgray" stroke="dimgray" stroke-width="0.8" points="1991.12,-222.42 1988.67,-215.42 1986.22,-222.42 1991.12,-222.42"/>
</g>
<!-- S&#45;1794 -->
<g id="node5" class="node">
<title>S&#45;1794</title>
<polygon fill="mediumseagreen" stroke="black" points="2368.5,-130 2300,-112 2368.5,-94 2437,-112 2368.5,-130"/>
<text text-anchor="middle" x="2368.5" y="-110.1" font-family="Helvetica,sans-Serif" font-size="8.00">S&#45;1794</text>
</g>
<!-- S&#45;2442 -->
<g id="node12" class="node">
<title>S&#45;2442</title>
<polygon fill="mediumseagreen" stroke="black" points="2281.5,-36 2213,-18 2281.5,0 2350,-18 2281.5,-36"/>
<text text-anchor="middle" x="2281.5" y="-16.1" font-family="Helvetica,sans-Serif" font-size="8.00">S&#45;2442</text>
</g>
<!-- S&#45;1794&#45;&gt;S&#45;2442 -->
<g id="edge35" class="edge">
<title>S&#45;1794&#45;&gt;S&#45;2442</title>
<path fill="none" stroke="dimgray" stroke-width="0.8" d="M2325,-105.24C2325,-105.24 2325,-31.7 2325,-31.7"/>
<polygon fill="dimgray" stroke="dimgray" stroke-width="0.8" points="2327.45,-31.7 2325,-24.7 2322.55,-31.7 2327.45,-31.7"/>
</g>
<!-- S&#45;2443 -->
<g id="node49" class="node">
<title>S&#45;2443</title>
<polygon fill="mediumseagreen" stroke="black" points="2454.5,-36 2386,-18 2454.5,0 2523,-18 2454.5,-36"/>
<text text-anchor="middle" x="2454.5" y="-16.1" font-family="Helvetica,sans-Serif" font-size="8.00">S&#45;2443</text>
</g>
<!-- S&#45;1794&#45;&gt;S&#45;2443 -->
<g id="edge36" class="edge">
<title>S&#45;1794&#45;&gt;S&#45;2443</title>
<path fill="none" stroke="dimgray" stroke-width="0.8" d="M2411.5,-105.24C2411.5,-105.24 2411.5,-31.95 2411.5,-31.95"/>
<polygon fill="dimgray" stroke="dimgray" stroke-width="0.8" points="2413.95,-31.95 2411.5,-24.95 2409.05,-31.95 2413.95,-31.95"/>
</g>
<!-- C&#45;0373 -->
<g id="node32" class="node">
<title>C&#45;0373</title>
<ellipse fill="mediumseagreen" stroke="black" cx="1243.5" cy="-394" rx="68.5" ry="18"/>
<text text-anchor="middle" x="1243.5" y="-392.1" font-family="Helvetica,sans-Serif" font-size="8.00">C&#45;0373</text>
</g>
<!-- R&#45;124&#45;&gt;C&#45;0373 -->
<g id="edge6" class="edge">
<title>R&#45;124&#45;&gt;C&#45;0373</title>
<path fill="none" stroke="dimgray" stroke-width="0.8" d="M2005.77,-488C1813.57,-488 1284.5,-488 1284.5,-488 1284.5,-488 1284.5,-415.69 1284.5,-415.69"/>
<polygon fill="dimgray" stroke="dimgray" stroke-width="0.8" points="1286.95,-415.69 1284.5,-408.69 1282.05,-415.69 1286.95,-415.69"/>
</g>
<!-- S&#45;2237 -->
<g id="node7" class="node">
<title>S&#45;2237</title>
<polygon fill="mediumseagreen" stroke="black" points="2714.5,-130 2646,-112 2714.5,-94 2783,-112 2714.5,-130"/>
<text text-anchor="middle" x="2714.5" y="-110.1" font-family="Helvetica,sans-Serif" font-size="8.00">S&#45;2237</text>
</g>
<!-- 307&#45;25&#45; -->
<g id="node8" class="node">
<title>307&#45;25&#45;</title>
<polygon fill="gold" stroke="black" points="1925,-766.54 1925,-781.46 1884.87,-792 1828.13,-792 1788,-781.46 1788,-766.54 1828.13,-756 1884.87,-756 1925,-766.54"/>
<polygon fill="none" stroke="black" points="1929,-763.46 1929,-784.54 1885.39,-796 1827.61,-796 1784,-784.54 1784,-763.46 1827.61,-752 1885.39,-752 1929,-763.46"/>
<text text-anchor="middle" x="1856.5" y="-772.1" font-family="Helvetica,sans-Serif" font-size="8.00">307&#45;25&#45;</text>
</g>
<!-- C&#45;0105 -->
<g id="node26" class="node">
<title>C&#45;0105</title>
<ellipse fill="mediumseagreen" stroke="black" cx="1856.5" cy="-676" rx="68.5" ry="18"/>
<text text-anchor="middle" x="1856.5" y="-674.1" font-family="Helvetica,sans-Serif" font-size="8.00">C&#45;0105</text>
</g>
<!-- 307&#45;25&#45;&#45;&gt;C&#45;0105 -->
<g id="edge1" class="edge">
<title>307&#45;25&#45;&#45;&gt;C&#45;0105</title>
<path fill="none" stroke="dimgray" stroke-width="0.8" d="M1856.5,-751.76C1856.5,-751.76 1856.5,-701.21 1856.5,-701.21"/>
<polygon fill="dimgray" stroke="dimgray" stroke-width="0.8" points="1858.95,-701.21 1856.5,-694.21 1854.05,-701.21 1858.95,-701.21"/>
</g>
<!-- S&#45;1586 -->
<g id="node9" class="node">
<title>S&#45;1586</title>
<polygon fill="mediumseagreen" stroke="black" points="984.5,-224 916,-206 984.5,-188 1053,-206 984.5,-224"/>
<text text-anchor="middle" x="984.5" y="-204.1" font-family="Helvetica,sans-Serif" font-size="8.00">S&#45;1586</text>
</g>
<!-- C&#45;1230 -->
<g id="node10" class="node">
<title>C&#45;1230</title>
<ellipse fill="mediumseagreen" stroke="black" cx="2372.5" cy="-582" rx="68.5" ry="18"/>
<text text-anchor="middle" x="2372.5" y="-580.1" font-family="Helvetica,sans-Serif" font-size="8.00">C&#45;1230</text>
</g>
<!-- R&#45;057 -->
<g id="node37" class="node">
<title>R&#45;057</title>
<polygon fill="mediumseagreen" stroke="black" points="2482,-480.54 2482,-495.46 2441.87,-506 2385.13,-506 2345,-495.46 2345,-480.54 2385.13,-470 2441.87,-470 2482,-480.54"/>
<text text-anchor="middle" x="2413.5" y="-486.1" font-family="Helvetica,sans-Serif" font-size="8.00">R&#45;057</text>
</g>
<!-- C&#45;1230&#45;&gt;R&#45;057 -->
<g id="edge30" class="edge">
<title>C&#45;1230&#45;&gt;R&#45;057</title>
<path fill="none" stroke="dimgray" stroke-width="0.8" d="M2393,-564.76C2393,-564.76 2393,-513.09 2393,-513.09"/>
<polygon fill="dimgray" stroke="dimgray" stroke-width="0.8" points="2395.45,-513.09 2393,-506.09 2390.55,-513.09 2395.45,-513.09"/>
</g>
<!-- S&#45;2004 -->
<g id="node11" class="node">
<title>S&#45;2004</title>
<polygon fill="mediumseagreen" stroke="black" points="2801.5,-224 2733,-206 2801.5,-188 2870,-206 2801.5,-224"/>
<text text-anchor="middle" x="2801.5" y="-204.1" font-family="Helvetica,sans-Serif" font-size="8.00">S&#45;2004</text>
</g>
<!-- ext_circ_208_26_ -->
<g id="node51" class="node">
<title>ext_circ_208_26_</title>
<polygon fill="lightpink" stroke="red" stroke-dasharray="5,2" points="1394,-792 1257,-792 1257,-756 1394,-756 1394,-792"/>
<text text-anchor="middle" x="1325.5" y="-776.6" font-family="Helvetica,sans-Serif" font-size="8.00">Circuito:</text>
<text text-anchor="middle" x="1325.5" y="-767.6" font-family="Helvetica,sans-Serif" font-size="8.00">208&#45;26&#45;</text>
</g>
<!-- C&#45;0294&#45;&gt;ext_circ_208_26_ -->
<g id="edge52" class="edge">
<title>C&#45;0294&#45;&gt;ext_circ_208_26_</title>
<path fill="none" stroke="red" stroke-width="0.8" stroke-dasharray="5,2" d="M1464,-220.82C1464,-257.02 1464,-347 1464,-347 1464,-347 1326.67,-347 1326.67,-347 1326.67,-347 1326.67,-748.93 1326.67,-748.93"/>
<polygon fill="red" stroke="red" stroke-width="0.8" points="1324.22,-748.93 1326.67,-755.93 1329.12,-748.93 1324.22,-748.93"/>
</g>
<!-- S&#45;557 -->
<g id="node14" class="node">
<title>S&#45;557</title>
<polygon fill="mediumseagreen" stroke="black" points="2887.5,-318 2819,-300 2887.5,-282 2956,-300 2887.5,-318"/>
<text text-anchor="middle" x="2887.5" y="-298.1" font-family="Helvetica,sans-Serif" font-size="8.00">S&#45;557</text>
</g>
<!-- S&#45;557&#45;&gt;S&#45;2004 -->
<g id="edge48" class="edge">
<title>S&#45;557&#45;&gt;S&#45;2004</title>
<path fill="none" stroke="dimgray" stroke-width="0.8" d="M2844.5,-293.24C2844.5,-293.24 2844.5,-219.95 2844.5,-219.95"/>
<polygon fill="dimgray" stroke="dimgray" stroke-width="0.8" points="2846.95,-219.95 2844.5,-212.95 2842.05,-219.95 2846.95,-219.95"/>
</g>
<!-- C&#45;0448 -->
<g id="node18" class="node">
<title>C&#45;0448</title>
<ellipse fill="mediumseagreen" stroke="black" cx="2974.5" cy="-206" rx="68.5" ry="18"/>
<text text-anchor="middle" x="2974.5" y="-204.1" font-family="Helvetica,sans-Serif" font-size="8.00">C&#45;0448</text>
</g>
<!-- S&#45;557&#45;&gt;C&#45;0448 -->
<g id="edge41" class="edge">
<title>S&#45;557&#45;&gt;C&#45;0448</title>
<path fill="none" stroke="dimgray" stroke-width="0.8" d="M2931,-293.24C2931,-293.24 2931,-227.15 2931,-227.15"/>
<polygon fill="dimgray" stroke="dimgray" stroke-width="0.8" points="2933.45,-227.15 2931,-220.15 2928.55,-227.15 2933.45,-227.15"/>
</g>
<!-- S&#45;1397 -->
<g id="node29" class="node">
<title>S&#45;1397</title>
<polygon fill="mediumseagreen" stroke="black" points="3147.5,-224 3079,-206 3147.5,-188 3216,-206 3147.5,-224"/>
<text text-anchor="middle" x="3147.5" y="-204.1" font-family="Helvetica,sans-Serif" font-size="8.00">S&#45;1397</text>
</g>
<!-- S&#45;557&#45;&gt;S&#45;1397 -->
<g id="edge47" class="edge">
<title>S&#45;557&#45;&gt;S&#45;1397</title>
<path fill="none" stroke="dimgray" stroke-width="0.8" d="M2956.15,-300C3033.18,-300 3147.5,-300 3147.5,-300 3147.5,-300 3147.5,-231.12 3147.5,-231.12"/>
<polygon fill="dimgray" stroke="dimgray" stroke-width="0.8" points="3149.95,-231.12 3147.5,-224.12 3145.05,-231.12 3149.95,-231.12"/>
</g>
<!-- C&#45;0293 -->
<g id="node15" class="node">
<title>C&#45;0293</title>
<ellipse fill="tomato" stroke="black" cx="1157.5" cy="-300" rx="68.5" ry="18"/>
<text text-anchor="middle" x="1157.5" y="-298.1" font-family="Helvetica,sans-Serif" font-size="8.00">C&#45;0293</text>
</g>
<!-- ext_circ_307_23_ -->
<g id="node53" class="node">
<title>ext_circ_307_23_</title>
<polygon fill="lightpink" stroke="red" stroke-dasharray="5,2" points="1572,-792 1435,-792 1435,-756 1572,-756 1572,-792"/>
<text text-anchor="middle" x="1503.5" y="-776.6" font-family="Helvetica,sans-Serif" font-size="8.00">Circuito:</text>
<text text-anchor="middle" x="1503.5" y="-767.6" font-family="Helvetica,sans-Serif" font-size="8.00">307&#45;23&#45;</text>
</g>
<!-- C&#45;0293&#45;&gt;ext_circ_307_23_ -->
<g id="edge58" class="edge">
<title>C&#45;0293&#45;&gt;ext_circ_307_23_</title>
<path fill="none" stroke="red" stroke-width="0.8" stroke-dasharray="5,2" d="M1209,-311.92C1209,-321.01 1209,-332 1209,-332 1209,-332 1505,-332 1505,-332 1505,-332 1505,-748.85 1505,-748.85"/>
<polygon fill="red" stroke="red" stroke-width="0.8" points="1502.55,-748.85 1505,-755.85 1507.45,-748.85 1502.55,-748.85"/>
</g>
<!-- S&#45;1773 -->
<g id="node16" class="node">
<title>S&#45;1773</title>
<polygon fill="mediumseagreen" stroke="black" points="2541.5,-130 2473,-112 2541.5,-94 2610,-112 2541.5,-130"/>
<text text-anchor="middle" x="2541.5" y="-110.1" font-family="Helvetica,sans-Serif" font-size="8.00">S&#45;1773</text>
</g>
<!-- S&#45;2426 -->
<g id="node36" class="node">
<title>S&#45;2426</title>
<polygon fill="mediumseagreen" stroke="black" points="1676.5,-130 1608,-112 1676.5,-94 1745,-112 1676.5,-130"/>
<text text-anchor="middle" x="1676.5" y="-110.1" font-family="Helvetica,sans-Serif" font-size="8.00">S&#45;2426</text>
</g>
<!-- S&#45;063&#45;&gt;S&#45;2426 -->
<g id="edge9" class="edge">
<title>S&#45;063&#45;&gt;S&#45;2426</title>
<path fill="none" stroke="dimgray" stroke-width="0.8" d="M1676.5,-187.88C1676.5,-187.88 1676.5,-137.07 1676.5,-137.07"/>
<polygon fill="dimgray" stroke="dimgray" stroke-width="0.8" points="1678.95,-137.07 1676.5,-130.07 1674.05,-137.07 1678.95,-137.07"/>
</g>
<!-- C&#45;0448&#45;&gt;R&#45;081 -->
<g id="edge45" class="edge">
<title>C&#45;0448&#45;&gt;R&#45;081</title>
<path fill="none" stroke="dimgray" stroke-width="0.8" d="M3030.25,-195.19C3030.25,-185.57 3030.25,-173 3030.25,-173 3030.25,-173 3383.67,-173 3383.67,-173 3383.67,-173 3383.67,-137.3 3383.67,-137.3"/>
<polygon fill="dimgray" stroke="dimgray" stroke-width="0.8" points="3386.12,-137.3 3383.67,-130.3 3381.22,-137.3 3386.12,-137.3"/>
</g>
<!-- C&#45;0448&#45;&gt;S&#45;2237 -->
<g id="edge43" class="edge">
<title>C&#45;0448&#45;&gt;S&#45;2237</title>
<path fill="none" stroke="dimgray" stroke-width="0.8" d="M2922.67,-194.14C2922.67,-180.22 2922.67,-159 2922.67,-159 2922.67,-159 2758,-159 2758,-159 2758,-159 2758,-125.94 2758,-125.94"/>
<polygon fill="dimgray" stroke="dimgray" stroke-width="0.8" points="2760.45,-125.93 2758,-118.94 2755.55,-125.94 2760.45,-125.93"/>
</g>
<!-- S&#45;561 -->
<g id="node22" class="node">
<title>S&#45;561</title>
<polygon fill="mediumseagreen" stroke="black" points="2887.5,-130 2819,-112 2887.5,-94 2956,-112 2887.5,-130"/>
<text text-anchor="middle" x="2887.5" y="-110.1" font-family="Helvetica,sans-Serif" font-size="8.00">S&#45;561</text>
</g>
<!-- C&#45;0448&#45;&gt;S&#45;561 -->
<g id="edge46" class="edge">
<title>C&#45;0448&#45;&gt;S&#45;561</title>
<path fill="none" stroke="dimgray" stroke-width="0.8" d="M2939.33,-190.48C2939.33,-190.48 2939.33,-123.57 2939.33,-123.57"/>
<polygon fill="dimgray" stroke="dimgray" stroke-width="0.8" points="2941.78,-123.57 2939.33,-116.57 2936.88,-123.57 2941.78,-123.57"/>
</g>
<!-- S&#45;2558 -->
<g id="node28" class="node">
<title>S&#45;2558</title>
<polygon fill="mediumseagreen" stroke="black" points="3060.5,-130 2992,-112 3060.5,-94 3129,-112 3060.5,-130"/>
<text text-anchor="middle" x="3060.5" y="-110.1" font-family="Helvetica,sans-Serif" font-size="8.00">S&#45;2558</text>
</g>
<!-- C&#45;0448&#45;&gt;S&#45;2558 -->
<g id="edge44" class="edge">
<title>C&#45;0448&#45;&gt;S&#45;2558</title>
<path fill="none" stroke="dimgray" stroke-width="0.8" d="M3004.75,-189.63C3004.75,-189.63 3004.75,-122.43 3004.75,-122.43"/>
<polygon fill="dimgray" stroke="dimgray" stroke-width="0.8" points="3007.2,-122.43 3004.75,-115.43 3002.3,-122.43 3007.2,-122.43"/>
</g>
<!-- S&#45;2261 -->
<g id="node40" class="node">
<title>S&#45;2261</title>
<polygon fill="mediumseagreen" stroke="black" points="3233.5,-130 3165,-112 3233.5,-94 3302,-112 3233.5,-130"/>
<text text-anchor="middle" x="3233.5" y="-110.1" font-family="Helvetica,sans-Serif" font-size="8.00">S&#45;2261</text>
</g>
<!-- C&#45;0448&#45;&gt;S&#45;2261 -->
<g id="edge42" class="edge">
<title>C&#45;0448&#45;&gt;S&#45;2261</title>
<path fill="none" stroke="dimgray" stroke-width="0.8" d="M3017.5,-191.93C3017.5,-173.64 3017.5,-144 3017.5,-144 3017.5,-144 3190.5,-144 3190.5,-144 3190.5,-144 3190.5,-125.79 3190.5,-125.79"/>
<polygon fill="dimgray" stroke="dimgray" stroke-width="0.8" points="3192.95,-125.79 3190.5,-118.79 3188.05,-125.79 3192.95,-125.79"/>
</g>
<!-- R&#45;273 -->
<g id="node24" class="node">
<title>R&#45;273</title>
<polygon fill="tomato" stroke="black" points="2264,-104.54 2264,-119.46 2223.87,-130 2167.13,-130 2127,-119.46 2127,-104.54 2167.13,-94 2223.87,-94 2264,-104.54"/>
<text text-anchor="middle" x="2195.5" y="-110.1" font-family="Helvetica,sans-Serif" font-size="8.00">R&#45;273</text>
</g>
<!-- C&#45;1101&#45;&gt;R&#45;273 -->
<g id="edge12" class="edge">
<title>C&#45;1101&#45;&gt;R&#45;273</title>
<path fill="none" stroke="dimgray" stroke-width="0.8" d="M2195.5,-187.88C2195.5,-187.88 2195.5,-137.07 2195.5,-137.07"/>
<polygon fill="dimgray" stroke="dimgray" stroke-width="0.8" points="2197.95,-137.07 2195.5,-130.07 2193.05,-137.07 2197.95,-137.07"/>
</g>
<!-- C&#45;1298 -->
<g id="node20" class="node">
<title>C&#45;1298</title>
<ellipse fill="mediumseagreen" stroke="black" cx="1157.5" cy="-206" rx="68.5" ry="18"/>
<text text-anchor="middle" x="1157.5" y="-204.1" font-family="Helvetica,sans-Serif" font-size="8.00">C&#45;1298</text>
</g>
<!-- R&#45;303 -->
<g id="node34" class="node">
<title>R&#45;303</title>
<polygon fill="tomato" stroke="black" points="1226,-104.54 1226,-119.46 1185.87,-130 1129.13,-130 1089,-119.46 1089,-104.54 1129.13,-94 1185.87,-94 1226,-104.54"/>
<text text-anchor="middle" x="1157.5" y="-110.1" font-family="Helvetica,sans-Serif" font-size="8.00">R&#45;303</text>
</g>
<!-- C&#45;1298&#45;&gt;R&#45;303 -->
<g id="edge21" class="edge">
<title>C&#45;1298&#45;&gt;R&#45;303</title>
<path fill="none" stroke="dimgray" stroke-width="0.8" d="M1157.5,-187.88C1157.5,-187.88 1157.5,-137.07 1157.5,-137.07"/>
<polygon fill="dimgray" stroke="dimgray" stroke-width="0.8" points="1159.95,-137.07 1157.5,-130.07 1155.05,-137.07 1159.95,-137.07"/>
</g>
<!-- SR&#45;0006 -->
<g id="node21" class="node">
<title>SR&#45;0006</title>
<polygon fill="mediumseagreen" stroke="black" points="2454.5,-318 2386,-300 2454.5,-282 2523,-300 2454.5,-318"/>
<text text-anchor="middle" x="2454.5" y="-298.1" font-family="Helvetica,sans-Serif" font-size="8.00">SR&#45;0006</text>
</g>
<!-- S&#45;1152 -->
<g id="node27" class="node">
<title>S&#45;1152</title>
<polygon fill="mediumseagreen" stroke="black" points="2368.5,-224 2300,-206 2368.5,-188 2437,-206 2368.5,-224"/>
<text text-anchor="middle" x="2368.5" y="-204.1" font-family="Helvetica,sans-Serif" font-size="8.00">S&#45;1152</text>
</g>
<!-- SR&#45;0006&#45;&gt;S&#45;1152 -->
<g id="edge38" class="edge">
<title>SR&#45;0006&#45;&gt;S&#45;1152</title>
<path fill="none" stroke="dimgray" stroke-width="0.8" d="M2411.5,-293.24C2411.5,-293.24 2411.5,-219.95 2411.5,-219.95"/>
<polygon fill="dimgray" stroke="dimgray" stroke-width="0.8" points="2413.95,-219.95 2411.5,-212.95 2409.05,-219.95 2413.95,-219.95"/>
</g>
<!-- S&#45;584 -->
<g id="node45" class="node">
<title>S&#45;584</title>
<polygon fill="mediumseagreen" stroke="black" points="2541.5,-224 2473,-206 2541.5,-188 2610,-206 2541.5,-224"/>
<text text-anchor="middle" x="2541.5" y="-204.1" font-family="Helvetica,sans-Serif" font-size="8.00">S&#45;584</text>
</g>
<!-- SR&#45;0006&#45;&gt;S&#45;584 -->
<g id="edge33" class="edge">
<title>SR&#45;0006&#45;&gt;S&#45;584</title>
<path fill="none" stroke="dimgray" stroke-width="0.8" d="M2498,-293.24C2498,-293.24 2498,-219.7 2498,-219.7"/>
<polygon fill="dimgray" stroke="dimgray" stroke-width="0.8" points="2500.45,-219.7 2498,-212.7 2495.55,-219.7 2500.45,-219.7"/>
</g>
<!-- R&#45;269 -->
<g id="node23" class="node">
<title>R&#45;269</title>
<polygon fill="tomato" stroke="black" points="1399,-198.54 1399,-213.46 1358.87,-224 1302.13,-224 1262,-213.46 1262,-198.54 1302.13,-188 1358.87,-188 1399,-198.54"/>
<text text-anchor="middle" x="1330.5" y="-204.1" font-family="Helvetica,sans-Serif" font-size="8.00">R&#45;269</text>
</g>
<!-- R&#45;269&#45;&gt;ext_circ_307_23_ -->
<g id="edge57" class="edge">
<title>R&#45;269&#45;&gt;ext_circ_307_23_</title>
<path fill="none" stroke="red" stroke-width="0.8" stroke-dasharray="5,2" d="M1353.33,-224.2C1353.33,-230.03 1353.33,-235 1353.33,-235 1353.33,-235 1517,-235 1517,-235 1517,-235 1517,-748.76 1517,-748.76"/>
<polygon fill="red" stroke="red" stroke-width="0.8" points="1514.55,-748.76 1517,-755.76 1519.45,-748.76 1514.55,-748.76"/>
</g>
<!-- R&#45;273&#45;&gt;ext_circ_208_26_ -->
<g id="edge51" class="edge">
<title>R&#45;273&#45;&gt;ext_circ_208_26_</title>
<path fill="none" stroke="red" stroke-width="0.8" stroke-dasharray="5,2" d="M2126.92,-112C2116.42,-112 2109,-112 2109,-112 2109,-112 2109,-361 2109,-361 2109,-361 1341.33,-361 1341.33,-361 1341.33,-361 1341.33,-748.99 1341.33,-748.99"/>
<polygon fill="red" stroke="red" stroke-width="0.8" points="1338.88,-748.99 1341.33,-755.99 1343.78,-748.99 1338.88,-748.99"/>
</g>
<!-- C&#45;1300 -->
<g id="node25" class="node">
<title>C&#45;1300</title>
<ellipse fill="tomato" stroke="black" cx="489.5" cy="-206" rx="68.5" ry="18"/>
<text text-anchor="middle" x="489.5" y="-204.1" font-family="Helvetica,sans-Serif" font-size="8.00">C&#45;1300</text>
</g>
<!-- ext_circ_112_23_ -->
<g id="node52" class="node">
<title>ext_circ_112_23_</title>
<polygon fill="lightpink" stroke="red" stroke-dasharray="5,2" points="1747,-792 1610,-792 1610,-756 1747,-756 1747,-792"/>
<text text-anchor="middle" x="1678.5" y="-776.6" font-family="Helvetica,sans-Serif" font-size="8.00">Circuito:</text>
<text text-anchor="middle" x="1678.5" y="-767.6" font-family="Helvetica,sans-Serif" font-size="8.00">112&#45;23&#45;</text>
</g>
<!-- C&#45;1300&#45;&gt;ext_circ_112_23_ -->
<g id="edge53" class="edge">
<title>C&#45;1300&#45;&gt;ext_circ_112_23_</title>
<path fill="none" stroke="red" stroke-width="0.8" stroke-dasharray="5,2" d="M516,-222.84C516,-301.52 516,-629 516,-629 516,-629 1632.4,-629 1632.4,-629 1632.4,-629 1632.4,-748.93 1632.4,-748.93"/>
<polygon fill="red" stroke="red" stroke-width="0.8" points="1629.95,-748.93 1632.4,-755.93 1634.85,-748.93 1629.95,-748.93"/>
</g>
<!-- C&#45;0105&#45;&gt;C&#45;1229 -->
<g id="edge28" class="edge">
<title>C&#45;0105&#45;&gt;C&#45;1229</title>
<path fill="none" stroke="dimgray" stroke-width="0.8" d="M1900,-661.72C1900,-661.72 1900,-603.1 1900,-603.1"/>
<polygon fill="dimgray" stroke="dimgray" stroke-width="0.8" points="1902.45,-603.1 1900,-596.1 1897.55,-603.1 1902.45,-603.1"/>
</g>
<!-- C&#45;0105&#45;&gt;C&#45;0372 -->
<g id="edge4" class="edge">
<title>C&#45;0105&#45;&gt;C&#45;0372</title>
<path fill="none" stroke="dimgray" stroke-width="0.8" d="M1921.1,-670C1998.11,-670 2116.5,-670 2116.5,-670 2116.5,-670 2116.5,-607.23 2116.5,-607.23"/>
<polygon fill="dimgray" stroke="dimgray" stroke-width="0.8" points="2118.95,-607.23 2116.5,-600.23 2114.05,-607.23 2118.95,-607.23"/>
</g>
<!-- C&#45;0105&#45;&gt;C&#45;1230 -->
<g id="edge29" class="edge">
<title>C&#45;0105&#45;&gt;C&#45;1230</title>
<path fill="none" stroke="dimgray" stroke-width="0.8" d="M1921.33,-682C2059.92,-682 2372.5,-682 2372.5,-682 2372.5,-682 2372.5,-607.34 2372.5,-607.34"/>
<polygon fill="dimgray" stroke="dimgray" stroke-width="0.8" points="2374.95,-607.34 2372.5,-600.34 2370.05,-607.34 2374.95,-607.34"/>
</g>
<!-- C&#45;0371 -->
<g id="node30" class="node">
<title>C&#45;0371</title>
<ellipse fill="tomato" stroke="black" cx="1424.5" cy="-582" rx="68.5" ry="18"/>
<text text-anchor="middle" x="1424.5" y="-580.1" font-family="Helvetica,sans-Serif" font-size="8.00">C&#45;0371</text>
</g>
<!-- C&#45;0105&#45;&gt;C&#45;0371 -->
<g id="edge3" class="edge">
<title>C&#45;0105&#45;&gt;C&#45;0371</title>
<path fill="none" stroke="dimgray" stroke-width="0.8" d="M1791.69,-682C1680.21,-682 1464,-682 1464,-682 1464,-682 1464,-603.76 1464,-603.76"/>
<polygon fill="dimgray" stroke="dimgray" stroke-width="0.8" points="1466.45,-603.76 1464,-596.76 1461.55,-603.76 1466.45,-603.76"/>
</g>
<!-- S&#45;679 -->
<g id="node35" class="node">
<title>S&#45;679</title>
<polygon fill="mediumseagreen" stroke="black" points="1597.5,-600 1529,-582 1597.5,-564 1666,-582 1597.5,-600"/>
<text text-anchor="middle" x="1597.5" y="-580.1" font-family="Helvetica,sans-Serif" font-size="8.00">S&#45;679</text>
</g>
<!-- C&#45;0105&#45;&gt;S&#45;679 -->
<g id="edge49" class="edge">
<title>C&#45;0105&#45;&gt;S&#45;679</title>
<path fill="none" stroke="dimgray" stroke-width="0.8" d="M1791.85,-670C1732.85,-670 1654.8,-670 1654.8,-670 1654.8,-670 1654.8,-592.34 1654.8,-592.34"/>
<polygon fill="dimgray" stroke="dimgray" stroke-width="0.8" points="1657.25,-592.34 1654.8,-585.34 1652.35,-592.34 1657.25,-592.34"/>
</g>
<!-- S&#45;585 -->
<g id="node47" class="node">
<title>S&#45;585</title>
<polygon fill="mediumseagreen" stroke="black" points="1770.5,-600 1702,-582 1770.5,-564 1839,-582 1770.5,-600"/>
<text text-anchor="middle" x="1770.5" y="-580.1" font-family="Helvetica,sans-Serif" font-size="8.00">S&#45;585</text>
</g>
<!-- C&#45;0105&#45;&gt;S&#45;585 -->
<g id="edge2" class="edge">
<title>C&#45;0105&#45;&gt;S&#45;585</title>
<path fill="none" stroke="dimgray" stroke-width="0.8" d="M1813.5,-661.72C1813.5,-661.72 1813.5,-595.83 1813.5,-595.83"/>
<polygon fill="dimgray" stroke="dimgray" stroke-width="0.8" points="1815.95,-595.83 1813.5,-588.83 1811.05,-595.83 1815.95,-595.83"/>
</g>
<!-- C&#45;0371&#45;&gt;C&#45;0373 -->
<g id="edge50" class="edge">
<title>C&#45;0371&#45;&gt;C&#45;0373</title>
<path fill="none" stroke="blue" stroke-width="0.8" stroke-dasharray="5,2" d="M1377.5,-568.78C1377.5,-525.99 1377.5,-394 1377.5,-394 1377.5,-394 1319.07,-394 1319.07,-394"/>
<polygon fill="blue" stroke="blue" stroke-width="0.8" points="1319.07,-391.55 1312.07,-394 1319.07,-396.45 1319.07,-391.55"/>
</g>
<!-- S&#45;1888 -->
<g id="node31" class="node">
<title>S&#45;1888</title>
<polygon fill="mediumseagreen" stroke="black" points="2627.5,-318 2559,-300 2627.5,-282 2696,-300 2627.5,-318"/>
<text text-anchor="middle" x="2627.5" y="-298.1" font-family="Helvetica,sans-Serif" font-size="8.00">S&#45;1888</text>
</g>
<!-- C&#45;0373&#45;&gt;S&#45;994 -->
<g id="edge7" class="edge">
<title>C&#45;0373&#45;&gt;S&#45;994</title>
<path fill="none" stroke="dimgray" stroke-width="0.8" d="M1302.98,-385C1426.32,-385 1698.5,-385 1698.5,-385 1698.5,-385 1698.5,-307.95 1698.5,-307.95"/>
<polygon fill="dimgray" stroke="dimgray" stroke-width="0.8" points="1700.95,-307.95 1698.5,-300.95 1696.05,-307.95 1700.95,-307.95"/>
</g>
<!-- C&#45;0373&#45;&gt;C&#45;0293 -->
<g id="edge27" class="edge">
<title>C&#45;0373&#45;&gt;C&#45;0293</title>
<path fill="none" stroke="dimgray" stroke-width="0.8" d="M1192,-382.09C1192,-382.09 1192,-322.55 1192,-322.55"/>
<polygon fill="dimgray" stroke="dimgray" stroke-width="0.8" points="1194.45,-322.55 1192,-315.55 1189.55,-322.55 1194.45,-322.55"/>
</g>
<!-- C&#45;1092 -->
<g id="node41" class="node">
<title>C&#45;1092</title>
<ellipse fill="mediumseagreen" stroke="black" cx="1330.5" cy="-300" rx="68.5" ry="18"/>
<text text-anchor="middle" x="1330.5" y="-298.1" font-family="Helvetica,sans-Serif" font-size="8.00">C&#45;1092</text>
</g>
<!-- C&#45;0373&#45;&gt;C&#45;1092 -->
<g id="edge25" class="edge">
<title>C&#45;0373&#45;&gt;C&#45;1092</title>
<path fill="none" stroke="dimgray" stroke-width="0.8" d="M1287,-379.72C1287,-379.72 1287,-321.1 1287,-321.1"/>
<polygon fill="dimgray" stroke="dimgray" stroke-width="0.8" points="1289.45,-321.1 1287,-314.1 1284.55,-321.1 1289.45,-321.1"/>
</g>
<!-- S&#45;1543 -->
<g id="node42" class="node">
<title>S&#45;1543</title>
<polygon fill="mediumseagreen" stroke="black" points="426.5,-318 358,-300 426.5,-282 495,-300 426.5,-318"/>
<text text-anchor="middle" x="426.5" y="-298.1" font-family="Helvetica,sans-Serif" font-size="8.00">S&#45;1543</text>
</g>
<!-- C&#45;0373&#45;&gt;S&#45;1543 -->
<g id="edge15" class="edge">
<title>C&#45;0373&#45;&gt;S&#45;1543</title>
<path fill="none" stroke="dimgray" stroke-width="0.8" d="M1178.71,-400C985.47,-400 426.5,-400 426.5,-400 426.5,-400 426.5,-325.34 426.5,-325.34"/>
<polygon fill="dimgray" stroke="dimgray" stroke-width="0.8" points="428.95,-325.34 426.5,-318.34 424.05,-325.34 428.95,-325.34"/>
</g>
<!-- C&#45;1067 -->
<g id="node48" class="node">
<title>C&#45;1067</title>
<ellipse fill="mediumseagreen" stroke="black" cx="970.5" cy="-300" rx="68.5" ry="18"/>
<text text-anchor="middle" x="970.5" y="-298.1" font-family="Helvetica,sans-Serif" font-size="8.00">C&#45;1067</text>
</g>
<!-- C&#45;0373&#45;&gt;C&#45;1067 -->
<g id="edge16" class="edge">
<title>C&#45;0373&#45;&gt;C&#45;1067</title>
<path fill="none" stroke="dimgray" stroke-width="0.8" d="M1178.8,-388C1098.07,-388 970.5,-388 970.5,-388 970.5,-388 970.5,-325.23 970.5,-325.23"/>
<polygon fill="dimgray" stroke="dimgray" stroke-width="0.8" points="972.95,-325.23 970.5,-318.23 968.05,-325.23 972.95,-325.23"/>
</g>
<!-- R&#45;303&#45;&gt;ext_circ_112_23_ -->
<g id="edge54" class="edge">
<title>R&#45;303&#45;&gt;ext_circ_112_23_</title>
<path fill="none" stroke="red" stroke-width="0.8" stroke-dasharray="5,2" d="M1226.08,-112C1236.58,-112 1244,-112 1244,-112 1244,-112 1244,-258 1244,-258 1244,-258 1680.5,-258 1680.5,-258 1680.5,-258 1680.5,-748.94 1680.5,-748.94"/>
<polygon fill="red" stroke="red" stroke-width="0.8" points="1678.05,-748.94 1680.5,-755.94 1682.95,-748.94 1678.05,-748.94"/>
</g>
<!-- R&#45;057&#45;&gt;C&#45;1231 -->
<g id="edge31" class="edge">
<title>R&#45;057&#45;&gt;C&#45;1231</title>
<path fill="none" stroke="dimgray" stroke-width="0.8" d="M2477,-478.99C2477,-478.99 2477,-407.77 2477,-407.77"/>
<polygon fill="dimgray" stroke="dimgray" stroke-width="0.8" points="2479.45,-407.77 2477,-400.77 2474.55,-407.77 2479.45,-407.77"/>
</g>
<!-- C&#45;1023 -->
<g id="node38" class="node">
<title>C&#45;1023</title>
<ellipse fill="mediumseagreen" stroke="black" cx="68.5" cy="-206" rx="68.5" ry="18"/>
<text text-anchor="middle" x="68.5" y="-204.1" font-family="Helvetica,sans-Serif" font-size="8.00">C&#45;1023</text>
</g>
<!-- R&#45;250 -->
<g id="node44" class="node">
<title>R&#45;250</title>
<polygon fill="tomato" stroke="black" points="137,-104.54 137,-119.46 96.87,-130 40.13,-130 0,-119.46 0,-104.54 40.13,-94 96.87,-94 137,-104.54"/>
<text text-anchor="middle" x="68.5" y="-110.1" font-family="Helvetica,sans-Serif" font-size="8.00">R&#45;250</text>
</g>
<!-- C&#45;1023&#45;&gt;R&#45;250 -->
<g id="edge24" class="edge">
<title>C&#45;1023&#45;&gt;R&#45;250</title>
<path fill="none" stroke="dimgray" stroke-width="0.8" d="M68.5,-187.88C68.5,-187.88 68.5,-137.07 68.5,-137.07"/>
<polygon fill="dimgray" stroke="dimgray" stroke-width="0.8" points="70.95,-137.07 68.5,-130.07 66.05,-137.07 70.95,-137.07"/>
</g>
<!-- C&#45;1231&#45;&gt;S&#45;557 -->
<g id="edge40" class="edge">
<title>C&#45;1231&#45;&gt;S&#45;557</title>
<path fill="none" stroke="dimgray" stroke-width="0.8" d="M2609.06,-394C2710.18,-394 2887.5,-394 2887.5,-394 2887.5,-394 2887.5,-325.12 2887.5,-325.12"/>
<polygon fill="dimgray" stroke="dimgray" stroke-width="0.8" points="2889.95,-325.12 2887.5,-318.12 2885.05,-325.12 2889.95,-325.12"/>
</g>
<!-- C&#45;1231&#45;&gt;SR&#45;0006 -->
<g id="edge32" class="edge">
<title>C&#45;1231&#45;&gt;SR&#45;0006</title>
<path fill="none" stroke="dimgray" stroke-width="0.8" d="M2497.5,-379.72C2497.5,-379.72 2497.5,-313.83 2497.5,-313.83"/>
<polygon fill="dimgray" stroke="dimgray" stroke-width="0.8" points="2499.95,-313.83 2497.5,-306.83 2495.05,-313.83 2499.95,-313.83"/>
</g>
<!-- C&#45;1231&#45;&gt;S&#45;1888 -->
<g id="edge39" class="edge">
<title>C&#45;1231&#45;&gt;S&#45;1888</title>
<path fill="none" stroke="dimgray" stroke-width="0.8" d="M2584,-379.72C2584,-379.72 2584,-313.83 2584,-313.83"/>
<polygon fill="dimgray" stroke="dimgray" stroke-width="0.8" points="2586.45,-313.83 2584,-306.83 2581.55,-313.83 2586.45,-313.83"/>
</g>
<!-- C&#45;1092&#45;&gt;R&#45;269 -->
<g id="edge26" class="edge">
<title>C&#45;1092&#45;&gt;R&#45;269</title>
<path fill="none" stroke="dimgray" stroke-width="0.8" d="M1307.67,-282.76C1307.67,-282.76 1307.67,-231.09 1307.67,-231.09"/>
<polygon fill="dimgray" stroke="dimgray" stroke-width="0.8" points="1310.12,-231.09 1307.67,-224.09 1305.22,-231.09 1310.12,-231.09"/>
</g>
<!-- R&#45;250&#45;&gt;ext_circ_112_23_ -->
<g id="edge56" class="edge">
<title>R&#45;250&#45;&gt;ext_circ_112_23_</title>
<path fill="none" stroke="red" stroke-width="0.8" stroke-dasharray="5,2" d="M137.03,-112C165.71,-112 192.5,-112 192.5,-112 192.5,-112 192.5,-643 192.5,-643 192.5,-643 1621.2,-643 1621.2,-643 1621.2,-643 1621.2,-748.79 1621.2,-748.79"/>
<polygon fill="red" stroke="red" stroke-width="0.8" points="1618.75,-748.78 1621.2,-755.79 1623.65,-748.79 1618.75,-748.78"/>
</g>
<!-- S&#45;584&#45;&gt;S&#45;1794 -->
<g id="edge34" class="edge">
<title>S&#45;584&#45;&gt;S&#45;1794</title>
<path fill="none" stroke="dimgray" stroke-width="0.8" d="M2472.92,-206C2462.42,-206 2455,-206 2455,-206 2455,-206 2455,-112 2455,-112 2455,-112 2444.08,-112 2444.08,-112"/>
<polygon fill="dimgray" stroke="dimgray" stroke-width="0.8" points="2444.08,-109.55 2437.08,-112 2444.08,-114.45 2444.08,-109.55"/>
</g>
<!-- S&#45;584&#45;&gt;S&#45;1773 -->
<g id="edge37" class="edge">
<title>S&#45;584&#45;&gt;S&#45;1773</title>
<path fill="none" stroke="dimgray" stroke-width="0.8" d="M2541.5,-187.88C2541.5,-187.88 2541.5,-137.07 2541.5,-137.07"/>
<polygon fill="dimgray" stroke="dimgray" stroke-width="0.8" points="2543.95,-137.07 2541.5,-130.07 2539.05,-137.07 2543.95,-137.07"/>
</g>
<!-- S&#45;1290 -->
<g id="node46" class="node">
<title>S&#45;1290</title>
<polygon fill="mediumseagreen" stroke="black" points="316.5,-224 248,-206 316.5,-188 385,-206 316.5,-224"/>
<text text-anchor="middle" x="316.5" y="-204.1" font-family="Helvetica,sans-Serif" font-size="8.00">S&#45;1290</text>
</g>
<!-- C&#45;1067&#45;&gt;S&#45;1586 -->
<g id="edge17" class="edge">
<title>C&#45;1067&#45;&gt;S&#45;1586</title>
<path fill="none" stroke="dimgray" stroke-width="0.8" d="M977.5,-281.88C977.5,-281.88 977.5,-229.19 977.5,-229.19"/>
<polygon fill="dimgray" stroke="dimgray" stroke-width="0.8" points="979.95,-229.19 977.5,-222.19 975.05,-229.19 979.95,-229.19"/>
</g>
<!-- C&#45;1067&#45;&gt;C&#45;1298 -->
<g id="edge20" class="edge">
<title>C&#45;1067&#45;&gt;C&#45;1298</title>
<path fill="none" stroke="dimgray" stroke-width="0.8" d="M1039.07,-300C1053,-300 1063.5,-300 1063.5,-300 1063.5,-300 1063.5,-206 1063.5,-206 1063.5,-206 1081.69,-206 1081.69,-206"/>
<polygon fill="dimgray" stroke="dimgray" stroke-width="0.8" points="1081.69,-208.45 1088.69,-206 1081.69,-203.55 1081.69,-208.45"/>
</g>
<!-- C&#45;1067&#45;&gt;C&#45;1300 -->
<g id="edge19" class="edge">
<title>C&#45;1067&#45;&gt;C&#45;1300</title>
<path fill="none" stroke="dimgray" stroke-width="0.8" d="M901.81,-300C779.58,-300 537,-300 537,-300 537,-300 537,-226.07 537,-226.07"/>
<polygon fill="dimgray" stroke="dimgray" stroke-width="0.8" points="539.45,-226.07 537,-219.07 534.55,-226.07 539.45,-226.07"/>
</g>
<!-- C&#45;1067&#45;&gt;C&#45;1023 -->
<g id="edge23" class="edge">
<title>C&#45;1067&#45;&gt;C&#45;1023</title>
<path fill="none" stroke="dimgray" stroke-width="0.8" d="M905.5,-294.22C905.5,-285.5 905.5,-270 905.5,-270 905.5,-270 68.5,-270 68.5,-270 68.5,-270 68.5,-231.17 68.5,-231.17"/>
<polygon fill="dimgray" stroke="dimgray" stroke-width="0.8" points="70.95,-231.17 68.5,-224.17 66.05,-231.17 70.95,-231.17"/>
</g>
<!-- C&#45;1067&#45;&gt;S&#45;1290 -->
<g id="edge18" class="edge">
<title>C&#45;1067&#45;&gt;S&#45;1290</title>
<path fill="none" stroke="dimgray" stroke-width="0.8" d="M909,-291.72C909,-276.81 909,-247 909,-247 909,-247 371.5,-247 371.5,-247 371.5,-247 371.5,-216.78 371.5,-216.78"/>
<polygon fill="dimgray" stroke="dimgray" stroke-width="0.8" points="373.95,-216.78 371.5,-209.78 369.05,-216.78 373.95,-216.78"/>
</g>
<!-- C&#45;0176 -->
<g id="node50" class="node">
<title>C&#45;0176</title>
<ellipse fill="tomato" stroke="black" cx="811.5" cy="-206" rx="68.5" ry="18"/>
<text text-anchor="middle" x="811.5" y="-204.1" font-family="Helvetica,sans-Serif" font-size="8.00">C&#45;0176</text>
</g>
<!-- C&#45;1067&#45;&gt;C&#45;0176 -->
<g id="edge22" class="edge">
<title>C&#45;1067&#45;&gt;C&#45;0176</title>
<path fill="none" stroke="dimgray" stroke-width="0.8" d="M912.5,-290.29C912.5,-266.28 912.5,-206 912.5,-206 912.5,-206 887.27,-206 887.27,-206"/>
<polygon fill="dimgray" stroke="dimgray" stroke-width="0.8" points="887.27,-203.55 880.27,-206 887.27,-208.45 887.27,-203.55"/>
</g>
<!-- C&#45;0176&#45;&gt;ext_circ_112_23_ -->
<g id="edge55" class="edge">
<title>C&#45;0176&#45;&gt;ext_circ_112_23_</title>
<path fill="none" stroke="red" stroke-width="0.8" stroke-dasharray="5,2" d="M811.5,-224.06C811.5,-303.02 811.5,-614 811.5,-614 811.5,-614 1643.6,-614 1643.6,-614 1643.6,-614 1643.6,-748.96 1643.6,-748.96"/>
<polygon fill="red" stroke="red" stroke-width="0.8" points="1641.15,-748.96 1643.6,-755.96 1646.05,-748.96 1641.15,-748.96"/>
</g>
</g>
</svg>
