<?xml version="1.0" encoding="UTF-8" standalone="no"?>
<!DOCTYPE svg PUBLIC "-//W3C//DTD SVG 1.1//EN"
 "http://www.w3.org/Graphics/SVG/1.1/DTD/svg11.dtd">
<!-- Generated by graphviz version 2.50.0 (0)
 -->
<!-- Title: Grafo_Circuito_304_22_ Pages: 1 -->
<svg width="1340pt" height="1271pt"
 viewBox="0.00 0.00 1340.00 1271.00" xmlns="http://www.w3.org/2000/svg" xmlns:xlink="http://www.w3.org/1999/xlink">
<g id="graph0" class="graph" transform="scale(1 1) rotate(0) translate(4 1267)">
<title>Grafo_Circuito_304_22_</title>
<polygon fill="white" stroke="transparent" points="-4,4 -4,-1267 1336,-1267 1336,4 -4,4"/>
<!-- S&#45;892 -->
<g id="node1" class="node">
<title>S&#45;892</title>
<polygon fill="mediumseagreen" stroke="black" points="839,-1053 767,-1031.5 839,-1010 911,-1031.5 839,-1053"/>
<text text-anchor="middle" x="839" y="-1029" font-family="Arial" font-size="10.00">S&#45;892</text>
</g>
<!-- S&#45;1326 -->
<g id="node24" class="node">
<title>S&#45;1326</title>
<polygon fill="mediumseagreen" stroke="black" points="839,-952 767,-930.5 839,-909 911,-930.5 839,-952"/>
<text text-anchor="middle" x="839" y="-928" font-family="Arial" font-size="10.00">S&#45;1326</text>
</g>
<!-- S&#45;892&#45;&gt;S&#45;1326 -->
<g id="edge9" class="edge">
<title>S&#45;892&#45;&gt;S&#45;1326</title>
<path fill="none" stroke="#4d4d4d" d="M839,-1009.58C839,-1009.58 839,-959.03 839,-959.03"/>
<polygon fill="#4d4d4d" stroke="#4d4d4d" points="841.45,-959.03 839,-952.03 836.55,-959.03 841.45,-959.03"/>
</g>
<!-- 304&#45;22&#45; -->
<g id="node2" class="node">
<title>304&#45;22&#45;</title>
<polygon fill="gold" stroke="black" points="911,-1228.59 911,-1246.41 868.82,-1259 809.18,-1259 767,-1246.41 767,-1228.59 809.18,-1216 868.82,-1216 911,-1228.59"/>
<polygon fill="none" stroke="black" points="915,-1225.61 915,-1249.39 869.41,-1263 808.59,-1263 763,-1249.39 763,-1225.61 808.59,-1212 869.41,-1212 915,-1225.61"/>
<text text-anchor="middle" x="839" y="-1235" font-family="Arial" font-size="10.00">304&#45;22&#45;</text>
</g>
<!-- C&#45;0035 -->
<g id="node18" class="node">
<title>C&#45;0035</title>
<ellipse fill="mediumseagreen" stroke="black" cx="839" cy="-1132.5" rx="72" ry="21.5"/>
<text text-anchor="middle" x="839" y="-1130" font-family="Arial" font-size="10.00">C&#45;0035</text>
</g>
<!-- 304&#45;22&#45;&#45;&gt;C&#45;0035 -->
<g id="edge1" class="edge">
<title>304&#45;22&#45;&#45;&gt;C&#45;0035</title>
<path fill="none" stroke="#4d4d4d" d="M839,-1211.81C839,-1211.81 839,-1161.03 839,-1161.03"/>
<polygon fill="#4d4d4d" stroke="#4d4d4d" points="841.45,-1161.03 839,-1154.03 836.55,-1161.03 841.45,-1161.03"/>
</g>
<!-- C&#45;0412 -->
<g id="node3" class="node">
<title>C&#45;0412</title>
<ellipse fill="mediumseagreen" stroke="black" cx="953" cy="-627.5" rx="72" ry="21.5"/>
<text text-anchor="middle" x="953" y="-625" font-family="Arial" font-size="10.00">C&#45;0412</text>
</g>
<!-- C&#45;0218 -->
<g id="node4" class="node">
<title>C&#45;0218</title>
<ellipse fill="tomato" stroke="black" cx="926" cy="-425.5" rx="72" ry="21.5"/>
<text text-anchor="middle" x="926" y="-423" font-family="Arial" font-size="10.00">C&#45;0218</text>
</g>
<!-- C&#45;0412&#45;&gt;C&#45;0218 -->
<g id="edge15" class="edge">
<title>C&#45;0412&#45;&gt;C&#45;0218</title>
<path fill="none" stroke="#4d4d4d" d="M948,-605.88C948,-605.88 948,-453.06 948,-453.06"/>
<polygon fill="#4d4d4d" stroke="#4d4d4d" points="950.45,-453.06 948,-446.06 945.55,-453.06 950.45,-453.06"/>
</g>
<!-- C&#45;0977 -->
<g id="node13" class="node">
<title>C&#45;0977</title>
<ellipse fill="mediumseagreen" stroke="black" cx="1080" cy="-526.5" rx="72" ry="21.5"/>
<text text-anchor="middle" x="1080" y="-524" font-family="Arial" font-size="10.00">C&#45;0977</text>
</g>
<!-- C&#45;0412&#45;&gt;C&#45;0977 -->
<g id="edge16" class="edge">
<title>C&#45;0412&#45;&gt;C&#45;0977</title>
<path fill="none" stroke="#4d4d4d" d="M1016.5,-617.07C1016.5,-617.07 1016.5,-543.72 1016.5,-543.72"/>
<polygon fill="#4d4d4d" stroke="#4d4d4d" points="1018.95,-543.72 1016.5,-536.72 1014.05,-543.72 1018.95,-543.72"/>
</g>
<!-- S&#45;894 -->
<g id="node23" class="node">
<title>S&#45;894</title>
<polygon fill="mediumseagreen" stroke="black" points="1260,-548 1188,-526.5 1260,-505 1332,-526.5 1260,-548"/>
<text text-anchor="middle" x="1260" y="-524" font-family="Arial" font-size="10.00">S&#45;894</text>
</g>
<!-- C&#45;0412&#45;&gt;S&#45;894 -->
<g id="edge14" class="edge">
<title>C&#45;0412&#45;&gt;S&#45;894</title>
<path fill="none" stroke="#4d4d4d" d="M1025.37,-627C1116.13,-627 1260,-627 1260,-627 1260,-627 1260,-555.31 1260,-555.31"/>
<polygon fill="#4d4d4d" stroke="#4d4d4d" points="1262.45,-555.31 1260,-548.31 1257.55,-555.31 1262.45,-555.31"/>
</g>
<!-- S&#45;895 -->
<g id="node27" class="node">
<title>S&#45;895</title>
<polygon fill="mediumseagreen" stroke="black" points="826,-548 754,-526.5 826,-505 898,-526.5 826,-548"/>
<text text-anchor="middle" x="826" y="-524" font-family="Arial" font-size="10.00">S&#45;895</text>
</g>
<!-- C&#45;0412&#45;&gt;S&#45;895 -->
<g id="edge18" class="edge">
<title>C&#45;0412&#45;&gt;S&#45;895</title>
<path fill="none" stroke="#4d4d4d" d="M889.5,-617.07C889.5,-617.07 889.5,-536.33 889.5,-536.33"/>
<polygon fill="#4d4d4d" stroke="#4d4d4d" points="891.95,-536.33 889.5,-529.33 887.05,-536.33 891.95,-536.33"/>
</g>
<!-- ext_circ_304_26_ -->
<g id="node33" class="node">
<title>ext_circ_304_26_</title>
<polygon fill="lightpink" stroke="darkorange" stroke-dasharray="5,2" points="1115,-346 971,-346 971,-303 1115,-303 1115,-346"/>
<text text-anchor="middle" x="1043" y="-327.5" font-family="Arial" font-size="10.00">Circuito:</text>
<text text-anchor="middle" x="1043" y="-316.5" font-family="Arial" font-size="10.00">304&#45;26&#45;</text>
</g>
<!-- C&#45;0218&#45;&gt;ext_circ_304_26_ -->
<g id="edge35" class="edge">
<title>C&#45;0218&#45;&gt;ext_circ_304_26_</title>
<path fill="none" stroke="darkorange" stroke-dasharray="5,2" d="M984.5,-412.71C984.5,-412.71 984.5,-353.01 984.5,-353.01"/>
<polygon fill="darkorange" stroke="darkorange" points="986.95,-353.01 984.5,-346.01 982.05,-353.01 986.95,-353.01"/>
</g>
<!-- C&#45;0723 -->
<g id="node5" class="node">
<title>C&#45;0723</title>
<ellipse fill="tomato" stroke="black" cx="569" cy="-829.5" rx="72" ry="21.5"/>
<text text-anchor="middle" x="569" y="-827" font-family="Arial" font-size="10.00">C&#45;0723</text>
</g>
<!-- C&#45;0724 -->
<g id="node16" class="node">
<title>C&#45;0724</title>
<ellipse fill="mediumseagreen" stroke="black" cx="498" cy="-627.5" rx="72" ry="21.5"/>
<text text-anchor="middle" x="498" y="-625" font-family="Arial" font-size="10.00">C&#45;0724</text>
</g>
<!-- C&#45;0723&#45;&gt;C&#45;0724 -->
<g id="edge33" class="edge">
<title>C&#45;0723&#45;&gt;C&#45;0724</title>
<path fill="none" stroke="blue" stroke-dasharray="5,2" d="M533.5,-810.5C533.5,-810.5 533.5,-653.31 533.5,-653.31"/>
<polygon fill="blue" stroke="blue" points="535.95,-653.31 533.5,-646.31 531.05,-653.31 535.95,-653.31"/>
</g>
<!-- C&#45;0722 -->
<g id="node6" class="node">
<title>C&#45;0722</title>
<ellipse fill="mediumseagreen" stroke="black" cx="749" cy="-829.5" rx="72" ry="21.5"/>
<text text-anchor="middle" x="749" y="-827" font-family="Arial" font-size="10.00">C&#45;0722</text>
</g>
<!-- R&#45;067 -->
<g id="node19" class="node">
<title>R&#45;067</title>
<polygon fill="mediumseagreen" stroke="black" points="795,-719.59 795,-737.41 752.82,-750 693.18,-750 651,-737.41 651,-719.59 693.18,-707 752.82,-707 795,-719.59"/>
<text text-anchor="middle" x="723" y="-726" font-family="Arial" font-size="10.00">R&#45;067</text>
</g>
<!-- C&#45;0722&#45;&gt;R&#45;067 -->
<g id="edge21" class="edge">
<title>C&#45;0722&#45;&gt;R&#45;067</title>
<path fill="none" stroke="#4d4d4d" d="M736,-808.08C736,-808.08 736,-757.24 736,-757.24"/>
<polygon fill="#4d4d4d" stroke="#4d4d4d" points="738.45,-757.24 736,-750.24 733.55,-757.24 738.45,-757.24"/>
</g>
<!-- R&#45;160 -->
<g id="node7" class="node">
<title>R&#45;160</title>
<polygon fill="tomato" stroke="black" points="387,-113.59 387,-131.41 344.82,-144 285.18,-144 243,-131.41 243,-113.59 285.18,-101 344.82,-101 387,-113.59"/>
<text text-anchor="middle" x="315" y="-120" font-family="Arial" font-size="10.00">R&#45;160</text>
</g>
<!-- ext_circ_307_24_ -->
<g id="node34" class="node">
<title>ext_circ_307_24_</title>
<polygon fill="lightpink" stroke="darkorange" stroke-dasharray="5,2" points="234,-43 90,-43 90,0 234,0 234,-43"/>
<text text-anchor="middle" x="162" y="-24.5" font-family="Arial" font-size="10.00">Circuito:</text>
<text text-anchor="middle" x="162" y="-13.5" font-family="Arial" font-size="10.00">307&#45;24&#45;</text>
</g>
<!-- R&#45;160&#45;&gt;ext_circ_307_24_ -->
<g id="edge37" class="edge">
<title>R&#45;160&#45;&gt;ext_circ_307_24_</title>
<path fill="none" stroke="darkorange" stroke-dasharray="5,2" d="M242.83,-115C235.3,-115 230.33,-115 230.33,-115 230.33,-115 230.33,-50.19 230.33,-50.19"/>
<polygon fill="darkorange" stroke="darkorange" points="232.78,-50.19 230.33,-43.19 227.88,-50.19 232.78,-50.19"/>
</g>
<!-- S&#45;1939 -->
<g id="node8" class="node">
<title>S&#45;1939</title>
<polygon fill="mediumseagreen" stroke="black" points="818,-346 746,-324.5 818,-303 890,-324.5 818,-346"/>
<text text-anchor="middle" x="818" y="-322" font-family="Arial" font-size="10.00">S&#45;1939</text>
</g>
<!-- S&#45;1112 -->
<g id="node9" class="node">
<title>S&#45;1112</title>
<polygon fill="mediumseagreen" stroke="black" points="646,-548 574,-526.5 646,-505 718,-526.5 646,-548"/>
<text text-anchor="middle" x="646" y="-524" font-family="Arial" font-size="10.00">S&#45;1112</text>
</g>
<!-- S&#45;862 -->
<g id="node10" class="node">
<title>S&#45;862</title>
<polygon fill="mediumseagreen" stroke="black" points="286,-548 214,-526.5 286,-505 358,-526.5 286,-548"/>
<text text-anchor="middle" x="286" y="-524" font-family="Arial" font-size="10.00">S&#45;862</text>
</g>
<!-- S&#45;1916 -->
<g id="node11" class="node">
<title>S&#45;1916</title>
<polygon fill="mediumseagreen" stroke="black" points="394,-447 322,-425.5 394,-404 466,-425.5 394,-447"/>
<text text-anchor="middle" x="394" y="-423" font-family="Arial" font-size="10.00">S&#45;1916</text>
</g>
<!-- C&#45;0411 -->
<g id="node12" class="node">
<title>C&#45;0411</title>
<ellipse fill="mediumseagreen" stroke="black" cx="929" cy="-829.5" rx="72" ry="21.5"/>
<text text-anchor="middle" x="929" y="-827" font-family="Arial" font-size="10.00">C&#45;0411</text>
</g>
<!-- R&#45;140 -->
<g id="node31" class="node">
<title>R&#45;140</title>
<polygon fill="mediumseagreen" stroke="black" points="1009,-719.59 1009,-737.41 966.82,-750 907.18,-750 865,-737.41 865,-719.59 907.18,-707 966.82,-707 1009,-719.59"/>
<text text-anchor="middle" x="937" y="-726" font-family="Arial" font-size="10.00">R&#45;140</text>
</g>
<!-- C&#45;0411&#45;&gt;R&#45;140 -->
<g id="edge12" class="edge">
<title>C&#45;0411&#45;&gt;R&#45;140</title>
<path fill="none" stroke="#4d4d4d" d="M933,-807.58C933,-807.58 933,-757.03 933,-757.03"/>
<polygon fill="#4d4d4d" stroke="#4d4d4d" points="935.45,-757.03 933,-750.03 930.55,-757.03 935.45,-757.03"/>
</g>
<!-- R&#45;233 -->
<g id="node17" class="node">
<title>R&#45;233</title>
<polygon fill="tomato" stroke="black" points="1178,-416.59 1178,-434.41 1135.82,-447 1076.18,-447 1034,-434.41 1034,-416.59 1076.18,-404 1135.82,-404 1178,-416.59"/>
<text text-anchor="middle" x="1106" y="-423" font-family="Arial" font-size="10.00">R&#45;233</text>
</g>
<!-- C&#45;0977&#45;&gt;R&#45;233 -->
<g id="edge17" class="edge">
<title>C&#45;0977&#45;&gt;R&#45;233</title>
<path fill="none" stroke="#4d4d4d" d="M1093,-505.08C1093,-505.08 1093,-454.24 1093,-454.24"/>
<polygon fill="#4d4d4d" stroke="#4d4d4d" points="1095.45,-454.24 1093,-447.24 1090.55,-454.24 1095.45,-454.24"/>
</g>
<!-- S&#45;861 -->
<g id="node14" class="node">
<title>S&#45;861</title>
<polygon fill="mediumseagreen" stroke="black" points="466,-548 394,-526.5 466,-505 538,-526.5 466,-548"/>
<text text-anchor="middle" x="466" y="-524" font-family="Arial" font-size="10.00">S&#45;861</text>
</g>
<!-- S&#45;861&#45;&gt;S&#45;1916 -->
<g id="edge3" class="edge">
<title>S&#45;861&#45;&gt;S&#45;1916</title>
<path fill="none" stroke="#4d4d4d" d="M430,-515.69C430,-515.69 430,-443.54 430,-443.54"/>
<polygon fill="#4d4d4d" stroke="#4d4d4d" points="432.45,-443.54 430,-436.54 427.55,-443.54 432.45,-443.54"/>
</g>
<!-- S&#45;1915 -->
<g id="node22" class="node">
<title>S&#45;1915</title>
<polygon fill="mediumseagreen" stroke="black" points="574,-447 502,-425.5 574,-404 646,-425.5 574,-447"/>
<text text-anchor="middle" x="574" y="-423" font-family="Arial" font-size="10.00">S&#45;1915</text>
</g>
<!-- S&#45;861&#45;&gt;S&#45;1915 -->
<g id="edge25" class="edge">
<title>S&#45;861&#45;&gt;S&#45;1915</title>
<path fill="none" stroke="#4d4d4d" d="M520,-521.07C520,-521.07 520,-437.96 520,-437.96"/>
<polygon fill="#4d4d4d" stroke="#4d4d4d" points="522.45,-437.96 520,-430.96 517.55,-437.96 522.45,-437.96"/>
</g>
<!-- C&#45;0725 -->
<g id="node15" class="node">
<title>C&#45;0725</title>
<ellipse fill="mediumseagreen" stroke="black" cx="331" cy="-223.5" rx="72" ry="21.5"/>
<text text-anchor="middle" x="331" y="-221" font-family="Arial" font-size="10.00">C&#45;0725</text>
</g>
<!-- C&#45;0725&#45;&gt;R&#45;160 -->
<g id="edge20" class="edge">
<title>C&#45;0725&#45;&gt;R&#45;160</title>
<path fill="none" stroke="#4d4d4d" d="M323,-202.08C323,-202.08 323,-151.24 323,-151.24"/>
<polygon fill="#4d4d4d" stroke="#4d4d4d" points="325.45,-151.24 323,-144.24 320.55,-151.24 325.45,-151.24"/>
</g>
<!-- C&#45;0724&#45;&gt;S&#45;1112 -->
<g id="edge4" class="edge">
<title>C&#45;0724&#45;&gt;S&#45;1112</title>
<path fill="none" stroke="#4d4d4d" d="M554,-613.81C554,-586.11 554,-526 554,-526 554,-526 568.34,-526 568.34,-526"/>
<polygon fill="#4d4d4d" stroke="#4d4d4d" points="568.34,-528.45 575.34,-526 568.34,-523.55 568.34,-528.45"/>
</g>
<!-- C&#45;0724&#45;&gt;S&#45;862 -->
<g id="edge24" class="edge">
<title>C&#45;0724&#45;&gt;S&#45;862</title>
<path fill="none" stroke="#4d4d4d" d="M425.93,-627C364.47,-627 286,-627 286,-627 286,-627 286,-555.31 286,-555.31"/>
<polygon fill="#4d4d4d" stroke="#4d4d4d" points="288.45,-555.31 286,-548.31 283.55,-555.31 288.45,-555.31"/>
</g>
<!-- C&#45;0724&#45;&gt;S&#45;861 -->
<g id="edge23" class="edge">
<title>C&#45;0724&#45;&gt;S&#45;861</title>
<path fill="none" stroke="#4d4d4d" d="M482,-606.08C482,-606.08 482,-550.54 482,-550.54"/>
<polygon fill="#4d4d4d" stroke="#4d4d4d" points="484.45,-550.54 482,-543.54 479.55,-550.54 484.45,-550.54"/>
</g>
<!-- R&#45;233&#45;&gt;ext_circ_304_26_ -->
<g id="edge36" class="edge">
<title>R&#45;233&#45;&gt;ext_circ_304_26_</title>
<path fill="none" stroke="darkorange" stroke-dasharray="5,2" d="M1074.5,-404.08C1074.5,-404.08 1074.5,-353.24 1074.5,-353.24"/>
<polygon fill="darkorange" stroke="darkorange" points="1076.95,-353.24 1074.5,-346.24 1072.05,-353.24 1076.95,-353.24"/>
</g>
<!-- C&#45;0035&#45;&gt;S&#45;892 -->
<g id="edge2" class="edge">
<title>C&#45;0035&#45;&gt;S&#45;892</title>
<path fill="none" stroke="#4d4d4d" d="M839,-1110.58C839,-1110.58 839,-1060.03 839,-1060.03"/>
<polygon fill="#4d4d4d" stroke="#4d4d4d" points="841.45,-1060.03 839,-1053.03 836.55,-1060.03 841.45,-1060.03"/>
</g>
<!-- R&#45;067&#45;&gt;C&#45;0724 -->
<g id="edge22" class="edge">
<title>R&#45;067&#45;&gt;C&#45;0724</title>
<path fill="none" stroke="#4d4d4d" d="M684.5,-709.41C684.5,-680.01 684.5,-627 684.5,-627 684.5,-627 577.11,-627 577.11,-627"/>
<polygon fill="#4d4d4d" stroke="#4d4d4d" points="577.11,-624.55 570.11,-627 577.11,-629.45 577.11,-624.55"/>
</g>
<!-- C&#45;0726 -->
<g id="node20" class="node">
<title>C&#45;0726</title>
<ellipse fill="tomato" stroke="black" cx="72" cy="-122.5" rx="72" ry="21.5"/>
<text text-anchor="middle" x="72" y="-120" font-family="Arial" font-size="10.00">C&#45;0726</text>
</g>
<!-- C&#45;0726&#45;&gt;ext_circ_307_24_ -->
<g id="edge38" class="edge">
<title>C&#45;0726&#45;&gt;ext_circ_307_24_</title>
<path fill="none" stroke="darkorange" stroke-dasharray="5,2" d="M117,-105.37C117,-105.37 117,-50.31 117,-50.31"/>
<polygon fill="darkorange" stroke="darkorange" points="119.45,-50.31 117,-43.31 114.55,-50.31 119.45,-50.31"/>
</g>
<!-- C&#45;0027 -->
<g id="node21" class="node">
<title>C&#45;0027</title>
<ellipse fill="tomato" stroke="black" cx="511" cy="-223.5" rx="72" ry="21.5"/>
<text text-anchor="middle" x="511" y="-221" font-family="Arial" font-size="10.00">C&#45;0027</text>
</g>
<!-- ext_circ_304_23_ -->
<g id="node32" class="node">
<title>ext_circ_304_23_</title>
<polygon fill="lightpink" stroke="darkorange" stroke-dasharray="5,2" points="599,-144 455,-144 455,-101 599,-101 599,-144"/>
<text text-anchor="middle" x="527" y="-125.5" font-family="Arial" font-size="10.00">Circuito:</text>
<text text-anchor="middle" x="527" y="-114.5" font-family="Arial" font-size="10.00">304&#45;23&#45;</text>
</g>
<!-- C&#45;0027&#45;&gt;ext_circ_304_23_ -->
<g id="edge32" class="edge">
<title>C&#45;0027&#45;&gt;ext_circ_304_23_</title>
<path fill="none" stroke="darkorange" stroke-dasharray="5,2" d="M519,-202.08C519,-202.08 519,-151.24 519,-151.24"/>
<polygon fill="darkorange" stroke="darkorange" points="521.45,-151.24 519,-144.24 516.55,-151.24 521.45,-151.24"/>
</g>
<!-- S&#45;1915&#45;&gt;S&#45;1939 -->
<g id="edge26" class="edge">
<title>S&#45;1915&#45;&gt;S&#45;1939</title>
<path fill="none" stroke="#4d4d4d" d="M644.57,-425C693.54,-425 750,-425 750,-425 750,-425 750,-332.92 750,-332.92"/>
<polygon fill="#4d4d4d" stroke="#4d4d4d" points="752.45,-332.92 750,-325.92 747.55,-332.92 752.45,-332.92"/>
</g>
<!-- S&#45;1915&#45;&gt;C&#45;0027 -->
<g id="edge7" class="edge">
<title>S&#45;1915&#45;&gt;C&#45;0027</title>
<path fill="none" stroke="#4d4d4d" d="M544.67,-412.56C544.67,-412.56 544.67,-249.6 544.67,-249.6"/>
<polygon fill="#4d4d4d" stroke="#4d4d4d" points="547.12,-249.6 544.67,-242.6 542.22,-249.6 547.12,-249.6"/>
</g>
<!-- S&#45;890 -->
<g id="node26" class="node">
<title>S&#45;890</title>
<polygon fill="mediumseagreen" stroke="black" points="241,-346 169,-324.5 241,-303 313,-324.5 241,-346"/>
<text text-anchor="middle" x="241" y="-322" font-family="Arial" font-size="10.00">S&#45;890</text>
</g>
<!-- S&#45;1915&#45;&gt;S&#45;890 -->
<g id="edge27" class="edge">
<title>S&#45;1915&#45;&gt;S&#45;890</title>
<path fill="none" stroke="#4d4d4d" d="M523.33,-418.84C523.33,-396.26 523.33,-324 523.33,-324 523.33,-324 318.52,-324 318.52,-324"/>
<polygon fill="#4d4d4d" stroke="#4d4d4d" points="318.52,-321.55 311.52,-324 318.52,-326.45 318.52,-321.55"/>
</g>
<!-- C&#45;1111 -->
<g id="node28" class="node">
<title>C&#45;1111</title>
<ellipse fill="mediumseagreen" stroke="black" cx="638" cy="-324.5" rx="72" ry="21.5"/>
<text text-anchor="middle" x="638" y="-322" font-family="Arial" font-size="10.00">C&#45;1111</text>
</g>
<!-- S&#45;1915&#45;&gt;C&#45;1111 -->
<g id="edge6" class="edge">
<title>S&#45;1915&#45;&gt;C&#45;1111</title>
<path fill="none" stroke="#4d4d4d" d="M606,-413.52C606,-413.52 606,-351.09 606,-351.09"/>
<polygon fill="#4d4d4d" stroke="#4d4d4d" points="608.45,-351.09 606,-344.09 603.55,-351.09 608.45,-351.09"/>
</g>
<!-- S&#45;1326&#45;&gt;C&#45;0723 -->
<g id="edge8" class="edge">
<title>S&#45;1326&#45;&gt;C&#45;0723</title>
<path fill="none" stroke="#4d4d4d" d="M768.41,-930C688.41,-930 569,-930 569,-930 569,-930 569,-858.31 569,-858.31"/>
<polygon fill="#4d4d4d" stroke="#4d4d4d" points="571.45,-858.31 569,-851.31 566.55,-858.31 571.45,-858.31"/>
</g>
<!-- S&#45;1326&#45;&gt;C&#45;0722 -->
<g id="edge19" class="edge">
<title>S&#45;1326&#45;&gt;C&#45;0722</title>
<path fill="none" stroke="#4d4d4d" d="M794,-922.23C794,-922.23 794,-853.52 794,-853.52"/>
<polygon fill="#4d4d4d" stroke="#4d4d4d" points="796.45,-853.52 794,-846.52 791.55,-853.52 796.45,-853.52"/>
</g>
<!-- S&#45;1326&#45;&gt;C&#45;0411 -->
<g id="edge10" class="edge">
<title>S&#45;1326&#45;&gt;C&#45;0411</title>
<path fill="none" stroke="#4d4d4d" d="M884,-922.23C884,-922.23 884,-853.52 884,-853.52"/>
<polygon fill="#4d4d4d" stroke="#4d4d4d" points="886.45,-853.52 884,-846.52 881.55,-853.52 886.45,-853.52"/>
</g>
<!-- C&#45;0410 -->
<g id="node25" class="node">
<title>C&#45;0410</title>
<ellipse fill="tomato" stroke="black" cx="1109" cy="-829.5" rx="72" ry="21.5"/>
<text text-anchor="middle" x="1109" y="-827" font-family="Arial" font-size="10.00">C&#45;0410</text>
</g>
<!-- S&#45;1326&#45;&gt;C&#45;0410 -->
<g id="edge11" class="edge">
<title>S&#45;1326&#45;&gt;C&#45;0410</title>
<path fill="none" stroke="#4d4d4d" d="M909.59,-930C989.59,-930 1109,-930 1109,-930 1109,-930 1109,-858.31 1109,-858.31"/>
<polygon fill="#4d4d4d" stroke="#4d4d4d" points="1111.45,-858.31 1109,-851.31 1106.55,-858.31 1111.45,-858.31"/>
</g>
<!-- C&#45;0410&#45;&gt;C&#45;0412 -->
<g id="edge34" class="edge">
<title>C&#45;0410&#45;&gt;C&#45;0412</title>
<path fill="none" stroke="blue" stroke-dasharray="5,2" d="M1036.96,-829C1025.32,-829 1017,-829 1017,-829 1017,-829 1017,-644.49 1017,-644.49"/>
<polygon fill="blue" stroke="blue" points="1019.45,-644.49 1017,-637.49 1014.55,-644.49 1019.45,-644.49"/>
</g>
<!-- S&#45;890&#45;&gt;C&#45;0725 -->
<g id="edge30" class="edge">
<title>S&#45;890&#45;&gt;C&#45;0725</title>
<path fill="none" stroke="#4d4d4d" d="M286,-316.23C286,-316.23 286,-247.52 286,-247.52"/>
<polygon fill="#4d4d4d" stroke="#4d4d4d" points="288.45,-247.52 286,-240.52 283.55,-247.52 288.45,-247.52"/>
</g>
<!-- S&#45;890&#45;&gt;C&#45;0726 -->
<g id="edge29" class="edge">
<title>S&#45;890&#45;&gt;C&#45;0726</title>
<path fill="none" stroke="#4d4d4d" d="M226.67,-307.15C226.67,-259.3 226.67,-129 226.67,-129 226.67,-129 147.74,-129 147.74,-129"/>
<polygon fill="#4d4d4d" stroke="#4d4d4d" points="147.74,-126.55 140.74,-129 147.74,-131.45 147.74,-126.55"/>
</g>
<!-- S&#45;2276 -->
<g id="node29" class="node">
<title>S&#45;2276</title>
<polygon fill="mediumseagreen" stroke="black" points="151,-245 79,-223.5 151,-202 223,-223.5 151,-245"/>
<text text-anchor="middle" x="151" y="-221" font-family="Arial" font-size="10.00">S&#45;2276</text>
</g>
<!-- S&#45;890&#45;&gt;S&#45;2276 -->
<g id="edge28" class="edge">
<title>S&#45;890&#45;&gt;S&#45;2276</title>
<path fill="none" stroke="#4d4d4d" d="M196,-316.23C196,-316.23 196,-238.6 196,-238.6"/>
<polygon fill="#4d4d4d" stroke="#4d4d4d" points="198.45,-238.6 196,-231.6 193.55,-238.6 198.45,-238.6"/>
</g>
<!-- R&#45;276 -->
<g id="node30" class="node">
<title>R&#45;276</title>
<polygon fill="tomato" stroke="black" points="763,-214.59 763,-232.41 720.82,-245 661.18,-245 619,-232.41 619,-214.59 661.18,-202 720.82,-202 763,-214.59"/>
<text text-anchor="middle" x="691" y="-221" font-family="Arial" font-size="10.00">R&#45;276</text>
</g>
<!-- C&#45;1111&#45;&gt;R&#45;276 -->
<g id="edge5" class="edge">
<title>C&#45;1111&#45;&gt;R&#45;276</title>
<path fill="none" stroke="#4d4d4d" d="M664.5,-304.06C664.5,-304.06 664.5,-252.31 664.5,-252.31"/>
<polygon fill="#4d4d4d" stroke="#4d4d4d" points="666.95,-252.31 664.5,-245.31 662.05,-252.31 666.95,-252.31"/>
</g>
<!-- R&#45;276&#45;&gt;ext_circ_304_23_ -->
<g id="edge31" class="edge">
<title>R&#45;276&#45;&gt;ext_circ_304_23_</title>
<path fill="none" stroke="darkorange" stroke-dasharray="5,2" d="M618.86,-223C603.09,-223 591,-223 591,-223 591,-223 591,-151.31 591,-151.31"/>
<polygon fill="darkorange" stroke="darkorange" points="593.45,-151.31 591,-144.31 588.55,-151.31 593.45,-151.31"/>
</g>
<!-- R&#45;140&#45;&gt;C&#45;0412 -->
<g id="edge13" class="edge">
<title>R&#45;140&#45;&gt;C&#45;0412</title>
<path fill="none" stroke="#4d4d4d" d="M945,-706.58C945,-706.58 945,-656.03 945,-656.03"/>
<polygon fill="#4d4d4d" stroke="#4d4d4d" points="947.45,-656.03 945,-649.03 942.55,-656.03 947.45,-656.03"/>
</g>
</g>
</svg>
