<?xml version="1.0" encoding="UTF-8" standalone="no"?>
<!DOCTYPE svg PUBLIC "-//W3C//DTD SVG 1.1//EN"
 "http://www.w3.org/Graphics/SVG/1.1/DTD/svg11.dtd">
<!-- Generated by graphviz version 2.50.0 (0)
 -->
<!-- Title: Grafo_Circuito_316_22 Pages: 1 -->
<svg width="2672pt" height="1271pt"
 viewBox="0.00 0.00 2672.00 1271.00" xmlns="http://www.w3.org/2000/svg" xmlns:xlink="http://www.w3.org/1999/xlink">
<g id="graph0" class="graph" transform="scale(1 1) rotate(0) translate(4 1267)">
<title>Grafo_Circuito_316_22</title>
<polygon fill="white" stroke="transparent" points="-4,4 -4,-1267 2668,-1267 2668,4 -4,4"/>
<!-- C&#45;1028 -->
<g id="node1" class="node">
<title>C&#45;1028</title>
<ellipse fill="mediumseagreen" stroke="black" cx="972" cy="-728.5" rx="72" ry="21.5"/>
<text text-anchor="middle" x="972" y="-726" font-family="Arial" font-size="10.00">C&#45;1028</text>
</g>
<!-- R&#45;045 -->
<g id="node47" class="node">
<title>R&#45;045</title>
<polygon fill="mediumseagreen" stroke="black" points="1044,-618.59 1044,-636.41 1001.82,-649 942.18,-649 900,-636.41 900,-618.59 942.18,-606 1001.82,-606 1044,-618.59"/>
<text text-anchor="middle" x="972" y="-625" font-family="Arial" font-size="10.00">R&#45;045</text>
</g>
<!-- C&#45;1028&#45;&gt;R&#45;045 -->
<g id="edge26" class="edge">
<title>C&#45;1028&#45;&gt;R&#45;045</title>
<path fill="none" stroke="#4d4d4d" d="M972,-706.58C972,-706.58 972,-656.03 972,-656.03"/>
<polygon fill="#4d4d4d" stroke="#4d4d4d" points="974.45,-656.03 972,-649.03 969.55,-656.03 974.45,-656.03"/>
</g>
<!-- C&#45;0322 -->
<g id="node2" class="node">
<title>C&#45;0322</title>
<ellipse fill="mediumseagreen" stroke="black" cx="1152" cy="-1031.5" rx="72" ry="21.5"/>
<text text-anchor="middle" x="1152" y="-1029" font-family="Arial" font-size="10.00">C&#45;0322</text>
</g>
<!-- C&#45;0324 -->
<g id="node35" class="node">
<title>C&#45;0324</title>
<ellipse fill="mediumseagreen" stroke="black" cx="1152" cy="-930.5" rx="72" ry="21.5"/>
<text text-anchor="middle" x="1152" y="-928" font-family="Arial" font-size="10.00">C&#45;0324</text>
</g>
<!-- C&#45;0322&#45;&gt;C&#45;0324 -->
<g id="edge3" class="edge">
<title>C&#45;0322&#45;&gt;C&#45;0324</title>
<path fill="none" stroke="#4d4d4d" d="M1152,-1009.58C1152,-1009.58 1152,-959.03 1152,-959.03"/>
<polygon fill="#4d4d4d" stroke="#4d4d4d" points="1154.45,-959.03 1152,-952.03 1149.55,-959.03 1154.45,-959.03"/>
</g>
<!-- C&#45;0323 -->
<g id="node3" class="node">
<title>C&#45;0323</title>
<ellipse fill="mediumseagreen" stroke="black" cx="1152" cy="-1132.5" rx="72" ry="21.5"/>
<text text-anchor="middle" x="1152" y="-1130" font-family="Arial" font-size="10.00">C&#45;0323</text>
</g>
<!-- C&#45;0323&#45;&gt;C&#45;0322 -->
<g id="edge2" class="edge">
<title>C&#45;0323&#45;&gt;C&#45;0322</title>
<path fill="none" stroke="#4d4d4d" d="M1152,-1110.58C1152,-1110.58 1152,-1060.03 1152,-1060.03"/>
<polygon fill="#4d4d4d" stroke="#4d4d4d" points="1154.45,-1060.03 1152,-1053.03 1149.55,-1060.03 1154.45,-1060.03"/>
</g>
<!-- C&#45;1089 -->
<g id="node4" class="node">
<title>C&#45;1089</title>
<ellipse fill="mediumseagreen" stroke="black" cx="1512" cy="-728.5" rx="72" ry="21.5"/>
<text text-anchor="middle" x="1512" y="-726" font-family="Arial" font-size="10.00">C&#45;1089</text>
</g>
<!-- R&#45;267 -->
<g id="node26" class="node">
<title>R&#45;267</title>
<polygon fill="tomato" stroke="black" points="1584,-618.59 1584,-636.41 1541.82,-649 1482.18,-649 1440,-636.41 1440,-618.59 1482.18,-606 1541.82,-606 1584,-618.59"/>
<text text-anchor="middle" x="1512" y="-625" font-family="Arial" font-size="10.00">R&#45;267</text>
</g>
<!-- C&#45;1089&#45;&gt;R&#45;267 -->
<g id="edge20" class="edge">
<title>C&#45;1089&#45;&gt;R&#45;267</title>
<path fill="none" stroke="#4d4d4d" d="M1512,-706.58C1512,-706.58 1512,-656.03 1512,-656.03"/>
<polygon fill="#4d4d4d" stroke="#4d4d4d" points="1514.45,-656.03 1512,-649.03 1509.55,-656.03 1514.45,-656.03"/>
</g>
<!-- S&#45;1712 -->
<g id="node5" class="node">
<title>S&#45;1712</title>
<polygon fill="mediumseagreen" stroke="black" points="972,-851 900,-829.5 972,-808 1044,-829.5 972,-851"/>
<text text-anchor="middle" x="972" y="-827" font-family="Arial" font-size="10.00">S&#45;1712</text>
</g>
<!-- S&#45;2263 -->
<g id="node6" class="node">
<title>S&#45;2263</title>
<polygon fill="mediumseagreen" stroke="black" points="72,-43 0,-21.5 72,0 144,-21.5 72,-43"/>
<text text-anchor="middle" x="72" y="-19" font-family="Arial" font-size="10.00">S&#45;2263</text>
</g>
<!-- S&#45;2427 -->
<g id="node7" class="node">
<title>S&#45;2427</title>
<polygon fill="mediumseagreen" stroke="black" points="1872,-649 1800,-627.5 1872,-606 1944,-627.5 1872,-649"/>
<text text-anchor="middle" x="1872" y="-625" font-family="Arial" font-size="10.00">S&#45;2427</text>
</g>
<!-- S&#45;2396 -->
<g id="node8" class="node">
<title>S&#45;2396</title>
<polygon fill="mediumseagreen" stroke="black" points="252,-43 180,-21.5 252,0 324,-21.5 252,-43"/>
<text text-anchor="middle" x="252" y="-19" font-family="Arial" font-size="10.00">S&#45;2396</text>
</g>
<!-- C&#45;0262 -->
<g id="node9" class="node">
<title>C&#45;0262</title>
<ellipse fill="mediumseagreen" stroke="black" cx="792" cy="-324.5" rx="72" ry="21.5"/>
<text text-anchor="middle" x="792" y="-322" font-family="Arial" font-size="10.00">C&#45;0262</text>
</g>
<!-- C&#45;0735 -->
<g id="node13" class="node">
<title>C&#45;0735</title>
<ellipse fill="mediumseagreen" stroke="black" cx="612" cy="-223.5" rx="72" ry="21.5"/>
<text text-anchor="middle" x="612" y="-221" font-family="Arial" font-size="10.00">C&#45;0735</text>
</g>
<!-- C&#45;0262&#45;&gt;C&#45;0735 -->
<g id="edge35" class="edge">
<title>C&#45;0262&#45;&gt;C&#45;0735</title>
<path fill="none" stroke="#4d4d4d" d="M719.82,-324C669.75,-324 612,-324 612,-324 612,-324 612,-252.31 612,-252.31"/>
<polygon fill="#4d4d4d" stroke="#4d4d4d" points="614.45,-252.31 612,-245.31 609.55,-252.31 614.45,-252.31"/>
</g>
<!-- S&#45;2233 -->
<g id="node24" class="node">
<title>S&#45;2233</title>
<polygon fill="mediumseagreen" stroke="black" points="792,-245 720,-223.5 792,-202 864,-223.5 792,-245"/>
<text text-anchor="middle" x="792" y="-221" font-family="Arial" font-size="10.00">S&#45;2233</text>
</g>
<!-- C&#45;0262&#45;&gt;S&#45;2233 -->
<g id="edge33" class="edge">
<title>C&#45;0262&#45;&gt;S&#45;2233</title>
<path fill="none" stroke="#4d4d4d" d="M768,-304.06C768,-304.06 768,-245.03 768,-245.03"/>
<polygon fill="#4d4d4d" stroke="#4d4d4d" points="770.45,-245.03 768,-238.03 765.55,-245.03 770.45,-245.03"/>
</g>
<!-- C&#45;0233 -->
<g id="node29" class="node">
<title>C&#45;0233</title>
<ellipse fill="tomato" stroke="black" cx="972" cy="-223.5" rx="72" ry="21.5"/>
<text text-anchor="middle" x="972" y="-221" font-family="Arial" font-size="10.00">C&#45;0233</text>
</g>
<!-- C&#45;0262&#45;&gt;C&#45;0233 -->
<g id="edge34" class="edge">
<title>C&#45;0262&#45;&gt;C&#45;0233</title>
<path fill="none" stroke="#4d4d4d" d="M864.08,-324C868.07,-324 870.5,-324 870.5,-324 870.5,-324 870.5,-223 870.5,-223 870.5,-223 892.86,-223 892.86,-223"/>
<polygon fill="#4d4d4d" stroke="#4d4d4d" points="892.86,-225.45 899.86,-223 892.86,-220.55 892.86,-225.45"/>
</g>
<!-- S&#45;2124 -->
<g id="node39" class="node">
<title>S&#45;2124</title>
<polygon fill="mediumseagreen" stroke="black" points="1152,-245 1080,-223.5 1152,-202 1224,-223.5 1152,-245"/>
<text text-anchor="middle" x="1152" y="-221" font-family="Arial" font-size="10.00">S&#45;2124</text>
</g>
<!-- C&#45;0262&#45;&gt;S&#45;2124 -->
<g id="edge32" class="edge">
<title>C&#45;0262&#45;&gt;S&#45;2124</title>
<path fill="none" stroke="#4d4d4d" d="M816,-303.96C816,-289.98 816,-274 816,-274 816,-274 1152,-274 1152,-274 1152,-274 1152,-252.21 1152,-252.21"/>
<polygon fill="#4d4d4d" stroke="#4d4d4d" points="1154.45,-252.21 1152,-245.21 1149.55,-252.21 1154.45,-252.21"/>
</g>
<!-- S&#45;1343 -->
<g id="node10" class="node">
<title>S&#45;1343</title>
<polygon fill="mediumseagreen" stroke="black" points="972,-346 900,-324.5 972,-303 1044,-324.5 972,-346"/>
<text text-anchor="middle" x="972" y="-322" font-family="Arial" font-size="10.00">S&#45;1343</text>
</g>
<!-- C&#45;0256 -->
<g id="node11" class="node">
<title>C&#45;0256</title>
<ellipse fill="mediumseagreen" stroke="black" cx="612" cy="-425.5" rx="72" ry="21.5"/>
<text text-anchor="middle" x="612" y="-423" font-family="Arial" font-size="10.00">C&#45;0256</text>
</g>
<!-- C&#45;0257 -->
<g id="node23" class="node">
<title>C&#45;0257</title>
<ellipse fill="mediumseagreen" stroke="black" cx="432" cy="-324.5" rx="72" ry="21.5"/>
<text text-anchor="middle" x="432" y="-322" font-family="Arial" font-size="10.00">C&#45;0257</text>
</g>
<!-- C&#45;0256&#45;&gt;C&#45;0257 -->
<g id="edge39" class="edge">
<title>C&#45;0256&#45;&gt;C&#45;0257</title>
<path fill="none" stroke="#4d4d4d" d="M539.82,-425C489.75,-425 432,-425 432,-425 432,-425 432,-353.31 432,-353.31"/>
<polygon fill="#4d4d4d" stroke="#4d4d4d" points="434.45,-353.31 432,-346.31 429.55,-353.31 434.45,-353.31"/>
</g>
<!-- C&#45;0566 -->
<g id="node12" class="node">
<title>C&#45;0566</title>
<ellipse fill="mediumseagreen" stroke="black" cx="2052" cy="-627.5" rx="72" ry="21.5"/>
<text text-anchor="middle" x="2052" y="-625" font-family="Arial" font-size="10.00">C&#45;0566</text>
</g>
<!-- R&#45;122 -->
<g id="node44" class="node">
<title>R&#45;122</title>
<polygon fill="mediumseagreen" stroke="black" points="2124,-517.59 2124,-535.41 2081.82,-548 2022.18,-548 1980,-535.41 1980,-517.59 2022.18,-505 2081.82,-505 2124,-517.59"/>
<text text-anchor="middle" x="2052" y="-524" font-family="Arial" font-size="10.00">R&#45;122</text>
</g>
<!-- C&#45;0566&#45;&gt;R&#45;122 -->
<g id="edge12" class="edge">
<title>C&#45;0566&#45;&gt;R&#45;122</title>
<path fill="none" stroke="#4d4d4d" d="M2052,-605.58C2052,-605.58 2052,-555.03 2052,-555.03"/>
<polygon fill="#4d4d4d" stroke="#4d4d4d" points="2054.45,-555.03 2052,-548.03 2049.55,-555.03 2054.45,-555.03"/>
</g>
<!-- S&#45;628 -->
<g id="node14" class="node">
<title>S&#45;628</title>
<polygon fill="mediumseagreen" stroke="black" points="1692,-750 1620,-728.5 1692,-707 1764,-728.5 1692,-750"/>
<text text-anchor="middle" x="1692" y="-726" font-family="Arial" font-size="10.00">S&#45;628</text>
</g>
<!-- C&#45;0259 -->
<g id="node15" class="node">
<title>C&#45;0259</title>
<ellipse fill="mediumseagreen" stroke="black" cx="972" cy="-425.5" rx="72" ry="21.5"/>
<text text-anchor="middle" x="972" y="-423" font-family="Arial" font-size="10.00">C&#45;0259</text>
</g>
<!-- C&#45;0259&#45;&gt;C&#45;0262 -->
<g id="edge31" class="edge">
<title>C&#45;0259&#45;&gt;C&#45;0262</title>
<path fill="none" stroke="#4d4d4d" d="M899.82,-425C849.75,-425 792,-425 792,-425 792,-425 792,-353.31 792,-353.31"/>
<polygon fill="#4d4d4d" stroke="#4d4d4d" points="794.45,-353.31 792,-346.31 789.55,-353.31 794.45,-353.31"/>
</g>
<!-- C&#45;0259&#45;&gt;S&#45;1343 -->
<g id="edge30" class="edge">
<title>C&#45;0259&#45;&gt;S&#45;1343</title>
<path fill="none" stroke="#4d4d4d" d="M948,-405.06C948,-405.06 948,-346.03 948,-346.03"/>
<polygon fill="#4d4d4d" stroke="#4d4d4d" points="950.45,-346.03 948,-339.03 945.55,-346.03 950.45,-346.03"/>
</g>
<!-- S&#45;1166 -->
<g id="node18" class="node">
<title>S&#45;1166</title>
<polygon fill="mediumseagreen" stroke="black" points="1152,-346 1080,-324.5 1152,-303 1224,-324.5 1152,-346"/>
<text text-anchor="middle" x="1152" y="-322" font-family="Arial" font-size="10.00">S&#45;1166</text>
</g>
<!-- C&#45;0259&#45;&gt;S&#45;1166 -->
<g id="edge36" class="edge">
<title>C&#45;0259&#45;&gt;S&#45;1166</title>
<path fill="none" stroke="#4d4d4d" d="M1044.27,-425C1057.91,-425 1068,-425 1068,-425 1068,-425 1068,-324 1068,-324 1068,-324 1074.5,-324 1074.5,-324"/>
<polygon fill="#4d4d4d" stroke="#4d4d4d" points="1074.5,-326.45 1081.5,-324 1074.5,-321.55 1074.5,-326.45"/>
</g>
<!-- S&#45;647 -->
<g id="node34" class="node">
<title>S&#45;647</title>
<polygon fill="mediumseagreen" stroke="black" points="1332,-346 1260,-324.5 1332,-303 1404,-324.5 1332,-346"/>
<text text-anchor="middle" x="1332" y="-322" font-family="Arial" font-size="10.00">S&#45;647</text>
</g>
<!-- C&#45;0259&#45;&gt;S&#45;647 -->
<g id="edge37" class="edge">
<title>C&#45;0259&#45;&gt;S&#45;647</title>
<path fill="none" stroke="#4d4d4d" d="M996,-404.96C996,-390.98 996,-375 996,-375 996,-375 1332,-375 1332,-375 1332,-375 1332,-353.21 1332,-353.21"/>
<polygon fill="#4d4d4d" stroke="#4d4d4d" points="1334.45,-353.21 1332,-346.21 1329.55,-353.21 1334.45,-353.21"/>
</g>
<!-- C&#45;0234 -->
<g id="node16" class="node">
<title>C&#45;0234</title>
<ellipse fill="mediumseagreen" stroke="black" cx="252" cy="-122.5" rx="72" ry="21.5"/>
<text text-anchor="middle" x="252" y="-120" font-family="Arial" font-size="10.00">C&#45;0234</text>
</g>
<!-- C&#45;0234&#45;&gt;S&#45;2263 -->
<g id="edge45" class="edge">
<title>C&#45;0234&#45;&gt;S&#45;2263</title>
<path fill="none" stroke="#4d4d4d" d="M179.94,-122C139.06,-122 96,-122 96,-122 96,-122 96,-42.9 96,-42.9"/>
<polygon fill="#4d4d4d" stroke="#4d4d4d" points="98.45,-42.9 96,-35.9 93.55,-42.9 98.45,-42.9"/>
</g>
<!-- C&#45;0234&#45;&gt;S&#45;2396 -->
<g id="edge47" class="edge">
<title>C&#45;0234&#45;&gt;S&#45;2396</title>
<path fill="none" stroke="#4d4d4d" d="M252,-100.58C252,-100.58 252,-50.03 252,-50.03"/>
<polygon fill="#4d4d4d" stroke="#4d4d4d" points="254.45,-50.03 252,-43.03 249.55,-50.03 254.45,-50.03"/>
</g>
<!-- S&#45;524 -->
<g id="node36" class="node">
<title>S&#45;524</title>
<polygon fill="mediumseagreen" stroke="black" points="432,-43 360,-21.5 432,0 504,-21.5 432,-43"/>
<text text-anchor="middle" x="432" y="-19" font-family="Arial" font-size="10.00">S&#45;524</text>
</g>
<!-- C&#45;0234&#45;&gt;S&#45;524 -->
<g id="edge46" class="edge">
<title>C&#45;0234&#45;&gt;S&#45;524</title>
<path fill="none" stroke="#4d4d4d" d="M319.72,-115C335.6,-115 348,-115 348,-115 348,-115 348,-21 348,-21 348,-21 354.5,-21 354.5,-21"/>
<polygon fill="#4d4d4d" stroke="#4d4d4d" points="354.5,-23.45 361.5,-21 354.5,-18.55 354.5,-23.45"/>
</g>
<!-- S&#45;2015 -->
<g id="node17" class="node">
<title>S&#45;2015</title>
<polygon fill="mediumseagreen" stroke="black" points="432,-144 360,-122.5 432,-101 504,-122.5 432,-144"/>
<text text-anchor="middle" x="432" y="-120" font-family="Arial" font-size="10.00">S&#45;2015</text>
</g>
<!-- C&#45;0567 -->
<g id="node19" class="node">
<title>C&#45;0567</title>
<ellipse fill="mediumseagreen" stroke="black" cx="2052" cy="-425.5" rx="72" ry="21.5"/>
<text text-anchor="middle" x="2052" y="-423" font-family="Arial" font-size="10.00">C&#45;0567</text>
</g>
<!-- C&#45;0254 -->
<g id="node22" class="node">
<title>C&#45;0254</title>
<ellipse fill="mediumseagreen" stroke="black" cx="2052" cy="-324.5" rx="72" ry="21.5"/>
<text text-anchor="middle" x="2052" y="-322" font-family="Arial" font-size="10.00">C&#45;0254</text>
</g>
<!-- C&#45;0567&#45;&gt;C&#45;0254 -->
<g id="edge14" class="edge">
<title>C&#45;0567&#45;&gt;C&#45;0254</title>
<path fill="none" stroke="#4d4d4d" d="M2052,-403.58C2052,-403.58 2052,-353.03 2052,-353.03"/>
<polygon fill="#4d4d4d" stroke="#4d4d4d" points="2054.45,-353.03 2052,-346.03 2049.55,-353.03 2054.45,-353.03"/>
</g>
<!-- S&#45;526 -->
<g id="node20" class="node">
<title>S&#45;526</title>
<polygon fill="mediumseagreen" stroke="black" points="1872,-750 1800,-728.5 1872,-707 1944,-728.5 1872,-750"/>
<text text-anchor="middle" x="1872" y="-726" font-family="Arial" font-size="10.00">S&#45;526</text>
</g>
<!-- C&#45;1027 -->
<g id="node21" class="node">
<title>C&#45;1027</title>
<ellipse fill="tomato" stroke="black" cx="1152" cy="-728.5" rx="72" ry="21.5"/>
<text text-anchor="middle" x="1152" y="-726" font-family="Arial" font-size="10.00">C&#45;1027</text>
</g>
<!-- C&#45;1029 -->
<g id="node25" class="node">
<title>C&#45;1029</title>
<ellipse fill="mediumseagreen" stroke="black" cx="972" cy="-526.5" rx="72" ry="21.5"/>
<text text-anchor="middle" x="972" y="-524" font-family="Arial" font-size="10.00">C&#45;1029</text>
</g>
<!-- C&#45;1027&#45;&gt;C&#45;1029 -->
<g id="edge52" class="edge">
<title>C&#45;1027&#45;&gt;C&#45;1029</title>
<path fill="none" stroke="blue" stroke-dasharray="5,2" d="M1128,-707.95C1128,-657.75 1128,-533 1128,-533 1128,-533 1047.88,-533 1047.88,-533"/>
<polygon fill="blue" stroke="blue" points="1047.88,-530.55 1040.88,-533 1047.88,-535.45 1047.88,-530.55"/>
</g>
<!-- C&#45;0255 -->
<g id="node40" class="node">
<title>C&#45;0255</title>
<ellipse fill="tomato" stroke="black" cx="1962" cy="-223.5" rx="72" ry="21.5"/>
<text text-anchor="middle" x="1962" y="-221" font-family="Arial" font-size="10.00">C&#45;0255</text>
</g>
<!-- C&#45;0254&#45;&gt;C&#45;0255 -->
<g id="edge16" class="edge">
<title>C&#45;0254&#45;&gt;C&#45;0255</title>
<path fill="none" stroke="#4d4d4d" d="M2007,-307.37C2007,-307.37 2007,-247.38 2007,-247.38"/>
<polygon fill="#4d4d4d" stroke="#4d4d4d" points="2009.45,-247.38 2007,-240.38 2004.55,-247.38 2009.45,-247.38"/>
</g>
<!-- S&#45;630 -->
<g id="node45" class="node">
<title>S&#45;630</title>
<polygon fill="mediumseagreen" stroke="black" points="2142,-245 2070,-223.5 2142,-202 2214,-223.5 2142,-245"/>
<text text-anchor="middle" x="2142" y="-221" font-family="Arial" font-size="10.00">S&#45;630</text>
</g>
<!-- C&#45;0254&#45;&gt;S&#45;630 -->
<g id="edge15" class="edge">
<title>C&#45;0254&#45;&gt;S&#45;630</title>
<path fill="none" stroke="#4d4d4d" d="M2097,-307.37C2097,-307.37 2097,-238.78 2097,-238.78"/>
<polygon fill="#4d4d4d" stroke="#4d4d4d" points="2099.45,-238.78 2097,-231.78 2094.55,-238.78 2099.45,-238.78"/>
</g>
<!-- S&#45;1184 -->
<g id="node42" class="node">
<title>S&#45;1184</title>
<polygon fill="mediumseagreen" stroke="black" points="252,-245 180,-223.5 252,-202 324,-223.5 252,-245"/>
<text text-anchor="middle" x="252" y="-221" font-family="Arial" font-size="10.00">S&#45;1184</text>
</g>
<!-- C&#45;0257&#45;&gt;S&#45;1184 -->
<g id="edge40" class="edge">
<title>C&#45;0257&#45;&gt;S&#45;1184</title>
<path fill="none" stroke="#4d4d4d" d="M359.82,-324C309.75,-324 252,-324 252,-324 252,-324 252,-252.31 252,-252.31"/>
<polygon fill="#4d4d4d" stroke="#4d4d4d" points="254.45,-252.31 252,-245.31 249.55,-252.31 254.45,-252.31"/>
</g>
<!-- C&#45;0274 -->
<g id="node46" class="node">
<title>C&#45;0274</title>
<ellipse fill="mediumseagreen" stroke="black" cx="432" cy="-223.5" rx="72" ry="21.5"/>
<text text-anchor="middle" x="432" y="-221" font-family="Arial" font-size="10.00">C&#45;0274</text>
</g>
<!-- C&#45;0257&#45;&gt;C&#45;0274 -->
<g id="edge41" class="edge">
<title>C&#45;0257&#45;&gt;C&#45;0274</title>
<path fill="none" stroke="#4d4d4d" d="M432,-302.58C432,-302.58 432,-252.03 432,-252.03"/>
<polygon fill="#4d4d4d" stroke="#4d4d4d" points="434.45,-252.03 432,-245.03 429.55,-252.03 434.45,-252.03"/>
</g>
<!-- C&#45;1029&#45;&gt;C&#45;0256 -->
<g id="edge38" class="edge">
<title>C&#45;1029&#45;&gt;C&#45;0256</title>
<path fill="none" stroke="#4d4d4d" d="M900.01,-526C794.96,-526 612,-526 612,-526 612,-526 612,-454.31 612,-454.31"/>
<polygon fill="#4d4d4d" stroke="#4d4d4d" points="614.45,-454.31 612,-447.31 609.55,-454.31 614.45,-454.31"/>
</g>
<!-- C&#45;1029&#45;&gt;C&#45;0259 -->
<g id="edge29" class="edge">
<title>C&#45;1029&#45;&gt;C&#45;0259</title>
<path fill="none" stroke="#4d4d4d" d="M972,-504.58C972,-504.58 972,-454.03 972,-454.03"/>
<polygon fill="#4d4d4d" stroke="#4d4d4d" points="974.45,-454.03 972,-447.03 969.55,-454.03 974.45,-454.03"/>
</g>
<!-- S&#45;2054 -->
<g id="node43" class="node">
<title>S&#45;2054</title>
<polygon fill="mediumseagreen" stroke="black" points="1152,-447 1080,-425.5 1152,-404 1224,-425.5 1152,-447"/>
<text text-anchor="middle" x="1152" y="-423" font-family="Arial" font-size="10.00">S&#45;2054</text>
</g>
<!-- C&#45;1029&#45;&gt;S&#45;2054 -->
<g id="edge28" class="edge">
<title>C&#45;1029&#45;&gt;S&#45;2054</title>
<path fill="none" stroke="#4d4d4d" d="M1039.65,-519C1099.03,-519 1176,-519 1176,-519 1176,-519 1176,-447.11 1176,-447.11"/>
<polygon fill="#4d4d4d" stroke="#4d4d4d" points="1178.45,-447.11 1176,-440.11 1173.55,-447.11 1178.45,-447.11"/>
</g>
<!-- ext_circ_111_24_ -->
<g id="node49" class="node">
<title>ext_circ_111_24_</title>
<polygon fill="lightpink" stroke="darkorange" stroke-dasharray="5,2" points="1021,-1259 877,-1259 877,-1216 1021,-1216 1021,-1259"/>
<text text-anchor="middle" x="949" y="-1240.5" font-family="Arial" font-size="10.00">Circuito:</text>
<text text-anchor="middle" x="949" y="-1229.5" font-family="Arial" font-size="10.00">111&#45;24&#45;</text>
</g>
<!-- R&#45;267&#45;&gt;ext_circ_111_24_ -->
<g id="edge51" class="edge">
<title>R&#45;267&#45;&gt;ext_circ_111_24_</title>
<path fill="none" stroke="darkorange" stroke-dasharray="5,2" d="M1439.87,-627C1310.41,-627 1052,-627 1052,-627 1052,-627 1052,-1237 1052,-1237 1052,-1237 1028.1,-1237 1028.1,-1237"/>
<polygon fill="darkorange" stroke="darkorange" points="1028.1,-1234.55 1021.1,-1237 1028.1,-1239.45 1028.1,-1234.55"/>
</g>
<!-- C&#45;0565 -->
<g id="node27" class="node">
<title>C&#45;0565</title>
<ellipse fill="tomato" stroke="black" cx="2232" cy="-627.5" rx="72" ry="21.5"/>
<text text-anchor="middle" x="2232" y="-625" font-family="Arial" font-size="10.00">C&#45;0565</text>
</g>
<!-- C&#45;0565&#45;&gt;C&#45;0567 -->
<g id="edge48" class="edge">
<title>C&#45;0565&#45;&gt;C&#45;0567</title>
<path fill="none" stroke="blue" stroke-dasharray="5,2" d="M2187,-610.58C2187,-561.91 2187,-425 2187,-425 2187,-425 2131.24,-425 2131.24,-425"/>
<polygon fill="blue" stroke="blue" points="2131.24,-422.55 2124.24,-425 2131.24,-427.45 2131.24,-422.55"/>
</g>
<!-- 316&#45;22 -->
<g id="node28" class="node">
<title>316&#45;22</title>
<polygon fill="gold" stroke="black" points="1224,-1228.59 1224,-1246.41 1181.82,-1259 1122.18,-1259 1080,-1246.41 1080,-1228.59 1122.18,-1216 1181.82,-1216 1224,-1228.59"/>
<polygon fill="none" stroke="black" points="1228,-1225.61 1228,-1249.39 1182.41,-1263 1121.59,-1263 1076,-1249.39 1076,-1225.61 1121.59,-1212 1182.41,-1212 1228,-1225.61"/>
<text text-anchor="middle" x="1152" y="-1235" font-family="Arial" font-size="10.00">316&#45;22</text>
</g>
<!-- 316&#45;22&#45;&gt;C&#45;0323 -->
<g id="edge1" class="edge">
<title>316&#45;22&#45;&gt;C&#45;0323</title>
<path fill="none" stroke="#4d4d4d" d="M1152,-1211.81C1152,-1211.81 1152,-1161.03 1152,-1161.03"/>
<polygon fill="#4d4d4d" stroke="#4d4d4d" points="1154.45,-1161.03 1152,-1154.03 1149.55,-1161.03 1154.45,-1161.03"/>
</g>
<!-- C&#45;0233&#45;&gt;C&#45;0234 -->
<g id="edge53" class="edge">
<title>C&#45;0233&#45;&gt;C&#45;0234</title>
<path fill="none" stroke="blue" stroke-dasharray="5,2" d="M972,-202C972,-184.61 972,-163 972,-163 972,-163 252,-163 252,-163 252,-163 252,-151.17 252,-151.17"/>
<polygon fill="blue" stroke="blue" points="254.45,-151.17 252,-144.17 249.55,-151.17 254.45,-151.17"/>
</g>
<!-- S&#45;782 -->
<g id="node30" class="node">
<title>S&#45;782</title>
<polygon fill="mediumseagreen" stroke="black" points="1152,-851 1080,-829.5 1152,-808 1224,-829.5 1152,-851"/>
<text text-anchor="middle" x="1152" y="-827" font-family="Arial" font-size="10.00">S&#45;782</text>
</g>
<!-- S&#45;782&#45;&gt;C&#45;1028 -->
<g id="edge24" class="edge">
<title>S&#45;782&#45;&gt;C&#45;1028</title>
<path fill="none" stroke="#4d4d4d" d="M1081.34,-829C1068.98,-829 1060,-829 1060,-829 1060,-829 1060,-728 1060,-728 1060,-728 1051.27,-728 1051.27,-728"/>
<polygon fill="#4d4d4d" stroke="#4d4d4d" points="1051.27,-725.55 1044.27,-728 1051.27,-730.45 1051.27,-725.55"/>
</g>
<!-- S&#45;782&#45;&gt;C&#45;1027 -->
<g id="edge25" class="edge">
<title>S&#45;782&#45;&gt;C&#45;1027</title>
<path fill="none" stroke="#4d4d4d" d="M1152,-807.58C1152,-807.58 1152,-757.03 1152,-757.03"/>
<polygon fill="#4d4d4d" stroke="#4d4d4d" points="1154.45,-757.03 1152,-750.03 1149.55,-757.03 1154.45,-757.03"/>
</g>
<!-- S&#45;1944 -->
<g id="node31" class="node">
<title>S&#45;1944</title>
<polygon fill="mediumseagreen" stroke="black" points="612,-144 540,-122.5 612,-101 684,-122.5 612,-144"/>
<text text-anchor="middle" x="612" y="-120" font-family="Arial" font-size="10.00">S&#45;1944</text>
</g>
<!-- S&#45;629 -->
<g id="node32" class="node">
<title>S&#45;629</title>
<polygon fill="mediumseagreen" stroke="black" points="2052,-750 1980,-728.5 2052,-707 2124,-728.5 2052,-750"/>
<text text-anchor="middle" x="2052" y="-726" font-family="Arial" font-size="10.00">S&#45;629</text>
</g>
<!-- S&#45;629&#45;&gt;S&#45;2427 -->
<g id="edge9" class="edge">
<title>S&#45;629&#45;&gt;S&#45;2427</title>
<path fill="none" stroke="#4d4d4d" d="M1981.53,-728C1970.14,-728 1962,-728 1962,-728 1962,-728 1962,-627 1962,-627 1962,-627 1949.47,-627 1949.47,-627"/>
<polygon fill="#4d4d4d" stroke="#4d4d4d" points="1949.47,-624.55 1942.47,-627 1949.47,-629.45 1949.47,-624.55"/>
</g>
<!-- S&#45;629&#45;&gt;C&#45;0566 -->
<g id="edge11" class="edge">
<title>S&#45;629&#45;&gt;C&#45;0566</title>
<path fill="none" stroke="#4d4d4d" d="M2052,-706.58C2052,-706.58 2052,-656.03 2052,-656.03"/>
<polygon fill="#4d4d4d" stroke="#4d4d4d" points="2054.45,-656.03 2052,-649.03 2049.55,-656.03 2054.45,-656.03"/>
</g>
<!-- S&#45;629&#45;&gt;C&#45;0565 -->
<g id="edge10" class="edge">
<title>S&#45;629&#45;&gt;C&#45;0565</title>
<path fill="none" stroke="#4d4d4d" d="M2122.47,-728C2133.86,-728 2142,-728 2142,-728 2142,-728 2142,-627 2142,-627 2142,-627 2152.78,-627 2152.78,-627"/>
<polygon fill="#4d4d4d" stroke="#4d4d4d" points="2152.78,-629.45 2159.78,-627 2152.78,-624.55 2152.78,-629.45"/>
</g>
<!-- S&#45;691 -->
<g id="node33" class="node">
<title>S&#45;691</title>
<polygon fill="mediumseagreen" stroke="black" points="1872,-851 1800,-829.5 1872,-808 1944,-829.5 1872,-851"/>
<text text-anchor="middle" x="1872" y="-827" font-family="Arial" font-size="10.00">S&#45;691</text>
</g>
<!-- S&#45;691&#45;&gt;C&#45;1089 -->
<g id="edge19" class="edge">
<title>S&#45;691&#45;&gt;C&#45;1089</title>
<path fill="none" stroke="#4d4d4d" d="M1801.31,-829C1696.46,-829 1512,-829 1512,-829 1512,-829 1512,-757.31 1512,-757.31"/>
<polygon fill="#4d4d4d" stroke="#4d4d4d" points="1514.45,-757.31 1512,-750.31 1509.55,-757.31 1514.45,-757.31"/>
</g>
<!-- S&#45;691&#45;&gt;S&#45;628 -->
<g id="edge17" class="edge">
<title>S&#45;691&#45;&gt;S&#45;628</title>
<path fill="none" stroke="#4d4d4d" d="M1838.14,-818C1786,-818 1692,-818 1692,-818 1692,-818 1692,-757.17 1692,-757.17"/>
<polygon fill="#4d4d4d" stroke="#4d4d4d" points="1694.45,-757.17 1692,-750.17 1689.55,-757.17 1694.45,-757.17"/>
</g>
<!-- S&#45;691&#45;&gt;S&#45;526 -->
<g id="edge7" class="edge">
<title>S&#45;691&#45;&gt;S&#45;526</title>
<path fill="none" stroke="#4d4d4d" d="M1872,-807.58C1872,-807.58 1872,-757.03 1872,-757.03"/>
<polygon fill="#4d4d4d" stroke="#4d4d4d" points="1874.45,-757.03 1872,-750.03 1869.55,-757.03 1874.45,-757.03"/>
</g>
<!-- S&#45;691&#45;&gt;S&#45;629 -->
<g id="edge8" class="edge">
<title>S&#45;691&#45;&gt;S&#45;629</title>
<path fill="none" stroke="#4d4d4d" d="M1898.95,-816C1949.16,-816 2052,-816 2052,-816 2052,-816 2052,-757.13 2052,-757.13"/>
<polygon fill="#4d4d4d" stroke="#4d4d4d" points="2054.45,-757.13 2052,-750.13 2049.55,-757.13 2054.45,-757.13"/>
</g>
<!-- S&#45;1866 -->
<g id="node37" class="node">
<title>S&#45;1866</title>
<polygon fill="mediumseagreen" stroke="black" points="2232,-750 2160,-728.5 2232,-707 2304,-728.5 2232,-750"/>
<text text-anchor="middle" x="2232" y="-726" font-family="Arial" font-size="10.00">S&#45;1866</text>
</g>
<!-- S&#45;691&#45;&gt;S&#45;1866 -->
<g id="edge5" class="edge">
<title>S&#45;691&#45;&gt;S&#45;1866</title>
<path fill="none" stroke="#4d4d4d" d="M1929.04,-825C2030.55,-825 2232,-825 2232,-825 2232,-825 2232,-757.4 2232,-757.4"/>
<polygon fill="#4d4d4d" stroke="#4d4d4d" points="2234.45,-757.4 2232,-750.4 2229.55,-757.4 2234.45,-757.4"/>
</g>
<!-- C&#45;0004 -->
<g id="node38" class="node">
<title>C&#45;0004</title>
<ellipse fill="tomato" stroke="black" cx="1332" cy="-728.5" rx="72" ry="21.5"/>
<text text-anchor="middle" x="1332" y="-726" font-family="Arial" font-size="10.00">C&#45;0004</text>
</g>
<!-- S&#45;691&#45;&gt;C&#45;0004 -->
<g id="edge18" class="edge">
<title>S&#45;691&#45;&gt;C&#45;0004</title>
<path fill="none" stroke="#4d4d4d" d="M1834.89,-840C1716.58,-840 1356,-840 1356,-840 1356,-840 1356,-755.95 1356,-755.95"/>
<polygon fill="#4d4d4d" stroke="#4d4d4d" points="1358.45,-755.95 1356,-748.95 1353.55,-755.95 1358.45,-755.95"/>
</g>
<!-- S&#45;525 -->
<g id="node41" class="node">
<title>S&#45;525</title>
<polygon fill="mediumseagreen" stroke="black" points="2412,-750 2340,-728.5 2412,-707 2484,-728.5 2412,-750"/>
<text text-anchor="middle" x="2412" y="-726" font-family="Arial" font-size="10.00">S&#45;525</text>
</g>
<!-- S&#45;691&#45;&gt;S&#45;525 -->
<g id="edge21" class="edge">
<title>S&#45;691&#45;&gt;S&#45;525</title>
<path fill="none" stroke="#4d4d4d" d="M1932.37,-833C2073.28,-833 2412,-833 2412,-833 2412,-833 2412,-757.15 2412,-757.15"/>
<polygon fill="#4d4d4d" stroke="#4d4d4d" points="2414.45,-757.15 2412,-750.15 2409.55,-757.15 2414.45,-757.15"/>
</g>
<!-- S&#45;2110 -->
<g id="node48" class="node">
<title>S&#45;2110</title>
<polygon fill="mediumseagreen" stroke="black" points="2592,-750 2520,-728.5 2592,-707 2664,-728.5 2592,-750"/>
<text text-anchor="middle" x="2592" y="-726" font-family="Arial" font-size="10.00">S&#45;2110</text>
</g>
<!-- S&#45;691&#45;&gt;S&#45;2110 -->
<g id="edge6" class="edge">
<title>S&#45;691&#45;&gt;S&#45;2110</title>
<path fill="none" stroke="#4d4d4d" d="M1902.48,-842C2039.52,-842 2592,-842 2592,-842 2592,-842 2592,-757.12 2592,-757.12"/>
<polygon fill="#4d4d4d" stroke="#4d4d4d" points="2594.45,-757.12 2592,-750.12 2589.55,-757.12 2594.45,-757.12"/>
</g>
<!-- C&#45;0324&#45;&gt;S&#45;1712 -->
<g id="edge22" class="edge">
<title>C&#45;0324&#45;&gt;S&#45;1712</title>
<path fill="none" stroke="#4d4d4d" d="M1079.73,-930C1054.56,-930 1032.5,-930 1032.5,-930 1032.5,-930 1032.5,-840.32 1032.5,-840.32"/>
<polygon fill="#4d4d4d" stroke="#4d4d4d" points="1034.95,-840.32 1032.5,-833.32 1030.05,-840.32 1034.95,-840.32"/>
</g>
<!-- C&#45;0324&#45;&gt;S&#45;782 -->
<g id="edge23" class="edge">
<title>C&#45;0324&#45;&gt;S&#45;782</title>
<path fill="none" stroke="#4d4d4d" d="M1152,-908.58C1152,-908.58 1152,-858.03 1152,-858.03"/>
<polygon fill="#4d4d4d" stroke="#4d4d4d" points="1154.45,-858.03 1152,-851.03 1149.55,-858.03 1154.45,-858.03"/>
</g>
<!-- C&#45;0324&#45;&gt;S&#45;691 -->
<g id="edge4" class="edge">
<title>C&#45;0324&#45;&gt;S&#45;691</title>
<path fill="none" stroke="#4d4d4d" d="M1224,-930C1406.35,-930 1872,-930 1872,-930 1872,-930 1872,-858.31 1872,-858.31"/>
<polygon fill="#4d4d4d" stroke="#4d4d4d" points="1874.45,-858.31 1872,-851.31 1869.55,-858.31 1874.45,-858.31"/>
</g>
<!-- C&#45;0004&#45;&gt;ext_circ_111_24_ -->
<g id="edge50" class="edge">
<title>C&#45;0004&#45;&gt;ext_circ_111_24_</title>
<path fill="none" stroke="darkorange" stroke-dasharray="5,2" d="M1308,-748.93C1308,-790.28 1308,-880 1308,-880 1308,-880 960.5,-880 960.5,-880 960.5,-880 960.5,-1208.94 960.5,-1208.94"/>
<polygon fill="darkorange" stroke="darkorange" points="958.05,-1208.94 960.5,-1215.94 962.95,-1208.94 958.05,-1208.94"/>
</g>
<!-- C&#45;0255&#45;&gt;S&#45;2263 -->
<g id="edge49" class="edge">
<title>C&#45;0255&#45;&gt;S&#45;2263</title>
<path fill="none" stroke="blue" stroke-dasharray="5,2" d="M1962,-201.78C1962,-191.74 1962,-182 1962,-182 1962,-182 48,-182 48,-182 48,-182 48,-43.03 48,-43.03"/>
<polygon fill="blue" stroke="blue" points="50.45,-43.03 48,-36.03 45.55,-43.03 50.45,-43.03"/>
</g>
<!-- R&#45;122&#45;&gt;C&#45;0567 -->
<g id="edge13" class="edge">
<title>R&#45;122&#45;&gt;C&#45;0567</title>
<path fill="none" stroke="#4d4d4d" d="M2052,-504.58C2052,-504.58 2052,-454.03 2052,-454.03"/>
<polygon fill="#4d4d4d" stroke="#4d4d4d" points="2054.45,-454.03 2052,-447.03 2049.55,-454.03 2054.45,-454.03"/>
</g>
<!-- C&#45;0274&#45;&gt;C&#45;0234 -->
<g id="edge44" class="edge">
<title>C&#45;0274&#45;&gt;C&#45;0234</title>
<path fill="none" stroke="#4d4d4d" d="M359.73,-223C346.09,-223 336,-223 336,-223 336,-223 336,-129 336,-129 336,-129 327.98,-129 327.98,-129"/>
<polygon fill="#4d4d4d" stroke="#4d4d4d" points="327.98,-126.55 320.98,-129 327.98,-131.45 327.98,-126.55"/>
</g>
<!-- C&#45;0274&#45;&gt;S&#45;2015 -->
<g id="edge43" class="edge">
<title>C&#45;0274&#45;&gt;S&#45;2015</title>
<path fill="none" stroke="#4d4d4d" d="M432,-201.58C432,-201.58 432,-151.03 432,-151.03"/>
<polygon fill="#4d4d4d" stroke="#4d4d4d" points="434.45,-151.03 432,-144.03 429.55,-151.03 434.45,-151.03"/>
</g>
<!-- C&#45;0274&#45;&gt;S&#45;1944 -->
<g id="edge42" class="edge">
<title>C&#45;0274&#45;&gt;S&#45;1944</title>
<path fill="none" stroke="#4d4d4d" d="M504.22,-223C514.68,-223 522,-223 522,-223 522,-223 522,-122 522,-122 522,-122 534.53,-122 534.53,-122"/>
<polygon fill="#4d4d4d" stroke="#4d4d4d" points="534.53,-124.45 541.53,-122 534.53,-119.55 534.53,-124.45"/>
</g>
<!-- R&#45;045&#45;&gt;C&#45;1029 -->
<g id="edge27" class="edge">
<title>R&#45;045&#45;&gt;C&#45;1029</title>
<path fill="none" stroke="#4d4d4d" d="M972,-605.58C972,-605.58 972,-555.03 972,-555.03"/>
<polygon fill="#4d4d4d" stroke="#4d4d4d" points="974.45,-555.03 972,-548.03 969.55,-555.03 974.45,-555.03"/>
</g>
</g>
</svg>
