<?xml version="1.0" encoding="UTF-8" standalone="no"?>
<!DOCTYPE svg PUBLIC "-//W3C//DTD SVG 1.1//EN"
 "http://www.w3.org/Graphics/SVG/1.1/DTD/svg11.dtd">
<!-- Generated by graphviz version 2.50.0 (0)
 -->
<!-- Title: Grafo_Circuito_113_23_ Pages: 1 -->
<svg width="2762pt" height="1372pt"
 viewBox="0.00 0.00 2762.00 1372.00" xmlns="http://www.w3.org/2000/svg" xmlns:xlink="http://www.w3.org/1999/xlink">
<g id="graph0" class="graph" transform="scale(1 1) rotate(0) translate(4 1368)">
<title>Grafo_Circuito_113_23_</title>
<polygon fill="white" stroke="transparent" points="-4,4 -4,-1368 2758,-1368 2758,4 -4,4"/>
<!-- C&#45;0523 -->
<g id="node1" class="node">
<title>C&#45;0523</title>
<ellipse fill="mediumseagreen" stroke="black" cx="1152" cy="-1031.5" rx="72" ry="21.5"/>
<text text-anchor="middle" x="1152" y="-1029" font-family="Arial" font-size="10.00">C&#45;0523</text>
</g>
<!-- R&#45;027 -->
<g id="node51" class="node">
<title>R&#45;027</title>
<polygon fill="mediumseagreen" stroke="black" points="1224,-921.59 1224,-939.41 1181.82,-952 1122.18,-952 1080,-939.41 1080,-921.59 1122.18,-909 1181.82,-909 1224,-921.59"/>
<text text-anchor="middle" x="1152" y="-928" font-family="Arial" font-size="10.00">R&#45;027</text>
</g>
<!-- C&#45;0523&#45;&gt;R&#45;027 -->
<g id="edge7" class="edge">
<title>C&#45;0523&#45;&gt;R&#45;027</title>
<path fill="none" stroke="#4d4d4d" d="M1152,-1009.58C1152,-1009.58 1152,-959.03 1152,-959.03"/>
<polygon fill="#4d4d4d" stroke="#4d4d4d" points="1154.45,-959.03 1152,-952.03 1149.55,-959.03 1154.45,-959.03"/>
</g>
<!-- C&#45;0640 -->
<g id="node2" class="node">
<title>C&#45;0640</title>
<ellipse fill="mediumseagreen" stroke="black" cx="2232" cy="-223.5" rx="72" ry="21.5"/>
<text text-anchor="middle" x="2232" y="-221" font-family="Arial" font-size="10.00">C&#45;0640</text>
</g>
<!-- S&#45;107 -->
<g id="node17" class="node">
<title>S&#45;107</title>
<polygon fill="mediumseagreen" stroke="black" points="2232,-144 2160,-122.5 2232,-101 2304,-122.5 2232,-144"/>
<text text-anchor="middle" x="2232" y="-120" font-family="Arial" font-size="10.00">S&#45;107</text>
</g>
<!-- C&#45;0640&#45;&gt;S&#45;107 -->
<g id="edge33" class="edge">
<title>C&#45;0640&#45;&gt;S&#45;107</title>
<path fill="none" stroke="#4d4d4d" d="M2232,-201.58C2232,-201.58 2232,-151.03 2232,-151.03"/>
<polygon fill="#4d4d4d" stroke="#4d4d4d" points="2234.45,-151.03 2232,-144.03 2229.55,-151.03 2234.45,-151.03"/>
</g>
<!-- S&#45;776 -->
<g id="node34" class="node">
<title>S&#45;776</title>
<polygon fill="mediumseagreen" stroke="black" points="2412,-144 2340,-122.5 2412,-101 2484,-122.5 2412,-144"/>
<text text-anchor="middle" x="2412" y="-120" font-family="Arial" font-size="10.00">S&#45;776</text>
</g>
<!-- C&#45;0640&#45;&gt;S&#45;776 -->
<g id="edge27" class="edge">
<title>C&#45;0640&#45;&gt;S&#45;776</title>
<path fill="none" stroke="#4d4d4d" d="M2304.21,-223C2362.89,-223 2436,-223 2436,-223 2436,-223 2436,-143.9 2436,-143.9"/>
<polygon fill="#4d4d4d" stroke="#4d4d4d" points="2438.45,-143.9 2436,-136.9 2433.55,-143.9 2438.45,-143.9"/>
</g>
<!-- S&#45;1894 -->
<g id="node47" class="node">
<title>S&#45;1894</title>
<polygon fill="mediumseagreen" stroke="black" points="2052,-144 1980,-122.5 2052,-101 2124,-122.5 2052,-144"/>
<text text-anchor="middle" x="2052" y="-120" font-family="Arial" font-size="10.00">S&#45;1894</text>
</g>
<!-- C&#45;0640&#45;&gt;S&#45;1894 -->
<g id="edge32" class="edge">
<title>C&#45;0640&#45;&gt;S&#45;1894</title>
<path fill="none" stroke="#4d4d4d" d="M2159.82,-223C2109.75,-223 2052,-223 2052,-223 2052,-223 2052,-151.31 2052,-151.31"/>
<polygon fill="#4d4d4d" stroke="#4d4d4d" points="2054.45,-151.31 2052,-144.31 2049.55,-151.31 2054.45,-151.31"/>
</g>
<!-- C&#45;0947 -->
<g id="node3" class="node">
<title>C&#45;0947</title>
<ellipse fill="mediumseagreen" stroke="black" cx="162" cy="-526.5" rx="72" ry="21.5"/>
<text text-anchor="middle" x="162" y="-524" font-family="Arial" font-size="10.00">C&#45;0947</text>
</g>
<!-- S&#45;1506 -->
<g id="node35" class="node">
<title>S&#45;1506</title>
<polygon fill="mediumseagreen" stroke="black" points="72,-447 0,-425.5 72,-404 144,-425.5 72,-447"/>
<text text-anchor="middle" x="72" y="-423" font-family="Arial" font-size="10.00">S&#45;1506</text>
</g>
<!-- C&#45;0947&#45;&gt;S&#45;1506 -->
<g id="edge50" class="edge">
<title>C&#45;0947&#45;&gt;S&#45;1506</title>
<path fill="none" stroke="#4d4d4d" d="M117,-509.37C117,-509.37 117,-440.78 117,-440.78"/>
<polygon fill="#4d4d4d" stroke="#4d4d4d" points="119.45,-440.78 117,-433.78 114.55,-440.78 119.45,-440.78"/>
</g>
<!-- C&#45;0826 -->
<g id="node38" class="node">
<title>C&#45;0826</title>
<ellipse fill="mediumseagreen" stroke="black" cx="252" cy="-425.5" rx="72" ry="21.5"/>
<text text-anchor="middle" x="252" y="-423" font-family="Arial" font-size="10.00">C&#45;0826</text>
</g>
<!-- C&#45;0947&#45;&gt;C&#45;0826 -->
<g id="edge51" class="edge">
<title>C&#45;0947&#45;&gt;C&#45;0826</title>
<path fill="none" stroke="#4d4d4d" d="M207,-509.37C207,-509.37 207,-449.38 207,-449.38"/>
<polygon fill="#4d4d4d" stroke="#4d4d4d" points="209.45,-449.38 207,-442.38 204.55,-449.38 209.45,-449.38"/>
</g>
<!-- C&#45;0292 -->
<g id="node4" class="node">
<title>C&#45;0292</title>
<ellipse fill="mediumseagreen" stroke="black" cx="2232" cy="-627.5" rx="72" ry="21.5"/>
<text text-anchor="middle" x="2232" y="-625" font-family="Arial" font-size="10.00">C&#45;0292</text>
</g>
<!-- C&#45;1041 -->
<g id="node7" class="node">
<title>C&#45;1041</title>
<ellipse fill="tomato" stroke="black" cx="2412" cy="-526.5" rx="72" ry="21.5"/>
<text text-anchor="middle" x="2412" y="-524" font-family="Arial" font-size="10.00">C&#45;1041</text>
</g>
<!-- C&#45;0292&#45;&gt;C&#45;1041 -->
<g id="edge22" class="edge">
<title>C&#45;0292&#45;&gt;C&#45;1041</title>
<path fill="none" stroke="#4d4d4d" d="M2304.18,-627C2354.25,-627 2412,-627 2412,-627 2412,-627 2412,-555.31 2412,-555.31"/>
<polygon fill="#4d4d4d" stroke="#4d4d4d" points="2414.45,-555.31 2412,-548.31 2409.55,-555.31 2414.45,-555.31"/>
</g>
<!-- C&#45;1042 -->
<g id="node8" class="node">
<title>C&#45;1042</title>
<ellipse fill="mediumseagreen" stroke="black" cx="2232" cy="-526.5" rx="72" ry="21.5"/>
<text text-anchor="middle" x="2232" y="-524" font-family="Arial" font-size="10.00">C&#45;1042</text>
</g>
<!-- C&#45;0292&#45;&gt;C&#45;1042 -->
<g id="edge23" class="edge">
<title>C&#45;0292&#45;&gt;C&#45;1042</title>
<path fill="none" stroke="#4d4d4d" d="M2232,-605.58C2232,-605.58 2232,-555.03 2232,-555.03"/>
<polygon fill="#4d4d4d" stroke="#4d4d4d" points="2234.45,-555.03 2232,-548.03 2229.55,-555.03 2234.45,-555.03"/>
</g>
<!-- C&#45;1217 -->
<g id="node5" class="node">
<title>C&#45;1217</title>
<ellipse fill="mediumseagreen" stroke="black" cx="1512" cy="-425.5" rx="72" ry="21.5"/>
<text text-anchor="middle" x="1512" y="-423" font-family="Arial" font-size="10.00">C&#45;1217</text>
</g>
<!-- R&#45;300 -->
<g id="node6" class="node">
<title>R&#45;300</title>
<polygon fill="tomato" stroke="black" points="1584,-315.59 1584,-333.41 1541.82,-346 1482.18,-346 1440,-333.41 1440,-315.59 1482.18,-303 1541.82,-303 1584,-315.59"/>
<text text-anchor="middle" x="1512" y="-322" font-family="Arial" font-size="10.00">R&#45;300</text>
</g>
<!-- C&#45;1217&#45;&gt;R&#45;300 -->
<g id="edge19" class="edge">
<title>C&#45;1217&#45;&gt;R&#45;300</title>
<path fill="none" stroke="#4d4d4d" d="M1512,-403.58C1512,-403.58 1512,-353.03 1512,-353.03"/>
<polygon fill="#4d4d4d" stroke="#4d4d4d" points="1514.45,-353.03 1512,-346.03 1509.55,-353.03 1514.45,-353.03"/>
</g>
<!-- ext_circ_109_25_ -->
<g id="node54" class="node">
<title>ext_circ_109_25_</title>
<polygon fill="lightpink" stroke="darkorange" stroke-dasharray="5,2" points="549,-1360 405,-1360 405,-1317 549,-1317 549,-1360"/>
<text text-anchor="middle" x="477" y="-1341.5" font-family="Arial" font-size="10.00">Circuito:</text>
<text text-anchor="middle" x="477" y="-1330.5" font-family="Arial" font-size="10.00">109&#45;25&#45;</text>
</g>
<!-- R&#45;300&#45;&gt;ext_circ_109_25_ -->
<g id="edge54" class="edge">
<title>R&#45;300&#45;&gt;ext_circ_109_25_</title>
<path fill="none" stroke="darkorange" stroke-dasharray="5,2" d="M1439.59,-324C1323.1,-324 1107,-324 1107,-324 1107,-324 1107,-769 1107,-769 1107,-769 522,-769 522,-769 522,-769 522,-1309.87 522,-1309.87"/>
<polygon fill="darkorange" stroke="darkorange" points="519.55,-1309.87 522,-1316.87 524.45,-1309.87 519.55,-1309.87"/>
</g>
<!-- C&#45;1040 -->
<g id="node28" class="node">
<title>C&#45;1040</title>
<ellipse fill="mediumseagreen" stroke="black" cx="2232" cy="-324.5" rx="72" ry="21.5"/>
<text text-anchor="middle" x="2232" y="-322" font-family="Arial" font-size="10.00">C&#45;1040</text>
</g>
<!-- C&#45;1041&#45;&gt;C&#45;1040 -->
<g id="edge55" class="edge">
<title>C&#45;1041&#45;&gt;C&#45;1040</title>
<path fill="none" stroke="blue" stroke-dasharray="5,2" d="M2388,-505.97C2388,-454.49 2388,-324 2388,-324 2388,-324 2311.06,-324 2311.06,-324"/>
<polygon fill="blue" stroke="blue" points="2311.06,-321.55 2304.06,-324 2311.06,-326.45 2311.06,-321.55"/>
</g>
<!-- R&#45;253 -->
<g id="node48" class="node">
<title>R&#45;253</title>
<polygon fill="mediumseagreen" stroke="black" points="2304,-416.59 2304,-434.41 2261.82,-447 2202.18,-447 2160,-434.41 2160,-416.59 2202.18,-404 2261.82,-404 2304,-416.59"/>
<text text-anchor="middle" x="2232" y="-423" font-family="Arial" font-size="10.00">R&#45;253</text>
</g>
<!-- C&#45;1042&#45;&gt;R&#45;253 -->
<g id="edge24" class="edge">
<title>C&#45;1042&#45;&gt;R&#45;253</title>
<path fill="none" stroke="#4d4d4d" d="M2232,-504.58C2232,-504.58 2232,-454.03 2232,-454.03"/>
<polygon fill="#4d4d4d" stroke="#4d4d4d" points="2234.45,-454.03 2232,-447.03 2229.55,-454.03 2234.45,-454.03"/>
</g>
<!-- S&#45;1899 -->
<g id="node9" class="node">
<title>S&#45;1899</title>
<polygon fill="mediumseagreen" stroke="black" points="702,-750 630,-728.5 702,-707 774,-728.5 702,-750"/>
<text text-anchor="middle" x="702" y="-726" font-family="Arial" font-size="10.00">S&#45;1899</text>
</g>
<!-- S&#45;1833 -->
<g id="node10" class="node">
<title>S&#45;1833</title>
<polygon fill="mediumseagreen" stroke="black" points="837,-649 765,-627.5 837,-606 909,-627.5 837,-649"/>
<text text-anchor="middle" x="837" y="-625" font-family="Arial" font-size="10.00">S&#45;1833</text>
</g>
<!-- C&#45;0400 -->
<g id="node11" class="node">
<title>C&#45;0400</title>
<ellipse fill="mediumseagreen" stroke="black" cx="432" cy="-829.5" rx="72" ry="21.5"/>
<text text-anchor="middle" x="432" y="-827" font-family="Arial" font-size="10.00">C&#45;0400</text>
</g>
<!-- C&#45;0400&#45;&gt;S&#45;1899 -->
<g id="edge45" class="edge">
<title>C&#45;0400&#45;&gt;S&#45;1899</title>
<path fill="none" stroke="#4d4d4d" d="M499.51,-822C565.78,-822 657,-822 657,-822 657,-822 657,-743.8 657,-743.8"/>
<polygon fill="#4d4d4d" stroke="#4d4d4d" points="659.45,-743.8 657,-736.8 654.55,-743.8 659.45,-743.8"/>
</g>
<!-- C&#45;0949 -->
<g id="node14" class="node">
<title>C&#45;0949</title>
<ellipse fill="mediumseagreen" stroke="black" cx="162" cy="-728.5" rx="72" ry="21.5"/>
<text text-anchor="middle" x="162" y="-726" font-family="Arial" font-size="10.00">C&#45;0949</text>
</g>
<!-- C&#45;0400&#45;&gt;C&#45;0949 -->
<g id="edge47" class="edge">
<title>C&#45;0400&#45;&gt;C&#45;0949</title>
<path fill="none" stroke="#4d4d4d" d="M360.01,-829C296.52,-829 214,-829 214,-829 214,-829 214,-750.76 214,-750.76"/>
<polygon fill="#4d4d4d" stroke="#4d4d4d" points="216.45,-750.76 214,-743.76 211.55,-750.76 216.45,-750.76"/>
</g>
<!-- C&#45;0104 -->
<g id="node31" class="node">
<title>C&#45;0104</title>
<ellipse fill="tomato" stroke="black" cx="522" cy="-728.5" rx="72" ry="21.5"/>
<text text-anchor="middle" x="522" y="-726" font-family="Arial" font-size="10.00">C&#45;0104</text>
</g>
<!-- C&#45;0400&#45;&gt;C&#45;0104 -->
<g id="edge44" class="edge">
<title>C&#45;0400&#45;&gt;C&#45;0104</title>
<path fill="none" stroke="#4d4d4d" d="M477,-812.37C477,-812.37 477,-752.38 477,-752.38"/>
<polygon fill="#4d4d4d" stroke="#4d4d4d" points="479.45,-752.38 477,-745.38 474.55,-752.38 479.45,-752.38"/>
</g>
<!-- C&#45;0948 -->
<g id="node42" class="node">
<title>C&#45;0948</title>
<ellipse fill="tomato" stroke="black" cx="342" cy="-728.5" rx="72" ry="21.5"/>
<text text-anchor="middle" x="342" y="-726" font-family="Arial" font-size="10.00">C&#45;0948</text>
</g>
<!-- C&#45;0400&#45;&gt;C&#45;0948 -->
<g id="edge46" class="edge">
<title>C&#45;0400&#45;&gt;C&#45;0948</title>
<path fill="none" stroke="#4d4d4d" d="M387,-812.37C387,-812.37 387,-752.38 387,-752.38"/>
<polygon fill="#4d4d4d" stroke="#4d4d4d" points="389.45,-752.38 387,-745.38 384.55,-752.38 389.45,-752.38"/>
</g>
<!-- S&#45;2226 -->
<g id="node12" class="node">
<title>S&#45;2226</title>
<polygon fill="mediumseagreen" stroke="black" points="1692,-548 1620,-526.5 1692,-505 1764,-526.5 1692,-548"/>
<text text-anchor="middle" x="1692" y="-524" font-family="Arial" font-size="10.00">S&#45;2226</text>
</g>
<!-- C&#45;0517 -->
<g id="node13" class="node">
<title>C&#45;0517</title>
<ellipse fill="mediumseagreen" stroke="black" cx="950" cy="-728.5" rx="72" ry="21.5"/>
<text text-anchor="middle" x="950" y="-726" font-family="Arial" font-size="10.00">C&#45;0517</text>
</g>
<!-- C&#45;0517&#45;&gt;S&#45;1833 -->
<g id="edge35" class="edge">
<title>C&#45;0517&#45;&gt;S&#45;1833</title>
<path fill="none" stroke="#4d4d4d" d="M901.25,-712.27C901.25,-712.27 901.25,-636.97 901.25,-636.97"/>
<polygon fill="#4d4d4d" stroke="#4d4d4d" points="903.7,-636.97 901.25,-629.97 898.8,-636.97 903.7,-636.97"/>
</g>
<!-- S&#45;1933 -->
<g id="node19" class="node">
<title>S&#45;1933</title>
<polygon fill="mediumseagreen" stroke="black" points="1017,-649 945,-627.5 1017,-606 1089,-627.5 1017,-649"/>
<text text-anchor="middle" x="1017" y="-625" font-family="Arial" font-size="10.00">S&#45;1933</text>
</g>
<!-- C&#45;0517&#45;&gt;S&#45;1933 -->
<g id="edge39" class="edge">
<title>C&#45;0517&#45;&gt;S&#45;1933</title>
<path fill="none" stroke="#4d4d4d" d="M983.5,-709.03C983.5,-709.03 983.5,-646.05 983.5,-646.05"/>
<polygon fill="#4d4d4d" stroke="#4d4d4d" points="985.95,-646.05 983.5,-639.05 981.05,-646.05 985.95,-646.05"/>
</g>
<!-- S&#45;2473 -->
<g id="node43" class="node">
<title>S&#45;2473</title>
<polygon fill="mediumseagreen" stroke="black" points="1197,-649 1125,-627.5 1197,-606 1269,-627.5 1197,-649"/>
<text text-anchor="middle" x="1197" y="-625" font-family="Arial" font-size="10.00">S&#45;2473</text>
</g>
<!-- C&#45;0517&#45;&gt;S&#45;2473 -->
<g id="edge38" class="edge">
<title>C&#45;0517&#45;&gt;S&#45;2473</title>
<path fill="none" stroke="#4d4d4d" d="M1020.42,-724C1080.76,-724 1158,-724 1158,-724 1158,-724 1158,-644.46 1158,-644.46"/>
<polygon fill="#4d4d4d" stroke="#4d4d4d" points="1160.45,-644.46 1158,-637.46 1155.55,-644.46 1160.45,-644.46"/>
</g>
<!-- S&#45;2474 -->
<g id="node44" class="node">
<title>S&#45;2474</title>
<polygon fill="mediumseagreen" stroke="black" points="477,-649 405,-627.5 477,-606 549,-627.5 477,-649"/>
<text text-anchor="middle" x="477" y="-625" font-family="Arial" font-size="10.00">S&#45;2474</text>
</g>
<!-- C&#45;0517&#45;&gt;S&#45;2474 -->
<g id="edge37" class="edge">
<title>C&#45;0517&#45;&gt;S&#45;2474</title>
<path fill="none" stroke="#4d4d4d" d="M885.75,-718.45C885.75,-706.17 885.75,-687 885.75,-687 885.75,-687 499.5,-687 499.5,-687 499.5,-687 499.5,-649.51 499.5,-649.51"/>
<polygon fill="#4d4d4d" stroke="#4d4d4d" points="501.95,-649.51 499.5,-642.51 497.05,-649.51 501.95,-649.51"/>
</g>
<!-- S&#45;1572 -->
<g id="node53" class="node">
<title>S&#45;1572</title>
<polygon fill="mediumseagreen" stroke="black" points="657,-649 585,-627.5 657,-606 729,-627.5 657,-649"/>
<text text-anchor="middle" x="657" y="-625" font-family="Arial" font-size="10.00">S&#45;1572</text>
</g>
<!-- C&#45;0517&#45;&gt;S&#45;1572 -->
<g id="edge36" class="edge">
<title>C&#45;0517&#45;&gt;S&#45;1572</title>
<path fill="none" stroke="#4d4d4d" d="M893.5,-715.07C893.5,-697.25 893.5,-668 893.5,-668 893.5,-668 679.5,-668 679.5,-668 679.5,-668 679.5,-649.58 679.5,-649.58"/>
<polygon fill="#4d4d4d" stroke="#4d4d4d" points="681.95,-649.58 679.5,-642.58 677.05,-649.58 681.95,-649.58"/>
</g>
<!-- R&#45;222 -->
<g id="node22" class="node">
<title>R&#45;222</title>
<polygon fill="mediumseagreen" stroke="black" points="234,-618.59 234,-636.41 191.82,-649 132.18,-649 90,-636.41 90,-618.59 132.18,-606 191.82,-606 234,-618.59"/>
<text text-anchor="middle" x="162" y="-625" font-family="Arial" font-size="10.00">R&#45;222</text>
</g>
<!-- C&#45;0949&#45;&gt;R&#45;222 -->
<g id="edge48" class="edge">
<title>C&#45;0949&#45;&gt;R&#45;222</title>
<path fill="none" stroke="#4d4d4d" d="M162,-706.58C162,-706.58 162,-656.03 162,-656.03"/>
<polygon fill="#4d4d4d" stroke="#4d4d4d" points="164.45,-656.03 162,-649.03 159.55,-656.03 164.45,-656.03"/>
</g>
<!-- S&#45;2367 -->
<g id="node15" class="node">
<title>S&#45;2367</title>
<polygon fill="mediumseagreen" stroke="black" points="1377,-649 1305,-627.5 1377,-606 1449,-627.5 1377,-649"/>
<text text-anchor="middle" x="1377" y="-625" font-family="Arial" font-size="10.00">S&#45;2367</text>
</g>
<!-- S&#45;599 -->
<g id="node32" class="node">
<title>S&#45;599</title>
<polygon fill="mediumseagreen" stroke="black" points="1332,-548 1260,-526.5 1332,-505 1404,-526.5 1332,-548"/>
<text text-anchor="middle" x="1332" y="-524" font-family="Arial" font-size="10.00">S&#45;599</text>
</g>
<!-- S&#45;2367&#45;&gt;S&#45;599 -->
<g id="edge20" class="edge">
<title>S&#45;2367&#45;&gt;S&#45;599</title>
<path fill="none" stroke="#4d4d4d" d="M1354.5,-612.6C1354.5,-612.6 1354.5,-548.46 1354.5,-548.46"/>
<polygon fill="#4d4d4d" stroke="#4d4d4d" points="1356.95,-548.46 1354.5,-541.46 1352.05,-548.46 1356.95,-548.46"/>
</g>
<!-- C&#45;0398 -->
<g id="node16" class="node">
<title>C&#45;0398</title>
<ellipse fill="tomato" stroke="black" cx="1332" cy="-1031.5" rx="72" ry="21.5"/>
<text text-anchor="middle" x="1332" y="-1029" font-family="Arial" font-size="10.00">C&#45;0398</text>
</g>
<!-- C&#45;0398&#45;&gt;C&#45;0400 -->
<g id="edge58" class="edge">
<title>C&#45;0398&#45;&gt;C&#45;0400</title>
<path fill="none" stroke="blue" stroke-dasharray="5,2" d="M1264.5,-1023.78C1264.5,-992.91 1264.5,-880 1264.5,-880 1264.5,-880 456,-880 456,-880 456,-880 456,-857.04 456,-857.04"/>
<polygon fill="blue" stroke="blue" points="458.45,-857.04 456,-850.04 453.55,-857.04 458.45,-857.04"/>
</g>
<!-- C&#45;0784 -->
<g id="node18" class="node">
<title>C&#45;0784</title>
<ellipse fill="mediumseagreen" stroke="black" cx="972" cy="-1233.5" rx="72" ry="21.5"/>
<text text-anchor="middle" x="972" y="-1231" font-family="Arial" font-size="10.00">C&#45;0784</text>
</g>
<!-- C&#45;0808 -->
<g id="node52" class="node">
<title>C&#45;0808</title>
<ellipse fill="mediumseagreen" stroke="black" cx="972" cy="-1132.5" rx="72" ry="21.5"/>
<text text-anchor="middle" x="972" y="-1130" font-family="Arial" font-size="10.00">C&#45;0808</text>
</g>
<!-- C&#45;0784&#45;&gt;C&#45;0808 -->
<g id="edge2" class="edge">
<title>C&#45;0784&#45;&gt;C&#45;0808</title>
<path fill="none" stroke="#4d4d4d" d="M972,-1211.58C972,-1211.58 972,-1161.03 972,-1161.03"/>
<polygon fill="#4d4d4d" stroke="#4d4d4d" points="974.45,-1161.03 972,-1154.03 969.55,-1161.03 974.45,-1161.03"/>
</g>
<!-- S&#45;889 -->
<g id="node20" class="node">
<title>S&#45;889</title>
<polygon fill="mediumseagreen" stroke="black" points="1872,-447 1800,-425.5 1872,-404 1944,-425.5 1872,-447"/>
<text text-anchor="middle" x="1872" y="-423" font-family="Arial" font-size="10.00">S&#45;889</text>
</g>
<!-- C&#45;1032 -->
<g id="node21" class="node">
<title>C&#45;1032</title>
<ellipse fill="mediumseagreen" stroke="black" cx="1557" cy="-627.5" rx="72" ry="21.5"/>
<text text-anchor="middle" x="1557" y="-625" font-family="Arial" font-size="10.00">C&#45;1032</text>
</g>
<!-- C&#45;0174 -->
<g id="node26" class="node">
<title>C&#45;0174</title>
<ellipse fill="mediumseagreen" stroke="black" cx="1512" cy="-526.5" rx="72" ry="21.5"/>
<text text-anchor="middle" x="1512" y="-524" font-family="Arial" font-size="10.00">C&#45;0174</text>
</g>
<!-- C&#45;1032&#45;&gt;C&#45;0174 -->
<g id="edge17" class="edge">
<title>C&#45;1032&#45;&gt;C&#45;0174</title>
<path fill="none" stroke="#4d4d4d" d="M1534.5,-607.06C1534.5,-607.06 1534.5,-554.26 1534.5,-554.26"/>
<polygon fill="#4d4d4d" stroke="#4d4d4d" points="1536.95,-554.26 1534.5,-547.26 1532.05,-554.26 1536.95,-554.26"/>
</g>
<!-- R&#45;222&#45;&gt;C&#45;0947 -->
<g id="edge49" class="edge">
<title>R&#45;222&#45;&gt;C&#45;0947</title>
<path fill="none" stroke="#4d4d4d" d="M162,-605.58C162,-605.58 162,-555.03 162,-555.03"/>
<polygon fill="#4d4d4d" stroke="#4d4d4d" points="164.45,-555.03 162,-548.03 159.55,-555.03 164.45,-555.03"/>
</g>
<!-- S&#45;896 -->
<g id="node23" class="node">
<title>S&#45;896</title>
<polygon fill="mediumseagreen" stroke="black" points="2502,-43 2430,-21.5 2502,0 2574,-21.5 2502,-43"/>
<text text-anchor="middle" x="2502" y="-19" font-family="Arial" font-size="10.00">S&#45;896</text>
</g>
<!-- R&#45;136 -->
<g id="node24" class="node">
<title>R&#45;136</title>
<polygon fill="mediumseagreen" stroke="black" points="504,-921.59 504,-939.41 461.82,-952 402.18,-952 360,-939.41 360,-921.59 402.18,-909 461.82,-909 504,-921.59"/>
<text text-anchor="middle" x="432" y="-928" font-family="Arial" font-size="10.00">R&#45;136</text>
</g>
<!-- R&#45;136&#45;&gt;C&#45;0400 -->
<g id="edge43" class="edge">
<title>R&#45;136&#45;&gt;C&#45;0400</title>
<path fill="none" stroke="#4d4d4d" d="M408,-908.58C408,-908.58 408,-857 408,-857"/>
<polygon fill="#4d4d4d" stroke="#4d4d4d" points="410.45,-857 408,-850 405.55,-857 410.45,-857"/>
</g>
<!-- C&#45;0522 -->
<g id="node25" class="node">
<title>C&#45;0522</title>
<ellipse fill="tomato" stroke="black" cx="1512" cy="-1031.5" rx="72" ry="21.5"/>
<text text-anchor="middle" x="1512" y="-1029" font-family="Arial" font-size="10.00">C&#45;0522</text>
</g>
<!-- C&#45;0521 -->
<g id="node41" class="node">
<title>C&#45;0521</title>
<ellipse fill="mediumseagreen" stroke="black" cx="1152" cy="-829.5" rx="72" ry="21.5"/>
<text text-anchor="middle" x="1152" y="-827" font-family="Arial" font-size="10.00">C&#45;0521</text>
</g>
<!-- C&#45;0522&#45;&gt;C&#45;0521 -->
<g id="edge53" class="edge">
<title>C&#45;0522&#45;&gt;C&#45;0521</title>
<path fill="none" stroke="blue" stroke-dasharray="5,2" d="M1443,-1025.22C1443,-991.04 1443,-829 1443,-829 1443,-829 1231.31,-829 1231.31,-829"/>
<polygon fill="blue" stroke="blue" points="1231.31,-826.55 1224.31,-829 1231.31,-831.45 1231.31,-826.55"/>
</g>
<!-- C&#45;0174&#45;&gt;C&#45;1217 -->
<g id="edge18" class="edge">
<title>C&#45;0174&#45;&gt;C&#45;1217</title>
<path fill="none" stroke="#4d4d4d" d="M1512,-504.58C1512,-504.58 1512,-454.03 1512,-454.03"/>
<polygon fill="#4d4d4d" stroke="#4d4d4d" points="1514.45,-454.03 1512,-447.03 1509.55,-454.03 1514.45,-454.03"/>
</g>
<!-- 113&#45;23&#45; -->
<g id="node27" class="node">
<title>113&#45;23&#45;</title>
<polygon fill="gold" stroke="black" points="1044,-1329.59 1044,-1347.41 1001.82,-1360 942.18,-1360 900,-1347.41 900,-1329.59 942.18,-1317 1001.82,-1317 1044,-1329.59"/>
<polygon fill="none" stroke="black" points="1048,-1326.61 1048,-1350.39 1002.41,-1364 941.59,-1364 896,-1350.39 896,-1326.61 941.59,-1313 1002.41,-1313 1048,-1326.61"/>
<text text-anchor="middle" x="972" y="-1336" font-family="Arial" font-size="10.00">113&#45;23&#45;</text>
</g>
<!-- 113&#45;23&#45;&#45;&gt;C&#45;0784 -->
<g id="edge1" class="edge">
<title>113&#45;23&#45;&#45;&gt;C&#45;0784</title>
<path fill="none" stroke="#4d4d4d" d="M972,-1312.81C972,-1312.81 972,-1262.03 972,-1262.03"/>
<polygon fill="#4d4d4d" stroke="#4d4d4d" points="974.45,-1262.03 972,-1255.03 969.55,-1262.03 974.45,-1262.03"/>
</g>
<!-- C&#45;1040&#45;&gt;C&#45;0640 -->
<g id="edge26" class="edge">
<title>C&#45;1040&#45;&gt;C&#45;0640</title>
<path fill="none" stroke="#4d4d4d" d="M2232,-302.58C2232,-302.58 2232,-252.03 2232,-252.03"/>
<polygon fill="#4d4d4d" stroke="#4d4d4d" points="2234.45,-252.03 2232,-245.03 2229.55,-252.03 2234.45,-252.03"/>
</g>
<!-- S&#45;2404 -->
<g id="node29" class="node">
<title>S&#45;2404</title>
<polygon fill="mediumseagreen" stroke="black" points="2682,-43 2610,-21.5 2682,0 2754,-21.5 2682,-43"/>
<text text-anchor="middle" x="2682" y="-19" font-family="Arial" font-size="10.00">S&#45;2404</text>
</g>
<!-- S&#45;2174 -->
<g id="node30" class="node">
<title>S&#45;2174</title>
<polygon fill="mediumseagreen" stroke="black" points="1872,-548 1800,-526.5 1872,-505 1944,-526.5 1872,-548"/>
<text text-anchor="middle" x="1872" y="-524" font-family="Arial" font-size="10.00">S&#45;2174</text>
</g>
<!-- S&#45;2174&#45;&gt;S&#45;889 -->
<g id="edge14" class="edge">
<title>S&#45;2174&#45;&gt;S&#45;889</title>
<path fill="none" stroke="#4d4d4d" d="M1872,-504.58C1872,-504.58 1872,-454.03 1872,-454.03"/>
<polygon fill="#4d4d4d" stroke="#4d4d4d" points="1874.45,-454.03 1872,-447.03 1869.55,-454.03 1874.45,-454.03"/>
</g>
<!-- ext_circ_113_26_ -->
<g id="node56" class="node">
<title>ext_circ_113_26_</title>
<polygon fill="lightpink" stroke="darkorange" stroke-dasharray="5,2" points="816,-1360 672,-1360 672,-1317 816,-1317 816,-1360"/>
<text text-anchor="middle" x="744" y="-1341.5" font-family="Arial" font-size="10.00">Circuito:</text>
<text text-anchor="middle" x="744" y="-1330.5" font-family="Arial" font-size="10.00">113&#45;26&#45;</text>
</g>
<!-- C&#45;0104&#45;&gt;ext_circ_113_26_ -->
<g id="edge59" class="edge">
<title>C&#45;0104&#45;&gt;ext_circ_113_26_</title>
<path fill="none" stroke="darkorange" stroke-dasharray="5,2" d="M567,-745.3C567,-775.53 567,-836 567,-836 567,-836 702,-836 702,-836 702,-836 702,-1309.91 702,-1309.91"/>
<polygon fill="darkorange" stroke="darkorange" points="699.55,-1309.91 702,-1316.91 704.45,-1309.91 699.55,-1309.91"/>
</g>
<!-- C&#45;0399 -->
<g id="node33" class="node">
<title>C&#45;0399</title>
<ellipse fill="mediumseagreen" stroke="black" cx="432" cy="-1031.5" rx="72" ry="21.5"/>
<text text-anchor="middle" x="432" y="-1029" font-family="Arial" font-size="10.00">C&#45;0399</text>
</g>
<!-- C&#45;0399&#45;&gt;R&#45;136 -->
<g id="edge42" class="edge">
<title>C&#45;0399&#45;&gt;R&#45;136</title>
<path fill="none" stroke="#4d4d4d" d="M432,-1009.58C432,-1009.58 432,-959.03 432,-959.03"/>
<polygon fill="#4d4d4d" stroke="#4d4d4d" points="434.45,-959.03 432,-952.03 429.55,-959.03 434.45,-959.03"/>
</g>
<!-- S&#45;776&#45;&gt;S&#45;896 -->
<g id="edge28" class="edge">
<title>S&#45;776&#45;&gt;S&#45;896</title>
<path fill="none" stroke="#4d4d4d" d="M2457,-114.23C2457,-114.23 2457,-36.6 2457,-36.6"/>
<polygon fill="#4d4d4d" stroke="#4d4d4d" points="2459.45,-36.6 2457,-29.6 2454.55,-36.6 2459.45,-36.6"/>
</g>
<!-- S&#45;776&#45;&gt;S&#45;2404 -->
<g id="edge29" class="edge">
<title>S&#45;776&#45;&gt;S&#45;2404</title>
<path fill="none" stroke="#4d4d4d" d="M2482.59,-122C2562.59,-122 2682,-122 2682,-122 2682,-122 2682,-50.31 2682,-50.31"/>
<polygon fill="#4d4d4d" stroke="#4d4d4d" points="2684.45,-50.31 2682,-43.31 2679.55,-50.31 2684.45,-50.31"/>
</g>
<!-- C&#45;0936 -->
<g id="node37" class="node">
<title>C&#45;0936</title>
<ellipse fill="tomato" stroke="black" cx="2322" cy="-21.5" rx="72" ry="21.5"/>
<text text-anchor="middle" x="2322" y="-19" font-family="Arial" font-size="10.00">C&#45;0936</text>
</g>
<!-- S&#45;776&#45;&gt;C&#45;0936 -->
<g id="edge31" class="edge">
<title>S&#45;776&#45;&gt;C&#45;0936</title>
<path fill="none" stroke="#4d4d4d" d="M2376,-111.69C2376,-111.69 2376,-42.78 2376,-42.78"/>
<polygon fill="#4d4d4d" stroke="#4d4d4d" points="2378.45,-42.78 2376,-35.78 2373.55,-42.78 2378.45,-42.78"/>
</g>
<!-- C&#45;1258 -->
<g id="node40" class="node">
<title>C&#45;1258</title>
<ellipse fill="tomato" stroke="black" cx="2142" cy="-21.5" rx="72" ry="21.5"/>
<text text-anchor="middle" x="2142" y="-19" font-family="Arial" font-size="10.00">C&#45;1258</text>
</g>
<!-- S&#45;776&#45;&gt;C&#45;1258 -->
<g id="edge30" class="edge">
<title>S&#45;776&#45;&gt;C&#45;1258</title>
<path fill="none" stroke="#4d4d4d" d="M2358,-116.92C2358,-101.94 2358,-62 2358,-62 2358,-62 2187,-62 2187,-62 2187,-62 2187,-45.44 2187,-45.44"/>
<polygon fill="#4d4d4d" stroke="#4d4d4d" points="2189.45,-45.44 2187,-38.44 2184.55,-45.44 2189.45,-45.44"/>
</g>
<!-- S&#45;2459 -->
<g id="node36" class="node">
<title>S&#45;2459</title>
<polygon fill="mediumseagreen" stroke="black" points="2052,-548 1980,-526.5 2052,-505 2124,-526.5 2052,-548"/>
<text text-anchor="middle" x="2052" y="-524" font-family="Arial" font-size="10.00">S&#45;2459</text>
</g>
<!-- C&#45;0936&#45;&gt;S&#45;1572 -->
<g id="edge57" class="edge">
<title>C&#45;0936&#45;&gt;S&#45;1572</title>
<path fill="none" stroke="blue" stroke-dasharray="5,2" d="M2277,-38.39C2277,-55.98 2277,-81 2277,-81 2277,-81 657,-81 657,-81 657,-81 657,-598.74 657,-598.74"/>
<polygon fill="blue" stroke="blue" points="654.55,-598.74 657,-605.74 659.45,-598.74 654.55,-598.74"/>
</g>
<!-- C&#45;0446 -->
<g id="node39" class="node">
<title>C&#45;0446</title>
<ellipse fill="mediumseagreen" stroke="black" cx="1557" cy="-728.5" rx="72" ry="21.5"/>
<text text-anchor="middle" x="1557" y="-726" font-family="Arial" font-size="10.00">C&#45;0446</text>
</g>
<!-- C&#45;0446&#45;&gt;C&#45;0292 -->
<g id="edge21" class="edge">
<title>C&#45;0446&#45;&gt;C&#45;0292</title>
<path fill="none" stroke="#4d4d4d" d="M1625.75,-735C1797.57,-735 2232,-735 2232,-735 2232,-735 2232,-656.25 2232,-656.25"/>
<polygon fill="#4d4d4d" stroke="#4d4d4d" points="2234.45,-656.25 2232,-649.25 2229.55,-656.25 2234.45,-656.25"/>
</g>
<!-- C&#45;0446&#45;&gt;S&#45;2367 -->
<g id="edge15" class="edge">
<title>C&#45;0446&#45;&gt;S&#45;2367</title>
<path fill="none" stroke="#4d4d4d" d="M1500.85,-715C1473.32,-715 1446,-715 1446,-715 1446,-715 1446,-635.48 1446,-635.48"/>
<polygon fill="#4d4d4d" stroke="#4d4d4d" points="1448.45,-635.48 1446,-628.48 1443.55,-635.48 1448.45,-635.48"/>
</g>
<!-- C&#45;0446&#45;&gt;C&#45;1032 -->
<g id="edge16" class="edge">
<title>C&#45;0446&#45;&gt;C&#45;1032</title>
<path fill="none" stroke="#4d4d4d" d="M1557,-706.58C1557,-706.58 1557,-656.03 1557,-656.03"/>
<polygon fill="#4d4d4d" stroke="#4d4d4d" points="1559.45,-656.03 1557,-649.03 1554.55,-656.03 1559.45,-656.03"/>
</g>
<!-- S&#45;2173 -->
<g id="node49" class="node">
<title>S&#45;2173</title>
<polygon fill="mediumseagreen" stroke="black" points="1827,-649 1755,-627.5 1827,-606 1899,-627.5 1827,-649"/>
<text text-anchor="middle" x="1827" y="-625" font-family="Arial" font-size="10.00">S&#45;2173</text>
</g>
<!-- C&#45;0446&#45;&gt;S&#45;2173 -->
<g id="edge10" class="edge">
<title>C&#45;0446&#45;&gt;S&#45;2173</title>
<path fill="none" stroke="#4d4d4d" d="M1624.78,-721C1704.76,-721 1827,-721 1827,-721 1827,-721 1827,-656.19 1827,-656.19"/>
<polygon fill="#4d4d4d" stroke="#4d4d4d" points="1829.45,-656.19 1827,-649.19 1824.55,-656.19 1829.45,-656.19"/>
</g>
<!-- ext_circ__NA_ -->
<g id="node55" class="node">
<title>ext_circ__NA_</title>
<polygon fill="lightpink" stroke="darkorange" stroke-dasharray="5,2" points="194,-1360 50,-1360 50,-1317 194,-1317 194,-1360"/>
<text text-anchor="middle" x="122" y="-1341.5" font-family="Arial" font-size="10.00">Circuito:</text>
<text text-anchor="middle" x="122" y="-1330.5" font-family="Arial" font-size="10.00">&lt;NA&gt;</text>
</g>
<!-- C&#45;1258&#45;&gt;ext_circ__NA_ -->
<g id="edge56" class="edge">
<title>C&#45;1258&#45;&gt;ext_circ__NA_</title>
<path fill="none" stroke="darkorange" stroke-dasharray="5,2" d="M2142,-43.21C2142,-167.94 2142,-788 2142,-788 2142,-788 142,-788 142,-788 142,-788 142,-1309.92 142,-1309.92"/>
<polygon fill="darkorange" stroke="darkorange" points="139.55,-1309.92 142,-1316.92 144.45,-1309.92 139.55,-1309.92"/>
</g>
<!-- C&#45;0521&#45;&gt;C&#45;0517 -->
<g id="edge34" class="edge">
<title>C&#45;0521&#45;&gt;C&#45;0517</title>
<path fill="none" stroke="#4d4d4d" d="M1084.5,-821.85C1084.5,-798.86 1084.5,-732 1084.5,-732 1084.5,-732 1028.19,-732 1028.19,-732"/>
<polygon fill="#4d4d4d" stroke="#4d4d4d" points="1028.19,-729.55 1021.19,-732 1028.19,-734.45 1028.19,-729.55"/>
</g>
<!-- C&#45;0521&#45;&gt;C&#45;0446 -->
<g id="edge9" class="edge">
<title>C&#45;0521&#45;&gt;C&#45;0446</title>
<path fill="none" stroke="#4d4d4d" d="M1191,-811.16C1191,-785.24 1191,-741 1191,-741 1191,-741 1491.2,-741 1491.2,-741"/>
<polygon fill="#4d4d4d" stroke="#4d4d4d" points="1491.2,-743.45 1498.2,-741 1491.2,-738.55 1491.2,-743.45"/>
</g>
<!-- C&#45;0948&#45;&gt;C&#45;0947 -->
<g id="edge60" class="edge">
<title>C&#45;0948&#45;&gt;C&#45;0947</title>
<path fill="none" stroke="blue" stroke-dasharray="5,2" d="M297,-711.58C297,-662.91 297,-526 297,-526 297,-526 241.24,-526 241.24,-526"/>
<polygon fill="blue" stroke="blue" points="241.24,-523.55 234.24,-526 241.24,-528.45 241.24,-523.55"/>
</g>
<!-- S&#45;1787 -->
<g id="node45" class="node">
<title>S&#45;1787</title>
<polygon fill="mediumseagreen" stroke="black" points="612,-1053 540,-1031.5 612,-1010 684,-1031.5 612,-1053"/>
<text text-anchor="middle" x="612" y="-1029" font-family="Arial" font-size="10.00">S&#45;1787</text>
</g>
<!-- S&#45;039 -->
<g id="node46" class="node">
<title>S&#45;039</title>
<polygon fill="mediumseagreen" stroke="black" points="792,-1053 720,-1031.5 792,-1010 864,-1031.5 792,-1053"/>
<text text-anchor="middle" x="792" y="-1029" font-family="Arial" font-size="10.00">S&#45;039</text>
</g>
<!-- R&#45;253&#45;&gt;C&#45;1040 -->
<g id="edge25" class="edge">
<title>R&#45;253&#45;&gt;C&#45;1040</title>
<path fill="none" stroke="#4d4d4d" d="M2232,-403.58C2232,-403.58 2232,-353.03 2232,-353.03"/>
<polygon fill="#4d4d4d" stroke="#4d4d4d" points="2234.45,-353.03 2232,-346.03 2229.55,-353.03 2234.45,-353.03"/>
</g>
<!-- S&#45;2173&#45;&gt;S&#45;2226 -->
<g id="edge13" class="edge">
<title>S&#45;2173&#45;&gt;S&#45;2226</title>
<path fill="none" stroke="#4d4d4d" d="M1759.5,-626.07C1759.5,-626.07 1759.5,-535.02 1759.5,-535.02"/>
<polygon fill="#4d4d4d" stroke="#4d4d4d" points="1761.95,-535.02 1759.5,-528.02 1757.05,-535.02 1761.95,-535.02"/>
</g>
<!-- S&#45;2173&#45;&gt;S&#45;2174 -->
<g id="edge12" class="edge">
<title>S&#45;2173&#45;&gt;S&#45;2174</title>
<path fill="none" stroke="#4d4d4d" d="M1849.5,-612.6C1849.5,-612.6 1849.5,-548.46 1849.5,-548.46"/>
<polygon fill="#4d4d4d" stroke="#4d4d4d" points="1851.95,-548.46 1849.5,-541.46 1847.05,-548.46 1851.95,-548.46"/>
</g>
<!-- S&#45;2173&#45;&gt;S&#45;2459 -->
<g id="edge11" class="edge">
<title>S&#45;2173&#45;&gt;S&#45;2459</title>
<path fill="none" stroke="#4d4d4d" d="M1897.57,-627C1963.56,-627 2052,-627 2052,-627 2052,-627 2052,-555.31 2052,-555.31"/>
<polygon fill="#4d4d4d" stroke="#4d4d4d" points="2054.45,-555.31 2052,-548.31 2049.55,-555.31 2054.45,-555.31"/>
</g>
<!-- S&#45;041 -->
<g id="node50" class="node">
<title>S&#45;041</title>
<polygon fill="mediumseagreen" stroke="black" points="972,-1053 900,-1031.5 972,-1010 1044,-1031.5 972,-1053"/>
<text text-anchor="middle" x="972" y="-1029" font-family="Arial" font-size="10.00">S&#45;041</text>
</g>
<!-- R&#45;027&#45;&gt;C&#45;0521 -->
<g id="edge8" class="edge">
<title>R&#45;027&#45;&gt;C&#45;0521</title>
<path fill="none" stroke="#4d4d4d" d="M1152,-908.58C1152,-908.58 1152,-858.03 1152,-858.03"/>
<polygon fill="#4d4d4d" stroke="#4d4d4d" points="1154.45,-858.03 1152,-851.03 1149.55,-858.03 1154.45,-858.03"/>
</g>
<!-- C&#45;0808&#45;&gt;C&#45;0523 -->
<g id="edge6" class="edge">
<title>C&#45;0808&#45;&gt;C&#45;0523</title>
<path fill="none" stroke="#4d4d4d" d="M1032.94,-1121C1085.16,-1121 1152,-1121 1152,-1121 1152,-1121 1152,-1060.17 1152,-1060.17"/>
<polygon fill="#4d4d4d" stroke="#4d4d4d" points="1154.45,-1060.17 1152,-1053.17 1149.55,-1060.17 1154.45,-1060.17"/>
</g>
<!-- C&#45;0808&#45;&gt;C&#45;0398 -->
<g id="edge41" class="edge">
<title>C&#45;0808&#45;&gt;C&#45;0398</title>
<path fill="none" stroke="#4d4d4d" d="M1043.99,-1132C1149.04,-1132 1332,-1132 1332,-1132 1332,-1132 1332,-1060.31 1332,-1060.31"/>
<polygon fill="#4d4d4d" stroke="#4d4d4d" points="1334.45,-1060.31 1332,-1053.31 1329.55,-1060.31 1334.45,-1060.31"/>
</g>
<!-- C&#45;0808&#45;&gt;C&#45;0522 -->
<g id="edge5" class="edge">
<title>C&#45;0808&#45;&gt;C&#45;0522</title>
<path fill="none" stroke="#4d4d4d" d="M1035,-1143C1177.45,-1143 1512,-1143 1512,-1143 1512,-1143 1512,-1060.26 1512,-1060.26"/>
<polygon fill="#4d4d4d" stroke="#4d4d4d" points="1514.45,-1060.26 1512,-1053.26 1509.55,-1060.26 1514.45,-1060.26"/>
</g>
<!-- C&#45;0808&#45;&gt;C&#45;0399 -->
<g id="edge40" class="edge">
<title>C&#45;0808&#45;&gt;C&#45;0399</title>
<path fill="none" stroke="#4d4d4d" d="M909.06,-1143C771.15,-1143 454.5,-1143 454.5,-1143 454.5,-1143 454.5,-1058.95 454.5,-1058.95"/>
<polygon fill="#4d4d4d" stroke="#4d4d4d" points="456.95,-1058.95 454.5,-1051.95 452.05,-1058.95 456.95,-1058.95"/>
</g>
<!-- C&#45;0808&#45;&gt;S&#45;1787 -->
<g id="edge4" class="edge">
<title>C&#45;0808&#45;&gt;S&#45;1787</title>
<path fill="none" stroke="#4d4d4d" d="M899.7,-1132C812.65,-1132 678,-1132 678,-1132 678,-1132 678,-1040.6 678,-1040.6"/>
<polygon fill="#4d4d4d" stroke="#4d4d4d" points="680.45,-1040.6 678,-1033.6 675.55,-1040.6 680.45,-1040.6"/>
</g>
<!-- C&#45;0808&#45;&gt;S&#45;039 -->
<g id="edge3" class="edge">
<title>C&#45;0808&#45;&gt;S&#45;039</title>
<path fill="none" stroke="#4d4d4d" d="M911.02,-1121C876.44,-1121 840,-1121 840,-1121 840,-1121 840,-1045.82 840,-1045.82"/>
<polygon fill="#4d4d4d" stroke="#4d4d4d" points="842.45,-1045.82 840,-1038.82 837.55,-1045.82 842.45,-1045.82"/>
</g>
<!-- C&#45;0808&#45;&gt;S&#45;041 -->
<g id="edge52" class="edge">
<title>C&#45;0808&#45;&gt;S&#45;041</title>
<path fill="none" stroke="#4d4d4d" d="M972,-1110.58C972,-1110.58 972,-1060.03 972,-1060.03"/>
<polygon fill="#4d4d4d" stroke="#4d4d4d" points="974.45,-1060.03 972,-1053.03 969.55,-1060.03 974.45,-1060.03"/>
</g>
</g>
</svg>
