<?xml version="1.0" encoding="UTF-8" standalone="no"?>
<!DOCTYPE svg PUBLIC "-//W3C//DTD SVG 1.1//EN"
 "http://www.w3.org/Graphics/SVG/1.1/DTD/svg11.dtd">
<!-- Generated by graphviz version 2.50.0 (0)
 -->
<!-- Title: Grafo_Circuito_303_23_ Pages: 1 -->
<svg width="1788pt" height="1744pt"
 viewBox="0.00 0.00 1788.00 1744.00" xmlns="http://www.w3.org/2000/svg" xmlns:xlink="http://www.w3.org/1999/xlink">
<g id="graph0" class="graph" transform="scale(1 1) rotate(0) translate(4 1740)">
<title>Grafo_Circuito_303_23_</title>
<polygon fill="white" stroke="transparent" points="-4,4 -4,-1740 1784,-1740 1784,4 -4,4"/>
<!-- S&#45;1713 -->
<g id="node1" class="node">
<title>S&#45;1713</title>
<polygon fill="mediumseagreen" stroke="black" points="1002.5,-1258 934,-1240 1002.5,-1222 1071,-1240 1002.5,-1258"/>
<text text-anchor="middle" x="1002.5" y="-1238.1" font-family="Helvetica,sans-Serif" font-size="8.00">S&#45;1713</text>
</g>
<!-- C&#45;0537 -->
<g id="node2" class="node">
<title>C&#45;0537</title>
<ellipse fill="mediumseagreen" stroke="black" cx="1348.5" cy="-1052" rx="68.5" ry="18"/>
<text text-anchor="middle" x="1348.5" y="-1050.1" font-family="Helvetica,sans-Serif" font-size="8.00">C&#45;0537</text>
</g>
<!-- C&#45;0264 -->
<g id="node38" class="node">
<title>C&#45;0264</title>
<ellipse fill="mediumseagreen" stroke="black" cx="1074.5" cy="-958" rx="68.5" ry="18"/>
<text text-anchor="middle" x="1074.5" y="-956.1" font-family="Helvetica,sans-Serif" font-size="8.00">C&#45;0264</text>
</g>
<!-- C&#45;0537&#45;&gt;C&#45;0264 -->
<g id="edge13" class="edge">
<title>C&#45;0537&#45;&gt;C&#45;0264</title>
<path fill="none" stroke="dimgray" stroke-width="0.8" d="M1283.85,-1046C1217.85,-1046 1125,-1046 1125,-1046 1125,-1046 1125,-977.24 1125,-977.24"/>
<polygon fill="dimgray" stroke="dimgray" stroke-width="0.8" points="1127.45,-977.24 1125,-970.24 1122.55,-977.24 1127.45,-977.24"/>
</g>
<!-- S&#45;2357 -->
<g id="node41" class="node">
<title>S&#45;2357</title>
<polygon fill="mediumseagreen" stroke="black" points="1314.5,-976 1246,-958 1314.5,-940 1383,-958 1314.5,-976"/>
<text text-anchor="middle" x="1314.5" y="-956.1" font-family="Helvetica,sans-Serif" font-size="8.00">S&#45;2357</text>
</g>
<!-- C&#45;0537&#45;&gt;S&#45;2357 -->
<g id="edge12" class="edge">
<title>C&#45;0537&#45;&gt;S&#45;2357</title>
<path fill="none" stroke="dimgray" stroke-width="0.8" d="M1331.5,-1034.32C1331.5,-1034.32 1331.5,-978.64 1331.5,-978.64"/>
<polygon fill="dimgray" stroke="dimgray" stroke-width="0.8" points="1333.95,-978.64 1331.5,-971.64 1329.05,-978.64 1333.95,-978.64"/>
</g>
<!-- S&#45;686 -->
<g id="node50" class="node">
<title>S&#45;686</title>
<polygon fill="mediumseagreen" stroke="black" points="1487.5,-976 1419,-958 1487.5,-940 1556,-958 1487.5,-976"/>
<text text-anchor="middle" x="1487.5" y="-956.1" font-family="Helvetica,sans-Serif" font-size="8.00">S&#45;686</text>
</g>
<!-- C&#45;0537&#45;&gt;S&#45;686 -->
<g id="edge46" class="edge">
<title>C&#45;0537&#45;&gt;S&#45;686</title>
<path fill="none" stroke="dimgray" stroke-width="0.8" d="M1400,-1040.09C1400,-1014.8 1400,-958 1400,-958 1400,-958 1411.99,-958 1411.99,-958"/>
<polygon fill="dimgray" stroke="dimgray" stroke-width="0.8" points="1411.99,-960.45 1418.99,-958 1411.99,-955.55 1411.99,-960.45"/>
</g>
<!-- S&#45;690 -->
<g id="node59" class="node">
<title>S&#45;690</title>
<polygon fill="mediumseagreen" stroke="black" points="1660.5,-976 1592,-958 1660.5,-940 1729,-958 1660.5,-976"/>
<text text-anchor="middle" x="1660.5" y="-956.1" font-family="Helvetica,sans-Serif" font-size="8.00">S&#45;690</text>
</g>
<!-- C&#45;0537&#45;&gt;S&#45;690 -->
<g id="edge53" class="edge">
<title>C&#45;0537&#45;&gt;S&#45;690</title>
<path fill="none" stroke="dimgray" stroke-width="0.8" d="M1417.36,-1052C1509.24,-1052 1660.5,-1052 1660.5,-1052 1660.5,-1052 1660.5,-983.12 1660.5,-983.12"/>
<polygon fill="dimgray" stroke="dimgray" stroke-width="0.8" points="1662.95,-983.12 1660.5,-976.12 1658.05,-983.12 1662.95,-983.12"/>
</g>
<!-- S&#45;1964 -->
<g id="node3" class="node">
<title>S&#45;1964</title>
<polygon fill="mediumseagreen" stroke="black" points="1167.5,-788 1099,-770 1167.5,-752 1236,-770 1167.5,-788"/>
<text text-anchor="middle" x="1167.5" y="-768.1" font-family="Helvetica,sans-Serif" font-size="8.00">S&#45;1964</text>
</g>
<!-- 303&#45;23&#45; -->
<g id="node4" class="node">
<title>303&#45;23&#45;</title>
<polygon fill="gold" stroke="black" points="701,-1706.54 701,-1721.46 660.87,-1732 604.13,-1732 564,-1721.46 564,-1706.54 604.13,-1696 660.87,-1696 701,-1706.54"/>
<polygon fill="none" stroke="black" points="705,-1703.46 705,-1724.54 661.39,-1736 603.61,-1736 560,-1724.54 560,-1703.46 603.61,-1692 661.39,-1692 705,-1703.46"/>
<text text-anchor="middle" x="632.5" y="-1712.1" font-family="Helvetica,sans-Serif" font-size="8.00">303&#45;23&#45;</text>
</g>
<!-- C&#45;0169 -->
<g id="node54" class="node">
<title>C&#45;0169</title>
<ellipse fill="mediumseagreen" stroke="black" cx="632.5" cy="-1616" rx="68.5" ry="18"/>
<text text-anchor="middle" x="632.5" y="-1614.1" font-family="Helvetica,sans-Serif" font-size="8.00">C&#45;0169</text>
</g>
<!-- 303&#45;23&#45;&#45;&gt;C&#45;0169 -->
<g id="edge1" class="edge">
<title>303&#45;23&#45;&#45;&gt;C&#45;0169</title>
<path fill="none" stroke="dimgray" stroke-width="0.8" d="M632.5,-1691.76C632.5,-1691.76 632.5,-1641.21 632.5,-1641.21"/>
<polygon fill="dimgray" stroke="dimgray" stroke-width="0.8" points="634.95,-1641.21 632.5,-1634.21 630.05,-1641.21 634.95,-1641.21"/>
</g>
<!-- C&#45;0575 -->
<g id="node5" class="node">
<title>C&#45;0575</title>
<ellipse fill="mediumseagreen" stroke="black" cx="760.5" cy="-488" rx="68.5" ry="18"/>
<text text-anchor="middle" x="760.5" y="-486.1" font-family="Helvetica,sans-Serif" font-size="8.00">C&#45;0575</text>
</g>
<!-- R&#45;106 -->
<g id="node53" class="node">
<title>R&#45;106</title>
<polygon fill="mediumseagreen" stroke="black" points="829,-386.54 829,-401.46 788.87,-412 732.13,-412 692,-401.46 692,-386.54 732.13,-376 788.87,-376 829,-386.54"/>
<text text-anchor="middle" x="760.5" y="-392.1" font-family="Helvetica,sans-Serif" font-size="8.00">R&#45;106</text>
</g>
<!-- C&#45;0575&#45;&gt;R&#45;106 -->
<g id="edge28" class="edge">
<title>C&#45;0575&#45;&gt;R&#45;106</title>
<path fill="none" stroke="dimgray" stroke-width="0.8" d="M760.5,-469.88C760.5,-469.88 760.5,-419.07 760.5,-419.07"/>
<polygon fill="dimgray" stroke="dimgray" stroke-width="0.8" points="762.95,-419.07 760.5,-412.07 758.05,-419.07 762.95,-419.07"/>
</g>
<!-- C&#45;0854 -->
<g id="node6" class="node">
<title>C&#45;0854</title>
<ellipse fill="mediumseagreen" stroke="black" cx="846.5" cy="-864" rx="68.5" ry="18"/>
<text text-anchor="middle" x="846.5" y="-862.1" font-family="Helvetica,sans-Serif" font-size="8.00">C&#45;0854</text>
</g>
<!-- R&#45;195 -->
<g id="node49" class="node">
<title>R&#45;195</title>
<polygon fill="mediumseagreen" stroke="black" points="915,-762.54 915,-777.46 874.87,-788 818.13,-788 778,-777.46 778,-762.54 818.13,-752 874.87,-752 915,-762.54"/>
<text text-anchor="middle" x="846.5" y="-768.1" font-family="Helvetica,sans-Serif" font-size="8.00">R&#45;195</text>
</g>
<!-- C&#45;0854&#45;&gt;R&#45;195 -->
<g id="edge17" class="edge">
<title>C&#45;0854&#45;&gt;R&#45;195</title>
<path fill="none" stroke="dimgray" stroke-width="0.8" d="M846.5,-845.88C846.5,-845.88 846.5,-795.07 846.5,-795.07"/>
<polygon fill="dimgray" stroke="dimgray" stroke-width="0.8" points="848.95,-795.07 846.5,-788.07 844.05,-795.07 848.95,-795.07"/>
</g>
<!-- S&#45;652 -->
<g id="node7" class="node">
<title>S&#45;652</title>
<polygon fill="mediumseagreen" stroke="black" points="414.5,-224 346,-206 414.5,-188 483,-206 414.5,-224"/>
<text text-anchor="middle" x="414.5" y="-204.1" font-family="Helvetica,sans-Serif" font-size="8.00">S&#45;652</text>
</g>
<!-- S&#45;581 -->
<g id="node8" class="node">
<title>S&#45;581</title>
<polygon fill="mediumseagreen" stroke="black" points="414.5,-36 346,-18 414.5,0 483,-18 414.5,-36"/>
<text text-anchor="middle" x="414.5" y="-16.1" font-family="Helvetica,sans-Serif" font-size="8.00">S&#45;581</text>
</g>
<!-- C&#45;0733 -->
<g id="node9" class="node">
<title>C&#45;0733</title>
<ellipse fill="mediumseagreen" stroke="black" cx="587.5" cy="-488" rx="68.5" ry="18"/>
<text text-anchor="middle" x="587.5" y="-486.1" font-family="Helvetica,sans-Serif" font-size="8.00">C&#45;0733</text>
</g>
<!-- R&#45;143 -->
<g id="node40" class="node">
<title>R&#45;143</title>
<polygon fill="tomato" stroke="black" points="656,-386.54 656,-401.46 615.87,-412 559.13,-412 519,-401.46 519,-386.54 559.13,-376 615.87,-376 656,-386.54"/>
<text text-anchor="middle" x="587.5" y="-392.1" font-family="Helvetica,sans-Serif" font-size="8.00">R&#45;143</text>
</g>
<!-- C&#45;0733&#45;&gt;R&#45;143 -->
<g id="edge24" class="edge">
<title>C&#45;0733&#45;&gt;R&#45;143</title>
<path fill="none" stroke="dimgray" stroke-width="0.8" d="M587.5,-469.88C587.5,-469.88 587.5,-419.07 587.5,-419.07"/>
<polygon fill="dimgray" stroke="dimgray" stroke-width="0.8" points="589.95,-419.07 587.5,-412.07 585.05,-419.07 589.95,-419.07"/>
</g>
<!-- S&#45;582 -->
<g id="node10" class="node">
<title>S&#45;582</title>
<polygon fill="mediumseagreen" stroke="black" points="68.5,-130 0,-112 68.5,-94 137,-112 68.5,-130"/>
<text text-anchor="middle" x="68.5" y="-110.1" font-family="Helvetica,sans-Serif" font-size="8.00">S&#45;582</text>
</g>
<!-- S&#45;578 -->
<g id="node11" class="node">
<title>S&#45;578</title>
<polygon fill="mediumseagreen" stroke="black" points="1106.5,-130 1038,-112 1106.5,-94 1175,-112 1106.5,-130"/>
<text text-anchor="middle" x="1106.5" y="-110.1" font-family="Helvetica,sans-Serif" font-size="8.00">S&#45;578</text>
</g>
<!-- S&#45;685 -->
<g id="node12" class="node">
<title>S&#45;685</title>
<polygon fill="mediumseagreen" stroke="black" points="1711.5,-882 1643,-864 1711.5,-846 1780,-864 1711.5,-882"/>
<text text-anchor="middle" x="1711.5" y="-862.1" font-family="Helvetica,sans-Serif" font-size="8.00">S&#45;685</text>
</g>
<!-- C&#45;0574 -->
<g id="node13" class="node">
<title>C&#45;0574</title>
<ellipse fill="tomato" stroke="black" cx="933.5" cy="-488" rx="68.5" ry="18"/>
<text text-anchor="middle" x="933.5" y="-486.1" font-family="Helvetica,sans-Serif" font-size="8.00">C&#45;0574</text>
</g>
<!-- C&#45;0314 -->
<g id="node25" class="node">
<title>C&#45;0314</title>
<ellipse fill="mediumseagreen" stroke="black" cx="760.5" cy="-300" rx="68.5" ry="18"/>
<text text-anchor="middle" x="760.5" y="-298.1" font-family="Helvetica,sans-Serif" font-size="8.00">C&#45;0314</text>
</g>
<!-- C&#45;0574&#45;&gt;C&#45;0314 -->
<g id="edge64" class="edge">
<title>C&#45;0574&#45;&gt;C&#45;0314</title>
<path fill="none" stroke="blue" stroke-width="0.8" stroke-dasharray="5,2" d="M910.67,-470.84C910.67,-426.03 910.67,-309 910.67,-309 910.67,-309 826.85,-309 826.85,-309"/>
<polygon fill="blue" stroke="blue" stroke-width="0.8" points="826.85,-306.55 819.85,-309 826.85,-311.45 826.85,-306.55"/>
</g>
<!-- S&#45;761 -->
<g id="node14" class="node">
<title>S&#45;761</title>
<polygon fill="mediumseagreen" stroke="black" points="632.5,-1446 564,-1428 632.5,-1410 701,-1428 632.5,-1446"/>
<text text-anchor="middle" x="632.5" y="-1426.1" font-family="Helvetica,sans-Serif" font-size="8.00">S&#45;761</text>
</g>
<!-- S&#45;2095 -->
<g id="node15" class="node">
<title>S&#45;2095</title>
<polygon fill="mediumseagreen" stroke="black" points="1340.5,-788 1272,-770 1340.5,-752 1409,-770 1340.5,-788"/>
<text text-anchor="middle" x="1340.5" y="-768.1" font-family="Helvetica,sans-Serif" font-size="8.00">S&#45;2095</text>
</g>
<!-- C&#45;0856 -->
<g id="node16" class="node">
<title>C&#45;0856</title>
<ellipse fill="mediumseagreen" stroke="black" cx="846.5" cy="-676" rx="68.5" ry="18"/>
<text text-anchor="middle" x="846.5" y="-674.1" font-family="Helvetica,sans-Serif" font-size="8.00">C&#45;0856</text>
</g>
<!-- S&#45;689 -->
<g id="node27" class="node">
<title>S&#45;689</title>
<polygon fill="mediumseagreen" stroke="black" points="673.5,-600 605,-582 673.5,-564 742,-582 673.5,-600"/>
<text text-anchor="middle" x="673.5" y="-580.1" font-family="Helvetica,sans-Serif" font-size="8.00">S&#45;689</text>
</g>
<!-- C&#45;0856&#45;&gt;S&#45;689 -->
<g id="edge20" class="edge">
<title>C&#45;0856&#45;&gt;S&#45;689</title>
<path fill="none" stroke="dimgray" stroke-width="0.8" d="M777.56,-676C730.63,-676 677,-676 677,-676 677,-676 677,-606.24 677,-606.24"/>
<polygon fill="dimgray" stroke="dimgray" stroke-width="0.8" points="679.45,-606.24 677,-599.24 674.55,-606.24 679.45,-606.24"/>
</g>
<!-- C&#45;0265 -->
<g id="node35" class="node">
<title>C&#45;0265</title>
<ellipse fill="mediumseagreen" stroke="black" cx="846.5" cy="-582" rx="68.5" ry="18"/>
<text text-anchor="middle" x="846.5" y="-580.1" font-family="Helvetica,sans-Serif" font-size="8.00">C&#45;0265</text>
</g>
<!-- C&#45;0856&#45;&gt;C&#45;0265 -->
<g id="edge21" class="edge">
<title>C&#45;0856&#45;&gt;C&#45;0265</title>
<path fill="none" stroke="dimgray" stroke-width="0.8" d="M846.5,-657.88C846.5,-657.88 846.5,-607.07 846.5,-607.07"/>
<polygon fill="dimgray" stroke="dimgray" stroke-width="0.8" points="848.95,-607.07 846.5,-600.07 844.05,-607.07 848.95,-607.07"/>
</g>
<!-- S&#45;1623 -->
<g id="node52" class="node">
<title>S&#45;1623</title>
<polygon fill="mediumseagreen" stroke="black" points="1019.5,-600 951,-582 1019.5,-564 1088,-582 1019.5,-600"/>
<text text-anchor="middle" x="1019.5" y="-580.1" font-family="Helvetica,sans-Serif" font-size="8.00">S&#45;1623</text>
</g>
<!-- C&#45;0856&#45;&gt;S&#45;1623 -->
<g id="edge19" class="edge">
<title>C&#45;0856&#45;&gt;S&#45;1623</title>
<path fill="none" stroke="dimgray" stroke-width="0.8" d="M911.41,-670C960.5,-670 1019.5,-670 1019.5,-670 1019.5,-670 1019.5,-607.23 1019.5,-607.23"/>
<polygon fill="dimgray" stroke="dimgray" stroke-width="0.8" points="1021.95,-607.23 1019.5,-600.23 1017.05,-607.23 1021.95,-607.23"/>
</g>
<!-- C&#45;0315 -->
<g id="node17" class="node">
<title>C&#45;0315</title>
<ellipse fill="mediumseagreen" stroke="black" cx="587.5" cy="-206" rx="68.5" ry="18"/>
<text text-anchor="middle" x="587.5" y="-204.1" font-family="Helvetica,sans-Serif" font-size="8.00">C&#45;0315</text>
</g>
<!-- C&#45;0315&#45;&gt;S&#45;582 -->
<g id="edge38" class="edge">
<title>C&#45;0315&#45;&gt;S&#45;582</title>
<path fill="none" stroke="dimgray" stroke-width="0.8" d="M553.25,-190.1C553.25,-179.69 553.25,-168 553.25,-168 553.25,-168 68.5,-168 68.5,-168 68.5,-168 68.5,-137.03 68.5,-137.03"/>
<polygon fill="dimgray" stroke="dimgray" stroke-width="0.8" points="70.95,-137.03 68.5,-130.03 66.05,-137.03 70.95,-137.03"/>
</g>
<!-- C&#45;0992 -->
<g id="node23" class="node">
<title>C&#45;0992</title>
<ellipse fill="mediumseagreen" stroke="black" cx="241.5" cy="-112" rx="68.5" ry="18"/>
<text text-anchor="middle" x="241.5" y="-110.1" font-family="Helvetica,sans-Serif" font-size="8.00">C&#45;0992</text>
</g>
<!-- C&#45;0315&#45;&gt;C&#45;0992 -->
<g id="edge37" class="edge">
<title>C&#45;0315&#45;&gt;C&#45;0992</title>
<path fill="none" stroke="dimgray" stroke-width="0.8" d="M587.5,-187.96C587.5,-171.27 587.5,-149 587.5,-149 587.5,-149 252.5,-149 252.5,-149 252.5,-149 252.5,-137.07 252.5,-137.07"/>
<polygon fill="dimgray" stroke="dimgray" stroke-width="0.8" points="254.95,-137.07 252.5,-130.07 250.05,-137.07 254.95,-137.07"/>
</g>
<!-- S&#45;2118 -->
<g id="node24" class="node">
<title>S&#45;2118</title>
<polygon fill="mediumseagreen" stroke="black" points="414.5,-130 346,-112 414.5,-94 483,-112 414.5,-130"/>
<text text-anchor="middle" x="414.5" y="-110.1" font-family="Helvetica,sans-Serif" font-size="8.00">S&#45;2118</text>
</g>
<!-- C&#45;0315&#45;&gt;S&#45;2118 -->
<g id="edge34" class="edge">
<title>C&#45;0315&#45;&gt;S&#45;2118</title>
<path fill="none" stroke="dimgray" stroke-width="0.8" d="M518.92,-206C508.42,-206 501,-206 501,-206 501,-206 501,-112 501,-112 501,-112 490.08,-112 490.08,-112"/>
<polygon fill="dimgray" stroke="dimgray" stroke-width="0.8" points="490.08,-109.55 483.08,-112 490.08,-114.45 490.08,-109.55"/>
</g>
<!-- S&#45;2117 -->
<g id="node42" class="node">
<title>S&#45;2117</title>
<polygon fill="mediumseagreen" stroke="black" points="587.5,-130 519,-112 587.5,-94 656,-112 587.5,-130"/>
<text text-anchor="middle" x="587.5" y="-110.1" font-family="Helvetica,sans-Serif" font-size="8.00">S&#45;2117</text>
</g>
<!-- C&#45;0315&#45;&gt;S&#45;2117 -->
<g id="edge33" class="edge">
<title>C&#45;0315&#45;&gt;S&#45;2117</title>
<path fill="none" stroke="dimgray" stroke-width="0.8" d="M621.75,-190.05C621.75,-190.05 621.75,-128.17 621.75,-128.17"/>
<polygon fill="dimgray" stroke="dimgray" stroke-width="0.8" points="624.2,-128.17 621.75,-121.17 619.3,-128.17 624.2,-128.17"/>
</g>
<!-- S&#45;2155 -->
<g id="node48" class="node">
<title>S&#45;2155</title>
<polygon fill="mediumseagreen" stroke="black" points="760.5,-130 692,-112 760.5,-94 829,-112 760.5,-130"/>
<text text-anchor="middle" x="760.5" y="-110.1" font-family="Helvetica,sans-Serif" font-size="8.00">S&#45;2155</text>
</g>
<!-- C&#45;0315&#45;&gt;S&#45;2155 -->
<g id="edge36" class="edge">
<title>C&#45;0315&#45;&gt;S&#45;2155</title>
<path fill="none" stroke="dimgray" stroke-width="0.8" d="M656.08,-206C666.58,-206 674,-206 674,-206 674,-206 674,-112 674,-112 674,-112 684.92,-112 684.92,-112"/>
<polygon fill="dimgray" stroke="dimgray" stroke-width="0.8" points="684.92,-114.45 691.92,-112 684.92,-109.55 684.92,-114.45"/>
</g>
<!-- S&#45;1561 -->
<g id="node18" class="node">
<title>S&#45;1561</title>
<polygon fill="mediumseagreen" stroke="black" points="1513.5,-788 1445,-770 1513.5,-752 1582,-770 1513.5,-788"/>
<text text-anchor="middle" x="1513.5" y="-768.1" font-family="Helvetica,sans-Serif" font-size="8.00">S&#45;1561</text>
</g>
<!-- S&#45;1714 -->
<g id="node19" class="node">
<title>S&#45;1714</title>
<polygon fill="mediumseagreen" stroke="black" points="1019.5,-882 951,-864 1019.5,-846 1088,-864 1019.5,-882"/>
<text text-anchor="middle" x="1019.5" y="-862.1" font-family="Helvetica,sans-Serif" font-size="8.00">S&#45;1714</text>
</g>
<!-- C&#45;0687 -->
<g id="node20" class="node">
<title>C&#45;0687</title>
<ellipse fill="mediumseagreen" stroke="black" cx="632.5" cy="-1522" rx="68.5" ry="18"/>
<text text-anchor="middle" x="632.5" y="-1520.1" font-family="Helvetica,sans-Serif" font-size="8.00">C&#45;0687</text>
</g>
<!-- C&#45;0687&#45;&gt;S&#45;761 -->
<g id="edge58" class="edge">
<title>C&#45;0687&#45;&gt;S&#45;761</title>
<path fill="none" stroke="dimgray" stroke-width="0.8" d="M632.5,-1503.88C632.5,-1503.88 632.5,-1453.07 632.5,-1453.07"/>
<polygon fill="dimgray" stroke="dimgray" stroke-width="0.8" points="634.95,-1453.07 632.5,-1446.07 630.05,-1453.07 634.95,-1453.07"/>
</g>
<!-- C&#45;0459 -->
<g id="node21" class="node">
<title>C&#45;0459</title>
<ellipse fill="mediumseagreen" stroke="black" cx="805.5" cy="-1428" rx="68.5" ry="18"/>
<text text-anchor="middle" x="805.5" y="-1426.1" font-family="Helvetica,sans-Serif" font-size="8.00">C&#45;0459</text>
</g>
<!-- C&#45;0687&#45;&gt;C&#45;0459 -->
<g id="edge4" class="edge">
<title>C&#45;0687&#45;&gt;C&#45;0459</title>
<path fill="none" stroke="dimgray" stroke-width="0.8" d="M701.37,-1522C749.62,-1522 805.5,-1522 805.5,-1522 805.5,-1522 805.5,-1453.12 805.5,-1453.12"/>
<polygon fill="dimgray" stroke="dimgray" stroke-width="0.8" points="807.95,-1453.12 805.5,-1446.12 803.05,-1453.12 807.95,-1453.12"/>
</g>
<!-- C&#45;0103 -->
<g id="node58" class="node">
<title>C&#45;0103</title>
<ellipse fill="tomato" stroke="black" cx="459.5" cy="-1428" rx="68.5" ry="18"/>
<text text-anchor="middle" x="459.5" y="-1426.1" font-family="Helvetica,sans-Serif" font-size="8.00">C&#45;0103</text>
</g>
<!-- C&#45;0687&#45;&gt;C&#45;0103 -->
<g id="edge3" class="edge">
<title>C&#45;0687&#45;&gt;C&#45;0103</title>
<path fill="none" stroke="dimgray" stroke-width="0.8" d="M563.77,-1522C541.77,-1522 523,-1522 523,-1522 523,-1522 523,-1441.76 523,-1441.76"/>
<polygon fill="dimgray" stroke="dimgray" stroke-width="0.8" points="525.45,-1441.76 523,-1434.76 520.55,-1441.76 525.45,-1441.76"/>
</g>
<!-- S&#45;1943 -->
<g id="node28" class="node">
<title>S&#45;1943</title>
<polygon fill="mediumseagreen" stroke="black" points="545.5,-1352 477,-1334 545.5,-1316 614,-1334 545.5,-1352"/>
<text text-anchor="middle" x="545.5" y="-1332.1" font-family="Helvetica,sans-Serif" font-size="8.00">S&#45;1943</text>
</g>
<!-- C&#45;0459&#45;&gt;S&#45;1943 -->
<g id="edge5" class="edge">
<title>C&#45;0459&#45;&gt;S&#45;1943</title>
<path fill="none" stroke="dimgray" stroke-width="0.8" d="M753.67,-1416.14C753.67,-1402.22 753.67,-1381 753.67,-1381 753.67,-1381 589,-1381 589,-1381 589,-1381 589,-1347.94 589,-1347.94"/>
<polygon fill="dimgray" stroke="dimgray" stroke-width="0.8" points="591.45,-1347.93 589,-1340.94 586.55,-1347.94 591.45,-1347.93"/>
</g>
<!-- C&#45;0688 -->
<g id="node43" class="node">
<title>C&#45;0688</title>
<ellipse fill="mediumseagreen" stroke="black" cx="718.5" cy="-1334" rx="68.5" ry="18"/>
<text text-anchor="middle" x="718.5" y="-1332.1" font-family="Helvetica,sans-Serif" font-size="8.00">C&#45;0688</text>
</g>
<!-- C&#45;0459&#45;&gt;C&#45;0688 -->
<g id="edge55" class="edge">
<title>C&#45;0459&#45;&gt;C&#45;0688</title>
<path fill="none" stroke="dimgray" stroke-width="0.8" d="M770.33,-1412.48C770.33,-1412.48 770.33,-1352.96 770.33,-1352.96"/>
<polygon fill="dimgray" stroke="dimgray" stroke-width="0.8" points="772.78,-1352.96 770.33,-1345.96 767.88,-1352.96 772.78,-1352.96"/>
</g>
<!-- S&#45;1136 -->
<g id="node47" class="node">
<title>S&#45;1136</title>
<polygon fill="mediumseagreen" stroke="black" points="891.5,-1352 823,-1334 891.5,-1316 960,-1334 891.5,-1352"/>
<text text-anchor="middle" x="891.5" y="-1332.1" font-family="Helvetica,sans-Serif" font-size="8.00">S&#45;1136</text>
</g>
<!-- C&#45;0459&#45;&gt;S&#45;1136 -->
<g id="edge57" class="edge">
<title>C&#45;0459&#45;&gt;S&#45;1136</title>
<path fill="none" stroke="dimgray" stroke-width="0.8" d="M848.5,-1413.72C848.5,-1413.72 848.5,-1347.83 848.5,-1347.83"/>
<polygon fill="dimgray" stroke="dimgray" stroke-width="0.8" points="850.95,-1347.83 848.5,-1340.83 846.05,-1347.83 850.95,-1347.83"/>
</g>
<!-- C&#45;0263 -->
<g id="node51" class="node">
<title>C&#45;0263</title>
<ellipse fill="mediumseagreen" stroke="black" cx="1138.5" cy="-1334" rx="68.5" ry="18"/>
<text text-anchor="middle" x="1138.5" y="-1332.1" font-family="Helvetica,sans-Serif" font-size="8.00">C&#45;0263</text>
</g>
<!-- C&#45;0459&#45;&gt;C&#45;0263 -->
<g id="edge6" class="edge">
<title>C&#45;0459&#45;&gt;C&#45;0263</title>
<path fill="none" stroke="dimgray" stroke-width="0.8" d="M874.09,-1428C971.58,-1428 1138.5,-1428 1138.5,-1428 1138.5,-1428 1138.5,-1359.12 1138.5,-1359.12"/>
<polygon fill="dimgray" stroke="dimgray" stroke-width="0.8" points="1140.95,-1359.12 1138.5,-1352.12 1136.05,-1359.12 1140.95,-1359.12"/>
</g>
<!-- C&#45;0536 -->
<g id="node22" class="node">
<title>C&#45;0536</title>
<ellipse fill="tomato" stroke="black" cx="1175.5" cy="-1240" rx="68.5" ry="18"/>
<text text-anchor="middle" x="1175.5" y="-1238.1" font-family="Helvetica,sans-Serif" font-size="8.00">C&#45;0536</text>
</g>
<!-- C&#45;0536&#45;&gt;C&#45;0537 -->
<g id="edge60" class="edge">
<title>C&#45;0536&#45;&gt;C&#45;0537</title>
<path fill="none" stroke="blue" stroke-width="0.8" stroke-dasharray="5,2" d="M1193.5,-1222.55C1193.5,-1177 1193.5,-1058 1193.5,-1058 1193.5,-1058 1276.66,-1058 1276.66,-1058"/>
<polygon fill="blue" stroke="blue" stroke-width="0.8" points="1276.66,-1060.45 1283.66,-1058 1276.66,-1055.55 1276.66,-1060.45"/>
</g>
<!-- S&#45;2118&#45;&gt;S&#45;581 -->
<g id="edge35" class="edge">
<title>S&#45;2118&#45;&gt;S&#45;581</title>
<path fill="none" stroke="dimgray" stroke-width="0.8" d="M414.5,-93.88C414.5,-93.88 414.5,-43.07 414.5,-43.07"/>
<polygon fill="dimgray" stroke="dimgray" stroke-width="0.8" points="416.95,-43.07 414.5,-36.07 412.05,-43.07 416.95,-43.07"/>
</g>
<!-- C&#45;0314&#45;&gt;S&#45;652 -->
<g id="edge31" class="edge">
<title>C&#45;0314&#45;&gt;S&#45;652</title>
<path fill="none" stroke="dimgray" stroke-width="0.8" d="M695.83,-306C595.68,-306 414.5,-306 414.5,-306 414.5,-306 414.5,-231.34 414.5,-231.34"/>
<polygon fill="dimgray" stroke="dimgray" stroke-width="0.8" points="416.95,-231.34 414.5,-224.34 412.05,-231.34 416.95,-231.34"/>
</g>
<!-- C&#45;0314&#45;&gt;C&#45;0315 -->
<g id="edge32" class="edge">
<title>C&#45;0314&#45;&gt;C&#45;0315</title>
<path fill="none" stroke="dimgray" stroke-width="0.8" d="M695.59,-294C646.5,-294 587.5,-294 587.5,-294 587.5,-294 587.5,-231.23 587.5,-231.23"/>
<polygon fill="dimgray" stroke="dimgray" stroke-width="0.8" points="589.95,-231.23 587.5,-224.23 585.05,-231.23 589.95,-231.23"/>
</g>
<!-- S&#45;640 -->
<g id="node32" class="node">
<title>S&#45;640</title>
<polygon fill="mediumseagreen" stroke="black" points="760.5,-224 692,-206 760.5,-188 829,-206 760.5,-224"/>
<text text-anchor="middle" x="760.5" y="-204.1" font-family="Helvetica,sans-Serif" font-size="8.00">S&#45;640</text>
</g>
<!-- C&#45;0314&#45;&gt;S&#45;640 -->
<g id="edge43" class="edge">
<title>C&#45;0314&#45;&gt;S&#45;640</title>
<path fill="none" stroke="dimgray" stroke-width="0.8" d="M760.5,-281.88C760.5,-281.88 760.5,-231.07 760.5,-231.07"/>
<polygon fill="dimgray" stroke="dimgray" stroke-width="0.8" points="762.95,-231.07 760.5,-224.07 758.05,-231.07 762.95,-231.07"/>
</g>
<!-- S&#45;2116 -->
<g id="node33" class="node">
<title>S&#45;2116</title>
<polygon fill="mediumseagreen" stroke="black" points="933.5,-224 865,-206 933.5,-188 1002,-206 933.5,-224"/>
<text text-anchor="middle" x="933.5" y="-204.1" font-family="Helvetica,sans-Serif" font-size="8.00">S&#45;2116</text>
</g>
<!-- C&#45;0314&#45;&gt;S&#45;2116 -->
<g id="edge30" class="edge">
<title>C&#45;0314&#45;&gt;S&#45;2116</title>
<path fill="none" stroke="dimgray" stroke-width="0.8" d="M820.05,-291C877.67,-291 956.33,-291 956.33,-291 956.33,-291 956.33,-225.18 956.33,-225.18"/>
<polygon fill="dimgray" stroke="dimgray" stroke-width="0.8" points="958.78,-225.18 956.33,-218.18 953.88,-225.18 958.78,-225.18"/>
</g>
<!-- S&#45;1975 -->
<g id="node55" class="node">
<title>S&#45;1975</title>
<polygon fill="mediumseagreen" stroke="black" points="1106.5,-224 1038,-206 1106.5,-188 1175,-206 1106.5,-224"/>
<text text-anchor="middle" x="1106.5" y="-204.1" font-family="Helvetica,sans-Serif" font-size="8.00">S&#45;1975</text>
</g>
<!-- C&#45;0314&#45;&gt;S&#45;1975 -->
<g id="edge39" class="edge">
<title>C&#45;0314&#45;&gt;S&#45;1975</title>
<path fill="none" stroke="dimgray" stroke-width="0.8" d="M829.27,-300C930.18,-300 1106.5,-300 1106.5,-300 1106.5,-300 1106.5,-231.12 1106.5,-231.12"/>
<polygon fill="dimgray" stroke="dimgray" stroke-width="0.8" points="1108.95,-231.12 1106.5,-224.12 1104.05,-231.12 1108.95,-231.12"/>
</g>
<!-- S&#45;579 -->
<g id="node26" class="node">
<title>S&#45;579</title>
<polygon fill="mediumseagreen" stroke="black" points="1279.5,-130 1211,-112 1279.5,-94 1348,-112 1279.5,-130"/>
<text text-anchor="middle" x="1279.5" y="-110.1" font-family="Helvetica,sans-Serif" font-size="8.00">S&#45;579</text>
</g>
<!-- S&#45;2285 -->
<g id="node36" class="node">
<title>S&#45;2285</title>
<polygon fill="mediumseagreen" stroke="black" points="1279.5,-36 1211,-18 1279.5,0 1348,-18 1279.5,-36"/>
<text text-anchor="middle" x="1279.5" y="-16.1" font-family="Helvetica,sans-Serif" font-size="8.00">S&#45;2285</text>
</g>
<!-- S&#45;579&#45;&gt;S&#45;2285 -->
<g id="edge42" class="edge">
<title>S&#45;579&#45;&gt;S&#45;2285</title>
<path fill="none" stroke="dimgray" stroke-width="0.8" d="M1279.5,-93.88C1279.5,-93.88 1279.5,-43.07 1279.5,-43.07"/>
<polygon fill="dimgray" stroke="dimgray" stroke-width="0.8" points="1281.95,-43.07 1279.5,-36.07 1277.05,-43.07 1281.95,-43.07"/>
</g>
<!-- S&#45;1931 -->
<g id="node29" class="node">
<title>S&#45;1931</title>
<polygon fill="mediumseagreen" stroke="black" points="933.5,-130 865,-112 933.5,-94 1002,-112 933.5,-130"/>
<text text-anchor="middle" x="933.5" y="-110.1" font-family="Helvetica,sans-Serif" font-size="8.00">S&#45;1931</text>
</g>
<!-- S&#45;687 -->
<g id="node30" class="node">
<title>S&#45;687</title>
<polygon fill="mediumseagreen" stroke="black" points="1686.5,-788 1618,-770 1686.5,-752 1755,-770 1686.5,-788"/>
<text text-anchor="middle" x="1686.5" y="-768.1" font-family="Helvetica,sans-Serif" font-size="8.00">S&#45;687</text>
</g>
<!-- C&#45;0308 -->
<g id="node31" class="node">
<title>C&#45;0308</title>
<ellipse fill="tomato" stroke="black" cx="680.5" cy="-1240" rx="68.5" ry="18"/>
<text text-anchor="middle" x="680.5" y="-1238.1" font-family="Helvetica,sans-Serif" font-size="8.00">C&#45;0308</text>
</g>
<!-- ext_circ_316_22 -->
<g id="node61" class="node">
<title>ext_circ_316_22</title>
<polygon fill="lightpink" stroke="red" stroke-dasharray="5,2" points="332,-1732 195,-1732 195,-1696 332,-1696 332,-1732"/>
<text text-anchor="middle" x="263.5" y="-1716.6" font-family="Helvetica,sans-Serif" font-size="8.00">Circuito:</text>
<text text-anchor="middle" x="263.5" y="-1707.6" font-family="Helvetica,sans-Serif" font-size="8.00">316&#45;22</text>
</g>
<!-- C&#45;0308&#45;&gt;ext_circ_316_22 -->
<g id="edge65" class="edge">
<title>C&#45;0308&#45;&gt;ext_circ_316_22</title>
<path fill="none" stroke="red" stroke-width="0.8" stroke-dasharray="5,2" d="M611.83,-1240C508.88,-1240 326.5,-1240 326.5,-1240 326.5,-1240 326.5,-1689 326.5,-1689"/>
<polygon fill="red" stroke="red" stroke-width="0.8" points="324.05,-1689 326.5,-1696 328.95,-1689 324.05,-1689"/>
</g>
<!-- S&#45;640&#45;&gt;S&#45;1931 -->
<g id="edge44" class="edge">
<title>S&#45;640&#45;&gt;S&#45;1931</title>
<path fill="none" stroke="dimgray" stroke-width="0.8" d="M829.08,-206C839.58,-206 847,-206 847,-206 847,-206 847,-112 847,-112 847,-112 857.92,-112 857.92,-112"/>
<polygon fill="dimgray" stroke="dimgray" stroke-width="0.8" points="857.92,-114.45 864.92,-112 857.92,-109.55 857.92,-114.45"/>
</g>
<!-- C&#45;0855 -->
<g id="node34" class="node">
<title>C&#45;0855</title>
<ellipse fill="tomato" stroke="black" cx="1192.5" cy="-864" rx="68.5" ry="18"/>
<text text-anchor="middle" x="1192.5" y="-862.1" font-family="Helvetica,sans-Serif" font-size="8.00">C&#45;0855</text>
</g>
<!-- C&#45;0855&#45;&gt;C&#45;0856 -->
<g id="edge61" class="edge">
<title>C&#45;0855&#45;&gt;C&#45;0856</title>
<path fill="none" stroke="blue" stroke-width="0.8" stroke-dasharray="5,2" d="M1248.5,-853.43C1248.5,-814.58 1248.5,-682 1248.5,-682 1248.5,-682 918.09,-682 918.09,-682"/>
<polygon fill="blue" stroke="blue" stroke-width="0.8" points="918.09,-679.55 911.09,-682 918.09,-684.45 918.09,-679.55"/>
</g>
<!-- C&#45;0265&#45;&gt;C&#45;0575 -->
<g id="edge27" class="edge">
<title>C&#45;0265&#45;&gt;C&#45;0575</title>
<path fill="none" stroke="dimgray" stroke-width="0.8" d="M816.25,-565.63C816.25,-565.63 816.25,-505.64 816.25,-505.64"/>
<polygon fill="dimgray" stroke="dimgray" stroke-width="0.8" points="818.7,-505.64 816.25,-498.64 813.8,-505.64 818.7,-505.64"/>
</g>
<!-- C&#45;0265&#45;&gt;C&#45;0733 -->
<g id="edge23" class="edge">
<title>C&#45;0265&#45;&gt;C&#45;0733</title>
<path fill="none" stroke="dimgray" stroke-width="0.8" d="M803.5,-567.9C803.5,-548.78 803.5,-517 803.5,-517 803.5,-517 630.5,-517 630.5,-517 630.5,-517 630.5,-509.16 630.5,-509.16"/>
<polygon fill="dimgray" stroke="dimgray" stroke-width="0.8" points="632.95,-509.16 630.5,-502.16 628.05,-509.16 632.95,-509.16"/>
</g>
<!-- C&#45;0265&#45;&gt;C&#45;0574 -->
<g id="edge26" class="edge">
<title>C&#45;0265&#45;&gt;C&#45;0574</title>
<path fill="none" stroke="dimgray" stroke-width="0.8" d="M877.5,-565.63C877.5,-565.63 877.5,-505.37 877.5,-505.37"/>
<polygon fill="dimgray" stroke="dimgray" stroke-width="0.8" points="879.95,-505.37 877.5,-498.37 875.05,-505.37 879.95,-505.37"/>
</g>
<!-- S&#45;1741 -->
<g id="node37" class="node">
<title>S&#45;1741</title>
<polygon fill="mediumseagreen" stroke="black" points="1106.5,-506 1038,-488 1106.5,-470 1175,-488 1106.5,-506"/>
<text text-anchor="middle" x="1106.5" y="-486.1" font-family="Helvetica,sans-Serif" font-size="8.00">S&#45;1741</text>
</g>
<!-- C&#45;0265&#45;&gt;S&#45;1741 -->
<g id="edge25" class="edge">
<title>C&#45;0265&#45;&gt;S&#45;1741</title>
<path fill="none" stroke="dimgray" stroke-width="0.8" d="M890,-568.07C890,-552.37 890,-529 890,-529 890,-529 1063,-529 1063,-529 1063,-529 1063,-501.77 1063,-501.77"/>
<polygon fill="dimgray" stroke="dimgray" stroke-width="0.8" points="1065.45,-501.77 1063,-494.77 1060.55,-501.77 1065.45,-501.77"/>
</g>
<!-- C&#45;0734 -->
<g id="node45" class="node">
<title>C&#45;0734</title>
<ellipse fill="tomato" stroke="black" cx="414.5" cy="-488" rx="68.5" ry="18"/>
<text text-anchor="middle" x="414.5" y="-486.1" font-family="Helvetica,sans-Serif" font-size="8.00">C&#45;0734</text>
</g>
<!-- C&#45;0265&#45;&gt;C&#45;0734 -->
<g id="edge22" class="edge">
<title>C&#45;0265&#45;&gt;C&#45;0734</title>
<path fill="none" stroke="dimgray" stroke-width="0.8" d="M790.75,-571.4C790.75,-558.96 790.75,-540 790.75,-540 790.75,-540 434,-540 434,-540 434,-540 434,-512.32 434,-512.32"/>
<polygon fill="dimgray" stroke="dimgray" stroke-width="0.8" points="436.45,-512.32 434,-505.32 431.55,-512.32 436.45,-512.32"/>
</g>
<!-- S&#45;1322 -->
<g id="node46" class="node">
<title>S&#45;1322</title>
<polygon fill="mediumseagreen" stroke="black" points="1279.5,-506 1211,-488 1279.5,-470 1348,-488 1279.5,-506"/>
<text text-anchor="middle" x="1279.5" y="-486.1" font-family="Helvetica,sans-Serif" font-size="8.00">S&#45;1322</text>
</g>
<!-- C&#45;0265&#45;&gt;S&#45;1322 -->
<g id="edge45" class="edge">
<title>C&#45;0265&#45;&gt;S&#45;1322</title>
<path fill="none" stroke="dimgray" stroke-width="0.8" d="M902.5,-571.51C902.5,-562.86 902.5,-552 902.5,-552 902.5,-552 1223.5,-552 1223.5,-552 1223.5,-552 1223.5,-498.44 1223.5,-498.44"/>
<polygon fill="dimgray" stroke="dimgray" stroke-width="0.8" points="1225.95,-498.44 1223.5,-491.44 1221.05,-498.44 1225.95,-498.44"/>
</g>
<!-- C&#45;0264&#45;&gt;C&#45;0854 -->
<g id="edge16" class="edge">
<title>C&#45;0264&#45;&gt;C&#45;0854</title>
<path fill="none" stroke="dimgray" stroke-width="0.8" d="M1005.79,-958C946.05,-958 869,-958 869,-958 869,-958 869,-888.24 869,-888.24"/>
<polygon fill="dimgray" stroke="dimgray" stroke-width="0.8" points="871.45,-888.24 869,-881.24 866.55,-888.24 871.45,-888.24"/>
</g>
<!-- C&#45;0264&#45;&gt;S&#45;1714 -->
<g id="edge14" class="edge">
<title>C&#45;0264&#45;&gt;S&#45;1714</title>
<path fill="none" stroke="dimgray" stroke-width="0.8" d="M1047,-941.19C1047,-941.19 1047,-881.8 1047,-881.8"/>
<polygon fill="dimgray" stroke="dimgray" stroke-width="0.8" points="1049.45,-881.8 1047,-874.8 1044.55,-881.8 1049.45,-881.8"/>
</g>
<!-- C&#45;0264&#45;&gt;C&#45;0855 -->
<g id="edge15" class="edge">
<title>C&#45;0264&#45;&gt;C&#45;0855</title>
<path fill="none" stroke="dimgray" stroke-width="0.8" d="M1133.5,-948.64C1133.5,-948.64 1133.5,-880.32 1133.5,-880.32"/>
<polygon fill="dimgray" stroke="dimgray" stroke-width="0.8" points="1135.95,-880.32 1133.5,-873.32 1131.05,-880.32 1135.95,-880.32"/>
</g>
<!-- S&#45;688 -->
<g id="node39" class="node">
<title>S&#45;688</title>
<polygon fill="mediumseagreen" stroke="black" points="1365.5,-882 1297,-864 1365.5,-846 1434,-864 1365.5,-882"/>
<text text-anchor="middle" x="1365.5" y="-862.1" font-family="Helvetica,sans-Serif" font-size="8.00">S&#45;688</text>
</g>
<!-- S&#45;688&#45;&gt;S&#45;1964 -->
<g id="edge49" class="edge">
<title>S&#45;688&#45;&gt;S&#45;1964</title>
<path fill="none" stroke="dimgray" stroke-width="0.8" d="M1296.74,-864C1279.85,-864 1266.5,-864 1266.5,-864 1266.5,-864 1266.5,-770 1266.5,-770 1266.5,-770 1243.26,-770 1243.26,-770"/>
<polygon fill="dimgray" stroke="dimgray" stroke-width="0.8" points="1243.26,-767.55 1236.26,-770 1243.26,-772.45 1243.26,-767.55"/>
</g>
<!-- S&#45;688&#45;&gt;S&#45;2095 -->
<g id="edge52" class="edge">
<title>S&#45;688&#45;&gt;S&#45;2095</title>
<path fill="none" stroke="dimgray" stroke-width="0.8" d="M1353,-848.9C1353,-848.9 1353,-791.76 1353,-791.76"/>
<polygon fill="dimgray" stroke="dimgray" stroke-width="0.8" points="1355.45,-791.76 1353,-784.76 1350.55,-791.76 1355.45,-791.76"/>
</g>
<!-- S&#45;688&#45;&gt;S&#45;1561 -->
<g id="edge51" class="edge">
<title>S&#45;688&#45;&gt;S&#45;1561</title>
<path fill="none" stroke="dimgray" stroke-width="0.8" d="M1425.67,-861.68C1425.67,-847.2 1425.67,-770 1425.67,-770 1425.67,-770 1437.73,-770 1437.73,-770"/>
<polygon fill="dimgray" stroke="dimgray" stroke-width="0.8" points="1437.73,-772.45 1444.73,-770 1437.73,-767.55 1437.73,-772.45"/>
</g>
<!-- S&#45;688&#45;&gt;S&#45;687 -->
<g id="edge50" class="edge">
<title>S&#45;688&#45;&gt;S&#45;687</title>
<path fill="none" stroke="dimgray" stroke-width="0.8" d="M1417.33,-859.32C1417.33,-847.43 1417.33,-817 1417.33,-817 1417.33,-817 1630.5,-817 1630.5,-817 1630.5,-817 1630.5,-780.38 1630.5,-780.38"/>
<polygon fill="dimgray" stroke="dimgray" stroke-width="0.8" points="1632.95,-780.38 1630.5,-773.38 1628.05,-780.38 1632.95,-780.38"/>
</g>
<!-- R&#45;143&#45;&gt;ext_circ_316_22 -->
<g id="edge63" class="edge">
<title>R&#45;143&#45;&gt;ext_circ_316_22</title>
<path fill="none" stroke="red" stroke-width="0.8" stroke-dasharray="5,2" d="M518.86,-394C438.29,-394 315.5,-394 315.5,-394 315.5,-394 315.5,-1688.84 315.5,-1688.84"/>
<polygon fill="red" stroke="red" stroke-width="0.8" points="313.05,-1688.84 315.5,-1695.84 317.95,-1688.84 313.05,-1688.84"/>
</g>
<!-- C&#45;0688&#45;&gt;C&#45;0308 -->
<g id="edge56" class="edge">
<title>C&#45;0688&#45;&gt;C&#45;0308</title>
<path fill="none" stroke="dimgray" stroke-width="0.8" d="M699.5,-1316.32C699.5,-1316.32 699.5,-1264.6 699.5,-1264.6"/>
<polygon fill="dimgray" stroke="dimgray" stroke-width="0.8" points="701.95,-1264.6 699.5,-1257.6 697.05,-1264.6 701.95,-1264.6"/>
</g>
<!-- S&#45;1963 -->
<g id="node44" class="node">
<title>S&#45;1963</title>
<polygon fill="mediumseagreen" stroke="black" points="1538.5,-882 1470,-864 1538.5,-846 1607,-864 1538.5,-882"/>
<text text-anchor="middle" x="1538.5" y="-862.1" font-family="Helvetica,sans-Serif" font-size="8.00">S&#45;1963</text>
</g>
<!-- C&#45;0734&#45;&gt;ext_circ_316_22 -->
<g id="edge62" class="edge">
<title>C&#45;0734&#45;&gt;ext_circ_316_22</title>
<path fill="none" stroke="red" stroke-width="0.8" stroke-dasharray="5,2" d="M345.57,-488C331.55,-488 321,-488 321,-488 321,-488 321,-1688.72 321,-1688.72"/>
<polygon fill="red" stroke="red" stroke-width="0.8" points="318.55,-1688.72 321,-1695.72 323.45,-1688.72 318.55,-1688.72"/>
</g>
<!-- R&#45;195&#45;&gt;C&#45;0856 -->
<g id="edge18" class="edge">
<title>R&#45;195&#45;&gt;C&#45;0856</title>
<path fill="none" stroke="dimgray" stroke-width="0.8" d="M846.5,-751.88C846.5,-751.88 846.5,-701.07 846.5,-701.07"/>
<polygon fill="dimgray" stroke="dimgray" stroke-width="0.8" points="848.95,-701.07 846.5,-694.07 844.05,-701.07 848.95,-701.07"/>
</g>
<!-- S&#45;686&#45;&gt;S&#45;688 -->
<g id="edge48" class="edge">
<title>S&#45;686&#45;&gt;S&#45;688</title>
<path fill="none" stroke="dimgray" stroke-width="0.8" d="M1426.5,-955.68C1426.5,-955.68 1426.5,-873.24 1426.5,-873.24"/>
<polygon fill="dimgray" stroke="dimgray" stroke-width="0.8" points="1428.95,-873.24 1426.5,-866.24 1424.05,-873.24 1428.95,-873.24"/>
</g>
<!-- S&#45;686&#45;&gt;S&#45;1963 -->
<g id="edge47" class="edge">
<title>S&#45;686&#45;&gt;S&#45;1963</title>
<path fill="none" stroke="dimgray" stroke-width="0.8" d="M1513,-946.47C1513,-946.47 1513,-882.33 1513,-882.33"/>
<polygon fill="dimgray" stroke="dimgray" stroke-width="0.8" points="1515.45,-882.33 1513,-875.33 1510.55,-882.33 1515.45,-882.33"/>
</g>
<!-- C&#45;0263&#45;&gt;S&#45;1713 -->
<g id="edge7" class="edge">
<title>C&#45;0263&#45;&gt;S&#45;1713</title>
<path fill="none" stroke="dimgray" stroke-width="0.8" d="M1089,-1321.32C1089,-1295.66 1089,-1240 1089,-1240 1089,-1240 1078.08,-1240 1078.08,-1240"/>
<polygon fill="dimgray" stroke="dimgray" stroke-width="0.8" points="1078.08,-1237.55 1071.08,-1240 1078.08,-1242.45 1078.08,-1237.55"/>
</g>
<!-- C&#45;0263&#45;&gt;C&#45;0536 -->
<g id="edge9" class="edge">
<title>C&#45;0263&#45;&gt;C&#45;0536</title>
<path fill="none" stroke="dimgray" stroke-width="0.8" d="M1157,-1316.32C1157,-1316.32 1157,-1264.6 1157,-1264.6"/>
<polygon fill="dimgray" stroke="dimgray" stroke-width="0.8" points="1159.45,-1264.6 1157,-1257.6 1154.55,-1264.6 1159.45,-1264.6"/>
</g>
<!-- C&#45;0535 -->
<g id="node57" class="node">
<title>C&#45;0535</title>
<ellipse fill="mediumseagreen" stroke="black" cx="1348.5" cy="-1240" rx="68.5" ry="18"/>
<text text-anchor="middle" x="1348.5" y="-1238.1" font-family="Helvetica,sans-Serif" font-size="8.00">C&#45;0535</text>
</g>
<!-- C&#45;0263&#45;&gt;C&#45;0535 -->
<g id="edge8" class="edge">
<title>C&#45;0263&#45;&gt;C&#45;0535</title>
<path fill="none" stroke="dimgray" stroke-width="0.8" d="M1207.26,-1334C1268.51,-1334 1348.5,-1334 1348.5,-1334 1348.5,-1334 1348.5,-1265.12 1348.5,-1265.12"/>
<polygon fill="dimgray" stroke="dimgray" stroke-width="0.8" points="1350.95,-1265.12 1348.5,-1258.12 1346.05,-1265.12 1350.95,-1265.12"/>
</g>
<!-- R&#45;106&#45;&gt;C&#45;0314 -->
<g id="edge29" class="edge">
<title>R&#45;106&#45;&gt;C&#45;0314</title>
<path fill="none" stroke="dimgray" stroke-width="0.8" d="M760.5,-375.88C760.5,-375.88 760.5,-325.07 760.5,-325.07"/>
<polygon fill="dimgray" stroke="dimgray" stroke-width="0.8" points="762.95,-325.07 760.5,-318.07 758.05,-325.07 762.95,-325.07"/>
</g>
<!-- C&#45;0169&#45;&gt;C&#45;0687 -->
<g id="edge2" class="edge">
<title>C&#45;0169&#45;&gt;C&#45;0687</title>
<path fill="none" stroke="dimgray" stroke-width="0.8" d="M632.5,-1597.88C632.5,-1597.88 632.5,-1547.07 632.5,-1547.07"/>
<polygon fill="dimgray" stroke="dimgray" stroke-width="0.8" points="634.95,-1547.07 632.5,-1540.07 630.05,-1547.07 634.95,-1547.07"/>
</g>
<!-- S&#45;1975&#45;&gt;S&#45;578 -->
<g id="edge40" class="edge">
<title>S&#45;1975&#45;&gt;S&#45;578</title>
<path fill="none" stroke="dimgray" stroke-width="0.8" d="M1106.5,-187.88C1106.5,-187.88 1106.5,-137.07 1106.5,-137.07"/>
<polygon fill="dimgray" stroke="dimgray" stroke-width="0.8" points="1108.95,-137.07 1106.5,-130.07 1104.05,-137.07 1108.95,-137.07"/>
</g>
<!-- S&#45;1975&#45;&gt;S&#45;579 -->
<g id="edge41" class="edge">
<title>S&#45;1975&#45;&gt;S&#45;579</title>
<path fill="none" stroke="dimgray" stroke-width="0.8" d="M1175.37,-206C1223.62,-206 1279.5,-206 1279.5,-206 1279.5,-206 1279.5,-137.12 1279.5,-137.12"/>
<polygon fill="dimgray" stroke="dimgray" stroke-width="0.8" points="1281.95,-137.12 1279.5,-130.12 1277.05,-137.12 1281.95,-137.12"/>
</g>
<!-- R&#45;046 -->
<g id="node56" class="node">
<title>R&#45;046</title>
<polygon fill="mediumseagreen" stroke="black" points="1417,-1138.54 1417,-1153.46 1376.87,-1164 1320.13,-1164 1280,-1153.46 1280,-1138.54 1320.13,-1128 1376.87,-1128 1417,-1138.54"/>
<text text-anchor="middle" x="1348.5" y="-1144.1" font-family="Helvetica,sans-Serif" font-size="8.00">R&#45;046</text>
</g>
<!-- R&#45;046&#45;&gt;C&#45;0537 -->
<g id="edge11" class="edge">
<title>R&#45;046&#45;&gt;C&#45;0537</title>
<path fill="none" stroke="dimgray" stroke-width="0.8" d="M1348.5,-1127.88C1348.5,-1127.88 1348.5,-1077.07 1348.5,-1077.07"/>
<polygon fill="dimgray" stroke="dimgray" stroke-width="0.8" points="1350.95,-1077.07 1348.5,-1070.07 1346.05,-1077.07 1350.95,-1077.07"/>
</g>
<!-- C&#45;0535&#45;&gt;R&#45;046 -->
<g id="edge10" class="edge">
<title>C&#45;0535&#45;&gt;R&#45;046</title>
<path fill="none" stroke="dimgray" stroke-width="0.8" d="M1348.5,-1221.88C1348.5,-1221.88 1348.5,-1171.07 1348.5,-1171.07"/>
<polygon fill="dimgray" stroke="dimgray" stroke-width="0.8" points="1350.95,-1171.07 1348.5,-1164.07 1346.05,-1171.07 1350.95,-1171.07"/>
</g>
<!-- ext_circ_303_24_ -->
<g id="node60" class="node">
<title>ext_circ_303_24_</title>
<polygon fill="lightpink" stroke="red" stroke-dasharray="5,2" points="518,-1732 381,-1732 381,-1696 518,-1696 518,-1732"/>
<text text-anchor="middle" x="449.5" y="-1716.6" font-family="Helvetica,sans-Serif" font-size="8.00">Circuito:</text>
<text text-anchor="middle" x="449.5" y="-1707.6" font-family="Helvetica,sans-Serif" font-size="8.00">303&#45;24&#45;</text>
</g>
<!-- C&#45;0103&#45;&gt;ext_circ_303_24_ -->
<g id="edge59" class="edge">
<title>C&#45;0103&#45;&gt;ext_circ_303_24_</title>
<path fill="none" stroke="red" stroke-width="0.8" stroke-dasharray="5,2" d="M454.5,-1446.33C454.5,-1446.33 454.5,-1688.83 454.5,-1688.83"/>
<polygon fill="red" stroke="red" stroke-width="0.8" points="452.05,-1688.83 454.5,-1695.83 456.95,-1688.83 452.05,-1688.83"/>
</g>
<!-- S&#45;690&#45;&gt;S&#45;685 -->
<g id="edge54" class="edge">
<title>S&#45;690&#45;&gt;S&#45;685</title>
<path fill="none" stroke="dimgray" stroke-width="0.8" d="M1686,-946.47C1686,-946.47 1686,-882.33 1686,-882.33"/>
<polygon fill="dimgray" stroke="dimgray" stroke-width="0.8" points="1688.45,-882.33 1686,-875.33 1683.55,-882.33 1688.45,-882.33"/>
</g>
</g>
</svg>
