<?xml version="1.0" encoding="UTF-8" standalone="no"?>
<!DOCTYPE svg PUBLIC "-//W3C//DTD SVG 1.1//EN"
 "http://www.w3.org/Graphics/SVG/1.1/DTD/svg11.dtd">
<!-- Generated by graphviz version 2.50.0 (0)
 -->
<!-- Title: Grafo_Circuito_110_24_ Pages: 1 -->
<svg width="1221pt" height="1574pt"
 viewBox="0.00 0.00 1221.00 1574.00" xmlns="http://www.w3.org/2000/svg" xmlns:xlink="http://www.w3.org/1999/xlink">
<g id="graph0" class="graph" transform="scale(1 1) rotate(0) translate(4 1570)">
<title>Grafo_Circuito_110_24_</title>
<polygon fill="white" stroke="transparent" points="-4,4 -4,-1570 1217,-1570 1217,4 -4,4"/>
<!-- S&#45;1582 -->
<g id="node1" class="node">
<title>S&#45;1582</title>
<polygon fill="mediumseagreen" stroke="black" points="217,-1053 145,-1031.5 217,-1010 289,-1031.5 217,-1053"/>
<text text-anchor="middle" x="217" y="-1029" font-family="Arial" font-size="10.00">S&#45;1582</text>
</g>
<!-- S&#45;1427 -->
<g id="node2" class="node">
<title>S&#45;1427</title>
<polygon fill="mediumseagreen" stroke="black" points="307,-1255 235,-1233.5 307,-1212 379,-1233.5 307,-1255"/>
<text text-anchor="middle" x="307" y="-1231" font-family="Arial" font-size="10.00">S&#45;1427</text>
</g>
<!-- C&#45;0745 -->
<g id="node3" class="node">
<title>C&#45;0745</title>
<ellipse fill="mediumseagreen" stroke="black" cx="867" cy="-223.5" rx="72" ry="21.5"/>
<text text-anchor="middle" x="867" y="-221" font-family="Arial" font-size="10.00">C&#45;0745</text>
</g>
<!-- R&#45;162 -->
<g id="node20" class="node">
<title>R&#45;162</title>
<polygon fill="tomato" stroke="black" points="912,-113.59 912,-131.41 869.82,-144 810.18,-144 768,-131.41 768,-113.59 810.18,-101 869.82,-101 912,-113.59"/>
<text text-anchor="middle" x="840" y="-120" font-family="Arial" font-size="10.00">R&#45;162</text>
</g>
<!-- C&#45;0745&#45;&gt;R&#45;162 -->
<g id="edge22" class="edge">
<title>C&#45;0745&#45;&gt;R&#45;162</title>
<path fill="none" stroke="#4d4d4d" d="M853.5,-202.08C853.5,-202.08 853.5,-151.24 853.5,-151.24"/>
<polygon fill="#4d4d4d" stroke="#4d4d4d" points="855.95,-151.24 853.5,-144.24 851.05,-151.24 855.95,-151.24"/>
</g>
<!-- C&#45;0715 -->
<g id="node4" class="node">
<title>C&#45;0715</title>
<ellipse fill="mediumseagreen" stroke="black" cx="778" cy="-728.5" rx="72" ry="21.5"/>
<text text-anchor="middle" x="778" y="-726" font-family="Arial" font-size="10.00">C&#45;0715</text>
</g>
<!-- C&#45;0716 -->
<g id="node25" class="node">
<title>C&#45;0716</title>
<ellipse fill="mediumseagreen" stroke="black" cx="778" cy="-627.5" rx="72" ry="21.5"/>
<text text-anchor="middle" x="778" y="-625" font-family="Arial" font-size="10.00">C&#45;0716</text>
</g>
<!-- C&#45;0715&#45;&gt;C&#45;0716 -->
<g id="edge16" class="edge">
<title>C&#45;0715&#45;&gt;C&#45;0716</title>
<path fill="none" stroke="#4d4d4d" d="M778,-706.58C778,-706.58 778,-656.03 778,-656.03"/>
<polygon fill="#4d4d4d" stroke="#4d4d4d" points="780.45,-656.03 778,-649.03 775.55,-656.03 780.45,-656.03"/>
</g>
<!-- 110&#45;24&#45; -->
<g id="node5" class="node">
<title>110&#45;24&#45;</title>
<polygon fill="gold" stroke="black" points="649,-1531.59 649,-1549.41 606.82,-1562 547.18,-1562 505,-1549.41 505,-1531.59 547.18,-1519 606.82,-1519 649,-1531.59"/>
<polygon fill="none" stroke="black" points="653,-1528.61 653,-1552.39 607.41,-1566 546.59,-1566 501,-1552.39 501,-1528.61 546.59,-1515 607.41,-1515 653,-1528.61"/>
<text text-anchor="middle" x="577" y="-1538" font-family="Arial" font-size="10.00">110&#45;24&#45;</text>
</g>
<!-- C&#45;0096 -->
<g id="node16" class="node">
<title>C&#45;0096</title>
<ellipse fill="mediumseagreen" stroke="black" cx="577" cy="-1435.5" rx="72" ry="21.5"/>
<text text-anchor="middle" x="577" y="-1433" font-family="Arial" font-size="10.00">C&#45;0096</text>
</g>
<!-- 110&#45;24&#45;&#45;&gt;C&#45;0096 -->
<g id="edge1" class="edge">
<title>110&#45;24&#45;&#45;&gt;C&#45;0096</title>
<path fill="none" stroke="#4d4d4d" d="M577,-1514.81C577,-1514.81 577,-1464.03 577,-1464.03"/>
<polygon fill="#4d4d4d" stroke="#4d4d4d" points="579.45,-1464.03 577,-1457.03 574.55,-1464.03 579.45,-1464.03"/>
</g>
<!-- C&#45;0779 -->
<g id="node6" class="node">
<title>C&#45;0779</title>
<ellipse fill="tomato" stroke="black" cx="72" cy="-930.5" rx="72" ry="21.5"/>
<text text-anchor="middle" x="72" y="-928" font-family="Arial" font-size="10.00">C&#45;0779</text>
</g>
<!-- ext_circ_110_22_ -->
<g id="node37" class="node">
<title>ext_circ_110_22_</title>
<polygon fill="lightpink" stroke="darkorange" stroke-dasharray="5,2" points="1002,-43 858,-43 858,0 1002,0 1002,-43"/>
<text text-anchor="middle" x="930" y="-24.5" font-family="Arial" font-size="10.00">Circuito:</text>
<text text-anchor="middle" x="930" y="-13.5" font-family="Arial" font-size="10.00">110&#45;22&#45;</text>
</g>
<!-- C&#45;0779&#45;&gt;ext_circ_110_22_ -->
<g id="edge44" class="edge">
<title>C&#45;0779&#45;&gt;ext_circ_110_22_</title>
<path fill="none" stroke="darkorange" stroke-dasharray="5,2" d="M40,-911.08C40,-779.27 40,-21 40,-21 40,-21 850.92,-21 850.92,-21"/>
<polygon fill="darkorange" stroke="darkorange" points="850.92,-23.45 857.92,-21 850.92,-18.55 850.92,-23.45"/>
</g>
<!-- R&#45;172 -->
<g id="node7" class="node">
<title>R&#45;172</title>
<polygon fill="tomato" stroke="black" points="1213,-820.59 1213,-838.41 1170.82,-851 1111.18,-851 1069,-838.41 1069,-820.59 1111.18,-808 1170.82,-808 1213,-820.59"/>
<text text-anchor="middle" x="1141" y="-827" font-family="Arial" font-size="10.00">R&#45;172</text>
</g>
<!-- R&#45;172&#45;&gt;ext_circ_110_22_ -->
<g id="edge43" class="edge">
<title>R&#45;172&#45;&gt;ext_circ_110_22_</title>
<path fill="none" stroke="darkorange" stroke-dasharray="5,2" d="M1152.5,-807.87C1152.5,-679.3 1152.5,-21 1152.5,-21 1152.5,-21 1009.24,-21 1009.24,-21"/>
<polygon fill="darkorange" stroke="darkorange" points="1009.24,-18.55 1002.24,-21 1009.24,-23.45 1009.24,-18.55"/>
</g>
<!-- C&#45;0135 -->
<g id="node8" class="node">
<title>C&#45;0135</title>
<ellipse fill="mediumseagreen" stroke="black" cx="577" cy="-1132.5" rx="72" ry="21.5"/>
<text text-anchor="middle" x="577" y="-1130" font-family="Arial" font-size="10.00">C&#45;0135</text>
</g>
<!-- C&#45;0135&#45;&gt;S&#45;1582 -->
<g id="edge9" class="edge">
<title>C&#45;0135&#45;&gt;S&#45;1582</title>
<path fill="none" stroke="#4d4d4d" d="M508.26,-1139C415.58,-1139 262,-1139 262,-1139 262,-1139 262,-1046.58 262,-1046.58"/>
<polygon fill="#4d4d4d" stroke="#4d4d4d" points="264.45,-1046.58 262,-1039.58 259.55,-1046.58 264.45,-1046.58"/>
</g>
<!-- S&#45;1591 -->
<g id="node12" class="node">
<title>S&#45;1591</title>
<polygon fill="mediumseagreen" stroke="black" points="397,-1053 325,-1031.5 397,-1010 469,-1031.5 397,-1053"/>
<text text-anchor="middle" x="397" y="-1029" font-family="Arial" font-size="10.00">S&#45;1591</text>
</g>
<!-- C&#45;0135&#45;&gt;S&#45;1591 -->
<g id="edge31" class="edge">
<title>C&#45;0135&#45;&gt;S&#45;1591</title>
<path fill="none" stroke="#4d4d4d" d="M509.5,-1125C475.75,-1125 442,-1125 442,-1125 442,-1125 442,-1046.8 442,-1046.8"/>
<polygon fill="#4d4d4d" stroke="#4d4d4d" points="444.45,-1046.8 442,-1039.8 439.55,-1046.8 444.45,-1046.8"/>
</g>
<!-- C&#45;0504 -->
<g id="node23" class="node">
<title>C&#45;0504</title>
<ellipse fill="tomato" stroke="black" cx="577" cy="-1031.5" rx="72" ry="21.5"/>
<text text-anchor="middle" x="577" y="-1029" font-family="Arial" font-size="10.00">C&#45;0504</text>
</g>
<!-- C&#45;0135&#45;&gt;C&#45;0504 -->
<g id="edge11" class="edge">
<title>C&#45;0135&#45;&gt;C&#45;0504</title>
<path fill="none" stroke="#4d4d4d" d="M553,-1112.06C553,-1112.06 553,-1058.91 553,-1058.91"/>
<polygon fill="#4d4d4d" stroke="#4d4d4d" points="555.45,-1058.91 553,-1051.91 550.55,-1058.91 555.45,-1058.91"/>
</g>
<!-- S&#45;136 -->
<g id="node29" class="node">
<title>S&#45;136</title>
<polygon fill="mediumseagreen" stroke="black" points="757,-1053 685,-1031.5 757,-1010 829,-1031.5 757,-1053"/>
<text text-anchor="middle" x="757" y="-1029" font-family="Arial" font-size="10.00">S&#45;136</text>
</g>
<!-- C&#45;0135&#45;&gt;S&#45;136 -->
<g id="edge8" class="edge">
<title>C&#45;0135&#45;&gt;S&#45;136</title>
<path fill="none" stroke="#4d4d4d" d="M649.14,-1132C652.8,-1132 655,-1132 655,-1132 655,-1132 655,-1031 655,-1031 655,-1031 679.44,-1031 679.44,-1031"/>
<polygon fill="#4d4d4d" stroke="#4d4d4d" points="679.44,-1033.45 686.44,-1031 679.44,-1028.55 679.44,-1033.45"/>
</g>
<!-- C&#45;0505 -->
<g id="node34" class="node">
<title>C&#45;0505</title>
<ellipse fill="mediumseagreen" stroke="black" cx="937" cy="-1031.5" rx="72" ry="21.5"/>
<text text-anchor="middle" x="937" y="-1029" font-family="Arial" font-size="10.00">C&#45;0505</text>
</g>
<!-- C&#45;0135&#45;&gt;C&#45;0505 -->
<g id="edge10" class="edge">
<title>C&#45;0135&#45;&gt;C&#45;0505</title>
<path fill="none" stroke="#4d4d4d" d="M601,-1112.02C601,-1094.47 601,-1072 601,-1072 601,-1072 937,-1072 937,-1072 937,-1072 937,-1060.17 937,-1060.17"/>
<polygon fill="#4d4d4d" stroke="#4d4d4d" points="939.45,-1060.17 937,-1053.17 934.55,-1060.17 939.45,-1060.17"/>
</g>
<!-- C&#45;0748 -->
<g id="node9" class="node">
<title>C&#45;0748</title>
<ellipse fill="mediumseagreen" stroke="black" cx="1020" cy="-324.5" rx="72" ry="21.5"/>
<text text-anchor="middle" x="1020" y="-322" font-family="Arial" font-size="10.00">C&#45;0748</text>
</g>
<!-- C&#45;0748&#45;&gt;C&#45;0745 -->
<g id="edge21" class="edge">
<title>C&#45;0748&#45;&gt;C&#45;0745</title>
<path fill="none" stroke="#4d4d4d" d="M952.38,-317C936.7,-317 924.5,-317 924.5,-317 924.5,-317 924.5,-243.5 924.5,-243.5"/>
<polygon fill="#4d4d4d" stroke="#4d4d4d" points="926.95,-243.5 924.5,-236.5 922.05,-243.5 926.95,-243.5"/>
</g>
<!-- C&#45;0744 -->
<g id="node24" class="node">
<title>C&#45;0744</title>
<ellipse fill="tomato" stroke="black" cx="1020" cy="-122.5" rx="72" ry="21.5"/>
<text text-anchor="middle" x="1020" y="-120" font-family="Arial" font-size="10.00">C&#45;0744</text>
</g>
<!-- C&#45;0748&#45;&gt;C&#45;0744 -->
<g id="edge23" class="edge">
<title>C&#45;0748&#45;&gt;C&#45;0744</title>
<path fill="none" stroke="#4d4d4d" d="M1020,-302.88C1020,-302.88 1020,-151.27 1020,-151.27"/>
<polygon fill="#4d4d4d" stroke="#4d4d4d" points="1022.45,-151.27 1020,-144.27 1017.55,-151.27 1022.45,-151.27"/>
</g>
<!-- S&#45;1412 -->
<g id="node10" class="node">
<title>S&#45;1412</title>
<polygon fill="mediumseagreen" stroke="black" points="152,-447 80,-425.5 152,-404 224,-425.5 152,-447"/>
<text text-anchor="middle" x="152" y="-423" font-family="Arial" font-size="10.00">S&#45;1412</text>
</g>
<!-- S&#45;1690 -->
<g id="node11" class="node">
<title>S&#45;1690</title>
<polygon fill="mediumseagreen" stroke="black" points="332,-447 260,-425.5 332,-404 404,-425.5 332,-447"/>
<text text-anchor="middle" x="332" y="-423" font-family="Arial" font-size="10.00">S&#45;1690</text>
</g>
<!-- C&#45;0187 -->
<g id="node13" class="node">
<title>C&#45;0187</title>
<ellipse fill="mediumseagreen" stroke="black" cx="523" cy="-526.5" rx="72" ry="21.5"/>
<text text-anchor="middle" x="523" y="-524" font-family="Arial" font-size="10.00">C&#45;0187</text>
</g>
<!-- C&#45;0187&#45;&gt;S&#45;1412 -->
<g id="edge29" class="edge">
<title>C&#45;0187&#45;&gt;S&#45;1412</title>
<path fill="none" stroke="#4d4d4d" d="M450.8,-526C351.38,-526 184.5,-526 184.5,-526 184.5,-526 184.5,-444.42 184.5,-444.42"/>
<polygon fill="#4d4d4d" stroke="#4d4d4d" points="186.95,-444.42 184.5,-437.42 182.05,-444.42 186.95,-444.42"/>
</g>
<!-- C&#45;0187&#45;&gt;S&#45;1690 -->
<g id="edge30" class="edge">
<title>C&#45;0187&#45;&gt;S&#45;1690</title>
<path fill="none" stroke="#4d4d4d" d="M469,-511.96C469,-483.89 469,-425 469,-425 469,-425 409.51,-425 409.51,-425"/>
<polygon fill="#4d4d4d" stroke="#4d4d4d" points="409.51,-422.55 402.51,-425 409.51,-427.45 409.51,-422.55"/>
</g>
<!-- C&#45;0693 -->
<g id="node17" class="node">
<title>C&#45;0693</title>
<ellipse fill="tomato" stroke="black" cx="433" cy="-324.5" rx="72" ry="21.5"/>
<text text-anchor="middle" x="433" y="-322" font-family="Arial" font-size="10.00">C&#45;0693</text>
</g>
<!-- C&#45;0187&#45;&gt;C&#45;0693 -->
<g id="edge28" class="edge">
<title>C&#45;0187&#45;&gt;C&#45;0693</title>
<path fill="none" stroke="#4d4d4d" d="M487,-507.86C487,-507.86 487,-345.93 487,-345.93"/>
<polygon fill="#4d4d4d" stroke="#4d4d4d" points="489.45,-345.93 487,-338.93 484.55,-345.93 489.45,-345.93"/>
</g>
<!-- C&#45;0428 -->
<g id="node30" class="node">
<title>C&#45;0428</title>
<ellipse fill="mediumseagreen" stroke="black" cx="586" cy="-425.5" rx="72" ry="21.5"/>
<text text-anchor="middle" x="586" y="-423" font-family="Arial" font-size="10.00">C&#45;0428</text>
</g>
<!-- C&#45;0187&#45;&gt;C&#45;0428 -->
<g id="edge26" class="edge">
<title>C&#45;0187&#45;&gt;C&#45;0428</title>
<path fill="none" stroke="#4d4d4d" d="M554.5,-507.03C554.5,-507.03 554.5,-451.91 554.5,-451.91"/>
<polygon fill="#4d4d4d" stroke="#4d4d4d" points="556.95,-451.91 554.5,-444.91 552.05,-451.91 556.95,-451.91"/>
</g>
<!-- S&#45;1283 -->
<g id="node31" class="node">
<title>S&#45;1283</title>
<polygon fill="mediumseagreen" stroke="black" points="766,-447 694,-425.5 766,-404 838,-425.5 766,-447"/>
<text text-anchor="middle" x="766" y="-423" font-family="Arial" font-size="10.00">S&#45;1283</text>
</g>
<!-- C&#45;0187&#45;&gt;S&#45;1283 -->
<g id="edge25" class="edge">
<title>C&#45;0187&#45;&gt;S&#45;1283</title>
<path fill="none" stroke="#4d4d4d" d="M594.99,-526C644,-526 700,-526 700,-526 700,-526 700,-434.6 700,-434.6"/>
<polygon fill="#4d4d4d" stroke="#4d4d4d" points="702.45,-434.6 700,-427.6 697.55,-434.6 702.45,-434.6"/>
</g>
<!-- C&#45;0195 -->
<g id="node14" class="node">
<title>C&#45;0195</title>
<ellipse fill="mediumseagreen" stroke="black" cx="487" cy="-1334.5" rx="72" ry="21.5"/>
<text text-anchor="middle" x="487" y="-1332" font-family="Arial" font-size="10.00">C&#45;0195</text>
</g>
<!-- C&#45;0195&#45;&gt;S&#45;1427 -->
<g id="edge4" class="edge">
<title>C&#45;0195&#45;&gt;S&#45;1427</title>
<path fill="none" stroke="#4d4d4d" d="M414.82,-1334C364.75,-1334 307,-1334 307,-1334 307,-1334 307,-1262.31 307,-1262.31"/>
<polygon fill="#4d4d4d" stroke="#4d4d4d" points="309.45,-1262.31 307,-1255.31 304.55,-1262.31 309.45,-1262.31"/>
</g>
<!-- S&#45;116 -->
<g id="node26" class="node">
<title>S&#45;116</title>
<polygon fill="mediumseagreen" stroke="black" points="487,-1255 415,-1233.5 487,-1212 559,-1233.5 487,-1255"/>
<text text-anchor="middle" x="487" y="-1231" font-family="Arial" font-size="10.00">S&#45;116</text>
</g>
<!-- C&#45;0195&#45;&gt;S&#45;116 -->
<g id="edge35" class="edge">
<title>C&#45;0195&#45;&gt;S&#45;116</title>
<path fill="none" stroke="#4d4d4d" d="M487,-1312.58C487,-1312.58 487,-1262.03 487,-1262.03"/>
<polygon fill="#4d4d4d" stroke="#4d4d4d" points="489.45,-1262.03 487,-1255.03 484.55,-1262.03 489.45,-1262.03"/>
</g>
<!-- C&#45;0134 -->
<g id="node28" class="node">
<title>C&#45;0134</title>
<ellipse fill="mediumseagreen" stroke="black" cx="667" cy="-1233.5" rx="72" ry="21.5"/>
<text text-anchor="middle" x="667" y="-1231" font-family="Arial" font-size="10.00">C&#45;0134</text>
</g>
<!-- C&#45;0195&#45;&gt;C&#45;0134 -->
<g id="edge5" class="edge">
<title>C&#45;0195&#45;&gt;C&#45;0134</title>
<path fill="none" stroke="#4d4d4d" d="M559.22,-1334C569.68,-1334 577,-1334 577,-1334 577,-1334 577,-1233 577,-1233 577,-1233 587.78,-1233 587.78,-1233"/>
<polygon fill="#4d4d4d" stroke="#4d4d4d" points="587.78,-1235.45 594.78,-1233 587.78,-1230.55 587.78,-1235.45"/>
</g>
<!-- S&#45;2506 -->
<g id="node15" class="node">
<title>S&#45;2506</title>
<polygon fill="mediumseagreen" stroke="black" points="667,-1356 595,-1334.5 667,-1313 739,-1334.5 667,-1356"/>
<text text-anchor="middle" x="667" y="-1332" font-family="Arial" font-size="10.00">S&#45;2506</text>
</g>
<!-- C&#45;0096&#45;&gt;C&#45;0195 -->
<g id="edge3" class="edge">
<title>C&#45;0096&#45;&gt;C&#45;0195</title>
<path fill="none" stroke="#4d4d4d" d="M532,-1418.37C532,-1418.37 532,-1358.38 532,-1358.38"/>
<polygon fill="#4d4d4d" stroke="#4d4d4d" points="534.45,-1358.38 532,-1351.38 529.55,-1358.38 534.45,-1358.38"/>
</g>
<!-- C&#45;0096&#45;&gt;S&#45;2506 -->
<g id="edge2" class="edge">
<title>C&#45;0096&#45;&gt;S&#45;2506</title>
<path fill="none" stroke="#4d4d4d" d="M622,-1418.37C622,-1418.37 622,-1349.78 622,-1349.78"/>
<polygon fill="#4d4d4d" stroke="#4d4d4d" points="624.45,-1349.78 622,-1342.78 619.55,-1349.78 624.45,-1349.78"/>
</g>
<!-- ext_circ_205_22_ -->
<g id="node38" class="node">
<title>ext_circ_205_22_</title>
<polygon fill="lightpink" stroke="darkorange" stroke-dasharray="5,2" points="595,-245 451,-245 451,-202 595,-202 595,-245"/>
<text text-anchor="middle" x="523" y="-226.5" font-family="Arial" font-size="10.00">Circuito:</text>
<text text-anchor="middle" x="523" y="-215.5" font-family="Arial" font-size="10.00">205&#45;22&#45;</text>
</g>
<!-- C&#45;0693&#45;&gt;ext_circ_205_22_ -->
<g id="edge42" class="edge">
<title>C&#45;0693&#45;&gt;ext_circ_205_22_</title>
<path fill="none" stroke="darkorange" stroke-dasharray="5,2" d="M478,-307.37C478,-307.37 478,-252.31 478,-252.31"/>
<polygon fill="darkorange" stroke="darkorange" points="480.45,-252.31 478,-245.31 475.55,-252.31 480.45,-252.31"/>
</g>
<!-- C&#45;0714 -->
<g id="node18" class="node">
<title>C&#45;0714</title>
<ellipse fill="tomato" stroke="black" cx="958" cy="-728.5" rx="72" ry="21.5"/>
<text text-anchor="middle" x="958" y="-726" font-family="Arial" font-size="10.00">C&#45;0714</text>
</g>
<!-- C&#45;0714&#45;&gt;C&#45;0716 -->
<g id="edge37" class="edge">
<title>C&#45;0714&#45;&gt;C&#45;0716</title>
<path fill="none" stroke="blue" stroke-dasharray="5,2" d="M898,-716.53C898,-691.1 898,-634 898,-634 898,-634 853.76,-634 853.76,-634"/>
<polygon fill="blue" stroke="blue" points="853.76,-631.55 846.76,-634 853.76,-636.45 853.76,-631.55"/>
</g>
<!-- C&#45;0506 -->
<g id="node19" class="node">
<title>C&#45;0506</title>
<ellipse fill="mediumseagreen" stroke="black" cx="937" cy="-829.5" rx="72" ry="21.5"/>
<text text-anchor="middle" x="937" y="-827" font-family="Arial" font-size="10.00">C&#45;0506</text>
</g>
<!-- C&#45;0506&#45;&gt;C&#45;0715 -->
<g id="edge14" class="edge">
<title>C&#45;0506&#45;&gt;C&#45;0715</title>
<path fill="none" stroke="#4d4d4d" d="M875.5,-818.25C875.5,-791.82 875.5,-728 875.5,-728 875.5,-728 857.14,-728 857.14,-728"/>
<polygon fill="#4d4d4d" stroke="#4d4d4d" points="857.14,-725.55 850.14,-728 857.14,-730.45 857.14,-725.55"/>
</g>
<!-- C&#45;0506&#45;&gt;C&#45;0714 -->
<g id="edge15" class="edge">
<title>C&#45;0506&#45;&gt;C&#45;0714</title>
<path fill="none" stroke="#4d4d4d" d="M947.5,-808.08C947.5,-808.08 947.5,-756.89 947.5,-756.89"/>
<polygon fill="#4d4d4d" stroke="#4d4d4d" points="949.95,-756.89 947.5,-749.89 945.05,-756.89 949.95,-756.89"/>
</g>
<!-- R&#45;162&#45;&gt;ext_circ_110_22_ -->
<g id="edge39" class="edge">
<title>R&#45;162&#45;&gt;ext_circ_110_22_</title>
<path fill="none" stroke="darkorange" stroke-dasharray="5,2" d="M885,-105.37C885,-105.37 885,-50.31 885,-50.31"/>
<polygon fill="darkorange" stroke="darkorange" points="887.45,-50.31 885,-43.31 882.55,-50.31 887.45,-50.31"/>
</g>
<!-- R&#45;163 -->
<g id="node21" class="node">
<title>R&#45;163</title>
<polygon fill="mediumseagreen" stroke="black" points="1092,-416.59 1092,-434.41 1049.82,-447 990.18,-447 948,-434.41 948,-416.59 990.18,-404 1049.82,-404 1092,-416.59"/>
<text text-anchor="middle" x="1020" y="-423" font-family="Arial" font-size="10.00">R&#45;163</text>
</g>
<!-- R&#45;163&#45;&gt;C&#45;0748 -->
<g id="edge20" class="edge">
<title>R&#45;163&#45;&gt;C&#45;0748</title>
<path fill="none" stroke="#4d4d4d" d="M1020,-403.58C1020,-403.58 1020,-353.03 1020,-353.03"/>
<polygon fill="#4d4d4d" stroke="#4d4d4d" points="1022.45,-353.03 1020,-346.03 1017.55,-353.03 1022.45,-353.03"/>
</g>
<!-- R&#45;030 -->
<g id="node22" class="node">
<title>R&#45;030</title>
<polygon fill="mediumseagreen" stroke="black" points="1009,-921.59 1009,-939.41 966.82,-952 907.18,-952 865,-939.41 865,-921.59 907.18,-909 966.82,-909 1009,-921.59"/>
<text text-anchor="middle" x="937" y="-928" font-family="Arial" font-size="10.00">R&#45;030</text>
</g>
<!-- R&#45;030&#45;&gt;C&#45;0506 -->
<g id="edge13" class="edge">
<title>R&#45;030&#45;&gt;C&#45;0506</title>
<path fill="none" stroke="#4d4d4d" d="M937,-908.58C937,-908.58 937,-858.03 937,-858.03"/>
<polygon fill="#4d4d4d" stroke="#4d4d4d" points="939.45,-858.03 937,-851.03 934.55,-858.03 939.45,-858.03"/>
</g>
<!-- C&#45;0504&#45;&gt;C&#45;0715 -->
<g id="edge36" class="edge">
<title>C&#45;0504&#45;&gt;C&#45;0715</title>
<path fill="none" stroke="blue" stroke-dasharray="5,2" d="M622,-1014.31C622,-950.11 622,-728 622,-728 622,-728 698.94,-728 698.94,-728"/>
<polygon fill="blue" stroke="blue" points="698.94,-730.45 705.94,-728 698.94,-725.55 698.94,-730.45"/>
</g>
<!-- C&#45;0744&#45;&gt;ext_circ_110_22_ -->
<g id="edge40" class="edge">
<title>C&#45;0744&#45;&gt;ext_circ_110_22_</title>
<path fill="none" stroke="darkorange" stroke-dasharray="5,2" d="M975,-105.37C975,-105.37 975,-50.31 975,-50.31"/>
<polygon fill="darkorange" stroke="darkorange" points="977.45,-50.31 975,-43.31 972.55,-50.31 977.45,-50.31"/>
</g>
<!-- C&#45;0716&#45;&gt;C&#45;0187 -->
<g id="edge24" class="edge">
<title>C&#45;0716&#45;&gt;C&#45;0187</title>
<path fill="none" stroke="#4d4d4d" d="M705.86,-627C639.06,-627 550,-627 550,-627 550,-627 550,-553.84 550,-553.84"/>
<polygon fill="#4d4d4d" stroke="#4d4d4d" points="552.45,-553.84 550,-546.84 547.55,-553.84 552.45,-553.84"/>
</g>
<!-- C&#45;0747 -->
<g id="node27" class="node">
<title>C&#45;0747</title>
<ellipse fill="tomato" stroke="black" cx="778" cy="-526.5" rx="72" ry="21.5"/>
<text text-anchor="middle" x="778" y="-524" font-family="Arial" font-size="10.00">C&#45;0747</text>
</g>
<!-- C&#45;0716&#45;&gt;C&#45;0747 -->
<g id="edge17" class="edge">
<title>C&#45;0716&#45;&gt;C&#45;0747</title>
<path fill="none" stroke="#4d4d4d" d="M778,-605.58C778,-605.58 778,-555.03 778,-555.03"/>
<polygon fill="#4d4d4d" stroke="#4d4d4d" points="780.45,-555.03 778,-548.03 775.55,-555.03 780.45,-555.03"/>
</g>
<!-- C&#45;0746 -->
<g id="node32" class="node">
<title>C&#45;0746</title>
<ellipse fill="mediumseagreen" stroke="black" cx="982" cy="-526.5" rx="72" ry="21.5"/>
<text text-anchor="middle" x="982" y="-524" font-family="Arial" font-size="10.00">C&#45;0746</text>
</g>
<!-- C&#45;0716&#45;&gt;C&#45;0746 -->
<g id="edge18" class="edge">
<title>C&#45;0716&#45;&gt;C&#45;0746</title>
<path fill="none" stroke="#4d4d4d" d="M845.69,-620C900.97,-620 970,-620 970,-620 970,-620 970,-554.72 970,-554.72"/>
<polygon fill="#4d4d4d" stroke="#4d4d4d" points="972.45,-554.72 970,-547.72 967.55,-554.72 972.45,-554.72"/>
</g>
<!-- C&#45;0747&#45;&gt;C&#45;0748 -->
<g id="edge38" class="edge">
<title>C&#45;0747&#45;&gt;C&#45;0748</title>
<path fill="none" stroke="blue" stroke-dasharray="5,2" d="M844,-517.85C844,-480.01 844,-331 844,-331 844,-331 944.2,-331 944.2,-331"/>
<polygon fill="blue" stroke="blue" points="944.2,-333.45 951.2,-331 944.2,-328.55 944.2,-333.45"/>
</g>
<!-- C&#45;0134&#45;&gt;C&#45;0779 -->
<g id="edge34" class="edge">
<title>C&#45;0134&#45;&gt;C&#45;0779</title>
<path fill="none" stroke="#4d4d4d" d="M652,-1212.16C652,-1143.08 652,-930 652,-930 652,-930 150.99,-930 150.99,-930"/>
<polygon fill="#4d4d4d" stroke="#4d4d4d" points="150.99,-927.55 143.99,-930 150.99,-932.45 150.99,-927.55"/>
</g>
<!-- C&#45;0134&#45;&gt;C&#45;0135 -->
<g id="edge7" class="edge">
<title>C&#45;0134&#45;&gt;C&#45;0135</title>
<path fill="none" stroke="#4d4d4d" d="M622,-1216.37C622,-1216.37 622,-1156.38 622,-1156.38"/>
<polygon fill="#4d4d4d" stroke="#4d4d4d" points="624.45,-1156.38 622,-1149.38 619.55,-1156.38 624.45,-1156.38"/>
</g>
<!-- C&#45;0778 -->
<g id="node33" class="node">
<title>C&#45;0778</title>
<ellipse fill="mediumseagreen" stroke="black" cx="757" cy="-1132.5" rx="72" ry="21.5"/>
<text text-anchor="middle" x="757" y="-1130" font-family="Arial" font-size="10.00">C&#45;0778</text>
</g>
<!-- C&#45;0134&#45;&gt;C&#45;0778 -->
<g id="edge32" class="edge">
<title>C&#45;0134&#45;&gt;C&#45;0778</title>
<path fill="none" stroke="#4d4d4d" d="M712,-1216.37C712,-1216.37 712,-1156.38 712,-1156.38"/>
<polygon fill="#4d4d4d" stroke="#4d4d4d" points="714.45,-1156.38 712,-1149.38 709.55,-1156.38 714.45,-1156.38"/>
</g>
<!-- S&#45;1636 -->
<g id="node35" class="node">
<title>S&#45;1636</title>
<polygon fill="mediumseagreen" stroke="black" points="937,-1154 865,-1132.5 937,-1111 1009,-1132.5 937,-1154"/>
<text text-anchor="middle" x="937" y="-1130" font-family="Arial" font-size="10.00">S&#45;1636</text>
</g>
<!-- C&#45;0134&#45;&gt;S&#45;1636 -->
<g id="edge6" class="edge">
<title>C&#45;0134&#45;&gt;S&#45;1636</title>
<path fill="none" stroke="#4d4d4d" d="M739,-1233C818.98,-1233 937,-1233 937,-1233 937,-1233 937,-1161.31 937,-1161.31"/>
<polygon fill="#4d4d4d" stroke="#4d4d4d" points="939.45,-1161.31 937,-1154.31 934.55,-1161.31 939.45,-1161.31"/>
</g>
<!-- R&#45;080 -->
<g id="node36" class="node">
<title>R&#45;080</title>
<polygon fill="tomato" stroke="black" points="685,-315.59 685,-333.41 642.82,-346 583.18,-346 541,-333.41 541,-315.59 583.18,-303 642.82,-303 685,-315.59"/>
<text text-anchor="middle" x="613" y="-322" font-family="Arial" font-size="10.00">R&#45;080</text>
</g>
<!-- C&#45;0428&#45;&gt;R&#45;080 -->
<g id="edge27" class="edge">
<title>C&#45;0428&#45;&gt;R&#45;080</title>
<path fill="none" stroke="#4d4d4d" d="M599.5,-404.08C599.5,-404.08 599.5,-353.24 599.5,-353.24"/>
<polygon fill="#4d4d4d" stroke="#4d4d4d" points="601.95,-353.24 599.5,-346.24 597.05,-353.24 601.95,-353.24"/>
</g>
<!-- C&#45;0746&#45;&gt;R&#45;163 -->
<g id="edge19" class="edge">
<title>C&#45;0746&#45;&gt;R&#45;163</title>
<path fill="none" stroke="#4d4d4d" d="M1001,-505.57C1001,-505.57 1001,-454.1 1001,-454.1"/>
<polygon fill="#4d4d4d" stroke="#4d4d4d" points="1003.45,-454.1 1001,-447.1 998.55,-454.1 1003.45,-454.1"/>
</g>
<!-- C&#45;0778&#45;&gt;R&#45;172 -->
<g id="edge33" class="edge">
<title>C&#45;0778&#45;&gt;R&#45;172</title>
<path fill="none" stroke="#4d4d4d" d="M757,-1110.78C757,-1100.74 757,-1091 757,-1091 757,-1091 1141,-1091 1141,-1091 1141,-1091 1141,-858.35 1141,-858.35"/>
<polygon fill="#4d4d4d" stroke="#4d4d4d" points="1143.45,-858.35 1141,-851.35 1138.55,-858.35 1143.45,-858.35"/>
</g>
<!-- C&#45;0505&#45;&gt;R&#45;030 -->
<g id="edge12" class="edge">
<title>C&#45;0505&#45;&gt;R&#45;030</title>
<path fill="none" stroke="#4d4d4d" d="M937,-1009.58C937,-1009.58 937,-959.03 937,-959.03"/>
<polygon fill="#4d4d4d" stroke="#4d4d4d" points="939.45,-959.03 937,-952.03 934.55,-959.03 939.45,-959.03"/>
</g>
<!-- R&#45;080&#45;&gt;ext_circ_205_22_ -->
<g id="edge41" class="edge">
<title>R&#45;080&#45;&gt;ext_circ_205_22_</title>
<path fill="none" stroke="darkorange" stroke-dasharray="5,2" d="M568,-307.37C568,-307.37 568,-252.31 568,-252.31"/>
<polygon fill="darkorange" stroke="darkorange" points="570.45,-252.31 568,-245.31 565.55,-252.31 570.45,-252.31"/>
</g>
</g>
</svg>
