<?xml version="1.0" encoding="UTF-8" standalone="no"?>
<!DOCTYPE svg PUBLIC "-//W3C//DTD SVG 1.1//EN"
 "http://www.w3.org/Graphics/SVG/1.1/DTD/svg11.dtd">
<!-- Generated by graphviz version 2.50.0 (0)
 -->
<!-- Title: Grafo_Circuito_112_35 Pages: 1 -->
<svg width="491pt" height="428pt"
 viewBox="0.00 0.00 491.00 428.00" xmlns="http://www.w3.org/2000/svg" xmlns:xlink="http://www.w3.org/1999/xlink">
<g id="graph0" class="graph" transform="scale(1 1) rotate(0) translate(4 424)">
<title>Grafo_Circuito_112_35</title>
<polygon fill="white" stroke="transparent" points="-4,4 -4,-424 487,-424 487,4 -4,4"/>
<!-- C&#45;0711 -->
<g id="node1" class="node">
<title>C&#45;0711</title>
<ellipse fill="mediumseagreen" stroke="black" cx="241.5" cy="-112" rx="68.5" ry="18"/>
<text text-anchor="middle" x="241.5" y="-110.1" font-family="Helvetica,sans-Serif" font-size="8.00">C&#45;0711</text>
</g>
<!-- C&#45;0080 -->
<g id="node3" class="node">
<title>C&#45;0080</title>
<ellipse fill="mediumseagreen" stroke="black" cx="241.5" cy="-18" rx="68.5" ry="18"/>
<text text-anchor="middle" x="241.5" y="-16.1" font-family="Helvetica,sans-Serif" font-size="8.00">C&#45;0080</text>
</g>
<!-- C&#45;0711&#45;&gt;C&#45;0080 -->
<g id="edge6" class="edge">
<title>C&#45;0711&#45;&gt;C&#45;0080</title>
<path fill="none" stroke="dimgray" stroke-width="0.8" d="M241.5,-93.88C241.5,-93.88 241.5,-43.07 241.5,-43.07"/>
<polygon fill="dimgray" stroke="dimgray" stroke-width="0.8" points="243.95,-43.07 241.5,-36.07 239.05,-43.07 243.95,-43.07"/>
</g>
<!-- S&#45;972 -->
<g id="node2" class="node">
<title>S&#45;972</title>
<polygon fill="mediumseagreen" stroke="black" points="68.5,-318 0,-300 68.5,-282 137,-300 68.5,-318"/>
<text text-anchor="middle" x="68.5" y="-298.1" font-family="Helvetica,sans-Serif" font-size="8.00">S&#45;972</text>
</g>
<!-- C&#45;0713 -->
<g id="node4" class="node">
<title>C&#45;0713</title>
<ellipse fill="mediumseagreen" stroke="black" cx="241.5" cy="-300" rx="68.5" ry="18"/>
<text text-anchor="middle" x="241.5" y="-298.1" font-family="Helvetica,sans-Serif" font-size="8.00">C&#45;0713</text>
</g>
<!-- R&#45;021 -->
<g id="node5" class="node">
<title>R&#45;021</title>
<polygon fill="mediumseagreen" stroke="black" points="310,-198.54 310,-213.46 269.87,-224 213.13,-224 173,-213.46 173,-198.54 213.13,-188 269.87,-188 310,-198.54"/>
<text text-anchor="middle" x="241.5" y="-204.1" font-family="Helvetica,sans-Serif" font-size="8.00">R&#45;021</text>
</g>
<!-- C&#45;0713&#45;&gt;R&#45;021 -->
<g id="edge4" class="edge">
<title>C&#45;0713&#45;&gt;R&#45;021</title>
<path fill="none" stroke="dimgray" stroke-width="0.8" d="M241.5,-281.88C241.5,-281.88 241.5,-231.07 241.5,-231.07"/>
<polygon fill="dimgray" stroke="dimgray" stroke-width="0.8" points="243.95,-231.07 241.5,-224.07 239.05,-231.07 243.95,-231.07"/>
</g>
<!-- R&#45;021&#45;&gt;C&#45;0711 -->
<g id="edge5" class="edge">
<title>R&#45;021&#45;&gt;C&#45;0711</title>
<path fill="none" stroke="dimgray" stroke-width="0.8" d="M241.5,-187.88C241.5,-187.88 241.5,-137.07 241.5,-137.07"/>
<polygon fill="dimgray" stroke="dimgray" stroke-width="0.8" points="243.95,-137.07 241.5,-130.07 239.05,-137.07 243.95,-137.07"/>
</g>
<!-- 112&#45;35 -->
<g id="node6" class="node">
<title>112&#45;35</title>
<polygon fill="gold" stroke="black" points="310,-390.54 310,-405.46 269.87,-416 213.13,-416 173,-405.46 173,-390.54 213.13,-380 269.87,-380 310,-390.54"/>
<polygon fill="none" stroke="black" points="314,-387.46 314,-408.54 270.39,-420 212.61,-420 169,-408.54 169,-387.46 212.61,-376 270.39,-376 314,-387.46"/>
<text text-anchor="middle" x="241.5" y="-396.1" font-family="Helvetica,sans-Serif" font-size="8.00">112&#45;35</text>
</g>
<!-- 112&#45;35&#45;&gt;S&#45;972 -->
<g id="edge1" class="edge">
<title>112&#45;35&#45;&gt;S&#45;972</title>
<path fill="none" stroke="dimgray" stroke-width="0.8" d="M168.88,-398C121.54,-398 68.5,-398 68.5,-398 68.5,-398 68.5,-325.43 68.5,-325.43"/>
<polygon fill="dimgray" stroke="dimgray" stroke-width="0.8" points="70.95,-325.43 68.5,-318.43 66.05,-325.43 70.95,-325.43"/>
</g>
<!-- 112&#45;35&#45;&gt;C&#45;0713 -->
<g id="edge3" class="edge">
<title>112&#45;35&#45;&gt;C&#45;0713</title>
<path fill="none" stroke="dimgray" stroke-width="0.8" d="M241.5,-375.76C241.5,-375.76 241.5,-325.21 241.5,-325.21"/>
<polygon fill="dimgray" stroke="dimgray" stroke-width="0.8" points="243.95,-325.21 241.5,-318.21 239.05,-325.21 243.95,-325.21"/>
</g>
<!-- C&#45;0712 -->
<g id="node7" class="node">
<title>C&#45;0712</title>
<ellipse fill="tomato" stroke="black" cx="414.5" cy="-300" rx="68.5" ry="18"/>
<text text-anchor="middle" x="414.5" y="-298.1" font-family="Helvetica,sans-Serif" font-size="8.00">C&#45;0712</text>
</g>
<!-- 112&#45;35&#45;&gt;C&#45;0712 -->
<g id="edge2" class="edge">
<title>112&#45;35&#45;&gt;C&#45;0712</title>
<path fill="none" stroke="dimgray" stroke-width="0.8" d="M314.12,-398C361.46,-398 414.5,-398 414.5,-398 414.5,-398 414.5,-325.43 414.5,-325.43"/>
<polygon fill="dimgray" stroke="dimgray" stroke-width="0.8" points="416.95,-325.43 414.5,-318.43 412.05,-325.43 416.95,-325.43"/>
</g>
<!-- C&#45;0712&#45;&gt;C&#45;0711 -->
<g id="edge7" class="edge">
<title>C&#45;0712&#45;&gt;C&#45;0711</title>
<path fill="none" stroke="blue" stroke-width="0.8" stroke-dasharray="5,2" d="M414.5,-281.97C414.5,-234.92 414.5,-112 414.5,-112 414.5,-112 317.37,-112 317.37,-112"/>
<polygon fill="blue" stroke="blue" stroke-width="0.8" points="317.37,-109.55 310.37,-112 317.37,-114.45 317.37,-109.55"/>
</g>
</g>
</svg>
