<?xml version="1.0" encoding="UTF-8" standalone="no"?>
<!DOCTYPE svg PUBLIC "-//W3C//DTD SVG 1.1//EN"
 "http://www.w3.org/Graphics/SVG/1.1/DTD/svg11.dtd">
<!-- Generated by graphviz version 2.50.0 (0)
 -->
<!-- Title: Grafo_Circuito_304_23_ Pages: 1 -->
<svg width="1973pt" height="1776pt"
 viewBox="0.00 0.00 1973.00 1776.00" xmlns="http://www.w3.org/2000/svg" xmlns:xlink="http://www.w3.org/1999/xlink">
<g id="graph0" class="graph" transform="scale(1 1) rotate(0) translate(4 1772)">
<title>Grafo_Circuito_304_23_</title>
<polygon fill="white" stroke="transparent" points="-4,4 -4,-1772 1969,-1772 1969,4 -4,4"/>
<!-- R&#45;271 -->
<g id="node1" class="node">
<title>R&#45;271</title>
<polygon fill="tomato" stroke="black" points="705,-214.59 705,-232.41 662.82,-245 603.18,-245 561,-232.41 561,-214.59 603.18,-202 662.82,-202 705,-214.59"/>
<text text-anchor="middle" x="633" y="-221" font-family="Arial" font-size="10.00">R&#45;271</text>
</g>
<!-- ext_circ_303_26_ -->
<g id="node60" class="node">
<title>ext_circ_303_26_</title>
<polygon fill="lightpink" stroke="darkorange" stroke-dasharray="5,2" points="822,-144 678,-144 678,-101 822,-101 822,-144"/>
<text text-anchor="middle" x="750" y="-125.5" font-family="Arial" font-size="10.00">Circuito:</text>
<text text-anchor="middle" x="750" y="-114.5" font-family="Arial" font-size="10.00">303&#45;26&#45;</text>
</g>
<!-- R&#45;271&#45;&gt;ext_circ_303_26_ -->
<g id="edge62" class="edge">
<title>R&#45;271&#45;&gt;ext_circ_303_26_</title>
<path fill="none" stroke="darkorange" stroke-dasharray="5,2" d="M691.5,-210.3C691.5,-210.3 691.5,-151.2 691.5,-151.2"/>
<polygon fill="darkorange" stroke="darkorange" points="693.95,-151.2 691.5,-144.2 689.05,-151.2 693.95,-151.2"/>
</g>
<!-- S&#45;1482 -->
<g id="node2" class="node">
<title>S&#45;1482</title>
<polygon fill="mediumseagreen" stroke="black" points="574,-447 502,-425.5 574,-404 646,-425.5 574,-447"/>
<text text-anchor="middle" x="574" y="-423" font-family="Arial" font-size="10.00">S&#45;1482</text>
</g>
<!-- S&#45;2457 -->
<g id="node29" class="node">
<title>S&#45;2457</title>
<polygon fill="mediumseagreen" stroke="black" points="934,-346 862,-324.5 934,-303 1006,-324.5 934,-346"/>
<text text-anchor="middle" x="934" y="-322" font-family="Arial" font-size="10.00">S&#45;2457</text>
</g>
<!-- S&#45;1482&#45;&gt;S&#45;2457 -->
<g id="edge30" class="edge">
<title>S&#45;1482&#45;&gt;S&#45;2457</title>
<path fill="none" stroke="#4d4d4d" d="M624.5,-432C721.97,-432 926.5,-432 926.5,-432 926.5,-432 926.5,-351.22 926.5,-351.22"/>
<polygon fill="#4d4d4d" stroke="#4d4d4d" points="928.95,-351.22 926.5,-344.22 924.05,-351.22 928.95,-351.22"/>
</g>
<!-- C&#45;1096 -->
<g id="node43" class="node">
<title>C&#45;1096</title>
<ellipse fill="mediumseagreen" stroke="black" cx="574" cy="-324.5" rx="72" ry="21.5"/>
<text text-anchor="middle" x="574" y="-322" font-family="Arial" font-size="10.00">C&#45;1096</text>
</g>
<!-- S&#45;1482&#45;&gt;C&#45;1096 -->
<g id="edge36" class="edge">
<title>S&#45;1482&#45;&gt;C&#45;1096</title>
<path fill="none" stroke="#4d4d4d" d="M574,-403.58C574,-403.58 574,-353.03 574,-353.03"/>
<polygon fill="#4d4d4d" stroke="#4d4d4d" points="576.45,-353.03 574,-346.03 571.55,-353.03 576.45,-353.03"/>
</g>
<!-- C&#45;0232 -->
<g id="node53" class="node">
<title>C&#45;0232</title>
<ellipse fill="tomato" stroke="black" cx="754" cy="-324.5" rx="72" ry="21.5"/>
<text text-anchor="middle" x="754" y="-322" font-family="Arial" font-size="10.00">C&#45;0232</text>
</g>
<!-- S&#45;1482&#45;&gt;C&#45;0232 -->
<g id="edge38" class="edge">
<title>S&#45;1482&#45;&gt;C&#45;0232</title>
<path fill="none" stroke="#4d4d4d" d="M621.14,-418C672.21,-418 746.5,-418 746.5,-418 746.5,-418 746.5,-353.19 746.5,-353.19"/>
<polygon fill="#4d4d4d" stroke="#4d4d4d" points="748.95,-353.19 746.5,-346.19 744.05,-353.19 748.95,-353.19"/>
</g>
<!-- S&#45;1481 -->
<g id="node54" class="node">
<title>S&#45;1481</title>
<polygon fill="mediumseagreen" stroke="black" points="389,-346 317,-324.5 389,-303 461,-324.5 389,-346"/>
<text text-anchor="middle" x="389" y="-322" font-family="Arial" font-size="10.00">S&#45;1481</text>
</g>
<!-- S&#45;1482&#45;&gt;S&#45;1481 -->
<g id="edge31" class="edge">
<title>S&#45;1482&#45;&gt;S&#45;1481</title>
<path fill="none" stroke="#4d4d4d" d="M523.61,-432C475.57,-432 410.5,-432 410.5,-432 410.5,-432 410.5,-346.9 410.5,-346.9"/>
<polygon fill="#4d4d4d" stroke="#4d4d4d" points="412.95,-346.9 410.5,-339.9 408.05,-346.9 412.95,-346.9"/>
</g>
<!-- SR&#45;0011 -->
<g id="node3" class="node">
<title>SR&#45;0011</title>
<polygon fill="mediumseagreen" stroke="black" points="1713,-851 1641,-829.5 1713,-808 1785,-829.5 1713,-851"/>
<text text-anchor="middle" x="1713" y="-827" font-family="Arial" font-size="10.00">SR&#45;0011</text>
</g>
<!-- S&#45;2003 -->
<g id="node52" class="node">
<title>S&#45;2003</title>
<polygon fill="mediumseagreen" stroke="black" points="1713,-750 1641,-728.5 1713,-707 1785,-728.5 1713,-750"/>
<text text-anchor="middle" x="1713" y="-726" font-family="Arial" font-size="10.00">S&#45;2003</text>
</g>
<!-- SR&#45;0011&#45;&gt;S&#45;2003 -->
<g id="edge53" class="edge">
<title>SR&#45;0011&#45;&gt;S&#45;2003</title>
<path fill="none" stroke="#4d4d4d" d="M1713,-807.58C1713,-807.58 1713,-757.03 1713,-757.03"/>
<polygon fill="#4d4d4d" stroke="#4d4d4d" points="1715.45,-757.03 1713,-750.03 1710.55,-757.03 1715.45,-757.03"/>
</g>
<!-- S&#45;589 -->
<g id="node4" class="node">
<title>S&#45;589</title>
<polygon fill="mediumseagreen" stroke="black" points="416,-1154 344,-1132.5 416,-1111 488,-1132.5 416,-1154"/>
<text text-anchor="middle" x="416" y="-1130" font-family="Arial" font-size="10.00">S&#45;589</text>
</g>
<!-- S&#45;859 -->
<g id="node5" class="node">
<title>S&#45;859</title>
<polygon fill="mediumseagreen" stroke="black" points="1046,-1457 974,-1435.5 1046,-1414 1118,-1435.5 1046,-1457"/>
<text text-anchor="middle" x="1046" y="-1433" font-family="Arial" font-size="10.00">S&#45;859</text>
</g>
<!-- C&#45;1036 -->
<g id="node6" class="node">
<title>C&#45;1036</title>
<ellipse fill="mediumseagreen" stroke="black" cx="1893" cy="-829.5" rx="72" ry="21.5"/>
<text text-anchor="middle" x="1893" y="-827" font-family="Arial" font-size="10.00">C&#45;1036</text>
</g>
<!-- R&#45;087 -->
<g id="node7" class="node">
<title>R&#45;087</title>
<polygon fill="tomato" stroke="black" points="1736,-416.59 1736,-434.41 1693.82,-447 1634.18,-447 1592,-434.41 1592,-416.59 1634.18,-404 1693.82,-404 1736,-416.59"/>
<text text-anchor="middle" x="1664" y="-423" font-family="Arial" font-size="10.00">R&#45;087</text>
</g>
<!-- C&#45;1036&#45;&gt;R&#45;087 -->
<g id="edge48" class="edge">
<title>C&#45;1036&#45;&gt;R&#45;087</title>
<path fill="none" stroke="#4d4d4d" d="M1893,-807.75C1893,-723.73 1893,-425 1893,-425 1893,-425 1743.14,-425 1743.14,-425"/>
<polygon fill="#4d4d4d" stroke="#4d4d4d" points="1743.14,-422.55 1736.14,-425 1743.14,-427.45 1743.14,-422.55"/>
</g>
<!-- ext_circ_307_24_ -->
<g id="node58" class="node">
<title>ext_circ_307_24_</title>
<polygon fill="lightpink" stroke="darkorange" stroke-dasharray="5,2" points="451,-43 307,-43 307,0 451,0 451,-43"/>
<text text-anchor="middle" x="379" y="-24.5" font-family="Arial" font-size="10.00">Circuito:</text>
<text text-anchor="middle" x="379" y="-13.5" font-family="Arial" font-size="10.00">307&#45;24&#45;</text>
</g>
<!-- R&#45;087&#45;&gt;ext_circ_307_24_ -->
<g id="edge66" class="edge">
<title>R&#45;087&#45;&gt;ext_circ_307_24_</title>
<path fill="none" stroke="darkorange" stroke-dasharray="5,2" d="M1664,-403.96C1664,-319.29 1664,-14 1664,-14 1664,-14 458.3,-14 458.3,-14"/>
<polygon fill="darkorange" stroke="darkorange" points="458.3,-11.55 451.3,-14 458.3,-16.45 458.3,-11.55"/>
</g>
<!-- C&#45;0842 -->
<g id="node8" class="node">
<title>C&#45;0842</title>
<ellipse fill="mediumseagreen" stroke="black" cx="866" cy="-1233.5" rx="72" ry="21.5"/>
<text text-anchor="middle" x="866" y="-1231" font-family="Arial" font-size="10.00">C&#45;0842</text>
</g>
<!-- C&#45;0842&#45;&gt;S&#45;589 -->
<g id="edge15" class="edge">
<title>C&#45;0842&#45;&gt;S&#45;589</title>
<path fill="none" stroke="#4d4d4d" d="M796.94,-1240C672.63,-1240 424,-1240 424,-1240 424,-1240 424,-1158.72 424,-1158.72"/>
<polygon fill="#4d4d4d" stroke="#4d4d4d" points="426.45,-1158.72 424,-1151.72 421.55,-1158.72 426.45,-1158.72"/>
</g>
<!-- C&#45;0843 -->
<g id="node10" class="node">
<title>C&#45;0843</title>
<ellipse fill="tomato" stroke="black" cx="956" cy="-1132.5" rx="72" ry="21.5"/>
<text text-anchor="middle" x="956" y="-1130" font-family="Arial" font-size="10.00">C&#45;0843</text>
</g>
<!-- C&#45;0842&#45;&gt;C&#45;0843 -->
<g id="edge13" class="edge">
<title>C&#45;0842&#45;&gt;C&#45;0843</title>
<path fill="none" stroke="#4d4d4d" d="M911,-1216.37C911,-1216.37 911,-1156.38 911,-1156.38"/>
<polygon fill="#4d4d4d" stroke="#4d4d4d" points="913.45,-1156.38 911,-1149.38 908.55,-1156.38 913.45,-1156.38"/>
</g>
<!-- S&#45;860 -->
<g id="node34" class="node">
<title>S&#45;860</title>
<polygon fill="mediumseagreen" stroke="black" points="596,-1154 524,-1132.5 596,-1111 668,-1132.5 596,-1154"/>
<text text-anchor="middle" x="596" y="-1130" font-family="Arial" font-size="10.00">S&#45;860</text>
</g>
<!-- C&#45;0842&#45;&gt;S&#45;860 -->
<g id="edge55" class="edge">
<title>C&#45;0842&#45;&gt;S&#45;860</title>
<path fill="none" stroke="#4d4d4d" d="M798.19,-1226C720.56,-1226 604,-1226 604,-1226 604,-1226 604,-1158.87 604,-1158.87"/>
<polygon fill="#4d4d4d" stroke="#4d4d4d" points="606.45,-1158.87 604,-1151.87 601.55,-1158.87 606.45,-1158.87"/>
</g>
<!-- S&#45;2017 -->
<g id="node47" class="node">
<title>S&#45;2017</title>
<polygon fill="mediumseagreen" stroke="black" points="776,-1154 704,-1132.5 776,-1111 848,-1132.5 776,-1154"/>
<text text-anchor="middle" x="776" y="-1130" font-family="Arial" font-size="10.00">S&#45;2017</text>
</g>
<!-- C&#45;0842&#45;&gt;S&#45;2017 -->
<g id="edge14" class="edge">
<title>C&#45;0842&#45;&gt;S&#45;2017</title>
<path fill="none" stroke="#4d4d4d" d="M821,-1216.37C821,-1216.37 821,-1147.78 821,-1147.78"/>
<polygon fill="#4d4d4d" stroke="#4d4d4d" points="823.45,-1147.78 821,-1140.78 818.55,-1147.78 823.45,-1147.78"/>
</g>
<!-- S&#45;139 -->
<g id="node56" class="node">
<title>S&#45;139</title>
<polygon fill="mediumseagreen" stroke="black" points="1136,-1154 1064,-1132.5 1136,-1111 1208,-1132.5 1136,-1154"/>
<text text-anchor="middle" x="1136" y="-1130" font-family="Arial" font-size="10.00">S&#45;139</text>
</g>
<!-- C&#45;0842&#45;&gt;S&#45;139 -->
<g id="edge16" class="edge">
<title>C&#45;0842&#45;&gt;S&#45;139</title>
<path fill="none" stroke="#4d4d4d" d="M933.51,-1226C999.78,-1226 1091,-1226 1091,-1226 1091,-1226 1091,-1147.8 1091,-1147.8"/>
<polygon fill="#4d4d4d" stroke="#4d4d4d" points="1093.45,-1147.8 1091,-1140.8 1088.55,-1147.8 1093.45,-1147.8"/>
</g>
<!-- S&#45;544 -->
<g id="node9" class="node">
<title>S&#45;544</title>
<polygon fill="mediumseagreen" stroke="black" points="612,-1457 540,-1435.5 612,-1414 684,-1435.5 612,-1457"/>
<text text-anchor="middle" x="612" y="-1433" font-family="Arial" font-size="10.00">S&#45;544</text>
</g>
<!-- S&#45;1505 -->
<g id="node22" class="node">
<title>S&#45;1505</title>
<polygon fill="mediumseagreen" stroke="black" points="612,-1356 540,-1334.5 612,-1313 684,-1334.5 612,-1356"/>
<text text-anchor="middle" x="612" y="-1332" font-family="Arial" font-size="10.00">S&#45;1505</text>
</g>
<!-- S&#45;544&#45;&gt;S&#45;1505 -->
<g id="edge7" class="edge">
<title>S&#45;544&#45;&gt;S&#45;1505</title>
<path fill="none" stroke="#4d4d4d" d="M612,-1413.58C612,-1413.58 612,-1363.03 612,-1363.03"/>
<polygon fill="#4d4d4d" stroke="#4d4d4d" points="614.45,-1363.03 612,-1356.03 609.55,-1363.03 614.45,-1363.03"/>
</g>
<!-- S&#45;2025 -->
<g id="node25" class="node">
<title>S&#45;2025</title>
<polygon fill="mediumseagreen" stroke="black" points="432,-1356 360,-1334.5 432,-1313 504,-1334.5 432,-1356"/>
<text text-anchor="middle" x="432" y="-1332" font-family="Arial" font-size="10.00">S&#45;2025</text>
</g>
<!-- S&#45;544&#45;&gt;S&#45;2025 -->
<g id="edge8" class="edge">
<title>S&#45;544&#45;&gt;S&#45;2025</title>
<path fill="none" stroke="#4d4d4d" d="M541.63,-1435C491.15,-1435 432,-1435 432,-1435 432,-1435 432,-1363.31 432,-1363.31"/>
<polygon fill="#4d4d4d" stroke="#4d4d4d" points="434.45,-1363.31 432,-1356.31 429.55,-1363.31 434.45,-1363.31"/>
</g>
<!-- C&#45;0844 -->
<g id="node31" class="node">
<title>C&#45;0844</title>
<ellipse fill="mediumseagreen" stroke="black" cx="866" cy="-1435.5" rx="72" ry="21.5"/>
<text text-anchor="middle" x="866" y="-1433" font-family="Arial" font-size="10.00">C&#45;0844</text>
</g>
<!-- C&#45;0843&#45;&gt;C&#45;0844 -->
<g id="edge57" class="edge">
<title>C&#45;0843&#45;&gt;C&#45;0844</title>
<path fill="none" stroke="blue" stroke-dasharray="5,2" d="M950,-1154.23C950,-1222.47 950,-1428 950,-1428 950,-1428 940.8,-1428 940.8,-1428"/>
<polygon fill="blue" stroke="blue" points="940.8,-1425.55 933.8,-1428 940.8,-1430.45 940.8,-1425.55"/>
</g>
<!-- S&#45;540 -->
<g id="node11" class="node">
<title>S&#45;540</title>
<polygon fill="mediumseagreen" stroke="black" points="1316,-1053 1244,-1031.5 1316,-1010 1388,-1031.5 1316,-1053"/>
<text text-anchor="middle" x="1316" y="-1029" font-family="Arial" font-size="10.00">S&#45;540</text>
</g>
<!-- C&#45;0597 -->
<g id="node12" class="node">
<title>C&#45;0597</title>
<ellipse fill="mediumseagreen" stroke="black" cx="199" cy="-728.5" rx="72" ry="21.5"/>
<text text-anchor="middle" x="199" y="-726" font-family="Arial" font-size="10.00">C&#45;0597</text>
</g>
<!-- R&#45;100 -->
<g id="node38" class="node">
<title>R&#45;100</title>
<polygon fill="mediumseagreen" stroke="black" points="361,-618.59 361,-636.41 318.82,-649 259.18,-649 217,-636.41 217,-618.59 259.18,-606 318.82,-606 361,-618.59"/>
<text text-anchor="middle" x="289" y="-625" font-family="Arial" font-size="10.00">R&#45;100</text>
</g>
<!-- C&#45;0597&#45;&gt;R&#45;100 -->
<g id="edge27" class="edge">
<title>C&#45;0597&#45;&gt;R&#45;100</title>
<path fill="none" stroke="#4d4d4d" d="M244,-711.37C244,-711.37 244,-651.72 244,-651.72"/>
<polygon fill="#4d4d4d" stroke="#4d4d4d" points="246.45,-651.72 244,-644.72 241.55,-651.72 246.45,-651.72"/>
</g>
<!-- S&#45;906 -->
<g id="node13" class="node">
<title>S&#45;906</title>
<polygon fill="mediumseagreen" stroke="black" points="596,-1053 524,-1031.5 596,-1010 668,-1031.5 596,-1053"/>
<text text-anchor="middle" x="596" y="-1029" font-family="Arial" font-size="10.00">S&#45;906</text>
</g>
<!-- C&#45;1110 -->
<g id="node14" class="node">
<title>C&#45;1110</title>
<ellipse fill="mediumseagreen" stroke="black" cx="1099" cy="-829.5" rx="72" ry="21.5"/>
<text text-anchor="middle" x="1099" y="-827" font-family="Arial" font-size="10.00">C&#45;1110</text>
</g>
<!-- R&#45;276 -->
<g id="node21" class="node">
<title>R&#45;276</title>
<polygon fill="tomato" stroke="black" points="1235,-719.59 1235,-737.41 1192.82,-750 1133.18,-750 1091,-737.41 1091,-719.59 1133.18,-707 1192.82,-707 1235,-719.59"/>
<text text-anchor="middle" x="1163" y="-726" font-family="Arial" font-size="10.00">R&#45;276</text>
</g>
<!-- C&#45;1110&#45;&gt;R&#45;276 -->
<g id="edge40" class="edge">
<title>C&#45;1110&#45;&gt;R&#45;276</title>
<path fill="none" stroke="#4d4d4d" d="M1131,-810.03C1131,-810.03 1131,-756.66 1131,-756.66"/>
<polygon fill="#4d4d4d" stroke="#4d4d4d" points="1133.45,-756.66 1131,-749.66 1128.55,-756.66 1133.45,-756.66"/>
</g>
<!-- S&#45;875 -->
<g id="node15" class="node">
<title>S&#45;875</title>
<polygon fill="mediumseagreen" stroke="black" points="379,-851 307,-829.5 379,-808 451,-829.5 379,-851"/>
<text text-anchor="middle" x="379" y="-827" font-family="Arial" font-size="10.00">S&#45;875</text>
</g>
<!-- C&#45;0020 -->
<g id="node16" class="node">
<title>C&#45;0020</title>
<ellipse fill="tomato" stroke="black" cx="379" cy="-223.5" rx="72" ry="21.5"/>
<text text-anchor="middle" x="379" y="-221" font-family="Arial" font-size="10.00">C&#45;0020</text>
</g>
<!-- ext_circ_307_23_ -->
<g id="node59" class="node">
<title>ext_circ_307_23_</title>
<polygon fill="lightpink" stroke="darkorange" stroke-dasharray="5,2" points="451,-144 307,-144 307,-101 451,-101 451,-144"/>
<text text-anchor="middle" x="379" y="-125.5" font-family="Arial" font-size="10.00">Circuito:</text>
<text text-anchor="middle" x="379" y="-114.5" font-family="Arial" font-size="10.00">307&#45;23&#45;</text>
</g>
<!-- C&#45;0020&#45;&gt;ext_circ_307_23_ -->
<g id="edge61" class="edge">
<title>C&#45;0020&#45;&gt;ext_circ_307_23_</title>
<path fill="none" stroke="darkorange" stroke-dasharray="5,2" d="M379,-201.58C379,-201.58 379,-151.03 379,-151.03"/>
<polygon fill="darkorange" stroke="darkorange" points="381.45,-151.03 379,-144.03 376.55,-151.03 381.45,-151.03"/>
</g>
<!-- S&#45;1279 -->
<g id="node17" class="node">
<title>S&#45;1279</title>
<polygon fill="mediumseagreen" stroke="black" points="866,-1558 794,-1536.5 866,-1515 938,-1536.5 866,-1558"/>
<text text-anchor="middle" x="866" y="-1534" font-family="Arial" font-size="10.00">S&#45;1279</text>
</g>
<!-- 304&#45;23&#45; -->
<g id="node18" class="node">
<title>304&#45;23&#45;</title>
<polygon fill="gold" stroke="black" points="1181,-1733.59 1181,-1751.41 1138.82,-1764 1079.18,-1764 1037,-1751.41 1037,-1733.59 1079.18,-1721 1138.82,-1721 1181,-1733.59"/>
<polygon fill="none" stroke="black" points="1185,-1730.61 1185,-1754.39 1139.41,-1768 1078.59,-1768 1033,-1754.39 1033,-1730.61 1078.59,-1717 1139.41,-1717 1185,-1730.61"/>
<text text-anchor="middle" x="1109" y="-1740" font-family="Arial" font-size="10.00">304&#45;23&#45;</text>
</g>
<!-- C&#45;0037 -->
<g id="node39" class="node">
<title>C&#45;0037</title>
<ellipse fill="mediumseagreen" stroke="black" cx="1109" cy="-1637.5" rx="72" ry="21.5"/>
<text text-anchor="middle" x="1109" y="-1635" font-family="Arial" font-size="10.00">C&#45;0037</text>
</g>
<!-- 304&#45;23&#45;&#45;&gt;C&#45;0037 -->
<g id="edge1" class="edge">
<title>304&#45;23&#45;&#45;&gt;C&#45;0037</title>
<path fill="none" stroke="#4d4d4d" d="M1109,-1716.81C1109,-1716.81 1109,-1666.03 1109,-1666.03"/>
<polygon fill="#4d4d4d" stroke="#4d4d4d" points="1111.45,-1666.03 1109,-1659.03 1106.55,-1666.03 1111.45,-1666.03"/>
</g>
<!-- C&#45;0525 -->
<g id="node19" class="node">
<title>C&#45;0525</title>
<ellipse fill="mediumseagreen" stroke="black" cx="1099" cy="-930.5" rx="72" ry="21.5"/>
<text text-anchor="middle" x="1099" y="-928" font-family="Arial" font-size="10.00">C&#45;0525</text>
</g>
<!-- C&#45;0525&#45;&gt;SR&#45;0011 -->
<g id="edge52" class="edge">
<title>C&#45;0525&#45;&gt;SR&#45;0011</title>
<path fill="none" stroke="#4d4d4d" d="M1170.64,-933C1332.6,-933 1713,-933 1713,-933 1713,-933 1713,-858.2 1713,-858.2"/>
<polygon fill="#4d4d4d" stroke="#4d4d4d" points="1715.45,-858.2 1713,-851.2 1710.55,-858.2 1715.45,-858.2"/>
</g>
<!-- C&#45;0525&#45;&gt;C&#45;1036 -->
<g id="edge47" class="edge">
<title>C&#45;0525&#45;&gt;C&#45;1036</title>
<path fill="none" stroke="#4d4d4d" d="M1165.33,-939C1356.16,-939 1893,-939 1893,-939 1893,-939 1893,-858.13 1893,-858.13"/>
<polygon fill="#4d4d4d" stroke="#4d4d4d" points="1895.45,-858.13 1893,-851.13 1890.55,-858.13 1895.45,-858.13"/>
</g>
<!-- C&#45;0525&#45;&gt;C&#45;1110 -->
<g id="edge39" class="edge">
<title>C&#45;0525&#45;&gt;C&#45;1110</title>
<path fill="none" stroke="#4d4d4d" d="M1099,-908.58C1099,-908.58 1099,-858.03 1099,-858.03"/>
<polygon fill="#4d4d4d" stroke="#4d4d4d" points="1101.45,-858.03 1099,-851.03 1096.55,-858.03 1101.45,-858.03"/>
</g>
<!-- C&#45;0525&#45;&gt;S&#45;875 -->
<g id="edge50" class="edge">
<title>C&#45;0525&#45;&gt;S&#45;875</title>
<path fill="none" stroke="#4d4d4d" d="M1027.22,-933C848.44,-933 397.5,-933 397.5,-933 397.5,-933 397.5,-852.67 397.5,-852.67"/>
<polygon fill="#4d4d4d" stroke="#4d4d4d" points="399.95,-852.67 397.5,-845.67 395.05,-852.67 399.95,-852.67"/>
</g>
<!-- S&#45;872 -->
<g id="node32" class="node">
<title>S&#45;872</title>
<polygon fill="mediumseagreen" stroke="black" points="199,-851 127,-829.5 199,-808 271,-829.5 199,-851"/>
<text text-anchor="middle" x="199" y="-827" font-family="Arial" font-size="10.00">S&#45;872</text>
</g>
<!-- C&#45;0525&#45;&gt;S&#45;872 -->
<g id="edge24" class="edge">
<title>C&#45;0525&#45;&gt;S&#45;872</title>
<path fill="none" stroke="#4d4d4d" d="M1032.82,-939C824.98,-939 199,-939 199,-939 199,-939 199,-858.13 199,-858.13"/>
<polygon fill="#4d4d4d" stroke="#4d4d4d" points="201.45,-858.13 199,-851.13 196.55,-858.13 201.45,-858.13"/>
</g>
<!-- S&#45;1363 -->
<g id="node33" class="node">
<title>S&#45;1363</title>
<polygon fill="mediumseagreen" stroke="black" points="559,-851 487,-829.5 559,-808 631,-829.5 559,-851"/>
<text text-anchor="middle" x="559" y="-827" font-family="Arial" font-size="10.00">S&#45;1363</text>
</g>
<!-- C&#45;0525&#45;&gt;S&#45;1363 -->
<g id="edge43" class="edge">
<title>C&#45;0525&#45;&gt;S&#45;1363</title>
<path fill="none" stroke="#4d4d4d" d="M1027.85,-927C885.15,-927 577.5,-927 577.5,-927 577.5,-927 577.5,-852.6 577.5,-852.6"/>
<polygon fill="#4d4d4d" stroke="#4d4d4d" points="579.95,-852.6 577.5,-845.6 575.05,-852.6 579.95,-852.6"/>
</g>
<!-- S&#45;871 -->
<g id="node40" class="node">
<title>S&#45;871</title>
<polygon fill="mediumseagreen" stroke="black" points="739,-851 667,-829.5 739,-808 811,-829.5 739,-851"/>
<text text-anchor="middle" x="739" y="-827" font-family="Arial" font-size="10.00">S&#45;871</text>
</g>
<!-- C&#45;0525&#45;&gt;S&#45;871 -->
<g id="edge23" class="edge">
<title>C&#45;0525&#45;&gt;S&#45;871</title>
<path fill="none" stroke="#4d4d4d" d="M1034.36,-921C935.36,-921 757.5,-921 757.5,-921 757.5,-921 757.5,-852.86 757.5,-852.86"/>
<polygon fill="#4d4d4d" stroke="#4d4d4d" points="759.95,-852.86 757.5,-845.86 755.05,-852.86 759.95,-852.86"/>
</g>
<!-- S&#45;1900 -->
<g id="node42" class="node">
<title>S&#45;1900</title>
<polygon fill="mediumseagreen" stroke="black" points="919,-851 847,-829.5 919,-808 991,-829.5 919,-851"/>
<text text-anchor="middle" x="919" y="-827" font-family="Arial" font-size="10.00">S&#45;1900</text>
</g>
<!-- C&#45;0525&#45;&gt;S&#45;1900 -->
<g id="edge42" class="edge">
<title>C&#45;0525&#45;&gt;S&#45;1900</title>
<path fill="none" stroke="#4d4d4d" d="M1048.79,-915C1001.38,-915 937.5,-915 937.5,-915 937.5,-915 937.5,-852.58 937.5,-852.58"/>
<polygon fill="#4d4d4d" stroke="#4d4d4d" points="939.95,-852.58 937.5,-845.58 935.05,-852.58 939.95,-852.58"/>
</g>
<!-- C&#45;0027 -->
<g id="node45" class="node">
<title>C&#45;0027</title>
<ellipse fill="tomato" stroke="black" cx="1406" cy="-728.5" rx="72" ry="21.5"/>
<text text-anchor="middle" x="1406" y="-726" font-family="Arial" font-size="10.00">C&#45;0027</text>
</g>
<!-- C&#45;0525&#45;&gt;C&#45;0027 -->
<g id="edge41" class="edge">
<title>C&#45;0525&#45;&gt;C&#45;0027</title>
<path fill="none" stroke="#4d4d4d" d="M1163.79,-921C1243.82,-921 1369.5,-921 1369.5,-921 1369.5,-921 1369.5,-754.31 1369.5,-754.31"/>
<polygon fill="#4d4d4d" stroke="#4d4d4d" points="1371.95,-754.31 1369.5,-747.31 1367.05,-754.31 1371.95,-754.31"/>
</g>
<!-- S&#45;877 -->
<g id="node49" class="node">
<title>S&#45;877</title>
<polygon fill="mediumseagreen" stroke="black" points="1279,-851 1207,-829.5 1279,-808 1351,-829.5 1279,-851"/>
<text text-anchor="middle" x="1279" y="-827" font-family="Arial" font-size="10.00">S&#45;877</text>
</g>
<!-- C&#45;0525&#45;&gt;S&#45;877 -->
<g id="edge46" class="edge">
<title>C&#45;0525&#45;&gt;S&#45;877</title>
<path fill="none" stroke="#4d4d4d" d="M1149.12,-915C1181.64,-915 1218,-915 1218,-915 1218,-915 1218,-840.17 1218,-840.17"/>
<polygon fill="#4d4d4d" stroke="#4d4d4d" points="1220.45,-840.17 1218,-833.17 1215.55,-840.17 1220.45,-840.17"/>
</g>
<!-- C&#45;1034 -->
<g id="node50" class="node">
<title>C&#45;1034</title>
<ellipse fill="tomato" stroke="black" cx="72" cy="-526.5" rx="72" ry="21.5"/>
<text text-anchor="middle" x="72" y="-524" font-family="Arial" font-size="10.00">C&#45;1034</text>
</g>
<!-- C&#45;0525&#45;&gt;C&#45;1034 -->
<g id="edge49" class="edge">
<title>C&#45;0525&#45;&gt;C&#45;1034</title>
<path fill="none" stroke="#4d4d4d" d="M1045.51,-945C833.47,-945 63.5,-945 63.5,-945 63.5,-945 63.5,-555.12 63.5,-555.12"/>
<polygon fill="#4d4d4d" stroke="#4d4d4d" points="65.95,-555.12 63.5,-548.12 61.05,-555.12 65.95,-555.12"/>
</g>
<!-- S&#45;907 -->
<g id="node55" class="node">
<title>S&#45;907</title>
<polygon fill="mediumseagreen" stroke="black" points="1533,-851 1461,-829.5 1533,-808 1605,-829.5 1533,-851"/>
<text text-anchor="middle" x="1533" y="-827" font-family="Arial" font-size="10.00">S&#45;907</text>
</g>
<!-- C&#45;0525&#45;&gt;S&#45;907 -->
<g id="edge51" class="edge">
<title>C&#45;0525&#45;&gt;S&#45;907</title>
<path fill="none" stroke="#4d4d4d" d="M1170.43,-927C1289.22,-927 1514.5,-927 1514.5,-927 1514.5,-927 1514.5,-852.6 1514.5,-852.6"/>
<polygon fill="#4d4d4d" stroke="#4d4d4d" points="1516.95,-852.6 1514.5,-845.6 1512.05,-852.6 1516.95,-852.6"/>
</g>
<!-- S&#45;879 -->
<g id="node20" class="node">
<title>S&#45;879</title>
<polygon fill="mediumseagreen" stroke="black" points="776,-1053 704,-1031.5 776,-1010 848,-1031.5 776,-1053"/>
<text text-anchor="middle" x="776" y="-1029" font-family="Arial" font-size="10.00">S&#45;879</text>
</g>
<!-- ext_circ_304_22_ -->
<g id="node57" class="node">
<title>ext_circ_304_22_</title>
<polygon fill="lightpink" stroke="darkorange" stroke-dasharray="5,2" points="1478,-649 1334,-649 1334,-606 1478,-606 1478,-649"/>
<text text-anchor="middle" x="1406" y="-630.5" font-family="Arial" font-size="10.00">Circuito:</text>
<text text-anchor="middle" x="1406" y="-619.5" font-family="Arial" font-size="10.00">304&#45;22&#45;</text>
</g>
<!-- R&#45;276&#45;&gt;ext_circ_304_22_ -->
<g id="edge64" class="edge">
<title>R&#45;276&#45;&gt;ext_circ_304_22_</title>
<path fill="none" stroke="darkorange" stroke-dasharray="5,2" d="M1163,-706.97C1163,-677.18 1163,-627 1163,-627 1163,-627 1326.75,-627 1326.75,-627"/>
<polygon fill="darkorange" stroke="darkorange" points="1326.75,-629.45 1333.75,-627 1326.75,-624.55 1326.75,-629.45"/>
</g>
<!-- R&#45;065 -->
<g id="node23" class="node">
<title>R&#45;065</title>
<polygon fill="mediumseagreen" stroke="black" points="1568,-1022.59 1568,-1040.41 1525.82,-1053 1466.18,-1053 1424,-1040.41 1424,-1022.59 1466.18,-1010 1525.82,-1010 1568,-1022.59"/>
<text text-anchor="middle" x="1496" y="-1029" font-family="Arial" font-size="10.00">R&#45;065</text>
</g>
<!-- R&#45;065&#45;&gt;C&#45;0525 -->
<g id="edge22" class="edge">
<title>R&#45;065&#45;&gt;C&#45;0525</title>
<path fill="none" stroke="#4d4d4d" d="M1442.5,-1016.83C1442.5,-992.15 1442.5,-945 1442.5,-945 1442.5,-945 1159.29,-945 1159.29,-945"/>
<polygon fill="#4d4d4d" stroke="#4d4d4d" points="1159.3,-942.55 1152.29,-945 1159.29,-947.45 1159.3,-942.55"/>
</g>
<!-- C&#45;0358 -->
<g id="node24" class="node">
<title>C&#45;0358</title>
<ellipse fill="mediumseagreen" stroke="black" cx="1046" cy="-1536.5" rx="72" ry="21.5"/>
<text text-anchor="middle" x="1046" y="-1534" font-family="Arial" font-size="10.00">C&#45;0358</text>
</g>
<!-- C&#45;0358&#45;&gt;S&#45;859 -->
<g id="edge9" class="edge">
<title>C&#45;0358&#45;&gt;S&#45;859</title>
<path fill="none" stroke="#4d4d4d" d="M1070,-1516.06C1070,-1516.06 1070,-1457.03 1070,-1457.03"/>
<polygon fill="#4d4d4d" stroke="#4d4d4d" points="1072.45,-1457.03 1070,-1450.03 1067.55,-1457.03 1072.45,-1457.03"/>
</g>
<!-- C&#45;0358&#45;&gt;S&#45;544 -->
<g id="edge6" class="edge">
<title>C&#45;0358&#45;&gt;S&#45;544</title>
<path fill="none" stroke="#4d4d4d" d="M1022,-1515.96C1022,-1501.98 1022,-1486 1022,-1486 1022,-1486 612,-1486 612,-1486 612,-1486 612,-1464.21 612,-1464.21"/>
<polygon fill="#4d4d4d" stroke="#4d4d4d" points="614.45,-1464.21 612,-1457.21 609.55,-1464.21 614.45,-1464.21"/>
</g>
<!-- C&#45;0358&#45;&gt;C&#45;0844 -->
<g id="edge10" class="edge">
<title>C&#45;0358&#45;&gt;C&#45;0844</title>
<path fill="none" stroke="#4d4d4d" d="M973.68,-1536C966.61,-1536 962,-1536 962,-1536 962,-1536 962,-1442 962,-1442 962,-1442 941.75,-1442 941.75,-1442"/>
<polygon fill="#4d4d4d" stroke="#4d4d4d" points="941.75,-1439.55 934.75,-1442 941.75,-1444.45 941.75,-1439.55"/>
</g>
<!-- C&#45;0596 -->
<g id="node26" class="node">
<title>C&#45;0596</title>
<ellipse fill="mediumseagreen" stroke="black" cx="432" cy="-526.5" rx="72" ry="21.5"/>
<text text-anchor="middle" x="432" y="-524" font-family="Arial" font-size="10.00">C&#45;0596</text>
</g>
<!-- C&#45;0596&#45;&gt;S&#45;1482 -->
<g id="edge29" class="edge">
<title>C&#45;0596&#45;&gt;S&#45;1482</title>
<path fill="none" stroke="#4d4d4d" d="M494.5,-515.7C494.5,-488.26 494.5,-418 494.5,-418 494.5,-418 519.84,-418 519.84,-418"/>
<polygon fill="#4d4d4d" stroke="#4d4d4d" points="519.84,-420.45 526.84,-418 519.84,-415.55 519.84,-420.45"/>
</g>
<!-- C&#45;0760 -->
<g id="node27" class="node">
<title>C&#45;0760</title>
<ellipse fill="tomato" stroke="black" cx="559" cy="-122.5" rx="72" ry="21.5"/>
<text text-anchor="middle" x="559" y="-120" font-family="Arial" font-size="10.00">C&#45;0760</text>
</g>
<!-- C&#45;0760&#45;&gt;ext_circ_307_24_ -->
<g id="edge60" class="edge">
<title>C&#45;0760&#45;&gt;ext_circ_307_24_</title>
<path fill="none" stroke="darkorange" stroke-dasharray="5,2" d="M559,-100.58C559,-72.67 559,-28 559,-28 559,-28 458.18,-28 458.18,-28"/>
<polygon fill="darkorange" stroke="darkorange" points="458.18,-25.55 451.18,-28 458.18,-30.45 458.18,-25.55"/>
</g>
<!-- C&#45;0034 -->
<g id="node28" class="node">
<title>C&#45;0034</title>
<ellipse fill="tomato" stroke="black" cx="1398" cy="-1233.5" rx="72" ry="21.5"/>
<text text-anchor="middle" x="1398" y="-1231" font-family="Arial" font-size="10.00">C&#45;0034</text>
</g>
<!-- C&#45;0034&#45;&gt;ext_circ_304_22_ -->
<g id="edge56" class="edge">
<title>C&#45;0034&#45;&gt;ext_circ_304_22_</title>
<path fill="none" stroke="darkorange" stroke-dasharray="5,2" d="M1470.12,-1233C1535.93,-1233 1623,-1233 1623,-1233 1623,-1233 1623,-627 1623,-627 1623,-627 1485.26,-627 1485.26,-627"/>
<polygon fill="darkorange" stroke="darkorange" points="1485.26,-624.55 1478.26,-627 1485.26,-629.45 1485.26,-624.55"/>
</g>
<!-- S&#45;2175 -->
<g id="node30" class="node">
<title>S&#45;2175</title>
<polygon fill="mediumseagreen" stroke="black" points="559,-750 487,-728.5 559,-707 631,-728.5 559,-750"/>
<text text-anchor="middle" x="559" y="-726" font-family="Arial" font-size="10.00">S&#45;2175</text>
</g>
<!-- S&#45;2231 -->
<g id="node46" class="node">
<title>S&#45;2231</title>
<polygon fill="mediumseagreen" stroke="black" points="559,-649 487,-627.5 559,-606 631,-627.5 559,-649"/>
<text text-anchor="middle" x="559" y="-625" font-family="Arial" font-size="10.00">S&#45;2231</text>
</g>
<!-- S&#45;2175&#45;&gt;S&#45;2231 -->
<g id="edge45" class="edge">
<title>S&#45;2175&#45;&gt;S&#45;2231</title>
<path fill="none" stroke="#4d4d4d" d="M559,-706.58C559,-706.58 559,-656.03 559,-656.03"/>
<polygon fill="#4d4d4d" stroke="#4d4d4d" points="561.45,-656.03 559,-649.03 556.55,-656.03 561.45,-656.03"/>
</g>
<!-- R&#45;191 -->
<g id="node36" class="node">
<title>R&#45;191</title>
<polygon fill="mediumseagreen" stroke="black" points="938,-1325.59 938,-1343.41 895.82,-1356 836.18,-1356 794,-1343.41 794,-1325.59 836.18,-1313 895.82,-1313 938,-1325.59"/>
<text text-anchor="middle" x="866" y="-1332" font-family="Arial" font-size="10.00">R&#45;191</text>
</g>
<!-- C&#45;0844&#45;&gt;R&#45;191 -->
<g id="edge11" class="edge">
<title>C&#45;0844&#45;&gt;R&#45;191</title>
<path fill="none" stroke="#4d4d4d" d="M866,-1413.58C866,-1413.58 866,-1363.03 866,-1363.03"/>
<polygon fill="#4d4d4d" stroke="#4d4d4d" points="868.45,-1363.03 866,-1356.03 863.55,-1363.03 868.45,-1363.03"/>
</g>
<!-- S&#45;872&#45;&gt;C&#45;0597 -->
<g id="edge26" class="edge">
<title>S&#45;872&#45;&gt;C&#45;0597</title>
<path fill="none" stroke="#4d4d4d" d="M199,-807.58C199,-807.58 199,-757.03 199,-757.03"/>
<polygon fill="#4d4d4d" stroke="#4d4d4d" points="201.45,-757.03 199,-750.03 196.55,-757.03 201.45,-757.03"/>
</g>
<!-- C&#45;0563 -->
<g id="node37" class="node">
<title>C&#45;0563</title>
<ellipse fill="tomato" stroke="black" cx="379" cy="-728.5" rx="72" ry="21.5"/>
<text text-anchor="middle" x="379" y="-726" font-family="Arial" font-size="10.00">C&#45;0563</text>
</g>
<!-- S&#45;872&#45;&gt;C&#45;0563 -->
<g id="edge25" class="edge">
<title>S&#45;872&#45;&gt;C&#45;0563</title>
<path fill="none" stroke="#4d4d4d" d="M269.47,-829C280.86,-829 289,-829 289,-829 289,-829 289,-728 289,-728 289,-728 299.78,-728 299.78,-728"/>
<polygon fill="#4d4d4d" stroke="#4d4d4d" points="299.78,-730.45 306.78,-728 299.78,-725.55 299.78,-730.45"/>
</g>
<!-- S&#45;1363&#45;&gt;S&#45;2175 -->
<g id="edge44" class="edge">
<title>S&#45;1363&#45;&gt;S&#45;2175</title>
<path fill="none" stroke="#4d4d4d" d="M559,-807.58C559,-807.58 559,-757.03 559,-757.03"/>
<polygon fill="#4d4d4d" stroke="#4d4d4d" points="561.45,-757.03 559,-750.03 556.55,-757.03 561.45,-757.03"/>
</g>
<!-- S&#45;870 -->
<g id="node35" class="node">
<title>S&#45;870</title>
<polygon fill="mediumseagreen" stroke="black" points="956,-1053 884,-1031.5 956,-1010 1028,-1031.5 956,-1053"/>
<text text-anchor="middle" x="956" y="-1029" font-family="Arial" font-size="10.00">S&#45;870</text>
</g>
<!-- R&#45;191&#45;&gt;C&#45;0842 -->
<g id="edge12" class="edge">
<title>R&#45;191&#45;&gt;C&#45;0842</title>
<path fill="none" stroke="#4d4d4d" d="M866,-1312.58C866,-1312.58 866,-1262.03 866,-1262.03"/>
<polygon fill="#4d4d4d" stroke="#4d4d4d" points="868.45,-1262.03 866,-1255.03 863.55,-1262.03 868.45,-1262.03"/>
</g>
<!-- C&#45;0563&#45;&gt;S&#45;1482 -->
<g id="edge58" class="edge">
<title>C&#45;0563&#45;&gt;S&#45;1482</title>
<path fill="none" stroke="blue" stroke-dasharray="5,2" d="M406,-708.38C406,-667.17 406,-577 406,-577 406,-577 567.5,-577 567.5,-577 567.5,-577 567.5,-452.31 567.5,-452.31"/>
<polygon fill="blue" stroke="blue" points="569.95,-452.31 567.5,-445.31 565.05,-452.31 569.95,-452.31"/>
</g>
<!-- R&#45;100&#45;&gt;C&#45;0596 -->
<g id="edge28" class="edge">
<title>R&#45;100&#45;&gt;C&#45;0596</title>
<path fill="none" stroke="#4d4d4d" d="M338.5,-611.64C338.5,-583.09 338.5,-526 338.5,-526 338.5,-526 352.72,-526 352.72,-526"/>
<polygon fill="#4d4d4d" stroke="#4d4d4d" points="352.72,-528.45 359.72,-526 352.72,-523.55 352.72,-528.45"/>
</g>
<!-- C&#45;0037&#45;&gt;S&#45;1279 -->
<g id="edge2" class="edge">
<title>C&#45;0037&#45;&gt;S&#45;1279</title>
<path fill="none" stroke="#4d4d4d" d="M1036.75,-1637C965.12,-1637 866,-1637 866,-1637 866,-1637 866,-1565.31 866,-1565.31"/>
<polygon fill="#4d4d4d" stroke="#4d4d4d" points="868.45,-1565.31 866,-1558.31 863.55,-1565.31 868.45,-1565.31"/>
</g>
<!-- C&#45;0037&#45;&gt;C&#45;0358 -->
<g id="edge5" class="edge">
<title>C&#45;0037&#45;&gt;C&#45;0358</title>
<path fill="none" stroke="#4d4d4d" d="M1077.5,-1618.03C1077.5,-1618.03 1077.5,-1562.91 1077.5,-1562.91"/>
<polygon fill="#4d4d4d" stroke="#4d4d4d" points="1079.95,-1562.91 1077.5,-1555.91 1075.05,-1562.91 1079.95,-1562.91"/>
</g>
<!-- C&#45;0037&#45;&gt;C&#45;0034 -->
<g id="edge3" class="edge">
<title>C&#45;0037&#45;&gt;C&#45;0034</title>
<path fill="none" stroke="#4d4d4d" d="M1139,-1617.79C1139,-1537.58 1139,-1240 1139,-1240 1139,-1240 1322.27,-1240 1322.27,-1240"/>
<polygon fill="#4d4d4d" stroke="#4d4d4d" points="1322.27,-1242.45 1329.27,-1240 1322.27,-1237.55 1322.27,-1242.45"/>
</g>
<!-- S&#45;1849 -->
<g id="node44" class="node">
<title>S&#45;1849</title>
<polygon fill="mediumseagreen" stroke="black" points="1300,-1558 1228,-1536.5 1300,-1515 1372,-1536.5 1300,-1558"/>
<text text-anchor="middle" x="1300" y="-1534" font-family="Arial" font-size="10.00">S&#45;1849</text>
</g>
<!-- C&#45;0037&#45;&gt;S&#45;1849 -->
<g id="edge4" class="edge">
<title>C&#45;0037&#45;&gt;S&#45;1849</title>
<path fill="none" stroke="#4d4d4d" d="M1160,-1622.08C1160,-1593.69 1160,-1536 1160,-1536 1160,-1536 1222.59,-1536 1222.59,-1536"/>
<polygon fill="#4d4d4d" stroke="#4d4d4d" points="1222.59,-1538.45 1229.59,-1536 1222.59,-1533.55 1222.59,-1538.45"/>
</g>
<!-- C&#45;0759 -->
<g id="node41" class="node">
<title>C&#45;0759</title>
<ellipse fill="mediumseagreen" stroke="black" cx="199" cy="-223.5" rx="72" ry="21.5"/>
<text text-anchor="middle" x="199" y="-221" font-family="Arial" font-size="10.00">C&#45;0759</text>
</g>
<!-- R&#45;167 -->
<g id="node48" class="node">
<title>R&#45;167</title>
<polygon fill="tomato" stroke="black" points="271,-113.59 271,-131.41 228.82,-144 169.18,-144 127,-131.41 127,-113.59 169.18,-101 228.82,-101 271,-113.59"/>
<text text-anchor="middle" x="199" y="-120" font-family="Arial" font-size="10.00">R&#45;167</text>
</g>
<!-- C&#45;0759&#45;&gt;R&#45;167 -->
<g id="edge33" class="edge">
<title>C&#45;0759&#45;&gt;R&#45;167</title>
<path fill="none" stroke="#4d4d4d" d="M199,-201.58C199,-201.58 199,-151.03 199,-151.03"/>
<polygon fill="#4d4d4d" stroke="#4d4d4d" points="201.45,-151.03 199,-144.03 196.55,-151.03 201.45,-151.03"/>
</g>
<!-- C&#45;1096&#45;&gt;R&#45;271 -->
<g id="edge37" class="edge">
<title>C&#45;1096&#45;&gt;R&#45;271</title>
<path fill="none" stroke="#4d4d4d" d="M603.5,-304.55C603.5,-304.55 603.5,-252.16 603.5,-252.16"/>
<polygon fill="#4d4d4d" stroke="#4d4d4d" points="605.95,-252.16 603.5,-245.16 601.05,-252.16 605.95,-252.16"/>
</g>
<!-- C&#45;0027&#45;&gt;ext_circ_304_22_ -->
<g id="edge65" class="edge">
<title>C&#45;0027&#45;&gt;ext_circ_304_22_</title>
<path fill="none" stroke="darkorange" stroke-dasharray="5,2" d="M1406,-706.58C1406,-706.58 1406,-656.03 1406,-656.03"/>
<polygon fill="darkorange" stroke="darkorange" points="1408.45,-656.03 1406,-649.03 1403.55,-656.03 1408.45,-656.03"/>
</g>
<!-- R&#45;167&#45;&gt;ext_circ_307_24_ -->
<g id="edge59" class="edge">
<title>R&#45;167&#45;&gt;ext_circ_307_24_</title>
<path fill="none" stroke="darkorange" stroke-dasharray="5,2" d="M199,-100.58C199,-72.67 199,-28 199,-28 199,-28 299.82,-28 299.82,-28"/>
<polygon fill="darkorange" stroke="darkorange" points="299.82,-30.45 306.82,-28 299.82,-25.55 299.82,-30.45"/>
</g>
<!-- C&#45;1034&#45;&gt;ext_circ_307_24_ -->
<g id="edge67" class="edge">
<title>C&#45;1034&#45;&gt;ext_circ_307_24_</title>
<path fill="none" stroke="darkorange" stroke-dasharray="5,2" d="M63.5,-505.13C63.5,-408.14 63.5,-14 63.5,-14 63.5,-14 299.62,-14 299.62,-14"/>
<polygon fill="darkorange" stroke="darkorange" points="299.62,-16.45 306.62,-14 299.62,-11.55 299.62,-16.45"/>
</g>
<!-- S&#45;1554 -->
<g id="node51" class="node">
<title>S&#45;1554</title>
<polygon fill="mediumseagreen" stroke="black" points="1136,-1053 1064,-1031.5 1136,-1010 1208,-1031.5 1136,-1053"/>
<text text-anchor="middle" x="1136" y="-1029" font-family="Arial" font-size="10.00">S&#45;1554</text>
</g>
<!-- C&#45;0232&#45;&gt;ext_circ_303_26_ -->
<g id="edge63" class="edge">
<title>C&#45;0232&#45;&gt;ext_circ_303_26_</title>
<path fill="none" stroke="darkorange" stroke-dasharray="5,2" d="M763.5,-302.88C763.5,-302.88 763.5,-151.27 763.5,-151.27"/>
<polygon fill="darkorange" stroke="darkorange" points="765.95,-151.27 763.5,-144.27 761.05,-151.27 765.95,-151.27"/>
</g>
<!-- S&#45;1481&#45;&gt;C&#45;0020 -->
<g id="edge35" class="edge">
<title>S&#45;1481&#45;&gt;C&#45;0020</title>
<path fill="none" stroke="#4d4d4d" d="M384,-304.06C384,-304.06 384,-251.95 384,-251.95"/>
<polygon fill="#4d4d4d" stroke="#4d4d4d" points="386.45,-251.95 384,-244.95 381.55,-251.95 386.45,-251.95"/>
</g>
<!-- S&#45;1481&#45;&gt;C&#45;0760 -->
<g id="edge34" class="edge">
<title>S&#45;1481&#45;&gt;C&#45;0760</title>
<path fill="none" stroke="#4d4d4d" d="M456,-322.75C456,-302.96 456,-122 456,-122 456,-122 479.9,-122 479.9,-122"/>
<polygon fill="#4d4d4d" stroke="#4d4d4d" points="479.9,-124.45 486.9,-122 479.9,-119.55 479.9,-124.45"/>
</g>
<!-- S&#45;1481&#45;&gt;C&#45;0759 -->
<g id="edge32" class="edge">
<title>S&#45;1481&#45;&gt;C&#45;0759</title>
<path fill="none" stroke="#4d4d4d" d="M318.62,-324C281.68,-324 244,-324 244,-324 244,-324 244,-247.55 244,-247.55"/>
<polygon fill="#4d4d4d" stroke="#4d4d4d" points="246.45,-247.55 244,-240.55 241.55,-247.55 246.45,-247.55"/>
</g>
<!-- S&#45;139&#45;&gt;S&#45;540 -->
<g id="edge18" class="edge">
<title>S&#45;139&#45;&gt;S&#45;540</title>
<path fill="none" stroke="#4d4d4d" d="M1183.14,-1125C1226.8,-1125 1285,-1125 1285,-1125 1285,-1125 1285,-1051.11 1285,-1051.11"/>
<polygon fill="#4d4d4d" stroke="#4d4d4d" points="1287.45,-1051.11 1285,-1044.11 1282.55,-1051.11 1287.45,-1051.11"/>
</g>
<!-- S&#45;139&#45;&gt;S&#45;906 -->
<g id="edge17" class="edge">
<title>S&#45;139&#45;&gt;S&#45;906</title>
<path fill="none" stroke="#4d4d4d" d="M1100,-1121.6C1100,-1109.3 1100,-1091 1100,-1091 1100,-1091 596,-1091 596,-1091 596,-1091 596,-1060.32 596,-1060.32"/>
<polygon fill="#4d4d4d" stroke="#4d4d4d" points="598.45,-1060.32 596,-1053.32 593.55,-1060.32 598.45,-1060.32"/>
</g>
<!-- S&#45;139&#45;&gt;S&#45;879 -->
<g id="edge19" class="edge">
<title>S&#45;139&#45;&gt;S&#45;879</title>
<path fill="none" stroke="#4d4d4d" d="M1136,-1111C1136,-1093.61 1136,-1072 1136,-1072 1136,-1072 776,-1072 776,-1072 776,-1072 776,-1060.17 776,-1060.17"/>
<polygon fill="#4d4d4d" stroke="#4d4d4d" points="778.45,-1060.17 776,-1053.17 773.55,-1060.17 778.45,-1060.17"/>
</g>
<!-- S&#45;139&#45;&gt;R&#45;065 -->
<g id="edge21" class="edge">
<title>S&#45;139&#45;&gt;R&#45;065</title>
<path fill="none" stroke="#4d4d4d" d="M1186.31,-1139C1274.33,-1139 1447,-1139 1447,-1139 1447,-1139 1447,-1054.36 1447,-1054.36"/>
<polygon fill="#4d4d4d" stroke="#4d4d4d" points="1449.45,-1054.36 1447,-1047.36 1444.55,-1054.36 1449.45,-1054.36"/>
</g>
<!-- S&#45;139&#45;&gt;S&#45;870 -->
<g id="edge54" class="edge">
<title>S&#45;139&#45;&gt;S&#45;870</title>
<path fill="none" stroke="#4d4d4d" d="M1065.53,-1132C1054.14,-1132 1046,-1132 1046,-1132 1046,-1132 1046,-1031 1046,-1031 1046,-1031 1033.47,-1031 1033.47,-1031"/>
<polygon fill="#4d4d4d" stroke="#4d4d4d" points="1033.47,-1028.55 1026.47,-1031 1033.47,-1033.45 1033.47,-1028.55"/>
</g>
<!-- S&#45;139&#45;&gt;S&#45;1554 -->
<g id="edge20" class="edge">
<title>S&#45;139&#45;&gt;S&#45;1554</title>
<path fill="none" stroke="#4d4d4d" d="M1172,-1121.69C1172,-1121.69 1172,-1049.54 1172,-1049.54"/>
<polygon fill="#4d4d4d" stroke="#4d4d4d" points="1174.45,-1049.54 1172,-1042.54 1169.55,-1049.54 1174.45,-1049.54"/>
</g>
</g>
</svg>
