<?xml version="1.0" encoding="UTF-8" standalone="no"?>
<!DOCTYPE svg PUBLIC "-//W3C//DTD SVG 1.1//EN"
 "http://www.w3.org/Graphics/SVG/1.1/DTD/svg11.dtd">
<!-- Generated by graphviz version 2.50.0 (0)
 -->
<!-- Title: Grafo_Circuito_304_22_ Pages: 1 -->
<svg width="1309pt" height="1271pt"
 viewBox="0.00 0.00 1309.00 1271.00" xmlns="http://www.w3.org/2000/svg" xmlns:xlink="http://www.w3.org/1999/xlink">
<g id="graph0" class="graph" transform="scale(1 1) rotate(0) translate(4 1267)">
<title>Grafo_Circuito_304_22_</title>
<polygon fill="white" stroke="transparent" points="-4,4 -4,-1267 1305,-1267 1305,4 -4,4"/>
<!-- S&#45;894 -->
<g id="node1" class="node">
<title>S&#45;894</title>
<polygon fill="mediumseagreen" stroke="black" points="795,-548 723,-526.5 795,-505 867,-526.5 795,-548"/>
<text text-anchor="middle" x="795" y="-524" font-family="Arial" font-size="10.00">S&#45;894</text>
</g>
<!-- R&#45;067 -->
<g id="node2" class="node">
<title>R&#45;067</title>
<polygon fill="mediumseagreen" stroke="black" points="465,-719.59 465,-737.41 422.82,-750 363.18,-750 321,-737.41 321,-719.59 363.18,-707 422.82,-707 465,-719.59"/>
<text text-anchor="middle" x="393" y="-726" font-family="Arial" font-size="10.00">R&#45;067</text>
</g>
<!-- C&#45;0724 -->
<g id="node10" class="node">
<title>C&#45;0724</title>
<ellipse fill="mediumseagreen" stroke="black" cx="406" cy="-627.5" rx="72" ry="21.5"/>
<text text-anchor="middle" x="406" y="-625" font-family="Arial" font-size="10.00">C&#45;0724</text>
</g>
<!-- R&#45;067&#45;&gt;C&#45;0724 -->
<g id="edge17" class="edge">
<title>R&#45;067&#45;&gt;C&#45;0724</title>
<path fill="none" stroke="#4d4d4d" d="M399.5,-706.58C399.5,-706.58 399.5,-656.03 399.5,-656.03"/>
<polygon fill="#4d4d4d" stroke="#4d4d4d" points="401.95,-656.03 399.5,-649.03 397.05,-656.03 401.95,-656.03"/>
</g>
<!-- C&#45;0035 -->
<g id="node3" class="node">
<title>C&#45;0035</title>
<ellipse fill="mediumseagreen" stroke="black" cx="256" cy="-1132.5" rx="72" ry="21.5"/>
<text text-anchor="middle" x="256" y="-1130" font-family="Arial" font-size="10.00">C&#45;0035</text>
</g>
<!-- C&#45;0034 -->
<g id="node13" class="node">
<title>C&#45;0034</title>
<ellipse fill="tomato" stroke="black" cx="167" cy="-930.5" rx="72" ry="21.5"/>
<text text-anchor="middle" x="167" y="-928" font-family="Arial" font-size="10.00">C&#45;0034</text>
</g>
<!-- C&#45;0035&#45;&gt;C&#45;0034 -->
<g id="edge2" class="edge">
<title>C&#45;0035&#45;&gt;C&#45;0034</title>
<path fill="none" stroke="#4d4d4d" d="M211.5,-1115.28C211.5,-1115.28 211.5,-954.68 211.5,-954.68"/>
<polygon fill="#4d4d4d" stroke="#4d4d4d" points="213.95,-954.68 211.5,-947.68 209.05,-954.68 213.95,-954.68"/>
</g>
<!-- S&#45;892 -->
<g id="node20" class="node">
<title>S&#45;892</title>
<polygon fill="mediumseagreen" stroke="black" points="333,-1053 261,-1031.5 333,-1010 405,-1031.5 333,-1053"/>
<text text-anchor="middle" x="333" y="-1029" font-family="Arial" font-size="10.00">S&#45;892</text>
</g>
<!-- C&#45;0035&#45;&gt;S&#45;892 -->
<g id="edge3" class="edge">
<title>C&#45;0035&#45;&gt;S&#45;892</title>
<path fill="none" stroke="#4d4d4d" d="M294.5,-1113.98C294.5,-1113.98 294.5,-1048.6 294.5,-1048.6"/>
<polygon fill="#4d4d4d" stroke="#4d4d4d" points="296.95,-1048.6 294.5,-1041.6 292.05,-1048.6 296.95,-1048.6"/>
</g>
<!-- S&#45;1915 -->
<g id="node4" class="node">
<title>S&#45;1915</title>
<polygon fill="mediumseagreen" stroke="black" points="252,-447 180,-425.5 252,-404 324,-425.5 252,-447"/>
<text text-anchor="middle" x="252" y="-423" font-family="Arial" font-size="10.00">S&#45;1915</text>
</g>
<!-- S&#45;1939 -->
<g id="node21" class="node">
<title>S&#45;1939</title>
<polygon fill="mediumseagreen" stroke="black" points="612,-346 540,-324.5 612,-303 684,-324.5 612,-346"/>
<text text-anchor="middle" x="612" y="-322" font-family="Arial" font-size="10.00">S&#45;1939</text>
</g>
<!-- S&#45;1915&#45;&gt;S&#45;1939 -->
<g id="edge21" class="edge">
<title>S&#45;1915&#45;&gt;S&#45;1939</title>
<path fill="none" stroke="#4d4d4d" d="M276,-411.16C276,-396.23 276,-375 276,-375 276,-375 612,-375 612,-375 612,-375 612,-353.21 612,-353.21"/>
<polygon fill="#4d4d4d" stroke="#4d4d4d" points="614.45,-353.21 612,-346.21 609.55,-353.21 614.45,-353.21"/>
</g>
<!-- C&#45;0027 -->
<g id="node22" class="node">
<title>C&#45;0027</title>
<ellipse fill="tomato" stroke="black" cx="72" cy="-223.5" rx="72" ry="21.5"/>
<text text-anchor="middle" x="72" y="-221" font-family="Arial" font-size="10.00">C&#45;0027</text>
</g>
<!-- S&#45;1915&#45;&gt;C&#45;0027 -->
<g id="edge27" class="edge">
<title>S&#45;1915&#45;&gt;C&#45;0027</title>
<path fill="none" stroke="#4d4d4d" d="M181.48,-425C149.84,-425 119.5,-425 119.5,-425 119.5,-425 119.5,-246.99 119.5,-246.99"/>
<polygon fill="#4d4d4d" stroke="#4d4d4d" points="121.95,-246.99 119.5,-239.99 117.05,-246.99 121.95,-246.99"/>
</g>
<!-- S&#45;890 -->
<g id="node25" class="node">
<title>S&#45;890</title>
<polygon fill="mediumseagreen" stroke="black" points="432,-346 360,-324.5 432,-303 504,-324.5 432,-346"/>
<text text-anchor="middle" x="432" y="-322" font-family="Arial" font-size="10.00">S&#45;890</text>
</g>
<!-- S&#45;1915&#45;&gt;S&#45;890 -->
<g id="edge22" class="edge">
<title>S&#45;1915&#45;&gt;S&#45;890</title>
<path fill="none" stroke="#4d4d4d" d="M299.28,-418C314.42,-418 327.33,-418 327.33,-418 327.33,-418 327.33,-324 327.33,-324 327.33,-324 354.61,-324 354.61,-324"/>
<polygon fill="#4d4d4d" stroke="#4d4d4d" points="354.61,-326.45 361.61,-324 354.61,-321.55 354.61,-326.45"/>
</g>
<!-- C&#45;1111 -->
<g id="node27" class="node">
<title>C&#45;1111</title>
<ellipse fill="mediumseagreen" stroke="black" cx="252" cy="-324.5" rx="72" ry="21.5"/>
<text text-anchor="middle" x="252" y="-322" font-family="Arial" font-size="10.00">C&#45;1111</text>
</g>
<!-- S&#45;1915&#45;&gt;C&#45;1111 -->
<g id="edge28" class="edge">
<title>S&#45;1915&#45;&gt;C&#45;1111</title>
<path fill="none" stroke="#4d4d4d" d="M228,-411.03C228,-411.03 228,-351.88 228,-351.88"/>
<polygon fill="#4d4d4d" stroke="#4d4d4d" points="230.45,-351.88 228,-344.88 225.55,-351.88 230.45,-351.88"/>
</g>
<!-- S&#45;2276 -->
<g id="node5" class="node">
<title>S&#45;2276</title>
<polygon fill="mediumseagreen" stroke="black" points="432,-245 360,-223.5 432,-202 504,-223.5 432,-245"/>
<text text-anchor="middle" x="432" y="-221" font-family="Arial" font-size="10.00">S&#45;2276</text>
</g>
<!-- C&#45;0977 -->
<g id="node6" class="node">
<title>C&#45;0977</title>
<ellipse fill="mediumseagreen" stroke="black" cx="1049" cy="-526.5" rx="72" ry="21.5"/>
<text text-anchor="middle" x="1049" y="-524" font-family="Arial" font-size="10.00">C&#45;0977</text>
</g>
<!-- R&#45;233 -->
<g id="node23" class="node">
<title>R&#45;233</title>
<polygon fill="tomato" stroke="black" points="1147,-416.59 1147,-434.41 1104.82,-447 1045.18,-447 1003,-434.41 1003,-416.59 1045.18,-404 1104.82,-404 1147,-416.59"/>
<text text-anchor="middle" x="1075" y="-423" font-family="Arial" font-size="10.00">R&#45;233</text>
</g>
<!-- C&#45;0977&#45;&gt;R&#45;233 -->
<g id="edge12" class="edge">
<title>C&#45;0977&#45;&gt;R&#45;233</title>
<path fill="none" stroke="#4d4d4d" d="M1062,-505.08C1062,-505.08 1062,-454.24 1062,-454.24"/>
<polygon fill="#4d4d4d" stroke="#4d4d4d" points="1064.45,-454.24 1062,-447.24 1059.55,-454.24 1064.45,-454.24"/>
</g>
<!-- C&#45;0412 -->
<g id="node7" class="node">
<title>C&#45;0412</title>
<ellipse fill="mediumseagreen" stroke="black" cx="929" cy="-627.5" rx="72" ry="21.5"/>
<text text-anchor="middle" x="929" y="-625" font-family="Arial" font-size="10.00">C&#45;0412</text>
</g>
<!-- C&#45;0412&#45;&gt;S&#45;894 -->
<g id="edge9" class="edge">
<title>C&#45;0412&#45;&gt;S&#45;894</title>
<path fill="none" stroke="#4d4d4d" d="M862,-619.57C862,-619.57 862,-535.23 862,-535.23"/>
<polygon fill="#4d4d4d" stroke="#4d4d4d" points="864.45,-535.23 862,-528.23 859.55,-535.23 864.45,-535.23"/>
</g>
<!-- C&#45;0412&#45;&gt;C&#45;0977 -->
<g id="edge11" class="edge">
<title>C&#45;0412&#45;&gt;C&#45;0977</title>
<path fill="none" stroke="#4d4d4d" d="M989,-615.52C989,-615.52 989,-545.47 989,-545.47"/>
<polygon fill="#4d4d4d" stroke="#4d4d4d" points="991.45,-545.47 989,-538.47 986.55,-545.47 991.45,-545.47"/>
</g>
<!-- C&#45;0218 -->
<g id="node26" class="node">
<title>C&#45;0218</title>
<ellipse fill="tomato" stroke="black" cx="895" cy="-425.5" rx="72" ry="21.5"/>
<text text-anchor="middle" x="895" y="-423" font-family="Arial" font-size="10.00">C&#45;0218</text>
</g>
<!-- C&#45;0412&#45;&gt;C&#45;0218 -->
<g id="edge10" class="edge">
<title>C&#45;0412&#45;&gt;C&#45;0218</title>
<path fill="none" stroke="#4d4d4d" d="M917,-606.26C917,-606.26 917,-453.15 917,-453.15"/>
<polygon fill="#4d4d4d" stroke="#4d4d4d" points="919.45,-453.15 917,-446.15 914.55,-453.15 919.45,-453.15"/>
</g>
<!-- S&#45;895 -->
<g id="node28" class="node">
<title>S&#45;895</title>
<polygon fill="mediumseagreen" stroke="black" points="1229,-548 1157,-526.5 1229,-505 1301,-526.5 1229,-548"/>
<text text-anchor="middle" x="1229" y="-524" font-family="Arial" font-size="10.00">S&#45;895</text>
</g>
<!-- C&#45;0412&#45;&gt;S&#45;895 -->
<g id="edge13" class="edge">
<title>C&#45;0412&#45;&gt;S&#45;895</title>
<path fill="none" stroke="#4d4d4d" d="M1001.24,-627C1090.01,-627 1229,-627 1229,-627 1229,-627 1229,-555.31 1229,-555.31"/>
<polygon fill="#4d4d4d" stroke="#4d4d4d" points="1231.45,-555.31 1229,-548.31 1226.55,-555.31 1231.45,-555.31"/>
</g>
<!-- C&#45;0411 -->
<g id="node8" class="node">
<title>C&#45;0411</title>
<ellipse fill="mediumseagreen" stroke="black" cx="929" cy="-829.5" rx="72" ry="21.5"/>
<text text-anchor="middle" x="929" y="-827" font-family="Arial" font-size="10.00">C&#45;0411</text>
</g>
<!-- R&#45;140 -->
<g id="node14" class="node">
<title>R&#45;140</title>
<polygon fill="mediumseagreen" stroke="black" points="1001,-719.59 1001,-737.41 958.82,-750 899.18,-750 857,-737.41 857,-719.59 899.18,-707 958.82,-707 1001,-719.59"/>
<text text-anchor="middle" x="929" y="-726" font-family="Arial" font-size="10.00">R&#45;140</text>
</g>
<!-- C&#45;0411&#45;&gt;R&#45;140 -->
<g id="edge7" class="edge">
<title>C&#45;0411&#45;&gt;R&#45;140</title>
<path fill="none" stroke="#4d4d4d" d="M929,-807.58C929,-807.58 929,-757.03 929,-757.03"/>
<polygon fill="#4d4d4d" stroke="#4d4d4d" points="931.45,-757.03 929,-750.03 926.55,-757.03 931.45,-757.03"/>
</g>
<!-- R&#45;276 -->
<g id="node9" class="node">
<title>R&#45;276</title>
<polygon fill="tomato" stroke="black" points="324,-214.59 324,-232.41 281.82,-245 222.18,-245 180,-232.41 180,-214.59 222.18,-202 281.82,-202 324,-214.59"/>
<text text-anchor="middle" x="252" y="-221" font-family="Arial" font-size="10.00">R&#45;276</text>
</g>
<!-- ext_circ_304_23_ -->
<g id="node33" class="node">
<title>ext_circ_304_23_</title>
<polygon fill="lightpink" stroke="darkorange" stroke-dasharray="5,2" points="144,-144 0,-144 0,-101 144,-101 144,-144"/>
<text text-anchor="middle" x="72" y="-125.5" font-family="Arial" font-size="10.00">Circuito:</text>
<text text-anchor="middle" x="72" y="-114.5" font-family="Arial" font-size="10.00">304&#45;23&#45;</text>
</g>
<!-- R&#45;276&#45;&gt;ext_circ_304_23_ -->
<g id="edge40" class="edge">
<title>R&#45;276&#45;&gt;ext_circ_304_23_</title>
<path fill="none" stroke="darkorange" stroke-dasharray="5,2" d="M252,-201.8C252,-170.14 252,-115 252,-115 252,-115 151.18,-115 151.18,-115"/>
<polygon fill="darkorange" stroke="darkorange" points="151.18,-112.55 144.18,-115 151.18,-117.45 151.18,-112.55"/>
</g>
<!-- S&#45;862 -->
<g id="node11" class="node">
<title>S&#45;862</title>
<polygon fill="mediumseagreen" stroke="black" points="612,-548 540,-526.5 612,-505 684,-526.5 612,-548"/>
<text text-anchor="middle" x="612" y="-524" font-family="Arial" font-size="10.00">S&#45;862</text>
</g>
<!-- C&#45;0724&#45;&gt;S&#45;862 -->
<g id="edge19" class="edge">
<title>C&#45;0724&#45;&gt;S&#45;862</title>
<path fill="none" stroke="#4d4d4d" d="M467.01,-616C514.95,-616 573.67,-616 573.67,-616 573.67,-616 573.67,-543.77 573.67,-543.77"/>
<polygon fill="#4d4d4d" stroke="#4d4d4d" points="576.12,-543.77 573.67,-536.77 571.22,-543.77 576.12,-543.77"/>
</g>
<!-- S&#45;1112 -->
<g id="node15" class="node">
<title>S&#45;1112</title>
<polygon fill="mediumseagreen" stroke="black" points="432,-548 360,-526.5 432,-505 504,-526.5 432,-548"/>
<text text-anchor="middle" x="432" y="-524" font-family="Arial" font-size="10.00">S&#45;1112</text>
</g>
<!-- C&#45;0724&#45;&gt;S&#45;1112 -->
<g id="edge31" class="edge">
<title>C&#45;0724&#45;&gt;S&#45;1112</title>
<path fill="none" stroke="#4d4d4d" d="M419,-606.08C419,-606.08 419,-551.19 419,-551.19"/>
<polygon fill="#4d4d4d" stroke="#4d4d4d" points="421.45,-551.19 419,-544.19 416.55,-551.19 421.45,-551.19"/>
</g>
<!-- S&#45;861 -->
<g id="node16" class="node">
<title>S&#45;861</title>
<polygon fill="mediumseagreen" stroke="black" points="252,-548 180,-526.5 252,-505 324,-526.5 252,-548"/>
<text text-anchor="middle" x="252" y="-524" font-family="Arial" font-size="10.00">S&#45;861</text>
</g>
<!-- C&#45;0724&#45;&gt;S&#45;861 -->
<g id="edge18" class="edge">
<title>C&#45;0724&#45;&gt;S&#45;861</title>
<path fill="none" stroke="#4d4d4d" d="M347,-615.05C347,-586.55 347,-519 347,-519 347,-519 305.94,-519 305.94,-519"/>
<polygon fill="#4d4d4d" stroke="#4d4d4d" points="305.94,-516.55 298.94,-519 305.94,-521.45 305.94,-516.55"/>
</g>
<!-- C&#45;0410 -->
<g id="node12" class="node">
<title>C&#45;0410</title>
<ellipse fill="tomato" stroke="black" cx="569" cy="-829.5" rx="72" ry="21.5"/>
<text text-anchor="middle" x="569" y="-827" font-family="Arial" font-size="10.00">C&#45;0410</text>
</g>
<!-- C&#45;0410&#45;&gt;C&#45;0412 -->
<g id="edge33" class="edge">
<title>C&#45;0410&#45;&gt;C&#45;0412</title>
<path fill="none" stroke="blue" stroke-dasharray="5,2" d="M607.33,-811.14C607.33,-763.21 607.33,-638 607.33,-638 607.33,-638 858.83,-638 858.83,-638"/>
<polygon fill="blue" stroke="blue" points="858.83,-640.45 865.83,-638 858.83,-635.55 858.83,-640.45"/>
</g>
<!-- C&#45;0034&#45;&gt;ext_circ_304_23_ -->
<g id="edge32" class="edge">
<title>C&#45;0034&#45;&gt;ext_circ_304_23_</title>
<path fill="none" stroke="darkorange" stroke-dasharray="5,2" d="M162,-908.65C162,-780.19 162,-129 162,-129 162,-129 151.22,-129 151.22,-129"/>
<polygon fill="darkorange" stroke="darkorange" points="151.22,-126.55 144.22,-129 151.22,-131.45 151.22,-126.55"/>
</g>
<!-- R&#45;140&#45;&gt;C&#45;0412 -->
<g id="edge8" class="edge">
<title>R&#45;140&#45;&gt;C&#45;0412</title>
<path fill="none" stroke="#4d4d4d" d="M929,-706.58C929,-706.58 929,-656.03 929,-656.03"/>
<polygon fill="#4d4d4d" stroke="#4d4d4d" points="931.45,-656.03 929,-649.03 926.55,-656.03 931.45,-656.03"/>
</g>
<!-- S&#45;861&#45;&gt;S&#45;1915 -->
<g id="edge20" class="edge">
<title>S&#45;861&#45;&gt;S&#45;1915</title>
<path fill="none" stroke="#4d4d4d" d="M252,-504.58C252,-504.58 252,-454.03 252,-454.03"/>
<polygon fill="#4d4d4d" stroke="#4d4d4d" points="254.45,-454.03 252,-447.03 249.55,-454.03 254.45,-454.03"/>
</g>
<!-- S&#45;1916 -->
<g id="node30" class="node">
<title>S&#45;1916</title>
<polygon fill="mediumseagreen" stroke="black" points="432,-447 360,-425.5 432,-404 504,-425.5 432,-447"/>
<text text-anchor="middle" x="432" y="-423" font-family="Arial" font-size="10.00">S&#45;1916</text>
</g>
<!-- S&#45;861&#45;&gt;S&#45;1916 -->
<g id="edge30" class="edge">
<title>S&#45;861&#45;&gt;S&#45;1916</title>
<path fill="none" stroke="#4d4d4d" d="M302.27,-533C317.68,-533 330.67,-533 330.67,-533 330.67,-533 330.67,-432 330.67,-432 330.67,-432 374.63,-432 374.63,-432"/>
<polygon fill="#4d4d4d" stroke="#4d4d4d" points="374.63,-434.45 381.63,-432 374.63,-429.55 374.63,-434.45"/>
</g>
<!-- C&#45;0725 -->
<g id="node17" class="node">
<title>C&#45;0725</title>
<ellipse fill="mediumseagreen" stroke="black" cx="699" cy="-223.5" rx="72" ry="21.5"/>
<text text-anchor="middle" x="699" y="-221" font-family="Arial" font-size="10.00">C&#45;0725</text>
</g>
<!-- R&#45;160 -->
<g id="node24" class="node">
<title>R&#45;160</title>
<polygon fill="tomato" stroke="black" points="797,-113.59 797,-131.41 754.82,-144 695.18,-144 653,-131.41 653,-113.59 695.18,-101 754.82,-101 797,-113.59"/>
<text text-anchor="middle" x="725" y="-120" font-family="Arial" font-size="10.00">R&#45;160</text>
</g>
<!-- C&#45;0725&#45;&gt;R&#45;160 -->
<g id="edge26" class="edge">
<title>C&#45;0725&#45;&gt;R&#45;160</title>
<path fill="none" stroke="#4d4d4d" d="M712,-202.08C712,-202.08 712,-151.24 712,-151.24"/>
<polygon fill="#4d4d4d" stroke="#4d4d4d" points="714.45,-151.24 712,-144.24 709.55,-151.24 714.45,-151.24"/>
</g>
<!-- 304&#45;22&#45; -->
<g id="node18" class="node">
<title>304&#45;22&#45;</title>
<polygon fill="gold" stroke="black" points="328,-1228.59 328,-1246.41 285.82,-1259 226.18,-1259 184,-1246.41 184,-1228.59 226.18,-1216 285.82,-1216 328,-1228.59"/>
<polygon fill="none" stroke="black" points="332,-1225.61 332,-1249.39 286.41,-1263 225.59,-1263 180,-1249.39 180,-1225.61 225.59,-1212 286.41,-1212 332,-1225.61"/>
<text text-anchor="middle" x="256" y="-1235" font-family="Arial" font-size="10.00">304&#45;22&#45;</text>
</g>
<!-- 304&#45;22&#45;&#45;&gt;C&#45;0035 -->
<g id="edge1" class="edge">
<title>304&#45;22&#45;&#45;&gt;C&#45;0035</title>
<path fill="none" stroke="#4d4d4d" d="M256,-1211.81C256,-1211.81 256,-1161.03 256,-1161.03"/>
<polygon fill="#4d4d4d" stroke="#4d4d4d" points="258.45,-1161.03 256,-1154.03 253.55,-1161.03 258.45,-1161.03"/>
</g>
<!-- C&#45;0726 -->
<g id="node19" class="node">
<title>C&#45;0726</title>
<ellipse fill="tomato" stroke="black" cx="545" cy="-122.5" rx="72" ry="21.5"/>
<text text-anchor="middle" x="545" y="-120" font-family="Arial" font-size="10.00">C&#45;0726</text>
</g>
<!-- ext_circ_307_24_ -->
<g id="node35" class="node">
<title>ext_circ_307_24_</title>
<polygon fill="lightpink" stroke="darkorange" stroke-dasharray="5,2" points="707,-43 563,-43 563,0 707,0 707,-43"/>
<text text-anchor="middle" x="635" y="-24.5" font-family="Arial" font-size="10.00">Circuito:</text>
<text text-anchor="middle" x="635" y="-13.5" font-family="Arial" font-size="10.00">307&#45;24&#45;</text>
</g>
<!-- C&#45;0726&#45;&gt;ext_circ_307_24_ -->
<g id="edge37" class="edge">
<title>C&#45;0726&#45;&gt;ext_circ_307_24_</title>
<path fill="none" stroke="darkorange" stroke-dasharray="5,2" d="M590,-105.37C590,-105.37 590,-50.31 590,-50.31"/>
<polygon fill="darkorange" stroke="darkorange" points="592.45,-50.31 590,-43.31 587.55,-50.31 592.45,-50.31"/>
</g>
<!-- S&#45;1326 -->
<g id="node31" class="node">
<title>S&#45;1326</title>
<polygon fill="mediumseagreen" stroke="black" points="569,-952 497,-930.5 569,-909 641,-930.5 569,-952"/>
<text text-anchor="middle" x="569" y="-928" font-family="Arial" font-size="10.00">S&#45;1326</text>
</g>
<!-- S&#45;892&#45;&gt;S&#45;1326 -->
<g id="edge4" class="edge">
<title>S&#45;892&#45;&gt;S&#45;1326</title>
<path fill="none" stroke="#4d4d4d" d="M361,-1018.36C361,-992.39 361,-937 361,-937 361,-937 511.65,-937 511.65,-937"/>
<polygon fill="#4d4d4d" stroke="#4d4d4d" points="511.65,-939.45 518.65,-937 511.65,-934.55 511.65,-939.45"/>
</g>
<!-- C&#45;0027&#45;&gt;ext_circ_304_23_ -->
<g id="edge39" class="edge">
<title>C&#45;0027&#45;&gt;ext_circ_304_23_</title>
<path fill="none" stroke="darkorange" stroke-dasharray="5,2" d="M72,-201.58C72,-201.58 72,-151.03 72,-151.03"/>
<polygon fill="darkorange" stroke="darkorange" points="74.45,-151.03 72,-144.03 69.55,-151.03 74.45,-151.03"/>
</g>
<!-- ext_circ_304_26_ -->
<g id="node34" class="node">
<title>ext_circ_304_26_</title>
<polygon fill="lightpink" stroke="darkorange" stroke-dasharray="5,2" points="1057,-346 913,-346 913,-303 1057,-303 1057,-346"/>
<text text-anchor="middle" x="985" y="-327.5" font-family="Arial" font-size="10.00">Circuito:</text>
<text text-anchor="middle" x="985" y="-316.5" font-family="Arial" font-size="10.00">304&#45;26&#45;</text>
</g>
<!-- R&#45;233&#45;&gt;ext_circ_304_26_ -->
<g id="edge35" class="edge">
<title>R&#45;233&#45;&gt;ext_circ_304_26_</title>
<path fill="none" stroke="darkorange" stroke-dasharray="5,2" d="M1030,-408.37C1030,-408.37 1030,-353.31 1030,-353.31"/>
<polygon fill="darkorange" stroke="darkorange" points="1032.45,-353.31 1030,-346.31 1027.55,-353.31 1032.45,-353.31"/>
</g>
<!-- R&#45;160&#45;&gt;ext_circ_307_24_ -->
<g id="edge38" class="edge">
<title>R&#45;160&#45;&gt;ext_circ_307_24_</title>
<path fill="none" stroke="darkorange" stroke-dasharray="5,2" d="M680,-105.37C680,-105.37 680,-50.31 680,-50.31"/>
<polygon fill="darkorange" stroke="darkorange" points="682.45,-50.31 680,-43.31 677.55,-50.31 682.45,-50.31"/>
</g>
<!-- S&#45;890&#45;&gt;S&#45;2276 -->
<g id="edge23" class="edge">
<title>S&#45;890&#45;&gt;S&#45;2276</title>
<path fill="none" stroke="#4d4d4d" d="M432,-302.58C432,-302.58 432,-252.03 432,-252.03"/>
<polygon fill="#4d4d4d" stroke="#4d4d4d" points="434.45,-252.03 432,-245.03 429.55,-252.03 434.45,-252.03"/>
</g>
<!-- S&#45;890&#45;&gt;C&#45;0725 -->
<g id="edge25" class="edge">
<title>S&#45;890&#45;&gt;C&#45;0725</title>
<path fill="none" stroke="#4d4d4d" d="M482.25,-331C505.48,-331 528,-331 528,-331 528,-331 528,-223 528,-223 528,-223 619.98,-223 619.98,-223"/>
<polygon fill="#4d4d4d" stroke="#4d4d4d" points="619.98,-225.45 626.98,-223 619.98,-220.55 619.98,-225.45"/>
</g>
<!-- S&#45;890&#45;&gt;C&#45;0726 -->
<g id="edge24" class="edge">
<title>S&#45;890&#45;&gt;C&#45;0726</title>
<path fill="none" stroke="#4d4d4d" d="M478.91,-317C498.15,-317 516,-317 516,-317 516,-317 516,-149.22 516,-149.22"/>
<polygon fill="#4d4d4d" stroke="#4d4d4d" points="518.45,-149.22 516,-142.22 513.55,-149.22 518.45,-149.22"/>
</g>
<!-- C&#45;0218&#45;&gt;ext_circ_304_26_ -->
<g id="edge34" class="edge">
<title>C&#45;0218&#45;&gt;ext_circ_304_26_</title>
<path fill="none" stroke="darkorange" stroke-dasharray="5,2" d="M940,-408.37C940,-408.37 940,-353.31 940,-353.31"/>
<polygon fill="darkorange" stroke="darkorange" points="942.45,-353.31 940,-346.31 937.55,-353.31 942.45,-353.31"/>
</g>
<!-- C&#45;1111&#45;&gt;R&#45;276 -->
<g id="edge29" class="edge">
<title>C&#45;1111&#45;&gt;R&#45;276</title>
<path fill="none" stroke="#4d4d4d" d="M252,-302.58C252,-302.58 252,-252.03 252,-252.03"/>
<polygon fill="#4d4d4d" stroke="#4d4d4d" points="254.45,-252.03 252,-245.03 249.55,-252.03 254.45,-252.03"/>
</g>
<!-- C&#45;0722 -->
<g id="node29" class="node">
<title>C&#45;0722</title>
<ellipse fill="mediumseagreen" stroke="black" cx="389" cy="-829.5" rx="72" ry="21.5"/>
<text text-anchor="middle" x="389" y="-827" font-family="Arial" font-size="10.00">C&#45;0722</text>
</g>
<!-- C&#45;0722&#45;&gt;R&#45;067 -->
<g id="edge16" class="edge">
<title>C&#45;0722&#45;&gt;R&#45;067</title>
<path fill="none" stroke="#4d4d4d" d="M391,-807.58C391,-807.58 391,-757.03 391,-757.03"/>
<polygon fill="#4d4d4d" stroke="#4d4d4d" points="393.45,-757.03 391,-750.03 388.55,-757.03 393.45,-757.03"/>
</g>
<!-- S&#45;1326&#45;&gt;C&#45;0411 -->
<g id="edge5" class="edge">
<title>S&#45;1326&#45;&gt;C&#45;0411</title>
<path fill="none" stroke="#4d4d4d" d="M619.44,-937C718.51,-937 929,-937 929,-937 929,-937 929,-858.25 929,-858.25"/>
<polygon fill="#4d4d4d" stroke="#4d4d4d" points="931.45,-858.25 929,-851.25 926.55,-858.25 931.45,-858.25"/>
</g>
<!-- S&#45;1326&#45;&gt;C&#45;0410 -->
<g id="edge6" class="edge">
<title>S&#45;1326&#45;&gt;C&#45;0410</title>
<path fill="none" stroke="#4d4d4d" d="M569,-908.58C569,-908.58 569,-858.03 569,-858.03"/>
<polygon fill="#4d4d4d" stroke="#4d4d4d" points="571.45,-858.03 569,-851.03 566.55,-858.03 571.45,-858.03"/>
</g>
<!-- S&#45;1326&#45;&gt;C&#45;0722 -->
<g id="edge15" class="edge">
<title>S&#45;1326&#45;&gt;C&#45;0722</title>
<path fill="none" stroke="#4d4d4d" d="M521.82,-923C482.54,-923 433,-923 433,-923 433,-923 433,-853.65 433,-853.65"/>
<polygon fill="#4d4d4d" stroke="#4d4d4d" points="435.45,-853.65 433,-846.65 430.55,-853.65 435.45,-853.65"/>
</g>
<!-- C&#45;0723 -->
<g id="node32" class="node">
<title>C&#45;0723</title>
<ellipse fill="tomato" stroke="black" cx="749" cy="-829.5" rx="72" ry="21.5"/>
<text text-anchor="middle" x="749" y="-827" font-family="Arial" font-size="10.00">C&#45;0723</text>
</g>
<!-- S&#45;1326&#45;&gt;C&#45;0723 -->
<g id="edge14" class="edge">
<title>S&#45;1326&#45;&gt;C&#45;0723</title>
<path fill="none" stroke="#4d4d4d" d="M616.29,-923C669.62,-923 749,-923 749,-923 749,-923 749,-858.19 749,-858.19"/>
<polygon fill="#4d4d4d" stroke="#4d4d4d" points="751.45,-858.19 749,-851.19 746.55,-858.19 751.45,-858.19"/>
</g>
<!-- C&#45;0723&#45;&gt;C&#45;0724 -->
<g id="edge36" class="edge">
<title>C&#45;0723&#45;&gt;C&#45;0724</title>
<path fill="none" stroke="blue" stroke-dasharray="5,2" d="M680.5,-822.76C680.5,-787.63 680.5,-627 680.5,-627 680.5,-627 485.12,-627 485.12,-627"/>
<polygon fill="blue" stroke="blue" points="485.12,-624.55 478.12,-627 485.12,-629.45 485.12,-624.55"/>
</g>
</g>
</svg>
