<?xml version="1.0" encoding="UTF-8" standalone="no"?>
<!DOCTYPE svg PUBLIC "-//W3C//DTD SVG 1.1//EN"
 "http://www.w3.org/Graphics/SVG/1.1/DTD/svg11.dtd">
<!-- Generated by graphviz version 2.50.0 (0)
 -->
<!-- Title: Grafo_Circuito_304_25_ Pages: 1 -->
<svg width="2214pt" height="1274pt"
 viewBox="0.00 0.00 2214.00 1274.00" xmlns="http://www.w3.org/2000/svg" xmlns:xlink="http://www.w3.org/1999/xlink">
<g id="graph0" class="graph" transform="scale(1 1) rotate(0) translate(4 1270)">
<title>Grafo_Circuito_304_25_</title>
<polygon fill="white" stroke="transparent" points="-4,4 -4,-1270 2210,-1270 2210,4 -4,4"/>
<!-- S&#45;543 -->
<g id="node1" class="node">
<title>S&#45;543</title>
<polygon fill="mediumseagreen" stroke="black" points="1704.5,-318 1636,-300 1704.5,-282 1773,-300 1704.5,-318"/>
<text text-anchor="middle" x="1704.5" y="-298.1" font-family="Helvetica,sans-Serif" font-size="8.00">S&#45;543</text>
</g>
<!-- S&#45;1400 -->
<g id="node11" class="node">
<title>S&#45;1400</title>
<polygon fill="mediumseagreen" stroke="black" points="1617.5,-224 1549,-206 1617.5,-188 1686,-206 1617.5,-224"/>
<text text-anchor="middle" x="1617.5" y="-204.1" font-family="Helvetica,sans-Serif" font-size="8.00">S&#45;1400</text>
</g>
<!-- S&#45;543&#45;&gt;S&#45;1400 -->
<g id="edge23" class="edge">
<title>S&#45;543&#45;&gt;S&#45;1400</title>
<path fill="none" stroke="dimgray" stroke-width="0.8" d="M1661,-293.24C1661,-293.24 1661,-219.7 1661,-219.7"/>
<polygon fill="dimgray" stroke="dimgray" stroke-width="0.8" points="1663.45,-219.7 1661,-212.7 1658.55,-219.7 1663.45,-219.7"/>
</g>
<!-- S&#45;1399 -->
<g id="node18" class="node">
<title>S&#45;1399</title>
<polygon fill="mediumseagreen" stroke="black" points="1790.5,-224 1722,-206 1790.5,-188 1859,-206 1790.5,-224"/>
<text text-anchor="middle" x="1790.5" y="-204.1" font-family="Helvetica,sans-Serif" font-size="8.00">S&#45;1399</text>
</g>
<!-- S&#45;543&#45;&gt;S&#45;1399 -->
<g id="edge20" class="edge">
<title>S&#45;543&#45;&gt;S&#45;1399</title>
<path fill="none" stroke="dimgray" stroke-width="0.8" d="M1747.5,-293.24C1747.5,-293.24 1747.5,-219.95 1747.5,-219.95"/>
<polygon fill="dimgray" stroke="dimgray" stroke-width="0.8" points="1749.95,-219.95 1747.5,-212.95 1745.05,-219.95 1749.95,-219.95"/>
</g>
<!-- S&#45;1256 -->
<g id="node2" class="node">
<title>S&#45;1256</title>
<polygon fill="mediumseagreen" stroke="black" points="2137.5,-600 2069,-582 2137.5,-564 2206,-582 2137.5,-600"/>
<text text-anchor="middle" x="2137.5" y="-580.1" font-family="Helvetica,sans-Serif" font-size="8.00">S&#45;1256</text>
</g>
<!-- C&#45;0368 -->
<g id="node3" class="node">
<title>C&#45;0368</title>
<ellipse fill="tomato" stroke="black" cx="849.5" cy="-864" rx="68.5" ry="18"/>
<text text-anchor="middle" x="849.5" y="-862.1" font-family="Helvetica,sans-Serif" font-size="8.00">C&#45;0368</text>
</g>
<!-- C&#45;0370 -->
<g id="node19" class="node">
<title>C&#45;0370</title>
<ellipse fill="mediumseagreen" stroke="black" cx="1618.5" cy="-676" rx="68.5" ry="18"/>
<text text-anchor="middle" x="1618.5" y="-674.1" font-family="Helvetica,sans-Serif" font-size="8.00">C&#45;0370</text>
</g>
<!-- C&#45;0368&#45;&gt;C&#45;0370 -->
<g id="edge47" class="edge">
<title>C&#45;0368&#45;&gt;C&#45;0370</title>
<path fill="none" stroke="blue" stroke-width="0.8" stroke-dasharray="5,2" d="M884,-848.37C884,-811.66 884,-723 884,-723 884,-723 1581.33,-723 1581.33,-723 1581.33,-723 1581.33,-698.13 1581.33,-698.13"/>
<polygon fill="blue" stroke="blue" stroke-width="0.8" points="1583.78,-698.13 1581.33,-691.13 1578.88,-698.13 1583.78,-698.13"/>
</g>
<!-- S&#45;330 -->
<g id="node4" class="node">
<title>S&#45;330</title>
<polygon fill="mediumseagreen" stroke="black" points="868.5,-976 800,-958 868.5,-940 937,-958 868.5,-976"/>
<text text-anchor="middle" x="868.5" y="-956.1" font-family="Helvetica,sans-Serif" font-size="8.00">S&#45;330</text>
</g>
<!-- S&#45;330&#45;&gt;C&#45;0368 -->
<g id="edge31" class="edge">
<title>S&#45;330&#45;&gt;C&#45;0368</title>
<path fill="none" stroke="dimgray" stroke-width="0.8" d="M859,-942.48C859,-942.48 859,-889.12 859,-889.12"/>
<polygon fill="dimgray" stroke="dimgray" stroke-width="0.8" points="861.45,-889.12 859,-882.12 856.55,-889.12 861.45,-889.12"/>
</g>
<!-- C&#45;0825 -->
<g id="node8" class="node">
<title>C&#45;0825</title>
<ellipse fill="mediumseagreen" stroke="black" cx="1022.5" cy="-864" rx="68.5" ry="18"/>
<text text-anchor="middle" x="1022.5" y="-862.1" font-family="Helvetica,sans-Serif" font-size="8.00">C&#45;0825</text>
</g>
<!-- S&#45;330&#45;&gt;C&#45;0825 -->
<g id="edge6" class="edge">
<title>S&#45;330&#45;&gt;C&#45;0825</title>
<path fill="none" stroke="dimgray" stroke-width="0.8" d="M927.5,-955.29C927.5,-939.88 927.5,-864 927.5,-864 927.5,-864 946.96,-864 946.96,-864"/>
<polygon fill="dimgray" stroke="dimgray" stroke-width="0.8" points="946.96,-866.45 953.96,-864 946.96,-861.55 946.96,-866.45"/>
</g>
<!-- S&#45;1345 -->
<g id="node9" class="node">
<title>S&#45;1345</title>
<polygon fill="mediumseagreen" stroke="black" points="1195.5,-882 1127,-864 1195.5,-846 1264,-864 1195.5,-882"/>
<text text-anchor="middle" x="1195.5" y="-862.1" font-family="Helvetica,sans-Serif" font-size="8.00">S&#45;1345</text>
</g>
<!-- S&#45;330&#45;&gt;S&#45;1345 -->
<g id="edge42" class="edge">
<title>S&#45;330&#45;&gt;S&#45;1345</title>
<path fill="none" stroke="dimgray" stroke-width="0.8" d="M914.31,-952C1004.31,-952 1195.5,-952 1195.5,-952 1195.5,-952 1195.5,-889.23 1195.5,-889.23"/>
<polygon fill="dimgray" stroke="dimgray" stroke-width="0.8" points="1197.95,-889.23 1195.5,-882.23 1193.05,-889.23 1197.95,-889.23"/>
</g>
<!-- C&#45;0369 -->
<g id="node22" class="node">
<title>C&#45;0369</title>
<ellipse fill="mediumseagreen" stroke="black" cx="1471.5" cy="-864" rx="68.5" ry="18"/>
<text text-anchor="middle" x="1471.5" y="-862.1" font-family="Helvetica,sans-Serif" font-size="8.00">C&#45;0369</text>
</g>
<!-- S&#45;330&#45;&gt;C&#45;0369 -->
<g id="edge32" class="edge">
<title>S&#45;330&#45;&gt;C&#45;0369</title>
<path fill="none" stroke="dimgray" stroke-width="0.8" d="M914.32,-964C1055.04,-964 1471.5,-964 1471.5,-964 1471.5,-964 1471.5,-889.34 1471.5,-889.34"/>
<polygon fill="dimgray" stroke="dimgray" stroke-width="0.8" points="1473.95,-889.34 1471.5,-882.34 1469.05,-889.34 1473.95,-889.34"/>
</g>
<!-- S&#45;865 -->
<g id="node34" class="node">
<title>S&#45;865</title>
<polygon fill="mediumseagreen" stroke="black" points="676.5,-882 608,-864 676.5,-846 745,-864 676.5,-882"/>
<text text-anchor="middle" x="676.5" y="-862.1" font-family="Helvetica,sans-Serif" font-size="8.00">S&#45;865</text>
</g>
<!-- S&#45;330&#45;&gt;S&#45;865 -->
<g id="edge29" class="edge">
<title>S&#45;330&#45;&gt;S&#45;865</title>
<path fill="none" stroke="dimgray" stroke-width="0.8" d="M822.82,-952C774.29,-952 704.5,-952 704.5,-952 704.5,-952 704.5,-881.79 704.5,-881.79"/>
<polygon fill="dimgray" stroke="dimgray" stroke-width="0.8" points="706.95,-881.79 704.5,-874.79 702.05,-881.79 706.95,-881.79"/>
</g>
<!-- C&#45;1182 -->
<g id="node5" class="node">
<title>C&#45;1182</title>
<ellipse fill="mediumseagreen" stroke="black" cx="1143.5" cy="-770" rx="68.5" ry="18"/>
<text text-anchor="middle" x="1143.5" y="-768.1" font-family="Helvetica,sans-Serif" font-size="8.00">C&#45;1182</text>
</g>
<!-- R&#45;064 -->
<g id="node25" class="node">
<title>R&#45;064</title>
<polygon fill="mediumseagreen" stroke="black" points="1212,-668.54 1212,-683.46 1171.87,-694 1115.13,-694 1075,-683.46 1075,-668.54 1115.13,-658 1171.87,-658 1212,-668.54"/>
<text text-anchor="middle" x="1143.5" y="-674.1" font-family="Helvetica,sans-Serif" font-size="8.00">R&#45;064</text>
</g>
<!-- C&#45;1182&#45;&gt;R&#45;064 -->
<g id="edge12" class="edge">
<title>C&#45;1182&#45;&gt;R&#45;064</title>
<path fill="none" stroke="dimgray" stroke-width="0.8" d="M1143.5,-751.88C1143.5,-751.88 1143.5,-701.07 1143.5,-701.07"/>
<polygon fill="dimgray" stroke="dimgray" stroke-width="0.8" points="1145.95,-701.07 1143.5,-694.07 1141.05,-701.07 1145.95,-701.07"/>
</g>
<!-- 304&#45;25&#45; -->
<g id="node6" class="node">
<title>304&#45;25&#45;</title>
<polygon fill="gold" stroke="black" points="660,-1236.54 660,-1251.46 619.87,-1262 563.13,-1262 523,-1251.46 523,-1236.54 563.13,-1226 619.87,-1226 660,-1236.54"/>
<polygon fill="none" stroke="black" points="664,-1233.46 664,-1254.54 620.39,-1266 562.61,-1266 519,-1254.54 519,-1233.46 562.61,-1222 620.39,-1222 664,-1233.46"/>
<text text-anchor="middle" x="591.5" y="-1242.1" font-family="Helvetica,sans-Serif" font-size="8.00">304&#45;25&#45;</text>
</g>
<!-- S&#45;537 -->
<g id="node14" class="node">
<title>S&#45;537</title>
<polygon fill="mediumseagreen" stroke="black" points="591.5,-1164 523,-1146 591.5,-1128 660,-1146 591.5,-1164"/>
<text text-anchor="middle" x="591.5" y="-1144.1" font-family="Helvetica,sans-Serif" font-size="8.00">S&#45;537</text>
</g>
<!-- 304&#45;25&#45;&#45;&gt;S&#45;537 -->
<g id="edge1" class="edge">
<title>304&#45;25&#45;&#45;&gt;S&#45;537</title>
<path fill="none" stroke="dimgray" stroke-width="0.8" d="M591.5,-1221.76C591.5,-1221.76 591.5,-1171.21 591.5,-1171.21"/>
<polygon fill="dimgray" stroke="dimgray" stroke-width="0.8" points="593.95,-1171.21 591.5,-1164.21 589.05,-1171.21 593.95,-1171.21"/>
</g>
<!-- C&#45;0220 -->
<g id="node7" class="node">
<title>C&#45;0220</title>
<ellipse fill="mediumseagreen" stroke="black" cx="1358.5" cy="-394" rx="68.5" ry="18"/>
<text text-anchor="middle" x="1358.5" y="-392.1" font-family="Helvetica,sans-Serif" font-size="8.00">C&#45;0220</text>
</g>
<!-- C&#45;0220&#45;&gt;S&#45;543 -->
<g id="edge19" class="edge">
<title>C&#45;0220&#45;&gt;S&#45;543</title>
<path fill="none" stroke="dimgray" stroke-width="0.8" d="M1423.13,-400C1512.12,-400 1661.5,-400 1661.5,-400 1661.5,-400 1661.5,-313.87 1661.5,-313.87"/>
<polygon fill="dimgray" stroke="dimgray" stroke-width="0.8" points="1663.95,-313.87 1661.5,-306.87 1659.05,-313.87 1663.95,-313.87"/>
</g>
<!-- C&#45;1143 -->
<g id="node27" class="node">
<title>C&#45;1143</title>
<ellipse fill="mediumseagreen" stroke="black" cx="1185.5" cy="-300" rx="68.5" ry="18"/>
<text text-anchor="middle" x="1185.5" y="-298.1" font-family="Helvetica,sans-Serif" font-size="8.00">C&#45;1143</text>
</g>
<!-- C&#45;0220&#45;&gt;C&#45;1143 -->
<g id="edge25" class="edge">
<title>C&#45;0220&#45;&gt;C&#45;1143</title>
<path fill="none" stroke="dimgray" stroke-width="0.8" d="M1293.75,-388C1261.38,-388 1229,-388 1229,-388 1229,-388 1229,-321.14 1229,-321.14"/>
<polygon fill="dimgray" stroke="dimgray" stroke-width="0.8" points="1231.45,-321.14 1229,-314.14 1226.55,-321.14 1231.45,-321.14"/>
</g>
<!-- S&#45;1720 -->
<g id="node42" class="node">
<title>S&#45;1720</title>
<polygon fill="mediumseagreen" stroke="black" points="1358.5,-318 1290,-300 1358.5,-282 1427,-300 1358.5,-318"/>
<text text-anchor="middle" x="1358.5" y="-298.1" font-family="Helvetica,sans-Serif" font-size="8.00">S&#45;1720</text>
</g>
<!-- C&#45;0220&#45;&gt;S&#45;1720 -->
<g id="edge26" class="edge">
<title>C&#45;0220&#45;&gt;S&#45;1720</title>
<path fill="none" stroke="dimgray" stroke-width="0.8" d="M1358.5,-375.88C1358.5,-375.88 1358.5,-325.07 1358.5,-325.07"/>
<polygon fill="dimgray" stroke="dimgray" stroke-width="0.8" points="1360.95,-325.07 1358.5,-318.07 1356.05,-325.07 1360.95,-325.07"/>
</g>
<!-- S&#45;1814 -->
<g id="node43" class="node">
<title>S&#45;1814</title>
<polygon fill="mediumseagreen" stroke="black" points="1531.5,-318 1463,-300 1531.5,-282 1600,-300 1531.5,-318"/>
<text text-anchor="middle" x="1531.5" y="-298.1" font-family="Helvetica,sans-Serif" font-size="8.00">S&#45;1814</text>
</g>
<!-- C&#45;0220&#45;&gt;S&#45;1814 -->
<g id="edge24" class="edge">
<title>C&#45;0220&#45;&gt;S&#45;1814</title>
<path fill="none" stroke="dimgray" stroke-width="0.8" d="M1423.12,-388C1455.75,-388 1488.5,-388 1488.5,-388 1488.5,-388 1488.5,-313.91 1488.5,-313.91"/>
<polygon fill="dimgray" stroke="dimgray" stroke-width="0.8" points="1490.95,-313.91 1488.5,-306.91 1486.05,-313.91 1490.95,-313.91"/>
</g>
<!-- C&#45;0825&#45;&gt;C&#45;1182 -->
<g id="edge11" class="edge">
<title>C&#45;0825&#45;&gt;C&#45;1182</title>
<path fill="none" stroke="dimgray" stroke-width="0.8" d="M1080.33,-854.29C1080.33,-854.29 1080.33,-784.14 1080.33,-784.14"/>
<polygon fill="dimgray" stroke="dimgray" stroke-width="0.8" points="1082.78,-784.14 1080.33,-777.14 1077.88,-784.14 1082.78,-784.14"/>
</g>
<!-- S&#45;1293 -->
<g id="node15" class="node">
<title>S&#45;1293</title>
<polygon fill="mediumseagreen" stroke="black" points="1316.5,-788 1248,-770 1316.5,-752 1385,-770 1316.5,-788"/>
<text text-anchor="middle" x="1316.5" y="-768.1" font-family="Helvetica,sans-Serif" font-size="8.00">S&#45;1293</text>
</g>
<!-- C&#45;0825&#45;&gt;S&#45;1293 -->
<g id="edge7" class="edge">
<title>C&#45;0825&#45;&gt;S&#45;1293</title>
<path fill="none" stroke="dimgray" stroke-width="0.8" d="M1085.67,-857.03C1085.67,-846.06 1085.67,-826 1085.67,-826 1085.67,-826 1256,-826 1256,-826 1256,-826 1256,-779.41 1256,-779.41"/>
<polygon fill="dimgray" stroke="dimgray" stroke-width="0.8" points="1258.45,-779.41 1256,-772.41 1253.55,-779.41 1258.45,-779.41"/>
</g>
<!-- C&#45;1184 -->
<g id="node31" class="node">
<title>C&#45;1184</title>
<ellipse fill="tomato" stroke="black" cx="797.5" cy="-770" rx="68.5" ry="18"/>
<text text-anchor="middle" x="797.5" y="-768.1" font-family="Helvetica,sans-Serif" font-size="8.00">C&#45;1184</text>
</g>
<!-- C&#45;0825&#45;&gt;C&#45;1184 -->
<g id="edge8" class="edge">
<title>C&#45;0825&#45;&gt;C&#45;1184</title>
<path fill="none" stroke="dimgray" stroke-width="0.8" d="M982.33,-849.32C982.33,-832.43 982.33,-807 982.33,-807 982.33,-807 823.5,-807 823.5,-807 823.5,-807 823.5,-793.77 823.5,-793.77"/>
<polygon fill="dimgray" stroke="dimgray" stroke-width="0.8" points="825.95,-793.77 823.5,-786.77 821.05,-793.77 825.95,-793.77"/>
</g>
<!-- C&#45;0783 -->
<g id="node33" class="node">
<title>C&#45;0783</title>
<ellipse fill="mediumseagreen" stroke="black" cx="970.5" cy="-770" rx="68.5" ry="18"/>
<text text-anchor="middle" x="970.5" y="-768.1" font-family="Helvetica,sans-Serif" font-size="8.00">C&#45;0783</text>
</g>
<!-- C&#45;0825&#45;&gt;C&#45;0783 -->
<g id="edge9" class="edge">
<title>C&#45;0825&#45;&gt;C&#45;0783</title>
<path fill="none" stroke="dimgray" stroke-width="0.8" d="M1010.67,-845.88C1010.67,-845.88 1010.67,-791.67 1010.67,-791.67"/>
<polygon fill="dimgray" stroke="dimgray" stroke-width="0.8" points="1013.12,-791.67 1010.67,-784.67 1008.22,-791.67 1013.12,-791.67"/>
</g>
<!-- C&#45;1055 -->
<g id="node10" class="node">
<title>C&#45;1055</title>
<ellipse fill="mediumseagreen" stroke="black" cx="571.5" cy="-958" rx="68.5" ry="18"/>
<text text-anchor="middle" x="571.5" y="-956.1" font-family="Helvetica,sans-Serif" font-size="8.00">C&#45;1055</text>
</g>
<!-- R&#45;258 -->
<g id="node37" class="node">
<title>R&#45;258</title>
<polygon fill="tomato" stroke="black" points="497,-856.54 497,-871.46 456.87,-882 400.13,-882 360,-871.46 360,-856.54 400.13,-846 456.87,-846 497,-856.54"/>
<text text-anchor="middle" x="428.5" y="-862.1" font-family="Helvetica,sans-Serif" font-size="8.00">R&#45;258</text>
</g>
<!-- C&#45;1055&#45;&gt;R&#45;258 -->
<g id="edge5" class="edge">
<title>C&#45;1055&#45;&gt;R&#45;258</title>
<path fill="none" stroke="dimgray" stroke-width="0.8" d="M502.73,-958C495.09,-958 490,-958 490,-958 490,-958 490,-880.36 490,-880.36"/>
<polygon fill="dimgray" stroke="dimgray" stroke-width="0.8" points="492.45,-880.36 490,-873.36 487.55,-880.36 492.45,-880.36"/>
</g>
<!-- C&#45;0360 -->
<g id="node12" class="node">
<title>C&#45;0360</title>
<ellipse fill="mediumseagreen" stroke="black" cx="591.5" cy="-1052" rx="68.5" ry="18"/>
<text text-anchor="middle" x="591.5" y="-1050.1" font-family="Helvetica,sans-Serif" font-size="8.00">C&#45;0360</text>
</g>
<!-- C&#45;0360&#45;&gt;S&#45;330 -->
<g id="edge3" class="edge">
<title>C&#45;0360&#45;&gt;S&#45;330</title>
<path fill="none" stroke="dimgray" stroke-width="0.8" d="M650,-1042.58C650,-1019.88 650,-964 650,-964 650,-964 815.7,-964 815.7,-964"/>
<polygon fill="dimgray" stroke="dimgray" stroke-width="0.8" points="815.7,-966.45 822.7,-964 815.7,-961.55 815.7,-966.45"/>
</g>
<!-- C&#45;0360&#45;&gt;C&#45;1055 -->
<g id="edge4" class="edge">
<title>C&#45;0360&#45;&gt;C&#45;1055</title>
<path fill="none" stroke="dimgray" stroke-width="0.8" d="M581.5,-1033.88C581.5,-1033.88 581.5,-983.07 581.5,-983.07"/>
<polygon fill="dimgray" stroke="dimgray" stroke-width="0.8" points="583.95,-983.07 581.5,-976.07 579.05,-983.07 583.95,-983.07"/>
</g>
<!-- S&#45;2243 -->
<g id="node13" class="node">
<title>S&#45;2243</title>
<polygon fill="mediumseagreen" stroke="black" points="1272.5,-506 1204,-488 1272.5,-470 1341,-488 1272.5,-506"/>
<text text-anchor="middle" x="1272.5" y="-486.1" font-family="Helvetica,sans-Serif" font-size="8.00">S&#45;2243</text>
</g>
<!-- S&#45;537&#45;&gt;C&#45;0360 -->
<g id="edge2" class="edge">
<title>S&#45;537&#45;&gt;C&#45;0360</title>
<path fill="none" stroke="dimgray" stroke-width="0.8" d="M591.5,-1127.88C591.5,-1127.88 591.5,-1077.07 591.5,-1077.07"/>
<polygon fill="dimgray" stroke="dimgray" stroke-width="0.8" points="593.95,-1077.07 591.5,-1070.07 589.05,-1077.07 593.95,-1077.07"/>
</g>
<!-- S&#45;1809 -->
<g id="node16" class="node">
<title>S&#45;1809</title>
<polygon fill="mediumseagreen" stroke="black" points="1618.5,-506 1550,-488 1618.5,-470 1687,-488 1618.5,-506"/>
<text text-anchor="middle" x="1618.5" y="-486.1" font-family="Helvetica,sans-Serif" font-size="8.00">S&#45;1809</text>
</g>
<!-- S&#45;651 -->
<g id="node17" class="node">
<title>S&#45;651</title>
<polygon fill="mediumseagreen" stroke="black" points="1272.5,-600 1204,-582 1272.5,-564 1341,-582 1272.5,-600"/>
<text text-anchor="middle" x="1272.5" y="-580.1" font-family="Helvetica,sans-Serif" font-size="8.00">S&#45;651</text>
</g>
<!-- S&#45;545 -->
<g id="node38" class="node">
<title>S&#45;545</title>
<polygon fill="mediumseagreen" stroke="black" points="1790.5,-130 1722,-112 1790.5,-94 1859,-112 1790.5,-130"/>
<text text-anchor="middle" x="1790.5" y="-110.1" font-family="Helvetica,sans-Serif" font-size="8.00">S&#45;545</text>
</g>
<!-- S&#45;1399&#45;&gt;S&#45;545 -->
<g id="edge21" class="edge">
<title>S&#45;1399&#45;&gt;S&#45;545</title>
<path fill="none" stroke="dimgray" stroke-width="0.8" d="M1790.5,-187.88C1790.5,-187.88 1790.5,-137.07 1790.5,-137.07"/>
<polygon fill="dimgray" stroke="dimgray" stroke-width="0.8" points="1792.95,-137.07 1790.5,-130.07 1788.05,-137.07 1792.95,-137.07"/>
</g>
<!-- C&#45;0370&#45;&gt;S&#45;1256 -->
<g id="edge35" class="edge">
<title>C&#45;0370&#45;&gt;S&#45;1256</title>
<path fill="none" stroke="dimgray" stroke-width="0.8" d="M1678.04,-685C1814.36,-685 2137.5,-685 2137.5,-685 2137.5,-685 2137.5,-607.41 2137.5,-607.41"/>
<polygon fill="dimgray" stroke="dimgray" stroke-width="0.8" points="2139.95,-607.41 2137.5,-600.41 2135.05,-607.41 2139.95,-607.41"/>
</g>
<!-- C&#45;0370&#45;&gt;S&#45;651 -->
<g id="edge40" class="edge">
<title>C&#45;0370&#45;&gt;S&#45;651</title>
<path fill="none" stroke="dimgray" stroke-width="0.8" d="M1553.71,-682C1459.16,-682 1294.5,-682 1294.5,-682 1294.5,-682 1294.5,-601.26 1294.5,-601.26"/>
<polygon fill="dimgray" stroke="dimgray" stroke-width="0.8" points="1296.95,-601.26 1294.5,-594.26 1292.05,-601.26 1296.95,-601.26"/>
</g>
<!-- S&#45;1254 -->
<g id="node20" class="node">
<title>S&#45;1254</title>
<polygon fill="mediumseagreen" stroke="black" points="1445.5,-600 1377,-582 1445.5,-564 1514,-582 1445.5,-600"/>
<text text-anchor="middle" x="1445.5" y="-580.1" font-family="Helvetica,sans-Serif" font-size="8.00">S&#45;1254</text>
</g>
<!-- C&#45;0370&#45;&gt;S&#45;1254 -->
<g id="edge38" class="edge">
<title>C&#45;0370&#45;&gt;S&#45;1254</title>
<path fill="none" stroke="dimgray" stroke-width="0.8" d="M1553.81,-670C1530.8,-670 1510.5,-670 1510.5,-670 1510.5,-670 1510.5,-589.99 1510.5,-589.99"/>
<polygon fill="dimgray" stroke="dimgray" stroke-width="0.8" points="1512.95,-589.99 1510.5,-582.99 1508.05,-589.99 1512.95,-589.99"/>
</g>
<!-- S&#45;1255 -->
<g id="node23" class="node">
<title>S&#45;1255</title>
<polygon fill="mediumseagreen" stroke="black" points="1618.5,-600 1550,-582 1618.5,-564 1687,-582 1618.5,-600"/>
<text text-anchor="middle" x="1618.5" y="-580.1" font-family="Helvetica,sans-Serif" font-size="8.00">S&#45;1255</text>
</g>
<!-- C&#45;0370&#45;&gt;S&#45;1255 -->
<g id="edge36" class="edge">
<title>C&#45;0370&#45;&gt;S&#45;1255</title>
<path fill="none" stroke="dimgray" stroke-width="0.8" d="M1618.5,-657.88C1618.5,-657.88 1618.5,-607.07 1618.5,-607.07"/>
<polygon fill="dimgray" stroke="dimgray" stroke-width="0.8" points="1620.95,-607.07 1618.5,-600.07 1616.05,-607.07 1620.95,-607.07"/>
</g>
<!-- R&#45;083 -->
<g id="node35" class="node">
<title>R&#45;083</title>
<polygon fill="tomato" stroke="black" points="2033,-574.54 2033,-589.46 1992.87,-600 1936.13,-600 1896,-589.46 1896,-574.54 1936.13,-564 1992.87,-564 2033,-574.54"/>
<text text-anchor="middle" x="1964.5" y="-580.1" font-family="Helvetica,sans-Serif" font-size="8.00">R&#45;083</text>
</g>
<!-- C&#45;0370&#45;&gt;R&#45;083 -->
<g id="edge41" class="edge">
<title>C&#45;0370&#45;&gt;R&#45;083</title>
<path fill="none" stroke="dimgray" stroke-width="0.8" d="M1687.04,-676C1781.9,-676 1941.67,-676 1941.67,-676 1941.67,-676 1941.67,-607.12 1941.67,-607.12"/>
<polygon fill="dimgray" stroke="dimgray" stroke-width="0.8" points="1944.12,-607.12 1941.67,-600.12 1939.22,-607.12 1944.12,-607.12"/>
</g>
<!-- S&#45;653 -->
<g id="node40" class="node">
<title>S&#45;653</title>
<polygon fill="mediumseagreen" stroke="black" points="1791.5,-600 1723,-582 1791.5,-564 1860,-582 1791.5,-600"/>
<text text-anchor="middle" x="1791.5" y="-580.1" font-family="Helvetica,sans-Serif" font-size="8.00">S&#45;653</text>
</g>
<!-- C&#45;0370&#45;&gt;S&#45;653 -->
<g id="edge39" class="edge">
<title>C&#45;0370&#45;&gt;S&#45;653</title>
<path fill="none" stroke="dimgray" stroke-width="0.8" d="M1678.04,-667C1728.08,-667 1791.5,-667 1791.5,-667 1791.5,-667 1791.5,-607.03 1791.5,-607.03"/>
<polygon fill="dimgray" stroke="dimgray" stroke-width="0.8" points="1793.95,-607.03 1791.5,-600.03 1789.05,-607.03 1793.95,-607.03"/>
</g>
<!-- S&#45;541 -->
<g id="node21" class="node">
<title>S&#45;541</title>
<polygon fill="mediumseagreen" stroke="black" points="926.5,-506 858,-488 926.5,-470 995,-488 926.5,-506"/>
<text text-anchor="middle" x="926.5" y="-486.1" font-family="Helvetica,sans-Serif" font-size="8.00">S&#45;541</text>
</g>
<!-- C&#45;0239 -->
<g id="node39" class="node">
<title>C&#45;0239</title>
<ellipse fill="tomato" stroke="black" cx="926.5" cy="-394" rx="68.5" ry="18"/>
<text text-anchor="middle" x="926.5" y="-392.1" font-family="Helvetica,sans-Serif" font-size="8.00">C&#45;0239</text>
</g>
<!-- S&#45;541&#45;&gt;C&#45;0239 -->
<g id="edge28" class="edge">
<title>S&#45;541&#45;&gt;C&#45;0239</title>
<path fill="none" stroke="dimgray" stroke-width="0.8" d="M926.5,-469.88C926.5,-469.88 926.5,-419.07 926.5,-419.07"/>
<polygon fill="dimgray" stroke="dimgray" stroke-width="0.8" points="928.95,-419.07 926.5,-412.07 924.05,-419.07 928.95,-419.07"/>
</g>
<!-- R&#45;123 -->
<g id="node41" class="node">
<title>R&#45;123</title>
<polygon fill="mediumseagreen" stroke="black" points="1644,-762.54 1644,-777.46 1603.87,-788 1547.13,-788 1507,-777.46 1507,-762.54 1547.13,-752 1603.87,-752 1644,-762.54"/>
<text text-anchor="middle" x="1575.5" y="-768.1" font-family="Helvetica,sans-Serif" font-size="8.00">R&#45;123</text>
</g>
<!-- C&#45;0369&#45;&gt;R&#45;123 -->
<g id="edge33" class="edge">
<title>C&#45;0369&#45;&gt;R&#45;123</title>
<path fill="none" stroke="dimgray" stroke-width="0.8" d="M1523.5,-852.09C1523.5,-852.09 1523.5,-788.81 1523.5,-788.81"/>
<polygon fill="dimgray" stroke="dimgray" stroke-width="0.8" points="1525.95,-788.81 1523.5,-781.81 1521.05,-788.81 1525.95,-788.81"/>
</g>
<!-- S&#45;1255&#45;&gt;S&#45;1809 -->
<g id="edge37" class="edge">
<title>S&#45;1255&#45;&gt;S&#45;1809</title>
<path fill="none" stroke="dimgray" stroke-width="0.8" d="M1618.5,-563.88C1618.5,-563.88 1618.5,-513.07 1618.5,-513.07"/>
<polygon fill="dimgray" stroke="dimgray" stroke-width="0.8" points="1620.95,-513.07 1618.5,-506.07 1616.05,-513.07 1620.95,-513.07"/>
</g>
<!-- S&#45;1374 -->
<g id="node24" class="node">
<title>S&#45;1374</title>
<polygon fill="mediumseagreen" stroke="black" points="624.5,-788 556,-770 624.5,-752 693,-770 624.5,-788"/>
<text text-anchor="middle" x="624.5" y="-768.1" font-family="Helvetica,sans-Serif" font-size="8.00">S&#45;1374</text>
</g>
<!-- C&#45;1183 -->
<g id="node30" class="node">
<title>C&#45;1183</title>
<ellipse fill="mediumseagreen" stroke="black" cx="1099.5" cy="-582" rx="68.5" ry="18"/>
<text text-anchor="middle" x="1099.5" y="-580.1" font-family="Helvetica,sans-Serif" font-size="8.00">C&#45;1183</text>
</g>
<!-- R&#45;064&#45;&gt;C&#45;1183 -->
<g id="edge13" class="edge">
<title>R&#45;064&#45;&gt;C&#45;1183</title>
<path fill="none" stroke="dimgray" stroke-width="0.8" d="M1121.5,-657.88C1121.5,-657.88 1121.5,-606.12 1121.5,-606.12"/>
<polygon fill="dimgray" stroke="dimgray" stroke-width="0.8" points="1123.95,-606.12 1121.5,-599.12 1119.05,-606.12 1123.95,-606.12"/>
</g>
<!-- S&#45;2551 -->
<g id="node26" class="node">
<title>S&#45;2551</title>
<polygon fill="mediumseagreen" stroke="black" points="1012.5,-318 944,-300 1012.5,-282 1081,-300 1012.5,-318"/>
<text text-anchor="middle" x="1012.5" y="-298.1" font-family="Helvetica,sans-Serif" font-size="8.00">S&#45;2551</text>
</g>
<!-- C&#45;0219 -->
<g id="node28" class="node">
<title>C&#45;0219</title>
<ellipse fill="mediumseagreen" stroke="black" cx="1099.5" cy="-488" rx="68.5" ry="18"/>
<text text-anchor="middle" x="1099.5" y="-486.1" font-family="Helvetica,sans-Serif" font-size="8.00">C&#45;0219</text>
</g>
<!-- C&#45;0219&#45;&gt;C&#45;0220 -->
<g id="edge18" class="edge">
<title>C&#45;0219&#45;&gt;C&#45;0220</title>
<path fill="none" stroke="dimgray" stroke-width="0.8" d="M1164.1,-482C1173.45,-482 1180,-482 1180,-482 1180,-482 1180,-400 1180,-400 1180,-400 1286.81,-400 1286.81,-400"/>
<polygon fill="dimgray" stroke="dimgray" stroke-width="0.8" points="1286.81,-402.45 1293.81,-400 1286.8,-397.55 1286.81,-402.45"/>
</g>
<!-- SR&#45;0023 -->
<g id="node29" class="node">
<title>SR&#45;0023</title>
<polygon fill="mediumseagreen" stroke="black" points="1099.5,-412 1031,-394 1099.5,-376 1168,-394 1099.5,-412"/>
<text text-anchor="middle" x="1099.5" y="-392.1" font-family="Helvetica,sans-Serif" font-size="8.00">SR&#45;0023</text>
</g>
<!-- C&#45;0219&#45;&gt;SR&#45;0023 -->
<g id="edge16" class="edge">
<title>C&#45;0219&#45;&gt;SR&#45;0023</title>
<path fill="none" stroke="dimgray" stroke-width="0.8" d="M1099.5,-469.88C1099.5,-469.88 1099.5,-419.07 1099.5,-419.07"/>
<polygon fill="dimgray" stroke="dimgray" stroke-width="0.8" points="1101.95,-419.07 1099.5,-412.07 1097.05,-419.07 1101.95,-419.07"/>
</g>
<!-- SR&#45;0023&#45;&gt;S&#45;2551 -->
<g id="edge17" class="edge">
<title>SR&#45;0023&#45;&gt;S&#45;2551</title>
<path fill="none" stroke="dimgray" stroke-width="0.8" d="M1056,-387.24C1056,-387.24 1056,-313.7 1056,-313.7"/>
<polygon fill="dimgray" stroke="dimgray" stroke-width="0.8" points="1058.45,-313.7 1056,-306.7 1053.55,-313.7 1058.45,-313.7"/>
</g>
<!-- C&#45;1183&#45;&gt;S&#45;2243 -->
<g id="edge14" class="edge">
<title>C&#45;1183&#45;&gt;S&#45;2243</title>
<path fill="none" stroke="dimgray" stroke-width="0.8" d="M1168.18,-582C1181.8,-582 1192,-582 1192,-582 1192,-582 1192,-494 1192,-494 1192,-494 1219.61,-494 1219.61,-494"/>
<polygon fill="dimgray" stroke="dimgray" stroke-width="0.8" points="1219.61,-496.45 1226.61,-494 1219.61,-491.55 1219.61,-496.45"/>
</g>
<!-- C&#45;1183&#45;&gt;S&#45;541 -->
<g id="edge27" class="edge">
<title>C&#45;1183&#45;&gt;S&#45;541</title>
<path fill="none" stroke="dimgray" stroke-width="0.8" d="M1034.58,-576C1006.31,-576 979.5,-576 979.5,-576 979.5,-576 979.5,-499.24 979.5,-499.24"/>
<polygon fill="dimgray" stroke="dimgray" stroke-width="0.8" points="981.95,-499.24 979.5,-492.24 977.05,-499.24 981.95,-499.24"/>
</g>
<!-- C&#45;1183&#45;&gt;C&#45;0219 -->
<g id="edge15" class="edge">
<title>C&#45;1183&#45;&gt;C&#45;0219</title>
<path fill="none" stroke="dimgray" stroke-width="0.8" d="M1099.5,-563.88C1099.5,-563.88 1099.5,-513.07 1099.5,-513.07"/>
<polygon fill="dimgray" stroke="dimgray" stroke-width="0.8" points="1101.95,-513.07 1099.5,-506.07 1097.05,-513.07 1101.95,-513.07"/>
</g>
<!-- C&#45;1184&#45;&gt;C&#45;1183 -->
<g id="edge44" class="edge">
<title>C&#45;1184&#45;&gt;C&#45;1183</title>
<path fill="none" stroke="blue" stroke-width="0.8" stroke-dasharray="5,2" d="M778,-752.55C778,-707 778,-588 778,-588 778,-588 1027.83,-588 1027.83,-588"/>
<polygon fill="blue" stroke="blue" stroke-width="0.8" points="1027.83,-590.45 1034.83,-588 1027.83,-585.55 1027.83,-590.45"/>
</g>
<!-- S&#45;2106 -->
<g id="node32" class="node">
<title>S&#45;2106</title>
<polygon fill="mediumseagreen" stroke="black" points="1790.5,-36 1722,-18 1790.5,0 1859,-18 1790.5,-36"/>
<text text-anchor="middle" x="1790.5" y="-16.1" font-family="Helvetica,sans-Serif" font-size="8.00">S&#45;2106</text>
</g>
<!-- R&#45;173 -->
<g id="node36" class="node">
<title>R&#45;173</title>
<polygon fill="tomato" stroke="black" points="964,-668.54 964,-683.46 923.87,-694 867.13,-694 827,-683.46 827,-668.54 867.13,-658 923.87,-658 964,-668.54"/>
<text text-anchor="middle" x="895.5" y="-674.1" font-family="Helvetica,sans-Serif" font-size="8.00">R&#45;173</text>
</g>
<!-- C&#45;0783&#45;&gt;R&#45;173 -->
<g id="edge10" class="edge">
<title>C&#45;0783&#45;&gt;R&#45;173</title>
<path fill="none" stroke="dimgray" stroke-width="0.8" d="M933,-754.9C933,-754.9 933,-698.69 933,-698.69"/>
<polygon fill="dimgray" stroke="dimgray" stroke-width="0.8" points="935.45,-698.69 933,-691.69 930.55,-698.69 935.45,-698.69"/>
</g>
<!-- S&#45;865&#45;&gt;S&#45;1374 -->
<g id="edge30" class="edge">
<title>S&#45;865&#45;&gt;S&#45;1374</title>
<path fill="none" stroke="dimgray" stroke-width="0.8" d="M650.5,-852.47C650.5,-852.47 650.5,-788.33 650.5,-788.33"/>
<polygon fill="dimgray" stroke="dimgray" stroke-width="0.8" points="652.95,-788.33 650.5,-781.33 648.05,-788.33 652.95,-788.33"/>
</g>
<!-- ext_circ_303_26_ -->
<g id="node46" class="node">
<title>ext_circ_303_26_</title>
<polygon fill="lightpink" stroke="red" stroke-dasharray="5,2" points="483,-1262 346,-1262 346,-1226 483,-1226 483,-1262"/>
<text text-anchor="middle" x="414.5" y="-1246.6" font-family="Helvetica,sans-Serif" font-size="8.00">Circuito:</text>
<text text-anchor="middle" x="414.5" y="-1237.6" font-family="Helvetica,sans-Serif" font-size="8.00">303&#45;26&#45;</text>
</g>
<!-- R&#45;083&#45;&gt;ext_circ_303_26_ -->
<g id="edge48" class="edge">
<title>R&#45;083&#45;&gt;ext_circ_303_26_</title>
<path fill="none" stroke="red" stroke-width="0.8" stroke-dasharray="5,2" d="M1987.33,-600.16C1987.33,-669.13 1987.33,-911 1987.33,-911 1987.33,-911 421.5,-911 421.5,-911 421.5,-911 421.5,-1218.62 421.5,-1218.62"/>
<polygon fill="red" stroke="red" stroke-width="0.8" points="419.05,-1218.62 421.5,-1225.62 423.95,-1218.62 419.05,-1218.62"/>
</g>
<!-- ext_circ_304_24_ -->
<g id="node44" class="node">
<title>ext_circ_304_24_</title>
<polygon fill="lightpink" stroke="red" stroke-dasharray="5,2" points="310,-1262 173,-1262 173,-1226 310,-1226 310,-1262"/>
<text text-anchor="middle" x="241.5" y="-1246.6" font-family="Helvetica,sans-Serif" font-size="8.00">Circuito:</text>
<text text-anchor="middle" x="241.5" y="-1237.6" font-family="Helvetica,sans-Serif" font-size="8.00">304&#45;24&#45;</text>
</g>
<!-- R&#45;173&#45;&gt;ext_circ_304_24_ -->
<g id="edge45" class="edge">
<title>R&#45;173&#45;&gt;ext_circ_304_24_</title>
<path fill="none" stroke="red" stroke-width="0.8" stroke-dasharray="5,2" d="M826.88,-676C654.81,-676 218.67,-676 218.67,-676 218.67,-676 218.67,-1218.74 218.67,-1218.74"/>
<polygon fill="red" stroke="red" stroke-width="0.8" points="216.22,-1218.74 218.67,-1225.74 221.12,-1218.74 216.22,-1218.74"/>
</g>
<!-- R&#45;258&#45;&gt;ext_circ_304_24_ -->
<g id="edge43" class="edge">
<title>R&#45;258&#45;&gt;ext_circ_304_24_</title>
<path fill="none" stroke="red" stroke-width="0.8" stroke-dasharray="5,2" d="M359.83,-864C314.84,-864 264.33,-864 264.33,-864 264.33,-864 264.33,-1218.93 264.33,-1218.93"/>
<polygon fill="red" stroke="red" stroke-width="0.8" points="261.88,-1218.93 264.33,-1225.93 266.78,-1218.93 261.88,-1218.93"/>
</g>
<!-- S&#45;545&#45;&gt;S&#45;2106 -->
<g id="edge22" class="edge">
<title>S&#45;545&#45;&gt;S&#45;2106</title>
<path fill="none" stroke="dimgray" stroke-width="0.8" d="M1790.5,-93.88C1790.5,-93.88 1790.5,-43.07 1790.5,-43.07"/>
<polygon fill="dimgray" stroke="dimgray" stroke-width="0.8" points="1792.95,-43.07 1790.5,-36.07 1788.05,-43.07 1792.95,-43.07"/>
</g>
<!-- ext_circ_304_27_ -->
<g id="node45" class="node">
<title>ext_circ_304_27_</title>
<polygon fill="lightpink" stroke="red" stroke-dasharray="5,2" points="137,-1262 0,-1262 0,-1226 137,-1226 137,-1262"/>
<text text-anchor="middle" x="68.5" y="-1246.6" font-family="Helvetica,sans-Serif" font-size="8.00">Circuito:</text>
<text text-anchor="middle" x="68.5" y="-1237.6" font-family="Helvetica,sans-Serif" font-size="8.00">304&#45;27&#45;</text>
</g>
<!-- C&#45;0239&#45;&gt;ext_circ_304_27_ -->
<g id="edge46" class="edge">
<title>C&#45;0239&#45;&gt;ext_circ_304_27_</title>
<path fill="none" stroke="red" stroke-width="0.8" stroke-dasharray="5,2" d="M857.74,-394C654.14,-394 68.5,-394 68.5,-394 68.5,-394 68.5,-1218.85 68.5,-1218.85"/>
<polygon fill="red" stroke="red" stroke-width="0.8" points="66.05,-1218.85 68.5,-1225.85 70.95,-1218.85 66.05,-1218.85"/>
</g>
<!-- R&#45;123&#45;&gt;C&#45;0370 -->
<g id="edge34" class="edge">
<title>R&#45;123&#45;&gt;C&#45;0370</title>
<path fill="none" stroke="dimgray" stroke-width="0.8" d="M1612.67,-754.05C1612.67,-754.05 1612.67,-700.95 1612.67,-700.95"/>
<polygon fill="dimgray" stroke="dimgray" stroke-width="0.8" points="1615.12,-700.95 1612.67,-693.95 1610.22,-700.95 1615.12,-700.95"/>
</g>
</g>
</svg>
