<?xml version="1.0" encoding="UTF-8" standalone="no"?>
<!DOCTYPE svg PUBLIC "-//W3C//DTD SVG 1.1//EN"
 "http://www.w3.org/Graphics/SVG/1.1/DTD/svg11.dtd">
<!-- Generated by graphviz version 2.50.0 (0)
 -->
<!-- Title: Grafo_Circuito_304_26_ Pages: 1 -->
<svg width="1355pt" height="804pt"
 viewBox="0.00 0.00 1355.00 804.00" xmlns="http://www.w3.org/2000/svg" xmlns:xlink="http://www.w3.org/1999/xlink">
<g id="graph0" class="graph" transform="scale(1 1) rotate(0) translate(4 800)">
<title>Grafo_Circuito_304_26_</title>
<polygon fill="white" stroke="transparent" points="-4,4 -4,-800 1351,-800 1351,4 -4,4"/>
<!-- S&#45;974 -->
<g id="node1" class="node">
<title>S&#45;974</title>
<polygon fill="mediumseagreen" stroke="black" points="327.5,-130 259,-112 327.5,-94 396,-112 327.5,-130"/>
<text text-anchor="middle" x="327.5" y="-110.1" font-family="Helvetica,sans-Serif" font-size="8.00">S&#45;974</text>
</g>
<!-- C&#45;0462 -->
<g id="node10" class="node">
<title>C&#45;0462</title>
<ellipse fill="mediumseagreen" stroke="black" cx="327.5" cy="-18" rx="68.5" ry="18"/>
<text text-anchor="middle" x="327.5" y="-16.1" font-family="Helvetica,sans-Serif" font-size="8.00">C&#45;0462</text>
</g>
<!-- S&#45;974&#45;&gt;C&#45;0462 -->
<g id="edge11" class="edge">
<title>S&#45;974&#45;&gt;C&#45;0462</title>
<path fill="none" stroke="dimgray" stroke-width="0.8" d="M327.5,-93.88C327.5,-93.88 327.5,-43.07 327.5,-43.07"/>
<polygon fill="dimgray" stroke="dimgray" stroke-width="0.8" points="329.95,-43.07 327.5,-36.07 325.05,-43.07 329.95,-43.07"/>
</g>
<!-- S&#45;783 -->
<g id="node2" class="node">
<title>S&#45;783</title>
<polygon fill="mediumseagreen" stroke="black" points="500.5,-224 432,-206 500.5,-188 569,-206 500.5,-224"/>
<text text-anchor="middle" x="500.5" y="-204.1" font-family="Helvetica,sans-Serif" font-size="8.00">S&#45;783</text>
</g>
<!-- S&#45;1956 -->
<g id="node14" class="node">
<title>S&#45;1956</title>
<polygon fill="mediumseagreen" stroke="black" points="500.5,-130 432,-112 500.5,-94 569,-112 500.5,-130"/>
<text text-anchor="middle" x="500.5" y="-110.1" font-family="Helvetica,sans-Serif" font-size="8.00">S&#45;1956</text>
</g>
<!-- S&#45;783&#45;&gt;S&#45;1956 -->
<g id="edge18" class="edge">
<title>S&#45;783&#45;&gt;S&#45;1956</title>
<path fill="none" stroke="dimgray" stroke-width="0.8" d="M500.5,-187.88C500.5,-187.88 500.5,-137.07 500.5,-137.07"/>
<polygon fill="dimgray" stroke="dimgray" stroke-width="0.8" points="502.95,-137.07 500.5,-130.07 498.05,-137.07 502.95,-137.07"/>
</g>
<!-- S&#45;1724 -->
<g id="node3" class="node">
<title>S&#45;1724</title>
<polygon fill="mediumseagreen" stroke="black" points="673.5,-224 605,-206 673.5,-188 742,-206 673.5,-224"/>
<text text-anchor="middle" x="673.5" y="-204.1" font-family="Helvetica,sans-Serif" font-size="8.00">S&#45;1724</text>
</g>
<!-- S&#45;1111 -->
<g id="node4" class="node">
<title>S&#45;1111</title>
<polygon fill="mediumseagreen" stroke="black" points="68.5,-318 0,-300 68.5,-282 137,-300 68.5,-318"/>
<text text-anchor="middle" x="68.5" y="-298.1" font-family="Helvetica,sans-Serif" font-size="8.00">S&#45;1111</text>
</g>
<!-- 304&#45;26&#45; -->
<g id="node5" class="node">
<title>304&#45;26&#45;</title>
<polygon fill="gold" stroke="black" points="569,-766.54 569,-781.46 528.87,-792 472.13,-792 432,-781.46 432,-766.54 472.13,-756 528.87,-756 569,-766.54"/>
<polygon fill="none" stroke="black" points="573,-763.46 573,-784.54 529.39,-796 471.61,-796 428,-784.54 428,-763.46 471.61,-752 529.39,-752 573,-763.46"/>
<text text-anchor="middle" x="500.5" y="-772.1" font-family="Helvetica,sans-Serif" font-size="8.00">304&#45;26&#45;</text>
</g>
<!-- C&#45;0073 -->
<g id="node11" class="node">
<title>C&#45;0073</title>
<ellipse fill="mediumseagreen" stroke="black" cx="500.5" cy="-676" rx="68.5" ry="18"/>
<text text-anchor="middle" x="500.5" y="-674.1" font-family="Helvetica,sans-Serif" font-size="8.00">C&#45;0073</text>
</g>
<!-- 304&#45;26&#45;&#45;&gt;C&#45;0073 -->
<g id="edge1" class="edge">
<title>304&#45;26&#45;&#45;&gt;C&#45;0073</title>
<path fill="none" stroke="dimgray" stroke-width="0.8" d="M500.5,-751.76C500.5,-751.76 500.5,-701.21 500.5,-701.21"/>
<polygon fill="dimgray" stroke="dimgray" stroke-width="0.8" points="502.95,-701.21 500.5,-694.21 498.05,-701.21 502.95,-701.21"/>
</g>
<!-- C&#45;0978 -->
<g id="node6" class="node">
<title>C&#45;0978</title>
<ellipse fill="mediumseagreen" stroke="black" cx="327.5" cy="-582" rx="68.5" ry="18"/>
<text text-anchor="middle" x="327.5" y="-580.1" font-family="Helvetica,sans-Serif" font-size="8.00">C&#45;0978</text>
</g>
<!-- S&#45;2271 -->
<g id="node7" class="node">
<title>S&#45;2271</title>
<polygon fill="mediumseagreen" stroke="black" points="1105.5,-130 1037,-112 1105.5,-94 1174,-112 1105.5,-130"/>
<text text-anchor="middle" x="1105.5" y="-110.1" font-family="Helvetica,sans-Serif" font-size="8.00">S&#45;2271</text>
</g>
<!-- S&#45;1853 -->
<g id="node8" class="node">
<title>S&#45;1853</title>
<polygon fill="mediumseagreen" stroke="black" points="327.5,-224 259,-206 327.5,-188 396,-206 327.5,-224"/>
<text text-anchor="middle" x="327.5" y="-204.1" font-family="Helvetica,sans-Serif" font-size="8.00">S&#45;1853</text>
</g>
<!-- S&#45;1853&#45;&gt;S&#45;974 -->
<g id="edge10" class="edge">
<title>S&#45;1853&#45;&gt;S&#45;974</title>
<path fill="none" stroke="dimgray" stroke-width="0.8" d="M327.5,-187.88C327.5,-187.88 327.5,-137.07 327.5,-137.07"/>
<polygon fill="dimgray" stroke="dimgray" stroke-width="0.8" points="329.95,-137.07 327.5,-130.07 325.05,-137.07 329.95,-137.07"/>
</g>
<!-- R&#45;037 -->
<g id="node9" class="node">
<title>R&#45;037</title>
<polygon fill="mediumseagreen" stroke="black" points="396,-480.54 396,-495.46 355.87,-506 299.13,-506 259,-495.46 259,-480.54 299.13,-470 355.87,-470 396,-480.54"/>
<text text-anchor="middle" x="327.5" y="-486.1" font-family="Helvetica,sans-Serif" font-size="8.00">R&#45;037</text>
</g>
<!-- S&#45;785 -->
<g id="node22" class="node">
<title>S&#45;785</title>
<polygon fill="mediumseagreen" stroke="black" points="241.5,-412 173,-394 241.5,-376 310,-394 241.5,-412"/>
<text text-anchor="middle" x="241.5" y="-392.1" font-family="Helvetica,sans-Serif" font-size="8.00">S&#45;785</text>
</g>
<!-- R&#45;037&#45;&gt;S&#45;785 -->
<g id="edge21" class="edge">
<title>R&#45;037&#45;&gt;S&#45;785</title>
<path fill="none" stroke="dimgray" stroke-width="0.8" d="M284.5,-473.72C284.5,-473.72 284.5,-407.83 284.5,-407.83"/>
<polygon fill="dimgray" stroke="dimgray" stroke-width="0.8" points="286.95,-407.83 284.5,-400.83 282.05,-407.83 286.95,-407.83"/>
</g>
<!-- S&#45;786 -->
<g id="node23" class="node">
<title>S&#45;786</title>
<polygon fill="mediumseagreen" stroke="black" points="414.5,-412 346,-394 414.5,-376 483,-394 414.5,-412"/>
<text text-anchor="middle" x="414.5" y="-392.1" font-family="Helvetica,sans-Serif" font-size="8.00">S&#45;786</text>
</g>
<!-- R&#45;037&#45;&gt;S&#45;786 -->
<g id="edge7" class="edge">
<title>R&#45;037&#45;&gt;S&#45;786</title>
<path fill="none" stroke="dimgray" stroke-width="0.8" d="M371,-473.72C371,-473.72 371,-407.83 371,-407.83"/>
<polygon fill="dimgray" stroke="dimgray" stroke-width="0.8" points="373.45,-407.83 371,-400.83 368.55,-407.83 373.45,-407.83"/>
</g>
<!-- C&#45;0073&#45;&gt;C&#45;0978 -->
<g id="edge3" class="edge">
<title>C&#45;0073&#45;&gt;C&#45;0978</title>
<path fill="none" stroke="dimgray" stroke-width="0.8" d="M431.63,-676C383.38,-676 327.5,-676 327.5,-676 327.5,-676 327.5,-607.12 327.5,-607.12"/>
<polygon fill="dimgray" stroke="dimgray" stroke-width="0.8" points="329.95,-607.12 327.5,-600.12 325.05,-607.12 329.95,-607.12"/>
</g>
<!-- C&#45;0217 -->
<g id="node12" class="node">
<title>C&#45;0217</title>
<ellipse fill="mediumseagreen" stroke="black" cx="500.5" cy="-582" rx="68.5" ry="18"/>
<text text-anchor="middle" x="500.5" y="-580.1" font-family="Helvetica,sans-Serif" font-size="8.00">C&#45;0217</text>
</g>
<!-- C&#45;0073&#45;&gt;C&#45;0217 -->
<g id="edge4" class="edge">
<title>C&#45;0073&#45;&gt;C&#45;0217</title>
<path fill="none" stroke="dimgray" stroke-width="0.8" d="M500.5,-657.88C500.5,-657.88 500.5,-607.07 500.5,-607.07"/>
<polygon fill="dimgray" stroke="dimgray" stroke-width="0.8" points="502.95,-607.07 500.5,-600.07 498.05,-607.07 502.95,-607.07"/>
</g>
<!-- S&#45;973 -->
<g id="node21" class="node">
<title>S&#45;973</title>
<polygon fill="mediumseagreen" stroke="black" points="673.5,-600 605,-582 673.5,-564 742,-582 673.5,-600"/>
<text text-anchor="middle" x="673.5" y="-580.1" font-family="Helvetica,sans-Serif" font-size="8.00">S&#45;973</text>
</g>
<!-- C&#45;0073&#45;&gt;S&#45;973 -->
<g id="edge2" class="edge">
<title>C&#45;0073&#45;&gt;S&#45;973</title>
<path fill="none" stroke="dimgray" stroke-width="0.8" d="M569.37,-676C617.62,-676 673.5,-676 673.5,-676 673.5,-676 673.5,-607.12 673.5,-607.12"/>
<polygon fill="dimgray" stroke="dimgray" stroke-width="0.8" points="675.95,-607.12 673.5,-600.12 671.05,-607.12 675.95,-607.12"/>
</g>
<!-- C&#45;0217&#45;&gt;R&#45;037 -->
<g id="edge6" class="edge">
<title>C&#45;0217&#45;&gt;R&#45;037</title>
<path fill="none" stroke="dimgray" stroke-width="0.8" d="M431.64,-582C420.22,-582 412,-582 412,-582 412,-582 412,-488 412,-488 412,-488 403.11,-488 403.11,-488"/>
<polygon fill="dimgray" stroke="dimgray" stroke-width="0.8" points="403.11,-485.55 396.11,-488 403.11,-490.45 403.11,-485.55"/>
</g>
<!-- S&#45;2418 -->
<g id="node18" class="node">
<title>S&#45;2418</title>
<polygon fill="mediumseagreen" stroke="black" points="500.5,-506 432,-488 500.5,-470 569,-488 500.5,-506"/>
<text text-anchor="middle" x="500.5" y="-486.1" font-family="Helvetica,sans-Serif" font-size="8.00">S&#45;2418</text>
</g>
<!-- C&#45;0217&#45;&gt;S&#45;2418 -->
<g id="edge24" class="edge">
<title>C&#45;0217&#45;&gt;S&#45;2418</title>
<path fill="none" stroke="dimgray" stroke-width="0.8" d="M500.5,-563.88C500.5,-563.88 500.5,-513.07 500.5,-513.07"/>
<polygon fill="dimgray" stroke="dimgray" stroke-width="0.8" points="502.95,-513.07 500.5,-506.07 498.05,-513.07 502.95,-513.07"/>
</g>
<!-- S&#45;1845 -->
<g id="node24" class="node">
<title>S&#45;1845</title>
<polygon fill="mediumseagreen" stroke="black" points="673.5,-506 605,-488 673.5,-470 742,-488 673.5,-506"/>
<text text-anchor="middle" x="673.5" y="-486.1" font-family="Helvetica,sans-Serif" font-size="8.00">S&#45;1845</text>
</g>
<!-- C&#45;0217&#45;&gt;S&#45;1845 -->
<g id="edge5" class="edge">
<title>C&#45;0217&#45;&gt;S&#45;1845</title>
<path fill="none" stroke="dimgray" stroke-width="0.8" d="M569.36,-582C580.78,-582 589,-582 589,-582 589,-582 589,-488 589,-488 589,-488 597.89,-488 597.89,-488"/>
<polygon fill="dimgray" stroke="dimgray" stroke-width="0.8" points="597.89,-490.45 604.89,-488 597.89,-485.55 597.89,-490.45"/>
</g>
<!-- S&#45;1743 -->
<g id="node13" class="node">
<title>S&#45;1743</title>
<polygon fill="mediumseagreen" stroke="black" points="846.5,-224 778,-206 846.5,-188 915,-206 846.5,-224"/>
<text text-anchor="middle" x="846.5" y="-204.1" font-family="Helvetica,sans-Serif" font-size="8.00">S&#45;1743</text>
</g>
<!-- S&#45;784 -->
<g id="node15" class="node">
<title>S&#45;784</title>
<polygon fill="mediumseagreen" stroke="black" points="414.5,-318 346,-300 414.5,-282 483,-300 414.5,-318"/>
<text text-anchor="middle" x="414.5" y="-298.1" font-family="Helvetica,sans-Serif" font-size="8.00">S&#45;784</text>
</g>
<!-- S&#45;784&#45;&gt;S&#45;1853 -->
<g id="edge9" class="edge">
<title>S&#45;784&#45;&gt;S&#45;1853</title>
<path fill="none" stroke="dimgray" stroke-width="0.8" d="M371,-293.24C371,-293.24 371,-219.7 371,-219.7"/>
<polygon fill="dimgray" stroke="dimgray" stroke-width="0.8" points="373.45,-219.7 371,-212.7 368.55,-219.7 373.45,-219.7"/>
</g>
<!-- S&#45;2120 -->
<g id="node16" class="node">
<title>S&#45;2120</title>
<polygon fill="mediumseagreen" stroke="black" points="1019.5,-224 951,-206 1019.5,-188 1088,-206 1019.5,-224"/>
<text text-anchor="middle" x="1019.5" y="-204.1" font-family="Helvetica,sans-Serif" font-size="8.00">S&#45;2120</text>
</g>
<!-- S&#45;750 -->
<g id="node17" class="node">
<title>S&#45;750</title>
<polygon fill="mediumseagreen" stroke="black" points="760.5,-318 692,-300 760.5,-282 829,-300 760.5,-318"/>
<text text-anchor="middle" x="760.5" y="-298.1" font-family="Helvetica,sans-Serif" font-size="8.00">S&#45;750</text>
</g>
<!-- S&#45;750&#45;&gt;S&#45;783 -->
<g id="edge17" class="edge">
<title>S&#45;750&#45;&gt;S&#45;783</title>
<path fill="none" stroke="dimgray" stroke-width="0.8" d="M691.73,-300C622.53,-300 526,-300 526,-300 526,-300 526,-224.53 526,-224.53"/>
<polygon fill="dimgray" stroke="dimgray" stroke-width="0.8" points="528.45,-224.53 526,-217.53 523.55,-224.53 528.45,-224.53"/>
</g>
<!-- S&#45;750&#45;&gt;S&#45;1724 -->
<g id="edge13" class="edge">
<title>S&#45;750&#45;&gt;S&#45;1724</title>
<path fill="none" stroke="dimgray" stroke-width="0.8" d="M717,-293.24C717,-293.24 717,-219.7 717,-219.7"/>
<polygon fill="dimgray" stroke="dimgray" stroke-width="0.8" points="719.45,-219.7 717,-212.7 714.55,-219.7 719.45,-219.7"/>
</g>
<!-- S&#45;750&#45;&gt;S&#45;1743 -->
<g id="edge19" class="edge">
<title>S&#45;750&#45;&gt;S&#45;1743</title>
<path fill="none" stroke="dimgray" stroke-width="0.8" d="M803.5,-293.24C803.5,-293.24 803.5,-219.95 803.5,-219.95"/>
<polygon fill="dimgray" stroke="dimgray" stroke-width="0.8" points="805.95,-219.95 803.5,-212.95 801.05,-219.95 805.95,-219.95"/>
</g>
<!-- S&#45;750&#45;&gt;S&#45;2120 -->
<g id="edge20" class="edge">
<title>S&#45;750&#45;&gt;S&#45;2120</title>
<path fill="none" stroke="dimgray" stroke-width="0.8" d="M806.21,-294C880.56,-294 1019.5,-294 1019.5,-294 1019.5,-294 1019.5,-231.23 1019.5,-231.23"/>
<polygon fill="dimgray" stroke="dimgray" stroke-width="0.8" points="1021.95,-231.23 1019.5,-224.23 1017.05,-231.23 1021.95,-231.23"/>
</g>
<!-- SR&#45;0022 -->
<g id="node25" class="node">
<title>SR&#45;0022</title>
<polygon fill="mediumseagreen" stroke="black" points="1192.5,-224 1124,-206 1192.5,-188 1261,-206 1192.5,-224"/>
<text text-anchor="middle" x="1192.5" y="-204.1" font-family="Helvetica,sans-Serif" font-size="8.00">SR&#45;0022</text>
</g>
<!-- S&#45;750&#45;&gt;SR&#45;0022 -->
<g id="edge14" class="edge">
<title>S&#45;750&#45;&gt;SR&#45;0022</title>
<path fill="none" stroke="dimgray" stroke-width="0.8" d="M806.32,-306C917.5,-306 1192.5,-306 1192.5,-306 1192.5,-306 1192.5,-231.34 1192.5,-231.34"/>
<polygon fill="dimgray" stroke="dimgray" stroke-width="0.8" points="1194.95,-231.34 1192.5,-224.34 1190.05,-231.34 1194.95,-231.34"/>
</g>
<!-- S&#45;1740 -->
<g id="node19" class="node">
<title>S&#45;1740</title>
<polygon fill="mediumseagreen" stroke="black" points="1278.5,-130 1210,-112 1278.5,-94 1347,-112 1278.5,-130"/>
<text text-anchor="middle" x="1278.5" y="-110.1" font-family="Helvetica,sans-Serif" font-size="8.00">S&#45;1740</text>
</g>
<!-- S&#45;2078 -->
<g id="node20" class="node">
<title>S&#45;2078</title>
<polygon fill="mediumseagreen" stroke="black" points="241.5,-318 173,-300 241.5,-282 310,-300 241.5,-318"/>
<text text-anchor="middle" x="241.5" y="-298.1" font-family="Helvetica,sans-Serif" font-size="8.00">S&#45;2078</text>
</g>
<!-- S&#45;785&#45;&gt;S&#45;1111 -->
<g id="edge22" class="edge">
<title>S&#45;785&#45;&gt;S&#45;1111</title>
<path fill="none" stroke="dimgray" stroke-width="0.8" d="M172.63,-394C124.38,-394 68.5,-394 68.5,-394 68.5,-394 68.5,-325.12 68.5,-325.12"/>
<polygon fill="dimgray" stroke="dimgray" stroke-width="0.8" points="70.95,-325.12 68.5,-318.12 66.05,-325.12 70.95,-325.12"/>
</g>
<!-- S&#45;785&#45;&gt;S&#45;2078 -->
<g id="edge23" class="edge">
<title>S&#45;785&#45;&gt;S&#45;2078</title>
<path fill="none" stroke="dimgray" stroke-width="0.8" d="M241.5,-375.88C241.5,-375.88 241.5,-325.07 241.5,-325.07"/>
<polygon fill="dimgray" stroke="dimgray" stroke-width="0.8" points="243.95,-325.07 241.5,-318.07 239.05,-325.07 243.95,-325.07"/>
</g>
<!-- S&#45;786&#45;&gt;S&#45;784 -->
<g id="edge8" class="edge">
<title>S&#45;786&#45;&gt;S&#45;784</title>
<path fill="none" stroke="dimgray" stroke-width="0.8" d="M414.5,-375.88C414.5,-375.88 414.5,-325.07 414.5,-325.07"/>
<polygon fill="dimgray" stroke="dimgray" stroke-width="0.8" points="416.95,-325.07 414.5,-318.07 412.05,-325.07 416.95,-325.07"/>
</g>
<!-- S&#45;786&#45;&gt;S&#45;750 -->
<g id="edge12" class="edge">
<title>S&#45;786&#45;&gt;S&#45;750</title>
<path fill="none" stroke="dimgray" stroke-width="0.8" d="M483.14,-394C572.39,-394 717,-394 717,-394 717,-394 717,-313.76 717,-313.76"/>
<polygon fill="dimgray" stroke="dimgray" stroke-width="0.8" points="719.45,-313.76 717,-306.76 714.55,-313.76 719.45,-313.76"/>
</g>
<!-- SR&#45;0022&#45;&gt;S&#45;2271 -->
<g id="edge15" class="edge">
<title>SR&#45;0022&#45;&gt;S&#45;2271</title>
<path fill="none" stroke="dimgray" stroke-width="0.8" d="M1149,-199.24C1149,-199.24 1149,-125.7 1149,-125.7"/>
<polygon fill="dimgray" stroke="dimgray" stroke-width="0.8" points="1151.45,-125.7 1149,-118.7 1146.55,-125.7 1151.45,-125.7"/>
</g>
<!-- SR&#45;0022&#45;&gt;S&#45;1740 -->
<g id="edge16" class="edge">
<title>SR&#45;0022&#45;&gt;S&#45;1740</title>
<path fill="none" stroke="dimgray" stroke-width="0.8" d="M1235.5,-199.24C1235.5,-199.24 1235.5,-125.95 1235.5,-125.95"/>
<polygon fill="dimgray" stroke="dimgray" stroke-width="0.8" points="1237.95,-125.95 1235.5,-118.95 1233.05,-125.95 1237.95,-125.95"/>
</g>
</g>
</svg>
