<?xml version="1.0" encoding="UTF-8" standalone="no"?>
<!DOCTYPE svg PUBLIC "-//W3C//DTD SVG 1.1//EN"
 "http://www.w3.org/Graphics/SVG/1.1/DTD/svg11.dtd">
<!-- Generated by graphviz version 2.50.0 (0)
 -->
<!-- Title: Grafo_Circuito_114_24_ Pages: 1 -->
<svg width="1563pt" height="1180pt"
 viewBox="0.00 0.00 1563.00 1180.00" xmlns="http://www.w3.org/2000/svg" xmlns:xlink="http://www.w3.org/1999/xlink">
<g id="graph0" class="graph" transform="scale(1 1) rotate(0) translate(4 1176)">
<title>Grafo_Circuito_114_24_</title>
<polygon fill="white" stroke="transparent" points="-4,4 -4,-1176 1559,-1176 1559,4 -4,4"/>
<!-- S&#45;2262 -->
<g id="node1" class="node">
<title>S&#45;2262</title>
<polygon fill="mediumseagreen" stroke="black" points="241.5,-224 173,-206 241.5,-188 310,-206 241.5,-224"/>
<text text-anchor="middle" x="241.5" y="-204.1" font-family="Helvetica,sans-Serif" font-size="8.00">S&#45;2262</text>
</g>
<!-- S&#45;1600 -->
<g id="node2" class="node">
<title>S&#45;1600</title>
<polygon fill="mediumseagreen" stroke="black" points="1279.5,-318 1211,-300 1279.5,-282 1348,-300 1279.5,-318"/>
<text text-anchor="middle" x="1279.5" y="-298.1" font-family="Helvetica,sans-Serif" font-size="8.00">S&#45;1600</text>
</g>
<!-- S&#45;1084 -->
<g id="node9" class="node">
<title>S&#45;1084</title>
<polygon fill="mediumseagreen" stroke="black" points="1279.5,-224 1211,-206 1279.5,-188 1348,-206 1279.5,-224"/>
<text text-anchor="middle" x="1279.5" y="-204.1" font-family="Helvetica,sans-Serif" font-size="8.00">S&#45;1084</text>
</g>
<!-- S&#45;1600&#45;&gt;S&#45;1084 -->
<g id="edge15" class="edge">
<title>S&#45;1600&#45;&gt;S&#45;1084</title>
<path fill="none" stroke="dimgray" stroke-width="0.8" d="M1279.5,-281.88C1279.5,-281.88 1279.5,-231.07 1279.5,-231.07"/>
<polygon fill="dimgray" stroke="dimgray" stroke-width="0.8" points="1281.95,-231.07 1279.5,-224.07 1277.05,-231.07 1281.95,-231.07"/>
</g>
<!-- S&#45;2501 -->
<g id="node35" class="node">
<title>S&#45;2501</title>
<polygon fill="mediumseagreen" stroke="black" points="1452.5,-224 1384,-206 1452.5,-188 1521,-206 1452.5,-224"/>
<text text-anchor="middle" x="1452.5" y="-204.1" font-family="Helvetica,sans-Serif" font-size="8.00">S&#45;2501</text>
</g>
<!-- S&#45;1600&#45;&gt;S&#45;2501 -->
<g id="edge13" class="edge">
<title>S&#45;1600&#45;&gt;S&#45;2501</title>
<path fill="none" stroke="dimgray" stroke-width="0.8" d="M1348.11,-300C1358.05,-300 1365,-300 1365,-300 1365,-300 1365,-206 1365,-206 1365,-206 1376.99,-206 1376.99,-206"/>
<polygon fill="dimgray" stroke="dimgray" stroke-width="0.8" points="1376.99,-208.45 1383.99,-206 1376.99,-203.55 1376.99,-208.45"/>
</g>
<!-- S&#45;140 -->
<g id="node3" class="node">
<title>S&#45;140</title>
<polygon fill="mediumseagreen" stroke="black" points="988.5,-976 920,-958 988.5,-940 1057,-958 988.5,-976"/>
<text text-anchor="middle" x="988.5" y="-956.1" font-family="Helvetica,sans-Serif" font-size="8.00">S&#45;140</text>
</g>
<!-- C&#45;0451 -->
<g id="node34" class="node">
<title>C&#45;0451</title>
<ellipse fill="mediumseagreen" stroke="black" cx="988.5" cy="-864" rx="68.5" ry="18"/>
<text text-anchor="middle" x="988.5" y="-862.1" font-family="Helvetica,sans-Serif" font-size="8.00">C&#45;0451</text>
</g>
<!-- S&#45;140&#45;&gt;C&#45;0451 -->
<g id="edge3" class="edge">
<title>S&#45;140&#45;&gt;C&#45;0451</title>
<path fill="none" stroke="dimgray" stroke-width="0.8" d="M988.5,-939.88C988.5,-939.88 988.5,-889.07 988.5,-889.07"/>
<polygon fill="dimgray" stroke="dimgray" stroke-width="0.8" points="990.95,-889.07 988.5,-882.07 986.05,-889.07 990.95,-889.07"/>
</g>
<!-- C&#45;0599 -->
<g id="node4" class="node">
<title>C&#45;0599</title>
<ellipse fill="mediumseagreen" stroke="black" cx="673.5" cy="-394" rx="68.5" ry="18"/>
<text text-anchor="middle" x="673.5" y="-392.1" font-family="Helvetica,sans-Serif" font-size="8.00">C&#45;0599</text>
</g>
<!-- S&#45;1444 -->
<g id="node7" class="node">
<title>S&#45;1444</title>
<polygon fill="mediumseagreen" stroke="black" points="68.5,-318 0,-300 68.5,-282 137,-300 68.5,-318"/>
<text text-anchor="middle" x="68.5" y="-298.1" font-family="Helvetica,sans-Serif" font-size="8.00">S&#45;1444</text>
</g>
<!-- C&#45;0599&#45;&gt;S&#45;1444 -->
<g id="edge23" class="edge">
<title>C&#45;0599&#45;&gt;S&#45;1444</title>
<path fill="none" stroke="dimgray" stroke-width="0.8" d="M614.11,-403C461.68,-403 68.5,-403 68.5,-403 68.5,-403 68.5,-325.41 68.5,-325.41"/>
<polygon fill="dimgray" stroke="dimgray" stroke-width="0.8" points="70.95,-325.41 68.5,-318.41 66.05,-325.41 70.95,-325.41"/>
</g>
<!-- S&#45;1959 -->
<g id="node8" class="node">
<title>S&#45;1959</title>
<polygon fill="mediumseagreen" stroke="black" points="241.5,-318 173,-300 241.5,-282 310,-300 241.5,-318"/>
<text text-anchor="middle" x="241.5" y="-298.1" font-family="Helvetica,sans-Serif" font-size="8.00">S&#45;1959</text>
</g>
<!-- C&#45;0599&#45;&gt;S&#45;1959 -->
<g id="edge25" class="edge">
<title>C&#45;0599&#45;&gt;S&#45;1959</title>
<path fill="none" stroke="dimgray" stroke-width="0.8" d="M604.57,-394C482.61,-394 241.5,-394 241.5,-394 241.5,-394 241.5,-325.12 241.5,-325.12"/>
<polygon fill="dimgray" stroke="dimgray" stroke-width="0.8" points="243.95,-325.12 241.5,-318.12 239.05,-325.12 243.95,-325.12"/>
</g>
<!-- S&#45;272 -->
<g id="node16" class="node">
<title>S&#45;272</title>
<polygon fill="mediumseagreen" stroke="black" points="414.5,-318 346,-300 414.5,-282 483,-300 414.5,-318"/>
<text text-anchor="middle" x="414.5" y="-298.1" font-family="Helvetica,sans-Serif" font-size="8.00">S&#45;272</text>
</g>
<!-- C&#45;0599&#45;&gt;S&#45;272 -->
<g id="edge28" class="edge">
<title>C&#45;0599&#45;&gt;S&#45;272</title>
<path fill="none" stroke="dimgray" stroke-width="0.8" d="M614.08,-385C537.61,-385 414.5,-385 414.5,-385 414.5,-385 414.5,-325.03 414.5,-325.03"/>
<polygon fill="dimgray" stroke="dimgray" stroke-width="0.8" points="416.95,-325.03 414.5,-318.03 412.05,-325.03 416.95,-325.03"/>
</g>
<!-- S&#45;234 -->
<g id="node18" class="node">
<title>S&#45;234</title>
<polygon fill="mediumseagreen" stroke="black" points="587.5,-318 519,-300 587.5,-282 656,-300 587.5,-318"/>
<text text-anchor="middle" x="587.5" y="-298.1" font-family="Helvetica,sans-Serif" font-size="8.00">S&#45;234</text>
</g>
<!-- C&#45;0599&#45;&gt;S&#45;234 -->
<g id="edge31" class="edge">
<title>C&#45;0599&#45;&gt;S&#45;234</title>
<path fill="none" stroke="dimgray" stroke-width="0.8" d="M630.5,-379.72C630.5,-379.72 630.5,-313.83 630.5,-313.83"/>
<polygon fill="dimgray" stroke="dimgray" stroke-width="0.8" points="632.95,-313.83 630.5,-306.83 628.05,-313.83 632.95,-313.83"/>
</g>
<!-- S&#45;2483 -->
<g id="node21" class="node">
<title>S&#45;2483</title>
<polygon fill="mediumseagreen" stroke="black" points="760.5,-318 692,-300 760.5,-282 829,-300 760.5,-318"/>
<text text-anchor="middle" x="760.5" y="-298.1" font-family="Helvetica,sans-Serif" font-size="8.00">S&#45;2483</text>
</g>
<!-- C&#45;0599&#45;&gt;S&#45;2483 -->
<g id="edge37" class="edge">
<title>C&#45;0599&#45;&gt;S&#45;2483</title>
<path fill="none" stroke="dimgray" stroke-width="0.8" d="M717,-379.72C717,-379.72 717,-313.83 717,-313.83"/>
<polygon fill="dimgray" stroke="dimgray" stroke-width="0.8" points="719.45,-313.83 717,-306.83 714.55,-313.83 719.45,-313.83"/>
</g>
<!-- S&#45;058 -->
<g id="node22" class="node">
<title>S&#45;058</title>
<polygon fill="mediumseagreen" stroke="black" points="933.5,-318 865,-300 933.5,-282 1002,-300 933.5,-318"/>
<text text-anchor="middle" x="933.5" y="-298.1" font-family="Helvetica,sans-Serif" font-size="8.00">S&#45;058</text>
</g>
<!-- C&#45;0599&#45;&gt;S&#45;058 -->
<g id="edge27" class="edge">
<title>C&#45;0599&#45;&gt;S&#45;058</title>
<path fill="none" stroke="dimgray" stroke-width="0.8" d="M738.33,-388C799.53,-388 882,-388 882,-388 882,-388 882,-311.73 882,-311.73"/>
<polygon fill="dimgray" stroke="dimgray" stroke-width="0.8" points="884.45,-311.73 882,-304.73 879.55,-311.73 884.45,-311.73"/>
</g>
<!-- S&#45;2502 -->
<g id="node31" class="node">
<title>S&#45;2502</title>
<polygon fill="mediumseagreen" stroke="black" points="1106.5,-318 1038,-300 1106.5,-282 1175,-300 1106.5,-318"/>
<text text-anchor="middle" x="1106.5" y="-298.1" font-family="Helvetica,sans-Serif" font-size="8.00">S&#45;2502</text>
</g>
<!-- C&#45;0599&#45;&gt;S&#45;2502 -->
<g id="edge24" class="edge">
<title>C&#45;0599&#45;&gt;S&#45;2502</title>
<path fill="none" stroke="dimgray" stroke-width="0.8" d="M738.11,-400C845.56,-400 1049.33,-400 1049.33,-400 1049.33,-400 1049.33,-310.33 1049.33,-310.33"/>
<polygon fill="dimgray" stroke="dimgray" stroke-width="0.8" points="1051.78,-310.33 1049.33,-303.33 1046.88,-310.33 1051.78,-310.33"/>
</g>
<!-- S&#45;277 -->
<g id="node5" class="node">
<title>S&#45;277</title>
<polygon fill="mediumseagreen" stroke="black" points="587.5,-224 519,-206 587.5,-188 656,-206 587.5,-224"/>
<text text-anchor="middle" x="587.5" y="-204.1" font-family="Helvetica,sans-Serif" font-size="8.00">S&#45;277</text>
</g>
<!-- C&#45;0598 -->
<g id="node6" class="node">
<title>C&#45;0598</title>
<ellipse fill="mediumseagreen" stroke="black" cx="784.5" cy="-582" rx="68.5" ry="18"/>
<text text-anchor="middle" x="784.5" y="-580.1" font-family="Helvetica,sans-Serif" font-size="8.00">C&#45;0598</text>
</g>
<!-- R&#45;113 -->
<g id="node28" class="node">
<title>R&#45;113</title>
<polygon fill="mediumseagreen" stroke="black" points="779,-480.54 779,-495.46 738.87,-506 682.13,-506 642,-495.46 642,-480.54 682.13,-470 738.87,-470 779,-480.54"/>
<text text-anchor="middle" x="710.5" y="-486.1" font-family="Helvetica,sans-Serif" font-size="8.00">R&#45;113</text>
</g>
<!-- C&#45;0598&#45;&gt;R&#45;113 -->
<g id="edge21" class="edge">
<title>C&#45;0598&#45;&gt;R&#45;113</title>
<path fill="none" stroke="dimgray" stroke-width="0.8" d="M747.5,-566.48C747.5,-566.48 747.5,-510.86 747.5,-510.86"/>
<polygon fill="dimgray" stroke="dimgray" stroke-width="0.8" points="749.95,-510.86 747.5,-503.86 745.05,-510.86 749.95,-510.86"/>
</g>
<!-- S&#45;2416 -->
<g id="node29" class="node">
<title>S&#45;2416</title>
<polygon fill="mediumseagreen" stroke="black" points="68.5,-224 0,-206 68.5,-188 137,-206 68.5,-224"/>
<text text-anchor="middle" x="68.5" y="-204.1" font-family="Helvetica,sans-Serif" font-size="8.00">S&#45;2416</text>
</g>
<!-- S&#45;1959&#45;&gt;S&#45;2416 -->
<g id="edge26" class="edge">
<title>S&#45;1959&#45;&gt;S&#45;2416</title>
<path fill="none" stroke="dimgray" stroke-width="0.8" d="M172.92,-300C162.42,-300 155,-300 155,-300 155,-300 155,-206 155,-206 155,-206 144.08,-206 144.08,-206"/>
<polygon fill="dimgray" stroke="dimgray" stroke-width="0.8" points="144.08,-203.55 137.08,-206 144.08,-208.45 144.08,-203.55"/>
</g>
<!-- C&#45;0955 -->
<g id="node38" class="node">
<title>C&#45;0955</title>
<ellipse fill="mediumseagreen" stroke="black" cx="1279.5" cy="-112" rx="68.5" ry="18"/>
<text text-anchor="middle" x="1279.5" y="-110.1" font-family="Helvetica,sans-Serif" font-size="8.00">C&#45;0955</text>
</g>
<!-- S&#45;1084&#45;&gt;C&#45;0955 -->
<g id="edge16" class="edge">
<title>S&#45;1084&#45;&gt;C&#45;0955</title>
<path fill="none" stroke="dimgray" stroke-width="0.8" d="M1279.5,-187.88C1279.5,-187.88 1279.5,-137.07 1279.5,-137.07"/>
<polygon fill="dimgray" stroke="dimgray" stroke-width="0.8" points="1281.95,-137.07 1279.5,-130.07 1277.05,-137.07 1281.95,-137.07"/>
</g>
<!-- S&#45;1709 -->
<g id="node10" class="node">
<title>S&#45;1709</title>
<polygon fill="mediumseagreen" stroke="black" points="902.5,-788 834,-770 902.5,-752 971,-770 902.5,-788"/>
<text text-anchor="middle" x="902.5" y="-768.1" font-family="Helvetica,sans-Serif" font-size="8.00">S&#45;1709</text>
</g>
<!-- S&#45;1616 -->
<g id="node11" class="node">
<title>S&#45;1616</title>
<polygon fill="mediumseagreen" stroke="black" points="967.5,-694 899,-676 967.5,-658 1036,-676 967.5,-694"/>
<text text-anchor="middle" x="967.5" y="-674.1" font-family="Helvetica,sans-Serif" font-size="8.00">S&#45;1616</text>
</g>
<!-- S&#45;144 -->
<g id="node12" class="node">
<title>S&#45;144</title>
<polygon fill="mediumseagreen" stroke="black" points="967.5,-600 899,-582 967.5,-564 1036,-582 967.5,-600"/>
<text text-anchor="middle" x="967.5" y="-580.1" font-family="Helvetica,sans-Serif" font-size="8.00">S&#45;144</text>
</g>
<!-- C&#45;0593 -->
<g id="node13" class="node">
<title>C&#45;0593</title>
<ellipse fill="mediumseagreen" stroke="black" cx="1279.5" cy="-394" rx="68.5" ry="18"/>
<text text-anchor="middle" x="1279.5" y="-392.1" font-family="Helvetica,sans-Serif" font-size="8.00">C&#45;0593</text>
</g>
<!-- C&#45;0593&#45;&gt;S&#45;1600 -->
<g id="edge12" class="edge">
<title>C&#45;0593&#45;&gt;S&#45;1600</title>
<path fill="none" stroke="dimgray" stroke-width="0.8" d="M1279.5,-375.88C1279.5,-375.88 1279.5,-325.07 1279.5,-325.07"/>
<polygon fill="dimgray" stroke="dimgray" stroke-width="0.8" points="1281.95,-325.07 1279.5,-318.07 1277.05,-325.07 1281.95,-325.07"/>
</g>
<!-- C&#45;1133 -->
<g id="node17" class="node">
<title>C&#45;1133</title>
<ellipse fill="mediumseagreen" stroke="black" cx="1452.5" cy="-300" rx="68.5" ry="18"/>
<text text-anchor="middle" x="1452.5" y="-298.1" font-family="Helvetica,sans-Serif" font-size="8.00">C&#45;1133</text>
</g>
<!-- C&#45;0593&#45;&gt;C&#45;1133 -->
<g id="edge18" class="edge">
<title>C&#45;0593&#45;&gt;C&#45;1133</title>
<path fill="none" stroke="dimgray" stroke-width="0.8" d="M1344.16,-388C1373.18,-388 1401,-388 1401,-388 1401,-388 1401,-319.24 1401,-319.24"/>
<polygon fill="dimgray" stroke="dimgray" stroke-width="0.8" points="1403.45,-319.24 1401,-312.24 1398.55,-319.24 1403.45,-319.24"/>
</g>
<!-- C&#45;0594 -->
<g id="node14" class="node">
<title>C&#45;0594</title>
<ellipse fill="mediumseagreen" stroke="black" cx="1140.5" cy="-582" rx="68.5" ry="18"/>
<text text-anchor="middle" x="1140.5" y="-580.1" font-family="Helvetica,sans-Serif" font-size="8.00">C&#45;0594</text>
</g>
<!-- R&#45;112 -->
<g id="node25" class="node">
<title>R&#45;112</title>
<polygon fill="mediumseagreen" stroke="black" points="1237,-480.54 1237,-495.46 1196.87,-506 1140.13,-506 1100,-495.46 1100,-480.54 1140.13,-470 1196.87,-470 1237,-480.54"/>
<text text-anchor="middle" x="1168.5" y="-486.1" font-family="Helvetica,sans-Serif" font-size="8.00">R&#45;112</text>
</g>
<!-- C&#45;0594&#45;&gt;R&#45;112 -->
<g id="edge10" class="edge">
<title>C&#45;0594&#45;&gt;R&#45;112</title>
<path fill="none" stroke="dimgray" stroke-width="0.8" d="M1154.5,-564.32C1154.5,-564.32 1154.5,-513.24 1154.5,-513.24"/>
<polygon fill="dimgray" stroke="dimgray" stroke-width="0.8" points="1156.95,-513.24 1154.5,-506.24 1152.05,-513.24 1156.95,-513.24"/>
</g>
<!-- S&#45;273 -->
<g id="node15" class="node">
<title>S&#45;273</title>
<polygon fill="mediumseagreen" stroke="black" points="933.5,-130 865,-112 933.5,-94 1002,-112 933.5,-130"/>
<text text-anchor="middle" x="933.5" y="-110.1" font-family="Helvetica,sans-Serif" font-size="8.00">S&#45;273</text>
</g>
<!-- S&#45;272&#45;&gt;S&#45;2262 -->
<g id="edge29" class="edge">
<title>S&#45;272&#45;&gt;S&#45;2262</title>
<path fill="none" stroke="dimgray" stroke-width="0.8" d="M345.92,-300C335.42,-300 328,-300 328,-300 328,-300 328,-206 328,-206 328,-206 317.08,-206 317.08,-206"/>
<polygon fill="dimgray" stroke="dimgray" stroke-width="0.8" points="317.08,-203.55 310.08,-206 317.08,-208.45 317.08,-203.55"/>
</g>
<!-- S&#45;204 -->
<g id="node27" class="node">
<title>S&#45;204</title>
<polygon fill="mediumseagreen" stroke="black" points="414.5,-224 346,-206 414.5,-188 483,-206 414.5,-224"/>
<text text-anchor="middle" x="414.5" y="-204.1" font-family="Helvetica,sans-Serif" font-size="8.00">S&#45;204</text>
</g>
<!-- S&#45;272&#45;&gt;S&#45;204 -->
<g id="edge30" class="edge">
<title>S&#45;272&#45;&gt;S&#45;204</title>
<path fill="none" stroke="dimgray" stroke-width="0.8" d="M414.5,-281.88C414.5,-281.88 414.5,-231.07 414.5,-231.07"/>
<polygon fill="dimgray" stroke="dimgray" stroke-width="0.8" points="416.95,-231.07 414.5,-224.07 412.05,-231.07 416.95,-231.07"/>
</g>
<!-- S&#45;234&#45;&gt;S&#45;277 -->
<g id="edge34" class="edge">
<title>S&#45;234&#45;&gt;S&#45;277</title>
<path fill="none" stroke="dimgray" stroke-width="0.8" d="M553.25,-290.99C553.25,-290.99 553.25,-222.12 553.25,-222.12"/>
<polygon fill="dimgray" stroke="dimgray" stroke-width="0.8" points="555.7,-222.12 553.25,-215.12 550.8,-222.12 555.7,-222.12"/>
</g>
<!-- S&#45;235 -->
<g id="node19" class="node">
<title>S&#45;235</title>
<polygon fill="mediumseagreen" stroke="black" points="760.5,-224 692,-206 760.5,-188 829,-206 760.5,-224"/>
<text text-anchor="middle" x="760.5" y="-204.1" font-family="Helvetica,sans-Serif" font-size="8.00">S&#45;235</text>
</g>
<!-- S&#45;234&#45;&gt;S&#45;235 -->
<g id="edge33" class="edge">
<title>S&#45;234&#45;&gt;S&#45;235</title>
<path fill="none" stroke="dimgray" stroke-width="0.8" d="M656.08,-300C666.58,-300 674,-300 674,-300 674,-300 674,-206 674,-206 674,-206 684.92,-206 684.92,-206"/>
<polygon fill="dimgray" stroke="dimgray" stroke-width="0.8" points="684.92,-208.45 691.92,-206 684.92,-203.55 684.92,-208.45"/>
</g>
<!-- S&#45;275 -->
<g id="node30" class="node">
<title>S&#45;275</title>
<polygon fill="mediumseagreen" stroke="black" points="933.5,-224 865,-206 933.5,-188 1002,-206 933.5,-224"/>
<text text-anchor="middle" x="933.5" y="-204.1" font-family="Helvetica,sans-Serif" font-size="8.00">S&#45;275</text>
</g>
<!-- S&#45;234&#45;&gt;S&#45;275 -->
<g id="edge35" class="edge">
<title>S&#45;234&#45;&gt;S&#45;275</title>
<path fill="none" stroke="dimgray" stroke-width="0.8" d="M587.5,-281.96C587.5,-265.27 587.5,-243 587.5,-243 587.5,-243 933.5,-243 933.5,-243 933.5,-243 933.5,-231.07 933.5,-231.07"/>
<polygon fill="dimgray" stroke="dimgray" stroke-width="0.8" points="935.95,-231.07 933.5,-224.07 931.05,-231.07 935.95,-231.07"/>
</g>
<!-- S&#45;2425 -->
<g id="node37" class="node">
<title>S&#45;2425</title>
<polygon fill="mediumseagreen" stroke="black" points="1106.5,-224 1038,-206 1106.5,-188 1175,-206 1106.5,-224"/>
<text text-anchor="middle" x="1106.5" y="-204.1" font-family="Helvetica,sans-Serif" font-size="8.00">S&#45;2425</text>
</g>
<!-- S&#45;234&#45;&gt;S&#45;2425 -->
<g id="edge32" class="edge">
<title>S&#45;234&#45;&gt;S&#45;2425</title>
<path fill="none" stroke="dimgray" stroke-width="0.8" d="M621.75,-290.8C621.75,-279.56 621.75,-262 621.75,-262 621.75,-262 1106.5,-262 1106.5,-262 1106.5,-262 1106.5,-231.03 1106.5,-231.03"/>
<polygon fill="dimgray" stroke="dimgray" stroke-width="0.8" points="1108.95,-231.03 1106.5,-224.03 1104.05,-231.03 1108.95,-231.03"/>
</g>
<!-- R&#45;225 -->
<g id="node20" class="node">
<title>R&#45;225</title>
<polygon fill="tomato" stroke="black" points="1348,-10.54 1348,-25.46 1307.87,-36 1251.13,-36 1211,-25.46 1211,-10.54 1251.13,0 1307.87,0 1348,-10.54"/>
<text text-anchor="middle" x="1279.5" y="-16.1" font-family="Helvetica,sans-Serif" font-size="8.00">R&#45;225</text>
</g>
<!-- ext_circ__NA_ -->
<g id="node40" class="node">
<title>ext_circ__NA_</title>
<polygon fill="lightpink" stroke="red" stroke-dasharray="5,2" points="880,-1168 743,-1168 743,-1132 880,-1132 880,-1168"/>
<text text-anchor="middle" x="811.5" y="-1152.6" font-family="Helvetica,sans-Serif" font-size="8.00">Circuito:</text>
<text text-anchor="middle" x="811.5" y="-1143.6" font-family="Helvetica,sans-Serif" font-size="8.00">&lt;NA&gt;</text>
</g>
<!-- R&#45;225&#45;&gt;ext_circ__NA_ -->
<g id="edge40" class="edge">
<title>R&#45;225&#45;&gt;ext_circ__NA_</title>
<path fill="none" stroke="red" stroke-width="0.8" stroke-dasharray="5,2" d="M1210.53,-18C1091.24,-18 859,-18 859,-18 859,-18 859,-638 859,-638 859,-638 788.5,-638 788.5,-638 788.5,-638 788.5,-1124.78 788.5,-1124.78"/>
<polygon fill="red" stroke="red" stroke-width="0.8" points="786.05,-1124.78 788.5,-1131.78 790.95,-1124.78 786.05,-1124.78"/>
</g>
<!-- 114&#45;24&#45; -->
<g id="node23" class="node">
<title>114&#45;24&#45;</title>
<polygon fill="gold" stroke="black" points="1057,-1142.54 1057,-1157.46 1016.87,-1168 960.13,-1168 920,-1157.46 920,-1142.54 960.13,-1132 1016.87,-1132 1057,-1142.54"/>
<polygon fill="none" stroke="black" points="1061,-1139.46 1061,-1160.54 1017.39,-1172 959.61,-1172 916,-1160.54 916,-1139.46 959.61,-1128 1017.39,-1128 1061,-1139.46"/>
<text text-anchor="middle" x="988.5" y="-1148.1" font-family="Helvetica,sans-Serif" font-size="8.00">114&#45;24&#45;</text>
</g>
<!-- C&#45;0177 -->
<g id="node32" class="node">
<title>C&#45;0177</title>
<ellipse fill="mediumseagreen" stroke="black" cx="988.5" cy="-1052" rx="68.5" ry="18"/>
<text text-anchor="middle" x="988.5" y="-1050.1" font-family="Helvetica,sans-Serif" font-size="8.00">C&#45;0177</text>
</g>
<!-- 114&#45;24&#45;&#45;&gt;C&#45;0177 -->
<g id="edge1" class="edge">
<title>114&#45;24&#45;&#45;&gt;C&#45;0177</title>
<path fill="none" stroke="dimgray" stroke-width="0.8" d="M988.5,-1127.76C988.5,-1127.76 988.5,-1077.21 988.5,-1077.21"/>
<polygon fill="dimgray" stroke="dimgray" stroke-width="0.8" points="990.95,-1077.21 988.5,-1070.21 986.05,-1077.21 990.95,-1077.21"/>
</g>
<!-- C&#45;0749 -->
<g id="node24" class="node">
<title>C&#45;0749</title>
<ellipse fill="mediumseagreen" stroke="black" cx="1140.5" cy="-676" rx="68.5" ry="18"/>
<text text-anchor="middle" x="1140.5" y="-674.1" font-family="Helvetica,sans-Serif" font-size="8.00">C&#45;0749</text>
</g>
<!-- C&#45;0749&#45;&gt;C&#45;0598 -->
<g id="edge20" class="edge">
<title>C&#45;0749&#45;&gt;C&#45;0598</title>
<path fill="none" stroke="dimgray" stroke-width="0.8" d="M1117.67,-658.9C1117.67,-642.11 1117.67,-619 1117.67,-619 1117.67,-619 843.5,-619 843.5,-619 843.5,-619 843.5,-598.34 843.5,-598.34"/>
<polygon fill="dimgray" stroke="dimgray" stroke-width="0.8" points="845.95,-598.34 843.5,-591.34 841.05,-598.34 845.95,-598.34"/>
</g>
<!-- C&#45;0749&#45;&gt;S&#45;144 -->
<g id="edge38" class="edge">
<title>C&#45;0749&#45;&gt;S&#45;144</title>
<path fill="none" stroke="dimgray" stroke-width="0.8" d="M1071.77,-676C1065.05,-676 1060.67,-676 1060.67,-676 1060.67,-676 1060.67,-582 1060.67,-582 1060.67,-582 1043.19,-582 1043.19,-582"/>
<polygon fill="dimgray" stroke="dimgray" stroke-width="0.8" points="1043.19,-579.55 1036.19,-582 1043.19,-584.45 1043.19,-579.55"/>
</g>
<!-- C&#45;0749&#45;&gt;C&#45;0594 -->
<g id="edge9" class="edge">
<title>C&#45;0749&#45;&gt;C&#45;0594</title>
<path fill="none" stroke="dimgray" stroke-width="0.8" d="M1163.33,-658.76C1163.33,-658.76 1163.33,-606.13 1163.33,-606.13"/>
<polygon fill="dimgray" stroke="dimgray" stroke-width="0.8" points="1165.78,-606.13 1163.33,-599.13 1160.88,-606.13 1165.78,-606.13"/>
</g>
<!-- C&#45;0595 -->
<g id="node26" class="node">
<title>C&#45;0595</title>
<ellipse fill="tomato" stroke="black" cx="1313.5" cy="-582" rx="68.5" ry="18"/>
<text text-anchor="middle" x="1313.5" y="-580.1" font-family="Helvetica,sans-Serif" font-size="8.00">C&#45;0595</text>
</g>
<!-- C&#45;0749&#45;&gt;C&#45;0595 -->
<g id="edge19" class="edge">
<title>C&#45;0749&#45;&gt;C&#45;0595</title>
<path fill="none" stroke="dimgray" stroke-width="0.8" d="M1205.41,-670C1254.5,-670 1313.5,-670 1313.5,-670 1313.5,-670 1313.5,-607.23 1313.5,-607.23"/>
<polygon fill="dimgray" stroke="dimgray" stroke-width="0.8" points="1315.95,-607.23 1313.5,-600.23 1311.05,-607.23 1315.95,-607.23"/>
</g>
<!-- C&#45;0592 -->
<g id="node33" class="node">
<title>C&#45;0592</title>
<ellipse fill="tomato" stroke="black" cx="1486.5" cy="-582" rx="68.5" ry="18"/>
<text text-anchor="middle" x="1486.5" y="-580.1" font-family="Helvetica,sans-Serif" font-size="8.00">C&#45;0592</text>
</g>
<!-- C&#45;0749&#45;&gt;C&#45;0592 -->
<g id="edge8" class="edge">
<title>C&#45;0749&#45;&gt;C&#45;0592</title>
<path fill="none" stroke="dimgray" stroke-width="0.8" d="M1205.17,-682C1305.32,-682 1486.5,-682 1486.5,-682 1486.5,-682 1486.5,-607.34 1486.5,-607.34"/>
<polygon fill="dimgray" stroke="dimgray" stroke-width="0.8" points="1488.95,-607.34 1486.5,-600.34 1484.05,-607.34 1488.95,-607.34"/>
</g>
<!-- R&#45;112&#45;&gt;C&#45;0593 -->
<g id="edge11" class="edge">
<title>R&#45;112&#45;&gt;C&#45;0593</title>
<path fill="none" stroke="dimgray" stroke-width="0.8" d="M1224,-476.85C1224,-476.85 1224,-411.56 1224,-411.56"/>
<polygon fill="dimgray" stroke="dimgray" stroke-width="0.8" points="1226.45,-411.56 1224,-404.56 1221.55,-411.56 1226.45,-411.56"/>
</g>
<!-- C&#45;0595&#45;&gt;C&#45;0599 -->
<g id="edge41" class="edge">
<title>C&#45;0595&#45;&gt;C&#45;0599</title>
<path fill="none" stroke="blue" stroke-width="0.8" stroke-dasharray="5,2" d="M1296.5,-564.43C1296.5,-526.63 1296.5,-441 1296.5,-441 1296.5,-441 708.67,-441 708.67,-441 708.67,-441 708.67,-416.65 708.67,-416.65"/>
<polygon fill="blue" stroke="blue" stroke-width="0.8" points="711.12,-416.65 708.67,-409.65 706.22,-416.65 711.12,-416.65"/>
</g>
<!-- R&#45;113&#45;&gt;C&#45;0599 -->
<g id="edge22" class="edge">
<title>R&#45;113&#45;&gt;C&#45;0599</title>
<path fill="none" stroke="dimgray" stroke-width="0.8" d="M675.33,-471.63C675.33,-471.63 675.33,-419.11 675.33,-419.11"/>
<polygon fill="dimgray" stroke="dimgray" stroke-width="0.8" points="677.78,-419.11 675.33,-412.11 672.88,-419.11 677.78,-419.11"/>
</g>
<!-- S&#45;275&#45;&gt;S&#45;273 -->
<g id="edge36" class="edge">
<title>S&#45;275&#45;&gt;S&#45;273</title>
<path fill="none" stroke="dimgray" stroke-width="0.8" d="M933.5,-187.88C933.5,-187.88 933.5,-137.07 933.5,-137.07"/>
<polygon fill="dimgray" stroke="dimgray" stroke-width="0.8" points="935.95,-137.07 933.5,-130.07 931.05,-137.07 935.95,-137.07"/>
</g>
<!-- C&#45;0177&#45;&gt;S&#45;140 -->
<g id="edge2" class="edge">
<title>C&#45;0177&#45;&gt;S&#45;140</title>
<path fill="none" stroke="dimgray" stroke-width="0.8" d="M988.5,-1033.88C988.5,-1033.88 988.5,-983.07 988.5,-983.07"/>
<polygon fill="dimgray" stroke="dimgray" stroke-width="0.8" points="990.95,-983.07 988.5,-976.07 986.05,-983.07 990.95,-983.07"/>
</g>
<!-- C&#45;0592&#45;&gt;C&#45;0593 -->
<g id="edge39" class="edge">
<title>C&#45;0592&#45;&gt;C&#45;0593</title>
<path fill="none" stroke="blue" stroke-width="0.8" stroke-dasharray="5,2" d="M1469.5,-564.55C1469.5,-519 1469.5,-400 1469.5,-400 1469.5,-400 1351.09,-400 1351.09,-400"/>
<polygon fill="blue" stroke="blue" stroke-width="0.8" points="1351.09,-397.55 1344.09,-400 1351.09,-402.45 1351.09,-397.55"/>
</g>
<!-- C&#45;0451&#45;&gt;S&#45;1709 -->
<g id="edge4" class="edge">
<title>C&#45;0451&#45;&gt;S&#45;1709</title>
<path fill="none" stroke="dimgray" stroke-width="0.8" d="M945.5,-849.72C945.5,-849.72 945.5,-783.83 945.5,-783.83"/>
<polygon fill="dimgray" stroke="dimgray" stroke-width="0.8" points="947.95,-783.83 945.5,-776.83 943.05,-783.83 947.95,-783.83"/>
</g>
<!-- C&#45;0647 -->
<g id="node36" class="node">
<title>C&#45;0647</title>
<ellipse fill="mediumseagreen" stroke="black" cx="1075.5" cy="-770" rx="68.5" ry="18"/>
<text text-anchor="middle" x="1075.5" y="-768.1" font-family="Helvetica,sans-Serif" font-size="8.00">C&#45;0647</text>
</g>
<!-- C&#45;0451&#45;&gt;C&#45;0647 -->
<g id="edge5" class="edge">
<title>C&#45;0451&#45;&gt;C&#45;0647</title>
<path fill="none" stroke="dimgray" stroke-width="0.8" d="M1032,-849.72C1032,-849.72 1032,-791.1 1032,-791.1"/>
<polygon fill="dimgray" stroke="dimgray" stroke-width="0.8" points="1034.45,-791.1 1032,-784.1 1029.55,-791.1 1034.45,-791.1"/>
</g>
<!-- S&#45;1599 -->
<g id="node39" class="node">
<title>S&#45;1599</title>
<polygon fill="mediumseagreen" stroke="black" points="1452.5,-130 1384,-112 1452.5,-94 1521,-112 1452.5,-130"/>
<text text-anchor="middle" x="1452.5" y="-110.1" font-family="Helvetica,sans-Serif" font-size="8.00">S&#45;1599</text>
</g>
<!-- S&#45;2501&#45;&gt;S&#45;1599 -->
<g id="edge14" class="edge">
<title>S&#45;2501&#45;&gt;S&#45;1599</title>
<path fill="none" stroke="dimgray" stroke-width="0.8" d="M1452.5,-187.88C1452.5,-187.88 1452.5,-137.07 1452.5,-137.07"/>
<polygon fill="dimgray" stroke="dimgray" stroke-width="0.8" points="1454.95,-137.07 1452.5,-130.07 1450.05,-137.07 1454.95,-137.07"/>
</g>
<!-- C&#45;0647&#45;&gt;S&#45;1616 -->
<g id="edge6" class="edge">
<title>C&#45;0647&#45;&gt;S&#45;1616</title>
<path fill="none" stroke="dimgray" stroke-width="0.8" d="M1021.5,-758.85C1021.5,-758.85 1021.5,-686.9 1021.5,-686.9"/>
<polygon fill="dimgray" stroke="dimgray" stroke-width="0.8" points="1023.95,-686.9 1021.5,-679.9 1019.05,-686.9 1023.95,-686.9"/>
</g>
<!-- C&#45;0647&#45;&gt;C&#45;0749 -->
<g id="edge7" class="edge">
<title>C&#45;0647&#45;&gt;C&#45;0749</title>
<path fill="none" stroke="dimgray" stroke-width="0.8" d="M1108,-754.05C1108,-754.05 1108,-699.02 1108,-699.02"/>
<polygon fill="dimgray" stroke="dimgray" stroke-width="0.8" points="1110.45,-699.02 1108,-692.02 1105.55,-699.02 1110.45,-699.02"/>
</g>
<!-- C&#45;0955&#45;&gt;R&#45;225 -->
<g id="edge17" class="edge">
<title>C&#45;0955&#45;&gt;R&#45;225</title>
<path fill="none" stroke="dimgray" stroke-width="0.8" d="M1279.5,-93.88C1279.5,-93.88 1279.5,-43.07 1279.5,-43.07"/>
<polygon fill="dimgray" stroke="dimgray" stroke-width="0.8" points="1281.95,-43.07 1279.5,-36.07 1277.05,-43.07 1281.95,-43.07"/>
</g>
</g>
</svg>
