<?xml version="1.0" encoding="UTF-8" standalone="no"?>
<!DOCTYPE svg PUBLIC "-//W3C//DTD SVG 1.1//EN"
 "http://www.w3.org/Graphics/SVG/1.1/DTD/svg11.dtd">
<!-- Generated by graphviz version 2.50.0 (0)
 -->
<!-- Title: Grafo_Circuito_303_24_ Pages: 1 -->
<svg width="1311pt" height="1069pt"
 viewBox="0.00 0.00 1311.00 1069.00" xmlns="http://www.w3.org/2000/svg" xmlns:xlink="http://www.w3.org/1999/xlink">
<g id="graph0" class="graph" transform="scale(1 1) rotate(0) translate(4 1065)">
<title>Grafo_Circuito_303_24_</title>
<polygon fill="white" stroke="transparent" points="-4,4 -4,-1065 1307,-1065 1307,4 -4,4"/>
<!-- S&#45;1719 -->
<g id="node1" class="node">
<title>S&#45;1719</title>
<polygon fill="tomato" stroke="black" points="428,-649 356,-627.5 428,-606 500,-627.5 428,-649"/>
<text text-anchor="middle" x="428" y="-625" font-family="Arial" font-size="10.00">S&#45;1719</text>
</g>
<!-- C&#45;0486 -->
<g id="node12" class="node">
<title>C&#45;0486</title>
<ellipse fill="mediumseagreen" stroke="black" cx="1046" cy="-829.5" rx="72" ry="21.5"/>
<text text-anchor="middle" x="1046" y="-827" font-family="Arial" font-size="10.00">C&#45;0486</text>
</g>
<!-- S&#45;1719&#45;&gt;C&#45;0486 -->
<g id="edge39" class="edge">
<title>S&#45;1719&#45;&gt;C&#45;0486</title>
<path fill="none" stroke="blue" stroke-dasharray="5,2" d="M388.5,-637.23C388.5,-669.19 388.5,-769 388.5,-769 388.5,-769 1022,-769 1022,-769 1022,-769 1022,-802.02 1022,-802.02"/>
<polygon fill="blue" stroke="blue" points="1019.55,-802.02 1022,-809.02 1024.45,-802.02 1019.55,-802.02"/>
</g>
<!-- S&#45;945 -->
<g id="node2" class="node">
<title>S&#45;945</title>
<polygon fill="mediumseagreen" stroke="black" points="331,-144 259,-122.5 331,-101 403,-122.5 331,-144"/>
<text text-anchor="middle" x="331" y="-120" font-family="Arial" font-size="10.00">S&#45;945</text>
</g>
<!-- S&#45;1873 -->
<g id="node5" class="node">
<title>S&#45;1873</title>
<polygon fill="mediumseagreen" stroke="black" points="151,-43 79,-21.5 151,0 223,-21.5 151,-43"/>
<text text-anchor="middle" x="151" y="-19" font-family="Arial" font-size="10.00">S&#45;1873</text>
</g>
<!-- S&#45;945&#45;&gt;S&#45;1873 -->
<g id="edge13" class="edge">
<title>S&#45;945&#45;&gt;S&#45;1873</title>
<path fill="none" stroke="#4d4d4d" d="M260.63,-122C210.15,-122 151,-122 151,-122 151,-122 151,-50.31 151,-50.31"/>
<polygon fill="#4d4d4d" stroke="#4d4d4d" points="153.45,-50.31 151,-43.31 148.55,-50.31 153.45,-50.31"/>
</g>
<!-- S&#45;2125 -->
<g id="node20" class="node">
<title>S&#45;2125</title>
<polygon fill="mediumseagreen" stroke="black" points="331,-43 259,-21.5 331,0 403,-21.5 331,-43"/>
<text text-anchor="middle" x="331" y="-19" font-family="Arial" font-size="10.00">S&#45;2125</text>
</g>
<!-- S&#45;945&#45;&gt;S&#45;2125 -->
<g id="edge14" class="edge">
<title>S&#45;945&#45;&gt;S&#45;2125</title>
<path fill="none" stroke="#4d4d4d" d="M331,-100.58C331,-100.58 331,-50.03 331,-50.03"/>
<polygon fill="#4d4d4d" stroke="#4d4d4d" points="333.45,-50.03 331,-43.03 328.55,-50.03 333.45,-50.03"/>
</g>
<!-- S&#45;1800 -->
<g id="node28" class="node">
<title>S&#45;1800</title>
<polygon fill="mediumseagreen" stroke="black" points="511,-43 439,-21.5 511,0 583,-21.5 511,-43"/>
<text text-anchor="middle" x="511" y="-19" font-family="Arial" font-size="10.00">S&#45;1800</text>
</g>
<!-- S&#45;945&#45;&gt;S&#45;1800 -->
<g id="edge12" class="edge">
<title>S&#45;945&#45;&gt;S&#45;1800</title>
<path fill="none" stroke="#4d4d4d" d="M401.35,-122C444.03,-122 490.33,-122 490.33,-122 490.33,-122 490.33,-44.2 490.33,-44.2"/>
<polygon fill="#4d4d4d" stroke="#4d4d4d" points="492.78,-44.2 490.33,-37.2 487.88,-44.2 492.78,-44.2"/>
</g>
<!-- C&#45;0888 -->
<g id="node3" class="node">
<title>C&#45;0888</title>
<ellipse fill="mediumseagreen" stroke="black" cx="1051" cy="-526.5" rx="72" ry="21.5"/>
<text text-anchor="middle" x="1051" y="-524" font-family="Arial" font-size="10.00">C&#45;0888</text>
</g>
<!-- C&#45;0006 -->
<g id="node6" class="node">
<title>C&#45;0006</title>
<ellipse fill="mediumseagreen" stroke="black" cx="1051" cy="-425.5" rx="72" ry="21.5"/>
<text text-anchor="middle" x="1051" y="-423" font-family="Arial" font-size="10.00">C&#45;0006</text>
</g>
<!-- C&#45;0888&#45;&gt;C&#45;0006 -->
<g id="edge32" class="edge">
<title>C&#45;0888&#45;&gt;C&#45;0006</title>
<path fill="none" stroke="#4d4d4d" d="M1051,-504.58C1051,-504.58 1051,-454.03 1051,-454.03"/>
<polygon fill="#4d4d4d" stroke="#4d4d4d" points="1053.45,-454.03 1051,-447.03 1048.55,-454.03 1053.45,-454.03"/>
</g>
<!-- S&#45;254 -->
<g id="node27" class="node">
<title>S&#45;254</title>
<polygon fill="mediumseagreen" stroke="black" points="1231,-447 1159,-425.5 1231,-404 1303,-425.5 1231,-447"/>
<text text-anchor="middle" x="1231" y="-423" font-family="Arial" font-size="10.00">S&#45;254</text>
</g>
<!-- C&#45;0888&#45;&gt;S&#45;254 -->
<g id="edge31" class="edge">
<title>C&#45;0888&#45;&gt;S&#45;254</title>
<path fill="none" stroke="#4d4d4d" d="M1118.66,-519C1176.91,-519 1251.67,-519 1251.67,-519 1251.67,-519 1251.67,-447.94 1251.67,-447.94"/>
<polygon fill="#4d4d4d" stroke="#4d4d4d" points="1254.12,-447.94 1251.67,-440.94 1249.22,-447.94 1254.12,-447.94"/>
</g>
<!-- S&#45;262 -->
<g id="node4" class="node">
<title>S&#45;262</title>
<polygon fill="mediumseagreen" stroke="black" points="691,-447 619,-425.5 691,-404 763,-425.5 691,-447"/>
<text text-anchor="middle" x="691" y="-423" font-family="Arial" font-size="10.00">S&#45;262</text>
</g>
<!-- C&#45;0126 -->
<g id="node17" class="node">
<title>C&#45;0126</title>
<ellipse fill="tomato" stroke="black" cx="844" cy="-324.5" rx="72" ry="21.5"/>
<text text-anchor="middle" x="844" y="-322" font-family="Arial" font-size="10.00">C&#45;0126</text>
</g>
<!-- S&#45;262&#45;&gt;C&#45;0126 -->
<g id="edge18" class="edge">
<title>S&#45;262&#45;&gt;C&#45;0126</title>
<path fill="none" stroke="#4d4d4d" d="M761.5,-425C769.58,-425 775,-425 775,-425 775,-425 775,-337.79 775,-337.79"/>
<polygon fill="#4d4d4d" stroke="#4d4d4d" points="777.45,-337.79 775,-330.79 772.55,-337.79 777.45,-337.79"/>
</g>
<!-- S&#45;263 -->
<g id="node21" class="node">
<title>S&#45;263</title>
<polygon fill="mediumseagreen" stroke="black" points="664,-346 592,-324.5 664,-303 736,-324.5 664,-346"/>
<text text-anchor="middle" x="664" y="-322" font-family="Arial" font-size="10.00">S&#45;263</text>
</g>
<!-- S&#45;262&#45;&gt;S&#45;263 -->
<g id="edge19" class="edge">
<title>S&#45;262&#45;&gt;S&#45;263</title>
<path fill="none" stroke="#4d4d4d" d="M677.5,-407.91C677.5,-407.91 677.5,-349.23 677.5,-349.23"/>
<polygon fill="#4d4d4d" stroke="#4d4d4d" points="679.95,-349.23 677.5,-342.23 675.05,-349.23 679.95,-349.23"/>
</g>
<!-- C&#45;1136 -->
<g id="node13" class="node">
<title>C&#45;1136</title>
<ellipse fill="mediumseagreen" stroke="black" cx="1024" cy="-324.5" rx="72" ry="21.5"/>
<text text-anchor="middle" x="1024" y="-322" font-family="Arial" font-size="10.00">C&#45;1136</text>
</g>
<!-- C&#45;0006&#45;&gt;C&#45;1136 -->
<g id="edge34" class="edge">
<title>C&#45;0006&#45;&gt;C&#45;1136</title>
<path fill="none" stroke="#4d4d4d" d="M1037.5,-404.08C1037.5,-404.08 1037.5,-352.89 1037.5,-352.89"/>
<polygon fill="#4d4d4d" stroke="#4d4d4d" points="1039.95,-352.89 1037.5,-345.89 1035.05,-352.89 1039.95,-352.89"/>
</g>
<!-- C&#45;0040 -->
<g id="node33" class="node">
<title>C&#45;0040</title>
<ellipse fill="tomato" stroke="black" cx="1204" cy="-324.5" rx="72" ry="21.5"/>
<text text-anchor="middle" x="1204" y="-322" font-family="Arial" font-size="10.00">C&#45;0040</text>
</g>
<!-- C&#45;0006&#45;&gt;C&#45;0040 -->
<g id="edge33" class="edge">
<title>C&#45;0006&#45;&gt;C&#45;0040</title>
<path fill="none" stroke="#4d4d4d" d="M1123.13,-425C1132.73,-425 1139.33,-425 1139.33,-425 1139.33,-425 1139.33,-341.14 1139.33,-341.14"/>
<polygon fill="#4d4d4d" stroke="#4d4d4d" points="1141.78,-341.14 1139.33,-334.14 1136.88,-341.14 1141.78,-341.14"/>
</g>
<!-- S&#45;2096 -->
<g id="node7" class="node">
<title>S&#45;2096</title>
<polygon fill="mediumseagreen" stroke="black" points="768,-245 696,-223.5 768,-202 840,-223.5 768,-245"/>
<text text-anchor="middle" x="768" y="-221" font-family="Arial" font-size="10.00">S&#45;2096</text>
</g>
<!-- R&#45;008 -->
<g id="node8" class="node">
<title>R&#45;008</title>
<polygon fill="mediumseagreen" stroke="black" points="925,-517.59 925,-535.41 882.82,-548 823.18,-548 781,-535.41 781,-517.59 823.18,-505 882.82,-505 925,-517.59"/>
<text text-anchor="middle" x="853" y="-524" font-family="Arial" font-size="10.00">R&#45;008</text>
</g>
<!-- R&#45;008&#45;&gt;S&#45;262 -->
<g id="edge17" class="edge">
<title>R&#45;008&#45;&gt;S&#45;262</title>
<path fill="none" stroke="#4d4d4d" d="M780.9,-526C767.96,-526 758.5,-526 758.5,-526 758.5,-526 758.5,-433.92 758.5,-433.92"/>
<polygon fill="#4d4d4d" stroke="#4d4d4d" points="760.95,-433.92 758.5,-426.92 756.05,-433.92 760.95,-433.92"/>
</g>
<!-- S&#45;256 -->
<g id="node16" class="node">
<title>S&#45;256</title>
<polygon fill="mediumseagreen" stroke="black" points="871,-447 799,-425.5 871,-404 943,-425.5 871,-447"/>
<text text-anchor="middle" x="871" y="-423" font-family="Arial" font-size="10.00">S&#45;256</text>
</g>
<!-- R&#45;008&#45;&gt;S&#45;256 -->
<g id="edge22" class="edge">
<title>R&#45;008&#45;&gt;S&#45;256</title>
<path fill="none" stroke="#4d4d4d" d="M862,-504.58C862,-504.58 862,-451.32 862,-451.32"/>
<polygon fill="#4d4d4d" stroke="#4d4d4d" points="864.45,-451.32 862,-444.32 859.55,-451.32 864.45,-451.32"/>
</g>
<!-- S&#45;1448 -->
<g id="node9" class="node">
<title>S&#45;1448</title>
<polygon fill="mediumseagreen" stroke="black" points="862,-750 790,-728.5 862,-707 934,-728.5 862,-750"/>
<text text-anchor="middle" x="862" y="-726" font-family="Arial" font-size="10.00">S&#45;1448</text>
</g>
<!-- S&#45;1622 -->
<g id="node10" class="node">
<title>S&#45;1622</title>
<polygon fill="mediumseagreen" stroke="black" points="353,-548 281,-526.5 353,-505 425,-526.5 353,-548"/>
<text text-anchor="middle" x="353" y="-524" font-family="Arial" font-size="10.00">S&#45;1622</text>
</g>
<!-- S&#45;2170 -->
<g id="node14" class="node">
<title>S&#45;2170</title>
<polygon fill="tomato" stroke="black" points="151,-447 79,-425.5 151,-404 223,-425.5 151,-447"/>
<text text-anchor="middle" x="151" y="-423" font-family="Arial" font-size="10.00">S&#45;2170</text>
</g>
<!-- S&#45;1622&#45;&gt;S&#45;2170 -->
<g id="edge15" class="edge">
<title>S&#45;1622&#45;&gt;S&#45;2170</title>
<path fill="none" stroke="#4d4d4d" d="M282.61,-526C241.11,-526 196.67,-526 196.67,-526 196.67,-526 196.67,-440.39 196.67,-440.39"/>
<polygon fill="#4d4d4d" stroke="#4d4d4d" points="199.12,-440.39 196.67,-433.39 194.22,-440.39 199.12,-440.39"/>
</g>
<!-- C&#45;0531 -->
<g id="node18" class="node">
<title>C&#45;0531</title>
<ellipse fill="mediumseagreen" stroke="black" cx="331" cy="-425.5" rx="72" ry="21.5"/>
<text text-anchor="middle" x="331" y="-423" font-family="Arial" font-size="10.00">C&#45;0531</text>
</g>
<!-- S&#45;1622&#45;&gt;C&#45;0531 -->
<g id="edge7" class="edge">
<title>S&#45;1622&#45;&gt;C&#45;0531</title>
<path fill="none" stroke="#4d4d4d" d="M342,-507.98C342,-507.98 342,-454.06 342,-454.06"/>
<polygon fill="#4d4d4d" stroke="#4d4d4d" points="344.45,-454.06 342,-447.06 339.55,-454.06 344.45,-454.06"/>
</g>
<!-- C&#45;0530 -->
<g id="node29" class="node">
<title>C&#45;0530</title>
<ellipse fill="tomato" stroke="black" cx="511" cy="-425.5" rx="72" ry="21.5"/>
<text text-anchor="middle" x="511" y="-423" font-family="Arial" font-size="10.00">C&#45;0530</text>
</g>
<!-- S&#45;1622&#45;&gt;C&#45;0530 -->
<g id="edge8" class="edge">
<title>S&#45;1622&#45;&gt;C&#45;0530</title>
<path fill="none" stroke="#4d4d4d" d="M414,-523.12C414,-505.51 414,-425 414,-425 414,-425 431.98,-425 431.98,-425"/>
<polygon fill="#4d4d4d" stroke="#4d4d4d" points="431.98,-427.45 438.98,-425 431.98,-422.55 431.98,-427.45"/>
</g>
<!-- R&#45;206 -->
<g id="node11" class="node">
<title>R&#45;206</title>
<polygon fill="mediumseagreen" stroke="black" points="1120,-618.59 1120,-636.41 1077.82,-649 1018.18,-649 976,-636.41 976,-618.59 1018.18,-606 1077.82,-606 1120,-618.59"/>
<text text-anchor="middle" x="1048" y="-625" font-family="Arial" font-size="10.00">R&#45;206</text>
</g>
<!-- R&#45;206&#45;&gt;C&#45;0888 -->
<g id="edge30" class="edge">
<title>R&#45;206&#45;&gt;C&#45;0888</title>
<path fill="none" stroke="#4d4d4d" d="M1049.5,-605.58C1049.5,-605.58 1049.5,-555.03 1049.5,-555.03"/>
<polygon fill="#4d4d4d" stroke="#4d4d4d" points="1051.95,-555.03 1049.5,-548.03 1047.05,-555.03 1051.95,-555.03"/>
</g>
<!-- C&#45;0889 -->
<g id="node22" class="node">
<title>C&#45;0889</title>
<ellipse fill="tomato" stroke="black" cx="1226" cy="-728.5" rx="72" ry="21.5"/>
<text text-anchor="middle" x="1226" y="-726" font-family="Arial" font-size="10.00">C&#45;0889</text>
</g>
<!-- C&#45;0486&#45;&gt;C&#45;0889 -->
<g id="edge27" class="edge">
<title>C&#45;0486&#45;&gt;C&#45;0889</title>
<path fill="none" stroke="#4d4d4d" d="M1118.18,-829C1168.25,-829 1226,-829 1226,-829 1226,-829 1226,-757.31 1226,-757.31"/>
<polygon fill="#4d4d4d" stroke="#4d4d4d" points="1228.45,-757.31 1226,-750.31 1223.55,-757.31 1228.45,-757.31"/>
</g>
<!-- C&#45;0890 -->
<g id="node34" class="node">
<title>C&#45;0890</title>
<ellipse fill="mediumseagreen" stroke="black" cx="1046" cy="-728.5" rx="72" ry="21.5"/>
<text text-anchor="middle" x="1046" y="-726" font-family="Arial" font-size="10.00">C&#45;0890</text>
</g>
<!-- C&#45;0486&#45;&gt;C&#45;0890 -->
<g id="edge28" class="edge">
<title>C&#45;0486&#45;&gt;C&#45;0890</title>
<path fill="none" stroke="#4d4d4d" d="M1070,-809.06C1070,-809.06 1070,-755.91 1070,-755.91"/>
<polygon fill="#4d4d4d" stroke="#4d4d4d" points="1072.45,-755.91 1070,-748.91 1067.55,-755.91 1072.45,-755.91"/>
</g>
<!-- R&#45;286 -->
<g id="node36" class="node">
<title>R&#45;286</title>
<polygon fill="tomato" stroke="black" points="1096,-214.59 1096,-232.41 1053.82,-245 994.18,-245 952,-232.41 952,-214.59 994.18,-202 1053.82,-202 1096,-214.59"/>
<text text-anchor="middle" x="1024" y="-221" font-family="Arial" font-size="10.00">R&#45;286</text>
</g>
<!-- C&#45;1136&#45;&gt;R&#45;286 -->
<g id="edge35" class="edge">
<title>C&#45;1136&#45;&gt;R&#45;286</title>
<path fill="none" stroke="#4d4d4d" d="M1048,-304.06C1048,-304.06 1048,-252.31 1048,-252.31"/>
<polygon fill="#4d4d4d" stroke="#4d4d4d" points="1050.45,-252.31 1048,-245.31 1045.55,-252.31 1050.45,-252.31"/>
</g>
<!-- S&#45;1626 -->
<g id="node25" class="node">
<title>S&#45;1626</title>
<polygon fill="mediumseagreen" stroke="black" points="682,-649 610,-627.5 682,-606 754,-627.5 682,-649"/>
<text text-anchor="middle" x="682" y="-625" font-family="Arial" font-size="10.00">S&#45;1626</text>
</g>
<!-- S&#45;2170&#45;&gt;S&#45;1626 -->
<g id="edge37" class="edge">
<title>S&#45;2170&#45;&gt;S&#45;1626</title>
<path fill="none" stroke="blue" stroke-dasharray="5,2" d="M170.33,-441.43C170.33,-480.32 170.33,-577 170.33,-577 170.33,-577 655,-577 655,-577 655,-577 655,-606.97 655,-606.97"/>
<polygon fill="blue" stroke="blue" points="652.55,-606.97 655,-613.97 657.45,-606.97 652.55,-606.97"/>
</g>
<!-- S&#45;944 -->
<g id="node15" class="node">
<title>S&#45;944</title>
<polygon fill="mediumseagreen" stroke="black" points="682,-750 610,-728.5 682,-707 754,-728.5 682,-750"/>
<text text-anchor="middle" x="682" y="-726" font-family="Arial" font-size="10.00">S&#45;944</text>
</g>
<!-- S&#45;944&#45;&gt;S&#45;1626 -->
<g id="edge4" class="edge">
<title>S&#45;944&#45;&gt;S&#45;1626</title>
<path fill="none" stroke="#4d4d4d" d="M682,-706.58C682,-706.58 682,-656.03 682,-656.03"/>
<polygon fill="#4d4d4d" stroke="#4d4d4d" points="684.45,-656.03 682,-649.03 679.55,-656.03 684.45,-656.03"/>
</g>
<!-- ext_circ_303_23_ -->
<g id="node37" class="node">
<title>ext_circ_303_23_</title>
<polygon fill="lightpink" stroke="darkorange" stroke-dasharray="5,2" points="639,-1057 495,-1057 495,-1014 639,-1014 639,-1057"/>
<text text-anchor="middle" x="567" y="-1038.5" font-family="Arial" font-size="10.00">Circuito:</text>
<text text-anchor="middle" x="567" y="-1027.5" font-family="Arial" font-size="10.00">303&#45;23&#45;</text>
</g>
<!-- C&#45;0126&#45;&gt;ext_circ_303_23_ -->
<g id="edge38" class="edge">
<title>C&#45;0126&#45;&gt;ext_circ_303_23_</title>
<path fill="none" stroke="darkorange" stroke-dasharray="5,2" d="M778,-333.35C778,-397.42 778,-788 778,-788 778,-788 624.5,-788 624.5,-788 624.5,-788 624.5,-1006.97 624.5,-1006.97"/>
<polygon fill="darkorange" stroke="darkorange" points="622.05,-1006.97 624.5,-1013.97 626.95,-1006.97 622.05,-1006.97"/>
</g>
<!-- R&#45;009 -->
<g id="node24" class="node">
<title>R&#45;009</title>
<polygon fill="mediumseagreen" stroke="black" points="403,-315.59 403,-333.41 360.82,-346 301.18,-346 259,-333.41 259,-315.59 301.18,-303 360.82,-303 403,-315.59"/>
<text text-anchor="middle" x="331" y="-322" font-family="Arial" font-size="10.00">R&#45;009</text>
</g>
<!-- C&#45;0531&#45;&gt;R&#45;009 -->
<g id="edge9" class="edge">
<title>C&#45;0531&#45;&gt;R&#45;009</title>
<path fill="none" stroke="#4d4d4d" d="M331,-403.58C331,-403.58 331,-353.03 331,-353.03"/>
<polygon fill="#4d4d4d" stroke="#4d4d4d" points="333.45,-353.03 331,-346.03 328.55,-353.03 333.45,-353.03"/>
</g>
<!-- 303&#45;24&#45; -->
<g id="node19" class="node">
<title>303&#45;24&#45;</title>
<polygon fill="gold" stroke="black" points="981,-1026.59 981,-1044.41 938.82,-1057 879.18,-1057 837,-1044.41 837,-1026.59 879.18,-1014 938.82,-1014 981,-1026.59"/>
<polygon fill="none" stroke="black" points="985,-1023.61 985,-1047.39 939.41,-1061 878.59,-1061 833,-1047.39 833,-1023.61 878.59,-1010 939.41,-1010 985,-1023.61"/>
<text text-anchor="middle" x="909" y="-1033" font-family="Arial" font-size="10.00">303&#45;24&#45;</text>
</g>
<!-- C&#45;0170 -->
<g id="node31" class="node">
<title>C&#45;0170</title>
<ellipse fill="mediumseagreen" stroke="black" cx="909" cy="-930.5" rx="72" ry="21.5"/>
<text text-anchor="middle" x="909" y="-928" font-family="Arial" font-size="10.00">C&#45;0170</text>
</g>
<!-- 303&#45;24&#45;&#45;&gt;C&#45;0170 -->
<g id="edge1" class="edge">
<title>303&#45;24&#45;&#45;&gt;C&#45;0170</title>
<path fill="none" stroke="#4d4d4d" d="M909,-1009.81C909,-1009.81 909,-959.03 909,-959.03"/>
<polygon fill="#4d4d4d" stroke="#4d4d4d" points="911.45,-959.03 909,-952.03 906.55,-959.03 911.45,-959.03"/>
</g>
<!-- S&#45;263&#45;&gt;S&#45;2096 -->
<g id="edge20" class="edge">
<title>S&#45;263&#45;&gt;S&#45;2096</title>
<path fill="none" stroke="#4d4d4d" d="M716,-318.48C716,-318.48 716,-236.61 716,-236.61"/>
<polygon fill="#4d4d4d" stroke="#4d4d4d" points="718.45,-236.61 716,-229.61 713.55,-236.61 718.45,-236.61"/>
</g>
<!-- S&#45;1842 -->
<g id="node26" class="node">
<title>S&#45;1842</title>
<polygon fill="mediumseagreen" stroke="black" points="588,-245 516,-223.5 588,-202 660,-223.5 588,-245"/>
<text text-anchor="middle" x="588" y="-221" font-family="Arial" font-size="10.00">S&#45;1842</text>
</g>
<!-- S&#45;263&#45;&gt;S&#45;1842 -->
<g id="edge21" class="edge">
<title>S&#45;263&#45;&gt;S&#45;1842</title>
<path fill="none" stroke="#4d4d4d" d="M626,-314.07C626,-314.07 626,-240.72 626,-240.72"/>
<polygon fill="#4d4d4d" stroke="#4d4d4d" points="628.45,-240.72 626,-233.72 623.55,-240.72 628.45,-240.72"/>
</g>
<!-- C&#45;0889&#45;&gt;C&#45;0888 -->
<g id="edge40" class="edge">
<title>C&#45;0889&#45;&gt;C&#45;0888</title>
<path fill="none" stroke="blue" stroke-dasharray="5,2" d="M1205.33,-707.58C1205.33,-657.14 1205.33,-533 1205.33,-533 1205.33,-533 1127.04,-533 1127.04,-533"/>
<polygon fill="blue" stroke="blue" points="1127.04,-530.55 1120.04,-533 1127.04,-535.45 1127.04,-530.55"/>
</g>
<!-- S&#45;1715 -->
<g id="node23" class="node">
<title>S&#45;1715</title>
<polygon fill="mediumseagreen" stroke="black" points="673,-548 601,-526.5 673,-505 745,-526.5 673,-548"/>
<text text-anchor="middle" x="673" y="-524" font-family="Arial" font-size="10.00">S&#45;1715</text>
</g>
<!-- C&#45;0529 -->
<g id="node30" class="node">
<title>C&#45;0529</title>
<ellipse fill="mediumseagreen" stroke="black" cx="331" cy="-223.5" rx="72" ry="21.5"/>
<text text-anchor="middle" x="331" y="-221" font-family="Arial" font-size="10.00">C&#45;0529</text>
</g>
<!-- R&#45;009&#45;&gt;C&#45;0529 -->
<g id="edge10" class="edge">
<title>R&#45;009&#45;&gt;C&#45;0529</title>
<path fill="none" stroke="#4d4d4d" d="M331,-302.58C331,-302.58 331,-252.03 331,-252.03"/>
<polygon fill="#4d4d4d" stroke="#4d4d4d" points="333.45,-252.03 331,-245.03 328.55,-252.03 333.45,-252.03"/>
</g>
<!-- S&#45;1626&#45;&gt;R&#45;008 -->
<g id="edge16" class="edge">
<title>S&#45;1626&#45;&gt;R&#45;008</title>
<path fill="none" stroke="#4d4d4d" d="M752.47,-627C770.79,-627 785.5,-627 785.5,-627 785.5,-627 785.5,-543.88 785.5,-543.88"/>
<polygon fill="#4d4d4d" stroke="#4d4d4d" points="787.95,-543.88 785.5,-536.88 783.05,-543.88 787.95,-543.88"/>
</g>
<!-- S&#45;1626&#45;&gt;S&#45;1622 -->
<g id="edge6" class="edge">
<title>S&#45;1626&#45;&gt;S&#45;1622</title>
<path fill="none" stroke="#4d4d4d" d="M611.47,-627C590.98,-627 574,-627 574,-627 574,-627 574,-526 574,-526 574,-526 430.53,-526 430.53,-526"/>
<polygon fill="#4d4d4d" stroke="#4d4d4d" points="430.53,-523.55 423.53,-526 430.53,-528.45 430.53,-523.55"/>
</g>
<!-- S&#45;1626&#45;&gt;S&#45;1715 -->
<g id="edge5" class="edge">
<title>S&#45;1626&#45;&gt;S&#45;1715</title>
<path fill="none" stroke="#4d4d4d" d="M700,-611.27C700,-611.27 700,-547.1 700,-547.1"/>
<polygon fill="#4d4d4d" stroke="#4d4d4d" points="702.45,-547.1 700,-540.1 697.55,-547.1 702.45,-547.1"/>
</g>
<!-- C&#45;0530&#45;&gt;C&#45;0529 -->
<g id="edge36" class="edge">
<title>C&#45;0530&#45;&gt;C&#45;0529</title>
<path fill="none" stroke="blue" stroke-dasharray="5,2" d="M464.67,-408.93C464.67,-360.57 464.67,-223 464.67,-223 464.67,-223 410.31,-223 410.31,-223"/>
<polygon fill="blue" stroke="blue" points="410.31,-220.55 403.31,-223 410.31,-225.45 410.31,-220.55"/>
</g>
<!-- C&#45;0529&#45;&gt;S&#45;945 -->
<g id="edge11" class="edge">
<title>C&#45;0529&#45;&gt;S&#45;945</title>
<path fill="none" stroke="#4d4d4d" d="M331,-201.58C331,-201.58 331,-151.03 331,-151.03"/>
<polygon fill="#4d4d4d" stroke="#4d4d4d" points="333.45,-151.03 331,-144.03 328.55,-151.03 333.45,-151.03"/>
</g>
<!-- C&#45;0170&#45;&gt;C&#45;0486 -->
<g id="edge26" class="edge">
<title>C&#45;0170&#45;&gt;C&#45;0486</title>
<path fill="none" stroke="#4d4d4d" d="M977.5,-923.87C977.5,-923.87 977.5,-843.28 977.5,-843.28"/>
<polygon fill="#4d4d4d" stroke="#4d4d4d" points="979.95,-843.28 977.5,-836.28 975.05,-843.28 979.95,-843.28"/>
</g>
<!-- C&#45;0005 -->
<g id="node35" class="node">
<title>C&#45;0005</title>
<ellipse fill="mediumseagreen" stroke="black" cx="819" cy="-829.5" rx="72" ry="21.5"/>
<text text-anchor="middle" x="819" y="-827" font-family="Arial" font-size="10.00">C&#45;0005</text>
</g>
<!-- C&#45;0170&#45;&gt;C&#45;0005 -->
<g id="edge2" class="edge">
<title>C&#45;0170&#45;&gt;C&#45;0005</title>
<path fill="none" stroke="#4d4d4d" d="M864,-913.37C864,-913.37 864,-853.38 864,-853.38"/>
<polygon fill="#4d4d4d" stroke="#4d4d4d" points="866.45,-853.38 864,-846.38 861.55,-853.38 866.45,-853.38"/>
</g>
<!-- S&#45;950 -->
<g id="node32" class="node">
<title>S&#45;950</title>
<polygon fill="mediumseagreen" stroke="black" points="493,-750 421,-728.5 493,-707 565,-728.5 493,-750"/>
<text text-anchor="middle" x="493" y="-726" font-family="Arial" font-size="10.00">S&#45;950</text>
</g>
<!-- S&#45;950&#45;&gt;S&#45;1719 -->
<g id="edge25" class="edge">
<title>S&#45;950&#45;&gt;S&#45;1719</title>
<path fill="none" stroke="#4d4d4d" d="M460.5,-716.52C460.5,-716.52 460.5,-646.47 460.5,-646.47"/>
<polygon fill="#4d4d4d" stroke="#4d4d4d" points="462.95,-646.47 460.5,-639.47 458.05,-646.47 462.95,-646.47"/>
</g>
<!-- ext_circ_303_27_ -->
<g id="node38" class="node">
<title>ext_circ_303_27_</title>
<polygon fill="lightpink" stroke="darkorange" stroke-dasharray="5,2" points="144,-1057 0,-1057 0,-1014 144,-1014 144,-1057"/>
<text text-anchor="middle" x="72" y="-1038.5" font-family="Arial" font-size="10.00">Circuito:</text>
<text text-anchor="middle" x="72" y="-1027.5" font-family="Arial" font-size="10.00">303&#45;27&#45;</text>
</g>
<!-- C&#45;0040&#45;&gt;ext_circ_303_27_ -->
<g id="edge41" class="edge">
<title>C&#45;0040&#45;&gt;ext_circ_303_27_</title>
<path fill="none" stroke="darkorange" stroke-dasharray="5,2" d="M1146.67,-337.68C1146.67,-374.54 1146.67,-476 1146.67,-476 1146.67,-476 111.5,-476 111.5,-476 111.5,-476 111.5,-1006.91 111.5,-1006.91"/>
<polygon fill="darkorange" stroke="darkorange" points="109.05,-1006.91 111.5,-1013.91 113.95,-1006.91 109.05,-1006.91"/>
</g>
<!-- C&#45;0890&#45;&gt;R&#45;206 -->
<g id="edge29" class="edge">
<title>C&#45;0890&#45;&gt;R&#45;206</title>
<path fill="none" stroke="#4d4d4d" d="M1047,-706.58C1047,-706.58 1047,-656.03 1047,-656.03"/>
<polygon fill="#4d4d4d" stroke="#4d4d4d" points="1049.45,-656.03 1047,-649.03 1044.55,-656.03 1049.45,-656.03"/>
</g>
<!-- C&#45;0005&#45;&gt;S&#45;1448 -->
<g id="edge23" class="edge">
<title>C&#45;0005&#45;&gt;S&#45;1448</title>
<path fill="none" stroke="#4d4d4d" d="M840.5,-808.57C840.5,-808.57 840.5,-750.81 840.5,-750.81"/>
<polygon fill="#4d4d4d" stroke="#4d4d4d" points="842.95,-750.81 840.5,-743.81 838.05,-750.81 842.95,-750.81"/>
</g>
<!-- C&#45;0005&#45;&gt;S&#45;944 -->
<g id="edge3" class="edge">
<title>C&#45;0005&#45;&gt;S&#45;944</title>
<path fill="none" stroke="#4d4d4d" d="M750.5,-822.87C750.5,-822.87 750.5,-736.76 750.5,-736.76"/>
<polygon fill="#4d4d4d" stroke="#4d4d4d" points="752.95,-736.76 750.5,-729.76 748.05,-736.76 752.95,-736.76"/>
</g>
<!-- C&#45;0005&#45;&gt;S&#45;950 -->
<g id="edge24" class="edge">
<title>C&#45;0005&#45;&gt;S&#45;950</title>
<path fill="none" stroke="#4d4d4d" d="M746.82,-829C661.22,-829 530,-829 530,-829 530,-829 530,-746.26 530,-746.26"/>
<polygon fill="#4d4d4d" stroke="#4d4d4d" points="532.45,-746.26 530,-739.26 527.55,-746.26 532.45,-746.26"/>
</g>
<!-- R&#45;286&#45;&gt;ext_circ_303_27_ -->
<g id="edge42" class="edge">
<title>R&#45;286&#45;&gt;ext_circ_303_27_</title>
<path fill="none" stroke="darkorange" stroke-dasharray="5,2" d="M1000,-245.21C1000,-258.9 1000,-274 1000,-274 1000,-274 39.5,-274 39.5,-274 39.5,-274 39.5,-1006.94 39.5,-1006.94"/>
<polygon fill="darkorange" stroke="darkorange" points="37.05,-1006.94 39.5,-1013.94 41.95,-1006.94 37.05,-1006.94"/>
</g>
</g>
</svg>
