<?xml version="1.0" encoding="UTF-8" standalone="no"?>
<!DOCTYPE svg PUBLIC "-//W3C//DTD SVG 1.1//EN"
 "http://www.w3.org/Graphics/SVG/1.1/DTD/svg11.dtd">
<!-- Generated by graphviz version 2.50.0 (0)
 -->
<!-- Title: Grafo_Circuito_109_28_ Pages: 1 -->
<svg width="1467pt" height="1776pt"
 viewBox="0.00 0.00 1467.00 1776.00" xmlns="http://www.w3.org/2000/svg" xmlns:xlink="http://www.w3.org/1999/xlink">
<g id="graph0" class="graph" transform="scale(1 1) rotate(0) translate(4 1772)">
<title>Grafo_Circuito_109_28_</title>
<polygon fill="white" stroke="transparent" points="-4,4 -4,-1772 1463,-1772 1463,4 -4,4"/>
<!-- C&#45;1150 -->
<g id="node1" class="node">
<title>C&#45;1150</title>
<ellipse fill="mediumseagreen" stroke="black" cx="392" cy="-829.5" rx="72" ry="21.5"/>
<text text-anchor="middle" x="392" y="-827" font-family="Arial" font-size="10.00">C&#45;1150</text>
</g>
<!-- S&#45;274 -->
<g id="node8" class="node">
<title>S&#45;274</title>
<polygon fill="mediumseagreen" stroke="black" points="302,-750 230,-728.5 302,-707 374,-728.5 302,-750"/>
<text text-anchor="middle" x="302" y="-726" font-family="Arial" font-size="10.00">S&#45;274</text>
</g>
<!-- C&#45;1150&#45;&gt;S&#45;274 -->
<g id="edge42" class="edge">
<title>C&#45;1150&#45;&gt;S&#45;274</title>
<path fill="none" stroke="#4d4d4d" d="M347,-812.37C347,-812.37 347,-743.78 347,-743.78"/>
<polygon fill="#4d4d4d" stroke="#4d4d4d" points="349.45,-743.78 347,-736.78 344.55,-743.78 349.45,-743.78"/>
</g>
<!-- C&#45;0694 -->
<g id="node16" class="node">
<title>C&#45;0694</title>
<ellipse fill="mediumseagreen" stroke="black" cx="635" cy="-728.5" rx="72" ry="21.5"/>
<text text-anchor="middle" x="635" y="-726" font-family="Arial" font-size="10.00">C&#45;0694</text>
</g>
<!-- C&#45;1150&#45;&gt;C&#45;0694 -->
<g id="edge22" class="edge">
<title>C&#45;1150&#45;&gt;C&#45;0694</title>
<path fill="none" stroke="#4d4d4d" d="M450.5,-816.64C450.5,-789.33 450.5,-728 450.5,-728 450.5,-728 555.87,-728 555.87,-728"/>
<polygon fill="#4d4d4d" stroke="#4d4d4d" points="555.87,-730.45 562.87,-728 555.87,-725.55 555.87,-730.45"/>
</g>
<!-- C&#45;0956 -->
<g id="node2" class="node">
<title>C&#45;0956</title>
<ellipse fill="mediumseagreen" stroke="black" cx="905" cy="-223.5" rx="72" ry="21.5"/>
<text text-anchor="middle" x="905" y="-221" font-family="Arial" font-size="10.00">C&#45;0956</text>
</g>
<!-- R&#45;225 -->
<g id="node38" class="node">
<title>R&#45;225</title>
<polygon fill="tomato" stroke="black" points="963,-113.59 963,-131.41 920.82,-144 861.18,-144 819,-131.41 819,-113.59 861.18,-101 920.82,-101 963,-113.59"/>
<text text-anchor="middle" x="891" y="-120" font-family="Arial" font-size="10.00">R&#45;225</text>
</g>
<!-- C&#45;0956&#45;&gt;R&#45;225 -->
<g id="edge36" class="edge">
<title>C&#45;0956&#45;&gt;R&#45;225</title>
<path fill="none" stroke="#4d4d4d" d="M898,-202.08C898,-202.08 898,-151.24 898,-151.24"/>
<polygon fill="#4d4d4d" stroke="#4d4d4d" points="900.45,-151.24 898,-144.24 895.55,-151.24 900.45,-151.24"/>
</g>
<!-- R&#45;118 -->
<g id="node3" class="node">
<title>R&#45;118</title>
<polygon fill="mediumseagreen" stroke="black" points="617,-517.59 617,-535.41 574.82,-548 515.18,-548 473,-535.41 473,-517.59 515.18,-505 574.82,-505 617,-517.59"/>
<text text-anchor="middle" x="545" y="-524" font-family="Arial" font-size="10.00">R&#45;118</text>
</g>
<!-- C&#45;0619 -->
<g id="node36" class="node">
<title>C&#45;0619</title>
<ellipse fill="mediumseagreen" stroke="black" cx="545" cy="-425.5" rx="72" ry="21.5"/>
<text text-anchor="middle" x="545" y="-423" font-family="Arial" font-size="10.00">C&#45;0619</text>
</g>
<!-- R&#45;118&#45;&gt;C&#45;0619 -->
<g id="edge29" class="edge">
<title>R&#45;118&#45;&gt;C&#45;0619</title>
<path fill="none" stroke="#4d4d4d" d="M545,-504.58C545,-504.58 545,-454.03 545,-454.03"/>
<polygon fill="#4d4d4d" stroke="#4d4d4d" points="547.45,-454.03 545,-447.03 542.55,-454.03 547.45,-454.03"/>
</g>
<!-- C&#45;0247 -->
<g id="node4" class="node">
<title>C&#45;0247</title>
<ellipse fill="tomato" stroke="black" cx="244" cy="-1132.5" rx="72" ry="21.5"/>
<text text-anchor="middle" x="244" y="-1130" font-family="Arial" font-size="10.00">C&#45;0247</text>
</g>
<!-- ext_circ_109_23_ -->
<g id="node54" class="node">
<title>ext_circ_109_23_</title>
<polygon fill="lightpink" stroke="darkorange" stroke-dasharray="5,2" points="252,-1053 108,-1053 108,-1010 252,-1010 252,-1053"/>
<text text-anchor="middle" x="180" y="-1034.5" font-family="Arial" font-size="10.00">Circuito:</text>
<text text-anchor="middle" x="180" y="-1023.5" font-family="Arial" font-size="10.00">109&#45;23&#45;</text>
</g>
<!-- C&#45;0247&#45;&gt;ext_circ_109_23_ -->
<g id="edge54" class="edge">
<title>C&#45;0247&#45;&gt;ext_circ_109_23_</title>
<path fill="none" stroke="darkorange" stroke-dasharray="5,2" d="M212,-1113.03C212,-1113.03 212,-1060.01 212,-1060.01"/>
<polygon fill="darkorange" stroke="darkorange" points="214.45,-1060.01 212,-1053.01 209.55,-1060.01 214.45,-1060.01"/>
</g>
<!-- C&#45;0154 -->
<g id="node5" class="node">
<title>C&#45;0154</title>
<ellipse fill="mediumseagreen" stroke="black" cx="424" cy="-1132.5" rx="72" ry="21.5"/>
<text text-anchor="middle" x="424" y="-1130" font-family="Arial" font-size="10.00">C&#45;0154</text>
</g>
<!-- C&#45;0453 -->
<g id="node23" class="node">
<title>C&#45;0453</title>
<ellipse fill="tomato" stroke="black" cx="572" cy="-1031.5" rx="72" ry="21.5"/>
<text text-anchor="middle" x="572" y="-1029" font-family="Arial" font-size="10.00">C&#45;0453</text>
</g>
<!-- C&#45;0154&#45;&gt;C&#45;0453 -->
<g id="edge18" class="edge">
<title>C&#45;0154&#45;&gt;C&#45;0453</title>
<path fill="none" stroke="#4d4d4d" d="M484.5,-1120.46C484.5,-1093.57 484.5,-1031 484.5,-1031 484.5,-1031 492.74,-1031 492.74,-1031"/>
<polygon fill="#4d4d4d" stroke="#4d4d4d" points="492.74,-1033.45 499.74,-1031 492.74,-1028.55 492.74,-1033.45"/>
</g>
<!-- C&#45;1149 -->
<g id="node52" class="node">
<title>C&#45;1149</title>
<ellipse fill="mediumseagreen" stroke="black" cx="392" cy="-1031.5" rx="72" ry="21.5"/>
<text text-anchor="middle" x="392" y="-1029" font-family="Arial" font-size="10.00">C&#45;1149</text>
</g>
<!-- C&#45;0154&#45;&gt;C&#45;1149 -->
<g id="edge19" class="edge">
<title>C&#45;0154&#45;&gt;C&#45;1149</title>
<path fill="none" stroke="#4d4d4d" d="M408,-1111.08C408,-1111.08 408,-1059.54 408,-1059.54"/>
<polygon fill="#4d4d4d" stroke="#4d4d4d" points="410.45,-1059.54 408,-1052.54 405.55,-1059.54 410.45,-1059.54"/>
</g>
<!-- C&#45;1113 -->
<g id="node6" class="node">
<title>C&#45;1113</title>
<ellipse fill="mediumseagreen" stroke="black" cx="424" cy="-1233.5" rx="72" ry="21.5"/>
<text text-anchor="middle" x="424" y="-1231" font-family="Arial" font-size="10.00">C&#45;1113</text>
</g>
<!-- C&#45;1113&#45;&gt;C&#45;0154 -->
<g id="edge17" class="edge">
<title>C&#45;1113&#45;&gt;C&#45;0154</title>
<path fill="none" stroke="#4d4d4d" d="M424,-1211.58C424,-1211.58 424,-1161.03 424,-1161.03"/>
<polygon fill="#4d4d4d" stroke="#4d4d4d" points="426.45,-1161.03 424,-1154.03 421.55,-1161.03 426.45,-1161.03"/>
</g>
<!-- S&#45;2480 -->
<g id="node7" class="node">
<title>S&#45;2480</title>
<polygon fill="mediumseagreen" stroke="black" points="964,-1255 892,-1233.5 964,-1212 1036,-1233.5 964,-1255"/>
<text text-anchor="middle" x="964" y="-1231" font-family="Arial" font-size="10.00">S&#45;2480</text>
</g>
<!-- S&#45;2489 -->
<g id="node30" class="node">
<title>S&#45;2489</title>
<polygon fill="mediumseagreen" stroke="black" points="964,-1154 892,-1132.5 964,-1111 1036,-1132.5 964,-1154"/>
<text text-anchor="middle" x="964" y="-1130" font-family="Arial" font-size="10.00">S&#45;2489</text>
</g>
<!-- S&#45;2480&#45;&gt;S&#45;2489 -->
<g id="edge12" class="edge">
<title>S&#45;2480&#45;&gt;S&#45;2489</title>
<path fill="none" stroke="#4d4d4d" d="M964,-1211.58C964,-1211.58 964,-1161.03 964,-1161.03"/>
<polygon fill="#4d4d4d" stroke="#4d4d4d" points="966.45,-1161.03 964,-1154.03 961.55,-1161.03 966.45,-1161.03"/>
</g>
<!-- C&#45;1218 -->
<g id="node9" class="node">
<title>C&#45;1218</title>
<ellipse fill="mediumseagreen" stroke="black" cx="98" cy="-627.5" rx="72" ry="21.5"/>
<text text-anchor="middle" x="98" y="-625" font-family="Arial" font-size="10.00">C&#45;1218</text>
</g>
<!-- S&#45;274&#45;&gt;C&#45;1218 -->
<g id="edge45" class="edge">
<title>S&#45;274&#45;&gt;C&#45;1218</title>
<path fill="none" stroke="#4d4d4d" d="M231.45,-728C187.4,-728 139,-728 139,-728 139,-728 139,-652.47 139,-652.47"/>
<polygon fill="#4d4d4d" stroke="#4d4d4d" points="141.45,-652.47 139,-645.47 136.55,-652.47 141.45,-652.47"/>
</g>
<!-- S&#45;1716 -->
<g id="node43" class="node">
<title>S&#45;1716</title>
<polygon fill="mediumseagreen" stroke="black" points="365,-649 293,-627.5 365,-606 437,-627.5 365,-649"/>
<text text-anchor="middle" x="365" y="-625" font-family="Arial" font-size="10.00">S&#45;1716</text>
</g>
<!-- S&#45;274&#45;&gt;S&#45;1716 -->
<g id="edge43" class="edge">
<title>S&#45;274&#45;&gt;S&#45;1716</title>
<path fill="none" stroke="#4d4d4d" d="M333.5,-716.12C333.5,-716.12 333.5,-646.67 333.5,-646.67"/>
<polygon fill="#4d4d4d" stroke="#4d4d4d" points="335.95,-646.67 333.5,-639.67 331.05,-646.67 335.95,-646.67"/>
</g>
<!-- C&#45;1220 -->
<g id="node50" class="node">
<title>C&#45;1220</title>
<ellipse fill="tomato" stroke="black" cx="252" cy="-526.5" rx="72" ry="21.5"/>
<text text-anchor="middle" x="252" y="-524" font-family="Arial" font-size="10.00">C&#45;1220</text>
</g>
<!-- S&#45;274&#45;&gt;C&#45;1220 -->
<g id="edge44" class="edge">
<title>S&#45;274&#45;&gt;C&#45;1220</title>
<path fill="none" stroke="#4d4d4d" d="M261.5,-719.03C261.5,-719.03 261.5,-554.9 261.5,-554.9"/>
<polygon fill="#4d4d4d" stroke="#4d4d4d" points="263.95,-554.9 261.5,-547.9 259.05,-554.9 263.95,-554.9"/>
</g>
<!-- R&#45;301 -->
<g id="node14" class="node">
<title>R&#45;301</title>
<polygon fill="tomato" stroke="black" points="144,-517.59 144,-535.41 101.82,-548 42.18,-548 0,-535.41 0,-517.59 42.18,-505 101.82,-505 144,-517.59"/>
<text text-anchor="middle" x="72" y="-524" font-family="Arial" font-size="10.00">R&#45;301</text>
</g>
<!-- C&#45;1218&#45;&gt;R&#45;301 -->
<g id="edge46" class="edge">
<title>C&#45;1218&#45;&gt;R&#45;301</title>
<path fill="none" stroke="#4d4d4d" d="M85,-606.08C85,-606.08 85,-555.24 85,-555.24"/>
<polygon fill="#4d4d4d" stroke="#4d4d4d" points="87.45,-555.24 85,-548.24 82.55,-555.24 87.45,-555.24"/>
</g>
<!-- S&#45;229 -->
<g id="node10" class="node">
<title>S&#45;229</title>
<polygon fill="mediumseagreen" stroke="black" points="852,-548 780,-526.5 852,-505 924,-526.5 852,-548"/>
<text text-anchor="middle" x="852" y="-524" font-family="Arial" font-size="10.00">S&#45;229</text>
</g>
<!-- SW&#45;002_B -->
<g id="node11" class="node">
<title>SW&#45;002_B</title>
<polygon fill="tomato" stroke="black" points="1339.79,-1356 1220.81,-1356 1190.21,-1313 1309.19,-1313 1339.79,-1356"/>
<text text-anchor="middle" x="1265" y="-1332" font-family="Arial" font-size="10.00">SW&#45;002_B</text>
</g>
<!-- ext_circ_109_24_ -->
<g id="node53" class="node">
<title>ext_circ_109_24_</title>
<polygon fill="lightpink" stroke="darkorange" stroke-dasharray="5,2" points="1284,-1154 1140,-1154 1140,-1111 1284,-1111 1284,-1154"/>
<text text-anchor="middle" x="1212" y="-1135.5" font-family="Arial" font-size="10.00">Circuito:</text>
<text text-anchor="middle" x="1212" y="-1124.5" font-family="Arial" font-size="10.00">109&#45;24&#45;</text>
</g>
<!-- SW&#45;002_B&#45;&gt;ext_circ_109_24_ -->
<g id="edge52" class="edge">
<title>SW&#45;002_B&#45;&gt;ext_circ_109_24_</title>
<path fill="none" stroke="darkorange" stroke-dasharray="5,2" d="M1252.82,-1312.88C1252.82,-1312.88 1252.82,-1161.27 1252.82,-1161.27"/>
<polygon fill="darkorange" stroke="darkorange" points="1255.27,-1161.27 1252.82,-1154.27 1250.37,-1161.27 1255.27,-1161.27"/>
</g>
<!-- SW&#45;002_D -->
<g id="node12" class="node">
<title>SW&#45;002_D</title>
<polygon fill="mediumseagreen" stroke="black" points="918.79,-1659 799.81,-1659 769.21,-1616 888.19,-1616 918.79,-1659"/>
<text text-anchor="middle" x="844" y="-1635" font-family="Arial" font-size="10.00">SW&#45;002_D</text>
</g>
<!-- SW&#45;002_D&#45;&gt;SW&#45;002_B -->
<g id="edge4" class="edge">
<title>SW&#45;002_D&#45;&gt;SW&#45;002_B</title>
<path fill="none" stroke="#4d4d4d" d="M868.88,-1615.79C868.88,-1602.1 868.88,-1587 868.88,-1587 868.88,-1587 1234.68,-1587 1234.68,-1587 1234.68,-1587 1234.68,-1363.03 1234.68,-1363.03"/>
<polygon fill="#4d4d4d" stroke="#4d4d4d" points="1237.13,-1363.03 1234.68,-1356.03 1232.23,-1363.03 1237.13,-1363.03"/>
</g>
<!-- SW&#45;002_A -->
<g id="node19" class="node">
<title>SW&#45;002_A</title>
<polygon fill="tomato" stroke="black" points="491.79,-1558 372.81,-1558 342.21,-1515 461.19,-1515 491.79,-1558"/>
<text text-anchor="middle" x="417" y="-1534" font-family="Arial" font-size="10.00">SW&#45;002_A</text>
</g>
<!-- SW&#45;002_D&#45;&gt;SW&#45;002_A -->
<g id="edge6" class="edge">
<title>SW&#45;002_D&#45;&gt;SW&#45;002_A</title>
<path fill="none" stroke="#4d4d4d" d="M783.73,-1637C666.02,-1637 417,-1637 417,-1637 417,-1637 417,-1565.31 417,-1565.31"/>
<polygon fill="#4d4d4d" stroke="#4d4d4d" points="419.45,-1565.31 417,-1558.31 414.55,-1565.31 419.45,-1565.31"/>
</g>
<!-- SW&#45;002_C -->
<g id="node33" class="node">
<title>SW&#45;002_C</title>
<polygon fill="mediumseagreen" stroke="black" points="918.79,-1558 799.81,-1558 769.21,-1515 888.19,-1515 918.79,-1558"/>
<text text-anchor="middle" x="844" y="-1534" font-family="Arial" font-size="10.00">SW&#45;002_C</text>
</g>
<!-- SW&#45;002_D&#45;&gt;SW&#45;002_C -->
<g id="edge5" class="edge">
<title>SW&#45;002_D&#45;&gt;SW&#45;002_C</title>
<path fill="none" stroke="#4d4d4d" d="M819.12,-1615.58C819.12,-1615.58 819.12,-1565.03 819.12,-1565.03"/>
<polygon fill="#4d4d4d" stroke="#4d4d4d" points="821.57,-1565.03 819.12,-1558.03 816.67,-1565.03 821.57,-1565.03"/>
</g>
<!-- S&#45;197 -->
<g id="node13" class="node">
<title>S&#45;197</title>
<polygon fill="mediumseagreen" stroke="black" points="365,-245 293,-223.5 365,-202 437,-223.5 365,-245"/>
<text text-anchor="middle" x="365" y="-221" font-family="Arial" font-size="10.00">S&#45;197</text>
</g>
<!-- ext_circ_110_26_ -->
<g id="node57" class="node">
<title>ext_circ_110_26_</title>
<polygon fill="lightpink" stroke="darkorange" stroke-dasharray="5,2" points="234,-447 90,-447 90,-404 234,-404 234,-447"/>
<text text-anchor="middle" x="162" y="-428.5" font-family="Arial" font-size="10.00">Circuito:</text>
<text text-anchor="middle" x="162" y="-417.5" font-family="Arial" font-size="10.00">110&#45;26&#45;</text>
</g>
<!-- R&#45;301&#45;&gt;ext_circ_110_26_ -->
<g id="edge62" class="edge">
<title>R&#45;301&#45;&gt;ext_circ_110_26_</title>
<path fill="none" stroke="darkorange" stroke-dasharray="5,2" d="M117,-509.37C117,-509.37 117,-454.31 117,-454.31"/>
<polygon fill="darkorange" stroke="darkorange" points="119.45,-454.31 117,-447.31 114.55,-454.31 119.45,-454.31"/>
</g>
<!-- C&#45;0041 -->
<g id="node15" class="node">
<title>C&#45;0041</title>
<ellipse fill="tomato" stroke="black" cx="1071" cy="-122.5" rx="72" ry="21.5"/>
<text text-anchor="middle" x="1071" y="-120" font-family="Arial" font-size="10.00">C&#45;0041</text>
</g>
<!-- ext_circ_114_24_ -->
<g id="node55" class="node">
<title>ext_circ_114_24_</title>
<polygon fill="lightpink" stroke="darkorange" stroke-dasharray="5,2" points="1053,-43 909,-43 909,0 1053,0 1053,-43"/>
<text text-anchor="middle" x="981" y="-24.5" font-family="Arial" font-size="10.00">Circuito:</text>
<text text-anchor="middle" x="981" y="-13.5" font-family="Arial" font-size="10.00">114&#45;24&#45;</text>
</g>
<!-- C&#45;0041&#45;&gt;ext_circ_114_24_ -->
<g id="edge57" class="edge">
<title>C&#45;0041&#45;&gt;ext_circ_114_24_</title>
<path fill="none" stroke="darkorange" stroke-dasharray="5,2" d="M1026,-105.37C1026,-105.37 1026,-50.31 1026,-50.31"/>
<polygon fill="darkorange" stroke="darkorange" points="1028.45,-50.31 1026,-43.31 1023.55,-50.31 1028.45,-50.31"/>
</g>
<!-- C&#45;0620 -->
<g id="node34" class="node">
<title>C&#45;0620</title>
<ellipse fill="mediumseagreen" stroke="black" cx="545" cy="-627.5" rx="72" ry="21.5"/>
<text text-anchor="middle" x="545" y="-625" font-family="Arial" font-size="10.00">C&#45;0620</text>
</g>
<!-- C&#45;0694&#45;&gt;C&#45;0620 -->
<g id="edge27" class="edge">
<title>C&#45;0694&#45;&gt;C&#45;0620</title>
<path fill="none" stroke="#4d4d4d" d="M590,-711.37C590,-711.37 590,-651.38 590,-651.38"/>
<polygon fill="#4d4d4d" stroke="#4d4d4d" points="592.45,-651.38 590,-644.38 587.55,-651.38 592.45,-651.38"/>
</g>
<!-- C&#45;0618 -->
<g id="node41" class="node">
<title>C&#45;0618</title>
<ellipse fill="tomato" stroke="black" cx="725" cy="-627.5" rx="72" ry="21.5"/>
<text text-anchor="middle" x="725" y="-625" font-family="Arial" font-size="10.00">C&#45;0618</text>
</g>
<!-- C&#45;0694&#45;&gt;C&#45;0618 -->
<g id="edge26" class="edge">
<title>C&#45;0694&#45;&gt;C&#45;0618</title>
<path fill="none" stroke="#4d4d4d" d="M680,-711.37C680,-711.37 680,-651.38 680,-651.38"/>
<polygon fill="#4d4d4d" stroke="#4d4d4d" points="682.45,-651.38 680,-644.38 677.55,-651.38 682.45,-651.38"/>
</g>
<!-- S&#45;228 -->
<g id="node42" class="node">
<title>S&#45;228</title>
<polygon fill="mediumseagreen" stroke="black" points="905,-649 833,-627.5 905,-606 977,-627.5 905,-649"/>
<text text-anchor="middle" x="905" y="-625" font-family="Arial" font-size="10.00">S&#45;228</text>
</g>
<!-- C&#45;0694&#45;&gt;S&#45;228 -->
<g id="edge23" class="edge">
<title>C&#45;0694&#45;&gt;S&#45;228</title>
<path fill="none" stroke="#4d4d4d" d="M707.1,-728C767.7,-728 844.5,-728 844.5,-728 844.5,-728 844.5,-638.32 844.5,-638.32"/>
<polygon fill="#4d4d4d" stroke="#4d4d4d" points="846.95,-638.32 844.5,-631.32 842.05,-638.32 846.95,-638.32"/>
</g>
<!-- R&#45;177 -->
<g id="node17" class="node">
<title>R&#45;177</title>
<polygon fill="tomato" stroke="black" points="257,-214.59 257,-232.41 214.82,-245 155.18,-245 113,-232.41 113,-214.59 155.18,-202 214.82,-202 257,-214.59"/>
<text text-anchor="middle" x="185" y="-221" font-family="Arial" font-size="10.00">R&#45;177</text>
</g>
<!-- ext_circ_111_23_ -->
<g id="node56" class="node">
<title>ext_circ_111_23_</title>
<polygon fill="lightpink" stroke="darkorange" stroke-dasharray="5,2" points="194,-144 50,-144 50,-101 194,-101 194,-144"/>
<text text-anchor="middle" x="122" y="-125.5" font-family="Arial" font-size="10.00">Circuito:</text>
<text text-anchor="middle" x="122" y="-114.5" font-family="Arial" font-size="10.00">111&#45;23&#45;</text>
</g>
<!-- R&#45;177&#45;&gt;ext_circ_111_23_ -->
<g id="edge60" class="edge">
<title>R&#45;177&#45;&gt;ext_circ_111_23_</title>
<path fill="none" stroke="darkorange" stroke-dasharray="5,2" d="M153.5,-202.08C153.5,-202.08 153.5,-151.24 153.5,-151.24"/>
<polygon fill="darkorange" stroke="darkorange" points="155.95,-151.24 153.5,-144.24 151.05,-151.24 155.95,-151.24"/>
</g>
<!-- S&#45;2519 -->
<g id="node18" class="node">
<title>S&#45;2519</title>
<polygon fill="mediumseagreen" stroke="black" points="1027,-1659 955,-1637.5 1027,-1616 1099,-1637.5 1027,-1659"/>
<text text-anchor="middle" x="1027" y="-1635" font-family="Arial" font-size="10.00">S&#45;2519</text>
</g>
<!-- SW&#45;002_A&#45;&gt;ext_circ_109_23_ -->
<g id="edge53" class="edge">
<title>SW&#45;002_A&#45;&gt;ext_circ_109_23_</title>
<path fill="none" stroke="darkorange" stroke-dasharray="5,2" d="M356.9,-1536C275.43,-1536 140,-1536 140,-1536 140,-1536 140,-1060.18 140,-1060.18"/>
<polygon fill="darkorange" stroke="darkorange" points="142.45,-1060.18 140,-1053.18 137.55,-1060.18 142.45,-1060.18"/>
</g>
<!-- S&#45;2482 -->
<g id="node20" class="node">
<title>S&#45;2482</title>
<polygon fill="mediumseagreen" stroke="black" points="784,-1255 712,-1233.5 784,-1212 856,-1233.5 784,-1255"/>
<text text-anchor="middle" x="784" y="-1231" font-family="Arial" font-size="10.00">S&#45;2482</text>
</g>
<!-- S&#45;2488 -->
<g id="node21" class="node">
<title>S&#45;2488</title>
<polygon fill="mediumseagreen" stroke="black" points="1024,-1457 952,-1435.5 1024,-1414 1096,-1435.5 1024,-1457"/>
<text text-anchor="middle" x="1024" y="-1433" font-family="Arial" font-size="10.00">S&#45;2488</text>
</g>
<!-- C&#45;1167 -->
<g id="node22" class="node">
<title>C&#45;1167</title>
<ellipse fill="mediumseagreen" stroke="black" cx="244" cy="-1233.5" rx="72" ry="21.5"/>
<text text-anchor="middle" x="244" y="-1231" font-family="Arial" font-size="10.00">C&#45;1167</text>
</g>
<!-- C&#45;1167&#45;&gt;C&#45;0247 -->
<g id="edge15" class="edge">
<title>C&#45;1167&#45;&gt;C&#45;0247</title>
<path fill="none" stroke="#4d4d4d" d="M244,-1211.58C244,-1211.58 244,-1161.03 244,-1161.03"/>
<polygon fill="#4d4d4d" stroke="#4d4d4d" points="246.45,-1161.03 244,-1154.03 241.55,-1161.03 246.45,-1161.03"/>
</g>
<!-- C&#45;0453&#45;&gt;C&#45;1150 -->
<g id="edge55" class="edge">
<title>C&#45;0453&#45;&gt;C&#45;1150</title>
<path fill="none" stroke="blue" stroke-dasharray="5,2" d="M531.5,-1013.53C531.5,-963.97 531.5,-829 531.5,-829 531.5,-829 471.2,-829 471.2,-829"/>
<polygon fill="blue" stroke="blue" points="471.2,-826.55 464.2,-829 471.2,-831.45 471.2,-826.55"/>
</g>
<!-- S&#45;2521 -->
<g id="node24" class="node">
<title>S&#45;2521</title>
<polygon fill="mediumseagreen" stroke="black" points="1207,-1659 1135,-1637.5 1207,-1616 1279,-1637.5 1207,-1659"/>
<text text-anchor="middle" x="1207" y="-1635" font-family="Arial" font-size="10.00">S&#45;2521</text>
</g>
<!-- C&#45;0798 -->
<g id="node25" class="node">
<title>C&#45;0798</title>
<ellipse fill="tomato" stroke="black" cx="90" cy="-324.5" rx="72" ry="21.5"/>
<text text-anchor="middle" x="90" y="-322" font-family="Arial" font-size="10.00">C&#45;0798</text>
</g>
<!-- C&#45;0798&#45;&gt;ext_circ_111_23_ -->
<g id="edge59" class="edge">
<title>C&#45;0798&#45;&gt;ext_circ_111_23_</title>
<path fill="none" stroke="darkorange" stroke-dasharray="5,2" d="M81.5,-302.88C81.5,-302.88 81.5,-151.27 81.5,-151.27"/>
<polygon fill="darkorange" stroke="darkorange" points="83.95,-151.27 81.5,-144.27 79.05,-151.27 83.95,-151.27"/>
</g>
<!-- S&#45;196 -->
<g id="node26" class="node">
<title>S&#45;196</title>
<polygon fill="mediumseagreen" stroke="black" points="545,-245 473,-223.5 545,-202 617,-223.5 545,-245"/>
<text text-anchor="middle" x="545" y="-221" font-family="Arial" font-size="10.00">S&#45;196</text>
</g>
<!-- SW&#45;003_A -->
<g id="node27" class="node">
<title>SW&#45;003_A</title>
<polygon fill="tomato" stroke="black" points="1221.79,-1255 1102.81,-1255 1072.21,-1212 1191.19,-1212 1221.79,-1255"/>
<text text-anchor="middle" x="1147" y="-1231" font-family="Arial" font-size="10.00">SW&#45;003_A</text>
</g>
<!-- SW&#45;003_A&#45;&gt;ext_circ_109_24_ -->
<g id="edge63" class="edge">
<title>SW&#45;003_A&#45;&gt;ext_circ_109_24_</title>
<path fill="none" stroke="darkorange" stroke-dasharray="5,2" d="M1180.82,-1211.58C1180.82,-1211.58 1180.82,-1161.03 1180.82,-1161.03"/>
<polygon fill="darkorange" stroke="darkorange" points="1183.27,-1161.03 1180.82,-1154.03 1178.37,-1161.03 1183.27,-1161.03"/>
</g>
<!-- S&#45;2562 -->
<g id="node28" class="node">
<title>S&#45;2562</title>
<polygon fill="mediumseagreen" stroke="black" points="1387,-1659 1315,-1637.5 1387,-1616 1459,-1637.5 1387,-1659"/>
<text text-anchor="middle" x="1387" y="-1635" font-family="Arial" font-size="10.00">S&#45;2562</text>
</g>
<!-- S&#45;1087 -->
<g id="node29" class="node">
<title>S&#45;1087</title>
<polygon fill="mediumseagreen" stroke="black" points="545,-346 473,-324.5 545,-303 617,-324.5 545,-346"/>
<text text-anchor="middle" x="545" y="-322" font-family="Arial" font-size="10.00">S&#45;1087</text>
</g>
<!-- S&#45;1087&#45;&gt;C&#45;0956 -->
<g id="edge35" class="edge">
<title>S&#45;1087&#45;&gt;C&#45;0956</title>
<path fill="none" stroke="#4d4d4d" d="M545,-303C545,-285.61 545,-264 545,-264 545,-264 905,-264 905,-264 905,-264 905,-252.17 905,-252.17"/>
<polygon fill="#4d4d4d" stroke="#4d4d4d" points="907.45,-252.17 905,-245.17 902.55,-252.17 907.45,-252.17"/>
</g>
<!-- S&#45;1087&#45;&gt;S&#45;197 -->
<g id="edge37" class="edge">
<title>S&#45;1087&#45;&gt;S&#45;197</title>
<path fill="none" stroke="#4d4d4d" d="M474.67,-324C446.68,-324 421,-324 421,-324 421,-324 421,-235.35 421,-235.35"/>
<polygon fill="#4d4d4d" stroke="#4d4d4d" points="423.45,-235.35 421,-228.35 418.55,-235.35 423.45,-235.35"/>
</g>
<!-- S&#45;1087&#45;&gt;C&#45;0041 -->
<g id="edge34" class="edge">
<title>S&#45;1087&#45;&gt;C&#45;0041</title>
<path fill="none" stroke="#4d4d4d" d="M581,-313.6C581,-301.3 581,-283 581,-283 581,-283 1051.5,-283 1051.5,-283 1051.5,-283 1051.5,-150.48 1051.5,-150.48"/>
<polygon fill="#4d4d4d" stroke="#4d4d4d" points="1053.95,-150.48 1051.5,-143.48 1049.05,-150.48 1053.95,-150.48"/>
</g>
<!-- S&#45;1087&#45;&gt;S&#45;196 -->
<g id="edge33" class="edge">
<title>S&#45;1087&#45;&gt;S&#45;196</title>
<path fill="none" stroke="#4d4d4d" d="M509,-313.69C509,-313.69 509,-241.54 509,-241.54"/>
<polygon fill="#4d4d4d" stroke="#4d4d4d" points="511.45,-241.54 509,-234.54 506.55,-241.54 511.45,-241.54"/>
</g>
<!-- S&#45;198 -->
<g id="node35" class="node">
<title>S&#45;198</title>
<polygon fill="mediumseagreen" stroke="black" points="725,-245 653,-223.5 725,-202 797,-223.5 725,-245"/>
<text text-anchor="middle" x="725" y="-221" font-family="Arial" font-size="10.00">S&#45;198</text>
</g>
<!-- S&#45;1087&#45;&gt;S&#45;198 -->
<g id="edge32" class="edge">
<title>S&#45;1087&#45;&gt;S&#45;198</title>
<path fill="none" stroke="#4d4d4d" d="M615.47,-324C626.86,-324 635,-324 635,-324 635,-324 635,-223 635,-223 635,-223 647.53,-223 647.53,-223"/>
<polygon fill="#4d4d4d" stroke="#4d4d4d" points="647.53,-225.45 654.53,-223 647.53,-220.55 647.53,-225.45"/>
</g>
<!-- SW&#45;001_B -->
<g id="node31" class="node">
<title>SW&#45;001_B</title>
<polygon fill="mediumseagreen" stroke="black" points="735.79,-1457 616.81,-1457 586.21,-1414 705.19,-1414 735.79,-1457"/>
<text text-anchor="middle" x="661" y="-1433" font-family="Arial" font-size="10.00">SW&#45;001_B</text>
</g>
<!-- SW&#45;001_A -->
<g id="node40" class="node">
<title>SW&#45;001_A</title>
<polygon fill="mediumseagreen" stroke="black" points="724.79,-1356 605.81,-1356 575.21,-1313 694.19,-1313 724.79,-1356"/>
<text text-anchor="middle" x="650" y="-1332" font-family="Arial" font-size="10.00">SW&#45;001_A</text>
</g>
<!-- SW&#45;001_B&#45;&gt;SW&#45;001_A -->
<g id="edge10" class="edge">
<title>SW&#45;001_B&#45;&gt;SW&#45;001_A</title>
<path fill="none" stroke="#4d4d4d" d="M655.5,-1413.58C655.5,-1413.58 655.5,-1363.03 655.5,-1363.03"/>
<polygon fill="#4d4d4d" stroke="#4d4d4d" points="657.95,-1363.03 655.5,-1356.03 653.05,-1363.03 657.95,-1363.03"/>
</g>
<!-- SW&#45;001_C -->
<g id="node44" class="node">
<title>SW&#45;001_C</title>
<polygon fill="mediumseagreen" stroke="black" points="1094.79,-1356 975.81,-1356 945.21,-1313 1064.19,-1313 1094.79,-1356"/>
<text text-anchor="middle" x="1020" y="-1332" font-family="Arial" font-size="10.00">SW&#45;001_C</text>
</g>
<!-- SW&#45;001_B&#45;&gt;SW&#45;001_C -->
<g id="edge9" class="edge">
<title>SW&#45;001_B&#45;&gt;SW&#45;001_C</title>
<path fill="none" stroke="#4d4d4d" d="M730.15,-1435.43C730.15,-1432.57 730.15,-1341 730.15,-1341 730.15,-1341 957.8,-1341 957.8,-1341"/>
<polygon fill="#4d4d4d" stroke="#4d4d4d" points="957.8,-1343.45 964.8,-1341 957.8,-1338.55 957.8,-1343.45"/>
</g>
<!-- S&#45;2481 -->
<g id="node32" class="node">
<title>S&#45;2481</title>
<polygon fill="mediumseagreen" stroke="black" points="604,-1255 532,-1233.5 604,-1212 676,-1233.5 604,-1255"/>
<text text-anchor="middle" x="604" y="-1231" font-family="Arial" font-size="10.00">S&#45;2481</text>
</g>
<!-- S&#45;2191 -->
<g id="node48" class="node">
<title>S&#45;2191</title>
<polygon fill="mediumseagreen" stroke="black" points="604,-1154 532,-1132.5 604,-1111 676,-1132.5 604,-1154"/>
<text text-anchor="middle" x="604" y="-1130" font-family="Arial" font-size="10.00">S&#45;2191</text>
</g>
<!-- S&#45;2481&#45;&gt;S&#45;2191 -->
<g id="edge48" class="edge">
<title>S&#45;2481&#45;&gt;S&#45;2191</title>
<path fill="none" stroke="#4d4d4d" d="M604,-1211.58C604,-1211.58 604,-1161.03 604,-1161.03"/>
<polygon fill="#4d4d4d" stroke="#4d4d4d" points="606.45,-1161.03 604,-1154.03 601.55,-1161.03 606.45,-1161.03"/>
</g>
<!-- SW&#45;002_C&#45;&gt;S&#45;2488 -->
<g id="edge7" class="edge">
<title>SW&#45;002_C&#45;&gt;S&#45;2488</title>
<path fill="none" stroke="#4d4d4d" d="M903.18,-1536C956.14,-1536 1025.5,-1536 1025.5,-1536 1025.5,-1536 1025.5,-1463.81 1025.5,-1463.81"/>
<polygon fill="#4d4d4d" stroke="#4d4d4d" points="1027.95,-1463.81 1025.5,-1456.81 1023.05,-1463.81 1027.95,-1463.81"/>
</g>
<!-- SW&#45;002_C&#45;&gt;SW&#45;001_B -->
<g id="edge8" class="edge">
<title>SW&#45;002_C&#45;&gt;SW&#45;001_B</title>
<path fill="none" stroke="#4d4d4d" d="M784.08,-1536C730.71,-1536 661,-1536 661,-1536 661,-1536 661,-1464.31 661,-1464.31"/>
<polygon fill="#4d4d4d" stroke="#4d4d4d" points="663.45,-1464.31 661,-1457.31 658.55,-1464.31 663.45,-1464.31"/>
</g>
<!-- S&#45;2487 -->
<g id="node46" class="node">
<title>S&#45;2487</title>
<polygon fill="mediumseagreen" stroke="black" points="844,-1457 772,-1435.5 844,-1414 916,-1435.5 844,-1457"/>
<text text-anchor="middle" x="844" y="-1433" font-family="Arial" font-size="10.00">S&#45;2487</text>
</g>
<!-- SW&#45;002_C&#45;&gt;S&#45;2487 -->
<g id="edge50" class="edge">
<title>SW&#45;002_C&#45;&gt;S&#45;2487</title>
<path fill="none" stroke="#4d4d4d" d="M844,-1514.58C844,-1514.58 844,-1464.03 844,-1464.03"/>
<polygon fill="#4d4d4d" stroke="#4d4d4d" points="846.45,-1464.03 844,-1457.03 841.55,-1464.03 846.45,-1464.03"/>
</g>
<!-- C&#45;0620&#45;&gt;R&#45;118 -->
<g id="edge28" class="edge">
<title>C&#45;0620&#45;&gt;R&#45;118</title>
<path fill="none" stroke="#4d4d4d" d="M545,-605.58C545,-605.58 545,-555.03 545,-555.03"/>
<polygon fill="#4d4d4d" stroke="#4d4d4d" points="547.45,-555.03 545,-548.03 542.55,-555.03 547.45,-555.03"/>
</g>
<!-- C&#45;0619&#45;&gt;C&#45;0798 -->
<g id="edge39" class="edge">
<title>C&#45;0619&#45;&gt;C&#45;0798</title>
<path fill="none" stroke="#4d4d4d" d="M476.17,-432C386.67,-432 241.67,-432 241.67,-432 241.67,-432 241.67,-331 241.67,-331 241.67,-331 165.73,-331 165.73,-331"/>
<polygon fill="#4d4d4d" stroke="#4d4d4d" points="165.73,-328.55 158.73,-331 165.73,-333.45 165.73,-328.55"/>
</g>
<!-- C&#45;0619&#45;&gt;S&#45;1087 -->
<g id="edge31" class="edge">
<title>C&#45;0619&#45;&gt;S&#45;1087</title>
<path fill="none" stroke="#4d4d4d" d="M545,-403.58C545,-403.58 545,-353.03 545,-353.03"/>
<polygon fill="#4d4d4d" stroke="#4d4d4d" points="547.45,-353.03 545,-346.03 542.55,-353.03 547.45,-353.03"/>
</g>
<!-- S&#45;200 -->
<g id="node37" class="node">
<title>S&#45;200</title>
<polygon fill="mediumseagreen" stroke="black" points="725,-346 653,-324.5 725,-303 797,-324.5 725,-346"/>
<text text-anchor="middle" x="725" y="-322" font-family="Arial" font-size="10.00">S&#45;200</text>
</g>
<!-- C&#45;0619&#45;&gt;S&#45;200 -->
<g id="edge30" class="edge">
<title>C&#45;0619&#45;&gt;S&#45;200</title>
<path fill="none" stroke="#4d4d4d" d="M612.69,-418C652.59,-418 695.33,-418 695.33,-418 695.33,-418 695.33,-344.5 695.33,-344.5"/>
<polygon fill="#4d4d4d" stroke="#4d4d4d" points="697.78,-344.5 695.33,-337.5 692.88,-344.5 697.78,-344.5"/>
</g>
<!-- S&#45;199 -->
<g id="node45" class="node">
<title>S&#45;199</title>
<polygon fill="mediumseagreen" stroke="black" points="905,-346 833,-324.5 905,-303 977,-324.5 905,-346"/>
<text text-anchor="middle" x="905" y="-322" font-family="Arial" font-size="10.00">S&#45;199</text>
</g>
<!-- C&#45;0619&#45;&gt;S&#45;199 -->
<g id="edge41" class="edge">
<title>C&#45;0619&#45;&gt;S&#45;199</title>
<path fill="none" stroke="#4d4d4d" d="M613.7,-432C711.32,-432 878.5,-432 878.5,-432 878.5,-432 878.5,-345.11 878.5,-345.11"/>
<polygon fill="#4d4d4d" stroke="#4d4d4d" points="880.95,-345.11 878.5,-338.11 876.05,-345.11 880.95,-345.11"/>
</g>
<!-- C&#45;0796 -->
<g id="node51" class="node">
<title>C&#45;0796</title>
<ellipse fill="mediumseagreen" stroke="black" cx="333" cy="-324.5" rx="72" ry="21.5"/>
<text text-anchor="middle" x="333" y="-322" font-family="Arial" font-size="10.00">C&#45;0796</text>
</g>
<!-- C&#45;0619&#45;&gt;C&#45;0796 -->
<g id="edge38" class="edge">
<title>C&#45;0619&#45;&gt;C&#45;0796</title>
<path fill="none" stroke="#4d4d4d" d="M477.27,-418C426.06,-418 364.5,-418 364.5,-418 364.5,-418 364.5,-350.87 364.5,-350.87"/>
<polygon fill="#4d4d4d" stroke="#4d4d4d" points="366.95,-350.87 364.5,-343.87 362.05,-350.87 366.95,-350.87"/>
</g>
<!-- R&#45;225&#45;&gt;ext_circ_114_24_ -->
<g id="edge58" class="edge">
<title>R&#45;225&#45;&gt;ext_circ_114_24_</title>
<path fill="none" stroke="darkorange" stroke-dasharray="5,2" d="M936,-105.37C936,-105.37 936,-50.31 936,-50.31"/>
<polygon fill="darkorange" stroke="darkorange" points="938.45,-50.31 936,-43.31 933.55,-50.31 938.45,-50.31"/>
</g>
<!-- R&#45;069 -->
<g id="node39" class="node">
<title>R&#45;069</title>
<polygon fill="mediumseagreen" stroke="black" points="464,-921.59 464,-939.41 421.82,-952 362.18,-952 320,-939.41 320,-921.59 362.18,-909 421.82,-909 464,-921.59"/>
<text text-anchor="middle" x="392" y="-928" font-family="Arial" font-size="10.00">R&#45;069</text>
</g>
<!-- R&#45;069&#45;&gt;C&#45;1150 -->
<g id="edge21" class="edge">
<title>R&#45;069&#45;&gt;C&#45;1150</title>
<path fill="none" stroke="#4d4d4d" d="M392,-908.58C392,-908.58 392,-858.03 392,-858.03"/>
<polygon fill="#4d4d4d" stroke="#4d4d4d" points="394.45,-858.03 392,-851.03 389.55,-858.03 394.45,-858.03"/>
</g>
<!-- SW&#45;001_A&#45;&gt;C&#45;1113 -->
<g id="edge16" class="edge">
<title>SW&#45;001_A&#45;&gt;C&#45;1113</title>
<path fill="none" stroke="#4d4d4d" d="M584.92,-1327C517.48,-1327 421.82,-1327 421.82,-1327 421.82,-1327 421.82,-1262.19 421.82,-1262.19"/>
<polygon fill="#4d4d4d" stroke="#4d4d4d" points="424.27,-1262.19 421.82,-1255.19 419.37,-1262.19 424.27,-1262.19"/>
</g>
<!-- SW&#45;001_A&#45;&gt;S&#45;2480 -->
<g id="edge11" class="edge">
<title>SW&#45;001_A&#45;&gt;S&#45;2480</title>
<path fill="none" stroke="#4d4d4d" d="M704.18,-1327C778.77,-1327 904,-1327 904,-1327 904,-1327 904,-1244.52 904,-1244.52"/>
<polygon fill="#4d4d4d" stroke="#4d4d4d" points="906.45,-1244.52 904,-1237.52 901.55,-1244.52 906.45,-1244.52"/>
</g>
<!-- SW&#45;001_A&#45;&gt;S&#45;2482 -->
<g id="edge13" class="edge">
<title>SW&#45;001_A&#45;&gt;S&#45;2482</title>
<path fill="none" stroke="#4d4d4d" d="M718.32,-1334.43C718.32,-1334.43 718.32,-1242.55 718.32,-1242.55"/>
<polygon fill="#4d4d4d" stroke="#4d4d4d" points="720.77,-1242.55 718.32,-1235.55 715.87,-1242.55 720.77,-1242.55"/>
</g>
<!-- SW&#45;001_A&#45;&gt;C&#45;1167 -->
<g id="edge14" class="edge">
<title>SW&#45;001_A&#45;&gt;C&#45;1167</title>
<path fill="none" stroke="#4d4d4d" d="M594.82,-1341C483.81,-1341 244,-1341 244,-1341 244,-1341 244,-1262.25 244,-1262.25"/>
<polygon fill="#4d4d4d" stroke="#4d4d4d" points="246.45,-1262.25 244,-1255.25 241.55,-1262.25 246.45,-1262.25"/>
</g>
<!-- SW&#45;001_A&#45;&gt;S&#45;2481 -->
<g id="edge47" class="edge">
<title>SW&#45;001_A&#45;&gt;S&#45;2481</title>
<path fill="none" stroke="#4d4d4d" d="M625.68,-1312.58C625.68,-1312.58 625.68,-1255.81 625.68,-1255.81"/>
<polygon fill="#4d4d4d" stroke="#4d4d4d" points="628.13,-1255.81 625.68,-1248.81 623.23,-1255.81 628.13,-1255.81"/>
</g>
<!-- C&#45;0618&#45;&gt;S&#45;200 -->
<g id="edge56" class="edge">
<title>C&#45;0618&#45;&gt;S&#45;200</title>
<path fill="none" stroke="blue" stroke-dasharray="5,2" d="M737.67,-606.19C737.67,-606.19 737.67,-349.28 737.67,-349.28"/>
<polygon fill="blue" stroke="blue" points="740.12,-349.28 737.67,-342.28 735.22,-349.28 740.12,-349.28"/>
</g>
<!-- S&#45;228&#45;&gt;S&#45;229 -->
<g id="edge25" class="edge">
<title>S&#45;228&#45;&gt;S&#45;229</title>
<path fill="none" stroke="#4d4d4d" d="M878.5,-613.88C878.5,-613.88 878.5,-547.23 878.5,-547.23"/>
<polygon fill="#4d4d4d" stroke="#4d4d4d" points="880.95,-547.23 878.5,-540.23 876.05,-547.23 880.95,-547.23"/>
</g>
<!-- S&#45;230 -->
<g id="node49" class="node">
<title>S&#45;230</title>
<polygon fill="mediumseagreen" stroke="black" points="1032,-548 960,-526.5 1032,-505 1104,-526.5 1032,-548"/>
<text text-anchor="middle" x="1032" y="-524" font-family="Arial" font-size="10.00">S&#45;230</text>
</g>
<!-- S&#45;228&#45;&gt;S&#45;230 -->
<g id="edge24" class="edge">
<title>S&#45;228&#45;&gt;S&#45;230</title>
<path fill="none" stroke="#4d4d4d" d="M968.5,-624.59C968.5,-624.59 968.5,-536.23 968.5,-536.23"/>
<polygon fill="#4d4d4d" stroke="#4d4d4d" points="970.95,-536.23 968.5,-529.23 966.05,-536.23 970.95,-536.23"/>
</g>
<!-- SW&#45;001_C&#45;&gt;SW&#45;003_A -->
<g id="edge49" class="edge">
<title>SW&#45;001_C&#45;&gt;SW&#45;003_A</title>
<path fill="none" stroke="#4d4d4d" d="M1083.5,-1334.43C1083.5,-1334.43 1083.5,-1240.57 1083.5,-1240.57"/>
<polygon fill="#4d4d4d" stroke="#4d4d4d" points="1085.95,-1240.57 1083.5,-1233.57 1081.05,-1240.57 1085.95,-1240.57"/>
</g>
<!-- 109&#45;28&#45; -->
<g id="node47" class="node">
<title>109&#45;28&#45;</title>
<polygon fill="gold" stroke="black" points="1189,-1733.59 1189,-1751.41 1146.82,-1764 1087.18,-1764 1045,-1751.41 1045,-1733.59 1087.18,-1721 1146.82,-1721 1189,-1733.59"/>
<polygon fill="none" stroke="black" points="1193,-1730.61 1193,-1754.39 1147.41,-1768 1086.59,-1768 1041,-1754.39 1041,-1730.61 1086.59,-1717 1147.41,-1717 1193,-1730.61"/>
<text text-anchor="middle" x="1117" y="-1740" font-family="Arial" font-size="10.00">109&#45;28&#45;</text>
</g>
<!-- 109&#45;28&#45;&#45;&gt;SW&#45;002_D -->
<g id="edge3" class="edge">
<title>109&#45;28&#45;&#45;&gt;SW&#45;002_D</title>
<path fill="none" stroke="#4d4d4d" d="M1040.95,-1742C960.18,-1742 844,-1742 844,-1742 844,-1742 844,-1666.15 844,-1666.15"/>
<polygon fill="#4d4d4d" stroke="#4d4d4d" points="846.45,-1666.15 844,-1659.15 841.55,-1666.15 846.45,-1666.15"/>
</g>
<!-- 109&#45;28&#45;&#45;&gt;S&#45;2519 -->
<g id="edge1" class="edge">
<title>109&#45;28&#45;&#45;&gt;S&#45;2519</title>
<path fill="none" stroke="#4d4d4d" d="M1070,-1721.76C1070,-1721.76 1070,-1653.36 1070,-1653.36"/>
<polygon fill="#4d4d4d" stroke="#4d4d4d" points="1072.45,-1653.36 1070,-1646.36 1067.55,-1653.36 1072.45,-1653.36"/>
</g>
<!-- 109&#45;28&#45;&#45;&gt;S&#45;2521 -->
<g id="edge2" class="edge">
<title>109&#45;28&#45;&#45;&gt;S&#45;2521</title>
<path fill="none" stroke="#4d4d4d" d="M1164,-1721.76C1164,-1721.76 1164,-1653.36 1164,-1653.36"/>
<polygon fill="#4d4d4d" stroke="#4d4d4d" points="1166.45,-1653.36 1164,-1646.36 1161.55,-1653.36 1166.45,-1653.36"/>
</g>
<!-- 109&#45;28&#45;&#45;&gt;S&#45;2562 -->
<g id="edge51" class="edge">
<title>109&#45;28&#45;&#45;&gt;S&#45;2562</title>
<path fill="none" stroke="#4d4d4d" d="M1193.29,-1742C1273.13,-1742 1387,-1742 1387,-1742 1387,-1742 1387,-1666.15 1387,-1666.15"/>
<polygon fill="#4d4d4d" stroke="#4d4d4d" points="1389.45,-1666.15 1387,-1659.15 1384.55,-1666.15 1389.45,-1666.15"/>
</g>
<!-- C&#45;1220&#45;&gt;ext_circ_110_26_ -->
<g id="edge61" class="edge">
<title>C&#45;1220&#45;&gt;ext_circ_110_26_</title>
<path fill="none" stroke="darkorange" stroke-dasharray="5,2" d="M207,-509.37C207,-509.37 207,-454.31 207,-454.31"/>
<polygon fill="darkorange" stroke="darkorange" points="209.45,-454.31 207,-447.31 204.55,-454.31 209.45,-454.31"/>
</g>
<!-- C&#45;0796&#45;&gt;R&#45;177 -->
<g id="edge40" class="edge">
<title>C&#45;0796&#45;&gt;R&#45;177</title>
<path fill="none" stroke="#4d4d4d" d="M265.47,-317C255.95,-317 249.33,-317 249.33,-317 249.33,-317 249.33,-241.96 249.33,-241.96"/>
<polygon fill="#4d4d4d" stroke="#4d4d4d" points="251.78,-241.96 249.33,-234.96 246.88,-241.96 251.78,-241.96"/>
</g>
<!-- C&#45;1149&#45;&gt;R&#45;069 -->
<g id="edge20" class="edge">
<title>C&#45;1149&#45;&gt;R&#45;069</title>
<path fill="none" stroke="#4d4d4d" d="M392,-1009.58C392,-1009.58 392,-959.03 392,-959.03"/>
<polygon fill="#4d4d4d" stroke="#4d4d4d" points="394.45,-959.03 392,-952.03 389.55,-959.03 394.45,-959.03"/>
</g>
</g>
</svg>
