<?xml version="1.0" encoding="UTF-8" standalone="no"?>
<!DOCTYPE svg PUBLIC "-//W3C//DTD SVG 1.1//EN"
 "http://www.w3.org/Graphics/SVG/1.1/DTD/svg11.dtd">
<!-- Generated by graphviz version 2.50.0 (0)
 -->
<!-- Title: Grafo_Circuito_101_24_ Pages: 1 -->
<svg width="1592pt" height="766pt"
 viewBox="0.00 0.00 1592.00 766.00" xmlns="http://www.w3.org/2000/svg" xmlns:xlink="http://www.w3.org/1999/xlink">
<g id="graph0" class="graph" transform="scale(1 1) rotate(0) translate(4 762)">
<title>Grafo_Circuito_101_24_</title>
<polygon fill="white" stroke="transparent" points="-4,4 -4,-762 1588,-762 1588,4 -4,4"/>
<!-- C&#45;0345 -->
<g id="node1" class="node">
<title>C&#45;0345</title>
<ellipse fill="mediumseagreen" stroke="black" cx="432" cy="-627.5" rx="72" ry="21.5"/>
<text text-anchor="middle" x="432" y="-625" font-family="Arial" font-size="10.00">C&#45;0345</text>
</g>
<!-- C&#45;0751 -->
<g id="node4" class="node">
<title>C&#45;0751</title>
<ellipse fill="tomato" stroke="black" cx="72" cy="-526.5" rx="72" ry="21.5"/>
<text text-anchor="middle" x="72" y="-524" font-family="Arial" font-size="10.00">C&#45;0751</text>
</g>
<!-- C&#45;0345&#45;&gt;C&#45;0751 -->
<g id="edge6" class="edge">
<title>C&#45;0345&#45;&gt;C&#45;0751</title>
<path fill="none" stroke="#4d4d4d" d="M363.01,-634C258.48,-634 72,-634 72,-634 72,-634 72,-555.25 72,-555.25"/>
<polygon fill="#4d4d4d" stroke="#4d4d4d" points="74.45,-555.25 72,-548.25 69.55,-555.25 74.45,-555.25"/>
</g>
<!-- S&#45;2491 -->
<g id="node12" class="node">
<title>S&#45;2491</title>
<polygon fill="mediumseagreen" stroke="black" points="252,-548 180,-526.5 252,-505 324,-526.5 252,-548"/>
<text text-anchor="middle" x="252" y="-524" font-family="Arial" font-size="10.00">S&#45;2491</text>
</g>
<!-- C&#45;0345&#45;&gt;S&#45;2491 -->
<g id="edge4" class="edge">
<title>C&#45;0345&#45;&gt;S&#45;2491</title>
<path fill="none" stroke="#4d4d4d" d="M364.46,-620C313.39,-620 252,-620 252,-620 252,-620 252,-555.19 252,-555.19"/>
<polygon fill="#4d4d4d" stroke="#4d4d4d" points="254.45,-555.19 252,-548.19 249.55,-555.19 254.45,-555.19"/>
</g>
<!-- S&#45;1314 -->
<g id="node17" class="node">
<title>S&#45;1314</title>
<polygon fill="mediumseagreen" stroke="black" points="432,-548 360,-526.5 432,-505 504,-526.5 432,-548"/>
<text text-anchor="middle" x="432" y="-524" font-family="Arial" font-size="10.00">S&#45;1314</text>
</g>
<!-- C&#45;0345&#45;&gt;S&#45;1314 -->
<g id="edge2" class="edge">
<title>C&#45;0345&#45;&gt;S&#45;1314</title>
<path fill="none" stroke="#4d4d4d" d="M432,-605.58C432,-605.58 432,-555.03 432,-555.03"/>
<polygon fill="#4d4d4d" stroke="#4d4d4d" points="434.45,-555.03 432,-548.03 429.55,-555.03 434.45,-555.03"/>
</g>
<!-- S&#45;383 -->
<g id="node26" class="node">
<title>S&#45;383</title>
<polygon fill="mediumseagreen" stroke="black" points="612,-548 540,-526.5 612,-505 684,-526.5 612,-548"/>
<text text-anchor="middle" x="612" y="-524" font-family="Arial" font-size="10.00">S&#45;383</text>
</g>
<!-- C&#45;0345&#45;&gt;S&#45;383 -->
<g id="edge5" class="edge">
<title>C&#45;0345&#45;&gt;S&#45;383</title>
<path fill="none" stroke="#4d4d4d" d="M504.4,-627C543.16,-627 583,-627 583,-627 583,-627 583,-546.64 583,-546.64"/>
<polygon fill="#4d4d4d" stroke="#4d4d4d" points="585.45,-546.64 583,-539.64 580.55,-546.64 585.45,-546.64"/>
</g>
<!-- S&#45;2172 -->
<g id="node2" class="node">
<title>S&#45;2172</title>
<polygon fill="mediumseagreen" stroke="black" points="792,-548 720,-526.5 792,-505 864,-526.5 792,-548"/>
<text text-anchor="middle" x="792" y="-524" font-family="Arial" font-size="10.00">S&#45;2172</text>
</g>
<!-- C&#45;0590 -->
<g id="node3" class="node">
<title>C&#45;0590</title>
<ellipse fill="mediumseagreen" stroke="black" cx="972" cy="-526.5" rx="72" ry="21.5"/>
<text text-anchor="middle" x="972" y="-524" font-family="Arial" font-size="10.00">C&#45;0590</text>
</g>
<!-- R&#45;111 -->
<g id="node24" class="node">
<title>R&#45;111</title>
<polygon fill="mediumseagreen" stroke="black" points="917,-416.59 917,-434.41 874.82,-447 815.18,-447 773,-434.41 773,-416.59 815.18,-404 874.82,-404 917,-416.59"/>
<text text-anchor="middle" x="845" y="-423" font-family="Arial" font-size="10.00">R&#45;111</text>
</g>
<!-- C&#45;0590&#45;&gt;R&#45;111 -->
<g id="edge16" class="edge">
<title>C&#45;0590&#45;&gt;R&#45;111</title>
<path fill="none" stroke="#4d4d4d" d="M908.5,-516.07C908.5,-516.07 908.5,-443.95 908.5,-443.95"/>
<polygon fill="#4d4d4d" stroke="#4d4d4d" points="910.95,-443.95 908.5,-436.95 906.05,-443.95 910.95,-443.95"/>
</g>
<!-- ext_circ_101_23_ -->
<g id="node28" class="node">
<title>ext_circ_101_23_</title>
<polygon fill="lightpink" stroke="darkorange" stroke-dasharray="5,2" points="144,-447 0,-447 0,-404 144,-404 144,-447"/>
<text text-anchor="middle" x="72" y="-428.5" font-family="Arial" font-size="10.00">Circuito:</text>
<text text-anchor="middle" x="72" y="-417.5" font-family="Arial" font-size="10.00">101&#45;23&#45;</text>
</g>
<!-- C&#45;0751&#45;&gt;ext_circ_101_23_ -->
<g id="edge27" class="edge">
<title>C&#45;0751&#45;&gt;ext_circ_101_23_</title>
<path fill="none" stroke="darkorange" stroke-dasharray="5,2" d="M72,-504.58C72,-504.58 72,-454.03 72,-454.03"/>
<polygon fill="darkorange" stroke="darkorange" points="74.45,-454.03 72,-447.03 69.55,-454.03 74.45,-454.03"/>
</g>
<!-- C&#45;1060 -->
<g id="node5" class="node">
<title>C&#45;1060</title>
<ellipse fill="mediumseagreen" stroke="black" cx="1152" cy="-526.5" rx="72" ry="21.5"/>
<text text-anchor="middle" x="1152" y="-524" font-family="Arial" font-size="10.00">C&#45;1060</text>
</g>
<!-- C&#45;1059 -->
<g id="node23" class="node">
<title>C&#45;1059</title>
<ellipse fill="mediumseagreen" stroke="black" cx="1165" cy="-425.5" rx="72" ry="21.5"/>
<text text-anchor="middle" x="1165" y="-423" font-family="Arial" font-size="10.00">C&#45;1059</text>
</g>
<!-- C&#45;1060&#45;&gt;C&#45;1059 -->
<g id="edge10" class="edge">
<title>C&#45;1060&#45;&gt;C&#45;1059</title>
<path fill="none" stroke="#4d4d4d" d="M1158.5,-505.08C1158.5,-505.08 1158.5,-454.24 1158.5,-454.24"/>
<polygon fill="#4d4d4d" stroke="#4d4d4d" points="1160.95,-454.24 1158.5,-447.24 1156.05,-454.24 1160.95,-454.24"/>
</g>
<!-- C&#45;0775 -->
<g id="node6" class="node">
<title>C&#45;0775</title>
<ellipse fill="mediumseagreen" stroke="black" cx="277" cy="-223.5" rx="72" ry="21.5"/>
<text text-anchor="middle" x="277" y="-221" font-family="Arial" font-size="10.00">C&#45;0775</text>
</g>
<!-- R&#45;171 -->
<g id="node22" class="node">
<title>R&#45;171</title>
<polygon fill="tomato" stroke="black" points="349,-113.59 349,-131.41 306.82,-144 247.18,-144 205,-131.41 205,-113.59 247.18,-101 306.82,-101 349,-113.59"/>
<text text-anchor="middle" x="277" y="-120" font-family="Arial" font-size="10.00">R&#45;171</text>
</g>
<!-- C&#45;0775&#45;&gt;R&#45;171 -->
<g id="edge25" class="edge">
<title>C&#45;0775&#45;&gt;R&#45;171</title>
<path fill="none" stroke="#4d4d4d" d="M277,-201.58C277,-201.58 277,-151.03 277,-151.03"/>
<polygon fill="#4d4d4d" stroke="#4d4d4d" points="279.45,-151.03 277,-144.03 274.55,-151.03 279.45,-151.03"/>
</g>
<!-- S&#45;314 -->
<g id="node7" class="node">
<title>S&#45;314</title>
<polygon fill="mediumseagreen" stroke="black" points="457,-144 385,-122.5 457,-101 529,-122.5 457,-144"/>
<text text-anchor="middle" x="457" y="-120" font-family="Arial" font-size="10.00">S&#45;314</text>
</g>
<!-- C&#45;0589 -->
<g id="node8" class="node">
<title>C&#45;0589</title>
<ellipse fill="tomato" stroke="black" cx="1332" cy="-526.5" rx="72" ry="21.5"/>
<text text-anchor="middle" x="1332" y="-524" font-family="Arial" font-size="10.00">C&#45;0589</text>
</g>
<!-- C&#45;0591 -->
<g id="node27" class="node">
<title>C&#45;0591</title>
<ellipse fill="mediumseagreen" stroke="black" cx="817" cy="-324.5" rx="72" ry="21.5"/>
<text text-anchor="middle" x="817" y="-322" font-family="Arial" font-size="10.00">C&#45;0591</text>
</g>
<!-- C&#45;0589&#45;&gt;C&#45;0591 -->
<g id="edge29" class="edge">
<title>C&#45;0589&#45;&gt;C&#45;0591</title>
<path fill="none" stroke="blue" stroke-dasharray="5,2" d="M1277,-512.52C1277,-475.01 1277,-375 1277,-375 1277,-375 850.33,-375 850.33,-375 850.33,-375 850.33,-350.59 850.33,-350.59"/>
<polygon fill="blue" stroke="blue" points="852.78,-350.59 850.33,-343.59 847.88,-350.59 852.78,-350.59"/>
</g>
<!-- S&#45;385 -->
<g id="node9" class="node">
<title>S&#45;385</title>
<polygon fill="mediumseagreen" stroke="black" points="457,-245 385,-223.5 457,-202 529,-223.5 457,-245"/>
<text text-anchor="middle" x="457" y="-221" font-family="Arial" font-size="10.00">S&#45;385</text>
</g>
<!-- S&#45;385&#45;&gt;S&#45;314 -->
<g id="edge21" class="edge">
<title>S&#45;385&#45;&gt;S&#45;314</title>
<path fill="none" stroke="#4d4d4d" d="M457,-201.58C457,-201.58 457,-151.03 457,-151.03"/>
<polygon fill="#4d4d4d" stroke="#4d4d4d" points="459.45,-151.03 457,-144.03 454.55,-151.03 459.45,-151.03"/>
</g>
<!-- S&#45;2050 -->
<g id="node10" class="node">
<title>S&#45;2050</title>
<polygon fill="mediumseagreen" stroke="black" points="637,-245 565,-223.5 637,-202 709,-223.5 637,-245"/>
<text text-anchor="middle" x="637" y="-221" font-family="Arial" font-size="10.00">S&#45;2050</text>
</g>
<!-- S&#45;2203 -->
<g id="node11" class="node">
<title>S&#45;2203</title>
<polygon fill="mediumseagreen" stroke="black" points="817,-245 745,-223.5 817,-202 889,-223.5 817,-245"/>
<text text-anchor="middle" x="817" y="-221" font-family="Arial" font-size="10.00">S&#45;2203</text>
</g>
<!-- 101&#45;24&#45; -->
<g id="node13" class="node">
<title>101&#45;24&#45;</title>
<polygon fill="gold" stroke="black" points="774,-723.59 774,-741.41 731.82,-754 672.18,-754 630,-741.41 630,-723.59 672.18,-711 731.82,-711 774,-723.59"/>
<polygon fill="none" stroke="black" points="778,-720.61 778,-744.39 732.41,-758 671.59,-758 626,-744.39 626,-720.61 671.59,-707 732.41,-707 778,-720.61"/>
<text text-anchor="middle" x="702" y="-730" font-family="Arial" font-size="10.00">101&#45;24&#45;</text>
</g>
<!-- 101&#45;24&#45;&#45;&gt;C&#45;0345 -->
<g id="edge1" class="edge">
<title>101&#45;24&#45;&#45;&gt;C&#45;0345</title>
<path fill="none" stroke="#4d4d4d" d="M625.71,-732C545.87,-732 432,-732 432,-732 432,-732 432,-656.15 432,-656.15"/>
<polygon fill="#4d4d4d" stroke="#4d4d4d" points="434.45,-656.15 432,-649.15 429.55,-656.15 434.45,-656.15"/>
</g>
<!-- S&#45;2277 -->
<g id="node18" class="node">
<title>S&#45;2277</title>
<polygon fill="mediumseagreen" stroke="black" points="702,-649 630,-627.5 702,-606 774,-627.5 702,-649"/>
<text text-anchor="middle" x="702" y="-625" font-family="Arial" font-size="10.00">S&#45;2277</text>
</g>
<!-- 101&#45;24&#45;&#45;&gt;S&#45;2277 -->
<g id="edge26" class="edge">
<title>101&#45;24&#45;&#45;&gt;S&#45;2277</title>
<path fill="none" stroke="#4d4d4d" d="M702,-706.81C702,-706.81 702,-656.03 702,-656.03"/>
<polygon fill="#4d4d4d" stroke="#4d4d4d" points="704.45,-656.03 702,-649.03 699.55,-656.03 704.45,-656.03"/>
</g>
<!-- C&#45;0710 -->
<g id="node25" class="node">
<title>C&#45;0710</title>
<ellipse fill="mediumseagreen" stroke="black" cx="1062" cy="-627.5" rx="72" ry="21.5"/>
<text text-anchor="middle" x="1062" y="-625" font-family="Arial" font-size="10.00">C&#45;0710</text>
</g>
<!-- 101&#45;24&#45;&#45;&gt;C&#45;0710 -->
<g id="edge7" class="edge">
<title>101&#45;24&#45;&#45;&gt;C&#45;0710</title>
<path fill="none" stroke="#4d4d4d" d="M778.35,-732C884.02,-732 1062,-732 1062,-732 1062,-732 1062,-656.15 1062,-656.15"/>
<polygon fill="#4d4d4d" stroke="#4d4d4d" points="1064.45,-656.15 1062,-649.15 1059.55,-656.15 1064.45,-656.15"/>
</g>
<!-- S&#45;1765 -->
<g id="node14" class="node">
<title>S&#45;1765</title>
<polygon fill="mediumseagreen" stroke="black" points="432,-447 360,-425.5 432,-404 504,-425.5 432,-447"/>
<text text-anchor="middle" x="432" y="-423" font-family="Arial" font-size="10.00">S&#45;1765</text>
</g>
<!-- S&#45;2536 -->
<g id="node15" class="node">
<title>S&#45;2536</title>
<polygon fill="mediumseagreen" stroke="black" points="1251,-245 1179,-223.5 1251,-202 1323,-223.5 1251,-245"/>
<text text-anchor="middle" x="1251" y="-221" font-family="Arial" font-size="10.00">S&#45;2536</text>
</g>
<!-- S&#45;2301 -->
<g id="node16" class="node">
<title>S&#45;2301</title>
<polygon fill="mediumseagreen" stroke="black" points="1222,-346 1150,-324.5 1222,-303 1294,-324.5 1222,-346"/>
<text text-anchor="middle" x="1222" y="-322" font-family="Arial" font-size="10.00">S&#45;2301</text>
</g>
<!-- S&#45;2301&#45;&gt;S&#45;2536 -->
<g id="edge12" class="edge">
<title>S&#45;2301&#45;&gt;S&#45;2536</title>
<path fill="none" stroke="#4d4d4d" d="M1236.5,-306.91C1236.5,-306.91 1236.5,-247.89 1236.5,-247.89"/>
<polygon fill="#4d4d4d" stroke="#4d4d4d" points="1238.95,-247.89 1236.5,-240.89 1234.05,-247.89 1238.95,-247.89"/>
</g>
<!-- S&#45;1314&#45;&gt;S&#45;1765 -->
<g id="edge3" class="edge">
<title>S&#45;1314&#45;&gt;S&#45;1765</title>
<path fill="none" stroke="#4d4d4d" d="M432,-504.58C432,-504.58 432,-454.03 432,-454.03"/>
<polygon fill="#4d4d4d" stroke="#4d4d4d" points="434.45,-454.03 432,-447.03 429.55,-454.03 434.45,-454.03"/>
</g>
<!-- C&#45;1058 -->
<g id="node19" class="node">
<title>C&#45;1058</title>
<ellipse fill="tomato" stroke="black" cx="1512" cy="-526.5" rx="72" ry="21.5"/>
<text text-anchor="middle" x="1512" y="-524" font-family="Arial" font-size="10.00">C&#45;1058</text>
</g>
<!-- C&#45;1058&#45;&gt;S&#45;2301 -->
<g id="edge28" class="edge">
<title>C&#45;1058&#45;&gt;S&#45;2301</title>
<path fill="none" stroke="blue" stroke-dasharray="5,2" d="M1512,-504.83C1512,-452.59 1512,-324 1512,-324 1512,-324 1299.57,-324 1299.57,-324"/>
<polygon fill="blue" stroke="blue" points="1299.57,-321.55 1292.57,-324 1299.57,-326.45 1299.57,-321.55"/>
</g>
<!-- S&#45;2026 -->
<g id="node20" class="node">
<title>S&#45;2026</title>
<polygon fill="mediumseagreen" stroke="black" points="997,-245 925,-223.5 997,-202 1069,-223.5 997,-245"/>
<text text-anchor="middle" x="997" y="-221" font-family="Arial" font-size="10.00">S&#45;2026</text>
</g>
<!-- C&#45;0776 -->
<g id="node21" class="node">
<title>C&#45;0776</title>
<ellipse fill="tomato" stroke="black" cx="880" cy="-122.5" rx="72" ry="21.5"/>
<text text-anchor="middle" x="880" y="-120" font-family="Arial" font-size="10.00">C&#45;0776</text>
</g>
<!-- ext_circ_101_25_ -->
<g id="node29" class="node">
<title>ext_circ_101_25_</title>
<polygon fill="lightpink" stroke="darkorange" stroke-dasharray="5,2" points="529,-43 385,-43 385,0 529,0 529,-43"/>
<text text-anchor="middle" x="457" y="-24.5" font-family="Arial" font-size="10.00">Circuito:</text>
<text text-anchor="middle" x="457" y="-13.5" font-family="Arial" font-size="10.00">101&#45;25&#45;</text>
</g>
<!-- C&#45;0776&#45;&gt;ext_circ_101_25_ -->
<g id="edge30" class="edge">
<title>C&#45;0776&#45;&gt;ext_circ_101_25_</title>
<path fill="none" stroke="darkorange" stroke-dasharray="5,2" d="M880,-100.97C880,-71.18 880,-21 880,-21 880,-21 536.24,-21 536.24,-21"/>
<polygon fill="darkorange" stroke="darkorange" points="536.24,-18.55 529.24,-21 536.24,-23.45 536.24,-18.55"/>
</g>
<!-- R&#45;171&#45;&gt;ext_circ_101_25_ -->
<g id="edge31" class="edge">
<title>R&#45;171&#45;&gt;ext_circ_101_25_</title>
<path fill="none" stroke="darkorange" stroke-dasharray="5,2" d="M277,-100.97C277,-71.18 277,-21 277,-21 277,-21 377.82,-21 377.82,-21"/>
<polygon fill="darkorange" stroke="darkorange" points="377.82,-23.45 384.82,-21 377.82,-18.55 377.82,-23.45"/>
</g>
<!-- C&#45;1059&#45;&gt;S&#45;2301 -->
<g id="edge11" class="edge">
<title>C&#45;1059&#45;&gt;S&#45;2301</title>
<path fill="none" stroke="#4d4d4d" d="M1193.5,-405.55C1193.5,-405.55 1193.5,-344.66 1193.5,-344.66"/>
<polygon fill="#4d4d4d" stroke="#4d4d4d" points="1195.95,-344.66 1193.5,-337.66 1191.05,-344.66 1195.95,-344.66"/>
</g>
<!-- R&#45;111&#45;&gt;C&#45;0591 -->
<g id="edge17" class="edge">
<title>R&#45;111&#45;&gt;C&#45;0591</title>
<path fill="none" stroke="#4d4d4d" d="M811.67,-404.57C811.67,-404.57 811.67,-353.1 811.67,-353.1"/>
<polygon fill="#4d4d4d" stroke="#4d4d4d" points="814.12,-353.1 811.67,-346.1 809.22,-353.1 814.12,-353.1"/>
</g>
<!-- C&#45;0710&#45;&gt;S&#45;2172 -->
<g id="edge13" class="edge">
<title>C&#45;0710&#45;&gt;S&#45;2172</title>
<path fill="none" stroke="#4d4d4d" d="M990.02,-627C919,-627 821,-627 821,-627 821,-627 821,-546.64 821,-546.64"/>
<polygon fill="#4d4d4d" stroke="#4d4d4d" points="823.45,-546.64 821,-539.64 818.55,-546.64 823.45,-546.64"/>
</g>
<!-- C&#45;0710&#45;&gt;C&#45;0590 -->
<g id="edge14" class="edge">
<title>C&#45;0710&#45;&gt;C&#45;0590</title>
<path fill="none" stroke="#4d4d4d" d="M1017,-610.37C1017,-610.37 1017,-550.38 1017,-550.38"/>
<polygon fill="#4d4d4d" stroke="#4d4d4d" points="1019.45,-550.38 1017,-543.38 1014.55,-550.38 1019.45,-550.38"/>
</g>
<!-- C&#45;0710&#45;&gt;C&#45;1060 -->
<g id="edge9" class="edge">
<title>C&#45;0710&#45;&gt;C&#45;1060</title>
<path fill="none" stroke="#4d4d4d" d="M1107,-610.37C1107,-610.37 1107,-550.38 1107,-550.38"/>
<polygon fill="#4d4d4d" stroke="#4d4d4d" points="1109.45,-550.38 1107,-543.38 1104.55,-550.38 1109.45,-550.38"/>
</g>
<!-- C&#45;0710&#45;&gt;C&#45;0589 -->
<g id="edge15" class="edge">
<title>C&#45;0710&#45;&gt;C&#45;0589</title>
<path fill="none" stroke="#4d4d4d" d="M1129.78,-620C1209.76,-620 1332,-620 1332,-620 1332,-620 1332,-555.19 1332,-555.19"/>
<polygon fill="#4d4d4d" stroke="#4d4d4d" points="1334.45,-555.19 1332,-548.19 1329.55,-555.19 1334.45,-555.19"/>
</g>
<!-- C&#45;0710&#45;&gt;C&#45;1058 -->
<g id="edge8" class="edge">
<title>C&#45;0710&#45;&gt;C&#45;1058</title>
<path fill="none" stroke="#4d4d4d" d="M1130.84,-634C1256.89,-634 1512,-634 1512,-634 1512,-634 1512,-555.25 1512,-555.25"/>
<polygon fill="#4d4d4d" stroke="#4d4d4d" points="1514.45,-555.25 1512,-548.25 1509.55,-555.25 1514.45,-555.25"/>
</g>
<!-- C&#45;0591&#45;&gt;C&#45;0775 -->
<g id="edge23" class="edge">
<title>C&#45;0591&#45;&gt;C&#45;0775</title>
<path fill="none" stroke="#4d4d4d" d="M753.69,-335C623.21,-335 336.5,-335 336.5,-335 336.5,-335 336.5,-242.86 336.5,-242.86"/>
<polygon fill="#4d4d4d" stroke="#4d4d4d" points="338.95,-242.86 336.5,-235.86 334.05,-242.86 338.95,-242.86"/>
</g>
<!-- C&#45;0591&#45;&gt;S&#45;385 -->
<g id="edge20" class="edge">
<title>C&#45;0591&#45;&gt;S&#45;385</title>
<path fill="none" stroke="#4d4d4d" d="M744.64,-324C655.72,-324 516.5,-324 516.5,-324 516.5,-324 516.5,-234.32 516.5,-234.32"/>
<polygon fill="#4d4d4d" stroke="#4d4d4d" points="518.95,-234.32 516.5,-227.32 514.05,-234.32 518.95,-234.32"/>
</g>
<!-- C&#45;0591&#45;&gt;S&#45;2050 -->
<g id="edge19" class="edge">
<title>C&#45;0591&#45;&gt;S&#45;2050</title>
<path fill="none" stroke="#4d4d4d" d="M756.04,-313C726.16,-313 696.5,-313 696.5,-313 696.5,-313 696.5,-234.35 696.5,-234.35"/>
<polygon fill="#4d4d4d" stroke="#4d4d4d" points="698.95,-234.35 696.5,-227.35 694.05,-234.35 698.95,-234.35"/>
</g>
<!-- C&#45;0591&#45;&gt;S&#45;2203 -->
<g id="edge18" class="edge">
<title>C&#45;0591&#45;&gt;S&#45;2203</title>
<path fill="none" stroke="#4d4d4d" d="M817,-302.58C817,-302.58 817,-252.03 817,-252.03"/>
<polygon fill="#4d4d4d" stroke="#4d4d4d" points="819.45,-252.03 817,-245.03 814.55,-252.03 819.45,-252.03"/>
</g>
<!-- C&#45;0591&#45;&gt;S&#45;2026 -->
<g id="edge22" class="edge">
<title>C&#45;0591&#45;&gt;S&#45;2026</title>
<path fill="none" stroke="#4d4d4d" d="M884.65,-317C931.13,-317 984.5,-317 984.5,-317 984.5,-317 984.5,-248.53 984.5,-248.53"/>
<polygon fill="#4d4d4d" stroke="#4d4d4d" points="986.95,-248.53 984.5,-241.53 982.05,-248.53 986.95,-248.53"/>
</g>
<!-- C&#45;0591&#45;&gt;C&#45;0776 -->
<g id="edge24" class="edge">
<title>C&#45;0591&#45;&gt;C&#45;0776</title>
<path fill="none" stroke="#4d4d4d" d="M886.01,-331C896.01,-331 903,-331 903,-331 903,-331 903,-150.25 903,-150.25"/>
<polygon fill="#4d4d4d" stroke="#4d4d4d" points="905.45,-150.25 903,-143.25 900.55,-150.25 905.45,-150.25"/>
</g>
</g>
</svg>
